<svg width="240" height="230" viewBox="0 0 240 230" fill="none" xmlns="http://www.w3.org/2000/svg">
<path d="M94.0879 58.1234C94.0879 58.1234 92.1256 64.1903 91.4121 66.1531C90.5201 68.8296 92.304 69.7218 94.0879 69.7218H95.8719" stroke="black" stroke-width="2.3" stroke-miterlimit="10" stroke-linecap="round" stroke-linejoin="round"/>
<path d="M103.008 61.6922C103.993 61.6922 104.791 60.8933 104.791 59.9078C104.791 58.9223 103.993 58.1234 103.008 58.1234C102.022 58.1234 101.224 58.9223 101.224 59.9078C101.224 60.8933 102.022 61.6922 103.008 61.6922Z" fill="black"/>
<path d="M96.7637 42.9563C103.007 42.9563 106.575 46.525 110.143 50.0938C113.711 53.6625 117.279 57.2312 122.631 57.2312" stroke="black" stroke-width="2.3" stroke-miterlimit="10" stroke-linecap="round" stroke-linejoin="round"/>
<path d="M96.7645 42.9563C90.3423 42.9563 85.1689 48.1309 85.1689 54.5547V72.3984C85.1689 79.7143 91.2343 85.6919 98.5484 85.7812C112.641 85.9596 123.969 72.9337 124.415 65.6178C124.505 63.7442 123.077 61.8706 121.204 61.6922C119.064 61.5137 117.28 63.1197 117.28 65.2609V84.889C117.28 88.8146 120.491 92.0264 124.415 92.0264H127.18C132.889 92.0264 138.33 94.1677 142.433 98.0933L153.493 108.71C154.207 109.335 155.277 109.335 155.991 108.71L177.933 87.5655C177.933 79.3574 185.693 74.8965 189.439 73.2013C190.51 72.666 191.848 72.9337 192.74 73.8259C193.899 74.9857 193.899 76.9485 192.561 78.1084L187.745 82.3016C190.331 86.6733 189.529 94.4353 183.731 98.0933C183.463 98.2717 183.285 98.5394 183.285 98.8071V105.409C183.285 106.391 184.088 107.194 185.069 107.194H221.639" stroke="black" stroke-width="2.3" stroke-miterlimit="10" stroke-linecap="round" stroke-linejoin="round"/>
<path d="M81.6016 47.4172C81.6016 39.566 88.0237 33.1422 95.873 33.1422C100.333 33.1422 111.036 33.1422 111.036 33.1422C120.848 33.1422 128.876 41.1719 128.876 50.9859V57.2312" stroke="black" stroke-width="2.3" stroke-miterlimit="10" stroke-linecap="round" stroke-linejoin="round"/>
<path d="M166.338 136.636C167.323 136.636 168.122 135.837 168.122 134.851C168.122 133.866 167.323 133.067 166.338 133.067C165.352 133.067 164.554 133.866 164.554 134.851C164.554 135.837 165.352 136.636 166.338 136.636Z" fill="black"/>
<path d="M46.8135 216.04H76.2483C77.2294 216.04 78.0322 215.237 78.0322 214.256V205.334C78.0322 204.352 77.2294 203.55 76.2483 203.55H58.409C52.522 203.55 47.7054 198.732 47.7054 192.843V155.372C47.7054 149.483 52.522 144.665 58.409 144.665H115.495C121.382 144.665 126.198 149.483 126.198 155.372V192.843C126.198 198.732 121.382 203.55 115.495 203.55H97.6554C96.6742 203.55 95.8714 204.352 95.8714 205.334V214.256C95.8714 215.237 96.6742 216.04 97.6554 216.04H133.334L148.854 185.081C152.511 177.855 159.914 173.215 168.031 173.215H174.899C177.575 173.215 179.805 170.985 179.805 168.308C179.805 165.632 177.575 163.401 174.899 163.401H169.904C165.445 163.401 161.966 159.654 161.966 155.193V148.234C161.966 147.253 161.163 146.45 160.182 146.45H158.398C156.614 146.45 153.938 145.558 155.722 140.204L158.398 132.175C162.055 121.29 169.102 116.115 179.805 116.115C191.668 116.115 201.212 125.662 201.212 137.528C201.212 146.45 197.644 149.126 197.644 159.832" stroke="black" stroke-width="2.3" stroke-miterlimit="10" stroke-linecap="round" stroke-linejoin="round"/>
<path d="M23.6232 130.39H11.1357C7.21107 130.39 4 127.179 4 123.253V93.8108C4 89.8852 7.21107 86.6733 11.1357 86.6733H50.3821C54.3067 86.6733 57.5178 89.8852 57.5178 93.8108V117.008C66.4374 117.008 73.5731 92.0264 94.9802 92.0264H98.5481" stroke="black" stroke-width="2.3" stroke-miterlimit="10" stroke-linecap="round" stroke-linejoin="round"/>
<path d="M53.9496 48.3094C53.9496 45.8113 52.7901 44.7406 51.2737 44.7406C49.579 44.7406 48.2411 46.1681 48.687 49.4692C49.4006 55.2684 54.3956 59.4617 60.1934 59.9078C61.8881 59.997 63.1368 59.8186 64.4748 59.3725C65.8127 58.8372 65.9911 57.0528 64.7424 56.2498C63.0476 55.09 61.9773 53.2164 61.9773 51.0752C61.9773 47.328 65.7235 44.2053 66.9723 37.0679C69.6482 21.5438 58.677 7.00123 42.9785 5.66295C25.5852 4.14623 11.3138 19.2242 14.1681 36.8002C16.0412 48.1309 26.2988 58.2126 39.6782 58.2126C48.5978 58.1234 53.9496 52.7703 53.9496 48.3094Z" stroke="black" stroke-width="2.3" stroke-miterlimit="10" stroke-linecap="round" stroke-linejoin="round"/>
<path d="M33.4363 34.0344C34.4215 34.0344 35.2202 33.2355 35.2202 32.2501C35.2202 31.2646 34.4215 30.4657 33.4363 30.4657C32.451 30.4657 31.6523 31.2646 31.6523 32.2501C31.6523 33.2355 32.451 34.0344 33.4363 34.0344Z" fill="black"/>
<path d="M40.5701 34.0344C41.5553 34.0344 42.354 33.2355 42.354 32.2501C42.354 31.2646 41.5553 30.4657 40.5701 30.4657C39.5848 30.4657 38.7861 31.2646 38.7861 32.2501C38.7861 33.2355 39.5848 34.0344 40.5701 34.0344Z" fill="black"/>
<path d="M47.7068 34.0344C48.692 34.0344 49.4907 33.2355 49.4907 32.2501C49.4907 31.2646 48.692 30.4657 47.7068 30.4657C46.7215 30.4657 45.9229 31.2646 45.9229 32.2501C45.9229 33.2355 46.7215 34.0344 47.7068 34.0344Z" fill="black"/>
<path d="M183.285 69.7218V50.0937C183.285 49.1123 184.088 48.3094 185.069 48.3094H213.79C214.236 48.3094 214.682 48.4878 215.039 48.8447L224.672 58.4803C225.029 58.8372 225.207 59.2833 225.207 59.7293V76.8593" stroke="black" stroke-width="2.3" stroke-miterlimit="10" stroke-linecap="round" stroke-linejoin="round"/>
<path d="M213.611 49.2016V59.9078H224.315" stroke="black" stroke-width="2.3" stroke-miterlimit="10" stroke-linecap="round" stroke-linejoin="round"/>
<path d="M187.833 148.234C190.866 148.234 193.274 145.736 193.185 142.703C193.096 139.758 190.509 137.528 187.655 137.528H185.246C184.087 137.528 182.927 137.082 182.124 136.19L180.787 134.851C179.181 133.245 178.735 130.747 179.805 128.695L181.233 125.84C181.857 124.68 180.965 123.253 179.627 123.253H170.886" stroke="black" stroke-width="2.3" stroke-miterlimit="10" stroke-linecap="round" stroke-linejoin="round"/>
<path d="M197.557 159.832C197.557 167.238 203.533 173.215 210.936 173.215C221.64 173.215 235.911 158.94 235.911 133.959C235.911 118.614 229.4 103.268 216.377 89.4391C215.396 88.3685 215.396 86.6733 216.466 85.6919C217.447 84.7105 218.964 84.6213 220.034 85.4243L225.297 89.3499V76.8593C231.184 76.8593 236 81.6771 236 87.5655V94.703" stroke="black" stroke-width="2.3" stroke-miterlimit="10" stroke-linecap="round" stroke-linejoin="round"/>
<path d="M143.146 223.178C143.146 225.676 141.184 227.639 138.686 227.639C134.227 227.639 130.034 222.642 133.335 216.04C139.578 216.04 143.146 219.609 143.146 223.178Z" stroke="black" stroke-width="2.3" stroke-miterlimit="10" stroke-linecap="round" stroke-linejoin="round"/>
<path d="M46.8142 216.04C23.1772 216.04 4 196.858 4 173.215C4 149.572 23.1772 130.39 46.8142 130.39H152.066" stroke="black" stroke-width="2.3" stroke-miterlimit="10" stroke-linecap="round" stroke-linejoin="round"/>
</svg>
