<svg width="32" height="32" viewBox="0 0 32 32" xmlns="http://www.w3.org/2000/svg">
<path fill-rule="evenodd" clip-rule="evenodd" d="M7 5.25C4.37665 5.25 2.25 7.37665 2.25 10V22C2.25 24.6234 4.37665 26.75 7 26.75H25C27.6234 26.75 29.75 24.6234 29.75 22V10C29.75 7.37665 27.6234 5.25 25 5.25H7ZM3.75 10C3.75 8.20507 5.20507 6.75 7 6.75H15.25V25.25H7C5.20507 25.25 3.75 23.7949 3.75 22V10ZM16.75 25.25H25C26.7949 25.25 28.25 23.7949 28.25 22V10C28.25 8.20507 26.7949 6.75 25 6.75H16.75V25.25Z"/>
</svg>
