<svg xmlns="http://www.w3.org/2000/svg" viewBox="0 0 163.12 48.86"><defs><style>.a{fill:#feb400;}.b{fill:#ff7033;}.c{fill:#07c1e4;}.d{fill:#a866ff;}</style></defs><title>momentum-design</title><rect class="a" width="32.57" height="32.57"/><polygon class="b" points="16.38 16.29 0.1 0 32.67 0 16.38 16.29"/><path class="c" d="M16.29,16.29H32.57A16.29,16.29,0,0,1,48.86,32.57v0A16.29,16.29,0,0,1,32.57,48.86H16.29a0,0,0,0,1,0,0V16.29a0,0,0,0,1,0,0Z"/><rect class="d" x="16.29" y="16.29" width="16.29" height="16.29"/><path d="M65,20.26v-10h1.51l.2,1.17A3.4,3.4,0,0,1,69.66,10a3.14,3.14,0,0,1,2.94,1.57A3.6,3.6,0,0,1,75.84,10c2,0,3.37,1.21,3.37,3.58v6.68H77.37V13.72c0-1.52-.65-2.15-1.94-2.15A2.46,2.46,0,0,0,73,14.18v6.08H71.2V13.72c0-1.54-.68-2.15-1.94-2.15a2.46,2.46,0,0,0-2.4,2.55v6.14Z"/><path d="M86.16,10c2.72,0,4.91,1.69,4.91,5.27S89,20.55,86.14,20.55s-4.91-1.83-4.91-5.28S83.45,10,86.16,10Zm0,9.05c1.76,0,3-1.3,3-3.78s-1.29-3.78-3-3.78-3,1.29-3,3.78S84.45,19.05,86.18,19.05Z"/><path d="M93.18,20.26v-10h1.51l.2,1.17A3.39,3.39,0,0,1,97.82,10a3.11,3.11,0,0,1,2.93,1.57A3.63,3.63,0,0,1,104,10c2,0,3.37,1.21,3.37,3.58v6.68h-1.84V13.72c0-1.52-.65-2.15-1.94-2.15a2.46,2.46,0,0,0-2.39,2.61v6.08H99.35V13.72c0-1.54-.67-2.15-1.93-2.15A2.46,2.46,0,0,0,95,14.12v6.14Z"/><path d="M118.75,17.38a4.34,4.34,0,0,1-4.47,3.17c-2.84,0-4.89-1.77-4.89-5.28s2-5.27,4.79-5.27,4.68,1.65,4.68,5.67h-7.59c.15,2.31,1.4,3.32,3.07,3.32a2.43,2.43,0,0,0,2.41-1.61Zm-7.41-3.16H117a2.62,2.62,0,0,0-2.76-2.75A2.85,2.85,0,0,0,111.34,14.22Z"/><path d="M121.07,20.26v-10h1.51l.22,1.26a3.66,3.66,0,0,1,3-1.55c2.16,0,3.53,1.32,3.53,3.76v6.5h-1.85V13.78a1.93,1.93,0,0,0-2.12-2.21,2.42,2.42,0,0,0-2.48,2.53v6.16Z"/><path d="M136.4,20.35a4.83,4.83,0,0,1-1.37.2,2.49,2.49,0,0,1-2.66-2.77V11.86h-1.48V10.29h1.48l.11-2.4h1.73v2.4h2.15v1.57h-2.15v6c0,.75.36,1.12,1,1.12a4.05,4.05,0,0,0,1.14-.16Z"/><path d="M139.87,10.29v6.54A1.88,1.88,0,0,0,141.94,19a2.38,2.38,0,0,0,2.45-2.6V10.29h1.85v10h-1.52l-.21-1.15a3.6,3.6,0,0,1-3,1.44c-2.06,0-3.49-1.21-3.49-3.76v-6.5Z"/><path d="M148.92,20.26v-10h1.52l.19,1.17A3.4,3.4,0,0,1,153.56,10a3.13,3.13,0,0,1,2.94,1.57A3.61,3.61,0,0,1,159.74,10c2,0,3.38,1.21,3.38,3.58v6.68h-1.85V13.72c0-1.52-.65-2.15-1.93-2.15a2.46,2.46,0,0,0-2.4,2.61v6.08H155.1V13.72c0-1.54-.67-2.15-1.94-2.15a2.46,2.46,0,0,0-2.4,2.55v6.14Z"/><path d="M72.5,39.44,72.17,38a3.84,3.84,0,0,1-3.31,1.69c-2.52,0-4.42-1.84-4.42-5.22,0-3.57,1.86-5.33,4.53-5.33a3.75,3.75,0,0,1,3.2,1.55v-5.1H74V39.44Zm-3.24-1.28c1.9,0,3-1.5,3-3.59,0-2.44-1.17-3.82-3-3.82s-2.9,1.19-2.9,3.8C66.36,37,67.59,38.16,69.26,38.16Z"/><path d="M85.49,36.56A4.34,4.34,0,0,1,81,39.73c-2.84,0-4.89-1.77-4.89-5.28s2-5.27,4.79-5.27,4.68,1.65,4.68,5.68H78c.16,2.3,1.41,3.32,3.07,3.32a2.45,2.45,0,0,0,2.42-1.62ZM78.08,33.4h5.64A2.61,2.61,0,0,0,81,30.66,2.84,2.84,0,0,0,78.08,33.4Z"/><path d="M90.74,34.9c-2.34-.52-3.28-1.4-3.28-2.88,0-1.71,1.36-2.84,3.88-2.84,2.22,0,3.76,1.09,4.08,2.92H93.54c-.21-.93-1-1.46-2.22-1.46s-2,.51-2,1.21.41,1.11,2.32,1.53c2.32.52,3.86,1.17,3.86,3.22,0,1.82-1.52,3.13-4.16,3.13S87.21,38.5,87,36.58h1.88c.21,1.19,1,1.69,2.44,1.69s2.28-.67,2.28-1.53C93.64,35.57,92.53,35.3,90.74,34.9Z"/><path d="M97.49,27.8V25.63h2.08V27.8Zm.12,11.64v-10h1.84v10Z"/><path d="M104,40.11c.17,1,1,1.61,2.47,1.61,1.86,0,2.82-.94,2.82-2.59V37.85a4.18,4.18,0,0,1-3.32,1.3c-2.34,0-4.41-1.74-4.41-4.93s1.82-5,4.53-5a3.7,3.7,0,0,1,3.24,1.61l.29-1.32h1.51v9.76c0,2.26-1.65,4-4.6,4-2.67,0-4.18-1.21-4.51-3.07Zm2.38-2.53c1.89,0,3-1.25,3-3.26,0-2.34-1.23-3.57-3-3.57s-2.9,1.13-2.9,3.51C103.48,36.37,104.78,37.58,106.38,37.58Z"/><path d="M113.82,39.44v-10h1.51l.21,1.26a3.71,3.71,0,0,1,3-1.55c2.16,0,3.52,1.32,3.52,3.76v6.5h-1.84V33a1.93,1.93,0,0,0-2.13-2.21,2.42,2.42,0,0,0-2.47,2.53v6.16Z"/></svg>