<svg width="32" height="32" viewBox="0 0 32 32" fill="none" xmlns="http://www.w3.org/2000/svg">
<path d="M27.678 7.05297L16.682 2.38497C16.2495 2.20694 15.7642 2.2073 15.332 2.38597L4.32701 7.05097C4.00743 7.18339 3.73442 7.40781 3.54266 7.69572C3.3509 7.98364 3.24903 8.32205 3.25001 8.66797V23.335C3.24928 23.6797 3.35073 24.0169 3.54152 24.304C3.73232 24.591 4.00392 24.8151 4.32201 24.948L15.337 29.617C15.7696 29.7945 16.2549 29.7937 16.687 29.615L27.675 24.948C27.9939 24.8157 28.2663 24.5916 28.4577 24.3043C28.6491 24.0169 28.7508 23.6792 28.75 23.334V8.66597C28.7507 8.32127 28.6493 7.98407 28.4585 7.69699C28.2677 7.4099 27.9961 7.18579 27.678 7.05297V7.05297ZM15.911 3.76897C15.9718 3.74406 16.0397 3.74334 16.101 3.76697L26.049 7.99097L16.076 12.148C16.0455 12.1612 16.0126 12.1679 15.9794 12.1677C15.9462 12.1676 15.9134 12.1605 15.883 12.147L5.94001 7.99697L15.911 3.76897V3.76897ZM4.75001 23.334V9.12697L15.25 13.508V27.95L4.90401 23.564C4.85846 23.5452 4.81952 23.5133 4.7921 23.4723C4.76469 23.4314 4.75004 23.3832 4.75001 23.334V23.334ZM27.096 23.564L27.091 23.566L16.75 27.958V13.492L27.25 9.11597V23.333C27.2501 23.3823 27.2355 23.4305 27.2081 23.4715C27.1806 23.5124 27.1416 23.5443 27.096 23.563V23.564Z" fill="#0F0F0F"/>
</svg>
