<svg xmlns="http://www.w3.org/2000/svg" width="32" height="32" viewBox="0 0 32 32"><path d="M25.5838 10.1771C25.2957 9.92245 24.9566 9.73222 24.5891 9.6191C24.2216 9.50598 23.8342 9.47255 23.4528 9.52107L19.2558 10.0891C19.8642 9.45163 20.2721 8.64965 20.4289 7.78256C20.5857 6.91547 20.4846 6.02142 20.138 5.21127C19.7915 4.40112 19.2148 3.71051 18.4794 3.22508C17.744 2.73964 16.8823 2.48074 16.0011 2.48047C15.12 2.4802 14.2581 2.73857 13.5224 3.22356C12.7868 3.70854 12.2096 4.39879 11.8626 5.20873C11.5155 6.01867 11.4138 6.91265 11.5701 7.77984C11.7264 8.64702 12.1338 9.44926 12.7418 10.0871L8.54781 9.52207C8.19534 9.47216 7.8365 9.49217 7.49176 9.58095C7.14703 9.66973 6.82315 9.82554 6.53863 10.0395C5.96402 10.4716 5.58459 11.1142 5.48381 11.8261C5.38303 12.5379 5.56915 13.2606 6.00123 13.8352C6.43332 14.4099 7.07597 14.7893 7.78781 14.8901L12.3248 15.4241L8.71281 25.9421C8.54139 26.3228 8.46849 26.7405 8.50082 27.1567C8.53315 27.573 8.66967 27.9744 8.89781 28.3241C9.1303 28.6859 9.45009 28.9835 9.82772 29.1893C10.2054 29.3952 10.6287 29.5027 11.0588 29.5021C11.5353 29.5185 12.0054 29.3894 12.4066 29.132C12.8079 28.8746 13.1212 28.501 13.3048 28.0611L15.9998 21.0881L18.6968 28.0781C18.8802 28.5157 19.1931 28.8868 19.5935 29.1413C19.9939 29.3959 20.4627 29.5218 20.9368 29.5021C21.3675 29.5016 21.7911 29.3928 22.1688 29.1858C22.5464 28.9787 22.8659 28.68 23.0978 28.3171C23.3225 27.9757 23.4585 27.5836 23.4935 27.1764C23.5284 26.7692 23.4611 26.3597 23.2978 25.9851L19.6748 15.4241L24.2378 14.8891C24.7437 14.8043 25.2151 14.578 25.5976 14.2363C25.9801 13.8946 26.2579 13.4515 26.3989 12.9583C26.5399 12.4652 26.5382 11.9422 26.3941 11.4499C26.2501 10.9577 25.9694 10.5164 25.5848 10.1771H25.5838ZM15.9998 3.50007C16.9281 3.50007 17.8183 3.86882 18.4747 4.52519C19.1311 5.18157 19.4998 6.07181 19.4998 7.00007C19.4998 7.92832 19.1311 8.81856 18.4747 9.47494C17.8183 10.1313 16.9281 10.5001 15.9998 10.5001C15.0716 10.5001 14.1813 10.1313 13.5249 9.47494C12.8686 8.81856 12.4998 7.92832 12.4998 7.00007C12.4998 6.07181 12.8686 5.18157 13.5249 4.52519C14.1813 3.86882 15.0716 3.50007 15.9998 3.50007ZM24.0958 13.8981L18.9408 14.5031C18.8669 14.5122 18.7959 14.5377 18.733 14.5777C18.6701 14.6177 18.6169 14.6711 18.5773 14.7342C18.5376 14.7973 18.5126 14.8685 18.5038 14.9425C18.4951 15.0165 18.5029 15.0915 18.5268 15.1621L22.3698 26.3531C22.4732 26.5803 22.517 26.83 22.497 27.0788C22.4771 27.3276 22.3941 27.5672 22.2558 27.7751C22.1141 27.9974 21.9187 28.1805 21.6877 28.3075C21.4567 28.4346 21.1975 28.5015 20.9338 28.5021C20.6591 28.5201 20.3855 28.4527 20.1506 28.3091C19.9157 28.1655 19.731 27.9528 19.6218 27.7001L16.4668 19.5201C16.4185 19.3966 16.3235 19.2972 16.2024 19.2433C16.0813 19.1894 15.9439 19.1853 15.8198 19.2321C15.7562 19.2568 15.6984 19.2945 15.65 19.3427C15.6017 19.3909 15.5638 19.4485 15.5388 19.5121L15.5328 19.5181L12.3838 27.6721C12.2784 27.9322 12.0935 28.1525 11.8557 28.3015C11.6178 28.4505 11.3389 28.5207 11.0588 28.5021C10.6646 28.5018 10.285 28.353 9.9955 28.0854C9.70603 27.8178 9.52798 27.451 9.49681 27.0581C9.47978 26.8005 9.52937 26.5429 9.64081 26.3101L13.4718 15.1621C13.4959 15.0915 13.5039 15.0165 13.4952 14.9425C13.4866 14.8685 13.4615 14.7974 13.4218 14.7343C13.3821 14.6712 13.3289 14.6178 13.2659 14.578C13.2029 14.5381 13.1318 14.5129 13.0578 14.5041L7.92981 13.9001C7.49503 13.8193 7.10836 13.5735 6.85079 13.214C6.59323 12.8545 6.48476 12.4093 6.54809 11.9717C6.61143 11.534 6.84166 11.1378 7.19056 10.8661C7.53946 10.5944 7.97997 10.4683 8.41981 10.5141L15.1368 11.4171C15.4238 11.4591 15.7118 11.4871 16.0008 11.5001C16.2528 11.5001 16.7818 11.4331 16.8058 11.4291L23.5838 10.5131C23.8236 10.4827 24.0671 10.504 24.298 10.5754C24.529 10.6468 24.742 10.7667 24.9228 10.9271C25.1053 11.0883 25.2514 11.2866 25.3514 11.5087C25.4514 11.7307 25.503 11.9715 25.5028 12.2151C25.5048 12.6164 25.3648 13.0056 25.1075 13.3136C24.8501 13.6216 24.4921 13.8287 24.0968 13.8981H24.0958Z"/></svg>