<svg xmlns="http://www.w3.org/2000/svg" width="32" height="32" viewBox="0 0 32 32"><path d="M11 28.9999C9.67335 28.9973 8.4019 28.4686 7.46456 27.5297C6.52723 26.5909 6.00053 25.3186 6 23.9919L6.001 10.9959C6.00258 10.4672 6.21324 9.96061 6.58701 9.58666C6.96077 9.21271 7.46729 9.00179 7.996 8.99994H11.756C11.5484 8.41729 11.463 7.79811 11.5052 7.18101C11.5474 6.56391 11.7163 5.96213 12.0014 5.41318C12.2864 4.86424 12.6815 4.3799 13.162 3.99039C13.6425 3.60087 14.1981 3.31451 14.7941 3.14919C15.3901 2.98386 16.0139 2.9431 16.6263 3.02945C17.2388 3.1158 17.827 3.32741 18.3541 3.65108C18.8811 3.97475 19.3359 4.40355 19.69 4.91072C20.044 5.4179 20.2898 5.99259 20.412 6.59894C20.571 7.40094 20.512 8.22994 20.242 9.00094H24C24.5301 9.00094 25.0385 9.21138 25.4135 9.58602C25.7885 9.96066 25.9995 10.4689 26 10.9989V15.5389C25.9987 15.9369 25.8408 16.3183 25.5605 16.6007C25.2801 16.8831 24.8999 17.0437 24.502 17.0479C24.242 17.0479 23.989 16.9769 23.766 16.8439C23.2436 16.5507 22.6348 16.4501 22.0457 16.5598C21.4567 16.6694 20.9249 16.9823 20.543 17.4439C20.156 17.9286 19.9625 18.5396 20.0002 19.1587C20.0379 19.7778 20.304 20.3608 20.747 20.7949C21.081 21.1209 21.501 21.3459 21.957 21.4439C22.572 21.5791 23.2154 21.4777 23.759 21.1599C23.9859 21.0279 24.2437 20.9581 24.5062 20.9576C24.7687 20.9571 25.0267 21.0259 25.2541 21.1571C25.4815 21.2883 25.6703 21.4772 25.8012 21.7048C25.9322 21.9323 26.0008 22.1904 26 22.4529L26.002 26.9999C26.0023 27.2624 25.9508 27.5223 25.8504 27.7649C25.7501 28.0074 25.603 28.2277 25.4174 28.4133C25.2318 28.5989 25.0114 28.7461 24.7689 28.8464C24.5264 28.9467 24.2665 28.9982 24.004 28.9979H23.997L11 28.9999ZM8 10.9999V23.9919C8 24.7883 8.31581 25.5522 8.87819 26.1161C9.44057 26.68 10.2036 26.9978 11 26.9999L24 26.9979V23.2419C23.2146 23.5178 22.3686 23.5731 21.554 23.4019C20.9523 23.2728 20.3836 23.0215 19.8828 22.6638C19.3821 22.3061 18.9601 21.8495 18.6428 21.3222C18.3256 20.7949 18.1198 20.2081 18.0383 19.5982C17.9568 18.9882 18.0013 18.368 18.169 17.7759C18.3366 17.184 18.6238 16.6326 19.0127 16.1559C19.4017 15.6792 19.8842 15.2873 20.4305 15.0043C20.9768 14.7213 21.5753 14.5533 22.189 14.5106C22.8028 14.4679 23.4188 14.5514 23.999 14.7559V10.9979L19.46 10.9999C19.1957 10.9993 18.9362 10.9292 18.7075 10.7967C18.4788 10.6642 18.289 10.4739 18.157 10.2449C18.0275 10.0185 17.9598 9.76208 17.9607 9.50128C17.9616 9.24047 18.031 8.98447 18.162 8.75894C18.4363 8.28759 18.5498 7.7398 18.4854 7.19826C18.421 6.65672 18.1822 6.15083 17.805 5.75694C17.4779 5.41794 17.061 5.17927 16.603 5.06894C16.1252 4.9515 15.6234 4.97744 15.1602 5.1435C14.6971 5.30957 14.2931 5.6084 13.9988 6.00269C13.7044 6.39698 13.5328 6.86925 13.5053 7.36051C13.4777 7.85177 13.5956 8.34025 13.844 8.76494C13.9765 8.98755 14.0469 9.24158 14.048 9.50063C14.049 9.75967 13.9807 10.0143 13.85 10.2379C13.7177 10.4687 13.527 10.6605 13.297 10.7941C13.0671 10.9277 12.806 10.9983 12.54 10.9989H8V10.9999Z"/></svg>