<svg xmlns="http://www.w3.org/2000/svg" width="32" height="32" viewBox="0 0 32 32"><path d="M11 28.75C9.73965 28.7474 8.53179 28.245 7.64134 27.353C6.75089 26.4611 6.25053 25.2524 6.25 23.992L6.251 10.996C6.25258 10.5334 6.43704 10.0903 6.76414 9.76315C7.09124 9.43606 7.53442 9.2516 7.997 9.25002H12.126C11.8808 8.70512 11.7532 8.11465 11.7516 7.51712C11.75 6.9196 11.8744 6.32845 12.1166 5.78224C12.3589 5.23602 12.7135 4.74701 13.1575 4.3471C13.6015 3.94719 14.1248 3.64536 14.6932 3.46132C15.2617 3.27727 15.8626 3.21513 16.4567 3.27896C17.0508 3.34279 17.6248 3.53115 18.1412 3.83175C18.6576 4.13235 19.1048 4.53844 19.4537 5.02353C19.8026 5.50862 20.0453 6.06181 20.166 6.64702C20.3402 7.52442 20.2378 8.43425 19.873 9.25102H24C24.4638 9.25102 24.9086 9.43512 25.2367 9.76287C25.5649 10.0906 25.7495 10.5352 25.75 10.999V15.539C25.7487 15.8704 25.6173 16.1879 25.384 16.4233C25.1507 16.6586 24.8343 16.7928 24.503 16.797C24.288 16.797 24.078 16.739 23.893 16.629C23.3186 16.3057 22.6489 16.1945 22.0009 16.3149C21.3528 16.4354 20.7678 16.7798 20.348 17.288C19.9486 17.7899 19.7372 18.4156 19.7504 19.0569C19.7636 19.6981 20.0005 20.3146 20.4202 20.7997C20.8399 21.2847 21.4159 21.6078 22.0486 21.7131C22.6813 21.8183 23.3309 21.6991 23.885 21.376C24.0727 21.2653 24.2864 21.2065 24.5043 21.2057C24.7222 21.2048 24.9364 21.2619 25.125 21.371C25.3149 21.4807 25.4727 21.6384 25.5824 21.8283C25.6921 22.0182 25.7499 22.2337 25.75 22.453L25.752 27C25.7528 27.2297 25.7082 27.4573 25.6207 27.6697C25.5331 27.882 25.4045 28.075 25.2421 28.2374C25.0798 28.3999 24.8869 28.5287 24.6746 28.6163C24.4622 28.7039 24.2347 28.7487 24.005 28.748H23.998L11 28.75ZM8 10.75C7.96731 10.7498 7.9349 10.756 7.90463 10.7683C7.87437 10.7807 7.84686 10.7989 7.82369 10.822C7.80053 10.8451 7.78218 10.8725 7.7697 10.9027C7.75722 10.9329 7.75087 10.9653 7.751 10.998L7.75 23.992C7.75 24.8547 8.09215 25.6822 8.70142 26.2929C9.31068 26.9037 10.1373 27.2479 11 27.25L24 27.248H24.002C24.0348 27.2488 24.0674 27.243 24.0979 27.2309C24.1284 27.2188 24.1562 27.2007 24.1795 27.1777C24.2028 27.1546 24.2213 27.1271 24.2338 27.0967C24.2462 27.0664 24.2524 27.0338 24.252 27.001L24.25 22.872C23.3809 23.2657 22.4046 23.3555 21.4784 23.1268C20.5521 22.8982 19.7297 22.3644 19.1437 21.6115C18.5577 20.8586 18.2421 19.9304 18.2477 18.9763C18.2534 18.0223 18.58 17.0979 19.175 16.352C19.764 15.6123 20.5829 15.09 21.502 14.8678C22.4211 14.6456 23.3881 14.7361 24.25 15.125V10.998C24.2499 10.9653 24.2433 10.933 24.2307 10.9028C24.218 10.8726 24.1996 10.8453 24.1764 10.8222C24.1531 10.7992 24.1256 10.781 24.0954 10.7686C24.0651 10.7562 24.0327 10.7499 24 10.75H19.46C19.1287 10.7492 18.8111 10.6177 18.5763 10.384C18.3414 10.1503 18.2084 9.83331 18.206 9.50202C18.207 9.28502 18.266 9.07202 18.376 8.88502C18.6197 8.46683 18.7487 7.99174 18.7499 7.50774C18.7512 7.02373 18.6247 6.54797 18.3833 6.12851C18.1418 5.70904 17.7939 5.36074 17.3747 5.11878C16.9555 4.87682 16.4799 4.74978 15.9959 4.7505C15.5119 4.75121 15.0367 4.87965 14.6182 5.12284C14.1997 5.36604 13.8528 5.71536 13.6126 6.13554C13.3724 6.55571 13.2473 7.03185 13.25 7.51584C13.2527 7.99984 13.3831 8.47455 13.628 8.89202C13.7377 9.07681 13.7959 9.28759 13.7966 9.50247C13.7973 9.71735 13.7404 9.9285 13.632 10.114C13.522 10.3066 13.3631 10.4667 13.1713 10.5782C12.9796 10.6897 12.7618 10.7487 12.54 10.749H8V10.75Z"/></svg>