<svg width="32" height="32" viewBox="0 0 32 32" fill="none" xmlns="http://www.w3.org/2000/svg">
<path d="M25.9135 9.8025C25.5713 9.5013 25.1691 9.27623 24.7334 9.14222C24.2977 9.00821 23.8384 8.9683 23.3861 9.02515L20.3388 9.43715C20.7669 8.69578 20.9949 7.85585 21.0004 6.99977C21.0004 5.67369 20.4736 4.40192 19.5359 3.46424C18.5983 2.52656 17.3265 1.99977 16.0004 1.99977C14.6743 1.99977 13.4026 2.52656 12.4649 3.46424C11.5272 4.40192 11.0004 5.67369 11.0004 6.99977C11.0059 7.85584 11.2339 8.69577 11.662 9.43714L8.60878 9.02714C7.77113 8.92244 6.92594 9.1519 6.25625 9.66584C5.58655 10.1798 5.14624 10.9368 5.03067 11.773C4.9151 12.6093 5.13356 13.4574 5.63876 14.1337C6.14395 14.81 6.89522 15.2601 7.72987 15.3865L11.6517 15.8484L8.25819 25.7361C8.05198 26.1927 7.96403 26.6939 8.00243 27.1934C8.04083 27.693 8.20435 28.1748 8.47792 28.5945C8.75561 29.0267 9.13754 29.3821 9.58856 29.628C10.0396 29.8739 10.5452 30.0024 11.0589 30.0017C11.6369 30.02 12.2065 29.8609 12.6915 29.546C13.1764 29.2311 13.5534 28.7754 13.7719 28.24L15.9997 22.4749L18.2367 28.2761C18.4608 28.8018 18.8381 29.2476 19.3195 29.5554C19.8009 29.8633 20.3639 30.0188 20.935 30.0017C21.4496 30.0017 21.9559 29.8721 22.4073 29.625C22.8587 29.3779 23.2407 29.0211 23.518 28.5877C23.7856 28.1837 23.9487 27.7197 23.9929 27.2372C24.037 26.7547 23.9608 26.2688 23.7709 25.823L20.349 15.8484L24.3197 15.3816C24.9187 15.2814 25.4771 15.0135 25.93 14.6088C26.383 14.2042 26.712 13.6795 26.8788 13.0955C27.0456 12.5115 27.0435 11.8921 26.8726 11.3093C26.7018 10.7265 26.3692 10.204 25.9135 9.8025ZM16.0004 3.99976C16.5938 3.99976 17.1738 4.17571 17.6671 4.50535C18.1605 4.835 18.545 5.30353 18.772 5.85171C18.9991 6.39989 19.0585 7.00309 18.9428 7.58503C18.827 8.16698 18.5413 8.70152 18.1217 9.12108C17.7022 9.54064 17.1676 9.82636 16.5857 9.94212C16.0037 10.0579 15.4005 9.99846 14.8524 9.7714C14.3042 9.54434 13.8356 9.15982 13.506 8.66647C13.1764 8.17312 13.0004 7.59311 13.0004 6.99976C13.0013 6.20438 13.3176 5.44182 13.88 4.8794C14.4425 4.31698 15.205 4.00063 16.0004 3.99976ZM24.0395 13.4021L18.8842 14.0066C18.7359 14.024 18.5933 14.0743 18.467 14.1539C18.3407 14.2336 18.2338 14.3405 18.1542 14.4668C18.0746 14.5932 18.0243 14.7357 18.0069 14.8841C17.9896 15.0324 18.0058 15.1827 18.0541 15.324L21.9135 26.5603C21.9813 26.7115 22.0098 26.8773 21.9963 27.0424C21.9828 27.2075 21.9278 27.3665 21.8363 27.5046C21.7397 27.6565 21.6064 27.7817 21.4487 27.8685C21.291 27.9554 21.114 28.0012 20.934 28.0017C20.7599 28.023 20.5835 27.9877 20.4311 27.901C20.2786 27.8143 20.1581 27.6808 20.0873 27.5203L16.933 19.3396C16.8619 19.1519 16.7355 18.9901 16.5707 18.8756C16.4058 18.761 16.2101 18.6991 16.0094 18.6979C15.8087 18.6967 15.6123 18.7563 15.4461 18.8689C15.2798 18.9815 15.1516 19.1417 15.0783 19.3286C15.0763 19.3331 15.0696 19.3339 15.0678 19.3386L11.9301 27.4626C11.865 27.6362 11.7442 27.7833 11.5866 27.8809C11.4289 27.9785 11.2434 28.0209 11.059 28.0017C10.8795 28.0019 10.7028 27.9569 10.5453 27.8709C10.3878 27.7849 10.2545 27.6606 10.1576 27.5095C10.0605 27.3554 10.0055 27.1786 9.99795 26.9967C9.99041 26.8147 10.0306 26.634 10.1146 26.4724L13.9456 15.3249C13.9943 15.1837 14.0107 15.0334 13.9936 14.8851C13.9766 14.7367 13.9265 14.594 13.847 14.4676C13.7676 14.3411 13.6608 14.2341 13.5346 14.1543C13.4083 14.0745 13.2658 14.024 13.1175 14.0066L8.01115 13.407C7.69925 13.3552 7.42 13.1834 7.2331 12.9283C7.04621 12.6733 6.9665 12.3553 7.01102 12.0423C7.05555 11.7292 7.22076 11.446 7.47135 11.2532C7.72194 11.0604 8.03801 10.9733 8.352 11.0105L15.0698 11.9129C15.3782 11.9582 15.6889 11.9873 16.0004 11.9998C16.2601 11.9998 16.833 11.9294 16.8715 11.9246L23.644 11.0086C23.8135 10.9863 23.9859 11.001 24.1492 11.0515C24.3125 11.1021 24.463 11.1874 24.5903 11.3016C24.7594 11.4504 24.8837 11.6434 24.9495 11.8588C25.0152 12.0743 25.0198 12.3038 24.9627 12.5217C24.9055 12.7396 24.7889 12.9374 24.6259 13.0928C24.4629 13.2483 24.2598 13.3554 24.0395 13.4021Z" fill="black"/>
</svg>
