<svg width="32" height="32" viewBox="0 0 32 32" fill="none" xmlns="http://www.w3.org/2000/svg">
<path d="M25.5837 10.1767C25.2956 9.92223 24.9564 9.73215 24.589 9.61916C24.2215 9.50616 23.8342 9.47284 23.4529 9.52142L19.2559 10.0889C19.8639 9.45148 20.2715 8.64965 20.4282 7.78279C20.5848 6.91593 20.4836 6.02216 20.137 5.21228C19.7905 4.40241 19.2139 3.71206 18.4787 3.22681C17.7435 2.74157 16.882 2.48278 16.0011 2.48252C15.1202 2.48227 14.2586 2.74056 13.5231 3.22538C12.7876 3.71019 12.2106 4.40021 11.8636 5.20988C11.5166 6.01955 11.4148 6.91327 11.571 7.78022C11.7271 8.64717 12.1343 9.44924 12.7419 10.087L12.7417 10.0867L8.54759 9.52239C7.84163 9.43395 7.12921 9.62661 6.56405 10.0588C5.99889 10.491 5.62631 11.1281 5.52671 11.8325C5.42712 12.537 5.60849 13.2524 6.03169 13.8243C6.4549 14.3962 7.08599 14.7789 7.7888 14.8896L12.3249 15.4238L8.71263 25.9423C8.54131 26.323 8.46851 26.7407 8.50093 27.1569C8.53336 27.5732 8.66997 27.9746 8.89818 28.3242C9.13072 28.686 9.45054 28.9835 9.82819 29.1893C10.2059 29.3951 10.6292 29.5026 11.0593 29.5019C11.5358 29.5184 12.0061 29.3893 12.4073 29.1318C12.8086 28.8742 13.1219 28.5005 13.3054 28.0605L15.9995 21.0882L18.696 28.0771C18.8791 28.5148 19.1919 28.886 19.5922 29.1407C19.9925 29.3954 20.4612 29.5214 20.9353 29.5019C21.3661 29.5017 21.79 29.3931 22.1678 29.1861C22.5456 28.9791 22.8653 28.6803 23.0974 28.3173C23.3222 27.976 23.4583 27.5839 23.4933 27.1767C23.5282 26.7695 23.461 26.36 23.2976 25.9853L19.6736 15.4238L24.237 14.8886C24.7429 14.8039 25.2144 14.5776 25.5969 14.2359C25.9794 13.8942 26.2572 13.451 26.3982 12.9579C26.5391 12.4647 26.5374 11.9417 26.3932 11.4495C26.2491 10.9572 25.9684 10.5159 25.5837 10.1767H25.5837ZM15.9997 3.49993C16.692 3.49993 17.3686 3.7052 17.9442 4.08979C18.5198 4.47437 18.9684 5.021 19.2333 5.66054C19.4982 6.30008 19.5675 7.00381 19.4325 7.68275C19.2974 8.36168 18.9641 8.98532 18.4746 9.4748C17.9851 9.96429 17.3615 10.2976 16.6825 10.4327C16.0036 10.5677 15.2999 10.4984 14.6603 10.2335C14.0208 9.9686 13.4742 9.52 13.0896 8.94443C12.705 8.36885 12.4997 7.69216 12.4997 6.99993C12.5008 6.07201 12.87 5.18242 13.5261 4.52629C14.1822 3.87015 15.0718 3.50105 15.9997 3.49993H15.9997ZM24.0964 13.8984L18.9411 14.5029C18.8671 14.5119 18.796 14.5372 18.733 14.5771C18.67 14.6169 18.6167 14.6703 18.5769 14.7333C18.5368 14.7964 18.5115 14.8678 18.5029 14.942C18.4943 15.0162 18.5025 15.0914 18.5271 15.162L22.3698 26.3535C22.4733 26.5806 22.5172 26.8303 22.4974 27.0791C22.4776 27.3278 22.3947 27.5675 22.2565 27.7753C22.1148 27.9976 21.9193 28.1806 21.6883 28.3076C21.4572 28.4346 21.1979 28.5014 20.9343 28.5019C20.6595 28.5201 20.3858 28.4528 20.1508 28.3092C19.9158 28.1657 19.731 27.9529 19.6218 27.7001L16.4665 19.5195C16.418 19.3963 16.3231 19.2972 16.2021 19.2434C16.0811 19.1897 15.9439 19.1857 15.82 19.2323C15.7564 19.2572 15.6986 19.2949 15.6503 19.3432C15.6019 19.3914 15.564 19.4491 15.539 19.5127L15.5329 19.5185L12.3845 27.6718C12.279 27.932 12.0941 28.1522 11.8562 28.3012C11.6183 28.4503 11.3394 28.5205 11.0593 28.5019C10.7963 28.5023 10.5374 28.4365 10.3065 28.3106C10.0756 28.1846 9.88006 28.0026 9.73802 27.7812C9.59676 27.5649 9.51365 27.3158 9.49671 27.058C9.47978 26.8002 9.52959 26.5424 9.64134 26.3095L13.4724 15.162C13.4967 15.0915 13.5048 15.0164 13.4963 14.9423C13.4877 14.8682 13.4626 14.7969 13.4229 14.7338C13.3832 14.6706 13.3298 14.6172 13.2667 14.5774C13.2036 14.5376 13.1324 14.5125 13.0583 14.5038L7.92943 13.9003C7.48825 13.8265 7.09349 13.5829 6.82967 13.2217C6.56584 12.8605 6.45393 12.4104 6.51788 11.9677C6.58183 11.525 6.81658 11.1249 7.17184 10.8531C7.52711 10.5813 7.97466 10.4595 8.41868 10.5136L15.1365 11.4169C15.4226 11.4594 15.7107 11.4871 15.9997 11.4999C16.2518 11.4999 16.781 11.4326 16.8054 11.4286L23.5828 10.5126C23.8225 10.4823 24.066 10.5036 24.2969 10.575C24.5278 10.6464 24.7408 10.7663 24.9216 10.9267C25.1042 11.0879 25.2505 11.2861 25.3506 11.5082C25.4508 11.7303 25.5026 11.9711 25.5027 12.2147C25.505 12.6163 25.365 13.0057 25.1076 13.3138C24.8502 13.622 24.492 13.8291 24.0964 13.8984H24.0964Z" fill="black"/>
</svg>
