<svg width="32" height="32" viewBox="0 0 32 32" fill="none" xmlns="http://www.w3.org/2000/svg">
<path d="M11 29.0004C9.67323 28.9977 8.40171 28.4688 7.46436 27.5298C6.52702 26.5908 6.00039 25.3184 6 23.9916L6.001 10.9965C6.00227 10.4676 6.21282 9.96062 6.58665 9.58643C6.96048 9.21224 7.4672 9.0012 7.99613 8.99941H11.7564C11.5505 8.41727 11.4665 7.79899 11.5097 7.18302C11.5529 6.56704 11.7224 5.96654 12.0076 5.41885C12.2928 4.87117 12.6876 4.388 13.1674 3.9994C13.6473 3.6108 14.202 3.32508 14.797 3.15999C15.392 2.99491 16.0146 2.95399 16.6261 3.03979C17.2376 3.12558 17.8249 3.33626 18.3515 3.65871C18.8782 3.98117 19.3328 4.40851 19.6872 4.91417C20.0416 5.41982 20.2882 5.99298 20.4117 6.598C20.5706 7.39952 20.5122 8.22896 20.2427 9.00034H24.0005C24.5303 9.0008 25.0384 9.21142 25.4131 9.586C25.7879 9.96058 25.9988 10.4685 25.9995 10.9984V15.5374C25.9991 15.8035 25.9285 16.0647 25.795 16.2948C25.6614 16.5249 25.4696 16.7157 25.2387 16.848C25.0153 16.9791 24.7608 17.0478 24.5017 17.047C24.2427 17.0461 23.9886 16.9757 23.7661 16.8431C23.2437 16.5499 22.635 16.4492 22.0461 16.5588C21.4571 16.6684 20.9253 16.9812 20.5434 17.4427C20.3045 17.7422 20.1374 18.0925 20.0552 18.4666C19.9729 18.8408 19.9776 19.2289 20.0688 19.6009C20.1778 20.0548 20.413 20.4686 20.7472 20.7945C21.0814 21.1204 21.501 21.3452 21.9575 21.4427C22.5723 21.5781 23.2156 21.477 23.7593 21.1595C23.9861 21.0276 24.2438 20.9579 24.5062 20.9574C24.7686 20.9569 25.0265 21.0257 25.2539 21.1567C25.4812 21.2878 25.67 21.4765 25.801 21.7039C25.9321 21.9312 26.0009 22.1891 26.0005 22.4515L26.0015 27.0003C26.002 27.2628 25.9507 27.5228 25.8506 27.7654C25.7504 28.008 25.6033 28.2284 25.4178 28.414C25.2323 28.5997 25.0119 28.7468 24.7694 28.8471C24.5268 28.9474 24.2668 28.9988 24.0044 28.9983H23.9966L11 29.0004ZM8 10.9994V23.9916C7.9997 24.7881 8.31539 25.5523 8.87781 26.1164C9.44024 26.6804 10.2035 26.9983 11 27.0004L24.0005 26.9984V23.2416C23.215 23.5175 22.3689 23.5729 21.5542 23.4017C20.9526 23.2724 20.384 23.021 19.8834 22.6632C19.3828 22.3055 18.9608 21.8489 18.6436 21.3216C18.3264 20.7944 18.1206 20.2077 18.039 19.5979C17.9574 18.988 18.0017 18.3678 18.1692 17.7758C18.3367 17.1837 18.6238 16.6322 19.0127 16.1554C19.4017 15.6786 19.8842 15.2867 20.4306 15.0037C20.977 14.7207 21.5756 14.5528 22.1894 14.5102C22.8033 14.4676 23.4193 14.5514 23.9995 14.7562V10.9984L19.4595 11.0004C19.1951 11 18.9354 10.9301 18.7065 10.7976C18.4777 10.6651 18.2877 10.4747 18.1558 10.2455C18.0263 10.0191 17.9585 9.76255 17.9594 9.50168C17.9602 9.24081 18.0297 8.98475 18.1607 8.75917C18.4727 8.22292 18.5753 7.59019 18.4488 6.98281C18.3549 6.52115 18.1313 6.09583 17.8042 5.7568C17.4771 5.41776 17.0601 5.17907 16.6021 5.06874C16.1242 4.9511 15.6223 4.97691 15.159 5.14295C14.6957 5.30898 14.2917 5.60787 13.9973 6.00226C13.7029 6.39665 13.5313 6.86905 13.5039 7.36042C13.4766 7.85179 13.5946 8.34034 13.8433 8.765C13.9756 8.98762 14.0459 9.24158 14.0469 9.50053C14.0479 9.75948 13.9797 10.014 13.8492 10.2377C13.717 10.4685 13.5264 10.6604 13.2965 10.7941C13.0666 10.9279 12.8056 10.9987 12.5396 10.9994H8Z" fill="black"/>
</svg>
