<svg xmlns="http://www.w3.org/2000/svg" width="32" height="32" viewBox="0 0 32 32"><path d="M2 5.5C1.72386 5.5 1.5 5.72386 1.5 6V14C1.5 14.2761 1.72386 14.5 2 14.5H30C30.2761 14.5 30.5 14.2761 30.5 14V6C30.5 5.72386 30.2761 5.5 30 5.5H2ZM2.5 13.5V6.5H29.5V13.5H2.5ZM2 17.5C1.72386 17.5 1.5 17.7239 1.5 18V26C1.5 26.2761 1.72386 26.5 2 26.5H30C30.2761 26.5 30.5 26.2761 30.5 26V18C30.5 17.7239 30.2761 17.5 30 17.5H2ZM2.5 25.5V18.5H29.5V25.5H2.5ZM25.9349 23.2402C25.743 23.5761 25.2587 23.5762 25.0667 23.2404L23.9277 21.2482C23.7372 20.9148 23.9778 20.5 24.3618 20.5H26.6386C27.0225 20.5 27.2632 20.9147 27.0728 21.248L25.9349 23.2402ZM25.0667 11.2404C25.2587 11.5762 25.743 11.5761 25.9349 11.2402L27.0728 9.24798C27.2632 8.91465 27.0225 8.5 26.6386 8.5H24.3618C23.9778 8.5 23.7372 8.91483 23.9277 9.24816L25.0667 11.2404Z"/></svg>