<svg width="32" height="32" viewBox="0 0 32 32" fill="none" xmlns="http://www.w3.org/2000/svg"><path d="M12.39 12.87a8.063 8.063 0 0 0-1.672-2.566 1 1 0 0 0-1.437 1.391 6.076 6.076 0 0 1 1.257 1.93 6.334 6.334 0 0 1 0 4.75 6.066 6.066 0 0 1-1.257 1.93 1 1 0 0 0 1.437 1.39 8.062 8.062 0 0 0 1.671-2.564 8.333 8.333 0 0 0 0-6.261zM21.579 9.003a17.92 17.92 0 0 0-3.874-5.712 1 1 0 0 0-1.41 1.418 15.939 15.939 0 0 1 3.444 5.077 15.945 15.945 0 0 1 0 12.429 15.923 15.923 0 0 1-3.445 5.076 1 1 0 0 0 1.41 1.418 17.9 17.9 0 0 0 3.875-5.711 17.941 17.941 0 0 0 0-13.995z" fill="#0F0F0F"/><path d="M18 16a14.375 14.375 0 0 0-1.01-5.323 13.922 13.922 0 0 0-1.828-3.254c-.291-.386-.603-.756-.934-1.108a1 1 0 1 0-1.457 1.37c.281.3.547.614.795.943a11.9 11.9 0 0 1 1.565 2.787 12.54 12.54 0 0 1 0 9.17 11.94 11.94 0 0 1-1.555 2.775c-.25.332-.519.65-.804.953a1 1 0 0 0 1.455 1.373c.336-.356.652-.731.946-1.123a13.956 13.956 0 0 0 1.818-3.24C17.66 19.628 18.004 17.822 18 16z" fill="#0F0F0F"/></svg>