<svg width="32" height="32" viewBox="0 0 32 32" fill="none" xmlns="http://www.w3.org/2000/svg">
<path d="M9.99956 13.2497H9.74956V11.9997C9.74956 11.2704 9.45983 10.5709 8.9441 10.0552C8.42838 9.53943 7.7289 9.2497 6.99956 9.2497C6.27021 9.2497 5.57074 9.53943 5.05501 10.0552C4.53929 10.5709 4.24956 11.2704 4.24956 11.9997V13.2497H3.99956C3.5356 13.2503 3.0908 13.4348 2.76274 13.7629C2.43467 14.0909 2.25012 14.5357 2.24956 14.9997V18.9997C2.25012 19.4637 2.43467 19.9085 2.76274 20.2365C3.09081 20.5646 3.5356 20.7491 3.99956 20.7497H9.99956C10.4635 20.7491 10.9083 20.5646 11.2364 20.2365C11.5644 19.9084 11.749 19.4637 11.7496 18.9997V14.9997C11.749 14.5357 11.5644 14.091 11.2364 13.7629C10.9083 13.4348 10.4635 13.2503 9.99956 13.2497ZM5.74956 11.9997C5.74956 11.6682 5.88125 11.3502 6.11567 11.1158C6.35009 10.8814 6.66804 10.7497 6.99956 10.7497C7.33108 10.7497 7.64902 10.8814 7.88344 11.1158C8.11786 11.3502 8.24956 11.6682 8.24956 11.9997V13.2497H5.74956V11.9997ZM10.2496 18.9997C10.2494 19.066 10.223 19.1295 10.1762 19.1763C10.1293 19.2232 10.0658 19.2496 9.99956 19.2497H3.99956C3.93329 19.2496 3.86978 19.2232 3.82292 19.1763C3.77606 19.1295 3.74968 19.066 3.74956 18.9997V14.9997C3.74968 14.9334 3.77606 14.8699 3.82292 14.8231C3.86978 14.7762 3.93329 14.7498 3.99956 14.7497H9.99956C10.0658 14.7498 10.1293 14.7762 10.1762 14.8231C10.223 14.8699 10.2494 14.9334 10.2496 14.9997V18.9997Z" fill="black"/>
<path d="M16.9996 21.7497C16.8523 21.7497 16.7082 21.7064 16.5854 21.625C16.4626 21.5437 16.3665 21.4281 16.309 21.2925C16.2515 21.1569 16.2352 21.0073 16.2622 20.8625C16.2891 20.7177 16.3581 20.5841 16.4605 20.4782C17.0212 19.8982 17.4655 19.2159 17.7691 18.4685C18.4097 16.8853 18.4097 15.1151 17.7691 13.5319C17.4652 12.7843 17.021 12.1018 16.4605 11.5212C16.392 11.4504 16.3381 11.3668 16.302 11.2752C16.2658 11.1836 16.248 11.0857 16.2496 10.9873C16.2529 10.7884 16.3351 10.5989 16.478 10.4606C16.621 10.3223 16.8131 10.2465 17.012 10.2498C17.2109 10.253 17.4003 10.3352 17.5386 10.4782C18.232 11.1957 18.7816 12.0393 19.1578 12.9635C19.9468 14.9107 19.9468 17.0886 19.1578 19.0358C18.782 19.9602 18.2323 20.8039 17.5386 21.5212C17.4688 21.5937 17.3851 21.6513 17.2925 21.6906C17.1998 21.7299 17.1002 21.75 16.9996 21.7497Z" fill="black"/>
<path d="M23.9996 28.7497C23.851 28.7497 23.7058 28.7055 23.5824 28.6229C23.4589 28.5402 23.3628 28.4228 23.3062 28.2854C23.2496 28.1481 23.2351 27.997 23.2645 27.8514C23.2939 27.7058 23.3658 27.5721 23.4712 27.4675C24.987 25.9673 26.1899 24.1812 27.0102 22.2127C27.8304 20.2441 28.2517 18.1323 28.2496 15.9997C28.2516 13.867 27.8301 11.7552 27.0097 9.78662C26.1893 7.81806 24.9862 6.03197 23.4703 4.53192C23.3291 4.39154 23.2495 4.20084 23.2489 4.00177C23.2484 3.80269 23.327 3.61156 23.4673 3.4704C23.6077 3.32925 23.7984 3.24964 23.9975 3.24909C24.1966 3.24854 24.3877 3.32709 24.5288 3.46747C26.1549 5.08004 27.4524 6.99306 28.3492 9.10028C29.7303 12.3496 30.1044 15.9387 29.4231 19.403C28.7419 22.8674 27.0365 26.0475 24.5279 28.5319C24.4585 28.6012 24.3761 28.6562 24.2854 28.6935C24.1948 28.7309 24.0976 28.75 23.9996 28.7497Z" fill="black"/>
<path d="M20.4996 25.7497C20.3531 25.7498 20.2097 25.7069 20.0873 25.6265C19.9649 25.546 19.8687 25.4314 19.8106 25.2969C19.7526 25.1624 19.7352 25.0139 19.7606 24.8696C19.786 24.7253 19.8531 24.5916 19.9537 24.4851C20.2456 24.1759 20.5198 23.8505 20.7749 23.5104C21.4289 22.6411 21.9633 21.6879 22.3638 20.6764C23.5448 17.6701 23.5448 14.3283 22.3638 11.3219C21.9615 10.306 21.4238 9.34912 20.7652 8.47723C20.5122 8.14131 20.241 7.81953 19.9527 7.51336C19.8164 7.36832 19.7434 7.1751 19.7496 6.97621C19.7559 6.77732 19.8408 6.58904 19.9859 6.45281C20.1309 6.31657 20.3241 6.24353 20.523 6.24975C20.7219 6.25598 20.9102 6.34096 21.0464 6.486C21.3708 6.83181 21.6766 7.19462 21.9624 7.57291C22.7014 8.55282 23.3054 9.62753 23.7583 10.7682C25.0799 14.1303 25.0799 17.868 23.7583 21.2301C23.3082 22.3658 22.7082 23.4362 21.9741 24.4128C21.685 24.7967 21.375 25.1644 21.0454 25.5143C20.9753 25.5887 20.8907 25.648 20.7969 25.6885C20.703 25.729 20.6018 25.7498 20.4996 25.7497Z" fill="black"/>
</svg>
