<svg width="32" height="32" viewBox="0 0 32 32" fill="none" xmlns="http://www.w3.org/2000/svg"><path d="M10 13.25h-.25V12a2.75 2.75 0 0 0-5.5 0v1.25H4A1.752 1.752 0 0 0 2.25 15v4A1.752 1.752 0 0 0 4 20.75h6A1.752 1.752 0 0 0 11.75 19v-4A1.753 1.753 0 0 0 10 13.25zM5.75 12a1.25 1.25 0 1 1 2.5 0v1.25h-2.5V12zm4.5 7a.25.25 0 0 1-.25.25H4a.25.25 0 0 1-.25-.25v-4a.25.25 0 0 1 .25-.25h6a.25.25 0 0 1 .25.25v4zM17 21.75a.75.75 0 0 1-.54-1.272 6.306 6.306 0 0 0 1.31-2.01 6.58 6.58 0 0 0 0-4.936 6.324 6.324 0 0 0-1.31-2.01.749.749 0 0 1 .552-1.272.75.75 0 0 1 .527.228 7.817 7.817 0 0 1 1.619 2.486 8.085 8.085 0 0 1 0 6.072 7.802 7.802 0 0 1-1.62 2.485.746.746 0 0 1-.538.229zM24 28.75a.75.75 0 0 1-.529-1.282A16.114 16.114 0 0 0 28.25 16a16.112 16.112 0 0 0-4.78-11.468.75.75 0 1 1 1.059-1.065 17.637 17.637 0 0 1 0 25.064.744.744 0 0 1-.53.219z" fill="#0F0F0F"/><path d="M20.5 25.75a.75.75 0 0 1-.546-1.265 12.16 12.16 0 0 0 2.41-3.809 12.792 12.792 0 0 0 0-9.354 12.128 12.128 0 0 0-2.411-3.809.75.75 0 1 1 1.093-1.027c.325.346.63.709.916 1.087.74.98 1.343 2.055 1.796 3.195a14.298 14.298 0 0 1 0 10.462 13.693 13.693 0 0 1-1.784 3.183c-.289.384-.599.751-.929 1.101a.75.75 0 0 1-.545.236z" fill="#0F0F0F"/></svg>