<svg width="32" height="32" viewBox="0 0 32 32" fill="none" xmlns="http://www.w3.org/2000/svg"><path d="M12.158 12.964a7.818 7.818 0 0 0-1.62-2.486.75.75 0 1 0-1.078 1.043 6.323 6.323 0 0 1 1.31 2.01 6.58 6.58 0 0 1 0 4.937 6.306 6.306 0 0 1-1.31 2.01.75.75 0 0 0 1.079 1.043 7.8 7.8 0 0 0 1.619-2.485 8.085 8.085 0 0 0 0-6.072zM21.35 9.1a17.69 17.69 0 0 0-3.821-5.633.75.75 0 0 0-1.059 1.065 16.156 16.156 0 0 1 3.498 5.156 16.19 16.19 0 0 1 0 12.624 16.17 16.17 0 0 1-3.497 5.155.75.75 0 1 0 1.057 1.065 17.657 17.657 0 0 0 3.821-5.633 17.696 17.696 0 0 0 0-13.799z" fill="#0F0F0F"/><path d="M17.75 16a14.126 14.126 0 0 0-.992-5.232 13.71 13.71 0 0 0-1.795-3.195 13.4 13.4 0 0 0-.916-1.087.751.751 0 1 0-1.094 1.027 12.129 12.129 0 0 1 2.411 3.809 12.792 12.792 0 0 1 0 9.354 12.168 12.168 0 0 1-1.589 2.835c-.255.34-.53.665-.821.974a.75.75 0 0 0 1.091 1.03c.33-.35.64-.718.93-1.102a13.698 13.698 0 0 0 1.783-3.183c.66-1.665.996-3.44.992-5.23z" fill="#0F0F0F"/></svg>