<svg width="32" height="32" viewBox="0 0 32 32" fill="none" xmlns="http://www.w3.org/2000/svg"><path d="M10 13.5h-.5V12a2.5 2.5 0 0 0-5 0v1.5H4A1.502 1.502 0 0 0 2.5 15v4A1.502 1.502 0 0 0 4 20.5h6a1.501 1.501 0 0 0 1.5-1.5v-4a1.502 1.502 0 0 0-1.5-1.5zM5.5 12a1.5 1.5 0 0 1 3 0v1.5h-3V12zm5 7a.502.502 0 0 1-.5.5H4a.501.501 0 0 1-.5-.5v-4a.501.501 0 0 1 .5-.5h6a.501.501 0 0 1 .5.5v4zM17 21.5a.5.5 0 0 1-.36-.848A6.558 6.558 0 0 0 18 18.563a6.831 6.831 0 0 0 0-5.126 6.569 6.569 0 0 0-1.36-2.09.5.5 0 1 1 .719-.695 7.571 7.571 0 0 1 1.567 2.406 7.836 7.836 0 0 1 0 5.884 7.555 7.555 0 0 1-1.567 2.405.496.496 0 0 1-.36.153zM24 28.5a.5.5 0 0 1-.353-.855 16.39 16.39 0 0 0 0-23.29.5.5 0 0 1 .705-.71 17.39 17.39 0 0 1 0 24.71.5.5 0 0 1-.352.145z" fill="#0F0F0F"/><path d="M20.5 25.5a.5.5 0 0 1-.364-.843c.298-.317.578-.65.84-.996a12.435 12.435 0 0 0 1.62-2.892 13.042 13.042 0 0 0 0-9.539 12.422 12.422 0 0 0-1.63-2.903 11.999 11.999 0 0 0-.83-.985.5.5 0 0 1 .728-.685c.318.34.619.696.9 1.067a13.42 13.42 0 0 1 1.762 3.137 14.047 14.047 0 0 1 0 10.277 13.446 13.446 0 0 1-1.752 3.124c-.283.377-.588.738-.911 1.08a.496.496 0 0 1-.363.158z" fill="#0F0F0F"/></svg>