<svg width="32" height="32" viewBox="0 0 32 32" fill="none" xmlns="http://www.w3.org/2000/svg">
<path d="M23.6152 1.99958H8.3847C7.20031 2.02323 6.07362 2.51556 5.25166 3.36864C4.42971 4.22171 3.97957 5.36592 3.99994 6.55037V20.5455C3.9922 21.3092 4.17657 22.0627 4.53612 22.7365C4.89567 23.4104 5.41885 23.9831 6.05756 24.4019L13.288 29.2008C14.0987 29.7222 15.0424 29.9988 16.0063 29.9976C16.9702 29.9964 17.9132 29.7174 18.7226 29.1939L25.9311 24.4097C26.5725 23.991 27.0983 23.4176 27.4598 22.7423C27.8214 22.0669 28.0071 21.3115 27.9999 20.5455V6.55037C28.0203 5.36592 27.5702 4.22172 26.7482 3.36864C25.9262 2.51556 24.7996 2.02323 23.6152 1.99958ZM25.9999 20.5455C26.0028 20.9785 25.8979 21.4054 25.6947 21.7878C25.4915 22.1701 25.1963 22.496 24.8359 22.7359L17.6269 27.5211C17.1436 27.8324 16.5812 27.9986 16.0063 27.9998C15.4314 28.001 14.8683 27.8372 14.3837 27.5279L7.15272 22.7281C6.79502 22.488 6.50246 22.163 6.30126 21.7821C6.10006 21.4011 5.99651 20.9763 5.99989 20.5455V6.55037C5.97943 5.89629 6.21884 5.26072 6.66576 4.7827C7.11268 4.30468 7.73072 4.02311 8.3847 3.99958H23.6152C24.2691 4.02312 24.8872 4.30469 25.3341 4.78271C25.781 5.26074 26.0204 5.8963 25.9999 6.55037V20.5455Z" fill="black"/>
<path d="M19.9999 13.9996H16.9999V10.9996C16.9999 10.7344 16.8946 10.48 16.707 10.2925C16.5195 10.1049 16.2652 9.99958 15.9999 9.99958C15.7347 9.99958 15.4804 10.1049 15.2928 10.2925C15.1053 10.48 14.9999 10.7344 14.9999 10.9996V13.9996H11.9999C11.7347 13.9996 11.4804 14.1049 11.2928 14.2925C11.1053 14.48 10.9999 14.7344 10.9999 14.9996C10.9999 15.2648 11.1053 15.5192 11.2928 15.7067C11.4804 15.8942 11.7347 15.9996 11.9999 15.9996H14.9999V18.9996C14.9999 19.2648 15.1053 19.5191 15.2928 19.7067C15.4804 19.8942 15.7347 19.9996 15.9999 19.9996C16.2652 19.9996 16.5195 19.8942 16.707 19.7067C16.8946 19.5191 16.9999 19.2648 16.9999 18.9996V15.9996H19.9999C20.2652 15.9996 20.5195 15.8942 20.707 15.7067C20.8946 15.5192 20.9999 15.2648 20.9999 14.9996C20.9999 14.7344 20.8946 14.48 20.707 14.2925C20.5195 14.1049 20.2652 13.9996 19.9999 13.9996Z" fill="black"/>
</svg>
