<svg width="32" height="32" viewBox="0 0 32 32" fill="none" xmlns="http://www.w3.org/2000/svg">
<path d="M28.9996 6.00021H25.9996V3.00021C25.9996 2.73499 25.8942 2.48064 25.7067 2.2931C25.5192 2.10556 25.2648 2.00021 24.9996 2.00021C24.7344 2.00021 24.48 2.10556 24.2925 2.2931C24.1049 2.48064 23.9996 2.73499 23.9996 3.00021V6.00021H20.9996C20.7344 6.00021 20.48 6.10556 20.2925 6.2931C20.1049 6.48064 19.9996 6.73499 19.9996 7.00021C19.9996 7.26542 20.1049 7.51978 20.2925 7.70731C20.48 7.89485 20.7344 8.00021 20.9996 8.00021H23.9996V11.0002C23.9996 11.2654 24.1049 11.5198 24.2925 11.7073C24.48 11.8948 24.7344 12.0002 24.9996 12.0002C25.2648 12.0002 25.5192 11.8948 25.7067 11.7073C25.8942 11.5198 25.9996 11.2654 25.9996 11.0002V8.00021H28.9996C29.2648 8.00021 29.5192 7.89485 29.7067 7.70731C29.8942 7.51978 29.9996 7.26542 29.9996 7.00021C29.9996 6.73499 29.8942 6.48064 29.7067 6.2931C29.5192 6.10556 29.2648 6.00021 28.9996 6.00021Z" fill="black"/>
<path d="M22.3443 13.0979C22.2259 13.0408 22.0974 13.0077 21.9661 13.0005C21.8349 12.9934 21.7035 13.0123 21.5796 13.0561C21.4557 13.1 21.3417 13.1679 21.2441 13.256C21.1466 13.3441 21.0675 13.4507 21.0113 13.5695L19.1939 17.382C19.0712 17.6395 19.0046 17.9201 18.9986 18.2052L18.9992 20.0002H16.9996V14.0002C16.9996 13.735 16.8942 13.4806 16.7067 13.2931C16.5192 13.1055 16.2648 13.0002 15.9996 13.0002C15.7344 13.0002 15.48 13.1055 15.2925 13.2931C15.105 13.4806 14.9996 13.735 14.9996 14.0002V20.0002H12.9992L12.9986 18.1691C12.989 17.897 12.9235 17.6297 12.8062 17.3839L10.4557 12.4562C10.2247 11.8937 10.0805 11.2993 10.0279 10.6935C9.9338 9.83096 10.0229 8.95824 10.2892 8.13247C10.5556 7.3067 10.9934 6.54647 11.5738 5.90152C12.1399 5.28705 12.8301 4.7998 13.5986 4.47203C14.3671 4.14425 15.1965 3.98341 16.0318 4.00016C16.9109 3.9946 17.7806 4.1816 18.5797 4.54801C18.8205 4.65938 19.0958 4.6705 19.3449 4.57893C19.5939 4.48736 19.7964 4.30059 19.9078 4.05972C20.0192 3.81885 20.0303 3.5436 19.9387 3.29453C19.8471 3.04546 19.6604 2.84297 19.4195 2.7316C18.3368 2.23728 17.1585 1.98755 15.9683 2.00016C14.8648 1.98873 13.7714 2.21028 12.7593 2.65033C11.7473 3.09038 10.8395 3.73902 10.0953 4.55387C9.33232 5.40741 8.75519 6.41033 8.40062 7.49891C8.04605 8.58749 7.9218 9.73792 8.03576 10.8771C8.10973 11.7011 8.31033 12.5088 8.63049 13.2716L10.9996 18.2052C10.9996 18.2052 11.0095 25.0376 11.0106 25.0566C11.0225 26.3732 11.5541 27.6317 12.4897 28.558C13.4253 29.4844 14.689 30.0035 16.0056 30.0023C17.3223 30.0011 18.585 29.4796 19.5189 28.5516C20.4528 27.6235 20.9821 26.364 20.9915 25.0474C20.9923 25.0315 20.9977 18.2453 20.9977 18.2453L22.816 14.4309C22.8726 14.3124 22.9053 14.1839 22.9123 14.0528C22.9192 13.9216 22.9002 13.7904 22.8564 13.6666C22.8126 13.5428 22.7448 13.4289 22.657 13.3313C22.5691 13.2337 22.4629 13.1544 22.3443 13.0979ZM18.9997 22.0002L19.0003 24.0022H13.0003L12.9997 22.0002H18.9997ZM16.0006 28.0022C15.379 28.0126 14.7703 27.8242 14.2632 27.4644C13.7562 27.1047 13.3773 26.5924 13.1818 26.0022H18.8194C18.6238 26.5924 18.2449 27.1046 17.7379 27.4644C17.2309 27.8241 16.6222 28.0126 16.0006 28.0022Z" fill="black"/>
</svg>
