<svg width="32" height="32" viewBox="0 0 32 32" fill="none" xmlns="http://www.w3.org/2000/svg">
<path d="M23.6152 2.24958H8.3847C7.26666 2.27337 6.20364 2.73941 5.4286 3.54557C4.65356 4.35173 4.22972 5.43226 4.24994 6.55037V20.5455C4.24238 21.268 4.41668 21.9809 4.75678 22.6185C5.09689 23.256 5.59189 23.7978 6.19623 24.1939L13.4238 28.9908C14.1932 29.4864 15.0893 29.7495 16.0046 29.7486C16.9198 29.7477 17.8154 29.4829 18.5839 28.9859L25.7953 24.1988C26.4018 23.803 26.8987 23.2608 27.2403 22.6223C27.5819 21.9838 27.7572 21.2696 27.7499 20.5455V6.55037C27.7702 5.43226 27.3463 4.35173 26.5713 3.54556C25.7962 2.7394 24.7332 2.27337 23.6152 2.24958ZM26.2499 20.5455C26.2526 21.0196 26.1375 21.487 25.9149 21.9056C25.6923 22.3243 25.3692 22.6811 24.9745 22.9439L17.7626 27.731C17.2384 28.0689 16.6282 28.2489 16.0046 28.2498C15.3809 28.2507 14.7702 28.0723 14.2451 27.7359L7.017 22.939C6.62447 22.6758 6.3033 22.3194 6.08218 21.9017C5.86106 21.484 5.74691 21.018 5.74991 20.5454V6.55037C5.72949 5.83001 5.99526 5.13088 6.48904 4.60599C6.98283 4.08109 7.66443 3.77316 8.3847 3.74958H23.6152C24.3354 3.77317 25.017 4.0811 25.5108 4.60599C26.0046 5.13089 26.2704 5.83001 26.2499 6.55037V20.5455Z" fill="black"/>
<path d="M19.9999 14.2496H16.7499V10.9996C16.7499 10.8007 16.6709 10.6099 16.5303 10.4692C16.3896 10.3286 16.1989 10.2496 15.9999 10.2496C15.801 10.2496 15.6103 10.3286 15.4696 10.4692C15.329 10.6099 15.2499 10.8007 15.2499 10.9996V14.2496H11.9999C11.801 14.2496 11.6103 14.3286 11.4696 14.4692C11.329 14.6099 11.2499 14.8007 11.2499 14.9996C11.2499 15.1985 11.329 15.3893 11.4696 15.5299C11.6103 15.6706 11.801 15.7496 11.9999 15.7496H15.2499V18.9996C15.2499 19.1985 15.329 19.3893 15.4696 19.5299C15.6103 19.6706 15.801 19.7496 15.9999 19.7496C16.1989 19.7496 16.3896 19.6706 16.5303 19.5299C16.6709 19.3893 16.7499 19.1985 16.7499 18.9996V15.7496H19.9999C20.1989 15.7496 20.3896 15.6706 20.5303 15.5299C20.6709 15.3893 20.7499 15.1985 20.7499 14.9996C20.7499 14.8007 20.6709 14.6099 20.5303 14.4692C20.3896 14.3286 20.1989 14.2496 19.9999 14.2496Z" fill="black"/>
</svg>
