<svg width="32" height="32" viewBox="0 0 32 32" fill="none" xmlns="http://www.w3.org/2000/svg">
<path d="M23.6152 2.49958H8.3847C7.33293 2.52327 6.33345 2.96293 5.60527 3.72223C4.87709 4.48153 4.47961 5.49853 4.49994 6.55037V20.5455C4.49753 21.2259 4.66384 21.8963 4.98398 22.4967C5.30411 23.0971 5.7681 23.6087 6.33441 23.9859L13.5595 28.7808C14.2881 29.2499 15.1365 29.4991 16.0031 29.4986C16.8696 29.4981 17.7177 29.2479 18.4457 28.7779L25.6601 23.9888C26.2278 23.612 26.693 23.1001 27.0141 22.4991C27.3352 21.8981 27.5022 21.2269 27.4999 20.5455V6.55037C27.5203 5.49853 27.1228 4.48153 26.3946 3.72223C25.6664 2.96293 24.6669 2.52326 23.6152 2.49958ZM26.4999 20.5455C26.5027 21.0608 26.3774 21.5688 26.1353 22.0238C25.8932 22.4787 25.5418 22.8664 25.1127 23.1519L17.8984 27.941C17.3332 28.3049 16.6753 28.4986 16.0031 28.4991C15.3308 28.4996 14.6727 28.3069 14.1069 27.9439L6.88177 23.149C6.45409 22.8632 6.10398 22.4757 5.86282 22.0213C5.62166 21.567 5.49698 21.0599 5.49994 20.5455V6.55037C5.47934 5.76366 5.77138 5.00086 6.31208 4.42904C6.85278 3.85721 7.59807 3.52299 8.3847 3.49958H23.6152C24.4018 3.52299 25.1471 3.85721 25.6878 4.42903C26.2285 5.00085 26.5205 5.76366 26.4999 6.55037V20.5455Z" fill="black"/>
<path d="M19.9999 14.4996H16.4999V10.9996C16.4999 10.867 16.4473 10.7398 16.3535 10.646C16.2597 10.5523 16.1325 10.4996 15.9999 10.4996C15.8673 10.4996 15.7402 10.5523 15.6464 10.646C15.5526 10.7398 15.4999 10.867 15.4999 10.9996V14.4996H11.9999C11.8673 14.4996 11.7402 14.5523 11.6464 14.646C11.5526 14.7398 11.4999 14.867 11.4999 14.9996C11.4999 15.1322 11.5526 15.2594 11.6464 15.3531C11.7402 15.4469 11.8673 15.4996 11.9999 15.4996H15.4999V18.9996C15.4999 19.1322 15.5526 19.2594 15.6464 19.3531C15.7402 19.4469 15.8673 19.4996 15.9999 19.4996C16.1325 19.4996 16.2597 19.4469 16.3535 19.3531C16.4473 19.2594 16.4999 19.1322 16.4999 18.9996V15.4996H19.9999C20.1325 15.4996 20.2597 15.4469 20.3535 15.3531C20.4473 15.2594 20.4999 15.1322 20.4999 14.9996C20.4999 14.867 20.4473 14.7398 20.3535 14.646C20.2597 14.5523 20.1325 14.4996 19.9999 14.4996Z" fill="black"/>
</svg>
