<svg xmlns="http://www.w3.org/2000/svg" width="32" height="32" viewBox="0 0 32 32"><path d="M16 27C15.8011 27 15.6103 27.079 15.4697 27.2197C15.329 27.3603 15.25 27.5511 15.25 27.75C15.25 27.9489 15.329 28.1397 15.4697 28.2803C15.6103 28.421 15.8011 28.5 16 28.5C16.1989 28.5 16.3897 28.421 16.5303 28.2803C16.671 28.1397 16.75 27.9489 16.75 27.75C16.75 27.5511 16.671 27.3603 16.5303 27.2197C16.3897 27.079 16.1989 27 16 27ZM23.243 14.429C23.1269 14.3654 22.9905 14.35 22.8632 14.3863C22.7359 14.4227 22.628 14.5077 22.563 14.623C21.9138 15.7954 20.963 16.773 19.8091 17.4547C18.6552 18.1363 17.3402 18.4972 16 18.5C15.8674 18.5 15.7402 18.5527 15.6464 18.6464C15.5527 18.7402 15.5 18.8674 15.5 19V23C15.5 23.1326 15.5527 23.2598 15.6464 23.3536C15.7402 23.4473 15.8674 23.5 16 23.5C16.1326 23.5 16.2598 23.4473 16.3536 23.3536C16.4473 23.2598 16.5 23.1326 16.5 23V19.486C17.931 19.3984 19.3169 18.9516 20.5295 18.1867C21.7422 17.4219 22.7425 16.3637 23.438 15.11C23.5021 14.9938 23.5176 14.8569 23.4811 14.7292C23.4446 14.6016 23.3589 14.4937 23.243 14.429ZM18.365 3.881L18.849 4.051C18.9754 4.09131 19.1126 4.07977 19.2305 4.01892C19.3483 3.95806 19.4372 3.85288 19.4775 3.7265C19.5178 3.60012 19.5063 3.46291 19.4454 3.34504C19.3846 3.22718 19.2794 3.13831 19.153 3.098L18.691 2.935C17.413 2.51009 16.0524 2.39467 14.7211 2.59824C13.3898 2.80181 12.1259 3.31856 11.0333 4.10596C9.94068 4.89336 9.05063 5.92893 8.43637 7.12746C7.82211 8.32599 7.50119 9.65323 7.5 11C7.5 11.1326 7.55268 11.2598 7.64645 11.3536C7.74021 11.4473 7.86739 11.5 8 11.5C8.13261 11.5 8.25979 11.4473 8.35355 11.3536C8.44732 11.2598 8.5 11.1326 8.5 11C8.50084 9.81245 8.78347 8.64205 9.32468 7.58499C9.86589 6.52793 10.6502 5.61439 11.6132 4.91946C12.5762 4.22453 13.6904 3.76804 14.8641 3.58751C16.0379 3.40698 17.2377 3.50757 18.365 3.881ZM29 6.5H25.5V3C25.5 2.86739 25.4473 2.74021 25.3536 2.64645C25.2598 2.55268 25.1326 2.5 25 2.5C24.8674 2.5 24.7402 2.55268 24.6464 2.64645C24.5527 2.74021 24.5 2.86739 24.5 3V6.5H21C20.8674 6.5 20.7402 6.55268 20.6464 6.64645C20.5527 6.74021 20.5 6.86739 20.5 7C20.5 7.13261 20.5527 7.25979 20.6464 7.35355C20.7402 7.44732 20.8674 7.5 21 7.5H24.5V11C24.5 11.1326 24.5527 11.2598 24.6464 11.3536C24.7402 11.4473 24.8674 11.5 25 11.5C25.1326 11.5 25.2598 11.4473 25.3536 11.3536C25.4473 11.2598 25.5 11.1326 25.5 11V7.5H29C29.1326 7.5 29.2598 7.44732 29.3536 7.35355C29.4473 7.25979 29.5 7.13261 29.5 7C29.5 6.86739 29.4473 6.74021 29.3536 6.64645C29.2598 6.55268 29.1326 6.5 29 6.5Z"/></svg>