<svg xmlns="http://www.w3.org/2000/svg" width="32" height="32" viewBox="0 0 32 32"><path d="M22 11.2501C21.6029 11.249 21.2172 11.3833 20.9067 11.6309C20.5962 11.8785 20.3793 12.2245 20.2919 12.6119C20.2046 12.9993 20.2519 13.4049 20.426 13.7618C20.6002 14.1187 20.8908 14.4056 21.25 14.5751V19.9991C21.25 20.198 21.329 20.3888 21.4697 20.5294C21.6103 20.6701 21.8011 20.7491 22 20.7491C22.1989 20.7491 22.3897 20.6701 22.5303 20.5294C22.671 20.3888 22.75 20.198 22.75 19.9991V14.5751C23.1092 14.4056 23.3998 14.1187 23.574 13.7618C23.7481 13.4049 23.7954 12.9993 23.7081 12.6119C23.6207 12.2245 23.4038 11.8785 23.0933 11.6309C22.7828 11.3833 22.3971 11.249 22 11.2501ZM16.979 3.34609C16.7532 3.25072 16.5042 3.22453 16.2635 3.27081C16.0228 3.3171 15.8013 3.43378 15.627 3.60609L8.7 10.2501H5C4.2709 10.2509 3.57189 10.5409 3.05633 11.0564C2.54078 11.572 2.25079 12.271 2.25 13.0001V19.0001C2.25079 19.7292 2.54078 20.4282 3.05633 20.9438C3.57189 21.4593 4.2709 21.7493 5 21.7501H8.7L15.617 28.3811C15.7918 28.5559 16.0144 28.675 16.2568 28.7232C16.4992 28.7715 16.7505 28.7469 16.9789 28.6523C17.2073 28.5578 17.4026 28.3977 17.54 28.1923C17.6774 27.9868 17.7508 27.7453 17.751 27.4981V4.50009C17.7515 4.25293 17.6785 4.0112 17.5412 3.80569C17.4039 3.60018 17.2085 3.44018 16.98 3.34609H16.979ZM16.25 26.9131L9.52 20.4591C9.3803 20.3247 9.19387 20.2497 9 20.2501H5C4.66856 20.2498 4.35077 20.118 4.11641 19.8837C3.88205 19.6493 3.75026 19.3315 3.75 19.0001V13.0001C3.75026 12.6686 3.88205 12.3509 4.11641 12.1165C4.35077 11.8821 4.66856 11.7504 5 11.7501H9C9.194 11.7501 9.38 11.6751 9.52 11.5411L16.25 5.08609V26.9131ZM27.75 17.4251V12.0001C27.75 11.8012 27.671 11.6104 27.5303 11.4698C27.3897 11.3291 27.1989 11.2501 27 11.2501C26.8011 11.2501 26.6103 11.3291 26.4697 11.4698C26.329 11.6104 26.25 11.8012 26.25 12.0001V17.4251C25.891 17.5954 25.6006 17.8828 25.4267 18.24C25.2527 18.5972 25.2055 19.003 25.2927 19.3906C25.38 19.7782 25.5966 20.1246 25.9069 20.3728C26.2172 20.621 26.6027 20.7562 27 20.7562C27.3973 20.7562 27.7828 20.621 28.0931 20.3728C28.4034 20.1246 28.62 19.7782 28.7073 19.3906C28.7945 19.003 28.7473 18.5972 28.5733 18.24C28.3994 17.8828 28.109 17.5954 27.75 17.4251Z"/></svg>