<svg xmlns="http://www.w3.org/2000/svg" width="32" height="32" viewBox="0 0 32 32"><path d="M8.00022 5.00007C7.56087 4.99891 7.13345 5.14296 6.78442 5.40981C6.4354 5.67667 6.18434 6.05138 6.07028 6.47567C5.95623 6.89997 5.98557 7.35005 6.15374 7.75594C6.32192 8.16184 6.6195 8.50078 7.00022 8.72007V26.0001C7.00022 26.2653 7.10558 26.5196 7.29311 26.7072C7.48065 26.8947 7.735 27.0001 8.00022 27.0001C8.26544 27.0001 8.51979 26.8947 8.70733 26.7072C8.89486 26.5196 9.00022 26.2653 9.00022 26.0001V8.72107C9.38144 8.502 9.67951 8.16303 9.84803 7.75693C10.0166 7.35083 10.0461 6.90041 9.93194 6.4758C9.81783 6.05119 9.56651 5.67623 9.21712 5.40932C8.86774 5.14241 8.43989 4.99852 8.00022 5.00007ZM17.0002 23.2791V6.00007C17.0002 5.73485 16.8949 5.4805 16.7073 5.29296C16.5198 5.10542 16.2654 5.00007 16.0002 5.00007C15.735 5.00007 15.4806 5.10542 15.2931 5.29296C15.1056 5.4805 15.0002 5.73485 15.0002 6.00007V23.2801C14.6189 23.5002 14.3209 23.84 14.1525 24.2467C13.984 24.6535 13.9544 25.1045 14.0684 25.5298C14.1823 25.955 14.4334 26.3308 14.7827 26.5988C15.132 26.8668 15.56 27.0121 16.0002 27.0121C16.4405 27.0121 16.8685 26.8668 17.2177 26.5988C17.567 26.3308 17.8181 25.955 17.9321 25.5298C18.046 25.1045 18.0165 24.6535 17.848 24.2467C17.6795 23.84 17.3815 23.5002 17.0002 23.2801V23.2791ZM26.0002 7.00007C26.0023 6.64825 25.9116 6.30211 25.7372 5.99655C25.5628 5.69098 25.311 5.43679 25.007 5.2596C24.7031 5.08242 24.3578 4.9885 24.006 4.98732C23.6542 4.98613 23.3082 5.07773 23.0031 5.25288C22.698 5.42802 22.4444 5.68051 22.268 5.9849C22.0916 6.28929 21.9985 6.63481 21.9983 6.98663C21.998 7.33845 22.0904 7.68413 22.2663 7.98881C22.4423 8.2935 22.6954 8.54641 23.0002 8.72207V26.0001C23.0002 26.2653 23.1056 26.5196 23.2931 26.7072C23.4806 26.8947 23.735 27.0001 24.0002 27.0001C24.2654 27.0001 24.5198 26.8947 24.7073 26.7072C24.8949 26.5196 25.0002 26.2653 25.0002 26.0001V8.72207C25.3032 8.54785 25.5551 8.29706 25.7306 7.99483C25.9061 7.6926 25.9991 7.34956 26.0002 7.00007Z"/></svg>