<svg xmlns="http://www.w3.org/2000/svg" width="32" height="32" viewBox="0 0 32 32"><path d="M8.00019 5.25003C7.60344 5.24941 7.2183 5.38394 6.90822 5.63145C6.59814 5.87897 6.38161 6.22471 6.29428 6.61174C6.20696 6.99876 6.25405 7.40398 6.4278 7.76067C6.60156 8.11735 6.89161 8.40422 7.25019 8.57403V25.999C7.25019 26.1979 7.32921 26.3887 7.46986 26.5294C7.61051 26.67 7.80128 26.749 8.00019 26.749C8.1991 26.749 8.38987 26.67 8.53052 26.5294C8.67117 26.3887 8.75019 26.1979 8.75019 25.999V8.57403C9.10934 8.40454 9.39998 8.11768 9.57416 7.76077C9.74833 7.40386 9.79563 6.99825 9.70824 6.61084C9.62086 6.22344 9.40402 5.8774 9.09349 5.62982C8.78297 5.38225 8.39732 5.24793 8.00019 5.24903V5.25003ZM16.7502 23.426V6.00003C16.7502 5.80112 16.6712 5.61035 16.5305 5.4697C16.3899 5.32905 16.1991 5.25003 16.0002 5.25003C15.8013 5.25003 15.6105 5.32905 15.4699 5.4697C15.3292 5.61035 15.2502 5.80112 15.2502 6.00003V23.426C14.8912 23.5963 14.6008 23.8837 14.4269 24.2409C14.2529 24.5981 14.2057 25.0039 14.2929 25.3916C14.3802 25.7792 14.5968 26.1256 14.9071 26.3738C15.2174 26.622 15.6029 26.7572 16.0002 26.7572C16.3975 26.7572 16.783 26.622 17.0933 26.3738C17.4036 26.1256 17.6202 25.7792 17.7074 25.3916C17.7947 25.0039 17.7475 24.5981 17.5735 24.2409C17.3995 23.8837 17.1092 23.5963 16.7502 23.426ZM25.7502 7.00003C25.7513 6.6866 25.6682 6.37862 25.5096 6.10828C25.3509 5.83794 25.1226 5.61517 24.8485 5.46324C24.5743 5.3113 24.2644 5.23579 23.9511 5.24459C23.6378 5.25338 23.3326 5.34616 23.0674 5.51324C22.8022 5.68031 22.5867 5.91554 22.4435 6.19435C22.3003 6.47316 22.2346 6.78532 22.2533 7.09819C22.272 7.41107 22.3744 7.71319 22.5497 7.97298C22.7251 8.23277 22.967 8.4407 23.2502 8.57503V25.999C23.2502 26.1979 23.3292 26.3887 23.4699 26.5294C23.6105 26.67 23.8013 26.749 24.0002 26.749C24.1991 26.749 24.3899 26.67 24.5305 26.5294C24.6712 26.3887 24.7502 26.1979 24.7502 25.999V8.57503C25.0486 8.43374 25.3009 8.21083 25.4779 7.9321C25.6549 7.65336 25.7493 7.3302 25.7502 7.00003Z"/></svg>