<svg width="32" height="32" viewBox="0 0 32 32" fill="none" xmlns="http://www.w3.org/2000/svg">
<path d="M9.99984 11.5C9.64604 11.4987 9.3032 11.6227 9.03222 11.8502C8.76123 12.0777 8.57964 12.3938 8.51968 12.7425C8.45973 13.0912 8.5253 13.4499 8.70475 13.7548C8.88419 14.0597 9.1659 14.2912 9.49984 14.408V20C9.49984 20.1327 9.55252 20.2598 9.64629 20.3536C9.74006 20.4474 9.86724 20.5 9.99984 20.5C10.1325 20.5 10.2596 20.4474 10.3534 20.3536C10.4472 20.2598 10.4998 20.1327 10.4998 20V14.41C10.8352 14.2942 11.1186 14.0629 11.2992 13.7575C11.4798 13.4521 11.546 13.0924 11.4859 12.7427C11.4258 12.393 11.2434 12.076 10.9711 11.8484C10.6989 11.6207 10.3547 11.4973 9.99984 11.5ZM16.4998 17.591V12.001C16.4998 11.8684 16.4472 11.7413 16.3534 11.6475C16.2596 11.5537 16.1325 11.501 15.9998 11.501C15.8672 11.501 15.7401 11.5537 15.6463 11.6475C15.5525 11.7413 15.4998 11.8684 15.4998 12.001V17.591C15.1662 17.709 14.8851 17.9411 14.706 18.2463C14.527 18.5515 14.4616 18.9102 14.5214 19.2589C14.5813 19.6077 14.7625 19.924 15.033 20.1521C15.3035 20.3802 15.646 20.5053 15.9998 20.5053C16.3537 20.5053 16.6961 20.3802 16.9667 20.1521C17.2372 19.924 17.4184 19.6077 17.4782 19.2589C17.5381 18.9102 17.4727 18.5515 17.2937 18.2463C17.1146 17.9411 16.8335 17.709 16.4998 17.591V17.591Z" fill="#0F0F0F"/>
<path d="M28.791 9.72C28.5658 9.58148 28.3081 9.50484 28.0439 9.49782C27.7796 9.4908 27.5182 9.55364 27.286 9.68L23.5 12.085V10C23.4987 8.80693 23.0241 7.66311 22.1805 6.81948C21.3369 5.97585 20.1931 5.50132 19 5.5H7C5.80693 5.50132 4.66311 5.97585 3.81948 6.81948C2.97585 7.66311 2.50132 8.80693 2.5 10V22C2.50132 23.1931 2.97585 24.3369 3.81948 25.1805C4.66311 26.0241 5.80693 26.4987 7 26.5H19C20.1931 26.4989 21.3371 26.0245 22.1808 25.1808C23.0245 24.3371 23.4989 23.1931 23.5 22V19.904L27.331 22.337C27.5597 22.4512 27.8138 22.505 28.0691 22.4934C28.3244 22.4818 28.5726 22.4051 28.79 22.2707C29.0074 22.1363 29.1868 21.9485 29.3112 21.7252C29.4357 21.502 29.501 21.2506 29.501 20.995V10.995C29.5019 10.7394 29.4371 10.4879 29.3128 10.2646C29.1884 10.0413 29.0088 9.85379 28.791 9.72V9.72ZM22.5 22C22.4989 22.9279 22.1299 23.8176 21.4737 24.4737C20.8176 25.1299 19.9279 25.4989 19 25.5H7C6.07207 25.4989 5.18244 25.1299 4.5263 24.4737C3.87015 23.8176 3.50106 22.9279 3.5 22V10C3.50106 9.07207 3.87015 8.18244 4.5263 7.5263C5.18244 6.87015 6.07207 6.50106 7 6.5H19C19.9279 6.50106 20.8176 6.87015 21.4737 7.5263C22.1299 8.18244 22.4989 9.07207 22.5 10V22ZM28.502 20.995C28.5027 21.0804 28.4812 21.1646 28.4397 21.2393C28.3982 21.3139 28.338 21.3766 28.265 21.421C28.2005 21.4637 28.1266 21.4902 28.0497 21.4984C27.9728 21.5065 27.8951 21.4961 27.823 21.468L23.5 18.72V13.27L27.778 10.547C27.854 10.5076 27.9391 10.489 28.0246 10.493C28.1101 10.4971 28.193 10.5236 28.265 10.57C28.338 10.6142 28.3982 10.6766 28.4397 10.7511C28.4813 10.8257 28.5027 10.9097 28.502 10.995V20.995V20.995Z" fill="#0F0F0F"/>
</svg>
