<svg width="32" height="32" viewBox="0 0 32 32" fill="none" xmlns="http://www.w3.org/2000/svg">
<path d="M8.00048 5.49941C7.64696 5.49854 7.30456 5.62285 7.03395 5.85033C6.76335 6.0778 6.58202 6.39374 6.52212 6.74214C6.46221 7.09054 6.52759 7.4489 6.70668 7.7537C6.88576 8.0585 7.16697 8.29004 7.50048 8.4073V25.9994C7.50048 26.132 7.55315 26.2592 7.64692 26.353C7.74069 26.4467 7.86787 26.4994 8.00048 26.4994C8.13308 26.4994 8.26026 26.4467 8.35403 26.353C8.4478 26.2592 8.50048 26.132 8.50048 25.9994V8.4073C8.83398 8.29004 9.11519 8.0585 9.29427 7.7537C9.47336 7.4489 9.53874 7.09054 9.47883 6.74214C9.41893 6.39374 9.2376 6.0778 8.967 5.85033C8.69639 5.62285 8.35399 5.49854 8.00048 5.49941Z" fill="black"/>
<path d="M16.5005 23.5925V6.00038C16.5005 5.86777 16.4478 5.74059 16.354 5.64683C16.2603 5.55306 16.1331 5.50038 16.0005 5.50038C15.8679 5.50038 15.7407 5.55306 15.6469 5.64683C15.5532 5.74059 15.5005 5.86777 15.5005 6.00038V23.5925C15.1669 23.7104 14.8857 23.9425 14.7067 24.2477C14.5276 24.5529 14.4622 24.9116 14.5221 25.2604C14.5819 25.6091 14.7631 25.9255 15.0336 26.1535C15.3042 26.3816 15.6466 26.5067 16.0005 26.5067C16.3543 26.5067 16.6968 26.3816 16.9673 26.1535C17.2378 25.9255 17.419 25.6091 17.4789 25.2604C17.5387 24.9116 17.4733 24.5529 17.2943 24.2477C17.1153 23.9425 16.8341 23.7104 16.5005 23.5925Z" fill="black"/>
<path d="M25.5005 7.00038C25.5016 6.72512 25.427 6.45484 25.2848 6.21916C25.1426 5.98347 24.9383 5.79145 24.6942 5.66414C24.4502 5.53683 24.1758 5.47913 23.9011 5.49736C23.6265 5.5156 23.3621 5.60905 23.137 5.7675C22.912 5.92595 22.7348 6.14329 22.625 6.3957C22.5152 6.64812 22.477 6.92588 22.5145 7.19858C22.552 7.47127 22.6639 7.72838 22.8378 7.94175C23.0117 8.15512 23.241 8.31652 23.5005 8.40828V25.9994C23.5005 26.132 23.5532 26.2592 23.6469 26.353C23.7407 26.4467 23.8679 26.4994 24.0005 26.4994C24.1331 26.4994 24.2603 26.4467 24.354 26.353C24.4478 26.2592 24.5005 26.132 24.5005 25.9994V8.40828C24.7921 8.30555 25.0448 8.11507 25.2238 7.86298C25.4029 7.6109 25.4995 7.30958 25.5005 7.00038Z" fill="black"/>
</svg>
