<svg width="32" height="32" viewBox="0 0 32 32" fill="none" xmlns="http://www.w3.org/2000/svg">
<path d="M8.00047 5.24941C7.60349 5.24848 7.21805 5.38286 6.9077 5.6304C6.59735 5.87794 6.38063 6.22385 6.29326 6.61109C6.2059 6.99834 6.25312 7.4038 6.42712 7.76061C6.60113 8.11741 6.89154 8.40427 7.25047 8.57387V25.9994C7.25047 26.1983 7.32949 26.3891 7.47014 26.5297C7.61079 26.6704 7.80156 26.7494 8.00047 26.7494C8.19938 26.7494 8.39015 26.6704 8.5308 26.5297C8.67145 26.3891 8.75047 26.1983 8.75047 25.9994V8.57387C9.1094 8.40427 9.39981 8.11741 9.57382 7.76061C9.74783 7.4038 9.79504 6.99834 9.70768 6.61109C9.62031 6.22385 9.40359 5.87794 9.09324 5.6304C8.78289 5.38286 8.39745 5.24848 8.00047 5.24941Z" fill="black"/>
<path d="M16.7505 23.4259V6.00038C16.7505 5.80147 16.6715 5.6107 16.5308 5.47005C16.3901 5.3294 16.1994 5.25038 16.0005 5.25038C15.8016 5.25038 15.6108 5.3294 15.4701 5.47005C15.3295 5.6107 15.2505 5.80147 15.2505 6.00038V23.4259C14.8915 23.5962 14.6011 23.8836 14.4271 24.2408C14.2532 24.598 14.2059 25.0038 14.2932 25.3914C14.3805 25.7791 14.5971 26.1255 14.9074 26.3737C15.2176 26.6218 15.6031 26.7571 16.0005 26.7571C16.3978 26.7571 16.7833 26.6218 17.0936 26.3737C17.4039 26.1255 17.6205 25.7791 17.7077 25.3914C17.795 25.0038 17.7478 24.598 17.5738 24.2408C17.3998 23.8836 17.1095 23.5962 16.7505 23.4259Z" fill="black"/>
<path d="M25.7505 7.00038C25.7517 6.68692 25.6686 6.3789 25.5101 6.1085C25.3515 5.8381 25.1232 5.61526 24.8491 5.46325C24.575 5.31124 24.265 5.23566 23.9517 5.2444C23.6384 5.25313 23.3331 5.34587 23.0679 5.51292C22.8027 5.67996 22.5871 5.91518 22.4439 6.194C22.3007 6.47281 22.2349 6.78498 22.2536 7.09788C22.2722 7.41078 22.3746 7.71293 22.55 7.97275C22.7253 8.23256 22.9673 8.44051 23.2505 8.57485V25.9994C23.2505 26.0979 23.2699 26.1954 23.3076 26.2864C23.3453 26.3774 23.4005 26.4601 23.4701 26.5297C23.5398 26.5994 23.6225 26.6546 23.7135 26.6923C23.8045 26.73 23.902 26.7494 24.0005 26.7494C24.099 26.7494 24.1965 26.73 24.2875 26.6923C24.3785 26.6546 24.4612 26.5994 24.5308 26.5297C24.6004 26.4601 24.6557 26.3774 24.6934 26.2864C24.7311 26.1954 24.7505 26.0979 24.7505 25.9994V8.57485C25.0488 8.43363 25.3011 8.21081 25.4781 7.93217C25.655 7.65353 25.7495 7.33047 25.7505 7.00038Z" fill="black"/>
</svg>
