<svg width="32" height="32" viewBox="0 0 32 32" fill="none" xmlns="http://www.w3.org/2000/svg">
<path d="M22 8.00071C21.5603 7.99926 21.1324 8.14323 20.7831 8.41021C20.4337 8.67719 20.1824 9.0522 20.0683 9.47685C19.9542 9.9015 19.9837 10.352 20.1522 10.7581C20.3207 11.1642 20.6188 11.5033 21 11.7224V16.9997C21 17.2649 21.1054 17.5193 21.2929 17.7068C21.4804 17.8944 21.7348 17.9997 22 17.9997C22.2652 17.9997 22.5196 17.8944 22.7071 17.7068C22.8946 17.5193 23 17.2649 23 16.9997V11.7224C23.3812 11.5033 23.6793 11.1642 23.8478 10.7581C24.0163 10.352 24.0458 9.9015 23.9317 9.47685C23.8176 9.0522 23.5663 8.67719 23.2169 8.41021C22.8676 8.14323 22.4397 7.99926 22 8.00071Z" fill="black"/>
<path d="M28 14.2781V9.00071C28 8.73549 27.8946 8.48114 27.7071 8.2936C27.5196 8.10607 27.2652 8.00071 27 8.00071C26.7348 8.00071 26.4804 8.10607 26.2929 8.2936C26.1054 8.48114 26 8.73549 26 9.00071V14.2781C25.6187 14.4982 25.3207 14.838 25.1522 15.2447C24.9838 15.6515 24.9542 16.1025 25.0681 16.5277C25.1821 16.953 25.4332 17.3288 25.7825 17.5968C26.1318 17.8648 26.5597 18.0101 27 18.0101C27.4403 18.0101 27.8682 17.8648 28.2175 17.5968C28.5668 17.3288 28.8179 16.953 28.9318 16.5277C29.0458 16.1025 29.0162 15.6515 28.8478 15.2447C28.6793 14.838 28.3813 14.4982 28 14.2781Z" fill="black"/>
<path d="M18.9893 27.9997H17.0098C15.8301 28.0289 14.6799 27.6294 13.7724 26.8751C12.8649 26.1209 12.2617 25.0631 12.0747 23.898C13.4556 23.6454 14.7043 22.9172 15.6041 21.8397C16.5039 20.7621 16.9978 19.4035 17 17.9997V7.99974C17 7.21181 16.8448 6.43159 16.5433 5.70364C16.2417 4.97569 15.7998 4.31425 15.2426 3.7571C14.6855 3.19995 14.0241 2.75799 13.2961 2.45646C12.5681 2.15494 11.7879 1.99974 11 1.99974C10.2121 1.99974 9.43185 2.15494 8.7039 2.45646C7.97594 2.75799 7.31451 3.19995 6.75736 3.7571C6.20021 4.31425 5.75825 4.97569 5.45672 5.70364C5.15519 6.43159 5 7.21181 5 7.99974V17.9997C5.00246 19.4256 5.51228 20.804 6.43819 21.8882C7.36411 22.9725 8.64568 23.6919 10.0535 23.9176C10.2416 25.4649 10.9467 26.9033 12.0545 27.9997H2.98926C2.72404 27.9997 2.46969 28.1051 2.28215 28.2926C2.09461 28.4802 1.98926 28.7345 1.98926 28.9997C1.98926 29.265 2.09461 29.5193 2.28215 29.7068C2.46969 29.8944 2.72404 29.9997 2.98926 29.9997H18.9893C19.2545 29.9997 19.5088 29.8944 19.6964 29.7068C19.8839 29.5193 19.9893 29.265 19.9893 28.9997C19.9893 28.7345 19.8839 28.4802 19.6964 28.2926C19.5088 28.1051 19.2545 27.9997 18.9893 27.9997ZM7 17.9997V7.99973C7 6.93887 7.42142 5.92145 8.17157 5.1713C8.92172 4.42116 9.93913 3.99973 11 3.99973C12.0609 3.99973 13.0783 4.42116 13.8284 5.1713C14.5786 5.92145 15 6.93887 15 7.99973V17.9997C15 19.0606 14.5786 20.078 13.8284 20.8282C13.0783 21.5783 12.0609 21.9997 11 21.9997C9.93913 21.9997 8.92172 21.5783 8.17157 20.8282C7.42142 20.078 7 19.0606 7 17.9997Z" fill="black"/>
</svg>
