<svg width="32" height="32" fill="none" xmlns="http://www.w3.org/2000/svg"><path d="M9 8.7324c.5978-.3458 1-.9921 1-1.7324 0-1.1046-.8954-2-2-2s-2 .8954-2 2c0 .7403.4022 1.3866 1 1.7324V26c0 .5523.4477 1 1 1s1-.4477 1-1V8.7324zM16 5c-.5523 0-1 .4477-1 1v17.2676c-.5978.3458-1 .9921-1 1.7324 0 1.1046.8954 2 2 2s2-.8954 2-2c0-.7403-.4022-1.3866-1-1.7324V6c0-.5523-.4477-1-1-1zM23 6c0-.5523.4477-1 1-1s1 .4477 1 1v8.2676c.5978.3458 1 .9921 1 1.7324s-.4022 1.3866-1 1.7324V26c0 .5523-.4477 1-1 1s-1-.4477-1-1v-8.2676c-.5978-.3458-1-.9921-1-1.7324s.4022-1.3866 1-1.7324V6z" fill="#0F0F0F"/></svg>