<svg xmlns="http://www.w3.org/2000/svg" width="32" height="32" viewBox="0 0 32 32"><path d="M22 11.5001C21.6462 11.4987 21.3034 11.6228 21.0324 11.8503C20.7614 12.0777 20.5798 12.3939 20.5198 12.7426C20.4599 13.0913 20.5255 13.4499 20.7049 13.7548C20.8844 14.0598 21.1661 14.2912 21.5 14.4081V20.0001C21.5 20.1327 21.5527 20.2599 21.6464 20.3536C21.7402 20.4474 21.8674 20.5001 22 20.5001C22.1326 20.5001 22.2598 20.4474 22.3536 20.3536C22.4473 20.2599 22.5 20.1327 22.5 20.0001V14.4101C22.8342 14.2932 23.1161 14.0616 23.2957 13.7565C23.4753 13.4514 23.541 13.0925 23.481 12.7436C23.421 12.3947 23.2394 12.0783 22.9682 11.8506C22.6971 11.623 22.354 11.4988 22 11.5001ZM16.883 3.5771C16.7021 3.50159 16.5029 3.48114 16.3105 3.51832C16.118 3.5555 15.9408 3.64865 15.801 3.7861L8.8 10.5001H5C4.33712 10.5006 3.70154 10.7642 3.23282 11.2329C2.76409 11.7016 2.50053 12.3372 2.5 13.0001V19.0001C2.50053 19.663 2.76409 20.2986 3.23282 20.7673C3.70154 21.236 4.33712 21.4996 5 21.5001H8.8L15.792 28.2041C15.9314 28.3452 16.1096 28.4415 16.3039 28.4809C16.4983 28.5203 16.7 28.5008 16.8832 28.4251C17.0665 28.3493 17.2231 28.2207 17.3329 28.0556C17.4428 27.8905 17.5009 27.6964 17.5 27.4981V4.5001C17.5001 4.30244 17.4415 4.1092 17.3317 3.94488C17.2218 3.78056 17.0657 3.65255 16.883 3.5771ZM16.493 27.4911L9.346 20.6391C9.2529 20.5499 9.12894 20.5001 9 20.5001H5C4.60234 20.4996 4.22111 20.3414 3.93992 20.0602C3.65873 19.779 3.50053 19.3978 3.5 19.0001V13.0001C3.50053 12.6024 3.65873 12.2212 3.93992 11.94C4.22111 11.6588 4.60234 11.5006 5 11.5001H9C9.1288 11.5004 9.25275 11.4509 9.346 11.3621L16.5 4.5001L16.492 27.4901L16.493 27.4911ZM27.5 17.5911V12.0011C27.5 11.8685 27.4473 11.7413 27.3536 11.6475C27.2598 11.5538 27.1326 11.5011 27 11.5011C26.8674 11.5011 26.7402 11.5538 26.6464 11.6475C26.5527 11.7413 26.5 11.8685 26.5 12.0011V17.5911C26.1664 17.709 25.8852 17.9411 25.7062 18.2463C25.5271 18.5515 25.4618 18.9102 25.5216 19.259C25.5814 19.6077 25.7626 19.9241 26.0332 20.1521C26.3037 20.3802 26.6462 20.5053 27 20.5053C27.3538 20.5053 27.6963 20.3802 27.9668 20.1521C28.2374 19.9241 28.4186 19.6077 28.4784 19.259C28.5382 18.9102 28.4729 18.5515 28.2938 18.2463C28.1148 17.9411 27.8336 17.709 27.5 17.5911Z"/></svg>