<svg width="32" height="32" viewBox="0 0 32 32" fill="none" xmlns="http://www.w3.org/2000/svg">
<path d="M28.9497 22.4411L28.542 21.1862C28.4665 20.9533 28.3081 20.7562 28.0969 20.6324C27.8856 20.5085 27.6363 20.4665 27.3961 20.5144L26.5067 20.6911L25.7155 20.1469L25.6398 19.2962C25.6176 19.0473 25.5031 18.8157 25.3187 18.6471C25.1344 18.4784 24.8936 18.3848 24.6437 18.3848H23.3243C23.0795 18.3848 22.8432 18.4747 22.6601 18.6373C22.4771 18.7999 22.3601 19.0239 22.3313 19.267L22.2245 20.1675L21.4625 20.7518L20.6299 20.561C20.3861 20.5048 20.13 20.5422 19.9125 20.6657C19.6949 20.7893 19.5316 20.99 19.4549 21.2281L19.0494 22.4823C18.9743 22.7148 18.9869 22.9668 19.0848 23.1906C19.1827 23.4145 19.3592 23.5948 19.581 23.6974L20.4029 24.0777L20.7234 24.9837L20.2847 25.7164C20.1563 25.9308 20.1128 26.1855 20.1628 26.4303C20.2128 26.6751 20.3526 26.8924 20.5547 27.0392L21.6222 27.8148C21.8223 27.9602 22.0693 28.0263 22.3154 28.0002C22.5615 27.9742 22.7891 27.8578 22.9543 27.6736L23.558 27.0007L24.509 27.0017L25.081 27.6577C25.2466 27.8477 25.4778 27.9681 25.7283 27.9949C25.9788 28.0217 26.2302 27.953 26.4322 27.8025L27.4997 27.0072C27.6943 26.8621 27.8296 26.6512 27.8802 26.4138C27.9309 26.1764 27.8934 25.9287 27.7748 25.7168L27.3319 24.9256L27.6049 24.0049L28.3907 23.67C28.6205 23.5721 28.8054 23.3916 28.9089 23.1641C29.0124 22.9367 29.0269 22.6787 28.9497 22.4411ZM26.7801 23.2694L26.2534 25.0458L26.9023 26.2052L25.8348 27.0006L24.9644 26.0021L23.1122 26.0002L22.21 27.0058L21.1425 26.2302L21.8231 25.0938L21.2051 23.3471L20.001 22.7899L20.4064 21.5357L21.6975 21.8317L23.1678 20.7042L23.3243 19.3848H24.6437L24.7611 20.7042L26.2877 21.7541L27.5909 21.4953L27.9987 22.7501L26.7801 23.2694Z" fill="black"/>
<path d="M23.9987 24.2561C24.5509 24.2561 24.9987 23.8083 24.9987 23.2561C24.9987 22.7038 24.5509 22.2561 23.9987 22.2561C23.4464 22.2561 22.9987 22.7038 22.9987 23.2561C22.9987 23.8083 23.4464 24.2561 23.9987 24.2561Z" fill="black"/>
<path d="M16.9426 28.3373C11.8527 28.9135 6.62226 27.9633 4.50604 26.0736C4.2036 25.8339 3.9571 25.5312 3.78371 25.1864C3.61032 24.8417 3.51423 24.4632 3.50214 24.0775C3.50214 19.1879 8.01483 15.5014 13.9992 15.5014C16.0004 15.4807 17.9782 15.9327 19.7717 16.8207C19.8898 16.8809 20.0269 16.8918 20.1531 16.851C20.2792 16.8101 20.3839 16.7208 20.4442 16.6028C20.5046 16.4847 20.5155 16.3475 20.4747 16.2214C20.434 16.0953 20.3448 15.9905 20.2267 15.9301C19.1777 15.4055 18.062 15.0267 16.9104 14.8042C18.2189 14.1489 19.2681 13.0712 19.888 11.7455C20.5079 10.4199 20.6623 8.92378 20.3262 7.49945C19.99 6.07511 19.1831 4.80589 18.0359 3.8972C16.8888 2.98852 15.4685 2.49355 14.0051 2.49241C12.5416 2.49128 11.1206 2.98404 9.97206 3.89095C8.82349 4.79786 8.01458 6.06583 7.67626 7.48964C7.33794 8.91344 7.49001 10.4098 8.10785 11.7364C8.72569 13.063 9.77315 14.1423 11.0807 14.7996C6.03485 15.8233 2.50214 19.4664 2.50214 24.0775C2.51142 24.6046 2.636 25.1232 2.86712 25.5969C3.09825 26.0706 3.43032 26.488 3.83999 26.8197C5.98452 28.7338 10.1466 29.4994 13.9865 29.4994C15.0119 29.5007 16.0366 29.4446 17.0558 29.3314C17.1873 29.3159 17.3072 29.249 17.3894 29.1453C17.4716 29.0415 17.5094 28.9094 17.4944 28.7779C17.4794 28.6464 17.4129 28.5262 17.3095 28.4436C17.206 28.361 17.0741 28.3228 16.9426 28.3373ZM8.50019 9.00038C8.50019 7.91258 8.82276 6.84921 9.4271 5.94474C10.0315 5.04027 10.8904 4.33532 11.8954 3.91904C12.9004 3.50276 14.0063 3.39384 15.0732 3.60606C16.1401 3.81828 17.1201 4.3421 17.8893 5.11129C18.6585 5.88048 19.1823 6.86049 19.3945 7.92738C19.6067 8.99428 19.4978 10.1001 19.0815 11.1051C18.6652 12.1101 17.9603 12.9691 17.0558 13.5735C16.1514 14.1778 15.088 14.5004 14.0002 14.5004C12.5421 14.4986 11.1442 13.9185 10.1131 12.8875C9.08204 11.8564 8.502 10.4585 8.50019 9.00038Z" fill="black"/>
</svg>
