<svg width="32" height="32" viewBox="0 0 32 32" fill="none" xmlns="http://www.w3.org/2000/svg">
<path d="M29.4252 22.2866L29.0176 21.0318C28.9043 20.6823 28.6667 20.3867 28.3498 20.2009C28.033 20.0151 27.6589 19.9522 27.2987 20.024L26.6162 20.1596L26.1926 19.8682L26.1378 19.2519C26.1046 18.8786 25.9328 18.5312 25.6563 18.2782C25.3797 18.0252 25.0185 17.8848 24.6437 17.8848H23.3243C22.957 17.8848 22.6026 18.0195 22.328 18.2634C22.0535 18.5073 21.878 18.8435 21.8347 19.2081L21.7527 19.8991L21.3448 20.2119L20.7417 20.0736C20.3759 19.9894 19.9919 20.0455 19.6656 20.2308C19.3392 20.4161 19.0942 20.7171 18.9791 21.0743L18.5736 22.3285C18.4609 22.6772 18.4798 23.0552 18.6267 23.3911C18.7736 23.7269 19.0383 23.9973 19.371 24.1512L20.0017 24.4431L20.1736 24.9287L19.8556 25.4596C19.6631 25.7811 19.5979 26.1631 19.6729 26.5304C19.7479 26.8976 19.9576 27.2234 20.2608 27.4438L21.3283 28.2193C21.6285 28.4375 21.999 28.5366 22.3681 28.4975C22.7372 28.4583 23.0786 28.2838 23.3264 28.0075L23.781 27.5009L24.2815 27.5014L24.7042 27.9863C24.9526 28.2712 25.2993 28.4518 25.6751 28.492C26.0509 28.5323 26.428 28.4292 26.731 28.2034L27.7985 27.4081C28.0905 27.1905 28.2934 26.8742 28.3693 26.5181C28.4452 26.162 28.389 25.7904 28.2112 25.4726L27.8714 24.8655L28.0175 24.3726L28.5868 24.13C28.9316 23.983 29.2089 23.7123 29.3641 23.3711C29.5192 23.03 29.5411 22.643 29.4252 22.2866ZM26.7801 23.2694L26.2534 25.0458L26.9023 26.2052L25.8348 27.0006L24.9644 26.0021L23.1122 26.0001L22.21 27.0057L21.1425 26.2302L21.8231 25.0938L21.2051 23.3471L20.001 22.7899L20.4064 21.5357L21.6975 21.8317L23.1678 20.7042L23.3243 19.3848H24.6437L24.7611 20.7042L26.2877 21.7541L27.5909 21.4953L27.9987 22.7501L26.7801 23.2694Z" fill="black"/>
<path d="M23.9987 24.5061C24.689 24.5061 25.2487 23.9464 25.2487 23.2561C25.2487 22.5657 24.689 22.0061 23.9987 22.0061C23.3083 22.0061 22.7487 22.5657 22.7487 23.2561C22.7487 23.9464 23.3083 24.5061 23.9987 24.5061Z" fill="black"/>
<path d="M16.9142 28.0892C11.9758 28.6498 6.70725 27.7035 4.67304 25.8871C4.39562 25.672 4.1692 25.3983 4.00999 25.0854C3.85078 24.7726 3.76273 24.4284 3.75214 24.0775C3.75214 19.3305 8.15741 15.7514 13.9992 15.7514C15.9607 15.7304 17.8994 16.1731 19.6574 17.0434C19.8346 17.134 20.0405 17.1506 20.2298 17.0894C20.3236 17.0591 20.4105 17.0107 20.4855 16.9468C20.5606 16.8829 20.6223 16.8049 20.6672 16.7172C20.7121 16.6295 20.7392 16.5338 20.7471 16.4355C20.755 16.3373 20.7435 16.2385 20.7132 16.1448C20.6829 16.051 20.6345 15.9641 20.5706 15.8891C20.5067 15.814 20.4287 15.7523 20.341 15.7074C19.4678 15.2695 18.5478 14.9319 17.5986 14.7011C18.836 13.9212 19.7867 12.7605 20.3074 11.3937C20.8281 10.0269 20.8907 8.52793 20.4859 7.12244C20.081 5.71694 19.2305 4.48098 18.0625 3.60062C16.8945 2.72026 15.4721 2.24314 14.0094 2.24107C12.5468 2.239 11.123 2.7121 9.95253 3.58916C8.78201 4.46621 7.92806 5.69975 7.51922 7.1041C7.11038 8.50845 7.16878 10.0076 7.68563 11.3759C8.20248 12.7442 9.14981 13.9075 10.385 14.6909C5.56653 15.9079 2.25214 19.5401 2.25214 24.0775C2.26061 24.64 2.39232 25.1937 2.63798 25.6997C2.88365 26.2057 3.23729 26.6517 3.67399 27.0062C5.86735 28.9652 10.1047 29.7484 14.0011 29.7484C15.0312 29.7499 16.0604 29.6935 17.0841 29.5795C17.2818 29.5569 17.4623 29.4568 17.5861 29.3012C17.7099 29.1455 17.7668 28.947 17.7443 28.7494C17.7218 28.5518 17.6216 28.3712 17.466 28.2474C17.3103 28.1236 17.1119 28.0667 16.9142 28.0892ZM8.75019 9.00038C8.75019 7.96203 9.05809 6.94699 9.63497 6.08363C10.2118 5.22028 11.0318 4.54737 11.9911 4.15001C12.9504 3.75265 14.006 3.64868 15.0244 3.85126C16.0428 4.05383 16.9783 4.55384 17.7125 5.28807C18.4467 6.02229 18.9467 6.95775 19.1493 7.97615C19.3519 8.99455 19.2479 10.0502 18.8506 11.0095C18.4532 11.9688 17.7803 12.7887 16.9169 13.3656C16.0536 13.9425 15.0385 14.2504 14.0002 14.2504C12.6083 14.2487 11.2739 13.695 10.2897 12.7108C9.30553 11.7266 8.75187 10.3922 8.75019 9.00038Z" fill="black"/>
</svg>
