<svg width="32" height="32" viewBox="0 0 32 32" fill="none" xmlns="http://www.w3.org/2000/svg">
<path d="M28.9499 22.4408L28.5419 21.1858C28.4663 20.9529 28.3078 20.7558 28.0966 20.632C27.8854 20.5081 27.636 20.466 27.3959 20.5138L26.5059 20.6908L25.7159 20.1468L25.6399 19.2968C25.6179 19.0478 25.5034 18.816 25.3191 18.6472C25.1347 18.4784 24.8938 18.3848 24.6439 18.3848H23.3239C23.0791 18.3848 22.8428 18.4746 22.6598 18.6371C22.4768 18.7997 22.3598 19.0237 22.3309 19.2668L22.2239 20.1668L21.4619 20.7518L20.6299 20.5608C20.3861 20.5046 20.1301 20.542 19.9125 20.6655C19.6949 20.789 19.5316 20.9897 19.4549 21.2278L19.0489 22.4818C18.9738 22.7143 18.9864 22.9663 19.0845 23.1902C19.1825 23.414 19.3591 23.5942 19.5809 23.6968L20.4029 24.0768L20.7229 24.9838L20.2849 25.7158C20.1564 25.9301 20.1129 26.1848 20.1629 26.4297C20.2128 26.6746 20.3527 26.8919 20.5549 27.0388L21.6219 27.8148C21.822 27.9602 22.069 28.0263 22.315 28.0002C22.561 27.9742 22.7886 27.8579 22.9539 27.6738L23.5579 27.0008H24.5089L25.0809 27.6578C25.2465 27.8475 25.4777 27.9677 25.7282 27.9944C25.9786 28.0211 26.2299 27.9523 26.4319 27.8018L27.4999 27.0068C27.6944 26.8617 27.8296 26.6509 27.8802 26.4135C27.9308 26.1762 27.8934 25.9285 27.7749 25.7168L27.3319 24.9258L27.6049 24.0048L28.3909 23.6698C28.6208 23.5718 28.8056 23.3913 28.9091 23.1638C29.0126 22.9364 29.0271 22.6784 28.9499 22.4408V22.4408ZM26.7799 23.2688L26.2529 25.0458L26.9029 26.2058L25.8349 27.0008L24.9649 26.0018L23.1109 25.9998L22.2089 27.0058L21.1409 26.2298L21.8219 25.0938L21.2039 23.3468L19.9999 22.7898L20.4049 21.5358L21.6969 21.8318L23.1669 20.7038L23.3229 19.3838H24.6429L24.7599 20.7038L26.2869 21.7538L27.5899 21.4948L27.9979 22.7498L26.7789 23.2698L26.7799 23.2688Z" fill="#0F0F0F"/>
<path d="M23.999 24.2559C24.2642 24.2559 24.5185 24.1505 24.7061 23.963C24.8936 23.7755 24.999 23.5211 24.999 23.2559C24.999 22.9907 24.8936 22.7363 24.7061 22.5488C24.5185 22.3613 24.2642 22.2559 23.999 22.2559C23.7337 22.2559 23.4794 22.3613 23.2918 22.5488C23.1043 22.7363 22.999 22.9907 22.999 23.2559C22.999 23.5211 23.1043 23.7755 23.2918 23.963C23.4794 24.1505 23.7337 24.2559 23.999 24.2559ZM16.943 28.3369C11.853 28.9129 6.62295 27.9629 4.50595 26.0739C4.20338 25.8341 3.95679 25.5312 3.78338 25.1863C3.60997 24.8414 3.51393 24.4628 3.50195 24.0769C3.50195 19.1869 8.01495 15.5009 13.999 15.5009C16 15.4809 17.979 15.9329 19.772 16.8209C19.8894 16.8766 20.024 16.8844 20.1472 16.8426C20.2703 16.8007 20.3723 16.7126 20.4315 16.5968C20.4907 16.481 20.5024 16.3467 20.4642 16.2224C20.4261 16.098 20.3409 15.9935 20.227 15.9309C19.1778 15.4059 18.0618 15.0267 16.91 14.8039C18.2185 14.1485 19.2675 13.0707 19.8873 11.7449C20.5071 10.4192 20.6613 8.92304 20.325 7.49872C19.9888 6.0744 19.1817 4.80523 18.0344 3.89663C16.8872 2.98804 15.4669 2.49319 14.0034 2.49219C12.5399 2.49118 11.1189 2.98408 9.97043 3.8911C8.82192 4.79812 8.0131 6.06618 7.67489 7.49004C7.33668 8.9139 7.48888 10.4102 8.10683 11.7368C8.72479 13.0634 9.77235 14.1427 11.08 14.7999C6.03495 15.8229 2.50195 19.4659 2.50195 24.0769C2.51113 24.6041 2.63567 25.1229 2.86683 25.5967C3.09799 26.0706 3.43015 26.4881 3.83995 26.8199C5.98495 28.7339 10.147 29.4999 13.986 29.4999C15.012 29.4999 16.036 29.4449 17.056 29.3309C17.1878 29.3159 17.3082 29.2492 17.3908 29.1454C17.4734 29.0416 17.5114 28.9092 17.4965 28.7774C17.4815 28.6456 17.4147 28.5251 17.3109 28.4425C17.2071 28.3599 17.0748 28.3219 16.943 28.3369V28.3369ZM8.49995 8.9999C8.49995 7.9121 8.82252 6.84873 9.42687 5.94426C10.0312 5.03979 10.8902 4.33484 11.8952 3.91856C12.9002 3.50228 14.0061 3.39336 15.073 3.60558C16.1398 3.8178 17.1199 4.34162 17.889 5.11081C18.6582 5.88 19.1821 6.86001 19.3943 7.9269C19.6065 8.9938 19.4976 10.0997 19.0813 11.1047C18.665 12.1097 17.9601 12.9686 17.0556 13.573C16.1511 14.1773 15.0878 14.4999 14 14.4999C12.5418 14.498 11.144 13.918 10.1129 12.8869C9.08186 11.8559 8.50181 10.458 8.49995 8.9999V8.9999Z" fill="#0F0F0F"/>
</svg>
