<svg width="32" height="32" viewBox="0 0 32 32" fill="none" xmlns="http://www.w3.org/2000/svg">
<path d="M24.4456 24.7782C25.9805 23.1272 26.9921 21.0587 27.3528 18.8335C27.7135 16.6083 27.4071 14.3261 26.4724 12.2748C27.3122 11.0884 27.6561 9.62115 27.431 8.18512C27.2059 6.74909 26.4295 5.45751 25.2669 4.585C24.1146 3.72603 22.6708 3.35454 21.2471 3.55068C19.8233 3.74682 18.5337 4.49486 17.6566 5.6334C17.1083 5.549 16.5546 5.50443 15.9998 5.50004C15.4367 5.50444 14.8746 5.55027 14.3182 5.63718C13.8886 5.06919 13.3507 4.59197 12.7355 4.23309C12.1204 3.87421 11.4403 3.64079 10.7344 3.54632C10.0285 3.45185 9.31091 3.4982 8.62306 3.68269C7.93521 3.86718 7.29073 4.18615 6.72688 4.62118C5.56566 5.48658 4.78973 6.7725 4.56547 8.20325C4.3412 9.634 4.68644 11.0957 5.52717 12.2749C4.59295 14.3252 4.28648 16.6061 4.64639 18.8303C5.00629 21.0545 6.01647 23.1224 7.54963 24.7734L4.64827 27.6446C4.60152 27.6907 4.56433 27.7457 4.53881 27.8062C4.5133 27.8667 4.49996 27.9317 4.49957 27.9974C4.49918 28.0631 4.51173 28.1282 4.53652 28.189C4.56131 28.2499 4.59785 28.3052 4.64404 28.3519C4.69024 28.3986 4.74519 28.4358 4.80574 28.4612C4.8663 28.4867 4.93128 28.5 4.99697 28.5003C5.06266 28.5006 5.12778 28.488 5.18859 28.4632C5.2494 28.4383 5.30472 28.4018 5.35139 28.3555L8.25813 25.4791C10.3675 27.421 13.1297 28.4993 15.9969 28.5001C18.8641 28.5008 21.6268 27.4239 23.7372 25.483L26.6488 28.3555C26.6954 28.4018 26.7507 28.4384 26.8115 28.4633C26.8723 28.4881 26.9375 28.5007 27.0032 28.5004C27.0689 28.5001 27.1338 28.4868 27.1944 28.4613C27.2549 28.4358 27.3099 28.3986 27.356 28.3519C27.4022 28.3051 27.4387 28.2497 27.4634 28.1889C27.4882 28.128 27.5007 28.0629 27.5002 27.9972C27.4997 27.9315 27.4863 27.8665 27.4607 27.806C27.435 27.7455 27.3977 27.6907 27.3509 27.6446L24.4456 24.7782ZM21.3343 4.54791C21.9189 4.45824 22.5156 4.48662 23.089 4.63137C23.6625 4.77612 24.2011 5.03431 24.6732 5.39068C25.5516 6.04945 26.1628 7.00316 26.3943 8.0765C26.6258 9.14984 26.4622 10.2707 25.9334 11.233C25.1609 9.90662 24.1314 8.74787 22.9051 7.82473C21.6788 6.90159 20.2805 6.23267 18.7922 5.8572C19.473 5.15366 20.3662 4.69358 21.3343 4.54791ZM5.54963 8.38287C5.63668 7.79683 5.83836 7.23368 6.14316 6.72563C6.44796 6.21757 6.8499 5.77457 7.326 5.42193C8.18257 4.75322 9.25766 4.42785 10.3413 4.50936C11.4249 4.59087 12.4392 5.07341 13.1861 5.86273C11.7022 6.2401 10.3083 6.90934 9.08582 7.83137C7.86338 8.75341 6.83689 9.90976 6.06629 11.2329C5.58893 10.3643 5.40756 9.36378 5.54963 8.38287ZM5.49983 17.0001C5.50295 14.2162 6.6102 11.5473 8.57866 9.57889C10.5471 7.61043 13.216 6.50318 15.9998 6.50006C17.3829 6.48513 18.7549 6.74653 20.0356 7.26892C21.3163 7.79131 22.4797 8.56417 23.4577 9.54217C24.4357 10.5202 25.2086 11.6836 25.731 12.9643C26.2534 14.245 26.5148 15.617 26.4998 17.0001C26.4998 19.7848 25.3936 22.4555 23.4245 24.4247C21.4553 26.3938 18.7846 27.5001 15.9998 27.5001C13.2151 27.5001 10.5443 26.3938 8.57521 24.4247C6.60608 22.4555 5.49983 19.7848 5.49983 17.0001Z" fill="black"/>
<path d="M16.4998 16.793V12C16.4998 11.8674 16.4472 11.7402 16.3534 11.6464C16.2596 11.5527 16.1324 11.5 15.9998 11.5C15.8672 11.5 15.74 11.5527 15.6463 11.6464C15.5525 11.7402 15.4998 11.8674 15.4998 12V17C15.4998 17.0657 15.5128 17.1307 15.5379 17.1913C15.563 17.252 15.5999 17.3071 15.6463 17.3535L17.6463 19.3535C17.6926 19.4007 17.7477 19.4383 17.8086 19.464C17.8694 19.4898 17.9348 19.5032 18.0009 19.5035C18.0669 19.5039 18.1324 19.4911 18.1935 19.466C18.2546 19.4408 18.3102 19.4038 18.3569 19.3571C18.4036 19.3104 18.4406 19.2548 18.4658 19.1937C18.4909 19.1326 18.5037 19.0671 18.5033 19.0011C18.503 18.935 18.4896 18.8696 18.4638 18.8088C18.4381 18.7479 18.4005 18.6928 18.3533 18.6465L16.4998 16.793Z" fill="black"/>
</svg>
