<svg width="32" height="32" viewBox="0 0 32 32" fill="none" xmlns="http://www.w3.org/2000/svg">
<path d="M27.6062 11.2061C27.9729 10.2365 28.0855 9.18932 27.9332 8.16402C27.8184 7.38388 27.5508 6.63407 27.1456 5.95756C26.7405 5.28105 26.2059 4.69114 25.5724 4.22164C24.9415 3.74565 24.2216 3.40095 23.4552 3.20789C22.6888 3.01484 21.8915 2.97735 21.1104 3.09764C20.1218 3.25183 19.1875 3.65147 18.3932 4.26001C20.3592 4.63238 22.213 5.4527 23.8107 6.6573C25.4085 7.8619 26.7072 9.41841 27.6062 11.2061Z" fill="black"/>
<path d="M13.6065 4.26001C12.7772 3.63161 11.7984 3.23018 10.7666 3.09529C9.73485 2.96041 8.68575 3.09672 7.72273 3.49079C6.7597 3.88487 5.91599 4.5231 5.27476 5.34257C4.63354 6.16204 4.21693 7.13447 4.066 8.164C3.91367 9.18968 4.02635 10.2373 4.39333 11.2071C5.2922 9.41923 6.59092 7.86251 8.1887 6.65772C9.78648 5.45293 11.6404 4.63247 13.6065 4.26001Z" fill="black"/>
<path d="M27.7056 27.3203L24.4246 24.0537C25.7622 22.4519 26.6155 20.502 26.8843 18.4326C27.1532 16.3631 26.8265 14.2599 25.9426 12.3696C25.0588 10.4792 23.6543 8.87993 21.8939 7.75933C20.1334 6.63872 18.0901 6.04319 16.0032 6.04256C13.9164 6.04192 11.8727 6.63621 10.1116 7.75574C8.35046 8.87527 6.94501 10.4737 6.05998 12.3635C5.17495 14.2534 4.84701 16.3563 5.11461 18.4259C5.38221 20.4955 6.23426 22.4459 7.57087 24.0485L4.29352 27.3222C4.20041 27.4149 4.1265 27.5251 4.07601 27.6464C4.02552 27.7678 3.99946 27.8978 3.9993 28.0293C3.99914 28.1607 4.02489 28.2908 4.07509 28.4123C4.12528 28.5337 4.19892 28.6441 4.29181 28.737C4.3847 28.83 4.495 28.9037 4.61641 28.954C4.73782 29.0042 4.86795 29.0301 4.99935 29.03C5.13076 29.0299 5.26087 29.004 5.38222 28.9536C5.50358 28.9032 5.61381 28.8293 5.7066 28.7363L8.9846 25.462C10.9519 27.1046 13.4331 28.0048 15.996 28.0058C18.5588 28.0068 21.0408 27.1086 23.0094 25.4676L26.2945 28.7382C26.4826 28.9254 26.7373 29.0301 27.0025 29.0295C27.2678 29.0288 27.522 28.9228 27.7091 28.7348C27.8962 28.5468 28.001 28.2921 28.0004 28.0268C27.9997 27.7615 27.8937 27.5074 27.7056 27.3203ZM18.7071 19.7363C18.6143 19.8291 18.504 19.9028 18.3827 19.9531C18.2614 20.0034 18.1314 20.0292 18.0001 20.0292C17.8687 20.0292 17.7387 20.0034 17.6174 19.9531C17.4961 19.9028 17.3859 19.8291 17.293 19.7363L15.293 17.7363C15.2001 17.6435 15.1264 17.5332 15.0762 17.4119C15.0259 17.2906 15 17.1606 15 17.0293V12.0293C15 11.764 15.1054 11.5097 15.2929 11.3222C15.4805 11.1346 15.7348 11.0293 16 11.0293C16.2652 11.0293 16.5196 11.1346 16.7071 11.3222C16.8947 11.5097 17 11.764 17 12.0293V16.6152L18.707 18.3222C18.7999 18.415 18.8736 18.5253 18.9239 18.6466C18.9742 18.7679 19 18.8979 19 19.0292C19 19.1606 18.9742 19.2906 18.9239 19.4119C18.8736 19.5332 18.8 19.6434 18.7071 19.7363Z" fill="black"/>
</svg>
