<svg width="32" height="32" viewBox="0 0 32 32" fill="none" xmlns="http://www.w3.org/2000/svg">
<path d="M24.446 24.778C25.9806 23.127 26.992 21.0585 27.3526 18.8333C27.7131 16.6082 27.4067 14.3262 26.472 12.275C27.3119 11.0886 27.656 9.62141 27.431 8.18532C27.2059 6.74923 26.4296 5.45757 25.267 4.585C24.1147 3.72618 22.671 3.35472 21.2474 3.55078C19.8237 3.74684 18.5342 4.49469 17.657 5.633C17.1086 5.54871 16.5548 5.50426 16 5.5C15.437 5.504 14.875 5.55 14.318 5.637C13.8884 5.06906 13.3505 4.59187 12.7354 4.23302C12.1203 3.87417 11.4401 3.64077 10.7343 3.5463C10.0285 3.45183 9.31091 3.49816 8.62309 3.68262C7.93527 3.86709 7.29082 4.18602 6.72697 4.621C5.56568 5.48641 4.78969 6.77237 4.56537 8.20317C4.34104 9.63398 4.68625 11.0957 5.52697 12.275C4.59292 14.3253 4.28659 16.6062 4.64659 18.8302C5.0066 21.0543 6.01682 23.1221 7.54997 24.773L4.64797 27.645C4.59818 27.6904 4.55807 27.7454 4.53007 27.8067C4.50207 27.868 4.48675 27.9343 4.48503 28.0017C4.48331 28.0691 4.49522 28.1361 4.52006 28.1987C4.5449 28.2614 4.58215 28.3184 4.62956 28.3663C4.67698 28.4142 4.73359 28.452 4.79599 28.4774C4.85838 28.5029 4.92529 28.5155 4.99267 28.5144C5.06005 28.5134 5.12653 28.4987 5.1881 28.4713C5.24968 28.4439 5.30508 28.4043 5.35097 28.355L8.25797 25.479C10.3674 27.4213 13.1298 28.4997 15.9972 28.5005C18.8646 28.5012 21.6275 27.4242 23.738 25.483L26.648 28.355C26.6939 28.4043 26.7493 28.4439 26.8108 28.4713C26.8724 28.4987 26.9389 28.5134 27.0063 28.5144C27.0737 28.5155 27.1406 28.5029 27.203 28.4774C27.2654 28.452 27.322 28.4142 27.3694 28.3663C27.4168 28.3184 27.454 28.2614 27.4789 28.1987C27.5037 28.1361 27.5156 28.0691 27.5139 28.0017C27.5122 27.9343 27.4969 27.868 27.4689 27.8067C27.4409 27.7454 27.4008 27.6904 27.351 27.645L24.446 24.778V24.778ZM21.334 4.548C21.9188 4.45819 22.5157 4.48652 23.0893 4.63131C23.663 4.77611 24.2018 5.03442 24.674 5.391C25.5522 6.04984 26.1633 7.0035 26.3947 8.07675C26.6262 9.14999 26.4626 10.2707 25.934 11.233C25.1614 9.90654 24.1317 8.74773 22.9053 7.82456C21.6788 6.90139 20.2804 6.23245 18.792 5.857C19.4726 5.15322 20.3658 4.69289 21.334 4.547V4.548ZM5.54997 8.383C5.63702 7.79699 5.83866 7.23387 6.14339 6.72581C6.44813 6.21776 6.84997 5.77472 7.32597 5.422C8.18247 4.75332 9.25746 4.42788 10.341 4.50924C11.4246 4.5906 12.4389 5.07291 13.186 5.862C11.702 6.23939 10.3081 6.90862 9.08567 7.83062C7.8632 8.75262 6.83666 9.90892 6.06597 11.232C5.58883 10.3633 5.40769 9.36283 5.54997 8.382V8.383ZM5.49997 17C5.50315 14.2162 6.61042 11.5473 8.57886 9.57889C10.5473 7.61045 13.2162 6.50318 16 6.5C17.383 6.48501 18.7551 6.74636 20.0358 7.26873C21.3165 7.79109 22.48 8.56395 23.458 9.54197C24.436 10.52 25.2089 11.6835 25.7313 12.9642C26.2536 14.2448 26.515 15.617 26.5 17C26.5 19.7848 25.3937 22.4555 23.4246 24.4246C21.4555 26.3938 18.7847 27.5 16 27.5C13.2152 27.5 10.5445 26.3938 8.57535 24.4246C6.60622 22.4555 5.49997 19.7848 5.49997 17Z" fill="#0F0F0F"/>
<path d="M16.5 16.793V12C16.5 11.8674 16.4473 11.7402 16.3536 11.6464C16.2598 11.5527 16.1326 11.5 16 11.5C15.8674 11.5 15.7402 11.5527 15.6464 11.6464C15.5527 11.7402 15.5 11.8674 15.5 12V17C15.4999 17.0657 15.5127 17.1308 15.5378 17.1915C15.5628 17.2523 15.5996 17.3075 15.646 17.354L17.646 19.354C17.6921 19.4018 17.7473 19.4398 17.8083 19.4661C17.8693 19.4923 17.9349 19.506 18.0013 19.5066C18.0677 19.5072 18.1335 19.4946 18.195 19.4694C18.2564 19.4443 18.3123 19.4071 18.3592 19.3602C18.4061 19.3133 18.4433 19.2574 18.4684 19.196C18.4936 19.1345 18.5062 19.0687 18.5056 19.0023C18.505 18.9359 18.4913 18.8703 18.4651 18.8093C18.4388 18.7483 18.4008 18.6931 18.353 18.647L16.5 16.793Z" fill="#0F0F0F"/>
</svg>
