<svg width="32" height="32" viewBox="0 0 32 32" fill="none" xmlns="http://www.w3.org/2000/svg">
<path d="M25.1382 24.7587C26.5809 23.0674 27.5239 21.0075 27.8612 18.8102C28.1986 16.6128 27.9171 14.365 27.0482 12.3187C27.8705 11.0254 28.1748 9.46943 27.9002 7.96159C27.6255 6.45374 26.7922 5.10498 25.5667 4.18463C24.3541 3.27668 22.8407 2.86574 21.3354 3.03569C19.8301 3.20564 18.4465 3.94366 17.4668 5.09912C16.4939 4.96713 15.5076 4.96704 14.5346 5.09887C13.5561 3.93697 12.1672 3.19724 10.657 3.03367C9.14674 2.8701 7.63162 3.29531 6.42703 4.22076C5.20286 5.13395 4.37006 6.47697 4.09627 7.97949C3.82247 9.48201 4.12802 11.0325 4.95139 12.3188C4.08293 14.3641 3.80125 16.6109 4.13792 18.8074C4.4746 21.0038 5.41632 23.0631 6.85755 24.7544L4.29621 27.2891C4.10766 27.4757 4.00096 27.7296 3.99958 27.9949C3.99821 28.2602 4.10227 28.5151 4.28889 28.7037C4.4755 28.8922 4.72937 28.9989 4.99465 29.0003C5.25993 29.0017 5.51489 28.8976 5.70344 28.711L8.27344 26.1677C10.4319 27.9959 13.1687 28.9994 15.9973 29.0001C18.8259 29.0007 21.5631 27.9984 23.7223 26.1712L26.2977 28.712C26.4866 28.8977 26.7415 29.0009 27.0064 28.9989C27.2713 28.9969 27.5246 28.8898 27.7106 28.7011C27.8967 28.5125 28.0002 28.2578 27.9986 27.9929C27.997 27.7279 27.8903 27.4745 27.702 27.2882L25.1382 24.7587ZM21.409 5.04205C21.9281 4.96215 22.4579 4.98728 22.9671 5.11594C23.4763 5.2446 23.9545 5.47417 24.3733 5.79105C24.7992 6.10952 25.1581 6.50882 25.4294 6.96611C25.7008 7.42339 25.8794 7.92969 25.9549 8.45605C26.0368 9.02372 25.9983 9.60227 25.842 10.1541C24.3721 8.04667 22.2667 6.46458 19.8334 5.63903C20.3108 5.33147 20.8477 5.12805 21.409 5.04205ZM6.04426 8.45611C6.12173 7.93467 6.30129 7.43363 6.57268 6.98168C6.84406 6.52973 7.20194 6.13576 7.6258 5.82232C8.26516 5.31937 9.04712 5.03134 9.85997 4.99937C10.6728 4.9674 11.475 5.19313 12.1519 5.64432C9.72448 6.47117 7.62439 8.05126 6.15736 10.1545C6.00088 9.6026 5.96235 9.02391 6.04426 8.45611ZM5.99983 17.0001C6.00286 14.3489 7.0574 11.8071 8.93211 9.93239C10.8068 8.05768 13.3486 7.00314 15.9998 7.00011C17.317 6.98588 18.6238 7.23482 19.8434 7.73232C21.0631 8.22983 22.1712 8.96589 23.1026 9.89733C24.034 10.8288 24.7701 11.9368 25.2676 13.1565C25.7651 14.3762 26.0141 15.6829 25.9998 17.0001C25.9998 19.6523 24.9463 22.1958 23.0709 24.0712C21.1955 25.9465 18.652 27.0001 15.9998 27.0001C13.3477 27.0001 10.8041 25.9465 8.92876 24.0712C7.0534 22.1958 5.99983 19.6523 5.99983 17.0001Z" fill="black"/>
<path d="M16.9998 16.586V12.0001C16.9998 11.7348 16.8945 11.4805 16.7069 11.293C16.5194 11.1054 16.265 11.0001 15.9998 11.0001C15.7346 11.0001 15.4803 11.1054 15.2927 11.293C15.1052 11.4805 14.9998 11.7348 14.9998 12.0001V17.0001C14.9998 17.1314 15.0257 17.2614 15.076 17.3827C15.1262 17.504 15.1999 17.6142 15.2928 17.7071L17.2928 19.7071C17.3855 19.8006 17.4958 19.8748 17.6173 19.9256C17.7388 19.9764 17.8691 20.0027 18.0007 20.003C18.1324 20.0032 18.2628 19.9775 18.3845 19.9272C18.5062 19.877 18.6168 19.8032 18.7099 19.7101C18.803 19.617 18.8768 19.5064 18.9271 19.3847C18.9773 19.263 19.003 19.1326 19.0028 19.0009C19.0025 18.8692 18.9762 18.7389 18.9254 18.6174C18.8746 18.496 18.8004 18.3857 18.7069 18.293L16.9998 16.586Z" fill="black"/>
</svg>
