<svg width="32" height="32" viewBox="0 0 32 32" fill="none" xmlns="http://www.w3.org/2000/svg">
<path d="M27 23H25.392L24.373 13.894C24.2069 12.46 23.6702 11.094 22.8157 9.93039C21.9613 8.76681 20.8185 7.8458 19.5 7.25801V6.00001C19.5012 5.5402 19.4113 5.0847 19.2353 4.65987C19.0594 4.23504 18.801 3.84932 18.475 3.52501C17.8078 2.88932 16.9216 2.53473 16 2.53473C15.0784 2.53473 14.1922 2.88932 13.525 3.52501C13.199 3.84932 12.9406 4.23504 12.7647 4.65987C12.5887 5.0847 12.4988 5.5402 12.5 6.00001V7.25801C11.1813 7.8458 10.0384 8.76695 9.18394 9.93073C8.32948 11.0945 7.79288 12.4608 7.627 13.895L6.61 23H5C4.73478 23 4.48043 23.1054 4.29289 23.2929C4.10536 23.4804 4 23.7348 4 24C4 24.2652 4.10536 24.5196 4.29289 24.7071C4.48043 24.8947 4.73478 25 5 25H27C27.2652 25 27.5196 24.8947 27.7071 24.7071C27.8946 24.5196 28 24.2652 28 24C28 23.7348 27.8946 23.4804 27.7071 23.2929C27.5196 23.1054 27.2652 23 27 23ZM16 30C16.9716 29.9986 17.9217 29.7142 18.7344 29.1816C19.547 28.649 20.1869 27.8913 20.576 27.001H11.424C11.8129 27.8915 12.4528 28.6494 13.2654 29.1822C14.0781 29.715 15.0283 29.9995 16 30.001V30Z" fill="#0F0F0F"/>
</svg>
