<svg width="32" height="32" fill="none" xmlns="http://www.w3.org/2000/svg"><path fill-rule="evenodd" clip-rule="evenodd" d="M27.0005 23.25H25.671l-1.0504-9.3828a8.5598 8.5598 0 00-4.8701-6.7735V6a3.7263 3.7263 0 00-1.0986-2.6514 3.8413 3.8413 0 00-5.3033 0A3.726 3.726 0 0012.25 6v1.0938a8.563 8.563 0 00-4.8706 6.7744L6.3295 23.25H5a.7498.7498 0 00-.5303 1.2803A.7498.7498 0 005 24.75h6.25V25a4.75 4.75 0 004.7502 4.7434A4.7503 4.7503 0 0020.7505 25v-.25h6.25a.7497.7497 0 00.75-.75.7497.7497 0 00-.75-.75zM13.75 6a2.2337 2.2337 0 01.6592-1.5908 2.3048 2.3048 0 013.1821 0A2.2338 2.2338 0 0118.2505 6v.5466a8.6835 8.6835 0 00-4.5005 0V6zm-4.8804 8.0352a7.1874 7.1874 0 0114.2608-.001l1.0317 9.2158H7.8383l1.0313-9.2148zM19.2505 25a3.2502 3.2502 0 01-6.5005 0v-.25h6.5005V25z" fill="#0F0F0F"/><path d="M28.376 7.6316c-.8058-2.4783-3.51-4.0396-6.0591-3.4982a.75.75 0 01-.3116-1.4673c3.2999-.7008 6.7541 1.2935 7.7972 4.5017a.75.75 0 11-1.4265.4638z" fill="#0F0F0F"/><path d="M22.2857 6.6036c1.0312-.3794 1.9852-.2744 2.7142.1465.7291.421 1.2969 1.1946 1.484 2.2773a.75.75 0 001.4781-.2554c-.2562-1.4828-1.0647-2.6585-2.2121-3.321-1.1473-.6623-2.5698-.7747-3.982-.2552a.75.75 0 00.5178 1.4078zM9.6836 4.1334c-2.5492-.5414-5.2534 1.02-6.0592 3.4982a.75.75 0 11-1.4265-.4638C3.241 3.9596 6.6952 1.9653 9.9952 2.6661a.7499.7499 0 01.5778.8894.75.75 0 01-.8894.5779z" fill="#0F0F0F"/><path d="M5.516 9.0274C5.703 7.9447 6.2708 7.171 7 6.7501c.729-.421 1.683-.5259 2.7141-.1465a.75.75 0 00.5179-1.4078c-1.4122-.5195-2.8347-.4071-3.982.2553-1.1474.6624-1.956 1.8381-2.2122 3.3209a.75.75 0 101.4781.2554z" fill="#0F0F0F"/></svg>