<svg xmlns="http://www.w3.org/2000/svg" width="32" height="32" viewBox="0 0 32 32"><path d="M27.0005 23.5H25.4478L24.3726 13.8955C24.207 12.4612 23.6706 11.0947 22.8163 9.93068C21.962 8.76667 20.8192 7.84528 19.5005 7.25726V6C19.5017 5.54022 19.4117 5.08476 19.2356 4.66C19.0596 4.23523 18.8011 3.84959 18.4751 3.52539C17.8084 2.88886 16.922 2.53369 16.0002 2.53369C15.0785 2.53369 14.1921 2.88886 13.5254 3.52539C13.1993 3.84959 12.9408 4.23523 12.7648 4.66C12.5888 5.08476 12.4988 5.54022 12.5 6V7.25714C11.1812 7.84517 10.0384 8.76657 9.18397 9.93059C8.32958 11.0946 7.79312 12.4611 7.62744 13.8955L6.55268 23.5H5C4.86739 23.5 4.74021 23.5527 4.64644 23.6465C4.55268 23.7402 4.5 23.8674 4.5 24C4.5 24.1326 4.55268 24.2598 4.64644 24.3536C4.74021 24.4473 4.86739 24.5 5 24.5H11.5V25C11.5018 26.1924 11.9767 27.3353 12.8205 28.1778C13.6642 29.0203 14.8079 29.4935 16.0002 29.4935C17.1926 29.4935 18.3363 29.0203 19.18 28.1778C20.0238 27.3353 20.4987 26.1924 20.5005 25V24.5H27.0005C27.1331 24.5 27.2603 24.4473 27.354 24.3536C27.4478 24.2598 27.5005 24.1326 27.5005 24C27.5005 23.8674 27.4478 23.7402 27.354 23.6465C27.2603 23.5527 27.1331 23.5 27.0005 23.5ZM13.5 6C13.4993 5.6716 13.5636 5.3463 13.6893 5.04292C13.815 4.73953 13.9996 4.46406 14.2324 4.23242C14.7085 3.77738 15.3417 3.52344 16.0002 3.52344C16.6588 3.52344 17.292 3.77738 17.7681 4.23242C18.0009 4.46406 18.1855 4.73953 18.3112 5.04292C18.4369 5.34631 18.5012 5.6716 18.5005 6V6.87872C16.8719 6.3738 15.1286 6.37376 13.5 6.8786V6ZM8.62159 14.0078C8.84784 12.2106 9.72225 10.5578 11.0807 9.35957C12.4391 8.16135 14.1882 7.50012 15.9996 7.5C17.8109 7.49988 19.5601 8.16087 20.9187 9.35891C22.2773 10.5569 23.1519 12.2097 23.3784 14.0068L24.4412 23.5H7.55927L8.62159 14.0078ZM19.5005 25C19.4989 25.9273 19.1295 26.8161 18.4732 27.4712C17.8169 28.1264 16.9275 28.4943 16.0002 28.4943C15.0729 28.4943 14.1835 28.1264 13.5273 27.4712C12.871 26.8161 12.5016 25.9273 12.5 25V24.5H19.5005V25Z M28.6138 7.55431C27.7684 4.95436 24.9392 3.32092 22.2649 3.8888C21.9948 3.94616 21.7293 3.77368 21.672 3.50356C21.6146 3.23344 21.7871 2.96797 22.0572 2.91061C25.232 2.23645 28.5612 4.15856 29.5648 7.2451C29.6502 7.50771 29.5065 7.78982 29.2439 7.8752C28.9813 7.96059 28.6992 7.81692 28.6138 7.55431Z M22.1994 6.36894C23.2941 5.96626 24.3262 6.07242 25.1249 6.5336C25.9237 6.99477 26.5317 7.83544 26.7303 8.98483C26.7773 9.25694 27.036 9.4394 27.3081 9.39238C27.5802 9.34536 27.7627 9.08665 27.7157 8.81454C27.471 7.39846 26.7025 6.28973 25.6249 5.66757C24.5473 5.04541 23.2029 4.93431 21.8542 5.43043C21.595 5.52576 21.4622 5.81313 21.5576 6.0723C21.6529 6.33146 21.9403 6.46428 22.1994 6.36894Z M9.73552 3.8888C7.06123 3.32092 4.23202 4.95436 3.38667 7.55431C3.30129 7.81692 3.01918 7.96059 2.75657 7.8752C2.49396 7.78982 2.35029 7.50771 2.43568 7.2451C3.43924 4.15856 6.76844 2.23645 9.94324 2.91061C10.2134 2.96797 10.3858 3.23344 10.3285 3.50356C10.2711 3.77368 10.0056 3.94616 9.73552 3.8888Z M5.26958 8.98483C5.46821 7.83544 6.07615 6.99477 6.87493 6.5336C7.6737 6.07242 8.70572 5.96626 9.80043 6.36894C10.0596 6.46428 10.347 6.33146 10.4423 6.0723C10.5376 5.81313 10.4048 5.52576 10.1457 5.43043C8.79694 4.93431 7.45254 5.04541 6.37493 5.66757C5.29732 6.28973 4.5289 7.39846 4.28419 8.81454C4.23717 9.08665 4.41964 9.34536 4.69175 9.39238C4.96386 9.4394 5.22256 9.25694 5.26958 8.98483Z"/></svg>