<svg xmlns="http://www.w3.org/2000/svg" width="32" height="32" viewBox="0 0 32 32"><path d="M27 23.2501H25.67L24.62 13.8671C24.4533 12.4165 23.9183 11.0327 23.0659 9.84721C22.2135 8.66172 21.072 7.71398 19.75 7.0941V6.0001C19.7513 5.50758 19.6549 5.0197 19.4664 4.56467C19.278 4.10963 19.0011 3.69648 18.652 3.3491C17.9375 2.66713 16.9877 2.28662 16 2.28662C15.0123 2.28662 14.0625 2.66713 13.348 3.3491C12.9989 3.69648 12.722 4.10963 12.5336 4.56467C12.3451 5.0197 12.2487 5.50758 12.25 6.0001V7.0941C10.928 7.7143 9.78661 8.66226 8.93423 9.84789C8.08185 11.0335 7.54682 12.4174 7.38 13.8681L6.33 23.2501H5C4.80109 23.2501 4.61032 23.3291 4.46967 23.4698C4.32902 23.6104 4.25 23.8012 4.25 24.0001C4.25 24.199 4.32902 24.3898 4.46967 24.5304C4.61032 24.6711 4.80109 24.7501 5 24.7501H11.25V25.0001C11.25 26.2599 11.7504 27.4681 12.6412 28.3589C13.532 29.2497 14.7402 29.7501 16 29.7501C17.2598 29.7501 18.468 29.2497 19.3588 28.3589C20.2496 27.4681 20.75 26.2599 20.75 25.0001V24.7501H27C27.1989 24.7501 27.3897 24.6711 27.5303 24.5304C27.671 24.3898 27.75 24.199 27.75 24.0001C27.75 23.8012 27.671 23.6104 27.5303 23.4698C27.3897 23.3291 27.1989 23.2501 27 23.2501ZM13.75 6.0001C13.7494 5.70459 13.8074 5.4119 13.9207 5.13897C14.034 4.86604 14.2003 4.6183 14.41 4.4101C14.8387 4.00142 15.4082 3.77343 16.0005 3.77343C16.5928 3.77343 17.1623 4.00142 17.591 4.4101C17.8008 4.61824 17.9672 4.86596 18.0805 5.13891C18.1938 5.41185 18.2517 5.70458 18.251 6.0001V6.5471C16.7767 6.15148 15.2243 6.15148 13.75 6.5471V6.0001ZM8.87 14.0351C9.08992 12.2993 9.93549 10.7034 11.2481 9.54655C12.5608 8.38972 14.2503 7.75147 16 7.75147C17.7497 7.75147 19.4392 8.38972 20.7519 9.54655C22.0645 10.7034 22.9101 12.2993 23.13 14.0351L24.162 23.2501H7.838L8.87 14.0351ZM19.25 25.0001C19.25 25.8621 18.9076 26.6887 18.2981 27.2982C17.6886 27.9077 16.862 28.2501 16 28.2501C15.138 28.2501 14.3114 27.9077 13.7019 27.2982C13.0924 26.6887 12.75 25.8621 12.75 25.0001V24.7501H19.25V25.0001Z"/></svg>