<svg width="32" height="32" viewBox="0 0 32 32" fill="none" xmlns="http://www.w3.org/2000/svg">
<path d="M29.354 28.646L25.206 24.5H27C27.1326 24.5 27.2598 24.4473 27.3535 24.3536C27.4473 24.2598 27.5 24.1326 27.5 24C27.5 23.8674 27.4473 23.7402 27.3535 23.6465C27.2598 23.5527 27.1326 23.5 27 23.5H25.448L24.372 13.896C24.2066 12.4615 23.6704 11.0948 22.816 9.93068C21.9617 8.76651 20.8188 7.84502 19.5 7.25701V6.00001C19.5014 5.54017 19.4115 5.08462 19.2355 4.65977C19.0596 4.23492 18.8011 3.84921 18.475 3.52501C17.8082 2.88841 16.9218 2.5332 16 2.5332C15.0781 2.5332 14.1917 2.88841 13.525 3.52501C13.1989 3.84925 12.9404 4.23496 12.7645 4.6598C12.5885 5.08464 12.4986 5.54018 12.5 6.00001V7.25701C11.5028 7.70806 10.6028 8.3486 9.84997 9.14301L3.35297 2.64701C3.25867 2.55593 3.13237 2.50553 3.00127 2.50667C2.87017 2.50781 2.74477 2.5604 2.65206 2.6531C2.55936 2.7458 2.50677 2.87121 2.50563 3.00231C2.50449 3.13341 2.55489 3.25971 2.64597 3.35401L28.646 29.354C28.7403 29.4451 28.8666 29.4955 28.9977 29.4943C29.1288 29.4932 29.2542 29.4406 29.3469 29.3479C29.4396 29.2552 29.4922 29.1298 29.4933 28.9987C29.4944 28.8676 29.4441 28.7413 29.353 28.647L29.354 28.646ZM13.5 6.00001C13.4991 5.67156 13.5633 5.34619 13.689 5.04273C13.8146 4.73926 13.9992 4.46371 14.232 4.23201C14.7081 3.77698 15.3414 3.52305 16 3.52305C16.6586 3.52305 17.2918 3.77698 17.768 4.23201C18.0007 4.46377 18.1852 4.73934 18.3108 5.04279C18.4365 5.34624 18.5007 5.67158 18.5 6.00001V6.87901C16.8715 6.37425 15.1284 6.37425 13.5 6.87901V6.00001ZM10.56 9.85401C11.5262 8.823 12.7659 8.08824 14.1341 7.73558C15.5024 7.38292 16.9428 7.42692 18.287 7.86244C19.6312 8.29796 20.8237 9.10701 21.7252 10.1951C22.6267 11.2831 23.2 12.6053 23.378 14.007L24.441 23.5H24.207L10.561 9.85401H10.56ZM7.55997 23.5L8.62097 14.008C8.72097 13.134 8.97797 12.285 9.38197 11.504L8.64397 10.766C8.09711 11.73 7.75116 12.7947 7.62697 13.896L6.55297 23.5H4.99997C4.86736 23.5 4.74019 23.5527 4.64642 23.6465C4.55265 23.7402 4.49997 23.8674 4.49997 24C4.49997 24.1326 4.55265 24.2598 4.64642 24.3536C4.74019 24.4473 4.86736 24.5 4.99997 24.5H11.5V25C11.5 26.1935 11.9741 27.3381 12.818 28.182C13.6619 29.0259 14.8065 29.5 16 29.5C17.1934 29.5 18.338 29.0259 19.182 28.182C20.0259 27.3381 20.5 26.1935 20.5 25V24.5H22.378L21.378 23.5H7.55997ZM19.5 25C19.5 25.9283 19.1312 26.8185 18.4748 27.4749C17.8185 28.1313 16.9282 28.5 16 28.5C15.0717 28.5 14.1815 28.1313 13.5251 27.4749C12.8687 26.8185 12.5 25.9283 12.5 25V24.5H19.5V25Z" fill="#0F0F0F"/>
</svg>
