<svg width="32" height="32" viewBox="0 0 32 32" fill="none" xmlns="http://www.w3.org/2000/svg">
<path d="M27.0004 23.0001H25.8951L24.8695 13.8389C24.7015 12.3721 24.1676 10.9711 23.3168 9.76446C22.466 8.55786 21.3256 7.58443 20.0004 6.93359V5.96325C20.0018 5.43778 19.899 4.91724 19.6978 4.43178C19.4967 3.94633 19.2012 3.5056 18.8285 3.13513C18.0667 2.40742 17.0537 2.00134 16.0002 2.00134C14.9466 2.00134 13.9336 2.40742 13.1718 3.13513C12.7991 3.5056 12.5036 3.94633 12.3025 4.43178C12.1013 4.91724 11.9985 5.43778 11.9999 5.96325V6.93353C10.6747 7.58461 9.53429 8.55825 8.6835 9.76501C7.83271 10.9718 7.29878 12.373 7.13076 13.8399L6.10568 23.0001H4.9999C4.73468 23.0001 4.48033 23.1054 4.29279 23.293C4.10526 23.4805 3.9999 23.7348 3.9999 24.0001C3.9999 24.2653 4.10526 24.5196 4.29279 24.7072C4.48033 24.8947 4.73468 25.0001 4.9999 25.0001H10.9999C11.0018 26.325 11.5294 27.595 12.4669 28.5312C13.4045 29.4674 14.6752 29.9932 16.0001 29.9932C17.3251 29.9932 18.5958 29.4674 19.5334 28.5312C20.4709 27.595 20.9985 26.325 21.0004 25.0001H27.0004C27.2656 25.0001 27.52 24.8947 27.7075 24.7072C27.895 24.5196 28.0004 24.2653 28.0004 24.0001C28.0004 23.7348 27.895 23.4805 27.7075 23.293C27.52 23.1054 27.2656 23.0001 27.0004 23.0001ZM13.9999 5.98205C13.9992 5.71932 14.0506 5.45905 14.1512 5.21632C14.2518 4.9736 14.3995 4.75324 14.5858 4.568C14.9667 4.20393 15.4733 4.00074 16.0001 4.00074C16.527 4.00074 17.0336 4.20393 17.4145 4.568C17.6008 4.75324 17.7485 4.9736 17.8491 5.21633C17.9497 5.45905 18.0011 5.71932 18.0004 5.98206V6.23169C16.6848 5.92289 15.3155 5.92287 13.9999 6.23163V5.98205ZM9.11807 14.0635C9.33064 12.3885 10.1468 10.8486 11.4136 9.73233C12.6804 8.61607 14.3108 8.00015 15.9992 8.00003C17.6876 7.99991 19.3181 8.61559 20.5851 9.73166C21.852 10.8477 22.6684 12.3876 22.8813 14.0625L23.8819 23H8.118L9.11807 14.0635ZM15.9999 28.0001C15.2045 27.9992 14.442 27.6828 13.8795 27.1204C13.3171 26.558 13.0008 25.7954 12.9999 25.0001H19.0004C18.9994 25.7955 18.683 26.5581 18.1205 27.1205C17.558 27.6829 16.7953 27.9992 15.9999 28.0001Z" fill="black"/>
</svg>
