<svg width="32" height="32" viewBox="0 0 32 32" fill="none" xmlns="http://www.w3.org/2000/svg">
<path d="M29.707 28.293L26.414 25H27C27.2652 25 27.5196 24.8946 27.7071 24.7071C27.8947 24.5196 28 24.2652 28 24C28 23.7348 27.8947 23.4804 27.7071 23.2929C27.5196 23.1053 27.2652 23 27 23H25.895L24.869 13.839C24.701 12.3723 24.167 10.9713 23.3163 9.76473C22.4655 8.55819 21.3252 7.5848 20 6.93399V5.96399C20.0015 5.43836 19.8986 4.91767 19.6974 4.43207C19.4963 3.94646 19.2008 3.50559 18.828 3.13499C18.0662 2.40755 17.0534 2.00165 16 2.00165C14.9467 2.00165 13.9338 2.40755 13.172 3.13499C12.7993 3.50538 12.5037 3.94606 12.3026 4.43151C12.1014 4.91696 11.9985 5.43751 12 5.96299V6.93299C11.215 7.32781 10.4936 7.83816 9.86002 8.44699L3.70802 2.29299C3.51942 2.11083 3.26681 2.01003 3.00462 2.01231C2.74242 2.01459 2.49161 2.11976 2.3062 2.30517C2.12079 2.49058 2.01562 2.74139 2.01334 3.00358C2.01107 3.26578 2.11186 3.51838 2.29402 3.70699L28.294 29.707C28.4826 29.8891 28.7352 29.9899 28.9974 29.9877C29.2596 29.9854 29.5104 29.8802 29.6958 29.6948C29.8812 29.5094 29.9864 29.2586 29.9887 28.9964C29.991 28.7342 29.8902 28.4816 29.708 28.293H29.707ZM14 5.98299C13.9992 5.72008 14.0505 5.45963 14.1511 5.21673C14.2517 4.97383 14.3995 4.75332 14.586 4.56799C14.9669 4.20415 15.4733 4.00113 16 4.00113C16.5267 4.00113 17.0332 4.20415 17.414 4.56799C17.6004 4.7532 17.7481 4.97355 17.8487 5.21626C17.9493 5.45898 18.0007 5.71925 18 5.98199V6.23199C16.6846 5.92328 15.3155 5.92328 14 6.23199V5.98199V5.98299ZM16 7.99999C17.6919 7.98733 19.3291 8.59873 20.5985 9.71726C21.868 10.8358 22.6806 12.383 22.881 14.063L23.815 22.401L11.27 9.85699C12.5551 8.66201 14.2452 7.99845 16 7.99999ZM8.11802 23L9.11802 14.063C9.14102 13.859 9.17502 13.657 9.21602 13.459L7.60602 11.849C7.37031 12.4914 7.21088 13.1593 7.13102 13.839L6.10602 23H5.00002C4.7348 23 4.48045 23.1053 4.29291 23.2929C4.10537 23.4804 4.00002 23.7348 4.00002 24C4.00002 24.2652 4.10537 24.5196 4.29291 24.7071C4.48045 24.8946 4.7348 25 5.00002 25H11C11.0059 26.3009 11.5194 27.5481 12.4311 28.476C13.3429 29.404 14.5808 29.9393 15.8814 29.9681C17.182 29.9969 18.4425 29.5169 19.3944 28.6302C20.3463 27.7436 20.9145 26.5203 20.978 25.221L18.757 23.001H8.11702L8.11802 23ZM16 28C15.2046 27.9992 14.442 27.6829 13.8796 27.1204C13.3171 26.558 13.0008 25.7954 13 25H19C18.999 25.7953 18.6825 26.5578 18.1202 27.1201C17.5578 27.6825 16.7953 27.9989 16 28V28Z" fill="#0F0F0F"/>
</svg>
