<svg width="32" height="32" fill="none" xmlns="http://www.w3.org/2000/svg"><path fill-rule="evenodd" clip-rule="evenodd" d="M27.0005 22.9999h-1.1053l-1.0256-9.1611a8.81 8.81 0 00-4.8691-6.9053V5.963a3.9722 3.9722 0 00-1.1719-2.828 4.0946 4.0946 0 00-5.6567 0A3.9713 3.9713 0 0012 5.963v.9703a8.8124 8.8124 0 00-4.8691 6.9064l-1.0251 9.1601H5a1.0001 1.0001 0 00-.7071 1.7071.9997.9997 0 00.7071.2929h6a5.0004 5.0004 0 005.0002 4.9932 5.0004 5.0004 0 005.0003-4.9932h6a.9997.9997 0 001-1 1.0003 1.0003 0 00-1-1zM14 5.9819a1.986 1.986 0 01.5859-1.414 2.047 2.047 0 012.8287 0 1.9871 1.9871 0 01.5859 1.414v.2497a8.754 8.754 0 00-4.0005 0v-.2497zm-4.8818 8.0815a6.9368 6.9368 0 0113.7632-.001l1.0006 8.9375H8.1181l1-8.9365zM16 27.9999a3.0032 3.0032 0 01-3-3h6.0005a3.0036 3.0036 0 01-3.0005 3z" fill="#0F0F0F"/><path d="M28.376 7.6316c-.8058-2.4783-3.51-4.0396-6.0591-3.4982a.75.75 0 01-.3116-1.4673c3.2999-.7008 6.7541 1.2935 7.7972 4.5017a.75.75 0 11-1.4265.4638z" fill="#0F0F0F"/><path d="M22.2857 6.6036c1.0312-.3794 1.9852-.2744 2.7142.1465.7291.421 1.2969 1.1946 1.484 2.2773a.75.75 0 001.4781-.2554c-.2562-1.4828-1.0647-2.6585-2.2121-3.321-1.1473-.6623-2.5698-.7747-3.982-.2552a.75.75 0 00.5178 1.4078zM9.6836 4.1334c-2.5492-.5414-5.2534 1.02-6.0592 3.4982a.75.75 0 11-1.4265-.4638C3.241 3.9596 6.6952 1.9653 9.9952 2.6661a.7499.7499 0 01.5778.8894.75.75 0 01-.8894.5779z" fill="#0F0F0F"/><path d="M5.516 9.0274C5.703 7.9447 6.2708 7.171 7 6.7501c.729-.421 1.683-.5259 2.7141-.1465a.75.75 0 00.5179-1.4078c-1.4122-.5195-2.8347-.4071-3.982.2553-1.1474.6624-1.956 1.8381-2.2122 3.3209a.75.75 0 101.4781.2554z" fill="#0F0F0F"/></svg>