<svg width="32" height="32" viewBox="0 0 32 32" fill="none" xmlns="http://www.w3.org/2000/svg">
<path d="M27 23H25.895L24.87 13.84C24.702 12.373 24.168 10.9717 23.317 9.76498C22.4661 8.55825 21.3255 7.58476 20 6.93399V5.96399C20.0016 5.43835 19.8988 4.91762 19.6976 4.432C19.4964 3.94639 19.2008 3.50553 18.828 3.13499C18.0662 2.40755 17.0533 2.00165 16 2.00165C14.9467 2.00165 13.9338 2.40755 13.172 3.13499C12.7992 3.50538 12.5037 3.94606 12.3025 4.43151C12.1014 4.91696 11.9985 5.43751 12 5.96299V6.93299C10.6745 7.584 9.53391 8.55769 8.68296 9.76457C7.832 10.9715 7.29799 12.3729 7.13 13.84L6.107 23H5C4.73478 23 4.48043 23.1053 4.29289 23.2929C4.10536 23.4804 4 23.7348 4 24C4 24.2652 4.10536 24.5196 4.29289 24.7071C4.48043 24.8946 4.73478 25 5 25H11C11 26.3261 11.5268 27.5978 12.4645 28.5355C13.4021 29.4732 14.6739 30 16 30C17.3261 30 18.5979 29.4732 19.5355 28.5355C20.4732 27.5978 21 26.3261 21 25H27C27.2652 25 27.5196 24.8946 27.7071 24.7071C27.8946 24.5196 28 24.2652 28 24C28 23.7348 27.8946 23.4804 27.7071 23.2929C27.5196 23.1053 27.2652 23 27 23ZM14 5.98199C13.9993 5.71925 14.0507 5.45898 14.1513 5.21626C14.2519 4.97355 14.3996 4.7532 14.586 4.56799C14.9669 4.20386 15.4736 4.00065 16.0005 4.00065C16.5274 4.00065 17.0341 4.20386 17.415 4.56799C17.6011 4.75331 17.7487 4.9737 17.8491 5.21641C17.9495 5.45912 18.0008 5.71933 18 5.98199V6.23199C16.6845 5.92328 15.3155 5.92328 14 6.23199V5.98199ZM9.118 14.063C9.33111 12.3884 10.1476 10.8489 11.4144 9.73311C12.6812 8.61731 14.3114 8.00173 15.9995 8.00173C17.6876 8.00173 19.3178 8.61731 20.5846 9.73311C21.8514 10.8489 22.6679 12.3884 22.881 14.063L23.881 23H8.119L9.119 14.063H9.118ZM16 28C15.2047 27.9989 14.4422 27.6825 13.8798 27.1201C13.3175 26.5578 13.0011 25.7953 13 25H19C18.9989 25.7953 18.6825 26.5578 18.1202 27.1201C17.5578 27.6825 16.7953 27.9989 16 28V28Z" fill="#0F0F0F"/>
</svg>
