<svg width="32" height="32" fill="none" xmlns="http://www.w3.org/2000/svg"><path d="M9.6836 4.1333c-2.5492-.5413-5.2534 1.02-6.0592 3.4983a.75.75 0 01-1.4265-.4638C3.241 3.9596 6.6952 1.9653 9.9952 2.6661a.7499.7499 0 01.5778.8894.75.75 0 01-.8894.5778zM28.376 7.6316c-.8058-2.4783-3.51-4.0396-6.0591-3.4982a.7501.7501 0 01-.3116-1.4673c3.2999-.7008 6.7541 1.2935 7.7972 4.5017a.75.75 0 11-1.4265.4638zM27 23.0004h-1.6085l-1.0184-9.1065A8.3132 8.3132 0 0019.5 7.2576V6.0004a3.4776 3.4776 0 00-1.0254-2.4756 3.588 3.588 0 00-4.9492 0A3.478 3.478 0 0012.5 6.0004v1.2571a8.312 8.312 0 00-4.8726 6.6374l-1.0188 9.1055H5a.9997.9997 0 00-1 1 1.0001 1.0001 0 001 1h22a1.0001 1.0001 0 000-2zM16 30.0004a5.0037 5.0037 0 004.5756-2.999h-9.1512A5.0028 5.0028 0 0016 30.0004z" fill="#0F0F0F"/><path d="M22.2857 6.6036c1.0312-.3794 1.9852-.2744 2.7142.1465.7291.421 1.2969 1.1946 1.484 2.2773a.75.75 0 001.4781-.2554c-.2562-1.4828-1.0647-2.6585-2.2121-3.321-1.1473-.6623-2.5698-.7747-3.982-.2552a.75.75 0 00.5178 1.4078zM5.516 9.0274C5.703 7.9447 6.2708 7.171 7 6.75c.729-.421 1.683-.5259 2.7141-.1465a.75.75 0 00.5179-1.4078c-1.4122-.5195-2.8347-.4071-3.982.2553-1.1474.6624-1.956 1.8381-2.2122 3.3209a.75.75 0 101.4781.2554z" fill="#0F0F0F"/></svg>