<svg xmlns="http://www.w3.org/2000/svg" width="32" height="32" viewBox="0 0 32 32"><path d="M29.7069 28.293L26.4139 25H26.9999C27.2651 25 27.5195 24.8947 27.707 24.7072C27.8945 24.5196 27.9999 24.2653 27.9999 24C27.9999 23.7348 27.8945 23.4805 27.707 23.2929C27.5195 23.1054 27.2651 23 26.9999 23H25.8949L24.8689 13.839C24.7009 12.3723 24.1669 10.9713 23.3161 9.76479C22.4654 8.55825 21.325 7.58486 19.9999 6.93405V5.96405C20.0013 5.43842 19.8985 4.91773 19.6973 4.43213C19.4961 3.94653 19.2006 3.50566 18.8279 3.13505C18.0661 2.40761 17.0532 2.00171 15.9999 2.00171C14.9466 2.00171 13.9337 2.40761 13.1719 3.13505C12.7991 3.50544 12.5036 3.94613 12.3024 4.43157C12.1012 4.91702 11.9984 5.43757 11.9999 5.96305V6.93305C11.2149 7.32787 10.4935 7.83822 9.8599 8.44705L3.7079 2.29305C3.51929 2.11089 3.26669 2.01009 3.00449 2.01237C2.7423 2.01465 2.49148 2.11982 2.30608 2.30523C2.12067 2.49064 2.0155 2.74145 2.01322 3.00365C2.01094 3.26584 2.11174 3.51845 2.2939 3.70705L28.2939 29.707C28.4825 29.8892 28.7351 29.99 28.9973 29.9877C29.2595 29.9854 29.5103 29.8803 29.6957 29.6949C29.8811 29.5095 29.9863 29.2586 29.9886 28.9964C29.9908 28.7343 29.8901 28.4816 29.7079 28.293H29.7069ZM13.9999 5.98305C13.9991 5.72014 14.0504 5.45969 14.151 5.21679C14.2516 4.97389 14.3994 4.75338 14.5859 4.56805C14.9667 4.20421 15.4732 4.00119 15.9999 4.00119C16.5266 4.00119 17.033 4.20421 17.4139 4.56805C17.6002 4.75326 17.748 4.97361 17.8486 5.21633C17.9492 5.45904 18.0006 5.71931 17.9999 5.98205V6.23205C16.6844 5.92334 15.3154 5.92334 13.9999 6.23205V5.98205V5.98305ZM15.9999 8.00005C17.6918 7.98739 19.3289 8.59879 20.5984 9.71732C21.8678 10.8359 22.6805 12.383 22.8809 14.063L23.8149 22.401L11.2699 9.85705C12.5549 8.66207 14.2451 7.99851 15.9999 8.00005ZM8.1179 23L9.1179 14.063C9.1409 13.859 9.1749 13.657 9.2159 13.459L7.6059 11.849C7.37018 12.4915 7.21076 13.1594 7.1309 13.839L6.1059 23H4.9999C4.73468 23 4.48033 23.1054 4.29279 23.2929C4.10525 23.4805 3.9999 23.7348 3.9999 24C3.9999 24.2653 4.10525 24.5196 4.29279 24.7072C4.48033 24.8947 4.73468 25 4.9999 25H10.9999C11.0058 26.3009 11.5193 27.5481 12.431 28.4761C13.3428 29.404 14.5807 29.9394 15.8813 29.9682C17.1819 29.997 18.4423 29.517 19.3943 28.6303C20.3462 27.7436 20.9144 26.5204 20.9779 25.221L18.7569 23.001H8.1169L8.1179 23ZM15.9999 28C15.2045 27.9993 14.4419 27.6829 13.8795 27.1205C13.317 26.5581 13.0007 25.7955 12.9999 25H18.9999C18.9988 25.7954 18.6824 26.5578 18.12 27.1202C17.5577 27.6826 16.7952 27.999 15.9999 28Z"/></svg>