<svg xmlns="http://www.w3.org/2000/svg" width="32" height="32" viewBox="0 0 32 32"><path d="M28.0169 12.25H13.9729C13.774 12.25 13.5833 12.329 13.4426 12.4697C13.302 12.6103 13.2229 12.8011 13.2229 13C13.2229 13.1989 13.302 13.3897 13.4426 13.5303C13.5833 13.671 13.774 13.75 13.9729 13.75H28.0169C28.2159 13.75 28.4066 13.671 28.5473 13.5303C28.6879 13.3897 28.7669 13.1989 28.7669 13C28.7669 12.8011 28.6879 12.6103 28.5473 12.4697C28.4066 12.329 28.2159 12.25 28.0169 12.25ZM4.00394 7.75H28.0169C28.2159 7.75 28.4066 7.67098 28.5473 7.53033C28.6879 7.38968 28.7669 7.19891 28.7669 7C28.7669 6.80109 28.6879 6.61032 28.5473 6.46967C28.4066 6.32902 28.2159 6.25 28.0169 6.25H4.00394C3.80503 6.25 3.61426 6.32902 3.47361 6.46967C3.33296 6.61032 3.25394 6.80109 3.25394 7C3.25394 7.19891 3.33296 7.38968 3.47361 7.53033C3.61426 7.67098 3.80503 7.75 4.00394 7.75ZM28.0169 18.25H13.9729C13.774 18.25 13.5833 18.329 13.4426 18.4697C13.302 18.6103 13.2229 18.8011 13.2229 19C13.2229 19.1989 13.302 19.3897 13.4426 19.5303C13.5833 19.671 13.774 19.75 13.9729 19.75H28.0169C28.2159 19.75 28.4066 19.671 28.5473 19.5303C28.6879 19.3897 28.7669 19.1989 28.7669 19C28.7669 18.8011 28.6879 18.6103 28.5473 18.4697C28.4066 18.329 28.2159 18.25 28.0169 18.25ZM28.0169 24.25H4.00394C3.80503 24.25 3.61426 24.329 3.47361 24.4697C3.33296 24.6103 3.25394 24.8011 3.25394 25C3.25394 25.1989 3.33296 25.3897 3.47361 25.5303C3.61426 25.671 3.80503 25.75 4.00394 25.75H28.0169C28.2159 25.75 28.4066 25.671 28.5473 25.5303C28.6879 25.3897 28.7669 25.1989 28.7669 25C28.7669 24.8011 28.6879 24.6103 28.5473 24.4697C28.4066 24.329 28.2159 24.25 28.0169 24.25ZM3.46994 21.53C3.61056 21.6705 3.80119 21.7493 3.99994 21.7493C4.19869 21.7493 4.38931 21.6705 4.52994 21.53L9.52994 16.53C9.67039 16.3894 9.74928 16.1988 9.74928 16C9.74928 15.8012 9.67039 15.6106 9.52994 15.47L4.52994 10.47C4.44271 10.3828 4.33536 10.3185 4.21736 10.2826C4.09937 10.2468 3.97436 10.2405 3.85337 10.2644C3.73239 10.2884 3.61916 10.3417 3.52368 10.4198C3.42821 10.4978 3.35343 10.5982 3.30594 10.712C3.24908 10.8492 3.23422 11.0001 3.26324 11.1457C3.29226 11.2914 3.36385 11.4251 3.46894 11.53L7.93994 16L3.46994 20.47C3.32949 20.6106 3.2506 20.8012 3.2506 21C3.2506 21.1988 3.32949 21.3894 3.46994 21.53Z"/></svg>