<svg width="32" height="32" viewBox="0 0 32 32" fill="none" xmlns="http://www.w3.org/2000/svg">
<path d="M28.0174 12.4998H13.9725C13.8399 12.4998 13.7127 12.5525 13.6189 12.6462C13.5251 12.74 13.4725 12.8672 13.4725 12.9998C13.4725 13.1324 13.5251 13.2596 13.6189 13.3534C13.7127 13.4471 13.8399 13.4998 13.9725 13.4998H28.0174C28.15 13.4998 28.2772 13.4471 28.3709 13.3534C28.4647 13.2596 28.5174 13.1324 28.5174 12.9998C28.5174 12.8672 28.4647 12.74 28.3709 12.6462C28.2772 12.5525 28.15 12.4998 28.0174 12.4998Z" fill="black"/>
<path d="M4.00371 7.4998H28.0174C28.15 7.4998 28.2772 7.44712 28.3709 7.35335C28.4647 7.25959 28.5174 7.13241 28.5174 6.9998C28.5174 6.86719 28.4647 6.74001 28.3709 6.64625C28.2772 6.55248 28.15 6.4998 28.0174 6.4998H4.00371C3.8711 6.4998 3.74392 6.55248 3.65016 6.64625C3.55639 6.74001 3.50371 6.86719 3.50371 6.9998C3.50371 7.13241 3.55639 7.25959 3.65016 7.35335C3.74392 7.44712 3.8711 7.4998 4.00371 7.4998Z" fill="black"/>
<path d="M28.0174 18.4998H13.9725C13.8399 18.4998 13.7127 18.5525 13.6189 18.6462C13.5251 18.74 13.4725 18.8672 13.4725 18.9998C13.4725 19.1324 13.5251 19.2596 13.6189 19.3534C13.7127 19.4471 13.8399 19.4998 13.9725 19.4998H28.0174C28.15 19.4998 28.2772 19.4471 28.3709 19.3534C28.4647 19.2596 28.5174 19.1324 28.5174 18.9998C28.5174 18.8672 28.4647 18.74 28.3709 18.6462C28.2772 18.5525 28.15 18.4998 28.0174 18.4998Z" fill="black"/>
<path d="M28.0174 24.4998H4.00371C3.8711 24.4998 3.74392 24.5525 3.65016 24.6462C3.55639 24.74 3.50371 24.8672 3.50371 24.9998C3.50371 25.1324 3.55639 25.2596 3.65016 25.3534C3.74392 25.4471 3.8711 25.4998 4.00371 25.4998H28.0174C28.15 25.4998 28.2772 25.4471 28.3709 25.3534C28.4647 25.2596 28.5174 25.1324 28.5174 24.9998C28.5174 24.8672 28.4647 24.74 28.3709 24.6462C28.2772 24.5525 28.15 24.4998 28.0174 24.4998Z" fill="black"/>
<path d="M8.64629 21.3533C8.69254 21.4005 8.74769 21.4381 8.80854 21.4638C8.8694 21.4896 8.93476 21.503 9.00084 21.5033C9.06691 21.5037 9.1324 21.4909 9.19352 21.4658C9.25463 21.4406 9.31015 21.4036 9.35688 21.3569C9.4036 21.3102 9.4406 21.2547 9.46574 21.1935C9.49087 21.1324 9.50364 21.0669 9.5033 21.0009C9.50297 20.9348 9.48954 20.8694 9.46379 20.8086C9.43804 20.7477 9.40048 20.6926 9.35329 20.6463L4.70684 15.9998L9.35332 11.3533C9.44551 11.2592 9.49686 11.1326 9.49619 11.0009C9.49553 10.8691 9.44291 10.743 9.34977 10.6499C9.25663 10.5567 9.13049 10.5041 8.99877 10.5034C8.86706 10.5028 8.7404 10.5541 8.64632 10.6463L3.64632 15.6463C3.59989 15.6927 3.56305 15.7478 3.53792 15.8085C3.51279 15.8692 3.49985 15.9342 3.49985 15.9998C3.49985 16.0655 3.51279 16.1305 3.53792 16.1911C3.56305 16.2518 3.59989 16.3069 3.64632 16.3533L8.64629 21.3533Z" fill="black"/>
</svg>
