<svg width="32" height="32" viewBox="0 0 32 32" fill="none" xmlns="http://www.w3.org/2000/svg">
<path d="M28.0174 12.2498H13.9725C13.7735 12.2498 13.5828 12.3288 13.4421 12.4695C13.3015 12.6101 13.2225 12.8009 13.2225 12.9998C13.2225 13.1987 13.3015 13.3895 13.4421 13.5301C13.5828 13.6708 13.7735 13.7498 13.9725 13.7498H28.0174C28.2163 13.7498 28.4071 13.6708 28.5477 13.5301C28.6884 13.3895 28.7674 13.1987 28.7674 12.9998C28.7674 12.8009 28.6884 12.6101 28.5477 12.4695C28.4071 12.3288 28.2163 12.2498 28.0174 12.2498Z" fill="black"/>
<path d="M4.00371 7.7498H28.0174C28.2163 7.7498 28.4071 7.67078 28.5477 7.53013C28.6884 7.38948 28.7674 7.19871 28.7674 6.9998C28.7674 6.80089 28.6884 6.61012 28.5477 6.46947C28.4071 6.32882 28.2163 6.2498 28.0174 6.2498H4.00371C3.8048 6.2498 3.61403 6.32882 3.47338 6.46947C3.33273 6.61012 3.25371 6.80089 3.25371 6.9998C3.25371 7.19871 3.33273 7.38948 3.47338 7.53013C3.61403 7.67078 3.8048 7.7498 4.00371 7.7498Z" fill="black"/>
<path d="M28.0174 18.2498H13.9725C13.7735 18.2498 13.5828 18.3288 13.4421 18.4695C13.3015 18.6101 13.2225 18.8009 13.2225 18.9998C13.2225 19.1987 13.3015 19.3895 13.4421 19.5301C13.5828 19.6708 13.7735 19.7498 13.9725 19.7498H28.0174C28.2163 19.7498 28.4071 19.6708 28.5477 19.5301C28.6884 19.3895 28.7674 19.1987 28.7674 18.9998C28.7674 18.8009 28.6884 18.6101 28.5477 18.4695C28.4071 18.3288 28.2163 18.2498 28.0174 18.2498Z" fill="black"/>
<path d="M28.0174 24.2498H4.00371C3.8048 24.2498 3.61403 24.3288 3.47338 24.4695C3.33273 24.6101 3.25371 24.8009 3.25371 24.9998C3.25371 25.1987 3.33273 25.3895 3.47338 25.5301C3.61403 25.6708 3.8048 25.7498 4.00371 25.7498H28.0174C28.2163 25.7498 28.4071 25.6708 28.5477 25.5301C28.6884 25.3895 28.7674 25.1987 28.7674 24.9998C28.7674 24.8009 28.6884 24.6101 28.5477 24.4695C28.4071 24.3288 28.2163 24.2498 28.0174 24.2498Z" fill="black"/>
<path d="M8.46953 21.5301C8.61017 21.6707 8.80091 21.7497 8.99981 21.7497C9.1987 21.7497 9.38944 21.6707 9.53008 21.5301C9.67072 21.3894 9.74973 21.1987 9.74973 20.9998C9.74973 20.8009 9.67072 20.6102 9.53008 20.4695L5.06035 15.9998L9.53008 11.5301C9.67072 11.3894 9.74973 11.1987 9.74973 10.9998C9.74973 10.8009 9.67072 10.6102 9.53008 10.4695C9.38944 10.3289 9.1987 10.2499 8.99981 10.2499C8.80091 10.2499 8.61017 10.3289 8.46953 10.4695L3.46953 15.4695C3.39987 15.5392 3.34461 15.6218 3.30691 15.7128C3.26921 15.8038 3.2498 15.9013 3.2498 15.9998C3.2498 16.0983 3.26921 16.1958 3.30691 16.2868C3.34461 16.3778 3.39987 16.4605 3.46953 16.5301L8.46953 21.5301Z" fill="black"/>
</svg>
