<svg width="32" height="32" viewBox="0 0 32 32" fill="none" xmlns="http://www.w3.org/2000/svg">
<path d="M29.5308 24.47L25.5308 20.47C25.4618 20.3978 25.379 20.3401 25.2874 20.3003C25.1958 20.2605 25.0971 20.2394 24.9972 20.2383C24.8974 20.2372 24.7983 20.256 24.7057 20.2937C24.6132 20.3313 24.5292 20.3871 24.4585 20.4577C24.3879 20.5283 24.332 20.6123 24.2943 20.7048C24.2565 20.7973 24.2376 20.8964 24.2387 20.9963C24.2398 21.0962 24.2608 21.1948 24.3005 21.2865C24.3402 21.3781 24.3978 21.4609 24.47 21.53L27.19 24.25H21C20.8011 24.25 20.6103 24.329 20.4697 24.4697C20.329 24.6103 20.25 24.8011 20.25 25C20.25 25.1989 20.329 25.3897 20.4697 25.5303C20.6103 25.671 20.8011 25.75 21 25.75H27.19L24.47 28.47C24.3972 28.5389 24.3389 28.6216 24.2985 28.7134C24.2582 28.8052 24.2367 28.9042 24.2353 29.0044C24.2339 29.1046 24.2526 29.2041 24.2903 29.297C24.328 29.3899 24.3839 29.4743 24.4548 29.5452C24.5257 29.6161 24.61 29.6721 24.7029 29.7098C24.7958 29.7476 24.8953 29.7663 24.9955 29.7649C25.0957 29.7636 25.1947 29.7421 25.2865 29.7018C25.3783 29.6616 25.4611 29.6033 25.53 29.5305L29.53 25.5305C29.6707 25.39 29.7498 25.1993 29.75 25.0004C29.7501 24.8015 29.6713 24.6108 29.5308 24.47Z" fill="black"/>
<path d="M27.2876 4.7126C26.824 4.24896 26.2737 3.88118 25.6679 3.63026C25.0622 3.37934 24.413 3.25019 23.7573 3.25019C23.1017 3.25019 22.4525 3.37934 21.8468 3.63026C21.241 3.88118 20.6907 4.24896 20.2271 4.7126L3.7627 21.1769C3.5997 21.339 3.47046 21.5318 3.38245 21.7442C3.29445 21.9566 3.24943 22.1843 3.25 22.4142V27C3.25058 27.464 3.43514 27.9087 3.7632 28.2368C4.09127 28.5649 4.53605 28.7494 5 28.75H9.586C9.81589 28.7506 10.0436 28.7056 10.256 28.6175C10.4684 28.5295 10.6612 28.4003 10.8233 28.2373L27.2876 11.7731C28.2224 10.836 28.7473 9.56645 28.7473 8.24285C28.7473 6.91925 28.2224 5.64968 27.2876 4.7126ZM26.2271 10.7126L9.7627 27.1769C9.71569 27.2236 9.65223 27.2499 9.586 27.2502H5C4.96715 27.2502 4.93463 27.2437 4.90428 27.2312C4.87394 27.2186 4.84637 27.2001 4.82315 27.1769C4.79993 27.1537 4.78152 27.1261 4.76897 27.0957C4.75642 27.0654 4.74997 27.0328 4.75 27V22.414C4.75033 22.3478 4.77665 22.2843 4.8233 22.2373L21.2876 5.7731C21.612 5.44877 21.997 5.1915 22.4208 5.01599C22.8446 4.84047 23.2988 4.75015 23.7575 4.75017C24.2162 4.75019 24.6704 4.84056 25.0942 5.01612C25.518 5.19168 25.903 5.44898 26.2273 5.77335C26.5517 6.09771 26.8089 6.48279 26.9845 6.90658C27.16 7.33037 27.2503 7.78458 27.2503 8.24328C27.2503 8.70197 27.1599 9.15618 26.9843 9.57995C26.8088 10.0037 26.5515 10.3883 26.2271 10.7126Z" fill="black"/>
</svg>
