<svg xmlns="http://www.w3.org/2000/svg" width="32" height="32" viewBox="0 0 32 32"><path d="M29.354 24.6471L25.354 20.6471C25.2597 20.556 25.1334 20.5056 25.0023 20.5068C24.8712 20.5079 24.7458 20.5605 24.6531 20.6532C24.5604 20.7459 24.5078 20.8713 24.5067 21.0024C24.5055 21.1335 24.5559 21.2598 24.647 21.3541L27.794 24.5001H21C20.8674 24.5001 20.7402 24.5528 20.6464 24.6465C20.5527 24.7403 20.5 24.8675 20.5 25.0001C20.5 25.1327 20.5527 25.2599 20.6464 25.3536C20.7402 25.4474 20.8674 25.5001 21 25.5001H27.794L24.647 28.6471C24.6006 28.6935 24.5638 28.7486 24.5386 28.8093C24.5135 28.8699 24.5006 28.9349 24.5006 29.0006C24.5006 29.0662 24.5135 29.1313 24.5386 29.1919C24.5638 29.2526 24.6006 29.3077 24.647 29.3541C24.6934 29.4005 24.7485 29.4373 24.8092 29.4625C24.8698 29.4876 24.9349 29.5005 25.0005 29.5005C25.0662 29.5005 25.1312 29.4876 25.1918 29.4625C25.2525 29.4373 25.3076 29.4005 25.354 29.3541L29.354 25.3541C29.4477 25.2603 29.5004 25.1332 29.5004 25.0006C29.5004 24.868 29.4477 24.7409 29.354 24.6471ZM27.11 4.89009C26.2206 4.0011 25.0145 3.50171 23.757 3.50171C22.4995 3.50171 21.2934 4.0011 20.404 4.89009L3.94 21.3531C3.80023 21.4919 3.68937 21.6571 3.61385 21.839C3.53832 22.021 3.49963 22.2161 3.5 22.4131V27.0001C3.50053 27.3978 3.65874 27.779 3.93993 28.0602C4.22112 28.3414 4.60234 28.4996 5 28.5001H9.586C9.783 28.5005 9.97812 28.4618 10.1601 28.3862C10.342 28.3107 10.5072 28.1999 10.646 28.0601L27.111 11.5961C27.9991 10.706 28.4978 9.49996 28.4978 8.24259C28.4978 6.98523 27.9991 5.7792 27.111 4.88909L27.11 4.89009ZM9.94 27.3531C9.84587 27.4465 9.71864 27.499 9.586 27.4991H5C4.86739 27.4991 4.74022 27.4464 4.64645 27.3526C4.55268 27.2589 4.5 27.1317 4.5 26.9991V22.4131C4.5 22.2801 4.553 22.1531 4.646 22.0591L21.111 5.59709C21.457 5.24249 21.8699 4.9601 22.3258 4.7663C22.7818 4.57249 23.2716 4.47112 23.767 4.46807C24.2625 4.46502 24.7535 4.56035 25.2118 4.74853C25.6701 4.9367 26.0865 5.21399 26.4368 5.5643C26.7871 5.91461 27.0644 6.33098 27.2526 6.78927C27.4407 7.24756 27.5361 7.73864 27.533 8.23405C27.53 8.72946 27.4286 9.21933 27.2348 9.67526C27.041 10.1312 26.7586 10.5441 26.404 10.8901L9.94 27.3541V27.3531Z"/></svg>