<svg width="32" height="32" viewBox="0 0 32 32" fill="none" xmlns="http://www.w3.org/2000/svg">
<path d="M29.354 24.6467L25.354 20.6467C25.2597 20.5556 25.1334 20.5052 25.0023 20.5064C24.8712 20.5075 24.7458 20.5601 24.6531 20.6528C24.5604 20.7455 24.5078 20.8709 24.5067 21.002C24.5055 21.1331 24.5559 21.2594 24.647 21.3537L27.7935 24.5H21C20.8674 24.5 20.7402 24.5527 20.6465 24.6464C20.5527 24.7402 20.5 24.8674 20.5 25C20.5 25.1326 20.5527 25.2598 20.6465 25.3536C20.7402 25.4473 20.8674 25.5 21 25.5H27.7935L24.647 28.6467C24.5992 28.6928 24.5612 28.748 24.535 28.809C24.5087 28.87 24.495 28.9356 24.4944 29.002C24.4938 29.0684 24.5065 29.1342 24.5316 29.1957C24.5567 29.2571 24.5939 29.313 24.6408 29.3599C24.6878 29.4068 24.7436 29.444 24.805 29.4691C24.8665 29.4943 24.9323 29.5069 24.9987 29.5063C25.0651 29.5057 25.1307 29.492 25.1917 29.4658C25.2527 29.4395 25.3079 29.4015 25.354 29.3537L29.354 25.3537C29.4477 25.2599 29.5004 25.1328 29.5004 25.0002C29.5004 24.8676 29.4477 24.7405 29.354 24.6467Z" fill="black"/>
<path d="M27.1109 4.8893C26.6705 4.4489 26.1477 4.09956 25.5723 3.86122C24.9969 3.62287 24.3802 3.5002 23.7574 3.5002C23.1345 3.5002 22.5178 3.62287 21.9424 3.86122C21.367 4.09956 20.8442 4.4489 20.4038 4.8893L3.94 21.3537C3.8002 21.4926 3.68933 21.6579 3.61381 21.8399C3.53828 22.0219 3.4996 22.2171 3.5 22.4142V27C3.50045 27.3977 3.65863 27.779 3.93984 28.0602C4.22105 28.3414 4.60232 28.4996 5 28.5H9.586C9.78296 28.5004 9.97805 28.4618 10.16 28.3863C10.3419 28.3109 10.5071 28.2002 10.646 28.0605L27.1109 11.5964C27.999 10.7063 28.4977 9.50023 28.4977 8.24285C28.4977 6.98547 27.999 5.77943 27.1109 4.8893ZM9.94 27.3537C9.84589 27.4472 9.71867 27.4998 9.586 27.5H5C4.86739 27.5 4.74022 27.4473 4.64645 27.3536C4.55268 27.2598 4.5 27.1326 4.5 27V22.414C4.50045 22.2815 4.55308 22.1545 4.6465 22.0605L21.1109 5.5964C21.8128 4.89452 22.7647 4.5002 23.7574 4.5002C24.75 4.5002 25.7019 4.89452 26.4038 5.5964C27.1057 6.29828 27.5 7.25024 27.5 8.24285C27.5 9.23546 27.1057 10.1874 26.4038 10.8893L9.94 27.3537Z" fill="black"/>
</svg>
