<svg xmlns="http://www.w3.org/2000/svg" width="32" height="32" viewBox="0 0 32 32"><path d="M26 4.5H24C23.6023 4.50053 23.2211 4.65873 22.9399 4.93992C22.6587 5.22111 22.5005 5.60234 22.5 6V22C22.5005 22.3977 22.6587 22.7789 22.9399 23.0601C23.2211 23.3413 23.6023 23.4995 24 23.5H26C26.3977 23.4995 26.7789 23.3413 27.0601 23.0601C27.3413 22.7789 27.4995 22.3977 27.5 22V6C27.4995 5.60234 27.3413 5.22111 27.0601 4.93992C26.7789 4.65873 26.3977 4.50053 26 4.5ZM26.5 22C26.4997 22.1325 26.447 22.2596 26.3533 22.3533C26.2596 22.447 26.1325 22.4997 26 22.5H24C23.8675 22.4997 23.7404 22.447 23.6467 22.3533C23.553 22.2596 23.5003 22.1325 23.5 22V6C23.5003 5.86747 23.553 5.74045 23.6467 5.64674C23.7404 5.55303 23.8675 5.50026 24 5.5H26C26.1325 5.50026 26.2596 5.55303 26.3533 5.64674C26.447 5.74045 26.4997 5.86747 26.5 6V22ZM15 23.5H17C17.3977 23.4995 17.7789 23.3413 18.0601 23.0601C18.3413 22.7789 18.4995 22.3977 18.5 22V14C18.4995 13.6023 18.3413 13.2211 18.0601 12.9399C17.7789 12.6587 17.3977 12.5005 17 12.5H15C14.6023 12.5005 14.2211 12.6587 13.9399 12.9399C13.6587 13.2211 13.5005 13.6023 13.5 14V22C13.5005 22.3977 13.6587 22.7789 13.9399 23.0601C14.2211 23.3413 14.6023 23.4995 15 23.5ZM14.5 14C14.5003 13.8675 14.553 13.7404 14.6467 13.6467C14.7404 13.553 14.8675 13.5003 15 13.5H17C17.1325 13.5003 17.2596 13.553 17.3533 13.6467C17.447 13.7404 17.4997 13.8675 17.5 14V22C17.4997 22.1325 17.447 22.2596 17.3533 22.3533C17.2596 22.447 17.1325 22.4997 17 22.5H15C14.8675 22.4997 14.7404 22.447 14.6467 22.3533C14.553 22.2596 14.5003 22.1325 14.5 22V14ZM6.007 23.5H8.007C8.40466 23.4995 8.78589 23.3413 9.06708 23.0601C9.34827 22.7789 9.50647 22.3977 9.507 22V9C9.50647 8.60234 9.34827 8.22111 9.06708 7.93992C8.78589 7.65873 8.40466 7.50053 8.007 7.5H6.007C5.60934 7.50053 5.22811 7.65873 4.94692 7.93992C4.66573 8.22111 4.50753 8.60234 4.507 9V22C4.50753 22.3977 4.66573 22.7789 4.94692 23.0601C5.22811 23.3413 5.60934 23.4995 6.007 23.5ZM5.507 9C5.50726 8.86747 5.56003 8.74045 5.65374 8.64674C5.74745 8.55303 5.87447 8.50026 6.007 8.5H8.007C8.13953 8.50026 8.26655 8.55303 8.36026 8.64674C8.45397 8.74045 8.50674 8.86747 8.507 9V22C8.507 22.1326 8.45432 22.2598 8.36055 22.3536C8.26679 22.4473 8.13961 22.5 8.007 22.5H6.007C5.87439 22.5 5.74721 22.4473 5.65345 22.3536C5.55968 22.2598 5.507 22.1326 5.507 22V9ZM27 26.5H5C4.86739 26.5 4.74021 26.5527 4.64645 26.6464C4.55268 26.7402 4.5 26.8674 4.5 27C4.5 27.1326 4.55268 27.2598 4.64645 27.3536C4.74021 27.4473 4.86739 27.5 5 27.5H27C27.1326 27.5 27.2598 27.4473 27.3536 27.3536C27.4473 27.2598 27.5 27.1326 27.5 27C27.5 26.8674 27.4473 26.7402 27.3536 26.6464C27.2598 26.5527 27.1326 26.5 27 26.5Z"/></svg>