<svg xmlns="http://www.w3.org/2000/svg" width="32" height="32" viewBox="0 0 32 32"><path d="M26 4H24C23.4698 4.00079 22.9616 4.21176 22.5867 4.58666C22.2118 4.96156 22.0008 5.46981 22 6V22C22.0008 22.5302 22.2118 23.0384 22.5867 23.4133C22.9616 23.7882 23.4698 23.9992 24 24H26C26.5302 23.9992 27.0384 23.7882 27.4133 23.4133C27.7882 23.0384 27.9992 22.5302 28 22V6C27.9992 5.46981 27.7882 4.96156 27.4133 4.58666C27.0384 4.21176 26.5302 4.00079 26 4ZM26 21.5C26 21.6326 25.9473 21.7598 25.8536 21.8536C25.7598 21.9473 25.6326 22 25.5 22H24.5C24.3674 22 24.2402 21.9473 24.1464 21.8536C24.0527 21.7598 24 21.6326 24 21.5V6.5C24 6.36739 24.0527 6.24021 24.1464 6.14645C24.2402 6.05268 24.3674 6 24.5 6H25.5C25.6326 6 25.7598 6.05268 25.8536 6.14645C25.9473 6.24021 26 6.36739 26 6.5V21.5ZM15 24H17C17.5302 23.9992 18.0384 23.7882 18.4133 23.4133C18.7882 23.0384 18.9992 22.5302 19 22V14C18.9992 13.4698 18.7882 12.9616 18.4133 12.5867C18.0384 12.2118 17.5302 12.0008 17 12H15C14.4698 12.0008 13.9616 12.2118 13.5867 12.5867C13.2118 12.9616 13.0008 13.4698 13 14V22C13.0008 22.5302 13.2118 23.0384 13.5867 23.4133C13.9616 23.7882 14.4698 23.9992 15 24ZM15 14.5C15 14.3674 15.0527 14.2402 15.1464 14.1464C15.2402 14.0527 15.3674 14 15.5 14H16.5C16.6326 14 16.7598 14.0527 16.8536 14.1464C16.9473 14.2402 17 14.3674 17 14.5V21.5C17 21.6326 16.9473 21.7598 16.8536 21.8536C16.7598 21.9473 16.6326 22 16.5 22H15.5C15.3674 22 15.2402 21.9473 15.1464 21.8536C15.0527 21.7598 15 21.6326 15 21.5V14.5ZM6.007 24H8.007C8.53719 23.9992 9.04544 23.7882 9.42034 23.4133C9.79524 23.0384 10.0062 22.5302 10.007 22V9C10.0062 8.46981 9.79524 7.96156 9.42034 7.58666C9.04544 7.21176 8.53719 7.00079 8.007 7H6.007C5.47681 7.00079 4.96856 7.21176 4.59366 7.58666C4.21876 7.96156 4.00779 8.46981 4.007 9V22C4.00753 22.5303 4.21841 23.0387 4.59337 23.4136C4.96833 23.7886 5.47673 23.9995 6.007 24ZM6.007 9.5C6.007 9.36739 6.05968 9.24021 6.15345 9.14645C6.24721 9.05268 6.37439 9 6.507 9H7.507C7.63961 9 7.76679 9.05268 7.86055 9.14645C7.95432 9.24021 8.007 9.36739 8.007 9.5V21.5C8.007 21.6326 7.95432 21.7598 7.86055 21.8536C7.76679 21.9473 7.63961 22 7.507 22H6.507C6.37439 22 6.24721 21.9473 6.15345 21.8536C6.05968 21.7598 6.007 21.6326 6.007 21.5V9.5ZM27 26H5C4.73478 26 4.48043 26.1054 4.29289 26.2929C4.10536 26.4804 4 26.7348 4 27C4 27.2652 4.10536 27.5196 4.29289 27.7071C4.48043 27.8946 4.73478 28 5 28H27C27.2652 28 27.5196 27.8946 27.7071 27.7071C27.8946 27.5196 28 27.2652 28 27C28 26.7348 27.8946 26.4804 27.7071 26.2929C27.5196 26.1054 27.2652 26 27 26Z"/></svg>