<svg width="32" height="32" viewBox="0 0 32 32" fill="none" xmlns="http://www.w3.org/2000/svg">
<path d="M28.5999 4.07C28.3147 3.8339 27.9809 3.66382 27.6223 3.57197C27.2637 3.48012 26.8892 3.46878 26.5257 3.53875L6.83426 7.29075C5.61748 7.51426 4.51753 8.15718 3.7257 9.10771C2.93386 10.0582 2.50024 11.2562 2.50024 12.4934C2.50024 13.7305 2.93386 14.9285 3.7257 15.8791C4.51753 16.8296 5.61748 17.4725 6.83426 17.696L7.67568 17.8564L12.8938 27.0525C13.3099 27.7207 13.9674 28.203 14.7297 28.3992C15.492 28.5954 16.3006 28.4905 16.9876 28.1062C17.3326 27.9147 17.6355 27.6557 17.8783 27.3446C18.121 27.0336 18.2987 26.6768 18.4007 26.2956C18.5013 25.9254 18.5268 25.5388 18.4756 25.1586C18.4245 24.7783 18.2977 24.4122 18.1028 24.0818L15.5613 19.3593L26.5257 21.449H26.5267C26.8905 21.5188 27.2652 21.5071 27.624 21.415C27.9828 21.3228 28.3167 21.1523 28.6019 20.9158C28.8829 20.6839 29.1092 20.3928 29.2645 20.0633C29.4198 19.7337 29.5003 19.3739 29.5003 19.0096V5.97825C29.5004 5.61343 29.4197 5.2531 29.2641 4.92316C29.1084 4.59322 28.8815 4.30186 28.5999 4.07ZM17.4349 26.0368C17.3668 26.2891 17.2488 26.5252 17.0877 26.7311C16.9267 26.9369 16.7259 27.1083 16.4974 27.235C16.0393 27.4933 15.4995 27.5659 14.9894 27.4378C14.4793 27.3097 14.0379 26.9907 13.7562 26.5466L8.96999 18.112L14.3118 19.1481L17.2317 24.574C17.3621 24.7917 17.4472 25.0334 17.4821 25.2847C17.517 25.5361 17.501 25.7918 17.4349 26.0368ZM28.5003 19.0095C28.5003 19.2269 28.4521 19.4416 28.3593 19.6381C28.2664 19.8347 28.1311 20.0082 27.9632 20.1462C27.7917 20.2891 27.5905 20.392 27.3743 20.4474C27.1581 20.5028 26.9322 20.5093 26.7132 20.4665L7.02176 16.7136C6.03355 16.5338 5.13979 16.0128 4.49626 15.2416C3.85273 14.4704 3.50024 13.4978 3.50024 12.4934C3.50024 11.4889 3.85273 10.5164 4.49626 9.74515C5.13979 8.97394 6.03355 8.45301 7.02176 8.27317L26.7132 4.52117C26.9322 4.4786 27.1579 4.48517 27.374 4.54039C27.5902 4.59561 27.7914 4.69811 27.9632 4.8405C28.131 4.97886 28.2661 5.15259 28.359 5.34926C28.4518 5.54594 28.5001 5.76071 28.5003 5.9782V19.0095Z" fill="black"/>
</svg>
