<svg width="32" height="32" viewBox="0 0 32 32" fill="none" xmlns="http://www.w3.org/2000/svg">
<path d="M28.5999 4.07C28.3147 3.8339 27.9809 3.66382 27.6223 3.57197C27.2637 3.48012 26.8892 3.46878 26.5257 3.53875L6.83426 7.29075C5.61748 7.51426 4.51753 8.15719 3.7257 9.10772C2.93386 10.0582 2.50024 11.2563 2.50024 12.4934C2.50024 13.7305 2.93386 14.9285 3.7257 15.8791C4.51753 16.8296 5.61748 17.4725 6.83426 17.696L7.67568 17.8564L12.8938 27.0525C13.3099 27.7207 13.9674 28.203 14.7297 28.3992C15.492 28.5954 16.3006 28.4905 16.9876 28.1062C17.3326 27.9147 17.6355 27.6557 17.8783 27.3446C18.121 27.0336 18.2987 26.6768 18.4007 26.2956C18.5013 25.9254 18.5268 25.5388 18.4756 25.1586C18.4245 24.7784 18.2977 24.4122 18.1028 24.0818L15.5613 19.3593L26.5257 21.449H26.5267C26.8905 21.5188 27.2652 21.5071 27.624 21.415C27.9828 21.3228 28.3167 21.1523 28.6019 20.9158C28.8829 20.6839 29.1092 20.3928 29.2645 20.0633C29.4198 19.7337 29.5003 19.3739 29.5003 19.0096V5.97825C29.5004 5.61343 29.4197 5.25311 29.2641 4.92317C29.1084 4.59323 28.8815 4.30186 28.5999 4.07Z" fill="black"/>
</svg>
