<svg xmlns="http://www.w3.org/2000/svg" width="32" height="32" viewBox="0 0 32 32"><path d="M27.0008 21.4942C27.4746 21.4939 27.9386 21.3595 28.3391 21.1064C28.7396 20.8533 29.0602 20.492 29.2638 20.0642C29.4188 19.7342 29.4998 19.3742 29.4998 19.0092V5.98022C29.5002 5.61529 29.4196 5.25483 29.264 4.92475C29.1084 4.59467 28.8816 4.30317 28.5998 4.07122C28.3149 3.8349 27.9811 3.6647 27.6224 3.57289C27.2638 3.48107 26.8893 3.46991 26.5258 3.54022L7.81183 7.10422L3.35383 2.64622C3.25953 2.55514 3.13323 2.50474 3.00213 2.50588C2.87103 2.50702 2.74563 2.5596 2.65292 2.65231C2.56022 2.74501 2.50763 2.87042 2.50649 3.00151C2.50536 3.13261 2.55575 3.25891 2.64683 3.35322L28.6468 29.3532C28.693 29.401 28.7481 29.4391 28.8091 29.4653C28.8701 29.4915 28.9357 29.5053 29.0021 29.5058C29.0685 29.5064 29.1344 29.4938 29.1958 29.4686C29.2573 29.4435 29.3131 29.4064 29.36 29.3594C29.407 29.3125 29.4441 29.2566 29.4692 29.1952C29.4944 29.1337 29.507 29.0679 29.5065 29.0015C29.5059 28.9351 29.4921 28.8695 29.4659 28.8085C29.4397 28.7475 29.4016 28.6923 29.3538 28.6462L21.1268 20.4202L26.5268 21.4492C26.6828 21.4792 26.8418 21.4942 27.0008 21.4942ZM8.66683 7.96022L26.7138 4.52022C26.9326 4.47721 27.1581 4.48362 27.374 4.53898C27.59 4.59435 27.7908 4.69727 27.9618 4.84022C28.1299 4.97822 28.2654 5.15176 28.3584 5.34836C28.4514 5.54495 28.4997 5.75972 28.4998 5.97722V19.0102C28.4998 19.2275 28.4517 19.4421 28.3588 19.6385C28.266 19.8349 28.1307 20.0083 27.9628 20.1462C27.7915 20.2893 27.5903 20.3923 27.3741 20.4477C27.1578 20.5031 26.9319 20.5094 26.7128 20.4662L19.8688 19.1622L8.66683 7.96022ZM15.5608 19.3602L17.6338 19.7542L16.3758 18.4962L7.02083 16.7142C6.09176 16.5468 5.24404 16.0771 4.60945 15.3782C3.97486 14.6793 3.58896 13.7903 3.51175 12.8494C3.43454 11.9085 3.67035 10.9685 4.18251 10.1755C4.69467 9.38245 5.45449 8.78086 6.34383 8.46422L5.58983 7.71122C4.56672 8.17575 3.71886 8.95513 3.17001 9.93559C2.62116 10.9161 2.40006 12.0463 2.53897 13.1613C2.67789 14.2763 3.16955 15.3177 3.94219 16.1336C4.71484 16.9494 5.72801 17.4969 6.83383 17.6962L7.67683 17.8562L12.8948 27.0522C13.3109 27.7202 13.9682 28.2024 14.7303 28.3986C15.4924 28.5949 16.3009 28.4902 16.9878 28.1062C17.5026 27.8207 17.9198 27.3871 18.1851 26.8616C18.4504 26.3361 18.5517 25.743 18.4758 25.1592C18.425 24.779 18.2985 24.4128 18.1038 24.0822L15.5608 19.3592V19.3602ZM17.4348 26.0382C17.3669 26.2904 17.2489 26.5263 17.0879 26.7319C16.9269 26.9375 16.7263 27.1087 16.4978 27.2352C16.0398 27.4934 15.5001 27.5659 14.9901 27.4379C14.4801 27.3099 14.0387 26.9911 13.7568 26.5472L8.96983 18.1122L14.3098 19.1482L17.2308 24.5732C17.3612 24.7913 17.4464 25.0334 17.4812 25.2851C17.5161 25.5368 17.5 25.7929 17.4338 26.0382H17.4348Z"/></svg>