<svg width="32" height="32" viewBox="0 0 32 32" fill="none" xmlns="http://www.w3.org/2000/svg">
<path d="M16.0293 19.7025L16.6357 19.818L15.1061 18.0022L7.06836 16.4685C6.25134 16.322 5.49948 15.9269 4.91556 15.3369C4.33165 14.747 3.94418 13.9911 3.80612 13.1727C3.66806 12.3542 3.78615 11.513 4.14425 10.7642C4.50235 10.0154 5.08298 9.39544 5.80676 8.98911L4.7265 7.90885C3.80693 8.51614 3.09031 9.38492 2.66902 10.4032C2.24772 11.4215 2.14106 12.5427 2.36278 13.6221C2.5845 14.7016 3.12444 15.6899 3.91301 16.4597C4.70157 17.2295 5.70261 17.7455 6.78711 17.9411L7.51569 18.08L12.6807 27.1824C13.1306 27.906 13.8421 28.4285 14.6672 28.6411C15.4924 28.8537 16.3678 28.7401 17.1114 28.3239C17.4852 28.1164 17.8134 27.8355 18.0763 27.4983C18.3392 27.161 18.5315 26.7743 18.6416 26.3611C18.7514 25.9604 18.7798 25.5419 18.7251 25.1301C18.6704 24.7183 18.5338 24.3217 18.3233 23.9636L16.0293 19.7025ZM17.1934 25.9734C17.1338 26.1933 17.0307 26.3991 16.8901 26.5784C16.7496 26.7577 16.5744 26.907 16.375 27.0173C15.9748 27.2437 15.5031 27.3083 15.0567 27.1979C14.6103 27.0875 14.2232 26.8104 13.9746 26.4236L9.45605 18.4607L14.1475 19.3718L17.0176 24.7009C17.1308 24.8903 17.2048 25.1006 17.235 25.3192C17.2652 25.5379 17.251 25.7603 17.1934 25.9734Z" fill="black"/>
<path d="M26.4805 21.695C26.6521 21.7272 26.8263 21.7436 27.001 21.7438C27.6436 21.7437 28.266 21.5192 28.7607 21.1091C29.0704 20.8538 29.3197 20.5332 29.4907 20.1702C29.6618 19.8072 29.7503 19.4108 29.75 19.0095V5.97825C29.7503 5.57663 29.6615 5.17994 29.4901 4.81672C29.3187 4.4535 29.069 4.13279 28.7588 3.87766C28.4456 3.61793 28.0788 3.43084 27.6847 3.32986C27.2906 3.22888 26.879 3.21652 26.4795 3.29366L7.89532 6.83451L3.53032 2.46951C3.38951 2.32971 3.19904 2.25142 3.00063 2.25177C2.80221 2.25212 2.61202 2.33109 2.47171 2.47139C2.3314 2.61168 2.25241 2.80187 2.25204 3.00029C2.25167 3.1987 2.32995 3.38918 2.46973 3.53L28.4697 29.53C28.6105 29.6702 28.8011 29.7488 28.9997 29.7486C29.1983 29.7484 29.3888 29.6694 29.5292 29.529C29.6697 29.3885 29.7487 29.1981 29.7489 28.9994C29.7491 28.8008 29.6705 28.6102 29.5303 28.4694L21.8779 20.8171L26.4795 21.6941L26.4805 21.695ZM9.17731 8.11649L26.7607 4.76633C26.9433 4.73158 27.1314 4.73746 27.3114 4.78353C27.4915 4.82961 27.6593 4.91475 27.8027 5.03293C27.9424 5.14774 28.055 5.29205 28.1323 5.45548C28.2096 5.61892 28.2498 5.79744 28.25 5.97825V19.0095C28.2498 19.1901 28.2096 19.3683 28.1325 19.5316C28.0553 19.6948 27.9431 19.839 27.8037 19.9538C27.6602 20.0723 27.4923 20.1577 27.3121 20.204C27.1318 20.2502 26.9436 20.2562 26.7607 20.2214L19.9923 18.9315L9.17731 8.11649Z" fill="black"/>
</svg>
