<svg xmlns="http://www.w3.org/2000/svg" width="32" height="32" viewBox="0 0 32 32"><path d="M28.5998 4.0698C28.3146 3.83385 27.9808 3.66388 27.6222 3.57208C27.2637 3.48028 26.8892 3.46891 26.5258 3.5388L6.83378 7.2898C5.61745 7.51381 4.51807 8.15693 3.72668 9.10738C2.9353 10.0578 2.50195 11.2555 2.50195 12.4923C2.50195 13.7291 2.9353 14.9268 3.72668 15.8772C4.51807 16.8277 5.61745 17.4708 6.83378 17.6948L7.67578 17.8548L12.8938 27.0508C13.3099 27.7191 13.9673 28.2014 14.7297 28.3977C15.4921 28.5939 16.3007 28.4891 16.9878 28.1048C17.5023 27.819 17.9192 27.3853 18.1845 26.8599C18.4498 26.3345 18.5512 25.7415 18.4758 25.1578C18.4246 24.7775 18.2978 24.4113 18.1028 24.0808L15.5608 19.3578L26.5258 21.4478C27.0713 21.5524 27.6362 21.4731 28.1319 21.2223C28.6275 20.9715 29.026 20.5633 29.2648 20.0618C29.4198 19.7318 29.4998 19.3718 29.4998 19.0088V5.9778C29.4998 5.61306 29.4191 5.25284 29.2635 4.92297C29.1079 4.59309 28.8813 4.30174 28.5998 4.0698ZM17.4348 26.0368C17.3666 26.2891 17.2484 26.5252 17.0873 26.731C16.9262 26.9367 16.7254 27.1081 16.4968 27.2348C16.0389 27.4929 15.4994 27.5654 14.9895 27.4374C14.4797 27.3094 14.0385 26.9906 13.7568 26.5468L8.96978 18.1118L14.3118 19.1478L17.2318 24.5738C17.3622 24.7915 17.4474 25.0333 17.4823 25.2846C17.5172 25.536 17.501 25.7918 17.4348 26.0368ZM28.4998 19.0098C28.4996 19.227 28.4514 19.4416 28.3586 19.638C28.2657 19.8344 28.1306 20.0078 27.9628 20.1458C27.7913 20.2886 27.5901 20.3914 27.3739 20.4468C27.1577 20.5021 26.9318 20.5086 26.7128 20.4658L7.02178 16.7148C6.03426 16.5342 5.14136 16.013 4.49851 15.2419C3.85567 14.4708 3.5036 13.4987 3.5036 12.4948C3.5036 11.4909 3.85567 10.5188 4.49851 9.74771C5.14136 8.97663 6.03426 8.45541 7.02178 8.2748L26.7128 4.5198C27.0401 4.45629 27.3792 4.50311 27.6771 4.65294C27.9749 4.80277 28.2147 5.04714 28.3588 5.3478C28.4518 5.5448 28.4998 5.7598 28.4998 5.9778V19.0078V19.0098Z"/></svg>