<svg xmlns="http://www.w3.org/2000/svg" width="32" height="32" viewBox="0 0 32 32"><path d="M17.3102 21.5519L13.1252 17.3679L7.11523 16.2219C6.4068 16.0957 5.74914 15.7698 5.21962 15.2826C4.6901 14.7953 4.31074 14.167 4.12618 13.4715C3.94161 12.776 3.95951 12.0422 4.17777 11.3565C4.39604 10.6709 4.80558 10.0618 5.35823 9.60092L3.94623 8.18792C3.13468 8.90558 2.54157 9.83721 2.23476 10.8762C1.92795 11.9152 1.91985 13.0196 2.21137 14.063C2.50289 15.1063 3.08226 16.0466 3.88319 16.7761C4.68411 17.5056 5.67423 17.9948 6.74023 18.1879L7.35523 18.3049L12.4672 27.3109C12.9512 28.0896 13.7166 28.6518 14.6043 28.8809C15.4921 29.11 16.4339 28.9882 17.2342 28.5409C17.8346 28.2069 18.3212 27.7007 18.6314 27.0876C18.9415 26.4744 19.0609 25.7825 18.9742 25.1009C18.9159 24.6578 18.7697 24.2308 18.5442 23.8449L17.3092 21.5519H17.3102ZM16.9522 25.9079C16.9013 26.0958 16.8131 26.2715 16.6929 26.4246C16.5726 26.5777 16.4227 26.705 16.2522 26.7989C15.9102 26.9947 15.5063 27.0521 15.1232 26.9595C14.7402 26.8669 14.4071 26.6313 14.1922 26.3009L9.94223 18.8089L13.9832 19.5939L16.8022 24.8279C16.8983 24.9887 16.961 25.1672 16.9868 25.3527C17.0125 25.5382 17.0008 25.727 16.9522 25.9079ZM26.4342 21.9399C27.0883 22.0649 27.7654 21.9695 28.3595 21.6686C28.9536 21.3677 29.4311 20.8782 29.7172 20.2769C29.9042 19.8799 30.0002 19.4469 30.0002 19.0089V5.97992C30.0005 5.54146 29.9038 5.10837 29.7169 4.71174C29.53 4.31512 29.2576 3.96479 28.9192 3.68592C28.5776 3.40279 28.1775 3.19883 27.7476 3.08869C27.3178 2.97855 26.8689 2.96497 26.4332 3.04892L7.97823 6.56392L3.70723 2.29292C3.51863 2.11076 3.26602 2.00997 3.00383 2.01224C2.74163 2.01452 2.49082 2.11969 2.30541 2.3051C2.12 2.49051 2.01483 2.74132 2.01256 3.00352C2.01028 3.26571 2.11107 3.51832 2.29323 3.70692L28.2932 29.7069C28.4818 29.8891 28.7344 29.9899 28.9966 29.9876C29.2588 29.9853 29.5096 29.8801 29.695 29.6947C29.8805 29.5093 29.9856 29.2585 29.9879 28.9963C29.9902 28.7341 29.8894 28.4815 29.7072 28.2929L22.6302 21.2149L26.4342 21.9399ZM9.68823 8.27392L26.8082 5.01192C27.0264 4.96943 27.2526 5.00034 27.4514 5.09983C27.6502 5.19932 27.8104 5.36179 27.9072 5.56192C27.9692 5.69192 28.0002 5.83392 28.0002 5.97792V19.0099C28.0008 19.1538 27.9692 19.296 27.9078 19.4261C27.8464 19.5562 27.7567 19.6709 27.6452 19.7619C27.5297 19.8563 27.3949 19.9243 27.2503 19.9611C27.1057 19.9979 26.9548 20.0026 26.8082 19.9749L20.1142 18.6999L9.68823 8.27392Z"/></svg>