<svg xmlns="http://www.w3.org/2000/svg" width="32" height="32" viewBox="0 0 32 32"><path d="M28.728 22.314C28.638 22.2184 28.5299 22.1414 28.4101 22.0876C28.2903 22.0337 28.1611 22.0039 28.0297 22C27.8984 21.9961 27.7676 22.0182 27.6448 22.0648C27.522 22.1115 27.4096 22.1819 27.314 22.272C26.3005 23.2578 25.1902 24.1389 24 24.902C24.3606 23.8651 24.7813 22.85 25.26 21.862C26.593 18.886 27.97 15.814 26.087 14.441C24.113 13 21.399 15.341 18.584 17.855C17.376 18.935 14.516 21.369 14.067 20.952C13.581 20.5 15.894 16.844 17.201 14.989C19.865 11.209 22.332 7.60402 20.176 5.61402C19.9254 5.38996 19.6311 5.22012 19.3118 5.11515C18.9924 5.01018 18.6547 4.97234 18.32 5.00402C13.833 5.26202 4.31504 16.109 3.24404 17.345C3.07032 17.5455 2.98337 17.8068 3.00231 18.0714C3.02125 18.336 3.14453 18.5823 3.34504 18.756C3.54554 18.9297 3.80684 19.0167 4.07146 18.9977C4.33607 18.9788 4.58232 18.8555 4.75604 18.655C8.58604 14.233 15.688 7.16002 18.434 7.00102C18.717 6.98402 18.796 7.06402 18.824 7.08802C19.672 7.84202 17.125 11.626 15.566 13.838C13.059 17.396 10.911 20.454 12.599 22.311C14.342 24.229 17.209 21.767 19.916 19.348C21.408 18.014 24.222 15.642 24.912 16.06C25.34 16.319 23.995 19.795 23.435 21.045C22.225 23.746 21.35 25.698 22.617 26.697C22.864 26.902 23.177 27.01 23.499 27C24.33 27 25.841 26.41 28.686 23.727C28.8789 23.5452 28.9916 23.2942 28.9995 23.0292C29.0074 22.7643 28.9097 22.507 28.728 22.314Z"/></svg>