<svg xmlns="http://www.w3.org/2000/svg" width="32" height="32" viewBox="0 0 32 32"><path d="M21.998 12.497L18.751 12.499L20.2 9.052C20.5726 8.10795 20.6009 7.06285 20.28 6.1C19.665 4.375 18.273 3.5 16.144 3.5H15.846C14.994 3.5 14.159 3.626 13.432 4.059C12.7053 4.49228 12.1322 5.14191 11.793 5.917C11.3834 6.97361 11.4061 8.14894 11.856 9.189L13.246 12.501H10C8.80711 12.5023 7.66343 12.9767 6.81983 13.8201C5.97624 14.6635 5.50159 15.8071 5.5 17V26.995C5.50053 27.3927 5.65873 27.7739 5.93992 28.0551C6.22111 28.3363 6.60234 28.4945 7 28.495L25 28.5C25.3977 28.4995 25.7789 28.3413 26.0601 28.0601C26.3413 27.7789 26.4995 27.3977 26.5 27V16.996C26.4987 15.8026 26.0239 14.6585 25.1798 13.8148C24.3358 12.9711 23.1914 12.4968 21.998 12.496V12.497ZM10 13.5H14C14.0823 13.4996 14.1633 13.479 14.2357 13.4399C14.3081 13.4008 14.3698 13.3444 14.4153 13.2758C14.4607 13.2072 14.4886 13.1284 14.4964 13.0465C14.5042 12.9646 14.4917 12.882 14.46 12.806L12.782 8.81C12.4331 8.01462 12.4102 7.11414 12.718 6.302C12.9787 5.70701 13.4231 5.21113 13.986 4.887C14.549 4.563 15.202 4.5 15.847 4.5H16.145C17.83 4.5 18.875 5.133 19.339 6.436C19.5759 7.16795 19.5526 7.95926 19.273 8.676L17.539 12.807C17.5073 12.883 17.4948 12.9656 17.5026 13.0475C17.5104 13.1294 17.5383 13.2082 17.5837 13.2768C17.6292 13.3454 17.6909 13.4018 17.7633 13.4409C17.8357 13.48 17.9167 13.5006 17.999 13.501L21.999 13.497C22.9269 13.4981 23.8166 13.8671 24.4727 14.5233C25.1289 15.1794 25.4979 16.0691 25.499 16.997V22.5H6.499V17C6.50006 16.0721 6.86915 15.1824 7.5253 14.5263C8.18144 13.8701 9.07107 13.5011 9.999 13.5H10ZM15.5 23.5L15.503 27.497L11.501 27.496V23.501H15.5V23.5ZM16.5 23.5H20.502V27.5H16.503L16.5 23.503V23.5ZM6.5 26.995V23.501H10.502V27.496H7C6.86739 27.496 6.74021 27.4433 6.64645 27.3496C6.55268 27.2558 6.5 27.1286 6.5 26.996V26.995ZM25 27.5L21.502 27.498V23.501H25.5V27C25.5 27.1326 25.4473 27.2598 25.3536 27.3536C25.2598 27.4473 25.1326 27.5 25 27.5Z"/></svg>