<svg width="32" height="32" viewBox="0 0 32 32" fill="none" xmlns="http://www.w3.org/2000/svg">
<path d="M21.9985 12.4966L18.7515 12.4995L20.1987 9.05224C20.5721 8.10839 20.6011 7.06322 20.2808 6.1001C19.6655 4.37549 18.2739 3.50049 16.145 3.50049H15.8472C14.9953 3.50029 14.1599 3.62565 13.4332 4.05905C12.7065 4.49245 12.1335 5.14225 11.7944 5.91749C11.3848 6.97386 11.4072 8.14901 11.8569 9.18897L13.2476 12.5005H9.99951C8.80644 12.5018 7.6626 12.9763 6.81897 13.8199C5.97534 14.6636 5.50082 15.8074 5.49951 17.0005V26.9956C5.49995 27.3933 5.65812 27.7746 5.93933 28.0558C6.22054 28.337 6.60182 28.4952 6.99951 28.4956L24.9995 28.5005C25.3972 28.5 25.7785 28.3419 26.0597 28.0607C26.3409 27.7794 26.4991 27.3982 26.4995 27.0005V16.9966C26.4982 15.8034 26.0235 14.6594 25.1797 13.8158C24.3358 12.9721 23.1918 12.4977 21.9985 12.4966ZM9.99954 13.5005H13.9995C14.0819 13.5003 14.1629 13.4799 14.2355 13.4409C14.308 13.4019 14.3698 13.3456 14.4154 13.2771C14.461 13.2085 14.489 13.1297 14.4968 13.0477C14.5047 12.9658 14.4922 12.8831 14.4605 12.8071L12.7817 8.8101C12.4331 8.01471 12.4103 7.1143 12.7183 6.30229C12.979 5.70718 13.4234 5.21119 13.9865 4.88696C14.5495 4.56272 15.2022 4.50048 15.8472 4.50048H16.145C17.8296 4.50048 18.8745 5.1333 19.3394 6.43603C19.576 7.16779 19.5525 7.95883 19.273 8.67529L17.5386 12.8071C17.5067 12.8831 17.4941 12.9658 17.5018 13.0478C17.5096 13.1299 17.5376 13.2087 17.5832 13.2773C17.6288 13.346 17.6907 13.4022 17.7633 13.4412C17.836 13.4801 17.9171 13.5005 17.9995 13.5005L21.9995 13.4966C22.9274 13.4977 23.817 13.8668 24.4731 14.5229C25.1293 15.1791 25.4984 16.0686 25.4995 16.9966V22.5014H6.49951V17.0004C6.50065 16.0725 6.86977 15.183 7.5259 14.5268C8.18203 13.8707 9.07164 13.5016 9.99954 13.5005ZM15.4998 23.5015L15.503 27.4979L11.5015 27.4968V23.5015H15.4998ZM16.4998 23.5015H20.5015V27.4993L16.503 27.4982L16.4998 23.5015ZM6.49951 26.9956V23.5015H10.5015V27.4966L6.99951 27.4956C6.86699 27.4953 6.73997 27.4426 6.64626 27.3488C6.55255 27.2551 6.49978 27.1281 6.49951 26.9956ZM24.9995 27.5005L21.5015 27.4995V23.5015H25.4995V27.0005C25.4993 27.133 25.4465 27.26 25.3528 27.3537C25.2591 27.4474 25.132 27.5002 24.9995 27.5005Z" fill="black"/>
</svg>
