<svg width="32" height="32" viewBox="0 0 32 32" xmlns="http://www.w3.org/2000/svg"><path d="M14.245 7.083c.273-2.455-.539-4.241-1.795-5.183-1.22-.915-2.903-1.008-3.98.07-1.078 1.077-.985 2.76-.07 3.98.942 1.256 2.728 2.068 5.183 1.795a.75.75 0 0 0 .662-.662ZM9.53 3.03c.423-.422 1.24-.515 2.02.07.665.5 1.286 1.523 1.247 3.197-1.674.039-2.698-.582-3.197-1.247-.585-.78-.492-1.597-.07-2.02Z"/><path d="M15.26 11.049c.067-.72.226-1.528.524-2.334.544-1.472 1.57-2.98 3.38-3.886a.75.75 0 1 1 .671 1.342c-1.388.694-2.196 1.853-2.644 3.064a7.731 7.731 0 0 0-.421 1.796c2.079-1.205 4.7-1.522 6.896-.597 2.766 1.164 4.604 4.169 4.08 9.144-.424 4.029-2.252 7.457-4.552 9.502-2.145 1.907-4.879 2.72-7.194 1.324-2.315 1.397-5.048.583-7.194-1.324-2.3-2.045-4.128-5.473-4.552-9.502-.524-4.975 1.314-7.98 4.08-9.144 2.207-.93 4.842-.605 6.926.615Zm.44 2.138a.748.748 0 0 1-.194-.123c-1.811-1.585-4.511-2.123-6.59-1.248-1.984.836-3.646 3.081-3.17 7.606.389 3.69 2.061 6.763 4.057 8.537 2.011 1.788 4.151 2.138 5.747.941a.75.75 0 0 1 .9 0c1.596 1.197 3.736.847 5.747-.94 1.996-1.775 3.669-4.847 4.057-8.538.476-4.525-1.186-6.77-3.17-7.606-2.076-.874-4.773-.338-6.584 1.243a.746.746 0 0 1-.8.128Z"/></svg>