<svg width="32" height="32" viewBox="0 0 32 32" fill="none" xmlns="http://www.w3.org/2000/svg">
<path d="M25.0001 2.49954H13.0001C11.8079 2.50087 10.6649 2.97475 9.82149 3.81733C8.97809 4.65992 8.50309 5.80248 8.50059 6.99465L8.49959 6.99954L8.5001 7.002V12.4996H7.0001C5.80702 12.5009 4.66319 12.9754 3.81955 13.819C2.97592 14.6626 2.5014 15.8065 2.5001 16.9996V24.9996C2.5014 26.1926 2.97593 27.3365 3.81956 28.1801C4.66319 29.0237 5.80702 29.4983 7.0001 29.4996H20.0001C21.1932 29.4983 22.337 29.0237 23.1806 28.1801C24.0243 27.3365 24.4988 26.1926 24.5001 24.9996V19.4996H25.0001C26.1932 19.4983 27.337 19.0237 28.1806 18.1801C29.0243 17.3365 29.4988 16.1926 29.5001 14.9996V6.99956C29.4988 5.80648 29.0243 4.66264 28.1806 3.81901C27.337 2.97537 26.1932 2.50084 25.0001 2.49954ZM13.0001 3.49954H25.0001C25.8395 3.50202 26.65 3.80651 27.2833 4.35736C27.9167 4.9082 28.3307 5.6686 28.4496 6.49954H9.55063C9.66951 5.6686 10.0835 4.9082 10.7169 4.35735C11.3502 3.80651 12.1607 3.50201 13.0001 3.49954ZM7.0001 13.4995H20.0001C20.8395 13.502 21.65 13.8065 22.2833 14.3574C22.9167 14.9082 23.3307 15.6686 23.4496 16.4995H3.55063C3.66951 15.6686 4.08348 14.9082 4.71685 14.3574C5.35023 13.8065 6.1607 13.502 7.0001 13.4995ZM23.5001 24.9995C23.499 25.9275 23.1299 26.817 22.4737 27.4732C21.8176 28.1293 20.928 28.4984 20.0001 28.4995H7.0001C6.07219 28.4984 5.1826 28.1293 4.52647 27.4732C3.87033 26.817 3.50122 25.9275 3.5001 24.9995V17.4995H23.5001V24.9995ZM28.5001 14.9995C28.499 15.9275 28.1299 16.817 27.4737 17.4732C26.8176 18.1293 25.928 18.4984 25.0001 18.4995H24.5001V16.9995C24.4988 15.8065 24.0243 14.6626 23.1806 13.819C22.337 12.9754 21.1932 12.5008 20.0001 12.4995H9.5001V7.49954H28.5001V14.9995Z" fill="black"/>
</svg>
