<svg width="32" height="32" viewBox="0 0 32 32" fill="none" xmlns="http://www.w3.org/2000/svg">
<path d="M25.0001 5.2593H7.0001C5.74076 5.26073 4.53341 5.76163 3.64292 6.65212C2.75243 7.54261 2.25153 8.74996 2.2501 10.0093V21.9888C2.25153 23.2481 2.75243 24.4555 3.64292 25.346C4.53341 26.2365 5.74076 26.7374 7.0001 26.7388H25.0001C26.2594 26.7374 27.4668 26.2365 28.3573 25.346C29.2478 24.4555 29.7487 23.2481 29.7501 21.9888V10.0093C29.7487 8.74996 29.2478 7.54261 28.3573 6.65212C27.4668 5.76163 26.2594 5.26073 25.0001 5.2593ZM3.7501 21.9888V10.0093C3.7511 9.14765 4.09383 8.32158 4.7031 7.71231C5.31238 7.10303 6.13845 6.7603 7.0001 6.7593H13.2486V25.2388H7.0001C6.13845 25.2378 5.31238 24.8951 4.7031 24.2858C4.09382 23.6765 3.7511 22.8504 3.7501 21.9888ZM28.2501 21.9888C28.2491 22.8504 27.9064 23.6765 27.2971 24.2858C26.6878 24.8951 25.8617 25.2378 25.0001 25.2388H14.7486V6.7593H25.0001C25.8617 6.7603 26.6878 7.10303 27.2971 7.71231C27.9064 8.32158 28.2491 9.14765 28.2501 10.0093V21.9888Z" fill="black"/>
<path d="M6.99521 12.7495H10.0016C10.2005 12.7495 10.3912 12.6705 10.5319 12.5299C10.6725 12.3892 10.7516 12.1985 10.7516 11.9995C10.7516 11.8006 10.6725 11.6099 10.5319 11.4692C10.3912 11.3286 10.2005 11.2495 10.0016 11.2495H6.99521C6.7963 11.2495 6.60553 11.3286 6.46488 11.4692C6.32423 11.6099 6.24521 11.8006 6.24521 11.9995C6.24521 12.1985 6.32423 12.3892 6.46488 12.5299C6.60553 12.6705 6.7963 12.7495 6.99521 12.7495Z" fill="black"/>
<path d="M10.0016 15.2495H6.99521C6.7963 15.2495 6.60553 15.3286 6.46488 15.4692C6.32423 15.6099 6.24521 15.8006 6.24521 15.9995C6.24521 16.1985 6.32423 16.3892 6.46488 16.5299C6.60553 16.6705 6.7963 16.7495 6.99521 16.7495H10.0016C10.2005 16.7495 10.3912 16.6705 10.5319 16.5299C10.6725 16.3892 10.7516 16.1985 10.7516 15.9995C10.7516 15.8006 10.6725 15.6099 10.5319 15.4692C10.3912 15.3286 10.2005 15.2495 10.0016 15.2495Z" fill="black"/>
<path d="M10.0016 19.2495H6.99521C6.7963 19.2495 6.60553 19.3286 6.46488 19.4692C6.32423 19.6099 6.24521 19.8006 6.24521 19.9995C6.24521 20.1985 6.32423 20.3892 6.46488 20.5299C6.60553 20.6705 6.7963 20.7495 6.99521 20.7495H10.0016C10.2005 20.7495 10.3912 20.6705 10.5319 20.5299C10.6725 20.3892 10.7516 20.1985 10.7516 19.9995C10.7516 19.8006 10.6725 19.6099 10.5319 19.4692C10.3912 19.3286 10.2005 19.2495 10.0016 19.2495Z" fill="black"/>
</svg>
