<svg width="32" height="32" viewBox="0 0 32 32" fill="none" xmlns="http://www.w3.org/2000/svg">
<path d="M25.0001 5.5093H7.0001C5.80703 5.5106 4.66319 5.98513 3.81956 6.82876C2.97593 7.67239 2.5014 8.81623 2.5001 10.0093V21.9888C2.5014 23.1819 2.97592 24.3257 3.81955 25.1693C4.66319 26.013 5.80702 26.4875 7.0001 26.4888H25.0001C26.1932 26.4875 27.337 26.013 28.1806 25.1693C29.0243 24.3257 29.4988 23.1819 29.5001 21.9888V10.0093C29.4988 8.81623 29.0243 7.67239 28.1806 6.82876C27.337 5.98513 26.1932 5.51061 25.0001 5.5093ZM3.5001 21.9888V10.0093C3.50122 9.08139 3.87033 8.1918 4.52647 7.53567C5.1826 6.87953 6.07219 6.51042 7.0001 6.5093H13.4986V25.4888H7.0001C6.07219 25.4877 5.1826 25.1186 4.52647 24.4624C3.87033 23.8063 3.50122 22.9167 3.5001 21.9888ZM28.5001 21.9888C28.499 22.9167 28.1299 23.8063 27.4737 24.4624C26.8176 25.1186 25.928 25.4877 25.0001 25.4888H14.4986V6.5093H25.0001C25.928 6.51042 26.8176 6.87953 27.4737 7.53567C28.1299 8.1918 28.499 9.08139 28.5001 10.0093V21.9888Z" fill="black"/>
<path d="M6.99521 12.4995H10.0016C10.1342 12.4995 10.2613 12.4469 10.3551 12.3531C10.4489 12.2593 10.5016 12.1321 10.5016 11.9995C10.5016 11.8669 10.4489 11.7398 10.3551 11.646C10.2613 11.5522 10.1342 11.4995 10.0016 11.4995H6.99521C6.8626 11.4995 6.73542 11.5522 6.64166 11.646C6.54789 11.7398 6.49521 11.8669 6.49521 11.9995C6.49521 12.1321 6.54789 12.2593 6.64166 12.3531C6.73542 12.4469 6.8626 12.4995 6.99521 12.4995Z" fill="black"/>
<path d="M10.0016 15.4995H6.99521C6.8626 15.4995 6.73542 15.5522 6.64166 15.646C6.54789 15.7398 6.49521 15.8669 6.49521 15.9995C6.49521 16.1321 6.54789 16.2593 6.64166 16.3531C6.73542 16.4469 6.8626 16.4995 6.99521 16.4995H10.0016C10.1342 16.4995 10.2613 16.4469 10.3551 16.3531C10.4489 16.2593 10.5016 16.1321 10.5016 15.9995C10.5016 15.8669 10.4489 15.7398 10.3551 15.646C10.2613 15.5522 10.1342 15.4995 10.0016 15.4995Z" fill="black"/>
<path d="M10.0016 19.4995H6.99521C6.8626 19.4995 6.73542 19.5522 6.64166 19.646C6.54789 19.7398 6.49521 19.8669 6.49521 19.9995C6.49521 20.1321 6.54789 20.2593 6.64166 20.3531C6.73542 20.4469 6.8626 20.4995 6.99521 20.4995H10.0016C10.1342 20.4995 10.2613 20.4469 10.3551 20.3531C10.4489 20.2593 10.5016 20.1321 10.5016 19.9995C10.5016 19.8669 10.4489 19.7398 10.3551 19.646C10.2613 19.5522 10.1342 19.4995 10.0016 19.4995Z" fill="black"/>
</svg>
