<svg width="32" height="32" viewBox="0 0 32 32" fill="none" xmlns="http://www.w3.org/2000/svg">
<path d="M29.4972 9.99954C29.4959 8.80647 29.0213 7.66263 28.1777 6.819C27.3341 5.97537 26.1902 5.50084 24.9972 5.49954H6.99717C5.80409 5.50084 4.66026 5.97536 3.81662 6.81899C2.97299 7.66263 2.49847 8.80647 2.49717 9.99954V21.9995C2.49847 23.1926 2.973 24.3365 3.81663 25.1801C4.66026 26.0237 5.8041 26.4982 6.99717 26.4995H9.0001C9.13271 26.4995 9.25988 26.4469 9.35365 26.3531C9.44742 26.2593 9.5001 26.1321 9.5001 25.9995C9.5001 25.8669 9.44742 25.7398 9.35365 25.646C9.25988 25.5522 9.13271 25.4995 9.0001 25.4995H6.99717C6.06926 25.4984 5.17967 25.1293 4.52354 24.4732C3.8674 23.817 3.49829 22.9275 3.49717 21.9995V11.4995H28.4972V21.9995C28.496 22.9275 28.1269 23.817 27.4708 24.4732C26.8147 25.1293 25.9251 25.4984 24.9972 25.4995H23.0001C22.8675 25.4995 22.7403 25.5522 22.6465 25.646C22.5528 25.7398 22.5001 25.8669 22.5001 25.9995C22.5001 26.1321 22.5528 26.2593 22.6465 26.3531C22.7403 26.4469 22.8675 26.4995 23.0001 26.4995H24.9972C26.1902 26.4982 27.3341 26.0237 28.1777 25.1801C29.0213 24.3364 29.4959 23.1926 29.4972 21.9995V9.99954ZM28.4972 10.4995H3.49717V9.99954C3.49829 9.07163 3.8674 8.18204 4.52354 7.52591C5.17967 6.86977 6.06926 6.50066 6.99717 6.49954H24.9972C25.9251 6.50066 26.8147 6.86977 27.4708 7.52591C28.1269 8.18204 28.496 9.07163 28.4972 9.99954V10.4995Z" fill="black"/>
<path d="M12.61 16.5991C12.5316 16.5407 12.4377 16.5064 12.3401 16.5007C12.2424 16.495 12.1452 16.518 12.0605 16.567C11.9758 16.616 11.9074 16.6887 11.8635 16.7761C11.8197 16.8636 11.8026 16.962 11.8141 17.0592L13.0636 27.5377C13.0734 27.6198 13.1035 27.6983 13.1511 27.7659C13.1987 27.8336 13.2624 27.8884 13.3364 27.9254C13.4104 27.9624 13.4924 27.9804 13.5751 27.9778C13.6578 27.9752 13.7386 27.9522 13.8102 27.9107L16.977 26.0826L18.8057 29.2495C18.8497 29.3256 18.9129 29.3887 18.989 29.4326C19.0652 29.4765 19.1515 29.4996 19.2393 29.4995C19.327 29.4997 19.4131 29.4764 19.4888 29.4321C19.5457 29.3994 19.5956 29.3558 19.6356 29.3037C19.6756 29.2517 19.705 29.1922 19.722 29.1288C19.739 29.0654 19.7433 28.9993 19.7347 28.9342C19.7261 28.8691 19.7048 28.8064 19.6719 28.7495L17.8432 25.5826L21.0103 23.7544C21.082 23.7131 21.1422 23.6546 21.1857 23.5842C21.2291 23.5138 21.2544 23.4338 21.2593 23.3512C21.2642 23.2686 21.2485 23.1861 21.2137 23.1111C21.1788 23.0361 21.1259 22.9709 21.0596 22.9214L12.61 16.5991ZM13.9669 26.6655L12.9454 18.0991L19.8536 23.2681L13.9669 26.6655Z" fill="black"/>
</svg>
