<svg width="32" height="32" viewBox="0 0 32 32" fill="none" xmlns="http://www.w3.org/2000/svg"><path d="M21.005 2.503h-10a4.505 4.505 0 0 0-4.5 4.5v10.003a4.505 4.505 0 0 0 4.5 4.5h10a4.504 4.504 0 0 0 4.5-4.5V7.003a4.505 4.505 0 0 0-4.5-4.5zm3.5 14.503a3.504 3.504 0 0 1-3.5 3.5h-10a3.504 3.504 0 0 1-3.5-3.5V7.003a3.504 3.504 0 0 1 3.5-3.5h10a3.504 3.504 0 0 1 3.5 3.5v10.003zM21.005 24.503h-10a4.505 4.505 0 0 0-4.5 4.5.5.5 0 0 0 1 0 3.504 3.504 0 0 1 3.5-3.5h10a3.504 3.504 0 0 1 3.5 3.5.5.5 0 0 0 1 0 4.505 4.505 0 0 0-4.5-4.5z" fill="#0F0F0F"/><path d="M20.647 9.23l-6.061 6.063-3.232-3.235a.5.5 0 0 0-.707.707l3.585 3.588a.5.5 0 0 0 .707 0l6.415-6.417a.5.5 0 1 0-.707-.707z" fill="#0F0F0F"/></svg>