<svg width="32" height="32" viewBox="0 0 32 32" fill="none" xmlns="http://www.w3.org/2000/svg"><path d="M21.005 2.003h-10a5.006 5.006 0 0 0-5 5v10.003a5.006 5.006 0 0 0 5 5h10a5.006 5.006 0 0 0 5-5V7.003a5.006 5.006 0 0 0-5-5zm3 15.003a3.004 3.004 0 0 1-3 3h-10a3.003 3.003 0 0 1-3-3V7.003a3.003 3.003 0 0 1 3-3h10a3.004 3.004 0 0 1 3 3v10.003zM21.005 24.003h-10a5.006 5.006 0 0 0-5 5 1 1 0 1 0 2 0 3.003 3.003 0 0 1 3-3h10a3.004 3.004 0 0 1 3 3 1 1 0 0 0 2 0 5.006 5.006 0 0 0-5-5z" fill="#0F0F0F"/><path d="M20.293 8.876l-5.707 5.709-2.878-2.88a1 1 0 0 0-1.415 1.414l3.585 3.588a1 1 0 0 0 1.415 0l6.414-6.417a1 1 0 1 0-1.414-1.414z" fill="#0F0F0F"/></svg>