<svg width="32" height="32" viewBox="0 0 32 32" fill="none" xmlns="http://www.w3.org/2000/svg">
<path d="M21.005 2.0026H11.0059C9.6803 2.00416 8.40943 2.53145 7.47209 3.46879C6.53475 4.40614 6.00746 5.677 6.0059 7.0026V17.0065C6.00746 18.3321 6.53475 19.603 7.47209 20.5403C8.40943 21.4777 9.6803 22.0049 11.0059 22.0065H21.005C22.3306 22.0049 23.6015 21.4777 24.5388 20.5403C25.4762 19.603 26.0034 18.3321 26.005 17.0065V7.0026C26.0034 5.677 25.4762 4.40614 24.5388 3.46879C23.6015 2.53145 22.3306 2.00416 21.005 2.0026ZM24.005 17.0065C24.0041 17.8019 23.6878 18.5644 23.1254 19.1269C22.5629 19.6893 21.8004 20.0056 21.005 20.0065H11.0059C10.2105 20.0056 9.44796 19.6893 8.88554 19.1269C8.32312 18.5644 8.00677 17.8019 8.0059 17.0065V7.0026C8.00677 6.20722 8.32312 5.44467 8.88554 4.88225C9.44796 4.31983 10.2105 4.00348 11.0059 4.0026H21.005C21.8004 4.00348 22.5629 4.31983 23.1254 4.88225C23.6878 5.44467 24.0041 6.20722 24.005 7.0026V17.0065Z" fill="black"/>
<path d="M21.005 24.0026H11.0059C9.6803 24.0042 8.40943 24.5314 7.47209 25.4688C6.53475 26.4061 6.00746 27.677 6.0059 29.0026C6.0059 29.2678 6.11126 29.5222 6.29879 29.7097C6.48633 29.8972 6.74068 30.0026 7.0059 30.0026C7.27112 30.0026 7.52547 29.8972 7.71301 29.7097C7.90054 29.5222 8.0059 29.2678 8.0059 29.0026C8.00677 28.2072 8.32312 27.4447 8.88554 26.8822C9.44796 26.3198 10.2105 26.0035 11.0059 26.0026H21.005C21.8004 26.0035 22.5629 26.3198 23.1254 26.8822C23.6878 27.4447 24.0041 28.2072 24.005 29.0026C24.005 29.2678 24.1104 29.5222 24.2979 29.7097C24.4854 29.8972 24.7398 30.0026 25.005 30.0026C25.2702 30.0026 25.5246 29.8972 25.7121 29.7097C25.8996 29.5222 26.005 29.2678 26.005 29.0026C26.0034 27.677 25.4762 26.4061 24.5388 25.4688C23.6015 24.5314 22.3306 24.0042 21.005 24.0026Z" fill="black"/>
<path d="M20.2931 8.8757L14.5855 14.5847L11.7076 11.7047C11.5201 11.5171 11.2657 11.4116 11.0004 11.4115C10.7351 11.4114 10.4807 11.5167 10.293 11.7043C10.1054 11.8918 9.99995 12.1462 9.99986 12.4114C9.99978 12.6767 10.1051 12.9312 10.2926 13.1188L13.878 16.7066C13.9709 16.7995 14.0811 16.8732 14.2025 16.9235C14.3239 16.9738 14.4539 16.9997 14.5853 16.9997C14.7167 16.9997 14.8467 16.9738 14.9681 16.9235C15.0895 16.8732 15.1997 16.7995 15.2926 16.7066L21.7071 10.2896C21.8026 10.1974 21.8788 10.087 21.9312 9.96501C21.9836 9.843 22.0112 9.71178 22.0124 9.579C22.0135 9.44622 21.9882 9.31454 21.9379 9.19165C21.8876 9.06875 21.8134 8.9571 21.7195 8.86321C21.6256 8.76931 21.514 8.69506 21.3911 8.64478C21.2682 8.5945 21.1365 8.5692 21.0037 8.57035C20.8709 8.57151 20.7397 8.59909 20.6177 8.6515C20.4957 8.70391 20.3853 8.78019 20.2931 8.8757Z" fill="black"/>
</svg>
