<svg width="32" height="32" viewBox="0 0 32 32" fill="none" xmlns="http://www.w3.org/2000/svg">
<path d="M12 3.5H6C5.3372 3.50079 4.70178 3.76444 4.23311 4.23311C3.76444 4.70178 3.50079 5.3372 3.5 6V12C3.50079 12.6628 3.76444 13.2982 4.23311 13.7669C4.70178 14.2356 5.3372 14.4992 6 14.5H12C12.6628 14.4992 13.2982 14.2356 13.7669 13.7669C14.2356 13.2982 14.4992 12.6628 14.5 12V6C14.4992 5.33719 14.2356 4.70176 13.7669 4.23308C13.2982 3.76441 12.6628 3.50077 12 3.5ZM13.5 12C13.4996 12.3977 13.3414 12.779 13.0602 13.0602C12.779 13.3414 12.3977 13.4996 12 13.5H6C5.60231 13.4995 5.22104 13.3414 4.93984 13.0602C4.65863 12.779 4.50045 12.3977 4.5 12V6C4.50042 5.60231 4.65859 5.22102 4.93981 4.93981C5.22102 4.65859 5.60231 4.50042 6 4.5H12C12.3977 4.50042 12.779 4.65859 13.0602 4.93981C13.3414 5.22102 13.4996 5.60231 13.5 6V12Z" fill="black"/>
<path d="M26 3.5H20C19.3372 3.50079 18.7018 3.76444 18.2331 4.23311C17.7644 4.70178 17.5008 5.3372 17.5 6V12C17.5008 12.6628 17.7644 13.2982 18.2331 13.7669C18.7018 14.2356 19.3372 14.4992 20 14.5H26C26.6628 14.4992 27.2982 14.2356 27.7669 13.7669C28.2356 13.2982 28.4992 12.6628 28.5 12V6C28.4992 5.33719 28.2356 4.70176 27.7669 4.23308C27.2982 3.76441 26.6628 3.50077 26 3.5ZM27.5 12C27.4996 12.3977 27.3414 12.779 27.0602 13.0602C26.779 13.3414 26.3977 13.4996 26 13.5H20C19.6023 13.4995 19.221 13.3414 18.9398 13.0602C18.6586 12.779 18.5005 12.3977 18.5 12V6C18.5004 5.60231 18.6586 5.22102 18.9398 4.93981C19.221 4.65859 19.6023 4.50042 20 4.5H26C26.3977 4.50042 26.779 4.65859 27.0602 4.93981C27.3414 5.22102 27.4996 5.60231 27.5 6V12Z" fill="black"/>
<path d="M23 17.5C21.9122 17.5 20.8488 17.8226 19.9444 18.4269C19.0399 19.0313 18.3349 19.8902 17.9187 20.8952C17.5024 21.9002 17.3935 23.0061 17.6057 24.073C17.8179 25.1399 18.3417 26.1199 19.1109 26.8891C19.8801 27.6583 20.8601 28.1821 21.927 28.3943C22.9939 28.6065 24.0998 28.4976 25.1048 28.0813C26.1098 27.6651 26.9687 26.9601 27.5731 26.0556C28.1774 25.1512 28.5 24.0878 28.5 23C28.4984 21.5418 27.9184 20.1438 26.8873 19.1127C25.8562 18.0816 24.4582 17.5016 23 17.5ZM23 27.5C22.11 27.5 21.24 27.2361 20.4999 26.7416C19.7599 26.2471 19.1831 25.5443 18.8425 24.7221C18.5019 23.8998 18.4128 22.995 18.5865 22.1221C18.7601 21.2492 19.1887 20.4474 19.818 19.818C20.4474 19.1887 21.2492 18.7601 22.1221 18.5865C22.995 18.4128 23.8998 18.5019 24.7221 18.8425C25.5443 19.1831 26.2471 19.7599 26.7416 20.4999C27.2361 21.24 27.5 22.11 27.5 23C27.4987 24.1931 27.0241 25.3369 26.1805 26.1805C25.3369 27.0241 24.1931 27.4987 23 27.5Z" fill="black"/>
<path d="M12 17.5H6C5.3372 17.5008 4.70178 17.7644 4.23311 18.2331C3.76444 18.7018 3.50079 19.3372 3.5 20V26C3.50079 26.6628 3.76444 27.2982 4.23311 27.7669C4.70178 28.2356 5.3372 28.4992 6 28.5H12C12.6628 28.4992 13.2982 28.2356 13.7669 27.7669C14.2356 27.2982 14.4992 26.6628 14.5 26V20C14.4992 19.3372 14.2356 18.7018 13.7669 18.2331C13.2982 17.7644 12.6628 17.5008 12 17.5ZM13.5 26C13.4996 26.3977 13.3414 26.779 13.0602 27.0602C12.779 27.3414 12.3977 27.4996 12 27.5H6C5.60231 27.4995 5.22104 27.3414 4.93984 27.0602C4.65863 26.779 4.50045 26.3977 4.5 26V20C4.50042 19.6023 4.65859 19.221 4.93981 18.9398C5.22102 18.6586 5.60231 18.5004 6 18.5H12C12.3977 18.5004 12.779 18.6586 13.0602 18.9398C13.3414 19.221 13.4996 19.6023 13.5 20V26Z" fill="black"/>
</svg>
