<svg width="32" height="32" viewBox="0 0 32 32" fill="none" xmlns="http://www.w3.org/2000/svg">
<path d="M12 3.25H6C5.27088 3.25074 4.57184 3.54071 4.05627 4.05627C3.54071 4.57184 3.25074 5.27088 3.25 6V12C3.25074 12.7291 3.54071 13.4282 4.05627 13.9437C4.57184 14.4593 5.27088 14.7493 6 14.75H12C12.7291 14.7493 13.4282 14.4593 13.9437 13.9437C14.4593 13.4282 14.7493 12.7291 14.75 12V6C14.7493 5.27088 14.4593 4.57184 13.9437 4.05627C13.4282 3.54071 12.7291 3.25074 12 3.25ZM13.25 12C13.2497 12.3314 13.1179 12.6492 12.8835 12.8835C12.6492 13.1179 12.3314 13.2497 12 13.25H6C5.66858 13.2497 5.35082 13.1179 5.11647 12.8835C4.88212 12.6492 4.75032 12.3314 4.75 12V6C4.75032 5.66858 4.88212 5.35082 5.11647 5.11647C5.35082 4.88212 5.66858 4.75032 6 4.75H12C12.3314 4.75029 12.6492 4.88208 12.8836 5.11644C13.1179 5.3508 13.2497 5.66857 13.25 6V12Z" fill="black"/>
<path d="M26 3.25H20C19.2709 3.25074 18.5718 3.54071 18.0563 4.05627C17.5407 4.57184 17.2507 5.27088 17.25 6V12C17.2507 12.7291 17.5407 13.4282 18.0563 13.9437C18.5718 14.4593 19.2709 14.7493 20 14.75H26C26.7291 14.7493 27.4282 14.4593 27.9437 13.9437C28.4593 13.4282 28.7493 12.7291 28.75 12V6C28.7493 5.27088 28.4593 4.57184 27.9437 4.05627C27.4282 3.54071 26.7291 3.25074 26 3.25ZM27.25 12C27.2497 12.3314 27.1179 12.6492 26.8835 12.8835C26.6492 13.1179 26.3314 13.2497 26 13.25H20C19.6686 13.2497 19.3508 13.1179 19.1165 12.8835C18.8821 12.6492 18.7503 12.3314 18.75 12V6C18.7503 5.66858 18.8821 5.35082 19.1165 5.11647C19.3508 4.88212 19.6686 4.75032 20 4.75H26C26.3314 4.75029 26.6492 4.88208 26.8836 5.11644C27.1179 5.3508 27.2497 5.66857 27.25 6V12Z" fill="black"/>
<path d="M23 17.25C21.8628 17.25 20.7511 17.5872 19.8055 18.219C18.8599 18.8509 18.1229 19.7489 17.6877 20.7996C17.2525 21.8502 17.1386 23.0064 17.3605 24.1218C17.5823 25.2372 18.13 26.2617 18.9341 27.0659C19.7383 27.87 20.7628 28.4177 21.8782 28.6395C22.9936 28.8614 24.1498 28.7475 25.2004 28.3123C26.2511 27.8771 27.1491 27.1401 27.781 26.1945C28.4128 25.2489 28.75 24.1372 28.75 23C28.7482 21.4755 28.1419 20.014 27.0639 18.9361C25.986 17.8581 24.5245 17.2518 23 17.25ZM23 27.25C22.1594 27.25 21.3377 27.0007 20.6388 26.5337C19.9399 26.0667 19.3952 25.403 19.0735 24.6264C18.7518 23.8498 18.6677 22.9953 18.8317 22.1709C18.9957 21.3464 19.4004 20.5892 19.9948 19.9948C20.5892 19.4004 21.3464 18.9957 22.1709 18.8317C22.9953 18.6677 23.8498 18.7518 24.6264 19.0735C25.403 19.3952 26.0667 19.9399 26.5337 20.6388C27.0007 21.3377 27.25 22.1594 27.25 23C27.2486 24.1268 26.8005 25.207 26.0037 26.0037C25.207 26.8005 24.1268 27.2486 23 27.25Z" fill="black"/>
<path d="M12 17.25H6C5.27088 17.2507 4.57184 17.5407 4.05627 18.0563C3.54071 18.5718 3.25074 19.2709 3.25 20V26C3.25074 26.7291 3.54071 27.4282 4.05627 27.9437C4.57184 28.4593 5.27088 28.7493 6 28.75H12C12.7291 28.7493 13.4282 28.4593 13.9437 27.9437C14.4593 27.4282 14.7493 26.7291 14.75 26V20C14.7493 19.2709 14.4593 18.5718 13.9437 18.0563C13.4282 17.5407 12.7291 17.2507 12 17.25ZM13.25 26C13.2497 26.3314 13.1179 26.6492 12.8835 26.8835C12.6492 27.1179 12.3314 27.2497 12 27.25H6C5.66858 27.2497 5.35082 27.1179 5.11647 26.8835C4.88212 26.6492 4.75032 26.3314 4.75 26V20C4.75032 19.6686 4.88212 19.3508 5.11647 19.1165C5.35082 18.8821 5.66858 18.7503 6 18.75H12C12.3314 18.7503 12.6492 18.8821 12.8836 19.1164C13.1179 19.3508 13.2497 19.6686 13.25 20V26Z" fill="black"/>
</svg>
