<svg xmlns="http://www.w3.org/2000/svg" width="32" height="32" viewBox="0 0 32 32"><path d="M6 29H12C12.8 29 13.56 28.68 14.12 28.12C14.68 27.56 15 26.79 15 26V20C15 19.21 14.68 18.44 14.12 17.88C13.56 17.32 12.8 17 12 17H6C5.2 17 4.44 17.32 3.88 17.88C3.32 18.44 3 19.21 3 20V26C3 26.79 3.32 27.56 3.88 28.12C4.44 28.68 5.2 29 6 29ZM12.71 19.29C12.89 19.48 13 19.74 13 20V26C13 26.26 12.89 26.52 12.71 26.71C12.52 26.89 12.27 27 12 27H6C5.73 27 5.48 26.89 5.29 26.71C5.11 26.52 5 26.26 5 26V20C5 19.74 5.11 19.48 5.29 19.29C5.48 19.11 5.73 19 6 19H12C12.27 19 12.52 19.11 12.71 19.29Z M17.88 28.12C18.44 28.68 19.2 29 20 29H26C26.8 29 27.56 28.68 28.12 28.12C28.68 27.56 29 26.79 29 26V20C29 19.21 28.68 18.44 28.12 17.88C27.56 17.32 26.8 17 26 17H20C19.2 17 18.44 17.32 17.88 17.88C17.32 18.44 17 19.21 17 20V26C17 26.79 17.32 27.56 17.88 28.12ZM26.71 19.29C26.89 19.48 27 19.74 27 20V26C27 26.26 26.89 26.52 26.71 26.71C26.52 26.89 26.27 27 26 27H20C19.73 27 19.48 26.89 19.29 26.71C19.11 26.52 19 26.26 19 26V20C19 19.74 19.11 19.48 19.29 19.29C19.48 19.11 19.73 19 20 19H26C26.27 19 26.52 19.11 26.71 19.29Z M22 8V5C22 4.45 22.45 4 23 4C23.55 4 24 4.45 24 5V8H27C27.55 8 28 8.45 28 9C28 9.55 27.55 10 27 10H24V13C24 13.55 23.55 14 23 14C22.45 14 22 13.55 22 13V10H19C18.45 10 18 9.55 18 9C18 8.45 18.45 8 19 8H22Z M6 15H12C12.8 15 13.56 14.68 14.12 14.12C14.68 13.56 15 12.79 15 12V6C15 5.21 14.68 4.44 14.12 3.88C13.56 3.32 12.8 3 12 3H6C5.2 3 4.44 3.32 3.88 3.88C3.32 4.44 3 5.21 3 6V12C3 12.79 3.32 13.56 3.88 14.12C4.44 14.68 5.2 15 6 15ZM12.71 5.29C12.89 5.48 13 5.74 13 6V12C13 12.26 12.89 12.52 12.71 12.71C12.52 12.89 12.27 13 12 13H6C5.73 13 5.48 12.89 5.29 12.71C5.11 12.52 5 12.26 5 12V6C5 5.74 5.11 5.48 5.29 5.29C5.48 5.11 5.73 5 6 5H12C12.27 5 12.52 5.11 12.71 5.29Z"/></svg>