<svg width="32" height="32" fill="none" xmlns="http://www.w3.org/2000/svg"><path fill-rule="evenodd" clip-rule="evenodd" d="M12 15H6c-.8 0-1.56-.32-2.12-.88S3 12.79 3 12V6c0-.79.32-1.56.88-2.12S5.2 3 6 3h6c.8 0 1.56.32 2.12.88S15 5.21 15 6v6c0 .79-.32 1.56-.88 2.12S12.8 15 12 15zm1-9c0-.26-.11-.52-.29-.71-.19-.18-.44-.29-.71-.29H6c-.27 0-.52.11-.71.29-.18.19-.29.45-.29.71v6c0 .26.11.52.29.71.19.18.44.29.71.29h6c.27 0 .52-.11.71-.29.18-.19.29-.45.29-.71V6zM6 29h6c.8 0 1.56-.32 2.12-.88S15 26.79 15 26v-6c0-.79-.32-1.56-.88-2.12S12.8 17 12 17H6c-.8 0-1.56.32-2.12.88S3 19.21 3 20v6c0 .79.32 1.56.88 2.12S5.2 29 6 29zm6.71-9.71c.18.19.29.45.29.71v6c0 .26-.11.52-.29.71-.19.18-.44.29-.71.29H6c-.27 0-.52-.11-.71-.29-.18-.19-.29-.45-.29-.71v-6c0-.26.11-.52.29-.71.19-.18.44-.29.71-.29h6c.27 0 .52.11.71.29zM17.88 28.12c.56.56 1.32.88 2.12.88h6c.8 0 1.56-.32 2.12-.88S29 26.79 29 26v-6c0-.79-.32-1.56-.88-2.12S26.8 17 26 17h-6c-.8 0-1.56.32-2.12.88S17 19.21 17 20v6c0 .79.32 1.56.88 2.12zm8.83-8.83c.18.19.29.45.29.71v6c0 .26-.11.52-.29.71-.19.18-.44.29-.71.29h-6c-.27 0-.52-.11-.71-.29-.18-.19-.29-.45-.29-.71v-6c0-.26.11-.52.29-.71.19-.18.44-.29.71-.29h6c.27 0 .52.11.71.29z" fill="#0F0F0F"/><path d="M22 8V5c0-.55.45-1 1-1s1 .45 1 1v3h3c.55 0 1 .45 1 1s-.45 1-1 1h-3v3c0 .55-.45 1-1 1s-1-.45-1-1v-3h-3c-.55 0-1-.45-1-1s.45-1 1-1h3z" fill="#0F0F0F"/></svg>