<svg width="32" height="32" viewBox="0 0 32 32" fill="none" xmlns="http://www.w3.org/2000/svg">
<path d="M25.0309 8.2561H7.0085C6.27938 8.25684 5.58034 8.54681 5.06477 9.06238C4.54921 9.57794 4.25924 10.277 4.2585 11.0061V22.9993C4.25993 24.2586 4.76083 25.466 5.65132 26.3565C6.54181 27.247 7.74916 27.7479 9.0085 27.7493H23.0309C24.2902 27.7478 25.4976 27.2469 26.3881 26.3564C27.2785 25.466 27.7794 24.2586 27.7809 22.9993V11.0061C27.7802 10.277 27.4902 9.57794 26.9746 9.06238C26.4591 8.54681 25.76 8.25684 25.0309 8.2561ZM26.2809 22.9993C26.2799 23.8609 25.9372 24.687 25.3279 25.2963C24.7186 25.9056 23.8925 26.2483 23.0309 26.2493H9.0085C8.14686 26.2483 7.32079 25.9056 6.71151 25.2963C6.10224 24.687 5.75951 23.8609 5.7585 22.9993V11.0061C5.75882 10.6747 5.89062 10.3569 6.12497 10.1226C6.35932 9.88822 6.67708 9.75642 7.0085 9.7561H25.0309C25.3623 9.75642 25.6801 9.88822 25.9144 10.1226C26.1488 10.3569 26.2806 10.6747 26.2809 11.0061V22.9993Z" fill="black"/>
<path d="M5 5.7522H27C27.1989 5.7522 27.3897 5.67318 27.5303 5.53253C27.671 5.39188 27.75 5.20111 27.75 5.0022C27.75 4.80329 27.671 4.61252 27.5303 4.47187C27.3897 4.33122 27.1989 4.2522 27 4.2522H5C4.80109 4.2522 4.61032 4.33122 4.46967 4.47187C4.32902 4.61252 4.25 4.80329 4.25 5.0022C4.25 5.20111 4.32902 5.39188 4.46967 5.53253C4.61032 5.67318 4.80109 5.7522 5 5.7522Z" fill="black"/>
<path d="M21 12.25H11C10.8011 12.25 10.6103 12.329 10.4697 12.4697C10.329 12.6103 10.25 12.8011 10.25 13C10.2375 13.7097 10.4019 14.4113 10.7282 15.0416C11.0544 15.672 11.5325 16.2112 12.1191 16.6108C13.2586 17.3768 14.6063 17.7733 15.9791 17.7465C18.8462 17.7465 21.7496 16.1165 21.7496 13C21.7496 12.8012 21.6706 12.6105 21.5301 12.4698C21.3895 12.3292 21.1988 12.2501 21 12.25ZM15.98 16.2465C14.9199 16.269 13.8779 15.9702 12.9907 15.3896C12.4176 15.0034 12.007 14.4195 11.8374 13.7496H20.1587C19.7213 15.4592 17.7895 16.2465 15.98 16.2465Z" fill="black"/>
</svg>
