<svg width="32" height="32" viewBox="0 0 32 32" fill="none" xmlns="http://www.w3.org/2000/svg"><path d="M25.03 8.506H7.01a2.503 2.503 0 0 0-2.5 2.5V23a4.505 4.505 0 0 0 4.5 4.5H23.03a4.504 4.504 0 0 0 4.5-4.5V11.006a2.503 2.503 0 0 0-2.5-2.5zM26.53 23a3.504 3.504 0 0 1-3.5 3.5H9.009a3.504 3.504 0 0 1-3.5-3.5V11.006a1.502 1.502 0 0 1 1.5-1.5h18.023a1.502 1.502 0 0 1 1.5 1.5V23zM5 5.502h22a.5.5 0 0 0 0-1H5a.5.5 0 1 0 0 1z" fill="#0F0F0F"/><path d="M21 12.5H11a.5.5 0 0 0-.5.5 4.038 4.038 0 0 0 1.765 3.407 6.433 6.433 0 0 0 3.714 1.09c2.743 0 5.521-1.545 5.521-4.497a.5.5 0 0 0-.5-.5zm-5.02 3.997a5.43 5.43 0 0 1-3.135-.904 3.082 3.082 0 0 1-1.31-2.093h8.929c-.302 2.054-2.464 2.997-4.484 2.997z" fill="#0F0F0F"/></svg>