<svg width="32" height="32" viewBox="0 0 32 32" fill="none" xmlns="http://www.w3.org/2000/svg">
<path d="M25.03 8.50595H7.01C6.3472 8.50675 5.71178 8.77039 5.24311 9.23906C4.77444 9.70773 4.51079 10.3432 4.51 11.006V23C4.51132 24.193 4.98585 25.3368 5.82948 26.1805C6.67311 27.0241 7.81693 27.4986 9.01 27.5H23.03C24.2231 27.4989 25.3671 27.0244 26.2108 26.1808C27.0545 25.3371 27.5289 24.1931 27.53 23V11.006C27.5292 10.3432 27.2656 9.70773 26.7969 9.23906C26.3282 8.77039 25.6928 8.50675 25.03 8.50595ZM26.53 23C26.5289 23.9279 26.1599 24.8175 25.5037 25.4737C24.8476 26.1298 23.9579 26.4989 23.03 26.5H9.009C8.08107 26.4989 7.19144 26.1298 6.5353 25.4737C5.87915 24.8175 5.51006 23.9279 5.509 23V11.006C5.50953 10.6083 5.66773 10.2271 5.94892 9.94588C6.23011 9.66469 6.61134 9.50648 7.009 9.50595H25.032C25.4297 9.50648 25.8109 9.66469 26.0921 9.94588C26.3733 10.2271 26.5315 10.6083 26.532 11.006V23H26.53ZM5 5.50195H27C27.1326 5.50195 27.2598 5.44928 27.3536 5.35551C27.4473 5.26174 27.5 5.13456 27.5 5.00195C27.5 4.86934 27.4473 4.74217 27.3536 4.6484C27.2598 4.55463 27.1326 4.50195 27 4.50195H5C4.86739 4.50195 4.74021 4.55463 4.64645 4.6484C4.55268 4.74217 4.5 4.86934 4.5 5.00195C4.5 5.13456 4.55268 5.26174 4.64645 5.35551C4.74021 5.44928 4.86739 5.50195 5 5.50195Z" fill="#0F0F0F"/>
<path d="M21.0001 12.5H11.0001C10.8675 12.5 10.7403 12.5527 10.6465 12.6464C10.5528 12.7402 10.5001 12.8674 10.5001 13C10.4886 13.6697 10.644 14.3318 10.9521 14.9265C11.2602 15.5213 11.7114 16.0301 12.2651 16.407C13.3618 17.143 14.6586 17.5236 15.9791 17.497C18.7221 17.497 21.5001 15.952 21.5001 13C21.5001 12.8674 21.4474 12.7402 21.3537 12.6464C21.2599 12.5527 21.1327 12.5 21.0001 12.5ZM15.9801 16.497C14.8671 16.5242 13.7727 16.2086 12.8451 15.593C12.4943 15.3533 12.1968 15.0436 11.9713 14.6834C11.7459 14.3232 11.5974 13.9203 11.5351 13.5H20.4641C20.1621 15.554 18.0001 16.497 15.9801 16.497Z" fill="#0F0F0F"/>
</svg>
