<svg xmlns="http://www.w3.org/2000/svg" width="32" height="32" viewBox="0 0 32 32"><path d="M27 10.75C27.464 10.7495 27.9088 10.5649 28.2369 10.2369C28.5649 9.90878 28.7495 9.46397 28.75 9V5C28.7495 4.53603 28.5649 4.09122 28.2369 3.76315C27.9088 3.43507 27.464 3.25053 27 3.25H23C22.536 3.25053 22.0912 3.43507 21.7631 3.76315C21.4351 4.09122 21.2505 4.53603 21.25 5V6.25H10.75V5C10.7495 4.53603 10.5649 4.09122 10.2369 3.76315C9.90878 3.43507 9.46397 3.25053 9 3.25H5C4.53603 3.25053 4.09122 3.43507 3.76315 3.76315C3.43507 4.09122 3.25053 4.53603 3.25 5V9C3.25053 9.46397 3.43507 9.90878 3.76315 10.2369C4.09122 10.5649 4.53603 10.7495 5 10.75H6.25V20.252H5C4.53603 20.2525 4.09122 20.4371 3.76315 20.7651C3.43507 21.0932 3.25053 21.538 3.25 22.002V26.002C3.25053 26.466 3.43507 26.9108 3.76315 27.2389C4.09122 27.5669 4.53603 27.7515 5 27.752H9C9.46397 27.7515 9.90878 27.5669 10.2369 27.2389C10.5649 26.9108 10.7495 26.466 10.75 26.002V24.75H21.25V26C21.2505 26.464 21.4351 26.9088 21.7631 27.2369C22.0912 27.5649 22.536 27.7495 23 27.75H27C27.464 27.7495 27.9088 27.5649 28.2369 27.2369C28.5649 26.9088 28.7495 26.464 28.75 26V22C28.7495 21.536 28.5649 21.0912 28.2369 20.7631C27.9088 20.4351 27.464 20.2505 27 20.25H25.75V10.75H27ZM22.75 5C22.75 4.9337 22.7763 4.87011 22.8232 4.82322C22.8701 4.77634 22.9337 4.75 23 4.75H27C27.0663 4.75 27.1299 4.77634 27.1768 4.82322C27.2237 4.87011 27.25 4.9337 27.25 5V9C27.25 9.0663 27.2237 9.12989 27.1768 9.17678C27.1299 9.22366 27.0663 9.25 27 9.25H23C22.9337 9.25 22.8701 9.22366 22.8232 9.17678C22.7763 9.12989 22.75 9.0663 22.75 9V5ZM4.75 9V5C4.75 4.9337 4.77634 4.87011 4.82322 4.82322C4.87011 4.77634 4.9337 4.75 5 4.75H9C9.0663 4.75 9.12989 4.77634 9.17678 4.82322C9.22366 4.87011 9.25 4.9337 9.25 5V9C9.25 9.0663 9.22366 9.12989 9.17678 9.17678C9.12989 9.22366 9.0663 9.25 9 9.25H5C4.9337 9.25 4.87011 9.22366 4.82322 9.17678C4.77634 9.12989 4.75 9.0663 4.75 9ZM9.25 26.002C9.25 26.0683 9.22366 26.1319 9.17678 26.1788C9.12989 26.2257 9.0663 26.252 9 26.252H5C4.9337 26.252 4.87011 26.2257 4.82322 26.1788C4.77634 26.1319 4.75 26.0683 4.75 26.002V22.002C4.75 21.9357 4.77634 21.8721 4.82322 21.8252C4.87011 21.7783 4.9337 21.752 5 21.752H9C9.0663 21.752 9.12989 21.7783 9.17678 21.8252C9.22366 21.8721 9.25 21.9357 9.25 22.002V26.002ZM27.25 22V26C27.25 26.0663 27.2237 26.1299 27.1768 26.1768C27.1299 26.2237 27.0663 26.25 27 26.25H23C22.9337 26.25 22.8701 26.2237 22.8232 26.1768C22.7763 26.1299 22.75 26.0663 22.75 26V22C22.75 21.9337 22.7763 21.8701 22.8232 21.8232C22.8701 21.7763 22.9337 21.75 23 21.75H27C27.0663 21.75 27.1299 21.7763 27.1768 21.8232C27.2237 21.8701 27.25 21.9337 27.25 22ZM24.25 20.25H23C22.536 20.2505 22.0912 20.4351 21.7631 20.7631C21.4351 21.0912 21.2505 21.536 21.25 22V23.25H10.75V22.002C10.7495 21.538 10.5649 21.0932 10.2369 20.7651C9.90878 20.4371 9.46397 20.2525 9 20.252H7.75V10.75H9C9.46397 10.7495 9.90878 10.5649 10.2369 10.2369C10.5649 9.90878 10.7495 9.46397 10.75 9V7.75H21.25V9C21.2505 9.46397 21.4351 9.90878 21.7631 10.2369C22.0912 10.5649 22.536 10.7495 23 10.75H24.25V20.25Z"/></svg>