<svg width="32" height="32" viewBox="0 0 32 32" fill="none" xmlns="http://www.w3.org/2000/svg">
<path d="M27 10.75C27.464 10.7494 27.9088 10.5649 28.2368 10.2368C28.5649 9.90875 28.7494 9.46396 28.75 9V5C28.7494 4.53604 28.5649 4.09125 28.2368 3.76318C27.9088 3.43511 27.464 3.25056 27 3.25H23C22.536 3.25058 22.0913 3.43514 21.7632 3.76321C21.4351 4.09127 21.2506 4.53605 21.25 5V6.25H10.75V5C10.7494 4.53604 10.5649 4.09125 10.2368 3.76318C9.90875 3.43511 9.46396 3.25056 9 3.25H5C4.53605 3.25058 4.09127 3.43514 3.76321 3.76321C3.43514 4.09127 3.25058 4.53605 3.25 5V9C3.25056 9.46396 3.43511 9.90875 3.76318 10.2368C4.09125 10.5649 4.53604 10.7494 5 10.75H6.25V20.252H5C4.53604 20.2526 4.09125 20.4371 3.76318 20.7652C3.43511 21.0932 3.25056 21.538 3.25 22.002V26.002C3.25064 26.4659 3.43522 26.9106 3.76328 27.2387C4.09133 27.5667 4.53608 27.7512 5 27.7518H9C9.46396 27.7512 9.90875 27.5667 10.2368 27.2386C10.5649 26.9106 10.7494 26.4658 10.75 26.0018V24.75H21.25V26C21.2506 26.464 21.4351 26.9088 21.7632 27.2368C22.0912 27.5649 22.536 27.7494 23 27.75H27C27.464 27.7494 27.9088 27.5649 28.2368 27.2368C28.5649 26.9088 28.7494 26.464 28.75 26V22C28.7494 21.536 28.5649 21.0912 28.2368 20.7632C27.9088 20.4351 27.464 20.2506 27 20.25H25.75V10.75H27ZM22.75 5C22.75 4.9337 22.7763 4.87011 22.8232 4.82322C22.8701 4.77634 22.9337 4.75 23 4.75H27C27.0663 4.75 27.1299 4.77634 27.1768 4.82322C27.2237 4.87011 27.25 4.9337 27.25 5V9C27.25 9.0663 27.2237 9.12989 27.1768 9.17678C27.1299 9.22366 27.0663 9.25 27 9.25H23C22.9337 9.25 22.8701 9.22366 22.8232 9.17678C22.7763 9.12989 22.75 9.0663 22.75 9V5ZM4.75 9V5C4.75 4.9337 4.77634 4.87011 4.82322 4.82322C4.87011 4.77634 4.9337 4.75 5 4.75H9C9.0663 4.75 9.12989 4.77634 9.17678 4.82322C9.22366 4.87011 9.25 4.9337 9.25 5V9C9.25 9.0663 9.22366 9.12989 9.17678 9.17678C9.12989 9.22366 9.0663 9.25 9 9.25H5C4.9337 9.25 4.87011 9.22366 4.82322 9.17678C4.77634 9.12989 4.75 9.0663 4.75 9ZM9.25 26.002C9.25 26.0683 9.22366 26.1319 9.17678 26.1788C9.12989 26.2257 9.0663 26.252 9 26.252H5C4.9337 26.252 4.87011 26.2257 4.82322 26.1788C4.77634 26.1319 4.75 26.0683 4.75 26.002V22.002C4.75 21.9357 4.77634 21.8721 4.82322 21.8252C4.87011 21.7783 4.9337 21.752 5 21.752H9C9.0663 21.752 9.12989 21.7783 9.17678 21.8252C9.22366 21.8721 9.25 21.9357 9.25 22.002V26.002ZM27.25 22V26C27.25 26.0663 27.2237 26.1299 27.1768 26.1768C27.1299 26.2237 27.0663 26.25 27 26.25H23C22.9337 26.25 22.8701 26.2237 22.8232 26.1768C22.7763 26.1299 22.75 26.0663 22.75 26V22C22.75 21.9337 22.7763 21.8701 22.8232 21.8232C22.8701 21.7763 22.9337 21.75 23 21.75H27C27.0663 21.75 27.1299 21.7763 27.1768 21.8232C27.2237 21.8701 27.25 21.9337 27.25 22ZM24.25 20.25H23C22.536 20.2506 22.0913 20.4351 21.7632 20.7632C21.4351 21.0913 21.2506 21.536 21.25 22V23.25H10.75V22.002C10.7495 21.538 10.565 21.0932 10.2369 20.765C9.90882 20.4369 9.46399 20.2524 9 20.2518H7.75V10.75H9C9.46396 10.7494 9.90875 10.5649 10.2368 10.2368C10.5649 9.90875 10.7494 9.46396 10.75 9V7.75H21.25V9C21.2506 9.46396 21.4351 9.90875 21.7632 10.2368C22.0912 10.5649 22.536 10.7494 23 10.75H24.25V20.25Z" fill="black"/>
</svg>
