<svg width="32" height="32" viewBox="0 0 32 32" fill="none" xmlns="http://www.w3.org/2000/svg">
<path d="M16 2.5C13.33 2.5 10.7199 3.29176 8.49981 4.77516C6.27974 6.25856 4.54942 8.36697 3.52763 10.8338C2.50585 13.3006 2.2385 16.015 2.7594 18.6337C3.28031 21.2525 4.56606 23.6579 6.45406 25.5459C8.34207 27.434 10.7475 28.7197 13.3663 29.2406C15.985 29.7615 18.6994 29.4942 21.1662 28.4724C23.633 27.4506 25.7414 25.7203 27.2248 23.5002C28.7082 21.2801 29.5 18.67 29.5 16C29.496 12.4208 28.0724 8.98932 25.5416 6.45844C23.0107 3.92756 19.5792 2.50397 16 2.5ZM21.707 14.707L16.707 19.707C16.5195 19.8945 16.2652 19.9998 16 19.9998C15.7348 19.9998 15.4805 19.8945 15.293 19.707L10.293 14.707C10.1975 14.6148 10.1213 14.5044 10.0689 14.3824C10.0165 14.2604 9.98891 14.1292 9.98776 13.9964C9.9866 13.8636 10.0119 13.7319 10.0622 13.609C10.1125 13.4861 10.1867 13.3745 10.2806 13.2806C10.3745 13.1867 10.4862 13.1125 10.6091 13.0622C10.7319 13.0119 10.8636 12.9866 10.9964 12.9877C11.1292 12.9889 11.2604 13.0165 11.3824 13.0689C11.5044 13.1213 11.6148 13.1975 11.707 13.293L16 17.586L20.293 13.293C20.4816 13.1108 20.7342 13.01 20.9964 13.0123C21.2586 13.0146 21.5094 13.1198 21.6948 13.3052C21.8802 13.4906 21.9854 13.7414 21.9877 14.0036C21.99 14.2658 21.8892 14.5184 21.707 14.707Z" fill="#0F0F0F"/>
</svg>
