<svg width="32" height="32" viewBox="0 0 32 32" fill="none" xmlns="http://www.w3.org/2000/svg">
<path d="M17.9998 21.9999C17.8684 22.0002 17.7383 21.9744 17.617 21.9241C17.4956 21.8738 17.3855 21.8 17.2928 21.7069L12.2928 16.7069C12.1053 16.5194 12 16.2651 12 15.9999C12 15.7348 12.1053 15.4804 12.2928 15.2929L17.2928 10.2929C17.4814 10.1108 17.734 10.01 17.9962 10.0122C18.2584 10.0145 18.5092 10.1197 18.6946 10.3051C18.88 10.4905 18.9852 10.7413 18.9875 11.0035C18.9897 11.2657 18.8889 11.5183 18.7068 11.7069L14.4138 15.9999L18.7068 20.2929C18.8466 20.4328 18.9418 20.6109 18.9804 20.8049C19.0189 20.9988 18.9991 21.1999 18.9235 21.3826C18.8478 21.5653 18.7197 21.7214 18.5552 21.8313C18.3908 21.9412 18.1975 21.9999 17.9998 21.9999Z" fill="#0F0F0F"/>
<path d="M16 30C13.2311 30 10.5243 29.1789 8.22202 27.6406C5.91973 26.1022 4.12532 23.9157 3.06569 21.3576C2.00607 18.7994 1.72882 15.9845 2.26901 13.2687C2.80921 10.553 4.14258 8.05845 6.10051 6.10051C8.05845 4.14258 10.553 2.80921 13.2687 2.26901C15.9845 1.72882 18.7994 2.00607 21.3576 3.06569C23.9157 4.12532 26.1022 5.91973 27.6406 8.22202C29.1789 10.5243 30 13.2311 30 16C29.9958 19.7117 28.5194 23.2702 25.8948 25.8948C23.2702 28.5194 19.7117 29.9958 16 30ZM16 4.00001C13.6266 4.00001 11.3066 4.70379 9.33316 6.02237C7.35977 7.34095 5.8217 9.21509 4.91345 11.4078C4.0052 13.6005 3.76756 16.0133 4.23058 18.3411C4.69361 20.6689 5.83649 22.8071 7.51472 24.4853C9.19295 26.1635 11.3312 27.3064 13.6589 27.7694C15.9867 28.2325 18.3995 27.9948 20.5922 27.0866C22.7849 26.1783 24.6591 24.6402 25.9776 22.6668C27.2962 20.6935 28 18.3734 28 16C27.9966 12.8185 26.7312 9.76822 24.4815 7.51853C22.2318 5.26883 19.1815 4.00345 16 4.00001Z" fill="#0F0F0F"/>
</svg>
