<svg width="32" height="32" viewBox="0 0 32 32" fill="none" xmlns="http://www.w3.org/2000/svg">
<path d="M16 29.75C13.2805 29.75 10.6221 28.9436 8.36092 27.4327C6.09974 25.9218 4.33737 23.7744 3.29666 21.2619C2.25596 18.7494 1.98366 15.9847 2.51421 13.3175C3.04476 10.6503 4.35432 8.20025 6.27729 6.27728C8.20026 4.35431 10.6503 3.04475 13.3175 2.5142C15.9848 1.98365 18.7494 2.25595 21.2619 3.29665C23.7744 4.33736 25.9218 6.09973 27.4327 8.36091C28.9436 10.6221 29.75 13.2805 29.75 16C29.7459 19.6455 28.2959 23.1404 25.7182 25.7182C23.1405 28.2959 19.6455 29.7459 16 29.75ZM16 3.75C13.5772 3.75 11.2088 4.46845 9.19427 5.8145C7.17977 7.16054 5.60966 9.07373 4.68248 11.3121C3.75531 13.5505 3.51272 16.0136 3.98539 18.3899C4.45806 20.7661 5.62475 22.9489 7.33795 24.6621C9.05114 26.3752 11.2339 27.5419 13.6102 28.0146C15.9864 28.4873 18.4495 28.2447 20.6879 27.3175C22.9263 26.3903 24.8395 24.8202 26.1855 22.8057C27.5316 20.7912 28.25 18.4228 28.25 16C28.2464 12.7522 26.9546 9.63846 24.6581 7.34192C22.3615 5.04538 19.2478 3.7536 16 3.75Z" fill="black"/>
<path d="M14 21.75C13.8518 21.7499 13.7069 21.7058 13.5837 21.6234C13.4605 21.541 13.3644 21.4239 13.3077 21.2869C13.251 21.15 13.2362 20.9993 13.265 20.8539C13.2939 20.7085 13.3653 20.5749 13.47 20.47L17.94 16L13.47 11.53C13.3963 11.4613 13.3372 11.3785 13.2962 11.2865C13.2552 11.1945 13.2332 11.0952 13.2314 10.9945C13.2296 10.8938 13.2482 10.7938 13.2859 10.7004C13.3236 10.607 13.3798 10.5222 13.451 10.451C13.5222 10.3797 13.607 10.3236 13.7004 10.2859C13.7938 10.2482 13.8938 10.2296 13.9945 10.2314C14.0952 10.2332 14.1945 10.2552 14.2865 10.2962C14.3785 10.3372 14.4613 10.3963 14.53 10.47L19.53 15.47C19.6706 15.6106 19.7496 15.8014 19.7496 16.0002C19.7496 16.1991 19.6706 16.3899 19.53 16.5305L14.53 21.5305C14.4605 21.6002 14.3778 21.6554 14.2869 21.6931C14.1959 21.7308 14.0984 21.7501 14 21.75Z" fill="black"/>
</svg>
