<svg width="32" height="32" viewBox="0 0 32 32" fill="none" xmlns="http://www.w3.org/2000/svg">
<path d="M21.0002 18.9999C20.9345 19.0001 20.8694 18.9873 20.8086 18.9622C20.7479 18.9372 20.6927 18.9004 20.6462 18.8539L16.0002 14.2069L11.3542 18.8529C11.2599 18.944 11.1336 18.9944 11.0025 18.9932C10.8714 18.9921 10.746 18.9395 10.6533 18.8468C10.5606 18.7541 10.508 18.6287 10.5069 18.4976C10.5057 18.3665 10.5561 18.2402 10.6472 18.1459L15.6472 13.1459C15.741 13.0522 15.8681 12.9995 16.0007 12.9995C16.1333 12.9995 16.2604 13.0522 16.3542 13.1459L21.3542 18.1459C21.4243 18.2158 21.4721 18.305 21.4914 18.4021C21.5108 18.4992 21.5009 18.5999 21.463 18.6914C21.4251 18.7828 21.3608 18.861 21.2784 18.9159C21.1961 18.9709 21.0992 19.0001 21.0002 18.9999Z" fill="#0F0F0F"/>
<path d="M16 29.5C13.33 29.5 10.7199 28.7082 8.49981 27.2248C6.27974 25.7414 4.54942 23.633 3.52763 21.1662C2.50585 18.6994 2.2385 15.985 2.7594 13.3663C3.28031 10.7475 4.56606 8.34207 6.45406 6.45406C8.34207 4.56606 10.7475 3.28031 13.3663 2.7594C15.985 2.2385 18.6994 2.50585 21.1662 3.52763C23.633 4.54942 25.7414 6.27974 27.2248 8.49981C28.7082 10.7199 29.5 13.33 29.5 16C29.496 19.5792 28.0724 23.0107 25.5416 25.5416C23.0107 28.0724 19.5792 29.496 16 29.5ZM16 3.50001C13.5277 3.50001 11.111 4.23312 9.05538 5.60664C6.99976 6.98015 5.39761 8.93239 4.45151 11.2165C3.50542 13.5005 3.25787 16.0139 3.74019 18.4386C4.22251 20.8634 5.41302 23.0907 7.16117 24.8388C8.90933 26.587 11.1366 27.7775 13.5614 28.2598C15.9861 28.7421 18.4995 28.4946 20.7835 27.5485C23.0676 26.6024 25.0199 25.0002 26.3934 22.9446C27.7669 20.889 28.5 18.4723 28.5 16C28.4963 12.6859 27.1781 9.50867 24.8347 7.16526C22.4913 4.82186 19.3141 3.50371 16 3.50001Z" fill="#0F0F0F"/>
</svg>
