<svg width="32" height="32" viewBox="0 0 32 32" fill="none" xmlns="http://www.w3.org/2000/svg">
<path d="M16 29.5C13.33 29.5 10.7199 28.7082 8.49981 27.2248C6.27974 25.7414 4.54942 23.633 3.52763 21.1662C2.50585 18.6994 2.2385 15.985 2.7594 13.3663C3.28031 10.7475 4.56606 8.34207 6.45406 6.45406C8.34207 4.56606 10.7475 3.28031 13.3663 2.7594C15.985 2.2385 18.6994 2.50585 21.1662 3.52763C23.633 4.54942 25.7414 6.27974 27.2248 8.49981C28.7082 10.7199 29.5 13.33 29.5 16C29.496 19.5792 28.0724 23.0107 25.5416 25.5416C23.0107 28.0724 19.5792 29.496 16 29.5ZM16 3.50001C13.5277 3.50001 11.111 4.23312 9.05538 5.60664C6.99976 6.98015 5.39761 8.93239 4.45151 11.2165C3.50542 13.5005 3.25787 16.0139 3.74019 18.4386C4.22251 20.8634 5.41302 23.0907 7.16117 24.8388C8.90933 26.587 11.1366 27.7775 13.5614 28.2598C15.9861 28.7421 18.4995 28.4946 20.7835 27.5485C23.0676 26.6024 25.0199 25.0002 26.3934 22.9446C27.7669 20.889 28.5 18.4723 28.5 16C28.4963 12.6859 27.1781 9.50867 24.8347 7.16526C22.4913 4.82186 19.3141 3.50371 16 3.50001Z" fill="#0F0F0F"/>
<path d="M13.4999 21.4999C13.4009 21.5001 13.3041 21.4709 13.2217 21.416C13.1393 21.361 13.0751 21.2829 13.0371 21.1914C12.9992 21.0999 12.9893 20.9993 13.0087 20.9022C13.028 20.805 13.0758 20.7159 13.1459 20.6459L17.7939 15.9999L13.1479 11.3539C13.0568 11.2596 13.0064 11.1333 13.0076 11.0022C13.0087 10.8711 13.0613 10.7457 13.154 10.653C13.2467 10.5603 13.3721 10.5077 13.5032 10.5066C13.6343 10.5055 13.7606 10.5559 13.8549 10.6469L18.8549 15.6469C18.9487 15.7407 19.0013 15.8679 19.0013 16.0004C19.0013 16.133 18.9487 16.2602 18.8549 16.3539L13.8549 21.3539C13.8084 21.4003 13.7532 21.4371 13.6924 21.4622C13.6317 21.4872 13.5666 21.5001 13.5009 21.4999H13.4999Z" fill="#0F0F0F"/>
</svg>
