<svg width="32" height="32" viewBox="0 0 32 32" fill="none" xmlns="http://www.w3.org/2000/svg">
<path d="M21 19C20.8687 19.0002 20.7386 18.9743 20.6173 18.9241C20.4959 18.8738 20.3857 18.8 20.293 18.707L16 14.4142L11.707 18.7071C11.6148 18.8026 11.5044 18.8788 11.3824 18.9312C11.2604 18.9836 11.1292 19.0112 10.9964 19.0123C10.8636 19.0135 10.7319 18.9882 10.6091 18.9379C10.4862 18.8876 10.3745 18.8134 10.2806 18.7195C10.1867 18.6256 10.1125 18.5139 10.0622 18.3911C10.0119 18.2682 9.9866 18.1365 9.98775 18.0037C9.98891 17.8709 10.0165 17.7397 10.0689 17.6177C10.1213 17.4957 10.1975 17.3853 10.293 17.2931L15.293 12.2931C15.3858 12.2002 15.496 12.1265 15.6173 12.0762C15.7387 12.0259 15.8687 12.0001 16 12.0001C16.1313 12.0001 16.2614 12.0259 16.3827 12.0762C16.504 12.1265 16.6142 12.2002 16.707 12.2931L21.707 17.2931C21.8468 17.433 21.942 17.6111 21.9805 17.805C22.0191 17.999 21.9992 18.2 21.9236 18.3827C21.8479 18.5653 21.7198 18.7215 21.5554 18.8314C21.391 18.9413 21.1977 18.9999 21 19Z" fill="black"/>
<path d="M16 30C13.2311 30 10.5243 29.1789 8.22202 27.6406C5.91973 26.1022 4.12532 23.9157 3.06569 21.3576C2.00607 18.7994 1.72882 15.9845 2.26901 13.2687C2.80921 10.553 4.14258 8.05844 6.10051 6.1005C8.05845 4.14257 10.553 2.8092 13.2687 2.269C15.9845 1.72881 18.7994 2.00606 21.3576 3.06569C23.9157 4.12531 26.1022 5.91973 27.6406 8.22201C29.1789 10.5243 30 13.2311 30 16C29.9958 19.7117 28.5195 23.2703 25.8949 25.8949C23.2703 28.5195 19.7118 29.9958 16 30ZM16 4C13.6266 4 11.3066 4.70379 9.33316 6.02236C7.35977 7.34094 5.8217 9.21508 4.91345 11.4078C4.0052 13.6005 3.76756 16.0133 4.23058 18.3411C4.69361 20.6689 5.83649 22.807 7.51472 24.4853C9.19296 26.1635 11.3312 27.3064 13.6589 27.7694C15.9867 28.2324 18.3995 27.9948 20.5922 27.0866C22.7849 26.1783 24.6591 24.6402 25.9776 22.6668C27.2962 20.6935 28 18.3734 28 16C27.9965 12.8185 26.731 9.7683 24.4814 7.51863C22.2317 5.26897 19.1815 4.00355 16 4Z" fill="black"/>
</svg>
