<svg width="32" height="32" viewBox="0 0 32 32" fill="none" xmlns="http://www.w3.org/2000/svg">
<path d="M26.3536 12.6462L16.3542 2.6468C16.2602 2.55309 16.1328 2.50047 16.0001 2.50047C15.8674 2.50047 15.74 2.55309 15.646 2.6468L5.6466 12.6462C5.59885 12.6923 5.56076 12.7475 5.53455 12.8085C5.50835 12.8695 5.49455 12.9351 5.49398 13.0015C5.4934 13.0679 5.50605 13.1337 5.53119 13.1952C5.55633 13.2566 5.59346 13.3125 5.6404 13.3594C5.68735 13.4063 5.74318 13.4435 5.80462 13.4686C5.86607 13.4938 5.93191 13.5064 5.9983 13.5058C6.06469 13.5052 6.1303 13.4915 6.1913 13.4653C6.25231 13.439 6.30748 13.401 6.3536 13.3532L15.5 4.2067V29C15.5 29.1326 15.5527 29.2598 15.6464 29.3536C15.7402 29.4473 15.8674 29.5 16 29.5C16.1326 29.5 16.2598 29.4473 16.3536 29.3536C16.4473 29.2598 16.5 29.1326 16.5 29V4.2067L25.6465 13.3532C25.6926 13.401 25.7478 13.439 25.8088 13.4653C25.8698 13.4915 25.9354 13.5052 26.0018 13.5058C26.0682 13.5064 26.134 13.4938 26.1955 13.4686C26.2569 13.4435 26.3128 13.4063 26.3597 13.3594C26.4066 13.3125 26.4438 13.2566 26.4689 13.1952C26.4941 13.1337 26.5067 13.0679 26.5061 13.0015C26.5056 12.9351 26.4918 12.8695 26.4656 12.8085C26.4393 12.7475 26.4013 12.6923 26.3535 12.6462H26.3536Z" fill="black"/>
</svg>
