<svg width="32" height="32" viewBox="0 0 32 32" fill="none" xmlns="http://www.w3.org/2000/svg">
<path d="M21.0001 19C20.8687 19.0002 20.7387 18.9744 20.6173 18.9241C20.496 18.8738 20.3858 18.8 20.2931 18.707L16.0001 14.414L11.7071 18.707C11.6148 18.8025 11.5045 18.8787 11.3825 18.9311C11.2605 18.9835 11.1293 19.0111 10.9965 19.0123C10.8637 19.0134 10.732 18.9881 10.6091 18.9379C10.4862 18.8876 10.3746 18.8133 10.2807 18.7194C10.1868 18.6255 10.1125 18.5139 10.0623 18.391C10.012 18.2681 9.98668 18.1364 9.98783 18.0036C9.98898 17.8709 10.0166 17.7396 10.069 17.6176C10.1214 17.4956 10.1976 17.3853 10.2931 17.293L15.2931 12.293C15.4806 12.1056 15.7349 12.0002 16.0001 12.0002C16.2652 12.0002 16.5196 12.1056 16.7071 12.293L21.7071 17.293C21.8469 17.4329 21.9421 17.611 21.9807 17.805C22.0192 17.999 21.9994 18.2 21.9238 18.3827C21.8481 18.5654 21.7199 18.7215 21.5555 18.8314C21.3911 18.9413 21.1978 19 21.0001 19Z" fill="#0F0F0F"/>
<path d="M16 30C13.2311 30 10.5243 29.1789 8.22202 27.6406C5.91973 26.1022 4.12532 23.9157 3.06569 21.3576C2.00607 18.7994 1.72882 15.9845 2.26901 13.2687C2.80921 10.553 4.14258 8.05845 6.10051 6.10051C8.05845 4.14258 10.553 2.80921 13.2687 2.26901C15.9845 1.72882 18.7994 2.00607 21.3576 3.06569C23.9157 4.12532 26.1022 5.91973 27.6406 8.22202C29.1789 10.5243 30 13.2311 30 16C29.9958 19.7117 28.5194 23.2702 25.8948 25.8948C23.2702 28.5194 19.7117 29.9958 16 30ZM16 4.00001C13.6266 4.00001 11.3066 4.70379 9.33316 6.02237C7.35977 7.34095 5.8217 9.21509 4.91345 11.4078C4.0052 13.6005 3.76756 16.0133 4.23058 18.3411C4.69361 20.6689 5.83649 22.8071 7.51472 24.4853C9.19295 26.1635 11.3312 27.3064 13.6589 27.7694C15.9867 28.2325 18.3995 27.9948 20.5922 27.0866C22.7849 26.1783 24.6591 24.6402 25.9776 22.6668C27.2962 20.6935 28 18.3734 28 16C27.9966 12.8185 26.7312 9.76822 24.4815 7.51853C22.2318 5.26883 19.1815 4.00345 16 4.00001Z" fill="#0F0F0F"/>
</svg>
