<svg width="32" height="32" viewBox="0 0 32 32" fill="none" xmlns="http://www.w3.org/2000/svg">
<path d="M28.3531 9.6467C28.2593 9.55293 28.1322 9.50026 27.9996 9.50026C27.8669 9.50026 27.7398 9.55293 27.646 9.6467L16 21.2932L4.35361 9.6467C4.3074 9.5993 4.25224 9.56155 4.19133 9.53563C4.13042 9.50972 4.06497 9.49615 3.99878 9.49573C3.93259 9.49531 3.86697 9.50803 3.80573 9.53316C3.74449 9.5583 3.68886 9.59534 3.64205 9.64214C3.59524 9.68894 3.55819 9.74458 3.53304 9.80581C3.5079 9.86704 3.49517 9.93266 3.49558 9.99885C3.496 10.065 3.50955 10.1305 3.53546 10.1914C3.56137 10.2523 3.59911 10.3075 3.64651 10.3537L15.6465 22.3537C15.7403 22.4475 15.8674 22.5001 16.0001 22.5001C16.1327 22.5001 16.2598 22.4475 16.3536 22.3537L28.3536 10.3537C28.4473 10.2599 28.4998 10.1327 28.4997 10.0001C28.4997 9.86751 28.4469 9.7404 28.3531 9.6467Z" fill="black"/>
</svg>
