<svg xmlns="http://www.w3.org/2000/svg" width="32" height="32" viewBox="0 0 32 32"><path d="M28.5298 9.46983C28.3892 9.32938 28.1986 9.25049 27.9998 9.25049C27.8011 9.25049 27.6105 9.32938 27.4698 9.46983L15.9998 20.9398L4.52985 9.46983C4.38767 9.33735 4.19963 9.26522 4.00532 9.26865C3.81102 9.27208 3.62564 9.35079 3.48822 9.48821C3.35081 9.62562 3.2721 9.81101 3.26867 10.0053C3.26524 10.1996 3.33737 10.3877 3.46985 10.5298L15.4698 22.5298C15.6105 22.6703 15.8011 22.7492 15.9998 22.7492C16.1986 22.7492 16.3892 22.6703 16.5298 22.5298L28.5298 10.5298C28.6703 10.3892 28.7492 10.1986 28.7492 9.99983C28.7492 9.80108 28.6703 9.61045 28.5298 9.46983Z"/></svg>