<svg width="32" height="32" viewBox="0 0 32 32" fill="none" xmlns="http://www.w3.org/2000/svg">
<path d="M26.7071 12.2927L16.7078 2.2934C16.5198 2.10623 16.2653 2.00115 16.0001 2.00115C15.7348 2.00115 15.4804 2.10623 15.2924 2.2934L5.29308 12.2927C5.19757 12.3849 5.12139 12.4953 5.06898 12.6173C5.01657 12.7393 4.98898 12.8705 4.98783 13.0033C4.98668 13.1361 5.01198 13.2678 5.06226 13.3907C5.11254 13.5135 5.18679 13.6252 5.28069 13.7191C5.37458 13.813 5.48623 13.8872 5.60913 13.9375C5.73202 13.9878 5.8637 14.0131 5.99648 14.0119C6.12926 14.0108 6.26048 13.9832 6.38249 13.9308C6.50449 13.8784 6.61483 13.8022 6.70708 13.7067L15 5.4138V29C15 29.2652 15.1053 29.5196 15.2929 29.7071C15.4804 29.8946 15.7348 30 16 30C16.2652 30 16.5196 29.8946 16.7071 29.7071C16.8946 29.5196 17 29.2652 17 29V5.4138L25.293 13.7067C25.3852 13.8022 25.4956 13.8784 25.6176 13.9308C25.7396 13.9832 25.8708 14.0108 26.0036 14.0119C26.1364 14.0131 26.268 13.9878 26.3909 13.9375C26.5138 13.8872 26.6255 13.813 26.7194 13.7191C26.8133 13.6252 26.8875 13.5135 26.9378 13.3907C26.9881 13.2678 27.0134 13.1361 27.0122 13.0033C27.0111 12.8705 26.9835 12.7393 26.9311 12.6173C26.8787 12.4953 26.8025 12.3849 26.707 12.2927H26.7071Z" fill="black"/>
</svg>
