<svg width="32" height="32" viewBox="0 0 32 32" fill="none" xmlns="http://www.w3.org/2000/svg">
<path d="M16 20C15.8687 20.0002 15.7386 19.9743 15.6173 19.9241C15.4959 19.8738 15.3857 19.8 15.293 19.707L10.293 14.707C10.1975 14.6148 10.1213 14.5044 10.0689 14.3824C10.0165 14.2604 9.9889 14.1292 9.98775 13.9964C9.98659 13.8636 10.0119 13.7319 10.0622 13.609C10.1125 13.4861 10.1867 13.3745 10.2806 13.2806C10.3745 13.1867 10.4861 13.1125 10.609 13.0622C10.7319 13.0119 10.8636 12.9866 10.9964 12.9877C11.1292 12.9889 11.2604 13.0165 11.3824 13.0689C11.5044 13.1213 11.6148 13.1975 11.707 13.293L16 17.586L20.293 13.2931C20.3852 13.1976 20.4956 13.1214 20.6176 13.069C20.7396 13.0166 20.8708 12.989 21.0036 12.9878C21.1364 12.9867 21.2681 13.012 21.391 13.0623C21.5138 13.1126 21.6255 13.1868 21.7194 13.2807C21.8133 13.3746 21.8875 13.4862 21.9378 13.6091C21.9881 13.732 22.0134 13.8637 22.0122 13.9965C22.0111 14.1293 21.9835 14.2605 21.9311 14.3825C21.8787 14.5045 21.8025 14.6149 21.707 14.7071L16.707 19.7071C16.6143 19.8001 16.5041 19.8738 16.3827 19.9241C16.2614 19.9744 16.1313 20.0002 16 20Z" fill="black"/>
<path d="M16 30C13.2311 30 10.5243 29.1789 8.22201 27.6406C5.91973 26.1022 4.12531 23.9157 3.06569 21.3576C2.00606 18.7994 1.72881 15.9845 2.269 13.2687C2.8092 10.553 4.14257 8.05844 6.1005 6.1005C8.05844 4.14257 10.553 2.8092 13.2687 2.269C15.9845 1.72881 18.7994 2.00606 21.3576 3.06569C23.9157 4.12531 26.1022 5.91973 27.6406 8.22201C29.1789 10.5243 30 13.2311 30 16C29.9958 19.7117 28.5195 23.2703 25.8949 25.8949C23.2703 28.5195 19.7117 29.9958 16 30ZM16 4C13.6266 4 11.3065 4.70379 9.33316 6.02236C7.35977 7.34094 5.8217 9.21508 4.91344 11.4078C4.00519 13.6005 3.76755 16.0133 4.23058 18.3411C4.6936 20.6689 5.83649 22.807 7.51472 24.4853C9.19295 26.1635 11.3311 27.3064 13.6589 27.7694C15.9867 28.2324 18.3995 27.9948 20.5922 27.0866C22.7849 26.1783 24.6591 24.6402 25.9776 22.6668C27.2962 20.6935 28 18.3734 28 16C27.9965 12.8185 26.731 9.7683 24.4814 7.51863C22.2317 5.26897 19.1815 4.00355 16 4Z" fill="black"/>
</svg>
