<svg xmlns="http://www.w3.org/2000/svg" width="32" height="32" viewBox="0 0 32 32"><path d="M23.0601 2.94019C23.341 3.22144 23.4988 3.60269 23.4988 4.00019C23.4988 4.39769 23.341 4.77894 23.0601 5.06019L12.1221 16.0002L23.0621 26.9402C23.3352 27.2232 23.4863 27.6022 23.4827 27.9955C23.479 28.3888 23.3211 28.7649 23.0429 29.0429C22.7646 29.3209 22.3883 29.4785 21.995 29.4817C21.6017 29.4849 21.2229 29.3336 20.9401 29.0602L9.11613 17.2382C8.78821 16.91 8.604 16.4651 8.604 16.0012C8.604 15.5373 8.78821 15.0923 9.11613 14.7642L20.9401 2.93919C21.0794 2.7998 21.2448 2.68923 21.4269 2.61378C21.6089 2.53834 21.8041 2.49951 22.0011 2.49951C22.1982 2.49951 22.3933 2.53834 22.5754 2.61378C22.7574 2.68923 22.9228 2.7998 23.0621 2.93919L23.0601 2.94019Z"/></svg>