<svg width="32" height="32" viewBox="0 0 32 32" fill="none" xmlns="http://www.w3.org/2000/svg">
<path d="M16.5053 29C13.8353 29 11.2252 28.2082 9.0051 26.7248C6.78504 25.2414 5.05471 23.133 4.03293 20.6662C3.01114 18.1994 2.7438 15.485 3.2647 12.8663C3.7856 10.2475 5.07135 7.84207 6.95936 5.95406C8.84737 4.06605 11.2528 2.7803 13.8716 2.2594C16.4903 1.7385 19.2047 2.00584 21.6715 3.02763C24.1383 4.04941 26.2467 5.77974 27.7301 7.9998C29.2135 10.2199 30.0053 12.83 30.0053 15.5C30.0013 19.0792 28.5777 22.5107 26.0468 25.0415C23.516 27.5724 20.0845 28.996 16.5053 29ZM16.5053 3C14.033 3 11.6163 3.73311 9.56067 5.10663C7.50506 6.48015 5.9029 8.43238 4.95681 10.7165C4.01071 13.0005 3.76317 15.5139 4.24548 17.9386C4.7278 20.3634 5.91831 22.5907 7.66647 24.3388C9.41462 26.087 11.6419 27.2775 14.0667 27.7598C16.4914 28.2421 19.0048 27.9946 21.2888 27.0485C23.5729 26.1024 25.5252 24.5002 26.8987 22.4446C28.2722 20.389 29.0053 17.9723 29.0053 15.5C29.0016 12.1859 27.6834 9.00868 25.34 6.66529C22.9966 4.32189 19.8194 3.00373 16.5053 3Z" fill="black"/>
<path d="M14.0053 21C13.9064 21 13.8098 20.9706 13.7276 20.9157C13.6454 20.8608 13.5813 20.7827 13.5435 20.6913C13.5056 20.6 13.4957 20.4995 13.515 20.4025C13.5343 20.3055 13.5819 20.2164 13.6518 20.1465L18.2983 15.5L13.6518 10.8535C13.56 10.7593 13.509 10.6328 13.5098 10.5013C13.5107 10.3698 13.5633 10.2439 13.6563 10.1509C13.7493 10.0579 13.8752 10.0053 14.0067 10.0045C14.1382 10.0037 14.2647 10.0547 14.3589 10.1465L19.3589 15.1465C19.4526 15.2403 19.5053 15.3674 19.5053 15.5C19.5053 15.6326 19.4526 15.7597 19.3589 15.8535L14.3589 20.8535C14.3125 20.9 14.2574 20.9369 14.1967 20.962C14.136 20.9872 14.071 21.0001 14.0053 21Z" fill="black"/>
</svg>
