<svg width="32" height="32" viewBox="0 0 32 32" fill="none" xmlns="http://www.w3.org/2000/svg"><path d="M16.006 22.75a1 1 0 1 0 0-2 1 1 0 0 0 0 2zM16 10.25A3.755 3.755 0 0 0 12.25 14a.75.75 0 0 0 1.5 0A2.25 2.25 0 1 1 16 16.25a.75.75 0 0 0-.75.75v1.462a.75.75 0 1 0 1.5 0v-.787A3.75 3.75 0 0 0 16 10.25z" fill="#0F0F0F"/><path d="M16 3.25A12.752 12.752 0 0 0 5.216 22.808a5.204 5.204 0 0 1-2.313 3.277 1.132 1.132 0 0 0-.508 1.572c.412.704 1.898 1.1 3.68 1.1a12.2 12.2 0 0 0 4.94-1.018 12.63 12.63 0 0 0 4.983 1.011 12.75 12.75 0 0 0 0-25.5zm0 24a11.15 11.15 0 0 1-4.687-1.02.75.75 0 0 0-.66.015 10.496 10.496 0 0 1-6.516.803 6.543 6.543 0 0 0 2.608-4.333.75.75 0 0 0-.12-.495 11.25 11.25 0 1 1 9.374 5.03z" fill="#0F0F0F"/></svg>