<svg id="Layer_1" data-name="Layer 1" xmlns="http://www.w3.org/2000/svg" viewBox="0 0 32 32"><defs><style>.cls-1{fill:#0f0f0f;fill-rule:evenodd;}</style></defs><path class="cls-1" d="M28.61,12.845A13,13,0,1,0,4.953,22.858a4.988,4.988,0,0,1-2.187,3.018,1.383,1.383,0,0,0-.7.829,1.365,1.365,0,0,0-.053.55,1.388,1.388,0,0,0,.166.528c.479.817,2.027,1.225,3.848,1.225a12.805,12.805,0,0,0,4.991-1A13,13,0,0,0,28.61,12.845ZM16.006,23a1.25,1.25,0,1,1,1.25-1.25A1.25,1.25,0,0,1,16.006,23Zm3.305-6.755A4,4,0,0,1,17,17.873v.589a1,1,0,0,1-2,0V17a1,1,0,0,1,1-1,2,2,0,1,0-2-2,1,1,0,0,1-2,0,4,4,0,1,1,7.311,2.245Z"/></svg>