<svg width="32" height="32" viewBox="0 0 32 32" fill="none" xmlns="http://www.w3.org/2000/svg">
<path fill-rule="evenodd" clip-rule="evenodd" d="M9.41003 4.79503C11.237 3.72081 13.299 3.1095 15.4163 3.01434C17.5336 2.91917 19.642 3.34304 21.558 4.24903C24.6396 5.69111 27.0331 8.28382 28.2247 11.4707C29.4163 14.6575 29.311 18.1845 27.9314 21.2946C26.5519 24.4048 24.0081 26.8501 20.8459 28.1058C17.6838 29.3615 14.1554 29.3275 11.018 28.011C9.43809 28.6737 7.74129 29.0127 6.02803 29.008C4.20803 29.008 2.65803 28.6 2.18003 27.783C2.08962 27.6202 2.03302 27.4407 2.01363 27.2554C1.99423 27.0702 2.01244 26.8829 2.06716 26.7048C2.12187 26.5267 2.21198 26.3616 2.33207 26.2191C2.45215 26.0767 2.59976 25.96 2.76603 25.876C3.85739 25.1902 4.64109 24.1087 4.95303 22.858C4.03906 21.3851 3.42886 19.7443 3.1583 18.0321C2.88773 16.3199 2.96228 14.5709 3.37755 12.8879C3.79282 11.2049 4.54042 9.622 5.5764 8.23219C6.61238 6.84237 7.9158 5.67374 9.41003 4.79503ZM13.173 11.173C13.6078 10.7375 14.1372 10.4082 14.7201 10.2107C15.3029 10.0132 15.9235 9.9528 16.5335 10.0343C17.1434 10.1158 17.7264 10.3369 18.237 10.6804C18.7475 11.024 19.1719 11.4808 19.4772 12.0151C19.7824 12.5495 19.9602 13.1471 19.9968 13.7614C20.0333 14.3757 19.9277 14.9902 19.688 15.557C19.4483 16.1238 19.0811 16.6276 18.6149 17.0294C18.1486 17.4311 17.596 17.7198 17 17.873V18.463C17 18.7282 16.8947 18.9826 16.7071 19.1701C16.5196 19.3577 16.2652 19.463 16 19.463C15.7348 19.463 15.4805 19.3577 15.2929 19.1701C15.1054 18.9826 15 18.7282 15 18.463V17C15 16.7348 15.1054 16.4805 15.2929 16.2929C15.4805 16.1054 15.7348 16 16 16C16.3956 16 16.7823 15.8827 17.1112 15.663C17.4401 15.4432 17.6964 15.1309 17.8478 14.7654C17.9992 14.3999 18.0388 13.9978 17.9616 13.6099C17.8844 13.2219 17.6939 12.8655 17.4142 12.5858C17.1345 12.3061 16.7782 12.1156 16.3902 12.0385C16.0022 11.9613 15.6001 12.0009 15.2347 12.1523C14.8692 12.3036 14.5569 12.56 14.3371 12.8889C14.1173 13.2178 14 13.6045 14 14C14 14.2652 13.8947 14.5196 13.7071 14.7071C13.5196 14.8947 13.2652 15 13 15C12.7348 15 12.4805 14.8947 12.2929 14.7071C12.1054 14.5196 12 14.2652 12 14C12.0012 12.9395 12.4231 11.9228 13.173 11.173ZM17.256 21.75C17.256 22.0816 17.1243 22.3995 16.8899 22.6339C16.6555 22.8683 16.3375 23 16.006 23C15.6745 23 15.3566 22.8683 15.1221 22.6339C14.8877 22.3995 14.756 22.0816 14.756 21.75C14.756 21.4185 14.8877 21.1006 15.1221 20.8661C15.3566 20.6317 15.6745 20.5 16.006 20.5C16.3375 20.5 16.6555 20.6317 16.8899 20.8661C17.1243 21.1006 17.256 21.4185 17.256 21.75Z" fill="#0F0F0F"/>
</svg>
