<svg width="32" height="32" viewBox="0 0 32 32" fill="none" xmlns="http://www.w3.org/2000/svg"><path d="M16.006 22.5a.75.75 0 1 0 0-1.5.75.75 0 0 0 0 1.5zM16 10.5a3.505 3.505 0 0 0-3.5 3.5.5.5 0 0 0 1 0 2.5 2.5 0 1 1 2.5 2.5.5.5 0 0 0-.5.5v1.462a.5.5 0 0 0 1 0v-.997A3.5 3.5 0 0 0 16 10.5z" fill="#0F0F0F"/><path d="M16 3.5A12.501 12.501 0 0 0 5.48 22.754a5.426 5.426 0 0 1-2.44 3.54c-.613.403-.624.903-.428 1.236.369.63 1.745.98 3.409.98 1.719.01 3.42-.346 4.99-1.046a12.388 12.388 0 0 0 4.988 1.036 12.5 12.5 0 0 0 0-25zm0 24a11.394 11.394 0 0 1-4.792-1.043.504.504 0 0 0-.44.01c-2.675 1.39-6.335 1.122-7.164.653a6.372 6.372 0 0 0 2.892-4.432.496.496 0 0 0-.08-.33 11.5 11.5 0 1 1 9.583 5.142z" fill="#0F0F0F"/></svg>