<svg width="32" height="32" viewBox="0 0 32 32" xmlns="http://www.w3.org/2000/svg">
<path fill-rule="evenodd" clip-rule="evenodd" d="M9.40976 4.795C11.4071 3.62027 13.6821 3.00067 15.9993 3.00032C17.9218 3.00051 19.8203 3.42706 21.5582 4.24925C23.296 5.07144 24.8298 6.26881 26.0492 7.75511C27.2686 9.24142 28.1432 10.9797 28.61 12.8446C29.0768 14.7096 29.1242 16.6549 28.7487 18.5404C28.3732 20.4259 27.5843 22.2046 26.4387 23.7485C25.2931 25.2924 23.8194 26.563 22.1236 27.4688C20.4279 28.3746 18.5524 28.8931 16.6321 28.9868C14.7119 29.0806 12.7948 28.7473 11.0189 28.0111C9.43858 28.6739 7.74135 29.0129 6.02767 29.0081C4.20736 29.0081 2.65853 28.5999 2.18001 27.7826C2.08961 27.6197 2.03302 27.4403 2.01363 27.2551C1.99423 27.0699 2.01244 26.8827 2.06715 26.7047C2.12186 26.5267 2.21195 26.3616 2.33202 26.2192C2.45209 26.0769 2.59967 25.9602 2.7659 25.8763C3.85757 25.1904 4.64147 24.1087 4.9534 22.8577C3.73164 20.8888 3.05827 18.6291 3.00297 16.3126C2.94767 13.9961 3.51245 11.7069 4.63887 9.68187C5.76529 7.65689 7.41241 5.96972 9.40976 4.795ZM13.173 11.1731C13.9229 10.4231 14.9397 10.0014 16.0003 10.0003C16.9739 10.0003 17.9141 10.3553 18.6447 10.9989C19.3752 11.6425 19.846 12.5304 19.9687 13.4963C20.0913 14.4622 19.8575 15.4396 19.3111 16.2454C18.7646 17.0512 17.943 17.63 17.0003 17.8734V18.4622C17.0003 18.7275 16.8949 18.9818 16.7074 19.1693C16.5199 19.3569 16.2655 19.4622 16.0003 19.4622C15.7351 19.4622 15.4807 19.3569 15.2932 19.1693C15.1056 18.9818 15.0003 18.7275 15.0003 18.4622V17.0003C15.0002 16.869 15.026 16.7389 15.0763 16.6175C15.1265 16.4962 15.2001 16.3859 15.293 16.293C15.3859 16.2002 15.4962 16.1265 15.6175 16.0763C15.7389 16.0261 15.8689 16.0002 16.0003 16.0003C16.3959 16.0003 16.7825 15.883 17.1114 15.6633C17.4403 15.4435 17.6967 15.1311 17.848 14.7657C17.9994 14.4002 18.039 13.9981 17.9619 13.6101C17.8847 13.2222 17.6942 12.8658 17.4145 12.5861C17.1348 12.3064 16.7784 12.1159 16.3905 12.0387C16.0025 11.9616 15.6004 12.0012 15.2349 12.1526C14.8695 12.3039 14.5571 12.5603 14.3374 12.8892C14.1176 13.2181 14.0003 13.6048 14.0003 14.0003C14.0003 14.2655 13.8949 14.5199 13.7074 14.7074C13.5199 14.895 13.2655 15.0003 13.0003 15.0003C12.7351 15.0003 12.4807 14.895 12.2932 14.7074C12.1056 14.5199 12.0003 14.2655 12.0003 14.0003C12.0013 12.9398 12.4231 11.923 13.173 11.1731ZM17.2558 21.7497C17.2558 22.4401 16.6961 22.9997 16.0058 22.9997C15.3154 22.9997 14.7558 22.4401 14.7558 21.7497C14.7558 21.0594 15.3154 20.4997 16.0058 20.4997C16.6961 20.4997 17.2558 21.0594 17.2558 21.7497Z"/>
</svg>
