<svg xmlns="http://www.w3.org/2000/svg" width="32" height="32" viewBox="0 0 32 32"><path d="M6 9C6 9.74743 6.71217 10.7509 8.63563 11.6252C10.4688 12.4584 13.0716 13 16 13C18.9284 13 21.5312 12.4584 23.3644 11.6252C25.2878 10.7509 26 9.74743 26 9C26 8.25257 25.2878 7.24913 23.3644 6.37483C21.5312 5.54156 18.9284 5 16 5C13.0716 5 10.4688 5.54156 8.63563 6.37483C6.71217 7.24913 6 8.25257 6 9ZM26 12.3963C25.4579 12.8009 24.8402 13.1513 24.192 13.4459C22.044 14.4223 19.1467 15 16 15C12.8533 15 9.95605 14.4223 7.80802 13.4459C7.1598 13.1513 6.54209 12.8009 6 12.3963V16C6 16.7474 6.71217 17.7509 8.63563 18.6252C10.3199 19.3907 12.6538 19.9101 15.293 19.9894C15.1042 20.6203 15.0019 21.2885 15 21.9804C12.2424 21.8719 9.72643 21.3179 7.80802 20.4459C7.1598 20.1513 6.54209 19.8009 6 19.3963V23C6 23.7474 6.71217 24.7509 8.63563 25.6252C10.4688 26.4584 13.0716 27 16 27C16.364 27 16.7229 26.9916 17.076 26.9754C17.8644 27.7557 18.8373 28.3499 19.9234 28.6868C18.6902 28.8907 17.3687 29 16 29C12.8533 29 9.95605 28.4223 7.80802 27.4459C6.46201 26.8341 5.24756 25.9821 4.56848 24.9023C4.23222 24.7412 4 24.3977 4 23.9999V9.04298L4.00011 9.02787L4 9C4 6.98601 5.75027 5.48944 7.80802 4.5541C9.95605 3.57772 12.8533 3 16 3C19.1467 3 22.044 3.57772 24.192 4.5541C26.2497 5.48944 28 6.98601 28 9V18.3924C27.4857 17.5388 26.7943 16.8039 25.9768 16.2386C25.9925 16.1566 26 16.077 26 16V12.3963ZM24.115 18.8473L24.7558 18.2184C24.8286 18.147 24.9267 18.1074 25.0287 18.1083C25.1307 18.1092 25.2282 18.1507 25.2996 18.2234L25.8381 18.7723C25.8735 18.8083 25.9015 18.851 25.9204 18.8979C25.9394 18.9448 25.9489 18.9949 25.9484 19.0454C25.9479 19.096 25.9375 19.146 25.9177 19.1925C25.8979 19.239 25.8692 19.2811 25.8331 19.3165L25.1939 19.9434C25.1394 19.9969 25.102 20.0654 25.0866 20.1402C25.0712 20.215 25.0784 20.2927 25.1073 20.3634L25.3639 20.9915C25.3927 21.0623 25.4421 21.1228 25.5055 21.1654C25.5689 21.208 25.6436 21.2308 25.72 21.2308H26.6154C26.7174 21.2308 26.8152 21.2712 26.8874 21.3434C26.9595 21.4155 27 21.5134 27 21.6154V22.3846C27 22.4866 26.9595 22.5844 26.8874 22.6566C26.8152 22.7287 26.7174 22.7692 26.6154 22.7692H25.7185C25.6424 22.7692 25.568 22.7917 25.5048 22.8339C25.4415 22.8762 25.3922 22.9363 25.3631 23.0065L25.09 23.6662C25.0609 23.7365 25.0533 23.8138 25.0681 23.8884C25.083 23.9631 25.1197 24.0316 25.1735 24.0853L25.8077 24.7196C25.8798 24.7918 25.9203 24.8895 25.9203 24.9915C25.9203 25.0935 25.8798 25.1913 25.8077 25.2634L25.2635 25.8073C25.1914 25.8794 25.0935 25.9199 24.9915 25.9199C24.8896 25.9199 24.7918 25.8794 24.7196 25.8073L24.0854 25.1735C24.0316 25.1197 23.9632 25.083 23.8886 25.0682C23.8141 25.0533 23.7368 25.0609 23.6665 25.09L23.0065 25.363C22.9363 25.3922 22.8762 25.4415 22.834 25.5047C22.7918 25.568 22.7692 25.6424 22.7692 25.7184V26.6154C22.7692 26.7174 22.7287 26.8152 22.6566 26.8873C22.5845 26.9594 22.4866 27 22.3846 27H21.6154C21.5134 27 21.4156 26.9594 21.3434 26.8873C21.2713 26.8152 21.2308 26.7174 21.2308 26.6154V25.7184C21.2308 25.6424 21.2083 25.568 21.166 25.5047C21.1238 25.4415 21.0637 25.3922 20.9935 25.363L20.3339 25.09C20.2636 25.0609 20.1862 25.0532 20.1116 25.0681C20.0369 25.083 19.9684 25.1196 19.9146 25.1735L19.2804 25.8073C19.2083 25.8794 19.1105 25.9199 19.0085 25.9199C18.9065 25.9199 18.8087 25.8794 18.7365 25.8073L18.1927 25.2634C18.1206 25.1913 18.0801 25.0935 18.0801 24.9915C18.0801 24.8895 18.1206 24.7918 18.1927 24.7196L18.8269 24.0853C18.8807 24.0315 18.9173 23.963 18.9321 23.8883C18.9469 23.8137 18.9392 23.7364 18.91 23.6662L18.6369 23.0065C18.6078 22.9363 18.5585 22.8762 18.4952 22.8339C18.432 22.7917 18.3576 22.7692 18.2816 22.7692H17.3846C17.2826 22.7692 17.1848 22.7287 17.1127 22.6566C17.0405 22.5844 17 22.4866 17 22.3846V21.6154C17 21.5134 17.0405 21.4155 17.1127 21.3434C17.1848 21.2712 17.2826 21.2308 17.3846 21.2308H18.2819C18.358 21.2308 18.4324 21.2082 18.4956 21.166C18.5589 21.1237 18.6082 21.0637 18.6373 20.9934L18.9104 20.3338C18.9396 20.2636 18.9472 20.1862 18.9324 20.1116C18.9177 20.0369 18.8811 19.9684 18.8273 19.9146L18.1931 19.2804C18.121 19.2082 18.0805 19.1104 18.0805 19.0084C18.0805 18.9064 18.121 18.8086 18.1931 18.7365L18.7369 18.1923C18.809 18.1201 18.9069 18.0797 19.0089 18.0797C19.1108 18.0797 19.2086 18.1201 19.2808 18.1923L19.915 18.8265C19.9688 18.8804 20.0373 18.917 20.112 18.9318C20.1866 18.9467 20.2639 18.939 20.3342 18.9099L20.9939 18.6369C21.0641 18.6077 21.1242 18.5584 21.1664 18.4952C21.2086 18.4319 21.2312 18.3576 21.2312 18.2816V17.3846C21.2312 17.2826 21.2717 17.1847 21.3438 17.1126C21.4159 17.0405 21.5138 17 21.6158 17H22.385C22.487 17 22.5848 17.0405 22.657 17.1126C22.7291 17.1847 22.7696 17.2826 22.7696 17.3846V18.2827C22.7696 18.3584 22.792 18.4325 22.834 18.4955C22.8759 18.5586 22.9355 18.6079 23.0054 18.6372L23.6977 18.9277C23.7675 18.9568 23.8443 18.9646 23.9185 18.9503C23.9927 18.936 24.061 18.9002 24.115 18.8473ZM22 24C23.1046 24 24 23.1046 24 22C24 20.8954 23.1046 20 22 20C20.8954 20 20 20.8954 20 22C20 23.1046 20.8954 24 22 24Z"/></svg>