<svg width="32" height="32" viewBox="0 0 32 32" fill="none" xmlns="http://www.w3.org/2000/svg"><path d="M8.354 17.646a.5.5 0 0 0-.707.707l4.146 4.147H3a.5.5 0 1 0 0 1h8.793l-4.146 4.146a.5.5 0 1 0 .707.707l5-5a.498.498 0 0 0 0-.707l-5-5z" fill="#0F0F0F"/><path d="M20.748 13.838a6 6 0 1 0-5.473.003c-1.246.279-2.44.757-3.536 1.415a.5.5 0 0 0 .522.853 11.008 11.008 0 0 1 5.74-1.603c5.692 0 10.5 4.383 10.5 9.57a2.695 2.695 0 0 1-1.077 2.061c-2.308 1.974-8.168 2.883-13.347 2.067a.5.5 0 0 0-.156.988c1.349.205 2.71.307 4.074.303 3.876 0 7.956-.782 10.078-2.598a3.646 3.646 0 0 0 1.428-2.82c0-4.862-3.796-9.071-8.753-10.239zM13.01 8.507a5 5 0 1 1 5 5 5.005 5.005 0 0 1-5-5z" fill="#0F0F0F"/></svg>