<svg width="32" height="32" viewBox="0 0 32 32" fill="none" xmlns="http://www.w3.org/2000/svg">
<path d="M13.5305 22.4694L8.53052 17.4694C8.46089 17.3998 8.37821 17.3445 8.28723 17.3069C8.19624 17.2692 8.09872 17.2498 8.00024 17.2498C7.90176 17.2498 7.80424 17.2692 7.71326 17.3069C7.62227 17.3446 7.5396 17.3998 7.46996 17.4694C7.40033 17.5391 7.34509 17.6218 7.3074 17.7127C7.26972 17.8037 7.25032 17.9012 7.25033 17.9997C7.25033 18.0982 7.26973 18.1957 7.30742 18.2867C7.3451 18.3777 7.40035 18.4604 7.46998 18.53L11.1897 22.2497H3.00024C2.80133 22.2497 2.61057 22.3287 2.46991 22.4694C2.32926 22.61 2.25024 22.8008 2.25024 22.9997C2.25024 23.1986 2.32926 23.3894 2.46991 23.53C2.61057 23.6707 2.80133 23.7497 3.00024 23.7497H11.1897L7.46998 27.4694C7.40035 27.5391 7.3451 27.6217 7.30742 27.7127C7.26973 27.8037 7.25033 27.9012 7.25033 27.9997C7.25032 28.0982 7.26972 28.1957 7.3074 28.2867C7.34509 28.3777 7.40033 28.4603 7.46996 28.53C7.5396 28.5996 7.62227 28.6549 7.71326 28.6925C7.80424 28.7302 7.90176 28.7496 8.00024 28.7496C8.09872 28.7496 8.19624 28.7302 8.28723 28.6926C8.37821 28.6549 8.46089 28.5996 8.53052 28.53L13.5305 23.53C13.6002 23.4604 13.6554 23.3777 13.6931 23.2867C13.7309 23.1957 13.7503 23.0982 13.7503 22.9997C13.7503 22.9012 13.7309 22.8037 13.6931 22.7127C13.6554 22.6217 13.6002 22.539 13.5305 22.4694Z" fill="black"/>
<path d="M21.4105 13.7427C22.5408 13.0093 23.4038 11.9302 23.8708 10.6663C24.3378 9.40246 24.3839 8.0215 24.0021 6.72932C23.6203 5.43715 22.8311 4.30296 21.7522 3.49585C20.6733 2.68874 19.3624 2.25193 18.015 2.25055C16.6676 2.24916 15.3559 2.68328 14.2753 3.48817C13.1947 4.29306 12.4032 5.42562 12.0188 6.71701C11.6344 8.0084 11.6776 9.38946 12.142 10.6543C12.6064 11.9191 13.4672 13 14.596 13.7357C13.5464 14.0351 12.542 14.4744 11.6096 15.0417C11.4405 15.1457 11.3194 15.3125 11.273 15.5055C11.2265 15.6985 11.2585 15.9021 11.3619 16.0716C11.4652 16.2411 11.6316 16.3628 11.8244 16.4099C12.0173 16.457 12.221 16.4258 12.3909 16.323C14.0815 15.2953 16.0227 14.7533 18.0012 14.7566C23.5569 14.7566 28.2512 19.0251 28.2512 24.0769C28.2385 24.4431 28.1428 24.8017 27.9715 25.1256C27.8001 25.4495 27.5575 25.7304 27.262 25.947C25.0032 27.8777 19.2307 28.7605 14.1155 27.9568C13.9194 27.9289 13.7201 27.9786 13.56 28.0953C13.3999 28.212 13.2916 28.3865 13.2581 28.5818C13.2273 28.7783 13.2759 28.9791 13.3931 29.1399C13.5103 29.3007 13.6865 29.4083 13.8831 29.4392C15.2378 29.6458 16.6064 29.7476 17.9768 29.7439C21.9114 29.7439 26.0667 28.9421 28.2366 27.0876C28.6962 26.7293 29.0706 26.2733 29.3325 25.7526C29.5944 25.2319 29.7375 24.6596 29.7512 24.0769C29.7512 19.2982 26.1787 15.1254 21.4105 13.7427ZM13.259 8.50653C13.259 7.56707 13.5376 6.6487 14.0596 5.86757C14.5815 5.08644 15.3233 4.47762 16.1913 4.1181C17.0592 3.75858 18.0143 3.66452 18.9357 3.8478C19.8571 4.03108 20.7035 4.48347 21.3678 5.14777C22.0321 5.81207 22.4845 6.65844 22.6678 7.57985C22.851 8.50126 22.757 9.45633 22.3975 10.3243C22.0379 11.1922 21.4291 11.9341 20.648 12.456C19.8669 12.9779 18.9485 13.2565 18.009 13.2565C16.7497 13.2551 15.5423 12.7542 14.6519 11.8637C13.7614 10.9732 13.2605 9.76587 13.259 8.50653Z" fill="black"/>
</svg>
