<svg width="32" height="32" viewBox="0 0 32 32" fill="none" xmlns="http://www.w3.org/2000/svg">
<path d="M29.7073 20.2927C29.6144 20.1998 29.5042 20.1261 29.3829 20.0758C29.2616 20.0256 29.1316 19.9997 29.0002 19.9997C28.8689 19.9997 28.7389 20.0256 28.6176 20.0758C28.4963 20.1261 28.386 20.1998 28.2932 20.2927L23.0002 25.5857L19.7072 22.2927C19.5197 22.1051 19.2654 21.9998 19.0002 21.9998C18.735 21.9998 18.4807 22.1052 18.2931 22.2927C18.1056 22.4802 18.0003 22.7345 18.0003 22.9997C18.0003 23.2649 18.1056 23.5192 18.2932 23.7067L22.2932 27.7067C22.386 27.7996 22.4962 27.8733 22.6175 27.9236C22.7388 27.9738 22.8689 27.9997 23.0002 27.9997C23.1315 27.9997 23.2615 27.9738 23.3828 27.9236C23.5042 27.8733 23.6144 27.7996 23.7072 27.7067L29.7072 21.7067C29.8001 21.6139 29.8738 21.5037 29.9241 21.3824C29.9743 21.2611 30.0002 21.131 30.0002 20.9997C30.0002 20.8684 29.9743 20.7384 29.9241 20.617C29.8738 20.4957 29.8001 20.3855 29.7073 20.2927Z" fill="black"/>
<path d="M17.8469 27.7028C12.7981 28.5007 7.11352 27.6413 4.90258 25.7507C4.63529 25.5566 4.4153 25.3046 4.25905 25.0136C4.1028 24.7226 4.01432 24.4 4.00024 24.07C4.00024 19.153 8.57934 14.9997 14.0002 14.9997C15.6996 14.9917 17.3747 15.4022 18.8777 16.195C20.3808 16.9878 21.6655 18.1386 22.6184 19.5456C22.7636 19.7672 22.9908 19.9222 23.2502 19.9764C23.5095 20.0307 23.7798 19.9797 24.0016 19.8348C24.2234 19.6898 24.3786 19.4627 24.4331 19.2034C24.4876 18.9441 24.4369 18.6738 24.2922 18.4518C22.7724 16.1831 20.5312 14.4939 17.9316 13.6579C19.0132 12.8338 19.8092 11.6912 20.2074 10.391C20.6056 9.09078 20.586 7.69842 20.1514 6.40992C19.7167 5.12143 18.8889 4.0017 17.7845 3.20837C16.6801 2.41504 15.3547 1.98806 13.9948 1.98754C12.635 1.98702 11.3093 2.413 10.2042 3.20549C9.0992 3.99798 8.27054 5.11708 7.83492 6.40524C7.39929 7.6934 7.37863 9.08574 7.77585 10.3863C8.17307 11.6868 8.96816 12.83 10.0492 13.6549C5.4187 15.2016 2.00024 19.3407 2.00024 24.07C2.01369 24.6889 2.16442 25.2972 2.44156 25.8508C2.7187 26.4044 3.11532 26.8895 3.60278 27.2712C5.82055 29.1667 10.0481 29.9851 14.0403 29.9851C15.4185 29.9891 16.795 29.8869 18.1575 29.6794C18.4196 29.6382 18.6546 29.4946 18.8108 29.2801C18.967 29.0657 19.0317 28.7979 18.9905 28.5358C18.9493 28.2737 18.8057 28.0387 18.5912 27.8825C18.3768 27.7263 18.109 27.6616 17.8469 27.7028ZM13.9924 3.99969C14.8824 3.99969 15.7525 4.26361 16.4925 4.75808C17.2325 5.25254 17.8093 5.95535 18.1499 6.77762C18.4905 7.59988 18.5796 8.50468 18.406 9.3776C18.2323 10.2505 17.8038 11.0523 17.1744 11.6817C16.5451 12.311 15.7433 12.7396 14.8703 12.9132C13.9974 13.0869 13.0926 12.9977 12.2704 12.6572C11.4481 12.3166 10.7453 11.7398 10.2508 10.9998C9.75635 10.2597 9.49243 9.38971 9.49243 8.49969C9.49374 7.30662 9.96826 6.16278 10.8119 5.31915C11.6555 4.47552 12.7994 4.001 13.9924 3.99969Z" fill="black"/>
</svg>
