<svg width="32" height="32" viewBox="0 0 32 32" fill="none" xmlns="http://www.w3.org/2000/svg"><path d="M13.707 22.293l-5-5a1 1 0 1 0-1.414 1.414L10.586 22H3a1 1 0 0 0 0 2h7.586l-3.293 3.293a1 1 0 0 0 1.414 1.414l5-5a1 1 0 0 0 0-1.414z" fill="#0F0F0F"/><path d="M21.952 13.662a6.5 6.5 0 1 0-7.905-.014c-.898.294-1.76.69-2.567 1.18a1 1 0 0 0 1.04 1.708 10.522 10.522 0 0 1 5.481-1.53c5.421 0 10 4.154 10 9.07a2.19 2.19 0 0 1-.902 1.68c-2.21 1.89-7.895 2.75-12.944 1.954a1 1 0 0 0-.311 1.976 26.93 26.93 0 0 0 4.115.306c3.993 0 8.223-.82 10.44-2.715a4.176 4.176 0 0 0 1.602-3.2c0-4.73-3.418-8.869-8.049-10.415zM18.01 4.007a4.5 4.5 0 1 1 0 8.999 4.5 4.5 0 0 1 0-9z" fill="#0F0F0F"/></svg>