<svg width="32" height="32" viewBox="0 0 32 32" fill="none" xmlns="http://www.w3.org/2000/svg"><path d="M29.53 20.47a.75.75 0 0 0-1.06 0L23 25.94l-3.47-3.47a.75.75 0 0 0-1.06 1.06l4 4a.749.749 0 0 0 1.06 0l6-6a.749.749 0 0 0 0-1.06z" fill="#0F0F0F"/><path d="M17.885 27.95c-5.111.808-10.884-.077-13.145-2.009a2.429 2.429 0 0 1-.99-1.871c0-5.052 4.695-9.32 10.25-9.32a10.6 10.6 0 0 1 8.827 4.659.75.75 0 0 0 1.256-.82 11.922 11.922 0 0 0-6.704-4.844 6.25 6.25 0 1 0-6.788-.01c-4.768 1.383-8.34 5.556-8.34 10.335a3.937 3.937 0 0 0 1.515 3.01c2.17 1.856 6.323 2.657 10.257 2.657a26.69 26.69 0 0 0 4.095-.305.75.75 0 1 0-.233-1.482zM9.242 8.5a4.75 4.75 0 1 1 9.5 0 4.75 4.75 0 0 1-9.5 0z" fill="#0F0F0F"/></svg>