<svg width="32" height="32" viewBox="0 0 32 32" fill="none" xmlns="http://www.w3.org/2000/svg">
<path d="M13.7073 22.2927L8.70727 17.2927C8.51976 17.1051 8.26543 16.9998 8.00024 16.9998C7.73505 16.9998 7.48073 17.1052 7.29321 17.2927C7.10569 17.4802 7.00035 17.7345 7.00035 17.9997C7.00035 18.2649 7.1057 18.5192 7.29321 18.7067L10.5862 21.9997H3.00024C2.73503 21.9997 2.48067 22.1051 2.29314 22.2926C2.1056 22.4802 2.00024 22.7345 2.00024 22.9997C2.00024 23.2649 2.1056 23.5193 2.29314 23.7068C2.48067 23.8944 2.73503 23.9997 3.00024 23.9997H10.5862L7.29318 27.2927C7.20034 27.3856 7.12668 27.4958 7.07643 27.6171C7.02618 27.7384 7.00032 27.8685 7.00032 27.9998C7.00032 28.1311 7.02618 28.2611 7.07643 28.3824C7.12668 28.5037 7.20033 28.6139 7.29318 28.7068C7.38603 28.7996 7.49625 28.8733 7.61757 28.9235C7.73888 28.9738 7.8689 28.9997 8.00021 28.9997C8.13152 28.9997 8.26154 28.9738 8.38285 28.9236C8.50417 28.8733 8.61439 28.7997 8.70724 28.7068L13.7072 23.7068C13.8001 23.614 13.8738 23.5037 13.9241 23.3824C13.9744 23.2611 14.0003 23.1311 14.0003 22.9997C14.0003 22.8684 13.9744 22.7384 13.9241 22.617C13.8738 22.4957 13.8002 22.3855 13.7073 22.2927Z" fill="black"/>
<path d="M21.9523 13.6617C23.0322 12.8374 23.8267 11.6956 24.2241 10.3965C24.6216 9.09739 24.602 7.70643 24.1681 6.41905C23.7342 5.13168 22.9079 4.01261 21.8052 3.21912C20.7025 2.42562 19.3789 1.99759 18.0204 1.99517C16.6619 1.99274 15.3367 2.41605 14.2312 3.20561C13.1257 3.99517 12.2953 5.11128 11.8569 6.39709C11.4184 7.68291 11.3939 9.0738 11.7867 10.3743C12.1795 11.6748 12.9699 12.8195 14.0469 13.6476C13.1489 13.9421 12.2876 14.3385 11.4797 14.8288C11.2551 14.9677 11.0946 15.1898 11.0332 15.4466C10.9718 15.7035 11.0145 15.9742 11.152 16.1996C11.2894 16.4251 11.5106 16.587 11.767 16.65C12.0235 16.713 12.2944 16.6719 12.5207 16.5358C14.1724 15.5324 16.0686 15.0033 18.0012 15.0065C23.4221 15.0065 28.0012 19.1598 28.0012 24.0768C27.9872 24.4067 27.8988 24.7292 27.7425 25.0201C27.5862 25.3109 27.3662 25.5627 27.0989 25.7565C24.8889 27.6462 19.2043 28.5065 14.1545 27.7096C14.0247 27.6892 13.8922 27.6946 13.7645 27.7254C13.6368 27.7563 13.5164 27.8119 13.4102 27.8893C13.304 27.9666 13.2141 28.0642 13.1456 28.1763C13.0771 28.2884 13.0314 28.4129 13.011 28.5426C12.9906 28.6724 12.996 28.8049 13.0268 28.9327C13.0576 29.0604 13.1133 29.1807 13.1906 29.2869C13.268 29.3931 13.3655 29.483 13.4776 29.5515C13.5897 29.62 13.7142 29.6658 13.844 29.6862C15.2059 29.8932 16.5817 29.9954 17.9592 29.9919C21.9524 29.9919 26.1819 29.1725 28.3987 27.277C28.8863 26.8957 29.283 26.4108 29.5602 25.8573C29.8373 25.3038 29.988 24.6957 30.0012 24.0768C30.0012 19.3475 26.5828 15.2084 21.9523 13.6617ZM18.009 4.00653C18.899 4.00653 19.769 4.27045 20.509 4.76492C21.2491 5.25939 21.8258 5.96219 22.1664 6.78446C22.507 7.60672 22.5961 8.51152 22.4225 9.38444C22.2489 10.2574 21.8203 11.0592 21.191 11.6885C20.5616 12.3178 19.7598 12.7464 18.8869 12.9201C18.014 13.0937 17.1092 13.0046 16.2869 12.664C15.4646 12.3234 14.7618 11.7466 14.2674 11.0066C13.7729 10.2666 13.509 9.39655 13.509 8.50653C13.5103 7.31346 13.9848 6.16962 14.8284 5.32599C15.6721 4.48236 16.8159 4.00783 18.009 4.00653Z" fill="black"/>
</svg>
