<svg width="32" height="32" viewBox="0 0 32 32" fill="none" xmlns="http://www.w3.org/2000/svg">
<path d="M8.35376 17.6462C8.25969 17.554 8.13303 17.5026 8.00131 17.5033C7.86959 17.504 7.74346 17.5566 7.65032 17.6497C7.55718 17.7429 7.50456 17.869 7.50389 18.0007C7.50323 18.1324 7.55457 18.2591 7.64676 18.3532L11.7932 22.4997H3.00024C2.86764 22.4997 2.74046 22.5523 2.64669 22.6461C2.55292 22.7399 2.50024 22.8671 2.50024 22.9997C2.50024 23.1323 2.55292 23.2594 2.64669 23.3532C2.74046 23.447 2.86764 23.4997 3.00024 23.4997H11.7932L7.64673 27.6462C7.59954 27.6924 7.56198 27.7476 7.53623 27.8084C7.51048 27.8693 7.49705 27.9346 7.49672 28.0007C7.49639 28.0668 7.50915 28.1323 7.53429 28.1934C7.55942 28.2545 7.59642 28.31 7.64315 28.3568C7.68987 28.4035 7.74539 28.4405 7.80651 28.4656C7.86762 28.4908 7.93311 28.5035 7.99919 28.5032C8.06527 28.5029 8.13062 28.4894 8.19148 28.4637C8.25234 28.4379 8.30748 28.4004 8.35373 28.3532L13.3537 23.3532C13.4002 23.3068 13.437 23.2517 13.4621 23.191C13.4873 23.1303 13.5002 23.0653 13.5002 22.9997C13.5002 22.934 13.4873 22.869 13.4621 22.8084C13.437 22.7477 13.4002 22.6926 13.3537 22.6462L8.35376 17.6462Z" fill="black"/>
<path d="M20.7485 13.8383C21.9466 13.2236 22.903 12.2237 23.464 10.9996C24.0249 9.77541 24.1578 8.39815 23.8413 7.08934C23.5247 5.78052 22.7771 4.61623 21.7187 3.78376C20.6603 2.95128 19.3526 2.49902 18.0061 2.49973C16.6595 2.50044 15.3524 2.95407 14.2948 3.78765C13.2373 4.62123 12.4909 5.78631 12.1757 7.09545C11.8605 8.4046 11.9949 9.78172 12.5571 11.0053C13.1194 12.2288 14.0769 13.2277 15.2755 13.8412C14.0286 14.1199 12.8347 14.5975 11.7395 15.2556C11.6266 15.3248 11.5457 15.4361 11.5147 15.5649C11.4837 15.6937 11.5051 15.8296 11.5742 15.9427C11.6432 16.0557 11.7544 16.1368 11.8832 16.168C12.0119 16.1992 12.1478 16.178 12.261 16.1091C13.9907 15.0572 15.9769 14.5027 18.0013 14.5065C23.6927 14.5065 28.5013 18.8893 28.5013 24.0768C28.487 24.4789 28.3828 24.8727 28.1964 25.2293C28.01 25.5859 27.7461 25.8962 27.4241 26.1374C25.1165 28.111 19.2561 29.0202 14.0774 28.2038C13.9466 28.1835 13.813 28.2159 13.706 28.294C13.599 28.372 13.5273 28.4892 13.5066 28.62C13.486 28.7508 13.518 28.8845 13.5957 28.9917C13.6734 29.099 13.7904 29.171 13.9212 29.1921C15.2695 29.3974 16.6316 29.4987 17.9954 29.4948C21.8714 29.4948 25.9505 28.7126 28.0735 26.8972C28.5079 26.5643 28.8618 26.138 29.1089 25.6498C29.3561 25.1616 29.4902 24.624 29.5013 24.0768C29.5012 19.2155 25.7051 15.006 20.7485 13.8383ZM13.009 8.50653C13.009 7.51762 13.3023 6.55092 13.8517 5.72868C14.4011 4.90643 15.182 4.26557 16.0956 3.88713C17.0092 3.50869 18.0146 3.40968 18.9845 3.6026C19.9544 3.79553 20.8453 4.27173 21.5446 4.971C22.2438 5.67026 22.72 6.56117 22.913 7.53108C23.1059 8.50098 23.0069 9.50632 22.6284 10.4199C22.25 11.3336 21.6091 12.1145 20.7869 12.6639C19.9646 13.2133 18.9979 13.5065 18.009 13.5065C16.6834 13.505 15.4126 12.9777 14.4752 12.0403C13.5379 11.103 13.0106 9.83213 13.009 8.50653Z" fill="black"/>
</svg>
