<svg width="32" height="32" viewBox="0 0 32 32" xmlns="http://www.w3.org/2000/svg"><path fill-rule="evenodd" clip-rule="evenodd" d="M6.75 16a9.25 9.25 0 0 1 18.5 0c0 1.573-.356 2.344-.727 2.73-.363.375-.873.52-1.523.52-.65 0-1.16-.145-1.523-.52-.371-.386-.727-1.157-.727-2.73v-4a.75.75 0 0 0-1.5 0v.536a4.75 4.75 0 1 0 .532 6.338c.168.347.373.645.616.897.762.79 1.752.979 2.602.979.85 0 1.84-.189 2.602-.98.754-.78 1.148-2.01 1.148-3.77 0-5.937-4.813-10.75-10.75-10.75S5.25 10.063 5.25 16 10.063 26.75 16 26.75c1.597 0 3.115-.349 4.48-.975a.75.75 0 1 0-.626-1.363A9.212 9.212 0 0 1 16 25.25 9.25 9.25 0 0 1 6.75 16Zm6 0a3.25 3.25 0 1 1 6.5 0 3.25 3.25 0 0 1-6.5 0Z"/></svg>