<svg width="32" height="32" viewBox="0 0 32 32" fill="none" xmlns="http://www.w3.org/2000/svg">
<path d="M25 14.25C24.8011 14.25 24.6103 14.329 24.4697 14.4697C24.329 14.6103 24.25 14.8011 24.25 15V20C24.25 22.188 23.3808 24.2865 21.8336 25.8336C20.2865 27.3808 18.188 28.25 16 28.25C13.812 28.25 11.7135 27.3808 10.1664 25.8336C8.61919 24.2865 7.75 22.188 7.75 20V9C7.75 7.60761 8.30312 6.27226 9.28769 5.28769C10.2723 4.30312 11.6076 3.75 13 3.75C14.3924 3.75 15.7277 4.30312 16.7123 5.28769C17.6969 6.27226 18.25 7.60761 18.25 9V20C18.25 20.5967 18.0129 21.169 17.591 21.591C17.169 22.0129 16.5967 22.25 16 22.25C15.4033 22.25 14.831 22.0129 14.409 21.591C13.9871 21.169 13.75 20.5967 13.75 20V9C13.75 8.80109 13.671 8.61032 13.5303 8.46967C13.3897 8.32902 13.1989 8.25 13 8.25C12.8011 8.25 12.6103 8.32902 12.4697 8.46967C12.329 8.61032 12.25 8.80109 12.25 9V20C12.25 20.9946 12.6451 21.9484 13.3483 22.6517C14.0516 23.3549 15.0054 23.75 16 23.75C16.9946 23.75 17.9484 23.3549 18.6517 22.6517C19.3549 21.9484 19.75 20.9946 19.75 20V9C19.75 7.20979 19.0388 5.4929 17.773 4.22703C16.5071 2.96116 14.7902 2.25 13 2.25C11.2098 2.25 9.4929 2.96116 8.22703 4.22703C6.96116 5.4929 6.25 7.20979 6.25 9V20C6.25 22.5859 7.27723 25.0658 9.10571 26.8943C10.9342 28.7228 13.4141 29.75 16 29.75C18.5859 29.75 21.0658 28.7228 22.8943 26.8943C24.7228 25.0658 25.75 22.5859 25.75 20V15C25.75 14.8011 25.671 14.6103 25.5303 14.4697C25.3897 14.329 25.1989 14.25 25 14.25Z" fill="black"/>
</svg>
