<svg xmlns="http://www.w3.org/2000/svg" width="32" height="32" viewBox="0 0 32 32"><path d="M24.002 28.25h-1.979a5.114 5.114 0 0 1-5.205-4.565A5.754 5.754 0 0 0 21.75 18V8a5.75 5.75 0 0 0-11.5 0v10a5.755 5.755 0 0 0 5.037 5.701 6.668 6.668 0 0 0 2.436 4.55h-9.72a.75.75 0 1 0 0 1.5h16a.75.75 0 1 0 0-1.5zM11.751 14.988V12.75h8.5v2.238h-8.5zM16 3.75A4.254 4.254 0 0 1 20.25 8v3.25h-8.5V8A4.254 4.254 0 0 1 16 3.75z M11.75 15h8.5v3a4 4 0 0 1-4 4h-.5a4 4 0 0 1-4-4v-3zM11.75 11.25h8.5v1.5h-8.5z"/></svg>