<svg width="32" height="32" viewBox="0 0 32 32" fill="none" xmlns="http://www.w3.org/2000/svg">
<path d="M27.9971 13.4998C27.9314 13.4998 27.8664 13.4869 27.8057 13.4618C27.745 13.4367 27.6899 13.3998 27.6434 13.3534C27.597 13.307 27.5602 13.2518 27.5351 13.1912C27.5099 13.1305 27.497 13.0654 27.4971 12.9998C27.4712 10.8586 26.6275 8.80838 25.1387 7.2693C24.357 6.41513 23.4097 5.72906 22.3543 5.25292C21.2989 4.77677 20.1576 4.52052 19 4.49977C18.8674 4.49977 18.7402 4.44709 18.6464 4.35332C18.5527 4.25956 18.5 4.13238 18.5 3.99977C18.5 3.86716 18.5527 3.73998 18.6464 3.64622C18.7402 3.55245 18.8674 3.49977 19 3.49977C20.2941 3.52064 21.5703 3.80485 22.751 4.33506C23.9316 4.86528 24.9919 5.6304 25.8672 6.58377C27.531 8.30808 28.472 10.6037 28.4971 12.9998C28.4971 13.0654 28.4842 13.1305 28.4591 13.1912C28.434 13.2518 28.3971 13.307 28.3507 13.3534C28.3043 13.3998 28.2491 13.4367 28.1885 13.4618C28.1278 13.4869 28.0627 13.4998 27.9971 13.4998Z" fill="black"/>
<path d="M24 14.4929C23.9343 14.493 23.8693 14.4801 23.8086 14.4549C23.7479 14.4298 23.6928 14.393 23.6464 14.3466C23.5999 14.3001 23.5631 14.245 23.538 14.1843C23.5129 14.1236 23.5 14.0586 23.5 13.9929C23.5539 13.262 23.4562 12.5277 23.2128 11.8364C22.9695 11.145 22.5858 10.5114 22.0859 9.97535C20.9793 8.97486 19.526 8.44548 18.0352 8.49977C18.0235 8.4983 18.0117 8.4983 18 8.49977C17.8677 8.49979 17.7408 8.44739 17.6471 8.35405C17.5534 8.26071 17.5005 8.13404 17.5 8.00177C17.5007 7.93305 17.5154 7.8652 17.5431 7.8023C17.5708 7.73941 17.611 7.68279 17.6612 7.63587C17.7114 7.58894 17.7706 7.55269 17.8352 7.52929C17.8998 7.5059 17.9685 7.49586 18.0371 7.49977C19.7896 7.43467 21.4964 8.06716 22.7832 9.25856C23.3819 9.88563 23.8436 10.6303 24.1392 11.4453C24.4347 12.2603 24.5576 13.1279 24.5 13.9929C24.5 14.0586 24.4871 14.1236 24.462 14.1843C24.4369 14.245 24.4001 14.3001 24.3536 14.3466C24.3072 14.393 24.2521 14.4298 24.1914 14.4549C24.1307 14.4801 24.0657 14.493 24 14.4929Z" fill="black"/>
<path d="M21.5166 29.5164C18.4219 29.5164 13.897 27.9295 8.9834 23.0164C4.855 18.8875 3.3457 15.2615 2.80615 12.947C2.20068 10.3493 2.52197 7.95872 3.62451 6.85716L5.09619 5.38551C5.67179 4.8355 6.43727 4.52858 7.2334 4.52858C8.02953 4.52858 8.79501 4.8355 9.37061 5.38551L12.124 8.13844C12.6875 8.70345 13.004 9.46887 13.004 10.2669C13.004 11.0649 12.6875 11.8303 12.124 12.3953C12.1211 12.3982 10.6235 13.8709 10.2607 14.2332C10.2949 16.2134 11.0955 18.1033 12.4941 19.5056C13.1894 20.2143 14.0224 20.7732 14.9417 21.148C15.861 21.5228 16.8472 21.7057 17.8398 21.6853C18.1289 21.3757 19.6015 19.8787 19.6015 19.8787C20.1747 19.3299 20.9374 19.0234 21.7308 19.0228C22.5243 19.0223 23.2874 19.3278 23.8613 19.8757L26.6142 22.6287C26.895 22.9093 27.1178 23.2424 27.2698 23.6091C27.4218 23.9759 27.5 24.3689 27.5 24.7659C27.5 25.1628 27.4218 25.5559 27.2698 25.9226C27.1178 26.2893 26.895 26.6225 26.6142 26.9031L25.1426 28.3748C24.1229 29.2023 22.8264 29.6105 21.5166 29.5164ZM9.69043 22.3094C16.8511 29.4695 23.0527 29.0457 24.4355 27.6678L25.9072 26.1961C26.2857 25.8164 26.4983 25.3021 26.4983 24.7659C26.4983 24.2298 26.2857 23.7155 25.9072 23.3357L23.1543 20.5828C22.7715 20.217 22.2624 20.013 21.7329 20.013C21.2034 20.013 20.6944 20.217 20.3115 20.5828C20.3115 20.5828 18.8379 22.0808 18.4746 22.4461C17.7744 23.1404 14.0894 22.5154 11.7871 20.2127C10.7192 19.1129 9.94863 17.7596 9.54785 16.28C9.4873 16.0583 8.97461 14.1042 9.55371 13.5261C9.91846 13.1618 11.4199 11.6853 11.4199 11.6853C11.795 11.3077 12.0053 10.797 12.0047 10.2648C12.0042 9.73256 11.7929 9.22225 11.417 8.84547L8.66357 6.09254C8.27817 5.72491 7.76601 5.5198 7.23339 5.5198C6.70077 5.5198 6.18861 5.72491 5.80322 6.09254L4.33154 7.56422C3.62402 8.27122 3.17871 10.1404 3.78027 12.7205C4.29 14.908 5.729 18.3475 9.69043 22.3094Z" fill="black"/>
</svg>
