<svg width="32" height="32" viewBox="0 0 32 32" fill="none" xmlns="http://www.w3.org/2000/svg">
<path d="M25 25.5C24.8999 25.5001 24.8022 25.4701 24.7193 25.4139C24.6365 25.3578 24.5724 25.2781 24.5354 25.1852C24.4983 25.0922 24.49 24.9903 24.5115 24.8926C24.533 24.7949 24.5834 24.7058 24.656 24.637C25.8524 23.5354 26.8106 22.2005 27.4717 20.7146C28.1328 19.2287 28.4827 17.6233 28.5 15.997C28.4908 14.3704 28.1446 12.7634 27.4831 11.2774C26.8217 9.79133 25.8594 8.45851 24.657 7.36303C24.607 7.31857 24.5664 7.26453 24.5377 7.20411C24.509 7.14369 24.4927 7.07812 24.4897 7.01127C24.4868 6.94443 24.4973 6.87768 24.5206 6.81498C24.544 6.75227 24.5797 6.69489 24.6256 6.64623C24.6715 6.59757 24.7267 6.55862 24.788 6.53168C24.8492 6.50475 24.9152 6.49038 24.9821 6.48943C25.049 6.48848 25.1154 6.50096 25.1774 6.52615C25.2394 6.55133 25.2957 6.58869 25.343 6.63603C26.6459 7.82486 27.6881 9.27103 28.4036 10.8831C29.1191 12.4953 29.4924 14.2383 29.5 16.002C29.4825 17.7633 29.1048 19.5024 28.39 21.1123C27.6753 22.7222 26.6387 24.1688 25.344 25.363C25.2513 25.4514 25.1281 25.5005 25 25.5V25.5ZM16 19.5C15.0717 19.5 14.1815 19.1313 13.5251 18.4749C12.8687 17.8185 12.5 16.9283 12.5 16C12.5 15.0718 12.8687 14.1815 13.5251 13.5252C14.1815 12.8688 15.0717 12.5 16 12.5C16.9283 12.5 17.8185 12.8688 18.4749 13.5252C19.1313 14.1815 19.5 15.0718 19.5 16C19.5 16.9283 19.1313 17.8185 18.4749 18.4749C17.8185 19.1313 16.9283 19.5 16 19.5ZM16 13.5C15.337 13.5 14.7011 13.7634 14.2322 14.2323C13.7634 14.7011 13.5 15.337 13.5 16C13.5 16.6631 13.7634 17.299 14.2322 17.7678C14.7011 18.2366 15.337 18.5 16 18.5C16.663 18.5 17.2989 18.2366 17.7678 17.7678C18.2366 17.299 18.5 16.6631 18.5 16C18.5 15.337 18.2366 14.7011 17.7678 14.2323C17.2989 13.7634 16.663 13.5 16 13.5ZM7 25.5C6.87195 25.5005 6.74868 25.4514 6.656 25.363C5.36122 24.1688 4.32455 22.7223 3.60981 21.1124C2.89507 19.5025 2.51739 17.7634 2.5 16.002C2.50763 14.2383 2.881 12.4953 3.59651 10.8832C4.31203 9.27108 5.35414 7.8249 6.657 6.63603C6.70428 6.58869 6.76058 6.55133 6.82257 6.52615C6.88456 6.50096 6.95097 6.48848 7.01786 6.48943C7.08476 6.49038 7.15079 6.50475 7.21204 6.53168C7.27328 6.55862 7.3285 6.59757 7.37442 6.64623C7.42033 6.69489 7.45602 6.75227 7.47935 6.81498C7.50269 6.87768 7.51321 6.94443 7.51028 7.01127C7.50735 7.07812 7.49103 7.14369 7.4623 7.20411C7.43357 7.26453 7.393 7.31857 7.343 7.36303C6.14038 8.45855 5.17796 9.79151 4.5165 11.2778C3.85505 12.764 3.50893 14.3713 3.5 15.998C3.51741 17.6241 3.86742 19.2294 4.5285 20.7151C5.18959 22.2008 6.14774 23.5355 7.344 24.637C7.41664 24.7058 7.46697 24.7949 7.48847 24.8926C7.50997 24.9903 7.50166 25.0922 7.46461 25.1852C7.42756 25.2781 7.36348 25.3578 7.28065 25.4139C7.19782 25.4701 7.10006 25.5001 7 25.5Z" fill="#0F0F0F"/>
<path d="M10 21C9.87195 21.0004 9.74868 20.9513 9.656 20.863C8.9839 20.2428 8.44588 19.4915 8.07509 18.6555C7.7043 17.8195 7.50859 16.9165 7.5 16.002C7.50368 15.086 7.69727 14.1807 8.06853 13.3434C8.4398 12.506 8.98067 11.7547 9.657 11.137C9.7285 11.0682 9.81892 11.0223 9.91668 11.0052C10.0144 10.9881 10.1151 11.0007 10.2056 11.0412C10.2962 11.0817 10.3726 11.1483 10.4251 11.2326C10.4775 11.3168 10.5036 11.4148 10.5 11.514C10.4982 11.5798 10.4833 11.6446 10.4564 11.7046C10.4295 11.7647 10.3909 11.8188 10.343 11.864C9.76704 12.3882 9.30592 13.0262 8.98872 13.7375C8.67153 14.4488 8.50512 15.2181 8.5 15.997C8.50866 16.7762 8.67673 17.5454 8.99386 18.2572C9.31099 18.969 9.77047 19.6084 10.344 20.136C10.417 20.2047 10.4676 20.2938 10.4894 20.3917C10.5111 20.4896 10.5028 20.5918 10.4657 20.6849C10.4287 20.7781 10.3644 20.8579 10.2814 20.9141C10.1983 20.9703 10.1003 21.0002 10 21V21ZM22 21C21.8999 21 21.8022 20.97 21.7193 20.9139C21.6365 20.8577 21.5724 20.7781 21.5354 20.6851C21.4983 20.5922 21.49 20.4902 21.5115 20.3925C21.533 20.2948 21.5834 20.2058 21.656 20.137C22.2297 19.6093 22.6892 18.9698 23.0063 18.2578C23.3235 17.5457 23.4915 16.7764 23.5 15.997C23.495 15.218 23.3286 14.4485 23.0114 13.737C22.6942 13.0255 22.233 12.3874 21.657 11.863C21.6056 11.8189 21.5637 11.7649 21.5338 11.7041C21.5039 11.6434 21.4867 11.5772 21.4832 11.5096C21.4796 11.442 21.4898 11.3744 21.5132 11.3109C21.5365 11.2473 21.5726 11.1892 21.619 11.14C21.6655 11.0908 21.7215 11.0515 21.7836 11.0246C21.8458 10.9977 21.9127 10.9837 21.9804 10.9834C22.0481 10.9831 22.1151 10.9966 22.1774 11.023C22.2398 11.0494 22.2961 11.0882 22.343 11.137C23.0193 11.7548 23.5601 12.506 23.9314 13.3434C24.3026 14.1808 24.4963 15.086 24.5 16.002C24.4913 16.9164 24.2955 17.8195 23.9247 18.6555C23.554 19.4914 23.016 20.2427 22.344 20.863C22.2513 20.9513 22.1281 21.0004 22 21V21Z" fill="#0F0F0F"/>
</svg>
