<svg xmlns="http://www.w3.org/2000/svg" width="32" height="32" viewBox="0 0 32 32"><path d="M19 28.5H17.021C15.6353 28.5323 14.291 28.0268 13.27 27.0894C12.2491 26.152 11.6308 24.8557 11.5449 23.4723C12.9013 23.3349 14.1586 22.6993 15.0735 21.6884C15.9883 20.6776 16.4957 19.3634 16.4976 18V8C16.4976 6.54131 15.9181 5.14236 14.8866 4.11091C13.8552 3.07946 12.4563 2.5 10.9976 2.5C9.53887 2.5 8.13992 3.07946 7.10847 4.11091C6.07702 5.14236 5.49756 6.54131 5.49756 8V18C5.49963 19.3757 6.01666 20.7007 6.94684 21.7142C7.87702 22.7277 9.15295 23.3562 10.5234 23.476C10.5873 24.4903 10.8915 25.4748 11.4108 26.3483C11.9302 27.2219 12.6498 27.9594 13.5104 28.5H3C2.86739 28.5 2.74021 28.5527 2.64645 28.6464C2.55268 28.7402 2.5 28.8674 2.5 29C2.5 29.1326 2.55268 29.2598 2.64645 29.3536C2.74021 29.4473 2.86739 29.5 3 29.5H19C19.1326 29.5 19.2598 29.4473 19.3536 29.3536C19.4473 29.2598 19.5 29.1326 19.5 29C19.5 28.8674 19.4473 28.7402 19.3536 28.6464C19.2598 28.5527 19.1326 28.5 19 28.5ZM6.49756 18V8.00002C6.49756 6.80655 6.97167 5.66195 7.81558 4.81804C8.65949 3.97413 9.80409 3.50002 10.9976 3.50002C12.191 3.50002 13.3356 3.97413 14.1795 4.81804C15.0235 5.66195 15.4976 6.80655 15.4976 8.00002V18C15.4976 19.1935 15.0235 20.3381 14.1795 21.182C13.3356 22.0259 12.191 22.5 10.9976 22.5C9.80409 22.5 8.65949 22.0259 7.81558 21.182C6.97167 20.3381 6.49756 19.1935 6.49756 18Z M24.8213 5.74275C24.6792 5.97954 24.756 6.28667 24.9928 6.42875C27.316 7.82269 28.5 10.3928 28.5 13C28.5 15.6072 27.316 18.1773 24.9928 19.5713C24.756 19.7133 24.6792 20.0205 24.8213 20.2572C24.9633 20.494 25.2705 20.5708 25.5072 20.4287C28.184 18.8227 29.5 15.8928 29.5 13C29.5 10.1072 28.184 7.17731 25.5072 5.57125C25.2705 5.42918 24.9633 5.50596 24.8213 5.74275Z M21.584 8.72265C21.4308 8.95241 21.4929 9.26285 21.7227 9.41603C24.4258 11.2181 24.4258 14.7819 21.7227 16.584C21.4929 16.7372 21.4308 17.0476 21.584 17.2774C21.7372 17.5071 22.0476 17.5692 22.2774 17.416C25.5742 15.2181 25.5742 10.7819 22.2773 8.58397C22.0476 8.4308 21.7372 8.49289 21.584 8.72265Z"/></svg>