<svg width="32" height="32" viewBox="0 0 32 32" fill="none" xmlns="http://www.w3.org/2000/svg">
<path d="M24.0024 28.0003H22.023C20.843 28.0295 19.6924 27.6297 18.7849 26.875C17.8773 26.1203 17.2743 25.0621 17.0877 23.8965C18.4659 23.6414 19.7115 22.9123 20.6087 21.8355C21.506 20.7587 21.9983 19.4019 22.0005 18.0003V8.0003C22.0005 6.409 21.3684 4.88287 20.2431 3.75766C19.1179 2.63244 17.5918 2.0003 16.0005 2.0003C14.4092 2.0003 12.8831 2.63244 11.7579 3.75766C10.6326 4.88287 10.0005 6.409 10.0005 8.0003V18.0003C10.003 19.4284 10.5144 20.8088 11.443 21.8938C12.3716 22.9788 13.6565 23.6972 15.0671 23.9202C15.2554 25.4667 15.9604 26.9044 17.0677 28.0003H8.00244C7.73723 28.0003 7.48287 28.1057 7.29533 28.2932C7.1078 28.4807 7.00244 28.7351 7.00244 29.0003C7.00244 29.2655 7.1078 29.5199 7.29533 29.7074C7.48287 29.8949 7.73723 30.0003 8.00244 30.0003H24.0024C24.2677 30.0003 24.522 29.8949 24.7095 29.7074C24.8971 29.5199 25.0024 29.2655 25.0024 29.0003C25.0024 28.7351 24.8971 28.4807 24.7095 28.2932C24.522 28.1057 24.2677 28.0003 24.0024 28.0003ZM12.0005 14.9883V13.0003H20.0005V14.9883H12.0005ZM16.0005 4.0003C17.061 4.00136 18.0778 4.42312 18.8277 5.17304C19.5777 5.92296 19.9994 6.93976 20.0005 8.0003V11.0003H12.0005V8.0003C12.0016 6.93976 12.4233 5.92296 13.1732 5.17304C13.9231 4.42312 14.9399 4.00136 16.0005 4.0003Z" fill="black"/>
</svg>
