<svg width="32" height="32" viewBox="0 0 32 32" fill="none" xmlns="http://www.w3.org/2000/svg">
<path d="M24.0021 28.25H22.0231C20.7411 28.2802 19.4946 27.8277 18.5306 26.9822C17.5666 26.1367 16.9554 24.9599 16.8181 23.685C18.1858 23.4876 19.4368 22.8045 20.3424 21.7607C21.248 20.7168 21.7477 19.3819 21.7501 18V8C21.7501 6.47501 21.1443 5.01247 20.0659 3.93414C18.9876 2.8558 17.525 2.25 16.0001 2.25C14.4751 2.25 13.0125 2.8558 11.9342 3.93414C10.8559 5.01247 10.2501 6.47501 10.2501 8V18C10.2523 19.4004 10.765 20.752 11.6922 21.8014C12.6195 22.8509 13.8976 23.5263 15.2871 23.701C15.3704 24.5832 15.6287 25.44 16.047 26.2212C16.4653 27.0025 17.035 27.6925 17.7231 28.251H8.00305C7.80414 28.251 7.61337 28.33 7.47272 28.4707C7.33207 28.6113 7.25305 28.8021 7.25305 29.001C7.25305 29.1999 7.33207 29.3907 7.47272 29.5313C7.61337 29.672 7.80414 29.751 8.00305 29.751H24.0031C24.202 29.751 24.3927 29.672 24.5334 29.5313C24.674 29.3907 24.7531 29.1999 24.7531 29.001C24.7531 28.8021 24.674 28.6113 24.5334 28.4707C24.3927 28.33 24.202 28.251 24.0031 28.251L24.0021 28.25ZM11.7511 14.988V12.75H20.2511V14.988H11.7511V14.988ZM16.0001 3.75C17.1269 3.75106 18.2073 4.19917 19.0041 4.99597C19.8009 5.79277 20.249 6.87315 20.2501 8V11.25H11.7501V8C11.7511 6.87315 12.1992 5.79277 12.996 4.99597C13.7928 4.19917 14.8732 3.75106 16.0001 3.75V3.75Z" fill="#0F0F0F"/>
<path d="M11.75 15H20.25V18C20.25 19.0609 19.8286 20.0783 19.0784 20.8284C18.3283 21.5786 17.3109 22 16.25 22H15.75C14.6891 22 13.6717 21.5786 12.9216 20.8284C12.1714 20.0783 11.75 19.0609 11.75 18V15ZM11.75 11.25H20.25V12.75H11.75V11.25Z" fill="#27A17A"/>
</svg>
