<svg width="32" height="32" viewBox="0 0 32 32" fill="none" xmlns="http://www.w3.org/2000/svg">
<path d="M27.997 14C27.7319 13.9997 27.4777 13.8943 27.2902 13.7068C27.1027 13.5193 26.9973 13.2651 26.997 13C26.9711 10.9858 26.1758 9.05769 24.774 7.611C24.0391 6.80683 23.1481 6.16064 22.1555 5.71176C21.1628 5.26289 20.0892 5.02072 19 5C18.7348 5 18.4804 4.89464 18.2929 4.70711C18.1054 4.51957 18 4.26522 18 4C18 3.73478 18.1054 3.48043 18.2929 3.29289C18.4804 3.10536 18.7348 3 19 3C20.3622 3.02098 21.7058 3.31917 22.949 3.87638C24.1922 4.43358 25.3089 5.23814 26.231 6.241C27.9821 8.05821 28.9718 10.4765 28.997 13C28.9965 13.2651 28.8909 13.5191 28.7035 13.7065C28.5161 13.8939 28.2621 13.9995 27.997 14V14Z" fill="#0F0F0F"/>
<path d="M24 14.993C23.7348 14.993 23.4804 14.8876 23.2929 14.7001C23.1054 14.5126 23 14.2582 23 13.993C23.0522 13.3288 22.9669 12.661 22.7494 12.0313C22.532 11.4015 22.187 10.8234 21.736 10.333C20.7225 9.42513 19.3956 8.94709 18.036 8.99999H18C17.8687 9.00026 17.7386 8.97465 17.6172 8.92464C17.4957 8.87463 17.3854 8.80119 17.2923 8.70852C17.1993 8.61584 17.1254 8.50575 17.0749 8.38453C17.0244 8.2633 16.9983 8.13332 16.998 8.00199C16.9977 7.87067 17.0234 7.74059 17.0734 7.61916C17.1234 7.49773 17.1968 7.38735 17.2895 7.2943C17.3822 7.20126 17.4923 7.12738 17.6135 7.07688C17.7347 7.02638 17.8647 7.00026 17.996 6.99999H18.037C19.9199 6.93376 21.7522 7.61706 23.132 8.89999C23.78 9.57262 24.2808 10.3729 24.6024 11.2498C24.924 12.1266 25.0594 13.0609 25 13.993C25.0003 14.1244 24.9746 14.2545 24.9244 14.376C24.8743 14.4974 24.8006 14.6078 24.7077 14.7007C24.6148 14.7936 24.5044 14.8673 24.383 14.9174C24.2616 14.9676 24.1314 14.9933 24 14.993V14.993ZM24.861 18.876C24.2871 18.328 23.5239 18.0224 22.7304 18.023C21.9369 18.0236 21.1741 18.3302 20.601 18.879C20.601 18.879 19.13 20.376 18.84 20.685C17.8475 20.7057 16.8612 20.5229 15.942 20.148C15.0227 19.7731 14.19 19.2139 13.495 18.505C12.0966 17.1028 11.2962 15.2131 11.262 13.233C11.624 12.871 13.122 11.398 13.125 11.395C13.6883 10.8299 14.0047 10.0644 14.0047 9.2665C14.0047 8.46855 13.6883 7.70314 13.125 7.13799L10.371 4.38599C9.79538 3.83621 9.03001 3.52942 8.23401 3.52942C7.43801 3.52942 6.67263 3.83621 6.09701 4.38599L4.62501 5.85699C2.74201 7.73999 2.38201 14.413 9.98501 22.017C14.898 26.93 19.422 28.517 22.518 28.517C23.8279 28.6107 25.1243 28.2024 26.144 27.375L27.615 25.903C28.1806 25.3356 28.4982 24.5671 28.4982 23.766C28.4982 22.9649 28.1806 22.1964 27.615 21.629L24.861 18.876V18.876Z" fill="#0F0F0F"/>
</svg>
