<svg width="32" height="32" viewBox="0 0 32 32" fill="none" xmlns="http://www.w3.org/2000/svg">
<path d="M27.9971 13.9998C27.8657 13.9998 27.7357 13.974 27.6143 13.9238C27.4929 13.8736 27.3827 13.7999 27.2898 13.707C27.1969 13.6142 27.1233 13.5039 27.073 13.3825C27.0228 13.2612 26.997 13.1311 26.9971 12.9998C26.9712 10.9857 26.176 9.05774 24.7744 7.6111C24.0394 6.80683 23.1485 6.16055 22.1557 5.71161C21.163 5.26268 20.0893 5.02048 19 4.99977C18.7348 4.99977 18.4804 4.89441 18.2929 4.70688C18.1054 4.51934 18 4.26499 18 3.99977C18 3.73455 18.1054 3.4802 18.2929 3.29266C18.4804 3.10513 18.7348 2.99977 19 2.99977C20.3623 3.02072 21.706 3.31891 22.9493 3.87616C24.1926 4.43341 25.3093 5.23804 26.2315 6.241C27.9824 8.05825 28.9719 10.4764 28.9971 12.9998C28.9971 13.1311 28.9713 13.2612 28.9211 13.3826C28.8709 13.5039 28.7972 13.6142 28.7043 13.7071C28.6115 13.7999 28.5012 13.8736 28.3798 13.9238C28.2585 13.974 28.1284 13.9998 27.9971 13.9998Z" fill="black"/>
<path d="M24 14.9929C23.8687 14.993 23.7386 14.9672 23.6172 14.917C23.4959 14.8667 23.3856 14.7931 23.2927 14.7002C23.1999 14.6073 23.1262 14.4971 23.076 14.3757C23.0257 14.2543 22.9999 14.1243 23 13.9929C23.0522 13.3288 22.9669 12.661 22.7495 12.0312C22.532 11.4015 22.1872 10.8233 21.7363 10.3328C20.7226 9.42461 19.3952 8.94655 18.0352 8.99978C18.0244 8.99978 18.0127 8.99878 18 8.99978C17.7348 9.0003 17.4802 8.89544 17.2923 8.70827C17.1044 8.5211 16.9986 8.26695 16.998 8.00174C16.9975 7.73652 17.1024 7.48196 17.2896 7.29406C17.4767 7.10615 17.7309 7.0003 17.9961 6.99978H18.0371C19.92 6.93376 21.7521 7.61719 23.1318 8.90017C23.7798 9.57278 24.2806 10.373 24.6022 11.2498C24.9239 12.1266 25.0593 13.0609 25 13.9929C25.0001 14.1243 24.9743 14.2543 24.924 14.3757C24.8738 14.4971 24.8002 14.6073 24.7073 14.7002C24.6144 14.7931 24.5041 14.8667 24.3828 14.917C24.2614 14.9672 24.1313 14.993 24 14.9929Z" fill="black"/>
<path d="M24.2116 19.5155C23.8848 19.1893 23.4969 18.9307 23.0702 18.7544C22.6434 18.5781 22.186 18.4877 21.7243 18.4883C21.2626 18.4888 20.8054 18.5803 20.3791 18.7576C19.9527 18.9349 19.5654 19.1944 19.2394 19.5214C19.2394 19.5214 18.0826 20.7003 17.5677 21.2198C15.7859 21.1462 14.0971 20.4048 12.837 19.143C11.5769 17.8812 10.8377 16.1914 10.7665 14.4095C11.2862 13.8939 12.4626 12.7356 12.4685 12.7297C13.1273 12.0699 13.4973 11.1756 13.4973 10.2433C13.4973 9.31086 13.1273 8.41658 12.4685 7.75679L9.71414 4.99879C9.04306 4.35737 8.1505 3.99942 7.22218 3.99942C6.29387 3.99942 5.4013 4.35737 4.73022 4.99879L3.25782 6.4732C1.25 8.48272 0.762441 15.5033 8.61889 23.3702C13.6185 28.3774 18.2761 29.9995 21.5199 29.9995C22.9565 30.0998 24.3773 29.6493 25.4936 28.7394L26.9659 27.265C27.6272 26.603 27.9987 25.7055 27.9987 24.7697C27.9987 23.834 27.6272 22.9365 26.9659 22.2745L24.2116 19.5155ZM25.5512 25.8483L24.0787 27.2855C22.7997 28.5632 16.9434 28.8352 10.0337 21.9164C3.123 14.9965 3.39461 9.16952 4.67259 7.88984L6.145 6.44743C6.28631 6.30571 6.45421 6.19327 6.63905 6.11654C6.8239 6.03982 7.02207 6.00033 7.2222 6.00033C7.42234 6.00033 7.62051 6.03982 7.80535 6.11654C7.9902 6.19327 8.15809 6.30571 8.2994 6.44743L11.0537 9.17343C11.3361 9.45632 11.4952 9.83939 11.4963 10.2391C11.4974 10.6388 11.3404 11.0228 11.0596 11.3072C11.0596 11.3072 9.55393 12.7894 9.18856 13.1553C7.88518 14.4643 9.65656 18.7915 11.4241 20.5614C12.5856 21.6923 14.016 22.5088 15.5804 22.9339C16.491 23.1833 18.1227 23.4974 18.8213 22.7989C19.1848 22.4349 20.6601 20.9332 20.6601 20.9322C20.9437 20.6493 21.3279 20.4904 21.7285 20.4904C22.1291 20.4904 22.5133 20.6493 22.7969 20.9322L25.5512 23.6911C25.8371 23.9773 25.9977 24.3652 25.9977 24.7697C25.9977 25.1742 25.8371 25.5622 25.5512 25.8483Z" fill="black"/>
</svg>
