<svg width="32" height="32" viewBox="0 0 32 32" fill="none" xmlns="http://www.w3.org/2000/svg">
<path d="M29.354 2.64603C29.2603 2.55229 29.1331 2.49963 29.0005 2.49963C28.868 2.49963 28.7408 2.55229 28.647 2.64603L19.5 11.79V5.00003C19.5 4.86742 19.4474 4.74024 19.3536 4.64647C19.2598 4.55271 19.1326 4.50003 19 4.50003C18.8674 4.50003 18.7402 4.55271 18.6465 4.64647C18.5527 4.74024 18.5 4.86742 18.5 5.00003V13C18.5003 13.1326 18.5531 13.2596 18.6468 13.3533C18.7405 13.447 18.8675 13.4998 19 13.5H27C27.1326 13.5 27.2598 13.4473 27.3536 13.3536C27.4474 13.2598 27.5 13.1326 27.5 13C27.5 12.8674 27.4474 12.7402 27.3536 12.6465C27.2598 12.5527 27.1326 12.5 27 12.5H20.204L29.354 3.35303C29.4007 3.30673 29.4377 3.25166 29.463 3.19099C29.4883 3.13032 29.5013 3.06525 29.5013 2.99953C29.5013 2.9338 29.4883 2.86873 29.463 2.80806C29.4377 2.74739 29.4007 2.69232 29.354 2.64603V2.64603ZM23.861 19.876C23.2871 19.328 22.524 19.0225 21.7304 19.023C20.9369 19.0236 20.1742 19.3302 19.601 19.879C19.601 19.879 18.129 21.376 17.84 21.685C16.8474 21.7055 15.861 21.5226 14.9417 21.1477C14.0223 20.7728 13.1893 20.2138 12.494 19.505C11.0956 18.1028 10.2952 16.2131 10.261 14.233C10.623 13.871 12.121 12.398 12.124 12.395C12.4036 12.1155 12.6253 11.7837 12.7766 11.4185C12.9279 11.0533 13.0057 10.6618 13.0057 10.2665C13.0057 9.87122 12.9279 9.47979 12.7766 9.11458C12.6253 8.74937 12.4036 8.41753 12.124 8.13803L9.37103 5.38603C8.79524 4.83617 8.0297 4.52936 7.23353 4.52936C6.43737 4.52936 5.67182 4.83617 5.09603 5.38603L3.62403 6.85703C1.74103 8.74003 1.38103 15.413 8.98403 23.017C13.896 27.93 18.421 29.517 21.517 29.517C22.8269 29.6108 24.1233 29.2025 25.143 28.375L26.614 26.903C26.8947 26.6224 27.1173 26.2892 27.2692 25.9226C27.4211 25.5559 27.4993 25.1629 27.4993 24.766C27.4993 24.3691 27.4211 23.9761 27.2692 23.6095C27.1173 23.2428 26.8947 22.9096 26.614 22.629L23.861 19.876V19.876ZM25.907 26.196L24.436 27.668C23.053 29.048 16.85 29.468 9.69003 22.309C2.53103 15.15 2.95003 8.94503 4.33103 7.56403L5.80303 6.09303C6.18268 5.71412 6.69715 5.50131 7.23353 5.50131C7.76991 5.50131 8.28438 5.71412 8.66403 6.09303L11.417 8.84503C11.7936 9.22147 12.0054 9.73195 12.006 10.2644C12.0065 10.7969 11.7958 11.3078 11.42 11.685C11.42 11.685 9.91803 13.162 9.55403 13.526C8.97403 14.106 9.48703 16.058 9.54803 16.28C9.94874 17.7599 10.7196 19.1134 11.788 20.213C14.09 22.515 17.778 23.143 18.475 22.446C18.838 22.081 20.311 20.583 20.311 20.583C20.6938 20.2171 21.203 20.0128 21.7325 20.0128C22.2621 20.0128 22.7713 20.2171 23.154 20.583L25.907 23.336C26.2854 23.7158 26.4978 24.23 26.4978 24.766C26.4978 25.3021 26.2854 25.8163 25.907 26.196V26.196Z" fill="#0F0F0F"/>
</svg>
