<svg xmlns="http://www.w3.org/2000/svg" width="32" height="32" viewBox="0 0 32 32"><path d="M25 25.7499C24.85 25.7496 24.7036 25.7043 24.5796 25.62C24.4556 25.5357 24.3596 25.4162 24.3041 25.2769C24.2486 25.1376 24.236 24.9848 24.2681 24.8383C24.3002 24.6918 24.3754 24.5583 24.484 24.4549C25.6558 23.3764 26.5944 22.0694 27.2421 20.6144C27.8897 19.1595 28.2327 17.5874 28.25 15.9949C28.2405 14.4027 27.901 12.8298 27.2529 11.3754C26.6049 9.92099 25.6624 8.61673 24.485 7.54491C24.3453 7.40719 24.2651 7.22022 24.2616 7.02408C24.2581 6.82794 24.3316 6.63824 24.4664 6.49565C24.6011 6.35307 24.7863 6.26895 24.9824 6.26133C25.1784 6.25371 25.3696 6.32321 25.515 6.45491C26.8428 7.66705 27.9047 9.14143 28.6336 10.7849C29.3626 12.4283 29.7427 14.2051 29.75 16.0029C29.7326 17.7981 29.3479 19.5708 28.6198 21.2118C27.8916 22.8528 26.8354 24.3274 25.516 25.5449C25.3766 25.6767 25.1919 25.7501 25 25.7499ZM16 19.7499C15.0053 19.7499 14.0514 19.3548 13.348 18.6514C12.6446 17.9481 12.2495 16.9941 12.2495 15.9994C12.2495 15.0047 12.6446 14.0508 13.348 13.3474C14.0514 12.644 15.0053 12.2489 16 12.2489C16.9946 12.2489 17.9484 12.644 18.6517 13.3473C19.3549 14.0505 19.75 15.0043 19.75 15.9989C19.75 16.9935 19.3549 17.9473 18.6517 18.6506C17.9484 19.3538 16.9946 19.7489 16 19.7489V19.7499ZM16 13.7499C15.4033 13.7499 14.831 13.987 14.409 14.4089C13.9871 14.8309 13.75 15.4032 13.75 15.9999C13.75 16.5966 13.9871 17.1689 14.409 17.5909C14.831 18.0129 15.4033 18.2499 16 18.2499C16.5967 18.2499 17.169 18.0129 17.591 17.5909C18.0129 17.1689 18.25 16.5966 18.25 15.9999C18.25 15.4032 18.0129 14.8309 17.591 14.4089C17.169 13.987 16.5967 13.7499 16 13.7499ZM7 25.7499C6.80811 25.7501 6.62344 25.6767 6.484 25.5449C5.16475 24.3275 4.10857 22.853 3.38042 21.2122C2.65228 19.5714 2.26758 17.7989 2.25 16.0039C2.25704 14.2057 2.63704 12.4286 3.36599 10.7848C4.09495 9.14098 5.15699 7.66628 6.485 6.45391C6.63039 6.32221 6.8216 6.25272 7.01763 6.26033C7.21365 6.26795 7.39889 6.35207 7.53363 6.49465C7.66837 6.63724 7.74187 6.82694 7.73839 7.02308C7.73491 7.21922 7.65471 7.40619 7.515 7.54391C6.33728 8.61615 5.39465 9.92091 4.74662 11.3758C4.09859 12.8308 3.75925 14.4042 3.75 15.9969C3.76752 17.5891 4.11068 19.1608 4.75834 20.6154C5.406 22.0699 6.34447 23.3766 7.516 24.4549C7.62514 24.5581 7.70079 24.6917 7.73315 24.8383C7.7655 24.985 7.75308 25.138 7.69749 25.2775C7.64189 25.417 7.54569 25.5367 7.42133 25.6209C7.29697 25.7051 7.15019 25.7501 7 25.7499Z M10 21.2501C9.80811 21.2503 9.62344 21.1769 9.484 21.0451C8.78731 20.4016 8.2297 19.6223 7.8455 18.7552C7.4613 17.8881 7.25864 16.9515 7.25 16.0031C7.25341 15.0529 7.45378 14.1137 7.83847 13.2449C8.22315 12.376 8.78379 11.5964 9.485 10.9551C9.63039 10.8234 9.8216 10.7539 10.0176 10.7615C10.2137 10.7692 10.3989 10.8533 10.5336 10.9959C10.6684 11.1384 10.7419 11.3281 10.7384 11.5243C10.7349 11.7204 10.6547 11.9074 10.515 12.0451C9.96367 12.5461 9.52218 13.156 9.21839 13.8362C8.9146 14.5164 8.75512 15.2522 8.75 15.9971C8.75878 16.7424 8.91999 17.4781 9.2237 18.1587C9.52741 18.8394 9.9672 19.4508 10.516 19.9551C10.6251 20.0583 10.7008 20.1919 10.7331 20.3385C10.7655 20.4852 10.7531 20.6382 10.6975 20.7777C10.6419 20.9173 10.5457 21.0369 10.4213 21.1211C10.297 21.2053 10.1502 21.2503 10 21.2501ZM22 21.2501C21.85 21.2498 21.7036 21.2045 21.5796 21.1202C21.4556 21.0359 21.3596 20.9164 21.3041 20.7771C21.2486 20.6378 21.236 20.485 21.2681 20.3385C21.3002 20.192 21.3754 20.0585 21.484 19.9551C22.0329 19.4509 22.4728 18.8396 22.7765 18.1589C23.0803 17.4781 23.2414 16.7425 23.25 15.9971C23.2448 15.2522 23.0852 14.5164 22.7814 13.8362C22.4777 13.1561 22.0362 12.5462 21.485 12.0451C21.411 11.9781 21.3512 11.897 21.3089 11.8065C21.2667 11.7161 21.2429 11.6181 21.2391 11.5184C21.2352 11.4186 21.2513 11.3191 21.2864 11.2257C21.3214 11.1322 21.3748 11.0467 21.4434 10.9741C21.5119 10.9016 21.5943 10.8435 21.6856 10.8031C21.7769 10.7628 21.8754 10.7411 21.9752 10.7394C22.075 10.7376 22.1742 10.7558 22.2668 10.7928C22.3595 10.8299 22.4439 10.885 22.515 10.9551C23.2163 11.5963 23.777 12.3759 24.1617 13.2448C24.5464 14.1137 24.7467 15.0529 24.75 16.0031C24.7413 16.9515 24.5386 17.888 24.1544 18.7551C23.7702 19.6223 23.2126 20.4016 22.516 21.0451C22.3766 21.1769 22.1919 21.2503 22 21.2501Z"/></svg>