<svg xmlns="http://www.w3.org/2000/svg" width="32" height="32" viewBox="0 0 32 32"><path d="M29.3539 2.6459C29.2601 2.55217 29.133 2.49951 29.0004 2.49951C28.8678 2.49951 28.7407 2.55217 28.6469 2.6459L19.4999 11.7899V4.9999C19.4999 4.8673 19.4472 4.74012 19.3535 4.64635C19.2597 4.55258 19.1325 4.4999 18.9999 4.4999C18.8673 4.4999 18.7401 4.55258 18.6464 4.64635C18.5526 4.74012 18.4999 4.8673 18.4999 4.9999V12.9999C18.5002 13.1324 18.5529 13.2595 18.6466 13.3532C18.7404 13.4469 18.8674 13.4996 18.9999 13.4999H26.9999C27.1325 13.4999 27.2597 13.4472 27.3535 13.3535C27.4472 13.2597 27.4999 13.1325 27.4999 12.9999C27.4999 12.8673 27.4472 12.7401 27.3535 12.6464C27.2597 12.5526 27.1325 12.4999 26.9999 12.4999H20.2039L29.3539 3.3529C29.4006 3.30661 29.4376 3.25154 29.4629 3.19087C29.4881 3.1302 29.5011 3.06513 29.5011 2.9994C29.5011 2.93368 29.4881 2.86861 29.4629 2.80794C29.4376 2.74727 29.4006 2.6922 29.3539 2.6459ZM23.8609 19.8759C23.287 19.3279 22.5238 19.0224 21.7303 19.0229C20.9368 19.0235 20.174 19.3301 19.6009 19.8789C19.6009 19.8789 18.1289 21.3759 17.8399 21.6849C16.8473 21.7053 15.8609 21.5225 14.9415 21.1476C14.0222 20.7727 13.1892 20.2137 12.4939 19.5049C11.0955 18.1027 10.2951 16.213 10.2609 14.2329C10.6229 13.8709 12.1209 12.3979 12.1239 12.3949C12.4034 12.1154 12.6252 11.7836 12.7765 11.4184C12.9278 11.0531 13.0056 10.6617 13.0056 10.2664C13.0056 9.8711 12.9278 9.47967 12.7765 9.11446C12.6252 8.74925 12.4034 8.41741 12.1239 8.1379L9.37091 5.38591C8.79512 4.83605 8.02957 4.52923 7.23341 4.52923C6.43725 4.52923 5.6717 4.83605 5.09591 5.38591L3.62391 6.8569C1.74091 8.7399 1.38091 15.4129 8.98391 23.0169C13.8959 27.9299 18.4209 29.5169 21.5169 29.5169C22.8268 29.6107 24.1232 29.2023 25.1429 28.3749L26.6139 26.9029C26.8946 26.6223 27.1172 26.2891 27.2691 25.9225C27.421 25.5558 27.4992 25.1628 27.4992 24.7659C27.4992 24.369 27.421 23.976 27.2691 23.6094C27.1172 23.2427 26.8946 22.9095 26.6139 22.6289L23.8609 19.8759ZM25.9069 26.1959L24.4359 27.6679C23.0529 29.0479 16.8499 29.4679 9.68991 22.3089C2.53091 15.1499 2.94991 8.9449 4.33091 7.5639L5.80291 6.0929C6.18256 5.71399 6.69703 5.50119 7.23341 5.50119C7.76979 5.50119 8.28426 5.71399 8.66391 6.0929L11.4169 8.8449C11.7935 9.22135 12.0053 9.73183 12.0058 10.2643C12.0064 10.7967 11.7957 11.3077 11.4199 11.6849C11.4199 11.6849 9.91791 13.1619 9.55391 13.5259C8.97391 14.1059 9.48691 16.0579 9.54791 16.2799C9.94862 17.7598 10.7195 19.1133 11.7879 20.2129C14.0899 22.5149 17.7779 23.1429 18.4749 22.4459C18.8379 22.0809 20.3109 20.5829 20.3109 20.5829C20.6937 20.2169 21.2028 20.0127 21.7324 20.0127C22.262 20.0127 22.7711 20.2169 23.1539 20.5829L25.9069 23.3359C26.2853 23.7156 26.4977 24.2298 26.4977 24.7659C26.4977 25.302 26.2853 25.8162 25.9069 26.1959Z"/></svg>