<svg width="32" height="32" xmlns="http://www.w3.org/2000/svg"><path d="M17.26 15.034a.75.75 0 0 0 1.5 0h-1.5Zm3.79-8.01v-.75h-.002l.003.75Zm1.985.732.48-.576-.48.576Zm.232 7.248a.75.75 0 0 0 1.5 0h-1.5Zm-4.767-3.69a.75.75 0 0 0 0 1.5v-1.5Zm4.59 1.5a.75.75 0 0 0 0-1.5v1.5ZM6.453 20.268a.75.75 0 0 0 0 1.5v-1.5Zm4.542 1.5a.75.75 0 0 0 0-1.5v1.5Zm-4.542 2.5a.75.75 0 0 0 0 1.5v-1.5Zm9.003 1.5a.75.75 0 0 0 0-1.5v1.5Zm-9.043-9.517a.75.75 0 0 0 0 1.5v-1.5Zm2.56 1.5a.75.75 0 0 0 0-1.5v1.5Zm10.767 1.267a.75.75 0 0 0-1.5 0h1.5Zm-10.752-5.26a.75.75 0 0 0 0-1.5v1.5ZM18.99 19.76a.75.75 0 0 0 0-1.5v1.5ZM29 5.008h.75H29Zm-.014 11.976h-.75.75ZM23 18.267a.75.75 0 0 0 0 1.5v-1.5Zm-4.24-3.233V9.975h-1.5v5.059h1.5Zm0-5.059c0-.194.071-.527.226-.884.156-.359.347-.63.502-.76l-.964-1.15c-.404.339-.711.846-.914 1.314-.204.47-.35 1.013-.35 1.48h1.5Zm.728-1.644a2.387 2.387 0 0 1 1.565-.557l-.005-1.5a3.886 3.886 0 0 0-2.524.907l.964 1.15Zm1.563-.557c.602 0 1.063.19 1.503.558l.961-1.152c-.683-.57-1.477-.906-2.464-.906v1.5Zm1.503.558c.153.127.34.396.492.754.15.354.221.69.221.89h1.5c0-.464-.14-1.004-.34-1.476-.199-.469-.503-.979-.912-1.32l-.96 1.152Zm.713 1.643v5.029h1.5V9.975h-1.5ZM18.5 12.814h4.59v-1.5H18.5v1.5ZM6.453 21.768h4.542v-1.5H6.453v1.5Zm0 4h9.003v-1.5H6.453v1.5Zm-.04-8.017h2.56v-1.5h-2.56v1.5Zm11.827 1.267v8.01h1.5v-8.01h-1.5Zm0 8.01c0 .69-.56 1.25-1.25 1.25v1.5a2.75 2.75 0 0 0 2.75-2.75h-1.5Zm-1.25 1.25H5v1.5h11.99v-1.5Zm-11.99 0c-.69 0-1.25-.56-1.25-1.25h-1.5A2.75 2.75 0 0 0 5 29.778v-1.5Zm-1.25-1.25v-12.02h-1.5v12.02h1.5Zm0-12.02c0-.691.56-1.25 1.25-1.25v-1.5a2.75 2.75 0 0 0-2.75 2.75h1.5ZM5 13.757h3.988v-1.5H5v1.5Zm13.99 4.503h-4v1.5h4v-1.5Zm-4 0c-.69 0-1.25-.56-1.25-1.25h-1.5a2.75 2.75 0 0 0 2.75 2.75v-1.5Zm-1.25-1.25V5.008h-1.5V17.01h1.5Zm0-12.003c0-.69.56-1.25 1.25-1.25v-1.5a2.75 2.75 0 0 0-2.75 2.75h1.5Zm1.25-1.25H27v-1.5H14.99v1.5Zm12.01 0c.69 0 1.25.56 1.25 1.25h1.5A2.75 2.75 0 0 0 27 2.258v1.5Zm1.25 1.249-.014 11.976 1.5.002.014-11.976-1.5-.002Zm-.014 11.977c0 .706-.575 1.283-1.25 1.283v1.5c1.535 0 2.75-1.28 2.75-2.783h-1.5Zm-1.25 1.283H23v1.5h3.986v-1.5Z"/></svg>