<svg xmlns="http://www.w3.org/2000/svg" width="32" height="32" viewBox="0 0 32 32"><path d="M3.25 4C3.25 3.58579 3.58579 3.25 4 3.25H16C16.4142 3.25 16.75 3.58579 16.75 4V5.25H23C26.1756 5.25 28.75 7.82436 28.75 11C28.75 14.1756 26.1756 16.75 23 16.75H19.3107L16.5303 19.5303C16.2374 19.8232 15.7626 19.8232 15.4697 19.5303L12.6893 16.75L9 16.75C6.65279 16.75 4.75 18.6528 4.75 21C4.75 23.3472 6.65279 25.25 9 25.25H15.25V24C15.25 23.5858 15.5858 23.25 16 23.25H28C28.4142 23.25 28.75 23.5858 28.75 24V28C28.75 28.4142 28.4142 28.75 28 28.75H16C15.5858 28.75 15.25 28.4142 15.25 28V26.75H9C5.82436 26.75 3.25 24.1756 3.25 21C3.25 17.8244 5.82436 15.25 9 15.25L12.6893 15.25L15.4697 12.4697C15.7626 12.1768 16.2374 12.1768 16.5303 12.4697L19.3107 15.25H23C25.3472 15.25 27.25 13.3472 27.25 11C27.25 8.65279 25.3472 6.75 23 6.75H16.75V8C16.75 8.41421 16.4142 8.75 16 8.75H4C3.58579 8.75 3.25 8.41421 3.25 8V4ZM16.75 27.25H27.25V24.75H16.75V27.25ZM15.25 4.75H4.75V7.25H15.25V4.75ZM14.0607 16L16 17.9393L17.9393 16L16 14.0607L14.0607 16Z"/></svg>