<svg xmlns="http://www.w3.org/2000/svg" width="32" height="32" viewBox="0 0 32 32"><path d="M17.5 9a5.5 5.5 0 1 1 11 0 5.5 5.5 0 0 1-11 0M23 4.5a4.5 4.5 0 1 0 0 9 4.5 4.5 0 0 0 0-9M19.5 9a.5.5 0 0 1 .5-.5h6a.5.5 0 0 1 0 1h-6a.5.5 0 0 1-.5-.5M27.81 21.744l-2.805-2.806a3.034 3.034 0 0 0-4.287.003s-1.501 1.527-1.808 1.85a7.57 7.57 0 0 1-5.492-2.23 7.86 7.86 0 0 1-2.276-5.43c.37-.37 1.895-1.87 1.898-1.873a3.027 3.027 0 0 0 0-4.284L10.234 4.17a3.115 3.115 0 0 0-4.301 0l-1.5 1.5c-1.115 1.114-1.438 3.536-.824 6.17.549 2.355 2.085 6.043 6.286 10.245s7.89 5.738 10.244 6.287a11.3 11.3 0 0 0 2.544.306 5.16 5.16 0 0 0 3.627-1.13l1.5-1.5a3.04 3.04 0 0 0 0-4.303m-.665 3.637-1.5 1.5c-.73.73-2.648 1.188-5.293.573-2.234-.52-5.747-1.99-9.792-6.035C3.242 14.101 3.682 7.75 5.097 6.333l1.5-1.5a2.15 2.15 0 0 1 2.972 0l2.806 2.807a2.087 2.087 0 0 1 .002 2.95s-1.53 1.506-1.9 1.877c-.116.115-.269.342-.27.98a8.93 8.93 0 0 0 2.545 5.779c2.334 2.333 6.061 2.976 6.76 2.277.37-.37 1.874-1.9 1.874-1.9a2.09 2.09 0 0 1 2.953 0l2.806 2.807a2.1 2.1 0 0 1 0 2.971"/></svg>