<svg xmlns="http://www.w3.org/2000/svg" width="32" height="32" viewBox="0 0 32 32"><path d="M28.9998 14.9999H5.41379L13.7068 6.70692C13.8889 6.51832 13.9897 6.26571 13.9875 6.00352C13.9852 5.74132 13.88 5.49051 13.6946 5.3051C13.5092 5.11969 13.2584 5.01452 12.9962 5.01224C12.734 5.00997 12.4814 5.11076 12.2928 5.29292L2.29279 15.2929C2.10532 15.4804 2 15.7348 2 15.9999C2 16.2651 2.10532 16.5194 2.29279 16.7069L12.2928 26.7069C12.4814 26.8891 12.734 26.9899 12.9962 26.9876C13.2584 26.9853 13.5092 26.8801 13.6946 26.6947C13.88 26.5093 13.9852 26.2585 13.9875 25.9963C13.9897 25.7341 13.8889 25.4815 13.7068 25.2929L5.41379 16.9999H28.9998C29.265 16.9999 29.5194 16.8946 29.7069 16.707C29.8944 16.5195 29.9998 16.2651 29.9998 15.9999C29.9998 15.7347 29.8944 15.4803 29.7069 15.2928C29.5194 15.1053 29.265 14.9999 28.9998 14.9999Z"/></svg>