<svg width="32" height="32" viewBox="0 0 32 32" fill="none" xmlns="http://www.w3.org/2000/svg">
<path d="M14.0386 18.7041C14.9024 17.9781 15.5219 17.0041 15.8133 15.914C16.1046 14.824 16.0537 13.6707 15.6673 12.6106C15.281 11.5504 14.578 10.6348 13.6536 9.98782C12.7292 9.34083 11.6281 8.99381 10.4998 8.99381C9.3715 8.99381 8.27048 9.34083 7.34608 9.98782C6.42168 10.6348 5.71863 11.5504 5.33229 12.6106C4.94594 13.6707 4.89499 14.824 5.18634 15.914C5.47769 17.0041 6.09725 17.9781 6.961 18.7041C5.53852 19.2374 4.30704 20.1821 3.42348 21.4179C2.53993 22.6537 2.04432 24.1245 1.99982 25.643C1.99982 26.4887 2.38654 28.06 4.97345 29.0893C6.74482 29.7265 8.61765 30.0349 10.4998 29.9995C14.7303 29.9995 18.9998 28.6528 18.9998 25.643C18.9553 24.1245 18.4597 22.6537 17.5762 21.4179C16.6926 20.1821 15.4611 19.2374 14.0386 18.7041ZM10.4998 11.0004C11.1921 11.0004 11.8687 11.2057 12.4443 11.5902C13.0199 11.9748 13.4685 12.5214 13.7334 13.161C13.9983 13.8005 14.0676 14.5043 13.9326 15.1832C13.7975 15.8621 13.4642 16.4858 12.9747 16.9753C12.4852 17.4647 11.8616 17.7981 11.1826 17.9331C10.5037 18.0682 9.79997 17.9989 9.16042 17.734C8.52088 17.4691 7.97426 17.0204 7.58967 16.4449C7.20509 15.8693 6.99982 15.1926 6.99982 14.5004C7.00094 13.5725 7.37005 12.6829 8.02619 12.0268C8.68232 11.3706 9.5719 11.0015 10.4998 11.0004ZM10.4998 27.9994C6.91582 27.9994 3.99982 26.9427 3.99982 25.6429C3.99982 22.5326 6.91582 20.0013 10.4998 20.0013C14.0838 20.0013 16.9998 22.5326 16.9998 25.6429C16.9998 26.9428 14.0838 27.9994 10.4998 27.9994Z" fill="black"/>
<path d="M28.9998 9.00038H27.9095C27.7596 8.10972 27.4092 7.26476 26.8849 6.52931L27.7068 5.70741C27.7997 5.61456 27.8733 5.50434 27.9236 5.38302C27.9738 5.26171 27.9997 5.13169 27.9997 5.00038C27.9997 4.86907 27.9738 4.73905 27.9236 4.61774C27.8733 4.49643 27.7997 4.3862 27.7068 4.29335C27.614 4.2005 27.5038 4.12685 27.3825 4.0766C27.2611 4.02635 27.1311 4.00049 26.9998 4.00049C26.8685 4.00049 26.7385 4.02635 26.6172 4.0766C26.4959 4.12685 26.3856 4.2005 26.2928 4.29335L25.4709 5.11525C24.7355 4.59092 23.8905 4.24059 22.9998 4.09072V3.00038C22.9998 2.73516 22.8945 2.48081 22.7069 2.29327C22.5194 2.10574 22.265 2.00038 21.9998 2.00038C21.7346 2.00038 21.4802 2.10574 21.2927 2.29327C21.1052 2.48081 20.9998 2.73516 20.9998 3.00038V4.08858C20.1125 4.24524 19.2721 4.60034 18.5413 5.12734L17.7068 4.29334C17.614 4.20049 17.5038 4.12684 17.3825 4.07659C17.2611 4.02634 17.1311 4.00048 16.9998 4.00048C16.8685 4.00048 16.7385 4.02634 16.6172 4.07659C16.4959 4.12684 16.3856 4.20049 16.2928 4.29334C16.1999 4.38619 16.1263 4.49642 16.076 4.61773C16.0258 4.73904 15.9999 4.86906 15.9999 5.00037C15.9999 5.13168 16.0258 5.2617 16.076 5.38301C16.1263 5.50433 16.1999 5.61455 16.2928 5.7074L17.1258 6.5398C16.6348 7.2142 16.292 7.98486 16.1199 8.80115C16.0671 9.06119 16.1197 9.33156 16.2662 9.5528C16.4127 9.77403 16.6411 9.928 16.9012 9.98084C17.1612 10.0337 17.4316 9.98105 17.6528 9.83454C17.8741 9.68802 18.028 9.45963 18.0809 9.19959C18.2324 8.45808 18.5912 7.77478 19.1155 7.22903C19.6399 6.68328 20.3083 6.2975 21.0432 6.11648C21.778 5.93545 22.5492 5.96663 23.267 6.20637C23.9849 6.44612 24.62 6.8846 25.0986 7.47089C25.5772 8.05718 25.8796 8.76722 25.9708 9.51853C26.0619 10.2699 25.9381 11.0316 25.6136 11.7154C25.2891 12.3991 24.7773 12.9767 24.1376 13.3812C23.4979 13.7857 22.7566 14.0004 21.9998 14.0004C21.1341 14.003 20.2914 13.7221 19.6004 13.2006C19.3882 13.0419 19.1218 12.9739 18.8595 13.0114C18.5973 13.049 18.3606 13.1891 18.2015 13.4009C18.0424 13.6128 17.9739 13.8791 18.011 14.1414C18.048 14.4038 18.1877 14.6407 18.3992 14.8002C19.1637 15.3758 20.0558 15.7584 20.9998 15.9154V17.0004C20.9998 17.2656 21.1052 17.5199 21.2927 17.7075C21.4802 17.895 21.7346 18.0004 21.9998 18.0004C22.265 18.0004 22.5194 17.895 22.7069 17.7075C22.8944 17.5199 22.9998 17.2656 22.9998 17.0004V15.9101C23.8906 15.7601 24.7357 15.4097 25.4712 14.8853L26.2928 15.7074C26.4803 15.8949 26.7346 16.0003 26.9998 16.0003C27.265 16.0003 27.5193 15.8949 27.7068 15.7074C27.8944 15.5199 27.9997 15.2656 27.9997 15.0004C27.9997 14.7352 27.8944 14.4809 27.7068 14.2934L26.8852 13.4712C27.4093 12.7358 27.7596 11.8909 27.9095 11.0004H28.9998C29.265 11.0004 29.5194 10.895 29.7069 10.7075C29.8944 10.52 29.9998 10.2656 29.9998 10.0004C29.9998 9.73516 29.8944 9.48081 29.7069 9.29327C29.5194 9.10574 29.265 9.00038 28.9998 9.00038Z" fill="black"/>
</svg>
