<svg width="32" height="32" viewBox="0 0 32 32" fill="none" xmlns="http://www.w3.org/2000/svg">
<path d="M27 3.5L4.99999 3.501C4.86738 3.501 4.74021 3.55368 4.64644 3.64745C4.55267 3.74121 4.49999 3.86839 4.49999 4.001C4.49999 4.13361 4.55267 4.26079 4.64644 4.35455C4.74021 4.44832 4.86738 4.501 4.99999 4.501L27 4.5C27.1326 4.5 27.2598 4.44732 27.3535 4.35355C27.4473 4.25978 27.5 4.13261 27.5 4C27.5 3.86739 27.4473 3.74021 27.3535 3.64645C27.2598 3.55268 27.1326 3.5 27 3.5Z" fill="#0F0F0F"/>
<path d="M28.3533 23.6467L16.3533 11.6467C16.2595 11.553 16.1324 11.5003 15.9998 11.5003C15.8672 11.5003 15.7401 11.553 15.6463 11.6467L3.6463 23.6467C3.59854 23.6928 3.56045 23.748 3.53425 23.809C3.50804 23.87 3.49425 23.9356 3.49367 24.002C3.49309 24.0684 3.50575 24.1342 3.53089 24.1957C3.55603 24.2571 3.59315 24.3129 3.6401 24.3599C3.68705 24.4068 3.74287 24.444 3.80432 24.4691C3.86577 24.4942 3.93161 24.5069 3.998 24.5063C4.06439 24.5057 4.13 24.492 4.191 24.4657C4.252 24.4395 4.30717 24.4015 4.3533 24.3537L15.9998 12.7073L27.6463 24.3537C27.7406 24.4448 27.8669 24.4952 27.998 24.494C28.1291 24.4929 28.2545 24.4403 28.3472 24.3476C28.4399 24.2549 28.4925 24.1295 28.4936 23.9984C28.4948 23.8673 28.4444 23.741 28.3533 23.6467Z" fill="#0F0F0F"/>
</svg>
