<svg width="32" height="32" viewBox="0 0 32 32" fill="none" xmlns="http://www.w3.org/2000/svg"><path d="M24.998 6.25H12.565A4.761 4.761 0 0 0 9.11 7.74l-6.385 6.62a1.751 1.751 0 0 0-.055 2.336l6.393 7.37a4.743 4.743 0 0 0 3.63 1.684h12.305a4.756 4.756 0 0 0 4.75-4.75V11a4.755 4.755 0 0 0-4.75-4.75zM28.248 21a3.254 3.254 0 0 1-3.25 3.25H12.692a3.25 3.25 0 0 1-2.489-1.16L3.81 15.72a.249.249 0 0 1 .002-.325l6.386-6.62a3.26 3.26 0 0 1 2.368-1.025h12.433a3.254 3.254 0 0 1 3.25 3.25v10z" fill="#0F0F0F"/><path d="M24.53 11.47a.749.749 0 0 0-1.06 0L20 14.94l-3.47-3.47a.75.75 0 0 0-1.06 1.06L18.94 16l-3.47 3.47a.749.749 0 1 0 1.06 1.06L20 17.062l3.47 3.47a.75.75 0 0 0 1.06-1.06L21.06 16l3.47-3.47a.749.749 0 0 0 0-1.06z" fill="#0F0F0F"/></svg>