<svg width="32" height="32" viewBox="0 0 32 32" fill="none" xmlns="http://www.w3.org/2000/svg">
<path d="M3.7072 16L13.3537 6.353C13.4015 6.30688 13.4395 6.2517 13.4657 6.1907C13.492 6.1297 13.5057 6.06409 13.5063 5.9977C13.5069 5.93131 13.4942 5.86547 13.4691 5.80402C13.444 5.74257 13.4068 5.68675 13.3599 5.6398C13.3129 5.59286 13.2571 5.55573 13.1957 5.53059C13.1342 5.50545 13.0684 5.4928 13.002 5.49337C12.9356 5.49395 12.87 5.50774 12.809 5.53395C12.748 5.56015 12.6928 5.59824 12.6467 5.646L2.6467 15.646C2.55296 15.7398 2.50031 15.8669 2.50031 15.9995C2.50031 16.1321 2.55296 16.2592 2.6467 16.353L12.6467 26.353C12.741 26.4441 12.8673 26.4945 12.9984 26.4933C13.1295 26.4922 13.2549 26.4396 13.3476 26.3469C13.4403 26.2542 13.4929 26.1288 13.494 25.9977C13.4952 25.8666 13.4448 25.7403 13.3537 25.646L3.7072 16Z" fill="black"/>
<path d="M3.49957 16H29" stroke="black" stroke-linecap="round" stroke-linejoin="round"/>
</svg>
