<svg width="32" height="32" viewBox="0 0 32 32" fill="none" xmlns="http://www.w3.org/2000/svg"><path d="M23 4.25H9A4.755 4.755 0 0 0 4.25 9v14A4.756 4.756 0 0 0 9 27.75h14A4.756 4.756 0 0 0 27.75 23V9A4.755 4.755 0 0 0 23 4.25zM26.25 23A3.254 3.254 0 0 1 23 26.25H9A3.254 3.254 0 0 1 5.75 23V9A3.254 3.254 0 0 1 9 5.75h14A3.254 3.254 0 0 1 26.25 9v14z" fill="#0F0F0F"/><path d="M16 9.25a6.73 6.73 0 0 0-5.25 2.512V10a.75.75 0 1 0-1.5 0v4a.75.75 0 0 0 .75.75h4a.75.75 0 1 0 0-1.5h-2.472a5.249 5.249 0 1 1-.48 4.5.75.75 0 1 0-1.413.5 6.75 6.75 0 1 0 6.365-9z" fill="#0F0F0F"/></svg>