<svg width="32" height="32" viewBox="0 0 32 32" fill="none" xmlns="http://www.w3.org/2000/svg">
<path d="M22.9998 4.50038H8.99982C7.80674 4.50168 6.66291 4.97621 5.81928 5.81984C4.97565 6.66347 4.50112 7.80731 4.49982 9.00038V23.0004C4.50112 24.1935 4.97564 25.3373 5.81927 26.1809C6.66291 27.0246 7.80674 27.4991 8.99982 27.5004H22.9998C24.1929 27.4991 25.3367 27.0246 26.1804 26.1809C27.024 25.3373 27.4985 24.1935 27.4998 23.0004V9.00038C27.4985 7.80731 27.024 6.66347 26.1804 5.81984C25.3367 4.97621 24.1929 4.50168 22.9998 4.50038ZM26.4998 23.0004C26.4987 23.9283 26.1296 24.8179 25.4735 25.474C24.8173 26.1301 23.9277 26.4993 22.9998 26.5004H8.99982C8.0719 26.4993 7.18232 26.1301 6.52618 25.474C5.87005 24.8179 5.50094 23.9283 5.49982 23.0004V9.00038C5.50094 8.07247 5.87005 7.18288 6.52619 6.52675C7.18232 5.87062 8.0719 5.5015 8.99982 5.50038H22.9998C23.9277 5.5015 24.8173 5.87062 25.4734 6.52675C26.1296 7.18288 26.4987 8.07247 26.4998 9.00038V23.0004Z" fill="black"/>
<path d="M15.9998 9.50038C14.9001 9.49937 13.8182 9.77825 12.856 10.3108C11.8938 10.8433 11.0829 11.612 10.4998 12.5444V10.0004C10.4998 9.86777 10.4471 9.74059 10.3534 9.64683C10.2596 9.55306 10.1324 9.50038 9.99982 9.50038C9.86721 9.50038 9.74003 9.55306 9.64626 9.64683C9.5525 9.74059 9.49982 9.86777 9.49982 10.0004V14.0004C9.49978 14.0661 9.51269 14.1311 9.5378 14.1918C9.56292 14.2524 9.59974 14.3076 9.64618 14.354C9.69262 14.4005 9.74775 14.4373 9.80843 14.4624C9.86911 14.4875 9.93414 14.5004 9.99982 14.5004H13.9998C14.1324 14.5004 14.2596 14.4477 14.3534 14.3539C14.4471 14.2602 14.4998 14.133 14.4998 14.0004C14.4998 13.8678 14.4471 13.7406 14.3534 13.6468C14.2596 13.5531 14.1324 13.5004 13.9998 13.5004H11.1162C11.6955 12.3797 12.6436 11.4931 13.8005 10.9901C14.9574 10.4872 16.2523 10.3985 17.467 10.7392C18.6816 11.0799 19.7416 11.829 20.4682 12.8603C21.1948 13.8916 21.5435 15.1418 21.4555 16.4003C21.3676 17.6587 20.8483 18.8484 19.9853 19.7685C19.1223 20.6886 17.9683 21.283 16.7181 21.4514C15.4679 21.6197 14.1978 21.3518 13.1222 20.6927C12.0465 20.0336 11.231 19.0237 10.8133 17.8334C10.7914 17.7714 10.7574 17.7144 10.7135 17.6656C10.6695 17.6168 10.6164 17.5771 10.5571 17.5488C10.4978 17.5205 10.4335 17.5041 10.3678 17.5007C10.3022 17.4973 10.2366 17.5068 10.1746 17.5287C10.1127 17.5506 10.0557 17.5845 10.0068 17.6285C9.95799 17.6725 9.91829 17.7256 9.89 17.7849C9.86171 17.8442 9.84538 17.9085 9.84193 17.9742C9.83849 18.0398 9.84801 18.1054 9.86994 18.1674C10.2671 19.291 10.9655 20.2839 11.8888 21.0375C12.8121 21.791 13.9248 22.2762 15.1053 22.4401C16.2858 22.6039 17.4886 22.4401 18.5822 21.9666C19.6759 21.493 20.6183 20.7279 21.3065 19.7549C21.9947 18.7818 22.4021 17.6384 22.4843 16.4494C22.5665 15.2605 22.3203 14.0718 21.7725 13.0133C21.2248 11.9549 20.3966 11.0674 19.3785 10.4478C18.3604 9.82827 17.1916 9.50051 15.9998 9.50038Z" fill="black"/>
</svg>
