<svg width="32" height="32" viewBox="0 0 32 32" fill="none" xmlns="http://www.w3.org/2000/svg">
<path d="M27.0004 3.25L5.00043 3.251C4.80151 3.251 4.61075 3.33002 4.4701 3.47067C4.32945 3.61132 4.25043 3.80209 4.25043 4.001C4.25043 4.19991 4.32945 4.39068 4.4701 4.53133C4.61075 4.67198 4.80151 4.751 5.00043 4.751L27.0004 4.75C27.1993 4.75 27.3901 4.67098 27.5308 4.53033C27.6714 4.38968 27.7504 4.19891 27.7504 4C27.7504 3.80109 27.6714 3.61032 27.5308 3.46967C27.3901 3.32902 27.1993 3.25 27.0004 3.25Z" fill="#0F0F0F"/>
<path d="M28.5302 23.47L16.5302 11.47C16.3895 11.3294 16.1988 11.2504 15.9999 11.2504C15.8011 11.2504 15.6103 11.3294 15.4697 11.47L3.46969 23.47C3.39806 23.5392 3.34092 23.6219 3.30161 23.7134C3.26231 23.805 3.24162 23.9034 3.24075 24.003C3.23989 24.1025 3.25886 24.2013 3.29657 24.2935C3.33428 24.3856 3.38997 24.4694 3.46039 24.5398C3.53081 24.6102 3.61455 24.6659 3.70672 24.7036C3.7989 24.7413 3.89766 24.7603 3.99724 24.7594C4.09682 24.7586 4.19524 24.7379 4.28674 24.6986C4.37825 24.6593 4.461 24.6021 4.53019 24.5305L16.0002 13.0608L27.4702 24.5308C27.5393 24.603 27.6221 24.6606 27.7137 24.7003C27.8054 24.74 27.904 24.761 28.0039 24.7621C28.1038 24.7632 28.2029 24.7443 28.2954 24.7065C28.3879 24.6688 28.4719 24.6129 28.5425 24.5423C28.6131 24.4716 28.6689 24.3876 28.7065 24.2951C28.7442 24.2025 28.763 24.1034 28.7619 24.0036C28.7607 23.9037 28.7397 23.805 28.6999 23.7134C28.6601 23.6218 28.6024 23.539 28.5302 23.47Z" fill="#0F0F0F"/>
</svg>
