<svg width="32" height="32" viewBox="0 0 32 32" fill="none" xmlns="http://www.w3.org/2000/svg">
<path d="M29 15.25H4.81101L13.531 6.53C13.6717 6.3893 13.7507 6.19849 13.7507 5.99953C13.7507 5.80057 13.6716 5.60977 13.5309 5.4691C13.3902 5.32843 13.1994 5.24941 13.0004 5.24943C12.8015 5.24945 12.6107 5.3285 12.47 5.4692L2.47001 15.4692C2.32937 15.6099 2.25037 15.8006 2.25037 15.9995C2.25037 16.1984 2.32937 16.3892 2.47001 16.5298L12.47 26.5298C12.6112 26.668 12.8011 26.7449 12.9987 26.7438C13.1962 26.7428 13.3853 26.6639 13.525 26.5242C13.6647 26.3845 13.7436 26.1954 13.7446 25.9978C13.7457 25.8003 13.6688 25.6104 13.5306 25.4692L4.81061 16.7492H29C29.1989 16.7492 29.3897 16.6702 29.5303 16.5295C29.671 16.3889 29.75 16.1981 29.75 15.9992C29.75 15.8003 29.671 15.6095 29.5303 15.4689C29.3897 15.3282 29.1989 15.2492 29 15.2492V15.25Z" fill="black"/>
</svg>
