<svg width="32" height="32" fill="none" xmlns="http://www.w3.org/2000/svg"><path d="M4.5 4.5a.5.5 0 00-1 0v23a.5.5 0 001 0v-23zM28.5 4.5a.5.5 0 00-1 0v23a.5.5 0 001 0v-23zM16 14a.5.5 0 01.5.5v9a.5.5 0 01-1 0v-9a.5.5 0 01.5-.5zM20.5 6.5a.5.5 0 00-1 0v17a.5.5 0 001 0v-17zM24 10a.5.5 0 01.5.5v13a.5.5 0 01-1 0v-13a.5.5 0 01.5-.5zM8.5 14.5a.5.5 0 00-1 0v9a.5.5 0 001 0v-9zM12 7a.5.5 0 01.5.5v15a.5.5 0 01-1 0v-15A.5.5 0 0112 7zM8 27a.5.5 0 100-1 .5.5 0 000 1zM12.5 26.5a.5.5 0 11-1.0001-.0001A.5.5 0 0112.5 26.5zM16 27a.5.5 0 10-.0001-1.0001A.5.5 0 0016 27zM20.5 26.5a.5.5 0 11-1.0001-.0001A.5.5 0 0120.5 26.5zM24 27a.5.5 0 10-.0001-1.0001A.5.5 0 0024 27z" fill="#0F0F0F"/></svg>