<svg xmlns="http://www.w3.org/2000/svg" width="32" height="32" viewBox="0 0 32 32"><path d="M11 6.25H25C26.2594 6.25132 27.4668 6.75219 28.3573 7.6427C29.2478 8.53322 29.7487 9.74063 29.75 11V21C29.7487 22.2594 29.2478 23.4668 28.3573 24.3573C27.4668 25.2478 26.2594 25.7487 25 25.75H11C9.74063 25.7487 8.53322 25.2478 7.6427 24.3573C6.75219 23.4668 6.25132 22.2594 6.25 21V19.75H5C4.2709 19.7492 3.57189 19.4592 3.05633 18.9437C2.54078 18.4281 2.25079 17.7291 2.25 17V15C2.25079 14.2709 2.54078 13.5719 3.05633 13.0563C3.57189 12.5408 4.2709 12.2508 5 12.25H6.25V11C6.25132 9.74063 6.75219 8.53322 7.6427 7.6427C8.53322 6.75219 9.74063 6.25132 11 6.25ZM5 18.25H6.25V13.75H5C4.66856 13.7503 4.35077 13.882 4.11641 14.1164C3.88205 14.3508 3.75026 14.6686 3.75 15V17C3.75026 17.3314 3.88205 17.6492 4.11641 17.8836C4.35077 18.118 4.66856 18.2497 5 18.25ZM27.297 23.297C27.907 22.687 28.249 21.862 28.25 21V11C28.2489 10.1384 27.9062 9.31234 27.2969 8.70307C26.6877 8.09381 25.8616 7.75106 25 7.75H11C10.1384 7.75106 9.31234 8.09381 8.70307 8.70307C8.09381 9.31234 7.75106 10.1384 7.75 11V21C7.75106 21.8616 8.09381 22.6877 8.70307 23.2969C9.31234 23.9062 10.1384 24.2489 11 24.25H25C25.8617 24.2491 26.6878 23.9063 27.297 23.297Z"/></svg>