<svg width="32" height="32" viewBox="0 0 32 32" fill="none" xmlns="http://www.w3.org/2000/svg"><path d="M25 6.25H11A4.755 4.755 0 0 0 6.25 11v1.25H5A2.753 2.753 0 0 0 2.25 15v2A2.753 2.753 0 0 0 5 19.75h1.25V21A4.755 4.755 0 0 0 11 25.75h14A4.755 4.755 0 0 0 29.75 21V11A4.756 4.756 0 0 0 25 6.25zm-18.75 12H5A1.251 1.251 0 0 1 3.75 17v-2A1.251 1.251 0 0 1 5 13.75h1.25v4.5zm22 2.75A3.254 3.254 0 0 1 25 24.25H11A3.254 3.254 0 0 1 7.75 21V11A3.254 3.254 0 0 1 11 7.75h14A3.254 3.254 0 0 1 28.25 11v10z" fill="#0F0F0F"/><path d="M25.278 13.304a.751.751 0 0 0-.975.418c-.854 2.136-1.935 3.383-3.043 3.512-.869.096-1.812-.498-2.646-1.688-1.146-1.635-2.58-2.44-4.023-2.275-1.2.14-2.918 1.025-4.288 4.45a.75.75 0 1 0 1.393.557c.855-2.137 1.944-3.386 3.068-3.516.854-.109 1.805.481 2.621 1.645 1.166 1.663 2.609 2.477 4.048 2.318 1.189-.14 2.893-1.022 4.263-4.447a.748.748 0 0 0-.418-.974z" fill="#0F0F0F"/></svg>