<svg width="32" height="32" viewBox="0 0 32 32" fill="none" xmlns="http://www.w3.org/2000/svg">
<path d="M17.9999 10.0128C17.8685 10.0127 17.7384 10.0385 17.6171 10.0888C17.4957 10.139 17.3855 10.2127 17.2926 10.3055C17.1997 10.3984 17.1261 10.5087 17.0758 10.63C17.0256 10.7514 16.9998 10.8815 16.9999 11.0128V21.0128C16.9999 21.278 17.1052 21.5324 17.2928 21.7199C17.4803 21.9074 17.7346 22.0128 17.9999 22.0128C18.2651 22.0128 18.5194 21.9074 18.707 21.7199C18.8945 21.5324 18.9999 21.278 18.9999 21.0128V11.0128C18.9999 10.8815 18.9741 10.7514 18.9239 10.63C18.8737 10.5087 18.8 10.3984 18.7071 10.3055C18.6143 10.2127 18.504 10.139 18.3826 10.0888C18.2613 10.0385 18.1312 10.0127 17.9999 10.0128Z" fill="black"/>
<path d="M22.6171 10.0888C22.7384 10.0385 22.8685 10.0127 22.9999 10.0128C23.1312 10.0127 23.2613 10.0385 23.3826 10.0888C23.504 10.139 23.6143 10.2127 23.7071 10.3055C23.8 10.3984 23.8737 10.5087 23.9239 10.63C23.9741 10.7514 23.9999 10.8815 23.9999 11.0128V21.0128C23.9999 21.278 23.8945 21.5324 23.707 21.7199C23.5194 21.9074 23.2651 22.0128 22.9999 22.0128C22.7346 22.0128 22.4803 21.9074 22.2928 21.7199C22.1052 21.5324 21.9999 21.278 21.9999 21.0128V11.0128C21.9998 10.8815 22.0256 10.7514 22.0758 10.63C22.1261 10.5087 22.1997 10.3984 22.2926 10.3055C22.3855 10.2127 22.4957 10.139 22.6171 10.0888Z" fill="black"/>
<path fill-rule="evenodd" clip-rule="evenodd" d="M10.9999 6.00011H24.9999C26.3255 6.00167 27.5963 6.52895 28.5337 7.46629C29.471 8.40364 29.9983 9.6745 29.9999 11.0001V21.0001C29.9983 22.3257 29.471 23.5966 28.5337 24.5339C27.5963 25.4713 26.3255 25.9985 24.9999 26.0001H10.9999C9.67425 25.9986 8.40339 25.4713 7.46604 24.5339C6.5287 23.5966 6.00141 22.3257 5.99986 21.0001V20.0001H4.99986C4.20448 19.9992 3.44192 19.6829 2.8795 19.1205C2.31708 18.558 2.00073 17.7955 1.99986 17.0001V15.0001C2.00073 14.2047 2.31708 13.4422 2.8795 12.8797C3.44192 12.3173 4.20448 12.001 4.99986 12.0001H5.99986V11.0001C6.00142 9.6745 6.5287 8.40364 7.46605 7.46629C8.40339 6.52895 9.67426 6.00167 10.9999 6.00011ZM4.99986 18.0001H5.99986V14.0001H4.99986C4.7347 14.0003 4.48045 14.1057 4.29295 14.2932C4.10545 14.4807 4.00004 14.7349 3.99986 15.0001V17.0001C4.00004 17.2653 4.10545 17.5195 4.29295 17.707C4.48045 17.8945 4.7347 17.9999 4.99986 18.0001ZM27.1202 23.1205C27.6826 22.558 27.999 21.7955 27.9999 21.0001V11.0001C27.999 10.2047 27.6826 9.44217 27.1202 8.87975C26.5578 8.31733 25.7952 8.00098 24.9999 8.00011H10.9999C10.2045 8.00097 9.44192 8.31732 8.8795 8.87975C8.31708 9.44217 8.00073 10.2047 7.99986 11.0001V21.0001C8.00073 21.7955 8.31708 22.558 8.8795 23.1205C9.44192 23.6829 10.2045 23.9992 10.9999 24.0001H24.9999C25.7952 23.9992 26.5578 23.6829 27.1202 23.1205Z" fill="black"/>
</svg>
