<svg width="32" height="32" viewBox="0 0 32 32" fill="none" xmlns="http://www.w3.org/2000/svg">
<path d="M24.9999 6.25011H10.9999C9.74052 6.25154 8.53317 6.75244 7.64268 7.64293C6.7522 8.53342 6.25129 9.74077 6.24986 11.0001V12.2501H4.99986C4.27074 12.2508 3.5717 12.5408 3.05613 13.0564C2.54057 13.5719 2.2506 14.271 2.24986 15.0001V17.0001C2.2506 17.7292 2.54057 18.4283 3.05613 18.9438C3.5717 19.4594 4.27074 19.7494 4.99986 19.7501H6.24986V21.0001C6.25129 22.2595 6.7522 23.4668 7.64268 24.3573C8.53317 25.2478 9.74052 25.7487 10.9999 25.7501H24.9999C26.2592 25.7487 27.4666 25.2478 28.357 24.3573C29.2475 23.4668 29.7484 22.2595 29.7499 21.0001V11.0001C29.7484 9.74077 29.2475 8.53342 28.357 7.64293C27.4666 6.75244 26.2592 6.25154 24.9999 6.25011ZM6.24986 18.2501H4.99986C4.66844 18.2498 4.35067 18.118 4.11632 17.8837C3.88196 17.6493 3.75017 17.3315 3.74986 17.0001V15.0001C3.75017 14.6687 3.88196 14.3509 4.11632 14.1166C4.35067 13.8822 4.66844 13.7504 4.99986 13.7501H6.24986V18.2501ZM28.2499 21.0001C28.2489 21.8618 27.9061 22.6878 27.2969 23.2971C26.6876 23.9064 25.8615 24.2491 24.9999 24.2501H10.9999C10.1382 24.2491 9.31214 23.9064 8.70286 23.2971C8.09359 22.6878 7.75086 21.8618 7.74986 21.0001V11.0001C7.75086 10.1385 8.09359 9.31239 8.70286 8.70311C9.31214 8.09383 10.1382 7.75111 10.9999 7.75011H24.9999C25.8615 7.75111 26.6876 8.09384 27.2969 8.70312C27.9061 9.31239 28.2489 10.1385 28.2499 11.0001V21.0001Z" fill="black"/>
<path d="M12.9999 10.2501C12.801 10.2502 12.6102 10.3292 12.4696 10.4698C12.3289 10.6105 12.2499 10.8012 12.2499 11.0001V21.0001C12.2499 21.199 12.3289 21.3898 12.4695 21.5304C12.6102 21.6711 12.801 21.7501 12.9999 21.7501C13.1988 21.7501 13.3895 21.6711 13.5302 21.5304C13.6708 21.3898 13.7499 21.199 13.7499 21.0001V11.0001C13.7498 10.8012 13.6708 10.6105 13.5301 10.4698C13.3895 10.3292 13.1988 10.2502 12.9999 10.2501Z" fill="black"/>
<path d="M17.9999 10.2628C17.801 10.2629 17.6102 10.3419 17.4696 10.4825C17.3289 10.6232 17.2499 10.8139 17.2499 11.0128V21.0128C17.2499 21.2117 17.3289 21.4025 17.4695 21.5431C17.6102 21.6838 17.801 21.7628 17.9999 21.7628C18.1988 21.7628 18.3895 21.6838 18.5302 21.5431C18.6708 21.4025 18.7499 21.2117 18.7499 21.0128V11.0128C18.7498 10.8139 18.6708 10.6232 18.5301 10.4825C18.3895 10.3419 18.1988 10.2629 17.9999 10.2628Z" fill="black"/>
<path d="M22.9999 10.2628C22.801 10.2629 22.6102 10.3419 22.4696 10.4825C22.3289 10.6232 22.2499 10.8139 22.2499 11.0128V21.0128C22.2499 21.2117 22.3289 21.4025 22.4695 21.5431C22.6102 21.6838 22.801 21.7628 22.9999 21.7628C23.1988 21.7628 23.3895 21.6838 23.5302 21.5431C23.6708 21.4025 23.7499 21.2117 23.7499 21.0128V11.0128C23.7498 10.8139 23.6708 10.6232 23.5301 10.4825C23.3895 10.3419 23.1988 10.2629 22.9999 10.2628Z" fill="black"/>
</svg>
