<svg xmlns="http://www.w3.org/2000/svg" width="32" height="32" viewBox="0 0 32 32"><path d="M11 6H25C26.3256 6.00159 27.5964 6.52888 28.5338 7.46622C29.4711 8.40356 29.9984 9.67441 30 11V21C29.9984 22.3256 29.4711 23.5964 28.5338 24.5338C27.5964 25.4711 26.3256 25.9984 25 26H11C9.67432 25.9987 8.40332 25.4715 7.46593 24.5341C6.52853 23.5967 6.00132 22.3257 6 21V20H5C4.20459 19.9992 3.44199 19.6829 2.87956 19.1204C2.31712 18.558 2.00079 17.7954 2 17V15C2.00079 14.2046 2.31712 13.442 2.87956 12.8796C3.44199 12.3171 4.20459 12.0008 5 12H6V11C6.00159 9.67441 6.52888 8.40356 7.46622 7.46622C8.40356 6.52888 9.67441 6.00159 11 6ZM5 18H6V14H5C4.73478 14 4.48043 14.1054 4.29289 14.2929C4.10536 14.4804 4 14.7348 4 15V17C4 17.2652 4.10536 17.5196 4.29289 17.7071C4.48043 17.8946 4.73478 18 5 18ZM27.12 23.12C27.6825 22.5577 27.999 21.7953 28 21V11C27.9992 10.2046 27.6829 9.44199 27.1204 8.87956C26.558 8.31712 25.7954 8.00079 25 8H11C10.2046 8.00079 9.44199 8.31712 8.87956 8.87956C8.31712 9.44199 8.00079 10.2046 8 11V21C8.00079 21.7954 8.31712 22.558 8.87956 23.1204C9.44199 23.6829 10.2046 23.9992 11 24H25C25.796 24 26.558 23.683 27.12 23.12Z"/></svg>