<svg width="32" height="32" viewBox="0 0 32 32" fill="none" xmlns="http://www.w3.org/2000/svg"><path d="M25 6.5H11A4.505 4.505 0 0 0 6.5 11v1.5H5A2.502 2.502 0 0 0 2.5 15v2A2.502 2.502 0 0 0 5 19.5h1.5V21a4.505 4.505 0 0 0 4.5 4.5h14a4.505 4.505 0 0 0 4.5-4.5V11A4.505 4.505 0 0 0 25 6.5zm-18.5 12H5A1.502 1.502 0 0 1 3.5 17v-2A1.502 1.502 0 0 1 5 13.5h1.5v5zm22 2.5a3.505 3.505 0 0 1-3.5 3.5H11A3.504 3.504 0 0 1 7.5 21V11A3.504 3.504 0 0 1 11 7.5h14a3.504 3.504 0 0 1 3.5 3.5v10z" fill="#0F0F0F"/><path d="M23 10.514a.5.5 0 0 0-.5.5v10a.5.5 0 1 0 1 0v-10a.499.499 0 0 0-.5-.5z" fill="#0F0F0F"/></svg>