<svg xmlns="http://www.w3.org/2000/svg" width="32" height="32" viewBox="0 0 32 32"><path d="M11 6.5H25C26.1931 6.50132 27.3369 6.97585 28.1805 7.81948C29.0241 8.66311 29.4987 9.80693 29.5 11V21C29.4987 22.1931 29.0241 23.3369 28.1805 24.1805C27.3369 25.0241 26.1931 25.4987 25 25.5H11C9.80693 25.4987 8.66311 25.0241 7.81948 24.1805C6.97585 23.3369 6.50132 22.1931 6.5 21V19.5H5C4.33712 19.4995 3.70154 19.2359 3.23282 18.7672C2.76409 18.2985 2.50053 17.6629 2.5 17V15C2.50053 14.3371 2.76409 13.7015 3.23282 13.2328C3.70154 12.7641 4.33712 12.5005 5 12.5H6.5V11C6.50132 9.80693 6.97585 8.66311 7.81948 7.81948C8.66311 6.97585 9.80693 6.50132 11 6.5ZM5 18.5H6.5V13.5H5C4.60234 13.5005 4.22111 13.6587 3.93992 13.9399C3.65873 14.2211 3.50053 14.6023 3.5 15V17C3.50053 17.3977 3.65873 17.7789 3.93992 18.0601C4.22111 18.3413 4.60234 18.4995 5 18.5ZM27.474 23.474C28.13 22.8177 28.499 21.928 28.5 21V11C28.4989 10.0721 28.1299 9.18244 27.4737 8.5263C26.8176 7.87015 25.9279 7.50106 25 7.5H11C10.0721 7.50106 9.18244 7.87015 8.5263 8.5263C7.87015 9.18244 7.50106 10.0721 7.5 11V21C7.50132 21.9279 7.8705 22.8173 8.52659 23.4734C9.18268 24.1295 10.0721 24.4987 11 24.5H25C25.928 24.4991 26.8177 24.1301 27.474 23.474Z"/></svg>