<svg width="32" height="32" viewBox="0 0 32 32" fill="none" xmlns="http://www.w3.org/2000/svg">
<path d="M25.0004 6.24992H11.0004C9.7411 6.25135 8.53375 6.75225 7.64326 7.64274C6.75277 8.53323 6.25187 9.74058 6.25044 10.9999V12.2499H5.00044C4.27132 12.2507 3.57228 12.5406 3.05672 13.0562C2.54115 13.5718 2.25118 14.2708 2.25044 14.9999V16.9999C2.25118 17.729 2.54115 18.4281 3.05672 18.9436C3.57228 19.4592 4.27132 19.7492 5.00044 19.7499H6.25044V20.9999C6.25187 22.2593 6.75277 23.4666 7.64326 24.3571C8.53375 25.2476 9.7411 25.7485 11.0004 25.7499H25.0004C26.2598 25.7485 27.4671 25.2476 28.3576 24.3571C29.2481 23.4666 29.749 22.2593 29.7504 20.9999V10.9999C29.749 9.74058 29.2481 8.53323 28.3576 7.64274C27.4671 6.75225 26.2598 6.25135 25.0004 6.24992ZM6.25044 18.2499H5.00044C4.66901 18.2496 4.35125 18.1178 4.1169 17.8835C3.88254 17.6491 3.75075 17.3313 3.75044 16.9999V14.9999C3.75075 14.6685 3.88254 14.3507 4.1169 14.1164C4.35125 13.882 4.66901 13.7502 5.00044 13.7499H6.25044V18.2499ZM28.2504 20.9999C28.2494 21.8616 27.9067 22.6876 27.2974 23.2969C26.6882 23.9062 25.8621 24.2489 25.0004 24.2499H11.0004C10.1388 24.2489 9.31272 23.9062 8.70345 23.2969C8.09417 22.6876 7.75144 21.8616 7.75044 20.9999V10.9999C7.75144 10.1383 8.09416 9.3122 8.70344 8.70292C9.31272 8.09364 10.1388 7.75092 11.0004 7.74992H25.0004C25.8621 7.75092 26.6882 8.09364 27.2974 8.70292C27.9067 9.3122 28.2494 10.1383 28.2504 10.9999V20.9999Z" fill="black"/>
<path d="M23.0004 10.2636C22.8015 10.2636 22.6108 10.3427 22.4702 10.4833C22.3295 10.624 22.2505 10.8147 22.2504 11.0136V21.0136C22.2504 21.2125 22.3295 21.4033 22.4701 21.5439C22.6108 21.6846 22.8015 21.7636 23.0004 21.7636C23.1994 21.7636 23.3901 21.6846 23.5308 21.5439C23.6714 21.4033 23.7504 21.2125 23.7504 21.0136V11.0136C23.7504 10.8147 23.6714 10.624 23.5307 10.4833C23.3901 10.3427 23.1993 10.2636 23.0004 10.2636Z" fill="black"/>
</svg>
