<svg width="32" height="32" viewBox="0 0 32 32" fill="none" xmlns="http://www.w3.org/2000/svg">
<path d="M25.0004 5.99992H11.0004C9.67484 6.00148 8.40397 6.52877 7.46663 7.46611C6.52928 8.40346 6.002 9.67432 6.00044 10.9999V11.9999H5.00044C4.20506 12.0008 3.4425 12.3171 2.88008 12.8796C2.31766 13.442 2.00131 14.2045 2.00044 14.9999V16.9999C2.00131 17.7953 2.31766 18.5579 2.88008 19.1203C3.4425 19.6827 4.20506 19.9991 5.00044 19.9999H6.00044V20.9999C6.002 22.3255 6.52928 23.5964 7.46663 24.5337C8.40397 25.4711 9.67484 25.9984 11.0004 25.9999H25.0004C26.326 25.9984 27.5969 25.4711 28.5343 24.5337C29.4716 23.5964 29.9989 22.3255 30.0004 20.9999V10.9999C29.9989 9.67432 29.4716 8.40345 28.5343 7.46611C27.5969 6.52876 26.326 6.00148 25.0004 5.99992ZM6.00044 17.9999H5.00044C4.73528 17.9997 4.48103 17.8943 4.29353 17.7068C4.10603 17.5193 4.00062 17.2651 4.00044 16.9999V14.9999C4.00062 14.7348 4.10603 14.4805 4.29353 14.293C4.48103 14.1055 4.73528 14.0001 5.00044 13.9999H6.00044V17.9999ZM28.0004 20.9999C27.9996 21.7953 27.6832 22.5579 27.1208 23.1203C26.5584 23.6827 25.7958 23.9991 25.0004 23.9999H11.0004C10.2051 23.9991 9.4425 23.6827 8.88008 23.1203C8.31766 22.5579 8.00131 21.7953 8.00044 20.9999V10.9999C8.00131 10.2045 8.31766 9.44198 8.88008 8.87956C9.4425 8.31714 10.2051 8.00079 11.0004 7.99992H25.0004C25.7958 8.00079 26.5584 8.31714 27.1208 8.87956C27.6832 9.44198 27.9996 10.2045 28.0004 10.9999V20.9999Z" fill="black"/>
<path d="M23.0004 10.0136C22.8691 10.0135 22.739 10.0393 22.6177 10.0896C22.4963 10.1398 22.386 10.2134 22.2932 10.3063C22.2003 10.3992 22.1266 10.5095 22.0764 10.6308C22.0262 10.7522 22.0004 10.8823 22.0004 11.0136V21.0136C22.0004 21.2788 22.1058 21.5332 22.2933 21.7207C22.4809 21.9082 22.7352 22.0136 23.0004 22.0136C23.2657 22.0136 23.52 21.9082 23.7075 21.7207C23.8951 21.5332 24.0004 21.2788 24.0004 21.0136V11.0136C24.0005 10.8823 23.9747 10.7522 23.9245 10.6308C23.8742 10.5095 23.8006 10.3992 23.7077 10.3063C23.6148 10.2134 23.5046 10.1398 23.3832 10.0896C23.2619 10.0393 23.1318 10.0135 23.0004 10.0136Z" fill="black"/>
</svg>
