<svg width="32" height="32" viewBox="0 0 32 32" fill="none" xmlns="http://www.w3.org/2000/svg"><path d="M18 10.263a.75.75 0 0 0-.75.75v10a.75.75 0 1 0 1.5 0v-10a.75.75 0 0 0-.75-.75zM22.47 10.482a.75.75 0 0 1 1.28.53v10a.75.75 0 0 1-1.5 0v-10a.75.75 0 0 1 .22-.53z" fill="#0F0F0F"/><path fill-rule="evenodd" clip-rule="evenodd" d="M11 6.25h14A4.755 4.755 0 0 1 29.75 11v10A4.756 4.756 0 0 1 25 25.75H11A4.755 4.755 0 0 1 6.25 21v-1.25H5A2.753 2.753 0 0 1 2.25 17v-2A2.753 2.753 0 0 1 5 12.25h1.25V11A4.755 4.755 0 0 1 11 6.25zm-6 12h1.25v-4.5H5A1.251 1.251 0 0 0 3.75 15v2A1.251 1.251 0 0 0 5 18.25zm22.297 5.047c.61-.61.952-1.435.953-2.297V11A3.254 3.254 0 0 0 25 7.75H11A3.254 3.254 0 0 0 7.75 11v10A3.254 3.254 0 0 0 11 24.25h14a3.254 3.254 0 0 0 2.297-.953z" fill="#0F0F0F"/></svg>