<svg width="32" height="32" viewBox="0 0 32 32" fill="none" xmlns="http://www.w3.org/2000/svg">
<path d="M24.9999 6.50011H10.9999C9.80679 6.50141 8.66295 6.97594 7.81932 7.81957C6.97569 8.6632 6.50116 9.80704 6.49986 11.0001V12.5001H4.99986C4.33701 12.5007 3.70148 12.7643 3.23277 13.233C2.76407 13.7017 2.50048 14.3373 2.49986 15.0001V17.0001C2.50047 17.663 2.76406 18.2985 3.23277 18.7672C3.70148 19.2359 4.33701 19.4995 4.99986 19.5001H6.49986V21.0001C6.50116 22.1932 6.97569 23.337 7.81932 24.1807C8.66295 25.0243 9.80679 25.4988 10.9999 25.5001H24.9999C26.1929 25.4988 27.3368 25.0243 28.1804 24.1807C29.024 23.337 29.4986 22.1932 29.4999 21.0001V11.0001C29.4986 9.80704 29.024 8.6632 28.1804 7.81957C27.3368 6.97594 26.1929 6.50142 24.9999 6.50011ZM6.49986 18.5001H4.99986C4.60217 18.4997 4.22089 18.3415 3.93968 18.0603C3.65847 17.7791 3.5003 17.3978 3.49986 17.0001V15.0001C3.5003 14.6024 3.65847 14.2211 3.93968 13.9399C4.22089 13.6587 4.60217 13.5005 4.99986 13.5001H6.49986V18.5001ZM28.4999 21.0001C28.4987 21.928 28.1296 22.8176 27.4735 23.4737C26.8174 24.1299 25.9278 24.499 24.9999 24.5001H10.9999C10.0719 24.499 9.18236 24.1299 8.52623 23.4737C7.87009 22.8176 7.50098 21.928 7.49986 21.0001V11.0001C7.50098 10.0722 7.87009 9.18261 8.52623 8.52648C9.18236 7.87034 10.0719 7.50123 10.9999 7.50011H24.9999C25.9278 7.50123 26.8174 7.87035 27.4735 8.52648C28.1296 9.18261 28.4987 10.0722 28.4999 11.0001V21.0001Z" fill="black"/>
<path d="M12.9999 10.5001C12.9342 10.5001 12.8692 10.513 12.8085 10.5381C12.7478 10.5632 12.6927 10.6 12.6462 10.6465C12.5998 10.6929 12.563 10.748 12.5378 10.8087C12.5127 10.8694 12.4998 10.9344 12.4999 11.0001V21.0001C12.4999 21.1327 12.5525 21.2599 12.6463 21.3537C12.7401 21.4474 12.8673 21.5001 12.9999 21.5001C13.1325 21.5001 13.2596 21.4474 13.3534 21.3537C13.4472 21.2599 13.4999 21.1327 13.4999 21.0001V11.0001C13.4999 10.9344 13.487 10.8694 13.4619 10.8087C13.4368 10.748 13.3999 10.6929 13.3535 10.6465C13.3071 10.6 13.2519 10.5632 13.1912 10.5381C13.1306 10.513 13.0655 10.5001 12.9999 10.5001Z" fill="black"/>
<path d="M17.9999 10.5128C17.9342 10.5128 17.8692 10.5257 17.8085 10.5508C17.7478 10.5759 17.6927 10.6127 17.6462 10.6592C17.5998 10.7056 17.563 10.7607 17.5378 10.8214C17.5127 10.8821 17.4998 10.9471 17.4999 11.0128V21.0128C17.4999 21.1454 17.5525 21.2726 17.6463 21.3664C17.7401 21.4601 17.8673 21.5128 17.9999 21.5128C18.1325 21.5128 18.2596 21.4601 18.3534 21.3664C18.4472 21.2726 18.4999 21.1454 18.4999 21.0128V11.0128C18.4999 10.9471 18.487 10.8821 18.4619 10.8214C18.4368 10.7607 18.3999 10.7056 18.3535 10.6592C18.3071 10.6127 18.2519 10.5759 18.1912 10.5508C18.1306 10.5257 18.0655 10.5128 17.9999 10.5128Z" fill="black"/>
<path d="M22.9999 10.5128C22.9342 10.5128 22.8692 10.5257 22.8085 10.5508C22.7478 10.5759 22.6927 10.6127 22.6462 10.6592C22.5998 10.7056 22.563 10.7607 22.5378 10.8214C22.5127 10.8821 22.4998 10.9471 22.4999 11.0128V21.0128C22.4999 21.1454 22.5525 21.2726 22.6463 21.3664C22.7401 21.4601 22.8673 21.5128 22.9999 21.5128C23.1325 21.5128 23.2596 21.4601 23.3534 21.3664C23.4472 21.2726 23.4999 21.1454 23.4999 21.0128V11.0128C23.4999 10.9471 23.487 10.8821 23.4619 10.8214C23.4368 10.7607 23.3999 10.7056 23.3535 10.6592C23.3071 10.6127 23.2519 10.5759 23.1912 10.5508C23.1306 10.5257 23.0655 10.5128 22.9999 10.5128Z" fill="black"/>
</svg>
