<svg width="32" height="32" viewBox="0 0 32 32" fill="none" xmlns="http://www.w3.org/2000/svg">
<path d="M24.9997 6.24992H10.9997C9.74032 6.25135 8.53297 6.75225 7.64248 7.64274C6.75199 8.53323 6.25109 9.74058 6.24966 10.9999V12.2499H4.99966C4.27054 12.2507 3.5715 12.5406 3.05593 13.0562C2.54037 13.5718 2.2504 14.2708 2.24966 14.9999V16.9999C2.2504 17.729 2.54037 18.4281 3.05593 18.9436C3.5715 19.4592 4.27054 19.7492 4.99966 19.7499H6.24966V20.9999C6.25109 22.2593 6.75199 23.4666 7.64248 24.3571C8.53297 25.2476 9.74032 25.7485 10.9997 25.7499H24.9997C26.259 25.7485 27.4663 25.2476 28.3568 24.3571C29.2473 23.4666 29.7482 22.2593 29.7497 20.9999V10.9999C29.7482 9.74058 29.2473 8.53323 28.3568 7.64274C27.4663 6.75225 26.259 6.25135 24.9997 6.24992ZM6.24966 18.2499H4.99966C4.66823 18.2496 4.35047 18.1178 4.11611 17.8835C3.88176 17.6491 3.74996 17.3313 3.74966 16.9999V14.9999C3.74996 14.6685 3.88176 14.3507 4.11611 14.1164C4.35047 13.882 4.66823 13.7502 4.99966 13.7499H6.24966V18.2499ZM28.2497 20.9999C28.2487 21.8616 27.9059 22.6876 27.2967 23.2969C26.6874 23.9062 25.8613 24.2489 24.9997 24.2499H10.9997C10.138 24.2489 9.31194 23.9062 8.70266 23.2969C8.09338 22.6876 7.75065 21.8616 7.74966 20.9999V10.9999C7.75065 10.1383 8.09338 9.3122 8.70266 8.70292C9.31194 8.09364 10.138 7.75092 10.9997 7.74992H24.9997C25.8613 7.75092 26.6874 8.09364 27.2967 8.70292C27.9059 9.3122 28.2487 10.1383 28.2497 10.9999V20.9999Z" fill="black"/>
<path d="M25.278 13.3036C25.0933 13.2303 24.8871 13.2331 24.7044 13.3115C24.5218 13.3898 24.3776 13.5373 24.3034 13.7216C23.4489 15.8583 22.3678 17.1054 21.2604 17.2343C20.3912 17.33 19.4479 16.7363 18.6139 15.5458C17.4684 13.9111 16.0348 13.1054 14.5914 13.2714C13.3912 13.4101 11.6734 14.2958 10.3034 17.7216C10.2295 17.9063 10.2321 18.1127 10.3105 18.2955C10.3889 18.4783 10.5367 18.6224 10.7213 18.6962C10.906 18.7701 11.1124 18.7675 11.2952 18.6891C11.478 18.6107 11.6221 18.4629 11.6959 18.2783C12.5514 16.1406 13.6403 14.8915 14.7643 14.7617C15.6178 14.6533 16.569 15.2431 17.3854 16.4072C18.5514 18.0703 19.9938 18.8837 21.4332 18.7246C22.6217 18.5859 24.3258 17.7031 25.6959 14.2783C25.7326 14.1868 25.7509 14.0891 25.7497 13.9906C25.7486 13.8921 25.728 13.7948 25.6892 13.7042C25.6503 13.6137 25.594 13.5317 25.5235 13.463C25.4529 13.3942 25.3695 13.3401 25.278 13.3036Z" fill="black"/>
</svg>
