<svg width="32" height="32" viewBox="0 0 32 32" xmlns="http://www.w3.org/2000/svg">
<path fill-rule="evenodd" clip-rule="evenodd" d="M4.75 20.8399V7.23587C4.75 4.92408 6.62416 3.05 8.93605 3.05H23.2742C25.47 3.05 27.25 4.83004 27.25 7.02582V20.8399C27.25 23.1517 25.3758 25.0258 23.064 25.0258H20.7457C19.5378 25.0258 18.3671 25.4437 17.4323 26.2085L14.404 28.7722C13.8915 29.1914 13.1221 28.8273 13.1221 28.1652V26.0723C13.1221 25.4943 12.6536 25.0258 12.0756 25.0258H8.93605C6.62416 25.0258 4.75 23.1517 4.75 20.8399ZM12.7098 16.9996C12.3784 16.7511 11.9083 16.8182 11.6598 17.1496C11.4112 17.481 11.4784 17.9511 11.8098 18.1996L12.8848 19.0059C14.8848 20.5059 17.6348 20.5059 19.6348 19.0059L20.7098 18.1996C21.0411 17.9511 21.1083 17.481 20.8598 17.1496C20.6112 16.8182 20.1411 16.7511 19.8098 16.9996L18.7348 17.8059C17.2681 18.9059 15.2514 18.9059 13.7848 17.8059L12.7098 16.9996ZM21.8848 11.2246C21.8848 12.3982 21.0733 13.3496 20.0723 13.3496C19.0712 13.3496 18.2598 12.3982 18.2598 11.2246C18.2598 10.051 19.0712 9.09961 20.0723 9.09961C21.0733 9.09961 21.8848 10.051 21.8848 11.2246ZM11.3905 9.24253C11.0552 9.16047 10.7169 9.36575 10.6348 9.70103C10.5528 10.0363 10.758 10.3746 11.0933 10.4567C11.5094 10.5585 12.1532 10.7867 12.7005 11.1254C12.7662 11.1661 12.8286 11.2071 12.8875 11.2483C11.8159 11.2202 11.0161 11.5507 10.6244 11.8576C10.3526 12.0704 10.3049 12.4632 10.5177 12.735C10.7306 13.0067 11.1234 13.0545 11.3951 12.8417C11.6043 12.6779 12.5753 12.2301 14.0659 12.7165C14.2714 12.7836 14.4971 12.7396 14.6625 12.6003C14.8278 12.461 14.9094 12.2461 14.8782 12.0321C14.744 11.1123 14.0158 10.4694 13.3583 10.0625C12.6752 9.63977 11.903 9.36796 11.3905 9.24253Z"/>
</svg>
