<svg width="32" height="32" viewBox="0 0 32 32" fill="none" xmlns="http://www.w3.org/2000/svg">
<path d="M12.8598 16.7996C12.4179 16.4682 11.7911 16.5578 11.4598 16.9996C11.1284 17.4414 11.2179 18.0682 11.6598 18.3996L12.7348 19.2059C14.8237 20.7725 17.6959 20.7725 19.7848 19.2059L20.8598 18.3996C21.3016 18.0682 21.3911 17.4414 21.0598 16.9996C20.7284 16.5578 20.1016 16.4682 19.6598 16.7996L18.5848 17.6059C17.207 18.6392 15.3125 18.6392 13.9348 17.6059L12.8598 16.7996Z" fill="#0F0F0F"/>
<path d="M21.8848 11.2246C21.8848 12.3982 21.0733 13.3496 20.0723 13.3496C19.0712 13.3496 18.2598 12.3982 18.2598 11.2246C18.2598 10.051 19.0712 9.09961 20.0723 9.09961C21.0733 9.09961 21.8848 10.051 21.8848 11.2246Z" fill="#0F0F0F"/>
<path d="M11.4202 9.12111C11.0179 9.02264 10.6119 9.26897 10.5134 9.67131C10.4149 10.0736 10.6613 10.4796 11.0636 10.5781C11.4272 10.6671 11.9704 10.8556 12.4629 11.1307C11.5769 11.1852 10.9077 11.4769 10.5473 11.7592C10.2212 12.0146 10.1639 12.486 10.4193 12.8121C10.6747 13.1382 11.1461 13.1955 11.4722 12.9401C11.6458 12.8041 12.5727 12.3607 14.0271 12.8353C14.2738 12.9158 14.5445 12.8631 14.743 12.6959C14.9414 12.5287 15.0394 12.2708 15.0019 12.014C14.8594 11.0375 14.0901 10.3683 13.4241 9.95616C12.7274 9.52507 11.9423 9.2489 11.4202 9.12111Z" fill="#0F0F0F"/>
<path fill-rule="evenodd" clip-rule="evenodd" d="M9.25977 2.6001C6.49838 2.6001 4.25977 4.83856 4.25977 7.59993V20.5994C4.25977 23.3607 6.49838 25.5992 9.25977 25.5992H12.2598V27.5991C12.2598 29.0767 13.9763 29.887 15.1179 28.953L15.1308 28.9423L18.0177 26.4983C18.7314 25.9168 19.6238 25.5992 20.5446 25.5992H22.7598C25.5211 25.5992 27.7598 23.3607 27.7598 20.5994V7.57591C27.7598 4.82785 25.532 2.6001 22.784 2.6001H9.25977ZM6.25977 7.59993C6.25977 5.94321 7.60287 4.6001 9.25977 4.6001H22.784C24.4274 4.6001 25.7598 5.93241 25.7598 7.57591V20.5994C25.7598 22.2561 24.4167 23.5992 22.7598 23.5992H20.5446C19.1595 23.5992 17.8171 24.0784 16.7452 24.9554L16.7323 24.9661L14.2598 27.0593V25.5992C14.2598 24.4946 13.3643 23.5992 12.2598 23.5992H9.25977C7.60287 23.5992 6.25977 22.2561 6.25977 20.5994V7.59993Z" fill="#0F0F0F"/>
</svg>
