<svg width="32" height="32" viewBox="0 0 32 32" fill="none" xmlns="http://www.w3.org/2000/svg">
<path d="M16.0005 1.99969C13.2315 1.99969 10.5248 2.82077 8.22248 4.35911C5.92019 5.89745 4.12578 8.08395 3.06615 10.6421C2.00652 13.2003 1.72928 16.0152 2.26947 18.731C2.80966 21.4467 4.14303 23.9412 6.10097 25.8992C8.0589 27.8571 10.5535 29.1905 13.2692 29.7307C15.9849 30.2709 18.7999 29.9936 21.358 28.934C23.9162 27.8744 26.1027 26.08 27.641 23.7777C29.1794 21.4754 30.0005 18.7686 30.0005 15.9997C29.9963 12.2879 28.52 8.7294 25.8954 6.10479C23.2708 3.48019 19.7122 2.00385 16.0005 1.99969ZM25.1553 23.7404L8.25974 6.84491C10.5547 4.89846 13.4979 3.8864 16.5046 4.00974C19.5113 4.13307 22.3617 5.38277 24.4895 7.51063C26.6174 9.6385 27.8671 12.4889 27.9904 15.4956C28.1138 18.5023 27.1017 21.4454 25.1553 23.7404ZM6.84568 8.259L23.7412 25.1545C21.4462 27.1009 18.5031 28.1129 15.4964 27.9896C12.4897 27.8662 9.63936 26.6165 7.51151 24.4887C5.38366 22.3608 4.13396 19.5105 4.01061 16.5038C3.88726 13.4971 4.89928 10.554 6.84568 8.259Z" fill="black"/>
</svg>
