<svg width="32" height="32" viewBox="0 0 32 32" fill="none" xmlns="http://www.w3.org/2000/svg">
<path d="M10.2857 14.651C10.0504 14.5992 9.70566 14.5358 9.44492 14.4903C9.42505 13.0396 9.90274 11.6259 10.7984 10.4845C11.3675 9.79369 12.0118 9.16841 12.7193 8.62023L13.1461 8.25793C13.3292 8.1065 13.4509 7.89358 13.4885 7.65894C13.5261 7.42431 13.4769 7.18403 13.3502 6.983C13.2258 6.77523 13.03 6.61995 12.7993 6.54624C12.5687 6.47253 12.3191 6.48547 12.0973 6.58261C9.9534 7.45324 8.06925 8.86022 6.62559 10.6685C4.4808 13.2937 3.3691 16.6122 3.49959 19.9996C3.4998 21.0321 3.79065 22.0438 4.33887 22.9187C4.88709 23.7937 5.67053 24.4967 6.59957 24.9472C7.52861 25.3978 8.56571 25.5777 9.59223 25.4665C10.6188 25.3552 11.5932 24.9573 12.4042 24.3181C13.2151 23.679 13.8297 22.8245 14.1777 21.8523C14.5258 20.8802 14.5931 19.8298 14.3721 18.8212C14.1511 17.8126 13.6506 16.8866 12.928 16.1491C12.2053 15.4116 11.2896 14.8925 10.2857 14.651ZM8.99961 24.4996C7.80654 24.4983 6.6627 24.0238 5.81907 23.1802C4.97544 22.3365 4.50091 21.1927 4.49961 19.9996C4.36857 16.8565 5.39067 13.7738 7.37361 11.3316C8.71784 9.62936 10.4835 8.30789 12.4957 7.49811L12.0738 7.85602C11.3049 8.45247 10.607 9.13516 9.99375 9.89072C9.42116 10.6052 8.99522 11.4257 8.74033 12.3052C8.48544 13.1846 8.40663 14.1058 8.5084 15.0157C8.5279 15.1159 8.57753 15.2077 8.65066 15.279C8.72378 15.3502 8.81691 15.3973 8.91758 15.4142C8.92051 15.4147 9.66465 15.5377 10.0602 15.6251C11.1302 15.8847 12.0679 16.5276 12.6959 17.432C13.3238 18.3364 13.5985 19.4397 13.4678 20.533C13.3372 21.6262 12.8103 22.6337 11.9869 23.3647C11.1635 24.0957 10.1007 24.4994 8.99961 24.4996Z" fill="black"/>
<path d="M24.2857 14.651C24.0504 14.5992 23.7057 14.5358 23.4449 14.4903C23.4251 13.0396 23.9027 11.6259 24.7984 10.4845C25.3675 9.79369 26.0118 9.16841 26.7193 8.62023L27.1461 8.25793C27.3292 8.1065 27.4509 7.89358 27.4885 7.65894C27.5261 7.42431 27.4769 7.18403 27.3502 6.983C27.2258 6.7753 27.0299 6.62006 26.7993 6.54636C26.5687 6.47266 26.3191 6.48555 26.0973 6.58261C23.9534 7.45324 22.0693 8.86022 20.6256 10.6685C18.4808 13.2937 17.3691 16.6122 17.4996 19.9996C17.4998 21.0321 17.7906 22.0438 18.3389 22.9187C18.8871 23.7937 19.6705 24.4967 20.5996 24.9472C21.5286 25.3978 22.5657 25.5777 23.5922 25.4665C24.6188 25.3552 25.5932 24.9573 26.4042 24.3181C27.2151 23.679 27.8297 22.8245 28.1777 21.8523C28.5258 20.8802 28.5931 19.8298 28.3721 18.8212C28.1511 17.8126 27.6506 16.8866 26.928 16.1491C26.2053 15.4116 25.2896 14.8925 24.2857 14.651ZM22.9996 24.4996C21.8065 24.4983 20.6627 24.0238 19.8191 23.1802C18.9754 22.3365 18.5009 21.1927 18.4996 19.9996C18.3686 16.8565 19.3907 13.7738 21.3736 11.3316C22.7178 9.62938 24.4835 8.30791 26.4957 7.49813L26.0738 7.85604C25.3049 8.45248 24.607 9.13516 23.9937 9.89071C23.4211 10.6052 22.9952 11.4257 22.7403 12.3052C22.4854 13.1846 22.4066 14.1057 22.5084 15.0157C22.5279 15.1159 22.5775 15.2077 22.6506 15.2789C22.7238 15.3502 22.8169 15.3973 22.9176 15.4142C22.9205 15.4146 23.6646 15.5377 24.0601 15.6251C25.1302 15.8847 26.0679 16.5276 26.6958 17.432C27.3238 18.3364 27.5985 19.4397 27.4678 20.5329C27.3371 21.6262 26.8103 22.6337 25.9869 23.3647C25.1635 24.0956 24.1007 24.4995 22.9996 24.4996Z" fill="black"/>
</svg>
