<svg width="32" height="32" viewBox="0 0 32 32" fill="none" xmlns="http://www.w3.org/2000/svg">
<path d="M10.3932 14.1627C10.2633 14.1344 10.1022 14.1021 9.93809 14.0714C10.03 12.8752 10.4688 11.7319 11.2008 10.7814C11.7477 10.1229 12.3649 9.52629 13.0416 9.00209L13.4713 8.63783C13.7466 8.41018 13.9295 8.08993 13.9855 7.73711C14.0416 7.3843 13.9671 7.02314 13.776 6.72133C13.5876 6.41355 13.295 6.18366 12.9514 6.07352C12.6078 5.96337 12.2361 5.9803 11.9039 6.12123C9.68976 7.01908 7.74343 8.47074 6.25156 10.337C4.0258 13.0537 2.86931 16.49 2.99961 19.9996C2.99979 21.1264 3.31729 22.2304 3.91573 23.1852C4.51418 24.1399 5.3694 24.9069 6.38347 25.3982C7.39753 25.8895 8.52946 26.0854 9.64965 25.9633C10.7698 25.8412 11.833 25.4062 12.7174 24.7079C13.6019 24.0097 14.2718 23.0766 14.6505 22.0153C15.0293 20.954 15.1015 19.8076 14.859 18.7072C14.6164 17.6067 14.0689 16.5969 13.2791 15.7932C12.4893 14.9895 11.4892 14.4244 10.3932 14.1627ZM8.99961 23.9996C7.93907 23.9985 6.92227 23.5768 6.17235 22.8269C5.42243 22.0769 5.00067 21.0601 4.99961 19.9996C4.86826 16.9786 5.84559 14.0138 7.74766 11.6632C8.28184 11.0611 8.7584 10.5626 9.22031 10.1363C8.22414 11.5911 7.79607 13.3607 8.01719 15.11C8.05601 15.3105 8.15521 15.4943 8.30148 15.6369C8.44776 15.7794 8.63411 15.8738 8.83555 15.9074C8.84043 15.9084 9.56602 16.0285 9.94297 16.1115C10.894 16.3424 11.7274 16.9139 12.2854 17.7178C12.8435 18.5218 13.0875 19.5024 12.9713 20.4741C12.8551 21.4459 12.3867 22.3413 11.6548 22.991C10.9229 23.6406 9.97826 23.9995 8.99961 23.9996Z" fill="black"/>
<path d="M24.3932 14.1627C24.2633 14.1344 24.1022 14.1021 23.9381 14.0714C24.03 12.8752 24.4688 11.7319 25.2008 10.7814C25.7477 10.1229 26.3649 9.52629 27.0416 9.00209L27.4713 8.63783C27.7466 8.41018 27.9295 8.08993 27.9855 7.73711C28.0416 7.3843 27.9671 7.02314 27.776 6.72133C27.5876 6.41355 27.295 6.18366 26.9514 6.07352C26.6078 5.96337 26.2361 5.9803 25.9039 6.12123C23.6898 7.01908 21.7434 8.47074 20.2516 10.337C18.0258 13.0537 16.8693 16.49 16.9996 19.9996C16.9997 21.1264 17.3172 22.2304 17.9157 23.1852C18.5141 24.1399 19.3694 24.9069 20.3834 25.3982C21.3975 25.8895 22.5294 26.0854 23.6496 25.9633C24.7698 25.8412 25.833 25.4062 26.7174 24.7079C27.6018 24.0097 28.2717 23.0766 28.6505 22.0153C29.0292 20.954 29.1015 19.8076 28.8589 18.7072C28.6164 17.6067 28.0689 16.5969 27.2791 15.7932C26.4893 14.9895 25.4892 14.4244 24.3932 14.1627ZM22.9996 23.9996C21.9391 23.9985 20.9223 23.5768 20.1723 22.8269C19.4224 22.0769 19.0007 21.0601 18.9996 19.9996C18.8682 16.9787 19.8456 14.0138 21.7476 11.6632C22.2818 11.0611 22.7583 10.5626 23.2203 10.1363C22.2241 11.5911 21.7961 13.3607 22.0172 15.11C22.056 15.3105 22.1552 15.4943 22.3015 15.6369C22.4478 15.7794 22.6341 15.8738 22.8355 15.9074C22.8404 15.9084 23.566 16.0285 23.943 16.1115C24.894 16.3424 25.7274 16.9139 26.2854 17.7178C26.8435 18.5218 27.0875 19.5024 26.9713 20.4741C26.8551 21.4459 26.3867 22.3413 25.6548 22.991C24.9229 23.6406 23.9783 23.9995 22.9996 23.9996Z" fill="black"/>
</svg>
