<svg xmlns="http://www.w3.org/2000/svg" width="32" height="32" viewBox="0 0 32 32"><path d="M10.2861 14.651C10.0068 14.5922 9.72642 14.5389 9.44508 14.491C9.42504 13.0402 9.90255 11.6264 10.7981 10.485C11.3681 9.79396 12.0121 9.16796 12.7191 8.61996L13.1461 8.25796C13.3292 8.10649 13.4509 7.89355 13.4884 7.65891C13.5259 7.42427 13.4768 7.18399 13.3501 6.98296C13.2257 6.77525 13.0298 6.62003 12.7991 6.5464C12.5684 6.47276 12.3188 6.48576 12.0971 6.58296C9.95356 7.45342 8.06966 8.86006 6.62608 10.668C4.48112 13.2934 3.36942 16.6122 3.50008 20C3.50036 21.0325 3.79127 22.0441 4.33954 22.919C4.88781 23.7939 5.67129 24.4969 6.60034 24.9474C7.5294 25.3979 8.5665 25.5778 9.59301 25.4664C10.6195 25.3551 11.594 24.9571 12.4048 24.3179C13.2157 23.6788 13.8303 22.8242 14.1783 21.8521C14.5263 20.88 14.5936 19.8296 14.3726 18.821C14.1515 17.8124 13.651 16.8864 12.9283 16.149C12.2057 15.4115 11.29 14.8924 10.2861 14.651ZM9.00008 24.5C7.80702 24.4986 6.66319 24.0241 5.81957 23.1805C4.97594 22.3369 4.50141 21.193 4.50008 20C4.36913 16.8568 5.39123 13.7742 7.37408 11.332C8.71822 9.62953 10.4839 8.30787 12.4961 7.49796L12.0741 7.85596C11.3052 8.4525 10.6073 9.1353 9.99408 9.89096C9.42135 10.6054 8.99527 11.4259 8.74027 12.3053C8.48527 13.1848 8.40636 14.1059 8.50808 15.016C8.52771 15.1162 8.5775 15.208 8.65078 15.2791C8.72406 15.3503 8.81732 15.3973 8.91808 15.414C8.92108 15.414 9.66508 15.538 10.0601 15.625C11.1317 15.8829 12.0713 16.5252 12.7008 17.43C13.3303 18.3348 13.6058 19.4392 13.4751 20.5336C13.3444 21.6281 12.8165 22.6365 11.9917 23.3676C11.1668 24.0987 10.1023 24.5016 9.00008 24.5ZM24.2861 14.651C24.0501 14.599 23.7061 14.536 23.4451 14.491C23.425 13.0402 23.9025 11.6264 24.7981 10.485C25.3681 9.79396 26.0121 9.16796 26.7191 8.61996L27.1461 8.25796C27.3292 8.10649 27.4509 7.89355 27.4884 7.65891C27.5259 7.42427 27.4768 7.18399 27.3501 6.98296C27.2257 6.77525 27.0298 6.62003 26.7991 6.5464C26.5684 6.47276 26.3188 6.48576 26.0971 6.58296C23.9536 7.45346 22.0697 8.86009 20.6261 10.668C18.4811 13.2934 17.3694 16.6122 17.5001 20C17.5004 21.0325 17.7913 22.0441 18.3395 22.919C18.8878 23.7939 19.6713 24.4969 20.6003 24.9474C21.5294 25.3979 22.5665 25.5778 23.593 25.4664C24.6195 25.3551 25.594 24.9571 26.4048 24.3179C27.2157 23.6788 27.8303 22.8242 28.1783 21.8521C28.5263 20.88 28.5936 19.8296 28.3726 18.821C28.1515 17.8124 27.651 16.8864 26.9283 16.149C26.2057 15.4115 25.29 14.8924 24.2861 14.651ZM23.0001 24.5C21.807 24.4986 20.6632 24.0241 19.8196 23.1805C18.9759 22.3369 18.5014 21.193 18.5001 20C18.3691 16.8568 19.3912 13.7742 21.3741 11.332C22.7182 9.62953 24.4839 8.30787 26.4961 7.49796L26.0741 7.85596C25.3052 8.45251 24.6073 9.13531 23.9941 9.89096C23.4213 10.6054 22.9953 11.4259 22.7403 12.3053C22.4853 13.1848 22.4064 14.1059 22.5081 15.016C22.5276 15.1162 22.5773 15.2081 22.6506 15.2793C22.7239 15.3505 22.8173 15.3974 22.9181 15.414C22.9211 15.414 23.6651 15.538 24.0601 15.625C25.1317 15.8829 26.0713 16.5252 26.7008 17.43C27.3303 18.3348 27.6058 19.4392 27.4751 20.5336C27.3444 21.6281 26.8165 22.6365 25.9917 23.3676C25.1668 24.0987 24.1023 24.5016 23.0001 24.5Z"/></svg>