<svg width="32" height="32" viewBox="0 0 32 32" fill="none" xmlns="http://www.w3.org/2000/svg">
<path d="M16.0005 2.24969C13.281 2.24969 10.6225 3.05611 8.36137 4.56698C6.1002 6.07785 4.33783 8.22531 3.29712 10.7378C2.25642 13.2503 1.98412 16.0149 2.51467 18.6822C3.04521 21.3494 4.35477 23.7994 6.27775 25.7224C8.20072 27.6454 10.6507 28.9549 13.318 29.4855C15.9852 30.016 18.7499 29.7437 21.2624 28.703C23.7748 27.6623 25.9223 25.9 27.4332 23.6388C28.944 21.3776 29.7505 18.7192 29.7505 15.9997C29.7464 12.3542 28.2965 8.85918 25.7187 6.28143C23.141 3.70368 19.646 2.25373 16.0005 2.24969ZM28.2505 15.9997C28.2497 18.9877 27.1511 21.8712 25.1636 24.1022L7.89792 6.83661C9.66158 5.26979 11.8407 4.24649 14.1728 3.89007C16.5048 3.53364 18.8902 3.8593 21.0413 4.82778C23.1924 5.79627 25.0176 7.36624 26.2967 9.34847C27.5758 11.3307 28.2543 13.6406 28.2505 15.9997ZM3.75046 15.9997C3.75126 13.0117 4.84983 10.1282 6.83738 7.89716L24.103 25.1628C22.3393 26.7296 20.1602 27.7529 17.8281 28.1093C15.4961 28.4657 13.1108 28.1401 10.9596 27.1716C8.80849 26.2031 6.98336 24.6331 5.70424 22.6509C4.42511 20.6687 3.7466 18.3588 3.75046 15.9997Z" fill="black"/>
</svg>
