<svg width="32" height="32" viewBox="0 0 32 32" fill="none" xmlns="http://www.w3.org/2000/svg"><path d="M15 19.234v4.765a1 1 0 0 0 1.515.858l2.567-1.54-1.457-1.459-.625.375v-1l-2-2zM11.707 21.707l2.883-2.883-1.414-1.414-2.883 2.883a1 1 0 0 0 1.414 1.414z" fill="#0F0F0F"/><path d="M16 28c-5.514 0-10-5.383-10-12a13.962 13.962 0 0 1 .877-4.89l-1.53-1.529A15.792 15.792 0 0 0 4 16c0 7.72 5.383 14 12 14a10.836 10.836 0 0 0 7.06-2.704l-1.406-1.407A8.839 8.839 0 0 1 16 27.999zM28.707 27.293l-3.037-3.038A15.5 15.5 0 0 0 28 16c0-7.72-5.383-14-12-14A11.179 11.179 0 0 0 7.52 6.104L4.707 3.293a1 1 0 0 0-1.414 1.414l2.19 2.19c.008.007.017.009.024.016l21.81 21.809a.998.998 0 0 0 1.39-1.43zM17.414 16l4.293-4.293a1 1 0 0 0-.192-1.565l-5-3A1 1 0 0 0 15 8v5.586L8.932 7.518A9.222 9.222 0 0 1 16 4c5.514 0 10 5.382 10 12a13.637 13.637 0 0 1-1.776 6.81L17.414 16zM17 13.584V9.767l2.387 1.432L17 13.585z" fill="#0F0F0F"/></svg>