<svg xmlns="http://www.w3.org/2000/svg" width="32" height="32" viewBox="0 0 32 32"><path d="M22.2449 22.2089L16.0449 15.9989L22.2409 9.79189C22.5157 9.51756 22.6911 9.15937 22.7393 8.77408C22.7875 8.3888 22.7057 7.99845 22.5069 7.66489C22.3737 7.43971 22.192 7.24704 21.9749 7.10089L16.2149 3.47489C16.0276 3.34395 15.8078 3.2669 15.5797 3.25212C15.3516 3.23735 15.1238 3.28542 14.9211 3.39111C14.7184 3.4968 14.5485 3.65605 14.43 3.85154C14.3115 4.04704 14.2489 4.27129 14.2489 4.49989V14.1999L7.53894 7.47789C7.46934 7.40816 7.38669 7.35282 7.2957 7.31503C7.20471 7.27724 7.10717 7.25775 7.00865 7.25765C6.91013 7.25756 6.81255 7.27687 6.72149 7.31449C6.63043 7.35211 6.54767 7.40729 6.47794 7.47689C6.40821 7.54649 6.35287 7.62915 6.31508 7.72014C6.27729 7.81112 6.25779 7.90866 6.2577 8.00719C6.25761 8.10571 6.27692 8.20329 6.31454 8.29434C6.35216 8.3854 6.40734 8.46816 6.47694 8.53789L13.9259 15.9999L6.47594 23.4629C6.33524 23.6037 6.25625 23.7947 6.25635 23.9937C6.25644 24.1928 6.33561 24.3837 6.47644 24.5244C6.61727 24.6651 6.80823 24.7441 7.0073 24.744C7.20637 24.7439 7.39724 24.6647 7.53794 24.5239L14.2499 17.7989V27.4999C14.2495 27.7297 14.3126 27.9552 14.4322 28.1514C14.5519 28.3477 14.7234 28.507 14.9279 28.6119C15.1079 28.7039 15.3079 28.7519 15.5109 28.7519C15.7539 28.7549 15.9909 28.6819 16.1899 28.5419L22.0219 24.8699C22.229 24.7224 22.4015 24.5315 22.5273 24.3106C22.6532 24.0897 22.7293 23.844 22.7506 23.5906C22.7718 23.3372 22.7376 23.0823 22.6502 22.8435C22.5629 22.6047 22.4246 22.3878 22.2449 22.2079V22.2089ZM21.1459 8.34989C21.1915 8.3812 21.2253 8.42684 21.242 8.47957C21.2587 8.53229 21.2572 8.58907 21.2379 8.64089C21.2256 8.67516 21.2058 8.70625 21.1799 8.73189L15.7499 14.1719V4.95389L21.1459 8.34989ZM21.1879 23.6249L15.7499 27.0469V17.8259L21.1829 23.2679C21.2088 23.2936 21.2287 23.3246 21.2414 23.3588C21.254 23.393 21.2589 23.4296 21.2559 23.4659C21.2536 23.5255 21.2294 23.5821 21.1879 23.6249Z"/></svg>