<svg width="32" height="32" viewBox="0 0 32 32" fill="none" xmlns="http://www.w3.org/2000/svg">
<path d="M15.5001 17.6214V23.9995C15.5001 24.088 15.5236 24.1749 15.5682 24.2514C15.6127 24.3278 15.6768 24.3911 15.7538 24.4347C15.8308 24.4783 15.918 24.5006 16.0065 24.4995C16.095 24.4984 16.1815 24.4738 16.2574 24.4283L20.0384 22.1596L19.3095 21.4307L16.5001 23.1167V18.6214L15.5001 17.6214Z" fill="black"/>
<path d="M11.3536 21.3531L15.2927 17.414L14.5857 16.707L10.6466 20.646C10.5994 20.6923 10.5618 20.7474 10.5361 20.8083C10.5103 20.8691 10.4969 20.9345 10.4966 21.0005C10.4962 21.0666 10.509 21.1321 10.5341 21.1932C10.5593 21.2543 10.5963 21.3099 10.643 21.3566C10.6897 21.4033 10.7452 21.4403 10.8064 21.4654C10.8675 21.4906 10.933 21.5033 10.999 21.503C11.0651 21.5027 11.1305 21.4893 11.1913 21.4635C11.2522 21.4378 11.3074 21.4002 11.3536 21.3531Z" fill="black"/>
<path d="M16.0001 28.4995C10.2105 28.4995 5.5001 22.8921 5.5001 15.9995C5.48999 13.6574 6.06028 11.3493 7.16 9.2814L6.4219 8.5433C5.14875 10.8213 4.48669 13.3899 4.5001 15.9995C4.5001 23.4439 9.65879 29.4995 16.0001 29.4995C17.4766 29.4765 18.9319 29.145 20.2727 28.5263C21.6135 27.9075 22.8101 27.0152 23.7856 25.9066L23.0812 25.2022C22.1977 26.2172 21.1108 27.0351 19.8909 27.6032C18.6711 28.1712 17.3455 28.4766 16.0001 28.4995Z" fill="black"/>
<path d="M28.3536 27.646L25.0338 24.3262C26.6615 21.8557 27.5197 18.9579 27.5001 15.9995C27.5001 8.55518 22.3414 2.49952 16.0001 2.49952C14.3545 2.53311 12.7386 2.94325 11.2762 3.69845C9.81375 4.45366 8.5438 5.53387 7.56376 6.85617L4.35361 3.646C4.25953 3.55381 4.13287 3.50246 4.00116 3.50313C3.86944 3.50379 3.7433 3.55641 3.65016 3.64955C3.55702 3.74269 3.5044 3.86883 3.50374 4.00055C3.50307 4.13226 3.55442 4.25892 3.64661 4.353L27.6465 28.353C27.6928 28.4002 27.7479 28.4378 27.8088 28.4635C27.8697 28.4893 27.935 28.5027 28.0011 28.503C28.0672 28.5034 28.1327 28.4906 28.1938 28.4655C28.2549 28.4403 28.3104 28.4033 28.3571 28.3566C28.4039 28.3099 28.4409 28.2544 28.466 28.1932C28.4911 28.1321 28.5039 28.0666 28.5036 28.0006C28.5032 27.9345 28.4898 27.8691 28.4641 27.8083C28.4383 27.7474 28.4008 27.6923 28.3536 27.646ZM16.7071 15.9995L21.3536 11.353C21.4073 11.2993 21.4481 11.234 21.4728 11.1622C21.4975 11.0904 21.5055 11.0139 21.4963 10.9385C21.487 10.8631 21.4607 10.7908 21.4193 10.7271C21.3779 10.6634 21.3225 10.6099 21.2574 10.5708L16.2574 7.57081C16.1816 7.52511 16.0949 7.50039 16.0064 7.49919C15.9179 7.49799 15.8306 7.52034 15.7535 7.56396C15.6765 7.60758 15.6124 7.67091 15.5679 7.74744C15.5233 7.82397 15.4999 7.91097 15.5001 7.99952V14.7925L8.27305 7.56545C9.15931 6.33678 10.3183 5.33022 11.6589 4.62477C12.9996 3.91931 14.4855 3.53416 16.0001 3.49954C21.7896 3.49954 26.5001 9.10696 26.5001 15.9995C26.5177 18.6925 25.7584 21.3333 24.3133 23.6057L16.7071 15.9995ZM16.5001 14.7925V8.88235L20.194 11.0991L16.5001 14.7925Z" fill="black"/>
</svg>
