<svg width="32" height="32" viewBox="0 0 32 32" fill="none" xmlns="http://www.w3.org/2000/svg">
<path d="M22.2447 22.2085L16.0455 15.9995L22.2413 9.79152C22.4221 9.61101 22.5611 9.39298 22.6483 9.15285C22.7355 8.91271 22.769 8.65634 22.7462 8.40187C22.7223 8.14142 22.6407 7.88956 22.5073 7.66457C22.374 7.43957 22.1922 7.24709 21.9752 7.10109L16.2149 3.47509C16.0275 3.34432 15.8078 3.26743 15.5797 3.25278C15.3516 3.23812 15.1239 3.28626 14.9212 3.39196C14.7186 3.49766 14.5488 3.65688 14.4303 3.85231C14.3118 4.04775 14.2491 4.27193 14.2491 4.50048L14.2496 14.2007L7.5377 7.47708C7.46816 7.40697 7.38545 7.35127 7.29434 7.31319C7.20322 7.27511 7.10548 7.25539 7.00673 7.25517C6.90797 7.25495 6.81014 7.27422 6.71886 7.31189C6.62757 7.34955 6.54461 7.40487 6.47475 7.47467C6.40489 7.54447 6.34949 7.62737 6.31174 7.71862C6.27399 7.80988 6.25462 7.90769 6.25475 8.00644C6.25489 8.10519 6.27451 8.20295 6.31251 8.2941C6.3505 8.38526 6.40612 8.46801 6.47617 8.53762L13.9259 15.9995L6.47666 23.4624C6.40702 23.5321 6.35179 23.6149 6.31413 23.7059C6.27647 23.797 6.2571 23.8945 6.25715 23.9931C6.25719 24.0916 6.27664 24.1891 6.31439 24.2801C6.35213 24.3712 6.40743 24.4538 6.47714 24.5235C6.54684 24.5931 6.62957 24.6483 6.72061 24.686C6.81166 24.7237 6.90923 24.743 7.00776 24.743C7.10628 24.7429 7.20384 24.7235 7.29485 24.6857C7.38586 24.648 7.46854 24.5927 7.53818 24.523L14.2496 17.7984L14.2501 27.4996C14.2496 27.7295 14.3126 27.9551 14.4323 28.1514C14.552 28.3477 14.7237 28.5071 14.9283 28.6119C15.1086 28.7041 15.3083 28.7523 15.5108 28.7525C15.7536 28.7548 15.9909 28.6811 16.1896 28.5416L22.0221 24.8697C22.229 24.7222 22.4014 24.5313 22.5271 24.3105C22.6529 24.0896 22.729 23.844 22.7502 23.5907C22.7713 23.3375 22.7371 23.0826 22.6498 22.8439C22.5625 22.6052 22.4243 22.3884 22.2447 22.2085ZM21.1461 8.35012C21.1762 8.37102 21.2013 8.39832 21.2196 8.43006C21.238 8.4618 21.249 8.4972 21.2521 8.53372C21.2555 8.57006 21.2508 8.60671 21.2383 8.641C21.2258 8.67529 21.2059 8.70637 21.1798 8.73196L15.7497 14.1724L15.7492 4.95364L21.1461 8.35012ZM21.1876 23.6245L15.7501 27.0474L15.7496 17.8257L21.1832 23.2681C21.209 23.2939 21.2288 23.325 21.2413 23.3592C21.2538 23.3935 21.2586 23.43 21.2555 23.4663C21.253 23.5256 21.2288 23.5819 21.1876 23.6245Z" fill="black"/>
</svg>
