<svg xmlns="http://www.w3.org/2000/svg" width="32" height="32" viewBox="0 0 32 32"><path d="M21.233 15.43C21.8083 14.8469 22.2611 14.1545 22.5645 13.3937C22.868 12.6329 23.0161 11.819 23 11C22.9981 9.40927 22.3654 7.88422 21.2406 6.75941C20.1158 5.63459 18.5907 5.00185 17 5H9C8.73478 5 8.48043 5.10536 8.29289 5.29289C8.10536 5.48043 8 5.73478 8 6V26C8 26.2652 8.10536 26.5196 8.29289 26.7071C8.48043 26.8946 8.73478 27 9 27H19C20.3944 27.0006 21.7455 26.5155 22.8211 25.628C23.8967 24.7405 24.6295 23.5062 24.8938 22.137C25.158 20.7678 24.9371 19.3494 24.2691 18.1254C23.601 16.9014 22.5275 15.9484 21.233 15.43ZM10 7H17C18.0605 7.00106 19.0773 7.42283 19.8273 8.17274C20.5772 8.92266 20.9989 9.93946 21 11C21.0325 11.5058 20.9624 12.0129 20.7939 12.4909C20.6254 12.9688 20.3621 13.4078 20.0197 13.7815C19.6772 14.1551 19.2628 14.4556 18.8013 14.665C18.3398 14.8744 17.8407 14.9884 17.334 15H10V7ZM19 25H10V17H19C20.0609 17 21.0783 17.4214 21.8284 18.1716C22.5786 18.9217 23 19.9391 23 21C23 22.0609 22.5786 23.0783 21.8284 23.8284C21.0783 24.5786 20.0609 25 19 25Z"/></svg>