<svg width="32" height="32" viewBox="0 0 32 32" fill="none" xmlns="http://www.w3.org/2000/svg">
<path d="M22.0002 2.24974H10.0002C9.00599 2.25099 8.05289 2.64648 7.3499 3.34947C6.64691 4.05246 6.25142 5.00556 6.25017 5.99974V27.5007C6.25018 27.7476 6.32328 27.9889 6.46027 28.1943C6.59725 28.3997 6.79198 28.5599 7.01989 28.6547C7.24781 28.7495 7.4987 28.7748 7.74093 28.7272C7.98317 28.6797 8.2059 28.5614 8.38103 28.3874L16.0031 20.8513L23.6173 28.3855C23.7922 28.5601 24.015 28.6789 24.2574 28.7269C24.4998 28.7749 24.751 28.75 24.9792 28.6554C25.2075 28.5607 25.4025 28.4004 25.5398 28.1949C25.677 27.9894 25.7502 27.7478 25.7502 27.5007V5.99974C25.7489 5.00556 25.3534 4.05246 24.6504 3.34947C23.9474 2.64648 22.9943 2.25099 22.0002 2.24974ZM24.2502 26.9011L16.8869 19.616C16.653 19.382 16.336 19.2503 16.0052 19.2498C15.6744 19.2492 15.3569 19.3799 15.1222 19.6131L7.75017 26.9021V5.99974C7.75098 5.40325 7.9883 4.83143 8.41008 4.40965C8.83186 3.98787 9.40368 3.75056 10.0002 3.74974H22.0002C22.5967 3.75056 23.1685 3.98787 23.5903 4.40965C24.012 4.83143 24.2493 5.40325 24.2502 5.99974V26.9011Z" fill="black"/>
</svg>
