<svg xmlns="http://www.w3.org/2000/svg" width="32" height="32" viewBox="0 0 32 32"><path d="M30.9998 19.005C31.0027 18.2562 30.7954 17.5215 30.4013 16.8847C30.0072 16.2479 29.4423 15.7345 28.7708 15.4029C28.0993 15.0714 27.3482 14.935 26.6031 15.0093C25.8579 15.0836 25.1485 15.3656 24.5557 15.8232C23.9629 16.2808 23.5104 16.8956 23.2498 17.5977C22.9893 18.2997 22.931 19.0609 23.0817 19.7944C23.2324 20.528 23.586 21.2045 24.1022 21.747C24.6185 22.2895 25.2766 22.6762 26.0018 22.863C25.9874 23.7007 25.645 24.4993 25.0481 25.0872C24.4513 25.675 23.6476 26.0053 22.8098 26.007H9.18984C8.34234 26.0057 7.52994 25.6685 6.93068 25.0692C6.33141 24.4699 5.99416 23.6575 5.99284 22.81V20.001C5.99284 19.7377 5.88822 19.4851 5.70199 19.2989C5.51577 19.1127 5.2632 19.008 4.99984 19.008C4.73648 19.008 4.4839 19.1127 4.29768 19.2989C4.11146 19.4851 4.00684 19.7377 4.00684 20.001V22.81C4.00869 24.1841 4.55535 25.5013 5.52695 26.4729C6.49855 27.4445 7.81579 27.9912 9.18984 27.993H22.8098C24.1734 27.9908 25.4811 27.4516 26.45 26.4922C27.419 25.5328 27.9711 24.2305 27.9868 22.867C28.8463 22.6487 29.6088 22.1508 30.1542 21.4517C30.6997 20.7525 30.9972 19.8918 30.9998 19.005ZM26.9998 21.005C26.4694 21.005 25.9607 20.7943 25.5856 20.4193C25.2106 20.0442 24.9998 19.5355 24.9998 19.005C24.9998 18.4746 25.2106 17.9659 25.5856 17.5908C25.9607 17.2158 26.4694 17.005 26.9998 17.005C27.5303 17.005 28.039 17.2158 28.414 17.5908C28.7891 17.9659 28.9998 18.4746 28.9998 19.005C28.9998 19.5355 28.7891 20.0442 28.414 20.4193C28.039 20.7943 27.5303 21.005 26.9998 21.005ZM19.9998 14.998C20.1968 14.998 20.3919 14.9592 20.5739 14.8839C20.7558 14.8085 20.9212 14.698 21.0605 14.5587C21.1998 14.4194 21.3103 14.2541 21.3857 14.0721C21.461 13.8901 21.4998 13.695 21.4998 13.498C21.4998 13.3011 21.461 13.106 21.3857 12.924C21.3103 12.742 21.1998 12.5767 21.0605 12.4374C20.9212 12.2981 20.7558 12.1876 20.5739 12.1122C20.3919 12.0368 20.1968 11.998 19.9998 11.998C19.602 11.998 19.2205 12.1561 18.9392 12.4374C18.6579 12.7187 18.4998 13.1002 18.4998 13.498C18.4998 13.8959 18.6579 14.2774 18.9392 14.5587C19.2205 14.84 19.602 14.998 19.9998 14.998ZM11.9998 14.998C12.1968 14.998 12.3919 14.9592 12.5739 14.8839C12.7558 14.8085 12.9212 14.698 13.0605 14.5587C13.1998 14.4194 13.3103 14.2541 13.3857 14.0721C13.461 13.8901 13.4998 13.695 13.4998 13.498C13.4998 13.3011 13.461 13.106 13.3857 12.924C13.3103 12.742 13.1998 12.5767 13.0605 12.4374C12.9212 12.2981 12.7558 12.1876 12.5739 12.1122C12.3919 12.0368 12.1968 11.998 11.9998 11.998C11.602 11.998 11.2205 12.1561 10.9392 12.4374C10.6579 12.7187 10.4998 13.1002 10.4998 13.498C10.4998 13.8959 10.6579 14.2774 10.9392 14.5587C11.2205 14.84 11.602 14.998 11.9998 14.998Z M9.0002 13.0021C8.99729 12.1175 8.70099 11.2588 8.15774 10.5607C7.61449 9.8625 6.85497 9.36429 5.9982 9.14408C6.01053 8.30503 6.35204 7.50443 6.94913 6.91482C7.54622 6.32522 8.35107 5.99383 9.1902 5.99208H22.8082C23.6563 5.99261 24.4695 6.32968 25.0693 6.92928C25.6691 7.52887 26.0064 8.34199 26.0072 9.19008V12.0031C26.003 12.1361 26.0255 12.2685 26.0735 12.3927C26.1215 12.5168 26.1939 12.63 26.2865 12.7255C26.3791 12.8211 26.4899 12.8971 26.6124 12.949C26.7349 13.0008 26.8666 13.0276 26.9997 13.0276C27.1328 13.0276 27.2645 13.0008 27.387 12.949C27.5095 12.8971 27.6203 12.8211 27.7129 12.7255C27.8055 12.63 27.8779 12.5168 27.9259 12.3927C27.9739 12.2685 27.9964 12.1361 27.9922 12.0031V9.19008C27.9904 7.81586 27.4436 6.49847 26.4717 5.52684C25.4999 4.55521 24.1824 4.00867 22.8082 4.00708H9.1912C7.82614 4.00885 6.51682 4.54877 5.54727 5.5097C4.57773 6.47063 4.02615 7.77508 4.0122 9.14008C3.28824 9.32611 2.63101 9.71156 2.11526 10.2526C1.59951 10.7936 1.24594 11.4686 1.09476 12.2006C0.943571 12.9326 1.00084 13.6924 1.26006 14.3935C1.51927 15.0946 1.97003 15.7089 2.56106 16.1665C3.15209 16.6241 3.85968 16.9066 4.60334 16.982C5.34701 17.0574 6.09691 16.9226 6.76776 16.593C7.43861 16.2633 8.00348 15.752 8.39814 15.1172C8.79279 14.4824 9.00139 13.7496 9.0002 13.0021ZM3.0002 13.0021C3.0002 12.4716 3.21092 11.9629 3.58599 11.5879C3.96106 11.2128 4.46977 11.0021 5.0002 11.0021C5.53064 11.0021 6.03934 11.2128 6.41442 11.5879C6.78949 11.9629 7.0002 12.4716 7.0002 13.0021C7.0002 13.5325 6.78949 14.0412 6.41442 14.4163C6.03934 14.7914 5.53064 15.0021 5.0002 15.0021C4.46977 15.0021 3.96106 14.7914 3.58599 14.4163C3.21092 14.0412 3.0002 13.5325 3.0002 13.0021ZM10.5702 18.3701C11.0144 19.4458 11.7681 20.3654 12.7357 21.0121C13.7033 21.6588 14.8412 22.0035 16.0051 22.0024C17.1689 22.0013 18.3062 21.6546 19.2726 21.0061C20.239 20.3576 20.991 19.4367 21.4332 18.3601C21.5287 18.1126 21.5219 17.8374 21.4145 17.5949C21.307 17.3524 21.1076 17.1626 20.8602 17.0671C20.6128 16.9716 20.3375 16.9783 20.095 17.0858C19.8525 17.1932 19.6627 17.3926 19.5672 17.6401C19.2693 18.3407 18.7716 18.9381 18.1363 19.3576C17.501 19.7772 16.7562 20.0003 15.9949 19.9993C15.2336 19.9982 14.4894 19.7729 13.8553 19.3516C13.2212 18.9303 12.7252 18.3315 12.4292 17.6301C12.3297 17.3857 12.1376 17.1905 11.8948 17.0871C11.652 16.9838 11.3782 16.9805 11.133 17.0782C10.8879 17.1758 10.6913 17.3664 10.586 17.6084C10.4808 17.8504 10.4754 18.1242 10.5712 18.3701H10.5702Z"/></svg>