<svg xmlns="http://www.w3.org/2000/svg" width="32" height="32" viewBox="0 0 32 32"><path d="M14.9782 14.5H17.0732C17.1934 15.2394 17.5868 15.9066 18.1757 16.3696C18.7645 16.8325 19.5057 17.0575 20.2525 16.9998C20.9994 16.9421 21.6973 16.6061 22.208 16.0582C22.7188 15.5103 23.0052 14.7906 23.0104 14.0416C23.0157 13.2926 22.7394 12.5689 22.2363 12.0139C21.7333 11.459 21.0402 11.1132 20.2942 11.0451C19.5483 10.9769 18.804 11.1915 18.2087 11.6461C17.6135 12.1008 17.2107 12.7625 17.0802 13.5H14.9732C14.8441 12.7563 14.4402 12.0882 13.8417 11.6282C13.2431 11.1683 12.4936 10.95 11.7417 11.0167C10.9898 11.0833 10.2903 11.4301 9.78208 11.9882C9.27382 12.5464 8.99382 13.2751 8.9976 14.0299C9.00137 14.7848 9.28864 15.5107 9.80246 16.0637C10.3163 16.6167 11.0191 16.9565 11.7717 17.0156C12.5242 17.0748 13.2715 16.849 13.8655 16.3831C14.4594 15.9171 14.8565 15.2451 14.9782 14.5ZM20.0262 12.032C20.2925 12.0261 20.5574 12.0734 20.8052 12.1712C21.053 12.269 21.2788 12.4154 21.4692 12.6016C21.6597 12.7879 21.811 13.0103 21.9144 13.2559C22.0177 13.5014 22.0709 13.7651 22.0709 14.0315C22.0709 14.298 22.0177 14.5617 21.9144 14.8072C21.811 15.0528 21.6597 15.2752 21.4692 15.4615C21.2788 15.6477 21.053 15.7941 20.8052 15.8919C20.5574 15.9897 20.2925 16.037 20.0262 16.031C19.4958 16.031 18.9871 15.8203 18.612 15.4453C18.2369 15.0702 18.0262 14.5615 18.0262 14.031C18.0262 13.5006 18.2369 12.9919 18.612 12.6168C18.9871 12.2418 19.4958 12.031 20.0262 12.031V12.032ZM10.0262 14.025C10.0202 13.7587 10.0676 13.4939 10.1654 13.2461C10.2632 12.9983 10.4095 12.7725 10.5958 12.582C10.782 12.3915 11.0045 12.2402 11.25 12.1369C11.4956 12.0336 11.7593 11.9803 12.0257 11.9803C12.2921 11.9803 12.5558 12.0336 12.8014 12.1369C13.0469 12.2402 13.2694 12.3915 13.4556 12.582C13.6419 12.7725 13.7882 12.9983 13.886 13.2461C13.9838 13.4939 14.0312 13.7587 14.0252 14.025C14.0252 14.5555 13.8145 15.0642 13.4394 15.4393C13.0643 15.8143 12.5556 16.025 12.0252 16.025C11.4948 16.025 10.9861 15.8143 10.611 15.4393C10.2359 15.0642 10.0252 14.5555 10.0252 14.025H10.0262Z M5.50001 23.5499V9.19394C5.50133 8.2157 5.89052 7.2779 6.58224 6.58618C7.27397 5.89445 8.21176 5.50526 9.19001 5.50394H20C20.1326 5.50394 20.2598 5.45126 20.3536 5.35749C20.4473 5.26372 20.5 5.13655 20.5 5.00394C20.5 4.87133 20.4473 4.74415 20.3536 4.65039C20.2598 4.55662 20.1326 4.50394 20 4.50394H9.19001C7.94663 4.50553 6.75463 5.00016 5.87543 5.87936C4.99623 6.75856 4.50159 7.95056 4.50001 9.19394V23.5499C3.62421 23.6763 2.8288 24.1298 2.27386 24.819C1.71891 25.5082 1.44562 26.3821 1.50899 27.2647C1.57236 28.1473 1.96768 28.9731 2.61539 29.576C3.26311 30.1789 4.11514 30.514 5.00001 30.514C5.88488 30.514 6.7369 30.1789 7.38462 29.576C8.03233 28.9731 8.42765 28.1473 8.49102 27.2647C8.55439 26.3821 8.2811 25.5082 7.72615 24.819C7.17121 24.1298 6.3758 23.6763 5.50001 23.5499ZM5.00001 29.4999C4.33696 29.4999 3.70108 29.2365 3.23224 28.7677C2.7634 28.2989 2.50001 27.663 2.50001 26.9999C2.50001 26.3369 2.7634 25.701 3.23224 25.2322C3.70108 24.7633 4.33696 24.4999 5.00001 24.4999C5.66305 24.4999 6.29893 24.7633 6.76777 25.2322C7.23661 25.701 7.50001 26.3369 7.50001 26.9999C7.50001 27.663 7.23661 28.2989 6.76777 28.7677C6.29893 29.2365 5.66305 29.4999 5.00001 29.4999ZM30.5 4.99994C30.5027 4.32846 30.3122 3.67038 29.9512 3.10419C29.5902 2.53801 29.074 2.08761 28.464 1.80674C27.8541 1.52587 27.1763 1.42637 26.5114 1.52012C25.8465 1.61387 25.2226 1.89691 24.7141 2.33547C24.2056 2.77404 23.834 3.34961 23.6436 3.99354C23.4533 4.63747 23.4521 5.32257 23.6404 5.96712C23.8287 6.61167 24.1984 7.18847 24.7054 7.6287C25.2124 8.06892 25.8354 8.35401 26.5 8.44994V22.8099C26.4987 23.7882 26.1095 24.726 25.4178 25.4177C24.726 26.1094 23.7882 26.4986 22.81 26.4999H12C11.8674 26.4999 11.7402 26.5526 11.6465 26.6464C11.5527 26.7402 11.5 26.8673 11.5 26.9999C11.5 27.1325 11.5527 27.2597 11.6465 27.3535C11.7402 27.4473 11.8674 27.4999 12 27.4999H22.81C24.0534 27.4984 25.2454 27.0037 26.1246 26.1245C27.0038 25.2453 27.4984 24.0533 27.5 22.8099V8.44994C28.331 8.33104 29.0915 7.917 29.6424 7.28351C30.1932 6.65003 30.4977 5.83943 30.5 4.99994ZM27 7.49994C26.337 7.49994 25.7011 7.23655 25.2322 6.76771C24.7634 6.29887 24.5 5.66298 24.5 4.99994C24.5 4.3369 24.7634 3.70101 25.2322 3.23217C25.7011 2.76333 26.337 2.49994 27 2.49994C27.663 2.49994 28.2989 2.76333 28.7678 3.23217C29.2366 3.70101 29.5 4.3369 29.5 4.99994C29.5 5.66298 29.2366 6.29887 28.7678 6.76771C28.2989 7.23655 27.663 7.49994 27 7.49994Z M13 19.5C12.8674 19.5 12.7402 19.5527 12.6464 19.6464C12.5527 19.7402 12.5 19.8674 12.5 20C12.5 20.1326 12.5527 20.2598 12.6464 20.3536C12.7402 20.4473 12.8674 20.5 13 20.5H19C19.1326 20.5 19.2598 20.4473 19.3536 20.3536C19.4473 20.2598 19.5 20.1326 19.5 20C19.5 19.8674 19.4473 19.7402 19.3536 19.6464C19.2598 19.5527 19.1326 19.5 19 19.5H13Z"/></svg>