<svg xmlns="http://www.w3.org/2000/svg" width="32" height="32" viewBox="0 0 32 32"><path d="M15.1881 14.7499H16.8621C17.0356 15.5301 17.4897 16.2193 18.138 16.6867C18.7863 17.1541 19.5837 17.367 20.3787 17.285C21.1738 17.2031 21.911 16.8319 22.4503 16.2421C22.9896 15.6522 23.2934 14.8849 23.3041 14.0857C23.3147 13.2865 23.0315 12.5113 22.5081 11.9073C21.9847 11.3033 21.2576 10.9126 20.4651 10.8095C19.6725 10.7064 18.8697 10.8979 18.2092 11.3479C17.5486 11.7978 17.0764 12.4747 16.8821 13.2499H15.1721C14.9801 12.4788 14.5116 11.805 13.8555 11.3565C13.1995 10.9079 12.4016 10.7159 11.6133 10.8169C10.825 10.9178 10.1013 11.3047 9.5794 11.904C9.05755 12.5034 8.77393 13.2735 8.78241 14.0682C8.79089 14.8628 9.09086 15.6267 9.62538 16.2148C10.1599 16.8029 10.8918 17.1743 11.682 17.2584C12.4723 17.3425 13.2659 17.1335 13.9122 16.6711C14.5585 16.2087 15.0126 15.525 15.1881 14.7499ZM20.0261 12.2819C20.2594 12.2764 20.4914 12.3175 20.7086 12.4029C20.9257 12.4883 21.1236 12.6163 21.2905 12.7793C21.4575 12.9423 21.5901 13.1371 21.6807 13.3521C21.7713 13.5671 21.8179 13.7981 21.8179 14.0314C21.8179 14.2648 21.7713 14.4957 21.6807 14.7108C21.5901 14.9258 21.4575 15.1206 21.2905 15.2836C21.1236 15.4466 20.9257 15.5746 20.7086 15.66C20.4914 15.7454 20.2594 15.7865 20.0261 15.7809C19.562 15.7809 19.1169 15.5966 18.7887 15.2684C18.4605 14.9402 18.2761 14.4951 18.2761 14.0309C18.2761 13.5668 18.4605 13.1217 18.7887 12.7935C19.1169 12.4653 19.562 12.2809 20.0261 12.2809V12.2819ZM10.2761 14.0249C10.2705 13.7917 10.3117 13.5596 10.3971 13.3425C10.4825 13.1254 10.6105 12.9275 10.7735 12.7605C10.9365 12.5936 11.1312 12.4609 11.3463 12.3703C11.5613 12.2798 11.7923 12.2331 12.0256 12.2331C12.259 12.2331 12.4899 12.2798 12.705 12.3703C12.92 12.4609 13.1147 12.5936 13.2778 12.7605C13.4408 12.9275 13.5687 13.1254 13.6542 13.3425C13.7396 13.5596 13.7807 13.7917 13.7751 14.0249C13.7751 14.4891 13.5907 14.9342 13.2626 15.2624C12.9344 15.5906 12.4892 15.7749 12.0251 15.7749C11.561 15.7749 11.1159 15.5906 10.7877 15.2624C10.4595 14.9342 10.2751 14.4891 10.2751 14.0249H10.2761Z M5.75001 23.326V9.19299C5.75133 8.28105 6.11418 7.40685 6.75902 6.76201C7.40386 6.11717 8.27807 5.75432 9.19001 5.75299H20C20.1989 5.75299 20.3897 5.67397 20.5303 5.53332C20.671 5.39267 20.75 5.2019 20.75 5.00299C20.75 4.80408 20.671 4.61331 20.5303 4.47266C20.3897 4.33201 20.1989 4.25299 20 4.25299H9.19001C7.88033 4.25458 6.62474 4.77555 5.69865 5.70164C4.77257 6.62772 4.2516 7.88331 4.25001 9.19299V23.326C3.33948 23.5119 2.53039 24.0292 1.97961 24.7777C1.42883 25.5262 1.17559 26.4525 1.269 27.3771C1.3624 28.3017 1.79579 29.1587 2.48514 29.7819C3.1745 30.4052 4.0707 30.7502 5.00001 30.7502C5.92932 30.7502 6.82552 30.4052 7.51487 29.7819C8.20423 29.1587 8.63762 28.3017 8.73102 27.3771C8.82442 26.4525 8.57119 25.5262 8.02041 24.7777C7.46963 24.0292 6.66054 23.5119 5.75001 23.326ZM5.00001 29.25C4.40327 29.25 3.83097 29.0129 3.40902 28.591C2.98706 28.169 2.75001 27.5967 2.75001 27C2.75001 26.4033 2.98706 25.831 3.40902 25.409C3.83097 24.987 4.40327 24.75 5.00001 24.75C5.59675 24.75 6.16904 24.987 6.591 25.409C7.01296 25.831 7.25001 26.4033 7.25001 27C7.25001 27.5967 7.01296 28.169 6.591 28.591C6.16904 29.0129 5.59675 29.25 5.00001 29.25ZM30.75 4.99999C30.7501 4.29043 30.5488 3.59541 30.1696 2.99567C29.7904 2.39594 29.2488 1.91609 28.6077 1.61188C27.9667 1.30767 27.2525 1.19158 26.5481 1.27709C25.8437 1.36259 25.178 1.6462 24.6284 2.09495C24.0787 2.5437 23.6677 3.13918 23.443 3.81223C23.2183 4.48527 23.1892 5.20826 23.359 5.89721C23.5288 6.58615 23.8906 7.21278 24.4023 7.70431C24.9141 8.19583 25.5548 8.53208 26.25 8.67399V22.81C26.2487 23.7219 25.8858 24.5961 25.241 25.241C24.5962 25.8858 23.7219 26.2487 22.81 26.25H12C11.8011 26.25 11.6103 26.329 11.4697 26.4697C11.329 26.6103 11.25 26.8011 11.25 27C11.25 27.1989 11.329 27.3897 11.4697 27.5303C11.6103 27.671 11.8011 27.75 12 27.75H22.81C24.1197 27.7484 25.3753 27.2274 26.3014 26.3013C27.2274 25.3753 27.7484 24.1197 27.75 22.81V8.67399C28.5963 8.50009 29.3568 8.03971 29.9033 7.37046C30.4498 6.70121 30.7488 5.86401 30.75 4.99999ZM27 7.24999C26.7045 7.24999 26.412 7.19179 26.139 7.07872C25.866 6.96565 25.6179 6.79991 25.409 6.59098C25.2001 6.38205 25.0344 6.13401 24.9213 5.86103C24.8082 5.58805 24.75 5.29547 24.75 4.99999C24.75 4.70452 24.8082 4.41194 24.9213 4.13895C25.0344 3.86597 25.2001 3.61793 25.409 3.409C25.6179 3.20007 25.866 3.03434 26.139 2.92126C26.412 2.80819 26.7045 2.74999 27 2.74999C27.5967 2.74999 28.169 2.98705 28.591 3.409C29.013 3.83096 29.25 4.40326 29.25 4.99999C29.25 5.59673 29.013 6.16903 28.591 6.59098C28.169 7.01294 27.5967 7.24999 27 7.24999Z M13 19.25C12.8011 19.25 12.6103 19.329 12.4697 19.4697C12.329 19.6103 12.25 19.8011 12.25 20C12.25 20.1989 12.329 20.3897 12.4697 20.5303C12.6103 20.671 12.8011 20.75 13 20.75H19C19.1989 20.75 19.3897 20.671 19.5303 20.5303C19.671 20.3897 19.75 20.1989 19.75 20C19.75 19.8011 19.671 19.6103 19.5303 19.4697C19.3897 19.329 19.1989 19.25 19 19.25H13Z"/></svg>