<svg xmlns="http://www.w3.org/2000/svg" width="32" height="32" viewBox="0 0 32 32"><path d="M20 15.998C20.3978 15.998 20.7794 15.84 21.0607 15.5587C21.342 15.2774 21.5 14.8959 21.5 14.498C21.5 14.1002 21.342 13.7187 21.0607 13.4374C20.7794 13.1561 20.3978 12.998 20 12.998C19.6022 12.998 19.2206 13.1561 18.9393 13.4374C18.658 13.7187 18.5 14.1002 18.5 14.498C18.5 14.8959 18.658 15.2774 18.9393 15.5587C19.2206 15.84 19.6022 15.998 20 15.998ZM12 15.998C12.3978 15.998 12.7794 15.84 13.0607 15.5587C13.342 15.2774 13.5 14.8959 13.5 14.498C13.5 14.1002 13.342 13.7187 13.0607 13.4374C12.7794 13.1561 12.3978 12.998 12 12.998C11.6022 12.998 11.2206 13.1561 10.9393 13.4374C10.658 13.7187 10.5 14.1002 10.5 14.498C10.5 14.8959 10.658 15.2774 10.9393 15.5587C11.2206 15.84 11.6022 15.998 12 15.998ZM13 20.993H19C19.2632 20.993 19.5157 20.8885 19.7018 20.7023C19.8879 20.5162 19.9925 20.2638 19.9925 20.0005C19.9925 19.7373 19.8879 19.4849 19.7018 19.2987C19.5157 19.1126 19.2632 19.008 19 19.008H13C12.7368 19.008 12.4843 19.1126 12.2982 19.2987C12.1121 19.4849 12.0075 19.7373 12.0075 20.0005C12.0075 20.2638 12.1121 20.5162 12.2982 20.7023C12.4843 20.8885 12.7368 20.993 13 20.993Z M30.9929 14.0001C30.9956 13.2524 30.7883 12.519 30.3947 11.8833C30.0011 11.2476 29.4369 10.7353 28.7664 10.4045C28.0958 10.0737 27.3459 9.93787 26.602 10.0124C25.858 10.0869 25.1499 10.3688 24.5583 10.826C23.9667 11.2831 23.5153 11.8972 23.2556 12.5983C22.9958 13.2994 22.9382 14.0594 23.0891 14.7917C23.2401 15.5239 23.5936 16.1991 24.1094 16.7404C24.6252 17.2816 25.2827 17.6671 26.0069 17.8531V23.8101C26.0058 24.6577 25.6687 25.4704 25.0694 26.0699C24.4701 26.6693 23.6575 27.0067 22.8099 27.0081H9.18986C8.3422 27.0067 7.52964 26.6693 6.93035 26.0699C6.33105 25.4704 5.99392 24.6577 5.99286 23.8101V10.1931C5.99392 9.34539 6.33105 8.53273 6.93035 7.93325C7.52964 7.33377 8.3422 6.99638 9.18986 6.99505L16.1459 6.99305C16.3875 7.93465 16.9645 8.75569 17.7685 9.30214C18.5725 9.84859 19.5483 10.0829 20.5127 9.96109C21.4772 9.83929 22.364 9.36975 23.0069 8.64056C23.6498 7.91138 24.0045 6.97267 24.0045 6.00055C24.0045 5.02844 23.6498 4.08973 23.0069 3.36055C22.364 2.63136 21.4772 2.16182 20.5127 2.04002C19.5483 1.91821 18.5725 2.15251 17.7685 2.69897C16.9645 3.24542 16.3875 4.06646 16.1459 5.00805L9.18986 5.01005C7.81556 5.01138 6.49791 5.55784 5.52603 6.52952C4.55416 7.50121 4.00745 8.81875 4.00586 10.1931V23.8101C4.00745 25.1844 4.55416 26.5019 5.52603 27.4736C6.49791 28.4453 7.81556 28.9917 9.18986 28.9931H22.8099C24.184 28.9915 25.5014 28.4449 26.473 27.4732C27.4447 26.5016 27.9913 25.1842 27.9929 23.8101V17.8531C28.849 17.6338 29.6082 17.1364 30.1511 16.4391C30.6941 15.7417 30.9901 14.8839 30.9929 14.0001ZM19.9999 3.99305C20.2634 3.99305 20.5244 4.04497 20.7679 4.14583C21.0114 4.24669 21.2327 4.39452 21.419 4.58089C21.6054 4.76726 21.7532 4.98851 21.8541 5.23201C21.9549 5.47551 22.0069 5.73649 22.0069 6.00005C22.0069 6.26362 21.9549 6.5246 21.8541 6.7681C21.7532 7.0116 21.6054 7.23285 21.419 7.41922C21.2327 7.60559 21.0114 7.75342 20.7679 7.85428C20.5244 7.95514 20.2634 8.00705 19.9999 8.00705C19.4676 8.00705 18.9571 7.7956 18.5807 7.41922C18.2043 7.04283 17.9929 6.53234 17.9929 6.00005C17.9929 5.46777 18.2043 4.95728 18.5807 4.58089C18.9571 4.20451 19.4676 3.99305 19.9999 3.99305ZM26.9999 16.0071C26.4676 16.0071 25.9571 15.7956 25.5807 15.4192C25.2043 15.0428 24.9929 14.5323 24.9929 14.0001C24.9929 13.4678 25.2043 12.9573 25.5807 12.5809C25.9571 12.2045 26.4676 11.9931 26.9999 11.9931C27.5321 11.9931 28.0426 12.2045 28.419 12.5809C28.7954 12.9573 29.0069 13.4678 29.0069 14.0001C29.0069 14.5323 28.7954 15.0428 28.419 15.4192C28.0426 15.7956 27.5321 16.0071 26.9999 16.0071Z"/></svg>