<svg xmlns="http://www.w3.org/2000/svg" width="32" height="32" viewBox="0 0 32 32"><path d="M20 15.998C20.3978 15.998 20.7794 15.84 21.0607 15.5587C21.342 15.2774 21.5 14.8959 21.5 14.498C21.5 14.1002 21.342 13.7187 21.0607 13.4374C20.7794 13.1561 20.3978 12.998 20 12.998C19.6022 12.998 19.2206 13.1561 18.9393 13.4374C18.658 13.7187 18.5 14.1002 18.5 14.498C18.5 14.8959 18.658 15.2774 18.9393 15.5587C19.2206 15.84 19.6022 15.998 20 15.998ZM12 15.998C12.3978 15.998 12.7794 15.84 13.0607 15.5587C13.342 15.2774 13.5 14.8959 13.5 14.498C13.5 14.1002 13.342 13.7187 13.0607 13.4374C12.7794 13.1561 12.3978 12.998 12 12.998C11.6022 12.998 11.2206 13.1561 10.9393 13.4374C10.658 13.7187 10.5 14.1002 10.5 14.498C10.5 14.8959 10.658 15.2774 10.9393 15.5587C11.2206 15.84 11.6022 15.998 12 15.998ZM13 20.993H19C19.2634 20.993 19.5159 20.8884 19.7022 20.7022C19.8884 20.516 19.993 20.2634 19.993 20C19.993 19.7367 19.8884 19.4841 19.7022 19.2979C19.5159 19.1117 19.2634 19.007 19 19.007H13C12.7366 19.007 12.4841 19.1117 12.2978 19.2979C12.1116 19.4841 12.007 19.7367 12.007 20C12.007 20.2634 12.1116 20.516 12.2978 20.7022C12.4841 20.8884 12.7366 20.993 13 20.993Z M30.9929 14.0001C30.9956 13.2524 30.7883 12.519 30.3947 11.8833C30.0011 11.2477 29.4369 10.7353 28.7664 10.4045C28.0958 10.0738 27.3459 9.93791 26.602 10.0124C25.858 10.0869 25.1499 10.3688 24.5583 10.826C23.9667 11.2832 23.5153 11.8973 23.2556 12.5984C22.9958 13.2995 22.9382 14.0594 23.0891 14.7917C23.2401 15.524 23.5936 16.1992 24.1094 16.7404C24.6252 17.2816 25.2827 17.6672 26.0069 17.8531V23.8101C26.0058 24.6577 25.6686 25.4702 25.0693 26.0695C24.47 26.6689 23.6574 27.006 22.8099 27.0071H9.18986C8.34237 27.0058 7.52997 26.6685 6.9307 26.0693C6.33143 25.47 5.99418 24.6576 5.99286 23.8101V10.1931C5.99392 9.34543 6.33105 8.53277 6.93035 7.93328C7.52964 7.3338 8.3422 6.99641 9.18986 6.99509L16.1469 6.99309C16.3887 7.93488 16.9658 8.75608 17.77 9.30261C18.5742 9.84915 19.5502 10.0835 20.5149 9.96161C21.4795 9.83974 22.3666 9.37007 23.0096 8.64071C23.6526 7.91135 24.0074 6.97243 24.0074 6.00009C24.0074 5.02775 23.6526 4.08883 23.0096 3.35947C22.3666 2.63011 21.4795 2.16044 20.5149 2.03857C19.5502 1.91671 18.5742 2.15103 17.77 2.69757C16.9658 3.2441 16.3887 4.0653 16.1469 5.00709L9.18986 5.01009C7.81564 5.01168 6.49814 5.55822 5.52632 6.52985C4.55451 7.50148 4.00771 8.81887 4.00586 10.1931V23.8101C4.00745 25.1844 4.55416 26.5019 5.52603 27.4736C6.49791 28.4453 7.81556 28.9918 9.18986 28.9931H22.8099C24.184 28.9915 25.5014 28.4449 26.473 27.4733C27.4447 26.5016 27.9913 25.1842 27.9929 23.8101V17.8531C28.8491 17.634 29.6083 17.1367 30.1513 16.4393C30.6943 15.7419 30.9903 14.8839 30.9929 14.0001ZM19.9999 3.99309C20.2634 3.99309 20.5244 4.045 20.7679 4.14586C21.0114 4.24673 21.2327 4.39456 21.419 4.58093C21.6054 4.76729 21.7532 4.98854 21.8541 5.23204C21.9549 5.47554 22.0069 5.73653 22.0069 6.00009C22.0069 6.26365 21.9549 6.52463 21.8541 6.76814C21.7532 7.01164 21.6054 7.23289 21.419 7.41925C21.2327 7.60562 21.0114 7.75345 20.7679 7.85432C20.5244 7.95518 20.2634 8.00709 19.9999 8.00709C19.4676 8.00709 18.9571 7.79564 18.5807 7.41925C18.2043 7.04287 17.9929 6.53238 17.9929 6.00009C17.9929 5.4678 18.2043 4.95731 18.5807 4.58093C18.9571 4.20454 19.4676 3.99309 19.9999 3.99309ZM26.9999 16.0071C26.7325 16.0131 26.4666 15.9655 26.2178 15.8673C25.969 15.7691 25.7423 15.6222 25.5511 15.4352C25.3599 15.2482 25.2079 15.0249 25.1042 14.7784C25.0005 14.5318 24.9471 14.2671 24.9471 13.9996C24.9471 13.7321 25.0005 13.4674 25.1042 13.2208C25.2079 12.9743 25.3599 12.751 25.5511 12.564C25.7423 12.377 25.969 12.23 26.2178 12.1318C26.4666 12.0336 26.7325 11.9861 26.9999 11.9921C27.5245 12.0038 28.0238 12.2204 28.3907 12.5957C28.7576 12.9709 28.9631 13.4748 28.9631 13.9996C28.9631 14.5244 28.7576 15.0283 28.3907 15.4035C28.0238 15.7787 27.5245 15.9954 26.9999 16.0071Z"/></svg>