<svg xmlns="http://www.w3.org/2000/svg" width="32" height="32" viewBox="0 0 32 32"><path d="M20 15.498C20.2652 15.498 20.5196 15.3927 20.7071 15.2052C20.8946 15.0176 21 14.7633 21 14.498C21 14.2328 20.8946 13.9785 20.7071 13.7909C20.5196 13.6034 20.2652 13.498 20 13.498C19.7348 13.498 19.4804 13.6034 19.2929 13.7909C19.1054 13.9785 19 14.2328 19 14.498C19 14.7633 19.1054 15.0176 19.2929 15.2052C19.4804 15.3927 19.7348 15.498 20 15.498ZM12 15.498C12.2652 15.498 12.5196 15.3927 12.7071 15.2052C12.8946 15.0176 13 14.7633 13 14.498C13 14.2328 12.8946 13.9785 12.7071 13.7909C12.5196 13.6034 12.2652 13.498 12 13.498C11.7348 13.498 11.4804 13.6034 11.2929 13.7909C11.1054 13.9785 11 14.2328 11 14.498C11 14.7633 11.1054 15.0176 11.2929 15.2052C11.4804 15.3927 11.7348 15.498 12 15.498ZM13 20.5H19C19.1326 20.5 19.2598 20.4474 19.3536 20.3536C19.4473 20.2598 19.5 20.1327 19.5 20C19.5 19.8674 19.4473 19.7403 19.3536 19.6465C19.2598 19.5527 19.1326 19.5 19 19.5H13C12.8674 19.5 12.7402 19.5527 12.6464 19.6465C12.5527 19.7403 12.5 19.8674 12.5 20C12.5 20.1327 12.5527 20.2598 12.6464 20.3536C12.7402 20.4474 12.8674 20.5 13 20.5Z M30.5 14C30.5027 13.3285 30.3122 12.6704 29.9512 12.1042C29.5902 11.538 29.0739 11.0877 28.464 10.8068C27.8541 10.5259 27.1763 10.4264 26.5114 10.5202C25.8465 10.6139 25.2226 10.897 24.7141 11.3355C24.2056 11.7741 23.834 12.3497 23.6436 12.9936C23.4533 13.6375 23.4521 14.3226 23.6404 14.9672C23.8287 15.6117 24.1984 16.1885 24.7054 16.6287C25.2124 17.069 25.8354 17.3541 26.5 17.45V23.81C26.4987 24.7882 26.1095 25.726 25.4178 26.4177C24.726 27.1095 23.7882 27.4987 22.81 27.5H9.19C8.21176 27.4987 7.27396 27.1095 6.58224 26.4177C5.89051 25.726 5.50132 24.7882 5.5 23.81V10.193C5.50132 9.21474 5.89051 8.27694 6.58224 7.58522C7.27396 6.8935 8.21176 6.5043 9.19 6.50298L16.55 6.50098C16.6764 7.37678 17.1299 8.17218 17.8191 8.72713C18.5083 9.28208 19.3821 9.55536 20.2647 9.492C21.1473 9.42863 21.9732 9.03331 22.5761 8.38559C23.1789 7.73788 23.5141 6.88585 23.5141 6.00098C23.5141 5.11611 23.1789 4.26408 22.5761 3.61637C21.9732 2.96866 21.1473 2.57334 20.2647 2.50997C19.3821 2.4466 18.5083 2.71989 17.8191 3.27483C17.1299 3.82978 16.6764 4.62519 16.55 5.50098L9.19 5.50298C7.94662 5.50457 6.75462 5.9992 5.87542 6.87841C4.99622 7.75761 4.50159 8.9496 4.5 10.193V23.81C4.50159 25.0534 4.99622 26.2454 5.87542 27.1246C6.75462 28.0038 7.94662 28.4984 9.19 28.5H22.81C24.0534 28.4984 25.2454 28.0038 26.1246 27.1246C27.0038 26.2454 27.4984 25.0534 27.5 23.81V17.45C28.331 17.3311 29.0915 16.917 29.6424 16.2836C30.1932 15.6501 30.4977 14.8395 30.5 14ZM20 3.49998C20.663 3.49998 21.2989 3.76337 21.7678 4.23222C22.2366 4.70106 22.5 5.33694 22.5 5.99998C22.5 6.66302 22.2366 7.29891 21.7678 7.76775C21.2989 8.23659 20.663 8.49998 20 8.49998C19.337 8.49998 18.7011 8.23659 18.2322 7.76775C17.7634 7.29891 17.5 6.66302 17.5 5.99998C17.5 5.33694 17.7634 4.70106 18.2322 4.23222C18.7011 3.76337 19.337 3.49998 20 3.49998ZM27 16.5C26.337 16.5 25.7011 16.2366 25.2322 15.7677C24.7634 15.2989 24.5 14.663 24.5 14C24.5 13.3369 24.7634 12.7011 25.2322 12.2322C25.7011 11.7634 26.337 11.5 27 11.5C27.663 11.5 28.2989 11.7634 28.7678 12.2322C29.2366 12.7011 29.5 13.3369 29.5 14C29.5 14.663 29.2366 15.2989 28.7678 15.7677C28.2989 16.2366 27.663 16.5 27 16.5Z"/></svg>