<svg width="32" height="32" viewBox="0 0 32 32" fill="none" xmlns="http://www.w3.org/2000/svg">
<path d="M28.3734 7.6841C28.3523 7.65699 28.3293 7.63137 28.3046 7.60744C28.1363 7.40506 27.9235 7.24441 27.6827 7.13808L16.6954 2.38608C16.4805 2.29646 16.2499 2.25049 16.017 2.25082C15.7841 2.25116 15.5537 2.2978 15.339 2.38803L4.32923 7.13417C4.08586 7.24073 3.87038 7.40205 3.69958 7.60555C3.67301 7.63089 3.64836 7.65819 3.62585 7.68721C3.38554 7.98977 3.25328 8.364 3.25012 8.75038V23.4174C3.24949 23.7629 3.35142 24.1008 3.543 24.3884C3.73458 24.6759 4.00719 24.9001 4.32629 25.0326L15.3068 29.6156C15.7376 29.794 16.2216 29.794 16.6525 29.6156L27.672 25.0316C27.9916 24.8996 28.2647 24.6755 28.4566 24.3879C28.6486 24.1003 28.7508 23.7622 28.7501 23.4164V8.74941C28.7468 8.36224 28.6142 7.98728 28.3734 7.6841ZM16.0753 12.2308C16.0137 12.2562 15.9445 12.2562 15.8829 12.2308L11.8937 10.5656L21.704 6.18672L26.0687 8.07436L16.0753 12.2308ZM15.924 3.76894C15.9549 3.75592 15.9881 3.74928 16.0216 3.74941C16.0507 3.74944 16.0796 3.75507 16.1066 3.76601L19.8356 5.37868L9.99279 9.77205L5.93179 8.07686L15.924 3.76894ZM4.75012 23.4174V9.20967L15.2501 13.5924V27.9664L4.90344 23.6478C4.85798 23.6289 4.81915 23.5969 4.79186 23.5558C4.76457 23.5148 4.75005 23.4666 4.75012 23.4174ZM27.0958 23.6469L16.7501 27.9506V13.5746L27.2501 9.20741V23.4164C27.2501 23.4658 27.2354 23.514 27.2079 23.555C27.1805 23.5961 27.1414 23.628 27.0958 23.6469Z" fill="black"/>
</svg>
