<svg xmlns="http://www.w3.org/2000/svg" width="32" height="32" viewBox="0 0 32 32"><path d="M27.583 7.36793L16.6 2.61693C16.4164 2.53912 16.219 2.49902 16.0195 2.49902C15.8201 2.49902 15.6226 2.53912 15.439 2.61693L4.425 7.36693C4.15107 7.47976 3.91687 7.67149 3.75216 7.91774C3.58746 8.164 3.49969 8.45367 3.5 8.74993V23.4169C3.49933 23.7131 3.58671 24.0028 3.75106 24.2493C3.9154 24.4957 4.14929 24.6877 4.423 24.8009L15.403 29.3849C15.773 29.5369 16.187 29.5369 16.557 29.3849L27.577 24.8009C27.8507 24.6874 28.0846 24.4952 28.2489 24.2486C28.4132 24.0021 28.5006 23.7122 28.5 23.4159V8.74993C28.5007 8.45489 28.414 8.16625 28.2508 7.92046C28.0876 7.67468 27.8552 7.48275 27.583 7.36893V7.36793ZM16.171 12.4599C16.0478 12.5111 15.9094 12.5114 15.786 12.4609L11.263 10.5729L21.703 5.91293L26.708 8.07793L16.17 12.4599H16.171ZM15.828 3.53693C15.9489 3.4866 16.0848 3.48624 16.206 3.53593L20.456 5.37393L9.994 10.0439L5.291 8.07993L15.828 3.53693ZM4.808 23.8769C4.71691 23.8393 4.63902 23.7756 4.5842 23.6937C4.52937 23.6118 4.50007 23.5155 4.5 23.4169V8.83293L15.402 13.3839C15.434 13.3969 15.467 13.4029 15.5 13.4139V28.3409L4.808 23.8779V23.8769ZM27.192 23.8769L16.5 28.3239V13.4019C16.518 13.3949 16.538 13.3919 16.556 13.3849L27.5 8.83293V23.4159C27.5 23.5146 27.4707 23.6111 27.4159 23.6931C27.3611 23.7752 27.2832 23.8392 27.192 23.8769Z"/></svg>