<svg xmlns="http://www.w3.org/2000/svg" width="32" height="32" viewBox="0 0 32 32"><path d="M28.373 7.68415C28.3522 7.65693 28.3294 7.6312 28.305 7.60715C28.1367 7.40488 27.9238 7.24436 27.683 7.13815L16.695 2.38615C16.4801 2.29658 16.2496 2.25064 16.0168 2.25098C15.784 2.25132 15.5536 2.29795 15.339 2.38815L4.329 7.13415C4.08545 7.24085 3.86984 7.40239 3.699 7.60615C3.6727 7.63131 3.6483 7.65838 3.626 7.68715C3.386 7.99015 3.253 8.36415 3.25 8.75015V23.4171C3.24928 23.7628 3.35114 24.1008 3.54269 24.3885C3.73423 24.6762 4.00685 24.9005 4.326 25.0331L15.306 29.6161C15.738 29.7941 16.222 29.7941 16.653 29.6161L27.672 25.0321C27.9918 24.9002 28.265 24.676 28.457 24.3882C28.649 24.1005 28.751 23.7621 28.75 23.4161V8.75015C28.7465 8.36306 28.6138 7.98822 28.373 7.68515V7.68415ZM16.075 12.2311C16.0135 12.2565 15.9445 12.2565 15.883 12.2311L11.893 10.5661L21.704 6.18615L26.069 8.07415L16.075 12.2311ZM15.924 3.76915C15.9824 3.74495 16.0478 3.74388 16.107 3.76615L19.836 5.37915L9.993 9.77215L5.932 8.07715L15.924 3.76915ZM4.75 23.4171V9.21015L15.25 13.5921V27.9661L4.903 23.6481C4.85757 23.6293 4.81876 23.5974 4.79152 23.5564C4.76427 23.5155 4.74982 23.4673 4.75 23.4181V23.4171ZM27.096 23.6471L16.75 27.9501V13.5751L27.25 9.20715V23.4171C27.25 23.4664 27.2353 23.5146 27.2079 23.5555C27.1805 23.5965 27.1415 23.6283 27.096 23.6471Z"/></svg>