<svg xmlns="http://www.w3.org/2000/svg" width="32" height="32" viewBox="0 0 32 32"><path d="M10.9987 4.49969H4.99872C4.33587 4.5003 3.70034 4.76389 3.23163 5.2326C2.76292 5.70131 2.49933 6.33683 2.49872 6.99969V12.9997C2.49933 13.6625 2.76292 14.2981 3.23163 14.7668C3.70034 15.2355 4.33587 15.4991 4.99872 15.4997H10.9987C11.6616 15.4991 12.2971 15.2355 12.7658 14.7668C13.2345 14.2981 13.4981 13.6625 13.4987 12.9997V6.99969C13.4981 6.33684 13.2345 5.70131 12.7658 5.2326C12.2971 4.76389 11.6616 4.5003 10.9987 4.49969Z M10.9987 18.5007H4.99872C4.33587 18.5013 3.70034 18.7649 3.23163 19.2336C2.76292 19.7023 2.49933 20.3378 2.49872 21.0007V27.0007C2.49933 27.6635 2.76292 28.2991 3.23163 28.7678C3.70034 29.2365 4.33587 29.5001 4.99872 29.5007H10.9987C11.6616 29.5001 12.2971 29.2365 12.7658 28.7678C13.2345 28.299 13.4981 27.6635 13.4987 27.0007V21.0007C13.4981 20.3378 13.2345 19.7023 12.7658 19.2336C12.2971 18.7649 11.6616 18.5013 10.9987 18.5007Z M26.9997 2.49969H18.9997C18.3368 2.5003 17.7013 2.76389 17.2326 3.2326C16.7639 3.70131 16.5003 4.33683 16.4997 4.99969V12.9997C16.5003 13.6625 16.7639 14.2981 17.2326 14.7668C17.7013 15.2355 18.3368 15.4991 18.9997 15.4997H26.9997C27.6625 15.4991 28.2981 15.2355 28.7668 14.7668C29.2355 14.2981 29.4991 13.6625 29.4997 12.9997V4.99969C29.4991 4.33683 29.2355 3.70131 28.7668 3.2326C28.2981 2.76389 27.6625 2.5003 26.9997 2.49969Z M24.9997 18.5007H18.9997C18.3368 18.5013 17.7013 18.7649 17.2326 19.2336C16.7639 19.7023 16.5003 20.3378 16.4997 21.0007V27.0007C16.5003 27.6635 16.7639 28.2991 17.2326 28.7678C17.7013 29.2365 18.3368 29.5001 18.9997 29.5007H24.9997C25.6625 29.5001 26.2981 29.2365 26.7668 28.7678C27.2355 28.299 27.4991 27.6635 27.4997 27.0007V21.0007C27.4991 20.3378 27.2355 19.7023 26.7668 19.2336C26.2981 18.7649 25.6625 18.5013 24.9997 18.5007Z"/></svg>