<svg xmlns="http://www.w3.org/2000/svg" width="32" height="32" viewBox="0 0 32 32"><path d="M29 15H26.95C26.7248 12.5416 25.6758 10.2314 23.973 8.44398L25.708 6.70698C25.8864 6.51738 25.9839 6.26574 25.9798 6.00545C25.9758 5.74516 25.8705 5.49669 25.6863 5.31275C25.5021 5.1288 25.2534 5.02385 24.9931 5.02016C24.7328 5.01647 24.4813 5.11433 24.292 5.29298L22.467 7.12098C20.8666 5.9471 18.9766 5.23147 17 5.05098V3.00098C17 2.73576 16.8946 2.48141 16.7071 2.29387C16.5196 2.10633 16.2652 2.00098 16 2.00098C15.7348 2.00098 15.4804 2.10633 15.2929 2.29387C15.1054 2.48141 15 2.73576 15 3.00098V5.05098C13.024 5.23098 11.133 5.94798 9.533 7.12198L7.708 5.29398C7.51966 5.11153 7.26719 5.01037 7.00498 5.01227C6.74277 5.01417 6.4918 5.11898 6.30612 5.30414C6.12045 5.48929 6.01492 5.73996 6.01228 6.00217C6.00964 6.26437 6.11009 6.51712 6.292 6.70598L8.027 8.44398C6.3245 10.2315 5.27581 12.5417 5.051 15H3C2.73478 15 2.48043 15.1053 2.29289 15.2929C2.10536 15.4804 2 15.7348 2 16C2 16.2652 2.10536 16.5195 2.29289 16.7071C2.48043 16.8946 2.73478 17 3 17H5.05C5.27589 19.4762 6.33736 21.8019 8.06 23.595L6.307 25.279C6.21225 25.3699 6.13634 25.4786 6.08361 25.5989C6.03087 25.7192 6.00234 25.8487 5.99965 25.98C5.99696 26.1113 6.02015 26.2418 6.06791 26.3642C6.11567 26.4865 6.18706 26.5982 6.278 26.693C6.46166 26.8843 6.71382 26.9949 6.97899 27.0003C7.1103 27.003 7.24084 26.9798 7.36318 26.9321C7.48552 26.8843 7.59725 26.8129 7.692 26.722L9.577 24.912C11.1683 26.067 13.0418 26.7711 15 26.95V29C15 29.2652 15.1054 29.5195 15.2929 29.7071C15.4804 29.8946 15.7348 30 16 30C16.2652 30 16.5196 29.8946 16.7071 29.7071C16.8946 29.5195 17 29.2652 17 29V26.95C18.968 26.77 20.85 26.06 22.446 24.895L24.3 26.715C24.3933 26.8091 24.5044 26.8837 24.6268 26.9345C24.7492 26.9854 24.8804 27.0113 25.013 27.011C25.1455 27.0106 25.2766 26.9839 25.3987 26.9324C25.5208 26.8809 25.6315 26.8057 25.7243 26.711C25.817 26.6164 25.8901 26.5043 25.9391 26.3812C25.9882 26.2581 26.0123 26.1264 26.0101 25.9939C26.0078 25.8614 25.9792 25.7307 25.926 25.6093C25.8728 25.488 25.7959 25.3784 25.7 25.287L23.957 23.575C25.6695 21.7848 26.7245 19.467 26.95 17H29C29.2652 17 29.5196 16.8946 29.7071 16.7071C29.8946 16.5195 30 16.2652 30 16C30 15.7348 29.8946 15.4804 29.7071 15.2929C29.5196 15.1053 29.2652 15 29 15ZM7 16C7.00324 13.7875 7.82041 11.6536 9.29576 10.0049C10.7711 8.35622 12.8015 7.30798 15 7.05998V24.94C12.8015 24.692 10.7711 23.6437 9.29576 21.995C7.82041 20.3463 7.00324 18.2124 7 16ZM17 24.941V7.05998C19.1988 7.30646 21.2297 8.35455 22.7046 10.004C24.1794 11.6533 24.9947 13.7884 24.9947 16.001C24.9947 18.2136 24.1794 20.3486 22.7046 21.998C21.2297 23.6474 19.1988 24.6955 17 24.942V24.941Z"/></svg>