<svg xmlns="http://www.w3.org/2000/svg" width="32" height="32" viewBox="0 0 32 32"><path d="M29 15.25H26.712C26.5362 12.6816 25.4414 10.2624 23.628 8.435L25.53 6.531C25.6037 6.46234 25.6628 6.37954 25.7038 6.28754C25.7448 6.19554 25.7668 6.09623 25.7686 5.99552C25.7704 5.89482 25.7518 5.79479 25.7141 5.7014C25.6764 5.60801 25.6203 5.52318 25.549 5.45196C25.4778 5.38074 25.393 5.3246 25.2996 5.28688C25.2062 5.24916 25.1062 5.23063 25.0055 5.23241C24.9048 5.23419 24.8055 5.25623 24.7135 5.29722C24.6215 5.33821 24.5387 5.39731 24.47 5.471L22.49 7.45C20.8294 6.18313 18.8337 5.43109 16.75 5.287V3C16.75 2.80109 16.671 2.61032 16.5303 2.46967C16.3897 2.32902 16.1989 2.25 16 2.25C15.8011 2.25 15.6103 2.32902 15.4697 2.46967C15.329 2.61032 15.25 2.80109 15.25 3V5.288C13.165 5.432 11.169 6.184 9.508 7.452L7.53 5.47C7.46134 5.39631 7.37854 5.33721 7.28654 5.29622C7.19454 5.25523 7.09523 5.23319 6.99452 5.23141C6.89382 5.22963 6.79379 5.24816 6.7004 5.28588C6.60701 5.3236 6.52218 5.37974 6.45096 5.45096C6.37974 5.52218 6.3236 5.60701 6.28588 5.7004C6.24816 5.79379 6.22963 5.89382 6.23141 5.99452C6.23319 6.09523 6.25523 6.19454 6.29622 6.28654C6.33721 6.37854 6.39631 6.46134 6.47 6.53L8.372 8.436C6.55876 10.2631 5.46399 12.6819 5.288 15.25H3C2.80109 15.25 2.61032 15.329 2.46967 15.4697C2.32902 15.6103 2.25 15.8011 2.25 16C2.25 16.1989 2.32902 16.3897 2.46967 16.5303C2.61032 16.671 2.80109 16.75 3 16.75H5.288C5.46478 19.338 6.57442 21.774 8.411 23.606L6.48 25.46C6.33652 25.5978 6.25365 25.7869 6.24961 25.9858C6.24558 26.1847 6.32072 26.377 6.4585 26.5205C6.59628 26.664 6.78541 26.7469 6.9843 26.7509C7.18318 26.7549 7.37552 26.6798 7.519 26.542L9.556 24.586C11.2075 25.8316 13.1853 26.5706 15.249 26.713V29C15.249 29.1989 15.328 29.3897 15.4687 29.5303C15.6093 29.671 15.8001 29.75 15.999 29.75C16.1979 29.75 16.3887 29.671 16.5293 29.5303C16.67 29.3897 16.749 29.1989 16.749 29V26.712C18.8237 26.5689 20.8114 25.8231 22.468 24.566L24.474 26.536C24.6174 26.6674 24.8062 26.738 25.0006 26.7329C25.1951 26.7277 25.3799 26.6473 25.5161 26.5084C25.6523 26.3696 25.7293 26.1833 25.7308 25.9888C25.7323 25.7943 25.6581 25.6069 25.524 25.466L23.609 23.585C25.4333 21.7552 26.5349 19.3278 26.711 16.75H29C29.1989 16.75 29.3897 16.671 29.5303 16.5303C29.671 16.3897 29.75 16.1989 29.75 16C29.75 15.8011 29.671 15.6103 29.5303 15.4697C29.3897 15.329 29.1989 15.25 29 15.25ZM6.75 16C6.75351 13.6784 7.62928 11.4428 9.20367 9.73651C10.7781 8.03024 12.9361 6.97785 15.25 6.788V25.212C12.9361 25.0221 10.7781 23.9698 9.20367 22.2635C7.62928 20.5572 6.75351 18.3216 6.75 16ZM16.75 25.212V6.788C19.0648 6.97497 21.2244 8.02654 22.799 9.7335C24.3736 11.4405 25.2479 13.6777 25.2479 16C25.2479 18.3223 24.3736 20.5595 22.799 22.2665C21.2244 23.9735 19.0648 25.025 16.75 25.212Z"/></svg>