<svg width="32" height="32" viewBox="0 0 32 32" fill="none" xmlns="http://www.w3.org/2000/svg">
<path d="M29.0002 15.5004H26.4749C26.3503 12.8234 25.2028 10.2964 23.2693 8.44081L25.3538 6.3539C25.4459 6.25982 25.4973 6.13316 25.4966 6.00145C25.496 5.86973 25.4433 5.74359 25.3502 5.65045C25.2571 5.55731 25.1309 5.50469 24.9992 5.50403C24.8675 5.50336 24.7408 5.55471 24.6468 5.6469L22.5151 7.781C20.7972 6.41552 18.6925 5.62636 16.5002 5.52569V3.00038C16.5002 2.86777 16.4476 2.74059 16.3538 2.64683C16.26 2.55306 16.1329 2.50038 16.0002 2.50038C15.8676 2.50038 15.7405 2.55306 15.6467 2.64683C15.5529 2.74059 15.5002 2.86777 15.5002 3.00038V5.52571C13.3078 5.62638 11.2029 6.41568 9.48486 7.78139L7.35375 5.64687C7.3075 5.59968 7.25236 5.56212 7.1915 5.53637C7.13064 5.51062 7.06529 5.49719 6.99921 5.49686C6.93313 5.49652 6.86764 5.50929 6.80653 5.53442C6.74541 5.55956 6.68989 5.59656 6.64317 5.64328C6.59644 5.69001 6.55944 5.74553 6.53431 5.80664C6.50917 5.86776 6.49641 5.93325 6.49674 5.99932C6.49707 6.0654 6.5105 6.13076 6.53625 6.19162C6.562 6.25247 6.59956 6.30762 6.64675 6.35387L8.73075 8.44115C6.79748 10.2967 5.65021 12.8236 5.52567 15.5003H3.00024C2.86764 15.5003 2.74046 15.553 2.64669 15.6468C2.55292 15.7406 2.50024 15.8677 2.50024 16.0004C2.50024 16.133 2.55292 16.2601 2.64669 16.3539C2.74046 16.4477 2.86764 16.5004 3.00024 16.5004H5.52563C5.65164 19.1984 6.81666 21.7431 8.77673 23.6014L6.65356 25.64C6.55799 25.7319 6.50286 25.8581 6.5003 25.9907C6.49773 26.1233 6.54795 26.2515 6.63989 26.347C6.73184 26.4426 6.85798 26.4977 6.99058 26.5003C7.12317 26.5029 7.25135 26.4526 7.34692 26.3607L9.53661 24.2582C11.2452 25.6 13.3301 26.375 15.5002 26.4751V29.0004C15.5002 29.133 15.5529 29.2602 15.6467 29.3539C15.7405 29.4477 15.8676 29.5004 16.0002 29.5004C16.1329 29.5004 16.26 29.4477 16.3538 29.3539C16.4476 29.2602 16.5002 29.133 16.5002 29.0004V26.4751C18.6821 26.3747 20.7774 25.5922 22.491 24.2378L24.6496 26.3568C24.7446 26.4479 24.8715 26.4979 25.0031 26.496C25.1346 26.4941 25.2601 26.4405 25.3524 26.3467C25.4446 26.2529 25.4962 26.1265 25.4959 25.995C25.4956 25.8634 25.4435 25.7373 25.3508 25.6439L23.2478 23.5795C25.1938 21.7226 26.3496 19.1873 26.4749 16.5004H29.0003C29.1329 16.5004 29.26 16.4477 29.3538 16.3539C29.4476 16.2601 29.5003 16.133 29.5003 16.0004C29.5003 15.8678 29.4476 15.7406 29.3538 15.6468C29.26 15.553 29.1329 15.5004 29.0002 15.5004ZM16.0002 25.5004C14.1213 25.5004 12.2846 24.9432 10.7223 23.8993C9.16006 22.8555 7.94242 21.3718 7.22339 19.6359C6.50436 17.9 6.31622 15.9898 6.68278 14.147C7.04934 12.3042 7.95413 10.6115 9.28273 9.28287C10.6113 7.95427 12.3041 7.04948 14.1469 6.68292C15.9897 6.31636 17.8998 6.50449 19.6357 7.22352C21.3716 7.94256 22.8553 9.1602 23.8992 10.7225C24.9431 12.2847 25.5002 14.1215 25.5002 16.0004C25.4974 18.5191 24.4956 20.9338 22.7146 22.7147C20.9336 24.4957 18.5189 25.4975 16.0002 25.5004Z" fill="black"/>
</svg>
