<svg xmlns="http://www.w3.org/2000/svg" width="32" height="32" viewBox="0 0 32 32"><path d="M29 15.5H26.475C26.3504 12.8228 25.2027 10.2957 23.269 8.44L25.354 6.354C25.4008 6.30758 25.438 6.25239 25.4635 6.19159C25.489 6.13078 25.5023 6.06555 25.5026 5.99962C25.5028 5.93369 25.4901 5.86835 25.4652 5.80733C25.4402 5.74631 25.4034 5.69081 25.357 5.644C25.3103 5.59733 25.2549 5.56037 25.1938 5.53524C25.1328 5.51011 25.0674 5.49732 25.0014 5.4976C24.9354 5.49788 24.8701 5.51122 24.8092 5.53687C24.7484 5.56251 24.6933 5.59994 24.647 5.647L22.515 7.78C20.7968 6.41496 18.6921 5.62625 16.5 5.526V3C16.5 2.86739 16.4473 2.74021 16.3536 2.64645C16.2598 2.55268 16.1326 2.5 16 2.5C15.8674 2.5 15.7402 2.55268 15.6464 2.64645C15.5527 2.74021 15.5 2.86739 15.5 3V5.526C13.308 5.626 11.203 6.416 9.485 7.781L7.354 5.647C7.30788 5.59924 7.2527 5.56115 7.1917 5.53495C7.1307 5.50874 7.06509 5.49495 6.9987 5.49437C6.93231 5.4938 6.86647 5.50645 6.80502 5.53159C6.74358 5.55673 6.68775 5.59386 6.6408 5.6408C6.59386 5.68775 6.55673 5.74358 6.53159 5.80502C6.50645 5.86647 6.4938 5.93231 6.49437 5.9987C6.49495 6.06509 6.50874 6.1307 6.53495 6.1917C6.56115 6.2527 6.59924 6.30788 6.647 6.354L8.73 8.44C6.79654 10.2958 5.64928 12.8229 5.525 15.5H3C2.86739 15.5 2.74021 15.5527 2.64645 15.6464C2.55268 15.7402 2.5 15.8674 2.5 16C2.5 16.1326 2.55268 16.2598 2.64645 16.3536C2.74021 16.4473 2.86739 16.5 3 16.5H5.526C5.65192 19.1975 6.81654 21.7418 8.776 23.6L6.655 25.64C6.6049 25.6848 6.56434 25.7392 6.53575 25.8001C6.50716 25.8609 6.49113 25.9268 6.48861 25.994C6.48609 26.0612 6.49714 26.1281 6.52109 26.1909C6.54504 26.2537 6.58141 26.3111 6.62802 26.3595C6.67462 26.4079 6.73051 26.4464 6.79235 26.4728C6.85418 26.4991 6.92069 26.5127 6.9879 26.5127C7.0551 26.5128 7.12163 26.4993 7.18351 26.473C7.24538 26.4468 7.30132 26.4084 7.348 26.36L9.538 24.258C11.2464 25.5997 13.331 26.3748 15.501 26.475V29C15.501 29.1326 15.5537 29.2598 15.6474 29.3536C15.7412 29.4473 15.8684 29.5 16.001 29.5C16.1336 29.5 16.2608 29.4473 16.3546 29.3536C16.4483 29.2598 16.501 29.1326 16.501 29V26.475C18.683 26.375 20.778 25.592 22.492 24.238L24.651 26.357C24.7467 26.4437 24.8722 26.4899 25.0013 26.4861C25.1303 26.4823 25.2529 26.4288 25.3434 26.3366C25.4338 26.2445 25.4851 26.121 25.4866 25.9919C25.488 25.8627 25.4394 25.7381 25.351 25.644L23.249 23.58C25.1952 21.7229 26.351 19.1872 26.476 16.5H29C29.1326 16.5 29.2598 16.4473 29.3536 16.3536C29.4473 16.2598 29.5 16.1326 29.5 16C29.5 15.8674 29.4473 15.7402 29.3536 15.6464C29.2598 15.5527 29.1326 15.5 29 15.5ZM6.5 16C6.50425 13.5695 7.43951 11.233 9.11348 9.47087C10.7875 7.70873 13.0729 6.65489 15.5 6.526V25.476C13.0726 25.3471 10.7868 24.293 9.11279 22.5304C7.43877 20.7678 6.50374 18.4308 6.5 16ZM16.5 25.475V6.525C18.9304 6.64736 21.2209 7.69901 22.8979 9.4625C24.5748 11.226 25.51 13.5665 25.51 16C25.51 18.4335 24.5748 20.774 22.8979 22.5375C21.2209 24.301 18.9304 25.3526 16.5 25.475Z"/></svg>