<svg xmlns="http://www.w3.org/2000/svg" width="32" height="32" viewBox="0 0 32 32"><path d="M29 15H26.95C26.7248 12.5416 25.6758 10.2314 23.973 8.44398L25.708 6.70698C25.8864 6.51738 25.9839 6.26574 25.9798 6.00545C25.9757 5.74516 25.8704 5.49669 25.6862 5.31275C25.502 5.1288 25.2534 5.02385 24.9931 5.02016C24.7328 5.01647 24.4813 5.11433 24.292 5.29298L22.467 7.12098C20.8666 5.9471 18.9765 5.23147 17 5.05098V3.00098C17 2.73576 16.8946 2.48141 16.7071 2.29387C16.5195 2.10633 16.2652 2.00098 16 2.00098C15.7348 2.00098 15.4804 2.10633 15.2929 2.29387C15.1053 2.48141 15 2.73576 15 3.00098V5.05098C13.024 5.23098 11.133 5.94798 9.53298 7.12198L7.70798 5.29398C7.51964 5.11153 7.26717 5.01037 7.00496 5.01227C6.74275 5.01417 6.49178 5.11898 6.3061 5.30414C6.12042 5.48929 6.0149 5.73996 6.01226 6.00217C6.00962 6.26437 6.11007 6.51712 6.29198 6.70598L8.02698 8.44398C6.32448 10.2315 5.27578 12.5417 5.05098 15H3.00098C2.73576 15 2.48141 15.1053 2.29387 15.2929C2.10633 15.4804 2.00098 15.7348 2.00098 16C2.00098 16.2652 2.10633 16.5195 2.29387 16.7071C2.48141 16.8946 2.73576 17 3.00098 17H5.05098C5.27687 19.4762 6.33834 21.8019 8.06098 23.595L6.30798 25.279C6.21323 25.3699 6.13732 25.4786 6.08458 25.5989C6.03185 25.7192 6.00332 25.8487 6.00063 25.98C5.99793 26.1113 6.02113 26.2418 6.06889 26.3642C6.11665 26.4865 6.18804 26.5982 6.27898 26.693C6.46264 26.8843 6.71479 26.9949 6.97997 27.0003C7.11127 27.003 7.24182 26.9798 7.36416 26.9321C7.48649 26.8843 7.59823 26.8129 7.69298 26.722L9.57798 24.912C11.169 26.0669 13.0422 26.771 15 26.95V29C15 29.2652 15.1053 29.5195 15.2929 29.7071C15.4804 29.8946 15.7348 30 16 30C16.2652 30 16.5195 29.8946 16.7071 29.7071C16.8946 29.5195 17 29.2652 17 29V26.95C18.968 26.77 20.85 26.06 22.446 24.895L24.3 26.715C24.3933 26.8091 24.5043 26.8837 24.6267 26.9345C24.7491 26.9854 24.8804 27.0113 25.0129 27.011C25.1455 27.0106 25.2766 26.9839 25.3987 26.9324C25.5208 26.8809 25.6315 26.8057 25.7242 26.711C25.817 26.6164 25.8901 26.5043 25.9391 26.3812C25.9882 26.2581 26.0123 26.1264 26.01 25.9939C26.0078 25.8614 25.9792 25.7307 25.926 25.6093C25.8727 25.488 25.7959 25.3784 25.7 25.287L23.957 23.575C25.6691 21.7847 26.7238 19.4669 26.949 17H29C29.2652 17 29.5195 16.8946 29.7071 16.7071C29.8946 16.5195 30 16.2652 30 16C30 15.7348 29.8946 15.4804 29.7071 15.2929C29.5195 15.1053 29.2652 15 29 15ZM16 25C14.2199 25 12.4799 24.4721 10.9998 23.4832C9.5198 22.4943 8.36625 21.0887 7.68506 19.4441C7.00387 17.7996 6.82564 15.99 7.17291 14.2442C7.52018 12.4983 8.37734 10.8947 9.63602 9.63602C10.8947 8.37734 12.4983 7.52018 14.2442 7.17291C15.99 6.82564 17.7996 7.00387 19.4441 7.68506C21.0887 8.36625 22.4943 9.5198 23.4832 10.9998C24.4721 12.4799 25 14.2199 25 16C24.9973 18.3861 24.0483 20.6738 22.361 22.361C20.6738 24.0483 18.3861 24.9973 16 25Z"/></svg>