<svg xmlns="http://www.w3.org/2000/svg" width="32" height="32" viewBox="0 0 32 32"><path d="M29 15.5H26.475C26.3504 12.8228 25.2027 10.2957 23.269 8.44L25.354 6.354C25.4451 6.2597 25.4955 6.1334 25.4943 6.0023C25.4932 5.8712 25.4406 5.74579 25.3479 5.65309C25.2552 5.56039 25.1298 5.5078 24.9987 5.50666C24.8676 5.50552 24.7413 5.55592 24.647 5.647L22.515 7.78C20.7968 6.41496 18.6921 5.62625 16.5 5.526V3C16.5 2.86739 16.4473 2.74021 16.3536 2.64645C16.2598 2.55268 16.1326 2.5 16 2.5C15.8674 2.5 15.7402 2.55268 15.6464 2.64645C15.5527 2.74021 15.5 2.86739 15.5 3V5.526C13.308 5.626 11.203 6.416 9.485 7.781L7.354 5.647C7.30788 5.59924 7.2527 5.56115 7.1917 5.53495C7.1307 5.50874 7.06509 5.49495 6.9987 5.49437C6.93231 5.4938 6.86647 5.50645 6.80502 5.53159C6.74358 5.55673 6.68775 5.59386 6.6408 5.6408C6.59386 5.68775 6.55673 5.74358 6.53159 5.80502C6.50645 5.86647 6.4938 5.93231 6.49437 5.9987C6.49495 6.06509 6.50874 6.1307 6.53495 6.1917C6.56115 6.2527 6.59924 6.30788 6.647 6.354L8.73 8.44C6.79654 10.2958 5.64928 12.8229 5.525 15.5H3C2.86739 15.5 2.74021 15.5527 2.64645 15.6464C2.55268 15.7402 2.5 15.8674 2.5 16C2.5 16.1326 2.55268 16.2598 2.64645 16.3536C2.74021 16.4473 2.86739 16.5 3 16.5H5.526C5.65192 19.1975 6.81654 21.7418 8.776 23.6L6.655 25.64C6.6049 25.6848 6.56434 25.7392 6.53575 25.8001C6.50716 25.8609 6.49113 25.9268 6.48861 25.994C6.48609 26.0612 6.49714 26.1281 6.52109 26.1909C6.54504 26.2537 6.58141 26.3111 6.62802 26.3595C6.67462 26.4079 6.73051 26.4464 6.79235 26.4728C6.85418 26.4991 6.92069 26.5127 6.9879 26.5127C7.0551 26.5128 7.12163 26.4993 7.18351 26.473C7.24538 26.4468 7.30132 26.4084 7.348 26.36L9.538 24.258C11.2464 25.5997 13.331 26.3748 15.501 26.475V29C15.501 29.1326 15.5537 29.2598 15.6474 29.3536C15.7412 29.4473 15.8684 29.5 16.001 29.5C16.1336 29.5 16.2608 29.4473 16.3546 29.3536C16.4483 29.2598 16.501 29.1326 16.501 29V26.475C18.683 26.375 20.778 25.592 22.492 24.238L24.651 26.357C24.7467 26.4437 24.8722 26.4899 25.0013 26.4861C25.1303 26.4823 25.2529 26.4288 25.3434 26.3366C25.4338 26.2445 25.4851 26.121 25.4866 25.9919C25.488 25.8627 25.4394 25.7381 25.351 25.644L23.249 23.58C25.1952 21.7229 26.351 19.1872 26.476 16.5H29C29.1326 16.5 29.2598 16.4473 29.3536 16.3536C29.4473 16.2598 29.5 16.1326 29.5 16C29.5 15.8674 29.4473 15.7402 29.3536 15.6464C29.2598 15.5527 29.1326 15.5 29 15.5ZM16 25.5C14.1211 25.5 12.2844 24.9428 10.7221 23.899C9.15982 22.8551 7.94218 21.3714 7.22314 19.6355C6.50411 17.8996 6.31598 15.9895 6.68254 14.1466C7.0491 12.3038 7.95389 10.6111 9.28249 9.28249C10.6111 7.95389 12.3038 7.0491 14.1466 6.68254C15.9895 6.31598 17.8996 6.50411 19.6355 7.22314C21.3714 7.94218 22.8551 9.15982 23.899 10.7221C24.9428 12.2844 25.5 14.1211 25.5 16C25.4974 18.5187 24.4956 20.9336 22.7146 22.7146C20.9336 24.4956 18.5187 25.4974 16 25.5Z"/></svg>