<svg width="32" height="32" viewBox="0 0 32 32" fill="none" xmlns="http://www.w3.org/2000/svg">
<path d="M29.0002 15.2504H26.7122C26.5363 12.6819 25.4415 10.2627 23.628 8.43538L25.5304 6.53066C25.6001 6.46102 25.6553 6.37835 25.693 6.28737C25.7307 6.19638 25.7501 6.09887 25.7501 6.00038C25.7501 5.9019 25.7307 5.80439 25.693 5.7134C25.6553 5.62242 25.6001 5.53975 25.5304 5.47011C25.4608 5.40047 25.3781 5.34523 25.2871 5.30755C25.1962 5.26986 25.0986 5.25046 25.0002 5.25046C24.9017 5.25046 24.8042 5.26986 24.7132 5.30755C24.6222 5.34523 24.5395 5.40047 24.4699 5.47011L22.4911 7.45131C20.8302 6.18424 18.8342 5.43219 16.7501 5.28831V3.00031C16.7501 2.8014 16.6711 2.61063 16.5305 2.46998C16.3898 2.32933 16.199 2.25031 16.0001 2.25031C15.8012 2.25031 15.6104 2.32933 15.4698 2.46998C15.3291 2.61063 15.2501 2.8014 15.2501 3.00031V5.28831C13.1659 5.43218 11.1697 6.18437 9.50885 7.45168L7.53046 5.47011C7.46083 5.40047 7.37815 5.34523 7.28717 5.30755C7.19618 5.26986 7.09867 5.25046 7.00019 5.25046C6.90171 5.25046 6.80419 5.26986 6.7132 5.30755C6.62222 5.34523 6.53955 5.40047 6.46991 5.47011C6.40028 5.53975 6.34504 5.62242 6.30735 5.7134C6.26966 5.80439 6.25027 5.9019 6.25027 6.00038C6.25027 6.09887 6.26966 6.19638 6.30735 6.28737C6.34504 6.37835 6.40028 6.46102 6.46991 6.53066L8.37198 8.43581C6.55869 10.2631 5.46397 12.6821 5.28812 15.2504H3.00012C2.80121 15.2504 2.61044 15.3294 2.46979 15.47C2.32914 15.6107 2.25012 15.8015 2.25012 16.0004C2.25012 16.1993 2.32914 16.3901 2.46979 16.5307C2.61044 16.6714 2.80121 16.7504 3.00012 16.7504H5.28812C5.46491 19.3383 6.57443 21.7742 8.41083 23.6061L6.48066 25.4594C6.33827 25.5974 6.25635 25.7862 6.2528 25.9845C6.24926 26.1828 6.32438 26.3744 6.46174 26.5174C6.59911 26.6605 6.78753 26.7433 6.9858 26.7478C7.18406 26.7523 7.37603 26.6781 7.51972 26.5414L9.55707 24.5852C11.2086 25.8309 13.1865 26.5699 15.2502 26.7124V29.0004C15.2502 29.1993 15.3292 29.3901 15.4699 29.5307C15.6105 29.6714 15.8013 29.7504 16.0002 29.7504C16.1991 29.7504 16.3899 29.6714 16.5305 29.5307C16.6712 29.3901 16.7502 29.1993 16.7502 29.0004V26.7124C18.8247 26.5692 20.8122 25.8233 22.4687 24.5662L24.4748 26.5355C24.6173 26.6722 24.8079 26.7472 25.0053 26.7442C25.2027 26.7413 25.3909 26.6606 25.5292 26.5197C25.6675 26.3789 25.7447 26.1891 25.744 25.9917C25.7433 25.7943 25.6649 25.6051 25.5256 25.4652L23.6102 23.585C25.4344 21.7553 26.5361 19.3281 26.7122 16.7504H29.0002C29.1991 16.7504 29.3899 16.6714 29.5306 16.5307C29.6712 16.3901 29.7502 16.1993 29.7502 16.0004C29.7502 15.8015 29.6712 15.6107 29.5306 15.4701C29.3899 15.3294 29.1991 15.2504 29.0002 15.2504ZM6.75019 16.0004C6.75366 13.6787 7.62941 11.4431 9.20381 9.73684C10.7782 8.03056 12.9363 6.97819 15.2502 6.78838V25.2124C12.9363 25.0226 10.7782 23.9702 9.20381 22.2639C7.62941 20.5576 6.75366 18.322 6.75019 16.0004ZM16.7502 25.2124V6.78841C19.0654 6.97476 21.2256 8.02607 22.8008 9.7331C24.3759 11.4401 25.2505 13.6777 25.2505 16.0004C25.2505 18.3231 24.3759 20.5607 22.8008 22.2677C21.2256 23.9748 19.0654 25.026 16.7502 25.2124Z" fill="black"/>
</svg>
