<svg width="32" height="32" viewBox="0 0 32 32" fill="none" xmlns="http://www.w3.org/2000/svg">
<path d="M29.0002 15.0004H26.9496C26.7247 12.5421 25.6759 10.2319 23.9734 8.44438L25.7083 6.70741C25.8951 6.5195 25.9997 6.26514 25.9993 6.00016C25.9988 5.73517 25.8932 5.48119 25.7057 5.29395C25.5182 5.1067 25.2641 5.00148 24.9991 5.00137C24.7341 5.00126 24.4799 5.10627 24.2923 5.29335L22.4666 7.12123C20.8664 5.94738 18.9766 5.23167 17.0002 5.051V3.00038C17.0002 2.73516 16.8949 2.48081 16.7074 2.29327C16.5198 2.10574 16.2655 2.00038 16.0002 2.00038C15.735 2.00038 15.4807 2.10574 15.2931 2.29327C15.1056 2.48081 15.0002 2.73516 15.0002 3.00038V5.051C13.0235 5.23169 11.1333 5.94768 9.53295 7.122L7.70825 5.29433C7.52069 5.10802 7.26697 5.00357 7.0026 5.00383C6.73823 5.0041 6.48472 5.10904 6.29753 5.29573C6.11033 5.48241 6.00469 5.73563 6.0037 5.99999C6.00271 6.26436 6.10646 6.51837 6.29225 6.70644L8.02725 8.44417C6.32462 10.2317 5.27582 12.542 5.05095 15.0004H3.00024C2.73503 15.0004 2.48067 15.1057 2.29314 15.2933C2.1056 15.4808 2.00024 15.7352 2.00024 16.0004C2.00024 16.2656 2.1056 16.52 2.29314 16.7075C2.48067 16.895 2.73503 17.0004 3.00024 17.0004H5.05095C5.27724 19.4764 6.33901 21.8019 8.06181 23.5946L6.30785 25.2787C6.11676 25.4624 6.00641 25.7145 6.00106 25.9795C5.9957 26.2445 6.09577 26.5008 6.27928 26.6921C6.46279 26.8834 6.71473 26.994 6.97975 26.9996C7.24476 27.0052 7.50116 26.9054 7.69262 26.7221L9.57762 24.9122C11.1688 26.067 13.0423 26.771 15.0002 26.9497V29.0004C15.0002 29.2656 15.1056 29.52 15.2931 29.7075C15.4807 29.895 15.735 30.0004 16.0002 30.0004C16.2655 30.0004 16.5198 29.895 16.7073 29.7075C16.8949 29.52 17.0002 29.2656 17.0002 29.0004V26.9497C18.968 26.7699 20.8502 26.0597 22.4462 24.8946L24.3 26.7143C24.3937 26.8065 24.5046 26.8794 24.6265 26.9287C24.7484 26.978 24.8788 27.0028 25.0103 27.0016C25.1417 27.0005 25.2717 26.9734 25.3927 26.922C25.5137 26.8706 25.6234 26.7958 25.7154 26.7019C25.8075 26.6081 25.8801 26.497 25.9292 26.375C25.9783 26.253 26.0028 26.1226 26.0015 25.9911C26.0001 25.8596 25.9727 25.7297 25.9211 25.6088C25.8694 25.4879 25.7944 25.3784 25.7004 25.2865L23.9566 23.5748C25.6689 21.7848 26.724 19.4672 26.9495 17.0004H29.0002C29.2654 17.0004 29.5198 16.895 29.7073 16.7075C29.8948 16.52 30.0002 16.2656 30.0002 16.0004C30.0002 15.7352 29.8948 15.4808 29.7073 15.2933C29.5198 15.1057 29.2655 15.0004 29.0002 15.0004ZM16.0002 25.0004C14.2202 25.0004 12.4802 24.4725 11.0001 23.4836C9.52007 22.4947 8.36652 21.0891 7.68533 19.4445C7.00414 17.8 6.82591 15.9904 7.17318 14.2446C7.52044 12.4987 8.37761 10.8951 9.63628 9.63642C10.895 8.37775 12.4986 7.52058 14.2444 7.17331C15.9903 6.82605 17.7999 7.00428 19.4444 7.68547C21.0889 8.36665 22.4945 9.52021 23.4835 11.0002C24.4724 12.4803 25.0002 14.2203 25.0002 16.0004C24.9976 18.3865 24.0486 20.6742 22.3613 22.3615C20.6741 24.0487 18.3864 24.9978 16.0002 25.0004Z" fill="black"/>
</svg>
