<svg width="32" height="32" viewBox="0 0 32 32" fill="none" xmlns="http://www.w3.org/2000/svg">
<path d="M22.9999 2.24953H8.99991C7.74057 2.25096 6.53322 2.75186 5.64273 3.64235C4.75224 4.53284 4.25134 5.74019 4.24991 6.99953V24.9995C4.25134 26.2589 4.75224 27.4662 5.64273 28.3567C6.53322 29.2472 7.74057 29.7481 8.99991 29.7495H22.9999C24.2593 29.7481 25.4666 29.2472 26.3571 28.3567C27.2476 27.4662 27.7485 26.2589 27.7499 24.9995V6.99953C27.7485 5.74019 27.2476 4.53284 26.3571 3.64235C25.4666 2.75186 24.2593 2.25096 22.9999 2.24953ZM26.2499 24.9995C26.2489 25.8612 25.9062 26.6872 25.2969 27.2965C24.6876 27.9058 23.8616 28.2485 22.9999 28.2495H8.99991C8.13826 28.2485 7.31219 27.9058 6.70292 27.2965C6.09364 26.6872 5.75091 25.8612 5.74991 24.9995V6.99953C5.75091 6.13788 6.09364 5.31181 6.70292 4.70254C7.31219 4.09326 8.13826 3.75053 8.99991 3.74953H22.9999C23.8616 3.75053 24.6876 4.09326 25.2969 4.70254C25.9062 5.31181 26.2489 6.13788 26.2499 6.99953V24.9995Z" fill="black"/>
<path d="M16 23.75C16.5523 23.75 17 23.3022 17 22.75C17 22.1977 16.5523 21.75 16 21.75C15.4477 21.75 15 22.1977 15 22.75C15 23.3022 15.4477 23.75 16 23.75Z" fill="black"/>
<path d="M15.9999 19.7495C16.1988 19.7495 16.3895 19.6704 16.5302 19.5298C16.6708 19.3892 16.7499 19.1984 16.7499 18.9995V11.9995C16.7499 11.8006 16.6709 11.6099 16.5302 11.4692C16.3896 11.3285 16.1988 11.2495 15.9999 11.2495C15.801 11.2495 15.6102 11.3285 15.4696 11.4692C15.3289 11.6099 15.2499 11.8006 15.2499 11.9995V18.9995C15.25 19.1984 15.329 19.3892 15.4696 19.5298C15.6103 19.6704 15.801 19.7495 15.9999 19.7495Z" fill="black"/>
</svg>
