<svg xmlns="http://www.w3.org/2000/svg" width="32" height="32" viewBox="0 0 32 32"><path d="M23 2.25H9C7.74063 2.25132 6.53322 2.75219 5.6427 3.6427C4.75219 4.53322 4.25132 5.74063 4.25 7V25C4.25132 26.2594 4.75219 27.4668 5.6427 28.3573C6.53322 29.2478 7.74063 29.7487 9 29.75H23C24.2594 29.7487 25.4668 29.2478 26.3573 28.3573C27.2478 27.4668 27.7487 26.2594 27.75 25V7C27.7487 5.74063 27.2478 4.53322 26.3573 3.6427C25.4668 2.75219 24.2594 2.25132 23 2.25ZM26.25 25C26.2489 25.8616 25.9062 26.6877 25.2969 27.2969C24.6877 27.9062 23.8616 28.2489 23 28.25H9C8.13837 28.2489 7.31234 27.9062 6.70307 27.2969C6.09381 26.6877 5.75106 25.8616 5.75 25V7C5.75106 6.13837 6.09381 5.31234 6.70307 4.70307C7.31234 4.09381 8.13837 3.75106 9 3.75H23C23.8616 3.75106 24.6877 4.09381 25.2969 4.70307C25.9062 5.31234 26.2489 6.13837 26.25 7V25Z M16 23.75C16.2652 23.75 16.5196 23.6446 16.7071 23.4571C16.8946 23.2696 17 23.0152 17 22.75C17 22.4848 16.8946 22.2304 16.7071 22.0429C16.5196 21.8554 16.2652 21.75 16 21.75C15.7348 21.75 15.4804 21.8554 15.2929 22.0429C15.1054 22.2304 15 22.4848 15 22.75C15 23.0152 15.1054 23.2696 15.2929 23.4571C15.4804 23.6446 15.7348 23.75 16 23.75ZM16 19.75C16.1989 19.75 16.3897 19.671 16.5303 19.5303C16.671 19.3897 16.75 19.1989 16.75 19V12C16.75 11.8011 16.671 11.6103 16.5303 11.4697C16.3897 11.329 16.1989 11.25 16 11.25C15.8011 11.25 15.6103 11.329 15.4697 11.4697C15.329 11.6103 15.25 11.8011 15.25 12V19C15.25 19.1989 15.329 19.3897 15.4697 19.5303C15.6103 19.671 15.8011 19.75 16 19.75Z"/></svg>