<svg xmlns="http://www.w3.org/2000/svg" width="32" height="32" viewBox="0 0 32 32"><path d="M23 2H9C7.6744 2.00159 6.40356 2.52888 5.46622 3.46622C4.52888 4.40356 4.00159 5.6744 4 7V25C4.00159 26.3256 4.52888 27.5964 5.46622 28.5338C6.40356 29.4711 7.6744 29.9984 9 30H23C24.3257 29.9987 25.5967 29.4715 26.5341 28.5341C27.4715 27.5967 27.9987 26.3257 28 25V7C27.9987 5.67432 27.4715 4.40332 26.5341 3.46593C25.5967 2.52853 24.3257 2.00132 23 2ZM26 25C25.9992 25.7954 25.6829 26.558 25.1204 27.1204C24.558 27.6829 23.7954 27.9992 23 28H9C8.20459 27.9992 7.44199 27.6829 6.87956 27.1204C6.31712 26.558 6.00079 25.7954 6 25V7C6.00079 6.20459 6.31712 5.44199 6.87956 4.87956C7.44199 4.31712 8.20459 4.00079 9 4H23C23.7954 4.00079 24.558 4.31712 25.1204 4.87956C25.6829 5.44199 25.9992 6.20459 26 7V25Z M16 24C16.3315 24 16.6495 23.8683 16.8839 23.6339C17.1183 23.3995 17.25 23.0815 17.25 22.75C17.25 22.4185 17.1183 22.1005 16.8839 21.8661C16.6495 21.6317 16.3315 21.5 16 21.5C15.6685 21.5 15.3505 21.6317 15.1161 21.8661C14.8817 22.1005 14.75 22.4185 14.75 22.75C14.75 23.0815 14.8817 23.3995 15.1161 23.6339C15.3505 23.8683 15.6685 24 16 24ZM16 20C16.2652 20 16.5196 19.8946 16.7071 19.7071C16.8946 19.5196 17 19.2652 17 19V12C17 11.7348 16.8946 11.4804 16.7071 11.2929C16.5196 11.1054 16.2652 11 16 11C15.7348 11 15.4804 11.1054 15.2929 11.2929C15.1054 11.4804 15 11.7348 15 12V19C14.9997 19.1314 15.0254 19.2616 15.0756 19.383C15.1257 19.5044 15.1994 19.6148 15.2923 19.7077C15.3852 19.8006 15.4956 19.8743 15.617 19.9244C15.7384 19.9746 15.8686 20.0003 16 20Z"/></svg>