<svg width="32" height="32" viewBox="0 0 32 32" fill="none" xmlns="http://www.w3.org/2000/svg">
<path d="M25.0001 4.99954H7.00009C5.67449 5.0011 4.40362 5.52838 3.46628 6.46573C2.52893 7.40307 2.00165 8.67394 2.00009 9.99954V21.9995C2.00165 23.3251 2.52894 24.596 3.46628 25.5334C4.40362 26.4707 5.67449 26.998 7.00009 26.9995H25.0001C26.3257 26.998 27.5966 26.4707 28.5339 25.5334C29.4712 24.596 29.9985 23.3251 30.0001 21.9995V9.99954C29.9985 8.67394 29.4712 7.40307 28.5339 6.46573C27.5966 5.52839 26.3257 5.0011 25.0001 4.99954ZM28.0001 21.9995C27.9992 22.7949 27.6829 23.5575 27.1205 24.1199C26.558 24.6823 25.7955 24.9987 25.0001 24.9995H7.00009C6.20471 24.9987 5.44215 24.6823 4.87973 24.1199C4.31731 23.5575 4.00096 22.7949 4.00009 21.9995V9.99954C4.00096 9.20416 4.31731 8.4416 4.87973 7.87918C5.44215 7.31676 6.20471 7.00041 7.00009 6.99954H25.0001C25.7955 7.00041 26.558 7.31676 27.1205 7.87918C27.6829 8.4416 27.9992 9.20416 28.0001 9.99954V21.9995Z" fill="black"/>
<path d="M7.49997 12C8.3284 12 8.99997 11.3284 8.99997 10.5C8.99997 9.67154 8.3284 8.99996 7.49997 8.99996C6.67154 8.99996 5.99997 9.67154 5.99997 10.5C5.99997 11.3284 6.67154 12 7.49997 12Z" fill="black"/>
<path d="M12.5 12C13.3284 12 14 11.3284 14 10.5C14 9.67154 13.3284 8.99996 12.5 8.99996C11.6715 8.99996 11 9.67154 11 10.5C11 11.3284 11.6715 12 12.5 12Z" fill="black"/>
<path d="M17.5 12C18.3284 12 19 11.3284 19 10.5C19 9.67154 18.3284 8.99996 17.5 8.99996C16.6715 8.99996 16 9.67154 16 10.5C16 11.3284 16.6715 12 17.5 12Z" fill="black"/>
</svg>
