<svg xmlns="http://www.w3.org/2000/svg" width="32" height="32" viewBox="0 0 32 32"><path d="M3 13C3 9.68629 5.68629 7 9 7H23C26.3137 7 29 9.68629 29 13C29 15.717 27.194 18.0143 24.7148 18.7519C24.1855 18.9094 23.884 19.4662 24.0415 19.9955C24.199 20.5249 24.7558 20.8263 25.2852 20.6689C28.5894 19.6858 31 16.6257 31 13C31 8.58172 27.4183 5 23 5H9C4.58172 5 1 8.58172 1 13C1 17.4179 4.57921 21 8.99789 21H13C13.5523 21 14 20.5523 14 20C14 19.4477 13.5523 19 13 19H8.99789C5.68457 19 3 16.3141 3 13ZM15.8125 16.1359C16.1589 15.9359 16.5912 15.9616 16.9115 16.2012L25.3615 22.5223C25.6307 22.7236 25.7807 23.0467 25.7607 23.3822C25.7408 23.7178 25.5537 24.0209 25.2626 24.189L22.5279 25.7682L24.1062 28.5024C24.3823 28.9807 24.2183 29.5923 23.74 29.8684C23.2617 30.1445 22.6501 29.9806 22.374 29.5022L20.7959 26.7682L18.0624 28.3461C17.7713 28.5141 17.4153 28.5246 17.1147 28.3741C16.8142 28.2236 16.6094 27.9322 16.5695 27.5984L15.3195 17.1204C15.2722 16.7232 15.466 16.336 15.8125 16.1359ZM17.5819 19.2003L18.3758 25.8559L22.9492 23.2154L17.5819 19.2003Z"/></svg>