<svg xmlns="http://www.w3.org/2000/svg" width="32" height="32" viewBox="0 0 32 32"><path d="M2.75 13C2.75 9.54822 5.54822 6.75 9 6.75H23C26.4518 6.75 29.25 9.54822 29.25 13C29.25 15.8305 27.3684 18.2233 24.7861 18.9915C24.3891 19.1096 24.163 19.5272 24.2811 19.9242C24.3993 20.3212 24.8168 20.5473 25.2139 20.4292C28.415 19.4769 30.75 16.5121 30.75 13C30.75 8.71979 27.2802 5.25 23 5.25H9C4.71979 5.25 1.25 8.71979 1.25 13C1.25 17.2799 4.71738 20.75 8.99789 20.75H13C13.4142 20.75 13.75 20.4142 13.75 20C13.75 19.5858 13.4142 19.25 13 19.25H8.99789C5.5464 19.25 2.75 16.4521 2.75 13ZM15.9375 16.3524C16.1973 16.2024 16.5215 16.2217 16.7618 16.4014L25.2117 22.7224C25.4136 22.8734 25.5261 23.1158 25.5112 23.3674C25.4962 23.6191 25.3559 23.8464 25.1376 23.9725L22.1865 25.6767L23.8897 28.6274C24.0967 28.9861 23.9738 29.4448 23.6151 29.6519C23.2563 29.8589 22.7976 29.736 22.5906 29.3773L20.8874 26.4267L17.9374 28.1295C17.7191 28.2556 17.4521 28.2635 17.2267 28.1506C17.0013 28.0377 16.8476 27.8191 16.8178 27.5688L15.5678 17.0908C15.5322 16.7929 15.6777 16.5025 15.9375 16.3524ZM17.2645 18.6507L18.1725 26.2619L23.4025 23.2423L17.2645 18.6507Z"/></svg>