<svg xmlns="http://www.w3.org/2000/svg" width="32" height="32" viewBox="0 0 32 32"><path d="M2.5 13C2.5 9.41015 5.41015 6.5 9 6.5H23C26.5899 6.5 29.5 9.41015 29.5 13C29.5 15.9441 27.5428 18.4322 24.8574 19.2311C24.5927 19.3099 24.442 19.5883 24.5208 19.8529C24.5995 20.1176 24.8779 20.2684 25.1426 20.1896C28.2405 19.268 30.5 16.3985 30.5 13C30.5 8.85786 27.1421 5.5 23 5.5H9C4.85786 5.5 1.5 8.85786 1.5 13C1.5 17.1419 4.85555 20.5 8.99789 20.5H13C13.2761 20.5 13.5 20.2761 13.5 20C13.5 19.7239 13.2761 19.5 13 19.5H8.99789C5.40823 19.5 2.5 16.59 2.5 13ZM16.0625 16.569C16.2357 16.4689 16.4518 16.4818 16.612 16.6016L25.062 22.9226C25.1966 23.0233 25.2716 23.1848 25.2616 23.3526C25.2517 23.5204 25.1581 23.6719 25.0125 23.756L21.845 25.5852L23.6731 28.7524C23.8112 28.9915 23.7292 29.2973 23.4901 29.4354C23.2509 29.5734 22.9451 29.4914 22.8071 29.2523L20.979 26.0852L17.8125 27.913C17.6669 27.997 17.4889 28.0023 17.3386 27.9271C17.1883 27.8518 17.0859 27.7061 17.066 27.5392L15.816 17.0612C15.7923 16.8626 15.8893 16.669 16.0625 16.569ZM16.9472 18.1011L17.9692 26.6679L23.8559 23.2692L16.9472 18.1011Z"/></svg>