<svg xmlns="http://www.w3.org/2000/svg" width="32" height="32" viewBox="0 0 32 32"><path d="M23 5.25H22.75V3C22.75 2.80109 22.671 2.61032 22.5303 2.46967C22.3897 2.32902 22.1989 2.25 22 2.25C21.8011 2.25 21.6103 2.32902 21.4697 2.46967C21.329 2.61032 21.25 2.80109 21.25 3V5.25H10.75V3C10.75 2.80109 10.671 2.61032 10.5303 2.46967C10.3897 2.32902 10.1989 2.25 10 2.25C9.80109 2.25 9.61032 2.32902 9.46967 2.46967C9.32902 2.61032 9.25 2.80109 9.25 3V5.25H9C7.74063 5.25132 6.53322 5.75219 5.6427 6.6427C4.75219 7.53322 4.25132 8.74063 4.25 10V24C4.25132 25.2594 4.75219 26.4668 5.6427 27.3573C6.53322 28.2478 7.74063 28.7487 9 28.75H23C24.2593 28.7484 25.4666 28.2475 26.357 27.357C27.2475 26.4666 27.7484 25.2593 27.75 24V10C27.7487 8.74063 27.2478 7.53322 26.3573 6.6427C25.4668 5.75219 24.2594 5.25132 23 5.25ZM26.25 24C26.2489 24.8616 25.9062 25.6877 25.2969 26.2969C24.6877 26.9062 23.8616 27.2489 23 27.25H9C8.13837 27.2489 7.31234 26.9062 6.70307 26.2969C6.09381 25.6877 5.75106 24.8616 5.75 24V10C5.75106 9.13837 6.09381 8.31234 6.70307 7.70307C7.31234 7.09381 8.13837 6.75106 9 6.75H23C23.8616 6.75106 24.6877 7.09381 25.2969 7.70307C25.9062 8.31234 26.2489 9.13837 26.25 10V24Z"/></svg>