<svg width="32" height="32" viewBox="0 0 32 32" fill="none" xmlns="http://www.w3.org/2000/svg">
<path d="M22.0005 11.2504H10.0005C9.80158 11.2504 9.61081 11.3295 9.47016 11.4701C9.32951 11.6108 9.25049 11.8015 9.25049 12.0004C9.25049 12.1994 9.32951 12.3901 9.47016 12.5308C9.61081 12.6714 9.80158 12.7504 10.0005 12.7504H22.0005C22.099 12.7504 22.1965 12.731 22.2875 12.6934C22.3785 12.6557 22.4612 12.6004 22.5308 12.5308C22.6005 12.4611 22.6557 12.3785 22.6934 12.2875C22.7311 12.1965 22.7505 12.0989 22.7505 12.0004C22.7505 11.902 22.7311 11.8044 22.6934 11.7134C22.6557 11.6224 22.6005 11.5398 22.5308 11.4701C22.4612 11.4005 22.3785 11.3452 22.2875 11.3075C22.1965 11.2698 22.099 11.2504 22.0005 11.2504Z" fill="black"/>
<path d="M22.0005 16.2504H10.0005C9.80158 16.2504 9.61081 16.3295 9.47016 16.4701C9.32951 16.6108 9.25049 16.8015 9.25049 17.0004C9.25049 17.1994 9.32951 17.3901 9.47016 17.5308C9.61081 17.6714 9.80158 17.7504 10.0005 17.7504H22.0005C22.1994 17.7504 22.3902 17.6714 22.5308 17.5308C22.6715 17.3901 22.7505 17.1994 22.7505 17.0004C22.7505 16.8015 22.6715 16.6108 22.5308 16.4701C22.3902 16.3295 22.1994 16.2504 22.0005 16.2504Z" fill="black"/>
<path d="M22.0005 21.2505H10.0005C9.80158 21.2505 9.61081 21.3295 9.47016 21.4701C9.32951 21.6108 9.25049 21.8015 9.25049 22.0005C9.25049 22.1994 9.32951 22.3901 9.47016 22.5308C9.61081 22.6714 9.80158 22.7505 10.0005 22.7505H22.0005C22.1994 22.7505 22.3902 22.6714 22.5308 22.5308C22.6715 22.3901 22.7505 22.1994 22.7505 22.0005C22.7505 21.8015 22.6715 21.6108 22.5308 21.4701C22.3902 21.3295 22.1994 21.2505 22.0005 21.2505Z" fill="black"/>
<path d="M23.0005 5.24947H22.7505V3.00047C22.7505 2.80156 22.6715 2.61079 22.5308 2.47014C22.3902 2.32949 22.1994 2.25047 22.0005 2.25047C21.8016 2.25047 21.6108 2.32949 21.4702 2.47014C21.3295 2.61079 21.2505 2.80156 21.2505 3.00047V5.24947H10.7505V3.00047C10.7505 2.80156 10.6715 2.61079 10.5308 2.47014C10.3902 2.32949 10.1994 2.25047 10.0005 2.25047C9.80158 2.25047 9.61081 2.32949 9.47016 2.47014C9.32951 2.61079 9.25049 2.80156 9.25049 3.00047V5.24947H9.00049C7.74115 5.2509 6.5338 5.7518 5.64331 6.64229C4.75282 7.53278 4.25192 8.74013 4.25049 9.99947V23.9995C4.25192 25.2588 4.75282 26.4662 5.64331 27.3566C6.5338 28.2471 7.74115 28.748 9.00049 28.7495H23.0005C24.2598 28.748 25.4672 28.2471 26.3577 27.3566C27.2482 26.4662 27.7491 25.2588 27.7505 23.9995V9.99947C27.7491 8.74013 27.2482 7.53278 26.3577 6.64229C25.4672 5.7518 24.2598 5.2509 23.0005 5.24947ZM26.2505 23.9995C26.2495 24.8611 25.9068 25.6872 25.2975 26.2965C24.6882 26.9057 23.8621 27.2485 23.0005 27.2495H9.00049C8.13884 27.2485 7.31277 26.9057 6.70349 26.2965C6.09421 25.6872 5.75148 24.8611 5.75049 23.9995V9.99947C5.75149 9.13782 6.09422 8.31175 6.70349 7.70247C7.31277 7.0932 8.13884 6.75047 9.00049 6.74947H23.0005C23.8621 6.75047 24.6882 7.0932 25.2975 7.70247C25.9068 8.31175 26.2495 9.13782 26.2505 9.99947V23.9995Z" fill="black"/>
</svg>
