<svg width="32" height="32" viewBox="0 0 32 32" fill="none" xmlns="http://www.w3.org/2000/svg">
<path d="M23 5.49947V3.00047C23 2.73526 22.8946 2.4809 22.7071 2.29337C22.5196 2.10583 22.2652 2.00047 22 2.00047C21.7348 2.00047 21.4804 2.10583 21.2929 2.29337C21.1054 2.4809 21 2.73526 21 3.00047V5.49947H11V3.00047C11 2.73526 10.8946 2.4809 10.7071 2.29337C10.5196 2.10583 10.2652 2.00047 10 2.00047C9.73478 2.00047 9.48043 2.10583 9.29289 2.29337C9.10536 2.4809 9 2.73526 9 3.00047V5.49947C7.80693 5.50078 6.66309 5.9753 5.81946 6.81893C4.97583 7.66256 4.5013 8.8064 4.5 9.99947V23.9995C4.5013 25.1925 4.97583 26.3364 5.81946 27.18C6.66309 28.0236 7.80693 28.4982 9 28.4995H23C24.1931 28.4982 25.3369 28.0237 26.1805 27.18C27.0242 26.3364 27.4987 25.1925 27.5 23.9995V9.99947C27.4987 8.8064 27.0242 7.66256 26.1805 6.81893C25.3369 5.9753 24.1931 5.50078 23 5.49947ZM20 18.0005H17V21.0005C17 21.2657 16.8946 21.52 16.7071 21.7076C16.5196 21.8951 16.2652 22.0005 16 22.0005C15.7348 22.0005 15.4804 21.8951 15.2929 21.7076C15.1054 21.52 15 21.2657 15 21.0005V18.0005H12C11.7348 18.0005 11.4804 17.8951 11.2929 17.7076C11.1054 17.52 11 17.2657 11 17.0005C11 16.7353 11.1054 16.4809 11.2929 16.2934C11.4804 16.1058 11.7348 16.0005 12 16.0005H15V13.0005C15 12.7353 15.1054 12.4809 15.2929 12.2934C15.4804 12.1058 15.7348 12.0005 16 12.0005C16.2652 12.0005 16.5196 12.1058 16.7071 12.2934C16.8946 12.4809 17 12.7353 17 13.0005V16.0005H20C20.2652 16.0005 20.5196 16.1058 20.7071 16.2934C20.8946 16.4809 21 16.7353 21 17.0005C21 17.2657 20.8946 17.52 20.7071 17.7076C20.5196 17.8951 20.2652 18.0005 20 18.0005Z" fill="black"/>
</svg>
