<svg width="32" height="32" viewBox="0 0 32 32" xmlns="http://www.w3.org/2000/svg"><path d="M18.75 20.5c0 .414.336.75.75.75h9a.75.75 0 0 0 0-1.5h-9a.75.75 0 0 0-.75.75ZM20.25 24.5a.75.75 0 0 1 .75-.75h6a.75.75 0 0 1 0 1.5h-6a.75.75 0 0 1-.75-.75ZM21.25 28.5a.75.75 0 0 1 .75-.75h4a.75.75 0 0 1 0 1.5h-4a.75.75 0 0 1-.75-.75Z"/><path d="M10.75 3a.75.75 0 0 0-1.5 0v2.25h-.252A4.762 4.762 0 0 0 4.25 9.998V24.002a4.762 4.762 0 0 0 4.748 4.748H14a.75.75 0 0 0 0-1.5H9.001a3.262 3.262 0 0 1-3.251-3.251V12.75h20.5V17a.75.75 0 0 0 1.5 0V9.998a4.762 4.762 0 0 0-4.748-4.748h-.252V3a.75.75 0 0 0-1.5 0v2.25h-10.5V3ZM9.001 6.75H23a3.262 3.262 0 0 1 3.251 3.251v1.25H5.75v-1.25A3.262 3.262 0 0 1 9.001 6.75Z"/></svg>