<svg xmlns="http://www.w3.org/2000/svg" width="32" height="32" viewBox="0 0 32 32"><path d="M16 12.25C16.3315 12.25 16.6495 12.1183 16.8839 11.8839C17.1183 11.6495 17.25 11.3315 17.25 11C17.25 10.6685 17.1183 10.3505 16.8839 10.1161C16.6495 9.8817 16.3315 9.75 16 9.75C15.6685 9.75 15.3505 9.8817 15.1161 10.1161C14.8817 10.3505 14.75 10.6685 14.75 11C14.75 11.3315 14.8817 11.6495 15.1161 11.8839C15.3505 12.1183 15.6685 12.25 16 12.25ZM16 18.25C16.3315 18.25 16.6495 18.1183 16.8839 17.8839C17.1183 17.6495 17.25 17.3315 17.25 17C17.25 16.6685 17.1183 16.3505 16.8839 16.1161C16.6495 15.8817 16.3315 15.75 16 15.75C15.6685 15.75 15.3505 15.8817 15.1161 16.1161C14.8817 16.3505 14.75 16.6685 14.75 17C14.75 17.3315 14.8817 17.6495 15.1161 17.8839C15.3505 18.1183 15.6685 18.25 16 18.25ZM16 24.25C16.3315 24.25 16.6495 24.1183 16.8839 23.8839C17.1183 23.6495 17.25 23.3315 17.25 23C17.25 22.6685 17.1183 22.3505 16.8839 22.1161C16.6495 21.8817 16.3315 21.75 16 21.75C15.6685 21.75 15.3505 21.8817 15.1161 22.1161C14.8817 22.3505 14.75 22.6685 14.75 23C14.75 23.3315 14.8817 23.6495 15.1161 23.8839C15.3505 24.1183 15.6685 24.25 16 24.25ZM10 12.25C10.3315 12.25 10.6495 12.1183 10.8839 11.8839C11.1183 11.6495 11.25 11.3315 11.25 11C11.25 10.6685 11.1183 10.3505 10.8839 10.1161C10.6495 9.8817 10.3315 9.75 10 9.75C9.66848 9.75 9.35054 9.8817 9.11612 10.1161C8.8817 10.3505 8.75 10.6685 8.75 11C8.75 11.3315 8.8817 11.6495 9.11612 11.8839C9.35054 12.1183 9.66848 12.25 10 12.25Z M23 5V3C23 2.73478 22.8946 2.48043 22.7071 2.29289C22.5196 2.10536 22.2652 2 22 2C21.7348 2 21.4804 2.10536 21.2929 2.29289C21.1054 2.48043 21 2.73478 21 3V5H11V3C11 2.73478 10.8946 2.48043 10.7071 2.29289C10.5196 2.10536 10.2652 2 10 2C9.73478 2 9.48043 2.10536 9.29289 2.29289C9.10536 2.48043 9 2.73478 9 3V5C7.67441 5.00159 6.40356 5.52888 5.46622 6.46622C4.52888 7.40356 4.00159 8.67441 4 10V24C4.00159 25.3256 4.52888 26.5964 5.46622 27.5338C6.40356 28.4711 7.67441 28.9984 9 29H23C24.3256 28.9984 25.5964 28.4711 26.5338 27.5338C27.4711 26.5964 27.9984 25.3256 28 24V10C27.9984 8.67441 27.4711 7.40356 26.5338 6.46622C25.5964 5.52888 24.3256 5.00159 23 5ZM26 24C25.9992 24.7954 25.6829 25.558 25.1204 26.1204C24.558 26.6829 23.7954 26.9992 23 27H9C8.20459 26.9992 7.44199 26.6829 6.87956 26.1204C6.31712 25.558 6.00079 24.7954 6 24V10C6.00079 9.20459 6.31712 8.44199 6.87956 7.87956C7.44199 7.31712 8.20459 7.00079 9 7H23C23.7954 7.00079 24.558 7.31712 25.1204 7.87956C25.6829 8.44199 25.9992 9.20459 26 10V24Z M10 18.25C10.3315 18.25 10.6495 18.1183 10.8839 17.8839C11.1183 17.6495 11.25 17.3315 11.25 17C11.25 16.6685 11.1183 16.3505 10.8839 16.1161C10.6495 15.8817 10.3315 15.75 10 15.75C9.66848 15.75 9.35054 15.8817 9.11612 16.1161C8.8817 16.3505 8.75 16.6685 8.75 17C8.75 17.3315 8.8817 17.6495 9.11612 17.8839C9.35054 18.1183 9.66848 18.25 10 18.25ZM10 24.25C10.3315 24.25 10.6495 24.1183 10.8839 23.8839C11.1183 23.6495 11.25 23.3315 11.25 23C11.25 22.6685 11.1183 22.3505 10.8839 22.1161C10.6495 21.8817 10.3315 21.75 10 21.75C9.66848 21.75 9.35054 21.8817 9.11612 22.1161C8.8817 22.3505 8.75 22.6685 8.75 23C8.75 23.3315 8.8817 23.6495 9.11612 23.8839C9.35054 24.1183 9.66848 24.25 10 24.25ZM22 12.25C22.3315 12.25 22.6495 12.1183 22.8839 11.8839C23.1183 11.6495 23.25 11.3315 23.25 11C23.25 10.6685 23.1183 10.3505 22.8839 10.1161C22.6495 9.8817 22.3315 9.75 22 9.75C21.6685 9.75 21.3505 9.8817 21.1161 10.1161C20.8817 10.3505 20.75 10.6685 20.75 11C20.75 11.3315 20.8817 11.6495 21.1161 11.8839C21.3505 12.1183 21.6685 12.25 22 12.25ZM22 18.25C22.3315 18.25 22.6495 18.1183 22.8839 17.8839C23.1183 17.6495 23.25 17.3315 23.25 17C23.25 16.6685 23.1183 16.3505 22.8839 16.1161C22.6495 15.8817 22.3315 15.75 22 15.75C21.6685 15.75 21.3505 15.8817 21.1161 16.1161C20.8817 16.3505 20.75 16.6685 20.75 17C20.75 17.3315 20.8817 17.6495 21.1161 17.8839C21.3505 18.1183 21.6685 18.25 22 18.25ZM22 24.25C22.3315 24.25 22.6495 24.1183 22.8839 23.8839C23.1183 23.6495 23.25 23.3315 23.25 23C23.25 22.6685 23.1183 22.3505 22.8839 22.1161C22.6495 21.8817 22.3315 21.75 22 21.75C21.6685 21.75 21.3505 21.8817 21.1161 22.1161C20.8817 22.3505 20.75 22.6685 20.75 23C20.75 23.3315 20.8817 23.6495 21.1161 23.8839C21.3505 24.1183 21.6685 24.25 22 24.25Z"/></svg>