<svg xmlns="http://www.w3.org/2000/svg" width="32" height="32" viewBox="0 0 32 32"><path d="M10 11.5C9.86739 11.5 9.74021 11.5527 9.64645 11.6465C9.55268 11.7402 9.5 11.8674 9.5 12V22C9.5 22.1326 9.55268 22.2598 9.64645 22.3536C9.74021 22.4473 9.86739 22.5 10 22.5C10.1326 22.5 10.2598 22.4473 10.3536 22.3536C10.4473 22.2598 10.5 22.1326 10.5 22V12C10.5003 11.9343 10.4875 11.8691 10.4625 11.8083C10.4374 11.7476 10.4006 11.6923 10.3541 11.6459C10.3077 11.5994 10.2524 11.5626 10.1917 11.5375C10.1309 11.5125 10.0657 11.4997 10 11.5ZM14 11.5C13.8674 11.5 13.7402 11.5527 13.6464 11.6465C13.5527 11.7402 13.5 11.8674 13.5 12V22C13.5 22.1326 13.5527 22.2598 13.6464 22.3536C13.7402 22.4473 13.8674 22.5 14 22.5C14.1326 22.5 14.2598 22.4473 14.3536 22.3536C14.4473 22.2598 14.5 22.1326 14.5 22V12C14.5003 11.9343 14.4875 11.8691 14.4625 11.8083C14.4374 11.7476 14.4006 11.6923 14.3541 11.6459C14.3077 11.5994 14.2524 11.5626 14.1917 11.5375C14.1309 11.5125 14.0657 11.4997 14 11.5ZM18 11.5C17.8674 11.5 17.7402 11.5527 17.6464 11.6465C17.5527 11.7402 17.5 11.8674 17.5 12V22C17.5 22.1326 17.5527 22.2598 17.6464 22.3536C17.7402 22.4473 17.8674 22.5 18 22.5C18.1326 22.5 18.2598 22.4473 18.3536 22.3536C18.4473 22.2598 18.5 22.1326 18.5 22V12C18.5003 11.9343 18.4875 11.8691 18.4625 11.8083C18.4374 11.7476 18.4006 11.6923 18.3541 11.6459C18.3077 11.5994 18.2524 11.5626 18.1917 11.5375C18.1309 11.5125 18.0657 11.4997 18 11.5ZM22 11.5C21.8674 11.5 21.7402 11.5527 21.6464 11.6465C21.5527 11.7402 21.5 11.8674 21.5 12V22C21.5 22.1326 21.5527 22.2598 21.6464 22.3536C21.7402 22.4473 21.8674 22.5 22 22.5C22.1326 22.5 22.2598 22.4473 22.3536 22.3536C22.4473 22.2598 22.5 22.1326 22.5 22V12C22.5003 11.9343 22.4875 11.8691 22.4625 11.8083C22.4374 11.7476 22.4006 11.6923 22.3541 11.6459C22.3077 11.5994 22.2524 11.5626 22.1917 11.5375C22.1309 11.5125 22.0657 11.4997 22 11.5Z M23 5.5H22.5V3C22.5 2.86739 22.4473 2.74021 22.3536 2.64645C22.2598 2.55268 22.1326 2.5 22 2.5C21.8674 2.5 21.7402 2.55268 21.6464 2.64645C21.5527 2.74021 21.5 2.86739 21.5 3V5.5H10.5V3C10.5 2.86739 10.4473 2.74021 10.3536 2.64645C10.2598 2.55268 10.1326 2.5 10 2.5C9.86739 2.5 9.74021 2.55268 9.64645 2.64645C9.55268 2.74021 9.5 2.86739 9.5 3V5.5H9C7.80693 5.50132 6.66311 5.97585 5.81948 6.81948C4.97585 7.66311 4.50132 8.80693 4.5 10V24C4.50132 25.1931 4.97585 26.3369 5.81948 27.1805C6.66311 28.0241 7.80693 28.4987 9 28.5H23C24.1931 28.4987 25.3369 28.0241 26.1805 27.1805C27.0241 26.3369 27.4987 25.1931 27.5 24V10C27.4987 8.80693 27.0241 7.66311 26.1805 6.81948C25.3369 5.97585 24.1931 5.50132 23 5.5ZM26.5 24C26.4989 24.9279 26.1299 25.8176 25.4737 26.4737C24.8176 27.1299 23.9279 27.4989 23 27.5H9C8.07215 27.4987 7.18268 27.1295 6.52659 26.4734C5.8705 25.8173 5.50132 24.9279 5.5 24V10C5.50106 9.07207 5.87015 8.18244 6.5263 7.5263C7.18244 6.87015 8.07207 6.50106 9 6.5H23C23.9279 6.50106 24.8176 6.87015 25.4737 7.5263C26.1299 8.18244 26.4989 9.07207 26.5 10V24Z"/></svg>