<svg xmlns="http://www.w3.org/2000/svg" width="32" height="32" viewBox="0 0 32 32"><path d="M11 11.25C10.8011 11.25 10.6103 11.329 10.4697 11.4697C10.329 11.6103 10.25 11.8011 10.25 12V22C10.25 22.1989 10.329 22.3897 10.4697 22.5303C10.6103 22.671 10.8011 22.75 11 22.75C11.1989 22.75 11.3897 22.671 11.5303 22.5303C11.671 22.3897 11.75 22.1989 11.75 22V12C11.75 11.8011 11.671 11.6103 11.5303 11.4697C11.3897 11.329 11.1989 11.25 11 11.25ZM16 11.25C15.8011 11.25 15.6103 11.329 15.4697 11.4697C15.329 11.6103 15.25 11.8011 15.25 12V22C15.25 22.1989 15.329 22.3897 15.4697 22.5303C15.6103 22.671 15.8011 22.75 16 22.75C16.1989 22.75 16.3897 22.671 16.5303 22.5303C16.671 22.3897 16.75 22.1989 16.75 22V12C16.75 11.8011 16.671 11.6103 16.5303 11.4697C16.3897 11.329 16.1989 11.25 16 11.25ZM21 11.25C20.8011 11.25 20.6103 11.329 20.4697 11.4697C20.329 11.6103 20.25 11.8011 20.25 12V22C20.25 22.1989 20.329 22.3897 20.4697 22.5303C20.6103 22.671 20.8011 22.75 21 22.75C21.1989 22.75 21.3897 22.671 21.5303 22.5303C21.671 22.3897 21.75 22.1989 21.75 22V12C21.75 11.8011 21.671 11.6103 21.5303 11.4697C21.3897 11.329 21.1989 11.25 21 11.25Z M23 5.25H22.75V3C22.75 2.80109 22.671 2.61032 22.5303 2.46967C22.3897 2.32902 22.1989 2.25 22 2.25C21.8011 2.25 21.6103 2.32902 21.4697 2.46967C21.329 2.61032 21.25 2.80109 21.25 3V5.25H10.75V3C10.75 2.80109 10.671 2.61032 10.5303 2.46967C10.3897 2.32902 10.1989 2.25 10 2.25C9.80109 2.25 9.61032 2.32902 9.46967 2.46967C9.32902 2.61032 9.25 2.80109 9.25 3V5.25H9C7.74063 5.25132 6.53322 5.75219 5.6427 6.6427C4.75219 7.53322 4.25132 8.74063 4.25 10V24C4.25132 25.2594 4.75219 26.4668 5.6427 27.3573C6.53322 28.2478 7.74063 28.7487 9 28.75H23C24.2593 28.7484 25.4666 28.2475 26.357 27.357C27.2475 26.4666 27.7484 25.2593 27.75 24V10C27.7484 8.74071 27.2475 7.53345 26.357 6.643C25.4666 5.75254 24.2593 5.25159 23 5.25ZM26.25 24C26.2489 24.8616 25.9062 25.6877 25.2969 26.2969C24.6877 26.9062 23.8616 27.2489 23 27.25H9C8.13837 27.2489 7.31234 26.9062 6.70307 26.2969C6.09381 25.6877 5.75106 24.8616 5.75 24V10C5.75106 9.13837 6.09381 8.31234 6.70307 7.70307C7.31234 7.09381 8.13837 6.75106 9 6.75H23C23.8616 6.75106 24.6877 7.09381 25.2969 7.70307C25.9062 8.31234 26.2489 9.13837 26.25 10V24Z"/></svg>