<svg width="32" height="32" viewBox="0 0 32 32" fill="none" xmlns="http://www.w3.org/2000/svg">
<path d="M20 16.5004H16.5V13.0004C16.5 12.8678 16.4473 12.7407 16.3536 12.6469C16.2598 12.5531 16.1326 12.5004 16 12.5004C15.8674 12.5004 15.7402 12.5531 15.6464 12.6469C15.5527 12.7407 15.5 12.8678 15.5 13.0004V16.5004H12C11.8674 16.5004 11.7402 16.5531 11.6464 16.6469C11.5527 16.7407 11.5 16.8678 11.5 17.0004C11.5 17.1331 11.5527 17.2602 11.6464 17.354C11.7402 17.4478 11.8674 17.5004 12 17.5004H15.5V21.0005C15.5 21.1331 15.5527 21.2602 15.6464 21.354C15.7402 21.4478 15.8674 21.5005 16 21.5005C16.1326 21.5005 16.2598 21.4478 16.3536 21.354C16.4473 21.2602 16.5 21.1331 16.5 21.0005V17.5004H20C20.1326 17.5004 20.2598 17.4478 20.3536 17.354C20.4473 17.2602 20.5 17.1331 20.5 17.0004C20.5 16.8678 20.4473 16.7407 20.3536 16.6469C20.2598 16.5531 20.1326 16.5004 20 16.5004Z" fill="black"/>
<path d="M23 5.49947H22.5V3.00047C22.5 2.86786 22.4473 2.74068 22.3536 2.64692C22.2598 2.55315 22.1326 2.50047 22 2.50047C21.8674 2.50047 21.7402 2.55315 21.6464 2.64692C21.5527 2.74068 21.5 2.86786 21.5 3.00047V5.49947H10.5V3.00047C10.5 2.86786 10.4473 2.74068 10.3536 2.64692C10.2598 2.55315 10.1326 2.50047 10 2.50047C9.86739 2.50047 9.74021 2.55315 9.64645 2.64692C9.55268 2.74068 9.5 2.86786 9.5 3.00047V5.49947H9C7.80693 5.50078 6.66309 5.9753 5.81946 6.81893C4.97583 7.66256 4.5013 8.8064 4.5 9.99947V23.9995C4.5013 25.1925 4.97583 26.3364 5.81946 27.18C6.66309 28.0236 7.80693 28.4982 9 28.4995H23C24.1931 28.4982 25.3369 28.0236 26.1805 27.18C27.0242 26.3364 27.4987 25.1925 27.5 23.9995V9.99947C27.4987 8.8064 27.0242 7.66256 26.1805 6.81893C25.3369 5.9753 24.1931 5.50077 23 5.49947ZM26.5 23.9995C26.4989 24.9274 26.1298 25.817 25.4736 26.4731C24.8175 27.1292 23.9279 27.4983 23 27.4995H9C8.07209 27.4983 7.1825 27.1292 6.52637 26.4731C5.87023 25.817 5.50112 24.9274 5.5 23.9995V9.99947C5.50113 9.07156 5.87024 8.18197 6.52637 7.52584C7.1825 6.86971 8.07209 6.5006 9 6.49947H23C23.9279 6.50059 24.8175 6.8697 25.4736 7.52584C26.1298 8.18197 26.4989 9.07156 26.5 9.99947V23.9995Z" fill="black"/>
</svg>
