<svg width="32" height="32" viewBox="0 0 32 32" fill="none" xmlns="http://www.w3.org/2000/svg">
<path d="M20 16.2504H16.75V13.0004C16.75 12.8015 16.671 12.6108 16.5303 12.4701C16.3897 12.3295 16.1989 12.2504 16 12.2504C15.8011 12.2504 15.6103 12.3295 15.4697 12.4701C15.329 12.6108 15.25 12.8015 15.25 13.0004V16.2504H12C11.8011 16.2504 11.6103 16.3295 11.4697 16.4701C11.329 16.6108 11.25 16.8015 11.25 17.0004C11.25 17.1994 11.329 17.3901 11.4697 17.5308C11.6103 17.6714 11.8011 17.7504 12 17.7504H15.25V21.0005C15.25 21.1994 15.329 21.3901 15.4697 21.5308C15.6103 21.6714 15.8011 21.7505 16 21.7505C16.1989 21.7505 16.3897 21.6714 16.5303 21.5308C16.671 21.3901 16.75 21.1994 16.75 21.0005V17.7504H20C20.1989 17.7504 20.3897 17.6714 20.5303 17.5308C20.671 17.3901 20.75 17.1994 20.75 17.0004C20.75 16.8015 20.671 16.6108 20.5303 16.4701C20.3897 16.3295 20.1989 16.2504 20 16.2504Z" fill="black"/>
<path d="M23 5.24947H22.75V3.00047C22.75 2.80156 22.671 2.61079 22.5303 2.47014C22.3897 2.32949 22.1989 2.25047 22 2.25047C21.8011 2.25047 21.6103 2.32949 21.4697 2.47014C21.329 2.61079 21.25 2.80156 21.25 3.00047V5.24947H10.75V3.00047C10.75 2.80156 10.671 2.61079 10.5303 2.47014C10.3897 2.32949 10.1989 2.25047 10 2.25047C9.80109 2.25047 9.61032 2.32949 9.46967 2.47014C9.32902 2.61079 9.25 2.80156 9.25 3.00047V5.24947H9C7.74066 5.2509 6.53331 5.7518 5.64282 6.64229C4.75233 7.53278 4.25143 8.74013 4.25 9.99947V23.9995C4.25143 25.2588 4.75233 26.4662 5.64282 27.3566C6.53331 28.2471 7.74066 28.748 9 28.7495H23C24.2593 28.748 25.4667 28.2471 26.3572 27.3566C27.2477 26.4662 27.7486 25.2588 27.75 23.9995V9.99947C27.7486 8.74013 27.2477 7.53278 26.3572 6.64229C25.4667 5.7518 24.2593 5.2509 23 5.24947ZM26.25 23.9995C26.249 24.8611 25.9063 25.6872 25.297 26.2965C24.6877 26.9057 23.8616 27.2485 23 27.2495H9C8.13835 27.2485 7.31228 26.9057 6.703 26.2965C6.09372 25.6872 5.751 24.8611 5.75 23.9995V9.99947C5.751 9.13782 6.09373 8.31175 6.703 7.70247C7.31228 7.0932 8.13835 6.75047 9 6.74947H23C23.8616 6.75046 24.6877 7.09319 25.297 7.70247C25.9063 8.31175 26.249 9.13782 26.25 9.99947V23.9995Z" fill="black"/>
</svg>
