<svg width="32" height="32" viewBox="0 0 32 32" fill="none" xmlns="http://www.w3.org/2000/svg">
<path d="M13.9999 5.24989C13.801 5.24994 13.6103 5.32898 13.4697 5.46962C13.329 5.61026 13.25 5.80099 13.2499 5.99989V12.1957L4.5307 3.46961C4.38989 3.32968 4.19936 3.25126 4.00085 3.25153C3.80233 3.2518 3.61201 3.33073 3.47158 3.47104C3.33114 3.61134 3.25204 3.80159 3.25159 4.0001C3.25114 4.19862 3.32938 4.38922 3.46918 4.53016L12.182 13.2499H5.99994C5.80103 13.2499 5.61027 13.3289 5.46961 13.4696C5.32896 13.6102 5.24994 13.801 5.24994 13.9999C5.24994 14.1988 5.32896 14.3896 5.46961 14.5302C5.61027 14.6709 5.80103 14.7499 5.99994 14.7499H13.9999C14.1988 14.7498 14.3896 14.6708 14.5302 14.5302C14.6709 14.3895 14.7499 14.1988 14.7499 13.9999V5.99989C14.7499 5.80099 14.6709 5.61026 14.5302 5.46962C14.3896 5.32898 14.1988 5.24994 13.9999 5.24989Z" fill="black"/>
<path d="M28.5307 27.4696L19.8101 18.7499H26.0004C26.1993 18.7499 26.3901 18.6709 26.5308 18.5302C26.6714 18.3896 26.7504 18.1988 26.7504 17.9999C26.7504 17.801 26.6714 17.6102 26.5308 17.4696C26.3901 17.3289 26.1993 17.2499 26.0004 17.2499H18.0004C17.8015 17.2499 17.6108 17.329 17.4702 17.4696C17.3295 17.6103 17.2505 17.801 17.2504 17.9999V25.9999C17.2504 26.1988 17.3295 26.3896 17.4701 26.5302C17.6108 26.6709 17.8015 26.7499 18.0004 26.7499C18.1993 26.7499 18.3901 26.6709 18.5308 26.5302C18.6714 26.3896 18.7504 26.1988 18.7504 25.9999V19.8113L27.4702 28.5302C27.5398 28.5998 27.6225 28.655 27.7134 28.6927C27.8044 28.7304 27.9019 28.7498 28.0004 28.7498C28.0989 28.7498 28.1964 28.7304 28.2874 28.6927C28.3784 28.655 28.4611 28.5998 28.5307 28.5302C28.6003 28.4605 28.6556 28.3779 28.6933 28.2869C28.731 28.1959 28.7504 28.0984 28.7504 27.9999C28.7504 27.9014 28.731 27.8039 28.6933 27.7129C28.6556 27.6219 28.6003 27.5392 28.5307 27.4696Z" fill="black"/>
</svg>
