<svg xmlns="http://www.w3.org/2000/svg" width="32" height="32" viewBox="0 0 32 32"><path d="M28.6688 12.6479C27.2716 9.35193 24.6479 6.72814 21.3518 5.33095C19.6571 4.62005 17.8377 4.25391 15.9998 4.25391C14.162 4.25391 12.3426 4.62005 10.6478 5.33095C7.2894 6.75228 4.63242 9.44851 3.26048 12.8274C1.88855 16.2064 1.91386 19.9917 3.33084 23.3519C3.96507 24.7797 4.85274 26.0807 5.95084 27.1919C6.11625 27.3683 6.31608 27.5087 6.53797 27.6047C6.75986 27.7007 6.99908 27.7501 7.24084 27.7499H24.7648C25.0045 27.75 25.2417 27.7011 25.4619 27.6062C25.682 27.5112 25.8804 27.3723 26.0448 27.1979C27.1451 26.0854 28.0342 24.7822 28.6688 23.3519C29.3823 21.6578 29.7499 19.8382 29.7499 17.9999C29.7499 16.1617 29.3823 14.3421 28.6688 12.6479ZM27.2878 22.7679C26.724 24.0365 25.9314 25.1904 24.9498 26.1719C24.9258 26.1967 24.8971 26.2164 24.8653 26.2298C24.8335 26.2432 24.7993 26.25 24.7648 26.2499H7.24084C7.20466 26.25 7.16884 26.2427 7.13551 26.2286C7.10219 26.2146 7.07203 26.1939 7.04684 26.1679C6.06726 25.1868 5.27585 24.0345 4.71184 22.7679C3.92678 20.9057 3.61467 18.8781 3.80333 16.8659C3.99199 14.8537 4.67556 12.9195 5.79312 11.2356C6.91067 9.55165 8.42748 8.1704 10.2084 7.21493C11.9892 6.25945 13.9788 5.75942 15.9998 5.75942C18.0208 5.75942 20.0105 6.25945 21.7913 7.21493C23.5722 8.1704 25.089 9.55165 26.2066 11.2356C27.3241 12.9195 28.0077 14.8537 28.1963 16.8659C28.385 18.8781 28.0729 20.9057 27.2878 22.7679Z M18.003 15.89L10.383 11.356C10.2402 11.2717 10.0735 11.2372 9.909 11.2577C9.74447 11.2783 9.59139 11.3528 9.4737 11.4696C9.356 11.5863 9.28032 11.7388 9.25848 11.9032C9.23665 12.0676 9.2699 12.2345 9.35303 12.378L13.836 20.055C14.0662 20.4703 14.3824 20.8317 14.7636 21.1148C15.1447 21.398 15.582 21.5965 16.046 21.697C16.236 21.732 16.429 21.749 16.622 21.749C17.4275 21.7534 18.2019 21.438 18.775 20.872L18.867 20.782L18.87 20.779C19.219 20.4244 19.4767 19.9902 19.6207 19.514C19.7648 19.0377 19.791 18.5336 19.697 18.045C19.6033 17.578 19.4011 17.1396 19.1069 16.7652C18.8127 16.3907 18.4345 16.0905 18.003 15.889V15.89ZM17.81 19.717L17.718 19.809C17.5355 19.9866 17.3125 20.1171 17.0682 20.1891C16.8239 20.261 16.5657 20.2723 16.316 20.222C16.0646 20.1579 15.8292 20.0424 15.6247 19.8826C15.4202 19.7229 15.2511 19.5224 15.128 19.294L12.111 14.127L17.299 17.212C17.5218 17.3208 17.7192 17.4754 17.8782 17.6656C18.0373 17.8558 18.1544 18.0774 18.222 18.316C18.2732 18.5654 18.2624 18.8235 18.1906 19.0678C18.1188 19.3121 17.9881 19.535 17.81 19.717Z"/></svg>