<svg xmlns="http://www.w3.org/2000/svg" width="32" height="32" viewBox="0 0 32 32"><path d="M10.7817 20H9.14406C8.36657 18.8133 7.96779 17.4184 8.00051 16C7.96737 14.5823 8.36435 13.1877 9.13918 12H10.7905C11.6542 11.9722 12.4729 11.6084 13.0725 10.9861C13.672 10.3638 14.005 9.53211 14.0005 8.668V5.22847C13.9996 4.3725 13.6591 3.55187 13.0539 2.94662C12.4486 2.34137 11.6279 2.00093 10.772 2H9.30517C6.7583 2 2.00049 6.10644 2.00049 16C2.00049 25.8936 6.7583 30 9.30517 30H10.772C11.6279 29.9991 12.4486 29.6586 13.0538 29.0533C13.6591 28.4481 13.9995 27.6274 14.0005 26.7715V23.2021C13.9972 22.351 13.6565 21.5359 13.0531 20.9356C12.4497 20.3353 11.6329 19.9988 10.7817 20ZM12.0005 26.7715C12.0002 27.0972 11.8707 27.4096 11.6404 27.6399C11.41 27.8702 11.0977 27.9997 10.772 28H9.30517C7.79541 28 4.00049 24.4307 4.00049 16C4.00049 7.56934 7.79541 4 9.30517 4H10.772C11.0977 4.00025 11.41 4.12977 11.6404 4.3601C11.8707 4.59044 12.0002 4.90277 12.0005 5.22851V8.66793C12.0074 9.00257 11.8858 9.32715 11.6608 9.5749C11.4357 9.82265 11.1243 9.97476 10.7905 9.99993H8.8374C7.30908 9.99993 6.00049 13.2988 6.00049 15.9999C6.00049 18.9716 7.43506 21.9999 8.84228 21.9999H10.7817C11.1027 21.9981 11.4112 22.1236 11.6397 22.349C11.8682 22.5744 11.9979 22.8812 12.0005 23.2021V26.7715ZM26.7817 20H25.1441C24.3666 18.8133 23.9678 17.4184 24.0005 16C23.9674 14.5823 24.3644 13.1877 25.1392 12H26.7905C27.6542 11.9722 28.4729 11.6084 29.0725 10.9861C29.672 10.3638 30.005 9.53211 30.0005 8.668V5.22847C29.9996 4.3725 29.6591 3.55187 29.0539 2.94662C28.4486 2.34137 27.6279 2.00093 26.772 2H25.3052C22.7583 2 18.0005 6.10644 18.0005 16C18.0005 25.8936 22.7583 30 25.3052 30H26.772C27.6279 29.9991 28.4486 29.6586 29.0538 29.0533C29.6591 28.4481 29.9995 27.6274 30.0005 26.7715V23.2021C29.9972 22.351 29.6565 21.5359 29.0531 20.9356C28.4497 20.3353 27.6329 19.9988 26.7817 20ZM28.0005 26.7715C28.0002 27.0972 27.8707 27.4096 27.6404 27.6399C27.41 27.8702 27.0977 27.9997 26.772 28H25.3052C23.7954 28 20.0005 24.4307 20.0005 16C20.0005 7.56934 23.7954 4 25.3052 4H26.772C27.0977 4.00025 27.41 4.12977 27.6404 4.3601C27.8707 4.59044 28.0002 4.90277 28.0005 5.22851V8.66793C28.0074 9.00257 27.8858 9.32715 27.6608 9.5749C27.4357 9.82265 27.1243 9.97476 26.7905 9.99993H24.8374C23.3091 9.99993 22.0005 13.2988 22.0005 15.9999C22.0005 18.9716 23.4351 21.9999 24.8423 21.9999H26.7817C27.1027 21.9981 27.4112 22.1236 27.6397 22.349C27.8682 22.5744 27.9979 22.8812 28.0005 23.2021V26.7715ZM14.207 12.2929L17.207 15.2928C17.2999 15.3857 17.3736 15.4959 17.4239 15.6172C17.4741 15.7385 17.5 15.8685 17.5 15.9999C17.5 16.1312 17.4741 16.2612 17.4239 16.3825C17.3736 16.5038 17.2999 16.6141 17.207 16.7069L14.2094 19.7047C14.1166 19.7981 14.0064 19.8722 13.885 19.9229C13.7635 19.9735 13.6333 19.9997 13.5017 20C13.3701 20.0002 13.2397 19.9744 13.1181 19.9242C12.9965 19.8739 12.886 19.8002 12.7929 19.7071C12.6999 19.6141 12.6261 19.5036 12.5759 19.382C12.5256 19.2604 12.4998 19.13 12.5001 18.9984C12.5003 18.8668 12.5265 18.7366 12.5771 18.6151C12.6278 18.4937 12.7019 18.3834 12.7953 18.2907L14.0859 16.9999L10.5001 17C10.2348 17 9.98049 16.8946 9.79296 16.7071C9.60542 16.5195 9.50006 16.2652 9.50006 16C9.50006 15.7347 9.60542 15.4804 9.79296 15.2929C9.98049 15.1053 10.2348 15 10.5001 15L14.0859 14.9999L12.7929 13.7069C12.6054 13.5194 12.5001 13.2651 12.5001 12.9999C12.5001 12.7347 12.6054 12.4804 12.7929 12.2929C12.9804 12.1053 13.2348 12 13.5 12C13.7651 12 14.0195 12.1053 14.207 12.2929Z"/></svg>