<svg xmlns="http://www.w3.org/2000/svg" width="32" height="32" viewBox="0 0 32 32"><path d="M14.0001 5.24985C13.8012 5.24985 13.6104 5.32886 13.4698 5.46952C13.3291 5.61017 13.2501 5.80093 13.2501 5.99985V12.1958L4.53009 3.46985C4.38792 3.33737 4.19987 3.26524 4.00557 3.26867C3.81127 3.2721 3.62588 3.35081 3.48847 3.48822C3.35106 3.62564 3.27234 3.81102 3.26892 4.00532C3.26549 4.19963 3.33761 4.38767 3.47009 4.52985L12.1821 13.2498H6.00009C5.80118 13.2498 5.61041 13.3289 5.46976 13.4695C5.32911 13.6102 5.25009 13.8009 5.25009 13.9998C5.25009 14.1988 5.32911 14.3895 5.46976 14.5302C5.61041 14.6708 5.80118 14.7498 6.00009 14.7498H14.0001C14.199 14.7498 14.3898 14.6708 14.5304 14.5302C14.6711 14.3895 14.7501 14.1988 14.7501 13.9998V5.99985C14.7501 5.80093 14.6711 5.61017 14.5304 5.46952C14.3898 5.32886 14.199 5.24985 14.0001 5.24985ZM28.5301 27.4698L19.8101 18.7498H26.0001C26.199 18.7498 26.3898 18.6708 26.5304 18.5302C26.6711 18.3895 26.7501 18.1988 26.7501 17.9998C26.7501 17.8009 26.6711 17.6102 26.5304 17.4695C26.3898 17.3289 26.199 17.2498 26.0001 17.2498H18.0001C17.8012 17.2498 17.6104 17.3289 17.4698 17.4695C17.3291 17.6102 17.2501 17.8009 17.2501 17.9998V25.9998C17.2501 26.1988 17.3291 26.3895 17.4698 26.5302C17.6104 26.6708 17.8012 26.7498 18.0001 26.7498C18.199 26.7498 18.3898 26.6708 18.5304 26.5302C18.6711 26.3895 18.7501 26.1988 18.7501 25.9998V19.8098L27.4701 28.5298C27.6116 28.6664 27.8011 28.7419 27.9977 28.7401C28.1944 28.7383 28.3825 28.6593 28.5215 28.5202C28.6604 28.3811 28.7392 28.1929 28.7408 27.9963C28.7425 27.7997 28.6668 27.6102 28.5301 27.4688V27.4698Z"/></svg>