<svg width="32" height="32" viewBox="0 0 32 32" fill="none" xmlns="http://www.w3.org/2000/svg">
<path d="M25.0004 6.0003H9.00044C8.73523 6.0003 8.48087 6.10565 8.29334 6.29319C8.1058 6.48073 8.00044 6.73508 8.00044 7.0003C8.00044 7.26551 8.1058 7.51987 8.29334 7.7074C8.48087 7.89494 8.73523 8.0003 9.00044 8.0003H22.5854L6.29341 24.2933C6.20056 24.3861 6.12691 24.4963 6.07666 24.6176C6.02641 24.739 6.00055 24.869 6.00055 25.0003C6.00055 25.1316 6.02641 25.2616 6.07666 25.3829C6.12691 25.5042 6.20056 25.6145 6.29341 25.7073C6.38626 25.8002 6.49649 25.8738 6.6178 25.9241C6.73911 25.9743 6.86913 26.0002 7.00044 26.0002C7.13175 26.0002 7.26177 25.9743 7.38308 25.9241C7.5044 25.8738 7.61463 25.8002 7.70747 25.7073L24.0005 9.41338V23.0003C24.0005 23.2655 24.1058 23.5199 24.2934 23.7074C24.4809 23.8949 24.7353 24.0003 25.0005 24.0003C25.2657 24.0003 25.52 23.8949 25.7076 23.7074C25.8951 23.5199 26.0005 23.2655 26.0005 23.0003V7.0003C26.0006 6.86895 25.9747 6.73888 25.9245 6.61752C25.8743 6.49616 25.8006 6.38588 25.7077 6.29301C25.6149 6.20014 25.5046 6.12648 25.3832 6.07625C25.2619 6.02603 25.1318 6.00022 25.0004 6.0003Z" fill="black"/>
</svg>
