<svg width="32" height="32" viewBox="0 0 32 32" fill="none" xmlns="http://www.w3.org/2000/svg">
<path d="M27.4995 2.25041C26.9032 2.25105 26.3315 2.4882 25.9099 2.90983C25.4883 3.33146 25.2511 3.90313 25.2505 4.49941V10.5004C25.2505 10.7959 25.3087 11.0885 25.4217 11.3614C25.5348 11.6344 25.7005 11.8825 25.9095 12.0914C26.1184 12.3003 26.3664 12.4661 26.6394 12.5791C26.9124 12.6922 27.205 12.7504 27.5005 12.7504C27.7959 12.7504 28.0885 12.6922 28.3615 12.5791C28.6345 12.4661 28.8825 12.3003 29.0914 12.0914C29.3004 11.8825 29.4661 11.6344 29.5792 11.3614C29.6923 11.0885 29.7505 10.7959 29.7505 10.5004V4.49941C29.7495 3.90287 29.512 3.33106 29.09 2.90943C28.668 2.4878 28.096 2.25079 27.4995 2.25041ZM28.2505 10.5004C28.2501 10.6992 28.1709 10.8897 28.0304 11.0303C27.8898 11.1709 27.6993 11.25 27.5005 11.2504C27.3018 11.25 27.1104 11.1708 26.97 11.0302C26.8295 10.8896 26.7506 10.6991 26.7505 10.5004V4.49941C26.7505 4.3005 26.8295 4.10973 26.9701 3.96908C27.1108 3.82843 27.3015 3.74941 27.5005 3.74941C27.6994 3.74941 27.8901 3.82843 28.0308 3.96908C28.1714 4.10973 28.2505 4.3005 28.2505 4.49941V10.5004Z" fill="black"/>
<path d="M20.5014 12.7504C21.0979 12.7496 21.6697 12.5123 22.0915 12.0905C22.5133 11.6687 22.7506 11.0969 22.7514 10.5004V4.49941C22.7514 3.90267 22.5144 3.33038 22.0924 2.90842C21.6704 2.48646 21.0981 2.24941 20.5014 2.24941C19.9047 2.24941 19.3324 2.48646 18.9104 2.90842C18.4885 3.33038 18.2514 3.90267 18.2514 4.49941V10.5004C18.2522 11.0969 18.4895 11.6687 18.9113 12.0905C19.3331 12.5123 19.9049 12.7496 20.5014 12.7504ZM19.7514 4.49941C19.7514 4.3005 19.8304 4.10973 19.9711 3.96908C20.1117 3.82843 20.3025 3.74941 20.5014 3.74941C20.7003 3.74941 20.8911 3.82843 21.0317 3.96908C21.1724 4.10973 21.2514 4.3005 21.2514 4.49941V10.5004C21.251 10.6992 21.1719 10.8897 21.0313 11.0303C20.8907 11.1709 20.7002 11.25 20.5014 11.2504C20.3027 11.25 20.1113 11.1708 19.9709 11.0302C19.8305 10.8896 19.7516 10.6991 19.7514 10.5004V4.49941Z" fill="black"/>
<path d="M24.0375 19.6986C23.4165 19.1034 22.5892 18.7715 21.7289 18.7724C20.8687 18.7733 20.0421 19.107 19.4223 19.7035C19.4223 19.7035 18.1625 20.9848 17.6879 21.4633C15.8025 21.4274 14.0043 20.6625 12.6708 19.329C11.3374 17.9956 10.5724 16.1974 10.5366 14.3119C11.0141 13.8373 12.2963 12.5756 12.3002 12.5717C12.603 12.269 12.8432 11.9097 13.0071 11.5141C13.171 11.1186 13.2553 10.6947 13.2553 10.2665C13.2553 9.83839 13.171 9.41445 13.0071 9.01893C12.8432 8.6234 12.603 8.26403 12.3002 7.96135L9.54731 5.20842C8.93323 4.59543 8.10101 4.25114 7.23334 4.25114C6.36567 4.25114 5.53346 4.59543 4.91938 5.20842L3.4477 6.6801C2.26801 7.85979 1.92817 10.2836 2.56294 13.0043C3.10884 15.351 4.63618 19.0229 8.80708 23.1928C12.977 27.3627 16.6489 28.8901 18.9955 29.4369C19.8428 29.6394 20.7104 29.7449 21.5815 29.7514C22.9354 29.8482 24.2744 29.4182 25.3188 28.5512L26.7905 27.0795C27.0945 26.7757 27.3357 26.415 27.5002 26.018C27.6648 25.6209 27.7495 25.1953 27.7495 24.7655C27.7495 24.3358 27.6648 23.9102 27.5002 23.5131C27.3357 23.1161 27.0945 22.7554 26.7905 22.4516L24.0375 19.6986ZM25.7299 26.019L24.2582 27.4907C23.6205 28.1284 21.808 28.5503 19.3364 27.976C17.1801 27.4731 13.7875 26.0522 9.86762 22.1323C5.94769 18.2124 4.52583 14.8198 4.0229 12.6635C3.44673 10.1909 3.87055 8.37837 4.50825 7.74067L5.97993 6.269C6.31255 5.93694 6.76335 5.75044 7.23335 5.75044C7.70335 5.75044 8.15415 5.93694 8.48677 6.269L11.2397 9.02192C11.5692 9.35132 11.7546 9.7979 11.7553 10.2638C11.756 10.7297 11.572 11.1768 11.2436 11.5073C11.2436 11.5073 9.74165 12.9848 9.37837 13.3481C9.24562 13.5095 9.14634 13.6958 9.08631 13.8959C9.02629 14.0961 9.00672 14.3063 9.02876 14.5141C9.14489 16.7214 10.0626 18.8104 11.6098 20.3891C13.9105 22.6879 17.7885 23.4838 18.6498 22.6225C19.013 22.2592 20.4876 20.7592 20.4876 20.7592C20.8232 20.4395 21.2688 20.2612 21.7323 20.2612C22.1957 20.2612 22.6414 20.4395 22.9769 20.7592L25.7298 23.5121C25.8945 23.6767 26.0252 23.8721 26.1143 24.0872C26.2035 24.3022 26.2494 24.5328 26.2494 24.7656C26.2494 24.9984 26.2035 25.2289 26.1143 25.444C26.0252 25.6591 25.8946 25.8545 25.7299 26.019Z" fill="black"/>
</svg>
