<svg width="32" height="32" viewBox="0 0 32 32" fill="none" xmlns="http://www.w3.org/2000/svg">
<path d="M29.5302 6.46961L25.5302 2.46961C25.4606 2.39995 25.3779 2.3447 25.2869 2.30699C25.1959 2.26929 25.0984 2.24989 24.9999 2.24989C24.9014 2.24989 24.8039 2.26929 24.7129 2.30699C24.6219 2.3447 24.5393 2.39995 24.4697 2.46961L20.4697 6.46961C20.3295 6.61034 20.2508 6.80094 20.251 6.99958C20.2512 7.19821 20.3302 7.38866 20.4707 7.52912C20.6111 7.66958 20.8016 7.74857 21.0002 7.74877C21.1989 7.74896 21.3895 7.67034 21.5302 7.53016L24.2499 4.81043V24.1249C24.2835 25.165 23.9108 26.1772 23.2108 26.9472C22.5108 27.7172 21.5385 28.1845 20.4999 28.2499C19.4614 28.1845 18.4891 27.7172 17.7891 26.9472C17.0891 26.1772 16.7164 25.165 16.7499 24.1249V7.87489C16.7788 6.43849 16.2466 5.0474 15.2663 3.9971C14.286 2.94679 12.9349 2.32001 11.4999 2.24989C10.0649 2.32001 8.71382 2.94679 7.73353 3.9971C6.75325 5.0474 6.22103 6.43849 6.24992 7.87489V27.1903L3.53019 24.4706C3.4606 24.4007 3.37792 24.3453 3.28688 24.3074C3.19584 24.2695 3.09822 24.25 2.99961 24.2499C2.90101 24.2498 2.80335 24.2692 2.71224 24.3069C2.62112 24.3445 2.53833 24.3998 2.46861 24.4696C2.39888 24.5393 2.34359 24.6221 2.3059 24.7132C2.26822 24.8043 2.24887 24.902 2.24896 25.0006C2.24906 25.0992 2.2686 25.1968 2.30647 25.2878C2.34434 25.3789 2.39979 25.4616 2.46965 25.5311L6.46965 29.5311C6.53927 29.6008 6.62194 29.6561 6.71293 29.6938C6.80391 29.7315 6.90143 29.7509 6.99992 29.7509C7.09841 29.7509 7.19593 29.7315 7.28692 29.6938C7.3779 29.6561 7.46057 29.6008 7.53019 29.5311L11.5302 25.5311C11.6704 25.3904 11.749 25.1998 11.7488 25.0012C11.7486 24.8025 11.6696 24.6121 11.5292 24.4716C11.3887 24.3312 11.1983 24.2522 10.9996 24.252C10.801 24.2518 10.6104 24.3304 10.4697 24.4706L7.74992 27.1903V7.87489C7.71637 6.83481 8.08908 5.82253 8.78908 5.05254C9.48908 4.28254 10.4614 3.81533 11.4999 3.74989C12.5385 3.81533 13.5108 4.28254 14.2108 5.05254C14.9108 5.82253 15.2835 6.83481 15.2499 7.87489V24.1249C15.221 25.5613 15.7533 26.9524 16.7335 28.0027C17.7138 29.053 19.0649 29.6798 20.4999 29.7499C21.9349 29.6798 23.286 29.053 24.2663 28.0027C25.2466 26.9524 25.7788 25.5613 25.7499 24.1249V4.81043L28.4697 7.53016C28.5392 7.60002 28.6219 7.65547 28.713 7.69334C28.804 7.73121 28.9016 7.75075 29.0002 7.75084C29.0988 7.75094 29.1965 7.73159 29.2876 7.6939C29.3787 7.65621 29.4615 7.60092 29.5312 7.5312C29.601 7.46147 29.6562 7.37868 29.6939 7.28756C29.7316 7.19645 29.751 7.09879 29.7509 7.00019C29.7508 6.90158 29.7312 6.80397 29.6934 6.71292C29.6555 6.62188 29.6001 6.5392 29.5302 6.46961Z" fill="black"/>
</svg>
