<svg width="32" height="32" viewBox="0 0 32 32" fill="none" xmlns="http://www.w3.org/2000/svg">
<path d="M23.0009 27.9997H9C7.67439 27.9981 6.40353 27.4709 5.46619 26.5335C4.52884 25.5962 4.00156 24.3253 4 22.9997C4 22.7345 4.10535 22.4801 4.29289 22.2926C4.48043 22.1051 4.73478 21.9997 5 21.9997C5.26521 21.9997 5.51957 22.1051 5.7071 22.2926C5.89464 22.4801 6 22.7345 6 22.9997C6.00087 23.7951 6.31722 24.5576 6.87964 25.1201C7.44206 25.6825 8.20461 25.9988 9 25.9997H23.0009C23.7963 25.9988 24.5589 25.6825 25.1213 25.1201C25.6837 24.5576 26.0001 23.7951 26.0009 22.9997V7.99579C26.0003 7.46554 25.7894 6.95719 25.4145 6.58224C25.0396 6.2073 24.5312 5.99639 24.0009 5.99579H16.9999C16.4697 5.99639 15.9613 6.2073 15.5864 6.58224C15.2115 6.95719 15.0006 7.46554 14.9999 7.99579V10.9997C14.9999 11.2649 14.8946 11.5193 14.7071 11.7068C14.5195 11.8943 14.2652 11.9997 13.9999 11.9997C13.7347 11.9997 13.4804 11.8943 13.2928 11.7068C13.1053 11.5193 12.9999 11.2649 12.9999 10.9997V7.99579C13.0011 6.93527 13.4229 5.91851 14.1728 5.16861C14.9227 4.41871 15.9394 3.99692 16.9999 3.99579H24.0009C25.0615 3.99692 26.0782 4.41871 26.8281 5.16861C27.578 5.91851 27.9998 6.93527 28.0009 7.99579V22.9997C27.9994 24.3253 27.4721 25.5962 26.5348 26.5335C25.5974 27.4709 24.3266 27.9981 23.0009 27.9997Z" fill="black"/>
<path d="M15.2085 23.9958C12.8877 23.9958 9.66113 22.7624 6.4497 19.5505C1.53515 14.6364 1.25048 9.68524 2.93457 8.00067L3.89995 7.03583C4.39819 6.53867 5.07329 6.25946 5.77714 6.25946C6.48099 6.25946 7.1561 6.53867 7.65434 7.03583L9.45995 8.84149C9.70577 9.08715 9.90077 9.37884 10.0338 9.69989C10.1669 10.0209 10.2353 10.3651 10.2353 10.7126C10.2353 11.0601 10.1669 11.4042 10.0338 11.7253C9.90077 12.0463 9.70577 12.338 9.45995 12.5837C9.45555 12.5886 8.96095 13.0739 8.58983 13.4411C9.03031 14.2845 9.60243 15.0523 10.2846 15.7155C10.9479 16.3976 11.7157 16.9695 12.5591 17.4098C12.9253 17.0388 13.4101 16.5456 13.4101 16.5456C13.6559 16.2991 13.9478 16.1034 14.2692 15.9697C14.5905 15.8359 14.9351 15.7668 15.2832 15.7663C15.6313 15.7658 15.9761 15.8338 16.2979 15.9665C16.6197 16.0992 16.9122 16.294 17.1587 16.5397L18.9643 18.3454C19.4613 18.8438 19.7403 19.5189 19.7404 20.2227C19.7405 20.9266 19.4616 21.6017 18.9648 22.1003L17.999 23.0651C17.2259 23.7276 16.2245 24.0616 15.2085 23.9958ZM5.77734 8.25849C5.69129 8.25825 5.60605 8.27505 5.52653 8.30789C5.447 8.34074 5.37476 8.389 5.31396 8.44989L4.34863 9.41474C3.79785 9.96649 3.27587 13.5485 7.86377 18.1364C12.4521 22.7243 16.0318 22.2028 16.585 21.6511L17.5503 20.6862C17.6728 20.5631 17.7415 20.3964 17.7414 20.2227C17.7413 20.0491 17.6724 19.8825 17.5498 19.7595L15.7446 17.9538C15.6231 17.833 15.4587 17.7652 15.2873 17.7652C15.116 17.7652 14.9516 17.833 14.8301 17.9538C14.8301 17.9538 13.8642 18.9362 13.6255 19.1755C12.2861 20.5182 9.00927 17.2682 8.8706 17.1296C8.73144 16.9909 5.48584 13.7136 6.82373 12.3757C7.06298 12.1354 8.05173 11.1638 8.05173 11.1638C8.17045 11.0421 8.23641 10.8785 8.23531 10.7085C8.23422 10.5384 8.16615 10.3757 8.04587 10.2556L6.24023 8.44989C6.1795 8.38905 6.10734 8.34081 6.0279 8.30796C5.94846 8.27512 5.8633 8.2583 5.77734 8.25849Z" fill="black"/>
</svg>
