<svg xmlns="http://www.w3.org/2000/svg" width="32" height="32" viewBox="0 0 32 32"><path d="M23.9999 2.5C22.9121 2.5 21.8487 2.82257 20.9443 3.42692C20.0398 4.03126 19.3349 4.89025 18.9186 5.89524C18.5023 6.90023 18.3934 8.0061 18.6056 9.073C18.8178 10.1399 19.3416 11.1199 20.1108 11.8891C20.88 12.6583 21.86 13.1821 22.9269 13.3943C23.9938 13.6065 25.0997 13.4976 26.1047 13.0813C27.1097 12.6651 27.9686 11.9601 28.573 11.0556C29.1773 10.1512 29.4999 9.0878 29.4999 8C29.4981 6.54188 28.918 5.14401 27.887 4.11296C26.8559 3.08191 25.458 2.50185 23.9999 2.5ZM23.9999 3.5C25.1036 3.50324 26.1675 3.91289 26.9883 4.65072C27.8091 5.38856 28.3295 6.40288 28.4499 7.5H19.5499C19.6704 6.40288 20.1907 5.38856 21.0115 4.65072C21.8324 3.91289 22.8962 3.50324 23.9999 3.5ZM23.9999 12.5C22.8962 12.4968 21.8324 12.0871 21.0115 11.3493C20.1907 10.6114 19.6704 9.59712 19.5499 8.5H28.4499C28.3295 9.59712 27.8091 10.6114 26.9883 11.3493C26.1675 12.0871 25.1036 12.4968 23.9999 12.5ZM23.8609 19.876C23.287 19.328 22.5238 19.0225 21.7303 19.023C20.9368 19.0236 20.174 19.3302 19.6009 19.879C19.6009 19.879 18.1289 21.376 17.8399 21.684C16.8472 21.7049 15.8607 21.5222 14.9413 21.1473C14.0219 20.7723 13.189 20.2131 12.4939 19.504C11.0952 18.1029 10.295 16.2135 10.2619 14.234C10.6239 13.869 12.1219 12.398 12.1239 12.396C12.6872 11.8309 13.0036 11.0654 13.0036 10.2675C13.0036 9.46955 12.6872 8.70414 12.1239 8.139L9.36991 5.385C8.80252 4.81941 8.03405 4.50182 7.23291 4.50182C6.43177 4.50182 5.6633 4.81941 5.09591 5.385L3.62391 6.856C1.74091 8.74 1.38091 15.413 8.98391 23.016C13.8969 27.93 18.4219 29.516 21.5169 29.516C22.8267 29.6102 24.1231 29.2023 25.1429 28.375L26.6139 26.903C26.8946 26.6224 27.1172 26.2892 27.2691 25.9226C27.421 25.5559 27.4992 25.1629 27.4992 24.766C27.4992 24.3691 27.421 23.9761 27.2691 23.6094C27.1172 23.2428 26.8946 22.9096 26.6139 22.629L23.8609 19.876ZM25.9069 26.196L24.4359 27.668C23.0529 29.047 16.8499 29.468 9.69091 22.308C2.52991 15.15 2.94991 8.945 4.32991 7.563L5.80191 6.092C6.18165 5.71364 6.69585 5.50119 7.23191 5.50119C7.76797 5.50119 8.28217 5.71364 8.66191 6.092L11.4159 8.846C11.7917 9.22283 12.003 9.73317 12.0036 10.2654C12.0042 10.7976 11.7939 11.3084 11.4189 11.686C11.4189 11.686 9.91591 13.162 9.55291 13.526C8.97291 14.106 9.48591 16.058 9.54691 16.28C9.94749 17.7596 10.7184 19.1129 11.7869 20.212C12.8866 21.2797 14.2396 22.0505 15.7189 22.452C15.9389 22.511 17.8929 23.025 18.4729 22.445C18.8359 22.082 20.3109 20.583 20.3109 20.583C20.6936 20.2173 21.2026 20.0133 21.7319 20.0133C22.2612 20.0133 22.7702 20.2173 23.1529 20.583L25.9059 23.336C26.2843 23.7157 26.4967 24.2299 26.4967 24.766C26.4967 25.3021 26.2843 25.8163 25.9059 26.196H25.9069Z"/></svg>