<svg xmlns="http://www.w3.org/2000/svg" width="32" height="32" viewBox="0 0 32 32"><path d="M28.4398 12.745C27.0668 9.50974 24.4911 6.93404 21.2558 5.56103C19.5913 4.86485 17.805 4.50635 16.0008 4.50635C14.1966 4.50635 12.4103 4.86485 10.7458 5.56103C7.44864 6.95702 4.84012 9.60426 3.49285 12.9216C2.14558 16.239 2.16966 19.9554 3.5598 23.255C4.1834 24.6555 5.05547 25.9314 6.1338 27.021C6.27571 27.1725 6.44716 27.2932 6.63756 27.3757C6.82796 27.4583 7.03327 27.5009 7.2408 27.501H24.7648C24.9703 27.5009 25.1736 27.4588 25.3622 27.3772C25.5509 27.2957 25.7209 27.1766 25.8618 27.027C26.9417 25.936 27.8145 24.6579 28.4378 23.255C29.1381 21.5916 29.499 19.805 29.4991 18.0001C29.4993 16.1953 29.1388 14.4086 28.4388 12.745H28.4398ZM27.5168 22.865C26.9421 24.161 26.1336 25.34 25.1318 26.343C25.0845 26.3928 25.0276 26.4323 24.9645 26.4593C24.9014 26.4863 24.8334 26.5002 24.7648 26.5H7.2408C7.1702 26.5004 7.1003 26.4862 7.03543 26.4583C6.97057 26.4304 6.91215 26.3895 6.8638 26.338C5.86368 25.3365 5.05626 24.1596 4.4818 22.866C3.8332 21.3519 3.49019 19.7245 3.47248 18.0773C3.45477 16.4302 3.76271 14.7958 4.37861 13.2681C4.9945 11.7403 5.90621 10.3493 7.06135 9.17502C8.21649 8.00071 9.59229 7.06624 11.1097 6.42528C12.6271 5.78433 14.2562 5.44953 15.9034 5.44013C17.5506 5.43073 19.1834 5.74691 20.708 6.37051C22.2327 6.9941 23.619 7.91281 24.7875 9.07386C25.956 10.2349 26.8835 11.6154 27.5168 13.136C28.1651 14.676 28.4991 16.3301 28.4991 18.001C28.4991 19.6719 28.1651 21.326 27.5168 22.866V22.865Z M17.8752 16.1039L10.2552 11.5709C10.1601 11.5147 10.0489 11.4916 9.93925 11.5053C9.82956 11.5189 9.72748 11.5685 9.64898 11.6464C9.57047 11.7242 9.51997 11.8258 9.50536 11.9354C9.49075 12.045 9.51287 12.1563 9.56824 12.2519L14.0502 19.9279C14.2626 20.3124 14.5545 20.6472 14.9064 20.91C15.2583 21.1728 15.6623 21.3576 16.0912 21.4519C16.2662 21.4829 16.4442 21.4989 16.6212 21.4989C17.3611 21.5037 18.0725 21.2145 18.5992 20.6949L18.6912 20.6039L18.6932 20.6019C19.0109 20.284 19.2467 19.8939 19.3806 19.4649C19.5145 19.0359 19.5424 18.5809 19.462 18.1387C19.3816 17.6966 19.1953 17.2805 18.9189 16.9262C18.6426 16.5718 18.2845 16.2897 17.8752 16.1039ZM17.9872 19.8939L17.8942 19.9859C17.6843 20.1937 17.4263 20.3464 17.1432 20.4303C16.86 20.5142 16.5605 20.5268 16.2712 20.4669C15.9842 20.3966 15.715 20.2672 15.4808 20.0869C15.2466 19.9066 15.0526 19.6795 14.9112 19.4199L11.4072 13.4199L17.4062 16.9859C17.6632 17.1141 17.8904 17.2947 18.0733 17.516C18.2562 17.7373 18.3908 17.9945 18.4682 18.2709C18.5276 18.5601 18.5149 18.8594 18.4312 19.1425C18.3474 19.4255 18.1953 19.6836 17.9882 19.8939H17.9872Z"/></svg>