<svg width="32" height="32" viewBox="0 0 32 32" fill="none" xmlns="http://www.w3.org/2000/svg">
<path d="M25.707 6.29303C25.5195 6.10556 25.2652 6.00024 25 6.00024C24.7348 6.00024 24.4805 6.10556 24.293 6.29303L8 22.586V9.00003C8 8.73481 7.89464 8.48046 7.70711 8.29292C7.51957 8.10539 7.26522 8.00003 7 8.00003C6.73478 8.00003 6.48043 8.10539 6.29289 8.29292C6.10536 8.48046 6 8.73481 6 9.00003V25C6 25.2652 6.10536 25.5196 6.29289 25.7071C6.48043 25.8947 6.73478 26 7 26H23C23.2652 26 23.5196 25.8947 23.7071 25.7071C23.8946 25.5196 24 25.2652 24 25C24 24.7348 23.8946 24.4805 23.7071 24.2929C23.5196 24.1054 23.2652 24 23 24H9.414L25.708 7.70703C25.8955 7.5195 26.0008 7.26519 26.0008 7.00003C26.0008 6.73487 25.8955 6.48056 25.708 6.29303H25.707Z" fill="#0F0F0F"/>
</svg>
