<svg xmlns="http://www.w3.org/2000/svg" width="32" height="32" viewBox="0 0 32 32"><path d="M24.001 4.24609H17.001C16.0068 4.24715 15.0536 4.64258 14.3505 5.34561C13.6475 6.04865 13.2521 7.00186 13.251 7.99609V11.0001C13.251 11.199 13.33 11.3898 13.4707 11.5304C13.6113 11.6711 13.8021 11.7501 14.001 11.7501C14.1999 11.7501 14.3907 11.6711 14.5313 11.5304C14.672 11.3898 14.751 11.199 14.751 11.0001V7.99609C14.7518 7.39977 14.989 6.82809 15.4105 6.40633C15.8321 5.98458 16.4037 5.74715 17 5.74609H24C24.5965 5.74689 25.1683 5.9842 25.5901 6.40598C26.0119 6.82777 26.2492 7.3996 26.25 7.99609V23.0001C26.2489 23.8617 25.9062 24.6878 25.2969 25.297C24.6877 25.9063 23.8616 26.249 23 26.2501H9C8.13837 26.249 7.31234 25.9063 6.70307 25.297C6.09381 24.6878 5.75106 23.8617 5.75 23.0001C5.75 22.8012 5.67098 22.6104 5.53033 22.4698C5.38968 22.3291 5.19891 22.2501 5 22.2501C4.80109 22.2501 4.61032 22.3291 4.46967 22.4698C4.32902 22.6104 4.25 22.8012 4.25 23.0001C4.25159 24.2594 4.75254 25.4666 5.643 26.3571C6.53345 27.2476 7.74071 27.7485 9 27.7501H23C24.2594 27.7488 25.4668 27.2479 26.3573 26.3574C27.2478 25.4669 27.7487 24.2595 27.75 23.0001V7.99609C27.7487 7.00194 27.3532 6.04888 26.6502 5.3459C25.9472 4.64293 24.9942 4.24742 24 4.24609H24.001Z M13.4328 23.5381C14.0049 23.6751 14.5907 23.7462 15.1788 23.7501C16.1382 23.8153 17.0855 23.5064 17.8218 22.8881L18.7878 21.9231C19.2373 21.4715 19.4896 20.8602 19.4896 20.2231C19.4896 19.5859 19.2373 18.9747 18.7878 18.5231L16.9818 16.7171C16.5313 16.2679 15.9208 16.0159 15.2845 16.0167C14.6483 16.0174 14.0384 16.2708 13.5888 16.7211L12.6158 17.7091C11.6755 17.2623 10.8253 16.6464 10.1078 15.8921C9.35303 15.1752 8.73734 14.3249 8.29185 13.3841L9.28285 12.4071C9.50554 12.1847 9.6822 11.9205 9.80273 11.6298C9.92327 11.339 9.98531 11.0273 9.98531 10.7126C9.98531 10.3978 9.92327 10.0862 9.80273 9.79542C9.6822 9.50466 9.50554 9.24052 9.28285 9.01808L7.47785 7.21308C7.01957 6.77604 6.41061 6.53223 5.77735 6.53223C5.14408 6.53223 4.53513 6.77604 4.07685 7.21308L3.11085 8.17708C1.77285 9.51708 1.42885 14.1771 6.62685 19.3741C8.46042 21.3725 10.8188 22.8154 13.4328 23.5381ZM4.17185 9.23808L5.13685 8.27308C5.3067 8.10357 5.53688 8.00836 5.77685 8.00836C6.01682 8.00836 6.24699 8.10357 6.41685 8.27308L8.22285 10.0791C8.39009 10.2462 8.48439 10.4728 8.48513 10.7093C8.48588 10.9457 8.39303 11.1729 8.22685 11.3411C8.22685 11.3411 7.23985 12.3121 7.00085 12.5521C5.85585 13.6971 9.01485 16.9211 9.04685 16.9521C9.07985 16.9851 12.3048 20.1381 13.4478 19.0001C13.6878 18.7601 14.6518 17.7791 14.6528 17.7771C14.8213 17.6095 15.0492 17.5155 15.2868 17.5155C15.5245 17.5155 15.7524 17.6095 15.9208 17.7771L17.7268 19.5831C17.8961 19.7531 17.9912 19.9832 17.9912 20.2231C17.9912 20.463 17.8961 20.6931 17.7268 20.8631L16.7618 21.8281C15.9698 22.6171 12.1078 22.7351 7.68685 18.3131C3.26485 13.8911 3.38085 10.0291 4.17185 9.23808Z"/></svg>