<svg width="32" height="32" viewBox="0 0 32 32" fill="none" xmlns="http://www.w3.org/2000/svg">
<path d="M12.3539 8.35347L15.5004 5.207V12C15.5004 12.1326 15.5531 12.2598 15.6469 12.3536C15.7406 12.4473 15.8678 12.5 16.0004 12.5C16.133 12.5 16.2602 12.4473 16.354 12.3536C16.4477 12.2598 16.5004 12.1326 16.5004 12V5.207L19.6469 8.35348C19.6932 8.40068 19.7483 8.43823 19.8092 8.46398C19.87 8.48973 19.9354 8.50316 20.0015 8.50349C20.0675 8.50383 20.133 8.49106 20.1941 8.46593C20.2552 8.44079 20.3108 8.40379 20.3575 8.35707C20.4042 8.31034 20.4412 8.25482 20.4664 8.19371C20.4915 8.13259 20.5043 8.0671 20.5039 8.00103C20.5036 7.93495 20.4902 7.86959 20.4644 7.80873C20.4387 7.74788 20.4011 7.69273 20.3539 7.64648L16.3539 3.64648C16.3075 3.60005 16.2524 3.56321 16.1917 3.53808C16.1311 3.51295 16.0661 3.50001 16.0004 3.50001C15.9348 3.50001 15.8697 3.51295 15.8091 3.53808C15.7484 3.56321 15.6933 3.60005 15.6469 3.64648L11.6469 7.64648C11.5547 7.74056 11.5034 7.86722 11.504 7.99893C11.5047 8.13065 11.5573 8.25679 11.6505 8.34993C11.7436 8.44307 11.8697 8.49569 12.0015 8.49635C12.1332 8.49702 12.2599 8.44566 12.3539 8.35347Z" fill="black"/>
<path d="M16.0004 17.5C6.46043 17.5 2.50043 21.9316 2.50043 24.3047V25.7715C2.50112 26.4949 2.7888 27.1885 3.30035 27.7001C3.81189 28.2116 4.5055 28.4993 5.22894 28.5H8.79828C9.51689 28.497 10.205 28.2091 10.7115 27.6994C11.2181 27.1897 11.5018 26.4999 11.5004 25.7813V23.9287C12.7899 22.946 14.3803 22.441 16.0004 22.5C17.6196 22.441 19.2094 22.9437 20.5004 23.9228L20.4994 25.79C20.5255 26.5216 20.8361 27.2141 21.365 27.7202C21.8939 28.2263 22.5994 28.5061 23.3314 28.5H26.7719C27.4953 28.4993 28.1889 28.2116 28.7004 27.7001C29.212 27.1885 29.4997 26.4949 29.5004 25.7715V24.3047C29.5004 21.9316 25.5405 17.5 16.0004 17.5ZM28.5004 25.7715C28.4999 26.2298 28.3176 26.6691 27.9936 26.9932C27.6695 27.3172 27.2302 27.4995 26.7719 27.5H23.3315C22.8652 27.5037 22.4153 27.3285 22.0745 27.0103C21.7336 26.6922 21.5278 26.2554 21.4995 25.79L21.5005 23.8369C21.5005 22.8379 18.7817 21.5 16.0005 21.5C13.2192 21.5 10.5005 22.8418 10.5005 23.8427V25.7812C10.5021 26.2347 10.3238 26.6703 10.0047 26.9925C9.68559 27.3147 9.25174 27.4972 8.79828 27.5H5.22894C4.77066 27.4995 4.33131 27.3172 4.00726 26.9932C3.68321 26.6691 3.50094 26.2298 3.50043 25.7715V24.3047C3.50043 22.5966 7.09711 18.5 16.0004 18.5C24.9037 18.5 28.5004 22.5966 28.5004 24.3047V25.7715Z" fill="black"/>
</svg>
