<svg xmlns="http://www.w3.org/2000/svg" width="32" height="32" viewBox="0 0 32 32"><path d="M20.7791 7.50008H27.2211C27.731 7.50106 28.2266 7.33131 28.6288 7.01789C29.031 6.70446 29.3167 6.26541 29.4404 5.77072C29.564 5.27604 29.5185 4.75419 29.3111 4.28838C29.1036 3.82257 28.7462 3.43961 28.2959 3.20054C27.8455 2.96148 27.328 2.88008 26.826 2.96932C26.3239 3.05856 25.8662 3.3133 25.5258 3.69293C25.1854 4.07256 24.9818 4.55523 24.9476 5.06399C24.9134 5.57275 25.0506 6.07831 25.3371 6.50008H22.6631C22.9479 6.0794 23.0838 5.57553 23.0491 5.06868C23.0144 4.56184 22.8112 4.08118 22.4717 3.70322C22.1322 3.32526 21.6761 3.07175 21.1758 2.98305C20.6756 2.89434 20.1601 2.97554 19.7114 3.21372C19.2626 3.4519 18.9065 3.83337 18.6996 4.29738C18.4928 4.76139 18.4471 5.28126 18.5699 5.77423C18.6927 6.26719 18.9769 6.7049 19.3773 7.01765C19.7776 7.33041 20.2711 7.50023 20.7791 7.50008ZM25.9431 5.22208C25.9383 5.05118 25.9677 4.88104 26.0298 4.72172C26.0918 4.56241 26.1852 4.41714 26.3043 4.29453C26.4234 4.17191 26.566 4.07442 26.7234 4.00783C26.8809 3.94124 27.0501 3.90689 27.2211 3.90683C27.3921 3.90676 27.5613 3.94097 27.7188 4.00744C27.8764 4.07391 28.019 4.17128 28.1382 4.29381C28.2574 4.41633 28.3509 4.56152 28.4131 4.72079C28.4752 4.88006 28.5048 5.05018 28.5001 5.22108C28.4909 5.55397 28.3523 5.87016 28.1136 6.10242C27.875 6.33468 27.5551 6.46469 27.2221 6.46482C26.8891 6.46495 26.5691 6.33519 26.3303 6.10312C26.0915 5.87105 25.9526 5.55497 25.9431 5.22208ZM20.7791 3.94408C20.95 3.9393 21.1201 3.96883 21.2794 4.03093C21.4387 4.09304 21.584 4.18644 21.7065 4.30564C21.8291 4.42483 21.9265 4.56739 21.9931 4.72488C22.0596 4.88238 22.0939 5.05161 22.0939 5.22258C22.0939 5.39355 22.0596 5.56279 21.9931 5.72028C21.9265 5.87778 21.8291 6.02033 21.7065 6.13953C21.584 6.25872 21.4387 6.35213 21.2794 6.41423C21.1201 6.47633 20.95 6.50586 20.7791 6.50108C20.4462 6.49177 20.1301 6.35299 19.8979 6.11424C19.6658 5.87549 19.5359 5.5556 19.5359 5.22258C19.5359 4.88956 19.6658 4.56967 19.8979 4.33092C20.1301 4.09217 20.4462 3.95339 20.7791 3.94408ZM29.0001 10.5001H19.0001C18.8675 10.5001 18.7403 10.5528 18.6466 10.6465C18.5528 10.7403 18.5001 10.8675 18.5001 11.0001C18.5001 11.1327 18.5528 11.2599 18.6466 11.3536C18.7403 11.4474 18.8675 11.5001 19.0001 11.5001H29.0001C29.1327 11.5001 29.2599 11.4474 29.3537 11.3536C29.4474 11.2599 29.5001 11.1327 29.5001 11.0001C29.5001 10.8675 29.4474 10.7403 29.3537 10.6465C29.2599 10.5528 29.1327 10.5001 29.0001 10.5001ZM23.8601 19.8751C23.2946 19.3113 22.5285 18.995 21.73 18.9955C20.9315 18.9961 20.1658 19.3135 19.6011 19.8781C19.6011 19.8781 18.1281 21.3761 17.8391 21.6851C16.8467 21.7051 15.8606 21.5221 14.9414 21.1472C14.0223 20.7724 13.1894 20.2135 12.4941 19.5051C11.0949 18.1034 10.2944 16.2133 10.2611 14.2331C10.6241 13.8701 12.1211 12.3981 12.1241 12.3951C12.4039 12.1157 12.6258 11.7839 12.7773 11.4187C12.9287 11.0535 13.0067 10.662 13.0067 10.2666C13.0067 9.8712 12.9287 9.4797 12.7773 9.11447C12.6258 8.74925 12.4039 8.41746 12.1241 8.13808L9.37011 5.38508C8.80268 4.81919 8.03399 4.5014 7.23261 4.5014C6.43123 4.5014 5.66254 4.81919 5.09511 5.38508L3.62411 6.85708C2.52211 7.95908 2.20111 10.3501 2.80611 12.9471C3.34611 15.2621 4.85511 18.8881 8.98411 23.0161C13.8981 27.9301 18.4221 29.5161 21.5171 29.5161C22.8264 29.6105 24.1225 29.2029 25.1421 28.3761L26.6141 26.9041C26.8951 26.6234 27.1179 26.2901 27.27 25.9233C27.4221 25.5564 27.5004 25.1632 27.5004 24.7661C27.5004 24.369 27.4221 23.9757 27.27 23.6089C27.1179 23.242 26.8951 22.9087 26.6141 22.6281L23.8611 19.8751H23.8601ZM25.9071 26.1971L24.4351 27.6681C23.0561 29.0481 16.8501 29.4691 9.69111 22.3081C5.72911 18.3481 4.28911 14.9081 3.78011 12.7201C3.17811 10.1401 3.62311 8.27208 4.33111 7.56408L5.80311 6.09208C6.18259 5.71323 6.69689 5.50045 7.23311 5.50045C7.76933 5.50045 8.28363 5.71323 8.66311 6.09208L11.4161 8.84508C11.7927 9.22153 12.0045 9.732 12.005 10.2645C12.0056 10.7969 11.7949 11.3078 11.4191 11.6851C11.4191 11.6851 9.91911 13.1611 9.55411 13.5251C8.97511 14.1051 9.48811 16.0591 9.54711 16.2801C9.94843 17.7594 10.7192 19.1125 11.7871 20.2121C14.0901 22.5161 17.7801 23.1421 18.4731 22.4461C18.8361 22.0821 20.3111 20.5821 20.3111 20.5821C20.694 20.2164 21.2031 20.0123 21.7326 20.0123C22.2621 20.0123 22.7712 20.2164 23.1541 20.5821L25.9071 23.3351C26.2863 23.7148 26.4993 24.2295 26.4993 24.7661C26.4993 25.3027 26.2863 25.8174 25.9071 26.1971Z"/></svg>