<svg width="32" height="32" viewBox="0 0 32 32" fill="none" xmlns="http://www.w3.org/2000/svg">
<path d="M25.354 6.647C25.2602 6.55327 25.1331 6.50061 25.0005 6.50061C24.8679 6.50061 24.7408 6.55327 24.647 6.647L7.5 23.792V9C7.5 8.8674 7.44732 8.74022 7.35355 8.64645C7.25979 8.55268 7.13261 8.5 7 8.5C6.86739 8.5 6.74021 8.55268 6.64645 8.64645C6.55268 8.74022 6.5 8.8674 6.5 9V25C6.5 25.1326 6.55268 25.2598 6.64645 25.3536C6.74021 25.4473 6.86739 25.5 7 25.5H23C23.1326 25.5 23.2598 25.4473 23.3536 25.3536C23.4473 25.2598 23.5 25.1326 23.5 25C23.5 24.8674 23.4473 24.7402 23.3536 24.6465C23.2598 24.5527 23.1326 24.5 23 24.5H8.207L25.354 7.354C25.4477 7.26024 25.5004 7.13309 25.5004 7.0005C25.5004 6.86792 25.4477 6.74077 25.354 6.647V6.647Z" fill="#0F0F0F"/>
</svg>
