<svg width="32" height="32" viewBox="0 0 32 32" fill="none" xmlns="http://www.w3.org/2000/svg">
<path d="M25.53 6.46995C25.3894 6.3295 25.1988 6.25061 25 6.25061C24.8012 6.25061 24.6106 6.3295 24.47 6.46995L7.75 23.1889V8.99995C7.75 8.80104 7.67098 8.61027 7.53033 8.46962C7.38968 8.32897 7.19891 8.24995 7 8.24995C6.80109 8.24995 6.61032 8.32897 6.46967 8.46962C6.32902 8.61027 6.25 8.80104 6.25 8.99995V25C6.25 25.1989 6.32902 25.3896 6.46967 25.5303C6.61032 25.6709 6.80109 25.75 7 25.75H23C23.1989 25.75 23.3897 25.6709 23.5303 25.5303C23.671 25.3896 23.75 25.1989 23.75 25C23.75 24.801 23.671 24.6103 23.5303 24.4696C23.3897 24.329 23.1989 24.25 23 24.25H8.81L25.53 7.52995C25.5997 7.46039 25.6549 7.37777 25.6926 7.28683C25.7303 7.19588 25.7498 7.0984 25.7498 6.99995C25.7498 6.9015 25.7303 6.80402 25.6926 6.71307C25.6549 6.62213 25.5997 6.53952 25.53 6.46995V6.46995Z" fill="#0F0F0F"/>
</svg>
