<svg width="32" height="32" viewBox="0 0 32 32" fill="none" xmlns="http://www.w3.org/2000/svg">
<path d="M25 6H8.99996C8.73474 6 8.48039 6.10536 8.29285 6.29289C8.10532 6.48043 7.99996 6.73478 7.99996 7C7.99996 7.26522 8.10532 7.51957 8.29285 7.70711C8.48039 7.89464 8.73474 8 8.99996 8H22.585L6.29296 24.293C6.19745 24.3852 6.12127 24.4956 6.06886 24.6176C6.01645 24.7396 5.98886 24.8708 5.98771 25.0036C5.98655 25.1364 6.01186 25.2681 6.06214 25.391C6.11242 25.5138 6.18667 25.6255 6.28056 25.7194C6.37446 25.8133 6.48611 25.8875 6.60901 25.9378C6.7319 25.9881 6.86358 26.0134 6.99636 26.0123C7.12914 26.0111 7.26036 25.9835 7.38236 25.9311C7.50437 25.8787 7.61471 25.8025 7.70696 25.707L24 9.413V23C24 23.2652 24.1053 23.5196 24.2929 23.7071C24.4804 23.8946 24.7347 24 25 24C25.2652 24 25.5195 23.8946 25.7071 23.7071C25.8946 23.5196 26 23.2652 26 23V7C26 6.73478 25.8946 6.48043 25.7071 6.29289C25.5195 6.10536 25.2652 6 25 6Z" fill="#0F0F0F"/>
</svg>
