<svg xmlns="http://www.w3.org/2000/svg" width="32" height="32" viewBox="0 0 32 32"><path d="M14.0001 5.00008C13.7349 5.00008 13.4805 5.10544 13.293 5.29297C13.1054 5.48051 13.0001 5.73486 13.0001 6.00008V11.5921L4.70708 3.29208C4.51944 3.10444 4.26494 2.99902 3.99958 2.99902C3.73422 2.99902 3.47972 3.10444 3.29208 3.29208C3.10444 3.47972 2.99902 3.73422 2.99902 3.99958C2.99902 4.26494 3.10444 4.51944 3.29208 4.70708L11.5801 13.0001H6.00008C5.73486 13.0001 5.48051 13.1054 5.29297 13.293C5.10544 13.4805 5.00008 13.7349 5.00008 14.0001C5.00008 14.2653 5.10544 14.5196 5.29297 14.7072C5.48051 14.8947 5.73486 15.0001 6.00008 15.0001H14.0001C14.2653 15.0001 14.5196 14.8947 14.7072 14.7072C14.8947 14.5196 15.0001 14.2653 15.0001 14.0001V6.00008C14.9998 5.73494 14.8944 5.48074 14.7069 5.29327C14.5194 5.10579 14.2652 5.00034 14.0001 5.00008ZM28.7071 27.2931L20.4151 19.0001H26.0001C26.2653 19.0001 26.5197 18.8947 26.7072 18.7072C26.8947 18.5197 27.0001 18.2653 27.0001 18.0001C27.0001 17.7349 26.8947 17.4805 26.7072 17.293C26.5197 17.1054 26.2653 17.0001 26.0001 17.0001H18.0001C17.8687 16.9999 17.7386 17.0257 17.6172 17.0759C17.4959 17.1261 17.3856 17.1998 17.2927 17.2927C17.1998 17.3856 17.1261 17.4959 17.0759 17.6172C17.0257 17.7386 16.9999 17.8687 17.0001 18.0001V26.0001C17.0001 26.2653 17.1054 26.5197 17.293 26.7072C17.4805 26.8947 17.7349 27.0001 18.0001 27.0001C18.2653 27.0001 18.5197 26.8947 18.7072 26.7072C18.8947 26.5197 19.0001 26.2653 19.0001 26.0001V20.4151L27.2931 28.7071C27.4806 28.8947 27.735 29.0002 28.0002 29.0003C28.2655 29.0004 28.5199 28.8951 28.7076 28.7076C28.8952 28.5201 29.0007 28.2657 29.0008 28.0004C29.0009 27.7352 28.8956 27.4807 28.7081 27.2931H28.7071Z"/></svg>