<svg width="32" height="32" viewBox="0 0 32 32" fill="none" xmlns="http://www.w3.org/2000/svg">
<path d="M10.041 12.469C10.0845 12.6381 10.1857 12.7867 10.3272 12.8891C10.4687 12.9915 10.6415 13.0412 10.8157 13.0297C10.99 13.0182 11.1547 12.9462 11.2815 12.8261C11.4083 12.706 11.4891 12.5454 11.51 12.372C11.5226 12.2743 11.5158 12.1751 11.49 12.08L10.69 9.08998L17.4 12.924C17.5139 12.99 17.6433 13.0245 17.7749 13.0239C17.9065 13.0234 18.0356 12.9879 18.149 12.921C18.2634 12.8548 18.3582 12.7596 18.424 12.645L23.152 4.37198C23.2009 4.28642 23.2324 4.19208 23.2448 4.09435C23.2572 3.99661 23.2502 3.89738 23.2242 3.80234C23.1983 3.7073 23.1539 3.6183 23.0935 3.54043C23.0332 3.46256 22.9581 3.39733 22.8725 3.34848C22.7869 3.29963 22.6926 3.26811 22.5949 3.25571C22.4971 3.24332 22.3979 3.2503 22.3029 3.27626C22.2078 3.30221 22.1188 3.34663 22.041 3.40698C21.9631 3.46733 21.8979 3.54242 21.849 3.62798L17.493 11.249L11.455 7.79898L14.418 7.00598C14.6103 6.95453 14.7742 6.8288 14.8738 6.65645C14.9734 6.48411 15.0005 6.27926 14.949 6.08698C14.8975 5.8947 14.7718 5.73073 14.5995 5.63115C14.4271 5.53157 14.2223 5.50453 14.03 5.55598L9.306 6.82198C9.21074 6.8475 9.12144 6.89155 9.04323 6.95162C8.96501 7.01169 8.89942 7.0866 8.85019 7.17205C8.80096 7.25751 8.76907 7.35183 8.75634 7.44963C8.74361 7.54742 8.75029 7.64677 8.776 7.74198L10.041 12.47V12.469ZM16 17.25C6.283 17.25 2.25 21.845 2.25 24.305V25.771C2.25079 26.561 2.56505 27.3184 3.12376 27.8769C3.68247 28.4355 4.43999 28.7495 5.23 28.75H8.8C9.58471 28.7465 10.336 28.4321 10.8892 27.8755C11.4424 27.3189 11.7523 26.5657 11.751 25.781V24.027C12.9948 23.1588 14.4837 22.7113 16 22.75C17.5159 22.7109 19.0048 23.1565 20.25 24.022V25.79C20.2768 26.5877 20.6139 27.3434 21.1896 27.8962C21.7652 28.4491 22.5339 28.7554 23.332 28.75H26.772C27.5617 28.7492 28.3189 28.435 28.8772 27.8765C29.4356 27.318 29.7495 26.5607 29.75 25.771V24.305C29.75 21.845 25.717 17.25 16 17.25V17.25ZM28.25 25.771C28.2497 26.163 28.094 26.5389 27.8169 26.8161C27.5398 27.0934 27.164 27.2495 26.772 27.25H23.332C22.9316 27.2552 22.5444 27.1068 22.2501 26.8352C21.9558 26.5636 21.7768 26.1895 21.75 25.79V23.837C21.75 22.604 18.74 21.25 16 21.25C13.26 21.25 10.25 22.607 10.25 23.843V25.781C10.2519 26.1682 10.1 26.5404 9.82781 26.8158C9.55559 27.0912 9.18523 27.2473 8.798 27.25H5.228C4.836 27.2495 4.46022 27.0934 4.18313 26.8161C3.90604 26.5389 3.75026 26.163 3.75 25.771V24.305C3.75 22.67 7.275 18.75 16 18.75C24.726 18.75 28.25 22.67 28.25 24.305V25.771V25.771Z" fill="#0F0F0F"/>
</svg>
