<svg width="32" height="32" viewBox="0 0 32 32" xmlns="http://www.w3.org/2000/svg"><path d="M24.5 2a.5.5 0 0 0-1 0v4.5H19a.5.5 0 1 0 0 1h4.5V12a.5.5 0 0 0 1 0V7.5H29a.5.5 0 0 0 0-1h-4.5V2ZM23.86 19.875a3.013 3.013 0 0 0-4.26.003s-1.472 1.498-1.76 1.807a7.284 7.284 0 0 1-5.347-2.18 7.644 7.644 0 0 1-2.232-5.272c.347-.347 1.735-1.713 1.854-1.83l.008-.008a3.008 3.008 0 0 0 0-4.257L9.37 5.385a3.027 3.027 0 0 0-4.274 0L3.624 6.857c-1.102 1.102-1.424 3.493-.818 6.09.539 2.315 2.049 5.941 6.178 10.07 4.914 4.913 9.438 6.5 12.533 6.5a5.165 5.165 0 0 0 3.625-1.142l1.471-1.471a3.022 3.022 0 0 0 0-4.276l-2.753-2.753Zm2.046 6.322-1.471 1.472c-1.38 1.378-7.585 1.8-14.744-5.36-3.962-3.96-5.402-7.4-5.912-9.589-.601-2.579-.156-4.448.552-5.156l1.472-1.472a2.024 2.024 0 0 1 2.86 0l2.753 2.753a2.01 2.01 0 0 1 .003 2.84s-1.5 1.477-1.865 1.84c-.58.58-.066 2.534-.007 2.755a9.042 9.042 0 0 0 2.24 3.932c2.303 2.304 5.992 2.93 6.686 2.234.363-.364 1.838-1.864 1.838-1.864a2.058 2.058 0 0 1 2.843 0l2.752 2.753a2.025 2.025 0 0 1 0 2.862Z"/></svg>