<svg width="32" height="32" viewBox="0 0 32 32" fill="none" xmlns="http://www.w3.org/2000/svg">
<path d="M24 14.0005C24.4142 14.0005 24.75 13.6647 24.75 13.2505C24.75 12.8362 24.4142 12.5005 24 12.5005C23.5858 12.5005 23.25 12.8362 23.25 13.2505C23.25 13.6647 23.5858 14.0005 24 14.0005Z" fill="black"/>
<path d="M21 6.5C21.0656 6.50004 21.1307 6.48713 21.1914 6.46202C21.252 6.4369 21.3072 6.40008 21.3536 6.35364C21.4 6.3072 21.4369 6.25207 21.462 6.19139C21.4871 6.13071 21.5 6.06567 21.5 6C21.5 5.50555 21.6466 5.0222 21.9213 4.61107C22.196 4.19995 22.5864 3.87952 23.0433 3.6903C23.5001 3.50108 24.0027 3.45157 24.4877 3.54804C24.9727 3.6445 25.4181 3.8826 25.7677 4.23223C26.1174 4.58186 26.3555 5.02732 26.4519 5.51227C26.5484 5.99723 26.4989 6.49989 26.3097 6.95671C26.1205 7.41352 25.8 7.80397 25.3889 8.07867C24.9778 8.35338 24.4944 8.5 24 8.5C23.9343 8.49996 23.8693 8.51287 23.8086 8.53798C23.7479 8.5631 23.6928 8.59993 23.6463 8.64636C23.5999 8.6928 23.5631 8.74794 23.538 8.80861C23.5128 8.86929 23.4999 8.93433 23.5 9V10C23.5 10.1326 23.5527 10.2598 23.6464 10.3536C23.7402 10.4473 23.8674 10.5 24 10.5C24.1326 10.5 24.2598 10.4473 24.3535 10.3536C24.4473 10.2598 24.5 10.1326 24.5 10V9.4648C25.1641 9.36903 25.7866 9.08441 26.2935 8.64484C26.8004 8.20527 27.1703 7.62927 27.3592 6.98544C27.548 6.3416 27.5478 5.65706 27.3586 5.01333C27.1695 4.3696 26.7993 3.7938 26.2921 3.35451C25.785 2.91521 25.1622 2.63093 24.4981 2.53552C23.834 2.4401 23.1564 2.53758 22.5461 2.81633C21.9358 3.09508 21.4184 3.54337 21.0557 4.1078C20.6929 4.67224 20.5 5.32904 20.5 6C20.4999 6.06567 20.5128 6.13071 20.538 6.19139C20.5631 6.25206 20.5999 6.3072 20.6463 6.35364C20.6928 6.40007 20.7479 6.4369 20.8086 6.46201C20.8693 6.48713 20.9343 6.50004 21 6.5Z" fill="black"/>
<path d="M23.8613 19.8759C23.2874 19.328 22.5243 19.0225 21.7309 19.023C20.9374 19.0236 20.1747 19.3301 19.6016 19.8789C19.6016 19.8789 18.1289 21.3759 17.8398 21.6845C16.8472 21.7052 15.8609 21.5225 14.9415 21.1476C14.0222 20.7728 13.1893 20.2137 12.4941 19.5048C11.095 18.1034 10.2946 16.2134 10.2617 14.2334C10.624 13.8691 12.1211 12.3984 12.124 12.3955C12.4036 12.116 12.6254 11.7842 12.7767 11.419C12.928 11.0538 13.0059 10.6624 13.0059 10.2671C13.0059 9.87175 12.928 9.48032 12.7767 9.11512C12.6254 8.74992 12.4036 8.4181 12.124 8.13863L9.37109 5.38472C8.80346 4.81905 8.03476 4.50142 7.2334 4.50142C6.43203 4.50142 5.66333 4.81905 5.0957 5.38472L3.62402 6.8564C1.7412 8.74019 1.38085 15.413 8.98339 23.0156C13.8965 27.9296 18.4219 29.5166 21.5166 29.5166C22.8264 29.6107 24.1229 29.2025 25.1426 28.375L26.6143 26.9033C26.8951 26.6227 27.1178 26.2895 27.2698 25.9228C27.4218 25.5561 27.5 25.1631 27.5 24.7661C27.5 24.3691 27.4218 23.9761 27.2698 23.6094C27.1178 23.2426 26.8951 22.9095 26.6143 22.6289L23.8613 19.8759ZM25.9072 26.1963L24.4355 27.6679C23.0537 29.0468 16.8496 29.4687 9.69042 22.3085C2.53124 15.1494 2.95019 8.94527 4.33105 7.56344L5.80273 6.09176C6.18273 5.71338 6.69714 5.50094 7.2334 5.50094C7.76965 5.50094 8.28407 5.71338 8.66406 6.09176L11.417 8.84566C11.7935 9.22209 12.0053 9.73254 12.0059 10.265C12.0064 10.7974 11.7957 11.3083 11.42 11.6855C11.42 11.6855 9.91697 13.1621 9.5537 13.5263C8.9746 14.1054 9.4873 16.0586 9.54785 16.2802C9.94828 17.7597 10.7189 19.1127 11.7871 20.2119C12.887 21.2798 14.2402 22.0507 15.7197 22.4521C15.9404 22.5107 17.8936 23.0253 18.4736 22.4453C18.8369 22.082 20.3115 20.583 20.3115 20.583C20.6944 20.2172 21.2034 20.0131 21.7329 20.0131C22.2624 20.0131 22.7715 20.2172 23.1543 20.583L25.9072 23.3359C26.2857 23.7156 26.4983 24.2299 26.4983 24.7661C26.4983 25.3022 26.2857 25.8165 25.9072 26.1963Z" fill="black"/>
</svg>
