<svg xmlns="http://www.w3.org/2000/svg" width="32" height="32" viewBox="0 0 32 32"><path d="M10.7817 20.25H9.02685C8.15926 19.0056 7.71205 17.5165 7.75049 16C7.71114 14.484 8.15695 12.995 9.02295 11.75H10.7905C11.5882 11.7231 12.3439 11.386 12.8967 10.8104C13.4495 10.2348 13.7559 9.46609 13.7505 8.668V5.22847C13.7497 4.43877 13.4356 3.68165 12.8772 3.12326C12.3188 2.56487 11.5617 2.25081 10.772 2.25H9.30517C6.84517 2.25 2.25049 6.2832 2.25049 16C2.25049 25.7168 6.84521 29.75 9.30517 29.75H10.772C11.5617 29.7492 12.3188 29.4351 12.8772 28.8767C13.4356 28.3183 13.7497 27.5612 13.7505 26.7715V23.2021C13.7474 22.4172 13.433 21.6657 12.8765 21.1122C12.32 20.5588 11.5666 20.2487 10.7817 20.25ZM12.2505 26.7715C12.2501 27.1635 12.0942 27.5393 11.817 27.8165C11.5398 28.0937 11.164 28.2496 10.772 28.25H9.30517C7.67041 28.25 3.75049 24.7256 3.75049 16C3.75049 7.27441 7.67041 3.75 9.30517 3.75H10.772C11.164 3.75039 11.5398 3.90629 11.817 4.18348C12.0942 4.46067 12.2501 4.8365 12.2505 5.22851V8.66793C12.2557 9.06835 12.1073 9.45555 11.8357 9.74984C11.5641 10.0441 11.19 10.2231 10.7905 10.2499H8.8374C7.604 10.2499 6.25049 13.2597 6.25049 15.9999C6.25049 18.7402 7.60693 21.7499 8.84228 21.7499H10.7817C11.1689 21.7482 11.541 21.9001 11.8163 22.1724C12.0917 22.4446 12.2478 22.8149 12.2505 23.2021V26.7715ZM26.7817 20.25H25.0268C24.1593 19.0056 23.7121 17.5165 23.7505 16C23.7111 14.484 24.1569 12.995 25.0229 11.75H26.7905C27.5882 11.7231 28.3439 11.386 28.8967 10.8104C29.4495 10.2348 29.7559 9.46609 29.7505 8.668V5.22847C29.7497 4.43877 29.4356 3.68165 28.8772 3.12326C28.3188 2.56487 27.5617 2.25081 26.772 2.25H25.3052C22.8452 2.25 18.2505 6.2832 18.2505 16C18.2505 25.7168 22.8452 29.75 25.3052 29.75H26.772C27.5617 29.7492 28.3188 29.4351 28.8772 28.8767C29.4356 28.3183 29.7497 27.5612 29.7505 26.7715V23.2021C29.7474 22.4172 29.433 21.6657 28.8765 21.1122C28.32 20.5588 27.5666 20.2487 26.7817 20.25ZM28.2505 26.7715C28.2501 27.1635 28.0942 27.5393 27.817 27.8165C27.5398 28.0937 27.164 28.2496 26.772 28.25H25.3052C23.6704 28.25 19.7505 24.7256 19.7505 16C19.7505 7.27441 23.6704 3.75 25.3052 3.75H26.772C27.164 3.75039 27.5398 3.90629 27.817 4.18348C28.0942 4.46067 28.2501 4.8365 28.2505 5.22851V8.66793C28.2557 9.06835 28.1073 9.45555 27.8357 9.74984C27.5641 10.0441 27.19 10.2231 26.7905 10.2499H24.8374C23.604 10.2499 22.2505 13.2597 22.2505 15.9999C22.2505 18.7402 23.6069 21.7499 24.8423 21.7499H26.7817C27.1689 21.7482 27.541 21.9001 27.8163 22.1724C28.0917 22.4446 28.2478 22.8149 28.2505 23.2021V26.7715ZM14.0313 12.4707L17.0304 15.4706C17.1 15.5403 17.1553 15.6229 17.193 15.7139C17.2307 15.8049 17.2501 15.9024 17.2501 16.0009C17.2501 16.0994 17.2307 16.197 17.193 16.2879C17.1553 16.3789 17.1 16.4616 17.0304 16.5312L14.0313 19.5293C13.9617 19.5992 13.879 19.6546 13.788 19.6925C13.6969 19.7304 13.5993 19.7499 13.5007 19.75C13.4021 19.7501 13.3045 19.7307 13.2133 19.6931C13.1222 19.6554 13.0394 19.6001 12.9697 19.5304C12.9 19.4606 12.8447 19.3778 12.807 19.2867C12.7693 19.1956 12.75 19.098 12.7501 18.9993C12.7502 18.9007 12.7697 18.8031 12.8076 18.7121C12.8454 18.621 12.9009 18.5384 12.9707 18.4688L14.6895 16.751H10.5001C10.3011 16.751 10.1104 16.6719 9.96973 16.5313C9.82908 16.3906 9.75006 16.1999 9.75006 16.001C9.75006 15.802 9.82908 15.6113 9.96973 15.4706C10.1104 15.33 10.3011 15.251 10.5001 15.251H14.6895L12.9707 13.5312C12.9009 13.4616 12.8454 13.379 12.8076 13.2879C12.7697 13.1969 12.7502 13.0993 12.7501 13.0007C12.75 12.902 12.7693 12.8044 12.807 12.7133C12.8447 12.6222 12.9 12.5394 12.9697 12.4696C13.0394 12.3999 13.1222 12.3446 13.2133 12.3069C13.3045 12.2693 13.4021 12.2499 13.5007 12.25C13.5993 12.2501 13.6969 12.2696 13.788 12.3075C13.879 12.3454 13.9617 12.4008 14.0313 12.4707Z"/></svg>