<svg xmlns="http://www.w3.org/2000/svg" width="32" height="32" viewBox="0 0 32 32"><path d="M27.5 2C26.8371 2.00053 26.2015 2.26409 25.7328 2.73282C25.2641 3.20154 25.0005 3.83712 25 4.5V10.5C25 11.163 25.2634 11.7989 25.7322 12.2678C26.2011 12.7366 26.8369 13 27.5 13C28.163 13 28.7989 12.7366 29.2677 12.2678C29.7366 11.7989 30 11.163 30 10.5V4.5C29.9992 3.8372 29.7355 3.20178 29.2669 2.73311C28.7982 2.26444 28.1628 2.00079 27.5 2ZM28 10.5C28 10.6326 27.9473 10.7598 27.8535 10.8536C27.7598 10.9473 27.6326 11 27.5 11C27.3674 11 27.2402 10.9473 27.1464 10.8536C27.0527 10.7598 27 10.6326 27 10.5V4.5C27 4.36739 27.0527 4.24021 27.1464 4.14645C27.2402 4.05268 27.3674 4 27.5 4C27.6326 4 27.7598 4.05268 27.8535 4.14645C27.9473 4.24021 28 4.36739 28 4.5V10.5ZM20.501 13C21.1639 12.9995 21.7994 12.7359 22.2682 12.2672C22.7369 11.7985 23.0004 11.1629 23.001 10.5V4.5C23.001 3.83696 22.7376 3.20107 22.2687 2.73223C21.7999 2.26339 21.164 2 20.501 2C19.8379 2 19.2021 2.26339 18.7332 2.73223C18.2644 3.20107 18.001 3.83696 18.001 4.5V10.5C18.0015 11.1629 18.2651 11.7985 18.7338 12.2672C19.2025 12.7359 19.8381 12.9995 20.501 13ZM20.001 4.5C20.001 4.36739 20.0537 4.24021 20.1474 4.14645C20.2412 4.05268 20.3684 4 20.501 4C20.6336 4 20.7608 4.05268 20.8545 4.14645C20.9483 4.24021 21.001 4.36739 21.001 4.5V10.5C21.0007 10.5988 20.9712 10.6953 20.9162 10.7774C20.8612 10.8595 20.7831 10.9235 20.6918 10.9613C20.6005 10.9991 20.5001 11.0091 20.4032 10.99C20.3062 10.971 20.2171 10.9236 20.147 10.854C20.1006 10.8075 20.0638 10.7523 20.0387 10.6915C20.0137 10.6308 20.0009 10.5657 20.001 10.5V4.5ZM24.212 19.515C23.8851 19.1888 23.4971 18.9302 23.0703 18.754C22.6434 18.5777 22.186 18.4873 21.7242 18.4879C21.2624 18.4884 20.8053 18.58 20.3788 18.7572C19.9524 18.9345 19.5651 19.194 19.239 19.521C19.239 19.521 18.083 20.701 17.568 21.22C15.7861 21.1466 14.0972 20.4053 12.8369 19.1435C11.5766 17.8818 10.8373 16.1919 10.766 14.41C11.286 13.894 12.463 12.736 12.468 12.73C13.1268 12.0702 13.4969 11.1759 13.4969 10.2435C13.4969 9.31109 13.1268 8.41679 12.468 7.757L9.71398 4.999C9.04284 4.35766 8.15028 3.99975 7.22198 3.99975C6.29368 3.99975 5.40111 4.35766 4.72998 4.999L3.25798 6.473C1.24998 8.483 0.761979 15.503 8.61798 23.37C13.618 28.377 18.276 30 21.52 30C22.956 30.1 24.377 29.65 25.494 28.74L26.966 27.265C27.6273 26.6031 27.9988 25.7057 27.9988 24.77C27.9988 23.8343 27.6273 22.9369 26.966 22.275L24.212 19.515ZM25.552 25.848L24.079 27.286C22.799 28.563 16.943 28.836 10.034 21.916C3.12298 14.996 3.39398 9.17 4.67298 7.89L6.14498 6.447C6.28627 6.30532 6.45413 6.1929 6.63894 6.1162C6.82375 6.0395 7.02188 6.00002 7.22198 6.00002C7.42207 6.00002 7.6202 6.0395 7.80501 6.1162C7.98983 6.1929 8.15769 6.30532 8.29898 6.447L11.054 9.173C11.3365 9.45584 11.4957 9.83897 11.4969 10.2388C11.498 10.6386 11.3409 11.0226 11.06 11.307C11.06 11.307 9.55398 12.789 9.18898 13.155C7.88498 14.465 9.65698 18.791 11.424 20.561C12.5854 21.692 14.0156 22.5087 15.58 22.934C16.491 23.184 18.123 23.497 18.821 22.799C19.185 22.435 20.661 20.933 20.661 20.932C20.9446 20.6494 21.3286 20.4907 21.729 20.4907C22.1293 20.4907 22.5134 20.6494 22.797 20.932L25.551 23.692C25.8365 23.9781 25.9969 24.3658 25.9969 24.77C25.9969 25.1742 25.8365 25.5619 25.551 25.848H25.552Z"/></svg>