<svg width="32" height="32" viewBox="0 0 32 32" fill="none" xmlns="http://www.w3.org/2000/svg">
<path d="M28.4392 12.7445C27.0662 9.50949 24.4906 6.93398 21.2556 5.56093C19.5911 4.86475 17.8049 4.50624 16.0007 4.50624C14.1965 4.50624 12.4103 4.86475 10.7458 5.56093C7.44865 6.95696 4.84013 9.60429 3.49293 12.9217C2.14574 16.2392 2.16997 19.9557 3.5603 23.2553C4.1837 24.6555 5.05552 25.9313 6.13355 27.0209C6.27555 27.1723 6.44708 27.2929 6.63756 27.3754C6.82804 27.4579 7.0334 27.5004 7.24097 27.5004H24.7654C24.9708 27.5003 25.174 27.4582 25.3626 27.3768C25.5512 27.2953 25.7211 27.1762 25.8621 27.0268C26.942 25.9359 27.8149 24.658 28.4382 23.2553C29.1387 21.5917 29.4996 19.805 29.4998 18C29.4999 16.195 29.1393 14.4082 28.4392 12.7445ZM27.5173 22.8656C26.9424 24.1615 26.1336 25.3403 25.1316 26.3432C25.0845 26.3929 25.0277 26.4325 24.9647 26.4596C24.9017 26.4866 24.8339 26.5005 24.7654 26.5004H7.24098C7.17037 26.5007 7.10045 26.4865 7.03559 26.4586C6.97072 26.4307 6.9123 26.3898 6.86398 26.3383C5.86386 25.3365 5.0565 24.1594 4.48218 22.8656C3.19184 19.811 3.1678 16.3688 4.41536 13.2965C5.66291 10.2241 8.07987 7.77315 11.1345 6.48281C14.1892 5.19247 17.6313 5.16843 20.7037 6.41599C23.776 7.66354 26.227 10.0805 27.5173 13.1351C28.1657 14.6752 28.4998 16.3294 28.4998 18.0004C28.4998 19.6714 28.1657 21.3255 27.5173 22.8656Z" fill="black"/>
<path d="M17.8748 16.1039L10.2556 11.5707C10.1604 11.5138 10.0489 11.4902 9.93882 11.5036C9.82869 11.517 9.72616 11.5666 9.64738 11.6448C9.56859 11.7229 9.51805 11.825 9.5037 11.935C9.48935 12.045 9.51201 12.1566 9.56812 12.2523L14.0505 19.9281C14.2629 20.3125 14.5548 20.6472 14.9067 20.9099C15.2587 21.1726 15.6626 21.3573 16.0915 21.4516C16.2665 21.4834 16.444 21.4994 16.6218 21.4994C17.3616 21.5039 18.0729 21.2144 18.5994 20.6947L18.6911 20.6039L18.6931 20.6019C19.0106 20.2839 19.2462 19.8937 19.38 19.4647C19.5137 19.0358 19.5416 18.5808 19.4612 18.1387C19.3807 17.6966 19.1944 17.2806 18.9182 16.9263C18.6419 16.5719 18.2839 16.2897 17.8748 16.1039ZM17.9871 19.8939L17.8943 19.9857C17.6844 20.1936 17.4264 20.3463 17.1433 20.4303C16.8601 20.5143 16.5605 20.527 16.2713 20.4671C15.9844 20.3968 15.7153 20.2673 15.4812 20.0871C15.2471 19.9068 15.0532 19.6797 14.9119 19.4203L11.407 13.4193L17.406 16.9857C17.6628 17.114 17.8899 17.2946 18.0727 17.516C18.2555 17.7373 18.39 17.9944 18.4675 18.2708C18.5268 18.56 18.5139 18.8594 18.4301 19.1424C18.3463 19.4255 18.1942 19.6835 17.9871 19.8939Z" fill="black"/>
</svg>
