<svg xmlns="http://www.w3.org/2000/svg" width="32" height="32" viewBox="0 0 32 32"><path d="M27.5001 2.5C26.9698 2.50026 26.4612 2.71106 26.0862 3.08608C25.7112 3.46109 25.5004 3.96965 25.5001 4.5V10.5C25.5001 11.0304 25.7108 11.5391 26.0859 11.9142C26.461 12.2893 26.9697 12.5 27.5001 12.5C28.0305 12.5 28.5393 12.2893 28.9143 11.9142C29.2894 11.5391 29.5001 11.0304 29.5001 10.5V4.5C29.4996 3.96973 29.2887 3.46133 28.9137 3.08637C28.5388 2.71141 28.0304 2.50053 27.5001 2.5ZM28.5001 10.5C28.5001 10.7652 28.3948 11.0196 28.2072 11.2071C28.0197 11.3946 27.7653 11.5 27.5001 11.5C27.2349 11.5 26.9805 11.3946 26.793 11.2071C26.6055 11.0196 26.5001 10.7652 26.5001 10.5V4.5C26.5001 4.23478 26.6055 3.98043 26.793 3.79289C26.9805 3.60536 27.2349 3.5 27.5001 3.5C27.7653 3.5 28.0197 3.60536 28.2072 3.79289C28.3948 3.98043 28.5001 4.23478 28.5001 4.5V10.5ZM20.5011 12.5C21.0313 12.4992 21.5395 12.2882 21.9144 11.9133C22.2893 11.5384 22.5003 11.0302 22.5011 10.5V4.5C22.5011 3.96957 22.2904 3.46086 21.9153 3.08579C21.5403 2.71071 21.0315 2.5 20.5011 2.5C19.9707 2.5 19.462 2.71071 19.0869 3.08579C18.7118 3.46086 18.5011 3.96957 18.5011 4.5V10.5C18.5019 11.0302 18.7129 11.5384 19.0878 11.9133C19.4627 12.2882 19.9709 12.4992 20.5011 12.5ZM19.5011 4.5C19.5011 4.23478 19.6065 3.98043 19.794 3.79289C19.9815 3.60536 20.2359 3.5 20.5011 3.5C20.7663 3.5 21.0207 3.60536 21.2082 3.79289C21.3958 3.98043 21.5011 4.23478 21.5011 4.5V10.5C21.5011 10.7652 21.3958 11.0196 21.2082 11.2071C21.0207 11.3946 20.7663 11.5 20.5011 11.5C20.2359 11.5 19.9815 11.3946 19.794 11.2071C19.6065 11.0196 19.5011 10.7652 19.5011 10.5V4.5ZM23.8601 19.875C23.2863 19.3273 22.5233 19.0219 21.73 19.0225C20.9367 19.0231 20.1742 19.3295 19.6011 19.878C19.6011 19.878 18.1281 21.376 17.8391 21.685C16.8465 21.7058 15.8602 21.5232 14.941 21.1482C14.0217 20.7733 13.189 20.2141 12.4941 19.505C11.0949 18.1033 10.2944 16.2133 10.2611 14.233C10.6241 13.87 12.1211 12.398 12.1241 12.395C12.4039 12.1156 12.6258 11.7838 12.7773 11.4186C12.9287 11.0534 13.0067 10.6619 13.0067 10.2665C13.0067 9.87112 12.9287 9.47962 12.7773 9.11439C12.6258 8.74917 12.4039 8.41737 12.1241 8.138L9.37011 5.385C8.79443 4.83492 8.02885 4.52795 7.23261 4.52795C6.43637 4.52795 5.67079 4.83492 5.09511 5.385L3.62411 6.857C2.52211 7.959 2.20111 10.35 2.80611 12.947C3.34611 15.262 4.85511 18.888 8.98411 23.016C13.1121 27.144 16.7381 28.654 19.0521 29.193C19.8721 29.388 20.7121 29.489 21.5551 29.494C22.8497 29.5904 24.1324 29.1899 25.1421 28.374L26.6141 26.903C26.8952 26.6225 27.1181 26.2893 27.2703 25.9225C27.4224 25.5558 27.5007 25.1626 27.5007 24.7655C27.5007 24.3684 27.4224 23.9752 27.2703 23.6085C27.1181 23.2417 26.8952 22.9085 26.6141 22.628L23.8611 19.875H23.8601ZM25.9071 26.195L24.4351 27.667C23.7281 28.377 21.8591 28.823 19.2791 28.219C17.0911 27.709 13.6521 26.269 9.69111 22.309C5.72911 18.349 4.28911 14.909 3.78011 12.72C3.17811 10.141 3.62311 8.272 4.33111 7.564L5.80311 6.092C6.18259 5.71315 6.69689 5.50037 7.23311 5.50037C7.76933 5.50037 8.28363 5.71315 8.66311 6.092L11.4161 8.845C11.7927 9.22145 12.0045 9.73192 12.005 10.2644C12.0056 10.7968 11.7949 11.3078 11.4191 11.685C11.4191 11.685 9.91911 13.161 9.55411 13.525C9.33681 13.8065 9.23812 14.1618 9.27911 14.515C9.39314 16.6561 10.285 18.682 11.7871 20.212C14.0901 22.514 17.7791 23.14 18.4731 22.446C18.8361 22.082 20.3111 20.582 20.3111 20.582C20.694 20.2163 21.2031 20.0122 21.7326 20.0122C22.2621 20.0122 22.7712 20.2163 23.1541 20.582L25.9071 23.335C26.0951 23.5227 26.2442 23.7456 26.3459 23.991C26.4476 24.2364 26.5 24.4994 26.5 24.765C26.5 25.0306 26.4476 25.2936 26.3459 25.539C26.2442 25.7844 26.0951 26.0073 25.9071 26.195Z"/></svg>