<svg width="32" height="32" viewBox="0 0 32 32" fill="none" xmlns="http://www.w3.org/2000/svg">
<path d="M24.5313 18.4696C24.3906 18.3294 24.2 18.2508 24.0013 18.251C23.8027 18.2512 23.6123 18.3302 23.4718 18.4707C23.3313 18.6111 23.2524 18.8016 23.2522 19.0002C23.252 19.1988 23.3306 19.3894 23.4708 19.5302L27.1905 23.2499H24.9092C23.4821 23.2535 22.0812 22.8662 20.8586 22.1301C19.636 21.394 18.6383 20.3371 17.9737 19.0741L16.514 16.0001L17.96 12.953C18.6228 11.6836 19.6213 10.6204 20.8466 9.87929C22.072 9.13816 23.4772 8.74751 24.9092 8.74988H27.1905L23.4708 12.4696C23.4009 12.5392 23.3454 12.6219 23.3076 12.7129C23.2697 12.804 23.2502 12.9016 23.2501 13.0002C23.25 13.0988 23.2693 13.1964 23.307 13.2876C23.3447 13.3787 23.4 13.4615 23.4697 13.5312C23.5394 13.6009 23.6222 13.6562 23.7133 13.6939C23.8045 13.7316 23.9021 13.7509 24.0007 13.7508C24.0993 13.7507 24.1969 13.7312 24.288 13.6933C24.379 13.6555 24.4617 13.6 24.5313 13.5302L29.5313 8.53015C29.601 8.46053 29.6562 8.37786 29.6939 8.28687C29.7316 8.19589 29.751 8.09836 29.751 7.99988C29.751 7.90139 29.7316 7.80386 29.6939 7.71288C29.6562 7.62189 29.601 7.53922 29.5313 7.4696L24.5313 2.4696C24.4617 2.39974 24.379 2.34429 24.288 2.30642C24.1969 2.26855 24.0993 2.24901 24.0007 2.24892C23.9021 2.24882 23.8045 2.26817 23.7133 2.30586C23.6222 2.34355 23.5394 2.39884 23.4697 2.46857C23.4 2.53829 23.3447 2.62108 23.307 2.7122C23.2693 2.80331 23.25 2.90097 23.2501 2.99957C23.2502 3.09818 23.2697 3.1958 23.3076 3.28684C23.3454 3.37788 23.4009 3.46056 23.4708 3.53015L27.1905 7.24988H24.9092C23.1987 7.24824 21.5206 7.71686 20.0584 8.60453C18.5961 9.49219 17.4061 10.7647 16.6182 12.2831L15.6838 14.2521L15.2149 13.2645C14.4254 11.7525 13.2361 10.4861 11.7766 9.60326C10.3171 8.72042 8.64331 8.25501 6.93756 8.2577H3.04889C2.84998 8.2577 2.65921 8.33672 2.51856 8.47737C2.37791 8.61802 2.29889 8.80879 2.29889 9.0077C2.29889 9.20661 2.37791 9.39738 2.51856 9.53803C2.65921 9.67868 2.84998 9.7577 3.04889 9.7577H6.93756C8.36482 9.75409 9.7658 10.1415 10.9885 10.8778C12.2111 11.6141 13.2088 12.6712 13.8731 13.9345L14.8542 16.0004L13.8868 18.039C13.224 19.3084 12.2255 20.3716 11.0002 21.1127C9.77482 21.8538 8.36959 22.2445 6.93756 22.2421H3.04889C2.84998 22.2421 2.65921 22.3211 2.51856 22.4618C2.37791 22.6025 2.29889 22.7932 2.29889 22.9921C2.29889 23.191 2.37791 23.3818 2.51856 23.5225C2.65921 23.6631 2.84998 23.7421 3.04889 23.7421H6.93756C8.64813 23.7438 10.3262 23.2751 11.7884 22.3875C13.2507 21.4998 14.4407 20.2273 15.2286 18.7089L15.6843 17.7486L16.6319 19.7441C17.4214 21.256 18.6108 22.5223 20.0703 23.4049C21.5298 24.2876 23.2036 24.7528 24.9092 24.7499H27.1905L23.4707 28.4697C23.4009 28.5392 23.3454 28.6219 23.3076 28.713C23.2697 28.804 23.2502 28.9016 23.2501 29.0002C23.25 29.0988 23.2693 29.1965 23.307 29.2876C23.3447 29.3787 23.4 29.4615 23.4697 29.5312C23.5394 29.601 23.6222 29.6563 23.7133 29.6939C23.8045 29.7316 23.9021 29.751 24.0007 29.7509C24.0993 29.7508 24.1969 29.7313 24.288 29.6934C24.379 29.6555 24.4617 29.6001 24.5313 29.5302L29.5313 24.5302C29.601 24.4606 29.6562 24.3779 29.6939 24.2869C29.7316 24.1959 29.751 24.0984 29.751 23.9999C29.751 23.9014 29.7316 23.8039 29.6939 23.7129C29.6562 23.622 29.601 23.5393 29.5313 23.4697L24.5313 18.4696Z" fill="black"/>
</svg>
