<svg xmlns="http://www.w3.org/2000/svg" width="32" height="32" viewBox="0 0 32 32"><path d="M14 5.50022C13.8674 5.50022 13.7402 5.55289 13.6464 5.64666C13.5526 5.74043 13.5 5.86761 13.5 6.00022V12.8002L4.35297 3.64622C4.25867 3.55514 4.13237 3.50474 4.00127 3.50588C3.87017 3.50702 3.74477 3.5596 3.65206 3.65231C3.55936 3.74501 3.50677 3.87042 3.50563 4.00151C3.50449 4.13261 3.55489 4.25891 3.64597 4.35322L12.786 13.5002H5.99997C5.86736 13.5002 5.74019 13.5529 5.64642 13.6467C5.55265 13.7404 5.49997 13.8676 5.49997 14.0002C5.49997 14.1328 5.55265 14.26 5.64642 14.3538C5.74019 14.4475 5.86736 14.5002 5.99997 14.5002H14C14.1326 14.5002 14.2598 14.4475 14.3535 14.3538C14.4473 14.26 14.5 14.1328 14.5 14.0002V6.00022C14.5004 5.93444 14.4877 5.86925 14.4627 5.8084C14.4377 5.74756 14.4009 5.69228 14.3544 5.64577C14.3079 5.59927 14.2526 5.56245 14.1918 5.53746C14.1309 5.51248 14.0657 5.49982 14 5.50022ZM28.354 27.6462L19.206 18.5002H26C26.1326 18.5002 26.2598 18.4475 26.3535 18.3538C26.4473 18.26 26.5 18.1328 26.5 18.0002C26.5 17.8676 26.4473 17.7404 26.3535 17.6467C26.2598 17.5529 26.1326 17.5002 26 17.5002H18C17.8674 17.5005 17.7404 17.5532 17.6467 17.647C17.553 17.7407 17.5002 17.8677 17.5 18.0002V26.0002C17.5 26.1328 17.5526 26.26 17.6464 26.3538C17.7402 26.4475 17.8674 26.5002 18 26.5002C18.1326 26.5002 18.2598 26.4475 18.3535 26.3538C18.4473 26.26 18.5 26.1328 18.5 26.0002V19.2082L27.647 28.3532C27.7413 28.4443 27.8676 28.4947 27.9987 28.4936C28.1298 28.4924 28.2552 28.4398 28.3479 28.3471C28.4406 28.2544 28.4932 28.129 28.4943 27.9979C28.4954 27.8668 28.4451 27.7405 28.354 27.6462Z"/></svg>