<svg xmlns="http://www.w3.org/2000/svg" width="32" height="32" viewBox="0 0 32 32"><path d="M20.5009 13C21.1638 12.9995 21.7993 12.7359 22.2681 12.2672C22.7368 11.7985 23.0004 11.1629 23.0009 10.5V4.5C23.0009 3.83696 22.7375 3.20107 22.2687 2.73223C21.7998 2.26339 21.1639 2 20.5009 2C19.8378 2 19.202 2.26339 18.7331 2.73223C18.2643 3.20107 18.0009 3.83696 18.0009 4.5V10.5C18.0014 11.1629 18.265 11.7985 18.7337 12.2672C19.2024 12.7359 19.838 12.9995 20.5009 13ZM25.7329 2.733C26.2015 2.26425 26.837 2.00063 27.4999 2C28.1627 2.00079 28.7981 2.26444 29.2668 2.73311C29.7354 3.20178 29.9991 3.8372 29.9999 4.5V10.5C29.9999 11.163 29.7365 11.7989 29.2677 12.2678C28.7988 12.7366 28.1629 13 27.4999 13C26.8368 13 26.201 12.7366 25.7321 12.2678C25.2633 11.7989 24.9999 11.163 24.9999 10.5V4.5C25.0009 3.837 25.2649 3.202 25.7329 2.733ZM27.6149 21.629L24.8619 18.876C24.288 18.328 23.5248 18.0225 22.7313 18.023C21.9378 18.0236 21.175 18.3302 20.6019 18.879C20.6019 18.879 19.1299 20.376 18.8409 20.685C17.8482 20.7056 16.8618 20.5228 15.9424 20.1479C15.0231 19.7729 14.1901 19.2139 13.4949 18.505C12.0965 17.1028 11.2961 15.2131 11.2619 13.233C11.6099 12.884 13.0119 11.506 13.1189 11.402L13.1249 11.395C13.6882 10.8299 14.0045 10.0645 14.0045 9.2665C14.0045 8.46855 13.6882 7.70314 13.1249 7.138L10.3719 4.386C9.79609 3.83614 9.03055 3.52933 8.23439 3.52933C7.43822 3.52933 6.67268 3.83614 6.09689 4.386L4.62489 5.857C2.74189 7.74 2.38189 14.413 9.98489 22.017C14.8979 26.93 19.4219 28.517 22.5179 28.517C23.8277 28.6108 25.1242 28.2024 26.1439 27.375L27.6149 25.903C28.1805 25.3356 28.4981 24.5671 28.4981 23.766C28.4981 22.9649 28.1805 22.1964 27.6149 21.629Z"/></svg>