<svg width="32" height="32" viewBox="0 0 32 32" fill="none" xmlns="http://www.w3.org/2000/svg">
<path d="M24 2.5C22.9122 2.5 21.8489 2.82257 20.9444 3.42692C20.0399 4.03126 19.335 4.89025 18.9187 5.89524C18.5024 6.90023 18.3935 8.0061 18.6057 9.073C18.8179 10.1399 19.3418 11.1199 20.1109 11.8891C20.8801 12.6583 21.8601 13.1821 22.927 13.3943C23.9939 13.6065 25.0998 13.4976 26.1048 13.0813C27.1098 12.6651 27.9688 11.9601 28.5731 11.0556C29.1775 10.1512 29.5 9.0878 29.5 8C29.4982 6.54188 28.9181 5.14401 27.8871 4.11296C26.856 3.08191 25.4582 2.50185 24 2.5V2.5ZM24 3.5C25.1037 3.50324 26.1676 3.91289 26.9884 4.65072C27.8093 5.38856 28.3296 6.40288 28.45 7.5H19.55C19.6705 6.40288 20.1908 5.38856 21.0116 4.65072C21.8325 3.91289 22.8963 3.50324 24 3.5V3.5ZM24 12.5C22.8963 12.4968 21.8325 12.0871 21.0116 11.3493C20.1908 10.6114 19.6705 9.59712 19.55 8.5H28.45C28.3296 9.59712 27.8093 10.6114 26.9884 11.3493C26.1676 12.0871 25.1037 12.4968 24 12.5V12.5ZM23.861 19.876C23.2871 19.328 22.524 19.0225 21.7304 19.023C20.9369 19.0236 20.1742 19.3302 19.601 19.879C19.601 19.879 18.129 21.376 17.84 21.684C16.8473 21.7049 15.8608 21.5222 14.9414 21.1473C14.022 20.7723 13.1891 20.2131 12.494 19.504C11.0953 18.1029 10.2951 16.2135 10.262 14.234C10.624 13.869 12.122 12.398 12.124 12.396C12.6874 11.8309 13.0037 11.0654 13.0037 10.2675C13.0037 9.46955 12.6874 8.70414 12.124 8.139L9.37003 5.385C8.80264 4.81941 8.03417 4.50182 7.23303 4.50182C6.43189 4.50182 5.66342 4.81941 5.09603 5.385L3.62403 6.856C1.74103 8.74 1.38103 15.413 8.98403 23.016C13.897 27.93 18.422 29.516 21.517 29.516C22.8268 29.6102 24.1233 29.2023 25.143 28.375L26.614 26.903C26.8947 26.6224 27.1173 26.2892 27.2692 25.9226C27.4211 25.5559 27.4993 25.1629 27.4993 24.766C27.4993 24.3691 27.4211 23.9761 27.2692 23.6094C27.1173 23.2428 26.8947 22.9096 26.614 22.629L23.861 19.876V19.876ZM25.907 26.196L24.436 27.668C23.053 29.047 16.85 29.468 9.69103 22.308C2.53003 15.15 2.95003 8.945 4.33003 7.563L5.80203 6.092C6.18177 5.71364 6.69598 5.50119 7.23203 5.50119C7.76809 5.50119 8.2823 5.71364 8.66203 6.092L11.416 8.846C11.7919 9.22283 12.0032 9.73317 12.0037 10.2654C12.0043 10.7976 11.7941 11.3084 11.419 11.686C11.419 11.686 9.91603 13.162 9.55303 13.526C8.97303 14.106 9.48603 16.058 9.54703 16.28C9.94761 17.7596 10.7185 19.1129 11.787 20.212C12.8868 21.2797 14.2398 22.0505 15.719 22.452C15.939 22.511 17.893 23.025 18.473 22.445C18.836 22.082 20.311 20.583 20.311 20.583C20.6938 20.2173 21.2027 20.0133 21.732 20.0133C22.2614 20.0133 22.7703 20.2173 23.153 20.583L25.906 23.336C26.2844 23.7157 26.4968 24.2299 26.4968 24.766C26.4968 25.3021 26.2844 25.8163 25.906 26.196H25.907Z" fill="#0F0F0F"/>
</svg>
