<svg width="32" height="32" viewBox="0 0 32 32" fill="none" xmlns="http://www.w3.org/2000/svg">
<path d="M24.531 18.47C24.3888 18.3376 24.2008 18.2654 24.0065 18.2689C23.8121 18.2723 23.6268 18.351 23.4894 18.4884C23.3519 18.6258 23.2732 18.8112 23.2698 19.0055C23.2664 19.1998 23.3385 19.3879 23.471 19.53L27.191 23.25H24.909C23.4819 23.2535 22.0811 22.8661 20.8586 22.13C19.6361 21.3938 18.6385 20.3369 17.974 19.074L16.514 16L17.96 12.953C18.6229 11.6835 19.6215 10.6203 20.847 9.8792C22.0724 9.13809 23.4778 8.74752 24.91 8.75003H27.19L23.47 12.47C23.4004 12.5397 23.3452 12.6224 23.3075 12.7134C23.2699 12.8044 23.2505 12.9019 23.2506 13.0004C23.2506 13.0989 23.2701 13.1964 23.3078 13.2873C23.3455 13.3783 23.4008 13.4609 23.4705 13.5305C23.5401 13.6001 23.6228 13.6553 23.7138 13.693C23.8048 13.7306 23.9024 13.75 24.0008 13.7499C24.0993 13.7499 24.1968 13.7304 24.2878 13.6927C24.3787 13.655 24.4614 13.5997 24.531 13.53L29.531 8.53003C29.6006 8.46047 29.6559 8.37785 29.6936 8.28691C29.7313 8.19597 29.7507 8.09848 29.7507 8.00003C29.7507 7.90158 29.7313 7.8041 29.6936 7.71316C29.6559 7.62221 29.6006 7.5396 29.531 7.47003L24.531 2.47003C24.4623 2.39634 24.3795 2.33724 24.2875 2.29625C24.1955 2.25526 24.0962 2.23322 23.9955 2.23144C23.8948 2.22966 23.7948 2.24819 23.7014 2.28591C23.608 2.32363 23.5232 2.37977 23.4519 2.45099C23.3807 2.52221 23.3246 2.60705 23.2868 2.70043C23.2491 2.79382 23.2306 2.89385 23.2324 2.99455C23.2342 3.09526 23.2562 3.19457 23.2972 3.28657C23.3382 3.37857 23.3973 3.46137 23.471 3.53003L27.191 7.25003H24.909C23.1986 7.24849 21.5207 7.71714 20.0586 8.60477C18.5966 9.4924 17.4067 10.7648 16.619 12.283L15.684 14.253L15.214 13.264C14.4245 11.7523 13.2354 10.4862 11.7761 9.60356C10.3169 8.72088 8.64341 8.25548 6.93797 8.25803H3.04797C2.84906 8.25803 2.6583 8.33705 2.51764 8.4777C2.37699 8.61835 2.29797 8.80912 2.29797 9.00803C2.29797 9.20694 2.37699 9.39771 2.51764 9.53836C2.6583 9.67901 2.84906 9.75803 3.04797 9.75803H6.93797C8.36516 9.75456 9.76604 10.142 10.9886 10.8784C12.2112 11.6147 13.2087 12.6719 13.873 13.935L14.854 16L13.887 18.039C13.2241 19.3085 12.2255 20.3717 11 21.1129C9.7745 21.854 8.36912 22.2445 6.93697 22.242H3.04997C2.85106 22.242 2.6603 22.3211 2.51964 22.4617C2.37899 22.6024 2.29997 22.7931 2.29997 22.992C2.29997 23.1909 2.37899 23.3817 2.51964 23.5224C2.6603 23.663 2.85106 23.742 3.04997 23.742H6.93897C8.64936 23.7436 10.3273 23.2749 11.7893 22.3873C13.2513 21.4997 14.4412 20.2272 15.229 18.709L15.685 17.749L16.633 19.744C17.4225 21.2559 18.6117 22.5222 20.0712 23.4049C21.5306 24.2876 23.2043 24.7529 24.91 24.75H27.192L23.472 28.47C23.3841 28.5569 23.3191 28.6642 23.2828 28.7824C23.2465 28.9005 23.2401 29.0258 23.264 29.1471C23.288 29.2683 23.3417 29.3817 23.4202 29.4772C23.4987 29.5726 23.5996 29.6471 23.714 29.694C23.8512 29.7508 24.0023 29.7655 24.1479 29.7363C24.2935 29.7071 24.4272 29.6353 24.532 29.53L29.532 24.53C29.6016 24.4605 29.6569 24.3779 29.6946 24.2869C29.7323 24.196 29.7517 24.0985 29.7517 24C29.7517 23.9016 29.7323 23.8041 29.6946 23.7132C29.6569 23.6222 29.6016 23.5396 29.532 23.47L24.532 18.47H24.531Z" fill="#0F0F0F"/>
</svg>
