<svg xmlns="http://www.w3.org/2000/svg" width="32" height="32" viewBox="0 0 32 32"><path d="M24.7081 18.2929C24.6158 18.1974 24.5055 18.1212 24.3835 18.0688C24.2615 18.0164 24.1303 17.9888 23.9975 17.9877C23.8647 17.9865 23.733 18.0118 23.6101 18.0621C23.4872 18.1124 23.3756 18.1866 23.2817 18.2805C23.1878 18.3744 23.1135 18.4861 23.0633 18.609C23.013 18.7319 22.9877 18.8635 22.9888 18.9963C22.99 19.1291 23.0176 19.2603 23.07 19.3823C23.1224 19.5043 23.1986 19.6147 23.2941 19.7069L26.5871 22.9999H24.9091C23.5291 23.0038 22.1744 22.6301 20.9916 21.9192C19.8089 21.2083 18.8432 20.1873 18.1991 18.9669L16.7911 15.9999L18.1811 13.0699C18.8228 11.8407 19.7896 10.8111 20.9761 10.0934C22.1626 9.37577 23.5234 8.99753 24.9101 8.99992H26.5881L23.2951 12.2929C23.1996 12.3852 23.1234 12.4955 23.071 12.6175C23.0186 12.7395 22.991 12.8707 22.9898 13.0035C22.9887 13.1363 23.014 13.268 23.0643 13.3909C23.1145 13.5138 23.1888 13.6254 23.2827 13.7193C23.3766 13.8132 23.4882 13.8875 23.6111 13.9377C23.734 13.988 23.8657 14.0133 23.9985 14.0122C24.1313 14.011 24.2625 13.9834 24.3845 13.931C24.5065 13.8786 24.6168 13.8024 24.7091 13.7069L29.7091 8.70692C29.8963 8.51926 30.0014 8.265 30.0014 7.99992C30.0014 7.73484 29.8963 7.48058 29.7091 7.29292L24.7091 2.29292C24.5205 2.11076 24.2679 2.00997 24.0057 2.01224C23.7435 2.01452 23.4927 2.11969 23.3073 2.3051C23.1218 2.49051 23.0167 2.74132 23.0144 3.00352C23.0121 3.26571 23.1129 3.51832 23.2951 3.70692L26.5871 6.99992H24.9091C23.1514 6.99862 21.4272 7.48081 19.9252 8.39372C18.4232 9.30663 17.2013 10.6151 16.3931 12.1759L15.6831 13.6689L15.4371 13.1489C14.6264 11.5962 13.4052 10.2957 11.9064 9.38917C10.4075 8.48266 8.68869 8.0049 6.93707 8.00793H3.05007C2.78486 8.00793 2.5305 8.11328 2.34297 8.30081C2.15543 8.48835 2.05007 8.74271 2.05007 9.00793C2.05007 9.27315 2.15543 9.52749 2.34297 9.71503C2.5305 9.90256 2.78486 10.0079 3.05007 10.0079H6.93907C8.31913 10.0041 9.67392 10.378 10.8567 11.0891C12.0395 11.8002 13.0051 12.8213 13.6491 14.0419L14.5791 15.9999L13.6661 17.9229C13.0247 19.152 12.0582 20.1815 10.8721 20.8992C9.68587 21.6168 8.32546 21.9952 6.93907 21.9929H3.04907C2.78386 21.9929 2.5295 22.0983 2.34197 22.2858C2.15443 22.4733 2.04907 22.7277 2.04907 22.9929C2.04907 23.2581 2.15443 23.5125 2.34197 23.7C2.5295 23.8876 2.78386 23.9929 3.04907 23.9929H6.93907C8.69685 23.9941 10.4211 23.5118 11.9231 22.5987C13.4251 21.6856 14.647 20.3769 15.4551 18.8159L15.6851 18.3309L16.4111 19.8609C17.222 21.4131 18.4432 22.713 19.9418 23.6191C21.4404 24.5252 23.1588 25.0028 24.9101 24.9999H26.5871L23.2941 28.2929C23.1119 28.4815 23.0111 28.7341 23.0134 28.9963C23.0157 29.2585 23.1208 29.5093 23.3063 29.6947C23.4917 29.8801 23.7425 29.9853 24.0047 29.9876C24.2669 29.9899 24.5195 29.8891 24.7081 29.7069L29.7081 24.7069C29.8951 24.5191 30 24.2649 30 23.9999C30 23.7349 29.8951 23.4807 29.7081 23.2929L24.7081 18.2929Z"/></svg>