<svg width="32" height="32" viewBox="0 0 32 32" xmlns="http://www.w3.org/2000/svg"><path d="M24.75 2.25a.75.75 0 0 0-1.5 0v4h-4a.75.75 0 0 0 0 1.5h4v4a.75.75 0 0 0 1.5 0v-4h4a.75.75 0 0 0 0-1.5h-4v-4ZM24.038 19.699a3.263 3.263 0 0 0-4.616.005l-1.734 1.76a7.292 7.292 0 0 1-7.151-7.152c.424-.422 1.483-1.464 1.717-1.695l.046-.045a3.26 3.26 0 0 0 0-4.61L9.547 5.207a3.35 3.35 0 0 0-4.628 0L3.448 6.68c-1.18 1.18-1.52 3.604-.885 6.324.546 2.347 2.073 6.019 6.244 10.189 4.956 4.956 9.546 6.56 12.714 6.558a5.416 5.416 0 0 0 3.798-1.199l1.472-1.471a3.277 3.277 0 0 0 0-4.63L24.038 19.7Zm1.692 6.321-1.472 1.472c-1.327 1.328-7.356 1.674-14.39-5.36-3.92-3.92-5.342-7.312-5.845-9.468-.576-2.473-.152-4.286.485-4.923L5.98 6.269a1.774 1.774 0 0 1 2.507 0l2.753 2.753a1.76 1.76 0 0 1 .004 2.485s-1.502 1.478-1.867 1.842c-.86.861-.067 4.74 2.233 7.04a9.287 9.287 0 0 0 4.044 2.304c.538.147 2.35.578 2.996-.07.363-.364 1.838-1.864 1.838-1.864a1.764 1.764 0 0 1 2.489 0l2.753 2.753a1.775 1.775 0 0 1 0 2.508Z"/></svg>