<svg xmlns="http://www.w3.org/2000/svg" width="32" height="32" viewBox="0 0 32 32"><path d="M23.001 27.5001H9.001C7.80776 27.499 6.66368 27.0246 5.81984 26.181C4.97599 25.3373 4.50132 24.1933 4.5 23.0001C4.5 22.8675 4.55268 22.7403 4.64645 22.6465C4.74021 22.5528 4.86739 22.5001 5 22.5001C5.13261 22.5001 5.25979 22.5528 5.35355 22.6465C5.44732 22.7403 5.5 22.8675 5.5 23.0001C5.50106 23.928 5.87015 24.8176 6.5263 25.4738C7.18244 26.1299 8.07207 26.499 9 26.5001H23C23.9279 26.499 24.8176 26.1299 25.4737 25.4738C26.1299 24.8176 26.4989 23.928 26.5 23.0001V7.99609C26.4992 7.3333 26.2356 6.69787 25.7669 6.2292C25.2982 5.76053 24.6628 5.49689 24 5.49609H17C16.3372 5.49689 15.7018 5.76053 15.2331 6.2292C14.7644 6.69787 14.5008 7.3333 14.5 7.99609V11.0001C14.5 11.1327 14.4473 11.2599 14.3536 11.3536C14.2598 11.4474 14.1326 11.5001 14 11.5001C13.8674 11.5001 13.7402 11.4474 13.6464 11.3536C13.5527 11.2599 13.5 11.1327 13.5 11.0001V7.99609C13.5011 7.06816 13.8701 6.17854 14.5263 5.52239C15.1824 4.86624 16.0721 4.49715 17 4.49609H24.001C24.9289 4.49742 25.8183 4.86659 26.4744 5.52268C27.1305 6.17877 27.4997 7.06824 27.501 7.99609V23.0001C27.4997 24.1932 27.0251 25.337 26.1815 26.1806C25.3379 27.0242 24.1941 27.4988 23.001 27.5001Z M15.1479 23.4999C13.0679 23.4999 10.0549 22.4489 6.80286 19.1969C1.73086 14.1249 2.01086 9.63292 3.28786 8.35392L4.25286 7.38892C4.6574 6.9854 5.20547 6.75879 5.77686 6.75879C6.34825 6.75879 6.89631 6.9854 7.30086 7.38892L9.10686 9.19492C9.30627 9.39413 9.46446 9.63069 9.57239 9.89107C9.68032 10.1515 9.73587 10.4306 9.73587 10.7124C9.73587 10.9943 9.68032 11.2734 9.57239 11.5338C9.46446 11.7942 9.30627 12.0307 9.10686 12.2299C9.10386 12.2329 8.35286 12.9709 8.00586 13.3149C8.44585 14.3586 9.10152 15.2975 9.92986 16.0699C10.7024 16.8982 11.6408 17.5545 12.6839 17.9959L13.7659 16.8969C14.1686 16.4941 14.7146 16.2675 15.2842 16.267C15.8538 16.2664 16.4004 16.4919 16.8039 16.8939L18.6099 18.6999C19.0134 19.1045 19.24 19.6525 19.24 20.2239C19.24 20.7953 19.0134 21.3434 18.6099 21.7479L17.6439 22.7129C16.942 23.2836 16.0492 23.5657 15.1469 23.5019L15.1479 23.4999ZM5.77786 7.75892C5.62611 7.75857 5.4758 7.78825 5.33558 7.84626C5.19536 7.90427 5.06801 7.98946 4.96086 8.09692L3.99486 9.06192C3.12486 9.93192 2.90086 13.8819 7.50986 18.4909C12.1199 23.0989 16.0669 22.8739 16.9389 22.0059L17.9039 21.0409C18.1202 20.824 18.2416 20.5302 18.2416 20.2239C18.2416 19.9176 18.1202 19.6238 17.9039 19.4069L16.0979 17.5999C15.8828 17.3852 15.5913 17.2645 15.2874 17.2645C14.9834 17.2645 14.6919 17.3852 14.4769 17.5999C14.4749 17.6019 13.5099 18.5839 13.2719 18.8229C12.5169 19.5729 10.2189 17.7709 9.22386 16.7759C8.22986 15.7819 6.42186 13.4839 7.17686 12.7289C7.41686 12.4889 8.40186 11.5199 8.40186 11.5199C8.61569 11.3048 8.73555 11.0138 8.73517 10.7105C8.7348 10.4072 8.61422 10.1165 8.39986 9.90192L6.59386 8.09592C6.48671 7.98846 6.35936 7.90327 6.21914 7.84526C6.07892 7.78725 5.92861 7.75757 5.77686 7.75792L5.77786 7.75892Z"/></svg>