<svg xmlns="http://www.w3.org/2000/svg" width="32" height="32" viewBox="0 0 32 32"><path d="M29.7069 6.293L25.7069 2.293C25.5194 2.10553 25.2651 2.00021 24.9999 2.00021C24.7347 2.00021 24.4804 2.10553 24.2929 2.293L20.2929 6.293C20.1974 6.38525 20.1212 6.49559 20.0688 6.6176C20.0164 6.7396 19.9888 6.87082 19.9876 7.0036C19.9865 7.13638 20.0118 7.26806 20.0621 7.39095C20.1124 7.51385 20.1866 7.6255 20.2805 7.7194C20.3744 7.81329 20.486 7.88754 20.6089 7.93782C20.7318 7.9881 20.8635 8.0134 20.9963 8.01225C21.1291 8.0111 21.2603 7.98351 21.3823 7.9311C21.5043 7.87869 21.6147 7.80251 21.7069 7.707L23.9999 5.414V24.124C24.0343 25.0981 23.6882 26.0474 23.0349 26.7709C22.3817 27.4943 21.4725 27.9351 20.4999 28C19.5275 27.9351 18.6185 27.4945 17.9652 26.7712C17.312 26.048 16.9658 25.099 16.9999 24.125V7.875C17.0281 6.37251 16.4693 4.91823 15.4423 3.82118C14.4153 2.72414 13.001 2.0708 11.4999 2C9.99881 2.0708 8.58449 2.72414 7.55747 3.82118C6.53044 4.91823 5.97168 6.37251 5.9999 7.875V26.587L3.7069 24.294C3.59041 24.1784 3.44731 24.0932 3.29018 24.0458C3.13304 23.9985 2.96668 23.9904 2.80571 24.0224C2.64475 24.0544 2.4941 24.1255 2.36702 24.2293C2.23994 24.3332 2.14032 24.4666 2.0769 24.618C2.00107 24.8007 1.98112 25.0017 2.01956 25.1958C2.05801 25.3898 2.15313 25.568 2.2929 25.708L6.2929 29.708C6.38562 29.8011 6.4958 29.8749 6.61712 29.9253C6.73845 29.9757 6.86853 30.0016 6.9999 30.0016C7.13127 30.0016 7.26135 29.9757 7.38267 29.9253C7.50399 29.8749 7.61418 29.8011 7.7069 29.708L11.7069 25.708C11.8891 25.5194 11.9898 25.2668 11.9876 25.0046C11.9853 24.7424 11.8801 24.4916 11.6947 24.3062C11.5093 24.1208 11.2585 24.0156 10.9963 24.0133C10.7341 24.011 10.4815 24.1118 10.2929 24.294L7.9999 26.587V7.875C7.96579 6.90103 8.31199 5.952 8.96523 5.22877C9.61847 4.50554 10.5275 4.06486 11.4999 4C12.4723 4.06486 13.3813 4.50554 14.0346 5.22877C14.6878 5.952 15.034 6.90103 14.9999 7.875V24.125C14.9719 25.6274 15.5308 27.0816 16.5578 28.1785C17.5847 29.2755 18.9989 29.929 20.4999 30C22.0009 29.929 23.4151 29.2755 24.442 28.1785C25.469 27.0816 26.0279 25.6274 25.9999 24.125V5.414L28.2929 7.707C28.4815 7.88916 28.7341 7.98995 28.9963 7.98767C29.2585 7.9854 29.5093 7.88023 29.6947 7.69482C29.8801 7.50941 29.9853 7.2586 29.9876 6.9964C29.9899 6.7342 29.8891 6.4816 29.7069 6.293Z"/></svg>