<svg width="32" height="32" viewBox="0 0 32 32" fill="none" xmlns="http://www.w3.org/2000/svg">
<path d="M27.5 2.5C26.9696 2.50026 26.4611 2.71106 26.0861 3.08608C25.7111 3.46109 25.5003 3.96965 25.5 4.5V10.5C25.5 11.0304 25.7107 11.5391 26.0858 11.9142C26.4608 12.2893 26.9696 12.5 27.5 12.5C28.0304 12.5 28.5391 12.2893 28.9142 11.9142C29.2893 11.5391 29.5 11.0304 29.5 10.5V4.5C29.4995 3.96973 29.2886 3.46133 28.9136 3.08637C28.5387 2.71141 28.0303 2.50053 27.5 2.5V2.5ZM28.5 10.5C28.5 10.7652 28.3946 11.0196 28.2071 11.2071C28.0196 11.3946 27.7652 11.5 27.5 11.5C27.2348 11.5 26.9804 11.3946 26.7929 11.2071C26.6053 11.0196 26.5 10.7652 26.5 10.5V4.5C26.5 4.23478 26.6053 3.98043 26.7929 3.79289C26.9804 3.60536 27.2348 3.5 27.5 3.5C27.7652 3.5 28.0196 3.60536 28.2071 3.79289C28.3946 3.98043 28.5 4.23478 28.5 4.5V10.5ZM20.501 12.5C21.0312 12.4992 21.5394 12.2882 21.9143 11.9133C22.2892 11.5384 22.5002 11.0302 22.501 10.5V4.5C22.501 3.96957 22.2903 3.46086 21.9152 3.08579C21.5401 2.71071 21.0314 2.5 20.501 2.5C19.9706 2.5 19.4618 2.71071 19.0868 3.08579C18.7117 3.46086 18.501 3.96957 18.501 4.5V10.5C18.5018 11.0302 18.7128 11.5384 19.0877 11.9133C19.4626 12.2882 19.9708 12.4992 20.501 12.5V12.5ZM19.501 4.5C19.501 4.23478 19.6063 3.98043 19.7939 3.79289C19.9814 3.60536 20.2358 3.5 20.501 3.5C20.7662 3.5 21.0206 3.60536 21.2081 3.79289C21.3956 3.98043 21.501 4.23478 21.501 4.5V10.5C21.501 10.7652 21.3956 11.0196 21.2081 11.2071C21.0206 11.3946 20.7662 11.5 20.501 11.5C20.2358 11.5 19.9814 11.3946 19.7939 11.2071C19.6063 11.0196 19.501 10.7652 19.501 10.5V4.5ZM23.86 19.875C23.2861 19.3273 22.5232 19.0219 21.7299 19.0225C20.9366 19.0231 20.1741 19.3295 19.601 19.878C19.601 19.878 18.128 21.376 17.839 21.685C16.8464 21.7058 15.8601 21.5232 14.9408 21.1482C14.0216 20.7733 13.1889 20.2141 12.494 19.505C11.0948 18.1033 10.2942 16.2133 10.261 14.233C10.624 13.87 12.121 12.398 12.124 12.395C12.4038 12.1156 12.6257 11.7838 12.7772 11.4186C12.9286 11.0534 13.0065 10.6619 13.0065 10.2665C13.0065 9.87112 12.9286 9.47962 12.7772 9.11439C12.6257 8.74917 12.4038 8.41737 12.124 8.138L9.36999 5.385C8.79431 4.83492 8.02873 4.52795 7.23249 4.52795C6.43625 4.52795 5.67066 4.83492 5.09499 5.385L3.62399 6.857C2.52199 7.959 2.20099 10.35 2.80599 12.947C3.34599 15.262 4.85499 18.888 8.98399 23.016C13.112 27.144 16.738 28.654 19.052 29.193C19.872 29.388 20.712 29.489 21.555 29.494C22.8496 29.5904 24.1323 29.1899 25.142 28.374L26.614 26.903C26.895 26.6225 27.118 26.2893 27.2701 25.9225C27.4223 25.5558 27.5006 25.1626 27.5006 24.7655C27.5006 24.3684 27.4223 23.9752 27.2701 23.6085C27.118 23.2417 26.895 22.9085 26.614 22.628L23.861 19.875H23.86ZM25.907 26.195L24.435 27.667C23.728 28.377 21.859 28.823 19.279 28.219C17.091 27.709 13.652 26.269 9.69099 22.309C5.72899 18.349 4.28899 14.909 3.77999 12.72C3.17799 10.141 3.62299 8.272 4.33099 7.564L5.80299 6.092C6.18247 5.71315 6.69677 5.50037 7.23299 5.50037C7.76921 5.50037 8.28351 5.71315 8.66299 6.092L11.416 8.845C11.7926 9.22145 12.0044 9.73192 12.0049 10.2644C12.0055 10.7968 11.7948 11.3078 11.419 11.685C11.419 11.685 9.91899 13.161 9.55399 13.525C9.33669 13.8065 9.238 14.1618 9.27899 14.515C9.39302 16.6561 10.2849 18.682 11.787 20.212C14.09 22.514 17.779 23.14 18.473 22.446C18.836 22.082 20.311 20.582 20.311 20.582C20.6939 20.2163 21.203 20.0122 21.7325 20.0122C22.262 20.0122 22.7711 20.2163 23.154 20.582L25.907 23.335C26.0949 23.5227 26.244 23.7456 26.3458 23.991C26.4475 24.2364 26.4999 24.4994 26.4999 24.765C26.4999 25.0306 26.4475 25.2936 26.3458 25.539C26.244 25.7844 26.0949 26.0073 25.907 26.195V26.195Z" fill="#0F0F0F"/>
</svg>
