<svg xmlns="http://www.w3.org/2000/svg" width="32" height="32" viewBox="0 0 32 32"><path d="M25.0001 6.5H9.00005C8.86744 6.5 8.74027 6.55268 8.6465 6.64645C8.55273 6.74022 8.50005 6.86739 8.50005 7C8.50005 7.13261 8.55273 7.25979 8.6465 7.35355C8.74027 7.44732 8.86744 7.5 9.00005 7.5H23.7931L6.64605 24.647C6.5983 24.6931 6.56021 24.7483 6.534 24.8093C6.5078 24.8703 6.494 24.9359 6.49343 25.0023C6.49285 25.0687 6.5055 25.1345 6.53064 25.196C6.55578 25.2574 6.59291 25.3133 6.63985 25.3602C6.6868 25.4071 6.74263 25.4443 6.80408 25.4694C6.86552 25.4946 6.93136 25.5072 6.99775 25.5066C7.06414 25.5061 7.12975 25.4923 7.19075 25.4661C7.25176 25.4398 7.30693 25.4018 7.35305 25.354L24.5001 8.206V23C24.5001 23.1326 24.5527 23.2598 24.6465 23.3536C24.7403 23.4473 24.8674 23.5 25.0001 23.5C25.1327 23.5 25.2598 23.4473 25.3536 23.3536C25.4474 23.2598 25.5001 23.1326 25.5001 23V7C25.5002 6.9343 25.4873 6.86923 25.4623 6.8085C25.4372 6.74778 25.4004 6.69261 25.3539 6.64615C25.3074 6.5997 25.2523 6.56287 25.1915 6.53779C25.1308 6.51271 25.0657 6.49987 25.0001 6.5Z"/></svg>