<svg xmlns="http://www.w3.org/2000/svg" width="32" height="32" viewBox="0 0 32 32"><path d="M16 2C6.10644 2 2 6.75781 2 9.30469V10.7715C2.00094 11.6274 2.34139 12.4481 2.94665 13.0533C3.55191 13.6586 4.37255 13.9991 5.22851 14H8.79785C9.64899 13.9968 10.4641 13.6561 11.0644 13.0527C11.6647 12.4493 12.0012 11.6324 12 10.7812V9.14449C13.1864 8.3661 14.5814 7.96693 16 7.99996C17.4179 7.96689 18.8125 8.36423 20 9.13961L19.999 10.79C20.0268 11.6537 20.3906 12.4724 21.0129 13.0719C21.6352 13.6714 22.4669 14.0044 23.331 14H26.7714C27.6274 13.9991 28.448 13.6586 29.0533 13.0533C29.6586 12.4481 29.999 11.6274 30 10.7715V9.30465C30 6.75777 25.8936 2 16 2ZM7.44817 15.5633C7.96551 15.7566 8.22818 16.3327 8.03486 16.8501C7.68936 17.7747 7.5 18.7766 7.5 19.825C7.5 24.5194 11.3056 28.325 16 28.325C20.6944 28.325 24.5 24.5194 24.5 19.825C24.5 18.7766 24.3106 17.7747 23.9651 16.8501C23.7718 16.3327 24.0345 15.7566 24.5518 15.5633C25.0692 15.37 25.6453 15.6326 25.8386 16.15C26.2665 17.2951 26.5 18.534 26.5 19.825C26.5 25.624 21.799 30.325 16 30.325C10.201 30.325 5.5 25.624 5.5 19.825C5.5 18.534 5.73348 17.2951 6.16139 16.15C6.35471 15.6326 6.93082 15.37 7.44817 15.5633ZM17 15C17 14.4477 16.5523 14 16 14C15.4477 14 15 14.4477 15 15V20.7273C15 20.9925 15.1054 21.2468 15.2929 21.4344L18.0656 24.2071C18.4561 24.5976 19.0893 24.5976 19.4798 24.2071C19.8704 23.8166 19.8704 23.1834 19.4798 22.7929L17 20.3131V15Z"/></svg>