<svg width="32" height="32" viewBox="0 0 32 32" fill="none" xmlns="http://www.w3.org/2000/svg">
<path d="M25 6.25H9.00003C8.80112 6.25 8.61035 6.32902 8.4697 6.46967C8.32905 6.61032 8.25003 6.80109 8.25003 7C8.25003 7.19891 8.32905 7.38968 8.4697 7.53033C8.61035 7.67098 8.80112 7.75 9.00003 7.75H23.19L6.47003 24.47C6.39634 24.5387 6.33724 24.6215 6.29625 24.7135C6.25526 24.8055 6.23322 24.9048 6.23144 25.0055C6.22966 25.1062 6.24819 25.2062 6.28591 25.2996C6.32363 25.393 6.37977 25.4778 6.45099 25.549C6.52221 25.6203 6.60705 25.6764 6.70043 25.7141C6.79382 25.7518 6.89385 25.7704 6.99455 25.7686C7.09526 25.7668 7.19457 25.7448 7.28657 25.7038C7.37857 25.6628 7.46137 25.6037 7.53003 25.53L24.25 8.81V23C24.25 23.1989 24.329 23.3897 24.4697 23.5303C24.6104 23.671 24.8011 23.75 25 23.75C25.1989 23.75 25.3897 23.671 25.5304 23.5303C25.671 23.3897 25.75 23.1989 25.75 23V7C25.75 6.80109 25.671 6.61032 25.5304 6.46967C25.3897 6.32902 25.1989 6.25 25 6.25V6.25Z" fill="#0F0F0F"/>
</svg>
