<svg width="32" height="32" viewBox="0 0 32 32" fill="none" xmlns="http://www.w3.org/2000/svg">
<path d="M24.0001 2C22.8135 2 21.6534 2.35189 20.6667 3.01118C19.68 3.67047 18.911 4.60754 18.4569 5.7039C18.0027 6.80026 17.8839 8.00666 18.1154 9.17054C18.3469 10.3344 18.9184 11.4035 19.7575 12.2426C20.5966 13.0818 21.6657 13.6532 22.8296 13.8847C23.9935 14.1162 25.1999 13.9974 26.2962 13.5433C27.3926 13.0892 28.3297 12.3201 28.989 11.3334C29.6482 10.3467 30.0001 9.18669 30.0001 8C29.9984 6.40924 29.3657 4.88412 28.2409 3.75928C27.116 2.63444 25.5909 2.00174 24.0001 2ZM24.0001 4C24.8846 4.00256 25.7431 4.29848 26.4413 4.84138C27.1395 5.38428 27.6378 6.14348 27.8581 7H20.1421C20.3625 6.14348 20.8608 5.38427 21.559 4.84137C22.2572 4.29847 23.1157 4.00255 24.0001 4ZM24.0001 12C23.1157 11.9974 22.2572 11.7015 21.559 11.1586C20.8608 10.6157 20.3625 9.85652 20.1421 9H27.8582C27.6378 9.85653 27.1395 10.6157 26.4413 11.1586C25.7431 11.7015 24.8846 11.9975 24.0001 12Z" fill="black"/>
<path d="M24.2116 19.5155C23.8848 19.1893 23.4969 18.9307 23.0702 18.7544C22.6434 18.5781 22.186 18.4877 21.7243 18.4883C21.2625 18.4888 20.8054 18.5803 20.3791 18.7576C19.9527 18.9349 19.5654 19.1944 19.2394 19.5214C19.2394 19.5214 18.0826 20.7003 17.5677 21.2198C15.7859 21.1462 14.0971 20.4048 12.837 19.143C11.5769 17.8812 10.8377 16.1914 10.7664 14.4095C11.2862 13.8939 12.4626 12.7356 12.4684 12.7297C13.1273 12.0699 13.4973 11.1756 13.4973 10.2432C13.4973 9.31086 13.1273 8.41658 12.4684 7.75679L9.71413 4.99879C9.04305 4.35737 8.15049 3.99941 7.22217 3.99941C6.29386 3.99941 5.40129 4.35737 4.73021 4.99879L3.25781 6.4732C1.24999 8.48272 0.762434 15.5033 8.61888 23.3702C13.6184 28.3774 18.276 29.9995 21.5199 29.9995C22.9565 30.0998 24.3773 29.6493 25.4935 28.7393L26.9659 27.265C27.6272 26.603 27.9987 25.7055 27.9987 24.7697C27.9987 23.834 27.6272 22.9365 26.9659 22.2745L24.2116 19.5155ZM25.5511 25.8483L24.0787 27.2855C22.7997 28.5632 16.9433 28.8352 10.0337 21.9163C3.12299 14.9965 3.3946 9.16952 4.67258 7.88984L6.14499 6.44743C6.28631 6.30571 6.4542 6.19327 6.63904 6.11654C6.82389 6.03982 7.02206 6.00033 7.22219 6.00033C7.42233 6.00033 7.6205 6.03982 7.80534 6.11654C7.99019 6.19327 8.15808 6.30571 8.29939 6.44743L11.0537 9.17343C11.3361 9.45632 11.4952 9.83939 11.4963 10.2391C11.4974 10.6388 11.3404 11.0228 11.0596 11.3072C11.0596 11.3072 9.55392 12.7894 9.18855 13.1553C7.88517 14.4643 9.65655 18.7915 11.424 20.5614C12.5856 21.6923 14.016 22.5088 15.5804 22.9338C16.491 23.1833 18.1227 23.4974 18.8213 22.7988C19.1847 22.4349 20.6601 20.9332 20.6601 20.9322C20.9437 20.6493 21.3279 20.4904 21.7285 20.4904C22.1291 20.4904 22.5133 20.6493 22.7969 20.9322L25.5512 23.6911C25.8371 23.9773 25.9977 24.3652 25.9977 24.7697C25.9977 25.1742 25.8371 25.5622 25.5511 25.8483Z" fill="black"/>
</svg>
