<svg width="32" height="32" viewBox="0 0 32 32" fill="none" xmlns="http://www.w3.org/2000/svg">
<path d="M12.7075 8.707L15.0005 6.414V12C15.0005 12.2652 15.1058 12.5196 15.2934 12.7071C15.4809 12.8946 15.7352 13 16.0005 13C16.2657 13 16.52 12.8946 16.7076 12.7071C16.8951 12.5196 17.0005 12.2652 17.0005 12V6.414L19.2935 8.707C19.481 8.89452 19.7353 8.99987 20.0005 8.99987C20.2657 8.99987 20.52 8.89452 20.7075 8.707C20.895 8.51949 21.0004 8.26516 21.0004 7.99997C21.0004 7.73479 20.895 7.48046 20.7075 7.29294L16.7075 3.29294C16.6147 3.20006 16.5045 3.12638 16.3832 3.07611C16.2618 3.02584 16.1318 2.99997 16.0005 2.99997C15.8692 2.99997 15.7391 3.02584 15.6178 3.07611C15.4965 3.12638 15.3863 3.20006 15.2935 3.29294L11.2935 7.29294C11.1079 7.48086 11.0042 7.73455 11.005 7.99865C11.0058 8.26274 11.1111 8.51579 11.2979 8.70254C11.4846 8.88929 11.7376 8.99457 12.0017 8.99541C12.2658 8.99625 12.5195 8.89257 12.7075 8.707Z" fill="black"/>
<path d="M2.5 24.3047C2.5 21.9316 6.46 17.5 16 17.5C25.54 17.5 29.5 21.9316 29.5 24.3047V25.7715C29.4993 26.4949 29.2116 27.1885 28.7 27.7001C28.1885 28.2116 27.4949 28.4993 26.7714 28.5H23.331C22.599 28.5061 21.8935 28.2263 21.3646 27.7202C20.8356 27.2141 20.5251 26.5216 20.499 25.79L20.5 23.9228C19.209 22.9437 17.6192 22.441 16 22.5C14.38 22.4409 12.7896 22.9455 11.5 23.9277V25.7813C11.5014 26.4999 11.2177 27.1897 10.7111 27.6994C10.2045 28.2091 9.51646 28.497 8.79785 28.5H5.22851C4.50508 28.4993 3.81147 28.2116 3.29992 27.7001C2.78838 27.1885 2.50069 26.4949 2.5 25.7715V24.3047Z" fill="black"/>
</svg>
