<svg width="32" height="32" viewBox="0 0 32 32" fill="none" xmlns="http://www.w3.org/2000/svg">
<path d="M24.0002 2.5C22.9124 2.5 21.849 2.82257 20.9445 3.42692C20.0401 4.03126 19.3351 4.89025 18.9188 5.89524C18.5026 6.90023 18.3936 8.0061 18.6059 9.073C18.8181 10.1399 19.3419 11.1199 20.1111 11.8891C20.8803 12.6583 21.8603 13.1821 22.9272 13.3943C23.9941 13.6065 25.0999 13.4976 26.1049 13.0813C27.1099 12.6651 27.9689 11.9601 28.5733 11.0556C29.1776 10.1512 29.5002 9.0878 29.5002 8C29.4984 6.54187 28.9183 5.14397 27.8873 4.11291C26.8562 3.08186 25.4583 2.50181 24.0002 2.5ZM24.0002 3.5C25.1038 3.50342 26.1675 3.91315 26.9882 4.65096C27.8089 5.38877 28.3292 6.40299 28.4496 7.5H19.5507C19.6712 6.40299 20.1915 5.38877 21.0122 4.65096C21.8329 3.91315 22.8966 3.50342 24.0002 3.5ZM24.0002 12.5C22.8966 12.4966 21.8329 12.0868 21.0122 11.349C20.1915 10.6112 19.6712 9.59701 19.5507 8.5H28.4496C28.3292 9.59701 27.8089 10.6112 26.9882 11.349C26.1675 12.0868 25.1038 12.4966 24.0002 12.5Z" fill="black"/>
<path d="M23.8615 19.8759C23.2876 19.328 22.5245 19.0225 21.731 19.023C20.9376 19.0236 20.1749 19.3301 19.6017 19.8789C19.6017 19.8789 18.1291 21.3759 17.84 21.6845C16.8474 21.7053 15.861 21.5226 14.9417 21.1477C14.0223 20.7729 13.1894 20.2138 12.4943 19.5048C11.0952 18.1034 10.2948 16.2134 10.2619 14.2334C10.6242 13.8691 12.1213 12.3984 12.1242 12.3955C12.6875 11.8304 13.0039 11.065 13.0039 10.267C13.0039 9.46913 12.6875 8.70374 12.1242 8.13863L9.3703 5.38472C8.80286 4.81906 8.03431 4.50142 7.23309 4.50142C6.43187 4.50142 5.66332 4.81906 5.09588 5.38472L3.6242 6.8564C1.74139 8.74019 1.38103 15.413 8.98358 23.0156C13.8967 27.9296 18.422 29.5166 21.5168 29.5166C22.8266 29.6107 24.1231 29.2025 25.1428 28.375L26.6145 26.9033C26.8953 26.6227 27.118 26.2895 27.27 25.9228C27.422 25.5561 27.5002 25.1631 27.5002 24.7661C27.5002 24.3691 27.422 23.9761 27.27 23.6094C27.118 23.2426 26.8953 22.9095 26.6145 22.6289L23.8615 19.8759ZM25.9074 26.1963L24.4357 27.6679C23.0529 29.0468 16.8498 29.4687 9.69061 22.3085C2.53143 15.1494 2.95037 8.94527 4.33123 7.56344L5.80291 6.09176C6.18271 5.71339 6.69698 5.50094 7.23309 5.50094C7.7692 5.50094 8.28347 5.71339 8.66327 6.09176L11.4172 8.84566C11.793 9.22244 12.0044 9.73277 12.0049 10.265C12.0055 10.7972 11.7952 11.308 11.4201 11.6855C11.4201 11.6855 9.91717 13.1621 9.55389 13.5263C8.97479 14.1054 9.48748 16.0585 9.54803 16.2802C9.94846 17.7597 10.7191 19.1127 11.7873 20.2119C12.8872 21.2798 14.2404 22.0507 15.7199 22.4521C15.9406 22.5107 17.8937 23.0254 18.4738 22.4453C18.8371 22.082 20.3117 20.583 20.3117 20.583C20.6945 20.2172 21.2036 20.0131 21.7331 20.0131C22.2626 20.0131 22.7716 20.2172 23.1545 20.583L25.9074 23.3359C26.2859 23.7156 26.4985 24.2299 26.4985 24.7661C26.4985 25.3022 26.2859 25.8165 25.9074 26.1963Z" fill="black"/>
</svg>
