<svg width="32" height="32" viewBox="0 0 32 32" fill="none" xmlns="http://www.w3.org/2000/svg">
<path d="M10.0413 12.4687C10.0668 12.5639 10.1108 12.6531 10.1708 12.7312C10.2308 12.8094 10.3056 12.8749 10.391 12.9242C10.4763 12.9734 10.5705 13.0053 10.6682 13.0182C10.7659 13.031 10.8651 13.0245 10.9603 12.999C11.0554 12.9734 11.1446 12.9294 11.2228 12.8694C11.3009 12.8094 11.3665 12.7346 11.4157 12.6493C11.4649 12.564 11.4969 12.4698 11.5097 12.3721C11.5226 12.2744 11.516 12.1752 11.4905 12.08L10.6896 9.08927L17.4006 12.9237C17.5135 12.9886 17.6415 13.0226 17.7717 13.0224C17.9041 13.0225 18.0342 12.9877 18.1488 12.9213C18.2634 12.8549 18.3583 12.7594 18.4241 12.6445L23.1516 4.372C23.2503 4.19925 23.2763 3.99437 23.224 3.80244C23.1716 3.61051 23.0451 3.44724 22.8723 3.34856C22.6996 3.24989 22.4947 3.22387 22.3028 3.27625C22.1109 3.32863 21.9476 3.45511 21.8489 3.62786L17.4934 11.249L11.4549 7.79879L14.4182 7.00579C14.5136 6.98049 14.6031 6.93661 14.6815 6.87667C14.7599 6.81674 14.8257 6.74192 14.8752 6.6565C14.9246 6.57109 14.9567 6.47676 14.9697 6.37891C14.9826 6.28107 14.9761 6.18163 14.9505 6.08631C14.925 5.99098 14.8808 5.90164 14.8207 5.82339C14.7605 5.74515 14.6855 5.67954 14.6 5.63033C14.5144 5.58112 14.42 5.54927 14.3221 5.53662C14.2242 5.52396 14.1248 5.53074 14.0296 5.55657L9.30594 6.82125C9.11384 6.8729 8.95009 6.99869 8.85066 7.171C8.75123 7.3433 8.72426 7.54802 8.77566 7.74019L10.0413 12.4687Z" fill="black"/>
<path d="M16.0003 17.25C6.28349 17.25 2.25027 21.8447 2.25027 24.3047V25.7715C2.25109 26.5612 2.56516 27.3183 3.12357 27.8767C3.68197 28.4351 4.43909 28.7492 5.22879 28.75H8.79813C9.58301 28.7469 10.3346 28.4326 10.888 27.876C11.4415 27.3195 11.7516 26.5661 11.7503 25.7812V24.0273C12.9943 23.1588 14.4836 22.7112 16.0003 22.75C17.5163 22.711 19.0051 23.1568 20.2503 24.0224V25.79C20.2771 26.5877 20.6143 27.3433 21.1899 27.8962C21.7655 28.449 22.5342 28.7554 23.3323 28.75H26.7717C27.5614 28.7492 28.3185 28.4351 28.8769 27.8767C29.4354 27.3183 29.7494 26.5612 29.7502 25.7715V24.3046C29.7503 21.8447 25.7171 17.25 16.0003 17.25ZM28.2503 25.7715C28.2499 26.1635 28.094 26.5393 27.8168 26.8165C27.5396 27.0937 27.1638 27.2496 26.7718 27.25H23.3323C22.9319 27.2552 22.5447 27.1068 22.2504 26.8352C21.9561 26.5636 21.7771 26.1896 21.7503 25.79V23.8369C21.7503 22.6035 18.7406 21.25 16.0003 21.25C13.2601 21.25 10.2503 22.6074 10.2503 23.8427V25.7812C10.252 26.1684 10.1001 26.5405 9.82789 26.8158C9.55566 27.0912 9.18533 27.2473 8.79813 27.25H5.22879C4.83679 27.2496 4.46095 27.0937 4.18376 26.8165C3.90656 26.5393 3.75067 26.1635 3.75027 25.7715V24.3046C3.75027 22.6699 7.2747 18.75 16.0003 18.75C24.7259 18.75 28.2503 22.6699 28.2503 24.3046V25.7715Z" fill="black"/>
</svg>
