<svg xmlns="http://www.w3.org/2000/svg" width="32" height="32" viewBox="0 0 32 32"><path d="M25.53 6.46983C25.3894 6.32938 25.1988 6.25049 25 6.25049C24.8012 6.25049 24.6106 6.32938 24.47 6.46983L7.75 23.1888V8.99983C7.75 8.80092 7.67098 8.61015 7.53033 8.4695C7.38968 8.32885 7.19891 8.24983 7 8.24983C6.80109 8.24983 6.61032 8.32885 6.46967 8.4695C6.32902 8.61015 6.25 8.80092 6.25 8.99983V24.9998C6.25 25.1987 6.32902 25.3895 6.46967 25.5302C6.61032 25.6708 6.80109 25.7498 7 25.7498H23C23.1989 25.7498 23.3897 25.6708 23.5303 25.5302C23.671 25.3895 23.75 25.1987 23.75 24.9998C23.75 24.8009 23.671 24.6101 23.5303 24.4695C23.3897 24.3288 23.1989 24.2498 23 24.2498H8.81L25.53 7.52983C25.5997 7.46026 25.6549 7.37765 25.6926 7.2867C25.7303 7.19576 25.7498 7.09828 25.7498 6.99983C25.7498 6.90138 25.7303 6.80389 25.6926 6.71295C25.6549 6.62201 25.5997 6.53939 25.53 6.46983Z"/></svg>