<svg xmlns="http://www.w3.org/2000/svg" width="32" height="32" viewBox="0 0 32 32"><path d="M12.707 8.70679L15 6.41379V11.9998C15 12.265 15.1054 12.5194 15.2929 12.7069C15.4804 12.8944 15.7348 12.9998 16 12.9998C16.2652 12.9998 16.5196 12.8944 16.7071 12.7069C16.8946 12.5194 17 12.265 17 11.9998V6.41379L19.294 8.70679C19.3857 8.80446 19.4961 8.88271 19.6187 8.93688C19.7413 8.99105 19.8735 9.02003 20.0074 9.02212C20.1414 9.0242 20.2744 8.99933 20.3986 8.94899C20.5228 8.89866 20.6356 8.82388 20.7303 8.72909C20.825 8.63431 20.8997 8.52146 20.95 8.39724C21.0002 8.27303 21.025 8.13998 21.0228 8.006C21.0207 7.87202 20.9916 7.73985 20.9373 7.61733C20.8831 7.49481 20.8047 7.38444 20.707 7.29279L16.707 3.29279C16.5195 3.10532 16.2652 3 16 3C15.7348 3 15.4805 3.10532 15.293 3.29279L11.293 7.29279C11.1055 7.48043 11.0002 7.73487 11.0003 8.00014C11.0004 8.26541 11.1059 8.51978 11.2935 8.70729C11.4811 8.89479 11.7356 9.00008 12.0009 8.99999C12.2661 8.99989 12.5205 8.89443 12.708 8.70679H12.707ZM16 16.9998C6.107 16.9998 2 21.7578 2 24.3048V25.7708C2.00079 26.6271 2.34138 27.4481 2.94698 28.0535C3.55258 28.6589 4.37369 28.9993 5.23 28.9998H8.8C9.65084 28.9961 10.4655 28.6551 11.0654 28.0517C11.6652 27.4483 12.0013 26.6316 12 25.7808V24.1448C13.1863 23.3662 14.5814 22.9668 16 22.9998C17.4179 22.9668 18.8125 23.3643 20 24.1398V25.7898C20.0279 26.6531 20.3914 27.4715 21.0132 28.0709C21.6351 28.6704 22.4663 29.0036 23.33 28.9998H26.77C27.6263 28.9993 28.4474 28.6589 29.053 28.0535C29.6586 27.4481 29.9992 26.6271 30 25.7708V24.3048C30 21.7578 25.893 16.9998 16 16.9998ZM28 25.7708C28 26.0966 27.8707 26.409 27.6404 26.6395C27.4101 26.8699 27.0978 26.9995 26.772 26.9998H23.332C22.9975 27.0066 22.6731 26.8852 22.4254 26.6603C22.1777 26.4355 22.0255 26.1243 22 25.7908V23.8368C22 22.3088 18.703 20.9998 16 20.9998C13.029 20.9998 10 22.4348 10 23.8428V25.7808C10.0019 26.1015 9.8765 26.41 9.65138 26.6385C9.42626 26.8669 9.11975 26.9969 8.799 26.9998H5.229C4.90313 26.9995 4.59068 26.87 4.36026 26.6395C4.12983 26.4091 4.00026 26.0967 4 25.7708V24.3048C4 22.7948 7.57 18.9998 16 18.9998C24.431 18.9998 28 22.7948 28 24.3048V25.7708Z"/></svg>