<svg xmlns="http://www.w3.org/2000/svg" width="32" height="32" viewBox="0 0 32 32"><path d="M2.25 9.55469C2.25 7.09473 6.2832 2.5 16 2.5C25.7168 2.5 29.75 7.09469 29.75 9.55465V11.0215C29.7491 11.8112 29.4351 12.5683 28.8767 13.1267C28.3183 13.6851 27.5611 13.9992 26.7714 14H23.331C22.5329 14.0054 21.7642 13.699 21.1886 13.1462C20.613 12.5933 20.2759 11.8377 20.249 11.04L20.25 9.27242C19.0048 8.40695 17.516 7.96119 16 7.99996C14.4833 7.96121 12.994 8.40882 11.75 9.2773V11.0312C11.7513 11.8161 11.4412 12.5695 10.8878 13.126C10.3343 13.6826 9.58273 13.9969 8.79785 14H5.22851C4.43881 13.9992 3.68169 13.6851 3.12329 13.1267C2.56488 12.5683 2.25082 11.8112 2.25 11.0215V9.55469ZM27.8165 12.0665C28.0937 11.7893 28.2496 11.4135 28.25 11.0215V9.55465C28.25 7.91988 24.7256 3.99996 16 3.99996C7.27441 3.99996 3.75 7.91988 3.75 9.55465V11.0215C3.75039 11.4135 3.90629 11.7893 4.18348 12.0665C4.46067 12.3437 4.8365 12.4996 5.22851 12.5H8.79785C9.18505 12.4973 9.55538 12.3412 9.82761 12.0658C10.0999 11.7905 10.2518 11.4184 10.25 11.0312V9.09273C10.25 7.85738 13.2598 6.49996 16.0001 6.49996C18.7403 6.49996 21.75 7.85347 21.75 9.08687L21.7491 11.04C21.7759 11.4396 21.9549 11.8136 22.2491 12.0852C22.5434 12.3568 22.9306 12.5052 23.3311 12.5H26.7715C27.1635 12.4996 27.5393 12.3437 27.8165 12.0665ZM16 14.25C16.4142 14.25 16.75 14.5858 16.75 15V20.4166L19.3031 22.9697C19.596 23.2626 19.596 23.7374 19.3031 24.0303C19.0102 24.3232 18.5353 24.3232 18.2424 24.0303L15.4697 21.2576C15.329 21.117 15.25 20.9262 15.25 20.7273V15C15.25 14.5858 15.5858 14.25 16 14.25ZM7.36066 15.7974C7.74866 15.9424 7.94567 16.3745 7.80068 16.7625C7.44487 17.7147 7.25 18.7462 7.25 19.825C7.25 24.6575 11.1675 28.575 16 28.575C20.8325 28.575 24.75 24.6575 24.75 19.825C24.75 18.7462 24.5551 17.7147 24.1993 16.7625C24.0543 16.3745 24.2513 15.9424 24.6393 15.7974C25.0274 15.6524 25.4594 15.8494 25.6044 16.2374C26.022 17.355 26.25 18.5642 26.25 19.825C26.25 25.4859 21.6609 30.075 16 30.075C10.3391 30.075 5.75 25.4859 5.75 19.825C5.75 18.5642 5.97796 17.355 6.39558 16.2374C6.54057 15.8494 6.97265 15.6524 7.36066 15.7974Z"/></svg>