<svg xmlns="http://www.w3.org/2000/svg" width="32" height="32" viewBox="0 0 32 32"><path d="M28.787 9.722C28.5618 9.58459 28.3044 9.50867 28.0407 9.50183C27.777 9.49498 27.516 9.55745 27.284 9.683L23.5 12.087V10C23.4987 8.80693 23.0241 7.66311 22.1805 6.81948C21.3369 5.97585 20.1931 5.50132 19 5.5H7C5.80693 5.50132 4.66311 5.97585 3.81948 6.81948C2.97585 7.66311 2.50132 8.80693 2.5 10V22C2.50132 23.1931 2.97585 24.3369 3.81948 25.1805C4.66311 26.0241 5.80693 26.4987 7 26.5H19C20.1931 26.4987 21.3369 26.0241 22.1805 25.1805C23.0241 24.3369 23.4987 23.1931 23.5 22V19.91L27.328 22.34C27.5566 22.4543 27.8106 22.5084 28.0659 22.497C28.3212 22.4856 28.5694 22.4091 28.7869 22.2749C29.0043 22.1407 29.1839 21.9531 29.3085 21.73C29.4332 21.5068 29.4987 21.2556 29.499 21V11C29.5 10.7438 29.435 10.4916 29.3103 10.2678C29.1856 10.044 29.0054 9.85603 28.787 9.722ZM22.5 22C22.4989 22.9279 22.1299 23.8176 21.4737 24.4737C20.8176 25.1299 19.9279 25.4989 19 25.5H7C6.07215 25.4987 5.18268 25.1295 4.52659 24.4734C3.8705 23.8173 3.50132 22.9279 3.5 22V10C3.50106 9.07207 3.87015 8.18244 4.5263 7.5263C5.18244 6.87015 6.07207 6.50106 7 6.5H19C19.9279 6.50106 20.8176 6.87015 21.4737 7.5263C22.1299 8.18244 22.4989 9.07207 22.5 10V22ZM28.497 21C28.4976 21.0851 28.476 21.169 28.4345 21.2433C28.3929 21.3176 28.3328 21.3799 28.26 21.424C28.196 21.467 28.1226 21.4939 28.0459 21.5023C27.9693 21.5106 27.8917 21.5002 27.82 21.472L23.5 18.727V13.272L27.776 10.552C27.8522 10.5142 27.9367 10.4964 28.0217 10.5005C28.1066 10.5045 28.1891 10.5302 28.2614 10.5751C28.3336 10.6199 28.3932 10.6825 28.4344 10.7569C28.4756 10.8313 28.4972 10.915 28.497 11V21Z M13.0049 11.5C11.8114 11.5 10.6668 11.9741 9.8229 12.818C8.97899 13.6619 8.50488 14.8065 8.50488 16C8.50488 17.1935 8.97899 18.3381 9.8229 19.182C10.6668 20.0259 11.8114 20.5 13.0049 20.5C14.1984 20.5 15.343 20.0259 16.1869 19.182C17.0308 18.3381 17.5049 17.1935 17.5049 16C17.5049 14.8065 17.0308 13.6619 16.1869 12.818C15.343 11.9741 14.1984 11.5 13.0049 11.5ZM13.0049 19.5C12.0766 19.5 11.1864 19.1313 10.53 18.4749C9.87363 17.8185 9.50488 16.9283 9.50488 16C9.50488 15.0717 9.87363 14.1815 10.53 13.5251C11.1864 12.8687 12.0766 12.5 13.0049 12.5C13.9331 12.5 14.8234 12.8687 15.4798 13.5251C16.1361 14.1815 16.5049 15.0717 16.5049 16C16.5049 16.9283 16.1361 17.8185 15.4798 18.4749C14.8234 19.1313 13.9331 19.5 13.0049 19.5Z"/></svg>