<svg width="32" height="32" viewBox="0 0 32 32" fill="none" xmlns="http://www.w3.org/2000/svg">
<path d="M28.7888 9.7243C28.5637 9.58568 28.3061 9.50889 28.0419 9.50169C27.7776 9.49449 27.5162 9.55714 27.2839 9.6833L23.4978 12.0913V10.0046C23.4965 8.81152 23.022 7.66768 22.1783 6.82405C21.3347 5.98042 20.1909 5.5059 18.9978 5.5046H6.9978C5.80472 5.5059 4.66088 5.98042 3.81725 6.82405C2.97362 7.66768 2.4991 8.81152 2.4978 10.0046V22.0046C2.4991 23.1977 2.97362 24.3415 3.81725 25.1851C4.66088 26.0288 5.80472 26.5033 6.9978 26.5046H18.9978C20.1909 26.5033 21.3347 26.0287 22.1783 25.1851C23.0219 24.3415 23.4965 23.1977 23.4978 22.0046V19.9092L27.3288 22.3415C27.5377 22.4462 27.768 22.501 28.0017 22.5015C28.399 22.4998 28.7795 22.3411 29.0602 22.0598C29.3408 21.7786 29.4988 21.3978 29.4997 21.0005V11C29.5007 10.7442 29.4358 10.4925 29.3113 10.2691C29.1868 10.0457 29.0068 9.85804 28.7888 9.7243ZM22.4978 22.0043C22.4967 22.9322 22.1276 23.8218 21.4714 24.4779C20.8153 25.1341 19.9257 25.5032 18.9978 25.5043H6.9978C6.06988 25.5032 5.18029 25.1341 4.52415 24.4779C3.86802 23.8218 3.49891 22.9322 3.4978 22.0043V10.0043C3.49891 9.07638 3.86802 8.18679 4.52415 7.53065C5.18029 6.87452 6.06988 6.50541 6.9978 6.5043H18.9978C19.9257 6.50541 20.8153 6.87452 21.4714 7.53065C22.1276 8.18679 22.4967 9.07638 22.4978 10.0043V22.0043ZM28.5 21.0007C28.4994 21.0817 28.4793 21.1613 28.4415 21.2329C28.4037 21.3045 28.3492 21.366 28.2828 21.4122C28.2163 21.4584 28.1396 21.488 28.0594 21.4985C27.9791 21.509 27.8974 21.5 27.8213 21.4724L23.4981 18.7247V13.2764L27.7764 10.5524C27.8527 10.5145 27.9374 10.4966 28.0225 10.5006C28.1076 10.5045 28.1903 10.5301 28.2627 10.5749C28.3351 10.6197 28.395 10.6823 28.4365 10.7567C28.478 10.8311 28.4999 10.9148 28.5 11V21.0007Z" fill="black"/>
</svg>
