<svg width="32" height="32" viewBox="0 0 32 32" fill="none" xmlns="http://www.w3.org/2000/svg">
<path d="M19.002 25.5H7.00195C6.0741 25.4986 5.18463 25.1295 4.52854 24.4734C3.87245 23.8173 3.50328 22.9278 3.50195 22V9.99997C3.50273 9.43571 3.64012 8.88002 3.90238 8.3804C4.16464 7.88078 4.54397 7.45209 5.00795 7.13097L4.30195 6.42397C3.74503 6.83972 3.29247 7.37935 2.98006 8.00017C2.66765 8.62099 2.50397 9.30598 2.50195 10.001V22.001C2.50328 23.194 2.97781 24.3379 3.82143 25.1815C4.66506 26.0251 5.80889 26.4996 7.00195 26.501H19.002C19.6969 26.499 20.3819 26.3353 21.0028 26.0229C21.6236 25.7105 22.1632 25.2579 22.579 24.701L21.872 23.994C21.5508 24.4583 21.122 24.8379 20.6222 25.1003C20.1224 25.3628 19.5665 25.5002 19.002 25.501V25.5ZM28.788 9.72397C28.5629 9.58612 28.3056 9.50985 28.0418 9.50283C27.778 9.49581 27.517 9.55828 27.285 9.68397L23.502 12.089V9.99997C23.5006 8.8069 23.0261 7.66308 22.1825 6.81945C21.3388 5.97583 20.195 5.50129 19.002 5.49997H7.00195C6.76195 5.50597 6.52195 5.53197 6.28595 5.57797L4.35295 3.64597C4.25865 3.55489 4.13235 3.50449 4.00125 3.50563C3.87015 3.50677 3.74475 3.55936 3.65204 3.65206C3.55934 3.74477 3.50676 3.87017 3.50562 4.00127C3.50448 4.13237 3.55487 4.25867 3.64595 4.35297L27.646 28.353C27.7397 28.4469 27.8669 28.4997 27.9996 28.4998C28.1323 28.4998 28.2596 28.4472 28.3535 28.3535C28.4473 28.2597 28.5001 28.1325 28.5002 27.9998C28.5003 27.8671 28.4477 27.7399 28.354 27.646L23.424 22.716C23.47 22.481 23.496 22.241 23.502 22.001V19.911L27.329 22.341C27.537 22.446 27.768 22.501 28.001 22.501C28.3985 22.4999 28.7794 22.3415 29.0604 22.0605C29.3415 21.7794 29.4999 21.3985 29.501 21.001V11C29.5017 10.7439 29.4366 10.492 29.3117 10.2685C29.1868 10.045 29.0064 9.85748 28.788 9.72397ZM22.502 21.794L7.20795 6.50197H19.002C19.9299 6.50303 20.8195 6.87212 21.4757 7.52827C22.1318 8.18441 22.5009 9.07404 22.502 10.002V21.796V21.794ZM28.5 21.001C28.4992 21.0818 28.479 21.1613 28.4412 21.2327C28.4034 21.3042 28.3491 21.3656 28.2827 21.4117C28.2163 21.4578 28.1398 21.4873 28.0596 21.4978C27.9795 21.5083 27.898 21.4995 27.822 21.472L23.502 18.727V13.274L27.777 10.552C27.8532 10.5143 27.9379 10.4966 28.0229 10.5007C28.1079 10.5047 28.1905 10.5304 28.2628 10.5752C28.3352 10.6201 28.3949 10.6826 28.4364 10.7569C28.4779 10.8312 28.4998 10.9149 28.5 11V21V21.001Z" fill="#0F0F0F"/>
</svg>
