<svg width="32" height="32" viewBox="0 0 32 32" fill="none" xmlns="http://www.w3.org/2000/svg">
<path d="M20.7504 15.9997C20.7504 15.0602 20.4718 14.1418 19.9499 13.3607C19.428 12.5796 18.6861 11.9708 17.8182 11.6112C16.9502 11.2517 15.9952 11.1577 15.0738 11.3409C14.1523 11.5242 13.306 11.9766 12.6417 12.6409C11.9774 13.3052 11.525 14.1516 11.3417 15.073C11.1584 15.9944 11.2525 16.9495 11.612 17.8174C11.9715 18.6854 12.5803 19.4272 13.3615 19.9491C14.1426 20.4711 15.061 20.7497 16.0004 20.7497C17.2598 20.7482 18.4671 20.2473 19.3576 19.3568C20.2481 18.4664 20.749 17.259 20.7504 15.9997ZM12.7504 15.9997C12.7504 15.3569 12.941 14.7285 13.2982 14.1941C13.6553 13.6596 14.1629 13.243 14.7567 12.9971C15.3506 12.7511 16.004 12.6867 16.6345 12.8121C17.2649 12.9375 17.844 13.2471 18.2985 13.7016C18.753 14.1561 19.0626 14.7352 19.188 15.3656C19.3134 15.9961 19.249 16.6495 19.003 17.2434C18.7571 17.8372 18.3405 18.3448 17.806 18.7019C17.2716 19.0591 16.6432 19.2497 16.0004 19.2497C15.1388 19.2487 14.3127 18.9059 13.7034 18.2967C13.0942 17.6874 12.7514 16.8613 12.7504 15.9997Z" fill="black"/>
<path d="M27.0004 19.2497C26.8015 19.2497 26.6108 19.3288 26.4702 19.4694C26.3295 19.61 26.2505 19.8008 26.2504 19.9997V22.9997C26.2494 23.8613 25.9067 24.6874 25.2974 25.2967C24.6882 25.9059 23.8621 26.2487 23.0004 26.2497H9.00043C8.13878 26.2487 7.31271 25.9059 6.70343 25.2967C6.09415 24.6874 5.75143 23.8613 5.75043 22.9997V17.8102L8.47015 20.53C8.6108 20.6706 8.80155 20.7496 9.00045 20.7496C9.19934 20.7496 9.39009 20.6706 9.53073 20.53C9.67136 20.3893 9.75037 20.1986 9.75037 19.9997C9.75036 19.8008 9.67135 19.61 9.5307 19.4694L5.5307 15.4694C5.46108 15.3997 5.37841 15.3445 5.28743 15.3068C5.19644 15.2691 5.09892 15.2497 5.00043 15.2497C4.90194 15.2497 4.80442 15.2691 4.71343 15.3068C4.62244 15.3445 4.53978 15.3997 4.47015 15.4694L0.470153 19.4694C0.329509 19.61 0.250493 19.8008 0.250488 19.9997C0.250484 20.1986 0.32949 20.3893 0.470128 20.53C0.610766 20.6706 0.801514 20.7496 1.00041 20.7496C1.19931 20.7496 1.39006 20.6706 1.5307 20.53L4.25043 17.8103V22.9997C4.25186 24.2591 4.75277 25.4664 5.64325 26.3569C6.53374 27.2474 7.74109 27.7483 9.00043 27.7497H23.0004C24.2598 27.7483 25.4671 27.2474 26.3576 26.3569C27.2481 25.4664 27.749 24.2591 27.7504 22.9997V19.9997C27.7504 19.8008 27.6714 19.6101 27.5307 19.4694C27.3901 19.3288 27.1993 19.2497 27.0004 19.2497Z" fill="black"/>
<path d="M31.5297 11.4694C31.4601 11.3997 31.3774 11.3445 31.2864 11.3068C31.1955 11.2691 31.0979 11.2497 30.9995 11.2497C30.901 11.2497 30.8034 11.2691 30.7125 11.3068C30.6215 11.3445 30.5388 11.3997 30.4692 11.4694L27.7494 14.1891V8.9987C27.748 7.73936 27.2471 6.53201 26.3566 5.64152C25.4661 4.75103 24.2588 4.25013 22.9994 4.2487H8.99944C7.7401 4.25013 6.53275 4.75104 5.64227 5.64152C4.75178 6.53201 4.25087 7.73936 4.24944 8.9987V11.9997C4.24944 12.1986 4.32846 12.3894 4.46911 12.53C4.60977 12.6707 4.80053 12.7497 4.99944 12.7497C5.19836 12.7497 5.38912 12.6707 5.52977 12.53C5.67042 12.3894 5.74944 12.1986 5.74944 11.9997V8.9987C5.75044 8.13705 6.09317 7.31098 6.70245 6.7017C7.31172 6.09243 8.1378 5.7497 8.99944 5.7487H22.9994C23.8611 5.74969 24.6872 6.09242 25.2964 6.7017C25.9057 7.31098 26.2484 8.13705 26.2494 8.9987V14.1891L23.5297 11.4694C23.3891 11.3288 23.1983 11.2498 22.9994 11.2498C22.8005 11.2498 22.6098 11.3288 22.4692 11.4694C22.3285 11.6101 22.2495 11.8008 22.2495 11.9997C22.2495 12.1986 22.3285 12.3894 22.4692 12.53L26.4692 16.53C26.5388 16.5997 26.6215 16.6549 26.7125 16.6926C26.8034 16.7303 26.901 16.7497 26.9995 16.7497C27.0979 16.7497 27.1955 16.7303 27.2864 16.6926C27.3774 16.6549 27.4601 16.5997 27.5297 16.53L31.5297 12.53C31.5994 12.4604 31.6547 12.3777 31.6924 12.2867C31.7301 12.1957 31.7495 12.0982 31.7495 11.9997C31.7495 11.9012 31.7301 11.8037 31.6924 11.7127C31.6547 11.6217 31.5994 11.539 31.5297 11.4694Z" fill="black"/>
</svg>
