<svg xmlns="http://www.w3.org/2000/svg" width="32" height="32" viewBox="0 0 32 32"><path d="M28.789 9.72398C28.5637 9.58575 28.306 9.50928 28.0418 9.50226C27.7776 9.49524 27.5162 9.55791 27.284 9.68398L23.502 12.088V10.001C23.5006 8.80791 23.0261 7.66408 22.1825 6.82046C21.3388 5.97683 20.195 5.5023 19.002 5.50098H7.00195C5.80889 5.5023 4.66506 5.97683 3.82143 6.82046C2.97781 7.66408 2.50328 8.80791 2.50195 10.001V22.001C2.50328 23.194 2.97781 24.3379 3.82143 25.1815C4.66506 26.0251 5.80889 26.4997 7.00195 26.501H19.002C20.1951 26.4999 21.3391 26.0255 22.1828 25.1818C23.0264 24.3381 23.5009 23.1941 23.502 22.001V19.911L27.329 22.341C27.538 22.446 27.768 22.501 28.001 22.501C28.3983 22.4997 28.7789 22.3412 29.0598 22.0601C29.3407 21.7791 29.4989 21.3983 29.5 21.001V11C29.501 10.7441 29.4361 10.4924 29.3115 10.2689C29.187 10.0454 29.007 9.85773 28.789 9.72398ZM22.502 22.001C22.5009 22.9289 22.1318 23.8185 21.4757 24.4747C20.8195 25.1308 19.9299 25.4999 19.002 25.501H7.00195C6.07402 25.4999 5.1844 25.1308 4.52825 24.4747C3.8721 23.8185 3.50301 22.9289 3.50195 22.001V9.99998C3.50301 9.07204 3.8721 8.18242 4.52825 7.52627C5.1844 6.87012 6.07402 6.50104 7.00195 6.49998H19.002C19.9299 6.50104 20.8195 6.87012 21.4757 7.52627C22.1318 8.18242 22.5009 9.07204 22.502 9.99998V22V22.001ZM28.5 21.001C28.4995 21.0821 28.4795 21.162 28.4417 21.2338C28.4038 21.3056 28.3492 21.3672 28.2825 21.4134C28.2158 21.4596 28.1389 21.4891 28.0584 21.4993C27.9779 21.5095 27.8961 21.5001 27.82 21.472L23.502 18.728V13.274L27.776 10.552C27.8523 10.5137 27.9371 10.4957 28.0223 10.4995C28.1076 10.5033 28.1905 10.5289 28.2631 10.5738C28.3356 10.6187 28.3955 10.6815 28.437 10.7561C28.4784 10.8307 28.5001 10.9146 28.5 11V21V21.001Z"/></svg>