<svg width="32" height="32" viewBox="0 0 32 32" xmlns="http://www.w3.org/2000/svg">
<g id="camera-on-colored-light" stroke="none" stroke-width="1">
<path d="M9 13.5001C9.82843 13.5001 10.5 12.8285 10.5 12.0001C10.5 11.1716 9.82843 10.5001 9 10.5001C8.17158 10.5001 7.5 11.1716 7.5 12.0001C7.5 12.8285 8.17158 13.5001 9 13.5001Z"/>
<path d="M28.7866 9.723C28.5614 9.58543 28.3042 9.50934 28.0404 9.50232C27.7767 9.4953 27.5158 9.5576 27.2836 9.683L23.5014 12.087V10.0003C23.5001 8.80723 23.0256 7.66339 22.1819 6.81976C21.3383 5.97613 20.1945 5.5016 19.0014 5.50031H7.0014C5.80833 5.50161 4.66449 5.97613 3.82086 6.81976C2.97723 7.66339 2.50271 8.80723 2.5014 10.0003V22.0003C2.50271 23.1934 2.97723 24.3372 3.82086 25.1808C4.6645 26.0245 5.80833 26.499 7.0014 26.5003H19.0014C20.1945 26.499 21.3383 26.0245 22.1819 25.1808C23.0256 24.3372 23.5001 23.1934 23.5014 22.0003V19.9112L27.3276 22.3411C27.5559 22.4565 27.81 22.5111 28.0655 22.4998C28.321 22.4885 28.5694 22.4117 28.7866 22.2767C29.0049 22.1427 29.185 21.9548 29.3097 21.7311C29.4343 21.5074 29.4994 21.2554 29.4985 20.9993V10.9993C29.4994 10.7434 29.4344 10.4914 29.3097 10.2679C29.185 10.0443 29.0049 9.85669 28.7866 9.723ZM22.5014 22.0003C22.5003 22.9282 22.1312 23.8178 21.475 24.4739C20.8189 25.1301 19.9293 25.4992 19.0014 25.5003H7.0014C6.07349 25.4992 5.18391 25.1301 4.52778 24.4739C3.87164 23.8178 3.50253 22.9282 3.5014 22.0003V10.0003C3.50253 9.07239 3.87164 8.18281 4.52777 7.52667C5.18391 6.87054 6.07349 6.50143 7.0014 6.50031H19.0014C19.9293 6.50143 20.8189 6.87054 21.475 7.52667C22.1312 8.18281 22.5003 9.07239 22.5014 10.0003V22.0003ZM28.4985 20.9993C28.4992 21.0848 28.4777 21.1689 28.4361 21.2436C28.3945 21.3182 28.3342 21.3807 28.2612 21.4251C28.1972 21.4683 28.1236 21.4952 28.0468 21.5034C27.97 21.5116 27.8924 21.5008 27.8207 21.472L23.5014 18.7264V13.272L27.7758 10.552C27.852 10.5142 27.9366 10.4964 28.0216 10.5004C28.1066 10.5043 28.1892 10.5299 28.2615 10.5747C28.3339 10.6195 28.3936 10.682 28.4351 10.7563C28.4765 10.8305 28.4984 10.9142 28.4985 10.9993V20.9993Z"/>
<path d="M9 13.5C9.82843 13.5 10.5 12.8284 10.5 12C10.5 11.1716 9.82843 10.5 9 10.5C8.17157 10.5 7.5 11.1716 7.5 12C7.5 12.8284 8.17157 13.5 9 13.5Z" fill="#27A17A"/>
</g>
</svg>