<svg width="32" height="32" viewBox="0 0 32 32" fill="none" xmlns="http://www.w3.org/2000/svg">
<path d="M28.7888 9.7243C28.5637 9.5857 28.3061 9.50892 28.0419 9.50173C27.7776 9.49453 27.5162 9.55716 27.2839 9.6833L23.5017 12.088V10.0007C23.5004 8.80763 23.0259 7.66379 22.1822 6.82015C21.3386 5.97652 20.1948 5.502 19.0017 5.5007H7.0017C5.80862 5.502 4.66478 5.97652 3.82115 6.82015C2.97752 7.66379 2.503 8.80763 2.5017 10.0007V22.0007C2.503 23.1938 2.97752 24.3376 3.82115 25.1812C4.66478 26.0249 5.80862 26.4994 7.0017 26.5007H19.0017C20.1948 26.4994 21.3386 26.0248 22.1822 25.1812C23.0258 24.3376 23.5004 23.1938 23.5017 22.0007V19.9107L27.3288 22.3413C27.5374 22.4459 27.7674 22.5007 28.0007 22.5013C28.3983 22.5 28.7792 22.3413 29.0601 22.06C29.3411 21.7787 29.4992 21.3976 29.5 21V11C29.5009 10.7442 29.436 10.4925 29.3114 10.269C29.1869 10.0456 29.0069 9.85801 28.7888 9.7243Z" fill="black"/>
</svg>
