<svg xmlns="http://www.w3.org/2000/svg" width="32" height="32" viewBox="0 0 32 32"><path d="M26.443 8.49994H23.2C22.325 8.49994 22.024 8.43994 21.693 8.01294L20.526 6.67694C20.2213 6.30264 19.8356 6.00228 19.3981 5.79842C18.9606 5.59456 18.4826 5.49251 18 5.49994H14C13.5233 5.49212 13.0509 5.59191 12.6181 5.79188C12.1852 5.99185 11.8031 6.28685 11.5 6.65494L10.296 8.03494C9.984 8.43894 9.681 8.49994 8.8 8.49994H5.6C4.82881 8.45406 4.07065 8.71431 3.49022 9.22416C2.90979 9.734 2.55395 10.4523 2.5 11.2229V23.7639C2.55196 24.5364 2.90675 25.2572 3.48725 25.7696C4.06775 26.2819 4.82702 26.5444 5.6 26.4999H26.4C27.1713 26.5455 27.9294 26.2851 28.5098 25.7751C29.0902 25.2651 29.446 24.5467 29.5 23.7759V11.2229C29.4521 10.4578 29.104 9.74257 28.5316 9.23266C27.9591 8.72276 27.2085 8.45943 26.443 8.49994ZM16 21.9999C14.6739 21.9999 13.4021 21.4732 12.4645 20.5355C11.5268 19.5978 11 18.326 11 16.9999C11 15.6739 11.5268 14.4021 12.4645 13.4644C13.4021 12.5267 14.6739 11.9999 16 11.9999C17.3261 11.9999 18.5979 12.5267 19.5355 13.4644C20.4732 14.4021 21 15.6739 21 16.9999C21 18.326 20.4732 19.5978 19.5355 20.5355C18.5979 21.4732 17.3261 21.9999 16 21.9999Z M16 20C16.7956 20 17.5587 19.6839 18.1213 19.1213C18.6839 18.5587 19 17.7956 19 17C19 16.2044 18.6839 15.4413 18.1213 14.8787C17.5587 14.3161 16.7956 14 16 14C15.2044 14 14.4413 14.3161 13.8787 14.8787C13.3161 15.4413 13 16.2044 13 17C13 17.7956 13.3161 18.5587 13.8787 19.1213C14.4413 19.6839 15.2044 20 16 20Z"/></svg>