<svg xmlns="http://www.w3.org/2000/svg" width="32" height="32" viewBox="0 0 32 32"><path d="M29.05 9.298C28.7606 9.11758 28.4297 9.01471 28.089 8.9993C27.7483 8.98389 27.4095 9.05645 27.105 9.21C27.0744 9.22544 27.0447 9.24247 27.016 9.261L24.001 11.177V10C23.9994 8.6744 23.4721 7.40356 22.5348 6.46622C21.5974 5.52888 20.3266 5.00159 19.001 5H7.00098C5.67538 5.00159 4.40453 5.52888 3.4672 6.46622C2.52986 7.40356 2.00256 8.6744 2.00098 10V22C2.00256 23.3256 2.52986 24.5964 3.4672 25.5338C4.40453 26.4711 5.67538 26.9984 7.00098 27H19.001C20.3266 26.9984 21.5974 26.4711 22.5348 25.5338C23.4721 24.5964 23.9994 23.3256 24.001 22V20.821L27.016 22.738C27.0442 22.7565 27.0736 22.7732 27.104 22.788C27.4089 22.9404 27.7477 23.0123 28.0882 22.9969C28.4287 22.9815 28.7597 22.8794 29.0496 22.7001C29.3396 22.5209 29.5789 22.2705 29.7449 21.9728C29.9108 21.6751 29.998 21.3399 29.998 20.999V11C29.999 10.6591 29.9123 10.3237 29.7463 10.026C29.5803 9.72834 29.3405 9.47832 29.05 9.3V9.298ZM22.001 22C22.0002 22.7954 21.6839 23.558 21.1214 24.1204C20.559 24.6829 19.7964 24.9992 19.001 25H7.00098C6.20557 24.9992 5.44297 24.6829 4.88053 24.1204C4.3181 23.558 4.00177 22.7954 4.00098 22V10C4.00177 9.20459 4.3181 8.44199 4.88053 7.87956C5.44297 7.31712 6.20557 7.00079 7.00098 7H19.001C19.7964 7.00079 20.559 7.31712 21.1214 7.87956C21.6839 8.44199 22.0002 9.20459 22.001 10V22ZM24.001 18.452V13.546L27.998 11.006L28 20.994L24.001 18.452Z M9 14C9.53043 14 10.0391 13.7893 10.4142 13.4142C10.7893 13.0391 11 12.5304 11 12C11 11.4696 10.7893 10.9609 10.4142 10.5858C10.0391 10.2107 9.53043 10 9 10C8.46957 10 7.96086 10.2107 7.58579 10.5858C7.21071 10.9609 7 11.4696 7 12C7 12.5304 7.21071 13.0391 7.58579 13.4142C7.96086 13.7893 8.46957 14 9 14Z"/></svg>