<svg xmlns="http://www.w3.org/2000/svg" width="32" height="32" viewBox="0 0 32 32"><path d="M28.92 9.511C28.6545 9.34909 28.351 9.26022 28.0402 9.25337C27.7294 9.24652 27.4222 9.32194 27.15 9.472L23.752 11.634V10C23.7504 8.74071 23.2494 7.53345 22.359 6.643C21.4685 5.75254 20.2612 5.25159 19.002 5.25H7.00195C5.74258 5.25132 4.53517 5.75219 3.64466 6.6427C2.75415 7.53322 2.25328 8.74063 2.25195 10V22C2.25328 23.2594 2.75415 24.4668 3.64466 25.3573C4.53517 26.2478 5.74258 26.7487 7.00195 26.75H19.002C20.2613 26.7487 21.4687 26.2478 22.3592 25.3573C23.2498 24.4668 23.7506 23.2594 23.752 22V20.365L27.217 22.565C27.4838 22.6985 27.7803 22.7615 28.0783 22.7482C28.3763 22.7348 28.666 22.6455 28.9198 22.4887C29.1736 22.3319 29.3831 22.1128 29.5284 21.8523C29.6737 21.5917 29.7499 21.2983 29.75 21V11C29.7512 10.7014 29.6754 10.4076 29.53 10.1467C29.3847 9.88594 29.1746 9.66699 28.92 9.511ZM22.252 22.001C22.2512 22.8627 21.9085 23.6889 21.2992 24.2982C20.6899 24.9075 19.8637 25.2502 19.002 25.251H7.00195C6.14007 25.2502 5.31373 24.9074 4.70438 24.2979C4.09503 23.6883 3.75248 22.8619 3.75195 22V10C3.75301 9.13837 4.09576 8.31234 4.70502 7.70307C5.31429 7.09381 6.14032 6.75106 7.00195 6.75H19.002C19.8636 6.75106 20.6896 7.09381 21.2989 7.70307C21.9081 8.31234 22.2509 9.13837 22.252 10V22V22.001ZM28.25 21.001C28.2507 21.0436 28.2402 21.0856 28.2194 21.1229C28.1987 21.1601 28.1685 21.1912 28.132 21.213C28.087 21.241 27.995 21.279 27.955 21.261L23.752 18.591V13.411L27.888 10.776C27.9259 10.7567 27.9682 10.7474 28.0108 10.7492C28.0533 10.7509 28.0947 10.7636 28.131 10.786C28.168 10.8079 28.1985 10.8393 28.2194 10.8769C28.2403 10.9145 28.2508 10.957 28.25 11V21V21.001Z"/></svg>