<svg xmlns="http://www.w3.org/2000/svg" width="32" height="32" viewBox="0 0 32 32"><path d="M20.5 16C20.5 14.8065 20.0259 13.6619 19.182 12.818C18.3381 11.9741 17.1935 11.5 16 11.5C14.8065 11.5 13.6619 11.9741 12.818 12.818C11.9741 13.6619 11.5 14.8065 11.5 16C11.5 17.1935 11.9741 18.3381 12.818 19.182C13.6619 20.0259 14.8065 20.5 16 20.5C17.1935 20.5 18.3381 20.0259 19.182 19.182C20.0259 18.3381 20.5 17.1935 20.5 16ZM12.5 16C12.5 15.0717 12.8687 14.1815 13.5251 13.5251C14.1815 12.8687 15.0717 12.5 16 12.5C16.9283 12.5 17.8185 12.8687 18.4749 13.5251C19.1313 14.1815 19.5 15.0717 19.5 16C19.5 16.9283 19.1313 17.8185 18.4749 18.4749C17.8185 19.1313 16.9283 19.5 16 19.5C15.0717 19.5 14.1815 19.1313 13.5251 18.4749C12.8687 17.8185 12.5 16.9283 12.5 16Z M26.9999 19.5C26.9342 19.4996 26.869 19.5123 26.8081 19.5373C26.7473 19.5623 26.692 19.5991 26.6455 19.6456C26.599 19.6921 26.5622 19.7474 26.5372 19.8082C26.5122 19.8691 26.4996 19.9343 26.4999 20V23C26.4989 23.928 26.1298 24.8176 25.4737 25.4737C24.8175 26.1299 23.9279 26.499 22.9999 26.5H8.99995C8.0721 26.4987 7.18263 26.1295 6.52653 25.4734C5.87044 24.8173 5.50127 23.9279 5.49995 23V17.207L8.64695 20.353C8.69215 20.4046 8.74744 20.4463 8.80941 20.4756C8.87139 20.5049 8.93871 20.5212 9.00723 20.5235C9.07575 20.5257 9.144 20.5139 9.20776 20.4887C9.27152 20.4635 9.32943 20.4255 9.37791 20.377C9.42639 20.3285 9.4644 20.2706 9.48959 20.2068C9.51478 20.1431 9.52662 20.0748 9.52438 20.0063C9.52213 19.9378 9.50585 19.8705 9.47653 19.8085C9.44722 19.7465 9.40549 19.6912 9.35395 19.646L5.35395 15.646C5.25993 15.5528 5.13287 15.5005 5.00045 15.5005C4.86803 15.5005 4.74097 15.5528 4.64695 15.646L0.646948 19.646C0.555869 19.7403 0.505471 19.8666 0.506611 19.9977C0.50775 20.1288 0.560334 20.2542 0.653038 20.3469C0.745742 20.4396 0.871149 20.4922 1.00225 20.4934C1.13335 20.4945 1.25965 20.4441 1.35395 20.353L4.49995 17.207V23C4.50127 24.1931 4.9758 25.3369 5.81943 26.1805C6.66306 27.0242 7.80688 27.4987 8.99995 27.5H22.9999C24.193 27.4987 25.3368 27.0242 26.1805 26.1805C27.0241 25.3369 27.4986 24.1931 27.4999 23V20C27.4999 19.8674 27.4473 19.7402 27.3535 19.6465C27.2597 19.5527 27.1326 19.5 26.9999 19.5ZM31.3529 11.646C31.3067 11.5994 31.2516 11.5623 31.1909 11.5371C31.1302 11.5118 31.0652 11.4988 30.9994 11.4988C30.9337 11.4988 30.8687 11.5118 30.808 11.5371C30.7473 11.5623 30.6922 11.5994 30.6459 11.646L27.4999 14.793V8.99902C27.4986 7.80595 27.0241 6.66213 26.1805 5.8185C25.3368 4.97488 24.193 4.50035 22.9999 4.49902H8.99995C7.80688 4.50035 6.66306 4.97488 5.81943 5.8185C4.9758 6.66213 4.50127 7.80595 4.49995 8.99902V11.999C4.49995 12.1316 4.55263 12.2588 4.64639 12.3526C4.74016 12.4463 4.86734 12.499 4.99995 12.499C5.13256 12.499 5.25973 12.4463 5.3535 12.3526C5.44727 12.2588 5.49995 12.1316 5.49995 11.999V9.00002C5.50101 8.07209 5.8701 7.18247 6.52624 6.52632C7.18239 5.87017 8.07201 5.50108 8.99995 5.50002H22.9999C23.9279 5.50108 24.8175 5.87017 25.4737 6.52632C26.1298 7.18247 26.4989 8.07209 26.4999 9.00002V14.794L23.3529 11.647C23.2586 11.5559 23.1323 11.5055 23.0012 11.5067C22.8701 11.5078 22.7447 11.5604 22.652 11.6531C22.5593 11.7458 22.5068 11.8712 22.5056 12.0023C22.5045 12.1334 22.5549 12.2597 22.6459 12.354L26.6459 16.354C26.7397 16.4478 26.8669 16.5004 26.9994 16.5004C27.132 16.5004 27.2592 16.4478 27.3529 16.354L31.3529 12.354C31.4464 12.2601 31.4989 12.133 31.4989 12.0005C31.4989 11.868 31.4464 11.7409 31.3529 11.647V11.646Z"/></svg>