<svg xmlns="http://www.w3.org/2000/svg" width="32" height="32" viewBox="0 0 32 32"><path d="M21 16C21 15.0111 20.7068 14.0444 20.1574 13.2222C19.6079 12.3999 18.8271 11.759 17.9134 11.3806C16.9998 11.0022 15.9945 10.9031 15.0246 11.0961C14.0546 11.289 13.1637 11.7652 12.4645 12.4645C11.7652 13.1637 11.289 14.0546 11.0961 15.0246C10.9031 15.9945 11.0022 16.9998 11.3806 17.9134C11.759 18.8271 12.3999 19.6079 13.2222 20.1574C14.0444 20.7068 15.0111 21 16 21C17.3256 20.9984 18.5964 20.4711 19.5338 19.5338C20.4711 18.5964 20.9984 17.3256 21 16ZM13 16C13 15.2044 13.3161 14.4413 13.8787 13.8787C14.4413 13.3161 15.2044 13 16 13C16.7957 13 17.5587 13.3161 18.1213 13.8787C18.6839 14.4413 19 15.2044 19 16C19 16.7957 18.6839 17.5587 18.1213 18.1213C17.5587 18.6839 16.7957 19 16 19C15.2044 19 14.4413 18.6839 13.8787 18.1213C13.3161 17.5587 13 16.7957 13 16Z M26.9999 19C26.7347 19 26.4804 19.1054 26.2928 19.2929C26.1053 19.4805 25.9999 19.7348 25.9999 20V23C25.9992 23.7954 25.6828 24.558 25.1204 25.1205C24.558 25.6829 23.7954 25.9992 22.9999 26H8.99995C8.20454 25.9992 7.44194 25.6829 6.8795 25.1205C6.31707 24.558 6.00074 23.7954 5.99995 23V18.414L8.29295 20.707C8.38579 20.7999 8.49603 20.8736 8.61736 20.924C8.73869 20.9743 8.86874 21.0002 9.00009 21.0002C9.13144 21.0003 9.26151 20.9744 9.38288 20.9242C9.50425 20.874 9.61454 20.8004 9.70745 20.7075C9.80036 20.6147 9.87407 20.5044 9.92438 20.3831C9.97469 20.2618 10.0006 20.1317 10.0006 20.0004C10.0007 19.869 9.97487 19.739 9.92465 19.6176C9.87443 19.4962 9.80079 19.3859 9.70795 19.293L5.70795 15.293C5.61507 15.2 5.50479 15.1263 5.38339 15.076C5.26199 15.0256 5.13186 14.9997 5.00045 14.9997C4.86903 14.9997 4.7389 15.0256 4.61751 15.076C4.49611 15.1263 4.38582 15.2 4.29295 15.293L0.292947 19.293C0.200102 19.3859 0.126467 19.4962 0.0762448 19.6176C0.0260228 19.739 0.000197775 19.869 0.000244203 20.0004C0.000290631 20.1317 0.0262076 20.2618 0.0765154 20.3831C0.126823 20.5044 0.200537 20.6147 0.293447 20.7075C0.386357 20.8004 0.496645 20.874 0.618012 20.9242C0.73938 20.9744 0.869452 21.0003 1.0008 21.0002C1.13215 21.0002 1.2622 20.9743 1.38353 20.924C1.50487 20.8736 1.6151 20.7999 1.70795 20.707L3.99995 18.414V23C4.00153 24.3256 4.52883 25.5965 5.46617 26.5338C6.4035 27.4711 7.67435 27.9984 8.99995 28H22.9999C24.3255 27.9984 25.5964 27.4711 26.5337 26.5338C27.4711 25.5965 27.9984 24.3256 27.9999 23V20C27.9999 19.7348 27.8946 19.4805 27.7071 19.2929C27.5195 19.1054 27.2652 19 26.9999 19ZM31.7059 11.293C31.5185 11.1059 31.2644 11.0007 30.9994 11.0007C30.7345 11.0007 30.4804 11.1059 30.2929 11.293L27.9999 13.586V8.99902C27.9984 7.67343 27.4711 6.40258 26.5337 5.46524C25.5964 4.52791 24.3255 4.00061 22.9999 3.99902H8.99995C7.67435 4.00061 6.4035 4.52791 5.46617 5.46524C4.52883 6.40258 4.00153 7.67343 3.99995 8.99902V11.999C3.99995 12.2642 4.1053 12.5186 4.29284 12.7061C4.48038 12.8937 4.73473 12.999 4.99995 12.999C5.26516 12.999 5.51952 12.8937 5.70705 12.7061C5.89459 12.5186 5.99995 12.2642 5.99995 11.999V9.00002C6.00074 8.20462 6.31707 7.44202 6.8795 6.87958C7.44194 6.31714 8.20454 6.00082 8.99995 6.00002H22.9999C23.7954 6.00082 24.558 6.31714 25.1204 6.87958C25.6828 7.44202 25.9992 8.20462 25.9999 9.00002V13.587L23.7059 11.294C23.5173 11.1119 23.2647 11.0111 23.0025 11.0133C22.7403 11.0156 22.4895 11.1208 22.3041 11.3062C22.1187 11.4916 22.0136 11.7424 22.0113 12.0046C22.009 12.2668 22.1098 12.5194 22.2919 12.708L26.2919 16.708C26.4795 16.8955 26.7338 17.0008 26.9989 17.0008C27.2641 17.0008 27.5184 16.8955 27.7059 16.708L31.7059 12.708C31.8932 12.5204 31.9983 12.2661 31.9983 12.001C31.9983 11.7359 31.8932 11.4817 31.7059 11.294V11.293Z"/></svg>