<svg xmlns="http://www.w3.org/2000/svg" width="32" height="32" viewBox="0 0 32 32"><path d="M28.788 9.72392C28.5629 9.58606 28.3056 9.5098 28.0418 9.50278C27.778 9.49576 27.517 9.55823 27.285 9.68392L23.502 12.0889V9.99992C23.5006 8.80685 23.0261 7.66303 22.1825 6.8194C21.3388 5.97577 20.195 5.50124 19.002 5.49992H7.00195C6.97495 5.49992 6.94795 5.50492 6.92095 5.50592L4.70695 3.29292C4.51835 3.11076 4.26575 3.00997 4.00355 3.01224C3.74135 3.01452 3.49054 3.11969 3.30513 3.3051C3.11973 3.49051 3.01456 3.74132 3.01228 4.00352C3.01 4.26571 3.11079 4.51832 3.29295 4.70692L27.293 28.7069C27.3858 28.7998 27.496 28.8735 27.6174 28.9238C27.7387 28.9742 27.8688 29.0001 28.0001 29.0001C28.1314 29.0002 28.2615 28.9743 28.3829 28.9241C28.5043 28.8739 28.6145 28.8003 28.7075 28.7074C28.8004 28.6146 28.8741 28.5043 28.9244 28.383C28.9747 28.2617 29.0006 28.1316 29.0007 28.0003C29.0007 27.8689 28.9749 27.7389 28.9247 27.6175C28.8744 27.4961 28.8008 27.3858 28.708 27.2929L23.497 22.0819L23.502 19.9119L27.329 22.3419C27.537 22.4459 27.768 22.5009 28.001 22.5019C28.3986 22.5009 28.7797 22.3423 29.0608 22.0611C29.3419 21.7798 29.5002 21.3986 29.501 21.0009V10.9999C29.5019 10.7439 29.4368 10.4919 29.3119 10.2683C29.187 10.0448 29.0065 9.85728 28.788 9.72392ZM2.50195 9.99992V21.9999C2.50328 23.193 2.97781 24.3368 3.82143 25.1804C4.66506 26.0241 5.80889 26.4986 7.00195 26.4999H19.002C19.892 26.5009 20.762 26.2359 21.5 25.7399L3.26295 7.50292C2.76682 8.24147 2.50221 9.11121 2.50295 10.0009L2.50195 9.99992Z"/></svg>