<svg width="32" height="32" viewBox="0 0 32 32" fill="none" xmlns="http://www.w3.org/2000/svg">
<path d="M8.99994 13.5C9.82837 13.5 10.4999 12.8285 10.4999 12C10.4999 11.1716 9.82837 10.5 8.99994 10.5C8.17152 10.5 7.49994 11.1716 7.49994 12C7.49994 12.8285 8.17152 13.5 8.99994 13.5Z" fill="black"/>
<path d="M28.7865 9.723C28.5614 9.58543 28.3041 9.50933 28.0404 9.50231C27.7766 9.49529 27.5157 9.5576 27.2836 9.683L23.5013 12.087V10.0003C23.5 8.80723 23.0255 7.66339 22.1819 6.81976C21.3383 5.97612 20.1944 5.5016 19.0013 5.5003H7.00134C5.80827 5.5016 4.66443 5.97613 3.8208 6.81976C2.97717 7.66339 2.50265 8.80723 2.50134 10.0003V22.0003C2.50265 23.1934 2.97717 24.3372 3.8208 25.1808C4.66443 26.0245 5.80827 26.499 7.00134 26.5003H19.0013C20.1944 26.499 21.3383 26.0245 22.1819 25.1808C23.0255 24.3372 23.5 23.1934 23.5013 22.0003V19.9112L27.3275 22.3411C27.5558 22.4565 27.8099 22.5111 28.0655 22.4998C28.321 22.4885 28.5693 22.4117 28.7865 22.2767C29.0048 22.1427 29.1849 21.9548 29.3096 21.7311C29.4343 21.5074 29.4993 21.2554 29.4984 20.9993V10.9993C29.4994 10.7433 29.4344 10.4914 29.3097 10.2679C29.185 10.0443 29.0048 9.85668 28.7865 9.723ZM22.5013 22.0003C22.5002 22.9282 22.1311 23.8178 21.475 24.4739C20.8188 25.1301 19.9293 25.4992 19.0013 25.5003H7.00134C6.07343 25.4992 5.18385 25.1301 4.52771 24.4739C3.87158 23.8178 3.50247 22.9282 3.50134 22.0003V10.0003C3.50247 9.07239 3.87158 8.1828 4.52771 7.52667C5.18385 6.87053 6.07343 6.50142 7.00134 6.5003H19.0013C19.9293 6.50142 20.8188 6.87053 21.475 7.52667C22.1311 8.1828 22.5002 9.07239 22.5013 10.0003V22.0003ZM28.4984 20.9993C28.4991 21.0847 28.4776 21.1689 28.436 21.2435C28.3944 21.3182 28.3342 21.3807 28.2611 21.4251C28.1971 21.4683 28.1235 21.4952 28.0467 21.5034C27.9699 21.5116 27.8923 21.5008 27.8207 21.472L23.5013 18.7264V13.272L27.7758 10.552C27.852 10.5142 27.9366 10.4964 28.0216 10.5004C28.1065 10.5043 28.1891 10.5299 28.2615 10.5747C28.3338 10.6195 28.3935 10.682 28.435 10.7562C28.4765 10.8305 28.4983 10.9142 28.4984 10.9993V20.9993Z" fill="black"/>
</svg>
