<svg width="32" height="32" viewBox="0 0 32 32" fill="none" xmlns="http://www.w3.org/2000/svg">
<path d="M29.0517 9.2985C28.7621 9.11842 28.431 9.01576 28.0903 9.00037C27.7496 8.98498 27.4106 9.05737 27.1059 9.21061C27.0751 9.22624 27.0454 9.24284 27.0161 9.26139L24.0024 11.1781V10.0007C24.0008 8.67505 23.4735 7.40418 22.5362 6.46684C21.5988 5.5295 20.328 5.00221 19.0024 5.00065H7.00238C6.81946 5.00368 6.63687 5.01721 6.45551 5.04118L4.707 3.29264C4.51948 3.10512 4.26515 2.99977 3.99996 2.99977C3.73477 2.99977 3.48044 3.10511 3.29292 3.29263C3.1054 3.48015 3.00005 3.73448 3.00005 3.99967C3.00005 4.26486 3.10539 4.51919 3.29291 4.70671L27.2934 28.7067C27.4809 28.8942 27.7352 28.9996 28.0004 28.9996C28.2656 28.9996 28.5199 28.8942 28.7075 28.7067C28.895 28.5192 29.0003 28.2649 29.0003 27.9997C29.0003 27.7345 28.895 27.4802 28.7075 27.2926L23.9619 22.5473C23.9858 22.366 23.9993 22.1835 24.0024 22.0007V20.8226L27.0161 22.738C27.0449 22.7566 27.0746 22.7732 27.1049 22.7888C27.4098 22.9414 27.7486 23.0135 28.0892 22.9984C28.4299 22.9832 28.7609 22.8811 29.051 22.702C29.3411 22.5228 29.5805 22.2724 29.7466 21.9747C29.9127 21.6769 29.9999 21.3416 29.9999 21.0007V10.9997C30.0011 10.6586 29.9146 10.3229 29.7485 10.025C29.5824 9.72704 29.3425 9.47685 29.0517 9.2985ZM8.415 7.00065H19.0024C19.7978 7.00152 20.5603 7.31787 21.1227 7.88029C21.6852 8.44271 22.0015 9.20527 22.0024 10.0007V20.5877L8.415 7.00065ZM24.0024 18.4529V13.5481L27.9999 11.0055L28.0004 20.9938L24.0024 18.4529Z" fill="black"/>
<path d="M19.0024 25.0007H7.00238C6.207 24.9998 5.44444 24.6834 4.88202 24.121C4.3196 23.5586 4.00325 22.796 4.00238 22.0007V10.0007C4.00578 9.51176 4.13019 9.03131 4.3645 8.60221L2.90808 7.14579C2.31937 7.98142 2.00306 8.97847 2.00238 10.0007V22.0007C2.00394 23.3263 2.53122 24.5971 3.46857 25.5345C4.40591 26.4718 5.67678 26.9991 7.00238 27.0007H19.0024C20.0246 26.9999 21.0217 26.6835 21.8574 26.0948L20.401 24.6384C19.9719 24.8728 19.4914 24.9972 19.0024 25.0007Z" fill="black"/>
</svg>
