<svg xmlns="http://www.w3.org/2000/svg" width="32" height="32" viewBox="0 0 32 32"><path d="M19.002 25.5002H7.00195C6.0741 25.4989 5.18463 25.1297 4.52854 24.4736C3.87245 23.8175 3.50328 22.9281 3.50195 22.0002V10.0002C3.50273 9.43595 3.64012 8.88026 3.90238 8.38064C4.16464 7.88103 4.54397 7.45234 5.00795 7.13122L4.30195 6.42422C3.74503 6.83997 3.29247 7.37959 2.98006 8.00041C2.66765 8.62123 2.50397 9.30623 2.50195 10.0012V22.0012C2.50328 23.1943 2.97781 24.3381 3.82143 25.1817C4.66506 26.0254 5.80889 26.4999 7.00195 26.5012H19.002C19.6969 26.4992 20.3819 26.3355 21.0028 26.0231C21.6236 25.7107 22.1632 25.2581 22.579 24.7012L21.872 23.9942C21.5508 24.4585 21.122 24.8381 20.6222 25.1006C20.1224 25.363 19.5665 25.5005 19.002 25.5012V25.5002ZM28.788 9.72422C28.5629 9.58636 28.3056 9.5101 28.0418 9.50308C27.778 9.49606 27.517 9.55853 27.285 9.68422L23.502 12.0892V10.0002C23.5006 8.80715 23.0261 7.66332 22.1825 6.8197C21.3388 5.97607 20.195 5.50154 19.002 5.50022H7.00195C6.76195 5.50622 6.52195 5.53222 6.28595 5.57822L4.35295 3.64622C4.25865 3.55514 4.13235 3.50474 4.00125 3.50588C3.87015 3.50702 3.74475 3.5596 3.65204 3.65231C3.55934 3.74501 3.50676 3.87042 3.50562 4.00151C3.50448 4.13261 3.55487 4.25891 3.64595 4.35322L27.646 28.3532C27.7397 28.4471 27.8669 28.4999 27.9996 28.5C28.1323 28.5001 28.2596 28.4475 28.3535 28.3537C28.4473 28.26 28.5001 28.1328 28.5002 28.0001C28.5003 27.8674 28.4477 27.7401 28.354 27.6462L23.424 22.7162C23.47 22.4812 23.496 22.2412 23.502 22.0012V19.9112L27.329 22.3412C27.537 22.4462 27.768 22.5012 28.001 22.5012C28.3985 22.5002 28.7794 22.3418 29.0604 22.0607C29.3415 21.7796 29.4999 21.3987 29.501 21.0012V11.0002C29.5017 10.7442 29.4366 10.4923 29.3117 10.2688C29.1868 10.0453 29.0064 9.85773 28.788 9.72422ZM22.502 21.7942L7.20795 6.50222H19.002C19.9299 6.50327 20.8195 6.87236 21.4757 7.52851C22.1318 8.18466 22.5009 9.07428 22.502 10.0022V21.7962V21.7942ZM28.5 21.0012C28.4992 21.0821 28.479 21.1615 28.4412 21.233C28.4034 21.3044 28.3491 21.3658 28.2827 21.4119C28.2163 21.458 28.1398 21.4876 28.0596 21.4981C27.9795 21.5086 27.898 21.4997 27.822 21.4722L23.502 18.7272V13.2742L27.777 10.5522C27.8532 10.5145 27.9379 10.4968 28.0229 10.5009C28.1079 10.505 28.1905 10.5306 28.2628 10.5755C28.3352 10.6203 28.3949 10.6828 28.4364 10.7571C28.4779 10.8314 28.4998 10.9151 28.5 11.0002V21.0002V21.0012Z"/></svg>