<svg width="32" height="32" viewBox="0 0 32 32" fill="none" xmlns="http://www.w3.org/2000/svg">
<path d="M26.4428 7.99967H23.1996C22.9267 8.00352 22.6562 7.94725 22.4074 7.83485C22.1587 7.72244 21.9377 7.55667 21.7602 7.34928L20.9203 6.37077C20.5689 5.93635 20.1236 5.58727 19.6179 5.34978C19.1121 5.11229 18.5591 4.99259 18.0004 4.99967H14.0004C13.4513 4.99129 12.9073 5.10658 12.4088 5.33699C11.9102 5.5674 11.4699 5.90704 11.1205 6.33073L10.2094 7.38737C10.0324 7.58477 9.81482 7.74166 9.57162 7.84733C9.32843 7.95299 9.06531 8.00496 8.80021 7.99967H5.59998C4.69614 7.95375 3.81075 8.26674 3.13657 8.8705C2.4624 9.47426 2.05403 10.3199 2.00037 11.2233V23.7643C2.05224 24.6694 2.45968 25.5173 3.13391 26.1233C3.80814 26.7293 4.69453 27.0443 5.59998 26.9997H26.3998C27.3038 27.0458 28.1894 26.7329 28.8638 26.1291C29.5381 25.5253 29.9467 24.6796 30.0004 23.776V11.2233C29.953 10.3252 29.5523 9.48227 28.8859 8.87838C28.2194 8.27448 27.3412 7.95862 26.4428 7.99967ZM28.0004 23.776C27.9393 24.1453 27.7398 24.4774 27.4424 24.7048C27.145 24.9321 26.7722 25.0376 26.3998 24.9996H5.59998C5.2261 25.0365 4.85225 24.9292 4.55491 24.6995C4.25756 24.4699 4.05919 24.1353 4.00037 23.7643V11.2233C4.0612 10.8541 4.26054 10.5219 4.55776 10.2946C4.85497 10.0672 5.2277 9.96175 5.59998 9.99967H8.80021C9.36198 10.0077 9.91855 9.89108 10.4299 9.65822C10.9412 9.42536 11.3945 9.08205 11.7572 8.65299L12.6674 7.59733C12.8301 7.40366 13.0346 7.2493 13.2654 7.1458C13.4962 7.0423 13.7475 6.99235 14.0004 6.99967H18.0004C18.2621 6.99336 18.5218 7.04733 18.7594 7.1574C18.997 7.26746 19.206 7.43068 19.3705 7.63444L20.2093 8.61198C20.5728 9.05163 21.0299 9.40442 21.5473 9.64453C22.0647 9.88464 22.6292 10.006 23.1996 9.99967H26.4427C26.8105 9.96137 27.1786 10.0677 27.4694 10.296C27.7601 10.5244 27.9505 10.857 28.0004 11.2233L28.0004 23.776Z" fill="black"/>
<path d="M16.0004 11.9997C15.0115 11.9997 14.0448 12.2929 13.2226 12.8423C12.4003 13.3917 11.7594 14.1726 11.381 15.0863C11.0026 15.9999 10.9036 17.0052 11.0965 17.9751C11.2894 18.945 11.7656 19.8359 12.4649 20.5352C13.1641 21.2345 14.055 21.7107 15.025 21.9036C15.9949 22.0965 17.0002 21.9975 17.9138 21.6191C18.8275 21.2406 19.6083 20.5998 20.1578 19.7775C20.7072 18.9553 21.0004 17.9886 21.0004 16.9997C20.9988 15.6741 20.4716 14.4032 19.5342 13.4659C18.5969 12.5285 17.326 12.0012 16.0004 11.9997ZM16.0004 19.9997C15.4071 19.9997 14.827 19.8237 14.3337 19.4941C13.8403 19.1644 13.4558 18.6959 13.2288 18.1477C13.0017 17.5995 12.9423 16.9963 13.0581 16.4144C13.1738 15.8325 13.4595 15.2979 13.8791 14.8784C14.2986 14.4588 14.8332 14.1731 15.4151 14.0573C15.9971 13.9416 16.6003 14.001 17.1485 14.228C17.6966 14.4551 18.1652 14.8396 18.4948 15.333C18.8245 15.8263 19.0004 16.4063 19.0004 16.9997C18.9995 17.7951 18.6832 18.5576 18.1208 19.12C17.5583 19.6825 16.7958 19.9988 16.0004 19.9997Z" fill="black"/>
</svg>
