<svg width="32" height="32" viewBox="0 0 32 32" fill="none" xmlns="http://www.w3.org/2000/svg">
<path d="M17.0604 15.9997L25.5301 7.53C25.6 7.46041 25.6554 7.37773 25.6933 7.28669C25.7311 7.19564 25.7507 7.09803 25.7508 6.99942C25.7509 6.90082 25.7315 6.80316 25.6938 6.71205C25.6562 6.62093 25.6009 6.53814 25.5311 6.46841C25.4614 6.39869 25.3786 6.3434 25.2875 6.30571C25.1964 6.26802 25.0987 6.24867 25.0001 6.24876C24.9015 6.24886 24.8039 6.2684 24.7129 6.30627C24.6218 6.34414 24.5391 6.39959 24.4696 6.46945L15.9998 14.9392L7.5301 6.46942C7.38946 6.32878 7.19871 6.24977 6.99982 6.24978C6.80092 6.24978 6.61018 6.3288 6.46954 6.46944C6.3289 6.61008 6.2499 6.80083 6.2499 6.99972C6.2499 7.19862 6.32892 7.38936 6.46956 7.53L14.9393 15.9997L6.46956 24.4694C6.39992 24.5391 6.34468 24.6217 6.30699 24.7127C6.2693 24.8037 6.2499 24.9012 6.2499 24.9997C6.2499 25.0982 6.26929 25.1957 6.30698 25.2867C6.34467 25.3777 6.3999 25.4603 6.46954 25.53C6.53918 25.5996 6.62185 25.6549 6.71283 25.6925C6.80382 25.7302 6.90133 25.7496 6.99982 25.7496C7.0983 25.7496 7.19582 25.7302 7.2868 25.6926C7.37779 25.6549 7.46046 25.5996 7.5301 25.53L15.9998 17.0603L24.4696 25.53C24.5391 25.5999 24.6218 25.6553 24.7129 25.6932C24.8039 25.731 24.9015 25.7506 25.0001 25.7507C25.0987 25.7508 25.1964 25.7314 25.2875 25.6937C25.3786 25.656 25.4614 25.6008 25.5311 25.531C25.6009 25.4613 25.6562 25.3785 25.6938 25.2874C25.7315 25.1963 25.7509 25.0986 25.7508 25C25.7507 24.9014 25.7311 24.8038 25.6933 24.7128C25.6554 24.6217 25.6 24.539 25.5301 24.4694L17.0604 15.9997Z" fill="black"/>
</svg>
