<svg xmlns="http://www.w3.org/2000/svg" width="32" height="32" viewBox="0 0 32 32"><path d="M17.06 15.9999L25.53 7.52991C25.6037 7.46125 25.6628 7.37845 25.7038 7.28645C25.7448 7.19445 25.7668 7.09513 25.7686 6.99443C25.7704 6.89373 25.7519 6.7937 25.7142 6.70031C25.6764 6.60692 25.6203 6.52209 25.5491 6.45087C25.4778 6.37965 25.393 6.32351 25.2996 6.28579C25.2062 6.24807 25.1062 6.22954 25.0055 6.23132C24.9048 6.23309 24.8055 6.25514 24.7135 6.29613C24.6215 6.33712 24.5387 6.39622 24.47 6.46991L16 14.9399L7.53003 6.46991C7.46137 6.39622 7.37857 6.33712 7.28657 6.29613C7.19457 6.25514 7.09526 6.23309 6.99455 6.23132C6.89385 6.22954 6.79382 6.24807 6.70043 6.28579C6.60705 6.32351 6.52221 6.37965 6.45099 6.45087C6.37977 6.52209 6.32363 6.60692 6.28591 6.70031C6.24819 6.7937 6.22966 6.89373 6.23144 6.99443C6.23322 7.09513 6.25526 7.19445 6.29625 7.28645C6.33724 7.37845 6.39634 7.46125 6.47003 7.52991L14.94 15.9999L6.47003 24.4699C6.33755 24.6121 6.26543 24.8001 6.26886 24.9944C6.27228 25.1887 6.351 25.3741 6.48841 25.5115C6.62582 25.6489 6.81121 25.7277 7.00551 25.7311C7.19981 25.7345 7.38786 25.6624 7.53003 25.5299L16 17.0599L24.47 25.5299C24.557 25.6178 24.6644 25.6827 24.7826 25.7189C24.9008 25.7552 25.0261 25.7615 25.1474 25.7374C25.2686 25.7134 25.382 25.6596 25.4774 25.581C25.5728 25.5024 25.6472 25.4013 25.694 25.2869C25.7508 25.1496 25.7655 24.9986 25.7363 24.853C25.7071 24.7074 25.6353 24.5737 25.53 24.4689L17.06 15.9999Z"/></svg>