<svg width="32" height="32" viewBox="0 0 32 32" fill="none" xmlns="http://www.w3.org/2000/svg">
<path d="M28 24H3.99999C3.73477 24 3.48042 24.1054 3.29288 24.2929C3.10535 24.4804 2.99999 24.7348 2.99999 25C2.99999 25.2652 3.10535 25.5196 3.29288 25.7071C3.48042 25.8946 3.73477 26 3.99999 26H28C28.2652 26 28.5196 25.8946 28.7071 25.7071C28.8946 25.5196 29 25.2652 29 25C29 24.7348 28.8946 24.4804 28.7071 24.2929C28.5196 24.1054 28.2652 24 28 24ZM4.70699 19.707L16 8.414L27.293 19.707C27.4816 19.8892 27.7342 19.99 27.9964 19.9877C28.2586 19.9854 28.5094 19.8802 28.6948 19.6948C28.8802 19.5094 28.9854 19.2586 28.9877 18.9964C28.9899 18.7342 28.8891 18.4816 28.707 18.293L16.707 6.293C16.5195 6.10553 16.2652 6.00021 16 6.00021C15.7348 6.00021 15.4805 6.10553 15.293 6.293L3.29299 18.293C3.19748 18.3852 3.1213 18.4956 3.06889 18.6176C3.01648 18.7396 2.98889 18.8708 2.98774 19.0036C2.98659 19.1364 3.01189 19.2681 3.06217 19.391C3.11245 19.5138 3.1867 19.6255 3.28059 19.7194C3.37449 19.8133 3.48614 19.8875 3.60904 19.9378C3.73193 19.9881 3.86361 20.0134 3.99639 20.0123C4.12917 20.0111 4.26039 19.9835 4.38239 19.9311C4.5044 19.8787 4.61474 19.8025 4.70699 19.707V19.707Z" fill="#0F0F0F"/>
</svg>
