<svg xmlns="http://www.w3.org/2000/svg" width="32" height="32" viewBox="0 0 32 32"><path d="M28 24.4999H4C3.86739 24.4999 3.74021 24.5526 3.64645 24.6463C3.55268 24.7401 3.5 24.8673 3.5 24.9999C3.5 25.1325 3.55268 25.2597 3.64645 25.3534C3.74021 25.4472 3.86739 25.4999 4 25.4999H28C28.1326 25.4999 28.2598 25.4472 28.3536 25.3534C28.4473 25.2597 28.5 25.1325 28.5 24.9999C28.5 24.8673 28.4473 24.7401 28.3536 24.6463C28.2598 24.5526 28.1326 24.4999 28 24.4999ZM4.353 19.3539L16 7.70688L27.647 19.3539C27.7413 19.445 27.8676 19.4954 27.9987 19.4942C28.1298 19.4931 28.2552 19.4405 28.3479 19.3478C28.4406 19.2551 28.4932 19.1297 28.4943 18.9986C28.4955 18.8675 28.4451 18.7412 28.354 18.6469L16.354 6.64688C16.2602 6.55315 16.1331 6.50049 16.0005 6.50049C15.8679 6.50049 15.7408 6.55315 15.647 6.64688L3.647 18.6469C3.55592 18.7412 3.50552 18.8675 3.50666 18.9986C3.5078 19.1297 3.56039 19.2551 3.65309 19.3478C3.74579 19.4405 3.8712 19.4931 4.0023 19.4942C4.1334 19.4954 4.2597 19.445 4.354 19.3539H4.353Z"/></svg>