<svg width="32" height="32" viewBox="0 0 32 32" fill="none" xmlns="http://www.w3.org/2000/svg">
<path d="M27.9995 24.5001H3.99954C3.86693 24.5001 3.73976 24.5528 3.64599 24.6466C3.55222 24.7403 3.49954 24.8675 3.49954 25.0001C3.49954 25.1327 3.55222 25.2599 3.64599 25.3537C3.73976 25.4474 3.86693 25.5001 3.99954 25.5001H27.9995C28.1322 25.5001 28.2593 25.4474 28.3531 25.3537C28.4469 25.2599 28.4995 25.1327 28.4995 25.0001C28.4995 24.8675 28.4469 24.7403 28.3531 24.6466C28.2593 24.5528 28.1322 24.5001 27.9995 24.5001Z" fill="black"/>
<path d="M4.35306 19.3536L15.9995 7.70716L27.646 19.3536C27.7401 19.4458 27.8667 19.4972 27.9985 19.4965C28.1302 19.4958 28.2563 19.4432 28.3494 19.3501C28.4426 19.2569 28.4952 19.1308 28.4959 18.9991C28.4965 18.8674 28.4452 18.7407 28.353 18.6466L16.353 6.64664C16.3066 6.60021 16.2515 6.56337 16.1908 6.53824C16.1302 6.51311 16.0652 6.50017 15.9995 6.50017C15.9338 6.50017 15.8688 6.51311 15.8082 6.53824C15.7475 6.56337 15.6924 6.60021 15.646 6.64664L3.646 18.6466C3.55381 18.7407 3.50246 18.8674 3.50313 18.9991C3.50379 19.1308 3.55641 19.2569 3.64955 19.3501C3.7427 19.4432 3.86883 19.4958 4.00055 19.4965C4.13227 19.4972 4.25899 19.4458 4.35306 19.3536Z" fill="black"/>
</svg>
