<svg width="32" height="32" viewBox="0 0 32 32" fill="none" xmlns="http://www.w3.org/2000/svg">
<path d="M16.0001 2C13.2167 1.99518 10.4952 2.8216 8.18446 4.37333C5.87371 5.92506 4.07893 8.13143 3.03013 10.7097C1.98132 13.288 1.72627 16.1207 2.29764 18.8448C2.86901 21.569 4.24079 24.0604 6.23718 26H3.00008C2.73486 26 2.48051 26.1054 2.29297 26.2929C2.10544 26.4804 2.00008 26.7348 2.00008 27C2.00008 27.2652 2.10544 27.5196 2.29297 27.7071C2.48051 27.8946 2.73486 28 3.00008 28H9.00008C9.2653 28 9.51965 27.8946 9.70719 27.7071C9.89472 27.5196 10.0001 27.2652 10.0001 27V21C10.0001 20.7348 9.89472 20.4804 9.70719 20.2929C9.51965 20.1054 9.2653 20 9.00008 20C8.73486 20 8.48051 20.1054 8.29297 20.2929C8.10544 20.4804 8.00008 20.7348 8.00008 21V24.9251C5.91812 23.0521 4.55783 20.5091 4.15541 17.7376C3.75299 14.9662 4.33384 12.1414 5.79711 9.75355C7.26038 7.36575 9.51367 5.56578 12.1657 4.66617C14.8178 3.76657 17.7012 3.82414 20.3153 4.82888C22.9293 5.83362 25.109 7.72209 26.4758 10.1664C27.8426 12.6107 28.3102 15.4565 27.7975 18.2097C27.2847 20.9628 25.824 23.4495 23.669 25.2379C21.5139 27.0264 18.8006 28.0036 16.0001 28C15.7349 28 15.4805 28.1054 15.293 28.2929C15.1054 28.4804 15.0001 28.7348 15.0001 29C15.0001 29.2652 15.1054 29.5196 15.293 29.7071C15.4805 29.8946 15.7349 30 16.0001 30C19.7131 30 23.2741 28.525 25.8996 25.8995C28.5251 23.274 30.0001 19.713 30.0001 16C30.0001 12.287 28.5251 8.72601 25.8996 6.1005C23.2741 3.47499 19.7131 2 16.0001 2Z" fill="black"/>
<path d="M16.0001 7C15.7349 7 15.4805 7.10536 15.293 7.29289C15.1054 7.48043 15.0001 7.73478 15.0001 8V16C15.0001 16.2652 15.1054 16.5196 15.293 16.7071L20.293 21.7071C20.3854 21.8019 20.4957 21.8774 20.6175 21.9292C20.7394 21.981 20.8703 22.0082 21.0027 22.009C21.135 22.0098 21.2663 21.9844 21.3887 21.9341C21.5112 21.8838 21.6225 21.8097 21.7161 21.7161C21.8097 21.6225 21.8838 21.5112 21.9341 21.3888C21.9844 21.2663 22.0098 21.1351 22.009 21.0027C22.0081 20.8703 21.981 20.7394 21.9292 20.6176C21.8774 20.4957 21.8019 20.3854 21.7071 20.293L17.0001 15.5858V8C17.0001 7.73478 16.8947 7.48043 16.7072 7.29289C16.5197 7.10536 16.2653 7 16.0001 7Z" fill="black"/>
</svg>
