<svg xmlns="http://www.w3.org/2000/svg" width="32" height="32" viewBox="0 0 32 32"><path d="M7.5 10C7.5 9.72386 7.72386 9.5 8 9.5H24C24.2761 9.5 24.5 9.72386 24.5 10V22C24.5 22.2761 24.2761 22.5 24 22.5H8C7.72386 22.5 7.5 22.2761 7.5 22V10ZM8.5 10.5V21.5H23.5V10.5H8.5ZM4.35355 13.6464C4.54882 13.8417 4.54882 14.1583 4.35355 14.3536L2.20711 16.5L4.35355 18.6464C4.54882 18.8417 4.54882 19.1583 4.35355 19.3536C4.15829 19.5488 3.84171 19.5488 3.64645 19.3536L1.14645 16.8536C0.951184 16.6583 0.951184 16.3417 1.14645 16.1464L3.64645 13.6464C3.84171 13.4512 4.15829 13.4512 4.35355 13.6464ZM27.6464 18.6464C27.4512 18.8417 27.4512 19.1583 27.6464 19.3536C27.8417 19.5488 28.1583 19.5488 28.3536 19.3536L30.8536 16.8536C31.0488 16.6583 31.0488 16.3417 30.8536 16.1464L28.3536 13.6464C28.1583 13.4512 27.8417 13.4512 27.6464 13.6464C27.4512 13.8417 27.4512 14.1583 27.6464 14.3536L29.7929 16.5L27.6464 18.6464Z"/></svg>