<svg width="32" height="32" viewBox="0 0 32 32" fill="none" xmlns="http://www.w3.org/2000/svg">
<path d="M26.4334 4.29435C26.2464 4.10644 25.9924 4.00052 25.7273 3.99987C25.4622 3.99923 25.2077 4.10392 25.0198 4.29092C24.8319 4.47792 24.726 4.7319 24.7254 4.997C24.7247 5.2621 24.8294 5.51659 25.0164 5.7045C25.9722 6.65912 26.7286 7.79431 27.2415 9.04401C27.7545 10.2937 28.0137 11.633 28.0042 12.9838C27.9933 15.7281 26.8965 18.3564 24.9534 20.2943C24.7668 20.4826 24.6626 20.7372 24.6636 21.0023C24.6645 21.2673 24.7707 21.5211 24.9587 21.708C25.1467 21.8948 25.4012 21.9994 25.6663 21.9988C25.9313 21.9981 26.1853 21.8923 26.3724 21.7045C28.6868 19.3942 29.9925 16.2617 30.0042 12.9916C30.0154 11.3776 29.7055 9.7774 29.0925 8.28427C28.4795 6.79113 27.5756 5.43484 26.4334 4.29435Z" fill="black"/>
<path d="M21.9837 7.36856C21.9009 7.26637 21.7987 7.18153 21.683 7.11891C21.5673 7.05628 21.4404 7.0171 21.3096 7.0036C21.1787 6.9901 21.0465 7.00256 20.9205 7.04026C20.7944 7.07795 20.6771 7.14014 20.5751 7.22327C20.4732 7.3064 20.3887 7.40883 20.3264 7.52468C20.2641 7.64054 20.2252 7.76755 20.2121 7.89844C20.199 8.02933 20.2118 8.16152 20.2499 8.28744C20.288 8.41336 20.3505 8.53053 20.4339 8.63224C20.4979 8.71036 20.5599 8.79142 20.6204 8.87149C21.5158 10.061 22.0001 11.5094 22.0003 12.9983C22.0005 14.4871 21.5165 15.9357 20.6214 17.1254C20.5594 17.2084 20.4964 17.2904 20.4315 17.3705C20.3486 17.4725 20.2867 17.5897 20.2491 17.7156C20.2116 17.8415 20.1993 17.9736 20.2128 18.1042C20.2264 18.2349 20.2656 18.3616 20.3281 18.4771C20.3907 18.5927 20.4754 18.6947 20.5774 18.7775C20.6794 18.8603 20.7967 18.9221 20.9226 18.9595C21.0486 18.9969 21.1806 19.0091 21.3113 18.9954C21.442 18.9818 21.5686 18.9425 21.6841 18.8798C21.7996 18.8172 21.9015 18.7324 21.9842 18.6303C22.0667 18.5287 22.1468 18.4252 22.2259 18.3188C23.3777 16.7841 24.0004 14.9172 24.0003 12.9984C24.0002 11.0796 23.3774 9.21264 22.2254 7.67814C22.1468 7.57267 22.0662 7.47013 21.9837 7.36856Z" fill="black"/>
<path d="M3.992 12.9838C3.98248 11.6332 4.24174 10.2943 4.75469 9.04492C5.26763 7.79554 6.02402 6.66069 6.97979 5.70646C7.16705 5.51855 7.27199 5.26395 7.27153 4.99867C7.27107 4.73339 7.16525 4.47916 6.97735 4.2919C6.78944 4.10464 6.53484 3.9997 6.26956 4.00016C6.00428 4.00062 5.75005 4.10644 5.56279 4.29435C4.42078 5.43495 3.51697 6.79126 2.90395 8.28437C2.29093 9.77748 1.98094 11.3776 1.992 12.9916C2.00387 16.262 3.30956 19.3947 5.62384 21.7055C5.71643 21.7986 5.82647 21.8727 5.94767 21.9233C6.06887 21.974 6.19885 22.0002 6.33021 22.0006C6.46156 22.001 6.59171 21.9756 6.71322 21.9257C6.83473 21.8758 6.94522 21.8025 7.03839 21.7099C7.13156 21.6173 7.20558 21.5072 7.25622 21.386C7.30687 21.2648 7.33314 21.1349 7.33355 21.0035C7.33396 20.8721 7.30849 20.742 7.2586 20.6205C7.20871 20.499 7.13537 20.3885 7.04278 20.2953C5.09986 18.3569 4.00306 15.7283 3.992 12.9838Z" fill="black"/>
<path d="M11.5648 8.63517C11.6483 8.53369 11.7111 8.41673 11.7494 8.29098C11.7877 8.16523 11.8009 8.03317 11.7881 7.90233C11.7754 7.77149 11.7369 7.64445 11.675 7.52848C11.6131 7.4125 11.529 7.30986 11.4274 7.22644C11.3258 7.14301 11.2088 7.08042 11.083 7.04226C10.9572 7.0041 10.8251 6.99112 10.6943 7.00404C10.5635 7.01697 10.4365 7.05556 10.3206 7.11761C10.2047 7.17965 10.1022 7.26394 10.0189 7.36564C9.93536 7.46817 9.85431 7.57264 9.77423 7.68009C8.62242 9.21425 7.99959 11.0808 7.99933 12.9992C7.99906 14.9176 8.62138 16.7843 9.77276 18.3188C9.8504 18.4232 9.93097 18.5268 10.013 18.6283C10.1795 18.8348 10.4213 18.9666 10.685 18.9948C10.9487 19.023 11.2128 18.9453 11.4192 18.7787C11.6257 18.6122 11.7575 18.3705 11.7857 18.1067C11.8139 17.843 11.7362 17.5789 11.5696 17.3725C11.5052 17.2924 11.4422 17.2123 11.3797 17.1273C10.484 15.9381 9.9995 14.4898 9.99932 13.001C9.99914 11.5123 10.4833 10.0638 11.3787 8.87442C11.4393 8.79337 11.5008 8.71231 11.5648 8.63517Z" fill="black"/>
<path d="M18.1209 10.8773C17.5581 10.3148 16.7949 9.99886 15.9991 9.99905C15.2034 9.99923 14.4403 10.3155 13.8777 10.8783C13.3152 11.4411 12.9993 12.2044 12.9994 13.0001C12.9996 13.7959 13.3159 14.5589 13.8787 15.1215C14.1954 15.4348 14.5786 15.6727 14.9998 15.8175V27.0004C14.9998 27.2656 15.1052 27.52 15.2927 27.7075C15.4802 27.895 15.7346 28.0004 15.9998 28.0004C16.265 28.0004 16.5194 27.895 16.7069 27.7075C16.8945 27.52 16.9998 27.2656 16.9998 27.0004V15.8177C17.4214 15.673 17.805 15.435 18.1219 15.1215C18.6833 14.5582 18.9986 13.7952 18.9986 12.9999C18.9986 12.2046 18.6833 11.4417 18.1219 10.8783L18.1209 10.8773ZM15.2923 12.2933C15.4321 12.1533 15.6103 12.0579 15.8043 12.0192C15.9984 11.9805 16.1995 12.0002 16.3824 12.0758C16.5652 12.1515 16.7215 12.2796 16.8315 12.4441C16.9415 12.6085 17.0002 12.8019 17.0003 12.9998C17.0004 13.1976 16.9418 13.3911 16.8319 13.5556C16.722 13.7202 16.5658 13.8484 16.383 13.9242C16.2002 13.9999 15.9991 14.0198 15.805 13.9812C15.6109 13.9426 15.4327 13.8473 15.2928 13.7074C15.1997 13.6147 15.1258 13.5045 15.0754 13.3832C15.025 13.2619 14.999 13.1319 14.999 13.0005C14.9989 12.8691 15.0248 12.739 15.0751 12.6177C15.1255 12.4963 15.1993 12.3861 15.2923 12.2933Z" fill="black"/>
</svg>
