<svg xmlns="http://www.w3.org/2000/svg" width="32" height="32" viewBox="0 0 32 32"><path d="M26.257 4.47012C26.1875 4.40026 26.1048 4.34477 26.0139 4.30684C25.9229 4.2689 25.8253 4.24926 25.7268 4.24903C25.6282 4.24879 25.5305 4.26798 25.4394 4.30548C25.3482 4.34299 25.2654 4.39808 25.1955 4.46762C25.1256 4.53715 25.0701 4.61977 25.0322 4.71075C24.9943 4.80172 24.9746 4.89928 24.9744 4.99785C24.9742 5.09642 24.9934 5.19407 25.0309 5.28523C25.0684 5.37638 25.1235 5.45926 25.193 5.52912C26.172 6.50693 26.9468 7.66967 27.4723 8.94969C27.9978 10.2297 28.2635 11.6015 28.254 12.9851C28.2432 15.7951 27.1204 18.4865 25.131 20.4711C25.0596 20.5406 25.0028 20.6235 24.9638 20.7151C24.9248 20.8067 24.9045 20.9052 24.904 21.0048C24.9035 21.1043 24.9228 21.203 24.9608 21.295C24.9988 21.3871 25.0548 21.4706 25.1254 21.5408C25.196 21.6109 25.2799 21.6664 25.3722 21.7038C25.4645 21.7412 25.5633 21.7598 25.6628 21.7586C25.7624 21.7575 25.8607 21.7365 25.9521 21.6969C26.0435 21.6573 26.126 21.5999 26.195 21.5281C28.4631 19.2646 29.743 16.1954 29.755 12.9911C29.7659 11.41 29.4623 9.84248 28.8617 8.37979C28.2612 6.9171 27.3758 5.58844 26.257 4.47112V4.47012ZM21.79 7.52712C21.7284 7.4489 21.6519 7.38371 21.5649 7.33536C21.4779 7.28701 21.3821 7.25647 21.2832 7.24551C21.1843 7.23455 21.0841 7.24339 20.9887 7.27153C20.8932 7.29966 20.8042 7.34652 20.7271 7.40937C20.6499 7.47222 20.586 7.54981 20.5391 7.63761C20.4922 7.72541 20.4632 7.82167 20.4539 7.92078C20.4446 8.01988 20.4551 8.11985 20.4848 8.21485C20.5145 8.30985 20.5629 8.39799 20.627 8.47412C21.6424 9.70625 22.2137 11.2442 22.2489 12.8405C22.2841 14.4368 21.7812 15.9984 20.821 17.2741C20.7578 17.3601 20.6928 17.4448 20.626 17.5281C20.5604 17.6041 20.5107 17.6925 20.4798 17.7881C20.449 17.8836 20.4377 17.9844 20.4465 18.0844C20.4554 18.1845 20.4842 18.2817 20.5314 18.3703C20.5785 18.459 20.643 18.5373 20.7209 18.6006C20.7989 18.6639 20.8887 18.7109 20.9852 18.7388C21.0816 18.7667 21.1827 18.7749 21.2824 18.763C21.3821 18.7512 21.4784 18.7194 21.5656 18.6696C21.6528 18.6198 21.7291 18.553 21.79 18.4731C21.87 18.3741 21.949 18.2731 22.025 18.1701C23.1843 16.6264 23.7913 14.738 23.7487 12.808C23.706 10.8779 23.0163 9.01815 21.79 7.52712ZM3.74199 12.9851C3.73234 11.6017 3.9979 10.2301 4.52323 8.95028C5.04856 7.67043 5.82317 6.50782 6.80199 5.53012C6.87159 5.46039 6.92678 5.37763 6.9644 5.28657C7.00201 5.19551 7.02133 5.09794 7.02123 4.99941C7.02114 4.90089 7.00164 4.80335 6.96386 4.71236C6.92607 4.62137 6.87073 4.53872 6.80099 4.46912C6.73126 4.39952 6.6485 4.34433 6.55745 4.30672C6.46639 4.2691 6.36881 4.24979 6.27029 4.24988C6.17176 4.24997 6.07422 4.26947 5.98324 4.30726C5.89225 4.34505 5.80959 4.40039 5.73999 4.47012C4.62103 5.58731 3.73549 6.91594 3.13495 8.37866C2.53441 9.84138 2.23087 11.409 2.24199 12.9901C2.25395 16.1947 3.53384 19.2643 5.80199 21.5281C5.94298 21.6653 6.13221 21.7416 6.3289 21.7405C6.52559 21.7395 6.71401 21.6612 6.85355 21.5226C6.9931 21.384 7.0726 21.1961 7.07492 20.9994C7.07725 20.8027 7.00222 20.613 6.86599 20.4711C4.87658 18.4861 3.75348 15.7945 3.74199 12.9841V12.9851ZM11.371 8.47612C11.4335 8.40001 11.4804 8.31235 11.509 8.21812C11.538 8.12412 11.548 8.02512 11.538 7.92712C11.5238 7.77929 11.4661 7.63902 11.372 7.5241C11.2779 7.40919 11.1518 7.32484 11.0097 7.28175C10.8676 7.23867 10.7159 7.2388 10.5738 7.28213C10.4318 7.32547 10.3059 7.41004 10.212 7.52512C8.94219 9.0661 8.24738 11.0005 8.24647 12.9972C8.24556 14.994 8.9386 16.929 10.207 18.4711C10.3326 18.6234 10.5132 18.7201 10.7096 18.7401C10.906 18.7601 11.1024 18.7018 11.2561 18.578C11.4099 18.4541 11.5086 18.2746 11.5308 18.0785C11.5531 17.8823 11.4971 17.6853 11.375 17.5301C10.3576 16.2981 9.78477 14.7592 9.74903 13.1618C9.71329 11.5643 10.2167 10.0014 11.178 8.72512C11.241 8.64012 11.305 8.55712 11.371 8.47612ZM17.944 11.0551C17.427 10.5452 16.7293 10.2605 16.0031 10.2632C15.277 10.2658 14.5813 10.5555 14.068 11.0691C13.5546 11.5827 13.2653 12.2785 13.263 13.0046C13.2608 13.7308 13.5458 14.4284 14.056 14.9451C14.388 15.2731 14.799 15.5101 15.25 15.6331V27.0001C15.25 27.199 15.329 27.3898 15.4697 27.5305C15.6103 27.6711 15.8011 27.7501 16 27.7501C16.1989 27.7501 16.3897 27.6711 16.5303 27.5305C16.671 27.3898 16.75 27.199 16.75 27.0001V15.6331C17.2 15.5101 17.612 15.2731 17.945 14.9451C18.46 14.4288 18.7493 13.7294 18.7493 13.0001C18.7493 12.2709 18.46 11.5714 17.945 11.0551H17.944ZM16.884 13.8851C16.7678 14.0011 16.6299 14.093 16.4781 14.1557C16.3264 14.2183 16.1638 14.2505 15.9996 14.2503C15.8354 14.2501 15.6729 14.2176 15.5213 14.1546C15.3697 14.0916 15.232 13.9993 15.116 13.8831C15 13.7669 14.9081 13.629 14.8455 13.4772C14.7828 13.3255 14.7506 13.1629 14.7508 12.9987C14.751 12.8345 14.7835 12.672 14.8465 12.5204C14.9095 12.3688 15.0018 12.2311 15.118 12.1151C15.3527 11.8809 15.6708 11.7496 16.0024 11.75C16.334 11.7503 16.6518 11.8824 16.886 12.1171C17.1202 12.3518 17.2515 12.67 17.2512 13.0015C17.2508 13.3331 17.1187 13.6509 16.884 13.8851Z"/></svg>