<svg xmlns="http://www.w3.org/2000/svg" width="32" height="32" viewBox="0 0 32 32"><path d="M26.4332 4.29404C26.2443 4.11582 25.9934 4.0181 25.7337 4.02157C25.474 4.02504 25.2258 4.12943 25.0417 4.31263C24.8576 4.49583 24.752 4.74348 24.7472 5.00317C24.7425 5.26286 24.8389 5.51422 25.0162 5.70404C25.9722 6.6587 26.7286 7.794 27.2416 9.04383C27.7546 10.2937 28.0138 11.6331 28.0042 12.984C27.9934 15.728 26.8969 18.3561 24.9542 20.294C24.7725 20.4831 24.6724 20.7361 24.6754 20.9983C24.6783 21.2605 24.7842 21.5111 24.9702 21.696C25.1561 21.8809 25.4073 21.9854 25.6695 21.9869C25.9318 21.9884 26.1841 21.8868 26.3722 21.704C28.6864 19.394 29.9922 16.2619 30.0042 12.992C30.0156 11.3779 29.7058 9.77768 29.0929 8.28442C28.48 6.79116 27.5763 5.43472 26.4342 4.29404H26.4332Z M21.984 7.36896C21.9023 7.26358 21.8003 7.1756 21.6841 7.11021C21.5679 7.04483 21.4397 7.00334 21.3072 6.98821C21.1747 6.97307 21.0406 6.98459 20.9126 7.02208C20.7846 7.05957 20.6654 7.12228 20.5621 7.20652C20.4587 7.29076 20.3732 7.39482 20.3106 7.51259C20.2481 7.63035 20.2097 7.75944 20.1978 7.89226C20.1858 8.02508 20.2006 8.15894 20.2411 8.28598C20.2817 8.41301 20.3473 8.53064 20.434 8.63196C21.4143 9.82095 21.9659 11.3053 22 12.8459C22.0341 14.3865 21.5487 15.8938 20.622 17.125C20.5603 17.2079 20.4969 17.2895 20.432 17.37C20.3078 17.5237 20.2318 17.7107 20.2138 17.9075C20.1957 18.1043 20.2362 18.302 20.3303 18.4758C20.4244 18.6496 20.5679 18.7916 20.7426 18.884C20.9173 18.9764 21.1154 19.015 21.312 18.995C21.4425 18.9813 21.569 18.942 21.6843 18.8794C21.7996 18.8167 21.9015 18.732 21.984 18.63C23.2891 17.0436 24.0027 15.0532 24.0027 12.999C24.0027 10.9447 23.2891 8.9543 21.984 7.36796V7.36896ZM3.99199 12.984C3.98241 11.6333 4.24166 10.2942 4.75465 9.04471C5.26763 7.7952 6.0241 6.66026 6.97999 5.70596C7.0727 5.61292 7.14618 5.50253 7.19623 5.38109C7.24628 5.25965 7.27192 5.12954 7.27169 4.99819C7.27146 4.86684 7.24536 4.73683 7.19488 4.61557C7.1444 4.4943 7.07053 4.38417 6.97749 4.29146C6.88445 4.19875 6.77406 4.12527 6.65262 4.07522C6.53118 4.02517 6.40107 3.99953 6.26972 3.99976C6.13837 3.99999 6.00836 4.02609 5.8871 4.07657C5.76583 4.12705 5.6557 4.20092 5.56299 4.29396C4.42084 5.43463 3.51693 6.79104 2.90387 8.28429C2.29081 9.77754 1.98084 11.3778 1.99199 12.992C2.00409 16.2621 3.30983 19.3945 5.62399 21.705C5.81097 21.8931 6.06504 21.9993 6.33031 22.0002C6.59558 22.001 6.85032 21.8964 7.03849 21.7095C7.22666 21.5225 7.33285 21.2684 7.33369 21.0031C7.33454 20.7379 7.22997 20.4831 7.04299 20.295C5.10009 18.3567 4.00322 15.7283 3.99199 12.984Z M11.5648 8.63488C11.7332 8.42987 11.8133 8.16636 11.7874 7.90231C11.7615 7.63826 11.6318 7.3953 11.4268 7.22689C11.2218 7.05848 10.9583 6.97841 10.6942 7.00429C10.4302 7.03017 10.1872 7.15988 10.0188 7.36489C8.7122 8.95045 7.99719 10.9408 7.9961 12.9953C7.995 15.0499 8.70789 17.0409 10.0128 18.6279C10.0953 18.7301 10.1971 18.8151 10.3124 18.878C10.4277 18.9409 10.5543 18.9805 10.6849 18.9944C10.8155 19.0084 10.9475 18.9965 11.0736 18.9595C11.1996 18.9224 11.3171 18.8609 11.4193 18.7784C11.5215 18.6959 11.6065 18.5941 11.6694 18.4788C11.7323 18.3635 11.7719 18.2369 11.7858 18.1063C11.7998 17.9757 11.7879 17.8436 11.7508 17.7176C11.7138 17.5916 11.6523 17.4741 11.5698 17.3719C11.5047 17.2916 11.4413 17.2099 11.3798 17.1269C10.4524 15.8963 9.96633 14.3893 9.99989 12.8488C10.0335 11.3083 10.5847 9.82392 11.5648 8.63488ZM18.1198 10.8769C17.5554 10.322 16.7947 10.0127 16.0033 10.0162C15.2119 10.0197 14.4539 10.3358 13.8945 10.8956C13.3351 11.4554 13.0195 12.2136 13.0166 13.005C13.0136 13.7964 13.3235 14.5569 13.8788 15.1209C14.1948 15.4349 14.5788 15.6729 14.9988 15.8179V26.9999C14.9988 27.2651 15.1041 27.5195 15.2917 27.707C15.4792 27.8945 15.7336 27.9999 15.9988 27.9999C16.264 27.9999 16.5184 27.8945 16.7059 27.707C16.8934 27.5195 16.9988 27.2651 16.9988 26.9999V15.8179C17.4208 15.673 17.8047 15.4348 18.1218 15.1209C18.683 14.5575 18.9982 13.7946 18.9982 12.9994C18.9982 12.2041 18.683 11.4413 18.1218 10.8779H18.1208L18.1198 10.8769ZM15.2918 12.2929C15.4793 12.1051 15.7337 11.9995 15.9991 11.9993C16.2644 11.9991 16.519 12.1044 16.7068 12.2919C16.8946 12.4794 17.0002 12.7338 17.0003 12.9992C17.0005 13.2645 16.8953 13.5191 16.7078 13.7069C16.6149 13.7999 16.5047 13.8736 16.3833 13.924C16.262 13.9744 16.1319 14.0004 16.0005 14.0004C15.8691 14.0005 15.739 13.9748 15.6175 13.9246C15.4961 13.8744 15.3858 13.8007 15.2928 13.7079C15.1998 13.615 15.126 13.5048 15.0757 13.3834C15.0253 13.2621 14.9993 13.132 14.9992 13.0006C14.999 12.7352 15.1043 12.4807 15.2918 12.2929Z"/></svg>