<svg xmlns="http://www.w3.org/2000/svg" width="32" height="32" viewBox="0 0 32 32"><path d="M11 6.25C10.5858 6.25 10.25 6.58579 10.25 7C10.25 7.41421 10.5858 7.75 11 7.75H21C21.4142 7.75 21.75 7.41421 21.75 7C21.75 6.58579 21.4142 6.25 21 6.25H11ZM7 12.25C6.58579 12.25 6.25 12.5858 6.25 13C6.25 13.4142 6.58579 13.75 7 13.75H25C25.4142 13.75 25.75 13.4142 25.75 13C25.75 12.5858 25.4142 12.25 25 12.25H7ZM10.25 19C10.25 18.5858 10.5858 18.25 11 18.25H21C21.4142 18.25 21.75 18.5858 21.75 19C21.75 19.4142 21.4142 19.75 21 19.75H11C10.5858 19.75 10.25 19.4142 10.25 19ZM4.00391 24.25C3.58969 24.25 3.25391 24.5858 3.25391 25C3.25391 25.4142 3.58969 25.75 4.00391 25.75H28.0169C28.4311 25.75 28.7669 25.4142 28.7669 25C28.7669 24.5858 28.4311 24.25 28.0169 24.25H4.00391Z"/></svg>