<svg xmlns="http://www.w3.org/2000/svg" width="32" height="32" viewBox="0 0 32 32"><path d="M11 6.5C10.7239 6.5 10.5 6.72386 10.5 7C10.5 7.27614 10.7239 7.5 11 7.5H21C21.2761 7.5 21.5 7.27614 21.5 7C21.5 6.72386 21.2761 6.5 21 6.5H11ZM7 12.5C6.72386 12.5 6.5 12.7239 6.5 13C6.5 13.2761 6.72386 13.5 7 13.5H25C25.2761 13.5 25.5 13.2761 25.5 13C25.5 12.7239 25.2761 12.5 25 12.5H7ZM10.5 19C10.5 18.7239 10.7239 18.5 11 18.5H21C21.2761 18.5 21.5 18.7239 21.5 19C21.5 19.2761 21.2761 19.5 21 19.5H11C10.7239 19.5 10.5 19.2761 10.5 19ZM4.00391 24.5C3.72776 24.5 3.50391 24.7239 3.50391 25C3.50391 25.2761 3.72776 25.5 4.00391 25.5H28.0169C28.293 25.5 28.5169 25.2761 28.5169 25C28.5169 24.7239 28.293 24.5 28.0169 24.5H4.00391Z"/></svg>