<svg xmlns="http://www.w3.org/2000/svg" width="32" height="32" viewBox="0 0 32 32"><path d="M29 10C28.4477 10 28 9.55228 28 9V7C28 5.34315 26.6569 4 25 4L23 4C22.4477 4 22 3.55228 22 3C22 2.44771 22.4477 2 23 2H25C27.7614 2 30 4.23858 30 7V9C30 9.55228 29.5523 10 29 10ZM3 22C3.55228 22 4 22.4477 4 23V25C4 26.6569 5.34315 28 7 28H9C9.55228 28 10 28.4477 10 29C10 29.5523 9.55228 30 9 30H7C4.23858 30 2 27.7614 2 25V23C2 22.4477 2.44772 22 3 22ZM23 28C22.4477 28 22 28.4477 22 29C22 29.5523 22.4477 30 23 30H25C27.7614 30 30 27.7614 30 25V23C30 22.4477 29.5523 22 29 22C28.4477 22 28 22.4477 28 23V25C28 26.6569 26.6569 28 25 28H23ZM10 3C10 3.55228 9.55228 4 9 4L7 4C5.34315 4 4 5.34315 4 7L4 9C4 9.55228 3.55228 10 3 10C2.44771 10 2 9.55228 2 9V7C2 4.23858 4.23858 2 7 2H9C9.55228 2 10 2.44772 10 3ZM8 6C6.89543 6 6 6.89543 6 8V24C6 25.1046 6.89543 26 8 26H24C25.1046 26 26 25.1046 26 24V8C26 6.89543 25.1046 6 24 6H8ZM8 8L24 8V24H8V8Z"/></svg>