<svg xmlns="http://www.w3.org/2000/svg" width="32" height="32" viewBox="0 0 32 32"><path d="M28.187 16.1449C28.145 16.0389 28.145 15.9209 28.187 15.8149L29.395 12.7999C29.5217 12.4802 29.5314 12.1261 29.4226 11.7999C29.3137 11.4737 29.0933 11.1964 28.8 11.0169L25.975 9.25787C25.8727 9.19562 25.7977 9.09705 25.765 8.98187L24.889 5.87187C24.7934 5.54101 24.5876 5.25279 24.3057 5.05506C24.0237 4.85733 23.6826 4.76199 23.339 4.78487L19.967 4.95087C19.8361 4.95427 19.7076 4.91496 19.601 4.83887L16.977 2.81987C16.7041 2.61142 16.3701 2.49866 16.0266 2.49902C15.6832 2.49939 15.3495 2.61285 15.077 2.82187L12.442 4.84987C12.3364 4.93125 12.2051 4.97205 12.072 4.96487L8.70199 4.80987C8.3578 4.78622 8.01595 4.88162 7.73375 5.08007C7.45154 5.27853 7.24614 5.56797 7.15199 5.89987L6.26399 9.01187C6.22901 9.12866 6.15207 9.22839 6.04799 9.29187L3.21699 11.0619C2.92462 11.2418 2.70453 11.5185 2.59492 11.8439C2.48531 12.1692 2.49312 12.5227 2.61699 12.8429L3.81099 15.8549L3.81199 15.8559C3.85345 15.9613 3.85345 16.0785 3.81199 16.1839L2.60299 19.1999C2.47722 19.5198 2.46802 19.8737 2.57698 20.1997C2.68595 20.5257 2.90614 20.8029 3.19899 20.9829L6.02199 22.7399C6.12463 22.8026 6.20021 22.9014 6.23399 23.0169L7.10999 26.1289C7.2029 26.4612 7.40814 26.7511 7.69076 26.9491C7.97338 27.1471 8.3159 27.241 8.65999 27.2149L12.03 27.0489C12.1618 27.0449 12.2912 27.0846 12.398 27.1619L15.023 29.1799C15.2957 29.3888 15.6298 29.5019 15.9733 29.5015C16.3169 29.5011 16.6507 29.3874 16.923 29.1779L19.558 27.1489C19.665 27.0726 19.7936 27.0326 19.925 27.0349L23.297 27.1899C23.641 27.2141 23.9829 27.119 24.265 26.9207C24.5472 26.7223 24.7523 26.4328 24.846 26.1009L25.734 22.9869C25.7695 22.8703 25.8463 22.7708 25.95 22.7069L28.78 20.9389C29.0732 20.7594 29.2941 20.4827 29.4042 20.157C29.5142 19.8314 29.5063 19.4774 29.382 19.1569L28.186 16.1449H28.187ZM28.252 20.0919L25.421 21.8589C25.107 22.0539 24.876 22.3589 24.774 22.7139L23.886 25.8279C23.8464 25.9383 23.7726 26.0332 23.6752 26.0987C23.5779 26.1642 23.4622 26.1968 23.345 26.1919L19.971 26.0359C19.6029 26.0195 19.2408 26.1331 18.948 26.3569L16.314 28.3849C16.2161 28.4587 16.0969 28.4988 15.9743 28.4991C15.8517 28.4995 15.7323 28.4601 15.634 28.3869L13.01 26.3699C12.7369 26.1605 12.4021 26.0477 12.058 26.0489C12.033 26.0489 12.008 26.0489 11.983 26.0509L8.61099 26.2179C8.49481 26.2229 8.38007 26.1906 8.28348 26.1259C8.18689 26.0611 8.1135 25.9672 8.07399 25.8579L7.19799 22.7459C7.097 22.3905 6.86699 22.0856 6.55299 21.8909L3.72899 20.1339C3.63447 20.0789 3.56269 19.9919 3.52657 19.8887C3.49046 19.7855 3.49238 19.6728 3.53199 19.5709L4.74199 16.5539C4.87899 16.2119 4.87899 15.8289 4.74199 15.4859L3.54699 12.4739C3.50801 12.3712 3.50683 12.2579 3.54366 12.1544C3.58048 12.0509 3.6529 11.9639 3.74799 11.9089L6.57799 10.1409C6.89199 9.94687 7.12299 9.64187 7.22599 9.28687L8.11399 6.17287C8.14696 6.05799 8.21938 5.95842 8.31851 5.89166C8.41765 5.8249 8.53714 5.79523 8.65599 5.80787L12.027 5.96287C12.397 5.98387 12.761 5.86987 13.053 5.64287L15.685 3.61487C15.7831 3.54075 15.9027 3.50048 16.0257 3.50012C16.1486 3.49976 16.2684 3.53932 16.367 3.61287L18.99 5.62987C19.282 5.85787 19.647 5.97187 20.017 5.94887L23.39 5.78287C23.5068 5.77387 23.6232 5.80451 23.7205 5.86983C23.8177 5.93515 23.8901 6.03134 23.926 6.14287L24.802 9.25287C24.902 9.60787 25.132 9.91287 25.447 10.1079L28.27 11.8669C28.3645 11.9213 28.4365 12.0078 28.4728 12.1107C28.5091 12.2136 28.5074 12.3261 28.468 12.4279L27.258 15.4449C27.1206 15.7883 27.1206 16.1714 27.258 16.5149L28.453 19.5259C28.4922 19.6287 28.4936 19.7422 28.4567 19.8459C28.4199 19.9496 28.3473 20.0368 28.252 20.0919Z M20.6749 12.62L14.0269 18.319L11.3539 15.633C11.2604 15.539 11.1334 15.486 11.0009 15.4856C10.8683 15.4852 10.741 15.5375 10.6469 15.631C10.5529 15.7245 10.4999 15.8515 10.4995 15.9841C10.4991 16.1167 10.5514 16.244 10.6449 16.338L13.6449 19.353C13.7339 19.4425 13.8535 19.4951 13.9796 19.5001C14.1058 19.5051 14.2291 19.4622 14.3249 19.38L21.3249 13.38C21.3748 13.3373 21.4158 13.2853 21.4456 13.2267C21.4754 13.1682 21.4933 13.1044 21.4984 13.0389C21.5036 12.9735 21.4957 12.9076 21.4754 12.8452C21.4551 12.7827 21.4226 12.7249 21.3799 12.675C21.3373 12.6251 21.2852 12.5841 21.2266 12.5543C21.1681 12.5246 21.1043 12.5066 21.0388 12.5015C20.9734 12.4964 20.9075 12.5042 20.8451 12.5246C20.7827 12.5449 20.7248 12.5773 20.6749 12.62Z"/></svg>