<svg xmlns="http://www.w3.org/2000/svg" width="32" height="32" viewBox="0 0 32 32"><path d="M28.4191 16.0521C28.4006 16.0062 28.4006 15.955 28.4191 15.9091L29.6281 12.8931C29.776 12.5188 29.7873 12.1043 29.66 11.7224C29.5328 11.3406 29.275 11.0158 28.9321 10.8051L26.1071 9.0451C26.0581 9.01589 26.0218 8.96957 26.0051 8.9151L25.1291 5.8031C25.0162 5.41916 24.7767 5.08479 24.4494 4.85451C24.1222 4.62423 23.7265 4.51163 23.3271 4.5351L19.9541 4.7011C19.8827 4.70091 19.8129 4.68007 19.7531 4.6411L17.1281 2.6211C16.8115 2.37848 16.4237 2.24733 16.0249 2.24805C15.6261 2.24877 15.2387 2.38133 14.9231 2.6251L12.2901 4.6521C12.232 4.69877 12.1583 4.72132 12.0841 4.7151L8.71405 4.5601C8.31436 4.53693 7.91861 4.64988 7.59135 4.88052C7.26409 5.11116 7.02464 5.44589 6.91205 5.8301L6.02405 8.9441C6.00634 9.0016 5.96783 9.05045 5.91605 9.0811L3.08505 10.8491C2.74288 11.0601 2.48546 11.3843 2.35758 11.7654C2.22969 12.1465 2.23941 12.5604 2.38505 12.9351L3.58005 15.9471L3.58105 15.9491C3.5994 15.9947 3.59904 16.0457 3.58005 16.0911L2.37205 19.1071C2.22431 19.4814 2.21308 19.8959 2.34035 20.2777C2.46761 20.6595 2.72524 20.9843 3.06805 21.1951L5.89105 22.9521C5.94105 22.9821 5.97805 23.0291 5.99505 23.0851L6.87105 26.1971C6.97894 26.5839 7.21733 26.9216 7.54577 27.1527C7.87422 27.3838 8.2725 27.4942 8.67305 27.4651L12.0431 27.2991C12.1158 27.2975 12.1872 27.3188 12.2471 27.3601L14.8721 29.3791C15.1886 29.6215 15.5763 29.7527 15.9751 29.7521C16.3738 29.7516 16.7612 29.6194 17.0771 29.3761L19.7111 27.3471C19.7703 27.3044 19.8421 27.2826 19.9151 27.2851L23.2861 27.4401C23.6871 27.4702 24.0861 27.36 24.4149 27.1283C24.7436 26.8967 24.9816 26.5579 25.0881 26.1701L25.9771 23.0551C25.9949 22.9982 26.033 22.9498 26.0841 22.9191L28.9141 21.1511C29.2568 20.9407 29.5148 20.6165 29.643 20.2353C29.7711 19.854 29.7612 19.4398 29.6151 19.0651L28.4191 16.0521ZM28.2351 12.3351L27.0271 15.3521C26.8653 15.7543 26.8646 16.2034 27.0251 16.6061L28.2211 19.6191C28.2382 19.6675 28.2374 19.7204 28.2186 19.7681C28.1999 19.8159 28.1645 19.8553 28.1191 19.8791L25.2881 21.6471C24.9217 21.8746 24.6527 22.2298 24.5331 22.6441L23.6441 25.7601C23.6183 25.8149 23.5774 25.8611 23.5262 25.8933C23.4749 25.9256 23.4156 25.9425 23.3551 25.9421L19.9811 25.7871C19.5544 25.7696 19.1349 25.9015 18.7951 26.1601L16.1621 28.1871C16.1079 28.2278 16.0421 28.25 15.9744 28.2504C15.9067 28.2507 15.8406 28.2292 15.7861 28.1891L13.1621 26.1721C12.845 25.9291 12.4565 25.798 12.0571 25.7991C12.0281 25.7991 12.0001 25.7991 11.9711 25.8011L8.60005 25.9681C8.5396 25.973 8.47917 25.9583 8.42768 25.9263C8.37619 25.8942 8.33636 25.8465 8.31405 25.7901L7.43805 22.6791C7.3205 22.2635 7.05194 21.9069 6.68505 21.6791L3.86005 19.9221C3.81574 19.898 3.78162 19.8588 3.76398 19.8116C3.74634 19.7643 3.74636 19.7123 3.76405 19.6651L4.97205 16.6471C5.13305 16.2451 5.13405 15.7971 4.97405 15.3941L3.77805 12.3821C3.76061 12.3336 3.76133 12.2805 3.78009 12.2325C3.79884 12.1845 3.83436 12.1449 3.88005 12.1211L6.70905 10.3531C7.07605 10.1261 7.34605 9.7711 7.46605 9.3561L8.35405 6.2411C8.3757 6.18306 8.41579 6.13373 8.46818 6.10067C8.52056 6.06761 8.58235 6.05266 8.64405 6.0581L12.0141 6.2131C12.4429 6.23686 12.8659 6.10474 13.2051 5.8411L15.8371 3.8131C15.8914 3.77245 15.9574 3.75032 16.0252 3.74996C16.0931 3.7496 16.1593 3.77103 16.2141 3.8111L18.8371 5.8291C19.1741 6.0961 19.5991 6.2291 20.0281 6.1991L23.4011 6.0331C23.4609 6.02964 23.5203 6.0448 23.5712 6.0765C23.622 6.1082 23.6618 6.15487 23.6851 6.2101L24.5601 9.3201C24.6771 9.7361 24.9471 10.0931 25.3141 10.3201L28.1381 12.0791C28.1824 12.1028 28.2167 12.1419 28.2343 12.189C28.252 12.2361 28.2519 12.288 28.2341 12.3351H28.2351Z M20.5119 12.4308L14.0409 17.9778L11.5309 15.4558C11.389 15.323 11.2011 15.2506 11.0068 15.2536C10.8124 15.2567 10.6269 15.335 10.4892 15.4722C10.3515 15.6094 10.2725 15.7946 10.2687 15.9889C10.2649 16.1832 10.3367 16.3714 10.4689 16.5138L13.4689 19.5298C13.6025 19.664 13.7819 19.7427 13.9711 19.7501C14.1602 19.7575 14.3452 19.6931 14.4889 19.5698L21.4889 13.5698C21.5637 13.5057 21.6251 13.4274 21.6697 13.3395C21.7142 13.2516 21.741 13.1558 21.7485 13.0576C21.756 12.9593 21.7441 12.8606 21.7135 12.7669C21.6829 12.6733 21.6341 12.5866 21.5699 12.5118C21.5058 12.437 21.4275 12.3756 21.3396 12.3311C21.2517 12.2865 21.1559 12.2597 21.0577 12.2522C20.9594 12.2447 20.8607 12.2566 20.767 12.2872C20.6734 12.3179 20.5867 12.3667 20.5119 12.4308Z"/></svg>