<svg width="32" height="32" viewBox="0 0 32 32" fill="none" xmlns="http://www.w3.org/2000/svg">
<path d="M28.187 16.145C28.145 16.039 28.145 15.921 28.187 15.815L29.395 12.8C29.5217 12.4803 29.5314 12.1262 29.4226 11.8C29.3137 11.4738 29.0933 11.1965 28.8 11.017L25.975 9.25799C25.8727 9.19575 25.7977 9.09717 25.765 8.98199L24.889 5.87199C24.7934 5.54114 24.5876 5.25292 24.3057 5.05519C24.0237 4.85746 23.6826 4.76211 23.339 4.78499L19.967 4.95099C19.8361 4.9544 19.7076 4.91508 19.601 4.83899L16.977 2.81999C16.7041 2.61154 16.3701 2.49878 16.0266 2.49915C15.6832 2.49951 15.3495 2.61297 15.077 2.82199L12.442 4.84999C12.3364 4.93137 12.2051 4.97217 12.072 4.96499L8.70199 4.80999C8.3578 4.78634 8.01595 4.88174 7.73375 5.0802C7.45154 5.27865 7.24614 5.56809 7.15199 5.89999L6.26399 9.01199C6.22901 9.12878 6.15207 9.22851 6.04799 9.29199L3.21699 11.062C2.92462 11.242 2.70453 11.5186 2.59492 11.844C2.48531 12.1693 2.49312 12.5228 2.61699 12.843L3.81099 15.855L3.81199 15.856C3.85345 15.9614 3.85345 16.0786 3.81199 16.184L2.60299 19.2C2.47722 19.5199 2.46802 19.8738 2.57698 20.1998C2.68595 20.5258 2.90614 20.803 3.19899 20.983L6.02199 22.74C6.12463 22.8028 6.20021 22.9015 6.23399 23.017L7.10999 26.129C7.2029 26.4613 7.40814 26.7512 7.69076 26.9492C7.97338 27.1472 8.3159 27.2411 8.65999 27.215L12.03 27.049C12.1618 27.045 12.2912 27.0847 12.398 27.162L15.023 29.18C15.2957 29.3889 15.6298 29.502 15.9733 29.5016C16.3169 29.5013 16.6507 29.3875 16.923 29.178L19.558 27.149C19.665 27.0727 19.7936 27.0327 19.925 27.035L23.297 27.19C23.641 27.2142 23.9829 27.1191 24.265 26.9208C24.5472 26.7224 24.7523 26.4329 24.846 26.101L25.734 22.987C25.7695 22.8705 25.8463 22.7709 25.95 22.707L28.78 20.939C29.0732 20.7596 29.2941 20.4829 29.4042 20.1572C29.5142 19.8315 29.5063 19.4775 29.382 19.157L28.186 16.145H28.187ZM28.252 20.092L25.421 21.859C25.107 22.054 24.876 22.359 24.774 22.714L23.886 25.828C23.8464 25.9384 23.7726 26.0333 23.6752 26.0988C23.5779 26.1643 23.4622 26.1969 23.345 26.192L19.971 26.036C19.6029 26.0196 19.2408 26.1333 18.948 26.357L16.314 28.385C16.2161 28.4588 16.0969 28.4989 15.9743 28.4992C15.8517 28.4996 15.7323 28.4602 15.634 28.387L13.01 26.37C12.7369 26.1607 12.4021 26.0478 12.058 26.049C12.033 26.049 12.008 26.049 11.983 26.051L8.61099 26.218C8.49481 26.223 8.38007 26.1908 8.28348 26.126C8.18689 26.0613 8.1135 25.9674 8.07399 25.858L7.19799 22.746C7.097 22.3906 6.86699 22.0857 6.55299 21.891L3.72899 20.134C3.63447 20.079 3.56269 19.9921 3.52657 19.8889C3.49046 19.7856 3.49238 19.6729 3.53199 19.571L4.74199 16.554C4.87899 16.212 4.87899 15.829 4.74199 15.486L3.54699 12.474C3.50801 12.3713 3.50683 12.2581 3.54366 12.1546C3.58048 12.051 3.6529 11.964 3.74799 11.909L6.57799 10.141C6.89199 9.94699 7.12299 9.64199 7.22599 9.28699L8.11399 6.17299C8.14696 6.05811 8.21938 5.95854 8.31851 5.89178C8.41765 5.82502 8.53714 5.79535 8.65599 5.80799L12.027 5.96299C12.397 5.98399 12.761 5.86999 13.053 5.64299L15.685 3.61499C15.7831 3.54087 15.9027 3.5006 16.0257 3.50024C16.1486 3.49988 16.2684 3.53944 16.367 3.61299L18.99 5.62999C19.282 5.85799 19.647 5.97199 20.017 5.94899L23.39 5.78299C23.5068 5.774 23.6232 5.80463 23.7205 5.86995C23.8177 5.93527 23.8901 6.03146 23.926 6.14299L24.802 9.25299C24.902 9.60799 25.132 9.91299 25.447 10.108L28.27 11.867C28.3645 11.9215 28.4365 12.008 28.4728 12.1109C28.5091 12.2138 28.5074 12.3262 28.468 12.428L27.258 15.445C27.1206 15.7884 27.1206 16.1716 27.258 16.515L28.453 19.526C28.4922 19.6288 28.4936 19.7423 28.4567 19.846C28.4199 19.9497 28.3473 20.0369 28.252 20.092V20.092Z" fill="#0F0F0F"/>
<path d="M20.675 12.62L14.027 18.319L11.354 15.633C11.2605 15.539 11.1335 15.486 11.0009 15.4856C10.8683 15.4852 10.741 15.5375 10.647 15.631C10.553 15.7245 10.4999 15.8515 10.4996 15.9841C10.4992 16.1167 10.5515 16.244 10.645 16.338L13.645 19.353C13.734 19.4425 13.8536 19.4951 13.9797 19.5001C14.1058 19.5051 14.2292 19.4622 14.325 19.38L21.325 13.38C21.3749 13.3373 21.4159 13.2853 21.4457 13.2267C21.4755 13.1682 21.4934 13.1044 21.4985 13.0389C21.5036 12.9735 21.4958 12.9076 21.4754 12.8452C21.4551 12.7827 21.4227 12.7249 21.38 12.675C21.3373 12.6251 21.2852 12.5841 21.2267 12.5543C21.1682 12.5246 21.1044 12.5066 21.0389 12.5015C20.9734 12.4964 20.9076 12.5042 20.8452 12.5246C20.7827 12.5449 20.7249 12.5773 20.675 12.62V12.62Z" fill="#0F0F0F"/>
</svg>
