<svg width="32" height="32" viewBox="0 0 32 32" fill="none" xmlns="http://www.w3.org/2000/svg">
<path d="M25.174 24.467C25.638 23.973 26.062 23.441 26.44 22.879C27.7863 20.8372 28.5026 18.4447 28.5 15.999C28.5 15.8664 28.4473 15.7392 28.3536 15.6454C28.2598 15.5517 28.1326 15.499 28 15.499C27.8674 15.499 27.7402 15.5517 27.6465 15.6454C27.5527 15.7392 27.5 15.8664 27.5 15.999C27.5022 18.2483 26.8436 20.4488 25.606 22.327C24.1398 24.5455 21.9516 26.1888 19.4122 26.9784C16.8729 27.7679 14.1387 27.6551 11.673 26.659C10.973 26.375 10.303 26.022 9.67301 25.606C8.37102 24.7446 7.25585 23.6297 6.394 22.328C4.93541 20.1172 4.28542 17.4703 4.55402 14.8353C4.82262 12.2003 5.99332 9.73906 7.868 7.868C8.418 7.318 9.02301 6.824 9.67301 6.394C10.9254 5.56656 12.329 4.99462 13.803 4.711C14.527 4.571 15.263 4.5 16 4.5C16.1326 4.5 16.2598 4.44732 16.3536 4.35355C16.4473 4.25979 16.5 4.13261 16.5 4C16.5 3.86739 16.4473 3.74021 16.3536 3.64645C16.2598 3.55268 16.1326 3.5 16 3.5C13.5547 3.49575 11.1624 4.21226 9.122 5.56C7.70654 6.49489 6.49489 7.70653 5.56 9.122C4.66101 10.4845 4.03854 12.0104 3.728 13.613C3.42337 15.1894 3.42337 16.8096 3.728 18.386C4.039 19.989 4.661 21.516 5.56 22.879C6.49568 24.2935 7.7072 25.5047 9.122 26.44C9.807 26.893 10.536 27.276 11.297 27.586C14.3137 28.8063 17.6866 28.8059 20.703 27.585C21.464 27.276 22.193 26.893 22.879 26.44C23.4415 26.0614 23.9726 25.638 24.467 25.174L28.647 29.354C28.6932 29.4017 28.7484 29.4397 28.8095 29.4658C28.8705 29.4919 28.9361 29.5056 29.0025 29.5061C29.0689 29.5066 29.1347 29.4938 29.1961 29.4686C29.2575 29.4434 29.3133 29.4062 29.3602 29.3592C29.4071 29.3122 29.4441 29.2563 29.4692 29.1948C29.4942 29.1333 29.5068 29.0675 29.5061 29.0011C29.5054 28.9347 29.4916 28.8691 29.4653 28.8081C29.439 28.7472 29.4008 28.6921 29.353 28.646L25.174 24.467V24.467ZM21 7.5H24.5V11C24.5 11.1326 24.5527 11.2598 24.6465 11.3536C24.7402 11.4473 24.8674 11.5 25 11.5C25.1326 11.5 25.2598 11.4473 25.3536 11.3536C25.4473 11.2598 25.5 11.1326 25.5 11V7.5H29C29.1326 7.5 29.2598 7.44732 29.3536 7.35355C29.4473 7.25979 29.5 7.13261 29.5 7C29.5 6.86739 29.4473 6.74021 29.3536 6.64645C29.2598 6.55268 29.1326 6.5 29 6.5H25.5V3C25.5 2.86739 25.4473 2.74021 25.3536 2.64645C25.2598 2.55268 25.1326 2.5 25 2.5C24.8674 2.5 24.7402 2.55268 24.6465 2.64645C24.5527 2.74021 24.5 2.86739 24.5 3V6.5H21C20.8674 6.5 20.7402 6.55268 20.6465 6.64645C20.5527 6.74021 20.5 6.86739 20.5 7C20.5 7.13261 20.5527 7.25979 20.6465 7.35355C20.7402 7.44732 20.8674 7.5 21 7.5Z" fill="#0F0F0F"/>
</svg>
