<svg xmlns="http://www.w3.org/2000/svg" width="32" height="32" viewBox="0 0 32 32"><path d="M7.00138 6.25C6.13943 6.25 5.31284 6.5924 4.70334 7.2019C4.09383 7.81141 3.75138 8.63807 3.75138 9.5V19.4996C3.75208 20.1108 3.92502 20.7094 4.25044 21.2266C4.57597 21.744 5.0408 22.1591 5.59158 22.4242L5.64047 22.4477C5.90072 22.5724 6.06632 22.8354 6.06632 23.124V23.181C6.06632 23.3036 6.03626 23.4244 5.97877 23.5327C5.53387 24.3707 4.89817 25.0903 4.125 25.6342C4.24734 25.6651 4.38921 25.6919 4.5493 25.7114C5.67214 25.8487 7.40668 25.6003 8.91059 24.4612C8.91732 24.4561 8.92414 24.4511 8.93103 24.4462C9.0659 24.3511 9.22786 24.2157 9.42347 24.0459C9.46997 24.0055 9.51858 23.963 9.56864 23.9192C9.71762 23.789 9.87991 23.647 10.0374 23.517C10.2481 23.343 10.4839 23.1617 10.7229 23.0225C10.9423 22.8947 11.2594 22.7448 11.616 22.75H25.0014C25.8633 22.75 26.6899 22.4076 27.2994 21.7981C27.9089 21.1886 28.2514 20.3619 28.2514 19.5V9.5C28.2514 8.63807 27.9089 7.81141 27.2994 7.2019C26.6899 6.5924 25.8633 6.25 25.0014 6.25H7.00138ZM3.64268 6.14124C4.53347 5.25045 5.74159 4.75 7.00138 4.75H25.0014C26.2612 4.75 27.4693 5.25045 28.3601 6.14124C29.2509 7.03202 29.7514 8.24019 29.7514 9.5V19.5C29.7514 20.7598 29.2509 21.968 28.3601 22.8588C27.4693 23.7496 26.2612 24.25 25.0014 24.25H11.6198C11.6075 24.2542 11.562 24.2697 11.4777 24.3187C11.345 24.396 11.1836 24.5159 10.9924 24.6737C10.8528 24.789 10.7148 24.9096 10.5705 25.0358L10.5694 25.0368C10.5162 25.0833 10.4622 25.1305 10.4069 25.1786C10.2151 25.345 10.0064 25.5222 9.80648 25.6643C7.95667 27.0609 5.82515 27.3785 4.36731 27.2003C3.99827 27.1552 3.65526 27.0764 3.35965 26.9649C3.07639 26.8581 2.77978 26.6999 2.56232 26.4615C2.32393 26.2001 2.15068 25.7922 2.3117 25.336C2.44492 24.9586 2.75543 24.714 3.03707 24.5558C3.52762 24.2527 3.95387 23.8596 4.29455 23.3992C3.77064 23.0359 3.32306 22.5693 2.98083 22.0254C2.50502 21.2692 2.2523 20.3941 2.25138 19.5008L2.25138 9.5C2.25138 8.24019 2.7519 7.03202 3.64268 6.14124ZM14 9.75C14.4142 9.75 14.75 10.0858 14.75 10.5V11.75L17.25 11.75V10.5C17.25 10.0858 17.5858 9.75 18 9.75C18.4142 9.75 18.75 10.0858 18.75 10.5V11.75H20C20.4142 11.75 20.75 12.0858 20.75 12.5C20.75 12.9142 20.4142 13.25 20 13.25H18.75V15.75H20C20.4142 15.75 20.75 16.0858 20.75 16.5C20.75 16.9142 20.4142 17.25 20 17.25H18.75V18.5C18.75 18.9142 18.4142 19.25 18 19.25C17.5858 19.25 17.25 18.9142 17.25 18.5V17.25H14.75V18.5C14.75 18.9142 14.4142 19.25 14 19.25C13.5858 19.25 13.25 18.9142 13.25 18.5V17.25H12C11.5858 17.25 11.25 16.9142 11.25 16.5C11.25 16.0858 11.5858 15.75 12 15.75H13.25V13.25H12C11.5858 13.25 11.25 12.9142 11.25 12.5C11.25 12.0858 11.5858 11.75 12 11.75H13.25V10.5C13.25 10.0858 13.5858 9.75 14 9.75ZM14.75 15.75H17.25V13.25L14.75 13.25V15.75Z"/></svg>