<svg xmlns="http://www.w3.org/2000/svg" width="32" height="32" viewBox="0 0 32 32"><path d="M7.00138 6.5C6.20575 6.5 5.44274 6.81606 4.88012 7.37868C4.31749 7.94131 4.00138 8.70439 4.00138 9.5V19.4995C4.00207 20.0637 4.16171 20.6161 4.46205 21.0935C4.76232 21.5707 5.19101 21.9537 5.69895 22.1985L5.70003 22.199L5.74852 22.2222C6.09553 22.3885 6.31632 22.7392 6.31632 23.124V23.181C6.31632 23.3445 6.27624 23.5055 6.19959 23.6499C5.82848 24.349 5.32989 24.9689 4.73237 25.479C5.80094 25.5698 7.38105 25.3061 8.75965 24.2619C8.76862 24.2551 8.77771 24.2484 8.7869 24.242C8.91039 24.1548 9.06389 24.027 9.25958 23.8571C9.30475 23.8179 9.3525 23.7761 9.40205 23.7328C9.55158 23.602 9.71777 23.4567 9.87819 23.3243C10.0922 23.1475 10.3404 22.956 10.5971 22.8065C10.828 22.672 11.1927 22.4944 11.6177 22.5H25.0014C25.797 22.5 26.56 22.1839 27.1226 21.6213C27.6853 21.0587 28.0014 20.2956 28.0014 19.5V9.5C28.0014 8.70439 27.6853 7.94131 27.1226 7.37868C26.56 6.81606 25.797 6.5 25.0014 6.5H7.00138ZM3.83589 26.1194C3.83562 26.1193 3.83838 26.1168 3.84497 26.112C3.83946 26.1171 3.83616 26.1194 3.83589 26.1194ZM3.46591 5.96446C4.40358 5.02679 5.67529 4.5 7.00138 4.5H25.0014C26.3275 4.5 27.5992 5.02679 28.5369 5.96446C29.4745 6.90212 30.0014 8.17388 30.0014 9.5V19.5C30.0014 20.8261 29.4745 22.0979 28.5369 23.0355C27.5992 23.9732 26.3275 24.5 25.0014 24.5H11.6685C11.6533 24.5072 11.6319 24.5183 11.6036 24.5348C11.4885 24.6017 11.3395 24.7114 11.1515 24.8665C11.0148 24.9794 10.8807 25.0967 10.7374 25.222C10.6834 25.2692 10.6279 25.3177 10.5708 25.3673C10.3801 25.5329 10.1643 25.7164 9.95428 25.866C8.04717 27.3045 5.85023 27.6335 4.33698 27.4485C3.95256 27.4015 3.58944 27.3188 3.2714 27.1988C2.96984 27.0851 2.63237 26.9092 2.37762 26.63C2.09497 26.3201 1.87637 25.8183 2.07596 25.2528C2.23787 24.7941 2.60743 24.5112 2.90993 24.3405C3.29985 24.0989 3.64665 23.7971 3.93834 23.4479C3.47837 23.0914 3.082 22.6557 2.76923 22.1585C2.26837 21.3625 2.00236 20.4414 2.00138 19.501L2.00138 9.5C2.00138 8.17388 2.52825 6.90212 3.46591 5.96446ZM14 9.5C14.5523 9.5 15 9.94772 15 10.5V11.5L17 11.5V10.5C17 9.94772 17.4477 9.5 18 9.5C18.5523 9.5 19 9.94772 19 10.5V11.5H20C20.5523 11.5 21 11.9477 21 12.5C21 13.0523 20.5523 13.5 20 13.5H19V15.5H20C20.5523 15.5 21 15.9477 21 16.5C21 17.0523 20.5523 17.5 20 17.5H19V18.5C19 19.0523 18.5523 19.5 18 19.5C17.4477 19.5 17 19.0523 17 18.5V17.5H15V18.5C15 19.0523 14.5523 19.5 14 19.5C13.4477 19.5 13 19.0523 13 18.5V17.5H12C11.4477 17.5 11 17.0523 11 16.5C11 15.9477 11.4477 15.5 12 15.5H13V13.5H12C11.4477 13.5 11 13.0523 11 12.5C11 11.9477 11.4477 11.5 12 11.5H13V10.5C13 9.94772 13.4477 9.5 14 9.5ZM15 15.5H17V13.5L15 13.5V15.5Z"/></svg>