<svg xmlns="http://www.w3.org/2000/svg" width="32" height="32" viewBox="0 0 32 32"><path d="M28.7618 27.8071C28.6918 27.7571 28.6118 27.7061 28.5238 27.6501C27.9372 27.3055 27.4918 26.7641 27.2668 26.1221C28.2532 24.6246 28.6687 22.8226 28.4378 21.0443C28.2069 19.2661 27.3449 17.63 26.0088 16.4341C25.2768 18.9817 23.7543 21.2308 21.6611 22.857C19.568 24.4833 17.0123 25.4025 14.3628 25.4821C15.2639 27.2027 16.7978 28.5063 18.6412 29.1184C20.4845 29.7304 22.4935 29.603 24.2448 28.7631C25.0258 29.2491 25.9278 29.5051 26.8478 29.5011C27.4546 29.5095 28.0568 29.3945 28.6178 29.1631C28.8067 29.0754 28.954 28.9175 29.0283 28.7229C29.1027 28.5283 29.0982 28.3124 29.0158 28.1211C28.9603 27.9959 28.8727 27.8875 28.7618 27.8071Z M24.5002 12.9999C24.5 11.3588 24.1152 9.74062 23.3765 8.27514C22.6379 6.80966 21.5661 5.53772 20.247 4.56137C18.9279 3.58502 17.3984 2.93145 15.7811 2.65311C14.1637 2.37476 12.5037 2.47939 10.9341 2.9586C9.36455 3.4378 7.92915 4.27824 6.74311 5.41248C5.55707 6.54672 4.6534 7.94317 4.10462 9.48979C3.55584 11.0364 3.37723 12.6901 3.58311 14.3183C3.789 15.9464 4.37365 17.5036 5.29016 18.8649C5.04303 19.5398 4.65276 20.1532 4.14616 20.6629C3.90616 20.8859 3.64616 21.0829 3.36616 21.2509C3.25436 21.3195 3.14497 21.3918 3.03816 21.4679C2.90973 21.5609 2.80816 21.6862 2.74371 21.8311C2.67926 21.9759 2.65423 22.1353 2.67116 22.2929C2.68694 22.4532 2.74484 22.6064 2.83898 22.7371C2.93311 22.8678 3.06013 22.9712 3.20716 23.0369C3.97994 23.3568 4.80986 23.5157 5.64616 23.5039C6.10294 23.498 6.55808 23.4478 7.00516 23.3539C7.83959 23.194 8.63562 22.8756 9.35016 22.4159C10.9512 23.2055 12.7272 23.5741 14.5102 23.4867C16.2933 23.3993 18.0247 22.8589 19.5409 21.9166C21.0571 20.9742 22.3082 19.661 23.1759 18.1008C24.0436 16.5407 24.4994 14.7851 24.5002 12.9999Z"/></svg>