<svg xmlns="http://www.w3.org/2000/svg" width="32" height="32" viewBox="0 0 32 32"><path d="M28.7621 27.8069C28.6845 27.7517 28.6051 27.699 28.5241 27.6489C27.9375 27.3044 27.4921 26.763 27.2671 26.1209C27.8545 25.2283 28.244 24.2204 28.4096 23.1648C28.5752 22.1092 28.5131 21.0303 28.2273 20.0008C27.9415 18.9712 27.4388 18.0146 26.7528 17.1954C26.0668 16.3761 25.2135 15.7132 24.2501 15.2509C24.6222 13.5547 24.5677 11.7927 24.0915 10.1227C23.6152 8.45276 22.7321 6.92704 21.5212 5.68228C20.3103 4.43753 18.8096 3.51262 17.1534 2.99044C15.4972 2.46827 13.7373 2.36514 12.0315 2.69029C10.3257 3.01544 8.72714 3.75872 7.37917 4.85352C6.0312 5.94833 4.9759 7.36045 4.30783 8.96335C3.63977 10.5663 3.3798 12.3099 3.55124 14.0379C3.72268 15.766 4.32016 17.4245 5.29014 18.8649C4.95983 19.8678 4.27597 20.7162 3.36614 21.2519C3.24514 21.3279 3.13614 21.3979 3.03814 21.4679C2.91024 21.5613 2.80917 21.6867 2.74509 21.8315C2.68102 21.9763 2.65621 22.1355 2.67314 22.2929C2.68903 22.4532 2.74697 22.6064 2.84109 22.737C2.93521 22.8677 3.06218 22.9711 3.20914 23.0369C3.98114 23.3569 4.81114 23.5159 5.64714 23.5039C6.96113 23.5087 8.24813 23.1311 9.35114 22.4169C10.6922 23.0721 12.1573 23.4344 13.6491 23.4799C13.8748 24.5995 14.353 25.6528 15.0475 26.5595C15.7419 27.4662 16.6341 28.2024 17.6561 28.712C18.6782 29.2217 19.8031 29.4912 20.9451 29.5002C22.0872 29.5092 23.2162 29.2574 24.2461 28.7639C25.0271 29.2489 25.9291 29.5049 26.8481 29.5019C27.4551 29.51 28.0573 29.3943 28.6181 29.1619C28.8075 29.0752 28.9553 28.9178 29.0301 28.7235C29.1048 28.5291 29.1006 28.3132 29.0181 28.1219C28.9626 27.9962 28.8746 27.8875 28.7631 27.8069H28.7621ZM9.54914 21.3949C9.46724 21.3515 9.37486 21.3316 9.28232 21.3376C9.18978 21.3436 9.10074 21.3752 9.02514 21.4289C8.26982 21.9618 7.39898 22.3081 6.484 22.4395C5.56901 22.571 4.6359 22.4837 3.76114 22.1849L3.89814 22.0969C5.07009 21.3978 5.93505 20.2821 6.32014 18.9729C6.34868 18.8963 6.35804 18.8139 6.34741 18.7329C6.33678 18.6518 6.30647 18.5746 6.25914 18.5079C4.91248 16.6126 4.30882 14.2886 4.56281 11.9775C4.8168 9.66632 5.91075 7.52894 7.63689 5.97126C9.36303 4.41358 11.6011 3.5441 13.9261 3.52795C16.2512 3.5118 18.5011 4.3501 20.2487 5.88364C21.9964 7.41719 23.1199 9.53917 23.406 11.8466C23.692 14.154 23.1207 16.4861 21.8005 18.4C20.4803 20.3139 18.5032 21.6763 16.2447 22.2284C13.9861 22.7805 11.6034 22.4839 9.54914 21.3949ZM24.5701 27.7779C24.4945 27.7242 24.4055 27.6926 24.313 27.6866C24.2204 27.6806 24.128 27.7005 24.0461 27.7439C23.1663 28.2099 22.1911 28.4674 21.1959 28.4967C20.2007 28.526 19.212 28.3262 18.3063 27.9128C17.4005 27.4994 16.6019 26.8834 15.9719 26.1124C15.342 25.3414 14.8976 24.4359 14.6731 23.4659C16.7707 23.3296 18.7792 22.5676 20.4393 21.2782C22.0994 19.9889 23.3349 18.2315 23.9861 16.2329C24.8128 16.6597 25.5382 17.2592 26.113 17.9907C26.6878 18.7223 27.0987 19.5688 27.3178 20.473C27.537 21.3772 27.5593 22.3179 27.3832 23.2314C27.2071 24.145 26.8367 25.01 26.2971 25.7679C26.2496 25.8347 26.2191 25.9121 26.2085 25.9933C26.1978 26.0746 26.2073 26.1572 26.2361 26.2339C26.504 27.1084 27.0611 27.8659 27.8161 28.3819C27.2635 28.5209 26.6874 28.5388 26.1272 28.4346C25.5669 28.3303 25.0358 28.1063 24.5701 27.7779Z"/></svg>