<svg width="32" height="32" viewBox="0 0 32 32" fill="none" xmlns="http://www.w3.org/2000/svg">
<path d="M5.97696 29.0008C4.91637 29.015 3.86398 28.8133 2.88376 28.408C2.64457 28.2991 2.43794 28.1297 2.28431 27.9164C2.13067 27.7032 2.03535 27.4536 2.00776 27.1922C1.97988 26.9337 2.02091 26.6725 2.12668 26.435C2.23244 26.1975 2.39919 25.9922 2.60996 25.84C2.73106 25.7512 2.87126 25.6613 3.02556 25.5637C3.98752 25.0067 4.72094 24.1268 5.09556 23.0803C3.52072 20.6556 2.799 17.7751 3.04452 14.8943C3.29003 12.0135 4.48877 9.29676 6.45121 7.17353C8.41365 5.05029 11.0278 3.64175 13.8804 3.17059C16.733 2.69944 19.6613 3.19255 22.2022 4.57197C24.7432 5.95139 26.7519 8.13841 27.9107 10.7873C29.0696 13.4361 29.3124 16.3957 28.6009 19.198C27.8894 22.0003 26.2641 24.4855 23.982 26.2607C21.6999 28.0359 18.8912 28.9998 16 29C14.0795 28.9992 12.1829 28.5747 10.4453 27.7568C9.0993 28.5762 7.5527 29.0067 5.97696 29.0008ZM4.66306 26.8748C5.54785 27.0532 6.45976 27.0489 7.34282 26.8622C8.22589 26.6754 9.06146 26.3101 9.79826 25.7888C9.94952 25.6815 10.1276 25.6184 10.3127 25.6065C10.4977 25.5947 10.6824 25.6345 10.8462 25.7215C13.2292 26.9862 15.9937 27.3316 18.6146 26.6919C21.2355 26.0523 23.5301 24.4722 25.0626 22.2519C26.5951 20.0316 27.2586 17.3258 26.9272 14.6484C26.5957 11.971 25.2923 9.50864 23.2647 7.72909C21.237 5.94953 18.6263 4.97677 15.9286 4.99559C13.2308 5.01441 10.6339 6.02351 8.63131 7.83119C6.62867 9.63886 5.35979 12.1192 5.06571 14.8009C4.77164 17.4827 5.47286 20.179 7.03616 22.3777C7.1312 22.511 7.19204 22.6655 7.21333 22.8278C7.23462 22.9901 7.21571 23.1551 7.15826 23.3084C6.71294 24.7254 5.84165 25.9708 4.66306 26.8748Z" fill="black"/>
</svg>
