<svg width="32" height="32" viewBox="0 0 32 32" fill="none" xmlns="http://www.w3.org/2000/svg">
<path d="M16 3.5C13.7283 3.50035 11.4996 4.11969 9.55339 5.29149C7.60721 6.46328 6.01711 8.14323 4.95395 10.1508C3.89079 12.1584 3.39476 14.4177 3.51915 16.6861C3.64355 18.9544 4.38366 21.1459 5.65998 23.0252C5.26012 24.269 4.41746 25.3226 3.29198 25.9861C3.14898 26.0769 3.01858 26.1599 2.90528 26.2429C2.76526 26.3441 2.6545 26.4805 2.58425 26.6383C2.514 26.7961 2.48675 26.9697 2.50528 27.1414C2.52253 27.3163 2.58579 27.4835 2.68863 27.6261C2.79147 27.7686 2.93023 27.8814 3.09078 27.9529C4.00472 28.3308 4.98608 28.5186 5.97498 28.5047C7.55179 28.5103 9.09534 28.0514 10.413 27.1853C12.0999 28.0278 13.9556 28.4778 15.841 28.5016C17.7265 28.5254 19.5929 28.1223 21.3006 27.3226C23.0082 26.5229 24.5129 25.3473 25.7018 23.8838C26.8907 22.4202 27.7332 20.7067 28.1661 18.8714C28.599 17.0361 28.6112 15.1267 28.2016 13.2861C27.7921 11.4455 26.9715 9.72139 25.8012 8.24284C24.631 6.76429 23.1414 5.56962 21.4441 4.74828C19.7468 3.92693 17.8856 3.50019 16 3.5ZM16 27.5C14.1218 27.5 12.2722 27.0411 10.6119 26.1631C10.53 26.1195 10.4376 26.0995 10.345 26.1055C10.2525 26.1116 10.1634 26.1433 10.0879 26.1972C9.14122 26.8643 8.04624 27.2905 6.89773 27.4391C5.74923 27.5877 4.58182 27.454 3.49658 27.0498C3.59328 26.9785 3.70408 26.9092 3.82568 26.832C5.21245 26.0038 6.23542 24.6826 6.68998 23.1326C6.71859 23.056 6.72799 22.9736 6.71736 22.8926C6.70672 22.8115 6.67638 22.7343 6.62898 22.6677C5.13396 20.567 4.38823 18.0248 4.51153 15.4493C4.63483 12.8739 5.62 10.4146 7.30888 8.46626C8.99775 6.51796 11.2923 5.1937 13.8242 4.70611C16.3561 4.21852 18.9784 4.59588 21.27 5.77761C23.5617 6.95934 25.3898 8.87687 26.4607 11.2223C27.5317 13.5678 27.7835 16.2051 27.1756 18.7108C26.5676 21.2165 25.1353 23.4453 23.1086 25.0392C21.0819 26.6332 18.5784 27.4998 16 27.5Z" fill="black"/>
</svg>
