<svg xmlns="http://www.w3.org/2000/svg" width="32" height="32" viewBox="0 0 32 32"><path d="M16 3.5C13.7284 3.50054 11.4999 4.12 9.55384 5.29183C7.6078 6.46365 6.0178 8.14354 4.95468 10.151C3.89156 12.1585 3.39549 14.4177 3.51976 16.686C3.64404 18.9542 4.38397 21.1457 5.66005 23.025C5.26022 24.2688 4.41755 25.3225 3.29205 25.986C3.14905 26.076 3.01905 26.16 2.90505 26.243C2.76519 26.3442 2.65455 26.4805 2.58431 26.6382C2.51407 26.7959 2.48672 26.9694 2.50505 27.141C2.52233 27.316 2.58565 27.4834 2.68858 27.626C2.79151 27.7686 2.93037 27.8814 3.09105 27.953C4.00491 28.331 4.9862 28.5188 5.97505 28.505C7.55192 28.5104 9.09546 28.0513 10.413 27.185C12.1001 28.0282 13.9561 28.4788 15.8419 28.503C17.7278 28.5272 19.5947 28.1244 21.3029 27.3248C23.011 26.5251 24.5161 25.3494 25.7054 23.8856C26.8947 22.4218 27.7374 20.7079 28.1704 18.8723C28.6034 17.0366 28.6155 15.1268 28.2057 13.2858C27.796 11.4448 26.975 9.72043 25.8043 8.24172C24.6336 6.76302 23.1435 5.56835 21.4456 4.74718C19.7478 3.92602 17.8861 3.49965 16 3.5ZM16 27.5C14.122 27.5 12.272 27.041 10.612 26.163C10.5301 26.1195 10.4378 26.0997 10.3452 26.1057C10.2527 26.1117 10.1636 26.1433 10.088 26.197C9.14147 26.8641 8.04655 27.2904 6.8981 27.439C5.74964 27.5877 4.58227 27.4541 3.49705 27.05C3.59305 26.978 3.70405 26.91 3.82605 26.832C5.21282 26.0036 6.2357 24.6821 6.69005 23.132C6.7185 23.0556 6.72782 22.9733 6.71719 22.8924C6.70655 22.8115 6.6763 22.7345 6.62905 22.668C5.13413 20.5674 4.38844 18.0254 4.51171 15.4501C4.63499 12.8749 5.62007 10.4157 7.3088 8.46754C8.99753 6.51935 11.2919 5.19515 13.8236 4.70754C16.3553 4.21993 18.9774 4.59721 21.269 5.7788C23.5605 6.96039 25.3885 8.87773 26.4595 11.223C27.5304 13.5683 27.7822 16.2054 27.1745 18.7109C26.5667 21.2165 25.1346 23.4451 23.1081 25.0391C21.0816 26.633 18.5783 27.4997 16 27.5Z"/></svg>