<svg xmlns="http://www.w3.org/2000/svg" width="32" height="32" viewBox="0 0 32 32"><path d="M15.9988 3.5C13.7545 3.50001 11.5517 4.1042 9.62139 5.24915C7.69113 6.3941 6.10469 8.03757 5.02861 10.007C3.95252 11.9765 3.42648 14.1994 3.5057 16.4423C3.58492 18.6852 4.26648 20.8653 5.47883 22.754C5.33511 23.479 5.04471 24.1671 4.62546 24.7758C4.20621 25.3846 3.66697 25.9012 3.04083 26.294C2.42683 26.698 2.41683 27.196 2.61183 27.529C2.98183 28.16 4.35683 28.51 6.02083 28.51C7.73983 28.52 9.44083 28.164 11.0108 27.464C12.7145 28.2061 14.5623 28.559 16.4195 28.4971C18.2768 28.4352 20.0969 27.96 21.7474 27.1062C23.398 26.2523 24.8374 25.0413 25.961 23.5611C27.0846 22.081 27.8641 20.3689 28.2428 18.5496C28.6214 16.7303 28.5898 14.8495 28.1501 13.0439C27.7104 11.2384 26.8737 9.55359 25.701 8.11209C24.5282 6.67059 23.0489 5.50865 21.3705 4.71083C19.6922 3.91301 17.8571 3.49937 15.9988 3.5Z"/></svg>