<svg width="32" height="32" viewBox="0 0 32 32" fill="none" xmlns="http://www.w3.org/2000/svg">
<path d="M11.2005 23.6999C11.1346 23.6999 11.0693 23.6869 11.0085 23.6615C10.9476 23.6362 10.8924 23.5992 10.846 23.5524L3.64576 16.3171C3.59946 16.2705 3.56279 16.2153 3.53783 16.1546C3.51288 16.0939 3.50013 16.0288 3.50031 15.9632C3.50049 15.8975 3.5136 15.8325 3.53889 15.7719C3.56419 15.7113 3.60117 15.6563 3.64772 15.61C3.69427 15.5637 3.74949 15.5271 3.81022 15.5021C3.87094 15.4772 3.93599 15.4644 4.00165 15.4646C4.0673 15.4648 4.13228 15.4779 4.19286 15.5032C4.25345 15.5285 4.30846 15.5654 4.35476 15.612L11.2278 22.5182L27.6751 8.42059C27.7758 8.33434 27.9067 8.29165 28.0389 8.30191C28.1712 8.31216 28.2939 8.37453 28.3801 8.47528C28.4664 8.57603 28.5091 8.70692 28.4988 8.83915C28.4886 8.97137 28.4262 9.09411 28.3255 9.18036L11.5256 23.5798C11.435 23.6573 11.3197 23.6999 11.2005 23.6999Z" fill="black"/>
</svg>
