<svg xmlns="http://www.w3.org/2000/svg" width="32" height="32" viewBox="0 0 32 32"><path d="M16 2C13.2311 2 10.5243 2.82109 8.22202 4.35943C5.91973 5.89777 4.12532 8.08427 3.06569 10.6424C2.00607 13.2006 1.72882 16.0155 2.26901 18.7313C2.80921 21.447 4.14258 23.9416 6.10051 25.8995C8.05845 27.8574 10.553 29.1908 13.2687 29.731C15.9845 30.2712 18.7994 29.9939 21.3576 28.9343C23.9157 27.8747 26.1022 26.0803 27.6406 23.778C29.1789 21.4757 30 18.7689 30 16C29.996 12.2882 28.5198 8.72954 25.8951 6.10489C23.2705 3.48024 19.7118 2.00397 16 2ZM16 28C13.6266 28 11.3066 27.2962 9.33316 25.9776C7.35977 24.6591 5.8217 22.7849 4.91345 20.5922C4.0052 18.3995 3.76756 15.9867 4.23058 13.6589C4.69361 11.3311 5.83649 9.19295 7.51472 7.51472C9.19295 5.83649 11.3312 4.6936 13.6589 4.23058C15.9867 3.76755 18.3995 4.00519 20.5922 4.91345C22.7849 5.8217 24.6591 7.35977 25.9776 9.33316C27.2962 11.3065 28 13.6266 28 16C27.9966 19.1815 26.7312 22.2318 24.4815 24.4815C22.2318 26.7312 19.1815 27.9966 16 28Z M20.3499 12.2399L14.0529 17.6359L11.7089 15.2799C11.6169 15.1842 11.5068 15.1077 11.3849 15.055C11.2631 15.0023 11.132 14.9744 10.9992 14.9728C10.8664 14.9713 10.7347 14.9963 10.6117 15.0462C10.4887 15.0961 10.3768 15.1701 10.2827 15.2637C10.1885 15.3573 10.114 15.4687 10.0634 15.5914C10.0127 15.7142 9.98705 15.8458 9.98781 15.9785C9.98857 16.1113 10.0158 16.2426 10.0678 16.3647C10.1198 16.4869 10.1957 16.5974 10.2909 16.6899L13.2909 19.7049C13.4687 19.8844 13.7079 19.9897 13.9602 19.9997C14.2126 20.0098 14.4594 19.9237 14.6509 19.7589L21.6509 13.7589C21.8522 13.5863 21.9766 13.3407 21.9969 13.0763C22.0172 12.8119 21.9315 12.5502 21.7589 12.3489C21.5862 12.1476 21.3407 12.0232 21.0763 12.0029C20.8118 11.9827 20.5502 12.0683 20.3489 12.2409L20.3499 12.2399Z"/></svg>