<svg xmlns="http://www.w3.org/2000/svg" width="32" height="32" viewBox="0 0 32 32"><path d="M11.2001 24.1999C11.0684 24.2001 10.938 24.1741 10.8165 24.1235C10.6949 24.0729 10.5847 23.9985 10.4921 23.9049L3.29211 16.6699C3.19464 16.5779 3.11664 16.4674 3.06274 16.3447C3.00885 16.222 2.98015 16.0898 2.97836 15.9558C2.97657 15.8218 3.00172 15.6889 3.05232 15.5648C3.10292 15.4407 3.17794 15.3281 3.27292 15.2336C3.3679 15.1391 3.4809 15.0646 3.60521 15.0146C3.72953 14.9646 3.86262 14.9402 3.99658 14.9426C4.13055 14.9451 4.26265 14.9744 4.38505 15.0289C4.50745 15.0834 4.61765 15.162 4.70911 15.2599L11.2541 21.8369L27.3501 8.04189C27.4486 7.94918 27.5649 7.87742 27.6919 7.83093C27.8189 7.78445 27.954 7.76421 28.0891 7.77145C28.2241 7.77869 28.3563 7.81325 28.4776 7.87304C28.5989 7.93283 28.7069 8.01661 28.7949 8.11931C28.8829 8.22201 28.9491 8.3415 28.9896 8.47054C29.0302 8.59958 29.0441 8.7355 29.0305 8.87007C29.017 9.00465 28.9763 9.13507 28.9109 9.25347C28.8455 9.37186 28.7568 9.47577 28.6501 9.55889L11.8501 23.9589C11.6692 24.1142 11.4385 24.1993 11.2001 24.1989V24.1999Z"/></svg>