<svg data-name="Layer 1" xmlns="http://www.w3.org/2000/svg" viewBox="0 0 32 32"><path d="M16 2.5A13.5 13.5 0 1 0 29.5 16 13.5 13.5 0 0 0 16 2.5Zm5.891 10.952a.982.982 0 0 1-.241.306l-7 6a1 1 0 0 1-1.359-.053l-3-3.015a.988.988 0 0 1-.216-.325 1 1 0 0 1-.075-.383.984.984 0 0 1 .077-.382 1.017 1.017 0 0 1 .218-.324.988.988 0 0 1 .325-.216 1 1 0 0 1 .765 0 1.017 1.017 0 0 1 .324.218l2.345 2.356 6.3-5.395a1.021 1.021 0 0 1 .34-.191.993.993 0 0 1 .763.059 1.01 1.01 0 0 1 .307.24 1 1 0 0 1 .237.727 1.006 1.006 0 0 1-.11.378Z" fill="#0f0f0f" fill-rule="evenodd"/></svg>