<svg width="32" height="32" viewBox="0 0 32 32" fill="none" xmlns="http://www.w3.org/2000/svg">
<path d="M16 29.5C23.4558 29.5 29.5 23.4558 29.5 16C29.5 8.54416 23.4558 2.5 16 2.5C8.54416 2.5 2.5 8.54416 2.5 16C2.5 23.4558 8.54416 29.5 16 29.5ZM20.3494 12.2409C20.4491 12.1555 20.5645 12.0906 20.6893 12.0498C20.814 12.009 20.9456 11.9932 21.0764 12.0033C21.2073 12.0134 21.3349 12.0491 21.4519 12.1085C21.569 12.1679 21.6732 12.2497 21.7586 12.3493C21.844 12.449 21.9089 12.5645 21.9497 12.6892C21.9905 12.814 22.0063 12.9455 21.9962 13.0764C21.9862 13.2072 21.9504 13.3348 21.8911 13.4519C21.8317 13.5689 21.7498 13.6731 21.6502 13.7585L14.6502 19.7585C14.4588 19.923 14.2121 20.0089 13.9599 19.9989C13.7077 19.989 13.4687 19.8839 13.2908 19.7048L10.2908 16.6902C10.1982 16.597 10.1249 16.4866 10.075 16.3652C10.0251 16.2437 9.99955 16.1136 9.99991 15.9823C10.0003 15.851 10.0265 15.721 10.0771 15.5999C10.1277 15.4787 10.2016 15.3687 10.2947 15.2761C10.3878 15.1835 10.4983 15.1101 10.6197 15.0602C10.7412 15.0103 10.8713 14.9848 11.0026 14.9852C11.1339 14.9855 11.2639 15.0118 11.385 15.0624C11.5062 15.1129 11.6162 15.1869 11.7088 15.28L14.0535 17.6364L20.3494 12.2409Z" fill="#0F0F0F"/>
</svg>
