<svg width="32" height="32" viewBox="0 0 32 32" fill="none" xmlns="http://www.w3.org/2000/svg">
<path d="M11.2 23.7C11.1341 23.7 11.0689 23.6869 11.0082 23.6615C10.9474 23.636 10.8923 23.5988 10.846 23.552L3.64599 16.317C3.55514 16.2224 3.50507 16.096 3.50656 15.9649C3.50806 15.8338 3.561 15.7085 3.65398 15.616C3.74696 15.5236 3.87254 15.4713 4.00366 15.4706C4.13478 15.4698 4.26095 15.5206 4.35499 15.612L11.228 22.518L27.675 8.42099C27.7758 8.3348 27.9067 8.29217 28.0389 8.30248C28.1711 8.31279 28.2938 8.37521 28.38 8.47599C28.4662 8.57677 28.5088 8.70767 28.4985 8.83988C28.4882 8.97209 28.4258 9.0948 28.325 9.18099L11.525 23.58C11.4344 23.6574 11.3192 23.7 11.2 23.7V23.7Z" fill="#0F0F0F"/>
</svg>
