<svg xmlns="http://www.w3.org/2000/svg" width="32" height="32" viewBox="0 0 32 32"><path d="M11.2 23.9501C11.1015 23.9501 11.004 23.9307 10.913 23.893C10.8221 23.8552 10.7395 23.7999 10.67 23.7301L3.46899 16.4941C3.32855 16.3531 3.24987 16.1622 3.25025 15.9632C3.25062 15.7642 3.33002 15.5735 3.47099 15.4331C3.61195 15.2927 3.80292 15.214 4.0019 15.2144C4.20088 15.2147 4.39155 15.2941 4.53199 15.4351L11.242 22.1771L27.512 8.2311C27.663 8.10155 27.8593 8.03729 28.0578 8.05248C28.2562 8.06767 28.4404 8.16106 28.57 8.3121C28.6995 8.46314 28.7638 8.65947 28.7486 8.85788C28.7334 9.05629 28.64 9.24054 28.489 9.3701L11.689 23.7701C11.5529 23.8869 11.3793 23.9507 11.2 23.9501Z"/></svg>