<svg xmlns="http://www.w3.org/2000/svg" width="32" height="32" viewBox="0 0 32 32"><path d="M11.4287 5.75738C11.5708 5.52059 11.494 5.21346 11.2572 5.07139C11.0205 4.92932 10.7133 5.0061 10.5713 5.24289L7.90073 9.69376L6.35355 8.14658C6.15829 7.95132 5.84171 7.95132 5.64645 8.14658C5.45118 8.34185 5.45118 8.65843 5.64645 8.85369L7.64645 10.8537C7.75532 10.9626 7.90828 11.0152 8.06109 10.9964C8.21391 10.9776 8.34953 10.8894 8.42875 10.7574L11.4287 5.75738ZM11.4287 13.7574C11.5708 13.5206 11.494 13.2135 11.2572 13.0714C11.0205 12.9293 10.7133 13.0061 10.5713 13.2429L7.90073 17.6938L6.35355 16.1466C6.15829 15.9513 5.84171 15.9513 5.64645 16.1466C5.45118 16.3418 5.45118 16.6584 5.64645 16.8537L7.64645 18.8537C7.75532 18.9626 7.90828 19.0152 8.06109 18.9964C8.21391 18.9776 8.34953 18.8894 8.42875 18.7574L11.4287 13.7574ZM11.2572 21.0714C11.494 21.2135 11.5708 21.5206 11.4287 21.7574L8.42875 26.7574C8.34953 26.8894 8.21391 26.9776 8.06109 26.9964C7.90828 27.0152 7.75532 26.9626 7.64645 26.8537L5.64645 24.8537C5.45118 24.6584 5.45118 24.3418 5.64645 24.1466C5.84171 23.9513 6.15829 23.9513 6.35355 24.1466L7.90073 25.6938L10.5713 21.2429C10.7133 21.0061 11.0205 20.9293 11.2572 21.0714ZM15 8.00014C14.7239 8.00014 14.5 8.22399 14.5 8.50014C14.5 8.77628 14.7239 9.00014 15 9.00014H26C26.2761 9.00014 26.5 8.77628 26.5 8.50014C26.5 8.22399 26.2761 8.00014 26 8.00014H15ZM14.5 16.5001C14.5 16.224 14.7239 16.0001 15 16.0001H26C26.2761 16.0001 26.5 16.224 26.5 16.5001C26.5 16.7763 26.2761 17.0001 26 17.0001H15C14.7239 17.0001 14.5 16.7763 14.5 16.5001ZM15 24.0001H26C26.2761 24.0001 26.5 24.224 26.5 24.5001C26.5 24.7763 26.2761 25.0001 26 25.0001H15C14.7239 25.0001 14.5 24.7763 14.5 24.5001C14.5 24.224 14.7239 24.0001 15 24.0001Z"/></svg>