<svg width="32" height="32" viewBox="0 0 32 32" fill="none" xmlns="http://www.w3.org/2000/svg">
<path d="M23.5 18C27.6421 18 31 14.6421 31 10.5C31 6.35786 27.6421 3 23.5 3C19.3579 3 16 6.35787 16 10.5C16 14.6421 19.3579 18 23.5 18Z" fill="url(#paint0_linear_49584_209)"/>
<path fill-rule="evenodd" clip-rule="evenodd" d="M16 23.585C20.1882 23.585 23.5833 20.1908 23.5833 16.0038C23.5833 11.8169 20.1882 8.42268 16 8.42268C11.8118 8.42268 8.41667 11.8169 8.41667 16.0038C8.41667 20.1908 11.8118 23.585 16 23.585ZM29 16.0038C29 23.1815 23.1797 29.0001 16 29.0001C8.8203 29.0001 3 23.1815 3 16.0038C3 8.82619 8.8203 3.00757 16 3.00757C23.1797 3.00757 29 8.82619 29 16.0038Z" fill="url(#paint1_linear_49584_209)"/>
<path fill-rule="evenodd" clip-rule="evenodd" d="M29 15.6129C27.6309 17.0816 25.6792 18 23.5129 18C23.4503 18 23.3879 17.9992 23.3257 17.9977C23.4984 17.3624 23.5906 16.6939 23.5906 16.0038C23.5906 11.9151 20.3538 8.58238 16.3027 8.42824C16.8984 6.35141 18.3671 4.64368 20.2862 3.72766C25.246 5.45535 28.8373 10.1038 29 15.6129Z" fill="url(#paint2_linear_49584_209)"/>
<path d="M23.5 18C27.6421 18 31 14.6421 31 10.5C31 6.35786 27.6421 3 23.5 3C19.3579 3 16 6.35787 16 10.5C16 14.6421 19.3579 18 23.5 18Z" fill="url(#paint3_radial_49584_209)"/>
<defs>
<linearGradient id="paint0_linear_49584_209" x1="16.1487" y1="3.14873" x2="28.4303" y2="15.4302" gradientUnits="userSpaceOnUse">
<stop stop-color="#767676"/>
<stop offset="1" stop-color="#DADADA"/>
</linearGradient>
<linearGradient id="paint1_linear_49584_209" x1="2.99946" y1="29.0001" x2="28.9845" y2="3.00009" gradientUnits="userSpaceOnUse">
<stop stop-color="#BBBBBB"/>
<stop offset="1" stop-color="#616161"/>
</linearGradient>
<linearGradient id="paint2_linear_49584_209" x1="20.6785" y1="8.23447" x2="27.6314" y2="16.2762" gradientUnits="userSpaceOnUse">
<stop stop-color="#9D9D9D" stop-opacity="0"/>
<stop offset="1" stop-color="#9D9D9D"/>
</linearGradient>
<radialGradient id="paint3_radial_49584_209" cx="0" cy="0" r="1" gradientUnits="userSpaceOnUse" gradientTransform="translate(31.0001 18) rotate(-135) scale(21.2132 21.2042)">
<stop stop-color="#8E8E8E" stop-opacity="0"/>
<stop offset="0.66696" stop-color="#8E8E8E" stop-opacity="0"/>
<stop offset="1" stop-color="white"/>
</radialGradient>
</defs>
</svg>
