<svg width="32" height="32" viewBox="0 0 32 32" fill="none" xmlns="http://www.w3.org/2000/svg">
<path d="M16 2C13.2311 2 10.5243 2.82109 8.22202 4.35943C5.91973 5.89777 4.12532 8.08427 3.06569 10.6424C2.00607 13.2006 1.72882 16.0155 2.26901 18.7313C2.80921 21.447 4.14258 23.9416 6.10051 25.8995C8.05845 27.8574 10.553 29.1908 13.2687 29.731C15.9845 30.2712 18.7994 29.9939 21.3576 28.9343C23.9157 27.8747 26.1022 26.0803 27.6406 23.778C29.1789 21.4757 30 18.7689 30 16C29.9958 12.2883 28.5194 8.72977 25.8948 6.10518C23.2702 3.48059 19.7117 2.00423 16 2V2ZM16 28C13.6266 28 11.3066 27.2962 9.33316 25.9776C7.35977 24.6591 5.8217 22.7849 4.91345 20.5922C4.0052 18.3995 3.76756 15.9867 4.23058 13.6589C4.69361 11.3311 5.83649 9.19295 7.51472 7.51472C9.19295 5.83649 11.3312 4.6936 13.6589 4.23058C15.9867 3.76755 18.3995 4.00519 20.5922 4.91345C22.7849 5.8217 24.6591 7.35977 25.9776 9.33316C27.2962 11.3065 28 13.6266 28 16C27.9966 19.1815 26.7312 22.2318 24.4815 24.4815C22.2318 26.7312 19.1815 27.9966 16 28V28Z" fill="#0F0F0F"/>
<path d="M20.707 11.293C20.5195 11.1055 20.2652 11.0002 20 11.0002C19.7348 11.0002 19.4805 11.1055 19.293 11.293L16 14.586L12.707 11.293C12.5195 11.1055 12.2652 11.0002 12 11.0002C11.7348 11.0002 11.4805 11.1055 11.293 11.293C11.1055 11.4805 11.0002 11.7348 11.0002 12C11.0002 12.2652 11.1055 12.5195 11.293 12.707L14.586 16L11.293 19.293C11.1108 19.4816 11.01 19.7342 11.0123 19.9964C11.0146 20.2586 11.1198 20.5094 11.3052 20.6948C11.4906 20.8802 11.7414 20.9854 12.0036 20.9877C12.2658 20.99 12.5184 20.8892 12.707 20.707L16 17.414L19.293 20.707C19.4816 20.8892 19.7342 20.99 19.9964 20.9877C20.2586 20.9854 20.5094 20.8802 20.6948 20.6948C20.8802 20.5094 20.9854 20.2586 20.9877 19.9964C20.99 19.7342 20.8892 19.4816 20.707 19.293L17.414 16L20.707 12.707C20.8001 12.6143 20.8739 12.5041 20.9243 12.3828C20.9747 12.2615 21.0006 12.1314 21.0006 12C21.0006 11.8686 20.9747 11.7386 20.9243 11.6172C20.8739 11.4959 20.8001 11.3857 20.707 11.293V11.293Z" fill="#0F0F0F"/>
</svg>
