<svg xmlns="http://www.w3.org/2000/svg" width="32" height="32" viewBox="0 0 32 32"><path d="M16 2.5C13.33 2.5 10.7199 3.29176 8.49981 4.77516C6.27974 6.25856 4.54942 8.36697 3.52763 10.8338C2.50585 13.3006 2.2385 16.015 2.7594 18.6337C3.28031 21.2525 4.56606 23.6579 6.45406 25.5459C8.34207 27.434 10.7475 28.7197 13.3663 29.2406C15.985 29.7615 18.6994 29.4942 21.1662 28.4724C23.633 27.4506 25.7414 25.7203 27.2248 23.5002C28.7082 21.2801 29.5 18.67 29.5 16C29.496 12.4208 28.0724 8.98932 25.5416 6.45844C23.0107 3.92756 19.5792 2.50397 16 2.5ZM16 28.5C13.5277 28.5 11.111 27.7669 9.05538 26.3934C6.99976 25.0199 5.39761 23.0676 4.45151 20.7835C3.50542 18.4995 3.25787 15.9861 3.74019 13.5614C4.22251 11.1366 5.41302 8.90932 7.16117 7.16117C8.90933 5.41301 11.1366 4.2225 13.5614 3.74018C15.9861 3.25787 18.4995 3.50541 20.7835 4.45151C23.0676 5.3976 25.0199 6.99976 26.3934 9.05537C27.7669 11.111 28.5 13.5277 28.5 16C28.4963 19.3141 27.1781 22.4913 24.8347 24.8347C22.4913 27.1781 19.3141 28.4963 16 28.5Z M20.354 11.646C20.3077 11.5994 20.2527 11.5623 20.192 11.5371C20.1313 11.5118 20.0663 11.4988 20.0005 11.4988C19.9348 11.4988 19.8697 11.5118 19.8091 11.5371C19.7484 11.5623 19.6933 11.5994 19.647 11.646L16 15.293L12.354 11.646C12.2603 11.5523 12.1331 11.4996 12.0005 11.4996C11.8679 11.4996 11.7408 11.5523 11.647 11.646C11.5533 11.7398 11.5006 11.8669 11.5006 11.9995C11.5006 12.1321 11.5533 12.2593 11.647 12.353L15.293 16L11.647 19.646C11.5993 19.6921 11.5612 19.7473 11.535 19.8083C11.5088 19.8693 11.495 19.9349 11.4944 20.0013C11.4938 20.0677 11.5065 20.1335 11.5316 20.195C11.5568 20.2564 11.5939 20.3123 11.6408 20.3592C11.6878 20.4062 11.7436 20.4433 11.8051 20.4684C11.8665 20.4936 11.9323 20.5062 11.9987 20.5056C12.0651 20.5051 12.1307 20.4913 12.1917 20.4651C12.2527 20.4389 12.3079 20.4008 12.354 20.353L16 16.707L19.647 20.353C19.7413 20.4441 19.8676 20.4945 19.9987 20.4933C20.1298 20.4922 20.2552 20.4396 20.3479 20.3469C20.4406 20.2542 20.4932 20.1288 20.4944 19.9977C20.4955 19.8666 20.4451 19.7403 20.354 19.646L16.707 16L20.354 12.353C20.4478 12.2592 20.5004 12.1321 20.5004 11.9995C20.5004 11.8669 20.4478 11.7398 20.354 11.646Z"/></svg>