<svg width="32" height="32" viewBox="0 0 32 32" fill="none" xmlns="http://www.w3.org/2000/svg">
<path d="M16 2.5C13.33 2.5 10.7199 3.29176 8.49981 4.77516C6.27974 6.25856 4.54942 8.36697 3.52763 10.8338C2.50585 13.3006 2.2385 16.015 2.7594 18.6337C3.28031 21.2525 4.56606 23.6579 6.45406 25.5459C8.34207 27.434 10.7475 28.7197 13.3663 29.2406C15.985 29.7615 18.6994 29.4942 21.1662 28.4724C23.633 27.4506 25.7414 25.7203 27.2248 23.5002C28.7082 21.2801 29.5 18.67 29.5 16C29.4961 12.4208 28.0725 8.98925 25.5416 6.45836C23.0107 3.92746 19.5792 2.50389 16 2.5ZM20.707 19.2929C20.8018 19.3853 20.8773 19.4956 20.9291 19.6175C20.9809 19.7393 21.0081 19.8702 21.0089 20.0026C21.0097 20.135 20.9843 20.2662 20.934 20.3887C20.8837 20.5111 20.8096 20.6224 20.716 20.716C20.6224 20.8096 20.5111 20.8837 20.3887 20.934C20.2662 20.9843 20.135 21.0097 20.0026 21.0089C19.8702 21.0081 19.7393 20.9809 19.6175 20.9291C19.4956 20.8773 19.3853 20.8018 19.2929 20.707L16 17.4142L12.707 20.7072C12.5187 20.8908 12.2656 20.9928 12.0026 20.9912C11.7396 20.9895 11.4878 20.8843 11.3018 20.6983C11.1158 20.5123 11.0106 20.2605 11.0089 19.9975C11.0073 19.7345 11.1093 19.4814 11.2929 19.2931L14.5857 16L11.2927 12.707C11.1091 12.5187 11.0071 12.2656 11.0087 12.0026C11.0104 11.7396 11.1156 11.4878 11.3016 11.3018C11.4876 11.1158 11.7394 11.0106 12.0024 11.0089C12.2654 11.0073 12.5185 11.1093 12.7068 11.2929L16 14.5861L19.2929 11.2931C19.4812 11.1095 19.7343 11.0075 19.9973 11.0091C20.2603 11.0108 20.5121 11.116 20.6981 11.302C20.8841 11.488 20.9893 11.7398 20.991 12.0028C20.9926 12.2658 20.8906 12.5189 20.707 12.7072L17.4138 16L20.707 19.2929Z" fill="black"/>
</svg>
