<svg width="32" height="32" viewBox="0 0 32 32" fill="none" xmlns="http://www.w3.org/2000/svg">
<path d="M16.0003 2.49969C13.3302 2.49969 10.7201 3.29145 8.50007 4.77485C6.28 6.25825 4.54967 8.36666 3.52789 10.8335C2.50611 13.3003 2.23876 16.0147 2.75966 18.6334C3.28056 21.2522 4.56632 23.6576 6.45432 25.5456C8.34233 27.4336 10.7478 28.7194 13.3665 29.2403C15.9853 29.7612 18.6997 29.4938 21.1665 28.4721C23.6333 27.4503 25.7417 25.72 27.2251 23.4999C28.7085 21.2798 29.5003 18.6697 29.5003 15.9997C29.4964 12.4205 28.0728 8.98896 25.5419 6.45807C23.011 3.92717 19.5795 2.5036 16.0003 2.49969ZM16.0003 28.4997C13.528 28.4997 11.1113 27.7666 9.05564 26.3931C7.00002 25.0195 5.39787 23.0673 4.45177 20.7832C3.50568 18.4992 3.25813 15.9858 3.74045 13.5611C4.22276 11.1363 5.41327 8.90901 7.16143 7.16086C8.90959 5.4127 11.1369 4.22219 13.5616 3.73987C15.9864 3.25756 18.4997 3.5051 20.7838 4.4512C23.0679 5.39729 25.0201 6.99945 26.3936 9.05506C27.7672 11.1107 28.5003 13.5274 28.5003 15.9997C28.4965 19.3138 27.1784 22.491 24.835 24.8344C22.4916 27.1778 19.3143 28.496 16.0003 28.4997Z" fill="black"/>
<path d="M20.3538 11.6462C20.3074 11.5997 20.2523 11.5629 20.1916 11.5378C20.131 11.5126 20.0659 11.4997 20.0003 11.4997C19.9346 11.4997 19.8696 11.5126 19.809 11.5378C19.7483 11.5629 19.6932 11.5997 19.6468 11.6462L16.0003 15.2927L12.3538 11.6462C12.3076 11.599 12.2524 11.5614 12.1916 11.5357C12.1307 11.5099 12.0653 11.4965 11.9993 11.4962C11.9332 11.4958 11.8677 11.5086 11.8066 11.5337C11.7455 11.5589 11.69 11.5959 11.6432 11.6426C11.5965 11.6893 11.5595 11.7448 11.5344 11.806C11.5092 11.8671 11.4965 11.9326 11.4968 11.9986C11.4971 12.0647 11.5106 12.1301 11.5363 12.1909C11.5621 12.2518 11.5996 12.3069 11.6468 12.3532L15.2933 15.9997L11.6468 19.6462C11.5996 19.6924 11.5621 19.7476 11.5363 19.8084C11.5106 19.8693 11.4971 19.9346 11.4968 20.0007C11.4965 20.0668 11.5092 20.1323 11.5344 20.1934C11.5595 20.2545 11.5965 20.31 11.6432 20.3567C11.69 20.4035 11.7455 20.4405 11.8066 20.4656C11.8677 20.4907 11.9332 20.5035 11.9993 20.5032C12.0653 20.5028 12.1307 20.4894 12.1916 20.4637C12.2524 20.4379 12.3076 20.4003 12.3538 20.3531L16.0003 16.7067L19.6468 20.3531C19.7409 20.4453 19.8675 20.4967 19.9992 20.496C20.131 20.4954 20.2571 20.4427 20.3502 20.3496C20.4434 20.2565 20.496 20.1303 20.4967 19.9986C20.4973 19.8669 20.446 19.7402 20.3538 19.6462L16.7073 15.9997L20.3538 12.3532C20.4002 12.3068 20.4371 12.2517 20.4622 12.191C20.4873 12.1303 20.5003 12.0653 20.5003 11.9997C20.5003 11.934 20.4873 11.869 20.4622 11.8084C20.4371 11.7477 20.4002 11.6926 20.3538 11.6462Z" fill="black"/>
</svg>
