<svg width="32" height="32" viewBox="0 0 32 32" fill="none" xmlns="http://www.w3.org/2000/svg">
<path d="M19.5299 22.4699C19.3893 22.3295 19.1987 22.2506 18.9999 22.2506C18.8012 22.2506 18.6105 22.3295 18.4699 22.4699L15.9999 24.9399L13.5299 22.4699C13.4078 22.3441 13.2455 22.265 13.0712 22.2462C12.8969 22.2275 12.7215 22.2704 12.5755 22.3674C12.4294 22.4644 12.3219 22.6094 12.2716 22.7774C12.2213 22.9453 12.2313 23.1256 12.2999 23.2869C12.3398 23.3784 12.3976 23.461 12.4699 23.5299L14.9399 25.9999L12.4699 28.4699C12.3962 28.5386 12.3371 28.6214 12.2961 28.7134C12.2551 28.8054 12.2331 28.9047 12.2313 29.0054C12.2295 29.1061 12.2481 29.2061 12.2858 29.2995C12.3235 29.3929 12.3797 29.4777 12.4509 29.549C12.5221 29.6202 12.6069 29.6763 12.7003 29.714C12.7937 29.7518 12.8937 29.7703 12.9944 29.7685C13.0951 29.7667 13.1944 29.7447 13.2864 29.7037C13.3784 29.6627 13.4612 29.6036 13.5299 29.5299L15.9999 27.0599L18.4699 29.5299C18.6121 29.6624 18.8001 29.7345 18.9944 29.7311C19.1887 29.7277 19.3741 29.649 19.5115 29.5115C19.6489 29.3741 19.7277 29.1887 19.7311 28.9944C19.7345 28.8001 19.6624 28.6121 19.5299 28.4699L17.0599 25.9999L19.5299 23.5299C19.6704 23.3893 19.7492 23.1987 19.7492 22.9999C19.7492 22.8012 19.6704 22.6105 19.5299 22.4699Z" fill="#0F0F0F"/>
<path d="M25 5.25H7C5.74063 5.25132 4.53322 5.75219 3.6427 6.6427C2.75219 7.53322 2.25132 8.74063 2.25 10V22C2.25132 23.2594 2.75219 24.4668 3.6427 25.3573C4.53322 26.2478 5.74063 26.7487 7 26.75H9C9.19891 26.75 9.38968 26.671 9.53033 26.5303C9.67098 26.3897 9.75 26.1989 9.75 26C9.75 25.8011 9.67098 25.6103 9.53033 25.4697C9.38968 25.329 9.19891 25.25 9 25.25H7C6.13837 25.2489 5.31234 24.9062 4.70307 24.2969C4.09381 23.6877 3.75106 22.8616 3.75 22V10C3.75106 9.13837 4.09381 8.31234 4.70307 7.70307C5.31234 7.09381 6.13837 6.75106 7 6.75H25C25.8616 6.75106 26.6877 7.09381 27.2969 7.70307C27.9062 8.31234 28.2489 9.13837 28.25 10V22C28.2489 22.8616 27.9062 23.6877 27.2969 24.2969C26.6877 24.9062 25.8616 25.2489 25 25.25H23C22.8011 25.25 22.6103 25.329 22.4697 25.4697C22.329 25.6103 22.25 25.8011 22.25 26C22.25 26.1989 22.329 26.3897 22.4697 26.5303C22.6103 26.671 22.8011 26.75 23 26.75H25C26.2594 26.7487 27.4668 26.2478 28.3573 25.3573C29.2478 24.4668 29.7487 23.2594 29.75 22V10C29.7487 8.74063 29.2478 7.53322 28.3573 6.6427C27.4668 5.75219 26.2594 5.25132 25 5.25Z" fill="#0F0F0F"/>
</svg>
