<svg xmlns="http://www.w3.org/2000/svg" id="Layer_1" data-name="Layer 1" viewBox="0 0 32 32"><defs><style>.cls-1{fill:#0f0f0f;fill-rule:evenodd;}</style></defs><path d="M28.534,7.467A5.01,5.01,0,0,0,25,6H7a5.005,5.005,0,0,0-5,5V21a5.017,5.017,0,0,0,1.938,3.941,3.248,3.248,0,0,1-1,.892,1.543,1.543,0,0,0-.933,1.4A1.557,1.557,0,0,0,3.03,28.6a5.089,5.089,0,0,0,2.123.4,8.056,8.056,0,0,0,4.805-1.629c.233-.166.5-.4.773-.636A6.26,6.26,0,0,1,11.675,26H25a5.005,5.005,0,0,0,5-5V11A5.01,5.01,0,0,0,28.534,7.467ZM15.33,18.048a3.05,3.05,0,0,1-.789.973,3.577,3.577,0,0,1-2.19.621,3.1,3.1,0,0,1-2.51-1.07,4.066,4.066,0,0,1-.84-2.7,3.772,3.772,0,0,1,1.05-2.9,3.349,3.349,0,0,1,2.38-.83,3.326,3.326,0,0,1,2.23.73,2.845,2.845,0,0,1,.95,1.77h-1.68a1.442,1.442,0,0,0-1.5-1.33,1.4,1.4,0,0,0-1.27.69,3.517,3.517,0,0,0-.41,1.87,3.285,3.285,0,0,0,.54,2.09,1.374,1.374,0,0,0,.487.377h0a1.334,1.334,0,0,0,.6.123q1.459,0,1.57-1.62h1.71A3.063,3.063,0,0,1,15.33,18.048Zm7.4,0a3.05,3.05,0,0,1-.789.973,3.571,3.571,0,0,1-2.19.621,3.1,3.1,0,0,1-2.51-1.07,4.065,4.065,0,0,1-.84-2.7,3.782,3.782,0,0,1,1.05-2.9,3.349,3.349,0,0,1,2.38-.83,3.329,3.329,0,0,1,2.23.73,2.847,2.847,0,0,1,.95,1.77h-1.68a1.442,1.442,0,0,0-1.5-1.33,1.4,1.4,0,0,0-1.27.69,3.517,3.517,0,0,0-.41,1.87,3.293,3.293,0,0,0,.54,2.09,1.356,1.356,0,0,0,.486.376,1.341,1.341,0,0,0,.6.123q1.458,0,1.57-1.62h1.71A3.063,3.063,0,0,1,22.725,18.048Z"/></svg>