<svg xmlns="http://www.w3.org/2000/svg" width="32" height="32" viewBox="0 0 32 32"><path d="M20.5371 20.4619L16.5291 16.4669C16.3884 16.3266 16.1977 16.2479 15.9989 16.248C15.8002 16.2482 15.6096 16.3273 15.4691 16.4679L11.4781 20.4549C11.3457 20.5971 11.2735 20.7851 11.277 20.9794C11.2804 21.1737 11.3591 21.3591 11.4965 21.4965C11.6339 21.6339 11.8193 21.7126 12.0136 21.7161C12.2079 21.7195 12.396 21.6474 12.5381 21.5149L15.2501 18.8069V25.0189C15.2501 25.2178 15.3292 25.4086 15.4698 25.5492C15.6105 25.6899 15.8012 25.7689 16.0001 25.7689C16.1991 25.7689 16.3898 25.6899 16.5305 25.5492C16.6711 25.4086 16.7501 25.2178 16.7501 25.0189V18.8059L19.4791 21.5249C19.5485 21.5963 19.6314 21.6533 19.723 21.6923C19.8146 21.7314 19.913 21.7519 20.0126 21.7525C20.1122 21.7531 20.2109 21.7339 20.303 21.696C20.395 21.658 20.4786 21.6022 20.5489 21.5316C20.6191 21.461 20.6746 21.3771 20.7121 21.2849C20.7496 21.1926 20.7683 21.0938 20.7673 20.9943C20.7662 20.8947 20.7453 20.7963 20.7057 20.7049C20.6662 20.6135 20.6089 20.5309 20.5371 20.4619Z M24.0081 11.433C23.2897 9.90797 22.1591 8.61435 20.7439 7.6984C19.3287 6.78246 17.6855 6.28075 16.0001 6.25C13.7521 6.26631 11.5928 7.12913 9.95258 8.66647C8.31238 10.2038 7.31172 12.3028 7.15005 14.545C6.37954 14.646 5.63823 14.9052 4.97268 15.3064C4.30713 15.7075 3.73171 16.2419 3.28255 16.8761C2.8334 17.5102 2.52022 18.2304 2.36267 18.9914C2.20512 19.7523 2.20661 20.5376 2.36705 21.298C2.65473 22.5747 3.37247 23.7138 4.40001 24.5243C5.42755 25.3348 6.70244 25.7676 8.01105 25.75H11.0001C11.199 25.75 11.3897 25.671 11.5304 25.5303C11.671 25.3897 11.7501 25.1989 11.7501 25C11.7501 24.8011 11.671 24.6103 11.5304 24.4697C11.3897 24.329 11.199 24.25 11.0001 24.25H8.01005C7.04675 24.2683 6.1064 23.9551 5.34639 23.363C4.58637 22.7708 4.05283 21.9355 3.83505 20.997C3.70752 20.3917 3.71666 19.7655 3.86181 19.1642C4.00695 18.5629 4.28444 18.0015 4.67405 17.521C5.06005 17.0453 5.54738 16.6619 6.10048 16.3986C6.65357 16.1352 7.25848 15.9987 7.87105 15.999H8.62105V15.249C8.63129 13.284 9.40827 11.4005 10.7865 9.99987C12.1648 8.5992 14.0354 7.79193 16.0001 7.75C17.461 7.78136 18.8812 8.237 20.0877 9.0614C21.2943 9.8858 22.2349 11.0434 22.7951 12.393L22.9571 12.779L23.3711 12.842C24.833 13.0648 26.1525 13.8433 27.0546 15.0151C27.9566 16.1869 28.3716 17.6617 28.2131 19.132C28.0025 20.5732 27.2737 21.8883 26.1631 22.8306C25.0525 23.773 23.6363 24.278 22.1801 24.251H21.0001C20.8011 24.251 20.6104 24.33 20.4697 24.4707C20.3291 24.6113 20.2501 24.8021 20.2501 25.001C20.2501 25.1999 20.3291 25.3907 20.4697 25.5313C20.6104 25.672 20.8011 25.751 21.0001 25.751H22.1801C24.0059 25.7747 25.7776 25.1314 27.163 23.9419C28.5484 22.7524 29.4522 21.0984 29.7051 19.29C29.897 17.5075 29.4206 15.7172 28.3681 14.2658C27.3156 12.8145 25.762 11.8054 24.0081 11.434V11.433Z"/></svg>