<svg xmlns="http://www.w3.org/2000/svg" width="32" height="32" viewBox="0 0 32 32"><path d="M20.0078 21.994C20.2057 21.9939 20.3991 21.9352 20.5636 21.8252C20.728 21.7152 20.8562 21.5588 20.9318 21.376C21.0074 21.1931 21.027 20.9919 20.9882 20.7979C20.9494 20.6039 20.8539 20.4257 20.7138 20.286L16.7058 16.291C16.5181 16.1043 16.2641 15.9995 15.9993 15.9995C15.7346 15.9995 15.4806 16.1043 15.2928 16.291L11.3008 20.277C11.1995 20.3678 11.1177 20.4784 11.0605 20.6019C11.0033 20.7254 10.9719 20.8593 10.9682 20.9954C10.9644 21.1314 10.9884 21.2668 11.0387 21.3933C11.089 21.5198 11.1646 21.6347 11.2608 21.731C11.3569 21.8273 11.4717 21.903 11.5981 21.9535C11.7245 22.004 11.8599 22.0282 11.996 22.0246C12.132 22.0211 12.2659 21.9898 12.3895 21.9328C12.5131 21.8758 12.6238 21.7942 12.7148 21.693L14.9998 19.41V25.02C14.9998 25.2852 15.1052 25.5395 15.2927 25.7271C15.4803 25.9146 15.7346 26.02 15.9998 26.02C16.265 26.02 16.5194 25.9146 16.7069 25.7271C16.8945 25.5395 16.9998 25.2852 16.9998 25.02V19.407L19.3018 21.702C19.3945 21.7947 19.5046 21.8682 19.6257 21.9183C19.7469 21.9684 19.8767 21.9941 20.0078 21.994Z M24.1801 11.215C23.4302 9.6759 22.2692 8.37419 20.8256 7.45382C19.3819 6.53345 17.7119 6.0303 16.0001 6C13.7235 6.016 11.5339 6.87666 9.85574 8.41514C8.17758 9.95362 7.13037 12.0604 6.91708 14.327C6.13349 14.4573 5.38436 14.7448 4.71482 15.1722C4.04528 15.5997 3.46916 16.1582 3.02117 16.8142C2.57318 17.4701 2.26257 18.21 2.10805 18.9892C1.95354 19.7683 1.95831 20.5707 2.12208 21.348C2.42129 22.6812 3.16972 23.871 4.2419 24.718C5.31409 25.5649 6.64484 26.0176 8.01108 26H11.0001C11.2653 26 11.5197 25.8946 11.7072 25.7071C11.8947 25.5196 12.0001 25.2652 12.0001 25C12.0001 24.7348 11.8947 24.4804 11.7072 24.2929C11.5197 24.1054 11.2653 24 11.0001 24H8.01008C7.1044 24.0189 6.21974 23.726 5.50427 23.1704C4.78881 22.6148 4.286 21.8302 4.08008 20.948C3.95901 20.3823 3.96582 19.7967 4.1 19.2339C4.23418 18.6712 4.49234 18.1455 4.85564 17.6953C5.21895 17.2451 5.67821 16.8817 6.19991 16.6316C6.7216 16.3816 7.29256 16.2512 7.87108 16.25H8.87108V15.25C8.88002 13.3508 9.63022 11.5301 10.9618 10.1759C12.2935 8.82164 14.1013 8.0409 16.0001 8C17.4117 8.031 18.7838 8.47187 19.9493 9.26891C21.1147 10.066 22.0232 11.1848 22.5641 12.489L22.7811 13.003L23.3331 13.088C24.7314 13.3011 25.9935 14.0457 26.8564 15.1664C27.7193 16.2872 28.1165 17.6977 27.9651 19.104C27.7615 20.4842 27.0617 21.7427 25.9968 22.644C24.9319 23.5452 23.5749 24.0273 22.1801 24H21.0001C20.7349 24 20.4805 24.1054 20.293 24.2929C20.1054 24.4804 20.0001 24.7348 20.0001 25C20.0001 25.2652 20.1054 25.5196 20.293 25.7071C20.4805 25.8946 20.7349 26 21.0001 26H22.1801C24.0674 26.0235 25.8985 25.3575 27.3296 24.1268C28.7608 22.8962 29.6936 21.1856 29.9531 19.316C30.1496 17.4932 29.6705 15.6616 28.6064 14.1686C27.5423 12.6756 25.9673 11.625 24.1801 11.216V11.215Z"/></svg>