<svg width="32" height="32" viewBox="0 0 32 32" fill="none" xmlns="http://www.w3.org/2000/svg">
<path d="M24.0079 11.4331C23.2897 9.90805 22.159 8.61435 20.7439 7.69831C19.3288 6.78227 17.6856 6.28043 16.0001 6.24954C13.7519 6.26587 11.5924 7.12879 9.95213 8.66631C8.31181 10.2038 7.31112 12.303 7.14952 14.5454C6.3791 14.6465 5.6379 14.9058 4.97245 15.307C4.30701 15.7082 3.7317 16.2427 3.28263 16.8768C2.83356 17.5109 2.52044 18.231 2.36292 18.9919C2.20541 19.7528 2.2069 20.5381 2.3673 21.2984C2.65508 22.5749 3.37282 23.7137 4.40026 24.5241C5.42769 25.3344 6.70241 25.7671 8.01085 25.7495H22.1798C24.0058 25.7734 25.7776 25.1303 27.1631 23.9408C28.5486 22.7512 29.4525 21.0971 29.7052 19.2886C29.8971 17.5061 29.4206 15.7159 28.3681 14.2646C27.3155 12.8134 25.7618 11.8044 24.0079 11.4331ZM28.213 19.1304C28.0024 20.5717 27.2735 21.8867 26.1629 22.829C25.0523 23.7714 23.6361 24.2765 22.1798 24.2495H8.01085C7.04772 24.2678 6.10754 23.9548 5.3476 23.3628C4.58766 22.7708 4.05405 21.9358 3.83605 20.9975C3.70846 20.3921 3.71756 19.7659 3.86268 19.1645C4.0078 18.5631 4.28528 18.0016 4.67491 17.521C5.06103 17.0454 5.54843 16.6621 6.10156 16.3989C6.6547 16.1356 7.25961 15.9992 7.87218 15.9995H8.62218V15.2495C8.63203 13.2844 9.40871 11.4009 10.7868 9.99998C12.1649 8.5991 14.0355 7.79161 16.0001 7.74952C17.461 7.78082 18.8812 8.2364 20.0877 9.06072C21.2942 9.88505 22.2348 11.0425 22.795 12.3921L22.9571 12.7779L23.3712 12.8413C24.8329 13.0643 26.1522 13.8426 27.0542 15.0142C27.9562 16.1858 28.3713 17.6603 28.213 19.1304Z" fill="black"/>
</svg>
