<svg xmlns="http://www.w3.org/2000/svg" width="32" height="32" viewBox="0 0 32 32"><path d="M23 4H9C7.6744 4.00159 6.40356 4.52888 5.46622 5.46622C4.52888 6.40356 4.00159 7.6744 4 9V23C4.00159 24.3256 4.52888 25.5964 5.46622 26.5338C6.40356 27.4711 7.6744 27.9984 9 28H23C24.3256 27.9984 25.5964 27.4711 26.5338 26.5338C27.4711 25.5964 27.9984 24.3256 28 23V9C27.9984 7.6744 27.4711 6.40356 26.5338 5.46622C25.5964 4.52888 24.3256 4.00159 23 4ZM26 23C25.9989 23.7953 25.6825 24.5578 25.1202 25.1202C24.5578 25.6825 23.7953 25.9989 23 26H9C8.20459 25.9992 7.44199 25.6829 6.87956 25.1204C6.31712 24.558 6.00079 23.7954 6 23V9C6.00079 8.20459 6.31712 7.44199 6.87956 6.87956C7.44199 6.31712 8.20459 6.00079 9 6H23C23.7954 6.00079 24.558 6.31712 25.1204 6.87956C25.6829 7.44199 25.9992 8.20459 26 9V23Z M20.7921 13.202C20.3964 12.2564 19.7309 11.4484 18.8786 10.8789C18.0263 10.3094 17.0251 10.0037 16.0001 10C13.3681 10 11.2531 12 10.7301 14.861C9.82362 15.0932 9.04176 15.6664 8.5475 16.461C8.05324 17.2555 7.88473 18.2102 8.0771 19.126C8.25967 19.948 8.71933 20.6822 9.37898 21.2054C10.0386 21.7287 10.8582 22.0092 11.7001 22H19.3301C20.4603 22.0116 21.5558 21.6103 22.411 20.8714C23.2663 20.1325 23.8224 19.1069 23.9751 17.987C24.0874 16.9433 23.8306 15.8932 23.2493 15.0191C22.6681 14.145 21.799 13.5021 20.7931 13.202H20.7921ZM21.9851 17.776C21.8885 18.4061 21.5657 18.9794 21.0771 19.3888C20.5884 19.7981 19.9674 20.0154 19.3301 20H11.7001C11.3188 20.0099 10.9457 19.8888 10.643 19.6567C10.3404 19.4246 10.1265 19.0958 10.0371 18.725C9.98526 18.4874 9.98732 18.2412 10.0431 18.0045C10.0989 17.7677 10.2071 17.5465 10.3596 17.3571C10.5121 17.1676 10.7051 17.0148 10.9244 16.9097C11.1438 16.8047 11.3839 16.7501 11.6271 16.75H12.5571L12.6231 15.822C12.7851 13.572 14.1741 12 16.0001 12C16.6963 11.9963 17.3744 12.2222 17.9293 12.6427C18.4843 13.0631 18.8852 13.6547 19.0701 14.326L19.2451 14.944L19.8801 15.042C20.5155 15.139 21.089 15.4774 21.4811 15.9867C21.8732 16.496 22.0537 17.1369 21.9851 17.776Z"/></svg>