<svg id="Layer_1" data-name="Layer 1" xmlns="http://www.w3.org/2000/svg" viewBox="0 0 32 32"><defs><style>.cls-1{fill:#0f0f0f;fill-rule:evenodd}</style></defs><path class="cls-1" d="M26.534 5.466A5.01 5.01 0 0 0 23 4H9a5.005 5.005 0 0 0-5 5v14a5.005 5.005 0 0 0 5 5h14a5.005 5.005 0 0 0 5-5V9a5.01 5.01 0 0 0-1.466-3.534Zm-2.56 12.521A4.641 4.641 0 0 1 19.329 22H11.7a3.626 3.626 0 0 1-.968-7.139C11.253 12 13.368 10 16 10a5.214 5.214 0 0 1 4.792 3.2 4.492 4.492 0 0 1 3.182 4.785Z"/><path class="cls-1" d="m19.88 15.042-.635-.1-.175-.618A3.169 3.169 0 0 0 16 12c-1.826 0-3.215 1.571-3.378 3.822l-.066.928h-.931a1.632 1.632 0 0 0-1.583 1.255 1.592 1.592 0 0 0 .6 1.652A1.667 1.667 0 0 0 11.7 20h7.63a2.621 2.621 0 0 0 2.656-2.224 2.5 2.5 0 0 0-2.105-2.734Z"/></svg>