<svg xmlns="http://www.w3.org/2000/svg" width="32" height="32" viewBox="0 0 32 32"><path d="M2.47253 2.47266C2.18021 2.76498 2.18021 3.23893 2.47254 3.53125L28.4746 29.5333C28.7669 29.8256 29.2409 29.8256 29.5332 29.5333C29.8255 29.241 29.8255 28.7671 29.5332 28.4747L25.8848 24.8263C26.3374 24.578 26.7661 24.2821 27.1631 23.9412C28.5486 22.7517 29.4525 21.0976 29.7052 19.2891C29.8971 17.5066 29.4206 15.7164 28.368 14.2651C27.3155 12.8138 25.7618 11.8049 24.0079 11.4336C23.2896 9.90851 22.159 8.61481 20.7439 7.69877C19.3287 6.78273 17.6855 6.28089 16.0001 6.25C13.7519 6.26633 11.5924 7.12925 9.9521 8.66677C9.91304 8.70338 9.87435 8.74031 9.83602 8.77755L3.53113 2.47266C3.23881 2.18033 2.76486 2.18033 2.47253 2.47266ZM10.9235 9.86499C12.2872 8.54759 14.0996 7.7907 16.0001 7.74998C17.4609 7.78128 18.8812 8.23686 20.0877 9.06119C21.2942 9.88552 22.2348 11.043 22.795 12.3926L22.9571 12.7783L23.3711 12.8418C24.8328 13.0647 26.1521 13.8431 27.0541 15.0147C27.9561 16.1863 28.3712 17.6608 28.213 19.1309C28.0024 20.5721 27.2735 21.8871 26.1629 22.8295C25.7386 23.1895 25.2698 23.4856 24.7712 23.7127L10.9235 9.86499Z M7.14949 14.5459C7.23324 13.3836 7.54242 12.2599 8.04923 11.2328L9.20271 12.3863C8.82775 13.2856 8.62712 14.2574 8.62215 15.25V16H7.87215C7.25958 15.9997 6.65467 16.1361 6.10153 16.3993C5.5484 16.6625 5.061 17.0459 4.67488 17.5215C4.28525 18.0021 4.00777 18.5635 3.86265 19.165C3.71753 19.7664 3.70843 20.3926 3.83602 20.998C4.05402 21.9363 4.58763 22.7713 5.34757 23.3633C6.10751 23.9552 7.04769 24.2683 8.01082 24.25H21.0664L22.5617 25.7453C22.4347 25.7501 22.3074 25.7517 22.1798 25.75H8.01082C6.70238 25.7675 5.42766 25.3349 4.40023 24.5245C3.37279 23.7142 2.65505 22.5753 2.36727 21.2988C2.20686 20.5385 2.20538 19.7533 2.36289 18.9924C2.52041 18.2315 2.83353 17.5114 3.2826 16.8773C3.73167 16.2431 4.30698 15.7087 4.97242 15.3075C5.63787 14.9063 6.37906 14.647 7.14949 14.5459Z"/></svg>