<svg width="32" height="32" viewBox="0 0 32 32" fill="none" xmlns="http://www.w3.org/2000/svg">
<path d="M18.3166 9.05146C18.1921 9.00952 18.0605 8.99261 17.9294 9.00172C17.7983 9.01083 17.6703 9.04577 17.5527 9.10454C17.4352 9.16331 17.3304 9.24475 17.2445 9.34416C17.1586 9.44357 17.0931 9.559 17.052 9.68379L13.052 21.6838C13.0104 21.8083 12.9938 21.9398 13.0031 22.0708C13.0123 22.2017 13.0473 22.3295 13.106 22.447C13.1646 22.5644 13.2459 22.6691 13.345 22.7552C13.4441 22.8412 13.5593 22.9069 13.6838 22.9484C13.8083 22.99 13.9398 23.0066 14.0708 22.9973C14.2017 22.9881 14.3295 22.9531 14.447 22.8944C14.5644 22.8358 14.6691 22.7545 14.7552 22.6554C14.8412 22.5563 14.9069 22.4411 14.9484 22.3166L18.9484 10.3166C19.0323 10.065 19.0129 9.79047 18.8944 9.55324C18.7759 9.316 18.5681 9.13552 18.3166 9.05146Z" fill="black"/>
<path d="M10.7072 9.29316C10.6144 9.20029 10.5042 9.12661 10.3829 9.07634C10.2615 9.02607 10.1315 9.0002 10.0002 9.0002C9.86888 9.0002 9.73885 9.02607 9.61754 9.07634C9.49622 9.12661 9.386 9.20029 9.29317 9.29316L3.29316 15.2932C3.20029 15.386 3.12661 15.4962 3.07634 15.6175C3.02607 15.7389 3.0002 15.8689 3.0002 16.0002C3.0002 16.1315 3.02607 16.2615 3.07634 16.3829C3.12661 16.5042 3.20029 16.6144 3.29316 16.7072L9.29317 22.7072C9.4808 22.8942 9.73495 22.9991 9.99984 22.9989C10.2647 22.9986 10.5187 22.8933 10.706 22.706C10.8933 22.5187 10.9986 22.2647 10.9989 21.9998C10.9991 21.7349 10.8942 21.4808 10.7072 21.2932L5.41423 16.0002L10.7072 10.7072C10.8001 10.6143 10.8738 10.5041 10.924 10.3828C10.9743 10.2615 11.0002 10.1315 11.0002 10.0002C11.0002 9.86885 10.9743 9.73883 10.924 9.61752C10.8738 9.49621 10.8001 9.386 10.7072 9.29316Z" fill="black"/>
<path d="M28.7072 15.2932L22.7072 9.29316C22.6144 9.20005 22.5042 9.12615 22.3828 9.07568C22.2614 9.02522 22.1313 8.99918 21.9998 8.99907C21.8684 8.99896 21.7382 9.02476 21.6167 9.07502C21.4953 9.12527 21.3849 9.19898 21.2919 9.29193C21.199 9.38489 21.1253 9.49525 21.075 9.61673C21.0248 9.7382 20.999 9.86838 20.9991 9.99984C20.9992 10.1313 21.0252 10.2614 21.0757 10.3828C21.1261 10.5042 21.2001 10.6144 21.2932 10.7072L26.5862 16.0002L21.2932 21.2932C21.2001 21.386 21.1261 21.4963 21.0757 21.6176C21.0252 21.739 20.9992 21.8692 20.9991 22.0006C20.999 22.1321 21.0248 22.2623 21.075 22.3837C21.1253 22.5052 21.199 22.6156 21.2919 22.7085C21.3849 22.8015 21.4953 22.8752 21.6167 22.9255C21.7382 22.9757 21.8684 23.0015 21.9998 23.0014C22.1313 23.0013 22.2614 22.9753 22.3828 22.9248C22.5042 22.8743 22.6144 22.8004 22.7072 22.7073L28.7072 16.7073C28.8001 16.6145 28.8738 16.5042 28.9241 16.3829C28.9744 16.2616 29.0002 16.1316 29.0002 16.0002C29.0002 15.8689 28.9744 15.7389 28.9241 15.6175C28.8738 15.4962 28.8001 15.386 28.7072 15.2932Z" fill="black"/>
</svg>
