<svg xmlns="http://www.w3.org/2000/svg" width="32" height="32" viewBox="0 0 32 32"><path d="M18.1579 9.52603C18.0322 9.48477 17.8952 9.49483 17.7769 9.554C17.6585 9.61318 17.5683 9.71669 17.5259 9.84203L13.5259 21.842C13.4928 21.9654 13.5081 22.0967 13.5686 22.2092C13.6291 22.3217 13.7303 22.4068 13.8515 22.4471C13.9727 22.4875 14.1047 22.48 14.2206 22.4263C14.3364 22.3725 14.4274 22.2766 14.4749 22.158L18.4749 10.158C18.5166 10.0322 18.5067 9.8949 18.4473 9.77638C18.3878 9.65786 18.2837 9.56781 18.1579 9.52603ZM10.3539 9.64703C10.2601 9.55329 10.133 9.50063 10.0004 9.50063C9.8678 9.50063 9.74065 9.55329 9.64688 9.64703L3.64688 15.647C3.55315 15.7408 3.50049 15.8679 3.50049 16.0005C3.50049 16.1331 3.55315 16.2603 3.64688 16.354L9.64688 22.354C9.74118 22.4451 9.86748 22.4955 9.99858 22.4944C10.1297 22.4932 10.2551 22.4406 10.3478 22.3479C10.4405 22.2552 10.4931 22.1298 10.4942 21.9987C10.4954 21.8676 10.445 21.7413 10.3539 21.647L4.70688 16L10.3539 10.354C10.4005 10.3077 10.4376 10.2527 10.4628 10.192C10.4881 10.1313 10.5011 10.0663 10.5011 10.0005C10.5011 9.93481 10.4881 9.86973 10.4628 9.80906C10.4376 9.74839 10.4005 9.69332 10.3539 9.64703ZM28.3539 15.647L22.3539 9.64703C22.3078 9.59927 22.2526 9.56118 22.1916 9.53498C22.1306 9.50877 22.065 9.49498 21.9986 9.4944C21.9322 9.49383 21.8664 9.50648 21.8049 9.53162C21.7435 9.55676 21.6876 9.59388 21.6407 9.64083C21.5937 9.68778 21.5566 9.7436 21.5315 9.80505C21.5063 9.8665 21.4937 9.93234 21.4943 9.99873C21.4948 10.0651 21.5086 10.1307 21.5348 10.1917C21.561 10.2527 21.5991 10.3079 21.6469 10.354L27.2929 16L21.6469 21.647C21.5991 21.6932 21.561 21.7483 21.5348 21.8093C21.5086 21.8703 21.4948 21.9359 21.4943 22.0023C21.4937 22.0687 21.5063 22.1346 21.5315 22.196C21.5566 22.2575 21.5937 22.3133 21.6407 22.3602C21.6876 22.4072 21.7435 22.4443 21.8049 22.4694C21.8664 22.4946 21.9322 22.5072 21.9986 22.5067C22.065 22.5061 22.1306 22.4923 22.1916 22.4661C22.2526 22.4399 22.3078 22.4018 22.3539 22.354L28.3539 16.354C28.4476 16.2603 28.5003 16.1331 28.5003 16.0005C28.5003 15.8679 28.4476 15.7408 28.3539 15.647Z"/></svg>