<svg width="32" height="32" viewBox="0 0 32 32" fill="none" xmlns="http://www.w3.org/2000/svg">
<g>
<path d="M16.9998 1C17.5521 1 17.9998 1.44772 17.9998 2C17.9998 3.17498 17.7031 4.1227 17.2068 4.8672C16.7147 5.60544 16.0656 6.08511 15.447 6.39443C15.0927 6.57158 14.6368 6.94121 14.3777 7.41635C14.1458 7.84134 14.0528 8.37002 14.3942 9.05278C14.6412 9.54676 14.441 10.1474 13.947 10.3944C13.453 10.6414 12.8523 10.4412 12.6053 9.94722C11.9467 8.62998 12.1037 7.40866 12.6219 6.45865C13.1127 5.55879 13.9069 4.92842 14.5526 4.60557C14.9339 4.41489 15.2849 4.14456 15.5427 3.7578C15.7964 3.3773 15.9998 2.82502 15.9998 2C15.9998 1.44772 16.4475 1 16.9998 1Z"/>
<path d="M4 14C4 13.4477 4.44772 13 5 13H27C27.5523 13 28 13.4477 28 14C28 14.3347 27.9934 14.6682 27.9799 15L28.75 15C30.6414 15 32 16.6687 32 18.5C32 20.3313 30.6414 22 28.75 22H26.3502C26.0485 22.6057 25.7012 23.1806 25.3051 23.7182C23.3474 26.3751 20.2839 28.0001 16 28.0002C11.7161 28.0003 8.65263 26.3753 6.69494 23.7183C4.77248 21.1092 4 17.6205 4 14ZM27.1533 20H28.75C29.3439 20 30 19.4301 30 18.5C30 17.5699 29.3439 17 28.75 17L27.8092 17C27.6715 18.0367 27.4562 19.0433 27.1533 20ZM6.02185 15C6.15363 17.9717 6.88491 20.6045 8.30506 22.532C9.84737 24.6251 12.2839 26.0002 16 26.0002C19.7161 26.0001 22.1526 24.625 23.6949 22.5318C25.1151 20.6045 25.8464 17.9717 25.9782 15H6.02185Z"/>
<path d="M5 30C5 29.4477 5.44772 29 6 29H26C26.5523 29 27 29.4477 27 30C27 30.5523 26.5523 31 26 31H6C5.44772 31 5 30.5523 5 30Z"/>
<path d="M19.9488 5.18377C19.7741 4.65983 19.2078 4.37667 18.6838 4.55131C18.1599 4.72596 17.8767 5.29228 18.0514 5.81622C18.2156 6.30875 18.146 6.63417 18.0201 6.89401C17.8695 7.20485 17.6174 7.46842 17.293 7.79288C16.894 8.19187 16.5288 8.71659 16.3625 9.35546C16.1906 10.0156 16.249 10.7338 16.6057 11.4472C16.8527 11.9412 17.4534 12.1414 17.9473 11.8944C18.4413 11.6475 18.6416 11.0468 18.3946 10.5528C18.2513 10.2662 18.2498 10.0443 18.2979 9.85937C18.3516 9.65318 18.4864 9.4279 18.7072 9.20711L18.7354 9.17893C19.0334 8.88129 19.5104 8.40481 19.8199 7.76615C20.1641 7.05593 20.2846 6.19125 19.9488 5.18377Z"/>
</g>
</svg>
