<svg width="32" height="32" viewBox="0 0 32 32" xmlns="http://www.w3.org/2000/svg">
<path d="M16.9632 1C16.9632 0.447715 16.5155 0 15.9632 0C15.411 0 14.9632 0.447715 14.9632 1C14.9632 2.12347 14.7383 2.63334 14.5383 2.90003C14.3246 3.18504 14.0387 3.34432 13.5161 3.60556C12.2497 4.23876 11.5626 5.23009 11.3057 6.25742C11.059 7.24423 11.2146 8.23851 11.5688 8.94713C11.8157 9.44113 12.4164 9.64141 12.9104 9.39447C13.4044 9.14753 13.6047 8.54687 13.3577 8.05287C13.2121 7.76149 13.1177 7.25573 13.246 6.74252C13.3642 6.26983 13.677 5.76116 14.4105 5.39444L14.4592 5.37012C14.9356 5.13246 15.6201 4.79104 16.1383 4.09997C16.6883 3.36666 16.9632 2.37653 16.9632 1Z"/>
<path d="M18.6464 2.5513C19.1704 2.37668 19.7367 2.65987 19.9113 3.18382C20.6081 5.27465 19.1978 6.68067 18.7009 7.17598L18.6697 7.20716C18.5249 7.35193 18.3719 7.58233 18.2991 7.8372C18.2314 8.07438 18.2363 8.31137 18.357 8.55278C18.604 9.04676 18.4038 9.64743 17.9098 9.89442C17.4159 10.1414 16.8152 9.94119 16.5682 9.44721C15.7966 7.90409 16.5983 6.45002 17.2556 5.79283C17.7902 5.25824 18.3017 4.67962 18.0139 3.81617C17.8393 3.29222 18.1225 2.72592 18.6464 2.5513Z"/>
<path d="M2.96289 12C2.96289 11.4477 3.41061 11 3.96289 11H25.9629C26.5152 11 26.9629 11.4477 26.9629 12C26.9629 12.3347 26.9563 12.6682 26.9428 13H27.4629C28.7484 13 29.6822 13.5007 30.2629 14.275C30.8073 15.0008 30.9629 15.8604 30.9629 16.5C30.9629 17.1396 30.8073 17.9992 30.2629 18.725C29.6822 19.4993 28.7484 20 27.4629 20H25.3131C25.0113 20.6057 24.6641 21.1806 24.2679 21.7182C22.3102 24.3751 19.2468 26 14.9629 26C10.679 26 7.61553 24.3751 5.65783 21.7182C3.73537 19.1091 2.96289 15.6205 2.96289 12ZM26.1162 18H27.4629C28.1773 18 28.4936 17.7507 28.6629 17.525C28.8685 17.2508 28.9629 16.8604 28.9629 16.5C28.9629 16.1396 28.8685 15.7492 28.6629 15.475C28.4936 15.2493 28.1773 15 27.4629 15H26.7721C26.6344 16.0367 26.4191 17.0433 26.1162 18ZM4.98474 13C5.11652 15.9717 5.84779 18.6045 7.26795 20.5318C8.81025 22.6249 11.2468 24 14.9629 24C18.679 24 21.1155 22.6249 22.6578 20.5318C24.078 18.6045 24.8093 15.9717 24.941 13H4.98474Z"/>
<path d="M3.96289 28C3.96289 27.4477 4.41061 27 4.96289 27H24.9629C25.5152 27 25.9629 27.4477 25.9629 28C25.9629 28.5523 25.5152 29 24.9629 29H4.96289C4.41061 29 3.96289 28.5523 3.96289 28Z"/>
</svg>
