<svg width="32" height="32" viewBox="0 0 32 32" xmlns="http://www.w3.org/2000/svg">
<path d="M16.4632 1C16.4632 0.723858 16.2394 0.5 15.9632 0.5C15.6871 0.5 15.4632 0.723858 15.4632 1C15.4632 2.18673 15.2258 2.81667 14.9383 3.20002C14.6439 3.59252 14.251 3.79716 13.7397 4.05278C12.6065 4.61936 12.013 5.49003 11.7908 6.3787C11.5737 7.2471 11.7139 8.11926 12.016 8.72356C12.1395 8.97057 12.4398 9.07071 12.6868 8.94724C12.9338 8.82376 13.0339 8.52344 12.9105 8.27644C12.7127 7.88074 12.603 7.25286 12.7609 6.62124C12.9138 6.00989 13.3202 5.38056 14.1869 4.94722L14.2171 4.93216C14.7005 4.69063 15.292 4.39506 15.7383 3.79998C16.2008 3.18333 16.4632 2.31327 16.4632 1Z"/>
<path d="M18.8057 3.02565C19.0677 2.93834 19.3508 3.07994 19.4381 3.34191C20.0362 5.13646 18.8322 6.33924 18.3366 6.83432L18.3173 6.85358C17.8958 7.27499 17.5468 8.04795 17.911 8.77639C18.0345 9.02338 17.9344 9.32372 17.6874 9.44721C17.4404 9.57071 17.1401 9.4706 17.0166 9.22361C16.3808 7.95204 17.0316 6.72501 17.6103 6.14642C18.1276 5.62914 18.8833 4.83981 18.4894 3.65809C18.4021 3.39611 18.5437 3.11296 18.8057 3.02565Z"/>
<path d="M3.46289 12C3.46289 11.7239 3.68675 11.5 3.96289 11.5H25.9629C26.239 11.5 26.4629 11.7239 26.4629 12C26.4629 12.5045 26.4476 13.0051 26.4161 13.5H27.4629C28.6057 13.5 29.385 13.9379 29.8629 14.575C30.3226 15.1879 30.4629 15.9302 30.4629 16.5C30.4629 17.0698 30.3226 17.8121 29.8629 18.425C29.385 19.0621 28.6057 19.5 27.4629 19.5H24.9992C24.6795 20.1842 24.303 20.8278 23.8654 21.4216C22.0116 23.9375 19.1048 25.5 14.9629 25.5C10.8209 25.5 7.91421 23.9375 6.06036 21.4216C4.22413 18.9296 3.46289 15.5602 3.46289 12ZM25.4163 18.5H27.4629C28.3201 18.5 28.7908 18.1879 29.0629 17.825C29.3532 17.4379 29.4629 16.9302 29.4629 16.5C29.4629 16.0698 29.3532 15.5621 29.0629 15.175C28.7908 14.8121 28.3201 14.5 27.4629 14.5H26.3293C26.1732 15.9089 25.8761 17.2581 25.4163 18.5ZM4.46816 12.5C4.537 15.7424 5.28263 18.6803 6.86542 20.8284C8.51157 23.0625 11.1048 24.5 14.9629 24.5C18.8209 24.5 21.4142 23.0625 23.0604 20.8284C24.6432 18.6803 25.3888 15.7424 25.4576 12.5H4.46816Z"/>
<path d="M4.46289 28C4.46289 27.7239 4.68675 27.5 4.96289 27.5H24.9629C25.239 27.5 25.4629 27.7239 25.4629 28C25.4629 28.2761 25.239 28.5 24.9629 28.5H4.96289C4.68675 28.5 4.46289 28.2761 4.46289 28Z"/>
</svg>
