<svg width="32" height="32" viewBox="0 0 32 32" fill="none" xmlns="http://www.w3.org/2000/svg">
<path d="M24.9996 26.2496H6.9996C6.80069 26.2496 6.60993 26.3286 6.46927 26.4693C6.32862 26.6099 6.2496 26.8007 6.2496 26.9996C6.2496 27.1985 6.32862 27.3893 6.46927 27.5299C6.60993 27.6706 6.80069 27.7496 6.9996 27.7496H24.9996C25.1985 27.7496 25.3893 27.6706 25.5299 27.5299C25.6706 27.3893 25.7496 27.1985 25.7496 26.9996C25.7496 26.8007 25.6706 26.6099 25.5299 26.4693C25.3893 26.3286 25.1985 26.2496 24.9996 26.2496Z" fill="black"/>
<path d="M7.69491 23.6852C7.87677 23.7657 8.08313 23.7708 8.26875 23.6994C8.45437 23.628 8.60411 23.4859 8.68515 23.3043L11.1539 17.7496H20.8453L23.3141 23.3043C23.354 23.3944 23.4114 23.4757 23.4828 23.5437C23.5542 23.6116 23.6383 23.6648 23.7303 23.7002C23.8222 23.7356 23.9203 23.7525 24.0188 23.75C24.1174 23.7475 24.2144 23.7256 24.3045 23.6856C24.3946 23.6456 24.4759 23.5882 24.5437 23.5167C24.6116 23.4453 24.6647 23.3611 24.7001 23.2691C24.7355 23.1771 24.7523 23.0791 24.7498 22.9805C24.7472 22.882 24.7252 22.785 24.6852 22.6949L16.6852 4.69541C16.6179 4.57237 16.5187 4.4697 16.3981 4.39818C16.2775 4.32666 16.1398 4.28892 15.9996 4.28892C15.8594 4.28892 15.7217 4.32666 15.6011 4.39818C15.4805 4.4697 15.3813 4.57237 15.3141 4.69541L7.31405 22.6949C7.27401 22.7849 7.2521 22.882 7.24957 22.9805C7.24704 23.079 7.26395 23.177 7.29932 23.2689C7.33469 23.3609 7.38783 23.445 7.45571 23.5164C7.52358 23.5878 7.60487 23.6452 7.69491 23.6852ZM15.9996 6.84678L20.1786 16.2496H11.8206L15.9996 6.84678Z" fill="black"/>
</svg>
