<svg width="32" height="32" viewBox="0 0 32 32" fill="none" xmlns="http://www.w3.org/2000/svg">
<path d="M24.9996 25.9996H6.9996C6.73439 25.9996 6.48003 26.105 6.2925 26.2925C6.10496 26.48 5.9996 26.7344 5.9996 26.9996C5.9996 27.2648 6.10496 27.5192 6.2925 27.7067C6.48003 27.8943 6.73439 27.9996 6.9996 27.9996H24.9996C25.2648 27.9996 25.5192 27.8943 25.7067 27.7067C25.8942 27.5192 25.9996 27.2648 25.9996 26.9996C25.9996 26.7344 25.8942 26.48 25.7067 26.2925C25.5192 26.105 25.2648 25.9996 24.9996 25.9996Z" fill="black"/>
<path d="M7.59335 23.9137C7.71339 23.967 7.84276 23.9962 7.97408 23.9996C8.1054 24.003 8.2361 23.9804 8.35871 23.9333C8.48132 23.8861 8.59344 23.8153 8.68866 23.7248C8.78388 23.6343 8.86033 23.5259 8.91366 23.4059L11.3164 17.9996H20.6828L23.0855 23.4059C23.1389 23.5259 23.2154 23.6342 23.3106 23.7247C23.4058 23.8152 23.5179 23.8861 23.6405 23.9332C23.7631 23.9804 23.8938 24.0029 24.0251 23.9996C24.1564 23.9962 24.2858 23.967 24.4059 23.9137C24.5259 23.8603 24.6342 23.7838 24.7247 23.6886C24.8152 23.5934 24.886 23.4813 24.9332 23.3587C24.9804 23.2361 25.0029 23.1054 24.9995 22.9741C24.9962 22.8428 24.967 22.7134 24.9137 22.5934L16.9137 4.59385C16.835 4.4171 16.7068 4.26695 16.5446 4.16157C16.3824 4.05619 16.1931 4.0001 15.9996 4.0001C15.8062 4.0001 15.6168 4.05619 15.4546 4.16157C15.2924 4.26695 15.1642 4.4171 15.0855 4.59385L7.08554 22.5934C6.97797 22.8358 6.97103 23.111 7.06625 23.3586C7.16146 23.6061 7.35104 23.8058 7.59335 23.9137ZM15.9996 7.4625L19.7939 15.9996H12.2054L15.9996 7.4625Z" fill="black"/>
</svg>
