<svg xmlns="http://www.w3.org/2000/svg" width="32" height="32" viewBox="0 0 32 32"><path d="M25 26.0001H7C6.73478 26.0001 6.48043 26.1054 6.29289 26.293C6.10536 26.4805 6 26.7349 6 27.0001C6 27.2653 6.10536 27.5196 6.29289 27.7072C6.48043 27.8947 6.73478 28.0001 7 28.0001H25C25.2652 28.0001 25.5196 27.8947 25.7071 27.7072C25.8946 27.5196 26 27.2653 26 27.0001C26 26.7349 25.8946 26.4805 25.7071 26.293C25.5196 26.1054 25.2652 26.0001 25 26.0001ZM7.593 23.9141C7.83547 24.0212 8.11053 24.0279 8.35793 23.9327C8.60534 23.8375 8.80493 23.6481 8.913 23.4061L11.317 18.0001H20.684L23.086 23.4061C23.1669 23.5863 23.2992 23.7386 23.4664 23.8438C23.6336 23.9491 23.8282 24.0025 24.0256 23.9975C24.2231 23.9925 24.4147 23.9292 24.5763 23.8156C24.7379 23.702 24.8624 23.5432 24.934 23.3591C24.9813 23.2364 25.0039 23.1055 25.0004 22.9741C24.997 22.8426 24.9676 22.7131 24.914 22.5931L16.914 4.59307C16.8352 4.41655 16.7069 4.26663 16.5447 4.16143C16.3825 4.05623 16.1933 4.00024 16 4.00024C15.8067 4.00024 15.6175 4.05623 15.4553 4.16143C15.2931 4.26663 15.1648 4.41655 15.086 4.59307L7.086 22.5931C7.03267 22.7131 7.0035 22.8425 7.00017 22.9738C6.99684 23.1051 7.0194 23.2357 7.06657 23.3583C7.11375 23.4809 7.18461 23.593 7.2751 23.6881C7.3656 23.7833 7.47396 23.8598 7.594 23.9131L7.593 23.9141ZM16 7.46207L19.794 16.0001H12.205L16 7.46307V7.46207Z"/></svg>