<svg xmlns="http://www.w3.org/2000/svg" width="32" height="32" viewBox="0 0 32 32"><path d="M25 26.2501H7C6.80109 26.2501 6.61032 26.3291 6.46967 26.4697C6.32902 26.6104 6.25 26.8011 6.25 27.0001C6.25 27.199 6.32902 27.3897 6.46967 27.5304C6.61032 27.671 6.80109 27.7501 7 27.7501H25C25.1989 27.7501 25.3897 27.671 25.5303 27.5304C25.671 27.3897 25.75 27.199 25.75 27.0001C25.75 26.8011 25.671 26.6104 25.5303 26.4697C25.3897 26.3291 25.1989 26.2501 25 26.2501ZM7.695 23.6851C7.87671 23.7656 8.08296 23.7709 8.26853 23.6996C8.4541 23.6284 8.60387 23.4865 8.685 23.3051L11.154 17.7501H20.845L23.315 23.3041C23.3537 23.3961 23.4103 23.4795 23.4816 23.5493C23.553 23.6192 23.6375 23.6741 23.7303 23.7108C23.8231 23.7476 23.9223 23.7654 24.0221 23.7633C24.1219 23.7612 24.2203 23.7393 24.3115 23.6987C24.4027 23.6581 24.4849 23.5997 24.5532 23.5269C24.6215 23.4541 24.6746 23.3684 24.7094 23.2749C24.7442 23.1813 24.76 23.0817 24.7558 22.982C24.7516 22.8823 24.7275 22.7844 24.685 22.6941L16.685 4.69506C16.6175 4.57247 16.5183 4.47024 16.3978 4.39904C16.2773 4.32784 16.14 4.29028 16 4.29028C15.86 4.29028 15.7227 4.32784 15.6022 4.39904C15.4817 4.47024 15.3825 4.57247 15.315 4.69506L7.315 22.6951C7.23415 22.8767 7.22877 23.0831 7.30003 23.2687C7.37129 23.4544 7.51336 23.6041 7.695 23.6851ZM16 6.84706L20.179 16.2501H11.82L16 6.84706Z"/></svg>