<svg xmlns="http://www.w3.org/2000/svg" width="32" height="32" viewBox="0 0 32 32"><path d="M29 25.2502H27.748V8.12718C27.7469 7.39042 27.4583 6.68318 26.9435 6.15608C26.4287 5.62899 25.7285 5.32368 24.992 5.30518H13.996C13.2611 5.32368 12.5624 5.62835 12.0487 6.15433C11.5351 6.6803 11.2471 7.38601 11.246 8.12118V9.25118H7C6.27107 9.25197 5.57221 9.54182 5.05669 10.0572C4.54116 10.5725 4.25106 11.2712 4.25 12.0002V25.2502H3C2.80109 25.2502 2.61032 25.3292 2.46967 25.4698C2.32902 25.6105 2.25 25.8013 2.25 26.0002C2.25 26.1991 2.32902 26.3899 2.46967 26.5305C2.61032 26.6712 2.80109 26.7502 3 26.7502H29C29.1989 26.7502 29.3897 26.6712 29.5303 26.5305C29.671 26.3899 29.75 26.1991 29.75 26.0002C29.75 25.8013 29.671 25.6105 29.5303 25.4698C29.3897 25.3292 29.1989 25.2502 29 25.2502ZM5.75 12.0002C5.75026 11.6687 5.88205 11.3509 6.11641 11.1166C6.35077 10.8822 6.66856 10.7504 7 10.7502H11.246V25.2502H5.75V12.0002ZM12.75 25.2502L12.746 8.12118C12.7418 7.7822 12.8701 7.45499 13.1036 7.20919C13.3371 6.9634 13.6573 6.81844 13.996 6.80518H24.992C25.3309 6.8226 25.6501 6.96948 25.8839 7.21549C26.1176 7.46149 26.2479 7.78784 26.248 8.12718V25.2502H12.75Z M8.5 14.01C8.69891 14.01 8.88968 13.931 9.03033 13.7903C9.17098 13.6497 9.25 13.4589 9.25 13.26C9.25 13.0611 9.17098 12.8703 9.03033 12.7297C8.88968 12.589 8.69891 12.51 8.5 12.51C8.30109 12.51 8.11032 12.589 7.96967 12.7297C7.82902 12.8703 7.75 13.0611 7.75 13.26C7.75 13.4589 7.82902 13.6497 7.96967 13.7903C8.11032 13.931 8.30109 14.01 8.5 14.01ZM8.5 17.5C8.69891 17.5 8.88968 17.421 9.03033 17.2803C9.17098 17.1397 9.25 16.9489 9.25 16.75C9.25 16.5511 9.17098 16.3603 9.03033 16.2197C8.88968 16.079 8.69891 16 8.5 16C8.30109 16 8.11032 16.079 7.96967 16.2197C7.82902 16.3603 7.75 16.5511 7.75 16.75C7.75 16.9489 7.82902 17.1397 7.96967 17.2803C8.11032 17.421 8.30109 17.5 8.5 17.5ZM8.5 20.75C8.69891 20.75 8.88968 20.671 9.03033 20.5303C9.17098 20.3897 9.25 20.1989 9.25 20C9.25 19.8011 9.17098 19.6103 9.03033 19.4697C8.88968 19.329 8.69891 19.25 8.5 19.25C8.30109 19.25 8.11032 19.329 7.96967 19.4697C7.82902 19.6103 7.75 19.8011 7.75 20C7.75 20.1989 7.82902 20.3897 7.96967 20.5303C8.11032 20.671 8.30109 20.75 8.5 20.75ZM16 10.75C16.1989 10.75 16.3897 10.671 16.5303 10.5303C16.671 10.3897 16.75 10.1989 16.75 10C16.75 9.80109 16.671 9.61032 16.5303 9.46967C16.3897 9.32902 16.1989 9.25 16 9.25C15.8011 9.25 15.6103 9.32902 15.4697 9.46967C15.329 9.61032 15.25 9.80109 15.25 10C15.25 10.1989 15.329 10.3897 15.4697 10.5303C15.6103 10.671 15.8011 10.75 16 10.75ZM19.497 10.75C19.6959 10.75 19.8867 10.671 20.0273 10.5303C20.168 10.3897 20.247 10.1989 20.247 10C20.247 9.80109 20.168 9.61032 20.0273 9.46967C19.8867 9.32902 19.6959 9.25 19.497 9.25C19.2981 9.25 19.1073 9.32902 18.9667 9.46967C18.826 9.61032 18.747 9.80109 18.747 10C18.747 10.1989 18.826 10.3897 18.9667 10.5303C19.1073 10.671 19.2981 10.75 19.497 10.75ZM19.497 14C19.6959 14 19.8867 13.921 20.0273 13.7803C20.168 13.6397 20.247 13.4489 20.247 13.25C20.247 13.0511 20.168 12.8603 20.0273 12.7197C19.8867 12.579 19.6959 12.5 19.497 12.5C19.2981 12.5 19.1073 12.579 18.9667 12.7197C18.826 12.8603 18.747 13.0511 18.747 13.25C18.747 13.4489 18.826 13.6397 18.9667 13.7803C19.1073 13.921 19.2981 14 19.497 14ZM19.497 17.5C19.6959 17.5 19.8867 17.421 20.0273 17.2803C20.168 17.1397 20.247 16.9489 20.247 16.75C20.247 16.5511 20.168 16.3603 20.0273 16.2197C19.8867 16.079 19.6959 16 19.497 16C19.2981 16 19.1073 16.079 18.9667 16.2197C18.826 16.3603 18.747 16.5511 18.747 16.75C18.747 16.9489 18.826 17.1397 18.9667 17.2803C19.1073 17.421 19.2981 17.5 19.497 17.5ZM23 10.75C23.1989 10.75 23.3897 10.671 23.5303 10.5303C23.671 10.3897 23.75 10.1989 23.75 10C23.75 9.80109 23.671 9.61032 23.5303 9.46967C23.3897 9.32902 23.1989 9.25 23 9.25C22.8011 9.25 22.6103 9.32902 22.4697 9.46967C22.329 9.61032 22.25 9.80109 22.25 10C22.25 10.1989 22.329 10.3897 22.4697 10.5303C22.6103 10.671 22.8011 10.75 23 10.75ZM23 14C23.1989 14 23.3897 13.921 23.5303 13.7803C23.671 13.6397 23.75 13.4489 23.75 13.25C23.75 13.0511 23.671 12.8603 23.5303 12.7197C23.3897 12.579 23.1989 12.5 23 12.5C22.8011 12.5 22.6103 12.579 22.4697 12.7197C22.329 12.8603 22.25 13.0511 22.25 13.25C22.25 13.4489 22.329 13.6397 22.4697 13.7803C22.6103 13.921 22.8011 14 23 14ZM23 17.5C23.1989 17.5 23.3897 17.421 23.5303 17.2803C23.671 17.1397 23.75 16.9489 23.75 16.75C23.75 16.5511 23.671 16.3603 23.5303 16.2197C23.3897 16.079 23.1989 16 23 16C22.8011 16 22.6103 16.079 22.4697 16.2197C22.329 16.3603 22.25 16.5511 22.25 16.75C22.25 16.9489 22.329 17.1397 22.4697 17.2803C22.6103 17.421 22.8011 17.5 23 17.5ZM16 14C16.1989 14 16.3897 13.921 16.5303 13.7803C16.671 13.6397 16.75 13.4489 16.75 13.25C16.75 13.0511 16.671 12.8603 16.5303 12.7197C16.3897 12.579 16.1989 12.5 16 12.5C15.8011 12.5 15.6103 12.579 15.4697 12.7197C15.329 12.8603 15.25 13.0511 15.25 13.25C15.25 13.4489 15.329 13.6397 15.4697 13.7803C15.6103 13.921 15.8011 14 16 14ZM16 17.5C16.1989 17.5 16.3897 17.421 16.5303 17.2803C16.671 17.1397 16.75 16.9489 16.75 16.75C16.75 16.5511 16.671 16.3603 16.5303 16.2197C16.3897 16.079 16.1989 16 16 16C15.8011 16 15.6103 16.079 15.4697 16.2197C15.329 16.3603 15.25 16.5511 15.25 16.75C15.25 16.9489 15.329 17.1397 15.4697 17.2803C15.6103 17.421 15.8011 17.5 16 17.5ZM16 20.75C16.1989 20.75 16.3897 20.671 16.5303 20.5303C16.671 20.3897 16.75 20.1989 16.75 20C16.75 19.8011 16.671 19.6103 16.5303 19.4697C16.3897 19.329 16.1989 19.25 16 19.25C15.8011 19.25 15.6103 19.329 15.4697 19.4697C15.329 19.6103 15.25 19.8011 15.25 20C15.25 20.1989 15.329 20.3897 15.4697 20.5303C15.6103 20.671 15.8011 20.75 16 20.75ZM19.497 20.75C19.6959 20.75 19.8867 20.671 20.0273 20.5303C20.168 20.3897 20.247 20.1989 20.247 20C20.247 19.8011 20.168 19.6103 20.0273 19.4697C19.8867 19.329 19.6959 19.25 19.497 19.25C19.2981 19.25 19.1073 19.329 18.9667 19.4697C18.826 19.6103 18.747 19.8011 18.747 20C18.747 20.1989 18.826 20.3897 18.9667 20.5303C19.1073 20.671 19.2981 20.75 19.497 20.75ZM23 20.75C23.1989 20.75 23.3897 20.671 23.5303 20.5303C23.671 20.3897 23.75 20.1989 23.75 20C23.75 19.8011 23.671 19.6103 23.5303 19.4697C23.3897 19.329 23.1989 19.25 23 19.25C22.8011 19.25 22.6103 19.329 22.4697 19.4697C22.329 19.6103 22.25 19.8011 22.25 20C22.25 20.1989 22.329 20.3897 22.4697 20.5303C22.6103 20.671 22.8011 20.75 23 20.75Z"/></svg>