<svg xmlns="http://www.w3.org/2000/svg" width="32" height="32" viewBox="0 0 32 32"><path d="M27 4.5H22C21.3372 4.50079 20.7018 4.76444 20.2331 5.23311C19.7644 5.70178 19.5008 6.3372 19.5 7V9.55C19.3341 9.52114 19.1663 9.50443 18.998 9.5H6.00098C5.07312 9.50132 4.18365 9.8705 3.52756 10.5266C2.87147 11.1827 2.5023 12.0721 2.50098 13V19.997C2.50177 20.9251 2.87054 21.8151 3.52644 22.4717C4.18235 23.1284 5.07186 23.4981 5.99998 23.5H9.30398L8.55398 25.648C8.49242 25.8643 8.48187 26.0919 8.52317 26.313C8.56446 26.534 8.65647 26.7425 8.79196 26.922C8.92745 27.1015 9.10272 27.2471 9.30401 27.3474C9.50529 27.4477 9.72709 27.4999 9.95198 27.5H15.047C15.2742 27.5001 15.4983 27.447 15.7012 27.3447C15.9041 27.2425 16.0802 27.0941 16.2153 26.9114C16.3504 26.7288 16.4407 26.5169 16.4791 26.293C16.5174 26.069 16.5026 25.8392 16.436 25.622L15.7 23.5H18.998C19.1815 23.4962 19.3644 23.4778 19.545 23.445C19.6491 24.0206 19.9518 24.5415 20.4004 24.917C20.8489 25.2925 21.415 25.4988 22 25.5H27C27.6629 25.4995 28.2984 25.2359 28.7672 24.7672C29.2359 24.2985 29.4994 23.6629 29.5 23V7C29.4992 6.3372 29.2355 5.70178 28.7669 5.23311C28.2982 4.76444 27.6628 4.50079 27 4.5ZM15.41 26.32C15.3679 26.3762 15.3132 26.4217 15.2503 26.4529C15.1875 26.4842 15.1182 26.5003 15.048 26.5H9.95198C9.88416 26.5 9.8172 26.4848 9.75599 26.4556C9.69479 26.4264 9.64088 26.3839 9.59823 26.3312C9.55557 26.2785 9.52524 26.2169 9.50945 26.1509C9.49366 26.085 9.49282 26.0163 9.50698 25.95L10.363 23.5H14.64L15.483 25.923C15.5024 25.9905 15.5059 26.0617 15.493 26.1307C15.4802 26.1998 15.4514 26.265 15.409 26.321L15.41 26.32ZM19 22.5H5.99998C5.337 22.4987 4.70158 22.2346 4.23296 21.7656C3.76435 21.2966 3.50077 20.661 3.49998 19.998V19.47C3.49998 19.458 3.49998 19.447 3.49798 19.435C3.49914 19.4234 3.49981 19.4117 3.49998 19.4V13C3.50104 12.3371 3.7649 11.7017 4.23373 11.233C4.70256 10.7644 5.33809 10.5008 6.00098 10.5H18.998C19.661 10.5005 20.2968 10.764 20.7659 11.2327C21.2349 11.7014 21.4989 12.3369 21.5 13V19.997C21.4994 20.6604 21.2357 21.2965 20.7666 21.7656C20.2975 22.2347 19.6614 22.4985 18.998 22.499L19 22.5ZM28.501 23C28.5004 23.3977 28.3422 23.7789 28.0611 24.0601C27.7799 24.3413 27.3986 24.4995 27.001 24.5H22.001C21.6287 24.4986 21.2702 24.3585 20.9956 24.107C20.7211 23.8555 20.55 23.5108 20.516 23.14C21.1087 22.8558 21.6093 22.4103 21.9604 21.8545C22.3115 21.2988 22.4989 20.6553 22.501 19.998V13.001C22.4993 12.3406 22.3105 11.6943 21.9565 11.1368C21.6025 10.5793 21.0979 10.1335 20.501 9.851V7C20.5015 6.60251 20.6596 6.22144 20.9405 5.94028C21.2215 5.65912 21.6025 5.50079 22 5.5H27C27.3976 5.50053 27.7789 5.65873 28.0601 5.93992C28.3412 6.22111 28.4994 6.60234 28.5 7V23H28.501Z M24.5 10.5C24.7652 10.5 25.0196 10.3946 25.2071 10.2071C25.3946 10.0196 25.5 9.76522 25.5 9.5C25.5 9.23478 25.3946 8.98043 25.2071 8.79289C25.0196 8.60536 24.7652 8.5 24.5 8.5C24.2348 8.5 23.9804 8.60536 23.7929 8.79289C23.6054 8.98043 23.5 9.23478 23.5 9.5C23.5 9.76522 23.6054 10.0196 23.7929 10.2071C23.9804 10.3946 24.2348 10.5 24.5 10.5Z"/></svg>