<svg width="32" height="32" viewBox="0 0 32 32" fill="none" xmlns="http://www.w3.org/2000/svg">
<path d="M27.0004 3.9999H22.0004C21.205 4.00077 20.4424 4.31712 19.88 4.87954C19.3176 5.44196 19.0013 6.20452 19.0004 6.9999V9.00009L18.9984 8.9999H6.00137C4.94054 9.00115 3.92352 9.42315 3.17345 10.1733C2.42337 10.9235 2.00149 11.9405 2.00037 13.0014V19.3998C2.00037 19.4115 2.00037 19.4232 2.00137 19.435C2.00037 19.4467 2.00037 19.4584 2.00037 19.4701V19.9984C2.00138 21.0594 2.42321 22.0765 3.17329 22.8268C3.92338 23.5771 4.94045 23.9992 6.00137 24.0004H8.60043L8.07363 25.5112C7.99087 25.8018 7.97664 26.1077 8.03206 26.4047C8.08748 26.7018 8.21105 26.982 8.39304 27.2232C8.57504 27.4644 8.8105 27.6602 9.08092 27.795C9.35135 27.9299 9.64937 28.0002 9.95156 28.0004H15.0473C15.3497 28.0017 15.6483 27.932 15.919 27.797C16.1896 27.662 16.4249 27.4655 16.6059 27.2231C16.7932 26.9741 16.9183 26.684 16.9708 26.3769C17.0233 26.0697 17.0016 25.7545 16.9076 25.4575L16.4018 24.0005H18.9984C19.0603 24.0005 19.1178 23.985 19.179 23.9822C19.3816 24.5698 19.7621 25.0798 20.2677 25.4415C20.7732 25.8031 21.3788 25.9985 22.0004 26.0005H27.0004C27.7958 25.9996 28.5583 25.6833 29.1207 25.1208C29.6832 24.5584 29.9995 23.7959 30.0004 23.0005V6.9999C29.9995 6.20452 29.6832 5.44196 29.1207 4.87954C28.5583 4.31712 27.7958 4.00077 27.0004 3.9999ZM10.0199 26.0004L10.7188 24.0004H14.2851L14.9789 26.0004H10.0199ZM18.9984 22.0004H6.00137C5.47073 21.9996 4.96205 21.7884 4.58693 21.4131C4.2118 21.0378 4.00086 20.529 4.00037 19.9984V19.4701C4.00037 19.4584 4.00037 19.4466 3.99937 19.4349C4.00037 19.4232 4.00037 19.4115 4.00037 19.3998V13.0014C4.00089 12.4708 4.21186 11.9621 4.58699 11.5869C4.96213 11.2116 5.47078 11.0005 6.00137 10.9999H18.9984C19.5291 11.0005 20.0379 11.2115 20.4132 11.5867C20.7885 11.962 20.9997 12.4707 21.0004 13.0014V19.9984C20.9997 20.5292 20.7886 21.038 20.4133 21.4132C20.038 21.7885 19.5292 21.9997 18.9984 22.0004ZM28.0004 23.0004C28.0003 23.2656 27.8948 23.5198 27.7073 23.7073C27.5198 23.8948 27.2656 24.0002 27.0004 24.0004H22.0004C21.8057 24.0001 21.6152 23.9428 21.4525 23.8358C21.2898 23.7287 21.1619 23.5764 21.0846 23.3976C21.6682 23.0424 22.1508 22.5433 22.4863 21.9481C22.8217 21.353 22.9988 20.6816 23.0004 19.9984V13.0014C22.9982 12.3023 22.8122 11.6161 22.4612 11.0116C22.1102 10.407 21.6064 9.90539 21.0004 9.55691V6.9999C21.0007 6.73477 21.1061 6.48057 21.2936 6.29309C21.4811 6.10561 21.7353 6.00017 22.0004 5.9999H27.0004C27.2656 6.00017 27.5198 6.10561 27.7073 6.29309C27.8947 6.48057 28.0002 6.73477 28.0004 6.9999V23.0004Z" fill="black"/>
<path d="M24.5 11C25.3284 11 26 10.3284 26 9.49996C26 8.67153 25.3284 7.99996 24.5 7.99996C23.6716 7.99996 23 8.67153 23 9.49996C23 10.3284 23.6716 11 24.5 11Z" fill="black"/>
</svg>
