<svg xmlns="http://www.w3.org/2000/svg" width="32" height="32" viewBox="0 0 32 32"><path d="M27 4.25H22C21.2709 4.25079 20.5719 4.54078 20.0563 5.05633C19.5408 5.57189 19.2508 6.2709 19.25 7V9.275C19.166 9.27 19.085 9.25 18.998 9.25H6.00098C5.0069 9.25159 4.054 9.64718 3.35108 10.3501C2.64816 11.053 2.25256 12.0059 2.25098 13V19.997C2.25177 20.9914 2.64688 21.9449 3.34967 22.6485C4.05245 23.352 5.00556 23.7481 5.99998 23.75H8.95198L8.31398 25.58C8.24173 25.8334 8.22925 26.1 8.27752 26.359C8.32579 26.618 8.43349 26.8623 8.59216 27.0726C8.75082 27.2829 8.95612 27.4536 9.1919 27.5711C9.42768 27.6887 9.68752 27.7499 9.95098 27.75H15.046C15.3098 27.7512 15.5702 27.6906 15.8064 27.573C16.0426 27.4555 16.2479 27.2842 16.406 27.073C16.5685 26.8566 16.6772 26.6046 16.7233 26.3379C16.7694 26.0712 16.7514 25.7974 16.671 25.539L16.051 23.75H18.997C19.12 23.75 19.236 23.726 19.355 23.714C19.511 24.2968 19.8545 24.812 20.3326 25.18C20.8107 25.548 21.3967 25.7483 22 25.75H27C27.7291 25.7492 28.4281 25.4592 28.9436 24.9437C29.4592 24.4281 29.7492 23.7291 29.75 23V7C29.7492 6.2709 29.4592 5.57189 28.9436 5.05633C28.4281 4.54078 27.7291 4.25079 27 4.25ZM15.208 26.17C15.1895 26.195 15.1654 26.2153 15.1376 26.2292C15.1098 26.2431 15.0791 26.2502 15.048 26.25H9.95098C9.89483 26.2482 9.84163 26.2244 9.80275 26.1839C9.76388 26.1433 9.74242 26.0892 9.74298 26.033L10.54 23.75H14.462L15.242 25.992C15.2506 26.0222 15.2519 26.0539 15.2458 26.0847C15.2397 26.1155 15.2264 26.1444 15.207 26.169L15.208 26.17ZM18.998 22.25H6.00098C5.40422 22.2489 4.83223 22.0113 4.41045 21.5891C3.98866 21.167 3.75151 20.5948 3.75098 19.998V13.001C3.75177 12.4046 3.98891 11.8328 4.41045 11.4109C4.83199 10.989 5.40356 10.7513 5.99998 10.75H18.997C19.5939 10.7503 20.1664 10.9873 20.5887 11.4091C21.0111 11.8309 21.2489 12.4031 21.25 13V19.997C21.2494 20.5941 21.012 21.1666 20.5898 21.5888C20.1676 22.011 19.5951 22.2485 18.998 22.249V22.25ZM28.25 23C28.25 23.3315 28.1183 23.6495 27.8839 23.8839C27.6494 24.1183 27.3315 24.25 27 24.25H22C21.7182 24.2472 21.446 24.148 21.2284 23.969C21.0108 23.79 20.861 23.5419 20.804 23.266C21.3907 22.9453 21.8807 22.4731 22.2229 21.8987C22.5652 21.3243 22.7472 20.6686 22.75 20V13C22.7475 12.3206 22.56 11.6547 22.2077 11.0739C21.8553 10.493 21.3514 10.0191 20.75 9.703V7C20.7502 6.66856 20.882 6.35077 21.1164 6.11641C21.3507 5.88205 21.6685 5.75026 22 5.75H27C27.3314 5.75026 27.6492 5.88205 27.8836 6.11641C28.1179 6.35077 28.2497 6.66856 28.25 7V23Z M24.5 10.75C24.6642 10.75 24.8267 10.7177 24.9784 10.6548C25.13 10.592 25.2678 10.5 25.3839 10.3839C25.5 10.2678 25.592 10.13 25.6549 9.97835C25.7177 9.8267 25.75 9.66415 25.75 9.5C25.75 9.33585 25.7177 9.1733 25.6549 9.02165C25.592 8.86999 25.5 8.73219 25.3839 8.61612C25.2678 8.50004 25.13 8.40797 24.9784 8.34515C24.8267 8.28233 24.6642 8.25 24.5 8.25C24.1685 8.25 23.8505 8.3817 23.6161 8.61612C23.3817 8.85054 23.25 9.16848 23.25 9.5C23.25 9.83152 23.3817 10.1495 23.6161 10.3839C23.8505 10.6183 24.1685 10.75 24.5 10.75Z"/></svg>