<svg width="32" height="32" viewBox="0 0 32 32" fill="none" xmlns="http://www.w3.org/2000/svg">
<path d="M6.23121 22H25.7683C26.0837 21.9998 26.3954 21.9328 26.683 21.8034C26.9706 21.6739 27.2275 21.485 27.4368 21.2491C27.6461 21.0132 27.8029 20.7356 27.8971 20.4346C27.9913 20.1336 28.0206 19.8161 27.9832 19.5029C27.6285 16.765 26.3438 14.2321 24.3443 12.3284C22.3447 10.4248 19.7518 9.26599 16.9998 9.0462V6C16.9998 5.73478 16.8944 5.48043 16.7069 5.29289C16.5193 5.10536 16.265 5 15.9998 5C15.7345 5 15.4802 5.10536 15.2926 5.29289C15.1051 5.48043 14.9998 5.73478 14.9998 6V9.0462C12.2478 9.26607 9.65504 10.4249 7.65568 12.3285C5.65631 14.2322 4.37181 16.7651 4.01734 19.5029C3.97962 19.816 4.00873 20.1336 4.10275 20.4346C4.19677 20.7356 4.35356 21.0133 4.56278 21.2493C4.77199 21.4853 5.02888 21.6742 5.31647 21.8036C5.60407 21.933 5.91584 21.9999 6.23121 22ZM15.9998 11C18.4456 10.992 20.8103 11.8762 22.651 13.4868C24.4917 15.0973 25.6819 17.3238 25.9988 19.749C26.003 19.7807 26.0006 19.813 25.9919 19.8438C25.9832 19.8746 25.9683 19.9033 25.948 19.9282C25.9246 19.9519 25.8966 19.9705 25.8657 19.9828C25.8347 19.9952 25.8016 20.001 25.7683 20H6.23121C6.16313 20.0016 6.09717 19.9763 6.04766 19.9296C6.02834 19.9045 6.01432 19.8757 6.00642 19.845C5.99852 19.8143 5.99692 19.7823 6.00171 19.751C6.31785 17.3255 7.50772 15.0985 9.34828 13.4876C11.1888 11.8766 13.5538 10.9921 15.9998 11Z" fill="black"/>
<path d="M26.9998 25H4.99976C4.73454 25 4.48019 25.1054 4.29265 25.2929C4.10511 25.4804 3.99976 25.7348 3.99976 26C3.99976 26.2652 4.10511 26.5196 4.29265 26.7071C4.48019 26.8946 4.73454 27 4.99976 27H26.9998C27.265 27 27.5193 26.8946 27.7069 26.7071C27.8944 26.5196 27.9998 26.2652 27.9998 26C27.9998 25.7348 27.8944 25.4804 27.7069 25.2929C27.5193 25.1054 27.265 25 26.9998 25Z" fill="black"/>
</svg>
