<svg xmlns="http://www.w3.org/2000/svg" width="32" height="32" viewBox="0 0 32 32"><path d="M6.231 22H25.768C26.0833 21.9997 26.395 21.9326 26.6825 21.8031C26.97 21.6736 27.2269 21.4847 27.4361 21.2488C27.6454 21.0129 27.8023 20.7354 27.8966 20.4345C27.9908 20.1336 28.0203 19.8161 27.983 19.503C27.6282 16.7652 26.3435 14.2323 24.3441 12.3287C22.3447 10.425 19.7519 9.2661 17 9.046V6C17 5.73478 16.8946 5.48043 16.7071 5.29289C16.5196 5.10536 16.2652 5 16 5C15.7348 5 15.4804 5.10536 15.2929 5.29289C15.1054 5.48043 15 5.73478 15 6V9.046C12.2479 9.26574 9.65497 10.4245 7.65548 12.3283C5.65598 14.232 4.37143 16.765 4.017 19.503C3.97924 19.8161 4.00832 20.1337 4.10234 20.4347C4.19635 20.7358 4.35315 21.0135 4.56239 21.2495C4.77163 21.4854 5.02855 21.6744 5.31618 21.8037C5.60381 21.9331 5.91561 22 6.231 22ZM16 11C18.4459 10.9918 20.8108 11.8759 22.6515 13.4865C24.4922 15.0971 25.6824 17.3237 25.999 19.749C26.0033 19.7809 26.001 19.8133 25.9922 19.8443C25.9834 19.8753 25.9684 19.9041 25.948 19.929C25.9246 19.9527 25.8965 19.9712 25.8655 19.9834C25.8345 19.9957 25.8013 20.0013 25.768 20H6.231C6.16319 20.0015 6.09748 19.9764 6.048 19.93C6.02863 19.9048 6.01457 19.876 6.00666 19.8452C5.99876 19.8144 5.99717 19.7824 6.002 19.751C6.31814 17.3255 7.508 15.0986 9.34855 13.4876C11.1891 11.8766 13.554 10.9921 16 11ZM27 25H5C4.73478 25 4.48043 25.1054 4.29289 25.2929C4.10536 25.4804 4 25.7348 4 26C4 26.2652 4.10536 26.5196 4.29289 26.7071C4.48043 26.8946 4.73478 27 5 27H27C27.2652 27 27.5196 26.8946 27.7071 26.7071C27.8946 26.5196 28 26.2652 28 26C28 25.7348 27.8946 25.4804 27.7071 25.2929C27.5196 25.1054 27.2652 25 27 25Z"/></svg>