<svg xmlns="http://www.w3.org/2000/svg" width="32" height="32" viewBox="0 0 32 32"><path d="M12.707 7.70703L15 5.41403V13.003C15 13.2682 15.1054 13.5226 15.2929 13.7101C15.4805 13.8977 15.7348 14.003 16 14.003C16.2653 14.003 16.5196 13.8977 16.7071 13.7101C16.8947 13.5226 17 13.2682 17 13.003V5.41303L19.293 7.70703C19.4816 7.88919 19.7342 7.98998 19.9964 7.9877C20.2586 7.98543 20.5095 7.88026 20.6949 7.69485C20.8803 7.50944 20.9854 7.25863 20.9877 6.99643C20.99 6.73424 20.8892 6.48163 20.707 6.29303L16.707 2.29303C16.5195 2.10556 16.2652 2.00024 16 2.00024C15.7349 2.00024 15.4806 2.10556 15.293 2.29303L11.293 6.29303C11.1109 6.48163 11.0101 6.73424 11.0124 6.99643C11.0146 7.25863 11.1198 7.50944 11.3052 7.69485C11.4906 7.88026 11.7414 7.98543 12.0036 7.9877C12.2658 7.98998 12.5184 7.88919 12.707 7.70703Z M25 6.00293C24.7348 6.00293 24.4804 6.10829 24.2929 6.29582C24.1054 6.48336 24 6.73771 24 7.00293C24 7.26815 24.1054 7.5225 24.2929 7.71004C24.4804 7.89757 24.7348 8.00293 25 8.00293C25.7954 8.00372 26.558 8.32005 27.1204 8.88249C27.6829 9.44492 27.9992 10.2075 28 11.0029V23.0029C27.9992 23.7983 27.6829 24.5609 27.1204 25.1234C26.558 25.6858 25.7954 26.0021 25 26.0029H7C6.20468 26.0019 5.44223 25.6855 4.87985 25.1231C4.31747 24.5607 4.00106 23.7983 4 23.0029V11.0029C4.00079 10.2075 4.31712 9.44492 4.87956 8.88249C5.44199 8.32005 6.20459 8.00372 7 8.00293C7.26522 8.00293 7.51957 7.89757 7.70711 7.71004C7.89464 7.5225 8 7.26815 8 7.00293C8 6.73771 7.89464 6.48336 7.70711 6.29582C7.51957 6.10829 7.26522 6.00293 7 6.00293C5.6744 6.00452 4.40356 6.53181 3.46622 7.46915C2.52888 8.40649 2.00159 9.67734 2 11.0029V23.0029C2.00159 24.3285 2.52888 25.5994 3.46622 26.5367C4.40356 27.474 5.6744 28.0013 7 28.0029H25C26.3256 28.0013 27.5964 27.474 28.5338 26.5367C29.4711 25.5994 29.9984 24.3285 30 23.0029V11.0029C29.9984 9.67734 29.4711 8.40649 28.5338 7.46915C27.5964 6.53181 26.3256 6.00452 25 6.00293Z"/></svg>