<svg width="32" height="32" viewBox="0 0 32 32" fill="none" xmlns="http://www.w3.org/2000/svg">
<path d="M12.3535 7.35325L15.5 4.20676V13.0027C15.5 13.1353 15.5527 13.2624 15.6464 13.3562C15.7402 13.45 15.8674 13.5027 16 13.5027C16.1326 13.5027 16.2598 13.45 16.3536 13.3562C16.4473 13.2624 16.5 13.1353 16.5 13.0027V4.20676L19.6465 7.35325C19.7406 7.44544 19.8672 7.49679 19.999 7.49612C20.1307 7.49546 20.2568 7.44284 20.3499 7.3497C20.4431 7.25656 20.4957 7.13042 20.4964 6.9987C20.497 6.86699 20.4457 6.74033 20.3535 6.64625L16.3535 2.64625C16.3071 2.59981 16.252 2.56298 16.1913 2.53784C16.1307 2.51271 16.0657 2.49977 16 2.49977C15.9343 2.49977 15.8693 2.51271 15.8087 2.53784C15.748 2.56298 15.6929 2.59981 15.6465 2.64625L11.6465 6.64625C11.5543 6.74033 11.503 6.86699 11.5036 6.9987C11.5043 7.13042 11.5569 7.25656 11.6501 7.3497C11.7432 7.44284 11.8693 7.49546 12.001 7.49612C12.1328 7.49679 12.2595 7.44544 12.3535 7.35325Z" fill="black"/>
<path d="M25 6.50266C24.8674 6.50266 24.7402 6.55534 24.6464 6.64911C24.5527 6.74287 24.5 6.87005 24.5 7.00266C24.5 7.13527 24.5527 7.26245 24.6464 7.35621C24.7402 7.44998 24.8674 7.50266 25 7.50266C25.9279 7.50378 26.8175 7.87289 27.4736 8.52903C28.1298 9.18516 28.4989 10.0747 28.5 11.0027V23.0027C28.4989 23.9306 28.1298 24.8202 27.4736 25.4763C26.8175 26.1324 25.9279 26.5015 25 26.5027H7C6.07209 26.5015 5.1825 26.1324 4.52637 25.4763C3.87023 24.8202 3.50112 23.9306 3.5 23.0027V11.0027C3.50112 10.0747 3.87023 9.18516 4.52637 8.52903C5.1825 7.87289 6.07209 7.50378 7 7.50266C7.13261 7.50266 7.25979 7.44998 7.35355 7.35621C7.44732 7.26245 7.5 7.13527 7.5 7.00266C7.5 6.87005 7.44732 6.74287 7.35355 6.64911C7.25979 6.55534 7.13261 6.50266 7 6.50266C5.80693 6.50396 4.66309 6.97849 3.81946 7.82212C2.97583 8.66575 2.5013 9.80959 2.5 11.0027V23.0027C2.5013 24.1957 2.97583 25.3396 3.81946 26.1832C4.66309 27.0268 5.80693 27.5014 7 27.5027H25C26.1931 27.5014 27.3369 27.0268 28.1805 26.1832C29.0242 25.3396 29.4987 24.1957 29.5 23.0027V11.0027C29.4987 9.80959 29.0242 8.66575 28.1805 7.82212C27.3369 6.97849 26.1931 6.50396 25 6.50266Z" fill="black"/>
</svg>
