<svg xmlns="http://www.w3.org/2000/svg" width="32" height="32" viewBox="0 0 32 32"><path d="M25 5.5H7C4.5 5.5 2.5 7.5 2.5 10V22C2.5 24.5 4.5 26.5 7 26.5H25C27.5 26.5 29.5 24.5 29.5 22V10C29.5 7.5 27.5 5.5 25 5.5ZM20 19H25C25.6 19 26 19.4 26 20C26 20.6 25.6 21 25 21H20C19.4 21 19 20.6 19 20C19 19.4 19.4 19 20 19ZM18 16C18 15.4 18.4 15 19 15H25C25.6 15 26 15.4 26 16C26 16.6 25.6 17 25 17H19C18.4 17 18 16.6 18 16ZM25 13H18C17.4 13 17 12.6 17 12C17 11.4 17.4 11 18 11H25C25.6 11 26 11.4 26 12C26 12.6 25.6 13 25 13ZM11 16C13.1 16 14.8 17.4 15 19.4V19.5C15 20.3 13.2 21 11 21C8.8 21 7 20.3 7 19.5C7.1 17.4 8.9 16 11 16ZM9 12C9 10.9 9.9 10 11 10C12.1 10 13 10.9 13 12C13 13.1 12.1 14 11 14C9.9 14 9 13.1 9 12Z"/></svg>