<svg width="32" height="32" viewBox="0 0 32 32" fill="none" xmlns="http://www.w3.org/2000/svg">
<path d="M12.707 7.707L15 5.414V13.003C15 13.2682 15.1054 13.5226 15.2929 13.7101C15.4804 13.8976 15.7348 14.003 16 14.003C16.2652 14.003 16.5196 13.8976 16.7071 13.7101C16.8947 13.5226 17 13.2682 17 13.003V5.413L19.293 7.707C19.4816 7.88916 19.7342 7.98995 19.9964 7.98767C20.2586 7.9854 20.5094 7.88023 20.6948 7.69482C20.8802 7.50941 20.9854 7.2586 20.9877 6.9964C20.99 6.7342 20.8892 6.4816 20.707 6.293L16.707 2.293C16.5195 2.10553 16.2652 2.00021 16 2.00021C15.7348 2.00021 15.4805 2.10553 15.293 2.293L11.293 6.293C11.1109 6.4816 11.0101 6.7342 11.0123 6.9964C11.0146 7.2586 11.1198 7.50941 11.3052 7.69482C11.4906 7.88023 11.7414 7.9854 12.0036 7.98767C12.2658 7.98995 12.5184 7.88916 12.707 7.707V7.707Z" fill="#0F0F0F"/>
<path d="M25 6.00301C24.7348 6.00301 24.4804 6.10836 24.2929 6.2959C24.1054 6.48344 24 6.73779 24 7.00301C24 7.26822 24.1054 7.52258 24.2929 7.71011C24.4804 7.89765 24.7348 8.00301 25 8.00301C25.7954 8.0038 26.558 8.32013 27.1204 8.88256C27.6829 9.445 27.9992 10.2076 28 11.003V23.003C27.9992 23.7984 27.6829 24.561 27.1204 25.1234C26.558 25.6859 25.7954 26.0022 25 26.003H7C6.20468 26.0019 5.44223 25.6855 4.87985 25.1232C4.31747 24.5608 4.00106 23.7983 4 23.003V11.003C4.00079 10.2076 4.31712 9.445 4.87956 8.88256C5.44199 8.32013 6.20459 8.0038 7 8.00301C7.26522 8.00301 7.51957 7.89765 7.70711 7.71011C7.89464 7.52258 8 7.26822 8 7.00301C8 6.73779 7.89464 6.48344 7.70711 6.2959C7.51957 6.10836 7.26522 6.00301 7 6.00301C5.6744 6.00459 4.40356 6.53189 3.46622 7.46923C2.52888 8.40656 2.00159 9.67741 2 11.003V23.003C2.00159 24.3286 2.52888 25.5994 3.46622 26.5368C4.40356 27.4741 5.6744 28.0014 7 28.003H25C26.3256 28.0014 27.5964 27.4741 28.5338 26.5368C29.4711 25.5994 29.9984 24.3286 30 23.003V11.003C29.9984 9.67741 29.4711 8.40656 28.5338 7.46923C27.5964 6.53189 26.3256 6.00459 25 6.00301V6.00301Z" fill="#0F0F0F"/>
</svg>
