<svg width="32" height="32" viewBox="0 0 32 32" fill="none" xmlns="http://www.w3.org/2000/svg">
<path d="M24.9961 5.24969H7.004C5.74365 5.25119 4.53534 5.75253 3.64414 6.64374C2.75293 7.53494 2.2516 8.74325 2.2501 10.0036V21.9958C2.2516 23.2561 2.75294 24.4644 3.64414 25.3556C4.53535 26.2469 5.74365 26.7482 7.004 26.7497H24.9961C26.2565 26.7482 27.4648 26.2469 28.356 25.3557C29.2472 24.4644 29.7486 23.2561 29.7501 21.9958V10.0036C29.7486 8.74325 29.2472 7.53494 28.356 6.64374C27.4648 5.75253 26.2565 5.25119 24.9961 5.24969ZM28.2501 21.9958C28.2491 22.8585 27.9059 23.6856 27.2959 24.2956C26.6859 24.9056 25.8588 25.2487 24.9961 25.2497H7.004C6.14131 25.2487 5.31424 24.9056 4.70423 24.2956C4.09422 23.6856 3.75108 22.8585 3.7501 21.9958V10.0036C3.75108 9.14091 4.09422 8.31384 4.70423 7.70383C5.31424 7.09381 6.14131 6.75068 7.004 6.74969H24.9961C25.8588 6.75068 26.6859 7.09381 27.2959 7.70383C27.9059 8.31384 28.2491 9.14091 28.2501 10.0036V21.9958Z" fill="black"/>
<path d="M13.8553 15.7299C14.2935 15.2691 14.5868 14.69 14.699 14.0641C14.8113 13.4383 14.7375 12.7933 14.4868 12.209C14.2361 11.6247 13.8195 11.1268 13.2886 10.7769C12.7577 10.427 12.1359 10.2405 11.5001 10.2405C10.8642 10.2405 10.2424 10.427 9.71152 10.7769C9.18064 11.1268 8.76406 11.6247 8.51336 12.209C8.26266 12.7933 8.18886 13.4383 8.30109 14.0641C8.41332 14.69 8.70665 15.2691 9.14477 15.7299C8.33833 16.0052 7.63222 16.5145 7.11662 17.1929C6.60101 17.8714 6.29932 18.6881 6.25006 19.5388C6.25006 20.111 6.58795 20.8923 8.19781 21.3581C9.27585 21.6374 10.3866 21.7704 11.5001 21.7536C12.7315 21.7536 16.7501 21.5934 16.7501 19.5388C16.7008 18.6881 16.3991 17.8714 15.8835 17.1929C15.3679 16.5145 14.6618 16.0052 13.8553 15.7299ZM9.75006 13.5036C9.75006 13.1575 9.8527 12.8191 10.045 12.5314C10.2373 12.2436 10.5106 12.0193 10.8304 11.8868C11.1501 11.7544 11.502 11.7197 11.8415 11.7872C12.1809 11.8548 12.4928 12.0214 12.7375 12.2662C12.9822 12.5109 13.1489 12.8227 13.2164 13.1622C13.284 13.5017 13.2493 13.8535 13.1168 14.1733C12.9844 14.4931 12.7601 14.7664 12.4723 14.9587C12.1845 15.151 11.8462 15.2536 11.5001 15.2536C11.0361 15.253 10.5913 15.0685 10.2632 14.7404C9.93518 14.4124 9.75062 13.9676 9.75006 13.5036ZM11.5001 20.2536C9.17779 20.2536 7.8858 19.7468 7.75006 19.5388C7.75006 18.0026 9.43219 16.7536 11.5001 16.7536C13.5528 16.7536 15.2251 17.9851 15.2496 19.5046C15.0572 19.7683 13.7715 20.2536 11.5001 20.2536Z" fill="black"/>
<path d="M25.0001 11.2497H18.0001C17.8011 11.2497 17.6104 11.3287 17.4697 11.4694C17.3291 11.61 17.2501 11.8008 17.2501 11.9997C17.2501 12.1986 17.3291 12.3894 17.4697 12.53C17.6104 12.6707 17.8011 12.7497 18.0001 12.7497H25.0001C25.199 12.7497 25.3897 12.6707 25.5304 12.53C25.671 12.3894 25.7501 12.1986 25.7501 11.9997C25.7501 11.8008 25.671 11.61 25.5304 11.4694C25.3897 11.3287 25.199 11.2497 25.0001 11.2497Z" fill="black"/>
<path d="M25.0001 15.2497H19.0001C18.8011 15.2497 18.6104 15.3287 18.4697 15.4694C18.3291 15.61 18.2501 15.8008 18.2501 15.9997C18.2501 16.1986 18.3291 16.3894 18.4697 16.53C18.6104 16.6707 18.8011 16.7497 19.0001 16.7497H25.0001C25.199 16.7497 25.3897 16.6707 25.5304 16.53C25.671 16.3894 25.7501 16.1986 25.7501 15.9997C25.7501 15.8008 25.671 15.61 25.5304 15.4694C25.3897 15.3287 25.199 15.2497 25.0001 15.2497Z" fill="black"/>
<path d="M25.0001 19.2497H20.0001C19.8011 19.2497 19.6104 19.3287 19.4697 19.4694C19.3291 19.61 19.2501 19.8008 19.2501 19.9997C19.2501 20.1986 19.3291 20.3894 19.4697 20.53C19.6104 20.6707 19.8011 20.7497 20.0001 20.7497H25.0001C25.199 20.7497 25.3897 20.6707 25.5304 20.53C25.671 20.3894 25.7501 20.1986 25.7501 19.9997C25.7501 19.8008 25.671 19.61 25.5304 19.4694C25.3897 19.3287 25.199 19.2497 25.0001 19.2497Z" fill="black"/>
</svg>
