<svg width="32" height="32" viewBox="0 0 32 32" fill="none" xmlns="http://www.w3.org/2000/svg">
<path d="M18.0307 15.8395C18.6349 15.409 19.0867 14.7976 19.3209 14.0936C19.5551 13.3897 19.5595 12.6295 19.3335 11.9228C19.1075 11.2162 18.6628 10.5996 18.0636 10.1622C17.4644 9.72468 16.7417 9.48893 15.9998 9.48893C15.2579 9.48893 14.5352 9.72468 13.936 10.1622C13.3368 10.5996 12.8921 11.2162 12.6661 11.9228C12.4401 12.6295 12.4446 13.3897 12.6787 14.0936C12.9129 14.7976 13.3647 15.409 13.9689 15.8395C13.0034 16.1194 12.1498 16.6945 11.5276 17.4842C10.9055 18.2738 10.5461 19.2383 10.4998 20.2425C10.4998 20.7884 10.8318 21.5433 12.4129 22.0375C13.58 22.3638 14.7881 22.5194 15.9998 22.4994C18.5369 22.4994 21.4998 21.9085 21.4998 20.2425C21.4535 19.2383 21.0941 18.2738 20.472 17.4842C19.8499 16.6945 18.9962 16.1194 18.0307 15.8395ZM13.4998 13.0003C13.4998 12.5059 13.6464 12.0225 13.9211 11.6114C14.1958 11.2003 14.5863 10.8799 15.0431 10.6907C15.4999 10.5014 16.0026 10.4519 16.4875 10.5484C16.9725 10.6448 17.4179 10.883 17.7676 11.2326C18.1172 11.5822 18.3553 12.0277 18.4518 12.5126C18.5482 12.9976 18.4987 13.5002 18.3095 13.9571C18.1203 14.4139 17.7999 14.8043 17.3887 15.079C16.9776 15.3537 16.4943 15.5003 15.9998 15.5003C15.3369 15.4997 14.7014 15.2361 14.2327 14.7674C13.764 14.2987 13.5004 13.6632 13.4998 13.0003ZM15.9998 21.4994C13.3475 21.4994 11.4998 20.8372 11.4998 20.2425C11.4998 18.179 13.5184 16.5003 15.9998 16.5003C18.4812 16.5003 20.4998 18.179 20.4998 20.2425C20.4998 20.8373 18.6522 21.4994 15.9998 21.4994Z" fill="black"/>
<path d="M21.9998 3.50035H9.9998C8.89621 3.50378 7.83253 3.91352 7.01181 4.65133C6.1911 5.38914 5.67084 6.40335 5.55034 7.50035H2.9998C2.86719 7.50035 2.74002 7.55303 2.64625 7.6468C2.55248 7.74056 2.4998 7.86774 2.4998 8.00035C2.4998 8.13296 2.55248 8.26014 2.64625 8.3539C2.74002 8.44767 2.86719 8.50035 2.9998 8.50035H5.4998V15.5003H2.9998C2.86719 15.5003 2.74002 15.553 2.64625 15.6468C2.55248 15.7406 2.4998 15.8677 2.4998 16.0004C2.4998 16.133 2.55248 16.2601 2.64625 16.3539C2.74002 16.4477 2.86719 16.5004 2.9998 16.5004H5.4998V23.4995L2.9998 23.5003C2.86719 23.5003 2.74002 23.553 2.64625 23.6468C2.55248 23.7406 2.4998 23.8677 2.4998 24.0003C2.4998 24.133 2.55248 24.2601 2.64625 24.3539C2.74002 24.4477 2.86719 24.5003 2.9998 24.5003L5.55028 24.4995C5.6706 25.5967 6.19079 26.6111 7.01153 27.3491C7.83227 28.087 8.89607 28.4969 9.9998 28.5003H21.9998C23.1929 28.499 24.3367 28.0245 25.1803 27.1809C26.024 26.3373 26.4985 25.1934 26.4998 24.0003V8.00035C26.4985 6.80727 26.024 5.66344 25.1803 4.81981C24.3367 3.97617 23.1929 3.50165 21.9998 3.50035ZM25.4998 24.0003C25.4987 24.9283 25.1296 25.8178 24.4734 26.474C23.8173 27.1301 22.9277 27.4992 21.9998 27.5003H9.9998C9.07189 27.4992 8.18231 27.1301 7.52617 26.474C6.87004 25.8178 6.50093 24.9283 6.4998 24.0003V8.00035C6.50093 7.07244 6.87004 6.18285 7.52617 5.52672C8.1823 4.87058 9.07189 4.50147 9.9998 4.50035H21.9998C22.9277 4.50147 23.8173 4.87058 24.4734 5.52672C25.1296 6.18285 25.4987 7.07244 25.4998 8.00035V24.0003Z" fill="black"/>
</svg>
