<svg width="32" height="32" viewBox="0 0 32 32" fill="none" xmlns="http://www.w3.org/2000/svg">
<path d="M23 4.25H9C7.74066 4.25143 6.53331 4.75233 5.64282 5.64282C4.75233 6.53331 4.25143 7.74066 4.25 9V23C4.25146 24.2593 4.75237 25.4667 5.64285 26.3571C6.53333 27.2476 7.74067 27.7485 9 27.75H23C24.2593 27.7486 25.4667 27.2477 26.3572 26.3572C27.2477 25.4667 27.7486 24.2593 27.75 23V9C27.7486 7.74065 27.2477 6.53329 26.3572 5.64279C25.4667 4.7523 24.2593 4.2514 23 4.25ZM25.7583 7.3022C26.0775 7.81115 26.2478 8.39927 26.25 9V11.25H21.8108L25.7583 7.3022ZM20.3108 12.75H26.25V16.25H16.8108L20.3108 12.75ZM15.3108 17.75H26.25V21.25H11.8108L15.3108 17.75ZM5.75 9C5.75101 8.13836 6.09374 7.31229 6.70301 6.70301C7.31229 6.09374 8.13836 5.75101 9 5.75H23C23.6007 5.75218 24.1889 5.92251 24.6978 6.2417L6.2419 24.6977C5.9227 24.1888 5.7523 23.6007 5.75 23V9ZM23 26.25H9C8.3993 26.2478 7.81121 26.0774 7.3023 25.7583L10.3108 22.75H26.25V23C26.249 23.8616 25.9063 24.6877 25.297 25.297C24.6877 25.9063 23.8616 26.249 23 26.25Z" fill="black"/>
</svg>
