<svg xmlns="http://www.w3.org/2000/svg" width="32" height="32" viewBox="0 0 32 32"><path d="M22.618 16.8401C23.3336 16.4525 23.9543 15.9108 24.4351 15.2542C24.9159 14.5975 25.2449 13.8423 25.3984 13.0431C25.5519 12.2438 25.5259 11.4205 25.3225 10.6325C25.1191 9.84444 24.7432 9.11143 24.222 8.48634C23.7008 7.86126 23.0473 7.3597 22.3088 7.01788C21.5702 6.67607 20.7649 6.50251 19.9511 6.50976C19.1372 6.51701 18.3352 6.70487 17.6028 7.05979C16.8704 7.4147 16.226 7.92782 15.716 8.56208C15.906 8.06408 16.006 7.53608 16.011 7.00308C16.0133 6.21973 15.8111 5.44935 15.4244 4.76812C15.0376 4.08688 14.4798 3.51841 13.8059 3.11891C13.1321 2.71942 12.3657 2.50274 11.5824 2.49031C10.7992 2.47789 10.0262 2.67014 9.34006 3.04805C8.6539 3.42597 8.07827 3.97646 7.67011 4.64508C7.26196 5.3137 7.03541 6.07729 7.01288 6.86032C6.99035 7.64334 7.17262 8.41869 7.54165 9.10967C7.91068 9.80066 8.4537 10.3833 9.117 10.8001C5.309 11.7361 2.5 14.8441 2.5 18.5341C2.5 19.5081 3.016 20.8741 5.472 21.8521C7.19 22.4691 9 22.7941 10.825 22.8121C10.6125 23.5135 10.503 24.2422 10.5 24.9751C10.5 25.9971 11.043 27.4311 13.627 28.4591C15.6697 29.1907 17.8287 29.5439 19.998 29.5011C24.727 29.5011 29.497 28.1011 29.497 24.9741C29.497 21.1161 26.584 17.8581 22.618 16.8411V16.8401ZM19.998 7.50408C20.5889 7.50408 21.1741 7.62048 21.7201 7.84663C22.266 8.07277 22.7621 8.40424 23.18 8.8221C23.5978 9.23997 23.9293 9.73604 24.1555 10.282C24.3816 10.828 24.498 11.4131 24.498 12.0041C24.498 12.595 24.3816 13.1802 24.1555 13.7262C23.9293 14.2721 23.5978 14.7682 23.18 15.1861C22.7621 15.6039 22.266 15.9354 21.7201 16.1615C21.1741 16.3877 20.5889 16.5041 19.998 16.5041C18.8045 16.5041 17.6599 16.03 16.816 15.1861C15.9721 14.3421 15.498 13.1976 15.498 12.0041C15.498 10.8106 15.9721 9.66602 16.816 8.8221C17.6599 7.97819 18.8045 7.50408 19.998 7.50408ZM8.011 7.00408C8.011 6.07583 8.37975 5.18559 9.03613 4.52921C9.6925 3.87283 10.5827 3.50408 11.511 3.50408C12.4393 3.50408 13.3295 3.87283 13.9859 4.52921C14.6423 5.18559 15.011 6.07583 15.011 7.00408C15.011 7.93234 14.6423 8.82258 13.9859 9.47896C13.3295 10.1353 12.4393 10.5041 11.511 10.5041C10.5827 10.5041 9.6925 10.1353 9.03613 9.47896C8.37975 8.82258 8.011 7.93234 8.011 7.00408ZM3.5 18.5331C3.5 14.6571 7.089 11.5031 11.501 11.5031C12.523 11.5031 13.537 11.6771 14.5 12.0201C14.5036 13.0077 14.7729 13.9761 15.2797 14.8238C15.7864 15.6715 16.5118 16.3673 17.38 16.8381C16.0402 17.1552 14.7884 17.7683 13.7165 18.6323C12.6445 19.4963 11.7795 20.5892 11.185 21.8311C7.401 21.7701 3.5 20.6221 3.5 18.5331ZM19.998 28.5001C15.775 28.5001 11.5 27.2891 11.5 24.9741C11.5 20.8541 15.313 17.5041 19.998 17.5041C24.684 17.5041 28.498 20.8541 28.498 24.9741C28.497 27.2891 24.222 28.5001 19.998 28.5001Z"/></svg>