<svg xmlns="http://www.w3.org/2000/svg" width="32" height="32" viewBox="0 0 32 32"><path d="M12.53 7.53007L15.25 4.81007V13.0031C15.25 13.202 15.329 13.3928 15.4696 13.5334C15.6103 13.6741 15.8011 13.7531 16 13.7531C16.1989 13.7531 16.3896 13.6741 16.5303 13.5334C16.671 13.3928 16.75 13.202 16.75 13.0031V4.81007L19.47 7.53007C19.6121 7.66255 19.8002 7.73468 19.9945 7.73125C20.1888 7.72782 20.3742 7.64911 20.5116 7.51169C20.649 7.37428 20.7277 7.1889 20.7311 6.9946C20.7346 6.80029 20.6625 6.61225 20.53 6.47007L16.53 2.47007C16.3893 2.32962 16.1987 2.25073 16 2.25073C15.8012 2.25073 15.6106 2.32962 15.47 2.47007L11.47 6.47007C11.3375 6.61225 11.2654 6.80029 11.2688 6.9946C11.2722 7.1889 11.3509 7.37428 11.4883 7.51169C11.6258 7.64911 11.8111 7.72782 12.0054 7.73125C12.1997 7.73468 12.3878 7.66255 12.53 7.53007Z M25 6.25293C24.8011 6.25293 24.6103 6.33195 24.4697 6.4726C24.329 6.61325 24.25 6.80402 24.25 7.00293C24.25 7.20184 24.329 7.39261 24.4697 7.53326C24.6103 7.67391 24.8011 7.75293 25 7.75293C25.8616 7.75399 26.6877 8.09674 27.2969 8.706C27.9062 9.31527 28.2489 10.1413 28.25 11.0029V23.0029C28.2489 23.8646 27.9062 24.6906 27.2969 25.2999C26.6877 25.9091 25.8616 26.2519 25 26.2529H7C6.13837 26.2519 5.31234 25.9091 4.70307 25.2999C4.09381 24.6906 3.75106 23.8646 3.75 23.0029V11.0029C3.75106 10.1413 4.09381 9.31527 4.70307 8.706C5.31234 8.09674 6.13837 7.75399 7 7.75293C7.19891 7.75293 7.38968 7.67391 7.53033 7.53326C7.67098 7.39261 7.75 7.20184 7.75 7.00293C7.75 6.80402 7.67098 6.61325 7.53033 6.4726C7.38968 6.33195 7.19891 6.25293 7 6.25293C5.74063 6.25425 4.53322 6.75512 3.6427 7.64563C2.75219 8.53615 2.25132 9.74356 2.25 11.0029V23.0029C2.25132 24.2623 2.75219 25.4697 3.6427 26.3602C4.53322 27.2507 5.74063 27.7516 7 27.7529H25C26.2593 27.7513 27.4666 27.2504 28.357 26.3599C29.2475 25.4695 29.7484 24.2622 29.75 23.0029V11.0029C29.7487 9.74356 29.2478 8.53615 28.3573 7.64563C27.4668 6.75512 26.2594 6.25425 25 6.25293Z"/></svg>