<svg xmlns="http://www.w3.org/2000/svg" width="32" height="32" viewBox="0 0 32 32"><path d="M24.996 5H7.004C5.67734 5.00159 4.40548 5.5293 3.46739 6.46739C2.5293 7.40548 2.00159 8.67734 2 10.004V21.996C2.00159 23.3227 2.5293 24.5945 3.46739 25.5326C4.40548 26.4707 5.67734 26.9984 7.004 27H24.996C26.3227 26.9984 27.5945 26.4707 28.5326 25.5326C29.4707 24.5945 29.9984 23.3227 30 21.996V10.004C29.9984 8.67734 29.4707 7.40548 28.5326 6.46739C27.5945 5.5293 26.3227 5.00159 24.996 5ZM28 21.996C27.9989 22.7924 27.6821 23.5559 27.119 24.119C26.5559 24.6821 25.7924 24.9989 24.996 25H7.004C6.20761 24.9989 5.44415 24.6821 4.88102 24.119C4.31789 23.5559 4.00106 22.7924 4 21.996V10.004C4.00079 9.20753 4.31754 8.44392 4.88073 7.88073C5.44392 7.31754 6.20753 7.00079 7.004 7H24.996C25.7924 7.00106 26.5559 7.31789 27.119 7.88102C27.6821 8.44415 27.9989 9.20761 28 10.004V21.996Z M14.265 15.6249C14.7385 15.019 14.9971 14.2729 15 13.5039C15 12.5756 14.6313 11.6854 13.9749 11.029C13.3185 10.3727 12.4283 10.0039 11.5 10.0039C10.5717 10.0039 9.6815 10.3727 9.02513 11.029C8.36875 11.6854 8 12.5756 8 13.5039C8.003 14.2729 8.262 15.0189 8.735 15.6239C7.95502 15.9506 7.28387 16.4921 6.79968 17.1853C6.31549 17.8786 6.03816 18.6951 6 19.5399C6 20.1979 6.37 21.0899 8.128 21.5999C9.229 21.8849 10.363 22.0209 11.5 22.0049C13.154 22.0049 17 21.7649 17 19.5399C16.9613 18.6955 16.6838 17.8795 16.1996 17.1866C15.7155 16.4937 15.0446 15.9525 14.265 15.6259V15.6249ZM10 13.5039C10 13.1061 10.158 12.7246 10.4393 12.4432C10.7206 12.1619 11.1022 12.0039 11.5 12.0039C11.8978 12.0039 12.2794 12.1619 12.5607 12.4432C12.842 12.7246 13 13.1061 13 13.5039C13 13.9017 12.842 14.2833 12.5607 14.5646C12.2794 14.8459 11.8978 15.0039 11.5 15.0039C11.1022 15.0039 10.7206 14.8459 10.4393 14.5646C10.158 14.2833 10 13.9017 10 13.5039ZM11.453 20.0499C10.32 20.0499 9.105 19.8779 8.006 19.3969C8.111 18.0859 9.668 17.0039 11.5 17.0039C13.332 17.0039 14.89 18.0859 14.994 19.3969C13.895 19.8769 12.644 20.0509 11.454 20.0509L11.453 20.0499ZM25 10.9999H18C17.7348 10.9999 17.4804 11.1053 17.2929 11.2928C17.1054 11.4803 17 11.7347 17 11.9999C17 12.2651 17.1054 12.5195 17.2929 12.707C17.4804 12.8945 17.7348 12.9999 18 12.9999H25C25.2652 12.9999 25.5196 12.8945 25.7071 12.707C25.8946 12.5195 26 12.2651 26 11.9999C26 11.7347 25.8946 11.4803 25.7071 11.2928C25.5196 11.1053 25.2652 10.9999 25 10.9999ZM25 14.9999H19C18.7348 14.9999 18.4804 15.1053 18.2929 15.2928C18.1054 15.4803 18 15.7347 18 15.9999C18 16.2651 18.1054 16.5195 18.2929 16.707C18.4804 16.8946 18.7348 16.9999 19 16.9999H25C25.2652 16.9999 25.5196 16.8946 25.7071 16.707C25.8946 16.5195 26 16.2651 26 15.9999C26 15.7347 25.8946 15.4803 25.7071 15.2928C25.5196 15.1053 25.2652 14.9999 25 14.9999ZM25 18.9999H20C19.7348 18.9999 19.4804 19.1053 19.2929 19.2928C19.1054 19.4803 19 19.7347 19 19.9999C19 20.2651 19.1054 20.5195 19.2929 20.707C19.4804 20.8946 19.7348 20.9999 20 20.9999H25C25.2652 20.9999 25.5196 20.8946 25.7071 20.707C25.8946 20.5195 26 20.2651 26 19.9999C26 19.7347 25.8946 19.4803 25.7071 19.2928C25.5196 19.1053 25.2652 18.9999 25 18.9999Z"/></svg>