<svg width="32" height="32" viewBox="0 0 32 32" fill="none" xmlns="http://www.w3.org/2000/svg">
<path d="M23 4.5H9C7.80692 4.5013 6.66308 4.97582 5.81945 5.81945C4.97582 6.66308 4.5013 7.80692 4.5 9V23C4.50132 24.1931 4.97585 25.3369 5.81948 26.1805C6.66311 27.0241 7.80693 27.4987 9 27.5H23C24.1931 27.4987 25.3369 27.0242 26.1805 26.1805C27.0242 25.3369 27.4987 24.1931 27.5 23V9C27.4987 7.80692 27.0242 6.66308 26.1805 5.81945C25.3369 4.97582 24.1931 4.5013 23 4.5ZM20.2071 12.5H26.5V16.5H16.2073L20.2071 12.5ZM15.2071 17.5H26.5V21.5H11.2073L15.2071 17.5ZM26.5 11.5H21.2073L25.7936 6.9137C26.2496 7.51384 26.4976 8.24626 26.5 9V11.5ZM5.5 9C5.50111 8.07208 5.87022 7.18249 6.52635 6.52635C7.18249 5.87022 8.07208 5.50111 9 5.5H23C23.7538 5.50245 24.4862 5.75051 25.0863 6.2066L19.6471 11.6458L19.6459 11.6471L6.2069 25.0863C5.75069 24.4862 5.50252 23.7538 5.5 23V9ZM23 26.5H9C8.24624 26.4975 7.51382 26.2494 6.9137 25.7933L10.2073 22.5H26.5V23C26.4989 23.9279 26.1297 24.8175 25.4736 25.4736C24.8175 26.1297 23.9279 26.4989 23 26.5Z" fill="black"/>
</svg>
