<svg xmlns="http://www.w3.org/2000/svg" width="32" height="32" viewBox="0 0 32 32"><path d="M16 2.25C13.2805 2.25 10.6221 3.05642 8.36092 4.56729C6.09974 6.07816 4.33737 8.22562 3.29666 10.7381C2.25596 13.2506 1.98366 16.0153 2.51421 18.6825C3.04476 21.3497 4.35432 23.7997 6.27729 25.7227C8.20026 27.6457 10.6503 28.9553 13.3175 29.4858C15.9848 30.0163 18.7494 29.744 21.2619 28.7033C23.7744 27.6626 25.9218 25.9003 27.4327 23.6391C28.9436 21.3779 29.75 18.7195 29.75 16C29.7458 12.3546 28.2958 8.85967 25.718 6.28196C23.1403 3.70425 19.6454 2.25423 16 2.25ZM16 28.25C13.5772 28.25 11.2088 27.5316 9.19427 26.1855C7.17977 24.8395 5.60966 22.9263 4.68248 20.6879C3.75531 18.4495 3.51272 15.9864 3.98539 13.6101C4.45806 11.2339 5.62476 9.05114 7.33795 7.33794C9.05114 5.62475 11.2339 4.45805 13.6102 3.98538C15.9864 3.51271 18.4495 3.7553 20.6879 4.68248C22.9263 5.60965 24.8395 7.17976 26.1855 9.19426C27.5316 11.2088 28.25 13.5772 28.25 16C28.2463 19.2478 26.9545 22.3614 24.658 24.658C22.3615 26.9545 19.2478 28.2463 16 28.25Z M19.4699 15.47L16.7499 18.19V12C16.7499 11.8011 16.6709 11.6103 16.5302 11.4697C16.3896 11.329 16.1988 11.25 15.9999 11.25C15.801 11.25 15.6102 11.329 15.4696 11.4697C15.3289 11.6103 15.2499 11.8011 15.2499 12V18.19L12.5299 15.47C12.4612 15.3963 12.3784 15.3372 12.2864 15.2962C12.1944 15.2552 12.0951 15.2332 11.9944 15.2314C11.8937 15.2296 11.7937 15.2482 11.7003 15.2859C11.6069 15.3236 11.5221 15.3797 11.4509 15.451C11.3797 15.5222 11.3235 15.607 11.2858 15.7004C11.2481 15.7938 11.2295 15.8938 11.2313 15.9945C11.2331 16.0952 11.2551 16.1945 11.2961 16.2865C11.3371 16.3785 11.3962 16.4613 11.4699 16.53L15.4699 20.53C15.6105 20.6705 15.8012 20.7493 15.9999 20.7493C16.1987 20.7493 16.3893 20.6705 16.5299 20.53L20.5299 16.53C20.6624 16.3878 20.7345 16.1998 20.7311 16.0055C20.7277 15.8112 20.6489 15.6258 20.5115 15.4884C20.3741 15.351 20.1887 15.2723 19.9944 15.2688C19.8001 15.2654 19.6121 15.3375 19.4699 15.47Z"/></svg>