<svg xmlns="http://www.w3.org/2000/svg" width="32" height="32" viewBox="0 0 32 32"><path d="M16 2.5C13.33 2.5 10.7199 3.29176 8.49981 4.77516C6.27974 6.25856 4.54942 8.36697 3.52763 10.8338C2.50585 13.3006 2.2385 16.015 2.7594 18.6337C3.28031 21.2525 4.56606 23.6579 6.45406 25.5459C8.34207 27.434 10.7475 28.7197 13.3663 29.2406C15.985 29.7615 18.6994 29.4942 21.1662 28.4724C23.633 27.4506 25.7414 25.7203 27.2248 23.5002C28.7082 21.2801 29.5 18.67 29.5 16C29.496 12.4208 28.0724 8.98932 25.5416 6.45844C23.0107 3.92756 19.5792 2.50397 16 2.5ZM16 28.5C13.5277 28.5 11.111 27.7669 9.05538 26.3934C6.99976 25.0199 5.39761 23.0676 4.45151 20.7835C3.50542 18.4995 3.25787 15.9861 3.74019 13.5614C4.22251 11.1366 5.41302 8.90932 7.16117 7.16117C8.90933 5.41301 11.1366 4.2225 13.5614 3.74018C15.9861 3.25787 18.4995 3.50541 20.7835 4.45151C23.0676 5.3976 25.0199 6.99976 26.3934 9.05537C27.7669 11.111 28.5 13.5277 28.5 16C28.4963 19.3141 27.1781 22.4913 24.8347 24.8347C22.4913 27.1781 19.3141 28.4963 16 28.5Z M19.6469 15.647L16.4999 18.793V12C16.4999 11.8674 16.4473 11.7402 16.3535 11.6464C16.2597 11.5527 16.1326 11.5 15.9999 11.5C15.8673 11.5 15.7402 11.5527 15.6464 11.6464C15.5526 11.7402 15.4999 11.8674 15.4999 12V18.793L12.3539 15.647C12.2596 15.5559 12.1333 15.5055 12.0022 15.5067C11.8711 15.5078 11.7457 15.5604 11.653 15.6531C11.5603 15.7458 11.5077 15.8712 11.5066 16.0023C11.5055 16.1334 11.5559 16.2597 11.6469 16.354L15.6469 20.354C15.7407 20.4477 15.8679 20.5004 16.0004 20.5004C16.133 20.5004 16.2602 20.4477 16.3539 20.354L20.3539 16.354C20.445 16.2597 20.4954 16.1334 20.4943 16.0023C20.4931 15.8712 20.4406 15.7458 20.3479 15.6531C20.2552 15.5604 20.1297 15.5078 19.9986 15.5067C19.8676 15.5055 19.7412 15.5559 19.6469 15.647Z"/></svg>