<svg xmlns="http://www.w3.org/2000/svg" width="32" height="32" viewBox="0 0 32 32"><path d="M12.354 7.35291L15.5 4.2069V13.0029C15.5 13.1355 15.5526 13.2627 15.6464 13.3565C15.7402 13.4502 15.8674 13.5029 16 13.5029C16.1326 13.5029 16.2598 13.4502 16.3535 13.3565C16.4473 13.2627 16.5 13.1355 16.5 13.0029V4.2069L19.646 7.35291C19.7403 7.44398 19.8666 7.49438 19.9977 7.49324C20.1288 7.4921 20.2542 7.43952 20.3469 7.34681C20.4396 7.25411 20.4922 7.1287 20.4933 6.99761C20.4944 6.86651 20.4441 6.74021 20.353 6.6459L16.353 2.6459C16.2592 2.55217 16.1321 2.49951 15.9995 2.49951C15.8669 2.49951 15.7397 2.55217 15.646 2.6459L11.646 6.6459C11.5549 6.74021 11.5045 6.86651 11.5056 6.99761C11.5068 7.1287 11.5594 7.25411 11.6521 7.34681C11.7448 7.43952 11.8702 7.4921 12.0013 7.49324C12.1324 7.49438 12.2587 7.44398 12.353 7.35291H12.354Z M25 6.50293C24.8674 6.50293 24.7402 6.55561 24.6464 6.64938C24.5527 6.74314 24.5 6.87032 24.5 7.00293C24.5 7.13554 24.5527 7.26272 24.6464 7.35648C24.7402 7.45025 24.8674 7.50293 25 7.50293C25.9279 7.50399 26.8176 7.87308 27.4737 8.52923C28.1299 9.18537 28.4989 10.075 28.5 11.0029V23.0029C28.4989 23.9309 28.1299 24.8205 27.4737 25.4766C26.8176 26.1328 25.9279 26.5019 25 26.5029H7C6.07215 26.5016 5.18268 26.1324 4.52659 25.4763C3.8705 24.8203 3.50132 23.9308 3.5 23.0029V11.0029C3.50106 10.075 3.87015 9.18537 4.5263 8.52923C5.18244 7.87308 6.07207 7.50399 7 7.50293C7.13261 7.50293 7.25979 7.45025 7.35355 7.35648C7.44732 7.26272 7.5 7.13554 7.5 7.00293C7.5 6.87032 7.44732 6.74314 7.35355 6.64938C7.25979 6.55561 7.13261 6.50293 7 6.50293C5.80693 6.50425 4.66311 6.97878 3.81948 7.82241C2.97585 8.66604 2.50132 9.80986 2.5 11.0029V23.0029C2.50132 24.196 2.97585 25.3398 3.81948 26.1834C4.66311 27.0271 5.80693 27.5016 7 27.5029H25C26.1931 27.5016 27.3369 27.0271 28.1805 26.1834C29.0241 25.3398 29.4987 24.196 29.5 23.0029V11.0029C29.4987 9.80986 29.0241 8.66604 28.1805 7.82241C27.3369 6.97878 26.1931 6.50425 25 6.50293Z"/></svg>