<svg width="32" height="32" viewBox="0 0 32 32" fill="none" xmlns="http://www.w3.org/2000/svg">
<path d="M23.0001 1.99954H15.0001C13.6745 2.0011 12.4036 2.52838 11.4663 3.46573C10.5289 4.40307 10.0016 5.67394 10.0001 6.99954H9.00009C7.67449 7.0011 6.40362 7.52838 5.46628 8.46573C4.52893 9.40307 4.00165 10.6739 4.00009 11.9995V25.0054C4.00165 26.331 4.52893 27.6019 5.46628 28.5392C6.40362 29.4766 7.67449 30.0038 9.00009 30.0054H17.0001C18.3257 30.0038 19.5966 29.4766 20.5339 28.5392C21.4712 27.6019 21.9985 26.331 22.0001 25.0054V25.0025H23.0001C24.3257 25.0009 25.5966 24.4736 26.5339 23.5363C27.4712 22.5989 27.9985 21.3281 28.0001 20.0025V6.99954C27.9985 5.67394 27.4712 4.40307 26.5339 3.46573C25.5966 2.52839 24.3257 2.0011 23.0001 1.99954ZM20.0001 25.0054C19.9992 25.8008 19.6829 26.5633 19.1205 27.1258C18.558 27.6882 17.7955 28.0045 17.0001 28.0054H9.00009C8.20471 28.0045 7.44215 27.6882 6.87973 27.1258C6.31731 26.5633 6.00096 25.8008 6.00009 25.0054V11.9995C6.00096 11.2042 6.31731 10.4416 6.87973 9.87918C7.44215 9.31676 8.20471 9.00041 9.00009 8.99954H17.0001C17.7955 9.00041 18.558 9.31676 19.1205 9.87918C19.6829 10.4416 19.9992 11.2042 20.0001 11.9995V25.0054ZM26.0001 20.0025C25.9992 20.7979 25.6829 21.5604 25.1204 22.1228C24.558 22.6853 23.7955 23.0016 23.0001 23.0025H22.0001V11.9995C21.9985 10.6739 21.4712 9.40307 20.5339 8.46573C19.5966 7.52839 18.3257 7.0011 17.0001 6.99954H12.0001C12.001 6.20416 12.3173 5.4416 12.8797 4.87918C13.4422 4.31676 14.2047 4.00041 15.0001 3.99954H23.0001C23.7955 4.00041 24.558 4.31676 25.1205 4.87918C25.6829 5.4416 25.9992 6.20416 26.0001 6.99954V20.0025Z" fill="black"/>
</svg>
