<svg xmlns="http://www.w3.org/2000/svg" width="32" height="32" viewBox="0 0 32 32"><path d="M23 2.25H15C13.7407 2.25159 12.5335 2.75254 11.643 3.643C10.7525 4.53345 10.2516 5.74071 10.25 7V7.25H9C7.74063 7.25132 6.53322 7.75219 5.6427 8.6427C4.75219 9.53322 4.25132 10.7406 4.25 12V25.005C4.25159 26.2643 4.75254 27.4715 5.643 28.362C6.53345 29.2525 7.74071 29.7534 9 29.755H17C18.2594 29.7537 19.4668 29.2528 20.3573 28.3623C21.2478 27.4718 21.7487 26.2644 21.75 25.005V24.753H23C24.2593 24.7514 25.4666 24.2505 26.357 23.36C27.2475 22.4696 27.7484 21.2623 27.75 20.003V7C27.7487 5.74063 27.2478 4.53322 26.3573 3.6427C25.4668 2.75219 24.2594 2.25132 23 2.25ZM20.25 25.005C20.2489 25.8666 19.9062 26.6927 19.2969 27.3019C18.6877 27.9112 17.8616 28.2539 17 28.255H9C8.13837 28.2539 7.31234 27.9112 6.70307 27.3019C6.09381 26.6927 5.75106 25.8666 5.75 25.005V12C5.75106 11.1384 6.09381 10.3123 6.70307 9.70307C7.31234 9.09381 8.13837 8.75106 9 8.75H17C17.8616 8.75106 18.6877 9.09381 19.2969 9.70307C19.9062 10.3123 20.2489 11.1384 20.25 12V25.005ZM26.25 20.003C26.2489 20.8646 25.9062 21.6907 25.2969 22.2999C24.6877 22.9092 23.8616 23.2519 23 23.253H21.75V11.999C21.7484 10.7398 21.2474 9.53265 20.3569 8.64235C19.4665 7.75206 18.2592 7.25132 17 7.25H11.75V7C11.7511 6.13837 12.0938 5.31234 12.7031 4.70307C13.3123 4.09381 14.1384 3.75106 15 3.75H23C23.8616 3.75106 24.6877 4.09381 25.2969 4.70307C25.9062 5.31234 26.2489 6.13837 26.25 7V20.004V20.003Z"/></svg>