<svg width="32" height="32" viewBox="0 0 32 32" fill="none" xmlns="http://www.w3.org/2000/svg">
<path d="M23.0001 2.24954H15.0001C13.7408 2.25097 12.5334 2.75187 11.6429 3.64236C10.7524 4.53285 10.2515 5.7402 10.2501 6.99954V7.24954H9.00009C7.74075 7.25097 6.5334 7.75187 5.64291 8.64236C4.75242 9.53285 4.25152 10.7402 4.25009 11.9995V25.0054C4.25152 26.2647 4.75242 27.4721 5.64291 28.3626C6.5334 29.2531 7.74075 29.754 9.00009 29.7554H17.0001C18.2594 29.754 19.4668 29.2531 20.3573 28.3626C21.2478 27.4721 21.7487 26.2647 21.7501 25.0054V24.7525H23.0001C24.2594 24.751 25.4668 24.2501 26.3573 23.3596C27.2478 22.4692 27.7487 21.2618 27.7501 20.0025V6.99954C27.7487 5.7402 27.2478 4.53285 26.3573 3.64236C25.4668 2.75187 24.2594 2.25097 23.0001 2.24954ZM20.2501 25.0054C20.2491 25.867 19.9064 26.6931 19.2971 27.3024C18.6878 27.9117 17.8617 28.2544 17.0001 28.2554H9.00009C8.13844 28.2544 7.31237 27.9117 6.7031 27.3024C6.09382 26.6931 5.75109 25.867 5.75009 25.0054V11.9995C5.75109 11.1379 6.09382 10.3118 6.70309 9.70254C7.31237 9.09326 8.13844 8.75053 9.00009 8.74954H17.0001C17.8617 8.75053 18.6878 9.09326 19.2971 9.70254C19.9064 10.3118 20.2491 11.1379 20.2501 11.9995V25.0054ZM26.2501 20.0025C26.2491 20.8641 25.9064 21.6902 25.2971 22.2995C24.6878 22.9087 23.8617 23.2515 23.0001 23.2525H21.7501V11.9995C21.7487 10.7402 21.2478 9.53285 20.3573 8.64236C19.4668 7.75187 18.2594 7.25097 17.0001 7.24954H11.7501V6.99954C11.7511 6.13789 12.0938 5.31182 12.7031 4.70254C13.3124 4.09326 14.1384 3.75053 15.0001 3.74954H23.0001C23.8617 3.75053 24.6878 4.09326 25.2971 4.70254C25.9064 5.31182 26.2491 6.13789 26.2501 6.99954V20.0025Z" fill="black"/>
</svg>
