<svg xmlns="http://www.w3.org/2000/svg" width="32" height="32" viewBox="0 0 32 32"><path d="M20 8.25H12C11.0058 8.25132 10.0528 8.64684 9.34981 9.34981C8.64684 10.0528 8.25132 11.0058 8.25 12V20C8.25132 20.9942 8.64684 21.9472 9.34981 22.6502C10.0528 23.3532 11.0058 23.7487 12 23.75H20C20.9942 23.7489 21.9474 23.3535 22.6505 22.6505C23.3535 21.9474 23.7489 20.9942 23.75 20V12C23.7489 11.0058 23.3535 10.0526 22.6505 9.34952C21.9474 8.64649 20.9942 8.25106 20 8.25ZM22.25 20C22.2492 20.5965 22.0119 21.1683 21.5901 21.5901C21.1683 22.0119 20.5965 22.2492 20 22.25H12C11.4035 22.2492 10.8317 22.0119 10.4099 21.5901C9.9881 21.1683 9.75079 20.5965 9.75 20V12C9.75079 11.4035 9.9881 10.8317 10.4099 10.4099C10.8317 9.9881 11.4035 9.75079 12 9.75H20C20.5965 9.75079 21.1683 9.9881 21.5901 10.4099C22.0119 10.8317 22.2492 11.4035 22.25 12V20ZM14.01 26.25C13.8111 26.25 13.6203 26.329 13.4797 26.4697C13.339 26.6103 13.26 26.8011 13.26 27V29C13.26 29.1989 13.339 29.3897 13.4797 29.5303C13.6203 29.671 13.8111 29.75 14.01 29.75C14.2089 29.75 14.3997 29.671 14.5403 29.5303C14.681 29.3897 14.76 29.1989 14.76 29V27C14.76 26.8011 14.681 26.6103 14.5403 26.4697C14.3997 26.329 14.2089 26.25 14.01 26.25ZM10 26.25C9.80109 26.25 9.61032 26.329 9.46967 26.4697C9.32902 26.6103 9.25 26.8011 9.25 27V29C9.25 29.1989 9.32902 29.3897 9.46967 29.5303C9.61032 29.671 9.80109 29.75 10 29.75C10.1989 29.75 10.3897 29.671 10.5303 29.5303C10.671 29.3897 10.75 29.1989 10.75 29V27C10.75 26.8011 10.671 26.6103 10.5303 26.4697C10.3897 26.329 10.1989 26.25 10 26.25ZM18 26.25C17.8011 26.25 17.6103 26.329 17.4697 26.4697C17.329 26.6103 17.25 26.8011 17.25 27V29C17.25 29.1989 17.329 29.3897 17.4697 29.5303C17.6103 29.671 17.8011 29.75 18 29.75C18.1989 29.75 18.3897 29.671 18.5303 29.5303C18.671 29.3897 18.75 29.1989 18.75 29V27C18.75 26.8011 18.671 26.6103 18.5303 26.4697C18.3897 26.329 18.1989 26.25 18 26.25ZM22 26.25C21.8011 26.25 21.6103 26.329 21.4697 26.4697C21.329 26.6103 21.25 26.8011 21.25 27V29C21.25 29.1989 21.329 29.3897 21.4697 29.5303C21.6103 29.671 21.8011 29.75 22 29.75C22.1989 29.75 22.3897 29.671 22.5303 29.5303C22.671 29.3897 22.75 29.1989 22.75 29V27C22.75 26.8011 22.671 26.6103 22.5303 26.4697C22.3897 26.329 22.1989 26.25 22 26.25ZM14.01 5.75C14.2089 5.75 14.3997 5.67098 14.5403 5.53033C14.681 5.38968 14.76 5.19891 14.76 5V3C14.76 2.80109 14.681 2.61032 14.5403 2.46967C14.3997 2.32902 14.2089 2.25 14.01 2.25C13.8111 2.25 13.6203 2.32902 13.4797 2.46967C13.339 2.61032 13.26 2.80109 13.26 3V5C13.26 5.19891 13.339 5.38968 13.4797 5.53033C13.6203 5.67098 13.8111 5.75 14.01 5.75ZM10 5.75C10.1989 5.75 10.3897 5.67098 10.5303 5.53033C10.671 5.38968 10.75 5.19891 10.75 5V3C10.75 2.80109 10.671 2.61032 10.5303 2.46967C10.3897 2.32902 10.1989 2.25 10 2.25C9.80109 2.25 9.61032 2.32902 9.46967 2.46967C9.32902 2.61032 9.25 2.80109 9.25 3V5C9.25 5.19891 9.32902 5.38968 9.46967 5.53033C9.61032 5.67098 9.80109 5.75 10 5.75ZM18 5.75C18.1989 5.75 18.3897 5.67098 18.5303 5.53033C18.671 5.38968 18.75 5.19891 18.75 5V3C18.75 2.80109 18.671 2.61032 18.5303 2.46967C18.3897 2.32902 18.1989 2.25 18 2.25C17.8011 2.25 17.6103 2.32902 17.4697 2.46967C17.329 2.61032 17.25 2.80109 17.25 3V5C17.25 5.19891 17.329 5.38968 17.4697 5.53033C17.6103 5.67098 17.8011 5.75 18 5.75ZM22 5.75C22.1989 5.75 22.3897 5.67098 22.5303 5.53033C22.671 5.38968 22.75 5.19891 22.75 5V3C22.75 2.80109 22.671 2.61032 22.5303 2.46967C22.3897 2.32902 22.1989 2.25 22 2.25C21.8011 2.25 21.6103 2.32902 21.4697 2.46967C21.329 2.61032 21.25 2.80109 21.25 3V5C21.25 5.19891 21.329 5.38968 21.4697 5.53033C21.6103 5.67098 21.8011 5.75 22 5.75ZM5 13.26H3C2.80109 13.26 2.61032 13.339 2.46967 13.4797C2.32902 13.6203 2.25 13.8111 2.25 14.01C2.25 14.2089 2.32902 14.3997 2.46967 14.5403C2.61032 14.681 2.80109 14.76 3 14.76H5C5.19891 14.76 5.38968 14.681 5.53033 14.5403C5.67098 14.3997 5.75 14.2089 5.75 14.01C5.75 13.8111 5.67098 13.6203 5.53033 13.4797C5.38968 13.339 5.19891 13.26 5 13.26ZM5 9.25H3C2.80109 9.25 2.61032 9.32902 2.46967 9.46967C2.32902 9.61032 2.25 9.80109 2.25 10C2.25 10.1989 2.32902 10.3897 2.46967 10.5303C2.61032 10.671 2.80109 10.75 3 10.75H5C5.19891 10.75 5.38968 10.671 5.53033 10.5303C5.67098 10.3897 5.75 10.1989 5.75 10C5.75 9.80109 5.67098 9.61032 5.53033 9.46967C5.38968 9.32902 5.19891 9.25 5 9.25ZM5 17.25H3C2.80109 17.25 2.61032 17.329 2.46967 17.4697C2.32902 17.6103 2.25 17.8011 2.25 18C2.25 18.1989 2.32902 18.3897 2.46967 18.5303C2.61032 18.671 2.80109 18.75 3 18.75H5C5.19891 18.75 5.38968 18.671 5.53033 18.5303C5.67098 18.3897 5.75 18.1989 5.75 18C5.75 17.8011 5.67098 17.6103 5.53033 17.4697C5.38968 17.329 5.19891 17.25 5 17.25ZM5 21.25H3C2.80109 21.25 2.61032 21.329 2.46967 21.4697C2.32902 21.6103 2.25 21.8011 2.25 22C2.25 22.1989 2.32902 22.3897 2.46967 22.5303C2.61032 22.671 2.80109 22.75 3 22.75H5C5.19891 22.75 5.38968 22.671 5.53033 22.5303C5.67098 22.3897 5.75 22.1989 5.75 22C5.75 21.8011 5.67098 21.6103 5.53033 21.4697C5.38968 21.329 5.19891 21.25 5 21.25ZM29 13.26H27C26.8011 13.26 26.6103 13.339 26.4697 13.4797C26.329 13.6203 26.25 13.8111 26.25 14.01C26.25 14.2089 26.329 14.3997 26.4697 14.5403C26.6103 14.681 26.8011 14.76 27 14.76H29C29.1989 14.76 29.3897 14.681 29.5303 14.5403C29.671 14.3997 29.75 14.2089 29.75 14.01C29.75 13.8111 29.671 13.6203 29.5303 13.4797C29.3897 13.339 29.1989 13.26 29 13.26ZM27 10.75H29C29.1989 10.75 29.3897 10.671 29.5303 10.5303C29.671 10.3897 29.75 10.1989 29.75 10C29.75 9.80109 29.671 9.61032 29.5303 9.46967C29.3897 9.32902 29.1989 9.25 29 9.25H27C26.8011 9.25 26.6103 9.32902 26.4697 9.46967C26.329 9.61032 26.25 9.80109 26.25 10C26.25 10.1989 26.329 10.3897 26.4697 10.5303C26.6103 10.671 26.8011 10.75 27 10.75ZM29 17.25H27C26.8011 17.25 26.6103 17.329 26.4697 17.4697C26.329 17.6103 26.25 17.8011 26.25 18C26.25 18.1989 26.329 18.3897 26.4697 18.5303C26.6103 18.671 26.8011 18.75 27 18.75H29C29.1989 18.75 29.3897 18.671 29.5303 18.5303C29.671 18.3897 29.75 18.1989 29.75 18C29.75 17.8011 29.671 17.6103 29.5303 17.4697C29.3897 17.329 29.1989 17.25 29 17.25ZM29 21.25H27C26.8011 21.25 26.6103 21.329 26.4697 21.4697C26.329 21.6103 26.25 21.8011 26.25 22C26.25 22.1989 26.329 22.3897 26.4697 22.5303C26.6103 22.671 26.8011 22.75 27 22.75H29C29.1989 22.75 29.3897 22.671 29.5303 22.5303C29.671 22.3897 29.75 22.1989 29.75 22C29.75 21.8011 29.671 21.6103 29.5303 21.4697C29.3897 21.329 29.1989 21.25 29 21.25Z"/></svg>