<svg width="32" height="32" viewBox="0 0 32 32" fill="none" xmlns="http://www.w3.org/2000/svg">
<path d="M19.9998 8.2498H11.9998C11.0056 8.25097 10.0525 8.64644 9.34944 9.34944C8.64644 10.0525 8.25097 11.0056 8.2498 11.9998V19.9998C8.25105 20.994 8.64654 21.9471 9.34953 22.6501C10.0525 23.3531 11.0056 23.7486 11.9998 23.7498H19.9998C20.994 23.7486 21.9471 23.3531 22.6501 22.6501C23.3531 21.9471 23.7486 20.994 23.7498 19.9998V11.9998C23.7486 11.0056 23.3532 10.0524 22.6502 9.34944C21.9472 8.64643 20.994 8.25097 19.9998 8.2498ZM22.2498 19.9998C22.249 20.5963 22.0117 21.1681 21.5899 21.5899C21.1681 22.0117 20.5963 22.249 19.9998 22.2498H11.9998C11.4033 22.249 10.8315 22.0117 10.4097 21.5899C9.98794 21.1681 9.75062 20.5963 9.7498 19.9998V11.9998C9.75054 11.4033 9.98783 10.8314 10.4096 10.4096C10.8314 9.98783 11.4033 9.75054 11.9998 9.7498H19.9998C20.5963 9.75053 21.1682 9.98782 21.59 10.4096C22.0118 10.8314 22.2491 11.4033 22.2498 11.9998V19.9998Z" fill="black"/>
<path d="M14.0106 26.2498C13.8117 26.2499 13.6209 26.3289 13.4803 26.4695C13.3396 26.6102 13.2606 26.8009 13.2606 26.9998V28.9998C13.2606 29.1987 13.3396 29.3895 13.4802 29.5301C13.6209 29.6708 13.8116 29.7498 14.0106 29.7498C14.2095 29.7498 14.4002 29.6708 14.5409 29.5301C14.6815 29.3895 14.7606 29.1987 14.7606 28.9998V26.9998C14.7605 26.8009 14.6815 26.6102 14.5408 26.4695C14.4002 26.3289 14.2094 26.2499 14.0106 26.2498Z" fill="black"/>
<path d="M9.9998 26.2498C9.80091 26.2499 9.61017 26.3289 9.46953 26.4695C9.32889 26.6102 9.24985 26.8009 9.2498 26.9998V28.9998C9.2498 29.1987 9.32882 29.3895 9.46947 29.5301C9.61012 29.6708 9.80089 29.7498 9.9998 29.7498C10.1987 29.7498 10.3895 29.6708 10.5301 29.5301C10.6708 29.3895 10.7498 29.1987 10.7498 28.9998V26.9998C10.7498 26.8009 10.6707 26.6102 10.5301 26.4695C10.3894 26.3289 10.1987 26.2499 9.9998 26.2498Z" fill="black"/>
<path d="M17.9998 26.2498C17.8009 26.2499 17.6102 26.3289 17.4695 26.4695C17.3289 26.6102 17.2499 26.8009 17.2498 26.9998V28.9998C17.2498 29.1987 17.3288 29.3895 17.4695 29.5301C17.6101 29.6708 17.8009 29.7498 17.9998 29.7498C18.1987 29.7498 18.3895 29.6708 18.5301 29.5301C18.6708 29.3895 18.7498 29.1987 18.7498 28.9998V26.9998C18.7498 26.8009 18.6707 26.6102 18.5301 26.4695C18.3894 26.3289 18.1987 26.2499 17.9998 26.2498Z" fill="black"/>
<path d="M21.9998 26.2498C21.8009 26.2499 21.6102 26.3289 21.4695 26.4695C21.3289 26.6102 21.2499 26.8009 21.2498 26.9998V28.9998C21.2498 29.1987 21.3288 29.3895 21.4695 29.5301C21.6101 29.6708 21.8009 29.7498 21.9998 29.7498C22.1987 29.7498 22.3895 29.6708 22.5301 29.5301C22.6708 29.3895 22.7498 29.1987 22.7498 28.9998V26.9998C22.7498 26.8009 22.6707 26.6102 22.5301 26.4695C22.3894 26.3289 22.1987 26.2499 21.9998 26.2498Z" fill="black"/>
<path d="M14.0106 5.7498C14.2094 5.74975 14.4002 5.67072 14.5408 5.53008C14.6815 5.38943 14.7605 5.1987 14.7606 4.9998V2.9998C14.7606 2.80089 14.6815 2.61012 14.5409 2.46947C14.4002 2.32882 14.2095 2.2498 14.0106 2.2498C13.8116 2.2498 13.6209 2.32882 13.4802 2.46947C13.3396 2.61012 13.2606 2.80089 13.2606 2.9998V4.9998C13.2606 5.1987 13.3396 5.38944 13.4803 5.53008C13.6209 5.67072 13.8117 5.74975 14.0106 5.7498Z" fill="black"/>
<path d="M9.9998 5.7498C10.1987 5.74975 10.3894 5.67072 10.5301 5.53008C10.6707 5.38944 10.7498 5.1987 10.7498 4.9998V2.9998C10.7498 2.80089 10.6708 2.61012 10.5301 2.46947C10.3895 2.32882 10.1987 2.2498 9.9998 2.2498C9.80089 2.2498 9.61012 2.32882 9.46947 2.46947C9.32882 2.61012 9.2498 2.80089 9.2498 2.9998V4.9998C9.24985 5.1987 9.32889 5.38943 9.46953 5.53008C9.61017 5.67072 9.8009 5.74975 9.9998 5.7498Z" fill="black"/>
<path d="M17.9998 5.7498C18.1987 5.74975 18.3894 5.67072 18.5301 5.53008C18.6707 5.38944 18.7498 5.1987 18.7498 4.9998V2.9998C18.7498 2.80089 18.6708 2.61012 18.5301 2.46947C18.3895 2.32882 18.1987 2.2498 17.9998 2.2498C17.8009 2.2498 17.6101 2.32882 17.4695 2.46947C17.3288 2.61012 17.2498 2.80089 17.2498 2.9998V4.9998C17.2499 5.1987 17.3289 5.38943 17.4695 5.53008C17.6102 5.67072 17.8009 5.74975 17.9998 5.7498Z" fill="black"/>
<path d="M21.9998 5.7498C22.1987 5.74975 22.3894 5.67072 22.5301 5.53008C22.6707 5.38944 22.7498 5.1987 22.7498 4.9998V2.9998C22.7498 2.80089 22.6708 2.61012 22.5301 2.46947C22.3895 2.32882 22.1987 2.2498 21.9998 2.2498C21.8009 2.2498 21.6101 2.32882 21.4695 2.46947C21.3288 2.61012 21.2498 2.80089 21.2498 2.9998V4.9998C21.2499 5.1987 21.3289 5.38943 21.4695 5.53008C21.6102 5.67072 21.8009 5.74975 21.9998 5.7498Z" fill="black"/>
<path d="M4.9998 13.2601H2.9998C2.80089 13.2601 2.61012 13.3391 2.46947 13.4797C2.32882 13.6204 2.2498 13.8111 2.2498 14.0101C2.2498 14.209 2.32882 14.3997 2.46947 14.5404C2.61012 14.681 2.80089 14.7601 2.9998 14.7601H4.9998C5.19871 14.7601 5.38948 14.681 5.53013 14.5404C5.67078 14.3997 5.7498 14.209 5.7498 14.0101C5.7498 13.8111 5.67078 13.6204 5.53013 13.4797C5.38948 13.3391 5.19871 13.2601 4.9998 13.2601Z" fill="black"/>
<path d="M4.9998 9.2498H2.9998C2.80089 9.2498 2.61012 9.32882 2.46947 9.46947C2.32882 9.61012 2.2498 9.80089 2.2498 9.9998C2.2498 10.1987 2.32882 10.3895 2.46947 10.5301C2.61012 10.6708 2.80089 10.7498 2.9998 10.7498H4.9998C5.19871 10.7498 5.38948 10.6708 5.53013 10.5301C5.67078 10.3895 5.7498 10.1987 5.7498 9.9998C5.7498 9.80089 5.67078 9.61012 5.53013 9.46947C5.38948 9.32882 5.19871 9.2498 4.9998 9.2498Z" fill="black"/>
<path d="M4.9998 17.2498H2.9998C2.80089 17.2498 2.61012 17.3288 2.46947 17.4695C2.32882 17.6101 2.2498 17.8009 2.2498 17.9998C2.2498 18.1987 2.32882 18.3895 2.46947 18.5301C2.61012 18.6708 2.80089 18.7498 2.9998 18.7498H4.9998C5.19871 18.7498 5.38948 18.6708 5.53013 18.5301C5.67078 18.3895 5.7498 18.1987 5.7498 17.9998C5.7498 17.8009 5.67078 17.6101 5.53013 17.4695C5.38948 17.3288 5.19871 17.2498 4.9998 17.2498Z" fill="black"/>
<path d="M4.9998 21.2498H2.9998C2.80089 21.2498 2.61012 21.3288 2.46947 21.4695C2.32882 21.6101 2.2498 21.8009 2.2498 21.9998C2.2498 22.1987 2.32882 22.3895 2.46947 22.5301C2.61012 22.6708 2.80089 22.7498 2.9998 22.7498H4.9998C5.19871 22.7498 5.38948 22.6708 5.53013 22.5301C5.67078 22.3895 5.7498 22.1987 5.7498 21.9998C5.7498 21.8009 5.67078 21.6101 5.53013 21.4695C5.38948 21.3288 5.19871 21.2498 4.9998 21.2498Z" fill="black"/>
<path d="M28.9998 13.2601H26.9998C26.8009 13.2601 26.6101 13.3391 26.4695 13.4797C26.3288 13.6204 26.2498 13.8111 26.2498 14.0101C26.2498 14.209 26.3288 14.3997 26.4695 14.5404C26.6101 14.681 26.8009 14.7601 26.9998 14.7601H28.9998C29.1987 14.7601 29.3895 14.681 29.5301 14.5404C29.6708 14.3997 29.7498 14.209 29.7498 14.0101C29.7498 13.8111 29.6708 13.6204 29.5301 13.4797C29.3895 13.3391 29.1987 13.2601 28.9998 13.2601Z" fill="black"/>
<path d="M26.9998 10.7498H28.9998C29.1987 10.7498 29.3895 10.6708 29.5301 10.5301C29.6708 10.3895 29.7498 10.1987 29.7498 9.9998C29.7498 9.80089 29.6708 9.61012 29.5301 9.46947C29.3895 9.32882 29.1987 9.2498 28.9998 9.2498H26.9998C26.8009 9.2498 26.6101 9.32882 26.4695 9.46947C26.3288 9.61012 26.2498 9.80089 26.2498 9.9998C26.2498 10.1987 26.3288 10.3895 26.4695 10.5301C26.6101 10.6708 26.8009 10.7498 26.9998 10.7498Z" fill="black"/>
<path d="M28.9998 17.2498H26.9998C26.8009 17.2498 26.6101 17.3288 26.4695 17.4695C26.3288 17.6101 26.2498 17.8009 26.2498 17.9998C26.2498 18.1987 26.3288 18.3895 26.4695 18.5301C26.6101 18.6708 26.8009 18.7498 26.9998 18.7498H28.9998C29.1987 18.7498 29.3895 18.6708 29.5301 18.5301C29.6708 18.3895 29.7498 18.1987 29.7498 17.9998C29.7498 17.8009 29.6708 17.6101 29.5301 17.4695C29.3895 17.3288 29.1987 17.2498 28.9998 17.2498Z" fill="black"/>
<path d="M28.9998 21.2498H26.9998C26.8009 21.2498 26.6101 21.3288 26.4695 21.4695C26.3288 21.6101 26.2498 21.8009 26.2498 21.9998C26.2498 22.1987 26.3288 22.3895 26.4695 22.5301C26.6101 22.6708 26.8009 22.7498 26.9998 22.7498H28.9998C29.1987 22.7498 29.3895 22.6708 29.5301 22.5301C29.6708 22.3895 29.7498 22.1987 29.7498 21.9998C29.7498 21.8009 29.6708 21.6101 29.5301 21.4695C29.3895 21.3288 29.1987 21.2498 28.9998 21.2498Z" fill="black"/>
</svg>
