<svg xmlns="http://www.w3.org/2000/svg" width="32" height="32" viewBox="0 0 32 32"><path d="M21.0031 14.25H10.9971C10.268 14.2508 9.56896 14.5408 9.0534 15.0563C8.53785 15.5719 8.24786 16.2709 8.24707 17V21C8.24786 21.7291 8.53785 22.4281 9.0534 22.9437C9.56896 23.4592 10.268 23.7492 10.9971 23.75H21.0031C21.7323 23.7495 22.4314 23.4596 22.947 22.944C23.4626 22.4283 23.7525 21.7292 23.7531 21V17C23.7525 16.2708 23.4626 15.5717 22.947 15.056C22.4314 14.5404 21.7323 14.2505 21.0031 14.25ZM22.2531 21C22.2531 21.3315 22.1214 21.6495 21.887 21.8839C21.6525 22.1183 21.3346 22.25 21.0031 22.25H10.9971C10.6656 22.2497 10.3478 22.118 10.1135 21.8836C9.87912 21.6492 9.74734 21.3314 9.74707 21V17C9.74734 16.6686 9.87912 16.3508 10.1135 16.1164C10.3478 15.882 10.6656 15.7503 10.9971 15.75H21.0031C21.3346 15.75 21.6525 15.8817 21.887 16.1161C22.1214 16.3505 22.2531 16.6685 22.2531 17V21Z M19 18.25H16C15.8011 18.25 15.6103 18.329 15.4697 18.4697C15.329 18.6103 15.25 18.8011 15.25 19C15.25 19.1989 15.329 19.3897 15.4697 19.5303C15.6103 19.671 15.8011 19.75 16 19.75H19C19.1989 19.75 19.3897 19.671 19.5303 19.5303C19.671 19.3897 19.75 19.1989 19.75 19C19.75 18.8011 19.671 18.6103 19.5303 18.4697C19.3897 18.329 19.1989 18.25 19 18.25Z M25.791 9.19391L18.794 4.15991C17.9834 3.56773 17.0057 3.24841 16.0018 3.24805C14.998 3.24769 14.02 3.56631 13.209 4.15791L6.206 9.19591C5.60126 9.63735 5.10903 10.2151 4.7692 10.8822C4.42936 11.5494 4.25149 12.2872 4.25 13.0359V23.9999C4.25159 25.2592 4.75254 26.4665 5.643 27.3569C6.53345 28.2474 7.74071 28.7483 9 28.7499H23C24.2594 28.7486 25.4668 28.2477 26.3573 27.3572C27.2478 26.4667 27.7487 25.2593 27.75 23.9999V13.0369C27.7486 12.2874 27.5705 11.5488 27.2301 10.8811C26.8898 10.2134 26.3967 9.63533 25.791 9.19391ZM26.251 23.9999C26.2499 24.8617 25.9071 25.6879 25.2976 26.2972C24.6881 26.9065 23.8618 27.2491 23 27.2499H9C8.13837 27.2489 7.31234 26.9061 6.70307 26.2968C6.09381 25.6876 5.75106 24.8615 5.75 23.9999V13.0369C5.75043 12.525 5.87142 12.0205 6.10319 11.5641C6.33495 11.1077 6.67096 10.7123 7.084 10.4099L14.087 5.37191C14.6425 4.96585 15.3128 4.74715 16.0008 4.74751C16.6889 4.74787 17.359 4.96727 17.914 5.37391L24.91 10.4089C25.3242 10.7106 25.6614 11.1057 25.8942 11.5621C26.1271 12.0186 26.249 12.5235 26.25 13.0359V23.9999H26.251Z"/></svg>