<svg width="32" height="32" viewBox="0 0 32 32" fill="none" xmlns="http://www.w3.org/2000/svg">
<path d="M21.003 14.5004H10.9972C10.3343 14.5011 9.69885 14.7647 9.23016 15.2334C8.76147 15.7021 8.49786 16.3376 8.49716 17.0004V21.0004C8.49786 21.6632 8.76147 22.2987 9.23016 22.7674C9.69885 23.2361 10.3343 23.4997 10.9972 23.5004H21.003C21.6658 23.4998 22.3014 23.2362 22.7701 22.7675C23.2388 22.2988 23.5024 21.6633 23.503 21.0004V17.0004C23.5024 16.3375 23.2388 15.702 22.7701 15.2333C22.3014 14.7646 21.6658 14.501 21.003 14.5004ZM22.503 21.0004C22.5026 21.3981 22.3444 21.7794 22.0632 22.0606C21.782 22.3418 21.4007 22.5 21.003 22.5004H10.9972C10.5995 22.5 10.2182 22.3418 9.93698 22.0606C9.65577 21.7794 9.4976 21.3981 9.49716 21.0004V17.0004C9.4976 16.6027 9.65577 16.2214 9.93698 15.9402C10.2182 15.659 10.5995 15.5008 10.9972 15.5004H21.003C21.4007 15.5008 21.782 15.659 22.0632 15.9402C22.3444 16.2214 22.5026 16.6027 22.503 17.0004V21.0004Z" fill="black"/>
<path d="M19.0001 18.5004H16.0001C15.8675 18.5004 15.7403 18.5531 15.6465 18.6468C15.5528 18.7406 15.5001 18.8678 15.5001 19.0004C15.5001 19.133 15.5528 19.2602 15.6465 19.354C15.7403 19.4477 15.8675 19.5004 16.0001 19.5004H19.0001C19.1327 19.5004 19.2599 19.4477 19.3536 19.354C19.4474 19.2602 19.5001 19.133 19.5001 19.0004C19.5001 18.8678 19.4474 18.7406 19.3536 18.6468C19.2599 18.5531 19.1327 18.5004 19.0001 18.5004Z" fill="black"/>
<path d="M25.6446 9.39591L18.6471 4.36173C17.879 3.80078 16.9525 3.49831 16.0014 3.49796C15.0502 3.49761 14.1236 3.79939 13.3551 4.35978L6.35263 9.39786C5.77972 9.8162 5.31343 10.3637 4.99157 10.9958C4.66971 11.628 4.50134 12.3271 4.50009 13.0365V24.0004C4.50139 25.1935 4.97591 26.3373 5.81955 27.1809C6.66318 28.0246 7.80702 28.4991 9.00009 28.5004H23.0001C24.1932 28.4991 25.337 28.0246 26.1806 27.1809C27.0243 26.3373 27.4988 25.1935 27.5001 24.0004V13.0365C27.4989 12.3265 27.3303 11.6268 27.0079 10.9942C26.6855 10.3617 26.2184 9.81405 25.6446 9.39591ZM26.5001 24.0004C26.499 24.9283 26.1299 25.8179 25.4737 26.474C24.8176 27.1302 23.928 27.4993 23.0001 27.5004H9.00009C8.07218 27.4993 7.18259 27.1302 6.52646 26.474C5.87032 25.8179 5.50121 24.9283 5.50009 24.0004V13.0365C5.50082 12.4852 5.6315 11.9418 5.88152 11.4505C6.13154 10.9591 6.49386 10.5336 6.93909 10.2084L13.9411 5.17032C14.5391 4.73341 15.2606 4.49811 16.0012 4.49847C16.7418 4.49883 17.4631 4.73483 18.0607 5.17232L25.0587 10.2065C25.5045 10.5318 25.8673 10.9575 26.1177 11.4492C26.3681 11.9409 26.4992 12.4848 26.5001 13.0366L26.5001 24.0004Z" fill="black"/>
</svg>
