<svg xmlns="http://www.w3.org/2000/svg" width="32" height="32" viewBox="0 0 32 32"><path d="M10.5 3C10.5 2.72386 10.2761 2.5 10 2.5C9.72386 2.5 9.5 2.72386 9.5 3V5.5H8.99707C7.8036 5.5 6.65895 5.9741 5.81503 6.81802C4.9711 7.66195 4.49707 8.80655 4.49707 10V13C4.49707 13.2761 4.72093 13.5 4.99707 13.5C5.27321 13.5 5.49707 13.2761 5.49707 13V10C5.49707 9.07172 5.86577 8.18149 6.52213 7.52513C7.1785 6.86875 8.0688 6.5 8.99707 6.5H22.9971C23.9253 6.5 24.8155 6.86874 25.4719 7.52513C26.1283 8.18152 26.4971 9.07176 26.4971 10V15.79L25.3536 14.6464C25.1583 14.4512 24.8417 14.4512 24.6464 14.6464C24.4512 14.8417 24.4512 15.1583 24.6464 15.3536L26.6464 17.3536C26.8417 17.5488 27.1583 17.5488 27.3536 17.3536L29.3536 15.3536C29.5488 15.1583 29.5488 14.8417 29.3536 14.6464C29.1583 14.4512 28.8417 14.4512 28.6464 14.6464L27.4971 15.7958V10C27.4971 8.80651 27.0229 7.66192 26.179 6.81802C25.3351 5.97411 24.1906 5.5 22.9971 5.5H22.5V3C22.5 2.72386 22.2761 2.5 22 2.5C21.7239 2.5 21.5 2.72386 21.5 3V5.5H10.5V3ZM11.6139 14.83H10.6039C10.6839 14.21 10.9706 13.7167 11.4639 13.35C11.9039 13.0167 12.4372 12.85 13.0639 12.85C13.7772 12.85 14.3472 13.05 14.7739 13.45C15.1539 13.8167 15.3439 14.28 15.3439 14.84C15.3439 15.3333 15.2039 15.79 14.9239 16.21C14.6972 16.5633 14.2806 17.0267 13.6739 17.6L12.0739 19.12H15.3139V20H10.7739V19.12L13.0539 16.93C13.5606 16.4433 13.9039 16.0567 14.0839 15.77C14.2706 15.4767 14.3639 15.17 14.3639 14.85C14.3639 14.4633 14.2306 14.1633 13.9639 13.95C13.7306 13.7567 13.4239 13.66 13.0439 13.66C12.6172 13.66 12.2739 13.7767 12.0139 14.01C11.7872 14.2167 11.6539 14.49 11.6139 14.83ZM19.44 13H20.44V17.86H21.57V18.68H20.44V20H19.51V18.68H16.44V17.79L19.44 13ZM17.51 17.86H19.51V14.55L17.51 17.86ZM4.64645 16.6464C4.84171 16.4512 5.15829 16.4512 5.35355 16.6464L7.35355 18.6464C7.54882 18.8417 7.54882 19.1583 7.35355 19.3536C7.15829 19.5488 6.84171 19.5488 6.64645 19.3536L5.49707 18.2042V24C5.49707 24.9283 5.86577 25.8185 6.52213 26.4749C7.1785 27.1312 8.0688 27.5 8.99707 27.5H22.9971C23.9253 27.5 24.8155 27.1313 25.4719 26.4749C26.1283 25.8185 26.4971 24.9282 26.4971 24V21C26.4971 20.7239 26.7209 20.5 26.9971 20.5C27.2732 20.5 27.4971 20.7239 27.4971 21V24C27.4971 25.1935 27.0229 26.3381 26.179 27.182C25.3351 28.0259 24.1906 28.5 22.9971 28.5H8.99707C7.80361 28.5 6.65895 28.0259 5.81503 27.182C4.9711 26.3381 4.49707 25.1935 4.49707 24V18.21L3.35355 19.3536C3.15829 19.5488 2.84171 19.5488 2.64645 19.3536C2.45118 19.1583 2.45118 18.8417 2.64645 18.6464L4.64645 16.6464Z"/></svg>