<svg width="32" height="32" viewBox="0 0 32 32" fill="none" xmlns="http://www.w3.org/2000/svg">
<path d="M12 15.4813H6C5.33719 15.4821 4.70176 15.7461 4.23308 16.2154C3.76441 16.6848 3.50077 17.3211 3.5 17.9849V25.9964C3.50079 26.6602 3.76444 27.2965 4.23311 27.7658C4.70178 28.2352 5.3372 28.4992 6 28.5H12C12.6628 28.4992 13.2982 28.2352 13.7669 27.7658C14.2356 27.2965 14.4992 26.6602 14.5 25.9964V17.9849C14.4992 17.3211 14.2356 16.6848 13.7669 16.2154C13.2982 15.7461 12.6628 15.4821 12 15.4813ZM13.5 25.9964C13.4995 26.3947 13.3414 26.7765 13.0602 27.0581C12.779 27.3397 12.3977 27.4981 12 27.4986H6C5.60231 27.4981 5.22102 27.3397 4.93981 27.0581C4.65859 26.7765 4.50042 26.3947 4.5 25.9964V17.9849C4.50042 17.5866 4.65859 17.2048 4.93981 16.9232C5.22102 16.6416 5.60231 16.4832 6 16.4827H12C12.3977 16.4832 12.779 16.6416 13.0602 16.9232C13.3414 17.2048 13.4996 17.5866 13.5 17.9849V25.9964Z" fill="black"/>
<path d="M26 20.4885H20C19.3372 20.4893 18.7018 20.7533 18.2331 21.2226C17.7644 21.692 17.5008 22.3283 17.5 22.9921V25.9964C17.5008 26.6602 17.7644 27.2965 18.2331 27.7658C18.7018 28.2352 19.3372 28.4992 20 28.5H26C26.6628 28.4992 27.2982 28.2352 27.7669 27.7658C28.2356 27.2965 28.4992 26.6602 28.5 25.9964V22.9921C28.4992 22.3283 28.2356 21.692 27.7669 21.2226C27.2982 20.7533 26.6628 20.4893 26 20.4885ZM27.5 25.9964C27.4995 26.3947 27.3414 26.7765 27.0602 27.0581C26.779 27.3397 26.3977 27.4981 26 27.4986H20C19.6023 27.4981 19.221 27.3397 18.9398 27.0581C18.6586 26.7765 18.5004 26.3947 18.5 25.9964V22.9921C18.5004 22.5938 18.6586 22.212 18.9398 21.9304C19.221 21.6488 19.6023 21.4904 20 21.4899H26C26.3977 21.4904 26.779 21.6488 27.0602 21.9304C27.3414 22.212 27.4996 22.5938 27.5 22.9921V25.9964Z" fill="black"/>
<path d="M26 3.5H20C19.3372 3.5008 18.7018 3.76482 18.2331 4.23416C17.7644 4.70351 17.5008 5.33984 17.5 6.0036V14.0151C17.5008 14.6789 17.7644 15.3152 18.2331 15.7845C18.7018 16.2539 19.3372 16.5179 20 16.5187H26C26.6628 16.5179 27.2982 16.2539 27.7669 15.7845C28.2356 15.3152 28.4992 14.6789 28.5 14.0151V6.0036C28.4992 5.33984 28.2356 4.70351 27.7669 4.23416C27.2982 3.76482 26.6628 3.5008 26 3.5ZM27.5 14.0151C27.4995 14.4134 27.3414 14.7952 27.0602 15.0768C26.779 15.3584 26.3977 15.5168 26 15.5173H20C19.6023 15.5168 19.221 15.3584 18.9398 15.0768C18.6586 14.7952 18.5004 14.4134 18.5 14.0151V6.0036C18.5004 5.60533 18.6586 5.2235 18.9398 4.94188C19.221 4.66026 19.6023 4.50186 20 4.50144H26C26.3977 4.50186 26.779 4.66026 27.0602 4.94188C27.3414 5.2235 27.4996 5.60533 27.5 6.0036V14.0151Z" fill="black"/>
<path d="M12 3.5H6C5.3372 3.5008 4.70178 3.76482 4.23311 4.23416C3.76444 4.70351 3.50079 5.33984 3.5 6.0036V9.00791C3.50079 9.67166 3.76444 10.308 4.23311 10.7773C4.70178 11.2467 5.3372 11.5107 6 11.5115H12C12.6628 11.5107 13.2982 11.2467 13.7669 10.7773C14.2356 10.308 14.4992 9.67166 14.5 9.00791V6.0036C14.4992 5.33984 14.2356 4.70351 13.7669 4.23416C13.2982 3.76482 12.6628 3.5008 12 3.5ZM13.5 9.00791C13.4995 9.40617 13.3414 9.78799 13.0602 10.0696C12.779 10.3512 12.3977 10.5096 12 10.5101H6C5.60231 10.5096 5.22102 10.3512 4.93981 10.0696C4.65859 9.78801 4.50042 9.40618 4.5 9.00791V6.0036C4.50042 5.60533 4.65859 5.2235 4.93981 4.94188C5.22102 4.66026 5.60231 4.50186 6 4.50144H12C12.3977 4.50186 12.779 4.66026 13.0602 4.94188C13.3414 5.2235 13.4996 5.60533 13.5 6.0036V9.00791Z" fill="black"/>
</svg>
