<svg width="32" height="32" viewBox="0 0 32 32" fill="none" xmlns="http://www.w3.org/2000/svg">
<path d="M11.9899 3.49969H5.98939C4.60868 3.49969 3.48939 4.61898 3.48939 5.99969V8.99969C3.48939 10.3804 4.60868 11.4997 5.98939 11.4997H11.9899C13.3706 11.4997 14.4899 10.3804 14.4899 8.99969V5.99969C14.4899 4.61898 13.3706 3.49969 11.9899 3.49969Z" fill="black"/>
<path d="M11.9889 14.5002H5.98889C4.60818 14.5002 3.48889 15.6195 3.48889 17.0002V26.0002C3.48889 27.3809 4.60818 28.5002 5.98889 28.5002H11.9889C13.3696 28.5002 14.4889 27.3809 14.4889 26.0002V17.0002C14.4889 15.6195 13.3696 14.5002 11.9889 14.5002Z" fill="black"/>
<path d="M25.9904 20.5002H19.9904C18.6097 20.5002 17.4904 21.6195 17.4904 23.0002V26.0002C17.4904 27.3809 18.6097 28.5002 19.9904 28.5002H25.9904C27.3711 28.5002 28.4904 27.3809 28.4904 26.0002V23.0002C28.4904 21.6195 27.3711 20.5002 25.9904 20.5002Z" fill="black"/>
<path d="M26.0109 3.49969H20.0109C18.6302 3.49969 17.5109 4.61898 17.5109 5.99969V14.9997C17.5109 16.3804 18.6302 17.4997 20.0109 17.4997H26.0109C27.3916 17.4997 28.5109 16.3804 28.5109 14.9997V5.99969C28.5109 4.61898 27.3916 3.49969 26.0109 3.49969Z" fill="black"/>
</svg>
