<svg xmlns="http://www.w3.org/2000/svg" width="32" height="32" viewBox="0 0 32 32"><path d="M11.99 3.5H5.99001C5.32697 3.5 4.69109 3.76339 4.22225 4.23223C3.75341 4.70107 3.49001 5.33696 3.49001 6V9C3.49001 9.3283 3.55468 9.65339 3.68031 9.95671C3.80595 10.26 3.9901 10.5356 4.22225 10.7678C4.69109 11.2366 5.32697 11.5 5.99001 11.5H11.99C12.3183 11.5 12.6434 11.4353 12.9467 11.3097C13.25 11.1841 13.5256 10.9999 13.7578 10.7678C13.9899 10.5356 14.1741 10.26 14.2997 9.95671C14.4253 9.65339 14.49 9.3283 14.49 9V6C14.49 5.33696 14.2266 4.70107 13.7578 4.23223C13.2889 3.76339 12.6531 3.5 11.99 3.5ZM11.989 14.5H5.98901C5.32597 14.5 4.69009 14.7634 4.22125 15.2322C3.75241 15.7011 3.48901 16.337 3.48901 17V26C3.48901 26.663 3.75241 27.2989 4.22125 27.7678C4.69009 28.2366 5.32597 28.5 5.98901 28.5H11.989C12.6521 28.5 13.2879 28.2366 13.7568 27.7678C14.2256 27.2989 14.489 26.663 14.489 26V17C14.489 16.337 14.2256 15.7011 13.7568 15.2322C13.2879 14.7634 12.6521 14.5 11.989 14.5ZM25.99 20.5H19.99C19.327 20.5 18.6911 20.7634 18.2222 21.2322C17.7534 21.7011 17.49 22.337 17.49 23V26C17.49 26.663 17.7534 27.2989 18.2222 27.7678C18.6911 28.2366 19.327 28.5 19.99 28.5H25.99C26.6531 28.5 27.2889 28.2366 27.7578 27.7678C28.2266 27.2989 28.49 26.663 28.49 26V23C28.49 22.337 28.2266 21.7011 27.7578 21.2322C27.2889 20.7634 26.6531 20.5 25.99 20.5ZM26.01 3.5H20.01C19.347 3.5 18.7111 3.76339 18.2422 4.23223C17.7734 4.70107 17.51 5.33696 17.51 6V15C17.51 15.663 17.7734 16.2989 18.2422 16.7678C18.7111 17.2366 19.347 17.5 20.01 17.5H26.01C26.6731 17.5 27.3089 17.2366 27.7778 16.7678C28.2466 16.2989 28.51 15.663 28.51 15V6C28.51 5.33696 28.2466 4.70107 27.7778 4.23223C27.3089 3.76339 26.6731 3.5 26.01 3.5Z"/></svg>