<svg xmlns="http://www.w3.org/2000/svg" width="32" height="32" viewBox="0 0 32 32"><path d="M12 15.231H6C5.63853 15.231 5.2806 15.3023 4.9467 15.4407C4.61279 15.5792 4.30946 15.7821 4.05404 16.0379C3.79863 16.2937 3.59615 16.5973 3.45819 16.9314C3.32022 17.2655 3.24948 17.6235 3.25 17.985V25.996C3.25132 26.7253 3.54135 27.4244 4.05667 27.9405C4.572 28.4566 5.2707 28.7476 6 28.75H12C12.7294 28.7479 13.4282 28.4569 13.9436 27.9408C14.459 27.4247 14.7489 26.7254 14.75 25.996V17.985C14.7492 17.2554 14.4594 16.5559 13.944 16.0396C13.4286 15.5232 12.7296 15.2321 12 15.23V15.231ZM13.25 25.996C13.2495 26.3275 13.1177 26.6454 12.8834 26.88C12.6492 27.1146 12.3315 27.2469 12 27.248H6C5.83568 27.248 5.67297 27.2156 5.52119 27.1527C5.3694 27.0897 5.23151 26.9975 5.11541 26.8812C4.99931 26.7649 4.90728 26.6269 4.84458 26.475C4.78188 26.3231 4.74974 26.1603 4.75 25.996V17.985C4.75053 17.6535 4.88233 17.3356 5.11658 17.101C5.35083 16.8664 5.66846 16.7341 6 16.733H12C12.1643 16.733 12.327 16.7654 12.4788 16.8283C12.6306 16.8913 12.7685 16.9835 12.8846 17.0998C13.0007 17.2161 13.0927 17.3541 13.1554 17.506C13.2181 17.6579 13.2503 17.8207 13.25 17.985V25.996ZM26 20.238H20C19.6385 20.238 19.2806 20.3093 18.9467 20.4477C18.6128 20.5862 18.3095 20.7891 18.054 21.0449C17.7986 21.3007 17.5961 21.6043 17.4582 21.9384C17.3202 22.2725 17.2495 22.6305 17.25 22.992V25.996C17.2511 26.7254 17.541 27.4247 18.0564 27.9408C18.5718 28.4569 19.2706 28.7479 20 28.75H26C26.7294 28.7479 27.4282 28.4569 27.9436 27.9408C28.459 27.4247 28.7489 26.7254 28.75 25.996V22.992C28.7489 22.2626 28.459 21.5633 27.9436 21.0472C27.4282 20.5311 26.7294 20.2401 26 20.238ZM27.25 25.996C27.2495 26.3275 27.1177 26.6454 26.8834 26.88C26.6492 27.1146 26.3315 27.2469 26 27.248H20C19.8357 27.248 19.673 27.2156 19.5212 27.1527C19.3694 27.0897 19.2315 26.9975 19.1154 26.8812C18.9993 26.7649 18.9073 26.6269 18.8446 26.475C18.7819 26.3231 18.7497 26.1603 18.75 25.996V22.992C18.7505 22.6605 18.8823 22.3426 19.1166 22.108C19.3508 21.8734 19.6685 21.7411 20 21.74H26C26.1643 21.74 26.327 21.7724 26.4788 21.8353C26.6306 21.8983 26.7685 21.9905 26.8846 22.1068C27.0007 22.2231 27.0927 22.3611 27.1554 22.513C27.2181 22.6649 27.2503 22.8277 27.25 22.992V25.996ZM26 3.25H20C19.6385 3.25 19.2806 3.32126 18.9467 3.45971C18.6128 3.59816 18.3095 3.80109 18.054 4.05687C17.7986 4.31265 17.5961 4.61629 17.4582 4.95039C17.3202 5.2845 17.2495 5.64253 17.25 6.004V14.015C17.2508 14.7446 17.5406 15.4441 18.056 15.9604C18.5714 16.4768 19.2704 16.7679 20 16.77H26C26.7294 16.7679 27.4282 16.4769 27.9436 15.9608C28.459 15.4447 28.7489 14.7454 28.75 14.016V6.004C28.7489 5.27461 28.459 4.57534 27.9436 4.05921C27.4282 3.54307 26.7294 3.25211 26 3.25ZM27.25 14.015C27.2497 14.3466 27.118 14.6646 26.8837 14.8993C26.6494 15.134 26.3316 15.2662 26 15.267H20C19.8357 15.267 19.673 15.2346 19.5212 15.1717C19.3694 15.1087 19.2315 15.0165 19.1154 14.9002C18.9993 14.7839 18.9073 14.6459 18.8446 14.494C18.7819 14.3421 18.7497 14.1793 18.75 14.015V6.004C18.7505 5.67246 18.8823 5.35461 19.1166 5.11999C19.3508 4.88537 19.6685 4.75306 20 4.752H26C26.1643 4.752 26.327 4.7844 26.4788 4.84734C26.6306 4.91028 26.7685 5.00254 26.8846 5.11882C27.0007 5.23511 27.0927 5.37314 27.1554 5.52503C27.2181 5.67692 27.2503 5.83968 27.25 6.004V14.015ZM12 3.25H6C5.63853 3.25 5.2806 3.32126 4.9467 3.45971C4.61279 3.59816 4.30946 3.80109 4.05404 4.05687C3.79863 4.31265 3.59615 4.61629 3.45819 4.95039C3.32022 5.2845 3.24948 5.64253 3.25 6.004V9.008C3.25132 9.73731 3.54135 10.4364 4.05667 10.9525C4.572 11.4686 5.2707 11.7596 6 11.762H12C12.3615 11.762 12.7194 11.6907 13.0533 11.5523C13.3872 11.4138 13.6905 11.2109 13.946 10.9551C14.2014 10.6993 14.4039 10.3957 14.5418 10.0616C14.6798 9.7275 14.7505 9.36947 14.75 9.008V6.004C14.7489 5.27461 14.459 4.57534 13.9436 4.05921C13.4282 3.54307 12.7294 3.25211 12 3.25ZM13.25 9.008C13.2495 9.33954 13.1177 9.65738 12.8834 9.89201C12.6492 10.1266 12.3315 10.2589 12 10.26H6C5.83568 10.26 5.67297 10.2276 5.52119 10.1647C5.3694 10.1017 5.23151 10.0095 5.11541 9.89318C4.99931 9.77689 4.90728 9.63886 4.84458 9.48697C4.78188 9.33508 4.74974 9.17232 4.75 9.008V6.004C4.75053 5.67246 4.88233 5.35461 5.11658 5.11999C5.35083 4.88537 5.66846 4.75306 6 4.752H12C12.1643 4.752 12.327 4.7844 12.4788 4.84734C12.6306 4.91028 12.7685 5.00254 12.8846 5.11882C13.0007 5.23511 13.0927 5.37314 13.1554 5.52503C13.2181 5.67692 13.2503 5.83968 13.25 6.004V9.008Z"/></svg>