<svg xmlns="http://www.w3.org/2000/svg" width="32" height="32" viewBox="0 0 32 32"><path d="M5.75 9C5.75 9.90575 6.59193 10.9708 8.53218 11.8528C10.4047 12.7039 13.0443 13.25 16 13.25C18.9557 13.25 21.5953 12.7039 23.4678 11.8528C25.4081 10.9708 26.25 9.90575 26.25 9C26.25 8.09425 25.4081 7.02917 23.4678 6.14724C21.5953 5.29608 18.9557 4.75 16 4.75C13.0443 4.75 10.4047 5.29608 8.53218 6.14724C6.59193 7.02917 5.75 8.09425 5.75 9ZM4.25 9C4.25 7.14433 5.87051 5.7094 7.91147 4.78169C10.0201 3.8232 12.8806 3.25 16 3.25C19.1194 3.25 21.9799 3.8232 24.0885 4.78169C26.1295 5.7094 27.75 7.14433 27.75 9V23C27.75 24.8557 26.1295 26.2906 24.0885 27.2183C21.9799 28.1768 19.1194 28.75 16 28.75C12.8806 28.75 10.0201 28.1768 7.91147 27.2183C5.87051 26.2906 4.25 24.8557 4.25 23V9ZM5.75 18.875V23C5.75 23.9058 6.59193 24.9708 8.53218 25.8528C10.4047 26.7039 13.0443 27.25 16 27.25C18.9557 27.25 21.5953 26.7039 23.4678 25.8528C25.4081 24.9708 26.25 23.9058 26.25 23V18.875C25.6466 19.3995 24.9008 19.8491 24.0885 20.2183C21.9799 21.1768 19.1194 21.75 16 21.75C12.8806 21.75 10.0201 21.1768 7.91147 20.2183C7.09916 19.8491 6.35345 19.3995 5.75 18.875ZM26.25 16V11.875C25.6466 12.3995 24.9008 12.8491 24.0885 13.2183C21.9799 14.1768 19.1194 14.75 16 14.75C12.8806 14.75 10.0201 14.1768 7.91147 13.2183C7.09916 12.8491 6.35345 12.3995 5.75 11.875V16C5.75 16.9058 6.59193 17.9708 8.53218 18.8528C10.4047 19.7039 13.0443 20.25 16 20.25C18.9557 20.25 21.5953 19.7039 23.4678 18.8528C25.4081 17.9708 26.25 16.9058 26.25 16Z"/></svg>