<svg width="32" height="32" viewBox="0 0 32 32" fill="none" xmlns="http://www.w3.org/2000/svg">
<path d="M23.9996 9.99973H7.99861C7.71737 9.9998 7.4393 10.0592 7.18255 10.174C6.9258 10.2888 6.69614 10.4564 6.50857 10.666C6.32099 10.8755 6.17971 11.1223 6.09394 11.3901C6.00818 11.658 5.97985 11.9409 6.01082 12.2204L7.49226 25.5524C7.62713 26.7757 8.20888 27.9061 9.12595 28.7269C10.043 29.5476 11.2308 30.0009 12.4615 29.9997H19.5367C20.7674 30.0009 21.9552 29.5476 22.8723 28.7269C23.7893 27.9061 24.3711 26.7757 24.5059 25.5524L25.9869 12.2204C26.0181 11.9409 25.99 11.6579 25.9043 11.39C25.8186 11.1221 25.6774 10.8753 25.4898 10.6657C25.3023 10.4561 25.0726 10.2885 24.8158 10.1737C24.559 10.0589 24.2809 9.99966 23.9996 9.99973ZM22.5186 25.3317C22.4374 26.0656 22.0882 26.7438 21.5379 27.2361C20.9877 27.7284 20.275 28.0004 19.5367 27.9997H12.4615C11.7231 28.0004 11.0105 27.7284 10.4602 27.2361C9.9099 26.7438 9.56071 26.0656 9.47953 25.3317L7.99853 11.9997H23.9995L22.5186 25.3317Z" fill="black"/>
<path d="M7.00008 7.99973H25.0001C25.2653 7.99973 25.5197 7.89438 25.7072 7.70684C25.8947 7.5193 26.0001 7.26495 26.0001 6.99973C26.0001 6.73452 25.8947 6.48016 25.7072 6.29263C25.5197 6.10509 25.2653 5.99973 25.0001 5.99973H21.0001V4.99973C20.9992 4.20435 20.6829 3.44179 20.1204 2.87937C19.558 2.31695 18.7955 2.0006 18.0001 1.99973H14.0001C13.2047 2.0006 12.4421 2.31695 11.8797 2.87937C11.3173 3.44179 11.0009 4.20435 11.0001 4.99973V5.99973H7.00008C6.73487 5.99973 6.48051 6.10509 6.29297 6.29263C6.10544 6.48016 6.00008 6.73452 6.00008 6.99973C6.00008 7.26495 6.10544 7.5193 6.29297 7.70684C6.48051 7.89438 6.73487 7.99973 7.00008 7.99973ZM13.0001 4.99973C13.0003 4.7346 13.1058 4.4804 13.2933 4.29292C13.4807 4.10544 13.7349 4 14.0001 3.99973H18.0001C18.2652 4 18.5194 4.10544 18.7069 4.29292C18.8944 4.4804 18.9998 4.7346 19.0001 4.99973V5.99973H13.0001V4.99973Z" fill="black"/>
</svg>
