<svg width="32" height="32" viewBox="0 0 32 32" fill="none" xmlns="http://www.w3.org/2000/svg">
<path d="M24 10.5H7.999C7.78791 10.4998 7.57916 10.5442 7.3864 10.6303C7.19364 10.7163 7.02121 10.842 6.88038 10.9993C6.73956 11.1565 6.63351 11.3417 6.56916 11.5428C6.50482 11.7438 6.48364 11.9562 6.507 12.166L7.99 25.498C8.11164 26.5984 8.635 27.6152 9.45982 28.3537C10.2846 29.0921 11.3529 29.5003 12.46 29.5H19.536C20.6435 29.501 21.7124 29.0931 22.5377 28.3546C23.363 27.616 23.8865 26.5988 24.008 25.498L25.489 12.166C25.5123 11.9565 25.4912 11.7443 25.4271 11.5435C25.3629 11.3427 25.2571 11.1576 25.1166 11.0004C24.9761 10.8432 24.8041 10.7174 24.6117 10.6312C24.4193 10.5449 24.2108 10.5003 24 10.5V10.5ZM23.015 25.386C22.9211 26.2425 22.5141 27.0341 21.8722 27.6088C21.2302 28.1836 20.3986 28.5009 19.537 28.5H12.462C11.6002 28.5012 10.7684 28.1839 10.1262 27.6092C9.48409 27.0344 9.07695 26.2427 8.983 25.386L7.502 12.055C7.49427 11.9851 7.50136 11.9144 7.52281 11.8474C7.54426 11.7805 7.57959 11.7188 7.62649 11.6664C7.67339 11.6141 7.73081 11.5722 7.79499 11.5435C7.85918 11.5148 7.9287 11.5 7.999 11.5H23.999C24.0694 11.4998 24.1389 11.5146 24.2032 11.5432C24.2675 11.5718 24.325 11.6137 24.3719 11.6661C24.4188 11.7185 24.4541 11.7803 24.4755 11.8473C24.4969 11.9143 24.5039 11.9851 24.496 12.055L23.016 25.386H23.015ZM7 7.5H25C25.1326 7.5 25.2598 7.44732 25.3536 7.35355C25.4473 7.25979 25.5 7.13261 25.5 7C25.5 6.86739 25.4473 6.74021 25.3536 6.64645C25.2598 6.55268 25.1326 6.5 25 6.5H20.5V5C20.4992 4.3372 20.2356 3.70178 19.7669 3.23311C19.2982 2.76444 18.6628 2.50079 18 2.5H14C13.3372 2.50079 12.7018 2.76444 12.2331 3.23311C11.7644 3.70178 11.5008 4.3372 11.5 5V6.5H7C6.86739 6.5 6.74022 6.55268 6.64645 6.64645C6.55268 6.74021 6.5 6.86739 6.5 7C6.5 7.13261 6.55268 7.25979 6.64645 7.35355C6.74022 7.44732 6.86739 7.5 7 7.5V7.5ZM12.5 5C12.5005 4.60234 12.6587 4.22111 12.9399 3.93992C13.2211 3.65873 13.6023 3.50053 14 3.5H18C18.3977 3.50053 18.7789 3.65873 19.0601 3.93992C19.3413 4.22111 19.4995 4.60234 19.5 5V6.5H12.5V5Z" fill="#0F0F0F"/>
</svg>
