<svg width="32" height="32" viewBox="0 0 32 32" fill="none" xmlns="http://www.w3.org/2000/svg">
<path d="M24 10H7.99901C7.71779 9.99998 7.43973 10.0593 7.18298 10.174C6.92623 10.2887 6.69655 10.4563 6.50895 10.6658C6.32135 10.8753 6.18003 11.122 6.09423 11.3898C6.00843 11.6576 5.98007 11.9405 6.01101 12.22L7.49201 25.552C7.6268 26.7755 8.20862 27.9062 9.12584 28.7271C10.0431 29.5479 11.2311 30.0012 12.462 30H19.537C20.7677 30.001 21.9555 29.5476 22.8725 28.7267C23.7896 27.9059 24.3712 26.7753 24.506 25.552L25.986 12.22C26.0172 11.9406 25.9892 11.6577 25.9036 11.3899C25.818 11.1221 25.6769 10.8754 25.4895 10.6659C25.302 10.4563 25.0725 10.2887 24.8158 10.174C24.5591 10.0592 24.2812 9.99995 24 10V10ZM22.519 25.332C22.4377 26.0659 22.0885 26.7439 21.5382 27.2363C20.988 27.7286 20.2754 28.0005 19.537 28H12.462C11.7236 28.0008 11.0109 27.7289 10.4606 27.2365C9.91024 26.7442 9.56107 26.066 9.48001 25.332L7.99901 12H23.999L22.519 25.332ZM7.00001 8H25C25.2652 8 25.5196 7.89464 25.7071 7.70711C25.8947 7.51957 26 7.26522 26 7C26 6.73478 25.8947 6.48043 25.7071 6.29289C25.5196 6.10536 25.2652 6 25 6H21V5C20.9992 4.20459 20.6829 3.44199 20.1205 2.87956C19.558 2.31712 18.7954 2.00079 18 2H14C13.2046 2.00079 12.442 2.31712 11.8796 2.87956C11.3171 3.44199 11.0008 4.20459 11 5V6H7.00001C6.73479 6 6.48044 6.10536 6.2929 6.29289C6.10536 6.48043 6.00001 6.73478 6.00001 7C6.00001 7.26522 6.10536 7.51957 6.2929 7.70711C6.48044 7.89464 6.73479 8 7.00001 8ZM13 5C13 4.73478 13.1054 4.48043 13.2929 4.29289C13.4804 4.10536 13.7348 4 14 4H18C18.2651 4.00026 18.5193 4.10571 18.7068 4.29319C18.8943 4.48066 18.9997 4.73486 19 5V6H13V5Z" fill="#0F0F0F"/>
</svg>
