<svg width="32" height="32" viewBox="0 0 32 32" fill="none" xmlns="http://www.w3.org/2000/svg">
<path d="M23.9996 10.4997H7.9986C7.7876 10.4997 7.57897 10.5443 7.38634 10.6304C7.19371 10.7165 7.0214 10.8423 6.88068 10.9995C6.73995 11.1567 6.63397 11.3418 6.56964 11.5428C6.50532 11.7437 6.48411 11.956 6.50739 12.1657L7.98884 25.4977C8.11039 26.5986 8.63409 27.6159 9.45949 28.3545C10.2849 29.093 11.3539 29.5008 12.4615 29.4997H19.5367C20.6443 29.5008 21.7133 29.093 22.5387 28.3545C23.3641 27.6159 23.8878 26.5986 24.0093 25.4977L25.4903 12.1657C25.5136 11.9561 25.4924 11.7438 25.4281 11.5429C25.3638 11.342 25.2579 11.1569 25.1172 10.9997C24.9765 10.8424 24.8043 10.7167 24.6117 10.6305C24.4192 10.5444 24.2105 10.4998 23.9996 10.4997ZM23.0152 25.3864C22.921 26.2428 22.5138 27.0343 21.8718 27.6088C21.2298 28.1834 20.3982 28.5007 19.5367 28.4997H12.4615C11.5999 28.5007 10.7684 28.1834 10.1264 27.6088C9.48442 27.0343 9.07724 26.2428 8.983 25.3864L7.50155 12.0545C7.49386 11.9846 7.50099 11.9139 7.52247 11.847C7.54394 11.7801 7.57928 11.7184 7.62619 11.6661C7.67309 11.6137 7.7305 11.5719 7.79467 11.5432C7.85885 11.5146 7.92834 11.4998 7.99862 11.4998H23.9996C24.0699 11.4998 24.1393 11.5147 24.2034 11.5434C24.2675 11.5721 24.3249 11.6139 24.3717 11.6663C24.4186 11.7186 24.4539 11.7802 24.4753 11.8471C24.4968 11.914 24.5039 11.9846 24.4962 12.0545L23.0152 25.3864Z" fill="black"/>
<path d="M7.00007 7.49973H25.0001C25.1327 7.49973 25.2599 7.44705 25.3536 7.35328C25.4474 7.25952 25.5001 7.13234 25.5001 6.99973C25.5001 6.86712 25.4474 6.73994 25.3536 6.64618C25.2599 6.55241 25.1327 6.49973 25.0001 6.49973H20.5001V4.99973C20.4994 4.3369 20.2358 3.70142 19.7671 3.23273C19.2984 2.76404 18.6629 2.50043 18.0001 2.49973H14.0001C13.3372 2.50043 12.7018 2.76404 12.2331 3.23273C11.7644 3.70142 11.5008 4.3369 11.5001 4.99973V6.49973H7.00007C6.86746 6.49973 6.74029 6.55241 6.64652 6.64618C6.55275 6.73994 6.50007 6.86712 6.50007 6.99973C6.50007 7.13234 6.55275 7.25952 6.64652 7.35328C6.74029 7.44705 6.86746 7.49973 7.00007 7.49973ZM12.5001 4.99973C12.5005 4.60204 12.6587 4.22076 12.9399 3.93955C13.2211 3.65834 13.6024 3.50016 14.0001 3.49973H18.0001C18.3978 3.50016 18.779 3.65834 19.0603 3.93955C19.3415 4.22076 19.4996 4.60204 19.5001 4.99973V6.49973H12.5001V4.99973Z" fill="black"/>
</svg>
