<svg width="32" height="32" viewBox="0 0 32 32" fill="none" xmlns="http://www.w3.org/2000/svg">
<path d="M23 9.25031C23.0657 9.25035 23.1307 9.23744 23.1914 9.21232C23.2521 9.18721 23.3072 9.15038 23.3536 9.10395C23.4001 9.05751 23.4369 9.00237 23.462 8.94169C23.4871 8.88102 23.5 8.81598 23.5 8.75031V7.44269C23.5 7.31008 23.4473 7.1829 23.3536 7.08914C23.2598 6.99537 23.1326 6.94269 23 6.94269C22.8674 6.94269 22.7402 6.99537 22.6464 7.08914C22.5527 7.1829 22.5 7.31008 22.5 7.44269V8.75031C22.5 8.81598 22.5129 8.88102 22.538 8.94169C22.5631 9.00237 22.5999 9.05751 22.6464 9.10395C22.6928 9.15038 22.7479 9.18721 22.8086 9.21232C22.8693 9.23744 22.9343 9.25035 23 9.25031Z" fill="black"/>
<path d="M22.9999 11.75C23.2761 11.75 23.4999 11.5261 23.4999 11.25C23.4999 10.9739 23.2761 10.75 22.9999 10.75C22.7238 10.75 22.4999 10.9739 22.4999 11.25C22.4999 11.5261 22.7238 11.75 22.9999 11.75Z" fill="black"/>
<path d="M16.7002 13.7474C16.8303 13.9774 17.0195 14.1684 17.2482 14.3008C17.4769 14.4332 17.7368 14.502 18.001 14.5003H27.999C28.2618 14.5001 28.5201 14.4309 28.7478 14.2996C28.9755 14.1683 29.1647 13.9795 29.2965 13.752C29.4283 13.5246 29.4981 13.2666 29.4988 13.0037C29.4996 12.7408 29.4313 12.4824 29.3007 12.2542L24.3144 3.25221L24.3085 3.24244C24.1763 3.01502 23.9865 2.82643 23.7582 2.69563C23.5299 2.56483 23.2712 2.49644 23.0082 2.49733C22.7451 2.49823 22.4869 2.56837 22.2595 2.70071C22.0321 2.83305 21.8436 3.02292 21.7129 3.25123L16.705 12.2444C16.5703 12.4717 16.4987 12.731 16.4979 12.9952C16.497 13.2595 16.5669 13.5192 16.7002 13.7474ZM17.5732 12.7396L22.5811 3.7464C22.6247 3.67101 22.6873 3.60835 22.7627 3.56467C22.838 3.52098 22.9235 3.49778 23.0106 3.49739C23.0977 3.49699 23.1834 3.51941 23.2591 3.56241C23.3349 3.60541 23.3981 3.6675 23.4424 3.74249L28.4316 12.7483C28.4758 12.8244 28.4992 12.9108 28.4993 12.9987C28.4995 13.0867 28.4765 13.1731 28.4326 13.2494C28.3888 13.3256 28.3256 13.3889 28.2495 13.433C28.1734 13.4771 28.087 13.5003 27.999 13.5003H18.0009C17.9128 13.5014 17.826 13.4786 17.7497 13.4344C17.6734 13.3902 17.6104 13.3263 17.5674 13.2493C17.5222 13.1718 17.4989 13.0834 17.4999 12.9936C17.5009 12.9039 17.5262 12.8161 17.5732 12.7396Z" fill="black"/>
<path d="M29 17.5003C28.9343 17.5003 28.8693 17.5132 28.8086 17.5383C28.7479 17.5634 28.6928 17.6002 28.6464 17.6467C28.5999 17.6931 28.5631 17.7482 28.538 17.8089C28.5129 17.8696 28.5 17.9346 28.5 18.0003V22.0003C28.4994 22.6632 28.2358 23.2987 27.7671 23.7674C27.2984 24.2361 26.6629 24.4997 26 24.5003H16C15.3371 24.4997 14.7016 24.2361 14.2329 23.7674C13.7642 23.2987 13.5006 22.6632 13.5 22.0003V10.0003C13.5006 9.33746 13.7642 8.70193 14.2329 8.23322C14.7016 7.76451 15.3371 7.50092 16 7.50031C16.1326 7.50031 16.2598 7.44763 16.3536 7.35386C16.4473 7.26009 16.5 7.13292 16.5 7.00031C16.5 6.8677 16.4473 6.74052 16.3536 6.64676C16.2598 6.55299 16.1326 6.50031 16 6.50031C15.0721 6.50143 14.1825 6.87054 13.5264 7.52668C12.8702 8.18281 12.5011 9.0724 12.5 10.0003V22.0003C12.5011 22.9282 12.8702 23.8178 13.5264 24.4739C14.1825 25.1301 15.0721 25.4992 16 25.5003H26C26.9279 25.4992 27.8175 25.1301 28.4736 24.4739C29.1298 23.8178 29.4989 22.9282 29.5 22.0003V18.0003C29.5 17.9346 29.4871 17.8696 29.462 17.8089C29.4369 17.7482 29.4001 17.6931 29.3536 17.6467C29.3072 17.6002 29.2521 17.5634 29.1914 17.5383C29.1307 17.5132 29.0657 17.5003 29 17.5003Z" fill="black"/>
<path d="M6 6.50031C5.07209 6.50143 4.1825 6.87054 3.52637 7.52668C2.87023 8.18281 2.50112 9.0724 2.5 10.0003V22.0003C2.5 22.9286 2.86875 23.8188 3.52513 24.4752C4.1815 25.1316 5.07174 25.5003 6 25.5003C6.92826 25.5003 7.8185 25.1316 8.47487 24.4752C9.13125 23.8188 9.5 22.9286 9.5 22.0003V10.0003C9.49888 9.0724 9.12977 8.18281 8.47363 7.52668C7.8175 6.87054 6.92791 6.50143 6 6.50031ZM8.5 22.0003C8.5 22.6634 8.23661 23.2992 7.76777 23.7681C7.29893 24.2369 6.66304 24.5003 6 24.5003C5.33696 24.5003 4.70107 24.2369 4.23223 23.7681C3.76339 23.2992 3.5 22.6634 3.5 22.0003V10.0003C3.5 9.33727 3.76339 8.70138 4.23223 8.23254C4.70107 7.7637 5.33696 7.50031 6 7.50031C6.66304 7.50031 7.29893 7.7637 7.76777 8.23254C8.23661 8.70138 8.5 9.33727 8.5 10.0003V22.0003Z" fill="black"/>
<path d="M16.9999 17.5C17.2761 17.5 17.4999 17.2761 17.4999 17C17.4999 16.7239 17.2761 16.5 16.9999 16.5C16.7238 16.5 16.4999 16.7239 16.4999 17C16.4999 17.2761 16.7238 17.5 16.9999 17.5Z" fill="black"/>
<path d="M20.9999 17.5C21.2761 17.5 21.4999 17.2761 21.4999 17C21.4999 16.7239 21.2761 16.5 20.9999 16.5C20.7238 16.5 20.4999 16.7239 20.4999 17C20.4999 17.2761 20.7238 17.5 20.9999 17.5Z" fill="black"/>
<path d="M24.9999 17.5C25.2761 17.5 25.4999 17.2761 25.4999 17C25.4999 16.7239 25.2761 16.5 24.9999 16.5C24.7238 16.5 24.4999 16.7239 24.4999 17C24.4999 17.2761 24.7238 17.5 24.9999 17.5Z" fill="black"/>
<path d="M16.9999 21.5C17.2761 21.5 17.4999 21.2761 17.4999 21C17.4999 20.7239 17.2761 20.5 16.9999 20.5C16.7238 20.5 16.4999 20.7239 16.4999 21C16.4999 21.2761 16.7238 21.5 16.9999 21.5Z" fill="black"/>
<path d="M20.9999 21.5C21.2761 21.5 21.4999 21.2761 21.4999 21C21.4999 20.7239 21.2761 20.5 20.9999 20.5C20.7238 20.5 20.4999 20.7239 20.4999 21C20.4999 21.2761 20.7238 21.5 20.9999 21.5Z" fill="black"/>
<path d="M24.9999 21.5C25.2761 21.5 25.4999 21.2761 25.4999 21C25.4999 20.7239 25.2761 20.5 24.9999 20.5C24.7238 20.5 24.4999 20.7239 24.4999 21C24.4999 21.2761 24.7238 21.5 24.9999 21.5Z" fill="black"/>
</svg>
