<svg width="32" height="32" viewBox="0 0 32 32" fill="none" xmlns="http://www.w3.org/2000/svg">
<path d="M23 6.69269C22.8011 6.69275 22.6104 6.77178 22.4697 6.91242C22.3291 7.05306 22.2501 7.2438 22.25 7.44269V8.75031C22.25 8.94923 22.329 9.13999 22.4697 9.28064C22.6103 9.42129 22.8011 9.50031 23 9.50031C23.1989 9.50031 23.3897 9.42129 23.5303 9.28064C23.671 9.13999 23.75 8.94923 23.75 8.75031V7.44269C23.7499 7.2438 23.6709 7.05306 23.5303 6.91242C23.3896 6.77178 23.1989 6.69275 23 6.69269Z" fill="black"/>
<path d="M22.9999 12C23.4142 12 23.7499 11.6642 23.7499 11.25C23.7499 10.8358 23.4142 10.5 22.9999 10.5C22.5857 10.5 22.2499 10.8358 22.2499 11.25C22.2499 11.6642 22.5857 12 22.9999 12Z" fill="black"/>
<path d="M16.2666 13.9964C16.44 14.3031 16.6922 14.5579 16.9972 14.7344C17.3021 14.9109 17.6486 15.0027 18.0009 15.0003H27.999C28.3488 15.0002 28.6926 14.9083 28.9958 14.7338C29.2991 14.5593 29.5513 14.3084 29.7273 14.006C29.9033 13.7036 29.997 13.3603 29.9989 13.0104C30.0008 12.6606 29.911 12.3163 29.7383 12.012L24.7519 3.01007L24.7412 2.99152C24.5645 2.68768 24.3108 2.4358 24.0058 2.26127C23.7007 2.08674 23.355 1.99572 23.0035 1.99741C22.652 1.99909 22.3072 2.09341 22.0038 2.27086C21.7004 2.4483 21.4492 2.70261 21.2754 3.00812L16.2734 11.9925C16.094 12.2957 15.9987 12.6412 15.9975 12.9935C15.9963 13.3458 16.0892 13.692 16.2666 13.9964ZM23.0098 3.99347L27.999 13.0003L18.0107 12.9827L23.0098 3.99347Z" fill="black"/>
<path d="M29 17.0003C28.8687 17.0002 28.7386 17.026 28.6172 17.0763C28.4959 17.1265 28.3856 17.2002 28.2927 17.293C28.1998 17.3859 28.1262 17.4962 28.076 17.6175C28.0257 17.7389 27.9999 17.869 28 18.0003V22.0003C27.9993 22.5305 27.7884 23.0388 27.4135 23.4138C27.0385 23.7887 26.5302 23.9996 26 24.0003H16C15.4698 23.9996 14.9615 23.7887 14.5865 23.4138C14.2116 23.0388 14.0007 22.5305 14 22.0003V10.0003C14.0007 9.47009 14.2116 8.96178 14.5865 8.58686C14.9615 8.21194 15.4698 8.001 16 8.00031C16.2652 8.00031 16.5196 7.89496 16.7071 7.70742C16.8946 7.51988 17 7.26553 17 7.00031C17 6.7351 16.8946 6.48074 16.7071 6.29321C16.5196 6.10567 16.2652 6.00031 16 6.00031C14.9395 6.00137 13.9227 6.42314 13.1727 7.17306C12.4228 7.92297 12.0011 8.93977 12 10.0003V22.0003C12.0011 23.0609 12.4228 24.0777 13.1727 24.8276C13.9227 25.5775 14.9395 25.9993 16 26.0003H26C27.0605 25.9993 28.0773 25.5775 28.8273 24.8276C29.5772 24.0777 29.9989 23.0609 30 22.0003V18.0003C30.0001 17.869 29.9743 17.7389 29.924 17.6175C29.8738 17.4962 29.8002 17.3859 29.7073 17.293C29.6144 17.2002 29.5041 17.1265 29.3828 17.0763C29.2614 17.026 29.1313 17.0002 29 17.0003Z" fill="black"/>
<path d="M6 6.00031C4.93946 6.00137 3.92266 6.42314 3.17274 7.17306C2.42283 7.92297 2.00106 8.93977 2 10.0003V22.0003C2 23.0612 2.42143 24.0786 3.17157 24.8287C3.92172 25.5789 4.93913 26.0003 6 26.0003C7.06087 26.0003 8.07828 25.5789 8.82843 24.8287C9.57857 24.0786 10 23.0612 10 22.0003V10.0003C9.99894 8.93977 9.57717 7.92297 8.82726 7.17306C8.07734 6.42314 7.06054 6.00137 6 6.00031ZM8 22.0003C8 22.5307 7.78929 23.0395 7.41421 23.4145C7.03914 23.7896 6.53043 24.0003 6 24.0003C5.46957 24.0003 4.96086 23.7896 4.58579 23.4145C4.21071 23.0395 4 22.5307 4 22.0003V10.0003C4 9.46988 4.21071 8.96117 4.58579 8.5861C4.96086 8.21103 5.46957 8.00031 6 8.00031C6.53043 8.00031 7.03914 8.21103 7.41421 8.5861C7.78929 8.96117 8 9.46988 8 10.0003V22.0003Z" fill="black"/>
<path d="M16.9999 18C17.5522 18 17.9999 17.5523 17.9999 17C17.9999 16.4477 17.5522 16 16.9999 16C16.4477 16 15.9999 16.4477 15.9999 17C15.9999 17.5523 16.4477 18 16.9999 18Z" fill="black"/>
<path d="M20.9999 18C21.5522 18 21.9999 17.5523 21.9999 17C21.9999 16.4477 21.5522 16 20.9999 16C20.4477 16 19.9999 16.4477 19.9999 17C19.9999 17.5523 20.4477 18 20.9999 18Z" fill="black"/>
<path d="M24.9999 18C25.5522 18 25.9999 17.5523 25.9999 17C25.9999 16.4477 25.5522 16 24.9999 16C24.4477 16 23.9999 16.4477 23.9999 17C23.9999 17.5523 24.4477 18 24.9999 18Z" fill="black"/>
<path d="M16.9999 22C17.5522 22 17.9999 21.5523 17.9999 21C17.9999 20.4477 17.5522 20 16.9999 20C16.4477 20 15.9999 20.4477 15.9999 21C15.9999 21.5523 16.4477 22 16.9999 22Z" fill="black"/>
<path d="M20.9999 22C21.5522 22 21.9999 21.5523 21.9999 21C21.9999 20.4477 21.5522 20 20.9999 20C20.4477 20 19.9999 20.4477 19.9999 21C19.9999 21.5523 20.4477 22 20.9999 22Z" fill="black"/>
<path d="M24.9999 22C25.5522 22 25.9999 21.5523 25.9999 21C25.9999 20.4477 25.5522 20 24.9999 20C24.4477 20 23.9999 20.4477 23.9999 21C23.9999 21.5523 24.4477 22 24.9999 22Z" fill="black"/>
</svg>
