<svg xmlns="http://www.w3.org/2000/svg" width="32" height="32" viewBox="0 0 32 32"><path d="M26 6.5H16C15.0721 6.50106 14.1824 6.87015 13.5263 7.5263C12.8701 8.18244 12.5011 9.07207 12.5 10V22C12.5013 22.9279 12.8705 23.8173 13.5266 24.4734C14.1827 25.1295 15.0721 25.4987 16 25.5H26C26.9279 25.4989 27.8176 25.1299 28.4737 24.4737C29.1299 23.8176 29.4989 22.9279 29.5 22V10C29.4989 9.07207 29.1299 8.18244 28.4737 7.5263C27.8176 6.87015 26.9279 6.50106 26 6.5ZM16 7.5H26C26.6629 7.50053 27.2985 7.76409 27.7672 8.23282C28.2359 8.70154 28.4995 9.33712 28.5 10V12.5H13.5V10C13.5005 9.33712 13.7641 8.70154 14.2328 8.23282C14.7015 7.76409 15.3371 7.50053 16 7.5ZM26 24.5H16C15.3371 24.4995 14.7015 24.2359 14.2328 23.7672C13.7641 23.2985 13.5005 22.6629 13.5 22V13.5H28.5V22C28.4995 22.6629 28.2359 23.2985 27.7672 23.7672C27.2985 24.2359 26.6629 24.4995 26 24.5ZM6 6.5C5.07207 6.50106 4.18244 6.87015 3.5263 7.5263C2.87015 8.18244 2.50106 9.07207 2.5 10V22C2.5 22.4596 2.59053 22.9148 2.76642 23.3394C2.94231 23.764 3.20012 24.1499 3.52513 24.4749C3.85013 24.7999 4.23597 25.0577 4.66061 25.2336C5.08525 25.4095 5.54037 25.5 6 25.5C6.45963 25.5 6.91475 25.4095 7.33939 25.2336C7.76403 25.0577 8.14987 24.7999 8.47487 24.4749C8.79988 24.1499 9.05769 23.764 9.23358 23.3394C9.40947 22.9148 9.5 22.4596 9.5 22V10C9.49894 9.07207 9.12985 8.18244 8.4737 7.5263C7.81756 6.87015 6.92793 6.50106 6 6.5ZM8.5 22C8.5 22.663 8.23661 23.2989 7.76777 23.7678C7.29893 24.2366 6.66304 24.5 6 24.5C5.33696 24.5 4.70107 24.2366 4.23223 23.7678C3.76339 23.2989 3.5 22.663 3.5 22V10C3.5 9.33696 3.76339 8.70107 4.23223 8.23223C4.70107 7.76339 5.33696 7.5 6 7.5C6.66304 7.5 7.29893 7.76339 7.76777 8.23223C8.23661 8.70107 8.5 9.33696 8.5 10V22Z M17 17.5C17.1326 17.5 17.2598 17.4473 17.3536 17.3536C17.4473 17.2598 17.5 17.1326 17.5 17C17.5 16.8674 17.4473 16.7402 17.3536 16.6464C17.2598 16.5527 17.1326 16.5 17 16.5C16.8674 16.5 16.7402 16.5527 16.6464 16.6464C16.5527 16.7402 16.5 16.8674 16.5 17C16.5 17.1326 16.5527 17.2598 16.6464 17.3536C16.7402 17.4473 16.8674 17.5 17 17.5ZM21 17.5C21.1326 17.5 21.2598 17.4473 21.3536 17.3536C21.4473 17.2598 21.5 17.1326 21.5 17C21.5 16.8674 21.4473 16.7402 21.3536 16.6464C21.2598 16.5527 21.1326 16.5 21 16.5C20.8674 16.5 20.7402 16.5527 20.6464 16.6464C20.5527 16.7402 20.5 16.8674 20.5 17C20.5 17.1326 20.5527 17.2598 20.6464 17.3536C20.7402 17.4473 20.8674 17.5 21 17.5ZM25 17.5C25.1326 17.5 25.2598 17.4473 25.3536 17.3536C25.4473 17.2598 25.5 17.1326 25.5 17C25.5 16.8674 25.4473 16.7402 25.3536 16.6464C25.2598 16.5527 25.1326 16.5 25 16.5C24.8674 16.5 24.7402 16.5527 24.6464 16.6464C24.5527 16.7402 24.5 16.8674 24.5 17C24.5 17.1326 24.5527 17.2598 24.6464 17.3536C24.7402 17.4473 24.8674 17.5 25 17.5ZM17 21.5C17.1326 21.5 17.2598 21.4473 17.3536 21.3536C17.4473 21.2598 17.5 21.1326 17.5 21C17.5 20.8674 17.4473 20.7402 17.3536 20.6464C17.2598 20.5527 17.1326 20.5 17 20.5C16.8674 20.5 16.7402 20.5527 16.6464 20.6464C16.5527 20.7402 16.5 20.8674 16.5 21C16.5 21.1326 16.5527 21.2598 16.6464 21.3536C16.7402 21.4473 16.8674 21.5 17 21.5ZM21 21.5C21.1326 21.5 21.2598 21.4473 21.3536 21.3536C21.4473 21.2598 21.5 21.1326 21.5 21C21.5 20.8674 21.4473 20.7402 21.3536 20.6464C21.2598 20.5527 21.1326 20.5 21 20.5C20.8674 20.5 20.7402 20.5527 20.6464 20.6464C20.5527 20.7402 20.5 20.8674 20.5 21C20.5 21.1326 20.5527 21.2598 20.6464 21.3536C20.7402 21.4473 20.8674 21.5 21 21.5ZM25 21.5C25.1326 21.5 25.2598 21.4473 25.3536 21.3536C25.4473 21.2598 25.5 21.1326 25.5 21C25.5 20.8674 25.4473 20.7402 25.3536 20.6464C25.2598 20.5527 25.1326 20.5 25 20.5C24.8674 20.5 24.7402 20.5527 24.6464 20.6464C24.5527 20.7402 24.5 20.8674 24.5 21C24.5 21.1326 24.5527 21.2598 24.6464 21.3536C24.7402 21.4473 24.8674 21.5 25 21.5Z"/></svg>