<svg xmlns="http://www.w3.org/2000/svg" width="32" height="32" viewBox="0 0 32 32"><path d="M23 9.49987C23.1989 9.49987 23.3897 9.42085 23.5303 9.2802C23.671 9.13955 23.75 8.94878 23.75 8.74987V7.44287C23.75 7.24396 23.671 7.05319 23.5303 6.91254C23.3897 6.77189 23.1989 6.69287 23 6.69287C22.8011 6.69287 22.6103 6.77189 22.4697 6.91254C22.329 7.05319 22.25 7.24396 22.25 7.44287V8.74987C22.25 8.94878 22.329 9.13955 22.4697 9.2802C22.6103 9.42085 22.8011 9.49987 23 9.49987ZM23 11.9999C23.1989 11.9999 23.3897 11.9209 23.5303 11.7802C23.671 11.6395 23.75 11.4488 23.75 11.2499C23.75 11.051 23.671 10.8602 23.5303 10.7195C23.3897 10.5789 23.1989 10.4999 23 10.4999C22.8011 10.4999 22.6103 10.5789 22.4697 10.7195C22.329 10.8602 22.25 11.051 22.25 11.2499C22.25 11.4488 22.329 11.6395 22.4697 11.7802C22.6103 11.9209 22.8011 11.9999 23 11.9999Z M16.4831 13.8711C16.6346 14.1398 16.8553 14.3631 17.1222 14.5179C17.3891 14.6726 17.6926 14.7531 18.0011 14.7511H27.9991C28.3056 14.7512 28.6068 14.6708 28.8725 14.5178C29.1382 14.3649 29.359 14.1449 29.5129 13.8798C29.6668 13.6147 29.7484 13.3138 29.7495 13.0073C29.7506 12.7007 29.6711 12.3993 29.5191 12.1331L24.5331 3.13113L24.5251 3.11612C24.3703 2.851 24.1484 2.63127 23.8819 2.47899C23.6153 2.32671 23.3133 2.24723 23.0063 2.24855C22.6993 2.24987 22.3981 2.33193 22.1328 2.48649C21.8675 2.64106 21.6476 2.86268 21.4951 3.12912L16.4891 12.1191C16.332 12.3841 16.2486 12.6863 16.2476 12.9943C16.2465 13.3023 16.3278 13.6051 16.4831 13.8711ZM17.7921 12.8611L22.7981 3.87213C22.8195 3.83453 22.8504 3.80319 22.8877 3.78123C22.925 3.75927 22.9674 3.74745 23.0106 3.74694C23.0539 3.74643 23.0966 3.75726 23.1344 3.77835C23.1722 3.79943 23.2038 3.83004 23.2261 3.86713L28.2161 12.8741C28.238 12.9122 28.2495 12.9554 28.2494 12.9994C28.2494 13.0433 28.2378 13.0865 28.2158 13.1246C28.1938 13.1627 28.1623 13.1943 28.1242 13.2163C28.0862 13.2384 28.043 13.25 27.9991 13.2501H18.0011C17.9568 13.2511 17.9132 13.2398 17.8749 13.2176C17.8366 13.1954 17.8052 13.163 17.7841 13.1241C17.7606 13.0841 17.7489 13.0383 17.7503 12.992C17.7517 12.9456 17.7662 12.9006 17.7921 12.8621V12.8611Z M29 17.25C28.8011 17.25 28.6103 17.329 28.4697 17.4697C28.329 17.6103 28.25 17.8011 28.25 18V22C28.2492 22.5965 28.0119 23.1683 27.5901 23.5901C27.1683 24.0119 26.5965 24.2492 26 24.25H16C15.4035 24.2492 14.8317 24.0119 14.4099 23.5901C13.9881 23.1683 13.7508 22.5965 13.75 22V10C13.7508 9.40351 13.9881 8.83167 14.4099 8.40989C14.8317 7.9881 15.4035 7.75079 16 7.75C16.1989 7.75 16.3897 7.67098 16.5303 7.53033C16.671 7.38968 16.75 7.19891 16.75 7C16.75 6.80109 16.671 6.61032 16.5303 6.46967C16.3897 6.32902 16.1989 6.25 16 6.25C15.0058 6.25132 14.0528 6.64684 13.3498 7.34981C12.6468 8.05279 12.2513 9.00584 12.25 10V22C12.2513 22.9942 12.6468 23.9472 13.3498 24.6502C14.0528 25.3532 15.0058 25.7487 16 25.75H26C26.9942 25.7489 27.9474 25.3535 28.6505 24.6505C29.3535 23.9474 29.7489 22.9942 29.75 22V18C29.75 17.8011 29.671 17.6103 29.5303 17.4697C29.3897 17.329 29.1989 17.25 29 17.25ZM6 6.25C5.00584 6.25132 4.05279 6.64684 3.34981 7.34981C2.64684 8.05279 2.25132 9.00584 2.25 10V22C2.25 22.9946 2.64509 23.9484 3.34835 24.6517C4.05161 25.3549 5.00544 25.75 6 25.75C6.99456 25.75 7.94839 25.3549 8.65165 24.6517C9.35491 23.9484 9.75 22.9946 9.75 22V10C9.74868 9.00584 9.35316 8.05279 8.65019 7.34981C7.94721 6.64684 6.99416 6.25132 6 6.25ZM8.25 22C8.25 22.5967 8.01295 23.169 7.59099 23.591C7.16903 24.0129 6.59674 24.25 6 24.25C5.40326 24.25 4.83097 24.0129 4.40901 23.591C3.98705 23.169 3.75 22.5967 3.75 22V10C3.75 9.40326 3.98705 8.83097 4.40901 8.40901C4.83097 7.98705 5.40326 7.75 6 7.75C6.59674 7.75 7.16903 7.98705 7.59099 8.40901C8.01295 8.83097 8.25 9.40326 8.25 10V22Z M17 17.75C17.1989 17.75 17.3897 17.671 17.5303 17.5303C17.671 17.3897 17.75 17.1989 17.75 17C17.75 16.8011 17.671 16.6103 17.5303 16.4697C17.3897 16.329 17.1989 16.25 17 16.25C16.8011 16.25 16.6103 16.329 16.4697 16.4697C16.329 16.6103 16.25 16.8011 16.25 17C16.25 17.1989 16.329 17.3897 16.4697 17.5303C16.6103 17.671 16.8011 17.75 17 17.75ZM21 17.75C21.1989 17.75 21.3897 17.671 21.5303 17.5303C21.671 17.3897 21.75 17.1989 21.75 17C21.75 16.8011 21.671 16.6103 21.5303 16.4697C21.3897 16.329 21.1989 16.25 21 16.25C20.8011 16.25 20.6103 16.329 20.4697 16.4697C20.329 16.6103 20.25 16.8011 20.25 17C20.25 17.1989 20.329 17.3897 20.4697 17.5303C20.6103 17.671 20.8011 17.75 21 17.75ZM25 17.75C25.1989 17.75 25.3897 17.671 25.5303 17.5303C25.671 17.3897 25.75 17.1989 25.75 17C25.75 16.8011 25.671 16.6103 25.5303 16.4697C25.3897 16.329 25.1989 16.25 25 16.25C24.8011 16.25 24.6103 16.329 24.4697 16.4697C24.329 16.6103 24.25 16.8011 24.25 17C24.25 17.1989 24.329 17.3897 24.4697 17.5303C24.6103 17.671 24.8011 17.75 25 17.75ZM17 21.75C17.1989 21.75 17.3897 21.671 17.5303 21.5303C17.671 21.3897 17.75 21.1989 17.75 21C17.75 20.8011 17.671 20.6103 17.5303 20.4697C17.3897 20.329 17.1989 20.25 17 20.25C16.8011 20.25 16.6103 20.329 16.4697 20.4697C16.329 20.6103 16.25 20.8011 16.25 21C16.25 21.1989 16.329 21.3897 16.4697 21.5303C16.6103 21.671 16.8011 21.75 17 21.75ZM21 21.75C21.1989 21.75 21.3897 21.671 21.5303 21.5303C21.671 21.3897 21.75 21.1989 21.75 21C21.75 20.8011 21.671 20.6103 21.5303 20.4697C21.3897 20.329 21.1989 20.25 21 20.25C20.8011 20.25 20.6103 20.329 20.4697 20.4697C20.329 20.6103 20.25 20.8011 20.25 21C20.25 21.1989 20.329 21.3897 20.4697 21.5303C20.6103 21.671 20.8011 21.75 21 21.75ZM25 21.75C25.1989 21.75 25.3897 21.671 25.5303 21.5303C25.671 21.3897 25.75 21.1989 25.75 21C25.75 20.8011 25.671 20.6103 25.5303 20.4697C25.3897 20.329 25.1989 20.25 25 20.25C24.8011 20.25 24.6103 20.329 24.4697 20.4697C24.329 20.6103 24.25 20.8011 24.25 21C24.25 21.1989 24.329 21.3897 24.4697 21.5303C24.6103 21.671 24.8011 21.75 25 21.75Z"/></svg>