<svg width="32" height="32" viewBox="0 0 32 32" fill="none" xmlns="http://www.w3.org/2000/svg">
<path d="M26.0002 6.49953H16.0002C15.0723 6.50065 14.1827 6.86976 13.5266 7.5259C12.8705 8.18203 12.5014 9.07162 12.5002 9.99953V21.9995C12.5014 22.9274 12.8705 23.817 13.5266 24.4732C14.1827 25.1293 15.0723 25.4984 16.0002 25.4995H26.0002C26.9282 25.4984 27.8177 25.1293 28.4739 24.4732C29.13 23.817 29.4991 22.9274 29.5002 21.9995V9.99953C29.4991 9.07162 29.13 8.18203 28.4739 7.5259C27.8177 6.86976 26.9282 6.50065 26.0002 6.49953ZM16.0002 7.49953H26.0002C26.6631 7.50014 27.2986 7.76373 27.7673 8.23244C28.236 8.70115 28.4996 9.33668 28.5002 9.99953V12.4995H13.5002V9.99953C13.5009 9.33668 13.7644 8.70115 14.2332 8.23244C14.7019 7.76373 15.3374 7.50014 16.0002 7.49953ZM26.0002 24.4995H16.0002C15.3374 24.4989 14.7019 24.2353 14.2332 23.7666C13.7644 23.2979 13.5009 22.6624 13.5002 21.9995V13.4995H28.5002V21.9995C28.4996 22.6624 28.236 23.2979 27.7673 23.7666C27.2986 24.2353 26.6631 24.4989 26.0002 24.4995Z" fill="black"/>
<path d="M6.00024 6.49953C5.07233 6.50065 4.18274 6.86976 3.52661 7.5259C2.87048 8.18203 2.50137 9.07162 2.50024 9.99953V21.9995C2.50024 22.9278 2.86899 23.818 3.52537 24.4744C4.18175 25.1308 5.07199 25.4995 6.00024 25.4995C6.9285 25.4995 7.81874 25.1308 8.47512 24.4744C9.13149 23.818 9.50024 22.9278 9.50024 21.9995V9.99953C9.49912 9.07162 9.13001 8.18203 8.47388 7.5259C7.81774 6.86976 6.92816 6.50065 6.00024 6.49953ZM8.50024 21.9995C8.50024 22.6626 8.23685 23.2985 7.76801 23.7673C7.29917 24.2361 6.66329 24.4995 6.00024 24.4995C5.3372 24.4995 4.70132 24.2361 4.23248 23.7673C3.76364 23.2985 3.50024 22.6626 3.50024 21.9995V9.99953C3.50024 9.33649 3.76364 8.7006 4.23248 8.23176C4.70132 7.76292 5.3372 7.49953 6.00024 7.49953C6.66329 7.49953 7.29917 7.76292 7.76801 8.23176C8.23685 8.7006 8.50024 9.33649 8.50024 9.99953V21.9995Z" fill="black"/>
<path d="M17 17.5C17.2761 17.5 17.5 17.2762 17.5 17C17.5 16.7239 17.2761 16.5 17 16.5C16.7239 16.5 16.5 16.7239 16.5 17C16.5 17.2762 16.7239 17.5 17 17.5Z" fill="black"/>
<path d="M21 17.5C21.2761 17.5 21.5 17.2762 21.5 17C21.5 16.7239 21.2761 16.5 21 16.5C20.7239 16.5 20.5 16.7239 20.5 17C20.5 17.2762 20.7239 17.5 21 17.5Z" fill="black"/>
<path d="M25 17.5C25.2761 17.5 25.5 17.2762 25.5 17C25.5 16.7239 25.2761 16.5 25 16.5C24.7239 16.5 24.5 16.7239 24.5 17C24.5 17.2762 24.7239 17.5 25 17.5Z" fill="black"/>
<path d="M17 21.5C17.2761 21.5 17.5 21.2762 17.5 21C17.5 20.7239 17.2761 20.5 17 20.5C16.7239 20.5 16.5 20.7239 16.5 21C16.5 21.2762 16.7239 21.5 17 21.5Z" fill="black"/>
<path d="M21 21.5C21.2761 21.5 21.5 21.2762 21.5 21C21.5 20.7239 21.2761 20.5 21 20.5C20.7239 20.5 20.5 20.7239 20.5 21C20.5 21.2762 20.7239 21.5 21 21.5Z" fill="black"/>
<path d="M25 21.5C25.2761 21.5 25.5 21.2762 25.5 21C25.5 20.7239 25.2761 20.5 25 20.5C24.7239 20.5 24.5 20.7239 24.5 21C24.5 21.2762 24.7239 21.5 25 21.5Z" fill="black"/>
</svg>
