<svg width="32" height="32" viewBox="0 0 32 32" fill="none" xmlns="http://www.w3.org/2000/svg">
<path d="M25.0001 5.2504H7.00009C5.74075 5.25183 4.5334 5.75273 3.64291 6.64322C2.75242 7.53371 2.25152 8.74106 2.25009 10.0004V22.0004C2.25152 23.2597 2.75242 24.4671 3.64291 25.3576C4.5334 26.2481 5.74075 26.749 7.00009 26.7504H25.0001C26.2594 26.749 27.4668 26.2481 28.3573 25.3576C29.2478 24.4671 29.7487 23.2597 29.7501 22.0004V10.0004C29.7487 8.74106 29.2478 7.53371 28.3573 6.64322C27.4668 5.75273 26.2594 5.25183 25.0001 5.2504ZM28.2501 22.0004C28.2491 22.862 27.9064 23.6881 27.2971 24.2974C26.6878 24.9067 25.8617 25.2494 25.0001 25.2504H7.00009C6.13844 25.2494 5.31237 24.9067 4.7031 24.2974C4.09382 23.6881 3.75109 22.862 3.75009 22.0004V10.0004C3.75109 9.13875 4.09382 8.31268 4.7031 7.70341C5.31237 7.09413 6.13844 6.7514 7.00009 6.7504H25.0001C25.8617 6.7514 26.6878 7.09413 27.2971 7.70341C27.9064 8.31268 28.2491 9.13875 28.2501 10.0004V22.0004Z" fill="black"/>
<path d="M16.0001 14.8676C15.2446 14.8656 14.4963 15.0135 13.7984 15.3026C13.1005 15.5918 12.4668 16.0165 11.9342 16.5522C11.7935 16.6928 11.7145 16.8835 11.7145 17.0824C11.7145 17.2813 11.7935 17.4721 11.9342 17.6127C12.0748 17.7533 12.2656 17.8324 12.4644 17.8324C12.6633 17.8324 12.8541 17.7533 12.9947 17.6127C13.3894 17.218 13.8579 16.9048 14.3735 16.6912C14.8892 16.4776 15.4419 16.3676 16.0001 16.3676C16.5583 16.3676 17.111 16.4776 17.6266 16.6912C18.1423 16.9048 18.6108 17.218 19.0055 17.6127C19.1463 17.7525 19.3368 17.8308 19.5352 17.8304C19.7336 17.8301 19.9238 17.7511 20.0641 17.6108C20.2044 17.4705 20.2834 17.2803 20.2837 17.0819C20.2841 16.8834 20.2058 16.693 20.066 16.5522C19.5333 16.0165 18.8997 15.5918 18.2018 15.3026C17.5039 15.0135 16.7555 14.8656 16.0001 14.8676Z" fill="black"/>
<path d="M16 21.1605C16.6904 21.1605 17.25 20.6008 17.25 19.9105C17.25 19.2201 16.6904 18.6605 16 18.6605C15.3096 18.6605 14.75 19.2201 14.75 19.9105C14.75 20.6008 15.3096 21.1605 16 21.1605Z" fill="black"/>
<path d="M16.0001 10.8637C14.7189 10.8608 13.4499 11.112 12.2664 11.6028C11.083 12.0936 10.0086 12.8143 9.10556 13.7231C9.03551 13.7926 8.97988 13.8753 8.94185 13.9664C8.90383 14.0575 8.88416 14.1552 8.88398 14.2539C8.8838 14.3526 8.90311 14.4504 8.9408 14.5416C8.9785 14.6328 9.03383 14.7157 9.10363 14.7855C9.17343 14.8553 9.25632 14.9107 9.34755 14.9484C9.43878 14.9861 9.53656 15.0054 9.63527 15.0052C9.73398 15.005 9.83168 14.9853 9.92277 14.9473C10.0139 14.9093 10.0966 14.8537 10.1661 14.7836C10.9316 14.0165 11.8409 13.4079 12.842 12.9927C13.843 12.5774 14.9161 12.3637 15.9998 12.3637C17.0836 12.3637 18.1567 12.5774 19.1577 12.9927C20.1587 13.4079 21.0681 14.0165 21.8336 14.7836C21.9743 14.9238 22.1649 15.0024 22.3636 15.0022C22.5622 15.002 22.7526 14.923 22.8931 14.7826C23.0335 14.6421 23.1125 14.4517 23.1127 14.253C23.1129 14.0544 23.0343 13.8638 22.8941 13.7231C21.9912 12.8143 20.9169 12.0936 19.7335 11.6028C18.5502 11.112 17.2812 10.8608 16.0001 10.8637Z" fill="black"/>
</svg>
