<svg xmlns="http://www.w3.org/2000/svg" width="32" height="32" viewBox="0 0 32 32"><path d="M25 5.5H7C5.80693 5.50132 4.66311 5.97585 3.81948 6.81948C2.97585 7.66311 2.50132 8.80693 2.5 10V22C2.50132 23.1931 2.97585 24.3369 3.81948 25.1805C4.66311 26.0241 5.80693 26.4987 7 26.5H25C26.1931 26.4989 27.3371 26.0245 28.1808 25.1808C29.0245 24.3371 29.4989 23.1931 29.5 22V10C29.4987 8.80693 29.0241 7.66311 28.1805 6.81948C27.3369 5.97585 26.1931 5.50132 25 5.5ZM13.171 17.79C12.9834 17.9775 12.7289 18.0828 12.4636 18.0827C12.1984 18.0826 11.944 17.9771 11.7565 17.7895C11.569 17.6019 11.4637 17.3474 11.4638 17.0821C11.4639 16.8169 11.5694 16.5625 11.757 16.375C12.314 15.8175 12.9755 15.3752 13.7035 15.0735C14.4315 14.7718 15.2119 14.6165 16 14.6165C16.7881 14.6165 17.5685 14.7718 18.2965 15.0735C19.0245 15.3752 19.686 15.8175 20.243 16.375C20.3863 16.514 20.4847 16.6928 20.5254 16.8883C20.5661 17.0838 20.5473 17.287 20.4715 17.4717C20.3956 17.6564 20.2661 17.8141 20.0997 17.9245C19.9333 18.0349 19.7377 18.0929 19.538 18.091C19.4056 18.0902 19.2746 18.0631 19.1527 18.0112C19.0308 17.9594 18.9204 17.8838 18.828 17.789C18.0661 17.0613 17.0531 16.6552 15.9995 16.6552C14.9459 16.6552 13.9329 17.0613 13.171 17.789V17.79ZM17.061 20.971C16.7796 21.2524 16.398 21.4105 16 21.4105C15.602 21.4105 15.2204 21.2524 14.939 20.971C14.6576 20.6896 14.4995 20.308 14.4995 19.91C14.4995 19.512 14.6576 19.1304 14.939 18.849C15.2204 18.5676 15.602 18.4095 16 18.4095C16.398 18.4095 16.7796 18.5676 17.061 18.849C17.3424 19.1304 17.5005 19.512 17.5005 19.91C17.5005 20.308 17.3424 20.6896 17.061 20.971ZM23.071 14.96C22.8835 15.1475 22.6292 15.2528 22.364 15.2528C22.0988 15.2528 21.8445 15.1475 21.657 14.96C20.1554 13.4621 18.121 12.6208 16 12.6208C13.879 12.6208 11.8446 13.4621 10.343 14.96C10.1544 15.1422 9.9018 15.243 9.6396 15.2407C9.3774 15.2384 9.12659 15.1332 8.94118 14.9478C8.75577 14.7624 8.6506 14.5116 8.64833 14.2494C8.64605 13.9872 8.74684 13.7346 8.929 13.546C10.806 11.6739 13.3489 10.6225 16 10.6225C18.6511 10.6225 21.194 11.6739 23.071 13.546C23.2585 13.7335 23.3638 13.9878 23.3638 14.253C23.3638 14.5182 23.2585 14.7725 23.071 14.96Z"/></svg>