<svg xmlns="http://www.w3.org/2000/svg" width="32" height="32" viewBox="0 0 32 32"><path d="M23 4.50003H9C7.80693 4.50136 6.66311 4.97589 5.81948 5.81951C4.97585 6.66314 4.50132 7.80696 4.5 9.00003V23C4.50132 24.1931 4.97585 25.3369 5.81948 26.1806C6.66311 27.0242 7.80693 27.4987 9 27.5H23C24.1987 27.4929 25.3457 27.0106 26.1893 26.1589C27.0329 25.3073 27.5043 24.1558 27.5 22.957V8.95703C27.4931 7.76963 27.0154 6.63345 26.1718 5.79786C25.3281 4.96226 24.1874 4.49551 23 4.50003ZM9 5.50003H23C23.9222 5.49551 24.8086 5.8569 25.4647 6.50496C26.1208 7.15302 26.4931 8.03484 26.5 8.95703V17.5H20.796C20.4535 17.5004 20.1215 17.6181 19.8553 17.8336C19.5891 18.049 19.4048 18.3492 19.333 18.684L18.601 22.002C18.5463 22.1511 18.4463 22.2793 18.315 22.3686C18.1837 22.4579 18.0277 22.5039 17.869 22.5C17.7135 22.5001 17.5619 22.4518 17.435 22.3618C17.3082 22.2719 17.2124 22.1448 17.161 21.998L13.476 9.69003C13.3569 9.34205 13.1317 9.04014 12.8322 8.8267C12.5327 8.61325 12.1738 8.49902 11.806 8.50003H11.786C11.4118 8.50344 11.0484 8.62568 10.7482 8.8491C10.4481 9.07253 10.2267 9.38557 10.116 9.74303L7.923 17.133C7.89321 17.2374 7.83066 17.3294 7.74459 17.3955C7.65853 17.4615 7.55349 17.4982 7.445 17.5H5.5V9.00003C5.50106 8.0721 5.87015 7.18248 6.5263 6.52633C7.18244 5.87018 8.07207 5.50109 9 5.50003ZM23 26.5H9C8.07207 26.499 7.18244 26.1299 6.5263 25.4737C5.87015 24.8176 5.50106 23.928 5.5 23V18.5H7.445C7.76903 18.4971 8.08354 18.3901 8.34223 18.195C8.60093 17.9998 8.79013 17.7268 8.882 17.416L11.069 10.043C11.1161 9.88636 11.2123 9.74895 11.3433 9.65102C11.4744 9.55309 11.6334 9.49981 11.797 9.49903H11.805C11.9627 9.49666 12.1172 9.54382 12.2468 9.63388C12.3763 9.72393 12.4743 9.85235 12.527 10.001L16.212 22.31C16.3304 22.6526 16.5513 22.9504 16.8446 23.1633C17.138 23.3761 17.4896 23.4937 17.852 23.5H17.885C18.2536 23.4965 18.6122 23.3788 18.9112 23.1632C19.2102 22.9476 19.4352 22.6447 19.555 22.296L20.308 18.903C20.3311 18.7903 20.3921 18.6889 20.4809 18.6158C20.5697 18.5426 20.6809 18.5021 20.796 18.501H26.5V22.957C26.5045 23.8906 26.1386 24.7879 25.4825 25.4521C24.8264 26.1163 23.9336 26.4932 23 26.5Z"/></svg>