<svg width="32" height="32" viewBox="0 0 32 32" fill="none" xmlns="http://www.w3.org/2000/svg">
<path d="M22.9999 4.00038H8.99988C7.67427 4.00194 6.40341 4.52923 5.46607 5.46657C4.52872 6.40392 4.00144 7.67478 3.99988 9.00038V23.0004C4.00143 24.326 4.52872 25.5969 5.46606 26.5342C6.40341 27.4715 7.67427 27.9988 8.99988 28.0004H22.9999C24.3312 27.9931 25.6052 27.458 26.5425 26.5126C27.4798 25.5672 28.004 24.2887 27.9999 22.9574V8.95738C27.9926 7.63748 27.4622 6.37434 26.5248 5.44506C25.5875 4.51577 24.3198 3.99622 22.9999 4.00038ZM8.99988 6.00038H22.9999C23.7896 5.99555 24.5489 6.30417 25.1113 6.85853C25.6738 7.41289 25.9933 8.16771 25.9999 8.95738V17.0004H20.7958C20.3395 17.0005 19.897 17.1568 19.542 17.4434C19.187 17.73 18.9409 18.1296 18.8446 18.5756L18.1132 21.8686C18.0894 21.9095 18.0551 21.9432 18.0139 21.9664C17.9727 21.9896 17.9261 22.0013 17.8788 22.0004C17.8291 22.0028 17.7798 21.9902 17.7373 21.9643C17.6948 21.9384 17.6611 21.9002 17.6405 21.8549L13.9471 9.52191C13.7945 9.07608 13.5058 8.68937 13.1218 8.41625C12.7378 8.14312 12.2778 7.99735 11.8065 7.99945L11.7811 8.00045C11.2998 8.00457 10.8323 8.16194 10.4465 8.44975C10.0607 8.73756 9.77669 9.14082 9.63562 9.601L7.44519 17.0004H5.99988V9.00038C6.00075 8.205 6.3171 7.44244 6.87952 6.88002C7.44194 6.3176 8.20449 6.00125 8.99988 6.00038ZM22.9999 26.0004H8.99988C8.20449 25.9995 7.44194 25.6832 6.87952 25.1207C6.3171 24.5583 6.00075 23.7958 5.99988 23.0004V19.0004H7.44519C7.87698 18.9971 8.29629 18.8552 8.64127 18.5955C8.98625 18.3358 9.23863 17.9721 9.36119 17.558L11.5438 10.2016C11.5573 10.1433 11.5903 10.0915 11.6374 10.0547C11.6845 10.0179 11.7428 9.99838 11.8026 9.99941H11.8065C11.8568 9.99592 11.9069 10.008 11.9501 10.034C11.9933 10.0601 12.0273 10.0988 12.0477 10.1449L15.7411 22.4779C15.893 22.9163 16.176 23.2974 16.5517 23.5695C16.9274 23.8417 17.3778 23.9917 17.8416 23.9994C17.8563 24.0004 17.87 24.0004 17.8846 24.0004C18.3407 24.0008 18.7862 23.8633 19.1628 23.6061C19.5393 23.3489 19.8294 22.9839 19.995 22.559C20.0149 22.5089 20.0309 22.4573 20.0428 22.4047L20.7958 19.0004H25.9999V22.9574C26.0046 23.7585 25.6914 24.5287 25.129 25.0992C24.5666 25.6696 23.8009 25.9937 22.9999 26.0004Z" fill="black"/>
</svg>
