<svg xmlns="http://www.w3.org/2000/svg" width="32" height="32" viewBox="0 0 32 32"><path d="M21.916 3.333a1.001 1.001 0 0 1 .701 1.873 3.22 3.22 0 0 0-1.15.741l-.093.093a.997.997 0 0 1-1.414 0 1 1 0 0 1 0-1.414l.093-.093a5.196 5.196 0 0 1 1.863-1.2ZM17.756 18.83l1.37-1.37a1 1 0 1 1 1.414 1.414l-1.37 1.37a.997.997 0 0 1-1.414 0 1 1 0 0 1 0-1.414ZM26.505 6.521A1 1 0 0 0 28.2 5.46a5.39 5.39 0 0 0-.736-.929 5.265 5.265 0 0 0-.947-.747 1 1 0 1 0-1.05 1.703c.21.13.409.286.58.456.173.175.327.37.458.58ZM26.799 9.365a1 1 0 0 1 1.877.691 5.22 5.22 0 0 1-1.207 1.89l-.08.079a.997.997 0 0 1-1.413 0 1 1 0 0 1 0-1.415l.077-.077c.332-.334.584-.727.746-1.168ZM23.236 13.35l-1.37 1.37a1 1 0 1 0 1.414 1.414l1.37-1.37a1 1 0 1 0-1.414-1.414ZM9.59 27 15 21.586A1 1 0 1 1 16.414 23l-5.417 5.417c-.37.37-.884.583-1.407.583H5c-1.103 0-2-.897-2-2v-4.59c0-.523.213-1.037.583-1.407L17.221 7.365a1 1 0 1 1 1.414 1.414L4.997 22.417 5 27h4.59Z"/></svg>