<svg width="32" height="32" viewBox="0 0 32 32" fill="none" xmlns="http://www.w3.org/2000/svg">
<path d="M29.5368 28.4825L26.2272 25.1524C28.5788 22.5392 29.8378 19.1232 29.7446 15.6089C29.6514 12.0947 28.213 8.75022 25.7261 6.26541C23.2393 3.78059 19.8937 2.34493 16.3793 2.25457C12.865 2.1642 9.44999 3.42601 6.83873 5.77973L3.52999 2.46985C3.46036 2.40021 3.37769 2.34497 3.2867 2.30728C3.19571 2.26959 3.0982 2.25019 2.99971 2.25018C2.80082 2.25018 2.61006 2.32919 2.46942 2.46982C2.39978 2.53946 2.34454 2.62213 2.30685 2.71312C2.26916 2.8041 2.24976 2.90162 2.24976 3.00011C2.24975 3.199 2.32876 3.38976 2.46939 3.5304L8.4684 9.5314C8.53803 9.60104 8.62071 9.65628 8.71169 9.69397C8.80268 9.73166 8.9002 9.75106 8.99868 9.75106C9.09717 9.75106 9.19469 9.73167 9.28568 9.69398C9.37667 9.65629 9.45934 9.60105 9.52898 9.53141C9.59862 9.46178 9.65386 9.3791 9.69155 9.28812C9.72924 9.19713 9.74864 9.09961 9.74864 9.00112C9.74864 8.90264 9.72925 8.80512 9.69156 8.71413C9.65387 8.62314 9.59863 8.54047 9.529 8.47083L7.90263 6.84394C10.2306 4.77066 13.2629 3.66546 16.379 3.75452C19.495 3.84358 22.4593 5.12017 24.665 7.32302C26.8708 9.52587 28.1512 12.4884 28.2444 15.6044C28.3376 18.7203 27.2363 21.7541 25.1661 24.0848L23.5592 22.4679C23.4899 22.3977 23.4075 22.3419 23.3165 22.3036C23.2256 22.2653 23.128 22.2453 23.0294 22.2448C22.9307 22.2443 22.8329 22.2633 22.7416 22.3007C22.6503 22.338 22.5673 22.393 22.4972 22.4625C22.4272 22.532 22.3716 22.6147 22.3336 22.7057C22.2956 22.7967 22.2759 22.8944 22.2756 22.993C22.2754 23.0917 22.2947 23.1894 22.3323 23.2806C22.3699 23.3718 22.4251 23.4547 22.4948 23.5245L28.4723 29.5392C28.6126 29.6797 28.8028 29.7589 29.0014 29.7593C29.1999 29.7598 29.3905 29.6815 29.5314 29.5416C29.6723 29.4018 29.752 29.2117 29.753 29.0132C29.754 28.8147 29.6763 28.6238 29.5368 28.4825Z" fill="black"/>
<path d="M15.9997 28.2501C13.7691 28.2521 11.5804 27.6444 9.67003 26.4928C7.7597 25.3412 6.20041 23.6894 5.16066 21.7159C4.12091 19.7425 3.64024 17.5224 3.77059 15.2956C3.90094 13.0688 4.63735 10.92 5.90024 9.08136L4.83024 8.01136C2.92959 10.6556 2.03088 13.8894 2.29463 17.1351C2.55839 20.3808 3.96743 23.4271 6.27008 25.7297C8.57272 28.0324 11.619 29.4414 14.8647 29.7052C18.1104 29.9689 21.3442 29.0702 23.9885 27.1696L22.9185 26.0996C20.8839 27.5019 18.4707 28.2519 15.9997 28.2501Z" fill="black"/>
<path d="M11.4694 20.5304C11.539 20.6001 11.6217 20.6553 11.7127 20.693C11.8037 20.7307 11.9012 20.7501 11.9997 20.7501C12.0982 20.7501 12.1957 20.7307 12.2867 20.693C12.3777 20.6553 12.4603 20.6001 12.5299 20.5304L15.9997 17.0607L19.4694 20.5304C19.61 20.671 19.8008 20.7501 19.9997 20.7501C20.1986 20.7501 20.3893 20.6711 20.53 20.5304C20.6706 20.3898 20.7496 20.199 20.7496 20.0001C20.7496 19.8012 20.6706 19.6105 20.53 19.4699L17.0603 16.0001L20.53 12.5304C20.6706 12.3898 20.7496 12.199 20.7496 12.0001C20.7496 11.8012 20.6706 11.6105 20.53 11.4698C20.3894 11.3292 20.1986 11.2502 19.9997 11.2502C19.8008 11.2502 19.6101 11.3292 19.4694 11.4698L15.9997 14.9396L12.53 11.4698C12.3894 11.3292 12.1986 11.2502 11.9997 11.2502C11.8008 11.2502 11.6101 11.3292 11.4694 11.4698C11.3288 11.6105 11.2498 11.8012 11.2498 12.0001C11.2498 12.199 11.3288 12.3898 11.4694 12.5304L14.9391 16.0001L11.4694 19.4699C11.3997 19.5395 11.3445 19.6221 11.3068 19.7131C11.2691 19.8041 11.2497 19.9016 11.2497 20.0001C11.2497 20.0986 11.2691 20.1961 11.3068 20.2871C11.3445 20.3781 11.3997 20.4608 11.4694 20.5304Z" fill="black"/>
</svg>
