<svg width="32" height="32" viewBox="0 0 32 32" fill="none" xmlns="http://www.w3.org/2000/svg">
<path d="M26.565 25.133C28.8952 22.4663 30.1248 19.0137 30.0048 15.4744C29.8848 11.9351 28.4242 8.5737 25.9187 6.07094C23.4133 3.56819 20.0503 2.11115 16.5109 1.99493C12.9715 1.87871 9.52021 3.11199 6.856 5.445L3.706 2.295C3.61434 2.19726 3.50397 2.11893 3.38145 2.06468C3.25893 2.01042 3.12676 1.98134 2.99278 1.97917C2.85881 1.97699 2.72576 2.00176 2.60154 2.05201C2.47732 2.10226 2.36447 2.17696 2.26969 2.27168C2.17491 2.36639 2.10013 2.47919 2.04979 2.60337C1.99945 2.72755 1.97459 2.86058 1.97667 2.99456C1.97875 3.12854 2.00773 3.26074 2.0619 3.38329C2.11607 3.50585 2.19432 3.61627 2.292 3.708L8.292 9.708C8.38424 9.80351 8.49459 9.87969 8.61659 9.9321C8.7386 9.98451 8.86982 10.0121 9.0026 10.0133C9.13538 10.0144 9.26705 9.9891 9.38995 9.93882C9.51285 9.88854 9.6245 9.81429 9.71839 9.7204C9.81229 9.6265 9.88654 9.51485 9.93682 9.39195C9.9871 9.26906 10.0124 9.13738 10.0112 9.0046C10.0101 8.87182 9.98251 8.7406 9.9301 8.6186C9.87769 8.49659 9.80151 8.38625 9.706 8.294L8.269 6.857C10.5587 4.90812 13.498 3.89234 16.5024 4.01164C19.5068 4.13094 22.3563 5.37658 24.4843 7.50088C26.6122 9.62517 27.8627 12.4725 27.9872 15.4767C28.1117 18.4809 27.1009 21.422 25.156 23.715L23.729 22.28C23.5409 22.0972 23.2886 21.9957 23.0263 21.9972C22.7641 21.9987 22.5129 22.1031 22.327 22.2881C22.141 22.473 22.0351 22.7235 22.0322 22.9858C22.0292 23.248 22.1293 23.5009 22.311 23.69L28.291 29.705C28.4791 29.8878 28.7314 29.9893 28.9937 29.9878C29.2559 29.9863 29.5071 29.8819 29.693 29.6969C29.879 29.512 29.9849 29.2615 29.9878 28.9992C29.9908 28.737 29.8907 28.4841 29.709 28.295L26.565 25.132V25.133ZM16 28C13.884 28.0043 11.8047 27.4478 9.9737 26.3873C8.14267 25.3269 6.6253 23.8002 5.57603 21.9627C4.52677 20.1252 3.98307 18.0425 4.00028 15.9266C4.01749 13.8107 4.59499 11.7372 5.674 9.917L4.22 8.464C2.4937 11.1484 1.7381 14.3427 2.07878 17.5161C2.41947 20.6894 3.83592 23.6505 6.09269 25.9073C8.34947 28.1641 11.3106 29.5805 14.4839 29.9212C17.6573 30.2619 20.8516 29.5063 23.536 27.78L22.083 26.326C20.2427 27.4207 18.1413 27.999 16 28V28Z" fill="#0F0F0F"/>
<path d="M11.293 20.707C11.4805 20.8945 11.7348 20.9998 12 20.9998C12.2652 20.9998 12.5195 20.8945 12.707 20.707L16 17.414L19.293 20.707C19.4816 20.8892 19.7342 20.99 19.9964 20.9877C20.2586 20.9854 20.5094 20.8802 20.6948 20.6948C20.8802 20.5094 20.9854 20.2586 20.9877 19.9964C20.99 19.7342 20.8892 19.4816 20.707 19.293L17.414 16L20.707 12.707C20.8892 12.5184 20.99 12.2658 20.9877 12.0036C20.9854 11.7414 20.8802 11.4906 20.6948 11.3052C20.5094 11.1198 20.2586 11.0146 19.9964 11.0123C19.7342 11.0101 19.4816 11.1109 19.293 11.293L16 14.586L12.707 11.293C12.5184 11.1109 12.2658 11.0101 12.0036 11.0123C11.7414 11.0146 11.4906 11.1198 11.3052 11.3052C11.1198 11.4906 11.0146 11.7414 11.0123 12.0036C11.0101 12.2658 11.1108 12.5184 11.293 12.707L14.586 16L11.293 19.293C11.2001 19.3858 11.1263 19.496 11.076 19.6173C11.0257 19.7386 10.9998 19.8687 10.9998 20C10.9998 20.1313 11.0257 20.2614 11.076 20.3827C11.1263 20.504 11.2001 20.6142 11.293 20.707V20.707Z" fill="#0F0F0F"/>
</svg>
