<svg width="32" height="32" viewBox="0 0 32 32" fill="none" xmlns="http://www.w3.org/2000/svg">
<path d="M16.0003 12.4995C15.3081 12.4995 14.6314 12.7048 14.0558 13.0894C13.4802 13.474 13.0316 14.0206 12.7667 14.6601C12.5018 15.2997 12.4325 16.0034 12.5676 16.6823C12.7026 17.3613 13.036 17.9849 13.5254 18.4744C14.0149 18.9639 14.6386 19.2972 15.3175 19.4323C15.9964 19.5673 16.7002 19.498 17.3397 19.2331C17.9792 18.9682 18.5259 18.5196 18.9105 17.944C19.295 17.3685 19.5003 16.6918 19.5003 15.9995C19.4992 15.0716 19.1301 14.182 18.4739 13.5259C17.8178 12.8698 16.9282 12.5007 16.0003 12.4995ZM16.0003 18.4995C15.5059 18.4995 15.0225 18.3529 14.6114 18.0782C14.2003 17.8035 13.8798 17.4131 13.6906 16.9562C13.5014 16.4994 13.4519 15.9968 13.5483 15.5118C13.6448 15.0269 13.8829 14.5814 14.2325 14.2318C14.5822 13.8821 15.0276 13.644 15.5126 13.5476C15.9975 13.4511 16.5002 13.5006 16.957 13.6898C17.4138 13.8791 17.8043 14.1995 18.079 14.6106C18.3537 15.0217 18.5003 15.5051 18.5003 15.9995C18.4997 16.6624 18.2361 17.2979 17.7674 17.7666C17.2987 18.2353 16.6632 18.4989 16.0003 18.4995Z" fill="black"/>
<path d="M22.7171 9.28273C21.8373 8.39754 20.7906 7.69573 19.6376 7.21798C18.4847 6.74023 17.2483 6.49603 16.0003 6.49953C15.8677 6.49953 15.7405 6.55221 15.6468 6.64598C15.553 6.73974 15.5003 6.86692 15.5003 6.99953C15.5003 7.13214 15.553 7.25932 15.6468 7.35308C15.7405 7.44685 15.8677 7.49953 16.0003 7.49953C18.2545 7.50011 20.4161 8.39583 22.0101 9.98977C23.604 11.5837 24.4997 13.7454 24.5003 15.9995C24.5003 16.1321 24.553 16.2593 24.6468 16.3531C24.7405 16.4469 24.8677 16.4995 25.0003 16.4995C25.1329 16.4995 25.2601 16.4469 25.3539 16.3531C25.4476 16.2593 25.5003 16.1321 25.5003 15.9995C25.5036 14.7515 25.2593 13.5153 24.7816 12.3623C24.3039 11.2094 23.6022 10.1626 22.7171 9.28273Z" fill="black"/>
<path d="M16.0003 2.49953C13.3303 2.49953 10.7202 3.29129 8.50011 4.77469C6.28005 6.25809 4.54972 8.3665 3.52794 10.8333C2.50615 13.3001 2.23881 16.0145 2.75971 18.6332C3.28061 21.252 4.56636 23.6575 6.45437 25.5455C8.34238 27.4335 10.7478 28.7192 13.3666 29.2401C15.9853 29.761 18.6997 29.4937 21.1665 28.4719C23.6333 27.4501 25.7418 25.7198 27.2252 23.4997C28.7085 21.2797 29.5003 18.6696 29.5003 15.9995C29.4964 12.4203 28.0728 8.9888 25.5419 6.4579C23.011 3.92701 19.5795 2.50344 16.0003 2.49953ZM16.0003 28.4995C13.528 28.4995 11.1113 27.7664 9.05568 26.3929C7.00007 25.0194 5.39791 23.0671 4.45182 20.7831C3.50572 18.499 3.25818 15.9857 3.7405 13.5609C4.22281 11.1361 5.41332 8.90885 7.16148 7.1607C8.90963 5.41254 11.1369 4.22203 13.5617 3.73971C15.9864 3.2574 18.4998 3.50494 20.7839 4.45104C23.0679 5.39713 25.0202 6.99929 26.3937 9.0549C27.7672 11.1105 28.5003 13.5273 28.5003 15.9995C28.4966 19.3136 27.1784 22.4909 24.835 24.8342C22.4916 27.1776 19.3144 28.4958 16.0003 28.4995Z" fill="black"/>
</svg>
