<svg width="32" height="32" viewBox="0 0 32 32" fill="none" xmlns="http://www.w3.org/2000/svg">
<path d="M29.537 28.483L26.227 25.153C28.5755 22.5395 29.8321 19.1246 29.7377 15.6122C29.6433 12.0997 28.2052 8.75728 25.7198 6.27361C23.2343 3.78994 19.8908 2.35426 16.3783 2.26243C12.8658 2.17059 9.45186 3.4296 6.84 5.78L3.53 2.47C3.46134 2.39631 3.37854 2.33721 3.28654 2.29622C3.19454 2.25523 3.09523 2.23319 2.99452 2.23141C2.89382 2.22963 2.79379 2.24816 2.7004 2.28588C2.60702 2.3236 2.52218 2.37974 2.45096 2.45096C2.37974 2.52218 2.3236 2.60702 2.28588 2.7004C2.24816 2.79379 2.22963 2.89382 2.23141 2.99452C2.23319 3.09523 2.25523 3.19454 2.29622 3.28654C2.33721 3.37854 2.39631 3.46134 2.47 3.53L8.468 9.531C8.53715 9.60267 8.61988 9.65984 8.71137 9.69919C8.80285 9.73854 8.90126 9.75927 9.00084 9.76019C9.10042 9.7611 9.19919 9.74217 9.29138 9.7045C9.38357 9.66683 9.46734 9.61118 9.53779 9.5408C9.60824 9.47041 9.66397 9.3867 9.70173 9.29455C9.73948 9.20239 9.7585 9.10364 9.75768 9.00406C9.75687 8.90447 9.73622 8.80605 9.69696 8.71453C9.6577 8.62301 9.6006 8.54022 9.529 8.471L7.903 6.844C10.2313 4.77314 13.2627 3.66993 16.3773 3.75993C19.492 3.84994 22.4546 5.12638 24.6594 7.32823C26.8642 9.53009 28.1446 12.491 28.2388 15.6056C28.3329 18.7201 27.2338 21.753 25.166 24.084L23.559 22.468C23.4906 22.3941 23.408 22.3347 23.3162 22.2934C23.2244 22.252 23.1251 22.2296 23.0245 22.2275C22.9238 22.2254 22.8237 22.2435 22.7302 22.2809C22.6367 22.3182 22.5516 22.3741 22.4801 22.445C22.4087 22.5159 22.3522 22.6006 22.3141 22.6938C22.2761 22.787 22.2572 22.887 22.2585 22.9877C22.2599 23.0884 22.2816 23.1877 22.3222 23.2799C22.3628 23.372 22.4216 23.4551 22.495 23.524L28.472 29.539C28.6128 29.6763 28.802 29.7528 28.9987 29.752C29.1955 29.7512 29.384 29.6731 29.5237 29.5346C29.6634 29.3961 29.7431 29.2082 29.7455 29.0115C29.748 28.8148 29.6731 28.625 29.537 28.483V28.483ZM16 28.25C13.7694 28.2518 11.5807 27.6441 9.67044 26.4925C7.76015 25.3408 6.20088 23.689 5.1611 21.7156C4.12132 19.7422 3.64057 17.5222 3.7708 15.2954C3.90103 13.0686 4.63728 10.9198 5.9 9.081L4.83 8.011C2.9289 10.6552 2.02981 13.8891 2.29334 17.1351C2.55688 20.3811 3.96587 23.4276 6.26861 25.7305C8.57136 28.0333 11.6178 29.4425 14.8638 29.7062C18.1098 29.9699 21.3437 29.071 23.988 27.17L22.918 26.1C20.8835 27.502 18.4707 28.2518 16 28.25V28.25Z" fill="#0F0F0F"/>
<path d="M11.47 20.53C11.5396 20.5997 11.6222 20.6549 11.7131 20.6926C11.8041 20.7303 11.9015 20.7498 12 20.7498C12.0984 20.7498 12.1959 20.7303 12.2869 20.6926C12.3778 20.6549 12.4604 20.5997 12.53 20.53L16 17.06L19.47 20.53C19.6122 20.6625 19.8002 20.7346 19.9945 20.7312C20.1888 20.7277 20.3742 20.649 20.5116 20.5116C20.649 20.3742 20.7277 20.1888 20.7312 19.9945C20.7346 19.8002 20.6625 19.6122 20.53 19.47L17.06 16L20.53 12.53C20.6625 12.3878 20.7346 12.1998 20.7312 12.0055C20.7277 11.8112 20.649 11.6258 20.5116 11.4884C20.3742 11.351 20.1888 11.2723 19.9945 11.2688C19.8002 11.2654 19.6122 11.3375 19.47 11.47L16 14.94L12.53 11.47C12.3878 11.3375 12.1998 11.2654 12.0055 11.2688C11.8112 11.2723 11.6258 11.351 11.4884 11.4884C11.351 11.6258 11.2722 11.8112 11.2688 12.0055C11.2654 12.1998 11.3375 12.3878 11.47 12.53L14.94 16L11.47 19.47C11.4002 19.5395 11.3448 19.6221 11.307 19.713C11.2693 19.804 11.2498 19.9015 11.2498 20C11.2498 20.0985 11.2693 20.196 11.307 20.287C11.3448 20.3779 11.4002 20.4605 11.47 20.53V20.53Z" fill="#0F0F0F"/>
</svg>
