<svg width="32" height="32" viewBox="0 0 32 32" fill="none" xmlns="http://www.w3.org/2000/svg">
<path d="M16 7.74953C18.188 7.74965 20.2863 8.61888 21.8335 10.166C23.3806 11.7132 24.2499 13.8115 24.25 15.9995C24.25 16.1984 24.329 16.3892 24.4697 16.5299C24.6103 16.6705 24.8011 16.7495 25 16.7495C25.1989 16.7495 25.3897 16.6705 25.5303 16.5299C25.671 16.3892 25.75 16.1984 25.75 15.9995C25.7498 13.4137 24.7225 10.9339 22.894 9.10549C21.0656 7.27706 18.5858 6.24976 16 6.24953C15.8011 6.24953 15.6103 6.32855 15.4697 6.4692C15.329 6.60985 15.25 6.80062 15.25 6.99953C15.25 7.19844 15.329 7.38921 15.4697 7.52986C15.6103 7.67051 15.8011 7.74953 16 7.74953Z" fill="black"/>
<path d="M26.2209 25.1599C28.5753 22.5479 29.8371 19.1319 29.746 15.6166C29.655 12.1014 28.2179 8.75525 25.7314 6.26877C23.2449 3.78228 19.8988 2.34521 16.3835 2.25412C12.8683 2.16304 9.45222 3.42489 6.8403 5.77926L3.5303 2.46926C3.38948 2.32947 3.19901 2.25118 3.00059 2.25154C2.80217 2.2519 2.61199 2.33089 2.47168 2.47119C2.33138 2.61149 2.2524 2.80168 2.25204 3.0001C2.25168 3.19851 2.32997 3.38899 2.46976 3.5298L28.4698 29.5298C28.6105 29.67 28.8011 29.7486 28.9997 29.7484C29.1984 29.7482 29.3888 29.6692 29.5293 29.5288C29.6697 29.3883 29.7487 29.1979 29.7489 28.9992C29.7491 28.8006 29.6705 28.61 29.5303 28.4693L26.2209 25.1599ZM16 3.74953C18.3592 3.74378 20.6696 4.42105 22.6523 5.69956C24.635 6.97808 26.2053 8.80318 27.1735 10.9545C28.1417 13.1059 28.4665 15.4915 28.1086 17.8234C27.7508 20.1553 26.7256 22.3338 25.1568 24.0958L19.129 18.068C19.6063 17.3471 19.8197 16.4834 19.7332 15.6231C19.6466 14.7629 19.2654 13.959 18.654 13.3476C18.0427 12.7362 17.2388 12.355 16.3785 12.2684C15.5183 12.1819 14.6545 12.3953 13.9336 12.8726L7.90378 6.84273C10.131 4.8523 13.0129 3.75124 16 3.74953ZM18.0248 16.9638L15.0356 13.9746C15.3362 13.8283 15.6657 13.7513 16 13.7495C16.3803 13.7472 16.7548 13.8418 17.0883 14.0245C17.4218 14.2073 17.7032 14.472 17.9059 14.7938C18.1086 15.1155 18.2259 15.4837 18.2467 15.8634C18.2675 16.2431 18.1911 16.6218 18.0248 16.9638Z" fill="black"/>
<path d="M16 28.2495C13.7694 28.2515 11.5807 27.6438 9.67037 26.4922C7.76006 25.3406 6.20077 23.6888 5.16103 21.7154C4.12128 19.7419 3.6406 17.5219 3.77094 15.2951C3.90127 13.0683 4.63766 10.9195 5.90054 9.08083L4.83054 8.01083C2.93001 10.6551 2.03139 13.8888 2.2952 17.1345C2.55901 20.3801 3.96805 23.4263 6.27065 25.7289C8.57325 28.0315 11.6194 29.4405 14.8651 29.7043C18.1108 29.9681 21.3445 29.0695 23.9887 27.169L22.9187 26.099C20.8841 27.5013 18.471 28.2514 16 28.2495Z" fill="black"/>
</svg>
