<svg width="32" height="32" viewBox="0 0 32 32" fill="none" xmlns="http://www.w3.org/2000/svg">
<path d="M16.0003 2.24953C13.2808 2.24953 10.6224 3.05595 8.36122 4.56682C6.10004 6.07769 4.33767 8.22515 3.29697 10.7376C2.25626 13.2501 1.98397 16.0148 2.51451 18.682C3.04506 21.3493 4.35462 23.7993 6.27759 25.7222C8.20057 27.6452 10.6506 28.9548 13.3178 29.4853C15.9851 30.0159 18.7497 29.7436 21.2622 28.7029C23.7747 27.6622 25.9221 25.8998 27.433 23.6386C28.9439 21.3774 29.7503 18.719 29.7503 15.9995C29.7463 12.354 28.2963 8.85902 25.7186 6.28127C23.1408 3.70352 19.6458 2.25357 16.0003 2.24953ZM16.0003 28.2495C13.5775 28.2495 11.2091 27.5311 9.19458 26.185C7.18007 24.839 5.60996 22.9258 4.68279 20.6874C3.75561 18.449 3.51302 15.9859 3.98569 13.6097C4.45836 11.2334 5.62506 9.05067 7.33825 7.33747C9.05145 5.62428 11.2342 4.45758 13.6105 3.98491C15.9867 3.51224 18.4498 3.75483 20.6882 4.68201C22.9266 5.60918 24.8398 7.17929 26.1858 9.1938C27.5319 11.2083 28.2503 13.5767 28.2503 15.9995C28.2467 19.2473 26.9549 22.3611 24.6584 24.6576C22.3619 26.9542 19.2481 28.2459 16.0003 28.2495Z" fill="black"/>
<path d="M16.0003 12.2495C15.2586 12.2495 14.5336 12.4695 13.9169 12.8815C13.3002 13.2936 12.8196 13.8792 12.5358 14.5645C12.2519 15.2497 12.1777 16.0037 12.3224 16.7311C12.4671 17.4585 12.8242 18.1267 13.3487 18.6512C13.8731 19.1756 14.5413 19.5328 15.2687 19.6775C15.9962 19.8222 16.7502 19.7479 17.4354 19.4641C18.1206 19.1803 18.7063 18.6996 19.1183 18.0829C19.5304 17.4662 19.7503 16.7412 19.7503 15.9995C19.7491 15.0054 19.3536 14.0523 18.6506 13.3493C17.9476 12.6463 16.9945 12.2508 16.0003 12.2495ZM16.0003 18.2495C15.5553 18.2495 15.1203 18.1176 14.7503 17.8703C14.3803 17.6231 14.0919 17.2717 13.9216 16.8606C13.7513 16.4494 13.7067 15.997 13.7935 15.5606C13.8804 15.1241 14.0947 14.7232 14.4093 14.4085C14.724 14.0939 15.1249 13.8796 15.5614 13.7928C15.9978 13.7059 16.4502 13.7505 16.8614 13.9208C17.2725 14.0911 17.6239 14.3795 17.8711 14.7495C18.1184 15.1195 18.2503 15.5545 18.2503 15.9995C18.2495 16.596 18.0122 17.1678 17.5904 17.5896C17.1686 18.0114 16.5968 18.2487 16.0003 18.2495Z" fill="black"/>
<path d="M22.8939 9.106C21.9909 8.19758 20.9166 7.47736 19.7333 6.98704C18.55 6.49672 17.2812 6.24605 16.0003 6.24955C15.8014 6.24955 15.6106 6.32857 15.47 6.46922C15.3293 6.60987 15.2503 6.80064 15.2503 6.99955C15.2503 7.19846 15.3293 7.38923 15.47 7.52988C15.6106 7.67053 15.8014 7.74955 16.0003 7.74955C18.1882 7.75011 20.2863 8.61949 21.8333 10.1665C23.3804 11.7136 24.2498 13.8117 24.2503 15.9996C24.2503 16.1985 24.3293 16.3892 24.47 16.5299C24.6106 16.6705 24.8014 16.7496 25.0003 16.7496C25.1992 16.7496 25.39 16.6705 25.5306 16.5299C25.6713 16.3892 25.7503 16.1985 25.7503 15.9996C25.7536 14.7187 25.5029 13.4499 25.0126 12.2667C24.5223 11.0834 23.8021 10.0091 22.8939 9.106Z" fill="black"/>
</svg>
