<svg xmlns="http://www.w3.org/2000/svg" width="32" height="32" viewBox="0 0 32 32"><path d="M25 4.25H11C8.94457 4.25 6.97333 5.06652 5.51992 6.51992C4.06652 7.97333 3.25 9.94457 3.25 12V17C3.25 17.9946 3.64509 18.9484 4.34835 19.6517C5.05161 20.3549 6.00544 20.75 7 20.75L14.251 20.749L14.25 24.999C14.2371 25.6691 14.4749 26.3199 14.9168 26.8238C15.3588 27.3277 15.9729 27.6483 16.639 27.723C16.768 27.74 16.899 27.748 17.029 27.748C17.6336 27.7529 18.2221 27.5536 18.6994 27.1825C19.1766 26.8114 19.5147 26.2901 19.659 25.703C20.594 22.207 21.464 18.999 21.804 17.748L25 17.75C25.9942 17.7487 26.9472 17.3532 27.6502 16.6502C28.3532 15.9472 28.7487 14.9942 28.75 14V8C28.7487 7.00584 28.3532 6.05279 27.6502 5.34981C26.9472 4.64684 25.9942 4.25132 25 4.25ZM18.209 25.315C18.1318 25.6088 17.9503 25.8644 17.6984 26.0341C17.4465 26.2039 17.1414 26.2761 16.8402 26.2372C16.5389 26.1984 16.2621 26.0512 16.0615 25.8231C15.8609 25.5951 15.7501 25.3018 15.75 24.998L15.746 20.642C15.7662 20.4669 15.7491 20.2896 15.6959 20.1215C15.6426 19.9535 15.5545 19.7987 15.4372 19.6671C15.3199 19.5356 15.1762 19.4303 15.0153 19.3583C14.8545 19.2862 14.6802 19.249 14.504 19.249L7 19.25C6.40351 19.2492 5.83167 19.0119 5.40989 18.5901C4.9881 18.1683 4.75079 17.5965 4.75 17V12C4.75 10.3424 5.40848 8.75269 6.58058 7.58058C7.75269 6.40848 9.3424 5.75 11 5.75H20.25V17.745C19.5653 20.2671 18.8849 22.7905 18.209 25.315ZM27.25 14C27.2492 14.5963 27.012 15.168 26.5905 15.5898C26.1689 16.0115 25.5973 16.2489 25.001 16.25L21.75 16.247V5.75H25C25.5965 5.75079 26.1683 5.9881 26.5901 6.40989C27.0119 6.83167 27.2492 7.40351 27.25 8V14Z"/></svg>