<svg width="32" height="32" viewBox="0 0 32 32" fill="none" xmlns="http://www.w3.org/2000/svg">
<path d="M28.9996 17.2498C28.8007 17.2499 28.61 17.3289 28.4693 17.4695C28.3287 17.6102 28.2497 17.8009 28.2496 17.9998V18.9998C28.2486 19.8614 27.9059 20.6875 27.2966 21.2968C26.6873 21.9061 25.8613 22.2488 24.9996 22.2498H6.9996C6.13796 22.2488 5.31188 21.9061 4.70261 21.2968C4.09333 20.6875 3.7506 19.8614 3.7496 18.9998V8.9998C3.7506 8.13815 4.09333 7.31208 4.70261 6.7028C5.31189 6.09353 6.13796 5.7508 6.9996 5.7498H15.9684C16.1673 5.7498 16.358 5.67078 16.4987 5.53013C16.6393 5.38948 16.7184 5.19871 16.7184 4.9998C16.7184 4.80089 16.6393 4.61012 16.4987 4.46947C16.358 4.32882 16.1673 4.2498 15.9684 4.2498H6.9996C5.74026 4.25123 4.53291 4.75213 3.64242 5.64262C2.75194 6.53311 2.25103 7.74046 2.2496 8.9998V18.9998C2.25103 20.2591 2.75194 21.4665 3.64242 22.357C4.53291 23.2475 5.74026 23.7484 6.9996 23.7498H11.4996L10.6002 24.95C10.4055 25.21 10.287 25.5191 10.2579 25.8426C10.2288 26.1661 10.2903 26.4914 10.4356 26.7819C10.5808 27.0725 10.804 27.3169 11.0802 27.4878C11.3564 27.6588 11.6748 27.7495 11.9996 27.7498H19.9996C20.3245 27.7497 20.643 27.6592 20.9194 27.4883C21.1958 27.3174 21.4191 27.0729 21.5644 26.7823C21.7097 26.4916 21.7711 26.1663 21.7419 25.8427C21.7127 25.519 21.594 25.2099 21.399 24.95L20.4996 23.7498H24.9996C26.2589 23.7484 27.4663 23.2475 28.3568 22.357C29.2472 21.4665 29.7482 20.2591 29.7496 18.9998V17.9998C29.7495 17.8009 29.6705 17.6102 29.5299 17.4695C29.3892 17.3289 29.1985 17.2499 28.9996 17.2498ZM20.1978 25.8504C20.2259 25.8873 20.243 25.9313 20.2474 25.9775C20.2518 26.0236 20.2432 26.07 20.2225 26.1116C20.2019 26.1531 20.1702 26.188 20.1308 26.2124C20.0914 26.2369 20.0459 26.2498 19.9996 26.2498H11.9996C11.9533 26.2498 11.9078 26.2369 11.8684 26.2124C11.8291 26.188 11.7973 26.1531 11.7767 26.1116C11.7561 26.07 11.7475 26.0236 11.7518 25.9775C11.7562 25.9313 11.7733 25.8873 11.8014 25.8504L13.3746 23.7498H18.6246L20.1978 25.8504Z" fill="black"/>
<path d="M22.9996 9.4998C23.1985 9.49975 23.3892 9.42071 23.5299 9.28007C23.6705 9.13943 23.7496 8.9487 23.7496 8.7498V7.44219C23.7496 7.24328 23.6706 7.05251 23.5299 6.91186C23.3893 6.77121 23.1985 6.69219 22.9996 6.69219C22.8007 6.69219 22.6099 6.77121 22.4693 6.91186C22.3286 7.05251 22.2496 7.24328 22.2496 7.44219V8.7498C22.2497 8.9487 22.3287 9.13943 22.4693 9.28007C22.61 9.42071 22.8007 9.49975 22.9996 9.4998Z" fill="black"/>
<path d="M23 12C23.4142 12 23.75 11.6642 23.75 11.25C23.75 10.8358 23.4142 10.5 23 10.5C22.5858 10.5 22.25 10.8358 22.25 11.25C22.25 11.6642 22.5858 12 23 12Z" fill="black"/>
<path d="M16.483 13.8709C16.6347 14.1393 16.8554 14.3623 17.1222 14.5168C17.389 14.6713 17.6923 14.7518 18.0006 14.7498H27.9996C28.3059 14.7497 28.6069 14.6691 28.8724 14.5162C29.1379 14.3633 29.3586 14.1434 29.5124 13.8784C29.6662 13.6135 29.7478 13.3128 29.749 13.0064C29.7502 12.7001 29.6709 12.3987 29.5191 12.1326L24.5338 3.13062L24.525 3.11553C24.3701 2.85031 24.1481 2.63052 23.8814 2.47822C23.6147 2.32593 23.3126 2.24648 23.0054 2.24787C22.6983 2.24925 22.3969 2.33142 22.1316 2.48612C21.8662 2.64081 21.6463 2.8626 21.4937 3.1292L16.4898 12.1175C16.3327 12.3827 16.2492 12.685 16.248 12.9933C16.2468 13.3015 16.3279 13.6045 16.483 13.8709ZM17.7926 12.8606L22.7965 3.87236C22.8183 3.83492 22.8495 3.80379 22.887 3.78197C22.9245 3.76016 22.9669 3.74841 23.0103 3.74787C23.0536 3.74733 23.0964 3.75801 23.1344 3.77889C23.1724 3.79976 23.2043 3.83011 23.2271 3.86699L28.2144 12.8733C28.2367 12.9113 28.2486 12.9544 28.2489 12.9983C28.2491 13.0423 28.2378 13.0856 28.216 13.1238C28.1942 13.162 28.1627 13.1937 28.1247 13.2158C28.0867 13.238 28.0436 13.2497 27.9996 13.2498H18.0006C17.9565 13.2506 17.9129 13.2393 17.8747 13.2172C17.8365 13.1951 17.8051 13.163 17.7838 13.1243C17.7607 13.0839 17.7493 13.0378 17.7508 12.9912C17.7524 12.9447 17.7668 12.8995 17.7926 12.8606Z" fill="black"/>
</svg>
