<svg width="32" height="32" viewBox="0 0 32 32" fill="none" xmlns="http://www.w3.org/2000/svg">
<path d="M24.9998 4H6.99979C5.67418 4.00156 4.40332 4.52884 3.46597 5.46619C2.52863 6.40353 2.00135 7.6744 1.99979 9V10.0151C1.99979 10.2804 2.10514 10.5347 2.29268 10.7222C2.48022 10.9098 2.73457 11.0151 2.99979 11.0151C3.265 11.0151 3.51936 10.9098 3.70689 10.7222C3.89443 10.5347 3.99979 10.2804 3.99979 10.0151V9C4.00065 8.20462 4.317 7.44206 4.87942 6.87964C5.44185 6.31722 6.2044 6.00087 6.99979 6H24.9998C25.7952 6.00087 26.5577 6.31722 27.1201 6.87964C27.6826 7.44206 27.9989 8.20462 27.9998 9V19C27.9989 19.7954 27.6826 20.5579 27.1201 21.1204C26.5577 21.6828 25.7952 21.9991 24.9998 22H6.99979C6.2044 21.9991 5.44185 21.6828 4.87942 21.1204C4.317 20.5579 4.00065 19.7954 3.99979 19V18.1123C3.99979 17.8471 3.89443 17.5927 3.70689 17.4052C3.51936 17.2177 3.265 17.1123 2.99979 17.1123C2.73457 17.1123 2.48022 17.2177 2.29268 17.4052C2.10514 17.5927 1.99979 17.8471 1.99979 18.1123V19C2.00135 20.3256 2.52863 21.5965 3.46597 22.5338C4.40332 23.4712 5.67418 23.9984 6.99979 24H11.0008L10.4012 24.7998C10.1779 25.0967 10.0418 25.45 10.0082 25.82C9.97452 26.19 10.0446 26.562 10.2107 26.8944C10.3767 27.2267 10.632 27.5062 10.9481 27.7015C11.2641 27.8968 11.6283 28.0002 11.9998 28H19.9998C20.3712 28.0001 20.7352 27.8967 21.0511 27.7015C21.367 27.5063 21.6223 27.2269 21.7883 26.8947C21.9543 26.5625 22.0245 26.1906 21.9909 25.8207C21.9574 25.4509 21.8215 25.0977 21.5984 24.8008L20.9983 24H24.9998C26.3254 23.9984 27.5963 23.4712 28.5336 22.5338C29.4709 21.5965 29.9982 20.3256 29.9998 19V9C29.9982 7.6744 29.4709 6.40353 28.5336 5.46619C27.5963 4.52884 26.3254 4.00156 24.9998 4ZM19.9998 26H12.0008L13.4998 24H18.4998L19.9998 26Z" fill="black"/>
<path d="M1.99979 14C1.99975 14.1313 2.02559 14.2614 2.07584 14.3827C2.12608 14.5041 2.19974 14.6143 2.2926 14.7072C2.38547 14.8 2.49572 14.8737 2.61706 14.924C2.7384 14.9742 2.86845 15 2.99979 15H10.5857L8.29273 17.293C8.19937 17.3857 8.12524 17.496 8.07458 17.6174C8.02392 17.7389 7.99773 17.8691 7.99751 18.0007C7.99729 18.1323 8.02305 18.2627 8.07331 18.3843C8.12357 18.5059 8.19734 18.6164 8.29039 18.7094C8.38345 18.8025 8.49395 18.8762 8.61557 18.9265C8.73719 18.9767 8.86753 19.0025 8.99912 19.0023C9.13071 19.002 9.26096 18.9758 9.3824 18.9252C9.50385 18.8745 9.61409 18.8004 9.70683 18.707L13.7061 14.7077C13.8933 14.5197 13.9983 14.2652 13.9983 14C13.9983 13.7347 13.8933 13.4803 13.7061 13.2923L9.70683 9.293C9.61417 9.19928 9.50391 9.1248 9.38237 9.07384C9.26083 9.02289 9.13042 8.99646 8.99864 8.99608C8.86685 8.9957 8.73629 9.02138 8.61446 9.07164C8.49263 9.12189 8.38194 9.19574 8.28875 9.28892C8.19556 9.38211 8.12171 9.4928 8.07145 9.61462C8.02118 9.73645 7.9955 9.86701 7.99587 9.9988C7.99625 10.1306 8.02267 10.261 8.07362 10.3825C8.12457 10.5041 8.19904 10.6143 8.29276 10.707L10.5857 13H2.99979C2.86845 13 2.7384 13.0258 2.61706 13.0761C2.49572 13.1263 2.38547 13.2 2.2926 13.2928C2.19974 13.3857 2.12608 13.4959 2.07584 13.6173C2.02559 13.7386 1.99975 13.8687 1.99979 14Z" fill="black"/>
</svg>
