<svg xmlns="http://www.w3.org/2000/svg" width="32" height="32" viewBox="0 0 32 32"><path d="M29 17.5C28.8674 17.5 28.7402 17.5527 28.6464 17.6464C28.5527 17.7402 28.5 17.8674 28.5 18V19C28.4989 19.9279 28.1299 20.8176 27.4737 21.4737C26.8176 22.1299 25.9279 22.4989 25 22.5H7C6.07207 22.4989 5.18244 22.1299 4.5263 21.4737C3.87015 20.8176 3.50106 19.9279 3.5 19V9C3.50106 8.07207 3.87015 7.18244 4.5263 6.5263C5.18244 5.87015 6.07207 5.50106 7 5.5H15.968C16.1006 5.5 16.2278 5.44732 16.3216 5.35355C16.4153 5.25979 16.468 5.13261 16.468 5C16.468 4.86739 16.4153 4.74021 16.3216 4.64645C16.2278 4.55268 16.1006 4.5 15.968 4.5H7C5.80693 4.50132 4.66311 4.97585 3.81948 5.81948C2.97585 6.66311 2.50132 7.80693 2.5 9V19C2.50132 20.1931 2.97585 21.3369 3.81948 22.1805C4.66311 23.0241 5.80693 23.4987 7 23.5H12L10.8 25.1C10.6321 25.3227 10.5296 25.5878 10.5042 25.8655C10.4788 26.1432 10.5314 26.4225 10.6561 26.6719C10.7809 26.9214 10.9727 27.131 11.2102 27.2773C11.4476 27.4236 11.7211 27.5007 12 27.5H20C20.2786 27.5002 20.5518 27.4227 20.7889 27.2763C21.0259 27.1298 21.2174 26.9202 21.342 26.6709C21.4665 26.4217 21.5191 26.1426 21.4938 25.8651C21.4686 25.5876 21.3665 25.3227 21.199 25.1L19.999 23.5H24.999C26.1922 23.4989 27.3361 23.0245 28.1798 22.1808C29.0235 21.3371 29.4979 20.1931 29.499 19V18C29.499 17.8674 29.4463 17.7402 29.3526 17.6464C29.2588 17.5527 29.1316 17.5 28.999 17.5H29ZM20.398 25.7C20.454 25.774 20.4882 25.8623 20.4969 25.9547C20.5055 26.0471 20.4881 26.1401 20.4468 26.2233C20.4054 26.3064 20.3417 26.3763 20.2628 26.4252C20.1838 26.4741 20.0928 26.5 20 26.5H12C11.9072 26.4998 11.8163 26.4738 11.7375 26.4249C11.6587 26.376 11.595 26.3062 11.5536 26.2232C11.5122 26.1401 11.4947 26.0472 11.503 25.9548C11.5114 25.8625 11.5453 25.7742 11.601 25.7L13.25 23.5H18.75L20.398 25.7ZM23 9.25C23.1326 9.25 23.2598 9.19732 23.3536 9.10355C23.4473 9.00979 23.5 8.88261 23.5 8.75V7.442C23.5 7.30939 23.4473 7.18221 23.3536 7.08845C23.2598 6.99468 23.1326 6.942 23 6.942C22.8674 6.942 22.7402 6.99468 22.6464 7.08845C22.5527 7.18221 22.5 7.30939 22.5 7.442V8.75C22.5 8.88261 22.5527 9.00979 22.6464 9.10355C22.7402 9.19732 22.8674 9.25 23 9.25Z M23 11.75C23.1326 11.75 23.2598 11.6973 23.3536 11.6036C23.4473 11.5098 23.5 11.3826 23.5 11.25C23.5 11.1174 23.4473 10.9902 23.3536 10.8964C23.2598 10.8027 23.1326 10.75 23 10.75C22.8674 10.75 22.7402 10.8027 22.6464 10.8964C22.5527 10.9902 22.5 11.1174 22.5 11.25C22.5 11.3826 22.5527 11.5098 22.6464 11.6036C22.7402 11.6973 22.8674 11.75 23 11.75Z M18 14.5001H28C28.2628 14.4999 28.5209 14.4306 28.7485 14.2993C28.9761 14.1679 29.1652 13.979 29.2969 13.7516C29.4285 13.5241 29.4981 13.2661 29.4987 13.0033C29.4992 12.7405 29.4307 12.4821 29.3 12.2541L24.315 3.25215L24.309 3.24215C24.1765 3.01482 23.9865 2.82636 23.7581 2.69567C23.5298 2.56497 23.271 2.49666 23.0079 2.49757C22.7448 2.49848 22.4865 2.56859 22.2591 2.70086C22.0316 2.83313 21.8429 3.02291 21.712 3.25115L16.706 12.2431C16.5728 12.471 16.5021 12.7299 16.501 12.9938C16.4999 13.2577 16.5684 13.5173 16.6997 13.7462C16.8309 13.9752 17.0203 14.1654 17.2486 14.2978C17.4769 14.4302 17.7361 14.5 18 14.5001ZM17.574 12.7401L22.581 3.74615C22.6247 3.67064 22.6875 3.60789 22.763 3.56413C22.8385 3.52038 22.9241 3.49715 23.0114 3.49674C23.0986 3.49634 23.1845 3.51878 23.2604 3.56183C23.3363 3.60488 23.3996 3.66704 23.444 3.74215L28.431 12.7481C28.4753 12.8241 28.4988 12.9103 28.4992 12.9982C28.4995 13.0861 28.4767 13.1725 28.433 13.2488C28.3893 13.325 28.3262 13.3884 28.2502 13.4325C28.1742 13.4767 28.0879 13.5 28 13.5001H18C17.9119 13.5011 17.8252 13.4783 17.749 13.4341C17.6728 13.3899 17.61 13.326 17.567 13.2491C17.522 13.1714 17.4989 13.083 17.5001 12.9932C17.5013 12.9034 17.5269 12.8156 17.574 12.7391V12.7401Z"/></svg>