<svg xmlns="http://www.w3.org/2000/svg" width="32" height="32" viewBox="0 0 32 32"><path d="M25 4.25H7C5.74063 4.25132 4.53322 4.75219 3.6427 5.6427C2.75219 6.53322 2.25132 7.74063 2.25 9V10.015C2.25 10.2139 2.32902 10.4047 2.46967 10.5453C2.61032 10.686 2.80109 10.765 3 10.765C3.19891 10.765 3.38968 10.686 3.53033 10.5453C3.67098 10.4047 3.75 10.2139 3.75 10.015V9C3.75106 8.13837 4.09381 7.31234 4.70307 6.70307C5.31234 6.09381 6.13837 5.75106 7 5.75H25C25.8616 5.75106 26.6877 6.09381 27.2969 6.70307C27.9062 7.31234 28.2489 8.13837 28.25 9V19C28.2489 19.8616 27.9062 20.6877 27.2969 21.2969C26.6877 21.9062 25.8616 22.2489 25 22.25H7C6.13837 22.2489 5.31234 21.9062 4.70307 21.2969C4.09381 20.6877 3.75106 19.8616 3.75 19V18.112C3.75 17.9131 3.67098 17.7223 3.53033 17.5817C3.38968 17.441 3.19891 17.362 3 17.362C2.80109 17.362 2.61032 17.441 2.46967 17.5817C2.32902 17.7223 2.25 17.9131 2.25 18.112V19C2.25159 20.2593 2.75254 21.4666 3.643 22.357C4.53345 23.2475 5.74071 23.7484 7 23.75H11.5L10.601 24.95C10.4053 25.2097 10.2859 25.5189 10.2563 25.8428C10.2266 26.1666 10.288 26.4924 10.4333 26.7833C10.5787 27.0742 10.8023 27.3188 11.0791 27.4896C11.3559 27.6604 11.6748 27.7506 12 27.75H20C20.325 27.75 20.6436 27.6595 20.92 27.4886C21.1965 27.3178 21.4199 27.0733 21.5652 26.7826C21.7106 26.4919 21.7721 26.1665 21.7429 25.8428C21.7137 25.5192 21.595 25.21 21.4 24.95L20.5 23.75H25C26.2594 23.7487 27.4668 23.2478 28.3573 22.3573C29.2478 21.4668 29.7487 20.2594 29.75 19V9C29.7487 7.74063 29.2478 6.53322 28.3573 5.6427C27.4668 4.75219 26.2594 4.25132 25 4.25ZM20.198 25.85C20.2265 25.8868 20.2442 25.9309 20.2488 25.9772C20.2535 26.0236 20.245 26.0703 20.2243 26.112C20.2036 26.1538 20.1716 26.1888 20.132 26.2132C20.0923 26.2376 20.0466 26.2504 20 26.25H12C11.9534 26.2504 11.9077 26.2376 11.868 26.2132C11.8284 26.1888 11.7964 26.1538 11.7757 26.112C11.755 26.0703 11.7465 26.0236 11.7512 25.9772C11.7558 25.9309 11.7735 25.8868 11.802 25.85L13.375 23.75H18.625L20.198 25.85Z M2.25 14.0002C2.25 14.1991 2.32902 14.3898 2.46967 14.5305C2.61032 14.6711 2.80109 14.7502 3 14.7502H11.19L8.47 17.4702C8.39631 17.5388 8.33721 17.6216 8.29622 17.7136C8.25523 17.8056 8.23318 17.9049 8.23141 18.0056C8.22963 18.1063 8.24816 18.2064 8.28588 18.2998C8.3236 18.3931 8.37974 18.478 8.45096 18.5492C8.52218 18.6204 8.60701 18.6766 8.7004 18.7143C8.79379 18.752 8.89382 18.7705 8.99452 18.7687C9.09522 18.767 9.19454 18.7449 9.28654 18.7039C9.37854 18.6629 9.46134 18.6038 9.53 18.5302L13.53 14.5302C13.6697 14.3891 13.7481 14.1987 13.7481 14.0002C13.7481 13.8016 13.6697 13.6112 13.53 13.4702L9.53 9.47015C9.46134 9.39647 9.37854 9.33736 9.28654 9.29637C9.19454 9.25538 9.09522 9.23334 8.99452 9.23156C8.89382 9.22979 8.79379 9.24831 8.7004 9.28603C8.60701 9.32375 8.52218 9.3799 8.45096 9.45112C8.37974 9.52233 8.3236 9.60717 8.28588 9.70056C8.24816 9.79394 8.22963 9.89397 8.23141 9.99468C8.23318 10.0954 8.25523 10.1947 8.29622 10.2867C8.33721 10.3787 8.39631 10.4615 8.47 10.5302L11.19 13.2502H3C2.80109 13.2502 2.61032 13.3292 2.46967 13.4698C2.32902 13.6105 2.25 13.8012 2.25 14.0002Z"/></svg>