<svg width="32" height="32" viewBox="0 0 32 32" fill="none" xmlns="http://www.w3.org/2000/svg">
<path d="M25.0004 4.4998H7.0004C5.80732 4.50111 4.66349 4.97563 3.81986 5.81926C2.97623 6.66289 2.5017 7.80673 2.5004 8.9998V18.0154C2.5004 18.032 2.5014 18.0477 2.50235 18.0643C2.50135 18.0799 2.5004 18.0955 2.5004 18.1121V18.9998C2.5017 20.1929 2.97622 21.3367 3.81985 22.1803C4.66349 23.024 5.80732 23.4985 7.0004 23.4998H12.0003L10.8002 25.1004C10.6331 25.3232 10.5313 25.5882 10.5064 25.8656C10.4814 26.143 10.5341 26.4219 10.6588 26.671C10.7834 26.9201 10.9749 27.1296 11.2118 27.276C11.4488 27.4224 11.7219 27.4999 12.0004 27.4998H20.0004C20.2789 27.4998 20.5518 27.4222 20.7887 27.2757C21.0255 27.1292 21.2169 26.9197 21.3413 26.6705C21.4657 26.4214 21.5182 26.1425 21.493 25.8652C21.4679 25.5879 21.3659 25.323 21.1986 25.1004L19.9998 23.4998H25.0004C26.1935 23.4985 27.3373 23.024 28.1809 22.1803C29.0246 21.3367 29.4991 20.1929 29.5004 18.9998V8.9998C29.4991 7.80673 29.0246 6.66289 28.1809 5.81926C27.3373 4.97563 26.1935 4.5011 25.0004 4.4998ZM20.3988 25.7C20.4548 25.7741 20.4889 25.8623 20.4975 25.9547C20.5061 26.0472 20.4887 26.1402 20.4473 26.2233C20.4059 26.3064 20.3421 26.3763 20.2632 26.4251C20.1842 26.474 20.0932 26.4998 20.0004 26.4998H12.0004C11.9075 26.4999 11.8165 26.4741 11.7375 26.4253C11.6585 26.3765 11.5947 26.3066 11.5532 26.2235C11.5117 26.1404 11.4942 26.0474 11.5026 25.955C11.5111 25.8625 11.5452 25.7742 11.601 25.7L13.2504 23.4998H18.7504L20.3988 25.7ZM28.5004 18.9998C28.4993 19.9277 28.1302 20.8173 27.474 21.4734C26.8179 22.1296 25.9283 22.4987 25.0004 22.4998H7.0004C6.07248 22.4987 5.1829 22.1296 4.52676 21.4734C3.87063 20.8173 3.50152 19.9277 3.5004 18.9998V8.9998C3.50152 8.07189 3.87063 7.1823 4.52677 6.52617C5.1829 5.87003 6.07248 5.50092 7.0004 5.4998H25.0004C25.9283 5.50092 26.8179 5.87003 27.474 6.52617C28.1302 7.1823 28.4993 8.07189 28.5004 8.9998V18.9998Z" fill="black"/>
</svg>
