<svg xmlns="http://www.w3.org/2000/svg" width="32" height="32" viewBox="0 0 32 32"><path d="M25 4H7C5.67441 4.00159 4.40356 4.52888 3.46622 5.46622C2.52888 6.40356 2.00159 7.67441 2 9V18.015L2.001 18.065V19C2.00259 20.3256 2.52988 21.5964 3.46722 22.5338C4.40456 23.4711 5.67541 23.9984 7.001 24H11.001L10.401 24.8C10.1782 25.0971 10.0425 25.4503 10.0091 25.8201C9.97571 26.19 10.0459 26.5618 10.2119 26.894C10.3779 27.2262 10.6331 27.5056 10.9489 27.7009C11.2647 27.8962 11.6287 27.9998 12 28H20C20.3713 27.9996 20.7351 27.8959 21.0507 27.7005C21.3664 27.5051 21.6214 27.2257 21.7873 26.8935C21.9532 26.5614 22.0233 26.1896 21.9899 25.8199C21.9564 25.4501 21.8208 25.097 21.598 24.8L20.998 24H25C26.3256 23.9984 27.5964 23.4711 28.5338 22.5338C29.4711 21.5964 29.9984 20.3256 30 19V9C29.9984 7.67441 29.4711 6.40356 28.5338 5.46622C27.5964 4.52888 26.3256 4.00159 25 4ZM20 26H12L13.5 24H18.5L20 26ZM28 19C27.9989 19.7953 27.6825 20.5578 27.1202 21.1202C26.5578 21.6825 25.7953 21.9989 25 22H7C6.20459 21.9992 5.44199 21.6829 4.87956 21.1204C4.31712 20.558 4.00079 19.7954 4 19V18.112V18.064V9C4.00079 8.20459 4.31712 7.44199 4.87956 6.87956C5.44199 6.31712 6.20459 6.00079 7 6H25C25.7954 6.00079 26.558 6.31712 27.1204 6.87956C27.6829 7.44199 27.9992 8.20459 28 9V19Z"/></svg>