<svg width="32" height="32" viewBox="0 0 32 32" fill="none" xmlns="http://www.w3.org/2000/svg">
<path d="M9.5 15.5C9.22386 15.5 9 15.7239 9 16C9 16.2761 9.22386 16.5 9.5 16.5H22.5C22.7761 16.5 23 16.2761 23 16C23 15.7239 22.7761 15.5 22.5 15.5H9.5Z" fill="black"/>
<path fill-rule="evenodd" clip-rule="evenodd" d="M8.50027 4.77485C10.7203 3.29145 13.3304 2.49969 16.0005 2.49969C19.5797 2.5036 23.0112 3.92717 25.5421 6.45807C28.073 8.98896 29.4966 12.4205 29.5005 15.9997C29.5005 18.6697 28.7087 21.2798 27.2253 23.4999C25.7419 25.72 23.6335 27.4503 21.1667 28.4721C18.6999 29.4938 15.9855 29.7612 13.3667 29.2403C10.748 28.7194 8.34253 27.4336 6.45452 25.5456C4.56651 23.6576 3.28076 21.2522 2.75986 18.6334C2.23896 16.0147 2.50631 13.3003 3.52809 10.8335C4.54987 8.36666 6.2802 6.25825 8.50027 4.77485ZM9.05584 26.3931C11.1115 27.7666 13.5282 28.4997 16.0005 28.4997C19.3145 28.496 22.4918 27.1778 24.8352 24.8344C27.1786 22.491 28.4967 19.3138 28.5005 15.9997C28.5005 13.5274 27.7674 11.1107 26.3938 9.05506C25.0203 6.99945 23.0681 5.39729 20.784 4.4512C18.4999 3.5051 15.9866 3.25756 13.5618 3.73987C11.1371 4.22219 8.90979 5.4127 7.16163 7.16086C5.41347 8.90901 4.22296 11.1363 3.74065 13.5611C3.25833 15.9858 3.50587 18.4992 4.45197 20.7832C5.39807 23.0673 7.00022 25.0195 9.05584 26.3931Z" fill="black"/>
</svg>
