<svg xmlns="http://www.w3.org/2000/svg" width="32" height="32" viewBox="0 0 32 32"><path d="M9.75 15.25C9.55109 15.25 9.36032 15.329 9.21967 15.4697C9.07902 15.6103 9 15.8011 9 16C9 16.1989 9.07902 16.3897 9.21967 16.5303C9.36032 16.671 9.55109 16.75 9.75 16.75H22.25C22.4489 16.75 22.6397 16.671 22.7803 16.5303C22.921 16.3897 23 16.1989 23 16C23 15.8011 22.921 15.6103 22.7803 15.4697C22.6397 15.329 22.4489 15.25 22.25 15.25H9.75Z M8.361 4.567C10.6225 3.05606 13.2812 2.24973 16.001 2.25C19.6463 2.25424 23.1411 3.70428 25.7187 6.28202C28.2962 8.85976 29.746 12.3547 29.75 16C29.7498 18.3754 29.1343 20.7103 27.9634 22.777C26.7924 24.8438 25.1061 26.5719 23.0686 27.7931C21.0311 29.0142 18.712 29.6867 16.3373 29.745C13.9626 29.8032 11.6133 29.2453 9.51838 28.1256C7.42345 27.0058 5.65434 25.3624 4.38345 23.3556C3.11256 21.3488 2.38325 19.0469 2.26659 16.6744C2.14994 14.3018 2.64991 11.9395 3.71779 9.8177C4.78567 7.69586 6.38503 5.88686 8.36 4.567H8.361ZM9.195 26.185C11.2092 27.5311 13.5774 28.2497 16 28.25C19.2478 28.2466 22.3617 26.9548 24.6583 24.6583C26.9548 22.3617 28.2466 19.2478 28.25 16C28.2502 13.8836 27.702 11.8032 26.6589 9.96166C25.6159 8.12012 24.1135 6.58024 22.2982 5.4921C20.4829 4.40396 18.4167 3.80469 16.3009 3.7527C14.1851 3.70071 12.092 4.19778 10.2254 5.19544C8.35891 6.19311 6.78271 7.65735 5.65045 9.44544C4.51819 11.2335 3.86851 13.2845 3.76474 15.3983C3.66096 17.5122 4.10663 19.6169 5.0583 21.5073C6.00997 23.3977 7.43517 25.0093 9.195 26.185Z"/></svg>