<svg width="32" height="32" viewBox="0 0 32 32" fill="none" xmlns="http://www.w3.org/2000/svg">
<path d="M29.24 21.845C29.0726 21.5864 28.8273 21.3879 28.5397 21.2782C28.252 21.1685 27.9369 21.1531 27.64 21.2346C25.6841 21.7595 23.6395 21.8652 21.64 21.5448C18.8527 21.0589 16.2829 19.725 14.2805 17.7249C12.2781 15.7248 10.9406 13.1557 10.45 10.3675C10.1297 8.36666 10.2354 6.32072 10.76 4.36358C10.8398 4.06644 10.8237 3.75167 10.7142 3.46418C10.6047 3.17669 10.4072 2.93114 10.15 2.76254C9.88736 2.58177 9.57371 2.49005 9.25512 2.50086C8.93653 2.51166 8.62981 2.62443 8.38 2.82258C6.23494 4.46753 4.57383 6.66182 3.57226 9.17354C2.57069 11.6853 2.26587 14.4211 2.69 17.0919C3.19415 20.1497 4.64301 22.9726 6.83303 25.1641C9.02304 27.3556 11.8442 28.8053 14.9 29.3099C15.6801 29.4377 16.4695 29.5013 17.26 29.5C19.5668 29.5032 21.8432 28.9739 23.9123 27.9535C25.9815 26.933 27.7875 25.4487 29.19 23.6162C29.3822 23.3631 29.4904 23.0563 29.4994 22.7386C29.5083 22.4209 29.4176 22.1084 29.24 21.845Z" fill="black"/>
</svg>
