<svg width="32" height="32" viewBox="0 0 32 32" fill="none" xmlns="http://www.w3.org/2000/svg">
<path d="M17.2565 29.9958C16.4405 29.9958 15.6257 29.9321 14.8195 29.8054C11.6598 29.2843 8.74273 27.7862 6.47832 25.5217C4.21392 23.2572 2.71597 20.3401 2.19501 17.1804C1.75538 14.4179 2.07015 11.5879 3.10607 8.98956C4.142 6.39119 5.86059 4.12092 8.08025 2.41864C8.41259 2.15965 8.81847 2.01267 9.23958 1.99881C9.66069 1.98494 10.0754 2.10492 10.424 2.34149C10.7704 2.56664 11.0364 2.89579 11.184 3.28164C11.3316 3.66749 11.353 4.09019 11.2453 4.489C10.7382 6.38188 10.6349 8.36024 10.9421 10.2956C11.4165 12.9766 12.7036 15.4468 14.6289 17.3718C16.5542 19.2968 19.0247 20.5834 21.7057 21.0573C23.6404 21.3654 25.6183 21.2623 27.5104 20.7546C27.9094 20.6465 28.3323 20.6677 28.7184 20.8153C29.1045 20.9629 29.4338 21.2292 29.6589 21.5759C29.8954 21.9245 30.0154 22.3392 30.0015 22.7603C29.9877 23.1814 29.8407 23.5873 29.5817 23.9196C28.1322 25.8113 26.2663 27.3435 24.1288 28.3973C21.9913 29.4511 19.6397 29.998 17.2565 29.9958ZM9.31072 3.98212C7.3736 5.46903 5.87363 7.45111 4.96896 9.71935C4.0643 11.9876 3.78848 14.4579 4.17059 16.8698C4.62267 19.6129 5.92309 22.1453 7.889 24.1111C9.85491 26.0768 12.3875 27.377 15.1306 27.8288C17.5375 28.2129 20.0035 27.9395 22.2678 27.0373C24.5321 26.1352 26.5105 24.6379 27.9939 22.7038L28.0173 22.6901C25.8474 23.2719 23.5788 23.387 21.3611 23.028C18.2752 22.4822 15.4318 21.001 13.2158 18.7853C10.9998 16.5695 9.51844 13.7261 8.97234 10.6403C8.61267 8.42198 8.72801 6.15257 9.31072 3.98212Z" fill="black"/>
</svg>
