<svg xmlns="http://www.w3.org/2000/svg" width="32" height="32" viewBox="0 0 32 32"><path d="M24 28.5H8C7.86739 28.5 7.74021 28.5527 7.64645 28.6464C7.55268 28.7402 7.5 28.8674 7.5 29C7.5 29.1326 7.55268 29.2598 7.64645 29.3536C7.74021 29.4473 7.86739 29.5 8 29.5H24C24.1326 29.5 24.2598 29.4473 24.3536 29.3536C24.4473 29.2598 24.5 29.1326 24.5 29C24.5 28.8674 24.4473 28.7402 24.3536 28.6464C24.2598 28.5527 24.1326 28.5 24 28.5ZM20 2.5H12C10.8069 2.50132 9.66311 2.97585 8.81948 3.81948C7.97585 4.66311 7.50132 5.80693 7.5 7V15C7.50132 16.1931 7.97585 17.3369 8.81948 18.1805C9.66311 19.0241 10.8069 19.4987 12 19.5H12.674L10.64 22.619C10.5407 22.817 10.4937 23.0372 10.5035 23.2585C10.5133 23.4799 10.5796 23.695 10.6961 23.8834C10.8126 24.0719 10.9753 24.2274 11.1689 24.3352C11.3625 24.4429 11.5805 24.4993 11.802 24.499H20.2C20.5399 24.5009 20.8668 24.3685 21.1097 24.1307C21.3525 23.8929 21.4917 23.5689 21.497 23.229C21.502 22.9981 21.4458 22.7701 21.334 22.568L19.321 19.499H20C21.1931 19.4977 22.3369 19.0231 23.1805 18.1795C24.0241 17.3359 24.4987 16.1921 24.5 14.999V7C24.4987 5.80693 24.0241 4.66311 23.1805 3.81948C22.3369 2.97585 21.1931 2.50132 20 2.5ZM20.469 23.066C20.4916 23.1118 20.5021 23.1626 20.4996 23.2136C20.4971 23.2646 20.4817 23.3142 20.4548 23.3576C20.4279 23.401 20.3904 23.4368 20.3458 23.4617C20.3013 23.4867 20.2511 23.4998 20.2 23.5H11.802C11.7508 23.5004 11.7005 23.4875 11.6558 23.4626C11.6111 23.4377 11.5736 23.4017 11.547 23.358C11.5229 23.3231 11.5067 23.2834 11.4996 23.2416C11.4926 23.1997 11.4947 23.1569 11.506 23.116L13.869 19.5H18.125L20.469 23.066ZM23.499 15C23.4977 15.9279 23.1285 16.8173 22.4724 17.4734C21.8163 18.1295 20.9269 18.4987 19.999 18.5H11.999C11.0712 18.4987 10.1819 18.1295 9.52594 17.4734C8.87001 16.8172 8.50106 15.9278 8.5 15V7C8.50106 6.07207 8.87015 5.18244 9.5263 4.5263C10.1824 3.87015 11.0721 3.50106 12 3.5H20C20.9279 3.50106 21.8176 3.87015 22.4737 4.5263C23.1299 5.18244 23.4989 6.07207 23.5 7V15H23.499Z"/></svg>