<svg xmlns="http://www.w3.org/2000/svg" width="32" height="32" viewBox="0 0 32 32"><path d="M16.53 15.47C16.3894 15.3295 16.1988 15.2505 16 15.2505C15.8012 15.2505 15.6106 15.3295 15.47 15.47C15.3294 15.6106 15.2505 15.8012 15.2505 16C15.2505 16.1988 15.3294 16.3895 15.47 16.53L18.19 19.25H12C11.8011 19.25 11.6103 19.329 11.4697 19.4697C11.329 19.6103 11.25 19.8011 11.25 20C11.25 20.1989 11.329 20.3897 11.4697 20.5304C11.6103 20.671 11.8011 20.75 12 20.75H18.19L15.47 23.47C15.3963 23.5387 15.3372 23.6215 15.2962 23.7135C15.2552 23.8055 15.2332 23.9048 15.2314 24.0055C15.2296 24.1062 15.2482 24.2062 15.2859 24.2996C15.3236 24.393 15.3797 24.4778 15.451 24.5491C15.5222 24.6203 15.607 24.6764 15.7004 24.7141C15.7938 24.7519 15.8938 24.7704 15.9945 24.7686C16.0952 24.7668 16.1945 24.7448 16.2865 24.7038C16.3785 24.6628 16.4613 24.6037 16.53 24.53L20.53 20.53C20.6705 20.3894 20.7493 20.1988 20.7493 20C20.7493 19.8013 20.6705 19.6106 20.53 19.47L16.53 15.47Z M27.383 11.724L20.56 2.927C20.3956 2.71706 20.1857 2.54708 19.9462 2.42983C19.7066 2.31258 19.4437 2.2511 19.177 2.25H9C7.74063 2.25132 6.53322 2.75219 5.6427 3.6427C4.75219 4.53322 4.25132 5.74063 4.25 7V25C4.25132 26.2594 4.75219 27.4668 5.6427 28.3573C6.53322 29.2478 7.74063 29.7487 9 29.75H23C24.2594 29.7487 25.4668 29.2478 26.3573 28.3573C27.2478 27.4668 27.7487 26.2594 27.75 25V12.797C27.75 12.409 27.62 12.032 27.383 11.724ZM25.891 12.249H20C19.9337 12.249 19.8701 12.2227 19.8232 12.1758C19.7763 12.1289 19.75 12.0653 19.75 11.999V4.332L25.891 12.249ZM23 28.25H9C8.13837 28.2489 7.31234 27.9062 6.70307 27.2969C6.09381 26.6877 5.75106 25.8616 5.75 25V7C5.75106 6.13837 6.09381 5.31234 6.70307 4.70307C7.31234 4.09381 8.13837 3.75106 9 3.75H18.25V12C18.2505 12.464 18.4351 12.9088 18.7631 13.2369C19.0912 13.5649 19.536 13.7495 20 13.75H26.25V25C26.2489 25.8616 25.9062 26.6877 25.2969 27.2969C24.6877 27.9062 23.8616 28.2489 23 28.25Z"/></svg>