<svg xmlns="http://www.w3.org/2000/svg" width="32" height="32" viewBox="0 0 32 32"><path d="M27.58 11.57L20.757 2.77401C20.5707 2.5324 20.3313 2.33692 20.0573 2.20271C19.7833 2.06849 19.4821 1.99913 19.177 2.00001H9C7.6744 2.0016 6.40356 2.52889 5.46622 3.46623C4.52888 4.40357 4.00159 5.67441 4 7.00001V25C4.00159 26.3256 4.52888 27.5965 5.46622 28.5338C6.40356 29.4711 7.6744 29.9984 9 30H23C24.3257 29.9987 25.5967 29.4715 26.5341 28.5341C27.4715 27.5967 27.9987 26.3257 28 25V12.797C28 12.353 27.852 11.922 27.58 11.571V11.57ZM25.38 12H20V5.06101L25.38 11.998V12ZM23 28H9C8.20459 27.9992 7.44199 27.6829 6.87956 27.1205C6.31712 26.558 6.00079 25.7954 6 25V7.00001C6.00079 6.2046 6.31712 5.442 6.87956 4.87956C7.44199 4.31713 8.20459 4.0008 9 4.00001H18V12C18.0008 12.5302 18.2118 13.0384 18.5867 13.4133C18.9616 13.7882 19.4698 13.9992 20 14H26V25C25.9992 25.7954 25.6829 26.558 25.1204 27.1205C24.558 27.6829 23.7954 27.9992 23 28Z"/></svg>