<svg xmlns="http://www.w3.org/2000/svg" width="32" height="32" viewBox="0 0 32 32"><path d="M20 19.2539H16.75V16.0039C16.75 15.805 16.671 15.6142 16.5303 15.4736C16.3897 15.3329 16.1989 15.2539 16 15.2539C15.8011 15.2539 15.6103 15.3329 15.4697 15.4736C15.329 15.6142 15.25 15.805 15.25 16.0039V19.2539H12C11.8011 19.2539 11.6103 19.3329 11.4697 19.4736C11.329 19.6142 11.25 19.805 11.25 20.0039C11.25 20.2028 11.329 20.3936 11.4697 20.5342C11.6103 20.6749 11.8011 20.7539 12 20.7539H15.25V24.0039C15.25 24.2028 15.329 24.3936 15.4697 24.5342C15.6103 24.6749 15.8011 24.7539 16 24.7539C16.1989 24.7539 16.3897 24.6749 16.5303 24.5342C16.671 24.3936 16.75 24.2028 16.75 24.0039V20.7539H20C20.1989 20.7539 20.3897 20.6749 20.5303 20.5342C20.671 20.3936 20.75 20.2028 20.75 20.0039C20.75 19.805 20.671 19.6142 20.5303 19.4736C20.3897 19.3329 20.1989 19.2539 20 19.2539Z M27.383 11.724L20.56 2.927C20.3956 2.71706 20.1857 2.54708 19.9462 2.42983C19.7066 2.31258 19.4437 2.2511 19.177 2.25H9C7.74063 2.25132 6.53322 2.75219 5.6427 3.6427C4.75219 4.53322 4.25132 5.74063 4.25 7V25C4.25132 26.2594 4.75219 27.4668 5.6427 28.3573C6.53322 29.2478 7.74063 29.7487 9 29.75H23C24.2594 29.7487 25.4668 29.2478 26.3573 28.3573C27.2478 27.4668 27.7487 26.2594 27.75 25V12.797C27.75 12.409 27.62 12.032 27.383 11.724ZM25.891 12.249H20C19.9337 12.249 19.8701 12.2227 19.8232 12.1758C19.7763 12.1289 19.75 12.0653 19.75 11.999V4.332L25.891 12.249ZM23 28.25H9C8.13837 28.2489 7.31234 27.9062 6.70307 27.2969C6.09381 26.6877 5.75106 25.8616 5.75 25V7C5.75106 6.13837 6.09381 5.31234 6.70307 4.70307C7.31234 4.09381 8.13837 3.75106 9 3.75H18.25V12C18.2505 12.464 18.4351 12.9088 18.7631 13.2369C19.0912 13.5649 19.536 13.7495 20 13.75H26.25V25C26.2489 25.8616 25.9062 26.6877 25.2969 27.2969C24.6877 27.9062 23.8616 28.2489 23 28.25Z"/></svg>