<svg width="32" height="32" viewBox="0 0 32 32" fill="none" xmlns="http://www.w3.org/2000/svg">
<path d="M21.1141 12.0001H26.9401C27.0457 11.9984 27.1489 11.9673 27.2379 11.9103C27.3269 11.8533 27.3984 11.7727 27.4442 11.6775C27.4901 11.5822 27.5086 11.4761 27.4976 11.371C27.4866 11.2658 27.4466 11.1658 27.3821 11.0821C25.9451 9.19212 22.6511 4.86512 20.9921 2.71712C20.9204 2.62444 20.8212 2.55686 20.7088 2.52409C20.5963 2.49131 20.4764 2.49502 20.3662 2.53468C20.2559 2.57435 20.1611 2.64792 20.0954 2.74484C20.0296 2.84177 19.9962 2.95704 20.0001 3.07412V10.8591C20.0001 11.6691 20.1941 11.9991 21.1141 11.9991V12.0001Z" fill="#0F0F0F"/>
<path fill-rule="evenodd" clip-rule="evenodd" d="M18.586 13.414C18.961 13.7891 19.4696 13.9999 20 14H27C27.1326 14 27.2598 14.0527 27.3536 14.1464C27.4473 14.2402 27.5 14.3674 27.5 14.5V25C27.5 26.1935 27.0259 27.3381 26.182 28.182C25.3381 29.0259 24.1935 29.5 23 29.5H9C7.80653 29.5 6.66193 29.0259 5.81802 28.182C4.97411 27.3381 4.5 26.1935 4.5 25V7C4.5 5.80653 4.97411 4.66193 5.81802 3.81802C6.66193 2.97411 7.80653 2.5 9 2.5H17.5C17.6326 2.5 17.7598 2.55268 17.8536 2.64645C17.9473 2.74021 18 2.86739 18 3V12C18.0001 12.5304 18.2109 13.039 18.586 13.414ZM16.383 15.074C16.5044 15.1249 16.6145 15.1994 16.707 15.293L20.707 19.293C20.8001 19.3857 20.8739 19.4959 20.9243 19.6172C20.9747 19.7386 21.0006 19.8686 21.0006 20C21.0006 20.1314 20.9747 20.2614 20.9243 20.3828C20.8739 20.5041 20.8001 20.6143 20.707 20.707L16.707 24.707C16.6148 24.8025 16.5044 24.8787 16.3824 24.9311C16.2604 24.9835 16.1292 25.0111 15.9964 25.0123C15.8636 25.0134 15.7319 24.9881 15.609 24.9378C15.4861 24.8875 15.3745 24.8133 15.2806 24.7194C15.1867 24.6255 15.1125 24.5138 15.0622 24.391C15.0119 24.2681 14.9866 24.1364 14.9877 24.0036C14.9889 23.8708 15.0165 23.7396 15.0689 23.6176C15.1213 23.4956 15.1975 23.3852 15.293 23.293L17.586 21H12C11.7348 21 11.4804 20.8946 11.2929 20.7071C11.1054 20.5196 11 20.2652 11 20C11 19.7348 11.1054 19.4804 11.2929 19.2929C11.4804 19.1054 11.7348 19 12 19H17.586L15.293 16.707C15.1273 16.5438 15.0237 16.328 14.9999 16.0967C14.9762 15.8654 15.0338 15.633 15.1628 15.4396C15.2919 15.2462 15.4843 15.1037 15.707 15.0368C15.9297 14.9699 16.1687 14.9827 16.383 15.073V15.074Z" fill="#0F0F0F"/>
</svg>
