<svg xmlns="http://www.w3.org/2000/svg" width="32" height="32" viewBox="0 0 32 32"><path d="M24 28.25H8C7.80109 28.25 7.61032 28.329 7.46967 28.4697C7.32902 28.6103 7.25 28.8011 7.25 29C7.25 29.1989 7.32902 29.3897 7.46967 29.5303C7.61032 29.671 7.80109 29.75 8 29.75H24C24.1989 29.75 24.3897 29.671 24.5303 29.5303C24.671 29.3897 24.75 29.1989 24.75 29C24.75 28.8011 24.671 28.6103 24.5303 28.4697C24.3897 28.329 24.1989 28.25 24 28.25ZM20 2.25H12C10.7406 2.25132 9.53322 2.75219 8.6427 3.6427C7.75219 4.53322 7.25132 5.74063 7.25 7V15C7.25132 16.2594 7.75219 17.4668 8.6427 18.3573C9.53322 19.2478 10.7406 19.7487 12 19.75H12.213L10.416 22.506C10.2977 22.7423 10.2417 23.005 10.2535 23.269C10.2653 23.533 10.3443 23.7897 10.4832 24.0145C10.6221 24.2394 10.8162 24.425 11.047 24.5537C11.2778 24.6824 11.5377 24.75 11.802 24.75H20.2C20.6065 24.7516 20.9972 24.5924 21.2868 24.3071C21.5765 24.0218 21.7415 23.6335 21.746 23.227C21.7503 22.9483 21.6802 22.6736 21.543 22.431L19.783 19.75H20C21.2594 19.7487 22.4668 19.2478 23.3573 18.3573C24.2478 17.4668 24.7487 16.2594 24.75 15V7C24.7487 5.74063 24.2478 4.53322 23.3573 3.6427C22.4668 2.75219 21.2594 2.25132 20 2.25ZM20.2 23.25L11.715 23.253L14.004 19.75H17.983L20.2 23.25ZM23.25 15C23.2492 15.8617 22.9065 16.6879 22.2972 17.2972C21.6879 17.9065 20.8617 18.2492 20 18.25H12C11.1384 18.2489 10.3123 17.9062 9.70307 17.2969C9.09381 16.6877 8.75106 15.8616 8.75 15V7C8.75106 6.13837 9.09381 5.31234 9.70307 4.70307C10.3123 4.09381 11.1384 3.75106 12 3.75H20C20.8616 3.75106 21.6877 4.09381 22.2969 4.70307C22.9062 5.31234 23.2489 6.13837 23.25 7V15Z"/></svg>