<svg width="32" height="32" viewBox="0 0 32 32" fill="none" xmlns="http://www.w3.org/2000/svg">
<path d="M27.1853 11.8774L20.3611 3.08057C20.2215 2.89921 20.0421 2.75244 19.8366 2.65167C19.6312 2.5509 19.4053 2.49883 19.1765 2.49951H8.99972C7.80665 2.50081 6.66281 2.97534 5.81918 3.81897C4.97555 4.6626 4.50102 5.80644 4.49972 6.99951V24.9995C4.50102 26.1926 4.97554 27.3364 5.81918 28.1801C6.66281 29.0237 7.80665 29.4982 8.99972 29.4995H22.9997C24.1928 29.4982 25.3366 29.0237 26.1803 28.1801C27.0239 27.3364 27.4984 26.1926 27.4997 24.9995V12.7974C27.4997 12.4644 27.3891 12.1408 27.1853 11.8774ZM26.3962 12.4917L26.3988 12.4995H19.9997C19.8672 12.4992 19.7402 12.4465 19.6465 12.3528C19.5527 12.2591 19.5 12.132 19.4997 11.9995V3.63532C19.5253 3.65254 19.5492 3.67213 19.571 3.69385L26.3962 12.4917ZM22.9997 28.4995H8.99972C8.07181 28.4984 7.18222 28.1293 6.52609 27.4731C5.86995 26.817 5.50084 25.9274 5.49972 24.9995V6.99951C5.50084 6.0716 5.86995 5.18201 6.52609 4.52588C7.18222 3.86974 8.07181 3.50063 8.99972 3.49951H18.4997V11.9995C18.5002 12.3972 18.6583 12.7785 18.9395 13.0597C19.2208 13.3409 19.602 13.4991 19.9997 13.4995H26.4997V24.9995C26.4986 25.9274 26.1295 26.817 25.4734 27.4731C24.8172 28.1293 23.9276 28.4984 22.9997 28.4995Z" fill="black"/>
</svg>
