<svg xmlns="http://www.w3.org/2000/svg" width="32" height="32" viewBox="0 0 32 32"><path d="M21.1143 11.9997H26.9403C27.0459 11.9979 27.149 11.9667 27.2379 11.9097C27.3268 11.8526 27.3982 11.7721 27.444 11.6769C27.4898 11.5817 27.5082 11.4756 27.4973 11.3706C27.4863 11.2655 27.4464 11.1655 27.382 11.0818C25.9449 9.19219 22.651 4.86467 20.9917 2.71666C20.9199 2.62443 20.8207 2.55727 20.7084 2.52477C20.5961 2.49227 20.4764 2.49609 20.3664 2.53568C20.2565 2.57528 20.1618 2.64863 20.096 2.74524C20.0302 2.84186 19.9966 2.95681 20 3.07366V10.8592C20 11.6682 20.1935 11.9997 21.1143 11.9997Z M18.5858 13.414C18.9609 13.789 19.4696 13.9997 20 13.9997H27C27.1326 13.9997 27.2598 14.0524 27.3536 14.1462C27.4473 14.24 27.5 14.3671 27.5 14.4997V24.9997C27.5 26.1932 27.0259 27.3378 26.182 28.1817C25.3381 29.0256 24.1935 29.4997 23 29.4997H9C7.80653 29.4997 6.66193 29.0256 5.81802 28.1817C4.97411 27.3378 4.5 26.1932 4.5 24.9997V6.99974C4.5 5.80627 4.97411 4.66167 5.81802 3.81776C6.66193 2.97385 7.80653 2.49974 9 2.49974H17.5C17.6326 2.49974 17.7598 2.55242 17.8536 2.64619C17.9473 2.73996 18 2.86713 18 2.99974V11.9997C18 12.5302 18.2107 13.0389 18.5858 13.414ZM16.3825 15.0731C16.261 15.0221 16.1305 14.9956 15.9987 14.9952C15.8668 14.9948 15.7362 15.0205 15.6143 15.0707C15.4925 15.121 15.3817 15.1948 15.2885 15.2881C15.1953 15.3813 15.1214 15.492 15.0712 15.6139C15.0209 15.7358 14.9952 15.8664 14.9957 15.9983C14.9961 16.1301 15.0226 16.2605 15.0736 16.3821C15.1246 16.5037 15.1992 16.6139 15.293 16.7066L17.586 18.9996H12C11.7348 18.9996 11.4804 19.1049 11.2929 19.2925C11.1054 19.48 11 19.7343 11 19.9996C11 20.2648 11.1054 20.5191 11.2929 20.7067C11.4804 20.8942 11.7348 20.9996 12 20.9996H17.5859L15.2929 23.2926C15.1992 23.3852 15.1247 23.4955 15.0738 23.617C15.0228 23.7386 14.9964 23.869 14.996 24.0008C14.9957 24.1326 15.0214 24.2631 15.0716 24.3849C15.1219 24.5068 15.1957 24.6175 15.2889 24.7106C15.3821 24.8038 15.4928 24.8777 15.6146 24.9279C15.7365 24.9782 15.867 25.0039 15.9988 25.0035C16.1306 25.0031 16.261 24.9767 16.3825 24.9257C16.5041 24.8748 16.6143 24.8003 16.707 24.7066L20.707 20.7066C20.7999 20.6137 20.8736 20.5035 20.9238 20.3822C20.9741 20.2609 21 20.1308 21 19.9995C21 19.8682 20.9741 19.7382 20.9238 19.6169C20.8736 19.4956 20.7999 19.3853 20.707 19.2925L16.707 15.2925C16.6144 15.1987 16.5041 15.1241 16.3825 15.0731Z"/></svg>