<svg width="32" height="32" viewBox="0 0 32 32" fill="none" xmlns="http://www.w3.org/2000/svg">
<path d="M27.5798 11.5708L20.7566 2.77393C20.5703 2.5322 20.3309 2.3366 20.0569 2.2023C19.7829 2.068 19.4816 1.99861 19.1765 1.99951H8.99972C7.67412 2.00107 6.40325 2.52836 5.46591 3.4657C4.52856 4.40304 4.00128 5.67391 3.99972 6.99951V24.9995C4.00128 26.3251 4.52856 27.596 5.46591 28.5333C6.40325 29.4707 7.67412 29.998 8.99972 29.9995H22.9997C24.3253 29.998 25.5962 29.4707 26.5335 28.5333C27.4709 27.596 27.9982 26.3251 27.9997 24.9995V12.7974C27.9993 12.3533 27.8517 11.9219 27.5798 11.5708ZM25.3809 11.9995H19.9997V5.06183L25.3809 11.9995ZM22.9997 27.9995H8.99972C8.20434 27.9986 7.44178 27.6823 6.87936 27.1199C6.31694 26.5575 6.00059 25.7949 5.99972 24.9995V6.99951C6.00059 6.20413 6.31694 5.44157 6.87936 4.87915C7.44178 4.31673 8.20434 4.00038 8.99972 3.99951L17.9997 4.00037V11.9995C18.0004 12.5297 18.2113 13.038 18.5863 13.413C18.9612 13.7879 19.4695 13.9988 19.9997 13.9995H25.9997V24.9995C25.9989 25.7949 25.6825 26.5575 25.1201 27.1199C24.5577 27.6823 23.7951 27.9986 22.9997 27.9995Z" fill="black"/>
</svg>
