<svg xmlns="http://www.w3.org/2000/svg" width="32" height="32" viewBox="0 0 32 32"><path d="M16.354 15.6462C16.2597 15.5551 16.1334 15.5047 16.0023 15.5059C15.8712 15.507 15.7458 15.5596 15.6531 15.6523C15.5604 15.745 15.5078 15.8704 15.5067 16.0015C15.5055 16.1326 15.5559 16.2589 15.647 16.3532L18.793 19.4992H12C11.8674 19.4992 11.7402 19.5519 11.6464 19.6457C11.5527 19.7394 11.5 19.8666 11.5 19.9992C11.5 20.1318 11.5527 20.259 11.6464 20.3528C11.7402 20.4465 11.8674 20.4992 12 20.4992H18.793L15.647 23.6462C15.5873 23.7039 15.543 23.7756 15.5181 23.8548C15.4931 23.934 15.4884 24.0182 15.5043 24.0997C15.5202 24.1812 15.5562 24.2574 15.6091 24.3214C15.662 24.3854 15.73 24.4352 15.807 24.4662C15.8989 24.5037 16 24.513 16.0972 24.4929C16.1945 24.4728 16.2835 24.4241 16.353 24.3532L20.353 20.3532C20.4467 20.2595 20.4994 20.1323 20.4994 19.9997C20.4994 19.8671 20.4467 19.74 20.353 19.6462L16.353 15.6462H16.354Z M27.186 11.877L20.36 3.08198C20.2196 2.90177 20.04 2.75583 19.8349 2.65518C19.6298 2.55453 19.4045 2.5018 19.176 2.50098H9C7.80711 2.5023 6.66343 2.97669 5.81983 3.8201C4.97624 4.66351 4.50159 5.80708 4.5 6.99998V25C4.50132 26.193 4.97585 27.3369 5.81948 28.1805C6.66311 29.0241 7.80693 29.4987 9 29.5H23C24.1931 29.4987 25.3369 29.0241 26.1805 28.1805C27.0241 27.3369 27.4987 26.193 27.5 25V12.797C27.5 12.464 27.389 12.141 27.186 11.877ZM26.396 12.491L26.398 12.499H20C19.8674 12.499 19.7402 12.4463 19.6464 12.3525C19.5527 12.2588 19.5 12.1316 19.5 11.999V3.63598C19.526 3.65298 19.55 3.67198 19.571 3.69398L26.395 12.491H26.396ZM23 28.5H9C8.07207 28.4989 7.18244 28.1298 6.5263 27.4737C5.87015 26.8175 5.50106 25.9279 5.5 25V6.99998C5.50106 6.07204 5.87015 5.18242 6.5263 4.52627C7.18244 3.87012 8.07207 3.50104 9 3.49998H18.5V12C18.5005 12.3976 18.6587 12.7789 18.9399 13.0601C19.2211 13.3412 19.6023 13.4994 20 13.5H26.5V25C26.4989 25.9279 26.1299 26.8175 25.4737 27.4737C24.8176 28.1298 23.9279 28.4989 23 28.5Z"/></svg>