<svg width="32" height="32" viewBox="0 0 32 32" fill="none" xmlns="http://www.w3.org/2000/svg">
<path d="M16.5306 15.4693C16.4609 15.3996 16.3783 15.3443 16.2873 15.3066C16.1963 15.2689 16.0988 15.2495 16.0003 15.2495C15.9018 15.2495 15.8043 15.2689 15.7133 15.3066C15.6223 15.3443 15.5396 15.3996 15.47 15.4693L11.47 19.4693C11.3298 19.61 11.2512 19.8006 11.2514 19.9992C11.2516 20.1979 11.3306 20.3883 11.471 20.5288C11.6115 20.6692 11.802 20.7482 12.0006 20.7484C12.1992 20.7486 12.3898 20.67 12.5306 20.5298L15.2503 17.8101V23.9995C15.2503 24.1984 15.3293 24.3892 15.4699 24.5299C15.6106 24.6705 15.8014 24.7495 16.0003 24.7495C16.1992 24.7495 16.39 24.6705 16.5306 24.5299C16.6713 24.3892 16.7503 24.1984 16.7503 23.9995V17.8101L19.47 20.5298C19.5396 20.5997 19.6223 20.6551 19.7133 20.693C19.8044 20.7308 19.902 20.7504 20.0006 20.7505C20.0992 20.7506 20.1968 20.7312 20.288 20.6935C20.3791 20.6559 20.4619 20.6006 20.5316 20.5308C20.6013 20.4611 20.6566 20.3783 20.6943 20.2872C20.732 20.1961 20.7513 20.0984 20.7512 19.9998C20.7511 19.9012 20.7316 19.8036 20.6937 19.7126C20.6559 19.6215 20.6004 19.5388 20.5306 19.4693L16.5306 15.4693Z" fill="black"/>
<path d="M27.3831 11.7241L20.5598 2.92727C20.3955 2.7172 20.1857 2.54709 19.9462 2.42971C19.7067 2.31232 19.4437 2.25072 19.177 2.24953H9.00027C7.74093 2.25096 6.53358 2.75186 5.6431 3.64235C4.75261 4.53284 4.2517 5.74019 4.25027 6.99953V24.9995C4.2517 26.2589 4.75261 27.4662 5.6431 28.3567C6.53358 29.2472 7.74093 29.7481 9.00027 29.7495H23.0003C24.2596 29.7481 25.467 29.2472 26.3575 28.3567C27.2479 27.4662 27.7488 26.2589 27.7503 24.9995V12.7974C27.7494 12.409 27.6203 12.0317 27.3831 11.7241ZM25.8915 12.2495H20.0003C19.934 12.2494 19.8705 12.223 19.8236 12.1762C19.7768 12.1293 19.7504 12.0658 19.7503 11.9995V4.33193L25.8915 12.2495ZM23.0003 28.2495H9.00027C8.13863 28.2485 7.31256 27.9058 6.70328 27.2965C6.094 26.6872 5.75127 25.8612 5.75027 24.9995V6.99953C5.75127 6.13788 6.094 5.31181 6.70328 4.70254C7.31256 4.09326 8.13863 3.75053 9.00027 3.74953H18.2503V11.9995C18.2508 12.4635 18.4354 12.9083 18.7635 13.2363C19.0915 13.5644 19.5363 13.749 20.0003 13.7495H26.2503V24.9995C26.2493 25.8612 25.9065 26.6872 25.2973 27.2965C24.688 27.9058 23.8619 28.2485 23.0003 28.2495Z" fill="black"/>
</svg>
