<svg xmlns="http://www.w3.org/2000/svg" width="32" height="32" viewBox="0 0 32 32"><path d="M24.0001 28.25H8.00009C7.80118 28.25 7.61041 28.329 7.46976 28.4697C7.32911 28.6103 7.25009 28.8011 7.25009 29C7.25009 29.1989 7.32911 29.3897 7.46976 29.5303C7.61041 29.671 7.80118 29.75 8.00009 29.75H24.0001C24.199 29.75 24.3898 29.671 24.5304 29.5303C24.6711 29.3897 24.7501 29.1989 24.7501 29C24.7501 28.8011 24.6711 28.6103 24.5304 28.4697C24.3898 28.329 24.199 28.25 24.0001 28.25ZM29.5301 28.47L20.7361 19.675C21.8521 19.501 22.8694 18.9346 23.6052 18.0777C24.3409 17.2208 24.7469 16.1295 24.7501 15V7C24.7488 5.74063 24.2479 4.53322 23.3574 3.6427C22.4669 2.75219 21.2595 2.25132 20.0001 2.25H12.0001C10.8706 2.25318 9.77934 2.65915 8.9224 3.39492C8.06546 4.13069 7.49909 5.14801 7.32509 6.264L3.53009 2.47C3.38792 2.33752 3.19987 2.2654 3.00557 2.26883C2.81127 2.27225 2.62588 2.35097 2.48847 2.48838C2.35106 2.62579 2.27234 2.81118 2.26892 3.00548C2.26549 3.19978 2.33761 3.38783 2.47009 3.53L28.4701 29.53C28.6123 29.6625 28.8003 29.7346 28.9946 29.7312C29.1889 29.7277 29.3743 29.649 29.5117 29.5116C29.6491 29.3742 29.7278 29.1888 29.7313 28.9945C29.7347 28.8002 29.6626 28.6122 29.5301 28.47ZM8.75009 7.688V6.998C8.75168 6.13672 9.09466 5.3112 9.70387 4.70236C10.3131 4.09353 11.1388 3.75106 12.0001 3.75H20.0001C20.8617 3.75106 21.6878 4.09381 22.297 4.70307C22.9063 5.31234 23.249 6.13837 23.2501 7V15C23.2493 15.8617 22.9066 16.6879 22.2973 17.2972C21.688 17.9065 20.8618 18.2492 20.0001 18.25H19.3101L8.75009 7.69V7.688ZM20.0681 23.25L11.7141 23.253L14.0041 19.75H16.5681L15.0681 18.25H12.0001C11.1385 18.2489 10.3124 17.9062 9.70316 17.2969C9.0939 16.6877 8.75115 15.8616 8.75009 15V11.93L7.25009 10.43V15C7.25141 16.2594 7.75228 17.4668 8.6428 18.3573C9.53331 19.2478 10.7407 19.7487 12.0001 19.75H12.2141L10.4151 22.507C10.2975 22.7433 10.2421 23.0058 10.2543 23.2695C10.2665 23.5332 10.3458 23.7895 10.4847 24.014C10.6235 24.2385 10.8174 24.4238 11.048 24.5525C11.2785 24.6811 11.5381 24.7487 11.8021 24.749H21.5701"/></svg>