<svg xmlns="http://www.w3.org/2000/svg" width="32" height="32" viewBox="0 0 32 32"><path d="M24 28H8C7.73478 28 7.48043 28.1054 7.29289 28.2929C7.10536 28.4804 7 28.7348 7 29C7 29.2652 7.10536 29.5196 7.29289 29.7071C7.48043 29.8946 7.73478 30 8 30H24C24.2652 30 24.5196 29.8946 24.7071 29.7071C24.8946 29.5196 25 29.2652 25 29C25 28.7348 24.8946 28.4804 24.7071 28.2929C24.5196 28.1054 24.2652 28 24 28ZM20 2H12C10.6744 2.00159 9.40356 2.52888 8.46622 3.46622C7.52888 4.40356 7.00159 5.6744 7 7V15C7.00353 16.2827 7.50041 17.5149 8.38768 18.4413C9.27496 19.3677 10.4846 19.9172 11.766 19.976L10.25 22.296C10.229 22.327 10.21 22.36 10.192 22.394C10.0545 22.6685 9.98957 22.9735 10.0032 23.2802C10.0169 23.5869 10.1088 23.8849 10.2701 24.1461C10.4315 24.4072 10.6569 24.6228 10.925 24.7722C11.1931 24.9217 11.495 25.0001 11.802 25H20.2C20.5164 24.9997 20.8271 24.916 21.1008 24.7573C21.3745 24.5986 21.6015 24.3705 21.7589 24.096C21.9163 23.8216 21.9986 23.5105 21.9974 23.1941C21.9961 22.8777 21.9115 22.5672 21.752 22.294L20.232 19.976C21.5138 19.9179 22.7241 19.3687 23.6119 18.4422C24.4996 17.5158 24.9967 16.2831 25 15V7C24.9987 5.67432 24.4715 4.40332 23.5341 3.46593C22.5967 2.52853 21.3257 2.00132 20 2ZM12.179 23L14.139 20H17.855L19.823 23H12.18H12.179ZM22.999 15C22.9982 15.7954 22.6819 16.558 22.1194 17.1204C21.557 17.6829 20.7944 17.9992 19.999 18H11.999C11.2036 17.9992 10.441 17.6829 9.87856 17.1204C9.31612 16.558 8.99979 15.7954 8.999 15V7C8.99979 6.20459 9.31612 5.44199 9.87856 4.87956C10.441 4.31712 11.2036 4.00079 11.999 4H19.999C20.7944 4.00079 21.557 4.31712 22.1194 4.87956C22.6819 5.44199 22.9982 6.20459 22.999 7V15Z"/></svg>