<svg xmlns="http://www.w3.org/2000/svg" width="32" height="32" viewBox="0 0 32 32"><path d="M16.707 15.2928C16.6142 15.2 16.5039 15.1264 16.3826 15.0761C16.2613 15.0259 16.1313 15 16 15C15.8687 15 15.7387 15.0259 15.6174 15.0761C15.4961 15.1264 15.3858 15.2 15.293 15.2928C15.2002 15.3857 15.1265 15.4959 15.0763 15.6172C15.026 15.7385 15.0002 15.8685 15.0002 15.9998C15.0002 16.1312 15.026 16.2612 15.0763 16.3825C15.1265 16.5038 15.2002 16.614 15.293 16.7069L17.586 18.9998H12C11.7348 18.9998 11.4804 19.1052 11.2929 19.2927C11.1054 19.4803 11 19.7346 11 19.9998C11 20.2651 11.1054 20.5194 11.2929 20.707C11.4804 20.8945 11.7348 20.9998 12 20.9998H17.586L15.293 23.2928C15.2002 23.3857 15.1265 23.4959 15.0763 23.6172C15.026 23.7385 15.0002 23.8685 15.0002 23.9998C15.0002 24.1312 15.026 24.2612 15.0763 24.3825C15.1265 24.5038 15.2002 24.614 15.293 24.7069C15.3858 24.7997 15.4961 24.8733 15.6174 24.9236C15.7387 24.9738 15.8687 24.9997 16 24.9997C16.1313 24.9997 16.2613 24.9738 16.3826 24.9236C16.5039 24.8733 16.6142 24.7997 16.707 24.7069L20.707 20.7069C20.8 20.614 20.8737 20.5037 20.9241 20.3823C20.9744 20.2609 21.0003 20.1308 21.0003 19.9993C21.0003 19.8679 20.9744 19.7378 20.9241 19.6164C20.8737 19.495 20.8 19.3847 20.707 19.2918L16.707 15.2918V15.2928Z M27.58 11.57L20.757 2.774C20.5694 2.53385 20.3297 2.33942 20.056 2.20534C19.7823 2.07127 19.4818 2.00106 19.177 2H9C7.6744 2.00159 6.40356 2.52888 5.46622 3.46622C4.52888 4.40356 4.00159 5.6744 4 7V25C4.00159 26.3256 4.52888 27.5964 5.46622 28.5338C6.40356 29.4711 7.6744 29.9984 9 30H23C24.3256 29.9984 25.5964 29.4711 26.5338 28.5338C27.4711 27.5964 27.9984 26.3256 28 25V12.797C28 12.353 27.852 11.922 27.58 11.571V11.57ZM25.381 12H20V5.061L25.381 11.998V12ZM23 28H9C8.20459 27.9992 7.44199 27.6829 6.87956 27.1204C6.31712 26.558 6.00079 25.7954 6 25V7C6.00079 6.20459 6.31712 5.44199 6.87956 4.87956C7.44199 4.31712 8.20459 4.00079 9 4H18V12C18.0008 12.5302 18.2118 13.0384 18.5867 13.4133C18.9616 13.7882 19.4698 13.9992 20 14H26V25C25.9992 25.7954 25.6829 26.558 25.1204 27.1204C24.558 27.6829 23.7954 27.9992 23 28Z"/></svg>