<svg xmlns="http://www.w3.org/2000/svg" width="32" height="32" viewBox="0 0 32 32"><path d="M21.5857 10.4685C21.8444 10.1451 21.792 9.67311 21.4685 9.41435C21.1451 9.15559 20.6731 9.20803 20.4143 9.53148L16.4143 14.5315C16.1556 14.8549 16.208 15.3269 16.5315 15.5857C16.8549 15.8444 17.3269 15.792 17.5857 15.4685L21.5857 10.4685ZM28.4972 9.43848C28.8073 9.71306 28.8361 10.1871 28.5615 10.4972L17.9365 22.4972C17.802 22.6491 17.6118 22.74 17.4091 22.7492C17.2065 22.7585 17.0087 22.6852 16.861 22.5462L13.3079 19.2021L10.5765 22.4798C10.4416 22.6417 10.2445 22.7397 10.034 22.7492C9.82349 22.7588 9.61867 22.6793 9.46967 22.5303L3.46967 16.5303C3.17678 16.2374 3.17678 15.7626 3.46967 15.4697C3.76256 15.1768 4.23744 15.1768 4.53033 15.4697L9.9496 20.8889L12.2136 18.1721L10.486 16.5462C10.1843 16.2623 10.17 15.7876 10.4538 15.486C10.7377 15.1843 11.2124 15.17 11.514 15.4539L17.326 20.924L27.4385 9.50282C27.7131 9.1927 28.1871 9.16389 28.4972 9.43848Z"/></svg>