<svg width="32" height="32" viewBox="0 0 32 32" fill="none" xmlns="http://www.w3.org/2000/svg">
<path fill-rule="evenodd" clip-rule="evenodd" d="M15 3.25C15 2.55988 15.5646 1.9892 16.2698 2.00255C23.7878 2.14485 29.8551 8.21224 29.9974 15.7302C30.0108 16.4354 29.4401 17 28.75 17H23.25C22.5487 17 22.0191 16.436 21.9962 15.7847C21.8857 12.6425 19.3575 10.1143 16.2153 10.0038C15.564 9.98088 15 9.45132 15 8.75V3.25ZM17 4.04105V8.06194C20.619 8.51337 23.4866 11.381 23.9381 15H27.959C27.4781 9.17036 22.8296 4.52186 17 4.04105Z" fill="black"/>
<path fill-rule="evenodd" clip-rule="evenodd" d="M12.9428 4.34957C13.1269 4.87029 12.854 5.44161 12.3332 5.62566C8.05953 7.1362 5 11.2121 5 16C5 22.0751 9.92487 27 16 27C20.7879 27 24.8638 23.9405 26.3743 19.6668C26.5584 19.146 27.1297 18.8731 27.6504 19.0572C28.1711 19.2412 28.4441 19.8125 28.26 20.3332C26.4759 25.3811 21.6618 29 16 29C8.8203 29 3 23.1797 3 16C3 10.3382 6.61894 5.52413 11.6668 3.73998C12.1875 3.55593 12.7588 3.82886 12.9428 4.34957Z" fill="black"/>
<path fill-rule="evenodd" clip-rule="evenodd" d="M12.9993 9.59533C13.3024 10.057 13.1738 10.677 12.7121 10.9801C11.0765 12.0539 10 13.9015 10 16C10 19.3137 12.6863 22 16 22C18.1055 22 19.9584 20.9163 21.0306 19.2715C21.3322 18.8089 21.9517 18.6783 22.4144 18.9799C22.8771 19.2815 23.0076 19.9011 22.706 20.3637C21.2803 22.5508 18.8097 24 16 24C11.5817 24 8 20.4183 8 16C8 13.1996 9.43965 10.736 11.6145 9.30819C12.0762 9.00509 12.6962 9.13365 12.9993 9.59533Z" fill="black"/>
</svg>
