<svg xmlns="http://www.w3.org/2000/svg" id="Layer_1" data-name="Layer 1" viewBox="0 0 32 32"><defs><style>.cls-1{fill:#0f0f0f;fill-rule:evenodd;}</style></defs><path d="M16.27,2A1.247,1.247,0,0,0,15,3.25v5.5A1.257,1.257,0,0,0,16.216,10,6,6,0,0,1,22,15.785,1.259,1.259,0,0,0,23.25,17h5.5A1.247,1.247,0,0,0,30,15.73,14,14,0,0,0,16.27,2Z M12.943,4.35a1,1,0,0,1-.61,1.276A11,11,0,1,0,26.374,19.667a1,1,0,0,1,.89-.666,1.034,1.034,0,0,1,.386.056,1.021,1.021,0,0,1,.336.2,1,1,0,0,1,.274,1.077A13,13,0,1,1,11.667,3.74a.994.994,0,0,1,.386-.055.973.973,0,0,1,.378.1,1,1,0,0,1,.313.234A.99.99,0,0,1,12.943,4.35Z M13,9.6a1,1,0,0,1,.143.752,1.012,1.012,0,0,1-.152.359,1,1,0,0,1-.279.274,6,6,0,1,0,8.319,8.291,1,1,0,0,1,.632-.432.991.991,0,0,1,.752.141,1,1,0,0,1,.291,1.384A8,8,0,1,1,11.615,9.308,1,1,0,0,1,13,9.6Z"/></svg>