<svg xmlns="http://www.w3.org/2000/svg" width="32" height="32" viewBox="0 0 32 32"><path d="M27 27.5H5C4.86739 27.5 4.74021 27.5527 4.64645 27.6464C4.55268 27.7402 4.5 27.8674 4.5 28C4.5 28.1326 4.55268 28.2598 4.64645 28.3536C4.74021 28.4473 4.86739 28.5 5 28.5H27C27.1326 28.5 27.2598 28.4473 27.3536 28.3536C27.4473 28.2598 27.5 28.1326 27.5 28C27.5 27.8674 27.4473 27.7402 27.3536 27.6464C27.2598 27.5527 27.1326 27.5 27 27.5ZM15.646 20.353C15.6923 20.3997 15.7474 20.4367 15.808 20.4619C15.8687 20.4872 15.9338 20.5002 15.9995 20.5002C16.0652 20.5002 16.1303 20.4872 16.191 20.4619C16.2516 20.4367 16.3067 20.3997 16.353 20.353L22.353 14.353C22.4441 14.2587 22.4945 14.1324 22.4933 14.0013C22.4922 13.8702 22.4396 13.7448 22.3469 13.6521C22.2542 13.5594 22.1288 13.5068 21.9977 13.5057C21.8666 13.5045 21.7403 13.5549 21.646 13.646L16.5 18.793V4C16.5 3.86739 16.4473 3.74021 16.3536 3.64645C16.2598 3.55268 16.1326 3.5 16 3.5C15.8674 3.5 15.7402 3.55268 15.6464 3.64645C15.5527 3.74021 15.5 3.86739 15.5 4V18.793L10.354 13.646C10.2597 13.5549 10.1334 13.5045 10.0023 13.5057C9.8712 13.5068 9.74579 13.5594 9.65309 13.6521C9.56039 13.7448 9.5078 13.8702 9.50666 14.0013C9.50552 14.1324 9.55592 14.2587 9.647 14.353L15.647 20.353H15.646Z"/></svg>