<svg width="32" height="32" viewBox="0 0 32 32" fill="none" xmlns="http://www.w3.org/2000/svg">
<path d="M27 27.2507H5C4.80109 27.2507 4.61032 27.3297 4.46967 27.4704C4.32902 27.611 4.25 27.8018 4.25 28.0007C4.25 28.1996 4.32902 28.3904 4.46967 28.531C4.61032 28.6717 4.80109 28.7507 5 28.7507H27C27.1989 28.7507 27.3897 28.6717 27.5303 28.531C27.671 28.3904 27.75 28.1996 27.75 28.0007C27.75 27.8018 27.671 27.611 27.5303 27.4704C27.3897 27.3297 27.1989 27.2507 27 27.2507Z" fill="black"/>
<path d="M15.4697 20.53C15.5394 20.5997 15.622 20.6549 15.713 20.6926C15.804 20.7303 15.9015 20.7497 16 20.7497C16.0985 20.7497 16.196 20.7303 16.287 20.6926C16.378 20.6549 16.4606 20.5997 16.5303 20.53L22.5303 14.53C22.6705 14.3893 22.7491 14.1987 22.7489 14C22.7487 13.8014 22.6697 13.6109 22.5292 13.4705C22.3888 13.33 22.1983 13.251 21.9997 13.2508C21.8011 13.2506 21.6105 13.3293 21.4697 13.4694L16.75 18.1892V3.99973C16.75 3.80082 16.671 3.61005 16.5303 3.4694C16.3897 3.32875 16.1989 3.24973 16 3.24973C15.8011 3.24973 15.6103 3.32875 15.4697 3.4694C15.329 3.61005 15.25 3.80082 15.25 3.99973V18.1892L10.5303 13.4695C10.3895 13.3297 10.199 13.2514 10.0006 13.2517C9.80215 13.2521 9.61196 13.3311 9.47166 13.4714C9.33136 13.6117 9.25237 13.8019 9.25201 14.0003C9.25165 14.1987 9.32994 14.3892 9.46973 14.53L15.4697 20.53Z" fill="black"/>
</svg>
