<svg xmlns="http://www.w3.org/2000/svg" width="32" height="32" viewBox="0 0 32 32"><path d="M4.25 5C4.25 4.58579 4.58579 4.25 5 4.25H22C22.1989 4.25 22.3897 4.32902 22.5303 4.46967L27.5303 9.46967C27.671 9.61032 27.75 9.80109 27.75 10V27C27.75 27.4142 27.4142 27.75 27 27.75H5C4.58579 27.75 4.25 27.4142 4.25 27V5ZM5.75 5.75V26.25H26.25V10.3107L21.6893 5.75H5.75ZM8 8H20V13.5H8V8ZM16 24C18.2091 24 20 22.2091 20 20C20 17.7909 18.2091 16 16 16C13.7909 16 12 17.7909 12 20C12 22.2091 13.7909 24 16 24Z"/></svg>