<svg xmlns="http://www.w3.org/2000/svg" width="32" height="32" viewBox="0 0 32 32"><path d="M28.5298 15.4698L24.5298 11.4698C24.3877 11.3373 24.1996 11.2652 24.0053 11.2687C23.811 11.2721 23.6256 11.3508 23.4882 11.4882C23.3508 11.6256 23.2721 11.811 23.2687 12.0053C23.2652 12.1996 23.3373 12.3877 23.4698 12.5298L26.1888 15.2498L16.7498 15.2468V5.80983L19.4698 8.52983C19.5385 8.60351 19.6213 8.66262 19.7133 8.70361C19.8053 8.7446 19.9046 8.76664 20.0053 8.76842C20.106 8.7702 20.206 8.75167 20.2994 8.71395C20.3928 8.67623 20.4776 8.62009 20.5489 8.54887C20.6201 8.47765 20.6762 8.39281 20.714 8.29943C20.7517 8.20604 20.7702 8.10601 20.7684 8.00531C20.7666 7.9046 20.7446 7.80529 20.7036 7.71329C20.6626 7.62129 20.6035 7.53849 20.5298 7.46983L16.5298 3.46983C16.3892 3.32938 16.1986 3.25049 15.9998 3.25049C15.8011 3.25049 15.6105 3.32938 15.4698 3.46983L11.4698 7.46783C11.3373 7.61 11.2652 7.79805 11.2687 7.99235C11.2721 8.18665 11.3508 8.37204 11.4882 8.50945C11.6256 8.64686 11.811 8.72557 12.0053 8.729C12.1996 8.73243 12.3877 8.66031 12.5298 8.52783L15.2498 5.80983V15.2458L5.81083 15.2488L8.53083 12.5288C8.60243 12.4596 8.65952 12.3768 8.69879 12.2853C8.73805 12.1938 8.75869 12.0954 8.75951 11.9958C8.76033 11.8962 8.74131 11.7974 8.70355 11.7053C8.6658 11.6131 8.61007 11.5294 8.53962 11.459C8.46916 11.3886 8.3854 11.333 8.29321 11.2953C8.20102 11.2577 8.10225 11.2387 8.00267 11.2396C7.90308 11.2406 7.80468 11.2613 7.7132 11.3006C7.62171 11.34 7.53898 11.3972 7.46983 11.4688L3.46983 15.4688C3.32938 15.6095 3.25049 15.8001 3.25049 15.9988C3.25049 16.1976 3.32938 16.3882 3.46983 16.5288L7.46983 20.5288C7.612 20.6613 7.80005 20.7334 7.99435 20.73C8.18865 20.7266 8.37404 20.6479 8.51145 20.5105C8.64886 20.373 8.72758 20.1877 8.731 19.9934C8.73443 19.799 8.66231 19.611 8.52983 19.4688L5.80983 16.7488L15.2498 16.7458V26.1888L12.5298 23.4688C12.4612 23.3951 12.3784 23.336 12.2864 23.295C12.1944 23.2541 12.0951 23.232 11.9944 23.2302C11.8936 23.2285 11.7936 23.247 11.7002 23.2847C11.6068 23.3224 11.522 23.3786 11.4508 23.4498C11.3796 23.521 11.3234 23.6058 11.2857 23.6992C11.248 23.7926 11.2295 23.8926 11.2312 23.9934C11.233 24.0941 11.2551 24.1934 11.296 24.2854C11.337 24.3774 11.3961 24.4602 11.4698 24.5288L15.4698 28.5288C15.6105 28.6693 15.8011 28.7482 15.9998 28.7482C16.1986 28.7482 16.3892 28.6693 16.5298 28.5288L20.5298 24.5288C20.6035 24.4602 20.6626 24.3774 20.7036 24.2854C20.7446 24.1934 20.7666 24.0941 20.7684 23.9934C20.7702 23.8926 20.7517 23.7926 20.714 23.6992C20.6762 23.6058 20.6201 23.521 20.5489 23.4498C20.4776 23.3786 20.3928 23.3224 20.2994 23.2847C20.206 23.247 20.106 23.2285 20.0053 23.2302C19.9046 23.232 19.8053 23.2541 19.7133 23.295C19.6213 23.336 19.5385 23.3951 19.4698 23.4688L16.7498 26.1888V16.7458L26.1898 16.7488L23.4698 19.4688C23.3291 19.6097 23.25 19.8005 23.2498 19.9996C23.2496 20.1987 23.3284 20.3897 23.4688 20.5308C23.5385 20.6005 23.6213 20.6557 23.7124 20.6933C23.8034 20.7309 23.901 20.7503 23.9995 20.7502C24.0981 20.7501 24.1956 20.7306 24.2866 20.6928C24.3776 20.655 24.4602 20.5996 24.5298 20.5298L28.5298 16.5298C28.67 16.3891 28.7488 16.1985 28.7488 15.9998C28.7488 15.8012 28.67 15.6106 28.5298 15.4698Z"/></svg>