<svg width="32" height="32" viewBox="0 0 32 32" fill="none" xmlns="http://www.w3.org/2000/svg">
<path d="M28.3536 15.6469L24.3536 11.6469C24.2595 11.5547 24.1329 11.5034 24.0012 11.504C23.8694 11.5047 23.7433 11.5573 23.6502 11.6504C23.557 11.7436 23.5044 11.8697 23.5037 12.0014C23.5031 12.1332 23.5544 12.2598 23.6466 12.3539L26.7927 15.5L16.5001 15.4966V5.20743L19.6466 8.35392C19.6928 8.40111 19.748 8.43867 19.8088 8.46442C19.8697 8.49017 19.9351 8.5036 20.0011 8.50393C20.0672 8.50427 20.1327 8.4915 20.1938 8.46637C20.2549 8.44123 20.3105 8.40423 20.3572 8.35751C20.4039 8.31078 20.4409 8.25526 20.466 8.19415C20.4912 8.13303 20.5039 8.06754 20.5036 8.00147C20.5033 7.93539 20.4898 7.87003 20.4641 7.80917C20.4383 7.74832 20.4008 7.69317 20.3536 7.64692L16.3536 3.64692C16.3072 3.60048 16.2521 3.56365 16.1914 3.53851C16.1308 3.51338 16.0657 3.50044 16.0001 3.50044C15.9344 3.50044 15.8694 3.51338 15.8088 3.53851C15.7481 3.56365 15.693 3.60048 15.6466 3.64692L11.6471 7.64592C11.5549 7.74 11.5035 7.86666 11.5042 7.99837C11.5049 8.13009 11.5575 8.25623 11.6506 8.34937C11.7438 8.44251 11.8699 8.49513 12.0016 8.49579C12.1333 8.49646 12.26 8.44511 12.3541 8.35292L15.5001 5.20735V15.4967L5.20751 15.5L8.35362 12.3539C8.44582 12.2598 8.49716 12.1332 8.49649 12.0014C8.49583 11.8697 8.44321 11.7436 8.35007 11.6504C8.25693 11.5573 8.13079 11.5047 7.99907 11.504C7.86736 11.5034 7.7407 11.5547 7.64662 11.6469L3.64662 15.6469C3.60019 15.6933 3.56335 15.7484 3.53822 15.8091C3.51309 15.8697 3.50015 15.9347 3.50015 16.0004C3.50015 16.066 3.51309 16.1311 3.53822 16.1917C3.56335 16.2524 3.60019 16.3075 3.64662 16.3539L7.64662 20.3539C7.69287 20.4011 7.74802 20.4386 7.80888 20.4644C7.86973 20.4901 7.93509 20.5036 8.00117 20.5039C8.06725 20.5042 8.13273 20.4915 8.19385 20.4663C8.25496 20.4412 8.31048 20.4042 8.35721 20.3575C8.40393 20.3108 8.44093 20.2552 8.46607 20.1941C8.4912 20.133 8.50397 20.0675 8.50364 20.0014C8.5033 19.9354 8.48987 19.87 8.46412 19.8091C8.43837 19.7483 8.40082 19.6931 8.35362 19.6469L5.20677 16.5L15.5001 16.4967V26.7934L12.3536 23.6469C12.2595 23.5547 12.1329 23.5034 12.0012 23.504C11.8694 23.5047 11.7433 23.5573 11.6502 23.6504C11.557 23.7436 11.5044 23.8697 11.5037 24.0014C11.5031 24.1332 11.5544 24.2598 11.6466 24.3539L15.6466 28.3539C15.693 28.4003 15.7481 28.4372 15.8088 28.4623C15.8695 28.4874 15.9345 28.5004 16.0001 28.5004C16.0658 28.5004 16.1308 28.4874 16.1914 28.4623C16.2521 28.4372 16.3072 28.4003 16.3536 28.3539L20.3536 24.3539C20.4458 24.2598 20.4972 24.1332 20.4965 24.0014C20.4958 23.8697 20.4432 23.7436 20.3501 23.6504C20.2569 23.5573 20.1308 23.5047 19.9991 23.504C19.8674 23.5034 19.7407 23.5547 19.6466 23.6469L16.5001 26.7934V16.4966L26.7934 16.5L23.6466 19.6469C23.5994 19.6931 23.5618 19.7483 23.5361 19.8091C23.5103 19.87 23.4969 19.9353 23.4966 20.0014C23.4962 20.0675 23.509 20.133 23.5341 20.1941C23.5593 20.2552 23.5963 20.3107 23.643 20.3574C23.6897 20.4042 23.7452 20.4412 23.8064 20.4663C23.8675 20.4914 23.933 20.5042 23.999 20.5039C24.0651 20.5035 24.1305 20.4901 24.1913 20.4644C24.2522 20.4386 24.3073 20.4011 24.3536 20.3539L28.3536 16.3539C28.4 16.3074 28.4369 16.2523 28.462 16.1917C28.4871 16.131 28.5001 16.066 28.5001 16.0004C28.5001 15.9347 28.4871 15.8697 28.462 15.8091C28.4369 15.7484 28.4 15.6933 28.3536 15.6469Z" fill="black"/>
</svg>
