<svg xmlns="http://www.w3.org/2000/svg" width="32" height="32" viewBox="0 0 32 32"><path d="M2.5 13C2.5 12.1716 3.17157 11.5 4 11.5H28C28.8284 11.5 29.5 12.1716 29.5 13V19C29.5 19.8284 28.8284 20.5 28 20.5H4C3.17157 20.5 2.5 19.8284 2.5 19V13ZM4 12.5H19.5V19.5H4C3.72386 19.5 3.5 19.2761 3.5 19V13C3.5 12.7239 3.72386 12.5 4 12.5ZM20.5 12.5V19.5H28C28.2761 19.5 28.5 19.2761 28.5 19V13C28.5 12.7239 28.2761 12.5 28 12.5H20.5ZM23.4 14.7C23.2343 14.4791 22.9209 14.4343 22.7 14.6C22.4791 14.7657 22.4343 15.0791 22.6 15.3L24.1 17.3C24.1944 17.4259 24.3426 17.5 24.5 17.5C24.6574 17.5 24.8056 17.4259 24.9 17.3L26.4 15.3C26.5657 15.0791 26.5209 14.7657 26.3 14.6C26.0791 14.4343 25.7657 14.4791 25.6 14.7L24.5 16.1667L23.4 14.7Z"/></svg>