<svg width="32" height="32" viewBox="0 0 32 32" fill="none" xmlns="http://www.w3.org/2000/svg">
<path d="M21.9998 6.2498H9.99979C8.74045 6.25123 7.5331 6.75213 6.64261 7.64262C5.75212 8.53311 5.25122 9.74046 5.24979 10.9998V24.9998C5.25122 26.2591 5.75212 27.4665 6.64261 28.357C7.5331 29.2475 8.74045 29.7484 9.99979 29.7498H21.9998C23.2591 29.7484 24.4665 29.2475 25.357 28.357C26.2475 27.4665 26.7484 26.2591 26.7498 24.9998V10.9998C26.7484 9.74046 26.2475 8.53311 25.357 7.64262C24.4665 6.75213 23.2591 6.25123 21.9998 6.2498ZM9.99979 7.7498H21.9998C22.8614 7.7508 23.6875 8.09353 24.2968 8.7028C24.9061 9.31208 25.2488 10.1382 25.2498 10.9998V22.2498H6.74979V10.9998C6.75078 10.1382 7.09351 9.31208 7.70279 8.70281C8.31207 8.09353 9.13814 7.7508 9.99979 7.7498ZM21.9998 28.2498H9.99979C9.13814 28.2488 8.31207 27.9061 7.70279 27.2968C7.09351 26.6875 6.75078 25.8615 6.74979 24.9998V23.7498H25.2498V24.9998C25.2488 25.8615 24.9061 26.6875 24.2968 27.2968C23.6875 27.9061 22.8614 28.2488 21.9998 28.2498Z" fill="black"/>
<path d="M14.9998 3.7498H16.9998C17.1987 3.7498 17.3895 3.67078 17.5301 3.53013C17.6708 3.38948 17.7498 3.19871 17.7498 2.9998C17.7498 2.80089 17.6708 2.61012 17.5301 2.46947C17.3895 2.32882 17.1987 2.2498 16.9998 2.2498H14.9998C14.8009 2.2498 14.6101 2.32882 14.4695 2.46947C14.3288 2.61012 14.2498 2.80089 14.2498 2.9998C14.2498 3.19871 14.3288 3.38948 14.4695 3.53013C14.6101 3.67078 14.8009 3.7498 14.9998 3.7498Z" fill="black"/>
</svg>
