<svg width="32" height="32" viewBox="0 0 32 32" fill="none" xmlns="http://www.w3.org/2000/svg">
<path d="M21.9998 6.4998H9.99979C8.80671 6.50111 7.66288 6.97563 6.81925 7.81926C5.97562 8.66289 5.50109 9.80673 5.49979 10.9998V24.9998C5.50109 26.1929 5.97561 27.3367 6.81924 28.1803C7.66288 29.024 8.80671 29.4985 9.99979 29.4998H21.9998C23.1929 29.4985 24.3367 29.024 25.1803 28.1803C26.024 27.3367 26.4985 26.1929 26.4998 24.9998V10.9998C26.4985 9.80673 26.024 8.66289 25.1803 7.81926C24.3367 6.97563 23.1929 6.5011 21.9998 6.4998ZM9.99979 7.4998H21.9998C22.9277 7.50092 23.8173 7.87003 24.4734 8.52617C25.1296 9.1823 25.4987 10.0719 25.4998 10.9998V22.4998H6.49979V10.9998C6.50091 10.0719 6.87002 9.1823 7.52616 8.52617C8.18229 7.87004 9.07187 7.50093 9.99979 7.4998ZM21.9998 28.4998H9.99979C9.07187 28.4987 8.18229 28.1296 7.52615 27.4734C6.87002 26.8173 6.50091 25.9277 6.49979 24.9998V23.4998H25.4998V24.9998C25.4987 25.9277 25.1296 26.8173 24.4734 27.4734C23.8173 28.1296 22.9277 28.4987 21.9998 28.4998Z" fill="black"/>
<path d="M14.9998 3.4998H16.9998C17.1324 3.4998 17.2596 3.44712 17.3533 3.35335C17.4471 3.25959 17.4998 3.13241 17.4998 2.9998C17.4998 2.86719 17.4471 2.74001 17.3533 2.64625C17.2596 2.55248 17.1324 2.4998 16.9998 2.4998H14.9998C14.8672 2.4998 14.74 2.55248 14.6462 2.64625C14.5525 2.74001 14.4998 2.86719 14.4998 2.9998C14.4998 3.13241 14.5525 3.25959 14.6462 3.35335C14.74 3.44712 14.8672 3.4998 14.9998 3.4998Z" fill="black"/>
</svg>
