<svg width="32" height="32" viewBox="0 0 32 32" fill="none" xmlns="http://www.w3.org/2000/svg">
<path d="M24.9998 6.4998H6.99979C5.80671 6.50111 4.66288 6.97563 3.81925 7.81926C2.97562 8.66289 2.50109 9.80673 2.49979 10.9998V27.4998C2.50048 28.03 2.71141 28.5383 3.08634 28.9133C3.46126 29.2882 3.96957 29.4991 4.49979 29.4998H5.38358C5.91367 29.4982 6.42174 29.2876 6.79765 28.9139L9.06522 26.6463C9.11149 26.5997 9.16658 26.5627 9.22727 26.5375C9.28796 26.5124 9.35304 26.4996 9.41874 26.4998H22.5535C22.6847 26.4998 22.8106 26.5514 22.9041 26.6434L25.2166 28.9246C25.5898 29.2945 26.0944 29.5014 26.6199 29.4998H27.4998C28.03 29.4991 28.5383 29.2882 28.9132 28.9133C29.2882 28.5383 29.4991 28.03 29.4998 27.4998V10.9998C29.4985 9.80673 29.024 8.66289 28.1803 7.81926C27.3367 6.97563 26.1929 6.5011 24.9998 6.4998ZM6.99979 7.4998H24.9998C25.9277 7.50092 26.8173 7.87003 27.4734 8.52617C28.1296 9.1823 28.4987 10.0719 28.4998 10.9998V20.4998H3.49979V10.9998C3.50091 10.0719 3.87002 9.1823 4.52616 8.52617C5.18229 7.87004 6.07187 7.50093 6.99979 7.4998ZM27.4998 28.4998H26.6199C26.3577 28.4993 26.106 28.3963 25.9187 28.2127L23.6062 25.9315C23.3262 25.654 22.9477 25.4988 22.5535 25.4998H9.41874C9.22169 25.4993 9.0265 25.5379 8.84446 25.6134C8.66242 25.6888 8.49715 25.7996 8.35819 25.9393L6.09061 28.2068C5.90269 28.3938 5.64865 28.499 5.38361 28.4998H4.49979C4.23463 28.4997 3.98038 28.3942 3.79288 28.2067C3.60538 28.0192 3.49997 27.765 3.49979 27.4998V21.4998H28.4998V27.4998C28.4996 27.765 28.3942 28.0192 28.2067 28.2067C28.0192 28.3942 27.7649 28.4996 27.4998 28.4998Z" fill="black"/>
<path d="M14.9998 3.4998H16.9998C17.1324 3.4998 17.2596 3.44712 17.3533 3.35335C17.4471 3.25959 17.4998 3.13241 17.4998 2.9998C17.4998 2.86719 17.4471 2.74001 17.3533 2.64625C17.2596 2.55248 17.1324 2.4998 16.9998 2.4998H14.9998C14.8672 2.4998 14.74 2.55248 14.6462 2.64625C14.5525 2.74001 14.4998 2.86719 14.4998 2.9998C14.4998 3.13241 14.5525 3.25959 14.6462 3.35335C14.74 3.44712 14.8672 3.4998 14.9998 3.4998Z" fill="black"/>
</svg>
