<svg width="32" height="32" fill="none" xmlns="http://www.w3.org/2000/svg"><path d="M16.9998 4h-2a1.0002 1.0002 0 0 1-1-1 1 1 0 0 1 1-1h2a1.0001 1.0001 0 0 1 .7071 1.7071A1.0001 1.0001 0 0 1 16.9998 4Z" fill="#0F0F0F"/><path fill-rule="evenodd" clip-rule="evenodd" d="M6.9998 6h18a5.0056 5.0056 0 0 1 4.9999 5v16.5a2.5022 2.5022 0 0 1-2.5 2.5h-.8799a2.4854 2.4854 0 0 1-1.7548-.7197L22.5535 27H9.4187l-2.2676 2.2676A2.5157 2.5157 0 0 1 5.3836 30h-.8838a2.5023 2.5023 0 0 1-2.5-2.5V11a5.0058 5.0058 0 0 1 5-5ZM28 20.0002H4v2h24v-2Z" fill="#0F0F0F"/></svg>