<svg xmlns="http://www.w3.org/2000/svg" width="32" height="32" viewBox="0 0 32 32"><path d="M27.288 4.7121C26.8246 4.24827 26.2743 3.88032 25.6686 3.62928C25.0629 3.37824 24.4137 3.24902 23.758 3.24902C23.1024 3.24902 22.4531 3.37824 21.8474 3.62928C21.2417 3.88032 20.6915 4.24827 20.228 4.7121L3.76203 21.1771C3.59876 21.3392 3.46933 21.5321 3.38126 21.7446C3.29319 21.9571 3.24825 22.185 3.24903 22.4151V27.0001C3.24956 27.4642 3.43425 27.9092 3.76254 28.2373C4.09083 28.5654 4.53589 28.7498 5.00003 28.7501H9.58603C9.81585 28.7509 10.0435 28.706 10.2559 28.6181C10.4682 28.5302 10.661 28.4011 10.823 28.2381L27.288 11.7731C28.2226 10.836 28.7474 9.56655 28.7474 8.2431C28.7474 6.91964 28.2226 5.6502 27.288 4.7131V4.7121ZM26.228 10.7121L9.76203 27.1771C9.715 27.2239 9.65136 27.2501 9.58503 27.2501H5.00003C4.93373 27.2501 4.87014 27.2238 4.82326 27.1769C4.77637 27.13 4.75003 27.0664 4.75003 27.0001V22.4151C4.74986 22.3822 4.75623 22.3497 4.76876 22.3193C4.7813 22.2889 4.79974 22.2613 4.82303 22.2381L21.288 5.7731C21.9431 5.11801 22.8316 4.74999 23.758 4.74999C24.6845 4.74999 25.573 5.11801 26.228 5.7731C26.8831 6.42818 27.2511 7.31667 27.2511 8.2431C27.2511 9.16953 26.8831 10.058 26.228 10.7131V10.7121Z"/></svg>