<svg xmlns="http://www.w3.org/2000/svg" width="32" height="32" viewBox="0 0 32 32"><path d="M27.11 4.89012C26.6698 4.44957 26.1471 4.10009 25.5718 3.86165C24.9965 3.62322 24.3798 3.50049 23.757 3.50049C23.1342 3.50049 22.5175 3.62322 21.9422 3.86165C21.3669 4.10009 20.8442 4.44957 20.404 4.89012L3.94 21.3531C3.80032 21.492 3.68952 21.6572 3.614 21.8391C3.53848 22.021 3.49974 22.2161 3.5 22.4131V27.0001C3.50053 27.3978 3.65874 27.779 3.93993 28.0602C4.22112 28.3414 4.60234 28.4996 5 28.5001H9.586C9.783 28.5005 9.97812 28.4618 10.1601 28.3863C10.342 28.3107 10.5072 28.1999 10.646 28.0601L27.111 11.5961C27.9988 10.7059 28.4974 9.4999 28.4974 8.24262C28.4974 6.98533 27.9988 5.77935 27.111 4.88912L27.11 4.89012ZM26.404 10.8901L9.94 27.3531C9.89358 27.3997 9.83839 27.4365 9.77763 27.4616C9.71686 27.4866 9.65173 27.4994 9.586 27.4991H5C4.86739 27.4991 4.74022 27.4464 4.64645 27.3527C4.55268 27.2589 4.5 27.1317 4.5 26.9991V22.4141C4.49985 22.3483 4.51277 22.2831 4.538 22.2224C4.56324 22.1616 4.60028 22.1065 4.647 22.0601L21.11 5.59612C21.8148 4.90844 22.7623 4.52622 23.747 4.53228C24.7317 4.53834 25.6743 4.9322 26.3706 5.62851C27.0669 6.32481 27.4608 7.26746 27.4668 8.25216C27.4729 9.23686 27.0907 10.1843 26.403 10.8891L26.404 10.8901Z"/></svg>