<svg width="32" height="32" viewBox="0 0 32 32" fill="none" xmlns="http://www.w3.org/2000/svg">
<path d="M27.2877 4.71231C26.8242 4.24853 26.2739 3.88063 25.6681 3.62962C25.0624 3.37862 24.4131 3.24942 23.7574 3.24942C23.1017 3.24942 22.4525 3.37862 21.8467 3.62962C21.241 3.88063 20.6907 4.24853 20.2271 4.71231L3.76279 21.1772C3.5997 21.3392 3.4704 21.532 3.38239 21.7444C3.29438 21.9568 3.24941 22.1846 3.2501 22.4145V27.0004C3.25066 27.4644 3.43521 27.9091 3.76328 28.2372C4.09135 28.5653 4.53614 28.7498 5.0001 28.7504H9.58555C9.81554 28.7512 10.0434 28.7062 10.2559 28.6182C10.4684 28.5302 10.6612 28.4009 10.8233 28.2377L27.2877 11.7729C28.2225 10.8358 28.7474 9.56619 28.7474 8.24259C28.7474 6.91898 28.2225 5.64941 27.2877 4.71231ZM26.2271 10.7123L9.76279 27.1772C9.71573 27.2241 9.652 27.2504 9.58555 27.2504H5.0001C4.93383 27.2503 4.87032 27.2239 4.82346 27.177C4.77661 27.1302 4.75023 27.0667 4.7501 27.0004V22.4145C4.74998 22.3816 4.7564 22.3491 4.76897 22.3187C4.78155 22.2884 4.80003 22.2608 4.82334 22.2377L21.2877 5.77286C21.9429 5.11882 22.831 4.75167 23.7568 4.75208C24.6826 4.7525 25.5703 5.12045 26.2249 5.77508C26.8796 6.42971 27.2475 7.31745 27.2479 8.24323C27.2483 9.16902 26.8812 10.0571 26.2271 10.7123Z" fill="black"/>
</svg>
