<svg xmlns="http://www.w3.org/2000/svg" width="32" height="32" viewBox="0 0 32 32"><path d="M8 6C6.89543 6 6 6.89543 6 8V12.4477C6 13.3559 5.69088 14.2372 5.12348 14.9464L4.28062 16L5.12348 17.0536C5.69088 17.7628 6 18.6441 6 19.5523V24C6 25.1046 6.89543 26 8 26H24C25.1046 26 26 25.1046 26 24V19.5523C26 18.6441 26.3091 17.7628 26.8765 17.0536L27.7194 16L26.8765 14.9464C26.3091 14.2372 26 13.3559 26 12.4477V8C26 6.89543 25.1046 6 24 6H20.5C19.9477 6 19.5 5.55228 19.5 5C19.5 4.44772 19.9477 4 20.5 4H24C26.2091 4 28 5.79086 28 8V12.4477C28 12.9018 28.1546 13.3424 28.4383 13.697L29.7809 15.3753C30.073 15.7405 30.073 16.2595 29.7809 16.6247L28.4383 18.303C28.1546 18.6576 28 19.0982 28 19.5523V24C28 26.2091 26.2091 28 24 28H8C5.79086 28 4 26.2091 4 24V19.5523C4 19.0982 3.84544 18.6576 3.56174 18.303L2.21913 16.6247C1.92696 16.2595 1.92696 15.7405 2.21913 15.3753L3.56174 13.697C3.84544 13.3424 4 12.9018 4 12.4477V8C4 5.79086 5.79086 4 8 4H11.5C12.0523 4 12.5 4.44772 12.5 5C12.5 5.55228 12.0523 6 11.5 6H8Z M18.7473 10.3052C18.6352 10.2944 18.522 10.3058 18.4143 10.3387C18.3066 10.3717 18.2064 10.4255 18.1195 10.4971C18.0326 10.5688 17.9606 10.6569 17.9077 10.7564L13.2297 19.5539L13.5845 20.7145L14.7444 20.3599L19.4225 11.5623C19.5291 11.3614 19.5519 11.126 19.4853 10.9085C19.4188 10.6909 19.2686 10.5086 19.0678 10.4017M17.8296 8.42611C18.1885 8.31637 18.5655 8.27841 18.9392 8.31442C19.3128 8.35042 19.6756 8.45969 20.007 8.63594C20.676 8.99193 21.1764 9.59907 21.398 10.3238C21.6195 11.0484 21.5443 11.8315 21.1887 12.5007L16.4014 21.5037C16.3129 21.6703 16.1925 21.8178 16.0475 21.9376C15.902 22.0579 15.7341 22.1485 15.5534 22.2039L13.6317 22.7915C13.2669 22.903 12.8729 22.865 12.5363 22.686C12.1998 22.507 11.9478 22.2017 11.8362 21.8368L11.2493 19.917C11.194 19.7363 11.1747 19.5458 11.1927 19.3582C11.2108 19.1699 11.2659 18.9871 11.3545 18.8204M11.3545 18.8204L16.1417 9.81768C16.3178 9.48634 16.5576 9.19274 16.8472 8.95399C17.1368 8.71523 17.4706 8.53585 17.8296 8.42611M18.7473 10.3052C18.8594 10.316 18.9684 10.3488 19.0678 10.4017Z"/></svg>