<svg xmlns="http://www.w3.org/2000/svg" width="32" height="32" viewBox="0 0 32 32"><path d="M7.24871 5.25021L7.26662 5.25H24.7337L24.7514 5.25021C26.1033 5.28219 27.3876 5.84753 28.3242 6.82296C29.2593 7.79679 29.7718 9.10038 29.7506 10.45C29.7506 12.1533 29.7505 13.3135 29.7503 14.4109L29.7503 14.5674C29.7501 15.6091 29.75 16.6146 29.75 18C29.75 18.4142 29.4142 18.75 29 18.75C28.5858 18.75 28.25 18.4142 28.25 18C28.25 16.6046 28.2501 15.5947 28.2503 14.545L28.2503 14.4107C28.2505 13.312 28.2506 12.1504 28.2506 10.444V10.4312C28.2546 10.1995 28.2364 9.96975 28.1969 9.74473L16.9919 18.3845C16.6856 18.6208 16.3094 18.7491 15.9226 18.7491C15.5356 18.7491 15.1597 18.6209 14.8534 18.3845L3.79041 9.83025C3.76063 10.0278 3.74708 10.2288 3.75052 10.4312L3.75074 10.444L3.75063 21.5645C3.73846 22.5296 4.11004 23.46 4.78378 24.1512C5.45644 24.8412 6.37525 25.2363 7.33867 25.25H15C15.4142 25.25 15.75 25.5858 15.75 26C15.75 26.4142 15.4142 26.75 15 26.75H7.32396C5.96111 26.7324 4.66105 26.1742 3.70967 25.1982C2.75944 24.2234 2.23476 22.9115 2.25063 21.5505V10.4501C2.22945 9.10055 2.74197 7.79716 3.67674 6.82339C4.61305 5.84801 5.89703 5.2825 7.24871 5.25021ZM27.2422 7.86185C26.582 7.17419 25.6772 6.77476 24.7244 6.75H7.276C6.32338 6.775 5.41894 7.17452 4.75885 7.86216C4.60759 8.01973 4.47196 8.18951 4.35292 8.36909L15.7699 17.197C15.8137 17.2308 15.8674 17.2491 15.9226 17.2491C15.9779 17.2491 16.032 17.2306 16.0757 17.1968L27.6059 8.30634C27.4973 8.14975 27.3759 8.00104 27.2422 7.86185ZM29.4881 23.5694C29.8026 23.2999 29.839 22.8264 29.5694 22.5119C29.2999 22.1974 28.8264 22.161 28.5119 22.4306L22.0392 27.9786L19.5303 25.4697C19.2374 25.1768 18.7626 25.1768 18.4697 25.4697C18.1768 25.7626 18.1768 26.2374 18.4697 26.5303L21.4697 29.5303C21.7468 29.8074 22.1905 29.8245 22.4881 29.5694L29.4881 23.5694Z"/></svg>