<svg xmlns="http://www.w3.org/2000/svg" width="32" height="32" viewBox="0 0 32 32"><path d="M24.7332 5.25H7.26618C5.9127 5.2755 4.62457 5.83672 3.68426 6.81058C2.74396 7.78444 2.22823 9.09145 2.25018 10.445V21.556C2.23738 22.9184 2.7654 24.2303 3.71845 25.204C4.67151 26.1777 5.9718 26.7336 7.33419 26.75H24.6672C26.0295 26.7336 27.3297 26.1776 28.2826 25.2039C29.2355 24.2302 29.7633 22.9183 29.7502 21.556V10.445C29.7721 9.09128 29.2563 7.78412 28.3158 6.81023C27.3752 5.83634 26.0868 5.27524 24.7332 5.25ZM7.26618 6.75H24.7332C25.3109 6.75507 25.8782 6.90435 26.3836 7.18429C26.889 7.46423 27.3164 7.86595 27.6272 8.353L16.1572 17.198C16.1134 17.2327 16.0591 17.2516 16.0032 17.2516C15.9473 17.2516 15.893 17.2327 15.8492 17.198L4.38718 8.335C4.69854 7.85307 5.12466 7.45598 5.62732 7.17934C6.12998 6.9027 6.69345 6.75518 7.26719 6.75H7.26618ZM28.2502 21.556C28.2636 22.5206 27.8939 23.4511 27.2222 24.1436C26.5506 24.8361 25.6317 25.2339 24.6672 25.25H7.33419C6.36945 25.2342 5.45036 24.8364 4.77849 24.144C4.10662 23.4515 3.73682 22.5208 3.75018 21.556V10.445C3.75218 10.225 3.77318 10.005 3.81318 9.788L14.9332 18.385C15.2396 18.6208 15.6154 18.7487 16.002 18.7489C16.3887 18.7491 16.7645 18.6215 17.0712 18.386L28.1902 9.813C28.2282 10.022 28.2482 10.233 28.2512 10.445V21.556H28.2502Z"/></svg>