<svg xmlns="http://www.w3.org/2000/svg" width="32" height="32" viewBox="0 0 32 32"><path d="M7.26662 5.5H24.7455C26.0314 5.53042 27.253 6.0683 28.1439 6.99611C29.0337 7.92286 29.5213 9.1636 29.5006 10.4481C29.5006 12.1524 29.5005 13.313 29.5003 14.4109L29.5003 14.5673C29.5001 15.6091 29.5 16.6145 29.5 18C29.5 18.2761 29.2761 18.5 29 18.5C28.7239 18.5 28.5 18.2761 28.5 18C28.5 16.6047 28.5001 15.5948 28.5003 14.5451L28.5003 14.4107C28.5005 13.312 28.5006 12.1504 28.5006 10.444V10.4355C28.5072 10.0512 28.4565 9.67175 28.353 9.30869L16.8392 18.1866C16.5767 18.3892 16.2541 18.4991 15.9226 18.4991C15.5909 18.4991 15.2687 18.3892 15.0061 18.1866L3.62667 9.38762C3.53774 9.7266 3.4945 10.0789 3.50056 10.4355L3.5007 10.444L3.50063 21.5613C3.48762 22.5927 3.88475 23.587 4.60476 24.3257C5.32404 25.0635 6.30668 25.4859 7.33694 25.5H15C15.2761 25.5 15.5 25.7239 15.5 26C15.5 26.2761 15.2761 26.5 15 26.5H7.32719C6.03063 26.4833 4.79379 25.9522 3.88869 25.0237C2.98434 24.096 2.48515 22.8473 2.50063 21.5519V10.4481C2.47996 9.16377 2.96751 7.92322 3.85709 6.99652C4.74769 6.06875 5.96899 5.53085 7.25468 5.50014L7.26662 5.5ZM27.4226 7.68871C26.7159 6.95277 25.7474 6.52563 24.7276 6.5H7.27277C6.25316 6.52588 5.28493 6.95312 4.5785 7.68903C4.36217 7.91438 4.17576 8.16308 4.02169 8.42899L15.6173 17.3951C15.7048 17.4626 15.8121 17.4991 15.9226 17.4991C16.0332 17.4991 16.1409 17.4623 16.2284 17.3948L27.941 8.36367C27.7946 8.12217 27.6212 7.89559 27.4226 7.68871ZM29.3254 23.3796C29.5351 23.1999 29.5593 22.8843 29.3796 22.6746C29.1999 22.4649 28.8843 22.4407 28.6746 22.6204L22.0262 28.319L19.3536 25.6464C19.1583 25.4512 18.8417 25.4512 18.6464 25.6464C18.4512 25.8417 18.4512 26.1583 18.6464 26.3536L21.6464 29.3536C21.8312 29.5383 22.127 29.5497 22.3254 29.3796L29.3254 23.3796Z"/></svg>