<svg xmlns="http://www.w3.org/2000/svg" width="32" height="32" viewBox="0 0 32 32"><path d="M26 7.143V7C25.9987 5.67432 25.4715 4.40332 24.5341 3.46593C23.5967 2.52853 22.3257 2.00132 21 2H11C9.67441 2.00159 8.40356 2.52888 7.46622 3.46622C6.52888 4.40356 6.00159 5.67441 6 7V7.144C4.90014 7.26386 3.88337 7.78593 3.14504 8.60991C2.40671 9.43388 1.99892 10.5016 2 11.608V24.733C2.00133 26.1297 2.5568 27.4687 3.54449 28.4562C4.53217 29.4437 5.87134 29.9989 7.268 30H24.735C26.1311 29.9981 27.4695 29.4426 28.4566 28.4552C29.4436 27.4678 29.9987 26.1291 30 24.733V11.608C30.0016 10.5014 29.5939 9.43328 28.8556 8.60905C28.1172 7.78482 27.1001 7.26267 26 7.143ZM27.872 10.846L26 12.29V9.144C26.4361 9.23357 26.84 9.43885 27.1694 9.73833C27.4987 10.0378 27.7415 10.4204 27.872 10.846ZM11 4H21C21.7954 4.00079 22.558 4.31712 23.1204 4.87956C23.6829 5.44199 23.9992 6.20459 24 7V13.833L16.002 20L8 13.81V7C8.0008 6.20459 8.31712 5.44199 8.87956 4.87956C9.442 4.31712 10.2046 4.00079 11 4ZM6 9.144V12.264L4.136 10.823C4.26913 10.4025 4.51206 10.0251 4.83973 9.72973C5.1674 9.43441 5.56793 9.23186 6 9.143V9.144ZM24.734 28H7.267C6.40087 27.9989 5.57051 27.6544 4.95805 27.0419C4.3456 26.4295 4.00106 25.5991 4 24.733V13.245L14.778 21.582C15.1279 21.8527 15.5577 21.9998 16.0002 22.0001C16.4426 22.0005 16.8726 21.8541 17.223 21.584L28 13.273V24.733C27.9992 25.599 27.6549 26.4294 27.0426 27.0419C26.4303 27.6544 25.6 27.9989 24.734 28Z"/></svg>