<svg xmlns="http://www.w3.org/2000/svg" width="32" height="32" viewBox="0 0 32 32"><path d="M16 30C23.732 30 30 23.732 30 16C30 8.26801 23.732 2 16 2C8.26801 2 2 8.26801 2 16C2 23.732 8.26801 30 16 30ZM11.4998 15C10.6713 15 9.99976 14.3284 9.99976 13.5C9.99976 12.6716 10.6713 12 11.4998 12C12.3282 12 12.9998 12.6716 12.9998 13.5C12.9998 14.3284 12.3282 15 11.4998 15ZM20.4998 15C19.6713 15 18.9998 14.3284 18.9998 13.5C18.9998 12.6716 19.6713 12 20.4998 12C21.3282 12 21.9998 12.6716 21.9998 13.5C21.9998 14.3284 21.3282 15 20.4998 15ZM11.8296 18.2603C13.0638 17.4356 14.5154 16.9969 15.9998 17C17.4844 17.0028 18.9349 17.445 20.1686 18.2708C21.4024 19.0966 22.3641 20.2691 22.9327 21.6405C23.0221 21.8865 23.0115 22.1577 22.9031 22.396C22.7948 22.6342 22.5974 22.8205 22.3532 22.9149C22.1091 23.0092 21.9998 23 21.9998 23C21.8634 23 21.6156 22.9255 21.2562 22.8174C20.2976 22.5291 18.5454 22.0023 15.9998 22.0149C13.4568 22.0276 11.7056 22.5427 10.7519 22.8233C10.393 22.9289 10.147 23.0012 10.0142 23.0011C9.88283 23.003 9.75234 22.979 9.63021 22.9305C9.50808 22.8819 9.3967 22.8098 9.30244 22.7182C9.20818 22.6267 9.13288 22.5174 9.08084 22.3967C9.02879 22.2761 9.00103 22.1463 8.99913 22.0149C8.99723 21.8835 9.02123 21.753 9.06976 21.6309C9.63476 20.2583 10.5955 19.085 11.8296 18.2603Z"/></svg>