<svg xmlns="http://www.w3.org/2000/svg" width="32" height="32" viewBox="0 0 32 32"><path d="M16 30C23.732 30 30 23.732 30 16C30 8.26801 23.732 2 16 2C8.26801 2 2 8.26801 2 16C2 23.732 8.26801 30 16 30ZM11.4997 15C10.6713 15 9.9997 14.3284 9.9997 13.5C9.9997 12.6716 10.6713 12 11.4997 12C12.3281 12 12.9997 12.6716 12.9997 13.5C12.9997 14.3284 12.3281 15 11.4997 15ZM20.4997 15C19.6713 15 18.9997 14.3284 18.9997 13.5C18.9997 12.6716 19.6713 12 20.4997 12C21.3281 12 21.9997 12.6716 21.9997 13.5C21.9997 14.3284 21.3281 15 20.4997 15ZM22.0712 17.9978C22.1425 17.994 22.1648 17.9928 22.3602 18.0678C22.4828 18.1151 22.5948 18.186 22.6899 18.2766C22.785 18.3673 22.8613 18.4757 22.9145 18.5959C22.9676 18.716 22.9966 18.8454 22.9997 18.9767C23.0028 19.1081 22.9799 19.2387 22.9325 19.3612C22.3665 20.7333 21.406 21.9066 20.1727 22.7326C18.9395 23.5585 17.4888 23.9999 16.0045 24.0008C14.5203 24.0017 13.0691 23.5622 11.8347 22.7379C10.6004 21.9135 9.63846 20.7414 9.0707 19.37C9.0202 19.2476 8.99451 19.1164 8.99513 18.984C8.99574 18.8516 9.02265 18.7206 9.07428 18.5987C9.12591 18.4767 9.20125 18.3663 9.29591 18.2737C9.39058 18.1811 9.50269 18.1082 9.62574 18.0593C9.74878 18.0104 9.88032 17.9864 10.0127 17.9888C10.151 17.9903 10.4521 18.07 10.8811 18.1835C11.9635 18.4699 13.8595 18.9716 16.0045 18.9767C17.906 18.9813 19.4064 18.5864 20.5045 18.2974C21.1361 18.1312 21.6345 18 21.9997 18C22.0298 18 22.0522 17.9988 22.0712 17.9978Z"/></svg>