<svg xmlns="http://www.w3.org/2000/svg" width="32" height="32" viewBox="0 0 32 32"><path d="M16 2.5C13.33 2.5 10.7199 3.29176 8.49981 4.77516C6.27974 6.25856 4.54942 8.36697 3.52763 10.8338C2.50585 13.3006 2.2385 16.015 2.7594 18.6337C3.28031 21.2525 4.56606 23.6579 6.45406 25.5459C8.34207 27.434 10.7475 28.7197 13.3663 29.2406C15.985 29.7615 18.6994 29.4942 21.1662 28.4724C23.633 27.4506 25.7414 25.7203 27.2248 23.5002C28.7082 21.2801 29.5 18.67 29.5 16C29.496 12.4208 28.0724 8.98932 25.5416 6.45844C23.0107 3.92756 19.5792 2.50397 16 2.5ZM16 28.5C13.5277 28.5 11.111 27.7669 9.05538 26.3934C6.99976 25.0199 5.39761 23.0676 4.45151 20.7835C3.50542 18.4995 3.25787 15.9861 3.74019 13.5614C4.22251 11.1366 5.41301 8.90932 7.16117 7.16117C8.90933 5.41301 11.1366 4.2225 13.5614 3.74018C15.9861 3.25787 18.4995 3.50541 20.7835 4.45151C23.0676 5.3976 25.0199 6.99976 26.3934 9.05537C27.7669 11.111 28.5 13.5277 28.5 16C28.4963 19.3141 27.1782 22.4913 24.8347 24.8347C22.4913 27.1781 19.3141 28.4963 16 28.5Z M21 20.5H11C10.8674 20.5 10.7402 20.5527 10.6464 20.6464C10.5527 20.7402 10.5 20.8674 10.5 21C10.5 21.1326 10.5527 21.2598 10.6464 21.3536C10.7402 21.4473 10.8674 21.5 11 21.5H21C21.1326 21.5 21.2598 21.4473 21.3536 21.3536C21.4473 21.2598 21.5 21.1326 21.5 21C21.5 20.8674 21.4473 20.7402 21.3536 20.6464C21.2598 20.5527 21.1326 20.5 21 20.5ZM11.5 14.5C11.7652 14.5 12.0196 14.3946 12.2071 14.2071C12.3946 14.0196 12.5 13.7652 12.5 13.5C12.5 13.2348 12.3946 12.9804 12.2071 12.7929C12.0196 12.6054 11.7652 12.5 11.5 12.5C11.2348 12.5 10.9804 12.6054 10.7929 12.7929C10.6054 12.9804 10.5 13.2348 10.5 13.5C10.5 13.7652 10.6054 14.0196 10.7929 14.2071C10.9804 14.3946 11.2348 14.5 11.5 14.5ZM20.5 14.5C20.7652 14.5 21.0196 14.3946 21.2071 14.2071C21.3946 14.0196 21.5 13.7652 21.5 13.5C21.5 13.2348 21.3946 12.9804 21.2071 12.7929C21.0196 12.6054 20.7652 12.5 20.5 12.5C20.2348 12.5 19.9804 12.6054 19.7929 12.7929C19.6054 12.9804 19.5 13.2348 19.5 13.5C19.5 13.7652 19.6054 14.0196 19.7929 14.2071C19.9804 14.3946 20.2348 14.5 20.5 14.5Z"/></svg>