<svg xmlns="http://www.w3.org/2000/svg" width="32" height="32" viewBox="0 0 32 32"><path d="M19.7072 10.2932C19.5196 10.106 19.2653 10.0008 19.0002 10.0008C18.7351 10.0008 18.4809 10.106 18.2932 10.2932L16.0002 12.5862L13.7072 10.2932C13.6144 10.2003 13.5041 10.1266 13.3828 10.0763C13.2615 10.026 13.1314 10 13.0001 10C12.8687 9.99995 12.7386 10.0258 12.6173 10.076C12.4959 10.1262 12.3856 10.1999 12.2927 10.2927C12.1998 10.3855 12.1261 10.4958 12.0758 10.6171C12.0255 10.7384 11.9996 10.8685 11.9995 10.9998C11.9995 11.1312 12.0253 11.2613 12.0755 11.3826C12.1257 11.504 12.1994 11.6143 12.2922 11.7072L14.5852 14.0002L12.2922 16.2932C12.1994 16.3861 12.1257 16.4964 12.0755 16.6178C12.0253 16.7391 11.9995 16.8692 11.9995 17.0006C11.9996 17.1319 12.0255 17.262 12.0758 17.3833C12.1261 17.5046 12.1998 17.6149 12.2927 17.7077C12.3856 17.8005 12.4959 17.8742 12.6173 17.9244C12.7386 17.9746 12.8687 18.0005 13.0001 18.0004C13.1314 18.0004 13.2615 17.9744 13.3828 17.9241C13.5041 17.8738 13.6144 17.8001 13.7072 17.7072L16.0002 15.4142L18.2932 17.7072C18.4818 17.8894 18.7344 17.9902 18.9966 17.9879C19.2588 17.9856 19.5096 17.8804 19.695 17.695C19.8804 17.5096 19.9856 17.2588 19.9879 16.9966C19.9902 16.7344 19.8894 16.4818 19.7072 16.2932L17.4142 14.0002L19.7072 11.7072C19.8002 11.6144 19.8739 11.5042 19.9242 11.3829C19.9745 11.2616 20.0004 11.1315 20.0004 11.0002C20.0004 10.8689 19.9745 10.7388 19.9242 10.6175C19.8739 10.4962 19.8002 10.386 19.7072 10.2932Z M25 4H7C5.67441 4.00159 4.40356 4.52888 3.46622 5.46622C2.52888 6.40356 2.00159 7.67441 2 9V19C2.00159 20.3256 2.52888 21.5964 3.46622 22.5338C4.40356 23.4711 5.67441 23.9984 7 24H11L10.401 24.8C10.1782 25.0971 10.0425 25.4503 10.0091 25.8201C9.97571 26.19 10.0459 26.5618 10.2119 26.894C10.3779 27.2262 10.6331 27.5056 10.9489 27.7009C11.2647 27.8962 11.6287 27.9998 12 28H20C20.3713 27.9996 20.7351 27.8959 21.0507 27.7005C21.3664 27.5051 21.6214 27.2257 21.7873 26.8935C21.9532 26.5614 22.0233 26.1896 21.9899 25.8199C21.9564 25.4501 21.8208 25.097 21.598 24.8L20.998 24H25C26.3256 23.9984 27.5964 23.4711 28.5338 22.5338C29.4711 21.5964 29.9984 20.3256 30 19V9C29.9984 7.67441 29.4711 6.40356 28.5338 5.46622C27.5964 4.52888 26.3256 4.00159 25 4ZM20 26H12L13.5 24H18.5L20 26ZM28 19C27.9992 19.7954 27.6829 20.558 27.1204 21.1204C26.558 21.6829 25.7954 21.9992 25 22H7C6.20459 21.9992 5.44199 21.6829 4.87956 21.1204C4.31712 20.558 4.00079 19.7954 4 19V9C4.00079 8.20459 4.31712 7.44199 4.87956 6.87956C5.44199 6.31712 6.20459 6.00079 7 6H25C25.7954 6.00079 26.558 6.31712 27.1204 6.87956C27.6829 7.44199 27.9992 8.20459 28 9V19Z"/></svg>