<svg width="32" height="32" viewBox="0 0 32 32" fill="none" xmlns="http://www.w3.org/2000/svg">
<path d="M9.99982 7.9999H11.9998C12.265 7.9999 12.5194 7.89454 12.7069 7.70701C12.8945 7.51947 12.9998 7.26512 12.9998 6.9999C12.9998 6.73468 12.8945 6.48033 12.7069 6.29279C12.5194 6.10526 12.265 5.9999 11.9998 5.9999H9.99982C9.7346 5.9999 9.48025 6.10526 9.29271 6.29279C9.10517 6.48033 8.99982 6.73468 8.99982 6.9999C8.99982 7.26512 9.10517 7.51947 9.29271 7.70701C9.48025 7.89454 9.7346 7.9999 9.99982 7.9999Z" fill="black"/>
<path d="M19.9998 7.9999H21.9998C22.265 7.9999 22.5194 7.89454 22.7069 7.70701C22.8945 7.51947 22.9998 7.26512 22.9998 6.9999C22.9998 6.73468 22.8945 6.48033 22.7069 6.29279C22.5194 6.10526 22.265 5.9999 21.9998 5.9999H19.9998C19.7346 5.9999 19.4802 6.10526 19.2927 6.29279C19.1052 6.48033 18.9998 6.73468 18.9998 6.9999C18.9998 7.26512 19.1052 7.51947 19.2927 7.70701C19.4802 7.89454 19.7346 7.9999 19.9998 7.9999Z" fill="black"/>
<path d="M25.9998 2.9999H5.99982C5.20443 3.00077 4.44188 3.31712 3.87946 3.87954C3.31704 4.44196 3.00069 5.20452 2.99982 5.9999V28.0004C2.99982 28.2656 3.10517 28.52 3.29271 28.7075C3.48025 28.895 3.7346 29.0004 3.99982 29.0004C4.26503 29.0004 4.51939 28.895 4.70692 28.7075C4.89446 28.52 4.99982 28.2656 4.99982 28.0004V20.0004H26.9998V28.0004C26.9998 28.2656 27.1052 28.52 27.2927 28.7075C27.4802 28.895 27.7346 29.0004 27.9998 29.0004C28.265 29.0004 28.5194 28.895 28.7069 28.7075C28.8945 28.52 28.9998 28.2656 28.9998 28.0004V5.9999C28.9989 5.20452 28.6826 4.44196 28.1202 3.87954C27.5578 3.31712 26.7952 3.00077 25.9998 2.9999ZM5.99982 4.9999H25.9998C26.265 5.00017 26.5192 5.10561 26.7066 5.29309C26.8941 5.48057 26.9996 5.73477 26.9998 5.9999V9.01705C26.9703 9.01443 26.945 8.9999 26.9148 8.9999H4.99982V5.9999C5.00008 5.73477 5.10552 5.48057 5.293 5.29309C5.48048 5.10561 5.73468 5.00017 5.99982 4.9999ZM4.99982 10.9999H15.0135V18.0004H4.99982V10.9999ZM17.0135 18.0004V10.9999H26.9149C26.945 10.9999 26.9703 10.9854 26.9999 10.9828V18.0004H17.0135Z" fill="black"/>
</svg>
