<svg width="32" height="32" viewBox="0 0 32 32" fill="none" xmlns="http://www.w3.org/2000/svg">
<path d="M17.0004 5.9999H15.0004C14.7351 5.9999 14.4808 6.10526 14.2933 6.29279C14.1057 6.48033 14.0004 6.73468 14.0004 6.9999C14.0004 7.26512 14.1057 7.51947 14.2933 7.70701C14.4808 7.89454 14.7351 7.9999 15.0004 7.9999H17.0004C17.2656 7.9999 17.5199 7.89454 17.7075 7.70701C17.895 7.51947 18.0004 7.26512 18.0004 6.9999C18.0004 6.73468 17.895 6.48033 17.7075 6.29279C17.5199 6.10526 17.2656 5.9999 17.0004 5.9999Z" fill="black"/>
<path d="M26.0004 2.9999H6.00037C5.20498 3.00077 4.44243 3.31712 3.88 3.87954C3.31758 4.44196 3.00123 5.20452 3.00037 5.9999V28.0004C3.00037 28.2656 3.10572 28.52 3.29326 28.7075C3.4808 28.895 3.73515 29.0004 4.00037 29.0004C4.26558 29.0004 4.51994 28.895 4.70747 28.7075C4.89501 28.52 5.00037 28.2656 5.00037 28.0004V21.0004H27.0004V28.0004C27.0004 28.2656 27.1057 28.52 27.2933 28.7075C27.4808 28.895 27.7351 29.0004 28.0004 29.0004C28.2656 29.0004 28.5199 28.895 28.7075 28.7075C28.895 28.52 29.0004 28.2656 29.0004 28.0004V5.9999C28.9995 5.20452 28.6831 4.44196 28.1207 3.87954C27.5583 3.31712 26.7957 3.00077 26.0004 2.9999ZM5.00037 19.0004V5.9999C5.00063 5.73477 5.10607 5.48057 5.29355 5.29309C5.48103 5.10561 5.73523 5.00017 6.00037 4.9999H26.0004C26.2655 5.00017 26.5197 5.10561 26.7072 5.29309C26.8947 5.48057 27.0001 5.73477 27.0004 5.9999V19.0004H5.00037Z" fill="black"/>
</svg>
