<svg width="32" height="32" viewBox="0 0 32 32" fill="none" xmlns="http://www.w3.org/2000/svg">
<path d="M9.99982 7.4999H11.9998C12.1324 7.4999 12.2596 7.44722 12.3534 7.35345C12.4471 7.25969 12.4998 7.13251 12.4998 6.9999C12.4998 6.86729 12.4471 6.74011 12.3534 6.64635C12.2596 6.55258 12.1324 6.4999 11.9998 6.4999H9.99982C9.86721 6.4999 9.74003 6.55258 9.64626 6.64635C9.5525 6.74011 9.49982 6.86729 9.49982 6.9999C9.49982 7.13251 9.5525 7.25969 9.64626 7.35345C9.74003 7.44722 9.86721 7.4999 9.99982 7.4999Z" fill="black"/>
<path d="M19.9998 7.4999H21.9998C22.1324 7.4999 22.2596 7.44722 22.3534 7.35345C22.4471 7.25969 22.4998 7.13251 22.4998 6.9999C22.4998 6.86729 22.4471 6.74011 22.3534 6.64635C22.2596 6.55258 22.1324 6.4999 21.9998 6.4999H19.9998C19.8672 6.4999 19.74 6.55258 19.6463 6.64635C19.5525 6.74011 19.4998 6.86729 19.4998 6.9999C19.4998 7.13251 19.5525 7.25969 19.6463 7.35345C19.74 7.44722 19.8672 7.4999 19.9998 7.4999Z" fill="black"/>
<path d="M25.9998 3.4999H5.99982C5.33699 3.5006 4.70151 3.76421 4.23282 4.2329C3.76413 4.70159 3.50051 5.33707 3.49982 5.9999V28.0004C3.49982 28.133 3.5525 28.2602 3.64626 28.3539C3.74003 28.4477 3.86721 28.5004 3.99982 28.5004C4.13243 28.5004 4.2596 28.4477 4.35337 28.3539C4.44714 28.2602 4.49982 28.133 4.49982 28.0004V19.5004H27.4998V28.0004C27.4998 28.133 27.5525 28.2602 27.6463 28.3539C27.74 28.4477 27.8672 28.5004 27.9998 28.5004C28.1324 28.5004 28.2596 28.4477 28.3534 28.3539C28.4471 28.2602 28.4998 28.133 28.4998 28.0004V5.9999C28.4991 5.33707 28.2355 4.70159 27.7668 4.2329C27.2981 3.76421 26.6626 3.5006 25.9998 3.4999ZM5.99982 4.4999H25.9998C26.3975 4.50033 26.7788 4.65851 27.06 4.93972C27.3412 5.22093 27.4994 5.60221 27.4998 5.9999V9.4999H4.49982V5.9999C4.50025 5.60221 4.65843 5.22093 4.93964 4.93972C5.22085 4.65851 5.60213 4.50033 5.99982 4.4999ZM4.49982 10.4999H15.5135V18.5004H4.49982V10.4999ZM16.5135 18.5004V10.4999H27.4998V18.5004H16.5135Z" fill="black"/>
</svg>
