<svg xmlns="http://www.w3.org/2000/svg" width="32" height="32" viewBox="0 0 32 32"><path d="M17 6.5H15C14.8674 6.5 14.7402 6.55268 14.6464 6.64645C14.5527 6.74021 14.5 6.86739 14.5 7C14.5 7.13261 14.5527 7.25979 14.6464 7.35355C14.7402 7.44732 14.8674 7.5 15 7.5H17C17.1326 7.5 17.2598 7.44732 17.3536 7.35355C17.4473 7.25979 17.5 7.13261 17.5 7C17.5 6.86739 17.4473 6.74021 17.3536 6.64645C17.2598 6.55268 17.1326 6.5 17 6.5Z M26 3.5H6C5.3372 3.50079 4.70178 3.76444 4.23311 4.23311C3.76444 4.70178 3.50079 5.3372 3.5 6V28C3.5 28.1326 3.55268 28.2598 3.64645 28.3536C3.74021 28.4473 3.86739 28.5 4 28.5C4.13261 28.5 4.25979 28.4473 4.35355 28.3536C4.44732 28.2598 4.5 28.1326 4.5 28V20.5H27.5V28C27.5 28.1326 27.5527 28.2598 27.6464 28.3536C27.7402 28.4473 27.8674 28.5 28 28.5C28.1326 28.5 28.2598 28.4473 28.3536 28.3536C28.4473 28.2598 28.5 28.1326 28.5 28V6C28.4992 5.3372 28.2356 4.70178 27.7669 4.23311C27.2982 3.76444 26.6628 3.50079 26 3.5ZM4.5 19.5V6C4.50053 5.60234 4.65873 5.22111 4.93992 4.93992C5.22111 4.65873 5.60234 4.50053 6 4.5H26C26.3977 4.50026 26.7791 4.65839 27.0604 4.93963C27.3416 5.22088 27.4997 5.60226 27.5 6V19.5H4.5Z"/></svg>