<svg xmlns="http://www.w3.org/2000/svg" width="32" height="32" viewBox="0 0 32 32"><path d="M25 7.5H7C5.80693 7.50132 4.66311 7.97585 3.81948 8.81948C2.97585 9.66311 2.50132 10.8069 2.5 12V24C2.50132 25.1931 2.97585 26.3369 3.81948 27.1805C4.66311 28.0241 5.80693 28.4987 7 28.5H25C26.1931 28.4989 27.3371 28.0245 28.1808 27.1808C29.0245 26.3371 29.4989 25.1931 29.5 24V12C29.4987 10.8069 29.0241 9.66311 28.1805 8.81948C27.3369 7.97585 26.1931 7.50132 25 7.5ZM7 8.5H25C25.9279 8.50106 26.8176 8.87015 27.4737 9.5263C28.1299 10.1824 28.4989 11.0721 28.5 12V21.5H3.5V12C3.50106 11.0721 3.87015 10.1824 4.5263 9.5263C5.18244 8.87015 6.07207 8.50106 7 8.5ZM25 27.5H7C6.07207 27.4989 5.18244 27.1299 4.5263 26.4737C3.87015 25.8176 3.50106 24.9279 3.5 24V22.5H28.5V24C28.4989 24.9279 28.1299 25.8176 27.4737 26.4737C26.8176 27.1299 25.9279 27.4989 25 27.5ZM15 4.5H17C17.1326 4.5 17.2598 4.44732 17.3536 4.35355C17.4473 4.25979 17.5 4.13261 17.5 4C17.5 3.86739 17.4473 3.74021 17.3536 3.64645C17.2598 3.55268 17.1326 3.5 17 3.5H15C14.8674 3.5 14.7402 3.55268 14.6464 3.64645C14.5527 3.74021 14.5 3.86739 14.5 4C14.5 4.13261 14.5527 4.25979 14.6464 4.35355C14.7402 4.44732 14.8674 4.5 15 4.5Z"/></svg>