<svg width="32" height="32" viewBox="0 0 32 32" fill="none" xmlns="http://www.w3.org/2000/svg">
<path d="M15.0006 7.7501H17.0006C17.1995 7.7501 17.3903 7.67108 17.5309 7.53043C17.6716 7.38978 17.7506 7.19901 17.7506 7.0001C17.7506 6.80119 17.6716 6.61042 17.5309 6.46977C17.3903 6.32912 17.1995 6.2501 17.0006 6.2501H15.0006C14.8017 6.2501 14.6109 6.32912 14.4703 6.46977C14.3296 6.61042 14.2506 6.80119 14.2506 7.0001C14.2506 7.19901 14.3296 7.38978 14.4703 7.53043C14.6109 7.67108 14.8017 7.7501 15.0006 7.7501Z" fill="black"/>
<path d="M25.9996 3.2501H5.99963C5.27052 3.25084 4.57147 3.54081 4.05591 4.05637C3.54034 4.57194 3.25038 5.27098 3.24963 6.0001V27.9996C3.24963 28.1985 3.32865 28.3893 3.4693 28.5299C3.60996 28.6706 3.80072 28.7496 3.99963 28.7496C4.19855 28.7496 4.38931 28.6706 4.52996 28.5299C4.67062 28.3893 4.74963 28.1985 4.74963 27.9996V19.7496H27.2496V27.9996C27.2496 28.1985 27.3287 28.3893 27.4693 28.5299C27.61 28.6706 27.8007 28.7496 27.9996 28.7496C28.1985 28.7496 28.3893 28.6706 28.53 28.5299C28.6706 28.3893 28.7496 28.1985 28.7496 27.9996V6.0001C28.7489 5.27098 28.4589 4.57194 27.9434 4.05637C27.4278 3.54081 26.7288 3.25084 25.9996 3.2501ZM5.99963 4.7501H25.9996C26.3311 4.75041 26.6488 4.8822 26.8832 5.11655C27.1175 5.35091 27.2493 5.66867 27.2496 6.0001V9.2501H4.74963V6.0001C4.74994 5.66867 4.88174 5.35091 5.11609 5.11655C5.35044 4.8822 5.66821 4.75041 5.99963 4.7501ZM4.74963 10.7501H15.2509L15.2631 18.2496H4.74963V10.7501ZM16.763 18.2496L16.7508 10.7501H27.2496V18.2496H16.763Z" fill="black"/>
</svg>
