<svg width="32" height="32" viewBox="0 0 32 32" fill="none" xmlns="http://www.w3.org/2000/svg">
<path d="M17.0004 6.4999H15.0004C14.8678 6.4999 14.7406 6.55258 14.6468 6.64635C14.553 6.74011 14.5004 6.86729 14.5004 6.9999C14.5004 7.13251 14.553 7.25969 14.6468 7.35345C14.7406 7.44722 14.8678 7.4999 15.0004 7.4999H17.0004C17.133 7.4999 17.2602 7.44722 17.3539 7.35345C17.4477 7.25969 17.5004 7.13251 17.5004 6.9999C17.5004 6.86729 17.4477 6.74011 17.3539 6.64635C17.2602 6.55258 17.133 6.4999 17.0004 6.4999Z" fill="black"/>
<path d="M26.0004 3.4999H6.00037C5.33754 3.5006 4.70206 3.76421 4.23337 4.2329C3.76468 4.70159 3.50106 5.33707 3.50037 5.9999V28.0004C3.50037 28.133 3.55304 28.2602 3.64681 28.3539C3.74058 28.4477 3.86776 28.5004 4.00037 28.5004C4.13297 28.5004 4.26015 28.4477 4.35392 28.3539C4.44769 28.2602 4.50037 28.133 4.50037 28.0004V20.5004H27.5004V28.0004C27.5004 28.133 27.553 28.2602 27.6468 28.3539C27.7406 28.4477 27.8678 28.5004 28.0004 28.5004C28.133 28.5004 28.2602 28.4477 28.3539 28.3539C28.4477 28.2602 28.5004 28.133 28.5004 28.0004V5.9999C28.4997 5.33707 28.2361 4.70159 27.7674 4.2329C27.2987 3.76421 26.6632 3.5006 26.0004 3.4999ZM4.50037 19.5004V5.9999C4.5008 5.60221 4.65898 5.22093 4.94019 4.93972C5.2214 4.65851 5.60267 4.50033 6.00037 4.4999H26.0004C26.3981 4.50033 26.7793 4.65851 27.0605 4.93972C27.3418 5.22093 27.4999 5.60221 27.5004 5.9999V19.5004H4.50037Z" fill="black"/>
</svg>
