<svg xmlns="http://www.w3.org/2000/svg" width="32" height="32" viewBox="0 0 32 32"><path d="M15 7.75H17C17.1989 7.75 17.3897 7.67098 17.5303 7.53033C17.671 7.38968 17.75 7.19891 17.75 7C17.75 6.80109 17.671 6.61032 17.5303 6.46967C17.3897 6.32902 17.1989 6.25 17 6.25H15C14.8011 6.25 14.6103 6.32902 14.4697 6.46967C14.329 6.61032 14.25 6.80109 14.25 7C14.25 7.19891 14.329 7.38968 14.4697 7.53033C14.6103 7.67098 14.8011 7.75 15 7.75Z M26 3.25H6C5.2709 3.25079 4.57189 3.54078 4.05633 4.05633C3.54078 4.57189 3.25079 5.2709 3.25 6V28C3.25 28.1989 3.32902 28.3897 3.46967 28.5303C3.61032 28.671 3.80109 28.75 4 28.75C4.19891 28.75 4.38968 28.671 4.53033 28.5303C4.67098 28.3897 4.75 28.1989 4.75 28V19.75H27.25V28C27.25 28.1989 27.329 28.3897 27.4697 28.5303C27.6103 28.671 27.8011 28.75 28 28.75C28.1989 28.75 28.3897 28.671 28.5303 28.5303C28.671 28.3897 28.75 28.1989 28.75 28V6C28.7492 5.2709 28.4592 4.57189 27.9437 4.05633C27.4281 3.54078 26.7291 3.25079 26 3.25ZM6 4.75H26C26.3314 4.75026 26.6492 4.88205 26.8836 5.11641C27.118 5.35077 27.2497 5.66856 27.25 6V9.25H4.75V6C4.75026 5.66856 4.88205 5.35077 5.11641 5.11641C5.35077 4.88205 5.66856 4.75026 6 4.75ZM4.75 10.75H15.25L15.263 18.25H4.75V10.75ZM16.763 18.25L16.751 10.75H27.25V18.25H16.763Z"/></svg>