<svg xmlns="http://www.w3.org/2000/svg" width="32" height="32" viewBox="0 0 32 32"><path d="M25 7H7C5.67441 7.00159 4.40356 7.52888 3.46622 8.46622C2.52888 9.40356 2.00159 10.6744 2 12V24C2.00159 25.3256 2.52888 26.5964 3.46622 27.5338C4.40356 28.4711 5.67441 28.9984 7 29H25C26.3256 28.9984 27.5964 28.4711 28.5338 27.5338C29.4711 26.5964 29.9984 25.3256 30 24V12C29.9984 10.6744 29.4711 9.40356 28.5338 8.46622C27.5964 7.52888 26.3256 7.00159 25 7ZM7 9H25C25.7954 9.00079 26.558 9.31712 27.1204 9.87956C27.6829 10.442 27.9992 11.2046 28 12V21H4V12C4.00079 11.2046 4.31712 10.442 4.87956 9.87956C5.44199 9.31712 6.20459 9.00079 7 9ZM25 27H7C6.20459 26.9992 5.44199 26.6829 4.87956 26.1204C4.31712 25.558 4.00079 24.7954 4 24V23H28V24C27.9992 24.7954 27.6829 25.558 27.1204 26.1204C26.558 26.6829 25.7954 26.9992 25 27ZM15 5H17C17.2652 5 17.5196 4.89464 17.7071 4.70711C17.8946 4.51957 18 4.26522 18 4C18 3.73478 17.8946 3.48043 17.7071 3.29289C17.5196 3.10536 17.2652 3 17 3H15C14.7348 3 14.4804 3.10536 14.2929 3.29289C14.1054 3.48043 14 3.73478 14 4C14 4.26522 14.1054 4.51957 14.2929 4.70711C14.4804 4.89464 14.7348 5 15 5Z"/></svg>