<svg width="32" height="32" viewBox="0 0 32 32" fill="none" xmlns="http://www.w3.org/2000/svg">
<path d="M25.9996 3.0002H5.99963C5.20425 3.00107 4.44169 3.31742 3.87927 3.87984C3.31685 4.44226 3.0005 5.20482 2.99963 6.0002V28.0002C2.99963 28.2654 3.10499 28.5198 3.29253 28.7073C3.48006 28.8948 3.73442 29.0002 3.99963 29.0002C4.26485 29.0002 4.5192 28.8948 4.70674 28.7073C4.89428 28.5198 4.99963 28.2654 4.99963 28.0002V20.0002H26.9996V28.0002C26.9996 28.2654 27.105 28.5198 27.2925 28.7073C27.4801 28.8948 27.7344 29.0002 27.9996 29.0002C28.2649 29.0002 28.5192 28.8948 28.7067 28.7073C28.8943 28.5198 28.9996 28.2654 28.9996 28.0002V6.0002C28.9988 5.20482 28.6824 4.44226 28.12 3.87984C27.5576 3.31742 26.795 3.00107 25.9996 3.0002ZM5.99963 5.0002H25.9996C26.2648 5.00046 26.519 5.1059 26.7064 5.29338C26.8939 5.48086 26.9994 5.73506 26.9996 6.0002V9.0172C26.9706 9.01464 26.9454 9.0002 26.9156 9.0002H4.99963V6.0002C4.9999 5.73506 5.10534 5.48086 5.29282 5.29338C5.4803 5.1059 5.7345 5.00046 5.99963 5.0002ZM4.99963 18.0002V11.0002H26.9156C26.9454 11.0002 26.9706 10.9858 26.9996 10.9832V18.0002H4.99963Z" fill="black"/>
<path d="M9.99963 8.0002H11.9996C12.2649 8.0002 12.5192 7.89484 12.7067 7.7073C12.8943 7.51977 12.9996 7.26541 12.9996 7.0002C12.9996 6.73498 12.8943 6.48063 12.7067 6.29309C12.5192 6.10556 12.2649 6.0002 11.9996 6.0002H9.99963C9.73442 6.0002 9.48006 6.10556 9.29253 6.29309C9.10499 6.48063 8.99963 6.73498 8.99963 7.0002C8.99963 7.26541 9.10499 7.51977 9.29253 7.7073C9.48006 7.89484 9.73442 8.0002 9.99963 8.0002Z" fill="black"/>
<path d="M19.9996 8.0002H21.9996C22.2649 8.0002 22.5192 7.89484 22.7067 7.7073C22.8943 7.51977 22.9996 7.26541 22.9996 7.0002C22.9996 6.73498 22.8943 6.48063 22.7067 6.29309C22.5192 6.10556 22.2649 6.0002 21.9996 6.0002H19.9996C19.7344 6.0002 19.4801 6.10556 19.2925 6.29309C19.105 6.48063 18.9996 6.73498 18.9996 7.0002C18.9996 7.26541 19.105 7.51977 19.2925 7.7073C19.4801 7.89484 19.7344 8.0002 19.9996 8.0002Z" fill="black"/>
</svg>
