<svg width="32" height="32" viewBox="0 0 32 32" fill="none" xmlns="http://www.w3.org/2000/svg">
<path d="M28.9998 18.2807C28.8009 18.2807 28.6102 18.3597 28.4695 18.5004C28.3289 18.641 28.2499 18.8318 28.2498 19.0307V21.2504H3.74982V11.9999C3.75081 11.1383 4.09354 10.3122 4.70282 9.70291C5.3121 9.09363 6.13817 8.7509 6.99982 8.7499H12.9998C13.1987 8.7499 13.3895 8.67088 13.5301 8.53023C13.6708 8.38958 13.7498 8.19881 13.7498 7.9999C13.7498 7.80099 13.6708 7.61022 13.5301 7.46957C13.3895 7.32892 13.1987 7.2499 12.9998 7.2499H6.99982C5.74048 7.25133 4.53313 7.75223 3.64264 8.64272C2.75215 9.53321 2.25125 10.7406 2.24982 11.9999V24.0004C2.25125 25.2597 2.75215 26.4671 3.64264 27.3576C4.53313 28.2481 5.74048 28.749 6.99982 28.7504H24.9998C26.2592 28.749 27.4665 28.2481 28.357 27.3576C29.2475 26.4671 29.7484 25.2597 29.7498 24.0004V19.0307C29.7498 18.8318 29.6707 18.641 29.5301 18.5004C29.3895 18.3597 29.1987 18.2807 28.9998 18.2807ZM24.9998 27.2504H6.99982C6.13817 27.2494 5.3121 26.9067 4.70282 26.2974C4.09354 25.6881 3.75081 24.862 3.74982 24.0004V22.7504H28.2498V24.0004C28.2488 24.862 27.9061 25.6881 27.2968 26.2974C26.6875 26.9067 25.8615 27.2494 24.9998 27.2504Z" fill="black"/>
<path d="M13.9998 4.7499H15.9998C16.1987 4.7499 16.3895 4.67088 16.5301 4.53023C16.6708 4.38958 16.7498 4.19881 16.7498 3.9999C16.7498 3.80099 16.6708 3.61022 16.5301 3.46957C16.3895 3.32892 16.1987 3.2499 15.9998 3.2499H13.9998C13.8009 3.2499 13.6101 3.32892 13.4695 3.46957C13.3288 3.61022 13.2498 3.80099 13.2498 3.9999C13.2498 4.19881 13.3288 4.38958 13.4695 4.53023C13.6101 4.67088 13.8009 4.7499 13.9998 4.7499Z" fill="black"/>
<path d="M23.0145 17.7475C24.3495 17.7475 25.6545 17.3516 26.7646 16.6099C27.8746 15.8682 28.7398 14.814 29.2507 13.5806C29.7615 12.3472 29.8952 10.99 29.6348 9.6806C29.3743 8.37123 28.7314 7.16849 27.7874 6.22449C26.8434 5.28049 25.6407 4.63761 24.3313 4.37716C23.022 4.11671 21.6648 4.25038 20.4314 4.76127C19.198 5.27217 18.1437 6.13733 17.402 7.24736C16.6603 8.35739 16.2645 9.66244 16.2645 10.9975C16.2665 12.787 16.9783 14.5028 18.2437 15.7682C19.5092 17.0336 21.2249 17.7454 23.0145 17.7475ZM23.0145 16.2475C21.7558 16.2438 20.5404 15.7874 19.5904 14.9616C18.6405 14.1359 18.0194 12.9958 17.8406 11.7499H28.1884C28.0096 12.9958 27.3885 14.1359 26.4385 14.9616C25.4885 15.7874 24.2732 16.2438 23.0145 16.2475ZM23.0145 5.74746C24.274 5.75109 25.4901 6.20811 26.4403 7.0349C27.3905 7.86169 28.0112 9.00296 28.1888 10.2499H17.8401C18.0178 9.00296 18.6385 7.86169 19.5887 7.0349C20.5388 6.20811 21.7549 5.75109 23.0145 5.74746Z" fill="black"/>
</svg>
