<svg xmlns="http://www.w3.org/2000/svg" width="32" height="32" viewBox="0 0 32 32"><path d="M25 7.25H7C5.74063 7.25132 4.53322 7.75219 3.6427 8.6427C2.75219 9.53322 2.25132 10.7406 2.25 12V24C2.25159 25.2593 2.75254 26.4666 3.643 27.357C4.53345 28.2475 5.74071 28.7484 7 28.75H25C26.2594 28.7487 27.4668 28.2478 28.3573 27.3573C29.2478 26.4668 29.7487 25.2594 29.75 24V12C29.7484 10.7407 29.2475 9.53345 28.357 8.643C27.4666 7.75254 26.2593 7.25159 25 7.25ZM7 8.75H25C25.8616 8.75106 26.6877 9.09381 27.2969 9.70307C27.9062 10.3123 28.2489 11.1384 28.25 12V21.25H3.75V12C3.75106 11.1384 4.09381 10.3123 4.70307 9.70307C5.31234 9.09381 6.13837 8.75106 7 8.75ZM25 27.25H7C6.13837 27.2489 5.31234 26.9062 4.70307 26.2969C4.09381 25.6877 3.75106 24.8616 3.75 24V22.75H28.25V24C28.2489 24.8616 27.9062 25.6877 27.2969 26.2969C26.6877 26.9062 25.8616 27.2489 25 27.25ZM15 4.75H17C17.1989 4.75 17.3897 4.67098 17.5303 4.53033C17.671 4.38968 17.75 4.19891 17.75 4C17.75 3.80109 17.671 3.61032 17.5303 3.46967C17.3897 3.32902 17.1989 3.25 17 3.25H15C14.8011 3.25 14.6103 3.32902 14.4697 3.46967C14.329 3.61032 14.25 3.80109 14.25 4C14.25 4.19891 14.329 4.38968 14.4697 4.53033C14.6103 4.67098 14.8011 4.75 15 4.75Z"/></svg>