<svg width="32" height="32" viewBox="0 0 32 32" fill="none" xmlns="http://www.w3.org/2000/svg">
<path d="M24.9996 3.2499H6.99963C5.74029 3.25133 4.53294 3.75223 3.64246 4.64272C2.75197 5.53321 2.25106 6.74056 2.24963 7.9999V20.0004C2.25106 21.2597 2.75197 22.4671 3.64246 23.3576C4.53294 24.2481 5.74029 24.749 6.99963 24.7504H15.2496V27.2504H12.9996C12.8007 27.2504 12.61 27.3294 12.4693 27.4701C12.3287 27.6107 12.2496 27.8015 12.2496 28.0004C12.2496 28.1993 12.3287 28.3901 12.4693 28.5307C12.61 28.6714 12.8007 28.7504 12.9996 28.7504H18.9996C19.1985 28.7504 19.3893 28.6714 19.53 28.5307C19.6706 28.3901 19.7496 28.1993 19.7496 28.0004C19.7496 27.8015 19.6706 27.6107 19.53 27.4701C19.3893 27.3294 19.1985 27.2504 18.9996 27.2504H16.7496V24.7504H24.9996C26.259 24.749 27.4663 24.2481 28.3568 23.3576C29.2473 22.4671 29.7482 21.2597 29.7496 20.0004V7.9999C29.7482 6.74056 29.2473 5.53321 28.3568 4.64272C27.4663 3.75223 26.259 3.25133 24.9996 3.2499ZM6.99963 4.7499H24.9996C25.8613 4.7509 26.6873 5.09363 27.2966 5.70291C27.9059 6.31218 28.2486 7.13825 28.2496 7.9999V17.2504H3.74963V7.9999C3.75063 7.13825 4.09336 6.31218 4.70264 5.70291C5.31192 5.09363 6.13799 4.7509 6.99963 4.7499ZM24.9996 23.2504H6.99963C6.13799 23.2494 5.31192 22.9067 4.70264 22.2974C4.09336 21.6881 3.75063 20.862 3.74963 20.0004V18.7504H28.2496V20.0004C28.2486 20.862 27.9059 21.6881 27.2966 22.2974C26.6873 22.9067 25.8613 23.2494 24.9996 23.2504Z" fill="black"/>
<path d="M14.9996 8.7499H16.9996C17.1985 8.7499 17.3893 8.67088 17.53 8.53023C17.6706 8.38958 17.7496 8.19881 17.7496 7.9999C17.7496 7.80099 17.6706 7.61022 17.53 7.46957C17.3893 7.32892 17.1985 7.2499 16.9996 7.2499H14.9996C14.8007 7.2499 14.61 7.32892 14.4693 7.46957C14.3287 7.61022 14.2496 7.80099 14.2496 7.9999C14.2496 8.19881 14.3287 8.38958 14.4693 8.53023C14.61 8.67088 14.8007 8.7499 14.9996 8.7499Z" fill="black"/>
</svg>
