<svg width="32" height="32" viewBox="0 0 32 32" fill="none" xmlns="http://www.w3.org/2000/svg">
<path d="M25 5.2502H7C5.74066 5.25163 4.53331 5.75253 3.64282 6.64302C2.75233 7.53351 2.25143 8.74086 2.25 10.0002V22.0002C2.25143 23.2595 2.75233 24.4669 3.64282 25.3574C4.53331 26.2479 5.74066 26.7488 7 26.7502H25C26.2593 26.7488 27.4667 26.2479 28.3572 25.3574C29.2477 24.4669 29.7486 23.2595 29.75 22.0002V10.0002C29.7486 8.74086 29.2477 7.53351 28.3572 6.64302C27.4667 5.75253 26.2593 5.25163 25 5.2502ZM28.25 22.0002C28.249 22.8618 27.9063 23.6879 27.297 24.2972C26.6877 24.9065 25.8616 25.2492 25 25.2502H7C6.13835 25.2492 5.31228 24.9065 4.703 24.2972C4.09373 23.6879 3.751 22.8618 3.75 22.0002V10.0002C3.751 9.13855 4.09372 8.31248 4.703 7.7032C5.31228 7.09392 6.13835 6.75119 7 6.7502H25C25.8616 6.75119 26.6877 7.09392 27.297 7.7032C27.9063 8.31248 28.249 9.13855 28.25 10.0002V22.0002Z" fill="black"/>
<path d="M17 8.2502H15C14.8011 8.2502 14.6103 8.32922 14.4697 8.46987C14.329 8.61052 14.25 8.80129 14.25 9.0002C14.25 9.19911 14.329 9.38988 14.4697 9.53053C14.6103 9.67118 14.8011 9.7502 15 9.7502H17C17.1989 9.7502 17.3897 9.67118 17.5303 9.53053C17.671 9.38988 17.75 9.19911 17.75 9.0002C17.75 8.80129 17.671 8.61052 17.5303 8.46987C17.3897 8.32922 17.1989 8.2502 17 8.2502Z" fill="black"/>
</svg>
