<svg xmlns="http://www.w3.org/2000/svg" width="32" height="32" viewBox="0 0 32 32"><path d="M26 3.5H6C5.3372 3.50079 4.70178 3.76444 4.23311 4.23311C3.76444 4.70178 3.50079 5.3372 3.5 6V28C3.5 28.1326 3.55268 28.2598 3.64645 28.3536C3.74021 28.4473 3.86739 28.5 4 28.5C4.13261 28.5 4.25979 28.4473 4.35355 28.3536C4.44732 28.2598 4.5 28.1326 4.5 28V19.5H27.5V28C27.5 28.1326 27.5527 28.2598 27.6464 28.3536C27.7402 28.4473 27.8674 28.5 28 28.5C28.1326 28.5 28.2598 28.4473 28.3536 28.3536C28.4473 28.2598 28.5 28.1326 28.5 28V6C28.4992 5.3372 28.2356 4.70178 27.7669 4.23311C27.2982 3.76444 26.6628 3.50079 26 3.5ZM6 4.5H26C26.3977 4.50053 26.7789 4.65873 27.0601 4.93992C27.3413 5.22111 27.4995 5.60234 27.5 6V9.5H4.5V6C4.50053 5.60234 4.65873 5.22111 4.93992 4.93992C5.22111 4.65873 5.60234 4.50053 6 4.5ZM4.5 18.5V10.5H27.5V18.5H4.5Z M10 7.5H12C12.1326 7.5 12.2598 7.44732 12.3536 7.35355C12.4473 7.25979 12.5 7.13261 12.5 7C12.5 6.86739 12.4473 6.74021 12.3536 6.64645C12.2598 6.55268 12.1326 6.5 12 6.5H10C9.86739 6.5 9.74021 6.55268 9.64645 6.64645C9.55268 6.74021 9.5 6.86739 9.5 7C9.5 7.13261 9.55268 7.25979 9.64645 7.35355C9.74021 7.44732 9.86739 7.5 10 7.5ZM20 7.5H22C22.1326 7.5 22.2598 7.44732 22.3536 7.35355C22.4473 7.25979 22.5 7.13261 22.5 7C22.5 6.86739 22.4473 6.74021 22.3536 6.64645C22.2598 6.55268 22.1326 6.5 22 6.5H20C19.8674 6.5 19.7402 6.55268 19.6464 6.64645C19.5527 6.74021 19.5 6.86739 19.5 7C19.5 7.13261 19.5527 7.25979 19.6464 7.35355C19.7402 7.44732 19.8674 7.5 20 7.5Z"/></svg>