<svg xmlns="http://www.w3.org/2000/svg" width="32" height="32" viewBox="0 0 32 32"><path d="M25 23.46C24.8011 23.46 24.6103 23.539 24.4697 23.6797C24.329 23.8203 24.25 24.0111 24.25 24.21V25C24.2489 25.8616 23.9062 26.6877 23.2969 27.2969C22.6877 27.9062 21.8616 28.2489 21 28.25H11C10.1384 28.2489 9.31234 27.9062 8.70307 27.2969C8.09381 26.6877 7.75106 25.8616 7.75 25V7C7.75106 6.13837 8.09381 5.31234 8.70307 4.70307C9.31234 4.09381 10.1384 3.75106 11 3.75H21C21.8616 3.75106 22.6877 4.09381 23.2969 4.70307C23.9062 5.31234 24.2489 6.13837 24.25 7V7.705C24.25 7.90391 24.329 8.09468 24.4697 8.23533C24.6103 8.37598 24.8011 8.455 25 8.455C25.1989 8.455 25.3897 8.37598 25.5303 8.23533C25.671 8.09468 25.75 7.90391 25.75 7.705V7C25.7487 5.74063 25.2478 4.53322 24.3573 3.6427C23.4668 2.75219 22.2594 2.25132 21 2.25H11C9.74063 2.25132 8.53322 2.75219 7.6427 3.6427C6.75219 4.53322 6.25132 5.74063 6.25 7V25C6.25159 26.2593 6.75254 27.4666 7.643 28.357C8.53345 29.2475 9.74071 29.7484 11 29.75H21C22.2593 29.7484 23.4666 29.2475 24.357 28.357C25.2475 27.4666 25.7484 26.2593 25.75 25V24.21C25.75 24.0111 25.671 23.8203 25.5303 23.6797C25.3897 23.539 25.1989 23.46 25 23.46Z M29.0002 15.2498H22.8102L25.5302 12.5298C25.6627 12.3877 25.7348 12.1996 25.7314 12.0053C25.728 11.811 25.6493 11.6256 25.5119 11.4882C25.3745 11.3508 25.1891 11.2721 24.9948 11.2687C24.8005 11.2652 24.6124 11.3374 24.4702 11.4698L20.4702 15.4698C20.4006 15.5394 20.3453 15.622 20.3076 15.713C20.2699 15.8039 20.2505 15.9014 20.2505 15.9998C20.2505 16.0983 20.2699 16.1958 20.3076 16.2867C20.3453 16.3777 20.4006 16.4603 20.4702 16.5298L24.4702 20.5298C24.5572 20.6177 24.6646 20.6827 24.7828 20.7189C24.901 20.7551 25.0263 20.7614 25.1476 20.7374C25.2688 20.7133 25.3822 20.6596 25.4776 20.5809C25.573 20.5023 25.6474 20.4013 25.6942 20.2868C25.751 20.1496 25.7657 19.9986 25.7365 19.8529C25.7073 19.7073 25.6355 19.5736 25.5302 19.4688L22.8102 16.7488H29.0002C29.1992 16.7488 29.3899 16.6698 29.5306 16.5292C29.6712 16.3885 29.7502 16.1978 29.7502 15.9988C29.7502 15.7999 29.6712 15.6092 29.5306 15.4685C29.3899 15.3279 29.1992 15.2488 29.0002 15.2488V15.2498Z"/></svg>