<svg width="32" height="32" viewBox="0 0 32 32" fill="none" xmlns="http://www.w3.org/2000/svg">
<path d="M24.9996 23.4605C24.8007 23.4606 24.61 23.5396 24.4694 23.6802C24.3287 23.8209 24.2497 24.0116 24.2496 24.2105V24.9996C24.2486 25.8612 23.9059 26.6873 23.2966 27.2966C22.6873 27.9059 21.8613 28.2486 20.9996 28.2496H11.0001C10.1385 28.2486 9.3124 27.9059 8.70312 27.2966C8.09385 26.6873 7.75112 25.8612 7.75012 24.9996V6.99958C7.75112 6.13793 8.09385 5.31186 8.70312 4.70258C9.3124 4.0933 10.1385 3.75058 11.0001 3.74958H20.9996C21.8613 3.75058 22.6873 4.09331 23.2966 4.70259C23.9059 5.31186 24.2486 6.13793 24.2496 6.99958V7.70466C24.2496 7.90357 24.3286 8.09434 24.4693 8.23499C24.61 8.37564 24.8007 8.45466 24.9996 8.45466C25.1985 8.45466 25.3893 8.37564 25.53 8.23499C25.6706 8.09434 25.7496 7.90357 25.7496 7.70466V6.99958C25.7482 5.74024 25.2473 4.53289 24.3568 3.6424C23.4663 2.75191 22.259 2.25101 20.9996 2.24958H11.0001C9.74078 2.25101 8.53343 2.75191 7.64294 3.6424C6.75246 4.53289 6.25155 5.74024 6.25012 6.99958V24.9996C6.25155 26.2589 6.75246 27.4663 7.64294 28.3568C8.53343 29.2472 9.74078 29.7482 11.0001 29.7496H20.9996C22.259 29.7482 23.4663 29.2472 24.3568 28.3568C25.2473 27.4663 25.7482 26.2589 25.7496 24.9996V24.2105C25.7496 24.0116 25.6705 23.8209 25.5299 23.6802C25.3893 23.5396 25.1985 23.4606 24.9996 23.4605Z" fill="black"/>
<path d="M29.0006 15.2496H22.8102L25.5299 12.5299C25.6701 12.3891 25.7487 12.1985 25.7485 11.9999C25.7483 11.8012 25.6693 11.6108 25.5289 11.4703C25.3884 11.3299 25.198 11.2509 24.9993 11.2507C24.8007 11.2505 24.6101 11.3291 24.4694 11.4693L20.4694 15.4693C20.3997 15.5389 20.3444 15.6216 20.3067 15.7126C20.269 15.8036 20.2496 15.9011 20.2496 15.9996C20.2496 16.0981 20.269 16.1956 20.3067 16.2866C20.3444 16.3776 20.3997 16.4602 20.4694 16.5299L24.4694 20.5299C24.5389 20.5997 24.6216 20.6552 24.7127 20.693C24.8037 20.7309 24.9013 20.7504 24.9999 20.7505C25.0985 20.7506 25.1962 20.7313 25.2873 20.6936C25.3784 20.6559 25.4612 20.6006 25.5309 20.5309C25.6007 20.4612 25.6559 20.3784 25.6936 20.2873C25.7313 20.1961 25.7507 20.0985 25.7506 19.9999C25.7505 19.9013 25.7309 19.8037 25.6931 19.7126C25.6552 19.6216 25.5998 19.5389 25.5299 19.4693L22.8102 16.7496H29.0006C29.1995 16.7496 29.3903 16.6706 29.5309 16.5299C29.6716 16.3893 29.7506 16.1985 29.7506 15.9996C29.7506 15.8007 29.6716 15.6099 29.5309 15.4693C29.3903 15.3286 29.1995 15.2496 29.0006 15.2496Z" fill="black"/>
</svg>
