<svg xmlns="http://www.w3.org/2000/svg" width="32" height="32" viewBox="0 0 32 32"><path d="M25 23.71C24.8675 23.7103 24.7404 23.763 24.6467 23.8567C24.553 23.9505 24.5003 24.0775 24.5 24.21V25C24.4989 25.9279 24.1299 26.8176 23.4737 27.4737C22.8176 28.1299 21.9279 28.4989 21 28.5H11C10.0721 28.4989 9.18244 28.1299 8.5263 27.4737C7.87015 26.8176 7.50106 25.9279 7.5 25V7C7.50106 6.07207 7.87015 5.18244 8.5263 4.5263C9.18244 3.87015 10.0721 3.50106 11 3.5H21C21.9279 3.50132 22.8173 3.8705 23.4734 4.52659C24.1295 5.18268 24.4987 6.07215 24.5 7V7.705C24.5 7.83761 24.5527 7.96479 24.6464 8.05855C24.7402 8.15232 24.8674 8.205 25 8.205C25.1326 8.205 25.2598 8.15232 25.3536 8.05855C25.4473 7.96479 25.5 7.83761 25.5 7.705V7C25.4987 5.80693 25.0241 4.66311 24.1805 3.81948C23.3369 2.97585 22.1931 2.50132 21 2.5H11C9.80693 2.50132 8.66311 2.97585 7.81948 3.81948C6.97585 4.66311 6.50132 5.80693 6.5 7V25C6.50132 26.1931 6.97585 27.3369 7.81948 28.1805C8.66311 29.0241 9.80693 29.4987 11 29.5H21C22.1931 29.4987 23.3369 29.0241 24.1805 28.1805C25.0241 27.3369 25.4987 26.1931 25.5 25V24.21C25.5004 24.1442 25.4877 24.079 25.4628 24.0182C25.4378 23.9573 25.4009 23.9021 25.3544 23.8556C25.3079 23.809 25.2527 23.7722 25.1918 23.7472C25.131 23.7223 25.0658 23.7096 25 23.71Z M28.9999 15.4998H22.2069L25.3529 12.3528C25.4007 12.3067 25.4388 12.2515 25.465 12.1905C25.4912 12.1295 25.505 12.0639 25.5055 11.9975C25.5061 11.9311 25.4935 11.8653 25.4683 11.8038C25.4432 11.7424 25.406 11.6866 25.3591 11.6396C25.3122 11.5927 25.2563 11.5555 25.1949 11.5304C25.1334 11.5053 25.0676 11.4926 25.0012 11.4932C24.9348 11.4938 24.8692 11.5076 24.8082 11.5338C24.7472 11.56 24.692 11.5981 24.6459 11.6458L20.6459 15.6458C20.5522 15.7396 20.4995 15.8667 20.4995 15.9993C20.4995 16.1319 20.5522 16.259 20.6459 16.3528L24.6459 20.3528C24.692 20.4006 24.7472 20.4387 24.8082 20.4649C24.8692 20.4911 24.9348 20.5049 25.0012 20.5054C25.0676 20.506 25.1334 20.4934 25.1949 20.4682C25.2563 20.4431 25.3122 20.406 25.3591 20.359C25.406 20.3121 25.4432 20.2562 25.4683 20.1948C25.4935 20.1333 25.5061 20.0675 25.5055 20.0011C25.505 19.9347 25.4912 19.8691 25.465 19.8081C25.4388 19.7471 25.4007 19.6919 25.3529 19.6458L22.2069 16.4998H28.9999C29.1325 16.4998 29.2597 16.4471 29.3535 16.3534C29.4472 16.2596 29.4999 16.1324 29.4999 15.9998C29.4999 15.8672 29.4472 15.74 29.3535 15.6463C29.2597 15.5525 29.1325 15.4998 28.9999 15.4998Z"/></svg>