<svg xmlns="http://www.w3.org/2000/svg" width="32" height="32" viewBox="0 0 32 32"><path d="M6.98996 14.4031L4.81796 16.5751C4.39998 16.9929 4.0684 17.4889 3.84217 18.0349C3.61595 18.5809 3.49951 19.1661 3.49951 19.7571C3.49951 20.3481 3.61595 20.9333 3.84217 21.4792C4.0684 22.0252 4.39998 22.5213 4.81796 22.9391L9.06096 27.1821C9.47883 27.5999 9.97491 27.9314 10.5209 28.1576C11.0668 28.3837 11.652 28.5001 12.243 28.5001C12.8339 28.5001 13.4191 28.3837 13.9651 28.1576C14.511 27.9314 15.0071 27.5999 15.425 27.1821L17.597 25.0101L6.98996 14.4031ZM27.182 9.06007L22.939 4.82007C22.0949 3.97639 20.9504 3.50244 19.757 3.50244C18.5636 3.50244 17.419 3.97639 16.575 4.82007L8.40496 12.9901L19.01 23.5961L27.181 15.4251C28.0234 14.5804 28.4965 13.4361 28.4965 12.2431C28.4965 11.0501 28.0234 9.90576 27.181 9.06107L27.182 9.06007Z"/></svg>