<svg width="32" height="32" viewBox="0 0 32 32" fill="none" xmlns="http://www.w3.org/2000/svg">
<path d="M6.99 14.4032L4.8182 16.5754C4.40038 16.9932 4.06894 17.4892 3.84282 18.0352C3.61669 18.5811 3.50031 19.1662 3.50031 19.7571C3.50031 20.3479 3.61669 20.933 3.84282 21.479C4.06894 22.0249 4.40038 22.5209 4.8182 22.9387L9.0609 27.1818C9.47869 27.5998 9.97473 27.9313 10.5207 28.1576C11.0667 28.3838 11.6518 28.5002 12.2428 28.5002C12.8338 28.5002 13.419 28.3838 13.9649 28.1576C14.5109 27.9313 15.0069 27.5998 15.4247 27.1818L17.5968 25.0098L6.99 14.4032Z" fill="black"/>
<path d="M27.182 9.06071L22.9393 4.81851C22.5214 4.40061 22.0253 4.06911 21.4794 3.84294C20.9334 3.61677 20.3482 3.50037 19.7572 3.50037C19.1662 3.50037 18.581 3.61677 18.035 3.84294C17.4891 4.06911 16.993 4.40061 16.5751 4.81851L8.4044 12.9892L19.0109 23.5957L27.182 15.425C28.0246 14.5803 28.4978 13.4359 28.4978 12.2429C28.4978 11.0498 28.0246 9.90539 27.182 9.06071Z" fill="black"/>
</svg>
