<svg width="32" height="32" viewBox="0 0 32 32" fill="none" xmlns="http://www.w3.org/2000/svg">
<path fill-rule="evenodd" clip-rule="evenodd" d="M22.3845 2.58563L29.4138 9.61493C29.7876 9.99082 29.9981 10.4989 29.9998 11.029V20.9714C29.9986 21.5017 29.7876 22.0101 29.4129 22.3854L22.3836 29.4147C22.0085 29.7884 21.5009 29.9987 20.9715 29.9997H11.0281C10.7657 30.0004 10.5059 29.949 10.2635 29.8486C10.0211 29.7482 9.80103 29.6007 9.61599 29.4147L2.58476 22.3835C2.21147 22.0082 2.00126 21.5008 1.99976 20.9714V11.028C1.99926 10.7662 2.0505 10.5068 2.15055 10.2648C2.2506 10.0228 2.39748 9.80295 2.58276 9.61789L9.61596 2.58469C9.80114 2.39889 10.0212 2.25155 10.2636 2.15115C10.5059 2.05075 10.7657 1.99928 11.0281 1.99969H20.9705C21.2332 1.99898 21.4935 2.0504 21.7362 2.15098C21.9789 2.25156 22.1993 2.39929 22.3845 2.58563ZM20.3839 11.0773C20.5052 11.1275 20.6154 11.2012 20.7082 11.2941C20.8011 11.3869 20.8748 11.4972 20.9251 11.6185C20.9753 11.7398 21.0012 11.8698 21.0012 12.0011C21.0012 12.1324 20.9753 12.2625 20.9251 12.3838C20.8748 12.5051 20.8011 12.6153 20.7082 12.7082L17.4152 16.0012L20.7082 19.2942C20.8014 19.387 20.8753 19.4972 20.9257 19.6186C20.9762 19.74 21.0022 19.8701 21.0023 20.0016C21.0024 20.133 20.9766 20.2632 20.9264 20.3847C20.8761 20.5061 20.8024 20.6165 20.7095 20.7095C20.6165 20.8024 20.5061 20.8761 20.3847 20.9264C20.2632 20.9766 20.133 21.0024 20.0016 21.0023C19.8701 21.0022 19.74 20.9762 19.6186 20.9257C19.4972 20.8753 19.387 20.8013 19.2942 20.7082L16.0012 17.4152L12.7082 20.7082C12.6154 20.8013 12.5051 20.8753 12.3837 20.9257C12.2624 20.9762 12.1322 21.0022 12.0008 21.0023C11.8693 21.0024 11.7391 20.9766 11.6177 20.9264C11.4962 20.8761 11.3858 20.8024 11.2929 20.7095C11.1999 20.6165 11.1262 20.5061 11.0759 20.3847C11.0257 20.2632 10.9999 20.133 11 20.0016C11.0001 19.8701 11.0261 19.74 11.0766 19.6186C11.1271 19.4972 11.201 19.387 11.2941 19.2942L14.5871 16.0012L11.2941 12.7082C11.201 12.6154 11.1271 12.5051 11.0766 12.3837C11.0261 12.2624 11.0001 12.1322 11 12.0008C10.9999 11.8693 11.0257 11.7391 11.0759 11.6177C11.1262 11.4962 11.1999 11.3858 11.2929 11.2929C11.3858 11.1999 11.4962 11.1262 11.6177 11.0759C11.7391 11.0257 11.8693 10.9999 12.0008 11C12.1322 11.0001 12.2624 11.0261 12.3837 11.0766C12.5051 11.1271 12.6154 11.201 12.7082 11.2941L16.0012 14.5871L19.2942 11.2941C19.387 11.2012 19.4972 11.1275 19.6185 11.0773C19.7399 11.027 19.8699 11.0011 20.0012 11.0011C20.1325 11.0011 20.2626 11.027 20.3839 11.0773Z" fill="black"/>
</svg>
