<svg xmlns="http://www.w3.org/2000/svg" width="32" height="32" viewBox="0 0 32 32"><path d="M29.414 9.61501L22.384 2.58501C22.1988 2.39895 21.9786 2.25146 21.7361 2.15104C21.4935 2.05063 21.2335 1.9993 20.971 2.00001H11.028C10.7657 1.99959 10.5059 2.05107 10.2636 2.15147C10.0212 2.25187 9.80116 2.39921 9.616 2.58501L2.583 9.61801C2.39776 9.80306 2.2509 10.0229 2.15085 10.2649C2.0508 10.5068 1.99954 10.7662 2 11.028V20.971C2.00121 21.5007 2.21144 22.0085 2.585 22.384L9.616 29.414C9.80094 29.6002 10.021 29.7478 10.2633 29.8484C10.5057 29.949 10.7656 30.0005 11.028 30H20.971C21.5008 29.9992 22.0087 29.7889 22.384 29.415L29.413 22.385C29.788 22.01 29.999 21.502 30 20.971V11.03C29.9984 10.4999 29.7878 9.99186 29.414 9.61601V9.61501ZM20.97 28H11.03L4 20.972L3.999 11.031L11.028 4.00001H20.97L28 11.029V20.969L20.972 28H20.97Z M20.7071 11.2931C20.5196 11.1056 20.2652 11.0003 20.0001 11.0003C19.7349 11.0003 19.4806 11.1056 19.2931 11.2931L16.0001 14.5861L12.7071 11.2931C12.6145 11.1995 12.5043 11.1251 12.3829 11.0743C12.2615 11.0235 12.1311 10.9973 11.9995 10.9971C11.8679 10.9969 11.7375 11.0228 11.6159 11.0732C11.4943 11.1237 11.3839 11.1978 11.2911 11.2911C11.1038 11.4792 10.9987 11.734 10.9991 11.9995C10.9995 12.265 11.1052 12.5195 11.2931 12.7071L14.5861 16.0001L11.2931 19.2931C11.1976 19.3854 11.1214 19.4957 11.069 19.6177C11.0166 19.7397 10.989 19.8709 10.9878 20.0037C10.9867 20.1365 11.012 20.2682 11.0623 20.3911C11.1125 20.514 11.1868 20.6256 11.2807 20.7195C11.3746 20.8134 11.4862 20.8877 11.6091 20.9379C11.732 20.9882 11.8637 21.0135 11.9965 21.0124C12.1293 21.0112 12.2605 20.9836 12.3825 20.9312C12.5045 20.8788 12.6148 20.8026 12.7071 20.7071L16.0001 17.4141L19.2931 20.7071C19.4095 20.8232 19.5528 20.9088 19.7101 20.9564C19.8675 21.004 20.0342 21.0122 20.1954 20.9801C20.3567 20.9481 20.5076 20.8769 20.6349 20.7728C20.7621 20.6687 20.8618 20.5349 20.9251 20.3831C21.0008 20.2003 21.0205 19.9991 20.9817 19.805C20.9429 19.6109 20.8473 19.4328 20.7071 19.2931L17.4141 16.0001L20.7071 12.7071C20.8946 12.5196 20.9999 12.2653 20.9999 12.0001C20.9999 11.7349 20.8946 11.4806 20.7071 11.2931Z"/></svg>