<svg width="32" height="32" viewBox="0 0 32 32" fill="none" xmlns="http://www.w3.org/2000/svg">
<path d="M27.0001 15.5004H16.5001V11.5004H17.9933C18.3909 11.5 18.7722 11.3418 19.0534 11.0606C19.3346 10.7794 19.4928 10.3981 19.4933 10.0004V6.0004C19.4928 5.60271 19.3346 5.22143 19.0534 4.94022C18.7722 4.65901 18.3909 4.50083 17.9933 4.5004H13.9933C13.5956 4.50083 13.2143 4.65901 12.9331 4.94022C12.6519 5.22143 12.4937 5.60271 12.4933 6.0004V10.0004C12.4937 10.3981 12.6519 10.7794 12.9331 11.0606C13.2143 11.3418 13.5956 11.5 13.9933 11.5004H15.5001V15.5004H5.00009C4.86748 15.5004 4.74031 15.5531 4.64654 15.6468C4.55277 15.7406 4.50009 15.8678 4.50009 16.0004C4.50009 16.133 4.55277 16.2602 4.64654 16.354C4.74031 16.4477 4.86748 16.5004 5.00009 16.5004H8.50009V20.5004H6.99325C6.59556 20.5008 6.21428 20.659 5.93307 20.9402C5.65186 21.2214 5.49369 21.6027 5.49325 22.0004V26.0004C5.49369 26.3981 5.65186 26.7794 5.93307 27.0606C6.21428 27.3418 6.59556 27.5 6.99325 27.5004H10.9933C11.3909 27.5 11.7722 27.3418 12.0534 27.0606C12.3346 26.7794 12.4928 26.3981 12.4933 26.0004V22.0004C12.4928 21.6027 12.3346 21.2214 12.0534 20.9402C11.7722 20.659 11.3909 20.5008 10.9933 20.5004H9.50009V16.5004H22.5001V20.5004H20.9933C20.5956 20.5008 20.2143 20.659 19.9331 20.9402C19.6519 21.2214 19.4937 21.6027 19.4933 22.0004V26.0004C19.4937 26.3981 19.6519 26.7794 19.9331 27.0606C20.2143 27.3418 20.5956 27.5 20.9933 27.5004H24.9933C25.3909 27.5 25.7722 27.3418 26.0534 27.0606C26.3346 26.7794 26.4928 26.3981 26.4933 26.0004V22.0004C26.4928 21.6027 26.3346 21.2214 26.0534 20.9402C25.7722 20.659 25.3909 20.5008 24.9933 20.5004H23.5001V16.5004H27.0001C27.1327 16.5004 27.2599 16.4477 27.3536 16.354C27.4474 16.2602 27.5001 16.133 27.5001 16.0004C27.5001 15.8678 27.4474 15.7406 27.3536 15.6468C27.2599 15.5531 27.1327 15.5004 27.0001 15.5004ZM13.4933 10.0004V6.0004C13.4935 5.86787 13.5463 5.74085 13.64 5.64714C13.7337 5.55343 13.8607 5.50066 13.9933 5.5004H17.9933C18.1258 5.50066 18.2528 5.55343 18.3465 5.64714C18.4402 5.74085 18.493 5.86787 18.4933 6.0004V10.0004C18.493 10.1329 18.4402 10.26 18.3465 10.3537C18.2528 10.4474 18.1258 10.5001 17.9933 10.5004H13.9933C13.8607 10.5001 13.7337 10.4474 13.64 10.3537C13.5463 10.26 13.4935 10.1329 13.4933 10.0004ZM11.4933 22.0004V26.0004C11.493 26.1329 11.4402 26.2599 11.3465 26.3537C11.2528 26.4474 11.1258 26.5001 10.9933 26.5004H6.99325C6.86072 26.5001 6.7337 26.4474 6.63999 26.3537C6.54628 26.2599 6.49352 26.1329 6.49325 26.0004V22.0004C6.49352 21.8679 6.54628 21.7408 6.63999 21.6471C6.7337 21.5534 6.86072 21.5007 6.99325 21.5004H10.9933C11.1258 21.5007 11.2528 21.5534 11.3465 21.6471C11.4402 21.7408 11.493 21.8679 11.4933 22.0004ZM25.4933 22.0004V26.0004C25.493 26.1329 25.4402 26.2599 25.3465 26.3537C25.2528 26.4474 25.1258 26.5001 24.9933 26.5004H20.9933C20.8607 26.5001 20.7337 26.4474 20.64 26.3537C20.5463 26.2599 20.4935 26.1329 20.4933 26.0004V22.0004C20.4935 21.8679 20.5463 21.7408 20.64 21.6471C20.7337 21.5534 20.8607 21.5007 20.9933 21.5004H24.9933C25.1258 21.5007 25.2528 21.5534 25.3465 21.6471C25.4402 21.7408 25.493 21.8679 25.4933 22.0004Z" fill="black"/>
</svg>
