<svg xmlns="http://www.w3.org/2000/svg" width="32" height="32" viewBox="0 0 32 32"><path d="M11 3.5C11 2.94772 10.5523 2.5 10 2.5C9.44772 2.5 9 2.94772 9 3.5V5.5C6.23858 5.5 4 7.73858 4 10.5V24.5C4 27.2614 6.23858 29.5 9 29.5H23C25.7614 29.5 28 27.2614 28 24.5V10.5C28 7.73858 25.7614 5.5 23 5.5V3.5C23 2.94772 22.5523 2.5 22 2.5C21.4477 2.5 21 2.94772 21 3.5V5.5H11V3.5ZM23 7.5C24.6569 7.5 26 8.84315 26 10.5V24.5C26 26.1569 24.6569 27.5 23 27.5H9C7.34315 27.5 6 26.1569 6 24.5V10.5C6 8.84315 7.34315 7.5 9 7.5H23ZM16.7469 14.6929L16.7517 14.7062C16.8519 14.9776 17.0305 15.2131 17.2647 15.3829C17.4993 15.5531 17.7787 15.6492 18.0671 15.6602L18.0861 15.6609H20.0827L18.4859 17.0312C18.2698 17.2081 18.1084 17.4435 18.0218 17.7102C17.9325 17.985 17.9266 18.28 18.005 18.5581L18.01 18.5759L18.697 20.7085L16.8199 19.4282L16.8117 19.4227C16.5713 19.2622 16.2888 19.1767 16 19.1767C15.7112 19.1767 15.4287 19.2621 15.1883 19.4226L13.304 20.7078L13.9777 18.6197L13.9826 18.6023C14.0651 18.3114 14.0592 18.0025 13.9658 17.7148C13.8751 17.4357 13.7061 17.1889 13.4792 17.0037L11.9161 15.6609H13.9431L13.9636 15.66C14.2518 15.6482 14.5301 15.5513 14.7635 15.3816C14.9965 15.212 15.1746 14.9771 15.2747 14.7061L15.2783 14.6962L16.0049 12.5934L16.7469 14.6929ZM15.9991 9.5C15.7007 9.5 15.4088 9.59126 15.1631 9.76257C14.9178 9.93356 14.7308 10.1757 14.6274 10.4565L14.624 10.4659L13.52 13.6609H10.4225L10.4021 13.6617C10.1039 13.6738 9.81656 13.777 9.57866 13.9573C9.34042 14.1378 9.16357 14.3869 9.07144 14.6706C8.97919 14.9547 8.97621 15.2601 9.06289 15.5459C9.14693 15.823 9.31139 16.0688 9.53529 16.2523L11.9662 18.3406L10.9057 21.6275L10.9003 21.6472C10.8203 21.9346 10.8303 22.2396 10.9288 22.5212C11.0273 22.8028 11.2096 23.0474 11.451 23.2222C11.6928 23.3973 11.9821 23.4939 12.2798 23.4997C12.5772 23.5056 12.8701 23.4206 13.1187 23.255L13.1279 23.2488L16 21.2899L18.8721 23.2488L18.8813 23.255C19.1299 23.4206 19.4228 23.5056 19.7202 23.4997C20.0179 23.4939 20.3072 23.3973 20.549 23.2222C20.7904 23.0474 20.9727 22.8028 21.0712 22.5212C21.1697 22.2396 21.1797 21.9346 21.0997 21.6472L21.0943 21.6277L20.0345 18.3377L22.4644 16.2525C22.6885 16.069 22.853 15.8231 22.9371 15.5459C23.0238 15.2601 23.0208 14.9547 22.9286 14.6706C22.8364 14.387 22.6596 14.1378 22.4213 13.9573C22.1834 13.777 21.896 13.6738 21.5979 13.6617L21.5775 13.6609H18.5034L17.3751 10.4687L17.3707 10.4565C17.2674 10.1757 17.0804 9.93356 16.8351 9.76257C16.5894 9.59125 16.2975 9.5 15.9991 9.5Z"/></svg>