<svg xmlns="http://www.w3.org/2000/svg" width="32" height="32" viewBox="0 0 32 32"><path d="M25 23.46C24.8011 23.46 24.6103 23.539 24.4697 23.6797C24.329 23.8203 24.25 24.0111 24.25 24.21V25C24.2489 25.8616 23.9062 26.6877 23.2969 27.2969C22.6877 27.9062 21.8616 28.2489 21 28.25H11C10.1384 28.2489 9.31234 27.9062 8.70307 27.2969C8.09381 26.6877 7.75106 25.8616 7.75 25V7C7.75106 6.13837 8.09381 5.31234 8.70307 4.70307C9.31234 4.09381 10.1384 3.75106 11 3.75H21C21.8616 3.75106 22.6877 4.09381 23.2969 4.70307C23.9062 5.31234 24.2489 6.13837 24.25 7V7.705C24.25 7.90391 24.329 8.09468 24.4697 8.23533C24.6103 8.37598 24.8011 8.455 25 8.455C25.1989 8.455 25.3897 8.37598 25.5303 8.23533C25.671 8.09468 25.75 7.90391 25.75 7.705V7C25.7487 5.74063 25.2478 4.53322 24.3573 3.6427C23.4668 2.75219 22.2594 2.25132 21 2.25H11C9.74063 2.25132 8.53322 2.75219 7.6427 3.6427C6.75219 4.53322 6.25132 5.74063 6.25 7V25C6.25159 26.2593 6.75254 27.4666 7.643 28.357C8.53345 29.2475 9.74071 29.7484 11 29.75H21C22.2593 29.7484 23.4666 29.2475 24.357 28.357C25.2475 27.4666 25.7484 26.2593 25.75 25V24.21C25.75 24.0111 25.671 23.8203 25.5303 23.6797C25.3897 23.539 25.1989 23.46 25 23.46Z M29.53 15.4698L25.53 11.4698C25.3878 11.3374 25.1998 11.2652 25.0055 11.2687C24.8112 11.2721 24.6258 11.3508 24.4884 11.4882C24.351 11.6256 24.2723 11.811 24.2688 12.0053C24.2654 12.1996 24.3375 12.3877 24.47 12.5298L27.19 15.2498H21C20.8011 15.2498 20.6103 15.3289 20.4697 15.4695C20.329 15.6102 20.25 15.8009 20.25 15.9998C20.25 16.1988 20.329 16.3895 20.4697 16.5302C20.6103 16.6708 20.8011 16.7498 21 16.7498H27.19L24.47 19.4698C24.33 19.6107 24.2515 19.8013 24.2515 19.9998C24.2515 20.1984 24.33 20.389 24.47 20.5298C24.6106 20.6703 24.8012 20.7492 25 20.7492C25.1988 20.7492 25.3894 20.6703 25.53 20.5298L29.53 16.5298C29.6702 16.3891 29.7489 16.1985 29.7489 15.9998C29.7489 15.8012 29.6702 15.6106 29.53 15.4698Z"/></svg>