<svg width="32" height="32" viewBox="0 0 32 32" fill="none" xmlns="http://www.w3.org/2000/svg">
<path d="M24.9996 23.4605C24.8007 23.4606 24.61 23.5396 24.4694 23.6802C24.3287 23.8209 24.2497 24.0116 24.2496 24.2105V24.9996C24.2486 25.8612 23.9059 26.6873 23.2966 27.2966C22.6874 27.9059 21.8613 28.2486 20.9996 28.2496H10.9996C10.138 28.2486 9.31191 27.9059 8.70264 27.2966C8.09336 26.6873 7.75063 25.8612 7.74963 24.9996V6.99958C7.75063 6.13793 8.09336 5.31186 8.70264 4.70258C9.31191 4.0933 10.138 3.75058 10.9996 3.74958H20.9996C21.8613 3.75058 22.6874 4.09331 23.2966 4.70259C23.9059 5.31186 24.2486 6.13793 24.2496 6.99958V7.70466C24.2496 7.90357 24.3287 8.09434 24.4693 8.23499C24.61 8.37564 24.8007 8.45466 24.9996 8.45466C25.1985 8.45466 25.3893 8.37564 25.53 8.23499C25.6706 8.09434 25.7496 7.90357 25.7496 7.70466V6.99958C25.7482 5.74024 25.2473 4.53289 24.3568 3.6424C23.4663 2.75191 22.259 2.25101 20.9996 2.24958H10.9996C9.74029 2.25101 8.53294 2.75191 7.64246 3.6424C6.75197 4.53289 6.25106 5.74024 6.24963 6.99958V24.9996C6.25106 26.2589 6.75197 27.4663 7.64246 28.3568C8.53294 29.2472 9.74029 29.7482 10.9996 29.7496H20.9996C22.259 29.7482 23.4663 29.2472 24.3568 28.3568C25.2473 27.4663 25.7482 26.2589 25.7496 24.9996V24.2105C25.7496 24.0116 25.6706 23.8209 25.5299 23.6802C25.3893 23.5396 25.1985 23.4606 24.9996 23.4605Z" fill="black"/>
<path d="M29.5309 15.4693L25.5309 11.4693C25.3902 11.3291 25.1996 11.2505 25.0009 11.2507C24.8023 11.2509 24.6118 11.3299 24.4714 11.4703C24.3309 11.6108 24.2519 11.8012 24.2517 11.9999C24.2515 12.1985 24.3302 12.3891 24.4703 12.5299L27.19 15.2496H20.9996C20.8007 15.2496 20.61 15.3286 20.4693 15.4693C20.3287 15.6099 20.2496 15.8007 20.2496 15.9996C20.2496 16.1985 20.3287 16.3893 20.4693 16.5299C20.61 16.6706 20.8007 16.7496 20.9996 16.7496H27.19L24.4703 19.4693C24.4005 19.5389 24.345 19.6216 24.3071 19.7126C24.2693 19.8037 24.2497 19.9013 24.2496 19.9999C24.2495 20.0985 24.2689 20.1961 24.3066 20.2873C24.3443 20.3784 24.3996 20.4612 24.4693 20.5309C24.539 20.6006 24.6218 20.6559 24.7129 20.6936C24.804 20.7313 24.9017 20.7506 25.0003 20.7505C25.0989 20.7504 25.1965 20.7309 25.2876 20.693C25.3786 20.6552 25.4613 20.5997 25.5309 20.5299L29.5309 16.5299C29.6005 16.4602 29.6558 16.3776 29.6935 16.2866C29.7312 16.1956 29.7506 16.0981 29.7506 15.9996C29.7506 15.9011 29.7312 15.8036 29.6935 15.7126C29.6558 15.6216 29.6005 15.5389 29.5309 15.4693Z" fill="black"/>
</svg>
