<svg xmlns="http://www.w3.org/2000/svg" width="32" height="32" viewBox="0 0 32 32"><path d="M25 23.71C24.8675 23.7103 24.7404 23.763 24.6467 23.8567C24.553 23.9505 24.5003 24.0775 24.5 24.21V25C24.4989 25.9279 24.1299 26.8176 23.4737 27.4737C22.8176 28.1299 21.9279 28.4989 21 28.5H11C10.0721 28.4989 9.18244 28.1299 8.5263 27.4737C7.87015 26.8176 7.50106 25.9279 7.5 25V7C7.50106 6.07207 7.87015 5.18244 8.5263 4.5263C9.18244 3.87015 10.0721 3.50106 11 3.5H21C21.9279 3.50132 22.8173 3.8705 23.4734 4.52659C24.1295 5.18268 24.4987 6.07215 24.5 7V7.705C24.5 7.83761 24.5527 7.96479 24.6464 8.05855C24.7402 8.15232 24.8674 8.205 25 8.205C25.1326 8.205 25.2598 8.15232 25.3536 8.05855C25.4473 7.96479 25.5 7.83761 25.5 7.705V7C25.4987 5.80693 25.0241 4.66311 24.1805 3.81948C23.3369 2.97585 22.1931 2.50132 21 2.5H11C9.80693 2.50132 8.66311 2.97585 7.81948 3.81948C6.97585 4.66311 6.50132 5.80693 6.5 7V25C6.50132 26.1931 6.97585 27.3369 7.81948 28.1805C8.66311 29.0241 9.80693 29.4987 11 29.5H21C22.1931 29.4987 23.3369 29.0241 24.1805 28.1805C25.0241 27.3369 25.4987 26.1931 25.5 25V24.21C25.5004 24.1442 25.4877 24.079 25.4628 24.0182C25.4378 23.9573 25.4009 23.9021 25.3544 23.8556C25.3079 23.809 25.2527 23.7722 25.1918 23.7472C25.131 23.7223 25.0658 23.7096 25 23.71Z M29.354 15.6462L25.354 11.6462C25.2597 11.5551 25.1334 11.5047 25.0023 11.5059C24.8712 11.507 24.7458 11.5596 24.6531 11.6523C24.5604 11.745 24.5078 11.8704 24.5067 12.0015C24.5055 12.1326 24.5559 12.2589 24.647 12.3532L27.794 15.5002H21C20.9343 15.5002 20.8693 15.5131 20.8087 15.5383C20.748 15.5634 20.6929 15.6002 20.6464 15.6467C20.6 15.6931 20.5632 15.7482 20.5381 15.8089C20.5129 15.8695 20.5 15.9346 20.5 16.0002C20.5 16.0659 20.5129 16.1309 20.5381 16.1916C20.5632 16.2522 20.6 16.3073 20.6464 16.3538C20.6929 16.4002 20.748 16.437 20.8087 16.4622C20.8693 16.4873 20.9343 16.5002 21 16.5002H27.794L24.647 19.6462C24.5992 19.6923 24.5612 19.7475 24.5349 19.8085C24.5087 19.8695 24.495 19.9351 24.4944 20.0015C24.4938 20.0679 24.5064 20.1337 24.5316 20.1952C24.5567 20.2566 24.5939 20.3125 24.6408 20.3594C24.6877 20.4064 24.7436 20.4435 24.805 20.4686C24.8665 20.4938 24.9323 20.5064 24.9987 20.5058C25.0651 20.5053 25.1307 20.4915 25.1917 20.4653C25.2527 20.4391 25.3079 20.401 25.354 20.3532L29.354 16.3532C29.4477 16.2595 29.5004 16.1323 29.5004 15.9997C29.5004 15.8671 29.4477 15.74 29.354 15.6462Z"/></svg>