<svg width="32" height="32" viewBox="0 0 32 32" fill="none" xmlns="http://www.w3.org/2000/svg">
<path d="M24.9996 23.7105C24.934 23.7105 24.8689 23.7234 24.8082 23.7485C24.7476 23.7736 24.6924 23.8104 24.646 23.8569C24.5996 23.9033 24.5627 23.9585 24.5376 24.0191C24.5125 24.0798 24.4996 24.1448 24.4996 24.2105V24.9996C24.4985 25.9275 24.1294 26.8171 23.4733 27.4732C22.8171 28.1293 21.9275 28.4985 20.9996 28.4996H10.9996C10.0717 28.4985 9.18213 28.1293 8.526 27.4732C7.86986 26.8171 7.50076 25.9275 7.49963 24.9996V6.99958C7.50076 6.07167 7.86986 5.18208 8.526 4.52595C9.18213 3.86981 10.0717 3.5007 10.9996 3.49958H20.9996C21.9275 3.5007 22.8171 3.86981 23.4733 4.52595C24.1294 5.18208 24.4985 6.07167 24.4996 6.99958V7.70466C24.4996 7.83727 24.5523 7.96445 24.6461 8.05821C24.7398 8.15198 24.867 8.20466 24.9996 8.20466C25.1322 8.20466 25.2594 8.15198 25.3532 8.05821C25.447 7.96445 25.4996 7.83727 25.4996 7.70466V6.99958C25.4983 5.80651 25.0238 4.66267 24.1802 3.81904C23.3365 2.97541 22.1927 2.50088 20.9996 2.49958H10.9996C9.80656 2.50088 8.66272 2.9754 7.81909 3.81903C6.97546 4.66267 6.50093 5.8065 6.49963 6.99958V24.9996C6.50094 26.1927 6.97546 27.3365 7.81909 28.1801C8.66272 29.0238 9.80656 29.4983 10.9996 29.4996H20.9996C22.1927 29.4983 23.3365 29.0237 24.1802 28.1801C25.0238 27.3365 25.4983 26.1927 25.4996 24.9996V24.2105C25.4997 24.1448 25.4868 24.0798 25.4616 24.0191C25.4365 23.9585 25.3997 23.9033 25.3533 23.8569C25.3068 23.8104 25.2517 23.7736 25.191 23.7485C25.1303 23.7234 25.0653 23.7105 24.9996 23.7105Z" fill="black"/>
<path d="M29.3541 15.6461L25.3541 11.6461C25.26 11.5539 25.1334 11.5025 25.0017 11.5032C24.8699 11.5039 24.7438 11.5565 24.6507 11.6496C24.5575 11.7428 24.5049 11.8689 24.5043 12.0006C24.5036 12.1323 24.5549 12.259 24.6471 12.3531L27.7936 15.4996H20.9996C20.867 15.4996 20.7398 15.5522 20.6461 15.646C20.5523 15.7398 20.4996 15.8669 20.4996 15.9995C20.4996 16.1322 20.5523 16.2593 20.6461 16.3531C20.7398 16.4469 20.867 16.4995 20.9996 16.4995H27.7936L24.6471 19.646C24.5999 19.6923 24.5623 19.7474 24.5366 19.8083C24.5108 19.8691 24.4974 19.9345 24.4971 20.0006C24.4967 20.0667 24.5095 20.1321 24.5346 20.1933C24.5598 20.2544 24.5968 20.3099 24.6435 20.3566C24.6902 20.4033 24.7458 20.4403 24.8069 20.4655C24.868 20.4906 24.9335 20.5034 24.9995 20.503C25.0656 20.5027 25.131 20.4893 25.1918 20.4635C25.2527 20.4378 25.3078 20.4002 25.3541 20.353L29.3541 16.353C29.4005 16.3066 29.4374 16.2515 29.4625 16.1909C29.4876 16.1302 29.5006 16.0652 29.5006 15.9996C29.5006 15.9339 29.4876 15.8689 29.4625 15.8082C29.4374 15.7476 29.4006 15.6925 29.3541 15.6461Z" fill="black"/>
</svg>
