<svg width="32" height="32" viewBox="0 0 32 32" fill="none" xmlns="http://www.w3.org/2000/svg">
<path d="M24.9996 23.2105C24.8683 23.2104 24.7382 23.2363 24.6169 23.2865C24.4955 23.3367 24.3852 23.4104 24.2924 23.5032C24.1995 23.5961 24.1258 23.7064 24.0756 23.8277C24.0254 23.9491 23.9996 24.0792 23.9996 24.2105V24.9996C23.9988 25.795 23.6824 26.5575 23.12 27.1199C22.5576 27.6824 21.795 27.9987 20.9996 27.9996H10.9996C10.2043 27.9987 9.44169 27.6824 8.87927 27.1199C8.31685 26.5575 8.0005 25.795 7.99963 24.9996V6.99958C8.0005 6.2042 8.31685 5.44164 8.87927 4.87922C9.44169 4.3168 10.2043 4.00045 10.9996 3.99958H20.9996C21.795 4.00045 22.5576 4.3168 23.12 4.87922C23.6824 5.44164 23.9988 6.2042 23.9996 6.99958V7.70466C23.9996 7.96988 24.105 8.22423 24.2925 8.41177C24.4801 8.5993 24.7344 8.70466 24.9996 8.70466C25.2649 8.70466 25.5192 8.5993 25.7067 8.41177C25.8943 8.22423 25.9996 7.96988 25.9996 7.70466V6.99958C25.9981 5.67398 25.4708 4.40311 24.5334 3.46577C23.5961 2.52842 22.3252 2.00114 20.9996 1.99958H10.9996C9.67403 2.00114 8.40316 2.52842 7.46582 3.46577C6.52847 4.40311 6.00119 5.67398 5.99963 6.99958V24.9996C6.00119 26.3252 6.52847 27.5961 7.46582 28.5334C8.40316 29.4707 9.67403 29.998 10.9996 29.9996H20.9996C22.3252 29.998 23.5961 29.4707 24.5334 28.5334C25.4708 27.596 25.9981 26.3252 25.9996 24.9996V24.2105C25.9997 24.0792 25.9739 23.9491 25.9237 23.8277C25.8734 23.7064 25.7998 23.5961 25.7069 23.5032C25.614 23.4104 25.5038 23.3367 25.3824 23.2865C25.261 23.2363 25.131 23.2104 24.9996 23.2105Z" fill="black"/>
<path d="M29.7076 15.2926L25.7076 11.2926C25.5201 11.105 25.2658 10.9997 25.0006 10.9997C24.7354 10.9997 24.4811 11.105 24.2936 11.2926C24.1061 11.4801 24.0007 11.7344 24.0007 11.9996C24.0007 12.2648 24.1061 12.5191 24.2936 12.7066L26.5866 14.9996H20.9996C20.7344 14.9996 20.4801 15.105 20.2925 15.2925C20.105 15.48 19.9996 15.7344 19.9996 15.9996C19.9996 16.2648 20.105 16.5192 20.2925 16.7067C20.4801 16.8943 20.7344 16.9996 20.9996 16.9996H26.5865L24.2935 19.2926C24.2007 19.3855 24.127 19.4957 24.0768 19.617C24.0265 19.7383 24.0007 19.8683 24.0007 19.9996C24.0007 20.1309 24.0265 20.261 24.0768 20.3823C24.127 20.5036 24.2007 20.6138 24.2935 20.7067C24.3864 20.7995 24.4966 20.8732 24.6179 20.9234C24.7392 20.9737 24.8693 20.9995 25.0006 20.9995C25.1319 20.9995 25.2619 20.9737 25.3832 20.9234C25.5045 20.8732 25.6148 20.7995 25.7076 20.7067L29.7076 16.7067C29.8005 16.6138 29.8742 16.5036 29.9245 16.3823C29.9747 16.261 30.0006 16.1309 30.0006 15.9996C30.0006 15.8683 29.9748 15.7383 29.9245 15.6169C29.8742 15.4956 29.8005 15.3854 29.7076 15.2926Z" fill="black"/>
</svg>
