<svg xmlns="http://www.w3.org/2000/svg" width="32" height="32" viewBox="0 0 32 32"><path d="M3 2C2.44772 2 2 2.44772 2 3V19C2 19.5523 2.44772 20 3 20H10C10.5523 20 11 19.5523 11 19V11H19C19.5523 11 20 10.5523 20 10V3C20 2.44772 19.5523 2 19 2H3ZM4 18V4H18V9H10C9.44772 9 9 9.44772 9 10V18H4ZM29 30C29.5523 30 30 29.5523 30 29L30 13C30 12.4477 29.5523 12 29 12L22 12C21.7348 12 21.4804 12.1054 21.2929 12.2929C21.1054 12.4804 21 12.7348 21 13V21H13C12.4477 21 12 21.4477 12 22L12 29C12 29.5523 12.4477 30 13 30L29 30ZM23 14L28 14L28 28L14 28L14 23H22C22.5523 23 23 22.5523 23 22V14Z"/></svg>