<svg xmlns="http://www.w3.org/2000/svg" width="32" height="32" viewBox="0 0 32 32"><path d="M16 2.25C13.2805 2.25 10.6221 3.05642 8.36092 4.56729C6.09974 6.07816 4.33737 8.22562 3.29666 10.7381C2.25596 13.2506 1.98366 16.0153 2.51421 18.6825C3.04476 21.3497 4.35432 23.7997 6.27729 25.7227C8.20026 27.6457 10.6503 28.9553 13.3175 29.4858C15.9848 30.0163 18.7494 29.744 21.2619 28.7033C23.7744 27.6626 25.9218 25.9003 27.4327 23.6391C28.9436 21.3779 29.75 18.7195 29.75 16C29.7458 12.3546 28.2958 8.85967 25.718 6.28196C23.1403 3.70425 19.6454 2.25423 16 2.25ZM16 28.25C13.5772 28.25 11.2088 27.5316 9.19427 26.1855C7.17977 24.8395 5.60966 22.9263 4.68248 20.6879C3.75531 18.4495 3.51272 15.9864 3.98539 13.6101C4.45806 11.2339 5.62476 9.05114 7.33795 7.33794C9.05114 5.62475 11.2339 4.45805 13.6102 3.98538C15.9864 3.51271 18.4495 3.7553 20.6879 4.68248C22.9263 5.60965 24.8395 7.17976 26.1855 9.19426C27.5316 11.2088 28.25 13.5772 28.25 16C28.2466 19.2478 26.9548 22.3617 24.6583 24.6583C22.3617 26.9548 19.2479 28.2466 16 28.25Z M20.7048 10.31L13.7048 13.31C13.5279 13.3861 13.3868 13.5271 13.3108 13.704L10.3108 20.704C10.2517 20.8418 10.2352 20.9942 10.2635 21.1415C10.2918 21.2887 10.3636 21.4241 10.4697 21.5302C10.5757 21.6362 10.7111 21.708 10.8584 21.7363C11.0056 21.7647 11.158 21.7482 11.2958 21.689L18.2958 18.689C18.4725 18.6132 18.6135 18.4726 18.6898 18.296L21.6898 11.296C21.7492 11.1582 21.766 11.0057 21.7378 10.8582C21.7096 10.7108 21.6378 10.5752 21.5317 10.469C21.4256 10.3628 21.2901 10.2908 21.1427 10.2625C20.9952 10.2342 20.8427 10.2507 20.7048 10.31ZM17.4288 17.429L12.4278 19.572L14.5708 14.572L19.5718 12.428L17.4288 17.428V17.429Z"/></svg>