<svg xmlns="http://www.w3.org/2000/svg" width="32" height="32" viewBox="0 0 32 32"><path d="M27.4999 21.503L18.0079 16.023L27.4999 10.543C27.7277 10.4094 27.8934 10.1912 27.9609 9.93592C28.0284 9.68062 27.9922 9.40899 27.8602 9.18031C27.7281 8.95162 27.511 8.78444 27.2561 8.71525C27.0013 8.64606 26.7294 8.68048 26.4999 8.811L16.9999 14.295V3C16.9999 2.73478 16.8945 2.48043 16.707 2.29289C16.5195 2.10536 16.2651 2 15.9999 2C15.7347 2 15.4803 2.10536 15.2928 2.29289C15.1052 2.48043 14.9999 2.73478 14.9999 3V14.286L5.49989 8.801C5.38609 8.73534 5.26049 8.69273 5.13023 8.67562C4.99997 8.6585 4.86762 8.66721 4.74073 8.70124C4.61384 8.73527 4.49489 8.79396 4.39069 8.87397C4.28648 8.95397 4.19905 9.05371 4.13339 9.1675C4.06772 9.28129 4.02512 9.4069 4.008 9.53716C3.99088 9.66741 3.99959 9.79976 4.03362 9.92665C4.10236 10.1829 4.27007 10.4014 4.49989 10.534L14.0069 16.023L4.49989 21.513C4.38524 21.5782 4.28462 21.6654 4.20382 21.7696C4.12302 21.8739 4.06363 21.993 4.02908 22.1203C3.99452 22.2476 3.98548 22.3804 4.00248 22.5112C4.01948 22.642 4.06218 22.7681 4.12812 22.8823C4.19406 22.9965 4.28194 23.0966 4.38671 23.1767C4.49147 23.2568 4.61104 23.3154 4.73854 23.3491C4.86604 23.3828 4.99895 23.391 5.12961 23.3731C5.26027 23.3552 5.38611 23.3117 5.49989 23.245L14.9999 17.76V29C14.9999 29.2652 15.1052 29.5196 15.2928 29.7071C15.4803 29.8946 15.7347 30 15.9999 30C16.2651 30 16.5195 29.8946 16.707 29.7071C16.8945 29.5196 16.9999 29.2652 16.9999 29V17.75L26.4999 23.235C26.7294 23.3655 27.0013 23.3999 27.2561 23.3307C27.511 23.2616 27.7281 23.0944 27.8602 22.8657C27.9922 22.637 28.0284 22.3654 27.9609 22.1101C27.8934 21.8548 27.7277 21.6366 27.4999 21.503Z"/></svg>