<svg xmlns="http://www.w3.org/2000/svg" width="32" height="32" viewBox="0 0 32 32"><path d="M27.3749 21.72L17.5079 16.023L27.3749 10.326C27.4621 10.2778 27.5389 10.2127 27.6006 10.1345C27.6623 10.0563 27.7078 9.96651 27.7343 9.87047C27.7609 9.77442 27.768 9.67404 27.7552 9.57522C27.7424 9.4764 27.71 9.38113 27.6599 9.295C27.6101 9.20885 27.5437 9.13346 27.4645 9.07324C27.3853 9.01301 27.2949 8.96915 27.1985 8.94421C27.1022 8.91927 27.0019 8.91374 26.9034 8.92795C26.8049 8.94217 26.7103 8.97584 26.6249 9.027L16.7499 14.728V3C16.7499 2.80109 16.6709 2.61032 16.5302 2.46967C16.3896 2.32902 16.1988 2.25 15.9999 2.25C15.801 2.25 15.6102 2.32902 15.4696 2.46967C15.3289 2.61032 15.2499 2.80109 15.2499 3V14.72L5.37491 9.018C5.28959 8.96798 5.19521 8.93533 5.09721 8.92193C4.99921 8.90853 4.89953 8.91464 4.8039 8.93993C4.70828 8.96521 4.6186 9.00915 4.54003 9.06924C4.46146 9.12932 4.39555 9.20435 4.34609 9.29C4.29663 9.37566 4.26461 9.47026 4.25186 9.56834C4.23911 9.66643 4.24589 9.76606 4.27181 9.86152C4.29772 9.95697 4.34226 10.0464 4.40286 10.1245C4.46346 10.2027 4.53893 10.2681 4.62491 10.317L14.5079 16.023L4.62491 21.729C4.53893 21.7779 4.46346 21.8433 4.40286 21.9215C4.34226 21.9996 4.29772 22.089 4.27181 22.1845C4.24589 22.2799 4.23911 22.3796 4.25186 22.4777C4.26461 22.5757 4.29663 22.6703 4.34609 22.756C4.39555 22.8417 4.46146 22.9167 4.54003 22.9768C4.6186 23.0368 4.70828 23.0808 4.8039 23.1061C4.89953 23.1314 4.99921 23.1375 5.09721 23.1241C5.19521 23.1107 5.28959 23.078 5.37491 23.028L15.2499 17.326V29C15.2499 29.1989 15.3289 29.3897 15.4696 29.5303C15.6102 29.671 15.801 29.75 15.9999 29.75C16.1988 29.75 16.3896 29.671 16.5302 29.5303C16.6709 29.3897 16.7499 29.1989 16.7499 29V17.317L26.6249 23.019C26.7971 23.1169 27.001 23.1427 27.1921 23.0908C27.3832 23.0389 27.5461 22.9135 27.6451 22.742C27.7441 22.5705 27.7713 22.3668 27.7207 22.1753C27.6701 21.9838 27.5458 21.8202 27.3749 21.72Z"/></svg>