<svg xmlns="http://www.w3.org/2000/svg" width="32" height="32" viewBox="0 0 32 32"><path d="M23 21.9419C22.9342 21.9415 22.869 21.9542 22.8082 21.9792C22.7474 22.0041 22.6921 22.041 22.6456 22.0875C22.5991 22.134 22.5622 22.1893 22.5373 22.2501C22.5123 22.3109 22.4996 22.3761 22.5 22.4419V23.7499C22.5 23.8825 22.5527 24.0097 22.6465 24.1035C22.7402 24.1972 22.8674 24.2499 23 24.2499C23.1326 24.2499 23.2598 24.1972 23.3536 24.1035C23.4473 24.0097 23.5 23.8825 23.5 23.7499V22.4419C23.5004 22.3761 23.4877 22.3109 23.4628 22.2501C23.4378 22.1893 23.401 22.134 23.3544 22.0875C23.3079 22.041 23.2527 22.0041 23.1918 21.9792C23.131 21.9542 23.0658 21.9415 23 21.9419ZM23 26.7499C23.1326 26.7499 23.2598 26.6972 23.3536 26.6035C23.4473 26.5097 23.5 26.3825 23.5 26.2499C23.5 26.1173 23.4473 25.9901 23.3536 25.8964C23.2598 25.8026 23.1326 25.7499 23 25.7499C22.8674 25.7499 22.7402 25.8026 22.6465 25.8964C22.5527 25.9901 22.5 26.1173 22.5 26.2499C22.5 26.3825 22.5527 26.5097 22.6465 26.6035C22.7402 26.6972 22.8674 26.7499 23 26.7499Z M29.3 27.254L24.315 18.252L24.309 18.242C24.1768 18.0144 23.987 17.8257 23.7587 17.6947C23.5304 17.5638 23.2716 17.4954 23.0084 17.4963C22.7452 17.4972 22.4869 17.5675 22.2595 17.6999C22.0321 17.8324 21.8436 18.0225 21.713 18.251L16.705 27.244C16.572 27.472 16.5015 27.731 16.5006 27.9949C16.4997 28.2589 16.5684 28.5183 16.6999 28.7472C16.8314 28.9761 17.0209 29.1662 17.2493 29.2984C17.4778 29.4305 17.7371 29.5001 18.001 29.5H28C28.263 29.5001 28.5213 29.4311 28.7492 29.2999C28.9771 29.1686 29.1665 28.9798 29.2984 28.7523C29.4303 28.5248 29.5 28.2666 29.5007 28.0036C29.5013 27.7407 29.4328 27.4822 29.302 27.254H29.3ZM28.433 28.249C28.3898 28.3259 28.3267 28.3897 28.2504 28.4337C28.174 28.4777 28.0871 28.5002 27.999 28.499H18.001C17.9129 28.5001 17.8261 28.4775 17.7497 28.4335C17.6734 28.3895 17.6102 28.3258 17.567 28.249C17.5219 28.1714 17.4987 28.083 17.4998 27.9932C17.5008 27.9034 17.5261 27.8156 17.573 27.739L22.581 18.746C22.6247 18.6707 22.6873 18.6082 22.7626 18.5645C22.8379 18.5209 22.9233 18.4977 23.0104 18.4973C23.0974 18.4969 23.183 18.5193 23.2587 18.5622C23.3345 18.6051 23.3976 18.6671 23.442 18.742L28.432 27.748C28.4767 27.8238 28.5002 27.9101 28.5002 27.998C28.5002 28.0859 28.4767 28.1723 28.432 28.248L28.433 28.249ZM14 14.5C15.6593 14.4956 17.2979 14.8683 18.792 15.59C18.9105 15.6413 19.0442 15.6448 19.1652 15.5998C19.2862 15.5548 19.385 15.4647 19.4411 15.3484C19.4972 15.2321 19.5061 15.0986 19.466 14.9759C19.4259 14.8532 19.3399 14.7508 19.226 14.69C18.4373 14.3114 17.6093 14.0207 16.757 13.823C17.9522 13.2049 18.9049 12.203 19.4623 10.9783C20.0196 9.75356 20.1492 8.37707 19.8301 7.06987C19.5111 5.76267 18.762 4.60062 17.7031 3.77034C16.6443 2.94007 15.3371 2.48975 13.9915 2.49171C12.6459 2.49366 11.3401 2.94779 10.2836 3.78114C9.22718 4.61449 8.48146 5.77872 8.16624 7.08684C7.85101 8.39497 7.98457 9.77108 8.54546 10.9942C9.10635 12.2173 10.062 13.2164 11.259 13.831C6.299 14.999 2.5 19.218 2.5 24.09C2.5 27.806 8.155 29.328 12.998 29.502H13.016C13.1486 29.5043 13.2767 29.4538 13.372 29.3616C13.4674 29.2694 13.5222 29.1431 13.5245 29.0105C13.5268 28.8779 13.4762 28.7498 13.3841 28.6545C13.2919 28.5591 13.1656 28.5043 13.033 28.502C8.442 28.339 3.5 26.887 3.5 24.09C3.5 18.892 8.31 14.5 14 14.5ZM9 8.50001C9 7.17393 9.52678 5.90216 10.4645 4.96448C11.4021 4.0268 12.6739 3.50001 14 3.50001C15.3261 3.50001 16.5979 4.0268 17.5355 4.96448C18.4732 5.90216 19 7.17393 19 8.50001C19 9.8261 18.4732 11.0979 17.5355 12.0355C16.5979 12.9732 15.3261 13.5 14 13.5C12.6739 13.5 11.4021 12.9732 10.4645 12.0355C9.52678 11.0979 9 9.8261 9 8.50001Z"/></svg>