<svg xmlns="http://www.w3.org/2000/svg" width="32" height="32" viewBox="0 0 32 32"><path d="M22.25 22.4419V23.7499C22.25 23.9488 22.329 24.1396 22.4697 24.2802C22.6103 24.4209 22.8011 24.4999 23 24.4999C23.1989 24.4999 23.3897 24.4209 23.5303 24.2802C23.671 24.1396 23.75 23.9488 23.75 23.7499V22.4419C23.75 22.243 23.671 22.0522 23.5303 21.9116C23.3897 21.7709 23.1989 21.6919 23 21.6919C22.8011 21.6919 22.6103 21.7709 22.4697 21.9116C22.329 22.0522 22.25 22.243 22.25 22.4419ZM23 26.9999C23.1989 26.9999 23.3897 26.9209 23.5303 26.7802C23.671 26.6396 23.75 26.4488 23.75 26.2499C23.75 26.051 23.671 25.8602 23.5303 25.7196C23.3897 25.5789 23.1989 25.4999 23 25.4999C22.8011 25.4999 22.6103 25.5789 22.4697 25.7196C22.329 25.8602 22.25 26.051 22.25 26.2499C22.25 26.4488 22.329 26.6396 22.4697 26.7802C22.6103 26.9209 22.8011 26.9999 23 26.9999Z M29.738 27.0109L24.752 18.0089L24.74 17.9889C24.5631 17.6856 24.3094 17.4342 24.0044 17.26C23.6994 17.0859 23.354 16.9952 23.0028 16.997C22.6516 16.9988 22.3071 17.0931 22.004 17.2704C21.7008 17.4477 21.4498 17.7017 21.276 18.0069L16.273 26.9919C16.0957 27.2958 16.0017 27.6411 16.0004 27.9929C15.9992 28.3447 16.0908 28.6906 16.2659 28.9957C16.4411 29.3009 16.6937 29.5544 16.9981 29.7307C17.3026 29.907 17.6482 29.9999 18 29.9999H28C28.3501 30.0002 28.6942 29.9086 28.9978 29.7342C29.3014 29.5598 29.554 29.3087 29.7301 29.0061C29.9063 28.7035 29.9999 28.36 30.0016 28.0099C30.0034 27.6597 29.9131 27.3153 29.74 27.0109H29.738ZM18.011 27.9819L23.011 18.9939L27.999 27.9999L18.011 27.9819ZM19.444 14.2389C18.9607 14.0095 18.463 13.8117 17.954 13.6469C19.0327 12.8203 19.8252 11.6764 20.22 10.3761C20.6149 9.07571 20.5922 7.68429 20.1552 6.39748C19.7182 5.11066 18.8889 3.99317 17.7839 3.20215C16.6788 2.41112 15.3536 1.98635 13.9947 1.98755C12.6357 1.98876 11.3112 2.41588 10.2076 3.20886C9.10396 4.00185 8.27663 5.1208 7.84193 6.40839C7.40723 7.69598 7.38703 9.08743 7.78418 10.3871C8.18132 11.6868 8.97584 12.8293 10.056 13.6539C5.422 15.2019 2 19.3499 2 24.0919C2 28.1639 7.915 29.8209 12.98 30.0019C13.2406 30.0044 13.4919 29.905 13.6803 29.725C13.8688 29.5449 13.9795 29.2984 13.9889 29.038C13.9982 28.7775 13.9056 28.5237 13.7306 28.3306C13.5556 28.1374 13.3121 28.0202 13.052 28.0039C7.807 27.8149 4 26.1699 4 24.0919C4 19.1619 8.58 14.9999 14 14.9999C15.584 14.9949 17.148 15.3499 18.574 16.0399C18.6923 16.0971 18.8206 16.1303 18.9517 16.1379C19.0828 16.1454 19.2141 16.127 19.3382 16.0838C19.4622 16.0405 19.5765 15.9733 19.6745 15.8859C19.7725 15.7985 19.8524 15.6927 19.9095 15.5744C19.9666 15.4562 19.9999 15.3278 20.0074 15.1967C20.0149 15.0656 19.9966 14.9343 19.9533 14.8103C19.9101 14.6863 19.8429 14.572 19.7555 14.4739C19.6681 14.3759 19.5623 14.2961 19.444 14.2389ZM9.5 8.49893C9.5 7.90798 9.6164 7.32282 9.84254 6.77686C10.0687 6.23089 10.4002 5.73482 10.818 5.31695C11.2359 4.89909 11.732 4.56762 12.2779 4.34147C12.8239 4.11533 13.4091 3.99893 14 3.99893C14.5909 3.99893 15.1761 4.11533 15.7221 4.34147C16.268 4.56762 16.7641 4.89909 17.182 5.31695C17.5998 5.73482 17.9313 6.23089 18.1575 6.77686C18.3836 7.32282 18.5 7.90798 18.5 8.49893C18.5 9.69241 18.0259 10.837 17.182 11.6809C16.3381 12.5248 15.1935 12.9989 14 12.9989C12.8065 12.9989 11.6619 12.5248 10.818 11.6809C9.97411 10.837 9.5 9.69241 9.5 8.49893Z"/></svg>