<svg xmlns="http://www.w3.org/2000/svg" width="32" height="32" viewBox="0 0 32 32"><path d="M17.8748 15.1249C17.8754 14.8024 17.7928 14.4852 17.6349 14.2039C17.4771 13.9227 17.2493 13.6869 16.9738 13.5194C16.6982 13.3518 16.384 13.2582 16.0617 13.2476C15.7393 13.237 15.4197 13.3097 15.1336 13.4586C14.8476 13.6076 14.6048 13.8279 14.4288 14.0981C14.2527 14.3683 14.1494 14.6794 14.1287 15.0013C14.108 15.3231 14.1707 15.6449 14.3107 15.9354C14.4506 16.226 14.6632 16.4755 14.9278 16.6599L14.1508 20.1069C14.0468 20.5169 14.2628 20.7499 14.5938 20.7499H17.4058C17.4805 20.7467 17.5536 20.7266 17.6194 20.6912C17.6853 20.6557 17.7422 20.6058 17.786 20.5452C17.8298 20.4845 17.8593 20.4148 17.8722 20.3411C17.8852 20.2675 17.8813 20.1918 17.8608 20.1199L17.0728 16.6599C17.3204 16.4877 17.5226 16.2581 17.6622 15.9908C17.8019 15.7236 17.8748 15.4265 17.8748 15.1249Z M24.0078 11.433C23.2895 9.9079 22.1589 8.61421 20.7437 7.69826C19.3285 6.7823 17.6852 6.28063 15.9998 6.25C13.7517 6.26656 11.5924 7.1296 9.95222 8.6671C8.31204 10.2046 7.31141 12.3037 7.14976 14.546C6.37923 14.6467 5.63786 14.9057 4.97223 15.3067C4.30661 15.7077 3.73112 16.2421 3.28193 16.8762C2.83274 17.5103 2.51955 18.2305 2.36206 18.9914C2.20457 19.7524 2.20617 20.5377 2.36676 21.298C2.65444 22.5747 3.37218 23.7138 4.39972 24.5243C5.42726 25.3348 6.70215 25.7676 8.01076 25.75H22.1798C24.0057 25.7736 25.7776 25.1303 27.163 23.9406C28.5484 22.7509 29.4522 21.0966 29.7048 19.288C29.8965 17.5057 29.4199 15.7156 28.3675 14.2645C27.315 12.8133 25.7615 11.8044 24.0078 11.433ZM28.2128 19.13C28.0025 20.5714 27.2737 21.8867 26.1631 22.8292C25.0525 23.7718 23.6362 24.2769 22.1798 24.25H8.00976C7.04663 24.2681 6.10651 23.9548 5.34671 23.3626C4.5869 22.7705 4.0535 21.9354 3.83576 20.997C3.70824 20.3918 3.71739 19.7659 3.86254 19.1647C4.00768 18.5635 4.28517 18.0023 4.67476 17.522C5.06072 17.0463 5.54804 16.6628 6.10114 16.3995C6.65425 16.1361 7.25918 15.9997 7.87176 16H8.62176V15.25C8.63173 13.285 9.40847 11.4014 10.7865 10.0006C12.1646 8.59971 14.0351 7.7922 15.9998 7.75C17.4606 7.78102 18.8809 8.23642 20.0875 9.06067C21.294 9.88491 22.2347 11.0424 22.7948 12.392L22.9568 12.778L23.3708 12.841C24.8327 13.0638 26.1522 13.8423 27.0543 15.0141C27.9563 16.1859 28.3713 17.6607 28.2128 19.131V19.13Z"/></svg>