<svg xmlns="http://www.w3.org/2000/svg" width="32" height="32" viewBox="0 0 32 32"><path d="M12.6849 6.69521C12.6172 6.57289 12.5179 6.47093 12.3975 6.39994C12.277 6.32895 12.1397 6.2915 11.9999 6.2915C11.8601 6.2915 11.7228 6.32895 11.6024 6.39994C11.4819 6.47093 11.3826 6.57289 11.3149 6.69521L3.31492 24.6952C3.23892 24.8761 3.2368 25.0795 3.30903 25.2619C3.38125 25.4443 3.52207 25.5911 3.70128 25.6709C3.88049 25.7507 4.08384 25.7571 4.26771 25.6888C4.45159 25.6204 4.60136 25.4827 4.68492 25.3052L7.15392 19.7502H16.8449L19.3149 25.3042C19.3996 25.4797 19.5493 25.6153 19.7322 25.6824C19.9151 25.7494 20.117 25.7427 20.295 25.6635C20.473 25.5844 20.6133 25.4391 20.6861 25.2583C20.7588 25.0776 20.7584 24.8756 20.6849 24.6952L12.6849 6.69521ZM7.81992 18.2502L11.9999 8.84621L16.1789 18.2502H7.81992ZM28.5299 13.4702C28.3893 13.3298 28.1987 13.2509 27.9999 13.2509C27.8012 13.2509 27.6105 13.3298 27.4699 13.4702L24.9999 15.9402L22.5299 13.4702C22.3877 13.3377 22.1997 13.2656 22.0054 13.269C21.8111 13.2725 21.6257 13.3512 21.4883 13.4886C21.3509 13.626 21.2722 13.8114 21.2687 14.0057C21.2653 14.2 21.3374 14.388 21.4699 14.5302L24.4699 17.5302C24.6105 17.6707 24.8012 17.7495 24.9999 17.7495C25.1987 17.7495 25.3893 17.6707 25.5299 17.5302L28.5299 14.5302C28.6704 14.3896 28.7493 14.199 28.7493 14.0002C28.7493 13.8015 28.6704 13.6108 28.5299 13.4702Z"/></svg>