<svg width="32" height="32" fill="none" xmlns="http://www.w3.org/2000/svg"><path d="M16 2.25a13.7363 13.7363 0 0112.8502 8.8463A13.736 13.736 0 0125.1424 26.25H29a.7497.7497 0 01.75.75.7497.7497 0 01-.75.75h-6a.7497.7497 0 01-.75-.75v-6a.7497.7497 0 01.75-.75.7497.7497 0 01.75.75v4.4727A12.2372 12.2372 0 1016 28.25a.7497.7497 0 01.75.75.7497.7497 0 01-.75.75A13.7502 13.7502 0 016.2773 6.2773 13.75 13.75 0 0116 2.25z" fill="#0F0F0F"/><path d="M16 7.25a.7499.7499 0 01.75.75v8a.7501.7501 0 01-.22.53l-5 5a.7505.7505 0 01-.5355.2386.75.75 0 01-.5245-1.2986l4.78-4.78V8a.7498.7498 0 01.75-.75z" fill="#0F0F0F"/></svg>