<svg xmlns="http://www.w3.org/2000/svg" width="32" height="32" viewBox="0 0 32 32"><path d="M16 2.5C18.7935 2.49701 21.5189 3.3616 23.7998 4.97431C26.0808 6.58703 27.8046 8.86827 28.7331 11.5029C29.6617 14.1375 29.7491 16.9955 28.9834 19.682C28.2177 22.3684 26.6366 24.7508 24.4586 26.5H29C29.1326 26.5 29.2598 26.5527 29.3536 26.6465C29.4473 26.7402 29.5 26.8674 29.5 27C29.5 27.1326 29.4473 27.2598 29.3536 27.3536C29.2598 27.4473 29.1326 27.5 29 27.5H23C22.8674 27.5 22.7402 27.4473 22.6464 27.3536C22.5527 27.2598 22.5 27.1326 22.5 27V21C22.5 20.8674 22.5527 20.7402 22.6464 20.6465C22.7402 20.5527 22.8674 20.5 23 20.5C23.1326 20.5 23.2598 20.5527 23.3536 20.6465C23.4473 20.7402 23.5 20.8674 23.5 21V25.97C25.8594 24.1827 27.5062 21.6145 28.146 18.7246C28.7857 15.8346 28.3767 12.8113 26.992 10.1953C25.6073 7.57918 23.3372 5.54092 20.5877 4.4449C17.8382 3.34888 14.7884 3.26656 11.9838 4.21266C9.17915 5.15876 6.80245 7.07159 5.27865 9.60915C3.75485 12.1467 3.18331 15.1435 3.66621 18.0638C4.14911 20.9841 5.65497 23.6374 7.91455 25.5493C10.1741 27.4612 13.0401 28.5071 16 28.5C16.1326 28.5 16.2598 28.5527 16.3536 28.6465C16.4473 28.7402 16.5 28.8674 16.5 29C16.5 29.1326 16.4473 29.2598 16.3536 29.3536C16.2598 29.4473 16.1326 29.5 16 29.5C12.4196 29.5 8.9858 28.0777 6.45406 25.5459C3.92232 23.0142 2.5 19.5804 2.5 16C2.5 12.4196 3.92232 8.9858 6.45406 6.45406C8.9858 3.92232 12.4196 2.5 16 2.5Z M16 7.5C16.1326 7.5 16.2598 7.55268 16.3536 7.64645C16.4473 7.74022 16.5 7.8674 16.5 8V16C16.5 16.0657 16.4871 16.1307 16.462 16.1913C16.4368 16.252 16.4 16.3071 16.3535 16.3535L11.3535 21.3535C11.2592 21.4446 11.1329 21.495 11.0018 21.4938C10.8707 21.4927 10.7453 21.4401 10.6526 21.3474C10.5599 21.2547 10.5073 21.1293 10.5062 20.9982C10.505 20.8671 10.5554 20.7408 10.6465 20.6465L15.5 15.7928V8C15.5 7.8674 15.5527 7.74022 15.6464 7.64645C15.7402 7.55268 15.8674 7.5 16 7.5Z"/></svg>