<svg xmlns="http://www.w3.org/2000/svg" width="32" height="32" viewBox="0 0 32 32"><path d="M23.9979 30C23.6021 29.9989 23.2155 29.8806 22.8869 29.66L15.9909 24.954L9.1209 29.654C8.78123 29.8829 8.37947 30.0021 7.96989 29.9955C7.5603 29.9888 7.16263 29.8566 6.83059 29.6167C6.49855 29.3768 6.24813 29.0408 6.11317 28.654C5.97821 28.2672 5.9652 27.8484 6.0759 27.454L8.5939 19.646C8.59315 19.6234 8.58738 19.6013 8.577 19.5812C8.56662 19.5611 8.5519 19.5436 8.53391 19.53L2.7299 14.543C2.41683 14.2854 2.18941 13.9388 2.07779 13.5491C1.96617 13.1594 1.97562 12.7449 2.10489 12.3607C2.23417 11.9765 2.47715 11.6406 2.80165 11.3976C3.12614 11.1546 3.51682 11.0159 3.9219 11L11.4619 10.999L14.1169 3.30898C14.2541 2.91957 14.5091 2.5825 14.8465 2.34454C15.1839 2.10658 15.587 1.97952 15.9999 1.98098C16.4093 1.97892 16.8094 2.1035 17.1452 2.33766C17.481 2.57183 17.7363 2.90411 17.8759 3.28898L20.6059 11.013L28.0379 11C28.4504 11.0072 28.8505 11.142 29.1834 11.3857C29.5162 11.6295 29.7654 11.9703 29.8968 12.3614C30.0282 12.7525 30.0353 13.1746 29.9171 13.5699C29.799 13.9652 29.5614 14.3142 29.2369 14.569L23.4219 19.563L25.9119 27.419C26.0011 27.7178 26.0195 28.0332 25.9655 28.3403C25.9115 28.6475 25.7866 28.9378 25.6009 29.1882C25.4151 29.4386 25.1735 29.6423 24.8952 29.783C24.617 29.9238 24.3097 29.9977 23.9979 29.999V30ZM15.9939 3.96798L13.3359 11.695C13.1994 12.066 12.9557 12.388 12.6357 12.6202C12.3157 12.8524 11.934 12.9842 11.5389 12.999H3.9619L9.8049 17.986C10.1289 18.2486 10.3684 18.6007 10.4936 18.9985C10.6188 19.3963 10.6241 19.8222 10.5089 20.223L7.9909 28.032L14.8809 23.302C15.2099 23.0792 15.5978 22.9597 15.9951 22.9588C16.3924 22.9579 16.781 23.0757 17.1109 23.297L24.0059 28.002L21.4759 20.167C21.3611 19.7826 21.364 19.3727 21.4843 18.99C21.6046 18.6074 21.8368 18.2695 22.1509 18.02L27.9659 13.025L20.5609 13C20.159 12.9914 19.7689 12.8622 19.4413 12.6291C19.1137 12.3961 18.8638 12.0699 18.7239 11.693L15.9939 3.96798Z"/></svg>