<svg width="32" height="32" viewBox="0 0 32 32" fill="none" xmlns="http://www.w3.org/2000/svg">
<path d="M23.9983 29.4987C23.7015 29.4981 23.4116 29.4094 23.1653 29.2438L16.2727 24.5407C16.1911 24.4867 16.0953 24.4582 15.9974 24.4587C15.8995 24.4592 15.804 24.4888 15.7229 24.5436L8.8401 29.2409C8.58531 29.4121 8.28415 29.5011 7.97723 29.4958C7.67031 29.4905 7.37239 29.3912 7.12365 29.2113C6.87491 29.0314 6.68731 28.7796 6.58614 28.4898C6.48498 28.2 6.47511 27.8861 6.55787 27.5905L9.07057 19.7995C9.10131 19.6791 9.09624 19.5523 9.056 19.4347C9.01576 19.3171 8.94209 19.2138 8.84401 19.1374L3.05592 14.1628C2.81922 13.9706 2.6467 13.7109 2.56135 13.4182C2.47599 13.1255 2.48187 12.8138 2.57818 12.5245C2.6745 12.2353 2.85668 11.9822 3.10045 11.7991C3.34422 11.616 3.638 11.5116 3.94264 11.4997H11.5003C11.595 11.4929 11.6858 11.4589 11.7617 11.4017C11.8376 11.3445 11.8953 11.2667 11.928 11.1774L14.5891 3.47235C14.6928 3.18148 14.8843 2.92998 15.1371 2.7526C15.3898 2.57522 15.6915 2.48071 16.0003 2.48212C16.3071 2.48022 16.608 2.57348 16.8597 2.74907C17.1114 2.92465 17.3024 3.17393 17.4065 3.46259L20.134 11.1804C20.1685 11.2718 20.2293 11.3509 20.3087 11.4077C20.3881 11.4646 20.4827 11.4966 20.5803 11.4997H28.0383C28.3465 11.5078 28.6446 11.6108 28.8922 11.7944C29.1398 11.9781 29.3247 12.2337 29.4219 12.5262C29.519 12.8188 29.5236 13.1342 29.435 13.4295C29.3465 13.7248 29.1691 13.9856 28.927 14.1764L23.097 19.1833C23.015 19.2442 22.9533 19.3284 22.9199 19.4249C22.8864 19.5214 22.8828 19.6257 22.9095 19.7243L25.4358 27.572C25.5016 27.7957 25.5144 28.0317 25.4732 28.2613C25.432 28.4908 25.338 28.7077 25.1985 28.8946C25.0591 29.0815 24.878 29.2334 24.6697 29.3383C24.4614 29.4431 24.2315 29.498 23.9983 29.4987ZM16.0012 23.4587C16.2975 23.4587 16.5871 23.5467 16.8332 23.7117L23.7248 28.4148C23.81 28.4702 23.91 28.4983 24.0116 28.4954C24.1131 28.4925 24.2114 28.4588 24.2933 28.3986C24.3752 28.3385 24.4368 28.2548 24.4699 28.1588C24.503 28.0628 24.5061 27.9589 24.4787 27.8611L21.9524 20.0134C21.8679 19.7262 21.8711 19.4202 21.9618 19.1348C22.0525 18.8494 22.2264 18.5977 22.4612 18.4118L28.2913 13.405C28.3775 13.3432 28.4416 13.2555 28.4745 13.1547C28.5073 13.0538 28.5071 12.9452 28.4739 12.8444C28.4438 12.7465 28.3837 12.6605 28.302 12.5986C28.2203 12.5368 28.1213 12.5022 28.0188 12.4997H20.5608C20.2611 12.492 19.9705 12.3946 19.7268 12.22C19.483 12.0453 19.2973 11.8016 19.1936 11.5202L16.4661 3.80243C16.4319 3.70691 16.3685 3.62458 16.2849 3.56709C16.2013 3.5096 16.1017 3.47988 16.0003 3.48212C15.8975 3.48027 15.7968 3.5109 15.7124 3.56964C15.6281 3.62838 15.5644 3.71224 15.5305 3.80927L12.8674 11.5212C12.7649 11.7994 12.5821 12.0409 12.3422 12.2151C12.1023 12.3893 11.8161 12.4883 11.5198 12.4997H3.96217C3.86271 12.505 3.76734 12.541 3.68917 12.6027C3.611 12.6645 3.55388 12.7489 3.52565 12.8444C3.49219 12.9414 3.49023 13.0466 3.52004 13.1448C3.54985 13.243 3.60991 13.3292 3.69165 13.3913L9.47974 18.3659C9.73042 18.5671 9.91614 18.8378 10.0136 19.144C10.1111 19.4503 10.1159 19.7786 10.0276 20.0876L7.51489 27.8786C7.48918 27.9748 7.49398 28.0767 7.52861 28.1701C7.56324 28.2635 7.62601 28.3439 7.70825 28.4001C7.79017 28.4623 7.88967 28.4969 7.99249 28.499C8.0953 28.5011 8.19614 28.4706 8.28052 28.4118L15.1624 23.7145C15.4105 23.548 15.7024 23.459 16.0012 23.4587Z" fill="black"/>
</svg>
