<svg width="32" height="32" viewBox="0 0 32 32" fill="none" xmlns="http://www.w3.org/2000/svg">
<path d="M28.33 8.5027C28.1631 7.59966 27.7879 6.748 27.2341 6.01542C26.6803 5.28284 25.9633 4.68955 25.14 4.2827C24.2556 3.82994 23.2797 3.58449 22.2864 3.56496C21.293 3.54543 20.3082 3.75234 19.4067 4.17C17.9173 4.86989 16.7144 6.06122 16 7.5437C15.2859 6.06138 14.0832 4.87007 12.5942 4.17C11.6925 3.75283 10.7078 3.54623 9.71444 3.56586C8.72113 3.58549 7.74529 3.83083 6.8608 4.2833C6.0375 4.69014 5.32047 5.28343 4.76669 6.01601C4.21292 6.74859 3.83768 7.60026 3.6708 8.5033C1.8398 18.4433 15.1445 28.0013 15.7118 28.4033C15.7964 28.463 15.8974 28.4951 16.0009 28.4951C16.1044 28.4951 16.2054 28.463 16.29 28.4033C16.8569 28.0007 30.1606 18.4431 28.33 8.5027ZM16 27.3738C14.059 25.9129 3.0815 17.2214 4.6547 8.6843C4.79257 7.93482 5.1035 7.22788 5.56274 6.61975C6.02199 6.01162 6.61686 5.5191 7.3 5.1814C8.09998 4.78176 8.98097 4.57095 9.8752 4.5652C10.6693 4.56587 11.4537 4.74054 12.1731 5.0769C12.994 5.46291 13.7193 6.02574 14.297 6.72505C14.8748 7.42437 15.2907 8.24284 15.5149 9.1218C15.5526 9.21991 15.6192 9.30428 15.7058 9.36379C15.7925 9.4233 15.8951 9.45516 16.0002 9.45516C16.1054 9.45516 16.208 9.4233 16.2947 9.36379C16.3813 9.30428 16.4479 9.21991 16.4856 9.1218C16.7098 8.24283 17.1257 7.42434 17.7034 6.72502C18.2812 6.0257 19.0065 5.46288 19.8274 5.0769C20.5944 4.72415 21.4314 4.55026 22.2754 4.56836C23.1194 4.58646 23.9483 4.79608 24.6994 5.1814C25.3826 5.51906 25.9775 6.01156 26.4368 6.61969C26.8961 7.22783 27.207 7.93479 27.3449 8.6843C28.9184 17.2214 17.9418 25.9129 16 27.3738Z" fill="black"/>
</svg>
