<svg width="32" height="32" viewBox="0 0 32 32" fill="none" xmlns="http://www.w3.org/2000/svg">
<path d="M28.329 8.50207C28.1622 7.59915 27.787 6.74759 27.2334 6.01503C26.6799 5.28248 25.9631 4.68911 25.14 4.28207C24.2551 3.82991 23.279 3.58486 22.2854 3.56546C21.2919 3.54606 20.3069 3.7528 19.405 4.17007C17.9163 4.87045 16.714 6.06183 16 7.54407C15.2861 6.06178 14.0838 4.87038 12.595 4.17007C11.6931 3.75296 10.7081 3.54638 9.7145 3.56596C8.72095 3.58553 7.74485 3.83075 6.86002 4.28307C6.03678 4.68999 5.31979 5.2833 4.76602 6.01587C4.21226 6.74843 3.83698 7.60006 3.67002 8.50307C1.84002 18.4421 15.144 28.0001 15.71 28.4021L16 28.6071L16.289 28.4021C16.856 28.0001 30.161 18.4421 28.329 8.50207V8.50207Z" fill="#0F0F0F"/>
</svg>
