<svg width="192" height="192" viewBox="0 0 192 192" fill="none" xmlns="http://www.w3.org/2000/svg">
<path d="M23.5602 37.0406V36.0396C23.5602 31.6352 27.1638 28.0315 31.5683 28.0315H127.666C132.07 28.0315 135.674 31.6352 135.674 36.0396V48.0518C135.674 61.0651 127.666 64.0681 123.662 60.064C119.658 56.06 121.66 50.0539 130.669 47.0508L144.083 42.5462C148.287 41.1448 152.792 43.4472 154.193 47.6514L181.12 128.534C182.522 132.738 180.219 137.242 176.015 138.644L83.1207 169.575C78.9164 170.977 74.4119 168.674 73.0104 164.47L67.5048 148.053M57.5948 54.0579H75.6131M135.674 66.0701V132.137C135.674 136.542 132.07 140.145 127.666 140.145H31.5683C27.1638 140.145 23.5602 136.542 23.5602 132.137V65.0691C23.5602 64.5686 23.1598 64.1682 22.6593 64.0681C17.454 63.5676 13.3498 59.1631 13.55 53.7576C13.7502 48.6525 17.8544 44.3481 23.0597 44.0478C26.363 43.8476 29.266 45.249 31.268 47.5513L38.7756 46.6504C40.4774 41.5452 43.7807 38.0417 47.6847 38.0417C53.1903 38.0417 57.6949 45.249 57.6949 54.0579C57.6949 62.8669 53.1903 70.0742 47.6847 70.0742C43.7807 70.0742 40.3773 66.1702 38.6755 61.0651L31.6684 60.064M71.8833 85.0687L60.6803 85.9111C57.8238 86.1259 56.6639 89.6956 58.8486 91.5484L67.4169 98.8149C68.3417 99.5992 68.7443 100.838 68.4572 102.017L65.7964 112.932C65.118 115.715 68.1546 117.921 70.5918 116.416L80.1504 110.512C81.1821 109.875 82.4851 109.875 83.5168 110.512L93.0755 116.416C95.5127 117.921 98.5492 115.715 97.8708 112.932L95.2101 102.017C94.9229 100.838 95.3256 99.5992 96.2503 98.8149L104.819 91.5484C107.003 89.6956 105.843 86.1259 102.987 85.9111L91.7839 85.0687C90.5747 84.9778 89.5206 84.2118 89.0604 83.09L84.7973 72.6956C83.7103 70.0452 79.9569 70.0452 78.8699 72.6956L74.6068 83.09C74.1467 84.2119 73.0925 84.9778 71.8833 85.0687Z" stroke="url(#paint0_linear_9593_12471)" stroke-width="2.5" stroke-linecap="round"/>
<defs>
<linearGradient id="paint0_linear_9593_12471" x1="97.5371" y1="28.0315" x2="97.5371" y2="169.986" gradientUnits="userSpaceOnUse">
<stop stop-color="#93C437"/>
<stop offset="1" stop-color="#279BE8"/>
</linearGradient>
</defs>
</svg>