<svg xmlns="http://www.w3.org/2000/svg" width="32" height="32" viewBox="0 0 32 32"><path d="M28.574 8.45797C28.4004 7.51653 28.0096 6.62858 27.4325 5.86474C26.8555 5.1009 26.1082 4.48224 25.25 4.05797C24.3318 3.58928 23.319 3.33538 22.2883 3.31546C21.2575 3.29554 20.2357 3.51011 19.3 3.94297C17.9088 4.59627 16.7554 5.66644 16 7.00497C15.2446 5.66644 14.0912 4.59627 12.7 3.94297C11.7644 3.50996 10.7426 3.29531 9.71178 3.31524C8.68099 3.33516 7.66823 3.58913 6.75002 4.05797C5.89187 4.48224 5.14455 5.1009 4.56751 5.86474C3.99046 6.62858 3.5996 7.51653 3.42602 8.45797C1.56402 18.552 14.994 28.2 15.566 28.608C15.6929 28.6978 15.8445 28.7461 16 28.7461C16.1555 28.7461 16.3071 28.6978 16.434 28.608C17.006 28.201 30.434 18.552 28.574 8.45797ZM16 27.06C13.729 25.327 3.38902 16.927 4.90002 8.72997C5.03086 8.0188 5.3259 7.34799 5.76165 6.77093C6.1974 6.19387 6.76183 5.72648 7.41002 5.40597C8.17213 5.02033 9.01293 4.81569 9.86702 4.80797C10.628 4.81079 11.3791 4.97972 12.068 5.30297C12.8552 5.6735 13.5507 6.21347 14.1048 6.88424C14.6589 7.55501 15.0578 8.33999 15.273 9.18297C15.314 9.34469 15.4078 9.48812 15.5394 9.59057C15.6711 9.69303 15.8332 9.74866 16 9.74866C16.1669 9.74866 16.3289 9.69303 16.4606 9.59057C16.5923 9.48812 16.686 9.34469 16.727 9.18297C16.9422 8.33996 17.3411 7.55496 17.8952 6.88418C18.4492 6.2134 19.1448 5.67344 19.932 5.30297C20.6639 4.96018 21.4651 4.79112 22.2731 4.80899C23.0811 4.82685 23.874 5.03116 24.59 5.40597C25.238 5.72651 25.8023 6.19378 26.238 6.77063C26.6737 7.34749 26.9689 8.01804 27.1 8.72897C28.61 16.927 18.271 25.327 16 27.06Z"/></svg>