<svg width="32" height="32" viewBox="0 0 32 32" fill="none" xmlns="http://www.w3.org/2000/svg">
<path d="M28.9218 14.2027C29.1674 14.0101 29.3467 13.7458 29.4347 13.4465C29.5228 13.1473 29.515 12.828 29.4126 12.5334C29.3102 12.2387 29.1184 11.9833 28.8637 11.8029C28.6091 11.6223 28.3044 11.5258 27.9921 11.5267H20.5744C20.4769 11.5209 20.383 11.4879 20.3034 11.4314C20.2239 11.3749 20.1619 11.2972 20.1245 11.2071L17.4054 3.49852C17.3035 3.20636 17.113 2.95319 16.8603 2.77423C16.6077 2.59526 16.3055 2.4994 15.9958 2.5C15.6864 2.50087 15.3849 2.5973 15.1326 2.77606C14.8801 2.95483 14.6894 3.20718 14.5862 3.49852L11.9271 11.1972C11.8943 11.2863 11.8361 11.364 11.7597 11.4208C11.6834 11.4775 11.5922 11.5108 11.4972 11.5167H3.93955C3.63705 11.5256 3.34434 11.6257 3.0999 11.804C2.85546 11.9822 2.67072 12.2301 2.56997 12.5152C2.47479 12.8024 2.47077 13.1119 2.55845 13.4014C2.64613 13.691 2.82125 13.9464 3.05982 14.1327L8.83802 19.1254C8.93825 19.1994 9.01381 19.3018 9.05483 19.4195C9.09584 19.537 9.10042 19.6642 9.06795 19.7844L6.55873 27.5928C6.47612 27.8877 6.48598 28.2007 6.58698 28.4899C6.68799 28.779 6.8753 29.0303 7.12367 29.2098C7.37203 29.3893 7.66952 29.4885 7.97604 29.4939C8.28257 29.4994 8.58341 29.4109 8.83802 29.2404L15.7159 24.5473C15.7975 24.4936 15.8931 24.465 15.9908 24.465C16.0886 24.465 16.1841 24.4936 16.2657 24.5473L23.1636 29.2404C23.4079 29.4079 23.6969 29.4984 23.9933 29.5C24.2265 29.4983 24.4562 29.4428 24.6643 29.3376C24.8724 29.2325 25.0533 29.0806 25.1928 28.8939C25.3323 28.7072 25.4266 28.4907 25.4681 28.2615C25.5098 28.0323 25.4977 27.7965 25.4329 27.5728L22.9036 19.7344C22.8747 19.636 22.8775 19.531 22.9115 19.4342C22.9456 19.3375 23.0093 19.2539 23.0936 19.1953L28.9218 14.2027Z" fill="black"/>
</svg>
