<svg width="32" height="32" viewBox="0 0 32 32" fill="none" xmlns="http://www.w3.org/2000/svg">
<path d="M3.41357 13.7526L14.4185 5.75459C14.8303 5.4652 15.3138 5.29444 15.816 5.26093C16.3183 5.22741 16.8201 5.33243 17.2668 5.56454C17.7135 5.79665 18.0879 6.14693 18.3492 6.5772C18.6105 7.00746 18.7486 7.50121 18.7485 8.00459V10.8981L25.3647 5.79361C25.7741 5.49063 26.2595 5.30728 26.7669 5.26398C27.2743 5.22068 27.7838 5.31914 28.2385 5.54838C28.6933 5.77762 29.0754 6.12865 29.3424 6.56232C29.6093 6.996 29.7506 7.49529 29.7505 8.00455V23.9967C29.7494 24.7258 29.4596 25.4247 28.9443 25.9405C28.4291 26.4562 27.7305 26.7469 27.0015 26.7487C26.4073 26.747 25.8293 26.5543 25.3531 26.1989L18.7485 21.099V23.9957C18.7485 24.7248 18.459 25.424 17.9438 25.9399C17.4285 26.4557 16.7296 26.7459 16.0005 26.7467C15.43 26.7455 14.8738 26.5681 14.4078 26.2389L3.41943 18.2497C3.05856 17.9964 2.7639 17.66 2.56029 17.2689C2.35668 16.8778 2.25009 16.4435 2.24951 16.0026C2.24894 15.5617 2.35439 15.1272 2.55699 14.7356C2.75958 14.344 3.05336 14.0068 3.41357 13.7526ZM18.7486 19.2044L26.2564 25.0016C26.4425 25.1393 26.6632 25.2226 26.8938 25.2423C27.1245 25.262 27.3561 25.2172 27.5628 25.1131C27.7695 25.0089 27.9433 24.8494 28.0647 24.6523C28.1861 24.4552 28.2505 24.2282 28.2505 23.9967V8.00455C28.2531 7.77242 28.1899 7.54432 28.0682 7.34661C27.9465 7.14891 27.7714 6.98968 27.563 6.88736C27.3864 6.79725 27.191 6.75007 26.9927 6.74966C26.7319 6.74967 26.4781 6.83394 26.2691 6.9899L18.7486 12.7924V19.2044ZM4.2915 17.029L15.2798 25.0192C15.4671 25.1507 15.6869 25.2282 15.9153 25.2433C16.1436 25.2585 16.3718 25.2107 16.5748 25.1051C16.7779 24.9996 16.9481 24.8403 17.0669 24.6447C17.1857 24.4491 17.2485 24.2247 17.2485 23.9958V8.00455C17.2507 7.77522 17.1888 7.54983 17.0698 7.35381C16.9507 7.15779 16.7792 6.99894 16.5747 6.89517C16.3951 6.80101 16.1955 6.75144 15.9927 6.75064C15.7411 6.75063 15.4958 6.82877 15.2906 6.97427L4.28076 14.9772C4.11576 15.0931 3.98126 15.2471 3.88875 15.4263C3.79624 15.6054 3.74847 15.8043 3.74953 16.0059C3.75058 16.2075 3.80043 16.4059 3.89481 16.584C3.98919 16.7622 4.1253 16.9149 4.2915 17.029Z" fill="black"/>
</svg>
