<svg width="32" height="32" viewBox="0 0 32 32" fill="none" xmlns="http://www.w3.org/2000/svg">
<path d="M28.1265 5.77151C27.7119 5.56123 27.2468 5.47119 26.7838 5.51157C26.3207 5.55195 25.8782 5.72114 25.5063 6L18.4995 11.406V8.00393C18.4993 7.54568 18.3732 7.0963 18.1349 6.70488C17.8966 6.31345 17.5554 5.99502 17.1484 5.78439C16.7415 5.57375 16.2844 5.479 15.8273 5.51049C15.3701 5.54197 14.9304 5.69849 14.5561 5.96293L3.56005 13.9561C3.23293 14.1865 2.96594 14.4922 2.78156 14.8473C2.59717 15.2024 2.50078 15.5967 2.50049 15.9968C2.5002 16.397 2.59603 16.7913 2.77991 17.1467C2.96378 17.5021 3.23033 17.8082 3.55712 18.0391L14.563 26.041C14.9374 26.3042 15.377 26.4595 15.8337 26.49C16.2903 26.5205 16.7466 26.425 17.1527 26.2139C17.5589 26.0028 17.8992 25.6843 18.1367 25.293C18.3742 24.9018 18.4997 24.4528 18.4995 23.9951V20.5891L25.5151 26.0068C25.8874 26.2817 26.3286 26.4479 26.7897 26.4869C27.2508 26.5259 27.7137 26.4362 28.1269 26.2278C28.54 26.0194 28.8873 25.7005 29.13 25.3064C29.3726 24.9124 29.5012 24.4588 29.5015 23.9961V8.00393C29.5031 7.54064 29.3753 7.0861 29.1323 6.69163C28.8894 6.29716 28.541 5.97846 28.1265 5.77151Z" fill="black"/>
</svg>
