<svg width="32" height="32" viewBox="0 0 32 32" fill="none" xmlns="http://www.w3.org/2000/svg">
<path d="M3.55896 13.9563L14.562 5.95823C14.9365 5.69546 15.376 5.54051 15.8325 5.51023C16.2891 5.47995 16.7451 5.57551 17.1511 5.78651C17.5571 5.9975 17.8974 6.31584 18.135 6.70686C18.3725 7.09789 18.4983 7.5466 18.4985 8.00413V11.4065L25.5141 5.99339C25.8863 5.71839 26.3276 5.5521 26.7887 5.51301C27.2498 5.47393 27.7128 5.56359 28.126 5.77202C28.5392 5.98045 28.8865 6.29946 29.1291 6.69355C29.3718 7.08763 29.5003 7.54133 29.5004 8.00413V23.9963C29.4991 24.6592 29.2354 25.2945 28.7669 25.7634C28.2984 26.2323 27.6632 26.4965 27.0004 26.4983C26.4615 26.4971 25.9373 26.3225 25.5053 26.0003L18.4984 20.5899V23.9954C18.4988 24.4539 18.3731 24.9037 18.135 25.2955C17.8968 25.6873 17.5555 26.006 17.1483 26.2168C16.7411 26.4275 16.2838 26.5222 15.8264 26.4904C15.369 26.4586 14.9292 26.3015 14.5551 26.0364L3.56289 18.0442C3.23474 17.8139 2.96681 17.5081 2.78171 17.1526C2.59661 16.797 2.49978 16.4021 2.49939 16.0012C2.49901 15.6004 2.59508 15.2053 2.77949 14.8494C2.96391 14.4935 3.23125 14.1871 3.55896 13.9563ZM18.4984 19.3268L26.1078 25.2024C26.3311 25.3675 26.5959 25.4673 26.8726 25.4909C27.1494 25.5144 27.4272 25.4607 27.6752 25.3357C27.9232 25.2107 28.1317 25.0193 28.2774 24.7828C28.423 24.5464 28.5002 24.2741 28.5004 23.9964V8.00413C28.5034 7.72566 28.4276 7.45201 28.2815 7.21488C28.1355 6.97776 27.9252 6.78685 27.6752 6.66429C27.4639 6.55592 27.23 6.49904 26.9925 6.49829C26.6766 6.49924 26.3695 6.60199 26.1165 6.79129L18.4984 12.6692L18.4984 19.3268ZM4.14396 17.2307L15.1361 25.2229C15.3609 25.3807 15.6246 25.4738 15.8986 25.492C16.1726 25.5103 16.4463 25.453 16.69 25.3263C16.9337 25.1997 17.1379 25.0086 17.2805 24.774C17.423 24.5393 17.4984 24.2699 17.4984 23.9953V8.00413C17.5012 7.72894 17.4269 7.45847 17.284 7.22327C17.1411 6.98807 16.9353 6.7975 16.6899 6.67308C16.4748 6.56007 16.2356 6.50076 15.9926 6.50023C15.6881 6.50062 15.3913 6.59547 15.143 6.77171L4.14396 14.7668L4.13713 14.7717C3.93957 14.9105 3.77843 15.0948 3.6674 15.3092C3.55638 15.5236 3.49875 15.7616 3.49942 16.003C3.50009 16.2444 3.55904 16.4821 3.67125 16.6958C3.78347 16.9096 3.94563 17.0931 4.14396 17.2307Z" fill="black"/>
</svg>
