<svg xmlns="http://www.w3.org/2000/svg" width="32" height="32" viewBox="0 0 32 32"><path d="M28.586 13.7522L17.581 5.75423C17.1691 5.46506 16.6857 5.29449 16.1835 5.26109C15.6813 5.22769 15.1796 5.33274 14.733 5.56481C14.2864 5.79688 13.912 6.14705 13.6507 6.57719C13.3894 7.00733 13.2511 7.50093 13.251 8.00423V10.8982L6.635 5.79323C6.22565 5.49054 5.74031 5.30743 5.23303 5.26429C4.72576 5.22115 4.21647 5.31967 3.76188 5.54888C3.30729 5.77809 2.92526 6.12899 2.65832 6.56251C2.39139 6.99602 2.25003 7.49512 2.25 8.00423V23.9962C2.25106 24.7254 2.54106 25.4245 3.0565 25.9403C3.57194 26.4561 4.2708 26.7466 5 26.7482C5.5941 26.7464 6.17186 26.5535 6.648 26.1982L13.252 21.0982V23.9952C13.2522 24.4997 13.3911 24.9943 13.6534 25.4252C13.9158 25.856 14.2916 26.2064 14.7397 26.438C15.1878 26.6697 15.691 26.7737 16.1942 26.7386C16.6975 26.7035 17.1813 26.5308 17.593 26.2392L28.581 18.2492C28.9418 17.9959 29.2364 17.6595 29.44 17.2685C29.6436 16.8774 29.7501 16.4431 29.7507 16.0023C29.7513 15.5614 29.6459 15.1269 29.4434 14.7353C29.2408 14.3437 28.9471 14.0065 28.587 13.7522H28.586ZM13.251 19.2042L5.744 25.0012C5.55793 25.1393 5.33714 25.223 5.10628 25.2429C4.87542 25.2628 4.64357 25.2181 4.43663 25.1138C4.22968 25.0096 4.05579 24.8499 3.93437 24.6525C3.81294 24.4552 3.74876 24.2279 3.749 23.9962V8.00423C3.74658 7.77209 3.8099 7.54401 3.93165 7.34634C4.0534 7.14868 4.2286 6.98951 4.437 6.88723C4.6135 6.79703 4.80879 6.74975 5.007 6.74923C5.268 6.74923 5.522 6.83423 5.731 6.98923L13.251 12.7922V19.2042ZM27.708 17.0292L16.72 25.0192C16.5326 25.1506 16.3127 25.228 16.0843 25.2431C15.856 25.2581 15.6278 25.2103 15.4248 25.1047C15.2217 24.9991 15.0516 24.8398 14.9327 24.6442C14.8139 24.4486 14.7511 24.2241 14.751 23.9952V8.00523C14.7487 7.77577 14.8106 7.55026 14.9297 7.35412C15.0488 7.15798 15.2204 6.99904 15.425 6.89523C15.605 6.80123 15.805 6.75123 16.007 6.75023C16.259 6.75023 16.504 6.82823 16.709 6.97423L27.719 14.9772C27.8841 15.093 28.0187 15.2471 28.1113 15.4262C28.2039 15.6053 28.2517 15.8042 28.2507 16.0058C28.2498 16.2075 28.2 16.4059 28.1056 16.5841C28.0113 16.7623 27.8752 16.915 27.709 17.0292H27.708Z"/></svg>