<svg xmlns="http://www.w3.org/2000/svg" width="32" height="32" viewBox="0 0 32 32"><path d="M28.442 13.9548L17.439 5.95776C17.0645 5.69468 16.6249 5.53946 16.1682 5.50903C15.7116 5.47859 15.2553 5.57411 14.8492 5.78517C14.443 5.99622 14.1027 6.31472 13.8651 6.70593C13.6275 7.09715 13.502 7.54607 13.502 8.00376V11.4058L6.487 5.99276C6.11486 5.71741 5.67358 5.55079 5.21232 5.51148C4.75107 5.47216 4.28795 5.56169 3.87458 5.77008C3.46121 5.97848 3.11382 6.29756 2.87112 6.69177C2.62842 7.08597 2.49994 7.53983 2.5 8.00276V23.9958C2.50132 24.6586 2.76507 25.2939 3.23357 25.7628C3.70207 26.2316 4.33718 26.4959 5 26.4978C5.53921 26.4968 6.06377 26.3221 6.496 25.9998L13.502 20.5898V23.9948C13.502 24.4532 13.628 24.9028 13.8662 25.2944C14.1045 25.686 14.4459 26.0046 14.853 26.2153C15.2601 26.426 15.7173 26.5206 16.1747 26.489C16.632 26.4573 17.0718 26.3005 17.446 26.0358L28.438 18.0438C28.7661 17.8134 29.034 17.5074 29.219 17.1518C29.404 16.7961 29.5009 16.4012 29.5012 16.0003C29.5016 15.5994 29.4056 15.2043 29.2213 14.8483C29.0369 14.4923 28.7696 14.1858 28.442 13.9548Z"/></svg>