<svg width="32" height="32" viewBox="0 0 32 32" fill="none" xmlns="http://www.w3.org/2000/svg">
<path d="M28.4419 13.9552L17.439 5.95814C17.0644 5.69538 16.6249 5.54042 16.1684 5.51014C15.7119 5.47986 15.2558 5.57542 14.8498 5.78641C14.4438 5.9974 14.1035 6.31574 13.866 6.70675C13.6284 7.09776 13.5026 7.54647 13.5024 8.004V11.4063L6.48682 5.9933C6.11468 5.71821 5.6735 5.55181 5.21239 5.51262C4.75128 5.47342 4.28834 5.56298 3.87511 5.77131C3.46189 5.97964 3.11459 6.29858 2.8719 6.6926C2.6292 7.08663 2.50062 7.54028 2.50049 8.00306V23.9962C2.50174 24.6591 2.76547 25.2944 3.23399 25.7633C3.7025 26.2322 4.33765 26.4964 5.00049 26.4982C5.53939 26.497 6.06359 26.3223 6.4956 26.0002L13.5024 20.5898V23.9953C13.502 24.4538 13.6278 24.9036 13.8659 25.2954C14.104 25.6872 14.4454 26.0059 14.8526 26.2166C15.2598 26.4274 15.7171 26.522 16.1745 26.4902C16.6319 26.4584 17.0717 26.3014 17.4458 26.0363L28.438 18.0441C28.7661 17.8138 29.0341 17.5079 29.2192 17.1522C29.4043 16.7966 29.5011 16.4016 29.5015 16.0007C29.5018 15.5998 29.4058 15.2046 29.2214 14.8486C29.0369 14.4926 28.7696 14.1862 28.4419 13.9552Z" fill="black"/>
</svg>
