<svg width="32" height="32" viewBox="0 0 32 32" fill="none" xmlns="http://www.w3.org/2000/svg">
<path d="M28.4408 13.9563L17.4379 5.95828C17.0633 5.69552 16.6238 5.54056 16.1673 5.51028C15.7108 5.48 15.2547 5.57556 14.8487 5.78656C14.4427 5.99755 14.1024 6.3159 13.8649 6.70692C13.6273 7.09794 13.5015 7.54664 13.5013 8.00418V11.4065L6.48572 5.99339C6.11348 5.71839 5.67223 5.5521 5.21108 5.51301C4.74993 5.47393 4.28699 5.56359 3.87378 5.77202C3.46057 5.98045 3.11331 6.29946 2.87065 6.69355C2.628 7.08763 2.49948 7.54133 2.49939 8.00413V23.9963C2.50064 24.6592 2.76436 25.2945 3.23288 25.7634C3.70139 26.2323 4.33655 26.4965 4.99939 26.4983C5.53829 26.4971 6.06249 26.3225 6.49451 26.0003L13.5013 20.5899V23.9954C13.5009 24.4539 13.6267 24.9037 13.8648 25.2955C14.1029 25.6873 14.4443 26.006 14.8515 26.2168C15.2587 26.4275 15.716 26.5222 16.1734 26.4904C16.6308 26.4586 17.0706 26.3015 17.4447 26.0364L28.4369 18.0442C28.7651 17.8139 29.033 17.5081 29.2181 17.1526C29.4032 16.797 29.5 16.4021 29.5004 16.0012C29.5008 15.6004 29.4047 15.2053 29.2203 14.8494C29.0359 14.4935 28.7685 14.1871 28.4408 13.9563ZM13.5013 19.3268L5.89194 25.2024C5.6686 25.3675 5.40383 25.4673 5.12709 25.4909C4.85036 25.5144 4.57252 25.4607 4.32451 25.3357C4.0765 25.2107 3.86806 25.0193 3.72237 24.7828C3.57669 24.5464 3.49949 24.2741 3.49936 23.9964V8.00413C3.49628 7.72565 3.57215 7.452 3.7182 7.21487C3.86425 6.97775 4.07448 6.78685 4.32456 6.66429C4.53583 6.55592 4.76973 6.49904 5.00717 6.49829C5.32307 6.49925 5.63026 6.60199 5.88317 6.79129L13.5013 12.6692L13.5013 19.3268ZM27.8558 17.2307L16.8637 25.2229C16.6389 25.3807 16.3752 25.4738 16.1012 25.492C15.8272 25.5103 15.5535 25.4529 15.3098 25.3263C15.0661 25.1997 14.8619 25.0086 14.7193 24.774C14.5768 24.5393 14.5014 24.2699 14.5013 23.9953V8.00413C14.4986 7.72894 14.5729 7.45847 14.7158 7.22327C14.8587 6.98807 15.0645 6.7975 15.3099 6.67308C15.525 6.56007 15.7642 6.50076 16.0072 6.50023C16.3117 6.50062 16.6085 6.59547 16.8568 6.77171L27.8558 14.7668L27.8626 14.7717C28.0602 14.9105 28.2213 15.0948 28.3324 15.3092C28.4434 15.5236 28.501 15.7616 28.5003 16.003C28.4997 16.2444 28.4407 16.4821 28.3285 16.6958C28.2163 16.9096 28.0542 17.0931 27.8558 17.2307Z" fill="black"/>
</svg>
