<svg width="32" height="32" viewBox="0 0 32 32" fill="none" xmlns="http://www.w3.org/2000/svg">
<path d="M28.732 13.55L17.726 5.55C17.2767 5.23397 16.7493 5.04735 16.2012 5.01051C15.6532 4.97367 15.1055 5.08801 14.618 5.34106C14.1304 5.59412 13.7217 5.97618 13.4364 6.44557C13.1511 6.91497 13.0002 7.45369 13 8.003V10.388L6.78402 5.592C6.33746 5.26141 5.80786 5.06132 5.25426 5.01405C4.70066 4.96678 4.1448 5.07418 3.64866 5.32427C3.15251 5.57437 2.73556 5.95734 2.44429 6.43049C2.15302 6.90364 1.99887 7.44838 1.99902 8.004V23.996C1.99955 24.7913 2.31545 25.554 2.87746 26.1167C3.43946 26.6795 4.2017 26.9964 4.99702 26.998C5.6469 26.9961 6.27896 26.7854 6.80002 26.397L13.001 21.607V23.995C13.0013 24.7901 13.317 25.5527 13.8789 26.1153C14.4407 26.6779 15.2029 26.9947 15.998 26.996C16.6214 26.995 17.2292 26.8011 17.738 26.441L28.724 18.453C29.1174 18.1767 29.4385 17.8099 29.6605 17.3836C29.8825 16.9572 29.9987 16.4838 29.9995 16.0031C30.0003 15.5224 29.8856 15.0486 29.665 14.6215C29.4444 14.1944 29.1244 13.8266 28.732 13.549V13.55ZM13.002 19.081L5.59302 24.8C5.44417 24.9096 5.26783 24.9758 5.08361 24.9913C4.89939 25.0067 4.71449 24.9708 4.54945 24.8875C4.38441 24.8042 4.24569 24.6768 4.1487 24.5194C4.05171 24.3621 4.00025 24.1809 4.00002 23.996V8.004C3.99816 7.81843 4.04882 7.63613 4.14614 7.47812C4.24345 7.32011 4.38347 7.19284 4.55002 7.111C4.69202 7.038 4.84902 7.001 5.00802 6.999C5.21402 6.999 5.41402 7.065 5.57802 7.188L13.002 12.916V19.081V19.081ZM27.562 16.826L16.576 24.814C16.4262 24.9196 16.2502 24.982 16.0673 24.9943C15.8843 25.0066 15.7016 24.9684 15.5389 24.8839C15.3762 24.7994 15.2399 24.6717 15.1449 24.515C15.0499 24.3582 14.9997 24.1783 15 23.995V8.005C14.9982 7.82121 15.0478 7.64058 15.1433 7.4835C15.2387 7.32641 15.3761 7.19913 15.54 7.116C15.684 7.041 15.844 7.001 16.007 7C16.206 7 16.4 7.062 16.562 7.176L27.561 15.171L27.575 15.181C27.7073 15.2741 27.815 15.3979 27.8889 15.5418C27.9628 15.6857 28.0007 15.8454 27.9993 16.0072C27.9979 16.1689 27.9573 16.3279 27.881 16.4705C27.8046 16.6132 27.6949 16.7351 27.561 16.826H27.562Z" fill="#0F0F0F"/>
</svg>
