<svg width="32" height="32" viewBox="0 0 32 32" fill="none" xmlns="http://www.w3.org/2000/svg">
<path d="M28.5863 13.7522L17.5814 5.75418C17.1695 5.46479 16.6861 5.29403 16.1838 5.26051C15.6816 5.227 15.1797 5.33202 14.7331 5.56413C14.2864 5.79623 13.912 6.14651 13.6507 6.57678C13.3894 7.00705 13.2513 7.50079 13.2513 8.00418V10.8977L6.63513 5.7932C6.22581 5.49022 5.74038 5.30686 5.23297 5.26356C4.72556 5.22026 4.21609 5.31872 3.76135 5.54797C3.30661 5.77721 2.92446 6.12823 2.6575 6.56191C2.39054 6.99558 2.24925 7.49487 2.24939 8.00413V23.9963C2.25045 24.7254 2.54032 25.4243 3.05554 25.9401C3.57076 26.4558 4.26936 26.7465 4.99839 26.7483C5.59262 26.7466 6.17056 26.5539 6.64683 26.1985L13.2513 21.0987V23.9954C13.2514 24.7245 13.5408 25.4237 14.0561 25.9395C14.5713 26.4553 15.2702 26.7455 15.9993 26.7464C16.5699 26.7451 17.1261 26.5678 17.5921 26.2386L28.5804 18.2493C28.9413 17.996 29.2359 17.6596 29.4395 17.2686C29.6431 16.8775 29.7497 16.4432 29.7503 16.0023C29.7509 15.5614 29.6454 15.1268 29.4428 14.7352C29.2402 14.3436 28.9465 14.0064 28.5863 13.7522ZM13.2513 19.204L5.74353 25.0012C5.55743 25.1389 5.33676 25.2222 5.1061 25.2419C4.87544 25.2616 4.64385 25.2168 4.43711 25.1126C4.23038 25.0085 4.05663 24.8489 3.9352 24.6518C3.81378 24.4548 3.74945 24.2278 3.74939 23.9963V8.00413C3.74685 7.77201 3.81007 7.54391 3.93174 7.34621C4.05341 7.14852 4.22857 6.98931 4.43694 6.887C4.61357 6.79689 4.80896 6.74971 5.00725 6.7493C5.26805 6.74931 5.52186 6.83357 5.73089 6.98953L13.2513 12.792V19.204ZM27.7083 17.0286L16.7201 25.0188C16.5328 25.1502 16.3129 25.2277 16.0846 25.2429C15.8562 25.258 15.6281 25.2102 15.4251 25.1047C15.222 24.9991 15.0518 24.8399 14.933 24.6442C14.8142 24.4486 14.7514 24.2242 14.7513 23.9953V8.00413C14.7491 7.7748 14.8111 7.54941 14.9301 7.35339C15.0492 7.15737 15.2206 6.99852 15.4252 6.89476C15.6048 6.8006 15.8044 6.75103 16.0072 6.75023C16.2587 6.75022 16.5041 6.82836 16.7093 6.97386L27.7191 14.9768C27.8841 15.0927 28.0186 15.2467 28.1111 15.4259C28.2036 15.605 28.2513 15.8039 28.2503 16.0055C28.2492 16.2071 28.1994 16.4054 28.105 16.5836C28.0106 16.7618 27.8745 16.9145 27.7083 17.0286Z" fill="black"/>
</svg>
