<svg width="32" height="32" viewBox="0 0 32 32" fill="none" xmlns="http://www.w3.org/2000/svg">
<path d="M23.0004 1.99953H9.00037C7.67476 2.00109 6.4039 2.52837 5.46655 3.46571C4.52921 4.40306 4.00193 5.67392 4.00037 6.99953V24.9995C4.00193 26.3251 4.52921 27.596 5.46655 28.5333C6.4039 29.4707 7.67476 29.998 9.00037 29.9995H23.0004C24.326 29.998 25.5968 29.4707 26.5342 28.5333C27.4715 27.596 27.9988 26.3251 28.0004 24.9995V6.99953C27.9988 5.67392 27.4715 4.40306 26.5342 3.46571C25.5968 2.52837 24.326 2.00109 23.0004 1.99953ZM26.0004 24.9995C25.9995 25.7949 25.6831 26.5575 25.1207 27.1199C24.5583 27.6823 23.7957 27.9987 23.0004 27.9995H9.00037C8.20498 27.9987 7.44243 27.6823 6.88 27.1199C6.31758 26.5575 6.00123 25.7949 6.00037 24.9995V6.99953C6.00123 6.20414 6.31758 5.44159 6.88 4.87917C7.44243 4.31674 8.20498 4.0004 9.00037 3.99953H23.0004C23.7957 4.0004 24.5583 4.31674 25.1207 4.87917C25.6831 5.44159 25.9995 6.20414 26.0004 6.99953V24.9995Z" fill="black"/>
<path d="M23.3773 21.772C23.2236 21.2613 22.9099 20.8135 22.4825 20.4944C22.0552 20.1753 21.5367 20.0018 21.0033 19.9995H20.0004V18.9995H21.101C21.3609 19.0008 21.6184 18.9508 21.8589 18.8522C22.0994 18.7537 22.3181 18.6086 22.5023 18.4253C22.5433 18.3843 23.8178 16.5845 23.8178 16.5845C23.8934 16.4772 23.9472 16.356 23.976 16.2278C24.0049 16.0997 24.0082 15.9672 23.9858 15.8378C23.9634 15.7083 23.9157 15.5846 23.8455 15.4736C23.7753 15.3627 23.6839 15.2666 23.5765 15.1909C23.4692 15.1153 23.348 15.0615 23.2199 15.0327C23.0918 15.0038 22.9592 15.0005 22.8298 15.0229C22.5685 15.0682 22.3358 15.2154 22.183 15.4321L21.0785 16.9995H20.0004V16.8306C19.9989 16.1138 19.724 15.4247 19.2318 14.9037L19.9105 13.4136C19.9649 13.2941 19.9952 13.165 19.9997 13.0338C20.0042 12.9025 19.9828 12.7717 19.9367 12.6487C19.8907 12.5258 19.8208 12.4131 19.7312 12.3171C19.6416 12.2211 19.534 12.1437 19.4144 12.0894C19.2949 12.035 19.1658 12.0047 19.0346 12.0002C18.9034 11.9957 18.7725 12.0171 18.6496 12.0632C18.5266 12.1092 18.4139 12.1791 18.318 12.2687C18.222 12.3583 18.1446 12.4659 18.0902 12.5855L17.434 14.0262C17.3458 14.0179 17.2606 13.9995 17.1703 13.9995H14.8304C14.7393 13.9995 14.6531 14.018 14.5641 14.0264L13.9105 12.5864C13.801 12.3451 13.6 12.1571 13.3519 12.0639C13.1037 11.9706 12.8287 11.9798 12.5873 12.0894C12.3459 12.1989 12.1579 12.3999 12.0647 12.6481C11.9715 12.8962 11.9807 13.1712 12.0902 13.4126L12.7677 14.9052C12.2762 15.426 12.0018 16.1145 12.0004 16.8306V16.9985L10.9281 17.0005L9.81775 15.4234C9.66494 15.2066 9.43227 15.0594 9.17093 15.0141C8.90958 14.9689 8.64098 15.0293 8.42419 15.1821C8.20741 15.335 8.06021 15.5676 8.01497 15.829C7.96973 16.0903 8.03017 16.3589 8.18298 16.5757C8.18298 16.5757 9.45544 18.3745 9.49646 18.4146C9.68031 18.5995 9.89899 18.7461 10.1399 18.846C10.3807 18.9459 10.639 18.9971 10.8998 18.9966H12.0004V19.9995H10.9965C10.4636 20.002 9.94553 20.1754 9.51842 20.494C9.0913 20.8127 8.77761 21.2599 8.62342 21.77L8.04236 23.7134C8.00402 23.8394 7.99096 23.9718 8.00394 24.1029C8.01691 24.2339 8.05566 24.3612 8.11796 24.4772C8.18026 24.5933 8.26488 24.6959 8.36696 24.7792C8.46903 24.8624 8.58656 24.9247 8.71277 24.9624C8.83899 25.0001 8.97141 25.0125 9.10243 24.9988C9.23345 24.9852 9.36048 24.9458 9.47622 24.8829C9.59197 24.82 9.69415 24.7349 9.77689 24.6324C9.85963 24.5299 9.9213 24.4121 9.95836 24.2857L10.5394 22.3413C10.5684 22.2426 10.6286 22.1559 10.711 22.0943C10.7934 22.0327 10.8935 21.9994 10.9964 21.9995H12.303C12.5688 22.5924 13 23.096 13.545 23.4498C14.09 23.8035 14.7256 23.9924 15.3753 23.9937H16.6243C17.2741 23.9923 17.9098 23.8035 18.4549 23.4497C19 23.096 19.4315 22.5924 19.6974 21.9995H21.0032C21.1062 22.0001 21.2063 22.0339 21.2886 22.0958C21.3709 22.1577 21.4311 22.2445 21.4602 22.3433L22.0422 24.2866C22.104 24.4927 22.2305 24.6733 22.4031 24.8018C22.5757 24.9302 22.7851 24.9995 23.0002 24.9995C23.0974 24.9994 23.1941 24.9853 23.2873 24.9575C23.4131 24.9198 23.5303 24.8577 23.6321 24.7748C23.7339 24.6918 23.8184 24.5896 23.8807 24.4739C23.943 24.3583 23.9819 24.2315 23.9952 24.1009C24.0085 23.9702 23.9959 23.8382 23.9582 23.7124L23.3773 21.772ZM16.6244 21.9937H15.3754C15.0109 21.9931 14.6615 21.8481 14.4037 21.5904C14.146 21.3326 14.0009 20.9832 14.0004 20.6187V16.8306C14.0005 16.6104 14.088 16.3992 14.2436 16.2434C14.3992 16.0876 14.6103 15.9999 14.8305 15.9995H17.1703C17.3905 15.9999 17.6016 16.0876 17.7572 16.2434C17.9128 16.3992 18.0003 16.6104 18.0004 16.8306V20.6187C17.9998 20.9833 17.8546 21.3329 17.5967 21.5906C17.3387 21.8484 16.9891 21.9933 16.6244 21.9937Z" fill="black"/>
</svg>
