<svg width="32" height="32" viewBox="0 0 32 32" fill="none" xmlns="http://www.w3.org/2000/svg">
<path d="M23 2.25H9C7.74066 2.25143 6.53331 2.75233 5.64282 3.64282C4.75233 4.53331 4.25143 5.74066 4.25 7V25C4.25143 26.2593 4.75233 27.4667 5.64282 28.3572C6.53331 29.2477 7.74066 29.7486 9 29.75H23C24.2593 29.7486 25.4667 29.2477 26.3572 28.3572C27.2477 27.4667 27.7486 26.2593 27.75 25V7C27.7486 5.74066 27.2477 4.53331 26.3572 3.64282C25.4667 2.75233 24.2593 2.25143 23 2.25ZM26.25 25C26.249 25.8616 25.9063 26.6877 25.297 27.297C24.6877 27.9063 23.8616 28.249 23 28.25H9C8.13835 28.249 7.31228 27.9063 6.703 27.297C6.09373 26.6877 5.751 25.8616 5.75 25V7C5.751 6.13835 6.09373 5.31228 6.703 4.703C7.31228 4.09373 8.13835 3.751 9 3.75H23C23.8616 3.751 24.6877 4.09373 25.297 4.703C25.9063 5.31228 26.249 6.13835 26.25 7V25Z" fill="black"/>
<path d="M19.9902 15.251H19.75V14C19.7511 13.5069 19.6549 13.0184 19.4669 12.5625C19.2789 12.1066 19.0028 11.6923 18.6545 11.3433C18.3062 10.9942 17.8924 10.7173 17.4369 10.5284C16.9814 10.3395 16.4931 10.2423 16 10.2423C15.5069 10.2424 15.0186 10.3397 14.5632 10.5288C14.1077 10.7178 13.694 10.9948 13.3458 11.344C12.9975 11.6931 12.7216 12.1075 12.5337 12.5634C12.3459 13.0194 12.2498 13.5079 12.251 14.001L12.2516 15.2501L11.9971 15.25C11.5309 15.2536 11.0853 15.4419 10.7578 15.7736C10.4303 16.1054 10.2477 16.5534 10.25 17.0195V22.0039C10.2501 22.2353 10.2966 22.4644 10.3867 22.6775C10.4767 22.8907 10.6086 23.0837 10.7744 23.2451C11.1036 23.5698 11.5474 23.7515 12.0098 23.751L20.0019 23.75C20.2339 23.7498 20.4644 23.7029 20.6778 23.6122C20.8912 23.5214 21.0841 23.3886 21.2451 23.2217C21.5698 22.8914 21.7512 22.4465 21.75 21.9834V16.9981C21.7498 16.7668 21.7033 16.5379 21.6132 16.3249C21.5231 16.1119 21.3913 15.9191 21.2256 15.7578C20.8968 15.4325 20.4528 15.2503 19.9902 15.251ZM13.7509 14.001C13.75 13.705 13.8075 13.4118 13.9201 13.1381C14.0326 12.8643 14.1982 12.6155 14.4071 12.4059C14.616 12.1962 14.8642 12.0299 15.1376 11.9164C15.4109 11.8028 15.704 11.7444 15.9999 11.7443C16.2959 11.7442 16.589 11.8026 16.8624 11.916C17.1358 12.0294 17.3841 12.1956 17.5931 12.4052C17.8021 12.6147 17.9677 12.8635 18.0804 13.1371C18.1932 13.4108 18.2508 13.704 18.2499 14V15.2508L13.7515 15.2502L13.7509 14.001ZM20.2499 21.9844C20.2497 22.0556 20.2217 22.124 20.1718 22.1748C20.1499 22.1982 20.1234 22.217 20.094 22.2299C20.0647 22.2428 20.033 22.2497 20.0009 22.25L12.0117 22.251C11.9772 22.251 11.942 22.2442 11.9102 22.231C11.8783 22.2177 11.8494 22.1983 11.8251 22.1739C11.8016 22.152 11.7828 22.1256 11.7699 22.0962C11.757 22.0668 11.7502 22.0351 11.7499 22.003V17.0186C11.7492 16.9506 11.7745 16.8849 11.8206 16.835C11.8667 16.7851 11.9302 16.7547 11.998 16.75L19.9882 16.751C20.0578 16.7512 20.1255 16.779 20.1747 16.8282C20.1981 16.8502 20.2167 16.8766 20.2297 16.906C20.2426 16.9353 20.2495 16.967 20.2499 16.9991V21.9844Z" fill="black"/>
</svg>
