<svg width="32" height="32" viewBox="0 0 32 32" fill="none" xmlns="http://www.w3.org/2000/svg">
<path d="M23 2.24951H9C7.74066 2.25094 6.53331 2.75184 5.64282 3.64233C4.75233 4.53282 4.25143 5.74017 4.25 6.99951V24.9995C4.25143 26.2589 4.75233 27.4662 5.64282 28.3567C6.53331 29.2472 7.74066 29.7481 9 29.7495H23C24.2593 29.7481 25.4667 29.2472 26.3572 28.3567C27.2477 27.4662 27.7486 26.2589 27.75 24.9995V6.99951C27.7486 5.74017 27.2477 4.53282 26.3572 3.64233C25.4667 2.75184 24.2593 2.25094 23 2.24951ZM26.25 24.9995C26.249 25.8612 25.9063 26.6872 25.297 27.2965C24.6877 27.9058 23.8616 28.2485 23 28.2495H9C8.13835 28.2485 7.31228 27.9058 6.703 27.2965C6.09373 26.6872 5.751 25.8612 5.75 24.9995V6.99951C5.751 6.13786 6.09373 5.31179 6.703 4.70252C7.31228 4.09324 8.13835 3.75051 9 3.74951H23C23.8616 3.75051 24.6877 4.09324 25.297 4.70252C25.9063 5.31179 26.249 6.13786 26.25 6.99951V24.9995Z" fill="black"/>
<path d="M21 22.2495H11C10.8011 22.2495 10.6103 22.3285 10.4697 22.4692C10.329 22.6098 10.25 22.8006 10.25 22.9995C10.25 23.1984 10.329 23.3892 10.4697 23.5298C10.6103 23.6705 10.8011 23.7495 11 23.7495H21C21.1989 23.7495 21.3897 23.6705 21.5303 23.5298C21.671 23.3892 21.75 23.1984 21.75 22.9995C21.75 22.8006 21.671 22.6098 21.5303 22.4692C21.3897 22.3285 21.1989 22.2495 21 22.2495Z" fill="black"/>
<path d="M12 19.7495C12.1989 19.7495 12.3896 19.6704 12.5303 19.5298C12.6709 19.3891 12.7499 19.1984 12.75 18.9995V14.0005C12.75 13.8016 12.671 13.6108 12.5303 13.4702C12.3897 13.3295 12.1989 13.2505 12 13.2505C11.8011 13.2505 11.6103 13.3295 11.4697 13.4702C11.329 13.6108 11.25 13.8016 11.25 14.0005V18.9995C11.2501 19.1984 11.3291 19.3891 11.4697 19.5298C11.6104 19.6704 11.8011 19.7495 12 19.7495Z" fill="black"/>
<path d="M16 19.7495C16.1989 19.7495 16.3896 19.6704 16.5303 19.5298C16.6709 19.3891 16.7499 19.1984 16.75 18.9995V17.0005C16.75 16.8016 16.671 16.6108 16.5303 16.4702C16.3897 16.3295 16.1989 16.2505 16 16.2505C15.8011 16.2505 15.6103 16.3295 15.4697 16.4702C15.329 16.6108 15.25 16.8016 15.25 17.0005V19.0005C15.25 19.0989 15.2695 19.1964 15.3072 19.2873C15.3449 19.3782 15.4002 19.4608 15.4698 19.5304C15.5395 19.5999 15.6222 19.6551 15.7131 19.6927C15.8041 19.7303 15.9016 19.7496 16 19.7495Z" fill="black"/>
<path d="M20 19.7495C20.1989 19.7495 20.3896 19.6704 20.5303 19.5298C20.6709 19.3891 20.75 19.1984 20.75 18.9995V11.0005C20.75 10.8016 20.671 10.6108 20.5303 10.4702C20.3897 10.3295 20.1989 10.2505 20 10.2505C19.8011 10.2505 19.6103 10.3295 19.4697 10.4702C19.329 10.6108 19.25 10.8016 19.25 11.0005V19.0005C19.25 19.0989 19.2695 19.1964 19.3072 19.2873C19.3449 19.3782 19.4002 19.4608 19.4698 19.5304C19.5395 19.5999 19.6222 19.6551 19.7131 19.6927C19.8041 19.7303 19.9016 19.7496 20 19.7495Z" fill="black"/>
</svg>
