<svg xmlns="http://www.w3.org/2000/svg" width="32" height="32" viewBox="0 0 32 32"><path d="M16.1999 19.2202H15.3999V23.1202H16.1999C17.1999 23.1202 17.6999 22.4202 17.7999 21.1202C17.7999 20.4202 17.5999 19.9202 17.2999 19.6202C16.9999 19.3202 16.5999 19.2202 16.1999 19.2202ZM10.6999 19.2202H9.8999V21.2202H10.6999C11.3999 21.2202 11.7999 20.8202 11.7999 20.2202C11.7999 19.5202 11.3999 19.2202 10.6999 19.2202Z M23 2.5H9C6.5 2.5 4.5 4.5 4.5 7V25C4.5 27.5 6.5 29.5 9 29.5H23C25.5 29.5 27.5 27.5 27.5 25V7C27.5 4.5 25.5 2.5 23 2.5ZM12.5 21.7C12.1 22 11.5 22.1 10.7 22.1H9.9V24H8.6V18.2H10.7C11.6 18.2 12.2 18.4 12.7 18.8C13 19.1 13.2 19.6 13.2 20.2C13.2 20.9 13 21.4 12.5 21.7ZM16.2 24H14V18.2H16.2C18.1 18.2 19.1 19.2 19.1 21.1C19.1 23 18.1 24 16.2 24ZM23.7 19.2H21.4V20.7H23.4V21.7H21.4V24H20V18.2H23.7V19.2Z"/></svg>