<svg width="32" height="32" viewBox="0 0 32 32" fill="none" xmlns="http://www.w3.org/2000/svg">
<path d="M23 2.49974H9C7.80693 2.50105 6.66309 2.97557 5.81946 3.8192C4.97583 4.66283 4.5013 5.80667 4.5 6.99974V24.9997C4.5013 26.1928 4.97583 27.3367 5.81946 28.1803C6.66309 29.0239 7.80693 29.4984 9 29.4997H23C24.1931 29.4984 25.3369 29.0239 26.1805 28.1803C27.0242 27.3367 27.4987 26.1928 27.5 24.9997V6.99974C27.4987 5.80667 27.0242 4.66283 26.1805 3.8192C25.3369 2.97557 24.1931 2.50104 23 2.49974ZM19.6054 23.9822H17.5302L14.122 17.8513V23.9822H12.3935V15.3435H14.6259L17.8896 21.2458V15.3435H19.6054V23.9822Z" fill="black"/>
</svg>
