<svg width="32" height="32" viewBox="0 0 32 32" fill="none" xmlns="http://www.w3.org/2000/svg">
<path d="M22.9956 2H8.97992C8.3186 1.99763 7.66347 2.12746 7.05303 2.38187C6.44259 2.63627 5.88915 3.01013 5.42524 3.48145C4.96687 3.94073 4.60475 4.48686 4.36009 5.08785C4.11543 5.68884 3.99316 6.33261 4.00043 6.98145V24.9707C3.99236 25.6292 4.11528 26.2827 4.36204 26.8933C4.60881 27.5039 4.97449 28.0593 5.43783 28.5273C5.90117 28.9953 6.45293 29.3665 7.06101 29.6193C7.6691 29.8721 8.32138 30.0015 8.97992 30H22.9956C24.3218 29.9991 25.5936 29.4722 26.5319 28.5349C27.4701 27.5975 27.9983 26.3263 28.0004 25V7C27.9983 5.67374 27.4701 4.40249 26.5319 3.46514C25.5936 2.52778 24.3218 2.00087 22.9956 2ZM6.84711 4.8877C7.12562 4.6052 7.45773 4.38116 7.82398 4.22872C8.19023 4.07629 8.58323 3.99853 8.97992 4H22.9956C23.7916 4.00018 24.5551 4.31616 25.1184 4.87859C25.6817 5.44102 25.999 6.20396 26.0004 7V20.8469C25.7735 20.7657 25.5658 20.6383 25.3906 20.4727C25.2155 20.307 25.0766 20.1069 24.9829 19.8848L23.2036 15.4698C22.8811 14.7331 22.3503 14.1069 21.6765 13.6681C21.0026 13.2293 20.2152 12.9971 19.4111 13.0001C18.6069 13.0031 17.8213 13.2412 17.1507 13.685C16.4802 14.1288 15.9541 14.7591 15.6372 15.4981L13.8813 19.8672C13.7452 20.2394 13.4864 20.5543 13.1476 20.76C12.8088 20.9657 12.4101 21.05 12.017 20.999C11.5907 21.0157 11.1688 20.9085 10.8021 20.6905C10.4354 20.4725 10.1396 20.153 9.95063 19.7705L8.82563 16.6758C8.59373 16.0574 8.21568 15.5043 7.72373 15.0636C7.23178 14.623 6.64053 14.3079 6.00043 14.1452V6.97071C5.9957 6.58461 6.06816 6.20147 6.21356 5.84376C6.35895 5.48606 6.57436 5.16101 6.84711 4.8877ZM22.9956 28H8.97992C8.58497 28.0014 8.19371 27.9239 7.82904 27.7722C7.46438 27.6205 7.13364 27.3976 6.85619 27.1165C6.57874 26.8354 6.36014 26.5018 6.2132 26.1352C6.06626 25.7686 5.99393 25.3763 6.00043 24.9814V16.2722C6.44125 16.5079 6.77934 16.8982 6.94965 17.3682L8.07465 20.4639C8.39089 21.2298 8.9317 21.8819 9.62585 22.3345C10.32 22.787 11.1349 23.0187 11.9633 22.999C12.7585 23.05 13.5495 22.8498 14.2246 22.4265C14.8996 22.0033 15.4245 21.3785 15.725 20.6406L17.4809 16.2724C17.6454 15.8965 17.9152 15.5763 18.2578 15.3505C18.6005 15.1246 19.0012 15.0029 19.4115 15C19.8218 14.9971 20.2242 15.1132 20.57 15.3342C20.9157 15.5551 21.1901 15.8715 21.3598 16.2451L23.1391 20.6592C23.3917 21.2422 23.7855 21.7531 24.2851 22.1458C24.7847 22.5384 25.3742 22.8004 26.0004 22.9081V25C25.999 25.796 25.6817 26.559 25.1184 27.1214C24.5551 27.6838 23.7916 27.9998 22.9956 28Z" fill="black"/>
</svg>
