<svg xmlns="http://www.w3.org/2000/svg" width="32" height="32" viewBox="0 0 32 32"><path d="M23 2H9C7.6744 2.00159 6.40356 2.52888 5.46622 3.46622C4.52888 4.40356 4.00159 5.6744 4 7V25C4.00159 26.3256 4.52888 27.5964 5.46622 28.5338C6.40356 29.4711 7.6744 29.9984 9 30H23C24.3256 29.9984 25.5964 29.4711 26.5338 28.5338C27.4711 27.5964 27.9984 26.3256 28 25V7C27.9984 5.6744 27.4711 4.40356 26.5338 3.46622C25.5964 2.52888 24.3256 2.00159 23 2ZM26 25C25.9992 25.7954 25.6829 26.558 25.1204 27.1204C24.558 27.6829 23.7954 27.9992 23 28H9C8.20459 27.9992 7.44199 27.6829 6.87956 27.1204C6.31712 26.558 6.00079 25.7954 6 25V7C6.00079 6.20459 6.31712 5.44199 6.87956 4.87956C7.44199 4.31712 8.20459 4.00079 9 4H23C23.7954 4.00079 24.558 4.31712 25.1204 4.87956C25.6829 5.44199 25.9992 6.20459 26 7V25Z M16 24C16.3315 24 16.6495 23.8683 16.8839 23.6339C17.1183 23.3995 17.25 23.0815 17.25 22.75C17.25 22.4185 17.1183 22.1005 16.8839 21.8661C16.6495 21.6317 16.3315 21.5 16 21.5C15.6685 21.5 15.3505 21.6317 15.1161 21.8661C14.8817 22.1005 14.75 22.4185 14.75 22.75C14.75 23.0815 14.8817 23.3995 15.1161 23.6339C15.3505 23.8683 15.6685 24 16 24ZM16 10C14.9364 10.0045 13.9179 10.4307 13.1681 11.185C12.4182 11.9394 11.9981 12.9604 12 14.024C12 14.2892 12.1054 14.5436 12.2929 14.7311C12.4804 14.9186 12.7348 15.024 13 15.024C13.2652 15.024 13.5196 14.9186 13.7071 14.7311C13.8946 14.5436 14 14.2892 14 14.024C14 13.4936 14.2107 12.9849 14.5858 12.6098C14.9609 12.2347 15.4696 12.024 16 12.024C16.5304 12.024 17.0391 12.2347 17.4142 12.6098C17.7893 12.9849 18 13.4936 18 14.024C17.9968 14.5514 17.7844 15.056 17.4094 15.4269C17.0344 15.7978 16.5274 16.0047 16 16.002C15.7349 16.0023 15.4807 16.1077 15.2932 16.2952C15.1057 16.4827 15.0003 16.7369 15 17.002V19C15 19.2652 15.1054 19.5196 15.2929 19.7071C15.4804 19.8946 15.7348 20 16 20C16.2652 20 16.5196 19.8946 16.7071 19.7071C16.8947 19.5196 17 19.2652 17 19V17.876C17.9423 17.6318 18.7632 17.0525 19.3092 16.2467C19.8552 15.4408 20.0887 14.4636 19.9661 13.4979C19.8435 12.5323 19.3731 11.6444 18.6431 11.0006C17.9131 10.3567 16.9734 10.001 16 10Z"/></svg>