<svg width="32" height="32" viewBox="0 0 32 32" fill="none" xmlns="http://www.w3.org/2000/svg">
<path d="M23.0005 2H9.00049C7.67488 2.00155 6.40402 2.52884 5.46667 3.46618C4.52932 4.40353 4.00204 5.67439 4.00049 7V25C4.00204 26.3256 4.52932 27.5965 5.46667 28.5338C6.40402 29.4712 7.67488 29.9984 9.00049 30H23.0005C24.3261 29.9984 25.597 29.4712 26.5343 28.5338C27.4716 27.5965 27.9989 26.3256 28.0005 25V7C27.9989 5.6744 27.4716 4.40353 26.5343 3.46618C25.597 2.52884 24.3261 2.00156 23.0005 2ZM26.0005 25C25.9996 25.7954 25.6833 26.5579 25.1208 27.1204C24.5584 27.6828 23.7959 27.9991 23.0005 28H9.00049C8.20511 27.9991 7.44255 27.6828 6.88013 27.1204C6.31771 26.5579 6.00136 25.7954 6.00049 25V7C6.00136 6.20462 6.31771 5.44206 6.88013 4.87964C7.44255 4.31722 8.20511 4.00087 9.00049 4H23.0005C23.7959 4.00087 24.5584 4.31722 25.1208 4.87964C25.6833 5.44206 25.9996 6.20462 26.0005 7V25Z" fill="black"/>
<path d="M16.0001 24C16.6904 24 17.2501 23.4404 17.2501 22.75C17.2501 22.0597 16.6904 21.5 16.0001 21.5C15.3097 21.5 14.7501 22.0597 14.7501 22.75C14.7501 23.4404 15.3097 24 16.0001 24Z" fill="black"/>
<path d="M16.0005 10C14.9368 10.0044 13.9182 10.4306 13.1683 11.1851C12.4184 11.9396 11.9984 12.9607 12.0005 14.0244C12.0005 14.2896 12.1058 14.544 12.2934 14.7315C12.4809 14.9191 12.7353 15.0244 13.0005 15.0244C13.2657 15.0244 13.5201 14.9191 13.7076 14.7315C13.8951 14.544 14.0005 14.2896 14.0005 14.0244C13.9972 13.7597 14.0466 13.497 14.1456 13.2515C14.2447 13.006 14.3915 12.7826 14.5775 12.5943C14.7636 12.406 14.9851 12.2564 15.2294 12.1544C15.4737 12.0523 15.7358 11.9998 16.0005 11.9998C16.2652 11.9998 16.5273 12.0523 16.7716 12.1544C17.0158 12.2564 17.2374 12.406 17.4234 12.5943C17.6095 12.7826 17.7563 13.006 17.8553 13.2515C17.9544 13.497 18.0037 13.7597 18.0005 14.0244C17.9969 14.5517 17.7844 15.056 17.4094 15.4267C17.0345 15.7975 16.5278 16.0043 16.0005 16.0019C15.8691 16.0019 15.7391 16.0277 15.6177 16.0779C15.4964 16.1281 15.3861 16.2018 15.2932 16.2947C15.2003 16.3875 15.1267 16.4978 15.0765 16.6192C15.0262 16.7405 15.0004 16.8706 15.0005 17.0019V19C15.0005 19.2652 15.1058 19.5196 15.2934 19.7071C15.4809 19.8946 15.7353 20 16.0005 20C16.2657 20 16.5201 19.8946 16.7076 19.7071C16.8951 19.5196 17.0005 19.2652 17.0005 19V17.876C17.9433 17.6323 18.7648 17.0532 19.3113 16.2472C19.8577 15.4412 20.0915 14.4636 19.9688 13.4976C19.8462 12.5316 19.3755 11.6435 18.645 10.9996C17.9145 10.3558 16.9742 10.0004 16.0005 10Z" fill="black"/>
</svg>
