<svg xmlns="http://www.w3.org/2000/svg" width="32" height="32" viewBox="0 0 32 32"><path d="M25 7.25H16.922C16.7389 7.24267 16.5595 7.19643 16.3957 7.11436C16.2319 7.03228 16.0875 6.91626 15.972 6.774L15.257 5.931C14.8115 5.40384 14.2564 4.9803 13.6302 4.68995C13.0041 4.3996 12.3222 4.24946 11.632 4.25H7C5.74063 4.25133 4.53322 4.75219 3.6427 5.64271C2.75219 6.53322 2.25132 7.74063 2.25 9V23C2.25132 24.2594 2.75219 25.4668 3.6427 26.3573C4.53322 27.2478 5.74063 27.7487 7 27.75H25C26.2594 27.7487 27.4668 27.2478 28.3573 26.3573C29.2478 25.4668 29.7487 24.2594 29.75 23V11.96C29.7431 10.706 29.2392 9.50595 28.3487 8.62299C27.4583 7.74004 26.254 7.24628 25 7.25ZM7 5.75H11.632C12.1042 5.74966 12.5707 5.85239 12.999 6.05102C13.4274 6.24964 13.8072 6.53938 14.112 6.9L14.83 7.746C15.0854 8.05467 15.4046 8.30428 15.7658 8.47762C16.127 8.65095 16.5214 8.74388 16.922 8.75H25C25.8565 8.74574 26.6797 9.08143 27.289 9.68342C27.8983 10.2854 28.2439 11.1045 28.25 11.961V13.261L3.75 13.242V9C3.75106 8.13837 4.09381 7.31234 4.70307 6.70307C5.31234 6.09381 6.13837 5.75106 7 5.75ZM25 26.25H7C6.13837 26.2489 5.31234 25.9062 4.70307 25.2969C4.09381 24.6877 3.75106 23.8616 3.75 23V14.742L28.25 14.761V23C28.2489 23.8616 27.9062 24.6877 27.2969 25.2969C26.6877 25.9062 25.8616 26.2489 25 26.25Z"/></svg>