<svg xmlns="http://www.w3.org/2000/svg" width="32" height="32" viewBox="0 0 32 32"><path d="M23 2H9C7.6744 2.00159 6.40356 2.52888 5.46622 3.46622C4.52888 4.40356 4.00159 5.6744 4 7V25C4.00159 26.3256 4.52888 27.5964 5.46622 28.5338C6.40356 29.4711 7.6744 29.9984 9 30H23C24.3257 29.9987 25.5967 29.4715 26.5341 28.5341C27.4715 27.5967 27.9987 26.3257 28 25V7C27.9984 5.6744 27.4711 4.40356 26.5338 3.46622C25.5964 2.52888 24.3256 2.00159 23 2ZM26 25C25.9992 25.7954 25.6829 26.558 25.1204 27.1204C24.558 27.6829 23.7954 27.9992 23 28H11V25C11 24.7348 10.8946 24.4804 10.7071 24.2929C10.5196 24.1054 10.2652 24 10 24C9.73478 24 9.48043 24.1054 9.29289 24.2929C9.10536 24.4804 9 24.7348 9 25V28C8.20459 27.9992 7.44199 27.6829 6.87956 27.1204C6.31712 26.558 6.00079 25.7954 6 25V7C6.00079 6.20459 6.31712 5.44199 6.87956 4.87956C7.44199 4.31712 8.20459 4.00079 9 4V7C9 7.26522 9.10536 7.51957 9.29289 7.70711C9.48043 7.89464 9.73478 8 10 8C10.2652 8 10.5196 7.89464 10.7071 7.70711C10.8946 7.51957 11 7.26522 11 7V4H23C23.7954 4.00079 24.558 4.31712 25.1204 4.87956C25.6829 5.44199 25.9992 6.20459 26 7V25Z M10 17C9.86861 16.9997 9.73845 17.0254 9.61701 17.0756C9.49556 17.1257 9.38522 17.1994 9.29231 17.2923C9.1994 17.3852 9.12575 17.4956 9.07559 17.617C9.02542 17.7385 8.99974 17.8686 9 18V21C9 21.2652 9.10536 21.5196 9.2929 21.7071C9.48043 21.8946 9.73479 22 10 22C10.2652 22 10.5196 21.8946 10.7071 21.7071C10.8946 21.5196 11 21.2652 11 21V18C11.0003 17.8686 10.9746 17.7385 10.9244 17.617C10.8743 17.4956 10.8006 17.3852 10.7077 17.2923C10.6148 17.1994 10.5044 17.1257 10.383 17.0756C10.2616 17.0254 10.1314 16.9997 10 17ZM10 10C9.73479 10 9.48043 10.1054 9.2929 10.2929C9.10536 10.4804 9 10.7348 9 11V14C9 14.2652 9.10536 14.5196 9.2929 14.7071C9.48043 14.8946 9.73479 15 10 15C10.2652 15 10.5196 14.8946 10.7071 14.7071C10.8946 14.5196 11 14.2652 11 14V11C11.0003 10.8686 10.9746 10.7385 10.9244 10.617C10.8743 10.4956 10.8006 10.3852 10.7077 10.2923C10.6148 10.1994 10.5044 10.1257 10.383 10.0756C10.2616 10.0254 10.1314 9.99974 10 10Z"/></svg>