<svg width="32" height="32" viewBox="0 0 32 32" fill="none" xmlns="http://www.w3.org/2000/svg">
<path d="M22.9996 1.99951H8.99963C7.67403 2.00107 6.40317 2.52836 5.46582 3.4657C4.52848 4.40304 4.00119 5.67391 3.99963 6.99951V24.9995C4.00119 26.3251 4.52848 27.596 5.46582 28.5333C6.40317 29.4707 7.67403 29.998 8.99963 29.9995H22.9996C24.3252 29.998 25.5961 29.4707 26.5334 28.5333C27.4708 27.596 27.9981 26.3251 27.9996 24.9995V6.99951C27.9981 5.67391 27.4708 4.40304 26.5334 3.4657C25.5961 2.52836 24.3252 2.00107 22.9996 1.99951ZM25.9996 24.9995C25.9988 25.7949 25.6824 26.5575 25.12 27.1199C24.5576 27.6823 23.795 27.9986 22.9996 27.9995H8.99963C8.20425 27.9986 7.44169 27.6823 6.87927 27.1199C6.31685 26.5575 6.0005 25.7949 5.99963 24.9995V6.99951C6.0005 6.20413 6.31685 5.44157 6.87927 4.87915C7.44169 4.31673 8.20425 4.00038 8.99963 3.99951H22.9996C23.795 4.00038 24.5576 4.31673 25.12 4.87915C25.6824 5.44157 25.9988 6.20413 25.9996 6.99951V24.9995Z" fill="black"/>
<path d="M21.9996 14.0005H15.9996C15.7344 14.0005 15.4801 14.1058 15.2925 14.2934C15.105 14.4809 14.9996 14.7353 14.9996 15.0005C14.9996 15.2657 15.105 15.5201 15.2925 15.7076C15.4801 15.8951 15.7344 16.0005 15.9996 16.0005H21.9996C22.2649 16.0005 22.5192 15.8951 22.7067 15.7076C22.8943 15.5201 22.9996 15.2657 22.9996 15.0005C22.9996 14.7353 22.8943 14.4809 22.7067 14.2934C22.5192 14.1058 22.2649 14.0005 21.9996 14.0005Z" fill="black"/>
<path d="M11.9996 14.0005H9.99963C9.73442 14.0005 9.48006 14.1058 9.29253 14.2934C9.10499 14.4809 8.99963 14.7353 8.99963 15.0005C8.99963 15.2657 9.10499 15.5201 9.29253 15.7076C9.48006 15.8951 9.73442 16.0005 9.99963 16.0005H11.9996C12.2649 16.0005 12.5192 15.8951 12.7067 15.7076C12.8943 15.5201 12.9996 15.2657 12.9996 15.0005C12.9996 14.7353 12.8943 14.4809 12.7067 14.2934C12.5192 14.1058 12.2649 14.0005 11.9996 14.0005Z" fill="black"/>
<path d="M11.9996 18.0005H9.99963C9.73442 18.0005 9.48006 18.1058 9.29253 18.2934C9.10499 18.4809 8.99963 18.7353 8.99963 19.0005C8.99963 19.2657 9.10499 19.5201 9.29253 19.7076C9.48006 19.8951 9.73442 20.0005 9.99963 20.0005H11.9996C12.2649 20.0005 12.5192 19.8951 12.7067 19.7076C12.8943 19.5201 12.9996 19.2657 12.9996 19.0005C12.9996 18.7353 12.8943 18.4809 12.7067 18.2934C12.5192 18.1058 12.2649 18.0005 11.9996 18.0005Z" fill="black"/>
<path d="M11.9996 22.0005H9.99963C9.73442 22.0005 9.48006 22.1058 9.29253 22.2934C9.10499 22.4809 8.99963 22.7353 8.99963 23.0005C8.99963 23.2657 9.10499 23.5201 9.29253 23.7076C9.48006 23.8951 9.73442 24.0005 9.99963 24.0005H11.9996C12.2649 24.0005 12.5192 23.8951 12.7067 23.7076C12.8943 23.5201 12.9996 23.2657 12.9996 23.0005C12.9996 22.7353 12.8943 22.4809 12.7067 22.2934C12.5192 22.1058 12.2649 22.0005 11.9996 22.0005Z" fill="black"/>
<path d="M21.9996 18.0005H15.9996C15.7344 18.0005 15.4801 18.1058 15.2925 18.2934C15.105 18.4809 14.9996 18.7353 14.9996 19.0005C14.9996 19.2657 15.105 19.5201 15.2925 19.7076C15.4801 19.8951 15.7344 20.0005 15.9996 20.0005H21.9996C22.2649 20.0005 22.5192 19.8951 22.7067 19.7076C22.8943 19.5201 22.9996 19.2657 22.9996 19.0005C22.9996 18.7353 22.8943 18.4809 22.7067 18.2934C22.5192 18.1058 22.2649 18.0005 21.9996 18.0005Z" fill="black"/>
<path d="M21.9996 22.0005H15.9996C15.7344 22.0005 15.4801 22.1058 15.2925 22.2934C15.105 22.4809 14.9996 22.7353 14.9996 23.0005C14.9996 23.2657 15.105 23.5201 15.2925 23.7076C15.4801 23.8951 15.7344 24.0005 15.9996 24.0005H21.9996C22.2649 24.0005 22.5192 23.8951 22.7067 23.7076C22.8943 23.5201 22.9996 23.2657 22.9996 23.0005C22.9996 22.7353 22.8943 22.4809 22.7067 22.2934C22.5192 22.1058 22.2649 22.0005 21.9996 22.0005Z" fill="black"/>
</svg>
