<svg width="32" height="32" viewBox="0 0 32 32" fill="none" xmlns="http://www.w3.org/2000/svg">
<path d="M23.0004 2.49953H9.00037C7.80729 2.50084 6.66346 2.97536 5.81983 3.81899C4.9762 4.66262 4.50167 5.80646 4.50037 6.99953V24.9995C4.50167 26.1926 4.97619 27.3364 5.81982 28.1801C6.66346 29.0237 7.80729 29.4982 9.00037 29.4995H23.0004C24.1934 29.4982 25.3373 29.0237 26.1809 28.1801C27.0245 27.3364 27.4991 26.1926 27.5004 24.9995V6.99953C27.4991 5.80646 27.0245 4.66262 26.1809 3.81899C25.3373 2.97536 24.1934 2.50083 23.0004 2.49953ZM26.5004 24.9995C26.4992 25.9274 26.1301 26.817 25.474 27.4732C24.8179 28.1293 23.9283 28.4984 23.0004 28.4995H9.00037C8.07245 28.4984 7.18287 28.1293 6.52673 27.4732C5.8706 26.817 5.50149 25.9274 5.50037 24.9995V6.99953C5.50149 6.07162 5.8706 5.18203 6.52673 4.5259C7.18287 3.86976 8.07245 3.50065 9.00037 3.49953H23.0004C23.9283 3.50065 24.8179 3.86976 25.474 4.5259C26.1301 5.18203 26.4992 6.07162 26.5004 6.99953V24.9995Z" fill="black"/>
<path d="M22.8978 21.9146C22.7753 21.5069 22.5251 21.1493 22.184 20.8945C21.8429 20.6398 21.429 20.5013 21.0033 20.4996H19.5004V18.4996H21.101C21.3095 18.4982 21.5155 18.4535 21.7058 18.3682C21.8961 18.283 22.0666 18.1591 22.2064 18.0045L23.4096 16.2964C23.486 16.1879 23.5161 16.0535 23.4934 15.9227C23.4707 15.792 23.397 15.6756 23.2885 15.5992C23.18 15.5228 23.0455 15.4926 22.9148 15.5153C22.784 15.538 22.6676 15.6117 22.5912 15.7203L21.4447 17.3619C21.3994 17.4064 21.3456 17.4415 21.2866 17.4651C21.2276 17.4888 21.1645 17.5005 21.101 17.4996H19.5004V16.8306C19.4991 16.4836 19.42 16.1413 19.2688 15.8289C19.1176 15.5165 18.8982 15.2421 18.6268 15.0258L19.4554 13.2066C19.5084 13.0862 19.5117 12.9498 19.4648 12.827C19.4179 12.7041 19.3245 12.6047 19.2048 12.5503C19.0851 12.4958 18.9487 12.4907 18.8253 12.5361C18.7019 12.5814 18.6013 12.6735 18.5453 12.7925L17.7328 14.5761C17.5492 14.5275 17.3602 14.5018 17.1703 14.4996H14.8304C14.6396 14.5018 14.4498 14.5278 14.2654 14.5768L13.4554 12.7925C13.4288 12.7319 13.3904 12.6772 13.3424 12.6316C13.2945 12.586 13.238 12.5503 13.1761 12.5267C13.1143 12.503 13.0484 12.4919 12.9822 12.494C12.916 12.4961 12.8509 12.5112 12.7907 12.5386C12.7304 12.5661 12.6762 12.6052 12.6312 12.6537C12.5862 12.7022 12.5512 12.7592 12.5284 12.8213C12.5056 12.8835 12.4953 12.9495 12.4982 13.0157C12.5011 13.0818 12.5171 13.1467 12.5453 13.2066L13.3718 15.0276C13.101 15.2439 12.8822 15.5181 12.7313 15.8301C12.5805 16.1422 12.5016 16.484 12.5004 16.8306V17.4966H10.8998C10.799 17.4963 10.7 17.4697 10.6127 17.4195L9.40955 15.7114C9.33314 15.6029 9.21676 15.5292 9.08599 15.5065C8.95523 15.4838 8.8208 15.5139 8.71228 15.5904C8.60376 15.6668 8.53004 15.7831 8.50733 15.9139C8.48462 16.0447 8.51478 16.1791 8.59119 16.2876L9.84998 18.0611C9.98742 18.1995 10.151 18.3093 10.3312 18.3841C10.5114 18.4589 10.7047 18.4971 10.8998 18.4966H12.5004V20.4995H10.9965C10.5711 20.5017 10.1576 20.64 9.8167 20.8943C9.47575 21.1487 9.22526 21.5055 9.10198 21.9126L8.52088 23.856C8.48289 23.9832 8.49694 24.1202 8.55993 24.237C8.62292 24.3538 8.7297 24.4409 8.85682 24.479C8.90349 24.4924 8.9518 24.4993 9.00037 24.4995C9.10799 24.4995 9.21275 24.4649 9.29911 24.4007C9.38548 24.3365 9.44886 24.2461 9.47986 24.1431L10.0609 22.1987C10.1197 21.9964 10.2429 21.8187 10.4117 21.6925C10.5805 21.5664 10.7857 21.4986 10.9965 21.4995H12.653C12.8379 22.0769 13.201 22.5808 13.6901 22.939C14.1792 23.2973 14.7691 23.4914 15.3754 23.4936H16.6244C17.2308 23.4916 17.8209 23.2975 18.3102 22.9392C18.7995 22.581 19.1627 22.077 19.3478 21.4995H21.0033C21.2138 21.5006 21.4184 21.5692 21.5869 21.6953C21.7555 21.8213 21.8792 21.9981 21.9398 22.1997L22.5218 24.1431C22.5525 24.2461 22.6156 24.3365 22.7019 24.4008C22.7881 24.465 22.8928 24.4996 23.0003 24.4995C23.049 24.4995 23.0973 24.4922 23.1439 24.478C23.2068 24.4593 23.2654 24.4284 23.3163 24.3869C23.3673 24.3455 23.4095 24.2944 23.4406 24.2366C23.4718 24.1788 23.4912 24.1154 23.4977 24.0501C23.5043 23.9848 23.4979 23.9188 23.4789 23.856L22.8978 21.9146ZM16.6244 22.4937H15.3754C14.8783 22.4932 14.4016 22.2955 14.0501 21.944C13.6985 21.5925 13.5009 21.1158 13.5004 20.6187V16.8306C13.5006 16.4778 13.6408 16.1395 13.8901 15.89C14.1395 15.6404 14.4777 15.5 14.8305 15.4995H17.1703C17.5231 15.5 17.8613 15.6404 18.1107 15.89C18.36 16.1395 18.5002 16.4778 18.5004 16.8306V20.6187C18.4997 21.1159 18.3018 21.5926 17.9501 21.9441C17.5984 22.2956 17.1216 22.4933 16.6244 22.4937Z" fill="black"/>
</svg>
