<svg xmlns="http://www.w3.org/2000/svg" width="32" height="32" viewBox="0 0 32 32"><path d="M14.6001 19.7002H15.8001C16.8001 19.7002 17.4001 19.2002 17.3001 18.2002C17.3001 17.2002 16.8001 16.7002 15.7001 16.7002H14.6001V19.7002Z M23 2.5H9C6.5 2.5 4.5 4.5 4.5 7V25C4.5 27.5 6.5 29.5 9 29.5H23C25.5 29.5 27.5 27.5 27.5 25V7C27.5 4.5 25.5 2.5 23 2.5ZM12.6 15.3H15.7C17.1 15.3 18.1 15.6 18.6 16.1C19.1 16.6 19.4 17.3 19.4 18.2C19.4 19.3 19.1 20 18.4 20.5C17.8 20.9 17 21.1 15.8 21.1H14.6V24H12.6V15.3Z"/></svg>