<svg xmlns="http://www.w3.org/2000/svg" width="32" height="32" viewBox="0 0 32 32"><path d="M23 2H9C7.6744 2.00159 6.40356 2.52888 5.46622 3.46622C4.52888 4.40356 4.00159 5.6744 4 7V25C4.00159 26.3256 4.52888 27.5964 5.46622 28.5338C6.40356 29.4711 7.6744 29.9984 9 30H23C24.3256 29.9984 25.5964 29.4711 26.5338 28.5338C27.4711 27.5964 27.9984 26.3256 28 25V7C27.9984 5.6744 27.4711 4.40356 26.5338 3.46622C25.5964 2.52888 24.3256 2.00159 23 2ZM26 25C25.9992 25.7954 25.6829 26.558 25.1204 27.1204C24.558 27.6829 23.7954 27.9992 23 28H9C8.20459 27.9992 7.44199 27.6829 6.87956 27.1204C6.31712 26.558 6.00079 25.7954 6 25V7C6.00079 6.20459 6.31712 5.44199 6.87956 4.87956C7.44199 4.31712 8.20459 4.00079 9 4H23C23.7954 4.00079 24.558 4.31712 25.1204 4.87956C25.6829 5.44199 25.9992 6.20459 26 7V25Z M18.7541 21.7628L17.1821 15.3428H14.9381L13.4871 21.7268L12.1781 15.3428H10.0901L12.1661 23.9818H14.4581L15.9951 17.3108L17.6021 23.9818H19.9781L21.9111 15.3428H20.0021L18.7541 21.7628Z"/></svg>