<svg width="32" height="32" viewBox="0 0 32 32" fill="none" xmlns="http://www.w3.org/2000/svg">
<path d="M22.9995 1.99953H8.99951C7.67391 2.00109 6.40304 2.52837 5.4657 3.46571C4.52836 4.40306 4.00107 5.67392 3.99951 6.99953V24.9995C4.00107 26.3251 4.52835 27.596 5.4657 28.5333C6.40304 29.4707 7.67391 29.998 8.99951 29.9995H22.9995C24.3251 29.998 25.596 29.4707 26.5333 28.5333C27.4707 27.596 27.998 26.3251 27.9995 24.9995V6.99953C27.998 5.67392 27.4707 4.40306 26.5333 3.46571C25.596 2.52837 24.3251 2.00109 22.9995 1.99953ZM25.9995 24.9995C25.9986 25.7949 25.6823 26.5575 25.1199 27.1199C24.5575 27.6823 23.7949 27.9987 22.9995 27.9995H8.99951C8.20413 27.9987 7.44157 27.6823 6.87915 27.1199C6.31673 26.5575 6.00038 25.7949 5.99951 24.9995V6.99953C6.00038 6.20414 6.31673 5.44159 6.87915 4.87917C7.44157 4.31674 8.20413 4.0004 8.99951 3.99953H22.9995C23.7949 4.0004 24.5575 4.31674 25.1199 4.87917C25.6823 5.44159 25.9986 6.20414 25.9995 6.99953V24.9995Z" fill="black"/>
<path d="M21.3325 13.6441C21.2389 13.1808 20.9881 12.7641 20.6226 12.4644C20.2571 12.1647 19.7993 12.0005 19.3267 11.9995H12.6733C12.2031 11.9998 11.7472 12.1619 11.3824 12.4588C11.0177 12.7556 10.7662 13.169 10.6704 13.6294L10.0405 16.5523C9.9809 16.8491 9.98795 17.1555 10.0611 17.4492C10.1343 17.743 10.2719 18.0169 10.4638 18.251C10.6557 18.4852 10.8972 18.6738 11.1709 18.8032C11.4446 18.9327 11.7436 18.9997 12.0464 18.9995H14.9995V21.9995C14.7343 21.9995 14.4799 22.1049 14.2924 22.2924C14.1049 22.48 13.9995 22.7343 13.9995 22.9995C13.9995 23.2647 14.1049 23.5191 14.2924 23.7066C14.4799 23.8942 14.7343 23.9995 14.9995 23.9995H16.9995C17.2647 23.9995 17.5191 23.8942 17.7066 23.7066C17.8942 23.5191 17.9995 23.2647 17.9995 22.9995C17.9995 22.7343 17.8942 22.48 17.7066 22.2924C17.5191 22.1049 17.2647 21.9995 16.9995 21.9995V18.9995H19.9536C20.2576 18.9997 20.5579 18.9321 20.8325 18.8016C21.107 18.6711 21.3491 18.481 21.5409 18.2452C21.7328 18.0094 21.8697 17.7337 21.9416 17.4383C22.0135 17.143 22.0186 16.8352 21.9565 16.5376L21.3325 13.6441ZM19.9536 16.9995L11.9985 16.9595L12.6733 13.9995L19.3745 14.0513L19.9897 16.9829C19.9855 16.9884 19.98 16.9928 19.9737 16.9957C19.9674 16.9985 19.9605 16.9999 19.9536 16.9995Z" fill="black"/>
</svg>
