<svg xmlns="http://www.w3.org/2000/svg" width="32" height="32" viewBox="0 0 32 32"><path d="M23 2.5H9C7.80693 2.50132 6.66311 2.97585 5.81948 3.81948C4.97585 4.66311 4.50132 5.80693 4.5 7V25C4.50132 26.1931 4.97585 27.3369 5.81948 28.1805C6.66311 29.0241 7.80693 29.4987 9 29.5H23C24.1931 29.4989 25.3371 29.0245 26.1808 28.1808C27.0245 27.3371 27.4989 26.1931 27.5 25V7C27.4987 5.80693 27.0241 4.66311 26.1805 3.81948C25.3369 2.97585 24.1931 2.50132 23 2.5ZM26.5 25C26.4989 25.9279 26.1299 26.8176 25.4737 27.4737C24.8176 28.1299 23.9279 28.4989 23 28.5H9C8.07207 28.4989 7.18244 28.1299 6.5263 27.4737C5.87015 26.8176 5.50106 25.9279 5.5 25V7C5.50106 6.07207 5.87015 5.18244 6.5263 4.5263C7.18244 3.87015 8.07207 3.50106 9 3.5H23C23.9279 3.50106 24.8176 3.87015 25.4737 4.5263C26.1299 5.18244 26.4989 6.07207 26.5 7V25Z M12.9041 15.3579H15.7121C16.8721 15.3579 17.7441 15.6299 18.3281 16.1739C18.8401 16.6539 19.0961 17.3179 19.0961 18.1659C19.0961 19.1099 18.7681 19.8179 18.1121 20.2899C17.5281 20.7059 16.7121 20.9139 15.6641 20.9139H14.1281V23.9979H12.9041V15.3579ZM15.7361 16.3539H14.1281V19.9179H15.6881C16.4801 19.9179 17.0481 19.7459 17.3921 19.4019C17.6801 19.1219 17.8241 18.7099 17.8241 18.1659C17.8241 17.5499 17.6201 17.0859 17.2121 16.7739C16.8521 16.4939 16.3601 16.3539 15.7361 16.3539Z"/></svg>