<svg xmlns="http://www.w3.org/2000/svg" width="32" height="32" viewBox="0 0 32 32"><path d="M23 2.5H9C7.80693 2.50132 6.66311 2.97585 5.81948 3.81948C4.97585 4.66311 4.50132 5.80693 4.5 7V25C4.50132 26.1931 4.97585 27.3369 5.81948 28.1805C6.66311 29.0241 7.80693 29.4987 9 29.5H23C24.1931 29.4989 25.3371 29.0245 26.1808 28.1808C27.0245 27.3371 27.4989 26.1931 27.5 25V7C27.4987 5.80693 27.0241 4.66311 26.1805 3.81948C25.3369 2.97585 24.1931 2.50132 23 2.5ZM26.5 25C26.4989 25.9279 26.1299 26.8176 25.4737 27.4737C24.8176 28.1299 23.9279 28.4989 23 28.5H9C8.07207 28.4989 7.18244 28.1299 6.5263 27.4737C5.87015 26.8176 5.50106 25.9279 5.5 25V7C5.50106 6.07207 5.87015 5.18244 6.5263 4.5263C7.18244 3.87015 8.07207 3.50106 9 3.5H23C23.9279 3.50106 24.8176 3.87015 25.4737 4.5263C26.1299 5.18244 26.4989 6.07207 26.5 7V25Z M22 14.5H10C9.86739 14.5 9.74021 14.5527 9.64645 14.6464C9.55268 14.7402 9.5 14.8674 9.5 15C9.5 15.1326 9.55268 15.2598 9.64645 15.3536C9.74021 15.4473 9.86739 15.5 10 15.5H22C22.1326 15.5 22.2598 15.4473 22.3536 15.3536C22.4473 15.2598 22.5 15.1326 22.5 15C22.5 14.8674 22.4473 14.7402 22.3536 14.6464C22.2598 14.5527 22.1326 14.5 22 14.5ZM22 18.5H10C9.86739 18.5 9.74021 18.5527 9.64645 18.6464C9.55268 18.7402 9.5 18.8674 9.5 19C9.5 19.1326 9.55268 19.2598 9.64645 19.3536C9.74021 19.4473 9.86739 19.5 10 19.5H22C22.1326 19.5 22.2598 19.4473 22.3536 19.3536C22.4473 19.2598 22.5 19.1326 22.5 19C22.5 18.8674 22.4473 18.7402 22.3536 18.6464C22.2598 18.5527 22.1326 18.5 22 18.5ZM17 22.5H10.002C9.86939 22.5 9.74222 22.5527 9.64845 22.6464C9.55468 22.7402 9.502 22.8674 9.502 23C9.502 23.1326 9.55468 23.2598 9.64845 23.3536C9.74222 23.4473 9.86939 23.5 10.002 23.5H17C17.1326 23.5 17.2598 23.4473 17.3536 23.3536C17.4473 23.2598 17.5 23.1326 17.5 23C17.5 22.8674 17.4473 22.7402 17.3536 22.6464C17.2598 22.5527 17.1326 22.5 17 22.5Z"/></svg>