<svg width="32" height="32" viewBox="0 0 32 32" fill="none" xmlns="http://www.w3.org/2000/svg">
<path d="M22.9999 2.50023H10.9999V6.99923C10.9999 7.26444 10.8945 7.5188 10.707 7.70634C10.5194 7.89387 10.2651 7.99923 9.99988 7.99923C9.73466 7.99923 9.48031 7.89387 9.29277 7.70634C9.10524 7.5188 8.99988 7.26444 8.99988 6.99923V2.50023C7.8068 2.50153 6.66297 2.97605 5.81933 3.81968C4.9757 4.66332 4.50118 5.80715 4.49988 7.00023V25.0002C4.50118 26.1933 4.9757 27.3371 5.81934 28.1808C6.66297 29.0244 7.8068 29.4989 8.99988 29.5002V25.0002C8.99988 24.735 9.10524 24.4807 9.29277 24.2931C9.48031 24.1056 9.73466 24.0002 9.99988 24.0002C10.2651 24.0002 10.5194 24.1056 10.707 24.2931C10.8945 24.4807 10.9999 24.735 10.9999 25.0002V29.5002H22.9999C24.193 29.4989 25.3368 29.0244 26.1804 28.1808C27.024 27.3371 27.4986 26.1933 27.4999 25.0002V7.00023C27.4986 5.80715 27.0241 4.66332 26.1804 3.81969C25.3368 2.97606 24.193 2.50153 22.9999 2.50023ZM10.9999 21.0012C10.9999 21.2664 10.8945 21.5208 10.707 21.7083C10.5194 21.8959 10.2651 22.0012 9.99988 22.0012C9.73466 22.0012 9.48031 21.8959 9.29277 21.7083C9.10524 21.5208 8.99988 21.2664 8.99988 21.0012V18.0012C8.99988 17.736 9.10524 17.4817 9.29277 17.2941C9.48031 17.1066 9.73466 17.0012 9.99988 17.0012C10.2651 17.0012 10.5194 17.1066 10.707 17.2941C10.8945 17.4817 10.9999 17.736 10.9999 18.0012V21.0012ZM10.9999 14.0002C10.9999 14.2654 10.8945 14.5198 10.707 14.7073C10.5194 14.8949 10.2651 15.0002 9.99988 15.0002C9.73466 15.0002 9.48031 14.8949 9.29277 14.7073C9.10524 14.5198 8.99988 14.2654 8.99988 14.0002V11.0002C8.99988 10.735 9.10524 10.4807 9.29277 10.2931C9.48031 10.1056 9.73466 10.0002 9.99988 10.0002C10.2651 10.0002 10.5194 10.1056 10.707 10.2931C10.8945 10.4807 10.9999 10.735 10.9999 11.0002V14.0002Z" fill="black"/>
</svg>
