<svg xmlns="http://www.w3.org/2000/svg" width="32" height="32" viewBox="0 0 32 32"><path d="M23 2.25H9C7.74063 2.25132 6.53322 2.75219 5.6427 3.6427C4.75219 4.53322 4.25132 5.74063 4.25 7V25C4.25159 26.2593 4.75254 27.4666 5.643 28.357C6.53345 29.2475 7.74071 29.7484 9 29.75H23C24.2594 29.7487 25.4668 29.2478 26.3573 28.3573C27.2478 27.4668 27.7487 26.2594 27.75 25V7C27.7487 5.74063 27.2478 4.53322 26.3573 3.6427C25.4668 2.75219 24.2594 2.25132 23 2.25ZM26.25 25C26.2489 25.8616 25.9062 26.6877 25.2969 27.2969C24.6877 27.9062 23.8616 28.2489 23 28.25H9C8.13837 28.2489 7.31234 27.9062 6.70307 27.2969C6.09381 26.6877 5.75106 25.8616 5.75 25V7C5.75106 6.13837 6.09381 5.31234 6.70307 4.70307C7.31234 4.09381 8.13837 3.75106 9 3.75H23C23.8616 3.75106 24.6877 4.09381 25.2969 4.70307C25.9062 5.31234 26.2489 6.13837 26.25 7V25Z M22 14.25H10C9.80109 14.25 9.61032 14.329 9.46967 14.4697C9.32902 14.6103 9.25 14.8011 9.25 15C9.25 15.1989 9.32902 15.3897 9.46967 15.5303C9.61032 15.671 9.80109 15.75 10 15.75H22C22.1989 15.75 22.3897 15.671 22.5303 15.5303C22.671 15.3897 22.75 15.1989 22.75 15C22.75 14.8011 22.671 14.6103 22.5303 14.4697C22.3897 14.329 22.1989 14.25 22 14.25ZM22 18.25H10C9.80109 18.25 9.61032 18.329 9.46967 18.4697C9.32902 18.6103 9.25 18.8011 9.25 19C9.25 19.1989 9.32902 19.3897 9.46967 19.5303C9.61032 19.671 9.80109 19.75 10 19.75H22C22.1989 19.75 22.3897 19.671 22.5303 19.5303C22.671 19.3897 22.75 19.1989 22.75 19C22.75 18.8011 22.671 18.6103 22.5303 18.4697C22.3897 18.329 22.1989 18.25 22 18.25ZM17 22.25H10.002C9.80309 22.25 9.61232 22.329 9.47167 22.4697C9.33102 22.6103 9.252 22.8011 9.252 23C9.252 23.1989 9.33102 23.3897 9.47167 23.5303C9.61232 23.671 9.80309 23.75 10.002 23.75H17C17.1989 23.75 17.3897 23.671 17.5303 23.5303C17.671 23.3897 17.75 23.1989 17.75 23C17.75 22.8011 17.671 22.6103 17.5303 22.4697C17.3897 22.329 17.1989 22.25 17 22.25Z"/></svg>