<svg xmlns="http://www.w3.org/2000/svg" width="32" height="32" viewBox="0 0 32 32"><path d="M23 2.5H9C7.80693 2.50132 6.66311 2.97585 5.81948 3.81948C4.97585 4.66311 4.50132 5.80693 4.5 7V25C4.50132 26.1931 4.97585 27.3369 5.81948 28.1805C6.66311 29.0241 7.80693 29.4987 9 29.5H23C24.1931 29.4987 25.3369 29.0241 26.1805 28.1805C27.0241 27.3369 27.4987 26.1931 27.5 25V7C27.4987 5.80693 27.0241 4.66311 26.1805 3.81948C25.3369 2.97585 24.1931 2.50132 23 2.5ZM26.5 25C26.4987 25.9279 26.1295 26.8173 25.4734 27.4734C24.8173 28.1295 23.9279 28.4987 23 28.5H9C8.07207 28.4989 7.18244 28.1299 6.5263 27.4737C5.87015 26.8176 5.50106 25.9279 5.5 25V7C5.50106 6.07207 5.87015 5.18244 6.5263 4.5263C7.18244 3.87015 8.07207 3.50106 9 3.5H23C23.9279 3.50106 24.8176 3.87015 25.4737 4.5263C26.1299 5.18244 26.4989 6.07207 26.5 7V25Z M20.915 10.8122C20.7324 10.6709 20.5195 10.5739 20.2931 10.5288C20.0666 10.4837 19.8328 10.4917 19.61 10.5522L13.618 12.2322C13.2975 12.3166 13.0141 12.5047 12.8118 12.7672C12.6095 13.0297 12.4999 13.3518 12.5 13.6832V19.7782C12.1786 19.5879 11.8099 19.4925 11.4365 19.5029C11.0631 19.5133 10.7003 19.6292 10.39 19.8372C10.1026 20.0289 9.86984 20.2918 9.71428 20.6002C9.55871 20.9087 9.48569 21.2521 9.50232 21.5972C9.51895 21.9422 9.62467 22.2771 9.80917 22.5691C9.99368 22.8612 10.2507 23.1004 10.5551 23.2636C10.8596 23.4268 11.2012 23.5084 11.5465 23.5004C11.8919 23.4923 12.2292 23.395 12.5258 23.2178C12.8223 23.0406 13.0679 22.7897 13.2387 22.4894C13.4094 22.1891 13.4994 21.8496 13.5 21.5042V13.6832C13.5004 13.5716 13.538 13.4634 13.6068 13.3755C13.6757 13.2877 13.7718 13.2253 13.88 13.1982L19.872 11.5182C19.9458 11.4986 20.0232 11.4963 20.098 11.5112C20.1729 11.5262 20.2434 11.5582 20.304 11.6046C20.3647 11.651 20.4139 11.7107 20.4478 11.7791C20.4818 11.8476 20.4996 11.9228 20.5 11.9992V17.7772C20.1972 17.5976 19.852 17.502 19.5 17.5002C19.1044 17.5002 18.7178 17.6175 18.3889 17.8373C18.06 18.057 17.8036 18.3694 17.6522 18.7348C17.5009 19.1003 17.4613 19.5024 17.5384 19.8904C17.6156 20.2783 17.8061 20.6347 18.0858 20.9144C18.3655 21.1941 18.7219 21.3846 19.1098 21.4618C19.4978 21.5389 19.8999 21.4993 20.2654 21.348C20.6308 21.1966 20.9432 20.9402 21.1629 20.6113C21.3827 20.2824 21.5 19.8958 21.5 19.5002C21.5 19.4832 21.495 19.4682 21.495 19.4502C21.495 19.4422 21.5 19.4342 21.5 19.4242V12.0002C21.5008 11.7706 21.4484 11.5439 21.3469 11.338C21.2454 11.132 21.0976 10.9524 20.915 10.8132V10.8122Z"/></svg>