<svg xmlns="http://www.w3.org/2000/svg" width="32" height="32" viewBox="0 0 32 32"><path d="M23 2.5H9C7.80693 2.50132 6.66311 2.97585 5.81948 3.81948C4.97585 4.66311 4.50132 5.80693 4.5 7V25C4.50132 26.1931 4.97585 27.3369 5.81948 28.1805C6.66311 29.0241 7.80693 29.4987 9 29.5H23C24.1931 29.4989 25.3371 29.0245 26.1808 28.1808C27.0245 27.3371 27.4989 26.1931 27.5 25V7C27.4987 5.80693 27.0241 4.66311 26.1805 3.81948C25.3369 2.97585 24.1931 2.50132 23 2.5ZM26.5 25C26.4989 25.9279 26.1299 26.8176 25.4737 27.4737C24.8176 28.1299 23.9279 28.4989 23 28.5H9C8.07207 28.4989 7.18244 28.1299 6.5263 27.4737C5.87015 26.8176 5.50106 25.9279 5.5 25V7C5.50106 6.07207 5.87015 5.18244 6.5263 4.5263C7.18244 3.87015 8.07207 3.50106 9 3.5H23C23.9279 3.50106 24.8176 3.87015 25.4737 4.5263C26.1299 5.18244 26.4989 6.07207 26.5 7V25Z M22 20.5H18C17.8674 20.5 17.7402 20.5527 17.6464 20.6464C17.5527 20.7402 17.5 20.8674 17.5 21V24C17.5 24.1326 17.5527 24.2598 17.6464 24.3536C17.7402 24.4473 17.8674 24.5 18 24.5H22C22.1326 24.5 22.2598 24.4473 22.3536 24.3536C22.4473 24.2598 22.5 24.1326 22.5 24V21C22.5 20.8674 22.4473 20.7402 22.3536 20.6464C22.2598 20.5527 22.1326 20.5 22 20.5ZM21.5 23.3C21.5 23.353 21.4789 23.4039 21.4414 23.4414C21.4039 23.4789 21.353 23.5 21.3 23.5H18.7C18.647 23.5 18.5961 23.4789 18.5586 23.4414C18.5211 23.4039 18.5 23.353 18.5 23.3V21.7C18.5 21.59 18.59 21.5 18.7 21.5H21.3C21.41 21.5 21.5 21.59 21.5 21.7V23.3ZM14 18.5H10C9.86739 18.5 9.74021 18.5527 9.64645 18.6464C9.55268 18.7402 9.5 18.8674 9.5 19V24C9.5 24.1326 9.55268 24.2598 9.64645 24.3536C9.74021 24.4473 9.86739 24.5 10 24.5H14C14.1326 24.5 14.2598 24.4473 14.3536 24.3536C14.4473 24.2598 14.5 24.1326 14.5 24V19C14.5 18.8674 14.4473 18.7402 14.3536 18.6464C14.2598 18.5527 14.1326 18.5 14 18.5ZM13.5 23.3C13.5 23.353 13.4789 23.4039 13.4414 23.4414C13.4039 23.4789 13.353 23.5 13.3 23.5H10.7C10.647 23.5 10.5961 23.4789 10.5586 23.4414C10.5211 23.4039 10.5 23.353 10.5 23.3V19.7C10.5 19.59 10.59 19.5 10.7 19.5H13.3C13.41 19.5 13.5 19.59 13.5 19.7V23.3ZM22 11.5H18C17.8674 11.5 17.7402 11.5527 17.6464 11.6464C17.5527 11.7402 17.5 11.8674 17.5 12V17C17.5 17.1326 17.5527 17.2598 17.6464 17.3536C17.7402 17.4473 17.8674 17.5 18 17.5H22C22.1326 17.5 22.2598 17.4473 22.3536 17.3536C22.4473 17.2598 22.5 17.1326 22.5 17V12C22.5 11.8674 22.4473 11.7402 22.3536 11.6464C22.2598 11.5527 22.1326 11.5 22 11.5ZM21.5 16.3C21.5 16.353 21.4789 16.4039 21.4414 16.4414C21.4039 16.4789 21.353 16.5 21.3 16.5H18.7C18.647 16.5 18.5961 16.4789 18.5586 16.4414C18.5211 16.4039 18.5 16.353 18.5 16.3V12.7C18.5 12.59 18.59 12.5 18.7 12.5H21.3C21.41 12.5 21.5 12.59 21.5 12.7V16.3ZM14 11.5H10C9.86739 11.5 9.74021 11.5527 9.64645 11.6464C9.55268 11.7402 9.5 11.8674 9.5 12V15C9.5 15.1326 9.55268 15.2598 9.64645 15.3536C9.74021 15.4473 9.86739 15.5 10 15.5H14C14.1326 15.5 14.2598 15.4473 14.3536 15.3536C14.4473 15.2598 14.5 15.1326 14.5 15V12C14.5 11.8674 14.4473 11.7402 14.3536 11.6464C14.2598 11.5527 14.1326 11.5 14 11.5ZM13.5 14.3C13.5 14.353 13.4789 14.4039 13.4414 14.4414C13.4039 14.4789 13.353 14.5 13.3 14.5H10.7C10.647 14.5 10.5961 14.4789 10.5586 14.4414C10.5211 14.4039 10.5 14.353 10.5 14.3V12.7C10.5 12.59 10.59 12.5 10.7 12.5H13.3C13.41 12.5 13.5 12.59 13.5 12.7V14.3Z"/></svg>