<svg xmlns="http://www.w3.org/2000/svg" width="32" height="32" viewBox="0 0 32 32"><path d="M23 2.25H9C7.74063 2.25132 6.53322 2.75219 5.6427 3.6427C4.75219 4.53322 4.25132 5.74063 4.25 7V25C4.25159 26.2593 4.75254 27.4666 5.643 28.357C6.53345 29.2475 7.74071 29.7484 9 29.75H23C24.2594 29.7487 25.4668 29.2478 26.3573 28.3573C27.2478 27.4668 27.7487 26.2594 27.75 25V7C27.7487 5.74063 27.2478 4.53322 26.3573 3.6427C25.4668 2.75219 24.2594 2.25132 23 2.25ZM26.25 25C26.2489 25.8616 25.9062 26.6877 25.2969 27.2969C24.6877 27.9062 23.8616 28.2489 23 28.25H9C8.13837 28.2489 7.31234 27.9062 6.70307 27.2969C6.09381 26.6877 5.75106 25.8616 5.75 25V7C5.75106 6.13837 6.09381 5.31234 6.70307 4.70307C7.31234 4.09381 8.13837 3.75106 9 3.75H23C23.8616 3.75106 24.6877 4.09381 25.2969 4.70307C25.9062 5.31234 26.2489 6.13837 26.25 7V25Z M19.99 15.251H19.75V14C19.7499 13.0055 19.3547 12.0519 18.6515 11.3488C17.9482 10.6458 16.9945 10.2508 16 10.251C15.0056 10.2511 14.052 10.6463 13.3489 11.3495C12.6458 12.0528 12.2509 13.0065 12.251 14.001V15.251L11.997 15.25C11.5308 15.2534 11.0849 15.4417 10.7574 15.7736C10.4298 16.1054 10.2474 16.5537 10.25 17.02V22.004C10.2501 22.2353 10.2964 22.4644 10.3864 22.6775C10.4764 22.8907 10.6082 23.0836 10.774 23.245C11.104 23.57 11.547 23.751 12.01 23.751L20.002 23.75C20.234 23.7496 20.4635 23.7027 20.677 23.612C20.8906 23.5213 21.0837 23.3887 21.245 23.222C21.5699 22.8916 21.7514 22.4464 21.75 21.983V16.998C21.7499 16.7668 21.7034 16.5379 21.6134 16.325C21.5234 16.112 21.3917 15.9192 21.226 15.758C20.8971 15.4325 20.4528 15.2502 19.99 15.251ZM13.75 14.001C13.7499 13.4042 13.9868 12.8319 14.4087 12.4098C14.8305 11.9878 15.4028 11.7506 15.9995 11.7505C16.5963 11.7503 17.1686 11.9873 17.5907 12.4091C18.0127 12.831 18.2499 13.4032 18.25 14V15.25H13.752L13.751 14.001H13.75ZM20.25 21.984C20.2499 22.0355 20.2352 22.086 20.2076 22.1295C20.18 22.1731 20.1406 22.2079 20.094 22.23C20.0647 22.2429 20.0331 22.2497 20.001 22.25L12.011 22.251C11.9603 22.2507 11.9107 22.236 11.868 22.2085C11.8253 22.1811 11.7913 22.142 11.77 22.096C11.7571 22.0666 11.7503 22.035 11.75 22.003V17.019C11.7493 16.951 11.7746 16.8853 11.8207 16.8353C11.8668 16.7853 11.9302 16.7548 11.998 16.75L19.988 16.751C20.039 16.7509 20.0889 16.7655 20.1318 16.793C20.1747 16.8205 20.2088 16.8597 20.23 16.906C20.243 16.936 20.25 16.967 20.25 16.999V21.984Z"/></svg>