<svg width="32" height="32" viewBox="0 0 32 32" fill="none" xmlns="http://www.w3.org/2000/svg">
<path d="M23 2.49988H9C7.80692 2.50118 6.66309 2.9757 5.81945 3.81933C4.97582 4.66296 4.5013 5.8068 4.5 6.99988V24.9999C4.5013 26.193 4.97583 27.3368 5.81946 28.1804C6.66309 29.0241 7.80693 29.4986 9 29.4999H23C24.1931 29.4986 25.3369 29.024 26.1805 28.1804C27.0242 27.3368 27.4987 26.193 27.5 24.9999V6.99988C27.4987 5.8068 27.0242 4.66297 26.1805 3.81934C25.3369 2.9757 24.1931 2.50118 23 2.49988ZM26.5 24.9999C26.4989 25.9278 26.1298 26.8174 25.4736 27.4735C24.8175 28.1296 23.9279 28.4988 23 28.4999H9C8.07209 28.4988 7.1825 28.1296 6.52637 27.4735C5.87023 26.8174 5.50112 25.9278 5.5 24.9999V6.99988C5.50112 6.07196 5.87023 5.18238 6.52637 4.52624C7.1825 3.87011 8.07209 3.501 9 3.49988H23C23.9279 3.501 24.8175 3.87011 25.4736 4.52625C26.1298 5.18238 26.4989 6.07197 26.5 6.99988V24.9999Z" fill="black"/>
<path d="M8.89062 18.2389H10.7626C11.536 18.2389 12.1173 18.4202 12.5066 18.7829C12.848 19.1029 13.0186 19.5456 13.0186 20.1109C13.0186 20.7402 12.8 21.2122 12.3626 21.5269C11.9733 21.8042 11.4293 21.9429 10.7306 21.9429H9.70662V23.9989H8.89062V18.2389ZM10.7786 18.9029H9.70662V21.2789H10.7466C11.2746 21.2789 11.6533 21.1642 11.8826 20.9349C12.0746 20.7482 12.1706 20.4736 12.1706 20.1109C12.1706 19.7002 12.0346 19.3909 11.7626 19.1829C11.5226 18.9962 11.1946 18.9029 10.7786 18.9029Z" fill="black"/>
<path d="M14.0175 18.2389H15.8895C16.8335 18.2389 17.5508 18.5056 18.0415 19.0389C18.4948 19.5296 18.7215 20.2229 18.7215 21.1189C18.7215 22.0896 18.4175 22.8336 17.8095 23.3509C17.2975 23.7829 16.6388 23.9989 15.8335 23.9989H14.0175V18.2389ZM15.8975 18.8869H14.8335V23.3269H15.9135C16.5962 23.3269 17.1055 23.1136 17.4415 22.6869C17.7455 22.3136 17.8975 21.7909 17.8975 21.1189C17.8975 20.3296 17.6948 19.7456 17.2895 19.3669C16.9482 19.0469 16.4842 18.8869 15.8975 18.8869Z" fill="black"/>
<path d="M23.0096 20.8869V21.5669H20.5776V23.9989H19.7616V18.2389H23.2896V18.9269H20.5776V20.8869H23.0096Z" fill="black"/>
</svg>
