<svg width="32" height="32" viewBox="0 0 32 32" fill="none" xmlns="http://www.w3.org/2000/svg">
<path d="M23 1.99951H9C7.6744 2.00107 6.40353 2.52836 5.46619 3.4657C4.52884 4.40304 4.00156 5.67391 4 6.99951V24.9995C4.00156 26.3251 4.52884 27.596 5.46619 28.5333C6.40353 29.4707 7.6744 29.998 9 29.9995H23C24.3256 29.998 25.5965 29.4707 26.5338 28.5333C27.4712 27.596 27.9984 26.3251 28 24.9995V6.99951C27.9984 5.67391 27.4712 4.40304 26.5338 3.4657C25.5965 2.52836 24.3256 2.00107 23 1.99951ZM26 24.9995C25.9991 25.7949 25.6828 26.5575 25.1204 27.1199C24.5579 27.6823 23.7954 27.9986 23 27.9995H11V24.9995C11 24.7343 10.8946 24.4799 10.7071 24.2924C10.5196 24.1049 10.2652 23.9995 10 23.9995C9.73478 23.9995 9.48043 24.1049 9.29289 24.2924C9.10536 24.4799 9 24.7343 9 24.9995V27.9995C8.20462 27.9986 7.44206 27.6823 6.87964 27.1199C6.31722 26.5575 6.00087 25.7949 6 24.9995V6.99951C6.00087 6.20413 6.31722 5.44157 6.87964 4.87915C7.44206 4.31673 8.20462 4.00038 9 3.99951V6.99951C9 7.26473 9.10536 7.51908 9.29289 7.70662C9.48043 7.89415 9.73478 7.99951 10 7.99951C10.2652 7.99951 10.5196 7.89415 10.7071 7.70662C10.8946 7.51908 11 7.26473 11 6.99951V3.99951H23C23.7954 4.00038 24.5579 4.31673 25.1204 4.87915C25.6828 5.44157 25.9991 6.20413 26 6.99951V24.9995Z" fill="black"/>
<path d="M10 17.0005C9.86866 17.0004 9.73859 17.0262 9.61723 17.0765C9.49587 17.1267 9.3856 17.2003 9.29272 17.2932C9.19985 17.3861 9.12619 17.4964 9.07596 17.6177C9.02574 17.7391 8.99992 17.8691 9 18.0005V21.0005C9 21.2657 9.10536 21.5201 9.29289 21.7076C9.48043 21.8951 9.73478 22.0005 10 22.0005C10.2652 22.0005 10.5196 21.8951 10.7071 21.7076C10.8946 21.5201 11 21.2657 11 21.0005V18.0005C11.0001 17.8691 10.9743 17.7391 10.924 17.6177C10.8738 17.4964 10.8002 17.3861 10.7073 17.2932C10.6144 17.2003 10.5041 17.1267 10.3828 17.0765C10.2614 17.0262 10.1313 17.0004 10 17.0005Z" fill="black"/>
<path d="M10 9.99951C9.86866 9.99944 9.73859 10.0253 9.61723 10.0755C9.49587 10.1257 9.3856 10.1994 9.29273 10.2922C9.19985 10.3851 9.1262 10.4954 9.07597 10.6167C9.02574 10.7381 8.99993 10.8682 9 10.9995V13.9995C9 14.2647 9.10536 14.5191 9.29289 14.7066C9.48043 14.8942 9.73478 14.9995 10 14.9995C10.2652 14.9995 10.5196 14.8942 10.7071 14.7066C10.8946 14.5191 11 14.2647 11 13.9995V10.9995C11.0001 10.8682 10.9743 10.7381 10.924 10.6167C10.8738 10.4954 10.8002 10.3851 10.7073 10.2922C10.6144 10.1994 10.5041 10.1257 10.3828 10.0755C10.2614 10.0252 10.1313 9.99944 10 9.99951Z" fill="black"/>
</svg>
