<svg width="32" height="32" viewBox="0 0 32 32" xmlns="http://www.w3.org/2000/svg"><path d="M19.9 6.75a3.25 3.25 0 1 0 0 6.5 3.25 3.25 0 0 0 0-6.5ZM18.15 10a1.75 1.75 0 1 1 3.5 0 1.75 1.75 0 0 1-3.5 0Z"/><path d="M2.509.433A.75.75 0 0 1 3.567.51L6.134 3.47A5.229 5.229 0 0 1 9.5 2.25h13c2.9 0 5.25 2.35 5.25 5.25v17a5.226 5.226 0 0 1-.875 2.903l2.692 3.106a.75.75 0 0 1-1.123.995L3.567 2.799a.783.783 0 0 0-.011-.013L2.433 1.491A.75.75 0 0 1 2.51.433Zm4.608 4.172L18.62 17.878l2.374-1.8a2.75 2.75 0 0 1 3.808.474l1.448 1.81V7.5a3.75 3.75 0 0 0-3.75-3.75h-13c-.905 0-1.735.32-2.383.855Zm12.487 14.409 6.235 7.194c.263-.512.411-1.093.411-1.708v-3.737l-2.619-3.273a1.25 1.25 0 0 0-1.73-.216l-2.297 1.74ZM4.44 6.096c-.124.447-.19.918-.19 1.404v17c0 2.9 2.35 5.25 5.25 5.25h13c.736 0 1.436-.151 2.072-.424l-1.054-1.216c-.323.091-.665.14-1.018.14h-13c-.576 0-1.122-.13-1.61-.362l9.318-7.06-.985-1.135-2.258 1.711-2.52-2.52a2.75 2.75 0 0 0-3.89 0L5.75 20.689V7.61L4.44 6.095Zm5.944 13.849 2.374 2.373-6.104 4.624A3.736 3.736 0 0 1 5.75 24.5v-1.69l2.866-2.865a1.25 1.25 0 0 1 1.768 0Z"/></svg>