<svg width="32" height="32" viewBox="0 0 32 32" fill="none" xmlns="http://www.w3.org/2000/svg">
<path d="M23.0005 2.25H9.00049C7.74115 2.25143 6.5338 2.75233 5.64331 3.64282C4.75282 4.53331 4.25192 5.74066 4.25049 7V25C4.25192 26.2593 4.75282 27.4667 5.64331 28.3572C6.5338 29.2477 7.74115 29.7486 9.00049 29.75H23.0005C24.2598 29.7486 25.4672 29.2477 26.3577 28.3572C27.2482 27.4667 27.7491 26.2593 27.7505 25V7C27.7491 5.74066 27.2482 4.53331 26.3577 3.64282C25.4672 2.75233 24.2598 2.25143 23.0005 2.25ZM26.2505 25C26.2495 25.8616 25.9068 26.6877 25.2975 27.297C24.6882 27.9063 23.8621 28.249 23.0005 28.25H9.00049C8.13884 28.249 7.31277 27.9063 6.70349 27.297C6.09422 26.6877 5.75149 25.8616 5.75049 25V7C5.75149 6.13835 6.09422 5.31228 6.70349 4.703C7.31277 4.09373 8.13884 3.751 9.00049 3.75H23.0005C23.8621 3.751 24.6882 4.09373 25.2975 4.703C25.9068 5.31228 26.2495 6.13835 26.2505 7V25Z" fill="black"/>
<path d="M20.7886 16.4375L12.7886 12.4385C12.5218 12.304 12.225 12.2401 11.9264 12.2528C11.6279 12.2654 11.3376 12.3543 11.0832 12.511C10.8287 12.6676 10.6186 12.8868 10.4729 13.1476C10.3271 13.4084 10.2506 13.7022 10.2505 14.001V21.999C10.2495 22.2979 10.3252 22.5921 10.4705 22.8533C10.6157 23.1146 10.8256 23.3341 11.08 23.491C11.3344 23.6479 11.6249 23.7369 11.9235 23.7494C12.2221 23.7619 12.519 23.6976 12.7856 23.5625L20.7886 19.5615C21.0776 19.4155 21.3204 19.1922 21.49 18.9164C21.6597 18.6407 21.7495 18.3232 21.7495 17.9995C21.7495 17.6757 21.6597 17.3583 21.49 17.0825C21.3204 16.8068 21.0776 16.5835 20.7886 16.4375ZM20.1157 18.2217L12.1128 22.2217C12.0747 22.241 12.0324 22.2502 11.9898 22.2485C11.9471 22.2467 11.9057 22.2341 11.8693 22.2117C11.833 22.1894 11.803 22.1581 11.7822 22.1209C11.7614 22.0836 11.7505 22.0417 11.7505 21.999V14.001C11.7496 13.9581 11.7602 13.9158 11.7812 13.8784C11.8021 13.841 11.8326 13.8098 11.8696 13.7881C11.9086 13.7637 11.9535 13.7505 11.9995 13.75C12.04 13.7505 12.0798 13.7605 12.1157 13.7793L20.1147 17.7783C20.1553 17.7994 20.1893 17.8311 20.213 17.8702C20.2368 17.9092 20.2494 17.954 20.2495 17.9997C20.2496 18.0454 20.2372 18.0902 20.2136 18.1293C20.19 18.1685 20.1562 18.2004 20.1157 18.2217Z" fill="black"/>
</svg>
