<svg xmlns="http://www.w3.org/2000/svg" width="32" height="32" viewBox="0 0 32 32"><path d="M23 2.25H9C7.74063 2.25132 6.53322 2.75219 5.6427 3.6427C4.75219 4.53322 4.25132 5.74063 4.25 7V25C4.25159 26.2593 4.75254 27.4666 5.643 28.357C6.53345 29.2475 7.74071 29.7484 9 29.75H23C24.2594 29.7487 25.4668 29.2478 26.3573 28.3573C27.2478 27.4668 27.7487 26.2594 27.75 25V7C27.7487 5.74063 27.2478 4.53322 26.3573 3.6427C25.4668 2.75219 24.2594 2.25132 23 2.25ZM26.25 25C26.2489 25.8616 25.9062 26.6877 25.2969 27.2969C24.6877 27.9062 23.8616 28.2489 23 28.25H9C8.13837 28.2489 7.31234 27.9062 6.70307 27.2969C6.09381 26.6877 5.75106 25.8616 5.75 25V7C5.75106 6.13837 6.09381 5.31234 6.70307 4.70307C7.31234 4.09381 8.13837 3.75106 9 3.75H23C23.8616 3.75106 24.6877 4.09381 25.2969 4.70307C25.9062 5.31234 26.2489 6.13837 26.25 7V25Z M20.789 16.4379L12.789 12.4379C12.5222 12.3034 12.2253 12.2394 11.9267 12.2521C11.6282 12.2647 11.3378 12.3537 11.0833 12.5104C10.8289 12.6671 10.6188 12.8864 10.4731 13.1473C10.3274 13.4082 10.2509 13.7021 10.251 14.0009V21.9989C10.2496 22.298 10.3251 22.5924 10.4702 22.8538C10.6153 23.1153 10.8252 23.3351 11.0797 23.4921C11.3342 23.6491 11.6248 23.7381 11.9236 23.7505C12.2224 23.7629 12.5194 23.6983 12.786 23.5629L20.789 19.5609C21.0777 19.4149 21.3203 19.1916 21.4897 18.9159C21.6592 18.6403 21.7489 18.323 21.7489 17.9994C21.7489 17.6759 21.6592 17.3586 21.4897 17.083C21.3203 16.8073 21.0777 16.584 20.789 16.4379ZM20.116 18.2219L12.113 22.2219C12.0749 22.241 12.0326 22.2501 11.99 22.2482C11.9475 22.2463 11.9061 22.2336 11.8699 22.2113C11.8336 22.1889 11.8037 22.1577 11.7829 22.1206C11.762 22.0834 11.7511 22.0415 11.751 21.9989V14.0009C11.75 13.958 11.7605 13.9157 11.7814 13.8782C11.8023 13.8407 11.8329 13.8096 11.87 13.7879C11.909 13.7636 11.954 13.7504 12 13.7499C12.04 13.7499 12.08 13.7599 12.116 13.7799L20.115 17.7779C20.1453 17.7937 20.1721 17.8155 20.1937 17.842C20.2153 17.8685 20.2312 17.8991 20.2405 17.932C20.2498 17.9649 20.2522 17.9993 20.2477 18.0332C20.2431 18.0671 20.2316 18.0997 20.214 18.1289C20.1905 18.1683 20.1566 18.2005 20.116 18.2219Z"/></svg>