<svg xmlns="http://www.w3.org/2000/svg" width="32" height="32" viewBox="0 0 32 32"><path d="M23 2H9C7.6744 2.00159 6.40356 2.52888 5.46622 3.46622C4.52888 4.40356 4.00159 5.6744 4 7V25C4.00159 26.3256 4.52888 27.5964 5.46622 28.5338C6.40356 29.4711 7.6744 29.9984 9 30H23C24.3256 29.9984 25.5964 29.4711 26.5338 28.5338C27.4711 27.5964 27.9984 26.3256 28 25V7C27.9984 5.6744 27.4711 4.40356 26.5338 3.46622C25.5964 2.52888 24.3256 2.00159 23 2ZM26 25C25.9992 25.7954 25.6829 26.558 25.1204 27.1204C24.558 27.6829 23.7954 27.9992 23 28H9C8.20459 27.9992 7.44199 27.6829 6.87956 27.1204C6.31712 26.558 6.00079 25.7954 6 25V7C6.00079 6.20459 6.31712 5.44199 6.87956 4.87956C7.44199 4.31712 8.20459 4.00079 9 4H23C23.7954 4.00079 24.558 4.31712 25.1204 4.87956C25.6829 5.44199 25.9992 6.20459 26 7V25Z M22.386 12.5769L16.406 10.0769C16.2841 10.026 16.1532 9.99968 16.0211 9.99951C15.8889 9.99934 15.7581 10.0253 15.636 10.0759L9.616 12.5759C9.43366 12.6518 9.27785 12.7799 9.16823 12.9441C9.0586 13.1084 9.00007 13.3014 9 13.4989V21.4989C8.99998 21.6963 9.05837 21.8893 9.16781 22.0535C9.27725 22.2178 9.43285 22.3459 9.615 22.4219L15.615 24.9219C15.737 24.9729 15.8678 24.9991 16 24.9991C16.1322 24.9991 16.263 24.9729 16.385 24.9219L22.385 22.4219C22.5668 22.3458 22.7222 22.2177 22.8316 22.0537C22.941 21.8897 22.9996 21.6971 23 21.4999V13.4999C23.0001 13.3027 22.9419 13.1098 22.8326 12.9456C22.7234 12.7813 22.568 12.6531 22.386 12.5769ZM16.019 12.0819L19.405 13.4979L16 14.9159L12.604 13.5009L16.019 12.0829V12.0819ZM11 14.9999L15 16.6669V22.4999L11 20.8319V14.9999ZM17 22.4999V16.6669L21 14.9999V20.8329L17 22.4999Z"/></svg>