<svg width="32" height="32" viewBox="0 0 32 32" fill="none" xmlns="http://www.w3.org/2000/svg">
<path fill-rule="evenodd" clip-rule="evenodd" d="M9 2.5H23C24.1931 2.50132 25.3369 2.97585 26.1805 3.81948C27.0241 4.66311 27.4987 5.80693 27.5 7V25C27.4987 26.1931 27.0241 27.3369 26.1805 28.1805C25.3369 29.0241 24.1931 29.4987 23 29.5H9C7.80693 29.4987 6.66311 29.0241 5.81948 28.1805C4.97585 27.3369 4.50132 26.1931 4.5 25V7C4.50132 5.80693 4.97585 4.66311 5.81948 3.81948C6.66311 2.97585 7.80693 2.50132 9 2.5ZM12.383 16.076C12.5351 16.1386 12.6693 16.2379 12.7738 16.365C12.8782 16.492 12.9496 16.6429 12.9817 16.8042C13.0138 16.9655 13.0055 17.1322 12.9575 17.2896C12.9096 17.4469 12.8236 17.59 12.707 17.706L10.414 20L12.707 22.293C12.8025 22.3852 12.8787 22.4956 12.9311 22.6176C12.9835 22.7396 13.0111 22.8708 13.0123 23.0036C13.0134 23.1364 12.9881 23.2681 12.9378 23.391C12.8875 23.5138 12.8133 23.6255 12.7194 23.7194C12.6255 23.8133 12.5139 23.8875 12.391 23.9378C12.2681 23.9881 12.1364 24.0134 12.0036 24.0123C11.8708 24.0111 11.7396 23.9835 11.6176 23.9311C11.4956 23.8787 11.3852 23.8025 11.293 23.707L8.293 20.707C8.20002 20.6141 8.12626 20.5038 8.07594 20.3824C8.02562 20.261 7.99971 20.1309 7.99971 19.9995C7.99971 19.8681 8.02562 19.738 8.07594 19.6166C8.12626 19.4952 8.20002 19.3849 8.293 19.292L11.293 16.292C11.433 16.1522 11.6112 16.0571 11.8052 16.0187C11.9993 15.9802 12.2003 16.0002 12.383 16.076ZM20.707 16.292C20.5194 16.1045 20.2649 15.9992 19.9996 15.9993C19.7344 15.9994 19.48 16.1049 19.2925 16.2925C19.105 16.4801 18.9997 16.7346 18.9998 16.9999C18.9999 17.2651 19.1054 17.5195 19.293 17.707L21.586 20L19.293 22.293C19.1287 22.4563 19.0263 22.6717 19.0033 22.9023C18.9803 23.1328 19.0381 23.3642 19.1669 23.5568C19.2957 23.7493 19.4874 23.8912 19.7093 23.958C19.9311 24.0248 20.1693 24.0124 20.383 23.923C20.5041 23.8729 20.6142 23.7995 20.707 23.707L23.707 20.707C23.8945 20.5195 23.9998 20.2652 23.9998 20C23.9998 19.7348 23.8945 19.4805 23.707 19.293L20.707 16.293V16.292ZM16.929 16.002C17.06 15.9925 17.1916 16.009 17.3161 16.0506C17.4407 16.0921 17.5559 16.1578 17.655 16.244C17.8046 16.3735 17.9123 16.5446 17.9645 16.7354C18.0167 16.9263 18.0109 17.1284 17.948 17.316L15.948 23.316C15.9098 23.4446 15.8461 23.5642 15.7608 23.6677C15.6754 23.7711 15.5701 23.8564 15.4511 23.9183C15.3321 23.9803 15.2019 24.0176 15.0682 24.0282C14.9344 24.0388 14.7999 24.0223 14.6727 23.9798C14.5455 23.9373 14.4281 23.8697 14.3275 23.7809C14.227 23.6921 14.1453 23.584 14.0874 23.463C14.0295 23.342 13.9965 23.2106 13.9904 23.0766C13.9843 22.9426 14.0053 22.8087 14.052 22.683L16.052 16.683C16.1142 16.4953 16.2308 16.3304 16.3869 16.2091C16.5431 16.0879 16.7318 16.0158 16.929 16.002Z" fill="#0F0F0F"/>
</svg>
