<svg xmlns="http://www.w3.org/2000/svg" width="32" height="32" viewBox="0 0 32 32"><path d="M19.5 8.50098C19.106 8.50098 18.7159 8.57857 18.3519 8.72934C17.988 8.8801 17.6573 9.10108 17.3787 9.37966C17.1001 9.65823 16.8791 9.98895 16.7284 10.3529C16.5776 10.7169 16.5 11.107 16.5 11.501C16.5 11.8949 16.5776 12.2851 16.7284 12.649C16.8791 13.013 17.1001 13.3437 17.3787 13.6223C17.6573 13.9009 17.988 14.1219 18.3519 14.2726C18.7159 14.4234 19.106 14.501 19.5 14.501C20.2956 14.501 21.0587 14.1849 21.6213 13.6223C22.1839 13.0597 22.5 12.2966 22.5 11.501C22.5 10.7053 22.1839 9.94226 21.6213 9.37966C21.0587 8.81705 20.2956 8.50098 19.5 8.50098ZM19.5 13.501C18.9696 13.501 18.4609 13.2903 18.0858 12.9152C17.7107 12.5401 17.5 12.0314 17.5 11.501C17.5 10.9705 17.7107 10.4618 18.0858 10.0868C18.4609 9.71169 18.9696 9.50098 19.5 9.50098C20.0304 9.50098 20.5391 9.71169 20.9142 10.0868C21.2893 10.4618 21.5 10.9705 21.5 11.501C21.5 12.0314 21.2893 12.5401 20.9142 12.9152C20.5391 13.2903 20.0304 13.501 19.5 13.501Z M23 2.5H9C7.80693 2.50132 6.66311 2.97585 5.81948 3.81948C4.97585 4.66311 4.50132 5.80693 4.5 7V25C4.50132 26.1931 4.97585 27.3369 5.81948 28.1805C6.66311 29.0241 7.80693 29.4987 9 29.5H23C24.1931 29.4987 25.3369 29.0241 26.1805 28.1805C27.0241 27.3369 27.4987 26.1931 27.5 25V7C27.4987 5.80693 27.0241 4.66311 26.1805 3.81948C25.3369 2.97585 24.1931 2.50132 23 2.5ZM9 28.5C8.21857 28.4977 7.46037 28.234 6.8462 27.7509C6.23202 27.2677 5.7972 26.5929 5.611 25.834L11.008 18.875C11.3203 18.4658 11.7191 18.1307 12.1761 17.8937C12.633 17.6567 13.1366 17.5236 13.651 17.504C14.1631 17.4874 14.6727 17.5819 15.1448 17.7809C15.6169 17.98 16.0403 18.2788 16.386 18.657L24.586 28.102C24.0968 28.3597 23.5529 28.4962 23 28.5H9ZM26.5 25C26.4994 25.473 26.4024 25.9409 26.215 26.3752C26.0276 26.8095 25.7537 27.201 25.41 27.526L17.136 17.996C16.6943 17.504 16.1496 17.1155 15.5407 16.8579C14.9317 16.6003 14.2735 16.4801 13.6128 16.5058C12.9522 16.5315 12.3053 16.7024 11.7182 17.0065C11.1311 17.3105 10.6182 17.7402 10.216 18.265L5.5 24.345V7C5.50106 6.07207 5.87015 5.18244 6.5263 4.5263C7.18244 3.87015 8.07207 3.50106 9 3.5H23C23.9279 3.50132 24.8173 3.8705 25.4734 4.52659C26.1295 5.18268 26.4987 6.07215 26.5 7V25Z"/></svg>