<svg xmlns="http://www.w3.org/2000/svg" id="Layer_1" data-name="Layer 1" viewBox="0 0 32 32"><defs><style>.cls-1{fill:#0f0f0f;fill-rule:evenodd;}</style></defs><path d="M26.18,3.819A4.5,4.5,0,0,0,23,2.5H9A4.5,4.5,0,0,0,4.5,7V25A4.505,4.505,0,0,0,9,29.5H23A4.507,4.507,0,0,0,27.5,25V7A4.5,4.5,0,0,0,26.18,3.819ZM12.938,23.391a1.009,1.009,0,0,1-.547.547,1.009,1.009,0,0,1-.387.074.986.986,0,0,1-.386-.081,1,1,0,0,1-.325-.224l-3-3a.991.991,0,0,1-.217-.325,1,1,0,0,1,0-.765.991.991,0,0,1,.217-.325l3-3a1,1,0,0,1,1.09-.216,1,1,0,0,1,.575,1.214,1,1,0,0,1-.251.416L10.414,20l2.293,2.293a1,1,0,0,1,.224.325.986.986,0,0,1,.081.386A1.009,1.009,0,0,1,12.938,23.391Zm5.01-6.075-2,6a.993.993,0,0,1-.5.6,1,1,0,0,1-1.123-.137,1,1,0,0,1-.241-.318,1.013,1.013,0,0,1-.1-.386,1,1,0,0,1,.062-.394l2-6A1,1,0,0,1,16.929,16a1,1,0,0,1,.726.242,1,1,0,0,1,.293,1.072Zm5.759,3.391-3,3a1,1,0,0,1-1.54-.15,1,1,0,0,1,.126-1.264L21.586,20l-2.293-2.293a1,1,0,1,1,1.414-1.415h0l3,3a1,1,0,0,1,0,1.414Z"/></svg>