<svg width="32" height="32" viewBox="0 0 32 32" fill="none" xmlns="http://www.w3.org/2000/svg">
<path d="M10 14.25C9.58579 14.25 9.25 14.5858 9.25 15C9.25 15.4142 9.58579 15.75 10 15.75H12C12.4142 15.75 12.75 15.4142 12.75 15C12.75 14.5858 12.4142 14.25 12 14.25H10Z" fill="black"/>
<path d="M16 14.25C15.5858 14.25 15.25 14.5858 15.25 15C15.25 15.4142 15.5858 15.75 16 15.75H22C22.4142 15.75 22.75 15.4142 22.75 15C22.75 14.5858 22.4142 14.25 22 14.25H16Z" fill="black"/>
<path d="M10 18.25C9.58579 18.25 9.25 18.5858 9.25 19C9.25 19.4142 9.58579 19.75 10 19.75H12C12.4142 19.75 12.75 19.4142 12.75 19C12.75 18.5858 12.4142 18.25 12 18.25H10Z" fill="black"/>
<path d="M16 18.25C15.5858 18.25 15.25 18.5858 15.25 19C15.25 19.4142 15.5858 19.75 16 19.75H22C22.4142 19.75 22.75 19.4142 22.75 19C22.75 18.5858 22.4142 18.25 22 18.25H16Z" fill="black"/>
<path d="M10 22.25C9.58579 22.25 9.25 22.5858 9.25 23C9.25 23.4142 9.58579 23.75 10 23.75H12C12.4142 23.75 12.75 23.4142 12.75 23C12.75 22.5858 12.4142 22.25 12 22.25H10Z" fill="black"/>
<path d="M16 22.25C15.5858 22.25 15.25 22.5858 15.25 23C15.25 23.4142 15.5858 23.75 16 23.75H22C22.4142 23.75 22.75 23.4142 22.75 23C22.75 22.5858 22.4142 22.25 22 22.25H16Z" fill="black"/>
<path fill-rule="evenodd" clip-rule="evenodd" d="M9 2.25C6.37665 2.25 4.25 4.37665 4.25 7V25C4.25 27.6234 6.37665 29.75 9 29.75H23C25.6234 29.75 27.75 27.6234 27.75 25V7C27.75 4.37665 25.6234 2.25 23 2.25H9ZM5.75 7C5.75 5.20507 7.20507 3.75 9 3.75H23C24.7949 3.75 26.25 5.20507 26.25 7V25C26.25 26.7949 24.7949 28.25 23 28.25H9C7.20507 28.25 5.75 26.7949 5.75 25V7Z" fill="black"/>
</svg>
