<svg xmlns="http://www.w3.org/2000/svg" width="32" height="32" viewBox="0 0 32 32"><path d="M23 2.5H9C7.80693 2.50132 6.66311 2.97585 5.81948 3.81948C4.97585 4.66311 4.50132 5.80693 4.5 7V25C4.50132 26.1931 4.97585 27.3369 5.81948 28.1805C6.66311 29.0241 7.80693 29.4987 9 29.5H23C24.1931 29.4987 25.3369 29.0241 26.1805 28.1805C27.0241 27.3369 27.4987 26.1931 27.5 25V7C27.4987 5.80693 27.0241 4.66311 26.1805 3.81948C25.3369 2.97585 24.1931 2.50132 23 2.5ZM26.5 25C26.4989 25.9279 26.1299 26.8176 25.4737 27.4737C24.8176 28.1299 23.9279 28.4989 23 28.5H9C8.07207 28.4989 7.18244 28.1299 6.5263 27.4737C5.87015 26.8176 5.50106 25.9279 5.5 25V7C5.50106 6.07207 5.87015 5.18244 6.5263 4.5263C7.18244 3.87015 8.07207 3.50106 9 3.5H23C23.9279 3.50106 24.8176 3.87015 25.4737 4.5263C26.1299 5.18244 26.4989 6.07207 26.5 7V25Z M20.8419 13.743C20.7714 13.3929 20.5821 13.0778 20.306 12.8511C20.03 12.6244 19.6841 12.5001 19.3269 12.499H12.6729C12.317 12.4994 11.9721 12.6226 11.6964 12.8477C11.4208 13.0729 11.2313 13.3863 11.1599 13.735L10.5299 16.65C10.4847 16.8744 10.49 17.106 10.5452 17.3281C10.6005 17.5502 10.7044 17.7573 10.8495 17.9343C10.9946 18.1113 11.1772 18.2539 11.3841 18.3517C11.591 18.4496 11.817 18.5002 12.0459 18.5H15.4999V22.5H14.9999C14.8673 22.5 14.7401 22.5527 14.6464 22.6465C14.5526 22.7402 14.4999 22.8674 14.4999 23C14.4999 23.1326 14.5526 23.2598 14.6464 23.3536C14.7401 23.4473 14.8673 23.5 14.9999 23.5H16.9999C17.1325 23.5 17.2597 23.4473 17.3535 23.3536C17.4472 23.2598 17.4999 23.1326 17.4999 23C17.4999 22.8674 17.4472 22.7402 17.3535 22.6465C17.2597 22.5527 17.1325 22.5 16.9999 22.5H16.4999V18.5H19.9539C20.1833 18.5002 20.4099 18.4492 20.6171 18.3508C20.8244 18.2525 21.0071 18.1091 21.152 17.9313C21.2969 17.7534 21.4003 17.5455 21.4548 17.3227C21.5093 17.0998 21.5134 16.8677 21.4669 16.643L20.8419 13.743ZM20.3769 17.299C20.3256 17.3616 20.261 17.4119 20.1879 17.4465C20.1147 17.4811 20.0348 17.499 19.9539 17.499H12.0459C11.966 17.4987 11.8871 17.4809 11.8147 17.4468C11.7424 17.4127 11.6785 17.3631 11.6274 17.3016C11.5763 17.2401 11.5393 17.1682 11.519 17.0909C11.4987 17.0135 11.4956 16.9327 11.5099 16.854L12.1379 13.938C12.1628 13.8144 12.2297 13.7032 12.3272 13.6232C12.4247 13.5432 12.5468 13.4993 12.6729 13.499H19.3269C19.4543 13.5 19.5774 13.545 19.6753 13.6265C19.7732 13.708 19.8399 13.8209 19.8639 13.946L20.4889 16.847C20.5047 16.926 20.5027 17.0076 20.4832 17.0857C20.4636 17.1639 20.427 17.2367 20.3759 17.299H20.3769Z"/></svg>