<svg xmlns="http://www.w3.org/2000/svg" width="32" height="32" viewBox="0 0 32 32"><path d="M23 2.5H9C7.80693 2.50132 6.66311 2.97585 5.81948 3.81948C4.97585 4.66311 4.50132 5.80693 4.5 7V25C4.50132 26.1931 4.97585 27.3369 5.81948 28.1805C6.66311 29.0241 7.80693 29.4987 9 29.5H23C24.1931 29.4987 25.3369 29.0241 26.1805 28.1805C27.0241 27.3369 27.4987 26.1931 27.5 25V7C27.4987 5.80693 27.0241 4.66311 26.1805 3.81948C25.3369 2.97585 24.1931 2.50132 23 2.5ZM26.5 25C26.4989 25.9279 26.1299 26.8176 25.4737 27.4737C24.8176 28.1299 23.9279 28.4989 23 28.5H9C8.07207 28.4989 7.18244 28.1299 6.5263 27.4737C5.87015 26.8176 5.50106 25.9279 5.5 25V7C5.50106 6.07207 5.87015 5.18244 6.5263 4.5263C7.18244 3.87015 8.07207 3.50106 9 3.5H23C23.9279 3.50132 24.8173 3.8705 25.4734 4.52659C26.1295 5.18268 26.4987 6.07215 26.5 7V25Z M22 14.5H16C15.8674 14.5 15.7402 14.5527 15.6464 14.6464C15.5527 14.7402 15.5 14.8674 15.5 15C15.5 15.1326 15.5527 15.2598 15.6464 15.3536C15.7402 15.4473 15.8674 15.5 16 15.5H22C22.1326 15.5 22.2598 15.4473 22.3536 15.3536C22.4473 15.2598 22.5 15.1326 22.5 15C22.5 14.8674 22.4473 14.7402 22.3536 14.6464C22.2598 14.5527 22.1326 14.5 22 14.5ZM12 14.5H10C9.86739 14.5 9.74021 14.5527 9.64645 14.6464C9.55268 14.7402 9.5 14.8674 9.5 15C9.5 15.1326 9.55268 15.2598 9.64645 15.3536C9.74021 15.4473 9.86739 15.5 10 15.5H12C12.1326 15.5 12.2598 15.4473 12.3536 15.3536C12.4473 15.2598 12.5 15.1326 12.5 15C12.5 14.8674 12.4473 14.7402 12.3536 14.6464C12.2598 14.5527 12.1326 14.5 12 14.5ZM12 18.5H10C9.86739 18.5 9.74021 18.5527 9.64645 18.6464C9.55268 18.7402 9.5 18.8674 9.5 19C9.5 19.1326 9.55268 19.2598 9.64645 19.3536C9.74021 19.4473 9.86739 19.5 10 19.5H12C12.1326 19.5 12.2598 19.4473 12.3536 19.3536C12.4473 19.2598 12.5 19.1326 12.5 19C12.5 18.8674 12.4473 18.7402 12.3536 18.6464C12.2598 18.5527 12.1326 18.5 12 18.5ZM12 22.5H10C9.86739 22.5 9.74021 22.5527 9.64645 22.6464C9.55268 22.7402 9.5 22.8674 9.5 23C9.5 23.1326 9.55268 23.2598 9.64645 23.3536C9.74021 23.4473 9.86739 23.5 10 23.5H12C12.1326 23.5 12.2598 23.4473 12.3536 23.3536C12.4473 23.2598 12.5 23.1326 12.5 23C12.5 22.8674 12.4473 22.7402 12.3536 22.6464C12.2598 22.5527 12.1326 22.5 12 22.5ZM22 18.5H16C15.8674 18.5 15.7402 18.5527 15.6464 18.6464C15.5527 18.7402 15.5 18.8674 15.5 19C15.5 19.1326 15.5527 19.2598 15.6464 19.3536C15.7402 19.4473 15.8674 19.5 16 19.5H22C22.1326 19.5 22.2598 19.4473 22.3536 19.3536C22.4473 19.2598 22.5 19.1326 22.5 19C22.5 18.8674 22.4473 18.7402 22.3536 18.6464C22.2598 18.5527 22.1326 18.5 22 18.5ZM22 22.5H16C15.8674 22.5 15.7402 22.5527 15.6464 22.6464C15.5527 22.7402 15.5 22.8674 15.5 23C15.5 23.1326 15.5527 23.2598 15.6464 23.3536C15.7402 23.4473 15.8674 23.5 16 23.5H22C22.1326 23.5 22.2598 23.4473 22.3536 23.3536C22.4473 23.2598 22.5 23.1326 22.5 23C22.5 22.8674 22.4473 22.7402 22.3536 22.6464C22.2598 22.5527 22.1326 22.5 22 22.5Z"/></svg>