<svg xmlns="http://www.w3.org/2000/svg" width="32" height="32" viewBox="0 0 32 32"><path d="M11.998 16.96L19.954 17C19.961 17.0003 19.9679 16.9989 19.9741 16.9959C19.9804 16.993 19.9859 16.9885 19.99 16.983L19.375 14.051L12.673 14L11.998 16.96Z M23 2.5H9C7.80693 2.50132 6.66311 2.97585 5.81948 3.81948C4.97585 4.66311 4.50132 5.80693 4.5 7V25C4.50132 26.1931 4.97585 27.3369 5.81948 28.1805C6.66311 29.0241 7.80693 29.4987 9 29.5H23C24.1931 29.4987 25.3369 29.0241 26.1805 28.1805C27.0241 27.3369 27.4987 26.1931 27.5 25V7C27.4987 5.80693 27.0241 4.66311 26.1805 3.81948C25.3369 2.97585 24.1931 2.50132 23 2.5ZM20.623 12.464C20.988 12.764 21.239 13.181 21.333 13.644L21.956 16.538C22.0184 16.8356 22.0135 17.1433 21.9418 17.4388C21.8701 17.7343 21.7333 18.01 21.5415 18.2459C21.3497 18.4818 21.1076 18.6719 20.833 18.8024C20.5583 18.9329 20.2581 19.0004 19.954 19H17V22C17.2652 22 17.5196 22.1054 17.7071 22.2929C17.8946 22.4804 18 22.7348 18 23C18 23.2652 17.8946 23.5196 17.7071 23.7071C17.5196 23.8946 17.2652 24 17 24H15C14.7348 24 14.4804 23.8946 14.2929 23.7071C14.1054 23.5196 14 23.2652 14 23C14 22.7348 14.1054 22.4804 14.2929 22.2929C14.4804 22.1054 14.7348 22 15 22V19H12.046C11.7432 19.0002 11.4441 18.9331 11.1704 18.8036C10.8967 18.6741 10.6552 18.4854 10.4634 18.2511C10.2715 18.0169 10.1341 17.7429 10.061 17.4491C9.988 17.1552 9.98115 16.8488 10.041 16.552L10.671 13.629C10.7669 13.1691 11.0182 12.7561 11.3825 12.4595C11.7469 12.1629 12.2022 12.0007 12.672 12H19.326C19.798 12.002 20.256 12.166 20.622 12.465L20.623 12.464Z"/></svg>