<svg xmlns="http://www.w3.org/2000/svg" width="32" height="32" viewBox="0 0 32 32"><path d="M23 2H9C7.6744 2.00159 6.40356 2.52888 5.46622 3.46622C4.52888 4.40356 4.00159 5.6744 4 7V25C4.00159 26.3256 4.52888 27.5964 5.46622 28.5338C6.40356 29.4711 7.6744 29.9984 9 30H23C24.3256 29.9984 25.5964 29.4711 26.5338 28.5338C27.4711 27.5964 27.9984 26.3256 28 25V7C27.9984 5.6744 27.4711 4.40356 26.5338 3.46622C25.5964 2.52888 24.3256 2.00159 23 2ZM26 25C25.9992 25.7954 25.6829 26.558 25.1204 27.1204C24.558 27.6829 23.7954 27.9992 23 28H9C8.20459 27.9992 7.44199 27.6829 6.87956 27.1204C6.31712 26.558 6.00079 25.7954 6 25V7C6.00079 6.20459 6.31712 5.44199 6.87956 4.87956C7.44199 4.31712 8.20459 4.00079 9 4H23C23.7954 4.00079 24.558 4.31712 25.1204 4.87956C25.6829 5.44199 25.9992 6.20459 26 7V25Z M20.9 16.215L12.902 12.215C12.5969 12.0608 12.2575 11.9874 11.916 12.0018C11.5745 12.0161 11.2424 12.1178 10.9513 12.297C10.6603 12.4762 10.42 12.727 10.2535 13.0255C10.0869 13.324 9.99967 13.6602 10 14.002V22C9.99927 22.3414 10.0861 22.6773 10.2521 22.9756C10.4182 23.2739 10.658 23.5247 10.9486 23.7039C11.2392 23.8832 11.5709 23.9849 11.912 23.9994C12.2531 24.014 12.5922 23.9408 12.897 23.787L20.901 19.787C21.2314 19.6201 21.509 19.3648 21.703 19.0495C21.8969 18.7342 21.9995 18.3713 21.9994 18.0011C21.9993 17.631 21.8965 17.2681 21.7024 16.9529C21.5083 16.6378 21.2305 16.3826 20.9 16.216V16.215ZM12 21.999L12.003 14.003L20 18L12 21.999Z"/></svg>