<svg width="32" height="32" viewBox="0 0 32 32" fill="none" xmlns="http://www.w3.org/2000/svg">
<path d="M23.0001 1.99989H9.00012C7.67452 2.00145 6.40365 2.52873 5.46631 3.46608C4.52896 4.40342 4.00168 5.67429 4.00012 6.99989V24.9999C4.00168 26.3255 4.52897 27.5964 5.46631 28.5337C6.40365 29.4711 7.67452 29.9983 9.00012 29.9999H23.0001C24.3257 29.9983 25.5966 29.4711 26.5339 28.5337C27.4713 27.5964 27.9986 26.3255 28.0001 24.9999V6.99989C27.9986 5.67429 27.4713 4.40342 26.5339 3.46608C25.5966 2.52873 24.3257 2.00145 23.0001 1.99989ZM26.0001 24.9999C25.9993 25.7953 25.6829 26.5578 25.1205 27.1203C24.5581 27.6827 23.7955 27.999 23.0001 27.9999H9.00012C8.20474 27.999 7.44218 27.6827 6.87976 27.1203C6.31734 26.5578 6.00099 25.7953 6.00012 24.9999V6.99989C6.00099 6.20451 6.31734 5.44195 6.87976 4.87953C7.44218 4.31711 8.20474 4.00076 9.00012 3.99989H23.0001C23.7955 4.00076 24.5581 4.31711 25.1205 4.87953C25.6829 5.44195 25.9993 6.20451 26.0001 6.99989V24.9999Z" fill="black"/>
<path d="M16.0001 11.9999C15.8688 11.9999 15.7387 12.0257 15.6174 12.0759C15.4961 12.1262 15.3858 12.1998 15.2929 12.2927C15.2001 12.3856 15.1264 12.4958 15.0762 12.6172C15.0259 12.7385 15.0001 12.8686 15.0001 12.9999V13.0892C13.9146 13.2722 12.9004 13.7504 12.0686 14.4715C11.2369 15.1926 10.6197 16.1287 10.2846 17.1773C9.9496 18.2259 9.90968 19.3465 10.1692 20.4163C10.4288 21.4861 10.9778 22.4638 11.7562 23.2422C12.5345 24.0207 13.5121 24.5699 14.5818 24.8296C15.6516 25.0893 16.7722 25.0496 17.8208 24.7147C18.8695 24.3799 19.8057 23.7628 20.5269 22.9311C21.2482 22.0995 21.7266 21.0854 21.9097 19.9999H22.0001C22.1315 20 22.2615 19.9742 22.3829 19.9239C22.5043 19.8737 22.6145 19.8 22.7074 19.7072C22.8003 19.6143 22.8739 19.504 22.9242 19.3827C22.9744 19.2613 23.0002 19.1312 23.0001 18.9999C22.998 17.144 22.2598 15.3648 20.9475 14.0525C19.6352 12.7403 17.856 12.0021 16.0001 11.9999ZM17.0001 14.1005C17.96 14.2983 18.8409 14.7731 19.5339 15.4661C20.227 16.1591 20.7017 17.04 20.8995 17.9999H17.0001V14.1005ZM16.0001 22.9989C15.0273 23.001 14.0872 22.6477 13.3565 22.0055C12.6258 21.3633 12.1548 20.4763 12.032 19.5113C11.9091 18.5462 12.143 17.5696 12.6896 16.7648C13.2361 15.96 14.0578 15.3825 15.0001 15.1409V18.9999C15.0001 19.1312 15.0259 19.2613 15.0762 19.3826C15.1264 19.504 15.2001 19.6142 15.2929 19.7071C15.3858 19.8 15.4961 19.8736 15.6174 19.9239C15.7387 19.9741 15.8688 19.9999 16.0001 19.9999H19.8579C19.6373 20.8562 19.1389 21.6151 18.4408 22.1578C17.7427 22.7005 16.8843 22.9963 16.0001 22.9989Z" fill="black"/>
</svg>
