<svg xmlns="http://www.w3.org/2000/svg" width="32" height="32" viewBox="0 0 32 32"><path d="M23 2.5H9C7.80693 2.50132 6.66311 2.97585 5.81948 3.81948C4.97585 4.66311 4.50132 5.80693 4.5 7V25C4.50132 26.1931 4.97585 27.3369 5.81948 28.1805C6.66311 29.0241 7.80693 29.4987 9 29.5H23C24.1931 29.4987 25.3369 29.0241 26.1805 28.1805C27.0241 27.3369 27.4987 26.1931 27.5 25V7C27.4987 5.80693 27.0241 4.66311 26.1805 3.81948C25.3369 2.97585 24.1931 2.50132 23 2.5ZM26.5 25C26.4987 25.9279 26.1295 26.8173 25.4734 27.4734C24.8173 28.1295 23.9279 28.4987 23 28.5H9C8.07207 28.4989 7.18244 28.1299 6.5263 27.4737C5.87015 26.8176 5.50106 25.9279 5.5 25V7C5.50106 6.07207 5.87015 5.18244 6.5263 4.5263C7.18244 3.87015 8.07207 3.50106 9 3.5H23C23.9279 3.50106 24.8176 3.87015 25.4737 4.5263C26.1299 5.18244 26.4989 6.07207 26.5 7V25Z M21 22.5H18.738L20.449 18.218C20.5032 18.0144 20.514 17.8018 20.4805 17.5938C20.4471 17.3859 20.3703 17.1873 20.255 17.011L20.241 16.991L16.404 11.706C16.3573 11.6427 16.2965 11.5913 16.2263 11.5559C16.1561 11.5204 16.0786 11.502 16 11.502C15.9214 11.502 15.8439 11.5204 15.7737 11.5559C15.7035 11.5913 15.6427 11.6427 15.596 11.706L11.748 17C11.627 17.1868 11.5486 17.3979 11.5182 17.6184C11.4877 17.8389 11.5061 18.0634 11.572 18.276L13.262 22.5H11C10.8674 22.5 10.7402 22.5527 10.6464 22.6464C10.5527 22.7402 10.5 22.8674 10.5 23C10.5 23.1326 10.5527 23.2598 10.6464 23.3535C10.7402 23.4473 10.8674 23.5 11 23.5H21C21.1326 23.5 21.2598 23.4473 21.3536 23.3535C21.4473 23.2598 21.5 23.1326 21.5 23C21.5 22.8674 21.4473 22.7402 21.3536 22.6464C21.2598 22.5527 21.1326 22.5 21 22.5ZM17.661 22.5H14.338L12.518 17.957C12.4997 17.8924 12.4948 17.8247 12.5038 17.7581C12.5127 17.6915 12.5353 17.6275 12.57 17.57L15.5 13.538V17.2C15.4243 17.2673 15.3631 17.3494 15.3203 17.4412C15.2776 17.5331 15.254 17.6327 15.2512 17.734C15.2484 17.8353 15.2664 17.9361 15.304 18.0301C15.3416 18.1242 15.3981 18.2096 15.47 18.281C15.5941 18.4026 15.7565 18.4774 15.9296 18.4926C16.1027 18.5078 16.2757 18.4623 16.4191 18.3641C16.5624 18.2659 16.6672 18.1209 16.7155 17.954C16.7638 17.7871 16.7527 17.6086 16.684 17.449C16.6409 17.3539 16.5782 17.2691 16.5 17.2V13.54L19.424 17.568C19.488 17.668 19.516 17.787 19.502 17.905L17.66 22.5H17.661Z"/></svg>