<svg width="32" height="32" viewBox="0 0 32 32" fill="none" xmlns="http://www.w3.org/2000/svg">
<path d="M22.9998 2.24953H8.99985C7.74051 2.25096 6.53316 2.75186 5.64267 3.64235C4.75218 4.53284 4.25128 5.74019 4.24985 6.99953V24.9995C4.25128 26.2589 4.75218 27.4662 5.64267 28.3567C6.53316 29.2472 7.74051 29.7481 8.99985 29.7495H22.9998C24.2592 29.7481 25.4665 29.2472 26.357 28.3567C27.2475 27.4662 27.7484 26.2589 27.7498 24.9995V6.99953C27.7484 5.74019 27.2475 4.53284 26.357 3.64235C25.4665 2.75186 24.2592 2.25096 22.9998 2.24953ZM26.2498 24.9995C26.2488 25.8612 25.9061 26.6872 25.2968 27.2965C24.6876 27.9058 23.8615 28.2485 22.9998 28.2495H8.99985C8.1382 28.2485 7.31213 27.9058 6.70285 27.2965C6.09358 26.6872 5.75085 25.8612 5.74985 24.9995V6.99953C5.75085 6.13788 6.09358 5.31181 6.70285 4.70254C7.31213 4.09326 8.1382 3.75053 8.99985 3.74953H22.9998C23.8615 3.75053 24.6876 4.09326 25.2968 4.70254C25.9061 5.31181 26.2488 6.13788 26.2498 6.99953V24.9995Z" fill="black"/>
<path d="M22.7498 13.4995C22.7483 13.4103 22.7307 13.3221 22.6977 13.2391C22.6943 13.23 22.696 13.2205 22.6922 13.2115C22.6862 13.197 22.6738 13.1881 22.667 13.1742C22.636 13.1107 22.5962 13.052 22.5486 12.9998C22.534 12.9838 22.5216 12.9668 22.5058 12.9523C22.4427 12.8915 22.3692 12.8424 22.2889 12.8072L16.3094 10.3072C16.1246 10.231 15.9171 10.231 15.7323 10.3072L9.71177 12.8072C9.63166 12.842 9.55837 12.8907 9.49527 12.9512C9.47837 12.9666 9.46527 12.9847 9.44974 13.0017C9.40317 13.0531 9.36405 13.1108 9.33353 13.1731C9.32645 13.1874 9.31369 13.1966 9.30747 13.2115C9.30362 13.2207 9.30533 13.2305 9.30185 13.2397C9.26899 13.3225 9.25138 13.4105 9.24985 13.4996V21.4995C9.24973 21.6477 9.29356 21.7926 9.37578 21.9158C9.458 22.0391 9.57493 22.1351 9.71177 22.1919L15.7118 24.6919C15.8031 24.73 15.901 24.7495 15.9999 24.7495C16.0987 24.7495 16.1967 24.73 16.2879 24.6919L22.2879 22.1919C22.4248 22.1351 22.5417 22.0391 22.6239 21.9158C22.7061 21.7926 22.75 21.6477 22.7498 21.4995V13.4995ZM16.0194 11.812L20.0531 13.4982L15.9998 15.187L11.9529 13.5008L16.0194 11.812ZM10.7498 14.6244L15.2498 16.4994V22.8745L10.7498 20.9995V14.6244ZM16.7498 22.8745V16.4995L21.2498 14.6245V20.9995L16.7498 22.8745Z" fill="black"/>
</svg>
