<svg xmlns="http://www.w3.org/2000/svg" width="32" height="32" viewBox="0 0 32 32"><path d="M23 2.5H9C7.80693 2.50132 6.66311 2.97585 5.81948 3.81948C4.97585 4.66311 4.50132 5.80693 4.5 7V25C4.50132 26.1931 4.97585 27.3369 5.81948 28.1805C6.66311 29.0241 7.80693 29.4987 9 29.5H23C24.1931 29.4987 25.3369 29.0241 26.1805 28.1805C27.0241 27.3369 27.4987 26.1931 27.5 25V7C27.4987 5.80693 27.0241 4.66311 26.1805 3.81948C25.3369 2.97585 24.1931 2.50132 23 2.5ZM15 17C15 16.7348 15.1054 16.4804 15.2929 16.2929C15.4804 16.1054 15.7348 16 16 16C16.2652 16 16.5196 16.1054 16.7071 16.2929C16.8946 16.4804 17 16.7348 17 17V19C17 19.2652 16.8946 19.5196 16.7071 19.7071C16.5196 19.8946 16.2652 20 16 20C15.7348 20 15.4804 19.8946 15.2929 19.7071C15.1054 19.5196 15 19.2652 15 19V17ZM10.999 14C10.999 13.7348 11.1044 13.4804 11.2919 13.2929C11.4794 13.1054 11.7338 13 11.999 13C12.2642 13 12.5186 13.1054 12.7061 13.2929C12.8936 13.4804 12.999 13.7348 12.999 14V19C12.999 19.2652 12.8936 19.5196 12.7061 19.7071C12.5186 19.8946 12.2642 20 11.999 20C11.7338 20 11.4794 19.8946 11.2919 19.7071C11.1044 19.5196 10.999 19.2652 10.999 19V14ZM19.999 24H11.999C11.7338 24 11.4794 23.8946 11.2919 23.7071C11.1044 23.5196 10.999 23.2652 10.999 23C10.999 22.7348 11.1044 22.4804 11.2919 22.2929C11.4794 22.1054 11.7338 22 11.999 22H19.999C20.2642 22 20.5186 22.1054 20.7061 22.2929C20.8936 22.4804 20.999 22.7348 20.999 23C20.999 23.2652 20.8936 23.5196 20.7061 23.7071C20.5186 23.8946 20.2642 24 19.999 24ZM20.999 19C20.999 19.2652 20.8936 19.5196 20.7061 19.7071C20.5186 19.8946 20.2642 20 19.999 20C19.7338 20 19.4794 19.8946 19.2919 19.7071C19.1044 19.5196 18.999 19.2652 18.999 19V11C18.999 10.7348 19.1044 10.4804 19.2919 10.2929C19.4794 10.1054 19.7338 10 19.999 10C20.2642 10 20.5186 10.1054 20.7061 10.2929C20.8936 10.4804 20.999 10.7348 20.999 11V19Z"/></svg>