<svg xmlns="http://www.w3.org/2000/svg" id="Layer_1" data-name="Layer 1" viewBox="0 0 32 32"><defs><style>.cls-1{fill:#0f0f0f;fill-rule:evenodd;}</style></defs><path d="M26.18,3.819A4.5,4.5,0,0,0,23,2.5H9A4.5,4.5,0,0,0,4.5,7V25A4.505,4.505,0,0,0,9,29.5H23A4.507,4.507,0,0,0,27.5,25V7A4.5,4.5,0,0,0,26.18,3.819ZM22,19.424a.032.032,0,0,1,0,.014l0,.013a.085.085,0,0,0,0,.023l0,.026a2.5,2.5,0,1,1-2-2.45V12l-5.986,1.68L14,21.5v0a2.5,2.5,0,1,1-2-2.454V13.683a2,2,0,0,1,1.49-1.934l5.984-1.678A2,2,0,0,1,22,12Z"/></svg>