<svg width="32" height="32" viewBox="0 0 32 32" fill="none" xmlns="http://www.w3.org/2000/svg">
<path d="M23 2.24951H9C7.74066 2.25094 6.53331 2.75184 5.64282 3.64233C4.75233 4.53282 4.25143 5.74017 4.25 6.99951V24.9995C4.25143 26.2589 4.75233 27.4662 5.64282 28.3567C6.53331 29.2472 7.74066 29.7481 9 29.7495H23C24.2593 29.7481 25.4667 29.2472 26.3572 28.3567C27.2477 27.4662 27.7486 26.2589 27.75 24.9995V6.99951C27.7486 5.74017 27.2477 4.53282 26.3572 3.64233C25.4667 2.75184 24.2593 2.25094 23 2.24951ZM26.25 24.9995C26.249 25.8612 25.9063 26.6872 25.297 27.2965C24.6877 27.9058 23.8616 28.2485 23 28.2495H10.75V24.9995C10.75 24.8006 10.671 24.6098 10.5303 24.4692C10.3897 24.3285 10.1989 24.2495 10 24.2495C9.80109 24.2495 9.61032 24.3285 9.46967 24.4692C9.32902 24.6098 9.25 24.8006 9.25 24.9995V28.2495H9C8.13835 28.2485 7.31228 27.9058 6.703 27.2965C6.09373 26.6872 5.751 25.8612 5.75 24.9995V6.99951C5.751 6.13786 6.09373 5.31179 6.703 4.70252C7.31228 4.09324 8.13835 3.75051 9 3.74951H9.25V6.99951C9.25 7.19842 9.32902 7.38919 9.46967 7.52984C9.61032 7.67049 9.80109 7.74951 10 7.74951C10.1989 7.74951 10.3897 7.67049 10.5303 7.52984C10.671 7.38919 10.75 7.19842 10.75 6.99951V3.74951H23C23.8616 3.75051 24.6877 4.09324 25.297 4.70252C25.9063 5.31179 26.249 6.13786 26.25 6.99951V24.9995Z" fill="black"/>
<path d="M10 17.2505C9.8011 17.2505 9.61037 17.3296 9.46973 17.4702C9.32909 17.6109 9.25005 17.8016 9.25 18.0005V21.0005C9.25 21.1994 9.32902 21.3902 9.46967 21.5308C9.61032 21.6715 9.80109 21.7505 10 21.7505C10.1989 21.7505 10.3897 21.6715 10.5303 21.5308C10.671 21.3902 10.75 21.1994 10.75 21.0005V18.0005C10.7499 17.8016 10.6709 17.6109 10.5303 17.4702C10.3896 17.3296 10.1989 17.2505 10 17.2505Z" fill="black"/>
<path d="M10 10.2495C9.8011 10.2496 9.61037 10.3286 9.46973 10.4692C9.32909 10.6099 9.25005 10.8006 9.25 10.9995V13.9995C9.25 14.1984 9.32902 14.3892 9.46967 14.5298C9.61032 14.6705 9.80109 14.7495 10 14.7495C10.1989 14.7495 10.3897 14.6705 10.5303 14.5298C10.671 14.3892 10.75 14.1984 10.75 13.9995V10.9995C10.7499 10.8006 10.6709 10.6099 10.5303 10.4692C10.3896 10.3286 10.1989 10.2496 10 10.2495Z" fill="black"/>
</svg>
