<svg width="32" height="32" viewBox="0 0 32 32" fill="none" xmlns="http://www.w3.org/2000/svg">
<path d="M23 2H9C6.2 2 4 4.2 4 7V25C4 27.8 6.2 30 9 30H23C25.8 30 28 27.8 28 25V7C28 4.2 25.8 2 23 2ZM26 25C26 26.7 24.7 28 23 28H9C7.3 28 6 26.7 6 25V7C6 5.3 7.3 4 9 4H23C24.7 4 26 5.3 26 7V25Z" fill="black"/>
<path d="M10.6996 18.2H8.59961V24H9.89961V22.1H10.6996C11.4996 22.1 12.0996 22 12.4996 21.7C12.9996 21.4 13.1996 20.9 13.1996 20.2C13.1996 19.6 12.9996 19.0999 12.6996 18.7999C12.1996 18.3999 11.5996 18.2 10.6996 18.2ZM10.6996 21.2H9.89961V19.2H10.6996C11.3996 19.2 11.7996 19.5 11.7996 20.2C11.7996 20.8 11.3996 21.2 10.6996 21.2Z" fill="black"/>
<path d="M16.2 18.2H14V24H16.2C18.1 24 19.1 23 19.1 21.1C19.1 19.2 18.1 18.2 16.2 18.2ZM16.2 23.1H15.4V19.2H16.2C16.6 19.2 17 19.3 17.3 19.6C17.6 19.9 17.8 20.4 17.8 21.1C17.7 22.4 17.2 23.1 16.2 23.1Z" fill="black"/>
<path d="M20 24H21.4V21.7H23.4V20.7H21.4V19.2H23.7V18.2H20V24Z" fill="black"/>
</svg>
