<svg width="32" height="32" viewBox="0 0 32 32" fill="none" xmlns="http://www.w3.org/2000/svg">
<path d="M19.4951 13.9746C20.3235 13.9746 20.9951 13.303 20.9951 12.4746C20.9951 11.6462 20.3235 10.9746 19.4951 10.9746C18.6667 10.9746 17.9951 11.6462 17.9951 12.4746C17.9951 13.303 18.6667 13.9746 19.4951 13.9746Z" fill="black"/>
<path d="M16.0186 19.9561C15.7262 19.6289 15.3645 19.3712 14.9599 19.2016C14.5553 19.0319 14.1179 18.9547 13.6797 18.9756C13.2388 18.9924 12.8071 19.1065 12.4155 19.3095C12.0238 19.5126 11.6818 19.7998 11.4141 20.1504L5.49487 27.7873C5.91192 28.3189 6.44393 28.7491 7.05098 29.0457C7.65803 29.3423 8.32436 29.4976 9 29.5H23C23.3914 29.4946 23.7804 29.4376 24.1569 29.3303L16.0186 19.9561Z" fill="black"/>
<path d="M9.83008 18.9307C10.2771 18.3479 10.8469 17.8708 11.4992 17.5332C12.1514 17.1956 12.87 17.0058 13.6039 16.9774C14.3378 16.949 15.0689 17.0826 15.7454 17.3687C16.4218 17.6548 17.0268 18.0864 17.5176 18.6328L25.9625 28.3605C26.4435 27.9423 26.8295 27.4261 27.0946 26.8465C27.3598 26.2669 27.498 25.6374 27.5 25V7C27.4987 5.80692 27.0242 4.66309 26.1805 3.81945C25.3369 2.97582 24.1931 2.5013 23 2.5H9C7.80692 2.5013 6.66309 2.97582 5.81946 3.81945C4.97582 4.66309 4.5013 5.80692 4.5 7V25C4.50483 25.2397 4.52898 25.4786 4.5722 25.7144L9.83008 18.9307ZM19.4951 8.97466C20.1873 8.97466 20.864 9.17993 21.4396 9.56452C22.0151 9.9491 22.4638 10.4957 22.7287 11.1353C22.9936 11.7748 23.0629 12.4785 22.9278 13.1575C22.7928 13.8364 22.4594 14.46 21.97 14.9495C21.4805 15.439 20.8568 15.7724 20.1779 15.9074C19.499 16.0425 18.7952 15.9731 18.1557 15.7082C17.5161 15.4433 16.9695 14.9947 16.5849 14.4192C16.2004 13.8436 15.9951 13.1669 15.9951 12.4747C15.9962 11.5467 16.3653 10.6571 17.0214 10.001C17.6776 9.34484 18.5672 8.97577 19.4951 8.97466Z" fill="black"/>
</svg>
