<svg xmlns="http://www.w3.org/2000/svg" width="32" height="32" viewBox="0 0 32 32"><path d="M23 2H9C7.6744 2.00159 6.40356 2.52888 5.46622 3.46622C4.52888 4.40356 4.00159 5.6744 4 7V25C4.00159 26.3256 4.52888 27.5964 5.46622 28.5338C6.40356 29.4711 7.6744 29.9984 9 30H23C24.3257 29.9987 25.5967 29.4715 26.5341 28.5341C27.4715 27.5967 27.9987 26.3257 28 25V7C27.9984 5.6744 27.4711 4.40356 26.5338 3.46622C25.5964 2.52888 24.3256 2.00159 23 2ZM26 25C25.9989 25.7953 25.6825 26.5578 25.1202 27.1202C24.5578 27.6825 23.7953 27.9989 23 28H9C8.20459 27.9992 7.44199 27.6829 6.87956 27.1204C6.31712 26.558 6.00079 25.7954 6 25V7C6.00079 6.20459 6.31712 5.44199 6.87956 4.87956C7.44199 4.31712 8.20459 4.00079 9 4H23C23.7954 4.00079 24.558 4.31712 25.1204 4.87956C25.6829 5.44199 25.9992 6.20459 26 7V25Z M21.22 10.415C20.9754 10.2265 20.6904 10.0973 20.3875 10.0376C20.0845 9.97797 19.7718 9.98938 19.474 10.071L13.491 11.749C13.0637 11.8613 12.6856 12.112 12.4159 12.4619C12.1461 12.8118 11.9999 13.2412 12 13.683V19.05C11.4947 18.9469 10.9699 19.0025 10.4974 19.2093C10.025 19.4161 9.62809 19.764 9.3611 20.2052C9.09411 20.6465 8.97011 21.1594 9.00609 21.6739C9.04207 22.1884 9.23628 22.6791 9.56209 23.0789C9.88789 23.4786 10.3294 23.7679 10.826 23.9069C11.3226 24.046 11.8501 24.028 12.3361 23.8555C12.8221 23.6831 13.2429 23.3645 13.5408 22.9435C13.8387 22.5225 13.9991 22.0197 14 21.504V21.5L14.014 13.68L20 12V17.05C19.4945 16.9468 18.9695 17.0025 18.497 17.2095C18.0244 17.4165 17.6275 17.7646 17.3606 18.2061C17.0937 18.6476 16.9699 19.1608 17.0062 19.6754C17.0425 20.19 17.2371 20.6808 17.5633 21.0804C17.8896 21.4801 18.3315 21.769 18.8284 21.9076C19.3253 22.0462 19.8529 22.0276 20.3389 21.8545C20.8249 21.6814 21.2454 21.3622 21.5428 20.9407C21.8402 20.5191 21.9999 20.0159 22 19.5C22 19.483 21.995 19.468 21.995 19.45C21.995 19.441 22 19.434 22 19.424V12C22.0012 11.6936 21.9315 11.3912 21.7961 11.1163C21.6608 10.8415 21.4636 10.6018 21.22 10.416V10.415Z"/></svg>