<svg width="32" height="32" viewBox="0 0 32 32" fill="none" xmlns="http://www.w3.org/2000/svg">
<path d="M25.0001 6.99951H16.9225C16.7757 6.99238 16.6321 6.95413 16.5012 6.8873C16.3703 6.82046 16.2551 6.72656 16.1632 6.61182L15.4474 5.769C14.9784 5.21421 14.3939 4.76845 13.7348 4.46283C13.0758 4.1572 12.358 3.99907 11.6315 3.99947H7.00012C5.67452 4.00103 4.40365 4.52831 3.46631 5.46565C2.52897 6.403 2.00168 7.67386 2.00012 8.99947V22.9995C2.00168 24.3251 2.52897 25.5959 3.46631 26.5333C4.40365 27.4706 5.67452 27.9979 7.00012 27.9995H25.0001C26.3257 27.9979 27.5966 27.4706 28.5339 26.5333C29.4713 25.5959 29.9986 24.3251 30.0001 22.9995V11.9614C29.9936 10.6409 29.4635 9.3768 28.5261 8.44658C27.5888 7.51636 26.3207 6.99594 25.0001 6.99951ZM7.00012 5.99951H11.6315C12.0677 5.99915 12.4987 6.09415 12.8944 6.27785C13.29 6.46156 13.6408 6.72953 13.922 7.063L14.6403 7.9087C14.9191 8.24485 15.2675 8.51647 15.6616 8.7048C16.0556 8.89314 16.4858 8.99369 16.9225 8.99952H25.0001C25.7904 8.99545 26.5501 9.30498 27.1125 9.86024C27.6749 10.4155 27.9941 11.1711 28.0001 11.9614V13.0105L4.00012 12.9924V8.99951C4.00099 8.20412 4.31734 7.44157 4.87976 6.87915C5.44218 6.31673 6.20474 6.00038 7.00012 5.99951ZM25.0001 25.9995H7.00012C6.20474 25.9986 5.44218 25.6823 4.87976 25.1199C4.31734 24.5574 4.00099 23.7949 4.00012 22.9995V14.9924L28.0001 15.0105V22.9995C27.9993 23.7949 27.6829 24.5574 27.1205 25.1199C26.5581 25.6823 25.7955 25.9986 25.0001 25.9995Z" fill="black"/>
</svg>
