<svg width="32" height="32" viewBox="0 0 32 32" fill="none" xmlns="http://www.w3.org/2000/svg">
<path d="M23.0001 30H9.00012C7.67452 29.9984 6.40365 29.4712 5.46631 28.5338C4.52897 27.5965 4.00168 26.3256 4.00012 25V7C4.00168 5.6744 4.52896 4.40353 5.46631 3.46618C6.40365 2.52884 7.67452 2.00156 9.00012 2H23.0001C24.3257 2.00156 25.5966 2.52884 26.5339 3.46619C27.4713 4.40353 27.9986 5.6744 28.0001 7V25C27.9986 26.3256 27.4713 27.5965 26.5339 28.5338C25.5966 29.4712 24.3257 29.9984 23.0001 30ZM9.00012 4C8.20474 4.00087 7.44218 4.31722 6.87976 4.87964C6.31734 5.44206 6.00099 6.20462 6.00012 7V25C6.00099 25.7954 6.31734 26.5579 6.87976 27.1204C7.44218 27.6828 8.20474 27.9991 9.00012 28H23.0001C23.7955 27.9991 24.5581 27.6828 25.1205 27.1204C25.6829 26.5579 25.9993 25.7954 26.0001 25V7C25.9993 6.20462 25.6829 5.44206 25.1205 4.87964C24.5581 4.31722 23.7955 4.00087 23.0001 4H9.00012Z" fill="black"/>
<path d="M17.8898 15.3428H19.6056V23.9824H17.5304L14.1222 17.8506V23.9824H12.3937V15.3428H14.6261L17.8898 21.2461V15.3428Z" fill="black"/>
</svg>
