<svg width="32" height="32" viewBox="0 0 32 32" fill="none" xmlns="http://www.w3.org/2000/svg">
<path d="M23.0001 2.24989H9.00012C7.74078 2.25132 6.53343 2.75222 5.64294 3.64271C4.75246 4.5332 4.25155 5.74055 4.25012 6.99989V24.9999C4.25155 26.2592 4.75246 27.4666 5.64294 28.3571C6.53343 29.2476 7.74078 29.7485 9.00012 29.7499H23.0001C24.2595 29.7485 25.4668 29.2476 26.3573 28.3571C27.2478 27.4666 27.7487 26.2592 27.7501 24.9999V6.99989C27.7487 5.74055 27.2478 4.5332 26.3573 3.64271C25.4668 2.75222 24.2595 2.25132 23.0001 2.24989ZM26.2501 24.9999C26.2491 25.8615 25.9064 26.6876 25.2971 27.2969C24.6878 27.9062 23.8618 28.2489 23.0001 28.2499H9.00012C8.13847 28.2489 7.3124 27.9062 6.70313 27.2969C6.09385 26.6876 5.75112 25.8615 5.75012 24.9999V6.99989C5.75112 6.13824 6.09385 5.31217 6.70313 4.70289C7.3124 4.09362 8.13847 3.75089 9.00012 3.74989H23.0001C23.8618 3.75089 24.6878 4.09362 25.2971 4.70289C25.9064 5.31217 26.2491 6.13824 26.2501 6.99989V24.9999Z" fill="black"/>
<path d="M16.0001 12.2499C15.8012 12.2499 15.6105 12.329 15.4699 12.4696C15.3292 12.6103 15.2502 12.801 15.2501 12.9999V13.3036C14.1863 13.4431 13.1829 13.8775 12.3532 14.5578C11.5236 15.2381 10.901 16.137 10.5558 17.1528C10.2106 18.1687 10.1567 19.2608 10.4001 20.3057C10.6435 21.3506 11.1745 22.3065 11.9331 23.0652C12.6917 23.8239 13.6475 24.3551 14.6924 24.5987C15.7372 24.8423 16.8294 24.7886 17.8453 24.4436C18.8612 24.0986 19.7602 23.4761 20.4406 22.6466C21.121 21.8171 21.5557 20.8136 21.6953 19.7499H22.0001C22.199 19.7498 22.3898 19.6708 22.5304 19.5302C22.671 19.3895 22.7501 19.1988 22.7501 18.9999C22.7481 17.2103 22.0363 15.4946 20.7708 14.2292C19.5054 12.9637 17.7897 12.2519 16.0001 12.2499ZM16.0001 23.2489C14.9385 23.2503 13.9149 22.8538 13.1312 22.1377C12.3475 21.4215 11.8605 20.4378 11.7664 19.3803C11.6723 18.3229 11.9778 17.2686 12.6226 16.4253C13.2675 15.582 14.205 15.0109 15.2501 14.8247V18.9999C15.2502 19.1988 15.3292 19.3895 15.4699 19.5301C15.6105 19.6708 15.8012 19.7498 16.0001 19.7499H20.1742C19.9983 20.7296 19.4842 21.6165 18.7214 22.256C17.9586 22.8954 16.9955 23.2468 16.0001 23.2489ZM16.7501 18.2499V13.8036C17.8713 13.967 18.9097 14.4881 19.7108 15.2892C20.512 16.0903 21.033 17.1287 21.1964 18.2499H16.7501Z" fill="black"/>
</svg>
