<svg xmlns="http://www.w3.org/2000/svg" width="32" height="32" viewBox="0 0 32 32"><path d="M21.3111 21.2742C21.1204 21.4518 20.9135 21.6112 20.6931 21.7502C20.8151 21.4652 20.9671 21.1502 21.0901 20.8992C21.7601 19.5112 22.5201 17.9392 21.5141 16.9312C20.4071 15.8232 18.9061 17.0422 17.1701 18.4582C16.9471 18.6392 16.6751 18.8602 16.3961 19.0782C16.6161 18.7612 16.8471 18.4432 17.0441 18.1722C18.6051 16.0132 20.2191 13.7822 18.7541 12.4382C18.5816 12.2831 18.3796 12.1644 18.1601 12.0893C17.9407 12.0142 17.7084 11.9843 17.477 12.0012C15.107 12.1072 10.5891 16.8692 9.26105 18.3262C9.12643 18.4722 9.03827 18.655 9.00775 18.8513C8.97723 19.0476 9.00574 19.2485 9.08965 19.4285C9.17356 19.6086 9.30909 19.7596 9.47902 19.8624C9.64896 19.9653 9.84563 20.0153 10.0441 20.0062C10.1762 19.9993 10.3056 19.9664 10.4249 19.9092C10.5442 19.8521 10.651 19.7718 10.7391 19.6732C13.2651 16.9022 16.118 14.4692 17.269 14.0592C16.7599 15.1023 16.1411 16.0882 15.4231 17.0002C14.0001 18.9652 12.8771 20.5182 13.9391 21.5822C15.0861 22.7302 16.7121 21.4102 18.4311 20.0092C18.8703 19.6455 19.3199 19.2944 19.779 18.9562C19.626 19.3302 19.4251 19.7452 19.2881 20.0302C18.6401 21.3692 18.0291 22.6332 18.8921 23.4972C19.0501 23.66 19.2398 23.7887 19.4494 23.8756C19.659 23.9624 19.8842 24.0055 20.1111 24.0022C21.0945 23.8981 22.0083 23.4455 22.6871 22.7262C22.7823 22.6357 22.8589 22.5275 22.9123 22.4075C22.9657 22.2875 22.995 22.1581 22.9984 22.0268C23.0018 21.8955 22.9794 21.7648 22.9323 21.6422C22.8852 21.5196 22.8145 21.4074 22.7241 21.3122C22.6336 21.2169 22.5253 21.1404 22.4053 21.0869C22.2854 21.0335 22.156 21.0043 22.0247 21.0008C21.8934 20.9974 21.7627 21.0198 21.6401 21.0669C21.5175 21.114 21.4053 21.1847 21.3101 21.2752L21.3111 21.2742Z M23 2H9C7.6744 2.00159 6.40356 2.52888 5.46622 3.46622C4.52888 4.40356 4.00159 5.6744 4 7V25C4.00159 26.3256 4.52888 27.5964 5.46622 28.5338C6.40356 29.4711 7.6744 29.9984 9 30H23C24.3257 29.9987 25.5967 29.4715 26.5341 28.5341C27.4715 27.5967 27.9987 26.3257 28 25V7C27.9984 5.6744 27.4711 4.40356 26.5338 3.46622C25.5964 2.52888 24.3256 2.00159 23 2ZM26 25C25.9989 25.7953 25.6825 26.5578 25.1202 27.1202C24.5578 27.6825 23.7953 27.9989 23 28H9C8.20459 27.9992 7.44199 27.6829 6.87956 27.1204C6.31712 26.558 6.00079 25.7954 6 25V7C6.00079 6.20459 6.31712 5.44199 6.87956 4.87956C7.44199 4.31712 8.20459 4.00079 9 4H23C23.7954 4.00079 24.558 4.31712 25.1204 4.87956C25.6829 5.44199 25.9992 6.20459 26 7V25Z"/></svg>