<svg xmlns="http://www.w3.org/2000/svg" width="32" height="32" viewBox="0 0 32 32"><path d="M23 2.25H9C7.74063 2.25132 6.53322 2.75219 5.6427 3.6427C4.75219 4.53322 4.25132 5.74063 4.25 7V25C4.25132 26.2594 4.75219 27.4668 5.6427 28.3573C6.53322 29.2478 7.74063 29.7487 9 29.75H23C24.2594 29.7487 25.4668 29.2478 26.3573 28.3573C27.2478 27.4668 27.7487 26.2594 27.75 25V7C27.7487 5.74063 27.2478 4.53322 26.3573 3.6427C25.4668 2.75219 24.2594 2.25132 23 2.25ZM26.25 25C26.2489 25.8616 25.9062 26.6877 25.2969 27.2969C24.6877 27.9062 23.8616 28.2489 23 28.25H9C8.13837 28.2489 7.31234 27.9062 6.70307 27.2969C6.09381 26.6877 5.75106 25.8616 5.75 25V7C5.75106 6.13837 6.09381 5.31234 6.70307 4.70307C7.31234 4.09381 8.13837 3.75106 9 3.75H23C23.8616 3.75106 24.6877 4.09381 25.2969 4.70307C25.9062 5.31234 26.2489 6.13837 26.25 7V25Z M8.77002 18.2412H10.723C12.29 18.2412 13.074 18.8742 13.074 20.1372C13.074 21.3802 12.29 22.0012 10.723 22.0012H9.79502V24.0012H8.77002V18.2412ZM9.79502 21.2332H10.739C11.586 21.2332 12.01 20.8682 12.01 20.1372C12.01 19.7432 11.888 19.4492 11.643 19.2572C11.423 19.0922 11.123 19.0092 10.738 19.0092H9.79502V21.2332ZM13.927 18.2412H15.911C16.881 18.2412 17.609 18.5082 18.095 19.0412C18.537 19.5272 18.759 20.2212 18.759 21.1212C18.759 22.1242 18.463 22.8762 17.871 23.3782C17.375 23.7942 16.713 24.0012 15.887 24.0012H13.927V18.2412ZM14.951 23.2262H15.935C16.548 23.2262 17.007 23.0282 17.311 22.6342C17.588 22.2762 17.727 21.7722 17.727 21.1222C17.727 20.3692 17.543 19.8122 17.175 19.4502C16.871 19.1502 16.452 19.0022 15.919 19.0022H14.951V23.2262ZM22.965 20.8342V21.6102H20.677V24.0022H19.653V18.2422H23.229V19.0422H20.677V20.8332H22.965V20.8342Z"/></svg>