<svg xmlns="http://www.w3.org/2000/svg" width="32" height="32" viewBox="0 0 32 32"><path d="M21.4829 21.4558C21.1278 21.802 20.7059 22.0722 20.2429 22.2498C20.4129 21.7478 20.6199 21.2598 20.8639 20.7898C21.5299 19.4128 22.2179 17.9888 21.3379 17.1078C20.3849 16.1598 18.9689 17.3118 17.3279 18.6508C16.7409 19.1488 16.1249 19.6128 15.4839 20.0398C15.9009 19.3448 16.3539 18.6718 16.8409 18.0248C18.3389 15.9548 19.8869 13.8148 18.5849 12.6228C18.438 12.4879 18.2645 12.3851 18.0756 12.3211C17.8867 12.257 17.6865 12.2331 17.4879 12.2508C15.1549 12.3548 10.3799 17.4708 9.44488 18.4948C9.31094 18.642 9.24097 18.8363 9.25035 19.0351C9.25972 19.2339 9.34768 19.4208 9.49488 19.5548C9.64207 19.6887 9.83645 19.7587 10.0352 19.7493C10.234 19.7399 10.4209 19.652 10.5549 19.5048C13.5299 16.2408 16.7929 13.5318 17.5629 13.7148C17.7479 14.2128 16.3139 16.1938 15.6259 17.1458C14.2199 19.0868 13.2049 20.4908 14.1159 21.4038C15.1029 22.3908 16.5739 21.1988 18.2759 19.8138C18.8914 19.2813 19.5473 18.7975 20.2379 18.3668C20.0542 18.9789 19.8114 19.5717 19.5129 20.1368C18.8799 21.4488 18.3329 22.5818 19.0699 23.3188C19.2064 23.4579 19.3698 23.5678 19.5501 23.6418C19.7305 23.7157 19.924 23.7521 20.1189 23.7488C21.0354 23.6437 21.8848 23.2167 22.5159 22.5438C22.5873 22.4759 22.6447 22.3947 22.6847 22.3047C22.7248 22.2147 22.7467 22.1177 22.7493 22.0192C22.7518 21.9207 22.735 21.8227 22.6996 21.7308C22.6643 21.6388 22.6112 21.5547 22.5434 21.4833C22.4756 21.4118 22.3943 21.3545 22.3043 21.3144C22.2143 21.2744 22.1173 21.2524 22.0188 21.2499C21.9203 21.2473 21.8223 21.2642 21.7304 21.2995C21.6384 21.3348 21.5543 21.3879 21.4829 21.4558Z M23 2.25H9C7.74063 2.25132 6.53322 2.75219 5.6427 3.6427C4.75219 4.53322 4.25132 5.74063 4.25 7V25C4.25132 26.2594 4.75219 27.4668 5.6427 28.3573C6.53322 29.2478 7.74063 29.7487 9 29.75H23C24.2594 29.7487 25.4668 29.2478 26.3573 28.3573C27.2478 27.4668 27.7487 26.2594 27.75 25V7C27.7484 5.74071 27.2475 4.53345 26.357 3.643C25.4666 2.75254 24.2593 2.25159 23 2.25ZM26.25 25C26.2489 25.8616 25.9062 26.6877 25.2969 27.2969C24.6877 27.9062 23.8616 28.2489 23 28.25H9C8.13837 28.2489 7.31234 27.9062 6.70307 27.2969C6.09381 26.6877 5.75106 25.8616 5.75 25V7C5.75106 6.13837 6.09381 5.31234 6.70307 4.70307C7.31234 4.09381 8.13837 3.75106 9 3.75H23C23.8616 3.75106 24.6877 4.09381 25.2969 4.70307C25.9062 5.31234 26.2489 6.13837 26.25 7V25Z"/></svg>