<svg id="Layer_1" data-name="Layer 1" xmlns="http://www.w3.org/2000/svg" viewBox="0 0 32 32"><defs><style>.cls-1{fill:#0f0f0f}</style></defs><path class="cls-1" d="m19.405 13.5-3.386-1.415L12.6 13.5l3.4 1.417ZM15 16.666 11 15v5.834l4 1.666ZM17 16.666V22.5l4-1.667V15Z"/><path d="M26.18 3.819A4.5 4.5 0 0 0 23 2.5H9A4.5 4.5 0 0 0 4.5 7v18A4.505 4.505 0 0 0 9 29.5h14a4.507 4.507 0 0 0 4.5-4.5V7a4.5 4.5 0 0 0-1.32-3.181ZM23 21.5a1 1 0 0 1-.615.922l-6 2.5a.989.989 0 0 1-.77 0l-6-2.5A1 1 0 0 1 9 21.5v-8a1 1 0 0 1 .616-.924l6.021-2.5a.993.993 0 0 1 .769 0l5.98 2.5A1 1 0 0 1 23 13.5Z" fill-rule="evenodd" fill="#0f0f0f"/></svg>