<svg xmlns="http://www.w3.org/2000/svg" width="32" height="32" viewBox="0 0 32 32"><path d="M22 11.25H10C9.80109 11.25 9.61032 11.329 9.46967 11.4697C9.32902 11.6103 9.25 11.8011 9.25 12C9.25 12.1989 9.32902 12.3897 9.46967 12.5303C9.61032 12.671 9.80109 12.75 10 12.75H22C22.1989 12.75 22.3897 12.671 22.5303 12.5303C22.671 12.3897 22.75 12.1989 22.75 12C22.75 11.8011 22.671 11.6103 22.5303 11.4697C22.3897 11.329 22.1989 11.25 22 11.25ZM20 16.25H12C11.8011 16.25 11.6103 16.329 11.4697 16.4697C11.329 16.6103 11.25 16.8011 11.25 17C11.25 17.1989 11.329 17.3897 11.4697 17.5303C11.6103 17.671 11.8011 17.75 12 17.75H20C20.1989 17.75 20.3897 17.671 20.5303 17.5303C20.671 17.3897 20.75 17.1989 20.75 17C20.75 16.8011 20.671 16.6103 20.5303 16.4697C20.3897 16.329 20.1989 16.25 20 16.25ZM19 21.25H13C12.8011 21.25 12.6103 21.329 12.4697 21.4697C12.329 21.6103 12.25 21.8011 12.25 22C12.25 22.1989 12.329 22.3897 12.4697 22.5303C12.6103 22.671 12.8011 22.75 13 22.75H19C19.1989 22.75 19.3897 22.671 19.5303 22.5303C19.671 22.3897 19.75 22.1989 19.75 22C19.75 21.8011 19.671 21.6103 19.5303 21.4697C19.3897 21.329 19.1989 21.25 19 21.25Z M16 2.25C13.2805 2.25 10.6221 3.05642 8.36092 4.56729C6.09974 6.07816 4.33737 8.22562 3.29666 10.7381C2.25596 13.2506 1.98366 16.0153 2.51421 18.6825C3.04476 21.3497 4.35432 23.7997 6.27729 25.7227C8.20026 27.6457 10.6503 28.9553 13.3175 29.4858C15.9848 30.0163 18.7494 29.744 21.2619 28.7033C23.7744 27.6626 25.9218 25.9003 27.4327 23.6391C28.9436 21.3779 29.75 18.7195 29.75 16C29.746 12.3545 28.2961 8.85943 25.7183 6.28167C23.1406 3.7039 19.6455 2.25397 16 2.25ZM16 28.25C13.5772 28.25 11.2088 27.5316 9.19427 26.1855C7.17977 24.8395 5.60966 22.9263 4.68248 20.6879C3.75531 18.4495 3.51272 15.9864 3.98539 13.6101C4.45806 11.2339 5.62476 9.05114 7.33795 7.33794C9.05114 5.62475 11.2339 4.45805 13.6102 3.98538C15.9864 3.51271 18.4495 3.7553 20.6879 4.68248C22.9263 5.60965 24.8395 7.17976 26.1855 9.19426C27.5316 11.2088 28.25 13.5772 28.25 16C28.2466 19.2478 26.9548 22.3617 24.6583 24.6583C22.3617 26.9548 19.2479 28.2466 16 28.25Z"/></svg>