<svg width="32" height="32" viewBox="0 0 32 32" fill="none" xmlns="http://www.w3.org/2000/svg">
<path d="M26.0001 7.5004H6.00012C5.86751 7.5004 5.74034 7.55308 5.64657 7.64685C5.5528 7.74061 5.50012 7.86779 5.50012 8.0004C5.50012 8.13301 5.5528 8.26019 5.64657 8.35395C5.74034 8.44772 5.86751 8.5004 6.00012 8.5004H26.0001C26.1327 8.5004 26.2599 8.44772 26.3537 8.35395C26.4474 8.26019 26.5001 8.13301 26.5001 8.0004C26.5001 7.86779 26.4474 7.74061 26.3537 7.64685C26.2599 7.55308 26.1327 7.5004 26.0001 7.5004Z" fill="black"/>
<path d="M23.0001 15.5004H9.00012C8.86751 15.5004 8.74034 15.5531 8.64657 15.6468C8.5528 15.7406 8.50012 15.8678 8.50012 16.0004C8.50012 16.133 8.5528 16.2602 8.64657 16.354C8.74034 16.4477 8.86751 16.5004 9.00012 16.5004H23.0001C23.1327 16.5004 23.2599 16.4477 23.3537 16.354C23.4474 16.2602 23.5001 16.133 23.5001 16.0004C23.5001 15.8678 23.4474 15.7406 23.3537 15.6468C23.2599 15.5531 23.1327 15.5004 23.0001 15.5004Z" fill="black"/>
<path d="M21.0001 23.5004H11.0001C10.8675 23.5004 10.7403 23.5531 10.6466 23.6468C10.5528 23.7406 10.5001 23.8678 10.5001 24.0004C10.5001 24.133 10.5528 24.2602 10.6466 24.354C10.7403 24.4477 10.8675 24.5004 11.0001 24.5004H21.0001C21.1327 24.5004 21.2599 24.4477 21.3537 24.354C21.4474 24.2602 21.5001 24.133 21.5001 24.0004C21.5001 23.8678 21.4474 23.7406 21.3537 23.6468C21.2599 23.5531 21.1327 23.5004 21.0001 23.5004Z" fill="black"/>
</svg>
