<svg width="32" height="32" viewBox="0 0 32 32" fill="none" xmlns="http://www.w3.org/2000/svg">
<path d="M26.0001 7.0004H6.00012C5.73491 7.0004 5.48055 7.10575 5.29302 7.29329C5.10548 7.48083 5.00012 7.73518 5.00012 8.0004C5.00012 8.26561 5.10548 8.51997 5.29302 8.7075C5.48055 8.89504 5.73491 9.0004 6.00012 9.0004H26.0001C26.2653 9.0004 26.5197 8.89504 26.7072 8.7075C26.8948 8.51997 27.0001 8.26561 27.0001 8.0004C27.0001 7.73518 26.8948 7.48083 26.7072 7.29329C26.5197 7.10575 26.2653 7.0004 26.0001 7.0004Z" fill="black"/>
<path d="M23.0001 15.0004H9.00012C8.8688 15.0004 8.73876 15.0263 8.61744 15.0765C8.49611 15.1268 8.38587 15.2004 8.29302 15.2933C8.20016 15.3861 8.1265 15.4964 8.07624 15.6177C8.02599 15.739 8.00012 15.8691 8.00012 16.0004C8.00012 16.1317 8.02599 16.2618 8.07624 16.3831C8.1265 16.5044 8.20016 16.6146 8.29302 16.7075C8.38587 16.8004 8.49611 16.874 8.61744 16.9243C8.73876 16.9745 8.8688 17.0004 9.00012 17.0004H23.0001C23.2653 17.0004 23.5197 16.895 23.7072 16.7075C23.8948 16.52 24.0001 16.2656 24.0001 16.0004C24.0001 15.7352 23.8948 15.4808 23.7072 15.2933C23.5197 15.1058 23.2653 15.0004 23.0001 15.0004Z" fill="black"/>
<path d="M21.0001 23.0004H11.0001C10.7349 23.0004 10.4806 23.1058 10.293 23.2933C10.1055 23.4808 10.0001 23.7352 10.0001 24.0004C10.0001 24.2656 10.1055 24.52 10.293 24.7075C10.4806 24.895 10.7349 25.0004 11.0001 25.0004H21.0001C21.2653 25.0004 21.5197 24.895 21.7072 24.7075C21.8948 24.52 22.0001 24.2656 22.0001 24.0004C22.0001 23.7352 21.8948 23.4808 21.7072 23.2933C21.5197 23.1058 21.2653 23.0004 21.0001 23.0004Z" fill="black"/>
</svg>
