<svg width="32" height="32" viewBox="0 0 32 32" fill="none" xmlns="http://www.w3.org/2000/svg">
<path d="M26.0001 7.2504H6.00012C5.80121 7.2504 5.61044 7.32942 5.46979 7.47007C5.32914 7.61072 5.25012 7.80149 5.25012 8.0004C5.25012 8.19931 5.32914 8.39008 5.46979 8.53073C5.61044 8.67138 5.80121 8.7504 6.00012 8.7504H26.0001C26.199 8.7504 26.3898 8.67138 26.5305 8.53073C26.6711 8.39008 26.7501 8.19931 26.7501 8.0004C26.7501 7.80149 26.6711 7.61072 26.5305 7.47007C26.3898 7.32942 26.199 7.2504 26.0001 7.2504Z" fill="black"/>
<path d="M23.0001 15.2504H9.00012C8.80121 15.2504 8.61044 15.3294 8.46979 15.4701C8.32914 15.6107 8.25012 15.8015 8.25012 16.0004C8.25012 16.1993 8.32914 16.3901 8.46979 16.5307C8.61044 16.6714 8.80121 16.7504 9.00012 16.7504H23.0001C23.199 16.7504 23.3898 16.6714 23.5305 16.5307C23.6711 16.3901 23.7501 16.1993 23.7501 16.0004C23.7501 15.8015 23.6711 15.6107 23.5305 15.4701C23.3898 15.3294 23.199 15.2504 23.0001 15.2504Z" fill="black"/>
<path d="M21.0001 23.2504H11.0001C10.8012 23.2504 10.6104 23.3294 10.4698 23.4701C10.3291 23.6107 10.2501 23.8015 10.2501 24.0004C10.2501 24.1993 10.3291 24.3901 10.4698 24.5307C10.6104 24.6714 10.8012 24.7504 11.0001 24.7504H21.0001C21.199 24.7504 21.3898 24.6714 21.5305 24.5307C21.6711 24.3901 21.7501 24.1993 21.7501 24.0004C21.7501 23.8015 21.6711 23.6107 21.5305 23.4701C21.3898 23.3294 21.199 23.2504 21.0001 23.2504Z" fill="black"/>
</svg>
