<svg width="32" height="32" viewBox="0 0 32 32" fill="none" xmlns="http://www.w3.org/2000/svg">
<path d="M10.9977 20.4995H5.00012C4.86751 20.4995 4.74034 20.5522 4.64657 20.646C4.5528 20.7397 4.50012 20.8669 4.50012 20.9995C4.50012 21.1321 4.5528 21.2593 4.64657 21.3531C4.74034 21.4468 4.86751 21.4995 5.00012 21.4995H9.79312L4.6466 26.646C4.59941 26.6923 4.56185 26.7474 4.5361 26.8083C4.51035 26.8691 4.49692 26.9345 4.49659 27.0005C4.49625 27.0666 4.50902 27.1321 4.53416 27.1932C4.55929 27.2543 4.59629 27.3099 4.64301 27.3566C4.68974 27.4033 4.74526 27.4403 4.80638 27.4654C4.86749 27.4906 4.93298 27.5033 4.99906 27.503C5.06514 27.5027 5.13049 27.4893 5.19135 27.4635C5.2522 27.4378 5.30735 27.4002 5.3536 27.353L10.498 22.2087L10.5002 26.9995C10.5002 27.1321 10.5528 27.2593 10.6466 27.3531C10.7404 27.4468 10.8676 27.4995 11.0002 27.4995C11.1328 27.4995 11.2599 27.4468 11.3537 27.3531C11.4475 27.2593 11.5002 27.1321 11.5002 26.9995L11.4977 20.9995C11.4977 20.9339 11.4848 20.8688 11.4597 20.8082C11.4345 20.7475 11.3977 20.6924 11.3513 20.646C11.3048 20.5995 11.2497 20.5627 11.189 20.5376C11.1284 20.5124 11.0633 20.4995 10.9977 20.4995Z" fill="black"/>
<path d="M11.0001 4.49952C10.8675 4.49952 10.7403 4.5522 10.6466 4.64597C10.5528 4.73973 10.5001 4.86691 10.5001 4.99952L10.498 9.79078L5.35363 4.646C5.25956 4.55381 5.1329 4.50246 5.00118 4.50313C4.86946 4.50379 4.74333 4.55641 4.65019 4.64955C4.55705 4.74269 4.50443 4.86883 4.50376 5.00055C4.5031 5.13226 4.55444 5.25892 4.64663 5.353L9.79269 10.4995H5.00012C4.86751 10.4995 4.74034 10.5522 4.64657 10.6459C4.5528 10.7397 4.50012 10.8669 4.50012 10.9995C4.50012 11.1321 4.5528 11.2593 4.64657 11.353C4.74034 11.4468 4.86751 11.4995 5.00012 11.4995H10.9977C11.1303 11.4995 11.2575 11.4468 11.3512 11.353C11.445 11.2593 11.4977 11.1321 11.4977 10.9995L11.5001 4.99949C11.5002 4.93382 11.4872 4.86879 11.4621 4.80811C11.437 4.74744 11.4002 4.69231 11.3537 4.64587C11.3073 4.59944 11.2522 4.56261 11.1915 4.5375C11.1308 4.51239 11.0658 4.49948 11.0001 4.49952Z" fill="black"/>
<path d="M27.5001 20.9995C27.5002 20.9338 27.4873 20.8688 27.4621 20.8081C27.437 20.7475 27.4002 20.6923 27.3538 20.6459C27.3073 20.5994 27.2522 20.5626 27.1915 20.5375C27.1308 20.5124 27.0658 20.4995 27.0001 20.4995H21.0021C20.9365 20.4995 20.8714 20.5124 20.8107 20.5375C20.7501 20.5626 20.6949 20.5994 20.6485 20.6459C20.602 20.6923 20.5652 20.7475 20.5401 20.8081C20.515 20.8688 20.5021 20.9338 20.5021 20.9995L20.5001 26.9995C20.5001 27.1321 20.5528 27.2593 20.6466 27.3531C20.7403 27.4468 20.8675 27.4995 21.0001 27.4995C21.1327 27.4995 21.2599 27.4468 21.3537 27.3531C21.4474 27.2593 21.5001 27.1321 21.5001 26.9995L21.5018 22.2091L26.6466 27.353C26.6929 27.4002 26.748 27.4378 26.8089 27.4635C26.8697 27.4893 26.9351 27.5027 27.0011 27.503C27.0672 27.5033 27.1327 27.4906 27.1938 27.4654C27.2549 27.4403 27.3105 27.4033 27.3572 27.3566C27.4039 27.3099 27.4409 27.2543 27.466 27.1932C27.4912 27.1321 27.504 27.0666 27.5036 27.0005C27.5033 26.9345 27.4899 26.8691 27.4641 26.8083C27.4384 26.7474 27.4008 26.6923 27.3536 26.646L22.2063 21.4995H27.0001C27.0658 21.4996 27.1308 21.4866 27.1915 21.4615C27.2522 21.4364 27.3073 21.3996 27.3538 21.3532C27.4002 21.3067 27.437 21.2516 27.4621 21.1909C27.4873 21.1302 27.5002 21.0652 27.5001 20.9995Z" fill="black"/>
<path d="M27.0001 10.4995H22.2071L27.3536 5.353C27.4008 5.30675 27.4384 5.2516 27.4641 5.19075C27.4899 5.12989 27.5033 5.06453 27.5036 4.99845C27.504 4.93238 27.4912 4.86689 27.4661 4.80577C27.4409 4.74466 27.4039 4.68914 27.3572 4.64241C27.3105 4.59569 27.255 4.55869 27.1939 4.53355C27.1327 4.50842 27.0673 4.49565 27.0012 4.49599C26.9351 4.49632 26.8697 4.50975 26.8089 4.5355C26.748 4.56125 26.6929 4.59881 26.6466 4.646L21.5018 9.79078L21.5001 4.99952C21.5001 4.86691 21.4474 4.73973 21.3537 4.64597C21.2599 4.5522 21.1327 4.49952 21.0001 4.49952C20.8675 4.49952 20.7403 4.5522 20.6466 4.64597C20.5528 4.73973 20.5001 4.86691 20.5001 4.99952L20.5021 10.9995C20.5021 11.0652 20.515 11.1302 20.5401 11.1909C20.5652 11.2516 20.602 11.3067 20.6485 11.3532C20.6949 11.3996 20.7501 11.4364 20.8107 11.4615C20.8714 11.4867 20.9365 11.4996 21.0021 11.4995H27.0001C27.1327 11.4995 27.2599 11.4468 27.3537 11.3531C27.4474 11.2593 27.5001 11.1321 27.5001 10.9995C27.5001 10.8669 27.4474 10.7397 27.3537 10.646C27.2599 10.5522 27.1327 10.4995 27.0001 10.4995Z" fill="black"/>
</svg>
