<svg xmlns="http://www.w3.org/2000/svg" width="32" height="32" viewBox="0 0 32 32"><path d="M20.707 11.293C20.5184 11.1108 20.2658 11.01 20.0036 11.0123C19.7414 11.0146 19.4906 11.1198 19.3052 11.3052C19.1198 11.4906 19.0146 11.7414 19.0123 12.0036C19.01 12.2658 19.1108 12.5184 19.293 12.707L21.585 14.999H10.415L12.707 12.706C12.8892 12.5174 12.99 12.2648 12.9877 12.0026C12.9854 11.7404 12.8802 11.4896 12.6948 11.3042C12.5094 11.1188 12.2586 11.0136 11.9964 11.0113C11.7342 11.009 11.4816 11.1098 11.293 11.292L7.293 15.292C7.10553 15.4795 7.00021 15.7338 7.00021 15.999C7.00021 16.2642 7.10553 16.5185 7.293 16.706L11.293 20.706C11.3852 20.8015 11.4956 20.8777 11.6176 20.9301C11.7396 20.9825 11.8708 21.0101 12.0036 21.0112C12.1364 21.0124 12.2681 20.9871 12.391 20.9368C12.5139 20.8865 12.6255 20.8123 12.7194 20.7184C12.8133 20.6245 12.8875 20.5128 12.9378 20.39C12.9881 20.2671 13.0134 20.1354 13.0123 20.0026C13.0111 19.8698 12.9835 19.7386 12.9311 19.6166C12.8787 19.4946 12.8025 19.3842 12.707 19.292L10.413 17H21.587L19.293 19.293C19.1108 19.4816 19.01 19.7342 19.0123 19.9964C19.0146 20.2586 19.1198 20.5094 19.3052 20.6948C19.4906 20.8802 19.7414 20.9854 20.0036 20.9877C20.2658 20.99 20.5184 20.8892 20.707 20.707L24.707 16.707C24.8942 16.5193 24.9994 16.2651 24.9994 16C24.9994 15.7349 24.8942 15.4807 24.707 15.293L20.707 11.293ZM4 6C3.73478 6 3.48043 6.10536 3.29289 6.29289C3.10536 6.48043 3 6.73478 3 7V25C3 25.2652 3.10536 25.5196 3.29289 25.7071C3.48043 25.8946 3.73478 26 4 26C4.26522 26 4.51957 25.8946 4.70711 25.7071C4.89464 25.5196 5 25.2652 5 25V7C5 6.73478 4.89464 6.48043 4.70711 6.29289C4.51957 6.10536 4.26522 6 4 6ZM28 6C27.7348 6 27.4804 6.10536 27.2929 6.29289C27.1054 6.48043 27 6.73478 27 7V25C27 25.2652 27.1054 25.5196 27.2929 25.7071C27.4804 25.8946 27.7348 26 28 26C28.2652 26 28.5196 25.8946 28.7071 25.7071C28.8946 25.5196 29 25.2652 29 25V7C29 6.73478 28.8946 6.48043 28.7071 6.29289C28.5196 6.10536 28.2652 6 28 6Z"/></svg>