<svg width="32" height="32" viewBox="0 0 32 32" fill="none" xmlns="http://www.w3.org/2000/svg">
<path d="M20.5304 11.4692C20.3898 11.3286 20.199 11.2496 20.0001 11.2496C19.8012 11.2496 19.6105 11.3286 19.4698 11.4692C19.3292 11.6099 19.2502 11.8006 19.2502 11.9995C19.2502 12.1984 19.3292 12.3892 19.4698 12.5298L22.1889 15.2488H9.81091L12.5304 12.5298C12.6 12.4602 12.6553 12.3775 12.693 12.2865C12.7306 12.1955 12.75 12.098 12.75 11.9995C12.75 11.901 12.7306 11.8035 12.693 11.7125C12.6553 11.6215 12.6 11.5389 12.5304 11.4692C12.4608 11.3996 12.3781 11.3444 12.2871 11.3067C12.1961 11.269 12.0986 11.2496 12.0001 11.2496C11.9016 11.2496 11.8041 11.269 11.7131 11.3067C11.6221 11.3444 11.5395 11.3996 11.4698 11.4692L7.46936 15.4692C7.3997 15.5389 7.34444 15.6215 7.30674 15.7125C7.26904 15.8035 7.24963 15.901 7.24963 15.9995C7.24963 16.098 7.26904 16.1955 7.30674 16.2865C7.34444 16.3775 7.3997 16.4602 7.46936 16.5298L11.4698 20.5298C11.6105 20.6704 11.8012 20.7494 12.0001 20.7494C12.199 20.7494 12.3898 20.6704 12.5304 20.5298C12.671 20.3892 12.75 20.1984 12.75 19.9995C12.75 19.8006 12.671 19.6099 12.5304 19.4692L9.80963 16.7488H22.1902L19.4698 19.4692C19.4002 19.5389 19.345 19.6215 19.3073 19.7125C19.2696 19.8035 19.2502 19.901 19.2502 19.9995C19.2502 20.098 19.2696 20.1955 19.3073 20.2865C19.345 20.3775 19.4002 20.4602 19.4698 20.5298C19.5395 20.5994 19.6222 20.6547 19.7131 20.6924C19.8041 20.73 19.9016 20.7494 20.0001 20.7494C20.0986 20.7494 20.1961 20.73 20.2871 20.6924C20.3781 20.6547 20.4608 20.5994 20.5304 20.5298L24.5304 16.5298C24.6001 16.4602 24.6553 16.3775 24.693 16.2865C24.7307 16.1955 24.7501 16.098 24.7501 15.9995C24.7501 15.901 24.7307 15.8035 24.693 15.7125C24.6553 15.6215 24.6001 15.5389 24.5304 15.4692L20.5304 11.4692Z" fill="black"/>
<path d="M4.00012 6.24952C3.80123 6.24957 3.61049 6.32861 3.46985 6.46925C3.32921 6.60989 3.25018 6.80062 3.25012 6.99952V24.9995C3.25012 25.1984 3.32914 25.3892 3.46979 25.5299C3.61044 25.6705 3.80121 25.7495 4.00012 25.7495C4.19903 25.7495 4.3898 25.6705 4.53045 25.5299C4.6711 25.3892 4.75012 25.1984 4.75012 24.9995V6.99952C4.75007 6.80062 4.67103 6.60989 4.53039 6.46925C4.38975 6.32861 4.19902 6.24957 4.00012 6.24952Z" fill="black"/>
<path d="M28.0001 6.24952C27.8012 6.24957 27.6105 6.32861 27.4699 6.46925C27.3292 6.60989 27.2502 6.80062 27.2501 6.99952V24.9995C27.2501 25.1984 27.3291 25.3892 27.4698 25.5299C27.6104 25.6705 27.8012 25.7495 28.0001 25.7495C28.199 25.7495 28.3898 25.6705 28.5305 25.5299C28.6711 25.3892 28.7501 25.1984 28.7501 24.9995V6.99952C28.7501 6.80062 28.671 6.60989 28.5304 6.46925C28.3898 6.32861 28.199 6.24957 28.0001 6.24952Z" fill="black"/>
</svg>
