<svg width="32" height="32" viewBox="0 0 32 32" fill="none" xmlns="http://www.w3.org/2000/svg">
<path d="M11.7072 20.2925C11.6143 20.1996 11.5041 20.1259 11.3828 20.0757C11.2615 20.0254 11.1314 19.9995 11.0001 19.9995C10.8688 19.9995 10.7388 20.0254 10.6175 20.0757C10.4961 20.1259 10.3859 20.1996 10.2931 20.2925L6.00116 24.5848L6.00016 20.9995C6.0002 20.8682 5.97435 20.7381 5.92411 20.6168C5.87387 20.4955 5.80021 20.3852 5.70735 20.2923C5.61448 20.1995 5.50423 20.1258 5.38289 20.0756C5.26154 20.0253 5.13149 19.9995 5.00016 19.9995C4.73503 19.9996 4.48026 20.105 4.29282 20.2926C4.10539 20.4801 4.00011 20.7344 4.00012 20.9995L4.00207 26.9995C4.00204 27.1309 4.02788 27.2609 4.07812 27.3822C4.12837 27.5036 4.20202 27.6138 4.29489 27.7067C4.38775 27.7996 4.49801 27.8732 4.61935 27.9235C4.74069 27.9737 4.87074 27.9996 5.00207 27.9995H11.0001C11.2653 27.9995 11.5197 27.8942 11.7072 27.7066C11.8948 27.5191 12.0001 27.2647 12.0001 26.9995C12.0001 26.7343 11.8948 26.4799 11.7072 26.2924C11.5197 26.1049 11.2653 25.9995 11.0001 25.9995H7.41455L11.7072 21.7065C11.8 21.6137 11.8737 21.5035 11.924 21.3822C11.9742 21.2608 12.0001 21.1308 12.0001 20.9995C12.0001 20.8682 11.9742 20.7382 11.924 20.6169C11.8737 20.4955 11.8 20.3853 11.7072 20.2925Z" fill="black"/>
<path d="M12.0001 4.99952C12.0002 4.86819 11.9743 4.73814 11.9241 4.6168C11.8738 4.49545 11.8002 4.3852 11.7073 4.29234C11.6144 4.19947 11.5042 4.12581 11.3828 4.07557C11.2615 4.02533 11.1315 3.99949 11.0001 3.99952H5.00212C4.87079 3.99948 4.74074 4.02533 4.6194 4.07557C4.49806 4.12581 4.3878 4.19947 4.29494 4.29233C4.20207 4.3852 4.12841 4.49545 4.07817 4.61679C4.02793 4.73814 4.00209 4.86819 4.00212 4.99952L4.00017 10.9995C4.00016 11.2647 4.10544 11.5189 4.29287 11.7065C4.48031 11.894 4.73455 11.9994 4.99968 11.9995C5.13101 11.9996 5.2615 11.9737 5.38285 11.9235C5.50419 11.8732 5.61444 11.7996 5.7073 11.7067C5.80017 11.6138 5.87383 11.5036 5.92407 11.3822C5.97431 11.2609 6.00016 11.1309 6.00012 10.9995L6.00112 7.41498L10.2931 11.7065C10.4806 11.8941 10.7349 11.9994 11.0001 11.9994C11.2653 11.9994 11.5196 11.8941 11.7071 11.7065C11.8946 11.519 12 11.2647 12 10.9995C12 10.7343 11.8946 10.48 11.7071 10.2925L7.41377 5.99949H11.0001C11.1315 5.99952 11.2615 5.97368 11.3828 5.92344C11.5042 5.8732 11.6144 5.79955 11.7073 5.70668C11.8002 5.61382 11.8738 5.50357 11.9241 5.38223C11.9743 5.2609 12.0002 5.13085 12.0001 4.99952Z" fill="black"/>
<path d="M27.0006 19.9995C26.8693 19.9995 26.7387 20.0253 26.6174 20.0756C26.4961 20.1258 26.3858 20.1995 26.2929 20.2923C26.2001 20.3852 26.1264 20.4955 26.0762 20.6168C26.0259 20.7381 26.0001 20.8682 26.0001 20.9995L25.9987 24.584L21.7072 20.2925C21.5196 20.105 21.2653 19.9996 21.0001 19.9996C20.7349 19.9996 20.4806 20.105 20.2931 20.2925C20.1056 20.48 20.0002 20.7343 20.0002 20.9995C20.0002 21.2647 20.1056 21.519 20.2931 21.7066L24.5861 25.9995H21.0001C20.7349 25.9995 20.4806 26.1049 20.293 26.2924C20.1055 26.48 20.0001 26.7343 20.0001 26.9995C20.0001 27.2648 20.1055 27.5191 20.293 27.7067C20.4806 27.8942 20.7349 27.9995 21.0001 27.9995H26.9977C27.129 27.9996 27.2591 27.9737 27.3804 27.9235C27.5017 27.8733 27.612 27.7996 27.7049 27.7067C27.7977 27.6139 27.8714 27.5036 27.9216 27.3823C27.9719 27.2609 27.9977 27.1309 27.9977 26.9995L28.0001 20.9995C28.0001 20.7344 27.8948 20.4801 27.7074 20.2926C27.52 20.1051 27.2657 19.9996 27.0006 19.9995Z" fill="black"/>
<path d="M20.2931 11.7065C20.3859 11.7994 20.4961 11.8731 20.6175 11.9234C20.7388 11.9736 20.8688 11.9995 21.0001 11.9995C21.1314 11.9995 21.2615 11.9736 21.3828 11.9234C21.5041 11.8731 21.6143 11.7994 21.7072 11.7065L25.9987 7.41572L26.0001 10.9995C26.0001 11.1309 26.0259 11.2609 26.0762 11.3822C26.1264 11.5036 26.2001 11.6138 26.2929 11.7067C26.3858 11.7996 26.4961 11.8732 26.6174 11.9235C26.7387 11.9737 26.8688 11.9996 27.0001 11.9995C27.2653 11.9994 27.52 11.894 27.7074 11.7065C27.8948 11.5189 28.0001 11.2647 28.0001 10.9995L27.9977 4.99952C27.9977 4.86819 27.9719 4.73814 27.9216 4.6168C27.8714 4.49545 27.7977 4.3852 27.7049 4.29234C27.612 4.19947 27.5017 4.12581 27.3804 4.07557C27.2591 4.02533 27.129 3.99949 26.9977 3.99952H21.0001C20.7349 3.99952 20.4806 4.10488 20.293 4.29241C20.1055 4.47995 20.0001 4.7343 20.0001 4.99952C20.0001 5.26474 20.1055 5.51909 20.293 5.70663C20.4806 5.89416 20.7349 5.99952 21.0001 5.99952H24.5868L20.2931 10.2925C20.2002 10.3853 20.1265 10.4956 20.0763 10.6169C20.026 10.7382 20.0001 10.8682 20.0001 10.9995C20.0001 11.1308 20.026 11.2609 20.0763 11.3822C20.1265 11.5035 20.2002 11.6137 20.2931 11.7065Z" fill="black"/>
</svg>
