<svg xmlns="http://www.w3.org/2000/svg" width="32" height="32" viewBox="0 0 32 32"><path d="M10.9978 20.4998H4.99978C4.86718 20.4998 4.74 20.5525 4.64623 20.6463C4.55246 20.74 4.49978 20.8672 4.49978 20.9998C4.49978 21.1324 4.55246 21.2596 4.64623 21.3534C4.74 21.4471 4.86718 21.4998 4.99978 21.4998H9.79279L4.64678 26.6458C4.59903 26.6919 4.56094 26.7471 4.53473 26.8081C4.50853 26.8691 4.49474 26.9347 4.49416 27.0011C4.49358 27.0675 4.50623 27.1333 4.53137 27.1948C4.55651 27.2562 4.59364 27.3121 4.64059 27.359C4.68753 27.406 4.74336 27.4431 4.80481 27.4682C4.86626 27.4934 4.9321 27.506 4.99849 27.5054C5.06488 27.5049 5.13049 27.4911 5.19149 27.4649C5.25249 27.4387 5.30766 27.4006 5.35378 27.3528L10.4978 22.2088L10.4998 26.9988C10.4998 27.1314 10.5525 27.2586 10.6462 27.3524C10.74 27.4461 10.8672 27.4988 10.9998 27.4988C11.1324 27.4988 11.2596 27.4461 11.3533 27.3524C11.4471 27.2586 11.4998 27.1314 11.4998 26.9988L11.4978 20.9988C11.4978 20.8662 11.4451 20.739 11.3513 20.6453C11.2576 20.5515 11.1304 20.4988 10.9978 20.4988V20.4998ZM10.9998 4.49981C10.8672 4.49981 10.74 4.55249 10.6462 4.64625C10.5525 4.74002 10.4998 4.8672 10.4998 4.99981L10.4978 9.78981L5.35378 4.64581C5.25948 4.55473 5.13318 4.50433 5.00208 4.50547C4.87099 4.50661 4.74558 4.55919 4.65288 4.6519C4.56017 4.7446 4.50759 4.87001 4.50645 5.00111C4.50531 5.13221 4.55571 5.25851 4.64678 5.35281L9.79279 10.4988H4.99978C4.86718 10.4988 4.74 10.5515 4.64623 10.6453C4.55246 10.739 4.49978 10.8662 4.49978 10.9988C4.49978 11.1314 4.55246 11.2586 4.64623 11.3524C4.74 11.4461 4.86718 11.4988 4.99978 11.4988H10.9978C11.1304 11.4988 11.2576 11.4461 11.3513 11.3524C11.4451 11.2586 11.4978 11.1314 11.4978 10.9988L11.4998 4.99881C11.4999 4.93311 11.4871 4.86803 11.462 4.80731C11.4369 4.74659 11.4001 4.69142 11.3536 4.64496C11.3072 4.59851 11.252 4.56168 11.1913 4.5366C11.1306 4.51152 11.0655 4.49868 10.9998 4.49881V4.49981ZM27.4998 20.9998C27.5002 20.934 27.4875 20.8688 27.4625 20.808C27.4375 20.7472 27.4007 20.6919 27.3542 20.6454C27.3077 20.5989 27.2524 20.562 27.1916 20.5371C27.1308 20.5121 27.0656 20.4994 26.9998 20.4998H21.0018C20.8693 20.5001 20.7422 20.5528 20.6485 20.6465C20.5548 20.7403 20.502 20.8673 20.5018 20.9998L20.4998 26.9998C20.4998 27.1324 20.5525 27.2596 20.6462 27.3534C20.74 27.4471 20.8672 27.4998 20.9998 27.4998C21.1324 27.4998 21.2596 27.4471 21.3533 27.3534C21.4471 27.2596 21.4998 27.1324 21.4998 26.9998L21.5018 22.2098L26.6468 27.3528C26.6929 27.4006 26.7481 27.4387 26.8091 27.4649C26.8701 27.4911 26.9357 27.5049 27.0021 27.5054C27.0685 27.506 27.1343 27.4934 27.1958 27.4682C27.2572 27.4431 27.313 27.406 27.36 27.359C27.4069 27.3121 27.4441 27.2562 27.4692 27.1948C27.4943 27.1333 27.507 27.0675 27.5064 27.0011C27.5058 26.9347 27.492 26.8691 27.4658 26.8081C27.4396 26.7471 27.4015 26.6919 27.3538 26.6458L22.2058 21.4998H26.9998C27.0655 21.4999 27.1306 21.4871 27.1913 21.462C27.252 21.4369 27.3072 21.4001 27.3536 21.3537C27.4001 21.3072 27.4369 21.252 27.462 21.1913C27.4871 21.1306 27.4999 21.0655 27.4998 20.9998ZM26.9998 10.4998H22.2068L27.3538 5.35281C27.4015 5.30668 27.4396 5.25151 27.4658 5.19051C27.492 5.12951 27.5058 5.0639 27.5064 4.99751C27.507 4.93112 27.4943 4.86528 27.4692 4.80383C27.4441 4.74238 27.4069 4.68656 27.36 4.63961C27.313 4.59266 27.2572 4.55554 27.1958 4.5304C27.1343 4.50526 27.0685 4.49261 27.0021 4.49318C26.9357 4.49376 26.8701 4.50755 26.8091 4.53376C26.7481 4.55996 26.6929 4.59805 26.6468 4.64581L21.5018 9.79081L21.4998 4.99981C21.4998 4.8672 21.4471 4.74002 21.3533 4.64625C21.2596 4.55249 21.1324 4.49981 20.9998 4.49981C20.8672 4.49981 20.74 4.55249 20.6462 4.64625C20.5525 4.74002 20.4998 4.8672 20.4998 4.99981L20.5018 10.9998C20.5018 11.1324 20.5545 11.2596 20.6482 11.3534C20.742 11.4471 20.8692 11.4998 21.0018 11.4998H26.9998C27.1324 11.4998 27.2596 11.4471 27.3533 11.3534C27.4471 11.2596 27.4998 11.1324 27.4998 10.9998C27.4998 10.8672 27.4471 10.74 27.3533 10.6463C27.2596 10.5525 27.1324 10.4998 26.9998 10.4998Z"/></svg>