<svg xmlns="http://www.w3.org/2000/svg" width="32" height="32" viewBox="0 0 32 32"><path d="M20.53 11.47C20.3878 11.3375 20.1998 11.2654 20.0055 11.2688C19.8112 11.2723 19.6258 11.351 19.4884 11.4884C19.351 11.6258 19.2723 11.8112 19.2688 12.0055C19.2654 12.1998 19.3375 12.3878 19.47 12.53L22.189 15.249H9.81L12.53 12.529C12.6016 12.4598 12.6587 12.377 12.698 12.2855C12.7372 12.194 12.7579 12.0955 12.7587 11.9959C12.7595 11.8964 12.7405 11.7976 12.7027 11.7055C12.665 11.6133 12.6092 11.5296 12.5388 11.4592C12.4683 11.3888 12.3846 11.3332 12.2924 11.2955C12.2002 11.2578 12.1014 11.2389 12.0018 11.2398C11.9023 11.2407 11.8039 11.2615 11.7124 11.3008C11.6209 11.3402 11.5382 11.3973 11.469 11.469L7.469 15.469C7.32855 15.6096 7.24966 15.8002 7.24966 15.999C7.24966 16.1978 7.32855 16.3884 7.469 16.529L11.469 20.529C11.6112 20.6615 11.7992 20.7336 11.9935 20.7302C12.1878 20.7267 12.3732 20.648 12.5106 20.5106C12.648 20.3732 12.7267 20.1878 12.7302 19.9935C12.7336 19.7992 12.6615 19.6112 12.529 19.469L9.809 16.749H22.189L19.469 19.469C19.3426 19.6123 19.2756 19.7983 19.2815 19.9893C19.2875 20.1803 19.366 20.3618 19.5011 20.4969C19.6362 20.632 19.8177 20.7105 20.0087 20.7165C20.1997 20.7224 20.3857 20.6554 20.529 20.529L24.529 16.529C24.5987 16.4594 24.6539 16.3768 24.6916 16.2859C24.7293 16.1949 24.7488 16.0974 24.7488 15.999C24.7488 15.9005 24.7293 15.8031 24.6916 15.7121C24.6539 15.6212 24.5987 15.5386 24.529 15.469L20.529 11.469L20.53 11.47ZM4 6.25C3.80109 6.25 3.61032 6.32902 3.46967 6.46967C3.32902 6.61032 3.25 6.80109 3.25 7V25C3.25 25.1989 3.32902 25.3897 3.46967 25.5303C3.61032 25.671 3.80109 25.75 4 25.75C4.19891 25.75 4.38968 25.671 4.53033 25.5303C4.67098 25.3897 4.75 25.1989 4.75 25V7C4.75 6.80109 4.67098 6.61032 4.53033 6.46967C4.38968 6.32902 4.19891 6.25 4 6.25ZM28 6.25C27.8011 6.25 27.6103 6.32902 27.4697 6.46967C27.329 6.61032 27.25 6.80109 27.25 7V25C27.25 25.1989 27.329 25.3897 27.4697 25.5303C27.6103 25.671 27.8011 25.75 28 25.75C28.1989 25.75 28.3897 25.671 28.5303 25.5303C28.671 25.3897 28.75 25.1989 28.75 25V7C28.75 6.80109 28.671 6.61032 28.5303 6.46967C28.3897 6.32902 28.1989 6.25 28 6.25Z"/></svg>