<svg width="32" height="32" viewBox="0 0 32 32" fill="none" xmlns="http://www.w3.org/2000/svg">
<path d="M26.2216 16.128L22.6098 10.9962L26.2187 5.8712C26.3789 5.64696 26.4742 5.3829 26.4942 5.10802C26.5143 4.83314 26.4581 4.55806 26.3321 4.31298C26.206 4.0679 26.0148 3.86229 25.7796 3.71872C25.5443 3.57515 25.2741 3.49917 24.9984 3.49913L5.99844 3.50013C5.93277 3.50009 5.86774 3.513 5.80706 3.53811C5.74638 3.56323 5.69124 3.60005 5.64481 3.64649C5.59837 3.69293 5.56154 3.74806 5.53643 3.80874C5.51131 3.86942 5.49841 3.93446 5.49844 4.00013V18.0001L5.50039 18.0098V28.0001C5.50039 28.1327 5.55307 28.2599 5.64684 28.3537C5.74061 28.4475 5.86779 28.5001 6.00039 28.5001C6.133 28.5001 6.26018 28.4475 6.35395 28.3537C6.44772 28.2599 6.50039 28.1327 6.50039 28.0001V18.5001L24.9994 18.4991C25.2749 18.499 25.545 18.4231 25.7802 18.2796C26.0154 18.1362 26.2066 17.9307 26.3328 17.6859C26.459 17.441 26.5154 17.1661 26.4958 16.8913C26.4762 16.6165 26.3813 16.3525 26.2216 16.128ZM25.4442 17.2276C25.4029 17.3099 25.3393 17.379 25.2606 17.427C25.182 17.4749 25.0915 17.4999 24.9994 17.4991L6.50041 17.5001V4.50009L24.9985 4.49909C25.0906 4.49903 25.181 4.52445 25.2596 4.57254C25.3382 4.62062 25.4019 4.68951 25.4438 4.77157C25.4857 4.85364 25.5041 4.94569 25.4969 5.03755C25.4898 5.12941 25.4573 5.2175 25.4032 5.29209L21.5898 10.7081C21.5304 10.7924 21.4986 10.893 21.4986 10.9962C21.4986 11.0993 21.5304 11.1999 21.5898 11.2843L25.4047 16.7052L25.4067 16.7071C25.4609 16.7817 25.4932 16.87 25.4998 16.962C25.5064 17.054 25.4872 17.146 25.4442 17.2276Z" fill="black"/>
</svg>
