<svg width="32" height="32" viewBox="0 0 32 32" fill="none" xmlns="http://www.w3.org/2000/svg">
<path d="M26.2216 16.1298L22.6103 10.996L26.2177 5.87099C26.3783 5.64689 26.474 5.38282 26.4942 5.10785C26.5144 4.83288 26.4584 4.55765 26.3324 4.31245C26.2063 4.06725 26.015 3.86158 25.7796 3.71806C25.5442 3.57454 25.2737 3.49874 24.998 3.49899L6.00473 3.49999L5.99991 3.49899C5.86857 3.49892 5.7385 3.52473 5.61714 3.57496C5.49578 3.62519 5.38551 3.69885 5.29263 3.79172C5.19976 3.88459 5.1261 3.99486 5.07588 4.11622C5.02565 4.23758 4.99983 4.36765 4.99991 4.49899V28C4.99991 28.2652 5.10527 28.5196 5.2928 28.7071C5.48034 28.8946 5.73469 29 5.99991 29C6.26513 29 6.51948 28.8946 6.70702 28.7071C6.89455 28.5196 6.99991 28.2652 6.99991 28V18.4999L24.9999 18.499C25.2753 18.4991 25.5454 18.4234 25.7806 18.2802C26.0158 18.1369 26.2069 17.9317 26.3332 17.6869C26.4594 17.4422 26.5157 17.1674 26.496 16.8927C26.4764 16.618 26.3814 16.3541 26.2216 16.1298Z" fill="black"/>
</svg>
