<svg width="32" height="32" viewBox="0 0 32 32" fill="none" xmlns="http://www.w3.org/2000/svg">
<path d="M16.0002 2.50011C13.3301 2.50011 10.7201 3.29187 8.49999 4.77527C6.27993 6.25867 4.5496 8.36708 3.52782 10.8339C2.50603 13.3007 2.23869 16.0151 2.75959 18.6338C3.28049 21.2526 4.56624 23.658 6.45425 25.5461C8.34226 27.4341 10.7477 28.7198 13.3665 29.2407C15.9852 29.7616 18.6996 29.4943 21.1664 28.4725C23.6332 27.4507 25.7416 25.7204 27.225 23.5003C28.7084 21.2802 29.5002 18.6702 29.5002 16.0001C29.4962 12.4209 28.0726 8.98945 25.5417 6.45857C23.0108 3.9277 19.5794 2.5041 16.0002 2.50011ZM16.0002 28.5001C13.5279 28.5001 11.1112 27.767 9.05556 26.3935C6.99995 25.02 5.39779 23.0677 4.4517 20.7837C3.5056 18.4996 3.25806 15.9862 3.74037 13.5615C4.22269 11.1367 5.4132 8.90943 7.16135 7.16128C8.90951 5.41312 11.1368 4.22261 13.5616 3.74029C15.9863 3.25798 18.4997 3.50552 20.7837 4.45162C23.0678 5.39771 25.02 6.99987 26.3936 9.05548C27.7671 11.1111 28.5002 13.5278 28.5002 16.0001C28.4965 19.3142 27.1783 22.4914 24.8349 24.8348C22.4915 27.1782 19.3143 28.4964 16.0002 28.5001Z" fill="black"/>
<path d="M20.4411 10.7638C20.3983 10.6841 20.3347 10.6175 20.2571 10.571C20.1794 10.5246 20.0907 10.5001 20.0002 10.5001H12.0002C11.9345 10.5001 11.8695 10.513 11.8088 10.5381C11.7481 10.5632 11.693 10.6 11.6466 10.6465C11.6001 10.6929 11.5633 10.748 11.5382 10.8087C11.5131 10.8694 11.5002 10.9344 11.5002 11.0001V21.0001C11.5002 21.1327 11.5529 21.2599 11.6466 21.3537C11.7404 21.4474 11.8676 21.5001 12.0002 21.5001C12.1328 21.5001 12.26 21.4474 12.3537 21.3537C12.4475 21.2599 12.5002 21.1327 12.5002 21.0001V17.5001H20.0002C20.0907 17.5002 20.1796 17.4757 20.2573 17.4292C20.3349 17.3827 20.3985 17.316 20.4412 17.2362C20.484 17.1563 20.5042 17.0664 20.4998 16.976C20.4954 16.8856 20.4665 16.7981 20.4162 16.7228L18.6012 14.0001L20.4162 11.2774C20.4663 11.2021 20.4951 11.1145 20.4995 11.0241C20.5039 10.9336 20.4837 10.8437 20.4411 10.7638ZM17.5842 13.7228C17.5295 13.8049 17.5003 13.9014 17.5003 14.0001C17.5003 14.0988 17.5295 14.1953 17.5842 14.2775L19.0661 16.5001H12.5002V11.5001H19.0661L17.5842 13.7228Z" fill="black"/>
</svg>
