<svg xmlns="http://www.w3.org/2000/svg" width="32" height="32" viewBox="0 0 32 32"><path d="M26.426 15.983L22.916 10.996L26.422 6.01602C26.6089 5.75438 26.72 5.44632 26.7433 5.12565C26.7666 4.80498 26.701 4.48411 26.5539 4.19823C26.4068 3.91236 26.1838 3.67254 25.9093 3.50509C25.6348 3.33765 25.3196 3.24905 24.998 3.24902L5.99805 3.25002C5.79913 3.25002 5.60837 3.32904 5.46772 3.46969C5.32706 3.61035 5.24805 3.80111 5.24805 4.00002V18L5.25005 18.01V28C5.25005 28.1989 5.32906 28.3897 5.46972 28.5304C5.61037 28.671 5.80113 28.75 6.00005 28.75C6.19896 28.75 6.38972 28.671 6.53038 28.5304C6.67103 28.3897 6.75005 28.1989 6.75005 28V18.75H25C25.3217 18.7504 25.6373 18.662 25.912 18.4947C26.1868 18.3274 26.4101 18.0876 26.5575 17.8017C26.7048 17.5158 26.7705 17.1947 26.7473 16.8739C26.7242 16.5531 26.613 16.2448 26.426 15.983ZM25.222 17.113C25.202 17.1548 25.1702 17.1899 25.1307 17.214C25.0911 17.2382 25.0454 17.2503 24.999 17.249L6.75005 17.25V4.75002H24.998C25.0443 4.74865 25.0899 4.76066 25.1295 4.78461C25.169 4.80856 25.2008 4.84343 25.221 4.88502C25.2434 4.9264 25.2533 4.97341 25.2494 5.0203C25.2455 5.06719 25.228 5.11192 25.199 5.14902L21.385 10.565C21.2962 10.6914 21.2485 10.8421 21.2485 10.9965C21.2485 11.151 21.2962 11.3017 21.385 11.428L25.2 16.848L25.203 16.853C25.2307 16.89 25.2472 16.9342 25.2505 16.9802C25.2539 17.0263 25.244 17.0724 25.222 17.113Z"/></svg>