<svg width="32" height="32" viewBox="0 0 32 32" fill="none" xmlns="http://www.w3.org/2000/svg">
<path d="M18 14C18 14.2652 18.1054 14.5196 18.2929 14.7071C18.4804 14.8946 18.7348 15 19 15H21.424C21.5553 15 21.6854 14.9741 21.8067 14.9238C21.928 14.8736 22.0382 14.7999 22.1311 14.707L29.2165 7.6221C29.7256 7.11309 30.0116 6.42271 30.0116 5.70282C30.0117 4.98294 29.7258 4.29252 29.2167 3.78345C28.7077 3.27438 28.0174 2.98836 27.2975 2.98831C26.5776 2.98826 25.8872 3.27419 25.3781 3.7832L18.2937 10.852C18.2006 10.9449 18.1267 11.0553 18.0763 11.1767C18.0259 11.2982 18 11.4285 18 11.56V14ZM20 11.9751L26.7915 5.1982C26.9258 5.066 27.1069 4.99224 27.2953 4.99298C27.4838 4.99372 27.6643 5.06891 27.7975 5.20216C27.9308 5.33541 28.006 5.51592 28.0067 5.70436C28.0075 5.8928 27.9337 6.0739 27.8015 6.2082L21.01 13H20V11.9751Z" fill="black"/>
<path d="M29 12C28.7348 12 28.4804 12.1054 28.2929 12.2929C28.1054 12.4804 28 12.7348 28 13V23C27.9991 23.7954 27.6828 24.5579 27.1204 25.1204C26.5579 25.6828 25.7954 25.9991 25 26H7C6.20462 25.9991 5.44206 25.6828 4.87964 25.1204C4.31722 24.5579 4.00087 23.7954 4 23V15H14C14.2652 15 14.5196 14.8946 14.7071 14.7071C14.8946 14.5196 15 14.2652 15 14C15 13.7348 14.8946 13.4804 14.7071 13.2929C14.5196 13.1054 14.2652 13 14 13H4V9C4.00087 8.20462 4.31722 7.44206 4.87964 6.87964C5.44206 6.31722 6.20462 6.00087 7 6H11.6313C12.0673 5.99943 12.4982 6.09419 12.8938 6.27764C13.2894 6.46108 13.6401 6.72879 13.9213 7.062L14.64 7.9072C14.9157 8.2666 15.2744 8.55379 15.6855 8.74412C16.0965 8.93445 16.5476 9.02225 17 9C17.2652 9 17.5196 8.89464 17.7071 8.7071C17.8946 8.51957 18 8.26521 18 8C18 7.73478 17.8946 7.48043 17.7071 7.29289C17.5196 7.10535 17.2652 7 17 7C16.8376 7.02159 16.6725 6.99635 16.5239 6.92726C16.3754 6.85817 16.2497 6.7481 16.1616 6.61L15.4473 5.77C14.9785 5.2149 14.3942 4.7689 13.7351 4.46317C13.076 4.15745 12.3581 3.99937 11.6315 4H7C5.6744 4.00156 4.40353 4.52884 3.46619 5.46619C2.52885 6.40353 2.00156 7.67439 2 9V23C2.00169 24.3256 2.52902 25.5963 3.46634 26.5337C4.40365 27.471 5.67444 27.9983 7 28H25C26.3256 27.9983 27.5963 27.471 28.5337 26.5337C29.471 25.5963 29.9983 24.3256 30 23V13C30 12.7348 29.8946 12.4804 29.7071 12.2929C29.5196 12.1054 29.2652 12 29 12Z" fill="black"/>
</svg>
