<svg xmlns="http://www.w3.org/2000/svg" width="32" height="32" viewBox="0 0 32 32"><path d="M18 14C18 14.2652 18.1054 14.5196 18.2929 14.7071C18.4804 14.8947 18.7348 15 19 15H21.424C21.6892 15 21.9435 14.8946 22.131 14.707L29.216 7.62201C29.4681 7.37 29.668 7.07082 29.8045 6.74153C29.9409 6.41224 30.0112 6.0593 30.0112 5.70286C30.0113 5.34643 29.9411 4.99347 29.8048 4.66415C29.6684 4.33482 29.4685 4.03558 29.2165 3.78351C28.9645 3.53144 28.6653 3.33147 28.336 3.19502C28.0067 3.05858 27.6538 2.98833 27.2974 2.98828C26.9409 2.98823 26.588 3.05839 26.2586 3.19475C25.9293 3.33111 25.6301 3.531 25.378 3.78301L18.294 10.852C18.2009 10.9449 18.127 11.0553 18.0765 11.1768C18.0261 11.2982 18.0001 11.4285 18 11.56V14ZM20 11.975L26.791 5.19801C26.9249 5.06408 27.1066 4.98883 27.296 4.98883C27.4854 4.98883 27.6671 5.06408 27.801 5.19801C27.9349 5.33195 28.0102 5.5136 28.0102 5.70301C28.0102 5.89242 27.9349 6.07408 27.801 6.20801L21.01 13H20V11.975Z M29 12C28.7348 12 28.4804 12.1054 28.2929 12.2929C28.1054 12.4804 28 12.7348 28 13V23C27.9989 23.7953 27.6825 24.5578 27.1202 25.1202C26.5578 25.6825 25.7953 25.9989 25 26H7C6.20459 25.9992 5.44199 25.6829 4.87956 25.1204C4.31712 24.558 4.00079 23.7954 4 23V15H14C14.2652 15 14.5196 14.8946 14.7071 14.7071C14.8946 14.5196 15 14.2652 15 14C15 13.7348 14.8946 13.4804 14.7071 13.2929C14.5196 13.1054 14.2652 13 14 13H4V9C4.00079 8.2046 4.31712 7.44199 4.87956 6.87956C5.44199 6.31712 6.20459 6.0008 7 6H11.631C12.067 5.99946 12.4979 6.09423 12.8935 6.27768C13.289 6.46112 13.6397 6.72881 13.921 7.062L14.64 7.907C14.9156 8.2665 15.2743 8.55377 15.6854 8.74414C16.0964 8.93451 16.5476 9.02231 17 9C17.2652 9 17.5196 8.89464 17.7071 8.70711C17.8946 8.51957 18 8.26522 18 8C18 7.73478 17.8946 7.48043 17.7071 7.29289C17.5196 7.10536 17.2652 7 17 7C16.8377 7.02151 16.6726 6.99624 16.5242 6.92715C16.3757 6.85807 16.2501 6.74804 16.162 6.61L15.447 5.77C14.9783 5.21502 14.3941 4.76909 13.7351 4.46337C13.0762 4.15764 12.3584 3.9995 11.632 4H7C5.6744 4.00159 4.40356 4.52888 3.46622 5.46622C2.52888 6.40356 2.00159 7.67441 2 9V23C2.00185 24.3255 2.52923 25.5962 3.46651 26.5335C4.40379 27.4708 5.67449 27.9982 7 28H25C26.3255 27.9982 27.5962 27.4708 28.5335 26.5335C29.4708 25.5962 29.9981 24.3255 30 23V13C30 12.7348 29.8946 12.4804 29.7071 12.2929C29.5196 12.1054 29.2652 12 29 12Z"/></svg>