<svg width="32" height="32" viewBox="0 0 32 32" fill="none" xmlns="http://www.w3.org/2000/svg">
<path d="M24 10.5C26.9766 10.5 29.3218 7.43 29.42 7.2994C29.4853 7.21271 29.5206 7.10713 29.5206 6.9986C29.5206 6.89007 29.4853 6.78449 29.42 6.6978C29.3214 6.5669 26.9762 3.5 24 3.5C21.0205 3.5 18.7153 6.57 18.6187 6.7012C18.555 6.78727 18.5207 6.89149 18.5207 6.99855C18.5207 7.1056 18.555 7.20983 18.6187 7.2959C18.715 7.4263 21.0206 10.5 24 10.5ZM24 4.5C25.981 4.5 27.7383 6.2759 28.3716 6.9991C27.74 7.7232 25.9874 9.5 24 9.5C22.0186 9.5 20.2861 7.72 19.6655 6.9986C20.2862 6.2784 22.0187 4.5 24 4.5Z" fill="black"/>
<path d="M24 7.75C24.4142 7.75 24.75 7.41421 24.75 7C24.75 6.58579 24.4142 6.25 24 6.25C23.5858 6.25 23.25 6.58579 23.25 7C23.25 7.41421 23.5858 7.75 24 7.75Z" fill="black"/>
<path d="M29 13.5L3.5 13.4986V9C3.50114 8.07209 3.87025 7.18251 4.52638 6.52638C5.18251 5.87025 6.07209 5.50114 7 5.5H14C14.1326 5.5 14.2598 5.44732 14.3536 5.35355C14.4473 5.25979 14.5 5.13261 14.5 5C14.5 4.86739 14.4473 4.74021 14.3536 4.64645C14.2598 4.55268 14.1326 4.5 14 4.5H7C5.80693 4.50132 4.66311 4.97585 3.81948 5.81948C2.97585 6.66311 2.50132 7.80693 2.5 9V23C2.5013 24.1931 2.97582 25.3369 3.81945 26.1805C4.66308 27.0242 5.80692 27.4987 7 27.5H25C26.1931 27.4987 27.3369 27.0242 28.1805 26.1805C29.0242 25.3369 29.4987 24.1931 29.5 23V14C29.5 13.8674 29.4473 13.7402 29.3536 13.6464C29.2598 13.5527 29.1326 13.5 29 13.5ZM28.5 23C28.4989 23.9279 28.1298 24.8175 27.4736 25.4736C26.8175 26.1298 25.9279 26.4989 25 26.5H7C6.07208 26.4989 5.18249 26.1298 4.52635 25.4736C3.87022 24.8175 3.50111 23.9279 3.5 23V14.4986L28.5 14.5V23Z" fill="black"/>
</svg>
