<svg width="32" height="32" viewBox="0 0 32 32" fill="none" xmlns="http://www.w3.org/2000/svg">
<path d="M20.9454 14.0684C21.0844 14.2074 21.2496 14.3176 21.4313 14.3926C21.6131 14.4676 21.8079 14.5059 22.0045 14.5054H22.007L28.007 14.4927C28.4046 14.4915 28.7856 14.3326 29.0662 14.0509C29.3469 13.7692 29.5043 13.3877 29.504 12.99L29.4957 8.9895C29.4942 8.59244 29.3356 8.21212 29.0545 7.93168C28.7734 7.65123 28.3928 7.49348 27.9957 7.4929H27.9933L27.4933 7.494L27.49 5.994C27.4877 5.33194 27.2233 4.69775 26.7546 4.23015C26.2859 3.76256 25.6511 3.49964 24.989 3.4989H24.984C24.321 3.50049 23.6858 3.76531 23.218 4.23513C22.7502 4.70494 22.4881 5.34131 22.4894 6.0043L22.4927 7.5043L21.9927 7.5053C21.5949 7.5062 21.2138 7.66505 20.9332 7.9469C20.6525 8.22876 20.4953 8.61054 20.4961 9.0083L20.5044 13.0083C20.5041 13.2054 20.543 13.4006 20.6187 13.5825C20.6944 13.7645 20.8054 13.9296 20.9454 14.0684ZM23.4894 6.0025C23.4889 5.6048 23.6462 5.22316 23.9268 4.94131C24.2074 4.65946 24.5883 4.50042 24.986 4.4991H24.9884C25.3857 4.49949 25.7667 4.65723 26.048 4.93779C26.3293 5.21835 26.488 5.59891 26.4894 5.9962L26.4928 7.4962L23.4928 7.5026L23.4894 6.0025ZM21.6412 8.6525C21.6875 8.60579 21.7426 8.56872 21.8033 8.5434C21.8639 8.51808 21.929 8.50503 21.9948 8.505L27.9948 8.4923C28.1272 8.49259 28.2549 8.54524 28.3486 8.63875C28.4423 8.73226 28.4952 8.85904 28.4957 8.9914L28.504 12.9914C28.5042 13.124 28.4518 13.2512 28.3582 13.3452C28.2646 13.4391 28.1376 13.492 28.005 13.4923L22.005 13.505C21.9394 13.5051 21.8734 13.4923 21.8128 13.4672C21.7521 13.4422 21.697 13.4055 21.6506 13.3591C21.6042 13.3128 21.5673 13.2577 21.5422 13.1971C21.517 13.1366 21.504 13.0716 21.504 13.006L21.4957 9.006C21.4953 8.94043 21.5079 8.87543 21.5329 8.81481C21.5579 8.75418 21.5947 8.69874 21.6412 8.6525Z" fill="black"/>
<path d="M29 17.5C28.8674 17.5 28.7402 17.5527 28.6464 17.6464C28.5527 17.7402 28.5 17.8674 28.5 18V23C28.4989 23.9279 28.1298 24.8175 27.4736 25.4736C26.8175 26.1298 25.9279 26.4989 25 26.5H7C6.07208 26.4989 5.18249 26.1298 4.52635 25.4736C3.87022 24.8175 3.50111 23.9279 3.5 23V14.5H17C17.1326 14.5 17.2598 14.4473 17.3536 14.3536C17.4473 14.2598 17.5 14.1326 17.5 14C17.5 13.8674 17.4473 13.7402 17.3536 13.6464C17.2598 13.5527 17.1326 13.5 17 13.5H3.5V9C3.50111 8.07208 3.87022 7.18249 4.52635 6.52635C5.18249 5.87022 6.07208 5.50111 7 5.5H11.6314C12.14 5.49946 12.6426 5.61004 13.104 5.824C13.5655 6.03796 13.9746 6.35014 14.3028 6.7387L15.0205 7.5835C15.2503 7.8865 15.551 8.1285 15.8961 8.28828C16.2412 8.44807 16.6203 8.52077 17 8.5C17.1326 8.5 17.2598 8.44732 17.3536 8.35355C17.4473 8.25979 17.5 8.13261 17.5 8C17.5 7.86739 17.4473 7.74021 17.3536 7.64645C17.2598 7.55268 17.1326 7.5 17 7.5C16.765 7.52137 16.5285 7.48027 16.3145 7.38088C16.1005 7.28149 15.9166 7.12733 15.7813 6.934L15.0659 6.0927C14.6439 5.59318 14.1179 5.19185 13.5247 4.91675C12.9315 4.64165 12.2854 4.49942 11.6315 4.5H7C5.80692 4.5013 4.66308 4.97582 3.81945 5.81945C2.97582 6.66308 2.5013 7.80692 2.5 9V23C2.50132 24.1931 2.97585 25.3369 3.81948 26.1805C4.66311 27.0241 5.80693 27.4987 7 27.5H25C26.1931 27.4987 27.3369 27.0242 28.1805 26.1805C29.0242 25.3369 29.4987 24.1931 29.5 23V18C29.5 17.8674 29.4473 17.7402 29.3536 17.6464C29.2598 17.5527 29.1326 17.5 29 17.5Z" fill="black"/>
</svg>
