<svg width="32" height="32" viewBox="0 0 32 32" fill="none" xmlns="http://www.w3.org/2000/svg">
<path d="M24 11C27.2 11 29.7 7.7 29.8 7.6C30.1 7.2 30.1 6.8 29.8 6.4C29.7 6.3 27.2 3 24 3C20.8 3 18.3 6.3 18.2 6.4C17.9 6.8 17.9 7.2 18.2 7.6C18.3 7.7 20.8 11 24 11ZM24 5C25.5 5 26.8 5.9 27.7 7C27 7.8 25.5 9 24 9C22.6 9 21.3 8.1 20.3 7C21.3 5.9 22.5 5 24 5Z" fill="black"/>
<path d="M24 8.2C24.6627 8.2 25.2 7.66274 25.2 7C25.2 6.33726 24.6627 5.8 24 5.8C23.3373 5.8 22.8 6.33726 22.8 7C22.8 7.66274 23.3373 8.2 24 8.2Z" fill="black"/>
<path d="M29 13H4V9C4 7.3 5.3 6 7 6H14C14.6 6 15 5.6 15 5C15 4.4 14.6 4 14 4H7C4.2 4 2 6.2 2 9V23C2 25.8 4.2 28 7 28H25C27.8 28 30 25.8 30 23V14C30 13.4 29.6 13 29 13ZM25 26H7C5.3 26 4 24.7 4 23V15H28V23C28 24.7 26.7 26 25 26Z" fill="black"/>
</svg>
