<svg width="32" height="32" viewBox="0 0 32 32" fill="none" xmlns="http://www.w3.org/2000/svg">
<path d="M19 14.75H21.424C21.6228 14.7499 21.8135 14.6707 21.954 14.53L29.04 7.44503C29.4837 6.97916 29.7277 6.35828 29.7198 5.71498C29.712 5.07167 29.4529 4.45693 28.998 4.00201C28.5431 3.54709 27.9284 3.28806 27.2851 3.28021C26.6418 3.27237 26.0209 3.51634 25.555 3.96003L18.47 11.03C18.4002 11.0995 18.3448 11.1821 18.3071 11.2731C18.2693 11.364 18.2499 11.4615 18.25 11.56V14C18.25 14.1989 18.329 14.3897 18.4697 14.5304C18.6103 14.671 18.8011 14.75 19 14.75V14.75ZM19.75 11.871L26.615 5.02103C26.7045 4.93147 26.8108 4.86041 26.9277 4.81192C27.0447 4.76342 27.17 4.73844 27.2966 4.73839C27.4233 4.73834 27.5486 4.76324 27.6656 4.81164C27.7826 4.86005 27.8889 4.93103 27.9785 5.02053C28.0681 5.11003 28.1391 5.21629 28.1876 5.33324C28.2361 5.4502 28.2611 5.57556 28.2611 5.70218C28.2612 5.82879 28.2363 5.95417 28.1879 6.07116C28.1395 6.18816 28.0685 6.29447 27.979 6.38403L21.113 13.25H19.75V11.871Z" fill="#0F0F0F"/>
<path d="M29 12.25C28.8011 12.25 28.6103 12.329 28.4697 12.4697C28.329 12.6103 28.25 12.8011 28.25 13V23C28.2489 23.8616 27.9062 24.6877 27.2969 25.2969C26.6877 25.9062 25.8616 26.2489 25 26.25H7C6.13837 26.2489 5.31234 25.9062 4.70307 25.2969C4.09381 24.6877 3.75106 23.8616 3.75 23V14.75H14C14.1989 14.75 14.3897 14.671 14.5303 14.5303C14.671 14.3897 14.75 14.1989 14.75 14C14.75 13.8011 14.671 13.6103 14.5303 13.4697C14.3897 13.329 14.1989 13.25 14 13.25H3.75V9C3.75106 8.13837 4.09381 7.31234 4.70307 6.70307C5.31234 6.09381 6.13837 5.75106 7 5.75H11.631C12.1032 5.74952 12.5698 5.85219 12.9981 6.05083C13.4265 6.24947 13.8063 6.53928 14.111 6.9L14.83 7.745C15.0834 8.0756 15.4132 8.33976 15.7912 8.51481C16.1692 8.68986 16.584 8.77056 17 8.75C17.1989 8.75 17.3897 8.67098 17.5303 8.53033C17.671 8.38968 17.75 8.19891 17.75 8C17.75 7.80109 17.671 7.61032 17.5303 7.46967C17.3897 7.32902 17.1989 7.25 17 7.25C16.8014 7.27161 16.6006 7.23849 16.4194 7.15424C16.2382 7.07 16.0835 6.93782 15.972 6.772L15.257 5.932C14.8117 5.40461 14.2566 4.98083 13.6304 4.69031C13.0043 4.39978 12.3223 4.24951 11.632 4.25H7C5.74063 4.25132 4.53322 4.75219 3.6427 5.64271C2.75219 6.53322 2.25132 7.74063 2.25 9V23C2.25132 24.2594 2.75219 25.4668 3.6427 26.3573C4.53322 27.2478 5.74063 27.7487 7 27.75H25C26.2594 27.7487 27.4668 27.2478 28.3573 26.3573C29.2478 25.4668 29.7487 24.2594 29.75 23V13C29.75 12.8011 29.671 12.6103 29.5303 12.4697C29.3897 12.329 29.1989 12.25 29 12.25Z" fill="#0F0F0F"/>
</svg>
