<svg xmlns="http://www.w3.org/2000/svg" width="32" height="32" viewBox="0 0 32 32"><path d="M19 14.5001H21.424C21.4897 14.5002 21.5548 14.4874 21.6155 14.4623C21.6763 14.4373 21.7315 14.4005 21.778 14.3541L28.863 7.26907C29.2783 6.85388 29.5117 6.2907 29.5118 5.70343C29.5119 5.11616 29.2787 4.5529 28.8635 4.13757C28.4483 3.72225 27.8851 3.48886 27.2979 3.48877C26.7106 3.48868 26.1473 3.72188 25.732 4.13707L18.647 11.2061C18.6004 11.2525 18.5635 11.3077 18.5382 11.3684C18.513 11.4292 18.5 11.4943 18.5 11.5601V14.0001C18.5 14.1327 18.5527 14.2599 18.6464 14.3536C18.7402 14.4474 18.8674 14.5001 19 14.5001ZM19.5 11.7681L26.438 4.84507C26.6671 4.62498 26.9734 4.50346 27.291 4.5066C27.6087 4.50974 27.9125 4.63728 28.1372 4.86186C28.3619 5.08644 28.4897 5.39016 28.493 5.70784C28.4963 6.02552 28.375 6.33184 28.155 6.56107L21.217 13.5001H19.5V11.7681Z M29 12.5C28.8674 12.5 28.7402 12.5527 28.6464 12.6464C28.5527 12.7402 28.5 12.8674 28.5 13V23C28.4989 23.9279 28.1299 24.8176 27.4737 25.4737C26.8176 26.1299 25.9279 26.4989 25 26.5H7C6.07207 26.4989 5.18244 26.1299 4.5263 25.4737C3.87015 24.8176 3.50106 23.9279 3.5 23V14.5H14C14.1326 14.5 14.2598 14.4473 14.3536 14.3536C14.4473 14.2598 14.5 14.1326 14.5 14C14.5 13.8674 14.4473 13.7402 14.3536 13.6464C14.2598 13.5527 14.1326 13.5 14 13.5H3.5V9C3.50106 8.07207 3.87015 7.18245 4.5263 6.5263C5.18244 5.87015 6.07207 5.50106 7 5.5H11.631C12.1397 5.49941 12.6425 5.61 13.104 5.82401C13.5656 6.03803 13.9748 6.35031 14.303 6.739L15.02 7.583C15.2498 7.88624 15.5505 8.12844 15.8957 8.28833C16.2409 8.44821 16.6201 8.5209 17 8.5C17.1326 8.5 17.2598 8.44732 17.3536 8.35356C17.4473 8.25979 17.5 8.13261 17.5 8C17.5 7.86739 17.4473 7.74022 17.3536 7.64645C17.2598 7.55268 17.1326 7.5 17 7.5C16.7649 7.52157 16.5284 7.48057 16.3143 7.38116C16.1002 7.28176 15.9162 7.12748 15.781 6.934L15.066 6.093C14.6441 5.59345 14.1182 5.19207 13.5251 4.91691C12.9319 4.64176 12.2859 4.49947 11.632 4.5H7C5.80693 4.50132 4.66311 4.97586 3.81948 5.81948C2.97585 6.66311 2.50132 7.80693 2.5 9V23C2.50132 24.1931 2.97585 25.3369 3.81948 26.1805C4.66311 27.0241 5.80693 27.4987 7 27.5H25C26.1931 27.4987 27.3369 27.0241 28.1805 26.1805C29.0241 25.3369 29.4987 24.1931 29.5 23V13C29.5 12.8674 29.4473 12.7402 29.3536 12.6464C29.2598 12.5527 29.1326 12.5 29 12.5Z"/></svg>