<svg width="32" height="32" fill="none" xmlns="http://www.w3.org/2000/svg"><path fill-rule="evenodd" clip-rule="evenodd" d="M22.3276 7.7527A5.6118 5.6118 0 0122.5 7.75c3.0376 0 5.5 2.4624 5.5 5.5 0 2.5176-1.6915 4.64-4 5.293V28H8v-9.457c-2.3085-.653-4-2.7754-4-5.293 0-3.0376 2.4624-5.5 5.5-5.5.0577 0 .1151.0009.1724.0027C10.7953 5.3863 13.2065 3.75 16 3.75c2.7934 0 5.2047 1.6363 6.3276 4.0027zM22.5 9.75c.1466 0 .291.009.4328.0265C24.6616 9.9897 26 11.4636 26 13.25c0 1.933-1.567 3.5-3.5 3.5a3.4847 3.4847 0 01-2.19-.7697 3.5088 3.5088 0 01-1.0605-1.4301 4.9897 4.9897 0 01-1.7589.9738A4.9962 4.9962 0 0116 15.75a4.9957 4.9957 0 01-1.4906-.226 4.9897 4.9897 0 01-1.7589-.9738 3.5046 3.5046 0 01-1.0856 1.4501A3.4842 3.4842 0 019.5 16.75c-1.933 0-3.5-1.567-3.5-3.5 0-1.7864 1.3384-3.2603 3.0671-3.4735A3.5357 3.5357 0 019.5 9.75c.553 0 1.076.1282 1.541.3566a4.9673 4.9673 0 01.654-1.9011C12.5657 6.7355 14.1677 5.75 16 5.75c1.8323 0 3.4343.9855 4.305 2.4555a4.9657 4.9657 0 01.654 1.9011A3.4862 3.4862 0 0122.5 9.75zM10 18.7276V26h12v-7.2724c-1.2811-.1155-2.4356-.6702-3.3116-1.5125-.8277.3446-1.7358.5349-2.6884.5349-.9526 0-1.8607-.1903-2.6885-.5349-.8759.8423-2.0304 1.397-3.3115 1.5125z" fill="#0F0F0F"/></svg>