<svg width="32" height="32" fill="none" xmlns="http://www.w3.org/2000/svg"><path fill-rule="evenodd" clip-rule="evenodd" d="M9.5 8.25c.1648 0 .3277.008.4884.0236C10.9622 5.912 13.287 4.25 16 4.25c2.713 0 5.0377 1.662 6.0116 4.0236A5.0599 5.0599 0 0122.5 8.25c2.7614 0 5 2.2386 5 5 0 2.3298-1.5935 4.2874-3.75 4.8425V27.75H8.25v-9.6575C6.0935 17.5374 4.5 15.5798 4.5 13.25c0-2.7614 2.2386-5 5-5zm.25 9.9939V26.25h12.5v-8.0061c-1.3644-.0672-2.5849-.6813-3.4471-1.6276-.8487.4062-1.7992.6337-2.8029.6337-1.0037 0-1.9543-.2275-2.8029-.6337-.8622.9463-2.0827 1.5604-3.4471 1.6276zm9.5364-3.6051c.1902.4397.4681.8327.8116 1.1569.6268.5916 1.4721.9543 2.402.9543 1.933 0 3.5-1.567 3.5-3.5s-1.567-3.5-3.5-3.5a3.4855 3.4855 0 00-1.541.3566C20.6433 7.6491 18.5434 5.75 16 5.75c-2.0112 0-3.745 1.1874-4.5386 2.8994a4.9626 4.9626 0 00-.4204 1.4572 3.4757 3.4757 0 00-.934-.3041A3.5152 3.5152 0 009.5 9.75c-1.933 0-3.5 1.567-3.5 3.5s1.567 3.5 3.5 3.5c.9299 0 1.7752-.3627 2.402-.9543a3.5065 3.5065 0 00.8485-1.2455 5.0007 5.0007 0 001.2881.8005A4.9856 4.9856 0 0016 15.75a4.9818 4.9818 0 003.2495-1.1998c.0119.0298.0242.0593.0369.0886z" fill="#0F0F0F"/></svg>