<svg data-name="Layer 1" xmlns="http://www.w3.org/2000/svg" viewBox="0 0 32 32"><path d="M22.5 8.75a4.479 4.479 0 0 0-.816.074 6 6 0 0 0-11.368 0A4.5 4.5 0 0 0 8.5 17.638V25a2.5 2.5 0 0 0 2.5 2.5h10a2.5 2.5 0 0 0 2.5-2.5v-7.362a4.5 4.5 0 0 0-1-8.888Zm0 16.25a1.5 1.5 0 0 1-1.5 1.5H11A1.5 1.5 0 0 1 9.5 25v-7.25a4.492 4.492 0 0 0 3.571-1.762 6.01 6.01 0 0 0 5.858 0A4.492 4.492 0 0 0 22.5 17.75Zm0-8.25a3.5 3.5 0 0 1-3.25-2.2 5 5 0 0 1-6.417.07l-.083-.07a3.5 3.5 0 1 1-2.675-4.75 3.445 3.445 0 0 1 .966.31c0-.039.01-.077.016-.115a4.932 4.932 0 0 1 .217-.879 5 5 0 0 1 9.685.994c.038-.019.075-.037.114-.054a3.5 3.5 0 1 1 1.427 6.7Z" fill="#0f0f0f" fill-rule="evenodd"/></svg>