<svg xmlns="http://www.w3.org/2000/svg" width="32" height="32" viewBox="0 0 32 32"><path d="M10 9.5H28C28.1326 9.5 28.2598 9.44732 28.3536 9.35355C28.4473 9.25979 28.5 9.13261 28.5 9C28.5 8.86739 28.4473 8.74021 28.3536 8.64645C28.2598 8.55268 28.1326 8.5 28 8.5H10C9.86739 8.5 9.74021 8.55268 9.64645 8.64645C9.55268 8.74021 9.5 8.86739 9.5 9C9.5 9.13261 9.55268 9.25979 9.64645 9.35355C9.74021 9.44732 9.86739 9.5 10 9.5ZM28 22.5H10C9.86739 22.5 9.74021 22.5527 9.64645 22.6464C9.55268 22.7402 9.5 22.8674 9.5 23C9.5 23.1326 9.55268 23.2598 9.64645 23.3536C9.74021 23.4473 9.86739 23.5 10 23.5H28C28.1326 23.5 28.2598 23.4473 28.3536 23.3536C28.4473 23.2598 28.5 23.1326 28.5 23C28.5 22.8674 28.4473 22.7402 28.3536 22.6464C28.2598 22.5527 28.1326 22.5 28 22.5ZM4.25 23.75C4.44891 23.75 4.63968 23.671 4.78033 23.5303C4.92098 23.3897 5 23.1989 5 23C5 22.8011 4.92098 22.6103 4.78033 22.4697C4.63968 22.329 4.44891 22.25 4.25 22.25C4.05109 22.25 3.86032 22.329 3.71967 22.4697C3.57902 22.6103 3.5 22.8011 3.5 23C3.5 23.1989 3.57902 23.3897 3.71967 23.5303C3.86032 23.671 4.05109 23.75 4.25 23.75ZM4.25 9.75C4.44891 9.75 4.63968 9.67098 4.78033 9.53033C4.92098 9.38968 5 9.19891 5 9C5 8.80109 4.92098 8.61032 4.78033 8.46967C4.63968 8.32902 4.44891 8.25 4.25 8.25C4.05109 8.25 3.86032 8.32902 3.71967 8.46967C3.57902 8.61032 3.5 8.80109 3.5 9C3.5 9.19891 3.57902 9.38968 3.71967 9.53033C3.86032 9.67098 4.05109 9.75 4.25 9.75ZM27.003 12.5H5.003C4.60534 12.5005 4.22411 12.6587 3.94292 12.9399C3.66173 13.2211 3.50353 13.6023 3.503 14V18C3.50353 18.3977 3.66173 18.7789 3.94292 19.0601C4.22411 19.3413 4.60534 19.4995 5.003 19.5H27.003C27.4007 19.4995 27.7819 19.3413 28.0631 19.0601C28.3443 18.7789 28.5025 18.3977 28.503 18V14C28.5027 13.6023 28.3446 13.2209 28.0634 12.9396C27.7821 12.6584 27.4007 12.5003 27.003 12.5ZM27.503 18C27.503 18.1326 27.4503 18.2598 27.3566 18.3536C27.2628 18.4473 27.1356 18.5 27.003 18.5H5.003C4.87039 18.5 4.74321 18.4473 4.64945 18.3536C4.55568 18.2598 4.503 18.1326 4.503 18V14C4.503 13.8674 4.55568 13.7402 4.64945 13.6464C4.74321 13.5527 4.87039 13.5 5.003 13.5H27.003C27.1356 13.5 27.2628 13.5527 27.3566 13.6464C27.4503 13.7402 27.503 13.8674 27.503 14V18Z"/></svg>