<svg width="32" height="32" viewBox="0 0 32 32" fill="none" xmlns="http://www.w3.org/2000/svg">
<path d="M10.0001 9.49974H28.0001C28.1327 9.49974 28.2599 9.44706 28.3537 9.35329C28.4474 9.25953 28.5001 9.13235 28.5001 8.99974C28.5001 8.86713 28.4474 8.73996 28.3537 8.64619C28.2599 8.55242 28.1327 8.49974 28.0001 8.49974H10.0001C9.86751 8.49974 9.74033 8.55242 9.64657 8.64619C9.5528 8.73996 9.50012 8.86713 9.50012 8.99974C9.50012 9.13235 9.5528 9.25953 9.64657 9.35329C9.74033 9.44706 9.86751 9.49974 10.0001 9.49974Z" fill="black"/>
<path d="M28.0001 22.4997H10.0001C9.86751 22.4997 9.74033 22.5524 9.64657 22.6462C9.5528 22.74 9.50012 22.8671 9.50012 22.9997C9.50012 23.1323 9.5528 23.2595 9.64657 23.3533C9.74033 23.4471 9.86751 23.4997 10.0001 23.4997H28.0001C28.1327 23.4997 28.2599 23.4471 28.3537 23.3533C28.4474 23.2595 28.5001 23.1323 28.5001 22.9997C28.5001 22.8671 28.4474 22.74 28.3537 22.6462C28.2599 22.5524 28.1327 22.4997 28.0001 22.4997Z" fill="black"/>
<path d="M4.25 23.75C4.66421 23.75 5 23.4142 5 23C5 22.5858 4.66421 22.25 4.25 22.25C3.83579 22.25 3.5 22.5858 3.5 23C3.5 23.4142 3.83579 23.75 4.25 23.75Z" fill="black"/>
<path d="M4.25 9.74998C4.66421 9.74998 5 9.41419 5 8.99998C5 8.58577 4.66421 8.24998 4.25 8.24998C3.83579 8.24998 3.5 8.58577 3.5 8.99998C3.5 9.41419 3.83579 9.74998 4.25 9.74998Z" fill="black"/>
<path d="M27.0035 12.4997H5.00354C4.60585 12.5002 4.22457 12.6583 3.94336 12.9396C3.66215 13.2208 3.50397 13.602 3.50354 13.9997V17.9997C3.50397 18.3974 3.66215 18.7787 3.94336 19.0599C4.22457 19.3411 4.60585 19.4993 5.00354 19.4997H27.0035C27.4012 19.4993 27.7825 19.3411 28.0637 19.0599C28.3449 18.7787 28.5031 18.3974 28.5035 17.9997V13.9997C28.5031 13.602 28.3449 13.2208 28.0637 12.9396C27.7825 12.6583 27.4012 12.5002 27.0035 12.4997ZM27.5035 17.9997C27.5034 18.1323 27.4506 18.2594 27.3569 18.3531C27.2632 18.4468 27.1361 18.4996 27.0035 18.4997H5.00354C4.87098 18.4996 4.74391 18.4468 4.65018 18.3531C4.55645 18.2594 4.50371 18.1323 4.50354 17.9997V13.9997C4.50371 13.8672 4.55645 13.7401 4.65018 13.6464C4.74391 13.5526 4.87098 13.4999 5.00354 13.4997H27.0035C27.1361 13.4999 27.2632 13.5526 27.3569 13.6464C27.4506 13.7401 27.5034 13.8672 27.5035 13.9997V17.9997Z" fill="black"/>
</svg>
