<svg width="32" height="32" viewBox="0 0 32 32" fill="none" xmlns="http://www.w3.org/2000/svg">
<path d="M10 22C9.86866 21.9999 9.73858 22.0257 9.61722 22.076C9.49586 22.1262 9.38559 22.1998 9.29272 22.2927C9.19984 22.3856 9.12619 22.4959 9.07596 22.6172C9.02573 22.7386 8.99992 22.8687 9 23V28C9 28.2652 9.10536 28.5196 9.29289 28.7071C9.48043 28.8946 9.73478 29 10 29C10.2652 29 10.5196 28.8946 10.7071 28.7071C10.8946 28.5196 11 28.2652 11 28V23C11.0001 22.8687 10.9743 22.7386 10.9241 22.6172C10.8738 22.4958 10.8002 22.3856 10.7073 22.2927C10.6144 22.1998 10.5042 22.1262 10.3828 22.0759C10.2614 22.0257 10.1313 21.9999 10 22Z" fill="black"/>
<path d="M22 22C21.8687 21.9999 21.7386 22.0257 21.6172 22.076C21.4959 22.1262 21.3856 22.1998 21.2927 22.2927C21.1998 22.3856 21.1262 22.4959 21.076 22.6172C21.0257 22.7386 20.9999 22.8687 21 23V28C21 28.2652 21.1054 28.5196 21.2929 28.7071C21.4804 28.8946 21.7348 29 22 29C22.2652 29 22.5196 28.8946 22.7071 28.7071C22.8946 28.5196 23 28.2652 23 28V23C23.0001 22.8687 22.9743 22.7386 22.9241 22.6172C22.8738 22.4958 22.8002 22.3856 22.7073 22.2927C22.6144 22.1998 22.5042 22.1262 22.3828 22.0759C22.2614 22.0257 22.1313 21.9999 22 22Z" fill="black"/>
<path d="M10 13C9.86866 12.9999 9.73858 13.0257 9.61722 13.076C9.49586 13.1262 9.38559 13.1998 9.29272 13.2927C9.19984 13.3856 9.12619 13.4959 9.07596 13.6172C9.02573 13.7386 8.99992 13.8687 9 14V18C9 18.2652 9.10536 18.5196 9.29289 18.7071C9.48043 18.8946 9.73478 19 10 19C10.2652 19 10.5196 18.8946 10.7071 18.7071C10.8946 18.5196 11 18.2652 11 18V14C11.0001 13.8687 10.9743 13.7386 10.9241 13.6172C10.8738 13.4958 10.8002 13.3856 10.7073 13.2927C10.6144 13.1998 10.5042 13.1262 10.3828 13.0759C10.2614 13.0257 10.1313 12.9999 10 13Z" fill="black"/>
<path d="M22 13C21.8687 12.9999 21.7386 13.0257 21.6172 13.076C21.4959 13.1262 21.3856 13.1998 21.2927 13.2927C21.1998 13.3856 21.1262 13.4959 21.076 13.6172C21.0257 13.7386 20.9999 13.8687 21 14V18C21 18.2652 21.1054 18.5196 21.2929 18.7071C21.4804 18.8946 21.7348 19 22 19C22.2652 19 22.5196 18.8946 22.7071 18.7071C22.8946 18.5196 23 18.2652 23 18V14C23.0001 13.8687 22.9743 13.7386 22.9241 13.6172C22.8738 13.4958 22.8002 13.3856 22.7073 13.2927C22.6144 13.1998 22.5042 13.1262 22.3828 13.0759C22.2614 13.0257 22.1313 12.9999 22 13Z" fill="black"/>
<path d="M10 3C9.86866 2.99992 9.73858 3.02573 9.61722 3.07596C9.49586 3.12619 9.38559 3.19984 9.29272 3.29272C9.19984 3.38559 9.12619 3.49586 9.07596 3.61722C9.02573 3.73858 8.99992 3.86866 9 4V9C9 9.26522 9.10536 9.51957 9.29289 9.70711C9.48043 9.89464 9.73478 10 10 10C10.2652 10 10.5196 9.89464 10.7071 9.70711C10.8946 9.51957 11 9.26522 11 9V4C11.0001 3.86865 10.9743 3.73858 10.9241 3.61721C10.8738 3.49584 10.8002 3.38557 10.7073 3.29269C10.6144 3.19981 10.5042 3.12616 10.3828 3.07593C10.2614 3.02571 10.1313 2.99991 10 3Z" fill="black"/>
<path d="M22 3C21.8687 2.99992 21.7386 3.02573 21.6172 3.07596C21.4959 3.12619 21.3856 3.19984 21.2927 3.29272C21.1998 3.38559 21.1262 3.49586 21.076 3.61722C21.0257 3.73858 20.9999 3.86866 21 4V9C21 9.26522 21.1054 9.51957 21.2929 9.70711C21.4804 9.89464 21.7348 10 22 10C22.2652 10 22.5196 9.89464 22.7071 9.70711C22.8946 9.51957 23 9.26522 23 9V4C23.0001 3.86865 22.9743 3.73858 22.9241 3.61721C22.8738 3.49584 22.8002 3.38557 22.7073 3.29269C22.6144 3.19981 22.5042 3.12616 22.3828 3.07593C22.2614 3.02571 22.1313 2.99991 22 3Z" fill="black"/>
</svg>
