<svg width="32" height="32" viewBox="0 0 32 32" fill="none" xmlns="http://www.w3.org/2000/svg">
<path d="M14.1178 16L19.8942 4.4475C19.9529 4.33002 19.9879 4.20213 19.9972 4.07112C20.0066 3.94012 19.99 3.80856 19.9484 3.68396C19.9069 3.55936 19.8412 3.44417 19.7552 3.34495C19.6691 3.24573 19.5644 3.16443 19.4469 3.1057C19.3294 3.04696 19.2015 3.01194 19.0705 3.00264C18.9395 2.99333 18.8079 3.00992 18.6833 3.05145C18.5587 3.09299 18.4436 3.15866 18.3443 3.24471C18.2451 3.33077 18.1638 3.43552 18.1051 3.553L12.1051 15.553C12.0357 15.6919 11.9996 15.845 11.9996 16.0002C11.9996 16.1555 12.0357 16.3086 12.1051 16.4475L18.1051 28.4475C18.2237 28.6847 18.4317 28.8652 18.6833 28.949C18.935 29.0329 19.2096 29.0134 19.4469 28.8948C19.6841 28.7762 19.8645 28.5682 19.9484 28.3165C20.0323 28.0649 20.0128 27.7902 19.8942 27.553L14.1178 16Z" fill="black"/>
</svg>
