<svg width="32" height="32" viewBox="0 0 32 32" fill="none" xmlns="http://www.w3.org/2000/svg">
<path d="M2.99982 5.9998H11.9989L11.9998 22.9998C11.9998 23.265 12.1052 23.5194 12.2927 23.7069C12.4802 23.8944 12.7346 23.9998 12.9998 23.9998C13.265 23.9998 13.5194 23.8944 13.7069 23.7069C13.8945 23.5194 13.9998 23.265 13.9998 22.9998L13.9989 5.9998H22.9998C23.265 5.9998 23.5194 5.89444 23.7069 5.70691C23.8945 5.51937 23.9998 5.26502 23.9998 4.9998C23.9998 4.73459 23.8945 4.48023 23.7069 4.29269C23.5194 4.10516 23.265 3.9998 22.9998 3.9998H2.99982C2.7346 3.9998 2.48025 4.10516 2.29271 4.29269C2.10517 4.48023 1.99982 4.73459 1.99982 4.9998C1.99982 5.26502 2.10517 5.51937 2.29271 5.70691C2.48025 5.89444 2.7346 5.9998 2.99982 5.9998Z" fill="black"/>
<path d="M17.9998 9.9998C17.7346 9.9998 17.4802 10.1052 17.2927 10.2927C17.1052 10.4802 16.9998 10.7346 16.9998 10.9998C16.9998 11.265 17.1052 11.5194 17.2927 11.7069C17.4802 11.8944 17.7346 11.9998 17.9998 11.9998H22.9988V22.9998C22.9988 23.265 23.1042 23.5194 23.2917 23.7069C23.4792 23.8944 23.7336 23.9998 23.9988 23.9998C24.264 23.9998 24.5184 23.8944 24.7059 23.7069C24.8935 23.5194 24.9988 23.265 24.9988 22.9998V11.9998H28.9998C29.265 11.9998 29.5194 11.8944 29.7069 11.7069C29.8945 11.5194 29.9998 11.265 29.9998 10.9998C29.9998 10.7346 29.8945 10.4802 29.7069 10.2927C29.5194 10.1052 29.265 9.9998 28.9998 9.9998H17.9998Z" fill="black"/>
<path d="M28.9998 25.9998H2.99982C2.7346 25.9998 2.48025 26.1052 2.29271 26.2927C2.10517 26.4802 1.99982 26.7346 1.99982 26.9998C1.99982 27.265 2.10517 27.5194 2.29271 27.7069C2.48025 27.8944 2.7346 27.9998 2.99982 27.9998H28.9998C29.265 27.9998 29.5194 27.8944 29.7069 27.7069C29.8945 27.5194 29.9998 27.265 29.9998 26.9998C29.9998 26.7346 29.8945 26.4802 29.7069 26.2927C29.5194 26.1052 29.265 25.9998 28.9998 25.9998Z" fill="black"/>
</svg>
