<svg width="32" height="32" viewBox="0 0 32 32" fill="none" xmlns="http://www.w3.org/2000/svg">
<path d="M2.99982 5.7498H12.2489L12.2498 22.9998C12.2498 23.1987 12.3288 23.3895 12.4695 23.5301C12.6101 23.6708 12.8009 23.7498 12.9998 23.7498C13.1987 23.7498 13.3895 23.6708 13.5301 23.5301C13.6708 23.3895 13.7498 23.1987 13.7498 22.9998L13.7489 5.7498H22.9998C23.1987 5.7498 23.3895 5.67078 23.5301 5.53013C23.6708 5.38948 23.7498 5.19871 23.7498 4.9998C23.7498 4.80089 23.6708 4.61012 23.5301 4.46947C23.3895 4.32882 23.1987 4.2498 22.9998 4.2498H2.99982C2.8009 4.2498 2.61014 4.32882 2.46949 4.46947C2.32883 4.61012 2.24982 4.80089 2.24982 4.9998C2.24982 5.19871 2.32883 5.38948 2.46949 5.53013C2.61014 5.67078 2.8009 5.7498 2.99982 5.7498Z" fill="black"/>
<path d="M17.2498 10.9998C17.2499 11.1987 17.3289 11.3894 17.4695 11.5301C17.6102 11.6707 17.8009 11.7498 17.9998 11.7498H23.2488V22.9998C23.2488 23.1987 23.3278 23.3895 23.4685 23.5301C23.6091 23.6708 23.7999 23.7498 23.9988 23.7498C24.1977 23.7498 24.3885 23.6708 24.5291 23.5301C24.6698 23.3895 24.7488 23.1987 24.7488 22.9998V11.7498H28.9998C29.1987 11.7498 29.3895 11.6708 29.5301 11.5301C29.6708 11.3895 29.7498 11.1987 29.7498 10.9998C29.7498 10.8009 29.6708 10.6101 29.5301 10.4695C29.3895 10.3288 29.1987 10.2498 28.9998 10.2498H17.9998C17.8009 10.2499 17.6102 10.3289 17.4695 10.4695C17.3289 10.6102 17.2499 10.8009 17.2498 10.9998Z" fill="black"/>
<path d="M28.9998 26.2498H2.99982C2.8009 26.2498 2.61014 26.3288 2.46949 26.4695C2.32883 26.6101 2.24982 26.8009 2.24982 26.9998C2.24982 27.1987 2.32883 27.3895 2.46949 27.5301C2.61014 27.6708 2.8009 27.7498 2.99982 27.7498H28.9998C29.1987 27.7498 29.3895 27.6708 29.5301 27.5301C29.6708 27.3895 29.7498 27.1987 29.7498 26.9998C29.7498 26.8009 29.6708 26.6101 29.5301 26.4695C29.3895 26.3288 29.1987 26.2498 28.9998 26.2498Z" fill="black"/>
</svg>
