<svg xmlns="http://www.w3.org/2000/svg" width="32" height="32" viewBox="0 0 32 32"><path d="M23 4H9C7.6744 4.00159 6.40356 4.52888 5.46622 5.46622C4.52888 6.40356 4.00159 7.6744 4 9V23C4.00159 24.3256 4.52888 25.5964 5.46622 26.5338C6.40356 27.4711 7.6744 27.9984 9 28H23C24.3256 27.9984 25.5964 27.4711 26.5338 26.5338C27.4711 25.5964 27.9984 24.3256 28 23V9C27.9984 7.6744 27.4711 6.40356 26.5338 5.46622C25.5964 4.52888 24.3256 4.00159 23 4ZM9 6H23C23.7954 6.00079 24.558 6.31712 25.1204 6.87956C25.6829 7.44199 25.9992 8.20459 26 9H6C6.00079 8.20459 6.31712 7.44199 6.87956 6.87956C7.44199 6.31712 8.20459 6.00079 9 6ZM23 26H9C8.20459 25.9992 7.44199 25.6829 6.87956 25.1204C6.31712 24.558 6.00079 23.7954 6 23V11H26V23C25.9992 23.7954 25.6829 24.558 25.1204 25.1204C24.558 25.6829 23.7954 25.9992 23 26Z"/></svg>