<svg width="32" height="32" viewBox="0 0 32 32" fill="none" xmlns="http://www.w3.org/2000/svg">
<path d="M23 4.24954H9C7.74066 4.25097 6.53331 4.75187 5.64282 5.64236C4.75233 6.53285 4.25143 7.7402 4.25 8.99954V22.9995C4.25143 24.2589 4.75233 25.4662 5.64282 26.3567C6.53331 27.2472 7.74066 27.7481 9 27.7495H23C24.2593 27.7481 25.4667 27.2472 26.3572 26.3567C27.2477 25.4662 27.7486 24.2589 27.75 22.9995V8.99954C27.7486 7.7402 27.2477 6.53285 26.3572 5.64236C25.4667 4.75187 24.2593 4.25097 23 4.24954ZM9 5.74954H23C23.8616 5.75053 24.6877 6.09326 25.297 6.70254C25.9063 7.31182 26.249 8.13789 26.25 8.99954V9.24954H5.75V8.99954C5.751 8.13789 6.09372 7.31182 6.703 6.70254C7.31228 6.09326 8.13835 5.75053 9 5.74954ZM23 26.2495H9C8.13835 26.2485 7.31228 25.9058 6.703 25.2965C6.09373 24.6873 5.751 23.8612 5.75 22.9995V10.7495H26.25V22.9995C26.249 23.8612 25.9063 24.6873 25.297 25.2965C24.6877 25.9058 23.8616 26.2485 23 26.2495Z" fill="black"/>
</svg>
