<svg xmlns="http://www.w3.org/2000/svg" width="32" height="32" viewBox="0 0 32 32"><path d="M19.4482 15.7772L13.4482 3.7772C13.3889 3.65851 13.2849 3.56824 13.1591 3.52623C13.0333 3.48422 12.8959 3.49392 12.7772 3.5532C12.6585 3.61247 12.5682 3.71647 12.5262 3.84231C12.4842 3.96814 12.4939 4.10551 12.5532 4.2242L18.4422 16.0002L12.5532 27.7772C12.4939 27.8959 12.4842 28.0333 12.5262 28.1591C12.5682 28.2849 12.6585 28.3889 12.7772 28.4482C12.8959 28.5075 13.0333 28.5172 13.1591 28.4752C13.2849 28.4332 13.3889 28.3429 13.4482 28.2242L19.4482 16.2242C19.4827 16.1548 19.5007 16.0783 19.5007 16.0007C19.5007 15.9231 19.4827 15.8466 19.4482 15.7772Z"/></svg>