<svg width="32" height="32" viewBox="0 0 32 32" fill="none" xmlns="http://www.w3.org/2000/svg">
<path d="M28.4475 12.7766C28.388 12.6581 28.284 12.5681 28.1583 12.5261C28.0325 12.4842 27.8953 12.4939 27.7766 12.553L16 18.4417L4.22381 12.553C4.16508 12.5236 4.10114 12.5061 4.03564 12.5015C3.97014 12.4968 3.90436 12.5051 3.84207 12.5259C3.77977 12.5467 3.72218 12.5795 3.67258 12.6225C3.62297 12.6655 3.58233 12.7179 3.55296 12.7767C3.5236 12.8354 3.50609 12.8993 3.50144 12.9648C3.49679 13.0303 3.50508 13.0961 3.52585 13.1584C3.54662 13.2207 3.57945 13.2783 3.62248 13.3279C3.6655 13.3775 3.71788 13.4181 3.77661 13.4475L15.7766 19.4475C15.846 19.4822 15.9226 19.5003 16.0002 19.5003C16.0778 19.5003 16.1544 19.4822 16.2238 19.4475L28.2238 13.4475C28.2826 13.4181 28.3349 13.3775 28.378 13.3279C28.421 13.2783 28.4539 13.2207 28.4746 13.1584C28.4954 13.0961 28.5037 13.0303 28.4991 12.9648C28.4944 12.8993 28.4769 12.8353 28.4475 12.7766Z" fill="black"/>
</svg>
