<svg width="32" height="32" viewBox="0 0 32 32" fill="none" xmlns="http://www.w3.org/2000/svg">
<path d="M28.2241 18.5528L16.2241 12.5528C16.1546 12.5181 16.0781 12.5 16.0004 12.5C15.9228 12.5 15.8462 12.5181 15.7768 12.5528L3.77677 18.5528C3.71803 18.5822 3.66566 18.6228 3.62264 18.6724C3.57961 18.722 3.54678 18.7796 3.52602 18.8419C3.50526 18.9042 3.49697 18.97 3.50163 19.0355C3.50628 19.101 3.5238 19.165 3.55317 19.2237C3.58254 19.2824 3.62319 19.3348 3.6728 19.3778C3.72241 19.4209 3.78001 19.4537 3.84231 19.4744C3.90461 19.4952 3.97039 19.5035 4.03589 19.4988C4.10139 19.4942 4.16533 19.4767 4.22407 19.4473L16 13.5586L27.7768 19.4473C27.8355 19.4767 27.8994 19.4942 27.9649 19.4988C28.0304 19.5035 28.0962 19.4952 28.1585 19.4744C28.2208 19.4537 28.2784 19.4209 28.328 19.3778C28.3776 19.3348 28.4183 19.2824 28.4477 19.2237C28.477 19.165 28.4946 19.101 28.4992 19.0355C28.5039 18.97 28.4956 18.9042 28.4748 18.8419C28.4541 18.7796 28.4212 18.722 28.3782 18.6724C28.3352 18.6228 28.2828 18.5822 28.2241 18.5528Z" fill="black"/>
</svg>
