<svg xmlns="http://www.w3.org/2000/svg" width="32" height="32" viewBox="0 0 32 32"><path d="M10 9.75H28C28.1989 9.75 28.3897 9.67098 28.5303 9.53033C28.671 9.38968 28.75 9.19891 28.75 9C28.75 8.80109 28.671 8.61032 28.5303 8.46967C28.3897 8.32902 28.1989 8.25 28 8.25H10C9.80109 8.25 9.61032 8.32902 9.46967 8.46967C9.32902 8.61032 9.25 8.80109 9.25 9C9.25 9.19891 9.32902 9.38968 9.46967 9.53033C9.61032 9.67098 9.80109 9.75 10 9.75ZM28 22.25H10C9.80109 22.25 9.61032 22.329 9.46967 22.4697C9.32902 22.6103 9.25 22.8011 9.25 23C9.25 23.1989 9.32902 23.3897 9.46967 23.5303C9.61032 23.671 9.80109 23.75 10 23.75H28C28.1989 23.75 28.3897 23.671 28.5303 23.5303C28.671 23.3897 28.75 23.1989 28.75 23C28.75 22.8011 28.671 22.6103 28.5303 22.4697C28.3897 22.329 28.1989 22.25 28 22.25ZM4.25 24C4.51522 24 4.76957 23.8946 4.95711 23.7071C5.14464 23.5196 5.25 23.2652 5.25 23C5.25 22.7348 5.14464 22.4804 4.95711 22.2929C4.76957 22.1054 4.51522 22 4.25 22C3.98478 22 3.73043 22.1054 3.54289 22.2929C3.35536 22.4804 3.25 22.7348 3.25 23C3.25 23.2652 3.35536 23.5196 3.54289 23.7071C3.73043 23.8946 3.98478 24 4.25 24ZM4.25 10C4.51522 10 4.76957 9.89464 4.95711 9.70711C5.14464 9.51957 5.25 9.26522 5.25 9C5.25 8.73478 5.14464 8.48043 4.95711 8.29289C4.76957 8.10536 4.51522 8 4.25 8C3.98478 8 3.73043 8.10536 3.54289 8.29289C3.35536 8.48043 3.25 8.73478 3.25 9C3.25 9.26522 3.35536 9.51957 3.54289 9.70711C3.73043 9.89464 3.98478 10 4.25 10ZM27.003 12.25H5.003C4.53929 12.2511 4.09489 12.4358 3.76709 12.7638C3.43928 13.0918 3.25479 13.5363 3.254 14V18C3.25453 18.464 3.43907 18.9088 3.76715 19.2369C4.09522 19.5649 4.54003 19.7495 5.004 19.75H27.004C27.468 19.7495 27.9128 19.5649 28.2409 19.2369C28.5689 18.9088 28.7535 18.464 28.754 18V14C28.7535 13.536 28.5689 13.0912 28.2409 12.7631C27.9128 12.4351 27.468 12.2505 27.004 12.25H27.003ZM27.253 18C27.253 18.0663 27.2267 18.1299 27.1798 18.1768C27.1329 18.2237 27.0693 18.25 27.003 18.25H5.003C4.9367 18.25 4.87311 18.2237 4.82622 18.1768C4.77934 18.1299 4.753 18.0663 4.753 18V14C4.753 13.9337 4.77934 13.8701 4.82622 13.8232C4.87311 13.7763 4.9367 13.75 5.003 13.75H27.003C27.0693 13.75 27.1329 13.7763 27.1798 13.8232C27.2267 13.8701 27.253 13.9337 27.253 14V18Z"/></svg>