<svg width="32" height="32" viewBox="0 0 32 32" fill="none" xmlns="http://www.w3.org/2000/svg">
<path d="M13.5582 16L19.4469 4.2232C19.4762 4.16447 19.4937 4.10052 19.4984 4.03502C19.5031 3.96952 19.4948 3.90374 19.474 3.84144C19.4532 3.77914 19.4204 3.72154 19.3774 3.67193C19.3344 3.62232 19.282 3.58167 19.2233 3.5523C19.1645 3.52293 19.1006 3.50542 19.0351 3.50076C18.9696 3.4961 18.9038 3.50439 18.8415 3.52515C18.7792 3.54592 18.7216 3.57875 18.672 3.62177C18.6224 3.66479 18.5817 3.71717 18.5524 3.7759L12.5524 15.7759C12.5177 15.8454 12.4996 15.9219 12.4996 15.9995C12.4996 16.0772 12.5177 16.1537 12.5524 16.2232L18.5524 28.2232C18.5817 28.2819 18.6224 28.3343 18.672 28.3773C18.7216 28.4204 18.7792 28.4532 18.8415 28.4739C18.9038 28.4947 18.9696 28.503 19.0351 28.4983C19.1006 28.4937 19.1645 28.4762 19.2233 28.4468C19.282 28.4174 19.3344 28.3768 19.3774 28.3272C19.4204 28.2776 19.4532 28.22 19.474 28.1577C19.4948 28.0954 19.5031 28.0296 19.4984 27.9641C19.4937 27.8986 19.4762 27.8346 19.4469 27.7759L13.5582 16Z" fill="black"/>
</svg>
