<svg xmlns="http://www.w3.org/2000/svg" width="32" height="32" viewBox="0 0 32 32"><path d="M29.2 15.2859L18.2 4.78586C18.0594 4.64802 17.8812 4.55476 17.6878 4.51779C17.4943 4.48081 17.2943 4.50177 17.1128 4.57802C16.9312 4.65427 16.7762 4.78243 16.6672 4.94642C16.5582 5.11041 16.5 5.30294 16.5 5.49986V10.4999L3.997 10.5069C3.59994 10.5084 3.21964 10.6671 2.93915 10.9481C2.65867 11.2292 2.50079 11.6098 2.5 12.0069V19.9999C2.50053 20.3975 2.65873 20.7787 2.93992 21.0599C3.22111 21.3411 3.60234 21.4993 4 21.4999H16.5V26.4999C16.5 26.6963 16.5579 26.8884 16.6664 27.0522C16.7749 27.2159 16.9292 27.3441 17.1101 27.4207C17.2911 27.4973 17.4905 27.5189 17.6836 27.4828C17.8767 27.4467 18.0549 27.3546 18.196 27.2179L29.207 16.7079C29.3001 16.6141 29.3739 16.5029 29.4239 16.3806C29.4739 16.2583 29.4993 16.1273 29.4986 15.9952C29.4978 15.8631 29.471 15.7324 29.4196 15.6106C29.3682 15.4889 29.2932 15.3785 29.199 15.2859H29.2Z"/></svg>