<svg width="32" height="32" viewBox="0 0 32 32" fill="none" xmlns="http://www.w3.org/2000/svg">
<path d="M16.3541 2.64687C16.3076 2.60044 16.2525 2.5636 16.1919 2.53847C16.1312 2.51334 16.0662 2.5004 16.0006 2.5004C15.9349 2.5004 15.8699 2.51334 15.8092 2.53847C15.7486 2.5636 15.6935 2.60044 15.6471 2.64687L11.6504 6.643C11.5583 6.73708 11.5069 6.86374 11.5076 6.99545C11.5082 7.12717 11.5609 7.25331 11.654 7.34645C11.7471 7.43959 11.8733 7.49221 12.005 7.49287C12.1367 7.49354 12.2634 7.44219 12.3574 7.35L16.0005 3.70742L19.6504 7.35684C19.6967 7.40403 19.7518 7.44159 19.8127 7.46734C19.8735 7.49309 19.9389 7.50652 20.005 7.50685C20.071 7.50719 20.1365 7.49442 20.1976 7.46929C20.2588 7.44415 20.3143 7.40715 20.361 7.36043C20.4077 7.3137 20.4447 7.25818 20.4699 7.19707C20.495 7.13595 20.5078 7.07046 20.5074 7.00439C20.5071 6.93831 20.4937 6.87295 20.4679 6.81209C20.4422 6.75124 20.4046 6.69609 20.3574 6.64984L16.3541 2.64687Z" fill="black"/>
<path d="M19.6504 24.643L16.0005 28.2934L12.3575 24.6498C12.2634 24.5576 12.1367 24.5063 12.005 24.5069C11.8733 24.5076 11.7472 24.5602 11.654 24.6534C11.5609 24.7465 11.5083 24.8726 11.5076 25.0043C11.5069 25.1361 11.5583 25.2627 11.6505 25.3568L15.647 29.3539C15.6934 29.4003 15.7485 29.4372 15.8092 29.4623C15.8698 29.4874 15.9348 29.5004 16.0005 29.5004C16.0662 29.5004 16.1312 29.4874 16.1918 29.4623C16.2525 29.4372 16.3076 29.4003 16.354 29.3539L20.3575 25.35C20.4047 25.3037 20.4422 25.2486 20.468 25.1877C20.4937 25.1269 20.5072 25.0615 20.5075 24.9955C20.5078 24.9294 20.4951 24.8639 20.4699 24.8028C20.4448 24.7417 20.4078 24.6861 20.3611 24.6394C20.3143 24.5927 20.2588 24.5557 20.1977 24.5306C20.1366 24.5054 20.0711 24.4927 20.005 24.493C19.9389 24.4933 19.8736 24.5067 19.8127 24.5325C19.7519 24.5582 19.6967 24.5958 19.6504 24.643Z" fill="black"/>
<path d="M7.357 11.643C7.31058 11.5966 7.25548 11.5597 7.19482 11.5346C7.13417 11.5095 7.06915 11.4965 7.0035 11.4965C6.93785 11.4965 6.87283 11.5095 6.81218 11.5346C6.75152 11.5597 6.69642 11.5966 6.65 11.643L2.64654 15.6469C2.60011 15.6933 2.56327 15.7484 2.53814 15.809C2.51301 15.8697 2.50008 15.9347 2.50008 16.0004C2.50008 16.066 2.51301 16.131 2.53814 16.1917C2.56327 16.2523 2.60011 16.3075 2.64654 16.3539L6.64312 20.35C6.7372 20.4422 6.86386 20.4935 6.99557 20.4929C7.12729 20.4922 7.25343 20.4396 7.34657 20.3464C7.43971 20.2533 7.49233 20.1272 7.49299 19.9955C7.49366 19.8637 7.44231 19.7371 7.35012 19.643L3.70709 16.0004L7.357 12.35C7.40343 12.3036 7.44027 12.2485 7.4654 12.1878C7.49053 12.1272 7.50347 12.0622 7.50347 11.9965C7.50347 11.9308 7.49053 11.8658 7.4654 11.8052C7.44027 11.7445 7.40343 11.6894 7.357 11.643Z" fill="black"/>
<path d="M29.3536 15.6469L25.3501 11.643C25.3039 11.5958 25.2488 11.5582 25.1879 11.5325C25.127 11.5067 25.0617 11.4933 24.9956 11.493C24.9295 11.4927 24.864 11.5054 24.8029 11.5306C24.7418 11.5557 24.6863 11.5927 24.6396 11.6394C24.5928 11.6861 24.5558 11.7417 24.5307 11.8028C24.5056 11.8639 24.4928 11.9294 24.4931 11.9955C24.4935 12.0615 24.5069 12.1269 24.5326 12.1877C24.5584 12.2486 24.596 12.3037 24.6432 12.35L28.293 16.0004L24.65 19.643C24.6028 19.6892 24.5652 19.7444 24.5395 19.8053C24.5137 19.8661 24.5003 19.9315 24.5 19.9975C24.4997 20.0636 24.5124 20.1291 24.5376 20.1902C24.5627 20.2513 24.5997 20.3069 24.6464 20.3536C24.6931 20.4003 24.7487 20.4373 24.8098 20.4624C24.8709 20.4876 24.9364 20.5003 25.0025 20.5C25.0685 20.4997 25.1339 20.4863 25.1947 20.4605C25.2556 20.4348 25.3107 20.3972 25.357 20.35L29.3536 16.3539C29.4 16.3075 29.4369 16.2524 29.462 16.1917C29.4871 16.1311 29.5001 16.0661 29.5001 16.0004C29.5001 15.9348 29.4871 15.8697 29.462 15.8091C29.4369 15.7484 29.4 15.6933 29.3536 15.6469Z" fill="black"/>
<path d="M16 17.5C16.8284 17.5 17.5 16.8284 17.5 16C17.5 15.1715 16.8284 14.5 16 14.5C15.1716 14.5 14.5 15.1715 14.5 16C14.5 16.8284 15.1716 17.5 16 17.5Z" fill="black"/>
</svg>
