<svg xmlns="http://www.w3.org/2000/svg" width="32" height="32" viewBox="0 0 32 32"><path d="M16.7078 2.29303C16.5203 2.10556 16.2659 2.00024 16.0008 2.00024C15.7356 2.00024 15.4813 2.10556 15.2938 2.29303L11.2958 6.29003C11.1081 6.47754 11.0027 6.73191 11.0026 6.99718C11.0025 7.26245 11.1078 7.51689 11.2953 7.70453C11.4828 7.89217 11.7372 7.99764 12.0024 7.99773C12.2677 7.99783 12.5221 7.89254 12.7098 7.70503L15.9998 4.41503L19.2958 7.71103C19.4844 7.89319 19.737 7.99398 19.9992 7.9917C20.2614 7.98943 20.5122 7.88426 20.6976 7.69885C20.883 7.51344 20.9882 7.26263 20.9905 7.00043C20.9927 6.73823 20.8919 6.48563 20.7098 6.29703L16.7068 2.29403L16.7078 2.29303ZM19.2968 24.29L15.9998 27.585L12.7108 24.295C12.5222 24.1129 12.2696 24.0121 12.0074 24.0144C11.7452 24.0166 11.4944 24.1218 11.309 24.3072C11.1236 24.4926 11.0184 24.7434 11.0161 25.0056C11.0138 25.2678 11.1146 25.5204 11.2968 25.709L15.2928 29.706C15.3857 29.799 15.4959 29.8728 15.6173 29.9231C15.7387 29.9734 15.8689 29.9993 16.0003 29.9993C16.1317 29.9993 16.2618 29.9734 16.3832 29.9231C16.5046 29.8728 16.6149 29.799 16.7078 29.706L20.7108 25.702C20.8063 25.6098 20.8825 25.4994 20.9349 25.3774C20.9873 25.2554 21.0149 25.1242 21.016 24.9914C21.0172 24.8587 20.9919 24.727 20.9416 24.6041C20.8913 24.4812 20.8171 24.3695 20.7232 24.2756C20.6293 24.1817 20.5176 24.1075 20.3947 24.0572C20.2718 24.0069 20.1402 23.9816 20.0074 23.9828C19.8746 23.9839 19.7434 24.0115 19.6214 24.0639C19.4994 24.1163 19.389 24.1925 19.2968 24.288V24.29ZM7.70979 11.29C7.52213 11.1028 7.26787 10.9977 7.00279 10.9977C6.7377 10.9977 6.48344 11.1028 6.29579 11.29L2.29279 15.293C2.10532 15.4806 2 15.7349 2 16C2 16.2652 2.10532 16.5195 2.29279 16.707L6.28979 20.703C6.38203 20.7985 6.49238 20.8747 6.61438 20.9271C6.73639 20.9795 6.86761 21.0071 7.00039 21.0083C7.13316 21.0094 7.26484 20.9841 7.38774 20.9339C7.51064 20.8836 7.62229 20.8093 7.71618 20.7154C7.81007 20.6215 7.88433 20.5099 7.93461 20.387C7.98489 20.2641 8.01019 20.1324 8.00904 19.9996C8.00788 19.8669 7.9803 19.7356 7.92789 19.6136C7.87548 19.4916 7.7993 19.3813 7.70379 19.289L4.41379 16L7.71079 12.704C7.804 12.6113 7.87797 12.501 7.92845 12.3796C7.97892 12.2582 8.00491 12.128 8.00491 11.9965C8.00491 11.865 7.97892 11.7348 7.92845 11.6134C7.87797 11.492 7.804 11.3818 7.71079 11.289L7.70979 11.29ZM29.7068 15.293L25.7038 11.289C25.5161 11.1015 25.2617 10.9962 24.9964 10.9963C24.7312 10.9964 24.4768 11.1019 24.2893 11.2895C24.1018 11.4772 23.9965 11.7316 23.9966 11.9969C23.9967 12.2622 24.1021 12.5165 24.2898 12.704L27.5858 16L24.2958 19.29C24.1138 19.4788 24.0131 19.7314 24.0156 19.9936C24.0181 20.2558 24.1234 20.5066 24.3089 20.6919C24.4945 20.8771 24.7454 20.9821 25.0076 20.9842C25.2698 20.9863 25.5223 20.8853 25.7108 20.703L29.7068 16.707C29.8 16.6144 29.8739 16.5042 29.9244 16.3829C29.9748 16.2615 30.0008 16.1314 30.0008 16C30.0008 15.8686 29.9748 15.7385 29.9244 15.6172C29.8739 15.4958 29.8 15.3857 29.7068 15.293ZM15.9998 18C16.5302 18 17.0389 17.7893 17.414 17.4142C17.7891 17.0392 17.9998 16.5305 17.9998 16C17.9998 15.4696 17.7891 14.9609 17.414 14.5858C17.0389 14.2107 16.5302 14 15.9998 14C15.4694 14 14.9606 14.2107 14.5856 14.5858C14.2105 14.9609 13.9998 15.4696 13.9998 16C13.9998 16.5305 14.2105 17.0392 14.5856 17.4142C14.9606 17.7893 15.4694 18 15.9998 18Z"/></svg>