<svg xmlns="http://www.w3.org/2000/svg" width="32" height="32" viewBox="0 0 32 32"><path d="M16.5298 2.47007C16.3892 2.32962 16.1986 2.25073 15.9998 2.25073C15.8011 2.25073 15.6105 2.32962 15.4698 2.47007L11.4738 6.46607C11.3413 6.60825 11.2692 6.79629 11.2727 6.99059C11.2761 7.1849 11.3548 7.37028 11.4922 7.50769C11.6296 7.64511 11.815 7.72382 12.0093 7.72725C12.2036 7.73068 12.3917 7.65855 12.5338 7.52607L15.9998 4.06207L19.4738 7.53507C19.543 7.60667 19.6258 7.66377 19.7174 7.70303C19.8089 7.74229 19.9073 7.76294 20.0069 7.76376C20.1065 7.76457 20.2052 7.74555 20.2974 7.7078C20.3895 7.67004 20.4732 7.61431 20.5436 7.54386C20.614 7.47341 20.6697 7.38964 20.7073 7.29745C20.745 7.20526 20.7639 7.1065 20.763 7.00691C20.7621 6.90733 20.7414 6.80892 20.702 6.71744C20.6627 6.62596 20.6055 6.54322 20.5338 6.47407L16.5308 2.47007H16.5298ZM19.4738 24.4661L15.9998 27.9401L12.5338 24.4731C12.3917 24.3406 12.2036 24.2685 12.0093 24.2719C11.815 24.2753 11.6296 24.354 11.4922 24.4915C11.3548 24.6289 11.2761 24.8142 11.2727 25.0086C11.2692 25.2029 11.3413 25.3909 11.4738 25.5331L15.4698 29.5311C15.6105 29.6715 15.8011 29.7504 15.9998 29.7504C16.1986 29.7504 16.3892 29.6715 16.5298 29.5311L20.5338 25.5271C20.6034 25.4575 20.6586 25.3748 20.6963 25.2839C20.734 25.193 20.7534 25.0955 20.7534 24.9971C20.7534 24.8986 20.734 24.8012 20.6963 24.7102C20.6586 24.6193 20.6034 24.5367 20.5338 24.4671C20.4642 24.3975 20.3816 24.3423 20.2907 24.3046C20.1997 24.2669 20.1023 24.2475 20.0038 24.2475C19.9054 24.2475 19.8079 24.2669 19.717 24.3046C19.6261 24.3423 19.5434 24.3975 19.4738 24.4671V24.4661ZM7.53383 11.4661C7.46426 11.3964 7.38165 11.3411 7.2907 11.3034C7.19976 11.2657 7.10228 11.2463 7.00383 11.2463C6.90538 11.2463 6.80789 11.2657 6.71695 11.3034C6.62601 11.3411 6.54339 11.3964 6.47383 11.4661L2.46983 15.4701C2.32938 15.6107 2.25049 15.8013 2.25049 16.0001C2.25049 16.1988 2.32938 16.3894 2.46983 16.5301L6.46583 20.5271C6.57022 20.6335 6.70404 20.7063 6.85012 20.7362C6.99619 20.766 7.14785 20.7515 7.28563 20.6946C7.42341 20.6376 7.54103 20.5408 7.62338 20.4165C7.70574 20.2922 7.74907 20.1462 7.74783 19.9971C7.74761 19.8985 7.72798 19.801 7.69006 19.7101C7.65214 19.6191 7.59667 19.5366 7.52683 19.4671L4.05983 16.0001L7.53283 12.5271C7.60249 12.4575 7.65776 12.3749 7.69547 12.2839C7.73317 12.193 7.75258 12.0955 7.75258 11.9971C7.75258 11.8986 7.73317 11.8011 7.69547 11.7102C7.65776 11.6193 7.60249 11.5366 7.53283 11.4671L7.53383 11.4661ZM29.5298 15.4701L25.5268 11.4661C25.4582 11.3924 25.3754 11.3333 25.2834 11.2923C25.1914 11.2513 25.0921 11.2293 24.9914 11.2275C24.8906 11.2257 24.7906 11.2442 24.6972 11.2819C24.6038 11.3197 24.519 11.3758 24.4478 11.447C24.3766 11.5183 24.3204 11.6031 24.2827 11.6965C24.245 11.7899 24.2265 11.8899 24.2282 11.9906C24.23 12.0913 24.2521 12.1906 24.293 12.2826C24.334 12.3746 24.3931 12.4574 24.4668 12.5261L27.9398 16.0001L24.4728 19.4661C24.3991 19.5347 24.34 19.6175 24.299 19.7095C24.2581 19.8015 24.236 19.9008 24.2342 20.0016C24.2325 20.1023 24.251 20.2023 24.2887 20.2957C24.3264 20.3891 24.3826 20.4739 24.4538 20.5451C24.525 20.6163 24.6098 20.6725 24.7032 20.7102C24.7966 20.7479 24.8966 20.7664 24.9974 20.7647C25.0981 20.7629 25.1974 20.7408 25.2894 20.6999C25.3814 20.6589 25.4642 20.5998 25.5328 20.5261L29.5298 16.5311C29.6703 16.3904 29.7492 16.1998 29.7492 16.0011C29.7492 15.8023 29.6703 15.6117 29.5298 15.4711V15.4701ZM15.9998 17.7501C16.464 17.7501 16.9091 17.5657 17.2373 17.2375C17.5655 16.9093 17.7498 16.4642 17.7498 16.0001C17.7498 15.5359 17.5655 15.0908 17.2373 14.7626C16.9091 14.4344 16.464 14.2501 15.9998 14.2501C15.5357 14.2501 15.0906 14.4344 14.7624 14.7626C14.4342 15.0908 14.2498 15.5359 14.2498 16.0001C14.2498 16.4642 14.4342 16.9093 14.7624 17.2375C15.0906 17.5657 15.5357 17.7501 15.9998 17.7501Z"/></svg>