<svg xmlns="http://www.w3.org/2000/svg" width="32" height="32" viewBox="0 0 32 32"><path d="M7 2.25C5.48122 2.25 4.25 3.48122 4.25 5V27C4.25 28.5188 5.48122 29.75 7 29.75H25C26.5188 29.75 27.75 28.5188 27.75 27V5C27.75 3.48122 26.5188 2.25 25 2.25H7ZM5.75 5C5.75 4.30964 6.30964 3.75 7 3.75H25C25.6904 3.75 26.25 4.30964 26.25 5V27C26.25 27.6904 25.6904 28.25 25 28.25H7C6.30964 28.25 5.75 27.6904 5.75 27V5ZM10 24.75C9.58579 24.75 9.25 24.4142 9.25 24L9.25 8C9.25 7.58579 9.58579 7.25 10 7.25C10.4142 7.25 10.75 7.58579 10.75 8L10.75 24C10.75 24.4142 10.4142 24.75 10 24.75ZM14 24.75C13.5858 24.75 13.25 24.4142 13.25 24L13.25 8C13.25 7.58579 13.5858 7.25 14 7.25C14.4142 7.25 14.75 7.58579 14.75 8L14.75 24C14.75 24.4142 14.4142 24.75 14 24.75ZM17.25 24C17.25 24.4142 17.5858 24.75 18 24.75C18.4142 24.75 18.75 24.4142 18.75 24L18.75 8C18.75 7.58579 18.4142 7.25 18 7.25C17.5858 7.25 17.25 7.58579 17.25 8L17.25 24ZM22 24.75C21.5858 24.75 21.25 24.4142 21.25 24V8C21.25 7.58579 21.5858 7.25 22 7.25C22.4142 7.25 22.75 7.58579 22.75 8V24C22.75 24.4142 22.4142 24.75 22 24.75Z"/></svg>