<svg width="32" height="32" viewBox="0 0 32 32" fill="none" xmlns="http://www.w3.org/2000/svg">
<path d="M26.0001 5.49952H22.007C21.8743 5.49952 21.7472 5.5522 21.6534 5.64597C21.5596 5.73973 21.507 5.86691 21.507 5.99952C21.507 6.13213 21.5596 6.25931 21.6534 6.35307C21.7472 6.44684 21.8743 6.49952 22.007 6.49952H26.0001C26.663 6.50013 27.2985 6.76372 27.7672 7.23243C28.2359 7.70114 28.4995 8.33667 28.5001 8.99952V12.0698C28.5001 12.2024 28.5528 12.3296 28.6466 12.4234C28.7403 12.5172 28.8675 12.5698 29.0001 12.5698C29.1327 12.5698 29.2599 12.5172 29.3537 12.4234C29.4474 12.3296 29.5001 12.2024 29.5001 12.0698V8.99952C29.499 8.07161 29.1299 7.18202 28.4738 6.52589C27.8176 5.86975 26.928 5.50064 26.0001 5.49952Z" fill="black"/>
<path d="M10.007 5.49952H6.00012C5.07221 5.50064 4.18262 5.86975 3.52649 6.52589C2.87035 7.18202 2.50124 8.07161 2.50012 8.99952V12.0103C2.50012 12.1429 2.5528 12.27 2.64657 12.3638C2.74034 12.4576 2.86751 12.5103 3.00012 12.5103C3.13273 12.5103 3.25991 12.4576 3.35368 12.3638C3.44744 12.27 3.50012 12.1429 3.50012 12.0103V8.99952C3.50073 8.33667 3.76432 7.70114 4.23303 7.23243C4.70174 6.76372 5.33727 6.50013 6.00012 6.49952H10.007C10.1396 6.49952 10.2667 6.44684 10.3605 6.35307C10.4543 6.25931 10.507 6.13213 10.507 5.99952C10.507 5.86691 10.4543 5.73973 10.3605 5.64597C10.2667 5.5522 10.1396 5.49952 10.007 5.49952Z" fill="black"/>
<path d="M10.007 25.4995H6.00012C5.33727 25.4989 4.70174 25.2353 4.23303 24.7666C3.76433 24.2979 3.50074 23.6624 3.50012 22.9995V20.0103C3.50012 19.8777 3.44744 19.7505 3.35368 19.6567C3.25991 19.5629 3.13273 19.5103 3.00012 19.5103C2.86751 19.5103 2.74034 19.5629 2.64657 19.6567C2.5528 19.7505 2.50012 19.8777 2.50012 20.0103V22.9995C2.50124 23.9274 2.87035 24.817 3.52649 25.4732C4.18262 26.1293 5.07221 26.4984 6.00012 26.4995H10.007C10.1396 26.4995 10.2667 26.4468 10.3605 26.3531C10.4543 26.2593 10.507 26.1321 10.507 25.9995C10.507 25.8669 10.4543 25.7397 10.3605 25.646C10.2667 25.5522 10.1396 25.4995 10.007 25.4995Z" fill="black"/>
<path d="M29.0001 19.5698C28.9345 19.5698 28.8694 19.5827 28.8087 19.6078C28.7481 19.6329 28.6929 19.6698 28.6465 19.7162C28.6 19.7626 28.5632 19.8178 28.5381 19.8784C28.513 19.9391 28.5001 20.0042 28.5001 20.0698V22.9995C28.4995 23.6624 28.2359 24.2979 27.7672 24.7666C27.2985 25.2353 26.663 25.4989 26.0001 25.4995H22.007C21.8743 25.4995 21.7472 25.5522 21.6534 25.646C21.5596 25.7397 21.507 25.8669 21.507 25.9995C21.507 26.1321 21.5596 26.2593 21.6534 26.3531C21.7472 26.4468 21.8743 26.4995 22.007 26.4995H26.0001C26.928 26.4984 27.8176 26.1293 28.4738 25.4732C29.1299 24.817 29.499 23.9274 29.5001 22.9995V20.0698C29.5002 20.0042 29.4873 19.9391 29.4621 19.8784C29.437 19.8178 29.4002 19.7626 29.3538 19.7162C29.3073 19.6698 29.2522 19.6329 29.1915 19.6078C29.1308 19.5827 29.0658 19.5698 29.0001 19.5698Z" fill="black"/>
</svg>
