<svg width="32" height="32" viewBox="0 0 32 32" fill="none" xmlns="http://www.w3.org/2000/svg">
<path d="M25.007 12.7497H29.0001C29.199 12.7497 29.3898 12.6707 29.5305 12.53C29.6711 12.3894 29.7501 12.1986 29.7501 11.9997C29.7501 11.8008 29.6711 11.61 29.5305 11.4694C29.3898 11.3287 29.199 11.2497 29.0001 11.2497H25.007C24.4151 11.2537 23.8458 11.0227 23.424 10.6075C23.0022 10.1923 22.7623 9.62672 22.757 9.03487V5.99971C22.757 5.8008 22.6779 5.61003 22.5373 5.46938C22.3966 5.32873 22.2059 5.24971 22.007 5.24971C21.808 5.24971 21.6173 5.32873 21.4766 5.46938C21.336 5.61003 21.257 5.8008 21.257 5.99971V9.03487C21.2627 10.0244 21.6608 10.9713 22.3638 11.6677C23.0668 12.3641 24.0174 12.7532 25.007 12.7497Z" fill="black"/>
<path d="M10.007 5.24971C9.80806 5.24976 9.61732 5.3288 9.47668 5.46944C9.33604 5.61008 9.25701 5.80081 9.25695 5.99971V9.00948C9.25613 9.60597 9.01882 10.1778 8.59704 10.5996C8.17526 11.0213 7.60344 11.2587 7.00695 11.2595H3.00012C2.90163 11.2595 2.8041 11.2789 2.71311 11.3166C2.62212 11.3543 2.53944 11.4095 2.46979 11.4791C2.40015 11.5488 2.3449 11.6315 2.30721 11.7225C2.26952 11.8135 2.25012 11.911 2.25012 12.0095C2.25012 12.108 2.26952 12.2055 2.30721 12.2965C2.3449 12.3875 2.40015 12.4702 2.46979 12.5398C2.53944 12.6095 2.62212 12.6647 2.71311 12.7024C2.8041 12.7401 2.90163 12.7595 3.00012 12.7595H7.00695C8.00113 12.7582 8.95423 12.3627 9.65722 11.6597C10.3602 10.9568 10.7557 10.0037 10.757 9.00948V5.99971C10.7569 5.80081 10.6779 5.61008 10.5372 5.46944C10.3966 5.32879 10.2058 5.24976 10.007 5.24971Z" fill="black"/>
<path d="M7.00695 19.2595H3.00012C2.80121 19.2595 2.61044 19.3385 2.46979 19.4792C2.32914 19.6198 2.25012 19.8106 2.25012 20.0095C2.25012 20.2084 2.32914 20.3992 2.46979 20.5398C2.61044 20.6805 2.80121 20.7595 3.00012 20.7595H7.00695C7.60344 20.7603 8.17526 20.9976 8.59704 21.4194C9.01882 21.8412 9.25614 22.413 9.25695 23.0095V25.9997C9.25695 26.1986 9.33597 26.3894 9.47662 26.53C9.61727 26.6707 9.80804 26.7497 10.007 26.7497C10.2059 26.7497 10.3966 26.6707 10.5373 26.53C10.6779 26.3894 10.757 26.1986 10.757 25.9997V23.0095C10.7557 22.0153 10.3602 21.0622 9.65722 20.3592C8.95423 19.6562 8.00113 19.2607 7.00695 19.2595Z" fill="black"/>
<path d="M29.0001 19.2497H25.007C24.008 19.2557 23.0521 19.6576 22.3491 20.3674C21.6461 21.0772 21.2533 22.0368 21.257 23.0358V25.9997C21.257 26.1986 21.336 26.3894 21.4766 26.53C21.6173 26.6707 21.808 26.7497 22.007 26.7497C22.2059 26.7497 22.3966 26.6707 22.5373 26.53C22.6779 26.3894 22.757 26.1986 22.757 25.9997V23.0358C22.7529 22.4345 22.9875 21.8562 23.4093 21.4276C23.8311 20.999 24.4057 20.7553 25.007 20.7497H29.0001C29.199 20.7497 29.3898 20.6707 29.5305 20.53C29.6711 20.3894 29.7501 20.1986 29.7501 19.9997C29.7501 19.8008 29.6711 19.61 29.5305 19.4694C29.3898 19.3287 29.199 19.2497 29.0001 19.2497Z" fill="black"/>
</svg>
