<svg xmlns="http://www.w3.org/2000/svg" width="32" height="32" viewBox="0 0 32 32"><path d="M25.007 13H29C29.2652 13 29.5196 12.8946 29.7071 12.7071C29.8946 12.5196 30 12.2652 30 12C30 11.7348 29.8946 11.4804 29.7071 11.2929C29.5196 11.1054 29.2652 11 29 11H25.007C24.4815 11.0037 23.9759 10.799 23.601 10.4307C23.2262 10.0624 23.0125 9.56051 23.007 9.035V6C23.007 5.73478 22.9016 5.48043 22.7141 5.29289C22.5266 5.10536 22.2722 5 22.007 5C21.7418 5 21.4874 5.10536 21.2999 5.29289C21.1124 5.48043 21.007 5.73478 21.007 6V9.035C21.0126 10.0909 21.4369 11.1015 22.1868 11.8449C22.9368 12.5883 23.9511 13.0037 25.007 13ZM10.007 5C9.74178 5 9.48743 5.10536 9.29989 5.29289C9.11236 5.48043 9.007 5.73478 9.007 6V9.01C9.00647 9.54027 8.79559 10.0487 8.42063 10.4236C8.04567 10.7986 7.53727 11.0095 7.007 11.01H3C2.73478 11.01 2.48043 11.1154 2.29289 11.3029C2.10536 11.4904 2 11.7448 2 12.01C2 12.2752 2.10536 12.5296 2.29289 12.7171C2.48043 12.9046 2.73478 13.01 3 13.01H7.007C8.06754 13.0089 9.08434 12.5872 9.83426 11.8373C10.5842 11.0873 11.0059 10.0705 11.007 9.01V6C11.0067 5.73486 10.9013 5.48066 10.7138 5.29319C10.5263 5.10571 10.2721 5.00026 10.007 5ZM7.007 19.01H3C2.73478 19.01 2.48043 19.1154 2.29289 19.3029C2.10536 19.4904 2 19.7448 2 20.01C2 20.2752 2.10536 20.5296 2.29289 20.7171C2.48043 20.9046 2.73478 21.01 3 21.01H7.007C7.53719 21.0108 8.04544 21.2218 8.42034 21.5967C8.79524 21.9716 9.00621 22.4798 9.007 23.01V26C9.007 26.2652 9.11236 26.5196 9.29989 26.7071C9.48743 26.8946 9.74178 27 10.007 27C10.2722 27 10.5266 26.8946 10.7141 26.7071C10.9016 26.5196 11.007 26.2652 11.007 26V23.01C11.0059 21.9495 10.5842 20.9327 9.83426 20.1827C9.08434 19.4328 8.06754 19.0111 7.007 19.01ZM29 19H25.007C23.9417 19.0058 22.9222 19.4341 22.1723 20.1907C21.4224 20.9474 21.0033 21.9707 21.007 23.036V26C21.007 26.2652 21.1124 26.5196 21.2999 26.7071C21.4874 26.8946 21.7418 27 22.007 27C22.2722 27 22.5266 26.8946 22.7141 26.7071C22.9016 26.5196 23.007 26.2652 23.007 26V23.036C23.0027 22.5009 23.2109 21.9861 23.5859 21.6043C23.9609 21.2226 24.472 21.0053 25.007 21H29C29.2652 21 29.5196 20.8946 29.7071 20.7071C29.8946 20.5196 30 20.2652 30 20C30 19.7348 29.8946 19.4804 29.7071 19.2929C29.5196 19.1054 29.2652 19 29 19Z"/></svg>