<svg width="32" height="32" viewBox="0 0 32 32" xmlns="http://www.w3.org/2000/svg"><path fill-rule="evenodd" clip-rule="evenodd" d="M28.25 9A3.25 3.25 0 0 0 25 5.75H7A3.25 3.25 0 0 0 3.75 9v14A3.25 3.25 0 0 0 7 26.25h18A3.25 3.25 0 0 0 28.25 23V9ZM25 4.25A4.75 4.75 0 0 1 29.75 9v14A4.75 4.75 0 0 1 25 27.75H7A4.75 4.75 0 0 1 2.25 23V9A4.75 4.75 0 0 1 7 4.25h18Z"/><path d="M11.892 20h1.95v.54a1.48 1.48 0 0 1-.49 1.12 1.959 1.959 0 0 1-1.4.51 1.795 1.795 0 0 1-1.37-.59 3.136 3.136 0 0 1-.7-2.2 3.365 3.365 0 0 1 .52-2 1.8 1.8 0 0 1 1.54-.75 1.99 1.99 0 0 1 1.09.28 1.508 1.508 0 0 1 .67.979h1.261c-.089-.6-.4-1.146-.87-1.53a3.24 3.24 0 0 0-2.15-.71 3.25 3.25 0 0 0-2.29.82 3.752 3.752 0 0 0-1.09 2.91 4.14 4.14 0 0 0 .82 2.69 2.896 2.896 0 0 0 2.37 1.08c.43.006.855-.077 1.25-.245.356-.15.668-.385.91-.685l.18.78h.88V19.07h-3.08l-.001.93ZM17.595 15.8h-1.28V23h1.28v-7.2ZM19.015 22.999h1.28v-2.99h2.859v-.97h-2.859v-2.24h3.19v-1h-4.47v7.2Z"/></svg>