<svg width="32" height="32" viewBox="0 0 32 32" xmlns="http://www.w3.org/2000/svg"><path d="M29.66 9a4.75 4.75 0 0 0-4.75-4.75h-18A4.75 4.75 0 0 0 2.16 9v14a4.75 4.75 0 0 0 4.75 4.75h18A4.75 4.75 0 0 0 29.66 23V9Zm-17.78 7.82a1.489 1.489 0 0 0-1.32.67 3.353 3.353 0 0 0-.44 1.88c-.059.737.147 1.47.58 2.07a1.485 1.485 0 0 0 1.19.53 1.68 1.68 0 0 0 1.21-.44 1.232 1.232 0 0 0 .41-.94v-.51h-1.7v-1.09h3.15V23h-1.08l-.24-.67a2.625 2.625 0 0 1-2.07.82 2.932 2.932 0 0 1-2.37-1.051 4.167 4.167 0 0 1-.83-2.73 3.701 3.701 0 0 1 1.09-2.9 3.48 3.48 0 0 1 2.42-.819 3.361 3.361 0 0 1 2.14.66c.492.384.827.936.94 1.55h-1.67a1.311 1.311 0 0 0-1.41-1.04Zm5.99-1.02V23h-1.68v-7.2h1.68Zm1.297-.001h4.57v1.21h-2.89v1.92h2.58v1.16h-2.58v2.91h-1.68v-7.2Z"/></svg>