<svg width="32" height="32" viewBox="0 0 32 32" fill="none" xmlns="http://www.w3.org/2000/svg">
<path d="M21 7C20.4477 7 20 6.55229 20 6C20 5.44772 20.4477 5 21 5C21.5523 5 22 5.44772 22 6C22 6.55229 21.5523 7 21 7Z" fill="#0F0F0F"/>
<path d="M11 7C10.4477 7 10 6.55228 10 6C10 5.44772 10.4477 5 11 5C11.5523 5 12 5.44772 12 6C12 6.55228 11.5523 7 11 7Z" fill="#0F0F0F"/>
<path d="M21 17C20.4477 17 20 16.5523 20 16C20 15.4477 20.4477 15 21 15C21.5523 15 22 15.4477 22 16C22 16.5523 21.5523 17 21 17Z" fill="#0F0F0F"/>
<path d="M11 17C10.4477 17 10 16.5523 10 16C10 15.4477 10.4477 15 11 15C11.5523 15 12 15.4477 12 16C12 16.5523 11.5523 17 11 17Z" fill="#0F0F0F"/>
<path d="M21 27C20.4477 27 20 26.5523 20 26C20 25.4477 20.4477 25 21 25C21.5523 25 22 25.4477 22 26C22 26.5523 21.5523 27 21 27Z" fill="#0F0F0F"/>
<path d="M11 27C10.4477 27 10 26.5523 10 26C10 25.4477 10.4477 25 11 25C11.5523 25 12 25.4477 12 26C12 26.5523 11.5523 27 11 27Z" fill="#0F0F0F"/>
</svg>
