<svg xmlns="http://www.w3.org/2000/svg" width="32" height="32" viewBox="0 0 32 32"><path d="M18.25 3.82813C18.25 3.41391 18.5858 3.07812 19 3.07812H25.364C25.7782 3.07812 26.114 3.41391 26.114 3.82813V10.1921C26.114 10.6063 25.7782 10.9421 25.364 10.9421C24.9497 10.9421 24.614 10.6063 24.614 10.1921L24.614 5.63881L21.6517 8.6011C21.3588 8.89399 20.8839 8.89399 20.591 8.6011C20.2981 8.30821 20.2981 7.83333 20.591 7.54044L23.5533 4.57813L19 4.57813C18.5858 4.57813 18.25 4.24234 18.25 3.82813ZM16.0005 17.2497C6.28369 17.2497 2.25049 21.8444 2.25049 24.3043V25.7711C2.2513 26.5608 2.56537 27.318 3.12377 27.8764C3.68218 28.4348 4.4393 28.7488 5.229 28.7497H8.79834C9.58321 28.7465 10.3348 28.4322 10.8882 27.8757C11.4417 27.3191 11.7518 26.5658 11.7505 25.7809V24.027C12.9945 23.1585 14.4838 22.7109 16.0005 22.7496C17.5164 22.7109 19.0053 23.1566 20.2505 24.0221L20.2495 25.7897C20.2764 26.5873 20.6135 27.343 21.1891 27.8958C21.7647 28.4487 22.5334 28.755 23.3315 28.7497H26.7719C27.5616 28.7488 28.3187 28.4348 28.8771 27.8764C29.4356 27.318 29.7496 26.5608 29.7504 25.7711V24.3043C29.7505 21.8443 25.7173 17.2497 16.0005 17.2497ZM28.2505 25.7711C28.2501 26.1631 28.0942 26.539 27.817 26.8162C27.5398 27.0934 27.164 27.2493 26.772 27.2497H23.3315C22.9311 27.2549 22.5439 27.1065 22.2496 26.8349C21.9553 26.5633 21.7764 26.1892 21.7495 25.7897L21.7505 23.8365C21.7505 22.6031 18.7408 21.2496 16.0005 21.2496C13.2603 21.2496 10.2505 22.607 10.2505 23.8424V25.7809C10.2523 26.1681 10.1003 26.5402 9.8281 26.8155C9.55586 27.0908 9.18554 27.247 8.79834 27.2497H5.229C4.83699 27.2493 4.46115 27.0934 4.18397 26.8162C3.90678 26.539 3.75088 26.1631 3.75049 25.7711V24.3043C3.75049 22.6695 7.2749 18.7496 16.0005 18.7496C24.7261 18.7496 28.2505 22.6695 28.2505 24.3043V25.7711ZM15 14.9997C15.5523 14.9997 16 14.552 16 13.9997C16 13.4474 15.5523 12.9997 15 12.9997C14.4477 12.9997 14 13.4474 14 13.9997C14 14.552 14.4477 14.9997 15 14.9997ZM19 10.9997C19 11.552 18.5523 11.9997 18 11.9997C17.4477 11.9997 17 11.552 17 10.9997C17 10.4474 17.4477 9.99969 18 9.99969C18.5523 9.99969 19 10.4474 19 10.9997Z"/></svg>