<svg xmlns="http://www.w3.org/2000/svg" width="32" height="32" viewBox="0 0 32 32"><path d="M29.643 20.6439L28.183 19.4189C28.0824 19.3343 27.9662 19.2704 27.8409 19.2308C27.7157 19.1912 27.5838 19.1767 27.4529 19.1881C27.3221 19.1996 27.1947 19.2367 27.0782 19.2974C26.9617 19.3581 26.8583 19.4412 26.774 19.5419L26.528 19.8339C26.4841 19.8868 26.4301 19.9305 26.3691 19.9622C26.3082 19.994 26.2415 20.0133 26.173 20.0189C26.0695 20.0282 25.9656 20.0065 25.8746 19.9565C25.7835 19.9066 25.7094 19.8306 25.6616 19.7384C25.6139 19.6461 25.5947 19.5417 25.6065 19.4385C25.6183 19.3353 25.6606 19.238 25.728 19.1589L25.972 18.8669C26.1418 18.6637 26.2241 18.4015 26.2008 18.1378C26.1776 17.874 26.0507 17.6302 25.848 17.4599L24.388 16.2339C24.1849 16.0637 23.9225 15.981 23.6585 16.004C23.3945 16.0271 23.1504 16.154 22.98 16.3569L16.61 23.9469C16.5254 24.0476 16.4615 24.1639 16.422 24.2893C16.3825 24.4147 16.3681 24.5467 16.3796 24.6776C16.3911 24.8086 16.4283 24.936 16.4891 25.0525C16.5499 25.1691 16.6331 25.2725 16.734 25.3569L18.193 26.5809C18.2933 26.6656 18.4095 26.7296 18.5347 26.7692C18.6599 26.8089 18.7917 26.8234 18.9225 26.812C19.0534 26.8006 19.1806 26.7634 19.2971 26.7026C19.4135 26.6419 19.5168 26.5587 19.601 26.4579L19.846 26.1659C19.8902 26.1131 19.9444 26.0697 20.0055 26.0379C20.0666 26.0062 20.1334 25.9868 20.202 25.9809C20.2707 25.9731 20.3403 25.9799 20.4063 26.0007C20.4723 26.0216 20.5332 26.056 20.585 26.1019C20.6379 26.146 20.6816 26.2002 20.7136 26.2612C20.7455 26.3223 20.7651 26.3891 20.7713 26.4577C20.7774 26.5264 20.7699 26.5955 20.7493 26.6613C20.7286 26.727 20.6952 26.7881 20.651 26.8409L20.405 27.1329C20.3205 27.2335 20.2567 27.3497 20.2172 27.475C20.1776 27.6002 20.1632 27.732 20.1746 27.8629C20.186 27.9937 20.2231 28.121 20.2837 28.2375C20.3444 28.354 20.4274 28.4575 20.528 28.5419L21.988 29.7659C22.0886 29.8503 22.2049 29.914 22.3302 29.9535C22.4555 29.9929 22.5873 30.0073 22.7181 29.9958C22.849 29.9843 22.9763 29.9471 23.0928 29.8864C23.2092 29.8256 23.3126 29.7426 23.397 29.6419L29.766 22.0519C29.9362 21.8488 30.0189 21.5865 29.9958 21.3224C29.9728 21.0584 29.8458 20.8144 29.643 20.6439ZM22.552 27.5379C22.7248 27.1536 22.7987 26.7321 22.7668 26.3119C22.7349 25.8917 22.5982 25.4862 22.3693 25.1324C22.1404 24.7786 21.8265 24.4877 21.4563 24.2864C21.0861 24.0851 20.6714 23.9797 20.25 23.9799C19.743 23.9799 19.248 24.1299 18.828 24.4149L23.824 18.4619C23.5991 18.9635 23.544 19.5248 23.6671 20.0606C23.7902 20.5964 24.0846 21.0774 24.5059 21.4306C24.9271 21.7838 25.452 21.99 26.001 22.0179C26.55 22.0457 27.0932 21.8937 27.548 21.5849L22.552 27.5379Z M19.434 14.231C18.9549 14.0044 18.4619 13.8083 17.958 13.644C19.0358 12.8166 19.8272 11.6723 20.221 10.3719C20.6148 9.07154 20.5912 7.68043 20.1535 6.39414C19.7158 5.10785 18.886 3.99106 17.7808 3.20074C16.6756 2.41043 15.3505 1.98632 13.9917 1.98804C12.633 1.98976 11.309 2.41722 10.2058 3.21033C9.10257 4.00344 8.27562 5.12233 7.84119 6.40972C7.40675 7.69711 7.38666 9.08828 7.78375 10.3877C8.18084 11.6871 8.97514 12.8294 10.055 13.654C5.42 15.198 2 19.342 2 24.076C2.01002 24.6546 2.14194 25.2246 2.38713 25.7487C2.63233 26.2729 2.9853 26.7395 3.423 27.118C5.623 29.16 10.038 29.998 14.044 29.998C14.741 29.998 15.427 29.973 16.085 29.925C16.216 29.9153 16.3438 29.8798 16.4611 29.8206C16.5784 29.7615 16.6829 29.6798 16.7686 29.5802C16.8543 29.4807 16.9196 29.3652 16.9607 29.2404C17.0017 29.1157 17.0178 28.984 17.008 28.853C17.0005 28.7213 16.9666 28.5924 16.9082 28.4741C16.8498 28.3558 16.7683 28.2504 16.6683 28.1643C16.5684 28.0782 16.4521 28.013 16.3265 27.9728C16.2008 27.9325 16.0684 27.918 15.937 27.93C11.195 28.284 6.609 27.345 4.783 25.652C4.54722 25.4609 4.35528 25.2214 4.22019 24.9497C4.08509 24.6779 4.01 24.3803 4 24.077C4 19.157 8.58 15 14 15C15.5815 14.9955 17.1435 15.349 18.569 16.034C18.8074 16.1439 19.0795 16.1556 19.3265 16.0666C19.5735 15.9776 19.7755 15.795 19.8891 15.5583C20.0027 15.3216 20.0186 15.0498 19.9334 14.8014C19.8483 14.5531 19.6689 14.3482 19.434 14.231ZM9.5 8.5C9.5 7.90906 9.6164 7.32389 9.84254 6.77793C10.0687 6.23196 10.4002 5.73589 10.818 5.31802C11.2359 4.90016 11.732 4.56869 12.2779 4.34255C12.8239 4.1164 13.4091 4 14 4C14.5909 4 15.1761 4.1164 15.7221 4.34255C16.268 4.56869 16.7641 4.90016 17.182 5.31802C17.5998 5.73589 17.9313 6.23196 18.1575 6.77793C18.3836 7.32389 18.5 7.90906 18.5 8.5C18.5 9.69348 18.0259 10.8381 17.182 11.682C16.3381 12.5259 15.1935 13 14 13C12.8065 13 11.6619 12.5259 10.818 11.682C9.97411 10.8381 9.5 9.69348 9.5 8.5Z"/></svg>