<svg width="32" height="32" viewBox="0 0 32 32" fill="none" xmlns="http://www.w3.org/2000/svg">
<path d="M29.483 20.836L28.023 19.61C27.8704 19.4825 27.6736 19.4206 27.4755 19.4378C27.2774 19.4551 27.0942 19.55 26.966 19.702L26.72 19.995C26.6548 20.0734 26.5748 20.138 26.4845 20.1853C26.3943 20.2326 26.2955 20.2615 26.194 20.2705C26.0925 20.2794 25.9902 20.2681 25.8931 20.2373C25.7959 20.2065 25.7058 20.1568 25.628 20.091C25.5501 20.0255 25.4859 19.9452 25.439 19.8549C25.3921 19.7645 25.3636 19.6657 25.3549 19.5643C25.3463 19.4629 25.3578 19.3607 25.3887 19.2637C25.4196 19.1667 25.4693 19.0768 25.535 18.999L25.779 18.707C25.9067 18.5547 25.9688 18.358 25.9515 18.16C25.9343 17.962 25.8391 17.7789 25.687 17.651L24.227 16.425C24.1519 16.3613 24.0648 16.3133 23.9709 16.2838C23.8769 16.2542 23.778 16.2438 23.68 16.253C23.4821 16.2701 23.299 16.3651 23.171 16.517L16.801 24.108C16.7374 24.1834 16.6894 24.2706 16.6596 24.3646C16.6299 24.4586 16.619 24.5576 16.6276 24.6558C16.6363 24.7541 16.6643 24.8496 16.71 24.937C16.7557 25.0244 16.8182 25.1019 16.894 25.165L18.353 26.389C18.5052 26.5168 18.7018 26.5791 18.8998 26.562C19.0978 26.5449 19.281 26.45 19.409 26.298L19.654 26.006C19.7874 25.8535 19.9753 25.7594 20.1773 25.7437C20.3794 25.7281 20.5795 25.7921 20.7348 25.9223C20.8902 26.0524 20.9884 26.2381 21.0084 26.4398C21.0284 26.6414 20.9687 26.8429 20.842 27.001L20.597 27.293C20.4693 27.4453 20.4072 27.642 20.4245 27.84C20.4417 28.038 20.5369 28.2211 20.689 28.349L22.149 29.574C22.3013 29.7017 22.498 29.7638 22.696 29.7465C22.894 29.7293 23.0771 29.6341 23.205 29.482L29.575 21.892C29.7027 21.7397 29.7648 21.543 29.7475 21.345C29.7303 21.147 29.6351 20.9639 29.483 20.836ZM22.538 27.943L22.205 27.663C22.4783 27.1989 22.5781 26.653 22.4868 26.1223C22.3955 25.5915 22.1189 25.1104 21.7063 24.7643C21.2936 24.4182 20.7717 24.2297 20.2331 24.2322C19.6946 24.2347 19.1744 24.4281 18.765 24.778L18.433 24.498L23.837 18.056L24.171 18.336C23.8961 18.7999 23.7949 19.3464 23.8855 19.8781C23.9761 20.4097 24.2526 20.8918 24.6657 21.2385C25.0788 21.5851 25.6016 21.7738 26.1409 21.7708C26.6802 21.7677 27.2008 21.5733 27.61 21.222L27.944 21.502L22.538 27.943Z" fill="#0F0F0F"/>
<path d="M15.955 28.18C11.156 28.538 6.485 27.575 4.613 25.836C4.35095 25.6221 4.13817 25.354 3.98923 25.0503C3.84029 24.7465 3.75869 24.4142 3.75 24.076C3.75 19.021 8.444 14.75 14 14.75C15.619 14.7458 17.218 15.1082 18.677 15.81C18.8566 15.8959 19.0629 15.907 19.2506 15.8408C19.4383 15.7746 19.5921 15.6366 19.678 15.457C19.7639 15.2775 19.775 15.0711 19.7088 14.8834C19.6426 14.6957 19.5046 14.5419 19.325 14.456C18.7022 14.1639 18.0559 13.9247 17.393 13.741C18.5254 13.0089 19.3906 11.9302 19.8596 10.6659C20.3285 9.40157 20.3759 8.01953 19.9948 6.72605C19.6137 5.43258 18.8245 4.29704 17.745 3.48897C16.6655 2.6809 15.3536 2.24362 14.0051 2.24243C12.6567 2.24124 11.344 2.6762 10.2631 3.48236C9.18216 4.28853 8.39094 5.42267 8.00756 6.71547C7.62418 8.00827 7.66919 9.3904 8.13588 10.6555C8.60257 11.9206 9.4659 13.0009 10.597 13.735C5.826 15.117 2.25 19.293 2.25 24.077C2.25737 24.6216 2.38101 25.1583 2.61262 25.6512C2.84424 26.144 3.17849 26.5818 3.593 26.935C5.743 28.93 10.084 29.751 14.033 29.751C14.728 29.751 15.41 29.725 16.067 29.676C16.2654 29.6612 16.4497 29.5681 16.5795 29.4173C16.7093 29.2665 16.7739 29.0704 16.759 28.872C16.7441 28.6736 16.6511 28.4893 16.5003 28.3595C16.3495 28.2297 16.1534 28.1652 15.955 28.18ZM9.25 8.50001C9.25 7.24023 9.75045 6.03205 10.6412 5.14125C11.532 4.25045 12.7402 3.75001 14 3.75001C15.2598 3.75001 16.468 4.25045 17.3588 5.14125C18.2496 6.03205 18.75 7.24023 18.75 8.50001C18.75 9.75979 18.2496 10.968 17.3588 11.8588C16.468 12.7496 15.2598 13.25 14 13.25C12.7402 13.25 11.532 12.7496 10.6412 11.8588C9.75045 10.968 9.25 9.75979 9.25 8.50001Z" fill="#0F0F0F"/>
</svg>
