<svg width="32" height="32" viewBox="0 0 32 32" fill="none" xmlns="http://www.w3.org/2000/svg">
<path d="M23.0001 2.00038H9.00012C7.67452 2.00194 6.40365 2.52922 5.46631 3.46657C4.52897 4.40391 4.00168 5.67478 4.00012 7.00038V25.0004C4.00168 26.326 4.52896 27.5969 5.46631 28.5342C6.40365 29.4715 7.67452 29.9988 9.00012 30.0004H23.0001C24.3257 29.9988 25.5966 29.4715 26.5339 28.5342C27.4713 27.5969 27.9986 26.326 28.0001 25.0004V7.00038C27.9986 5.67478 27.4713 4.40391 26.5339 3.46657C25.5966 2.52922 24.3257 2.00194 23.0001 2.00038ZM6.00012 25.0004V7.00038C6.00099 6.205 6.31734 5.44244 6.87976 4.88002C7.44218 4.3176 8.20474 4.00125 9.00012 4.00038H10.0001V28.0004H9.00012C8.20474 27.9995 7.44218 27.6832 6.87976 27.1207C6.31734 26.5583 6.00099 25.7958 6.00012 25.0004ZM26.0001 25.0004C25.9993 25.7958 25.6829 26.5583 25.1205 27.1207C24.5581 27.6832 23.7955 27.9995 23.0001 28.0004H12.0001V4.00038H23.0001C23.7955 4.00125 24.5581 4.3176 25.1205 4.88002C25.6829 5.44244 25.9993 6.205 26.0001 7.00038V25.0004Z" fill="black"/>
<path d="M18.75 13.25C19.4403 13.25 20 12.6903 20 12C20 11.3096 19.4403 10.75 18.75 10.75C18.0596 10.75 17.5 11.3096 17.5 12C17.5 12.6903 18.0596 13.25 18.75 13.25Z" fill="black"/>
<path d="M21.0001 20.0004H20.0001V16.0004C20.0002 15.869 19.9744 15.739 19.9242 15.6176C19.8739 15.4963 19.8003 15.386 19.7074 15.2931C19.6145 15.2002 19.5043 15.1266 19.3829 15.0764C19.2615 15.0261 19.1315 15.0003 19.0001 15.0004H18.0001C17.7349 15.0004 17.4806 15.1057 17.293 15.2933C17.1055 15.4808 17.0001 15.7352 17.0001 16.0004C17.0001 16.2656 17.1055 16.52 17.293 16.7075C17.4806 16.895 17.7349 17.0004 18.0001 17.0004V20.0004H17.0001C16.7349 20.0004 16.4806 20.1057 16.293 20.2933C16.1055 20.4808 16.0001 20.7352 16.0001 21.0004C16.0001 21.2656 16.1055 21.52 16.293 21.7075C16.4806 21.895 16.7349 22.0004 17.0001 22.0004H21.0001C21.2653 22.0004 21.5197 21.895 21.7072 21.7075C21.8948 21.52 22.0001 21.2656 22.0001 21.0004C22.0001 20.7352 21.8948 20.4808 21.7072 20.2933C21.5197 20.1057 21.2653 20.0004 21.0001 20.0004Z" fill="black"/>
</svg>
