<svg xmlns="http://www.w3.org/2000/svg" width="32" height="32" viewBox="0 0 32 32"><path d="M23 2.25H9C7.74063 2.25132 6.53322 2.75219 5.6427 3.6427C4.75219 4.53322 4.25132 5.74063 4.25 7V25C4.25159 26.2593 4.75254 27.4666 5.643 28.357C6.53345 29.2475 7.74071 29.7484 9 29.75H23C24.2593 29.7484 25.4666 29.2475 26.357 28.357C27.2475 27.4666 27.7484 26.2593 27.75 25V7C27.7487 5.74063 27.2478 4.53322 26.3573 3.6427C25.4668 2.75219 24.2594 2.25132 23 2.25ZM5.75 25V7C5.75106 6.13837 6.09381 5.31234 6.70307 4.70307C7.31234 4.09381 8.13837 3.75106 9 3.75H10.25V28.25H9C8.13837 28.2489 7.31234 27.9062 6.70307 27.2969C6.09381 26.6877 5.75106 25.8616 5.75 25ZM26.25 25C26.2489 25.8616 25.9062 26.6877 25.2969 27.2969C24.6877 27.9062 23.8616 28.2489 23 28.25H11.75V3.75H23C23.8616 3.75106 24.6877 4.09381 25.2969 4.70307C25.9062 5.31234 26.2489 6.13837 26.25 7V25Z M18.75 13C19.0152 13 19.2696 12.8946 19.4571 12.7071C19.6446 12.5196 19.75 12.2652 19.75 12C19.75 11.7348 19.6446 11.4804 19.4571 11.2929C19.2696 11.1054 19.0152 11 18.75 11C18.4848 11 18.2304 11.1054 18.0429 11.2929C17.8554 11.4804 17.75 11.7348 17.75 12C17.75 12.2652 17.8554 12.5196 18.0429 12.7071C18.2304 12.8946 18.4848 13 18.75 13ZM21 20.25H19.75V16C19.75 15.8011 19.671 15.6103 19.5303 15.4697C19.3897 15.329 19.1989 15.25 19 15.25H18C17.8011 15.25 17.6103 15.329 17.4697 15.4697C17.329 15.6103 17.25 15.8011 17.25 16C17.25 16.1989 17.329 16.3897 17.4697 16.5303C17.6103 16.671 17.8011 16.75 18 16.75H18.25V20.25H17C16.8011 20.25 16.6103 20.329 16.4697 20.4697C16.329 20.6103 16.25 20.8011 16.25 21C16.25 21.1989 16.329 21.3897 16.4697 21.5303C16.6103 21.671 16.8011 21.75 17 21.75H21C21.1989 21.75 21.3897 21.671 21.5303 21.5303C21.671 21.3897 21.75 21.1989 21.75 21C21.75 20.8011 21.671 20.6103 21.5303 20.4697C21.3897 20.329 21.1989 20.25 21 20.25Z"/></svg>