<svg xmlns="http://www.w3.org/2000/svg" width="32" height="32" viewBox="0 0 32 32"><path d="M23 2H9C7.6744 2.00159 6.40356 2.52888 5.46622 3.46622C4.52888 4.40356 4.00159 5.6744 4 7V25C4.00159 26.3256 4.52888 27.5964 5.46622 28.5338C6.40356 29.4711 7.6744 29.9984 9 30H23C24.3256 29.9984 25.5964 29.4711 26.5338 28.5338C27.4711 27.5964 27.9984 26.3256 28 25V7C27.9987 5.67432 27.4715 4.40332 26.5341 3.46593C25.5967 2.52853 24.3257 2.00132 23 2ZM6 25V7C6.00079 6.20459 6.31712 5.44199 6.87956 4.87956C7.44199 4.31712 8.20459 4.00079 9 4H10V28H9C8.20459 27.9992 7.44199 27.6829 6.87956 27.1204C6.31712 26.558 6.00079 25.7954 6 25ZM26 25C25.9992 25.7954 25.6829 26.558 25.1204 27.1204C24.558 27.6829 23.7954 27.9992 23 28H12V4H23C23.7954 4.00079 24.558 4.31712 25.1204 4.87956C25.6829 5.44199 25.9992 6.20459 26 7V25Z M18.75 13.25C19.0815 13.25 19.3995 13.1183 19.6339 12.8839C19.8683 12.6495 20 12.3315 20 12C20 11.6685 19.8683 11.3505 19.6339 11.1161C19.3995 10.8817 19.0815 10.75 18.75 10.75C18.4185 10.75 18.1005 10.8817 17.8661 11.1161C17.6317 11.3505 17.5 11.6685 17.5 12C17.5 12.3315 17.6317 12.6495 17.8661 12.8839C18.1005 13.1183 18.4185 13.25 18.75 13.25ZM21 20H20V16C20 15.7348 19.8946 15.4804 19.7071 15.2929C19.5196 15.1054 19.2652 15 19 15H18C17.7348 15 17.4804 15.1054 17.2929 15.2929C17.1054 15.4804 17 15.7348 17 16C17 16.2652 17.1054 16.5196 17.2929 16.7071C17.4804 16.8946 17.7348 17 18 17V20H17C16.7348 20 16.4804 20.1054 16.2929 20.2929C16.1054 20.4804 16 20.7348 16 21C16 21.2652 16.1054 21.5196 16.2929 21.7071C16.4804 21.8946 16.7348 22 17 22H21C21.2652 22 21.5196 21.8946 21.7071 21.7071C21.8946 21.5196 22 21.2652 22 21C22 20.7348 21.8946 20.4804 21.7071 20.2929C21.5196 20.1054 21.2652 20 21 20Z"/></svg>