<svg width="32" height="32" viewBox="0 0 32 32" fill="none" xmlns="http://www.w3.org/2000/svg">
<path d="M23.0001 2.25038H9.00012C7.74078 2.25181 6.53343 2.75271 5.64294 3.6432C4.75246 4.53369 4.25155 5.74104 4.25012 7.00038V25.0004C4.25155 26.2597 4.75246 27.4671 5.64294 28.3576C6.53343 29.248 7.74078 29.749 9.00012 29.7504H23.0001C24.2595 29.749 25.4668 29.248 26.3573 28.3576C27.2478 27.4671 27.7487 26.2597 27.7501 25.0004V7.00038C27.7487 5.74104 27.2478 4.53369 26.3573 3.6432C25.4668 2.75271 24.2595 2.25181 23.0001 2.25038ZM5.75012 25.0004V7.00038C5.75112 6.13873 6.09385 5.31266 6.70312 4.70338C7.3124 4.09411 8.13847 3.75138 9.00012 3.75038H10.2501V28.2504H9.00012C8.13847 28.2494 7.3124 27.9067 6.70312 27.2974C6.09384 26.6881 5.75111 25.862 5.75012 25.0004ZM26.2501 25.0004C26.2491 25.862 25.9064 26.6881 25.2971 27.2974C24.6878 27.9067 23.8618 28.2494 23.0001 28.2504H11.7501V3.75038H23.0001C23.8618 3.75138 24.6878 4.09411 25.2971 4.70339C25.9064 5.31266 26.2491 6.13873 26.2501 7.00038V25.0004Z" fill="black"/>
<path d="M18.75 13C19.3023 13 19.75 12.5522 19.75 12C19.75 11.4477 19.3023 11 18.75 11C18.1977 11 17.75 11.4477 17.75 12C17.75 12.5522 18.1977 13 18.75 13Z" fill="black"/>
<path d="M21.0001 20.2504H19.7501V16.0004C19.7501 15.8015 19.671 15.6108 19.5304 15.4701C19.3898 15.3295 19.199 15.2504 19.0001 15.2504H18.0001C17.8012 15.2504 17.6104 15.3294 17.4698 15.4701C17.3291 15.6107 17.2501 15.8015 17.2501 16.0004C17.2501 16.1993 17.3291 16.3901 17.4698 16.5307C17.6104 16.6714 17.8012 16.7504 18.0001 16.7504H18.2501V20.2504H17.0001C16.8012 20.2504 16.6104 20.3294 16.4698 20.4701C16.3291 20.6107 16.2501 20.8015 16.2501 21.0004C16.2501 21.1993 16.3291 21.3901 16.4698 21.5307C16.6104 21.6714 16.8012 21.7504 17.0001 21.7504H21.0001C21.199 21.7504 21.3898 21.6714 21.5305 21.5307C21.6711 21.3901 21.7501 21.1993 21.7501 21.0004C21.7501 20.8015 21.6711 20.6107 21.5305 20.4701C21.3898 20.3294 21.199 20.2504 21.0001 20.2504Z" fill="black"/>
</svg>
