<svg xmlns="http://www.w3.org/2000/svg" width="32" height="32" viewBox="0 0 32 32"><path d="M23 9.4999C23.1989 9.4999 23.3897 9.42088 23.5303 9.28022C23.671 9.13957 23.75 8.94882 23.75 8.7499V7.44189C23.75 7.24298 23.671 7.05222 23.5303 6.91156C23.3897 6.77091 23.1989 6.69189 23 6.69189C22.8011 6.69189 22.6103 6.77091 22.4697 6.91156C22.329 7.05222 22.25 7.24298 22.25 7.44189V8.7499C22.25 8.94882 22.329 9.13957 22.4697 9.28022C22.6103 9.42088 22.8011 9.4999 23 9.4999ZM23 11.9999C23.1989 11.9999 23.3897 11.9209 23.5303 11.7802C23.671 11.6396 23.75 11.4488 23.75 11.2499C23.75 11.051 23.671 10.8602 23.5303 10.7196C23.3897 10.5789 23.1989 10.4999 23 10.4999C22.8011 10.4999 22.6103 10.5789 22.4697 10.7196C22.329 10.8602 22.25 11.051 22.25 11.2499C22.25 11.4488 22.329 11.6396 22.4697 11.7802C22.6103 11.9209 22.8011 11.9999 23 11.9999Z M29.52 12.1331L24.533 3.13308L24.524 3.11808C24.3692 2.85296 24.1474 2.63322 23.8808 2.48094C23.6142 2.32866 23.3123 2.24919 23.0053 2.2505C22.6982 2.25182 22.397 2.33388 22.1317 2.48844C21.8665 2.64301 21.6465 2.86464 21.494 3.13108L16.489 12.1181C16.3338 12.3841 16.2515 12.6864 16.2505 12.9944C16.2495 13.3024 16.3298 13.6052 16.4833 13.8722C16.6368 14.1393 16.8581 14.361 17.1247 14.5152C17.3914 14.6693 17.694 14.7503 18.002 14.7501H27.999C28.3054 14.7501 28.6064 14.6696 28.872 14.5167C29.1375 14.3639 29.3583 14.144 29.5121 13.879C29.666 13.6141 29.7477 13.3134 29.7489 13.007C29.7501 12.7006 29.6708 12.3992 29.519 12.1331H29.52ZM28.216 13.1251C28.1948 13.1639 28.1634 13.1961 28.1251 13.2181C28.0868 13.2402 28.0432 13.2512 27.999 13.2501H18.002C17.9578 13.2512 17.9142 13.2402 17.8759 13.2181C17.8376 13.1961 17.8062 13.1639 17.785 13.1251C17.7616 13.0847 17.7499 13.0386 17.7513 12.9919C17.7527 12.9453 17.7672 12.8999 17.793 12.8611L22.797 3.87408C22.8187 3.83651 22.8498 3.80524 22.8873 3.78333C22.9247 3.76142 22.9672 3.74964 23.0106 3.74914C23.054 3.74863 23.0967 3.75942 23.1347 3.78045C23.1726 3.80148 23.2044 3.83203 23.227 3.86908L28.215 12.8741C28.238 12.9117 28.2501 12.955 28.2501 12.9991C28.2501 13.0432 28.238 13.0864 28.215 13.1241L28.216 13.1251Z M24.0379 19.6992C23.4168 19.1045 22.5899 18.773 21.7301 18.7737C20.8703 18.7745 20.044 19.1075 19.4239 19.7032C19.4239 19.7032 18.1609 20.9862 17.6869 21.4632C15.8016 21.4268 14.0036 20.6616 12.6703 19.3281C11.337 17.9946 10.572 16.1965 10.5359 14.3112C11.0149 13.8372 12.2959 12.5772 12.3009 12.5722C12.9122 11.9608 13.2556 11.1317 13.2556 10.2672C13.2556 9.40264 12.9122 8.57352 12.3009 7.96216L9.5479 5.20916C8.93339 4.59619 8.10086 4.25195 7.2329 4.25195C6.36494 4.25195 5.53241 4.59619 4.9179 5.20916L3.4489 6.68016C1.5039 8.62516 1.0799 15.4652 8.8079 23.1932C13.7629 28.1482 18.3529 29.7522 21.5209 29.7522C22.8941 29.8498 24.2529 29.4207 25.3209 28.5522L26.7919 27.0802C27.405 26.4661 27.7494 25.6339 27.7494 24.7662C27.7494 23.8985 27.405 23.0662 26.7919 22.4522L24.0389 19.6992H24.0379ZM25.7299 26.0192L24.2589 27.4912C22.9279 28.8212 16.8989 29.1652 9.8669 22.1332C2.8339 15.0982 3.1799 9.07016 4.5069 7.74016L5.9799 6.26916C6.31269 5.93697 6.76369 5.75039 7.2339 5.75039C7.70411 5.75039 8.15511 5.93697 8.4879 6.26916L11.2409 9.02216C11.5704 9.3514 11.756 9.79783 11.7569 10.2636C11.7578 10.7294 11.5741 11.1766 11.2459 11.5072C11.2459 11.5072 9.7419 12.9852 9.3779 13.3492C8.7299 13.9972 9.1599 15.8062 9.3079 16.3462C9.71986 17.8678 10.5124 19.2595 11.6109 20.3902C13.9079 22.6862 17.7859 23.4832 18.6519 22.6222C19.0159 22.2582 20.4889 20.7602 20.4889 20.7602C20.8244 20.4402 21.2703 20.2617 21.7339 20.2617C22.1975 20.2617 22.6434 20.4402 22.9789 20.7602L25.7309 23.5122C26.063 23.8448 26.2496 24.2956 26.2496 24.7657C26.2496 25.2357 26.063 25.6865 25.7309 26.0192H25.7299Z"/></svg>