<svg xmlns="http://www.w3.org/2000/svg" width="32" height="32" viewBox="0 0 32 32"><path d="M28.7069 4.70699C28.8047 4.61533 28.883 4.50497 28.9372 4.38245C28.9915 4.25993 29.0206 4.12775 29.0228 3.99378C29.0249 3.8598 29.0002 3.72675 28.9499 3.60253C28.8997 3.47832 28.825 3.36546 28.7302 3.27068C28.6355 3.1759 28.5227 3.10112 28.3986 3.05078C28.2744 3.00045 28.1413 2.97558 28.0074 2.97766C27.8734 2.97974 27.7412 3.00873 27.6186 3.0629C27.4961 3.11706 27.3857 3.19531 27.2939 3.29299L13.1999 17.386C12.3403 16.2312 11.842 14.8477 11.7679 13.41C12.2879 12.895 13.4639 11.736 13.4699 11.73C14.129 11.0703 14.4992 10.176 14.4992 9.24349C14.4992 8.311 14.129 7.41665 13.4699 6.75699L10.7159 3.99999C10.0448 3.35865 9.15223 3.00074 8.22392 3.00074C7.29562 3.00074 6.40306 3.35865 5.73192 3.99999L4.25892 5.47399C2.31292 7.41999 1.81992 14.078 8.93992 21.647L3.29392 27.293C3.10642 27.4806 3.00113 27.7351 3.00122 28.0003C3.00131 28.2656 3.10678 28.52 3.29442 28.7075C3.48206 28.895 3.73651 29.0003 4.00178 29.0002C4.26705 29.0001 4.52142 28.8946 4.70892 28.707L28.7089 4.70699H28.7069ZM5.67392 6.88999L7.14592 5.44799C7.28723 5.30615 7.45516 5.19361 7.64006 5.11682C7.82496 5.04003 8.02321 5.0005 8.22342 5.0005C8.42364 5.0005 8.62188 5.04003 8.80679 5.11682C8.99169 5.19361 9.15961 5.30615 9.30092 5.44799L12.0549 8.17399C12.3375 8.45683 12.4967 8.83996 12.4978 9.23975C12.4989 9.63955 12.3419 10.0236 12.0609 10.308C12.0609 10.308 10.5549 11.79 10.1899 12.156C9.04592 13.304 10.2699 16.776 11.7809 18.806L10.3709 20.215C4.16392 13.607 4.43992 8.12599 5.67392 6.88999ZM25.2129 18.516C24.8862 18.1896 24.4984 17.9308 24.0716 17.7544C23.6448 17.5781 23.1875 17.4876 22.7257 17.4881C22.2639 17.4887 21.8067 17.5803 21.3804 17.7577C20.954 17.9351 20.5668 18.1948 20.2409 18.522C20.2409 18.522 19.0839 19.701 18.5689 20.22C17.845 20.2032 17.1302 20.0555 16.4589 19.784L14.9299 21.31C15.4607 21.5655 16.0128 21.7739 16.5799 21.933C17.4909 22.183 19.1229 22.497 19.8219 21.798C20.1849 21.434 21.6599 19.932 21.6599 19.932C21.9436 19.6491 22.3278 19.4902 22.7284 19.4902C23.129 19.4902 23.5133 19.6491 23.7969 19.932L26.5519 22.691C26.8378 22.9771 26.9983 23.365 26.9983 23.7695C26.9983 24.1739 26.8378 24.5619 26.5519 24.848L25.0789 26.285C23.9419 27.421 19.1859 27.749 13.2899 22.95L11.8449 24.395C15.9859 27.82 19.7649 29 22.5209 29C23.9579 29.1 25.3789 28.65 26.4949 27.74L27.9669 26.266C28.6286 25.604 29.0002 24.7064 29.0002 23.7705C29.0002 22.8346 28.6286 21.9369 27.9669 21.275L25.2129 18.516Z"/></svg>