<svg width="32" height="32" viewBox="0 0 32 32" fill="none" xmlns="http://www.w3.org/2000/svg">
<path d="M28.7075 4.7068C28.8004 4.61395 28.874 4.50372 28.9243 4.38241C28.9745 4.2611 29.0004 4.13108 29.0004 3.99977C29.0004 3.86846 28.9745 3.73844 28.9243 3.61713C28.874 3.49582 28.8004 3.38559 28.7075 3.29274C28.6147 3.19989 28.5045 3.12624 28.3831 3.07599C28.2618 3.02574 28.1318 2.99988 28.0005 2.99988C27.8692 2.99988 27.7392 3.02574 27.6179 3.07599C27.4965 3.12624 27.3863 3.19989 27.2935 3.29274L13.1998 17.3864C12.3401 16.2315 11.8418 14.8479 11.7678 13.41C12.2876 12.8945 13.464 11.7361 13.4698 11.7302C14.1287 11.0705 14.4987 10.1762 14.4987 9.24379C14.4987 8.3114 14.1287 7.41712 13.4698 6.75734L10.7156 3.99934C10.0445 3.35794 9.1519 2.99999 8.22359 2.99999C7.29528 2.99999 6.40271 3.35794 5.73162 3.99934L4.25916 5.47371C2.31342 7.42115 1.81922 14.0776 8.9394 21.6468L3.29347 27.2927C3.10596 27.4803 3.00061 27.7346 3.00061 27.9998C3.00061 28.265 3.10596 28.5193 3.29347 28.7068C3.48099 28.8943 3.73531 28.9997 4.0005 28.9997C4.26569 28.9997 4.52002 28.8943 4.70753 28.7068L28.7075 4.7068ZM5.67396 6.89039L7.14637 5.44795C7.28768 5.30623 7.45557 5.1938 7.64041 5.11708C7.82526 5.04036 8.02342 5.00087 8.22355 5.00087C8.42368 5.00087 8.62185 5.04036 8.80669 5.11708C8.99153 5.1938 9.15942 5.30623 9.30073 5.44795L12.055 8.174C12.3374 8.45688 12.4966 8.83996 12.4976 9.23969C12.4987 9.63941 12.3417 10.0234 12.0609 10.3078C12.0609 10.3078 10.5553 11.79 10.1899 12.1559C9.04626 13.3044 10.27 16.7757 11.781 18.8052L10.3715 20.2147C4.16438 13.6074 4.43965 8.12629 5.67396 6.89039Z" fill="black"/>
<path d="M25.213 18.5161C24.8862 18.1898 24.4983 17.9312 24.0715 17.755C23.6447 17.5787 23.1874 17.4883 22.7257 17.4888C22.2639 17.4893 21.8068 17.5809 21.3804 17.7581C20.9541 17.9354 20.5668 18.1949 20.2408 18.5219C20.2408 18.5219 19.0839 19.7008 18.569 20.2204C17.845 20.2034 17.13 20.0555 16.4588 19.7837L14.931 21.3115C15.462 21.567 16.0144 21.7754 16.5818 21.9344C17.4924 22.1839 19.1241 22.4979 19.8226 21.7994C20.1861 21.4354 21.6614 19.9327 21.6614 19.9327C21.945 19.6498 22.3293 19.491 22.7299 19.491C23.1304 19.491 23.5147 19.6498 23.7983 19.9327L26.5525 22.6916C26.8385 22.9778 26.9991 23.3657 26.9991 23.7703C26.9991 24.1748 26.8385 24.5627 26.5525 24.8489L25.0801 26.286C23.9433 27.4218 19.1865 27.7496 13.291 22.9515L11.8462 24.3962C15.9865 27.8201 19.765 29 22.5212 29C23.9578 29.1004 25.3787 28.6498 26.4949 27.7399L27.9673 26.2655C28.6286 25.6034 29 24.706 29 23.7702C29 22.8345 28.6286 21.937 27.9673 21.275L25.213 18.5161Z" fill="black"/>
</svg>
