<svg xmlns="http://www.w3.org/2000/svg" width="32" height="32" viewBox="0 0 32 32"><path d="M28.552 22.128L25.57 19.145C24.9651 18.5418 24.1456 18.2033 23.2914 18.2039C22.4372 18.2044 21.6181 18.544 21.014 19.148C21.014 19.148 19.419 20.771 19.092 21.115C18.0097 21.1331 16.9349 20.9325 15.932 20.525C14.9292 20.1176 14.019 19.5118 13.256 18.744C11.7329 17.2064 10.8654 15.138 10.836 12.974C11.229 12.581 12.852 10.987 12.856 10.984C13.4587 10.3796 13.7971 9.56095 13.7971 8.70747C13.7971 7.85398 13.4587 7.03531 12.856 6.43096L9.87001 3.44795C9.25432 2.86048 8.43601 2.53271 7.58501 2.53271C6.73401 2.53271 5.9157 2.86048 5.30001 3.44795L3.70401 5.04195C2.52101 6.22596 2.17801 8.79997 2.83001 11.6C3.41301 14.103 5.04601 18.023 9.51101 22.488C13.976 26.953 17.896 28.585 20.399 29.169C21.285 29.379 22.192 29.489 23.103 29.495C24.4938 29.5987 25.8718 29.1689 26.957 28.293L28.552 26.7C29.1583 26.0937 29.4989 25.2714 29.4989 24.414C29.4989 23.5565 29.1583 22.7343 28.552 22.128ZM27.845 25.993L26.25 27.587C25.475 28.362 23.437 28.85 20.625 28.195C18.25 27.641 14.516 26.08 10.218 21.781C2.44101 14.004 2.90801 7.25396 4.41201 5.74896L6.00701 4.15496C6.21428 3.94762 6.46036 3.78316 6.7312 3.67094C7.00205 3.55873 7.29234 3.50098 7.58551 3.50098C7.87867 3.50098 8.16897 3.55873 8.43981 3.67094C8.71066 3.78316 8.95674 3.94762 9.16401 4.15496L12.148 7.13696C12.5634 7.55287 12.797 8.11651 12.7975 8.70434C12.7981 9.29216 12.5656 9.85624 12.151 10.273C12.151 10.273 10.524 11.872 10.129 12.266C9.38501 13.011 10.069 16.972 12.549 19.451C15.029 21.931 18.989 22.613 19.733 21.871C20.126 21.477 21.724 19.852 21.724 19.852C22.1406 19.4363 22.705 19.2028 23.2935 19.2028C23.882 19.2028 24.4464 19.4363 24.863 19.852L27.845 22.835C28.2633 23.254 28.4982 23.8219 28.4982 24.414C28.4982 25.006 28.2633 25.5739 27.845 25.993Z"/></svg>