<svg xmlns="http://www.w3.org/2000/svg" width="32" height="32" viewBox="0 0 32 32"><path d="M24.8619 18.8761C24.288 18.3281 23.5249 18.0225 22.7313 18.0231C21.9378 18.0237 21.1751 18.3303 20.6019 18.8791C20.6019 18.8791 19.1289 20.3761 18.8399 20.6851C17.8879 20.7536 16.9343 20.577 16.0699 20.1721L12.2089 24.0341C16.2479 27.3671 19.8959 28.5161 22.5169 28.5161C23.8267 28.6101 25.1231 28.2022 26.1429 27.3751L27.6149 25.9031C27.8956 25.6225 28.1182 25.2893 28.2701 24.9226C28.422 24.556 28.5002 24.163 28.5002 23.7661C28.5002 23.3692 28.422 22.9762 28.2701 22.6095C28.1182 22.2429 27.8956 21.9097 27.6149 21.6291L24.8619 18.8761ZM4.70795 28.7071L28.7079 4.70708C28.8035 4.61483 28.8796 4.50449 28.932 4.38249C28.9845 4.26048 29.012 4.12926 29.0132 3.99648C29.0144 3.8637 28.989 3.73202 28.9388 3.60913C28.8885 3.48623 28.8142 3.37458 28.7203 3.28069C28.6264 3.18679 28.5148 3.11254 28.3919 3.06226C28.269 3.01198 28.1373 2.98668 28.0045 2.98783C27.8718 2.98898 27.7405 3.01657 27.6185 3.06898C27.4965 3.12139 27.3862 3.19757 27.2939 3.29308L12.8389 17.7471C11.8327 16.4559 11.2783 14.87 11.2609 13.2331C11.6239 12.8711 13.1209 11.3981 13.1249 11.3951C13.4045 11.1156 13.6262 10.7837 13.7775 10.4185C13.9288 10.0533 14.0067 9.66189 14.0067 9.26658C14.0067 8.87128 13.9288 8.47984 13.7775 8.11463C13.6262 7.74942 13.4045 7.41759 13.1249 7.13808L10.3719 4.38608C9.79627 3.836 9.03068 3.52903 8.23445 3.52903C7.43821 3.52903 6.67262 3.836 6.09695 4.38608L4.62495 5.85708C3.52295 6.95908 3.20195 9.34908 3.80695 11.9471C4.31495 14.1271 5.68495 17.4681 9.28795 21.2971L3.29295 27.2931C3.10544 27.4807 3.00015 27.7352 3.00024 28.0004C3.00034 28.2657 3.10581 28.5201 3.29345 28.7076C3.48109 28.8951 3.73553 29.0004 4.0008 29.0003C4.26607 29.0002 4.52044 28.8947 4.70795 28.7071Z"/></svg>