<svg xmlns="http://www.w3.org/2000/svg" width="32" height="32" viewBox="0 0 32 32"><path d="M28.354 3.6459C28.2603 3.55217 28.1331 3.49951 28.0005 3.49951C27.8679 3.49951 27.7408 3.55217 27.647 3.6459L12.718 18.5759C11.7857 17.3185 11.2757 15.7981 11.261 14.2329C11.624 13.8709 13.121 12.3979 13.125 12.3949C13.4046 12.1154 13.6263 11.7836 13.7776 11.4184C13.9289 11.0531 14.0067 10.6617 14.0067 10.2664C14.0067 9.8711 13.9289 9.47967 13.7776 9.11446C13.6263 8.74925 13.4046 8.41741 13.125 8.1379L10.37 5.38591C9.79452 4.83589 9.0291 4.52895 8.23303 4.52895C7.43696 4.52895 6.67154 4.83589 6.09603 5.38591L4.62503 6.8569C3.52303 7.9589 3.20203 10.3489 3.80703 12.9469C4.75423 16.4264 6.59557 19.5975 9.14803 22.1449L3.64703 27.6459C3.59927 27.692 3.56118 27.7472 3.53498 27.8082C3.50877 27.8692 3.49498 27.9348 3.4944 28.0012C3.49383 28.0676 3.50648 28.1334 3.53162 28.1949C3.55676 28.2563 3.59389 28.3122 3.64083 28.3591C3.68778 28.406 3.7436 28.4432 3.80505 28.4683C3.8665 28.4935 3.93234 28.5061 3.99873 28.5055C4.06512 28.505 4.13073 28.4912 4.19173 28.465C4.25273 28.4388 4.30791 28.4007 4.35403 28.3529L28.354 4.35291C28.4475 4.25901 28.5 4.13191 28.5 3.9994C28.5 3.8669 28.4475 3.7398 28.354 3.6459ZM9.85503 21.4379C7.434 19.0233 5.68504 16.0186 4.78103 12.7209C4.17903 10.1409 4.62403 8.2709 5.33203 7.5639L6.80403 6.0929C7.1894 5.72537 7.70149 5.52033 8.23403 5.52033C8.76656 5.52033 9.27865 5.72537 9.66403 6.0929L12.417 8.8449C12.7936 9.22135 13.0054 9.73183 13.006 10.2643C13.0065 10.7967 12.7958 11.3077 12.42 11.6849C12.42 11.6849 10.918 13.1619 10.554 13.5259C9.94603 14.1339 10.355 17.0269 12.008 19.2849L9.85503 21.4379ZM24.862 19.8759C24.2881 19.3279 23.525 19.0224 22.7314 19.0229C21.9379 19.0235 21.1752 19.3301 20.602 19.8789C20.602 19.8789 19.129 21.3759 18.84 21.6849C17.108 21.7324 15.4184 21.1444 14.09 20.0319L13.381 20.7419C15.678 22.6059 18.836 23.0829 19.475 22.4459C19.838 22.0809 21.312 20.5829 21.312 20.5829C21.6949 20.2172 22.204 20.0131 22.7335 20.0131C23.263 20.0131 23.7721 20.2172 24.155 20.5829L26.908 23.3359C27.2864 23.7156 27.4988 24.2298 27.4988 24.7659C27.4988 25.302 27.2864 25.8162 26.908 26.1959L25.436 27.6679C24.09 29.0109 18.18 29.4239 11.268 22.8539L10.555 23.5669C15.246 28.0419 19.542 29.5169 22.517 29.5169C23.8269 29.6107 25.1233 29.2023 26.143 28.3749L27.615 26.9029C27.8959 26.6224 28.1188 26.2893 28.2708 25.9226C28.4228 25.5559 28.5011 25.1629 28.5011 24.7659C28.5011 24.3689 28.4228 23.9759 28.2708 23.6092C28.1188 23.2425 27.8959 22.9094 27.615 22.6289L24.862 19.8759Z"/></svg>