<svg width="32" height="32" viewBox="0 0 32 32" fill="none" xmlns="http://www.w3.org/2000/svg">
<path d="M27.1871 5.813C24.1871 2.8223 19.4764 2.4077 16.0002 4.8286C12.0387 2.0649 6.58685 3.036 3.82325 6.9975C1.39775 10.4743 1.81485 15.19 4.81305 18.187C4.81305 18.187 9.91705 23.2954 13.6549 27.0308C14.5494 27.9392 15.998 27.9903 16.9542 27.147C17.1349 26.9666 17.2839 26.757 17.3946 26.5269L18.064 27.1959C18.4438 27.5603 18.9527 27.7591 19.479 27.7486C20.0948 27.7496 20.6862 27.5079 21.125 27.0758C21.3502 26.8514 21.5253 26.5818 21.6387 26.2848C22.786 26.7609 24.102 26.2167 24.578 25.0694C24.8156 24.4967 24.8063 23.8514 24.5522 23.2858C25.7033 22.8382 26.2736 21.5422 25.826 20.3911C25.7508 20.1977 25.6491 20.0158 25.5237 19.8504L27.187 18.187C30.5982 14.7676 30.5982 9.2324 27.1871 5.813ZM23.2222 21.7466L18.5303 17.0542C18.2374 16.7613 17.7626 16.7613 17.4697 17.0542C17.1768 17.3471 17.1768 17.8219 17.4697 18.1148L23.0293 23.6753C23.3235 23.967 23.3255 24.4419 23.0338 24.7361C22.7421 25.0303 22.2672 25.0323 21.973 24.7406L16.5308 19.2906C16.2379 18.9975 15.7629 18.9972 15.4698 19.2901C15.1767 19.583 15.1764 20.058 15.4693 20.3511L20.065 24.9536C20.3579 25.2553 20.3507 25.7373 20.049 26.0302C19.8006 26.2713 19.2456 26.2563 18.9053 25.916L14.4581 21.4693C14.1659 21.1758 13.6911 21.1748 13.3976 21.467C13.1041 21.7592 13.1031 22.234 13.3953 22.5275L15.9127 25.0445C16.1872 25.3406 16.1788 25.8006 15.8937 26.0865C15.5889 26.3913 15.0269 26.2903 14.715 25.9693C9.64265 20.9009 5.87365 17.1265 5.87365 17.1265C3.04245 14.2966 3.04145 9.7074 5.87135 6.8763C8.24495 4.5017 11.9387 4.068 14.7978 5.8284L8.31065 12.316C7.88635 12.6826 7.67385 13.2373 7.74475 13.7935C7.89785 14.4666 8.37575 15.0194 9.01965 15.2681C10.6898 16.1478 12.7434 15.7871 14.0138 14.3911L16.0255 12.3776C16.0566 12.4297 24.2584 20.6616 24.2584 20.6616C24.5615 20.9437 24.5608 21.4556 24.3138 21.7026C24.0468 21.9696 23.5189 22.0161 23.2222 21.7466ZM24.4854 18.7676L18.3086 12.5908C20.0046 12.716 21.6684 12.0803 22.8487 10.856C23.1409 10.5625 23.1399 10.0877 22.8464 9.7955C22.5538 9.5042 22.0808 9.5042 21.7882 9.7955C20.3897 11.1925 18.2396 11.5047 16.5016 10.5631L16.4956 10.5608C16.2028 10.3952 15.8355 10.4453 15.5978 10.6832L12.9528 13.3307C11.962 14.3215 10.7935 14.5232 9.70375 13.9332C9.51055 13.8413 9.33615 13.7141 9.18975 13.5581L15.8738 6.8737C15.9346 6.8129 16.0006 6.7609 16.0631 6.7027C18.9894 3.9732 23.5743 4.1328 26.3037 7.059C28.967 9.9144 28.8887 14.3667 26.1266 17.1266L24.4854 18.7676Z" fill="black"/>
</svg>
