<svg width="32" height="32" viewBox="0 0 32 32" fill="none" xmlns="http://www.w3.org/2000/svg">
<path d="M22.9999 9.49977C23.1988 9.49972 23.3895 9.42068 23.5302 9.28004C23.6708 9.1394 23.7499 8.94867 23.7499 8.74977V7.44215C23.7499 7.24324 23.6709 7.05247 23.5302 6.91182C23.3896 6.77117 23.1988 6.69215 22.9999 6.69215C22.801 6.69215 22.6102 6.77117 22.4696 6.91182C22.3289 7.05247 22.2499 7.24324 22.2499 7.44215V8.74977C22.25 8.94867 22.329 9.1394 22.4696 9.28004C22.6103 9.42068 22.801 9.49972 22.9999 9.49977Z" fill="black"/>
<path d="M23 12C23.4142 12 23.75 11.6642 23.75 11.25C23.75 10.8358 23.4142 10.5 23 10.5C22.5858 10.5 22.25 10.8358 22.25 11.25C22.25 11.6642 22.5858 12 23 12Z" fill="black"/>
<path d="M29.5194 12.1326L24.5331 3.13258L24.5243 3.11793C24.3696 2.85268 24.1478 2.63282 23.8812 2.48043C23.6146 2.32804 23.3126 2.2485 23.0055 2.24978C22.6984 2.25107 22.3971 2.33314 22.1318 2.48776C21.8665 2.64238 21.6465 2.86409 21.494 3.13063L16.4892 12.1179C16.3342 12.384 16.2521 12.6862 16.2512 12.994C16.2504 13.3019 16.3307 13.6046 16.4841 13.8715C16.6375 14.1384 16.8586 14.3602 17.1251 14.5144C17.3916 14.6686 17.694 14.7498 18.0019 14.7498H27.999C28.3054 14.7498 28.6065 14.6694 28.8721 14.5166C29.1377 14.3637 29.3586 14.1438 29.5125 13.8788C29.6665 13.6138 29.7481 13.3131 29.7493 13.0066C29.7506 12.7002 29.6713 12.3988 29.5194 12.1326ZM28.2157 13.1248C28.1945 13.1635 28.1631 13.1956 28.1248 13.2176C28.0866 13.2397 28.043 13.2508 27.9989 13.2498H18.0019C17.9577 13.2508 17.9142 13.2397 17.876 13.2176C17.8377 13.1956 17.8063 13.1635 17.7851 13.1248C17.7615 13.0845 17.7498 13.0384 17.7511 12.9918C17.7525 12.9452 17.767 12.8999 17.7929 12.8611L22.7968 3.87379C22.8186 3.83646 22.8498 3.80541 22.8872 3.78368C22.9246 3.76195 22.967 3.75027 23.0102 3.74978C23.0535 3.74929 23.0961 3.76001 23.134 3.78088C23.1719 3.80176 23.2038 3.83208 23.2265 3.86891L28.2147 12.8738C28.2381 12.9114 28.2505 12.9548 28.2507 12.9991C28.2509 13.0434 28.2388 13.0869 28.2157 13.1248Z" fill="black"/>
<path d="M24.038 19.699C23.4169 19.1043 22.59 18.7726 21.73 18.7733C20.8701 18.7741 20.0438 19.1071 19.4237 19.7029C19.4237 19.7029 18.161 20.9861 17.6874 21.4636C15.8019 21.4273 14.0038 20.6621 12.6704 19.3285C11.3371 17.995 10.5721 16.1968 10.536 14.3113C11.0145 13.8367 12.2968 12.5769 12.3007 12.572C12.6034 12.2694 12.8436 11.91 13.0075 11.5145C13.1714 11.1189 13.2557 10.695 13.2557 10.2669C13.2557 9.83873 13.1714 9.41479 13.0075 9.01926C12.8436 8.62374 12.6034 8.26437 12.3007 7.96169L9.54775 5.20875C8.93325 4.59618 8.10097 4.25221 7.2333 4.25221C6.36564 4.25221 5.53335 4.59618 4.91885 5.20875L3.44717 6.68043C1.50283 8.62477 1.07896 15.4646 8.80654 23.1931C13.7616 28.1482 18.3515 29.7517 21.5204 29.7517C22.8932 29.849 24.2515 29.4199 25.3192 28.5515L26.791 27.0798C27.404 26.4658 27.7482 25.6336 27.7482 24.7659C27.7482 23.8982 27.404 23.066 26.791 22.4519L24.038 19.699ZM25.7303 26.0193L24.2587 27.491C22.9276 28.8211 16.8993 29.1648 9.86709 22.1326C2.8339 15.0984 3.17861 9.07008 4.50771 7.741L5.97939 6.2693C6.31221 5.93723 6.76316 5.75074 7.2333 5.75074C7.70345 5.75074 8.1544 5.93723 8.48722 6.2693L11.2401 9.02223C11.5694 9.35146 11.7548 9.79776 11.7558 10.2634C11.7567 10.729 11.573 11.1761 11.245 11.5066C11.245 11.5066 9.74112 12.9851 9.37685 13.3494C8.72939 13.9968 9.15908 15.8064 9.30654 16.3455C9.71873 17.8672 10.5115 19.2589 11.6103 20.3895C13.9071 22.6863 17.7851 23.4832 18.6513 22.6219C19.0145 22.2576 20.4882 20.7596 20.4882 20.7596C20.8237 20.4399 21.2694 20.2615 21.7328 20.2615C22.1962 20.2615 22.6419 20.4399 22.9774 20.7596L25.7304 23.5125C26.0624 23.8451 26.2489 24.2959 26.2489 24.7659C26.2489 25.2359 26.0624 25.6867 25.7303 26.0193Z" fill="black"/>
</svg>
