<svg xmlns="http://www.w3.org/2000/svg" width="32" height="32" viewBox="0 0 32 32"><path d="M26.6149 22.629L23.8619 19.876C23.288 19.328 22.5248 19.0224 21.7313 19.023C20.9378 19.0235 20.175 19.3301 19.6019 19.879C19.6019 19.879 18.1299 21.376 17.8409 21.685C16.8482 21.7054 15.8619 21.5226 14.9425 21.1477C14.0231 20.7728 13.1902 20.2137 12.4949 19.505C11.0965 18.1027 10.2961 16.213 10.2619 14.233C10.6239 13.871 12.1219 12.398 12.1249 12.395C12.6882 11.8298 13.0045 11.0644 13.0045 10.2665C13.0045 9.46852 12.6882 8.70311 12.1249 8.13797L9.37189 5.38597C8.79609 4.83611 8.03055 4.5293 7.23439 4.5293C6.43822 4.5293 5.67268 4.83611 5.09689 5.38597L3.62489 6.85697C1.74189 8.73997 1.38189 15.413 8.98489 23.017C13.8979 27.93 18.4219 29.517 21.5179 29.517C22.8277 29.6107 24.1242 29.2024 25.1439 28.375L26.6149 26.903C27.1805 26.3356 27.4981 25.5671 27.4981 24.766C27.4981 23.9648 27.1805 23.1964 26.6149 22.629Z M29.2999 12.2538L24.3139 3.25177L24.3089 3.24177C24.1764 3.01468 23.9864 2.82644 23.7581 2.69591C23.5299 2.56537 23.2713 2.49714 23.0083 2.49806C22.7454 2.49897 22.4873 2.56899 22.2599 2.7011C22.0326 2.83321 21.8439 3.02277 21.7129 3.25077L16.7049 12.2438C16.5719 12.4717 16.5014 12.7307 16.5005 12.9947C16.4996 13.2586 16.5684 13.5181 16.6998 13.747C16.8313 13.9758 17.0208 14.1659 17.2493 14.2981C17.4777 14.4303 17.737 14.4998 18.0009 14.4998H27.9989C28.2618 14.4996 28.52 14.4304 28.7477 14.2991C28.9754 14.1678 29.1646 13.979 29.2965 13.7516C29.4283 13.5241 29.4981 13.2661 29.4989 13.0033C29.4996 12.7404 29.4314 12.482 29.3009 12.2538H29.2999ZM22.2499 7.44177C22.2499 7.24286 22.3289 7.05209 22.4696 6.91144C22.6103 6.77079 22.801 6.69177 22.9999 6.69177C23.1988 6.69177 23.3896 6.77079 23.5303 6.91144C23.6709 7.05209 23.7499 7.24286 23.7499 7.44177V8.74977C23.7499 8.94868 23.6709 9.13945 23.5303 9.2801C23.3896 9.42075 23.1988 9.49977 22.9999 9.49977C22.801 9.49977 22.6103 9.42075 22.4696 9.2801C22.3289 9.13945 22.2499 8.94868 22.2499 8.74977V7.44177ZM22.9999 11.9998C22.801 11.9998 22.6103 11.9208 22.4696 11.7801C22.3289 11.6394 22.2499 11.4487 22.2499 11.2498C22.2499 11.0509 22.3289 10.8601 22.4696 10.7194C22.6103 10.5788 22.801 10.4998 22.9999 10.4998C23.1988 10.4998 23.3896 10.5788 23.5303 10.7194C23.6709 10.8601 23.7499 11.0509 23.7499 11.2498C23.7499 11.4487 23.6709 11.6394 23.5303 11.7801C23.3896 11.9208 23.1988 11.9998 22.9999 11.9998Z"/></svg>