<svg width="32" height="32" viewBox="0 0 32 32" fill="none" xmlns="http://www.w3.org/2000/svg">
<path d="M23 9.88789C23.1326 9.88789 23.2598 9.83522 23.3536 9.74145C23.4473 9.64768 23.5 9.5205 23.5 9.38789V7.44189C23.5 7.30929 23.4473 7.18211 23.3536 7.08834C23.2598 6.99457 23.1326 6.94189 23 6.94189C22.8674 6.94189 22.7402 6.99457 22.6464 7.08834C22.5527 7.18211 22.5 7.30929 22.5 7.44189V9.38789C22.4999 9.45359 22.5127 9.51867 22.5378 9.57939C22.5629 9.64011 22.5997 9.69529 22.6462 9.74174C22.6926 9.7882 22.7478 9.82502 22.8085 9.8501C22.8692 9.87518 22.9343 9.88803 23 9.88789V9.88789ZM23 11.7499C23.1326 11.7499 23.2598 11.6972 23.3536 11.6034C23.4473 11.5097 23.5 11.3825 23.5 11.2499C23.5 11.1173 23.4473 10.9901 23.3536 10.8963C23.2598 10.8026 23.1326 10.7499 23 10.7499C22.8674 10.7499 22.7402 10.8026 22.6464 10.8963C22.5527 10.9901 22.5 11.1173 22.5 11.2499C22.5 11.3825 22.5527 11.5097 22.6464 11.6034C22.7402 11.6972 22.8674 11.7499 23 11.7499Z" fill="#0F0F0F"/>
<path d="M29.3 12.254L24.314 3.25397L24.309 3.24397C24.1764 3.01688 23.9865 2.82863 23.7582 2.6981C23.5299 2.56757 23.2714 2.49934 23.0084 2.50025C22.7454 2.50116 22.4874 2.57119 22.26 2.7033C22.0326 2.83541 21.844 3.02497 21.713 3.25297L16.706 12.243C16.573 12.471 16.5026 12.7301 16.5017 12.994C16.5008 13.258 16.5696 13.5175 16.701 13.7464C16.8325 13.9753 17.022 14.1655 17.2504 14.2978C17.4788 14.4301 17.738 14.4998 18.002 14.5H27.999C28.2619 14.4998 28.52 14.4306 28.7478 14.2993C28.9755 14.168 29.1647 13.9792 29.2965 13.7518C29.4283 13.5243 29.4981 13.2663 29.4989 13.0035C29.4997 12.7406 29.4315 12.4822 29.301 12.254H29.3ZM28.433 13.249C28.3898 13.3258 28.3267 13.3896 28.2504 13.4336C28.174 13.4776 28.0871 13.5002 27.999 13.499H18.002C17.9139 13.5002 17.827 13.4776 17.7506 13.4336C17.6743 13.3896 17.6112 13.3258 17.568 13.249C17.5229 13.1713 17.4997 13.0829 17.5008 12.9931C17.5018 12.9034 17.5271 12.8155 17.574 12.739L22.581 3.74797C22.6249 3.67292 22.6875 3.6106 22.7628 3.56716C22.8381 3.52373 22.9234 3.50067 23.0104 3.50026C23.0973 3.49986 23.1828 3.52213 23.2585 3.56486C23.3342 3.6076 23.3974 3.66933 23.442 3.74397L28.432 12.748C28.4768 12.8237 28.5004 12.91 28.5004 12.998C28.5004 13.0859 28.4768 13.1723 28.432 13.248L28.433 13.249Z" fill="#0F0F0F"/>
<path d="M23.861 19.876C23.2871 19.328 22.524 19.0224 21.7304 19.023C20.9369 19.0235 20.1742 19.3301 19.601 19.879C19.601 19.879 18.129 21.376 17.84 21.685C16.8474 21.7054 15.8611 21.5225 14.9417 21.1476C14.0223 20.7727 13.1894 20.2137 12.494 19.505C11.0956 18.1027 10.2952 16.213 10.261 14.233C10.623 13.871 12.121 12.398 12.124 12.395C12.6883 11.8303 13.0053 11.0647 13.0053 10.2665C13.0053 9.46819 12.6883 8.70259 12.124 8.13797L9.37103 5.38597C8.79524 4.83611 8.0297 4.5293 7.23353 4.5293C6.43737 4.5293 5.67182 4.83611 5.09603 5.38597L3.62403 6.85697C1.74103 8.73997 1.38103 15.413 8.98403 23.017C13.896 27.93 18.421 29.517 21.517 29.517C22.8269 29.6107 24.1233 29.2024 25.143 28.375L26.614 26.903C26.8947 26.6223 27.1173 26.2892 27.2692 25.9225C27.4211 25.5558 27.4993 25.1629 27.4993 24.766C27.4993 24.3691 27.4211 23.9761 27.2692 23.6094C27.1173 23.2427 26.8947 22.9096 26.614 22.629L23.861 19.876V19.876ZM25.907 26.196L24.436 27.668C23.053 29.048 16.849 29.468 9.69003 22.309C2.53103 15.15 2.95003 8.94497 4.33103 7.56397L5.80303 6.09297C6.18268 5.71406 6.69715 5.50125 7.23353 5.50125C7.76991 5.50125 8.28438 5.71406 8.66403 6.09297L11.417 8.84497C11.7936 9.22141 12.0054 9.73189 12.006 10.2643C12.0065 10.7968 11.7958 11.3077 11.42 11.685C11.42 11.685 9.91803 13.162 9.55403 13.526C8.97403 14.106 9.48703 16.058 9.54803 16.28C9.94874 17.7599 10.7196 19.1134 11.788 20.213C14.09 22.515 17.776 23.143 18.475 22.446C18.838 22.081 20.311 20.583 20.311 20.583C20.6938 20.217 21.203 20.0128 21.7325 20.0128C22.2621 20.0128 22.7713 20.217 23.154 20.583L25.907 23.336C26.2854 23.7157 26.4978 24.2299 26.4978 24.766C26.4978 25.302 26.2854 25.8162 25.907 26.196V26.196Z" fill="#0F0F0F"/>
</svg>
