<svg width="32" height="32" viewBox="0 0 32 32" fill="none" xmlns="http://www.w3.org/2000/svg">
<path d="M22.2499 7.44215V8.74977C22.2499 8.94868 22.329 9.13945 22.4696 9.2801C22.6103 9.42075 22.801 9.49977 22.9999 9.49977C23.1988 9.49977 23.3896 9.42075 23.5303 9.2801C23.6709 9.13945 23.7499 8.94868 23.7499 8.74977V7.44215C23.7499 7.24324 23.6709 7.05247 23.5303 6.91182C23.3896 6.77117 23.1988 6.69215 22.9999 6.69215C22.801 6.69215 22.6103 6.77117 22.4696 6.91182C22.329 7.05247 22.2499 7.24324 22.2499 7.44215Z" fill="black"/>
<path d="M23 12C23.4142 12 23.75 11.6642 23.75 11.25C23.75 10.8358 23.4142 10.5 23 10.5C22.5858 10.5 22.25 10.8358 22.25 11.25C22.25 11.6642 22.5858 12 23 12Z" fill="black"/>
<path d="M29.7382 12.0115L24.7519 3.01149L24.7402 2.992C24.5632 2.6886 24.3094 2.43717 24.0044 2.26299C23.6994 2.08882 23.3539 1.99806 23.0027 1.99984C22.6514 2.00162 22.3069 2.09588 22.0036 2.27314C21.7004 2.4504 21.4492 2.70439 21.2753 3.00957L16.2733 11.992C16.0962 12.296 16.0025 12.6414 16.0014 12.9932C16.0004 13.345 16.0922 13.6909 16.2675 13.9959C16.4428 14.301 16.6954 14.5544 16.9999 14.7306C17.3044 14.9069 17.65 14.9997 18.0018 14.9998H27.999C28.3489 14.9998 28.6927 14.908 28.9961 14.7335C29.2994 14.5591 29.5517 14.3081 29.7277 14.0057C29.9037 13.7033 29.9973 13.3599 29.9992 13.01C30.001 12.6601 29.911 12.3158 29.7382 12.0115ZM18.0117 12.9822L23.0107 3.99586L27.999 12.9998L18.0117 12.9822Z" fill="black"/>
<path d="M24.2116 19.5155C23.8848 19.1893 23.4969 18.9307 23.0702 18.7544C22.6434 18.5782 22.186 18.4877 21.7243 18.4883C21.2625 18.4888 20.8054 18.5803 20.3791 18.7576C19.9527 18.9349 19.5654 19.1944 19.2394 19.5214C19.2394 19.5214 18.0826 20.7003 17.5677 21.2198C15.7859 21.1462 14.0971 20.4048 12.837 19.143C11.5769 17.8812 10.8377 16.1914 10.7664 14.4095C11.2862 13.8939 12.4626 12.7356 12.4684 12.7297C13.1273 12.0699 13.4973 11.1756 13.4973 10.2433C13.4973 9.31086 13.1273 8.41658 12.4684 7.75679L9.71413 4.99879C9.04305 4.35737 8.15049 3.99942 7.22217 3.99942C6.29386 3.99942 5.40129 4.35737 4.73021 4.99879L3.25781 6.4732C1.24999 8.48272 0.762434 15.5033 8.61888 23.3702C13.6184 28.3774 18.276 29.9995 21.5199 29.9995C22.9565 30.0998 24.3773 29.6493 25.4935 28.7394L26.9659 27.265C27.6272 26.603 27.9987 25.7055 27.9987 24.7697C27.9987 23.834 27.6272 22.9365 26.9659 22.2745L24.2116 19.5155ZM25.5511 25.8483L24.0787 27.2855C22.7997 28.5632 16.9433 28.8352 10.0337 21.9164C3.12299 14.9965 3.3946 9.16952 4.67258 7.88984L6.14499 6.44743C6.28631 6.30571 6.4542 6.19327 6.63904 6.11655C6.82389 6.03982 7.02206 6.00033 7.22219 6.00033C7.42233 6.00033 7.6205 6.03982 7.80534 6.11655C7.99019 6.19327 8.15808 6.30571 8.29939 6.44743L11.0537 9.17343C11.3361 9.45632 11.4952 9.83939 11.4963 10.2391C11.4974 10.6388 11.3404 11.0228 11.0596 11.3072C11.0596 11.3072 9.55392 12.7894 9.18855 13.1553C7.88517 14.4643 9.65655 18.7915 11.424 20.5614C12.5856 21.6923 14.016 22.5088 15.5804 22.9339C16.491 23.1833 18.1227 23.4974 18.8213 22.7989C19.1847 22.4349 20.6601 20.9332 20.6601 20.9322C20.9437 20.6493 21.3279 20.4904 21.7285 20.4904C22.1291 20.4904 22.5133 20.6493 22.7969 20.9322L25.5512 23.6911C25.8371 23.9773 25.9977 24.3652 25.9977 24.7697C25.9977 25.1742 25.8371 25.5622 25.5511 25.8483Z" fill="black"/>
</svg>
