<svg xmlns="http://www.w3.org/2000/svg" width="32" height="32" viewBox="0 0 32 32"><path d="M27.0099 5.98991C25.5765 4.56135 23.6807 3.6907 21.6631 3.53435C19.6454 3.37801 17.6382 3.94622 16.0019 5.13691C14.2733 3.87735 12.1333 3.31608 10.009 3.56516C7.8848 3.81423 5.93266 4.85533 4.54235 6.48059C3.15205 8.10585 2.42589 10.1957 2.50884 12.3329C2.59179 14.47 3.47776 16.4973 4.98985 18.0099C4.98985 18.0099 10.0949 23.1199 13.8309 26.8529C14.214 27.245 14.7328 27.4757 15.2806 27.4974C15.8284 27.5192 16.3638 27.3304 16.7769 26.9699C17.0269 26.7229 17.2049 26.4129 17.2959 26.0739L18.2409 27.0189C18.5729 27.3379 19.0189 27.5109 19.4789 27.5019C20.0289 27.5019 20.5569 27.2849 20.9489 26.8979C21.2159 26.6329 21.4019 26.2979 21.4849 25.9299C21.8715 26.1577 22.3235 26.2488 22.7682 26.1886C23.2129 26.1285 23.6245 25.9205 23.9367 25.5981C24.2489 25.2757 24.4436 24.8578 24.4895 24.4114C24.5354 23.965 24.4299 23.5161 24.1899 23.1369C24.5301 23.0566 24.8432 22.8882 25.0979 22.6487C25.3525 22.4092 25.5397 22.107 25.6407 21.7723C25.7417 21.4376 25.7529 21.0823 25.6733 20.7419C25.5936 20.4015 25.4259 20.088 25.1869 19.8329L27.0099 18.0099C30.2969 14.6939 30.2749 9.32691 27.0099 5.98991ZM24.4349 21.8999C24.0539 22.2799 23.3689 22.2469 22.9409 21.8199L18.3539 17.2319C18.2596 17.1408 18.1333 17.0904 18.0022 17.0916C17.8711 17.0927 17.7456 17.1453 17.6529 17.238C17.5602 17.3307 17.5077 17.4561 17.5065 17.5872C17.5054 17.7183 17.5558 17.8446 17.6469 17.9389L23.2059 23.4989C23.3944 23.6855 23.5011 23.9393 23.5026 24.2046C23.504 24.4699 23.3999 24.7248 23.2134 24.9134C23.0268 25.102 22.7729 25.2087 22.5077 25.2101C22.2424 25.2115 21.9874 25.1075 21.7989 24.9209L21.7919 24.9129L16.3529 19.4769C16.2586 19.3858 16.1322 19.3354 16.0012 19.3366C15.8701 19.3377 15.7446 19.3903 15.6519 19.483C15.5592 19.5757 15.5067 19.7011 15.5055 19.8322C15.5044 19.9633 15.5548 20.0896 15.6459 20.1839L20.2659 24.8009C20.6419 25.2109 20.6159 25.8489 20.2059 26.2259C19.8579 26.5459 19.2359 26.6009 18.7449 26.1089L14.2829 21.6459C14.2367 21.5982 14.1816 21.5601 14.1206 21.5339C14.0596 21.5077 13.9939 21.4939 13.9276 21.4933C13.8612 21.4927 13.7953 21.5054 13.7339 21.5305C13.6724 21.5556 13.6166 21.5928 13.5697 21.6397C13.5227 21.6867 13.4856 21.7425 13.4604 21.8039C13.4353 21.8654 13.4227 21.9312 13.4232 21.9976C13.4238 22.064 13.4376 22.1296 13.4638 22.1906C13.49 22.2516 13.5281 22.3068 13.5759 22.3529L16.0759 24.8529C16.4609 25.2459 16.4579 25.8739 16.0699 26.2629C15.6649 26.6689 14.9449 26.5679 14.5379 26.1459C9.37185 20.9839 5.69685 17.3029 5.69685 17.3029C4.37604 15.9842 3.59461 14.2203 3.50535 12.356C3.41609 10.4917 4.02543 8.6612 5.21422 7.22236C6.403 5.78352 8.08574 4.83984 9.93338 4.57585C11.781 4.31186 13.6607 4.74655 15.2049 5.79491C15.1349 5.86091 15.0589 5.91991 14.9899 5.98991L8.48685 12.4919C8.12085 12.8029 7.93485 13.2769 7.99185 13.7539C8.14185 14.3439 8.56685 14.8239 9.13385 15.0459C9.89912 15.4473 10.776 15.5834 11.6269 15.4329C12.4779 15.2823 13.2548 14.8536 13.8359 14.2139L15.9999 12.0499L24.4349 20.4859C24.8249 20.8759 24.8249 21.5099 24.4349 21.9009V21.8999ZM24.4849 19.1209L17.5969 12.2319C18.505 12.4284 19.4483 12.3889 20.3368 12.117C21.2253 11.8451 22.0292 11.35 22.6719 10.6789C22.7196 10.6328 22.7577 10.5776 22.7839 10.5166C22.8101 10.4556 22.8239 10.39 22.8245 10.3236C22.8251 10.2572 22.8124 10.1914 22.7873 10.1299C22.7621 10.0685 22.725 10.0127 22.678 9.96571C22.6311 9.91877 22.5753 9.88164 22.5138 9.8565C22.4524 9.83136 22.3865 9.81871 22.3202 9.81929C22.2538 9.81986 22.1882 9.83366 22.1271 9.85986C22.0661 9.88606 22.011 9.92416 21.9649 9.97191C21.2458 10.693 20.3122 11.1615 19.3043 11.307C18.2964 11.4525 17.2685 11.2672 16.3749 10.7789C16.305 10.7472 16.2285 10.7324 16.1519 10.7359C16.0838 10.7283 16.0149 10.7354 15.9498 10.7568C15.8848 10.7782 15.8251 10.8134 15.7749 10.8599L13.1289 13.5069C12.1309 14.5049 10.7769 14.7839 9.58885 14.1559C9.16985 13.9419 8.99885 13.7279 8.97885 13.5989C8.95685 13.4599 9.10385 13.2889 9.19385 13.1989L15.6969 6.69691C15.7879 6.60591 15.8869 6.52591 15.9809 6.43991C17.4319 5.13115 19.3367 4.44083 21.2894 4.51609C23.242 4.59135 25.088 5.42622 26.434 6.84279C27.7801 8.25936 28.5196 10.1456 28.4951 12.0995C28.4706 14.0534 27.684 15.9205 26.3029 17.3029L24.4849 19.1209Z"/></svg>