<svg width="32" height="32" viewBox="0 0 32 32" fill="none" xmlns="http://www.w3.org/2000/svg">
<path d="M23 9.49989C23.1989 9.49989 23.3897 9.42088 23.5303 9.28022C23.671 9.13957 23.75 8.94881 23.75 8.74989V7.44189C23.75 7.24298 23.671 7.05222 23.5303 6.91156C23.3897 6.77091 23.1989 6.69189 23 6.69189C22.8011 6.69189 22.6103 6.77091 22.4697 6.91156C22.329 7.05222 22.25 7.24298 22.25 7.44189V8.74989C22.25 8.94881 22.329 9.13957 22.4697 9.28022C22.6103 9.42088 22.8011 9.49989 23 9.49989ZM23 11.9999C23.1989 11.9999 23.3897 11.9209 23.5303 11.7802C23.671 11.6396 23.75 11.4488 23.75 11.2499C23.75 11.051 23.671 10.8602 23.5303 10.7196C23.3897 10.5789 23.1989 10.4999 23 10.4999C22.8011 10.4999 22.6103 10.5789 22.4697 10.7196C22.329 10.8602 22.25 11.051 22.25 11.2499C22.25 11.4488 22.329 11.6396 22.4697 11.7802C22.6103 11.9209 22.8011 11.9999 23 11.9999V11.9999Z" fill="#0F0F0F"/>
<path d="M29.52 12.1331L24.533 3.13308L24.524 3.11808C24.3692 2.85296 24.1474 2.63322 23.8808 2.48094C23.6142 2.32866 23.3123 2.24919 23.0053 2.2505C22.6982 2.25182 22.397 2.33388 22.1317 2.48844C21.8665 2.64301 21.6465 2.86464 21.494 3.13108L16.489 12.1181C16.3338 12.3841 16.2515 12.6864 16.2505 12.9944C16.2495 13.3024 16.3298 13.6052 16.4833 13.8722C16.6368 14.1393 16.8581 14.361 17.1247 14.5152C17.3914 14.6693 17.694 14.7503 18.002 14.7501H27.999C28.3054 14.7501 28.6064 14.6696 28.872 14.5167C29.1375 14.3639 29.3583 14.144 29.5121 13.879C29.666 13.6141 29.7477 13.3134 29.7489 13.007C29.7501 12.7006 29.6708 12.3992 29.519 12.1331H29.52ZM28.216 13.1251C28.1948 13.1639 28.1634 13.1961 28.1251 13.2181C28.0868 13.2402 28.0432 13.2512 27.999 13.2501H18.002C17.9578 13.2512 17.9142 13.2402 17.8759 13.2181C17.8376 13.1961 17.8062 13.1639 17.785 13.1251C17.7616 13.0847 17.7499 13.0386 17.7513 12.9919C17.7527 12.9453 17.7672 12.8999 17.793 12.8611L22.797 3.87408C22.8187 3.83651 22.8498 3.80524 22.8873 3.78333C22.9247 3.76142 22.9672 3.74964 23.0106 3.74914C23.054 3.74863 23.0967 3.75942 23.1347 3.78045C23.1726 3.80148 23.2044 3.83203 23.227 3.86908L28.215 12.8741C28.238 12.9117 28.2501 12.955 28.2501 12.9991C28.2501 13.0432 28.238 13.0864 28.215 13.1241L28.216 13.1251Z" fill="#0F0F0F"/>
<path d="M24.038 19.6989C23.4169 19.1043 22.5901 18.7727 21.7302 18.7735C20.8704 18.7742 20.0441 19.1072 19.424 19.7029C19.424 19.7029 18.161 20.9859 17.687 21.4629C15.8017 21.4265 14.0037 20.6613 12.6704 19.3278C11.3371 17.9944 10.5721 16.1963 10.536 14.3109C11.015 13.8369 12.296 12.5769 12.301 12.5719C12.9123 11.9606 13.2557 11.1314 13.2557 10.2669C13.2557 9.4024 12.9123 8.57328 12.301 7.96192L9.54802 5.20892C8.93352 4.59595 8.10098 4.25171 7.23302 4.25171C6.36506 4.25171 5.53253 4.59595 4.91802 5.20892L3.44902 6.67992C1.50402 8.62492 1.08002 15.4649 8.80802 23.1929C13.763 28.1479 18.353 29.7519 21.521 29.7519C22.8942 29.8496 24.253 29.4205 25.321 28.5519L26.792 27.0799C27.4051 26.4659 27.7495 25.6336 27.7495 24.7659C27.7495 23.8982 27.4051 23.066 26.792 22.4519L24.039 19.6989H24.038ZM25.73 26.0189L24.259 27.4909C22.928 28.8209 16.899 29.1649 9.86702 22.1329C2.83402 15.0979 3.18002 9.06992 4.50702 7.73992L5.98002 6.26892C6.31281 5.93672 6.76381 5.75015 7.23402 5.75015C7.70424 5.75015 8.15524 5.93672 8.48802 6.26892L11.241 9.02192C11.5705 9.35116 11.7561 9.79759 11.757 10.2634C11.7579 10.7292 11.5742 11.1764 11.246 11.5069C11.246 11.5069 9.74202 12.9849 9.37802 13.3489C8.73002 13.9969 9.16002 15.8059 9.30802 16.3459C9.71999 17.8675 10.5125 19.2593 11.611 20.3899C13.908 22.6859 17.786 23.4829 18.652 22.6219C19.016 22.2579 20.489 20.7599 20.489 20.7599C20.8245 20.4399 21.2704 20.2614 21.734 20.2614C22.1977 20.2614 22.6435 20.4399 22.979 20.7599L25.731 23.5119C26.0632 23.8445 26.2497 24.2954 26.2497 24.7654C26.2497 25.2355 26.0632 25.6863 25.731 26.0189H25.73Z" fill="#0F0F0F"/>
</svg>
