<svg width="32" height="32" viewBox="0 0 32 32" fill="none" xmlns="http://www.w3.org/2000/svg">
<path d="M28.5522 22.1276L25.57 19.1452C24.9651 18.5422 24.1457 18.2038 23.2916 18.2044C22.4374 18.2049 21.6184 18.5443 21.0143 19.1481C21.0143 19.1481 19.4186 20.7712 19.0925 21.1149C18.0101 21.1326 16.9353 20.9318 15.9323 20.5244C14.9294 20.1169 14.019 19.5113 13.2556 18.7438C11.7323 17.2064 10.8651 15.1379 10.8366 12.9738C11.2302 12.5793 12.8513 10.9855 12.8542 10.9826C13.1533 10.6837 13.3905 10.3289 13.5524 9.9383C13.7143 9.54771 13.7976 9.12905 13.7976 8.70625C13.7976 8.28345 13.7143 7.86479 13.5524 7.4742C13.3905 7.08361 13.1533 6.72875 12.8542 6.4299L9.8716 3.4479C9.25574 2.86025 8.4372 2.53238 7.58595 2.53238C6.73471 2.53238 5.91617 2.86025 5.3003 3.4479L3.7056 5.0417C2.521 6.2263 2.1782 8.8005 2.8306 11.6C3.4136 14.1029 5.0464 18.0228 9.5112 22.4887C13.976 26.9546 17.897 28.5866 20.3989 29.17C21.2849 29.3811 22.1922 29.4906 23.103 29.4962C24.4939 29.6 25.8722 29.1701 26.9575 28.294L28.5522 26.7C28.8525 26.3998 29.0908 26.0434 29.2533 25.6512C29.4158 25.2589 29.4995 24.8385 29.4995 24.4139C29.4995 23.9892 29.4158 23.5688 29.2533 23.1765C29.0908 22.7843 28.8525 22.4279 28.5522 22.1277V22.1276ZM27.8452 25.9929L26.2505 27.5866C25.4751 28.362 23.437 28.8493 20.6255 28.196C18.2505 27.6423 14.5171 26.0808 10.2182 21.7819C2.4409 14.0036 2.9077 7.2536 4.4126 5.7487L6.0073 4.155C6.43261 3.74905 6.99796 3.52254 7.5859 3.52254C8.17385 3.52254 8.7392 3.74905 9.1645 4.155L12.147 7.1374C12.5629 7.55298 12.7969 8.11668 12.7974 8.70465C12.798 9.29262 12.5651 9.85675 12.1499 10.2731C12.1499 10.2731 10.5229 11.8731 10.1294 12.2673C10.0073 12.3893 9.8442 12.6306 9.8432 13.3083C9.96676 15.6169 10.9286 17.8011 12.5483 19.4509C15.0288 21.9309 18.9897 22.614 19.7329 21.8709C20.1265 21.4773 21.7241 19.8523 21.7241 19.8523C22.1407 19.4368 22.7051 19.2034 23.2935 19.2034C23.8818 19.2034 24.4462 19.4368 24.8628 19.8523L27.8452 22.8348C28.0526 23.0421 28.2172 23.2883 28.3294 23.5593C28.4417 23.8302 28.4995 24.1206 28.4995 24.4139C28.4995 24.7072 28.4417 24.9976 28.3294 25.2685C28.2172 25.5395 28.0526 25.7857 27.8452 25.993V25.9929Z" fill="black"/>
</svg>
