<svg width="32" height="32" viewBox="0 0 32 32" fill="none" xmlns="http://www.w3.org/2000/svg">
<path d="M29.048 22.5952L26.0658 19.6128C25.4608 19.01 24.6414 18.6718 23.7873 18.6724C22.9333 18.6729 22.1143 19.0122 21.5101 19.6157C21.5101 19.6157 19.9144 21.2388 19.5883 21.5825C18.5059 21.6005 17.431 21.3997 16.428 20.9923C15.425 20.5849 14.5146 19.9791 13.7514 19.2114C12.2281 17.674 11.3609 15.6055 11.3324 13.4414C11.726 13.0469 13.3471 11.4531 13.35 11.4502C13.6491 11.1514 13.8863 10.7965 14.0482 10.4059C14.2101 10.0153 14.2934 9.59667 14.2934 9.17387C14.2934 8.75106 14.2101 8.3324 14.0482 7.94182C13.8863 7.55123 13.6491 7.19637 13.35 6.89752L10.3674 3.91552C9.75151 3.32787 8.93297 3 8.08173 3C7.23048 3 6.41194 3.32787 5.79608 3.91552L4.20138 5.50932C3.01678 6.69392 2.67398 9.26812 3.32638 12.0676C3.90938 14.5705 5.54218 18.4904 10.007 22.9562C14.4718 27.422 18.3928 29.0542 20.8947 29.6376C21.7807 29.8488 22.6879 29.9582 23.5988 29.9638C24.9897 30.0676 26.368 29.6377 27.4533 28.7616L29.048 27.1676C29.3483 26.8675 29.5865 26.5111 29.7491 26.1188C29.9116 25.7265 29.9953 25.3061 29.9953 24.8815C29.9953 24.4569 29.9116 24.0364 29.7491 23.6441C29.5865 23.2519 29.3483 22.8955 29.048 22.5953V22.5952Z" fill="black"/>
</svg>
