<svg width="32" height="32" viewBox="0 0 32 32" fill="none" xmlns="http://www.w3.org/2000/svg">
<path d="M28.4851 21.667L25.5027 18.6845C24.8508 18.034 23.9671 17.6691 23.0461 17.67C22.1251 17.6709 21.2422 18.0376 20.5915 18.6894C20.5915 18.6894 19.1999 20.1045 18.697 20.6103C16.628 20.5813 14.6519 19.7466 13.1886 18.2835C11.7253 16.8205 10.8904 14.8444 10.8611 12.7754C11.3669 12.2724 12.7829 10.8808 12.7868 10.876C13.1092 10.5539 13.3648 10.1715 13.5393 9.75058C13.7137 9.32965 13.8035 8.87848 13.8035 8.42283C13.8035 7.96719 13.7137 7.51601 13.5393 7.09509C13.3648 6.67416 13.1092 6.29174 12.7868 5.96968L9.80444 2.98728C9.14125 2.35361 8.2593 2 7.34204 2C6.42478 2 5.54283 2.35361 4.87964 2.98728L3.28494 4.58098C1.19414 6.67188 0.749741 14.04 9.09064 22.3818C13.5974 26.8887 17.5642 28.539 20.0984 29.1289C21.0121 29.3479 21.9479 29.462 22.8874 29.4689C24.3371 29.5732 25.7711 29.1138 26.8904 28.1867L28.4851 26.593C28.8087 26.2696 29.0653 25.8856 29.2404 25.4631C29.4155 25.0405 29.5056 24.5875 29.5056 24.1301C29.5056 23.6727 29.4155 23.2197 29.2404 22.7971C29.0653 22.3745 28.8087 21.9906 28.4851 21.6672V21.667ZM27.4245 25.5322L25.8298 27.1261C25.1267 27.8292 23.1398 28.2999 20.4382 27.668C18.0945 27.1221 14.4082 25.578 10.1511 21.3214C2.49974 13.6689 2.89334 7.09468 4.34544 5.64158L5.94024 4.04778C6.31767 3.68678 6.81981 3.48529 7.34209 3.48529C7.86437 3.48529 8.36652 3.68678 8.74394 4.04778L11.7261 7.03028C12.0948 7.39863 12.3023 7.89813 12.3033 8.41927C12.3042 8.94041 12.0984 9.44064 11.731 9.81028C11.731 9.81028 10.1023 11.4121 9.70974 11.8061C9.57226 11.9754 9.46967 12.1703 9.40788 12.3795C9.3461 12.5887 9.32634 12.808 9.34974 13.0249C9.47523 15.3994 10.4632 17.6465 12.1281 19.3442C14.5981 21.8142 18.7481 22.6821 19.6662 21.7642C20.0597 21.3706 21.6574 19.7456 21.6574 19.7456C22.0271 19.3769 22.5279 19.1699 23.05 19.1699C23.5721 19.1699 24.0729 19.3769 24.4425 19.7456L27.4249 22.728C27.7962 23.1002 28.0047 23.6045 28.0046 24.1302C28.0046 24.6559 27.7959 25.1601 27.4245 25.5322Z" fill="black"/>
</svg>
