<svg xmlns="http://www.w3.org/2000/svg" width="32" height="32" viewBox="0 0 32 32"><path d="M23 9.4999C23.1989 9.4999 23.3897 9.42088 23.5303 9.28022C23.671 9.13957 23.75 8.94882 23.75 8.7499V7.44189C23.75 7.24298 23.671 7.05222 23.5303 6.91156C23.3897 6.77091 23.1989 6.69189 23 6.69189C22.8011 6.69189 22.6103 6.77091 22.4697 6.91156C22.329 7.05222 22.25 7.24298 22.25 7.44189V8.7499C22.25 8.94882 22.329 9.13957 22.4697 9.28022C22.6103 9.42088 22.8011 9.4999 23 9.4999ZM23 11.9999C23.1989 11.9999 23.3897 11.9209 23.5303 11.7802C23.671 11.6396 23.75 11.4488 23.75 11.2499C23.75 11.051 23.671 10.8602 23.5303 10.7196C23.3897 10.5789 23.1989 10.4999 23 10.4999C22.8011 10.4999 22.6103 10.5789 22.4697 10.7196C22.329 10.8602 22.25 11.051 22.25 11.2499C22.25 11.4488 22.329 11.6396 22.4697 11.7802C22.6103 11.9209 22.8011 11.9999 23 11.9999Z M29.5201 12.133L24.5331 3.13302L24.524 3.11802C24.3713 2.85301 24.1511 2.63312 23.8859 2.48068C23.6207 2.32823 23.3199 2.24865 23.014 2.25002C22.7055 2.24923 22.4023 2.33025 22.1353 2.48484C21.8682 2.63943 21.647 2.86205 21.494 3.13002L16.489 12.118C16.3341 12.3841 16.2521 12.6863 16.2513 12.9942C16.2504 13.3021 16.3308 13.6047 16.4842 13.8717C16.6377 14.1386 16.8588 14.3603 17.1253 14.5145C17.3917 14.6688 17.6942 14.75 18.0021 14.75H28C28.3064 14.75 28.6075 14.6695 28.873 14.5167C29.1385 14.3638 29.3593 14.1439 29.5132 13.8789C29.6671 13.614 29.7487 13.3133 29.7499 13.0069C29.7511 12.7005 29.6718 12.3992 29.5201 12.133ZM28.215 13.125C28.194 13.1635 28.1629 13.1955 28.125 13.2175C28.0871 13.2396 28.0439 13.2508 28 13.25H18.0021C17.9578 13.2511 17.9141 13.2399 17.8758 13.2176C17.8375 13.1954 17.8061 13.163 17.785 13.124C17.7618 13.0838 17.7502 13.0378 17.7516 12.9914C17.7531 12.9449 17.7674 12.8998 17.793 12.861L22.7971 3.87502C22.8187 3.8374 22.8497 3.80605 22.8871 3.78405C22.9245 3.76206 22.967 3.75017 23.0103 3.74957C23.0537 3.74896 23.0965 3.75966 23.1345 3.7806C23.1725 3.80154 23.2044 3.83201 23.227 3.86902L28.215 12.874C28.238 12.9117 28.2502 12.9549 28.2502 12.999C28.2502 13.0431 28.238 13.0864 28.215 13.124V13.125ZM16 3.75002C16.306 3.75002 16.613 3.76602 16.918 3.80002C17.0162 3.81295 17.116 3.80588 17.2114 3.77924C17.3068 3.7526 17.3958 3.70693 17.473 3.64499C17.5503 3.58305 17.6142 3.50611 17.661 3.41881C17.7077 3.33151 17.7363 3.23566 17.7451 3.13702C17.7562 3.03907 17.7478 2.93989 17.7205 2.84519C17.6931 2.75048 17.6473 2.66212 17.5857 2.58517C17.5241 2.50823 17.4479 2.44422 17.3614 2.39682C17.275 2.34943 17.1801 2.31959 17.0821 2.30902C14.6197 2.03765 12.1462 2.7122 10.1625 4.19607C8.17879 5.67995 6.83314 7.86224 6.39805 10.301C5.19543 10.4477 4.09443 11.0487 3.32065 11.9809C2.54687 12.9132 2.1589 14.1061 2.23625 15.3151C2.3136 16.5242 2.8504 17.6579 3.73667 18.4839C4.62293 19.31 5.79154 19.7658 7.00305 19.758C7.10171 19.758 7.1994 19.7386 7.29053 19.7007C7.38165 19.6629 7.46442 19.6075 7.53409 19.5376C7.60376 19.4678 7.65896 19.3849 7.69653 19.2936C7.73411 19.2024 7.75331 19.1047 7.75305 19.006L7.75005 12C7.7527 9.81279 8.62274 7.71591 10.1693 6.16931C11.7159 4.62271 13.8128 3.75266 16 3.75002ZM6.25005 18.17C5.53808 18.0027 4.90353 17.5998 4.44936 17.0265C3.99519 16.4533 3.74806 15.7434 3.74806 15.012C3.74806 14.2807 3.99519 13.5708 4.44936 12.9975C4.90353 12.4243 5.53808 12.0213 6.25005 11.854V18.17ZM25.0271 18.255C24.8295 18.2334 24.6314 18.2911 24.4764 18.4154C24.3213 18.5397 24.2219 18.7205 24.2001 18.918C24.0248 20.5038 23.3922 22.0043 22.3793 23.2369C21.3663 24.4695 20.0168 25.3809 18.4951 25.86C18.2223 25.2537 17.7397 24.7664 17.1361 24.4876C16.5325 24.2089 15.8486 24.1576 15.2102 24.3431C14.5717 24.5287 14.0218 24.9386 13.6617 25.4974C13.3015 26.0562 13.1553 26.7263 13.25 27.3844C13.3447 28.0424 13.6739 28.6441 14.177 29.0787C14.6801 29.5133 15.3233 29.7515 15.9881 29.7496C16.653 29.7476 17.2947 29.5055 17.7952 29.0679C18.2957 28.6303 18.6213 28.0266 18.712 27.368C20.5655 26.8342 22.2185 25.7614 23.461 24.2861C24.7034 22.8107 25.4793 20.9993 25.6901 19.082C25.7117 18.8845 25.654 18.6864 25.5297 18.5313C25.4054 18.3763 25.2246 18.2769 25.0271 18.255ZM16 28.25C15.833 28.2547 15.6667 28.2259 15.5109 28.1653C15.3552 28.1046 15.2132 28.0133 15.0934 27.8968C14.9736 27.7803 14.8783 27.641 14.8133 27.487C14.7482 27.3331 14.7147 27.1676 14.7147 27.0005C14.7147 26.8334 14.7482 26.668 14.8133 26.514C14.8783 26.3601 14.9736 26.2207 15.0934 26.1042C15.2132 25.9877 15.3552 25.8964 15.5109 25.8358C15.6667 25.7751 15.833 25.7463 16 25.751C16.3253 25.7602 16.6342 25.8959 16.861 26.1292C17.0878 26.3625 17.2147 26.6751 17.2147 27.0005C17.2147 27.3259 17.0878 27.6385 16.861 27.8718C16.6342 28.1051 16.3253 28.2408 16 28.25Z"/></svg>