<svg width="32" height="32" viewBox="0 0 32 32" fill="none" xmlns="http://www.w3.org/2000/svg">
<path d="M25.26 6.003L20.603 8.661V10.289L25.231 7.661V26.003H26.774V6.003H25.26Z" fill="black"/>
<path d="M15.9982 6.25244C15.7993 6.25249 15.6086 6.33153 15.468 6.47217C15.3273 6.61281 15.2483 6.80354 15.2482 7.00244V15.2524H6.74823V7.00244C6.74823 6.80353 6.66921 6.61276 6.52856 6.47211C6.38791 6.33146 6.19714 6.25244 5.99823 6.25244C5.79932 6.25244 5.60855 6.33146 5.4679 6.47211C5.32725 6.61276 5.24823 6.80353 5.24823 7.00244V25.002C5.24823 25.2009 5.32725 25.3917 5.4679 25.5323C5.60855 25.673 5.79932 25.752 5.99823 25.752C6.19714 25.752 6.38791 25.673 6.52856 25.5323C6.66921 25.3917 6.74823 25.2009 6.74823 25.002V16.752H15.2482V25.002C15.2482 25.1005 15.2676 25.198 15.3053 25.289C15.343 25.38 15.3983 25.4627 15.4679 25.5323C15.5375 25.602 15.6202 25.6572 15.7112 25.6949C15.8022 25.7326 15.8997 25.752 15.9982 25.752C16.0967 25.752 16.1942 25.7326 16.2852 25.6949C16.3762 25.6572 16.4589 25.602 16.5286 25.5323C16.5982 25.4627 16.6534 25.38 16.6911 25.289C16.7288 25.198 16.7482 25.1005 16.7482 25.002V7.00244C16.7482 6.80354 16.6691 6.61281 16.5285 6.47217C16.3879 6.33153 16.1971 6.25249 15.9982 6.25244Z" fill="black"/>
</svg>
