<svg width="32" height="32" viewBox="0 0 32 32" fill="none" xmlns="http://www.w3.org/2000/svg">
<path d="M22.2496 7.44228V8.74989C22.2496 8.9488 22.3286 9.13957 22.4693 9.28022C22.6099 9.42087 22.8007 9.49989 22.9996 9.49989C23.1985 9.49989 23.3893 9.42087 23.5299 9.28022C23.6706 9.13957 23.7496 8.9488 23.7496 8.74989V7.44228C23.7496 7.24337 23.6706 7.0526 23.5299 6.91195C23.3893 6.7713 23.1985 6.69228 22.9996 6.69228C22.8007 6.69228 22.6099 6.7713 22.4693 6.91195C22.3286 7.0526 22.2496 7.24337 22.2496 7.44228Z" fill="black"/>
<path d="M23 12C23.4142 12 23.75 11.6642 23.75 11.25C23.75 10.8357 23.4142 10.5 23 10.5C22.5857 10.5 22.25 10.8357 22.25 11.25C22.25 11.6642 22.5857 12 23 12Z" fill="black"/>
<path d="M29.7379 12.0116L24.7515 3.01161L24.7398 2.99208C24.5655 2.68903 24.3139 2.43758 24.0108 2.2633C23.7077 2.08902 23.3639 1.99814 23.0142 1.99989C22.661 1.99905 22.3129 2.0921 22.0074 2.26954C21.702 2.44697 21.4492 2.70239 21.275 3.00966L16.273 11.9921C16.0959 12.2961 16.0021 12.6414 16.0011 12.9933C16 13.3451 16.0918 13.691 16.2671 13.996C16.4424 14.3011 16.695 14.5545 16.9995 14.7307C17.304 14.907 17.6496 14.9998 18.0015 14.9999H27.9995C28.3494 14.9998 28.6931 14.908 28.9964 14.7335C29.2997 14.559 29.5519 14.308 29.7279 14.0056C29.9038 13.7031 29.9973 13.3598 29.9991 13.0099C30.0008 12.66 29.9108 12.3158 29.7379 12.0116ZM18.0113 12.9823L23.0103 3.99599L27.9996 12.9999L18.0113 12.9823Z" fill="black"/>
<path d="M15.9996 3.99989C16.2971 3.99982 16.5945 4.01612 16.8902 4.04872C17.1536 4.07717 17.4175 3.99996 17.624 3.83405C17.8305 3.66813 17.9628 3.42706 17.9918 3.16373C18.0207 2.90041 17.9441 2.63635 17.7785 2.4295C17.613 2.22266 17.3722 2.08993 17.109 2.06044C16.7405 2.01999 16.3702 1.99978 15.9996 1.99989C13.681 2.00291 11.4352 2.81017 9.64524 4.28399C7.8553 5.75782 6.63207 7.80694 6.18414 10.0819C4.94564 10.2857 3.82925 10.9483 3.05701 11.9378C2.28478 12.9273 1.91328 14.1712 2.01642 15.4221C2.11955 16.6731 2.68976 17.8393 3.61363 18.689C4.5375 19.5386 5.74734 20.0094 7.00251 20.0077C7.13406 20.0076 7.26432 19.9816 7.38582 19.9312C7.50733 19.8807 7.61768 19.8068 7.71057 19.7137C7.80346 19.6205 7.87706 19.5099 7.92715 19.3883C7.97725 19.2666 8.00286 19.1363 8.00251 19.0047L7.99958 11.9998C8.00201 9.87887 8.84565 7.84545 10.3454 6.3457C11.8452 4.84594 13.8786 4.00231 15.9996 3.99989ZM5.99959 17.8358C5.41496 17.6305 4.90854 17.2487 4.55027 16.7431C4.192 16.2375 3.99957 15.6332 3.99957 15.0136C3.99957 14.3939 4.192 13.7896 4.55027 13.284C4.90854 12.7785 5.41496 12.3966 5.99959 12.1913V17.8358Z" fill="black"/>
<path d="M25.0543 18.0057C24.7909 17.9781 24.5272 18.0556 24.3206 18.2212C24.114 18.3869 23.9811 18.6274 23.9508 18.8905C23.7848 20.3934 23.1948 21.8181 22.2497 22.9984C21.3045 24.1787 20.0432 25.0658 18.613 25.5563C18.2699 24.9428 17.7214 24.47 17.0641 24.2211C16.4068 23.9722 15.6827 23.9632 15.0194 24.1956C14.356 24.428 13.7959 24.8869 13.4376 25.4916C13.0793 26.0963 12.9458 26.808 13.0606 27.5014C13.1754 28.1949 13.5311 28.8256 14.0652 29.2826C14.5992 29.7396 15.2773 29.9935 15.9802 29.9998C16.683 30.006 17.3655 29.7641 17.9076 29.3167C18.4496 28.8693 18.8165 28.245 18.9436 27.5537C20.8072 26.9836 22.4629 25.88 23.7061 24.3793C24.9494 22.8785 25.7256 21.0464 25.939 19.1093C25.9534 18.9787 25.942 18.8466 25.9053 18.7205C25.8686 18.5943 25.8075 18.4767 25.7253 18.3742C25.6432 18.2717 25.5416 18.1864 25.4265 18.1232C25.3113 18.06 25.1848 18.0201 25.0543 18.0057ZM15.9996 27.9999C15.8018 27.9999 15.6085 27.9412 15.444 27.8314C15.2796 27.7215 15.1514 27.5653 15.0757 27.3826C15 27.1998 14.9802 26.9988 15.0188 26.8048C15.0574 26.6108 15.1526 26.4326 15.2925 26.2928C15.4323 26.1529 15.6105 26.0577 15.8045 26.0191C15.9985 25.9805 16.1995 26.0003 16.3823 26.076C16.565 26.1517 16.7212 26.2799 16.8311 26.4443C16.9409 26.6088 16.9996 26.8021 16.9996 26.9999C16.9994 27.265 16.894 27.5193 16.7065 27.7068C16.519 27.8943 16.2647 27.9997 15.9996 27.9999Z" fill="black"/>
</svg>
