<svg xmlns="http://www.w3.org/2000/svg" width="32" height="32" viewBox="0 0 32 32"><path d="M16 3.49976C16.315 3.49976 16.631 3.51676 16.945 3.55176C17.0766 3.56447 17.208 3.52527 17.3111 3.44252C17.4142 3.35976 17.4809 3.24 17.497 3.10876C17.5113 2.97695 17.4727 2.84486 17.3896 2.74153C17.3065 2.6382 17.1858 2.5721 17.054 2.55776C14.6229 2.2899 12.182 2.96838 10.2379 4.45241C8.29374 5.93644 6.99565 8.11206 6.61301 10.5278C5.45606 10.6256 4.38175 11.167 3.61482 12.0387C2.84789 12.9104 2.44776 14.045 2.49814 15.2049C2.54851 16.3649 3.0455 17.4605 3.88512 18.2624C4.72473 19.0644 5.84194 19.5106 7.00301 19.5078C7.06879 19.5079 7.13395 19.495 7.19474 19.4699C7.25553 19.4447 7.31075 19.4078 7.35721 19.3613C7.40368 19.3147 7.44049 19.2594 7.46551 19.1986C7.49053 19.1377 7.50328 19.0725 7.50301 19.0068L7.50001 11.9998C7.50266 9.74623 8.39904 7.58576 9.99253 5.99227C11.586 4.39879 13.7465 3.5024 16 3.49976ZM6.50001 18.4718C5.66737 18.351 4.90618 17.9341 4.35607 17.2975C3.80595 16.6609 3.50379 15.8473 3.50501 15.0059C3.50622 14.1646 3.81073 13.3519 4.36268 12.7169C4.91464 12.0818 5.67702 11.6671 6.51001 11.5488L6.50001 18.4718ZM25 18.5028C24.8684 18.4892 24.7368 18.528 24.6335 18.6107C24.5302 18.6934 24.4636 18.8134 24.448 18.9448C24.2642 20.6191 23.5858 22.2007 22.4993 23.4878C21.4129 24.775 19.9677 25.7094 18.348 26.1718C18.1431 25.587 17.7285 25.0991 17.1844 24.8026C16.6403 24.5061 16.0056 24.4221 15.4031 24.5669C14.8006 24.7118 14.2734 25.0751 13.9235 25.5865C13.5736 26.0979 13.4261 26.7209 13.5094 27.3349C13.5927 27.9489 13.9009 28.5101 14.3744 28.9098C14.8479 29.3095 15.4529 29.5192 16.0722 29.4982C16.6914 29.4773 17.2809 29.2272 17.7263 28.7965C18.1717 28.3657 18.4414 27.785 18.483 27.1668C20.3245 26.6719 21.9739 25.6329 23.2155 24.1856C24.457 22.7383 25.233 20.9501 25.442 19.0548C25.4492 18.9895 25.4435 18.9234 25.4252 18.8604C25.4069 18.7973 25.3764 18.7385 25.3353 18.6872C25.2943 18.6359 25.2436 18.5933 25.186 18.5616C25.1285 18.53 25.0653 18.51 25 18.5028ZM16 28.4998C15.6022 28.4998 15.2207 28.3417 14.9394 28.0604C14.658 27.7791 14.5 27.3976 14.5 26.9998C14.5 26.6019 14.658 26.2204 14.9394 25.9391C15.2207 25.6578 15.6022 25.4998 16 25.4998C16.3978 25.4998 16.7794 25.6578 17.0607 25.9391C17.342 26.2204 17.5 26.6019 17.5 26.9998C17.5 27.3976 17.342 27.7791 17.0607 28.0604C16.7794 28.3417 16.3978 28.4998 16 28.4998ZM23 9.88876C23.1326 9.88876 23.2598 9.83608 23.3536 9.74231C23.4473 9.64854 23.5 9.52137 23.5 9.38876V7.44176C23.5 7.30915 23.4473 7.18197 23.3536 7.0882C23.2598 6.99444 23.1326 6.94176 23 6.94176C22.8674 6.94176 22.7402 6.99444 22.6465 7.0882C22.5527 7.18197 22.5 7.30915 22.5 7.44176V9.38976C22.5 9.52237 22.5527 9.64954 22.6465 9.74331C22.7402 9.83708 22.8674 9.88976 23 9.88976V9.88876ZM23 11.7498C23.1326 11.7498 23.2598 11.6971 23.3536 11.6033C23.4473 11.5095 23.5 11.3824 23.5 11.2498C23.5 11.1171 23.4473 10.99 23.3536 10.8962C23.2598 10.8024 23.1326 10.7498 23 10.7498C22.8674 10.7498 22.7402 10.8024 22.6465 10.8962C22.5527 10.99 22.5 11.1171 22.5 11.2498C22.5 11.3824 22.5527 11.5095 22.6465 11.6033C22.7402 11.6971 22.8674 11.7498 23 11.7498Z M29.2999 12.254L24.3139 3.25402L24.3079 3.24402C24.1771 3.01682 23.9885 2.8283 23.7612 2.69762C23.5339 2.56695 23.2761 2.49877 23.0139 2.50002C22.7497 2.49918 22.49 2.56844 22.2612 2.70072C22.0325 2.83301 21.843 3.02358 21.7119 3.25302L16.7059 12.244C16.5729 12.472 16.5024 12.731 16.5015 12.9949C16.5006 13.2589 16.5693 13.5183 16.7008 13.7472C16.8323 13.9761 17.0218 14.1662 17.2503 14.2984C17.4787 14.4305 17.738 14.5001 18.0019 14.5H27.9999C28.2627 14.4998 28.5208 14.4305 28.7484 14.2991C28.976 14.1678 29.1651 13.9789 29.2968 13.7514C29.4284 13.524 29.498 13.2659 29.4986 13.0031C29.4991 12.7403 29.4306 12.482 29.2999 12.254ZM28.4319 13.249C28.3892 13.3258 28.3264 13.3896 28.2504 13.4336C28.1743 13.4776 28.0878 13.5002 27.9999 13.499H18.0019C17.9138 13.5001 17.827 13.4775 17.7506 13.4335C17.6743 13.3895 17.6112 13.3258 17.5679 13.249C17.5226 13.1714 17.4993 13.083 17.5003 12.9932C17.5014 12.9034 17.5268 12.8155 17.5739 12.739L22.5809 3.74902C22.6245 3.67367 22.687 3.61103 22.7623 3.56732C22.8375 3.52361 22.9229 3.50034 23.01 3.49984C23.097 3.49933 23.1827 3.5216 23.2584 3.56444C23.3342 3.60727 23.3975 3.66918 23.4419 3.74402L28.4319 12.748C28.4769 12.8236 28.5006 12.91 28.5006 12.998C28.5006 13.086 28.4769 13.1724 28.4319 13.248V13.249Z"/></svg>