<svg width="32" height="32" viewBox="0 0 32 32" fill="none" xmlns="http://www.w3.org/2000/svg">
<path d="M24.543 23.128C25.1507 22.1391 25.5793 21.0508 25.809 19.913C26.9782 19.7286 28.0431 19.1331 28.8122 18.2335C29.5814 17.3339 30.0043 16.1893 30.0047 15.0057C30.0052 13.8221 29.5833 12.6772 28.8149 11.777C28.0465 10.8768 26.982 10.2804 25.813 10.095C25.4396 8.15994 24.502 6.37861 23.1183 4.97536C21.7345 3.5721 19.9664 2.60967 18.0368 2.20926C16.1071 1.80885 14.1021 1.98837 12.2743 2.72521C10.4464 3.46205 8.87749 4.72326 7.76502 6.35002L4.70702 3.29302C4.51842 3.11086 4.26582 3.01006 4.00362 3.01234C3.74142 3.01462 3.49061 3.11979 3.3052 3.3052C3.11979 3.49061 3.01463 3.74142 3.01235 4.00361C3.01007 4.26581 3.11086 4.51841 3.29302 4.70702L27.293 28.707C27.4807 28.8945 27.7351 28.9998 28.0004 28.9997C28.2656 28.9996 28.52 28.8942 28.7075 28.7065C28.895 28.5189 29.0003 28.2644 29.0002 27.9992C29.0001 27.7339 28.8947 27.4795 28.707 27.292L24.543 23.128ZM26 12.203C26.5843 12.4027 27.0915 12.78 27.4507 13.2823C27.8098 13.7846 28.0029 14.3866 28.0029 15.004C28.0029 15.6215 27.8098 16.2235 27.4507 16.7257C27.0915 17.228 26.5843 17.6054 26 17.805V12.204V12.203ZM16 4.00002C18.1209 4.00266 20.1542 4.84637 21.654 6.34608C23.1537 7.8458 23.9974 9.8791 24 12V18C24 19.28 23.685 20.54 23.085 21.67L9.20902 7.79402C9.92398 6.63544 10.9231 5.67877 12.1116 5.01477C13.3001 4.35077 14.6386 4.00147 16 4.00002V4.00002ZM5.91302 10.154C4.71082 10.4179 3.64875 11.1173 2.93133 12.1174C2.21391 13.1176 1.89186 14.3478 2.02718 15.5711C2.1625 16.7945 2.74564 17.9246 3.6643 18.7437C4.58296 19.5629 5.7722 20.0132 7.00302 20.008C7.1346 20.008 7.26488 19.9821 7.3864 19.9316C7.50792 19.8812 7.61829 19.8072 7.71119 19.7141C7.80409 19.6209 7.87769 19.5103 7.92776 19.3886C7.97784 19.2669 8.00342 19.1366 8.00302 19.005L8.00002 12.242L5.91302 10.154ZM6.00002 17.837C5.41556 17.6314 4.90933 17.2495 4.55122 16.7439C4.19311 16.2384 4.00077 15.6341 4.00077 15.0145C4.00077 14.395 4.19311 13.7907 4.55122 13.2851C4.90933 12.7795 5.41556 12.3976 6.00002 12.192V17.837ZM18.612 25.553C18.2683 24.9402 17.7196 24.4683 17.0623 24.2201C16.405 23.972 15.6812 23.9636 15.0184 24.1964C14.3555 24.4291 13.7959 24.8882 13.438 25.4928C13.0802 26.0974 12.947 26.8089 13.0619 27.502C13.1768 28.1951 13.5324 28.8255 14.0661 29.2823C14.5999 29.7391 15.2777 29.9931 15.9802 29.9996C16.6828 30.006 17.3651 29.7646 17.9072 29.3176C18.4493 28.8707 18.8164 28.2469 18.944 27.556C19.9841 27.2273 20.9629 26.7293 21.841 26.082L20.401 24.642C19.8451 25.0196 19.2437 25.3253 18.611 25.552L18.612 25.553ZM16 28C15.7348 28 15.4805 27.8947 15.2929 27.7071C15.1054 27.5196 15 27.2652 15 27C15 26.7348 15.1054 26.4804 15.2929 26.2929C15.4805 26.1054 15.7348 26 16 26C16.2652 26 16.5196 26.1054 16.7071 26.2929C16.8947 26.4804 17 26.7348 17 27C17 27.2652 16.8947 27.5196 16.7071 27.7071C16.5196 27.8947 16.2652 28 16 28Z" fill="#0F0F0F"/>
</svg>
