<svg width="32" height="32" viewBox="0 0 32 32" xmlns="http://www.w3.org/2000/svg"><path d="M3.47 3.47a.75.75 0 0 1 1.06 0l5.126 5.126a9.75 9.75 0 0 1 16.07 6.709 4.751 4.751 0 0 1 .026 9.386l2.778 2.779a.75.75 0 1 1-1.06 1.06l-.944-.944a.744.744 0 0 0-.096-.116L3.374 4.414a.75.75 0 0 1 .096-.944Zm20.78 19.72V16a8.25 8.25 0 0 0-13.53-6.34l13.53 13.53Zm4-3.19a3.251 3.251 0 0 0-2.5-3.163v6.326A3.251 3.251 0 0 0 28.25 20ZM7.709 10.87a9.751 9.751 0 0 0-1.434 4.435A4.751 4.751 0 0 0 7 24.75a.75.75 0 0 0 .75-.75v-8a8.25 8.25 0 0 1 1.054-4.035L7.71 10.87ZM6.25 16.837v6.326a3.251 3.251 0 0 1 0-6.326Z"/></svg>