<svg width="32" height="32" viewBox="0 0 32 32" xmlns="http://www.w3.org/2000/svg"><path d="M3 20a4 4 0 0 0 4 4v-8a4 4 0 0 0-4 4Z"/><path d="M7 24v1a1 1 0 0 0 1-1H7Zm0-8h1v-1H7v1Zm0 7a3 3 0 0 1-3-3H2a5 5 0 0 0 5 5v-2Zm-3-3a3 3 0 0 1 3-3v-2a5 5 0 0 0-5 5h2Zm2-4v8h2v-8H6ZM29 20a4 4 0 0 1-4 4v-8a4 4 0 0 1 4 4Z"/><path d="M25 24v1a1 1 0 0 1-1-1h1Zm0-8h-1a1 1 0 0 1 1-1v1Zm0 7a3 3 0 0 0 3-3h2a5 5 0 0 1-5 5v-2Zm3-3a3 3 0 0 0-3-3v-2a5 5 0 0 1 5 5h-2Zm-2-4v8h-2v-8h2Z"/><path d="M7 24v-8a9 9 0 0 1 18 0v8" stroke-width="2" stroke-linecap="round" stroke-linejoin="round"/></svg>