<svg width="32" height="32" viewBox="0 0 32 32" fill="none" xmlns="http://www.w3.org/2000/svg">
<path d="M23.9999 13.7501C25.1371 13.7501 26.2489 13.4128 27.1944 12.781C28.14 12.1492 28.877 11.2512 29.3122 10.2005C29.7474 9.14981 29.8613 7.99368 29.6394 6.87829C29.4176 5.7629 28.8699 4.73835 28.0658 3.9342C27.2616 3.13004 26.2371 2.58241 25.1217 2.36054C24.0063 2.13868 22.8502 2.25255 21.7995 2.68775C20.7488 3.12296 19.8508 3.85995 19.219 4.80553C18.5871 5.75111 18.2499 6.86282 18.2499 8.00006C18.2515 9.52456 18.8578 10.9862 19.9358 12.0641C21.0138 13.1421 22.4754 13.7485 23.9999 13.7501ZM23.9999 12.2501C23.0044 12.248 22.0411 11.8965 21.2782 11.2569C20.5154 10.6172 20.0013 9.73001 19.8257 8.75006H28.1741C27.9985 9.73001 27.4844 10.6172 26.7216 11.2569C25.9587 11.8965 24.9955 12.248 23.9999 12.2501ZM23.9999 3.75006C24.9955 3.75209 25.9587 4.1036 26.7216 4.74326C27.4844 5.38291 27.9985 6.27011 28.1741 7.25006H19.8257C20.0013 6.27011 20.5154 5.38292 21.2782 4.74326C22.0411 4.1036 23.0044 3.75209 23.9999 3.75006Z" fill="black"/>
<path d="M16.7499 3.00006C16.7499 2.80116 16.6708 2.61043 16.5302 2.46979C16.3895 2.32914 16.1988 2.25011 15.9999 2.25006C13.7106 2.25301 11.4951 3.0601 9.74031 4.53037C7.98554 6.00064 6.80303 8.04063 6.39933 10.2941C5.20152 10.446 4.10663 11.0487 3.33753 11.9795C2.56842 12.9102 2.1829 14.0991 2.25943 15.3041C2.33596 16.5091 2.8688 17.6396 3.74948 18.4656C4.63016 19.2916 5.7925 19.7509 6.99991 19.7501C7.1988 19.7501 7.38954 19.671 7.53018 19.5304C7.67083 19.3897 7.74986 19.199 7.74991 19.0001V12.0001C7.75246 9.81286 8.62248 7.71592 10.1691 6.1693C11.7157 4.62268 13.8127 3.75267 15.9999 3.75011C16.1988 3.75006 16.3896 3.67102 16.5302 3.53037C16.6708 3.38972 16.7499 3.19897 16.7499 3.00006ZM6.24991 18.1632C5.5383 17.9955 4.9042 17.5923 4.45043 17.0191C3.99665 16.4458 3.74981 15.7361 3.74993 15.005C3.75004 14.2739 3.99711 13.5643 4.45106 12.9912C4.90502 12.4181 5.53925 12.0152 6.25091 11.8477L6.24991 18.1632Z" fill="black"/>
<path d="M28.8368 16.3536C28.752 16.3035 28.658 16.2706 28.5604 16.2568C28.4628 16.243 28.3635 16.2486 28.2681 16.2733C28.1726 16.298 28.083 16.3412 28.0043 16.4006C27.9256 16.4599 27.8594 16.5342 27.8095 16.6192C27.584 16.9994 27.2853 17.331 26.9306 17.5948C26.5759 17.8586 26.1724 18.0493 25.7434 18.1559C25.7442 18.1036 25.7499 18.0525 25.7499 18.0001V17.0079C25.7499 16.809 25.6709 16.6182 25.5302 16.4776C25.3896 16.3369 25.1988 16.2579 24.9999 16.2579C24.801 16.2579 24.6102 16.3369 24.4696 16.4776C24.3289 16.6182 24.2499 16.809 24.2499 17.0079V18.0001C24.2475 19.751 23.6889 21.456 22.6548 22.869C21.6206 24.282 20.1644 25.33 18.4961 25.8618C18.2236 25.2546 17.7408 24.7667 17.1367 24.4875C16.5326 24.2084 15.8479 24.1571 15.2089 24.343C14.5699 24.529 14.0197 24.9396 13.6597 25.4993C13.2997 26.059 13.1541 26.73 13.2499 27.3885C13.3456 28.0471 13.6762 28.6489 14.1807 29.0828C14.6852 29.5168 15.3296 29.7538 15.9951 29.7501C16.6606 29.7464 17.3023 29.5022 17.8019 29.0626C18.3015 28.623 18.6253 28.0176 18.7137 27.358C20.4581 26.8489 22.0261 25.8638 23.2417 24.5132C24.4574 23.1626 25.2727 21.5 25.596 19.7119C26.3181 19.6118 27.0083 19.3503 27.6154 18.9467C28.2224 18.5432 28.7307 18.008 29.1024 17.3809C29.2032 17.2094 29.2318 17.0049 29.182 16.8123C29.1322 16.6197 29.0081 16.4548 28.8368 16.3536ZM15.9999 28.2501C15.7527 28.2501 15.511 28.1767 15.3054 28.0394C15.0999 27.902 14.9397 27.7068 14.8451 27.4784C14.7504 27.25 14.7257 26.9987 14.7739 26.7562C14.8222 26.5137 14.9412 26.291 15.116 26.1162C15.2908 25.9414 15.5136 25.8223 15.756 25.7741C15.9985 25.7258 16.2499 25.7506 16.4783 25.8452C16.7067 25.9398 16.9019 26.1 17.0392 26.3056C17.1766 26.5112 17.2499 26.7528 17.2499 27.0001C17.2496 27.3315 17.1178 27.6493 16.8834 27.8836C16.6491 28.118 16.3313 28.2498 15.9999 28.2501Z" fill="black"/>
</svg>
