<svg width="32" height="32" viewBox="0 0 32 32" fill="none" xmlns="http://www.w3.org/2000/svg">
<path d="M15.9996 3.49989C16.3154 3.49982 16.631 3.5171 16.9449 3.55165C17.0764 3.5642 17.2075 3.52502 17.3105 3.44242C17.4136 3.35982 17.4803 3.24031 17.4967 3.10927C17.5111 2.97745 17.4727 2.84527 17.3897 2.74181C17.3067 2.63834 17.1861 2.57205 17.0543 2.55751C16.704 2.51901 16.3519 2.49978 15.9996 2.49989C13.7357 2.50279 11.5471 3.31268 9.82666 4.78413C8.10624 6.25558 6.96676 8.29219 6.61287 10.5282C5.45712 10.6275 4.3844 11.1694 3.61874 12.0408C2.85309 12.9123 2.4537 14.0458 2.50399 15.2047C2.55428 16.3636 3.05036 17.4583 3.88862 18.2601C4.72688 19.062 5.84252 19.5089 7.00252 19.5077C7.06832 19.5079 7.13351 19.4951 7.19433 19.47C7.25515 19.4448 7.31039 19.4079 7.35688 19.3614C7.40336 19.3148 7.44016 19.2595 7.46516 19.1986C7.49015 19.1377 7.50285 19.0725 7.50252 19.0067L7.49959 11.9999C7.50228 9.74636 8.39868 7.58591 9.99215 5.99244C11.5856 4.39897 13.7461 3.50257 15.9996 3.49989ZM6.50059 18.4716C5.66686 18.3522 4.90423 17.9359 4.35293 17.2992C3.80163 16.6625 3.49872 15.8481 3.49991 15.0059C3.5011 14.1637 3.8063 13.3502 4.35939 12.715C4.91248 12.0798 5.67628 11.6657 6.51035 11.5487L6.50059 18.4716Z" fill="black"/>
<path d="M24.9996 18.5028C24.868 18.4893 24.7363 18.5282 24.6331 18.6109C24.5298 18.6937 24.4633 18.8138 24.4478 18.9452C24.2639 20.6195 23.5855 22.2011 22.4991 23.4882C21.4127 24.7754 19.9676 25.7098 18.348 26.1724C18.1432 25.5875 17.7287 25.0994 17.1846 24.8028C16.6406 24.5061 16.0057 24.422 15.4032 24.5667C14.8006 24.7113 14.2732 25.0746 13.9232 25.5859C13.5732 26.0973 13.4255 26.7204 13.5086 27.3345C13.5918 27.9485 13.9 28.5099 14.3734 28.9097C14.8469 29.3095 15.4519 29.5193 16.0712 29.4985C16.6906 29.4777 17.2801 29.2277 17.7257 28.797C18.1712 28.3663 18.441 27.7855 18.4827 27.1673C20.3244 26.6724 21.9739 25.6333 23.2155 24.1859C24.4571 22.7385 25.2331 20.9501 25.442 19.0546C25.4564 18.9228 25.418 18.7906 25.335 18.6871C25.2521 18.5837 25.1314 18.5174 24.9996 18.5028ZM15.9996 28.4999C15.7029 28.4999 15.4129 28.4119 15.1662 28.2471C14.9196 28.0823 14.7273 27.848 14.6138 27.5739C14.5002 27.2998 14.4705 26.9982 14.5284 26.7073C14.5863 26.4163 14.7292 26.149 14.9389 25.9392C15.1487 25.7295 15.416 25.5866 15.707 25.5287C15.9979 25.4708 16.2995 25.5005 16.5736 25.6141C16.8477 25.7276 17.082 25.9199 17.2468 26.1665C17.4116 26.4132 17.4996 26.7032 17.4996 26.9999C17.4992 27.3976 17.341 27.7789 17.0598 28.0601C16.7786 28.3413 16.3973 28.4995 15.9996 28.4999Z" fill="black"/>
<path d="M22.9996 9.88857C23.0653 9.88861 23.1303 9.8757 23.191 9.85058C23.2517 9.82547 23.3068 9.78864 23.3532 9.74221C23.3997 9.69577 23.4365 9.64063 23.4616 9.57996C23.4867 9.51928 23.4996 9.45424 23.4996 9.38857V7.44228C23.4996 7.30967 23.4469 7.18249 23.3531 7.08873C23.2594 6.99496 23.1322 6.94228 22.9996 6.94228C22.867 6.94228 22.7398 6.99496 22.646 7.08873C22.5523 7.18249 22.4996 7.30967 22.4996 7.44228V9.38857C22.4996 9.45424 22.5125 9.51928 22.5376 9.57996C22.5627 9.64063 22.5995 9.69577 22.646 9.74221C22.6924 9.78864 22.7475 9.82547 22.8082 9.85058C22.8689 9.8757 22.9339 9.88861 22.9996 9.88857Z" fill="black"/>
<path d="M23 11.75C23.2761 11.75 23.5 11.5261 23.5 11.25C23.5 10.9738 23.2761 10.75 23 10.75C22.7238 10.75 22.5 10.9738 22.5 11.25C22.5 11.5261 22.7238 11.75 23 11.75Z" fill="black"/>
<path d="M29.3004 12.2538L24.314 3.2538L24.3082 3.244C24.1774 3.0168 23.9888 2.82827 23.7615 2.69757C23.5342 2.56687 23.2764 2.49865 23.0142 2.49985C22.7502 2.49893 22.4896 2.56816 22.2611 2.70045C22.0325 2.83273 21.8432 3.02334 21.7125 3.25278L16.7057 12.244C16.5727 12.472 16.5023 12.7309 16.5014 12.9948C16.5006 13.2587 16.5693 13.5181 16.7008 13.7469C16.8322 13.9758 17.0217 14.1658 17.2501 14.298C17.4785 14.4302 17.7377 14.4998 18.0015 14.4999H27.9995C28.2624 14.4998 28.5207 14.4307 28.7485 14.2993C28.9762 14.168 29.1654 13.9792 29.2972 13.7517C29.4289 13.5242 29.4986 13.266 29.4991 13.0031C29.4997 12.7402 29.4312 12.4818 29.3004 12.2538ZM28.4322 13.2489C28.3895 13.3259 28.3267 13.3899 28.2505 13.4341C28.1743 13.4782 28.0876 13.501 27.9996 13.4999H18.0016C17.9134 13.5009 17.8266 13.4781 17.7503 13.434C17.674 13.3898 17.611 13.3259 17.568 13.2489C17.5228 13.1713 17.4995 13.083 17.5006 12.9932C17.5016 12.9035 17.5269 12.8157 17.5739 12.7392L22.5807 3.74892C22.6243 3.67361 22.6869 3.61102 22.7622 3.56734C22.8375 3.52367 22.9229 3.50043 23.0099 3.49993C23.097 3.49943 23.1826 3.5217 23.2584 3.56451C23.3342 3.60732 23.3975 3.66919 23.442 3.744L28.4312 12.7479C28.4766 12.8235 28.5006 12.9101 28.5008 12.9983C28.501 13.0865 28.4773 13.1731 28.4322 13.2489Z" fill="black"/>
</svg>
