<svg xmlns="http://www.w3.org/2000/svg" width="32" height="32" viewBox="0 0 32 32"><path d="M25.686 18.5209C27.123 17.0839 28.121 15.9269 28.682 15.0489C29.409 13.8909 29.773 12.6589 29.773 11.3529C29.773 9.84088 29.27 8.59888 28.262 7.62888C27.142 6.54588 25.667 6.00488 23.838 6.00488C22.251 6.00488 20.888 6.40688 19.749 7.20888C18.443 8.16088 17.659 9.47688 17.398 11.1569H19.021C19.171 10.0749 19.619 9.19688 20.365 8.52488C21.262 7.72288 22.4 7.32088 23.781 7.32088C25.051 7.32088 26.087 7.64788 26.89 8.30088C27.804 9.02888 28.262 10.0559 28.262 11.3809C28.262 12.3139 28.019 13.2109 27.533 14.0689C27.067 14.8909 26.189 15.9449 24.901 17.2329L17.621 24.6249V26.0249H29.745V24.6249H19.638L25.686 18.5209ZM12.998 6.25188C12.7991 6.25188 12.6084 6.3309 12.4677 6.47155C12.3271 6.61221 12.248 6.80297 12.248 7.00188V15.2519H3.74805V7.00188C3.74805 6.80297 3.66903 6.61221 3.52838 6.47155C3.38772 6.3309 3.19696 6.25188 2.99805 6.25188C2.79913 6.25188 2.60837 6.3309 2.46772 6.47155C2.32706 6.61221 2.24805 6.80297 2.24805 7.00188V25.0019C2.24805 25.2008 2.32706 25.3916 2.46772 25.5322C2.60837 25.6729 2.79913 25.7519 2.99805 25.7519C3.19696 25.7519 3.38772 25.6729 3.52838 25.5322C3.66903 25.3916 3.74805 25.2008 3.74805 25.0019V16.7519H12.248V25.0019C12.248 25.2008 12.3271 25.3916 12.4677 25.5322C12.6084 25.6729 12.7991 25.7519 12.998 25.7519C13.197 25.7519 13.3877 25.6729 13.5284 25.5322C13.669 25.3916 13.748 25.2008 13.748 25.0019V7.00188C13.748 6.80297 13.669 6.61221 13.5284 6.47155C13.3877 6.3309 13.197 6.25188 12.998 6.25188Z"/></svg>