<svg xmlns="http://www.w3.org/2000/svg" width="32" height="32" viewBox="0 0 32 32"><path d="M25.686 18.913C27.254 17.401 28.336 16.169 28.934 15.217C29.698 14.06 30.081 12.809 30.081 11.465C30.081 9.93495 29.559 8.67495 28.514 7.68495C27.355 6.56495 25.825 6.00495 23.922 6.00495C22.242 6.00495 20.814 6.44395 19.638 7.32095C18.294 8.29095 17.5 9.63595 17.258 11.353H19.47C19.6 10.327 20.02 9.49595 20.73 8.86095C21.532 8.13295 22.577 7.76895 23.865 7.76895C25.041 7.76895 25.993 8.06795 26.722 8.66495C27.542 9.33695 27.953 10.28 27.953 11.493C27.953 12.427 27.706 13.299 27.212 14.111C26.717 14.923 25.798 15.991 24.453 17.317L17.593 24.093V26.025H30.025V24.093H20.393L25.686 18.913ZM12.998 6.00195C12.7328 6.00195 12.4785 6.10731 12.2909 6.29485C12.1034 6.48238 11.998 6.73674 11.998 7.00195V15.002H3.99805V7.00195C3.99805 6.73674 3.89269 6.48238 3.70515 6.29485C3.51762 6.10731 3.26326 6.00195 2.99805 6.00195C2.73283 6.00195 2.47848 6.10731 2.29094 6.29485C2.1034 6.48238 1.99805 6.73674 1.99805 7.00195V25.002C1.99805 25.2672 2.1034 25.5215 2.29094 25.7091C2.47848 25.8966 2.73283 26.002 2.99805 26.002C3.26326 26.002 3.51762 25.8966 3.70515 25.7091C3.89269 25.5215 3.99805 25.2672 3.99805 25.002V17.002H11.998V25.002C11.998 25.2672 12.1034 25.5215 12.2909 25.7091C12.4785 25.8966 12.7328 26.002 12.998 26.002C13.2633 26.002 13.5176 25.8966 13.7052 25.7091C13.8927 25.5215 13.998 25.2672 13.998 25.002V7.00195C13.998 6.73674 13.8927 6.48238 13.7052 6.29485C13.5176 6.10731 13.2633 6.00195 12.998 6.00195Z"/></svg>