<svg width="32" height="32" viewBox="0 0 32 32" fill="none" xmlns="http://www.w3.org/2000/svg">
<path d="M23.9999 13.5001C25.0877 13.5001 26.151 13.1775 27.0555 12.5731C27.96 11.9688 28.6649 11.1098 29.0812 10.1048C29.4975 9.09983 29.6064 7.99396 29.3942 6.92706C29.182 5.86017 28.6581 4.88016 27.8889 4.11097C27.1198 3.34178 26.1397 2.81796 25.0728 2.60574C24.006 2.39352 22.9001 2.50244 21.8951 2.91872C20.8901 3.335 20.0311 4.03995 19.4268 4.94442C18.8224 5.84889 18.4999 6.91226 18.4999 8.00006C18.5017 9.45819 19.0817 10.8561 20.1128 11.8871C21.1438 12.9182 22.5417 13.4982 23.9999 13.5001ZM23.9999 3.50006C25.1035 3.50349 26.1671 3.91323 26.9878 4.65103C27.8086 5.38884 28.3288 6.40306 28.4493 7.50006H19.5504C19.6709 6.40306 20.1912 5.38885 21.0119 4.65104C21.8326 3.91323 22.8963 3.5035 23.9999 3.50006ZM28.4493 8.50006C28.3321 9.5984 27.8129 10.6146 26.9914 11.353C26.17 12.0915 25.1044 12.5 23.9999 12.5C22.8953 12.5 21.8297 12.0915 21.0083 11.353C20.1869 10.6146 19.6676 9.5984 19.5504 8.50006H28.4493Z" fill="black"/>
<path d="M16.4999 3.00006C16.4999 2.93439 16.487 2.86935 16.4619 2.80867C16.4368 2.748 16.3999 2.69286 16.3535 2.64642C16.3071 2.59999 16.2519 2.56316 16.1912 2.53805C16.1306 2.51293 16.0655 2.50002 15.9999 2.50006C13.7374 2.50282 11.55 3.31171 9.83006 4.7816C8.11014 6.2515 6.97032 8.28618 6.61509 10.5206C5.45936 10.6193 4.38643 11.1606 3.62037 12.0316C2.85431 12.9026 2.45435 14.0358 2.50401 15.1947C2.55366 16.3536 3.0491 17.4485 3.88686 18.2507C4.72461 19.053 5.83991 19.5006 6.99985 19.5001C7.06552 19.5001 7.13056 19.4872 7.19124 19.4621C7.25192 19.437 7.30705 19.4001 7.35349 19.3537C7.39993 19.3073 7.43676 19.2521 7.46187 19.1914C7.48698 19.1308 7.49989 19.0657 7.49985 19.0001V12.0001C7.50254 9.74654 8.39893 7.58609 9.99241 5.99262C11.5859 4.39914 13.7463 3.50274 15.9999 3.50006C16.0655 3.5001 16.1306 3.48719 16.1912 3.46208C16.2519 3.43696 16.3071 3.40014 16.3535 3.3537C16.3999 3.30726 16.4368 3.25213 16.4619 3.19145C16.487 3.13077 16.4999 3.06573 16.4999 3.00006ZM6.49985 18.4649C5.66614 18.3453 4.90363 17.9287 4.35247 17.2919C3.80132 16.655 3.49857 15.8406 3.49988 14.9983C3.50119 14.1561 3.80647 13.3426 4.35959 12.7074C4.91272 12.0723 5.67653 11.6581 6.5106 11.5411L6.49985 18.4649Z" fill="black"/>
<path d="M28.7098 16.5694C28.6533 16.536 28.5907 16.5141 28.5257 16.5049C28.4607 16.4957 28.3945 16.4994 28.3309 16.5158C28.2673 16.5322 28.2076 16.561 28.1551 16.6005C28.1027 16.6401 28.0585 16.6896 28.0252 16.7462C27.7544 17.2027 27.3856 17.5935 26.9455 17.8904C26.5054 18.1873 26.005 18.3829 25.4802 18.4632C25.4878 18.309 25.4999 18.1561 25.4999 18.0001V17.0079C25.4999 16.8753 25.4472 16.7481 25.3534 16.6543C25.2597 16.5606 25.1325 16.5079 24.9999 16.5079C24.8673 16.5079 24.7401 16.5606 24.6463 16.6543C24.5526 16.7481 24.4999 16.8753 24.4999 17.0079V18.0001C24.4968 19.8438 23.895 21.6367 22.7851 23.1089C21.6751 24.5811 20.1171 25.6531 18.3454 26.1635C18.1386 25.5793 17.7226 25.0933 17.1775 24.7985C16.6324 24.5037 15.9973 24.4217 15.3952 24.5684C14.7932 24.7152 14.267 25.0802 13.9187 25.5927C13.5704 26.1053 13.4247 26.7289 13.5099 27.3427C13.5951 27.9565 13.9052 28.5168 14.3799 28.9151C14.8547 29.3134 15.4604 29.5212 16.0797 29.4984C16.6989 29.4756 17.2877 29.2237 17.7319 28.7916C18.176 28.3594 18.444 27.7778 18.4838 27.1594C20.25 26.6777 21.84 25.697 23.0631 24.3348C24.2862 22.9726 25.0907 21.2866 25.3801 19.4789C26.0984 19.4098 26.7901 19.1723 27.3994 18.7857C28.0086 18.3991 28.5181 17.8744 28.8866 17.254C28.92 17.1975 28.942 17.1349 28.9513 17.0699C28.9605 17.0048 28.9568 16.9386 28.9404 16.875C28.9239 16.8114 28.8951 16.7517 28.8556 16.6992C28.816 16.6468 28.7665 16.6027 28.7098 16.5694ZM15.9998 28.5001C15.7031 28.5001 15.4131 28.4121 15.1665 28.2473C14.9198 28.0824 14.7275 27.8482 14.614 27.5741C14.5005 27.3 14.4708 26.9984 14.5286 26.7074C14.5865 26.4165 14.7294 26.1492 14.9392 25.9394C15.1489 25.7296 15.4162 25.5868 15.7072 25.5289C15.9981 25.471 16.2997 25.5007 16.5738 25.6142C16.8479 25.7278 17.0822 25.92 17.247 26.1667C17.4118 26.4134 17.4998 26.7034 17.4998 27.0001C17.4994 27.3977 17.3412 27.779 17.06 28.0602C16.7788 28.3414 16.3975 28.4996 15.9998 28.5001Z" fill="black"/>
</svg>
