<svg xmlns="http://www.w3.org/2000/svg" width="32" height="32" viewBox="0 0 32 32"><path d="M28.927 17.146C28.158 16.213 27.133 15.636 25.852 15.416C26.877 15.142 27.701 14.648 28.323 13.934C29.037 13.13 29.393 12.142 29.393 10.97C29.393 9.506 28.863 8.326 27.802 7.43C26.667 6.476 25.184 6 23.354 6C21.708 6 20.307 6.385 19.154 7.154C17.818 8.014 17.022 9.24 16.766 10.832H18.907C19.072 9.935 19.493 9.212 20.17 8.663C20.957 8.041 21.982 7.73 23.245 7.73C24.324 7.73 25.23 7.977 25.962 8.471C26.858 9.094 27.307 9.981 27.307 11.134C27.307 12.14 26.987 12.964 26.347 13.604C25.669 14.282 24.782 14.62 23.683 14.62H21.983V16.404H23.766C24.846 16.404 25.752 16.678 26.483 17.227C27.435 17.941 27.911 18.984 27.911 20.357C27.911 21.474 27.554 22.379 26.841 23.075C25.999 23.898 24.827 24.31 23.327 24.31C22.174 24.31 21.214 24.063 20.445 23.569C19.585 23.02 19.035 22.187 18.798 21.071H16.628C16.867 22.499 17.508 23.642 18.551 24.502C19.759 25.508 21.359 26.012 23.354 26.012C25.203 26.012 26.73 25.564 27.938 24.666C29.311 23.623 29.997 22.196 29.997 20.384C29.997 19.104 29.64 18.024 28.927 17.144V17.146ZM12.998 6.002C12.7328 6.002 12.4785 6.10736 12.2909 6.29489C12.1034 6.48243 11.998 6.73678 11.998 7.002V15.002H3.99805V7.002C3.99805 6.73678 3.89269 6.48243 3.70515 6.29489C3.51762 6.10736 3.26326 6.002 2.99805 6.002C2.73283 6.002 2.47848 6.10736 2.29094 6.29489C2.1034 6.48243 1.99805 6.73678 1.99805 7.002V25.002C1.99805 25.2672 2.1034 25.5216 2.29094 25.7091C2.47848 25.8966 2.73283 26.002 2.99805 26.002C3.26326 26.002 3.51762 25.8966 3.70515 25.7091C3.89269 25.5216 3.99805 25.2672 3.99805 25.002V17.002H11.998V25.002C11.998 25.2672 12.1034 25.5216 12.2909 25.7091C12.4785 25.8966 12.7328 26.002 12.998 26.002C13.2633 26.002 13.5176 25.8966 13.7052 25.7091C13.8927 25.5216 13.998 25.2672 13.998 25.002V7.002C13.998 6.73678 13.8927 6.48243 13.7052 6.29489C13.5176 6.10736 13.2633 6.002 12.998 6.002Z"/></svg>