<svg width="32" height="32" viewBox="0 0 32 32" fill="none" xmlns="http://www.w3.org/2000/svg">
<path d="M28.6248 17.1187C27.8562 16.1675 26.8221 15.6001 25.5232 15.417C26.6023 15.1426 27.4441 14.6577 28.0486 13.9624C28.7625 13.1572 29.1189 12.1416 29.1189 10.915C29.1189 9.5063 28.6248 8.3535 27.6365 7.4565C26.5388 6.4868 25.0838 6.0014 23.2722 6.0014C21.6618 6.0014 20.3074 6.3681 19.2097 7.0995C17.9285 7.9413 17.1511 9.1493 16.8757 10.723H18.4138C18.614 9.6981 19.0906 8.8836 19.8406 8.2796C20.701 7.6028 21.8172 7.264 23.1892 7.264C24.4158 7.264 25.4216 7.5482 26.2087 8.1151C27.1608 8.8109 27.6364 9.7894 27.6364 11.0521C27.6364 12.1136 27.3073 12.9833 26.6481 13.66C25.8981 14.4286 24.8727 14.8128 23.5739 14.8128H21.7077V16.1307H23.6833C24.9284 16.1307 25.944 16.4417 26.7302 17.0638C27.7009 17.8138 28.1853 18.9212 28.1853 20.3851C28.1853 21.6302 27.783 22.6458 26.9773 23.432C26.0623 24.3109 24.8093 24.7504 23.2175 24.7504C21.9724 24.7504 20.9294 24.4848 20.0876 23.9535C19.0808 23.35 18.4587 22.4535 18.2214 21.264H16.657C16.9129 22.6546 17.5623 23.7708 18.6052 24.6126C19.7947 25.5647 21.3318 26.0403 23.2175 26.0403C25.0105 26.0403 26.4929 25.5921 27.6638 24.6946C29.0183 23.6516 29.695 22.2063 29.695 20.3577C29.6951 19.0768 29.3387 17.9977 28.6248 17.1187Z" fill="black"/>
<path d="M12.9979 6.2521C12.5838 6.2521 12.2479 6.588 12.2479 7.0021V15.2521H3.74792V7.0021C3.74792 6.588 3.41202 6.2521 2.99792 6.2521C2.58382 6.2521 2.24792 6.588 2.24792 7.0021V25.0026C2.24792 25.4167 2.58382 25.7526 2.99792 25.7526C3.41202 25.7526 3.74792 25.4167 3.74792 25.0026V16.7516H12.2479V25.0026C12.2479 25.4167 12.5838 25.7526 12.9979 25.7526C13.412 25.7526 13.7479 25.4167 13.7479 25.0026V7.0021C13.7479 6.588 13.4119 6.2521 12.9979 6.2521Z" fill="black"/>
</svg>
