<svg xmlns="http://www.w3.org/2000/svg" width="32" height="32" viewBox="0 0 32 32"><path d="M29.9999 15.0082C29.9923 13.8273 29.5682 12.6871 28.8022 11.7883C28.0363 10.8895 26.9777 10.29 25.8129 10.0952C25.3712 7.81733 24.151 5.76401 22.3614 4.28716C20.5718 2.81032 18.3242 2.00191 16.0039 2.00049C13.6836 1.99907 11.435 2.80473 9.64361 4.27939C7.85218 5.75405 6.62944 7.80587 6.18495 10.0832C4.94735 10.288 3.83206 10.9508 3.06067 11.94C2.28928 12.9292 1.91825 14.1724 2.02129 15.4226C2.12432 16.6728 2.69389 17.8384 3.61683 18.688C4.53977 19.5376 5.74853 20.0088 7.00295 20.0082C7.13452 20.0082 7.2648 19.9822 7.38633 19.9318C7.50785 19.8814 7.61822 19.8074 7.71112 19.7142C7.80402 19.6211 7.87761 19.5105 7.92769 19.3888C7.97777 19.2671 8.00334 19.1368 8.00295 19.0052L7.99995 12.0002C7.99995 9.87847 8.8428 7.84364 10.3431 6.34335C11.8434 4.84306 13.8782 4.0002 15.9999 4.0002C18.1217 4.0002 20.1565 4.84306 21.6568 6.34335C23.1571 7.84364 23.9999 9.87847 23.9999 12.0002V18.0002C23.9971 19.6627 23.4769 21.2832 22.5114 22.6366C21.5459 23.9901 20.183 25.0094 18.6119 25.5532C18.2683 24.9404 17.7195 24.4685 17.0622 24.2203C16.4049 23.9722 15.6812 23.9638 15.0183 24.1965C14.3554 24.4293 13.7958 24.8884 13.438 25.493C13.0801 26.0976 12.9469 26.809 13.0618 27.5022C13.1767 28.1953 13.5323 28.8257 14.0661 29.2825C14.5999 29.7393 15.2776 29.9933 15.9802 29.9998C16.6827 30.0062 17.365 29.7647 17.9071 29.3178C18.4492 28.8709 18.8163 28.2471 18.9439 27.5562C20.671 27.0195 22.2208 26.0258 23.4293 24.6804C24.6378 23.3349 25.46 21.6877 25.8089 19.9132C26.9734 19.7203 28.0323 19.1224 28.7991 18.2251C29.5658 17.3277 29.9911 16.1885 29.9999 15.0082ZM5.99995 17.8372C5.41549 17.6316 4.90926 17.2497 4.55115 16.7441C4.19303 16.2385 4.0007 15.6343 4.0007 15.0147C4.0007 14.3951 4.19303 13.7909 4.55115 13.2853C4.90926 12.7797 5.41549 12.3978 5.99995 12.1922V17.8372ZM15.9999 28.0002C15.7347 28.0002 15.4804 27.8948 15.2928 27.7073C15.1053 27.5198 14.9999 27.2654 14.9999 27.0002C14.9999 26.735 15.1053 26.4806 15.2928 26.2931C15.4804 26.1056 15.7347 26.0002 15.9999 26.0002C16.2652 26.0002 16.5195 26.1056 16.7071 26.2931C16.8946 26.4806 16.9999 26.735 16.9999 27.0002C16.9999 27.2654 16.8946 27.5198 16.7071 27.7073C16.5195 27.8948 16.2652 28.0002 15.9999 28.0002ZM25.9999 17.8052V12.2032C26.5842 12.4029 27.0915 12.7802 27.4506 13.2825C27.8098 13.7847 28.0029 14.3867 28.0029 15.0042C28.0029 15.6217 27.8098 16.2237 27.4506 16.7259C27.0915 17.2282 26.5842 17.6056 25.9999 17.8052Z"/></svg>