<svg width="32" height="32" viewBox="0 0 32 32" fill="none" xmlns="http://www.w3.org/2000/svg">
<path d="M29.5004 15.0083C29.491 13.8856 29.0633 12.8068 28.3009 11.9826C27.5385 11.1584 26.4962 10.6481 25.3776 10.5513C25.0334 8.31155 23.8995 6.26876 22.1806 4.79207C20.4618 3.31538 18.2714 2.50221 16.0053 2.49949C13.7393 2.49677 11.547 3.30468 9.82456 4.77724C8.10217 6.2498 6.96329 8.28986 6.61372 10.5288C5.45804 10.6281 4.38539 11.17 3.61976 12.0414C2.85413 12.9127 2.45473 14.0462 2.50495 15.2051C2.55518 16.3639 3.05114 17.4586 3.88929 18.2604C4.72743 19.0623 5.84294 19.5094 7.00288 19.5083C7.06866 19.5084 7.1338 19.4955 7.19457 19.4703C7.25534 19.4452 7.31054 19.4083 7.357 19.3617C7.40346 19.3152 7.44026 19.2599 7.4653 19.1991C7.49034 19.1382 7.50311 19.0731 7.50288 19.0073L7.49995 11.9995C7.49995 9.74515 8.39549 7.58314 9.98955 5.98908C11.5836 4.39502 13.7456 3.49949 16 3.49949C18.2543 3.49949 20.4163 4.39502 22.0104 5.98908C23.6044 7.58314 24.5 9.74515 24.5 11.9995V17.9995C24.4969 19.8433 23.8952 21.6362 22.7852 23.1085C21.6753 24.5807 20.1172 25.6527 18.3454 26.163C18.1385 25.5789 17.7221 25.0925 17.177 24.7978C16.6319 24.5032 15.9969 24.4214 15.3949 24.5683C14.7929 24.7152 14.2669 25.0803 13.9187 25.5928C13.5705 26.1054 13.425 26.7289 13.5103 27.3427C13.5956 27.9564 13.9057 28.5166 14.3805 28.9148C14.8553 29.3129 15.461 29.5207 16.0802 29.4978C16.6994 29.4749 17.288 29.223 17.7321 28.7909C18.1762 28.3587 18.4441 27.7771 18.4838 27.1588C20.2538 26.6761 21.8465 25.6922 23.0705 24.3257C24.2945 22.9591 25.0976 21.268 25.3831 19.4557C26.4995 19.3589 27.5397 18.8496 28.3009 18.0274C29.0621 17.2051 29.4898 16.1288 29.5004 15.0083ZM6.50141 18.4722C5.66756 18.3531 4.90476 17.9369 4.3533 17.3002C3.80185 16.6635 3.49882 15.8491 3.49995 15.0067C3.50107 14.1644 3.80629 13.3508 4.35945 12.7156C4.91261 12.0804 5.67653 11.6662 6.51069 11.5493L6.50141 18.4722ZM16 28.4995C15.7033 28.4995 15.4133 28.4116 15.1666 28.2467C14.9199 28.0819 14.7277 27.8477 14.6141 27.5736C14.5006 27.2995 14.4709 26.9979 14.5288 26.7069C14.5867 26.4159 14.7295 26.1487 14.9393 25.9389C15.1491 25.7291 15.4163 25.5862 15.7073 25.5284C15.9983 25.4705 16.2999 25.5002 16.574 25.6137C16.8481 25.7273 17.0823 25.9195 17.2472 26.1662C17.412 26.4129 17.5 26.7029 17.5 26.9995C17.4995 27.3972 17.3413 27.7785 17.0601 28.0597C16.7789 28.3409 16.3976 28.4991 16 28.4995ZM25.481 18.4462C25.488 18.2974 25.5 18.15 25.5 17.9995V11.9995C25.5 11.8516 25.4845 11.7075 25.4778 11.5612C26.3134 11.6702 27.0809 12.0795 27.637 12.7126C28.1932 13.3458 28.5 14.1596 28.5004 15.0023C28.5008 15.845 28.1947 16.6591 27.6392 17.2927C27.0836 17.9264 26.3165 18.3364 25.481 18.4462Z" fill="black"/>
</svg>
