<svg width="32" height="32" viewBox="0 0 32 32" fill="none" xmlns="http://www.w3.org/2000/svg">
<path d="M23.919 23.2116C24.6718 22.0801 25.1702 20.7988 25.3801 19.4561C26.5017 19.3692 27.5491 18.8623 28.3131 18.0367C29.0771 17.211 29.5013 16.1275 29.501 15.0026C29.5007 13.8777 29.0758 12.7944 28.3114 11.9692C27.5469 11.1439 26.4992 10.6376 25.3776 10.5514C25.0839 8.61867 24.1996 6.82408 22.8459 5.41367C21.4922 4.00326 19.7354 3.04608 17.8163 2.67335C15.8972 2.30063 13.9098 2.5306 12.1266 3.33175C10.3433 4.13289 8.85155 5.46599 7.85572 7.14828L4.35347 3.646C4.2594 3.55381 4.13274 3.50246 4.00102 3.50313C3.8693 3.50379 3.74317 3.55641 3.65003 3.64955C3.55689 3.74269 3.50427 3.86883 3.5036 4.00055C3.50294 4.13226 3.55428 4.25892 3.64647 4.353L27.6464 28.3531C27.7405 28.4453 27.8672 28.4966 27.9989 28.4959C28.1306 28.4953 28.2567 28.4426 28.3499 28.3495C28.443 28.2564 28.4956 28.1302 28.4963 27.9985C28.497 27.8668 28.4456 27.7401 28.3534 27.6461L23.919 23.2116ZM28.501 15.0083C28.4923 15.8481 28.1826 16.6569 27.6283 17.2878C27.0739 17.9187 26.3116 18.3298 25.48 18.4464C25.4846 18.4794 25.4777 11.5612 25.4777 11.5612C26.3109 11.6786 27.0743 12.0911 27.6291 12.7237C28.1839 13.3563 28.4933 14.1669 28.501 15.0083ZM23.1971 22.4897L8.58723 7.87979C9.49817 6.23206 10.9312 4.93406 12.6607 4.19011C14.3903 3.44615 16.3181 3.2985 18.1408 3.77038C19.9635 4.24226 21.5775 5.30689 22.7287 6.79667C23.8799 8.28645 24.5031 10.1168 24.5 11.9995V17.9995C24.4992 19.5894 24.0475 21.1463 23.1971 22.4897Z" fill="black"/>
<path d="M6.96449 9.08591C6.80967 9.55688 6.69238 10.0394 6.61372 10.5288C5.45804 10.6281 4.38539 11.17 3.61976 12.0414C2.85413 12.9128 2.45473 14.0462 2.50495 15.2051C2.55518 16.3639 3.05114 17.4586 3.88929 18.2605C4.72743 19.0623 5.84294 19.5094 7.00288 19.5083C7.06866 19.5084 7.1338 19.4955 7.19457 19.4704C7.25534 19.4452 7.31054 19.4083 7.357 19.3617C7.40346 19.3152 7.44026 19.2599 7.4653 19.1991C7.49034 19.1383 7.50311 19.0731 7.50288 19.0073L7.49995 11.9995C7.50272 11.2895 7.59487 10.5827 7.77424 9.89566L6.96449 9.08591ZM6.50141 18.4722C5.66756 18.3531 4.90476 17.9369 4.3533 17.3002C3.80185 16.6635 3.49882 15.8491 3.49994 15.0067C3.50107 14.1644 3.80629 13.3508 4.35945 12.7156C4.91261 12.0804 5.67653 11.6662 6.51069 11.5494C6.50337 11.6978 6.50141 18.4722 6.50141 18.4722Z" fill="black"/>
<path d="M18.3455 26.1629C18.1387 25.5787 17.7226 25.0927 17.1775 24.7979C16.6324 24.5032 15.9973 24.4212 15.3953 24.5679C14.7932 24.7147 14.267 25.0797 13.9187 25.5922C13.5704 26.1048 13.4248 26.7284 13.51 27.3422C13.5952 27.956 13.9052 28.5163 14.38 28.9146C14.8548 29.3128 15.4605 29.5207 16.0798 29.4979C16.699 29.475 17.2878 29.2232 17.7319 28.791C18.1761 28.3589 18.444 27.7773 18.4838 27.1588C20.0522 26.7295 21.4844 25.9054 22.6438 24.7652L21.9402 24.0615C20.9343 25.0487 19.6991 25.7707 18.3455 26.1629ZM16 28.4995C15.7033 28.4995 15.4133 28.4116 15.1666 28.2467C14.9199 28.0819 14.7277 27.8477 14.6141 27.5736C14.5006 27.2995 14.4709 26.9979 14.5288 26.7069C14.5867 26.4159 14.7295 26.1487 14.9393 25.9389C15.1491 25.7291 15.4163 25.5862 15.7073 25.5284C15.9983 25.4705 16.2999 25.5002 16.574 25.6137C16.8481 25.7273 17.0823 25.9195 17.2472 26.1662C17.412 26.4129 17.5 26.7029 17.5 26.9995C17.4995 27.3972 17.3413 27.7785 17.0601 28.0597C16.7789 28.3409 16.3976 28.4991 16 28.4995Z" fill="black"/>
</svg>
