<svg width="32" height="32" viewBox="0 0 32 32" fill="none" xmlns="http://www.w3.org/2000/svg">
<path d="M28.9266 17.1459C28.158 16.2128 27.1327 15.6366 25.8524 15.4169C26.8768 15.1425 27.701 14.6483 28.3231 13.9345C29.037 13.1298 29.3934 12.1415 29.3934 10.9701C29.3934 9.5062 28.8622 8.3256 27.8016 7.4291C26.6668 6.4774 25.1844 6.0014 23.3543 6.0014C21.7078 6.0014 20.3074 6.3857 19.1541 7.1547C17.8182 8.0151 17.0223 9.2406 16.7664 10.8329H18.907C19.072 9.9364 19.4929 9.2133 20.1697 8.6644C20.9568 8.0423 21.9822 7.7308 23.2449 7.7308C24.324 7.7308 25.2303 7.9779 25.9617 8.472C26.8582 9.0946 27.3074 9.9818 27.3074 11.1346C27.3074 12.1414 26.9871 12.9647 26.3465 13.6053C25.6688 14.2825 24.782 14.6209 23.6834 14.6209H21.9822V16.4051H23.7664C24.8455 16.4051 25.7518 16.679 26.4832 17.2279C27.4353 17.9418 27.9109 18.9847 27.9109 20.3578C27.9109 21.475 27.5545 22.3803 26.8406 23.0756C25.9988 23.8988 24.8269 24.311 23.3269 24.311C22.1736 24.311 21.2136 24.0639 20.4451 23.5698C19.5847 23.021 19.0349 22.188 18.7976 21.0718H16.6287C16.867 22.4995 17.5076 23.6431 18.5506 24.5034C19.7586 25.5093 21.3592 26.0132 23.3543 26.0132C25.2029 26.0132 26.7303 25.565 27.9383 24.6675C29.3113 23.6245 29.9969 22.1968 29.9969 20.3853C29.9969 19.1049 29.6404 18.0248 28.9266 17.1459Z" fill="black"/>
<path d="M12.9979 6.0023C12.4452 6.0023 11.9979 6.4501 11.9979 7.0023V15.0023H3.99792V7.0023C3.99792 6.4501 3.55062 6.0023 2.99792 6.0023C2.44522 6.0023 1.99792 6.4501 1.99792 7.0023V25.0023C1.99792 25.555 2.44522 26.0023 2.99792 26.0023C3.55062 26.0023 3.99792 25.555 3.99792 25.0023V17.0023H11.9979V25.0023C11.9979 25.555 12.4452 26.0023 12.9979 26.0023C13.5506 26.0023 13.9979 25.555 13.9979 25.0023V7.0023C13.9979 6.4501 13.5506 6.0023 12.9979 6.0023Z" fill="black"/>
</svg>
