<svg xmlns="http://www.w3.org/2000/svg" width="32" height="32" viewBox="0 0 32 32"><path d="M25.26 6.00293L20.603 8.66093V10.2889L25.231 7.66093V26.0029H26.774V6.00293H25.26ZM15.998 6.25193C15.7991 6.25193 15.6084 6.33095 15.4677 6.4716C15.3271 6.61225 15.248 6.80302 15.248 7.00193V15.2519H6.74805V7.00193C6.74805 6.80302 6.66903 6.61225 6.52838 6.4716C6.38772 6.33095 6.19696 6.25193 5.99805 6.25193C5.79913 6.25193 5.60837 6.33095 5.46772 6.4716C5.32706 6.61225 5.24805 6.80302 5.24805 7.00193V25.0019C5.24805 25.2008 5.32706 25.3916 5.46772 25.5323C5.60837 25.6729 5.79913 25.7519 5.99805 25.7519C6.19696 25.7519 6.38772 25.6729 6.52838 25.5323C6.66903 25.3916 6.74805 25.2008 6.74805 25.0019V16.7519H15.248V25.0019C15.248 25.1004 15.2674 25.1979 15.3051 25.2889C15.3428 25.3799 15.3981 25.4626 15.4677 25.5323C15.5374 25.6019 15.62 25.6571 15.711 25.6948C15.802 25.7325 15.8996 25.7519 15.998 25.7519C16.0965 25.7519 16.1941 25.7325 16.2851 25.6948C16.3761 25.6571 16.4587 25.6019 16.5284 25.5323C16.598 25.4626 16.6533 25.3799 16.691 25.2889C16.7286 25.1979 16.748 25.1004 16.748 25.0019V7.00193C16.748 6.80302 16.669 6.61225 16.5284 6.4716C16.3877 6.33095 16.197 6.25193 15.998 6.25193Z"/></svg>