<svg width="32" height="32" viewBox="0 0 32 32" fill="none" xmlns="http://www.w3.org/2000/svg">
<path fill-rule="evenodd" clip-rule="evenodd" d="M5.5 13C5.5 7.20101 10.201 2.5 16 2.5C21.799 2.5 26.5 7.20101 26.5 13C26.5 15.8715 25.3304 17.6364 24.1105 19.1522C23.9504 19.351 23.7861 19.5494 23.622 19.7476C23.1701 20.293 22.7194 20.8371 22.3621 21.3864C21.8621 22.1551 21.5 22.9951 21.5 24C21.5 27.2137 19.0478 29.5 16 29.5C12.9624 29.5 10.5 27.0376 10.5 24C10.5 23.7239 10.2761 23.5 10 23.5C9.72386 23.5 9.5 23.7239 9.5 24C9.5 27.5899 12.4101 30.5 16 30.5C19.5796 30.5 22.5 27.7863 22.5 24C22.5 23.2549 22.7629 22.6043 23.2004 21.9316C23.5239 21.4342 23.919 20.9572 24.3566 20.429C24.5283 20.2217 24.7065 20.0065 24.8895 19.7792C26.1696 18.1887 27.5 16.2037 27.5 13C27.5 6.64873 22.3513 1.5 16 1.5C9.64873 1.5 4.5 6.64873 4.5 13C4.5 13.2761 4.72386 13.5 5 13.5C5.27614 13.5 5.5 13.2761 5.5 13ZM16 7.5C13.1209 7.5 10.7584 9.71228 10.5198 12.5297C12.7602 12.7874 14.5 14.6905 14.5 17C14.5 19.4853 12.4853 21.5 10 21.5C9.72386 21.5 9.5 21.2761 9.5 21C9.5 20.7239 9.72386 20.5 10 20.5C11.933 20.5 13.5 18.933 13.5 17C13.5 15.067 11.933 13.5 10 13.5C9.72386 13.5 9.5 13.2761 9.5 13C9.5 9.41015 12.4101 6.5 16 6.5C19.5899 6.5 22.5 9.41015 22.5 13C22.5 13.2761 22.2761 13.5 22 13.5C21.7239 13.5 21.5 13.2761 21.5 13C21.5 9.96243 19.0376 7.5 16 7.5Z" fill="#0F0F0F"/></svg>
