<svg xmlns="http://www.w3.org/2000/svg" width="32" height="32" viewBox="0 0 32 32"><path d="M18.61 4.46724L18.365 4.38124C17.2377 4.00781 16.0379 3.90722 14.8641 4.08775C13.6904 4.26828 12.5762 4.72477 11.6132 5.4197C10.6502 6.11464 9.86589 7.02817 9.32468 8.08523C8.78347 9.14229 8.50084 10.3127 8.5 11.5002C8.5 11.6328 8.44732 11.76 8.35355 11.8538C8.25979 11.9476 8.13261 12.0002 8 12.0002C7.86739 12.0002 7.74021 11.9476 7.64645 11.8538C7.55268 11.76 7.5 11.6328 7.5 11.5002C7.50102 10.3009 7.75563 9.11535 8.24711 8.02135C8.73859 6.92734 9.45584 5.94963 10.3518 5.15235C11.2478 4.35507 12.3022 3.75625 13.4459 3.39517C14.5896 3.0341 15.7967 2.91894 16.988 3.05724C17.007 3.05724 17.026 3.05824 17.045 3.06124C17.6044 3.13109 18.1554 3.25637 18.69 3.43524L18.729 3.44824C18.8701 3.49982 19.0118 3.54982 19.154 3.59824C19.1949 3.61151 19.2339 3.63 19.27 3.65324C20.3328 4.09763 21.2943 4.75326 22.0962 5.58036C22.898 6.40747 23.5235 7.38881 23.9348 8.46489C24.346 9.54098 24.5344 10.6894 24.4886 11.8404C24.4427 12.9915 24.1635 14.1213 23.668 15.1612L23.632 15.2322L23.448 15.6002C23.4314 15.6359 23.4105 15.6695 23.386 15.7002C22.684 16.9299 21.687 17.9654 20.4848 18.7135C19.2827 19.4616 17.9132 19.8986 16.5 19.9852V23.5002C16.5 23.6329 16.4473 23.76 16.3536 23.8538C16.2598 23.9476 16.1326 24.0002 16 24.0002C15.8674 24.0002 15.7402 23.9476 15.6464 23.8538C15.5527 23.76 15.5 23.6329 15.5 23.5002V19.5002C15.5 19.3676 15.5527 19.2405 15.6464 19.1467C15.7402 19.0529 15.8674 19.0002 16 19.0002C17.3402 18.9974 18.6552 18.6366 19.8091 17.9549C20.963 17.2733 21.9138 16.2957 22.563 15.1232C22.5719 15.1074 22.5816 15.0921 22.592 15.0772L22.769 14.7222C23.2161 13.7823 23.4627 12.7597 23.4933 11.7193C23.5239 10.6789 23.3377 9.64352 22.9465 8.67898C22.5554 7.71443 21.9679 6.8418 21.2213 6.11655C20.4747 5.3913 19.5855 4.82929 18.61 4.46624V4.46724ZM16 27.5002C15.8011 27.5002 15.6103 27.5793 15.4697 27.7199C15.329 27.8606 15.25 28.0513 15.25 28.2502C15.25 28.4492 15.329 28.6399 15.4697 28.7806C15.6103 28.9212 15.8011 29.0002 16 29.0002C16.1989 29.0002 16.3897 28.9212 16.5303 28.7806C16.671 28.6399 16.75 28.4492 16.75 28.2502C16.75 28.0513 16.671 27.8606 16.5303 27.7199C16.3897 27.5793 16.1989 27.5002 16 27.5002Z"/></svg>