<svg xmlns="http://www.w3.org/2000/svg" width="32" height="32" viewBox="0 0 32 32"><path d="M16.973 2.80296C15.7496 2.66717 14.5113 2.79083 13.3389 3.16588C12.1664 3.54093 11.0863 4.15894 10.1688 4.97959C9.25135 5.80024 8.51721 6.8051 8.01428 7.9286C7.51134 9.05211 7.25092 10.269 7.25 11.5C7.25 11.6989 7.32902 11.8896 7.46967 12.0303C7.61032 12.1709 7.80109 12.25 8 12.25C8.19891 12.25 8.38968 12.1709 8.53033 12.0303C8.67098 11.8896 8.75 11.6989 8.75 11.5C8.75114 10.3355 9.03252 9.1884 9.57038 8.15559C10.1082 7.12278 10.8868 6.23459 11.8402 5.56604C12.7936 4.8975 13.894 4.46825 15.0482 4.31454C16.2025 4.16084 17.3768 4.2872 18.472 4.68296C19.42 5.02932 20.2854 5.56971 21.0126 6.26959C21.7399 6.96946 22.3131 7.8134 22.6957 8.74745C23.0782 9.6815 23.2615 10.6851 23.234 11.694C23.2065 12.703 22.9688 13.6951 22.536 14.607L22.304 15.073V15.075C21.6701 16.1886 20.7532 17.1149 19.6462 17.7603C18.5392 18.4056 17.2814 18.747 16 18.75C15.8011 18.75 15.6103 18.829 15.4697 18.9696C15.329 19.1103 15.25 19.301 15.25 19.5V23.5C15.25 23.6989 15.329 23.8896 15.4697 24.0303C15.6103 24.1709 15.8011 24.25 16 24.25C16.1989 24.25 16.3897 24.1709 16.5303 24.0303C16.671 23.8896 16.75 23.6989 16.75 23.5V20.218C18.1802 20.0915 19.5575 19.6162 20.7613 18.8337C21.9652 18.0513 22.9587 16.9856 23.655 15.73C23.6732 15.6975 23.6889 15.6638 23.702 15.629L23.884 15.266C24.3934 14.1976 24.6809 13.0372 24.7292 11.8546C24.7775 10.6721 24.5855 9.49199 24.1649 8.38571C23.7443 7.27943 23.1038 6.26991 22.2821 5.41813C21.4603 4.56635 20.4745 3.89 19.384 3.42996C19.3361 3.40104 19.2851 3.37756 19.232 3.35996L18.969 3.26796L18.819 3.21496L18.769 3.19696C18.2157 3.0112 17.6452 2.88122 17.066 2.80896C17.0352 2.80503 17.0041 2.80303 16.973 2.80296ZM16 27.25C15.7348 27.25 15.4804 27.3553 15.2929 27.5428C15.1054 27.7304 15 27.9847 15 28.25C15 28.5152 15.1054 28.7695 15.2929 28.9571C15.4804 29.1446 15.7348 29.25 16 29.25C16.2652 29.25 16.5196 29.1446 16.7071 28.9571C16.8946 28.7695 17 28.5152 17 28.25C17 27.9847 16.8946 27.7304 16.7071 27.5428C16.5196 27.3553 16.2652 27.25 16 27.25Z"/></svg>