<svg xmlns="http://www.w3.org/2000/svg" width="32" height="32" viewBox="0 0 32 32"><path d="M16 2.5C13.33 2.5 10.7199 3.29176 8.49981 4.77516C6.27974 6.25856 4.54942 8.36697 3.52763 10.8338C2.50585 13.3006 2.2385 16.015 2.7594 18.6337C3.28031 21.2525 4.56606 23.6579 6.45406 25.5459C8.34207 27.434 10.7475 28.7197 13.3663 29.2406C15.985 29.7615 18.6994 29.4942 21.1662 28.4724C23.633 27.4506 25.7414 25.7203 27.2248 23.5002C28.7082 21.2801 29.5 18.67 29.5 16C29.496 12.4208 28.0724 8.98932 25.5416 6.45844C23.0107 3.92756 19.5792 2.50397 16 2.5ZM16 22.5C15.6685 22.5 15.3505 22.3683 15.1161 22.1339C14.8817 21.8995 14.75 21.5815 14.75 21.25C14.75 20.9185 14.8817 20.6005 15.1161 20.3661C15.3505 20.1317 15.6685 20 16 20C16.3315 20 16.6495 20.1317 16.8839 20.3661C17.1183 20.6005 17.25 20.9185 17.25 21.25C17.25 21.5815 17.1183 21.8995 16.8839 22.1339C16.6495 22.3683 16.3315 22.5 16 22.5ZM17 16.808V17.788C17 18.0532 16.8946 18.3076 16.7071 18.4951C16.5196 18.6826 16.2652 18.788 16 18.788C15.7348 18.788 15.4804 18.6826 15.2929 18.4951C15.1054 18.3076 15 18.0532 15 17.788V15.942C14.9997 15.8106 15.0254 15.6804 15.0756 15.559C15.1258 15.4376 15.1994 15.3272 15.2923 15.2343C15.3852 15.1414 15.4956 15.0677 15.617 15.0176C15.7385 14.9674 15.8686 14.9417 16 14.942C16.2315 14.9459 16.4615 14.9035 16.6764 14.8173C16.8913 14.7312 17.0869 14.603 17.2517 14.4403C17.4164 14.2776 17.547 14.0836 17.6359 13.8698C17.7247 13.656 17.77 13.4265 17.769 13.195C17.7739 12.8435 17.674 12.4985 17.4819 12.204C17.2898 11.9096 17.0143 11.6791 16.6905 11.5421C16.3668 11.405 16.0095 11.3676 15.6644 11.4345C15.3193 11.5015 15.002 11.6698 14.753 11.918C14.5875 12.0824 14.4562 12.278 14.3667 12.4934C14.2771 12.7087 14.231 12.9397 14.231 13.173C14.231 13.4382 14.1256 13.6926 13.9381 13.8801C13.7506 14.0676 13.4962 14.173 13.231 14.173C12.9658 14.173 12.7114 14.0676 12.5239 13.8801C12.3364 13.6926 12.231 13.4382 12.231 13.173C12.2312 12.4707 12.4277 11.7823 12.7982 11.1857C13.1687 10.589 13.6986 10.1078 14.3281 9.79622C14.9575 9.48466 15.6615 9.35517 16.3606 9.42237C17.0597 9.48957 17.7262 9.75079 18.2848 10.1765C18.8434 10.6023 19.2719 11.1757 19.522 11.832C19.7721 12.4883 19.8338 13.2014 19.7002 13.891C19.5666 14.5805 19.243 15.219 18.7659 15.7344C18.2888 16.2498 17.6772 16.6217 17 16.808Z"/></svg>