<svg xmlns="http://www.w3.org/2000/svg" width="32" height="32" viewBox="0 0 32 32"><path d="M22.6498 15.0868C22.6678 15.0268 22.6898 14.9698 22.7078 14.9108C23.621 14.7318 24.4456 14.2458 25.0444 13.5334C25.6433 12.8211 25.9804 11.9253 25.9998 10.9948C25.9917 10.0609 25.6585 9.15888 25.0576 8.44388C24.4566 7.72888 23.6254 7.24551 22.7068 7.07683C22.3795 5.95361 21.7809 4.92816 20.9638 4.09083C20.3176 3.42887 19.5456 2.90284 18.6931 2.54368C17.8406 2.18453 16.9248 1.99951 15.9998 1.99951C15.0747 1.99951 14.159 2.18453 13.3065 2.54368C12.454 2.90284 11.682 3.42887 11.0358 4.09083C10.2224 4.92419 9.62501 5.94379 9.29579 7.06083C8.31092 7.23625 7.4275 7.77426 6.81967 8.56879C6.21183 9.36332 5.92369 10.3567 6.01204 11.3532C6.1004 12.3496 6.55883 13.2769 7.29697 13.9521C8.03512 14.6272 8.99942 15.0014 9.99979 15.0008C10.2649 15.0006 10.5191 14.8951 10.7066 14.7076C10.8941 14.5202 10.9995 14.266 10.9998 14.0008V9.13083C10.9998 8.7977 11.0306 8.46528 11.0918 8.13783C11.2788 7.13783 11.7568 6.21583 12.4678 5.48783C12.9276 5.01697 13.477 4.64282 14.0836 4.38736C14.6901 4.13191 15.3416 4.00031 15.9998 4.00031C16.6579 4.00031 17.3095 4.13191 17.916 4.38736C18.5226 4.64282 19.0719 5.01697 19.5318 5.48783C20.4795 6.46254 21.0066 7.77036 20.9998 9.12983V12.8598C21.0068 14.2199 20.4797 15.5284 19.5318 16.5038C19.2167 16.818 18.8609 17.0884 18.4738 17.3078C18.0795 16.7206 17.4912 16.2909 16.8119 16.0939C16.1326 15.897 15.4057 15.9454 14.7585 16.2306C14.1113 16.5158 13.5851 17.0197 13.2721 17.654C12.9591 18.2882 12.8793 19.0124 13.0467 19.6996C13.2141 20.3868 13.6179 20.9931 14.1875 21.4124C14.7571 21.8317 15.4561 22.0372 16.162 21.9929C16.8678 21.9486 17.5356 21.6572 18.0482 21.17C18.5609 20.6827 18.8857 20.0306 18.9658 19.3278C19.7112 18.9736 20.388 18.4902 20.9648 17.8998C21.2648 17.5898 21.5348 17.2548 21.7748 16.8968C24.3048 17.7968 27.0028 19.6808 27.0028 23.6288C27.0028 26.1208 22.2728 27.9998 15.9998 27.9998C9.72679 27.9998 4.99679 26.1208 4.99679 23.6298C4.96156 22.4092 5.27139 21.2033 5.89068 20.1508C6.50998 19.0983 7.41362 18.2418 8.49779 17.6798C8.61813 17.6178 8.72464 17.532 8.81087 17.4277C8.89711 17.3233 8.96128 17.2025 8.9995 17.0726C9.03773 16.9428 9.04921 16.8065 9.03325 16.6721C9.01729 16.5376 8.97423 16.4078 8.90667 16.2905C8.83911 16.1732 8.74845 16.0708 8.64018 15.9895C8.53191 15.9082 8.40828 15.8498 8.27676 15.8176C8.14525 15.7855 8.00858 15.7804 7.87503 15.8026C7.74149 15.8248 7.61383 15.8739 7.49979 15.9468C6.11077 16.6839 4.95404 17.7926 4.15885 19.1492C3.36366 20.5058 2.96132 22.0568 2.99679 23.6288C2.99679 25.0958 3.75679 27.1468 7.37679 28.5868C10.1419 29.5784 13.0648 30.0572 16.0018 29.9998C22.4738 29.9998 29.0038 28.0298 29.0038 23.6298C29.0038 19.6158 26.7558 16.6168 22.6498 15.0868ZM22.9998 9.30483C23.3031 9.47187 23.5561 9.71727 23.7323 10.0154C23.9085 10.3136 24.0014 10.6535 24.0014 10.9998C24.0014 11.3461 23.9085 11.6861 23.7323 11.9842C23.5561 12.2824 23.3031 12.5278 22.9998 12.6948V9.30483ZM8.99979 12.7338C8.69558 12.5581 8.44297 12.3054 8.26735 12.0011C8.09173 11.6968 7.99928 11.3517 7.99928 11.0003C7.99928 10.649 8.09173 10.3039 8.26735 9.99957C8.44297 9.69529 8.69558 9.44258 8.99979 9.26683V12.7338ZM15.9988 19.9988C15.7336 19.9988 15.4792 19.8935 15.2917 19.7059C15.1041 19.5184 14.9988 19.264 14.9988 18.9988C14.9988 18.7336 15.1041 18.4793 15.2917 18.2917C15.4792 18.1042 15.7336 17.9988 15.9988 17.9988C16.264 17.9988 16.5184 18.1042 16.7059 18.2917C16.8934 18.4793 16.9988 18.7336 16.9988 18.9988C16.9988 19.264 16.8934 19.5184 16.7059 19.7059C16.5184 19.8935 16.264 19.9988 15.9988 19.9988Z"/></svg>