<svg width="32" height="32" viewBox="0 0 32 32" fill="none" xmlns="http://www.w3.org/2000/svg">
<path d="M15.9998 2.00011C13.2309 2.00011 10.5241 2.82119 8.22184 4.35953C5.91955 5.89787 4.12514 8.08437 3.06551 10.6425C2.00588 13.2007 1.72864 16.0156 2.26883 18.7314C2.80902 21.4471 4.14239 23.9417 6.10033 25.8996C8.05826 27.8575 10.5528 29.1909 13.2686 29.7311C15.9843 30.2713 18.7992 29.994 21.3574 28.9344C23.9156 27.8748 26.1021 26.0804 27.6404 23.7781C29.1787 21.4758 29.9998 18.769 29.9998 16.0001C29.9957 12.2884 28.5193 8.72982 25.8947 6.10521C23.2701 3.4806 19.7116 2.00427 15.9998 2.00011ZM15.9998 28.0001C13.6264 28.0001 11.3064 27.2963 9.33298 25.9777C7.35959 24.6592 5.82152 22.785 4.91327 20.5923C4.00502 18.3996 3.76738 15.9868 4.2304 13.659C4.69342 11.3313 5.83631 9.19306 7.51454 7.51483C9.19277 5.8366 11.331 4.69371 13.6587 4.23068C15.9865 3.76766 18.3993 4.0053 20.592 4.91355C22.7847 5.8218 24.6589 7.35987 25.9775 9.33326C27.296 11.3067 27.9998 13.6267 27.9998 16.0001C27.9963 19.1816 26.7308 22.2318 24.4812 24.4815C22.2315 26.7311 19.1813 27.9966 15.9998 28.0001Z" fill="black"/>
<path d="M15.9999 23C16.6903 23 17.2499 22.4403 17.2499 21.75C17.2499 21.0596 16.6903 20.5 15.9999 20.5C15.3096 20.5 14.7499 21.0596 14.7499 21.75C14.7499 22.4403 15.3096 23 15.9999 23Z" fill="black"/>
<path d="M15.9998 9.00011C14.9361 9.00461 13.9176 9.43083 13.1677 10.1853C12.4179 10.9397 11.9979 11.9608 11.9998 13.0245C11.9998 13.2897 12.1052 13.5441 12.2927 13.7316C12.4803 13.9192 12.7346 14.0245 12.9998 14.0245C13.265 14.0245 13.5194 13.9192 13.7069 13.7316C13.8945 13.5441 13.9998 13.2897 13.9998 13.0245C13.9966 12.7598 14.0459 12.4971 14.145 12.2516C14.244 12.0061 14.3908 11.7827 14.5769 11.5944C14.7629 11.4061 14.9845 11.2565 15.2287 11.1545C15.473 11.0524 15.7351 10.9999 15.9998 10.9999C16.2645 10.9999 16.5266 11.0524 16.7709 11.1545C17.0152 11.2565 17.2367 11.4061 17.4228 11.5944C17.6088 11.7827 17.7556 12.0061 17.8547 12.2516C17.9537 12.4971 18.0031 12.7598 17.9998 13.0245C17.9963 13.5518 17.7838 14.0562 17.4088 14.4269C17.0339 14.7977 16.5271 15.0045 15.9998 15.0021C15.7346 15.0021 15.4803 15.1075 15.2928 15.295C15.1053 15.4825 14.9999 15.7369 14.9998 16.0021L15.0003 18.0001C15.0003 18.2653 15.1057 18.5196 15.2932 18.7072C15.4807 18.8947 15.7351 19.0001 16.0003 19.0001C16.2655 19.0001 16.5199 18.8947 16.7074 18.7072C16.895 18.5196 17.0003 18.2653 17.0003 18.0001L16.9998 16.8761C17.9426 16.6323 18.7641 16.0532 19.3105 15.2473C19.857 14.4413 20.0907 13.4637 19.9681 12.4977C19.8454 11.5317 19.3748 10.6436 18.6443 9.99971C17.9138 9.35585 16.9736 9.00048 15.9998 9.00011Z" fill="black"/>
</svg>
