<svg width="32" height="32" viewBox="0 0 32 32" fill="none" xmlns="http://www.w3.org/2000/svg">
<path d="M18.6106 4.46722C18.4883 4.42427 18.3653 4.38081 18.3653 4.38081C17.2379 4.00729 16.038 3.90665 14.8642 4.08715C13.6904 4.26765 12.5762 4.72414 11.6132 5.41911C10.6501 6.11407 9.86578 7.02766 9.32457 8.08477C8.78337 9.14189 8.50077 10.3124 8.5 11.5C8.5 11.6326 8.44732 11.7597 8.35355 11.8535C8.25979 11.9473 8.13261 12 8 12C7.86739 12 7.74021 11.9473 7.64645 11.8535C7.55268 11.7597 7.5 11.6326 7.5 11.5C7.50101 10.1532 7.82179 8.82587 8.43595 7.62727C9.05012 6.42867 9.9401 5.39303 11.0327 4.60557C12.1253 3.8181 13.3892 3.30132 14.7205 3.09774C15.4736 2.98258 16.2361 2.96951 16.9877 3.0568C17.0068 3.05697 17.0259 3.05823 17.045 3.06061C17.5138 3.11927 17.9754 3.21669 18.4252 3.35116C18.514 3.37749 18.6024 3.4053 18.6905 3.43458L18.7287 3.44813C18.7964 3.47114 18.8637 3.49501 18.9307 3.51972C19.0304 3.55498 19.1286 3.58957 19.1533 3.59766C19.195 3.61115 19.2342 3.62992 19.2704 3.65325C19.7954 3.87278 20.2988 4.14518 20.7726 4.4674C21.8862 5.22481 22.8041 6.23582 23.4507 7.41724C24.0972 8.59867 24.4541 9.91673 24.4918 11.263C24.5295 12.6093 24.247 13.9452 23.6675 15.161C23.6665 15.1632 23.6524 15.1912 23.6319 15.2321C23.5745 15.3467 23.4663 15.5625 23.4485 15.6002C23.4316 15.6364 23.4106 15.6702 23.386 15.7009C22.6931 16.9146 21.7123 17.9399 20.5294 18.6861C19.3168 19.4509 17.931 19.8978 16.5 19.9853V23.5C16.5 23.6326 16.4473 23.7597 16.3536 23.8535C16.2598 23.9473 16.1326 24 16 24C15.8674 24 15.7402 23.9473 15.6464 23.8535C15.5527 23.7597 15.5 23.6326 15.5 23.5V19.5C15.5 19.4343 15.5129 19.3693 15.538 19.3086C15.5631 19.2479 15.5999 19.1928 15.6464 19.1463C15.6928 19.0999 15.7479 19.0631 15.8086 19.0379C15.8693 19.0128 15.9343 18.9999 16 19C17.3401 18.9971 18.6551 18.6361 19.8088 17.9545C20.9626 17.2729 21.9133 16.2953 22.5625 15.123C22.5715 15.1071 22.5812 15.0918 22.5917 15.077C22.6591 14.9407 22.7686 14.7215 22.7686 14.7215C23.2785 13.6489 23.5264 12.4706 23.4922 11.2835C23.458 10.0963 23.1425 8.93431 22.5717 7.89287C22.0009 6.85142 21.1911 5.9603 20.2089 5.29276C19.7094 4.95331 19.1726 4.67659 18.6106 4.46722Z" fill="#0F0F0F"/>
<path d="M16 27.4998C15.8265 27.4998 15.6583 27.5599 15.5242 27.67C15.3901 27.7801 15.2983 27.9333 15.2644 28.1034C15.2306 28.2736 15.2568 28.4503 15.3386 28.6033C15.4204 28.7563 15.5527 28.8763 15.713 28.9427C15.8733 29.0091 16.0517 29.0178 16.2177 28.9675C16.3838 28.9171 16.5272 28.8107 16.6236 28.6664C16.72 28.5222 16.7634 28.3489 16.7464 28.1762C16.7294 28.0036 16.653 27.8421 16.5303 27.7194C16.4608 27.6497 16.3781 27.5944 16.2871 27.5567C16.1961 27.519 16.0985 27.4996 16 27.4998Z" fill="#0F0F0F"/>
</svg>
