<svg width="32" height="32" viewBox="0 0 32 32" fill="none" xmlns="http://www.w3.org/2000/svg">
<path d="M22.3226 15.233C22.3876 15.0513 22.4566 14.8711 22.5065 14.684C23.3938 14.547 24.2047 14.1025 24.7976 13.4283C25.3905 12.754 25.7276 11.8929 25.7501 10.9954C25.726 10.0999 25.3883 9.2413 24.796 8.56923C24.2037 7.89717 23.3944 7.45428 22.509 7.31777C22.2074 6.16877 21.6136 5.11739 20.7853 4.26589C20.1623 3.62787 19.4181 3.12088 18.5963 2.77472C17.7745 2.42857 16.8918 2.25024 16.0001 2.25024C15.1084 2.25024 14.2257 2.42857 13.404 2.77472C12.5822 3.12088 11.8379 3.62787 11.215 4.26589C10.3923 5.10783 9.79949 6.14684 9.49329 7.28347C8.55135 7.41222 7.69344 7.89382 7.093 8.63091C6.49255 9.36799 6.19438 10.3056 6.25875 11.2541C6.32313 12.2026 6.74525 13.0913 7.43978 13.7405C8.13431 14.3897 9.04944 14.7509 10.0001 14.7512C10.199 14.7512 10.3898 14.6722 10.5304 14.5315C10.671 14.3909 10.7501 14.2001 10.7501 14.0012V9.13015C10.7498 8.80838 10.7772 8.48719 10.8321 8.17015C10.838 8.14671 10.8419 8.1223 10.8458 8.09788C11.0409 7.04718 11.5432 6.07794 12.2892 5.31277C12.7724 4.81816 13.3496 4.42514 13.9869 4.1568C14.6242 3.88847 15.3087 3.75024 16.0001 3.75024C16.6916 3.75024 17.3761 3.88847 18.0134 4.1568C18.6507 4.42514 19.2279 4.81816 19.7111 5.31277C20.7047 6.33429 21.2573 7.70514 21.2501 9.13015V12.8606C21.2572 14.2859 20.7045 15.657 19.7111 16.679C19.3207 17.0695 18.8705 17.3954 18.3776 17.6443C18.051 17.0706 17.5287 16.6338 16.9063 16.4138C16.284 16.1937 15.6032 16.2052 14.9886 16.4461C14.3741 16.6871 13.8668 17.1413 13.5598 17.7256C13.2527 18.31 13.1664 18.9854 13.3167 19.6282C13.467 20.2709 13.8437 20.8381 14.378 21.2258C14.9123 21.6135 15.5683 21.7958 16.226 21.7393C16.8837 21.6828 17.499 21.3913 17.9593 20.9181C18.4196 20.445 18.6941 19.8219 18.7326 19.1629C19.5008 18.8167 20.1971 18.3292 20.7853 17.7258C21.117 17.3791 21.4112 16.9983 21.663 16.5898C24.3271 17.4898 27.2531 19.4338 27.2531 23.6291C27.2531 26.6311 21.4552 28.2502 16.0011 28.2502C10.546 28.2502 4.74815 26.6311 4.74815 23.6291C4.71161 22.3645 5.03245 21.1153 5.67383 20.0248C6.31522 18.9343 7.25115 18.0468 8.37415 17.4641C8.45956 17.415 8.53446 17.3496 8.59458 17.2715C8.65469 17.1934 8.69884 17.1043 8.7245 17.0092C8.75017 16.9141 8.75684 16.8148 8.74415 16.7171C8.73145 16.6194 8.69964 16.5251 8.65052 16.4397C8.60141 16.3543 8.53595 16.2794 8.45788 16.2193C8.37982 16.1592 8.29068 16.115 8.19555 16.0894C8.10043 16.0637 8.00118 16.057 7.90347 16.0697C7.80576 16.0824 7.71151 16.1142 7.6261 16.1634C6.27575 16.8793 5.15115 17.9567 4.37802 19.2752C3.60489 20.5936 3.2137 22.1011 3.24819 23.6292C3.24819 25.0188 3.98062 26.9661 7.47183 28.3548C10.2064 29.3347 13.0968 29.8077 16.0011 29.7503C22.3478 29.7503 28.7531 27.8577 28.7531 23.6292C28.7531 19.6532 26.4762 16.6966 22.3226 15.233ZM22.7396 8.91067C23.1732 9.06713 23.5494 9.35091 23.8189 9.72482C24.0885 10.0987 24.2388 10.5453 24.2501 11.0061C24.2374 11.4654 24.0864 11.9101 23.8168 12.2821C23.5472 12.6541 23.1716 12.936 22.7391 13.091C22.7416 13.014 22.7501 12.938 22.7501 12.8606C22.7501 12.8606 22.742 8.98408 22.7396 8.91067ZM9.25013 13.1233C8.81098 12.9678 8.43088 12.6798 8.16222 12.2992C7.89357 11.9185 7.74959 11.464 7.75012 10.9981C7.75066 10.5322 7.89569 10.0779 8.16521 9.69788C8.43474 9.31786 8.8155 9.0308 9.25501 8.87625C9.25208 8.96023 9.25013 13.1233 9.25013 13.1233ZM15.9991 20.2493C15.7519 20.2493 15.5102 20.176 15.3047 20.0387C15.0991 19.9013 14.9389 19.7061 14.8443 19.4777C14.7497 19.2493 14.7249 18.9979 14.7732 18.7555C14.8214 18.513 14.9404 18.2903 15.1152 18.1154C15.2901 17.9406 15.5128 17.8216 15.7553 17.7733C15.9977 17.7251 16.2491 17.7499 16.4775 17.8445C16.7059 17.9391 16.9011 18.0993 17.0385 18.3049C17.1758 18.5104 17.2491 18.7521 17.2491 18.9993C17.2488 19.3307 17.117 19.6485 16.8827 19.8828C16.6483 20.1172 16.3305 20.249 15.9991 20.2493Z" fill="black"/>
</svg>
