<svg width="32" height="32" viewBox="0 0 32 32" fill="none" xmlns="http://www.w3.org/2000/svg">
<path d="M18.61 4.467L18.365 4.381C17.2377 4.00756 16.0379 3.90698 14.8641 4.08751C13.6904 4.26803 12.5762 4.72453 11.6132 5.41946C10.6502 6.11439 9.86589 7.02793 9.32468 8.08499C8.78347 9.14204 8.50084 10.3124 8.5 11.5C8.5 11.6326 8.44732 11.7598 8.35355 11.8536C8.25979 11.9473 8.13261 12 8 12C7.86739 12 7.74021 11.9473 7.64645 11.8536C7.55268 11.7598 7.5 11.6326 7.5 11.5C7.50102 10.3007 7.75563 9.1151 8.24711 8.0211C8.73859 6.9271 9.45584 5.94938 10.3518 5.1521C11.2478 4.35482 12.3022 3.756 13.4459 3.39493C14.5896 3.03386 15.7967 2.91869 16.988 3.057C17.007 3.057 17.026 3.058 17.045 3.061C17.6044 3.13085 18.1554 3.25613 18.69 3.435L18.729 3.448C18.8701 3.49958 19.0118 3.54958 19.154 3.598C19.1949 3.61127 19.2339 3.62976 19.27 3.653C20.3328 4.09739 21.2943 4.75302 22.0962 5.58012C22.898 6.40722 23.5235 7.38857 23.9348 8.46465C24.346 9.54073 24.5344 10.6891 24.4886 11.8402C24.4427 12.9913 24.1635 14.121 23.668 15.161L23.632 15.232L23.448 15.6C23.4314 15.6357 23.4105 15.6692 23.386 15.7C22.684 16.9296 21.687 17.9652 20.4848 18.7133C19.2827 19.4613 17.9132 19.8984 16.5 19.985V23.5C16.5 23.6326 16.4473 23.7598 16.3536 23.8536C16.2598 23.9473 16.1326 24 16 24C15.8674 24 15.7402 23.9473 15.6464 23.8536C15.5527 23.7598 15.5 23.6326 15.5 23.5V19.5C15.5 19.3674 15.5527 19.2402 15.6464 19.1464C15.7402 19.0527 15.8674 19 16 19C17.3402 18.9972 18.6552 18.6363 19.8091 17.9547C20.963 17.273 21.9138 16.2954 22.563 15.123C22.5719 15.1072 22.5816 15.0918 22.592 15.077L22.769 14.722C23.2161 13.7821 23.4627 12.7594 23.4933 11.719C23.5239 10.6786 23.3377 9.64328 22.9465 8.67873C22.5554 7.71419 21.9679 6.84156 21.2213 6.11631C20.4747 5.39106 19.5855 4.82905 18.61 4.466V4.467ZM16 27.5C15.8011 27.5 15.6103 27.579 15.4697 27.7197C15.329 27.8603 15.25 28.0511 15.25 28.25C15.25 28.4489 15.329 28.6397 15.4697 28.7803C15.6103 28.921 15.8011 29 16 29C16.1989 29 16.3897 28.921 16.5303 28.7803C16.671 28.6397 16.75 28.4489 16.75 28.25C16.75 28.0511 16.671 27.8603 16.5303 27.7197C16.3897 27.579 16.1989 27.5 16 27.5V27.5Z" fill="#0F0F0F"/>
</svg>
