<svg width="32" height="32" viewBox="0 0 32 32" fill="none" xmlns="http://www.w3.org/2000/svg">
<path d="M15.9998 2.50011C13.3298 2.50011 10.7197 3.29187 8.49962 4.77527C6.27956 6.25867 4.54923 8.36708 3.52745 10.8339C2.50567 13.3007 2.23832 16.0151 2.75922 18.6338C3.28012 21.2526 4.56587 23.658 6.45388 25.5461C8.34189 27.4341 10.7474 28.7198 13.3661 29.2407C15.9848 29.7616 18.6992 29.4943 21.166 28.4725C23.6329 27.4507 25.7413 25.7204 27.2247 23.5003C28.7081 21.2802 29.4998 18.6702 29.4998 16.0001C29.4958 12.4209 28.0722 8.98945 25.5414 6.45857C23.0105 3.9277 19.579 2.5041 15.9998 2.50011ZM15.9998 28.5001C13.5276 28.5001 11.1108 27.767 9.0552 26.3935C6.99958 25.02 5.39742 23.0677 4.45133 20.7837C3.50523 18.4996 3.25769 15.9862 3.74001 13.5615C4.22232 11.1367 5.41283 8.90943 7.16099 7.16128C8.90914 5.41312 11.1364 4.22261 13.5612 3.74029C15.986 3.25798 18.4993 3.50552 20.7834 4.45162C23.0674 5.39771 25.0197 6.99987 26.3932 9.05548C27.7667 11.1111 28.4998 13.5278 28.4998 16.0001C28.4961 19.3142 27.1779 22.4914 24.8345 24.8348C22.4911 27.1782 19.3139 28.4964 15.9998 28.5001Z" fill="black"/>
<path d="M15.9999 22.5C16.4142 22.5 16.7499 22.1642 16.7499 21.75C16.7499 21.3358 16.4142 21 15.9999 21C15.5857 21 15.2499 21.3358 15.2499 21.75C15.2499 22.1642 15.5857 22.5 15.9999 22.5Z" fill="black"/>
<path d="M15.9998 9.50011C15.0687 9.50445 14.1773 9.87794 13.5211 10.5387C12.865 11.1994 12.4977 12.0934 12.4998 13.0245C12.4998 13.1571 12.5525 13.2843 12.6463 13.3781C12.74 13.4718 12.8672 13.5245 12.9998 13.5245C13.1324 13.5245 13.2596 13.4718 13.3534 13.3781C13.4471 13.2843 13.4998 13.1571 13.4998 13.0245C13.4954 12.5291 13.6382 12.0435 13.9102 11.6294C14.1821 11.2153 14.571 10.8914 15.0275 10.6987C15.4839 10.506 15.9873 10.4533 16.4737 10.5472C16.9602 10.6411 17.4078 10.8774 17.7597 11.2262C18.1116 11.5749 18.3519 12.0203 18.4502 12.5059C18.5485 12.9915 18.5003 13.4953 18.3118 13.9535C18.1232 14.4116 17.8028 14.8034 17.3911 15.0791C16.9795 15.3549 16.4953 15.5021 15.9998 15.5021C15.8672 15.5021 15.7401 15.5548 15.6463 15.6485C15.5525 15.7423 15.4999 15.8695 15.4998 16.0021L15.5003 18.0001C15.5003 18.1327 15.553 18.2598 15.6468 18.3536C15.7405 18.4474 15.8677 18.5001 16.0003 18.5001C16.1329 18.5001 16.2601 18.4474 16.3539 18.3536C16.4476 18.2598 16.5003 18.1327 16.5003 18.0001L16.4998 16.4669C17.3757 16.3401 18.1711 15.8864 18.7261 15.197C19.281 14.5076 19.5543 13.6336 19.4909 12.7508C19.4276 11.8681 19.0323 11.0421 18.3846 10.439C17.7369 9.83587 16.8848 9.50045 15.9998 9.50011Z" fill="black"/>
</svg>
