<svg width="32" height="32" viewBox="0 0 32 32" fill="none" xmlns="http://www.w3.org/2000/svg">
<path d="M16.0003 2.5C13.3303 2.5 10.7202 3.29176 8.50011 4.77516C6.28005 6.25856 4.54972 8.36697 3.52794 10.8338C2.50615 13.3006 2.23881 16.015 2.75971 18.6337C3.28061 21.2525 4.56636 23.6579 6.45437 25.5459C8.34238 27.434 10.7478 28.7197 13.3666 29.2406C15.9853 29.7615 18.6997 29.4942 21.1665 28.4724C23.6333 27.4506 25.7418 25.7203 27.2252 23.5002C28.7085 21.2801 29.5003 18.67 29.5003 16C29.4964 12.4208 28.0728 8.98927 25.5419 6.45837C23.011 3.92748 19.5795 2.50391 16.0003 2.5ZM16 22.5C15.7528 22.5 15.5111 22.4267 15.3055 22.2893C15.1 22.152 14.9397 21.9568 14.8451 21.7284C14.7505 21.4999 14.7258 21.2486 14.774 21.0061C14.8222 20.7637 14.9413 20.5409 15.1161 20.3661C15.2909 20.1913 15.5136 20.0723 15.7561 20.024C15.9986 19.9758 16.2499 20.0005 16.4783 20.0951C16.7067 20.1898 16.902 20.35 17.0393 20.5555C17.1767 20.7611 17.25 21.0028 17.25 21.25C17.25 21.5815 17.1183 21.8995 16.8839 22.1339C16.6494 22.3683 16.3315 22.5 16 22.5ZM17.0003 16.8085V17.788C17.0003 18.0532 16.8949 18.3076 16.7074 18.4951C16.5199 18.6826 16.2655 18.788 16.0003 18.788C15.7351 18.788 15.4807 18.6826 15.2932 18.4951C15.1056 18.3076 15.0003 18.0532 15.0003 17.788V15.9423C15.0002 15.811 15.026 15.6809 15.0763 15.5595C15.1265 15.4382 15.2001 15.3279 15.293 15.235C15.3859 15.1421 15.4962 15.0685 15.6175 15.0183C15.7389 14.968 15.8689 14.9422 16.0003 14.9423C16.2318 14.9462 16.4618 14.9039 16.6767 14.8178C16.8917 14.7316 17.0873 14.6034 17.252 14.4407C17.4167 14.278 17.5473 14.084 17.636 13.8701C17.7248 13.6562 17.7699 13.4268 17.7688 13.1952C17.7718 12.962 17.7286 12.7305 17.6417 12.514C17.5548 12.2976 17.426 12.1004 17.2626 11.9339C17.0992 11.7674 16.9046 11.6349 16.6898 11.5439C16.475 11.453 16.2443 11.4054 16.0111 11.4039C15.7779 11.4024 15.5466 11.4471 15.3307 11.5353C15.1148 11.6235 14.9184 11.7536 14.753 11.918C14.5875 12.0824 14.4562 12.2779 14.3666 12.4932C14.2769 12.7086 14.2308 12.9395 14.2308 13.1728C14.2308 13.438 14.1254 13.6923 13.9379 13.8799C13.7503 14.0674 13.496 14.1728 13.2308 14.1728C12.9655 14.1728 12.7112 14.0674 12.5237 13.8799C12.3361 13.6923 12.2308 13.438 12.2308 13.1728C12.2311 12.4705 12.4277 11.7822 12.7983 11.1857C13.1689 10.5891 13.6988 10.108 14.3283 9.79651C14.9577 9.48504 15.6617 9.35564 16.3608 9.4229C17.0599 9.49016 17.7262 9.7514 18.2848 10.1772C18.8433 10.6029 19.2718 11.1763 19.5219 11.8325C19.7719 12.4888 19.8337 13.2019 19.7001 13.8914C19.5666 14.5809 19.243 15.2193 18.766 15.7348C18.289 16.2502 17.6774 16.6221 17.0003 16.8085Z" fill="black"/>
</svg>
