<svg width="32" height="32" viewBox="0 0 32 32" xmlns="http://www.w3.org/2000/svg"><path fill-rule="evenodd" clip-rule="evenodd" d="M9.27076 7.06632C10.1101 4.14068 12.8043 2 16 2C19.1958 2 21.8899 4.14069 22.7292 7.06632C24.5902 7.40911 26 9.03991 26 11C26 12.9601 24.5902 14.5909 22.7292 14.9337C22.717 14.9764 22.7044 15.0189 22.6913 15.0612C26.9635 16.6451 29 19.8092 29 23C29 25.5209 27.3868 27.3055 25.0508 28.4048C22.7382 29.4931 19.572 30 16 30C12.428 30 9.26184 29.4931 6.9492 28.4048C4.61324 27.3055 3 25.5209 3 23C3 19.8092 5.03652 16.6451 9.30867 15.0612C9.29565 15.0189 9.28301 14.9764 9.27077 14.9337C7.40983 14.5909 6 12.9601 6 11C6 9.03991 7.40983 7.40911 9.27076 7.06632ZM10 8C10.5523 8 11 8.44772 11 9V13C11 13.5523 10.5523 14 10 14C9.44772 14 9 13.5523 9 13V9C9 8.44772 9.44772 8 10 8ZM22 8C22.5523 8 23 8.44772 23 9V13C23 13.5523 22.5523 14 22 14C21.4477 14 21 13.5523 21 13V9C21 8.44772 21.4477 8 22 8ZM15 19C15 18.4477 15.4477 18 16 18C16.5523 18 17 18.4477 17 19C17 19.5523 16.5523 20 16 20C15.4477 20 15 19.5523 15 19ZM16 16C14.3431 16 13 17.3431 13 19C13 20.6569 14.3431 22 16 22C17.4917 22 18.7291 20.9113 18.961 19.4852C19.717 19.1293 20.4025 18.6384 20.9836 18.0363C21.4385 17.5676 21.8234 17.0436 22.1319 16.4804C22.3972 15.996 22.2196 15.3883 21.7353 15.1229C21.2509 14.8576 20.6431 15.0352 20.3778 15.5196C20.1549 15.9267 19.8766 16.3054 19.5476 16.6442L19.5453 16.6466C19.2513 16.9513 18.9198 17.2158 18.5594 17.4341C18.032 16.5739 17.083 16 16 16Z"/></svg>
