<svg xmlns="http://www.w3.org/2000/svg" width="32" height="32" viewBox="0 0 32 32"><path d="M7.56792 11.8109C6.09841 12.9459 4.76759 14.2498 3.60292 15.6959C3.53634 15.7831 3.50027 15.8897 3.50027 15.9994C3.50027 16.1091 3.53634 16.2157 3.60292 16.3029C3.82792 16.5969 9.19292 23.4999 15.9999 23.4999C16.9637 23.4922 17.9221 23.356 18.8499 23.0949L7.56792 11.8099V11.8109ZM28.7069 27.2929L22.7669 21.3519C24.9057 19.9863 26.8074 18.2809 28.3969 16.3029C28.4635 16.2157 28.4996 16.1091 28.4996 15.9994C28.4996 15.8897 28.4635 15.7831 28.3969 15.6959C28.1719 15.4019 22.8069 8.49992 15.9999 8.49992C14.2929 8.5255 12.6117 8.92056 11.0719 9.65792L4.70692 3.29292C4.51832 3.11076 4.26571 3.00997 4.00352 3.01224C3.74132 3.01452 3.49051 3.11969 3.3051 3.3051C3.11969 3.49051 3.01452 3.74132 3.01224 4.00352C3.00997 4.26571 3.11076 4.51832 3.29292 4.70692L9.23292 10.6469V10.6479L20.9269 22.3429L20.9289 22.3419L27.2929 28.7069C27.4806 28.8944 27.735 28.9997 28.0003 28.9996C28.2655 28.9995 28.5199 28.8941 28.7074 28.7064C28.8949 28.5188 29.0002 28.2643 29.0001 27.9991C29 27.7338 28.8946 27.4794 28.7069 27.2919V27.2929Z"/></svg>