<svg xmlns="http://www.w3.org/2000/svg" width="32" height="32" viewBox="0 0 32 32"><path d="M25.645 9.39514L18.647 4.36214C17.879 3.8013 16.9528 3.49889 16.0018 3.49854C15.0509 3.49818 14.1244 3.79988 13.356 4.36014L6.354 9.39714C5.78056 9.81539 5.31382 10.363 4.99169 10.9954C4.66956 11.6279 4.5011 12.3274 4.5 13.0371V24.0001C4.50132 25.1932 4.97585 26.337 5.81948 27.1807C6.66311 28.0243 7.80693 28.4988 9 28.5001H12C12.3977 28.4996 12.7789 28.3414 13.0601 28.0602C13.3413 27.779 13.4995 27.3978 13.5 27.0001V21.0001C13.5003 20.8676 13.553 20.7406 13.6467 20.6469C13.7404 20.5532 13.8675 20.5004 14 20.5001H18C18.1325 20.5004 18.2596 20.5532 18.3533 20.6469C18.447 20.7406 18.4997 20.8676 18.5 21.0001V27.0001C18.5005 27.3978 18.6587 27.779 18.9399 28.0602C19.2211 28.3414 19.6023 28.4996 20 28.5001H23C24.1931 28.4991 25.3371 28.0246 26.1808 27.181C27.0245 26.3373 27.4989 25.1933 27.5 24.0001V13.0371C27.4989 12.327 27.3303 11.6271 27.008 10.9943C26.6857 10.3615 26.2187 9.81365 25.645 9.39514Z"/></svg>