<svg xmlns="http://www.w3.org/2000/svg" width="32" height="32" viewBox="0 0 32 32"><path d="M25.791 9.19293L18.793 4.15993C17.9823 3.56803 17.0046 3.24889 16.0008 3.24854C14.9971 3.24818 14.0191 3.56661 13.208 4.15793L6.205 9.19493C5.60017 9.63667 5.10796 10.2147 4.7683 10.8823C4.42863 11.5498 4.25106 12.288 4.25 13.0369V23.9999C4.25132 25.2593 4.75219 26.4667 5.6427 27.3572C6.53322 28.2477 7.74063 28.7486 9 28.7499H12C12.464 28.7494 12.9088 28.5649 13.2369 28.2368C13.5649 27.9087 13.7495 27.4639 13.75 26.9999V20.9999C13.75 20.9336 13.7763 20.87 13.8232 20.8232C13.8701 20.7763 13.9337 20.7499 14 20.7499H18C18.0663 20.7499 18.1299 20.7763 18.1768 20.8232C18.2237 20.87 18.25 20.9336 18.25 20.9999V26.9999C18.2505 27.4639 18.4351 27.9087 18.7631 28.2368C19.0912 28.5649 19.536 28.7494 20 28.7499H23C24.2594 28.7486 25.4668 28.2477 26.3573 27.3572C27.2478 26.4667 27.7487 25.2593 27.75 23.9999V13.0369C27.7488 12.2873 27.5708 11.5485 27.2304 10.8806C26.89 10.2126 26.3968 9.63444 25.791 9.19293ZM26.25 23.9999C26.2489 24.8616 25.9062 25.6876 25.2969 26.2969C24.6877 26.9061 23.8616 27.2489 23 27.2499H20C19.9337 27.2499 19.8701 27.2236 19.8232 27.1767C19.7763 27.1298 19.75 27.0662 19.75 26.9999V20.9999C19.7495 20.536 19.5649 20.0911 19.2369 19.7631C18.9088 19.435 18.464 19.2505 18 19.2499H14C13.536 19.2505 13.0912 19.435 12.7631 19.7631C12.4351 20.0911 12.2505 20.536 12.25 20.9999V26.9999C12.25 27.0662 12.2237 27.1298 12.1768 27.1767C12.1299 27.2236 12.0663 27.2499 12 27.2499H9C8.13837 27.2489 7.31234 26.9061 6.70307 26.2969C6.09381 25.6876 5.75106 24.8616 5.75 23.9999V13.0369C5.75062 12.525 5.87181 12.0204 6.10374 11.564C6.33567 11.1076 6.67184 10.7122 7.085 10.4099L14.087 5.37193C14.6431 4.96733 15.3131 4.74955 16.0008 4.74991C16.6885 4.75026 17.3584 4.96875 17.914 5.37393L24.911 10.4079C25.3254 10.71 25.6627 11.1056 25.8954 11.5626C26.128 12.0196 26.2495 12.5251 26.25 13.0379V23.9999Z"/></svg>