<svg width="32" height="32" viewBox="0 0 32 32" fill="none" xmlns="http://www.w3.org/2000/svg">
<path d="M26.9998 20.2497H4.99976C4.5358 20.2502 4.09101 20.4348 3.76294 20.7629C3.43487 21.0909 3.25032 21.5357 3.24976 21.9997V24.9997C3.25032 25.4636 3.43487 25.9084 3.76294 26.2365C4.09101 26.5646 4.5358 26.7491 4.99976 26.7497H26.9998C27.4637 26.7491 27.9085 26.5646 28.2366 26.2365C28.5646 25.9084 28.7492 25.4636 28.7498 24.9997V21.9997C28.7492 21.5357 28.5646 21.0909 28.2366 20.7629C27.9085 20.4348 27.4637 20.2502 26.9998 20.2497ZM27.2498 24.9997C27.2496 25.0659 27.2232 25.1295 27.1764 25.1763C27.1295 25.2232 27.066 25.2495 26.9998 25.2497H4.99976C4.93349 25.2496 4.86998 25.2232 4.82312 25.1763C4.77626 25.1295 4.74988 25.0659 4.74976 24.9997V21.9997C4.74988 21.9334 4.77626 21.8699 4.82312 21.823C4.86998 21.7762 4.93349 21.7498 4.99976 21.7497H26.9998C27.066 21.7498 27.1295 21.7762 27.1764 21.823C27.2232 21.8699 27.2496 21.9334 27.2498 21.9997V24.9997Z" fill="black"/>
<path d="M26.9998 5.24968H4.99976C4.5358 5.25024 4.09101 5.4348 3.76294 5.76286C3.43487 6.09093 3.25032 6.53572 3.24976 6.99968V9.99968C3.25032 10.4636 3.43487 10.9084 3.76294 11.2365C4.09101 11.5646 4.5358 11.7491 4.99976 11.7497H26.9998C27.4637 11.7491 27.9085 11.5646 28.2366 11.2365C28.5646 10.9084 28.7492 10.4636 28.7498 9.99968V6.99968C28.7492 6.53572 28.5646 6.09093 28.2366 5.76287C27.9085 5.4348 27.4637 5.25024 26.9998 5.24968ZM27.2498 9.99968C27.2496 10.0659 27.2232 10.1295 27.1764 10.1763C27.1295 10.2232 27.066 10.2495 26.9998 10.2497H4.99976C4.93349 10.2496 4.86998 10.2232 4.82312 10.1763C4.77626 10.1295 4.74988 10.0659 4.74976 9.99968V6.99968C4.74988 6.93341 4.77626 6.8699 4.82312 6.82304C4.86998 6.77619 4.93349 6.74981 4.99976 6.74968H26.9998C27.066 6.74981 27.1295 6.77619 27.1764 6.82304C27.2232 6.8699 27.2496 6.93341 27.2498 6.99968V9.99968Z" fill="black"/>
<path d="M27.9998 15.2497H3.99976C3.80084 15.2497 3.61008 15.3287 3.46943 15.4693C3.32877 15.61 3.24976 15.8008 3.24976 15.9997C3.24976 16.1986 3.32877 16.3894 3.46943 16.53C3.61008 16.6707 3.80084 16.7497 3.99976 16.7497H27.9998C28.1987 16.7497 28.3894 16.6707 28.5301 16.53C28.6707 16.3894 28.7498 16.1986 28.7498 15.9997C28.7498 15.8008 28.6707 15.61 28.5301 15.4693C28.3894 15.3287 28.1987 15.2497 27.9998 15.2497Z" fill="black"/>
</svg>
