<svg width="32" height="32" viewBox="0 0 32 32" xmlns="http://www.w3.org/2000/svg">
<path d="M3.75 9.00326V13C3.75 13.4142 3.41421 13.75 3 13.75C2.58579 13.75 2.25 13.4142 2.25 13V9L2.25 8.99839L2.25001 8.9965L2.25004 8.99187L2.25019 8.9793C2.25035 8.96947 2.25063 8.95674 2.25115 8.94132C2.25218 8.9105 2.25411 8.86877 2.25777 8.81766C2.26505 8.71569 2.27925 8.57491 2.30708 8.40795C2.36214 8.07758 2.47366 7.62563 2.70418 7.16459C2.93617 6.70062 3.29592 6.21383 3.8496 5.84471C4.40797 5.47246 5.11876 5.25 6 5.25C6.88124 5.25 7.59203 5.47246 8.1504 5.84471C8.70408 6.21383 9.06383 6.70062 9.29582 7.16459C9.52634 7.62563 9.63786 8.07758 9.69292 8.40795C9.72075 8.57491 9.73495 8.71569 9.74223 8.81766C9.74589 8.86877 9.74782 8.9105 9.74885 8.94132C9.74937 8.95674 9.74965 8.96947 9.74981 8.9793L9.74996 9L9.74999 8.9965L9.75 8.99839C9.75 8.99839 9.74981 8.9793 9.74996 9L9.75 11C9.75 11.4142 9.41421 11.75 9 11.75C8.58579 11.75 8.25 11.4142 8.25 11V9.00325L8.24968 8.99129C8.24925 8.97817 8.24826 8.95545 8.24605 8.92453C8.24161 8.86244 8.23238 8.76884 8.21333 8.65455C8.17464 8.42242 8.09866 8.12437 7.95418 7.83541C7.81117 7.54938 7.60842 7.28617 7.31835 7.09279C7.03297 6.90254 6.61876 6.75 6 6.75C5.38124 6.75 4.96703 6.90254 4.68165 7.09279C4.39158 7.28617 4.18883 7.54938 4.04582 7.83541C3.90134 8.12437 3.82536 8.42242 3.78667 8.65455C3.76762 8.76884 3.75839 8.86244 3.75395 8.92453C3.75175 8.95545 3.75075 8.97817 3.75032 8.99129L3.75 9.00326ZM15 6.75C14.3096 6.75 13.75 7.30964 13.75 8V12C13.75 12.4142 13.4142 12.75 13 12.75C12.5858 12.75 12.25 12.4142 12.25 12V8C12.25 6.48122 13.4812 5.25 15 5.25H27C28.5188 5.25 29.75 6.48122 29.75 8V24C29.75 25.5188 28.5188 26.75 27 26.75H15C13.4812 26.75 12.25 25.5188 12.25 24V20C12.25 19.5858 12.5858 19.25 13 19.25C13.4142 19.25 13.75 19.5858 13.75 20V24C13.75 24.6904 14.3096 25.25 15 25.25H27C27.6904 25.25 28.25 24.6904 28.25 24V13.75H15C14.5858 13.75 14.25 13.4142 14.25 13C14.25 12.5858 14.5858 12.25 15 12.25H28.25V8C28.25 7.30964 27.6904 6.75 27 6.75H15ZM10.4697 12.4697C10.7626 12.1768 11.2374 12.1768 11.5303 12.4697L14.5303 15.4697C14.8232 15.7626 14.8232 16.2374 14.5303 16.5303L11.5303 19.5303C11.2374 19.8232 10.7626 19.8232 10.4697 19.5303C10.1768 19.2374 10.1768 18.7626 10.4697 18.4697L12.1893 16.75H3C2.58579 16.75 2.25 16.4142 2.25 16C2.25 15.5858 2.58579 15.25 3 15.25H12.1893L10.4697 13.5303C10.1768 13.2374 10.1768 12.7626 10.4697 12.4697ZM26.5762 16.5199C26.8413 16.8381 26.7983 17.311 26.4801 17.5762L20.4801 22.5762C20.1821 22.8245 19.744 22.8046 19.4697 22.5303L16.4697 19.5303C16.1768 19.2374 16.1768 18.7626 16.4697 18.4697C16.7626 18.1768 17.2374 18.1768 17.5303 18.4697L20.046 20.9854L25.5199 16.4238C25.8381 16.1587 26.311 16.2017 26.5762 16.5199ZM3 18.25C3.41421 18.25 3.75 18.5858 3.75 19V22.5L3.75 22.9987L3.75 22.9967L3.75032 23.0087C3.75075 23.0218 3.75175 23.0446 3.75395 23.0755C3.75839 23.1376 3.76762 23.2312 3.78667 23.3455C3.82536 23.5776 3.90134 23.8756 4.04582 24.1646C4.18883 24.4506 4.39158 24.7138 4.68165 24.9072C4.96703 25.0975 5.38124 25.25 6 25.25C6.61876 25.25 7.03297 25.0975 7.31835 24.9072C7.60842 24.7138 7.81117 24.4506 7.95418 24.1646C8.09866 23.8756 8.17464 23.5776 8.21333 23.3455C8.23238 23.2312 8.24161 23.1376 8.24605 23.0755C8.24826 23.0446 8.24925 23.0218 8.24968 23.0087L8.25 22.9976L8.25 22.9987L8.25 21C8.25 20.5858 8.58579 20.25 9 20.25C9.41421 20.25 9.75 20.5858 9.75 21V23L9.75 23.0016L9.74999 23.0035L9.74996 23.0081L9.74981 23.0207C9.74965 23.0305 9.74937 23.0433 9.74885 23.0587C9.74782 23.0895 9.74589 23.1312 9.74223 23.1823C9.73495 23.2843 9.72075 23.4251 9.69292 23.592C9.63786 23.9224 9.52634 24.3744 9.29582 24.8354C9.06383 25.2994 8.70408 25.7862 8.1504 26.1553C7.59203 26.5275 6.88124 26.75 6 26.75C5.11876 26.75 4.40797 26.5275 3.8496 26.1553C3.29592 25.7862 2.93617 25.2994 2.70418 24.8354C2.47366 24.3744 2.36214 23.9224 2.30708 23.592C2.27925 23.4251 2.26505 23.2843 2.25777 23.1823C2.25411 23.1312 2.25218 23.0895 2.25115 23.0587C2.25063 23.0433 2.25035 23.0305 2.25019 23.0207L2.25004 23.0081L2.25001 23.0035L2.25 23.0016L2.25 22.7695V22.5V19C2.25 18.5858 2.58579 18.25 3 18.25Z" fill="black"/>
</svg>
