<svg xmlns="http://www.w3.org/2000/svg" width="32" height="32" viewBox="0 0 32 32"><path d="M12.378 7.40906C12.2623 7.13937 12.07 6.90954 11.825 6.74803C11.58 6.58653 11.2929 6.50045 10.9995 6.50045C10.706 6.50045 10.419 6.58653 10.174 6.74803C9.92895 6.90954 9.73669 7.13937 9.62099 7.40906L9.61899 7.41206L5.03199 18.3261C4.57852 19.3897 4.41227 20.5538 4.54985 21.7018C4.68743 22.8499 5.12403 23.9417 5.81599 24.8681C6.42056 25.6847 7.20815 26.3483 8.11555 26.8055C9.02295 27.2628 10.0249 27.5009 11.041 27.5009C12.0571 27.5009 13.059 27.2628 13.9664 26.8055C14.8738 26.3483 15.6614 25.6847 16.266 24.8681C16.316 24.8011 16.363 24.7121 16.424 24.6111C17.0389 23.6956 17.4115 22.6391 17.5068 21.5404C17.6022 20.4417 17.4171 19.3367 16.969 18.3291L12.38 7.41006L12.378 7.40906ZM15.442 24.2511C15.4024 24.3267 15.3576 24.3996 15.308 24.4691C14.7791 25.1206 14.108 25.6423 13.3462 25.9944C12.5844 26.3464 11.7522 26.5193 10.9132 26.4999C10.0742 26.4805 9.25084 26.2693 8.50615 25.8824C7.76146 25.4956 7.11522 24.9433 6.61699 24.2681C6.02938 23.482 5.65865 22.5554 5.54193 21.581C5.42522 20.6066 5.56663 19.6186 5.95199 18.7161L10.54 7.80206C10.5787 7.71269 10.6427 7.63655 10.724 7.58297C10.8054 7.52938 10.9006 7.50067 10.998 7.50035C11.0954 7.50004 11.1908 7.52812 11.2725 7.58117C11.3542 7.63423 11.4187 7.70994 11.458 7.79906L16.048 18.7201C16.3737 19.6275 16.4884 20.5971 16.3834 21.5555C16.2784 22.5139 15.9564 23.4357 15.442 24.2511ZM27.171 10.9121L24.547 5.20106C24.4578 4.99293 24.3094 4.81561 24.1202 4.69115C23.931 4.56669 23.7094 4.50059 23.483 4.50106C23.2652 4.49838 23.0515 4.56019 22.8687 4.6787C22.686 4.7972 22.5424 4.96712 22.456 5.16706L19.823 10.9241C19.4224 11.8623 19.3944 12.9179 19.7448 13.876C20.0952 14.8341 20.7976 15.6226 21.709 16.0811C22.2647 16.3586 22.8778 16.5018 23.499 16.4991C24.1207 16.5015 24.7343 16.358 25.2904 16.0801C25.8465 15.8022 26.3297 15.3977 26.701 14.8991C27.1221 14.3343 27.3873 13.6687 27.4698 12.969C27.5523 12.2693 27.4492 11.5603 27.171 10.9131V10.9121ZM25.9 14.3001C25.4602 14.8858 24.8213 15.2903 24.1038 15.4375C23.3863 15.5847 22.6398 15.4643 22.0049 15.099C21.37 14.7337 20.8907 14.1488 20.6574 13.4546C20.424 12.7603 20.4527 12.0046 20.738 11.3301L23.368 5.57806L23.373 5.56806C23.3809 5.54616 23.396 5.52755 23.4157 5.51522C23.4355 5.50289 23.4588 5.49755 23.482 5.50006C23.5146 5.50168 23.5461 5.51249 23.5728 5.53125C23.5995 5.55001 23.6204 5.57594 23.633 5.60606L26.257 11.3191C26.4641 11.8036 26.5401 12.3341 26.4774 12.8573C26.4148 13.3806 26.2156 13.8781 25.9 14.3001Z"/></svg>