<svg xmlns="http://www.w3.org/2000/svg" width="32" height="32" viewBox="0 0 32 32"><path d="M12.8382 7.21112C12.6841 6.85123 12.4277 6.54449 12.1009 6.32893C11.7741 6.11337 11.3912 5.99847 10.9997 5.99847C10.6082 5.99847 10.2253 6.11337 9.89849 6.32893C9.57168 6.54449 9.31532 6.85123 9.16119 7.21112L9.15919 7.21812L4.57319 18.1301C4.08464 19.2746 3.90536 20.5273 4.05331 21.7628C4.20126 22.9984 4.67124 24.1734 5.41619 25.1701C6.06693 26.0494 6.91503 26.7635 7.89221 27.255C8.8694 27.7466 9.94835 28.0018 11.0422 28.0001C12.1396 28.0233 13.2259 27.7772 14.2062 27.2833C15.1865 26.7894 16.0307 26.0628 16.6652 25.1671C16.7372 25.0621 16.8652 24.8491 16.8652 24.8491C17.5067 23.8638 17.8941 22.7349 17.9927 21.5632C18.0913 20.3916 17.898 19.2138 17.4302 18.1351L12.8382 7.21112ZM15.0112 24.0051C14.9482 24.1001 14.9062 24.1551 14.8462 24.2411C14.358 24.815 13.7463 25.2712 13.0569 25.5753C12.3675 25.8795 11.6182 26.0238 10.8652 25.9976C10.1121 25.9713 9.37478 25.7751 8.70825 25.4237C8.04172 25.0723 7.46328 24.5747 7.01619 23.9681C6.48117 23.2519 6.14383 22.4075 6.038 21.5198C5.93217 20.6321 6.06155 19.7321 6.41319 18.9101L11.0002 8.00012L15.5902 18.9171C15.9231 19.7467 16.0444 20.6461 15.9434 21.5343C15.8423 22.4224 15.522 23.2715 15.0112 24.0051ZM27.6262 10.7041L25.0072 5.00412C24.9126 4.78369 24.7712 4.58646 24.5928 4.4261C24.4144 4.26574 24.2032 4.14608 23.974 4.07541C23.7447 4.00474 23.5029 3.98474 23.2652 4.01681C23.0274 4.04887 22.7995 4.13224 22.5972 4.26112C22.3342 4.43212 22.1272 4.67612 22.0002 4.96312L19.3642 10.7281C18.913 11.7833 18.8813 12.9709 19.2756 14.0487C19.6699 15.1265 20.4605 16.0132 21.4862 16.5281C22.111 16.8406 22.8006 17.002 23.4992 16.9991C24.1984 17.002 24.8886 16.8406 25.5141 16.528C26.1395 16.2153 26.6828 15.7602 27.1002 15.1991C27.575 14.5621 27.8736 13.8113 27.966 13.0222C28.0583 12.233 27.9411 11.4335 27.6262 10.7041ZM25.5002 14.0001C25.1348 14.4881 24.6036 14.8258 24.0066 14.9496C23.4096 15.0733 22.7879 14.9747 22.2586 14.6722C21.7293 14.3697 21.3287 13.8841 21.1323 13.3069C20.9359 12.7298 20.9572 12.1007 21.1922 11.5381L23.4952 6.50412L25.7982 11.5161C25.9702 11.92 26.0332 12.362 25.9809 12.7979C25.9286 13.2338 25.7628 13.6483 25.5002 14.0001Z"/></svg>