<svg width="32" height="32" viewBox="0 0 32 32" fill="none" xmlns="http://www.w3.org/2000/svg">
<path d="M12.6089 7.31005C12.4736 6.9955 12.2492 6.72749 11.9632 6.53917C11.6773 6.35085 11.3424 6.25049 11 6.25049C10.6576 6.25049 10.3227 6.35085 10.0368 6.53917C9.75081 6.72749 9.52634 6.9955 9.3911 7.31005L9.3891 7.31494L4.80223 18.228C4.33136 19.3319 4.15876 20.5402 4.30169 21.7319C4.44463 22.9235 4.8981 24.0567 5.61669 25.018C6.2445 25.8655 7.06219 26.5542 8.00418 27.0287C8.94617 27.5032 9.98625 27.7504 11.041 27.7504C12.0958 27.7504 13.1358 27.5032 14.0778 27.0287C15.0198 26.5542 15.8375 25.8655 16.4653 25.018C16.5276 24.9356 16.5847 24.8194 16.6445 24.7305C17.2812 23.7835 17.61 22.6986 17.7176 21.5625C17.8252 20.4265 17.6472 19.2816 17.1997 18.2318L12.6089 7.31005ZM15.2852 24.1133C15.2313 24.1852 15.1581 24.2574 15.0727 24.3599C14.5636 24.9715 13.9221 25.4594 13.1966 25.7865C12.4712 26.1137 11.6808 26.2716 10.8854 26.2482C10.0899 26.2249 9.31019 26.021 8.60516 25.6518C7.90014 25.2827 7.28829 24.7581 6.81591 24.1177C6.25504 23.3666 5.90137 22.4813 5.7903 21.5504C5.67924 20.6196 5.81469 19.676 6.18309 18.814L10.771 7.89985C10.7905 7.85567 10.8223 7.81806 10.8627 7.79155C10.9031 7.76505 10.9502 7.75079 10.9985 7.75048C11.0468 7.75017 11.0942 7.76383 11.1349 7.78981C11.1756 7.81579 11.2079 7.85299 11.228 7.89692L15.8188 18.8188C16.1867 19.6802 16.3218 20.6231 16.2104 21.5531C16.099 22.4831 15.8461 23.3632 15.2852 24.1133Z" fill="black"/>
<path d="M27.3992 10.8079L24.7772 5.10191C24.6689 4.8486 24.4885 4.63276 24.2584 4.48133C24.0283 4.32989 23.7587 4.24955 23.4832 4.25034C23.2173 4.24716 22.9554 4.32281 22.7324 4.46776C22.5094 4.61271 22.3343 4.82046 22.2293 5.0648L19.5935 10.8255C19.3006 11.5125 19.1933 12.2643 19.2824 13.0058C19.3715 13.7472 19.6539 14.4522 20.1014 15.0501C20.495 15.5799 21.0077 16.0098 21.598 16.3049C22.1883 16.6001 22.8398 16.7523 23.4998 16.7494C24.16 16.752 24.8127 16.5997 25.4033 16.3045C25.9939 16.0094 26.5069 15.5798 26.9012 15.0501C27.3491 14.4489 27.6309 13.7404 27.7183 12.9957C27.8058 12.2511 27.6957 11.4966 27.3992 10.8079ZM25.701 14.1497C25.2981 14.6865 24.713 15.0575 24.0557 15.1929C23.3983 15.3282 22.7142 15.2186 22.132 14.8847C21.5499 14.5508 21.1099 14.0156 20.8949 13.3798C20.6799 12.7441 20.7047 12.0516 20.9647 11.4329L23.4949 5.90264L26.0281 11.4173C26.2178 11.8615 26.2874 12.3477 26.23 12.8273C26.1726 13.3068 25.9902 13.7629 25.701 14.1497Z" fill="black"/>
</svg>
