<svg xmlns="http://www.w3.org/2000/svg" width="32" height="32" viewBox="0 0 32 32"><path d="M12.6091 7.31008C12.474 6.99536 12.2495 6.72717 11.9635 6.53871C11.6775 6.35026 11.3426 6.24982 11.0001 6.24982C10.6576 6.24982 10.3226 6.35026 10.0366 6.53871C9.75061 6.72717 9.52617 6.99536 9.39106 7.31008L9.38906 7.31508L4.80206 18.2281C4.33125 19.3321 4.15872 20.5404 4.30176 21.732C4.44479 22.9237 4.89836 24.0569 5.61706 25.0181C6.24485 25.8656 7.06249 26.5542 8.00443 27.0287C8.94636 27.5031 9.98638 27.7503 11.0411 27.7503C12.0958 27.7503 13.1358 27.5031 14.0777 27.0287C15.0196 26.5542 15.8373 25.8656 16.4651 25.0181C16.5281 24.9361 16.5851 24.8191 16.6451 24.7301C17.2811 23.7831 17.6101 22.6991 17.7181 21.5621C17.8255 20.4263 17.6475 19.2816 17.2001 18.2321L12.6091 7.31008ZM15.2851 24.1131C15.2311 24.1851 15.1581 24.2571 15.0731 24.3601C14.5641 24.9719 13.9226 25.46 13.1971 25.7873C12.4716 26.1145 11.6812 26.2725 10.8857 26.2492C10.0901 26.2259 9.3103 26.0219 8.60524 25.6527C7.90018 25.2835 7.28835 24.7587 6.81606 24.1181C6.25509 23.367 5.90134 22.4816 5.79025 21.5507C5.67915 20.6199 5.81461 19.6761 6.18306 18.8141L10.7711 7.90008C10.7904 7.85573 10.8222 7.81794 10.8626 7.7913C10.903 7.76466 10.9502 7.75032 10.9986 7.75C11.047 7.74968 11.0944 7.76341 11.1351 7.78951C11.1759 7.81562 11.2081 7.85299 11.2281 7.89708L15.8181 18.8191C16.1871 19.6801 16.3221 20.6231 16.2101 21.5531C16.0991 22.4831 15.8461 23.3631 15.2851 24.1131ZM27.4001 10.8081L24.7771 5.10208C24.6689 4.8487 24.4884 4.63278 24.2583 4.48127C24.0282 4.32975 23.7586 4.24935 23.4831 4.25008C23.217 4.24722 22.956 4.32306 22.7329 4.46806C22.5098 4.61306 22.3345 4.82077 22.2291 5.06508L19.5931 10.8251C19.1676 11.8222 19.1382 12.9439 19.5107 13.962C19.8832 14.9801 20.6296 15.818 21.5981 16.3051C22.1885 16.6001 22.84 16.7522 23.5001 16.7491C24.1602 16.7514 24.8116 16.5989 25.4021 16.3038C25.9925 16.0088 26.5056 15.5793 26.9001 15.0501C27.348 14.4489 27.6298 13.7404 27.7173 12.9958C27.8047 12.2512 27.6946 11.4967 27.3981 10.8081H27.4001ZM25.7001 14.1501C25.297 14.6864 24.7119 15.0569 24.0548 15.192C23.3977 15.3271 22.7138 15.2174 22.1319 14.8836C21.55 14.5497 21.1101 14.0148 20.8951 13.3793C20.68 12.7439 20.7045 12.0517 20.9641 11.4331L23.4941 5.90308L26.0271 11.4171C26.2169 11.8613 26.2866 12.3477 26.2292 12.8273C26.1718 13.307 25.9893 13.7632 25.7001 14.1501Z"/></svg>