<svg xmlns="http://www.w3.org/2000/svg" width="32" height="32" viewBox="0 0 32 32"><path d="M16 2C6.107 2 2 6.758 2 9.305V10.771C2.00079 11.6273 2.34138 12.4483 2.94698 13.0537C3.55258 13.6591 4.37369 13.9995 5.23 14H8.8C9.65084 13.9963 10.4655 13.6554 11.0654 13.0519C11.6652 12.4485 12.0013 11.6319 12 10.781V9.144C13.1864 8.36581 14.5815 7.96682 16 8C17.4179 7.96702 18.8125 8.36449 20 9.14L19.998 10.79C20.0256 11.6541 20.3896 12.4732 21.0124 13.0728C21.6352 13.6724 22.4675 14.0051 23.332 14H26.772C27.6283 13.9995 28.4494 13.6591 29.055 13.0537C29.6606 12.4483 30.0012 11.6273 30.002 10.771V9.306C30 6.758 25.893 2 16 2ZM28 10.771C27.9997 11.0967 27.8703 11.409 27.6401 11.6394C27.4099 11.8698 27.0977 11.9995 26.772 12H23.332C22.9975 12.0069 22.6731 11.8854 22.4254 11.6605C22.1777 11.4357 22.0255 11.1246 22 10.791V8.837C22 7.309 18.703 6 16 6C13.029 6 10 7.435 10 8.843V10.781C10.0019 11.1018 9.8765 11.4102 9.65138 11.6387C9.42626 11.8672 9.11975 11.9971 8.799 12H5.23C4.90396 12 4.59125 11.8705 4.36061 11.6401C4.12997 11.4096 4.00027 11.097 4 10.771V9.306C4 7.795 7.57 4 16 4C24.431 4 28 7.795 28 9.305V10.771ZM13.904 21.227L5.897 17.216C5.59263 17.062 5.25387 16.9886 4.91306 17.0028C4.57226 17.017 4.24077 17.1182 3.95023 17.297C3.65969 17.4757 3.4198 17.7259 3.25345 18.0237C3.0871 18.3214 2.99984 18.6569 3 18.998V27.002C2.99892 27.3432 3.08545 27.6789 3.25129 27.9771C3.41713 28.2752 3.65673 28.5258 3.94716 28.7048C4.23758 28.8839 4.56911 28.9854 4.90998 28.9996C5.25086 29.0138 5.58968 28.9402 5.894 28.786L13.904 24.772C14.2331 24.6075 14.5099 24.3546 14.7034 24.0416C14.8969 23.7286 14.9993 23.3679 14.9993 23C14.9993 22.6321 14.8969 22.2714 14.7034 21.9584C14.5099 21.6454 14.2331 21.3925 13.904 21.228V21.227ZM5 27.002L4.998 19.002L12.976 23L5 27.002ZM27.904 21.227L19.898 17.216C19.5936 17.0618 19.2547 16.9882 18.9138 17.0023C18.5728 17.0163 18.2412 17.1176 17.9505 17.2963C17.6598 17.475 17.4198 17.7253 17.2534 18.0232C17.087 18.3212 16.9998 18.6568 17 18.998V27.002C16.999 27.3432 17.0856 27.679 17.2516 27.9771C17.4176 28.2753 17.6573 28.5258 17.9478 28.7048C18.2384 28.8837 18.57 28.9851 18.9109 28.9991C19.2519 29.0132 19.5907 28.9394 19.895 28.785L27.904 24.772C28.2334 24.6078 28.5106 24.3549 28.7043 24.0419C28.898 23.7289 29.0006 23.3681 29.0006 23C29.0006 22.6319 28.898 22.2711 28.7043 21.9581C28.5106 21.6451 28.2334 21.3922 27.904 21.228V21.227ZM19 27.002L18.998 19.002L26.977 23L19 27.002Z"/></svg>