<svg width="32" height="32" viewBox="0 0 32 32" fill="none" xmlns="http://www.w3.org/2000/svg">
<path d="M16.0005 2C6.10693 2 2.00049 6.75781 2.00049 9.30469V10.7715C2.00143 11.6274 2.34188 12.4481 2.94714 13.0533C3.5524 13.6586 4.37303 13.9991 5.229 14H8.79834C9.64948 13.9968 10.4646 13.6561 11.0649 13.0527C11.6652 12.4493 12.0016 11.6324 12.0005 10.7812V9.14449C13.1869 8.3661 14.5819 7.96693 16.0005 7.99996C17.4184 7.96689 18.813 8.36423 20.0005 9.13961L19.9995 10.79C20.0273 11.6537 20.391 12.4724 21.0134 13.0719C21.6357 13.6714 22.4674 14.0044 23.3315 14H26.7719C27.6279 13.9991 28.4485 13.6586 29.0538 13.0533C29.659 12.4481 29.9995 11.6274 30.0004 10.7715V9.30465C30.0005 6.75777 25.8941 2 16.0005 2ZM28.0005 10.7715C28.0002 11.0972 27.8707 11.4096 27.6404 11.6399C27.41 11.8702 27.0977 11.9997 26.772 12H23.3315C22.997 12.0069 22.6726 11.8855 22.4249 11.6607C22.1771 11.4358 22.0249 11.1246 21.9995 10.791L22.0005 8.8369C22.0005 7.30858 18.7017 5.99999 16.0005 5.99999C13.0289 5.99999 10.0005 7.43456 10.0005 8.84276V10.7812C10.0024 11.1022 9.87683 11.4107 9.65145 11.6392C9.42607 11.8677 9.11926 11.9974 8.79834 12H5.229C4.90325 11.9997 4.59093 11.8702 4.36059 11.6399C4.13026 11.4096 4.00074 11.0972 4.00049 10.7715V9.30465C4.00049 7.79488 7.56982 4 16.0005 4C24.4312 4 28.0005 7.79492 28.0005 9.30469V10.7715Z" fill="black"/>
<path d="M13.9038 21.2275L5.89697 17.2158C5.5926 17.0619 5.25387 16.9885 4.9131 17.0027C4.57233 17.017 4.24089 17.1183 3.9504 17.297C3.65992 17.4757 3.42008 17.7259 3.25379 18.0237C3.08749 18.3215 3.00029 18.6569 3.00049 18.998V27.0019C2.99951 27.343 3.08608 27.6786 3.25191 27.9767C3.41773 28.2748 3.65728 28.5253 3.94761 28.7043C4.23795 28.8834 4.56937 28.9849 4.91017 28.9992C5.25096 29.0135 5.58973 28.9401 5.89406 28.7861L13.9038 24.7724C14.2331 24.6079 14.51 24.3549 14.7035 24.0419C14.897 23.7288 14.9995 23.368 14.9995 23C14.9995 22.6319 14.897 22.2711 14.7035 21.9581C14.51 21.645 14.233 21.392 13.9038 21.2275ZM5.00049 27.0019L4.99756 19.0029L12.9761 23L5.00049 27.0019Z" fill="black"/>
<path d="M27.9038 21.2275L19.8979 17.2158C19.5935 17.062 19.2548 16.9888 18.914 17.0031C18.5732 17.0174 18.2418 17.1187 17.9513 17.2974C17.6608 17.4761 17.4209 17.7262 17.2545 18.0239C17.088 18.3216 17.0006 18.6569 17.0005 18.998V27.0019C16.9994 27.3431 17.0859 27.6789 17.2518 27.9771C17.4177 28.2753 17.6574 28.5259 17.9479 28.7049C18.2385 28.8839 18.5701 28.9852 18.911 28.9993C19.252 29.0133 19.5908 28.9396 19.8951 28.7851L27.9038 24.7724C28.2333 24.6081 28.5105 24.3552 28.7042 24.0421C28.8979 23.729 29.0005 23.3681 29.0005 23C29.0005 22.6318 28.8979 22.2709 28.7042 21.9578C28.5105 21.6447 28.2333 21.3918 27.9038 21.2275ZM19.0005 27.0019L18.9985 19.0019L26.9761 23L19.0005 27.0019Z" fill="black"/>
</svg>
