<svg width="32" height="32" fill="none" xmlns="http://www.w3.org/2000/svg"><path d="M16.0005 2c-9.8936 0-14 4.7578-14 7.3047v1.4668A3.232 3.232 0 005.229 14h3.5693a3.2143 3.2143 0 003.2022-3.2188V9.1445a6.9948 6.9948 0 014-1.1445 7.017 7.017 0 014 1.1396l-.001 1.6504a3.3169 3.3169 0 003.332 3.21h3.4404a3.2319 3.2319 0 003.2285-3.2285V9.3047C30.0005 6.7576 25.8941 2 16.0005 2zM13.9038 21.2275L5.897 17.2158a1.9963 1.9963 0 00-1.9466.0812 1.9953 1.9953 0 00-.95 1.701v8.0039a1.9933 1.9933 0 002.8937 1.7842l8.0097-4.0137a1.981 1.981 0 00.7997-2.8143 1.9812 1.9812 0 00-.7997-.7306zM27.9038 21.2275l-8.0059-4.0117a1.996 1.996 0 00-1.9466.0816 1.9968 1.9968 0 00-.9508 1.7006v8.0039a1.9927 1.9927 0 002.8946 1.7832l8.0087-4.0127a1.9803 1.9803 0 00.8004-2.8146 1.9803 1.9803 0 00-.8004-.7303z" fill="#0F0F0F"/></svg>