<svg xmlns="http://www.w3.org/2000/svg" width="32" height="32" viewBox="0 0 32 32"><path d="M2.25 3C2.25 2.58579 2.58579 2.25 3 2.25H19C19.4142 2.25 19.75 2.58579 19.75 3V9C19.75 9.41421 19.4142 9.75 19 9.75C18.5858 9.75 18.25 9.41421 18.25 9V3.75H3.75V18.25H9C9.41421 18.25 9.75 18.5858 9.75 19C9.75 19.4142 9.41421 19.75 9 19.75H3C2.58579 19.75 2.25 19.4142 2.25 19V3ZM29.75 29C29.75 29.4142 29.4142 29.75 29 29.75L13 29.75C12.5858 29.75 12.25 29.4142 12.25 29L12.25 23C12.25 22.5858 12.5858 22.25 13 22.25C13.4142 22.25 13.75 22.5858 13.75 23L13.75 28.25L28.25 28.25L28.25 13.75L23 13.75C22.5858 13.75 22.25 13.4142 22.25 13C22.25 12.5858 22.5858 12.25 23 12.25L29 12.25C29.4142 12.25 29.75 12.5858 29.75 13L29.75 29ZM13 12.25C12.5858 12.25 12.25 12.5858 12.25 13V19C12.25 19.4142 12.5858 19.75 13 19.75H19C19.4142 19.75 19.75 19.4142 19.75 19V13C19.75 12.5858 19.4142 12.25 19 12.25H13ZM13.75 18.25V13.75H18.25V18.25H13.75Z"/></svg>