<svg width="32" height="32" viewBox="0 0 32 32" fill="none" xmlns="http://www.w3.org/2000/svg">
<path d="M29.5307 2.47014C29.461 2.40048 29.3784 2.34522 29.2874 2.30752C29.1964 2.26982 29.0989 2.25041 29.0004 2.25041C28.9019 2.25041 28.8044 2.26982 28.7134 2.30752C28.6224 2.34522 28.5397 2.40048 28.4701 2.47014L19.7504 11.1907V5.00041C19.7504 4.8015 19.6714 4.61073 19.5307 4.47008C19.3901 4.32943 19.1993 4.25041 19.0004 4.25041C18.8015 4.25041 18.6107 4.32943 18.4701 4.47008C18.3294 4.61073 18.2504 4.8015 18.2504 5.00041V13.0004C18.2504 13.1993 18.3295 13.39 18.4701 13.5307C18.6107 13.6713 18.8015 13.7504 19.0004 13.7504H27.0004C27.1993 13.7504 27.3901 13.6714 27.5307 13.5307C27.6714 13.3901 27.7504 13.1993 27.7504 13.0004C27.7504 12.8015 27.6714 12.6107 27.5307 12.4701C27.3901 12.3294 27.1993 12.2504 27.0004 12.2504H20.8118L29.5307 3.53068C29.6003 3.46106 29.6556 3.37839 29.6933 3.2874C29.731 3.19642 29.7504 3.0989 29.7504 3.00041C29.7504 2.90192 29.731 2.8044 29.6933 2.71341C29.6556 2.62243 29.6003 2.53976 29.5307 2.47014Z" fill="black"/>
<path d="M24.0375 19.6986C23.4247 19.0875 22.5943 18.7447 21.7289 18.7456C20.8634 18.7466 20.0337 19.0911 19.4223 19.7035C19.4223 19.7035 18.1625 20.9848 17.6879 21.4633C15.8025 21.4271 14.0044 20.6621 12.671 19.3287C11.3375 17.9953 10.5723 16.1973 10.536 14.3119C11.015 13.8363 12.2963 12.5756 12.3007 12.5717C12.9109 11.9597 13.2536 11.1307 13.2536 10.2665C13.2536 9.4023 12.9109 8.57333 12.3007 7.96135L9.54725 5.20842C8.9241 4.61282 8.09529 4.28044 7.23328 4.28044C6.37128 4.28044 5.54247 4.61282 4.91932 5.20842L3.44764 6.6801C1.50282 8.62541 1.0785 15.4652 8.80653 23.1928C12.9764 27.3627 16.6488 28.8901 18.9955 29.4369C19.8428 29.6394 20.7104 29.7449 21.5815 29.7514C22.9354 29.8482 24.2744 29.4182 25.3188 28.5512L26.7905 27.0795C27.0945 26.7757 27.3357 26.415 27.5002 26.0179C27.6647 25.6209 27.7494 25.1953 27.7494 24.7655C27.7494 24.3358 27.6647 23.9102 27.5002 23.5131C27.3357 23.1161 27.0945 22.7554 26.7905 22.4516L24.0375 19.6986ZM25.7299 26.019L24.2582 27.4907C23.6195 28.1284 21.809 28.5502 19.3353 27.976C17.1796 27.4731 13.787 26.0522 9.86708 22.1323C2.83387 15.099 3.17909 9.06975 4.50819 7.74064L5.97987 6.269C6.14441 6.10429 6.33981 5.97363 6.55487 5.88449C6.76994 5.79534 7.00048 5.74946 7.23329 5.74946C7.4661 5.74946 7.69663 5.79534 7.9117 5.88449C8.12677 5.97363 8.32217 6.10429 8.48671 6.269L11.2401 9.02192C11.5692 9.3513 11.7544 9.79761 11.7552 10.2632C11.756 10.7288 11.5724 11.1757 11.2445 11.5063C11.2445 11.5063 9.74159 12.9848 9.37684 13.349C8.72889 13.9965 9.15907 15.806 9.30653 16.3461C9.71919 17.8673 10.5119 19.2585 11.6102 20.3891C13.9096 22.6879 17.7885 23.4838 18.6498 22.6225C19.0131 22.2592 20.4877 20.7592 20.4877 20.7592C20.8232 20.4395 21.2689 20.2611 21.7323 20.2611C22.1958 20.2611 22.6414 20.4395 22.9769 20.7592L25.7299 23.5121C25.8946 23.6767 26.0252 23.8721 26.1144 24.0871C26.2035 24.3022 26.2494 24.5327 26.2494 24.7655C26.2494 24.9984 26.2035 25.2289 26.1144 25.444C26.0252 25.659 25.8946 25.8545 25.7299 26.019Z" fill="black"/>
</svg>
