<svg xmlns="http://www.w3.org/2000/svg" width="32" height="32" viewBox="0 0 32 32"><path d="M26.9932 14L18.9932 14C18.4405 14 17.9932 13.5522 17.9932 13V5C17.9932 4.4478 18.4405 4 18.9932 4C19.5459 4 19.9932 4.4478 19.9932 5V10.5831L28.2862 2.293C28.4815 2.0977 28.7373 2 28.9932 2C29.2491 2 29.505 2.0977 29.7002 2.2929C30.0908 2.6836 30.0908 3.3169 29.7002 3.707L21.4044 12L26.9932 12C27.5459 12 27.9932 12.4478 27.9932 13C27.9932 13.5522 27.5459 14 26.9932 14ZM19.6015 19.8796C20.7441 18.739 22.7246 18.74 23.8613 19.8767L26.6142 22.6296C27.7929 23.8083 27.7929 25.7253 26.6142 26.904L25.1425 28.3757C24.4101 29.1081 23.1093 29.4958 21.5566 29.4958C20.7724 29.4958 19.9238 29.3971 19.0527 29.194C16.7382 28.654 13.1122 27.1442 8.98426 23.0163C4.85586 18.8883 3.34616 15.2624 2.80656 12.9479C2.20166 10.3503 2.52246 7.95968 3.62496 6.85758L5.09666 5.38598C6.27436 4.20778 8.19186 4.20678 9.37156 5.38598L12.1245 8.13938C12.6933 8.70768 13.0063 9.46358 13.0063 10.2678C13.0063 11.0715 12.6933 11.8278 12.1245 12.3962C12.1245 12.3962 12.0503 12.4692 11.9323 12.5854C11.5157 12.9953 10.5445 13.951 10.2622 14.2341C10.143 14.593 10.4404 17.4519 12.4946 19.5056C14.5488 21.5603 17.4082 21.8582 17.8398 21.6853C18.1308 21.3757 19.6015 19.8796 19.6015 19.8796Z"/></svg>