<svg width="32" height="32" viewBox="0 0 32 32" fill="none" xmlns="http://www.w3.org/2000/svg">
<path d="M16 2.50038C13.33 2.50038 10.7199 3.29214 8.49981 4.77554C6.27974 6.25894 4.54942 8.36735 3.52763 10.8342C2.50585 13.301 2.2385 16.0154 2.7594 18.6341C3.28031 21.2528 4.56606 23.6583 6.45406 25.5463C8.34207 27.4343 10.7475 28.7201 13.3663 29.241C15.985 29.7619 18.6994 29.4945 21.1662 28.4728C23.633 27.451 25.7414 25.7206 27.2248 23.5006C28.7082 21.2805 29.5 18.6704 29.5 16.0004C29.4961 12.4212 28.0725 8.98965 25.5416 6.45875C23.0107 3.92786 19.5792 2.50429 16 2.50038ZM16 28.5004C13.5277 28.5004 11.111 27.7673 9.05538 26.3937C6.99976 25.0202 5.39761 23.068 4.45151 20.7839C3.50542 18.4998 3.25787 15.9865 3.74019 13.5618C4.22251 11.137 5.41301 8.9097 7.16117 7.16155C8.90933 5.41339 11.1366 4.22288 13.5614 3.74056C15.9861 3.25825 18.4995 3.50579 20.7835 4.45189C23.0676 5.39798 25.0199 7.00014 26.3934 9.05575C27.7669 11.1114 28.5 13.5281 28.5 16.0004C28.4963 19.3144 27.1781 22.4917 24.8347 24.8351C22.4913 27.1785 19.3141 28.4967 16 28.5004Z" fill="black"/>
<path d="M15.75 13C16.1642 13 16.5 12.6642 16.5 12.25C16.5 11.8358 16.1642 11.5 15.75 11.5C15.3358 11.5 15 11.8358 15 12.25C15 12.6642 15.3358 13 15.75 13Z" fill="black"/>
<path d="M18 20.5004H16.5V16.0004C16.5 15.9347 16.4871 15.8697 16.462 15.809C16.4369 15.7483 16.4001 15.6932 16.3536 15.6467C16.3072 15.6003 16.2521 15.5635 16.1914 15.5384C16.1307 15.5132 16.0657 15.5003 16 15.5004H15C14.8674 15.5004 14.7402 15.5531 14.6465 15.6468C14.5527 15.7406 14.5 15.8678 14.5 16.0004C14.5 16.133 14.5527 16.2602 14.6465 16.3539C14.7402 16.4477 14.8674 16.5004 15 16.5004H15.5V20.5004H14C13.8674 20.5004 13.7402 20.5531 13.6465 20.6468C13.5527 20.7406 13.5 20.8678 13.5 21.0004C13.5 21.133 13.5527 21.2602 13.6465 21.3539C13.7402 21.4477 13.8674 21.5004 14 21.5004H18C18.1326 21.5004 18.2598 21.4477 18.3536 21.3539C18.4473 21.2602 18.5 21.133 18.5 21.0004C18.5 20.8678 18.4473 20.7406 18.3536 20.6468C18.2598 20.5531 18.1326 20.5004 18 20.5004Z" fill="black"/>
</svg>
