<svg xmlns="http://www.w3.org/2000/svg" width="32" height="32" viewBox="0 0 32 32"><path d="M16 2.5C13.33 2.5 10.7199 3.29176 8.49981 4.77516C6.27974 6.25856 4.54942 8.36697 3.52763 10.8338C2.50585 13.3006 2.2385 16.015 2.7594 18.6337C3.28031 21.2525 4.56606 23.6579 6.45406 25.5459C8.34207 27.434 10.7475 28.7197 13.3663 29.2406C15.985 29.7615 18.6994 29.4942 21.1662 28.4724C23.633 27.4506 25.7414 25.7203 27.2248 23.5002C28.7082 21.2801 29.5 18.67 29.5 16C29.496 12.4208 28.0724 8.98932 25.5416 6.45844C23.0107 3.92756 19.5792 2.50397 16 2.5ZM15.75 9.5C16.0815 9.5 16.3995 9.6317 16.6339 9.86612C16.8683 10.1005 17 10.4185 17 10.75C17 11.0815 16.8683 11.3995 16.6339 11.6339C16.3995 11.8683 16.0815 12 15.75 12C15.4185 12 15.1005 11.8683 14.8661 11.6339C14.6317 11.3995 14.5 11.0815 14.5 10.75C14.5 10.4185 14.6317 10.1005 14.8661 9.86612C15.1005 9.6317 15.4185 9.5 15.75 9.5ZM18 22H14C13.7348 22 13.4804 21.8946 13.2929 21.7071C13.1054 21.5196 13 21.2652 13 21C13 20.7348 13.1054 20.4804 13.2929 20.2929C13.4804 20.1054 13.7348 20 14 20H15V16C14.7348 16 14.4804 15.8946 14.2929 15.7071C14.1054 15.5196 14 15.2652 14 15C14 14.7348 14.1054 14.4804 14.2929 14.2929C14.4804 14.1054 14.7348 14 15 14H16C16.1314 13.9996 16.2617 14.0252 16.3832 14.0753C16.5047 14.1254 16.6151 14.1991 16.708 14.292C16.8009 14.3849 16.8746 14.4953 16.9247 14.6168C16.9748 14.7384 17.0004 14.8686 17 15V20H18C18.2652 20 18.5196 20.1054 18.7071 20.2929C18.8946 20.4804 19 20.7348 19 21C19 21.2652 18.8946 21.5196 18.7071 21.7071C18.5196 21.8946 18.2652 22 18 22Z"/></svg>