<svg xmlns="http://www.w3.org/2000/svg" width="32" height="32" viewBox="0 0 32 32"><path d="M16.5 6C16.5 6.27614 16.2761 6.5 16 6.5C15.7239 6.5 15.5 6.27614 15.5 6C15.5 5.72386 15.7239 5.5 16 5.5C16.2761 5.5 16.5 5.72386 16.5 6Z M15.5 9.5C15.5 9.22386 15.7239 9 16 9C16.2761 9 16.5 9.22386 16.5 9.5V26C16.5 26.2761 16.2761 26.5 16 26.5C15.7239 26.5 15.5 26.2761 15.5 26V9.5Z M29.5 16C29.5 23.4558 23.4558 29.5 16 29.5C8.54416 29.5 2.5 23.4558 2.5 16C2.5 8.54416 8.54416 2.5 16 2.5C23.4558 2.5 29.5 8.54416 29.5 16ZM28.5 16C28.5 9.09644 22.9036 3.5 16 3.5C9.09644 3.5 3.5 9.09644 3.5 16C3.5 22.9036 9.09644 28.5 16 28.5C22.9036 28.5 28.5 22.9036 28.5 16Z"/></svg>