<svg width="32" height="32" viewBox="0 0 32 32" fill="none" xmlns="http://www.w3.org/2000/svg">
<path d="M25.8692 25.162C28.2552 22.6107 29.5563 19.2321 29.4978 15.7395C29.4393 12.247 28.0259 8.91378 25.5559 6.4438C23.0859 3.97383 19.7527 2.56039 16.2602 2.50194C12.7676 2.44349 9.38896 3.7446 6.83772 6.13054L3.35347 2.64628C3.25939 2.55409 3.13273 2.50274 3.00101 2.50341C2.86929 2.50407 2.74316 2.55669 2.65002 2.64983C2.55688 2.74297 2.50426 2.86911 2.50359 3.00083C2.50293 3.13254 2.55427 3.2592 2.64647 3.35328L8.64647 9.35328C8.74054 9.44547 8.8672 9.49682 8.99892 9.49615C9.13064 9.49549 9.25677 9.44287 9.34991 9.34973C9.44305 9.25659 9.49567 9.13045 9.49634 8.99873C9.497 8.86702 9.44566 8.74036 9.35347 8.64628L7.54256 6.83537C9.90704 4.63781 13.0316 3.44288 16.2591 3.5019C19.4865 3.56093 22.5654 4.86932 24.8479 7.15186C27.1304 9.43441 28.4388 12.5132 28.4979 15.7407C28.5569 18.9681 27.3619 22.0927 25.1644 24.4572L19.3535 18.6463C19.3072 18.5991 19.2521 18.5615 19.1912 18.5358C19.1304 18.51 19.065 18.4966 18.9989 18.4963C18.9328 18.4959 18.8674 18.5087 18.8062 18.5338C18.7451 18.559 18.6896 18.596 18.6429 18.6427C18.5962 18.6894 18.5592 18.7449 18.534 18.8061C18.5089 18.8672 18.4961 18.9327 18.4965 18.9987C18.4968 19.0648 18.5102 19.1302 18.536 19.191C18.5617 19.2519 18.5993 19.307 18.6465 19.3533L28.6465 29.3533C28.7405 29.4455 28.8672 29.4968 28.9989 29.4962C29.1306 29.4955 29.2568 29.4429 29.3499 29.3497C29.4431 29.2566 29.4957 29.1305 29.4963 28.9987C29.497 28.867 29.4457 28.7404 29.3535 28.6463L25.8692 25.162Z" fill="black"/>
<path d="M15.9999 28.4998C12.7742 28.4946 9.67516 27.2431 7.35047 25.0067C5.02577 22.7703 3.65523 19.722 3.52522 16.4989L14.7922 16.4997L11.6465 19.6463C11.5993 19.6925 11.5617 19.7477 11.536 19.8085C11.5102 19.8694 11.4968 19.9347 11.4965 20.0008C11.4961 20.0669 11.5089 20.1324 11.534 20.1935C11.5592 20.2546 11.5962 20.3101 11.6429 20.3569C11.6896 20.4036 11.7451 20.4406 11.8062 20.4657C11.8674 20.4909 11.9328 20.5036 11.9989 20.5033C12.065 20.503 12.1304 20.4895 12.1912 20.4638C12.2521 20.438 12.3072 20.4005 12.3535 20.3533L16.3525 16.3533C16.3989 16.3069 16.4357 16.2518 16.4609 16.1911C16.486 16.1304 16.4989 16.0654 16.4989 15.9998C16.4989 15.9341 16.486 15.8691 16.4609 15.8085C16.4357 15.7478 16.3989 15.6927 16.3525 15.6463L12.3535 11.6463C12.2594 11.5541 12.1327 11.5027 12.001 11.5034C11.8693 11.5041 11.7432 11.5567 11.65 11.6498C11.5569 11.743 11.5043 11.8691 11.5036 12.0008C11.5029 12.1325 11.5543 12.2592 11.6465 12.3533L14.792 15.4997L3.5215 15.4989C3.62426 12.878 4.55345 10.3568 6.1761 8.29606L5.46272 7.58269C3.38596 10.1736 2.33824 13.4397 2.5203 16.7552C2.70235 20.0707 4.10138 23.2025 6.44934 25.5504C8.79729 27.8984 11.929 29.2974 15.2446 29.4794C18.5601 29.6615 21.8262 28.6138 24.4171 26.537L23.7037 25.8236C21.5099 27.5569 18.7958 28.4998 15.9999 28.4998Z" fill="black"/>
</svg>
