<svg xmlns="http://www.w3.org/2000/svg" width="32" height="32" viewBox="0 0 32 32"><path d="M26.556 25.1422C28.8849 22.4762 30.114 19.0251 29.9947 15.4872C29.8754 11.9493 28.4166 8.58877 25.9135 6.08567C23.4104 3.58258 20.05 2.1238 16.5121 2.00452C12.9742 1.88524 9.52304 3.11436 6.85704 5.44318L3.70704 2.29318C3.51844 2.11102 3.26584 2.01022 3.00364 2.0125C2.74144 2.01478 2.49063 2.11995 2.30522 2.30536C2.11981 2.49077 2.01465 2.74158 2.01237 3.00377C2.01009 3.26597 2.11088 3.51857 2.29304 3.70718L8.29304 9.70718C8.48164 9.88933 8.73425 9.99013 8.99644 9.98785C9.25864 9.98557 9.50945 9.8804 9.69486 9.69499C9.88027 9.50959 9.98544 9.25877 9.98771 8.99658C9.98999 8.73438 9.8892 8.48178 9.70704 8.29318L8.27004 6.85618C10.5612 4.90669 13.5024 3.89138 16.5082 4.01232C19.5141 4.13325 22.3642 5.38157 24.4914 7.50882C26.6185 9.63607 27.8666 12.4863 27.9874 15.4921C28.1081 18.498 27.0927 21.4391 25.143 23.7302L19.707 18.2942C19.5184 18.112 19.2658 18.0112 19.0036 18.0135C18.7414 18.0158 18.4906 18.1209 18.3052 18.3064C18.1198 18.4918 18.0146 18.7426 18.0124 19.0048C18.0101 19.267 18.1109 19.5196 18.293 19.7082L28.293 29.7082C28.4816 29.8903 28.7342 29.9911 28.9964 29.9888C29.2586 29.9866 29.5095 29.8814 29.6949 29.696C29.8803 29.5106 29.9854 29.2598 29.9877 28.9976C29.99 28.7354 29.8892 28.4828 29.707 28.2942L26.557 25.1442L26.556 25.1422Z M16 27.9999C12.9924 27.9957 10.0958 26.8632 7.88304 24.8261C5.67028 22.7891 4.30244 19.9959 4.04999 16.9989H13.585L11.293 19.2929C11.1975 19.3851 11.1213 19.4955 11.0689 19.6175C11.0165 19.7395 10.9889 19.8707 10.9877 20.0035C10.9866 20.1363 11.0119 20.2679 11.0622 20.3908C11.1125 20.5137 11.1867 20.6254 11.2806 20.7193C11.3745 20.8132 11.4861 20.8874 11.609 20.9377C11.7319 20.988 11.8636 21.0133 11.9964 21.0121C12.1292 21.011 12.2604 20.9834 12.3824 20.931C12.5044 20.8786 12.6147 20.8024 12.707 20.7069L16.706 16.7069C16.8935 16.5194 16.9988 16.2651 16.9988 15.9999C16.9988 15.7347 16.8935 15.4804 16.706 15.2929L12.707 11.2929C12.5184 11.1107 12.2658 11.0099 12.0036 11.0122C11.7414 11.0145 11.4906 11.1197 11.3052 11.3051C11.1198 11.4905 11.0146 11.7413 11.0123 12.0035C11.01 12.2657 11.1108 12.5183 11.293 12.7069L13.585 14.9999L4.04699 14.9989C4.19897 13.2038 4.75519 11.4664 5.67399 9.91689L4.21999 8.46289C2.49316 11.1473 1.73711 14.3418 2.07756 17.5155C2.418 20.6891 3.83442 23.6506 6.09134 25.9076C8.34825 28.1647 11.3097 29.5813 14.4833 29.9219C17.6569 30.2625 20.8515 29.5066 23.536 27.7799L22.083 26.3269C20.2426 27.4212 18.1412 27.9992 16 27.9999Z"/></svg>