<svg xmlns="http://www.w3.org/2000/svg" width="32" height="32" viewBox="0 0 32 32"><path d="M16 2C13.2311 2 10.5243 2.82109 8.22202 4.35943C5.91973 5.89777 4.12532 8.08427 3.06569 10.6424C2.00607 13.2006 1.72882 16.0155 2.26901 18.7313C2.80921 21.447 4.14258 23.9416 6.10051 25.8995C8.05845 27.8574 10.553 29.1908 13.2687 29.731C15.9845 30.2712 18.7994 29.9939 21.3576 28.9343C23.9157 27.8747 26.1022 26.0803 27.6406 23.778C29.1789 21.4757 30 18.7689 30 16C29.996 12.2882 28.5198 8.72954 25.8951 6.10489C23.2705 3.48024 19.7118 2.00397 16 2ZM16 28C12.9925 27.9956 10.096 26.863 7.8833 24.826C5.67059 22.789 4.30268 19.9959 4.05001 16.999H13.586L11.293 19.293C11.1522 19.4325 11.0561 19.6107 11.017 19.805C10.9779 19.9993 10.9975 20.2008 11.0733 20.3839C11.1492 20.567 11.2778 20.7234 11.4428 20.8331C11.6079 20.9428 11.8018 21.0009 12 21C12.2652 20.9999 12.5195 20.8946 12.707 20.707L16.707 16.707C16.8945 16.5195 16.9998 16.2652 16.9998 16C16.9998 15.7348 16.8945 15.4805 16.707 15.293L12.707 11.293C12.5184 11.1108 12.2658 11.01 12.0036 11.0123C11.7414 11.0146 11.4906 11.1198 11.3052 11.3052C11.1198 11.4906 11.0146 11.7414 11.0123 12.0036C11.0101 12.2658 11.1108 12.5184 11.293 12.707L13.585 15L4.05101 14.999C4.24602 12.6772 5.11297 10.4624 6.54599 8.62515C7.979 6.78793 9.91604 5.40779 12.1205 4.65331C14.325 3.89884 16.7015 3.80268 18.9597 4.37659C21.2179 4.9505 23.2601 6.16963 24.8369 7.88508C26.4136 9.60053 27.4567 11.738 27.8386 14.0365C28.2206 16.335 27.9249 18.695 26.9877 20.8282C26.0505 22.9614 24.5123 24.7755 22.5611 26.0489C20.6099 27.3223 18.33 28 16 27.999V28Z"/></svg>