<svg xmlns="http://www.w3.org/2000/svg" width="32" height="32" viewBox="0 0 32 32"><path d="M16.5 6.50195C16.5 6.78125 16.2766 7.00195 16 7.00195C15.7234 7.00195 15.5 6.78125 15.5 6.50195V5.00554C15.5 4.72624 15.7234 4.50195 16 4.50195C16.2766 4.50195 16.5 4.72624 16.5 5.00554V6.50195Z M18.1013 9.54496C18.772 9.82937 19.3741 10.2508 19.8679 10.7816C20.3684 11.3343 20.747 11.9838 20.9797 12.6886C21.2123 13.3935 21.2939 14.1384 21.2192 14.8761C21.1723 15.3991 21.0453 15.9121 20.8426 16.3975L19.2269 19.742C19.2169 19.7628 19.2113 19.7854 19.2104 19.8085L19.213 24.2936C19.2261 25.1129 18.9157 25.905 18.3475 26.5024C17.7793 27.0998 16.9979 27.4556 16.1686 27.4946C16.1124 27.4972 16.0556 27.4985 15.9981 27.4985C15.5711 27.5058 15.1471 27.4277 14.7515 27.2689C14.356 27.11 13.9972 26.8737 13.6968 26.5741C13.3964 26.2746 13.1606 25.9181 13.0037 25.5261C12.8468 25.1342 12.772 24.7149 12.7838 24.2936V19.7864C12.7799 19.7714 12.7748 19.7568 12.7686 19.7427L11.1642 16.4198C10.9556 15.9283 10.825 15.408 10.7769 14.8773C10.7021 14.1396 10.7836 13.3945 11.0163 12.6895C11.2489 11.9846 11.6276 11.335 12.1283 10.7822C12.6159 10.2553 13.2107 9.83596 13.8738 9.55151C14.5368 9.26706 15.2533 9.12396 15.9763 9.13156C16.7062 9.11965 17.4305 9.26055 18.1013 9.54496ZM18.1977 23.8254L18.197 22.1544H13.7985L13.7988 23.8254H18.1977ZM14.6286 26.039C15.0176 26.3435 15.5016 26.5053 15.9981 26.4967C16.4946 26.5054 16.9788 26.3436 17.3679 26.0391C17.7571 25.7346 18.027 25.3063 18.1317 24.8271H13.8652C13.9698 25.3062 14.2396 25.7345 14.6286 26.039ZM19.9161 15.9887C20.0739 15.604 20.1724 15.1982 20.2082 14.7848C20.2738 14.1855 20.2107 13.5793 20.0228 13.0059C19.8349 12.4324 19.5265 11.9045 19.1178 11.4566C18.7246 11.0334 18.2454 10.6968 17.7115 10.4688C17.1776 10.2408 16.6009 10.1265 16.0192 10.1333C15.4305 10.122 14.8461 10.2342 14.3047 10.4624C13.7632 10.6907 13.277 11.0298 12.8783 11.4573C12.4695 11.9051 12.1611 12.433 11.9733 13.0065C11.7854 13.58 11.7222 14.1862 11.7879 14.7854C11.8249 15.2069 11.927 15.6204 12.0906 16.0115L13.6838 19.3109C13.753 19.4529 13.792 19.6074 13.7982 19.7649L13.7984 21.1527H15.4905V16.9787C15.4905 16.8459 15.544 16.7185 15.6392 16.6245C15.7344 16.5306 15.8635 16.4778 15.9981 16.4778C16.1327 16.4778 16.2617 16.5306 16.3569 16.6245C16.4521 16.7185 16.5056 16.8459 16.5056 16.9787V21.1527H18.1966L18.196 19.787C18.2001 19.6216 18.2395 19.459 18.3116 19.3096L19.9161 15.9887Z M21.8558 9.40562C22.0514 9.6012 22.3654 9.60311 22.5629 9.40562L23.621 8.34749C23.8185 8.15 23.8191 7.83343 23.6236 7.63785C23.428 7.44227 23.1114 7.44289 22.9139 7.64038L21.8558 8.69851C21.6583 8.89601 21.6602 9.21003 21.8558 9.40562Z M9.43709 9.40562C9.63458 9.60311 9.94861 9.6012 10.1442 9.40562C10.3398 9.21003 10.3417 8.89601 10.1442 8.69851L9.08607 7.64038C8.88857 7.44289 8.57201 7.44227 8.37643 7.63785C8.18084 7.83343 8.18147 8.15 8.37896 8.34749L9.43709 9.40562Z M26 14.2578C26 13.9812 25.7793 13.7578 25.5 13.7578H24.0036C23.7243 13.7578 23.5 13.9812 23.5 14.2578C23.5 14.5344 23.7243 14.7578 24.0036 14.7578H25.5C25.7793 14.7578 26 14.5344 26 14.2578Z M8 13.7578C8.2793 13.7578 8.5 13.9812 8.5 14.2578C8.5 14.5344 8.2793 14.7578 8 14.7578H6.50358C6.22428 14.7578 6 14.5344 6 14.2578C6 13.9812 6.22428 13.7578 6.50358 13.7578H8Z M21.8558 19.1115C22.0514 18.9159 22.3654 18.914 22.5629 19.1115L23.621 20.1696C23.8185 20.3671 23.8192 20.6836 23.6236 20.8792C23.428 21.0748 23.1114 21.0742 22.9139 20.8767L21.8558 19.8186C21.6583 19.6211 21.6602 19.307 21.8558 19.1115Z M10.1513 19.8186C10.3488 19.6211 10.3469 19.3071 10.1513 19.1115C9.95577 18.916 9.64174 18.914 9.44424 19.1115L8.38612 20.1697C8.18862 20.3672 8.188 20.6837 8.38358 20.8793C8.57917 21.0749 8.89573 21.0743 9.09322 20.8768L10.1513 19.8186Z"/></svg>