<svg width="32" height="32" viewBox="0 0 32 32" fill="none" xmlns="http://www.w3.org/2000/svg">
<path d="M17.9983 24.9985L9.85821 25C9.61482 24.0573 9.03598 23.2358 8.23021 22.6894C7.42443 22.143 6.44703 21.9092 5.48121 22.0319C4.5154 22.1546 3.62748 22.6253 2.98389 23.3558C2.3403 24.0863 1.98523 25.0264 1.98523 26C1.98523 26.9736 2.3403 27.9137 2.98389 28.6442C3.62748 29.3747 4.5154 29.8454 5.48121 29.9681C6.44703 30.0908 7.42443 29.857 8.23021 29.3106C9.03598 28.7642 9.61482 27.9427 9.85821 27L17.9982 26.9982C18.2634 26.9982 18.5178 26.8928 18.7053 26.7053C18.8929 26.5178 18.9982 26.2634 18.9982 25.9982C18.9982 25.733 18.8929 25.4786 18.7053 25.2911C18.5178 25.1036 18.2635 24.9985 17.9983 24.9985ZM6.00001 28C5.60445 28 5.21777 27.8827 4.88887 27.6629C4.55997 27.4432 4.30363 27.1308 4.15225 26.7654C4.00088 26.3999 3.96127 25.9978 4.03844 25.6098C4.11561 25.2219 4.30609 24.8655 4.5858 24.5858C4.8655 24.3061 5.22187 24.1156 5.60983 24.0384C5.99779 23.9613 6.39993 24.0009 6.76538 24.1522C7.13083 24.3036 7.44319 24.56 7.66295 24.8889C7.88271 25.2178 8.00001 25.6044 8.00001 26C7.9994 26.5302 7.7885 27.0386 7.41355 27.4135C7.03861 27.7885 6.53026 27.9994 6.00001 28Z" fill="black"/>
<path d="M14 6.9985L22.14 7C22.3834 7.94265 22.9622 8.76419 23.768 9.3106C24.5738 9.85701 25.5512 10.0908 26.517 9.96811C27.4828 9.84544 28.3707 9.37473 29.0143 8.64423C29.6579 7.91372 30.013 6.97357 30.013 6C30.013 5.02642 29.6579 4.08627 29.0143 3.35576C28.3707 2.62526 27.4828 2.15455 26.517 2.03188C25.5512 1.9092 24.5738 2.14298 23.768 2.68939C22.9622 3.23581 22.3834 4.05734 22.14 5L14 4.9985C13.7348 4.9985 13.4804 5.10385 13.2929 5.29139C13.1054 5.47893 13 5.73328 13 5.9985C13 6.26371 13.1054 6.51807 13.2929 6.7056C13.4804 6.89314 13.7348 6.9985 14 6.9985ZM25.9983 4C26.3939 4 26.7806 4.11729 27.1095 4.33706C27.4384 4.55682 27.6947 4.86918 27.8461 5.23463C27.9974 5.60008 28.0371 6.00221 27.9599 6.39018C27.8827 6.77814 27.6922 7.1345 27.4125 7.41421C27.1328 7.69391 26.7765 7.8844 26.3885 7.96157C26.0005 8.03874 25.5984 7.99913 25.2329 7.84776C24.8675 7.69638 24.5551 7.44003 24.3354 7.11114C24.1156 6.78224 23.9983 6.39556 23.9983 6C23.9989 5.46975 24.2098 4.9614 24.5848 4.58645C24.9597 4.21151 25.4681 4.0006 25.9983 4Z" fill="black"/>
<path d="M27 22.1481L27.0022 14.0081C27.0022 13.7429 26.8969 13.4885 26.7093 13.301C26.5218 13.1135 26.2674 13.0081 26.0022 13.0081C25.737 13.0081 25.4826 13.1135 25.2951 13.301C25.1076 13.4885 25.0022 13.7429 25.0022 14.0081L25 22.1486C24.0574 22.392 23.2358 22.9708 22.6894 23.7766C22.143 24.5824 21.9092 25.5598 22.0319 26.5256C22.1546 27.4914 22.6253 28.3793 23.3558 29.0229C24.0863 29.6665 25.0264 30.0216 26 30.0216C26.9736 30.0216 27.9137 29.6665 28.6442 29.0229C29.3748 28.3793 29.8455 27.4914 29.9681 26.5256C30.0908 25.5598 29.857 24.5824 29.3106 23.7766C28.7642 22.9708 27.9427 22.3915 27 22.1481ZM26 28.0063C25.6045 28.0063 25.2178 27.889 24.8889 27.6692C24.56 27.4495 24.3036 27.1371 24.1523 26.7717C24.0009 26.4062 23.9613 26.0041 24.0384 25.6161C24.1156 25.2282 24.3061 24.8718 24.5858 24.5921C24.8655 24.3124 25.2219 24.1219 25.6098 24.0447C25.9978 23.9676 26.3999 24.0072 26.7654 24.1585C27.1308 24.3099 27.4432 24.5663 27.663 24.8952C27.8827 25.2241 28 25.6107 28 26.0063C27.9994 26.5365 27.7885 27.0449 27.4136 27.4198C27.0386 27.7948 26.5303 28.0057 26 28.0063Z" fill="black"/>
<path d="M5.00001 9.866L5.00221 18.006C5.00221 18.2712 5.10757 18.5256 5.29511 18.7131C5.48264 18.9006 5.737 19.006 6.00221 19.006C6.26743 19.006 6.52178 18.9006 6.70932 18.7131C6.89686 18.5256 7.00221 18.2712 7.00221 18.006L7.00001 9.8665C7.94273 9.62334 8.76441 9.04471 9.31102 8.23907C9.85764 7.43342 10.0917 6.45608 9.96923 5.49024C9.84679 4.52439 9.37631 3.63636 8.64596 2.99259C7.91562 2.34881 6.97556 1.99351 6.00198 1.99326C5.02841 1.99302 4.08817 2.34786 3.3575 2.99126C2.62683 3.63467 2.1559 4.52247 2.03299 5.48825C1.91007 6.45404 2.14361 7.4315 2.68982 8.23741C3.23603 9.04333 4.05742 9.62237 5.00001 9.866ZM6.00001 4.0083C6.39558 4.0083 6.78226 4.12559 7.11115 4.34536C7.44005 4.56512 7.6964 4.87748 7.84777 5.24293C7.99915 5.60838 8.03875 6.01052 7.96158 6.39848C7.88441 6.78644 7.69393 7.14281 7.41423 7.42251C7.13452 7.70222 6.77816 7.8927 6.39019 7.96987C6.00223 8.04704 5.6001 8.00743 5.23465 7.85606C4.86919 7.70468 4.55684 7.44834 4.33707 7.11944C4.11731 6.79054 4.00001 6.40386 4.00001 6.0083C4.00062 5.47805 4.21153 4.9697 4.58647 4.59476C4.96141 4.21981 5.46977 4.0089 6.00001 4.0083Z" fill="black"/>
</svg>
