<svg xmlns="http://www.w3.org/2000/svg" width="32" height="32" viewBox="0 0 32 32"><path d="M18.25 7C18.25 6.58579 18.5858 6.25 19 6.25H25C25.4142 6.25 25.75 6.58579 25.75 7V13C25.75 13.4142 25.4142 13.75 25 13.75C24.5858 13.75 24.25 13.4142 24.25 13V8.81066L16.3107 16.75H7C6.58579 16.75 6.25 16.4142 6.25 16C6.25 15.5858 6.58579 15.25 7 15.25H15.6893L23.1893 7.75H19C18.5858 7.75 18.25 7.41421 18.25 7ZM23.1893 24.25L17.4697 18.5303C17.1768 18.2374 17.1768 17.7626 17.4697 17.4697C17.7626 17.1768 18.2374 17.1768 18.5303 17.4697L24.25 23.1893V19C24.25 18.5858 24.5858 18.25 25 18.25C25.4142 18.25 25.75 18.5858 25.75 19V25C25.75 25.4142 25.4142 25.75 25 25.75H19C18.5858 25.75 18.25 25.4142 18.25 25C18.25 24.5858 18.5858 24.25 19 24.25H23.1893Z"/></svg>