<svg xmlns="http://www.w3.org/2000/svg" width="32" height="32" viewBox="0 0 32 32"><path d="M18 7C18 6.44772 18.4477 6 19 6H25C25.5523 6 26 6.44772 26 7V13C26 13.5523 25.5523 14 25 14C24.4477 14 24 13.5523 24 13V9.41421L16.4142 17H7C6.44772 17 6 16.5523 6 16C6 15.4477 6.44772 15 7 15H15.5858L22.5858 8H19C18.4477 8 18 7.55228 18 7ZM22.5858 24L17.2929 18.7071C16.9024 18.3166 16.9024 17.6834 17.2929 17.2929C17.6834 16.9024 18.3166 16.9024 18.7071 17.2929L24 22.5858V19C24 18.4477 24.4477 18 25 18C25.5523 18 26 18.4477 26 19V25C26 25.5523 25.5523 26 25 26H19C18.4477 26 18 25.5523 18 25C18 24.4477 18.4477 24 19 24H22.5858Z"/></svg>