<svg width="32" height="32" viewBox="0 0 32 32" fill="none" xmlns="http://www.w3.org/2000/svg">
<path d="M28 19.5H20C19.6023 19.5003 19.2209 19.6584 18.9396 19.9396C18.6584 20.2209 18.5003 20.6023 18.5 21V27C18.5005 27.3977 18.6587 27.7789 18.9399 28.0601C19.2211 28.3413 19.6023 28.4995 20 28.5H28C28.3977 28.4995 28.7789 28.3413 29.0601 28.0601C29.3413 27.7789 29.4995 27.3977 29.5 27V21C29.4995 20.6023 29.3413 20.2211 29.0601 19.9399C28.7789 19.6587 28.3977 19.5005 28 19.5V19.5ZM20 20.5H28C28.0981 20.5001 28.1941 20.529 28.2759 20.5833C28.3577 20.6375 28.4217 20.7146 28.46 20.805L24.355 24.352C24.259 24.445 24.133 24.544 23.999 24.498C23.9268 24.4959 23.8557 24.4793 23.79 24.449C23.7244 24.4188 23.6655 24.3756 23.617 24.322L19.54 20.805C19.5785 20.7148 19.6426 20.6378 19.7243 20.5836C19.8061 20.5294 19.9019 20.5003 20 20.5ZM28 27.5H20C19.8675 27.4997 19.7404 27.447 19.6467 27.3533C19.553 27.2596 19.5003 27.1325 19.5 27V22.091L22.935 25.053C23.0736 25.1937 23.2387 25.3054 23.4209 25.3816C23.6031 25.4578 23.7985 25.497 23.996 25.497L24.001 25.498C24.3866 25.501 24.758 25.3523 25.035 25.084L28.5 22.094V27C28.5 27.1326 28.4473 27.2598 28.3536 27.3536C28.2598 27.4473 28.1326 27.5 28 27.5V27.5Z" fill="#0F0F0F"/>
<path d="M14 28.503C8.783 28.503 3.5 26.983 3.5 24.076C3.5 18.886 8.31 14.5 14 14.5C16.22 14.493 18.388 15.16 20.22 16.412C20.3293 16.4784 20.4599 16.5004 20.585 16.4735C20.7101 16.4465 20.82 16.3727 20.8923 16.2671C20.9645 16.1616 20.9936 16.0323 20.9734 15.906C20.9533 15.7797 20.8855 15.6658 20.784 15.588C19.5664 14.7534 18.2038 14.1534 16.766 13.819C17.9594 13.1991 18.91 12.1963 19.4652 10.9714C20.0204 9.74654 20.148 8.37067 19.8275 7.06459C19.5071 5.75852 18.7571 4.59797 17.698 3.76919C16.6389 2.94042 15.3321 2.49147 13.9873 2.4944C12.6425 2.49733 11.3377 2.95197 10.2822 3.78535C9.22673 4.61873 8.48184 5.78254 8.16706 7.09C7.85229 8.39746 7.98588 9.77276 8.5464 10.9952C9.10692 12.2176 10.0619 13.2163 11.258 13.831C6.3 14.997 2.5 19.21 2.5 24.076C2.5 27.805 8.461 29.503 14 29.503C14.1326 29.503 14.2598 29.4503 14.3536 29.3565C14.4473 29.2628 14.5 29.1356 14.5 29.003C14.5 28.8704 14.4473 28.7432 14.3536 28.6494C14.2598 28.5557 14.1326 28.503 14 28.503ZM9 8.49999C9 7.1739 9.52678 5.90213 10.4645 4.96445C11.4021 4.02677 12.6739 3.49999 14 3.49999C15.3261 3.49999 16.5979 4.02677 17.5355 4.96445C18.4732 5.90213 19 7.1739 19 8.49999C19 9.82607 18.4732 11.0978 17.5355 12.0355C16.5979 12.9732 15.3261 13.5 14 13.5C12.6739 13.5 11.4021 12.9732 10.4645 12.0355C9.52678 11.0978 9 9.82607 9 8.49999V8.49999Z" fill="#0F0F0F"/>
</svg>
