<svg width="32" height="32" viewBox="0 0 32 32" fill="none" xmlns="http://www.w3.org/2000/svg">
<path d="M24.9996 5.24977H12.9996C12.8007 5.24977 12.61 5.32879 12.4693 5.46944C12.3287 5.61009 12.2496 5.80086 12.2496 5.99977C12.2496 6.19868 12.3287 6.38945 12.4693 6.5301C12.61 6.67075 12.8007 6.74977 12.9996 6.74977H17.9913L12.4412 25.2498H6.99963C6.80072 25.2498 6.60996 25.3288 6.4693 25.4694C6.32865 25.6101 6.24963 25.8009 6.24963 25.9998C6.24963 26.1987 6.32865 26.3895 6.4693 26.5301C6.60996 26.6708 6.80072 26.7498 6.99963 26.7498H18.9996C19.1985 26.7498 19.3893 26.6708 19.53 26.5301C19.6706 26.3895 19.7496 26.1987 19.7496 25.9998C19.7496 25.8009 19.6706 25.6101 19.53 25.4694C19.3893 25.3288 19.1985 25.2498 18.9996 25.2498H14.0081L19.558 6.74977H24.9996C25.1985 6.74977 25.3893 6.67075 25.53 6.5301C25.6706 6.38945 25.7496 6.19868 25.7496 5.99977C25.7496 5.80086 25.6706 5.61009 25.53 5.46944C25.3893 5.32879 25.1985 5.24977 24.9996 5.24977Z" fill="black"/>
</svg>
