<svg width="32" height="32" viewBox="0 0 32 32" fill="none" xmlns="http://www.w3.org/2000/svg">
<path d="M24.9996 4.99977H12.9996C12.7344 4.99977 12.4801 5.10513 12.2925 5.29266C12.105 5.4802 11.9996 5.73455 11.9996 5.99977C11.9996 6.26499 12.105 6.51934 12.2925 6.70688C12.4801 6.89441 12.7344 6.99977 12.9996 6.99977H17.6555L12.2555 24.9998H6.99963C6.73442 24.9998 6.48006 25.1051 6.29253 25.2927C6.10499 25.4802 5.99963 25.7346 5.99963 25.9998C5.99963 26.265 6.10499 26.5193 6.29253 26.7069C6.48006 26.8944 6.73442 26.9998 6.99963 26.9998H18.9996C19.2649 26.9998 19.5192 26.8944 19.7067 26.7069C19.8943 26.5193 19.9996 26.265 19.9996 25.9998C19.9996 25.7346 19.8943 25.4802 19.7067 25.2927C19.5192 25.1051 19.2649 24.9998 18.9996 24.9998H14.3437L19.7437 6.99977H24.9996C25.2648 6.99977 25.5192 6.89441 25.7067 6.70688C25.8942 6.51934 25.9996 6.26499 25.9996 5.99977C25.9996 5.73455 25.8942 5.4802 25.7067 5.29266C25.5192 5.10513 25.2649 4.99977 24.9996 4.99977Z" fill="black"/>
</svg>
