<svg width="32" height="32" viewBox="0 0 32 32" fill="none" xmlns="http://www.w3.org/2000/svg">
<path d="M24.0005 27.9997H22.021C20.7557 28.0294 19.5285 27.566 18.5987 26.7074C17.6689 25.8488 17.1094 24.6623 17.0384 23.3987C18.2934 23.1565 19.425 22.4854 20.2394 21.5004C21.0539 20.5154 21.5004 19.2778 21.5024 17.9997V7.99974C21.5023 6.59038 20.9612 5.23484 19.9907 4.21286C19.0202 3.19088 17.6944 2.58046 16.287 2.50755C14.8795 2.43465 13.4977 2.90483 12.4268 3.82107C11.3559 4.73732 10.6777 6.02969 10.5319 7.4315C10.7135 7.58843 15.1216 11.8786 15.1216 11.8786C15.4002 12.1571 15.6213 12.4878 15.7721 12.8517C15.9229 13.2157 16.0005 13.6058 16.0005 13.9997C16.0005 14.3937 15.9229 14.7838 15.7721 15.1477C15.6213 15.5117 15.4002 15.8423 15.1216 16.1208C15.1216 16.1208 11.028 20.1888 10.982 20.2348C11.3472 21.0516 11.9058 21.7671 12.6094 22.3198C13.3129 22.8724 14.1405 23.2455 15.0205 23.4069C15.1042 25.1397 15.8339 26.7782 17.0657 27.9997H8.00049C7.73527 27.9997 7.48092 28.1051 7.29338 28.2926C7.10584 28.4801 7.00049 28.7345 7.00049 28.9997C7.00049 29.2649 7.10584 29.5193 7.29338 29.7068C7.48092 29.8944 7.73527 29.9997 8.00049 29.9997H24.0005C24.2657 29.9997 24.5201 29.8944 24.7076 29.7068C24.8951 29.5193 25.0005 29.2649 25.0005 28.9997C25.0005 28.7345 24.8951 28.4801 24.7076 28.2926C24.5201 28.1051 24.2657 27.9997 24.0005 27.9997Z" fill="black"/>
<path d="M10.5864 14.9997L8.29342 17.2927C8.20057 17.3856 8.12692 17.4958 8.07667 17.6171C8.02642 17.7384 8.00056 17.8685 8.00056 17.9998C8.00056 18.1311 8.02642 18.2611 8.07667 18.3824C8.12692 18.5037 8.20057 18.6139 8.29342 18.7068C8.38627 18.7996 8.49649 18.8733 8.61781 18.9235C8.73912 18.9738 8.86914 18.9997 9.00045 18.9997C9.13176 18.9997 9.26178 18.9738 9.38309 18.9235C9.5044 18.8733 9.61463 18.7996 9.70748 18.7068L13.7075 14.7068C13.8004 14.614 13.874 14.5037 13.9243 14.3824C13.9746 14.2611 14.0004 14.1311 14.0004 13.9998C14.0004 13.8684 13.9746 13.7384 13.9243 13.6171C13.874 13.4958 13.8004 13.3856 13.7075 13.2927L9.70748 9.29274C9.51953 9.10734 9.26588 9.0038 9.00188 9.0047C8.73788 9.0056 8.48495 9.11088 8.29827 9.29755C8.11159 9.48423 8.00631 9.73717 8.00541 10.0012C8.00451 10.2652 8.10806 10.5188 8.29346 10.7068L10.5865 12.9998H5.00049C4.73527 12.9998 4.48092 13.1051 4.29338 13.2927C4.10584 13.4802 4.00049 13.7346 4.00049 13.9998C4.00049 14.265 4.10584 14.5193 4.29338 14.7069C4.48092 14.8944 4.73527 14.9998 5.00049 14.9998L10.5864 14.9997Z" fill="black"/>
</svg>
