<svg xmlns="http://www.w3.org/2000/svg" width="32" height="32" viewBox="0 0 32 32"><path d="M24 27.9998H22.021C20.841 28.0289 19.6905 27.629 18.783 26.8743C17.8755 26.1196 17.2725 25.0613 17.086 23.8958C18.4644 23.6409 19.7102 22.9119 20.6077 21.8351C21.5051 20.7583 21.9977 19.4015 22 17.9998V7.99977C21.9994 6.62154 21.5244 5.28554 20.6548 4.21626C19.7852 3.14698 18.5741 2.4096 17.225 2.12804C15.8758 1.84647 14.4709 2.03789 13.2462 2.67011C12.0215 3.30234 11.0518 4.33684 10.5 5.59977C10.3939 5.84271 10.3887 6.11784 10.4854 6.36463C10.5822 6.61143 10.7731 6.80968 11.016 6.91577C11.2589 7.02185 11.5341 7.02709 11.7809 6.93032C12.0277 6.83355 12.2259 6.64271 12.332 6.39977C12.6997 5.55733 13.3462 4.86718 14.1628 4.44534C14.9795 4.02351 15.9165 3.89572 16.8162 4.08347C17.716 4.27122 18.5237 4.76305 19.1035 5.47627C19.6834 6.18949 19.9999 7.0806 20 7.99977V17.9998C20 18.8393 19.7359 19.6575 19.245 20.3386C18.7541 21.0197 18.0614 21.529 17.2649 21.7945C16.4685 22.06 15.6087 22.0681 14.8073 21.8178C14.006 21.5675 13.3037 21.0714 12.8 20.3998C12.6409 20.1876 12.404 20.0473 12.1414 20.0098C11.8789 19.9723 11.6122 20.0406 11.4 20.1998C11.1878 20.3589 11.0476 20.5958 11.0101 20.8583C10.9725 21.1209 11.0409 21.3876 11.2 21.5998C12.1337 22.8506 13.522 23.6839 15.065 23.9198C15.2532 25.4662 15.9579 26.9038 17.065 27.9998H8C7.73478 27.9998 7.48043 28.1051 7.29289 28.2927C7.10536 28.4802 7 28.7346 7 28.9998C7 29.265 7.10536 29.5193 7.29289 29.7069C7.48043 29.8944 7.73478 29.9998 8 29.9998H24C24.2652 29.9998 24.5196 29.8944 24.7071 29.7069C24.8946 29.5193 25 29.265 25 28.9998C25 28.7346 24.8946 28.4802 24.7071 28.2927C24.5196 28.1051 24.2652 27.9998 24 27.9998Z M8.293 17.2932C8.20016 17.3861 8.12652 17.4964 8.0763 17.6178C8.02608 17.7391 8.00025 17.8692 8.0003 18.0006C8.00034 18.1319 8.02626 18.262 8.07657 18.3833C8.12688 18.5046 8.20059 18.6149 8.2935 18.7077C8.38641 18.8005 8.4967 18.8742 8.61807 18.9244C8.73943 18.9746 8.86951 19.0005 9.00085 19.0004C9.1322 19.0004 9.26226 18.9744 9.38359 18.9241C9.50492 18.8738 9.61516 18.8001 9.708 18.7072L13.708 14.7072C13.8955 14.5197 14.0008 14.2654 14.0008 14.0002C14.0008 13.735 13.8955 13.4807 13.708 13.2932L9.708 9.2932C9.52049 9.10556 9.26612 9.00009 9.00085 9C8.73558 8.99991 8.48114 9.10519 8.2935 9.2927C8.10586 9.48021 8.00039 9.73458 8.0003 9.99985C8.0002 10.2651 8.10549 10.5196 8.293 10.7072L10.586 13.0002H5C4.73478 13.0002 4.48043 13.1056 4.29289 13.2931C4.10536 13.4806 4 13.735 4 14.0002C4 14.2654 4.10536 14.5198 4.29289 14.7073C4.48043 14.8948 4.73478 15.0002 5 15.0002H10.586L8.293 17.2932Z"/></svg>