<svg width="32" height="32" viewBox="0 0 32 32" fill="none" xmlns="http://www.w3.org/2000/svg">
<path d="M24 28.2501H22.021C20.7391 28.2803 19.4926 27.8278 18.5285 26.9823C17.5645 26.1368 16.9533 24.96 16.816 23.6851C18.1841 23.4881 19.4356 22.8053 20.3416 21.7614C21.2476 20.7175 21.7475 19.3823 21.75 18.0001V8.00012C21.7502 6.67901 21.2955 5.39811 20.4624 4.37283C19.6293 3.34756 18.4685 2.64045 17.1752 2.37042C15.882 2.10039 14.5353 2.28392 13.3615 2.89014C12.1877 3.49636 11.2584 4.48829 10.73 5.69912C10.6501 5.88145 10.646 6.08804 10.7185 6.27342C10.791 6.4588 10.9341 6.60779 11.1165 6.68762C11.2988 6.76745 11.5054 6.77158 11.6908 6.69909C11.8762 6.62661 12.0251 6.48346 12.105 6.30112C12.4956 5.40643 13.1823 4.67348 14.0496 4.22549C14.917 3.77749 15.9122 3.64176 16.8678 3.8411C17.8235 4.04045 18.6814 4.56272 19.2973 5.32012C19.9132 6.07753 20.2496 7.02389 20.25 8.00012V18.0001C20.25 18.8921 19.9693 19.7615 19.4478 20.4851C18.9262 21.2088 18.1902 21.7499 17.3439 22.032C16.4977 22.3141 15.5842 22.3228 14.7328 22.0568C13.8813 21.7908 13.1352 21.2637 12.6 20.5501C12.5409 20.4713 12.4668 20.4049 12.3821 20.3548C12.2973 20.3046 12.2035 20.2716 12.106 20.2577C12.0085 20.2437 11.9093 20.2491 11.8138 20.2736C11.7184 20.298 11.6288 20.341 11.55 20.4001C11.4712 20.4592 11.4048 20.5332 11.3546 20.618C11.3044 20.7027 11.2714 20.7966 11.2575 20.8941C11.2436 20.9916 11.249 21.0908 11.2734 21.1863C11.2979 21.2817 11.3409 21.3713 11.4 21.4501C11.861 22.0697 12.4433 22.589 13.1113 22.9765C13.7794 23.364 14.5193 23.6115 15.286 23.7041C15.3696 24.5856 15.6281 25.4416 16.0461 26.2221C16.4642 27.0026 17.0336 27.692 17.721 28.2501H8.00098C7.80206 28.2501 7.6113 28.3291 7.47065 28.4698C7.32999 28.6104 7.25098 28.8012 7.25098 29.0001C7.25098 29.199 7.32999 29.3898 7.47065 29.5304C7.6113 29.6711 7.80206 29.7501 8.00098 29.7501H24.001C24.1999 29.7501 24.3907 29.6711 24.5313 29.5304C24.672 29.3898 24.751 29.199 24.751 29.0001C24.751 28.8012 24.672 28.6104 24.5313 28.4698C24.3907 28.3291 24.1999 28.2501 24.001 28.2501H24Z" fill="#0F0F0F"/>
<path d="M8.47 17.4699C8.36426 17.5744 8.29206 17.7081 8.26262 17.8538C8.23317 17.9995 8.24783 18.1507 8.3047 18.2881C8.36158 18.4254 8.4581 18.5427 8.58194 18.625C8.70578 18.7073 8.85133 18.7507 9 18.7499C9.19882 18.7496 9.38942 18.6705 9.53 18.5299L13.53 14.5299C13.6705 14.3893 13.7493 14.1987 13.7493 13.9999C13.7493 13.8012 13.6705 13.6105 13.53 13.4699L9.53 9.46991C9.46134 9.39622 9.37854 9.33712 9.28654 9.29613C9.19454 9.25514 9.09522 9.23309 8.99452 9.23132C8.89382 9.22954 8.79379 9.24807 8.7004 9.28579C8.60701 9.32351 8.52218 9.37965 8.45096 9.45087C8.37974 9.52209 8.3236 9.60692 8.28588 9.70031C8.24816 9.7937 8.22963 9.89373 8.23141 9.99443C8.23318 10.0951 8.25523 10.1944 8.29622 10.2864C8.33721 10.3784 8.39631 10.4612 8.47 10.5299L11.19 13.2499H5C4.80109 13.2499 4.61032 13.3289 4.46967 13.4696C4.32902 13.6102 4.25 13.801 4.25 13.9999C4.25 14.1988 4.32902 14.3896 4.46967 14.5302C4.61032 14.6709 4.80109 14.7499 5 14.7499H11.19L8.47 17.4699V17.4699Z" fill="#0F0F0F"/>
</svg>
