<svg width="28" height="28" viewBox="0 0 28 28" fill="none" xmlns="http://www.w3.org/2000/svg">
<path d="M14 0C14.4832 0 14.8974 0.345624 14.9838 0.821115C15.4875 3.59156 15.8532 5.59587 16.2893 7.11465C16.722 8.62179 17.1926 9.52838 17.8321 10.1679C18.4716 10.8074 19.3782 11.278 20.8853 11.7107C22.4041 12.1468 24.4084 12.5124 27.1788 13.0161C27.6543 13.1026 28 13.5167 28 14C28 14.4833 27.6543 14.8974 27.1788 14.9839C24.4084 15.4876 22.4041 15.8532 20.8853 16.2893C19.3782 16.722 18.4716 17.1926 17.8321 17.8321C17.1926 18.4716 16.722 19.3782 16.2893 20.8854C15.8532 22.4041 15.4875 24.4084 14.9838 27.1789C14.8974 27.6544 14.4832 28 14 28C13.5167 28 13.1025 27.6544 13.0161 27.1789C12.5124 24.4084 12.1468 22.4041 11.7107 20.8853C11.278 19.3782 10.8074 18.4716 10.1679 17.8321C9.52844 17.1926 8.62187 16.722 7.11474 16.2893C5.59598 15.8532 3.59168 15.4876 0.821237 14.9838C0.345746 14.8974 0.00012207 14.4833 0.00012207 14C0.00012207 13.5167 0.345746 13.1026 0.821237 13.0161C3.59164 12.5124 5.59592 12.1468 7.11468 11.7107C8.6218 11.278 9.52837 10.8074 10.1679 10.1679C10.8074 9.52838 11.2779 8.6218 11.7107 7.11465C12.1468 5.59587 12.5124 3.59156 13.0161 0.821115C13.1025 0.345624 13.5167 0 14 0Z" fill="#0F0F0F"/>
</svg>
