<svg width="28" height="28" viewBox="0 0 28 28" fill="none" xmlns="http://www.w3.org/2000/svg">
<path d="M14 0.5C14.2416 0.5 14.4487 0.672812 14.4919 0.910557C14.9938 3.67078 15.3641 5.70418 15.8087 7.25264C16.2516 8.79527 16.7525 9.79544 17.4786 10.5214C18.2046 11.2475 19.2047 11.7484 20.7474 12.1913C22.2958 12.6359 24.3292 13.0062 27.0894 13.5081C27.3272 13.5513 27.5 13.7584 27.5 14C27.5 14.2416 27.3272 14.4487 27.0894 14.4919C24.3292 14.9938 22.2958 15.3641 20.7474 15.8087C19.2047 16.2516 18.2046 16.7525 17.4786 17.4786C16.7525 18.2046 16.2516 19.2047 15.8087 20.7474C15.3641 22.2958 14.9938 24.3292 14.4919 27.0894C14.4487 27.3272 14.2416 27.5 14 27.5C13.7584 27.5 13.5513 27.3272 13.5081 27.0894C13.0062 24.3292 12.6359 22.2958 12.1913 20.7474C11.7484 19.2047 11.2475 18.2046 10.5214 17.4786C9.79544 16.7525 8.79527 16.2516 7.25264 15.8087C5.70418 15.3641 3.67078 14.9938 0.910557 14.4919C0.672812 14.4487 0.5 14.2416 0.5 14C0.5 13.7584 0.672812 13.5513 0.910557 13.5081C3.67078 13.0062 5.70418 12.6359 7.25264 12.1913C8.79527 11.7484 9.79544 11.2475 10.5214 10.5215C11.2475 9.79546 11.7484 8.7953 12.1913 7.25266C12.6359 5.7042 13.0062 3.67079 13.5081 0.910558C13.5513 0.672812 13.7584 0.5 14 0.5ZM14 3.7551C13.7156 5.24523 13.4512 6.48823 13.1525 7.52864C12.6891 9.14225 12.1275 10.3296 11.2286 11.2286C10.3296 12.1276 9.14223 12.6892 7.52861 13.1525C6.48821 13.4512 5.24522 13.7156 3.7551 14C5.24522 14.2844 6.48821 14.5488 7.52861 14.8475C9.14223 15.3109 10.3296 15.8725 11.2286 16.7714C12.1275 17.6704 12.6891 18.8578 13.1525 20.4714C13.4512 21.5118 13.7156 22.7548 14 24.2449C14.2844 22.7548 14.5488 21.5118 14.8475 20.4714C15.3109 18.8578 15.8725 17.6704 16.7714 16.7714C17.6704 15.8725 18.8578 15.3109 20.4714 14.8475C21.5118 14.5488 22.7548 14.2844 24.2449 14C22.7548 13.7156 21.5118 13.4512 20.4714 13.1525C18.8578 12.6891 17.6704 12.1275 16.7714 11.2286C15.8725 10.3296 15.3109 9.14223 14.8475 7.52861C14.5488 6.48821 14.2844 5.24522 14 3.7551Z" fill="#0F0F0F"/>
</svg>
