<svg width="32" height="32" viewBox="0 0 32 32" fill="none" xmlns="http://www.w3.org/2000/svg">
<path d="M25 5.25H7C5.74063 5.25132 4.53322 5.75219 3.6427 6.6427C2.75219 7.53322 2.25132 8.74063 2.25 10V21.784C2.25132 23.1007 2.77495 24.363 3.70597 25.294C4.63699 26.2251 5.89934 26.7487 7.216 26.75H24.783C26.0998 26.7487 27.3622 26.2251 28.2934 25.2941C29.2246 24.3631 29.7484 23.1008 29.75 21.784V10C29.7487 8.74063 29.2478 7.53322 28.3573 6.6427C27.4668 5.75219 26.2594 5.25132 25 5.25ZM28.25 21.784C28.2489 22.7029 27.8834 23.5839 27.2337 24.2337C26.5839 24.8834 25.7029 25.2489 24.784 25.25H7.215C6.29608 25.2489 5.41511 24.8834 4.76534 24.2337C4.11557 23.5839 3.75006 22.7029 3.749 21.784V10C3.75006 9.1382 4.09295 8.31201 4.70243 7.70272C5.31191 7.09343 6.1382 6.75079 7 6.75H25C25.8616 6.75106 26.6877 7.09381 27.2969 7.70307C27.9062 8.31234 28.2489 9.13837 28.25 10V21.784Z" fill="#0F0F0F"/>
<path d="M12.002 12.756C12.2672 12.756 12.5216 12.6506 12.7091 12.4631C12.8966 12.2756 13.002 12.0212 13.002 11.756C13.002 11.4908 12.8966 11.2364 12.7091 11.0489C12.5216 10.8614 12.2672 10.756 12.002 10.756C11.7368 10.756 11.4824 10.8614 11.2949 11.0489C11.1074 11.2364 11.002 11.4908 11.002 11.756C11.002 12.0212 11.1074 12.2756 11.2949 12.4631C11.4824 12.6506 11.7368 12.756 12.002 12.756V12.756ZM8 12.76C8.26522 12.76 8.51957 12.6546 8.70711 12.4671C8.89464 12.2796 9 12.0252 9 11.76C9 11.4948 8.89464 11.2404 8.70711 11.0529C8.51957 10.8654 8.26522 10.76 8 10.76C7.73478 10.76 7.48043 10.8654 7.29289 11.0529C7.10536 11.2404 7 11.4948 7 11.76C7 12.0252 7.10536 12.2796 7.29289 12.4671C7.48043 12.6546 7.73478 12.76 8 12.76ZM20 12.755C20.2652 12.755 20.5196 12.6496 20.7071 12.4621C20.8946 12.2746 21 12.0202 21 11.755C21 11.4898 20.8946 11.2354 20.7071 11.0479C20.5196 10.8604 20.2652 10.755 20 10.755C19.7348 10.755 19.4804 10.8604 19.2929 11.0479C19.1054 11.2354 19 11.4898 19 11.755C19 12.0202 19.1054 12.2746 19.2929 12.4621C19.4804 12.6496 19.7348 12.755 20 12.755ZM24 12.758C24.2652 12.758 24.5196 12.6526 24.7071 12.4651C24.8946 12.2776 25 12.0232 25 11.758C25 11.4928 24.8946 11.2384 24.7071 11.0509C24.5196 10.8634 24.2652 10.758 24 10.758C23.7348 10.758 23.4804 10.8634 23.2929 11.0509C23.1054 11.2384 23 11.4928 23 11.758C23 12.0232 23.1054 12.2776 23.2929 12.4651C23.4804 12.6526 23.7348 12.758 24 12.758ZM16 12.755C16.2652 12.755 16.5196 12.6496 16.7071 12.4621C16.8946 12.2746 17 12.0202 17 11.755C17 11.4898 16.8946 11.2354 16.7071 11.0479C16.5196 10.8604 16.2652 10.755 16 10.755C15.7348 10.755 15.4804 10.8604 15.2929 11.0479C15.1054 11.2354 15 11.4898 15 11.755C15 12.0202 15.1054 12.2746 15.2929 12.4621C15.4804 12.6496 15.7348 12.755 16 12.755V12.755ZM13.998 16.75C14.2632 16.75 14.5176 16.6446 14.7051 16.4571C14.8926 16.2696 14.998 16.0152 14.998 15.75C14.998 15.4848 14.8926 15.2304 14.7051 15.0429C14.5176 14.8554 14.2632 14.75 13.998 14.75C13.7328 14.75 13.4784 14.8554 13.2909 15.0429C13.1034 15.2304 12.998 15.4848 12.998 15.75C12.998 16.0152 13.1034 16.2696 13.2909 16.4571C13.4784 16.6446 13.7328 16.75 13.998 16.75V16.75ZM9.997 16.755C10.2622 16.755 10.5166 16.6496 10.7041 16.4621C10.8916 16.2746 10.997 16.0202 10.997 15.755C10.997 15.4898 10.8916 15.2354 10.7041 15.0479C10.5166 14.8604 10.2622 14.755 9.997 14.755C9.73178 14.755 9.47743 14.8604 9.28989 15.0479C9.10236 15.2354 8.997 15.4898 8.997 15.755C8.997 16.0202 9.10236 16.2746 9.28989 16.4621C9.47743 16.6496 9.73178 16.755 9.997 16.755V16.755ZM21.996 16.75C22.2612 16.75 22.5156 16.6446 22.7031 16.4571C22.8906 16.2696 22.996 16.0152 22.996 15.75C22.996 15.4848 22.8906 15.2304 22.7031 15.0429C22.5156 14.8554 22.2612 14.75 21.996 14.75C21.7308 14.75 21.4764 14.8554 21.2889 15.0429C21.1014 15.2304 20.996 15.4848 20.996 15.75C20.996 16.0152 21.1014 16.2696 21.2889 16.4571C21.4764 16.6446 21.7308 16.75 21.996 16.75ZM17.996 16.75C18.2612 16.75 18.5156 16.6446 18.7031 16.4571C18.8906 16.2696 18.996 16.0152 18.996 15.75C18.996 15.4848 18.8906 15.2304 18.7031 15.0429C18.5156 14.8554 18.2612 14.75 17.996 14.75C17.7308 14.75 17.4764 14.8554 17.2889 15.0429C17.1014 15.2304 16.996 15.4848 16.996 15.75C16.996 16.0152 17.1014 16.2696 17.2889 16.4571C17.4764 16.6446 17.7308 16.75 17.996 16.75ZM20 20.25H12C11.8011 20.25 11.6103 20.329 11.4697 20.4697C11.329 20.6103 11.25 20.8011 11.25 21C11.25 21.1989 11.329 21.3897 11.4697 21.5303C11.6103 21.671 11.8011 21.75 12 21.75H20C20.1989 21.75 20.3897 21.671 20.5303 21.5303C20.671 21.3897 20.75 21.1989 20.75 21C20.75 20.8011 20.671 20.6103 20.5303 20.4697C20.3897 20.329 20.1989 20.25 20 20.25Z" fill="#0F0F0F"/>
</svg>
