<svg width="32" height="32" viewBox="0 0 32 32" fill="none" xmlns="http://www.w3.org/2000/svg">
<path d="M25 5H7C5.6744 5.00159 4.40356 5.52888 3.46622 6.46622C2.52888 7.40356 2.00159 8.6744 2 10V21.784C2.00159 23.1669 2.55164 24.4927 3.52948 25.4705C4.50733 26.4484 5.83312 26.9984 7.216 27H24.783C26.1661 26.9987 27.4921 26.4487 28.4702 25.4709C29.4482 24.493 29.9984 23.1671 30 21.784V10C29.9984 8.6744 29.4711 7.40356 28.5338 6.46622C27.5964 5.52888 26.3256 5.00159 25 5ZM28 21.784C27.9989 22.6366 27.6598 23.454 27.0569 24.0569C26.454 24.6598 25.6366 24.9989 24.784 25H7.215C6.36256 24.9987 5.54543 24.6594 4.94276 24.0565C4.34009 23.4537 4.00106 22.6364 4 21.784V10C4.00079 9.20459 4.31712 8.44199 4.87956 7.87956C5.44199 7.31712 6.20459 7.00079 7 7H25C25.7954 7.00079 26.558 7.31712 27.1204 7.87956C27.6829 8.44199 27.9992 9.20459 28 10V21.784Z" fill="#0F0F0F"/>
<path d="M12.002 13.006C12.3335 13.006 12.6515 12.8743 12.8859 12.6399C13.1203 12.4055 13.252 12.0875 13.252 11.756C13.252 11.4245 13.1203 11.1065 12.8859 10.8721C12.6515 10.6377 12.3335 10.506 12.002 10.506C11.6705 10.506 11.3525 10.6377 11.1181 10.8721C10.8837 11.1065 10.752 11.4245 10.752 11.756C10.752 12.0875 10.8837 12.4055 11.1181 12.6399C11.3525 12.8743 11.6705 13.006 12.002 13.006V13.006ZM8 13.01C8.33152 13.01 8.64946 12.8783 8.88388 12.6439C9.1183 12.4095 9.25 12.0915 9.25 11.76C9.25 11.4285 9.1183 11.1105 8.88388 10.8761C8.64946 10.6417 8.33152 10.51 8 10.51C7.66848 10.51 7.35054 10.6417 7.11612 10.8761C6.8817 11.1105 6.75 11.4285 6.75 11.76C6.75 12.0915 6.8817 12.4095 7.11612 12.6439C7.35054 12.8783 7.66848 13.01 8 13.01V13.01ZM20 13.005C20.3315 13.005 20.6495 12.8733 20.8839 12.6389C21.1183 12.4045 21.25 12.0865 21.25 11.755C21.25 11.4235 21.1183 11.1055 20.8839 10.8711C20.6495 10.6367 20.3315 10.505 20 10.505C19.6685 10.505 19.3505 10.6367 19.1161 10.8711C18.8817 11.1055 18.75 11.4235 18.75 11.755C18.75 12.0865 18.8817 12.4045 19.1161 12.6389C19.3505 12.8733 19.6685 13.005 20 13.005V13.005ZM24 13.008C24.3315 13.008 24.6495 12.8763 24.8839 12.6419C25.1183 12.4075 25.25 12.0895 25.25 11.758C25.25 11.4265 25.1183 11.1085 24.8839 10.8741C24.6495 10.6397 24.3315 10.508 24 10.508C23.6685 10.508 23.3505 10.6397 23.1161 10.8741C22.8817 11.1085 22.75 11.4265 22.75 11.758C22.75 12.0895 22.8817 12.4075 23.1161 12.6419C23.3505 12.8763 23.6685 13.008 24 13.008V13.008ZM16 13.005C16.3315 13.005 16.6495 12.8733 16.8839 12.6389C17.1183 12.4045 17.25 12.0865 17.25 11.755C17.25 11.4235 17.1183 11.1055 16.8839 10.8711C16.6495 10.6367 16.3315 10.505 16 10.505C15.6685 10.505 15.3505 10.6367 15.1161 10.8711C14.8817 11.1055 14.75 11.4235 14.75 11.755C14.75 12.0865 14.8817 12.4045 15.1161 12.6389C15.3505 12.8733 15.6685 13.005 16 13.005V13.005ZM13.998 17C14.3295 17 14.6475 16.8683 14.8819 16.6339C15.1163 16.3995 15.248 16.0815 15.248 15.75C15.248 15.4185 15.1163 15.1005 14.8819 14.8661C14.6475 14.6317 14.3295 14.5 13.998 14.5C13.6665 14.5 13.3485 14.6317 13.1141 14.8661C12.8797 15.1005 12.748 15.4185 12.748 15.75C12.748 16.0815 12.8797 16.3995 13.1141 16.6339C13.3485 16.8683 13.6665 17 13.998 17ZM9.997 17.005C10.3285 17.005 10.6465 16.8733 10.8809 16.6389C11.1153 16.4045 11.247 16.0865 11.247 15.755C11.247 15.4235 11.1153 15.1055 10.8809 14.8711C10.6465 14.6367 10.3285 14.505 9.997 14.505C9.66548 14.505 9.34754 14.6367 9.11312 14.8711C8.8787 15.1055 8.747 15.4235 8.747 15.755C8.747 16.0865 8.8787 16.4045 9.11312 16.6389C9.34754 16.8733 9.66548 17.005 9.997 17.005ZM21.996 17C22.3275 17 22.6455 16.8683 22.8799 16.6339C23.1143 16.3995 23.246 16.0815 23.246 15.75C23.246 15.4185 23.1143 15.1005 22.8799 14.8661C22.6455 14.6317 22.3275 14.5 21.996 14.5C21.6645 14.5 21.3465 14.6317 21.1121 14.8661C20.8777 15.1005 20.746 15.4185 20.746 15.75C20.746 16.0815 20.8777 16.3995 21.1121 16.6339C21.3465 16.8683 21.6645 17 21.996 17ZM17.996 17C18.3275 17 18.6455 16.8683 18.8799 16.6339C19.1143 16.3995 19.246 16.0815 19.246 15.75C19.246 15.4185 19.1143 15.1005 18.8799 14.8661C18.6455 14.6317 18.3275 14.5 17.996 14.5C17.6645 14.5 17.3465 14.6317 17.1121 14.8661C16.8777 15.1005 16.746 15.4185 16.746 15.75C16.746 16.0815 16.8777 16.3995 17.1121 16.6339C17.3465 16.8683 17.6645 17 17.996 17ZM20 20H12C11.7348 20 11.4804 20.1054 11.2929 20.2929C11.1054 20.4804 11 20.7348 11 21C11 21.2652 11.1054 21.5196 11.2929 21.7071C11.4804 21.8946 11.7348 22 12 22H20C20.2652 22 20.5196 21.8946 20.7071 21.7071C20.8946 21.5196 21 21.2652 21 21C21 20.7348 20.8946 20.4804 20.7071 20.2929C20.5196 20.1054 20.2652 20 20 20Z" fill="#0F0F0F"/>
</svg>
