<svg width="32" height="32" viewBox="0 0 32 32" fill="none" xmlns="http://www.w3.org/2000/svg">
<path d="M25.0003 5.24973H7.00031C5.74097 5.25116 4.53361 5.75206 3.64313 6.64255C2.75264 7.53304 2.25173 8.74039 2.25031 9.99973V21.7839C2.25175 23.1005 2.7754 24.3627 3.70636 25.2937C4.63732 26.2246 5.89955 26.7483 7.21613 26.7497H24.7835C26.1002 26.7483 27.3625 26.2247 28.2937 25.2938C29.2248 24.3628 29.7486 23.1006 29.7503 21.7839V9.99973C29.7489 8.74039 29.248 7.53304 28.3575 6.64255C27.467 5.75206 26.2596 5.25116 25.0003 5.24973ZM28.2503 21.7839C28.2491 22.7029 27.8834 23.5839 27.2335 24.2336C26.5836 24.8833 25.7025 25.2488 24.7835 25.2497H7.21613C6.29724 25.2487 5.41629 24.8832 4.76654 24.2335C4.11679 23.5837 3.75132 22.7028 3.75031 21.7839V9.99973C3.7513 9.13808 4.09403 8.31201 4.70331 7.70273C5.31258 7.09345 6.13866 6.75072 7.00031 6.74973H25.0003C25.862 6.75072 26.688 7.09345 27.2973 7.70273C27.9066 8.31201 28.2493 9.13808 28.2503 9.99973V21.7839Z" fill="black"/>
<path d="M12.0021 12.756C12.5544 12.756 13.0021 12.3083 13.0021 11.756C13.0021 11.2037 12.5544 10.756 12.0021 10.756C11.4499 10.756 11.0021 11.2037 11.0021 11.756C11.0021 12.3083 11.4499 12.756 12.0021 12.756Z" fill="black"/>
<path d="M8.00092 12.7603C8.5532 12.7603 9.00092 12.3126 9.00092 11.7603C9.00092 11.208 8.5532 10.7603 8.00092 10.7603C7.44863 10.7603 7.00092 11.208 7.00092 11.7603C7.00092 12.3126 7.44863 12.7603 8.00092 12.7603Z" fill="black"/>
<path d="M20 12.7552C20.5523 12.7552 21 12.3074 21 11.7552C21 11.2029 20.5523 10.7552 20 10.7552C19.4477 10.7552 19 11.2029 19 11.7552C19 12.3074 19.4477 12.7552 20 12.7552Z" fill="black"/>
<path d="M24 12.7578C24.5523 12.7578 25 12.3101 25 11.7578C25 11.2056 24.5523 10.7578 24 10.7578C23.4477 10.7578 23 11.2056 23 11.7578C23 12.3101 23.4477 12.7578 24 12.7578Z" fill="black"/>
<path d="M16.0003 12.7552C16.5526 12.7552 17.0003 12.3074 17.0003 11.7552C17.0003 11.2029 16.5526 10.7552 16.0003 10.7552C15.448 10.7552 15.0003 11.2029 15.0003 11.7552C15.0003 12.3074 15.448 12.7552 16.0003 12.7552Z" fill="black"/>
<path d="M13.9982 16.7508C14.5505 16.7508 14.9982 16.3031 14.9982 15.7508C14.9982 15.1985 14.5505 14.7508 13.9982 14.7508C13.4459 14.7508 12.9982 15.1985 12.9982 15.7508C12.9982 16.3031 13.4459 16.7508 13.9982 16.7508Z" fill="black"/>
<path d="M9.99701 16.7552C10.5493 16.7552 10.997 16.3074 10.997 15.7552C10.997 15.2029 10.5493 14.7552 9.99701 14.7552C9.44473 14.7552 8.99701 15.2029 8.99701 15.7552C8.99701 16.3074 9.44473 16.7552 9.99701 16.7552Z" fill="black"/>
<path d="M21.9961 16.75C22.5484 16.75 22.9961 16.3023 22.9961 15.75C22.9961 15.1977 22.5484 14.75 21.9961 14.75C21.4438 14.75 20.9961 15.1977 20.9961 15.75C20.9961 16.3023 21.4438 16.75 21.9961 16.75Z" fill="black"/>
<path d="M17.9964 16.75C18.5487 16.75 18.9964 16.3023 18.9964 15.75C18.9964 15.1977 18.5487 14.75 17.9964 14.75C17.4441 14.75 16.9964 15.1977 16.9964 15.75C16.9964 16.3023 17.4441 16.75 17.9964 16.75Z" fill="black"/>
<path d="M20.0003 20.2497H12.0003C11.8014 20.2497 11.6106 20.3287 11.47 20.4694C11.3293 20.6101 11.2503 20.8008 11.2503 20.9997C11.2503 21.1986 11.3293 21.3894 11.47 21.5301C11.6106 21.6707 11.8014 21.7497 12.0003 21.7497H20.0003C20.1992 21.7497 20.39 21.6707 20.5306 21.5301C20.6713 21.3894 20.7503 21.1986 20.7503 20.9997C20.7503 20.8008 20.6713 20.6101 20.5306 20.4694C20.39 20.3287 20.1992 20.2497 20.0003 20.2497Z" fill="black"/>
</svg>
