<svg xmlns="http://www.w3.org/2000/svg" width="32" height="32" viewBox="0 0 32 32"><path d="M18.445 26.168L16 27.798L13.554 26.168C13.3333 26.0264 13.0659 25.9772 12.8092 26.0309C12.5526 26.0846 12.3273 26.2369 12.1819 26.4551C12.0365 26.6733 11.9826 26.9398 12.0318 27.1974C12.081 27.4549 12.2294 27.6828 12.445 27.832L15.445 29.832C15.6093 29.9416 15.8025 30.0001 16 30.0001C16.1975 30.0001 16.3907 29.9416 16.555 29.832L19.555 27.832C19.7757 27.6848 19.9288 27.456 19.9808 27.1959C20.0327 26.9358 19.9792 26.6657 19.832 26.445C19.6848 26.2243 19.456 26.0712 19.1959 26.0192C18.9358 25.9673 18.6657 26.0208 18.445 26.168ZM25 2H7C5.6744 2.00159 4.40356 2.52888 3.46622 3.46622C2.52888 4.40356 2.00159 5.6744 2 7V18.783C2.00132 20.1662 2.5514 21.4924 3.52949 22.4705C4.50758 23.4486 5.83377 23.9987 7.217 24H24.784C26.1671 23.9984 27.493 23.4482 28.4709 22.4702C29.4487 21.4921 29.9987 20.1661 30 18.783V7C29.9984 5.6744 29.4711 4.40356 28.5338 3.46622C27.5964 2.52888 26.3256 2.00159 25 2ZM28 18.783C27.9992 19.6358 27.6602 20.4534 27.0572 21.0565C26.4543 21.6596 25.6368 21.9989 24.784 22H7.217C6.36412 21.9989 5.54648 21.6597 4.94341 21.0566C4.34033 20.4535 4.00106 19.6359 4 18.783V7C4.00079 6.20459 4.31712 5.44199 4.87956 4.87956C5.44199 4.31712 6.20459 4.00079 7 4H25C25.7954 4.00079 26.558 4.31712 27.1204 4.87956C27.6829 5.44199 27.9992 6.20459 28 7V18.783Z M12.001 10.0059C12.3325 10.0059 12.6505 9.87419 12.8849 9.63977C13.1193 9.40535 13.251 9.0874 13.251 8.75588C13.251 8.42436 13.1193 8.10642 12.8849 7.872C12.6505 7.63758 12.3325 7.50588 12.001 7.50588C11.6695 7.50588 11.3515 7.63758 11.1171 7.872C10.8827 8.10642 10.751 8.42436 10.751 8.75588C10.751 9.0874 10.8827 9.40535 11.1171 9.63977C11.3515 9.87419 11.6695 10.0059 12.001 10.0059ZM8 10.0099C8.33152 10.0099 8.64946 9.87819 8.88388 9.64377C9.1183 9.40935 9.25 9.0914 9.25 8.75988C9.25 8.42836 9.1183 8.11042 8.88388 7.876C8.64946 7.64158 8.33152 7.50988 8 7.50988C7.66848 7.50988 7.35054 7.64158 7.11612 7.876C6.8817 8.11042 6.75 8.42836 6.75 8.75988C6.75 9.0914 6.8817 9.40935 7.11612 9.64377C7.35054 9.87819 7.66848 10.0099 8 10.0099ZM19.999 10.0049C20.3305 10.0049 20.6485 9.87319 20.8829 9.63877C21.1173 9.40435 21.249 9.0864 21.249 8.75488C21.249 8.42336 21.1173 8.10542 20.8829 7.871C20.6485 7.63658 20.3305 7.50488 19.999 7.50488C19.6675 7.50488 19.3495 7.63658 19.1151 7.871C18.8807 8.10542 18.749 8.42336 18.749 8.75488C18.749 9.0864 18.8807 9.40435 19.1151 9.63877C19.3495 9.87319 19.6675 10.0049 19.999 10.0049ZM23.999 10.0079C24.3305 10.0079 24.6485 9.87619 24.8829 9.64177C25.1173 9.40735 25.249 9.0894 25.249 8.75788C25.249 8.42636 25.1173 8.10842 24.8829 7.874C24.6485 7.63958 24.3305 7.50788 23.999 7.50788C23.6675 7.50788 23.3495 7.63958 23.1151 7.874C22.8807 8.10842 22.749 8.42636 22.749 8.75788C22.749 9.0894 22.8807 9.40735 23.1151 9.64177C23.3495 9.87619 23.6675 10.0079 23.999 10.0079ZM16 10.0049C16.3315 10.0049 16.6495 9.87319 16.8839 9.63877C17.1183 9.40435 17.25 9.0864 17.25 8.75488C17.25 8.42336 17.1183 8.10542 16.8839 7.871C16.6495 7.63658 16.3315 7.50488 16 7.50488C15.6685 7.50488 15.3505 7.63658 15.1161 7.871C14.8817 8.10542 14.75 8.42336 14.75 8.75488C14.75 9.0864 14.8817 9.40435 15.1161 9.63877C15.3505 9.87319 15.6685 10.0049 16 10.0049ZM13.997 13.9999C14.3285 13.9999 14.6465 13.8682 14.8809 13.6338C15.1153 13.3993 15.247 13.0814 15.247 12.7499C15.247 12.4184 15.1153 12.1004 14.8809 11.866C14.6465 11.6316 14.3285 11.4999 13.997 11.4999C13.6655 11.4999 13.3475 11.6316 13.1131 11.866C12.8787 12.1004 12.747 12.4184 12.747 12.7499C12.747 13.0814 12.8787 13.3993 13.1131 13.6338C13.3475 13.8682 13.6655 13.9999 13.997 13.9999ZM9.996 14.0049C10.3275 14.0049 10.6455 13.8732 10.8799 13.6388C11.1143 13.4043 11.246 13.0864 11.246 12.7549C11.246 12.4234 11.1143 12.1054 10.8799 11.871C10.6455 11.6366 10.3275 11.5049 9.996 11.5049C9.66448 11.5049 9.34654 11.6366 9.11212 11.871C8.8777 12.1054 8.746 12.4234 8.746 12.7549C8.746 13.0864 8.8777 13.4043 9.11212 13.6388C9.34654 13.8732 9.66448 14.0049 9.996 14.0049ZM21.995 13.9999C22.3265 13.9999 22.6445 13.8682 22.8789 13.6338C23.1133 13.3993 23.245 13.0814 23.245 12.7499C23.245 12.4184 23.1133 12.1004 22.8789 11.866C22.6445 11.6316 22.3265 11.4999 21.995 11.4999C21.6635 11.4999 21.3455 11.6316 21.1111 11.866C20.8767 12.1004 20.745 12.4184 20.745 12.7499C20.745 13.0814 20.8767 13.3993 21.1111 13.6338C21.3455 13.8682 21.6635 13.9999 21.995 13.9999ZM17.995 13.9999C18.3265 13.9999 18.6445 13.8682 18.8789 13.6338C19.1133 13.3993 19.245 13.0814 19.245 12.7499C19.245 12.4184 19.1133 12.1004 18.8789 11.866C18.6445 11.6316 18.3265 11.4999 17.995 11.4999C17.6635 11.4999 17.3455 11.6316 17.1111 11.866C16.8767 12.1004 16.745 12.4184 16.745 12.7499C16.745 13.0814 16.8767 13.3993 17.1111 13.6338C17.3455 13.8682 17.6635 13.9999 17.995 13.9999ZM20 16.9969H12C11.7348 16.9969 11.4804 17.1022 11.2929 17.2898C11.1054 17.4773 11 17.7317 11 17.9969C11 18.2621 11.1054 18.5165 11.2929 18.704C11.4804 18.8915 11.7348 18.9969 12 18.9969H20C20.2652 18.9969 20.5196 18.8915 20.7071 18.704C20.8946 18.5165 21 18.2621 21 17.9969C21 17.7317 20.8946 17.4773 20.7071 17.2898C20.5196 17.1022 20.2652 16.9969 20 16.9969Z"/></svg>