<svg width="32" height="32" viewBox="0 0 32 32" fill="none" xmlns="http://www.w3.org/2000/svg">
<path d="M18.4451 26.168L15.9998 27.7979L13.5544 26.168C13.3338 26.0231 13.0647 25.9714 12.8061 26.0241C12.5474 26.0768 12.3201 26.2296 12.1736 26.4493C12.0272 26.6689 11.9735 26.9376 12.0244 27.1966C12.0753 27.4556 12.2265 27.6841 12.4451 27.8321L15.4451 29.8321C15.6093 29.9416 15.8023 30 15.9998 30C16.1972 30 16.3902 29.9416 16.5544 29.8321L19.5544 27.8321C19.6647 27.7597 19.7596 27.6662 19.8336 27.557C19.9076 27.4477 19.9592 27.325 19.9855 27.1957C20.0119 27.0664 20.0124 26.9332 19.987 26.8038C19.9616 26.6743 19.9109 26.5511 19.8377 26.4414C19.7645 26.3316 19.6704 26.2374 19.5606 26.1642C19.4509 26.091 19.3277 26.0402 19.1983 26.0148C19.0688 25.9894 18.9356 25.9899 18.8064 26.0161C18.6771 26.0424 18.5543 26.094 18.4451 26.168Z" fill="black"/>
<path d="M24.9998 2.00005H6.99976C5.67415 2.00161 4.40329 2.52889 3.46594 3.46624C2.5286 4.40358 2.00131 5.67445 1.99976 7.00005V18.7833C2.00118 20.1664 2.55126 21.4925 3.52929 22.4705C4.50732 23.4485 5.8334 23.9986 7.21655 24.0001H24.7839C26.1669 23.9984 27.4928 23.4482 28.4706 22.4702C29.4484 21.4922 29.9984 20.1662 29.9998 18.7833V7.00005C29.9982 5.67445 29.4709 4.40359 28.5336 3.46624C27.5962 2.5289 26.3254 2.00161 24.9998 2.00005ZM27.9998 18.7833C27.9989 19.636 27.6599 20.4535 27.057 21.0566C26.4541 21.6596 25.6367 21.9989 24.7839 22.0001H7.21655C6.36373 21.999 5.54615 21.6597 4.94311 21.0567C4.34008 20.4537 4.00082 19.6361 3.99976 18.7833V7.00005C4.00062 6.20467 4.31697 5.44211 4.87939 4.87969C5.44182 4.31727 6.20437 4.00092 6.99976 4.00005H24.9998C25.7951 4.00092 26.5577 4.31727 27.1201 4.87969C27.6825 5.44211 27.9989 6.20467 27.9998 7.00005V18.7833Z" fill="black"/>
<path d="M12.0012 10.006C12.6916 10.006 13.2512 9.44639 13.2512 8.75603C13.2512 8.06568 12.6916 7.50603 12.0012 7.50603C11.3109 7.50603 10.7512 8.06568 10.7512 8.75603C10.7512 9.44639 11.3109 10.006 12.0012 10.006Z" fill="black"/>
<path d="M8 10.0103C8.69035 10.0103 9.25 9.45066 9.25 8.7603C9.25 8.06995 8.69035 7.5103 8 7.5103C7.30964 7.5103 6.75 8.06995 6.75 8.7603C6.75 9.45066 7.30964 10.0103 8 10.0103Z" fill="black"/>
<path d="M19.999 10.0051C20.6894 10.0051 21.249 9.44548 21.249 8.75512C21.249 8.06477 20.6894 7.50512 19.999 7.50512C19.3087 7.50512 18.749 8.06477 18.749 8.75512C18.749 9.44548 19.3087 10.0051 19.999 10.0051Z" fill="black"/>
<path d="M23.999 10.0079C24.6894 10.0079 25.249 9.44822 25.249 8.75786C25.249 8.06751 24.6894 7.50786 23.999 7.50786C23.3087 7.50786 22.749 8.06751 22.749 8.75786C22.749 9.44822 23.3087 10.0079 23.999 10.0079Z" fill="black"/>
<path d="M15.9994 10.0051C16.6897 10.0051 17.2494 9.44548 17.2494 8.75512C17.2494 8.06477 16.6897 7.50512 15.9994 7.50512C15.309 7.50512 14.7494 8.06477 14.7494 8.75512C14.7494 9.44548 15.309 10.0051 15.9994 10.0051Z" fill="black"/>
<path d="M13.9973 14.0008C14.6877 14.0008 15.2473 13.4412 15.2473 12.7508C15.2473 12.0605 14.6877 11.5008 13.9973 11.5008C13.3069 11.5008 12.7473 12.0605 12.7473 12.7508C12.7473 13.4412 13.3069 14.0008 13.9973 14.0008Z" fill="black"/>
<path d="M9.99609 14.0051C10.6864 14.0051 11.2461 13.4455 11.2461 12.7551C11.2461 12.0648 10.6864 11.5051 9.99609 11.5051C9.30573 11.5051 8.74609 12.0648 8.74609 12.7551C8.74609 13.4455 9.30573 14.0051 9.99609 14.0051Z" fill="black"/>
<path d="M21.9951 14C22.6855 14 23.2451 13.4404 23.2451 12.75C23.2451 12.0596 22.6855 11.5 21.9951 11.5C21.3048 11.5 20.7451 12.0596 20.7451 12.75C20.7451 13.4404 21.3048 14 21.9951 14Z" fill="black"/>
<path d="M17.9955 14C18.6858 14 19.2455 13.4404 19.2455 12.75C19.2455 12.0596 18.6858 11.5 17.9955 11.5C17.3051 11.5 16.7455 12.0596 16.7455 12.75C16.7455 13.4404 17.3051 14 17.9955 14Z" fill="black"/>
<path d="M19.9998 16.9971H11.9998C11.7345 16.9971 11.4802 17.1025 11.2926 17.29C11.1051 17.4776 10.9998 17.7319 10.9998 17.9971C10.9998 18.2623 11.1051 18.5167 11.2926 18.7042C11.4802 18.8918 11.7345 18.9971 11.9998 18.9971H19.9998C20.265 18.9971 20.5193 18.8918 20.7069 18.7042C20.8944 18.5167 20.9998 18.2623 20.9998 17.9971C20.9998 17.7319 20.8944 17.4776 20.7069 17.29C20.5193 17.1025 20.265 16.9971 19.9998 16.9971Z" fill="black"/>
</svg>
