<svg width="32" height="32" viewBox="0 0 32 32" fill="none" xmlns="http://www.w3.org/2000/svg">
<path d="M18.5837 26.376L15.9997 28.0986L13.4157 26.376C13.3338 26.3201 13.2416 26.281 13.1445 26.2609C13.0473 26.2409 12.9472 26.2403 12.8498 26.2592C12.7525 26.2781 12.6598 26.3162 12.5773 26.3711C12.4947 26.4261 12.4239 26.4969 12.3688 26.5794C12.3138 26.6619 12.2757 26.7545 12.2567 26.8519C12.2378 26.9493 12.2383 27.0494 12.2583 27.1466C12.2782 27.2437 12.3173 27.3359 12.3732 27.4179C12.429 27.4998 12.5006 27.5699 12.5837 27.624L15.5837 29.624C15.7069 29.7061 15.8517 29.75 15.9997 29.75C16.1478 29.75 16.2925 29.7061 16.4157 29.624L19.4157 27.624C19.4989 27.5699 19.5704 27.4998 19.6263 27.4179C19.6822 27.3359 19.7212 27.2437 19.7412 27.1466C19.7612 27.0494 19.7617 26.9493 19.7427 26.8519C19.7238 26.7545 19.6857 26.6619 19.6306 26.5794C19.5756 26.4969 19.5048 26.4261 19.4222 26.3711C19.3396 26.3162 19.247 26.2781 19.1496 26.2592C19.0523 26.2403 18.9521 26.2409 18.855 26.2609C18.7578 26.281 18.6657 26.3201 18.5837 26.376Z" fill="black"/>
<path d="M24.9998 2.25005H6.99976C5.74042 2.25148 4.53307 2.75238 3.64258 3.64287C2.75209 4.53336 2.25119 5.74071 2.24976 7.00005V18.7833C2.2514 20.1 2.77521 21.3624 3.70631 22.2935C4.6374 23.2246 5.89977 23.7484 7.21655 23.75H24.7839C26.1006 23.7484 27.3629 23.2245 28.2938 22.2934C29.2247 21.3623 29.7483 20.0999 29.7498 18.7833V7.00005C29.7483 5.74071 29.2474 4.53336 28.3569 3.64287C27.4664 2.75238 26.2591 2.25148 24.9998 2.25005ZM28.2498 18.7833C28.2488 19.7022 27.8833 20.5833 27.2336 21.2332C26.5839 21.8831 25.7029 22.2488 24.7839 22.25H7.21655C6.29746 22.2489 5.41637 21.8832 4.76648 21.2333C4.11659 20.5834 3.75095 19.7023 3.74976 18.7833V7.00005C3.75075 6.1384 4.09348 5.31233 4.70276 4.70305C5.31204 4.09377 6.13811 3.75104 6.99976 3.75005H24.9998C25.8614 3.75105 26.6875 4.09378 27.2968 4.70305C27.906 5.31233 28.2488 6.1384 28.2498 7.00005V18.7833Z" fill="black"/>
<path d="M12.0012 9.75603C12.5535 9.75603 13.0012 9.30831 13.0012 8.75603C13.0012 8.20374 12.5535 7.75603 12.0012 7.75603C11.4489 7.75603 11.0012 8.20374 11.0012 8.75603C11.0012 9.30831 11.4489 9.75603 12.0012 9.75603Z" fill="black"/>
<path d="M8 9.7603C8.55228 9.7603 9 9.31258 9 8.7603C9 8.20801 8.55228 7.7603 8 7.7603C7.44771 7.7603 7 8.20801 7 8.7603C7 9.31258 7.44771 9.7603 8 9.7603Z" fill="black"/>
<path d="M19.999 9.75512C20.5513 9.75512 20.999 9.3074 20.999 8.75512C20.999 8.20284 20.5513 7.75512 19.999 7.75512C19.4467 7.75512 18.999 8.20284 18.999 8.75512C18.999 9.3074 19.4467 9.75512 19.999 9.75512Z" fill="black"/>
<path d="M23.999 9.75786C24.5513 9.75786 24.999 9.31014 24.999 8.75786C24.999 8.20557 24.5513 7.75786 23.999 7.75786C23.4467 7.75786 22.999 8.20557 22.999 8.75786C22.999 9.31014 23.4467 9.75786 23.999 9.75786Z" fill="black"/>
<path d="M15.9994 9.75512C16.5517 9.75512 16.9994 9.3074 16.9994 8.75512C16.9994 8.20284 16.5517 7.75512 15.9994 7.75512C15.4471 7.75512 14.9994 8.20284 14.9994 8.75512C14.9994 9.3074 15.4471 9.75512 15.9994 9.75512Z" fill="black"/>
<path d="M13.9973 13.7508C14.5496 13.7508 14.9973 13.3031 14.9973 12.7508C14.9973 12.1986 14.5496 11.7508 13.9973 11.7508C13.445 11.7508 12.9973 12.1986 12.9973 12.7508C12.9973 13.3031 13.445 13.7508 13.9973 13.7508Z" fill="black"/>
<path d="M9.99609 13.7551C10.5484 13.7551 10.9961 13.3074 10.9961 12.7551C10.9961 12.2028 10.5484 11.7551 9.99609 11.7551C9.4438 11.7551 8.99609 12.2028 8.99609 12.7551C8.99609 13.3074 9.4438 13.7551 9.99609 13.7551Z" fill="black"/>
<path d="M21.9951 13.75C22.5474 13.75 22.9951 13.3023 22.9951 12.75C22.9951 12.1977 22.5474 11.75 21.9951 11.75C21.4428 11.75 20.9951 12.1977 20.9951 12.75C20.9951 13.3023 21.4428 13.75 21.9951 13.75Z" fill="black"/>
<path d="M17.9955 13.75C18.5478 13.75 18.9955 13.3023 18.9955 12.75C18.9955 12.1977 18.5478 11.75 17.9955 11.75C17.4432 11.75 16.9955 12.1977 16.9955 12.75C16.9955 13.3023 17.4432 13.75 17.9955 13.75Z" fill="black"/>
<path d="M19.9998 17.2471H11.9998C11.8008 17.2471 11.6101 17.3261 11.4694 17.4668C11.3288 17.6074 11.2498 17.7982 11.2498 17.9971C11.2498 18.196 11.3288 18.3868 11.4694 18.5275C11.6101 18.6681 11.8008 18.7471 11.9998 18.7471H19.9998C20.1987 18.7471 20.3894 18.6681 20.5301 18.5275C20.6707 18.3868 20.7498 18.196 20.7498 17.9971C20.7498 17.7982 20.6707 17.6074 20.5301 17.4668C20.3894 17.3261 20.1987 17.2471 19.9998 17.2471Z" fill="black"/>
</svg>
