<svg width="32" height="32" viewBox="0 0 32 32" fill="none" xmlns="http://www.w3.org/2000/svg">
<path d="M29.7504 16.0004C29.7452 12.5468 28.4415 9.22142 26.0981 6.68452C23.7547 4.14763 20.543 2.58472 17.1007 2.30611L17.0839 2.30525C16.7253 2.27706 16.3662 2.25038 16.0004 2.25038C15.6505 2.25038 15.3073 2.27706 14.9639 2.30287C14.948 2.3033 14.9331 2.30387 14.9172 2.30525C11.4673 2.57467 8.24613 4.13627 5.89772 6.67787C3.5493 9.21947 2.24667 12.5538 2.25025 16.0142C2.25383 19.4747 3.56335 22.8063 5.91701 25.343C8.27068 27.8798 11.4951 29.4347 14.9456 29.697C14.9603 29.6979 14.9739 29.7065 14.9887 29.7065C14.9999 29.7065 15.0107 29.7013 15.0218 29.7008C15.3464 29.7238 15.67 29.7504 16.0004 29.7504C16.3374 29.7504 16.6678 29.7238 16.9988 29.6998L17.0092 29.7016L17.0225 29.6987C20.4797 29.439 23.7113 27.8838 26.0712 25.344C28.431 22.8043 29.745 19.4672 29.7504 16.0004ZM28.2124 15.2504H22.6961C22.4202 11.2394 21.0624 7.37809 18.767 4.07723C21.3333 4.67671 23.6381 6.08737 25.3395 8.1C27.041 10.1126 28.0484 12.6201 28.2124 15.2504ZM15.2504 15.2504H10.808C11.1142 11.1047 12.6622 7.14749 15.2504 3.89455V15.2504ZM15.2504 16.7504V28.0689C12.5748 24.8805 11.0113 20.9071 10.7965 16.7504H15.2504ZM16.7504 16.7504H21.2657C21.0204 20.9093 19.4365 24.8773 16.7504 28.0619V16.7504ZM16.7504 15.2504V3.8622C19.3921 7.10255 20.9681 11.08 21.2626 15.2504H16.7504ZM13.2526 4.0724C10.9403 7.36861 9.57196 11.2336 9.29504 15.2504H3.78834C3.95253 12.6167 4.96224 10.1063 6.66738 8.09242C8.37251 6.07852 10.682 4.66865 13.2526 4.0724ZM3.78834 16.7504H9.28157C9.45363 20.7944 10.8435 24.6921 13.2689 27.9326C10.6947 27.3391 8.3811 25.93 6.67273 23.915C4.96436 21.9 3.95266 19.387 3.78834 16.7504ZM18.7253 27.9343C21.1514 24.6937 22.5402 20.7949 22.7092 16.7504H28.2125C28.0481 19.3882 27.0356 21.9022 25.3259 23.9176C23.6162 25.9331 21.301 27.342 18.7253 27.9343Z" fill="black"/>
</svg>
