<svg width="32" height="32" viewBox="0 0 32 32" fill="none" xmlns="http://www.w3.org/2000/svg">
<path d="M16.0004 2.50038C13.3303 2.50038 10.7202 3.29214 8.50017 4.77554C6.28011 6.25894 4.54978 8.36735 3.528 10.8342C2.50622 13.301 2.23887 16.0154 2.75977 18.6341C3.28067 21.2528 4.56642 23.6583 6.45443 25.5463C8.34244 27.4343 10.7479 28.7201 13.3667 29.241C15.9854 29.7619 18.6998 29.4945 21.1666 28.4728C23.6334 27.451 25.7418 25.7206 27.2252 23.5006C28.7086 21.2805 29.5004 18.6704 29.5004 16.0004C29.4965 12.4212 28.0729 8.98965 25.542 6.45875C23.0111 3.92786 19.5796 2.50429 16.0004 2.50038ZM28.475 15.5004H22.4523C22.2057 11.24 20.7277 7.14274 18.1978 3.706C20.9967 4.2101 23.5402 5.65331 25.4086 7.7975C27.277 9.94169 28.3587 12.6587 28.475 15.5004ZM16.5004 28.4751V16.5004H21.5308C21.3339 20.9121 19.6512 25.1276 16.7559 28.4621C16.671 28.4672 16.5858 28.4716 16.5004 28.4751ZM15.2384 28.4618C12.3578 25.1246 10.7 20.9058 10.5379 16.5004H15.5003V28.4751C15.4128 28.4716 15.3255 28.4672 15.2384 28.4618ZM15.5004 3.52571V15.5004H10.5472C10.8122 11.1225 12.4464 6.9386 15.2186 3.54C15.3123 3.5342 15.4062 3.52944 15.5004 3.52571ZM16.5004 15.5004V3.52571C16.6032 3.5298 16.7058 3.53471 16.8079 3.54128C19.6209 6.91945 21.2748 11.1116 21.5261 15.5004H16.5004ZM13.823 3.703C11.2751 7.13359 9.7857 11.2343 9.53815 15.5004H3.5257C3.64229 12.6553 4.72645 9.9353 6.59889 7.79011C8.47132 5.64491 11.0199 4.20306 13.823 3.703ZM3.5257 16.5004H9.52814C9.66373 20.7966 11.1796 24.9349 13.8512 28.3021C11.0421 27.8078 8.48649 26.3678 6.60837 24.2211C4.73025 22.0745 3.64254 19.3502 3.5257 16.5004ZM18.1429 28.3032C20.8151 24.9361 22.33 20.7969 22.4626 16.5004H28.475C28.3581 19.3514 27.2696 22.0766 25.3901 24.2236C23.5107 26.3706 20.9534 27.8101 18.1429 28.3032Z" fill="black"/>
</svg>
