<svg xmlns="http://www.w3.org/2000/svg" width="32" height="32" viewBox="0 0 32 32"><path d="M29.6268 21.695C29.4591 21.4777 29.2436 21.3019 28.997 21.1814C28.7504 21.0608 28.4793 20.9988 28.2048 21H27.9998V10.135C28.0161 8.79149 27.4988 7.49636 26.5615 6.53371C25.6242 5.57106 24.3433 5.0195 22.9998 5H8.9998C7.65633 5.0195 6.37544 5.57106 5.4381 6.53371C4.50076 7.49636 3.9835 8.79149 3.9998 10.135V21H3.7948C3.52031 20.9988 3.24922 21.0608 3.00261 21.1814C2.75599 21.3019 2.54048 21.4777 2.3728 21.695C2.20685 21.9072 2.09188 22.1548 2.03674 22.4185C1.9816 22.6822 1.98778 22.9551 2.0548 23.216C2.33627 24.3037 2.97247 25.2664 3.8627 25.9518C4.75293 26.6371 5.84632 27.006 6.9698 27H25.0278C26.1511 27.0065 27.2445 26.638 28.1347 25.953C29.025 25.2679 29.6613 24.3055 29.9428 23.218C30.0104 22.9568 30.017 22.6836 29.962 22.4195C29.9071 22.1554 29.792 21.9075 29.6258 21.695H29.6268ZM5.9998 10.135C5.98316 9.32181 6.2896 8.53519 6.85194 7.94754C7.41428 7.35989 8.18666 7.01915 8.9998 7H22.9998C23.8129 7.01915 24.5853 7.35989 25.1477 7.94754C25.71 8.53519 26.0164 9.32181 25.9998 10.135V21H5.9998V10.135ZM25.0298 25H6.9698C6.34061 25.0044 5.72536 24.8147 5.20785 24.4569C4.69034 24.099 4.29574 23.5903 4.0778 23H27.9218C27.704 23.5906 27.3094 24.0996 26.7916 24.4575C26.2738 24.8155 25.6582 25.0049 25.0288 25H25.0298Z"/></svg>