<svg xmlns="http://www.w3.org/2000/svg" width="32" height="32" viewBox="0 0 32 32"><path d="M29.4302 21.848C29.2856 21.661 29.0999 21.5098 28.8874 21.4061C28.675 21.3024 28.4416 21.249 28.2052 21.25H27.7502V10.135C27.7665 8.85779 27.2756 7.62624 26.3851 6.71048C25.4946 5.79471 24.2773 5.26949 23.0002 5.25H9.00018C7.72301 5.26949 6.5057 5.79471 5.61525 6.71048C4.72479 7.62624 4.23388 8.85779 4.25018 10.135V21.25H3.79518C3.44118 21.2485 3.09748 21.369 2.82191 21.5912C2.54634 21.8134 2.35573 22.1237 2.28218 22.47C2.23418 22.696 2.24018 22.93 2.29818 23.154C2.56553 24.1879 3.17026 25.1031 4.01654 25.7544C4.86282 26.4058 5.90226 26.7562 6.97018 26.75H25.0282C26.0961 26.7563 27.1356 26.4061 27.982 25.7549C28.8284 25.1038 29.4334 24.1888 29.7012 23.155C29.7592 22.9309 29.7649 22.6964 29.7177 22.4698C29.6705 22.2431 29.5718 22.0304 29.4292 21.848H29.4302ZM5.75018 10.135C5.73356 9.25551 6.06633 8.40531 6.67556 7.77078C7.28478 7.13625 8.12074 6.76917 9.00018 6.75H23.0002C23.8796 6.76917 24.7156 7.13625 25.3248 7.77078C25.934 8.40531 26.2668 9.25551 26.2502 10.135V21.25H5.75018V10.135ZM25.0302 25.25H6.97018C6.23448 25.2607 5.51746 25.0182 4.93937 24.563C4.36129 24.1078 3.95731 23.4677 3.79518 22.75H28.2052L28.2492 22.785C28.0633 23.4956 27.6457 24.124 27.0625 24.5705C26.4792 25.0169 25.7637 25.2561 25.0292 25.25H25.0302Z"/></svg>