<svg width="32" height="32" viewBox="0 0 32 32" fill="none" xmlns="http://www.w3.org/2000/svg">
<path d="M6.9714 25.2501C6.23545 25.261 5.51812 25.0186 4.93972 24.5634C4.36132 24.1082 3.95702 23.468 3.79463 22.7501H19.5691L18.0691 21.2501H5.74972V10.1349C5.75412 9.7839 5.81185 9.43562 5.92091 9.10198L4.77255 7.9536C4.43309 8.6309 4.25419 9.37729 4.24971 10.1349V21.2501H3.79463C3.55884 21.2492 3.32599 21.3025 3.11402 21.4057C2.90204 21.509 2.7166 21.6596 2.57198 21.8458C2.42892 22.0283 2.32976 22.2412 2.28217 22.4681C2.23458 22.695 2.23985 22.9299 2.29756 23.1544C2.56543 24.1884 3.17055 25.1035 4.01712 25.7547C4.86368 26.406 5.90331 26.7563 6.9714 26.7501H23.5691L22.0691 25.2501H6.9714Z" fill="black"/>
<path d="M27.2637 26.2035C27.8631 25.8972 28.3906 25.4669 28.8111 24.9412C29.2316 24.4155 29.5356 23.8065 29.7028 23.1544C29.7606 22.9299 29.7658 22.695 29.7182 22.4681C29.6707 22.2412 29.5715 22.0283 29.4284 21.8458C29.2838 21.6596 29.0984 21.509 28.8864 21.4057C28.6744 21.3025 28.4416 21.2492 28.2058 21.2501H27.7497V10.1349C27.7659 8.85773 27.2749 7.6263 26.3845 6.71061C25.494 5.79491 24.2768 5.26969 22.9997 5.25011H8.99971C8.25206 5.25577 7.51712 5.44412 6.8589 5.79876L3.52999 2.46984C3.38961 2.32953 3.19932 2.25062 3.00085 2.25042C2.80238 2.25021 2.61193 2.32873 2.47126 2.46874C2.3306 2.60876 2.25121 2.79885 2.2505 2.99732C2.24979 3.19579 2.32782 3.38644 2.46749 3.52746L2.46949 3.53039L28.4694 29.5304C28.6102 29.6706 28.8008 29.7492 28.9994 29.749C29.1981 29.7488 29.3885 29.6698 29.529 29.5293C29.6694 29.3889 29.7484 29.1984 29.7486 28.9998C29.7488 28.8012 29.6702 28.6106 29.53 28.4698L27.2637 26.2035ZM7.9933 6.93316C8.31629 6.81671 8.65641 6.75486 8.99971 6.75016H22.9997C23.8791 6.76942 24.715 7.1365 25.3242 7.77096C25.9333 8.40542 26.2662 9.25551 26.2497 10.1349V21.2501H22.3103L7.9933 6.93316ZM23.8103 22.7501H28.2058L28.2498 22.7853C28.1138 23.3122 27.8485 23.7968 27.478 24.1954C27.1075 24.5939 26.6435 24.8937 26.1279 25.0677L23.8103 22.7501Z" fill="black"/>
</svg>
