<svg width="32" height="32" viewBox="0 0 32 32" fill="none" xmlns="http://www.w3.org/2000/svg">
<path d="M29.2315 22.0012C29.1103 21.8445 28.9547 21.7178 28.7768 21.6309C28.5988 21.544 28.4032 21.4993 28.2051 21.5002H27.5V10.135C27.5163 8.92412 27.0517 7.7562 26.2081 6.88736C25.3645 6.01851 24.2108 5.51966 23 5.5002H9.00001C7.78917 5.51966 6.63547 6.01851 5.7919 6.88736C4.94832 7.7562 4.48373 8.92412 4.50001 10.135V21.5002H3.79493C3.59686 21.4993 3.40125 21.544 3.22326 21.6309C3.04527 21.7178 2.88968 21.8445 2.76856 22.0012C2.6491 22.1534 2.56633 22.331 2.5267 22.5204C2.48706 22.7097 2.49161 22.9057 2.54001 23.093C2.79392 24.0731 3.3676 24.9404 4.17017 25.5576C4.97274 26.1747 5.95829 26.5065 6.97071 26.5002H25.0293C26.0416 26.5065 27.027 26.1749 27.8296 25.5579C28.6321 24.941 29.2059 24.0739 29.46 23.094C29.5085 22.9065 29.513 22.7104 29.4734 22.5209C29.4338 22.3314 29.351 22.1535 29.2315 22.0012ZM5.50001 10.135C5.48355 9.18927 5.84272 8.2756 6.4988 7.59425C7.15488 6.91291 8.05433 6.51947 9.00001 6.5002H23C23.9457 6.51947 24.8451 6.91291 25.5012 7.59425C26.1573 8.2756 26.5165 9.18927 26.5 10.135V21.5002H5.50001V10.135ZM25.0293 25.5002H6.97071C6.18052 25.5063 5.41088 25.2486 4.78377 24.7678C4.15667 24.287 3.70797 23.6106 3.5088 22.8459C3.49842 22.8062 3.49743 22.7646 3.50591 22.7244C3.51438 22.6842 3.53209 22.6466 3.55763 22.6144C3.58581 22.5785 3.62186 22.5495 3.663 22.5297C3.70414 22.5099 3.74927 22.4998 3.79493 22.5002H28.2051C28.2507 22.4998 28.2959 22.5099 28.337 22.5297C28.3782 22.5495 28.4142 22.5785 28.4424 22.6144C28.468 22.6468 28.4857 22.6846 28.4942 22.7249C28.5027 22.7652 28.5016 22.807 28.4912 22.8469C28.2918 23.6114 27.843 24.2875 27.216 24.7681C26.5889 25.2487 25.8194 25.5064 25.0293 25.5002Z" fill="black"/>
</svg>
