<svg width="32" height="32" viewBox="0 0 32 32" fill="none" xmlns="http://www.w3.org/2000/svg">
<path d="M6.97133 25.0001C6.34191 25.0047 5.72637 24.8152 5.20857 24.4573C4.69078 24.0994 4.29591 23.5905 4.07777 23.0001H18.7682L16.7682 21.0001H5.99965V10.2316L4.27999 8.51189C4.10074 9.03452 4.0061 9.58242 3.99966 10.1349V21.0001H3.79457C3.52066 20.999 3.25014 21.0608 3.00393 21.1808C2.75773 21.3009 2.54242 21.476 2.37465 21.6925C2.20801 21.9049 2.09252 22.1527 2.03714 22.4169C1.98176 22.6811 1.98798 22.9545 2.05531 23.2159C2.33679 24.3038 2.97313 25.2667 3.86356 25.9521C4.754 26.6375 5.84764 27.0063 6.97131 27.0001H22.7682L20.7682 25.0001H6.97133Z" fill="black"/>
<path d="M27.668 26.2544C28.7981 25.5816 29.6165 24.4895 29.945 23.2159C30.0123 22.9545 30.0185 22.6811 29.9632 22.4169C29.9078 22.1527 29.7923 21.9049 29.6257 21.6925C29.4579 21.476 29.2426 21.3009 28.9964 21.1808C28.7502 21.0608 28.4797 20.999 28.2057 21.0001H27.9997V10.1349C28.0157 8.79147 27.4984 7.49651 26.5611 6.53396C25.6238 5.5714 24.3431 5.01981 22.9997 5.00011H8.99968C8.27291 5.00368 7.55628 5.17091 6.90299 5.48937L3.70668 2.29308C3.52235 2.10746 3.27241 2.00177 3.01082 1.99884C2.74924 1.99591 2.49699 2.09598 2.30855 2.27743C2.12011 2.45889 2.01059 2.70717 2.00363 2.96868C1.99668 3.23019 2.09285 3.48395 2.27138 3.67516C2.28038 3.68487 2.28316 3.69768 2.29262 3.70716L28.2926 29.7072C28.4801 29.8947 28.7345 30 28.9997 30C29.2648 30 29.5192 29.8947 29.7067 29.7072C29.8942 29.5196 29.9995 29.2653 29.9995 29.0001C29.9995 28.7349 29.8942 28.4806 29.7067 28.2931L27.668 26.2544ZM8.46968 7.05608C8.64422 7.02097 8.82166 7.00222 8.99968 7.00008H22.9997C23.8128 7.01923 24.5851 7.35994 25.1475 7.94754C25.7098 8.53514 26.0163 9.3217 25.9997 10.1349V21.0001H22.4137L8.46968 7.05608ZM26.1845 24.7709L24.4137 23.0001H27.9225C27.7747 23.4015 27.5434 23.767 27.2438 24.0722C26.9442 24.3775 26.5831 24.6157 26.1845 24.7709Z" fill="black"/>
</svg>
