<svg xmlns="http://www.w3.org/2000/svg" width="32" height="32" viewBox="0 0 32 32"><path d="M21.6652 11.585C21.9967 11.585 22.3146 11.4533 22.549 11.2188C22.7835 10.9844 22.9152 10.6665 22.9152 10.335C22.9152 10.0034 22.7835 9.6855 22.549 9.45108C22.3146 9.21666 21.9967 9.08496 21.6652 9.08496C21.3336 9.08496 21.0157 9.21666 20.7813 9.45108C20.5468 9.6855 20.4152 10.0034 20.4152 10.335C20.4152 10.6665 20.5468 10.9844 20.7813 11.2188C21.0157 11.4533 21.3336 11.585 21.6652 11.585ZM9.53015 22.47C9.46059 22.4003 9.37797 22.345 9.28703 22.3073C9.19609 22.2696 9.0986 22.2502 9.00015 22.2502C8.9017 22.2502 8.80422 22.2696 8.71328 22.3073C8.62233 22.345 8.53972 22.4003 8.47015 22.47L4.47015 26.47C4.39647 26.5386 4.33736 26.6214 4.29637 26.7134C4.25538 26.8054 4.23334 26.9047 4.23156 27.0054C4.22979 27.1061 4.24831 27.2062 4.28603 27.2996C4.32375 27.3929 4.3799 27.4778 4.45112 27.549C4.52233 27.6202 4.60717 27.6764 4.70056 27.7141C4.79394 27.7518 4.89397 27.7703 4.99468 27.7686C5.09538 27.7668 5.19469 27.7447 5.28669 27.7037C5.37869 27.6628 5.46149 27.6036 5.53015 27.53L9.53015 23.53C9.6706 23.3893 9.74949 23.1987 9.74949 23C9.74949 22.8012 9.6706 22.6106 9.53015 22.47ZM11.4702 24.47L9.47015 26.47C9.39647 26.5386 9.33736 26.6214 9.29637 26.7134C9.25538 26.8054 9.23334 26.9047 9.23156 27.0054C9.22978 27.1061 9.24831 27.2062 9.28603 27.2996C9.32375 27.3929 9.3799 27.4778 9.45112 27.549C9.52233 27.6202 9.60717 27.6764 9.70056 27.7141C9.79394 27.7518 9.89397 27.7703 9.99468 27.7686C10.0954 27.7668 10.1947 27.7447 10.2867 27.7037C10.3787 27.6628 10.4615 27.6036 10.5302 27.53L12.5302 25.53C12.6038 25.4613 12.6629 25.3785 12.7039 25.2865C12.7449 25.1945 12.767 25.0952 12.7687 24.9945C12.7705 24.8938 12.752 24.7938 12.7143 24.7004C12.6766 24.607 12.6204 24.5221 12.5492 24.4509C12.478 24.3797 12.3931 24.3236 12.2998 24.2858C12.2064 24.2481 12.1063 24.2296 12.0056 24.2314C11.9049 24.2331 11.8056 24.2552 11.7136 24.2962C11.6216 24.3372 11.5388 24.3963 11.4702 24.47ZM5.00015 22.75C5.09863 22.75 5.19614 22.7306 5.28709 22.6928C5.37804 22.6551 5.46064 22.5997 5.53015 22.53L7.53015 20.53C7.66263 20.3878 7.73476 20.1997 7.73133 20.0054C7.7279 19.8111 7.64919 19.6258 7.51178 19.4883C7.37436 19.3509 7.18898 19.2722 6.99468 19.2688C6.80037 19.2654 6.61233 19.3375 6.47015 19.47L4.47015 21.47C4.3654 21.5748 4.29407 21.7084 4.26519 21.8538C4.2363 21.9992 4.25116 22.1499 4.30787 22.2869C4.36458 22.4238 4.46061 22.5409 4.58382 22.6234C4.70704 22.7058 4.85191 22.7498 5.00015 22.75Z M27.2469 4.77018C27.0554 4.57861 26.8221 4.4341 26.5653 4.34803C26.3084 4.26196 26.0352 4.23668 25.7669 4.27418L22.8959 4.67418C19.7609 5.02756 16.8154 6.35399 14.4729 8.46718C13.8487 9.10214 13.3229 9.82681 12.9129 10.6172C12.5728 10.1965 12.1439 9.8562 11.6569 9.62073C11.1699 9.38526 10.6368 9.26043 10.0959 9.25518C8.4279 9.34218 7.24391 10.9202 6.19191 12.6502L5.14391 14.6202C4.92629 14.9746 4.83429 15.3919 4.88272 15.805C4.93116 16.218 5.11721 16.6027 5.41091 16.8972L5.74691 17.2412C5.90755 17.4023 6.09851 17.5299 6.30877 17.6168C6.51903 17.7036 6.74442 17.7479 6.97191 17.7472C7.37891 17.7452 7.7739 17.6072 8.0939 17.3552L10.8999 14.8702L9.4139 18.1102C9.26237 18.4362 9.21458 18.801 9.27699 19.1551C9.33941 19.5092 9.50902 19.8356 9.7629 20.0902L11.9099 22.2372C12.2399 22.5652 12.6859 22.7502 13.1519 22.7492C13.4029 22.7492 13.6519 22.6942 13.8799 22.5872L18.1119 20.6692L15.6159 23.5662C15.3552 23.9043 15.2269 24.326 15.2551 24.7521C15.2833 25.1781 15.466 25.5793 15.7689 25.8802L16.1009 26.2052C16.4519 26.5562 16.9279 26.7532 17.4239 26.7552C17.7489 26.7552 18.0669 26.6672 18.3439 26.4992L20.3909 25.4092C22.0069 24.4232 23.6709 23.1872 23.7519 21.4862C23.7383 20.9176 23.598 20.3592 23.3411 19.8518C23.0841 19.3443 22.7172 18.9007 22.2669 18.5532C22.7219 18.2532 23.1459 17.9102 23.5329 17.5272C25.6511 15.1924 26.9836 12.2521 27.3429 9.12018L27.7429 6.24718C27.7812 5.9792 27.7563 5.70599 27.6701 5.44937C27.584 5.19274 27.4391 4.95981 27.2469 4.76918V4.77018ZM7.13691 16.2002C7.09013 16.2365 7.03199 16.255 6.97284 16.2524C6.91369 16.2499 6.85737 16.2264 6.81391 16.1862L6.47791 15.8422C6.41732 15.7785 6.38094 15.6957 6.3751 15.608C6.36925 15.5203 6.3943 15.4333 6.44591 15.3622L7.49391 13.3932C8.22691 12.1912 9.1929 10.8042 10.1739 10.7532L10.2309 10.7512C10.9539 10.8732 11.6009 11.2732 12.0319 11.8662L7.13791 16.2002H7.13691ZM19.6469 24.1072L17.6029 25.1972C17.5326 25.2398 17.4498 25.2573 17.3683 25.2467C17.2867 25.2362 17.2111 25.1983 17.1539 25.1392L16.8229 24.8142C16.7835 24.7763 16.7576 24.7265 16.7493 24.6725C16.741 24.6184 16.7507 24.5632 16.7769 24.5152L21.0929 19.5072C21.4078 19.7275 21.6736 20.0107 21.8734 20.3389C22.0733 20.6672 22.2028 21.0333 22.2539 21.4142C22.2049 22.4212 20.8159 23.3942 19.6479 24.1072H19.6469ZM25.8569 8.91418C25.5437 11.7259 24.3583 14.3692 22.4669 16.4732C21.4415 17.3998 20.2558 18.1317 18.9679 18.6332L13.2519 21.2272C13.2056 21.2487 13.1538 21.2554 13.1035 21.2464C13.0533 21.2375 13.007 21.2133 12.9709 21.1772L10.8229 19.0302C10.7863 18.9929 10.7621 18.9452 10.7537 18.8936C10.7453 18.8421 10.753 18.7892 10.7759 18.7422L13.4559 12.8962C13.936 11.6587 14.6382 10.5193 15.5279 9.53418C17.6397 7.64794 20.2881 6.46866 23.1029 6.16118L25.9749 5.76118C26.0131 5.75529 26.0522 5.75845 26.0889 5.77041C26.1257 5.78236 26.1591 5.80278 26.1866 5.83002C26.214 5.85726 26.2346 5.89055 26.2469 5.92722C26.2591 5.9639 26.2625 6.00293 26.2569 6.04118L25.8569 8.91418Z"/></svg>