<svg width="32" height="32" viewBox="0 0 32 32" fill="none" xmlns="http://www.w3.org/2000/svg">
<path d="M25.0001 4.99958H7.00012C5.67452 5.00114 4.40365 5.52842 3.46631 6.46577C2.52896 7.40311 2.00168 8.67398 2.00012 9.99958V21.9996C2.00168 23.3252 2.52897 24.596 3.46631 25.5334C4.40365 26.4707 5.67452 26.998 7.00012 26.9996H25.0001C26.3257 26.998 27.5966 26.4707 28.5339 25.5334C29.4713 24.596 29.9986 23.3252 30.0001 21.9996V9.99958C29.9986 8.67398 29.4713 7.40311 28.5339 6.46577C27.5966 5.52842 26.3257 5.00114 25.0001 4.99958ZM28.0001 9.99958V14.9996H21.0011V6.99958H25.0001C25.7955 7.00045 26.5581 7.3168 27.1205 7.87922C27.6829 8.44164 27.9993 9.2042 28.0001 9.99958ZM4.00012 21.9996V9.99958C4.00099 9.2042 4.31734 8.44164 4.87976 7.87922C5.44218 7.3168 6.20474 7.00045 7.00012 6.99958H19.0011V24.9996H7.00012C6.20474 24.9987 5.44218 24.6824 4.87976 24.1199C4.31734 23.5575 4.00099 22.795 4.00012 21.9996ZM28.0001 21.9996C27.9993 22.795 27.6829 23.5575 27.1205 24.1199C26.5581 24.6824 25.7955 24.9987 25.0001 24.9996H21.0011V16.9996H28.0001V21.9996Z" fill="black"/>
</svg>
