<svg xmlns="http://www.w3.org/2000/svg" width="32" height="32" viewBox="0 0 32 32"><path d="M25 5H7C5.6744 5.00159 4.40356 5.52888 3.46622 6.46622C2.52888 7.40356 2.00159 8.6744 2 10V22C2.00159 23.3256 2.52888 24.5964 3.46622 25.5338C4.40356 26.4711 5.6744 26.9984 7 27H25C26.3256 26.9984 27.5964 26.4711 28.5338 25.5338C29.4711 24.5964 29.9984 23.3256 30 22V10C29.9987 8.67432 29.4715 7.40332 28.5341 6.46593C27.5967 5.52853 26.3257 5.00132 25 5ZM28 10V15H21.001V7H25.001C25.7964 7.00079 26.559 7.31712 27.1214 7.87956C27.6839 8.44199 28.0002 9.20459 28.001 10H28ZM4 22V10C4.00079 9.20459 4.31712 8.44199 4.87956 7.87956C5.44199 7.31712 6.20459 7.00079 7 7H19.001V25H7.001C6.20559 24.9992 5.44299 24.6829 4.88056 24.1204C4.31812 23.558 4.00179 22.7954 4.001 22H4ZM28 22C27.9992 22.7954 27.6829 23.558 27.1204 24.1204C26.558 24.6829 25.7954 24.9992 25 25H21.001V17H28.001V22H28Z"/></svg>