<svg xmlns="http://www.w3.org/2000/svg" width="32" height="32" viewBox="0 0 32 32"><path d="M7 5.5H25C26.1931 5.5013 27.3369 5.97583 28.1805 6.81946C29.0242 7.66309 29.4987 8.80693 29.5 10V11C29.5 11.1326 29.4473 11.2598 29.3536 11.3536C29.2598 11.4473 29.1326 11.5 29 11.5C28.8674 11.5 28.7402 11.4473 28.6464 11.3536C28.5527 11.2598 28.5 11.1326 28.5 11V10C28.4989 9.07209 28.1298 8.1825 27.4736 7.52637C26.8175 6.87023 25.9279 6.50112 25 6.5H7C6.07209 6.50112 5.1825 6.87023 4.52637 7.52637C3.87023 8.1825 3.50112 9.07209 3.5 10V22C3.50112 22.9279 3.87023 23.8175 4.52637 24.4736C5.1825 25.1298 6.07209 25.4989 7 25.5H25C25.9279 25.4989 26.8175 25.1298 27.4736 24.4736C28.1298 23.8175 28.4989 22.9279 28.5 22V21C28.5 20.8674 28.5527 20.7402 28.6464 20.6464C28.7402 20.5527 28.8674 20.5 29 20.5C29.1326 20.5 29.2598 20.5527 29.3536 20.6464C29.4473 20.7402 29.5 20.8674 29.5 21V22C29.4987 23.1931 29.0242 24.3369 28.1805 25.1805C27.3369 26.0242 26.1931 26.4987 25 26.5H7C5.80692 26.4987 4.66309 26.0242 3.81945 25.1805C2.97582 24.3369 2.5013 23.1931 2.5 22V10C2.5013 8.80692 2.97582 7.66309 3.81945 6.81946C4.66309 5.97582 5.80692 5.5013 7 5.5Z M20.5 15.9964C20.5 16.0621 20.5129 16.1271 20.538 16.1878C20.5631 16.2485 20.5999 16.3036 20.6464 16.35C20.6928 16.3965 20.7479 16.4333 20.8086 16.4584C20.8693 16.4835 20.9343 16.4964 21 16.4964H27.793L24.6465 19.6429C24.5993 19.6891 24.5617 19.7443 24.536 19.8051C24.5102 19.866 24.4968 19.9313 24.4965 19.9974C24.4961 20.0635 24.5089 20.129 24.534 20.1901C24.5592 20.2512 24.5962 20.3067 24.6429 20.3535C24.6896 20.4002 24.7452 20.4372 24.8063 20.4623C24.8674 20.4875 24.9329 20.5002 24.9989 20.4999C25.065 20.4996 25.1304 20.4861 25.1912 20.4604C25.2521 20.4346 25.3072 20.3971 25.3535 20.3499L29.3529 16.3505C29.4466 16.2565 29.4993 16.1291 29.4993 15.9964C29.4993 15.8636 29.4466 15.7362 29.3529 15.6422L25.3535 11.6429C25.2594 11.5507 25.1328 11.4993 25.0011 11.5C24.8693 11.5007 24.7432 11.5533 24.6501 11.6464C24.5569 11.7396 24.5043 11.8657 24.5036 11.9974C24.503 12.1291 24.5543 12.2558 24.6465 12.3499L27.793 15.4964H21C20.9343 15.4964 20.8693 15.5093 20.8086 15.5344C20.7479 15.5595 20.6928 15.5963 20.6464 15.6428C20.5999 15.6892 20.5631 15.7443 20.538 15.805C20.5129 15.8657 20.5 15.9307 20.5 15.9964Z M15 8.5C14.7239 8.5 14.5 8.72386 14.5 9C14.5 9.27614 14.7239 9.5 15 9.5H17C17.2761 9.5 17.5 9.27614 17.5 9C17.5 8.72386 17.2761 8.5 17 8.5H15Z"/></svg>