<svg xmlns="http://www.w3.org/2000/svg" width="32" height="32" viewBox="0 0 32 32"><path d="M11 27.5021H21C21.985 27.5023 22.9603 27.3084 23.8703 26.9315C24.7803 26.5546 25.6071 26.0022 26.3036 25.3057C27.0001 24.6093 27.5525 23.7824 27.9294 22.8724C28.3062 21.9624 28.5001 20.9871 28.5 20.0021V15.0001C28.5 14.0722 28.1315 13.1823 27.4756 12.526C26.8196 11.8697 25.9299 11.5007 25.002 11.5001H25L17.5 11.4431V7.00014C17.5069 6.36868 17.271 5.75869 16.8412 5.29609C16.4113 4.83348 15.8203 4.55357 15.19 4.51414C15.1003 4.50515 15.0102 4.50048 14.92 4.50014C14.3649 4.48725 13.8235 4.67345 13.3938 5.02506C12.964 5.37667 12.6743 5.87047 12.577 6.41714L11 14.4621V27.5021ZM7 27.5021H9V14.5021H7C6.07242 14.5027 5.18295 14.8712 4.52677 15.5268C3.87059 16.1824 3.50132 17.0716 3.5 17.9991V24.0021C3.50106 24.9301 3.87015 25.8197 4.5263 26.4758C5.18244 27.132 6.07207 27.5011 7 27.5021Z"/></svg>