<svg xmlns="http://www.w3.org/2000/svg" width="32" height="32" viewBox="0 0 32 32"><path d="M25 11.2471H17.749L17.75 7.00013C17.7499 6.33242 17.5069 5.68755 17.0663 5.18585C16.6257 4.68414 16.0176 4.35988 15.3555 4.27357C14.6934 4.18725 14.0225 4.34478 13.468 4.71676C12.9135 5.08874 12.5133 5.64976 12.342 6.29513C11.407 9.79213 10.536 13.0001 10.196 14.2511L7 14.2471C6.00584 14.2485 5.05279 14.644 4.34981 15.3469C3.64684 16.0499 3.25132 17.003 3.25 17.9971V23.9971C3.25106 24.9914 3.64649 25.9446 4.34952 26.6476C5.05255 27.3506 6.00576 27.7461 7 27.7471H21.001C23.0563 27.7469 25.0272 26.9302 26.4804 25.4769C27.9336 24.0235 28.75 22.0524 28.75 19.9971V14.9971C28.7487 14.003 28.3532 13.0499 27.6502 12.3469C26.9472 11.644 25.9942 11.2485 25 11.2471ZM4.75 23.9971V17.9971C4.75079 17.4008 4.98796 16.8291 5.40953 16.4074C5.8311 15.9856 6.40268 15.7482 6.999 15.7471L10.25 15.7501V26.2471H7C6.40351 26.2463 5.83167 26.009 5.40989 25.5872C4.9881 25.1655 4.75079 24.5936 4.75 23.9971ZM27.25 19.9971C27.2503 20.818 27.0888 21.6308 26.7748 22.3892C26.4608 23.1476 26.0004 23.8367 25.42 24.4171C24.8396 24.9976 24.1505 25.4579 23.3921 25.7719C22.6337 26.0859 21.8208 26.2474 21 26.2471H11.75V14.2531C12.143 12.8061 12.94 9.86713 13.79 6.68213C13.8664 6.38745 14.0477 6.13077 14.2999 5.96027C14.5521 5.78976 14.8578 5.71715 15.1598 5.75605C15.4617 5.79496 15.739 5.94271 15.9398 6.17158C16.1405 6.40045 16.2508 6.69471 16.25 6.99913L16.254 11.3581C16.2343 11.533 16.2517 11.71 16.3051 11.8777C16.3586 12.0453 16.4468 12.1998 16.564 12.331C16.6813 12.4622 16.8249 12.5672 16.9855 12.6391C17.1461 12.7109 17.32 12.7481 17.496 12.7481L25 12.7471C25.5965 12.7479 26.1683 12.9852 26.5901 13.407C27.0119 13.8288 27.2492 14.4006 27.25 14.9971V19.9971Z"/></svg>