<svg width="32" height="32" viewBox="0 0 32 32" fill="none" xmlns="http://www.w3.org/2000/svg">
<path d="M10.2932 21.7069C10.4807 21.8944 10.735 21.9997 11.0002 21.9997C11.2654 21.9997 11.5197 21.8944 11.7073 21.7069L21.7073 11.7069C21.8024 11.6146 21.8783 11.5042 21.9304 11.3823C21.9826 11.2604 22.0099 11.1293 22.0109 10.9967C22.0119 10.8641 21.9866 10.7326 21.9363 10.6099C21.886 10.4872 21.8118 10.3758 21.7181 10.282C21.6243 10.1883 21.5128 10.1141 21.3901 10.0638C21.2674 10.0135 21.1359 9.98816 21.0033 9.98918C20.8707 9.99019 20.7397 10.0176 20.6177 10.0697C20.4958 10.1218 20.3855 10.1977 20.2932 10.2929L10.2932 20.2929C10.1057 20.4804 10.0004 20.7347 10.0004 20.9999C10.0004 21.2651 10.1057 21.5194 10.2932 21.7069Z" fill="black"/>
<path d="M18.0588 20.0014C17.7951 19.9836 17.535 20.0696 17.3339 20.2411C17.1328 20.4125 17.0067 20.6558 16.9826 20.9189C16.8783 22.2173 16.3155 23.4363 15.3948 24.3578L13.3576 26.3944C12.3296 27.4224 10.9354 27.9999 9.48162 27.9999C8.02786 27.9999 6.63364 27.4224 5.60567 26.3944C4.57771 25.3664 4.0002 23.9722 4.0002 22.5185C4.0002 21.0647 4.57771 19.6705 5.60567 18.6425L7.64277 16.6054C8.56358 15.6846 9.78199 15.1216 11.08 15.017C11.2127 15.009 11.3425 14.9746 11.4618 14.9158C11.5811 14.857 11.6874 14.775 11.7746 14.6746C11.8618 14.5742 11.9281 14.4574 11.9696 14.331C12.0111 14.2047 12.0271 14.0714 12.0164 13.9388C12.0058 13.8063 11.9688 13.6772 11.9077 13.5591C11.8465 13.441 11.7624 13.3363 11.6603 13.2511C11.5582 13.1658 11.4402 13.1019 11.313 13.0628C11.1859 13.0238 11.0523 13.0105 10.92 13.0238C9.14835 13.1661 7.48527 13.9345 6.22857 15.1913L4.19157 17.2284C2.80114 18.634 2.02365 20.5329 2.02902 22.51C2.03439 24.4871 2.82217 26.3817 4.22021 27.7798C5.61825 29.1778 7.51286 29.9656 9.48998 29.971C11.4671 29.9763 13.366 29.1988 14.7716 27.8084L16.8087 25.7718C18.0655 24.5141 18.834 22.8503 18.9767 21.0779C18.9871 20.9469 18.9717 20.8152 18.9312 20.6902C18.8907 20.5652 18.826 20.4494 18.7408 20.3495C18.6555 20.2495 18.5514 20.1673 18.4344 20.1076C18.3174 20.0478 18.1897 20.0118 18.0588 20.0014Z" fill="black"/>
<path d="M27.8088 4.1913C26.4046 2.79046 24.5022 2.00375 22.5188 2.00375C20.5354 2.00375 18.6329 2.79046 17.2288 4.1913L15.217 6.2035C13.9059 7.44197 13.1204 9.13655 13.0227 10.9374C13.0142 11.0685 13.0316 11.1999 13.074 11.3242C13.1163 11.4486 13.1827 11.5633 13.2694 11.662C13.3561 11.7607 13.4614 11.8413 13.5792 11.8993C13.6971 11.9572 13.8252 11.9914 13.9563 11.9999C14.0873 12.0084 14.2188 11.9909 14.3431 11.9486C14.4674 11.9063 14.5822 11.8398 14.6809 11.7532C14.7795 11.6665 14.8602 11.5612 14.9181 11.4433C14.9761 11.3255 15.0103 11.1974 15.0188 11.0663C15.0875 9.76336 15.6559 8.53706 16.6057 7.6425L18.6428 5.6054C19.6708 4.57742 21.0651 3.99993 22.5189 3.99997C23.9727 4.00001 25.367 4.57757 26.395 5.6056C27.423 6.63363 28.0004 8.02792 28.0004 9.48174C28.0004 10.9356 27.4228 12.3298 26.3948 13.3578L24.3576 15.3944C23.4371 16.3151 22.2188 16.878 20.9211 16.9823C20.663 17.002 20.4227 17.121 20.2505 17.3142C20.0783 17.5074 19.9878 17.7599 19.9979 18.0185C20.008 18.2771 20.118 18.5217 20.3047 18.7009C20.4914 18.8801 20.7404 18.9799 20.9992 18.9794C21.0256 18.9794 21.053 18.9784 21.0792 18.9765C22.8512 18.8341 24.5146 18.0656 25.7716 16.8085L27.8087 14.7719C29.2097 13.3678 29.9965 11.4652 29.9966 9.48162C29.9966 7.49805 29.2098 5.59548 27.8088 4.1913Z" fill="black"/>
</svg>
