<svg width="32" height="32" viewBox="0 0 32 32" fill="none" xmlns="http://www.w3.org/2000/svg">
<path d="M10.6467 21.3534C10.7405 21.4471 10.8676 21.4998 11.0002 21.4998C11.1328 21.4998 11.2599 21.4471 11.3537 21.3534L21.3537 11.3534C21.4448 11.2591 21.4952 11.1328 21.494 11.0017C21.4929 10.8706 21.4403 10.7452 21.3476 10.6525C21.2549 10.5598 21.1295 10.5072 20.9984 10.5061C20.8673 10.5049 20.741 10.5553 20.6467 10.6464L10.6467 20.6464C10.553 20.7402 10.5003 20.8673 10.5003 20.9999C10.5003 21.1325 10.553 21.2596 10.6467 21.3534Z" fill="black"/>
<path d="M18.02 20.5C17.8881 20.4909 17.7578 20.5338 17.6572 20.6197C17.5566 20.7055 17.4937 20.8273 17.4819 20.959C17.3677 22.3759 16.7533 23.7059 15.7485 24.7114L13.7112 26.748C13.1558 27.3034 12.4964 27.744 11.7707 28.0446C11.045 28.3452 10.2672 28.4999 9.48169 28.4999C7.89532 28.4999 6.37392 27.8697 5.25219 26.748C4.13046 25.6263 3.50027 24.1049 3.50027 22.5185C3.50027 20.9321 4.13046 19.4107 5.25219 18.289L7.28929 16.2519C8.29405 15.2472 9.62363 14.6329 11.04 14.519C11.1722 14.5084 11.2948 14.4457 11.3808 14.3447C11.4668 14.2437 11.5091 14.1127 11.4985 13.9804C11.4879 13.8482 11.4252 13.7256 11.3242 13.6396C11.2232 13.5536 11.0922 13.5113 10.96 13.5219C9.3067 13.6546 7.7547 14.3718 6.58209 15.5448L4.54509 17.5819C3.23584 18.8912 2.50031 20.6669 2.50031 22.5185C2.50031 24.37 3.23584 26.1457 4.54509 27.455C5.85435 28.7643 7.63008 29.4998 9.48164 29.4998C11.3332 29.4998 13.1089 28.7643 14.4182 27.455L16.4553 25.4184C17.6284 24.245 18.3453 22.6923 18.4778 21.0384C18.4831 20.973 18.4755 20.9071 18.4554 20.8447C18.4353 20.7822 18.4031 20.7243 18.3605 20.6743C18.318 20.6243 18.266 20.5831 18.2076 20.5532C18.1492 20.5233 18.0854 20.5052 18.02 20.5Z" fill="black"/>
<path d="M27.4553 4.5448C26.1449 3.23769 24.3696 2.50365 22.5188 2.50365C20.668 2.50365 18.8927 3.23769 17.5823 4.5448L15.5578 6.5693C14.3406 7.72108 13.6118 9.296 13.5217 10.9693C13.5133 11.1016 13.5577 11.2319 13.6452 11.3315C13.7328 11.4311 13.8562 11.4919 13.9885 11.5006C14.1197 11.5046 14.2476 11.4587 14.3462 11.372C14.4449 11.2854 14.5069 11.1645 14.5198 11.0338C14.5952 9.60945 15.2155 8.26866 16.2522 7.289L18.2893 5.2519C19.4125 4.13713 20.9318 3.51291 22.5143 3.51592C24.0968 3.51893 25.6136 4.14894 26.7326 5.26798C27.8516 6.38702 28.4815 7.90388 28.4845 9.4864C28.4874 11.0689 27.8631 12.5881 26.7483 13.7113L24.7112 15.748C23.7063 16.7527 22.3766 17.367 20.9602 17.4809C20.8313 17.4909 20.7113 17.5504 20.6254 17.647C20.5394 17.7436 20.4942 17.8697 20.4993 17.9989C20.5043 18.1281 20.5592 18.2503 20.6524 18.3399C20.7456 18.4295 20.8699 18.4795 20.9992 18.4794C21.0129 18.4794 21.0266 18.4789 21.0403 18.4779C22.6935 18.3448 24.2454 17.6277 25.4182 16.455L27.4553 14.4184C28.7629 13.1082 29.4973 11.3327 29.4973 9.4816C29.4973 7.6305 28.7629 5.85502 27.4553 4.5448Z" fill="black"/>
</svg>
