<svg width="32" height="32" viewBox="0 0 32 32" fill="none" xmlns="http://www.w3.org/2000/svg">
<path d="M10.47 21.53C10.6106 21.6706 10.8014 21.7496 11.0003 21.7496C11.1992 21.7496 11.3899 21.6706 11.5306 21.53L21.5306 11.53C21.6652 11.3881 21.739 11.1994 21.7364 11.0038C21.7338 10.8083 21.6549 10.6216 21.5167 10.4833C21.3784 10.3451 21.1915 10.2664 20.996 10.2639C20.8005 10.2614 20.6118 10.3354 20.47 10.47L10.47 20.47C10.3295 20.6106 10.2506 20.8013 10.2506 21C10.2506 21.1988 10.3295 21.3894 10.47 21.53Z" fill="black"/>
<path d="M18.0393 20.2509C17.8413 20.2365 17.6456 20.3006 17.4945 20.4294C17.3433 20.5581 17.249 20.7411 17.2317 20.9389C17.1231 22.2966 16.5346 23.5713 15.5717 24.5346L13.5346 26.5712C12.4583 27.639 11.0027 28.2367 9.48659 28.2337C7.97048 28.2307 6.51734 27.6271 5.44529 26.555C4.37324 25.4829 3.76962 24.0298 3.76658 22.5137C3.76355 20.9976 4.36134 19.542 5.42909 18.4657L7.46599 16.4286C8.42875 15.4658 9.70279 14.8771 11.06 14.768C11.1592 14.7616 11.2562 14.7355 11.3452 14.6912C11.4342 14.647 11.5136 14.5855 11.5786 14.5103C11.6437 14.4351 11.6932 14.3478 11.7241 14.2533C11.7551 14.1588 11.767 14.0591 11.7591 13.96C11.7512 13.8609 11.7237 13.7644 11.6781 13.676C11.6326 13.5876 11.5699 13.5092 11.4938 13.4452C11.4177 13.3813 11.3296 13.3331 11.2346 13.3035C11.1397 13.274 11.0399 13.2635 10.9409 13.2729C9.22817 13.41 7.62032 14.1528 6.40569 15.3681L4.36839 17.4052C3.69336 18.0759 3.15735 18.8732 2.79108 19.7515C2.42481 20.6298 2.23549 21.5717 2.23396 22.5233C2.23243 23.4748 2.41872 24.4174 2.78217 25.2968C3.14561 26.1762 3.67906 26.9753 4.35192 27.6482C5.02479 28.321 5.82384 28.8545 6.70327 29.2179C7.5827 29.5814 8.52522 29.7677 9.4768 29.7662C10.4284 29.7647 11.3703 29.5753 12.2486 29.2091C13.1268 28.8428 13.9242 28.3068 14.5949 27.6318L16.6321 25.5951C17.847 24.3794 18.5898 22.7712 18.7278 21.058C18.7356 20.9598 18.724 20.861 18.6936 20.7673C18.6632 20.6736 18.6147 20.5868 18.5507 20.5118C18.4868 20.4369 18.4087 20.3752 18.321 20.3305C18.2332 20.2857 18.1375 20.2587 18.0393 20.2509Z" fill="black"/>
<path d="M27.6321 4.3681C26.9606 3.69655 26.1635 3.16385 25.2861 2.8004C24.4088 2.43696 23.4684 2.2499 22.5188 2.2499C21.5691 2.2499 20.6288 2.43696 19.7514 2.8004C18.8741 3.16385 18.0769 3.69655 17.4055 4.3681L15.3879 6.3866C14.1237 7.58162 13.3665 9.2164 13.2727 10.9535C13.2662 11.0518 13.2791 11.1503 13.3108 11.2436C13.3424 11.3368 13.3921 11.4229 13.4571 11.4969C13.522 11.5709 13.6009 11.6314 13.6892 11.6749C13.7776 11.7184 13.8736 11.7441 13.9719 11.7504C14.1698 11.7606 14.3638 11.6932 14.5126 11.5624C14.6615 11.4317 14.7534 11.2479 14.7688 11.0504C14.8414 9.68675 15.4358 8.40329 16.4288 7.4659L18.466 5.4286C19.5409 4.35375 20.9988 3.74992 22.5189 3.74997C24.039 3.75002 25.4969 4.35393 26.5717 5.42885C27.6466 6.50377 28.2504 7.96166 28.2504 9.48178C28.2503 11.0019 27.6464 12.4597 26.5715 13.5346L24.5344 15.5712C23.5717 16.534 22.2978 17.1227 20.9407 17.2319C20.7479 17.2477 20.5687 17.3373 20.4405 17.482C20.3122 17.6268 20.2448 17.8154 20.2524 18.0087C20.2599 18.2019 20.3418 18.3848 20.481 18.5191C20.6201 18.6534 20.8058 18.7287 20.9992 18.7294C21.0198 18.7294 21.0392 18.7284 21.0598 18.727C22.7724 18.5894 24.38 17.8467 25.5949 16.6318L27.6321 14.5951C28.3036 13.9236 28.8363 13.1264 29.1997 12.249C29.5631 11.3716 29.7502 10.4313 29.7502 9.4816C29.7502 8.53193 29.5631 7.59157 29.1997 6.71419C28.8363 5.83681 28.3036 5.03961 27.6321 4.3681Z" fill="black"/>
</svg>
