<svg width="32" height="32" viewBox="0 0 32 32" fill="none" xmlns="http://www.w3.org/2000/svg">
<path d="M9.99964 10.4998H27.9996C28.1322 10.4998 28.2594 10.4471 28.3532 10.3533C28.447 10.2596 28.4996 10.1324 28.4996 9.99977C28.4996 9.86716 28.447 9.73998 28.3532 9.64622C28.2594 9.55245 28.1322 9.49977 27.9996 9.49977H9.99964C9.86703 9.49977 9.73985 9.55245 9.64609 9.64622C9.55232 9.73998 9.49964 9.86716 9.49964 9.99977C9.49964 10.1324 9.55232 10.2596 9.64609 10.3533C9.73985 10.4471 9.86703 10.4998 9.99964 10.4998Z" fill="black"/>
<path d="M27.9996 21.4998H9.99964C9.86703 21.4998 9.73985 21.5524 9.64609 21.6462C9.55232 21.74 9.49964 21.8672 9.49964 21.9998C9.49964 22.1324 9.55232 22.2596 9.64609 22.3533C9.73985 22.4471 9.86703 22.4998 9.99964 22.4998H27.9996C28.1322 22.4998 28.2594 22.4471 28.3532 22.3533C28.447 22.2596 28.4996 22.1324 28.4996 21.9998C28.4996 21.8672 28.447 21.74 28.3532 21.6462C28.2594 21.5524 28.1322 21.4998 27.9996 21.4998Z" fill="black"/>
<path d="M4.25 10.75C4.66421 10.75 5 10.4142 5 10C5 9.58581 4.66421 9.25002 4.25 9.25002C3.83579 9.25002 3.5 9.58581 3.5 10C3.5 10.4142 3.83579 10.75 4.25 10.75Z" fill="black"/>
<path d="M4.25 22.75C4.66421 22.75 5 22.4142 5 22C5 21.5857 4.66421 21.25 4.25 21.25C3.83579 21.25 3.5 21.5857 3.5 22C3.5 22.4142 3.83579 22.75 4.25 22.75Z" fill="black"/>
</svg>
