<svg xmlns="http://www.w3.org/2000/svg" width="32" height="32" viewBox="0 0 32 32"><path d="M12 10.75H28C28.1989 10.75 28.3897 10.671 28.5303 10.5303C28.671 10.3897 28.75 10.1989 28.75 10C28.75 9.80111 28.671 9.61034 28.5303 9.46969C28.3897 9.32904 28.1989 9.25002 28 9.25002H12C11.8011 9.25002 11.6103 9.32904 11.4697 9.46969C11.329 9.61034 11.25 9.80111 11.25 10C11.25 10.1989 11.329 10.3897 11.4697 10.5303C11.6103 10.671 11.8011 10.75 12 10.75ZM28 21.25H12C11.8011 21.25 11.6103 21.329 11.4697 21.4697C11.329 21.6103 11.25 21.8011 11.25 22C11.25 22.1989 11.329 22.3897 11.4697 22.5303C11.6103 22.671 11.8011 22.75 12 22.75H28C28.1989 22.75 28.3897 22.671 28.5303 22.5303C28.671 22.3897 28.75 22.1989 28.75 22C28.75 21.8011 28.671 21.6103 28.5303 21.4697C28.3897 21.329 28.1989 21.25 28 21.25ZM7.32 21.785C7.6 21.365 7.74 20.909 7.74 20.415C7.74 19.855 7.55 19.392 7.17 19.025C6.744 18.625 6.174 18.425 5.46 18.425C4.834 18.425 4.3 18.591 3.86 18.925C3.367 19.292 3.08 19.785 3 20.405H4.01C4.05 20.065 4.184 19.792 4.41 19.585C4.67 19.352 5.014 19.235 5.44 19.235C5.82 19.235 6.127 19.332 6.36 19.525C6.627 19.739 6.76 20.039 6.76 20.425C6.76 20.745 6.669 21.049 6.485 21.34C6.302 21.63 5.957 22.018 5.45 22.505L3.17 24.695V25.575H7.71V24.695H4.47L6.07 23.175C6.677 22.601 7.094 22.138 7.32 21.785ZM5.57 13.645H6.52V6.64502H5.58L4 7.46502V8.45502L5.57 7.64502V13.645Z"/></svg>