<svg width="32" height="32" viewBox="0 0 32 32" fill="none" xmlns="http://www.w3.org/2000/svg">
<path d="M6 8.75H26.0005C26.1994 8.75 26.3902 8.67098 26.5308 8.53033C26.6715 8.38968 26.7505 8.19891 26.7505 8C26.7505 7.80109 26.6715 7.61032 26.5308 7.46967C26.3902 7.32902 26.1994 7.25 26.0005 7.25H6C5.80109 7.25 5.61032 7.32902 5.46967 7.46967C5.32902 7.61032 5.25 7.80109 5.25 8C5.25 8.19891 5.32902 8.38968 5.46967 8.53033C5.61032 8.67098 5.80109 8.75 6 8.75Z" fill="black"/>
<path d="M26.0005 15.25H6C5.80109 15.25 5.61032 15.329 5.46967 15.4697C5.32902 15.6103 5.25 15.8011 5.25 16C5.25 16.1989 5.32902 16.3897 5.46967 16.5303C5.61032 16.671 5.80109 16.75 6 16.75H26.0005C26.1994 16.75 26.3902 16.671 26.5308 16.5303C26.6715 16.3897 26.7505 16.1989 26.7505 16C26.7505 15.8011 26.6715 15.6103 26.5308 15.4697C26.3902 15.329 26.1994 15.25 26.0005 15.25Z" fill="black"/>
<path d="M26.0005 23.25H6C5.80109 23.25 5.61032 23.329 5.46967 23.4697C5.32902 23.6103 5.25 23.8011 5.25 24C5.25 24.1989 5.32902 24.3897 5.46967 24.5303C5.61032 24.671 5.80109 24.75 6 24.75H26.0005C26.1994 24.75 26.3902 24.671 26.5308 24.5303C26.6715 24.3897 26.7505 24.1989 26.7505 24C26.7505 23.8011 26.6715 23.6103 26.5308 23.4697C26.3902 23.329 26.1994 23.25 26.0005 23.25Z" fill="black"/>
</svg>
