<svg width="32" height="32" viewBox="0 0 32 32" fill="none" xmlns="http://www.w3.org/2000/svg">
<path d="M12.0004 10.5001H28.0004C28.2768 10.5001 28.5004 10.2765 28.5004 10.0001C28.5004 9.7237 28.2768 9.5001 28.0004 9.5001H12.0004C11.724 9.5001 11.5004 9.7237 11.5004 10.0001C11.5004 10.2765 11.724 10.5001 12.0004 10.5001Z" fill="black"/>
<path d="M28.0004 21.4996H12.0004C11.724 21.4996 11.5004 21.7232 11.5004 21.9996C11.5004 22.276 11.724 22.4996 12.0004 22.4996H28.0004C28.2768 22.4996 28.5004 22.276 28.5004 21.9996C28.5004 21.7232 28.2768 21.4996 28.0004 21.4996Z" fill="black"/>
<path d="M7.1698 21.7144C7.4432 21.3013 7.58 20.855 7.58 20.3746C7.58 19.8287 7.3925 19.3785 7.0195 19.025C6.6064 18.6246 6.0595 18.4254 5.3799 18.4254C4.7793 18.4254 4.2695 18.5816 3.8496 18.8951C3.3691 19.2418 3.0859 19.7213 3 20.3346H3.79C3.8359 19.9684 3.9863 19.6715 4.2392 19.445C4.5263 19.1852 4.8994 19.0554 5.3593 19.0554C5.7792 19.0554 6.1191 19.1618 6.3798 19.3747C6.6728 19.6149 6.8193 19.9518 6.8193 20.3854C6.8193 20.7184 6.7314 21.0299 6.5547 21.32C6.378 21.6101 6.0498 21.9919 5.5693 22.4645L3.1191 24.8844V25.5748H7.5595V24.8844H4.119L6.0096 23.0348C6.5692 22.4947 6.9559 22.0552 7.1698 21.7144Z" fill="black"/>
<path d="M5.5899 13.6446H6.3301V6.6446H5.6006L4 7.5245V8.2945L5.5899 7.4244V13.6446Z" fill="black"/>
</svg>
