<svg xmlns="http://www.w3.org/2000/svg" width="32" height="32" viewBox="0 0 32 32"><path d="M7.57 12.4H6.28v7.2H11v-1.05H7.57V12.4ZM13.262 12.4h-1.28v7.2h1.28v-7.2ZM17.249 18.5l1.98-6.1h1.25l-2.47 7.2h-1.57l-2.49-7.2h1.34l1.96 6.1ZM25.522 16.44v-.97h-3.07v-2.06h3.36V12.4h-4.64v7.2h4.64v-1h-3.36v-2.16h3.07Z"/><path d="M7 6.25h18A4.756 4.756 0 0 1 29.75 11v10A4.755 4.755 0 0 1 25 25.75H7A4.756 4.756 0 0 1 2.25 21V11A4.755 4.755 0 0 1 7 6.25Zm20.297 17.047c.61-.61.952-1.436.953-2.297V11A3.254 3.254 0 0 0 25 7.75H7A3.254 3.254 0 0 0 3.75 11v10A3.254 3.254 0 0 0 7 24.25h18a3.254 3.254 0 0 0 2.297-.953Z"/></svg>