<svg width="32" height="32" viewBox="0 0 32 32" fill="none" xmlns="http://www.w3.org/2000/svg">
<path d="M24.6464 6.68137C23.8046 5.24891 22.6014 4.06257 21.1572 3.241C19.713 2.41942 18.0784 1.9914 16.4169 1.99973H15.5829C13.9233 1.99911 12.292 2.43023 10.8493 3.25074C9.40669 4.07125 8.20229 5.25292 7.35445 6.67968C6.50662 8.10644 6.0445 9.7292 6.01351 11.3886C5.98252 13.0479 6.38371 14.6868 7.17767 16.1443L7.17962 16.1492L14.2509 28.9607C14.4221 29.2747 14.6746 29.5369 14.982 29.7197C15.2894 29.9025 15.6403 29.9992 15.998 29.9997C16.3556 30.0002 16.7068 29.9045 17.0147 29.7225C17.3227 29.5406 17.5759 29.2791 17.748 28.9655L24.8222 16.1443C25.624 14.6896 26.0297 13.05 25.9988 11.3893C25.968 9.72867 25.5016 8.10522 24.6464 6.68137ZM23.0683 15.1824L16.0048 27.9988L8.93255 15.1853C8.30513 14.0324 7.98834 12.7362 8.01328 11.4239C8.03822 10.1116 8.40404 8.82829 9.07481 7.70009C9.74559 6.57189 10.6983 5.63753 11.8393 4.98879C12.9803 4.34004 14.2704 3.99919 15.5829 3.99973H16.4169C17.7292 3.99914 19.0191 4.33981 20.1599 4.9883C21.3008 5.63679 22.2534 6.5708 22.9242 7.69865C23.595 8.8265 23.9611 10.1094 23.9863 11.4214C24.0116 12.7335 23.6952 14.0295 23.0683 15.1824Z" fill="black"/>
<path d="M15.9999 7.99973C15.2088 7.99973 14.4354 8.23433 13.7776 8.67385C13.1199 9.11338 12.6072 9.73809 12.3044 10.469C12.0017 11.1999 11.9224 12.0042 12.0768 12.7801C12.2311 13.556 12.6121 14.2687 13.1715 14.8282C13.7309 15.3876 14.4436 15.7685 15.2196 15.9229C15.9955 16.0772 16.7998 15.998 17.5307 15.6952C18.2616 15.3925 18.8863 14.8798 19.3258 14.222C19.7653 13.5642 19.9999 12.7909 19.9999 11.9997C19.9989 10.9392 19.5771 9.92239 18.8272 9.17247C18.0773 8.42256 17.0605 8.00079 15.9999 7.99973ZM15.9999 13.9997C15.6044 13.9997 15.2177 13.8824 14.8888 13.6627C14.5599 13.4429 14.3035 13.1306 14.1522 12.7651C14.0008 12.3996 13.9612 11.9975 14.0384 11.6096C14.1155 11.2216 14.306 10.8652 14.5857 10.5855C14.8654 10.3058 15.2218 10.1153 15.6097 10.0382C15.9977 9.96099 16.3998 10.0006 16.7653 10.152C17.1308 10.3033 17.4431 10.5597 17.6629 10.8886C17.8826 11.2175 17.9999 11.6042 17.9999 11.9997C17.9992 12.53 17.7883 13.0383 17.4134 13.4132C17.0385 13.7881 16.5302 13.999 15.9999 13.9997Z" fill="black"/>
</svg>
