<svg width="32" height="32" viewBox="0 0 32 32" fill="none" xmlns="http://www.w3.org/2000/svg">
<path d="M24.2168 6.93723C23.4189 5.57954 22.2785 4.45512 20.9097 3.67639C19.541 2.89766 17.9917 2.49192 16.4169 2.49973H15.5829C14.01 2.49919 12.464 2.9078 11.0968 3.68541C9.72953 4.46302 8.58805 5.5829 7.78446 6.93505C6.98088 8.2872 6.54282 9.82512 6.51331 11.3978C6.48381 12.9704 6.86387 14.5237 7.61617 15.905L7.61817 15.9069L14.6894 28.7214C14.8177 28.9568 15.007 29.1532 15.2374 29.2902C15.4678 29.4272 15.7309 29.4995 15.9989 29.4997C16.267 29.4999 16.5301 29.428 16.7607 29.2914C16.9914 29.1548 17.1809 28.9586 17.3096 28.7234L24.3838 15.905C25.1432 14.5263 25.5274 12.9725 25.4981 11.3988C25.4688 9.8251 25.027 8.28665 24.2168 6.93723ZM23.5068 15.4245L16.4326 28.2429C16.3901 28.3208 16.3274 28.3858 16.2511 28.431C16.1747 28.4762 16.0876 28.4999 15.9989 28.4997C15.9102 28.4995 15.8232 28.4754 15.747 28.4298C15.6709 28.3842 15.6085 28.319 15.5664 28.2409L8.4941 15.4255C7.82509 14.1965 7.48723 12.8146 7.51369 11.4155C7.54014 10.0164 7.93001 8.64831 8.64501 7.44546C9.36001 6.2426 10.3756 5.24637 11.5919 4.55461C12.8083 3.86284 14.1837 3.49932 15.583 3.49973H16.417C17.8162 3.49935 19.1915 3.86285 20.4078 4.55452C21.6241 5.2462 22.6396 6.24228 23.3547 7.44498C24.0697 8.64769 24.4597 10.0157 24.4864 11.4146C24.5131 12.8136 24.1754 14.1954 23.5068 15.4245Z" fill="black"/>
<path d="M16 8.49973C15.3077 8.49973 14.631 8.705 14.0555 9.08959C13.4799 9.47417 13.0313 10.0208 12.7664 10.6603C12.5015 11.2999 12.4322 12.0036 12.5672 12.6825C12.7023 13.3615 13.0356 13.9851 13.5251 14.4746C14.0146 14.9641 14.6382 15.2974 15.3171 15.4325C15.9961 15.5675 16.6998 15.4982 17.3394 15.2333C17.9789 14.9684 18.5255 14.5198 18.9101 13.9442C19.2947 13.3687 19.5 12.692 19.5 11.9997C19.4988 11.0718 19.1297 10.1822 18.4736 9.5261C17.8175 8.86996 16.9279 8.50085 16 8.49973ZM16 14.4997C15.5055 14.4997 15.0222 14.3531 14.611 14.0784C14.1999 13.8037 13.8795 13.4133 13.6903 12.9564C13.501 12.4996 13.4515 11.997 13.548 11.512C13.6445 11.0271 13.8826 10.5816 14.2322 10.232C14.5818 9.88233 15.0273 9.64423 15.5122 9.54777C15.9972 9.4513 16.4999 9.50081 16.9567 9.69003C17.4135 9.87925 17.8039 10.1997 18.0786 10.6108C18.3533 11.0219 18.5 11.5053 18.5 11.9997C18.4993 12.6626 18.2358 13.2981 17.767 13.7668C17.2983 14.2355 16.6628 14.4991 16 14.4997Z" fill="black"/>
</svg>
