<svg width="32" height="32" viewBox="0 0 32 32" fill="none" xmlns="http://www.w3.org/2000/svg">
<path d="M20.6625 26.1823C19.4015 27.3651 17.733 28.0161 16.0042 27.9997H15.9984C14.3412 28.0323 12.7361 27.4201 11.5215 26.2922C10.3069 25.1643 9.57772 23.6089 9.48765 21.9538C9.48179 21.7273 9.44572 13.688 9.44572 13.688L7.44706 11.6894C7.44706 11.6894 7.48179 21.7761 7.48861 22.0271C7.57518 24.2108 8.51902 26.2724 10.1155 27.7648C11.712 29.2573 13.8324 30.0603 16.0169 29.9997H16.0238C18.2578 30.0134 20.4113 29.1664 22.0375 27.6345C22.2686 27.4133 22.4869 27.1791 22.6913 26.933L21.268 25.5099C21.0825 25.7482 20.8801 25.9729 20.6625 26.1823Z" fill="black"/>
<path d="M16.9105 23.2048C16.9024 22.6303 17.0423 22.0634 17.3167 21.5587L15.8797 20.1217C15.2375 21.0204 14.898 22.1003 14.9105 23.2048C14.9105 23.47 15.0159 23.7244 15.2034 23.9119C15.3909 24.0995 15.6453 24.2048 15.9105 24.2048C16.1757 24.2048 16.4301 24.0995 16.6176 23.9119C16.8052 23.7244 16.9105 23.47 16.9105 23.2048Z" fill="black"/>
<path d="M29.7074 28.2927L24.4558 23.0412C24.5209 22.6485 24.5553 22.2513 24.5589 21.8532V13.739C24.5562 13.4114 24.4716 13.0897 24.3128 12.8032C24.154 12.5166 23.9261 12.2743 23.6498 12.0984C23.2836 11.8551 22.8576 11.7172 22.4183 11.6999V6.13743C22.4238 5.35114 22.118 4.59461 21.5677 4.03293C21.3367 3.79811 21.0615 3.6113 20.758 3.48326C20.4544 3.35521 20.1286 3.28846 19.7992 3.28684C19.4742 3.3009 19.1534 3.3665 18.849 3.48118C18.7132 3.2092 18.5345 2.9609 18.3197 2.74583C18.0886 2.50835 17.812 2.31989 17.5065 2.19169C17.201 2.0635 16.8727 1.99821 16.5414 1.99973C16.1091 2.00818 15.6859 2.12556 15.3111 2.34098C14.9362 2.5564 14.6218 2.86292 14.3968 3.23215C14.0609 3.06648 13.6913 2.98027 13.3167 2.9802H13.307C12.6933 3.00376 12.1061 3.23678 11.6433 3.64047C11.1804 4.04416 10.8698 4.59418 10.763 5.199C10.5353 5.12743 10.2975 5.09313 10.0589 5.09744C9.60595 5.10785 9.16374 5.23751 8.77687 5.47333C8.38999 5.70915 8.07213 6.0428 7.85533 6.44065L3.70738 2.2927C3.51986 2.10518 3.26554 1.99984 3.00035 1.99984C2.73516 1.99984 2.48084 2.10518 2.29332 2.2927C2.1058 2.48021 2.00046 2.73454 2.00046 2.99973C2.00046 3.26492 2.1058 3.51924 2.29332 3.70676L28.2933 29.7068C28.4808 29.8943 28.7352 29.9996 29.0003 29.9996C29.2655 29.9996 29.5199 29.8943 29.7074 29.7068C29.8949 29.5192 30.0002 29.2649 30.0002 28.9997C30.0002 28.7345 29.8949 28.4802 29.7074 28.2927ZM22.1566 13.7263C22.2882 13.6843 22.4302 13.6888 22.5589 13.739V21.1443L20.3605 18.9458C20.3712 18.9018 20.3787 18.8572 20.3832 18.8122L20.389 16.1091C20.3824 15.5733 20.5517 15.05 20.871 14.6196C21.1902 14.1892 21.6419 13.8754 22.1566 13.7263ZM15.932 13.2175V4.85032C15.932 4.39032 16.2152 4.00071 16.5492 3.99973H16.5512C16.6872 4.00485 16.8156 4.06346 16.9086 4.16282C17.0828 4.34907 17.1768 4.59634 17.1703 4.85129L17.18 12.2859C17.1804 12.5509 17.2859 12.8049 17.4734 12.9922C17.6609 13.1795 17.915 13.2847 18.18 13.2849C18.4451 13.2846 18.7002 13.1792 18.8875 12.9917C19.0748 12.8041 19.1801 12.5499 19.18 12.2849V6.13743C19.18 5.67743 19.4632 5.28782 19.7972 5.28684H19.7992C19.9352 5.29196 20.0636 5.35058 20.1566 5.44993C20.3306 5.6359 20.4246 5.8828 20.4183 6.13743V12.3835C19.7847 12.7737 19.2641 13.3229 18.9081 13.9764C18.5521 14.6299 18.3732 15.3651 18.389 16.1091L18.3873 16.9726L15.4595 14.0448C15.6019 13.9583 15.7201 13.837 15.8027 13.6923C15.8854 13.5475 15.9299 13.3842 15.932 13.2175ZM13.3148 4.9802H13.3167C13.4531 4.9849 13.582 5.04356 13.6751 5.14329C13.8256 5.30128 13.9164 5.50668 13.932 5.72429V12.5173L12.6907 11.276L12.6986 5.83081C12.6986 5.37083 12.9808 4.98118 13.3148 4.9802ZM9.44951 8.03483L9.44957 7.948C9.44957 7.488 9.73277 7.09839 10.0667 7.09742H10.0687C10.2047 7.10254 10.3332 7.16115 10.4262 7.2605C10.6002 7.44647 10.6942 7.69337 10.6879 7.948V9.2732L9.44951 8.03483Z" fill="black"/>
</svg>
