<svg width="32" height="32" viewBox="0 0 32 32" fill="none" xmlns="http://www.w3.org/2000/svg">
<path d="M16.5003 28.4997C14.6445 28.4975 12.8653 27.7593 11.5531 26.447C10.2408 25.1347 9.50258 23.3556 9.50034 21.4997L9.49961 11.6194L8.49955 10.6194L8.50034 21.4997C8.49875 23.2579 9.07691 24.9675 10.1453 26.3639C11.2136 27.7602 12.7126 28.7653 14.41 29.2235C16.1074 29.6817 17.9085 29.5675 19.5344 28.8985C21.1603 28.2295 22.5203 27.0431 23.4037 25.523L22.6737 24.793C22.0766 25.9118 21.187 26.8475 20.0997 27.5003C19.0125 28.1531 17.7685 28.4985 16.5003 28.4997Z" fill="black"/>
<path d="M12.0003 15.4997C12.066 15.4998 12.131 15.4869 12.1917 15.4617C12.2524 15.4366 12.3075 15.3998 12.354 15.3534C12.4004 15.3069 12.4372 15.2518 12.4624 15.1911C12.4875 15.1304 12.5004 15.0654 12.5003 14.9997V14.62L11.5003 13.6201V14.9997C11.5003 15.0654 11.5132 15.1304 11.5383 15.1911C11.5634 15.2518 11.6003 15.3069 11.6467 15.3534C11.6931 15.3998 11.7483 15.4366 11.8089 15.4617C11.8696 15.4869 11.9347 15.4998 12.0003 15.4997Z" fill="black"/>
<path d="M17.5003 21.0056C17.5042 20.6061 17.5773 20.2104 17.7163 19.8359L16.9554 19.075C16.6603 19.676 16.5047 20.336 16.5003 21.0056C16.5003 21.1382 16.553 21.2654 16.6468 21.3591C16.7406 21.4529 16.8677 21.5056 17.0003 21.5056C17.1329 21.5056 17.2601 21.4529 17.3539 21.3591C17.4477 21.2654 17.5003 21.1382 17.5003 21.0056Z" fill="black"/>
<path d="M29.3538 28.6462L24.2304 23.5228C24.4071 22.8629 24.4978 22.1829 24.5003 21.4997V11.9997C24.5248 11.7675 24.4896 11.5328 24.3982 11.3179C24.3067 11.103 24.162 10.9149 23.9776 10.7715C23.7933 10.6281 23.5754 10.5341 23.3446 10.4983C23.1138 10.4626 22.8776 10.4862 22.6585 10.5671C22.2178 10.6699 21.8159 10.897 21.5003 11.2214V5.49973C21.5006 5.13735 21.4023 4.78174 21.216 4.47092C21.0297 4.1601 20.7624 3.90577 20.4427 3.73515C20.123 3.56452 19.7629 3.48401 19.401 3.50223C19.0391 3.52046 18.6889 3.63672 18.388 3.8386C18.2509 3.44731 17.9956 3.10829 17.6574 2.86843C17.3193 2.62857 16.9149 2.49973 16.5003 2.49973C16.0857 2.49973 15.6813 2.62857 15.3432 2.86843C15.005 3.10829 14.7497 3.44731 14.6126 3.8386C14.3117 3.63674 13.9615 3.52048 13.5996 3.50226C13.2377 3.48404 12.8776 3.56455 12.558 3.73518C12.2383 3.9058 11.971 4.16013 11.7847 4.47094C11.5984 4.78175 11.5001 5.13736 11.5003 5.49973V6.76829C11.242 6.61852 10.9533 6.52878 10.6556 6.5057C10.358 6.48262 10.0589 6.5268 9.78059 6.63496C9.50229 6.74312 9.25188 6.9125 9.04791 7.13055C8.84395 7.3486 8.69164 7.60974 8.60227 7.89463L3.35385 2.64622C3.25977 2.55403 3.13311 2.50268 3.00139 2.50335C2.86967 2.50401 2.74354 2.55663 2.6504 2.64977C2.55726 2.74291 2.50464 2.86905 2.50397 3.00077C2.50331 3.13248 2.55465 3.25914 2.64685 3.35322L28.6468 29.3532C28.7409 29.4454 28.8676 29.4968 28.9993 29.4961C29.131 29.4954 29.2572 29.4428 29.3503 29.3497C29.4434 29.2565 29.4961 29.1304 29.4967 28.9987C29.4974 28.867 29.446 28.7403 29.3538 28.6462ZM21.0003 17.5056C21.066 17.5056 21.131 17.4927 21.1917 17.4676C21.2524 17.4425 21.3075 17.4057 21.354 17.3592C21.4004 17.3128 21.4372 17.2577 21.4624 17.197C21.4875 17.1363 21.5004 17.0713 21.5003 17.0056V14.5652C21.5003 13.3386 21.7415 11.8171 22.8929 11.5398C22.9694 11.5121 23.0507 11.4998 23.132 11.5037C23.2133 11.5075 23.293 11.5274 23.3665 11.5622C23.4178 11.622 23.4561 11.6917 23.4791 11.767C23.5021 11.8423 23.5094 11.9215 23.5003 11.9997V21.4997C23.5002 21.8981 23.4651 22.2956 23.3954 22.6878L18.9277 18.2201C19.5216 17.7613 20.2498 17.5102 21.0003 17.5056ZM13.5003 4.49973C13.7655 4.49991 14.0197 4.60532 14.2072 4.79282C14.3947 4.98032 14.5002 5.23457 14.5003 5.49973V12.9997C14.5003 13.1323 14.553 13.2595 14.6468 13.3533C14.7406 13.4471 14.8677 13.4997 15.0003 13.4997C15.1329 13.4997 15.2601 13.4471 15.3539 13.3533C15.4477 13.2595 15.5003 13.1323 15.5003 12.9997V4.49973C15.5003 4.23451 15.6057 3.98016 15.7932 3.79262C15.9808 3.60509 16.2351 3.49973 16.5003 3.49973C16.7656 3.49973 17.0199 3.60509 17.2074 3.79262C17.395 3.98016 17.5003 4.23451 17.5003 4.49973V12.9997C17.5003 13.1323 17.553 13.2595 17.6468 13.3533C17.7406 13.4471 17.8677 13.4997 18.0003 13.4997C18.1329 13.4997 18.2601 13.4471 18.3539 13.3533C18.4477 13.2595 18.5003 13.1323 18.5003 12.9997V5.49973C18.5003 5.23451 18.6057 4.98016 18.7932 4.79262C18.9808 4.60509 19.2351 4.49973 19.5003 4.49973C19.7656 4.49973 20.0199 4.60509 20.2074 4.79262C20.395 4.98016 20.5003 5.23451 20.5003 5.49973V16.5329C19.6603 16.6309 18.8662 16.9683 18.2125 17.5049L12.5003 11.7927V5.4997C12.5005 5.23454 12.6059 4.9803 12.7934 4.79281C12.9809 4.60532 13.2352 4.49991 13.5003 4.49973ZM9.49934 8.49583C9.49998 8.23048 9.60601 7.97626 9.7941 7.78908C9.98219 7.60191 10.2369 7.49712 10.5023 7.49777C10.7676 7.49842 11.0218 7.60445 11.209 7.79254C11.3962 7.98062 11.501 8.23536 11.5003 8.50071V10.7927L9.49934 8.79171V8.49583Z" fill="black"/>
</svg>
