<svg xmlns="http://www.w3.org/2000/svg" width="32" height="32" viewBox="0 0 32 32"><path d="M20.6628 26.182C19.4017 27.3652 17.7329 28.0164 16.0038 28H15.9978C14.3407 28.0325 12.7356 27.4202 11.5212 26.2923C10.3067 25.1644 9.57767 23.609 9.48778 21.954C9.48178 21.727 9.44578 13.688 9.44578 13.688L7.44678 11.689C7.44678 11.689 7.48178 21.776 7.48878 22.027C7.57531 24.2107 8.51908 26.2722 10.1155 27.7647C11.7119 29.2572 13.8322 30.0604 16.0168 30H16.0238C18.258 30.0135 20.4117 29.1662 22.0378 27.634C22.2678 27.414 22.4868 27.179 22.6908 26.933L21.2678 25.51C21.0824 25.7481 20.8802 25.9727 20.6628 26.182Z M16.9101 23.2051C16.9022 22.6306 17.0424 22.0637 17.3171 21.5591L15.8801 20.1221C15.2376 21.0207 14.8979 22.1005 14.9101 23.2051C14.9101 23.4703 15.0154 23.7247 15.203 23.9122C15.3905 24.0997 15.6449 24.2051 15.9101 24.2051C16.1753 24.2051 16.4297 24.0997 16.6172 23.9122C16.8047 23.7247 16.9101 23.4703 16.9101 23.2051ZM29.7071 28.2931L24.4561 23.0411C24.5211 22.6481 24.5561 22.2511 24.5591 21.8531V13.7401C24.5562 13.4125 24.4714 13.0909 24.3125 12.8044C24.1536 12.518 23.9255 12.2759 23.6491 12.1001C23.2835 11.8565 22.858 11.7181 22.4191 11.7001V6.13808C22.4244 5.35189 22.1184 4.59553 21.5681 4.03408C21.337 3.79921 21.0617 3.61238 20.7581 3.48435C20.4545 3.35632 20.1286 3.28961 19.7991 3.28808C19.4741 3.30208 19.1531 3.36808 18.8491 3.48208C18.7131 3.21019 18.5341 2.96201 18.3191 2.74708C18.0882 2.50962 17.8119 2.3211 17.5066 2.19276C17.2013 2.06442 16.8733 1.99889 16.5421 2.00008C16.1099 2.00858 15.6869 2.12593 15.3122 2.34128C14.9374 2.55662 14.623 2.863 14.3981 3.23208C14.0622 3.0664 13.6926 2.98018 13.3181 2.98008H13.3081C12.694 3.00347 12.1065 3.23655 11.6434 3.6405C11.1803 4.04445 10.8696 4.59488 10.7631 5.20008C10.5354 5.12838 10.2977 5.09393 10.0591 5.09808C9.60597 5.1085 9.16362 5.23824 8.77666 5.47421C8.3897 5.71018 8.07182 6.04403 7.85508 6.44208L3.70708 2.29308C3.61483 2.19757 3.50449 2.12139 3.38249 2.06898C3.26048 2.01657 3.12926 1.98898 2.99648 1.98783C2.8637 1.98668 2.73202 2.01198 2.60913 2.06226C2.48623 2.11254 2.37458 2.18679 2.28069 2.28069C2.18679 2.37458 2.11254 2.48623 2.06226 2.60913C2.01198 2.73202 1.98668 2.8637 1.98783 2.99648C1.98898 3.12926 2.01657 3.26048 2.06898 3.38249C2.12139 3.50449 2.19757 3.61483 2.29308 3.70708L28.2931 29.7071C28.4817 29.8892 28.7343 29.99 28.9965 29.9878C29.2587 29.9855 29.5095 29.8803 29.6949 29.6949C29.8803 29.5095 29.9855 29.2587 29.9878 28.9965C29.99 28.7343 29.8892 28.4817 29.7071 28.2931ZM22.1571 13.7261C22.2886 13.6843 22.4305 13.6889 22.5591 13.7391V21.1441L20.3601 18.9461C20.3709 18.902 20.3785 18.8572 20.3831 18.8121L20.3891 16.1091C20.3826 15.5732 20.552 15.0499 20.8713 14.6195C21.1906 14.1891 21.6423 13.8752 22.1571 13.7261ZM15.9321 13.2171V4.85008C15.9321 4.39008 16.2151 4.00008 16.5491 4.00008H16.5511C16.6873 4.00501 16.816 4.06361 16.9091 4.16308C17.0829 4.34935 17.1766 4.59641 17.1701 4.85108L17.1801 12.2861C17.1801 12.4174 17.2061 12.5474 17.2564 12.6687C17.3067 12.79 17.3804 12.9002 17.4733 12.993C17.5662 13.0859 17.6765 13.1595 17.7979 13.2097C17.9192 13.2598 18.0493 13.2856 18.1806 13.2856C18.3119 13.2855 18.4419 13.2596 18.5632 13.2093C18.6845 13.159 18.7947 13.0852 18.8875 12.9923C18.9804 12.8994 19.054 12.7892 19.1042 12.6678C19.1543 12.5465 19.1801 12.4164 19.1801 12.2851V6.13708C19.1801 5.67708 19.4631 5.28708 19.7971 5.28708H19.7991C19.9353 5.29201 20.064 5.35061 20.1571 5.45008C20.3307 5.63604 20.4244 5.88273 20.4181 6.13708V12.3841C19.7847 12.7744 19.2642 13.3234 18.9083 13.9768C18.5524 14.6302 18.3734 15.3652 18.3891 16.1091L18.3871 16.9731L15.4591 14.0451C15.6017 13.9585 15.72 13.8371 15.8027 13.6923C15.8855 13.5474 15.93 13.3839 15.9321 13.2171ZM13.3151 4.98008H13.3171C13.4533 4.9848 13.5821 5.04343 13.6751 5.14308C13.8256 5.30105 13.9164 5.50646 13.9321 5.72408V12.5171L12.6911 11.2761L12.6991 5.83108C12.6991 5.37108 12.9811 4.98108 13.3151 4.98108V4.98008ZM9.45008 8.03508V7.94808C9.45008 7.48808 9.73308 7.09808 10.0671 7.09808H10.0691C10.2049 7.10327 10.3332 7.16185 10.4261 7.26108C10.6001 7.44688 10.6942 7.69359 10.6881 7.94808V9.27308L9.45008 8.03508Z"/></svg>