<svg width="32" height="32" viewBox="0 0 32 32" fill="none" xmlns="http://www.w3.org/2000/svg">
<path d="M27.5353 5.8075L26.1867 4.4594C25.7245 3.99442 25.1747 3.62568 24.569 3.37449C23.9634 3.12331 23.314 2.99466 22.6584 2.996H22.6555C22.0001 2.99427 21.3509 3.12255 20.7454 3.37339C20.1399 3.62424 19.5902 3.99268 19.1281 4.4574L5.5832 18.0023C5.39745 18.1874 5.25026 18.4075 5.15015 18.6499C5.05004 18.8923 4.99901 19.1522 5 19.4144V21.5858C5 21.5989 5.0035 21.6112 5.0037 21.6242L3.6037 22.9891C3.41306 23.1759 3.26151 23.3988 3.15786 23.6448C3.05422 23.8907 3.00055 24.1549 3 24.4218V27C3.00071 27.5302 3.21166 28.0385 3.58658 28.4134C3.96149 28.7883 4.46979 28.9993 5 29H7.57C7.84114 28.9994 8.10936 28.944 8.35854 28.8371C8.60772 28.7301 8.83271 28.574 9.02 28.3779L10.337 26.9925C10.3628 26.9935 10.3876 27 10.4136 27H12.5854C13.1157 26.9987 13.6241 26.788 14 26.4139L27.5353 12.8788C27.9997 12.4146 28.3681 11.8634 28.6195 11.2567C28.8708 10.65 29.0002 9.99981 29.0002 9.34315C29.0002 8.68648 28.8708 8.03625 28.6195 7.42959C28.3681 6.82293 27.9997 6.27174 27.5353 5.8075ZM7.5705 27L5 27.0013V24.4213L6.0167 23.43L8.5529 25.9662L7.5705 27ZM26.1213 11.4647L12.5861 25H10.4143L7 21.5858L6.9971 19.4164L20.5422 5.8715C20.8191 5.59312 21.1484 5.37241 21.5112 5.22213C21.8739 5.07185 22.2629 4.99499 22.6555 4.996H22.6574C23.0505 4.99524 23.4398 5.07239 23.8029 5.22299C24.1659 5.37359 24.4956 5.59465 24.7727 5.8734L26.1213 7.2216C26.6832 7.78469 26.9987 8.54768 26.9987 9.34315C26.9987 10.1386 26.6832 10.9016 26.1213 11.4647Z" fill="black"/>
</svg>
