<svg xmlns="http://www.w3.org/2000/svg" width="32" height="32" viewBox="0 0 32 32"><path d="M25 11C26.0609 11 27.0783 10.5786 27.8284 9.82843C28.5786 9.07828 29 8.06087 29 7C29 5.93913 28.5786 4.92172 27.8284 4.17157C27.0783 3.42143 26.0609 3 25 3C23.9391 3 22.9217 3.42143 22.1716 4.17157C21.4214 4.92172 21 5.93913 21 7C21 8.06087 21.4214 9.07828 22.1716 9.82843C22.9217 10.5786 23.9391 11 25 11Z M28.8198 13.8352C28.7706 13.5789 28.623 13.352 28.4087 13.2029C28.1943 13.0539 27.9302 12.9946 27.6728 13.0377C27.4153 13.0808 27.1849 13.2228 27.0307 13.4335C26.8766 13.6442 26.8109 13.9068 26.8478 14.1652C27.1895 16.1903 26.9578 18.2705 26.1788 20.1707C25.3998 22.0709 24.1046 23.7152 22.4398 24.9176C20.775 26.1201 18.8069 26.8327 16.7582 26.9749C14.7094 27.1171 12.6618 26.6832 10.8468 25.7222C10.6829 25.6347 10.4978 25.5947 10.3123 25.6065C10.1268 25.6183 9.94833 25.6816 9.79683 25.7892C9.06015 26.3108 8.22461 26.6761 7.34155 26.8629C6.45849 27.0496 5.54657 27.0538 4.66183 26.8752C5.84102 25.9714 6.71266 24.7257 7.15783 23.3082C7.21508 23.1549 7.2339 22.9899 7.21263 22.8276C7.19136 22.6653 7.13066 22.5107 7.03583 22.3772C5.77393 20.6039 5.06641 18.4961 5.00278 16.3206C4.93916 14.1451 5.52228 11.9995 6.67838 10.1555C7.83447 8.31146 9.51158 6.85179 11.4975 5.96118C13.4834 5.07057 15.6889 4.78905 17.8348 5.15224C18.0933 5.18912 18.3559 5.12348 18.5666 4.96934C18.7772 4.8152 18.9193 4.58479 18.9624 4.32732C19.0055 4.06985 18.9462 3.80574 18.7971 3.5914C18.6481 3.37707 18.4212 3.22951 18.1648 3.18024C15.6755 2.76023 13.1177 3.074 10.8037 4.08325C8.48971 5.0925 6.51956 6.75357 5.13376 8.86373C3.74795 10.9739 3.00642 13.4418 2.99969 15.9663C2.99295 18.4909 3.7213 20.9627 5.09583 23.0802C4.72049 24.1266 3.9868 25.0062 3.02483 25.5632C2.88297 25.6507 2.74422 25.7431 2.60883 25.8402C2.39816 25.9931 2.23169 26.1989 2.12631 26.4369C2.02093 26.6749 1.9804 26.9365 2.00883 27.1952C2.03678 27.456 2.13217 27.705 2.28559 27.9177C2.43902 28.1304 2.6452 28.2994 2.88383 28.4082C3.86383 28.8142 4.91583 29.0162 5.97683 29.0022C7.55275 29.0083 9.09945 28.5769 10.4448 27.7562C12.5933 28.77 14.9785 29.176 17.3414 28.9301C19.7043 28.6842 21.9547 27.7958 23.8484 26.3613C25.7421 24.9268 27.2067 23.001 28.0833 20.793C28.9599 18.585 29.215 16.179 28.8208 13.8362L28.8198 13.8352Z"/></svg>