<svg xmlns="http://www.w3.org/2000/svg" width="32" height="32" viewBox="0 0 32 32"><path d="M22.47 19.4702L21.75 20.1902V10.0002C21.7501 9.8486 21.7043 9.70055 21.6187 9.57553C21.533 9.4505 21.4114 9.35438 21.27 9.29981C21.1286 9.24524 20.974 9.23479 20.8266 9.26984C20.6791 9.30489 20.5457 9.3838 20.444 9.49616L16 14.3962L11.556 9.49616C11.4543 9.3838 11.3209 9.30489 11.1734 9.26984C11.026 9.23479 10.8714 9.24524 10.73 9.29981C10.5886 9.35438 10.467 9.4505 10.3813 9.57553C10.2957 9.70055 10.2499 9.8486 10.25 10.0002V20.0002C10.25 20.1991 10.329 20.3898 10.4697 20.5305C10.6103 20.6711 10.8011 20.7502 11 20.7502C11.1989 20.7502 11.3897 20.6711 11.5303 20.5305C11.671 20.3898 11.75 20.1991 11.75 20.0002V11.9432L15.444 16.0162C15.5164 16.0903 15.6029 16.1492 15.6983 16.1894C15.7938 16.2297 15.8964 16.2504 16 16.2504C16.1036 16.2504 16.2062 16.2297 16.3017 16.1894C16.3971 16.1492 16.4836 16.0903 16.556 16.0162L20.25 11.9432V20.1892L19.53 19.4702C19.4079 19.3443 19.2456 19.2652 19.0713 19.2465C18.897 19.2278 18.7216 19.2706 18.5756 19.3676C18.4295 19.4646 18.322 19.6097 18.2717 19.7776C18.2214 19.9456 18.2314 20.1258 18.3 20.2872C18.3398 20.379 18.3976 20.462 18.47 20.5312L20.471 22.5312C20.6116 22.6716 20.8022 22.7505 21.001 22.7505C21.1997 22.7505 21.3904 22.6716 21.531 22.5312L23.531 20.5312C23.6717 20.3905 23.7507 20.1996 23.7507 20.0007C23.7507 19.8017 23.6717 19.6109 23.531 19.4702C23.3903 19.3295 23.1995 19.2504 23.0005 19.2504C22.8015 19.2504 22.6107 19.3295 22.47 19.4702Z M23 4.25H9C7.74063 4.25132 6.53322 4.75219 5.6427 5.6427C4.75219 6.53322 4.25132 7.74063 4.25 9V23C4.25132 24.2594 4.75219 25.4668 5.6427 26.3573C6.53322 27.2478 7.74063 27.7487 9 27.75H23C24.2594 27.7487 25.4668 27.2478 26.3573 26.3573C27.2478 25.4668 27.7487 24.2594 27.75 23V9C27.7484 7.74071 27.2475 6.53345 26.357 5.643C25.4666 4.75254 24.2593 4.25159 23 4.25ZM26.25 23C26.2489 23.8616 25.9062 24.6877 25.2969 25.2969C24.6877 25.9062 23.8616 26.2489 23 26.25H9C8.13837 26.2489 7.31234 25.9062 6.70307 25.2969C6.09381 24.6877 5.75106 23.8616 5.75 23V9C5.75106 8.13837 6.09381 7.31234 6.70307 6.70307C7.31234 6.09381 8.13837 5.75106 9 5.75H23C23.8616 5.75106 24.6877 6.09381 25.2969 6.70307C25.9062 7.31234 26.2489 8.13837 26.25 9V23Z"/></svg>