<svg xmlns="http://www.w3.org/2000/svg" width="32" height="32" viewBox="0 0 32 32"><path d="M22.647 19.6472L21.5 20.7942V10.0002C21.4999 9.89929 21.4694 9.80077 21.4123 9.71758C21.3552 9.63439 21.2743 9.57041 21.1801 9.53406C21.086 9.49771 20.9831 9.49069 20.8849 9.51391C20.7867 9.53714 20.6979 9.58952 20.63 9.66419L16 14.7682L11.37 9.66419C11.3021 9.58952 11.2133 9.53714 11.1151 9.51391C11.0169 9.49069 10.914 9.49771 10.8199 9.53406C10.7257 9.57041 10.6448 9.63439 10.5877 9.71758C10.5306 9.80077 10.5001 9.89929 10.5 10.0002V20.0002C10.5 20.1328 10.5527 20.26 10.6464 20.3537C10.7402 20.4475 10.8674 20.5002 11 20.5002C11.1326 20.5002 11.2598 20.4475 11.3536 20.3537C11.4473 20.26 11.5 20.1328 11.5 20.0002V11.2952L15.63 15.8482C15.6779 15.8979 15.7354 15.9375 15.799 15.9645C15.8626 15.9915 15.9309 16.0054 16 16.0054C16.0691 16.0054 16.1374 15.9915 16.201 15.9645C16.2646 15.9375 16.3221 15.8979 16.37 15.8482L20.5 11.2952V20.7932L19.354 19.6472C19.2597 19.5561 19.1334 19.5057 19.0023 19.5068C18.8712 19.508 18.7458 19.5606 18.6531 19.6533C18.5604 19.746 18.5078 19.8714 18.5067 20.0025C18.5055 20.1336 18.5559 20.2599 18.647 20.3542L20.647 22.3542C20.6934 22.4007 20.7486 22.4377 20.8094 22.4629C20.8701 22.4881 20.9352 22.5011 21.001 22.5011C21.0668 22.5011 21.1319 22.4881 21.1926 22.4629C21.2534 22.4377 21.3086 22.4007 21.355 22.3542L23.353 20.3542C23.4404 20.2593 23.4878 20.1343 23.4852 20.0053C23.4827 19.8763 23.4303 19.7533 23.3392 19.662C23.248 19.5707 23.1251 19.5182 22.9961 19.5154C22.8671 19.5127 22.742 19.5599 22.647 19.6472Z M23 4.5H9C7.80693 4.50132 6.66311 4.97585 5.81948 5.81948C4.97585 6.66311 4.50132 7.80693 4.5 9V23C4.50132 24.1931 4.97585 25.3369 5.81948 26.1805C6.66311 27.0241 7.80693 27.4987 9 27.5H23C24.1931 27.4989 25.3371 27.0245 26.1808 26.1808C27.0245 25.3371 27.4989 24.1931 27.5 23V9C27.4987 7.80693 27.0241 6.66311 26.1805 5.81948C25.3369 4.97585 24.1931 4.50132 23 4.5ZM26.5 23C26.4989 23.9279 26.1299 24.8176 25.4737 25.4737C24.8176 26.1299 23.9279 26.4989 23 26.5H9C8.07207 26.4989 7.18244 26.1299 6.5263 25.4737C5.87015 24.8176 5.50106 23.9279 5.5 23V9C5.50106 8.07207 5.87015 7.18244 6.5263 6.5263C7.18244 5.87015 8.07207 5.50106 9 5.5H23C23.9279 5.50106 24.8176 5.87015 25.4737 6.5263C26.1299 7.18244 26.4989 8.07207 26.5 9V23Z"/></svg>