<svg width="32" height="32" viewBox="0 0 32 32" fill="none" xmlns="http://www.w3.org/2000/svg">
<path d="M27.1818 6.161L25.8332 4.8129C25.4173 4.39443 24.9226 4.06258 24.3777 3.83654C23.8327 3.61049 23.2484 3.49475 22.6584 3.496H22.6555C22.0658 3.49451 21.4817 3.60995 20.9369 3.83565C20.3921 4.06135 19.8975 4.39282 19.4816 4.8109L5.9367 18.3558C5.79755 18.4946 5.68731 18.6597 5.61235 18.8414C5.53739 19.0231 5.49921 19.2178 5.5 19.4144V21.5858C5.5016 21.6635 5.50918 21.741 5.5227 21.8175L3.9527 23.3475C3.80967 23.4875 3.69597 23.6546 3.61825 23.8391C3.54052 24.0235 3.50032 24.2216 3.5 24.4218V27C3.50042 27.3977 3.65859 27.779 3.93981 28.0602C4.22102 28.3414 4.60231 28.4996 5 28.5H7.57C7.77332 28.4994 7.97445 28.4579 8.16136 28.3778C8.34827 28.2978 8.51715 28.1809 8.6579 28.0342L10.1415 26.4733C10.2313 26.4904 10.3224 26.4994 10.4138 26.5H12.5856C12.9832 26.4988 13.3643 26.3409 13.6462 26.0605L27.1818 12.5253C28.0246 11.6807 28.498 10.5363 28.498 9.34315C28.498 8.14999 28.0246 7.00556 27.1818 6.161ZM7.9348 27.3441C7.88766 27.3932 7.83111 27.4323 7.76852 27.4591C7.70592 27.4859 7.63858 27.4997 7.5705 27.4999H5C4.86744 27.4997 4.74036 27.447 4.64662 27.3533C4.55289 27.2595 4.50016 27.1325 4.5 26.9999V24.4218C4.50004 24.3551 4.51332 24.2891 4.53907 24.2276C4.56482 24.166 4.60252 24.1102 4.65 24.0634L6.02 22.7276L9.2509 25.9586L7.9348 27.3441ZM26.4748 11.8182L12.94 25.3534C12.8462 25.4471 12.7191 25.4997 12.5865 25.4999H10.4143C10.3486 25.5 10.2836 25.4871 10.2229 25.462C10.1622 25.4368 10.1071 25.3999 10.0607 25.3534L6.6467 21.9393C6.55333 21.8453 6.50065 21.7183 6.5 21.5858V19.4144C6.49947 19.3492 6.51188 19.2846 6.53651 19.2243C6.56114 19.1639 6.59751 19.1091 6.6435 19.0629L20.1885 5.5179C20.5117 5.19289 20.8962 4.93522 21.3196 4.75981C21.7431 4.58439 22.1971 4.49473 22.6555 4.496H22.6574C23.1162 4.49501 23.5706 4.585 23.9943 4.76077C24.4181 4.93654 24.8028 5.19459 25.1262 5.52L26.4748 6.868C27.1301 7.52506 27.498 8.41514 27.498 9.3431C27.498 10.2711 27.1301 11.1611 26.4748 11.8182Z" fill="black"/>
</svg>
