<svg width="32" height="32" viewBox="0 0 32 32" fill="none" xmlns="http://www.w3.org/2000/svg">
<path d="M13.0001 25.9997H8.00012C7.4699 25.999 6.96159 25.7881 6.58667 25.4132C6.21174 25.0382 6.00081 24.5299 6.00012 23.9997V18.9997C6.00012 18.7345 5.89477 18.4801 5.70723 18.2926C5.51969 18.1051 5.26534 17.9997 5.00012 17.9997C4.73491 17.9997 4.48055 18.1051 4.29302 18.2926C4.10548 18.4801 4.00012 18.7345 4.00012 18.9997V23.9997C4.00118 25.0603 4.42295 26.0771 5.17286 26.827C5.92278 27.5769 6.93958 27.9987 8.00012 27.9997H13.0001C13.2653 27.9997 13.5197 27.8944 13.7072 27.7068C13.8948 27.5193 14.0001 27.2649 14.0001 26.9997C14.0001 26.7345 13.8948 26.4801 13.7072 26.2926C13.5197 26.1051 13.2653 25.9997 13.0001 25.9997Z" fill="black"/>
<path d="M24.0001 3.99971H19.0001C18.7349 3.99971 18.4806 4.10507 18.293 4.2926C18.1055 4.48014 18.0001 4.73449 18.0001 4.99971C18.0001 5.26493 18.1055 5.51928 18.293 5.70682C18.4806 5.89435 18.7349 5.99971 19.0001 5.99971H24.0001C24.5303 6.0004 25.0387 6.21133 25.4136 6.58626C25.7885 6.96118 25.9994 7.46949 26.0001 7.99971V12.9997C26.0001 13.2649 26.1055 13.5193 26.293 13.7068C26.4806 13.8944 26.7349 13.9997 27.0001 13.9997C27.2653 13.9997 27.5197 13.8944 27.7072 13.7068C27.8948 13.5193 28.0001 13.2649 28.0001 12.9997V7.99971C27.9991 6.93917 27.5773 5.92237 26.8274 5.17245C26.0775 4.42254 25.0607 4.00077 24.0001 3.99971Z" fill="black"/>
</svg>
