<svg width="32" height="32" viewBox="0 0 32 32" fill="none" xmlns="http://www.w3.org/2000/svg">
<path d="M11.9946 10.2587H5.99463C5.26551 10.2594 4.56647 10.5494 4.0509 11.065C3.53534 11.5805 3.24537 12.2796 3.24463 13.0087V19.0087C3.24537 19.7378 3.53534 20.4369 4.0509 20.9524C4.56647 21.468 5.26551 21.758 5.99463 21.7587H11.9946C12.7237 21.758 13.4228 21.468 13.9384 20.9524C14.4539 20.4369 14.7439 19.7378 14.7446 19.0087V13.0087C14.7439 12.2796 14.4539 11.5805 13.9384 11.065C13.4228 10.5494 12.7237 10.2594 11.9946 10.2587ZM13.2446 19.0087C13.2443 19.3401 13.1125 19.6579 12.8782 19.8923C12.6438 20.1266 12.3261 20.2584 11.9946 20.2587H5.99463C5.6632 20.2584 5.34544 20.1266 5.11108 19.8923C4.87673 19.6579 4.74494 19.3401 4.74463 19.0087V13.0087C4.74494 12.6773 4.87673 12.3595 5.11108 12.1252C5.34544 11.8908 5.6632 11.759 5.99463 11.7587H11.9946C12.3261 11.759 12.6438 11.8908 12.8782 12.1252C13.1125 12.3595 13.2443 12.6773 13.2446 13.0087V19.0087Z" fill="black"/>
<path d="M25.9946 3.25871H19.9946C19.2655 3.25945 18.5665 3.54942 18.0509 4.06498C17.5353 4.58055 17.2454 5.27959 17.2446 6.00871V26.0087C17.2454 26.7378 17.5353 27.4369 18.0509 27.9524C18.5665 28.468 19.2655 28.758 19.9946 28.7587H25.9946C26.7237 28.758 27.4228 28.468 27.9384 27.9524C28.4539 27.4369 28.7439 26.7378 28.7446 26.0087V6.00871C28.7439 5.27959 28.4539 4.58055 27.9384 4.06498C27.4228 3.54942 26.7237 3.25945 25.9946 3.25871ZM27.2446 26.0087C27.2443 26.3401 27.1125 26.6579 26.8782 26.8923C26.6438 27.1266 26.3261 27.2584 25.9946 27.2587H19.9946C19.6632 27.2584 19.3454 27.1266 19.1111 26.8923C18.8767 26.6579 18.7449 26.3401 18.7446 26.0087V6.00871C18.7449 5.67728 18.8767 5.35952 19.1111 5.12516C19.3454 4.89081 19.6632 4.75902 19.9946 4.75871H25.9946C26.3261 4.75902 26.6438 4.89081 26.8782 5.12516C27.1125 5.35952 27.2443 5.67728 27.2446 6.00871V26.0087Z" fill="black"/>
<path d="M23.5308 7.46964C23.4611 7.39998 23.3785 7.34472 23.2875 7.30702C23.1965 7.26932 23.099 7.24991 23.0005 7.24991C22.902 7.24991 22.8045 7.26932 22.7135 7.30702C22.6225 7.34472 22.5398 7.39998 22.4702 7.46964L20.4702 9.46964C20.4004 9.53923 20.3449 9.62191 20.307 9.71295C20.2692 9.80399 20.2496 9.90161 20.2495 10.0002C20.2494 10.0988 20.2688 10.1965 20.3065 10.2876C20.3442 10.3787 20.3995 10.4615 20.4692 10.5312C20.5389 10.6009 20.6217 10.6562 20.7128 10.6939C20.8039 10.7316 20.9016 10.751 21.0002 10.7509C21.0988 10.7508 21.1964 10.7312 21.2874 10.6934C21.3785 10.6555 21.4612 10.6 21.5308 10.5302L23.0005 9.06046L24.4702 10.5302C24.611 10.6704 24.8016 10.749 25.0002 10.7488C25.1988 10.7486 25.3893 10.6696 25.5297 10.5291C25.6702 10.3887 25.7492 10.1982 25.7494 9.99961C25.7496 9.80097 25.6709 9.61037 25.5308 9.46964L23.5308 7.46964Z" fill="black"/>
<path d="M24.4702 12.4696L23.0005 13.9394L21.5308 12.4696C21.4612 12.3998 21.3785 12.3443 21.2874 12.3065C21.1964 12.2686 21.0988 12.2491 21.0002 12.249C20.9016 12.2489 20.8039 12.2682 20.7128 12.3059C20.6217 12.3436 20.5389 12.3989 20.4692 12.4686C20.3995 12.5383 20.3442 12.6211 20.3065 12.7122C20.2688 12.8034 20.2494 12.901 20.2495 12.9996C20.2496 13.0982 20.2692 13.1958 20.307 13.2869C20.3449 13.3779 20.4004 13.4606 20.4702 13.5302L22.4702 15.5302C22.5398 15.5998 22.6225 15.6551 22.7135 15.6928C22.8045 15.7305 22.902 15.7499 23.0005 15.7499C23.099 15.7499 23.1965 15.7305 23.2875 15.6928C23.3785 15.6551 23.4611 15.5998 23.5308 15.5302L25.5308 13.5302C25.6709 13.3895 25.7496 13.1989 25.7494 13.0002C25.7492 12.8016 25.6702 12.6111 25.5297 12.4707C25.3893 12.3302 25.1988 12.2512 25.0002 12.251C24.8016 12.2508 24.611 12.3295 24.4702 12.4696Z" fill="black"/>
<path d="M24.0005 18.2499H22.0005C21.8016 18.2499 21.6108 18.3289 21.4702 18.4696C21.3295 18.6102 21.2505 18.801 21.2505 18.9999C21.2505 19.1988 21.3295 19.3896 21.4702 19.5303C21.6108 19.6709 21.8016 19.7499 22.0005 19.7499H24.0005C24.1994 19.7499 24.3902 19.6709 24.5308 19.5303C24.6715 19.3896 24.7505 19.1988 24.7505 18.9999C24.7505 18.801 24.6715 18.6102 24.5308 18.4696C24.3902 18.3289 24.1994 18.2499 24.0005 18.2499Z" fill="black"/>
<path d="M24.0005 22.2499H22.0005C21.8016 22.2499 21.6108 22.3289 21.4702 22.4696C21.3295 22.6102 21.2505 22.801 21.2505 22.9999C21.2505 23.1988 21.3295 23.3896 21.4702 23.5303C21.6108 23.6709 21.8016 23.7499 22.0005 23.7499H24.0005C24.1994 23.7499 24.3902 23.6709 24.5308 23.5303C24.6715 23.3896 24.7505 23.1988 24.7505 22.9999C24.7505 22.801 24.6715 22.6102 24.5308 22.4696C24.3902 22.3289 24.1994 22.2499 24.0005 22.2499Z" fill="black"/>
</svg>
