<svg width="32" height="32" viewBox="0 0 32 32" xmlns="http://www.w3.org/2000/svg">
<path fill-rule="evenodd" clip-rule="evenodd" d="M16 29.5C23.4558 29.5 29.5 23.4558 29.5 16C29.5 8.54416 23.4558 2.5 16 2.5C8.54416 2.5 2.5 8.54416 2.5 16C2.5 23.4558 8.54416 29.5 16 29.5ZM22 9.75C22 9.19772 21.5523 8.75 21 8.75C20.4477 8.75 20 9.19772 20 9.75V22.25C20 22.8023 20.4477 23.25 21 23.25C21.5523 23.25 22 22.8023 22 22.25V9.75ZM16 13.75C16.5523 13.75 17 14.1977 17 14.75V22.25C17 22.8023 16.5523 23.25 16 23.25C15.4477 23.25 15 22.8023 15 22.25V14.75C15 14.1977 15.4477 13.75 16 13.75ZM12 19.25C12 18.6977 11.5523 18.25 11 18.25C10.4477 18.25 10 18.6977 10 19.25V22.25C10 22.8023 10.4477 23.25 11 23.25C11.5523 23.25 12 22.8023 12 22.25V19.25Z"/>
</svg>
