<svg xmlns="http://www.w3.org/2000/svg" width="32" height="32" viewBox="0 0 32 32"><path d="M11.9951 10.2588H5.99512C5.26602 10.2596 4.567 10.5496 4.05145 11.0651C3.5359 11.5807 3.24591 12.2797 3.24512 13.0088V19.0088C3.24591 19.7379 3.5359 20.4369 4.05145 20.9525C4.567 21.468 5.26602 21.758 5.99512 21.7588H11.9951C12.7242 21.758 13.4232 21.468 13.9388 20.9525C14.4543 20.4369 14.7443 19.7379 14.7451 19.0088V13.0088C14.7443 12.2797 14.4543 11.5807 13.9388 11.0651C13.4232 10.5496 12.7242 10.2596 11.9951 10.2588ZM13.2451 19.0088C13.2446 19.3401 13.1127 19.6578 12.8784 19.8921C12.6441 20.1264 12.3265 20.2583 11.9951 20.2588H5.99512C5.66368 20.2585 5.34589 20.1267 5.11153 19.8924C4.87716 19.658 4.74538 19.3402 4.74512 19.0088V13.0088C4.74538 12.6774 4.87716 12.3596 5.11153 12.1252C5.34589 11.8908 5.66368 11.7591 5.99512 11.7588H11.9951C12.3266 11.7591 12.6443 11.8908 12.8787 12.1252C13.1131 12.3596 13.2449 12.6774 13.2451 13.0088V19.0088ZM25.9951 3.25879H19.9951C19.266 3.25958 18.567 3.54957 18.0514 4.06512C17.5359 4.58068 17.2459 5.27969 17.2451 6.00879V26.0088C17.2459 26.7379 17.5359 27.4369 18.0514 27.9525C18.567 28.468 19.266 28.758 19.9951 28.7588H25.9951C26.7242 28.758 27.4232 28.468 27.9388 27.9525C28.4543 27.4369 28.7443 26.7379 28.7451 26.0088V6.00879C28.7443 5.27969 28.4543 4.58068 27.9388 4.06512C27.4232 3.54957 26.7242 3.25958 25.9951 3.25879ZM27.2451 26.0088C27.2446 26.3401 27.1127 26.6578 26.8784 26.8921C26.6441 27.1264 26.3265 27.2583 25.9951 27.2588H19.9951C19.6637 27.2585 19.3459 27.1267 19.1115 26.8924C18.8772 26.658 18.7454 26.3402 18.7451 26.0088V6.00879C18.7454 5.67735 18.8772 5.35956 19.1115 5.1252C19.3459 4.89084 19.6637 4.75905 19.9951 4.75879H25.9951C26.3266 4.75905 26.6443 4.89084 26.8787 5.1252C27.1131 5.35956 27.2449 5.67735 27.2451 6.00879V26.0088Z M23.5302 7.46983C23.3895 7.32938 23.1989 7.25049 23.0002 7.25049C22.8014 7.25049 22.6108 7.32938 22.4702 7.46983L20.4702 9.46983C20.3659 9.5749 20.295 9.70844 20.2664 9.85368C20.2378 9.99892 20.2527 10.1494 20.3093 10.2861C20.366 10.4229 20.4618 10.5399 20.5847 10.6224C20.7076 10.7049 20.8521 10.7492 21.0002 10.7498C21.199 10.7497 21.3896 10.6705 21.5302 10.5298L23.0002 9.05983L24.4702 10.5298C24.6123 10.6623 24.8004 10.7344 24.9947 10.731C25.189 10.7276 25.3744 10.6489 25.5118 10.5114C25.6492 10.374 25.7279 10.1887 25.7313 9.99435C25.7348 9.80005 25.6626 9.612 25.5302 9.46983L23.5302 7.46983ZM24.4702 12.4698L23.0002 13.9398L21.5302 12.4698C21.4615 12.3961 21.3787 12.337 21.2867 12.296C21.1947 12.2551 21.0954 12.233 20.9947 12.2312C20.894 12.2295 20.7939 12.248 20.7006 12.2857C20.6072 12.3234 20.5223 12.3796 20.4511 12.4508C20.3799 12.522 20.3238 12.6068 20.286 12.7002C20.2483 12.7936 20.2298 12.8936 20.2316 12.9944C20.2333 13.0951 20.2554 13.1944 20.2964 13.2864C20.3374 13.3784 20.3965 13.4612 20.4702 13.5298L22.4702 15.5298C22.6108 15.6703 22.8014 15.7492 23.0002 15.7492C23.1989 15.7492 23.3895 15.6703 23.5302 15.5298L25.5302 13.5298C25.6626 13.3877 25.7348 13.1996 25.7313 13.0053C25.7279 12.811 25.6492 12.6256 25.5118 12.4882C25.3744 12.3508 25.189 12.2721 24.9947 12.2687C24.8004 12.2652 24.6123 12.3373 24.4702 12.4698ZM24.0002 18.2498H22.0002C21.8012 18.2498 21.6105 18.3288 21.4698 18.4695C21.3292 18.6102 21.2502 18.8009 21.2502 18.9998C21.2502 19.1987 21.3292 19.3895 21.4698 19.5302C21.6105 19.6708 21.8012 19.7498 22.0002 19.7498H24.0002C24.1991 19.7498 24.3898 19.6708 24.5305 19.5302C24.6711 19.3895 24.7502 19.1987 24.7502 18.9998C24.7502 18.8009 24.6711 18.6102 24.5305 18.4695C24.3898 18.3288 24.1991 18.2498 24.0002 18.2498ZM24.0002 22.2498H22.0002C21.8012 22.2498 21.6105 22.3288 21.4698 22.4695C21.3292 22.6102 21.2502 22.8009 21.2502 22.9998C21.2502 23.1987 21.3292 23.3895 21.4698 23.5302C21.6105 23.6708 21.8012 23.7498 22.0002 23.7498H24.0002C24.1991 23.7498 24.3898 23.6708 24.5305 23.5302C24.6711 23.3895 24.7502 23.1987 24.7502 22.9998C24.7502 22.8009 24.6711 22.6102 24.5305 22.4695C24.3898 22.3288 24.1991 22.2498 24.0002 22.2498Z"/></svg>