<svg width="32" height="32" viewBox="0 0 32 32" fill="none" xmlns="http://www.w3.org/2000/svg">
<path d="M7 21C6.86866 20.9999 6.73859 21.0257 6.61723 21.076C6.49587 21.1262 6.3856 21.1998 6.29272 21.2927C6.19985 21.3856 6.12619 21.4959 6.07597 21.6172C6.02574 21.7386 5.99992 21.8687 6 22V26C6 26.2652 6.10536 26.5196 6.29289 26.7071C6.48043 26.8946 6.73478 27 7 27C7.26522 27 7.51957 26.8946 7.70711 26.7071C7.89464 26.5196 8 26.2652 8 26V22C8.00008 21.8687 7.97426 21.7386 7.92404 21.6172C7.87381 21.4959 7.80015 21.3856 7.70728 21.2927C7.6144 21.1998 7.50413 21.1262 7.38277 21.076C7.26141 21.0257 7.13134 20.9999 7 21Z" fill="#0F0F0F"/>
<path d="M16 13C15.8687 12.9999 15.7386 13.0257 15.6172 13.076C15.4959 13.1262 15.3856 13.1998 15.2927 13.2927C15.1998 13.3856 15.1262 13.4959 15.076 13.6172C15.0257 13.7386 14.9999 13.8687 15 14V26C15 26.2652 15.1054 26.5196 15.2929 26.7071C15.4804 26.8946 15.7348 27 16 27C16.2652 27 16.5196 26.8946 16.7071 26.7071C16.8946 26.5196 17 26.2652 17 26V14C17.0001 13.8687 16.9743 13.7386 16.924 13.6172C16.8738 13.4959 16.8002 13.3856 16.7073 13.2927C16.6144 13.1998 16.5041 13.1262 16.3828 13.076C16.2614 13.0257 16.1313 12.9999 16 13Z" fill="#0F0F0F"/>
<path d="M25 5C24.8687 4.99992 24.7386 5.02574 24.6172 5.07597C24.4959 5.12619 24.3856 5.19985 24.2927 5.29272C24.1998 5.3856 24.1262 5.49587 24.076 5.61723C24.0257 5.73859 23.9999 5.86866 24 6L23.9999 26C23.9999 26.2652 24.1054 26.5196 24.2929 26.7071C24.4804 26.8946 24.7347 27 24.9999 27C25.2651 27 25.5196 26.8946 25.7071 26.7071C25.8946 26.5196 25.9999 26.2652 25.9999 26L26 6C26.0001 5.86866 25.9743 5.73859 25.924 5.61723C25.8738 5.49587 25.8001 5.3856 25.7073 5.29272C25.6144 5.19985 25.5041 5.12619 25.3828 5.07597C25.2614 5.02574 25.1313 4.99992 25 5Z" fill="#0F0F0F"/>
</svg>
