<svg width="32" height="32" viewBox="0 0 32 32" fill="none" xmlns="http://www.w3.org/2000/svg">
<path d="M25.0005 7.25022H7.00049C5.74115 7.25165 4.5338 7.75255 3.64331 8.64304C2.75282 9.53353 2.25192 10.7409 2.25049 12.0002V20.0002C2.25192 21.2596 2.75282 22.4669 3.64331 23.3574C4.5338 24.2479 5.74115 24.7488 7.00049 24.7502H25.0005C26.2598 24.7488 27.4672 24.2479 28.3577 23.3574C29.2482 22.4669 29.7491 21.2596 29.7505 20.0002V12.0002C29.7491 10.7409 29.2482 9.53353 28.3577 8.64304C27.4672 7.75255 26.2598 7.25165 25.0005 7.25022ZM28.2505 20.0002C28.2495 20.8619 27.9068 21.6879 27.2975 22.2972C26.6882 22.9065 25.8621 23.2492 25.0005 23.2502H7.00049C6.13884 23.2492 5.31277 22.9065 4.70349 22.2972C4.09422 21.6879 3.75149 20.8619 3.75049 20.0002V12.0002C3.75149 11.1386 4.09422 10.3125 4.70349 9.70323C5.31277 9.09395 6.13884 8.75122 7.00049 8.75022H25.0005C25.8621 8.75122 26.6882 9.09395 27.2975 9.70323C27.9068 10.3125 28.2495 11.1386 28.2505 12.0002V20.0002Z" fill="black"/>
<path d="M3.00049 4.75022H29.0005C29.1994 4.75022 29.3902 4.6712 29.5308 4.53055C29.6715 4.3899 29.7505 4.19913 29.7505 4.00022C29.7505 3.80131 29.6715 3.61054 29.5308 3.46989C29.3902 3.32924 29.1994 3.25022 29.0005 3.25022H3.00049C2.80158 3.25022 2.61081 3.32924 2.47016 3.46989C2.32951 3.61054 2.25049 3.80131 2.25049 4.00022C2.25049 4.19913 2.32951 4.3899 2.47016 4.53055C2.61081 4.6712 2.80158 4.75022 3.00049 4.75022Z" fill="black"/>
<path d="M29.0005 27.2502H3.00049C2.80158 27.2502 2.61081 27.3292 2.47016 27.4699C2.32951 27.6105 2.25049 27.8013 2.25049 28.0002C2.25049 28.1991 2.32951 28.3899 2.47016 28.5306C2.61081 28.6712 2.80158 28.7502 3.00049 28.7502H29.0005C29.1994 28.7502 29.3902 28.6712 29.5308 28.5306C29.6715 28.3899 29.7505 28.1991 29.7505 28.0002C29.7505 27.8013 29.6715 27.6105 29.5308 27.4699C29.3902 27.3292 29.1994 27.2502 29.0005 27.2502Z" fill="black"/>
</svg>
