<svg width="32" height="32" viewBox="0 0 32 32" fill="none" xmlns="http://www.w3.org/2000/svg">
<path d="M25.0002 5.50022H7.00024C5.80717 5.50152 4.66333 5.97605 3.8197 6.81968C2.97607 7.66331 2.50155 8.80715 2.50024 10.0002V22.0002C2.50154 23.1933 2.97607 24.3371 3.8197 25.1808C4.66333 26.0244 5.80717 26.4989 7.00024 26.5002H25.0002C26.1933 26.4989 27.3372 26.0244 28.1808 25.1808C29.0244 24.3371 29.4989 23.1933 29.5002 22.0002V10.0002C29.4989 8.80715 29.0244 7.66331 28.1808 6.81968C27.3372 5.97605 26.1933 5.50152 25.0002 5.50022ZM19.5002 6.50022V25.5002H12.5002V6.50022H19.5002ZM3.50024 22.0002V10.0002C3.50137 9.07231 3.87048 8.18272 4.52661 7.52659C5.18274 6.87045 6.07233 6.50134 7.00024 6.50022H11.5002V25.5002H7.00024C6.07233 25.4991 5.18274 25.13 4.52661 24.4739C3.87048 23.8177 3.50137 22.9281 3.50024 22.0002ZM28.5002 22.0002C28.4991 22.9281 28.13 23.8177 27.4739 24.4739C26.8177 25.13 25.9282 25.4991 25.0002 25.5002H20.5002V6.50022H25.0002C25.9282 6.50134 26.8177 6.87045 27.4739 7.52659C28.13 8.18272 28.4991 9.07231 28.5002 10.0002V22.0002Z" fill="black"/>
</svg>
