<svg xmlns="http://www.w3.org/2000/svg" width="32" height="32" viewBox="0 0 32 32"><path d="M23 5.5H22.5V3C22.5 2.86739 22.4473 2.74021 22.3536 2.64645C22.2598 2.55268 22.1326 2.5 22 2.5C21.8674 2.5 21.7402 2.55268 21.6464 2.64645C21.5527 2.74021 21.5 2.86739 21.5 3V5.5H10.5V3C10.5 2.86739 10.4473 2.74021 10.3536 2.64645C10.2598 2.55268 10.1326 2.5 10 2.5C9.86739 2.5 9.74021 2.55268 9.64645 2.64645C9.55268 2.74021 9.5 2.86739 9.5 3V5.5H9C7.80693 5.50132 6.66311 5.97585 5.81948 6.81948C4.97585 7.66311 4.50132 8.80693 4.5 10V24C4.50132 25.1931 4.97585 26.3369 5.81948 27.1805C6.66311 28.0241 7.80693 28.4987 9 28.5H23C24.1931 28.4989 25.3371 28.0245 26.1808 27.1808C27.0245 26.3371 27.4989 25.1931 27.5 24V10C27.4987 8.80693 27.0241 7.66311 26.1805 6.81948C25.3369 5.97585 24.1931 5.50132 23 5.5ZM9 6.5H23C23.9279 6.50106 24.8176 6.87015 25.4737 7.5263C26.1299 8.18244 26.4989 9.07207 26.5 10V11.5H5.5V10C5.50106 9.07207 5.87015 8.18244 6.5263 7.5263C7.18244 6.87015 8.07207 6.50106 9 6.5ZM23 27.5H9C8.07207 27.4989 7.18244 27.1299 6.5263 26.4737C5.87015 25.8176 5.50106 24.9279 5.5 24V12.5H26.5V24C26.4989 24.9279 26.1299 25.8176 25.4737 26.4737C24.8176 27.1299 23.9279 27.4989 23 27.5Z"/></svg>