<svg xmlns="http://www.w3.org/2000/svg" width="32" height="32" viewBox="0 0 32 32"><path d="M16.0002 14C17.0611 14 18.0785 13.5786 18.8286 12.8284C19.5788 12.0783 20.0002 11.0609 20.0002 10C20.0002 8.93913 19.5788 7.92172 18.8286 7.17157C18.0785 6.42143 17.0611 6 16.0002 6C14.9394 6 13.9219 6.42143 13.1718 7.17157C12.4216 7.92172 12.0002 8.93913 12.0002 10C12.0002 11.0609 12.4216 12.0783 13.1718 12.8284C13.9219 13.5786 14.9394 14 16.0002 14ZM8.07422 14C8.73726 14 9.37315 13.7366 9.84199 13.2678C10.3108 12.7989 10.5742 12.163 10.5742 11.5C10.5742 10.837 10.3108 10.2011 9.84199 9.73223C9.37315 9.26339 8.73726 9 8.07422 9C7.41118 9 6.77529 9.26339 6.30645 9.73223C5.83761 10.2011 5.57422 10.837 5.57422 11.5C5.57422 12.163 5.83761 12.7989 6.30645 13.2678C6.77529 13.7366 7.41118 14 8.07422 14ZM24.0002 14C24.6633 14 25.2991 13.7366 25.768 13.2678C26.2368 12.7989 26.5002 12.163 26.5002 11.5C26.5002 10.837 26.2368 10.2011 25.768 9.73223C25.2991 9.26339 24.6633 9 24.0002 9C23.3372 9 22.7013 9.26339 22.2325 9.73223C21.7636 10.2011 21.5002 10.837 21.5002 11.5C21.5002 12.163 21.7636 12.7989 22.2325 13.2678C22.7013 13.7366 23.3372 14 24.0002 14ZM24.0002 16C22.7248 15.9858 21.4845 16.4181 20.4942 17.222C19.1384 16.4263 17.5956 16.0048 16.0235 16.0006C14.4514 15.9964 12.9063 16.4096 11.5462 17.198C10.5616 16.4103 9.33506 15.9871 8.07422 16C5.31322 16 3.07422 17.9 3.07422 20.243C3.07422 21.419 5.59222 22.003 8.10122 22C8.03706 22.3531 8.00327 22.7111 8.00022 23.07C8.00022 26.975 24.0002 26.975 24.0002 23.07C23.9971 22.7101 23.9629 22.3511 23.8982 21.997C26.4322 22.014 29.0002 21.429 29.0002 20.242C29.0002 17.9 26.7602 16 24.0002 16Z"/></svg>