<svg width="32" height="32" viewBox="0 0 32 32" fill="none" xmlns="http://www.w3.org/2000/svg">
<path d="M29.5 10C29.5042 9.07696 29.2232 8.17516 28.6954 7.41792C28.1676 6.66067 27.4187 6.08494 26.5513 5.76945C25.6838 5.45397 24.7401 5.41413 23.8491 5.65539C22.9582 5.89665 22.1635 6.40723 21.5737 7.1173C19.9066 6.06089 17.9737 5.5 16.0001 5.5C14.0265 5.5 12.0935 6.06089 10.4264 7.1173C9.97966 6.5818 9.41415 6.15789 8.77484 5.87928C8.13552 5.60067 7.44002 5.47503 6.74363 5.51235C6.04725 5.54968 5.36916 5.74894 4.76329 6.09429C4.15742 6.43964 3.64046 6.92156 3.2535 7.50175C2.86655 8.08194 2.62027 8.74439 2.53424 9.43646C2.44822 10.1285 2.52482 10.8311 2.75795 11.4884C2.99108 12.1456 3.37432 12.7395 3.87721 13.2226C4.3801 13.7058 4.98876 14.065 5.65482 14.2717C5.26017 16.531 5.62448 18.8574 6.69091 20.8879C7.75734 22.9184 9.46591 24.5388 11.55 25.4963C11.666 26.5957 12.1848 27.6132 13.0065 28.3527C13.8282 29.0923 14.8945 29.5015 16 29.5015C17.1055 29.5015 18.1718 29.0923 18.9935 28.3527C19.8152 27.6132 20.334 26.5957 20.45 25.4963C22.5342 24.5387 24.2428 22.9183 25.3093 20.8877C26.3757 18.8571 26.7401 16.5306 26.3455 14.2712C27.2571 13.9871 28.0544 13.4199 28.6217 12.6518C29.189 11.8837 29.4966 10.9548 29.5 10ZM25.5 16C25.4983 17.7268 25.0263 19.4205 24.1346 20.8992C23.2428 22.3779 21.9652 23.5858 20.4387 24.3931C20.297 23.3162 19.7687 22.3275 18.952 21.6113C18.1354 20.8951 17.0863 20.5002 16.0001 20.5002C14.9139 20.5002 13.8647 20.8951 13.0481 21.6113C12.2315 22.3275 11.7031 23.3162 11.5614 24.3931C9.79358 23.4741 8.36369 22.0168 7.47833 20.2318C6.59298 18.4469 6.298 16.4267 6.63602 14.4631C6.75812 14.4731 6.87532 14.4999 7.00002 14.4999C8.19308 14.4986 9.3369 14.0241 10.1805 13.1805C11.0242 12.3369 11.4987 11.1931 11.5 10C11.4951 9.28439 11.3174 8.58057 10.982 7.9484C12.4847 7.00211 14.2243 6.49999 16.0001 6.49999C17.7759 6.49999 19.5155 7.00211 21.0181 7.9484C20.6827 8.58056 20.505 9.28439 20.5 10C20.5013 11.1931 20.9758 12.3369 21.8195 13.1805C22.6631 14.0242 23.8069 14.4987 25 14.5C25.1247 14.5 25.242 14.4732 25.3641 14.4632C25.4511 14.9709 25.4965 15.4849 25.5 16Z" fill="black"/>
</svg>
