<svg width="32" height="32" viewBox="0 0 32 32" fill="none" xmlns="http://www.w3.org/2000/svg">
<path d="M25.0001 5.25022H7.00012C5.74078 5.25165 4.53343 5.75255 3.64294 6.64304C2.75246 7.53353 2.25155 8.74088 2.25012 10.0002V22.0002C2.25155 23.2596 2.75246 24.4669 3.64294 25.3574C4.53343 26.2479 5.74078 26.7488 7.00012 26.7502H25.0001C26.2595 26.7488 27.4668 26.2479 28.3573 25.3574C29.2478 24.4669 29.7487 23.2596 29.7501 22.0002V10.0002C29.7487 8.74088 29.2478 7.53353 28.3573 6.64304C27.4668 5.75255 26.2595 5.25165 25.0001 5.25022ZM28.2501 10.0002V15.2502H20.7501V6.75022H25.0001C25.8618 6.75122 26.6878 7.09395 27.2971 7.70323C27.9064 8.3125 28.2491 9.13857 28.2501 10.0002ZM12.7501 15.2502V6.75022H19.2501V15.2502H12.7501ZM19.2501 16.7502V25.2502H12.7501V16.7502H19.2501ZM7.00012 6.75022H11.2501V15.2502H3.75012V10.0002C3.75112 9.13857 4.09385 8.3125 4.70313 7.70323C5.3124 7.09395 6.13847 6.75122 7.00012 6.75022ZM3.75012 22.0002V16.7502H11.2501V25.2502H7.00012C6.13847 25.2492 5.3124 24.9065 4.70313 24.2972C4.09385 23.6879 3.75112 22.8619 3.75012 22.0002ZM25.0001 25.2502H20.7501V16.7502H28.2501V22.0002C28.2491 22.8619 27.9064 23.6879 27.2971 24.2972C26.6878 24.9065 25.8618 25.2492 25.0001 25.2502Z" fill="black"/>
</svg>
