<svg width="32" height="32" viewBox="0 0 32 32" fill="none" xmlns="http://www.w3.org/2000/svg">
<path d="M25.8971 17.5252C25.7671 17.499 25.632 17.5254 25.5213 17.5984C25.4107 17.6715 25.3334 17.7854 25.3063 17.9152C25.0215 19.2857 24.4374 20.5764 23.5957 21.6949C22.754 22.8134 21.6755 23.7321 20.4374 24.3852C20.2938 23.3092 19.7641 22.3221 18.947 21.6075C18.1299 20.8929 17.081 20.4995 15.9955 20.5006C14.91 20.5016 13.8618 20.897 13.0461 21.6132C12.2303 22.3293 11.7026 23.3175 11.561 24.3937C9.79318 23.4746 8.36329 22.0174 7.47793 20.2324C6.59258 18.4475 6.2976 16.4273 6.63562 14.4637C6.75772 14.4737 6.87492 14.5005 6.99962 14.5005C8.19285 14.4993 9.33687 14.0248 10.1806 13.181C11.0243 12.3373 11.4989 11.1932 11.5 10C11.4951 9.28439 11.3174 8.58056 10.982 7.9484C12.142 7.22036 13.4462 6.75268 14.8045 6.57763C16.1629 6.40259 17.543 6.52434 18.8497 6.9345C18.913 6.95688 18.9801 6.96629 19.0471 6.96218C19.1141 6.95807 19.1795 6.94051 19.2396 6.91056C19.2996 6.88061 19.353 6.83888 19.3966 6.78786C19.4402 6.73683 19.4731 6.67755 19.4933 6.61356C19.5135 6.54956 19.5206 6.48215 19.5142 6.41535C19.5077 6.34855 19.488 6.28373 19.456 6.22474C19.424 6.16575 19.3804 6.1138 19.3279 6.072C19.2754 6.03019 19.2151 5.99938 19.1504 5.9814C17.701 5.5258 16.1698 5.3914 14.6632 5.58757C13.1566 5.78373 11.7108 6.30575 10.4264 7.1173C9.97966 6.5818 9.41415 6.15789 8.77484 5.87928C8.13552 5.60067 7.44002 5.47503 6.74363 5.51235C6.04725 5.54968 5.36916 5.74894 4.76329 6.09429C4.15742 6.43964 3.64046 6.92156 3.2535 7.50175C2.86655 8.08194 2.62027 8.74439 2.53424 9.43646C2.44822 10.1285 2.52482 10.8311 2.75795 11.4884C2.99108 12.1456 3.37432 12.7395 3.87721 13.2226C4.3801 13.7058 4.98876 14.065 5.65482 14.2717C5.26009 16.531 5.62436 18.8575 6.6908 20.8881C7.75724 22.9186 9.46585 24.5391 11.55 25.4965C11.6664 26.5951 12.1851 27.6118 13.0062 28.3509C13.8273 29.0899 14.8928 29.4991 15.9975 29.4997C17.1023 29.5003 18.1682 29.0921 18.99 28.3539C19.8119 27.6156 20.3316 26.5995 20.4491 25.501C21.9289 24.8081 23.227 23.7799 24.2403 22.498C25.2536 21.2161 25.9543 19.7158 26.2869 18.116C26.3133 17.986 26.2871 17.8508 26.214 17.7401C26.141 17.6294 26.027 17.5521 25.8971 17.5252ZM3.50002 10C3.50002 9.30777 3.70529 8.63108 4.08987 8.0555C4.47446 7.47993 5.02108 7.03133 5.66062 6.76642C6.30017 6.50152 7.0039 6.4322 7.68283 6.56725C8.36177 6.7023 8.98541 7.03564 9.47489 7.52513C9.96437 8.01461 10.2977 8.63825 10.4328 9.31718C10.5678 9.99612 10.4985 10.6999 10.2336 11.3394C9.96869 11.9789 9.52008 12.5256 8.94451 12.9101C8.36894 13.2947 7.69225 13.5 7.00002 13.5C6.07211 13.4989 5.18253 13.1297 4.5264 12.4736C3.87027 11.8175 3.50115 10.9279 3.50002 10ZM16 28.5C15.3078 28.5 14.6311 28.2947 14.0555 27.9101C13.4799 27.5256 13.0313 26.9789 12.7664 26.3394C12.5015 25.6999 12.4322 24.9961 12.5673 24.3172C12.7023 23.6383 13.0357 23.0146 13.5251 22.5251C14.0146 22.0356 14.6383 21.7023 15.3172 21.5673C15.9961 21.4322 16.6999 21.5015 17.3394 21.7664C17.9789 22.0313 18.5256 22.4799 18.9102 23.0555C19.2947 23.6311 19.5 24.3078 19.5 25C19.4989 25.9279 19.1298 26.8175 18.4736 27.4736C17.8175 28.1297 16.9279 28.4989 16 28.5Z" fill="black"/>
<path d="M29 9.5H25.5V6C25.5 5.86739 25.4473 5.74021 25.3536 5.64645C25.2598 5.55268 25.1326 5.5 25 5.5C24.8674 5.5 24.7402 5.55268 24.6465 5.64645C24.5527 5.74021 24.5 5.86739 24.5 6V9.5H21C20.8674 9.5 20.7402 9.55268 20.6465 9.64645C20.5527 9.74021 20.5 9.86739 20.5 10C20.5 10.1326 20.5527 10.2598 20.6465 10.3536C20.7402 10.4473 20.8674 10.5 21 10.5H24.5V14C24.5 14.1326 24.5527 14.2598 24.6465 14.3536C24.7402 14.4473 24.8674 14.5 25 14.5C25.1326 14.5 25.2598 14.4473 25.3536 14.3536C25.4473 14.2598 25.5 14.1326 25.5 14V10.5H29C29.1326 10.5 29.2598 10.4473 29.3536 10.3536C29.4473 10.2598 29.5 10.1326 29.5 10C29.5 9.86739 29.4473 9.74021 29.3536 9.64645C29.2598 9.55268 29.1326 9.5 29 9.5Z" fill="black"/>
</svg>
