<svg xmlns="http://www.w3.org/2000/svg" width="32" height="32" viewBox="0 0 32 32"><path d="M25.997 17.0361C25.7372 16.983 25.467 17.0352 25.2457 17.1813C25.0244 17.3274 24.8702 17.5554 24.817 17.8151C24.57 19.0036 24.0848 20.1298 23.3906 21.1256C22.6964 22.1214 21.8077 22.9662 20.778 23.6091C20.4823 22.5694 19.8557 21.6545 18.993 21.0031C18.1303 20.3518 17.0788 19.9996 15.9978 19.9999C14.9169 20.0002 13.8656 20.3531 13.0033 21.005C12.1411 21.6569 11.515 22.5722 11.22 23.6121C9.7802 22.7185 8.62447 21.4336 7.88782 19.9076C7.15118 18.3815 6.86405 16.6773 7.05998 14.9941C7.87295 14.9877 8.67199 14.7824 9.38729 14.396C10.1026 14.0095 10.7124 13.4538 11.1634 12.7774C11.6144 12.101 11.8929 11.3244 11.9746 10.5155C12.0563 9.70665 11.9387 8.89007 11.632 8.13714C12.6991 7.54253 13.8761 7.17158 15.0913 7.04693C16.3065 6.92228 17.5344 7.04655 18.7 7.41214C18.9531 7.4917 19.2275 7.46744 19.4628 7.3447C19.698 7.22196 19.8749 7.01079 19.9545 6.75764C20.034 6.50449 20.0098 6.2301 19.887 5.99483C19.7643 5.75957 19.5531 5.5827 19.3 5.50314C17.8518 5.04841 16.3251 4.8993 14.8163 5.06523C13.3075 5.23117 11.8497 5.70855 10.535 6.46714C10.0124 5.94434 9.3803 5.544 8.68431 5.29498C7.98831 5.04595 7.24574 4.95445 6.5101 5.02705C5.77447 5.09965 5.06411 5.33456 4.43023 5.71484C3.79634 6.09512 3.25472 6.6113 2.84441 7.22617C2.43409 7.84104 2.1653 8.53928 2.05742 9.27057C1.94953 10.0019 2.00523 10.748 2.2205 11.4551C2.43578 12.1623 2.80527 12.8129 3.30233 13.36C3.7994 13.9072 4.41166 14.3372 5.09498 14.6191C4.79174 16.8791 5.20677 19.1773 6.28136 21.1885C7.35595 23.1996 9.0357 24.822 11.083 25.8261C11.2744 26.9922 11.8742 28.0523 12.7751 28.8171C13.676 29.5818 14.8195 30.0014 16.0012 30.0009C17.1829 30.0005 18.326 29.5799 19.2263 28.8145C20.1266 28.049 20.7255 26.9884 20.916 25.8221C22.404 25.0793 23.7043 24.0089 24.7192 22.6913C25.7342 21.3738 26.4374 19.8434 26.776 18.2151C26.8027 18.0864 26.8037 17.9537 26.7789 17.8246C26.7541 17.6955 26.704 17.5725 26.6315 17.4629C26.559 17.3532 26.4655 17.2589 26.3564 17.1855C26.2474 17.1121 26.1249 17.061 25.996 17.0351L25.997 17.0361ZM3.99998 10.0001C3.99998 9.60617 4.07758 9.21606 4.22834 8.85209C4.37911 8.48811 4.60008 8.15739 4.87866 7.87882C5.15724 7.60024 5.48795 7.37926 5.85193 7.2285C6.21591 7.07773 6.60601 7.00014 6.99998 7.00014C7.39395 7.00014 7.78405 7.07773 8.14803 7.2285C8.51201 7.37926 8.84272 7.60024 9.1213 7.87882C9.39988 8.15739 9.62085 8.48811 9.77162 8.85209C9.92238 9.21606 9.99998 9.60617 9.99998 10.0001C9.99998 10.7958 9.68391 11.5588 9.1213 12.1215C8.55869 12.6841 7.79563 13.0001 6.99998 13.0001C6.20433 13.0001 5.44127 12.6841 4.87866 12.1215C4.31605 11.5588 3.99998 10.7958 3.99998 10.0001ZM16 28.0001C15.606 28.0001 15.2159 27.9225 14.8519 27.7718C14.488 27.621 14.1572 27.4 13.8787 27.1215C13.6001 26.8429 13.3791 26.5122 13.2283 26.1482C13.0776 25.7842 13 25.3941 13 25.0001C13 24.6062 13.0776 24.2161 13.2283 23.8521C13.3791 23.4881 13.6001 23.1574 13.8787 22.8788C14.1572 22.6002 14.488 22.3793 14.8519 22.2285C15.2159 22.0777 15.606 22.0001 16 22.0001C16.7956 22.0001 17.5587 22.3162 18.1213 22.8788C18.6839 23.4414 19 24.2045 19 25.0001C19 25.7958 18.6839 26.5588 18.1213 27.1215C17.5587 27.6841 16.7956 28.0001 16 28.0001Z M29 9H26V6C26 5.73478 25.8946 5.48043 25.7071 5.29289C25.5196 5.10536 25.2652 5 25 5C24.7348 5 24.4804 5.10536 24.2929 5.29289C24.1054 5.48043 24 5.73478 24 6V9H21C20.7348 9 20.4804 9.10536 20.2929 9.29289C20.1054 9.48043 20 9.73478 20 10C20 10.2652 20.1054 10.5196 20.2929 10.7071C20.4804 10.8946 20.7348 11 21 11H24V14C24 14.2652 24.1054 14.5196 24.2929 14.7071C24.4804 14.8946 24.7348 15 25 15C25.2652 15 25.5196 14.8946 25.7071 14.7071C25.8946 14.5196 26 14.2652 26 14V11H29C29.2652 11 29.5196 10.8946 29.7071 10.7071C29.8946 10.5196 30 10.2652 30 10C30 9.73478 29.8946 9.48043 29.7071 9.29289C29.5196 9.10536 29.2652 9 29 9Z"/></svg>