<svg xmlns="http://www.w3.org/2000/svg" width="32" height="32" viewBox="0 0 32 32"><path d="M25 7.25H7C5.74063 7.25132 4.53322 7.75219 3.6427 8.6427C2.75219 9.53322 2.25132 10.7406 2.25 12V20C2.25132 21.2594 2.75219 22.4668 3.6427 23.3573C4.53322 24.2478 5.74063 24.7487 7 24.75H25C26.2594 24.7487 27.4668 24.2478 28.3573 23.3573C29.2478 22.4668 29.7487 21.2594 29.75 20V12C29.7487 10.7406 29.2478 9.53322 28.3573 8.6427C27.4668 7.75219 26.2594 7.25132 25 7.25ZM28.25 20C28.2489 20.8616 27.9062 21.6877 27.2969 22.2969C26.6877 22.9062 25.8616 23.2489 25 23.25H7C6.13837 23.2489 5.31234 22.9062 4.70307 22.2969C4.09381 21.6877 3.75106 20.8616 3.75 20V12C3.75106 11.1384 4.09381 10.3123 4.70307 9.70307C5.31234 9.09381 6.13837 8.75106 7 8.75H25C25.8616 8.75106 26.6877 9.09381 27.2969 9.70307C27.9062 10.3123 28.2489 11.1384 28.25 12V20ZM3 4.75H29C29.1989 4.75 29.3897 4.67098 29.5303 4.53033C29.671 4.38968 29.75 4.19891 29.75 4C29.75 3.80109 29.671 3.61032 29.5303 3.46967C29.3897 3.32902 29.1989 3.25 29 3.25H3C2.80109 3.25 2.61032 3.32902 2.46967 3.46967C2.32902 3.61032 2.25 3.80109 2.25 4C2.25 4.19891 2.32902 4.38968 2.46967 4.53033C2.61032 4.67098 2.80109 4.75 3 4.75ZM29 27.25H3C2.80109 27.25 2.61032 27.329 2.46967 27.4697C2.32902 27.6103 2.25 27.8011 2.25 28C2.25 28.1989 2.32902 28.3897 2.46967 28.5303C2.61032 28.671 2.80109 28.75 3 28.75H29C29.1989 28.75 29.3897 28.671 29.5303 28.5303C29.671 28.3897 29.75 28.1989 29.75 28C29.75 27.8011 29.671 27.6103 29.5303 27.4697C29.3897 27.329 29.1989 27.25 29 27.25Z"/></svg>