<svg width="32" height="32" viewBox="0 0 32 32" fill="none" xmlns="http://www.w3.org/2000/svg">
<path d="M29.75 10C29.7531 9.04409 29.4667 8.10963 28.9286 7.31959C28.3904 6.52954 27.6257 5.92091 26.7351 5.57377C25.8444 5.22663 24.8695 5.15724 23.9387 5.37474C23.0078 5.59224 22.1646 6.08643 21.52 6.7923C19.8558 5.78342 17.9468 5.25 16.0006 5.25C14.0544 5.25 12.1454 5.78342 10.4811 6.7923C9.99606 6.26245 9.39684 5.84987 8.7288 5.58577C8.06076 5.32166 7.3414 5.21296 6.62515 5.26787C5.9089 5.32279 5.21452 5.53988 4.59455 5.90274C3.97458 6.2656 3.44525 6.76471 3.04662 7.3623C2.648 7.9599 2.39051 8.64034 2.29363 9.35213C2.19676 10.0639 2.26305 10.7884 2.48748 11.4708C2.71191 12.1532 3.0886 12.7756 3.58905 13.291C4.0895 13.8063 4.70061 14.2011 5.37613 14.4454C5.02483 16.7056 5.41351 19.0188 6.4842 21.04C7.55489 23.0613 9.25024 24.6823 11.3174 25.6614C11.4716 26.794 12.0311 27.8323 12.8921 28.5841C13.7532 29.3359 14.8575 29.7501 16.0005 29.7501C17.1436 29.7501 18.2479 29.3359 19.109 28.5841C19.97 27.8323 20.5294 26.794 20.6836 25.6614C22.7507 24.6822 24.446 23.0612 25.5167 21.04C26.5874 19.0187 26.9762 16.7056 26.625 14.4454C27.5386 14.1138 28.3282 13.5096 28.8871 12.7145C29.446 11.9194 29.7473 10.9719 29.75 10ZM20.6365 23.9907C20.4074 22.9312 19.8223 21.9821 18.9786 21.3014C18.135 20.6207 17.0837 20.2494 15.9996 20.2494C14.9156 20.2494 13.8643 20.6207 13.0206 21.3014C12.177 21.9821 11.5919 22.9312 11.3627 23.9907C9.7649 23.0825 8.47876 21.7127 7.67288 20.0609C6.86701 18.4091 6.57901 16.5523 6.84663 14.734C6.89863 14.7357 6.94723 14.7495 6.99963 14.7495C8.25896 14.7482 9.46636 14.2474 10.3569 13.357C11.2475 12.4666 11.7485 11.2593 11.75 10C11.7478 9.32243 11.5991 8.65335 11.3141 8.0386C12.7317 7.19518 14.3506 6.74999 16.0001 6.74999C17.6496 6.74999 19.2685 7.19518 20.686 8.0386C20.4012 8.65338 20.2524 9.32243 20.25 10C20.2515 11.2593 20.7524 12.4667 21.6429 13.3572C22.5333 14.2477 23.7407 14.7486 25 14.75C25.0525 14.75 25.1011 14.7362 25.1531 14.7345C25.4206 16.5528 25.1325 18.4095 24.3267 20.0613C23.5208 21.7131 22.2347 23.0829 20.6369 23.9912L20.6365 23.9907Z" fill="black"/>
</svg>
