<svg xmlns="http://www.w3.org/2000/svg" width="32" height="32" viewBox="0 0 32 32"><path d="M25 5.25H7C5.74063 5.25132 4.53322 5.75219 3.6427 6.6427C2.75219 7.53322 2.25132 8.74063 2.25 10V22C2.25132 23.2594 2.75219 24.4668 3.6427 25.3573C4.53322 26.2478 5.74063 26.7487 7 26.75H25C26.2594 26.7487 27.4668 26.2478 28.3573 25.3573C29.2478 24.4668 29.7487 23.2594 29.75 22V10C29.7487 8.74063 29.2478 7.53322 28.3573 6.6427C27.4668 5.75219 26.2594 5.25132 25 5.25ZM28.25 22C28.2489 22.8616 27.9062 23.6877 27.2969 24.2969C26.6877 24.9062 25.8616 25.2489 25 25.25H7C6.13837 25.2489 5.31234 24.9062 4.70307 24.2969C4.09381 23.6877 3.75106 22.8616 3.75 22V10C3.75106 9.13837 4.09381 8.31234 4.70307 7.70307C5.31234 7.09381 6.13837 6.75106 7 6.75H25C25.8616 6.75106 26.6877 7.09381 27.2969 7.70307C27.9062 8.31234 28.2489 9.13837 28.25 10V22Z M19 10.25H13C12.2709 10.2508 11.5719 10.5408 11.0563 11.0563C10.5408 11.5719 10.2508 12.2709 10.25 13V19C10.2508 19.7291 10.5408 20.4281 11.0563 20.9437C11.5719 21.4592 12.2709 21.7492 13 21.75H19C19.7291 21.7492 20.4281 21.4592 20.9437 20.9437C21.4592 20.4281 21.7492 19.7291 21.75 19V13C21.7492 12.2709 21.4592 11.5719 20.9437 11.0563C20.4281 10.5408 19.7291 10.2508 19 10.25ZM20.25 19C20.2495 19.3314 20.1176 19.649 19.8833 19.8833C19.649 20.1176 19.3314 20.2495 19 20.25H13C12.6686 20.2497 12.3508 20.118 12.1164 19.8836C11.882 19.6492 11.7503 19.3314 11.75 19V13C11.7503 12.6686 11.882 12.3508 12.1164 12.1164C12.3508 11.882 12.6686 11.7503 13 11.75H19C19.3314 11.7503 19.6492 11.882 19.8836 12.1164C20.118 12.3508 20.2497 12.6686 20.25 13V19Z"/></svg>