<svg width="32" height="32" viewBox="0 0 32 32" fill="none" xmlns="http://www.w3.org/2000/svg">
<path d="M25.9469 17.2808C25.8505 17.2605 25.7509 17.2595 25.6541 17.278C25.5572 17.2964 25.465 17.3338 25.3827 17.3881C25.3004 17.4424 25.2297 17.5125 25.1747 17.5943C25.1197 17.6761 25.0814 17.768 25.0621 17.8647C24.7977 19.1401 24.2668 20.3453 23.5042 21.4013C22.7417 22.4572 21.7646 23.3402 20.637 23.9923C20.4082 22.9326 19.8233 21.9832 18.9797 21.3021C18.1361 20.6211 17.0847 20.2496 16.0005 20.2494C14.9164 20.2492 13.8648 20.6204 13.021 21.3011C12.1772 21.9818 11.5919 22.931 11.3627 23.9907C9.7649 23.0825 8.47876 21.7127 7.67288 20.0609C6.86701 18.4091 6.57901 16.5523 6.84664 14.734C6.89864 14.7357 6.94724 14.7495 6.99964 14.7495C8.25897 14.7482 9.46636 14.2474 10.3569 13.357C11.2475 12.4666 11.7485 11.2593 11.75 10C11.7478 9.32243 11.5991 8.65335 11.3141 8.0386C12.4273 7.37846 13.6671 6.96026 14.9526 6.81125C16.2382 6.66225 17.5408 6.78578 18.7754 7.1738C18.8694 7.2033 18.9683 7.214 19.0665 7.20528C19.1646 7.19657 19.2601 7.16861 19.3474 7.123C19.4347 7.07739 19.5122 7.01503 19.5754 6.93948C19.6387 6.86392 19.6864 6.77665 19.7159 6.68265C19.7454 6.58865 19.7561 6.48976 19.7474 6.39163C19.7387 6.29349 19.7107 6.19803 19.6651 6.11071C19.6195 6.02338 19.5571 5.94589 19.4816 5.88266C19.406 5.81943 19.3187 5.7717 19.2247 5.7422C18.181 5.41547 17.0937 5.2495 16 5.25C14.0539 5.25084 12.145 5.78401 10.48 6.7918C9.99496 6.26196 9.39574 5.84937 8.7277 5.58527C8.05966 5.32116 7.3403 5.21246 6.62405 5.26737C5.9078 5.32229 5.21342 5.53939 4.59345 5.90224C3.97348 6.2651 3.44415 6.76421 3.04553 7.36181C2.6469 7.95941 2.38941 8.63984 2.29254 9.35163C2.19566 10.0634 2.26195 10.7879 2.48638 11.4703C2.71081 12.1527 3.0875 12.7751 3.58795 13.2905C4.0884 13.8058 4.69951 14.2006 5.37504 14.4449C5.02373 16.7051 5.41241 19.0183 6.4831 21.0395C7.55379 23.0608 9.24914 24.6818 11.3163 25.6609C11.4707 26.7934 12.0302 27.8316 12.8912 28.5832C13.7523 29.3348 14.8565 29.749 15.9994 29.749C17.1424 29.749 18.2466 29.3348 19.1076 28.5832C19.9687 27.8316 20.5282 26.7934 20.6825 25.6609C22.1664 24.9429 23.4654 23.8936 24.4794 22.5939C25.4934 21.2943 26.1952 19.779 26.5307 18.1651C26.5505 18.0687 26.5512 17.9693 26.5325 17.8727C26.5139 17.7761 26.4764 17.684 26.4222 17.6019C26.368 17.5198 26.2981 17.4491 26.2165 17.394C26.135 17.3389 26.0434 17.3005 25.9469 17.2808ZM3.75004 10C3.75004 9.35721 3.94064 8.72886 4.29776 8.1944C4.65487 7.65994 5.16245 7.24338 5.75631 6.99739C6.35017 6.75141 7.00364 6.68705 7.63408 6.81245C8.26452 6.93785 8.84361 7.24738 9.29813 7.7019C9.75265 8.15642 10.0622 8.73552 10.1876 9.36596C10.313 9.9964 10.2486 10.6499 10.0026 11.2437C9.75666 11.8376 9.3401 12.3452 8.80564 12.7023C8.27118 13.0594 7.64283 13.25 7.00004 13.25C6.13839 13.249 5.31232 12.9063 4.70305 12.297C4.09377 11.6877 3.75104 10.8616 3.75004 10ZM16 28.25C15.3572 28.25 14.7289 28.0594 14.1944 27.7023C13.66 27.3452 13.2434 26.8376 12.9974 26.2437C12.7514 25.6499 12.6871 24.9964 12.8125 24.366C12.9379 23.7355 13.2474 23.1564 13.7019 22.7019C14.1565 22.2474 14.7356 21.9379 15.366 21.8125C15.9964 21.687 16.6499 21.7514 17.2438 21.9974C17.8376 22.2434 18.3452 22.6599 18.7023 23.1944C19.0594 23.7289 19.25 24.3572 19.25 25C19.249 25.8616 18.9063 26.6877 18.297 27.297C17.6877 27.9063 16.8617 28.249 16 28.25Z" fill="black"/>
<path d="M29 9.25H25.75V6C25.75 5.80109 25.671 5.61032 25.5304 5.46967C25.3897 5.32902 25.1989 5.25 25 5.25C24.8011 5.25 24.6104 5.32902 24.4697 5.46967C24.3291 5.61032 24.25 5.80109 24.25 6V9.25H21C20.8011 9.25 20.6104 9.32902 20.4697 9.46967C20.3291 9.61032 20.25 9.80109 20.25 10C20.25 10.1989 20.3291 10.3897 20.4697 10.5303C20.6104 10.671 20.8011 10.75 21 10.75H24.25V14C24.25 14.1989 24.3291 14.3897 24.4697 14.5303C24.6104 14.671 24.8011 14.75 25 14.75C25.1989 14.75 25.3897 14.671 25.5304 14.5303C25.671 14.3897 25.75 14.1989 25.75 14V10.75H29C29.1989 10.75 29.3897 10.671 29.5304 10.5303C29.671 10.3897 29.75 10.1989 29.75 10C29.75 9.80109 29.671 9.61032 29.5304 9.46967C29.3897 9.32902 29.1989 9.25 29 9.25Z" fill="black"/>
</svg>
