<svg xmlns="http://www.w3.org/2000/svg" width="32" height="32" viewBox="0 0 32 32"><path d="M25 5H7C5.6744 5.00159 4.40356 5.52888 3.46622 6.46622C2.52888 7.40356 2.00159 8.6744 2 10V22C2.00159 23.3256 2.52888 24.5964 3.46622 25.5338C4.40356 26.4711 5.6744 26.9984 7 27H25C26.3257 26.9987 27.5967 26.4715 28.5341 25.5341C29.4715 24.5967 29.9987 23.3257 30 22V10C29.9987 8.67432 29.4715 7.40332 28.5341 6.46593C27.5967 5.52853 26.3257 5.00132 25 5ZM19.002 7V25H13.002V7H19.002ZM4 22V10C4.00079 9.20459 4.31712 8.44199 4.87956 7.87956C5.44199 7.31712 6.20459 7.00079 7 7H11.002V25H7C6.20459 24.9992 5.44199 24.6829 4.87956 24.1204C4.31712 23.558 4.00079 22.7954 4 22ZM28 22C27.9992 22.7954 27.6829 23.558 27.1204 24.1204C26.558 24.6829 25.7954 24.9992 25 25H21.002V7H25C25.7954 7.00079 26.558 7.31712 27.1204 7.87956C27.6829 8.44199 27.9992 9.20459 28 10V22Z"/></svg>