<svg xmlns="http://www.w3.org/2000/svg" width="32" height="32" viewBox="0 0 32 32"><path d="M25 7H7C5.6744 7.00159 4.40356 7.52888 3.46622 8.46622C2.52888 9.40356 2.00159 10.6744 2 12V20C2.00159 21.3256 2.52888 22.5964 3.46622 23.5338C4.40356 24.4711 5.6744 24.9984 7 25H25C26.3257 24.9987 27.5967 24.4715 28.5341 23.5341C29.4715 22.5967 29.9987 21.3257 30 20V12C29.9984 10.6744 29.4711 9.40356 28.5338 8.46622C27.5964 7.52888 26.3256 7.00159 25 7ZM28 20C27.9992 20.7954 27.6829 21.558 27.1204 22.1204C26.558 22.6829 25.7954 22.9992 25 23H7C6.20459 22.9992 5.44199 22.6829 4.87956 22.1204C4.31712 21.558 4.00079 20.7954 4 20V12C4.00079 11.2046 4.31712 10.442 4.87956 9.87956C5.44199 9.31712 6.20459 9.00079 7 9H25C25.7954 9.00079 26.558 9.31712 27.1204 9.87956C27.6829 10.442 27.9992 11.2046 28 12V20ZM3 5H29C29.2652 5 29.5196 4.89464 29.7071 4.70711C29.8946 4.51957 30 4.26522 30 4C30 3.73478 29.8946 3.48043 29.7071 3.29289C29.5196 3.10536 29.2652 3 29 3H3C2.73478 3 2.48043 3.10536 2.29289 3.29289C2.10536 3.48043 2 3.73478 2 4C2 4.26522 2.10536 4.51957 2.29289 4.70711C2.48043 4.89464 2.73478 5 3 5ZM29 27H3C2.73478 27 2.48043 27.1054 2.29289 27.2929C2.10536 27.4804 2 27.7348 2 28C2 28.2652 2.10536 28.5196 2.29289 28.7071C2.48043 28.8946 2.73478 29 3 29H29C29.2652 29 29.5196 28.8946 29.7071 28.7071C29.8946 28.5196 30 28.2652 30 28C30 27.7348 29.8946 27.4804 29.7071 27.2929C29.5196 27.1054 29.2652 27 29 27Z"/></svg>