<svg xmlns="http://www.w3.org/2000/svg" width="32" height="32" viewBox="0 0 32 32"><path d="M25 5.5H7C5.80693 5.50132 4.66311 5.97585 3.81948 6.81948C2.97585 7.66311 2.50132 8.80693 2.5 10V22C2.50132 23.1931 2.97585 24.3369 3.81948 25.1805C4.66311 26.0241 5.80693 26.4987 7 26.5H25C26.1931 26.4987 27.3369 26.0241 28.1805 25.1805C29.0241 24.3369 29.4987 23.1931 29.5 22V10C29.4987 8.80693 29.0241 7.66311 28.1805 6.81948C27.3369 5.97585 26.1931 5.50132 25 5.5ZM28.5 22C28.4987 22.9279 28.1295 23.8173 27.4734 24.4734C26.8173 25.1295 25.9279 25.4987 25 25.5H7C6.07207 25.4989 5.18244 25.1299 4.5263 24.4737C3.87015 23.8176 3.50106 22.9279 3.5 22V10C3.50106 9.07207 3.87015 8.18244 4.5263 7.5263C5.18244 6.87015 6.07207 6.50106 7 6.5H25C25.9279 6.50106 26.8176 6.87015 27.4737 7.5263C28.1299 8.18244 28.4989 9.07207 28.5 10V22Z M19 10.5H13C12.3371 10.5005 11.7015 10.7641 11.2328 11.2328C10.7641 11.7015 10.5005 12.3371 10.5 13V19C10.5005 19.6629 10.7641 20.2985 11.2328 20.7672C11.7015 21.2359 12.3371 21.4995 13 21.5H19C19.6629 21.4995 20.2985 21.2359 20.7672 20.7672C21.2359 20.2985 21.4995 19.6629 21.5 19V13C21.4995 12.3371 21.2359 11.7015 20.7672 11.2328C20.2985 10.7641 19.6629 10.5005 19 10.5ZM20.5 19C20.4995 19.3977 20.3413 19.7789 20.0601 20.0601C19.7789 20.3413 19.3977 20.4995 19 20.5H13C12.6023 20.4997 12.2209 20.3416 11.9396 20.0604C11.6584 19.7791 11.5003 19.3977 11.5 19V13C11.5005 12.6023 11.6587 12.2211 11.9399 11.9399C12.2211 11.6587 12.6023 11.5005 13 11.5H19C19.3977 11.5005 19.7789 11.6587 20.0601 11.9399C20.3413 12.2211 20.4995 12.6023 20.5 13V19Z"/></svg>