<svg width="32" height="32" viewBox="0 0 32 32" fill="none" xmlns="http://www.w3.org/2000/svg">
<path fill-rule="evenodd" clip-rule="evenodd" d="M24.9878 1.84404C24.911 1.35799 24.4921 1 24 1C23.5079 1 23.089 1.35799 23.0122 1.84404C22.8079 3.13809 22.63 4.04157 22.4174 4.70216C22.2092 5.34916 21.9919 5.68303 21.7561 5.89921C21.5148 6.12041 21.1607 6.30455 20.5143 6.48152C19.8991 6.64997 19.1224 6.78683 18.0603 6.97396L17.8262 7.01522C17.3484 7.09954 17 7.51476 17 8C17 8.48524 17.3484 8.90046 17.8262 8.98478L18.0602 9.02604C19.1223 9.21317 19.8991 9.35003 20.5143 9.51848C21.1607 9.69545 21.5148 9.87959 21.7561 10.1008C21.9919 10.317 22.2092 10.6508 22.4174 11.2978C22.63 11.9584 22.8079 12.8619 23.0122 14.156C23.089 14.642 23.5079 15 24 15C24.4921 15 24.911 14.642 24.9878 14.156C25.1921 12.8619 25.37 11.9584 25.5826 11.2978C25.7908 10.6508 26.0081 10.317 26.2439 10.1008C26.4852 9.87959 26.8393 9.69545 27.4857 9.51848C28.1009 9.35003 28.8776 9.21317 29.9398 9.02604L30.1738 8.98478C30.6516 8.90046 31 8.48524 31 8C31 7.51476 30.6516 7.09954 30.1738 7.01522L29.9397 6.97396C28.8776 6.78683 28.1009 6.64997 27.4857 6.48152C26.8393 6.30455 26.4852 6.12041 26.2439 5.89921C26.0081 5.68303 25.7908 5.34916 25.5826 4.70216C25.37 4.04157 25.1921 3.13809 24.9878 1.84404ZM23.1075 8.62648C22.8247 8.36718 22.5115 8.16455 22.1732 8C22.5115 7.83545 22.8247 7.63282 23.1075 7.37352C23.4866 7.02604 23.7724 6.61287 24 6.13621C24.2276 6.61287 24.5134 7.02604 24.8925 7.37352C25.1753 7.63282 25.4885 7.83545 25.8268 8C25.4885 8.16455 25.1753 8.36718 24.8925 8.62648C24.5134 8.97396 24.2276 9.38713 24 9.86379C23.7724 9.38713 23.4866 8.97396 23.1075 8.62648ZM9 6C7.34315 6 6 7.34315 6 9V23C6 24.6569 7.34315 26 9 26H23C24.6569 26 26 24.6569 26 23V16C26 15.4477 26.4477 15 27 15C27.5523 15 28 15.4477 28 16V23C28 25.7614 25.7614 28 23 28H9C6.23858 28 4 25.7614 4 23V9C4 6.23858 6.23858 4 9 4H16C16.5523 4 17 4.44772 17 5C17 5.55228 16.5523 6 16 6H9ZM9 10C9 9.44771 9.44772 9 10 9H15C15.5523 9 16 9.44771 16 10C16 10.5523 15.5523 11 15 11H10C9.44772 11 9 10.5523 9 10ZM10 14C9.44772 14 9 14.4477 9 15C9 15.5523 9.44772 16 10 16H21C21.5523 16 22 15.5523 22 15C22 14.4477 21.5523 14 21 14H10ZM9 20C9 19.4477 9.44772 19 10 19H15C15.5523 19 16 19.4477 16 20C16 20.5523 15.5523 21 15 21H10C9.44772 21 9 20.5523 9 20Z" fill="black"/>
</svg>
