<svg width="32" height="32" viewBox="0 0 32 32" fill="none" xmlns="http://www.w3.org/2000/svg">
<path d="M29.5 10C29.5042 9.07696 29.2232 8.17516 28.6954 7.41792C28.1676 6.66067 27.4187 6.08494 26.5513 5.76945C25.6838 5.45397 24.7401 5.41413 23.8491 5.65539C22.9582 5.89665 22.1635 6.40723 21.5737 7.1173C19.9066 6.06089 17.9737 5.5 16.0001 5.5C14.0265 5.5 12.0935 6.06089 10.4264 7.1173C9.97966 6.5818 9.41415 6.15789 8.77484 5.87928C8.13552 5.60067 7.44002 5.47503 6.74363 5.51235C6.04725 5.54968 5.36916 5.74894 4.76329 6.09429C4.15742 6.43964 3.64046 6.92156 3.2535 7.50175C2.86655 8.08194 2.62027 8.74439 2.53424 9.43646C2.44822 10.1285 2.52482 10.8311 2.75795 11.4884C2.99108 12.1456 3.37432 12.7395 3.87721 13.2226C4.3801 13.7058 4.98876 14.065 5.65482 14.2717C5.26017 16.531 5.62448 18.8574 6.69091 20.8879C7.75734 22.9184 9.46591 24.5388 11.55 25.4963C11.666 26.5957 12.1848 27.6132 13.0065 28.3527C13.8282 29.0923 14.8945 29.5015 16 29.5015C17.1055 29.5015 18.1718 29.0923 18.9935 28.3527C19.8152 27.6132 20.334 26.5957 20.45 25.4963C22.5342 24.5387 24.2428 22.9183 25.3093 20.8877C26.3757 18.8571 26.7401 16.5306 26.3455 14.2712C27.2571 13.9871 28.0544 13.4199 28.6217 12.6518C29.189 11.8837 29.4966 10.9548 29.5 10ZM3.50002 10C3.50002 9.30777 3.70529 8.63108 4.08987 8.0555C4.47446 7.47993 5.02108 7.03133 5.66062 6.76642C6.30017 6.50151 7.0039 6.4322 7.68283 6.56725C8.36177 6.7023 8.98541 7.03564 9.47489 7.52513C9.96437 8.01461 10.2977 8.63825 10.4328 9.31718C10.5678 9.99612 10.4985 10.6999 10.2336 11.3394C9.96869 11.9789 9.52008 12.5256 8.94451 12.9101C8.36894 13.2947 7.69225 13.5 7.00002 13.5C6.07211 13.4989 5.18253 13.1297 4.5264 12.4736C3.87027 11.8175 3.50115 10.9279 3.50002 10ZM16 28.5C15.3078 28.5 14.6311 28.2947 14.0555 27.9101C13.4799 27.5256 13.0313 26.9789 12.7664 26.3394C12.5015 25.6998 12.4322 24.9961 12.5673 24.3172C12.7023 23.6382 13.0357 23.0146 13.5251 22.5251C14.0146 22.0356 14.6383 21.7023 15.3172 21.5673C15.9961 21.4322 16.6999 21.5015 17.3394 21.7664C17.9789 22.0313 18.5256 22.4799 18.9102 23.0555C19.2947 23.6311 19.5 24.3078 19.5 25C19.4989 25.9279 19.1298 26.8175 18.4736 27.4736C17.8175 28.1297 16.9279 28.4989 16 28.5ZM20.4387 24.3931C20.297 23.3162 19.7687 22.3275 18.952 21.6113C18.1354 20.8951 17.0863 20.5002 16.0001 20.5002C14.9139 20.5002 13.8647 20.8951 13.0481 21.6113C12.2315 22.3275 11.7031 23.3162 11.5614 24.3931C9.79358 23.4741 8.36369 22.0168 7.47833 20.2318C6.59298 18.4469 6.298 16.4267 6.63602 14.4631C6.75812 14.4731 6.87532 14.4999 7.00002 14.4999C8.19308 14.4986 9.3369 14.0241 10.1805 13.1805C11.0242 12.3369 11.4987 11.1931 11.5 10C11.4951 9.28439 11.3174 8.58057 10.982 7.9484C12.4847 7.00211 14.2243 6.49999 16.0001 6.49999C17.7759 6.49999 19.5155 7.00211 21.0181 7.9484C20.6827 8.58056 20.505 9.28439 20.5 10C20.5013 11.1931 20.9758 12.3369 21.8195 13.1805C22.6631 14.0242 23.8069 14.4987 25 14.5C25.1247 14.5 25.242 14.4732 25.3641 14.4632C25.702 16.4268 25.4069 18.4469 24.5216 20.2318C23.6363 22.0168 22.2065 23.474 20.4387 24.3932V24.3931ZM25 13.5C24.3078 13.5 23.6311 13.2947 23.0555 12.9101C22.4799 12.5256 22.0313 11.9789 21.7664 11.3394C21.5015 10.6999 21.4322 9.99612 21.5673 9.31718C21.7023 8.63825 22.0357 8.01461 22.5251 7.52513C23.0146 7.03564 23.6383 6.7023 24.3172 6.56725C24.9961 6.4322 25.6999 6.50151 26.3394 6.76642C26.9789 7.03133 27.5256 7.47993 27.9102 8.0555C28.2947 8.63108 28.5 9.30777 28.5 10C28.4989 10.9279 28.1298 11.8175 27.4736 12.4736C26.8175 13.1297 25.9279 13.4989 25 13.5Z" fill="black"/>
</svg>
