<svg width="32" height="32" viewBox="0 0 32 32" fill="none" xmlns="http://www.w3.org/2000/svg">
<path d="M25.0001 5.00022H7.00012C5.67452 5.00178 4.40365 5.52906 3.46631 6.46641C2.52896 7.40375 2.00168 8.67462 2.00012 10.0002V22.0002C2.00168 23.3258 2.52896 24.5967 3.46631 25.534C4.40365 26.4714 5.67452 26.9987 7.00012 27.0002H25.0001C26.3257 26.9987 27.5966 26.4714 28.5339 25.534C29.4713 24.5967 29.9986 23.3258 30.0001 22.0002V10.0002C29.9986 8.67462 29.4713 7.40375 28.5339 6.46641C27.5966 5.52907 26.3257 5.00178 25.0001 5.00022ZM28.0001 10.0002V15.0002H21.0001V7.00022H25.0001C25.7955 7.00109 26.5581 7.31744 27.1205 7.87986C27.6829 8.44228 27.9993 9.20484 28.0001 10.0002ZM13.0001 15.0002V7.00022H19.0001V15.0002H13.0001ZM19.0001 17.0002V25.0002H13.0001V17.0002H19.0001ZM4.00012 10.0002C4.00099 9.20484 4.31734 8.44228 4.87976 7.87986C5.44218 7.31744 6.20474 7.00109 7.00012 7.00022H11.0001V15.0002H4.00012V10.0002ZM4.00012 22.0002V17.0002H11.0001V25.0002H7.00012C6.20474 24.9994 5.44218 24.683 4.87976 24.1206C4.31734 23.5582 4.00099 22.7956 4.00012 22.0002ZM28.0001 22.0002C27.9993 22.7956 27.6829 23.5582 27.1205 24.1206C26.5581 24.683 25.7955 24.9994 25.0001 25.0002H21.0001V17.0002H28.0001V22.0002Z" fill="black"/>
</svg>
