<svg xmlns="http://www.w3.org/2000/svg" width="32" height="32" viewBox="0 0 32 32"><path d="M16.0148 24.0002C11.6778 24.0002 9.01484 22.8772 9.01484 22.0712C9.05175 20.9491 9.40331 19.8599 10.0294 18.9279C10.6555 17.9959 11.5309 17.2586 12.5558 16.8002L8.69784 12.9402C8.65643 13.233 8.51133 13.5012 8.28891 13.6961C8.0665 13.891 7.78154 13.9996 7.48584 14.0022C7.1544 14.0019 6.83661 13.8702 6.60225 13.6358C6.36789 13.4014 6.2361 13.0837 6.23584 12.7522C6.23836 12.4568 6.34669 12.1721 6.54117 11.9497C6.73565 11.7274 7.0034 11.5821 7.29584 11.5402L5.76284 10.0072C5.38894 10.2386 5.06632 10.544 4.81479 10.9047C4.56326 11.2654 4.38814 11.6737 4.3002 12.1045C4.21225 12.5353 4.21334 12.9796 4.30339 13.41C4.39344 13.8404 4.57055 14.2478 4.82384 14.6072C4.00173 14.9705 3.29908 15.5588 2.79693 16.3042C2.29478 17.0496 2.01361 17.9219 1.98584 18.8202C1.98584 19.4962 2.35184 20.4172 4.09384 20.9602C5.05684 21.2332 6.05284 21.3772 7.05384 21.3892C7.03016 21.6158 7.01714 21.8434 7.01484 22.0712C7.01484 23.0332 7.56884 24.3602 10.2048 25.2182C12.0918 25.7692 14.0498 26.0332 16.0148 26.0002C17.7478 26.0162 19.4748 25.8142 21.1568 25.4002L19.4828 23.7272C18.3368 23.9152 17.1768 24.0062 16.0148 24.0002ZM7.53184 19.4002L7.48584 19.4012C6.27988 19.5036 5.06912 19.27 3.98784 18.7262C4.04784 17.2162 5.59384 16.0012 7.48584 16.0012C8.18956 15.9976 8.88216 16.1768 9.49584 16.5212C8.63696 17.3248 7.96629 18.3082 7.53184 19.4012V19.4002ZM24.6878 23.2732C24.9028 22.9092 25.0158 22.4932 25.0148 22.0712C25.0148 21.8412 24.9978 21.6152 24.9768 21.3902C26.5938 21.3402 30.0138 20.9782 30.0138 18.8172C29.986 17.9189 29.7047 17.0467 29.2026 16.3013C28.7005 15.5559 27.9979 14.9676 27.1758 14.6042C27.5169 14.1172 27.7179 13.5459 27.7569 12.9526C27.7958 12.3593 27.6712 11.7667 27.3967 11.2392C27.1222 10.7118 26.7083 10.2698 26.1999 9.96133C25.6916 9.65286 25.1084 9.48974 24.5138 9.48974C23.9192 9.48974 23.3361 9.65286 22.8277 9.96133C22.3194 10.2698 21.9055 10.7118 21.631 11.2392C21.3564 11.7667 21.2319 12.3593 21.2708 12.9526C21.3098 13.5459 21.5107 14.1172 21.8518 14.6042C21.4858 14.7842 21.1408 15.0042 20.8228 15.2602C20.3837 15.0082 19.9249 14.7921 19.4508 14.6142C20.0145 14.0824 20.4465 13.4265 20.7127 12.6987C20.9789 11.9709 21.0719 11.1911 20.9843 10.4211C20.8968 9.65111 20.6311 8.91209 20.2083 8.2626C19.7855 7.61312 19.2173 7.07103 18.5486 6.6793C17.88 6.28757 17.1293 6.05696 16.356 6.00575C15.5827 5.95454 14.8082 6.08414 14.0937 6.38427C13.3792 6.68441 12.7444 7.14683 12.2397 7.73489C11.735 8.32295 11.3742 9.02048 11.1858 9.77221L3.70684 2.29221C3.61393 2.19937 3.50364 2.12573 3.38227 2.07551C3.26091 2.02529 3.13083 1.99947 2.99949 1.99951C2.86814 1.99956 2.73808 2.02548 2.61675 2.07578C2.49542 2.12609 2.38518 2.1998 2.29234 2.29271C2.1995 2.38562 2.12586 2.49591 2.07564 2.61728C2.02542 2.73865 1.99959 2.86872 1.99964 3.00007C1.99968 3.13142 2.0256 3.26147 2.07591 3.3828C2.12622 3.50413 2.19993 3.61437 2.29284 3.70721L28.2928 29.7072C28.4814 29.8894 28.734 29.9902 28.9962 29.9879C29.2584 29.9856 29.5093 29.8804 29.6947 29.695C29.8801 29.5096 29.9852 29.2588 29.9875 28.9966C29.9898 28.7344 29.889 28.4818 29.7068 28.2932L24.6868 23.2732H24.6878ZM24.5138 11.5002C24.6821 11.4935 24.8499 11.5208 25.0073 11.5805C25.1647 11.6403 25.3085 11.7312 25.4299 11.8478C25.5513 11.9645 25.6479 12.1044 25.7138 12.2593C25.7798 12.4142 25.8138 12.5809 25.8138 12.7492C25.8138 12.9176 25.7798 13.0842 25.7138 13.2391C25.6479 13.394 25.5513 13.534 25.4299 13.6506C25.3085 13.7672 25.1647 13.8582 25.0073 13.9179C24.8499 13.9776 24.6821 14.0049 24.5138 13.9982C24.1912 13.9853 23.8861 13.8481 23.6624 13.6152C23.4388 13.3824 23.3138 13.0721 23.3138 12.7492C23.3138 12.4263 23.4388 12.116 23.6624 11.8832C23.8861 11.6504 24.1912 11.5131 24.5138 11.5002ZM22.5198 16.5102C23.1299 16.1722 23.8165 15.9966 24.5138 16.0002C26.4058 16.0002 27.9508 17.2142 28.0118 18.7252C26.9304 19.2684 25.7197 19.5017 24.5138 19.3992H24.4968C24.0598 18.3015 23.3845 17.3144 22.5198 16.5092V16.5102ZM22.9858 21.5732L17.5698 16.1572C18.9339 16.3602 20.1966 16.9962 21.1717 17.9713C22.1469 18.9465 22.7828 20.2092 22.9858 21.5732ZM13.0158 11.0002C13.0083 10.367 13.199 9.74732 13.5612 9.22787C13.9234 8.70841 14.4389 8.31521 15.0356 8.10329C15.6324 7.89138 16.2804 7.87136 16.8891 8.04603C17.4978 8.22071 18.0366 8.58134 18.4301 9.07745C18.8237 9.57355 19.0522 10.1803 19.0838 10.8128C19.1154 11.4452 18.9485 12.0717 18.6063 12.6046C18.2642 13.1374 17.764 13.55 17.1758 13.7845C16.5876 14.0189 15.9407 14.0636 15.3258 13.9122L13.1018 11.6882C13.0461 11.4631 13.0169 11.2322 13.0148 11.0002H13.0158Z"/></svg>