<svg width="32" height="32" viewBox="0 0 32 32" fill="none" xmlns="http://www.w3.org/2000/svg">
<path d="M24.9995 5.25022H6.99951C5.74017 5.25165 4.53282 5.75255 3.64233 6.64304C2.75185 7.53353 2.25094 8.74088 2.24951 10.0002V22.0002C2.25094 23.2596 2.75185 24.4669 3.64233 25.3574C4.53282 26.2479 5.74017 26.7488 6.99951 26.7502H24.9995C26.2589 26.7488 27.4662 26.2479 28.3567 25.3574C29.2472 24.4669 29.7481 23.2596 29.7495 22.0002V10.0002C29.7481 8.74088 29.2472 7.53353 28.3567 6.64304C27.4662 5.75255 26.2589 5.25165 24.9995 5.25022ZM19.2515 6.75022V25.2502H12.7515V6.75022H19.2515ZM3.74951 22.0002V10.0002C3.75051 9.13857 4.09324 8.3125 4.70252 7.70323C5.31179 7.09395 6.13786 6.75122 6.99951 6.75022H11.2515V25.2502H6.99951C6.13786 25.2492 5.31179 24.9065 4.70252 24.2972C4.09324 23.6879 3.75051 22.8619 3.74951 22.0002ZM28.2495 22.0002C28.2485 22.8619 27.9058 23.6879 27.2965 24.2972C26.6872 24.9065 25.8612 25.2492 24.9995 25.2502H20.7515V6.75022H24.9995C25.8612 6.75122 26.6872 7.09395 27.2965 7.70323C27.9058 8.3125 28.2485 9.13857 28.2495 10.0002V22.0002Z" fill="black"/>
</svg>
