<svg width="32" height="32" viewBox="0 0 32 32" fill="none" xmlns="http://www.w3.org/2000/svg">
<path d="M4.5 13V24C4.5013 25.1931 4.97582 26.3369 5.81945 27.1805C6.66308 28.0242 7.80692 28.4987 9 28.5H23C24.1931 28.4987 25.3369 28.0242 26.1805 27.1805C27.0242 26.3369 27.4987 25.1931 27.5 24V13H4.5Z" fill="black"/>
<path d="M23 5.5V3C23 2.73478 22.8946 2.48043 22.7071 2.29289C22.5196 2.10536 22.2652 2 22 2C21.7348 2 21.4804 2.10536 21.2929 2.29289C21.1054 2.48043 21 2.73478 21 3V5.5H11V3.0159C11 2.75068 10.8946 2.49633 10.7071 2.30879C10.5196 2.12126 10.2652 2.0159 10 2.0159C9.73478 2.0159 9.48043 2.12126 9.29289 2.30879C9.10536 2.49633 9 2.75068 9 3.0159V5.5C7.80692 5.5013 6.66308 5.97582 5.81945 6.81945C4.97582 7.66308 4.5013 8.80692 4.5 10V11H27.5V10C27.4987 8.80693 27.0241 7.66311 26.1805 6.81948C25.3369 5.97585 24.1931 5.50132 23 5.5Z" fill="black"/>
</svg>
