<svg xmlns="http://www.w3.org/2000/svg" width="32" height="32" viewBox="0 0 32 32"><path d="M5.25 8a5.75 5.75 0 1 1 11.5 0v10a5.751 5.751 0 0 1-4.957 5.696c.117.935.477 1.93 1.203 2.741.894.999 2.423 1.813 5.004 1.813h1a.75.75 0 0 1 0 1.5H3a.75.75 0 0 1 0-1.5h9.765a6.107 6.107 0 0 1-.886-.812c-1.015-1.135-1.471-2.504-1.594-3.732A5.751 5.751 0 0 1 5.25 18V8ZM11 22.25A4.25 4.25 0 0 0 15.25 18V8a4.25 4.25 0 0 0-8.5 0v10A4.25 4.25 0 0 0 11 22.25ZM24.5 8.25a.75.75 0 0 1 .75.75v3.75H29a.75.75 0 0 1 0 1.5h-3.75V18a.75.75 0 0 1-1.5 0v-3.75H20a.75.75 0 0 1 0-1.5h3.75V9a.75.75 0 0 1 .75-.75Z"/></svg>