<svg xmlns="http://www.w3.org/2000/svg" width="32" height="32" viewBox="0 0 32 32"><path d="M24.0029 28.5H22.0229C20.6372 28.5324 19.2928 28.0268 18.2719 27.0894C17.2509 26.1519 16.6327 24.8554 16.5469 23.472C17.7778 23.3434 18.9286 22.8008 19.8109 21.933L19.1139 21.236C18.4798 21.8503 17.6786 22.264 16.8106 22.4254C15.9426 22.5867 15.0462 22.4886 14.2337 22.1433C13.4211 21.7979 12.7284 21.2207 12.2422 20.4838C11.756 19.7468 11.4978 18.8829 11.4999 18V13.622L10.4999 12.622V18C10.502 19.3757 11.019 20.7008 11.9492 21.7143C12.8795 22.7278 14.1555 23.3563 15.5259 23.476C15.5898 24.4903 15.894 25.4748 16.4134 26.3483C16.9327 27.2219 17.6524 27.9594 18.5129 28.5H8.00295C7.87034 28.5 7.74316 28.5527 7.64939 28.6464C7.55563 28.7402 7.50295 28.8674 7.50295 29C7.50295 29.1326 7.55563 29.2598 7.64939 29.3536C7.74316 29.4473 7.87034 29.5 8.00295 29.5H24.0029C24.1356 29.5 24.2627 29.4473 24.3565 29.3536C24.4503 29.2598 24.5029 29.1326 24.5029 29C24.5029 28.8674 24.4503 28.7402 24.3565 28.6464C24.2627 28.5527 24.1356 28.5 24.0029 28.5ZM28.3539 27.646L20.9789 20.271C21.3189 19.561 21.4959 18.786 21.4999 18V8C21.4999 6.54131 20.9205 5.14236 19.889 4.11091C18.8576 3.07946 17.4586 2.5 15.9999 2.5C14.5413 2.5 13.1423 3.07946 12.1109 4.11091C11.0794 5.14236 10.4999 6.54131 10.4999 8V9.793L4.35395 3.646C4.25965 3.55492 4.13335 3.50452 4.00225 3.50566C3.87115 3.5068 3.74574 3.55939 3.65304 3.65209C3.56033 3.74479 3.50775 3.8702 3.50661 4.0013C3.50547 4.1324 3.55587 4.2587 3.64695 4.353L27.6469 28.353C27.6931 28.4008 27.7482 28.4388 27.8092 28.4651C27.8702 28.4913 27.9359 28.505 28.0022 28.5056C28.0686 28.5062 28.1345 28.4936 28.1959 28.4684C28.2574 28.4433 28.3132 28.4061 28.3601 28.3592C28.4071 28.3123 28.4442 28.2564 28.4694 28.195C28.4945 28.1335 28.5072 28.0677 28.5066 28.0013C28.506 27.9349 28.4922 27.8693 28.466 27.8083C28.4398 27.7473 28.4017 27.6921 28.3539 27.646ZM11.4999 10.793V8C11.4999 6.80653 11.9741 5.66193 12.818 4.81802C13.6619 3.97411 14.8065 3.5 15.9999 3.5C17.1934 3.5 18.338 3.97411 19.1819 4.81802C20.0258 5.66193 20.4999 6.80653 20.4999 8V18C20.497 18.5173 20.4033 19.0301 20.2229 19.515L11.4999 10.793Z"/></svg>