<svg width="32" height="32" fill="none" xmlns="http://www.w3.org/2000/svg"><path fill-rule="evenodd" clip-rule="evenodd" d="M25.6374 8.0192A.5.5 0 0 0 25 8.5v5.7639a2.989 2.989 0 0 0-2-.7639c-1.6569 0-3 1.3431-3 3s1.3431 3 3 3 3-1.3431 3-3V9.1629l2.8626.8179a.5.5 0 0 0 .2748-.9616l-3.5-1ZM25 16.5c0-1.1046-.8954-2-2-2s-2 .8954-2 2 .8954 2 2 2 2-.8954 2-2Z" fill="#0F0F0F"/><path d="M19.0024 28.5003H17.023a5.361 5.361 0 0 1-5.4756-5.0277 5.508 5.508 0 0 0 4.9531-5.4723v-10a5.5002 5.5002 0 0 0-5.5-5.5 5.5 5.5 0 0 0-5.5 5.5v10a5.5057 5.5057 0 0 0 5.0253 5.476 6.4097 6.4097 0 0 0 2.9869 5.024H3.0024a.5002.5002 0 0 0-.5.5.5002.5002 0 0 0 .5.5h16a.5.5 0 1 0 0-1Zm-12.502-13.512v-2.488h9.0001v2.488h-9Zm4.5001-11.488a4.5047 4.5047 0 0 1 4.5 4.5v3.5h-9v-3.5a4.5049 4.5049 0 0 1 4.5-4.5Z" fill="#0F0F0F"/><path d="M15.5 11.5h-9v1h9v-1ZM15.5 15h-9v3c0 2.2091 1.7909 4 4 4h1c2.2091 0 4-1.7909 4-4v-3Z" fill="#27A17A"/></svg>