<svg xmlns="http://www.w3.org/2000/svg" width="32" height="32" viewBox="0 0 32 32"><path d="M24.0019 28H22.0229C20.843 28.0291 19.6925 27.6292 18.7849 26.8745C17.8774 26.1198 17.2744 25.0615 17.0879 23.896C18.466 23.6407 19.7113 22.9116 20.6084 21.8348C21.5054 20.758 21.9977 19.4015 21.9999 18V8C21.9999 6.4087 21.3678 4.88258 20.2426 3.75736C19.1174 2.63214 17.5912 2 15.9999 2C14.4086 2 12.8825 2.63214 11.7573 3.75736C10.6321 4.88258 9.99993 6.4087 9.99993 8V18C10.0024 19.4282 10.5139 20.8087 11.4426 21.8937C12.3712 22.9787 13.6563 23.6971 15.0669 23.92C15.2552 25.4664 15.9599 26.904 17.0669 28H8.00293C7.73771 28 7.48336 28.1054 7.29582 28.2929C7.10829 28.4804 7.00293 28.7348 7.00293 29C7.00293 29.2652 7.10829 29.5196 7.29582 29.7071C7.48336 29.8946 7.73771 30 8.00293 30H24.0029C24.2681 30 24.5225 29.8946 24.71 29.7071C24.8976 29.5196 25.0029 29.2652 25.0029 29C25.0029 28.7348 24.8976 28.4804 24.71 28.2929C24.5225 28.1054 24.2681 28 24.0029 28H24.0019ZM11.9999 18V8C11.9999 6.93913 12.4214 5.92172 13.1715 5.17157C13.9216 4.42143 14.9391 4 15.9999 4C17.0608 4 18.0782 4.42143 18.8284 5.17157C19.5785 5.92172 19.9999 6.93913 19.9999 8V18C19.9999 19.0609 19.5785 20.0783 18.8284 20.8284C18.0782 21.5786 17.0608 22 15.9999 22C14.9391 22 13.9216 21.5786 13.1715 20.8284C12.4214 20.0783 11.9999 19.0609 11.9999 18Z"/></svg>