<svg width="32" height="32" viewBox="0 0 32 32" fill="none" xmlns="http://www.w3.org/2000/svg">
<path d="M24.0021 28H22.0231C20.8431 28.0291 19.6926 27.6292 18.7851 26.8745C17.8775 26.1198 17.2746 25.0615 17.0881 23.896C18.4661 23.6407 19.7115 22.9116 20.6085 21.8348C21.5056 20.758 21.9978 19.4015 22.0001 18V8C22.0001 6.4087 21.3679 4.88258 20.2427 3.75736C19.1175 2.63214 17.5914 2 16.0001 2C14.4088 2 12.8826 2.63214 11.7574 3.75736C10.6322 4.88258 10.0001 6.4087 10.0001 8V18C10.0025 19.4282 10.514 20.8087 11.4427 21.8937C12.3714 22.9787 13.6564 23.6971 15.0671 23.92C15.2553 25.4664 15.96 26.904 17.0671 28H8.00305C7.73784 28 7.48348 28.1054 7.29595 28.2929C7.10841 28.4804 7.00305 28.7348 7.00305 29C7.00305 29.2652 7.10841 29.5196 7.29595 29.7071C7.48348 29.8946 7.73784 30 8.00305 30H24.0031C24.2683 30 24.5226 29.8946 24.7102 29.7071C24.8977 29.5196 25.0031 29.2652 25.0031 29C25.0031 28.7348 24.8977 28.4804 24.7102 28.2929C24.5226 28.1054 24.2683 28 24.0031 28H24.0021ZM12.0001 18V8C12.0001 6.93913 12.4215 5.92172 13.1716 5.17157C13.9218 4.42143 14.9392 4 16.0001 4C17.0609 4 18.0783 4.42143 18.8285 5.17157C19.5786 5.92172 20.0001 6.93913 20.0001 8V18C20.0001 19.0609 19.5786 20.0783 18.8285 20.8284C18.0783 21.5786 17.0609 22 16.0001 22C14.9392 22 13.9218 21.5786 13.1716 20.8284C12.4215 20.0783 12.0001 19.0609 12.0001 18Z" fill="#0F0F0F"/>
</svg>
