<svg width="32" height="32" viewBox="0 0 32 32" fill="none" xmlns="http://www.w3.org/2000/svg">
<path d="M24.0025 28.4997H22.0235C20.6378 28.5321 19.2935 28.0265 18.2725 27.0891C17.2515 26.1517 16.6333 24.8554 16.5474 23.472C17.7781 23.3433 18.9288 22.8008 19.8111 21.9331L19.1136 21.2356C18.4794 21.8496 17.6783 22.263 16.8104 22.4242C15.9425 22.5854 15.0463 22.4873 14.2339 22.142C13.4215 21.7967 12.7289 21.2196 12.2427 20.4829C11.7564 19.7462 11.4981 18.8825 11.5 17.9997V13.622L10.5 12.622V17.9997C10.5021 19.3754 11.0191 20.7004 11.9493 21.7139C12.8795 22.7274 14.1554 23.356 15.5258 23.4758C15.5897 24.49 15.8939 25.4745 16.4133 26.3481C16.9326 27.2216 17.6523 27.9591 18.5128 28.4997H8.00247C7.86986 28.4997 7.74269 28.5524 7.64892 28.6462C7.55515 28.74 7.50247 28.8671 7.50247 28.9997C7.50247 29.1324 7.55515 29.2595 7.64892 29.3533C7.74269 29.4471 7.86986 29.4997 8.00247 29.4997H24.0025C24.1351 29.4997 24.2623 29.4471 24.356 29.3533C24.4498 29.2595 24.5025 29.1324 24.5025 28.9997C24.5025 28.8671 24.4498 28.74 24.356 28.6462C24.2623 28.5524 24.1351 28.4997 24.0025 28.4997Z" fill="black"/>
<path d="M28.354 27.6462L20.9792 20.2715C21.3182 19.5619 21.496 18.7861 21.5 17.9997V7.99973C21.5 7.27746 21.3578 6.56226 21.0814 5.89497C20.805 5.22768 20.3998 4.62136 19.8891 4.11064C19.3784 3.59992 18.7721 3.19479 18.1048 2.91839C17.4375 2.64199 16.7223 2.49973 16 2.49973C15.2778 2.49973 14.5626 2.64199 13.8953 2.91839C13.228 3.19479 12.6217 3.59992 12.1109 4.11064C11.6002 4.62136 11.1951 5.22768 10.9187 5.89497C10.6423 6.56226 10.5 7.27746 10.5 7.99973V9.79258L4.35354 3.64622C4.25946 3.55403 4.13281 3.50268 4.00109 3.50335C3.86937 3.50401 3.74323 3.55663 3.65009 3.64977C3.55695 3.74291 3.50433 3.86905 3.50367 4.00077C3.503 4.13248 3.55435 4.25914 3.64654 4.35322L27.647 28.3532C27.6933 28.4004 27.7484 28.438 27.8093 28.4637C27.8701 28.4895 27.9355 28.5029 28.0016 28.5032C28.0677 28.5036 28.1331 28.4908 28.1943 28.4657C28.2554 28.4405 28.3109 28.4035 28.3576 28.3568C28.4043 28.3101 28.4413 28.2546 28.4665 28.1934C28.4916 28.1323 28.5044 28.0668 28.504 28.0008C28.5037 27.9347 28.4903 27.8693 28.4645 27.8085C28.4388 27.7476 28.4012 27.6925 28.354 27.6462ZM11.5 10.7926V7.99973C11.5 6.80626 11.9741 5.66166 12.8181 4.81775C13.662 3.97384 14.8066 3.49973 16 3.49973C17.1935 3.49973 18.3381 3.97384 19.182 4.81775C20.0259 5.66166 20.5 6.80626 20.5 7.99973V17.9997C20.4972 18.5173 20.4034 19.0303 20.223 19.5154L11.5 10.7926Z" fill="black"/>
</svg>
