<svg xmlns="http://www.w3.org/2000/svg" width="32" height="32" viewBox="0 0 32 32"><path d="M24.0019 28H22.0219C20.8421 28.0289 19.6919 27.6289 18.7846 26.8742C17.8772 26.1195 17.2744 25.0613 17.0879 23.896C17.747 23.7727 18.3806 23.5391 18.9619 23.205L17.4689 21.712C16.8631 21.9556 16.2068 22.0465 15.5576 21.9768C14.9084 21.9071 14.2863 21.6789 13.7461 21.3122C13.2058 20.9455 12.764 20.4516 12.4595 19.8741C12.155 19.2965 11.9972 18.6529 11.9999 18V16.242L9.99992 14.242V18C10.0024 19.4283 10.5141 20.8089 11.4429 21.894C12.3718 22.979 13.6571 23.6973 15.0679 23.92C15.2561 25.4664 15.9608 26.904 17.0679 28H8.00292C7.7377 28 7.48335 28.1054 7.29581 28.2929C7.10828 28.4804 7.00292 28.7348 7.00292 29C7.00292 29.2652 7.10828 29.5196 7.29581 29.7071C7.48335 29.8946 7.7377 30 8.00292 30H24.0029C24.2681 30 24.5225 29.8946 24.71 29.7071C24.8976 29.5196 25.0029 29.2652 25.0029 29C25.0029 28.7348 24.8976 28.4804 24.71 28.2929C24.5225 28.1054 24.2681 28 24.0029 28H24.0019ZM28.7069 27.293L21.5859 20.171C21.8593 19.4798 21.9998 18.7433 21.9999 18V8C21.9999 6.4087 21.3678 4.88258 20.2426 3.75736C19.1173 2.63214 17.5912 2 15.9999 2C14.4086 2 12.8825 2.63214 11.7573 3.75736C10.6321 4.88258 9.99992 6.4087 9.99992 8V8.586L4.70692 3.293C4.51832 3.11084 4.26571 3.01005 4.00352 3.01233C3.74132 3.0146 3.49051 3.11977 3.3051 3.30518C3.11969 3.49059 3.01452 3.7414 3.01224 4.0036C3.00997 4.2658 3.11076 4.5184 3.29292 4.707L27.2929 28.707C27.4815 28.8892 27.7341 28.99 27.9963 28.9877C28.2585 28.9854 28.5093 28.8802 28.6947 28.6948C28.8801 28.5094 28.9853 28.2586 28.9876 27.9964C28.9899 27.7342 28.8891 27.4816 28.7069 27.293ZM19.9999 18C19.9969 18.18 19.9799 18.36 19.9519 18.537L11.9999 10.586V8C11.9999 6.93913 12.4213 5.92172 13.1715 5.17157C13.9216 4.42143 14.9391 4 15.9999 4C17.0608 4 18.0782 4.42143 18.8283 5.17157C19.5785 5.92172 19.9999 6.93913 19.9999 8V18Z"/></svg>