<svg width="32" height="32" viewBox="0 0 32 32" xmlns="http://www.w3.org/2000/svg">
<g id="microphone-hard-muted-colored-bold" stroke="none" stroke-width="1">
<path d="M17.2926 23.7068C17.4801 23.8943 17.7344 23.9996 17.9996 23.9996C18.2648 23.9996 18.5191 23.8943 18.7066 23.7068C18.8941 23.5192 18.9995 23.2649 18.9995 22.9997C18.9995 22.7345 18.8941 22.4802 18.7066 22.2927L16.5849 20.171C16.8586 19.4798 16.9993 18.7431 16.9996 17.9997V7.99973C16.9996 6.40843 16.3675 4.8823 15.2422 3.75708C14.117 2.63187 12.5909 1.99973 10.9996 1.99973C9.4083 1.99973 7.88218 2.63187 6.75696 3.75708C5.63174 4.8823 4.9996 6.40843 4.9996 7.99973V8.58567L3.7066 7.29267C3.51908 7.10515 3.26475 6.99981 2.99957 6.99982C2.73438 6.99982 2.48006 7.10518 2.29254 7.2927C2.10503 7.48022 1.99969 7.73454 1.9997 7.99973C1.9997 8.26492 2.10505 8.51924 2.29257 8.70676L17.2926 23.7068ZM6.9996 7.99973C6.9996 6.93886 7.42103 5.92144 8.17118 5.1713C8.92132 4.42115 9.93874 3.99973 10.9996 3.99973C12.0605 3.99973 13.0779 4.42115 13.828 5.1713C14.5782 5.92144 14.9996 6.93886 14.9996 7.99973V17.9997C14.996 18.1797 14.9798 18.3592 14.9508 18.5369L6.9996 10.5857V7.99973Z" fill="#DB1F2E"/>
<path d="M18.9996 27.9997H17.0211C15.8411 28.0289 14.6905 27.6292 13.7828 26.8746C12.8751 26.12 12.2719 25.0618 12.085 23.8963C12.7456 23.7731 13.3806 23.539 13.9631 23.204L12.4705 21.7114C11.8646 21.9554 11.2081 22.0467 10.5587 21.9772C9.90922 21.9077 9.28684 21.6796 8.74635 21.3129C8.20585 20.9462 7.76383 20.4522 7.45923 19.8744C7.15462 19.2967 6.99678 18.6529 6.9996 17.9997V16.2404L4.9996 14.2404V17.9997C5.00207 19.4275 5.51325 20.8076 6.44142 21.8924C7.36958 22.9773 8.65397 23.6959 10.0641 23.9193C10.2524 25.466 10.9575 26.9038 12.065 27.9997H2.9996C2.73439 27.9997 2.48003 28.1051 2.2925 28.2926C2.10496 28.4802 1.9996 28.7345 1.9996 28.9997C1.9996 29.2649 2.10496 29.5193 2.2925 29.7068C2.48003 29.8944 2.73439 29.9997 2.9996 29.9997H18.9996C19.2648 29.9997 19.5192 29.8944 19.7067 29.7068C19.8942 29.5193 19.9996 29.2649 19.9996 28.9997C19.9996 28.7345 19.8942 28.4802 19.7067 28.2926C19.5192 28.1051 19.2648 27.9997 18.9996 27.9997Z" fill="#DB1F2E"/>
<path d="M27.9995 10.9997V9.99973C27.9995 9.20408 27.6834 8.44101 27.1208 7.87841C26.5582 7.3158 25.7952 6.99973 24.9995 6.99973C24.2039 6.99973 23.4408 7.3158 22.8782 7.87841C22.3156 8.44101 21.9995 9.20408 21.9995 9.99973V10.9997C21.4693 11.0004 20.961 11.2113 20.5861 11.5863C20.2111 11.9612 20.0002 12.4695 19.9995 12.9997V16.9997C20.0002 17.5299 20.2111 18.0383 20.5861 18.4132C20.961 18.7881 21.4693 18.999 21.9995 18.9997H27.9995C28.5297 18.999 29.038 18.7881 29.413 18.4132C29.7879 18.0383 29.9988 17.5299 29.9995 16.9997V12.9997C29.9988 12.4695 29.7879 11.9612 29.413 11.5863C29.038 11.2113 28.5297 11.0004 27.9995 10.9997ZM23.9995 9.99973C23.9995 9.73451 24.1049 9.48016 24.2924 9.29262C24.4799 9.10508 24.7343 8.99973 24.9995 8.99973C25.2647 8.99973 25.5191 9.10508 25.7066 9.29262C25.8942 9.48016 25.9995 9.73451 25.9995 9.99973V10.9997H23.9995V9.99973ZM21.9995 16.9997V12.9997H27.9995L28.0015 16.9997H21.9995Z"/>
</g>
</svg>