<svg xmlns="http://www.w3.org/2000/svg" width="32" height="32" viewBox="0 0 32 32" fill="none"><path d="M24.0022 28.4997H22.0232C20.6376 28.5321 19.2932 28.0265 18.2723 27.0891C17.2513 26.1517 16.633 24.8554 16.5471 23.472C17.7779 23.3433 18.9285 22.8008 19.8108 21.9331L19.1133 21.2356C18.4791 21.8496 17.678 22.263 16.8101 22.4242C15.9422 22.5854 15.0461 22.4873 14.2337 22.142C13.4213 21.7967 12.7287 21.2196 12.2424 20.4829C11.7562 19.7462 11.4978 18.8825 11.4998 17.9997V13.622L10.4998 12.622V17.9997C10.5018 19.3754 11.0189 20.7004 11.949 21.7139C12.8792 22.7274 14.1551 23.356 15.5256 23.4758C15.5895 24.49 15.8937 25.4745 16.413 26.3481C16.9324 27.2216 17.652 27.9591 18.5126 28.4997H8.00223C7.86962 28.4997 7.74244 28.5524 7.64867 28.6462C7.55491 28.74 7.50223 28.8671 7.50223 28.9997C7.50223 29.1324 7.55491 29.2595 7.64867 29.3533C7.74244 29.4471 7.86962 29.4997 8.00223 29.4997H24.0022C24.1348 29.4997 24.262 29.4471 24.3558 29.3533C24.4496 29.2595 24.5022 29.1324 24.5022 28.9997C24.5022 28.8671 24.4496 28.74 24.3558 28.6462C24.262 28.5524 24.1348 28.4997 24.0022 28.4997Z M28.3538 27.6462L20.9789 20.2715C21.3179 19.5619 21.4958 18.7861 21.4998 17.9997V7.99973C21.4998 7.27746 21.3575 6.56226 21.0811 5.89497C20.8047 5.22768 20.3996 4.62136 19.8889 4.11064C19.3782 3.59992 18.7718 3.19479 18.1045 2.91839C17.4373 2.64199 16.7221 2.49973 15.9998 2.49973C15.2775 2.49973 14.5623 2.64199 13.895 2.91839C13.2277 3.19479 12.6214 3.59992 12.1107 4.11064C11.6 4.62136 11.1949 5.22768 10.9184 5.89497C10.642 6.56226 10.4998 7.27746 10.4998 7.99973V9.79258L4.3533 3.64622C4.25922 3.55403 4.13256 3.50268 4.00084 3.50335C3.86912 3.50401 3.74299 3.55663 3.64985 3.64977C3.55671 3.74291 3.50409 3.86905 3.50342 4.00077C3.50276 4.13248 3.5541 4.25914 3.6463 4.35322L27.6468 28.3532C27.693 28.4004 27.7482 28.438 27.809 28.4637C27.8699 28.4895 27.9353 28.5029 28.0013 28.5032C28.0674 28.5036 28.1329 28.4908 28.194 28.4657C28.2551 28.4405 28.3107 28.4035 28.3574 28.3568C28.4041 28.3101 28.4411 28.2546 28.4662 28.1934C28.4914 28.1323 28.5041 28.0668 28.5038 28.0008C28.5035 27.9347 28.49 27.8693 28.4643 27.8085C28.4385 27.7476 28.401 27.6925 28.3538 27.6462ZM11.4998 10.7926V7.99973C11.4998 6.80626 11.9739 5.66166 12.8178 4.81775C13.6617 3.97384 14.8063 3.49973 15.9998 3.49973C17.1933 3.49973 18.3379 3.97384 19.1818 4.81775C20.0257 5.66166 20.4998 6.80626 20.4998 7.99973V17.9997C20.4969 18.5173 20.4032 19.0303 20.2228 19.5154L11.4998 10.7926Z"/></svg>