<svg width="32" height="32" viewBox="0 0 32 32" fill="none" xmlns="http://www.w3.org/2000/svg">
<path d="M24.0024 28.2497H22.0234C20.7414 28.2801 19.4948 27.8276 18.5306 26.9821C17.5664 26.1366 16.955 24.9597 16.8176 23.6847C18.1855 23.4874 19.4366 22.8044 20.3423 21.7605C21.2479 20.7167 21.7476 19.3817 21.75 17.9997V7.99973C21.75 7.24463 21.6013 6.49692 21.3123 5.7993C21.0233 5.10168 20.5998 4.4678 20.0659 3.93387C19.5319 3.39993 18.8981 2.97639 18.2004 2.68742C17.5028 2.39846 16.7551 2.24973 16 2.24973C15.2449 2.24973 14.4972 2.39846 13.7996 2.68742C13.1019 2.97639 12.4681 3.39993 11.9341 3.93387C11.4002 4.4678 10.9767 5.10168 10.6877 5.7993C10.3987 6.49692 10.25 7.24463 10.25 7.99973V17.9997C10.2522 19.4001 10.7649 20.7517 11.6922 21.8012C12.6194 22.8506 13.8975 23.526 15.2869 23.7007C15.3704 24.5829 15.6288 25.4395 16.0472 26.2206C16.4656 27.0016 17.0354 27.6915 17.7235 28.2497H8.00244C7.80353 28.2497 7.61276 28.3287 7.47211 28.4694C7.33146 28.6101 7.25244 28.8008 7.25244 28.9997C7.25244 29.1986 7.33146 29.3894 7.47211 29.5301C7.61276 29.6707 7.80353 29.7497 8.00244 29.7497H24.0024C24.2014 29.7497 24.3921 29.6707 24.5328 29.5301C24.6734 29.3894 24.7524 29.1986 24.7524 28.9997C24.7524 28.8008 24.6734 28.6101 24.5328 28.4694C24.3921 28.3287 24.2014 28.2497 24.0024 28.2497ZM11.75 17.9997V7.99973C11.75 7.44161 11.8599 6.88896 12.0735 6.37332C12.2871 5.85769 12.6001 5.38917 12.9948 4.99453C13.3894 4.59988 13.858 4.28682 14.3736 4.07324C14.8892 3.85966 15.4419 3.74973 16 3.74973C16.5581 3.74973 17.1108 3.85966 17.6264 4.07324C18.142 4.28682 18.6106 4.59988 19.0052 4.99453C19.3999 5.38917 19.7129 5.85769 19.9265 6.37332C20.1401 6.88896 20.25 7.44161 20.25 7.99973V17.9997C20.25 18.5578 20.1401 19.1105 19.9265 19.6261C19.7129 20.1418 19.3999 20.6103 19.0052 21.0049C18.6106 21.3996 18.142 21.7126 17.6264 21.9262C17.1108 22.1398 16.5581 22.2497 16 22.2497C15.4419 22.2497 14.8892 22.1398 14.3736 21.9262C13.858 21.7126 13.3894 21.3996 12.9948 21.0049C12.6001 20.6103 12.2871 20.1418 12.0735 19.6261C11.8599 19.1105 11.75 18.5578 11.75 17.9997Z" fill="black"/>
</svg>
