<svg xmlns="http://www.w3.org/2000/svg" width="32" height="32" viewBox="0 0 32 32" fill="none"><path d="M24.0024 28.2497H22.0234C20.7413 28.2801 19.4947 27.8276 18.5305 26.9821C17.5663 26.1366 16.9549 24.9597 16.8176 23.6847C17.7603 23.5448 18.653 23.1713 19.4146 22.5984L18.3516 21.5354C17.7121 21.9624 16.9685 22.2075 16.2005 22.2448C15.4324 22.282 14.6686 22.1099 13.9908 21.7469C13.3129 21.3838 12.7463 20.8435 12.3517 20.1835C11.957 19.5235 11.749 18.7687 11.75 17.9998V14.9334L10.25 13.4333V17.9997C10.2522 19.4001 10.7649 20.7517 11.6921 21.8012C12.6194 22.8506 13.8974 23.526 15.2869 23.7007C15.3703 24.5829 15.6288 25.4395 16.0472 26.2206C16.4655 27.0016 17.0354 27.6915 17.7235 28.2497H8.00238C7.80347 28.2497 7.6127 28.3287 7.47205 28.4694C7.3314 28.6101 7.25238 28.8008 7.25238 28.9997C7.25238 29.1986 7.3314 29.3894 7.47205 29.5301C7.6127 29.6707 7.80347 29.7497 8.00238 29.7497H24.0024C24.2013 29.7497 24.3921 29.6707 24.5327 29.5301C24.6734 29.3894 24.7524 29.1986 24.7524 28.9997C24.7524 28.8008 24.6734 28.6101 24.5327 28.4694C24.3921 28.3287 24.2013 28.2497 24.0024 28.2497Z M28.5307 27.4695L21.275 20.2138C21.5833 19.5161 21.745 18.7625 21.75 17.9997V7.99973C21.75 6.47473 21.1442 5.0122 20.0659 3.93387C18.9875 2.85553 17.525 2.24973 16 2.24973C14.475 2.24973 13.0125 2.85553 11.9341 3.93387C10.8558 5.0122 10.25 6.47473 10.25 7.99973V9.18906L4.53021 3.46946C4.3894 3.32967 4.19893 3.25138 4.00051 3.25174C3.80209 3.2521 3.6119 3.33108 3.4716 3.47139C3.3313 3.61169 3.25232 3.80188 3.25195 4.00029C3.25159 4.19871 3.32988 4.38919 3.46967 4.53L27.4702 28.53C27.6109 28.6702 27.8015 28.7488 28.0001 28.7486C28.1988 28.7484 28.3892 28.6694 28.5297 28.529C28.6701 28.3885 28.7491 28.1981 28.7493 27.9994C28.7495 27.8008 28.6709 27.6102 28.5307 27.4695ZM11.7499 10.6891V7.99973C11.7499 6.87256 12.1977 5.79155 12.9947 4.99453C13.7918 4.1975 14.8728 3.74973 15.9999 3.74973C17.1271 3.74973 18.2081 4.1975 19.0051 4.99453C19.8022 5.79155 20.2499 6.87256 20.2499 7.99973V17.9997C20.246 18.3521 20.1967 18.7025 20.1033 19.0422L11.7499 10.6891Z"/></svg>