<svg width="32" height="32" viewBox="0 0 32 32" fill="none" xmlns="http://www.w3.org/2000/svg">
<path d="M24.002 28H22.022C20.7567 28.0295 19.5296 27.5659 18.5999 26.7071C17.6702 25.8483 17.1108 24.6617 17.04 23.398C17.5829 23.2896 18.106 23.0987 18.591 22.832L10.502 14.743V18C10.5044 19.2875 10.9579 20.5335 11.7837 21.5214C12.6094 22.5092 13.7553 23.1764 15.022 23.407C15.106 25.1399 15.8359 26.7786 17.068 28H8.00204C7.73682 28 7.48247 28.1054 7.29493 28.2929C7.1074 28.4804 7.00204 28.7348 7.00204 29C7.00204 29.2652 7.1074 29.5196 7.29493 29.7071C7.48247 29.8946 7.73682 30 8.00204 30H24.002C24.2673 30 24.5216 29.8946 24.7091 29.7071C24.8967 29.5196 25.002 29.2652 25.002 29C25.002 28.7348 24.8967 28.4804 24.7091 28.2929C24.5216 28.1054 24.2673 28 24.002 28V28ZM28.707 27.293L21.2 19.785C21.4 19.211 21.502 18.607 21.503 18V8C21.503 7.27773 21.3608 6.56253 21.0844 5.89524C20.808 5.22795 20.4029 4.62164 19.8921 4.11091C19.3814 3.60019 18.7751 3.19506 18.1078 2.91866C17.4405 2.64226 16.7253 2.5 16.003 2.5C15.2808 2.5 14.5656 2.64226 13.8983 2.91866C13.231 3.19506 12.6247 3.60019 12.114 4.11091C11.6032 4.62164 11.1981 5.22795 10.9217 5.89524C10.6453 6.56253 10.503 7.27773 10.503 8V9.088L4.70704 3.293C4.51844 3.11084 4.26584 3.01005 4.00364 3.01233C3.74144 3.0146 3.49063 3.11977 3.30522 3.30518C3.11981 3.49059 3.01465 3.7414 3.01237 4.0036C3.01009 4.2658 3.11088 4.5184 3.29304 4.707L27.293 28.707C27.4816 28.8892 27.7342 28.99 27.9964 28.9877C28.2586 28.9854 28.5095 28.8802 28.6949 28.6948C28.8803 28.5094 28.9854 28.2586 28.9877 27.9964C28.99 27.7342 28.8892 27.4816 28.707 27.293Z" fill="#0F0F0F"/>
</svg>
