<svg width="32" height="32" viewBox="0 0 32 32" fill="none" xmlns="http://www.w3.org/2000/svg">
<path d="M24.0024 27.9997H22.0234C20.7581 28.0294 19.5308 27.5659 18.6009 26.7073C17.671 25.8486 17.1115 24.662 17.0404 23.3983C18.295 23.1558 19.4261 22.4846 20.2402 21.4997C21.0542 20.5148 21.5004 19.2775 21.5024 17.9997V7.99973C21.5024 6.54103 20.923 5.14209 19.8915 4.11064C18.8601 3.07919 17.4611 2.49973 16.0024 2.49973C14.5438 2.49973 13.1448 3.07919 12.1134 4.11064C11.0819 5.14209 10.5024 6.54103 10.5024 7.99973V17.9997C10.5047 19.2874 10.9581 20.5335 11.7839 21.5214C12.6097 22.5094 13.7556 23.1767 15.0224 23.4073C15.1062 25.1399 15.8359 26.7783 17.0677 27.9997H8.00244C7.73723 27.9997 7.48287 28.1051 7.29533 28.2926C7.1078 28.4802 7.00244 28.7345 7.00244 28.9997C7.00244 29.2649 7.1078 29.5193 7.29533 29.7068C7.48287 29.8944 7.73723 29.9997 8.00244 29.9997H24.0024C24.2677 29.9997 24.522 29.8944 24.7095 29.7068C24.8971 29.5193 25.0024 29.2649 25.0024 28.9997C25.0024 28.7345 24.8971 28.4802 24.7095 28.2926C24.522 28.1051 24.2677 27.9997 24.0024 27.9997Z" fill="black"/>
</svg>
