<svg xmlns="http://www.w3.org/2000/svg" width="32" height="32" viewBox="0 0 32 32"><path d="M5.5 8a5.5 5.5 0 1 1 11 0v10a5.5 5.5 0 0 1-4.98 5.476c.084 1.045.458 2.198 1.29 3.128.95 1.062 2.553 1.896 5.19 1.896h1a.5.5 0 0 1 0 1H3a.5.5 0 0 1 0-1h10.607a5.97 5.97 0 0 1-1.542-1.23c-1.028-1.148-1.461-2.555-1.548-3.79A5.5 5.5 0 0 1 5.5 18V8ZM11 22.5a4.5 4.5 0 0 0 4.5-4.5V8a4.5 4.5 0 1 0-9 0v10a4.5 4.5 0 0 0 4.5 4.5ZM22.5 14a.5.5 0 0 1 .5.5v2h2a.5.5 0 0 1 0 1h-2v2a.5.5 0 0 1-1 0v-2h-2a.5.5 0 0 1 0-1h2v-2a.5.5 0 0 1 .5-.5ZM27 7a.5.5 0 0 0-1 0v2h-2a.5.5 0 0 0 0 1h2v2a.5.5 0 0 0 1 0v-2h2a.5.5 0 0 0 0-1h-2V7Z"/></svg>