<svg xmlns="http://www.w3.org/2000/svg" width="32" height="32" fill="none" viewBox="0 0 32 32"><path fill="#DB1F2E" d="M17.808 23.464a.499.499 0 0 1-.162-.11l-15-15a.5.5 0 1 1 .707-.708L5.5 9.793V8a5.5 5.5 0 0 1 11 0v10a5.33 5.33 0 0 1-.521 2.272l2.374 2.374a.5.5 0 0 1-.545.818ZM7.818 4.818A4.5 4.5 0 0 0 6.5 8v2.793l8.723 8.723c.18-.485.274-.999.277-1.516V8a4.5 4.5 0 0 0-7.682-3.182ZM17.021 28.5H19a.5.5 0 1 1 0 1H3a.5.5 0 0 1 0-1h10.51a6.408 6.408 0 0 1-2.987-5.024A5.506 5.506 0 0 1 5.5 18v-5.378l1 1V18a4.49 4.49 0 0 0 7.613 3.236l.697.697a5.465 5.465 0 0 1-3.266 1.54 5.363 5.363 0 0 0 5.477 5.027ZM24.5 8.5a.5.5 0 0 1 .5.5v4h4a.5.5 0 0 1 0 1h-4v4a.5.5 0 0 1-1 0v-4h-4a.5.5 0 0 1 0-1h4V9a.5.5 0 0 1 .5-.5Z"/></svg>