<svg xmlns="http://www.w3.org/2000/svg" width="32" height="32" viewBox="0 0 32 32"><path d="M17.47 23.53C17.6122 23.6625 17.8002 23.7346 17.9945 23.7312C18.1888 23.7277 18.3742 23.649 18.5116 23.5116C18.649 23.3742 18.7277 23.1888 18.7312 22.9945C18.7346 22.8002 18.6625 22.6122 18.53 22.47L16.275 20.214C16.5833 19.5163 16.7449 18.7627 16.75 18V8C16.75 6.47501 16.1442 5.01247 15.0659 3.93414C13.9875 2.8558 12.525 2.25 11 2.25C9.47501 2.25 8.01247 2.8558 6.93414 3.93414C5.8558 5.01247 5.25 6.47501 5.25 8V9.19L3.53 7.47C3.38783 7.33752 3.19978 7.2654 3.00548 7.26883C2.81118 7.27225 2.62579 7.35097 2.48838 7.48838C2.35097 7.62579 2.27225 7.81118 2.26883 8.00548C2.2654 8.19978 2.33752 8.38782 2.47 8.53L17.47 23.53ZM6.75 8C6.75 6.87283 7.19777 5.79183 7.9948 4.9948C8.79183 4.19777 9.87283 3.75 11 3.75C12.1272 3.75 13.2082 4.19777 14.0052 4.9948C14.8022 5.79183 15.25 6.87283 15.25 8V18C15.2456 18.3523 15.1959 18.7025 15.102 19.042L6.75 10.69V8ZM19 28.25H17.02C15.7379 28.2804 14.4912 27.8281 13.5269 26.9825C12.5627 26.137 11.9513 24.9601 11.814 23.685C12.753 23.545 13.643 23.175 14.402 22.605L13.338 21.542C12.6982 21.9659 11.9554 22.2083 11.1888 22.2436C10.4221 22.2788 9.66025 22.1055 8.98429 21.742C8.30832 21.3786 7.74355 20.8387 7.35011 20.1797C6.95667 19.5208 6.74927 18.7675 6.75 18V14.953L5.25 13.453V18C5.25238 19.3999 5.76496 20.751 6.69177 21.8002C7.61858 22.8494 8.89606 23.5249 10.285 23.7C10.3682 24.5824 10.6266 25.4393 11.0451 26.2205C11.4635 27.0018 12.0336 27.6917 12.722 28.25H3C2.80109 28.25 2.61032 28.329 2.46967 28.4697C2.32902 28.6103 2.25 28.8011 2.25 29C2.25 29.1989 2.32902 29.3897 2.46967 29.5303C2.61032 29.671 2.80109 29.75 3 29.75H19C19.1989 29.75 19.3897 29.671 19.5303 29.5303C19.671 29.3897 19.75 29.1989 19.75 29C19.75 28.8011 19.671 28.6103 19.5303 28.4697C19.3897 28.329 19.1989 28.25 19 28.25Z M28 11.25H27.75V10C27.75 9.27065 27.4603 8.57118 26.9445 8.05546C26.4288 7.53973 25.7293 7.25 25 7.25C24.2707 7.25 23.5712 7.53973 23.0555 8.05546C22.5397 8.57118 22.25 9.27065 22.25 10V11.25H22C21.536 11.2505 21.0912 11.4351 20.7631 11.7631C20.4351 12.0912 20.2505 12.536 20.25 13V17C20.2505 17.464 20.4351 17.9088 20.7631 18.2369C21.0912 18.5649 21.536 18.7495 22 18.75H28C28.464 18.7495 28.9088 18.5649 29.2369 18.2369C29.5649 17.9088 29.7495 17.464 29.75 17V13C29.7495 12.536 29.5649 12.0912 29.2369 11.7631C28.9088 11.4351 28.464 11.2505 28 11.25ZM23.75 10C23.75 9.66848 23.8817 9.35054 24.1161 9.11612C24.3505 8.8817 24.6685 8.75 25 8.75C25.3315 8.75 25.6495 8.8817 25.8839 9.11612C26.1183 9.35054 26.25 9.66848 26.25 10V11.25H23.75V10ZM28.25 17C28.25 17.0663 28.2237 17.1299 28.1768 17.1768C28.1299 17.2237 28.0663 17.25 28 17.25H22C21.9337 17.25 21.8701 17.2237 21.8232 17.1768C21.7763 17.1299 21.75 17.0663 21.75 17V13C21.75 12.9337 21.7763 12.8701 21.8232 12.8232C21.8701 12.7763 21.9337 12.75 22 12.75H28C28.0663 12.75 28.1299 12.7763 28.1768 12.8232C28.2237 12.8701 28.25 12.9337 28.25 13V17Z"/></svg>