<svg xmlns="http://www.w3.org/2000/svg" width="32" height="32" viewBox="0 0 32 32"><path d="M24.0021 28.25H22.0231C20.7412 28.2802 19.4947 27.8277 18.5307 26.9822C17.5666 26.1367 16.9554 24.9599 16.8181 23.685C17.7608 23.5449 18.6536 23.1712 19.4151 22.598L18.3521 21.535C17.7126 21.962 16.9691 22.2072 16.201 22.2445C15.433 22.2818 14.6692 22.1098 13.9913 21.7468C13.3134 21.3838 12.7468 20.8435 12.3521 20.1836C11.9574 19.5237 11.7493 18.769 11.7501 18V14.933L10.2501 13.433V18C10.2525 19.4002 10.7654 20.7516 11.6926 21.8008C12.6198 22.8501 13.8978 23.5253 15.2871 23.7C15.3704 24.5823 15.6288 25.4392 16.0473 26.2205C16.4657 27.0017 17.0358 27.6917 17.7241 28.25H8.00209C7.80318 28.25 7.61241 28.329 7.47176 28.4697C7.33111 28.6103 7.25209 28.8011 7.25209 29C7.25209 29.1989 7.33111 29.3897 7.47176 29.5303C7.61241 29.671 7.80318 29.75 8.00209 29.75H24.0021C24.201 29.75 24.3918 29.671 24.5324 29.5303C24.6731 29.3897 24.7521 29.1989 24.7521 29C24.7521 28.8011 24.6731 28.6103 24.5324 28.4697C24.3918 28.329 24.201 28.25 24.0021 28.25ZM28.5301 27.47L21.2751 20.214C21.5831 19.516 21.7451 18.763 21.7501 18V8C21.7501 6.47501 21.1443 5.01247 20.066 3.93414C18.9876 2.8558 17.5251 2.25 16.0001 2.25C14.4751 2.25 13.0126 2.8558 11.9342 3.93414C10.8559 5.01247 10.2501 6.47501 10.2501 8V9.19L4.53009 3.47C4.38792 3.33752 4.19987 3.2654 4.00557 3.26883C3.81127 3.27225 3.62588 3.35097 3.48847 3.48838C3.35106 3.62579 3.27234 3.81118 3.26892 4.00548C3.26549 4.19978 3.33761 4.38783 3.47009 4.53L27.4701 28.53C27.6123 28.6625 27.8003 28.7346 27.9946 28.7312C28.1889 28.7277 28.3743 28.649 28.5117 28.5116C28.6491 28.3742 28.7278 28.1888 28.7313 27.9945C28.7347 27.8002 28.6626 27.6122 28.5301 27.47ZM11.7501 10.69V8C11.7501 6.87283 12.1979 5.79183 12.9949 4.9948C13.7919 4.19777 14.8729 3.75 16.0001 3.75C17.1273 3.75 18.2083 4.19777 19.0053 4.9948C19.8023 5.79183 20.2501 6.87283 20.2501 8V18C20.246 18.3522 20.1966 18.7024 20.1031 19.042L11.7501 10.69Z"/></svg>