<svg xmlns="http://www.w3.org/2000/svg" width="32" height="32" viewBox="0 0 32 32"><path d="M10 18.5H5C4.86739 18.5 4.74021 18.5527 4.64645 18.6464C4.55268 18.7402 4.5 18.8674 4.5 19C4.5 19.1326 4.55268 19.2598 4.64645 19.3536C4.74021 19.4473 4.86739 19.5 5 19.5H10C10.6629 19.5005 11.2985 19.7641 11.7672 20.2328C12.2359 20.7015 12.4995 21.3371 12.5 22V27C12.5 27.1326 12.5527 27.2598 12.6464 27.3536C12.7402 27.4473 12.8674 27.5 13 27.5C13.1326 27.5 13.2598 27.4473 13.3536 27.3536C13.4473 27.2598 13.5 27.1326 13.5 27V22C13.4989 21.0721 13.1299 20.1824 12.4737 19.5263C11.8176 18.8701 10.9279 18.5011 10 18.5ZM27 12.5H22C21.3371 12.4995 20.7015 12.2359 20.2328 11.7672C19.7641 11.2985 19.5005 10.6629 19.5 10V5C19.5 4.86739 19.4473 4.74021 19.3536 4.64645C19.2598 4.55268 19.1326 4.5 19 4.5C18.8674 4.5 18.7402 4.55268 18.6464 4.64645C18.5527 4.74021 18.5 4.86739 18.5 5V10C18.5013 10.9279 18.8705 11.8173 19.5266 12.4734C20.1827 13.1295 21.0721 13.4987 22 13.5H27C27.1326 13.5 27.2598 13.4473 27.3536 13.3536C27.4473 13.2598 27.5 13.1326 27.5 13C27.5 12.8674 27.4473 12.7402 27.3536 12.6464C27.2598 12.5527 27.1326 12.5 27 12.5Z"/></svg>