<svg width="32" height="32" viewBox="0 0 32 32" fill="none" xmlns="http://www.w3.org/2000/svg">
<path d="M16.0001 2.9997C15.8688 2.99963 15.7387 3.02544 15.6174 3.07567C15.496 3.1259 15.3857 3.19955 15.2929 3.29243C15.2 3.3853 15.1263 3.49557 15.0761 3.61693C15.0259 3.73829 15.0001 3.86836 15.0001 3.9997V27.9997C15.0001 28.2649 15.1055 28.5193 15.293 28.7068C15.4806 28.8943 15.7349 28.9997 16.0001 28.9997C16.2653 28.9997 16.5197 28.8943 16.7072 28.7068C16.8948 28.5193 17.0001 28.2649 17.0001 27.9997V3.9997C17.0002 3.86836 16.9744 3.73829 16.9242 3.61693C16.8739 3.49557 16.8003 3.3853 16.7074 3.29243C16.6145 3.19955 16.5043 3.1259 16.3829 3.07567C16.2615 3.02544 16.1315 2.99963 16.0001 2.9997Z" fill="black"/>
<path d="M12.2824 8.04071C12.0752 7.97848 11.8534 7.98563 11.6506 8.06109C11.4479 8.13655 11.2754 8.27617 11.1594 8.45871L2.15935 22.4587C2.06204 22.6097 2.00722 22.7842 2.00067 22.9637C1.99411 23.1432 2.03607 23.3212 2.12212 23.4789C2.20817 23.6366 2.33513 23.7682 2.48965 23.8599C2.64417 23.9515 2.82053 23.9998 3.00018 23.9997H12.0002C12.1315 23.9998 12.2616 23.974 12.383 23.9237C12.5043 23.8735 12.6146 23.7999 12.7075 23.707C12.8003 23.6141 12.874 23.5038 12.9242 23.3825C12.9744 23.2611 13.0003 23.1311 13.0002 22.9997V8.99971C13.0002 8.78376 12.9303 8.57362 12.8009 8.40074C12.6715 8.22785 12.4896 8.10154 12.2824 8.04071ZM11.0001 21.9997H4.83213L11.0001 12.405V21.9997Z" fill="black"/>
<path d="M29.841 22.4587L20.841 8.45868C20.724 8.27709 20.5515 8.13823 20.3491 8.06287C20.1467 7.9875 19.9254 7.97968 19.7182 8.04057C19.511 8.10147 19.329 8.22781 19.1996 8.40069C19.0702 8.57358 19.0002 8.78372 19.0001 8.99968V22.9997C19.0001 23.131 19.0259 23.2611 19.0761 23.3825C19.1263 23.5038 19.2 23.6141 19.2929 23.707C19.3857 23.7998 19.496 23.8735 19.6174 23.9237C19.7387 23.9739 19.8688 23.9998 20.0001 23.9997H29.0001C29.1798 23.9998 29.3561 23.9515 29.5107 23.8598C29.6652 23.7682 29.7921 23.6366 29.8782 23.4789C29.9642 23.3212 30.0062 23.1432 29.9996 22.9637C29.9931 22.7841 29.9383 22.6097 29.841 22.4587ZM21.0001 21.9997V12.405L27.1681 21.9997L21.0001 21.9997Z" fill="black"/>
</svg>
