<svg xmlns="http://www.w3.org/2000/svg" width="32" height="32" viewBox="0 0 32 32"><path d="M16.0001 3.5C15.8675 3.5 15.7404 3.55268 15.6466 3.64645C15.5528 3.74022 15.5001 3.86739 15.5001 4V28C15.5001 28.1326 15.5528 28.2598 15.6466 28.3536C15.7404 28.4473 15.8675 28.5 16.0001 28.5C16.1328 28.5 16.2599 28.4473 16.3537 28.3536C16.4475 28.2598 16.5001 28.1326 16.5001 28V4C16.5003 3.9343 16.4874 3.86923 16.4624 3.8085C16.4373 3.74778 16.4004 3.69261 16.354 3.64615C16.3075 3.5997 16.2524 3.56287 16.1916 3.53779C16.1309 3.51271 16.0658 3.49987 16.0001 3.5ZM12.1401 8.52C12.0366 8.48998 11.9262 8.4942 11.8253 8.53204C11.7244 8.56988 11.6384 8.63932 11.5801 8.73L2.58014 22.73C2.53171 22.8055 2.50448 22.8926 2.50129 22.9822C2.49811 23.0719 2.51908 23.1607 2.56203 23.2394C2.60497 23.3182 2.66831 23.3839 2.74539 23.4297C2.82247 23.4756 2.91046 23.4999 3.00014 23.5H12.0001C12.1328 23.5 12.2599 23.4473 12.3537 23.3536C12.4475 23.2598 12.5001 23.1326 12.5001 23V9C12.5001 8.89182 12.4651 8.78655 12.4001 8.7C12.3352 8.61345 12.244 8.55029 12.1401 8.52ZM11.5001 22.5H3.91614L11.5001 10.702V22.5ZM29.4211 22.73L20.4211 8.73C20.3626 8.63943 20.2764 8.5702 20.1754 8.53263C20.0743 8.49506 19.9638 8.49116 19.8603 8.52153C19.7569 8.55189 19.666 8.61488 19.6013 8.70111C19.5365 8.78734 19.5014 8.89218 19.5011 9V23C19.5011 23.1326 19.5538 23.2598 19.6476 23.3536C19.7414 23.4473 19.8685 23.5 20.0011 23.5H29.0011C29.0907 23.4995 29.1785 23.4751 29.2554 23.4291C29.3323 23.3832 29.3954 23.3175 29.4383 23.2389C29.4812 23.1603 29.5022 23.0716 29.4992 22.9821C29.4962 22.8926 29.4692 22.8056 29.4211 22.73ZM20.5011 22.5V10.702L28.0831 22.5H20.5001H20.5011Z"/></svg>