<svg width="32" height="32" viewBox="0 0 32 32" xmlns="http://www.w3.org/2000/svg">
<path d="M26.5 19.5C25.3954 19.5 24.5 20.3954 24.5 21.5C24.5 22.6046 25.3954 23.5 26.5 23.5C27.6046 23.5 28.5 22.6046 28.5 21.5C28.5 20.3954 27.6046 19.5 26.5 19.5ZM23.5 21.5C23.5 19.8431 24.8431 18.5 26.5 18.5C28.1569 18.5 29.5 19.8431 29.5 21.5C29.5 23.1569 28.1569 24.5 26.5 24.5C24.8431 24.5 23.5 23.1569 23.5 21.5Z" fill="black"/>
<path d="M24.1464 23.1464L24.8536 23.8536L22.2071 26.5L23.3536 27.6464C23.5488 27.8417 23.5488 28.1583 23.3536 28.3536L22.3536 29.3536C22.1583 29.5488 21.8417 29.5488 21.6464 29.3536L20.1464 27.8536C19.9512 27.6583 19.9512 27.3417 20.1464 27.1464L24.1464 23.1464ZM21.5 27.2071L21.2071 27.5L22 28.2929L22.2929 28L21.5 27.2071Z" fill="black"/>
<path d="M16 3.5C13.2386 3.5 11 5.73858 11 8.5C11 11.2614 13.2386 13.5 16 13.5C18.7614 13.5 21 11.2614 21 8.5C21 5.73858 18.7614 3.5 16 3.5ZM10 8.5C10 5.18629 12.6863 2.5 16 2.5C19.3137 2.5 22 5.18629 22 8.5C22 11.8137 19.3137 14.5 16 14.5C12.6863 14.5 10 11.8137 10 8.5Z" fill="black"/>
<path d="M16 14.5C10.1647 14.5 5.5 19.0014 5.5 24.0702C5.5 25.3829 6.60022 26.4938 8.6223 27.2982C10.6077 28.088 13.2901 28.4933 16 28.4931C16.2761 28.4931 16.5 28.7169 16.5 28.993C16.5 29.2692 16.2762 29.4931 16 29.4931C13.2099 29.4934 10.3922 29.0785 8.25267 28.2274C6.14977 27.3909 4.5 26.0401 4.5 24.0702C4.5 18.3789 9.68531 13.5 16 13.5C18.5369 13.5 20.8834 14.2846 22.7856 15.5874C23.0134 15.7434 23.0716 16.0546 22.9156 16.2824C22.7595 16.5103 22.4484 16.5685 22.2205 16.4124C20.4796 15.2201 18.3291 14.5 16 14.5Z" fill="black"/>
</svg>
