<svg xmlns="http://www.w3.org/2000/svg" width="32" height="32" viewBox="0 0 32 32"><path d="M10 2C10.5523 2 11 2.44772 11 3V5H21V3C21 2.44772 21.4477 2 22 2C22.5523 2 23 2.44772 23 3V5C24.325 5.00078 25.5956 5.52749 26.5325 6.46447C27.4702 7.40212 27.9971 8.67388 27.9971 10V14.5887L28.2929 14.2929C28.6834 13.9024 29.3166 13.9024 29.7071 14.2929C30.0976 14.6834 30.0976 15.3166 29.7071 15.7071L27.7071 17.7071C27.3166 18.0976 26.6834 18.0976 26.2929 17.7071L24.2929 15.7071C23.9024 15.3166 23.9024 14.6834 24.2929 14.2929C24.6834 13.9024 25.3166 13.9024 25.7071 14.2929L25.9971 14.5829V10C25.9971 9.20439 25.681 8.44131 25.1183 7.87868C24.5557 7.31606 23.7927 7 22.9971 7H8.99707C8.2014 7 7.43828 7.31608 6.87569 7.87868C6.31311 8.44126 5.99707 9.20431 5.99707 10V13C5.99707 13.5523 5.54936 14 4.99707 14C4.44479 14 3.99707 13.5523 3.99707 13V10C3.99707 8.67396 4.52376 7.40218 5.46147 6.46447C6.39917 5.52677 7.67101 5 8.99707 5H9V3C9 2.44772 9.44772 2 10 2ZM13.6339 18.73C13.4539 18.9233 13.2039 19.02 12.8839 19.02C12.6106 19.02 12.3872 18.95 12.2139 18.81C12.0472 18.6633 11.9439 18.4633 11.9039 18.21H10.3539C10.4006 18.73 10.6272 19.1667 11.0339 19.52C11.5072 19.94 12.1306 20.15 12.9039 20.15C13.6306 20.15 14.2272 19.9767 14.6939 19.63C15.2272 19.2233 15.4939 18.67 15.4939 17.97C15.4939 17.5633 15.3539 17.1967 15.0739 16.87C14.7606 16.5033 14.3639 16.2933 13.8839 16.24C14.2639 16.18 14.5906 16.02 14.8639 15.76C15.1772 15.4533 15.3339 15.0967 15.3339 14.69C15.3339 14.1233 15.1306 13.68 14.7239 13.36C14.2972 13.02 13.7272 12.85 13.0139 12.85C12.3739 12.85 11.8339 12.9933 11.3939 13.28C10.9006 13.6067 10.6072 14.0667 10.5139 14.66H12.0339C12.1339 14.2 12.4306 13.97 12.9239 13.97C13.1439 13.97 13.3306 14.0333 13.4839 14.16C13.6639 14.32 13.7539 14.54 13.7539 14.82C13.7539 15.0933 13.6639 15.3167 13.4839 15.49C13.2906 15.6833 13.0472 15.78 12.7539 15.78H12.0639V16.85H12.6739C13.4806 16.85 13.8839 17.2333 13.8839 18C13.8839 18.3067 13.8006 18.55 13.6339 18.73ZM18.59 14.44V20H20.15V13H18.6L16.99 13.85V15.26L18.59 14.44ZM4.29289 16.2929C4.68342 15.9024 5.31658 15.9024 5.70711 16.2929L7.70711 18.2929C8.09763 18.6834 8.09763 19.3166 7.70711 19.7071C7.31658 20.0976 6.68342 20.0976 6.29289 19.7071L5.99707 19.4113V24C5.99707 24.7957 6.31311 25.5587 6.87569 26.1213C7.43828 26.6839 8.2014 27 8.99707 27H22.9971C23.7927 27 24.5557 26.6839 25.1183 26.1213C25.681 25.5587 25.9971 24.7956 25.9971 24V21C25.9971 20.4477 26.4448 20 26.9971 20C27.5494 20 27.9971 20.4477 27.9971 21V24C27.9971 25.3261 27.4702 26.5979 26.5325 27.5355C25.5949 28.4732 24.3232 29 22.9971 29H8.99707C7.67101 29 6.39917 28.4732 5.46147 27.5355C4.52376 26.5978 3.99707 25.326 3.99707 24V19.4171L3.70711 19.7071C3.31658 20.0976 2.68342 20.0976 2.29289 19.7071C1.90237 19.3166 1.90237 18.6834 2.29289 18.2929L4.29289 16.2929Z"/></svg>