<svg xmlns="http://www.w3.org/2000/svg" width="32" height="32" viewBox="0 0 32 32"><path d="M16 17.25C16.3315 17.25 16.6495 17.1183 16.8839 16.8839C17.1183 16.6495 17.25 16.3315 17.25 16C17.25 15.6685 17.1183 15.3505 16.8839 15.1161C16.6495 14.8817 16.3315 14.75 16 14.75C15.6685 14.75 15.3505 14.8817 15.1161 15.1161C14.8817 15.3505 14.75 15.6685 14.75 16C14.75 16.3315 14.8817 16.6495 15.1161 16.8839C15.3505 17.1183 15.6685 17.25 16 17.25ZM8.5 17.25C8.83152 17.25 9.14946 17.1183 9.38388 16.8839C9.6183 16.6495 9.75 16.3315 9.75 16C9.75 15.6685 9.6183 15.3505 9.38388 15.1161C9.14946 14.8817 8.83152 14.75 8.5 14.75C8.16848 14.75 7.85054 14.8817 7.61612 15.1161C7.3817 15.3505 7.25 15.6685 7.25 16C7.25 16.3315 7.3817 16.6495 7.61612 16.8839C7.85054 17.1183 8.16848 17.25 8.5 17.25ZM23.5 17.25C23.8315 17.25 24.1495 17.1183 24.3839 16.8839C24.6183 16.6495 24.75 16.3315 24.75 16C24.75 15.6685 24.6183 15.3505 24.3839 15.1161C24.1495 14.8817 23.8315 14.75 23.5 14.75C23.1685 14.75 22.8505 14.8817 22.6161 15.1161C22.3817 15.3505 22.25 15.6685 22.25 16C22.25 16.3315 22.3817 16.6495 22.6161 16.8839C22.8505 17.1183 23.1685 17.25 23.5 17.25Z"/></svg>