<svg width="32" height="32" viewBox="0 0 32 32" fill="none" xmlns="http://www.w3.org/2000/svg">
<path d="M16 17C16.5523 17 17 16.5523 17 16C17 15.4477 16.5523 15 16 15C15.4477 15 15 15.4477 15 16C15 16.5523 15.4477 17 16 17Z" fill="black"/>
<path d="M16 24.5C16.5523 24.5 17 24.0523 17 23.5C17 22.9477 16.5523 22.5 16 22.5C15.4477 22.5 15 22.9477 15 23.5C15 24.0523 15.4477 24.5 16 24.5Z" fill="black"/>
<path d="M16 9.49998C16.5523 9.49998 17 9.05226 17 8.49998C17 7.9477 16.5523 7.49998 16 7.49998C15.4477 7.49998 15 7.9477 15 8.49998C15 9.05226 15.4477 9.49998 16 9.49998Z" fill="black"/>
</svg>
