<svg width="32" height="32" viewBox="0 0 32 32" fill="none" xmlns="http://www.w3.org/2000/svg">
<path d="M26.0002 22.4996H6.50024V6.9996C6.50137 6.07169 6.87048 5.1821 7.52661 4.52597C8.18275 3.86983 9.07233 3.50072 10.0002 3.4996H22.0002C22.9282 3.50072 23.8177 3.86983 24.4739 4.52597C25.13 5.1821 25.4991 6.07169 25.5002 6.9996C25.5002 7.13221 25.5529 7.25939 25.6467 7.35315C25.7405 7.44692 25.8676 7.4996 26.0002 7.4996C26.1329 7.4996 26.26 7.44692 26.3538 7.35315C26.4476 7.25939 26.5002 7.13221 26.5002 6.9996C26.4989 5.80652 26.0244 4.66269 25.1808 3.81905C24.3372 2.97542 23.1933 2.5009 22.0002 2.4996H10.0002C8.80717 2.5009 7.66333 2.97543 6.8197 3.81906C5.97607 4.66269 5.50155 5.80653 5.50024 6.9996V24.9996C5.50155 26.1927 5.97607 27.3365 6.81971 28.1801C7.66334 29.0238 8.80717 29.4983 10.0002 29.4996H22.0002C23.1933 29.4983 24.3372 29.0238 25.1808 28.1801C26.0244 27.3365 26.4989 26.1927 26.5002 24.9996V22.9996C26.5003 22.9339 26.4874 22.8689 26.4623 22.8082C26.4371 22.7475 26.4003 22.6924 26.3539 22.646C26.3074 22.5995 26.2523 22.5627 26.1916 22.5376C26.131 22.5125 26.0659 22.4996 26.0002 22.4996ZM25.5002 24.9996C25.4991 25.9275 25.13 26.8171 24.4739 27.4732C23.8177 28.1294 22.9282 28.4985 22.0002 28.4996H10.0002C9.07233 28.4985 8.18275 28.1294 7.52661 27.4732C6.87048 26.8171 6.50137 25.9275 6.50024 24.9996V23.4996H25.5002V24.9996Z" fill="black"/>
<path d="M15.0002 26.4996H17.0002C17.1329 26.4996 17.26 26.4469 17.3538 26.3532C17.4476 26.2594 17.5002 26.1322 17.5002 25.9996C17.5002 25.867 17.4476 25.7398 17.3538 25.646C17.26 25.5523 17.1329 25.4996 17.0002 25.4996H15.0002C14.8676 25.4996 14.7405 25.5523 14.6467 25.646C14.5529 25.7398 14.5002 25.867 14.5002 25.9996C14.5002 26.1322 14.5529 26.2594 14.6467 26.3532C14.7405 26.4469 14.8676 26.4996 15.0002 26.4996Z" fill="black"/>
<path d="M29.3538 14.6461L25.3538 10.6461C25.2597 10.5539 25.133 10.5025 25.0013 10.5032C24.8696 10.5039 24.7435 10.5565 24.6503 10.6496C24.5572 10.7428 24.5046 10.8689 24.5039 11.0006C24.5032 11.1323 24.5546 11.259 24.6468 11.3531L27.7932 14.4996H21.0002C20.8676 14.4996 20.7405 14.5522 20.6467 14.646C20.5529 14.7398 20.5002 14.867 20.5002 14.9996C20.5002 15.1322 20.5529 15.2594 20.6467 15.3531C20.7405 15.4469 20.8676 15.4996 21.0002 15.4996H27.7932L24.6468 18.646C24.5996 18.6923 24.562 18.7474 24.5363 18.8083C24.5105 18.8692 24.4971 18.9345 24.4967 19.0006C24.4964 19.0667 24.5092 19.1322 24.5343 19.1933C24.5595 19.2544 24.5965 19.3099 24.6432 19.3566C24.6899 19.4034 24.7454 19.4404 24.8065 19.4655C24.8677 19.4906 24.9331 19.5034 24.9992 19.5031C25.0653 19.5027 25.1307 19.4893 25.1915 19.4636C25.2524 19.4378 25.3075 19.4002 25.3538 19.3531L29.3538 15.3531C29.4002 15.3066 29.437 15.2515 29.4622 15.1909C29.4873 15.1302 29.5002 15.0652 29.5002 14.9996C29.5002 14.9339 29.4873 14.8689 29.4622 14.8083C29.437 14.7476 29.4002 14.6925 29.3538 14.6461Z" fill="black"/>
</svg>
