<svg xmlns="http://www.w3.org/2000/svg" width="32" height="32" viewBox="0 0 32 32"><path d="M12 6.25C11.8011 6.25 11.6103 6.32902 11.4697 6.46967C11.329 6.61032 11.25 6.80109 11.25 7C11.25 7.19891 11.329 7.38968 11.4697 7.53033C11.6103 7.67098 11.8011 7.75 12 7.75H16C16.1989 7.75 16.3897 7.67098 16.5303 7.53033C16.671 7.38968 16.75 7.19891 16.75 7C16.75 6.80109 16.671 6.61032 16.5303 6.46967C16.3897 6.32902 16.1989 6.25 16 6.25H12ZM20 7.75C20.1989 7.75 20.3897 7.67098 20.5303 7.53033C20.671 7.38968 20.75 7.19891 20.75 7C20.75 6.80109 20.671 6.61032 20.5303 6.46967C20.3897 6.32902 20.1989 6.25 20 6.25C19.8011 6.25 19.6103 6.32902 19.4697 6.46967C19.329 6.61032 19.25 6.80109 19.25 7C19.25 7.19891 19.329 7.38968 19.4697 7.53033C19.6103 7.67098 19.8011 7.75 20 7.75Z M25 24.25C24.8011 24.25 24.6103 24.329 24.4697 24.4697C24.329 24.6103 24.25 24.8011 24.25 25C24.2489 25.8616 23.9062 26.6877 23.2969 27.2969C22.6877 27.9062 21.8616 28.2489 21 28.25H11C10.1384 28.2489 9.31234 27.9062 8.70307 27.2969C8.09381 26.6877 7.75106 25.8616 7.75 25V7C7.75106 6.13837 8.09381 5.31234 8.70307 4.70307C9.31234 4.09381 10.1384 3.75106 11 3.75H21C21.8616 3.75106 22.6877 4.09381 23.2969 4.70307C23.9062 5.31234 24.2489 6.13837 24.25 7V8C24.25 8.19891 24.329 8.38968 24.4697 8.53033C24.6103 8.67098 24.8011 8.75 25 8.75C25.1989 8.75 25.3897 8.67098 25.5303 8.53033C25.671 8.38968 25.75 8.19891 25.75 8V7C25.7487 5.74063 25.2478 4.53322 24.3573 3.6427C23.4668 2.75219 22.2594 2.25132 21 2.25H11C9.74063 2.25132 8.53322 2.75219 7.6427 3.6427C6.75219 4.53322 6.25132 5.74063 6.25 7V25C6.25159 26.2593 6.75254 27.4666 7.643 28.357C8.53345 29.2475 9.74071 29.7484 11 29.75H21C22.2594 29.7487 23.4668 29.2478 24.3573 28.3573C25.2478 27.4668 25.7487 26.2594 25.75 25C25.75 24.8011 25.671 24.6103 25.5303 24.4697C25.3897 24.329 25.1989 24.25 25 24.25Z M22.5299 10.5298C22.6624 10.3877 22.7345 10.1996 22.7311 10.0053C22.7277 9.81102 22.6489 9.62564 22.5115 9.48823C22.3741 9.35081 22.1887 9.2721 21.9944 9.26867C21.8001 9.26524 21.6121 9.33737 21.4699 9.46985L18.4699 12.4698C18.3297 12.6106 18.251 12.8012 18.251 12.9998C18.251 13.1985 18.3297 13.3891 18.4699 13.5298L21.4699 16.5298C21.6121 16.6623 21.8001 16.7344 21.9944 16.731C22.1887 16.7276 22.3741 16.6489 22.5115 16.5115C22.6489 16.3741 22.7277 16.1887 22.7311 15.9944C22.7345 15.8001 22.6624 15.612 22.5299 15.4698L20.8109 13.7498H28.0009C28.1998 13.7498 28.3906 13.6708 28.5312 13.5302C28.6719 13.3895 28.7509 13.1988 28.7509 12.9998C28.7509 12.8009 28.6719 12.6102 28.5312 12.4695C28.3906 12.3289 28.1998 12.2498 28.0009 12.2498H20.8109L22.5309 10.5298H22.5299ZM29.5299 18.4698L26.5299 15.4698C26.3893 15.3296 26.1989 15.2507 26.0003 15.2503C25.8017 15.25 25.6111 15.3281 25.4699 15.4678C25.4001 15.5375 25.3446 15.6203 25.3068 15.7114C25.269 15.8025 25.2496 15.9002 25.2496 15.9988C25.2496 16.0975 25.269 16.1952 25.3068 16.2863C25.3446 16.3774 25.4001 16.4602 25.4699 16.5298L27.1899 18.2498H19.9999C19.801 18.2498 19.6102 18.3289 19.4696 18.4695C19.3289 18.6102 19.2499 18.8009 19.2499 18.9998C19.2499 19.1988 19.3289 19.3895 19.4696 19.5302C19.6102 19.6708 19.801 19.7498 19.9999 19.7498H27.1899L25.4699 21.4698C25.3299 21.6107 25.2514 21.8013 25.2514 21.9998C25.2514 22.1984 25.3299 22.389 25.4699 22.5298C25.6105 22.6703 25.8012 22.7492 25.9999 22.7492C26.1987 22.7492 26.3893 22.6703 26.5299 22.5298L29.5299 19.5298C29.6701 19.3891 29.7488 19.1985 29.7488 18.9998C29.7488 18.8012 29.6701 18.6106 29.5299 18.4698Z"/></svg>