<svg width="32" height="32" viewBox="0 0 32 32" fill="none" xmlns="http://www.w3.org/2000/svg">
<path d="M14.9998 26.9957H16.9998C17.265 26.9957 17.5193 26.8903 17.7069 26.7028C17.8944 26.5153 17.9998 26.2609 17.9998 25.9957C17.9998 25.7305 17.8944 25.4761 17.7069 25.2886C17.5193 25.101 17.265 24.9957 16.9998 24.9957H14.9998C14.7345 24.9957 14.4802 25.101 14.2926 25.2886C14.1051 25.4761 13.9998 25.7305 13.9998 25.9957C13.9998 26.2609 14.1051 26.5153 14.2926 26.7028C14.4802 26.8903 14.7345 26.9957 14.9998 26.9957Z" fill="black"/>
<path d="M25.9998 21.9996H6.99976V7.00058C7.00062 6.2052 7.31697 5.44264 7.87939 4.88022C8.44182 4.3178 9.20437 4.00145 9.99976 4.00058H21.9998C22.7951 4.00145 23.5577 4.3178 24.1201 4.88022C24.6825 5.44264 24.9989 6.2052 24.9998 7.00058C24.9998 7.2658 25.1051 7.52015 25.2926 7.70769C25.4802 7.89522 25.7345 8.00058 25.9998 8.00058C26.265 8.00058 26.5193 7.89522 26.7069 7.70769C26.8944 7.52015 26.9998 7.2658 26.9998 7.00058C26.9982 5.67497 26.4709 4.40411 25.5336 3.46676C24.5962 2.52942 23.3254 2.00214 21.9998 2.00058H9.99976C8.67415 2.00214 7.40329 2.52942 6.46594 3.46676C5.5286 4.40411 5.00131 5.67497 4.99976 7.00058V25.0006C5.00131 26.3262 5.5286 27.597 6.46594 28.5344C7.40329 29.4717 8.67415 29.999 9.99976 30.0006H21.9998C23.3254 29.999 24.5962 29.4717 25.5336 28.5344C26.4709 27.597 26.9982 26.3262 26.9998 25.0006V22.9996C26.9998 22.8682 26.974 22.7382 26.9238 22.6168C26.8736 22.4955 26.7999 22.3852 26.707 22.2923C26.6142 22.1994 26.5039 22.1258 26.3825 22.0756C26.2612 22.0253 26.1311 21.9995 25.9998 21.9996ZM24.9998 25.0006C24.9989 25.796 24.6825 26.5585 24.1201 27.121C23.5577 27.6834 22.7951 27.9997 21.9998 28.0006H9.99976C9.20437 27.9997 8.44182 27.6834 7.87939 27.121C7.31697 26.5585 7.00062 25.796 6.99976 25.0006V23.9996H24.9998V25.0006Z" fill="black"/>
<path d="M29.0007 13.9996H23.4138L25.7068 11.7066C25.7997 11.6138 25.8733 11.5035 25.9236 11.3822C25.9738 11.2609 25.9997 11.1309 25.9997 10.9996C25.9997 10.8683 25.9738 10.7382 25.9236 10.6169C25.8733 10.4956 25.7997 10.3854 25.7068 10.2925C25.614 10.1997 25.5037 10.126 25.3824 10.0758C25.2611 10.0255 25.1311 9.99968 24.9998 9.99968C24.8685 9.99968 24.7385 10.0255 24.6171 10.0758C24.4958 10.126 24.3856 10.1997 24.2928 10.2925L20.2928 14.2925C20.1999 14.3854 20.1262 14.4956 20.0759 14.6169C20.0257 14.7382 19.9998 14.8683 19.9998 14.9996C19.9998 15.1309 20.0257 15.2609 20.0759 15.3822C20.1262 15.5035 20.1999 15.6138 20.2928 15.7066L24.2928 19.7066C24.4803 19.8941 24.7346 19.9995 24.9998 19.9995C25.265 19.9995 25.5193 19.8941 25.7068 19.7066C25.8943 19.5191 25.9997 19.2648 25.9997 18.9996C25.9997 18.7344 25.8943 18.4801 25.7068 18.2925L23.4138 15.9995H29.0007C29.266 15.9995 29.5203 15.8942 29.7078 15.7066C29.8954 15.5191 30.0007 15.2648 30.0007 14.9995C30.0007 14.7343 29.8954 14.48 29.7078 14.2924C29.5203 14.1049 29.266 13.9996 29.0007 13.9996Z" fill="black"/>
</svg>
