<svg xmlns="http://www.w3.org/2000/svg" width="32" height="32" viewBox="0 0 32 32"><path d="M26 22.5H6.5V7C6.50106 6.07207 6.87015 5.18244 7.5263 4.5263C8.18244 3.87015 9.07207 3.50106 10 3.5H22C22.9279 3.50106 23.8176 3.87015 24.4737 4.5263C25.1299 5.18244 25.4989 6.07207 25.5 7C25.5 7.13261 25.5527 7.25979 25.6464 7.35355C25.7402 7.44732 25.8674 7.5 26 7.5C26.1326 7.5 26.2598 7.44732 26.3536 7.35355C26.4473 7.25979 26.5 7.13261 26.5 7C26.4987 5.80693 26.0241 4.66311 25.1805 3.81948C24.3369 2.97585 23.1931 2.50132 22 2.5H10C8.80693 2.50132 7.66311 2.97585 6.81948 3.81948C5.97585 4.66311 5.50132 5.80693 5.5 7V25C5.50132 26.1931 5.97585 27.3369 6.81948 28.1805C7.66311 29.0241 8.80693 29.4987 10 29.5H22C23.1931 29.4987 24.3369 29.0241 25.1805 28.1805C26.0241 27.3369 26.4987 26.1931 26.5 25V23C26.5001 22.9343 26.4873 22.8692 26.4622 22.8085C26.4371 22.7478 26.4003 22.6926 26.3538 22.6462C26.3074 22.5997 26.2522 22.5629 26.1915 22.5378C26.1308 22.5127 26.0657 22.4999 26 22.5ZM25.5 25C25.4989 25.9279 25.1299 26.8176 24.4737 27.4737C23.8176 28.1299 22.9279 28.4989 22 28.5H10C9.07207 28.4989 8.18244 28.1299 7.5263 27.4737C6.87015 26.8176 6.50106 25.9279 6.5 25V23.5H25.5V25Z M15 26.5002H17C17.1326 26.5002 17.2598 26.4475 17.3536 26.3538C17.4473 26.26 17.5 26.1328 17.5 26.0002C17.5 25.8676 17.4473 25.7404 17.3536 25.6467C17.2598 25.5529 17.1326 25.5002 17 25.5002H15C14.8674 25.5002 14.7402 25.5529 14.6464 25.6467C14.5527 25.7404 14.5 25.8676 14.5 26.0002C14.5 26.1328 14.5527 26.26 14.6464 26.3538C14.7402 26.4475 14.8674 26.5002 15 26.5002ZM29.354 14.6462L25.354 10.6462C25.2597 10.5551 25.1334 10.5047 25.0023 10.5059C24.8712 10.507 24.7458 10.5596 24.6531 10.6523C24.5604 10.745 24.5078 10.8704 24.5067 11.0015C24.5055 11.1326 24.5559 11.2589 24.647 11.3532L27.793 14.5002H21C20.8674 14.5002 20.7402 14.5529 20.6464 14.6467C20.5527 14.7404 20.5 14.8676 20.5 15.0002C20.5 15.1328 20.5527 15.26 20.6464 15.3538C20.7402 15.4475 20.8674 15.5002 21 15.5002H27.793L24.647 18.6462C24.5992 18.6923 24.5612 18.7475 24.5349 18.8085C24.5087 18.8695 24.495 18.9351 24.4944 19.0015C24.4938 19.0679 24.5064 19.1337 24.5316 19.1952C24.5567 19.2566 24.5939 19.3125 24.6408 19.3594C24.6877 19.4064 24.7436 19.4435 24.805 19.4686C24.8665 19.4938 24.9323 19.5064 24.9987 19.5058C25.0651 19.5053 25.1307 19.4915 25.1917 19.4653C25.2527 19.4391 25.3079 19.401 25.354 19.3532L29.354 15.3532C29.4235 15.283 29.4709 15.1939 29.4901 15.097C29.5093 15.0001 29.4995 14.8996 29.462 14.8082C29.437 14.7477 29.4003 14.6926 29.354 14.6462Z"/></svg>