<svg xmlns="http://www.w3.org/2000/svg" width="32" height="32" viewBox="0 0 32 32"><path d="M27.19 13.2498H21C20.8011 13.2498 20.6103 13.3289 20.4697 13.4695C20.329 13.6102 20.25 13.8009 20.25 13.9998C20.25 14.1988 20.329 14.3895 20.4697 14.5302C20.6103 14.6708 20.8011 14.7498 21 14.7498H27.19L24.47 17.4698C24.33 17.6107 24.2515 17.8013 24.2515 17.9998C24.2515 18.1984 24.33 18.389 24.47 18.5298C24.5396 18.5995 24.6224 18.6548 24.7134 18.6926C24.8044 18.7303 24.902 18.7497 25.0005 18.7497C25.099 18.7497 25.1966 18.7303 25.2876 18.6926C25.3786 18.6548 25.4613 18.5995 25.531 18.5298L29.531 14.5298C29.6712 14.3891 29.7499 14.1985 29.7499 13.9998C29.7499 13.8012 29.6712 13.6106 29.531 13.4698L25.531 9.46985C25.3888 9.33737 25.2008 9.26524 25.0065 9.26867C24.8122 9.2721 24.6268 9.35081 24.4894 9.48823C24.352 9.62564 24.2733 9.81102 24.2698 10.0053C24.2664 10.1996 24.3385 10.3877 24.471 10.5298L27.191 13.2498H27.19Z M28.2058 21.25H5.74977V10.135C5.73341 9.25559 6.06628 8.40554 6.67544 7.77107C7.28461 7.13659 8.12042 6.76943 8.99977 6.75H22.9998C23.1987 6.75 23.3894 6.67098 23.5301 6.53033C23.6708 6.38968 23.7498 6.19891 23.7498 6C23.7498 5.80109 23.6708 5.61032 23.5301 5.46967C23.3894 5.32902 23.1987 5.25 22.9998 5.25H8.99977C7.72268 5.26975 6.50553 5.79506 5.61513 6.71077C4.72473 7.62647 4.23373 8.85786 4.24977 10.135V21.25H3.79477C3.44096 21.248 3.09728 21.3681 2.82167 21.5899C2.54606 21.8118 2.35538 22.1219 2.28177 22.468C2.23477 22.695 2.23977 22.93 2.29777 23.155C2.56578 24.1885 3.17071 25.1031 4.01687 25.7542C4.86303 26.4053 5.90211 26.7557 6.96977 26.75H25.0298C26.0978 26.7562 27.1373 26.406 27.9839 25.7548C28.8304 25.1037 29.4357 24.1888 29.7038 23.155C29.7615 22.9302 29.7667 22.6951 29.719 22.4679C29.6713 22.2408 29.572 22.0276 29.4288 21.845C29.2843 21.6588 29.0989 21.5084 28.8871 21.4052C28.6752 21.302 28.4424 21.2489 28.2068 21.25H28.2058ZM25.0288 25.25H6.97077C6.23499 25.2606 5.51792 25.018 4.93971 24.5629C4.3615 24.1077 3.95727 23.4677 3.79477 22.75H28.2048L28.2498 22.786C28.0634 23.4964 27.6455 24.1245 27.0621 24.5707C26.4787 25.017 25.7632 25.256 25.0288 25.25Z"/></svg>