<svg width="32" height="32" viewBox="0 0 32 32" fill="none" xmlns="http://www.w3.org/2000/svg">
<path d="M12.0002 5.9996C11.735 5.9996 11.4807 6.10496 11.2931 6.2925C11.1056 6.48003 11.0002 6.73439 11.0002 6.9996C11.0002 7.26482 11.1056 7.51917 11.2931 7.70671C11.4807 7.89425 11.735 7.9996 12.0002 7.9996H16.0002C16.2655 7.9996 16.5198 7.89425 16.7074 7.70671C16.8949 7.51917 17.0002 7.26482 17.0002 6.9996C17.0002 6.73439 16.8949 6.48003 16.7074 6.2925C16.5198 6.10496 16.2655 5.9996 16.0002 5.9996H12.0002Z" fill="black"/>
<path d="M20 7.99996C20.5523 7.99996 21 7.55225 21 6.99996C21 6.44768 20.5523 5.99996 20 5.99996C19.4477 5.99996 19 6.44768 19 6.99996C19 7.55225 19.4477 7.99996 20 7.99996Z" fill="black"/>
<path d="M25.0002 22.9498C24.8689 22.9497 24.7388 22.9755 24.6175 23.0258C24.4961 23.076 24.3858 23.1496 24.293 23.2425C24.2001 23.3354 24.1264 23.4457 24.0762 23.567C24.026 23.6884 24.0002 23.8184 24.0002 23.9498V24.9996C23.9994 25.795 23.683 26.5575 23.1206 27.12C22.5582 27.6824 21.7956 27.9987 21.0002 27.9996H11.0002C10.2049 27.9987 9.4423 27.6824 8.87988 27.12C8.31746 26.5575 8.00111 25.795 8.00024 24.9996V6.9996C8.00111 6.20422 8.31746 5.44166 8.87988 4.87924C9.4423 4.31682 10.2049 4.00047 11.0002 3.9996H21.0002C21.7956 4.00047 22.5582 4.31682 23.1206 4.87924C23.683 5.44166 23.9994 6.20422 24.0002 6.9996V7.9996C24.0002 8.26482 24.1056 8.51917 24.2931 8.70671C24.4807 8.89425 24.735 8.9996 25.0002 8.9996C25.2655 8.9996 25.5198 8.89425 25.7074 8.70671C25.8949 8.51917 26.0002 8.26482 26.0002 7.9996V6.9996C25.9987 5.674 25.4714 4.40314 24.5341 3.46579C23.5967 2.52845 22.3258 2.00116 21.0002 1.9996H11.0002C9.67464 2.00116 8.40377 2.52844 7.46643 3.46579C6.52908 4.40313 6.0018 5.674 6.00024 6.9996V24.9996C6.0018 26.3252 6.52909 27.5961 7.46643 28.5334C8.40378 29.4708 9.67464 29.998 11.0002 29.9996H21.0002C22.3258 29.998 23.5967 29.4708 24.5341 28.5334C25.4714 27.5961 25.9987 26.3252 26.0002 24.9996V23.9498C26.0003 23.8184 25.9745 23.6884 25.9243 23.567C25.874 23.4457 25.8004 23.3354 25.7075 23.2425C25.6146 23.1496 25.5044 23.076 25.383 23.0258C25.2617 22.9755 25.1316 22.9497 25.0002 22.9498Z" fill="black"/>
<path d="M28.7073 15.2926L24.7073 11.2926C24.5198 11.1051 24.2654 10.9997 24.0002 10.9997C23.7351 10.9997 23.4807 11.1051 23.2932 11.2926C23.1057 11.4801 23.0004 11.7344 23.0004 11.9996C23.0004 12.2648 23.1057 12.5191 23.2932 12.7066L25.5862 14.9996H20.0002C19.735 14.9996 19.4807 15.105 19.2931 15.2925C19.1056 15.4801 19.0002 15.7344 19.0002 15.9996C19.0002 16.2648 19.1056 16.5192 19.2931 16.7067C19.4807 16.8943 19.735 16.9996 20.0002 16.9996H25.5862L23.2932 19.2926C23.2003 19.3855 23.1267 19.4957 23.0764 19.617C23.0262 19.7383 23.0003 19.8684 23.0003 19.9997C23.0003 20.131 23.0262 20.261 23.0764 20.3823C23.1267 20.5036 23.2003 20.6138 23.2932 20.7067C23.386 20.7995 23.4963 20.8732 23.6176 20.9234C23.7389 20.9737 23.8689 20.9996 24.0002 20.9996C24.1315 20.9996 24.2615 20.9737 24.3828 20.9234C24.5042 20.8732 24.6144 20.7995 24.7072 20.7067L28.7072 16.7067C28.8001 16.6139 28.8738 16.5036 28.9241 16.3823C28.9744 16.261 29.0002 16.131 29.0002 15.9996C29.0003 15.8683 28.9744 15.7383 28.9241 15.617C28.8738 15.4956 28.8002 15.3854 28.7073 15.2926Z" fill="black"/>
</svg>
