<svg xmlns="http://www.w3.org/2000/svg" width="32" height="32" viewBox="0 0 32 32"><path d="M12 6C11.7348 6 11.4804 6.10536 11.2929 6.29289C11.1054 6.48043 11 6.73478 11 7C11 7.26522 11.1054 7.51957 11.2929 7.70711C11.4804 7.89464 11.7348 8 12 8H16C16.2652 8 16.5196 7.89464 16.7071 7.70711C16.8946 7.51957 17 7.26522 17 7C17 6.73478 16.8946 6.48043 16.7071 6.29289C16.5196 6.10536 16.2652 6 16 6H12ZM20 8C20.2652 8 20.5196 7.89464 20.7071 7.70711C20.8946 7.51957 21 7.26522 21 7C21 6.73478 20.8946 6.48043 20.7071 6.29289C20.5196 6.10536 20.2652 6 20 6C19.7348 6 19.4804 6.10536 19.2929 6.29289C19.1054 6.48043 19 6.73478 19 7C19 7.26522 19.1054 7.51957 19.2929 7.70711C19.4804 7.89464 19.7348 8 20 8Z M25 24C24.8686 23.9997 24.7384 24.0254 24.617 24.0756C24.4956 24.1257 24.3852 24.1994 24.2923 24.2923C24.1994 24.3852 24.1257 24.4956 24.0756 24.617C24.0254 24.7384 23.9997 24.8686 24 25C23.9992 25.7954 23.6829 26.558 23.1204 27.1204C22.558 27.6829 21.7954 27.9992 21 28H11C10.2046 27.9992 9.44199 27.6829 8.87956 27.1204C8.31712 26.558 8.00079 25.7954 8 25V7C8.00079 6.20459 8.31712 5.44199 8.87956 4.87956C9.44199 4.31712 10.2046 4.00079 11 4H21C21.7954 4.00079 22.558 4.31712 23.1204 4.87956C23.6829 5.44199 23.9992 6.20459 24 7V8C24 8.26522 24.1054 8.51957 24.2929 8.70711C24.4804 8.89464 24.7348 9 25 9C25.2652 9 25.5196 8.89464 25.7071 8.70711C25.8946 8.51957 26 8.26522 26 8V7C25.9984 5.67441 25.4711 4.40356 24.5338 3.46622C23.5964 2.52888 22.3256 2.00159 21 2H11C9.67441 2.00159 8.40356 2.52888 7.46622 3.46622C6.52888 4.40356 6.00159 5.67441 6 7V25C6.00159 26.3256 6.52888 27.5964 7.46622 28.5338C8.40356 29.4711 9.67441 29.9984 11 30H21C22.3256 29.9984 23.5964 29.4711 24.5338 28.5338C25.4711 27.5964 25.9984 26.3256 26 25C26.0003 24.8686 25.9746 24.7384 25.9244 24.617C25.8743 24.4956 25.8006 24.3852 25.7077 24.2923C25.6148 24.1994 25.5044 24.1257 25.383 24.0756C25.2616 24.0254 25.1314 23.9997 25 24Z M22.7068 10.707C22.7996 10.6142 22.8733 10.504 22.9236 10.3828C22.9738 10.2616 22.9997 10.1316 22.9998 10.0003C22.9998 9.86908 22.974 9.7391 22.9238 9.61782C22.8736 9.49654 22.8001 9.38633 22.7073 9.29348C22.6145 9.20064 22.5043 9.12698 22.3831 9.07671C22.2618 9.02643 22.1319 9.00053 22.0006 9.00049C21.8694 9.00044 21.7394 9.02625 21.6181 9.07644C21.4968 9.12662 21.3866 9.20021 21.2938 9.29298L18.2938 12.293C18.2008 12.3859 18.127 12.4961 18.0767 12.6175C18.0264 12.7389 18.0005 12.8691 18.0005 13.0005C18.0005 13.1319 18.0264 13.262 18.0767 13.3834C18.127 13.5048 18.2008 13.6151 18.2938 13.708L21.2938 16.707C21.3855 16.8047 21.4959 16.8829 21.6185 16.9371C21.741 16.9912 21.8732 17.0202 22.0072 17.0223C22.1412 17.0244 22.2742 16.9995 22.3984 16.9492C22.5226 16.8989 22.6354 16.8241 22.7301 16.7293C22.8248 16.6345 22.8995 16.5217 22.9498 16.3974C23 16.2732 23.0248 16.1402 23.0226 16.0062C23.0204 15.8722 22.9914 15.74 22.9371 15.6175C22.8828 15.495 22.8045 15.3846 22.7068 15.293L21.4148 14H27.9998C28.265 14 28.5193 13.8946 28.7069 13.7071C28.8944 13.5196 28.9998 13.2652 28.9998 13C28.9998 12.7348 28.8944 12.4804 28.7069 12.2929C28.5193 12.1053 28.265 12 27.9998 12H21.4138L22.7068 10.706V10.707Z M29.707 18.293L26.707 15.293C26.6153 15.1953 26.5049 15.1171 26.3823 15.0629C26.2597 15.0087 26.1275 14.9797 25.9936 14.9777C25.8596 14.9756 25.7266 15.0004 25.6024 15.0508C25.4782 15.1011 25.3654 15.1759 25.2707 15.2707C25.176 15.3655 25.1013 15.4783 25.051 15.6025C25.0008 15.7267 24.976 15.8598 24.9782 15.9938C24.9803 16.1278 25.0094 16.2599 25.0637 16.3824C25.1179 16.505 25.1963 16.6153 25.294 16.707L26.587 18H20C19.7348 18 19.4804 18.1053 19.2929 18.2929C19.1054 18.4804 19 18.7348 19 19C19 19.2652 19.1054 19.5196 19.2929 19.7071C19.4804 19.8946 19.7348 20 20 20H26.586L25.293 21.293C25.1055 21.4806 25.0002 21.7351 25.0003 22.0003C25.0004 22.2656 25.1059 22.52 25.2935 22.7075C25.4811 22.895 25.7356 23.0003 26.0009 23.0002C26.2661 23.0001 26.5205 22.8946 26.708 22.707L29.708 19.707C29.8011 19.6143 29.8749 19.5041 29.9253 19.3828C29.9757 19.2614 30.0016 19.1314 30.0016 19C30.0016 18.8686 29.9757 18.7385 29.9253 18.6172C29.8749 18.4959 29.8011 18.3857 29.708 18.293H29.707Z"/></svg>