<svg width="32" height="32" viewBox="0 0 32 32" fill="none" xmlns="http://www.w3.org/2000/svg">
<path d="M27.1901 13.2496H20.9997C20.8008 13.2496 20.61 13.3286 20.4694 13.4693C20.3287 13.6099 20.2497 13.8007 20.2497 13.9996C20.2497 14.1985 20.3287 14.3893 20.4694 14.5299C20.61 14.6706 20.8008 14.7496 20.9997 14.7496H27.1901L24.4704 17.4693C24.4006 17.5389 24.3451 17.6216 24.3072 17.7126C24.2694 17.8037 24.2498 17.9013 24.2497 17.9999C24.2496 18.0985 24.269 18.1962 24.3067 18.2873C24.3444 18.3784 24.3997 18.4612 24.4694 18.5309C24.5391 18.6006 24.6219 18.6559 24.713 18.6936C24.8041 18.7313 24.9018 18.7507 25.0004 18.7506C25.099 18.7505 25.1966 18.7309 25.2877 18.6931C25.3787 18.6552 25.4614 18.5997 25.531 18.5299L29.531 14.5299C29.6006 14.4602 29.6559 14.3776 29.6936 14.2866C29.7313 14.1956 29.7507 14.0981 29.7507 13.9996C29.7507 13.9011 29.7313 13.8036 29.6936 13.7126C29.6559 13.6216 29.6006 13.539 29.531 13.4693L25.531 9.46933C25.3902 9.32915 25.1996 9.25053 25.001 9.25072C24.8024 9.25091 24.6119 9.32991 24.4715 9.47036C24.331 9.61082 24.252 9.80126 24.2518 9.9999C24.2516 10.1985 24.3302 10.3891 24.4704 10.5299L27.1901 13.2496Z" fill="black"/>
<path d="M28.2058 21.2496H5.74972V10.1353C5.73305 9.25577 6.06579 8.40546 6.675 7.77081C7.28421 7.13615 8.1202 6.76892 8.99972 6.7496H22.9997C23.1986 6.7496 23.3894 6.67058 23.53 6.52993C23.6707 6.38928 23.7497 6.19851 23.7497 5.9996C23.7497 5.80069 23.6707 5.60992 23.53 5.46927C23.3894 5.32862 23.1986 5.2496 22.9997 5.2496H8.99972C7.72247 5.26924 6.50513 5.79461 5.61469 6.7105C4.72424 7.6264 4.23337 8.85804 4.24972 10.1353V21.2496H3.79463C3.5588 21.2485 3.32587 21.3016 3.11387 21.4049C2.90186 21.5082 2.71645 21.6589 2.57198 21.8453C2.42891 22.0279 2.32975 22.241 2.28217 22.4681C2.23458 22.6952 2.23985 22.9302 2.29757 23.1549C2.56565 24.1886 3.17086 25.1035 4.0174 25.7546C4.86394 26.4056 5.90345 26.7558 6.9714 26.7496H25.029C26.0969 26.7558 27.1364 26.4057 27.983 25.7546C28.8295 25.1035 29.4347 24.1886 29.7028 23.1549C29.7605 22.9302 29.7658 22.6952 29.7182 22.4681C29.6706 22.241 29.5715 22.0279 29.4284 21.8453C29.2839 21.6589 29.0985 21.5082 28.8865 21.4049C28.6745 21.3016 28.4416 21.2485 28.2058 21.2496ZM25.029 25.2496H6.9714C6.23549 25.2604 5.51824 25.0179 4.93987 24.5627C4.36149 24.1076 3.95716 23.4674 3.79463 22.7496H28.2058L28.2497 22.7857C28.0632 23.4961 27.6453 24.124 27.062 24.5702C26.4787 25.0164 25.7634 25.2555 25.029 25.2496Z" fill="black"/>
</svg>
