<svg width="32" height="32" viewBox="0 0 32 32" fill="none" xmlns="http://www.w3.org/2000/svg">
<path d="M12 6.4996C11.8674 6.4996 11.7402 6.55228 11.6464 6.64605C11.5527 6.73981 11.5 6.86699 11.5 6.9996C11.5 7.13221 11.5527 7.25939 11.6464 7.35315C11.7402 7.44692 11.8674 7.4996 12 7.4996H16C16.1326 7.4996 16.2598 7.44692 16.3536 7.35315C16.4473 7.25939 16.5 7.13221 16.5 6.9996C16.5 6.86699 16.4473 6.73981 16.3536 6.64605C16.2598 6.55228 16.1326 6.4996 16 6.4996H12Z" fill="black"/>
<path d="M19.9999 7.49996C20.2761 7.49996 20.4999 7.2761 20.4999 6.99996C20.4999 6.72382 20.2761 6.49996 19.9999 6.49996C19.7238 6.49996 19.4999 6.72382 19.4999 6.99996C19.4999 7.2761 19.7238 7.49996 19.9999 7.49996Z" fill="black"/>
<path d="M25 23.4498C24.9343 23.4498 24.8693 23.4627 24.8086 23.4878C24.7479 23.5129 24.6928 23.5497 24.6464 23.5962C24.5999 23.6426 24.5631 23.6977 24.538 23.7584C24.5129 23.8191 24.5 23.8841 24.5 23.9498V24.9996C24.4989 25.9275 24.1298 26.8171 23.4736 27.4732C22.8175 28.1294 21.9279 28.4985 21 28.4996H11C10.0721 28.4985 9.1825 28.1294 8.52637 27.4732C7.87023 26.8171 7.50112 25.9275 7.5 24.9996V6.9996C7.50112 6.07169 7.87023 5.1821 8.52637 4.52597C9.1825 3.86983 10.0721 3.50072 11 3.4996H21C21.9279 3.50072 22.8175 3.86983 23.4736 4.52597C24.1298 5.1821 24.4989 6.07169 24.5 6.9996V7.9996C24.5 8.13221 24.5527 8.25939 24.6464 8.35315C24.7402 8.44692 24.8674 8.4996 25 8.4996C25.1326 8.4996 25.2598 8.44692 25.3536 8.35315C25.4473 8.25939 25.5 8.13221 25.5 7.9996V6.9996C25.4987 5.80653 25.0242 4.66269 24.1805 3.81906C23.3369 2.97543 22.1931 2.5009 21 2.4996H11C9.80692 2.5009 8.66309 2.97542 7.81945 3.81905C6.97582 4.66269 6.5013 5.80652 6.5 6.9996V24.9996C6.5013 26.1927 6.97583 27.3365 7.81946 28.1801C8.66309 29.0238 9.80693 29.4983 11 29.4996H21C22.1931 29.4983 23.3369 29.0238 24.1805 28.1801C25.0242 27.3365 25.4987 26.1927 25.5 24.9996V23.9498C25.5 23.8841 25.4871 23.8191 25.462 23.7584C25.4369 23.6977 25.4001 23.6426 25.3536 23.5962C25.3072 23.5497 25.2521 23.5129 25.1914 23.4878C25.1307 23.4627 25.0657 23.4498 25 23.4498Z" fill="black"/>
<path d="M29.0005 15.4996H22.207L25.3535 12.3531C25.4007 12.3069 25.4383 12.2517 25.464 12.1909C25.4898 12.13 25.5032 12.0646 25.5035 11.9986C25.5039 11.9325 25.4911 11.867 25.466 11.8059C25.4408 11.7448 25.4038 11.6892 25.3571 11.6425C25.3104 11.5958 25.2549 11.5588 25.1937 11.5337C25.1326 11.5085 25.0671 11.4958 25.0011 11.4961C24.935 11.4964 24.8696 11.5099 24.8088 11.5356C24.7479 11.5614 24.6928 11.5989 24.6465 11.6461L20.6465 15.6461C20.6001 15.6925 20.5632 15.7476 20.5381 15.8083C20.513 15.8689 20.5 15.934 20.5 15.9996C20.5 16.0653 20.513 16.1303 20.5381 16.1909C20.5632 16.2516 20.6001 16.3067 20.6465 16.3531L24.6465 20.3531C24.7406 20.4453 24.8672 20.4966 24.999 20.496C25.1307 20.4953 25.2568 20.4427 25.35 20.3496C25.4431 20.2564 25.4957 20.1303 25.4964 19.9986C25.497 19.8668 25.4457 19.7402 25.3535 19.6461L22.207 16.4996H29.0005C29.1331 16.4996 29.2603 16.4469 29.354 16.3532C29.4478 16.2594 29.5005 16.1322 29.5005 15.9996C29.5005 15.867 29.4478 15.7398 29.354 15.646C29.2603 15.5523 29.1331 15.4996 29.0005 15.4996Z" fill="black"/>
</svg>
