<svg xmlns="http://www.w3.org/2000/svg" width="32" height="32" viewBox="0 0 32 32"><path d="M15 26.4961H17C17.1326 26.4961 17.2598 26.4434 17.3536 26.3496C17.4473 26.2559 17.5 26.1287 17.5 25.9961C17.5 25.8635 17.4473 25.7363 17.3536 25.6425C17.2598 25.5488 17.1326 25.4961 17 25.4961H15C14.8674 25.4961 14.7402 25.5488 14.6464 25.6425C14.5527 25.7363 14.5 25.8635 14.5 25.9961C14.5 26.1287 14.5527 26.2559 14.6464 26.3496C14.7402 26.4434 14.8674 26.4961 15 26.4961Z M26 22.5H6.5V7C6.50106 6.07207 6.87015 5.18244 7.5263 4.5263C8.18244 3.87015 9.07207 3.50106 10 3.5H22C22.9279 3.50106 23.8176 3.87015 24.4737 4.5263C25.1299 5.18244 25.4989 6.07207 25.5 7C25.5 7.13261 25.5527 7.25979 25.6464 7.35355C25.7402 7.44732 25.8674 7.5 26 7.5C26.1326 7.5 26.2598 7.44732 26.3536 7.35355C26.4473 7.25979 26.5 7.13261 26.5 7C26.4987 5.80693 26.0241 4.66311 25.1805 3.81948C24.3369 2.97585 23.1931 2.50132 22 2.5H10C8.80693 2.50132 7.66311 2.97585 6.81948 3.81948C5.97585 4.66311 5.50132 5.80693 5.5 7V25C5.50132 26.1931 5.97585 27.3369 6.81948 28.1805C7.66311 29.0241 8.80693 29.4987 10 29.5H22C23.1931 29.4987 24.3369 29.0241 25.1805 28.1805C26.0241 27.3369 26.4987 26.1931 26.5 25V23C26.5 22.8674 26.4473 22.7402 26.3536 22.6464C26.2598 22.5527 26.1326 22.5 26 22.5ZM25.5 25C25.4987 25.9279 25.1295 26.8173 24.4734 27.4734C23.8173 28.1295 22.9279 28.4987 22 28.5H10C9.07207 28.4989 8.18244 28.1299 7.5263 27.4737C6.87015 26.8176 6.50106 25.9279 6.5 25V23.5H25.5V25Z M28.9999 14.5002H22.2069L25.3529 11.3532C25.444 11.2589 25.4944 11.1326 25.4932 11.0015C25.4921 10.8704 25.4395 10.745 25.3468 10.6523C25.2541 10.5596 25.1287 10.507 24.9976 10.5059C24.8665 10.5047 24.7402 10.5551 24.6459 10.6462L20.6459 14.6462C20.5522 14.74 20.4995 14.8671 20.4995 14.9997C20.4995 15.1323 20.5522 15.2595 20.6459 15.3532L24.6459 19.3532C24.7402 19.4443 24.8665 19.4947 24.9976 19.4936C25.1287 19.4924 25.2541 19.4398 25.3468 19.3471C25.4395 19.2544 25.4921 19.129 25.4932 18.9979C25.4944 18.8668 25.444 18.7405 25.3529 18.6462L22.2069 15.5002H28.9999C29.1325 15.5002 29.2597 15.4475 29.3535 15.3538C29.4472 15.26 29.4999 15.1328 29.4999 15.0002C29.4999 14.8676 29.4472 14.7404 29.3535 14.6467C29.2597 14.5529 29.1325 14.5002 28.9999 14.5002Z"/></svg>