<svg xmlns="http://www.w3.org/2000/svg" width="32" height="32" viewBox="0 0 32 32"><path d="M26 22H7V7C7.00079 6.20459 7.31712 5.44199 7.87956 4.87956C8.44199 4.31712 9.20459 4.00079 10 4H22C22.7954 4.00079 23.558 4.31712 24.1204 4.87956C24.6829 5.44199 24.9992 6.20459 25 7C25 7.26522 25.1054 7.51957 25.2929 7.70711C25.4804 7.89464 25.7348 8 26 8C26.2652 8 26.5196 7.89464 26.7071 7.70711C26.8946 7.51957 27 7.26522 27 7C26.9984 5.67441 26.4711 4.40356 25.5338 3.46622C24.5964 2.52888 23.3256 2.00159 22 2H10C8.67441 2.00159 7.40356 2.52888 6.46622 3.46622C5.52888 4.40356 5.00159 5.67441 5 7V25C5.00159 26.3256 5.52888 27.5964 6.46622 28.5338C7.40356 29.4711 8.67441 29.9984 10 30H22C23.3256 29.9984 24.5964 29.4711 25.5338 28.5338C26.4711 27.5964 26.9984 26.3256 27 25V23C27 22.7348 26.8946 22.4804 26.7071 22.2929C26.5196 22.1054 26.2652 22 26 22ZM25 25C24.9992 25.7954 24.6829 26.558 24.1204 27.1204C23.558 27.6829 22.7954 27.9992 22 28H10C9.20459 27.9992 8.44199 27.6829 7.87956 27.1204C7.31712 26.558 7.00079 25.7954 7 25V24H25V25Z M15 26.9999H17C17.2652 26.9999 17.5196 26.8946 17.7071 26.707C17.8946 26.5195 18 26.2651 18 25.9999C18 25.7347 17.8946 25.4803 17.7071 25.2928C17.5196 25.1053 17.2652 24.9999 17 24.9999H15C14.7348 24.9999 14.4804 25.1053 14.2929 25.2928C14.1054 25.4803 14 25.7347 14 25.9999C14 26.2651 14.1054 26.5195 14.2929 26.707C14.4804 26.8946 14.7348 26.9999 15 26.9999ZM29.707 14.2929L25.707 10.2929C25.5184 10.1108 25.2658 10.01 25.0036 10.0122C24.7414 10.0145 24.4906 10.1197 24.3052 10.3051C24.1198 10.4905 24.0146 10.7413 24.0123 11.0035C24.01 11.2657 24.1108 11.5183 24.293 11.7069L26.586 13.9999H21C20.7348 13.9999 20.4804 14.1053 20.2929 14.2928C20.1054 14.4803 20 14.7347 20 14.9999C20 15.2651 20.1054 15.5195 20.2929 15.707C20.4804 15.8946 20.7348 15.9999 21 15.9999H26.586L24.293 18.2929C24.1108 18.4815 24.01 18.7341 24.0123 18.9963C24.0146 19.2585 24.1198 19.5093 24.3052 19.6947C24.4906 19.8801 24.7414 19.9853 25.0036 19.9876C25.2658 19.9899 25.5184 19.8891 25.707 19.7069L29.707 15.7069C29.8945 15.5194 29.9998 15.2651 29.9998 14.9999C29.9998 14.7348 29.8945 14.4804 29.707 14.2929Z"/></svg>