<svg width="32" height="32" viewBox="0 0 32 32" fill="none" xmlns="http://www.w3.org/2000/svg">
<path d="M12.0002 6.4996C11.8676 6.4996 11.7405 6.55228 11.6467 6.64605C11.5529 6.73981 11.5002 6.86699 11.5002 6.9996C11.5002 7.13221 11.5529 7.25939 11.6467 7.35315C11.7405 7.44692 11.8676 7.4996 12.0002 7.4996H16.0002C16.1329 7.4996 16.26 7.44692 16.3538 7.35315C16.4476 7.25939 16.5002 7.13221 16.5002 6.9996C16.5002 6.86699 16.4476 6.73981 16.3538 6.64605C16.26 6.55228 16.1329 6.4996 16.0002 6.4996H12.0002Z" fill="black"/>
<path d="M20 7.49996C20.2761 7.49996 20.5 7.2761 20.5 6.99996C20.5 6.72382 20.2761 6.49996 20 6.49996C19.7239 6.49996 19.5 6.72382 19.5 6.99996C19.5 7.2761 19.7239 7.49996 20 7.49996Z" fill="black"/>
<path d="M25.0002 23.4498C24.9346 23.4498 24.8695 23.4627 24.8089 23.4878C24.7482 23.5129 24.693 23.5497 24.6466 23.5962C24.6002 23.6426 24.5633 23.6977 24.5382 23.7584C24.5131 23.8191 24.5002 23.8841 24.5002 23.9498V24.9996C24.4991 25.9275 24.13 26.8171 23.4739 27.4732C22.8177 28.1294 21.9282 28.4985 21.0002 28.4996H11.0002C10.0723 28.4985 9.18274 28.1294 8.52661 27.4732C7.87048 26.8171 7.50137 25.9275 7.50024 24.9996V6.9996C7.50137 6.07169 7.87048 5.1821 8.52661 4.52597C9.18274 3.86983 10.0723 3.50072 11.0002 3.4996H21.0002C21.9282 3.50072 22.8177 3.86983 23.4739 4.52597C24.13 5.1821 24.4991 6.07169 24.5002 6.9996V7.9996C24.5002 8.13221 24.5529 8.25939 24.6467 8.35315C24.7405 8.44692 24.8676 8.4996 25.0002 8.4996C25.1329 8.4996 25.26 8.44692 25.3538 8.35315C25.4476 8.25939 25.5002 8.13221 25.5002 7.9996V6.9996C25.4989 5.80653 25.0244 4.66269 24.1808 3.81906C23.3372 2.97543 22.1933 2.5009 21.0002 2.4996H11.0002C9.80717 2.5009 8.66333 2.97542 7.8197 3.81905C6.97607 4.66269 6.50154 5.80652 6.50024 6.9996V24.9996C6.50155 26.1927 6.97607 27.3365 7.8197 28.1801C8.66333 29.0238 9.80717 29.4983 11.0002 29.4996H21.0002C22.1933 29.4983 23.3372 29.0238 24.1808 28.1801C25.0244 27.3365 25.4989 26.1927 25.5002 24.9996V23.9498C25.5003 23.8841 25.4874 23.8191 25.4623 23.7584C25.4371 23.6977 25.4003 23.6426 25.3539 23.5962C25.3074 23.5497 25.2523 23.5129 25.1916 23.4878C25.131 23.4627 25.0659 23.4498 25.0002 23.4498Z" fill="black"/>
<path d="M28.3538 15.6461L24.3538 11.6461C24.3075 11.5989 24.2524 11.5613 24.1915 11.5356C24.1306 11.5098 24.0653 11.4964 23.9992 11.4961C23.9331 11.4957 23.8676 11.5085 23.8065 11.5336C23.7454 11.5588 23.6899 11.5958 23.6432 11.6425C23.5964 11.6892 23.5594 11.7447 23.5343 11.8059C23.5092 11.867 23.4964 11.9325 23.4967 11.9985C23.4971 12.0646 23.5105 12.13 23.5363 12.1908C23.562 12.2517 23.5996 12.3068 23.6468 12.3531L26.7932 15.4996H20.0002C19.8676 15.4996 19.7405 15.5522 19.6467 15.646C19.5529 15.7398 19.5002 15.867 19.5002 15.9996C19.5002 16.1322 19.5529 16.2594 19.6467 16.3531C19.7405 16.4469 19.8676 16.4996 20.0002 16.4996H26.7932L23.6468 19.646C23.5996 19.6923 23.562 19.7474 23.5363 19.8083C23.5105 19.8692 23.4971 19.9345 23.4967 20.0006C23.4964 20.0667 23.5092 20.1322 23.5343 20.1933C23.5594 20.2544 23.5964 20.3099 23.6432 20.3566C23.6899 20.4034 23.7454 20.4404 23.8065 20.4655C23.8676 20.4906 23.9331 20.5034 23.9992 20.5031C24.0653 20.5027 24.1306 20.4893 24.1915 20.4636C24.2524 20.4378 24.3075 20.4002 24.3538 20.3531L28.3538 16.353C28.4002 16.3066 28.437 16.2515 28.4621 16.1909C28.4873 16.1302 28.5002 16.0652 28.5002 15.9996C28.5002 15.9339 28.4873 15.8689 28.4621 15.8083C28.437 15.7476 28.4002 15.6925 28.3538 15.6461Z" fill="black"/>
</svg>
