<svg width="32" height="32" viewBox="0 0 32 32" fill="none" xmlns="http://www.w3.org/2000/svg">
<path d="M20.4697 14.5299L24.4697 18.5299C24.5393 18.5997 24.622 18.6552 24.713 18.6931C24.8041 18.7309 24.9017 18.7505 25.0003 18.7506C25.0989 18.7507 25.1965 18.7313 25.2876 18.6936C25.3788 18.6559 25.4616 18.6006 25.5313 18.5309C25.601 18.4612 25.6563 18.3784 25.694 18.2873C25.7317 18.1962 25.751 18.0985 25.7509 17.9999C25.7508 17.9013 25.7313 17.8037 25.6934 17.7126C25.6556 17.6216 25.6001 17.5389 25.5302 17.4693L22.8105 14.7496H29.001C29.1999 14.7496 29.3907 14.6706 29.5313 14.5299C29.672 14.3893 29.751 14.1985 29.751 13.9996C29.751 13.8007 29.672 13.6099 29.5313 13.4693C29.3907 13.3286 29.1999 13.2496 29.001 13.2496H22.8105L25.5302 10.5299C25.6704 10.3891 25.749 10.1985 25.7489 9.9999C25.7487 9.80126 25.6697 9.61082 25.5292 9.47036C25.3887 9.32991 25.1983 9.25091 24.9997 9.25072C24.801 9.25053 24.6104 9.32915 24.4697 9.46933L20.4697 13.4693C20.4 13.539 20.3448 13.6216 20.3071 13.7126C20.2694 13.8036 20.25 13.9011 20.25 13.9996C20.25 14.0981 20.2694 14.1956 20.3071 14.2866C20.3448 14.3776 20.4 14.4602 20.4697 14.5299Z" fill="black"/>
<path d="M28.205 21.2496H5.74999V10.1353C5.73332 9.25577 6.06606 8.40546 6.67527 7.77081C7.28448 7.13615 8.12047 6.76892 8.99999 6.7496H23C23.1989 6.7496 23.3897 6.67058 23.5303 6.52993C23.671 6.38928 23.75 6.19851 23.75 5.9996C23.75 5.80069 23.671 5.60992 23.5303 5.46927C23.3897 5.32862 23.1989 5.2496 23 5.2496H8.99999C7.72274 5.26924 6.5054 5.79461 5.61496 6.7105C4.72451 7.6264 4.23364 8.85804 4.24999 10.1353V21.2496H3.7949C3.55873 21.2485 3.3255 21.3019 3.11329 21.4055C2.90108 21.5092 2.7156 21.6603 2.57126 21.8472C2.42818 22.0295 2.32907 22.2423 2.28164 22.4691C2.23422 22.6959 2.23976 22.9306 2.29783 23.1549C2.56556 24.1886 3.17054 25.1035 4.01695 25.7547C4.86336 26.4058 5.90281 26.7559 6.97068 26.7496H25.0293C26.097 26.7559 27.1363 26.4059 27.9827 25.755C28.8291 25.1041 29.4342 24.1894 29.7021 23.1558C29.7602 22.9314 29.7658 22.6965 29.7184 22.4696C29.671 22.2426 29.5718 22.0297 29.4287 21.8472C29.2843 21.6603 29.0989 21.5092 28.8867 21.4055C28.6744 21.3019 28.4412 21.2485 28.205 21.2496ZM25.0293 25.2496H6.97068C6.23484 25.2605 5.51764 25.018 4.93939 24.5628C4.36115 24.1076 3.95705 23.4674 3.7949 22.7496H28.205L28.249 22.7857C28.0629 23.4961 27.6452 24.124 27.062 24.5703C26.4789 25.0165 25.7636 25.2556 25.0293 25.2496Z" fill="black"/>
</svg>
