<svg xmlns="http://www.w3.org/2000/svg" width="32" height="32" viewBox="0 0 32 32"><path d="M12 6.5C11.8674 6.5 11.7402 6.55268 11.6464 6.64645C11.5527 6.74021 11.5 6.86739 11.5 7C11.5 7.13261 11.5527 7.25979 11.6464 7.35355C11.7402 7.44732 11.8674 7.5 12 7.5H16C16.1326 7.5 16.2598 7.44732 16.3536 7.35355C16.4473 7.25979 16.5 7.13261 16.5 7C16.5 6.86739 16.4473 6.74021 16.3536 6.64645C16.2598 6.55268 16.1326 6.5 16 6.5H12ZM20 7.5C20.1326 7.5 20.2598 7.44732 20.3536 7.35355C20.4473 7.25979 20.5 7.13261 20.5 7C20.5 6.86739 20.4473 6.74021 20.3536 6.64645C20.2598 6.55268 20.1326 6.5 20 6.5C19.8674 6.5 19.7402 6.55268 19.6464 6.64645C19.5527 6.74021 19.5 6.86739 19.5 7C19.5 7.13261 19.5527 7.25979 19.6464 7.35355C19.7402 7.44732 19.8674 7.5 20 7.5Z M25 23.45C24.8674 23.45 24.7402 23.5027 24.6464 23.5964C24.5527 23.6902 24.5 23.8174 24.5 23.95V25C24.4989 25.9279 24.1299 26.8176 23.4737 27.4737C22.8176 28.1299 21.9279 28.4989 21 28.5H11C10.0721 28.4989 9.18244 28.1299 8.5263 27.4737C7.87015 26.8176 7.50106 25.9279 7.5 25V7C7.50106 6.07207 7.87015 5.18244 8.5263 4.5263C9.18244 3.87015 10.0721 3.50106 11 3.5H21C21.9279 3.50106 22.8176 3.87015 23.4737 4.5263C24.1299 5.18244 24.4989 6.07207 24.5 7V8C24.5 8.13261 24.5527 8.25979 24.6464 8.35355C24.7402 8.44732 24.8674 8.5 25 8.5C25.1326 8.5 25.2598 8.44732 25.3536 8.35355C25.4473 8.25979 25.5 8.13261 25.5 8V7C25.4987 5.80693 25.0241 4.66311 24.1805 3.81948C23.3369 2.97585 22.1931 2.50132 21 2.5H11C9.80693 2.50132 8.66311 2.97585 7.81948 3.81948C6.97585 4.66311 6.50132 5.80693 6.5 7V25C6.50132 26.1931 6.97585 27.3369 7.81948 28.1805C8.66311 29.0241 9.80693 29.4987 11 29.5H21C22.1931 29.4987 23.3369 29.0241 24.1805 28.1805C25.0241 27.3369 25.4987 26.1931 25.5 25V23.95C25.5001 23.8843 25.4873 23.8192 25.4622 23.7585C25.4371 23.6978 25.4003 23.6426 25.3538 23.5962C25.3074 23.5497 25.2522 23.5129 25.1915 23.4878C25.1308 23.4627 25.0657 23.4499 25 23.45Z M28.354 15.6458L24.354 11.6458C24.3079 11.5981 24.2527 11.56 24.1917 11.5338C24.1307 11.5076 24.0651 11.4938 23.9987 11.4932C23.9323 11.4926 23.8665 11.5053 23.805 11.5304C23.7436 11.5555 23.6877 11.5927 23.6408 11.6396C23.5939 11.6866 23.5567 11.7424 23.5316 11.8038C23.5064 11.8653 23.4938 11.9311 23.4944 11.9975C23.495 12.0639 23.5087 12.1295 23.5349 12.1905C23.5612 12.2515 23.5992 12.3067 23.647 12.3528L26.793 15.4998H20C19.9343 15.4998 19.8693 15.5127 19.8087 15.5379C19.748 15.563 19.6929 15.5998 19.6464 15.6463C19.6 15.6927 19.5632 15.7478 19.5381 15.8085C19.5129 15.8691 19.5 15.9341 19.5 15.9998C19.5 16.0655 19.5129 16.1305 19.5381 16.1911C19.5632 16.2518 19.6 16.3069 19.6464 16.3534C19.6929 16.3998 19.748 16.4366 19.8087 16.4617C19.8693 16.4869 19.9343 16.4998 20 16.4998H26.793L23.647 19.6458C23.5992 19.6919 23.5612 19.7471 23.5349 19.8081C23.5087 19.8691 23.495 19.9347 23.4944 20.0011C23.4938 20.0675 23.5064 20.1333 23.5316 20.1948C23.5567 20.2562 23.5939 20.3121 23.6408 20.359C23.6877 20.406 23.7436 20.4431 23.805 20.4682C23.8665 20.4934 23.9323 20.506 23.9987 20.5054C24.0651 20.5049 24.1307 20.4911 24.1917 20.4649C24.2527 20.4387 24.3079 20.4006 24.354 20.3528L28.354 16.3528C28.4477 16.259 28.5004 16.1319 28.5004 15.9993C28.5004 15.8667 28.4477 15.7396 28.354 15.6458Z"/></svg>