<svg xmlns="http://www.w3.org/2000/svg" width="32" height="32" viewBox="0 0 32 32"><path d="M12 6.25C11.8011 6.25 11.6103 6.32902 11.4697 6.46967C11.329 6.61032 11.25 6.80109 11.25 7C11.25 7.19891 11.329 7.38968 11.4697 7.53033C11.6103 7.67098 11.8011 7.75 12 7.75H16C16.1989 7.75 16.3897 7.67098 16.5303 7.53033C16.671 7.38968 16.75 7.19891 16.75 7C16.75 6.80109 16.671 6.61032 16.5303 6.46967C16.3897 6.32902 16.1989 6.25 16 6.25H12ZM20 7.75C20.1989 7.75 20.3897 7.67098 20.5303 7.53033C20.671 7.38968 20.75 7.19891 20.75 7C20.75 6.80109 20.671 6.61032 20.5303 6.46967C20.3897 6.32902 20.1989 6.25 20 6.25C19.8011 6.25 19.6103 6.32902 19.4697 6.46967C19.329 6.61032 19.25 6.80109 19.25 7C19.25 7.19891 19.329 7.38968 19.4697 7.53033C19.6103 7.67098 19.8011 7.75 20 7.75Z M25 23.2C24.8011 23.2 24.6103 23.279 24.4697 23.4197C24.329 23.5603 24.25 23.7511 24.25 23.95V25C24.2489 25.8616 23.9062 26.6877 23.2969 27.2969C22.6877 27.9062 21.8616 28.2489 21 28.25H11C10.1384 28.2489 9.31234 27.9062 8.70307 27.2969C8.09381 26.6877 7.75106 25.8616 7.75 25V7C7.75106 6.13837 8.09381 5.31234 8.70307 4.70307C9.31234 4.09381 10.1384 3.75106 11 3.75H21C21.8616 3.75106 22.6877 4.09381 23.2969 4.70307C23.9062 5.31234 24.2489 6.13837 24.25 7V8C24.25 8.19891 24.329 8.38968 24.4697 8.53033C24.6103 8.67098 24.8011 8.75 25 8.75C25.1989 8.75 25.3897 8.67098 25.5303 8.53033C25.671 8.38968 25.75 8.19891 25.75 8V7C25.7487 5.74063 25.2478 4.53322 24.3573 3.6427C23.4668 2.75219 22.2594 2.25132 21 2.25H11C9.74063 2.25132 8.53322 2.75219 7.6427 3.6427C6.75219 4.53322 6.25132 5.74063 6.25 7V25C6.25159 26.2593 6.75254 27.4666 7.643 28.357C8.53345 29.2475 9.74071 29.7484 11 29.75H21C22.2594 29.7487 23.4668 29.2478 24.3573 28.3573C25.2478 27.4668 25.7487 26.2594 25.75 25V23.95C25.75 23.7511 25.671 23.5603 25.5303 23.4197C25.3897 23.279 25.1989 23.2 25 23.2Z M28.53 15.4698L24.53 11.4698C24.3878 11.3374 24.1998 11.2652 24.0055 11.2687C23.8112 11.2721 23.6258 11.3508 23.4884 11.4882C23.351 11.6256 23.2723 11.811 23.2688 12.0053C23.2654 12.1996 23.3375 12.3877 23.47 12.5298L26.19 15.2498H20C19.8011 15.2498 19.6103 15.3289 19.4697 15.4695C19.329 15.6102 19.25 15.8009 19.25 15.9998C19.25 16.1988 19.329 16.3895 19.4697 16.5302C19.6103 16.6708 19.8011 16.7498 20 16.7498H26.19L23.47 19.4698C23.3963 19.5385 23.3372 19.6213 23.2962 19.7133C23.2552 19.8053 23.2332 19.9046 23.2314 20.0053C23.2296 20.106 23.2482 20.2061 23.2859 20.2994C23.3236 20.3928 23.3797 20.4777 23.451 20.5489C23.5222 20.6201 23.607 20.6762 23.7004 20.714C23.7938 20.7517 23.8938 20.7702 23.9945 20.7684C24.0952 20.7667 24.1945 20.7446 24.2865 20.7036C24.3785 20.6626 24.4613 20.6035 24.53 20.5298L28.53 16.5298C28.6705 16.3892 28.7493 16.1986 28.7493 15.9998C28.7493 15.8011 28.6705 15.6105 28.53 15.4698Z"/></svg>