<svg xmlns="http://www.w3.org/2000/svg" width="32" height="32" viewBox="0 0 32 32"><path d="M25 22.5H7.5V7C7.50106 6.07207 7.87015 5.18244 8.5263 4.5263C9.18244 3.87015 10.0721 3.50106 11 3.5H21C21.7759 3.49963 22.5299 3.75708 23.1435 4.23187C23.7571 4.70666 24.1956 5.37189 24.39 6.123C24.4052 6.18781 24.4333 6.24893 24.4724 6.30276C24.5116 6.3566 24.5611 6.40206 24.6181 6.4365C24.6751 6.47093 24.7384 6.49364 24.8043 6.50329C24.8702 6.51293 24.9373 6.50933 25.0018 6.49268C25.0662 6.47603 25.1267 6.44667 25.1797 6.40633C25.2326 6.36599 25.277 6.31548 25.3102 6.25776C25.3434 6.20004 25.3647 6.13627 25.3729 6.0702C25.3811 6.00413 25.3761 5.93709 25.358 5.873C25.1082 4.90727 24.5446 4.05192 23.7557 3.44137C22.9669 2.83083 21.9975 2.49969 21 2.5H11C9.80693 2.50132 8.66311 2.97585 7.81948 3.81948C6.97585 4.66311 6.50132 5.80693 6.5 7V25C6.50132 26.1931 6.97585 27.3369 7.81948 28.1805C8.66311 29.0241 9.80693 29.4987 11 29.5H21C22.1931 29.4987 23.3369 29.0241 24.1805 28.1805C25.0241 27.3369 25.4987 26.1931 25.5 25V23C25.4997 22.8675 25.447 22.7404 25.3533 22.6467C25.2596 22.553 25.1325 22.5003 25 22.5ZM24.5 25C24.4989 25.9279 24.1299 26.8176 23.4737 27.4737C22.8176 28.1299 21.9279 28.4989 21 28.5H11C10.0721 28.4989 9.18244 28.1299 8.5263 27.4737C7.87015 26.8176 7.50106 25.9279 7.5 25V23.5H24.5V25Z M22.354 8.35322C22.4451 8.25891 22.4955 8.13261 22.4943 8.00152C22.4932 7.87042 22.4406 7.74501 22.3479 7.65231C22.2552 7.5596 22.1298 7.50702 21.9987 7.50588C21.8676 7.50474 21.7413 7.55514 21.647 7.64622L18.647 10.6472C18.5533 10.741 18.5006 10.8681 18.5006 11.0007C18.5006 11.1333 18.5533 11.2605 18.647 11.3542L21.647 14.3542C21.7409 14.448 21.8682 14.5006 22.0009 14.5005C22.1335 14.5004 22.2607 14.4476 22.3545 14.3537C22.4483 14.2598 22.5009 14.1325 22.5008 13.9999C22.5007 13.8672 22.4479 13.74 22.354 13.6462L20.208 11.5012H28C28.1326 11.5012 28.2598 11.4485 28.3536 11.3548C28.4473 11.261 28.5 11.1338 28.5 11.0012C28.5 10.8686 28.4473 10.7414 28.3536 10.6477C28.2598 10.5539 28.1326 10.5012 28 10.5012H20.208L22.354 8.35322ZM29.354 16.6462L26.354 13.6462C26.2602 13.5525 26.1331 13.4998 26.0005 13.4998C25.8679 13.4998 25.7408 13.5525 25.647 13.6462C25.5532 13.74 25.5006 13.8671 25.5006 13.9997C25.5006 14.1323 25.5532 14.2595 25.647 14.3532L27.793 16.5002H20.001C19.8684 16.5002 19.7412 16.5529 19.6474 16.6467C19.5537 16.7404 19.501 16.8676 19.501 17.0002C19.501 17.1328 19.5537 17.26 19.6474 17.3538C19.7412 17.4475 19.8684 17.5002 20.001 17.5002H27.793L25.647 19.6462C25.5992 19.6923 25.5612 19.7475 25.5349 19.8085C25.5087 19.8695 25.495 19.9351 25.4944 20.0015C25.4938 20.0679 25.5064 20.1337 25.5316 20.1952C25.5567 20.2566 25.5939 20.3125 25.6408 20.3594C25.6877 20.4064 25.7436 20.4435 25.805 20.4686C25.8665 20.4938 25.9323 20.5064 25.9987 20.5058C26.0651 20.5053 26.1307 20.4915 26.1917 20.4653C26.2527 20.4391 26.3079 20.401 26.354 20.3532L29.354 17.3532C29.4007 17.3069 29.4377 17.2519 29.4629 17.1912C29.4882 17.1305 29.5012 17.0654 29.5012 16.9997C29.5012 16.934 29.4882 16.8689 29.4629 16.8082C29.4377 16.7476 29.4007 16.6925 29.354 16.6462ZM15 26.5002H17C17.1326 26.5002 17.2598 26.4475 17.3536 26.3538C17.4473 26.26 17.5 26.1328 17.5 26.0002C17.5 25.8676 17.4473 25.7404 17.3536 25.6467C17.2598 25.5529 17.1326 25.5002 17 25.5002H15C14.8674 25.5002 14.7402 25.5529 14.6464 25.6467C14.5527 25.7404 14.5 25.8676 14.5 26.0002C14.5 26.1328 14.5527 26.26 14.6464 26.3538C14.7402 26.4475 14.8674 26.5002 15 26.5002Z"/></svg>