<svg xmlns="http://www.w3.org/2000/svg" width="32" height="32" viewBox="0 0 32 32"><path d="M12 6.25C11.8011 6.25 11.6103 6.32902 11.4697 6.46967C11.329 6.61032 11.25 6.80109 11.25 7C11.25 7.19891 11.329 7.38968 11.4697 7.53033C11.6103 7.67098 11.8011 7.75 12 7.75H16C16.1989 7.75 16.3897 7.67098 16.5303 7.53033C16.671 7.38968 16.75 7.19891 16.75 7C16.75 6.80109 16.671 6.61032 16.5303 6.46967C16.3897 6.32902 16.1989 6.25 16 6.25H12ZM20 7.75C20.1989 7.75 20.3897 7.67098 20.5303 7.53033C20.671 7.38968 20.75 7.19891 20.75 7C20.75 6.80109 20.671 6.61032 20.5303 6.46967C20.3897 6.32902 20.1989 6.25 20 6.25C19.8011 6.25 19.6103 6.32902 19.4697 6.46967C19.329 6.61032 19.25 6.80109 19.25 7C19.25 7.19891 19.329 7.38968 19.4697 7.53033C19.6103 7.67098 19.8011 7.75 20 7.75Z M25 23.2C24.8011 23.2 24.6103 23.279 24.4697 23.4197C24.329 23.5603 24.25 23.7511 24.25 23.95V25C24.2489 25.8616 23.9062 26.6877 23.2969 27.2969C22.6877 27.9062 21.8616 28.2489 21 28.25H11C10.1384 28.2489 9.31234 27.9062 8.70307 27.2969C8.09381 26.6877 7.75106 25.8616 7.75 25V7C7.75106 6.13837 8.09381 5.31234 8.70307 4.70307C9.31234 4.09381 10.1384 3.75106 11 3.75H21C21.8616 3.75106 22.6877 4.09381 23.2969 4.70307C23.9062 5.31234 24.2489 6.13837 24.25 7V8C24.25 8.19891 24.329 8.38968 24.4697 8.53033C24.6103 8.67098 24.8011 8.75 25 8.75C25.1989 8.75 25.3897 8.67098 25.5303 8.53033C25.671 8.38968 25.75 8.19891 25.75 8V7C25.7487 5.74063 25.2478 4.53322 24.3573 3.6427C23.4668 2.75219 22.2594 2.25132 21 2.25H11C9.74063 2.25132 8.53322 2.75219 7.6427 3.6427C6.75219 4.53322 6.25132 5.74063 6.25 7V25C6.25159 26.2593 6.75254 27.4666 7.643 28.357C8.53345 29.2475 9.74071 29.7484 11 29.75H21C22.2594 29.7487 23.4668 29.2478 24.3573 28.3573C25.2478 27.4668 25.7487 26.2594 25.75 25V23.95C25.75 23.7511 25.671 23.5603 25.5303 23.4197C25.3897 23.279 25.1989 23.2 25 23.2Z M28.9999 15.2498H22.8099L25.5299 12.5298C25.6624 12.3877 25.7345 12.1996 25.7311 12.0053C25.7277 11.811 25.6489 11.6256 25.5115 11.4882C25.3741 11.3508 25.1887 11.2721 24.9944 11.2687C24.8001 11.2652 24.6121 11.3374 24.4699 11.4698L20.4699 15.4698C20.3297 15.6106 20.251 15.8012 20.251 15.9998C20.251 16.1985 20.3297 16.3891 20.4699 16.5298L24.4699 20.5298C24.6108 20.6701 24.8016 20.7489 25.0004 20.7489C25.1992 20.7489 25.39 20.6701 25.5309 20.5298C25.6714 20.3892 25.7502 20.1986 25.7502 19.9998C25.7502 19.8011 25.6714 19.6105 25.5309 19.4698L22.8109 16.7498H28.9999C29.1988 16.7498 29.3896 16.6708 29.5302 16.5302C29.6709 16.3895 29.7499 16.1988 29.7499 15.9998C29.7499 15.8009 29.6709 15.6102 29.5302 15.4695C29.3896 15.3289 29.1988 15.2498 28.9999 15.2498Z"/></svg>