<svg xmlns="http://www.w3.org/2000/svg" width="32" height="32" viewBox="0 0 32 32"><path d="M20.4699 14.5301L24.4699 18.5301C24.6108 18.6703 24.8015 18.7491 25.0004 18.7491C25.1992 18.7491 25.3899 18.6703 25.5309 18.5301C25.6713 18.3894 25.7502 18.1988 25.7502 18.0001C25.7502 17.8013 25.6713 17.6107 25.5309 17.4701L22.8109 14.7501H28.9999C29.1988 14.7501 29.3895 14.671 29.5302 14.5304C29.6708 14.3897 29.7499 14.199 29.7499 14.0001C29.7499 13.8011 29.6708 13.6104 29.5302 13.4697C29.3895 13.3291 29.1988 13.2501 28.9999 13.2501H22.8099L25.5299 10.5301C25.6664 10.3885 25.7419 10.1991 25.7401 10.0024C25.7383 9.80576 25.6593 9.61769 25.5202 9.4787C25.3811 9.33971 25.193 9.26092 24.9963 9.2593C24.7997 9.25769 24.6102 9.33337 24.4689 9.47006L20.4689 13.4701C20.3284 13.6107 20.2495 13.8013 20.2495 14.0001C20.2495 14.1988 20.3284 14.3894 20.4689 14.5301H20.4699Z M28.2052 21.25H5.75018V10.135C5.73382 9.25559 6.06669 8.40554 6.67585 7.77107C7.28502 7.13659 8.12083 6.76943 9.00018 6.75H23.0002C23.1991 6.75 23.3899 6.67098 23.5305 6.53033C23.6712 6.38968 23.7502 6.19891 23.7502 6C23.7502 5.80109 23.6712 5.61032 23.5305 5.46967C23.3899 5.32902 23.1991 5.25 23.0002 5.25H9.00018C7.72309 5.26975 6.50594 5.79506 5.61554 6.71077C4.72514 7.62647 4.23414 8.85786 4.25018 10.135V21.25H3.79518C3.44104 21.2479 3.09705 21.3682 2.82136 21.5905C2.54567 21.8128 2.35521 22.1235 2.28218 22.47C2.23418 22.696 2.24018 22.93 2.29818 23.155C2.56588 24.1887 3.17072 25.1035 4.01695 25.7546C4.86318 26.4058 5.90244 26.7561 6.97018 26.75H25.0282C26.096 26.7563 27.1353 26.4063 27.9818 25.7553C28.8282 25.1044 29.4332 24.1896 29.7012 23.156C29.7594 22.9315 29.765 22.6966 29.7177 22.4696C29.6703 22.2426 29.5713 22.0295 29.4282 21.847C29.2837 21.6602 29.0981 21.5092 28.8859 21.4056C28.6736 21.3021 28.4403 21.2489 28.2042 21.25H28.2052ZM25.0292 25.25H6.97118C6.23531 25.261 5.51805 25.0185 4.93976 24.5633C4.36147 24.1081 3.95734 23.4679 3.79518 22.75H28.2052L28.2492 22.786C28.0632 23.4965 27.6455 24.1245 27.0622 24.5709C26.479 25.0172 25.7636 25.2561 25.0292 25.25Z"/></svg>