<svg width="32" height="32" viewBox="0 0 32 32" fill="none" xmlns="http://www.w3.org/2000/svg">
<path d="M20.7231 13.0456H27.2863C27.9063 13.0456 28.409 13.5483 28.409 14.1683V20.1465C28.409 22.4254 26.5616 24.2728 24.2827 24.2728H24.2632C21.9843 24.2731 20.1367 22.426 20.1363 20.1471C20.1363 20.1469 20.1363 20.1467 20.1363 20.1465V13.6323C20.1363 13.3083 20.3991 13.0456 20.7231 13.0456Z" fill="#5059C9"/>
<path d="M25.1591 11.8637C26.6276 11.8637 27.8181 10.6732 27.8181 9.20463C27.8181 7.73607 26.6276 6.54556 25.1591 6.54556C23.6905 6.54556 22.5 7.73607 22.5 9.20463C22.5 10.6732 23.6905 11.8637 25.1591 11.8637Z" fill="#5059C9"/>
<path d="M16.8861 11.8637C19.0074 11.8637 20.727 10.1441 20.727 8.02278C20.727 5.9015 19.0074 4.18185 16.8861 4.18185C14.7648 4.18185 13.0452 5.9015 13.0452 8.02278C13.0452 10.1441 14.7648 11.8637 16.8861 11.8637Z" fill="#7B83EB"/>
<path d="M22.0074 13.0456H11.1737C10.5611 13.0608 10.0764 13.5691 10.0906 14.1818V21.0003C10.005 24.6771 12.9139 27.7283 16.5906 27.8183C20.2673 27.7283 23.1761 24.6772 23.0906 21.0003V14.1818C23.1047 13.5692 22.6201 13.0608 22.0074 13.0456Z" fill="#7B83EB"/>
<path opacity="0.1" d="M17.1815 13.0456V22.6006C17.1786 23.0387 16.913 23.4324 16.5078 23.5992C16.3788 23.6537 16.2401 23.6819 16.1001 23.6819H10.6106C10.5339 23.4869 10.4629 23.2919 10.4039 23.091C10.197 22.413 10.0915 21.7081 10.0906 20.9992V14.1801C10.0764 13.5684 10.5603 13.0608 11.172 13.0456H17.1815Z" fill="black"/>
<path opacity="0.2" d="M16.5906 13.0456V23.1915C16.5906 23.3316 16.5624 23.4703 16.5079 23.5992C16.3411 24.0044 15.9475 24.2699 15.5093 24.2729H10.8884C10.7879 24.0779 10.6934 23.8828 10.6106 23.6819C10.5279 23.481 10.4629 23.2919 10.4039 23.091C10.197 22.413 10.0915 21.7081 10.0906 20.9992V14.1801C10.0764 13.5684 10.5603 13.0608 11.172 13.0456H16.5906Z" fill="black"/>
<path opacity="0.2" d="M16.5907 13.0456V22.0096C16.5863 22.6049 16.1047 23.0865 15.5094 23.091H10.4039C10.197 22.413 10.0915 21.7081 10.0906 20.9992V14.1801C10.0764 13.5684 10.5603 13.0608 11.172 13.0456H16.5907Z" fill="black"/>
<path opacity="0.2" d="M15.9998 13.0456V22.0096C15.9953 22.6049 15.5138 23.0865 14.9184 23.091H10.4039C10.197 22.413 10.0915 21.7081 10.0906 20.9992V14.1801C10.0764 13.5684 10.5603 13.0608 11.172 13.0456H15.9998Z" fill="black"/>
<path opacity="0.1" d="M17.1814 9.99023V11.8516C17.081 11.8575 16.9864 11.8634 16.886 11.8634C16.7856 11.8634 16.691 11.8574 16.5906 11.8516C16.3911 11.8383 16.1933 11.8067 15.9996 11.757C14.8031 11.4737 13.8144 10.6345 13.3406 9.49981C13.259 9.30927 13.1957 9.11143 13.1515 8.90887H16.1001C16.6963 8.91115 17.1792 9.39394 17.1814 9.99023Z" fill="black"/>
<path opacity="0.2" d="M16.5911 10.5814V11.8518C16.3917 11.8385 16.1939 11.8068 16.0002 11.7572C14.8036 11.4739 13.815 10.6347 13.3411 9.5H15.5098C16.1061 9.50227 16.5889 9.98506 16.5911 10.5814Z" fill="black"/>
<path opacity="0.2" d="M16.5911 10.5814V11.8518C16.3917 11.8385 16.1939 11.8068 16.0002 11.7572C14.8036 11.4739 13.815 10.6347 13.3411 9.5H15.5098C16.1061 9.50227 16.5889 9.98506 16.5911 10.5814Z" fill="black"/>
<path opacity="0.2" d="M16.0002 10.5814V11.7573C14.8036 11.4739 13.815 10.6347 13.3411 9.5H14.9188C15.5151 9.50227 15.9979 9.98506 16.0002 10.5814Z" fill="black"/>
<path d="M4.08314 9.5H14.9169C15.515 9.5 16 9.98498 16 10.5831V21.4169C16 22.015 15.515 22.5 14.9169 22.5H4.08314C3.48498 22.5 3 22.015 3 21.4169V10.5831C3 9.98498 3.48498 9.5 4.08314 9.5Z" fill="url(#paint0_linear_20608_5333)"/>
<path d="M12.3503 13.6234H10.1845V19.5207H8.80475V13.6234H6.64911V12.4794H12.3502C12.3503 12.4794 12.3503 13.6234 12.3503 13.6234Z" fill="white"/>
<defs>
<linearGradient id="paint0_linear_20608_5333" x1="5.25834" y1="8.6537" x2="13.7417" y2="23.3463" gradientUnits="userSpaceOnUse">
<stop stop-color="#5A62C3"/>
<stop offset="0.5" stop-color="#4D55BD"/>
<stop offset="1" stop-color="#3940AB"/>
</linearGradient>
</defs>
</svg>
