<svg xmlns="http://www.w3.org/2000/svg" width="32" height="32" viewBox="0 0 32 32"><path d="M25.0001 2H13.0001C11.6745 2.00159 10.4036 2.52888 9.46629 3.46622C8.52895 4.40356 8.00166 5.67441 8.00007 7V12H6.99707C5.67148 12.0016 4.40063 12.5289 3.46329 13.4662C2.52595 14.4036 1.99866 15.6744 1.99707 17V25C1.99866 26.3256 2.52595 27.5964 3.46329 28.5338C4.40063 29.4711 5.67148 29.9984 6.99707 30H18.9971C20.3227 29.9984 21.5935 29.4711 22.5309 28.5338C23.4682 27.5964 23.9955 26.3256 23.9971 25V20H25.0001C26.3257 19.9984 27.5965 19.4711 28.5339 18.5338C29.4712 17.5964 29.9985 16.3256 30.0001 15V7C29.9987 5.67432 29.4715 4.40332 28.5341 3.46593C27.5967 2.52853 26.3257 2.00132 25.0001 2ZM21.9971 25C21.9963 25.7954 21.68 26.558 21.1175 27.1204C20.5551 27.6829 19.7925 27.9992 18.9971 28H6.99707C6.20166 27.9992 5.43906 27.6829 4.87663 27.1204C4.31419 26.558 3.99786 25.7954 3.99707 25V17C3.99786 16.2046 4.31419 15.442 4.87663 14.8796C5.43906 14.3171 6.20166 14.0008 6.99707 14H18.9971C19.7924 14.0011 20.5548 14.3175 21.1172 14.8798C21.6796 15.4422 21.996 16.2047 21.9971 17V25ZM28.0001 15C27.9993 15.7954 27.683 16.558 27.1205 17.1204C26.5581 17.6829 25.7955 17.9992 25.0001 18H23.9971V17C23.9955 15.6744 23.4682 14.4036 22.5309 13.4662C21.5935 12.5289 20.3227 12.0016 18.9971 12H10.0001V7C10.0009 6.20459 10.3172 5.44199 10.8796 4.87956C11.4421 4.31712 12.2047 4.00079 13.0001 4H25.0001C25.7955 4.00079 26.5581 4.31712 27.1205 4.87956C27.683 5.44199 27.9993 6.20459 28.0001 7V15Z M20 6H18C17.7348 6 17.4804 6.10536 17.2929 6.29289C17.1054 6.48043 17 6.73478 17 7C17 7.26522 17.1054 7.51957 17.2929 7.70711C17.4804 7.89464 17.7348 8 18 8H20C20.2652 8 20.5196 7.89464 20.7071 7.70711C20.8946 7.51957 21 7.26522 21 7C21 6.73478 20.8946 6.48043 20.7071 6.29289C20.5196 6.10536 20.2652 6 20 6ZM14 16H12C11.7348 16 11.4804 16.1054 11.2929 16.2929C11.1054 16.4804 11 16.7348 11 17C11 17.2652 11.1054 17.5196 11.2929 17.7071C11.4804 17.8946 11.7348 18 12 18H14C14.2652 18 14.5196 17.8946 14.7071 17.7071C14.8946 17.5196 15 17.2652 15 17C15 16.7348 14.8946 16.4804 14.7071 16.2929C14.5196 16.1054 14.2652 16 14 16Z"/></svg>