<svg width="32" height="32" viewBox="0 0 32 32" fill="none" xmlns="http://www.w3.org/2000/svg">
<path fill-rule="evenodd" clip-rule="evenodd" d="M5 4.5C5.27614 4.5 5.5 4.72386 5.5 5V26C5.5 26.2761 5.72386 26.5 6 26.5H27C27.2761 26.5 27.5 26.7239 27.5 27C27.5 27.2761 27.2761 27.5 27 27.5H6C5.17157 27.5 4.5 26.8284 4.5 26V5C4.5 4.72386 4.72386 4.5 5 4.5Z" fill="black"/>
<path fill-rule="evenodd" clip-rule="evenodd" d="M27.3536 14.1464C27.5488 14.3417 27.5488 14.6583 27.3536 14.8536L21.6602 20.5469C21.3083 20.8988 20.7512 20.9384 20.3531 20.6398L15.0469 16.6602L9.35355 22.3536C9.15829 22.5488 8.84171 22.5488 8.64645 22.3536C8.45118 22.1583 8.45118 21.8417 8.64645 21.6464L14.3398 15.9531C14.6917 15.6012 15.2488 15.5616 15.6469 15.8602L20.9531 19.8398L26.6464 14.1464C26.8417 13.9512 27.1583 13.9512 27.3536 14.1464Z" fill="black"/>
<path fill-rule="evenodd" clip-rule="evenodd" d="M26.3201 7.11589C26.5322 7.29267 26.5609 7.60795 26.3841 7.82009L21.6549 13.4952C21.3423 13.8703 20.8045 13.9648 20.3828 13.7188L15.0177 10.5892L9.27735 14.416C9.04759 14.5692 8.73715 14.5071 8.58397 14.2773C8.4308 14.0476 8.49289 13.7372 8.72265 13.584L14.463 9.7571C14.7808 9.54521 15.1916 9.5329 15.5215 9.72537L20.8866 12.855L25.6159 7.17991C25.7927 6.96777 26.108 6.93911 26.3201 7.11589Z" fill="black"/>
</svg>
