<svg xmlns="http://www.w3.org/2000/svg" width="32" height="32" viewBox="0 0 32 32"><path d="M5 4C5.26522 4 5.51957 4.10536 5.70711 4.29289C5.89464 4.48043 6 4.73478 6 5V26H27C27.2652 26 27.5196 26.1054 27.7071 26.2929C27.8946 26.4804 28 26.7348 28 27C28 27.2652 27.8946 27.5196 27.7071 27.7071C27.5196 27.8946 27.2652 28 27 28H6C5.46957 28 4.96086 27.7893 4.58579 27.4142C4.21071 27.0391 4 26.5304 4 26V5C4 4.73478 4.10536 4.48043 4.29289 4.29289C4.48043 4.10536 4.73478 4 5 4Z M27.7069 13.7928C27.8944 13.9803 27.9997 14.2346 27.9997 14.4998C27.9997 14.765 27.8944 15.0193 27.7069 15.2068L22.0139 20.9008C21.7586 21.1559 21.4199 21.3104 21.0598 21.3359C20.6998 21.3614 20.3427 21.2563 20.0539 21.0398L15.0939 17.3198L9.70692 22.7068C9.51832 22.8889 9.26571 22.9897 9.00352 22.9875C8.74132 22.9852 8.49051 22.88 8.3051 22.6946C8.11969 22.5092 8.01452 22.2584 8.01224 21.9962C8.00997 21.734 8.11076 21.4814 8.29292 21.2928L13.9859 15.5998C14.2411 15.3445 14.5798 15.1899 14.9398 15.1642C15.2998 15.1384 15.657 15.2434 15.9459 15.4598L20.9059 19.1798L26.2929 13.7928C26.4804 13.6053 26.7348 13.5 26.9999 13.5C27.2651 13.5 27.5194 13.6053 27.7069 13.7928Z M26.6401 6.73209C26.8437 6.90187 26.9716 7.14556 26.9956 7.40959C27.0196 7.67361 26.9378 7.93637 26.7681 8.14009L22.0391 13.8151C21.8122 14.0876 21.4959 14.2709 21.1466 14.3324C20.7973 14.3939 20.4375 14.3297 20.1311 14.1511L15.0351 11.1781L9.55513 14.8321C9.33447 14.9793 9.06437 15.0328 8.80426 14.9808C8.54415 14.9289 8.31532 14.7757 8.16813 14.5551C8.02093 14.3344 7.96742 14.0643 8.01937 13.8042C8.07132 13.5441 8.22447 13.3153 8.44513 13.1681L14.1851 9.34109C14.4188 9.18521 14.6915 9.09807 14.9723 9.08958C15.253 9.0811 15.5305 9.15161 15.7731 9.29309L20.7731 12.2101L25.2321 6.86009C25.4019 6.65647 25.6456 6.5286 25.9096 6.5046C26.1737 6.4806 26.4364 6.56242 26.6401 6.73209Z"/></svg>