<svg width="32" height="32" viewBox="0 0 32 32" fill="none" xmlns="http://www.w3.org/2000/svg">
<path d="M22.9996 4.49952H8.99963C7.80656 4.50082 6.66272 4.97534 5.81909 5.81897C4.97546 6.66261 4.50093 7.80645 4.49963 8.99952V22.9995C4.50094 24.1926 4.97546 25.3364 5.81909 26.1801C6.66272 27.0237 7.80656 27.4982 8.99963 27.4995H22.9996C24.1927 27.4982 25.3365 27.0237 26.1802 26.1801C27.0238 25.3364 27.4983 24.1926 27.4996 22.9995V8.99952C27.4983 7.80645 27.0238 6.66261 26.1802 5.81898C25.3365 4.97535 24.1927 4.50082 22.9996 4.49952ZM8.99963 5.49952H22.9996C23.9275 5.50064 24.8171 5.86975 25.4733 6.52589C26.1294 7.18202 26.4985 8.07161 26.4996 8.99952V9.49952H5.49963V8.99952C5.50076 8.07161 5.86987 7.18202 6.526 6.52589C7.18213 5.86975 8.07172 5.50064 8.99963 5.49952ZM22.9996 26.4995H8.99963C8.07172 26.4984 7.18213 26.1293 6.526 25.4732C5.86987 24.817 5.50076 23.9274 5.49963 22.9995V10.4995H26.4996V22.9995C26.4985 23.9274 26.1294 24.817 25.4733 25.4732C24.8171 26.1293 23.9275 26.4984 22.9996 26.4995Z" fill="black"/>
<path d="M20.6754 17.1665L13.6764 13.6626C13.4477 13.5471 13.1932 13.4921 12.9372 13.5028C12.6812 13.5135 12.4322 13.5896 12.214 13.7239C11.9957 13.8581 11.8155 14.046 11.6904 14.2696C11.5654 14.4933 11.4997 14.7452 11.4997 15.0015V21.9995C11.4988 22.2559 11.5639 22.5082 11.6885 22.7322C11.8132 22.9562 11.9933 23.1445 12.2115 23.279C12.4298 23.4135 12.679 23.4896 12.9351 23.5002C13.1913 23.5108 13.4458 23.4554 13.6745 23.3394L20.6745 19.8442C20.9222 19.7192 21.1305 19.5279 21.276 19.2916C21.4215 19.0553 21.4986 18.7832 21.4987 18.5057C21.4988 18.2282 21.4219 17.956 21.2766 17.7196C21.1312 17.4832 20.9231 17.2917 20.6754 17.1665ZM20.2262 18.9507L13.2252 22.4458C13.149 22.4843 13.0641 22.5026 12.9788 22.499C12.8935 22.4954 12.8105 22.47 12.7378 22.4252C12.6651 22.3805 12.605 22.3179 12.5633 22.2434C12.5216 22.1689 12.4997 22.0849 12.4996 21.9995V15.0015C12.4988 14.9159 12.5204 14.8316 12.5622 14.7569C12.604 14.6823 12.6646 14.6198 12.7379 14.5757C12.817 14.5272 12.9078 14.5012 13.0006 14.5005C13.0795 14.5008 13.1571 14.5199 13.2272 14.5562L20.2262 18.0601C20.3082 18.102 20.377 18.1658 20.4251 18.2444C20.4732 18.3229 20.4986 18.4133 20.4986 18.5054C20.4986 18.5975 20.4732 18.6878 20.4251 18.7664C20.377 18.845 20.3082 18.9088 20.2262 18.9507Z" fill="black"/>
</svg>
