<svg xmlns="http://www.w3.org/2000/svg" width="32" height="32" viewBox="0 0 32 32"><path d="M23 4H9C7.6744 4.00159 6.40356 4.52888 5.46622 5.46622C4.52888 6.40356 4.00159 7.6744 4 9V23C4.00159 24.3256 4.52888 25.5964 5.46622 26.5338C6.40356 27.4711 7.6744 27.9984 9 28H23C24.3257 27.9987 25.5967 27.4715 26.5341 26.5341C27.4715 25.5967 27.9987 24.3257 28 23V9C27.9987 7.67432 27.4715 6.40332 26.5341 5.46593C25.5967 4.52853 24.3257 4.00132 23 4ZM9 6H23C23.7954 6.00079 24.558 6.31712 25.1204 6.87956C25.6829 7.44199 25.9992 8.20459 26 9H6C6.00079 8.20459 6.31712 7.44199 6.87956 6.87956C7.44199 6.31712 8.20459 6.00079 9 6ZM23 26H9C8.20459 25.9992 7.44199 25.6829 6.87956 25.1204C6.31712 24.558 6.00079 23.7954 6 23V11H26V23C25.9992 23.7954 25.6829 24.558 25.1204 25.1204C24.558 25.6829 23.7954 25.9992 23 26Z M20.901 16.7199L13.902 13.2159C13.597 13.0618 13.2576 12.9884 12.9162 13.0027C12.5748 13.017 12.2428 13.1186 11.9517 13.2977C11.6607 13.4768 11.4205 13.7275 11.2538 14.0258C11.0872 14.3242 10.9998 14.6602 11 15.0019V21.9999C10.999 22.3415 11.0856 22.6775 11.2516 22.976C11.4176 23.2745 11.6574 23.5254 11.9481 23.7047C12.2388 23.884 12.5706 23.9857 12.9118 24.0001C13.253 24.0145 13.5923 23.9411 13.897 23.7869L20.9 20.2899C21.2302 20.1232 21.5078 19.868 21.7017 19.553C21.8956 19.2379 21.9983 18.8752 21.9984 18.5052C21.9985 18.1353 21.896 17.7725 21.7023 17.4573C21.5085 17.1422 21.2312 16.8869 20.901 16.7199ZM13 21.9999L13.004 15.0029L19.999 18.5049L12.999 21.9999H13Z"/></svg>