<svg width="32" height="32" viewBox="0 0 32 32" fill="none" xmlns="http://www.w3.org/2000/svg">
<path d="M25.0001 2.49965H13.0001C11.807 2.50095 10.6632 2.97547 9.81958 3.8191C8.97594 4.66274 8.50142 5.80657 8.50012 6.99965V12.4997H6.99719C5.80412 12.5009 4.66028 12.9755 3.81665 13.8191C2.97302 14.6627 2.49849 15.8066 2.49719 16.9996V24.9997C2.49849 26.1927 2.97302 27.3366 3.81665 28.1802C4.66028 29.0238 5.80412 29.4984 6.99719 29.4997H18.9972C20.1903 29.4983 21.3341 29.0238 22.1777 28.1802C23.0214 27.3366 23.4959 26.1927 23.4972 24.9997V19.4997H25.0001C26.1932 19.4983 27.337 19.0238 28.1807 18.1802C29.0243 17.3366 29.4988 16.1927 29.5001 14.9997V6.99965C29.4988 5.80658 29.0243 4.66274 28.1807 3.81911C27.337 2.97548 26.1932 2.50095 25.0001 2.49965ZM22.4972 24.9997C22.4961 25.9276 22.127 26.8171 21.4708 27.4733C20.8147 28.1294 19.9251 28.4985 18.9972 28.4997H6.99719C6.06928 28.4985 5.17969 28.1294 4.52356 27.4733C3.86742 26.8171 3.49831 25.9276 3.49719 24.9997V16.9996C3.49831 16.0717 3.86742 15.1821 4.52356 14.526C5.17969 13.8699 6.06928 13.5008 6.99719 13.4997H18.9972C19.9251 13.5008 20.8147 13.8699 21.4708 14.526C22.127 15.1822 22.4961 16.0717 22.4972 16.9996V24.9997ZM28.5001 14.9997C28.499 15.9276 28.1299 16.8171 27.4738 17.4733C26.8176 18.1294 25.928 18.4985 25.0001 18.4996H23.4972V16.9996C23.4959 15.8066 23.0214 14.6627 22.1777 13.8191C21.3341 12.9755 20.1903 12.501 18.9972 12.4997H9.50012V6.99965C9.50124 6.07174 9.87035 5.18215 10.5265 4.52602C11.1826 3.86988 12.0722 3.50077 13.0001 3.49965H25.0001C25.928 3.50077 26.8176 3.86988 27.4738 4.52602C28.1299 5.18215 28.499 6.07174 28.5001 6.99965V14.9997Z" fill="black"/>
<path d="M20.0001 6.49965H18.0001C17.8675 6.49965 17.7403 6.55233 17.6466 6.6461C17.5528 6.73986 17.5001 6.86704 17.5001 6.99965C17.5001 7.13226 17.5528 7.25944 17.6466 7.3532C17.7403 7.44697 17.8675 7.49965 18.0001 7.49965H20.0001C20.1327 7.49965 20.2599 7.44697 20.3537 7.3532C20.4474 7.25944 20.5001 7.13226 20.5001 6.99965C20.5001 6.86704 20.4474 6.73986 20.3537 6.6461C20.2599 6.55233 20.1327 6.49965 20.0001 6.49965Z" fill="black"/>
<path d="M14.0001 16.4996H12.0001C11.8675 16.4996 11.7403 16.5523 11.6466 16.6461C11.5528 16.7399 11.5001 16.867 11.5001 16.9996C11.5001 17.1323 11.5528 17.2594 11.6466 17.3532C11.7403 17.447 11.8675 17.4996 12.0001 17.4996H14.0001C14.1327 17.4996 14.2599 17.447 14.3537 17.3532C14.4474 17.2594 14.5001 17.1323 14.5001 16.9996C14.5001 16.867 14.4474 16.7399 14.3537 16.6461C14.2599 16.5523 14.1327 16.4996 14.0001 16.4996Z" fill="black"/>
</svg>
