<svg width="32" height="32" xmlns="http://www.w3.org/2000/svg"><path fill-rule="evenodd" clip-rule="evenodd" d="M26.75 3.501c0-1.0048-.9686-1.7255-1.931-1.4368L11.6753 6.0073A2 2 0 0010.25 7.923v14.9543A3.9835 3.9835 0 007.75 22c-2.2091 0-4 1.7909-4 4 0 2.2091 1.7909 4 4 4 2.2091 0 4-1.7909 4-4V8.295a1 1 0 01.7127-.9578L24.6063 3.694c.3208-.0963.6437.144.6437.4789v14.7043A3.9836 3.9836 0 0022.75 18c-2.2091 0-4 1.7909-4 4 0 2.2091 1.7909 4 4 4 2.2091 0 4-1.7909 4-4V3.501zM25.25 22c0-1.3807-1.1193-2.5-2.5-2.5s-2.5 1.1193-2.5 2.5 1.1193 2.5 2.5 2.5 2.5-1.1193 2.5-2.5zm-15 4c0-1.3807-1.1193-2.5-2.5-2.5s-2.5 1.1193-2.5 2.5 1.1193 2.5 2.5 2.5 2.5-1.1193 2.5-2.5z"/></svg>