<svg xmlns="http://www.w3.org/2000/svg" width="32" height="32" viewBox="0 0 32 32"><path d="M16 2.5C13.33 2.5 10.7199 3.29176 8.49981 4.77516C6.27974 6.25856 4.54942 8.36697 3.52763 10.8338C2.50585 13.3006 2.2385 16.015 2.7594 18.6337C3.28031 21.2525 4.56606 23.6579 6.45406 25.5459C8.34207 27.434 10.7475 28.7197 13.3663 29.2406C15.985 29.7615 18.6994 29.4942 21.1662 28.4724C23.633 27.4506 25.7414 25.7203 27.2248 23.5002C28.7082 21.2801 29.5 18.67 29.5 16C29.496 12.4208 28.0724 8.98932 25.5416 6.45844C23.0107 3.92756 19.5792 2.50397 16 2.5ZM16 28.5C13.5277 28.5 11.111 27.7669 9.05538 26.3934C6.99976 25.0199 5.39761 23.0676 4.45151 20.7835C3.50542 18.4995 3.25787 15.9861 3.74019 13.5614C4.22251 11.1366 5.41301 8.90932 7.16117 7.16117C8.90933 5.41301 11.1366 4.2225 13.5614 3.74018C15.9861 3.25787 18.4995 3.50541 20.7835 4.45151C23.0676 5.3976 25.0199 6.99976 26.3934 9.05537C27.7669 11.111 28.5 13.5277 28.5 16C28.4963 19.3141 27.1782 22.4913 24.8347 24.8347C22.4913 27.1781 19.3141 28.4963 16 28.5Z M20.915 9.80506C20.7336 9.6648 20.5223 9.5682 20.2976 9.52277C20.0728 9.47733 19.8406 9.48427 19.619 9.54306L13.616 11.0921C13.2905 11.1794 13.0037 11.3734 12.8014 11.6429C12.5991 11.9125 12.493 12.2421 12.5 12.5791V18.7791C12.1784 18.5887 11.8094 18.4933 11.4358 18.5039C11.0622 18.5146 10.6993 18.6307 10.389 18.8391C10.1017 19.031 9.869 19.2941 9.71362 19.6027C9.55824 19.9114 9.48547 20.255 9.5024 20.6001C9.51934 20.9452 9.6254 21.2801 9.81024 21.572C9.99509 21.8639 10.2524 22.103 10.5571 22.2659C10.8619 22.4288 11.2036 22.51 11.549 22.5015C11.8945 22.493 12.2318 22.3952 12.5282 22.2176C12.8246 22.0399 13.0699 21.7885 13.2402 21.4879C13.4105 21.1872 13.5 20.8476 13.5 20.5021V12.5791C13.4939 12.4633 13.5271 12.3489 13.5943 12.2545C13.6615 12.1601 13.7587 12.0912 13.87 12.0591L19.872 10.5101C19.9459 10.4897 20.0237 10.4869 20.0989 10.502C20.1741 10.5171 20.2447 10.5497 20.305 10.5971C20.3659 10.6437 20.4152 10.7039 20.449 10.7727C20.4828 10.8416 20.5003 10.9173 20.5 10.9941V16.7771C20.1972 16.5974 19.852 16.5018 19.5 16.5001C19.1044 16.5001 18.7178 16.6174 18.3889 16.8371C18.06 17.0569 17.8036 17.3692 17.6522 17.7347C17.5009 18.1001 17.4613 18.5023 17.5384 18.8902C17.6156 19.2782 17.8061 19.6346 18.0858 19.9143C18.3655 20.194 18.7219 20.3845 19.1098 20.4616C19.4978 20.5388 19.8999 20.4992 20.2654 20.3478C20.6308 20.1964 20.9432 19.9401 21.1629 19.6112C21.3827 19.2823 21.5 18.8956 21.5 18.5001V10.9941C21.501 10.7641 21.4487 10.5371 21.3472 10.3308C21.2457 10.1245 21.0977 9.94458 20.915 9.80506Z"/></svg>
