<svg width="32" height="32" viewBox="0 0 32 32" fill="none" xmlns="http://www.w3.org/2000/svg">
<path d="M16 1.99973C13.2311 1.99973 10.5243 2.82082 8.22202 4.35916C5.91973 5.8975 4.12532 8.084 3.06569 10.6422C2.00607 13.2003 1.72882 16.0153 2.26901 18.731C2.80921 21.4467 4.14258 23.9413 6.10051 25.8992C8.05845 27.8572 10.553 29.1905 13.2687 29.7307C15.9845 30.2709 18.7994 29.9937 21.3576 28.934C23.9157 27.8744 26.1022 26.08 27.6406 23.7777C29.1789 21.4754 30 18.7687 30 15.9997C29.9958 12.288 28.5195 8.72944 25.8949 6.10484C23.2703 3.48023 19.7118 2.0039 16 1.99973ZM16 27.9997C13.6266 27.9997 11.3066 27.2959 9.33316 25.9774C7.35977 24.6588 5.8217 22.7846 4.91345 20.5919C4.0052 18.3992 3.76756 15.9864 4.23058 13.6586C4.69361 11.3309 5.83649 9.19268 7.51472 7.51445C9.19296 5.83622 11.3312 4.69333 13.6589 4.23031C15.9867 3.76729 18.3995 4.00493 20.5922 4.91318C22.7849 5.82143 24.6591 7.3595 25.9776 9.33289C27.2962 11.3063 28 13.6264 28 15.9997C27.9965 19.1813 26.7311 22.2315 24.4815 24.4812C22.2318 26.7309 19.1815 27.9963 16 27.9997Z" fill="black"/>
<path d="M21.2197 9.40891C20.9781 9.22236 20.6969 9.09375 20.3977 9.03297C20.0985 8.97219 19.7894 8.98087 19.4941 9.05833L13.4883 10.6081C13.0556 10.7229 12.6739 10.9795 12.4041 11.3367C12.1343 11.6939 11.9921 12.1313 12 12.5788V18.0521C11.4945 17.9489 10.9695 18.0047 10.4969 18.2116C10.0244 18.4186 9.62743 18.7668 9.36054 19.2083C9.09365 19.6498 8.96988 20.163 9.00621 20.6777C9.04255 21.1923 9.23721 21.6831 9.56349 22.0827C9.88977 22.4823 10.3317 22.7712 10.8286 22.9098C11.3256 23.0483 11.8532 23.0297 12.3392 22.8565C12.8252 22.6833 13.2457 22.3641 13.543 21.9425C13.8404 21.5209 14 21.0176 14 20.5017L13.9996 20.4986L14 20.4968L13.9941 12.5437L20 10.9939V16.0502C19.4945 15.947 18.9695 16.0027 18.4969 16.2097C18.0244 16.4167 17.6274 16.7648 17.3605 17.2063C17.0936 17.6478 16.9699 18.1611 17.0062 18.6757C17.0425 19.1903 17.2372 19.6811 17.5635 20.0807C17.8898 20.4804 18.3317 20.7693 18.8286 20.9078C19.3256 21.0464 19.8532 21.0278 20.3392 20.8546C20.8252 20.6814 21.2457 20.3621 21.543 19.9405C21.8404 19.5189 22 19.0156 22 18.4997V10.9939C22.0011 10.6874 21.9313 10.3848 21.7959 10.1098C21.6605 9.83484 21.4633 9.59494 21.2197 9.40891Z" fill="black"/>
</svg>
