<svg width="32" height="32" viewBox="0 0 32 32" fill="none" xmlns="http://www.w3.org/2000/svg">
<path d="M17.294 23.707C17.4834 23.8847 17.7345 23.9816 17.9942 23.9774C18.2539 23.9732 18.5018 23.8681 18.6854 23.6844C18.8689 23.5007 18.9738 23.2528 18.9779 22.9931C18.9819 22.7334 18.8847 22.4823 18.707 22.293L16.19 19.775C16.392 19.205 16.497 18.605 16.5 18V8C16.5 6.54131 15.9205 5.14236 14.889 4.11091C13.8576 3.07946 12.4586 2.5 11 2.5C9.54127 2.5 8.14232 3.07946 7.11087 4.11091C6.07942 5.14236 5.49996 6.54131 5.49996 8V9.086L3.70696 7.293C3.61471 7.19749 3.50437 7.12131 3.38236 7.0689C3.26036 7.01649 3.12914 6.9889 2.99636 6.98775C2.86358 6.9866 2.7319 7.0119 2.60901 7.06218C2.48611 7.11246 2.37446 7.18671 2.28056 7.2806C2.18667 7.3745 2.11242 7.48615 2.06214 7.60905C2.01186 7.73194 1.98655 7.86362 1.98771 7.9964C1.98886 8.12918 2.01645 8.2604 2.06886 8.3824C2.12127 8.50441 2.19745 8.61475 2.29296 8.707L17.293 23.707H17.294ZM19 28H17.021C15.7555 28.0298 14.5281 27.5662 13.5981 26.7074C12.6682 25.8486 12.1087 24.6618 12.038 23.398C12.5804 23.2892 13.1031 23.0984 13.588 22.832L5.49996 14.744V18C5.50249 19.2875 5.95605 20.5334 6.7818 21.5212C7.60756 22.509 8.75332 23.1763 10.02 23.407C10.1039 25.1399 10.8338 26.7786 12.066 28H2.99996C2.73474 28 2.48039 28.1054 2.29285 28.2929C2.10532 28.4804 1.99996 28.7348 1.99996 29C1.99996 29.2652 2.10532 29.5196 2.29285 29.7071C2.48039 29.8946 2.73474 30 2.99996 30H19C19.2652 30 19.5195 29.8946 19.7071 29.7071C19.8946 29.5196 20 29.2652 20 29C20 28.7348 19.8946 28.4804 19.7071 28.2929C19.5195 28.1054 19.2652 28 19 28ZM29 13H23.414L25.707 10.707C25.8847 10.5177 25.9819 10.2666 25.9779 10.0069C25.9738 9.74724 25.8689 9.49931 25.6854 9.31559C25.5018 9.13188 25.2539 9.0268 24.9942 9.02258C24.7345 9.01837 24.4834 9.11535 24.294 9.293L20.294 13.293C20.201 13.3858 20.1273 13.496 20.077 13.6173C20.0267 13.7386 20.0008 13.8687 20.0008 14C20.0008 14.1313 20.0267 14.2614 20.077 14.3827C20.1273 14.504 20.201 14.6142 20.294 14.707L24.294 18.707C24.3868 18.7998 24.497 18.8734 24.6183 18.9235C24.7396 18.9737 24.8696 18.9995 25.0008 18.9995C25.1321 18.9994 25.262 18.9736 25.3833 18.9233C25.5045 18.873 25.6147 18.7993 25.7075 18.7065C25.8002 18.6137 25.8738 18.5034 25.924 18.3822C25.9742 18.2609 26 18.1309 26 17.9996C25.9999 17.8684 25.974 17.7384 25.9237 17.6172C25.8735 17.4959 25.7998 17.3858 25.707 17.293L23.416 15H29C29.2652 15 29.5195 14.8946 29.7071 14.7071C29.8946 14.5196 30 14.2652 30 14C30 13.7348 29.8946 13.4804 29.7071 13.2929C29.5195 13.1054 29.2652 13 29 13Z" fill="#0F0F0F"/>
</svg>
