<svg width="32" height="32" viewBox="0 0 32 32" fill="none" xmlns="http://www.w3.org/2000/svg">
<path d="M17.2935 23.7068C17.481 23.8943 17.7353 23.9996 18.0005 23.9996C18.2657 23.9996 18.52 23.8943 18.7075 23.7068C18.895 23.5192 19.0004 23.2649 19.0004 22.9997C19.0004 22.7345 18.895 22.4802 18.7075 22.2927L16.5858 20.171C16.8595 19.4798 17.0002 18.7431 17.0005 17.9997V7.99973C17.0005 6.40843 16.3683 4.88231 15.2431 3.75709C14.1179 2.63187 12.5918 1.99973 11.0005 1.99973C9.40919 1.99973 7.88307 2.63187 6.75785 3.75709C5.63263 4.88231 5.00049 6.40843 5.00049 7.99973V8.58567L3.70749 7.29267C3.51997 7.10516 3.26564 6.99982 3.00045 6.99983C2.73526 6.99983 2.48094 7.10518 2.29343 7.2927C2.10592 7.48022 2.00058 7.73455 2.00058 7.99974C2.00059 8.26493 2.10594 8.51925 2.29346 8.70676L17.2935 23.7068ZM7.00046 7.99976C7.00046 6.9389 7.42189 5.92148 8.17203 5.17134C8.92218 4.42119 9.93959 3.99976 11.0005 3.99976C12.0613 3.99976 13.0787 4.42119 13.8289 5.17134C14.579 5.92148 15.0005 6.9389 15.0005 7.99976V17.9998C14.9969 18.1797 14.9806 18.3593 14.9517 18.5369L7.00049 10.5857L7.00046 7.99976Z" fill="black"/>
<path d="M19.0005 27.9997H17.021C15.8411 28.0289 14.6906 27.6291 13.783 26.8745C12.8755 26.12 12.2725 25.0618 12.0858 23.8963C12.7456 23.7731 13.3799 23.5394 13.9618 23.2049L12.4691 21.7121C11.8633 21.9557 11.2069 22.0467 10.5577 21.977C9.90846 21.9073 9.28634 21.679 8.74612 21.3123C8.20589 20.9455 7.76412 20.4516 7.45972 19.874C7.15531 19.2963 6.99761 18.6527 7.0005 17.9997V16.2431L5.0005 14.243V17.9997C5.00297 19.4275 5.51415 20.8076 6.44231 21.8924C7.37047 22.9773 8.65486 23.6959 10.065 23.9193C10.2533 25.466 10.9583 26.9037 12.0657 27.9997H3.00049C2.73527 27.9997 2.48092 28.1051 2.29338 28.2926C2.10585 28.4802 2.00049 28.7345 2.00049 28.9997C2.00049 29.2649 2.10585 29.5193 2.29338 29.7068C2.48092 29.8944 2.73527 29.9997 3.00049 29.9997H19.0005C19.2657 29.9997 19.5201 29.8944 19.7076 29.7068C19.8951 29.5193 20.0005 29.2649 20.0005 28.9997C20.0005 28.7345 19.8951 28.4802 19.7076 28.2926C19.5201 28.1051 19.2657 27.9997 19.0005 27.9997Z" fill="black"/>
<path d="M29.0005 12.9997H23.4145L25.7076 10.7067C25.8004 10.6139 25.874 10.5037 25.9243 10.3823C25.9745 10.261 26.0004 10.131 26.0004 9.9997C26.0004 9.86839 25.9745 9.73837 25.9243 9.61706C25.874 9.49574 25.8004 9.38552 25.7075 9.29267C25.6147 9.19983 25.5044 9.12618 25.3831 9.07593C25.2618 9.02568 25.1318 8.99982 25.0005 8.99983C24.8692 8.99983 24.7392 9.02569 24.6178 9.07595C24.4965 9.1262 24.3863 9.19985 24.2935 9.2927L20.2935 13.2927C20.2006 13.3855 20.1269 13.4958 20.0766 13.6171C20.0264 13.7384 20.0005 13.8684 20.0005 13.9997C20.0005 14.1311 20.0264 14.2611 20.0766 14.3824C20.1269 14.5037 20.2006 14.6139 20.2935 14.7068L24.2935 18.7068C24.3863 18.7996 24.4965 18.8733 24.6178 18.9235C24.7392 18.9738 24.8692 18.9996 25.0005 18.9996C25.1318 18.9996 25.2618 18.9738 25.3831 18.9235C25.5044 18.8733 25.6147 18.7996 25.7075 18.7068C25.8004 18.6139 25.874 18.5037 25.9243 18.3824C25.9745 18.2611 26.0004 18.131 26.0004 17.9997C26.0004 17.8684 25.9745 17.7384 25.9243 17.6171C25.874 17.4958 25.8004 17.3856 25.7075 17.2927L23.4145 14.9997H29.0005C29.2657 14.9997 29.52 14.8943 29.7076 14.7068C29.8951 14.5193 30.0005 14.2649 30.0005 13.9997C30.0005 13.7345 29.8951 13.4801 29.7076 13.2926C29.52 13.1051 29.2657 12.9997 29.0005 12.9997Z" fill="black"/>
</svg>
