<svg width="32" height="32" viewBox="0 0 32 32" fill="none" xmlns="http://www.w3.org/2000/svg">
<path d="M17.2935 23.7068C17.481 23.8943 17.7353 23.9996 18.0005 23.9996C18.2657 23.9996 18.52 23.8943 18.7075 23.7068C18.895 23.5192 19.0004 23.2649 19.0004 22.9997C19.0004 22.7345 18.895 22.4802 18.7075 22.2927L16.1899 19.7751C16.3921 19.2049 16.4971 18.6047 16.5005 17.9997V7.99973C16.5005 6.54103 15.921 5.14209 14.8896 4.11064C13.8581 3.07919 12.4592 2.49973 11.0005 2.49973C9.5418 2.49973 8.14285 3.07919 7.1114 4.11064C6.07995 5.14209 5.50049 6.54103 5.50049 7.99973V9.08567L3.70749 7.29267C3.51997 7.10515 3.26564 6.99981 3.00045 6.99982C2.73526 6.99982 2.48094 7.10518 2.29343 7.2927C2.10592 7.48022 2.00058 7.73454 2.00058 7.99973C2.00059 8.26492 2.10594 8.51924 2.29346 8.70676L17.2935 23.7068Z" fill="black"/>
<path d="M19.0005 27.9997H17.021C15.7557 28.0294 14.5284 27.5659 13.5986 26.7073C12.6688 25.8486 12.1093 24.662 12.0384 23.3983C12.5806 23.2892 13.1029 23.0982 13.5874 22.8317L5.50049 14.7443V17.9997C5.50276 19.2873 5.9562 20.5334 6.782 21.5214C7.60779 22.5093 8.7537 23.1766 10.0205 23.4072C10.1043 25.1399 10.834 26.7783 12.0658 27.9997H3.00049C2.73527 27.9997 2.48092 28.1051 2.29338 28.2926C2.10585 28.4802 2.00049 28.7345 2.00049 28.9997C2.00049 29.2649 2.10585 29.5193 2.29338 29.7068C2.48092 29.8944 2.73527 29.9997 3.00049 29.9997H19.0005C19.2657 29.9997 19.5201 29.8944 19.7076 29.7068C19.8951 29.5193 20.0005 29.2649 20.0005 28.9997C20.0005 28.7345 19.8951 28.4802 19.7076 28.2926C19.5201 28.1051 19.2657 27.9997 19.0005 27.9997Z" fill="black"/>
<path d="M29.0005 12.9997L23.4138 13.0005L25.7075 10.7068C25.895 10.5192 26.0004 10.2649 26.0004 9.99973C26.0004 9.73454 25.895 9.48021 25.7075 9.2927C25.6147 9.19985 25.5044 9.12619 25.3831 9.07595C25.2618 9.0257 25.1318 8.99983 25.0005 8.99983C24.7353 8.99983 24.481 9.10518 24.2935 9.2927L20.2935 13.2927C20.2006 13.3855 20.1269 13.4957 20.0766 13.6171C20.0264 13.7384 20.0005 13.8684 20.0005 13.9997C20.0005 14.131 20.0264 14.2611 20.0766 14.3824C20.1269 14.5037 20.2006 14.6139 20.2935 14.7068L24.2935 18.7068C24.3863 18.7996 24.4965 18.8733 24.6178 18.9235C24.7392 18.9738 24.8692 18.9996 25.0005 18.9996C25.1318 18.9996 25.2618 18.9738 25.3831 18.9235C25.5044 18.8733 25.6147 18.7996 25.7075 18.7068C25.8004 18.6139 25.874 18.5037 25.9243 18.3824C25.9745 18.2611 26.0004 18.131 26.0004 17.9997C26.0004 17.8684 25.9745 17.7384 25.9243 17.6171C25.874 17.4958 25.8004 17.3855 25.7075 17.2927L23.4153 15.0005L29.0005 14.9997C29.2657 14.9997 29.5201 14.8944 29.7076 14.7068C29.8951 14.5193 30.0005 14.2649 30.0005 13.9997C30.0005 13.7345 29.8951 13.4802 29.7076 13.2926C29.5201 13.1051 29.2657 12.9997 29.0005 12.9997Z" fill="black"/>
</svg>
