<svg width="32" height="32" viewBox="0 0 32 32" fill="none" xmlns="http://www.w3.org/2000/svg">
<path d="M18.5588 18.5003H13.4422C14.0205 17.9329 14.3837 17.1823 14.4697 16.3767C14.5557 15.5712 14.3591 14.7608 13.9136 14.0841C13.4681 13.4075 12.8013 12.9067 12.0273 12.6673C11.2534 12.428 10.4203 12.465 9.67056 12.772C8.92087 13.0791 8.30114 13.6371 7.91739 14.3505C7.53364 15.064 7.40971 15.8887 7.56681 16.6834C7.7239 17.4782 8.15225 18.1937 8.7786 18.7075C9.40494 19.2213 10.1904 19.5016 11.0005 19.5003H21.0005C21.8156 19.5034 22.6064 19.2229 23.2375 18.7069C23.8685 18.1909 24.3005 17.4716 24.4595 16.6721C24.6184 15.8726 24.4944 15.0427 24.1087 14.3246C23.7229 13.6065 23.0995 13.0449 22.3452 12.736C21.5909 12.427 20.7526 12.39 19.974 12.6313C19.1953 12.8725 18.5248 13.377 18.0773 14.0583C17.6298 14.7396 17.4331 15.5553 17.5209 16.3657C17.6088 17.1761 17.9757 17.9307 18.5588 18.5003ZM8.50049 16.0003C8.50049 15.5058 8.64711 15.0225 8.92181 14.6114C9.19652 14.2003 9.58696 13.8798 10.0438 13.6906C10.5006 13.5014 11.0033 13.4519 11.4882 13.5483C11.9732 13.6448 12.4186 13.8829 12.7683 14.2325C13.1179 14.5822 13.356 15.0276 13.4525 15.5126C13.5489 15.9975 13.4994 16.5002 13.3102 16.957C13.121 17.4138 12.8005 17.8043 12.3894 18.079C11.9783 18.3537 11.4949 18.5003 11.0005 18.5003C10.3376 18.4997 9.70211 18.2361 9.2334 17.7674C8.76469 17.2987 8.5011 16.6632 8.50049 16.0003ZM21.0005 13.5003C21.4949 13.5003 21.9783 13.6469 22.3894 13.9216C22.8005 14.1963 23.121 14.5868 23.3102 15.0436C23.4994 15.5004 23.5489 16.0031 23.4524 16.488C23.356 16.973 23.1179 17.4184 22.7683 17.7681C22.4186 18.1177 21.9732 18.3558 21.4882 18.4523C21.0033 18.5487 20.5006 18.4992 20.0438 18.31C19.587 18.1208 19.1965 17.8003 18.9218 17.3892C18.6471 16.9781 18.5005 16.4948 18.5005 16.0003C18.5011 15.3374 18.7647 14.7019 19.2334 14.2332C19.7021 13.7645 20.3376 13.5009 21.0005 13.5003Z" fill="black"/>
<path d="M29.0005 13.5003C28.9348 13.5003 28.8698 13.5132 28.8091 13.5383C28.7484 13.5634 28.6933 13.6002 28.6469 13.6467C28.6004 13.6931 28.5636 13.7482 28.5385 13.8089C28.5134 13.8696 28.5005 13.9346 28.5005 14.0003V22.0003C28.5005 22.8558 27.0229 24.5003 25.0005 24.5003H7.00049C6.07258 24.4992 5.18299 24.1301 4.52686 23.4739C3.87072 22.8178 3.50161 21.9282 3.50049 21.0003V11.0003C3.50161 10.0724 3.87072 9.1828 4.52685 8.52667C5.18299 7.87053 6.07258 7.50142 7.00049 7.5003H16.0005C16.1331 7.5003 16.2603 7.44762 16.354 7.35385C16.4478 7.26009 16.5005 7.13291 16.5005 7.0003C16.5005 6.86769 16.4478 6.74051 16.354 6.64675C16.2603 6.55298 16.1331 6.5003 16.0005 6.5003H7.00049C5.80741 6.5016 4.66358 6.97612 3.81994 7.81976C2.97631 8.66339 2.50179 9.80722 2.50049 11.0003V21.0003C2.50179 22.1934 2.97631 23.3372 3.81995 24.1808C4.66358 25.0245 5.80741 25.499 7.00049 25.5003H25.0005C27.4243 25.5003 29.5005 23.5755 29.5005 22.0003V14.0003C29.5005 13.9346 29.4876 13.8696 29.4625 13.8089C29.4374 13.7482 29.4006 13.6931 29.3541 13.6467C29.3077 13.6002 29.2526 13.5634 29.1919 13.5383C29.1312 13.5132 29.0662 13.5003 29.0005 13.5003Z" fill="black"/>
<path d="M21.0005 7.5003H24.5005V11.0003C24.5005 11.1329 24.5532 11.2601 24.6469 11.3539C24.7407 11.4476 24.8679 11.5003 25.0005 11.5003C25.1331 11.5003 25.2603 11.4476 25.354 11.3539C25.4478 11.2601 25.5005 11.1329 25.5005 11.0003V7.5003H29.0005C29.1331 7.5003 29.2603 7.44762 29.354 7.35385C29.4478 7.26009 29.5005 7.13291 29.5005 7.0003C29.5005 6.86769 29.4478 6.74051 29.354 6.64675C29.2603 6.55298 29.1331 6.5003 29.0005 6.5003H25.5005V3.0003C25.5005 2.86769 25.4478 2.74051 25.354 2.64675C25.2603 2.55298 25.1331 2.5003 25.0005 2.5003C24.8679 2.5003 24.7407 2.55298 24.6469 2.64675C24.5532 2.74051 24.5005 2.86769 24.5005 3.0003V6.5003H21.0005C20.8679 6.5003 20.7407 6.55298 20.6469 6.64675C20.5532 6.74051 20.5005 6.86769 20.5005 7.0003C20.5005 7.13291 20.5532 7.26009 20.6469 7.35385C20.7407 7.44762 20.8679 7.5003 21.0005 7.5003Z" fill="black"/>
</svg>
