<svg width="32" height="32" viewBox="0 0 32 32" xmlns="http://www.w3.org/2000/svg">
<path d="M2 25C2 24.4477 2.44772 24 3 24H29C29.5523 24 30 24.4477 30 25V29C30 29.5523 29.5523 30 29 30C28.4477 30 28 29.5523 28 29V26H4V29C4 29.5523 3.55228 30 3 30C2.44772 30 2 29.5523 2 29V25Z" fill="black"/>
<path d="M16 22C16.5523 22 17 22.4477 17 23V29C17 29.5523 16.5523 30 16 30C15.4477 30 15 29.5523 15 29V23C15 22.4477 15.4477 22 16 22Z" fill="black"/>
<path d="M16 4C14.3431 4 13 5.34315 13 7C13 8.65685 14.3431 10 16 10C17.6569 10 19 8.65685 19 7C19 5.34315 17.6569 4 16 4ZM11 7C11 4.23858 13.2386 2 16 2C18.7614 2 21 4.23858 21 7C21 9.76142 18.7614 12 16 12C13.2386 12 11 9.76142 11 7Z" fill="black"/>
<path d="M11.655 13.353C10.5781 14.1705 10 15.2269 10 16.3141C10 16.3957 10.0281 16.5331 10.2609 16.7374C10.5077 16.9538 10.9195 17.1806 11.5103 17.3821C12.6853 17.7828 14.3176 18 16 18C17.6824 18 19.3147 17.7828 20.4897 17.3821C21.0805 17.1806 21.4923 16.9538 21.7391 16.7374C21.9719 16.5331 22 16.3957 22 16.3141C22 15.2269 21.4219 14.1705 20.345 13.353C19.2675 12.535 17.7346 12 16 12C14.2654 12 12.7325 12.535 11.655 13.353ZM10.4456 11.76C11.9016 10.6547 13.8687 10 16 10C18.1313 10 20.0984 10.6547 21.5544 11.76C23.0111 12.8659 24 14.4666 24 16.3141C24 17.1277 23.5906 17.7737 23.0578 18.241C22.539 18.696 21.857 19.0288 21.1353 19.275C19.6853 19.7695 17.8176 20 16 20C14.1824 20 12.3147 19.7695 10.8647 19.275C10.143 19.0288 9.46102 18.696 8.94219 18.241C8.40942 17.7737 8 17.1277 8 16.3141C8 14.4666 8.98894 12.8659 10.4456 11.76Z" fill="black"/>
</svg>
