<svg width="32" height="32" viewBox="0 0 32 32" xmlns="http://www.w3.org/2000/svg">
<path d="M2.25 24C2.25 23.5858 2.58579 23.25 3 23.25H29C29.4142 23.25 29.75 23.5858 29.75 24C29.75 24.4142 29.4142 24.75 29 24.75H3C2.58579 24.75 2.25 24.4142 2.25 24Z" fill="black"/>
<path d="M5.25 29C5.25 28.5858 5.58579 28.25 6 28.25H26C26.4142 28.25 26.75 28.5858 26.75 29C26.75 29.4142 26.4142 29.75 26 29.75H6C5.58579 29.75 5.25 29.4142 5.25 29Z" fill="black"/>
<path d="M16 3.75C14.2051 3.75 12.75 5.20507 12.75 7C12.75 8.79493 14.2051 10.25 16 10.25C17.7949 10.25 19.25 8.79493 19.25 7C19.25 5.20507 17.7949 3.75 16 3.75ZM11.25 7C11.25 4.37665 13.3766 2.25 16 2.25C18.6234 2.25 20.75 4.37665 20.75 7C20.75 9.62335 18.6234 11.75 16 11.75C13.3766 11.75 11.25 9.62335 11.25 7Z" fill="black"/>
<path d="M11.5038 13.1539C10.3795 14.0074 9.75 15.1318 9.75 16.3141C9.75 16.4872 9.82575 16.6882 10.0961 16.9253C10.3769 17.1716 10.8225 17.4116 11.4296 17.6187C12.639 18.0311 14.3007 18.25 16 18.25C17.6993 18.25 19.361 18.0311 20.5704 17.6187C21.1775 17.4116 21.6231 17.1716 21.9039 16.9253C22.1743 16.6882 22.25 16.4872 22.25 16.3141C22.25 15.1318 21.6205 14.0074 20.4962 13.1539C19.3714 12.2999 17.7842 11.75 16 11.75C14.2158 11.75 12.6286 12.2999 11.5038 13.1539ZM10.5968 11.9592C12.0055 10.8897 13.9183 10.25 16 10.25C18.0817 10.25 19.9945 10.8897 21.4032 11.9592C22.8124 13.029 23.75 14.5616 23.75 16.3141C23.75 17.0362 23.3882 17.6187 22.893 18.053C22.4081 18.4782 21.76 18.7978 21.0546 19.0384C19.639 19.5212 17.8007 19.75 16 19.75C14.1993 19.75 12.361 19.5212 10.9454 19.0384C10.24 18.7978 9.59186 18.4782 9.10704 18.053C8.61175 17.6187 8.25 17.0362 8.25 16.3141C8.25 14.5616 9.18758 13.029 10.5968 11.9592Z" fill="black"/>
</svg>
