<svg xmlns="http://www.w3.org/2000/svg" width="32" height="32" viewBox="0 0 32 32"><path d="M21 8.5H24.5V12C24.5 12.1326 24.5527 12.2598 24.6464 12.3536C24.7402 12.4473 24.8674 12.5 25 12.5C25.1326 12.5 25.2598 12.4473 25.3536 12.3536C25.4473 12.2598 25.5 12.1326 25.5 12V8.5H29C29.1326 8.5 29.2598 8.44732 29.3536 8.35355C29.4473 8.25979 29.5 8.13261 29.5 8C29.5 7.86739 29.4473 7.74021 29.3536 7.64645C29.2598 7.55268 29.1326 7.5 29 7.5H25.5V4C25.5 3.86739 25.4473 3.74021 25.3536 3.64645C25.2598 3.55268 25.1326 3.5 25 3.5C24.8674 3.5 24.7402 3.55268 24.6464 3.64645C24.5527 3.74021 24.5 3.86739 24.5 4V7.5H21C20.8674 7.5 20.7402 7.55268 20.6464 7.64645C20.5527 7.74021 20.5 7.86739 20.5 8C20.5 8.13261 20.5527 8.25979 20.6464 8.35355C20.7402 8.44732 20.8674 8.5 21 8.5Z M29 14.5C28.8674 14.5 28.7402 14.5527 28.6464 14.6464C28.5527 14.7402 28.5 14.8674 28.5 15V24C28.4989 24.9279 28.1299 25.8176 27.4737 26.4737C26.8176 27.1299 25.9279 27.4989 25 27.5H7C6.07207 27.4989 5.18244 27.1299 4.5263 26.4737C3.87015 25.8176 3.50106 24.9279 3.5 24V12C3.50106 11.0721 3.87015 10.1824 4.5263 9.5263C5.18244 8.87015 6.07207 8.50106 7 8.5H16C16.1326 8.5 16.2598 8.44732 16.3536 8.35355C16.4473 8.25979 16.5 8.13261 16.5 8C16.5 7.86739 16.4473 7.74021 16.3536 7.64645C16.2598 7.55268 16.1326 7.5 16 7.5H7C5.80693 7.50132 4.66311 7.97585 3.81948 8.81948C2.97585 9.66311 2.50132 10.8069 2.5 12V24C2.50132 25.1931 2.97585 26.3369 3.81948 27.1805C4.66311 28.0241 5.80693 28.4987 7 28.5H25C26.1931 28.4989 27.3371 28.0245 28.1808 27.1808C29.0245 26.3371 29.4989 25.1931 29.5 24V15C29.5 14.8674 29.4473 14.7402 29.3536 14.6464C29.2598 14.5527 29.1326 14.5 29 14.5Z"/></svg>