<svg xmlns="http://www.w3.org/2000/svg" width="32" height="32" viewBox="0 0 32 32"><path d="M13.981 18.25C14.4548 17.6331 14.723 16.883 14.7476 16.1056C14.7721 15.3281 14.5519 14.5626 14.118 13.917C13.7581 13.3782 13.2648 12.9419 12.686 12.6505C12.1073 12.3592 11.4629 12.2227 10.8158 12.2545C10.1686 12.2863 9.54075 12.4852 8.99336 12.8319C8.44597 13.1786 7.99774 13.6612 7.69236 14.2326C7.38699 14.8041 7.23489 15.4449 7.2509 16.0927C7.26691 16.7404 7.45047 17.3729 7.7837 17.9286C8.11693 18.4843 8.58845 18.9441 9.1523 19.2633C9.71615 19.5826 10.3531 19.7502 11.001 19.75H21.001C21.7427 19.7498 22.4676 19.5297 23.0841 19.1175C23.7007 18.7054 24.1812 18.1196 24.4649 17.4344C24.7485 16.7491 24.8227 15.9952 24.6778 15.2678C24.533 14.5404 24.1758 13.8723 23.6513 13.348C23.1268 12.8237 22.4586 12.4666 21.7312 12.322C21.0038 12.1774 20.2499 12.2517 19.5647 12.5355C18.8796 12.8194 18.294 13.3001 17.8819 13.9167C17.4699 14.5334 17.25 15.2584 17.25 16C17.252 16.814 17.523 17.605 18.019 18.25H13.98H13.981ZM8.75103 16C8.75103 15.4033 8.98808 14.831 9.41004 14.409C9.83199 13.9871 10.4043 13.75 11.001 13.75C11.5978 13.75 12.1701 13.9871 12.592 14.409C13.014 14.831 13.251 15.4033 13.251 16C13.251 16.5967 13.014 17.169 12.592 17.591C12.1701 18.0129 11.5978 18.25 11.001 18.25C10.4043 18.25 9.83199 18.0129 9.41004 17.591C8.98808 17.169 8.75103 16.5967 8.75103 16ZM18.751 16C18.742 15.699 18.7936 15.3993 18.9026 15.1186C19.0115 14.8379 19.1758 14.5819 19.3855 14.3658C19.5952 14.1498 19.8462 13.978 20.1235 13.8607C20.4008 13.7434 20.6989 13.6829 21 13.6829C21.3011 13.6829 21.5992 13.7434 21.8765 13.8607C22.1539 13.978 22.4048 14.1498 22.6146 14.3658C22.8243 14.5819 22.9885 14.8379 23.0975 15.1186C23.2065 15.3993 23.258 15.699 23.249 16C23.2316 16.5849 22.987 17.1399 22.5671 17.5475C22.1473 17.955 21.5851 18.1829 21 18.1829C20.4149 18.1829 19.8528 17.955 19.4329 17.5475C19.0131 17.1399 18.7685 16.5849 18.751 16Z M29 13.25C28.8011 13.25 28.6103 13.329 28.4697 13.4697C28.329 13.6103 28.25 13.8011 28.25 14V22C28.25 22.75 26.845 24.25 25 24.25H7C6.13837 24.2489 5.31234 23.9062 4.70307 23.2969C4.09381 22.6877 3.75106 21.8616 3.75 21V11C3.75106 10.1384 4.09381 9.31234 4.70307 8.70307C5.31234 8.09381 6.13837 7.75106 7 7.75H16C16.1989 7.75 16.3897 7.67098 16.5303 7.53033C16.671 7.38968 16.75 7.19891 16.75 7C16.75 6.80109 16.671 6.61032 16.5303 6.46967C16.3897 6.32902 16.1989 6.25 16 6.25H7C5.74063 6.25132 4.53322 6.75219 3.6427 7.6427C2.75219 8.53322 2.25132 9.74063 2.25 11V21C2.25159 22.2593 2.75254 23.4666 3.643 24.357C4.53345 25.2475 5.74071 25.7484 7 25.75H25C27.56 25.75 29.75 23.689 29.75 22V14C29.75 13.8011 29.671 13.6103 29.5303 13.4697C29.3897 13.329 29.1989 13.25 29 13.25Z M21 7.75H24.25V11C24.25 11.1989 24.329 11.3897 24.4697 11.5303C24.6103 11.671 24.8011 11.75 25 11.75C25.1989 11.75 25.3897 11.671 25.5303 11.5303C25.671 11.3897 25.75 11.1989 25.75 11V7.75H29C29.1989 7.75 29.3897 7.67098 29.5303 7.53033C29.671 7.38968 29.75 7.19891 29.75 7C29.75 6.80109 29.671 6.61032 29.5303 6.46967C29.3897 6.32902 29.1989 6.25 29 6.25H25.75V3C25.75 2.80109 25.671 2.61032 25.5303 2.46967C25.3897 2.32902 25.1989 2.25 25 2.25C24.8011 2.25 24.6103 2.32902 24.4697 2.46967C24.329 2.61032 24.25 2.80109 24.25 3V6.25H21C20.8011 6.25 20.6103 6.32902 20.4697 6.46967C20.329 6.61032 20.25 6.80109 20.25 7C20.25 7.19891 20.329 7.38968 20.4697 7.53033C20.6103 7.67098 20.8011 7.75 21 7.75Z"/></svg>