<svg xmlns="http://www.w3.org/2000/svg" width="32" height="32" viewBox="0 0 32 32"><path d="M21 9H24V12C24 12.2652 24.1054 12.5196 24.2929 12.7071C24.4804 12.8946 24.7348 13 25 13C25.2652 13 25.5196 12.8946 25.7071 12.7071C25.8946 12.5196 26 12.2652 26 12V9H29C29.2652 9 29.5196 8.89464 29.7071 8.70711C29.8946 8.51957 30 8.26522 30 8C30 7.73478 29.8946 7.48043 29.7071 7.29289C29.5196 7.10536 29.2652 7 29 7H26V4C26 3.73478 25.8946 3.48043 25.7071 3.29289C25.5196 3.10536 25.2652 3 25 3C24.7348 3 24.4804 3.10536 24.2929 3.29289C24.1054 3.48043 24 3.73478 24 4V7H21C20.7348 7 20.4804 7.10536 20.2929 7.29289C20.1054 7.48043 20 7.73478 20 8C20 8.26522 20.1054 8.51957 20.2929 8.70711C20.4804 8.89464 20.7348 9 21 9Z M29 14C28.7348 14 28.4804 14.1054 28.2929 14.2929C28.1054 14.4804 28 14.7348 28 15V24C27.9989 24.7953 27.6825 25.5578 27.1202 26.1202C26.5578 26.6825 25.7953 26.9989 25 27H7C6.20459 26.9992 5.44199 26.6829 4.87956 26.1204C4.31712 25.558 4.00079 24.7954 4 24V12C4.00079 11.2046 4.31712 10.442 4.87956 9.87956C5.44199 9.31712 6.20459 9.00079 7 9H16C16.2652 9 16.5196 8.89464 16.7071 8.70711C16.8946 8.51957 17 8.26522 17 8C17 7.73478 16.8946 7.48043 16.7071 7.29289C16.5196 7.10536 16.2652 7 16 7H7C5.6744 7.00159 4.40356 7.52888 3.46622 8.46622C2.52888 9.40356 2.00159 10.6744 2 12V24C2.00159 25.3256 2.52888 26.5964 3.46622 27.5338C4.40356 28.4711 5.6744 28.9984 7 29H25C26.3257 28.9987 27.5967 28.4715 28.5341 27.5341C29.4715 26.5967 29.9987 25.3257 30 24V15C30 14.7348 29.8946 14.4804 29.7071 14.2929C29.5196 14.1054 29.2652 14 29 14Z"/></svg>