<svg width="32" height="32" viewBox="0 0 32 32" fill="none" xmlns="http://www.w3.org/2000/svg">
<path d="M29.5307 15.4692L19.5307 5.4692C19.461 5.39955 19.3784 5.34431 19.2874 5.30662C19.1964 5.26893 19.0988 5.24953 19.0003 5.24953C18.9018 5.24954 18.8043 5.26894 18.7133 5.30664C18.6223 5.34434 18.5396 5.3996 18.4699 5.46925C18.3293 5.60992 18.2503 5.8007 18.2503 5.99963C18.2503 6.19856 18.3293 6.38934 18.47 6.53L27.19 15.25H3C2.80109 15.25 2.61032 15.329 2.46967 15.4697C2.32902 15.6103 2.25 15.8011 2.25 16C2.25 16.1989 2.32902 16.3897 2.46967 16.5303C2.61032 16.671 2.80109 16.75 3 16.75H27.19L18.47 25.47C18.3963 25.5387 18.3372 25.6215 18.2962 25.7135C18.2552 25.8055 18.2332 25.9048 18.2314 26.0055C18.2296 26.1062 18.2482 26.2062 18.2859 26.2996C18.3236 26.393 18.3797 26.4778 18.451 26.549C18.5222 26.6203 18.607 26.6764 18.7004 26.7141C18.7938 26.7518 18.8938 26.7704 18.9945 26.7686C19.0952 26.7668 19.1945 26.7448 19.2865 26.7038C19.3785 26.6628 19.4613 26.6037 19.53 26.53L29.53 16.53C29.6706 16.3893 29.7496 16.1986 29.7496 15.9997C29.7496 15.8008 29.6713 15.6098 29.5307 15.4692Z" fill="black"/>
</svg>
