<svg width="32" height="32" viewBox="0 0 32 32" fill="none" xmlns="http://www.w3.org/2000/svg">
<path d="M7.00012 25.5C6.07221 25.4989 5.18262 25.1298 4.52649 24.4736C3.87035 23.8175 3.50124 22.9279 3.50012 22V20.5H18.377L17.377 19.5H3.50012V10C3.50081 9.43547 3.63824 8.8795 3.90066 8.37967C4.16307 7.87983 4.54266 7.451 5.00695 7.12986L4.29995 6.42295C3.7431 6.83877 3.29061 7.37842 2.97824 7.99924C2.66586 8.62006 2.50218 9.30503 2.50012 10V22C2.50142 23.1931 2.97595 24.3369 3.81958 25.1805C4.66321 26.0242 5.80705 26.4987 7.00012 26.5H24.377L23.377 25.5H7.00012Z" fill="black"/>
<path d="M29.5001 22V10C29.4988 8.80693 29.0243 7.66309 28.1807 6.81946C27.337 5.97583 26.1932 5.5013 25.0001 5.5H7.00012C6.75847 5.50474 6.51761 5.52909 6.2799 5.57282L3.35363 2.64652C3.25956 2.55433 3.1329 2.50298 3.00118 2.50365C2.86946 2.50431 2.74333 2.55693 2.65019 2.65007C2.55704 2.74321 2.50442 2.86935 2.50376 3.00107C2.50309 3.13278 2.55444 3.25944 2.64663 3.35352L5.18347 5.89042L5.18224 5.89115L5.96524 6.67415L5.96671 6.67366L18.7931 19.5H18.7911L19.7911 20.5H19.7931L24.7931 25.5H24.7911L25.7185 26.4274L25.7203 26.4272L28.6466 29.3535C28.7406 29.4457 28.8673 29.4971 28.999 29.4964C29.1307 29.4957 29.2569 29.4431 29.35 29.35C29.4431 29.2568 29.4958 29.1307 29.4964 28.999C29.4971 28.8673 29.4457 28.7406 29.3536 28.6465L26.8167 26.1097C27.6137 25.7578 28.2915 25.1822 28.7678 24.4527C29.2441 23.7233 29.4985 22.8712 29.5001 22ZM7.20715 6.5H25.0002C25.9281 6.50112 26.8176 6.87023 27.4738 7.52637C28.1299 8.1825 28.499 9.07209 28.5002 10V19.5H20.2072L7.20715 6.5ZM26.0336 25.3265L21.2072 20.5H28.5002V22C28.4975 22.745 28.2567 23.4697 27.8129 24.0681C27.3692 24.6666 26.7457 25.1075 26.0336 25.3265Z" fill="black"/>
<path d="M17.0001 9.5H15.0001C14.8675 9.5 14.7403 9.55268 14.6466 9.64645C14.5528 9.74021 14.5001 9.86739 14.5001 10C14.5001 10.1326 14.5528 10.2598 14.6466 10.3536C14.7403 10.4473 14.8675 10.5 15.0001 10.5H17.0001C17.1327 10.5 17.2599 10.4473 17.3537 10.3536C17.4474 10.2598 17.5001 10.1326 17.5001 10C17.5001 9.86739 17.4474 9.74021 17.3537 9.64645C17.2599 9.55268 17.1327 9.5 17.0001 9.5Z" fill="black"/>
</svg>
