<svg xmlns="http://www.w3.org/2000/svg" width="32" height="32" viewBox="0 0 32 32"><path d="M29 16C29 23.1797 23.1797 29 16 29C8.8203 29 3 23.1797 3 16C3 8.8203 8.8203 3 16 3C23.1797 3 29 8.8203 29 16ZM16.9957 6.9078C16.9481 6.39344 16.5166 6 16 6C15.4834 6 15.0519 6.39344 15.0043 6.9078L14.1954 15.6439L13.6593 11.265C13.5997 10.7785 13.1962 10.4068 12.7064 10.3873C12.2166 10.3679 11.7849 10.7063 11.6869 11.1866L10.806 15.5038L10.2895 13.8166C10.1578 13.3862 9.7548 13.0968 9.30489 13.1096C8.85499 13.1224 8.46907 13.4342 8.36203 13.8714L7.88198 15.8319H6C5.44772 15.8319 5 16.2796 5 16.8319C5 17.3842 5.44772 17.8319 6 17.8319H8.66667C8.92551 17.8319 9.16553 17.7326 9.3456 17.5661L10.0438 19.8473C10.1776 20.2846 10.5911 20.5754 11.0478 20.5535C11.5046 20.5316 11.8884 20.2026 11.9798 19.7545L12.4197 17.5986L13.3407 25.1215C13.4028 25.6287 13.8372 26.0074 14.3481 25.9999C14.8589 25.9924 15.282 25.6009 15.3291 25.0922L16 17.8462L16.6709 25.0922C16.718 25.6009 17.1411 25.9924 17.6519 25.9999C18.1628 26.0074 18.5972 25.6287 18.6593 25.1215L19.5803 17.5986L20.0202 19.7545C20.1116 20.2026 20.4954 20.5316 20.9522 20.5535C21.4089 20.5754 21.8224 20.2846 21.9562 19.8473L22.6544 17.5661C22.8345 17.7326 23.0745 17.8319 23.3333 17.8319H26C26.5523 17.8319 27 17.3842 27 16.8319C27 16.2796 26.5523 15.8319 26 15.8319H24.118L23.638 13.8714C23.5309 13.4342 23.145 13.1224 22.6951 13.1096C22.2452 13.0968 21.8422 13.3862 21.7105 13.8166L21.194 15.5038L20.3131 11.1866C20.2151 10.7063 19.7834 10.3679 19.2936 10.3873C18.8038 10.4068 18.4003 10.7785 18.3407 11.265L17.8046 15.6439L16.9957 6.9078Z"/></svg>