<svg xmlns="http://www.w3.org/2000/svg" width="32" height="32" viewBox="0 0 32 32"><path d="M25 2H11C9.8332 2.00241 8.70395 2.41265 7.80768 3.15973C6.91141 3.90681 6.3045 4.94371 6.092 6.091C4.94436 6.30333 3.90709 6.91029 3.1598 7.80679C2.4125 8.70329 2.00222 9.83288 2 11V25C2.00159 26.3256 2.52888 27.5964 3.46622 28.5338C4.40356 29.4711 5.6744 29.9984 7 30H21C22.167 29.9977 23.2965 29.5874 24.1928 28.8401C25.0891 28.0928 25.6959 27.0556 25.908 25.908C27.0555 25.6957 28.0926 25.0889 28.8399 24.1926C29.5872 23.2963 29.9975 22.1669 30 21V7C29.9984 5.6744 29.4711 4.40356 28.5338 3.46622C27.5964 2.52888 26.3256 2.00159 25 2ZM24 25C23.9989 25.7953 23.6825 26.5578 23.1202 27.1202C22.5578 27.6825 21.7953 27.9989 21 28H7C6.20459 27.9992 5.44199 27.6829 4.87956 27.1204C4.31712 26.558 4.00079 25.7954 4 25V11C4.00079 10.2046 4.31712 9.44199 4.87956 8.87956C5.44199 8.31712 6.20459 8.00079 7 8H21C21.7954 8.00079 22.558 8.31712 23.1204 8.87956C23.6829 9.44199 23.9992 10.2046 24 11V25ZM28 21C27.9982 21.6184 27.8049 22.2211 27.4468 22.7253C27.0887 23.2296 26.5833 23.6105 26 23.816V11C25.9984 9.6744 25.4711 8.40356 24.5338 7.46622C23.5964 6.52888 22.3256 6.00159 21 6H8.184C8.38945 5.41669 8.77045 4.91128 9.27465 4.55318C9.77886 4.19507 10.3816 4.00184 11 4H25C25.7954 4.00079 26.558 4.31712 27.1204 4.87956C27.6829 5.44199 27.9992 6.20459 28 7V21Z M20 12.0029H7.008C6.74278 12.0029 6.48843 12.1083 6.30089 12.2958C6.11336 12.4834 6.008 12.7377 6.008 13.0029C6.008 13.2681 6.11336 13.5225 6.30089 13.71C6.48843 13.8976 6.74278 14.0029 7.008 14.0029H20C20.2652 14.0029 20.5196 13.8976 20.7071 13.71C20.8946 13.5225 21 13.2681 21 13.0029C21 12.7377 20.8946 12.4834 20.7071 12.2958C20.5196 12.1083 20.2652 12.0029 20 12.0029ZM20 16.9999H7C6.73478 16.9999 6.48043 17.1053 6.29289 17.2928C6.10536 17.4804 6 17.7347 6 17.9999C6 18.2651 6.10536 18.5195 6.29289 18.707C6.48043 18.8946 6.73478 18.9999 7 18.9999H20C20.2652 18.9999 20.5196 18.8946 20.7071 18.707C20.8946 18.5195 21 18.2651 21 17.9999C21 17.7347 20.8946 17.4804 20.7071 17.2928C20.5196 17.1053 20.2652 16.9999 20 16.9999ZM13 21.9999H7C6.73478 21.9999 6.48043 22.1053 6.29289 22.2928C6.10536 22.4804 6 22.7347 6 22.9999C6 23.2651 6.10536 23.5195 6.29289 23.707C6.48043 23.8946 6.73478 23.9999 7 23.9999H13C13.2652 23.9999 13.5196 23.8946 13.7071 23.707C13.8946 23.5195 14 23.2651 14 22.9999C14 22.7347 13.8946 22.4804 13.7071 22.2928C13.5196 22.1053 13.2652 21.9999 13 21.9999Z"/></svg>