<svg width="32" height="32" viewBox="0 0 32 32" fill="none" xmlns="http://www.w3.org/2000/svg">
<path d="M25 2.25H11C9.86129 2.25327 8.76176 2.66613 7.90231 3.41314C7.04286 4.16015 6.48087 5.19145 6.319 6.3186C5.1917 6.48039 4.16026 7.04241 3.41316 7.90195C2.66606 8.76149 2.25319 9.86116 2.25 11V25C2.25143 26.2593 2.75233 27.4667 3.64282 28.3572C4.53331 29.2477 5.74066 29.7486 7 29.75H21C22.1388 29.7468 23.2384 29.3339 24.0979 28.5869C24.9574 27.8398 25.5194 26.8084 25.6812 25.6812C26.8084 25.5194 27.8398 24.9574 28.5868 24.0979C29.3339 23.2384 29.7468 22.1388 29.75 21V7C29.7486 5.74066 29.2477 4.53331 28.3572 3.64282C27.4667 2.75233 26.2593 2.25143 25 2.25ZM24.25 25C24.249 25.8616 23.9063 26.6877 23.297 27.297C22.6877 27.9063 21.8616 28.249 21 28.25H7C6.13836 28.249 5.31229 27.9063 4.70301 27.297C4.09374 26.6877 3.75101 25.8616 3.75 25V11C3.75101 10.1384 4.09374 9.31229 4.70301 8.70301C5.31229 8.09374 6.13836 7.75101 7 7.75H21C21.8616 7.75101 22.6877 8.09374 23.297 8.70301C23.9063 9.31229 24.249 10.1384 24.25 11V25ZM28.25 21C28.2482 21.7301 28.0005 22.4384 27.547 23.0106C27.0934 23.5828 26.4604 23.9856 25.75 24.1541V11C25.7486 9.74066 25.2477 8.53331 24.3572 7.64282C23.4667 6.75233 22.2593 6.25143 21 6.25H7.8461C8.01458 5.5396 8.41737 4.90662 8.98953 4.45308C9.56169 3.99955 10.2699 3.75188 11 3.75H25C25.8616 3.75101 26.6877 4.09374 27.297 4.70301C27.9063 5.31229 28.249 6.13836 28.25 7V21Z" fill="black"/>
<path d="M20 12.2526H7.0075C6.80859 12.2526 6.61782 12.3316 6.47717 12.4723C6.33652 12.6129 6.2575 12.8037 6.2575 13.0026C6.2575 13.2015 6.33652 13.3923 6.47717 13.5329C6.61782 13.6736 6.80859 13.7526 7.0075 13.7526H20C20.1989 13.7526 20.3897 13.6736 20.5303 13.5329C20.671 13.3923 20.75 13.2015 20.75 13.0026C20.75 12.8037 20.671 12.6129 20.5303 12.4723C20.3897 12.3316 20.1989 12.2526 20 12.2526Z" fill="black"/>
<path d="M20 17.25H7C6.80109 17.25 6.61032 17.329 6.46967 17.4697C6.32902 17.6103 6.25 17.8011 6.25 18C6.25 18.1989 6.32902 18.3897 6.46967 18.5303C6.61032 18.671 6.80109 18.75 7 18.75H20C20.1989 18.75 20.3897 18.671 20.5303 18.5303C20.671 18.3897 20.75 18.1989 20.75 18C20.75 17.8011 20.671 17.6103 20.5303 17.4697C20.3897 17.329 20.1989 17.25 20 17.25Z" fill="black"/>
<path d="M13 22.25H7C6.80109 22.25 6.61032 22.329 6.46967 22.4697C6.32902 22.6103 6.25 22.8011 6.25 23C6.25 23.1989 6.32902 23.3897 6.46967 23.5303C6.61032 23.671 6.80109 23.75 7 23.75H13C13.1989 23.75 13.3897 23.671 13.5303 23.5303C13.671 23.3897 13.75 23.1989 13.75 23C13.75 22.8011 13.671 22.6103 13.5303 22.4697C13.3897 22.329 13.1989 22.25 13 22.25Z" fill="black"/>
</svg>
