<svg width="32" height="32" viewBox="0 0 32 32" fill="none" xmlns="http://www.w3.org/2000/svg">
<path d="M23 4.5H9C7.80693 4.50132 6.66311 4.97585 5.81948 5.81948C4.97585 6.66311 4.50132 7.80693 4.5 9V23C4.5013 24.1931 4.97582 25.3369 5.81945 26.1805C6.66308 27.0242 7.80692 27.4987 9 27.5H23C24.1931 27.4987 25.3369 27.0242 26.1805 26.1805C27.0242 25.3369 27.4987 24.1931 27.5 23V9C27.4987 7.80692 27.0242 6.66308 26.1805 5.81945C25.3369 4.97582 24.1931 4.5013 23 4.5ZM26.5 23C26.4989 23.9279 26.1298 24.8175 25.4736 25.4736C24.8175 26.1298 23.9279 26.4989 23 26.5H9C8.07208 26.4989 7.18249 26.1298 6.52635 25.4736C5.87022 24.8175 5.50111 23.9279 5.5 23V9C5.50111 8.07208 5.87022 7.18249 6.52635 6.52635C7.18249 5.87022 8.07208 5.50111 9 5.5H23C23.9279 5.50111 24.8175 5.87022 25.4736 6.52635C26.1298 7.18249 26.4989 8.07208 26.5 9V23Z" fill="black"/>
<path d="M22 9.5H10C9.86739 9.5 9.74021 9.55268 9.64645 9.64645C9.55268 9.74021 9.5 9.86739 9.5 10C9.5 10.1326 9.55268 10.2598 9.64645 10.3536C9.74021 10.4473 9.86739 10.5 10 10.5H22C22.1326 10.5 22.2598 10.4473 22.3536 10.3536C22.4473 10.2598 22.5 10.1326 22.5 10C22.5 9.86739 22.4473 9.74021 22.3536 9.64645C22.2598 9.55268 22.1326 9.5 22 9.5Z" fill="black"/>
<path d="M22 14.5H10C9.86739 14.5 9.74021 14.5527 9.64645 14.6464C9.55268 14.7402 9.5 14.8674 9.5 15C9.5 15.1326 9.55268 15.2598 9.64645 15.3536C9.74021 15.4473 9.86739 15.5 10 15.5H22C22.1326 15.5 22.2598 15.4473 22.3536 15.3536C22.4473 15.2598 22.5 15.1326 22.5 15C22.5 14.8674 22.4473 14.7402 22.3536 14.6464C22.2598 14.5527 22.1326 14.5 22 14.5Z" fill="black"/>
<path d="M15 19.5H10C9.86739 19.5 9.74021 19.5527 9.64645 19.6464C9.55268 19.7402 9.5 19.8674 9.5 20C9.5 20.1326 9.55268 20.2598 9.64645 20.3536C9.74021 20.4473 9.86739 20.5 10 20.5H15C15.1326 20.5 15.2598 20.4473 15.3536 20.3536C15.4473 20.2598 15.5 20.1326 15.5 20C15.5 19.8674 15.4473 19.7402 15.3536 19.6464C15.2598 19.5527 15.1326 19.5 15 19.5Z" fill="black"/>
</svg>
