<svg width="32" height="32" viewBox="0 0 32 32" fill="none" xmlns="http://www.w3.org/2000/svg">
<path d="M10.3772 17.0253H8.43194V23.0097H9.28054V20.874H10.344C11.0696 20.874 11.635 20.7295 12.0393 20.4414C12.4944 20.1143 12.7209 19.624 12.7209 18.9697C12.7209 18.3828 12.5441 17.9228 12.1897 17.5908C11.7844 17.2138 11.1809 17.0253 10.3772 17.0253ZM11.5412 19.8261C11.3029 20.0644 10.9094 20.1835 10.3605 20.1835H9.28054V17.7147H10.3938C10.8264 17.7147 11.1672 17.8124 11.4163 18.0057C11.6985 18.2215 11.8401 18.5438 11.8401 18.9696C11.8401 19.3466 11.7405 19.6327 11.5412 19.8261Z" fill="black"/>
<path d="M15.6223 17.0253H13.677V23.0097H14.5256V20.874H15.5891C16.3147 20.874 16.8801 20.7295 17.2844 20.4414C17.7395 20.1143 17.966 19.624 17.966 18.9697C17.966 18.3828 17.7892 17.9228 17.4348 17.5908C17.0295 17.2138 16.426 17.0253 15.6223 17.0253ZM16.7864 19.8261C16.5481 20.0644 16.1546 20.1835 15.6057 20.1835H14.5256V17.7147H15.6389C16.0715 17.7147 16.4123 17.8124 16.6614 18.0057C16.9436 18.2215 17.0852 18.5438 17.0852 18.9696C17.0852 19.3466 16.9856 19.6327 16.7864 19.8261Z" fill="black"/>
<path d="M18.2981 17.7812H20.2844V23.0097H21.133V17.7812H23.1438V17.0253H18.2981V17.7812Z" fill="black"/>
<path d="M23.0002 4.4999H9.00024C6.51884 4.4999 4.50024 6.5185 4.50024 8.9999V22.9999C4.50024 25.4813 6.51884 27.4999 9.00024 27.4999H23.0002C25.4816 27.4999 27.5002 25.4813 27.5002 22.9999V8.9999C27.5002 6.5185 25.4817 4.4999 23.0002 4.4999ZM26.5002 22.9999C26.5002 24.9296 24.9299 26.4999 23.0002 26.4999H9.00024C7.07054 26.4999 5.50024 24.9296 5.50024 22.9999V8.9999C5.50024 7.0702 7.07054 5.4999 9.00024 5.4999H23.0002C24.9299 5.4999 26.5002 7.0702 26.5002 8.9999V22.9999Z" fill="black"/>
</svg>
