<svg width="32" height="32" viewBox="0 0 32 32" fill="none" xmlns="http://www.w3.org/2000/svg">
<path d="M23 4.25H9C7.74067 4.25146 6.53333 4.75237 5.64285 5.64285C4.75237 6.53333 4.25146 7.74067 4.25 9V23C4.25143 24.2593 4.75233 25.4667 5.64282 26.3572C6.53331 27.2477 7.74066 27.7486 9 27.75H23C24.2593 27.7486 25.4667 27.2477 26.3572 26.3572C27.2477 25.4667 27.7486 24.2593 27.75 23V9C27.7486 7.74066 27.2477 6.53331 26.3572 5.64282C25.4667 4.75233 24.2593 4.25143 23 4.25ZM26.25 23C26.249 23.8616 25.9063 24.6877 25.297 25.297C24.6877 25.9063 23.8616 26.249 23 26.25H9C8.13836 26.249 7.31229 25.9063 6.70301 25.297C6.09374 24.6877 5.75101 23.8616 5.75 23V9C5.75101 8.13836 6.09374 7.31229 6.70301 6.70301C7.31229 6.09374 8.13836 5.75101 9 5.75H23C23.8616 5.75101 24.6877 6.09374 25.297 6.70301C25.9063 7.31229 26.249 8.13836 26.25 9V23Z" fill="black"/>
<path d="M22 9.25H10C9.80109 9.25 9.61032 9.32902 9.46967 9.46967C9.32902 9.61032 9.25 9.80109 9.25 10C9.25 10.1989 9.32902 10.3897 9.46967 10.5303C9.61032 10.671 9.80109 10.75 10 10.75H22C22.1989 10.75 22.3897 10.671 22.5303 10.5303C22.671 10.3897 22.75 10.1989 22.75 10C22.75 9.80109 22.671 9.61032 22.5303 9.46967C22.3897 9.32902 22.1989 9.25 22 9.25Z" fill="black"/>
<path d="M22 14.25H10C9.80109 14.25 9.61032 14.329 9.46967 14.4697C9.32902 14.6103 9.25 14.8011 9.25 15C9.25 15.1989 9.32902 15.3897 9.46967 15.5303C9.61032 15.671 9.80109 15.75 10 15.75H22C22.1989 15.75 22.3897 15.671 22.5303 15.5303C22.671 15.3897 22.75 15.1989 22.75 15C22.75 14.8011 22.671 14.6103 22.5303 14.4697C22.3897 14.329 22.1989 14.25 22 14.25Z" fill="black"/>
<path d="M15 19.25H10C9.80109 19.25 9.61032 19.329 9.46967 19.4697C9.32902 19.6103 9.25 19.8011 9.25 20C9.25 20.1989 9.32902 20.3897 9.46967 20.5303C9.61032 20.671 9.80109 20.75 10 20.75H15C15.1989 20.75 15.3897 20.671 15.5303 20.5303C15.671 20.3897 15.75 20.1989 15.75 20C15.75 19.8011 15.671 19.6103 15.5303 19.4697C15.3897 19.329 15.1989 19.25 15 19.25Z" fill="black"/>
</svg>
