<svg width="32" height="32" viewBox="0 0 32 32" fill="none" xmlns="http://www.w3.org/2000/svg">
<path d="M10.469 17.0253H8.30784V23.0097H9.70434V21.0068H10.5188C11.3167 21.0068 11.9231 20.8681 12.3391 20.5908C12.8157 20.2695 13.0539 19.7461 13.0539 19.0195C13.0539 18.3828 12.8762 17.9033 12.5217 17.582C12.1116 17.2109 11.427 17.0253 10.469 17.0253ZM10.5354 20.0507H9.70434V17.9814H10.4855C11.2384 17.9814 11.6154 18.3271 11.6154 19.0195C11.6155 19.707 11.2551 20.0507 10.5354 20.0507Z" fill="black"/>
<path d="M16.0051 17.0253H13.844V23.0097H15.2405V21.0068H16.055C16.8529 21.0068 17.4593 20.8681 17.8753 20.5908C18.3519 20.2695 18.5901 19.7461 18.5901 19.0195C18.5901 18.3828 18.4124 17.9033 18.0579 17.582C17.6477 17.2109 16.9631 17.0253 16.0051 17.0253ZM16.0715 20.0507H15.2404V17.9814H16.0216C16.7745 17.9814 17.1515 18.3271 17.1515 19.0195C17.1516 19.707 16.7912 20.0507 16.0715 20.0507Z" fill="black"/>
<path d="M18.8391 18.0722H20.592V23.0097H21.9885V18.0722H23.7678V17.0253H18.8391V18.0722Z" fill="black"/>
<path d="M23.0002 3.9999H9.00024C6.24344 3.9999 4.00024 6.2431 4.00024 8.9999V22.9999C4.00024 25.7567 6.24344 27.9999 9.00024 27.9999H23.0002C25.757 27.9999 28.0002 25.7567 28.0002 22.9999V8.9999C28.0002 6.2431 25.7571 3.9999 23.0002 3.9999ZM26.0002 22.9999C26.0002 24.6542 24.6545 25.9999 23.0002 25.9999H9.00024C7.34594 25.9999 6.00024 24.6542 6.00024 22.9999V8.9999C6.00024 7.3456 7.34594 5.9999 9.00024 5.9999H23.0002C24.6545 5.9999 26.0002 7.3456 26.0002 8.9999V22.9999Z" fill="black"/>
</svg>
