<svg xmlns="http://www.w3.org/2000/svg" width="32" height="32" viewBox="0 0 32 32"><path d="M25 2.25H11C9.86124 2.25333 8.76169 2.66626 7.90224 3.41334C7.04279 4.16043 6.48082 5.19179 6.319 6.319C5.19179 6.48082 4.16043 7.04279 3.41334 7.90224C2.66626 8.76169 2.25333 9.86124 2.25 11V25C2.25159 26.2593 2.75254 27.4666 3.643 28.357C4.53345 29.2475 5.74071 29.7484 7 29.75H21C22.1388 29.7467 23.2383 29.3337 24.0978 28.5867C24.9572 27.8396 25.5192 26.8082 25.681 25.681C26.8083 25.5194 27.8398 24.9575 28.5869 24.098C29.334 23.2385 29.7469 22.1388 29.75 21V7C29.7487 5.74063 29.2478 4.53322 28.3573 3.6427C27.4668 2.75219 26.2594 2.25132 25 2.25ZM24.25 25C24.2489 25.8616 23.9062 26.6877 23.2969 27.2969C22.6877 27.9062 21.8616 28.2489 21 28.25H7C6.13837 28.2489 5.31234 27.9062 4.70307 27.2969C4.09381 26.6877 3.75106 25.8616 3.75 25V11C3.75106 10.1384 4.09381 9.31234 4.70307 8.70307C5.31234 8.09381 6.13837 7.75106 7 7.75H21C21.8616 7.75106 22.6877 8.09381 23.2969 8.70307C23.9062 9.31234 24.2489 10.1384 24.25 11V25ZM28.25 21C28.2481 21.7301 28.0005 22.4384 27.5469 23.0105C27.0934 23.5827 26.4604 23.9855 25.75 24.154V11C25.7487 9.74063 25.2478 8.53322 24.3573 7.6427C23.4668 6.75219 22.2594 6.25132 21 6.25H7.846C8.01449 5.53958 8.41729 4.90659 8.98947 4.45305C9.56165 3.99952 10.2699 3.75186 11 3.75H25C25.8616 3.75106 26.6877 4.09381 27.2969 4.70307C27.9062 5.31234 28.2489 6.13837 28.25 7V21Z M20 12.2529H7.008C6.80909 12.2529 6.61832 12.3319 6.47767 12.4726C6.33702 12.6133 6.258 12.804 6.258 13.0029C6.258 13.2018 6.33702 13.3926 6.47767 13.5333C6.61832 13.6739 6.80909 13.7529 7.008 13.7529H20C20.1989 13.7529 20.3897 13.6739 20.5303 13.5333C20.671 13.3926 20.75 13.2018 20.75 13.0029C20.75 12.804 20.671 12.6133 20.5303 12.4726C20.3897 12.3319 20.1989 12.2529 20 12.2529ZM20 17.2499H7C6.80109 17.2499 6.61032 17.3289 6.46967 17.4696C6.32902 17.6103 6.25 17.801 6.25 17.9999C6.25 18.1988 6.32902 18.3896 6.46967 18.5303C6.61032 18.6709 6.80109 18.7499 7 18.7499H20C20.1989 18.7499 20.3897 18.6709 20.5303 18.5303C20.671 18.3896 20.75 18.1988 20.75 17.9999C20.75 17.801 20.671 17.6103 20.5303 17.4696C20.3897 17.3289 20.1989 17.2499 20 17.2499ZM13 22.2499H7C6.80109 22.2499 6.61032 22.3289 6.46967 22.4696C6.32902 22.6103 6.25 22.801 6.25 22.9999C6.25 23.1988 6.32902 23.3896 6.46967 23.5303C6.61032 23.6709 6.80109 23.7499 7 23.7499H13C13.1989 23.7499 13.3897 23.6709 13.5303 23.5303C13.671 23.3896 13.75 23.1988 13.75 22.9999C13.75 22.801 13.671 22.6103 13.5303 22.4696C13.3897 22.3289 13.1989 22.2499 13 22.2499Z"/></svg>