<svg width="32" height="32" viewBox="0 0 32 32" fill="none" xmlns="http://www.w3.org/2000/svg">
<path d="M26.9998 20.487L20.6916 20.4912L22.3285 11.4883L26.9998 11.4851C27.1324 11.4851 27.2595 11.4324 27.3533 11.3386C27.4471 11.2448 27.4998 11.1177 27.4998 10.9851C27.4998 10.8524 27.4471 10.7253 27.3533 10.6315C27.2595 10.5377 27.1324 10.4851 26.9998 10.4851L22.5104 10.4882L23.492 5.08954C23.504 5.02482 23.5031 4.95838 23.4893 4.894C23.4756 4.82963 23.4493 4.7686 23.412 4.71441C23.3746 4.66021 23.327 4.61392 23.2717 4.57819C23.2164 4.54245 23.1546 4.51797 23.0899 4.50615C23.0251 4.49433 22.9587 4.4954 22.8943 4.50931C22.83 4.52321 22.7691 4.54967 22.715 4.58717C22.6609 4.62467 22.6147 4.67248 22.5791 4.72785C22.5435 4.78322 22.5192 4.84507 22.5076 4.90985L21.4932 10.4888L12.5091 10.4951L13.492 5.08954C13.504 5.02482 13.5031 4.95838 13.4893 4.894C13.4756 4.82963 13.4493 4.7686 13.412 4.71441C13.3746 4.66021 13.3269 4.61392 13.2717 4.57819C13.2164 4.54245 13.1546 4.51797 13.0899 4.50615C13.0251 4.49433 12.9587 4.4954 12.8943 4.50931C12.83 4.52321 12.7691 4.54967 12.715 4.58717C12.6609 4.62467 12.6147 4.67248 12.5791 4.72785C12.5435 4.78322 12.5192 4.84507 12.5076 4.90985L11.492 10.4958L5.99979 10.4997C5.86718 10.4997 5.74 10.5524 5.64623 10.6461C5.55246 10.7399 5.49979 10.8671 5.49979 10.9997C5.49979 11.1323 5.55246 11.2595 5.64623 11.3533C5.74 11.447 5.86718 11.4997 5.99979 11.4997L11.3101 11.496L9.67328 20.4985L4.99976 20.5016C4.86715 20.5016 4.73997 20.5543 4.6462 20.6481C4.55243 20.7419 4.49976 20.869 4.49976 21.0016C4.49976 21.1343 4.55243 21.2614 4.6462 21.3552C4.73997 21.449 4.86715 21.5016 4.99976 21.5016L9.49139 21.4986L8.50757 26.9098C8.48391 27.0404 8.51299 27.1749 8.58841 27.284C8.66384 27.3931 8.77945 27.4679 8.90991 27.4918C8.93992 27.4969 8.97029 27.4995 9.00073 27.4997C9.11762 27.4994 9.23075 27.4583 9.32047 27.3834C9.4102 27.3085 9.47087 27.2045 9.49194 27.0895L10.5086 21.498L19.4926 21.492L18.5076 26.9098C18.484 27.0403 18.513 27.1749 18.5885 27.284C18.6639 27.3931 18.7795 27.4679 18.9099 27.4918C18.94 27.4969 18.9703 27.4995 19.0008 27.4997C19.1177 27.4994 19.2308 27.4583 19.3205 27.3834C19.4102 27.3085 19.4709 27.2045 19.492 27.0895L20.5099 21.4913L26.9998 21.487C27.1324 21.487 27.2596 21.4343 27.3533 21.3405C27.4471 21.2467 27.4998 21.1196 27.4998 20.987C27.4998 20.8544 27.4471 20.7272 27.3533 20.6334C27.2596 20.5396 27.1324 20.487 26.9998 20.487ZM10.6904 20.4979L12.3273 11.4953L21.3113 11.489L19.6745 20.4919L10.6904 20.4979Z" fill="black"/>
</svg>
