<svg xmlns="http://www.w3.org/2000/svg" width="32" height="32" viewBox="0 0 32 32"><path d="M27 20.2371L20.991 20.2411L22.537 11.7381L27.001 11.7351C27.1999 11.7349 27.3906 11.6558 27.5312 11.515C27.6717 11.3743 27.7506 11.1835 27.7505 10.9846C27.7504 10.7857 27.6712 10.5949 27.5305 10.4544C27.3897 10.3138 27.1989 10.2349 27 10.2351L22.81 10.2381L23.738 5.13407C23.7556 5.03709 23.7539 4.93759 23.7331 4.84126C23.7122 4.74493 23.6726 4.65364 23.6165 4.57262C23.5603 4.49161 23.4888 4.42244 23.4059 4.36907C23.323 4.31569 23.2305 4.27917 23.1335 4.26157C23.0365 4.24397 22.937 4.24565 22.8407 4.26651C22.7444 4.28736 22.6531 4.32699 22.5721 4.38312C22.491 4.43925 22.4219 4.51079 22.3685 4.59366C22.3151 4.67652 22.2786 4.76909 22.261 4.86607L21.285 10.2391L12.809 10.2451L13.738 5.13307C13.7556 5.03615 13.7539 4.93672 13.7331 4.84044C13.7123 4.74417 13.6727 4.65294 13.6166 4.57196C13.5605 4.49099 13.489 4.42185 13.4062 4.36851C13.3234 4.31517 13.2309 4.27866 13.134 4.26107C12.9383 4.22795 12.7374 4.2727 12.5743 4.38575C12.4111 4.49881 12.2987 4.6712 12.261 4.86607L11.283 10.2461L6 10.2501C5.80109 10.2501 5.61032 10.3291 5.46967 10.4697C5.32902 10.6104 5.25 10.8012 5.25 11.0001C5.25 11.199 5.32902 11.3897 5.46967 11.5304C5.61032 11.6711 5.80109 11.7501 6 11.7501L11.012 11.7461L9.466 20.2491L5 20.2521C4.80109 20.2521 4.61032 20.3311 4.46967 20.4717C4.32902 20.6124 4.25 20.8032 4.25 21.0021C4.25 21.201 4.32902 21.3917 4.46967 21.5324C4.61032 21.6731 4.80109 21.7521 5 21.7521L9.193 21.7491L8.263 26.8661C8.22746 27.0618 8.27113 27.2636 8.3844 27.4272C8.49768 27.5907 8.67127 27.7025 8.867 27.7381C9.06273 27.7736 9.26456 27.7299 9.42809 27.6167C9.59162 27.5034 9.70346 27.3298 9.739 27.1341L10.719 21.7481L19.194 21.7421L18.262 26.8661C18.2338 27.0587 18.2816 27.2548 18.3952 27.413C18.5088 27.5711 18.6794 27.6789 18.871 27.7137C19.0626 27.7484 19.2602 27.7074 19.4221 27.5993C19.5841 27.4912 19.6977 27.3244 19.739 27.1341L20.719 21.7411L27.002 21.7371C27.2009 21.7369 27.3916 21.6578 27.5322 21.517C27.6727 21.3763 27.7516 21.1855 27.7515 20.9866C27.7514 20.7877 27.6722 20.5969 27.5315 20.4564C27.3907 20.3158 27.1999 20.2369 27.001 20.2371H27ZM10.99 20.2471L12.536 11.7451L21.012 11.7391L19.466 20.2421L10.99 20.2481V20.2471Z"/></svg>