<svg xmlns="http://www.w3.org/2000/svg" width="32" height="32" viewBox="0 0 32 32"><path d="M27 20.487L20.692 20.491L22.328 11.488L27 11.485C27.1326 11.485 27.2598 11.4323 27.3536 11.3385C27.4473 11.2447 27.5 11.1176 27.5 10.985C27.5 10.8523 27.4473 10.7252 27.3536 10.6314C27.2598 10.5376 27.1326 10.485 27 10.485L22.51 10.488L23.492 5.08996C23.5109 4.99228 23.5002 4.89117 23.4612 4.79962C23.4222 4.70808 23.3568 4.63028 23.2733 4.57621C23.1897 4.52214 23.092 4.49427 22.9925 4.49619C22.893 4.4981 22.7964 4.52971 22.715 4.58696C22.6609 4.62452 22.6148 4.67239 22.5793 4.72782C22.5438 4.78324 22.5195 4.84514 22.508 4.90996L21.493 10.489L12.509 10.495L13.492 5.08996C13.5109 4.99228 13.5002 4.89117 13.4612 4.79962C13.4222 4.70808 13.3568 4.63028 13.2733 4.57621C13.1897 4.52214 13.092 4.49427 12.9925 4.49619C12.893 4.4981 12.7964 4.52971 12.715 4.58696C12.6609 4.62452 12.6148 4.67239 12.5793 4.72782C12.5438 4.78324 12.5195 4.84514 12.508 4.90996L11.492 10.496L6 10.5C5.86739 10.5 5.74021 10.5526 5.64645 10.6464C5.55268 10.7402 5.5 10.8674 5.5 11C5.5 11.1326 5.55268 11.2597 5.64645 11.3535C5.74021 11.4473 5.86739 11.5 6 11.5L11.31 11.496L9.673 20.498L5 20.503C4.86739 20.503 4.74021 20.5556 4.64645 20.6494C4.55268 20.7432 4.5 20.8703 4.5 21.003C4.5 21.1356 4.55268 21.2627 4.64645 21.3565C4.74021 21.4503 4.86739 21.503 5 21.503L9.491 21.5L8.508 26.91C8.48413 27.0404 8.51307 27.1751 8.58846 27.2842C8.66385 27.3934 8.77951 27.4681 8.91 27.492C9.04049 27.5158 9.17511 27.4869 9.28426 27.4115C9.3934 27.3361 9.46813 27.2204 9.492 27.09L10.509 21.499L19.493 21.493L18.508 26.911C18.4841 27.0414 18.5131 27.1761 18.5885 27.2852C18.6639 27.3944 18.7795 27.4691 18.91 27.493C19.0405 27.5168 19.1751 27.4879 19.2843 27.4125C19.3934 27.3371 19.4681 27.2214 19.492 27.091L20.51 21.492L27 21.488C27.1326 21.488 27.2598 21.4353 27.3536 21.3415C27.4473 21.2477 27.5 21.1206 27.5 20.988C27.5 20.8554 27.4473 20.7282 27.3536 20.6344C27.2598 20.5406 27.1326 20.488 27 20.488V20.487ZM10.69 20.497L12.327 11.495L21.311 11.489L19.674 20.492L10.69 20.498V20.497Z"/></svg>