<svg xmlns="http://www.w3.org/2000/svg" width="32" height="32" viewBox="0 0 32 32"><path d="M18.25 26.5C18.2497 26.6988 18.1706 26.8894 18.03 27.03C17.8894 27.1706 17.6988 27.2497 17.5 27.25H14.5C14.3011 27.2497 14.1105 27.1706 13.9699 27.03C13.8293 26.8894 13.7502 26.6988 13.75 26.5V16.932L12.251 15.432V26.5C12.2518 27.0965 12.4891 27.6683 12.9109 28.0901C13.3326 28.5119 13.9045 28.7492 14.501 28.75H17.501C18.0975 28.7492 18.6693 28.5119 19.0911 28.0901C19.5129 27.6683 19.7502 27.0965 19.751 26.5V22.93L18.251 21.43V26.5H18.25ZM16 13C16.2652 13 16.5195 12.8946 16.7071 12.7071C16.8946 12.5196 17 12.2652 17 12C17 11.7348 16.8946 11.4804 16.7071 11.2929C16.5195 11.1054 16.2652 11 16 11C15.7348 11 15.4804 11.1054 15.2929 11.2929C15.1053 11.4804 15 11.7348 15 12C15 12.2652 15.1053 12.5196 15.2929 12.7071C15.4804 12.8946 15.7348 13 16 13Z M29.5298 28.4699L19.7498 18.6889V16.3629C20.3814 15.8254 20.8877 15.1563 21.2333 14.4024C21.5788 13.6485 21.7551 12.8281 21.7498 11.9989C21.7444 11.1729 21.5633 10.3575 21.2187 9.60684C20.8741 8.85617 20.3737 8.18739 19.7508 7.64487V5.49987C19.7501 4.90338 19.5127 4.33154 19.091 3.90976C18.6692 3.48797 18.0973 3.25066 17.5008 3.24987H14.5008C13.9044 3.25066 13.3325 3.48797 12.9107 3.90976C12.4889 4.33154 12.2516 4.90338 12.2508 5.49987V7.63987C11.6004 8.19724 11.0837 8.89376 10.7388 9.67787L3.52985 2.46887C3.38767 2.33639 3.19963 2.26427 3.00532 2.26769C2.81102 2.27112 2.62564 2.34984 2.48822 2.48725C2.35081 2.62466 2.2721 2.81005 2.26867 3.00435C2.26524 3.19865 2.33737 3.3867 2.46985 3.52887L28.4698 29.5289C28.5385 29.6026 28.6213 29.6617 28.7133 29.7027C28.8053 29.7436 28.9046 29.7657 29.0053 29.7675C29.106 29.7692 29.2061 29.7507 29.2994 29.713C29.3928 29.6753 29.4777 29.6191 29.5489 29.5479C29.6201 29.4767 29.6762 29.3919 29.714 29.2985C29.7517 29.2051 29.7702 29.105 29.7684 29.0043C29.7667 28.9036 29.7446 28.8043 29.7036 28.7123C29.6626 28.6203 29.6035 28.5375 29.5298 28.4689V28.4699ZM11.9118 10.8499C12.1618 9.94987 12.7018 9.15787 13.4498 8.59787C13.543 8.52801 13.6186 8.43742 13.6707 8.33328C13.7227 8.22914 13.7498 8.1143 13.7498 7.99787V5.49987C13.7501 5.30104 13.8292 5.11043 13.9698 4.96983C14.1104 4.82924 14.301 4.75013 14.4998 4.74987H17.4998C17.6987 4.75013 17.8893 4.82924 18.0299 4.96983C18.1705 5.11043 18.2496 5.30104 18.2498 5.49987L18.2508 8.00187C18.251 8.11694 18.2776 8.23044 18.3286 8.33361C18.3795 8.43677 18.4535 8.52685 18.5448 8.59687C19.0699 8.99634 19.4966 9.51071 19.7921 10.1006C20.0877 10.6904 20.2442 11.3401 20.2498 11.9999C20.2543 12.6601 20.1029 13.3121 19.8081 13.9029C19.5132 14.4936 19.0832 15.0065 18.5528 15.3999C18.459 15.4695 18.3827 15.5601 18.33 15.6644C18.2774 15.7688 18.25 15.884 18.2498 16.0009V17.1889L11.9118 10.8509V10.8499Z"/></svg>