<svg xmlns="http://www.w3.org/2000/svg" width="32" height="32" viewBox="0 0 32 32"><path d="M18.5 26.5C18.5 26.7652 18.3946 27.0196 18.2071 27.2071C18.0196 27.3946 17.7652 27.5 17.5 27.5H14.5C14.2348 27.5 13.9804 27.3946 13.7929 27.2071C13.6054 27.0196 13.5 26.7652 13.5 26.5V15.623L12.5 14.623V26.5C12.5005 27.0303 12.7114 27.5387 13.0864 27.9136C13.4613 28.2886 13.9697 28.4995 14.5 28.5H17.5C18.0303 28.4995 18.5387 28.2886 18.9136 27.9136C19.2886 27.5387 19.4995 27.0303 19.5 26.5V21.622L18.5 20.622V26.5ZM16 12.75C16.1989 12.75 16.3897 12.671 16.5303 12.5303C16.671 12.3897 16.75 12.1989 16.75 12C16.75 11.8011 16.671 11.6103 16.5303 11.4697C16.3897 11.329 16.1989 11.25 16 11.25C15.8011 11.25 15.6103 11.329 15.4697 11.4697C15.329 11.6103 15.25 11.8011 15.25 12C15.25 12.1989 15.329 12.3897 15.4697 12.5303C15.6103 12.671 15.8011 12.75 16 12.75Z M29.3542 28.6462L19.5002 18.7922V16.2462C20.1297 15.7329 20.6361 15.0851 20.9822 14.3503C21.3284 13.6155 21.5053 12.8124 21.5002 12.0002C21.4948 11.1907 21.3132 10.3921 20.968 9.65991C20.6228 8.92769 20.1222 8.27944 19.5012 7.76022L19.5002 5.50022C19.4994 4.97003 19.2884 4.46178 18.9135 4.08688C18.5386 3.71198 18.0304 3.50101 17.5002 3.50022H14.5002C13.9699 3.50074 13.4615 3.71163 13.0866 4.08659C12.7116 4.46154 12.5007 4.96994 12.5002 5.50022L12.5012 7.75522C11.741 8.3792 11.1637 9.19703 10.8302 10.1222L3.35419 2.64622C3.25989 2.55514 3.13359 2.50474 3.00249 2.50588C2.87139 2.50702 2.74599 2.5596 2.65328 2.65231C2.56058 2.74501 2.50799 2.87042 2.50685 3.00151C2.50572 3.13261 2.55611 3.25891 2.64719 3.35322L28.6472 29.3532C28.7415 29.4443 28.8678 29.4947 28.9989 29.4936C29.13 29.4924 29.2554 29.4398 29.3481 29.3471C29.4408 29.2544 29.4934 29.129 29.4945 28.9979C29.4957 28.8668 29.4453 28.7405 29.3542 28.6462ZM11.6302 10.9222C11.8766 9.91289 12.4671 9.02104 13.3002 8.40022C13.3625 8.3538 13.413 8.29345 13.4477 8.22398C13.4825 8.15452 13.5004 8.07788 13.5002 8.00022V5.50022C13.5002 5.235 13.6055 4.98065 13.7931 4.79311C13.9806 4.60557 14.235 4.50022 14.5002 4.50022H17.5002C17.7654 4.50022 18.0198 4.60557 18.2073 4.79311C18.3948 4.98065 18.5002 5.235 18.5002 5.50022L18.5012 8.00222C18.5012 8.079 18.5189 8.15475 18.5529 8.22359C18.5868 8.29244 18.6362 8.35253 18.6972 8.39922C19.2527 8.82192 19.7041 9.36625 20.0166 9.99046C20.3292 10.6147 20.4946 11.3022 20.5002 12.0002C20.505 12.6996 20.3446 13.3902 20.032 14.0157C19.7194 14.6413 19.2634 15.1842 18.7012 15.6002C18.6389 15.6471 18.5883 15.7078 18.5534 15.7776C18.5185 15.8473 18.5003 15.9242 18.5002 16.0022V17.7922L11.6302 10.9222Z"/></svg>