<svg xmlns="http://www.w3.org/2000/svg" width="32" height="32" viewBox="0 0 32 32"><path d="M29.75 21.9999V9.99986C29.7487 8.74049 29.2478 7.53308 28.3573 6.64257C27.4668 5.75205 26.2594 5.25118 25 5.24986H7C6.79 5.25686 6.58 5.27786 6.374 5.31386L3.53 2.46986C3.38808 2.3371 3.20016 2.26461 3.00585 2.26767C2.81154 2.27073 2.62599 2.34909 2.48832 2.48625C2.35064 2.62341 2.27158 2.80865 2.26779 3.00295C2.264 3.19725 2.33578 3.38544 2.468 3.52786L2.47 3.53086L28.08 29.1409L28.47 29.5309C28.5392 29.6025 28.622 29.6596 28.7135 29.6988C28.805 29.7381 28.9035 29.7587 29.0031 29.7595C29.1026 29.7604 29.2014 29.7413 29.2935 29.7036C29.3857 29.6658 29.4694 29.6101 29.5398 29.5396C29.6102 29.4692 29.6658 29.3854 29.7035 29.2932C29.7412 29.2011 29.7601 29.1023 29.7592 29.0027C29.7583 28.9031 29.7375 28.8047 29.6982 28.7132C29.6588 28.6217 29.6017 28.539 29.53 28.4699L27.229 26.1689C27.9874 25.7675 28.6224 25.1676 29.0663 24.4333C29.5101 23.699 29.7461 22.8579 29.749 21.9999H29.75ZM7.81 6.74986H20.25V18.4999C20.2481 18.6831 20.1783 18.8591 20.054 18.9939L7.81 6.74986ZM28.25 21.9999C28.248 22.6662 28.0409 23.3157 27.657 23.8603C27.2731 24.4048 26.7309 24.8181 26.104 25.0439L21.117 20.0569C21.522 19.6399 21.749 19.0819 21.75 18.4999V6.74986H25C25.8616 6.75092 26.6877 7.09367 27.2969 7.70293C27.9062 8.3122 28.2489 9.13823 28.25 9.99986V21.9999ZM7 25.2499C6.13837 25.2488 5.31234 24.9061 4.70307 24.2968C4.09381 23.6875 3.75106 22.8615 3.75 21.9999V20.7499H17.57L16.07 19.2499H3.75V9.99986C3.75192 9.18341 4.06315 8.39801 4.621 7.80186L3.561 6.74186C2.72148 7.61898 2.25199 8.78572 2.25 9.99986V21.9999C2.25132 23.2592 2.75219 24.4666 3.6427 25.3572C4.53322 26.2477 5.74063 26.7485 7 26.7499H23.57L22.07 25.2499H7Z M25 9.25C24.8011 9.25 24.6103 9.32902 24.4697 9.46967C24.329 9.61032 24.25 9.80109 24.25 10V20C24.25 20.1989 24.329 20.3897 24.4697 20.5303C24.6103 20.671 24.8011 20.75 25 20.75C25.1989 20.75 25.3897 20.671 25.5303 20.5303C25.671 20.3897 25.75 20.1989 25.75 20V10C25.75 9.80109 25.671 9.61032 25.5303 9.46967C25.3897 9.32902 25.1989 9.25 25 9.25Z"/></svg>