<svg width="32" height="32" viewBox="0 0 32 32" fill="none" xmlns="http://www.w3.org/2000/svg">
<path d="M29.4999 22.0003V10.0003C29.4986 8.80724 29.0241 7.6634 28.1804 6.81977C27.3368 5.97614 26.193 5.50161 24.9999 5.50031H6.99988C6.75825 5.50504 6.5174 5.52939 6.27972 5.57312L3.35339 2.64679C3.25931 2.5546 3.13265 2.50325 3.00093 2.50392C2.86922 2.50458 2.74308 2.5572 2.64994 2.65034C2.5568 2.74348 2.50418 2.86962 2.50352 3.00134C2.50285 3.13305 2.55419 3.25971 2.64639 3.35379L18.7928 19.5003H18.7915L19.7648 20.4735L19.7659 20.4734L28.6464 29.3538C28.7404 29.446 28.8671 29.4974 28.9988 29.4967C29.1305 29.496 29.2567 29.4434 29.3498 29.3503C29.4429 29.2571 29.4956 29.131 29.4962 28.9993C29.4969 28.8676 29.4456 28.7409 29.3534 28.6468L26.8165 26.11C27.6135 25.7581 28.2913 25.1825 28.7676 24.4531C29.2439 23.7236 29.4983 22.8715 29.4999 22.0003ZM7.20688 6.50031H20.4999V18.5003C20.4977 18.6661 20.4537 18.8287 20.3719 18.9729C20.29 19.1172 20.1731 19.2384 20.0319 19.3253L7.20688 6.50031ZM26.0333 25.3267L20.7528 20.0462C20.9849 19.8607 21.1725 19.6256 21.3018 19.358C21.4311 19.0905 21.4988 18.7974 21.4999 18.5003V6.50031H24.9999C25.9278 6.50143 26.8174 6.87054 27.4735 7.52668C28.1296 8.18281 28.4988 9.0724 28.4999 10.0003V22.0003C28.4972 22.7453 28.2564 23.47 27.8126 24.0684C27.3689 24.6669 26.7454 25.1078 26.0333 25.3267Z" fill="black"/>
<path d="M6.99988 25.5003C6.07197 25.4992 5.18238 25.1301 4.52625 24.4739C3.87011 23.8178 3.501 22.9282 3.49988 22.0003V20.5003H18.3774L17.3774 19.5003H3.49988V10.0003C3.50057 9.43577 3.63801 8.87979 3.90042 8.37994C4.16283 7.88009 4.54242 7.45124 5.00671 7.13007L4.2998 6.42316C3.7429 6.83897 3.29037 7.37863 2.97798 7.99947C2.66559 8.62031 2.50191 9.30531 2.49988 10.0003V22.0003C2.50118 23.1934 2.9757 24.3372 3.81934 25.1809C4.66297 26.0245 5.8068 26.499 6.99988 26.5003H24.3777L23.3776 25.5003H6.99988Z" fill="black"/>
<path d="M24.9999 9.50031C24.9342 9.50027 24.8692 9.51318 24.8085 9.53829C24.7478 9.56341 24.6927 9.60023 24.6462 9.64667C24.5998 9.69311 24.563 9.74824 24.5379 9.80892C24.5127 9.8696 24.4998 9.93464 24.4999 10.0003V20.0003C24.4999 20.1329 24.5526 20.2601 24.6463 20.3539C24.7401 20.4476 24.8673 20.5003 24.9999 20.5003C25.1325 20.5003 25.2597 20.4476 25.3534 20.3539C25.4472 20.2601 25.4999 20.1329 25.4999 20.0003V10.0003C25.4999 9.93464 25.487 9.8696 25.4619 9.80892C25.4368 9.74825 25.3999 9.69311 25.3535 9.64667C25.3071 9.60024 25.2519 9.56341 25.1913 9.53829C25.1306 9.51318 25.0655 9.50027 24.9999 9.50031Z" fill="black"/>
</svg>
