<svg width="32" height="32" viewBox="0 0 32 32" fill="none" xmlns="http://www.w3.org/2000/svg">
<path d="M18.5 26.4995C18.4998 26.7647 18.3944 27.0189 18.2069 27.2064C18.0194 27.3939 17.7652 27.4993 17.5 27.4995H14.5C14.2349 27.4993 13.9806 27.3939 13.7931 27.2064C13.6056 27.0189 13.5002 26.7647 13.5 26.4995L13.5009 15.6234L12.5009 14.6235L12.5 26.4995C12.5007 27.0297 12.7116 27.538 13.0866 27.9129C13.4615 28.2879 13.9698 28.4988 14.5 28.4995H17.5C18.0302 28.4988 18.5386 28.2879 18.9135 27.9129C19.2884 27.538 19.4993 27.0297 19.5 26.4995V21.6225L18.5 20.6225V26.4995Z" fill="black"/>
<path d="M16 12.75C16.4142 12.75 16.75 12.4142 16.75 12C16.75 11.5858 16.4142 11.25 16 11.25C15.5857 11.25 15.25 11.5858 15.25 12C15.25 12.4142 15.5857 12.75 16 12.75Z" fill="black"/>
<path d="M29.3535 28.646L19.5 18.7925V16.2456C20.1295 15.7323 20.636 15.0844 20.9821 14.3496C21.3282 13.6148 21.5052 12.8118 21.5 11.9995C21.4945 11.1902 21.3128 10.3917 20.9676 9.65965C20.6224 8.92758 20.122 8.27944 19.501 7.76027L19.5 5.49953C19.4993 4.96931 19.2884 4.461 18.9135 4.08608C18.5386 3.71115 18.0302 3.50022 17.5 3.49953H14.5C13.9698 3.50022 13.4615 3.71115 13.0866 4.08608C12.7116 4.461 12.5007 4.96931 12.5 5.49953L12.501 7.75539C11.7408 8.37923 11.1633 9.197 10.8297 10.1222L3.35354 2.646C3.25946 2.55381 3.13281 2.50246 3.00109 2.50313C2.86937 2.50379 2.74323 2.55641 2.65009 2.64955C2.55695 2.74269 2.50433 2.86883 2.50367 3.00055C2.503 3.13226 2.55435 3.25892 2.64654 3.353L28.6465 29.353C28.7406 29.4452 28.8672 29.4965 28.999 29.4959C29.1307 29.4952 29.2568 29.4426 29.3499 29.3494C29.4431 29.2563 29.4957 29.1302 29.4964 28.9985C29.497 28.8667 29.4457 28.7401 29.3535 28.646ZM11.63 10.9225C11.876 9.91262 12.4665 9.02016 13.2998 8.39894C13.362 8.35255 13.4125 8.29228 13.4472 8.22294C13.482 8.15359 13.5001 8.07709 13.5 7.99953V5.49953C13.5002 5.23437 13.6056 4.98012 13.7931 4.79262C13.9806 4.60512 14.2349 4.49971 14.5 4.49953H17.5C17.7652 4.49971 18.0194 4.60512 18.2069 4.79262C18.3944 4.98012 18.4998 5.23437 18.5 5.49953L18.501 8.00053C18.5009 8.07743 18.5186 8.15331 18.5526 8.22225C18.5867 8.2912 18.6362 8.35134 18.6973 8.39799C19.2529 8.82081 19.7042 9.36525 20.0167 9.98956C20.3291 10.6139 20.4945 11.3014 20.5 11.9996C20.5049 12.699 20.3445 13.3896 20.0319 14.0153C19.7194 14.641 19.2634 15.184 18.7012 15.6001C18.6389 15.6469 18.5882 15.7075 18.5533 15.7771C18.5184 15.8468 18.5002 15.9236 18.5 16.0015V17.7925L11.63 10.9225Z" fill="black"/>
</svg>
