<svg xmlns="http://www.w3.org/2000/svg" width="32" height="32" viewBox="0 0 32 32"><path d="M29.4 9.867L24.4 3.199C24.1195 2.82762 23.7569 2.52616 23.3406 2.31816C22.9242 2.11016 22.4654 2.00127 22 2H15C13.848 2.00168 12.7317 2.40042 11.8394 3.12903C10.947 3.85764 10.3331 4.87158 10.101 6H7C5.6744 6.00159 4.40356 6.52888 3.46622 7.46622C2.52888 8.40356 2.00159 9.6744 2 11V25C2.00159 26.3256 2.52888 27.5964 3.46622 28.5338C4.40356 29.4711 5.6744 29.9984 7 30H17C18.1521 29.9985 19.2684 29.5998 20.1608 28.8712C21.0532 28.1426 21.6671 27.1285 21.899 26H25C26.3257 25.9987 27.5967 25.4715 28.5341 24.5341C29.4715 23.5967 29.9987 22.3257 30 21V11.667C29.9993 11.018 29.7888 10.3866 29.4 9.867ZM20 25C19.9989 25.7953 19.6825 26.5578 19.1202 27.1202C18.5578 27.6825 17.7953 27.9989 17 28H7C6.20459 27.9992 5.44199 27.6829 4.87956 27.1204C4.31712 26.558 4.00079 25.7954 4 25V11C4.00079 10.2046 4.31712 9.44199 4.87956 8.87956C5.44199 8.31712 6.20459 8.00079 7 8H13.995V14C13.9958 14.5302 14.2068 15.0384 14.5817 15.4133C14.9566 15.7882 15.4648 15.9992 15.995 16H20V25ZM15.995 14V9.992L19 14H15.995ZM28 21C27.9989 21.7953 27.6825 22.5578 27.1202 23.1202C26.5578 23.6825 25.7953 23.9989 25 24H22V15.667C21.9993 15.018 21.7888 14.3866 21.4 13.867L16.4 7.199C16.1195 6.82762 15.7569 6.52616 15.3406 6.31816C14.9242 6.11016 14.4654 6.00127 14 6H12.184C12.3895 5.41669 12.7704 4.91128 13.2747 4.55318C13.7789 4.19507 14.3816 4.00184 15 4H22C22.1551 4.00062 22.308 4.03703 22.4468 4.10641C22.5856 4.17579 22.7064 4.27626 22.8 4.4L27.8 11.067C27.9298 11.2401 28 11.4506 28 11.667V21Z"/></svg>