<svg width="32" height="32" viewBox="0 0 32 32" fill="none" xmlns="http://www.w3.org/2000/svg">
<path d="M29.2 10.0165L24.2 3.3495C23.9429 3.00899 23.6106 2.73256 23.2289 2.54182C22.8473 2.35108 22.4267 2.25121 22 2.25H15C13.8728 2.25292 12.7834 2.65703 11.9269 3.38996C11.0705 4.12288 10.5029 5.13675 10.3259 6.25H7C5.74067 6.25146 4.53333 6.75237 3.64285 7.64285C2.75237 8.53333 2.25146 9.74067 2.25 11V25C2.25143 26.2593 2.75233 27.4667 3.64282 28.3572C4.53331 29.2477 5.74066 29.7486 7 29.75H17C18.1272 29.7471 19.2166 29.343 20.0731 28.6101C20.9296 27.8771 21.4971 26.8633 21.6742 25.75H25C26.2593 25.7486 27.4667 25.2477 28.3572 24.3572C29.2477 23.4667 29.7486 22.2593 29.75 21V11.667C29.7492 11.072 29.5563 10.4931 29.2 10.0165ZM20.25 25C20.249 25.8616 19.9063 26.6877 19.297 27.297C18.6877 27.9063 17.8616 28.249 17 28.25H7C6.13836 28.249 5.31229 27.9063 4.70301 27.297C4.09374 26.6877 3.75101 25.8616 3.75 25V11C3.75101 10.1384 4.09374 9.31229 4.70301 8.70301C5.31229 8.09374 6.13836 7.75101 7 7.75H14C14.0825 7.75148 14.1646 7.76123 14.2452 7.7791V14C14.2458 14.464 14.4303 14.9088 14.7584 15.2368C15.0864 15.5649 15.5312 15.7494 15.9952 15.75H20.25V25ZM15.7447 14V9.2422L19.5 14.25H15.9947C15.9284 14.25 15.8648 14.2237 15.8179 14.1768C15.771 14.1299 15.7447 14.0663 15.7447 14ZM28.25 21C28.249 21.8616 27.9063 22.6877 27.297 23.297C26.6877 23.9063 25.8616 24.249 25 24.25H21.75V15.667C21.7491 15.0721 21.5562 14.4935 21.2 14.017L16.2 7.35C15.943 7.0094 15.6106 6.73287 15.229 6.54204C14.8473 6.35122 14.4267 6.25126 14 6.25H11.846C12.0145 5.53958 12.4173 4.90659 12.9895 4.45305C13.5616 3.99952 14.2699 3.75186 15 3.75H22C22.1941 3.75062 22.3854 3.79606 22.559 3.88279C22.7327 3.96952 22.8839 4.09519 23.001 4.25L28.001 10.917C28.1623 11.1338 28.2496 11.3968 28.25 11.667V21Z" fill="black"/>
</svg>
