<svg xmlns="http://www.w3.org/2000/svg" width="32" height="32" viewBox="0 0 32 32"><path d="M29.2 10.017L24.2 3.35C23.943 3.00938 23.6107 2.73283 23.229 2.542C22.8473 2.35117 22.4267 2.25123 22 2.25H15C13.8728 2.25309 12.7835 2.65726 11.9271 3.39016C11.0708 4.12305 10.5032 5.13683 10.326 6.25H7C5.74071 6.25159 4.53345 6.75254 3.643 7.643C2.75254 8.53345 2.25159 9.74071 2.25 11V25C2.25159 26.2593 2.75254 27.4666 3.643 28.357C4.53345 29.2475 5.74071 29.7484 7 29.75H17C18.1272 29.7469 19.2165 29.3427 20.0729 28.6098C20.9292 27.8769 21.4968 26.8632 21.674 25.75H25C26.2594 25.7487 27.4668 25.2478 28.3573 24.3573C29.2478 23.4668 29.7487 22.2594 29.75 21V11.667C29.75 11.072 29.556 10.493 29.2 10.017ZM20.25 25C20.2489 25.8616 19.9062 26.6877 19.2969 27.2969C18.6877 27.9062 17.8616 28.2489 17 28.25H7C6.13837 28.2489 5.31234 27.9062 4.70307 27.2969C4.09381 26.6877 3.75106 25.8616 3.75 25V11C3.75106 10.1384 4.09381 9.31234 4.70307 8.70307C5.31234 8.09381 6.13837 7.75106 7 7.75H14C14.082 7.751 14.165 7.761 14.245 7.78V14C14.2455 14.464 14.4301 14.9088 14.7581 15.2369C15.0862 15.5649 15.531 15.7495 15.995 15.75H20.25V25ZM15.745 14V9.242L19.5 14.25H15.995C15.9287 14.25 15.8651 14.2237 15.8182 14.1768C15.7713 14.1299 15.745 14.0663 15.745 14ZM28.25 21C28.2489 21.8616 27.9062 22.6877 27.2969 23.2969C26.6877 23.9062 25.8616 24.2489 25 24.25H21.75V15.667C21.75 15.072 21.556 14.493 21.2 14.017L16.2 7.35C15.9429 7.00943 15.6106 6.73293 15.2289 6.54211C14.8473 6.35128 14.4267 6.25131 14 6.25H11.846C12.0145 5.53958 12.4173 4.90659 12.9895 4.45305C13.5616 3.99952 14.2699 3.75186 15 3.75H22C22.1941 3.75061 22.3854 3.79606 22.559 3.88279C22.7327 3.96952 22.8839 4.09519 23.001 4.25L28.001 10.917C28.162 11.134 28.25 11.397 28.25 11.667V21Z"/></svg>