<svg xmlns="http://www.w3.org/2000/svg" width="32" height="32" viewBox="0 0 32 32"><path d="M29.324 12.099C28.955 11.6556 28.4652 11.3291 27.914 11.159C27.7163 9.99788 27.1148 8.94389 26.2158 8.18297C25.3167 7.42204 24.1778 7.00309 23 7H15.956C15.8113 7.00024 15.6682 6.96896 15.5368 6.90834C15.4054 6.84773 15.2888 6.75924 15.195 6.649L14.448 5.771C13.9791 5.2154 13.3944 4.76901 12.7349 4.4631C12.0754 4.15718 11.357 3.99912 10.63 4H7C5.6744 4.00159 4.40356 4.52889 3.46622 5.46622C2.52888 6.40356 2.00159 7.67441 2 9V23C2.00159 24.3256 2.52888 25.5964 3.46622 26.5338C4.40356 27.4711 5.6744 27.9984 7 28H24.803C25.4962 27.999 26.1677 27.7584 26.7038 27.319C27.24 26.8796 27.6078 26.2685 27.745 25.589L29.945 14.589C30.0331 14.1539 30.0231 13.7046 29.9156 13.2739C29.8082 12.8431 29.6061 12.4418 29.324 12.099ZM4 23V9C4.00079 8.2046 4.31712 7.442 4.87956 6.87956C5.44199 6.31712 6.20459 6.0008 7 6H10.632C11.0681 5.99959 11.499 6.09451 11.8946 6.27813C12.2902 6.46176 12.6408 6.72963 12.922 7.063L13.674 7.947C13.9554 8.27731 14.3052 8.54254 14.6992 8.72435C15.0933 8.90617 15.5221 9.00022 15.956 9H23C23.6184 9.00184 24.2211 9.19508 24.7253 9.55318C25.2296 9.91128 25.6105 10.4167 25.816 11H10.083C9.38987 11.0012 8.71845 11.2419 8.18235 11.6812C7.64625 12.1206 7.27838 12.7316 7.141 13.411L4.941 24.411C4.89529 24.6474 4.87817 24.8885 4.89 25.129C4.60802 24.8508 4.38413 24.5193 4.23134 24.1538C4.07856 23.7883 3.99992 23.3961 4 23ZM25.784 25.197C25.7382 25.4233 25.6156 25.6267 25.437 25.7731C25.2585 25.9194 25.0349 25.9995 24.804 26H7.882C7.73411 25.9999 7.58808 25.967 7.45443 25.9037C7.32078 25.8404 7.20284 25.7482 7.10911 25.6338C7.01537 25.5194 6.94818 25.3857 6.91237 25.2422C6.87655 25.0987 6.87301 24.949 6.902 24.804L9.102 13.803C9.14785 13.5768 9.27041 13.3733 9.44898 13.227C9.62754 13.0806 9.85115 13.0005 10.082 13H27.003C27.1508 13.0003 27.2968 13.0333 27.4303 13.0967C27.5639 13.16 27.6818 13.2522 27.7754 13.3666C27.8691 13.4809 27.9364 13.6146 27.9722 13.758C28.0081 13.9014 28.0118 14.051 27.983 14.196L25.784 25.197Z"/></svg>