<svg width="32" height="32" viewBox="0 0 32 32" fill="none" xmlns="http://www.w3.org/2000/svg">
<path d="M29.13 12.2568C28.7579 11.8049 28.2505 11.4843 27.6826 11.3422C27.526 10.2104 26.966 9.17324 26.1057 8.42139C25.2454 7.66954 24.1426 7.25358 23 7.25H15.9556C15.7747 7.25003 15.5959 7.21075 15.4317 7.13488C15.2675 7.05901 15.1217 6.94837 15.0044 6.8106L14.2564 5.9317C13.8111 5.40426 13.256 4.98048 12.6299 4.69C12.0037 4.39951 11.3217 4.24935 10.6314 4.25H7C5.74067 4.25146 4.53333 4.75237 3.64285 5.64285C2.75237 6.53333 2.25146 7.74067 2.25 9V23C2.25143 24.2593 2.75233 25.4667 3.64282 26.3572C4.53331 27.2477 5.74066 27.7486 7 27.75H24.8033C25.4386 27.7488 26.054 27.5282 26.5454 27.1255C27.0368 26.7228 27.374 26.1627 27.5 25.54L29.7 14.54C29.7805 14.141 29.7711 13.729 29.6725 13.3341C29.5739 12.9392 29.3886 12.5712 29.13 12.2568ZM3.75 23V9C3.75101 8.13836 4.09374 7.31229 4.70301 6.70302C5.31229 6.09374 6.13836 5.75101 7 5.75H10.6319C11.1041 5.74946 11.5707 5.85209 11.9991 6.05074C12.4275 6.24938 12.8073 6.53923 13.1119 6.9L13.8639 7.7838C14.1217 8.08687 14.4423 8.33023 14.8035 8.497C15.1647 8.66378 15.5578 8.74997 15.9557 8.7496H23C23.7301 8.75144 24.4384 8.99909 25.0106 9.45262C25.5828 9.90616 25.9856 10.5392 26.1541 11.2496H10.0826C9.44734 11.2509 8.83201 11.4715 8.3407 11.8742C7.84939 12.2769 7.51224 12.837 7.3863 13.4596L5.1863 24.4596C5.1039 24.8781 5.12024 25.31 5.234 25.721C4.77934 25.4272 4.40539 25.0243 4.14619 24.5491C3.887 24.0739 3.7508 23.5413 3.75 23ZM28.229 14.245L26.029 25.246C25.9718 25.529 25.8185 25.7835 25.5951 25.9665C25.3717 26.1494 25.092 26.2496 24.8033 26.25H7.8824C7.69747 26.25 7.51486 26.2089 7.34771 26.1298C7.18057 26.0507 7.03306 25.9355 6.91583 25.7925C6.79859 25.6494 6.71455 25.4822 6.66976 25.3028C6.62497 25.1234 6.62054 24.9362 6.6568 24.7549L8.8568 13.7539C8.91409 13.4709 9.0674 13.2164 9.29077 13.0335C9.51415 12.8505 9.79387 12.7504 10.0826 12.75H27.0034C27.1883 12.75 27.3709 12.7911 27.5381 12.8702C27.7052 12.9493 27.8527 13.0645 27.9699 13.2075C28.0872 13.3505 28.1712 13.5178 28.216 13.6972C28.2608 13.8766 28.2652 14.0637 28.229 14.245Z" fill="black"/>
</svg>
