<svg width="32" height="32" viewBox="0 0 32 32" fill="none" xmlns="http://www.w3.org/2000/svg">
<path d="M21.0001 23.5C21.5523 23.5 22.0001 23.0522 22.0001 22.5C22.0001 21.9477 21.5523 21.5 21.0001 21.5C20.4478 21.5 20.0001 21.9477 20.0001 22.5C20.0001 23.0522 20.4478 23.5 21.0001 23.5Z" fill="black"/>
<path d="M11.0001 18.5C11.5523 18.5 12.0001 18.0522 12.0001 17.5C12.0001 16.9477 11.5523 16.5 11.0001 16.5C10.4478 16.5 10.0001 16.9477 10.0001 17.5C10.0001 18.0522 10.4478 18.5 11.0001 18.5Z" fill="black"/>
<path d="M16.0001 18.5C16.5523 18.5 17.0001 18.0522 17.0001 17.5C17.0001 16.9477 16.5523 16.5 16.0001 16.5C15.4478 16.5 15.0001 16.9477 15.0001 17.5C15.0001 18.0522 15.4478 18.5 16.0001 18.5Z" fill="black"/>
<path d="M21.0001 18.5C21.5523 18.5 22.0001 18.0522 22.0001 17.5C22.0001 16.9477 21.5523 16.5 21.0001 16.5C20.4478 16.5 20.0001 16.9477 20.0001 17.5C20.0001 18.0522 20.4478 18.5 21.0001 18.5Z" fill="black"/>
<path d="M16.0005 3.5C6.46049 3.5 2.50049 7.93164 2.50049 10.3047V11.7715C2.50118 12.4949 2.78886 13.1885 3.30041 13.7001C3.81196 14.2116 4.50556 14.4993 5.229 14.5H8.79834C9.51695 14.497 10.205 14.2091 10.7116 13.6994C11.2182 13.1897 11.5019 12.4999 11.5005 11.7812V9.92867C12.7899 8.94596 14.3803 8.44101 16.0005 8.49996C17.6197 8.44102 19.2095 8.9437 20.5005 9.92281L20.4995 11.79C20.5256 12.5216 20.8361 13.2141 21.365 13.7202C21.8939 14.2263 22.5995 14.5061 23.3315 14.5H26.7719C27.4954 14.4993 28.189 14.2116 28.7005 13.7001C29.2121 13.1885 29.4997 12.4949 29.5004 11.7715V10.3047C29.5005 7.9316 25.5405 3.5 16.0005 3.5ZM28.5005 11.7715C28.5 12.2298 28.3177 12.6691 27.9937 12.9932C27.6696 13.3172 27.2302 13.4995 26.772 13.5H23.3315C22.8653 13.5037 22.4154 13.3285 22.0746 13.0103C21.7337 12.6922 21.5279 12.2554 21.4995 11.79L21.5005 9.83687C21.5005 8.83787 18.7818 7.49996 16.0005 7.49996C13.2193 7.49996 10.5005 8.84176 10.5005 9.84273V11.7812C10.5021 12.2347 10.3238 12.6703 10.0047 12.9925C9.68565 13.3147 9.2518 13.4972 8.79834 13.5H5.229C4.77072 13.4995 4.33137 13.3172 4.00732 12.9932C3.68327 12.6691 3.501 12.2298 3.50049 11.7715V10.3047C3.50049 8.59665 7.09717 4.49996 16.0005 4.49996C24.9038 4.49996 28.5005 8.59664 28.5005 10.3047V11.7715Z" fill="black"/>
<path d="M11.0001 23.5C11.5523 23.5 12.0001 23.0522 12.0001 22.5C12.0001 21.9477 11.5523 21.5 11.0001 21.5C10.4478 21.5 10.0001 21.9477 10.0001 22.5C10.0001 23.0522 10.4478 23.5 11.0001 23.5Z" fill="black"/>
<path d="M16.0001 23.5C16.5523 23.5 17.0001 23.0522 17.0001 22.5C17.0001 21.9477 16.5523 21.5 16.0001 21.5C15.4478 21.5 15.0001 21.9477 15.0001 22.5C15.0001 23.0522 15.4478 23.5 16.0001 23.5Z" fill="black"/>
<path d="M11.0001 28.5C11.5523 28.5 12.0001 28.0522 12.0001 27.5C12.0001 26.9477 11.5523 26.5 11.0001 26.5C10.4478 26.5 10.0001 26.9477 10.0001 27.5C10.0001 28.0522 10.4478 28.5 11.0001 28.5Z" fill="black"/>
<path d="M16.0001 28.5C16.5523 28.5 17.0001 28.0522 17.0001 27.5C17.0001 26.9477 16.5523 26.5 16.0001 26.5C15.4478 26.5 15.0001 26.9477 15.0001 27.5C15.0001 28.0522 15.4478 28.5 16.0001 28.5Z" fill="black"/>
<path d="M21.0001 28.5C21.5523 28.5 22.0001 28.0522 22.0001 27.5C22.0001 26.9477 21.5523 26.5 21.0001 26.5C20.4478 26.5 20.0001 26.9477 20.0001 27.5C20.0001 28.0522 20.4478 28.5 21.0001 28.5Z" fill="black"/>
</svg>
