<svg width="32" height="32" viewBox="0 0 32 32" fill="none" xmlns="http://www.w3.org/2000/svg">
<path d="M20.9999 23.75C21.6903 23.75 22.2499 23.1904 22.2499 22.5C22.2499 21.8096 21.6903 21.25 20.9999 21.25C20.3095 21.25 19.7499 21.8096 19.7499 22.5C19.7499 23.1904 20.3095 23.75 20.9999 23.75Z" fill="black"/>
<path d="M10.9999 18.75C11.6903 18.75 12.2499 18.1904 12.2499 17.5C12.2499 16.8096 11.6903 16.25 10.9999 16.25C10.3095 16.25 9.7499 16.8096 9.7499 17.5C9.7499 18.1904 10.3095 18.75 10.9999 18.75Z" fill="black"/>
<path d="M15.9999 18.75C16.6903 18.75 17.2499 18.1904 17.2499 17.5C17.2499 16.8096 16.6903 16.25 15.9999 16.25C15.3095 16.25 14.7499 16.8096 14.7499 17.5C14.7499 18.1904 15.3095 18.75 15.9999 18.75Z" fill="black"/>
<path d="M20.9999 18.75C21.6903 18.75 22.2499 18.1904 22.2499 17.5C22.2499 16.8096 21.6903 16.25 20.9999 16.25C20.3095 16.25 19.7499 16.8096 19.7499 17.5C19.7499 18.1904 20.3095 18.75 20.9999 18.75Z" fill="black"/>
<path d="M11.75 11.7816V10.03C12.7171 9.32546 13.86 8.90168 15.0527 8.8054C15.2503 8.78222 15.4306 8.6815 15.5539 8.52539C15.6772 8.36929 15.7335 8.17059 15.7103 7.973C15.6871 7.77541 15.5864 7.59513 15.4303 7.4718C15.2742 7.34848 15.0755 7.29222 14.8779 7.3154C12.6932 7.5712 10.25 8.7064 10.25 9.8426V11.7816C10.2518 12.1687 10.0999 12.5407 9.82772 12.816C9.55555 13.0913 9.1853 13.2474 8.7982 13.25H5.2282C4.83623 13.2495 4.46046 13.0936 4.18334 12.8164C3.90622 12.5392 3.75037 12.1634 3.75 11.7714V10.3046C3.75 8.67 7.2748 4.75 16 4.75C16.34 4.75 16.6722 4.75587 16.9965 4.7676C17.1953 4.7746 17.3887 4.70235 17.5342 4.56673C17.6798 4.43111 17.7654 4.24324 17.7724 4.04445C17.7795 3.84566 17.7072 3.65222 17.5716 3.50671C17.436 3.36119 17.2481 3.2755 17.0493 3.2685C16.707 3.25617 16.3572 3.25 16 3.25C6.2832 3.25 2.25 7.8447 2.25 10.3047V11.7715C2.25082 12.5612 2.56488 13.3183 3.12325 13.8767C3.68163 14.4351 4.43872 14.7492 5.2284 14.75H8.7984C9.58315 14.7469 10.3346 14.4326 10.888 13.8761C11.4413 13.3196 11.7513 12.5664 11.75 11.7816Z" fill="black"/>
<path d="M10.9999 23.75C11.6903 23.75 12.2499 23.1904 12.2499 22.5C12.2499 21.8096 11.6903 21.25 10.9999 21.25C10.3095 21.25 9.7499 21.8096 9.7499 22.5C9.7499 23.1904 10.3095 23.75 10.9999 23.75Z" fill="black"/>
<path d="M15.9999 23.75C16.6903 23.75 17.2499 23.1904 17.2499 22.5C17.2499 21.8096 16.6903 21.25 15.9999 21.25C15.3095 21.25 14.7499 21.8096 14.7499 22.5C14.7499 23.1904 15.3095 23.75 15.9999 23.75Z" fill="black"/>
<path d="M10.9999 28.75C11.6903 28.75 12.2499 28.1904 12.2499 27.5C12.2499 26.8096 11.6903 26.25 10.9999 26.25C10.3095 26.25 9.7499 26.8096 9.7499 27.5C9.7499 28.1904 10.3095 28.75 10.9999 28.75Z" fill="black"/>
<path d="M15.9999 28.75C16.6903 28.75 17.2499 28.1904 17.2499 27.5C17.2499 26.8096 16.6903 26.25 15.9999 26.25C15.3095 26.25 14.7499 26.8096 14.7499 27.5C14.7499 28.1904 15.3095 28.75 15.9999 28.75Z" fill="black"/>
<path d="M20.9999 28.75C21.6903 28.75 22.2499 28.1904 22.2499 27.5C22.2499 26.8096 21.6903 26.25 20.9999 26.25C20.3095 26.25 19.7499 26.8096 19.7499 27.5C19.7499 28.1904 20.3095 28.75 20.9999 28.75Z" fill="black"/>
<path d="M29.5194 12.1327L24.5336 3.1327L24.5248 3.1176C24.37 2.85232 24.1481 2.63245 23.8814 2.4801C23.6147 2.32774 23.3126 2.24825 23.0055 2.24963C22.6983 2.25101 22.397 2.3332 22.1316 2.48795C21.8663 2.64269 21.6464 2.86454 21.494 3.1312L16.49 12.1185C16.335 12.3844 16.2528 12.6865 16.2518 12.9942C16.2508 13.302 16.331 13.6046 16.4842 13.8715C16.6375 14.1384 16.8585 14.3602 17.1248 14.5144C17.3912 14.6687 17.6935 14.7499 18.0013 14.75H27.9994C28.3058 14.75 28.6069 14.6695 28.8724 14.5167C29.138 14.3638 29.3588 14.1439 29.5127 13.8789C29.6666 13.6139 29.7482 13.3132 29.7494 13.0067C29.7505 12.7003 29.6712 12.3989 29.5194 12.1327ZM28.2162 13.1244C28.1949 13.1631 28.1635 13.1952 28.1253 13.2173C28.0871 13.2394 28.0435 13.2507 27.9994 13.2499H18.0013C17.9572 13.2507 17.9137 13.2394 17.8754 13.2173C17.8372 13.1952 17.8058 13.1631 17.7845 13.1244C17.7613 13.084 17.7498 13.0379 17.7513 12.9914C17.7527 12.9448 17.7671 12.8996 17.7928 12.8607L22.7967 3.8744C22.8185 3.83703 22.8497 3.80594 22.8871 3.78416C22.9245 3.76238 22.9669 3.75065 23.0102 3.75011C23.0535 3.74957 23.0961 3.76023 23.1341 3.78106C23.172 3.80189 23.2039 3.83219 23.2267 3.869L28.215 12.8734C28.238 12.9112 28.2503 12.9545 28.2505 12.9987C28.2507 13.043 28.2389 13.0864 28.2162 13.1244Z" fill="black"/>
<path d="M23 6.6923C22.8011 6.6923 22.6103 6.77132 22.4697 6.91197C22.329 7.05262 22.25 7.24339 22.25 7.4423V8.75C22.25 8.94891 22.329 9.13968 22.4697 9.28033C22.6103 9.42098 22.8011 9.5 23 9.5C23.1989 9.5 23.3897 9.42098 23.5303 9.28033C23.671 9.13968 23.75 8.94891 23.75 8.75V7.4423C23.75 7.24339 23.671 7.05262 23.5303 6.91197C23.3897 6.77132 23.1989 6.6923 23 6.6923Z" fill="black"/>
<path d="M22.9999 12C23.4141 12 23.7499 11.6642 23.7499 11.25C23.7499 10.8358 23.4141 10.5 22.9999 10.5C22.5857 10.5 22.2499 10.8358 22.2499 11.25C22.2499 11.6642 22.5857 12 22.9999 12Z" fill="black"/>
</svg>
