<svg width="32" height="32" viewBox="0 0 32 32" fill="none" xmlns="http://www.w3.org/2000/svg">
<path d="M20.9999 24C21.8283 24 22.4999 23.3284 22.4999 22.5C22.4999 21.6716 21.8283 21 20.9999 21C20.1715 21 19.4999 21.6716 19.4999 22.5C19.4999 23.3284 20.1715 24 20.9999 24Z" fill="black"/>
<path d="M10.9999 19C11.8283 19 12.4999 18.3284 12.4999 17.5C12.4999 16.6716 11.8283 16 10.9999 16C10.1715 16 9.4999 16.6716 9.4999 17.5C9.4999 18.3284 10.1715 19 10.9999 19Z" fill="black"/>
<path d="M15.9999 19C16.8283 19 17.4999 18.3284 17.4999 17.5C17.4999 16.6716 16.8283 16 15.9999 16C15.1715 16 14.4999 16.6716 14.4999 17.5C14.4999 18.3284 15.1715 19 15.9999 19Z" fill="black"/>
<path d="M20.9999 19C21.8283 19 22.4999 18.3284 22.4999 17.5C22.4999 16.6716 21.8283 16 20.9999 16C20.1715 16 19.4999 16.6716 19.4999 17.5C19.4999 18.3284 20.1715 19 20.9999 19Z" fill="black"/>
<path d="M12 11.7817V10.146C12.9192 9.52934 13.9787 9.15372 15.081 9.0537C15.2126 9.03993 15.3402 9.00017 15.4564 8.93672C15.5725 8.87327 15.6749 8.78739 15.7577 8.68407C15.8404 8.58074 15.9018 8.46203 15.9382 8.3348C15.9747 8.20757 15.9856 8.07437 15.9702 7.94291C15.9548 7.81145 15.9135 7.68436 15.8486 7.56899C15.7838 7.45362 15.6966 7.35228 15.5923 7.27084C15.488 7.1894 15.3685 7.12948 15.2409 7.09456C15.1132 7.05964 14.9799 7.0504 14.8486 7.0674C12.8666 7.2993 10 8.4209 10 9.8428V11.7817C10.0018 12.1025 9.87634 12.411 9.65103 12.6394C9.42572 12.8678 9.11902 12.9975 8.7982 13H5.2282C4.90256 12.9995 4.59039 12.8699 4.36015 12.6396C4.12991 12.4093 4.0004 12.0971 4 11.7715V10.3047C4 8.7949 7.57 5 16 5C16.3364 5 16.6657 5.00586 16.9878 5.0176C17.1198 5.02524 17.2519 5.00606 17.3763 4.9612C17.5006 4.91634 17.6146 4.84674 17.7113 4.75661C17.808 4.66647 17.8855 4.55767 17.939 4.43677C17.9924 4.31587 18.0209 4.18539 18.0225 4.0532C18.0316 3.78815 17.9352 3.53032 17.7544 3.33632C17.5736 3.14232 17.3231 3.02801 17.0581 3.0185C16.7128 3.0063 16.3607 3 16 3C6.1063 3 2 7.7573 2 10.3047V11.7715C2.00095 12.6274 2.34139 13.4481 2.94662 14.0533C3.55186 14.6586 4.37246 14.999 5.2284 15H8.7984C9.64943 14.9968 10.4645 14.6562 11.0647 14.0529C11.6649 13.4495 12.0013 12.6327 12 11.7817Z" fill="black"/>
<path d="M10.9999 24C11.8283 24 12.4999 23.3284 12.4999 22.5C12.4999 21.6716 11.8283 21 10.9999 21C10.1715 21 9.4999 21.6716 9.4999 22.5C9.4999 23.3284 10.1715 24 10.9999 24Z" fill="black"/>
<path d="M15.9999 24C16.8283 24 17.4999 23.3284 17.4999 22.5C17.4999 21.6716 16.8283 21 15.9999 21C15.1715 21 14.4999 21.6716 14.4999 22.5C14.4999 23.3284 15.1715 24 15.9999 24Z" fill="black"/>
<path d="M10.9999 29C11.8283 29 12.4999 28.3284 12.4999 27.5C12.4999 26.6716 11.8283 26 10.9999 26C10.1715 26 9.4999 26.6716 9.4999 27.5C9.4999 28.3284 10.1715 29 10.9999 29Z" fill="black"/>
<path d="M15.9999 29C16.8283 29 17.4999 28.3284 17.4999 27.5C17.4999 26.6716 16.8283 26 15.9999 26C15.1715 26 14.4999 26.6716 14.4999 27.5C14.4999 28.3284 15.1715 29 15.9999 29Z" fill="black"/>
<path d="M20.9999 29C21.8283 29 22.4999 28.3284 22.4999 27.5C22.4999 26.6716 21.8283 26 20.9999 26C20.1715 26 19.4999 26.6716 19.4999 27.5C19.4999 28.3284 20.1715 29 20.9999 29Z" fill="black"/>
<path d="M29.7377 12.0112L24.7514 3.0112L24.7406 2.9922C24.5661 2.68904 24.3144 2.43752 24.0111 2.26324C23.7078 2.08896 23.3638 1.99813 23.014 2C22.6608 1.9989 22.3128 2.09188 22.0075 2.26939C21.7021 2.4469 21.4496 2.70253 21.2758 3.01L16.2738 11.9925C16.0966 12.2964 16.0027 12.6417 16.0015 12.9935C16.0004 13.3453 16.092 13.6911 16.2673 13.9962C16.4425 14.3013 16.6951 14.5547 16.9996 14.7309C17.304 14.9072 17.6496 15 18.0014 15H27.9994C28.3494 15 28.6932 14.9081 28.9965 14.7336C29.2999 14.5591 29.5521 14.308 29.7281 14.0055C29.904 13.703 29.9975 13.3596 29.9992 13.0096C30.0009 12.6597 29.9107 12.3154 29.7377 12.0112ZM18.0111 12.9824L23.01 3.9956L27.9994 13L18.0111 12.9824Z" fill="black"/>
<path d="M22.25 7.4424V8.75C22.25 8.94891 22.329 9.13968 22.4697 9.28033C22.6103 9.42098 22.8011 9.5 23 9.5C23.1989 9.5 23.3897 9.42098 23.5303 9.28033C23.671 9.13968 23.75 8.94891 23.75 8.75V7.4424C23.75 7.24349 23.671 7.05272 23.5303 6.91207C23.3897 6.77142 23.1989 6.6924 23 6.6924C22.8011 6.6924 22.6103 6.77142 22.4697 6.91207C22.329 7.05272 22.25 7.24349 22.25 7.4424Z" fill="black"/>
<path d="M22.9999 12C23.4141 12 23.7499 11.6642 23.7499 11.25C23.7499 10.8358 23.4141 10.5 22.9999 10.5C22.5857 10.5 22.2499 10.8358 22.2499 11.25C22.2499 11.6642 22.5857 12 22.9999 12Z" fill="black"/>
</svg>
