<svg xmlns="http://www.w3.org/2000/svg" width="32" height="32" viewBox="0 0 32 32"><path d="M21 24C21.3978 24 21.7794 23.842 22.0607 23.5607C22.342 23.2794 22.5 22.8979 22.5 22.5C22.5 22.1022 22.342 21.7207 22.0607 21.4394C21.7794 21.1581 21.3978 21 21 21C20.6022 21 20.2206 21.1581 19.9393 21.4394C19.658 21.7207 19.5 22.1022 19.5 22.5C19.5 22.8979 19.658 23.2794 19.9393 23.5607C20.2206 23.842 20.6022 24 21 24ZM11 19C11.3978 19 11.7794 18.842 12.0607 18.5607C12.342 18.2794 12.5 17.8979 12.5 17.5C12.5 17.1022 12.342 16.7207 12.0607 16.4394C11.7794 16.1581 11.3978 16 11 16C10.6022 16 10.2206 16.1581 9.93934 16.4394C9.65804 16.7207 9.5 17.1022 9.5 17.5C9.5 17.8979 9.65804 18.2794 9.93934 18.5607C10.2206 18.842 10.6022 19 11 19ZM16 19C16.3978 19 16.7794 18.842 17.0607 18.5607C17.342 18.2794 17.5 17.8979 17.5 17.5C17.5 17.1022 17.342 16.7207 17.0607 16.4394C16.7794 16.1581 16.3978 16 16 16C15.6022 16 15.2206 16.1581 14.9393 16.4394C14.658 16.7207 14.5 17.1022 14.5 17.5C14.5 17.8979 14.658 18.2794 14.9393 18.5607C15.2206 18.842 15.6022 19 16 19ZM21 19C21.3978 19 21.7794 18.842 22.0607 18.5607C22.342 18.2794 22.5 17.8979 22.5 17.5C22.5 17.1022 22.342 16.7207 22.0607 16.4394C21.7794 16.1581 21.3978 16 21 16C20.6022 16 20.2206 16.1581 19.9393 16.4394C19.658 16.7207 19.5 17.1022 19.5 17.5C19.5 17.8979 19.658 18.2794 19.9393 18.5607C20.2206 18.842 20.6022 19 21 19ZM12 11.782V10.146C12.9192 9.52948 13.9787 9.15397 15.081 9.05403C15.2115 9.0388 15.3377 8.99802 15.4524 8.93401C15.5671 8.87001 15.6681 8.78404 15.7495 8.68102C15.831 8.57799 15.8914 8.45992 15.9273 8.33356C15.9631 8.20719 15.9737 8.075 15.9585 7.94453C15.9433 7.81406 15.9025 7.68787 15.8385 7.57316C15.7745 7.45846 15.6885 7.35748 15.5855 7.276C15.4825 7.19451 15.3644 7.13412 15.238 7.09827C15.1117 7.06241 14.9795 7.0518 14.849 7.06703C12.867 7.30003 10 8.42103 10 9.84303V11.782C10.0016 12.1028 9.87598 12.4111 9.65068 12.6394C9.42537 12.8677 9.11875 12.9974 8.798 13H5.228C4.9023 12.9995 4.59011 12.8698 4.3599 12.6394C4.1297 12.409 4.00026 12.0967 4 11.771V10.305C4 8.79503 7.57 5.00003 16 5.00003C16.336 5.00003 16.666 5.00603 16.988 5.01803C17.1201 5.02575 17.2523 5.0066 17.3768 4.96173C17.5012 4.91687 17.6152 4.84722 17.712 4.75701C17.8088 4.6668 17.8862 4.5579 17.9397 4.4369C17.9931 4.3159 18.0215 4.18531 18.023 4.05303C18.0319 3.78801 17.9353 3.53029 17.7544 3.33643C17.5735 3.14257 17.323 3.02842 17.058 3.01903C16.7055 3.00647 16.3528 3.00013 16 3.00003C6.106 3.00003 2 7.75703 2 10.305V11.771C2.00079 12.627 2.34111 13.4477 2.94628 14.053C3.55144 14.6584 4.37203 14.999 5.228 15H8.798C9.64902 14.9969 10.464 14.6563 11.0643 14.053C11.6646 13.4498 12.0011 12.6331 12 11.782ZM11 24C11.3978 24 11.7794 23.842 12.0607 23.5607C12.342 23.2794 12.5 22.8979 12.5 22.5C12.5 22.1022 12.342 21.7207 12.0607 21.4394C11.7794 21.1581 11.3978 21 11 21C10.6022 21 10.2206 21.1581 9.93934 21.4394C9.65804 21.7207 9.5 22.1022 9.5 22.5C9.5 22.8979 9.65804 23.2794 9.93934 23.5607C10.2206 23.842 10.6022 24 11 24ZM16 24C16.3978 24 16.7794 23.842 17.0607 23.5607C17.342 23.2794 17.5 22.8979 17.5 22.5C17.5 22.1022 17.342 21.7207 17.0607 21.4394C16.7794 21.1581 16.3978 21 16 21C15.6022 21 15.2206 21.1581 14.9393 21.4394C14.658 21.7207 14.5 22.1022 14.5 22.5C14.5 22.8979 14.658 23.2794 14.9393 23.5607C15.2206 23.842 15.6022 24 16 24ZM11 29C11.3978 29 11.7794 28.842 12.0607 28.5607C12.342 28.2794 12.5 27.8979 12.5 27.5C12.5 27.1022 12.342 26.7207 12.0607 26.4394C11.7794 26.1581 11.3978 26 11 26C10.6022 26 10.2206 26.1581 9.93934 26.4394C9.65804 26.7207 9.5 27.1022 9.5 27.5C9.5 27.8979 9.65804 28.2794 9.93934 28.5607C10.2206 28.842 10.6022 29 11 29ZM16 29C16.3978 29 16.7794 28.842 17.0607 28.5607C17.342 28.2794 17.5 27.8979 17.5 27.5C17.5 27.1022 17.342 26.7207 17.0607 26.4394C16.7794 26.1581 16.3978 26 16 26C15.6022 26 15.2206 26.1581 14.9393 26.4394C14.658 26.7207 14.5 27.1022 14.5 27.5C14.5 27.8979 14.658 28.2794 14.9393 28.5607C15.2206 28.842 15.6022 29 16 29ZM21 29C21.3978 29 21.7794 28.842 22.0607 28.5607C22.342 28.2794 22.5 27.8979 22.5 27.5C22.5 27.1022 22.342 26.7207 22.0607 26.4394C21.7794 26.1581 21.3978 26 21 26C20.6022 26 20.2206 26.1581 19.9393 26.4394C19.658 26.7207 19.5 27.1022 19.5 27.5C19.5 27.8979 19.658 28.2794 19.9393 28.5607C20.2206 28.842 20.6022 29 21 29ZM29.738 12.011L24.751 3.01103L24.741 2.99203C24.5664 2.68885 24.3147 2.43734 24.0113 2.26309C23.7079 2.08883 23.3638 1.99807 23.014 2.00003C22.6608 1.99917 22.3137 2.09225 22.0083 2.26973C21.7029 2.44721 21.4501 2.7027 21.276 3.01003L16.274 11.992C16.0967 12.2958 16.0027 12.641 16.0014 12.9927C16.0001 13.3445 16.0916 13.6903 16.2667 13.9954C16.4418 14.3005 16.6942 14.554 16.9985 14.7304C17.3028 14.9068 17.6483 14.9998 18 15H28C28.3501 15.0001 28.694 14.9084 28.9975 14.7339C29.301 14.5594 29.5533 14.3084 29.7294 14.0058C29.9054 13.7032 29.9989 13.3598 30.0006 13.0097C30.0023 12.6597 29.9121 12.3153 29.739 12.011H29.738ZM18.011 12.982L23.01 3.99603L28 13L18.011 12.982Z M22.25 7.44189V8.7499C22.25 8.94882 22.329 9.13957 22.4697 9.28022C22.6103 9.42088 22.8011 9.4999 23 9.4999C23.1989 9.4999 23.3897 9.42088 23.5303 9.28022C23.671 9.13957 23.75 8.94882 23.75 8.7499V7.44189C23.75 7.24298 23.671 7.05222 23.5303 6.91156C23.3897 6.77091 23.1989 6.69189 23 6.69189C22.8011 6.69189 22.6103 6.77091 22.4697 6.91156C22.329 7.05222 22.25 7.24298 22.25 7.44189ZM23 11.9999C23.1989 11.9999 23.3897 11.9209 23.5303 11.7802C23.671 11.6396 23.75 11.4488 23.75 11.2499C23.75 11.051 23.671 10.8602 23.5303 10.7196C23.3897 10.5789 23.1989 10.4999 23 10.4999C22.8011 10.4999 22.6103 10.5789 22.4697 10.7196C22.329 10.8602 22.25 11.051 22.25 11.2499C22.25 11.4488 22.329 11.6396 22.4697 11.7802C22.6103 11.9209 22.8011 11.9999 23 11.9999Z"/></svg>