<svg width="32" height="32" viewBox="0 0 32 32" fill="none" xmlns="http://www.w3.org/2000/svg">
<path d="M21.0001 23.75C21.6904 23.75 22.2501 23.1903 22.2501 22.5C22.2501 21.8096 21.6904 21.25 21.0001 21.25C20.3097 21.25 19.7501 21.8096 19.7501 22.5C19.7501 23.1903 20.3097 23.75 21.0001 23.75Z" fill="black"/>
<path d="M11.0001 18.75C11.6904 18.75 12.2501 18.1903 12.2501 17.5C12.2501 16.8096 11.6904 16.25 11.0001 16.25C10.3097 16.25 9.75006 16.8096 9.75006 17.5C9.75006 18.1903 10.3097 18.75 11.0001 18.75Z" fill="black"/>
<path d="M16.0001 18.75C16.6904 18.75 17.2501 18.1903 17.2501 17.5C17.2501 16.8096 16.6904 16.25 16.0001 16.25C15.3097 16.25 14.7501 16.8096 14.7501 17.5C14.7501 18.1903 15.3097 18.75 16.0001 18.75Z" fill="black"/>
<path d="M21.0001 18.75C21.6904 18.75 22.2501 18.1903 22.2501 17.5C22.2501 16.8096 21.6904 16.25 21.0001 16.25C20.3097 16.25 19.7501 16.8096 19.7501 17.5C19.7501 18.1903 20.3097 18.75 21.0001 18.75Z" fill="black"/>
<path d="M16.0005 3.25C6.28369 3.25 2.25049 7.84473 2.25049 10.3047V11.7715C2.2513 12.5612 2.56537 13.3183 3.12377 13.8767C3.68218 14.4351 4.4393 14.7492 5.229 14.75H8.79834C9.58321 14.7469 10.3348 14.4326 10.8882 13.876C11.4417 13.3195 11.7518 12.5661 11.7505 11.7812V10.0273C12.9945 9.15882 14.4838 8.71121 16.0005 8.74996C17.5164 8.71119 19.0053 9.15695 20.2505 10.0224L20.2495 11.79C20.2764 12.5877 20.6135 13.3433 21.1891 13.8962C21.7647 14.449 22.5334 14.7554 23.3315 14.75H26.7719C27.5616 14.7492 28.3187 14.4351 28.8771 13.8767C29.4356 13.3183 29.7496 12.5612 29.7504 11.7715V10.3047C29.7505 7.84469 25.7173 3.25 16.0005 3.25ZM28.2505 11.7715C28.2501 12.1635 28.0942 12.5393 27.817 12.8165C27.5398 13.0937 27.164 13.2496 26.772 13.25H23.3315C22.9311 13.2552 22.5439 13.1068 22.2496 12.8352C21.9553 12.5636 21.7764 12.1896 21.7495 11.79L21.7505 9.83687C21.7505 8.60347 18.7408 7.24996 16.0005 7.24996C13.2603 7.24996 10.2505 8.60738 10.2505 9.84273V11.7812C10.2523 12.1684 10.1003 12.5405 9.8281 12.8158C9.55586 13.0912 9.18554 13.2473 8.79834 13.25H5.229C4.83699 13.2496 4.46115 13.0937 4.18397 12.8165C3.90678 12.5393 3.75088 12.1635 3.75049 11.7715V10.3047C3.75049 8.66988 7.2749 4.74996 16.0005 4.74996C24.7261 4.74996 28.2505 8.66988 28.2505 10.3047V11.7715Z" fill="black"/>
<path d="M11.0001 23.75C11.6904 23.75 12.2501 23.1903 12.2501 22.5C12.2501 21.8096 11.6904 21.25 11.0001 21.25C10.3097 21.25 9.75006 21.8096 9.75006 22.5C9.75006 23.1903 10.3097 23.75 11.0001 23.75Z" fill="black"/>
<path d="M16.0001 23.75C16.6904 23.75 17.2501 23.1903 17.2501 22.5C17.2501 21.8096 16.6904 21.25 16.0001 21.25C15.3097 21.25 14.7501 21.8096 14.7501 22.5C14.7501 23.1903 15.3097 23.75 16.0001 23.75Z" fill="black"/>
<path d="M11.0001 28.75C11.6904 28.75 12.2501 28.1903 12.2501 27.5C12.2501 26.8096 11.6904 26.25 11.0001 26.25C10.3097 26.25 9.75006 26.8096 9.75006 27.5C9.75006 28.1903 10.3097 28.75 11.0001 28.75Z" fill="black"/>
<path d="M16.0001 28.75C16.6904 28.75 17.2501 28.1903 17.2501 27.5C17.2501 26.8096 16.6904 26.25 16.0001 26.25C15.3097 26.25 14.7501 26.8096 14.7501 27.5C14.7501 28.1903 15.3097 28.75 16.0001 28.75Z" fill="black"/>
<path d="M21.0001 28.75C21.6904 28.75 22.2501 28.1903 22.2501 27.5C22.2501 26.8096 21.6904 26.25 21.0001 26.25C20.3097 26.25 19.7501 26.8096 19.7501 27.5C19.7501 28.1903 20.3097 28.75 21.0001 28.75Z" fill="black"/>
</svg>
