<svg xmlns="http://www.w3.org/2000/svg" width="32" height="32" viewBox="0 0 32 32"><path d="M21 23.7501C21.3315 23.7501 21.6495 23.6184 21.8839 23.384C22.1183 23.1495 22.25 22.8316 22.25 22.5001C22.25 22.1686 22.1183 21.8506 21.8839 21.6162C21.6495 21.3818 21.3315 21.2501 21 21.2501C20.6685 21.2501 20.3505 21.3818 20.1161 21.6162C19.8817 21.8506 19.75 22.1686 19.75 22.5001C19.75 22.8316 19.8817 23.1495 20.1161 23.384C20.3505 23.6184 20.6685 23.7501 21 23.7501ZM11 18.7501C11.3315 18.7501 11.6495 18.6184 11.8839 18.384C12.1183 18.1495 12.25 17.8316 12.25 17.5001C12.25 17.1686 12.1183 16.8506 11.8839 16.6162C11.6495 16.3818 11.3315 16.2501 11 16.2501C10.6685 16.2501 10.3505 16.3818 10.1161 16.6162C9.8817 16.8506 9.75 17.1686 9.75 17.5001C9.75 17.8316 9.8817 18.1495 10.1161 18.384C10.3505 18.6184 10.6685 18.7501 11 18.7501ZM16 18.7501C16.3315 18.7501 16.6495 18.6184 16.8839 18.384C17.1183 18.1495 17.25 17.8316 17.25 17.5001C17.25 17.1686 17.1183 16.8506 16.8839 16.6162C16.6495 16.3818 16.3315 16.2501 16 16.2501C15.6685 16.2501 15.3505 16.3818 15.1161 16.6162C14.8817 16.8506 14.75 17.1686 14.75 17.5001C14.75 17.8316 14.8817 18.1495 15.1161 18.384C15.3505 18.6184 15.6685 18.7501 16 18.7501ZM21 18.7501C21.3315 18.7501 21.6495 18.6184 21.8839 18.384C22.1183 18.1495 22.25 17.8316 22.25 17.5001C22.25 17.1686 22.1183 16.8506 21.8839 16.6162C21.6495 16.3818 21.3315 16.2501 21 16.2501C20.6685 16.2501 20.3505 16.3818 20.1161 16.6162C19.8817 16.8506 19.75 17.1686 19.75 17.5001C19.75 17.8316 19.8817 18.1495 20.1161 18.384C20.3505 18.6184 20.6685 18.7501 21 18.7501ZM11.75 11.7821V10.0301C12.7172 9.32535 13.8602 8.90143 15.053 8.80508C15.1508 8.79359 15.2454 8.76294 15.3314 8.71488C15.4174 8.66683 15.4931 8.60231 15.5542 8.525C15.6152 8.4477 15.6605 8.35912 15.6873 8.26434C15.7141 8.16955 15.722 8.07041 15.7105 7.97258C15.699 7.87474 15.6684 7.78013 15.6203 7.69414C15.5722 7.60815 15.5077 7.53247 15.4304 7.47141C15.3531 7.41036 15.2645 7.36513 15.1698 7.3383C15.075 7.31148 14.9758 7.30359 14.878 7.31508C12.693 7.57108 10.25 8.70608 10.25 9.84308V11.7821C10.2516 12.1691 10.0996 12.541 9.82745 12.8162C9.55526 13.0914 9.18505 13.2474 8.798 13.2501H5.228C4.836 13.2495 4.46022 13.0935 4.18313 12.8162C3.90604 12.539 3.75026 12.1631 3.75 11.7711V10.3051C3.75 8.67008 7.275 4.75008 16 4.75008C16.34 4.75008 16.672 4.75608 16.997 4.76808C17.0955 4.77149 17.1937 4.75547 17.286 4.72094C17.3783 4.6864 17.4629 4.63402 17.5349 4.56679C17.607 4.49956 17.6651 4.4188 17.706 4.32911C17.7468 4.23942 17.7696 4.14257 17.773 4.04408C17.7764 3.94559 17.7604 3.84739 17.7259 3.75509C17.6913 3.66279 17.6389 3.57819 17.5717 3.50613C17.5045 3.43407 17.4237 3.37596 17.334 3.33512C17.2443 3.29427 17.1475 3.27149 17.049 3.26808C16.6995 3.25579 16.3497 3.24979 16 3.25008C6.283 3.25008 2.25 7.84508 2.25 10.3051V11.7711C2.25079 12.5607 2.56477 13.3178 3.12305 13.8763C3.68133 14.4348 4.43834 14.749 5.228 14.7501H8.798C9.5828 14.7472 10.3344 14.433 10.8878 13.8766C11.4413 13.3201 11.7513 12.5669 11.75 11.7821ZM11 23.7501C11.3315 23.7501 11.6495 23.6184 11.8839 23.384C12.1183 23.1495 12.25 22.8316 12.25 22.5001C12.25 22.1686 12.1183 21.8506 11.8839 21.6162C11.6495 21.3818 11.3315 21.2501 11 21.2501C10.6685 21.2501 10.3505 21.3818 10.1161 21.6162C9.8817 21.8506 9.75 22.1686 9.75 22.5001C9.75 22.8316 9.8817 23.1495 10.1161 23.384C10.3505 23.6184 10.6685 23.7501 11 23.7501ZM16 23.7501C16.3315 23.7501 16.6495 23.6184 16.8839 23.384C17.1183 23.1495 17.25 22.8316 17.25 22.5001C17.25 22.1686 17.1183 21.8506 16.8839 21.6162C16.6495 21.3818 16.3315 21.2501 16 21.2501C15.6685 21.2501 15.3505 21.3818 15.1161 21.6162C14.8817 21.8506 14.75 22.1686 14.75 22.5001C14.75 22.8316 14.8817 23.1495 15.1161 23.384C15.3505 23.6184 15.6685 23.7501 16 23.7501ZM11 28.7501C11.3315 28.7501 11.6495 28.6184 11.8839 28.384C12.1183 28.1495 12.25 27.8316 12.25 27.5001C12.25 27.1686 12.1183 26.8506 11.8839 26.6162C11.6495 26.3818 11.3315 26.2501 11 26.2501C10.6685 26.2501 10.3505 26.3818 10.1161 26.6162C9.8817 26.8506 9.75 27.1686 9.75 27.5001C9.75 27.8316 9.8817 28.1495 10.1161 28.384C10.3505 28.6184 10.6685 28.7501 11 28.7501ZM16 28.7501C16.3315 28.7501 16.6495 28.6184 16.8839 28.384C17.1183 28.1495 17.25 27.8316 17.25 27.5001C17.25 27.1686 17.1183 26.8506 16.8839 26.6162C16.6495 26.3818 16.3315 26.2501 16 26.2501C15.6685 26.2501 15.3505 26.3818 15.1161 26.6162C14.8817 26.8506 14.75 27.1686 14.75 27.5001C14.75 27.8316 14.8817 28.1495 15.1161 28.384C15.3505 28.6184 15.6685 28.7501 16 28.7501ZM21 28.7501C21.3315 28.7501 21.6495 28.6184 21.8839 28.384C22.1183 28.1495 22.25 27.8316 22.25 27.5001C22.25 27.1686 22.1183 26.8506 21.8839 26.6162C21.6495 26.3818 21.3315 26.2501 21 26.2501C20.6685 26.2501 20.3505 26.3818 20.1161 26.6162C19.8817 26.8506 19.75 27.1686 19.75 27.5001C19.75 27.8316 19.8817 28.1495 20.1161 28.384C20.3505 28.6184 20.6685 28.7501 21 28.7501ZM29.52 12.1331L24.534 3.13308L24.524 3.11808C24.3692 2.85296 24.1474 2.63322 23.8808 2.48094C23.6142 2.32866 23.3123 2.24919 23.0052 2.2505C22.6982 2.25182 22.397 2.33388 22.1317 2.48844C21.8665 2.64301 21.6465 2.86464 21.494 3.13108L16.49 12.1201C16.3351 12.3859 16.253 12.6879 16.2521 12.9956C16.2511 13.3033 16.3313 13.6058 16.4845 13.8726C16.6378 14.1394 16.8586 14.3611 17.1249 14.5154C17.3911 14.6696 17.6933 14.7509 18.001 14.7511H28C28.3064 14.7511 28.6074 14.6706 28.873 14.5177C29.1385 14.3649 29.3592 14.145 29.5131 13.88C29.667 13.6151 29.7486 13.3144 29.7499 13.008C29.7511 12.7016 29.6718 12.4002 29.52 12.1341V12.1331ZM28.216 13.1241C28.1948 13.1629 28.1634 13.1952 28.1251 13.2174C28.0868 13.2396 28.0432 13.2509 27.999 13.2501H18.001C17.957 13.2506 17.9136 13.2392 17.8755 13.217C17.8375 13.1948 17.8062 13.1627 17.785 13.1241C17.7619 13.0838 17.7504 13.0379 17.7518 12.9914C17.7532 12.945 17.7675 12.8999 17.793 12.8611L22.797 3.87408C22.8187 3.83651 22.8498 3.80524 22.8872 3.78333C22.9247 3.76142 22.9672 3.74964 23.0106 3.74914C23.054 3.74863 23.0967 3.75942 23.1347 3.78045C23.1726 3.80148 23.2044 3.83203 23.227 3.86908L28.215 12.8731C28.238 12.9109 28.2502 12.9542 28.2504 12.9984C28.2506 13.0427 28.2387 13.0861 28.216 13.1241Z M23 6.69189C22.8011 6.69189 22.6103 6.77091 22.4697 6.91156C22.329 7.05222 22.25 7.24298 22.25 7.44189V8.7499C22.25 8.94882 22.329 9.13957 22.4697 9.28022C22.6103 9.42088 22.8011 9.4999 23 9.4999C23.1989 9.4999 23.3897 9.42088 23.5303 9.28022C23.671 9.13957 23.75 8.94882 23.75 8.7499V7.44189C23.75 7.24298 23.671 7.05222 23.5303 6.91156C23.3897 6.77091 23.1989 6.69189 23 6.69189ZM23 11.9999C23.1989 11.9999 23.3897 11.9209 23.5303 11.7802C23.671 11.6396 23.75 11.4488 23.75 11.2499C23.75 11.051 23.671 10.8602 23.5303 10.7196C23.3897 10.5789 23.1989 10.4999 23 10.4999C22.8011 10.4999 22.6103 10.5789 22.4697 10.7196C22.329 10.8602 22.25 11.051 22.25 11.2499C22.25 11.4488 22.329 11.6396 22.4697 11.7802C22.6103 11.9209 22.8011 11.9999 23 11.9999Z"/></svg>