<svg xmlns="http://www.w3.org/2000/svg" width="32" height="32" viewBox="0 0 32 32"><path d="M21 23.5002C21.2652 23.5002 21.5196 23.3949 21.7071 23.2073C21.8946 23.0198 22 22.7654 22 22.5002C22 22.235 21.8946 21.9806 21.7071 21.7931C21.5196 21.6056 21.2652 21.5002 21 21.5002C20.7348 21.5002 20.4804 21.6056 20.2929 21.7931C20.1054 21.9806 20 22.235 20 22.5002C20 22.7654 20.1054 23.0198 20.2929 23.2073C20.4804 23.3949 20.7348 23.5002 21 23.5002ZM11 18.5002C11.2652 18.5002 11.5196 18.3949 11.7071 18.2073C11.8946 18.0198 12 17.7654 12 17.5002C12 17.235 11.8946 16.9806 11.7071 16.7931C11.5196 16.6056 11.2652 16.5002 11 16.5002C10.7348 16.5002 10.4804 16.6056 10.2929 16.7931C10.1054 16.9806 10 17.235 10 17.5002C10 17.7654 10.1054 18.0198 10.2929 18.2073C10.4804 18.3949 10.7348 18.5002 11 18.5002ZM16 18.5002C16.2652 18.5002 16.5196 18.3949 16.7071 18.2073C16.8946 18.0198 17 17.7654 17 17.5002C17 17.235 16.8946 16.9806 16.7071 16.7931C16.5196 16.6056 16.2652 16.5002 16 16.5002C15.7348 16.5002 15.4804 16.6056 15.2929 16.7931C15.1054 16.9806 15 17.235 15 17.5002C15 17.7654 15.1054 18.0198 15.2929 18.2073C15.4804 18.3949 15.7348 18.5002 16 18.5002ZM21 18.5002C21.2652 18.5002 21.5196 18.3949 21.7071 18.2073C21.8946 18.0198 22 17.7654 22 17.5002C22 17.235 21.8946 16.9806 21.7071 16.7931C21.5196 16.6056 21.2652 16.5002 21 16.5002C20.7348 16.5002 20.4804 16.6056 20.2929 16.7931C20.1054 16.9806 20 17.235 20 17.5002C20 17.7654 20.1054 18.0198 20.2929 18.2073C20.4804 18.3949 20.7348 18.5002 21 18.5002ZM11.5 11.7812V9.92821C12.5089 9.1258 13.7371 8.64781 15.023 8.55721C15.0893 8.55096 15.1537 8.53152 15.2124 8.50004C15.2711 8.46857 15.3229 8.42568 15.3648 8.37391C15.4067 8.32213 15.4378 8.26251 15.4563 8.19854C15.4748 8.13458 15.4804 8.06755 15.4727 8.00141C15.4649 7.93526 15.4441 7.87132 15.4113 7.81335C15.3785 7.75537 15.3345 7.70453 15.2818 7.66381C15.2291 7.62308 15.1688 7.59329 15.1045 7.57619C15.0401 7.55909 14.973 7.55501 14.907 7.56421C12.683 7.82421 10.5 8.95321 10.5 9.84321V11.7812C10.5019 12.2347 10.3237 12.6705 10.0046 12.9928C9.68548 13.3151 9.25153 13.4976 8.798 13.5002H5.228C4.7697 13.4997 4.33033 13.3173 4.00635 12.9932C3.68237 12.669 3.50026 12.2295 3.5 11.7712V10.3052C3.5 8.59721 7.097 4.50021 16 4.50021C16.342 4.50021 16.677 4.50621 17.004 4.51821C17.1351 4.51808 17.2613 4.46845 17.3573 4.37926C17.4533 4.29008 17.5122 4.16791 17.522 4.03721C17.5269 3.90475 17.4789 3.77577 17.3887 3.67864C17.2985 3.5815 17.1735 3.52416 17.041 3.51921C16.7 3.50621 16.355 3.50021 16 3.50021C6.46 3.50021 2.5 7.93221 2.5 10.3052V11.7712C2.50079 12.4947 2.78857 13.1884 3.30018 13.7C3.8118 14.2116 4.50547 14.4994 5.229 14.5002H8.799C9.51749 14.497 10.2054 14.209 10.7117 13.6992C11.2181 13.1895 11.5016 12.4997 11.5 11.7812ZM11 23.5002C11.2652 23.5002 11.5196 23.3949 11.7071 23.2073C11.8946 23.0198 12 22.7654 12 22.5002C12 22.235 11.8946 21.9806 11.7071 21.7931C11.5196 21.6056 11.2652 21.5002 11 21.5002C10.7348 21.5002 10.4804 21.6056 10.2929 21.7931C10.1054 21.9806 10 22.235 10 22.5002C10 22.7654 10.1054 23.0198 10.2929 23.2073C10.4804 23.3949 10.7348 23.5002 11 23.5002ZM16 23.5002C16.2652 23.5002 16.5196 23.3949 16.7071 23.2073C16.8946 23.0198 17 22.7654 17 22.5002C17 22.235 16.8946 21.9806 16.7071 21.7931C16.5196 21.6056 16.2652 21.5002 16 21.5002C15.7348 21.5002 15.4804 21.6056 15.2929 21.7931C15.1054 21.9806 15 22.235 15 22.5002C15 22.7654 15.1054 23.0198 15.2929 23.2073C15.4804 23.3949 15.7348 23.5002 16 23.5002ZM11 28.5002C11.2652 28.5002 11.5196 28.3949 11.7071 28.2073C11.8946 28.0198 12 27.7654 12 27.5002C12 27.235 11.8946 26.9806 11.7071 26.7931C11.5196 26.6056 11.2652 26.5002 11 26.5002C10.7348 26.5002 10.4804 26.6056 10.2929 26.7931C10.1054 26.9806 10 27.235 10 27.5002C10 27.7654 10.1054 28.0198 10.2929 28.2073C10.4804 28.3949 10.7348 28.5002 11 28.5002ZM16 28.5002C16.2652 28.5002 16.5196 28.3949 16.7071 28.2073C16.8946 28.0198 17 27.7654 17 27.5002C17 27.235 16.8946 26.9806 16.7071 26.7931C16.5196 26.6056 16.2652 26.5002 16 26.5002C15.7348 26.5002 15.4804 26.6056 15.2929 26.7931C15.1054 26.9806 15 27.235 15 27.5002C15 27.7654 15.1054 28.0198 15.2929 28.2073C15.4804 28.3949 15.7348 28.5002 16 28.5002ZM21 28.5002C21.2652 28.5002 21.5196 28.3949 21.7071 28.2073C21.8946 28.0198 22 27.7654 22 27.5002C22 27.235 21.8946 26.9806 21.7071 26.7931C21.5196 26.6056 21.2652 26.5002 21 26.5002C20.7348 26.5002 20.4804 26.6056 20.2929 26.7931C20.1054 26.9806 20 27.235 20 27.5002C20 27.7654 20.1054 28.0198 20.2929 28.2073C20.4804 28.3949 20.7348 28.5002 21 28.5002ZM29.3 12.2542L24.315 3.25421L24.309 3.24421C24.1764 3.01712 23.9865 2.82888 23.7582 2.69835C23.5299 2.56782 23.2714 2.49959 23.0084 2.5005C22.7455 2.50141 22.4874 2.57143 22.26 2.70354C22.0326 2.83565 21.844 3.02521 21.713 3.25321L16.706 12.2442C16.573 12.4722 16.5025 12.7312 16.5016 12.9951C16.5007 13.259 16.5694 13.5185 16.7009 13.7474C16.8324 13.9763 17.0219 14.1664 17.2503 14.2985C17.4788 14.4307 17.7381 14.5003 18.002 14.5002H27.999C28.2621 14.5006 28.5207 14.4318 28.7487 14.3006C28.9768 14.1695 29.1663 13.9806 29.2982 13.753C29.4302 13.5254 29.4999 13.2671 29.5004 13.004C29.5009 12.7409 29.4321 12.4823 29.301 12.2542H29.3ZM28.433 13.2492C28.3898 13.326 28.3266 13.3897 28.2503 13.4337C28.1739 13.4777 28.0871 13.5003 27.999 13.4992H18.002C17.9133 13.4992 17.8261 13.4756 17.7495 13.4307C17.6729 13.3859 17.6096 13.3215 17.5662 13.2441C17.5227 13.1668 17.5006 13.0792 17.5022 12.9905C17.5037 12.9017 17.5289 12.815 17.575 12.7392L22.582 3.74921C22.6258 3.67434 22.6884 3.61216 22.7635 3.56879C22.8387 3.52543 22.9238 3.50235 23.0106 3.50185C23.0973 3.50135 23.1827 3.52343 23.2584 3.56592C23.334 3.60841 23.3973 3.66986 23.442 3.74421L28.432 12.7492C28.4767 12.8249 28.5004 12.9112 28.5006 12.9991C28.5008 13.087 28.4774 13.1733 28.433 13.2492Z M23 6.94189C22.8674 6.94189 22.7402 6.99457 22.6464 7.08834C22.5527 7.18211 22.5 7.30929 22.5 7.44189V8.7499C22.5 8.88251 22.5527 9.00968 22.6464 9.10345C22.7402 9.19722 22.8674 9.2499 23 9.2499C23.1326 9.2499 23.2598 9.19722 23.3536 9.10345C23.4473 9.00968 23.5 8.88251 23.5 8.7499V7.44189C23.5 7.30929 23.4473 7.18211 23.3536 7.08834C23.2598 6.99457 23.1326 6.94189 23 6.94189ZM23 11.7499C23.1326 11.7499 23.2598 11.6972 23.3536 11.6034C23.4473 11.5097 23.5 11.3825 23.5 11.2499C23.5 11.1173 23.4473 10.9901 23.3536 10.8963C23.2598 10.8026 23.1326 10.7499 23 10.7499C22.8674 10.7499 22.7402 10.8026 22.6464 10.8963C22.5527 10.9901 22.5 11.1173 22.5 11.2499C22.5 11.3825 22.5527 11.5097 22.6464 11.6034C22.7402 11.6972 22.8674 11.7499 23 11.7499Z"/></svg>