<svg xmlns="http://www.w3.org/2000/svg" width="32" height="32" viewBox="0 0 32 32"><path d="M28.9999 2.25H20.9999C20.801 2.25 20.6102 2.32902 20.4696 2.46967C20.3289 2.61032 20.2499 2.80109 20.2499 3C20.2499 3.19891 20.3289 3.38968 20.4696 3.53033C20.6102 3.67098 20.801 3.75 20.9999 3.75H27.1869L18.4699 12.47C18.393 12.5379 18.3308 12.6208 18.2872 12.7136C18.2435 12.8064 18.2193 12.9072 18.2161 13.0097C18.2129 13.1122 18.2307 13.2143 18.2685 13.3097C18.3063 13.4051 18.3632 13.4917 18.4357 13.5642C18.5082 13.6367 18.5949 13.6936 18.6902 13.7314C18.7856 13.7692 18.8877 13.787 18.9902 13.7838C19.0927 13.7806 19.1935 13.7564 19.2864 13.7128C19.3792 13.6691 19.4621 13.6069 19.5299 13.53L28.2499 4.808V11C28.2499 11.1989 28.3289 11.3897 28.4696 11.5303C28.6102 11.671 28.801 11.75 28.9999 11.75C29.1988 11.75 29.3896 11.671 29.5303 11.5303C29.6709 11.3897 29.7499 11.1989 29.7499 11V3C29.7499 2.80109 29.6709 2.61032 29.5303 2.46967C29.3896 2.32902 29.1988 2.25 28.9999 2.25ZM24.0379 19.699C23.4166 19.104 22.5894 18.7722 21.7291 18.773C20.8689 18.7737 20.0422 19.1069 19.4219 19.703C19.4219 19.703 18.1629 20.985 17.6869 21.463C15.8017 21.4266 14.0039 20.6616 12.6706 19.3283C11.3374 17.995 10.5723 16.1972 10.5359 14.312C11.0149 13.836 12.2959 12.576 12.3009 12.572C12.911 11.96 13.2535 11.1311 13.2535 10.267C13.2535 9.40288 12.911 8.574 12.3009 7.962L9.54693 5.207C8.92377 4.61138 8.09495 4.27899 7.23293 4.27899C6.37091 4.27899 5.54208 4.61138 4.91893 5.207L3.44793 6.68C1.50293 8.625 1.07793 15.465 8.80693 23.193C12.9769 27.363 16.6489 28.89 18.9949 29.437C19.8429 29.639 20.7109 29.745 21.5819 29.751C22.9357 29.8476 24.2745 29.4177 25.3189 28.551L26.7909 27.08C27.4045 26.4662 27.7492 25.6339 27.7492 24.766C27.7492 23.8981 27.4045 23.0658 26.7909 22.452L24.0379 19.699ZM25.7299 26.019L24.2589 27.491C23.6219 28.129 21.8089 28.552 19.3359 27.976C17.1799 27.473 13.7869 26.052 9.86693 22.132C2.83393 15.1 3.17993 9.07 4.50793 7.741L5.97993 6.269C6.14449 6.1043 6.3399 5.97365 6.55498 5.88451C6.77006 5.79537 7.0006 5.74949 7.23343 5.74949C7.46625 5.74949 7.69679 5.79537 7.91187 5.88451C8.12696 5.97365 8.32236 6.1043 8.48693 6.269L11.2399 9.022C11.5691 9.3512 11.7545 9.79741 11.7554 10.263C11.7564 10.7285 11.5728 11.1755 11.2449 11.506C11.2449 11.506 9.74193 12.985 9.37693 13.349C8.72893 13.996 9.15893 15.806 9.30693 16.346C9.71941 17.8671 10.5119 19.2584 11.6099 20.389C13.9099 22.689 17.7899 23.484 18.6499 22.622C19.2642 22.0026 19.8769 21.3816 20.4879 20.759C20.8236 20.4393 21.2694 20.2609 21.7329 20.2609C22.1965 20.2609 22.6423 20.4393 22.9779 20.759L25.7299 23.512C26.0623 23.8445 26.249 24.2954 26.249 24.7655C26.249 25.2356 26.0623 25.6865 25.7299 26.019Z"/></svg>