<svg width="32" height="32" viewBox="0 0 32 32" fill="none" xmlns="http://www.w3.org/2000/svg">
<path d="M28.53 15.47L16.53 3.47C16.461 3.39735 16.3783 3.33924 16.2865 3.29909C16.1948 3.25895 16.096 3.23758 15.9958 3.23624C15.8957 3.23491 15.7963 3.25364 15.7035 3.29133C15.6108 3.32902 15.5265 3.38491 15.4557 3.4557C15.3848 3.52648 15.3289 3.61074 15.2912 3.70349C15.2534 3.79624 15.2346 3.89561 15.2359 3.99574C15.2372 4.09586 15.2585 4.19472 15.2986 4.28648C15.3387 4.37824 15.3967 4.46104 15.4694 4.53L26.9391 16L15.4691 27.47C15.3972 27.5391 15.3398 27.6219 15.3003 27.7135C15.2608 27.8051 15.2399 27.9037 15.239 28.0034C15.238 28.1032 15.257 28.2021 15.2947 28.2944C15.3325 28.3867 15.3883 28.4706 15.4588 28.5411C15.5294 28.6116 15.6133 28.6673 15.7057 28.705C15.798 28.7427 15.897 28.7616 15.9967 28.7605C16.0965 28.7595 16.195 28.7386 16.2866 28.699C16.3781 28.6594 16.4609 28.6019 16.53 28.53L28.53 16.53C28.6704 16.3894 28.7493 16.1987 28.7493 16C28.7493 15.8012 28.6704 15.6106 28.53 15.47Z" fill="black"/>
<path d="M16.53 15.47L4.52995 3.47C4.38818 3.33535 4.19942 3.26139 4.00391 3.26388C3.8084 3.26637 3.62159 3.34512 3.48329 3.48334C3.34499 3.62156 3.26614 3.80833 3.26354 4.00384C3.26093 4.19935 3.33478 4.38815 3.46935 4.53L14.9391 16L3.46935 27.47C3.39675 27.539 3.33868 27.6218 3.29859 27.7135C3.25849 27.8053 3.23718 27.9041 3.2359 28.0043C3.23462 28.1044 3.25341 28.2038 3.29115 28.2965C3.3289 28.3893 3.38483 28.4735 3.45566 28.5443C3.52649 28.6151 3.61077 28.671 3.70354 28.7087C3.79632 28.7464 3.8957 28.7651 3.99582 28.7638C4.09595 28.7624 4.1948 28.7411 4.28653 28.7009C4.37827 28.6608 4.46104 28.6026 4.52995 28.53L16.53 16.53C16.6704 16.3894 16.7493 16.1987 16.7493 16C16.7493 15.8012 16.6704 15.6106 16.53 15.47Z" fill="black"/>
</svg>
