<svg xmlns="http://www.w3.org/2000/svg" width="32" height="32" viewBox="0 0 32 32"><path d="M28.3531 15.6472L16.3531 3.64719C16.2588 3.55611 16.1325 3.50572 16.0014 3.50685C15.8703 3.50799 15.7449 3.56058 15.6522 3.65328C15.5595 3.74599 15.5069 3.87139 15.5057 4.00249C15.5046 4.13359 15.555 4.25989 15.6461 4.35419L27.2921 16.0002L15.6461 27.6472C15.5639 27.729 15.5126 27.8368 15.501 27.9523C15.4895 28.0677 15.5183 28.1835 15.5826 28.28C15.6469 28.3766 15.7427 28.4478 15.8537 28.4816C15.9647 28.5153 16.0839 28.5095 16.1911 28.4652C16.2519 28.4392 16.3069 28.4015 16.3531 28.3542L28.3531 16.3542C28.4468 16.2604 28.4995 16.1333 28.4995 16.0007C28.4995 15.8681 28.4468 15.741 28.3531 15.6472Z M16.3528 15.6468L4.35281 3.64678C4.30668 3.59903 4.25151 3.56094 4.19051 3.53473C4.12951 3.50853 4.0639 3.49474 3.99751 3.49416C3.93112 3.49358 3.86528 3.50623 3.80383 3.53137C3.74238 3.55651 3.68656 3.59364 3.63961 3.64059C3.59266 3.68753 3.55554 3.74336 3.5304 3.80481C3.50526 3.86626 3.49261 3.9321 3.49318 3.99849C3.49376 4.06488 3.50755 4.13049 3.53376 4.19149C3.55996 4.25249 3.59805 4.30766 3.64581 4.35378L15.2928 15.9998L3.64581 27.6468C3.59805 27.6929 3.55996 27.7481 3.53376 27.8091C3.50755 27.8701 3.49376 27.9357 3.49318 28.0021C3.49261 28.0685 3.50526 28.1343 3.5304 28.1958C3.55554 28.2572 3.59266 28.313 3.63961 28.36C3.68656 28.4069 3.74238 28.4441 3.80383 28.4692C3.86528 28.4943 3.93112 28.507 3.99751 28.5064C4.0639 28.5058 4.12951 28.492 4.19051 28.4658C4.25151 28.4396 4.30668 28.4015 4.35281 28.3538L16.3528 16.3538C16.4465 16.26 16.4992 16.1329 16.4992 16.0003C16.4992 15.8677 16.4465 15.7405 16.3528 15.6468Z"/></svg>