<svg width="32" height="32" viewBox="0 0 32 32" fill="none" xmlns="http://www.w3.org/2000/svg">
<path d="M4.70675 16L16.3533 4.3534C16.4451 4.25923 16.4961 4.13269 16.4952 4.00118C16.4944 3.86967 16.4417 3.74379 16.3487 3.6508C16.2557 3.55782 16.1299 3.50521 15.9984 3.50439C15.8668 3.50357 15.7403 3.55459 15.6461 3.6464L3.64615 15.6464C3.55241 15.7402 3.49976 15.8673 3.49976 15.9999C3.49976 16.1325 3.55241 16.2596 3.64615 16.3534L15.6461 28.3534C15.7403 28.4452 15.8668 28.4962 15.9984 28.4954C16.1299 28.4946 16.2557 28.442 16.3487 28.349C16.4417 28.256 16.4944 28.1301 16.4952 27.9986C16.4961 27.8671 16.4451 27.7406 16.3533 27.6464L4.70675 16Z" fill="black"/>
<path d="M16.7067 16L28.3533 4.3534C28.4006 4.30719 28.4384 4.25202 28.4643 4.19111C28.4902 4.1302 28.5038 4.06474 28.5042 3.99855C28.5046 3.93236 28.4919 3.86674 28.4667 3.80551C28.4416 3.74428 28.4045 3.68864 28.3577 3.64184C28.3109 3.59504 28.2553 3.558 28.194 3.53286C28.1328 3.50773 28.0672 3.49501 28.001 3.49543C27.9348 3.49585 27.8693 3.50942 27.8084 3.53533C27.7475 3.56125 27.6924 3.599 27.6461 3.6464L15.6461 15.6464C15.5524 15.7402 15.4998 15.8673 15.4998 15.9999C15.4998 16.1325 15.5524 16.2596 15.6461 16.3534L27.6461 28.3534C27.6924 28.4008 27.7475 28.4386 27.8084 28.4645C27.8693 28.4904 27.9348 28.5039 28.001 28.5044C28.0672 28.5048 28.1328 28.4921 28.194 28.4669C28.2553 28.4418 28.3109 28.4048 28.3577 28.358C28.4045 28.3112 28.4416 28.2555 28.4667 28.1943C28.4919 28.1331 28.5046 28.0674 28.5042 28.0012C28.5038 27.9351 28.4902 27.8696 28.4643 27.8087C28.4384 27.7478 28.4006 27.6926 28.3533 27.6464L16.7067 16Z" fill="black"/>
</svg>
