<svg xmlns="http://www.w3.org/2000/svg" width="32" height="32" viewBox="0 0 32 32"><path d="M5.05983 15.9998L16.5298 4.52985C16.6623 4.38767 16.7344 4.19963 16.731 4.00532C16.7276 3.81102 16.6489 3.62564 16.5114 3.48822C16.374 3.35081 16.1887 3.2721 15.9944 3.26867C15.8 3.26524 15.612 3.33737 15.4698 3.46985L3.46983 15.4698C3.32938 15.6105 3.25049 15.8011 3.25049 15.9998C3.25049 16.1986 3.32938 16.3892 3.46983 16.5298L15.4698 28.5298C15.5739 28.6372 15.7078 28.7109 15.8542 28.7414C16.0006 28.772 16.1528 28.7579 16.2912 28.701C16.4295 28.6442 16.5476 28.5472 16.6302 28.4226C16.7129 28.2979 16.7563 28.1514 16.7548 28.0018C16.7543 27.9027 16.7342 27.8046 16.6956 27.7133C16.657 27.622 16.6006 27.5392 16.5298 27.4698L5.05983 15.9998Z M17.0598 16.0002L28.5298 4.53015C28.6035 4.46149 28.6626 4.37869 28.7036 4.28669C28.7446 4.19469 28.7666 4.09538 28.7684 3.99468C28.7702 3.89397 28.7517 3.79394 28.714 3.70056C28.6762 3.60717 28.6201 3.52233 28.5489 3.45112C28.4776 3.3799 28.3928 3.32375 28.2994 3.28603C28.206 3.24831 28.106 3.22979 28.0053 3.23156C27.9046 3.23334 27.8053 3.25538 27.7133 3.29637C27.6213 3.33736 27.5385 3.39647 27.4698 3.47015L15.4698 15.4702C15.3294 15.6108 15.2505 15.8014 15.2505 16.0002C15.2505 16.1989 15.3294 16.3895 15.4698 16.5302L27.4698 28.5302C27.5739 28.6375 27.7078 28.7112 27.8542 28.7417C28.0006 28.7723 28.1528 28.7582 28.2912 28.7014C28.4295 28.6445 28.5476 28.5475 28.6302 28.4229C28.7129 28.2982 28.7563 28.1517 28.7548 28.0022C28.7543 27.903 28.7342 27.8049 28.6956 27.7136C28.657 27.6223 28.6006 27.5396 28.5298 27.4702L17.0598 16.0002Z"/></svg>