<svg width="32" height="32" viewBox="0 0 32 32" fill="none" xmlns="http://www.w3.org/2000/svg">
<path d="M28.3531 15.6466L16.3531 3.6466C16.259 3.55479 16.1325 3.50377 16.0009 3.50459C15.8694 3.50541 15.7435 3.55802 15.6505 3.651C15.5576 3.74399 15.5049 3.86987 15.5041 4.00138C15.5032 4.13289 15.5542 4.25943 15.646 4.3536L27.2925 16L15.646 27.6466C15.5987 27.6928 15.5609 27.748 15.535 27.8089C15.5091 27.8698 15.4955 27.9353 15.4951 28.0014C15.4947 28.0676 15.5074 28.1333 15.5326 28.1945C15.5577 28.2557 15.5948 28.3114 15.6416 28.3582C15.6884 28.405 15.744 28.442 15.8053 28.4671C15.8665 28.4923 15.9321 28.505 15.9983 28.5046C16.0645 28.5041 16.13 28.4906 16.1909 28.4647C16.2518 28.4387 16.3069 28.401 16.3531 28.3536L28.3531 16.3536C28.4469 16.2598 28.4995 16.1327 28.4995 16.0001C28.4995 15.8675 28.4469 15.7404 28.3531 15.6466Z" fill="black"/>
<path d="M16.3531 15.6466L4.35315 3.6466C4.30694 3.5992 4.25178 3.56145 4.19087 3.53553C4.12996 3.50962 4.06451 3.49605 3.99832 3.49563C3.93213 3.49521 3.86651 3.50793 3.80527 3.53306C3.74404 3.5582 3.6884 3.59524 3.64159 3.64204C3.59478 3.68884 3.55773 3.74448 3.53259 3.80571C3.50745 3.86694 3.49471 3.93256 3.49513 3.99875C3.49554 4.06494 3.5091 4.1304 3.535 4.19131C3.56091 4.25222 3.59865 4.30739 3.64605 4.3536L15.2925 16L3.64605 27.6466C3.59865 27.6928 3.56091 27.748 3.535 27.8089C3.5091 27.8698 3.49554 27.9353 3.49513 28.0014C3.49471 28.0676 3.50745 28.1333 3.53259 28.1945C3.55773 28.2557 3.59478 28.3114 3.64159 28.3582C3.6884 28.405 3.74404 28.442 3.80527 28.4671C3.86651 28.4923 3.93213 28.505 3.99832 28.5046C4.06451 28.5041 4.12996 28.4906 4.19087 28.4647C4.25178 28.4388 4.30694 28.401 4.35315 28.3536L16.3531 16.3536C16.4469 16.2598 16.4995 16.1327 16.4995 16.0001C16.4995 15.8675 16.4469 15.7404 16.3531 15.6466Z" fill="black"/>
</svg>
