<svg width="32" height="32" viewBox="0 0 32 32" fill="none" xmlns="http://www.w3.org/2000/svg">
<path d="M18.0157 21.4991C17.3164 21.5038 16.6281 21.6733 16.0067 21.9941C15.3858 21.6739 14.6981 21.5047 13.9996 21.5001C12.8061 21.5001 11.6615 21.9742 10.8176 22.8181C9.97366 23.662 9.49955 24.8066 9.49955 26.0001C9.49955 27.1936 9.97366 28.3381 10.8176 29.1821C11.6615 30.026 12.8061 30.5001 13.9996 30.5001C14.6988 30.4955 15.3871 30.3259 16.0086 30.0051C16.6295 30.3253 17.3171 30.4945 18.0157 30.4991C19.2092 30.4991 20.3538 30.025 21.1977 29.1811C22.0416 28.3372 22.5157 27.1926 22.5157 25.9991C22.5157 24.8057 22.0416 23.6611 21.1977 22.8172C20.3538 21.9733 19.2092 21.4991 18.0157 21.4991ZM13.9996 29.5001C13.0713 29.5001 12.1811 29.1314 11.5247 28.475C10.8683 27.8186 10.4996 26.9284 10.4996 26.0001C10.4996 25.0719 10.8683 24.1816 11.5247 23.5253C12.1811 22.8689 13.0713 22.5001 13.9996 22.5001C14.3452 22.5051 14.6881 22.5619 15.0168 22.6687C14.5448 23.086 14.1669 23.5988 13.9081 24.1731C13.6493 24.7475 13.5155 25.3703 13.5157 26.0003C13.5159 26.6303 13.6499 27.253 13.909 27.8272C14.1681 28.4015 14.5463 28.9141 15.0185 29.3311C14.6893 29.4382 14.3458 29.4952 13.9996 29.5001ZM17.4996 26.0001C17.4987 26.5612 17.3627 27.1137 17.1031 27.6111C16.8435 28.1085 16.468 28.536 16.0082 28.8576C15.5476 28.5368 15.1713 28.1094 14.9115 27.6118C14.6516 27.1143 14.5158 26.5613 14.5157 26C14.5156 25.4386 14.6511 24.8856 14.9108 24.3879C15.1704 23.8903 15.5465 23.4627 16.007 23.1417C16.4671 23.4632 16.843 23.8909 17.1028 24.3884C17.3626 24.886 17.4987 25.4388 17.4996 26.0001ZM18.0157 29.4991C17.6701 29.4942 17.3272 29.4374 16.9985 29.3306C17.4705 28.9133 17.8484 28.4005 18.1072 27.8262C18.366 27.2518 18.4997 26.629 18.4996 25.999C18.4994 25.369 18.3653 24.7463 18.1063 24.172C17.8472 23.5978 17.469 23.0852 16.9968 22.6682C17.326 22.561 17.6695 22.504 18.0157 22.4991C18.9439 22.4991 19.8342 22.8679 20.4906 23.5243C21.1469 24.1806 21.5157 25.0709 21.5157 25.9991C21.5157 26.9274 21.1469 27.8176 20.4906 28.474C19.8342 29.1304 18.9439 29.4991 18.0157 29.4991Z" fill="black"/>
<path d="M25.0001 5.50012H7.00006C5.80699 5.50142 4.66315 5.97595 3.81952 6.81958C2.97589 7.66321 2.50136 8.80705 2.50006 10.0001V22.0001C2.49987 22.9964 2.8302 23.9645 3.43927 24.7529C4.04835 25.5412 4.90176 26.1053 5.86578 26.3566C5.92939 26.3731 5.99564 26.377 6.06073 26.3679C6.12583 26.3589 6.18851 26.3371 6.24519 26.3038C6.30187 26.2705 6.35144 26.2264 6.39107 26.174C6.4307 26.1215 6.45961 26.0618 6.47616 25.9982C6.4927 25.9346 6.49656 25.8683 6.4875 25.8032C6.47845 25.7381 6.45666 25.6755 6.42338 25.6188C6.3901 25.5621 6.34599 25.5125 6.29355 25.4729C6.24112 25.4333 6.18139 25.4044 6.11778 25.3878C5.36792 25.1927 4.70405 24.7542 4.23029 24.1411C3.75654 23.528 3.49971 22.7749 3.5001 22.0001V10.0001C3.50122 9.07221 3.87033 8.18262 4.52647 7.52649C5.1826 6.87035 6.07219 6.50124 7.0001 6.50012H25.0001C25.928 6.50124 26.8176 6.87035 27.4737 7.52649C28.1299 8.18262 28.499 9.07221 28.5001 10.0001V22.0001C28.5005 22.7749 28.2437 23.5278 27.7701 24.141C27.2964 24.7541 26.6327 25.1926 25.8829 25.3878C25.7652 25.4185 25.6628 25.491 25.5946 25.5917C25.5265 25.6924 25.4974 25.8146 25.5128 25.9352C25.5282 26.0558 25.587 26.1667 25.6782 26.2471C25.7694 26.3276 25.8868 26.372 26.0084 26.3722C26.051 26.3723 26.0935 26.367 26.1349 26.3566C27.0988 26.1052 27.9522 25.5412 28.5612 24.7528C29.1702 23.9645 29.5004 22.9963 29.5001 22.0001V10.0001C29.4988 8.80704 29.0243 7.6632 28.1806 6.81956C27.337 5.97593 26.1931 5.50141 25.0001 5.50012Z" fill="black"/>
</svg>
