<svg width="32" height="32" viewBox="0 0 32 32" fill="none" xmlns="http://www.w3.org/2000/svg">
<path d="M21.0001 6.99952C19.2191 6.99778 17.4782 7.52766 16.0001 8.52131C14.6453 7.61406 13.0694 7.09192 11.4409 7.01069C9.81232 6.92946 8.19231 7.29218 6.7539 8.0601C5.31549 8.82802 4.11272 9.97229 3.2741 11.3707C2.43547 12.769 1.99249 14.369 1.99249 15.9995C1.99249 17.6301 2.43547 19.23 3.2741 20.6284C4.11272 22.0267 5.31549 23.171 6.7539 23.9389C8.19231 24.7069 9.81232 25.0696 11.4409 24.9883C13.0694 24.9071 14.6453 24.385 16.0001 23.4777C17.1683 24.2589 18.5032 24.7556 19.8979 24.928C21.2926 25.1004 22.7082 24.9438 24.0315 24.4706C25.3547 23.9975 26.5488 23.221 27.5179 22.2033C28.4871 21.1857 29.2044 19.9552 29.6125 18.6104C30.0205 17.2657 30.1079 15.8441 29.8677 14.4595C29.6274 13.0749 29.0662 11.7658 28.229 10.6371C27.3918 9.50838 26.3019 8.59146 25.0466 7.95979C23.7912 7.32811 22.4054 6.99924 21.0001 6.99952ZM16.0001 20.889C14.7183 19.5843 14.0001 17.8285 14.0001 15.9995C14.0001 14.1705 14.7183 12.4147 16.0001 11.11C17.2819 12.4147 18.0001 14.1705 18.0001 15.9995C18.0001 17.8285 17.2819 19.5843 16.0001 20.889ZM4.00012 15.9995C3.99873 14.7792 4.31675 13.5797 4.92258 12.5204C5.52841 11.4611 6.40095 10.5787 7.45345 9.96111C8.50596 9.34349 9.70179 9.0121 10.9221 8.99988C12.1423 8.98765 13.3446 9.29501 14.4092 9.89142C12.8612 11.5486 12.0001 13.7318 12.0001 15.9995C12.0001 18.2673 12.8612 20.4504 14.4092 22.1076C13.3446 22.704 12.1423 23.0114 10.9221 22.9991C9.70179 22.9869 8.50597 22.6555 7.45346 22.0379C6.40095 21.4203 5.52842 20.538 4.92259 19.4786C4.31676 18.4193 3.99873 17.2199 4.00012 15.9995ZM21.0001 22.9995C19.806 23 18.6319 22.6928 17.591 22.1076C19.1391 20.4504 20.0001 18.2673 20.0001 15.9995C20.0001 13.7318 19.1391 11.5486 17.591 9.89142C18.5246 9.37021 19.5652 9.06987 20.6329 9.01345C21.7007 8.95702 22.7671 9.14602 23.7504 9.56592C24.7338 9.98583 25.6078 10.6255 26.3054 11.4358C27.003 12.246 27.5057 13.2054 27.7748 14.2402C28.0439 15.275 28.0724 16.3577 27.8579 17.4052C27.6435 18.4527 27.1918 19.4371 26.5377 20.2829C25.8835 21.1287 25.0443 21.8133 24.0844 22.2842C23.1244 22.7551 22.0693 22.9998 21.0001 22.9995Z" fill="black"/>
</svg>
