<svg xmlns="http://www.w3.org/2000/svg" width="32" height="32" viewBox="0 0 32 32"><path d="M11.001 17.25C10.3086 17.2528 9.62526 17.4085 9 17.706C8.37513 17.4083 7.69219 17.2522 7 17.249C5.74022 17.249 4.53204 17.7495 3.64124 18.6403C2.75044 19.5311 2.25 20.7393 2.25 21.999C2.25 23.2588 2.75044 24.467 3.64124 25.3578C4.53204 26.2486 5.74022 26.749 7 26.749C7.69261 26.7458 8.37593 26.5894 9.001 26.291C9.62585 26.5889 10.3088 26.7449 11.001 26.748C12.2608 26.748 13.469 26.2476 14.3598 25.3568C15.2506 24.466 15.751 23.2578 15.751 21.998C15.751 20.7383 15.2506 19.5301 14.3598 18.6393C13.469 17.7485 12.2608 17.248 11.001 17.248V17.25ZM10.251 22C10.2488 22.4907 10.1351 22.9745 9.91836 23.4147C9.70162 23.855 9.38758 24.2401 9 24.541C8.6113 24.2412 8.29656 23.8561 8.08 23.4155C7.86345 22.9749 7.75084 22.4905 7.75084 21.9995C7.75084 21.5086 7.86345 21.0242 8.08 20.5836C8.29656 20.143 8.6113 19.7579 9 19.458C9.38769 19.759 9.70174 20.1444 9.91833 20.5848C10.1349 21.0252 10.2483 21.5092 10.25 22H10.251ZM3.751 22C3.75206 21.1386 4.09467 20.3127 4.70372 19.7035C5.31277 19.0942 6.13854 18.7514 7 18.75C7.17 18.754 7.342 18.771 7.51 18.802C6.69959 19.6699 6.249 20.8131 6.24938 22.0004C6.24975 23.1878 6.70105 24.3307 7.512 25.198C7.342 25.229 7.172 25.247 6.999 25.25C6.13754 25.2487 5.31177 24.9059 4.70272 24.2966C4.09367 23.6874 3.75106 22.8615 3.75 22H3.751ZM11 25.25C10.8282 25.2461 10.657 25.2284 10.488 25.197C11.2983 24.3293 11.7489 23.1862 11.7488 21.9988C11.7486 20.8115 11.2976 19.6686 10.487 18.801C10.657 18.771 10.827 18.753 11 18.749C11.862 18.749 12.6886 19.0915 13.2981 19.701C13.9076 20.3104 14.25 21.1371 14.25 21.999C14.25 22.861 13.9076 23.6877 13.2981 24.2971C12.6886 24.9066 11.862 25.249 11 25.249V25.25Z M28.92 9.50991C28.6544 9.34841 28.3508 9.25993 28.04 9.25343C27.7292 9.24694 27.4222 9.32265 27.15 9.47291L23.748 11.6359V10.0039C23.7467 8.74453 23.2459 7.53712 22.3553 6.64661C21.4648 5.7561 20.2574 5.25523 18.998 5.25391H6.99805C5.73867 5.25523 4.53126 5.7561 3.64075 6.64661C2.75024 7.53712 2.24937 8.74453 2.24805 10.0039L2.25005 14.9999C2.25005 15.1988 2.32906 15.3896 2.46972 15.5302C2.61037 15.6709 2.80113 15.7499 3.00005 15.7499C3.19896 15.7499 3.38972 15.6709 3.53038 15.5302C3.67103 15.3896 3.75005 15.1988 3.75005 14.9999L3.74805 10.0039C3.74911 9.14228 4.09186 8.31624 4.70112 7.70698C5.31038 7.09771 6.13642 6.75496 6.99805 6.75391H18.998C19.8597 6.75496 20.6857 7.09771 21.295 7.70698C21.9042 8.31624 22.247 9.14228 22.248 10.0039V22.0039C22.2473 22.8651 21.905 23.6908 21.2963 24.3001C20.6877 24.9093 19.8622 25.2523 19.001 25.2539L18.003 25.2499H18C17.9016 25.2497 17.804 25.2689 17.7129 25.3064C17.6219 25.3439 17.5391 25.399 17.4693 25.4685C17.3995 25.538 17.3441 25.6206 17.3062 25.7115C17.2683 25.8024 17.2487 25.8999 17.2485 25.9984C17.2484 26.0969 17.2676 26.1945 17.3051 26.2855C17.3426 26.3766 17.3977 26.4594 17.4672 26.5292C17.5367 26.599 17.6192 26.6544 17.7101 26.6922C17.8011 26.7301 17.8986 26.7497 17.997 26.7499L18.998 26.7539C20.2574 26.7526 21.4648 26.2517 22.3553 25.3612C23.2459 24.4707 23.7467 23.2633 23.748 22.0039V20.3639L27.218 22.5659C27.4849 22.6992 27.7814 22.7621 28.0793 22.7486C28.3773 22.735 28.6669 22.6456 28.9206 22.4887C29.1742 22.3318 29.3836 22.1127 29.5288 21.8521C29.674 21.5915 29.7501 21.2982 29.75 20.9999V10.9999C29.7512 10.7012 29.6755 10.4072 29.5301 10.1462C29.3848 9.88527 29.1747 9.66613 28.92 9.50991ZM28.25 20.9999C28.2509 21.0427 28.2404 21.0849 28.2197 21.1223C28.1989 21.1597 28.1687 21.1909 28.132 21.2129C28.087 21.2389 27.996 21.2789 27.955 21.2619L23.748 18.5869V13.4129L27.888 10.7769C27.9261 10.7578 27.9684 10.7488 28.011 10.7507C28.0535 10.7525 28.0949 10.7652 28.1312 10.7876C28.1674 10.8099 28.1974 10.8411 28.2182 10.8783C28.239 10.9155 28.25 10.9573 28.25 10.9999V20.9999Z"/></svg>