<svg width="32" height="32" viewBox="0 0 32 32" fill="none" xmlns="http://www.w3.org/2000/svg">
<path d="M25.5001 2.25012C24.8003 2.25497 24.1127 2.43481 23.5001 2.77325C22.8875 2.4348 22.2 2.25497 21.5001 2.25012C20.3729 2.25012 19.2919 2.69788 18.4949 3.49491C17.6979 4.29194 17.2501 5.37295 17.2501 6.50012C17.2501 7.62729 17.6979 8.70829 18.4949 9.50532C19.2919 10.3024 20.3729 10.7501 21.5001 10.7501C22.2 10.7453 22.8875 10.5654 23.5001 10.227C24.1127 10.5654 24.8003 10.7453 25.5001 10.7501C26.6273 10.7501 27.7083 10.3024 28.5053 9.50532C29.3024 8.70829 29.7501 7.62729 29.7501 6.50012C29.7501 5.37295 29.3024 4.29194 28.5053 3.49491C27.7083 2.69788 26.6273 2.25012 25.5001 2.25012ZM23.5001 8.37567C23.0187 7.86992 22.7501 7.19839 22.7501 6.50012C22.7501 5.80184 23.0187 5.13031 23.5001 4.62457C23.9816 5.13031 24.2501 5.80184 24.2501 6.50012C24.2501 7.19839 23.9816 7.86992 23.5001 8.37567ZM18.7501 6.50012C18.7509 5.771 19.0408 5.07196 19.5564 4.55639C20.072 4.04083 20.771 3.75086 21.5001 3.75012C21.7376 3.75332 21.9737 3.78767 22.2023 3.85229C21.5868 4.5974 21.2501 5.53366 21.2501 6.50012C21.2501 7.46658 21.5868 8.40284 22.2023 9.14795C21.9737 9.21257 21.7376 9.24692 21.5001 9.25012C20.771 9.24938 20.072 8.95941 19.5564 8.44384C19.0408 7.92828 18.7509 7.22924 18.7501 6.50012ZM25.5001 9.25012C25.2626 9.24692 25.0265 9.21257 24.7979 9.14795C25.4134 8.40284 25.7501 7.46658 25.7501 6.50012C25.7501 5.53366 25.4134 4.5974 24.7979 3.85229C25.0265 3.78767 25.2626 3.75332 25.5001 3.75012C26.2295 3.75012 26.9289 4.03985 27.4447 4.55557C27.9604 5.0713 28.2501 5.77077 28.2501 6.50012C28.2501 7.22946 27.9604 7.92894 27.4447 8.44466C26.9289 8.96039 26.2295 9.25012 25.5001 9.25012Z" fill="black"/>
<path d="M24.045 19.6984C23.4323 19.0872 22.6019 18.7444 21.7364 18.7454C20.871 18.7463 20.0413 19.0908 19.4298 19.7032C19.4298 19.7032 18.17 20.9845 17.6954 21.463C15.8098 21.4269 14.0114 20.6618 12.6779 19.3282C11.3443 17.9946 10.5791 16.1963 10.5431 14.3107C11.0216 13.836 12.3038 12.5763 12.3077 12.5714C12.6105 12.2687 12.8507 11.9093 13.0146 11.5138C13.1785 11.1183 13.2628 10.6944 13.2628 10.2662C13.2628 9.83809 13.1785 9.41415 13.0146 9.01862C12.8507 8.6231 12.6105 8.26373 12.3077 7.96105L9.55481 5.20813C8.93143 4.61297 8.10271 4.28088 7.24084 4.28088C6.37898 4.28088 5.55025 4.61297 4.92688 5.20813L3.4552 6.67981C1.51087 8.62414 1.08606 15.465 8.8136 23.1925C13.7687 28.1476 18.3595 29.7511 21.5284 29.7511C22.9008 29.8482 24.2586 29.4195 25.3263 28.5519L26.798 27.0802C27.102 26.7764 27.3432 26.4157 27.5077 26.0186C27.6723 25.6216 27.757 25.196 27.757 24.7662C27.757 24.3364 27.6723 23.9109 27.5077 23.5138C27.3432 23.1168 27.102 22.7561 26.798 22.4523L24.045 19.6984ZM25.7374 26.0196L24.2657 27.4913C22.9376 28.8185 16.9073 29.1661 9.87415 22.132C2.84098 15.0987 3.18665 9.06946 4.51575 7.74035L5.98743 6.26868C6.15197 6.10397 6.34736 5.97331 6.56243 5.88417C6.7775 5.79502 7.00803 5.74914 7.24084 5.74914C7.47365 5.74914 7.70418 5.79502 7.91925 5.88417C8.13432 5.97331 8.32971 6.10397 8.49426 6.26868L11.2472 9.0216C11.5765 9.35083 11.7619 9.79714 11.7628 10.2628C11.7637 10.7284 11.5801 11.1755 11.2521 11.506C11.2521 11.506 9.74817 12.9845 9.38298 13.3497C8.52262 14.212 9.3195 18.0909 11.6173 20.3888C12.7479 21.4875 14.1396 22.2803 15.6613 22.6925C16.1994 22.8409 18.0099 23.2706 18.6574 22.6222C19.0207 22.2589 20.4943 20.7599 20.4953 20.7589C20.8259 20.4298 21.2734 20.2451 21.7399 20.2451C22.2064 20.2451 22.6539 20.4298 22.9845 20.7589L25.7375 23.5128C25.9022 23.6774 26.0328 23.8728 26.122 24.0878C26.2111 24.3029 26.257 24.5334 26.257 24.7662C26.257 24.999 26.2111 25.2296 26.122 25.4446C26.0328 25.6597 25.9021 25.8551 25.7374 26.0196Z" fill="black"/>
</svg>
