<svg width="32" height="32" viewBox="0 0 32 32" fill="none" xmlns="http://www.w3.org/2000/svg">
<path d="M18.0157 20.9991C17.3234 21.0003 16.6391 21.1463 16.0067 21.4279C15.2454 21.0909 14.412 20.9493 13.5822 21.016C12.7523 21.0827 11.9523 21.3555 11.2546 21.8098C10.5569 22.264 9.9837 22.8853 9.58696 23.6172C9.19021 24.3491 8.9825 25.1685 8.98267 26.001C8.98284 26.8336 9.19088 27.6529 9.58791 28.3846C9.98495 29.1164 10.5584 29.7374 11.2563 30.1914C11.9541 30.6453 12.7543 30.9179 13.5842 30.9842C14.4141 31.0506 15.2474 30.9087 16.0085 30.5714C16.6892 30.8705 17.4281 31.0139 18.1712 30.9911C18.9144 30.9684 19.6431 30.7801 20.3042 30.4401C20.9654 30.1 21.5423 29.6166 21.993 29.0253C22.4437 28.434 22.7567 27.7495 22.9093 27.0218C23.0619 26.2942 23.0502 25.5416 22.875 24.819C22.6998 24.0965 22.3657 23.4221 21.8968 22.8451C21.4279 22.268 20.8362 21.8029 20.1648 21.4836C19.4934 21.1642 18.7592 20.9987 18.0157 20.9991ZM16.9996 26.0001C16.9985 26.4178 16.9097 26.8306 16.7389 27.2117C16.5681 27.5929 16.3192 27.9339 16.0082 28.2127C15.6962 27.9347 15.4464 27.5938 15.2754 27.2125C15.1043 26.8311 15.0158 26.4179 15.0157 25.9999C15.0156 25.582 15.1038 25.1687 15.2747 24.7873C15.4455 24.4058 15.6951 24.0648 16.007 23.7866C16.3183 24.0654 16.5676 24.4065 16.7386 24.7879C16.9095 25.1692 16.9985 25.5822 16.9996 26.0001ZM10.9996 26.0001C11.0004 25.2048 11.3168 24.4422 11.8792 23.8798C12.4416 23.3174 13.2042 23.001 13.9996 23.0001C14.0125 23.0001 14.0244 23.0037 14.0373 23.0039C13.3747 23.8622 13.0154 24.916 13.0157 26.0003C13.016 27.0846 13.3758 28.1382 14.0388 28.9962C14.0254 28.9964 14.013 29.0002 13.9996 29.0002C13.2042 28.9993 12.4416 28.6829 11.8792 28.1205C11.3168 27.5581 11.0004 26.7955 10.9996 26.0001ZM18.0157 28.9991C18.0028 28.9991 17.9908 28.9955 17.978 28.9954C18.6406 28.1371 18.9998 27.0833 18.9996 25.999C18.9993 24.9147 18.6395 23.8611 17.9765 23.0031C17.9899 23.0029 18.0023 22.9991 18.0157 22.9991C18.8113 22.9991 19.5744 23.3152 20.137 23.8778C20.6996 24.4404 21.0157 25.2035 21.0157 25.9991C21.0157 26.7948 20.6996 27.5578 20.137 28.1204C19.5744 28.683 18.8113 28.9991 18.0157 28.9991Z" fill="black"/>
<path d="M25.0001 5.00012H7.00006C5.67446 5.00168 4.40359 5.52896 3.46625 6.46631C2.5289 7.40365 2.00162 8.67452 2.00006 10.0001V22.0001C1.9998 23.1071 2.36688 24.1828 3.04376 25.0587C3.72064 25.9346 4.66905 26.5611 5.74029 26.84C5.8675 26.8734 6.00006 26.8814 6.13036 26.8635C6.26066 26.8456 6.38615 26.8021 6.49964 26.7357C6.61313 26.6692 6.71239 26.581 6.79173 26.4761C6.87107 26.3712 6.92894 26.2516 6.96201 26.1243C6.99509 25.997 7.00273 25.8645 6.98449 25.7342C6.96625 25.604 6.92249 25.4786 6.85572 25.3653C6.78895 25.2519 6.70048 25.1529 6.59538 25.0738C6.49027 24.9948 6.3706 24.9372 6.24322 24.9045C5.60058 24.737 5.03169 24.3609 4.62574 23.8353C4.21979 23.3097 3.99973 22.6643 4.00006 22.0002V10.0002C4.00093 9.20478 4.31728 8.44222 4.8797 7.8798C5.44212 7.31738 6.20468 7.00103 7.00006 7.00016H25.0001C25.7954 7.00103 26.558 7.31738 27.1204 7.8798C27.6828 8.44222 27.9992 9.20478 28.0001 10.0002V22.0002C28.0004 22.6642 27.7804 23.3096 27.3745 23.8352C26.9687 24.3608 26.3999 24.7368 25.7574 24.9045C25.522 24.9656 25.3169 25.1105 25.1806 25.3119C25.0443 25.5133 24.9861 25.7575 25.0168 25.9988C25.0476 26.2401 25.1653 26.4619 25.3478 26.6226C25.5303 26.7834 25.7652 26.8721 26.0084 26.8722C26.0934 26.8725 26.1781 26.8617 26.2604 26.84C27.3316 26.5611 28.2799 25.9346 28.9567 25.0587C29.6335 24.1828 30.0005 23.1071 30.0001 22.0002V10.0002C29.9986 8.67454 29.4713 7.40365 28.5339 6.4663C27.5966 5.52894 26.3257 5.00166 25.0001 5.00012Z" fill="black"/>
</svg>
