<svg width="32" height="32" viewBox="0 0 32 32" fill="none" xmlns="http://www.w3.org/2000/svg">
<path d="M25.5001 2.00012C24.8043 2.00463 24.1192 2.17249 23.5001 2.49017C22.881 2.17249 22.196 2.00463 21.5001 2.00012C20.3066 2.00012 19.162 2.47423 18.3181 3.31814C17.4742 4.16206 17.0001 5.30665 17.0001 6.50012C17.0001 7.6936 17.4742 8.83819 18.3181 9.6821C19.162 10.526 20.3066 11.0001 21.5001 11.0001C22.196 10.9956 22.881 10.8278 23.5001 10.5101C24.1192 10.8278 24.8043 10.9956 25.5001 11.0001C26.6936 11.0001 27.8382 10.526 28.6821 9.6821C29.526 8.83819 30.0001 7.6936 30.0001 6.50012C30.0001 5.30665 29.526 4.16206 28.6821 3.31814C27.8382 2.47423 26.6936 2.00012 25.5001 2.00012ZM23.5001 7.98504C23.1757 7.55797 23.0001 7.03642 23.0001 6.50012C23.0001 5.96382 23.1757 5.44228 23.5001 5.0152C23.8245 5.44228 24.0001 5.96382 24.0001 6.50012C24.0001 7.03642 23.8245 7.55797 23.5001 7.98504ZM19.0001 6.50012C19.0007 5.83727 19.2643 5.20174 19.733 4.73303C20.2017 4.26433 20.8373 4.00074 21.5001 4.00012C21.5832 4.00427 21.666 4.01264 21.7483 4.02521C21.2604 4.75841 21.0001 5.61944 21.0001 6.50013C21.0001 7.38081 21.2604 8.24185 21.7483 8.97504C21.666 8.98761 21.5832 8.99598 21.5001 9.00012C20.8373 8.99951 20.2017 8.73592 19.733 8.26721C19.2643 7.7985 19.0007 7.16297 19.0001 6.50012ZM25.5001 9.00012C25.417 8.99597 25.3342 8.98758 25.252 8.975C25.7399 8.24181 26.0001 7.38077 26.0001 6.50009C26.0001 5.6194 25.7399 4.75837 25.252 4.02517C25.3342 4.0126 25.417 4.00423 25.5001 4.00008C26.1632 4.00008 26.7991 4.26347 27.2679 4.73232C27.7368 5.20116 28.0001 5.83704 28.0001 6.50008C28.0001 7.16312 27.7368 7.79901 27.2679 8.26785C26.7991 8.73669 26.1632 9.00012 25.5001 9.00012Z" fill="black"/>
<path d="M24.2218 19.5216C23.5617 18.8639 22.6675 18.4951 21.7357 18.4962C20.8039 18.4973 19.9106 18.8682 19.2521 19.5275C19.2521 19.5275 18.0958 20.7042 17.5812 21.2228C15.8071 21.1262 14.1281 20.3904 12.8546 19.1515C11.6144 17.8789 10.8783 16.1994 10.7833 14.4249C11.3029 13.9103 12.4786 12.754 12.4845 12.7482C12.8105 12.4223 13.0691 12.0354 13.2456 11.6095C13.422 11.1836 13.5128 10.7272 13.5128 10.2662C13.5128 9.80528 13.422 9.34883 13.2456 8.92297C13.0691 8.49711 12.8105 8.11019 12.4845 7.7843L9.73156 5.03137C9.06041 4.39106 8.16844 4.03381 7.24084 4.03381C6.31323 4.03381 5.42126 4.39106 4.75011 5.03137L3.27843 6.50305C1.2716 8.50891 0.784292 15.5167 8.63683 23.3693C13.6339 28.3673 18.2892 29.9865 21.5314 29.9865C22.9669 30.0868 24.3869 29.6371 25.503 28.7286L26.9747 27.257C27.302 26.93 27.5616 26.5417 27.7387 26.1144C27.9158 25.687 28.007 25.2289 28.007 24.7663C28.007 24.3037 27.9158 23.8456 27.7387 23.4182C27.5616 22.9908 27.302 22.6026 26.9747 22.2756L24.2218 19.5216ZM25.5607 25.8429L24.089 27.3146C22.8107 28.59 16.9572 28.8615 10.0509 21.9552C3.14367 15.048 3.41515 9.19446 4.6925 7.91711L6.16418 6.44543C6.30552 6.30395 6.47336 6.19171 6.6581 6.11514C6.84284 6.03856 7.04086 5.99914 7.24084 5.99914C7.44082 5.99914 7.63885 6.03856 7.82359 6.11514C8.00833 6.19171 8.17616 6.30395 8.3175 6.44543L11.0704 9.19836C11.3527 9.48055 11.5117 9.86299 11.5128 10.2621C11.5139 10.6612 11.357 11.0445 11.0763 11.3283C11.0763 11.3283 9.5714 12.8077 9.20617 13.173C7.90343 14.4796 9.67394 18.799 11.4405 20.5656C12.6019 21.6947 14.0316 22.5097 15.5948 22.9337C16.505 23.1827 18.1358 23.4962 18.8341 22.799C19.1974 22.4357 20.672 20.9367 20.672 20.9357C20.9557 20.6533 21.3396 20.4948 21.7399 20.4948C22.1401 20.4948 22.5241 20.6533 22.8077 20.9357L25.5607 23.6896C25.7021 23.8309 25.8144 23.9988 25.891 24.1835C25.9675 24.3683 26.007 24.5663 26.007 24.7663C26.007 24.9662 25.9675 25.1643 25.891 25.349C25.8144 25.5337 25.7021 25.7016 25.5607 25.8429Z" fill="black"/>
</svg>
