<svg xmlns="http://www.w3.org/2000/svg" width="32" height="32" viewBox="0 0 32 32"><path d="M25.5001 2.5C24.7958 2.5039 24.1053 2.69585 23.5001 3.056C22.8948 2.69585 22.2043 2.5039 21.5001 2.5C20.4392 2.5 19.4218 2.92143 18.6716 3.67157C17.9215 4.42172 17.5001 5.43913 17.5001 6.5C17.5001 7.56087 17.9215 8.57828 18.6716 9.32843C19.4218 10.0786 20.4392 10.5 21.5001 10.5C22.2043 10.496 22.8948 10.3041 23.5001 9.944C24.1051 10.304 24.7961 10.496 25.5001 10.5C26.5609 10.5 27.5783 10.0786 28.3285 9.32843C29.0786 8.57828 29.5001 7.56087 29.5001 6.5C29.5001 5.43913 29.0786 4.42172 28.3285 3.67157C27.5783 2.92143 26.5609 2.5 25.5001 2.5ZM24.5001 6.5C24.499 6.91957 24.4094 7.3342 24.237 7.71675C24.0647 8.09931 23.8136 8.44118 23.5001 8.72C23.1857 8.44188 22.9339 8.10015 22.7615 7.71744C22.5891 7.33472 22.5 6.91976 22.5 6.5C22.5 6.08024 22.5891 5.66528 22.7615 5.28256C22.9339 4.89985 23.1857 4.55812 23.5001 4.28C23.8136 4.55882 24.0647 4.90069 24.237 5.28325C24.4094 5.6658 24.499 6.08043 24.5001 6.5ZM18.5001 6.5C18.499 6.00803 18.6192 5.52338 18.8501 5.08895C19.081 4.65452 19.4155 4.28371 19.8238 4.00933C20.2322 3.73495 20.7019 3.56546 21.1913 3.51587C21.6808 3.46627 22.175 3.5381 22.6301 3.725C21.906 4.46724 21.5007 5.46309 21.5007 6.5C21.5007 7.53691 21.906 8.53276 22.6301 9.275C22.175 9.46216 21.6808 9.53419 21.1912 9.48471C20.7016 9.43523 20.2318 9.26577 19.8234 8.99134C19.4149 8.71691 19.0805 8.34598 18.8497 7.91142C18.6188 7.47685 18.4988 6.99206 18.5001 6.5ZM25.5001 9.5C25.1131 9.5 24.7291 9.423 24.3701 9.275C25.0944 8.53288 25.4998 7.53699 25.4998 6.5C25.4998 5.46301 25.0944 4.46712 24.3701 3.725C24.7802 3.55735 25.2223 3.48265 25.6648 3.50627C26.1072 3.52989 26.5389 3.65125 26.9288 3.86162C27.3188 4.07199 27.6572 4.36615 27.9199 4.72294C28.1826 5.07973 28.363 5.49029 28.4481 5.92511C28.5331 6.35992 28.5208 6.80819 28.412 7.23767C28.3032 7.66716 28.1005 8.0672 27.8186 8.40902C27.5367 8.75085 27.1826 9.02597 26.7817 9.21461C26.3808 9.40324 25.9431 9.50071 25.5001 9.5ZM23.8681 19.875C23.3021 19.3116 22.536 18.9956 21.7374 18.9962C20.9389 18.9967 20.1732 19.3138 19.6081 19.878C19.6081 19.878 18.1361 21.376 17.8471 21.685C16.8543 21.706 15.8678 21.5234 14.9484 21.1484C14.0289 20.7735 13.196 20.2142 12.5011 19.505C11.1026 18.1028 10.3022 16.2131 10.2681 14.233C10.6301 13.87 12.1281 12.398 12.1311 12.395C12.4106 12.1155 12.6323 11.7837 12.7836 11.4184C12.9349 11.0532 13.0128 10.6618 13.0128 10.2665C13.0128 9.8712 12.9349 9.47976 12.7836 9.11455C12.6323 8.74934 12.4106 8.41751 12.1311 8.138L9.37805 5.385C8.80243 4.83521 8.03705 4.52842 7.24105 4.52842C6.44505 4.52842 5.67968 4.83521 5.10405 5.385L3.63205 6.857C1.74905 8.739 1.38805 15.413 8.99005 23.016C13.9031 27.929 18.4291 29.516 21.5251 29.516C22.8343 29.6104 24.1304 29.2028 25.1501 28.376L26.6211 26.903C26.9017 26.6224 27.1243 26.2892 27.2762 25.9226C27.4281 25.5559 27.5063 25.1629 27.5063 24.766C27.5063 24.3691 27.4281 23.9761 27.2762 23.6094C27.1243 23.2428 26.9017 22.9096 26.6211 22.629L23.8681 19.875ZM25.9141 26.196L24.4421 27.668C23.0621 29.048 16.8571 29.468 9.69705 22.308C2.53805 15.15 2.95805 8.945 4.34005 7.565L5.81205 6.093C5.99982 5.90517 6.22275 5.75617 6.46812 5.65452C6.71348 5.55286 6.97647 5.50054 7.24205 5.50054C7.50764 5.50054 7.77063 5.55286 8.01599 5.65452C8.26135 5.75617 8.48428 5.90517 8.67205 6.093L11.4251 8.846C11.8016 9.22245 12.0134 9.73292 12.014 10.2654C12.0145 10.7978 11.8038 11.3088 11.4281 11.686C11.4281 11.686 9.92605 13.162 9.56105 13.526C8.86605 14.224 9.49305 17.911 11.7951 20.213C12.8947 21.2814 14.2482 22.0523 15.7281 22.453C15.9491 22.513 17.9021 23.026 18.4821 22.446C18.8451 22.083 20.3191 20.583 20.3191 20.583C20.6965 20.2069 21.2077 19.9957 21.7406 19.9957C22.2734 19.9957 22.7846 20.2069 23.1621 20.583L25.9151 23.337C26.103 23.5247 26.2521 23.7476 26.3538 23.993C26.4556 24.2384 26.5079 24.5014 26.5079 24.767C26.5079 25.0326 26.4556 25.2956 26.3538 25.541C26.2521 25.7864 26.103 26.0093 25.9151 26.197L25.9141 26.196Z"/></svg>