<svg width="32" height="32" viewBox="0 0 32 32" fill="none" xmlns="http://www.w3.org/2000/svg">
<path d="M18.47 15.4694L16.7527 17.1854L16.7581 13.0007C16.7582 12.9022 16.739 12.8047 16.7014 12.7136C16.6638 12.6226 16.6087 12.5398 16.5391 12.4701C16.4696 12.4003 16.387 12.345 16.296 12.3072C16.2051 12.2694 16.1076 12.2498 16.0091 12.2497C15.8104 12.2497 15.6187 12.3286 15.4781 12.469C15.3375 12.6095 15.2584 12.8 15.2581 12.9987L15.2528 17.19L13.5307 15.4693C13.4611 15.3997 13.3784 15.3444 13.2874 15.3067C13.1964 15.269 13.0988 15.2496 13.0003 15.2496C12.9019 15.2496 12.8043 15.269 12.7133 15.3067C12.6223 15.3444 12.5396 15.3997 12.47 15.4693C12.4004 15.5389 12.3451 15.6216 12.3074 15.7126C12.2697 15.8036 12.2503 15.9012 12.2503 15.9997C12.2503 16.0981 12.2697 16.1957 12.3074 16.2867C12.3451 16.3777 12.4004 16.4604 12.47 16.53L15.47 19.528C15.5243 19.5772 15.5856 19.6179 15.652 19.6488C15.672 19.6597 15.6876 19.6776 15.7089 19.6866C15.8006 19.7269 15.8996 19.7477 15.9997 19.7478C16.0999 19.7479 16.1989 19.7273 16.2907 19.6872C16.3131 19.674 16.3348 19.6596 16.3557 19.6441C16.4193 19.6141 16.4782 19.575 16.5306 19.528L19.5306 16.53C19.6688 16.3888 19.7457 16.1989 19.7446 16.0014C19.7436 15.8038 19.6647 15.6147 19.525 15.475C19.3853 15.3353 19.1962 15.2564 18.9986 15.2554C18.8011 15.2543 18.6112 15.3312 18.47 15.4694Z" fill="black"/>
<path d="M27 3.25H5C4.53605 3.25058 4.09127 3.43514 3.76321 3.76321C3.43514 4.09127 3.25058 4.53605 3.25 5V8C3.25056 8.46396 3.43511 8.90875 3.76318 9.23682C4.09125 9.56489 4.53604 9.74944 5 9.75H27C27.464 9.74944 27.9088 9.56489 28.2368 9.23682C28.5649 8.90875 28.7494 8.46396 28.75 8V5C28.7494 4.53604 28.5649 4.09125 28.2368 3.76318C27.9088 3.43511 27.464 3.25056 27 3.25ZM27.25 8C27.25 8.0663 27.2237 8.12989 27.1768 8.17678C27.1299 8.22366 27.0663 8.25 27 8.25H5C4.9337 8.25 4.87011 8.22366 4.82322 8.17678C4.77634 8.12989 4.75 8.0663 4.75 8V5C4.75 4.9337 4.77634 4.87011 4.82322 4.82322C4.87011 4.77634 4.9337 4.75 5 4.75H27C27.0663 4.75 27.1299 4.77634 27.1768 4.82322C27.2237 4.87011 27.25 4.9337 27.25 5V8Z" fill="black"/>
<path d="M8 22.25H5C4.53605 22.2506 4.09127 22.4351 3.76321 22.7632C3.43514 23.0913 3.25058 23.536 3.25 24V27C3.25056 27.464 3.43511 27.9088 3.76318 28.2368C4.09125 28.5649 4.53604 28.7494 5 28.75H8C8.46396 28.7494 8.90875 28.5649 9.23682 28.2368C9.56489 27.9088 9.74944 27.464 9.75 27V24C9.74944 23.536 9.56489 23.0912 9.23682 22.7632C8.90875 22.4351 8.46396 22.2506 8 22.25ZM8.25 27C8.25 27.0663 8.22366 27.1299 8.17678 27.1768C8.12989 27.2237 8.0663 27.25 8 27.25H5C4.9337 27.25 4.87011 27.2237 4.82322 27.1768C4.77634 27.1299 4.75 27.0663 4.75 27V24C4.75 23.9337 4.77634 23.8701 4.82322 23.8232C4.87011 23.7763 4.9337 23.75 5 23.75H8C8.0663 23.75 8.12989 23.7763 8.17678 23.8232C8.22366 23.8701 8.25 23.9337 8.25 24V27Z" fill="black"/>
<path d="M17.5 22.25H14.5C14.036 22.2506 13.5913 22.4351 13.2632 22.7632C12.9351 23.0913 12.7506 23.536 12.75 24V27C12.7506 27.464 12.9351 27.9088 13.2632 28.2368C13.5912 28.5649 14.036 28.7494 14.5 28.75H17.5C17.964 28.7494 18.4088 28.5649 18.7368 28.2368C19.0649 27.9088 19.2494 27.464 19.25 27V24C19.2494 23.536 19.0649 23.0912 18.7368 22.7632C18.4088 22.4351 17.964 22.2506 17.5 22.25ZM17.75 27C17.75 27.0663 17.7237 27.1299 17.6768 27.1768C17.6299 27.2237 17.5663 27.25 17.5 27.25H14.5C14.4337 27.25 14.3701 27.2237 14.3232 27.1768C14.2763 27.1299 14.25 27.0663 14.25 27V24C14.25 23.9337 14.2763 23.8701 14.3232 23.8232C14.3701 23.7763 14.4337 23.75 14.5 23.75H17.5C17.5663 23.75 17.6299 23.7763 17.6768 23.8232C17.7237 23.8701 17.75 23.9337 17.75 24V27Z" fill="black"/>
<path d="M27 22.25H24C23.536 22.2506 23.0913 22.4351 22.7632 22.7632C22.4351 23.0913 22.2506 23.536 22.25 24V27C22.2506 27.464 22.4351 27.9088 22.7632 28.2368C23.0912 28.5649 23.536 28.7494 24 28.75H27C27.464 28.7494 27.9088 28.5649 28.2368 28.2368C28.5649 27.9088 28.7494 27.464 28.75 27V24C28.7494 23.536 28.5649 23.0912 28.2368 22.7632C27.9088 22.4351 27.464 22.2506 27 22.25ZM27.25 27C27.25 27.0663 27.2237 27.1299 27.1768 27.1768C27.1299 27.2237 27.0663 27.25 27 27.25H24C23.9337 27.25 23.8701 27.2237 23.8232 27.1768C23.7763 27.1299 23.75 27.0663 23.75 27V24C23.75 23.9337 23.7763 23.8701 23.8232 23.8232C23.8701 23.7763 23.9337 23.75 24 23.75H27C27.0663 23.75 27.1299 23.7763 27.1768 23.8232C27.2237 23.8701 27.25 23.9337 27.25 24V27Z" fill="black"/>
</svg>
