<svg xmlns="http://www.w3.org/2000/svg" width="32" height="32" viewBox="0 0 32 32"><path d="M5.75 8C5.75 6.75736 6.75736 5.75 8 5.75H11.5C11.9142 5.75 12.25 5.41421 12.25 5C12.25 4.58579 11.9142 4.25 11.5 4.25H8C5.92893 4.25 4.25 5.92893 4.25 8V12.4477C4.25 12.9586 4.07612 13.4543 3.75695 13.8532L2.41435 15.5315C2.19522 15.8054 2.19522 16.1946 2.41435 16.4685L3.75695 18.1468C4.07612 18.5457 4.25 19.0414 4.25 19.5523V24C4.25 26.0711 5.92893 27.75 8 27.75H24C26.0711 27.75 27.75 26.0711 27.75 24V19.5523C27.75 19.0414 27.9239 18.5457 28.243 18.1468L29.5857 16.4685C29.8048 16.1946 29.8048 15.8054 29.5857 15.5315L28.243 13.8532C27.9239 13.4543 27.75 12.9586 27.75 12.4477V8C27.75 5.92893 26.0711 4.25 24 4.25H20.5C20.0858 4.25 19.75 4.58579 19.75 5C19.75 5.41421 20.0858 5.75 20.5 5.75H24C25.2426 5.75 26.25 6.75736 26.25 8V12.4477C26.25 13.2992 26.5398 14.1253 27.0717 14.7903L28.0395 16L27.0717 17.2097C26.5398 17.8747 26.25 18.7008 26.25 19.5523V24C26.25 25.2426 25.2426 26.25 24 26.25H8C6.75736 26.25 5.75 25.2426 5.75 24V19.5523C5.75 18.7008 5.4602 17.8747 4.92826 17.2097L3.96047 16L4.92826 14.7903C5.4602 14.1253 5.75 13.2992 5.75 12.4477V8ZM19.6708 10.3354C19.8561 9.96493 19.7059 9.51442 19.3354 9.32918C18.9649 9.14394 18.5144 9.29411 18.3292 9.66459L12.3292 21.6646C12.1439 22.0351 12.2941 22.4856 12.6646 22.6708C13.0351 22.8561 13.4856 22.7059 13.6708 22.3354L19.6708 10.3354Z"/></svg>