<svg width="32" height="32" viewBox="0 0 32 32" xmlns="http://www.w3.org/2000/svg"><path d="M22.395 15.038a12.18 12.18 0 0 0-2.985-1.307 6.25 6.25 0 1 0-6.813.004C7.826 15.117 4.25 19.293 4.25 24.077a3.938 3.938 0 0 0 1.517 3.013c2.17 1.856 6.324 2.657 10.257 2.657 1.371.004 2.74-.098 4.095-.305a.75.75 0 0 0-.234-1.482C14.778 28.767 9 27.882 6.74 25.95a2.428 2.428 0 0 1-.991-1.873c0-5.056 4.694-9.327 10.25-9.327a10.77 10.77 0 0 1 5.614 1.569.75.75 0 0 0 .781-1.281ZM11.25 8.5a4.75 4.75 0 1 1 9.5 0 4.75 4.75 0 0 1-9.5 0ZM26 29a1 1 0 1 0 0-2 1 1 0 0 0 0 2ZM26 18.25a3.072 3.072 0 0 0-3.058 3.077.75.75 0 0 0 1.5 0 1.557 1.557 0 1 1 3.116 0A1.55 1.55 0 0 1 26 22.867a.75.75 0 0 0-.75.75V25a.75.75 0 1 0 1.5 0v-.726A3.059 3.059 0 0 0 26 18.25Z"/></svg>