<svg xmlns="http://www.w3.org/2000/svg" width="32" height="32" viewBox="0 0 32 32"><path d="M5.5 8C5.5 6.61929 6.61929 5.5 8 5.5H11.5C11.7761 5.5 12 5.27614 12 5C12 4.72386 11.7761 4.5 11.5 4.5H8C6.067 4.5 4.5 6.067 4.5 8V12.4477C4.5 13.0153 4.3068 13.5661 3.95217 14.0094L2.60957 15.6877C2.46348 15.8703 2.46348 16.1297 2.60957 16.3123L3.95217 17.9906C4.3068 18.4339 4.5 18.9847 4.5 19.5523V24C4.5 25.933 6.067 27.5 8 27.5H24C25.933 27.5 27.5 25.933 27.5 24V19.5523C27.5 18.9847 27.6932 18.4339 28.0478 17.9906L29.3904 16.3123C29.5365 16.1297 29.5365 15.8703 29.3904 15.6877L28.0478 14.0094C27.6932 13.5661 27.5 13.0153 27.5 12.4477V8C27.5 6.067 25.933 4.5 24 4.5H20.5C20.2239 4.5 20 4.72386 20 5C20 5.27614 20.2239 5.5 20.5 5.5H24C25.3807 5.5 26.5 6.61929 26.5 8V12.4477C26.5 13.2424 26.7705 14.0135 27.267 14.6341L28.3597 16L27.267 17.3659C26.7705 17.9865 26.5 18.7576 26.5 19.5523V24C26.5 25.3807 25.3807 26.5 24 26.5H8C6.61929 26.5 5.5 25.3807 5.5 24V19.5523C5.5 18.7576 5.22952 17.9865 4.73304 17.3659L3.64031 16L4.73304 14.6341C5.22952 14.0135 5.5 13.2424 5.5 12.4477V8ZM19.4472 10.2236C19.5707 9.97662 19.4706 9.67628 19.2236 9.55279C18.9766 9.42929 18.6763 9.5294 18.5528 9.77639L12.5528 21.7764C12.4293 22.0234 12.5294 22.3237 12.7764 22.4472C13.0234 22.5707 13.3237 22.4706 13.4472 22.2236L19.4472 10.2236Z"/></svg>