<svg xmlns="http://www.w3.org/2000/svg" width="32" height="32" viewBox="0 0 32 32"><path d="M23 18.25C21.8628 18.25 20.7511 18.5872 19.8055 19.219C18.8599 19.8509 18.1229 20.7489 17.6877 21.7996C17.2525 22.8502 17.1386 24.0064 17.3605 25.1218C17.5824 26.2372 18.13 27.2617 18.9341 28.0659C19.7383 28.87 20.7628 29.4176 21.8782 29.6395C22.9936 29.8614 24.1498 29.7475 25.2004 29.3123C26.2511 28.8771 27.1491 28.1401 27.781 27.1945C28.4128 26.2489 28.75 25.1372 28.75 24C28.7484 22.4755 28.1421 21.0139 27.0641 19.9359C25.9861 18.8579 24.5245 18.2516 23 18.25ZM27.25 24C27.25 24.85 26.995 25.68 26.518 26.381L20.532 20.554C21.1652 20.0957 21.9129 19.8216 22.6923 19.762C23.4717 19.7025 24.2524 19.8598 24.9479 20.2165C25.6434 20.5733 26.2266 21.1156 26.6329 21.7834C27.0393 22.4511 27.2528 23.2183 27.25 24ZM18.75 24C18.749 23.152 19.003 22.324 19.479 21.622L25.464 27.449C24.8305 27.9059 24.083 28.1788 23.3041 28.2375C22.5251 28.2961 21.7452 28.1383 21.0504 27.7814C20.3556 27.4244 19.773 26.8823 19.367 26.215C18.9611 25.5477 18.7475 24.7811 18.75 24Z M14.97 28.2352C10.441 28.3932 6.25 27.4142 4.56 25.7852C4.31271 25.5733 4.11279 25.3117 3.97324 25.0174C3.83369 24.7232 3.75762 24.4028 3.75 24.0772C3.75 19.0212 8.444 14.7502 14 14.7502C15.978 14.7462 17.919 15.2892 19.61 16.3162C19.6941 16.3694 19.788 16.4053 19.8862 16.4219C19.9844 16.4384 20.0849 16.4352 20.1818 16.4125C20.2787 16.3898 20.3702 16.3481 20.4508 16.2897C20.5314 16.2313 20.5996 16.1574 20.6514 16.0724C20.7032 15.9873 20.7375 15.8928 20.7524 15.7944C20.7673 15.696 20.7624 15.5955 20.7381 15.499C20.7137 15.4025 20.6704 15.3117 20.6107 15.2321C20.5509 15.1525 20.4759 15.0856 20.39 15.0352C19.4595 14.4691 18.4572 14.0305 17.41 13.7312C18.5394 12.9961 19.4009 11.9156 19.8662 10.6508C20.3314 9.38611 20.3754 8.00489 19.9916 6.71312C19.6078 5.42134 18.8167 4.28822 17.7364 3.48269C16.6561 2.67716 15.3443 2.24237 13.9968 2.24317C12.6492 2.24396 11.3379 2.68028 10.2586 3.48708C9.17917 4.29387 8.38947 5.42793 8.00718 6.72015C7.6249 8.01238 7.67051 9.39354 8.13722 10.6577C8.60393 11.9219 9.46674 13.0014 10.597 13.7352C5.826 15.1172 2.25 19.2932 2.25 24.0772C2.25599 24.6045 2.37184 25.1248 2.59016 25.6049C2.80849 26.0849 3.12449 26.5142 3.518 26.8652C5.744 29.0112 10.386 29.7512 14.068 29.7512C14.395 29.7512 14.715 29.7452 15.025 29.7332C15.2236 29.7259 15.4112 29.6401 15.5466 29.4946C15.6819 29.3491 15.754 29.1558 15.747 28.9572C15.7493 28.8571 15.7303 28.7577 15.6914 28.6654C15.6525 28.5731 15.5944 28.4902 15.5211 28.422C15.4478 28.3538 15.3609 28.3018 15.2661 28.2697C15.1713 28.2375 15.0707 28.2257 14.971 28.2352H14.97ZM9.25 8.50023C9.25 7.24045 9.75045 6.03227 10.6412 5.14147C11.532 4.25067 12.7402 3.75023 14 3.75023C15.2598 3.75023 16.468 4.25067 17.3588 5.14147C18.2496 6.03227 18.75 7.24045 18.75 8.50023C18.75 9.76 18.2496 10.9682 17.3588 11.859C16.468 12.7498 15.2598 13.2502 14 13.2502C12.7402 13.2502 11.532 12.7498 10.6412 11.859C9.75045 10.9682 9.25 9.76 9.25 8.50023Z"/></svg>