<svg width="32" height="32" fill="none" xmlns="http://www.w3.org/2000/svg"><path d="M18.5497 12.1904c-.74.4944-1.61.7583-2.4999.7583a4.5053 4.5053 0 01-3.1803-1.3194 4.5042 4.5042 0 01-1.3195-3.18 4.4993 4.4993 0 015.3776-4.4128 4.5 4.5 0 013.5355 3.535 4.499 4.499 0 01-1.9134 4.6189zM6 23.7885c0-4.7704 4.3789-8.8385 9.9983-8.8385C21.6202 14.95 26 19.0184 26 23.7881c0 1.1998-.892 2.2603-2.8312 3.0681-1.9022.7923-4.5089 1.1898-7.1682 1.1898h-.01l-.0099.0001a19.6198 19.6198 0 01-7.0045-1.145c-1.3625-.5462-2.0934-1.1611-2.4854-1.6881C6.104 24.6931 6 24.196 6 23.7885z" fill="#0F0F0F"/></svg>