<svg width="32" height="32" viewBox="0 0 32 32" fill="none" xmlns="http://www.w3.org/2000/svg">
<path d="M18.25 21.0002C18.2501 21.1991 18.3291 21.3898 18.4697 21.5304C18.6104 21.6711 18.8011 21.7501 19 21.7502H29C29.1989 21.7502 29.3897 21.6712 29.5303 21.5305C29.671 21.3899 29.75 21.1991 29.75 21.0002C29.75 20.8013 29.671 20.6105 29.5303 20.4698C29.3897 20.3292 29.1989 20.2502 29 20.2502H19C18.8011 20.2502 18.6104 20.3293 18.4697 20.4699C18.3291 20.6105 18.2501 20.8013 18.25 21.0002Z" fill="black"/>
<path d="M29 24.2502H19C18.8011 24.2502 18.6103 24.3292 18.4697 24.4698C18.329 24.6105 18.25 24.8013 18.25 25.0002C18.25 25.1991 18.329 25.3899 18.4697 25.5305C18.6103 25.6712 18.8011 25.7502 19 25.7502H29C29.1989 25.7502 29.3897 25.6712 29.5303 25.5305C29.671 25.3899 29.75 25.1991 29.75 25.0002C29.75 24.8013 29.671 24.6105 29.5303 24.4698C29.3897 24.3292 29.1989 24.2502 29 24.2502Z" fill="black"/>
<path d="M29 28.2502H19C18.8011 28.2502 18.6103 28.3292 18.4697 28.4698C18.329 28.6105 18.25 28.8013 18.25 29.0002C18.25 29.1991 18.329 29.3899 18.4697 29.5305C18.6103 29.6712 18.8011 29.7502 19 29.7502H29C29.1989 29.7502 29.3897 29.6712 29.5303 29.5305C29.671 29.3899 29.75 29.1991 29.75 29.0002C29.75 28.8013 29.671 28.6105 29.5303 28.4698C29.3897 28.3292 29.1989 28.2502 29 28.2502Z" fill="black"/>
<path d="M14.9707 28.2258C10.438 28.3859 6.24902 27.4064 4.55908 25.7765C4.31214 25.5648 4.1125 25.3035 3.97311 25.0096C3.83372 24.7156 3.75771 24.3957 3.75 24.0705C3.75 19.0187 8.44385 14.7502 14 14.7502C16.3639 14.7482 18.6629 15.523 20.5435 16.9553C20.7012 17.0765 20.9006 17.1301 21.0979 17.1042C21.2951 17.0784 21.474 16.9753 21.5952 16.8176C21.7164 16.6598 21.77 16.4604 21.7442 16.2632C21.7184 16.0659 21.6153 15.887 21.4575 15.7658C20.2425 14.8399 18.8636 14.1515 17.3934 13.7369C18.5245 13.0033 19.3881 11.9237 19.8553 10.6592C20.3226 9.3946 20.3684 8.01285 19.986 6.72009C19.6035 5.42734 18.8134 4.2929 17.7333 3.48603C16.6533 2.67917 15.3414 2.24315 13.9933 2.24303C12.6451 2.24291 11.3331 2.67869 10.2529 3.48536C9.17277 4.29203 8.3824 5.42634 7.99974 6.71902C7.61709 8.0117 7.66267 9.39346 8.12968 10.6581C8.59669 11.9228 9.4601 13.0025 10.5911 13.7363C5.82282 15.1188 2.25 19.2917 2.25 24.0705C2.25607 24.5975 2.37192 25.1174 2.59017 25.5971C2.80842 26.0769 3.12428 26.5058 3.51758 26.8566C5.74317 29.0021 10.3848 29.7414 14.0664 29.7414C14.3945 29.7414 14.7148 29.7355 15.0254 29.7238C15.1238 29.7203 15.2206 29.6974 15.3101 29.6565C15.3997 29.6156 15.4803 29.5574 15.5474 29.4853C15.6144 29.4132 15.6666 29.3286 15.701 29.2363C15.7354 29.144 15.7512 29.0459 15.7476 28.9474C15.7475 28.848 15.7269 28.7495 15.6871 28.6584C15.6473 28.5672 15.5892 28.4852 15.5163 28.4175C15.4434 28.3497 15.3573 28.2978 15.2634 28.2648C15.1696 28.2318 15.0699 28.2185 14.9707 28.2258ZM9.24268 8.50018C9.24268 7.56072 9.52126 6.64235 10.0432 5.86122C10.5651 5.08009 11.307 4.47127 12.1749 4.11175C13.0429 3.75223 13.9979 3.65817 14.9194 3.84145C15.8408 4.02473 16.6871 4.47712 17.3514 5.14142C18.0157 5.80572 18.4681 6.65209 18.6514 7.5735C18.8347 8.49491 18.7406 9.44998 18.3811 10.3179C18.0216 11.1859 17.4128 11.9277 16.6316 12.4497C15.8505 12.9716 14.9321 13.2502 13.9927 13.2502C12.7333 13.2487 11.526 12.7478 10.6355 11.8574C9.74501 10.9669 9.24411 9.75952 9.24268 8.50018Z" fill="black"/>
</svg>
