<svg xmlns="http://www.w3.org/2000/svg" width="32" height="32" viewBox="0 0 32 32"><path d="M18.25 21C18.25 21.1989 18.329 21.3897 18.4697 21.5303C18.6103 21.671 18.8011 21.75 19 21.75H29C29.1989 21.75 29.3897 21.671 29.5303 21.5303C29.671 21.3897 29.75 21.1989 29.75 21C29.75 20.8011 29.671 20.6103 29.5303 20.4697C29.3897 20.329 29.1989 20.25 29 20.25H19C18.8011 20.25 18.6103 20.329 18.4697 20.4697C18.329 20.6103 18.25 20.8011 18.25 21ZM29 24.25H19C18.8011 24.25 18.6103 24.329 18.4697 24.4697C18.329 24.6103 18.25 24.8011 18.25 25C18.25 25.1989 18.329 25.3897 18.4697 25.5303C18.6103 25.671 18.8011 25.75 19 25.75H29C29.1989 25.75 29.3897 25.671 29.5303 25.5303C29.671 25.3897 29.75 25.1989 29.75 25C29.75 24.8011 29.671 24.6103 29.5303 24.4697C29.3897 24.329 29.1989 24.25 29 24.25ZM29 28.25H19C18.8011 28.25 18.6103 28.329 18.4697 28.4697C18.329 28.6103 18.25 28.8011 18.25 29C18.25 29.1989 18.329 29.3897 18.4697 29.5303C18.6103 29.671 18.8011 29.75 19 29.75H29C29.1989 29.75 29.3897 29.671 29.5303 29.5303C29.671 29.3897 29.75 29.1989 29.75 29C29.75 28.8011 29.671 28.6103 29.5303 28.4697C29.3897 28.329 29.1989 28.25 29 28.25Z M14.97 28.2258C10.438 28.3858 6.249 27.4058 4.56 25.7758C4.31291 25.5641 4.1131 25.3029 3.97356 25.0089C3.83401 24.715 3.75784 24.3951 3.75 24.0698C3.75 19.0188 8.444 14.7498 14 14.7498C16.364 14.7477 18.6633 15.5224 20.544 16.9548C20.622 17.0162 20.7114 17.0614 20.8071 17.088C20.9027 17.1146 21.0027 17.1219 21.1011 17.1095C21.1996 17.0971 21.2947 17.0653 21.3808 17.016C21.4669 16.9666 21.5423 16.9006 21.6028 16.8219C21.6632 16.7431 21.7074 16.6532 21.7328 16.5572C21.7582 16.4613 21.7642 16.3612 21.7507 16.2629C21.7371 16.1646 21.7042 16.0699 21.6538 15.9844C21.6034 15.8989 21.5365 15.8243 21.457 15.7648C20.2419 14.8392 18.8632 14.1512 17.393 13.7368C18.5241 13.0032 19.3876 11.9235 19.8548 10.6589C20.3219 9.39429 20.3677 8.01252 19.9851 6.71978C19.6026 5.42704 18.8123 4.29264 17.7322 3.48586C16.6522 2.67908 15.3401 2.24316 13.992 2.24316C12.6439 2.24316 11.3318 2.67908 10.2518 3.48586C9.17167 4.29264 8.38139 5.42704 7.99887 6.71978C7.61634 8.01252 7.66207 9.39429 8.12923 10.6589C8.59639 11.9235 9.45993 13.0032 10.591 13.7368C5.823 15.1178 2.25 19.2908 2.25 24.0698C2.256 24.597 2.37187 25.1171 2.5902 25.597C2.80852 26.0768 3.12452 26.5059 3.518 26.8568C5.743 29.0018 10.385 29.7408 14.066 29.7408C14.395 29.7408 14.715 29.7348 15.026 29.7238C15.1244 29.7202 15.2212 29.6972 15.3107 29.6562C15.4003 29.6152 15.4809 29.557 15.5479 29.4848C15.615 29.4127 15.6671 29.328 15.7015 29.2357C15.7358 29.1434 15.7516 29.0452 15.748 28.9468C15.7479 28.8473 15.7272 28.749 15.6874 28.6579C15.6475 28.5667 15.5894 28.4848 15.5165 28.4171C15.4436 28.3495 15.3575 28.2976 15.2637 28.2647C15.1698 28.2318 15.0702 28.2185 14.971 28.2258H14.97ZM9.244 8.4998C9.244 7.87602 9.36686 7.25835 9.60557 6.68205C9.84428 6.10576 10.1942 5.58212 10.6352 5.14104C11.0763 4.69996 11.6 4.35008 12.1763 4.11137C12.7526 3.87266 13.3702 3.7498 13.994 3.7498C14.6178 3.7498 15.2354 3.87266 15.8117 4.11137C16.388 4.35008 16.9117 4.69996 17.3528 5.14104C17.7938 5.58212 18.1437 6.10576 18.3824 6.68205C18.6211 7.25835 18.744 7.87602 18.744 8.4998C18.744 9.75958 18.2436 10.9678 17.3528 11.8586C16.462 12.7494 15.2538 13.2498 13.994 13.2498C12.7342 13.2498 11.526 12.7494 10.6352 11.8586C9.74444 10.9678 9.244 9.75958 9.244 8.4998Z"/></svg>