<svg width="32" height="32" viewBox="0 0 32 32" fill="none" xmlns="http://www.w3.org/2000/svg">
<path d="M18.5 21.0002C18.5 21.0659 18.5129 21.1309 18.538 21.1916C18.5631 21.2522 18.5999 21.3074 18.6464 21.3538C18.6928 21.4003 18.748 21.4371 18.8086 21.4622C18.8693 21.4873 18.9343 21.5002 19 21.5002H29C29.1326 21.5002 29.2598 21.4475 29.3536 21.3537C29.4473 21.26 29.5 21.1328 29.5 21.0002C29.5 20.8676 29.4473 20.7404 29.3536 20.6466C29.2598 20.5529 29.1326 20.5002 29 20.5002H19C18.9343 20.5001 18.8693 20.513 18.8086 20.5382C18.748 20.5633 18.6928 20.6001 18.6464 20.6465C18.5999 20.693 18.5631 20.7481 18.538 20.8088C18.5129 20.8695 18.5 20.9345 18.5 21.0002Z" fill="black"/>
<path d="M29 24.5002H19C18.8674 24.5002 18.7402 24.5529 18.6465 24.6466C18.5527 24.7404 18.5 24.8676 18.5 25.0002C18.5 25.1328 18.5527 25.26 18.6465 25.3537C18.7402 25.4475 18.8674 25.5002 19 25.5002H29C29.1326 25.5002 29.2598 25.4475 29.3536 25.3537C29.4473 25.26 29.5 25.1328 29.5 25.0002C29.5 24.8676 29.4473 24.7404 29.3536 24.6466C29.2598 24.5529 29.1326 24.5002 29 24.5002Z" fill="black"/>
<path d="M29 28.5002H19C18.8674 28.5002 18.7402 28.5529 18.6465 28.6466C18.5527 28.7404 18.5 28.8676 18.5 29.0002C18.5 29.1328 18.5527 29.26 18.6465 29.3537C18.7402 29.4475 18.8674 29.5002 19 29.5002H29C29.1326 29.5002 29.2598 29.4475 29.3536 29.3537C29.4473 29.26 29.5 29.1328 29.5 29.0002C29.5 28.8676 29.4473 28.7404 29.3536 28.6466C29.2598 28.5529 29.1326 28.5002 29 28.5002Z" fill="black"/>
<path d="M14.98 28.4748C10.3818 28.6574 6.12059 27.631 4.38524 25.9562C4.11512 25.7204 3.89695 25.4309 3.74456 25.1063C3.59217 24.7817 3.50889 24.429 3.49998 24.0705C3.49998 18.883 8.30858 14.5002 14 14.5002C16.4189 14.4983 18.7715 15.2913 20.6958 16.757C20.8009 16.8378 20.9339 16.8736 21.0654 16.8563C21.1969 16.8391 21.3162 16.7704 21.397 16.6652C21.4778 16.5601 21.5135 16.4271 21.4963 16.2956C21.4791 16.1641 21.4103 16.0448 21.3052 15.964C19.956 14.9347 18.4027 14.2051 16.7492 13.8238C17.9444 13.2058 18.8972 12.204 19.4546 10.9794C20.012 9.75474 20.1416 8.37829 19.8227 7.07112C19.5037 5.76395 18.7547 4.60191 17.6958 3.77165C16.637 2.94139 15.3299 2.49109 13.9843 2.49308C12.6388 2.49507 11.333 2.94923 10.2766 3.78261C9.22027 4.616 8.47465 5.78024 8.15955 7.08835C7.84445 8.39646 7.97814 9.77252 8.53916 10.9955C9.10018 12.2185 10.056 13.2174 11.253 13.8319C6.29628 14.9995 2.5 19.209 2.5 24.0705C2.50659 24.5637 2.6159 25.0501 2.82096 25.4987C3.02602 25.9473 3.32231 26.3483 3.69096 26.676C5.50102 28.4221 9.46537 29.4934 13.9732 29.4934C14.3179 29.4934 14.6656 29.4872 15.0162 29.4748C15.1488 29.4698 15.2739 29.4124 15.3642 29.3152C15.4545 29.2179 15.5025 29.0889 15.4976 28.9563C15.4869 28.8259 15.4279 28.7043 15.3321 28.6152C15.2363 28.5261 15.1107 28.4761 14.98 28.4748ZM8.9927 8.50018C8.9927 7.51127 9.28594 6.54457 9.83535 5.72233C10.3848 4.90008 11.1657 4.25922 12.0793 3.88078C12.9929 3.50234 13.9982 3.40333 14.9682 3.59625C15.9381 3.78918 16.829 4.26538 17.5282 4.96465C18.2275 5.66391 18.7037 6.55482 18.8966 7.52473C19.0896 8.49463 18.9905 9.49997 18.6121 10.4136C18.2337 11.3272 17.5928 12.1081 16.7706 12.6575C15.9483 13.2069 14.9816 13.5002 13.9927 13.5002C12.6671 13.4986 11.3962 12.9713 10.4589 12.034C9.52154 11.0967 8.99426 9.82579 8.9927 8.50018Z" fill="black"/>
</svg>
