<svg width="32" height="32" viewBox="0 0 32 32" fill="none" xmlns="http://www.w3.org/2000/svg">
<path fill-rule="evenodd" clip-rule="evenodd" d="M16.05 2.45001C12.7363 2.45001 10.05 5.1363 10.05 8.45001C10.05 10.7478 11.3417 12.744 13.2386 13.7519C8.25698 14.8617 4.5 18.9053 4.5 23.7885C4.5 24.4754 4.68375 25.2969 5.28728 26.1083C5.88745 26.9151 6.87801 27.6789 8.43629 28.3007L8.44439 28.3039L8.45259 28.3069C10.8743 29.1766 13.4338 29.5964 16.0056 29.5459C18.7804 29.5455 21.5997 29.1347 23.7456 28.2408C25.8743 27.3541 27.5 25.9126 27.5 23.788C27.5 18.9286 23.7781 14.9005 18.8307 13.7681C20.7443 12.7655 22.05 10.7602 22.05 8.45001C22.05 5.1363 19.3637 2.45001 16.05 2.45001ZM11.05 8.45001C11.05 5.68859 13.2886 3.45001 16.05 3.45001C18.8114 3.45001 21.05 5.68859 21.05 8.45001C21.05 11.2114 18.8114 13.45 16.05 13.45C13.2886 13.45 11.05 11.2114 11.05 8.45001ZM5.5 23.7885C5.5 18.691 10.1566 14.45 15.9983 14.45C21.8424 14.45 26.5 18.6912 26.5 23.788C26.5 25.2962 25.3634 26.4836 23.3611 27.3177C21.3772 28.1441 18.699 28.5459 16.0006 28.5459L15.9906 28.546C13.542 28.5947 11.105 28.1957 8.79881 27.3687C7.3692 26.7969 6.55117 26.1319 6.08964 25.5115C5.63061 24.8944 5.5 24.2891 5.5 23.7885Z" fill="#0F0F0F"/>
</svg>
