<svg width="32" height="32" viewBox="0 0 32 32" fill="none" xmlns="http://www.w3.org/2000/svg">
<path d="M23.4999 17.9997C22.3133 17.9997 21.1532 18.3516 20.1665 19.0109C19.1798 19.6702 18.4108 20.6072 17.9567 21.7036C17.5025 22.7999 17.3837 24.0063 17.6152 25.1702C17.8467 26.3341 18.4182 27.4032 19.2573 28.2423C20.0964 29.0814 21.1655 29.6529 22.3294 29.8844C23.4933 30.1159 24.6997 29.9971 25.796 29.543C26.8924 29.0888 27.8295 28.3198 28.4888 27.3331C29.148 26.3464 29.4999 25.1864 29.4999 23.9997C29.4982 22.4089 28.8655 20.8838 27.7407 19.759C26.6158 18.6341 25.0907 18.0014 23.4999 17.9997ZM27.4999 23.9997C27.4957 24.694 27.3087 25.3749 26.9577 25.974L21.4307 20.5935C22.0524 20.2083 22.7686 20.0027 23.5 19.9997C24.5605 20.0008 25.5773 20.4225 26.3272 21.1724C27.0771 21.9224 27.4989 22.9392 27.4999 23.9997ZM19.4999 23.9997C19.5042 23.3073 19.6903 22.6282 20.0395 22.0303L25.5641 27.4086C24.9437 27.792 24.2293 27.9966 23.4999 27.9997C22.4394 27.9986 21.4226 27.5769 20.6727 26.8269C19.9228 26.077 19.501 25.0602 19.4999 23.9997Z" fill="black"/>
<path d="M15.4618 27.9851C10.9892 28.1423 6.87685 27.191 5.23333 25.6052C5.01093 25.4159 4.83073 25.1821 4.7044 24.9189C4.57807 24.6556 4.50841 24.3687 4.49994 24.0768C4.49994 19.1569 9.07904 14.9997 14.4999 14.9997C16.4322 14.9966 18.328 15.5257 19.9794 16.529C20.2057 16.6651 20.4767 16.7061 20.7331 16.6432C20.9896 16.5802 21.2107 16.4183 21.3482 16.1928C21.4857 15.9673 21.5284 15.6966 21.467 15.4398C21.4056 15.183 21.245 14.9609 21.0204 14.822C20.2145 14.3327 19.3553 13.937 18.4596 13.6426C19.5371 12.815 20.3282 11.6706 20.7217 10.3701C21.1152 9.06972 21.0913 7.67868 20.6534 6.39252C20.2155 5.10637 19.3856 3.98976 18.2803 3.19962C17.1751 2.40948 15.85 1.98554 14.4913 1.98737C13.1327 1.98921 11.8087 2.41673 10.7056 3.20985C9.60247 4.00297 8.77559 5.12182 8.34117 6.40916C7.90675 7.69649 7.88663 9.08759 8.28364 10.3869C8.68066 11.6863 9.47484 12.8286 10.5546 13.6533C5.92114 15.1994 2.49994 19.3425 2.49994 24.0768C2.50863 24.6373 2.63249 25.19 2.86382 25.7005C3.09515 26.2111 3.42901 26.6686 3.84466 27.0446C6.11615 29.2351 10.663 30.0016 14.5058 30.0016C14.8554 30.0016 15.1992 29.9958 15.5341 29.9831C15.6653 29.9784 15.7944 29.9479 15.9138 29.8934C16.0332 29.8388 16.1407 29.7612 16.2302 29.6651C16.3196 29.569 16.3892 29.4561 16.435 29.3331C16.4808 29.21 16.5018 29.0791 16.497 28.9479C16.4811 28.6852 16.3648 28.4387 16.1721 28.2594C15.9793 28.0801 15.725 27.9819 15.4618 27.9851ZM9.99994 8.49969C9.99994 7.60967 10.2639 6.73965 10.7583 5.99962C11.2528 5.2596 11.9556 4.68283 12.7779 4.34223C13.6001 4.00164 14.5049 3.91252 15.3778 4.08616C16.2508 4.25979 17.0526 4.68837 17.6819 5.31771C18.3113 5.94705 18.7398 6.74887 18.9135 7.62178C19.0871 8.4947 18.998 9.3995 18.6574 10.2218C18.3168 11.044 17.74 11.7468 17 12.2413C16.26 12.7358 15.39 12.9997 14.4999 12.9997C13.3069 12.9984 12.163 12.5239 11.3194 11.6802C10.4758 10.8366 10.0012 9.69276 9.99994 8.49969Z" fill="black"/>
</svg>
