<svg width="32" height="32" viewBox="0 0 32 32" fill="none" xmlns="http://www.w3.org/2000/svg">
<path d="M17.8847 27.9597C12.7773 28.7673 7.00092 27.8815 4.74116 25.9499C4.44513 25.7329 4.20213 25.4516 4.03045 25.1272C3.85877 24.8028 3.76286 24.4437 3.74994 24.0769C3.74994 19.0212 8.44428 14.7497 13.9999 14.7497C15.738 14.7409 17.4514 15.1603 18.9889 15.9709C20.5264 16.7815 21.8406 17.9582 22.8154 19.3972C22.9242 19.5637 23.0946 19.6803 23.2893 19.7211C23.484 19.7619 23.6869 19.7238 23.8535 19.615C24.02 19.5062 24.1365 19.3357 24.1773 19.141C24.2182 18.9464 24.18 18.7434 24.0712 18.5769C22.4906 16.2197 20.1186 14.506 17.3843 13.7458C18.5179 13.0151 19.3847 11.9373 19.8552 10.6733C20.3257 9.40939 20.3748 8.02715 19.995 6.73305C19.6151 5.43894 18.8269 4.30244 17.7479 3.49327C16.6689 2.6841 15.3571 2.2457 14.0084 2.24354C12.6597 2.24138 11.3466 2.67558 10.265 3.48129C9.18342 4.287 8.39152 5.42097 8.00757 6.71385C7.62361 8.00673 7.66821 9.38912 8.13469 10.6546C8.60118 11.92 9.46452 13.0006 10.5958 13.7349C5.82514 15.1169 2.24994 19.2933 2.24994 24.0769C2.26376 24.6601 2.407 25.2329 2.66928 25.7539C2.93157 26.2749 3.30636 26.7312 3.76655 27.0896C5.93744 28.946 10.0908 29.7468 14.0244 29.7468C15.3947 29.7506 16.7634 29.6488 18.1181 29.4422C18.2154 29.4268 18.3088 29.3925 18.3929 29.3411C18.4769 29.2897 18.5501 29.2222 18.608 29.1425C18.666 29.0629 18.7078 28.9726 18.7309 28.8768C18.7539 28.781 18.7579 28.6816 18.7426 28.5842C18.7273 28.4869 18.6929 28.3935 18.6415 28.3095C18.5901 28.2254 18.5227 28.1523 18.443 28.0943C18.3633 28.0363 18.273 27.9946 18.1772 27.9715C18.0814 27.9484 17.982 27.9443 17.8847 27.9597ZM9.249 8.49969C9.249 7.56023 9.52758 6.64186 10.0495 5.86073C10.5715 5.0796 11.3133 4.47078 12.1813 4.11126C13.0492 3.75175 14.0043 3.65768 14.9257 3.84096C15.8471 4.02424 16.6935 4.47663 17.3578 5.14093C18.0221 5.80523 18.4745 6.6516 18.6577 7.57301C18.841 8.49442 18.7469 9.44949 18.3874 10.3174C18.0279 11.1854 17.4191 11.9272 16.638 12.4492C15.8568 12.9711 14.9385 13.2497 13.999 13.2497C12.7397 13.2483 11.5323 12.7474 10.6418 11.8569C9.75133 10.9664 9.25043 9.75903 9.249 8.49969Z" fill="black"/>
<path d="M26.9999 23.2497H18.9999C18.801 23.2497 18.6103 23.3287 18.4696 23.4694C18.329 23.61 18.2499 23.8008 18.2499 23.9997C18.2499 24.1986 18.329 24.3894 18.4696 24.53C18.6103 24.6707 18.801 24.7497 18.9999 24.7497H26.9999C27.1989 24.7497 27.3896 24.6707 27.5303 24.53C27.6709 24.3894 27.7499 24.1986 27.7499 23.9997C27.7499 23.8008 27.6709 23.61 27.5303 23.4694C27.3896 23.3287 27.1989 23.2497 26.9999 23.2497Z" fill="black"/>
</svg>
