<svg width="32" height="32" viewBox="0 0 32 32" fill="none" xmlns="http://www.w3.org/2000/svg">
<path d="M18.5497 12.1904C17.8097 12.6848 16.9397 12.9487 16.0498 12.9487C14.8568 12.9473 13.7131 12.4728 12.8695 11.6293C12.0259 10.7858 11.5514 9.64223 11.55 8.44936C11.55 7.55947 11.8139 6.68957 12.3083 5.94966C12.8028 5.20974 13.5055 4.63305 14.3278 4.29251C15.15 3.95196 16.0547 3.86286 16.9276 4.03647C17.8005 4.21008 18.6023 4.6386 19.2316 5.26784C19.8609 5.89709 20.2894 6.69879 20.4631 7.57158C20.6367 8.44437 20.5476 9.34903 20.207 10.1712C19.8664 10.9933 19.2897 11.696 18.5497 12.1904Z" fill="#0F0F0F"/>
<path d="M6 23.7885C6 19.0181 10.3789 14.95 15.9983 14.95C21.6202 14.95 26 19.0184 26 23.7881C26 24.9879 25.108 26.0484 23.1688 26.8562C21.2666 27.6485 18.6599 28.046 16.0006 28.046H15.9906L15.9807 28.0461C13.596 28.0935 11.2225 27.7055 8.97616 26.9011C7.61369 26.3549 6.8828 25.74 6.49082 25.213C6.10404 24.6931 6 24.196 6 23.7885Z" fill="#0F0F0F"/>
</svg>
