<svg width="32" height="32" viewBox="0 0 32 32" fill="none" xmlns="http://www.w3.org/2000/svg">
<path d="M18.8466 27.7126C13.7988 28.5095 8.11519 27.6501 5.90327 25.7595C5.63571 25.5651 5.41551 25.3129 5.2591 25.0215C5.10268 24.7301 5.01409 24.4072 4.99995 24.0768C4.99995 19.1569 9.57906 14.9997 14.9999 14.9997C16.6966 14.9905 18.3693 15.3993 19.8704 16.1901C21.3714 16.981 22.6546 18.1294 23.6064 19.5339C23.7516 19.7555 23.9788 19.9105 24.2382 19.9647C24.4975 20.0189 24.7678 19.968 24.9896 19.823C25.2114 19.6781 25.3666 19.451 25.4211 19.1917C25.4756 18.9324 25.4249 18.6621 25.2802 18.4401C23.7643 16.1776 21.5291 14.493 18.9365 13.6591C20.0184 12.8354 20.8147 11.693 21.2133 10.393C21.6119 9.09292 21.5928 7.70059 21.1585 6.41199C20.7243 5.12339 19.8969 4.00342 18.7927 3.20974C17.6886 2.41607 16.3633 1.98866 15.0035 1.9877C13.6437 1.98673 12.3179 2.41224 11.2126 3.20434C10.1073 3.99644 9.27832 5.11523 8.84226 6.40321C8.40619 7.69119 8.38504 9.08349 8.78179 10.3841C9.17854 11.6848 9.9732 12.8282 11.0539 13.6535C6.42085 15.1998 2.99991 19.3427 2.99991 24.0768C3.01331 24.6962 3.16411 25.3048 3.44143 25.8588C3.71875 26.4127 4.11565 26.8982 4.60347 27.28C6.82222 29.1755 11.0498 29.9948 15.0419 29.9948C16.4195 29.9989 17.7953 29.8967 19.1572 29.6892C19.287 29.6688 19.4115 29.623 19.5236 29.5545C19.6357 29.486 19.7332 29.3961 19.8105 29.2899C19.8879 29.1837 19.9435 29.0634 19.9744 28.9356C20.0052 28.8079 20.0106 28.6754 19.9902 28.5456C19.9698 28.4158 19.924 28.2913 19.8555 28.1792C19.787 28.0671 19.6971 27.9696 19.5909 27.8923C19.4847 27.8149 19.3644 27.7593 19.2366 27.7284C19.1089 27.6976 18.9764 27.6922 18.8466 27.7126ZM14.999 3.99969C15.889 3.99969 16.7591 4.26361 17.4991 4.75808C18.2391 5.25254 18.8159 5.95535 19.1565 6.77762C19.4971 7.59988 19.5862 8.50468 19.4125 9.3776C19.2389 10.2505 18.8103 11.0523 18.181 11.6817C17.5517 12.311 16.7498 12.7396 15.8769 12.9132C15.004 13.0869 14.0992 12.9977 13.2769 12.6572C12.4547 12.3166 11.7519 11.7398 11.2574 10.9998C10.7629 10.2597 10.499 9.38971 10.499 8.49969C10.5003 7.30662 10.9748 6.16278 11.8185 5.31915C12.6621 4.47552 13.8059 4.001 14.999 3.99969Z" fill="black"/>
<path d="M27.9999 22.9997H19.9999C19.7347 22.9997 19.4804 23.105 19.2928 23.2926C19.1053 23.4801 18.9999 23.7345 18.9999 23.9997C18.9999 24.2649 19.1053 24.5193 19.2928 24.7068C19.4804 24.8943 19.7347 24.9997 19.9999 24.9997H27.9999C28.2652 24.9997 28.5195 24.8943 28.7071 24.7068C28.8946 24.5193 28.9999 24.2649 28.9999 23.9997C28.9999 23.7345 28.8946 23.4801 28.7071 23.2926C28.5195 23.105 28.2652 22.9997 27.9999 22.9997Z" fill="black"/>
</svg>
