<svg xmlns="http://www.w3.org/2000/svg" width="32" height="32" viewBox="0 0 32 32"><path d="M23.5 18C22.3133 18 21.1533 18.3519 20.1666 19.0112C19.1799 19.6705 18.4109 20.6075 17.9567 21.7039C17.5026 22.8003 17.3838 24.0067 17.6153 25.1705C17.8468 26.3344 18.4182 27.4035 19.2574 28.2426C20.0965 29.0818 21.1656 29.6532 22.3295 29.8847C23.4933 30.1162 24.6997 29.9974 25.7961 29.5433C26.8925 29.0892 27.8295 28.3201 28.4888 27.3334C29.1481 26.3467 29.5 25.1867 29.5 24C29.4984 22.4092 28.8658 20.884 27.7409 19.7591C26.616 18.6342 25.0908 18.0016 23.5 18ZM27.5 24C27.4958 24.6942 27.3089 25.375 26.958 25.974L21.431 20.594C22.0526 20.2088 22.7687 20.0032 23.5 20C24.5605 20.0011 25.5773 20.4228 26.3273 21.1727C27.0772 21.9227 27.4989 22.9395 27.5 24ZM19.5 24C19.504 23.307 19.69 22.628 20.04 22.03L25.564 27.409C24.9435 27.792 24.2292 27.9962 23.5 27.999C22.4395 27.9979 21.4227 27.5762 20.6727 26.8263C19.9228 26.0763 19.5011 25.0595 19.5 23.999V24Z M15.462 27.985C10.989 28.142 6.877 27.191 5.233 25.605C5.01075 25.4157 4.83068 25.182 4.70442 24.9188C4.57816 24.6556 4.50852 24.3688 4.5 24.077C4.5 19.157 9.079 15 14.5 15C16.4324 14.9967 18.3284 15.5257 19.98 16.529C20.2059 16.6564 20.4725 16.691 20.7235 16.6256C20.9745 16.5602 21.1902 16.3998 21.3252 16.1783C21.4601 15.9567 21.5037 15.6915 21.4468 15.4384C21.3899 15.1854 21.2368 14.9644 21.02 14.822C20.2143 14.3325 19.3555 13.9366 18.46 13.642C19.5374 12.8144 20.3284 11.6699 20.7218 10.3695C21.1153 9.06912 21.0913 7.67813 20.6534 6.39204C20.2154 5.10595 19.3855 3.98941 18.2802 3.19935C17.1749 2.40929 15.8499 1.98542 14.4913 1.98731C13.1327 1.9892 11.8088 2.41676 10.7057 3.20989C9.60266 4.00303 8.77584 5.12187 8.34148 6.40917C7.90711 7.69647 7.88703 9.08752 8.28407 10.3868C8.6811 11.6861 9.47528 12.8284 10.555 13.653C5.92 15.2 2.5 19.343 2.5 24.077C2.50866 24.6375 2.63253 25.1902 2.86391 25.7008C3.0953 26.2114 3.42925 26.669 3.845 27.045C6.116 29.235 10.663 30.002 14.505 30.002C14.855 30.002 15.199 29.996 15.535 29.983C15.7997 29.9728 16.0495 29.8582 16.2298 29.6642C16.4101 29.4702 16.5062 29.2127 16.497 28.948C16.4811 28.6853 16.3648 28.4388 16.1721 28.2595C15.9794 28.0802 15.7252 27.982 15.462 27.985ZM10 8.5C10 7.30653 10.4741 6.16194 11.318 5.31802C12.1619 4.47411 13.3065 4 14.5 4C15.6935 4 16.8381 4.47411 17.682 5.31802C18.5259 6.16194 19 7.30653 19 8.5C19 9.69348 18.5259 10.8381 17.682 11.682C16.8381 12.5259 15.6935 13 14.5 13C13.3065 13 12.1619 12.5259 11.318 11.682C10.4741 10.8381 10 9.69348 10 8.5Z"/></svg>