<svg xmlns="http://www.w3.org/2000/svg" width="32" height="32" viewBox="0 0 32 32"><path d="M15.9998 12.5002C14.2764 12.5021 12.6242 13.1875 11.4056 14.4061C10.1871 15.6247 9.50164 17.2769 9.49978 19.0002V23.0002C9.49978 24.7241 10.1846 26.3774 11.4036 27.5964C12.6226 28.8154 14.2759 29.5002 15.9998 29.5002C17.7237 29.5002 19.377 28.8154 20.596 27.5964C21.815 26.3774 22.4998 24.7241 22.4998 23.0002V19.0002C22.4977 17.277 21.8122 15.6249 20.5936 14.4064C19.3751 13.1878 17.723 12.5023 15.9998 12.5002ZM21.4738 18.5002H16.4998V13.5252C17.7791 13.6439 18.9766 14.2062 19.8849 15.1148C20.7933 16.0233 21.3554 17.2209 21.4738 18.5002ZM15.4998 13.5252V18.5002H10.5248C10.6432 17.2208 11.2054 16.023 12.114 15.1145C13.0226 14.2059 14.2203 13.6437 15.4998 13.5252ZM15.9998 28.5002C14.5417 28.4984 13.1438 27.9183 12.1127 26.8873C11.0817 25.8562 10.5016 24.4584 10.4998 23.0002V19.5002H21.4998V23.0002C21.4982 24.4584 20.9182 25.8565 19.8871 26.8876C18.856 27.9187 17.458 28.4986 15.9998 28.5002ZM25.3528 6.64723C24.1197 5.35781 22.6657 4.29946 21.0598 3.52223C19.4541 2.84809 17.7298 2.50171 15.9883 2.50342C14.2468 2.50514 12.5232 2.85493 10.9188 3.53223C9.32928 4.32218 7.8849 5.37538 6.64678 6.64723C6.59903 6.69335 6.56094 6.74852 6.53473 6.80953C6.50853 6.87053 6.49474 6.93614 6.49416 7.00253C6.49358 7.06892 6.50623 7.13476 6.53137 7.19621C6.55651 7.25765 6.59364 7.31348 6.64059 7.36043C6.68753 7.40737 6.74336 7.4445 6.80481 7.46964C6.86626 7.49478 6.9321 7.50743 6.99849 7.50685C7.06488 7.50628 7.13049 7.49248 7.19149 7.46628C7.25249 7.44007 7.30766 7.40198 7.35378 7.35423C8.50842 6.17071 9.85172 5.18732 11.3288 4.44423C12.8055 3.82699 14.3899 3.50848 15.9905 3.5071C17.591 3.50573 19.176 3.82152 20.6538 4.43623C22.1471 5.16424 23.4989 6.15233 24.6458 7.35423C24.6919 7.40198 24.7471 7.44007 24.8081 7.46628C24.8691 7.49248 24.9347 7.50628 25.0011 7.50685C25.0675 7.50743 25.1333 7.49478 25.1948 7.46964C25.2562 7.4445 25.312 7.40737 25.359 7.36043C25.4059 7.31348 25.4431 7.25765 25.4682 7.19621C25.4933 7.13476 25.506 7.06892 25.5054 7.00253C25.5048 6.93614 25.491 6.87053 25.4648 6.80953C25.4386 6.74852 25.4005 6.69335 25.3528 6.64723Z M20.0878 8.32584C18.7898 7.77894 17.3952 7.49812 15.9867 7.50001C14.5781 7.5019 13.1843 7.78646 11.8878 8.33684C10.682 8.91357 9.58537 9.69516 8.64678 10.6468C8.59903 10.693 8.56094 10.7481 8.53473 10.8091C8.50853 10.8701 8.49474 10.9357 8.49416 11.0021C8.49358 11.0685 8.50623 11.1344 8.53137 11.1958C8.55651 11.2573 8.59364 11.3131 8.64059 11.36C8.68753 11.407 8.74336 11.4441 8.80481 11.4692C8.86626 11.4944 8.93209 11.507 8.99848 11.5065C9.06487 11.5059 9.13048 11.4921 9.19149 11.4659C9.25249 11.4397 9.30766 11.4016 9.35378 11.3538C10.208 10.487 11.2053 9.77391 12.3018 9.24584C13.4689 8.75978 14.7203 8.50855 15.9846 8.50649C17.2488 8.50443 18.5011 8.75159 19.6698 9.23384C20.7745 9.76722 21.7807 10.484 22.6458 11.3538C22.6922 11.4003 22.7473 11.4371 22.808 11.4622C22.8686 11.4873 22.9336 11.5003 22.9993 11.5003C23.0649 11.5003 23.1299 11.4873 23.1906 11.4622C23.2513 11.4371 23.3064 11.4003 23.3528 11.3538C23.3992 11.3074 23.436 11.2523 23.4612 11.1917C23.4863 11.131 23.4992 11.066 23.4992 11.0003C23.4992 10.9347 23.4863 10.8697 23.4612 10.809C23.436 10.7484 23.3992 10.6933 23.3528 10.6468C22.4043 9.69347 21.3001 8.90889 20.0878 8.32684V8.32584Z"/></svg>