<svg width="32" height="32" viewBox="0 0 32 32" fill="none" xmlns="http://www.w3.org/2000/svg">
<path d="M10 4.50023C9.07209 4.50135 8.1825 4.87046 7.52637 5.52659C6.87023 6.18273 6.50112 7.07232 6.5 8.00023V24.0002C6.5 24.9285 6.86875 25.8187 7.52513 26.4751C8.1815 27.1315 9.07174 27.5002 10 27.5002C10.9283 27.5002 11.8185 27.1315 12.4749 26.4751C13.1313 25.8187 13.5 24.9285 13.5 24.0002V8.00023C13.4989 7.07232 13.1298 6.18273 12.4736 5.52659C11.8175 4.87046 10.9279 4.50135 10 4.50023Z" fill="black"/>
<path d="M21.9995 4.50218C21.0716 4.5033 20.182 4.87241 19.5259 5.52854C18.8697 6.18468 18.5006 7.07427 18.4995 8.00218V24.0022C18.4995 24.9304 18.8683 25.8207 19.5246 26.4771C20.181 27.1334 21.0713 27.5022 21.9995 27.5022C22.9278 27.5022 23.818 27.1334 24.4744 26.4771C25.1308 25.8207 25.4995 24.9304 25.4995 24.0022V8.00218C25.4984 7.07427 25.1293 6.18468 24.4731 5.52854C23.817 4.87241 22.9274 4.5033 21.9995 4.50218Z" fill="black"/>
</svg>
