<svg width="32" height="32" viewBox="0 0 32 32" fill="none" xmlns="http://www.w3.org/2000/svg">
<path d="M10 4.00023C8.93948 4.00136 7.92272 4.42315 7.17282 5.17305C6.42292 5.92295 6.00113 6.93971 6 8.00023V24.0002C6 25.0611 6.42143 26.0785 7.17157 26.8287C7.92172 27.5788 8.93913 28.0002 10 28.0002C11.0609 28.0002 12.0783 27.5788 12.8284 26.8287C13.5786 26.0785 14 25.0611 14 24.0002V8.00023C13.9989 6.93971 13.5771 5.92295 12.8272 5.17305C12.0773 4.42315 11.0605 4.00136 10 4.00023ZM12 24.0002C12 24.5307 11.7893 25.0394 11.4142 25.4144C11.0391 25.7895 10.5304 26.0002 10 26.0002C9.46957 26.0002 8.96086 25.7895 8.58579 25.4144C8.21071 25.0394 8 24.5307 8 24.0002V8.00023C8 7.4698 8.21071 6.96109 8.58579 6.58602C8.96086 6.21094 9.46957 6.00023 10 6.00023C10.5304 6.00023 11.0391 6.21094 11.4142 6.58602C11.7893 6.96109 12 7.4698 12 8.00023V24.0002Z" fill="black"/>
<path d="M21.9995 4.00023C20.939 4.00136 19.9222 4.42315 19.1723 5.17305C18.4224 5.92295 18.0006 6.93971 17.9995 8.00023V24.0002C17.9995 25.0611 18.4209 26.0785 19.1711 26.8287C19.9212 27.5788 20.9386 28.0002 21.9995 28.0002C23.0604 28.0002 24.0778 27.5788 24.8279 26.8287C25.5781 26.0785 25.9995 25.0611 25.9995 24.0002V8.00023C25.9984 6.93971 25.5766 5.92295 24.8267 5.17305C24.0768 4.42315 23.06 4.00136 21.9995 4.00023ZM23.9995 24.0002C23.9995 24.5307 23.7888 25.0394 23.4137 25.4144C23.0387 25.7895 22.5299 26.0002 21.9995 26.0002C21.4691 26.0002 20.9604 25.7895 20.5853 25.4144C20.2102 25.0394 19.9995 24.5307 19.9995 24.0002V8.00023C19.9995 7.4698 20.2102 6.96109 20.5853 6.58602C20.9604 6.21094 21.4691 6.00023 21.9995 6.00023C22.5299 6.00023 23.0387 6.21094 23.4137 6.58602C23.7888 6.96109 23.9995 7.4698 23.9995 8.00023V24.0002Z" fill="black"/>
</svg>
