<svg xmlns="http://www.w3.org/2000/svg" width="32" height="32" viewBox="0 0 32 32"><path d="M27.11 4.88884C26.2198 4.00131 25.0141 3.50293 23.757 3.50293C22.5 3.50293 21.2942 4.00131 20.404 4.88884L3.94001 21.3528C3.79989 21.4916 3.68882 21.6569 3.61328 21.8391C3.53773 22.0212 3.49923 22.2166 3.50001 22.4138V26.9998C3.50028 27.3976 3.6584 27.779 3.93964 28.0602C4.22089 28.3415 4.60227 28.4996 5.00001 28.4998H9.58501C9.78231 28.5002 9.97772 28.4615 10.16 28.386C10.3423 28.3105 10.5078 28.1996 10.647 28.0598L27.11 11.5968C27.5505 11.1565 27.8999 10.6337 28.1382 10.0583C28.3766 9.48288 28.4993 8.86616 28.4993 8.24334C28.4993 7.62051 28.3766 7.00379 28.1382 6.42839C27.8999 5.85299 27.5505 5.33019 27.11 4.88984V4.88884Z"/></svg>