<svg xmlns="http://www.w3.org/2000/svg" width="32" height="32" viewBox="0 0 32 32"><path d="M27.288 4.71281C26.3517 3.7768 25.082 3.25098 23.758 3.25098C22.4341 3.25098 21.1644 3.7768 20.228 4.71281L3.76203 21.1768C3.59888 21.3388 3.46952 21.5315 3.38145 21.7439C3.29339 21.9562 3.24838 22.1839 3.24903 22.4138V26.9998C3.24956 27.4639 3.43424 27.9089 3.76253 28.237C4.09082 28.5651 4.53589 28.7495 5.00003 28.7498H9.58603C9.81592 28.7505 10.0437 28.7055 10.256 28.6175C10.4684 28.5294 10.6611 28.4 10.823 28.2368L27.288 11.7728C28.2226 10.8357 28.7474 9.56626 28.7474 8.24281C28.7474 6.91935 28.2226 5.64991 27.288 4.71281ZM26.228 10.7128L9.76203 27.1768C9.73887 27.2001 9.71128 27.2186 9.68089 27.2312C9.6505 27.2437 9.61791 27.25 9.58503 27.2498H5.00003C4.93381 27.2495 4.87037 27.2231 4.82354 27.1763C4.77672 27.1295 4.75029 27.066 4.75003 26.9998V22.4138C4.74997 22.381 4.75639 22.3484 4.76891 22.318C4.78144 22.2877 4.79983 22.2601 4.82303 22.2368L21.288 5.77381C21.9431 5.11872 22.8316 4.7507 23.758 4.7507C24.6845 4.7507 25.5729 5.11872 26.228 5.77381C26.8831 6.42889 27.2511 7.31738 27.2511 8.24381C27.2511 9.17024 26.8831 10.0587 26.228 10.7138V10.7128Z"/></svg>