<svg width="32" height="32" viewBox="0 0 32 32" fill="none" xmlns="http://www.w3.org/2000/svg">
<path d="M27.1112 4.8894C26.6708 4.44897 26.148 4.0996 25.5726 3.86123C24.9972 3.62287 24.3805 3.50018 23.7577 3.50018C23.1349 3.50018 22.5182 3.62287 21.9428 3.86123C21.3674 4.0996 20.8446 4.44897 20.4042 4.8894L3.9393 21.3537C3.79962 21.4927 3.68888 21.658 3.61347 21.84C3.53807 22.0221 3.4995 22.2173 3.5 22.4143V27C3.50043 27.3977 3.6586 27.779 3.93981 28.0602C4.22103 28.3414 4.60231 28.4996 5 28.5H9.5858C9.78286 28.5005 9.97806 28.4619 10.1601 28.3864C10.3422 28.311 10.5074 28.2002 10.6464 28.0605L27.1112 11.5964C27.9991 10.7062 28.4977 9.50019 28.4977 8.2429C28.4977 6.98561 27.9991 5.77962 27.1112 4.8894ZM26.4042 10.8894L9.9393 27.3537C9.89296 27.4002 9.83787 27.4371 9.7772 27.4623C9.71653 27.4874 9.65148 27.5003 9.5858 27.5002H5C4.86745 27.5 4.74036 27.4473 4.64663 27.3536C4.55289 27.2598 4.50016 27.1328 4.5 27.0002V22.4143C4.50061 22.2818 4.55322 22.1548 4.6465 22.0607L21.1112 5.5964C21.8131 4.8945 22.7651 4.50018 23.7577 4.50018C24.2492 4.50018 24.7359 4.59699 25.19 4.78508C25.6441 4.97317 26.0567 5.24886 26.4042 5.5964C26.7517 5.94394 27.0274 6.35654 27.2155 6.81062C27.4036 7.26471 27.5004 7.7514 27.5004 8.2429C27.5004 8.7344 27.4036 9.22109 27.2155 9.67518C27.0274 10.1293 26.7517 10.5419 26.4042 10.8894Z" fill="black"/>
</svg>
