<svg id="Layer_1" data-name="Layer 1" xmlns="http://www.w3.org/2000/svg" viewBox="0 0 32 32"><defs><style>.cls-1{fill:#0f0f0f;fill-rule:evenodd}</style></defs><path class="cls-1" d="M25.9 6.105A13.986 13.986 0 1030 16a14.016 14.016 0 00-4.1-9.895zM16 23a10.641 10.641 0 01-3.807-.63C10.285 21.61 10 20.41 10 19.761a4.44 4.44 0 012.966-4.183 4 4 0 116.067 0A4.439 4.439 0 0122 19.761C22 22.151 18.767 23 16 23z"/><path class="cls-1" d="M16 15a2 2 0 10-1.414-.587A2.007 2.007 0 0016 15zM16 17c-1.846 0-4 .723-4 2.761 0 .5 1.558 1.238 4 1.238s4-.733 4-1.238C20 17.723 17.846 17 16 17z"/></svg>