<svg width="32" height="32" viewBox="0 0 32 32" xmlns="http://www.w3.org/2000/svg"><path d="M23.764 16.67a5.993 5.993 0 0 0-7.268-9.527c.002-.048.014-.092.014-.14a5 5 0 1 0-8.462 3.594A8.613 8.613 0 0 0 2 18.532c0 1.129.57 2.702 3.287 3.782a16.19 16.19 0 0 0 4.897.97A8.08 8.08 0 0 0 10 24.973c0 1.177.598 2.818 3.442 3.95A18.342 18.342 0 0 0 19.998 30c4.977 0 9.999-1.554 9.999-5.026a9.042 9.042 0 0 0-6.233-8.305ZM20 8.004a4 4 0 0 1 .006 7.999h-.013a4 4 0 0 1 .007-8ZM11.51 4.004a3 3 0 1 1 0 6 3 3 0 0 1 0-6Zm-.637 17.32C7.03 21.205 4 20 4 18.534c0-3.6 3.365-6.528 7.502-6.528.854 0 1.702.13 2.517.386a5.986 5.986 0 0 0 2.214 4.278 9.64 9.64 0 0 0-5.36 4.656ZM19.998 28C15.513 28 12 26.67 12 24.973c0-3.842 3.588-6.97 8-6.97 4.41 0 7.997 3.127 7.997 6.97 0 1.698-3.514 3.027-8 3.027Z"/></svg>