<svg xmlns="http://www.w3.org/2000/svg" width="32" height="32" viewBox="0 0 32 32"><path d="M14.3368 11.8886C14.1171 12.2175 13.9998 12.6041 13.9998 12.9997C14.0004 13.5299 14.2114 14.0382 14.5863 14.4131C14.9612 14.7881 15.4695 14.999 15.9998 14.9997C16.3953 14.9997 16.782 14.8824 17.1109 14.6626C17.4398 14.4429 17.6961 14.1305 17.8475 13.7651C17.9989 13.3996 18.0385 12.9975 17.9613 12.6095C17.8842 12.2216 17.6937 11.8652 17.414 11.5855C17.1343 11.3058 16.7779 11.1153 16.3899 11.0381C16.002 10.961 15.5998 11.0006 15.2344 11.1519C14.8689 11.3033 14.5566 11.5597 14.3368 11.8886Z M11.9998 19.7614C11.9998 20.2663 13.5584 20.9987 15.9998 20.9987C18.4412 20.9987 19.9998 20.2663 19.9998 19.7614C19.9998 17.7233 17.8455 16.9997 15.9998 16.9997C14.1541 16.9997 11.9998 17.7233 11.9998 19.7614Z M8.22178 4.35912C10.5241 2.82078 13.2308 1.99969 15.9998 1.99969C19.7115 2.00386 23.27 3.48019 25.8947 6.1048C28.5193 8.72941 29.9956 12.2879 29.9998 15.9997C29.9998 18.7686 29.1787 21.4754 27.6403 23.7777C26.102 26.08 23.9155 27.8744 21.3573 28.934C18.7992 29.9936 15.9842 30.2709 13.2685 29.7307C10.5528 29.1905 8.0582 27.8571 6.10027 25.8992C4.14233 23.9413 2.80896 21.4467 2.26877 18.731C1.72858 16.0152 2.00582 13.2003 3.06545 10.6421C4.12508 8.08396 5.91949 5.89746 8.22178 4.35912ZM19.9998 12.9997C19.9998 11.9388 19.5783 10.9214 18.8282 10.1713C18.078 9.42112 17.0606 8.99969 15.9998 8.99969C14.9389 8.99969 13.9215 9.42112 13.1713 10.1713C12.4212 10.9214 11.9998 11.9388 11.9998 12.9997C12.0036 13.9469 12.3466 14.8613 12.9665 15.5775C12.0999 15.8823 11.3493 16.4484 10.8179 17.1978C10.2866 17.9471 10.0007 18.8428 9.99976 19.7615C9.99976 20.4099 10.2849 21.6101 12.1931 22.3689C13.413 22.809 14.7031 23.0225 15.9998 22.9988C18.7673 22.9988 21.9998 22.1511 21.9998 19.7615C21.9988 18.8428 21.713 17.9471 21.1816 17.1978C20.6503 16.4484 19.8996 15.8823 19.033 15.5775C19.6529 14.8613 19.9959 13.9469 19.9998 12.9997Z"/></svg>