<svg xmlns="http://www.w3.org/2000/svg" width="32" height="32" viewBox="0 0 32 32"><path d="M16 2.25C13.2805 2.25 10.6221 3.05642 8.36092 4.56729C6.09974 6.07816 4.33737 8.22562 3.29666 10.7381C2.25596 13.2506 1.98366 16.0153 2.51421 18.6825C3.04476 21.3497 4.35432 23.7997 6.27729 25.7227C8.20026 27.6457 10.6503 28.9553 13.3175 29.4858C15.9848 30.0163 18.7494 29.744 21.2619 28.7033C23.7744 27.6626 25.9218 25.9003 27.4327 23.6391C28.9436 21.3779 29.75 18.7195 29.75 16C29.746 12.3545 28.2961 8.85943 25.7183 6.28167C23.1406 3.7039 19.6455 2.25397 16 2.25ZM16 28.25C13.5772 28.25 11.2088 27.5316 9.19427 26.1855C7.17977 24.8395 5.60966 22.9263 4.68248 20.6879C3.75531 18.4495 3.51272 15.9864 3.98539 13.6101C4.45806 11.2339 5.62476 9.05114 7.33795 7.33794C9.05114 5.62475 11.2339 4.45805 13.6102 3.98538C15.9864 3.51271 18.4495 3.7553 20.6879 4.68248C22.9263 5.60965 24.8395 7.17976 26.1855 9.19426C27.5316 11.2088 28.25 13.5772 28.25 16C28.2463 19.2478 26.9545 22.3614 24.658 24.658C22.3615 26.9545 19.2478 28.2463 16 28.25Z M18.613 15.68C19.1482 15.1599 19.516 14.492 19.6694 13.7617C19.8228 13.0314 19.7549 12.2719 19.4742 11.5804C19.1936 10.889 18.713 10.297 18.094 9.88017C17.475 9.46337 16.7457 9.24072 15.9995 9.24072C15.2533 9.24072 14.524 9.46337 13.905 9.88017C13.286 10.297 12.8054 10.889 12.5248 11.5804C12.2441 12.2719 12.1762 13.0314 12.3296 13.7617C12.483 14.492 12.8508 15.1599 13.386 15.68C12.4908 15.9271 11.7005 16.459 11.1347 17.1954C10.5688 17.9317 10.2583 18.8324 10.25 19.761C10.25 20.346 10.514 21.432 12.285 22.136C13.475 22.566 14.735 22.773 16 22.749C18.862 22.749 21.75 21.825 21.75 19.761C21.7415 18.8324 21.4307 17.9319 20.8646 17.1957C20.2986 16.4596 19.5082 15.9278 18.613 15.681V15.68ZM13.75 13C13.7437 12.7006 13.7972 12.4029 13.9074 12.1245C14.0176 11.846 14.1823 11.5924 14.3918 11.3784C14.6013 11.1644 14.8515 10.9944 15.1275 10.8784C15.4036 10.7623 15.7 10.7026 15.9995 10.7026C16.299 10.7026 16.5954 10.7623 16.8715 10.8784C17.1475 10.9944 17.3977 11.1644 17.6072 11.3784C17.8167 11.5924 17.9814 11.846 18.0916 12.1245C18.2018 12.4029 18.2553 12.7006 18.249 13C18.249 13.5967 18.0119 14.169 17.59 14.591C17.168 15.0129 16.5957 15.25 15.999 15.25C15.4023 15.25 14.83 15.0129 14.408 14.591C13.9861 14.169 13.749 13.5967 13.749 13H13.75ZM16 21.249C13.458 21.249 11.75 20.48 11.75 19.761C11.75 17.539 14.039 16.75 16 16.75C17.96 16.75 20.25 17.539 20.25 19.761C20.25 20.481 18.542 21.249 16 21.249Z"/></svg>