<svg width="32" height="32" viewBox="0 0 32 32" fill="none" xmlns="http://www.w3.org/2000/svg">
<path d="M16.05 15.1507C15.2938 14.5747 14.6738 13.8392 14.234 12.9965C13.7942 12.1538 13.5454 11.2246 13.5053 10.2749C13.4652 9.32519 13.6348 8.3783 14.002 7.50154C14.3692 6.62477 14.9251 5.83966 15.63 5.20199C15.35 4.55575 14.9221 3.98434 14.3808 3.53383C13.8394 3.08333 13.1998 2.76634 12.5134 2.60841C11.8271 2.45049 11.1132 2.45606 10.4294 2.62467C9.74561 2.79329 9.111 3.12022 8.57674 3.57912C8.04249 4.03802 7.62354 4.61603 7.35368 5.26657C7.08383 5.9171 6.97061 6.62194 7.02316 7.32426C7.07572 8.02658 7.29257 8.70673 7.65623 9.30985C8.0199 9.91298 8.5202 10.4222 9.1168 10.7965C5.3083 11.7321 2.5 14.84 2.5 18.53C2.5 19.5046 3.0156 20.8708 5.4717 21.8483C6.5422 22.2472 7.65692 22.5155 8.7917 22.6473C9.27797 20.8904 10.1972 19.2835 11.4653 17.9738C12.7333 16.6641 14.3097 15.6934 16.05 15.1507Z" fill="black"/>
<path d="M20 14.5C20.89 14.5 21.76 14.2361 22.5001 13.7416C23.2401 13.2471 23.8169 12.5443 24.1575 11.7221C24.4981 10.8998 24.5872 9.995 24.4135 9.12209C24.2399 8.24917 23.8113 7.44735 23.182 6.81801C22.5526 6.18868 21.7508 5.76009 20.8779 5.58646C20.005 5.41283 19.1002 5.50194 18.2779 5.84254C17.4557 6.18313 16.7529 6.75991 16.2584 7.49993C15.7639 8.23995 15.5 9.10998 15.5 9.99999C15.5014 11.193 15.976 12.3368 16.8196 13.1804C17.6632 14.024 18.807 14.4986 20 14.5Z" fill="black"/>
<path d="M19.9985 16.5014C14.7612 16.5014 10.4995 20.3021 10.4995 24.973C10.4995 25.9955 11.0425 27.4301 13.6274 28.4584C15.6708 29.19 17.8305 29.543 20.0005 29.5C24.729 29.5 29.5005 28.1006 29.5005 24.9726C29.5005 20.3021 25.2378 16.5014 19.9985 16.5014Z" fill="black"/>
</svg>
