<svg width="32" height="32" viewBox="0 0 32 32" fill="none" xmlns="http://www.w3.org/2000/svg">
<path d="M14.0001 26.9996H16.0001C16.2653 26.9996 16.5197 26.8943 16.7072 26.7068C16.8948 26.5192 17.0001 26.2649 17.0001 25.9996C17.0001 25.7344 16.8948 25.4801 16.7072 25.2925C16.5197 25.105 16.2653 24.9996 16.0001 24.9996H14.0001C13.7349 24.9996 13.4806 25.105 13.293 25.2925C13.1055 25.4801 13.0001 25.7344 13.0001 25.9996C13.0001 26.2649 13.1055 26.5192 13.293 26.7068C13.4806 26.8943 13.7349 26.9996 14.0001 26.9996Z" fill="black"/>
<path d="M24.0001 16.9996C23.8688 16.9996 23.7387 17.0254 23.6173 17.0756C23.496 17.1258 23.3857 17.1995 23.2928 17.2924C23.2 17.3852 23.1263 17.4955 23.0761 17.6169C23.0259 17.7382 23 17.8683 23.0001 17.9996V21.9996H7.00012V6.99965C7.00099 6.20426 7.31734 5.44171 7.87976 4.87929C8.44218 4.31687 9.20474 4.00052 10.0001 3.99965H18.0001C18.2653 3.99965 18.5197 3.89429 18.7072 3.70675C18.8948 3.51922 19.0001 3.26486 19.0001 2.99965C19.0001 2.73443 18.8948 2.48008 18.7072 2.29254C18.5197 2.105 18.2653 1.99965 18.0001 1.99965H10.0001C8.67452 2.0012 7.40365 2.52849 6.46631 3.46583C5.52896 4.40318 5.00168 5.67404 5.00012 6.99965V24.9996C5.00168 26.3253 5.52896 27.5961 6.46631 28.5335C7.40365 29.4708 8.67452 29.9981 10.0001 29.9996H20.0001C21.3257 29.9981 22.5966 29.4708 23.5339 28.5335C24.4713 27.5961 24.9986 26.3253 25.0001 24.9996V17.9996C25.0002 17.8683 24.9744 17.7382 24.9242 17.6169C24.8739 17.4955 24.8003 17.3852 24.7074 17.2924C24.6145 17.1995 24.5043 17.1258 24.3829 17.0756C24.2615 17.0254 24.1315 16.9996 24.0001 16.9996ZM23.0001 24.9996C22.9993 25.795 22.6829 26.5576 22.1205 27.12C21.5581 27.6824 20.7955 27.9988 20.0001 27.9996H10.0001C9.20474 27.9988 8.44218 27.6824 7.87976 27.12C7.31734 26.5576 7.00099 25.795 7.00012 24.9996V23.9996H23.0001V24.9996Z" fill="black"/>
<path d="M22.2501 7.442V8.74965C22.2501 8.94856 22.3291 9.13933 22.4698 9.27998C22.6104 9.42063 22.8012 9.49965 23.0001 9.49965C23.199 9.49965 23.3898 9.42063 23.5305 9.27998C23.6711 9.13933 23.7501 8.94856 23.7501 8.74965V7.442C23.7501 7.24308 23.6711 7.05232 23.5305 6.91167C23.3898 6.77102 23.199 6.692 23.0001 6.692C22.8012 6.692 22.6104 6.77102 22.4698 6.91167C22.3291 7.05232 22.2501 7.24308 22.2501 7.442Z" fill="black"/>
<path d="M23.0001 12C23.4143 12 23.7501 11.6642 23.7501 11.25C23.7501 10.8357 23.4143 10.5 23.0001 10.5C22.5858 10.5 22.2501 10.8357 22.2501 11.25C22.2501 11.6642 22.5858 12 23.0001 12Z" fill="black"/>
<path d="M29.7384 12.0114L24.752 3.00942L24.7403 2.98988C24.5633 2.68648 24.3096 2.43504 24.0046 2.26087C23.6996 2.0867 23.354 1.99594 23.0028 1.99772C22.6516 1.9995 22.307 2.09377 22.0038 2.27102C21.7006 2.44828 21.4494 2.70228 21.2755 3.00746L16.2725 11.9918C16.0955 12.2959 16.0017 12.6412 16.0007 12.993C15.9996 13.3448 16.0914 13.6907 16.2667 13.9958C16.442 14.3008 16.6946 14.5542 16.9991 14.7305C17.3036 14.9067 17.6492 14.9996 18.0011 14.9996H27.9991C28.349 14.9996 28.6928 14.9078 28.9962 14.7334C29.2995 14.5589 29.5518 14.3079 29.7278 14.0055C29.9038 13.7031 29.9974 13.3598 29.9993 13.0099C30.0011 12.6599 29.9112 12.3156 29.7384 12.0114ZM18.0109 12.9821L23.0109 3.99379L27.9991 12.9996L18.0109 12.9821Z" fill="black"/>
</svg>
