<svg xmlns="http://www.w3.org/2000/svg" width="32" height="32" viewBox="0 0 32 32"><path d="M4.41303 15.9999L10.707 9.70692C10.8892 9.51832 10.99 9.26571 10.9877 9.00352C10.9854 8.74132 10.8803 8.49051 10.6948 8.3051C10.5094 8.11969 10.2586 8.01452 9.99643 8.01224C9.73424 8.00997 9.48163 8.11076 9.29303 8.29292L2.29303 15.2929C2.10573 15.4803 2.00043 15.7343 2.00024 15.9992C2.00006 16.2641 2.105 16.5183 2.29203 16.7059L9.27903 23.7059C9.41841 23.8467 9.5965 23.9429 9.79068 23.9822C9.98486 24.0216 10.1863 24.0023 10.3695 23.9268C10.5527 23.8514 10.7093 23.7231 10.8195 23.5585C10.9296 23.3938 10.9883 23.2 10.988 23.0019C10.9881 22.8704 10.9622 22.7403 10.912 22.6188C10.8617 22.4973 10.788 22.3869 10.695 22.2939L4.41303 15.9999Z M19 15.0001H12.414L17.707 9.70708C17.8025 9.61483 17.8787 9.50449 17.9311 9.38249C17.9835 9.26048 18.0111 9.12926 18.0123 8.99648C18.0134 8.8637 17.9881 8.73202 17.9379 8.60913C17.8876 8.48623 17.8133 8.37458 17.7194 8.28069C17.6255 8.18679 17.5139 8.11254 17.391 8.06226C17.2681 8.01198 17.1364 7.98668 17.0036 7.98783C16.8709 7.98898 16.7396 8.01657 16.6176 8.06898C16.4956 8.12139 16.3853 8.19757 16.293 8.29308L9.29303 15.2931C9.10556 15.4806 9.00024 15.7349 9.00024 16.0001C9.00024 16.2652 9.10556 16.5196 9.29303 16.7071L16.293 23.7071C16.4816 23.8892 16.7342 23.99 16.9964 23.9878C17.2586 23.9855 17.5094 23.8803 17.6948 23.6949C17.8803 23.5095 17.9854 23.2587 17.9877 22.9965C17.99 22.7343 17.8892 22.4817 17.707 22.2931L12.414 17.0001H19C21.3862 17.0027 23.6738 17.9518 25.3611 19.639C27.0483 21.3263 27.9974 23.6139 28 26.0001C28 26.2653 28.1054 26.5197 28.2929 26.7072C28.4805 26.8947 28.7348 27.0001 29 27.0001C29.2652 27.0001 29.5196 26.8947 29.7071 26.7072C29.8947 26.5197 30 26.2653 30 26.0001C29.9966 23.0838 28.8366 20.2879 26.7744 18.2257C24.7122 16.1636 21.9164 15.0035 19 15.0001Z"/></svg>