<svg width="32" height="32" viewBox="0 0 32 32" fill="none" xmlns="http://www.w3.org/2000/svg">
<path d="M18.208 15.2499H4.81055L10.5303 9.53016C10.6709 9.38952 10.7499 9.19878 10.7499 8.99988C10.7499 8.80099 10.6709 8.61025 10.5303 8.46961C10.3896 8.32897 10.1989 8.24996 10 8.24996C9.80111 8.24996 9.61036 8.32897 9.46973 8.46961L2.46973 15.4696C2.40007 15.5392 2.34481 15.6219 2.30711 15.7129C2.26941 15.8039 2.25 15.9014 2.25 15.9999C2.25 16.0984 2.26941 16.1959 2.30711 16.2869C2.34481 16.3779 2.40007 16.4605 2.46973 16.5302L9.46973 23.5302C9.61036 23.6708 9.80111 23.7498 10 23.7498C10.1989 23.7498 10.3896 23.6708 10.5303 23.5302C10.6709 23.3895 10.7499 23.1988 10.7499 22.9999C10.7499 22.801 10.6709 22.6102 10.5303 22.4696L4.81055 16.7499H18.208C23.5576 16.7499 28.25 21.0721 28.25 25.9999C28.25 26.1988 28.329 26.3896 28.4697 26.5302C28.6103 26.6709 28.8011 26.7499 29 26.7499C29.1989 26.7499 29.3897 26.6709 29.5303 26.5302C29.671 26.3896 29.75 26.1988 29.75 25.9999C29.75 20.2733 24.3564 15.2499 18.208 15.2499Z" fill="black"/>
</svg>
