<svg width="32" height="32" viewBox="0 0 32 32" fill="none" xmlns="http://www.w3.org/2000/svg">
<path d="M18.208 15.2501H4.81095L10.531 9.53006C10.6675 9.38854 10.743 9.19906 10.7412 9.00241C10.7394 8.80576 10.6604 8.61769 10.5213 8.4787C10.3822 8.33971 10.1941 8.26092 9.9974 8.2593C9.80075 8.25769 9.61134 8.33337 9.46995 8.47006L2.46995 15.4701C2.3295 15.6107 2.25061 15.8013 2.25061 16.0001C2.25061 16.1988 2.3295 16.3894 2.46995 16.5301L9.46995 23.5301C9.61213 23.6625 9.80017 23.7347 9.99447 23.7312C10.1888 23.7278 10.3742 23.6491 10.5116 23.5117C10.649 23.3743 10.7277 23.1889 10.7311 22.9946C10.7346 22.8003 10.6624 22.6122 10.53 22.4701L4.80995 16.7501H18.208C23.558 16.7501 28.25 21.0721 28.25 26.0001C28.25 26.199 28.329 26.3897 28.4696 26.5304C28.6103 26.671 28.801 26.7501 29 26.7501C29.1989 26.7501 29.3896 26.671 29.5303 26.5304C29.6709 26.3897 29.75 26.199 29.75 26.0001C29.75 20.2731 24.356 15.2501 18.208 15.2501V15.2501Z" fill="#0F0F0F"/>
</svg>
