<svg xmlns="http://www.w3.org/2000/svg" width="32" height="32" viewBox="0 0 32 32"><path d="M14 26.5H16C16.1326 26.5 16.2598 26.4473 16.3536 26.3536C16.4473 26.2598 16.5 26.1326 16.5 26C16.5 25.8674 16.4473 25.7402 16.3536 25.6464C16.2598 25.5527 16.1326 25.5 16 25.5H14C13.8674 25.5 13.7402 25.5527 13.6464 25.6464C13.5527 25.7402 13.5 25.8674 13.5 26C13.5 26.1326 13.5527 26.2598 13.6464 26.3536C13.7402 26.4473 13.8674 26.5 14 26.5Z M24 17.5C23.8675 17.5003 23.7404 17.553 23.6467 17.6467C23.553 17.7404 23.5003 17.8675 23.5 18V22.5H6.5V7C6.50106 6.07207 6.87015 5.18244 7.5263 4.5263C8.18244 3.87015 9.07207 3.50106 10 3.5H18C18.1326 3.5 18.2598 3.44732 18.3536 3.35355C18.4473 3.25979 18.5 3.13261 18.5 3C18.5 2.86739 18.4473 2.74021 18.3536 2.64645C18.2598 2.55268 18.1326 2.5 18 2.5H10C8.80693 2.50132 7.66311 2.97585 6.81948 3.81948C5.97585 4.66311 5.50132 5.80693 5.5 7V25C5.50132 26.1931 5.97585 27.3369 6.81948 28.1805C7.66311 29.0241 8.80693 29.4987 10 29.5H20C21.193 29.4984 22.3367 29.0238 23.1802 28.1802C24.0238 27.3367 24.4984 26.193 24.5 25V18C24.5005 17.9011 24.4714 17.8043 24.4165 17.722C24.3617 17.6397 24.2835 17.5756 24.192 17.538C24.1311 17.5128 24.0659 17.4999 24 17.5ZM23.5 25C23.4989 25.9279 23.1299 26.8176 22.4737 27.4737C21.8176 28.1299 20.9279 28.4989 20 28.5H10C9.07215 28.4987 8.18268 28.1295 7.52659 27.4734C6.8705 26.8173 6.50132 25.9279 6.5 25V23.5H23.5V25ZM23 6.942C22.8674 6.942 22.7402 6.99468 22.6464 7.08845C22.5527 7.18221 22.5 7.30939 22.5 7.442V8.75C22.5 8.88261 22.5527 9.00979 22.6464 9.10355C22.7402 9.19732 22.8674 9.25 23 9.25C23.1326 9.25 23.2598 9.19732 23.3536 9.10355C23.4473 9.00979 23.5 8.88261 23.5 8.75V7.442C23.5004 7.37623 23.4877 7.31103 23.4628 7.25019C23.4378 7.18935 23.4009 7.13407 23.3544 7.08756C23.3079 7.04105 23.2527 7.00424 23.1918 6.97925C23.131 6.95426 23.0658 6.9416 23 6.942ZM23 11.75C23.1326 11.75 23.2598 11.6973 23.3536 11.6036C23.4473 11.5098 23.5 11.3826 23.5 11.25C23.5 11.1174 23.4473 10.9902 23.3536 10.8964C23.2598 10.8027 23.1326 10.75 23 10.75C22.8674 10.75 22.7402 10.8027 22.6464 10.8964C22.5527 10.9902 22.5 11.1174 22.5 11.25C22.5 11.3826 22.5527 11.5098 22.6464 11.6036C22.7402 11.6973 22.8674 11.75 23 11.75Z M29.2999 12.2538L24.3149 3.25177L24.3089 3.24177C24.1764 3.01468 23.9864 2.82644 23.7581 2.69591C23.5299 2.56537 23.2713 2.49714 23.0083 2.49806C22.7454 2.49897 22.4873 2.56899 22.2599 2.7011C22.0326 2.83321 21.8439 3.02277 21.7129 3.25077L16.7049 12.2438C16.5719 12.4717 16.5014 12.7307 16.5005 12.9947C16.4996 13.2586 16.5684 13.5181 16.6998 13.747C16.8313 13.9758 17.0208 14.1659 17.2493 14.2981C17.4777 14.4303 17.737 14.4998 18.0009 14.4998H27.9999C28.2629 14.4999 28.5213 14.4309 28.7492 14.2996C28.977 14.1684 29.1664 13.9796 29.2983 13.7521C29.4302 13.5245 29.5 13.2664 29.5006 13.0034C29.5012 12.7404 29.4327 12.4819 29.3019 12.2538H29.2999ZM28.4329 13.2488C28.3898 13.3256 28.3267 13.3894 28.2503 13.4334C28.1739 13.4774 28.0871 13.5 27.9989 13.4988H18.0009C17.9128 13.5 17.826 13.4774 17.7496 13.4334C17.6732 13.3894 17.6101 13.3256 17.5669 13.2488C17.5218 13.1711 17.4985 13.0827 17.4995 12.9929C17.5006 12.9031 17.5259 12.8153 17.5729 12.7388L22.5809 3.74577C22.6248 3.67072 22.6875 3.6084 22.7628 3.56497C22.838 3.52153 22.9234 3.49847 23.0103 3.49807C23.0972 3.49766 23.1827 3.51993 23.2584 3.56266C23.3341 3.6054 23.3974 3.66713 23.4419 3.74177L28.4319 12.7478C28.4767 12.8235 28.5003 12.9098 28.5003 12.9978C28.5003 13.0857 28.4767 13.1721 28.4319 13.2478L28.4329 13.2488Z"/></svg>