<svg width="32" height="32" viewBox="0 0 32 32" fill="none" xmlns="http://www.w3.org/2000/svg">
<path d="M14.0001 26.7497H16.0001C16.199 26.7497 16.3898 26.6706 16.5305 26.53C16.6711 26.3893 16.7501 26.1986 16.7501 25.9997C16.7501 25.8007 16.6711 25.61 16.5305 25.4693C16.3898 25.3287 16.199 25.2497 16.0001 25.2497H14.0001C13.8012 25.2497 13.6104 25.3287 13.4698 25.4693C13.3291 25.61 13.2501 25.8007 13.2501 25.9997C13.2501 26.1986 13.3291 26.3893 13.4698 26.53C13.6104 26.6706 13.8012 26.7497 14.0001 26.7497Z" fill="black"/>
<path d="M24.0001 17.2497C23.8012 17.2497 23.6105 17.3287 23.4698 17.4694C23.3292 17.61 23.2502 17.8008 23.2501 17.9997V22.2497H6.75012V6.99965C6.75112 6.138 7.09385 5.31193 7.70312 4.70265C8.3124 4.09338 9.13847 3.75065 10.0001 3.74965H18.0001C18.199 3.74965 18.3898 3.67063 18.5305 3.52998C18.6711 3.38933 18.7501 3.19856 18.7501 2.99965C18.7501 2.80074 18.6711 2.60997 18.5305 2.46932C18.3898 2.32867 18.199 2.24965 18.0001 2.24965H10.0001C8.74078 2.25108 7.53343 2.75198 6.64294 3.64247C5.75246 4.53296 5.25155 5.74031 5.25012 6.99965V24.9997C5.25155 26.259 5.75246 27.4663 6.64294 28.3568C7.53343 29.2473 8.74078 29.7482 10.0001 29.7497H20.0001C21.2595 29.7482 22.4668 29.2473 23.3573 28.3568C24.2478 27.4663 24.7487 26.259 24.7501 24.9997V17.9997C24.7501 17.8008 24.671 17.61 24.5304 17.4694C24.3898 17.3287 24.199 17.2497 24.0001 17.2497ZM23.2501 24.9997C23.2491 25.8613 22.9064 26.6874 22.2971 27.2966C21.6878 27.9059 20.8618 28.2487 20.0001 28.2497H10.0001C9.13847 28.2487 8.3124 27.9059 7.70312 27.2966C7.09385 26.6874 6.75112 25.8613 6.75012 24.9997V23.7497H23.2501V24.9997Z" fill="black"/>
<path d="M23.0001 6.692C22.8012 6.69205 22.6105 6.77109 22.4698 6.91173C22.3292 7.05237 22.2502 7.2431 22.2501 7.442V8.74965C22.2501 8.94856 22.3291 9.13933 22.4698 9.27998C22.6104 9.42063 22.8012 9.49965 23.0001 9.49965C23.199 9.49965 23.3898 9.42063 23.5305 9.27998C23.6711 9.13933 23.7501 8.94856 23.7501 8.74965V7.442C23.7501 7.24311 23.671 7.05237 23.5304 6.91173C23.3898 6.77109 23.199 6.69205 23.0001 6.692Z" fill="black"/>
<path d="M23.0001 12C23.4143 12 23.7501 11.6642 23.7501 11.25C23.7501 10.8357 23.4143 10.5 23.0001 10.5C22.5858 10.5 22.2501 10.8357 22.2501 11.25C22.2501 11.6642 22.5858 12 23.0001 12Z" fill="black"/>
<path d="M29.5197 12.1325L24.5333 3.13046L24.5245 3.11581C24.3698 2.85056 24.148 2.6307 23.8814 2.47831C23.6148 2.32592 23.3128 2.24638 23.0057 2.24767C22.6987 2.24895 22.3973 2.33103 22.132 2.48564C21.8667 2.64026 21.6468 2.86197 21.4943 3.12851L16.4884 12.1178C16.3334 12.3838 16.2514 12.686 16.2505 12.9939C16.2496 13.3017 16.3299 13.6044 16.4833 13.8713C16.6367 14.1383 16.8578 14.36 17.1243 14.5142C17.3908 14.6684 17.6932 14.7496 18.0011 14.7496H27.9991C28.3056 14.7497 28.6067 14.6692 28.8723 14.5164C29.1379 14.3635 29.3587 14.1436 29.5127 13.8786C29.6666 13.6137 29.7483 13.3129 29.7495 13.0065C29.7507 12.7 29.6715 12.3987 29.5197 12.1325ZM28.2159 13.1237C28.1948 13.1625 28.1634 13.1948 28.1252 13.217C28.087 13.2392 28.0434 13.2505 27.9991 13.2497H18.0011C17.957 13.2507 17.9134 13.2396 17.8752 13.2175C17.837 13.1955 17.8055 13.1634 17.7843 13.1247C17.7608 13.0844 17.749 13.0383 17.7504 12.9917C17.7518 12.9451 17.7662 12.8998 17.7921 12.861L22.797 3.87172C22.8189 3.83439 22.85 3.80335 22.8874 3.78162C22.9248 3.75989 22.9672 3.74821 23.0105 3.74772C23.0538 3.74723 23.0964 3.75794 23.1343 3.77881C23.1722 3.79969 23.204 3.83001 23.2267 3.86684L28.215 12.8737C28.2381 12.9112 28.2504 12.9544 28.2506 12.9985C28.2507 13.0426 28.2388 13.0859 28.2159 13.1237Z" fill="black"/>
</svg>
