<svg width="32" height="32" viewBox="0 0 32 32" fill="none" xmlns="http://www.w3.org/2000/svg">
<path d="M16.9998 25.5002H14.9998C14.8671 25.5002 14.74 25.5529 14.6462 25.6467C14.5524 25.7405 14.4998 25.8676 14.4998 26.0002C14.4998 26.1328 14.5524 26.26 14.6462 26.3538C14.74 26.4476 14.8671 26.5002 14.9998 26.5002H16.9998C17.1324 26.5002 17.2595 26.4476 17.3533 26.3538C17.4471 26.26 17.4998 26.1328 17.4998 26.0002C17.4998 25.8676 17.4471 25.7405 17.3533 25.6467C17.2595 25.5529 17.1324 25.5002 16.9998 25.5002Z" fill="black"/>
<path d="M24.9998 18.5041C24.9341 18.5041 24.869 18.517 24.8084 18.5421C24.7477 18.5672 24.6926 18.6041 24.6461 18.6505C24.5997 18.6969 24.5629 18.7521 24.5377 18.8128C24.5126 18.8734 24.4997 18.9385 24.4998 19.0041V22.5002H7.49976V7.00024C7.50088 6.07233 7.86999 5.18274 8.52612 4.52661C9.18226 3.87047 10.0718 3.50136 10.9998 3.50024H14.9998C15.1324 3.50024 15.2595 3.44756 15.3533 3.35379C15.4471 3.26003 15.4998 3.13285 15.4998 3.00024C15.4998 2.86763 15.4471 2.74045 15.3533 2.64669C15.2595 2.55292 15.1324 2.50024 14.9998 2.50024H10.9998C9.80668 2.50154 8.66284 2.97606 7.81921 3.81969C6.97558 4.66333 6.50106 5.80716 6.49976 7.00024V25.0002C6.50106 26.1933 6.97558 27.3371 7.81921 28.1808C8.66284 29.0244 9.80668 29.4989 10.9998 29.5002H20.9998C22.1928 29.4989 23.3367 29.0244 24.1803 28.1808C25.0239 27.3371 25.4985 26.1933 25.4998 25.0002V19.0041C25.4998 18.9385 25.4869 18.8734 25.4618 18.8128C25.4367 18.7521 25.3998 18.6969 25.3534 18.6505C25.307 18.6041 25.2518 18.5672 25.1911 18.5421C25.1305 18.517 25.0654 18.5041 24.9998 18.5041ZM20.9998 28.5002H10.9998C10.0718 28.4991 9.18226 28.13 8.52612 27.4739C7.86999 26.8177 7.50088 25.9282 7.49976 25.0002V23.5002H24.4998V25.0002C24.4986 25.9282 24.1295 26.8177 23.4734 27.4739C22.8173 28.13 21.9277 28.4991 20.9998 28.5002Z" fill="black"/>
<path d="M23.0144 2.49731C21.7288 2.49731 20.4721 2.87853 19.4032 3.59276C18.3343 4.30699 17.5011 5.32215 17.0092 6.50987C16.5172 7.69759 16.3885 9.00452 16.6393 10.2654C16.8901 11.5263 17.5092 12.6845 18.4182 13.5935C19.3272 14.5025 20.4854 15.1216 21.7463 15.3724C23.0072 15.6232 24.3141 15.4945 25.5018 15.0025C26.6896 14.5106 27.7047 13.6774 28.4189 12.6085C29.1332 11.5396 29.5144 10.2829 29.5144 8.99731C29.5124 7.27401 28.8269 5.62187 27.6084 4.40332C26.3898 3.18476 24.7377 2.4993 23.0144 2.49731ZM23.0144 3.49731C24.3862 3.49942 25.7077 4.01348 26.7204 4.93884C27.733 5.8642 28.3638 7.13422 28.4892 8.50024H17.5396C17.665 7.13422 18.2958 5.8642 19.3084 4.93884C20.3211 4.01348 21.6426 3.49942 23.0144 3.49731ZM23.0144 14.4973C21.6436 14.4952 20.3229 13.982 19.3104 13.0578C18.298 12.1337 17.6667 10.8652 17.5399 9.50024H28.4889C28.3621 10.8652 27.7308 12.1337 26.7184 13.0578C25.7059 13.982 24.3852 14.4952 23.0144 14.4973Z" fill="black"/>
</svg>
