<svg width="32" height="32" viewBox="0 0 32 32" fill="none" xmlns="http://www.w3.org/2000/svg">
<path d="M18.2079 15.4999H4.20695L10.3535 9.3534C10.4007 9.30715 10.4382 9.252 10.464 9.19115C10.4897 9.13029 10.5031 9.06493 10.5035 8.99885C10.5038 8.93277 10.491 8.86729 10.4659 8.80617C10.4408 8.74506 10.4038 8.68954 10.3571 8.64281C10.3103 8.59609 10.2548 8.55909 10.1937 8.53395C10.1326 8.50882 10.0671 8.49605 10.001 8.49639C9.93494 8.49672 9.86958 8.51015 9.80872 8.5359C9.74787 8.56165 9.69272 8.59921 9.64647 8.6464L2.64647 15.6464C2.60003 15.6928 2.5632 15.7479 2.53807 15.8086C2.51294 15.8692 2.5 15.9342 2.5 15.9999C2.5 16.0656 2.51294 16.1306 2.53807 16.1912C2.5632 16.2519 2.60003 16.307 2.64647 16.3534L9.64647 23.3534C9.74054 23.4456 9.8672 23.4969 9.99892 23.4963C10.1306 23.4956 10.2568 23.443 10.3499 23.3498C10.4431 23.2567 10.4957 23.1306 10.4963 22.9989C10.497 22.8671 10.4457 22.7405 10.3535 22.6464L4.20695 16.4999H18.2079C23.6904 16.4999 28.4999 20.9393 28.4999 25.9999C28.4999 26.1325 28.5526 26.2597 28.6464 26.3534C28.7402 26.4472 28.8673 26.4999 28.9999 26.4999C29.1326 26.4999 29.2597 26.4472 29.3535 26.3534C29.4473 26.2597 29.4999 26.1325 29.4999 25.9999C29.4999 20.4061 24.2236 15.4999 18.2079 15.4999Z" fill="black"/>
</svg>
