<svg width="32" height="32" viewBox="0 0 32 32" fill="none" xmlns="http://www.w3.org/2000/svg">
<path d="M14.9999 25.2504C14.801 25.2504 14.6102 25.3295 14.4696 25.4701C14.3289 25.6108 14.2499 25.8015 14.2499 26.0004C14.2499 26.1993 14.3289 26.3901 14.4696 26.5308C14.6102 26.6714 14.801 26.7504 14.9999 26.7504H16.9999C17.1988 26.7504 17.3896 26.6714 17.5303 26.5308C17.6709 26.3901 17.7499 26.1993 17.7499 26.0004C17.7499 25.8015 17.6709 25.6108 17.5303 25.4701C17.3896 25.3295 17.1988 25.2504 16.9999 25.2504H14.9999Z" fill="black"/>
<path d="M20.9999 28.2504H10.9999C10.1383 28.2494 9.3122 27.9067 8.70293 27.2974C8.09365 26.6881 7.75092 25.8621 7.74992 25.0004V23.7504H20.5693L19.0693 22.2504H7.74992V10.9311L6.24992 9.4311V25.0004C6.25135 26.2598 6.75225 27.4671 7.64274 28.3576C8.53323 29.2481 9.74058 29.749 10.9999 29.7504H20.9999C21.7206 29.748 22.4311 29.5808 23.0772 29.2616C23.7233 28.9424 24.2878 28.4796 24.7276 27.9088L23.6674 26.8486C23.3692 27.2805 22.9708 27.6337 22.5062 27.8778C22.0416 28.122 21.5248 28.2498 20.9999 28.2504Z" fill="black"/>
<path d="M29.5302 28.4702L25.7499 24.6899V7.00043C25.7485 5.74109 25.2476 4.53374 24.3571 3.64325C23.4666 2.75276 22.2593 2.25186 20.9999 2.25043H10.9999C10.0122 2.25369 9.05012 2.56537 8.2481 3.14192C7.44609 3.71848 6.84417 4.53113 6.52641 5.46637L3.53019 2.47016C3.38975 2.33019 3.19957 2.25156 3.00128 2.2515C2.803 2.25144 2.61277 2.32994 2.47224 2.46982C2.3317 2.60971 2.25232 2.79958 2.25147 2.99786C2.25062 3.19614 2.32837 3.38668 2.46769 3.52777L2.46969 3.5307L28.4697 29.5307C28.5392 29.6007 28.6219 29.6564 28.713 29.6944C28.8041 29.7324 28.9018 29.7521 29.0005 29.7523C29.0992 29.7524 29.197 29.7331 29.2883 29.6954C29.3795 29.6577 29.4624 29.6024 29.5322 29.5326C29.602 29.4628 29.6573 29.3799 29.695 29.2887C29.7327 29.1975 29.752 29.0997 29.7518 29.001C29.7516 28.9023 29.732 28.8046 29.694 28.7135C29.6559 28.6224 29.6002 28.5397 29.5302 28.4702ZM24.2499 23.1899L7.77842 6.71839C7.84725 5.91054 8.21616 5.15777 8.81244 4.6084C9.40873 4.05904 10.1891 3.75293 10.9999 3.75039H20.9999C21.8616 3.75139 22.6876 4.09412 23.2969 4.7034C23.9062 5.31267 24.2489 6.13874 24.2499 7.00039V23.1899Z" fill="black"/>
</svg>
