<svg width="32" height="32" viewBox="0 0 32 32" fill="none" xmlns="http://www.w3.org/2000/svg">
<path d="M17.0001 25.4997H15.0001C14.8675 25.4997 14.7403 25.5523 14.6466 25.6461C14.5528 25.7399 14.5001 25.867 14.5001 25.9997C14.5001 26.1323 14.5528 26.2594 14.6466 26.3532C14.7403 26.447 14.8675 26.4997 15.0001 26.4997H17.0001C17.1327 26.4997 17.2599 26.447 17.3537 26.3532C17.4474 26.2594 17.5001 26.1323 17.5001 25.9997C17.5001 25.867 17.4474 25.7399 17.3537 25.6461C17.2599 25.5523 17.1327 25.4997 17.0001 25.4997Z" fill="black"/>
<path d="M21.0001 2.49965H11.0001C9.80705 2.50095 8.66321 2.97547 7.81958 3.8191C6.97594 4.66274 6.50142 5.80657 6.50012 6.99965V24.9997C6.50142 26.1927 6.97594 27.3366 7.81958 28.1802C8.66321 29.0238 9.80705 29.4984 11.0001 29.4997H21.0001C22.1932 29.4983 23.337 29.0238 24.1807 28.1802C25.0243 27.3366 25.4988 26.1927 25.5001 24.9997V6.99965C25.4988 5.80658 25.0243 4.66274 24.1807 3.81911C23.337 2.97548 22.1932 2.50095 21.0001 2.49965ZM11.0001 3.49965H21.0001C21.928 3.50077 22.8176 3.86988 23.4738 4.52602C24.1299 5.18215 24.499 6.07174 24.5001 6.99965V22.4997H7.50012V6.99965C7.50124 6.07174 7.87035 5.18215 8.52649 4.52602C9.18262 3.86988 10.0722 3.50077 11.0001 3.49965ZM21.0001 28.4997H11.0001C10.0722 28.4985 9.18262 28.1294 8.52649 27.4733C7.87035 26.8171 7.50124 25.9276 7.50012 24.9997V23.4997H24.5001V24.9997C24.499 25.9276 24.1299 26.8171 23.4738 27.4733C22.8176 28.1294 21.928 28.4985 21.0001 28.4997Z" fill="black"/>
</svg>
