<svg width="32" height="32" viewBox="0 0 32 32" fill="none" xmlns="http://www.w3.org/2000/svg">
<path d="M3.7065 15.9999L10.353 9.3534C10.4002 9.30715 10.4377 9.252 10.4635 9.19115C10.4892 9.13029 10.5027 9.06493 10.503 8.99885C10.5033 8.93277 10.4906 8.86729 10.4654 8.80617C10.4403 8.74506 10.4033 8.68954 10.3566 8.64281C10.3099 8.59609 10.2543 8.55909 10.1932 8.53395C10.1321 8.50882 10.0666 8.49605 10.0005 8.49639C9.93445 8.49672 9.8691 8.51015 9.80824 8.5359C9.74739 8.56165 9.69224 8.59921 9.64599 8.6464L2.64599 15.6464C2.59955 15.6928 2.56271 15.7479 2.53758 15.8086C2.51245 15.8692 2.49951 15.9342 2.49951 15.9999C2.49951 16.0656 2.51245 16.1306 2.53758 16.1912C2.56271 16.2519 2.59955 16.307 2.64599 16.3534L9.63329 23.3534C9.72736 23.4456 9.85402 23.4969 9.98574 23.4963C10.1175 23.4956 10.2436 23.443 10.3367 23.3498C10.4299 23.2567 10.4825 23.1306 10.4832 22.9989C10.4838 22.8671 10.4325 22.7405 10.3403 22.6464L3.7065 15.9999Z" fill="black"/>
<path d="M18.9995 15.4999H11.2065L17.353 9.3534C17.4452 9.25932 17.4965 9.13266 17.4959 9.00095C17.4952 8.86923 17.4426 8.74309 17.3494 8.64995C17.2563 8.55681 17.1302 8.50419 16.9984 8.50353C16.8667 8.50286 16.7401 8.55421 16.646 8.6464L9.64599 15.6464C9.59955 15.6928 9.56271 15.7479 9.53758 15.8086C9.51245 15.8692 9.49951 15.9342 9.49951 15.9999C9.49951 16.0656 9.51245 16.1306 9.53758 16.1912C9.56271 16.2519 9.59955 16.307 9.64599 16.3534L16.646 23.3534C16.7401 23.4456 16.8667 23.4969 16.9984 23.4963C17.1302 23.4956 17.2563 23.443 17.3494 23.3498C17.4426 23.2567 17.4952 23.1306 17.4959 22.9989C17.4965 22.8671 17.4452 22.7405 17.353 22.6464L11.2065 16.4999H18.9995C21.5182 16.5028 23.9329 17.5046 25.7139 19.2856C27.4948 21.0665 28.4966 23.4812 28.4995 25.9999C28.4995 26.1325 28.5522 26.2597 28.6459 26.3535C28.7397 26.4472 28.8669 26.4999 28.9995 26.4999C29.1321 26.4999 29.2593 26.4472 29.3531 26.3535C29.4468 26.2597 29.4995 26.1325 29.4995 25.9999C29.4965 23.2161 28.3892 20.5471 26.4208 18.5786C24.4523 16.6101 21.7833 15.5029 18.9995 15.4999Z" fill="black"/>
</svg>
