<svg xmlns="http://www.w3.org/2000/svg" width="32" height="32" viewBox="0 0 32 32"><path d="M22.6468 20.6469L15.9998 27.2929L9.35378 20.6469C9.30766 20.5991 9.25249 20.561 9.19149 20.5348C9.13048 20.5086 9.06487 20.4948 8.99848 20.4943C8.93209 20.4937 8.86626 20.5063 8.80481 20.5315C8.74336 20.5566 8.68753 20.5937 8.64059 20.6407C8.59364 20.6876 8.55651 20.7435 8.53137 20.8049C8.50623 20.8664 8.49358 20.9322 8.49416 20.9986C8.49474 21.065 8.50853 21.1306 8.53473 21.1916C8.56094 21.2526 8.59903 21.3078 8.64678 21.3539L15.6468 28.3539C15.7405 28.4476 15.8677 28.5003 16.0003 28.5003C16.1329 28.5003 16.26 28.4476 16.3538 28.3539L23.3538 21.3539C23.4135 21.2962 23.4578 21.2245 23.4827 21.1453C23.5076 21.0661 23.5124 20.9819 23.4965 20.9004C23.4806 20.8189 23.4445 20.7427 23.3917 20.6787C23.3388 20.6147 23.2708 20.5649 23.1938 20.5339C23.1017 20.4962 23.0005 20.4867 22.903 20.5069C22.8056 20.527 22.7164 20.5758 22.6468 20.6469ZM9.35378 11.3539L15.9998 4.70688L22.6468 11.3539C22.6932 11.4003 22.7483 11.4371 22.809 11.4623C22.8696 11.4874 22.9346 11.5003 23.0003 11.5003C23.0659 11.5003 23.1309 11.4874 23.1916 11.4623C23.2523 11.4371 23.3074 11.4003 23.3538 11.3539C23.4002 11.3075 23.437 11.2523 23.4622 11.1917C23.4873 11.131 23.5002 11.066 23.5002 11.0004C23.5002 10.9347 23.4873 10.8697 23.4622 10.8091C23.437 10.7484 23.4002 10.6933 23.3538 10.6469L16.3538 3.64688C16.26 3.55315 16.1329 3.50049 16.0003 3.50049C15.8677 3.50049 15.7405 3.55315 15.6468 3.64688L8.64678 10.6469C8.55571 10.7412 8.50531 10.8675 8.50645 10.9986C8.50759 11.1297 8.56017 11.2551 8.65287 11.3478C8.74558 11.4405 8.87099 11.4931 9.00208 11.4942C9.13318 11.4954 9.25948 11.445 9.35378 11.3539Z"/></svg>