<svg xmlns="http://www.w3.org/2000/svg" width="32" height="32" viewBox="0 0 32 32"><path d="M17 4.04094V14.9999H27.959C27.479 9.16994 22.829 4.52194 17 4.04094ZM15 3.50094C15 2.68494 15.67 1.97694 16.538 2.01094C23.843 2.28694 29.713 8.15694 29.99 15.4609C29.9971 15.6608 29.9638 15.8601 29.8921 16.0468C29.8204 16.2336 29.7117 16.4039 29.5726 16.5476C29.4334 16.6913 29.2667 16.8054 29.0824 16.8832C28.8981 16.9609 28.7 17.0006 28.5 16.9999H16.5C15.664 16.9999 15 16.3169 15 15.4969V3.50094Z M12.943 4.35019C12.9867 4.47403 13.0057 4.60527 12.9987 4.73642C12.9917 4.86756 12.9589 4.99605 12.9023 5.11454C12.8456 5.23303 12.7662 5.3392 12.6685 5.42699C12.5709 5.51478 12.4568 5.58247 12.333 5.62619C8.06 7.13619 5 11.2122 5 16.0002C5 22.0752 9.925 27.0002 16 27.0002C20.788 27.0002 24.864 23.9402 26.374 19.6672C26.4623 19.4171 26.6464 19.2123 26.8857 19.0979C27.0042 19.0413 27.1326 19.0085 27.2638 19.0015C27.3949 18.9946 27.5262 19.0135 27.65 19.0572C27.7738 19.1009 27.8878 19.1686 27.9855 19.2564C28.0832 19.3442 28.1626 19.4504 28.2193 19.5689C28.2759 19.6873 28.3087 19.8158 28.3157 19.947C28.3226 20.0781 28.3037 20.2094 28.26 20.3332C26.476 25.3812 21.662 29.0002 16 29.0002C8.82 29.0002 3 23.1802 3 16.0002C3 10.3382 6.619 5.52419 11.667 3.74019C11.7908 3.69645 11.9221 3.67754 12.0532 3.68452C12.1844 3.6915 12.3129 3.72425 12.4313 3.7809C12.5498 3.83754 12.656 3.91697 12.7438 4.01465C12.8316 4.11234 12.8993 4.22635 12.943 4.35019Z"/></svg>