<svg width="32" height="32" viewBox="0 0 32 32" fill="none" xmlns="http://www.w3.org/2000/svg">
<path fill-rule="evenodd" clip-rule="evenodd" d="M16.5 3.50981L16.5 15.497C16.5 15.4979 16.5001 15.498 16.5001 15.4981C16.5003 15.4984 16.5007 15.4992 16.5015 15.5C16.5015 15.5 16.5015 15.4999 16.5015 15.5L28.4902 15.5C28.2344 8.99428 23.0057 3.76556 16.5 3.50981ZM15.5 3.5014C15.5 2.95521 15.9469 2.48814 16.5196 2.50982C23.5624 2.7765 29.2235 8.43757 29.4902 15.4804C29.5118 16.0512 29.0481 16.5 28.5 16.5H16.5C15.9438 16.5 15.5 16.0453 15.5 15.497L15.5 3.5014Z" fill="black"/>
<path fill-rule="evenodd" clip-rule="evenodd" d="M12.4714 4.5162C12.5634 4.77656 12.427 5.06222 12.1666 5.15424C7.69938 6.73319 4.5 10.9936 4.5 16C4.5 22.3513 9.64873 27.5 16 27.5C21.0064 27.5 25.2668 24.3006 26.8458 19.8334C26.9378 19.573 27.2234 19.4366 27.4838 19.5286C27.7442 19.6206 27.8806 19.9063 27.7886 20.1666C26.0728 25.0209 21.4434 28.5 16 28.5C9.09644 28.5 3.5 22.9036 3.5 16C3.5 10.5566 6.97908 5.92715 11.8334 4.2114C12.0937 4.11938 12.3794 4.25584 12.4714 4.5162Z" fill="black"/>
</svg>
