<svg xmlns="http://www.w3.org/2000/svg" width="32" height="32" viewBox="0 0 32 32"><path d="M25.409 21.5572C25.3933 22.2492 25.23 22.9186 24.9498 23.5375L29.7055 28.2934C30.0961 28.6841 30.0961 29.3169 29.7055 29.7076C29.5102 29.9028 29.2543 30.0005 28.9985 30.0005C28.7427 30.0005 28.4868 29.9028 28.2915 29.7076L2.29152 3.70705C1.90092 3.31635 1.90082 2.68355 2.29152 2.29295C2.68222 1.90235 3.31502 1.90235 3.70562 2.29295L8.46482 7.05215C10.3103 6.22085 12.5223 6.52055 13.999 7.99725L18.249 3.48725C19.209 2.52725 20.469 2.00725 21.799 2.00725C23.139 2.00725 24.389 2.52725 25.339 3.46725L28.539 6.68725C30.489 8.63725 30.489 11.8073 28.539 13.7572L23.979 18.0273C24.949 18.9473 25.449 20.2072 25.409 21.5572ZM3.57897 14.4275C2.79897 13.6475 2.79897 12.3775 3.57897 11.5975L5.43097 9.66406L22.3282 26.5618L20.339 28.4377C19.969 28.8177 19.459 29.0077 18.959 29.0077C18.439 29.0077 17.929 28.8077 17.539 28.4177L11.272 22.1372L3.70617 29.7079C3.51087 29.9032 3.25447 30.0009 2.99867 30.0009C2.74287 30.0009 2.48697 29.9032 2.29167 29.7079C1.90107 29.3182 1.90107 28.6844 2.29117 28.2938L9.85897 20.721L3.57897 14.4275Z"/></svg>