<svg xmlns="http://www.w3.org/2000/svg" width="32" height="32" viewBox="0 0 32 32"><path d="M29 20H19C18.7348 20 18.4804 20.1054 18.2929 20.2929C18.1054 20.4804 18 20.7348 18 21C18 21.2652 18.1054 21.5196 18.2929 21.7071C18.4804 21.8946 18.7348 22 19 22H29C29.2652 22 29.5196 21.8946 29.7071 21.7071C29.8946 21.5196 30 21.2652 30 21C30 20.7348 29.8946 20.4804 29.7071 20.2929C29.5196 20.1054 29.2652 20 29 20ZM29 24H19C18.7348 24 18.4804 24.1054 18.2929 24.2929C18.1054 24.4804 18 24.7348 18 25C18 25.2652 18.1054 25.5196 18.2929 25.7071C18.4804 25.8946 18.7348 26 19 26H29C29.2652 26 29.5196 25.8946 29.7071 25.7071C29.8946 25.5196 30 25.2652 30 25C30 24.7348 29.8946 24.4804 29.7071 24.2929C29.5196 24.1054 29.2652 24 29 24ZM29 28H19C18.7348 28 18.4804 28.1054 18.2929 28.2929C18.1054 28.4804 18 28.7348 18 29C18 29.2652 18.1054 29.5196 18.2929 29.7071C18.4804 29.8946 18.7348 30 19 30H29C29.2652 30 29.5196 29.8946 29.7071 29.7071C29.8946 29.5196 30 29.2652 30 29C30 28.7348 29.8946 28.4804 29.7071 28.2929C29.5196 28.1054 29.2652 28 29 28Z M5.01294 12.9951L8.34294 9.5151C8.89304 8.94007 9.64871 8.60662 10.4443 8.58788C11.2398 8.56913 12.0104 8.86661 12.5869 9.4151C12.7753 9.60109 12.9985 9.74807 13.2438 9.84761C13.489 9.94715 13.7515 9.99729 14.0162 9.99515C14.2809 9.99301 14.5426 9.93864 14.7862 9.83516C15.0298 9.73167 15.2506 9.58111 15.4359 9.3921L19.6809 4.8821C20.2439 4.32095 21.0062 4.00568 21.801 4.0053C22.5959 4.00493 23.3585 4.31948 23.9219 4.8801L27.1219 8.1001C27.6809 8.6586 27.9969 9.41505 28.0014 10.2052C28.0059 10.9953 27.6985 11.7553 27.1459 12.3201L22.9289 16.2651C22.7353 16.4464 22.6217 16.6971 22.6129 16.9622C22.6042 17.2273 22.7012 17.485 22.8824 17.6786C23.0637 17.8722 23.3145 17.9859 23.5796 17.9946C23.8446 18.0033 24.1023 17.9064 24.2959 17.7251L28.5359 13.7571C29.4734 12.8201 30.0003 11.549 30.0007 10.2235C30.0011 8.89802 29.4749 7.62666 28.5379 6.6891L25.3379 3.4681C24.3945 2.53041 23.1173 2.00585 21.7871 2.00979C20.4569 2.01373 19.1828 2.54584 18.2449 3.4891L13.9999 8.0001C13.527 7.54233 12.9685 7.18222 12.3563 6.94035C11.7441 6.69848 11.0903 6.57958 10.4322 6.59044C9.77408 6.60131 9.12454 6.74172 8.5207 7.00367C7.91686 7.26562 7.37053 7.64397 6.91294 8.1171L3.58294 11.5991C3.20959 11.9746 3.00001 12.4826 3.00001 13.0121C3.00001 13.5416 3.20959 14.0496 3.58294 14.4251L9.85994 20.7201L2.29194 28.2931C2.10978 28.4817 2.00899 28.7343 2.01127 28.9965C2.01355 29.2587 2.11872 29.5095 2.30412 29.6949C2.48953 29.8803 2.74034 29.9855 3.00254 29.9878C3.26474 29.9901 3.51734 29.8893 3.70594 29.7071L11.2719 22.1361L14.2929 25.1641C14.3851 25.2597 14.4953 25.3361 14.6172 25.3886C14.7391 25.4412 14.8703 25.469 15.0031 25.4703C15.1359 25.4717 15.2676 25.4465 15.3905 25.3964C15.5135 25.3463 15.6253 25.2722 15.7193 25.1785C15.8133 25.0847 15.8877 24.9732 15.9382 24.8504C15.9886 24.7275 16.0141 24.5959 16.0131 24.4631C16.0122 24.3303 15.9848 24.1991 15.9326 24.077C15.8803 23.9549 15.8043 23.8445 15.7089 23.7521L5.01294 12.9951Z"/></svg>