<svg width="32" height="32" viewBox="0 0 32 32" fill="none" xmlns="http://www.w3.org/2000/svg">
<path d="M18.9501 27.0021L5.01361 12.9953L6.84155 11.0842L5.42713 9.6698L3.58394 11.5969C3.20896 11.9717 2.99819 12.48 2.998 13.0102C2.99782 13.5404 3.20822 14.0489 3.58294 14.424L9.86101 20.7196L2.29294 28.2931C2.19914 28.3858 2.12457 28.496 2.07354 28.6176C2.02251 28.7392 1.99603 28.8696 1.99561 29.0015C1.99519 29.1333 2.02085 29.2639 2.07111 29.3858C2.12137 29.5077 2.19523 29.6184 2.28845 29.7116C2.38167 29.8049 2.49241 29.8787 2.61429 29.929C2.73617 29.9793 2.86678 30.0049 2.99862 30.0045C3.13046 30.0041 3.26091 29.9776 3.38247 29.9266C3.50404 29.8756 3.61431 29.801 3.70694 29.7072L11.2731 22.1357L17.5351 28.4152C17.9069 28.787 18.4101 28.9975 18.9359 29.0011C19.4617 29.0048 19.9677 28.8013 20.3447 28.4347L22.3216 26.5643L20.9072 25.1499L18.9501 27.0021Z" fill="black"/>
<path d="M29.7069 28.2931L24.9533 23.5395C25.2386 22.9176 25.3956 22.2446 25.415 21.5607C25.4356 20.9021 25.3206 20.2463 25.0772 19.634C24.8338 19.0216 24.4671 18.4659 23.9999 18.0012L28.5371 13.757C29.473 12.8191 29.9989 11.5483 29.9992 10.2232C29.9996 8.89819 29.4745 7.62708 28.5391 6.68864L25.3378 3.468C24.8711 3.00342 24.3173 2.63542 23.7082 2.38503C23.099 2.13465 22.4465 2.0068 21.788 2.0088C21.1294 2.01079 20.4777 2.1426 19.8701 2.39667C19.2625 2.65074 18.711 3.02209 18.247 3.48949L13.9999 7.9992C13.2838 7.29693 12.3703 6.83007 11.3816 6.66109C10.3929 6.4921 9.37617 6.62904 8.46741 7.05359L3.70694 2.29315C3.51902 2.10759 3.26532 2.00391 3.00123 2.00474C2.73713 2.00558 2.48409 2.11086 2.29735 2.29761C2.11061 2.48436 2.00533 2.73741 2.00451 3.0015C2.00368 3.2656 2.10737 3.5193 2.29294 3.70721L28.2929 29.7072C28.4809 29.8928 28.7346 29.9965 28.9987 29.9956C29.2628 29.9948 29.5158 29.8895 29.7025 29.7027C29.8893 29.516 29.9946 29.2629 29.9954 28.9989C29.9962 28.7348 29.8925 28.4811 29.7069 28.2931ZM10.5576 8.58612C10.9337 8.5834 11.3067 8.65517 11.655 8.79731C12.0033 8.93944 12.32 9.14911 12.5869 9.41424C12.7751 9.6001 12.9982 9.74698 13.2433 9.84647C13.4885 9.94596 13.7508 9.9961 14.0153 9.99401C14.2799 9.99193 14.5414 9.93766 14.7849 9.83431C15.0285 9.73097 15.2492 9.58059 15.4345 9.39178L19.6816 4.882C20.2441 4.32031 21.0064 4.00467 21.8013 4.00429C22.5962 4.00392 23.3588 4.31885 23.9218 4.88L27.123 8.10071C27.6825 8.65866 27.9989 9.41509 28.0033 10.2053C28.0077 10.9954 27.6997 11.7553 27.1464 12.3195L22.6103 16.5626L22.5869 16.5861C22.4011 16.7717 22.2537 16.9922 22.1532 17.2348C22.0527 17.4774 22.0009 17.7375 22.0009 18.0001C22.0009 18.2628 22.0527 18.5228 22.1532 18.7654C22.2537 19.0081 22.4011 19.2285 22.5869 19.4142C22.8611 19.6883 23.0762 20.0159 23.2186 20.3765C23.3611 20.7372 23.4279 21.1233 23.415 21.5109C23.4078 21.6577 23.3902 21.8039 23.3622 21.9483L10.0498 8.636C10.2174 8.60528 10.3872 8.58859 10.5576 8.58612Z" fill="black"/>
</svg>
