<svg width="32" height="32" viewBox="0 0 32 32" xmlns="http://www.w3.org/2000/svg">
<g>
<path d="M4.6438 13.3652C4.5972 13.3179 4.56042 13.2618 4.53558 13.2002C4.51074 13.1385 4.49833 13.0726 4.49905 13.0062C4.49978 12.9398 4.51363 12.8741 4.53981 12.8131C4.56599 12.752 4.60398 12.6967 4.6516 12.6504L7.9895 9.1621C8.63333 8.49374 9.5158 8.10777 10.4436 8.08874C11.3714 8.0697 12.269 8.41915 12.9397 9.06054C13.0802 9.20006 13.2469 9.31047 13.4302 9.38546C13.6135 9.46044 13.8098 9.49853 14.0078 9.49753C14.2059 9.49653 14.4018 9.45647 14.5843 9.37964C14.7668 9.30281 14.9324 9.19072 15.0715 9.04979L19.3274 4.52929C19.9845 3.87458 20.8742 3.50689 21.8018 3.5067C22.7294 3.50651 23.6192 3.87385 24.2766 4.52829L27.4758 7.74802C28.1303 8.40219 28.499 9.28899 28.5012 10.2144C28.5034 11.1397 28.1389 12.0283 27.4875 12.6855L23.2708 16.6308C23.2228 16.6757 23.1841 16.7296 23.157 16.7894C23.1299 16.8493 23.1148 16.9138 23.1126 16.9795C23.1104 17.0451 23.1212 17.1106 23.1443 17.1721C23.1674 17.2336 23.2024 17.2899 23.2473 17.3379C23.2922 17.3858 23.3461 17.4245 23.4059 17.4516C23.4657 17.4787 23.5303 17.4938 23.596 17.496C23.6616 17.4982 23.7271 17.4874 23.7886 17.4643C23.85 17.4412 23.9064 17.4062 23.9543 17.3613L28.1829 13.4043C28.6007 12.9866 28.9322 12.4908 29.1584 11.945C29.3847 11.3992 29.5011 10.8142 29.5012 10.2234C29.5013 9.63255 29.385 9.04751 29.159 8.50164C28.933 7.95578 28.6016 7.45979 28.1839 7.042L24.9846 3.82226C24.1377 2.9786 22.9903 2.5058 21.7949 2.50782C20.5994 2.50983 19.4537 2.98649 18.6096 3.833L14.3538 8.35351C14.2596 8.44643 14.1326 8.49852 14.0003 8.49852C13.8679 8.49852 13.741 8.44643 13.6468 8.35351C12.7868 7.52394 11.6328 7.06953 10.4381 7.09003C9.2434 7.11054 8.10567 7.60429 7.27468 8.46288L3.93676 11.9512C3.65635 12.2328 3.49884 12.6141 3.49865 13.0115C3.49846 13.409 3.65562 13.7903 3.93576 14.0723L10.5672 20.7213L2.64672 28.6475C2.59953 28.6937 2.56197 28.7489 2.53622 28.8097C2.51047 28.8706 2.49704 28.9359 2.49671 29.002C2.49638 29.0681 2.50915 29.1336 2.53428 29.1947C2.55941 29.2558 2.59641 29.3113 2.64314 29.358C2.68986 29.4048 2.74539 29.4418 2.8065 29.4669C2.86761 29.492 2.9331 29.5048 2.99918 29.5045C3.06526 29.5041 3.13061 29.4907 3.19147 29.465C3.25233 29.4392 3.30747 29.4016 3.35372 29.3545L11.2733 21.4292L14.6477 24.8125C14.694 24.8594 14.7492 24.8968 14.81 24.9224C14.8708 24.948 14.9361 24.9613 15.002 24.9616C15.068 24.9619 15.1334 24.9491 15.1944 24.924C15.2555 24.8989 15.3109 24.862 15.3577 24.8155C15.4044 24.7689 15.4414 24.7135 15.4667 24.6525C15.4919 24.5916 15.5049 24.5262 15.5048 24.4602C15.5047 24.3943 15.4916 24.329 15.4662 24.2681C15.4407 24.2072 15.4035 24.1519 15.3567 24.1055L4.6438 13.3652Z"/>
<path d="M20.5 26C22.433 26 24 24.433 24 22.5C24 20.567 22.433 19 20.5 19C18.567 19 17 20.567 17 22.5C17 24.433 18.567 26 20.5 26Z" fill="#0352A6"/>
</g>
</svg>
