<svg width="32" height="32" viewBox="0 0 32 32" fill="none" xmlns="http://www.w3.org/2000/svg">
<path d="M19.1269 27.1779C19.0799 27.2245 19.0165 27.2507 18.9503 27.2509C18.8842 27.2511 18.8206 27.2252 18.7734 27.1789L4.82119 13.1877C4.79743 13.1632 4.77884 13.1342 4.76653 13.1024C4.75422 13.0706 4.74844 13.0367 4.74953 13.0026C4.75063 12.9685 4.75857 12.935 4.7729 12.904C4.78722 12.8731 4.80763 12.8453 4.83291 12.8224L7.18325 10.3654L6.1224 9.30456L3.76064 11.7736C3.4329 12.1017 3.24872 12.5465 3.24854 13.0102C3.24835 13.474 3.43216 13.9189 3.75964 14.2472L10.2142 20.7198L2.46963 28.4699C2.39958 28.5395 2.34394 28.6221 2.30592 28.7132C2.26789 28.8043 2.24823 28.902 2.24805 29.0007C2.24787 29.0995 2.26718 29.1972 2.30487 29.2885C2.34256 29.3797 2.39789 29.4626 2.46769 29.5324C2.53749 29.6022 2.62038 29.6575 2.71162 29.6952C2.80285 29.7329 2.90062 29.7522 2.99933 29.752C3.09804 29.7518 3.19575 29.7322 3.28684 29.6942C3.37793 29.6561 3.46062 29.6005 3.53017 29.5304L11.2733 21.7819L17.7118 28.2385C17.875 28.4017 18.0689 28.5311 18.2822 28.6192C18.4955 28.7074 18.7242 28.7525 18.955 28.7521C19.1808 28.7532 19.4046 28.7097 19.6136 28.624C19.8226 28.5384 20.0126 28.4124 20.1727 28.2531L22.6897 25.8719L21.6287 24.8109L19.1269 27.1779Z" fill="black"/>
<path d="M24.6409 23.5807C24.9627 22.9519 25.1416 22.2598 25.1649 21.5539C25.1844 20.9292 25.0754 20.3072 24.8448 19.7263C24.6142 19.1454 24.2668 18.6181 23.8241 18.1769C23.7783 18.131 23.752 18.0691 23.7509 18.0042C23.7498 17.9394 23.774 17.8766 23.8183 17.8292L28.3603 13.5802C29.2504 12.6897 29.7505 11.4823 29.7509 10.2232C29.7513 8.96414 29.2518 7.75641 28.3623 6.86538L25.1611 3.64468C24.7187 3.20247 24.1933 2.85199 23.615 2.61335C23.0368 2.37472 22.4172 2.25262 21.7916 2.25407C21.1661 2.25552 20.547 2.3805 19.9699 2.62182C19.3928 2.86314 18.869 3.21605 18.4287 3.66031L14.1776 8.175C14.1305 8.2216 14.0669 8.24782 14.0006 8.24801C13.9343 8.24819 13.8706 8.22233 13.8231 8.176C13.1222 7.49225 12.224 7.04622 11.2556 6.901C10.2872 6.75579 9.2977 6.91873 8.42702 7.3668L3.53017 2.46991C3.38936 2.33012 3.19888 2.25183 3.00046 2.25219C2.80205 2.25255 2.61186 2.33153 2.47156 2.47184C2.33125 2.61214 2.25227 2.80233 2.25191 3.00074C2.25155 3.19916 2.32984 3.38964 2.46963 3.53045L28.4696 29.5304C28.5392 29.6005 28.6219 29.6561 28.713 29.6942C28.804 29.7322 28.9018 29.7518 29.0005 29.752C29.0992 29.7522 29.1969 29.7329 29.2882 29.6952C29.3794 29.6575 29.4623 29.6022 29.5321 29.5324C29.6019 29.4626 29.6572 29.3797 29.6949 29.2885C29.7326 29.1972 29.7519 29.0995 29.7517 29.0007C29.7516 28.902 29.7319 28.8043 29.6939 28.7132C29.6559 28.6221 29.6002 28.5395 29.5302 28.4699L24.6409 23.5807ZM9.5659 8.50567C9.88575 8.39854 10.2202 8.34136 10.5575 8.33612C10.9665 8.33332 11.372 8.41152 11.7506 8.56623C12.1292 8.72093 12.4735 8.94907 12.7635 9.23748C12.9279 9.40006 13.1228 9.52862 13.3369 9.61579C13.5511 9.70296 13.7803 9.74704 14.0116 9.7455C14.2428 9.74396 14.4714 9.69682 14.6844 9.6068C14.8974 9.51678 15.0905 9.38564 15.2527 9.22088L19.5047 4.70526C20.1238 4.11538 20.9461 3.78618 21.8012 3.78581C22.6563 3.78543 23.4789 4.11392 24.0985 4.70326L27.2997 7.924C27.9063 8.53028 28.2485 9.35182 28.2518 10.2094C28.2551 11.0671 27.9192 11.8912 27.3173 12.5021L22.7811 16.7453L22.7636 16.7629C22.4357 17.0912 22.2516 17.5362 22.2516 18.0002C22.2516 18.4641 22.4357 18.9092 22.7636 19.2375C23.0617 19.5356 23.2955 19.8916 23.4506 20.2837C23.6056 20.6757 23.6786 21.0954 23.6649 21.5168C23.6526 21.8297 23.5958 22.1392 23.4965 22.4362L9.5659 8.50567Z" fill="black"/>
</svg>
