<svg width="32" height="32" viewBox="0 0 32 32" xmlns="http://www.w3.org/2000/svg">
<g>
<path d="M5.01295 12.9952L8.34305 9.51473C8.89313 8.93967 9.64877 8.60617 10.4443 8.58732C11.2399 8.56846 12.0105 8.86579 12.5872 9.41414C12.7755 9.6 12.9987 9.74689 13.2439 9.84637C13.4891 9.94586 13.7516 9.996 14.0162 9.99391C14.2808 9.99182 14.5424 9.93756 14.786 9.83422C15.0296 9.73087 15.2504 9.58049 15.4358 9.39168L19.6809 4.8819C20.2438 4.32064 21.0062 4.0053 21.8011 4.00492C22.596 4.00455 23.3587 4.31917 23.9221 4.8799L27.1223 8.10061C27.681 8.65903 27.9968 9.41529 28.0012 10.2052C28.0056 10.995 27.6982 11.7548 27.1458 12.3194L22.929 16.2647C22.833 16.3544 22.7557 16.4622 22.7015 16.5819C22.6472 16.7015 22.617 16.8307 22.6127 16.962C22.6083 17.0933 22.6299 17.2242 22.6761 17.3472C22.7223 17.4701 22.7923 17.5828 22.8821 17.6787C22.9719 17.7747 23.0796 17.852 23.1993 17.9062C23.3189 17.9605 23.4481 17.9907 23.5794 17.995C23.7107 17.9994 23.8416 17.9778 23.9646 17.9316C24.0876 17.8854 24.2002 17.8154 24.2962 17.7256L28.5364 13.7569C29.474 12.8198 30.0009 11.5487 30.0013 10.2231C30.0016 8.89756 29.4754 7.62614 28.5384 6.68854L25.3381 3.4679C24.3947 2.53025 23.1174 2.00576 21.7873 2.00979C20.4572 2.01382 19.1831 2.54604 18.2454 3.48939L14.0003 7.9991C13.5273 7.54141 12.9687 7.18138 12.3566 6.93957C11.7444 6.69775 11.0906 6.57889 10.4325 6.58978C9.77443 6.60066 9.12492 6.74107 8.52109 7.00299C7.91727 7.26491 7.37095 7.64321 6.91334 8.11629L3.58234 11.5977C3.20893 11.9732 2.99933 12.4813 2.99933 13.0108C2.99933 13.5404 3.20893 14.0484 3.58234 14.4239L9.86139 20.7196L2.29323 28.293C2.20038 28.3859 2.12673 28.4961 2.07648 28.6174C2.02623 28.7387 2.00037 28.8688 2.00037 29.0001C2.00037 29.1314 2.02623 29.2614 2.07648 29.3827C2.12673 29.504 2.20038 29.6143 2.29323 29.7071C2.38608 29.8 2.4963 29.8736 2.61762 29.9239C2.73893 29.9741 2.86895 30 3.00026 30C3.13157 30 3.26159 29.9741 3.3829 29.9239C3.50421 29.8736 3.61444 29.8 3.70729 29.7071L11.2736 22.1355L14.2942 25.1641C14.3868 25.2578 14.4969 25.3323 14.6183 25.3833C14.7398 25.4343 14.8701 25.4608 15.0018 25.4613C15.1335 25.4618 15.264 25.4363 15.3858 25.3862C15.5076 25.3361 15.6183 25.2624 15.7116 25.1694C15.8049 25.0764 15.8788 24.9659 15.9292 24.8443C15.9797 24.7226 16.0056 24.5921 16.0054 24.4604C16.0053 24.3287 15.9792 24.1984 15.9285 24.0768C15.8778 23.9552 15.8036 23.8448 15.7102 23.752L5.01295 12.9952Z"/>
<path d="M21.5 28C23.9853 28 26 25.9853 26 23.5C26 21.0147 23.9853 19 21.5 19C19.0147 19 17 21.0147 17 23.5C17 25.9853 19.0147 28 21.5 28Z" fill="#0352A6"/>
</g>
</svg>
