<svg xmlns="http://www.w3.org/2000/svg" width="32" height="32" viewBox="0 0 32 32"><path d="M4.53546 13.1992C4.5603 13.2608 4.59708 13.3169 4.64367 13.3642L15.3566 24.1045C15.4034 24.1509 15.4406 24.2062 15.466 24.2671C15.4915 24.328 15.5046 24.3933 15.5047 24.4593C15.5048 24.5252 15.4918 24.5906 15.4666 24.6515C15.4413 24.7125 15.4043 24.7679 15.3575 24.8145C15.3108 24.861 15.2554 24.8979 15.1943 24.923C15.1333 24.9481 15.0679 24.9609 15.0019 24.9606C14.9359 24.9603 14.8707 24.947 14.8099 24.9214C14.749 24.8958 14.6939 24.8584 14.6476 24.8115L11.2732 21.4282L3.3536 29.3535C3.30735 29.4007 3.2522 29.4382 3.19135 29.464C3.13049 29.4897 3.06514 29.5031 2.99906 29.5035C2.93298 29.5038 2.86749 29.491 2.80638 29.4659C2.74526 29.4408 2.68974 29.4038 2.64301 29.357C2.59629 29.3103 2.55929 29.2548 2.53416 29.1937C2.50902 29.1326 2.49625 29.0671 2.49659 29.001C2.49692 28.9349 2.51035 28.8696 2.5361 28.8087C2.56185 28.7479 2.59941 28.6927 2.6466 28.6465L10.5671 20.7203L3.93564 14.0713C3.65549 13.7893 3.49834 13.408 3.49853 13.0105C3.49871 12.6131 3.65623 12.2318 3.93664 11.9502L7.27456 8.4619C8.10555 7.60331 9.24328 7.10956 10.438 7.08905C11.6327 7.06854 12.7867 7.52296 13.6466 8.35253C13.7408 8.44544 13.8678 8.49753 14.0001 8.49753C14.1324 8.49753 14.2594 8.44544 14.3536 8.35253L18.6095 3.83202C19.4536 2.98551 20.5993 2.50885 21.7948 2.50684C22.9902 2.50482 24.1375 2.97762 24.9845 3.82128L28.1837 7.04102C28.6015 7.45881 28.9328 7.9548 29.1589 8.50066C29.3849 9.04652 29.5012 9.63157 29.5011 10.2224C29.501 10.8132 29.3845 11.3982 29.1583 11.944C28.9321 12.4898 28.6006 12.9857 28.1827 13.4033L23.9542 17.3603C23.9063 17.4052 23.8499 17.4402 23.7884 17.4633C23.7269 17.4864 23.6615 17.4972 23.5959 17.495C23.5302 17.4928 23.4656 17.4778 23.4058 17.4506C23.346 17.4235 23.2921 17.3848 23.2472 17.3369C23.2023 17.2889 23.1673 17.2326 23.1442 17.1711C23.1211 17.1096 23.1103 17.0442 23.1125 16.9785C23.1147 16.9128 23.1297 16.8483 23.1569 16.7884C23.184 16.7286 23.2227 16.6747 23.2706 16.6298L27.4874 12.6845C28.1388 12.0273 28.5033 11.1387 28.5011 10.2134C28.4989 9.28801 28.1302 8.40121 27.4757 7.74704L24.2765 4.52731C23.6191 3.87287 22.7293 3.50553 21.8017 3.50572C20.8741 3.5059 19.9844 3.8736 19.3273 4.52831L15.0714 9.04881C14.9323 9.18973 14.7667 9.30182 14.5842 9.37865C14.4017 9.45548 14.2058 9.49555 14.0077 9.49654C13.8097 9.49754 13.6134 9.45946 13.4301 9.38447C13.2468 9.30949 13.0801 9.19907 12.9396 9.05956C12.2689 8.41817 11.3713 8.06872 10.4435 8.08775C9.51567 8.10679 8.63321 8.49276 7.98938 9.16112L4.65148 12.6494C4.60386 12.6957 4.56587 12.751 4.53969 12.8121C4.51351 12.8731 4.49966 12.9388 4.49893 13.0052C4.4982 13.0716 4.51062 13.1375 4.53546 13.1992ZM24 22.4998C24 24.4328 22.433 25.9998 20.5 25.9998C18.567 25.9998 17 24.4328 17 22.4998C17 20.5668 18.567 18.9998 20.5 18.9998C22.433 18.9998 24 20.5668 24 22.4998Z"/></svg>