<svg width="32" height="32" viewBox="0 0 32 32" fill="none" xmlns="http://www.w3.org/2000/svg">
<path d="M29.0002 20.2502H19.0002C18.8013 20.2502 18.6106 20.3292 18.4699 20.4699C18.3292 20.6105 18.2502 20.8013 18.2502 21.0002C18.2502 21.1991 18.3292 21.3899 18.4699 21.5305C18.6106 21.6712 18.8013 21.7502 19.0002 21.7502H29.0002C29.1991 21.7502 29.3899 21.6712 29.5306 21.5305C29.6712 21.3899 29.7502 21.1991 29.7502 21.0002C29.7502 20.8013 29.6712 20.6105 29.5306 20.4699C29.3899 20.3292 29.1991 20.2502 29.0002 20.2502Z" fill="black"/>
<path d="M29.0002 24.2502H19.0002C18.8013 24.2502 18.6106 24.3292 18.4699 24.4699C18.3292 24.6105 18.2502 24.8013 18.2502 25.0002C18.2502 25.1991 18.3292 25.3899 18.4699 25.5305C18.6106 25.6712 18.8013 25.7502 19.0002 25.7502H29.0002C29.1991 25.7502 29.3899 25.6712 29.5306 25.5305C29.6712 25.3899 29.7502 25.1991 29.7502 25.0002C29.7502 24.8013 29.6712 24.6105 29.5306 24.4699C29.3899 24.3292 29.1991 24.2502 29.0002 24.2502Z" fill="black"/>
<path d="M29.0002 28.2502H19.0002C18.8013 28.2502 18.6106 28.3292 18.4699 28.4699C18.3292 28.6105 18.2502 28.8013 18.2502 29.0002C18.2502 29.1991 18.3292 29.3899 18.4699 29.5305C18.6106 29.6712 18.8013 29.7502 19.0002 29.7502H29.0002C29.1991 29.7502 29.3899 29.6712 29.5306 29.5305C29.6712 29.3899 29.7502 29.1991 29.7502 29.0002C29.7502 28.8013 29.6712 28.6105 29.5306 28.4699C29.3899 28.3292 29.1991 28.2502 29.0002 28.2502Z" fill="black"/>
<path d="M4.82152 13.1887C4.7978 13.1641 4.77922 13.1351 4.76689 13.1032C4.75456 13.0714 4.74873 13.0374 4.74973 13.0033C4.75073 12.9692 4.75855 12.9356 4.77272 12.9045C4.78689 12.8735 4.80714 12.8456 4.83226 12.8224L8.16626 9.33807C8.78061 8.7176 9.6108 8.3583 10.4837 8.33514C10.906 8.31545 11.3276 8.38572 11.7207 8.54128C12.1139 8.69684 12.4694 8.93414 12.7639 9.23748C12.9283 9.40021 13.1232 9.52887 13.3374 9.6161C13.5516 9.70332 13.7809 9.74738 14.0122 9.74574C14.2435 9.74411 14.4722 9.69682 14.6851 9.60658C14.8981 9.51635 15.0911 9.38494 15.2532 9.21991L19.5042 4.70526C20.114 4.0971 20.9399 3.75542 21.8011 3.75504C22.6623 3.75467 23.4886 4.09563 24.0989 4.70326L27.299 7.924C27.9056 8.53029 28.2478 9.35182 28.2511 10.2094C28.2544 11.0671 27.9185 11.8912 27.3166 12.5021L23.0998 16.4474C22.9545 16.5834 22.8692 16.7715 22.8626 16.9704C22.856 17.1693 22.9287 17.3627 23.0646 17.508C23.2006 17.6533 23.3887 17.7386 23.5876 17.7452C23.7865 17.7518 23.9799 17.6791 24.1252 17.5431L28.3596 13.5802C29.2502 12.69 29.7508 11.4825 29.7512 10.2232C29.7516 8.96397 29.2517 7.75613 28.3616 6.8654L25.1614 3.6447C24.7183 3.20346 24.1926 2.85386 23.6143 2.61588C23.036 2.37791 22.4165 2.25621 21.7912 2.25775C21.1659 2.25929 20.547 2.38404 19.9699 2.62487C19.3928 2.8657 18.8689 3.21788 18.428 3.6613L14.178 8.17497C14.1308 8.22157 14.0672 8.24779 14.0009 8.24798C13.9346 8.24817 13.8709 8.22231 13.8235 8.17597C12.9159 7.29891 11.6972 6.81815 10.4353 6.83939C9.17338 6.86063 7.97154 7.38213 7.09402 8.28924L3.75902 11.7746C3.43251 12.1032 3.24925 12.5477 3.24925 13.0109C3.24925 13.4742 3.43251 13.9186 3.75902 14.2472L10.2145 20.7199L2.46995 28.4699C2.40009 28.5395 2.34464 28.6222 2.30677 28.7132C2.26891 28.8043 2.24936 28.9019 2.24927 29.0005C2.24917 29.0991 2.26852 29.1967 2.30621 29.2879C2.3439 29.379 2.39919 29.4618 2.46892 29.5315C2.53864 29.6012 2.62143 29.6565 2.71255 29.6942C2.80367 29.7319 2.90132 29.7512 2.99993 29.7511C3.09853 29.751 3.19615 29.7315 3.28719 29.6936C3.37823 29.6558 3.46091 29.6003 3.5305 29.5305L11.2737 21.7818L14.4709 24.9875C14.5404 25.0573 14.623 25.1128 14.7139 25.1507C14.8049 25.1886 14.9024 25.2082 15.0009 25.2085C15.0994 25.2087 15.197 25.1895 15.2881 25.1519C15.3792 25.1144 15.462 25.0593 15.5318 24.9898C15.6016 24.9202 15.657 24.8376 15.6949 24.7467C15.7327 24.6557 15.7523 24.5582 15.7525 24.4597C15.7526 24.3611 15.7333 24.2636 15.6958 24.1725C15.6582 24.0814 15.603 23.9986 15.5334 23.9289L4.82152 13.1887Z" fill="black"/>
</svg>
