<svg width="32" height="32" viewBox="0 0 32 32" fill="none" xmlns="http://www.w3.org/2000/svg">
<path d="M28.1831 13.4035C28.6009 12.9858 28.9324 12.49 29.1586 11.9442C29.3848 11.3984 29.5013 10.8134 29.5014 10.2226C29.5015 9.63174 29.3852 9.0467 29.1592 8.50084C28.9331 7.95498 28.6018 7.45899 28.184 7.0412L24.9848 3.82147C24.1379 2.97781 22.9905 2.50501 21.7951 2.50703C20.5996 2.50904 19.4539 2.9857 18.6098 3.83221L14.354 8.35272C14.2598 8.44609 14.1326 8.49847 14 8.49847C13.8674 8.49847 13.7401 8.44609 13.646 8.35272C13.227 7.93628 12.7279 7.60921 12.1788 7.39132C11.6297 7.17344 11.0421 7.06928 10.4516 7.08514C9.25456 7.11643 8.11609 7.60989 7.27485 8.46209L3.93696 11.9504C3.6561 12.2318 3.49829 12.6131 3.4981 13.0107C3.49791 13.4083 3.65537 13.7898 3.93596 14.0715L10.2143 20.3666L2.29335 28.2931C2.2005 28.386 2.12685 28.4962 2.0766 28.6175C2.02635 28.7389 2.00049 28.8689 2.00049 29.0002C2.00049 29.1315 2.02635 29.2615 2.0766 29.3828C2.12685 29.5041 2.2005 29.6144 2.29335 29.7072C2.3862 29.8001 2.49643 29.8737 2.61774 29.924C2.73905 29.9742 2.86907 30.0001 3.00038 30.0001C3.13169 30.0001 3.26171 29.9742 3.38302 29.924C3.50433 29.8737 3.61456 29.8001 3.70741 29.7072L11.6265 21.7825L17.889 28.0617C18.0288 28.2015 18.1947 28.3122 18.3774 28.3877C18.5601 28.4631 18.7559 28.5016 18.9535 28.5012C19.1477 28.5019 19.3401 28.4644 19.5198 28.3906C19.6994 28.3169 19.8627 28.2084 20.0004 28.0715L23.5463 24.718C24.4021 23.8866 24.8933 22.7498 24.9124 21.5568C24.9314 20.3638 24.4767 19.212 23.6478 18.3537C23.555 18.2608 23.5024 18.135 23.5015 18.0036C23.5006 17.8722 23.5514 17.7458 23.643 17.6515L28.1831 13.4035Z" fill="black"/>
</svg>
