<svg width="32" height="32" viewBox="0 0 32 32" fill="none" xmlns="http://www.w3.org/2000/svg">
<path d="M28.3602 13.5803C29.2503 12.6898 29.7505 11.4823 29.7509 10.2232C29.7513 8.96417 29.2518 7.75644 28.3622 6.86541L25.1611 3.64471C24.7187 3.2025 24.1933 2.85202 23.615 2.61338C23.0368 2.37475 22.4172 2.25265 21.7916 2.2541C21.1661 2.25555 20.547 2.38053 19.9699 2.62185C19.3928 2.86317 18.869 3.21608 18.4287 3.66034L14.1776 8.175C14.1305 8.2216 14.0669 8.24782 14.0006 8.24801C13.9343 8.24819 13.8706 8.22233 13.8231 8.176C12.9156 7.29893 11.6969 6.81817 10.4349 6.83941C9.17301 6.86065 7.97117 7.38216 7.09365 8.28928L3.76065 11.7737C3.43291 12.1018 3.24873 12.5465 3.24855 13.0103C3.24836 13.474 3.43217 13.9189 3.75965 14.2473L10.2142 20.7199L2.46963 28.4699C2.39958 28.5395 2.34394 28.6221 2.30592 28.7132C2.26789 28.8043 2.24823 28.902 2.24805 29.0007C2.24787 29.0995 2.26718 29.1972 2.30487 29.2885C2.34256 29.3797 2.39789 29.4626 2.46769 29.5324C2.53749 29.6022 2.62038 29.6575 2.71162 29.6952C2.80285 29.7329 2.90062 29.7522 2.99933 29.752C3.09804 29.7518 3.19575 29.7322 3.28684 29.6942C3.37793 29.6561 3.46062 29.6005 3.53017 29.5304L11.2733 21.7819L17.7118 28.2385C17.875 28.4017 18.0689 28.5311 18.2822 28.6192C18.4955 28.7074 18.7242 28.7525 18.955 28.7521C19.1808 28.7532 19.4046 28.7097 19.6136 28.624C19.8226 28.5384 20.0126 28.4124 20.1727 28.2531L23.7226 24.8947C24.6159 24.0086 25.1326 22.8118 25.1649 21.5539C25.1844 20.9292 25.0754 20.3072 24.8448 19.7263C24.6141 19.1454 24.2667 18.6181 23.8241 18.1769C23.7782 18.131 23.752 18.0691 23.7509 18.0042C23.7498 17.9394 23.7739 17.8766 23.8182 17.8292L28.3602 13.5803ZM22.7811 16.7453L22.7636 16.7628C22.4357 17.0912 22.2516 17.5362 22.2516 18.0001C22.2516 18.4641 22.4357 18.9091 22.7636 19.2374C23.0617 19.5355 23.2955 19.8916 23.4506 20.2836C23.6056 20.6757 23.6786 21.0954 23.6649 21.5167C23.6432 22.3827 23.2894 23.2072 22.6767 23.8195L19.1269 27.1779C19.0799 27.2245 19.0165 27.2507 18.9503 27.2509C18.8842 27.2511 18.8206 27.2252 18.7734 27.1789L4.82119 13.1877C4.79743 13.1632 4.77884 13.1342 4.76653 13.1024C4.75422 13.0706 4.74844 13.0367 4.74953 13.0026C4.75063 12.9685 4.75857 12.935 4.7729 12.904C4.78722 12.8731 4.80763 12.8453 4.83291 12.8224L8.1659 9.33807C8.47914 9.02209 8.85159 8.77095 9.26196 8.59902C9.67233 8.42709 10.1126 8.33774 10.5575 8.33607C10.9665 8.33327 11.372 8.41148 11.7506 8.56618C12.1292 8.72088 12.4735 8.94902 12.7635 9.23743C12.9279 9.40001 13.1228 9.52857 13.3369 9.61574C13.5511 9.70291 13.7804 9.74699 14.0116 9.74545C14.2428 9.74391 14.4714 9.69678 14.6844 9.60675C14.8974 9.51673 15.0905 9.38559 15.2528 9.22083L19.5048 4.70521C20.1239 4.11533 20.9461 3.78613 21.8012 3.78576C22.6564 3.78538 23.4789 4.11387 24.0985 4.70321L27.2997 7.924C27.9063 8.53028 28.2485 9.35182 28.2518 10.2094C28.2551 11.0671 27.9192 11.8912 27.3173 12.5021L22.7811 16.7453Z" fill="black"/>
</svg>
