<svg width="32" height="32" viewBox="0 0 32 32" fill="none" xmlns="http://www.w3.org/2000/svg">
<path d="M29.0001 20.5002H19.0001C18.8675 20.5002 18.7403 20.5529 18.6466 20.6466C18.5528 20.7404 18.5001 20.8676 18.5001 21.0002C18.5001 21.1328 18.5528 21.26 18.6466 21.3537C18.7403 21.4475 18.8675 21.5002 19.0001 21.5002H29.0001C29.1327 21.5002 29.2599 21.4475 29.3537 21.3537C29.4474 21.26 29.5001 21.1328 29.5001 21.0002C29.5001 20.8676 29.4474 20.7404 29.3537 20.6466C29.2599 20.5529 29.1327 20.5002 29.0001 20.5002Z" fill="black"/>
<path d="M29.0001 24.5002H19.0001C18.8675 24.5002 18.7403 24.5529 18.6466 24.6466C18.5528 24.7404 18.5001 24.8676 18.5001 25.0002C18.5001 25.1328 18.5528 25.26 18.6466 25.3537C18.7403 25.4475 18.8675 25.5002 19.0001 25.5002H29.0001C29.1327 25.5002 29.2599 25.4475 29.3537 25.3537C29.4474 25.26 29.5001 25.1328 29.5001 25.0002C29.5001 24.8676 29.4474 24.7404 29.3537 24.6466C29.2599 24.5529 29.1327 24.5002 29.0001 24.5002Z" fill="black"/>
<path d="M29.0001 28.5002H19.0001C18.8675 28.5002 18.7403 28.5529 18.6466 28.6466C18.5528 28.7404 18.5001 28.8676 18.5001 29.0002C18.5001 29.1328 18.5528 29.26 18.6466 29.3537C18.7403 29.4475 18.8675 29.5002 19.0001 29.5002H29.0001C29.1327 29.5002 29.2599 29.4475 29.3537 29.3537C29.4474 29.26 29.5001 29.1328 29.5001 29.0002C29.5001 28.8676 29.4474 28.7404 29.3537 28.6466C29.2599 28.5529 29.1327 28.5002 29.0001 28.5002Z" fill="black"/>
<path d="M4.64367 13.3644C4.59708 13.3171 4.5603 13.261 4.53546 13.1994C4.51062 13.1377 4.4982 13.0718 4.49893 13.0054C4.49966 12.939 4.51351 12.8733 4.53969 12.8123C4.56587 12.7512 4.60386 12.6959 4.65148 12.6496L7.98938 9.16131C8.63321 8.49295 9.51567 8.10698 10.4435 8.08795C11.3713 8.06891 12.2689 8.41836 12.9396 9.05975C13.0801 9.19926 13.2468 9.30968 13.4301 9.38466C13.6134 9.45965 13.8097 9.49773 14.0077 9.49674C14.2058 9.49574 14.4017 9.45567 14.5842 9.37884C14.7667 9.30201 14.9323 9.18992 15.0714 9.049L19.3273 4.5285C19.9844 3.87379 20.8741 3.50609 21.8017 3.50591C22.7293 3.50572 23.6191 3.87306 24.2765 4.5275L27.4757 7.74723C28.1302 8.4014 28.4989 9.2882 28.5011 10.2136C28.5033 11.1389 28.1388 12.0275 27.4874 12.6847L23.2706 16.63C23.2227 16.6749 23.184 16.7288 23.1569 16.7886C23.1297 16.8485 23.1147 16.913 23.1125 16.9787C23.1103 17.0444 23.1211 17.1098 23.1442 17.1713C23.1673 17.2328 23.2023 17.2891 23.2472 17.3371C23.2921 17.385 23.346 17.4237 23.4058 17.4508C23.4656 17.478 23.5302 17.493 23.5959 17.4952C23.6615 17.4974 23.7269 17.4866 23.7884 17.4635C23.8499 17.4404 23.9063 17.4054 23.9542 17.3605L28.1827 13.4035C28.6006 12.9859 28.9321 12.49 29.1583 11.9442C29.3845 11.3984 29.501 10.8134 29.5011 10.2226C29.5012 9.63176 29.3849 9.04671 29.1589 8.50085C28.9328 7.95499 28.6015 7.459 28.1837 7.04121L24.9845 3.82147C24.1375 2.97781 22.9902 2.50501 21.7948 2.50703C20.5993 2.50904 19.4536 2.9857 18.6095 3.83221L14.3536 8.35272C14.2594 8.44563 14.1324 8.49773 14.0001 8.49773C13.8678 8.49773 13.7408 8.44563 13.6466 8.35272C12.7867 7.52315 11.6327 7.06874 10.438 7.08924C9.24328 7.10975 8.10555 7.6035 7.27456 8.46209L3.93664 11.9504C3.65623 12.232 3.49871 12.6133 3.49853 13.0107C3.49834 13.4082 3.65549 13.7895 3.93564 14.0715L10.5671 20.7205L2.6466 28.6467C2.59941 28.6929 2.56185 28.7481 2.5361 28.8089C2.51035 28.8698 2.49692 28.9351 2.49659 29.0012C2.49625 29.0673 2.50902 29.1328 2.53416 29.1939C2.55929 29.255 2.59629 29.3105 2.64301 29.3572C2.68974 29.404 2.74526 29.441 2.80638 29.4661C2.86749 29.4912 2.93298 29.504 2.99906 29.5037C3.06514 29.5033 3.13049 29.4899 3.19135 29.4642C3.2522 29.4384 3.30735 29.4009 3.3536 29.3537L11.2732 21.4284L14.6476 24.8117C14.6939 24.8586 14.749 24.896 14.8099 24.9216C14.8707 24.9472 14.9359 24.9605 15.0019 24.9608C15.0679 24.9611 15.1333 24.9483 15.1943 24.9232C15.2554 24.8981 15.3108 24.8612 15.3575 24.8147C15.4043 24.7681 15.4413 24.7127 15.4666 24.6517C15.4918 24.5908 15.5048 24.5254 15.5047 24.4595C15.5046 24.3935 15.4915 24.3282 15.466 24.2673C15.4406 24.2064 15.4034 24.1511 15.3566 24.1047L4.64367 13.3644Z" fill="black"/>
</svg>
