<svg xmlns="http://www.w3.org/2000/svg" width="32" height="32" viewBox="0 0 32 32"><path d="M28.1838 13.403C29.0271 12.5592 29.5008 11.415 29.5008 10.222C29.5008 9.029 29.0271 7.88483 28.1838 7.041L24.9838 3.821C24.5645 3.40318 24.0671 3.07204 23.5199 2.84647C22.9727 2.62091 22.3864 2.50533 21.7945 2.50635C21.2026 2.50738 20.6167 2.62497 20.0703 2.85243C19.5239 3.07988 19.0276 3.41274 18.6098 3.832L14.3538 8.352C14.2596 8.445 14.1326 8.49716 14.0003 8.49716C13.8679 8.49716 13.7409 8.445 13.6468 8.352C12.7868 7.5225 11.6327 7.0682 10.438 7.08882C9.24334 7.10944 8.10567 7.60331 7.27479 8.462L3.93778 11.95C3.65663 12.2315 3.49862 12.613 3.49843 13.0108C3.49824 13.4086 3.65589 13.7903 3.93678 14.072L10.5668 20.72L2.64678 28.647C2.59903 28.6931 2.56094 28.7483 2.53473 28.8093C2.50853 28.8703 2.49474 28.9359 2.49416 29.0023C2.49358 29.0687 2.50623 29.1345 2.53137 29.196C2.55651 29.2574 2.59364 29.3132 2.64059 29.3602C2.68753 29.4071 2.74336 29.4443 2.80481 29.4694C2.86626 29.4945 2.9321 29.5072 2.99849 29.5066C3.06488 29.506 3.13048 29.4923 3.19149 29.466C3.25249 29.4398 3.30766 29.4018 3.35378 29.354L11.2738 21.428L17.8888 28.062C18.1685 28.3416 18.5473 28.4994 18.9427 28.5013C19.3382 28.5032 19.7184 28.3489 20.0008 28.072L23.5458 24.718C24.3941 23.8775 24.8849 22.7418 24.9158 21.548C24.9342 20.9572 24.8312 20.3689 24.613 19.8195C24.3949 19.2701 24.0664 18.7713 23.6478 18.354C23.5546 18.2611 23.5018 18.1351 23.5009 18.0035C23.4999 17.8719 23.5509 17.7452 23.6428 17.651L28.1828 13.403H28.1838ZM22.9398 19.061C23.262 19.3829 23.5148 19.7674 23.6825 20.1909C23.8502 20.6144 23.9293 21.0678 23.9148 21.523C23.891 22.4548 23.5096 23.3417 22.8498 24L19.3048 27.354C19.2108 27.4472 19.0837 27.4996 18.9513 27.4996C18.8189 27.4996 18.6918 27.4472 18.5978 27.354L4.64478 13.365C4.57335 13.2949 4.52487 13.2048 4.50576 13.1066C4.48666 13.0084 4.49782 12.9067 4.53778 12.815C4.56432 12.7529 4.60309 12.6968 4.65178 12.65L7.98978 9.16C8.32635 8.82079 8.72648 8.55125 9.16729 8.3668C9.6081 8.18234 10.0809 8.08658 10.5588 8.085C11.0005 8.08209 11.4383 8.16667 11.8472 8.33384C12.256 8.50101 12.6277 8.74747 12.9408 9.059C13.2248 9.34009 13.6089 9.49685 14.0086 9.49478C14.4082 9.49272 14.7906 9.33201 15.0718 9.048L19.3288 4.528C19.9853 3.87287 20.8749 3.50477 21.8024 3.5044C22.7299 3.50402 23.6197 3.8714 24.2768 4.526L27.4768 7.746C28.1312 8.4003 28.4998 9.28714 28.5021 10.2125C28.5043 11.1379 28.14 12.0265 27.4888 12.684L22.9528 16.927L22.9408 16.939C22.6599 17.2202 22.5021 17.6015 22.5021 17.999C22.5021 18.3965 22.6599 18.7777 22.9408 19.059L22.9398 19.061Z"/></svg>