<svg width="32" height="32" viewBox="0 0 32 32" fill="none" xmlns="http://www.w3.org/2000/svg">
<path d="M28.1837 13.4035C29.027 12.5597 29.5009 11.4156 29.5011 10.2226C29.5012 9.02955 29.0278 7.88527 28.1847 7.0412L24.9844 3.82147C24.5652 3.40363 24.0678 3.07246 23.5206 2.84687C22.9734 2.62127 22.3871 2.50568 21.7952 2.50667C21.2033 2.50767 20.6174 2.62524 20.071 2.85268C19.5245 3.08012 19.0282 3.41296 18.6104 3.83221L14.3536 8.35272C14.2594 8.44563 14.1324 8.49772 14.0001 8.49772C13.8678 8.49772 13.7408 8.44563 13.6466 8.35272C12.7866 7.52315 11.6326 7.06874 10.4379 7.08924C9.24323 7.10975 8.10549 7.6035 7.27451 8.46209L3.93756 11.9504C3.65671 12.2318 3.49889 12.6131 3.49871 13.0107C3.49852 13.4083 3.65597 13.7898 3.93656 14.0715L10.5673 20.7203L2.64654 28.6467C2.59879 28.6928 2.56069 28.748 2.53449 28.809C2.50829 28.87 2.49449 28.9356 2.49392 29.002C2.49334 29.0683 2.50599 29.1342 2.53113 29.1956C2.55627 29.2571 2.5934 29.3129 2.64034 29.3599C2.68729 29.4068 2.74312 29.4439 2.80456 29.4691C2.86601 29.4942 2.93185 29.5069 2.99824 29.5063C3.06463 29.5057 3.13024 29.4919 3.19124 29.4657C3.25224 29.4395 3.30742 29.4014 3.35354 29.3537L11.2733 21.4282L17.8887 28.0617C18.0284 28.2016 18.1943 28.3125 18.377 28.3881C18.5597 28.4636 18.7555 28.5024 18.9531 28.5021C19.1475 28.5028 19.3402 28.4651 19.52 28.3912C19.6998 28.3173 19.8633 28.2086 20.001 28.0714L23.5459 24.7179C24.3939 23.8773 24.8844 22.7416 24.9151 21.548C24.9337 20.9571 24.8308 20.3688 24.6128 19.8193C24.3947 19.2698 24.0662 18.771 23.6475 18.3537C23.5546 18.2607 23.502 18.135 23.5011 18.0036C23.5002 17.8722 23.551 17.7457 23.6426 17.6515L28.1837 13.4035ZM22.9405 19.0607C23.2627 19.3826 23.5154 19.7672 23.683 20.1906C23.8507 20.6141 23.9297 21.0674 23.9151 21.5226C23.8913 22.4552 23.5095 23.3427 22.8487 24.0012L19.3038 27.3547C19.2574 27.4011 19.2022 27.4379 19.1416 27.4631C19.0809 27.4882 19.0159 27.5011 18.9503 27.5011C18.8846 27.5011 18.8196 27.4882 18.7589 27.4631C18.6983 27.4379 18.6432 27.4011 18.5968 27.3547L4.64459 13.3644C4.59796 13.3182 4.561 13.2631 4.53585 13.2024C4.5107 13.1417 4.49788 13.0766 4.49811 13.0109C4.49824 12.9434 4.51197 12.8766 4.53848 12.8146C4.56499 12.7525 4.60373 12.6964 4.6524 12.6496L7.98932 9.16131C8.32578 8.82213 8.72579 8.55258 9.16649 8.36809C9.60719 8.18361 10.0799 8.08779 10.5577 8.08612C10.9993 8.08318 11.4371 8.1677 11.8459 8.33481C12.2547 8.50191 12.6264 8.7483 12.9395 9.05975C13.0801 9.19927 13.2468 9.30968 13.43 9.38466C13.6133 9.45965 13.8096 9.49773 14.0077 9.49674C14.2057 9.49574 14.4016 9.45567 14.5841 9.37884C14.7666 9.30201 14.9322 9.18993 15.0714 9.049L19.3282 4.5285C19.9849 3.87337 20.8745 3.50536 21.8021 3.50518C22.7297 3.50499 23.6195 3.87263 24.2764 4.5275L27.4766 7.74723C28.1307 8.40163 28.4991 9.28835 28.5013 10.2136C28.5035 11.1388 28.1393 12.0272 27.4883 12.6847L22.9522 16.9279L22.9405 16.9396C22.8012 17.0789 22.6907 17.2442 22.6153 17.4262C22.5399 17.6081 22.501 17.8032 22.501 18.0002C22.501 18.1971 22.5399 18.3922 22.6153 18.5742C22.6907 18.7561 22.8012 18.9215 22.9405 19.0607Z" fill="black"/>
</svg>
