<svg width="32" height="32" viewBox="0 0 32 32" fill="none" xmlns="http://www.w3.org/2000/svg">
<path d="M29.0001 20.0002H19.0001C18.7349 20.0002 18.4806 20.1055 18.293 20.2931C18.1055 20.4806 18.0001 20.735 18.0001 21.0002C18.0001 21.2654 18.1055 21.5197 18.293 21.7073C18.4806 21.8948 18.7349 22.0002 19.0001 22.0002H29.0001C29.2654 22.0002 29.5197 21.8948 29.7072 21.7073C29.8948 21.5197 30.0001 21.2654 30.0001 21.0002C30.0001 20.735 29.8948 20.4806 29.7072 20.2931C29.5197 20.1055 29.2654 20.0002 29.0001 20.0002Z" fill="black"/>
<path d="M29.0001 24.0002H19.0001C18.7349 24.0002 18.4806 24.1055 18.293 24.2931C18.1055 24.4806 18.0001 24.735 18.0001 25.0002C18.0001 25.2654 18.1055 25.5197 18.293 25.7073C18.4806 25.8948 18.7349 26.0002 19.0001 26.0002H29.0001C29.2654 26.0002 29.5197 25.8948 29.7072 25.7073C29.8948 25.5197 30.0001 25.2654 30.0001 25.0002C30.0001 24.735 29.8948 24.4806 29.7072 24.2931C29.5197 24.1055 29.2654 24.0002 29.0001 24.0002Z" fill="black"/>
<path d="M29.0001 28.0002H19.0001C18.7349 28.0002 18.4806 28.1055 18.293 28.2931C18.1055 28.4806 18.0001 28.735 18.0001 29.0002C18.0001 29.2654 18.1055 29.5197 18.293 29.7073C18.4806 29.8948 18.7349 30.0002 19.0001 30.0002H29.0001C29.2654 30.0002 29.5197 29.8948 29.7072 29.7073C29.8948 29.5197 30.0001 29.2654 30.0001 29.0002C30.0001 28.735 29.8948 28.4806 29.7072 28.2931C29.5197 28.1055 29.2654 28.0002 29.0001 28.0002Z" fill="black"/>
<path d="M5.01283 12.9953L8.34293 9.51483C8.89301 8.93977 9.64864 8.60627 10.4442 8.58741C11.2398 8.56856 12.0104 8.86589 12.5871 9.41424C12.7754 9.6001 12.9986 9.74699 13.2438 9.84647C13.489 9.94596 13.7514 9.9961 14.016 9.99401C14.2807 9.99192 14.5423 9.93766 14.7859 9.83431C15.0295 9.73097 15.2503 9.58059 15.4357 9.39178L19.6808 4.882C20.2437 4.32074 21.0061 4.0054 21.801 4.00502C22.5959 4.00465 23.3586 4.31927 23.922 4.88L27.1222 8.10071C27.6809 8.65913 27.9967 9.41538 28.0011 10.2053C28.0054 10.9951 27.6981 11.7549 27.1456 12.3195L22.9288 16.2648C22.8329 16.3545 22.7556 16.4623 22.7013 16.582C22.6471 16.7016 22.6169 16.8308 22.6125 16.9621C22.6082 17.0934 22.6297 17.2243 22.676 17.3473C22.7222 17.4702 22.7922 17.5829 22.882 17.6788C22.9717 17.7748 23.0795 17.8521 23.1992 17.9063C23.3188 17.9606 23.448 17.9908 23.5793 17.9951C23.7106 17.9995 23.8415 17.9779 23.9645 17.9317C24.0874 17.8855 24.2001 17.8155 24.296 17.7257L28.5363 13.757C29.4738 12.8199 30.0008 11.5488 30.0011 10.2232C30.0015 8.89766 29.4753 7.62624 28.5383 6.68864L25.338 3.468C24.3946 2.53035 23.1173 2.00586 21.7872 2.00989C20.4571 2.01392 19.183 2.54614 18.2452 3.48949L14.0001 7.9992C13.5271 7.54151 12.9686 7.18148 12.3564 6.93966C11.7443 6.69785 11.0905 6.57899 10.4324 6.58987C9.77431 6.60076 9.1248 6.74117 8.52097 7.00309C7.91715 7.26501 7.37083 7.64331 6.91322 8.11639L3.58222 11.5978C3.20881 11.9733 2.9992 12.4814 2.9992 13.0109C2.9992 13.5405 3.20881 14.0485 3.58222 14.424L9.86127 20.7197L2.29311 28.2931C2.20026 28.386 2.12661 28.4962 2.07636 28.6175C2.02611 28.7388 2.00024 28.8689 2.00024 29.0002C2.00024 29.1315 2.02611 29.2615 2.07636 29.3828C2.12661 29.5041 2.20026 29.6144 2.29311 29.7072C2.38595 29.8001 2.49618 29.8737 2.61749 29.924C2.73881 29.9742 2.86883 30.0001 3.00014 30.0001C3.13144 30.0001 3.26147 29.9742 3.38278 29.924C3.50409 29.8737 3.61432 29.8001 3.70717 29.7072L11.2734 22.1356L14.2941 25.1642C14.3866 25.2579 14.4968 25.3324 14.6182 25.3834C14.7397 25.4344 14.87 25.4609 15.0017 25.4614C15.1334 25.4619 15.2639 25.4364 15.3857 25.3863C15.5075 25.3362 15.6182 25.2625 15.7115 25.1695C15.8047 25.0765 15.8787 24.966 15.9291 24.8444C15.9796 24.7227 16.0054 24.5922 16.0053 24.4605C16.0052 24.3288 15.979 24.1985 15.9284 24.0769C15.8777 23.9553 15.8035 23.8449 15.7101 23.7521L5.01283 12.9953Z" fill="black"/>
</svg>
