<svg width="32" height="32" viewBox="0 0 32 32" xmlns="http://www.w3.org/2000/svg">
<g>
<path d="M25 5.00022H7C5.6744 5.00178 4.40353 5.52906 3.46618 6.46641C2.52884 7.40375 2.00156 8.67462 2 10.0002V22.0002C2.00156 23.3258 2.52884 24.5967 3.46618 25.534C4.40353 26.4714 5.6744 26.9987 7 27.0002H25C26.3256 26.9987 27.5965 26.4714 28.5338 25.534C29.4712 24.5967 29.9984 23.3258 30 22.0002V10.0002C29.9984 8.67462 29.4712 7.40375 28.5338 6.46641C27.5965 5.52907 26.3256 5.00178 25 5.00022ZM28 22.0002C27.9991 22.7956 27.6828 23.5582 27.1204 24.1206C26.5579 24.683 25.7954 24.9994 25 25.0002H7C6.20462 24.9994 5.44206 24.683 4.87964 24.1206C4.31722 23.5582 4.00087 22.7956 4 22.0002V10.0002C4.00087 9.20484 4.31722 8.44228 4.87964 7.87986C5.44206 7.31744 6.20462 7.00109 7 7.00022H25C25.7954 7.00109 26.5579 7.31744 27.1204 7.87986C27.6828 8.44228 27.9991 9.20484 28 10.0002V22.0002Z"/>
<path d="M24 15.0012H18C17.4698 15.0018 16.9614 15.2127 16.5865 15.5877C16.2115 15.9626 16.0006 16.471 16 17.0012V21.0002C16.0006 21.5304 16.2115 22.0388 16.5865 22.4137C16.9614 22.7887 17.4698 22.9996 18 23.0002H24C24.5302 22.9996 25.0386 22.7887 25.4135 22.4137C25.7885 22.0388 25.9994 21.5304 26 21.0002V17.0012C25.9994 16.471 25.7885 15.9626 25.4135 15.5877C25.0386 15.2127 24.5302 15.0018 24 15.0012ZM18 21.0002V17.0012H24L24.001 21.0002H18Z"/>
</g>
</svg>
