<svg width="32" height="32" viewBox="0 0 32 32" xmlns="http://www.w3.org/2000/svg">
<g>
<path d="M25 5.50022H7C5.80693 5.50152 4.66309 5.97605 3.81946 6.81968C2.97583 7.66331 2.5013 8.80715 2.5 10.0002V22.0002C2.5013 23.1933 2.97582 24.3371 3.81945 25.1808C4.66309 26.0244 5.80692 26.4989 7 26.5002H25C26.1931 26.4989 27.3369 26.0244 28.1805 25.1808C29.0242 24.3371 29.4987 23.1933 29.5 22.0002V10.0002C29.4987 8.80715 29.0242 7.66331 28.1805 6.81968C27.3369 5.97605 26.1931 5.50152 25 5.50022ZM28.5 22.0002C28.4989 22.9281 28.1298 23.8177 27.4736 24.4739C26.8175 25.13 25.9279 25.4991 25 25.5002H7C6.07209 25.4991 5.1825 25.13 4.52637 24.4739C3.87023 23.8177 3.50112 22.9281 3.5 22.0002V10.0002C3.50112 9.07231 3.87023 8.18272 4.52637 7.52659C5.1825 6.87045 6.07209 6.50134 7 6.50022H25C25.9279 6.50134 26.8175 6.87045 27.4736 7.52659C28.1298 8.18272 28.4989 9.07231 28.5 10.0002V22.0002Z"/>
<path d="M24 15.5012H18C17.6023 15.5016 17.221 15.6598 16.9398 15.941C16.6586 16.2222 16.5004 16.6035 16.5 17.0012V21.0002C16.5004 21.3979 16.6586 21.7792 16.9398 22.0604C17.221 22.3416 17.6023 22.4998 18 22.5002H24C24.3977 22.4998 24.779 22.3416 25.0602 22.0604C25.3414 21.7792 25.4996 21.3979 25.5 21.0002V17.0012C25.4996 16.6035 25.3414 16.2222 25.0602 15.941C24.779 15.6598 24.3977 15.5016 24 15.5012ZM24.5 21.0002C24.4998 21.1328 24.4471 21.2598 24.3534 21.3536C24.2596 21.4473 24.1326 21.5 24 21.5002H18C17.8674 21.5 17.7404 21.4473 17.6466 21.3536C17.5529 21.2598 17.5002 21.1328 17.5 21.0002V17.0012C17.5002 16.8686 17.5529 16.7416 17.6466 16.6478C17.7404 16.5541 17.8674 16.5014 18 16.5012H24C24.1326 16.5014 24.2596 16.5541 24.3534 16.6478C24.4471 16.7416 24.4998 16.8686 24.5 17.0012V21.0002Z"/>
</g>
</svg>
