<svg width="32" height="32" viewBox="0 0 32 32" fill="none" xmlns="http://www.w3.org/2000/svg">
<path d="M24.1047 23.0441C25.8006 21.0891 26.7342 18.588 26.7342 16C26.7342 13.4119 25.8006 10.9108 24.1047 8.9558L29.53 3.53C29.6037 3.46134 29.6628 3.37854 29.7038 3.28654C29.7448 3.19454 29.7668 3.09523 29.7686 2.99452C29.7704 2.89382 29.7518 2.79379 29.7141 2.7004C29.6764 2.60702 29.6203 2.52218 29.549 2.45096C29.4778 2.37974 29.393 2.3236 29.2996 2.28588C29.2062 2.24816 29.1062 2.22963 29.0055 2.23141C28.9048 2.23319 28.8055 2.25523 28.7135 2.29622C28.6215 2.33721 28.5387 2.39631 28.47 2.47L23.0453 7.8942C21.0941 6.18955 18.5909 5.25016 16 5.25016C13.409 5.25016 10.9058 6.18955 8.9546 7.8942L3.53 2.47C3.38782 2.33752 3.19978 2.2654 3.00548 2.26883C2.81118 2.27225 2.62579 2.35097 2.48838 2.48838C2.35097 2.62579 2.27225 2.81118 2.26882 3.00548C2.2654 3.19978 2.33752 3.38783 2.47 3.53L7.8951 8.9555C6.1992 10.9106 5.26553 13.4118 5.26553 16C5.26553 18.5881 6.1992 21.0893 7.8951 23.0444L2.47 28.47C2.39631 28.5387 2.33721 28.6215 2.29622 28.7135C2.25523 28.8055 2.23319 28.9048 2.23141 29.0055C2.22963 29.1062 2.24816 29.2062 2.28588 29.2996C2.3236 29.393 2.37974 29.4778 2.45096 29.549C2.52218 29.6203 2.60701 29.6764 2.7004 29.7141C2.79379 29.7518 2.89382 29.7704 2.99452 29.7686C3.09523 29.7668 3.19454 29.7448 3.28654 29.7038C3.37854 29.6628 3.46134 29.6037 3.53 29.53L8.9546 24.106C10.9058 25.8107 13.4089 26.7501 16 26.7501C18.591 26.7501 21.0941 25.8107 23.0453 24.106L28.47 29.53C28.6122 29.6625 28.8002 29.7346 28.9945 29.7312C29.1888 29.7277 29.3742 29.649 29.5116 29.5116C29.649 29.3742 29.7277 29.1888 29.7312 28.9945C29.7346 28.8002 29.6625 28.6122 29.53 28.47L24.1047 23.0441ZM23.0442 21.9836L17.0606 16L23.0442 10.0163C24.4609 11.6882 25.2385 13.8085 25.2385 16C25.2385 18.1914 24.4609 20.3117 23.0442 21.9836ZM16 6.75C18.1943 6.74564 20.3176 7.52783 21.9847 8.9547L16 14.9394L10.0152 8.9545C11.6824 7.52781 13.8057 6.74571 16 6.75ZM8.9556 10.0161L14.94 16L8.9556 21.9838C7.53874 20.3119 6.76111 18.1915 6.76111 16C6.76111 13.8084 7.53874 11.688 8.9556 10.0161ZM16 25.25C13.8057 25.2543 11.6824 24.4721 10.0152 23.0454L16 17.0605L21.9847 23.0452C20.3176 24.4721 18.1944 25.2543 16 25.25Z" fill="black"/>
</svg>
