<svg xmlns="http://www.w3.org/2000/svg" width="32" height="32" viewBox="0 0 32 32"><path d="M7.98809 27.4978C7.32644 27.4957 6.69261 27.2314 6.2255 26.7628C5.75838 26.2942 5.49609 25.6595 5.49609 24.9978V7.00185C5.49628 6.5758 5.60534 6.15687 5.81293 5.78482C6.02052 5.41277 6.31975 5.09994 6.68221 4.87603C7.04468 4.65212 7.45835 4.52455 7.88397 4.50545C8.30958 4.48634 8.73302 4.57632 9.11409 4.76685L25.1341 13.7698C25.5472 13.9791 25.8941 14.299 26.1361 14.6939C26.3781 15.0888 26.5056 15.5431 26.5045 16.0062C26.5033 16.4694 26.3736 16.9231 26.1296 17.3167C25.8857 17.7104 25.5373 18.0286 25.1231 18.2358L9.13509 27.2238C8.78009 27.4038 8.38709 27.4978 7.98809 27.4988V27.4978ZM8.00109 5.49985C7.73291 5.50053 7.4697 5.57235 7.23833 5.70798C7.00696 5.8436 6.81571 6.03817 6.68409 6.27185C6.55973 6.49534 6.49498 6.74708 6.49609 7.00285V24.9988C6.49602 25.2546 6.56133 25.5061 6.68582 25.7295C6.81032 25.9529 6.98986 26.1407 7.20739 26.2752C7.42493 26.4097 7.67323 26.4863 7.92871 26.4978C8.18419 26.5093 8.43837 26.4552 8.66709 26.3408L24.6541 17.3548C24.9073 17.2333 25.1213 17.0431 25.2718 16.806C25.4223 16.5689 25.5032 16.2942 25.5054 16.0134C25.5076 15.7325 25.431 15.4567 25.2842 15.2173C25.1374 14.9778 24.9264 14.7843 24.6751 14.6588L24.6541 14.6478L8.64509 5.64985C8.44509 5.54985 8.22509 5.49985 8.00109 5.49985Z"/></svg>