<svg width="32" height="32" viewBox="0 0 32 32" fill="none" xmlns="http://www.w3.org/2000/svg">
<path d="M7.98797 27.4981C7.32632 27.496 6.69249 27.2316 6.22537 26.763C5.75826 26.2944 5.49597 25.6597 5.49597 24.9981V7.00209C5.49616 6.57604 5.60522 6.15711 5.81281 5.78506C6.0204 5.41301 6.31963 5.10018 6.68209 4.87627C7.04455 4.65236 7.45823 4.5248 7.88384 4.50569C8.30946 4.48658 8.7329 4.57656 9.11397 4.76709L25.134 13.7701C25.5471 13.9794 25.894 14.2993 26.136 14.6941C26.3779 15.089 26.5055 15.5434 26.5043 16.0065C26.5032 16.4696 26.3734 16.9233 26.1295 17.317C25.8856 17.7107 25.5371 18.0289 25.123 18.2361L9.13497 27.2241C8.77997 27.4041 8.38697 27.4981 7.98797 27.4991V27.4981ZM8.00097 5.50009C7.73278 5.50078 7.46958 5.5726 7.23821 5.70822C7.00684 5.84384 6.81559 6.03842 6.68397 6.27209C6.5596 6.49558 6.49486 6.74733 6.49597 7.00309V24.9991C6.4959 25.2548 6.56121 25.5063 6.6857 25.7297C6.81019 25.9531 6.98974 26.141 7.20727 26.2754C7.4248 26.4099 7.67311 26.4865 7.92859 26.498C8.18407 26.5095 8.43825 26.4555 8.66697 26.3411L24.654 17.3551C24.9072 17.2335 25.1212 17.0434 25.2717 16.8062C25.4222 16.5691 25.5031 16.2945 25.5053 16.0136C25.5075 15.7328 25.4308 15.457 25.2841 15.2175C25.1373 14.978 24.9262 14.7846 24.675 14.6591L24.654 14.6481L8.64497 5.65009C8.44497 5.55009 8.22497 5.50009 8.00097 5.50009Z" fill="#0F0F0F"/>
</svg>
