<svg width="32" height="32" viewBox="0 0 32 32" fill="none" xmlns="http://www.w3.org/2000/svg">
<path d="M23.0005 7.25H21.7505V4C21.7505 3.80109 21.6715 3.61032 21.5308 3.46967C21.3902 3.32902 21.1994 3.25 21.0005 3.25C20.8016 3.25 20.6108 3.32902 20.4702 3.46967C20.3295 3.61032 20.2505 3.80109 20.2505 4V7.25H11.7505V4C11.7505 3.80109 11.6715 3.61032 11.5308 3.46967C11.3902 3.32902 11.1994 3.25 11.0005 3.25C10.8016 3.25 10.6108 3.32902 10.4702 3.46967C10.3295 3.61032 10.2505 3.80109 10.2505 4V7.25H9.00049C8.27137 7.25074 7.57233 7.54071 7.05676 8.05627C6.5412 8.57184 6.25123 9.27088 6.25049 10V13C6.25436 15.454 7.18283 17.8164 8.85084 19.6164C10.5188 21.4163 12.8039 22.5217 15.2505 22.712V28C15.2505 28.1989 15.3295 28.3897 15.4702 28.5303C15.6108 28.671 15.8016 28.75 16.0005 28.75C16.1994 28.75 16.3902 28.671 16.5308 28.5303C16.6715 28.3897 16.7505 28.1989 16.7505 28V22.712C19.1971 22.5217 21.4821 21.4163 23.1501 19.6164C24.8181 17.8164 25.7466 15.454 25.7505 13V10C25.7497 9.27088 25.4598 8.57184 24.9442 8.05628C24.4286 7.54071 23.7296 7.25074 23.0005 7.25ZM24.2505 13C24.2505 15.188 23.3813 17.2865 21.8341 18.8336C20.2869 20.3808 18.1885 21.25 16.0005 21.25C13.8125 21.25 11.714 20.3808 10.1669 18.8336C8.61968 17.2865 7.75049 15.188 7.75049 13V10C7.7508 9.66857 7.88259 9.35081 8.11694 9.11646C8.3513 8.8821 8.66906 8.75031 9.00049 8.75H23.0005C23.3319 8.75031 23.6497 8.8821 23.884 9.11646C24.1184 9.35081 24.2502 9.66857 24.2505 10V13Z" fill="black"/>
</svg>
