<svg xmlns="http://www.w3.org/2000/svg" width="32" height="32" viewBox="0 0 32 32"><path d="M26 15H17V6C17 5.73478 16.8946 5.48043 16.7071 5.29289C16.5196 5.10536 16.2652 5 16 5C15.7348 5 15.4804 5.10536 15.2929 5.29289C15.1054 5.48043 15 5.73478 15 6V15H6C5.73478 15 5.48043 15.1054 5.29289 15.2929C5.10536 15.4804 5 15.7348 5 16C5 16.2652 5.10536 16.5196 5.29289 16.7071C5.48043 16.8946 5.73478 17 6 17H15V26C15 26.2652 15.1054 26.5196 15.2929 26.7071C15.4804 26.8946 15.7348 27 16 27C16.2652 27 16.5196 26.8946 16.7071 26.7071C16.8946 26.5196 17 26.2652 17 26V17H26C26.2652 17 26.5196 16.8946 26.7071 16.7071C26.8946 16.5196 27 16.2652 27 16C27 15.7348 26.8946 15.4804 26.7071 15.2929C26.5196 15.1054 26.2652 15 26 15Z"/></svg>