<svg width="32" height="32" viewBox="0 0 32 32" fill="none" xmlns="http://www.w3.org/2000/svg">
<path d="M16 2.24969C13.2805 2.24969 10.6221 3.05611 8.36092 4.56698C6.09974 6.07785 4.33737 8.22531 3.29666 10.7378C2.25596 13.2503 1.98366 16.0149 2.51421 18.6822C3.04476 21.3494 4.35432 23.7994 6.27729 25.7224C8.20026 27.6454 10.6503 28.9549 13.3175 29.4855C15.9848 30.016 18.7494 29.7437 21.2619 28.703C23.7744 27.6623 25.9218 25.9 27.4327 23.6388C28.9436 21.3776 29.75 18.7192 29.75 15.9997C29.7459 12.3542 28.2959 8.85925 25.7182 6.28152C23.1404 3.70378 19.6455 2.25381 16 2.24969ZM16 28.2497C13.5772 28.2497 11.2088 27.5312 9.19427 26.1852C7.17977 24.8391 5.60966 22.926 4.68248 20.6876C3.75531 18.4492 3.51272 15.9861 3.98539 13.6098C4.45806 11.2336 5.62475 9.05083 7.33795 7.33763C9.05114 5.62444 11.2339 4.45774 13.6102 3.98507C15.9864 3.5124 18.4495 3.75499 20.6879 4.68217C22.9263 5.60934 24.8395 7.17945 26.1855 9.19396C27.5316 11.2085 28.25 13.5769 28.25 15.9997C28.2464 19.2475 26.9546 22.3612 24.6581 24.6578C22.3616 26.9543 19.2478 28.2461 16 28.2497Z" fill="black"/>
<path d="M21 15.2497H16.75V10.9997C16.75 10.8008 16.671 10.61 16.5303 10.4694C16.3897 10.3287 16.1989 10.2497 16 10.2497C15.8011 10.2497 15.6103 10.3287 15.4697 10.4694C15.329 10.61 15.25 10.8008 15.25 10.9997V15.2497H11C10.8011 15.2497 10.6103 15.3287 10.4697 15.4694C10.329 15.61 10.25 15.8008 10.25 15.9997C10.25 16.1986 10.329 16.3894 10.4697 16.53C10.6103 16.6707 10.8011 16.7497 11 16.7497H15.25V20.9997C15.25 21.1986 15.329 21.3894 15.4697 21.53C15.6103 21.6707 15.8011 21.7497 16 21.7497C16.1989 21.7497 16.3897 21.6707 16.5303 21.53C16.671 21.3894 16.75 21.1986 16.75 20.9997V16.7497H21C21.1989 16.7497 21.3897 16.6707 21.5303 16.53C21.671 16.3894 21.75 16.1986 21.75 15.9997C21.75 15.8008 21.671 15.61 21.5303 15.4694C21.3897 15.3287 21.1989 15.2497 21 15.2497Z" fill="black"/>
</svg>
