<svg width="32" height="32" viewBox="0 0 32 32" fill="none" xmlns="http://www.w3.org/2000/svg">
<path d="M16 2.49969C13.33 2.49969 10.7199 3.29145 8.49981 4.77485C6.27974 6.25825 4.54942 8.36666 3.52763 10.8335C2.50585 13.3003 2.2385 16.0147 2.7594 18.6334C3.28031 21.2522 4.56606 23.6576 6.45406 25.5456C8.34207 27.4336 10.7475 28.7194 13.3663 29.2403C15.985 29.7612 18.6994 29.4938 21.1662 28.4721C23.633 27.4503 25.7414 25.72 27.2248 23.4999C28.7082 21.2798 29.5 18.6697 29.5 15.9997C29.496 12.4205 28.0724 8.98903 25.5415 6.45816C23.0107 3.92728 19.5792 2.50368 16 2.49969ZM16 28.4997C13.5277 28.4997 11.111 27.7666 9.05538 26.3931C6.99976 25.0195 5.39761 23.0673 4.45151 20.7832C3.50542 18.4992 3.25787 15.9858 3.74019 13.5611C4.22251 11.1363 5.41301 8.90901 7.16117 7.16086C8.90933 5.4127 11.1366 4.22219 13.5614 3.73987C15.9861 3.25756 18.4995 3.5051 20.7836 4.4512C23.0676 5.39729 25.0199 6.99945 26.3934 9.05506C27.7669 11.1107 28.5 13.5274 28.5 15.9997C28.4963 19.3138 27.1781 22.491 24.8347 24.8344C22.4913 27.1778 19.3141 28.496 16 28.4997Z" fill="black"/>
<path d="M21 15.4997H16.5V10.9997C16.5 10.8671 16.4473 10.7399 16.3536 10.6461C16.2598 10.5524 16.1326 10.4997 16 10.4997C15.8674 10.4997 15.7402 10.5524 15.6465 10.6461C15.5527 10.7399 15.5 10.8671 15.5 10.9997V15.4997H11C10.8674 15.4997 10.7402 15.5524 10.6465 15.6461C10.5527 15.7399 10.5 15.8671 10.5 15.9997C10.5 16.1323 10.5527 16.2595 10.6465 16.3532C10.7402 16.447 10.8674 16.4997 11 16.4997H15.5V20.9997C15.5 21.1323 15.5527 21.2595 15.6465 21.3532C15.7402 21.447 15.8674 21.4997 16 21.4997C16.1326 21.4997 16.2598 21.447 16.3536 21.3532C16.4473 21.2595 16.5 21.1323 16.5 20.9997V16.4997H21C21.1326 16.4997 21.2598 16.447 21.3536 16.3532C21.4473 16.2595 21.5 16.1323 21.5 15.9997C21.5 15.8671 21.4473 15.7399 21.3536 15.6461C21.2598 15.5524 21.1326 15.4997 21 15.4997Z" fill="black"/>
</svg>
