<svg width="32" height="32" viewBox="0 0 32 32" fill="none" xmlns="http://www.w3.org/2000/svg">
<path d="M25.6448 9.39569L18.6468 4.36151C17.8788 3.80079 16.9525 3.49845 16.0016 3.49809C15.0507 3.49773 14.1242 3.79937 13.3558 4.35951L6.35376 9.39764C5.78038 9.81583 5.31371 10.3634 4.99165 10.9958C4.6696 11.6282 4.50124 12.3276 4.50024 13.0373V24.0002C4.50155 25.1933 4.97607 26.3371 5.8197 27.1807C6.66333 28.0244 7.80717 28.4989 9.00024 28.5002H23.0002C24.1933 28.4989 25.3372 28.0244 26.1808 27.1807C27.0244 26.3371 27.4989 25.1933 27.5002 24.0002V13.0373C27.4991 12.3271 27.3305 11.6273 27.0081 10.9945C26.6857 10.3618 26.2186 9.81402 25.6448 9.39569ZM26.5002 24.0002C26.4991 24.9281 26.13 25.8177 25.4739 26.4738C24.8177 27.1299 23.9282 27.4991 23.0002 27.5002H9.00024C8.07233 27.4991 7.18275 27.1299 6.52661 26.4738C5.87048 25.8177 5.50137 24.9281 5.50024 24.0002V13.0373C5.50095 12.4858 5.63165 11.9422 5.88175 11.4507C6.13185 10.9591 6.49431 10.5334 6.9397 10.2082L13.9417 5.1701C14.5399 4.73379 15.2612 4.49885 16.0016 4.4992C16.742 4.49955 17.4631 4.73517 18.0608 5.17205L25.0588 10.2062C25.5047 10.5316 25.8676 10.9576 26.118 11.4494C26.3684 11.9413 26.4994 12.4853 26.5002 13.0373V24.0002Z" fill="black"/>
<path d="M17.969 15.8906C18.5877 15.4696 19.0553 14.8614 19.303 14.1552C19.5507 13.449 19.5655 12.682 19.3453 11.9668C19.125 11.2516 18.6813 10.6257 18.0793 10.1812C17.4773 9.73665 16.7486 9.49677 16.0002 9.49677C15.2519 9.49677 14.5232 9.73665 13.9212 10.1812C13.3191 10.6257 12.8755 11.2516 12.6552 11.9668C12.435 12.682 12.4498 13.449 12.6975 14.1552C12.9452 14.8614 13.4127 15.4696 14.0315 15.8906C13.027 16.2642 12.1557 16.9269 11.5273 17.795C10.8989 18.6631 10.5415 19.6978 10.5002 20.7687C10.5002 21.4054 10.8264 22.2941 12.3782 22.9113C13.5392 23.3284 14.7667 23.53 16.0002 23.506C18.7375 23.506 21.5002 22.6594 21.5002 20.7687C21.459 19.6978 21.1016 18.6631 20.4732 17.795C19.8448 16.9269 18.9734 16.2642 17.969 15.8906ZM13.5002 13.0002C13.5002 12.5057 13.6469 12.0224 13.9216 11.6113C14.1963 11.2001 14.5867 10.8797 15.0435 10.6905C15.5003 10.5013 16.003 10.4518 16.488 10.5482C16.9729 10.6447 17.4184 10.8828 17.768 11.2324C18.1176 11.582 18.3557 12.0275 18.4522 12.5125C18.5487 12.9974 18.4992 13.5001 18.3099 13.9569C18.1207 14.4137 17.8003 14.8041 17.3892 15.0789C16.978 15.3536 16.4947 15.5002 16.0002 15.5002C15.3374 15.4996 14.7019 15.236 14.2332 14.7673C13.7644 14.2986 13.5008 13.663 13.5002 13.0002ZM16.0002 22.506C13.4768 22.506 11.5002 21.7433 11.5002 20.7687C11.5634 19.6179 12.065 18.5351 12.902 17.7428C13.739 16.9504 14.8477 16.5089 16.0002 16.5089C17.1528 16.5089 18.2615 16.9504 19.0985 17.7428C19.9355 18.5351 20.4371 19.6179 20.5002 20.7687C20.5002 21.7433 18.5237 22.506 16.0002 22.506Z" fill="black"/>
</svg>
