<svg width="32" height="32" viewBox="0 0 32 32" fill="none" xmlns="http://www.w3.org/2000/svg">
<path d="M25.7913 9.19354L18.7942 4.15936C17.9835 3.56745 17.0058 3.2483 16.002 3.24794C14.9982 3.24758 14.0203 3.56603 13.2092 4.15736L6.2063 9.19549C5.60126 9.63706 5.10883 10.215 4.76897 10.8825C4.42911 11.55 4.2514 12.2883 4.25024 13.0373V24.0002C4.25167 25.2595 4.75258 26.4669 5.64307 27.3574C6.53355 28.2478 7.7409 28.7488 9.00024 28.7502H23.0002C24.2596 28.7488 25.4669 28.2478 26.3574 27.3574C27.2479 26.4669 27.7488 25.2595 27.7502 24.0002V13.0373C27.749 12.2877 27.5709 11.549 27.2305 10.8811C26.8902 10.2132 26.3971 9.63505 25.7913 9.19354ZM26.2503 24.0002C26.2493 24.8618 25.9065 25.6879 25.2973 26.2972C24.688 26.9065 23.8619 27.2492 23.0003 27.2502H9.00026C8.13862 27.2492 7.31255 26.9065 6.70327 26.2972C6.09399 25.6879 5.75126 24.8618 5.75026 24.0002V13.0373C5.75083 12.5252 5.87209 12.0205 6.1042 11.5641C6.33631 11.1077 6.67275 10.7124 7.0862 10.4103L14.0891 5.3722C14.6446 4.96698 15.3145 4.7488 16.0021 4.74915C16.6896 4.7495 17.3593 4.96837 17.9143 5.37415L24.9114 10.4083C25.3256 10.7104 25.6627 11.1058 25.8953 11.5626C26.128 12.0194 26.2496 12.5246 26.2503 13.0372V24.0002Z" fill="black"/>
<path d="M18.4388 15.8252C19.0211 15.3268 19.4367 14.6619 19.6296 13.9202C19.8225 13.1784 19.7835 12.3953 19.5178 11.6764C19.2522 10.9575 18.7726 10.3372 18.1437 9.89912C17.5147 9.46104 16.7667 9.22619 16.0002 9.22619C15.2338 9.22619 14.4858 9.46104 13.8568 9.89912C13.2279 10.3372 12.7483 10.9575 12.4827 11.6764C12.217 12.3953 12.178 13.1784 12.3709 13.9202C12.5638 14.6619 12.9794 15.3268 13.5616 15.8252C12.6041 16.259 11.7867 16.9517 11.2016 17.8252C10.6165 18.6986 10.287 19.7181 10.2502 20.7687C10.2502 21.3537 10.5149 22.4396 12.2854 23.1437C13.476 23.5725 14.735 23.78 16.0002 23.756C18.8626 23.756 21.7502 22.8322 21.7502 20.7687C21.7134 19.7181 21.3839 18.6986 20.7989 17.8252C20.2138 16.9517 19.3964 16.259 18.4388 15.8252ZM16.0002 10.7502C16.4453 10.7502 16.8803 10.8822 17.2503 11.1294C17.6203 11.3766 17.9087 11.728 18.079 12.1392C18.2493 12.5503 18.2938 13.0027 18.207 13.4391C18.1202 13.8756 17.9059 14.2765 17.5912 14.5912C17.2766 14.9058 16.8757 15.1201 16.4392 15.207C16.0027 15.2938 15.5503 15.2492 15.1392 15.0789C14.7281 14.9086 14.3767 14.6202 14.1294 14.2502C13.8822 13.8802 13.7502 13.4452 13.7502 13.0002C13.7511 12.4037 13.9884 11.8319 14.4102 11.4101C14.8319 10.9883 15.4038 10.751 16.0002 10.7502ZM16.0002 22.2561C13.4582 22.2561 11.7502 21.4875 11.7502 20.7687C11.8134 19.6843 12.2887 18.6651 13.0788 17.9197C13.8689 17.1742 14.914 16.759 16.0002 16.759C17.0865 16.759 18.1316 17.1742 18.9217 17.9197C19.7118 18.6651 20.1871 19.6843 20.2502 20.7687C20.2502 21.4875 18.5422 22.2561 16.0002 22.2561Z" fill="black"/>
</svg>
