<svg xmlns="http://www.w3.org/2000/svg" width="32" height="32" viewBox="0 0 32 32"><path d="M25.645 9.39507L18.647 4.36107C17.8787 3.80059 16.9523 3.49841 16.0013 3.49805C15.0503 3.49769 14.1237 3.79917 13.355 4.35907L6.353 9.39707C5.77986 9.81554 5.3134 10.3632 4.99146 10.9956C4.66952 11.628 4.50115 12.3274 4.5 13.0371V24.0001C4.50132 25.1931 4.97585 26.337 5.81948 27.1806C6.66311 28.0242 7.80693 28.4987 9 28.5001H23C24.1931 28.499 25.3371 28.0246 26.1808 27.1809C27.0245 26.3372 27.4989 25.1932 27.5 24.0001V13.0371C27.499 12.3269 27.3305 11.627 27.0082 10.9941C26.6859 10.3613 26.2188 9.81347 25.645 9.39507ZM16 10.4991C16.6632 10.4991 17.2992 10.7625 17.7681 11.2314C18.2371 11.7004 18.5005 12.3364 18.5005 12.9996C18.5005 13.6627 18.2371 14.2988 17.7681 14.7677C17.2992 15.2366 16.6632 15.5001 16 15.5001C15.337 15.5001 14.7011 15.2367 14.2322 14.7678C13.7634 14.299 13.5 13.6631 13.5 13.0001C13.5 12.337 13.7634 11.7011 14.2322 11.2323C14.7011 10.7635 15.337 10.5001 16 10.5001V10.4991ZM16 22.5051C13.477 22.5051 11.5 21.7431 11.5 20.7681C11.5642 19.618 12.0662 18.5361 12.9031 17.7447C13.74 16.9532 14.8481 16.5122 16 16.5122C17.1519 16.5122 18.26 16.9532 19.0969 17.7447C19.9338 18.5361 20.4358 19.618 20.5 20.7681C20.5 21.7431 18.524 22.5051 16 22.5051Z"/></svg>