<svg width="32" height="32" viewBox="0 0 32 32" fill="none" xmlns="http://www.w3.org/2000/svg">
<path d="M25.6451 9.395L18.6471 4.36082C17.8788 3.80031 16.9524 3.49812 16.0014 3.49776C15.0504 3.4974 14.1238 3.79889 13.3551 4.35882L6.35307 9.397C5.78005 9.81546 5.3137 10.3631 4.99183 10.9954C4.66996 11.6278 4.50163 12.3271 4.50049 13.0366V23.9995C4.50179 25.1926 4.97632 26.3364 5.81995 27.18C6.66358 28.0237 7.80741 28.4982 9.00049 28.4995H23.0005C24.1936 28.4982 25.3374 28.0237 26.181 27.18C27.0247 26.3364 27.4992 25.1926 27.5005 23.9995V13.0366C27.4994 12.3265 27.3308 11.6266 27.0084 10.9939C26.686 10.3611 26.2189 9.81334 25.6451 9.395ZM16.0005 10.4995C16.495 10.4995 16.9783 10.6461 17.3895 10.9208C17.8006 11.1955 18.121 11.586 18.3102 12.0428C18.4995 12.4996 18.549 13.0023 18.4525 13.4872C18.356 13.9722 18.1179 14.4176 17.7683 14.7673C17.4187 15.1169 16.9732 15.355 16.4883 15.4515C16.0033 15.5479 15.5006 15.4984 15.0438 15.3092C14.587 15.12 14.1966 14.7995 13.9219 14.3884C13.6472 13.9773 13.5005 13.4939 13.5005 12.9995C13.5011 12.3366 13.7647 11.7011 14.2334 11.2324C14.7021 10.7637 15.3377 10.5001 16.0005 10.4995ZM16.0005 22.5054C13.4771 22.5054 11.5005 21.7427 11.5005 20.768C11.564 19.6174 12.0657 18.5348 12.9027 17.7427C13.7396 16.9506 14.8482 16.5092 16.0005 16.5092C17.1529 16.5092 18.2615 16.9506 19.0984 17.7427C19.9354 18.5348 20.4371 19.6174 20.5005 20.768C20.5005 21.7427 18.524 22.5054 16.0005 22.5054Z" fill="black"/>
</svg>
