<svg width="32" height="32" viewBox="0 0 32 32" fill="none" xmlns="http://www.w3.org/2000/svg">
<path d="M24.9995 3.50018C24.3368 3.50074 23.7014 3.76417 23.2327 4.23268C22.764 4.70118 22.5003 5.33648 22.4995 5.99918V26.0012C22.5003 26.6639 22.764 27.2992 23.2327 27.7677C23.7014 28.2362 24.3368 28.4996 24.9995 28.5002C25.6621 28.4994 26.2982 28.2359 26.7667 27.7674C27.2352 27.2989 27.4987 26.6637 27.4995 26.0012V5.9992C27.4987 5.3365 27.235 4.70119 26.7663 4.23268C26.2976 3.76417 25.6622 3.50074 24.9995 3.50018ZM26.4995 26.0012C26.4995 26.399 26.3415 26.7805 26.0602 27.0618C25.7789 27.3431 25.3973 27.5012 24.9995 27.5012C24.6017 27.5012 24.2202 27.3431 23.9389 27.0618C23.6575 26.7805 23.4995 26.399 23.4995 26.0012V5.9992C23.4995 5.60138 23.6575 5.21984 23.9389 4.93854C24.2202 4.65724 24.6017 4.4992 24.9995 4.4992C25.3973 4.4992 25.7789 4.65724 26.0602 4.93854C26.3415 5.21984 26.4995 5.60138 26.4995 5.9992V26.0012Z" fill="black"/>
<path d="M15.9976 11.5002C15.3353 11.5011 14.7005 11.7646 14.2322 12.2328C13.7639 12.7011 13.5004 13.3359 13.4995 13.9982V26.0021C13.5004 26.6643 13.7639 27.2992 14.2322 27.7674C14.7005 28.2357 15.3353 28.4992 15.9976 28.5001H16.0015C16.6637 28.4992 17.2985 28.2357 17.7668 27.7674C18.2351 27.2991 18.4986 26.6643 18.4995 26.0021V13.9982C18.4983 13.3354 18.2343 12.7001 17.7652 12.2317C17.2961 11.7634 16.6604 11.5003 15.9976 11.5002ZM17.4996 26.0022C17.4991 26.3993 17.3412 26.7801 17.0604 27.061C16.7795 27.3418 16.3987 27.4998 16.0016 27.5002H15.9977C15.6005 27.4998 15.2197 27.3418 14.9388 27.061C14.658 26.7801 14.5 26.3994 14.4996 26.0022V13.9982C14.4996 13.6004 14.6576 13.2189 14.9389 12.9376C15.2202 12.6563 15.6018 12.4982 15.9996 12.4982C16.3974 12.4982 16.779 12.6563 17.0603 12.9376C17.3416 13.2189 17.4996 13.6004 17.4996 13.9982L17.4996 26.0022Z" fill="black"/>
<path d="M6.99951 6.50018C6.33666 6.50079 5.70113 6.76438 5.23242 7.23309C4.76372 7.7018 4.50013 8.33733 4.49951 9.00018V26.0002C4.49951 26.6632 4.7629 27.2991 5.23174 27.7679C5.70059 28.2368 6.33647 28.5002 6.99951 28.5002C7.66255 28.5002 8.29844 28.2368 8.76728 27.7679C9.23612 27.2991 9.49951 26.6632 9.49951 26.0002V9.00018C9.4989 8.33733 9.23531 7.7018 8.7666 7.23309C8.29789 6.76438 7.66237 6.50079 6.99951 6.50018ZM8.49951 26.0002C8.49951 26.398 8.34148 26.7795 8.06017 27.0608C7.77887 27.3421 7.39734 27.5002 6.99951 27.5002C6.60169 27.5002 6.22016 27.3421 5.93885 27.0608C5.65755 26.7795 5.49951 26.398 5.49951 26.0002V9.00018C5.49951 8.8032 5.53831 8.60814 5.61369 8.42615C5.68907 8.24417 5.79956 8.07881 5.93885 7.93952C6.07814 7.80023 6.2435 7.68974 6.42549 7.61436C6.60748 7.53898 6.80253 7.50018 6.99951 7.50018C7.19649 7.50018 7.39155 7.53898 7.57354 7.61436C7.75553 7.68974 7.92088 7.80023 8.06017 7.93952C8.19946 8.07881 8.30995 8.24417 8.38533 8.42615C8.46071 8.60814 8.49951 8.8032 8.49951 9.00018V26.0002Z" fill="black"/>
</svg>
