<svg xmlns="http://www.w3.org/2000/svg" width="32" height="32" viewBox="0 0 32 32"><path d="M27 19C26.8686 18.9997 26.7384 19.0254 26.617 19.0756C26.4956 19.1257 26.3852 19.1994 26.2923 19.2923C26.1994 19.3852 26.1257 19.4956 26.0756 19.617C26.0254 19.7384 25.9997 19.8686 26 20V22.961C25.9992 23.7667 25.6788 24.5393 25.109 25.109C24.5393 25.6788 23.7667 25.9992 22.961 26H9.039C8.23333 25.9989 7.46097 25.6784 6.89127 25.1087C6.32158 24.539 6.00106 23.7667 6 22.961V9.039C6.00079 8.23308 6.32137 7.46041 6.89133 6.89063C7.4613 6.32085 8.23408 6.00053 9.04 6H12C12.2652 6 12.5196 5.89464 12.7071 5.70711C12.8946 5.51957 13 5.26522 13 5C13 4.73478 12.8946 4.48043 12.7071 4.29289C12.5196 4.10536 12.2652 4 12 4H9.04C7.70372 4.00132 6.42254 4.53275 5.47764 5.47764C4.53275 6.42254 4.00132 7.70372 4 9.04V22.96C4.00132 24.2963 4.53275 25.5775 5.47764 26.5224C6.42254 27.4673 7.70372 27.9987 9.04 28H22.96C24.2961 27.9987 25.5771 27.4674 26.522 26.5227C27.4669 25.578 27.9984 24.2971 28 22.961V20C28 19.7348 27.8946 19.4804 27.7071 19.2929C27.5196 19.1054 27.2652 19 27 19Z M27 4.002L19 4C18.7348 4 18.4804 4.10536 18.2929 4.29289C18.1054 4.48043 18 4.73478 18 5C18 5.26522 18.1054 5.51957 18.2929 5.70711C18.4804 5.89464 18.7348 6 19 6L24.584 6.002L18.294 12.293C18.1963 12.3847 18.1179 12.495 18.0637 12.6175C18.0094 12.7401 17.9803 12.8722 17.9782 13.0062C17.976 13.1402 18.0008 13.2732 18.051 13.3975C18.1013 13.5217 18.176 13.6345 18.2707 13.7293C18.3654 13.8241 18.4782 13.8989 18.6024 13.9492C18.7265 13.9995 18.8596 14.0244 18.9936 14.0223C19.1275 14.0202 19.2597 13.9913 19.3823 13.9371C19.5048 13.8829 19.6153 13.8047 19.707 13.707L26 7.413V13C26 13.2652 26.1054 13.5196 26.2929 13.7071C26.4804 13.8946 26.7348 14 27 14C27.2652 14 27.5196 13.8946 27.7071 13.7071C27.8946 13.5196 28 13.2652 28 13V5.002C28 4.73678 27.8946 4.48243 27.7071 4.29489C27.5196 4.10736 27.2652 4.002 27 4.002Z"/></svg>