<svg xmlns="http://www.w3.org/2000/svg" width="32" height="32" viewBox="0 0 32 32"><path d="M22.961 4.5H9.039C7.83542 4.50132 6.68152 4.9801 5.83055 5.83126C4.97958 6.68241 4.50106 7.83642 4.5 9.04V12C4.5 12.1326 4.55268 12.2598 4.64645 12.3536C4.74021 12.4473 4.86739 12.5 5 12.5C5.13261 12.5 5.25979 12.4473 5.35355 12.3536C5.44732 12.2598 5.5 12.1326 5.5 12V9.04C5.50079 8.10138 5.87401 7.20143 6.53772 6.53772C7.20143 5.87401 8.10138 5.50079 9.04 5.5H22.96C23.8985 5.50106 24.7983 5.87436 25.462 6.53801C26.1256 7.20166 26.4989 8.10146 26.5 9.04V22.96C26.4989 23.8984 26.1256 24.7981 25.4619 25.4616C24.7982 26.1251 23.8984 26.4982 22.96 26.499H20C19.8674 26.499 19.7402 26.5517 19.6464 26.6454C19.5527 26.7392 19.5 26.8664 19.5 26.999C19.5 27.1316 19.5527 27.2588 19.6464 27.3526C19.7402 27.4463 19.8674 27.499 20 27.499H22.96C24.1636 27.4979 25.3176 27.0194 26.1687 26.1684C27.0199 25.3175 27.4987 24.1636 27.5 22.96V9.039C27.4987 7.83542 27.0199 6.68152 26.1687 5.83055C25.3176 4.97958 24.1636 4.50106 22.96 4.5H22.961Z M13.354 18.6459C13.2602 18.5522 13.1331 18.4995 13.0005 18.4995C12.8679 18.4995 12.7408 18.5522 12.647 18.6459L5.5 25.7939V18.9999C5.5 18.8673 5.44732 18.7401 5.35355 18.6464C5.25979 18.5526 5.13261 18.4999 5 18.4999C4.86739 18.4999 4.74021 18.5526 4.64645 18.6464C4.55268 18.7401 4.5 18.8673 4.5 18.9999V26.9979C4.5 27.1305 4.55268 27.2577 4.64645 27.3515C4.74021 27.4452 4.86739 27.4979 5 27.4979L13 27.4999C13.1326 27.4999 13.2598 27.4472 13.3536 27.3535C13.4473 27.2597 13.5 27.1325 13.5 26.9999C13.5 26.8673 13.4473 26.7401 13.3536 26.6464C13.2598 26.5526 13.1326 26.4999 13 26.4999L6.21 26.4979L13.354 19.3529C13.4007 19.3066 13.4377 19.2515 13.4629 19.1909C13.4882 19.1302 13.5012 19.0651 13.5012 18.9994C13.5012 18.9337 13.4882 18.8686 13.4629 18.8079C13.4377 18.7473 13.4007 18.6922 13.354 18.6459Z"/></svg>