<svg xmlns="http://www.w3.org/2000/svg" width="32" height="32" viewBox="0 0 32 32"><path d="M27 19.5C26.8675 19.5003 26.7404 19.553 26.6467 19.6467C26.553 19.7404 26.5003 19.8675 26.5 20V22.961C26.4989 23.8993 26.1257 24.7988 25.4623 25.4623C24.7988 26.1257 23.8993 26.4989 22.961 26.5H9.039C8.1008 26.4987 7.20141 26.1254 6.53801 25.462C5.87461 24.7986 5.50132 23.8992 5.5 22.961V9.039C5.50106 8.10055 5.87439 7.20086 6.53807 6.53737C7.20175 5.87387 8.10155 5.50079 9.04 5.5H12C12.1326 5.5 12.2598 5.44732 12.3536 5.35355C12.4473 5.25979 12.5 5.13261 12.5 5C12.5 4.86739 12.4473 4.74021 12.3536 4.64645C12.2598 4.55268 12.1326 4.5 12 4.5H9.04C7.83624 4.50106 6.68209 4.97972 5.8309 5.8309C4.97972 6.68209 4.50106 7.83624 4.5 9.04V22.96C4.50106 24.1638 4.97972 25.3179 5.8309 26.1691C6.68209 27.0203 7.83624 27.4989 9.04 27.5H22.96C24.1636 27.4989 25.3176 27.0204 26.1687 26.1694C27.0199 25.3185 27.4987 24.1646 27.5 22.961V20C27.5001 19.9343 27.4873 19.8692 27.4622 19.8085C27.4371 19.7478 27.4003 19.6926 27.3538 19.6462C27.3074 19.5997 27.2522 19.5629 27.1915 19.5378C27.1308 19.5127 27.0657 19.4999 27 19.5Z M26.9998 4.502L18.9998 4.5C18.8672 4.5 18.74 4.55268 18.6462 4.64645C18.5525 4.74021 18.4998 4.86739 18.4998 5C18.4998 5.13261 18.5525 5.25979 18.6462 5.35355C18.74 5.44732 18.8672 5.5 18.9998 5.5L25.7898 5.502L18.6468 12.646C18.599 12.6921 18.5609 12.7473 18.5347 12.8083C18.5085 12.8693 18.4947 12.9349 18.4942 13.0013C18.4936 13.0677 18.5062 13.1335 18.5314 13.195C18.5565 13.2564 18.5936 13.3123 18.6406 13.3592C18.6875 13.4061 18.7434 13.4433 18.8048 13.4684C18.8663 13.4936 18.9321 13.5062 18.9985 13.5056C19.0649 13.505 19.1305 13.4913 19.1915 13.4651C19.2525 13.4388 19.3077 13.4008 19.3538 13.353L26.4998 6.207V13C26.4998 13.1326 26.5525 13.2598 26.6462 13.3536C26.74 13.4473 26.8672 13.5 26.9998 13.5C27.1324 13.5 27.2596 13.4473 27.3533 13.3536C27.4471 13.2598 27.4998 13.1326 27.4998 13V5.002C27.5002 4.93623 27.4875 4.87103 27.4625 4.81019C27.4375 4.74935 27.4007 4.69407 27.3542 4.64756C27.3077 4.60105 27.2524 4.56424 27.1916 4.53925C27.1308 4.51426 27.0656 4.5016 26.9998 4.502Z"/></svg>