<svg xmlns="http://www.w3.org/2000/svg" width="32" height="32" viewBox="0 0 32 32"><path d="M16 2.5C13.33 2.5 10.7199 3.29176 8.49981 4.77516C6.27974 6.25856 4.54942 8.36697 3.52763 10.8338C2.50585 13.3006 2.2385 16.015 2.7594 18.6337C3.28031 21.2525 4.56606 23.6579 6.45406 25.5459C8.34207 27.434 10.7475 28.7197 13.3663 29.2406C15.985 29.7615 18.6994 29.4942 21.1662 28.4724C23.633 27.4506 25.7414 25.7203 27.2248 23.5002C28.7082 21.2801 29.5 18.67 29.5 16C29.496 12.4208 28.0724 8.98932 25.5416 6.45844C23.0107 3.92756 19.5792 2.50397 16 2.5ZM16 28.5C13.5277 28.5 11.111 27.7669 9.05538 26.3934C6.99976 25.0199 5.39761 23.0676 4.45151 20.7835C3.50542 18.4995 3.25787 15.9861 3.74019 13.5614C4.22251 11.1366 5.41301 8.90932 7.16117 7.16117C8.90933 5.41301 11.1366 4.2225 13.5614 3.74018C15.9861 3.25787 18.4995 3.50541 20.7835 4.45151C23.0676 5.3976 25.0199 6.99976 26.3934 9.05537C27.7669 11.111 28.5 13.5277 28.5 16C28.4963 19.3141 27.1782 22.4913 24.8347 24.8347C22.4913 27.1781 19.3141 28.4963 16 28.5Z M23.186 13.5358C23.1251 13.511 23.0599 13.4985 22.9941 13.499C22.9284 13.4996 22.8634 13.5132 22.8029 13.5391C22.7425 13.5649 22.6878 13.6025 22.6419 13.6497C22.5961 13.6968 22.5601 13.7526 22.536 13.8138C21.646 16.0398 20.492 17.3428 19.289 17.4818C18.316 17.6018 17.299 16.9578 16.409 15.6888C15.319 14.1338 13.986 13.3618 12.62 13.5198C11.488 13.6508 9.85999 14.5028 8.53599 17.8138C8.49202 17.9358 8.49713 18.07 8.55026 18.1883C8.60338 18.3065 8.70036 18.3995 8.82074 18.4477C8.94112 18.4958 9.07548 18.4953 9.19549 18.4462C9.31549 18.3972 9.41176 18.3035 9.46398 18.1848C10.354 15.9588 11.517 14.6548 12.736 14.5138C13.717 14.4008 14.72 15.0218 15.591 16.2638C16.701 17.8458 18.051 18.6398 19.404 18.4758C20.526 18.3458 22.14 17.4958 23.464 14.1858C23.5133 14.0627 23.5117 13.9251 23.4596 13.8032C23.4074 13.6813 23.309 13.5851 23.186 13.5358Z"/></svg>