<svg xmlns="http://www.w3.org/2000/svg" width="32" height="32" viewBox="0 0 32 32"><path d="M22.1212 5.81293C21.9474 5.72502 21.7463 5.70812 21.5604 5.76578C21.3744 5.82345 21.2182 5.95117 21.1247 6.12194C21.0312 6.29271 21.0078 6.49315 21.0593 6.68088C21.1109 6.86861 21.2335 7.02893 21.4012 7.12793C23.5937 8.32766 25.3243 10.2233 26.3198 12.5158C27.3154 14.8082 27.5192 17.367 26.8991 19.7881C26.279 22.2093 24.8704 24.355 22.8955 25.8867C20.9205 27.4184 18.4918 28.2489 15.9925 28.247C13.4932 28.2452 11.0657 27.4111 9.09303 25.8765C7.12037 24.3418 5.71491 22.194 5.09844 19.7719C4.48196 17.3499 4.68958 14.7915 5.68853 12.5005C6.68748 10.2095 8.42087 8.31641 10.6152 7.11993C10.7016 7.07278 10.778 7.00907 10.8398 6.93242C10.9017 6.85577 10.9478 6.76769 10.9756 6.67321C11.0035 6.57872 11.0124 6.47969 11.0019 6.38175C10.9915 6.28382 10.9618 6.1889 10.9147 6.10243C10.8675 6.01595 10.8038 5.93961 10.7272 5.87776C10.6505 5.81591 10.5624 5.76976 10.4679 5.74195C10.3735 5.71414 10.2744 5.70521 10.1765 5.71567C10.0786 5.72613 9.98364 5.75578 9.89716 5.80293C7.41018 7.15874 5.44549 9.3041 4.31314 11.9005C3.18078 14.4968 2.94525 17.3963 3.6437 20.1414C4.34216 22.8865 5.93483 25.3208 8.17037 27.0602C10.4059 28.7997 13.157 29.7451 15.9896 29.7475C18.8221 29.7498 21.5748 28.8088 23.8132 27.073C26.0516 25.3373 27.6482 22.9055 28.3512 20.1616C29.0541 17.4177 28.8233 14.5178 27.6952 11.9196C26.5671 9.32138 24.6059 7.1728 22.1212 5.81293Z M15.9839 17.75C16.1828 17.75 16.3736 17.671 16.5142 17.5303C16.6549 17.3897 16.7339 17.1989 16.7339 17V3C16.7339 2.80109 16.6549 2.61032 16.5142 2.46967C16.3736 2.32902 16.1828 2.25 15.9839 2.25C15.785 2.25 15.5942 2.32902 15.4536 2.46967C15.3129 2.61032 15.2339 2.80109 15.2339 3V17C15.2339 17.1989 15.3129 17.3897 15.4536 17.5303C15.5942 17.671 15.785 17.75 15.9839 17.75Z"/></svg>