<svg width="32" height="32" viewBox="0 0 32 32" fill="none" xmlns="http://www.w3.org/2000/svg">
<path d="M16.0002 1.9998C8.28054 1.9998 2.00024 8.2801 2.00024 15.9998C2.00024 23.7195 8.28054 29.9998 16.0002 29.9998C23.7199 29.9998 30.0002 23.7195 30.0002 15.9998C30.0002 8.2801 23.7199 1.9998 16.0002 1.9998ZM16.0002 27.9998C9.38304 27.9998 4.00024 22.617 4.00024 15.9998C4.00024 9.3826 9.38304 3.9998 16.0002 3.9998C22.6174 3.9998 28.0002 9.3826 28.0002 15.9998C28.0002 22.617 22.6174 27.9998 16.0002 27.9998Z" fill="black"/>
<path d="M23.3713 13.0711C22.8625 12.865 22.2766 13.1141 22.0715 13.6287C21.2649 15.6463 20.2297 16.8699 19.2317 16.9861C18.1799 17.0906 17.2708 16.0457 16.8186 15.4021C15.6174 13.6892 14.1106 12.8445 12.5627 13.0232C11.2951 13.1707 9.48754 14.0886 8.07154 17.6287C7.86644 18.1414 8.11644 18.7234 8.62914 18.9285C8.75024 18.9773 8.87624 18.9998 9.00024 18.9998C9.39674 18.9998 9.77274 18.7625 9.92894 18.3709C10.7365 16.3523 11.7805 15.1277 12.7932 15.0096C13.5657 14.9266 14.4328 15.4832 15.1809 16.5506C16.4006 18.2908 17.925 19.1512 19.4612 18.9725C20.718 18.827 22.513 17.91 23.929 14.3709C24.134 13.8582 23.884 13.2762 23.3713 13.0711Z" fill="black"/>
</svg>
