<svg width="32" height="32" viewBox="0 0 32 32" fill="none" xmlns="http://www.w3.org/2000/svg">
<path d="M16.0003 2.49985C13.3302 2.49985 10.7201 3.29161 8.50005 4.77501C6.27999 6.25841 4.54966 8.36682 3.52788 10.8336C2.50609 13.3004 2.23875 16.0148 2.75965 18.6336C3.28055 21.2523 4.5663 23.6578 6.45431 25.5458C8.34232 27.4338 10.7478 28.7196 13.3665 29.2405C15.9853 29.7614 18.6997 29.494 21.1665 28.4722C23.6333 27.4504 25.7417 25.7201 27.2251 23.5C28.7085 21.28 29.5002 18.6699 29.5002 15.9999C29.4963 12.4206 28.0728 8.98912 25.5419 6.45822C23.011 3.92733 19.5795 2.50376 16.0003 2.49985ZM16.0003 28.4999C13.528 28.4999 11.1112 27.7667 9.05562 26.3932C7.00001 25.0197 5.39785 23.0675 4.45176 20.7834C3.50566 18.4993 3.25812 15.986 3.74043 13.5612C4.22275 11.1365 5.41326 8.90917 7.16142 7.16102C8.90957 5.41286 11.1369 4.22235 13.5616 3.74003C15.9864 3.25772 18.4997 3.50526 20.7838 4.45136C23.0679 5.39745 25.0201 6.99961 26.3936 9.05522C27.7671 11.1108 28.5002 13.5276 28.5002 15.9999C28.4965 19.3139 27.1784 22.4912 24.835 24.8346C22.4916 27.178 19.3143 28.4961 16.0003 28.4999Z" fill="black"/>
<path d="M23.1858 13.536C23.1249 13.5115 23.0598 13.4993 22.9941 13.5001C22.9285 13.5008 22.8636 13.5145 22.8033 13.5404C22.743 13.5662 22.6883 13.6037 22.6425 13.6507C22.5967 13.6977 22.5607 13.7533 22.5364 13.8143C21.6458 16.0399 20.4924 17.3426 19.2893 17.4823C18.3157 17.6015 17.2981 16.9579 16.4094 15.6893C15.3196 14.1336 13.9856 13.3622 12.6204 13.5204C11.4876 13.6512 9.8606 14.5028 8.53637 17.8143C8.512 17.8752 8.49988 17.9404 8.50068 18.006C8.50148 18.0716 8.51519 18.1364 8.54103 18.1967C8.56688 18.257 8.60435 18.3116 8.6513 18.3574C8.69826 18.4032 8.75378 18.4394 8.8147 18.4637C8.87561 18.4881 8.94073 18.5002 9.00633 18.4994C9.07194 18.4986 9.13674 18.4849 9.19705 18.4591C9.25735 18.4332 9.31197 18.3958 9.3578 18.3488C9.40362 18.3018 9.43974 18.2463 9.46411 18.1854C10.3547 15.9588 11.5168 14.6551 12.7356 14.5135C13.717 14.4012 14.72 15.0223 15.5911 16.2635C16.7004 17.8465 18.0511 18.6395 19.4036 18.4755C20.5256 18.3456 22.1399 17.496 23.4641 14.1854C23.4885 14.1245 23.5007 14.0594 23.5 13.9938C23.4992 13.9282 23.4855 13.8633 23.4596 13.803C23.4338 13.7427 23.3963 13.6881 23.3493 13.6422C23.3023 13.5964 23.2468 13.5603 23.1858 13.536Z" fill="black"/>
</svg>
