<svg xmlns="http://www.w3.org/2000/svg" width="32" height="32" viewBox="0 0 32 32"><path d="M26 25.002L7 25V6C7 5.73478 6.89464 5.48043 6.70711 5.29289C6.51957 5.10536 6.26522 5 6 5C5.73478 5 5.48043 5.10536 5.29289 5.29289C5.10536 5.48043 5 5.73478 5 6V24.998C5.00106 25.5299 5.21329 26.0395 5.59002 26.4149C5.96675 26.7904 6.47715 27.0008 7.009 27L26 27.002C26.2652 27.002 26.5196 26.8966 26.7071 26.7091C26.8946 26.5216 27 26.2672 27 26.002C27 25.7368 26.8946 25.4824 26.7071 25.2949C26.5196 25.1074 26.2652 25.002 26 25.002Z M10.8 19.6L14.947 13.94L19.586 19.415C19.961 19.79 20.47 20 21 20C21.03 20 21.06 20 21.09 19.998C21.3758 19.9831 21.6551 19.9079 21.9097 19.7772C22.1643 19.6466 22.3883 19.4635 22.567 19.24L26.8 13.6C26.9591 13.3878 27.0275 13.1211 26.99 12.8586C26.9524 12.596 26.8122 12.3591 26.6 12.2C26.4949 12.1212 26.3754 12.0639 26.2482 12.0313C26.121 11.9987 25.9886 11.9915 25.8586 12.0101C25.596 12.0476 25.3591 12.1878 25.2 12.4L21.055 18.062L16.417 12.587C16.2207 12.3904 15.9856 12.2369 15.7266 12.1364C15.4676 12.0358 15.1905 11.9904 14.913 12.003C14.6272 12.0178 14.3477 12.0929 14.093 12.2234C13.8383 12.3538 13.614 12.5367 13.435 12.76L9.2 18.4C9.12121 18.5051 9.06388 18.6246 9.03129 18.7518C8.99869 18.879 8.99148 19.0114 9.01005 19.1414C9.02862 19.2714 9.07262 19.3965 9.13953 19.5095C9.20643 19.6225 9.29494 19.7212 9.4 19.8C9.50506 19.8788 9.62461 19.9361 9.75182 19.9687C9.87903 20.0013 10.0114 20.0085 10.1414 19.99C10.2714 19.9714 10.3965 19.9274 10.5095 19.8605C10.6225 19.7936 10.7212 19.7051 10.8 19.6Z"/></svg>