<svg xmlns="http://www.w3.org/2000/svg" width="32" height="32" viewBox="0 0 32 32"><path d="M26 25.252L7 25.25C6.95048 25.25 6.90206 25.2353 6.8608 25.208C6.81954 25.1806 6.78726 25.1416 6.768 25.096C6.75562 25.0655 6.7495 25.0329 6.75 25V6C6.75 5.80109 6.67099 5.61032 6.53033 5.46967C6.38968 5.32902 6.19892 5.25 6 5.25C5.80109 5.25 5.61033 5.32902 5.46967 5.46967C5.32902 5.61032 5.25 5.80109 5.25 6V24.998C5.24948 25.2281 5.29437 25.456 5.3821 25.6686C5.46984 25.8813 5.59869 26.0746 5.76127 26.2373C5.92385 26.4001 6.11696 26.5292 6.32953 26.6171C6.5421 26.7051 6.76995 26.7503 7 26.75L26 26.752C26.1989 26.752 26.3897 26.673 26.5303 26.5323C26.671 26.3917 26.75 26.2009 26.75 26.002C26.75 25.8031 26.671 25.6123 26.5303 25.4717C26.3897 25.331 26.1989 25.252 26 25.252Z M10.6 19.45L14.812 13.84C14.834 13.8132 14.8614 13.7915 14.8924 13.7761C14.9235 13.7608 14.9574 13.7522 14.992 13.751C15.042 13.747 15.092 13.757 15.138 13.778L19.763 19.238C20.091 19.566 20.536 19.75 21 19.75C21.027 19.75 21.053 19.75 21.08 19.748C21.3289 19.7351 21.5723 19.6699 21.7942 19.5565C22.0162 19.4431 22.2117 19.2841 22.368 19.09L26.6 13.45C26.7193 13.2909 26.7706 13.0909 26.7425 12.8939C26.7143 12.697 26.6091 12.5194 26.45 12.4C26.2909 12.2807 26.0908 12.2294 25.8939 12.2575C25.697 12.2857 25.5193 12.3909 25.4 12.55L21.192 18.16C21.1698 18.1869 21.1423 18.2088 21.1111 18.2243C21.0799 18.2398 21.0458 18.2486 21.011 18.25C20.9605 18.2531 20.9101 18.2439 20.864 18.223L16.241 12.764C16.07 12.5909 15.8644 12.4559 15.6376 12.3678C15.4108 12.2797 15.168 12.2406 14.925 12.253C14.6758 12.2657 14.432 12.3308 14.2097 12.4442C13.9874 12.5576 13.7916 12.7167 13.635 12.911L9.4 18.55C9.3409 18.6288 9.29791 18.7185 9.27347 18.8139C9.24902 18.9093 9.24361 19.0086 9.25754 19.1061C9.27147 19.2036 9.30446 19.2974 9.35464 19.3821C9.40482 19.4669 9.47121 19.5409 9.55 19.6C9.62879 19.6591 9.71845 19.7021 9.81386 19.7265C9.90927 19.751 10.0086 19.7564 10.1061 19.7425C10.2036 19.7285 10.2974 19.6955 10.3821 19.6454C10.4669 19.5952 10.5409 19.5288 10.6 19.45Z"/></svg>