<svg xmlns="http://www.w3.org/2000/svg" width="32" height="32" viewBox="0 0 32 32"><path d="M14.001 4C11.5157 4 9.50098 6.01472 9.50098 8.5C9.50098 10.9853 11.5157 13 14.001 13C16.4863 13 18.501 10.9853 18.501 8.5C18.501 6.01472 16.4863 4 14.001 4ZM7.50098 8.5C7.50098 4.91015 10.4111 2 14.001 2C17.5908 2 20.501 4.91015 20.501 8.5C20.501 10.5921 19.5126 12.4534 17.9772 13.6423C18.4727 13.8073 18.9586 14.0035 19.4319 14.2302C19.93 14.4687 20.1405 15.0659 19.9019 15.564C19.6634 16.0621 19.0662 16.2725 18.5681 16.034C17.1426 15.3513 15.5818 14.9979 14.0013 15L14 15C8.40501 15 4 19.3151 4 24.0762C4 24.6451 4.25529 25.183 4.84275 25.706C5.44655 26.2435 6.3609 26.7221 7.53372 27.1026C9.8747 27.8621 12.9924 28.1496 15.9369 27.9307C16.4876 27.8898 16.9673 28.3031 17.0082 28.8539C17.0492 29.4046 16.6359 29.8843 16.0851 29.9252C12.9486 30.1584 9.56078 29.8629 6.91652 29.005C5.59671 28.5768 4.39851 27.9882 3.51291 27.1998C2.61096 26.3969 2 25.3502 2 24.0762C2 19.3431 5.38286 15.19 10.0257 13.6431C8.48983 12.4542 7.50098 10.5926 7.50098 8.5ZM21.9998 16C22.433 16 22.817 16.279 22.9509 16.691L24.0734 20.1459H27.7061C28.1394 20.1459 28.5233 20.4249 28.6572 20.8369C28.7911 21.2489 28.6444 21.7003 28.2939 21.9549L25.355 24.0902L26.4776 27.5451C26.6114 27.9571 26.4648 28.4085 26.1143 28.6631C25.7638 28.9178 25.2892 28.9178 24.9387 28.6631L21.9998 26.5279L19.0609 28.6631C18.7104 28.9178 18.2358 28.9178 17.8853 28.6631C17.5348 28.4085 17.3882 27.9571 17.522 27.5451L18.6446 24.0902L15.7057 21.9549C15.3552 21.7003 15.2085 21.2489 15.3424 20.8369C15.4763 20.4249 15.8602 20.1459 16.2935 20.1459H19.9262L21.0487 16.691C21.1826 16.279 21.5666 16 21.9998 16ZM21.9998 20.2361L21.6038 21.4549C21.4699 21.8669 21.0859 22.1459 20.6527 22.1459H19.3711L20.408 22.8992C20.7584 23.1538 20.9051 23.6052 20.7712 24.0172L20.3752 25.2361L21.412 24.4828C21.7625 24.2281 22.2371 24.2281 22.5876 24.4828L23.6244 25.2361L23.2284 24.0172C23.0945 23.6052 23.2411 23.1538 23.5916 22.8992L24.6285 22.1459H23.3469C22.9137 22.1459 22.5297 21.8669 22.3958 21.4549L21.9998 20.2361Z"/></svg>