<svg xmlns="http://www.w3.org/2000/svg" width="32" height="32" viewBox="0 0 32 32"><path d="M14.001 3.75C11.3776 3.75 9.25098 5.87665 9.25098 8.5C9.25098 11.1234 11.3776 13.25 14.001 13.25C16.6243 13.25 18.751 11.1234 18.751 8.5C18.751 5.87665 16.6243 3.75 14.001 3.75ZM7.75098 8.5C7.75098 5.04822 10.5492 2.25 14.001 2.25C17.4528 2.25 20.251 5.04822 20.251 8.5C20.251 10.689 19.1256 12.6152 17.4218 13.7316C18.0729 13.9194 18.7092 14.1613 19.3239 14.4557C19.6975 14.6346 19.8553 15.0824 19.6764 15.456C19.4975 15.8296 19.0496 15.9874 18.6761 15.8085C17.2167 15.1097 15.619 14.7479 14.001 14.75C8.286 14.75 3.75 19.1596 3.75 24.0762C3.75 24.7333 4.04975 25.3347 4.67652 25.8927C5.31554 26.4616 6.26538 26.954 7.45657 27.3404C9.83546 28.1122 12.9869 28.4007 15.9554 28.1801C16.3685 28.1493 16.7282 28.4593 16.7589 28.8724C16.7896 29.2855 16.4797 29.6452 16.0666 29.6759C12.9541 29.9073 9.60002 29.6128 6.99367 28.7672C5.69223 28.345 4.52951 27.7701 3.67914 27.0131C2.8165 26.2451 2.25 25.2621 2.25 24.0762C2.25 19.3054 5.78556 15.1151 10.5807 13.732C8.87662 12.6157 7.75098 10.6893 7.75098 8.5ZM22.7131 16.7682C22.6127 16.4592 22.3247 16.25 21.9998 16.25C21.6749 16.25 21.3869 16.4592 21.2865 16.7682L20.1078 20.3959H16.2935C15.9685 20.3959 15.6806 20.6051 15.5802 20.9141C15.4798 21.2232 15.5898 21.5617 15.8526 21.7527L18.9385 23.9947L17.7598 27.6223C17.6594 27.9314 17.7694 28.2699 18.0322 28.4609C18.2951 28.6518 18.6511 28.6518 18.9139 28.4609L21.9998 26.2188L25.0857 28.4609C25.3485 28.6518 25.7045 28.6518 25.9673 28.4609C26.2302 28.2699 26.3402 27.9314 26.2398 27.6223L25.0611 23.9947L28.147 21.7527C28.4098 21.5617 28.5198 21.2232 28.4194 20.9141C28.319 20.6051 28.0311 20.3959 27.7061 20.3959H23.8918L22.7131 16.7682ZM21.366 21.3777L21.9998 19.4271L22.6336 21.3777C22.734 21.6867 23.022 21.8959 23.3469 21.8959H25.3979L23.7386 23.1014C23.4757 23.2924 23.3657 23.6309 23.4661 23.94L24.0999 25.8906L22.4406 24.685C22.1778 24.494 21.8218 24.494 21.559 24.685L19.8997 25.8906L20.5335 23.94C20.6339 23.6309 20.5239 23.2924 20.261 23.1014L18.6017 21.8959H20.6527C20.9776 21.8959 21.2656 21.6867 21.366 21.3777Z"/></svg>