<svg xmlns="http://www.w3.org/2000/svg" width="32" height="32" viewBox="0 0 32 32"><path d="M26 7.101V7C25.9989 5.93946 25.5772 4.92266 24.8273 4.17274C24.0773 3.42283 23.0605 3.00106 22 3H10C8.93946 3.00106 7.92266 3.42283 7.17274 4.17274C6.42283 4.92266 6.00106 5.93946 6 7V7.101C4.87149 7.33289 3.85745 7.94678 3.12881 8.83918C2.40017 9.73158 2.0015 10.8479 2 12V18C2.00159 19.3256 2.52888 20.5964 3.46622 21.5338C4.40356 22.4711 5.6744 22.9984 7 23H8V27C8.00079 27.5302 8.21176 28.0384 8.58666 28.4133C8.96156 28.7882 9.46981 28.9992 10 29H22C22.5302 28.9992 23.0384 28.7882 23.4133 28.4133C23.7882 28.0384 23.9992 27.5302 24 27V23H25C26.3256 22.9984 27.5964 22.4711 28.5338 21.5338C29.4711 20.5964 29.9984 19.3256 30 18V12C29.9983 10.848 29.5996 9.73173 28.871 8.83936C28.1424 7.947 27.1284 7.33306 26 7.101ZM10 5H22C22.5302 5.00079 23.0384 5.21176 23.4133 5.58666C23.7882 5.96156 23.9992 6.46981 24 7H8C8.00079 6.46981 8.21176 5.96156 8.58666 5.58666C8.96156 5.21176 9.46981 5.00079 10 5ZM10 27V18H22L22.001 27H10ZM28 18C27.9989 18.7953 27.6825 19.5578 27.1202 20.1202C26.5578 20.6825 25.7953 20.9989 25 21H24V18C23.9992 17.4698 23.7882 16.9616 23.4133 16.5867C23.0384 16.2118 22.5302 16.0008 22 16H10C9.46981 16.0008 8.96156 16.2118 8.58666 16.5867C8.21176 16.9616 8.00079 17.4698 8 18V21H7C6.20459 20.9992 5.44199 20.6829 4.87956 20.1204C4.31712 19.558 4.00079 18.7954 4 18V12C4.00079 11.2046 4.31712 10.442 4.87956 9.87956C5.44199 9.31712 6.20459 9.00079 7 9H25C25.7954 9.00079 26.558 9.31712 27.1204 9.87956C27.6829 10.442 27.9992 11.2046 28 12V18Z M19 20H13C12.7348 20 12.4804 20.1054 12.2929 20.2929C12.1054 20.4804 12 20.7348 12 21C12 21.2652 12.1054 21.5196 12.2929 21.7071C12.4804 21.8946 12.7348 22 13 22H19C19.2652 22 19.5196 21.8946 19.7071 21.7071C19.8946 21.5196 20 21.2652 20 21C20 20.7348 19.8946 20.4804 19.7071 20.2929C19.5196 20.1054 19.2652 20 19 20ZM19 23H13C12.7348 23 12.4804 23.1054 12.2929 23.2929C12.1054 23.4804 12 23.7348 12 24C12 24.2652 12.1054 24.5196 12.2929 24.7071C12.4804 24.8946 12.7348 25 13 25H19C19.2652 25 19.5196 24.8946 19.7071 24.7071C19.8946 24.5196 20 24.2652 20 24C20 23.7348 19.8946 23.4804 19.7071 23.2929C19.5196 23.1054 19.2652 23 19 23Z"/></svg>