<svg xmlns="http://www.w3.org/2000/svg" width="32" height="32" viewBox="0 0 32 32"><path d="M25.75 7.326V7C25.7489 6.00576 25.3535 5.05255 24.6505 4.34952C23.9474 3.64649 22.9942 3.25106 22 3.25H10C9.00584 3.25132 8.05279 3.64684 7.34981 4.34981C6.64684 5.05279 6.25132 6.00584 6.25 7V7.326C5.13674 7.50298 4.12285 8.07051 3.38992 8.92694C2.65698 9.78338 2.25289 10.8728 2.25 12V18C2.25132 19.2594 2.75219 20.4668 3.6427 21.3573C4.53322 22.2478 5.74063 22.7487 7 22.75H8.25V27C8.25053 27.464 8.43507 27.9088 8.76315 28.2369C9.09122 28.5649 9.53603 28.7495 10 28.75H22C22.464 28.7495 22.9088 28.5649 23.2369 28.2369C23.5649 27.9088 23.7495 27.464 23.75 27V22.75H25C26.2594 22.7487 27.4668 22.2478 28.3573 21.3573C29.2478 20.4668 29.7487 19.2594 29.75 18V12C29.7471 10.8728 29.343 9.78338 28.6101 8.92694C27.8771 8.07051 26.8633 7.50298 25.75 7.326ZM7.75 7C7.75079 6.40351 7.9881 5.83167 8.40989 5.40989C8.83167 4.9881 9.40351 4.75079 10 4.75H22C22.5965 4.75079 23.1683 4.9881 23.5901 5.40989C24.0119 5.83167 24.2492 6.40351 24.25 7V7.25H7.75V7ZM22.25 27C22.25 27.0663 22.2237 27.1299 22.1768 27.1768C22.1299 27.2237 22.0663 27.25 22 27.25H10C9.9337 27.25 9.87011 27.2237 9.82322 27.1768C9.77634 27.1299 9.75 27.0663 9.75 27V18C9.75 17.9337 9.77634 17.8701 9.82322 17.8232C9.87011 17.7763 9.9337 17.75 10 17.75H22C22.0663 17.75 22.1299 17.7763 22.1768 17.8232C22.2237 17.8701 22.25 17.9337 22.25 18V27ZM28.25 18C28.2489 18.8616 27.9062 19.6877 27.2969 20.2969C26.6877 20.9062 25.8616 21.2489 25 21.25H23.75V18C23.7495 17.536 23.5649 17.0912 23.2369 16.7631C22.9088 16.4351 22.464 16.2505 22 16.25H10C9.53603 16.2505 9.09122 16.4351 8.76315 16.7631C8.43507 17.0912 8.25053 17.536 8.25 18V21.25H7C6.13837 21.2489 5.31234 20.9062 4.70307 20.2969C4.09381 19.6877 3.75106 18.8616 3.75 18V12C3.75106 11.1384 4.09381 10.3123 4.70307 9.70307C5.31234 9.09381 6.13837 8.75106 7 8.75H25C25.8616 8.75106 26.6877 9.09381 27.2969 9.70307C27.9062 10.3123 28.2489 11.1384 28.25 12V18Z M19 20.25H13C12.8011 20.25 12.6103 20.329 12.4697 20.4697C12.329 20.6103 12.25 20.8011 12.25 21C12.25 21.1989 12.329 21.3897 12.4697 21.5303C12.6103 21.671 12.8011 21.75 13 21.75H19C19.1989 21.75 19.3897 21.671 19.5303 21.5303C19.671 21.3897 19.75 21.1989 19.75 21C19.75 20.8011 19.671 20.6103 19.5303 20.4697C19.3897 20.329 19.1989 20.25 19 20.25ZM19 23.25H13C12.8011 23.25 12.6103 23.329 12.4697 23.4697C12.329 23.6103 12.25 23.8011 12.25 24C12.25 24.1989 12.329 24.3897 12.4697 24.5303C12.6103 24.671 12.8011 24.75 13 24.75H19C19.1989 24.75 19.3897 24.671 19.5303 24.5303C19.671 24.3897 19.75 24.1989 19.75 24C19.75 23.8011 19.671 23.6103 19.5303 23.4697C19.3897 23.329 19.1989 23.25 19 23.25Z"/></svg>