<svg width="32" height="32" viewBox="0 0 32 32" fill="none" xmlns="http://www.w3.org/2000/svg">
<path d="M16.0002 2.25C13.2808 2.25 10.6223 3.05642 8.36116 4.56729C6.09998 6.07816 4.33761 8.22562 3.29691 10.7381C2.2562 13.2506 1.98391 16.0153 2.51445 18.6825C3.045 21.3497 4.35456 23.7997 6.27753 25.7227C8.2005 27.6457 10.6505 28.9553 13.3178 29.4858C15.985 30.0163 18.7497 29.744 21.2621 28.7033C23.7746 27.6626 25.9221 25.9003 27.433 23.6391C28.9438 21.3779 29.7502 18.7195 29.7502 16C29.7462 12.3545 28.2963 8.85949 25.7185 6.28174C23.1408 3.70399 19.6457 2.25404 16.0002 2.25ZM16.0002 28.25C13.5774 28.25 11.209 27.5315 9.19452 26.1855C7.18001 24.8395 5.6099 22.9263 4.68273 20.6879C3.75555 18.4495 3.51296 15.9864 3.98563 13.6101C4.4583 11.2339 5.625 9.05114 7.33819 7.33794C9.05139 5.62475 11.2341 4.45805 13.6104 3.98538C15.9867 3.51271 18.4497 3.7553 20.6881 4.68248C22.9265 5.60965 24.8397 7.17976 26.1858 9.19426C27.5318 11.2088 28.2502 13.5772 28.2502 16C28.2466 19.2478 26.9549 22.3615 24.6583 24.6581C22.3618 26.9546 19.248 28.2464 16.0002 28.25Z" fill="black"/>
<path d="M16 22.75C16.5523 22.75 17 22.3023 17 21.75C17 21.1977 16.5523 20.75 16 20.75C15.4477 20.75 15 21.1977 15 21.75C15 22.3023 15.4477 22.75 16 22.75Z" fill="black"/>
<path d="M16.0002 18.75C16.1991 18.75 16.3899 18.6709 16.5305 18.5303C16.6712 18.3896 16.7502 18.1989 16.7502 18V11C16.7502 10.8011 16.6712 10.6103 16.5306 10.4697C16.3899 10.329 16.1992 10.25 16.0002 10.25C15.8013 10.25 15.6106 10.329 15.4699 10.4697C15.3293 10.6103 15.2503 10.8011 15.2503 11V18C15.2503 18.1989 15.3293 18.3896 15.47 18.5303C15.6106 18.6709 15.8014 18.7499 16.0002 18.75Z" fill="black"/>
</svg>
