<svg xmlns="http://www.w3.org/2000/svg" width="32" height="32" viewBox="0 0 32 32"><path d="M16 2C13.2311 2 10.5243 2.82109 8.22202 4.35943C5.91973 5.89777 4.12532 8.08427 3.06569 10.6424C2.00607 13.2006 1.72882 16.0155 2.26901 18.7313C2.80921 21.447 4.14258 23.9416 6.10051 25.8995C8.05845 27.8574 10.553 29.1908 13.2687 29.731C15.9845 30.2712 18.7994 29.9939 21.3576 28.9343C23.9157 27.8747 26.1022 26.0803 27.6406 23.778C29.1789 21.4757 30 18.7689 30 16C29.9958 12.2883 28.5194 8.72977 25.8948 6.10518C23.2702 3.48059 19.7117 2.00423 16 2ZM16 28C13.6266 28 11.3066 27.2962 9.33316 25.9776C7.35977 24.6591 5.8217 22.7849 4.91345 20.5922C4.0052 18.3995 3.76756 15.9867 4.23058 13.6589C4.69361 11.3311 5.83649 9.19295 7.51472 7.51472C9.19295 5.83649 11.3312 4.6936 13.6589 4.23058C15.9867 3.76755 18.3995 4.00519 20.5922 4.91345C22.7849 5.8217 24.6591 7.35977 25.9776 9.33316C27.2962 11.3065 28 13.6266 28 16C27.9966 19.1815 26.7312 22.2318 24.4815 24.4815C22.2318 26.7312 19.1815 27.9966 16 28Z M16.0001 9C15.3343 9.00073 14.6792 9.16748 14.0941 9.48515C13.509 9.80282 13.0123 10.2614 12.649 10.8193C12.2858 11.3773 12.0673 12.017 12.0136 12.6807C11.9598 13.3443 12.0724 14.0108 12.3411 14.62C12.5681 15.13 12.9011 15.585 13.3171 15.956L12.0371 20.621C11.9807 20.9105 11.9891 21.2089 12.0617 21.4947C12.1343 21.7805 12.2692 22.0468 12.4569 22.2743C12.6445 22.5018 12.8802 22.685 13.147 22.8106C13.4139 22.9363 13.7052 23.0013 14.0001 23.001H17.9991C18.4514 23.0011 18.8902 22.8474 19.2437 22.5652C19.5971 22.283 19.8441 21.8891 19.9441 21.448C20.0141 21.147 20.0131 20.834 19.9421 20.533L18.6591 15.988C19.2649 15.4489 19.6924 14.7384 19.8852 13.9507C20.0779 13.163 20.0267 12.3354 19.7383 11.5775C19.4499 10.8196 18.938 10.1672 18.2704 9.7069C17.6028 9.24659 16.811 9.00006 16.0001 9ZM16.5471 15.866L17.9991 21L13.9821 21.076L15.4221 15.84C15.4795 15.6291 15.4666 15.4052 15.3852 15.2023C15.3038 14.9995 15.1584 14.8287 14.9711 14.716C14.5951 14.4904 14.3037 14.1475 14.1416 13.74C13.9796 13.3326 13.956 12.8832 14.0744 12.461C14.1928 12.0388 14.4466 11.6672 14.7969 11.4034C15.1471 11.1396 15.5744 10.9983 16.0129 11.0011C16.4513 11.0039 16.8767 11.1507 17.2236 11.4189C17.5705 11.6872 17.8196 12.062 17.9325 12.4856C18.0455 12.9093 18.0162 13.3584 17.849 13.7637C17.6817 14.1691 17.3859 14.5082 17.0071 14.729L16.9541 14.762C16.778 14.8792 16.6438 15.0492 16.5706 15.2476C16.4975 15.4461 16.4892 15.6626 16.5471 15.866Z"/></svg>