<svg xmlns="http://www.w3.org/2000/svg" width="32" height="32" viewBox="0 0 32 32"><path d="M16 2.5C13.33 2.5 10.7199 3.29176 8.49981 4.77516C6.27974 6.25856 4.54942 8.36697 3.52763 10.8338C2.50585 13.3006 2.2385 16.015 2.7594 18.6337C3.28031 21.2525 4.56606 23.6579 6.45406 25.5459C8.34207 27.434 10.7475 28.7197 13.3663 29.2406C15.985 29.7615 18.6994 29.4942 21.1662 28.4724C23.633 27.4506 25.7414 25.7203 27.2248 23.5002C28.7082 21.2801 29.5 18.67 29.5 16C29.496 12.4208 28.0724 8.98932 25.5416 6.45844C23.0107 3.92756 19.5792 2.50397 16 2.5ZM16 28.5C13.5277 28.5 11.111 27.7669 9.05538 26.3934C6.99976 25.0199 5.39761 23.0676 4.45151 20.7835C3.50542 18.4995 3.25787 15.9861 3.74019 13.5614C4.22251 11.1366 5.41302 8.90932 7.16117 7.16117C8.90933 5.41301 11.1366 4.2225 13.5614 3.74018C15.9861 3.25787 18.4995 3.50541 20.7835 4.45151C23.0676 5.3976 25.0199 6.99976 26.3934 9.05537C27.7669 11.111 28.5 13.5277 28.5 16C28.4963 19.3141 27.1781 22.4913 24.8347 24.8347C22.4913 27.1781 19.3141 28.4963 16 28.5Z M19.4999 13C19.4992 12.4729 19.3794 11.9528 19.1495 11.4785C18.9197 11.0042 18.5856 10.5879 18.1724 10.2607C17.7591 9.93358 17.2773 9.70397 16.7629 9.58907C16.2485 9.47416 15.7148 9.47692 15.2016 9.59714C14.6884 9.71736 14.209 9.95193 13.7991 10.2833C13.3893 10.6148 13.0596 11.0345 12.8346 11.5111C12.6097 11.9878 12.4953 12.5091 12.5 13.0362C12.5047 13.5633 12.6284 14.0825 12.8619 14.555C13.1019 15.038 13.4519 15.458 13.8819 15.783L12.5269 20.716C12.485 20.9331 12.4917 21.1567 12.5463 21.3709C12.601 21.5851 12.7023 21.7846 12.8431 21.9551C12.9838 22.1255 13.1605 22.2628 13.3605 22.357C13.5605 22.4512 13.7788 22.5 13.9999 22.5H17.9989C18.3366 22.5007 18.6645 22.3871 18.9293 22.1775C19.1941 21.9679 19.38 21.6748 19.4569 21.346C19.5099 21.123 19.5109 20.892 19.4619 20.669L18.0889 15.809C18.5257 15.4823 18.8805 15.0584 19.1252 14.5708C19.37 14.0833 19.4979 13.5455 19.4989 13H19.4999ZM17.2599 15.16C17.1632 15.2156 17.0878 15.3018 17.0458 15.4051C17.0038 15.5084 16.9975 15.6227 17.0279 15.73L18.4899 20.902C18.5042 20.9745 18.5023 21.0493 18.4843 21.1209C18.4663 21.1926 18.4327 21.2594 18.3859 21.3166C18.3391 21.3737 18.2802 21.4198 18.2134 21.4515C18.1467 21.4832 18.0738 21.4998 17.9999 21.5H13.9999C13.9262 21.5007 13.8534 21.4848 13.7867 21.4535C13.7201 21.4221 13.6613 21.3762 13.6149 21.319C13.5703 21.2682 13.5371 21.2085 13.5174 21.1438C13.4977 21.0792 13.4921 21.011 13.5009 20.944L14.9409 15.707C14.9689 15.6011 14.9619 15.489 14.9208 15.3875C14.8796 15.286 14.8067 15.2005 14.7129 15.144C14.2432 14.8617 13.8793 14.4329 13.6771 13.9236C13.4749 13.4142 13.4457 12.8526 13.594 12.325C13.7422 11.7974 14.0597 11.3332 14.4976 11.0037C14.9354 10.6742 15.4694 10.4977 16.0174 10.5013C16.5654 10.505 17.097 10.6886 17.5305 11.0239C17.9639 11.3592 18.2752 11.8277 18.4164 12.3572C18.5575 12.8867 18.5208 13.4479 18.3119 13.9545C18.1029 14.4611 17.7333 14.885 17.2599 15.161V15.16Z"/></svg>