<svg width="32" height="32" viewBox="0 0 32 32" fill="none" xmlns="http://www.w3.org/2000/svg">
<path d="M16 2.5C13.33 2.5 10.7199 3.29176 8.49981 4.77516C6.27974 6.25856 4.54942 8.36697 3.52763 10.8338C2.50585 13.3006 2.2385 16.015 2.7594 18.6337C3.28031 21.2525 4.56606 23.6579 6.45406 25.5459C8.34207 27.434 10.7475 28.7197 13.3663 29.2406C15.985 29.7615 18.6994 29.4942 21.1662 28.4724C23.633 27.4506 25.7414 25.7203 27.2248 23.5002C28.7082 21.2801 29.5 18.67 29.5 16C29.496 12.4208 28.0724 8.98932 25.5416 6.45844C23.0107 3.92756 19.5792 2.50397 16 2.5V2.5ZM16 28.5C13.5277 28.5 11.111 27.7669 9.05538 26.3934C6.99976 25.0199 5.39761 23.0676 4.45151 20.7835C3.50542 18.4995 3.25787 15.9861 3.74019 13.5614C4.22251 11.1366 5.41302 8.90932 7.16117 7.16117C8.90933 5.41301 11.1366 4.2225 13.5614 3.74018C15.9861 3.25787 18.4995 3.50541 20.7835 4.45151C23.0676 5.3976 25.0199 6.99976 26.3934 9.05537C27.7669 11.111 28.5 13.5277 28.5 16C28.4963 19.3141 27.1781 22.4913 24.8347 24.8347C22.4913 27.1781 19.3141 28.4963 16 28.5V28.5Z" fill="#0F0F0F"/>
<path d="M18 8.5H17.997C17.3068 8.50017 16.6321 8.70449 16.0579 9.08724C15.4836 9.46999 15.0353 10.0141 14.7696 10.651C14.5038 11.2879 14.4324 11.9892 14.5643 12.6667C14.6963 13.3441 15.0256 13.9673 15.511 14.458L12.47 17.645L12.465 17.648L9.64498 20.476C9.57586 20.5467 9.5289 20.636 9.50989 20.733C9.49088 20.83 9.50064 20.9305 9.53798 21.022C9.56298 21.082 9.59998 21.138 9.64698 21.184L11.53 23.061C11.6689 23.2006 11.834 23.3113 12.016 23.3867C12.1979 23.462 12.393 23.5006 12.59 23.5C12.787 23.5003 12.982 23.4615 13.164 23.386C13.3459 23.3105 13.5111 23.1997 13.65 23.06L15.06 21.65C15.1994 21.5105 15.3099 21.345 15.3853 21.1628C15.4607 20.9806 15.4993 20.7853 15.4992 20.5881C15.499 20.3909 15.4599 20.1957 15.3842 20.0136C15.3085 19.8315 15.1976 19.6662 15.058 19.527L13.518 17.992L16.322 15.055C16.834 15.343 17.411 15.496 17.999 15.5H18.002C18.9302 15.4997 19.8204 15.1307 20.4766 14.4742C21.1328 13.8176 21.5012 12.9273 21.501 11.999C21.5007 11.0707 21.1317 10.1806 20.4751 9.52442C19.8186 8.86823 18.9282 8.49973 18 8.5V8.5ZM14.5 20.59C14.5001 20.6556 14.4872 20.7207 14.4619 20.7813C14.4367 20.8419 14.3997 20.8968 14.353 20.943L12.943 22.353C12.8967 22.3997 12.8416 22.4367 12.7809 22.4619C12.7203 22.4872 12.6552 22.5002 12.5895 22.5002C12.5238 22.5002 12.4587 22.4872 12.398 22.4619C12.3373 22.4367 12.2823 22.3997 12.236 22.353L10.706 20.829L12.821 18.709L14.352 20.235C14.399 20.2814 14.4362 20.3367 14.4616 20.3976C14.487 20.4586 14.5001 20.524 14.5 20.59V20.59ZM19.768 13.766C19.5365 13.9993 19.2611 14.1843 18.9576 14.3103C18.6541 14.4363 18.3286 14.5008 18 14.5H17.998C17.3349 14.5 16.6991 14.2366 16.2302 13.7678C15.7614 13.2989 15.498 12.663 15.498 12C15.498 11.337 15.7614 10.7011 16.2302 10.2322C16.6991 9.76339 17.3349 9.5 17.998 9.5H18C18.4941 9.5003 18.977 9.64702 19.3878 9.92162C19.7986 10.1962 20.1188 10.5864 20.308 11.0428C20.4971 11.4993 20.5468 12.0016 20.4507 12.4863C20.3546 12.9709 20.117 13.4163 19.768 13.766V13.766Z" fill="#0F0F0F"/>
</svg>
