<svg width="32" height="32" viewBox="0 0 32 32" fill="none" xmlns="http://www.w3.org/2000/svg">
<path d="M16.547 15.866L17.999 21L13.982 21.076L15.422 15.84C15.4796 15.629 15.4667 15.4051 15.3853 15.2022C15.3039 14.9993 15.1584 14.8285 14.971 14.7159C14.5932 14.4885 14.3012 14.1427 14.1403 13.7321C13.9794 13.3216 13.9587 12.8694 14.0814 12.4459C14.2041 12.0224 14.4634 11.6513 14.8188 11.3903C15.1742 11.1294 15.6059 10.9932 16.0467 11.0029C16.4876 11.0127 16.9128 11.1679 17.2563 11.4443C17.5998 11.7208 17.8424 12.103 17.9462 12.5315C18.05 12.96 18.0093 13.4109 17.8304 13.8139C17.6515 14.2169 17.3445 14.5495 16.957 14.76L16.954 14.762C16.7779 14.8791 16.6436 15.0492 16.5705 15.2476C16.4973 15.446 16.4891 15.6625 16.547 15.866V15.866Z" fill="#0F0F0F"/>
<path fill-rule="evenodd" clip-rule="evenodd" d="M16 2C13.2311 2 10.5243 2.82109 8.22202 4.35943C5.91973 5.89777 4.12532 8.08427 3.06569 10.6424C2.00607 13.2006 1.72882 16.0155 2.26901 18.7313C2.80921 21.447 4.14258 23.9416 6.10051 25.8995C8.05845 27.8574 10.553 29.1908 13.2687 29.731C15.9845 30.2712 18.7994 29.9939 21.3576 28.9343C23.9157 27.8747 26.1022 26.0803 27.6406 23.778C29.1789 21.4757 30 18.7689 30 16C29.9958 12.2883 28.5194 8.72977 25.8948 6.10518C23.2702 3.48059 19.7117 2.00423 16 2V2ZM16 9C15.3342 9.00073 14.6791 9.16748 14.094 9.48515C13.5089 9.80282 13.0122 10.2614 12.6489 10.8193C12.2857 11.3773 12.0673 12.017 12.0135 12.6807C11.9597 13.3443 12.0723 14.0108 12.341 14.62C12.568 15.13 12.901 15.585 13.317 15.956L12.037 20.621C11.981 20.9104 11.9897 21.2087 12.0624 21.4944C12.1351 21.7801 12.2701 22.0461 12.4577 22.2736C12.6452 22.501 12.8808 22.6841 13.1474 22.8099C13.4141 22.9357 13.7052 23.0009 14 23.001H17.999C18.4513 23.0011 18.8901 22.8474 19.2436 22.5652C19.597 22.283 19.844 21.8891 19.944 21.448C20.014 21.147 20.013 20.834 19.942 20.533L18.659 15.988C19.2648 15.4489 19.6924 14.7384 19.8851 13.9507C20.0778 13.163 20.0266 12.3354 19.7382 11.5775C19.4498 10.8196 18.9379 10.1672 18.2703 9.7069C17.6027 9.24659 16.8109 9.00006 16 9Z" fill="#0F0F0F"/>
</svg>
