<svg width="32" height="32" viewBox="0 0 32 32" fill="none" xmlns="http://www.w3.org/2000/svg">
<path d="M15.9996 2.24961C13.2801 2.24961 10.6217 3.05603 8.36049 4.5669C6.09931 6.07777 4.33694 8.22523 3.29624 10.7377C2.25553 13.2502 1.98323 16.0149 2.51378 18.6821C3.04433 21.3493 4.35389 23.7994 6.27686 25.7223C8.19983 27.6453 10.6498 28.9549 13.3171 29.4854C15.9843 30.016 18.749 29.7437 21.2615 28.703C23.774 27.6622 25.9214 25.8999 27.4323 23.6387C28.9432 21.3775 29.7496 18.7191 29.7496 15.9996C29.7455 12.3541 28.2956 8.8591 25.7178 6.28135C23.1401 3.7036 19.6451 2.25364 15.9996 2.24961ZM15.9996 28.2496C13.5768 28.2496 11.2083 27.5312 9.19384 26.1851C7.17934 24.8391 5.60923 22.9259 4.68205 20.6875C3.75488 18.4491 3.51229 15.986 3.98496 13.6098C4.45763 11.2335 5.62433 9.05075 7.33752 7.33755C9.05071 5.62436 11.2335 4.45766 13.6097 3.98499C15.986 3.51232 18.4491 3.75491 20.6875 4.68209C22.9258 5.60926 24.839 7.17937 26.1851 9.19388C27.5311 11.2084 28.2496 13.5768 28.2496 15.9996C28.246 19.2474 26.9542 22.3612 24.6577 24.6577C22.3611 26.9542 19.2474 28.246 15.9996 28.2496Z" fill="black"/>
<path d="M17.9996 8.25059H17.9966C17.279 8.24999 16.5764 8.45606 15.9728 8.84417C15.3691 9.23228 14.89 9.78602 14.5928 10.4392C14.2955 11.0923 14.1926 11.8173 14.2964 12.5274C14.4002 13.2375 14.7062 13.9026 15.178 14.4434L9.46831 20.3004C9.39878 20.3702 9.34367 20.4529 9.30614 20.544C9.26861 20.635 9.24938 20.7326 9.24956 20.8311C9.24974 20.9296 9.26933 21.0271 9.30719 21.118C9.34506 21.2089 9.40047 21.2915 9.47026 21.361L11.354 23.2389C11.5161 23.4013 11.7086 23.5301 11.9207 23.6178C12.1327 23.7054 12.36 23.7502 12.5894 23.7496C12.8192 23.7503 13.0478 23.7053 13.26 23.6173C13.4722 23.5293 13.6649 23.4 13.8267 23.2369L15.2369 21.8268C15.3996 21.6641 15.5286 21.471 15.6166 21.2585C15.7046 21.0459 15.7497 20.8181 15.7496 20.5881C15.7494 20.358 15.7038 20.1303 15.6155 19.9179C15.5272 19.7055 15.3978 19.5126 15.2349 19.3502L13.869 17.9886L16.3726 15.3646C16.8783 15.6149 17.4343 15.7466 17.9985 15.7496H18.0015C18.9944 15.747 19.9458 15.3507 20.6469 14.6476C21.348 13.9445 21.7417 12.992 21.7414 11.9991C21.7411 11.0061 21.347 10.0538 20.6455 9.3511C19.944 8.64837 18.9925 8.2526 17.9996 8.25059ZM14.2496 20.5895C14.2495 20.6558 14.2232 20.7193 14.1763 20.7662L12.7652 22.1773C12.7458 22.2064 12.7195 22.2301 12.6887 22.2465C12.6579 22.2629 12.6236 22.2714 12.5887 22.2713C12.5538 22.2712 12.5194 22.2625 12.4887 22.2459C12.458 22.2294 12.4319 22.2055 12.4127 22.1763L11.0601 20.8277L12.8218 19.0621L14.1763 20.4127C14.1996 20.4359 14.218 20.4634 14.2306 20.4938C14.2432 20.5241 14.2496 20.5566 14.2496 20.5895ZM19.5904 13.5895C19.3824 13.7994 19.1347 13.9659 18.8618 14.0792C18.5888 14.1925 18.2961 14.2505 18.0005 14.2496H17.9985C17.4031 14.248 16.8326 14.0103 16.4121 13.5887C15.9916 13.1672 15.7554 12.5961 15.7552 12.0006C15.7551 11.4052 15.9911 10.834 16.4114 10.4122C16.8317 9.99042 17.4021 9.75251 17.9975 9.75061H17.9995C18.2947 9.74968 18.5871 9.80729 18.8598 9.9201C19.1325 10.0329 19.3802 10.1987 19.5884 10.4078C19.7978 10.6163 19.964 10.8651 20.0774 11.1379C20.1909 11.4107 20.2494 11.7033 20.2496 11.9988C20.2498 12.2942 20.1916 12.5868 20.0785 12.8598C19.9654 13.1328 19.7995 13.3807 19.5904 13.5895Z" fill="black"/>
</svg>
