<svg width="32" height="32" viewBox="0 0 32 32" fill="none" xmlns="http://www.w3.org/2000/svg">
<path d="M15.9996 2.49961C13.3295 2.49961 10.7194 3.29137 8.49938 4.77477C6.27932 6.25817 4.54899 8.36658 3.52721 10.8334C2.50542 13.3002 2.23808 16.0146 2.75898 18.6333C3.27988 21.2521 4.56563 23.6575 6.45364 25.5456C8.34165 27.4336 10.7471 28.7193 13.3659 29.2402C15.9846 29.7611 18.699 29.4938 21.1658 28.472C23.6326 27.4502 25.741 25.7199 27.2244 23.4998C28.7078 21.2797 29.4996 18.6697 29.4996 15.9996C29.4957 12.4204 28.0721 8.98888 25.5412 6.45798C23.0103 3.92709 19.5788 2.50352 15.9996 2.49961ZM15.9996 28.4996C13.5273 28.4996 11.1106 27.7665 9.05495 26.393C6.99934 25.0195 5.39718 23.0672 4.45108 20.7832C3.50499 18.4991 3.25745 15.9857 3.73976 13.561C4.22208 11.1362 5.41259 8.90893 7.16074 7.16078C8.9089 5.41262 11.1362 4.22211 13.561 3.73979C15.9857 3.25748 18.499 3.50502 20.7831 4.45112C23.0672 5.39721 25.0194 6.99937 26.393 9.05498C27.7665 11.1106 28.4996 13.5273 28.4996 15.9996C28.4959 19.3137 27.1777 22.4909 24.8343 24.8343C22.4909 27.1777 19.3136 28.4959 15.9996 28.4996Z" fill="black"/>
<path d="M17.9996 8.50059H17.9966C17.3067 8.5009 16.6322 8.70527 16.0581 9.08799C15.484 9.47071 15.0358 10.0147 14.7701 10.6515C14.5044 11.2882 14.433 11.9894 14.5648 12.6666C14.6966 13.3439 15.0258 13.9671 15.5109 14.4577L12.4696 17.6452L12.4654 17.6481L9.64508 20.4762C9.55206 20.5707 9.49982 20.698 9.49958 20.8307C9.49953 20.8964 9.51253 20.9615 9.53785 21.0222C9.56316 21.0829 9.60028 21.138 9.64704 21.1842L11.5298 23.0611C11.6687 23.2006 11.8339 23.3112 12.0157 23.3864C12.1976 23.4617 12.3926 23.5002 12.5894 23.4996C12.7863 23.5002 12.9824 23.4616 13.1643 23.3862C13.3462 23.3107 13.5113 23.1999 13.65 23.0602L15.0601 21.65C15.1996 21.5106 15.3102 21.345 15.3856 21.1628C15.461 20.9806 15.4997 20.7853 15.4995 20.5881C15.4993 20.3909 15.4603 20.1957 15.3845 20.0136C15.3088 19.8315 15.1979 19.6661 15.0581 19.527L13.5188 17.9925L16.3217 15.0548C16.8338 15.3433 17.4109 15.4964 17.9985 15.4997H18.0015C18.9282 15.4972 19.816 15.1273 20.4703 14.471C21.1246 13.8148 21.4919 12.9258 21.4917 11.9992C21.4914 11.0725 21.1236 10.1837 20.4689 9.52786C19.8143 8.872 18.9263 8.50252 17.9996 8.50059ZM14.4996 20.5895C14.4998 20.6552 14.487 20.7202 14.4618 20.7809C14.4367 20.8416 14.3997 20.8967 14.3531 20.943L12.9429 22.3531C12.8965 22.3996 12.8414 22.4364 12.7808 22.4615C12.7201 22.4867 12.6551 22.4996 12.5894 22.4996C12.5238 22.4996 12.4588 22.4867 12.3981 22.4615C12.3375 22.4364 12.2823 22.3996 12.2359 22.3531L10.7066 20.8287L12.8209 18.7086L14.3521 20.235C14.3989 20.2814 14.436 20.3366 14.4613 20.3975C14.4866 20.4583 14.4996 20.5236 14.4996 20.5895ZM19.7681 13.7662C19.5367 13.9993 19.2613 14.1842 18.9578 14.3101C18.6544 14.4359 18.329 14.5004 18.0005 14.4996H17.9985C17.3369 14.4979 16.7029 14.2338 16.2355 13.7654C15.7682 13.2969 15.5057 12.6623 15.5056 12.0006C15.5055 11.3389 15.7677 10.7042 16.2348 10.2355C16.702 9.7669 17.3359 9.50261 17.9975 9.50061H17.9995C18.4938 9.5004 18.9771 9.64678 19.3882 9.92124C19.7993 10.1957 20.1197 10.5859 20.3091 11.0425C20.4984 11.4991 20.548 12.0016 20.4517 12.4864C20.3554 12.9712 20.1176 13.4166 19.7681 13.7662Z" fill="black"/>
</svg>
