<svg width="32" height="32" viewBox="0 0 32 32" fill="none" xmlns="http://www.w3.org/2000/svg">
<path d="M24.741 5.25325C24.1853 4.69491 23.5245 4.25226 22.7967 3.95088C22.0689 3.64949 21.2885 3.49536 20.5008 3.49739H20.4969C19.3102 3.49843 18.1505 3.85126 17.1644 4.51128C16.1782 5.1713 15.4099 6.10887 14.9565 7.20549C14.5031 8.3021 14.385 9.50852 14.6171 10.6722C14.8492 11.836 15.4211 12.9048 16.2606 13.7435C16.2761 13.759 16.2949 13.7689 16.3106 13.7843L6.49403 23.5706L6.49342 23.5716L6.40614 23.6586C6.3594 23.705 6.32231 23.7602 6.29701 23.8211C6.2717 23.8819 6.25867 23.9472 6.25867 24.0131C6.25867 24.0789 6.2717 24.1442 6.29701 24.205C6.32231 24.2659 6.3594 24.3211 6.40614 24.3676L9.86514 27.8138C10.3076 28.2534 10.9061 28.4999 11.5298 28.4994C12.1535 28.4988 12.7516 28.2513 13.1933 27.8109L15.8095 25.1937C16.0286 24.9749 16.2024 24.7151 16.3208 24.429C16.4393 24.1429 16.5002 23.8363 16.4999 23.5266C16.4996 23.217 16.4382 22.9104 16.3193 22.6246C16.2003 22.3387 16.026 22.0791 15.8065 21.8607L12.7146 18.7811L17.0897 14.4194C18.3199 15.2745 19.8258 15.6378 21.3105 15.4378C22.7953 15.2378 24.1513 14.489 25.1113 13.3388C26.0714 12.1887 26.5659 10.7207 26.4973 9.22408C26.4288 7.72748 25.8022 6.31081 24.741 5.25325ZM15.4998 23.5286C15.5002 23.7067 15.4653 23.883 15.3971 24.0475C15.3289 24.2119 15.2287 24.3612 15.1024 24.4866L12.4862 27.1038C12.232 27.3572 11.8878 27.4996 11.5289 27.4998C11.17 27.5 10.8256 27.358 10.5712 27.1048L7.46664 24.013L12.0076 19.4886L15.1004 22.5696C15.2274 22.6949 15.3281 22.8443 15.3967 23.0089C15.4653 23.1736 15.5003 23.3503 15.4998 23.5286ZM24.0389 13.0316C23.4578 13.6132 22.7422 14.0426 21.9555 14.2817C21.1688 14.5208 20.3353 14.5621 19.5288 14.4021C18.7223 14.2422 17.9676 13.8858 17.3318 13.3645C16.6959 12.8433 16.1984 12.1733 15.8832 11.4138C15.5681 10.6544 15.4452 9.82894 15.5252 9.01062C15.6053 8.19231 15.8859 7.40637 16.3423 6.72241C16.7986 6.03845 17.4166 5.47758 18.1414 5.08948C18.8663 4.70137 19.6757 4.498 20.4979 4.49739H20.5008C21.4895 4.49763 22.4559 4.79089 23.2779 5.34011C24.0999 5.88934 24.7407 6.66989 25.1194 7.58315C25.498 8.49641 25.5974 9.5014 25.4051 10.4712C25.2128 11.4409 24.7374 12.3319 24.0389 13.0316Z" fill="black"/>
</svg>
