<svg id="Layer_1" data-name="Layer 1" xmlns="http://www.w3.org/2000/svg" viewBox="0 0 32 32"><defs><style>.cls-1,.cls-2{fill:#0f0f0f;}.cls-2{fill-rule:evenodd;}</style></defs><path class="cls-1" d="M16.547,15.866,18,21.076H13.982l1.441-5.236a1.006,1.006,0,0,0-.452-1.124,2,2,0,1,1,2.036.013l-.05.031,0,0a1,1,0,0,0-.407,1.1Z"/><path class="cls-2" d="M25.9,6.105A13.988,13.988,0,1,0,30,16,14.022,14.022,0,0,0,25.9,6.105ZM19.944,21.448a2.029,2.029,0,0,1-.4.822A1.992,1.992,0,0,1,18,23H14a2,2,0,0,1-1.963-2.379l1.28-4.665A3.938,3.938,0,0,1,12,13a4,4,0,1,1,6.659,2.988l1.283,4.546A2.015,2.015,0,0,1,19.944,21.448Z"/></svg>