<svg xmlns="http://www.w3.org/2000/svg" width="32" height="32" viewBox="0 0 32 32"><path d="M16 2.25C13.2805 2.25 10.6221 3.05642 8.36092 4.56729C6.09974 6.07816 4.33737 8.22562 3.29666 10.7381C2.25596 13.2506 1.98366 16.0153 2.51421 18.6825C3.04476 21.3497 4.35432 23.7997 6.27729 25.7227C8.20026 27.6457 10.6503 28.9553 13.3175 29.4858C15.9848 30.0163 18.7494 29.744 21.2619 28.7033C23.7744 27.6626 25.9218 25.9003 27.4327 23.6391C28.9436 21.3779 29.75 18.7195 29.75 16C29.746 12.3545 28.2961 8.85943 25.7183 6.28167C23.1406 3.7039 19.6455 2.25397 16 2.25ZM16 28.25C13.5772 28.25 11.2088 27.5316 9.19427 26.1855C7.17977 24.8395 5.60966 22.9263 4.68248 20.6879C3.75531 18.4495 3.51272 15.9864 3.98539 13.6101C4.45806 11.2339 5.62476 9.05114 7.33795 7.33794C9.05114 5.62475 11.2339 4.45805 13.6102 3.98538C15.9864 3.51271 18.4495 3.7553 20.6879 4.68248C22.9263 5.60965 24.8395 7.17976 26.1855 9.19426C27.5316 11.2088 28.25 13.5772 28.25 16C28.2463 19.2478 26.9545 22.3614 24.658 24.658C22.3615 26.9545 19.2478 28.2463 16 28.25Z M18.0001 8.25H17.9971C17.2793 8.24912 16.5765 8.45502 15.9727 8.84308C15.3688 9.23114 14.8896 9.78493 14.5922 10.4382C14.2948 11.0915 14.192 11.8166 14.2959 12.5268C14.3998 13.237 14.7061 13.9023 15.1781 14.443L9.46811 20.3C9.39855 20.3698 9.34341 20.4526 9.30586 20.5437C9.26831 20.6348 9.24908 20.7324 9.24927 20.8309C9.24945 20.9294 9.26905 21.027 9.30695 21.1179C9.34484 21.2089 9.40028 21.2915 9.47011 21.361L11.3541 23.239C11.5162 23.4012 11.7088 23.5297 11.9207 23.6173C12.1326 23.7048 12.3598 23.7496 12.5891 23.749C12.8191 23.7497 13.0469 23.7048 13.2594 23.6169C13.4719 23.529 13.6648 23.3999 13.8271 23.237L15.2371 21.827C15.3997 21.6643 15.5286 21.4711 15.6165 21.2585C15.7044 21.0459 15.7495 20.8181 15.7493 20.5881C15.7491 20.3581 15.7036 20.1303 15.6154 19.9179C15.5272 19.7055 15.3979 19.5125 15.2351 19.35L13.8691 17.989L16.3731 15.365C16.8785 15.6152 17.4342 15.7468 17.9981 15.75H18.0011C18.4936 15.7499 18.9812 15.6529 19.4361 15.4644C19.8911 15.2758 20.3044 14.9996 20.6526 14.6513C21.0008 14.303 21.277 13.8896 21.4653 13.4346C21.6537 12.9796 21.7507 12.492 21.7506 11.9995C21.7505 11.507 21.6535 11.0194 21.465 10.5645C21.2765 10.1095 21.0002 9.69617 20.6519 9.348C20.3036 8.99983 19.8902 8.72366 19.4352 8.53526C18.9802 8.34687 18.4926 8.24994 18.0001 8.25ZM14.2501 20.59C14.2497 20.6561 14.2231 20.7194 14.1761 20.766L12.7661 22.177C12.7469 22.2063 12.7207 22.2304 12.6899 22.247C12.6591 22.2637 12.6246 22.2724 12.5896 22.2724C12.5546 22.2724 12.5201 22.2637 12.4893 22.247C12.4585 22.2304 12.4323 22.2063 12.4131 22.177L11.0601 20.827L12.8221 19.062L14.1761 20.412C14.1997 20.4353 14.2183 20.463 14.231 20.4936C14.2437 20.5241 14.2502 20.5569 14.2501 20.59ZM19.5901 13.59C19.382 13.7999 19.1343 13.9663 18.8614 14.0796C18.5884 14.1929 18.2956 14.2508 18.0001 14.25H17.9981C17.4014 14.25 16.8291 14.0129 16.4071 13.591C15.9852 13.169 15.7481 12.5967 15.7481 12C15.7481 11.4033 15.9852 10.831 16.4071 10.409C16.8291 9.98706 17.4014 9.75 17.9981 9.75H18.0001C18.2952 9.74928 18.5874 9.80706 18.86 9.92C19.1326 10.0329 19.38 10.1988 19.5881 10.408C20.01 10.8297 20.2473 11.4016 20.2476 11.9981C20.248 12.5946 20.0115 13.1668 19.5901 13.589V13.59Z"/></svg>