<svg xmlns="http://www.w3.org/2000/svg" id="Layer_1" data-name="Layer 1" viewBox="0 0 32 32"><defs><style>.cls-1,.cls-2{fill:#0f0f0f;}.cls-2{fill-rule:evenodd;}</style></defs><path d="M16.547,15.866,18,21l-4.017.076,1.44-5.236a1,1,0,0,0-.451-1.124,2,2,0,1,1,1.986.044l0,0a1,1,0,0,0-.407,1.1Z M25.9,6.105A13.988,13.988,0,1,0,30,16,14.018,14.018,0,0,0,25.9,6.105ZM19.944,21.448A1.994,1.994,0,0,1,18,23H14a2,2,0,0,1-1.963-2.38l1.28-4.665a3.933,3.933,0,0,1-.976-1.336,4,4,0,1,1,6.318,1.368l1.283,4.545A2.006,2.006,0,0,1,19.944,21.448Z"/></svg>