<svg width="32" height="32" viewBox="0 0 32 32" fill="none" xmlns="http://www.w3.org/2000/svg">
<path d="M26 6.25H25.75V5C25.7493 4.27088 25.4593 3.57184 24.9437 3.05628C24.4282 2.54071 23.7291 2.25074 23 2.25H21C20.2709 2.25074 19.5718 2.54071 19.0563 3.05628C18.5407 3.57184 18.2507 4.27088 18.25 5V6.25H13.75V5C13.7493 4.27088 13.4593 3.57184 12.9437 3.05628C12.4282 2.54071 11.7291 2.25074 11 2.25H9C8.27088 2.25074 7.57184 2.54071 7.05627 3.05628C6.54071 3.57184 6.25074 4.27088 6.25 5V6.25H6C5.53604 6.25056 5.09125 6.43511 4.76318 6.76318C4.43511 7.09125 4.25056 7.53604 4.25 8V13C4.25058 13.464 4.43514 13.9087 4.76321 14.2368C5.09127 14.5649 5.53605 14.7494 6 14.75H26C26.464 14.7494 26.9088 14.5649 27.2368 14.2368C27.5649 13.9088 27.7494 13.464 27.75 13V8C27.7494 7.53604 27.5649 7.09125 27.2368 6.76318C26.9088 6.43511 26.464 6.25056 26 6.25ZM19.75 5C19.7503 4.66858 19.8821 4.35082 20.1165 4.11647C20.3508 3.88212 20.6686 3.75032 21 3.75H23C23.3314 3.75029 23.6492 3.88208 23.8836 4.11644C24.1179 4.3508 24.2497 4.66857 24.25 5V6.25H19.75V5ZM7.75 5C7.75032 4.66858 7.88212 4.35082 8.11647 4.11647C8.35082 3.88212 8.66858 3.75032 9 3.75H11C11.3314 3.75029 11.6492 3.88208 11.8836 4.11644C12.1179 4.3508 12.2497 4.66857 12.25 5V6.25H7.75V5ZM26.25 13C26.2499 13.0663 26.2235 13.1298 26.1766 13.1766C26.1298 13.2235 26.0663 13.2499 26 13.25H6C5.93374 13.2499 5.87022 13.2235 5.82337 13.1766C5.77651 13.1298 5.75013 13.0663 5.75 13V8C5.75 7.9337 5.77634 7.87011 5.82322 7.82322C5.87011 7.77634 5.9337 7.75 6 7.75H26C26.0663 7.75 26.1299 7.77634 26.1768 7.82322C26.2237 7.87011 26.25 7.9337 26.25 8V13Z" fill="black"/>
<path d="M26 21.25H25.75V20C25.7493 19.2709 25.4593 18.5718 24.9437 18.0563C24.4282 17.5407 23.7291 17.2507 23 17.25H21C20.2709 17.2507 19.5718 17.5407 19.0563 18.0563C18.5407 18.5718 18.2507 19.2709 18.25 20V21.25H13.75V20C13.7493 19.2709 13.4593 18.5718 12.9437 18.0563C12.4282 17.5407 11.7291 17.2507 11 17.25H9C8.27088 17.2507 7.57184 17.5407 7.05627 18.0563C6.54071 18.5718 6.25074 19.2709 6.25 20V21.25H6C5.53604 21.2506 5.09125 21.4351 4.76318 21.7632C4.43511 22.0912 4.25056 22.536 4.25 23V28C4.25058 28.464 4.43514 28.9087 4.76321 29.2368C5.09127 29.5649 5.53605 29.7494 6 29.75H26C26.464 29.7494 26.9088 29.5649 27.2368 29.2368C27.5649 28.9088 27.7494 28.464 27.75 28V23C27.7494 22.536 27.5649 22.0912 27.2368 21.7632C26.9088 21.4351 26.464 21.2506 26 21.25ZM19.75 20C19.7503 19.6686 19.8821 19.3508 20.1165 19.1165C20.3508 18.8821 20.6686 18.7503 21 18.75H23C23.3314 18.7503 23.6492 18.8821 23.8836 19.1164C24.1179 19.3508 24.2497 19.6686 24.25 20V21.25H19.75V20ZM7.75 20C7.75032 19.6686 7.88212 19.3508 8.11647 19.1165C8.35082 18.8821 8.66858 18.7503 9 18.75H11C11.3314 18.7503 11.6492 18.8821 11.8836 19.1164C12.1179 19.3508 12.2497 19.6686 12.25 20V21.25H7.75V20ZM26.25 28C26.2499 28.0663 26.2235 28.1298 26.1766 28.1766C26.1298 28.2235 26.0663 28.2499 26 28.25H6C5.93374 28.2499 5.87022 28.2235 5.82337 28.1766C5.77651 28.1298 5.75013 28.0663 5.75 28V23C5.75 22.9337 5.77634 22.8701 5.82322 22.8232C5.87011 22.7763 5.9337 22.75 6 22.75H26C26.0663 22.75 26.1299 22.7763 26.1768 22.8232C26.2237 22.8701 26.25 22.9337 26.25 23V28Z" fill="black"/>
</svg>
