<svg xmlns="http://www.w3.org/2000/svg" width="32" height="32" viewBox="0 0 32 32"><path d="M26 6.5H25.5V5C25.4992 4.3372 25.2356 3.70178 24.7669 3.23311C24.2982 2.76444 23.6628 2.50079 23 2.5H21C20.3372 2.50079 19.7018 2.76444 19.2331 3.23311C18.7644 3.70178 18.5008 4.3372 18.5 5V6.5H13.5V5C13.4992 4.3372 13.2356 3.70178 12.7669 3.23311C12.2982 2.76444 11.6628 2.50079 11 2.5H9C8.3372 2.50079 7.70178 2.76444 7.23311 3.23311C6.76444 3.70178 6.50079 4.3372 6.5 5V6.5H6C5.60234 6.50053 5.22111 6.65873 4.93992 6.93992C4.65873 7.22111 4.50053 7.60234 4.5 8V13C4.50053 13.3977 4.65873 13.7789 4.93992 14.0601C5.22111 14.3413 5.60234 14.4995 6 14.5H26C26.3977 14.4995 26.7789 14.3413 27.0601 14.0601C27.3413 13.7789 27.4995 13.3977 27.5 13V8C27.4995 7.60234 27.3413 7.22111 27.0601 6.93992C26.7789 6.65873 26.3977 6.50053 26 6.5ZM19.5 5C19.5005 4.60234 19.6587 4.22111 19.9399 3.93992C20.2211 3.65873 20.6023 3.50053 21 3.5H23C23.3977 3.50053 23.7789 3.65873 24.0601 3.93992C24.3413 4.22111 24.4995 4.60234 24.5 5V6.5H19.5V5ZM7.5 5C7.50053 4.60234 7.65873 4.22111 7.93992 3.93992C8.22111 3.65873 8.60234 3.50053 9 3.5H11C11.3977 3.50053 11.7789 3.65873 12.0601 3.93992C12.3413 4.22111 12.4995 4.60234 12.5 5V6.5H7.5V5ZM26.5 13C26.5 13.1326 26.4473 13.2598 26.3536 13.3536C26.2598 13.4473 26.1326 13.5 26 13.5H6C5.86739 13.5 5.74021 13.4473 5.64645 13.3536C5.55268 13.2598 5.5 13.1326 5.5 13V8C5.5 7.86739 5.55268 7.74021 5.64645 7.64645C5.74021 7.55268 5.86739 7.5 6 7.5H26C26.1326 7.5 26.2598 7.55268 26.3536 7.64645C26.4473 7.74021 26.5 7.86739 26.5 8V13ZM26 21.5H25.5V20C25.4992 19.3372 25.2356 18.7018 24.7669 18.2331C24.2982 17.7644 23.6628 17.5008 23 17.5H21C20.3372 17.5008 19.7018 17.7644 19.2331 18.2331C18.7644 18.7018 18.5008 19.3372 18.5 20V21.5H13.5V20C13.4992 19.3372 13.2356 18.7018 12.7669 18.2331C12.2982 17.7644 11.6628 17.5008 11 17.5H9C8.3372 17.5008 7.70178 17.7644 7.23311 18.2331C6.76444 18.7018 6.50079 19.3372 6.5 20V21.5H6C5.60234 21.5005 5.22111 21.6587 4.93992 21.9399C4.65873 22.2211 4.50053 22.6023 4.5 23V28C4.50053 28.3977 4.65873 28.7789 4.93992 29.0601C5.22111 29.3413 5.60234 29.4995 6 29.5H26C26.3977 29.4995 26.7789 29.3413 27.0601 29.0601C27.3413 28.7789 27.4995 28.3977 27.5 28V23C27.4995 22.6023 27.3413 22.2211 27.0601 21.9399C26.7789 21.6587 26.3977 21.5005 26 21.5ZM19.5 20C19.5005 19.6023 19.6587 19.2211 19.9399 18.9399C20.2211 18.6587 20.6023 18.5005 21 18.5H23C23.3977 18.5005 23.7789 18.6587 24.0601 18.9399C24.3413 19.2211 24.4995 19.6023 24.5 20V21.5H19.5V20ZM7.5 20C7.50053 19.6023 7.65873 19.2211 7.93992 18.9399C8.22111 18.6587 8.60234 18.5005 9 18.5H11C11.3977 18.5005 11.7789 18.6587 12.0601 18.9399C12.3413 19.2211 12.4995 19.6023 12.5 20V21.5H7.5V20ZM26.5 28C26.5 28.1326 26.4473 28.2598 26.3536 28.3536C26.2598 28.4473 26.1326 28.5 26 28.5H6C5.86739 28.5 5.74021 28.4473 5.64645 28.3536C5.55268 28.2598 5.5 28.1326 5.5 28V23C5.5 22.8674 5.55268 22.7402 5.64645 22.6464C5.74021 22.5527 5.86739 22.5 6 22.5H26C26.1325 22.5003 26.2596 22.553 26.3533 22.6467C26.447 22.7404 26.4997 22.8675 26.5 23V28Z"/></svg>