<svg xmlns="http://www.w3.org/2000/svg" width="32" height="32" viewBox="0 0 32 32"><path d="M26 6.25H25.75V5C25.7495 4.27082 25.4596 3.57165 24.944 3.05604C24.4283 2.54043 23.7292 2.25053 23 2.25H21C20.2709 2.25079 19.5719 2.54078 19.0563 3.05633C18.5408 3.57189 18.2508 4.2709 18.25 5V6.25H13.75V5C13.7495 4.27082 13.4596 3.57165 12.944 3.05604C12.4283 2.54043 11.7292 2.25053 11 2.25H9C8.2709 2.25079 7.57189 2.54078 7.05633 3.05633C6.54078 3.57189 6.25079 4.2709 6.25 5V6.25H6C5.53603 6.25053 5.09122 6.43507 4.76315 6.76315C4.43507 7.09122 4.25053 7.53603 4.25 8V13C4.25053 13.464 4.43507 13.9088 4.76315 14.2369C5.09122 14.5649 5.53603 14.7495 6 14.75H26C26.464 14.7495 26.9088 14.5649 27.2369 14.2369C27.5649 13.9088 27.7495 13.464 27.75 13V8C27.7495 7.53603 27.5649 7.09122 27.2369 6.76315C26.9088 6.43507 26.464 6.25053 26 6.25ZM19.75 5C19.75 4.66848 19.8817 4.35054 20.1161 4.11612C20.3505 3.8817 20.6685 3.75 21 3.75H23C23.3314 3.75026 23.6492 3.88205 23.8836 4.11641C24.118 4.35077 24.2497 4.66856 24.25 5V6.25H19.75V5ZM7.75 5C7.75026 4.66856 7.88205 4.35077 8.11641 4.11641C8.35077 3.88205 8.66856 3.75026 9 3.75H11C11.3314 3.75026 11.6492 3.88205 11.8836 4.11641C12.118 4.35077 12.2497 4.66856 12.25 5V6.25H7.75V5ZM26.25 13C26.25 13.0663 26.2237 13.1299 26.1768 13.1768C26.1299 13.2237 26.0663 13.25 26 13.25H6C5.9337 13.25 5.87011 13.2237 5.82322 13.1768C5.77634 13.1299 5.75 13.0663 5.75 13V8C5.75 7.9337 5.77634 7.87011 5.82322 7.82322C5.87011 7.77634 5.9337 7.75 6 7.75H26C26.0663 7.75 26.1299 7.77634 26.1768 7.82322C26.2237 7.87011 26.25 7.9337 26.25 8V13ZM26 21.25H25.75V20C25.7495 19.2708 25.4596 18.5717 24.944 18.056C24.4283 17.5404 23.7292 17.2505 23 17.25H21C20.2708 17.2505 19.5717 17.5404 19.056 18.056C18.5404 18.5717 18.2505 19.2708 18.25 20V21.25H13.75V20C13.7495 19.2708 13.4596 18.5717 12.944 18.056C12.4283 17.5404 11.7292 17.2505 11 17.25H9C8.2709 17.2508 7.57189 17.5408 7.05633 18.0563C6.54078 18.5719 6.25079 19.2709 6.25 20V21.25H6C5.53603 21.2505 5.09122 21.4351 4.76315 21.7631C4.43507 22.0912 4.25053 22.536 4.25 23V28C4.25053 28.464 4.43507 28.9088 4.76315 29.2369C5.09122 29.5649 5.53603 29.7495 6 29.75H26C26.464 29.7495 26.9088 29.5649 27.2369 29.2369C27.5649 28.9088 27.7495 28.464 27.75 28V23C27.7495 22.536 27.5649 22.0912 27.2369 21.7631C26.9088 21.4351 26.464 21.2505 26 21.25ZM19.75 20C19.75 19.6685 19.8817 19.3505 20.1161 19.1161C20.3505 18.8817 20.6685 18.75 21 18.75H23C23.3314 18.7505 23.649 18.8824 23.8833 19.1167C24.1176 19.351 24.2495 19.6686 24.25 20V21.25H19.75V20ZM7.75 20C7.75026 19.6686 7.88205 19.3508 8.11641 19.1164C8.35077 18.882 8.66856 18.7503 9 18.75H11C11.3314 18.7505 11.649 18.8824 11.8833 19.1167C12.1176 19.351 12.2495 19.6686 12.25 20V21.25H7.75V20ZM26.25 28C26.25 28.0663 26.2237 28.1299 26.1768 28.1768C26.1299 28.2237 26.0663 28.25 26 28.25H6C5.9337 28.25 5.87011 28.2237 5.82322 28.1768C5.77634 28.1299 5.75 28.0663 5.75 28V23C5.75 22.9337 5.77634 22.8701 5.82322 22.8232C5.87011 22.7763 5.9337 22.75 6 22.75H26C26.0663 22.75 26.1299 22.7763 26.1768 22.8232C26.2237 22.8701 26.25 22.9337 26.25 23V28Z"/></svg>