<svg width="32" height="32" viewBox="0 0 32 32" fill="none" xmlns="http://www.w3.org/2000/svg">
<path d="M3.00013 20.2504C2.80122 20.2504 2.61045 20.3294 2.4698 20.4701C2.32915 20.6107 2.25013 20.8015 2.25013 21.0004C2.25013 21.1993 2.32915 21.3901 2.4698 21.5307C2.61045 21.6714 2.80122 21.7504 3.00013 21.7504C4.12694 21.7516 5.20726 22.1997 6.00403 22.9965C6.80081 23.7933 7.24895 24.8736 7.25013 26.0004C7.25013 26.1993 7.32915 26.3901 7.4698 26.5307C7.61045 26.6714 7.80122 26.7504 8.00013 26.7504C8.19904 26.7504 8.38981 26.6714 8.53046 26.5307C8.67111 26.3901 8.75013 26.1993 8.75013 26.0004C8.74852 24.4759 8.1422 23.0143 7.06422 21.9363C5.98623 20.8583 4.52463 20.252 3.00013 20.2504Z" fill="black"/>
<path d="M3.50001 26.75C4.19036 26.75 4.75001 26.1903 4.75001 25.5C4.75001 24.8096 4.19036 24.25 3.50001 24.25C2.80965 24.25 2.25001 24.8096 2.25001 25.5C2.25001 26.1903 2.80965 26.75 3.50001 26.75Z" fill="black"/>
<path d="M3.00013 16.2504C2.80122 16.2504 2.61045 16.3294 2.4698 16.4701C2.32915 16.6107 2.25013 16.8015 2.25013 17.0004C2.25013 17.1993 2.32915 17.3901 2.4698 17.5307C2.61045 17.6714 2.80122 17.7504 3.00013 17.7504C5.18738 17.753 7.28432 18.623 8.83094 20.1696C10.3776 21.7162 11.2476 23.8131 11.2501 26.0004C11.2501 26.1993 11.3291 26.3901 11.4698 26.5307C11.6105 26.6714 11.8012 26.7504 12.0001 26.7504C12.199 26.7504 12.3898 26.6714 12.5305 26.5307C12.6711 26.3901 12.7501 26.1993 12.7501 26.0004C12.7471 23.4155 11.719 20.9372 9.89112 19.1094C8.06329 17.2816 5.58507 16.2534 3.00013 16.2504Z" fill="black"/>
<path d="M28.921 9.51114C28.6555 9.34919 28.3519 9.26028 28.041 9.25342C27.7301 9.24656 27.4229 9.322 27.1505 9.47208L23.7482 11.636V10.0043C23.7467 8.74497 23.2458 7.53762 22.3553 6.64713C21.4649 5.75664 20.2575 5.25574 18.9982 5.25431H6.99817C5.73867 5.2558 4.5312 5.75686 3.6407 6.64755C2.75019 7.53824 2.24939 8.74581 2.24817 10.0053L2.25017 13.0004C2.25023 13.0989 2.2697 13.1964 2.30745 13.2874C2.3452 13.3784 2.4005 13.461 2.47019 13.5306C2.53988 13.6002 2.6226 13.6554 2.71362 13.693C2.80464 13.7307 2.90218 13.75 3.00067 13.7499C3.09916 13.7499 3.19667 13.7304 3.28764 13.6926C3.37861 13.6549 3.46126 13.5996 3.53085 13.5299C3.60045 13.4602 3.65564 13.3775 3.69327 13.2865C3.7309 13.1955 3.75023 13.0979 3.75017 12.9994L3.74817 10.0043C3.74916 9.14267 4.09189 8.3166 4.70117 7.70732C5.31045 7.09804 6.13652 6.75532 6.99817 6.75432H18.9982C19.8598 6.75531 20.6859 7.09804 21.2952 7.70732C21.9044 8.3166 22.2472 9.14267 22.2482 10.0043V22.0043C22.2472 22.8658 21.9047 23.6918 21.2956 24.301C20.6865 24.9103 19.8607 25.2531 18.9992 25.2543L16.0011 25.2504C15.8022 25.2503 15.6104 25.3292 15.4696 25.4697C15.3289 25.6103 15.2498 25.801 15.2496 25.9999C15.2495 26.1988 15.3284 26.3896 15.4689 26.5304C15.6095 26.6711 15.8002 26.7503 15.9991 26.7504L18.9981 26.7543C20.2575 26.7529 21.4648 26.252 22.3553 25.3615C23.2458 24.471 23.7467 23.2637 23.7481 22.0043V20.3634L27.2178 22.5658C27.4846 22.6992 27.7811 22.7622 28.0791 22.7487C28.3771 22.7353 28.6667 22.6459 28.9204 22.4891C29.1741 22.3322 29.3835 22.1131 29.5288 21.8526C29.674 21.592 29.7502 21.2987 29.7501 21.0004V10.9994C29.751 10.7011 29.6752 10.4075 29.5301 10.1469C29.3849 9.88632 29.1752 9.66739 28.921 9.51114ZM28.2501 21.0004C28.2508 21.0431 28.2402 21.0853 28.2195 21.1226C28.1988 21.16 28.1686 21.1913 28.132 21.2133C28.088 21.2397 27.9982 21.2797 27.9552 21.2621L23.7482 18.5874V13.413L27.8879 10.7758C27.926 10.7566 27.9684 10.7474 28.0111 10.7493C28.0537 10.7511 28.0952 10.7638 28.1316 10.7863C28.1679 10.8087 28.1979 10.8401 28.2187 10.8774C28.2394 10.9147 28.2503 10.9567 28.2502 10.9994L28.2501 21.0004Z" fill="black"/>
</svg>
