<svg width="32" height="32" viewBox="0 0 32 32" fill="none" xmlns="http://www.w3.org/2000/svg">
<path d="M16 25.75C16.6904 25.75 17.25 25.1903 17.25 24.5C17.25 23.8096 16.6904 23.25 16 23.25C15.3097 23.25 14.75 23.8096 14.75 24.5C14.75 25.1903 15.3097 25.75 16 25.75Z" fill="black"/>
<path d="M28.5304 11.4411C25.2043 8.12324 20.6981 6.25996 16.0001 6.25996C11.3021 6.25996 6.7959 8.12324 3.46983 11.4411C3.32965 11.5819 3.25103 11.7725 3.25122 11.9711C3.25142 12.1697 3.33041 12.3602 3.47087 12.5006C3.61133 12.6411 3.80177 12.7201 4.00041 12.7203C4.19905 12.7205 4.38965 12.6418 4.53038 12.5017C7.57488 9.4645 11.6997 7.75886 16.0001 7.75886C20.3005 7.75886 24.4253 9.4645 27.4698 12.5017C27.5394 12.5715 27.6221 12.627 27.7131 12.6648C27.8042 12.7027 27.9018 12.7223 28.0004 12.7223C28.099 12.7224 28.1967 12.7031 28.2878 12.6654C28.3789 12.6277 28.4617 12.5724 28.5314 12.5027C28.6011 12.433 28.6564 12.3502 28.6941 12.2591C28.7318 12.168 28.7512 12.0703 28.7511 11.9717C28.751 11.8731 28.7314 11.7755 28.6936 11.6844C28.6557 11.5934 28.6002 11.5107 28.5304 11.4411Z" fill="black"/>
<path d="M8.48937 17.1901C8.34364 17.3254 8.25755 17.513 8.25002 17.7117C8.24248 17.9104 8.31411 18.104 8.44918 18.2499C8.58424 18.3959 8.7717 18.4822 8.97039 18.4901C9.16908 18.4979 9.36276 18.4265 9.5089 18.2917C11.2791 16.6668 13.5943 15.7648 15.9972 15.7639C18.4001 15.763 20.716 16.6632 22.4874 18.2868C22.6335 18.4218 22.8272 18.4931 23.0259 18.4853C23.2246 18.4774 23.412 18.3909 23.547 18.2448C23.6819 18.0988 23.7533 17.9051 23.7454 17.7064C23.7376 17.5076 23.6511 17.3202 23.505 17.1853C21.4552 15.3077 18.776 14.2666 15.9962 14.2675C13.2165 14.2684 10.538 15.3112 8.48937 17.1901Z" fill="black"/>
</svg>
