<svg width="32" height="32" viewBox="0 0 32 32" fill="none" xmlns="http://www.w3.org/2000/svg">
<path d="M3.00013 20.0004C2.73491 20.0004 2.48056 20.1058 2.29302 20.2933C2.10549 20.4808 2.00013 20.7352 2.00013 21.0004C2.00013 21.2656 2.10549 21.52 2.29302 21.7075C2.48056 21.895 2.73491 22.0004 3.00013 22.0004C4.06067 22.0015 5.07747 22.4232 5.82739 23.1731C6.5773 23.9231 6.99907 24.9399 7.00013 26.0004C7.00013 26.2656 7.10549 26.52 7.29302 26.7075C7.48056 26.895 7.73491 27.0004 8.00013 27.0004C8.26535 27.0004 8.5197 26.895 8.70724 26.7075C8.89477 26.52 9.00013 26.2656 9.00013 26.0004C8.99839 24.4096 8.36569 22.8845 7.24085 21.7597C6.11601 20.6348 4.59089 20.0021 3.00013 20.0004Z" fill="black"/>
<path d="M3.50001 27C4.32844 27 5.00001 26.3284 5.00001 25.5C5.00001 24.6715 4.32844 24 3.50001 24C2.67158 24 2.00001 24.6715 2.00001 25.5C2.00001 26.3284 2.67158 27 3.50001 27Z" fill="black"/>
<path d="M3.00013 16.0004C2.73491 16.0004 2.48056 16.1058 2.29302 16.2933C2.10549 16.4808 2.00013 16.7352 2.00013 17.0004C2.00013 17.2656 2.10549 17.52 2.29302 17.7075C2.48056 17.895 2.73491 18.0004 3.00013 18.0004C5.12112 18.0028 7.15454 18.8465 8.6543 20.3462C10.1541 21.846 10.9977 23.8794 11.0001 26.0004C11.0001 26.2656 11.1055 26.52 11.293 26.7075C11.4806 26.895 11.7349 27.0004 12.0001 27.0004C12.2653 27.0004 12.5197 26.895 12.7072 26.7075C12.8948 26.52 13.0001 26.2656 13.0001 26.0004C12.997 23.3492 11.9424 20.8075 10.0678 18.9328C8.19307 17.0581 5.65134 16.0035 3.00013 16.0004Z" fill="black"/>
<path d="M29.0519 9.29825C28.7626 9.11753 28.4315 9.0145 28.0908 8.9991C27.75 8.98371 27.411 9.05647 27.1066 9.21036C27.0755 9.22575 27.0451 9.2427 27.0157 9.26114L23.9982 11.1803V10.0043C23.9966 8.67873 23.4693 7.40786 22.532 6.47052C21.5946 5.53317 20.3238 5.00589 18.9982 5.00433H6.99817C5.67241 5.00595 4.40142 5.53338 3.46406 6.47093C2.5267 7.40848 1.99952 8.67957 1.99817 10.0053L2.00017 13.0014C2.00039 13.2665 2.10585 13.5206 2.29337 13.7079C2.48089 13.8953 2.73511 14.0005 3.00017 14.0004H3.00117C3.26638 14.0002 3.52062 13.8945 3.70797 13.7068C3.89531 13.5191 4.00042 13.2646 4.00017 12.9994L3.99817 10.0043C3.99904 9.20894 4.31539 8.44638 4.87781 7.88396C5.44023 7.32154 6.20279 7.00519 6.99817 7.00432H18.9982C19.7936 7.00519 20.5561 7.32154 21.1185 7.88396C21.681 8.44638 21.9973 9.20894 21.9982 10.0043V22.0043C21.9974 22.7996 21.6812 23.562 21.1189 24.1244C20.5567 24.6868 19.7944 25.0032 18.9992 25.0043L16.0011 25.0004C15.8698 25.0003 15.7387 25.0261 15.6174 25.0763C15.496 25.1265 15.3858 25.2001 15.2929 25.293C15.1052 25.4804 14.9998 25.7347 14.9996 25.9999C14.9995 26.2651 15.1047 26.5195 15.2922 26.7072C15.4796 26.8948 15.7339 27.0003 15.9991 27.0004L18.9981 27.0043C20.3237 27.0028 21.5946 26.4755 22.5319 25.5381C23.4693 24.6008 23.9966 23.3299 23.9981 22.0043V20.8196L27.0167 22.7387C27.0456 22.7573 27.0756 22.7743 27.1065 22.7895C27.4114 22.9418 27.7502 23.0137 28.0907 22.9983C28.4312 22.9829 28.7621 22.8808 29.052 22.7015C29.3419 22.5223 29.5812 22.2719 29.7471 21.9742C29.9131 21.6764 30.0002 21.3412 30.0001 21.0004V10.9994C30.0013 10.6583 29.9147 10.3226 29.7487 10.0247C29.5826 9.72678 29.3426 9.4766 29.0519 9.29825ZM27.9991 20.9936L23.9981 18.4503V13.5509L28.0001 11.0053L27.9991 20.9936Z" fill="black"/>
</svg>
