<svg xmlns="http://www.w3.org/2000/svg" width="32" height="32" viewBox="0 0 32 32"><path d="M15.9999 25.7499C16.3315 25.7499 16.6494 25.6182 16.8838 25.3838C17.1182 25.1494 17.2499 24.8315 17.2499 24.4999C17.2499 24.1684 17.1182 23.8505 16.8838 23.6161C16.6494 23.3816 16.3315 23.2499 15.9999 23.2499C15.6684 23.2499 15.3505 23.3816 15.1161 23.6161C14.8816 23.8505 14.7499 24.1684 14.7499 24.4999C14.7499 24.8315 14.8816 25.1494 15.1161 25.3838C15.3505 25.6182 15.6684 25.7499 15.9999 25.7499ZM3.46994 11.4409C3.33746 11.5831 3.26534 11.7712 3.26876 11.9655C3.27219 12.1598 3.3509 12.3452 3.48832 12.4826C3.62573 12.62 3.81112 12.6987 4.00542 12.7021C4.19972 12.7055 4.38776 12.6334 4.52994 12.5009C5.33599 11.6968 6.22457 10.9798 7.18094 10.3619L6.10094 9.28194C5.15665 9.91583 4.27558 10.6392 3.46994 11.4419V11.4409ZM8.48994 17.1899C8.3438 17.3251 8.25734 17.5127 8.24955 17.7116C8.24177 17.9105 8.31331 18.1043 8.44844 18.2504C8.58357 18.3966 8.77121 18.483 8.97009 18.4908C9.16898 18.4986 9.3628 18.4271 9.50894 18.2919C10.5248 17.3546 11.7344 16.652 13.0519 16.2339L11.8799 15.0599C10.6283 15.5549 9.47897 16.277 8.48994 17.1899ZM16.8639 15.8029C18.9616 15.9856 20.9393 16.8593 22.4869 18.2869C22.6331 18.4219 22.8268 18.4934 23.0256 18.4855C23.2244 18.4776 23.4119 18.3911 23.5469 18.2449C23.6819 18.0988 23.7533 17.905 23.7455 17.7062C23.7376 17.5075 23.6511 17.3199 23.5049 17.1849C22.4111 16.1803 21.1257 15.4066 19.7259 14.9104C18.326 14.4141 16.8404 14.2055 15.3579 14.2969L9.97694 8.91594C12.9243 7.73962 16.1516 7.45237 19.2604 8.08965C22.3691 8.72694 25.2232 10.2608 27.4699 12.5019C27.5386 12.5756 27.6214 12.6347 27.7134 12.6757C27.8054 12.7167 27.9047 12.7388 28.0054 12.7405C28.1061 12.7423 28.2061 12.7238 28.2995 12.6861C28.3929 12.6483 28.4778 12.5922 28.549 12.521C28.6202 12.4498 28.6763 12.3649 28.7141 12.2715C28.7518 12.1782 28.7703 12.0781 28.7685 11.9774C28.7668 11.8767 28.7447 11.7774 28.7037 11.6854C28.6627 11.5934 28.6036 11.5106 28.5299 11.4419C25.9991 8.91927 22.7653 7.21989 19.2522 6.56645C15.7391 5.91301 12.1106 6.33598 8.84194 7.77994L4.52994 3.46894C4.46072 3.39734 4.37794 3.34025 4.28641 3.30098C4.19489 3.26172 4.09647 3.24108 3.99688 3.24026C3.8973 3.23944 3.79855 3.25846 3.70639 3.29622C3.61424 3.33397 3.53053 3.3897 3.46014 3.46015C3.38976 3.53061 3.33411 3.61437 3.29644 3.70656C3.25877 3.79875 3.23984 3.89752 3.24075 3.9971C3.24167 4.09669 3.2624 4.19509 3.30175 4.28658C3.3411 4.37806 3.39828 4.46079 3.46994 4.52994L27.4699 28.5299C27.5386 28.6036 27.6214 28.6627 27.7134 28.7037C27.8054 28.7447 27.9047 28.7668 28.0054 28.7685C28.1061 28.7703 28.2061 28.7518 28.2995 28.7141C28.3929 28.6763 28.4778 28.6202 28.549 28.549C28.6202 28.4778 28.6763 28.3929 28.7141 28.2995C28.7518 28.2062 28.7703 28.1061 28.7685 28.0054C28.7668 27.9047 28.7447 27.8054 28.7037 27.7134C28.6627 27.6214 28.6036 27.5386 28.5299 27.4699L16.8639 15.8029Z"/></svg>