<svg xmlns="http://www.w3.org/2000/svg" width="32" height="32" viewBox="0 0 32 32"><path d="M28.965 6.8938C28.4818 6.1452 27.7222 5.61806 26.8518 5.42735C25.9815 5.23664 25.071 5.39785 24.319 5.8758L17.841 10.0128L11.493 5.9008C11.0807 5.6705 10.6002 5.59362 10.1366 5.68379C9.67299 5.77397 9.25629 6.02536 8.96036 6.39343C8.66442 6.76149 8.50836 7.22244 8.51983 7.69458C8.5313 8.16672 8.70957 8.61955 9.02303 8.9728L12.428 13.4698L9.52703 15.3228C8.39587 14.4847 7.10501 13.887 5.73403 13.5668C4.94336 13.4123 4.12346 13.5483 3.42503 13.9498C2.44303 14.5798 2.37803 15.2798 2.62403 15.6928L5.38503 20.1928L6.52003 22.1448C6.6897 22.436 6.91643 22.6899 7.18664 22.8913C7.45685 23.0927 7.76496 23.2375 8.09248 23.3168C8.42001 23.3962 8.76019 23.4086 9.09262 23.3533C9.42505 23.298 9.74288 23.176 10.027 22.9948L16.566 18.8178L17.026 24.9618C17.0936 25.4313 17.3298 25.8601 17.6905 26.168C18.0513 26.4759 18.5118 26.6419 18.986 26.6348H19C19.474 26.6441 19.9352 26.4809 20.2977 26.1755C20.6603 25.8702 20.8996 25.4435 20.971 24.9748L22.461 15.0548L27.943 11.5548C28.3165 11.3162 28.6393 11.0062 28.8928 10.6427C29.1463 10.2791 29.3256 9.86907 29.4205 9.43611C29.5153 9.00316 29.5238 8.55574 29.4455 8.11949C29.3672 7.68325 29.2036 7.26673 28.964 6.8938H28.965Z"/></svg>