<svg width="32" height="32" viewBox="0 0 32 32" fill="none" xmlns="http://www.w3.org/2000/svg">
<path d="M29.1752 6.6257C28.6559 5.82197 27.8399 5.25616 26.9052 5.05163C25.9704 4.8471 24.9927 5.02046 24.1852 5.5339L17.8426 9.5834L11.6146 5.55C11.148 5.27879 10.5984 5.18756 10.0692 5.29351C9.53999 5.39946 9.06782 5.69526 8.7416 6.1252C8.40686 6.53244 8.23068 7.047 8.24557 7.57396C8.26046 8.10091 8.4654 8.6047 8.82261 8.9924L12.0649 13.273L9.53 14.8913C8.40395 14.0736 7.12332 13.4934 5.766 13.1862C4.91706 13.0223 4.0375 13.1719 3.2904 13.6071C2.1576 14.3337 2.1058 15.1794 2.4095 15.6911L5.1695 20.1862L6.3043 22.1374C6.4906 22.4579 6.73978 22.7374 7.03686 22.959C7.33394 23.1807 7.67279 23.3401 8.03302 23.4275C8.39326 23.5149 8.76745 23.5285 9.13309 23.4676C9.49873 23.4066 9.84827 23.2724 10.1607 23.0729L16.3482 19.1208L16.7808 24.8688C16.8611 25.3947 17.1278 25.8743 17.5322 26.2199C17.9366 26.5656 18.4519 26.7543 18.9839 26.7517H19.0025C19.5347 26.7567 20.0511 26.5706 20.4577 26.2271C20.8643 25.8836 21.1341 25.4056 21.2181 24.88L22.6927 15.0724L28.0775 11.6329C28.4791 11.3769 28.8262 11.0441 29.0989 10.6537C29.3715 10.2632 29.5644 9.82272 29.6664 9.35752C29.7684 8.89232 29.7775 8.41155 29.6932 7.94282C29.6089 7.47409 29.4329 7.02622 29.1752 6.6257ZM9.9671 8.0251C9.83887 7.89767 9.76319 7.72671 9.75506 7.54611C9.74693 7.3655 9.80694 7.18844 9.9232 7.05C10.0229 6.90797 10.1712 6.80745 10.34 6.76749C10.5088 6.72753 10.6865 6.75091 10.8392 6.8332L16.453 10.4712L13.333 12.4633L9.9671 8.0251ZM28.2005 9.0358C28.1416 9.30854 28.029 9.56684 27.8694 9.79568C27.7097 10.0245 27.5061 10.2193 27.2705 10.3688L21.598 13.9919C21.5076 14.0493 21.4307 14.1256 21.3724 14.2154C21.3141 14.3052 21.2758 14.4065 21.2601 14.5124L19.7386 24.6354C19.7213 24.8155 19.6334 24.9813 19.4942 25.0968C19.3549 25.2123 19.1757 25.268 18.9955 25.2517C18.8275 25.2599 18.6621 25.208 18.5289 25.1053C18.3957 25.0025 18.3035 24.8557 18.2689 24.6911L17.7494 17.7575C17.7397 17.6281 17.6966 17.5035 17.6244 17.3958C17.5521 17.288 17.4532 17.2009 17.3371 17.1428C17.2211 17.0848 17.092 17.0578 16.9625 17.0645C16.8329 17.0713 16.7074 17.1115 16.598 17.1813L9.3539 21.8093C9.21176 21.8997 9.05285 21.9604 8.88668 21.9879C8.72051 22.0154 8.5505 22.0091 8.38683 21.9693C8.22315 21.9296 8.06919 21.8572 7.93415 21.7565C7.7991 21.6559 7.68576 21.529 7.6009 21.3835L6.4574 19.4167L3.8089 15.1022C3.89678 15.0132 3.99478 14.9349 4.1009 14.8688C4.55038 14.6237 5.07492 14.5544 5.5726 14.6745C6.85157 15.0048 8.04913 15.5941 9.0912 16.4059C9.21274 16.4898 9.35633 16.5359 9.50399 16.5386C9.65164 16.5412 9.79678 16.5001 9.9212 16.4206L24.9912 6.7976C25.344 6.57218 25.7557 6.45639 26.1743 6.46487C26.5929 6.47335 26.9996 6.60571 27.343 6.84523C27.6864 7.08475 27.9511 7.42068 28.1037 7.81057C28.2562 8.20047 28.2902 8.62683 28.2005 9.0358Z" fill="black"/>
</svg>
