<svg xmlns="http://www.w3.org/2000/svg" width="32" height="32" viewBox="0 0 32 32"><path d="M29.444 6.00979C29.2833 5.89239 29.0825 5.84361 28.8858 5.87417C28.6891 5.90474 28.5126 6.01214 28.395 6.17279L26.359 8.95579C26.1383 7.60391 25.6319 6.31464 24.8735 5.17396C24.1151 4.03328 23.1222 3.06741 21.961 2.34079C21.7869 2.25159 21.5848 2.23396 21.3979 2.29167C21.2109 2.34938 21.0539 2.47786 20.9604 2.64969C20.8669 2.82152 20.8442 3.02311 20.8971 3.21144C20.9501 3.39978 21.0746 3.55995 21.244 3.65779C22.2813 4.32368 23.1545 5.21545 23.7985 6.2664C24.4426 7.31735 24.8406 8.5003 24.963 9.72679L21.345 7.85379C21.2576 7.80848 21.1621 7.78084 21.0639 7.77246C20.9658 7.76407 20.8669 7.77509 20.7731 7.8049C20.6792 7.83471 20.5921 7.88272 20.5168 7.94618C20.4414 8.00965 20.3794 8.08733 20.334 8.17479C20.2887 8.26225 20.2611 8.35777 20.2527 8.45592C20.2443 8.55406 20.2554 8.65289 20.2852 8.74677C20.315 8.84065 20.363 8.92774 20.4264 9.00306C20.4899 9.07839 20.5676 9.14048 20.655 9.18579L25.448 11.6658C25.607 11.7481 25.7901 11.7708 25.9643 11.7299C26.1385 11.689 26.2923 11.5872 26.398 11.4428L29.606 7.05979C29.7236 6.899 29.7726 6.69814 29.7422 6.50128C29.7118 6.30443 29.6046 6.12767 29.444 6.00979ZM24.038 19.6998C23.4253 19.0889 22.5952 18.746 21.7299 18.7466C20.8647 18.7472 20.035 19.0911 19.423 19.7028C19.423 19.7028 18.163 20.9838 17.687 21.4628C15.8021 21.4264 14.0046 20.6614 12.6715 19.3284C11.3384 17.9953 10.5734 16.1977 10.537 14.3128C11.013 13.8378 12.297 12.5768 12.3 12.5728C12.6029 12.2701 12.8431 11.9106 13.007 11.5151C13.1709 11.1195 13.2552 10.6955 13.2552 10.2673C13.2552 9.8391 13.1709 9.4151 13.007 9.01952C12.8431 8.62394 12.6029 8.26452 12.3 7.96179L9.54705 5.20779C8.93275 4.59518 8.1006 4.25116 7.23305 4.25116C6.36549 4.25116 5.53334 4.59518 4.91905 5.20779L3.44805 6.67979C2.26805 7.85979 1.92805 10.2828 2.56305 13.0038C3.10905 15.3508 4.63605 19.0218 8.80705 23.1918C12.977 27.3618 16.649 28.8898 18.995 29.4358C19.843 29.6388 20.71 29.7448 21.581 29.7508C22.9351 29.8475 24.2743 29.4176 25.319 28.5508L26.791 27.0798C27.4041 26.4657 27.7485 25.6335 27.7485 24.7658C27.7485 23.8981 27.4041 23.0658 26.791 22.4518L24.038 19.6998ZM25.73 26.0198L24.258 27.4908C23.622 28.1278 21.804 28.5528 19.336 27.9758C17.18 27.4738 13.786 26.0518 9.86805 22.1318C5.94805 18.2118 4.52605 14.8188 4.02305 12.6628C3.44705 10.1898 3.87105 8.37779 4.50805 7.73979L5.98005 6.26979C6.31305 5.93838 6.76374 5.75234 7.23355 5.75234C7.70335 5.75234 8.15404 5.93838 8.48705 6.26979L11.24 9.02279C11.5695 9.35202 11.7551 9.79846 11.756 10.2643C11.757 10.7301 11.5732 11.1772 11.245 11.5078C11.245 11.5078 9.74105 12.9858 9.37805 13.3498C9.24521 13.5112 9.14585 13.6974 9.08575 13.8976C9.02566 14.0978 9.00604 14.3079 9.02805 14.5158C9.12265 16.7278 10.0437 18.8237 11.609 20.3895C13.1743 21.9552 15.2701 22.8767 17.482 22.9718H17.485C17.6927 22.9939 17.9026 22.9744 18.1027 22.9145C18.3027 22.8546 18.4888 22.7554 18.65 22.6228C19.013 22.2598 20.488 20.7608 20.488 20.7608C20.8185 20.4315 21.266 20.2465 21.7325 20.2465C22.1991 20.2465 22.6466 20.4315 22.977 20.7608L25.73 23.5138C26.0619 23.8464 26.2482 24.297 26.2482 24.7668C26.2482 25.2366 26.0619 25.6872 25.73 26.0198Z"/></svg>