<svg xmlns="http://www.w3.org/2000/svg" width="32" height="32" viewBox="0 0 32 32"><path d="M16.006 22.75C16.2712 22.75 16.5256 22.6446 16.7131 22.4571C16.9006 22.2696 17.006 22.0152 17.006 21.75C17.006 21.4848 16.9006 21.2304 16.7131 21.0429C16.5256 20.8554 16.2712 20.75 16.006 20.75C15.7408 20.75 15.4864 20.8554 15.2989 21.0429C15.1114 21.2304 15.006 21.4848 15.006 21.75C15.006 22.0152 15.1114 22.2696 15.2989 22.4571C15.4864 22.6446 15.7408 22.75 16.006 22.75ZM16 10.25C15.0058 10.2511 14.0526 10.6465 13.3495 11.3495C12.6465 12.0526 12.2511 13.0058 12.25 14C12.25 14.1989 12.329 14.3897 12.4697 14.5303C12.6103 14.671 12.8011 14.75 13 14.75C13.1989 14.75 13.3897 14.671 13.5303 14.5303C13.671 14.3897 13.75 14.1989 13.75 14C13.75 13.555 13.882 13.12 14.1292 12.75C14.3764 12.38 14.7278 12.0916 15.139 11.9213C15.5501 11.751 16.0025 11.7064 16.439 11.7932C16.8754 11.8801 17.2763 12.0943 17.591 12.409C17.9057 12.7237 18.1199 13.1246 18.2068 13.561C18.2936 13.9975 18.249 14.4499 18.0787 14.861C17.9084 15.2722 17.62 15.6236 17.25 15.8708C16.88 16.118 16.445 16.25 16 16.25C15.8011 16.25 15.6103 16.329 15.4697 16.4697C15.329 16.6103 15.25 16.8011 15.25 17V19C15.25 19.1989 15.329 19.3897 15.4697 19.5303C15.6103 19.671 15.8011 19.75 16 19.75C16.1989 19.75 16.3897 19.671 16.5303 19.5303C16.671 19.3897 16.75 19.1989 16.75 19V17.675C17.6614 17.4899 18.4715 16.9729 19.023 16.2241C19.5746 15.4754 19.8282 14.5484 19.7348 13.6231C19.6413 12.6979 19.2074 11.8404 18.5173 11.217C17.8271 10.5937 16.93 10.2491 16 10.25Z M23 4.25H9C7.74063 4.25132 6.53322 4.75219 5.6427 5.6427C4.75219 6.53322 4.25132 7.74063 4.25 9V23C4.25159 24.2593 4.75254 25.4666 5.643 26.357C6.53345 27.2475 7.74071 27.7484 9 27.75H23C24.2593 27.7484 25.4666 27.2475 26.357 26.357C27.2475 25.4666 27.7484 24.2593 27.75 23V9C27.7487 7.74063 27.2478 6.53322 26.3573 5.6427C25.4668 4.75219 24.2594 4.25132 23 4.25ZM26.25 23C26.2489 23.8616 25.9062 24.6877 25.2969 25.2969C24.6877 25.9062 23.8616 26.2489 23 26.25H9C8.13837 26.2489 7.31234 25.9062 6.70307 25.2969C6.09381 24.6877 5.75106 23.8616 5.75 23V9C5.75106 8.13837 6.09381 7.31234 6.70307 6.70307C7.31234 6.09381 8.13837 5.75106 9 5.75H23C23.8616 5.75106 24.6877 6.09381 25.2969 6.70307C25.9062 7.31234 26.2489 8.13837 26.25 9V23Z"/></svg>