<svg width="32" height="32" viewBox="0 0 32 32" fill="none" xmlns="http://www.w3.org/2000/svg">
<path d="M22 2.25H10C8.74063 2.25132 7.53322 2.75219 6.6427 3.6427C5.75219 4.53322 5.25132 5.74063 5.25 7V25C5.25159 26.2593 5.75254 27.4666 6.643 28.357C7.53345 29.2475 8.74071 29.7484 10 29.75H22C23.2594 29.7487 24.4668 29.2478 25.3573 28.3573C26.2478 27.4668 26.7487 26.2594 26.75 25V7C26.7484 5.74071 26.2475 4.53345 25.357 3.643C24.4666 2.75254 23.2593 2.25159 22 2.25V2.25ZM25.25 25C25.2489 25.8616 24.9062 26.6877 24.2969 27.2969C23.6877 27.9062 22.8616 28.2489 22 28.25H10C9.13837 28.2489 8.31234 27.9062 7.70307 27.2969C7.09381 26.6877 6.75106 25.8616 6.75 25V7C6.75106 6.13837 7.09381 5.31234 7.70307 4.70307C8.31234 4.09381 9.13837 3.75106 10 3.75H22C22.8616 3.75106 23.6877 4.09381 24.2969 4.70307C24.9062 5.31234 25.2489 6.13837 25.25 7V25Z" fill="#0F0F0F"/>
<path d="M20.5121 12.43L14.0401 17.977L11.5311 15.456C11.3899 15.319 11.2007 15.243 11.004 15.2442C10.8073 15.2454 10.619 15.3238 10.4796 15.4626C10.3402 15.6013 10.2609 15.7893 10.2587 15.9859C10.2566 16.1826 10.3317 16.3723 10.4681 16.514L13.4681 19.529C13.6016 19.6632 13.781 19.7419 13.9702 19.7493C14.1594 19.7567 14.3444 19.6923 14.4881 19.569L21.4881 13.569C21.5636 13.5052 21.6258 13.427 21.671 13.339C21.7162 13.251 21.7436 13.155 21.7515 13.0564C21.7594 12.9578 21.7478 12.8586 21.7172 12.7645C21.6867 12.6704 21.6378 12.5833 21.5734 12.5082C21.5091 12.4331 21.4305 12.3715 21.3422 12.3268C21.2539 12.2822 21.1577 12.2555 21.059 12.2482C20.9604 12.241 20.8612 12.2533 20.7674 12.2845C20.6735 12.3157 20.5867 12.3651 20.5121 12.43V12.43Z" fill="#0F0F0F"/>
</svg>
