<svg width="32" height="32" viewBox="0 0 32 32" fill="none" xmlns="http://www.w3.org/2000/svg">
<path d="M22 30H10C8.6744 29.9984 7.40356 29.4711 6.46622 28.5338C5.52888 27.5964 5.00159 26.3256 5 25V7C5.00159 5.6744 5.52888 4.40356 6.46622 3.46622C7.40356 2.52888 8.6744 2.00159 10 2H22C23.3256 2.00159 24.5964 2.52888 25.5338 3.46622C26.4711 4.40356 26.9984 5.6744 27 7V25C26.9984 26.3256 26.4711 27.5964 25.5338 28.5338C24.5964 29.4711 23.3256 29.9984 22 30ZM10 4C9.20459 4.00079 8.44199 4.31712 7.87956 4.87956C7.31712 5.44199 7.00079 6.20459 7 7V25C7.00079 25.7954 7.31712 26.558 7.87956 27.1204C8.44199 27.6829 9.20459 27.9992 10 28H22C22.7954 27.9992 23.558 27.6829 24.1204 27.1204C24.6829 26.558 24.9992 25.7954 25 25V7C24.9989 6.20468 24.6825 5.44223 24.1202 4.87985C23.5578 4.31747 22.7953 4.00106 22 4H10Z" fill="#0F0F0F"/>
<path d="M14 20.0001C13.868 20.0004 13.7373 19.9745 13.6154 19.9238C13.4935 19.8732 13.3829 19.7988 13.29 19.7051L10.29 16.6901C10.103 16.5019 9.99843 16.2471 9.99927 15.9819C10.0001 15.7166 10.1063 15.4625 10.2945 15.2756C10.4826 15.0886 10.7374 14.984 11.0027 14.9849C11.2679 14.9857 11.522 15.0919 11.709 15.2801L14.054 17.6361L20.349 12.2411C20.4485 12.1552 20.564 12.0899 20.6888 12.0488C20.8137 12.0077 20.9454 11.9918 21.0764 12.0018C21.2075 12.0119 21.3352 12.0477 21.4524 12.1073C21.5695 12.1669 21.6737 12.249 21.759 12.3491C21.8445 12.4487 21.9096 12.5643 21.9504 12.6892C21.9912 12.814 22.007 12.9457 21.9969 13.0767C21.9868 13.2076 21.9509 13.3353 21.8914 13.4524C21.8319 13.5695 21.7498 13.6737 21.65 13.7591L14.65 19.7591C14.4691 19.9143 14.2384 19.9995 14 19.9991V20.0001Z" fill="#0F0F0F"/>
</svg>
