<svg xmlns="http://www.w3.org/2000/svg" width="32" height="32" viewBox="0 0 32 32"><path d="M22 2.5H10C8.80693 2.50132 7.66311 2.97585 6.81948 3.81948C5.97585 4.66311 5.50132 5.80693 5.5 7V25C5.50132 26.1931 5.97585 27.3369 6.81948 28.1805C7.66311 29.0241 8.80693 29.4987 10 29.5H22C23.1931 29.4987 24.3369 29.0241 25.1805 28.1805C26.0241 27.3369 26.4987 26.1931 26.5 25V7C26.4987 5.80693 26.0241 4.66311 25.1805 3.81948C24.3369 2.97585 23.1931 2.50132 22 2.5ZM25.5 25C25.4987 25.9279 25.1295 26.8173 24.4734 27.4734C23.8173 28.1295 22.9279 28.4987 22 28.5H10C9.07207 28.4989 8.18244 28.1299 7.5263 27.4737C6.87015 26.8176 6.50106 25.9279 6.5 25V7C6.50106 6.07207 6.87015 5.18244 7.5263 4.5263C8.18244 3.87015 9.07207 3.50106 10 3.5H22C22.9279 3.50106 23.8176 3.87015 24.4737 4.5263C25.1299 5.18244 25.4989 6.07207 25.5 7V25Z M20.6751 12.62L14.0271 18.318L11.3541 15.632C11.2961 15.573 11.2245 15.5292 11.1456 15.5045C11.0666 15.4798 10.9828 15.4751 10.9015 15.4906C10.8203 15.5061 10.7441 15.5415 10.6799 15.5936C10.6156 15.6456 10.5652 15.7128 10.5331 15.789C10.4948 15.8813 10.485 15.9828 10.505 16.0807C10.5249 16.1785 10.5737 16.2682 10.6451 16.338L13.6451 19.352C13.734 19.4417 13.8535 19.4944 13.9796 19.4996C14.1057 19.5048 14.2291 19.4621 14.3251 19.38L21.3251 13.38C21.375 13.3373 21.416 13.2853 21.4458 13.2267C21.4755 13.1682 21.4935 13.1044 21.4986 13.0389C21.5037 12.9735 21.4959 12.9076 21.4755 12.8452C21.4552 12.7827 21.4228 12.7249 21.3801 12.675C21.3374 12.6251 21.2853 12.5841 21.2268 12.5543C21.1683 12.5246 21.1044 12.5066 21.039 12.5015C20.9735 12.4964 20.9077 12.5042 20.8452 12.5246C20.7828 12.5449 20.725 12.5773 20.6751 12.62Z"/></svg>