<svg width="32" height="32" viewBox="0 0 32 32" fill="none" xmlns="http://www.w3.org/2000/svg">
<path d="M21.9998 2.49969H9.99976C8.80668 2.50099 7.66285 2.97552 6.81922 3.81915C5.97559 4.66278 5.50106 5.80662 5.49976 6.99969V24.9997C5.50106 26.1928 5.97558 27.3366 6.81921 28.1802C7.66284 29.0239 8.80668 29.4984 9.99976 29.4997H21.9998C23.1928 29.4984 24.3367 29.0239 25.1803 28.1802C26.0239 27.3366 26.4985 26.1928 26.4998 24.9997V6.99969C26.4985 5.80662 26.0239 4.66278 25.1803 3.81915C24.3367 2.97552 23.1928 2.50099 21.9998 2.49969ZM25.4998 24.9997C25.4986 25.9276 25.1295 26.8172 24.4734 27.4733C23.8173 28.1295 22.9277 28.4986 21.9998 28.4997H9.99976C9.07184 28.4986 8.18226 28.1295 7.52612 27.4733C6.86999 26.8172 6.50088 25.9276 6.49976 24.9997V6.99969C6.50088 6.07178 6.86999 5.18219 7.52613 4.52606C8.18226 3.86993 9.07184 3.50082 9.99976 3.49969H21.9998C22.9277 3.50081 23.8173 3.86993 24.4734 4.52606C25.1295 5.18219 25.4986 6.07178 25.4998 6.99969V24.9997Z" fill="black"/>
<path d="M20.6746 12.6198L14.0271 18.318L11.3543 15.6325C11.3082 15.5849 11.2531 15.547 11.1923 15.5208C11.1314 15.4947 11.066 15.4809 10.9998 15.4803C10.9335 15.4797 10.8678 15.4922 10.8065 15.5172C10.7452 15.5421 10.6894 15.579 10.6424 15.6257C10.5955 15.6724 10.5583 15.728 10.533 15.7892C10.5076 15.8504 10.4948 15.916 10.495 15.9823C10.4953 16.0485 10.5087 16.114 10.5345 16.175C10.5603 16.236 10.5979 16.2913 10.6453 16.3376L13.6453 19.3522C13.7342 19.4417 13.8537 19.4942 13.9797 19.4993C14.1058 19.5044 14.2291 19.4616 14.3249 19.3796L21.3249 13.3796C21.4257 13.2933 21.4881 13.1706 21.4983 13.0384C21.5086 12.9061 21.4659 12.7753 21.3796 12.6745C21.2934 12.5737 21.1707 12.5114 21.0384 12.5011C20.9062 12.4909 20.7753 12.5336 20.6746 12.6198Z" fill="black"/>
</svg>
