<svg width="32" height="32" viewBox="0 0 32 32" fill="none" xmlns="http://www.w3.org/2000/svg">
<path d="M23.1172 17.8724C23.6334 17.5608 24.082 17.1491 24.4367 16.6615C24.7914 16.174 25.045 15.6204 25.1825 15.0333C25.3201 14.4463 25.3388 13.8377 25.2376 13.2433C25.1364 12.6489 24.9173 12.0808 24.5933 11.5723C24.2692 11.0638 23.8467 10.6254 23.3507 10.2826C22.8546 9.93991 22.295 9.69988 21.7048 9.57667C21.1146 9.45346 20.5057 9.44956 19.9139 9.56519C19.3222 9.68083 18.7595 9.91366 18.2591 10.25C18.2661 10.1595 18.2863 10.0727 18.2863 9.98C18.2865 9.34523 18.114 8.72236 17.7874 8.1781C17.4607 7.63385 16.9921 7.18873 16.4318 6.89041C15.8715 6.59209 15.2406 6.45182 14.6066 6.48462C13.9727 6.51742 13.3596 6.72205 12.8331 7.0766C12.9277 6.54366 12.8791 5.99516 12.6922 5.48718C12.5053 4.9792 12.1868 4.52997 11.7694 4.1854C11.352 3.84084 10.8505 3.61331 10.3163 3.52607C9.78215 3.43883 9.23438 3.49502 8.72902 3.68889C8.22366 3.88276 7.77885 4.20735 7.44007 4.62948C7.10128 5.05162 6.88068 5.55615 6.8008 6.09149C6.72093 6.62683 6.78466 7.17378 6.98546 7.67642C7.18627 8.17906 7.51696 8.61936 7.94372 8.9523C6.97049 9.26413 6.11833 9.87092 5.50529 10.6886C4.89226 11.5063 4.5487 12.4944 4.52222 13.516C4.52222 15.1678 6.12822 16.2115 8.93222 16.4481C8.74673 16.9922 8.65213 17.5632 8.65222 18.1381C8.65222 20.0264 10.5539 21.2193 13.8731 21.4912C13.3403 22.4614 13.0595 23.5498 13.0565 24.6566C13.0565 25.5297 13.5023 26.7533 15.6254 27.6266C17.2753 28.2393 19.0258 28.5358 20.7854 28.5007C24.632 28.5007 28.5134 27.3122 28.5134 24.6569C28.4697 23.0943 27.9199 21.5881 26.9469 20.3647C25.9738 19.1412 24.6299 18.2667 23.1172 17.8724ZM20.7844 10.4789C21.4826 10.4789 22.1651 10.6859 22.7456 11.0738C23.3261 11.4617 23.7785 12.013 24.0457 12.658C24.3129 13.3031 24.3828 14.0128 24.2466 14.6976C24.1104 15.3823 23.7742 16.0113 23.2805 16.505C22.7868 16.9987 22.1578 17.3349 21.4731 17.4711C20.7883 17.6073 20.0786 17.5374 19.4335 17.2702C18.7885 17.003 18.2372 16.5506 17.8493 15.9701C17.4614 15.3896 17.2544 14.7071 17.2544 14.0089C17.2556 13.073 17.6279 12.1758 18.2896 11.5141C18.9514 10.8523 19.8486 10.4801 20.7844 10.4789ZM14.7853 7.48C15.28 7.4798 15.7637 7.62632 16.1751 7.90102C16.5865 8.17571 16.9072 8.56625 17.0967 9.02324C17.2861 9.48023 17.3358 9.98313 17.2394 10.4683C17.143 10.9536 16.9049 11.3993 16.5551 11.7492C16.2054 12.099 15.7597 12.3373 15.2745 12.4339C14.7894 12.5305 14.2864 12.481 13.8294 12.2917C13.3723 12.1024 12.9817 11.7818 12.7068 11.3705C12.432 10.9592 12.2853 10.4756 12.2853 9.9809C12.2861 9.31802 12.5497 8.6825 13.0184 8.21369C13.487 7.74488 14.1224 7.48103 14.7853 7.48ZM7.76732 6.559C7.7674 6.15177 7.88823 5.7537 8.11453 5.41513C8.34084 5.07657 8.66245 4.81271 9.03871 4.65692C9.41497 4.50114 9.82897 4.46042 10.2284 4.53991C10.6278 4.61941 10.9946 4.81555 11.2826 5.10354C11.5705 5.39152 11.7666 5.75842 11.846 6.15784C11.9254 6.55725 11.8846 6.97125 11.7287 7.34748C11.5729 7.7237 11.309 8.04527 10.9703 8.27151C10.6317 8.49775 10.2337 8.6185 9.82642 8.6185C9.28043 8.61789 8.75698 8.4007 8.37094 8.01459C7.98491 7.62848 7.76782 7.10499 7.76732 6.559ZM9.37132 15.4863C8.17862 15.4163 5.52222 15.0846 5.52222 13.5163C5.57973 12.43 6.06456 11.4105 6.87092 10.6802C7.67728 9.95001 8.73971 9.56834 9.82642 9.6185C10.3242 9.63232 10.8186 9.7038 11.2999 9.8315C11.2977 9.8821 11.2849 9.9298 11.2849 9.9808C11.2861 10.5343 11.4189 11.0796 11.6724 11.5716C11.9258 12.0637 12.2926 12.4884 12.7425 12.8108C11.3286 13.2588 10.1288 14.2111 9.37132 15.4863ZM9.65202 18.1381C9.71976 16.8415 10.2975 15.6244 11.2591 14.7521C12.2207 13.8798 13.4883 13.4232 14.7853 13.4818C15.2917 13.4982 15.7948 13.5706 16.2853 13.6975C16.278 13.8024 16.2538 13.9025 16.2538 14.0092C16.256 14.7879 16.4595 15.5529 16.8445 16.2298C17.2295 16.9067 17.783 17.4726 18.4512 17.8725C16.8833 18.3225 15.4975 19.256 14.4912 20.5399C12.1093 20.4244 9.65202 19.7408 9.65202 18.1381ZM20.7849 27.5C17.5231 27.5 14.0563 26.5029 14.0563 24.6562C14.0563 21.2832 17.0744 18.539 20.7844 18.539C24.4944 18.539 27.5129 21.2832 27.5129 24.6562C27.5129 26.5033 24.0461 27.5 20.7849 27.5Z" fill="black"/>
</svg>
