<svg width="32" height="32" viewBox="0 0 32 32" fill="none" xmlns="http://www.w3.org/2000/svg">
<path d="M23.6689 17.7954C24.6353 17.0745 25.2917 16.0134 25.5053 14.8269C25.719 13.6403 25.474 12.4169 24.8198 11.4042C24.1656 10.3915 23.1512 9.66507 21.9817 9.37196C20.8122 9.07886 19.5751 9.24093 18.5206 9.8254C18.4814 8.8602 18.071 7.94741 17.3751 7.2775C16.6791 6.60759 15.7513 6.23233 14.7853 6.23C14.209 6.23365 13.6415 6.37178 13.1279 6.6334C13.1285 6.6081 13.1354 6.5845 13.1354 6.5591C13.1366 6.01615 13.0042 5.48124 12.7499 5.00154C12.4955 4.52185 12.127 4.11211 11.6769 3.80847C11.2268 3.50482 10.7089 3.3166 10.1689 3.2604C9.62882 3.20419 9.08325 3.28174 8.58026 3.48619C8.07727 3.69065 7.63231 4.01573 7.28463 4.43277C6.93696 4.84981 6.69724 5.34599 6.58663 5.87756C6.47601 6.40913 6.49789 6.95975 6.65035 7.48086C6.8028 8.00198 7.08114 8.47757 7.46082 8.8657C6.53404 9.24578 5.73852 9.88837 5.17204 10.7145C4.60555 11.5406 4.2928 12.5142 4.27222 13.5157C4.27222 15.2526 5.84382 16.3726 8.60902 16.6725C8.47393 17.1493 8.4043 17.6422 8.40202 18.1378C8.40202 20.099 10.2401 21.3667 13.4764 21.7109C13.0365 22.6306 12.8076 23.6369 12.8064 24.6563C12.8064 25.6055 13.2791 26.9317 15.5301 27.8575C17.2102 28.4822 18.9929 28.785 20.785 28.7501C24.7561 28.7501 28.763 27.4844 28.763 24.6563C28.7255 23.1269 28.2157 21.6465 27.3037 20.4182C26.3917 19.1899 25.1221 18.2738 23.6689 17.7954ZM20.7844 10.7289C21.4331 10.7289 22.0673 10.9213 22.6067 11.2817C23.1461 11.6421 23.5665 12.1544 23.8147 12.7537C24.063 13.353 24.128 14.0125 24.0014 14.6488C23.8748 15.2851 23.5624 15.8695 23.1037 16.3282C22.645 16.7869 22.0606 17.0993 21.4243 17.2259C20.7881 17.3524 20.1286 17.2875 19.5292 17.0392C18.9299 16.791 18.4176 16.3706 18.0572 15.8312C17.6968 15.2918 17.5044 14.6576 17.5044 14.0089C17.5055 13.1393 17.8514 12.3057 18.4663 11.6908C19.0812 11.0759 19.9148 10.73 20.7844 10.7289ZM14.7853 7.73C15.2306 7.7298 15.6659 7.86166 16.0362 8.10888C16.4065 8.35611 16.6952 8.70761 16.8657 9.11891C17.0362 9.53022 17.0809 9.98285 16.9942 10.4196C16.9074 10.8563 16.6931 11.2575 16.3783 11.5724C16.0636 11.8873 15.6625 12.1018 15.2258 12.1887C14.7891 12.2756 14.3364 12.2311 13.9251 12.0607C13.5137 11.8904 13.1621 11.6018 12.9147 11.2316C12.6673 10.8614 12.5353 10.4262 12.5353 9.9809C12.536 9.38428 12.7732 8.81228 13.195 8.39032C13.6168 7.96837 14.1887 7.7309 14.7853 7.73ZM9.82642 4.75C10.1842 4.75 10.534 4.85611 10.8315 5.0549C11.129 5.25369 11.3609 5.53624 11.4978 5.86681C11.6347 6.19739 11.6706 6.56114 11.6007 6.91208C11.5309 7.26301 11.3586 7.58536 11.1056 7.83836C10.8526 8.09137 10.5302 8.26366 10.1793 8.33345C9.82836 8.40325 9.4646 8.36741 9.13403 8.23046C8.80347 8.09352 8.52093 7.86163 8.32216 7.56411C8.12338 7.26659 8.0173 6.91681 8.01732 6.559C8.01782 6.07936 8.20859 5.61951 8.54775 5.28037C8.88692 4.94122 9.34678 4.75048 9.82642 4.75ZM9.24012 15.2235C7.49152 15.1035 5.77192 14.6087 5.77192 13.516C5.82988 12.4961 6.28855 11.5405 7.04799 10.8573C7.80743 10.174 8.8061 9.81865 9.82642 9.8685C10.2346 9.87932 10.6407 9.93023 11.0389 10.0205C11.0448 10.5294 11.1549 11.0316 11.3622 11.4964C11.5696 11.9611 11.8699 12.3785 12.2446 12.7228C11.0024 13.2151 9.94975 14.0912 9.24012 15.2235ZM9.90172 18.1381C9.9695 16.9079 10.5209 15.7543 11.4356 14.9289C12.3504 14.1035 13.5543 13.6732 14.785 13.7318C15.1993 13.7458 15.6114 13.7986 16.0159 13.8894C16.0148 13.9302 16.0038 13.9681 16.0038 14.0094C16.0062 14.744 16.1787 15.4681 16.5077 16.125C16.8366 16.7818 17.3132 17.3536 17.9001 17.7955C16.5196 18.2854 15.3011 19.1466 14.3784 20.2843C12.1517 20.159 9.90172 19.54 9.90172 18.1381ZM20.7849 27.25C17.152 27.25 14.3063 26.11 14.3063 24.6562C14.3063 21.4209 17.2126 18.789 20.7844 18.789C24.3562 18.789 27.2629 21.4209 27.2629 24.6562C27.2629 26.1107 24.4172 27.25 20.7849 27.25Z" fill="black"/>
</svg>
