<svg xmlns="http://www.w3.org/2000/svg" width="32" height="32" viewBox="0 0 32 32"><path d="M23.669 17.7951C24.6387 17.0755 25.2984 16.014 25.5139 14.8258C25.7295 13.6377 25.4849 12.412 24.8297 11.3977C24.1745 10.3834 23.1579 9.65637 21.9862 9.36429C20.8145 9.07221 19.5756 9.23695 18.521 9.82505C18.4815 8.85985 18.071 7.94714 17.3749 7.27733C16.6788 6.60752 15.751 6.23234 14.785 6.23005C14.2088 6.23364 13.6414 6.37164 13.128 6.63305C13.128 6.60805 13.135 6.58505 13.135 6.55905C13.1366 6.01572 13.0044 5.48035 12.7501 5.00019C12.4959 4.52003 12.1273 4.10984 11.677 3.80584C11.2266 3.50184 10.7084 3.31338 10.168 3.25708C9.62756 3.20078 9.0816 3.27837 8.57828 3.48302C8.07496 3.68767 7.62975 4.01307 7.28196 4.4305C6.93417 4.84794 6.69448 5.34457 6.58406 5.87657C6.47364 6.40857 6.49588 6.95956 6.64881 7.48093C6.80175 8.0023 7.08067 8.478 7.46097 8.86605C6.53412 9.24607 5.73852 9.88863 5.17196 10.7148C4.6054 11.5409 4.29259 12.5145 4.27197 13.5161C4.27197 15.2531 5.84397 16.3731 8.60897 16.6721C8.47397 17.1491 8.40397 17.6421 8.40197 18.1381C8.40197 20.0991 10.24 21.3671 13.476 21.7111C13.0362 22.6306 12.8072 23.6367 12.806 24.6561C12.806 25.6061 13.279 26.9321 15.53 27.8581C17.2101 28.4826 18.9928 28.7852 20.785 28.7501C24.756 28.7501 28.763 27.4841 28.763 24.6561C28.7253 23.1268 28.2156 21.6466 27.3036 20.4184C26.3916 19.1903 25.122 18.2743 23.669 17.7961V17.7951ZM20.784 10.7291C21.2147 10.7291 21.6412 10.8139 22.0392 10.9787C22.4371 11.1436 22.7987 11.3852 23.1033 11.6897C23.4079 11.9943 23.6495 12.3559 23.8143 12.7539C23.9791 13.1518 24.064 13.5783 24.064 14.0091C24.064 14.4398 23.9791 14.8663 23.8143 15.2643C23.6495 15.6622 23.4079 16.0238 23.1033 16.3284C22.7987 16.6329 22.4371 16.8745 22.0392 17.0394C21.6412 17.2042 21.2147 17.2891 20.784 17.2891C19.9141 17.2891 19.0798 16.9435 18.4647 16.3284C17.8495 15.7132 17.504 14.879 17.504 14.0091C17.504 13.1391 17.8495 12.3049 18.4647 11.6897C19.0798 11.0746 19.9141 10.7291 20.784 10.7291ZM14.785 7.73005C15.0806 7.72992 15.3733 7.78802 15.6465 7.90102C15.9196 8.01402 16.1678 8.17972 16.377 8.38865C16.5861 8.59758 16.752 8.84566 16.8652 9.11871C16.9785 9.39176 17.0368 9.68445 17.037 9.98005C17.0371 10.2757 16.979 10.5684 16.866 10.8415C16.753 11.1147 16.5873 11.3629 16.3784 11.572C16.1694 11.7812 15.9214 11.9471 15.6483 12.0603C15.3753 12.1736 15.0826 12.2319 14.787 12.2321C14.19 12.2323 13.6173 11.9954 13.195 11.5735C12.7727 11.1515 12.5352 10.5791 12.535 9.98205C12.5347 9.38505 12.7716 8.81239 13.1936 8.39006C13.6155 7.96773 14.188 7.73032 14.785 7.73005ZM9.82597 4.75005C10.0686 4.74198 10.3104 4.7828 10.5369 4.87008C10.7634 4.95736 10.9701 5.08932 11.1445 5.25809C11.319 5.42687 11.4578 5.62902 11.5525 5.85252C11.6473 6.07602 11.6961 6.3163 11.6961 6.55905C11.6961 6.80181 11.6473 7.04209 11.5525 7.26558C11.4578 7.48908 11.319 7.69123 11.1445 7.86001C10.9701 8.02879 10.7634 8.16074 10.5369 8.24802C10.3104 8.3353 10.0686 8.37612 9.82597 8.36805C9.35661 8.35244 8.91168 8.15502 8.58517 7.81747C8.25866 7.47992 8.07613 7.02868 8.07613 6.55905C8.07613 6.08943 8.25866 5.63819 8.58517 5.30064C8.91168 4.96309 9.35661 4.76566 9.82597 4.75005ZM9.23997 15.2231C7.49197 15.1031 5.77197 14.6091 5.77197 13.5161C5.82986 12.4962 6.28842 11.5405 7.04775 10.8572C7.80709 10.1739 8.80567 9.8184 9.82597 9.86805C10.235 9.87905 10.641 9.93005 11.039 10.0201C11.0449 10.529 11.155 11.0314 11.3624 11.4963C11.5698 11.9612 11.8702 12.3786 12.245 12.7231C11.0026 13.2151 9.94986 14.091 9.23997 15.2231ZM9.90197 18.1381C9.96998 16.908 10.5214 15.7547 11.436 14.9294C12.3507 14.1041 13.5544 13.6737 14.785 13.7321C15.199 13.7461 15.611 13.7991 16.015 13.8891C16.015 13.9301 16.004 13.9691 16.004 14.0091C16.0063 14.7438 16.1787 15.468 16.5076 16.125C16.8365 16.782 17.3131 17.354 17.9 17.7961C16.5195 18.2857 15.3008 19.1466 14.378 20.2841C12.152 20.1591 9.90197 19.5401 9.90197 18.1381ZM20.785 27.2501C17.152 27.2501 14.306 26.1101 14.306 24.6561C14.306 21.4211 17.213 18.7891 20.784 18.7891C24.356 18.7891 27.263 21.4211 27.263 24.6561C27.263 26.1111 24.417 27.2501 20.785 27.2501Z"/></svg>