<svg width="32" height="32" viewBox="0 0 32 32" fill="none" xmlns="http://www.w3.org/2000/svg">
<path d="M29.6593 21.5944C29.4335 21.2478 29.1038 20.9816 28.7175 20.8337C28.3311 20.6858 27.9079 20.664 27.5084 20.7712C25.6149 21.2755 23.6353 21.3746 21.7008 21.0622C19.0199 20.5881 16.5495 19.3013 14.6244 17.3762C12.6992 15.4512 11.4124 12.9809 10.9381 10.3C10.63 8.3628 10.7327 6.38246 11.2394 4.4875C11.3467 4.08877 11.3249 3.66627 11.1769 3.28075C11.029 2.89524 10.7626 2.56657 10.4161 2.342C10.0658 2.10443 9.6491 1.98418 9.22607 1.99855C8.80304 2.01293 8.39549 2.16119 8.0621 2.422C5.80347 4.18089 4.06893 6.52406 3.04624 9.19787C2.02355 11.8717 1.75166 14.7743 2.26 17.5915C2.8667 20.728 4.43797 23.5967 6.75433 25.7968C9.07068 27.9969 12.0164 29.4185 15.18 29.863C17.8902 30.2258 20.6481 29.8687 23.1766 28.8276C25.705 27.7866 27.9148 26.0982 29.5838 23.9323C29.8418 23.6006 29.9881 23.1957 30.0017 22.7756C30.0153 22.3556 29.8954 21.9421 29.6593 21.5944ZM15.4459 27.8806C12.6994 27.4954 10.1418 26.2619 8.13044 24.3524C6.11909 22.4429 4.75446 19.9528 4.2272 17.23C3.78465 14.7686 4.02377 12.233 4.91867 9.89773C5.81357 7.56245 7.33017 5.51641 9.3043 3.9811C8.726 6.15395 8.61155 8.4242 8.9684 10.6442C9.51399 13.7301 10.995 16.5737 13.2109 18.7898C15.4267 21.0058 18.2702 22.4871 21.3561 23.0329C23.5668 23.3911 25.828 23.2816 27.9938 22.7116L27.9952 22.7175C26.541 24.6042 24.6156 26.0748 22.4126 26.9811C20.2096 27.8875 17.8068 28.1977 15.4459 27.8806Z" fill="black"/>
</svg>
