<svg width="32" height="32" viewBox="0 0 32 32" fill="none" xmlns="http://www.w3.org/2000/svg">
<path d="M28.8 23.606C28.6381 22.9748 28.3479 22.3838 27.9476 21.8697C27.5472 21.3556 27.0453 20.9295 26.473 20.618C26.4312 20.5974 26.3885 20.5787 26.345 20.562C26.345 20.562 25.478 20.243 24.753 20.038C24.691 20.021 24.356 19.87 23.94 18.658L23.2 16.623C22.692 15.2347 21.7746 14.0334 20.569 13.178C20.2957 12.9945 20.0057 12.8371 19.703 12.708C20.6839 11.9367 21.4 10.8788 21.7516 9.68152C22.1031 8.48423 22.0726 7.20713 21.6643 6.02798C21.256 4.84884 20.4902 3.82633 19.4736 3.1028C18.4569 2.37927 17.24 1.99071 15.9921 1.99121C14.7443 1.99172 13.5277 2.38126 12.5116 3.10562C11.4956 3.82997 10.7306 4.8531 10.3233 6.03257C9.91593 7.21205 9.88646 8.48918 10.239 9.68618C10.5915 10.8832 11.3084 11.9405 12.29 12.711C11.99 12.839 11.703 12.996 11.432 13.178C10.2164 14.0421 9.29331 15.2565 8.78599 16.659L8.05499 18.675C7.64299 19.871 7.30999 20.021 7.24799 20.038C6.52299 20.243 5.65599 20.562 5.65599 20.562C5.61253 20.578 5.57011 20.5967 5.52899 20.618C4.95595 20.9284 4.45322 21.3539 4.05228 21.8677C3.65134 22.3816 3.36084 22.9726 3.19899 23.604C2.82856 24.8963 2.9756 26.2821 3.60899 27.468C4.11874 28.526 5.01934 29.3449 6.12099 29.752C6.67942 29.9461 7.2708 30.0275 7.86091 29.9916C8.45103 29.9558 9.02818 29.8033 9.55899 29.543L13.526 27.61C14.289 27.2095 15.1378 27.0002 15.9995 27.0002C16.8612 27.0002 17.71 27.2095 18.473 27.61L22.441 29.543C22.9665 29.8051 23.5391 29.9594 24.1251 29.9967C24.7112 30.0341 25.2988 29.9537 25.8533 29.7604C26.4078 29.5672 26.918 29.2648 27.3538 28.8713C27.7897 28.4777 28.1423 28.0009 28.391 27.469C29.0229 26.283 29.1692 24.8978 28.799 23.606H28.8ZM15.993 3.99996C17.0539 3.99996 18.0713 4.42138 18.8214 5.17153C19.5716 5.92168 19.993 6.93909 19.993 7.99996C19.993 9.06082 19.5716 10.0782 18.8214 10.8284C18.0713 11.5785 17.0539 12 15.993 12C14.9321 12 13.9147 11.5785 13.1646 10.8284C12.4144 10.0782 11.993 9.06082 11.993 7.99996C11.993 6.93909 12.4144 5.92168 13.1646 5.17153C13.9147 4.42138 14.9321 3.99996 15.993 3.99996V3.99996ZM26.63 26.527C26.3524 27.1376 25.8482 27.6163 25.224 27.862C24.9141 27.97 24.5857 28.0152 24.2581 27.9949C23.9305 27.9747 23.6102 27.8894 23.316 27.744L19.349 25.812C18.313 25.2782 17.1644 24.9997 15.999 24.9997C14.8336 24.9997 13.685 25.2782 12.649 25.812L8.68399 27.744C8.38936 27.8894 8.0687 27.9746 7.74076 27.9947C7.41282 28.0148 7.08416 27.9693 6.77399 27.861C6.15047 27.6161 5.64686 27.1379 5.36999 26.528C4.98209 25.7978 4.89282 24.9456 5.12099 24.151C5.30514 23.4234 5.77007 22.7985 6.41399 22.413C6.86935 22.2488 7.32955 22.0984 7.79399 21.962C9.02999 21.61 9.61399 20.289 9.94099 19.341L10.653 17.377C11.0161 16.3498 11.6846 15.4582 12.569 14.822C13.6202 14.2504 14.8039 13.9668 16 14C17.1961 13.9665 18.3798 14.2501 19.431 14.822C20.3061 15.4496 20.9698 16.3285 21.334 17.342L22.054 19.324C22.385 20.288 22.967 21.609 24.207 21.962C24.749 22.116 25.378 22.339 25.587 22.413C26.23 22.7983 26.6945 23.4224 26.879 24.149C27.1069 24.944 27.0176 25.7964 26.63 26.527V26.527Z" fill="#0F0F0F"/>
<path d="M19 21H13C12.7348 21 12.4804 21.1054 12.2929 21.2929C12.1054 21.4804 12 21.7348 12 22C12 22.2652 12.1054 22.5196 12.2929 22.7071C12.4804 22.8946 12.7348 23 13 23H19C19.2652 23 19.5196 22.8946 19.7071 22.7071C19.8946 22.5196 20 22.2652 20 22C20 21.7348 19.8946 21.4804 19.7071 21.2929C19.5196 21.1054 19.2652 21 19 21Z" fill="#0F0F0F"/>
</svg>
