<svg xmlns="http://www.w3.org/2000/svg" width="32" height="32" viewBox="0 0 32 32"><path d="M29.6598 21.594C29.4339 21.2472 29.1041 20.9807 28.7175 20.8329C28.3309 20.6851 27.9075 20.6634 27.5078 20.771C25.6141 21.2752 23.6354 21.3743 21.7008 21.062C19.0198 20.5881 16.5493 19.3014 14.6241 17.3764C12.6988 15.4513 11.412 12.9809 10.9378 10.3C10.6296 8.36265 10.7321 6.38214 11.2388 4.48699C11.3461 4.08836 11.3242 3.666 11.1763 3.28059C11.0284 2.89518 10.7622 2.56657 10.4158 2.34199C10.0654 2.10453 9.64879 1.98434 9.22578 1.99871C8.80277 2.01309 8.39523 2.16129 8.06181 2.42199C5.80307 4.18091 4.06848 6.52416 3.0458 9.19808C2.02312 11.872 1.75131 14.7747 2.25981 17.592C2.86668 20.7284 4.43802 23.5969 6.75435 25.7969C9.07068 27.9969 12.0163 29.4184 15.1798 29.863C17.89 30.2259 20.6479 29.869 23.1764 28.828C25.7049 27.7871 27.9147 26.0988 29.5838 23.933C29.8419 23.6011 29.9882 23.1959 30.0017 22.7757C30.0152 22.3554 29.8951 21.9417 29.6588 21.594H29.6598ZM15.4458 27.881C12.6992 27.4958 10.1415 26.2623 8.13006 24.3527C6.11865 22.4431 4.75401 19.9529 4.22681 17.23C3.78417 14.7686 4.02324 12.233 4.91813 9.89766C5.81301 7.56234 7.32963 5.51629 9.30381 3.98099C8.72546 6.1538 8.61098 8.42402 8.96781 10.644C9.51335 13.73 10.9944 16.5737 13.2103 18.7898C15.4262 21.0059 18.2698 22.4872 21.3558 23.033C23.5658 23.391 25.8278 23.282 27.9938 22.712L27.9948 22.718C26.5406 24.6049 24.615 26.0755 22.4119 26.9818C20.2088 27.8882 17.8058 28.1983 15.4448 27.881H15.4458Z"/></svg>