<svg width="32" height="32" viewBox="0 0 32 32" fill="none" xmlns="http://www.w3.org/2000/svg">
<path d="M16.5003 29.4997C14.3793 29.4973 12.3459 28.6537 10.8462 27.1539C9.34639 25.6541 8.50276 23.6207 8.50033 21.4997L8.49933 8.49583C8.5 8.14498 8.59295 7.80049 8.76886 7.49693C8.94477 7.19337 9.19744 6.94142 9.5015 6.76639C9.80556 6.59135 10.1503 6.49938 10.5012 6.49972C10.852 6.50005 11.1966 6.59268 11.5003 6.76829V5.49973C11.5001 5.13736 11.5984 4.78175 11.7847 4.47094C11.971 4.16013 12.2383 3.9058 12.558 3.73518C12.8777 3.56455 13.2377 3.48404 13.5996 3.50226C13.9615 3.52048 14.3117 3.63674 14.6126 3.8386C14.7497 3.44731 15.005 3.10829 15.3432 2.86843C15.6814 2.62857 16.0857 2.49973 16.5003 2.49973C16.9149 2.49973 17.3193 2.62857 17.6575 2.86843C17.9957 3.10829 18.2509 3.44731 18.388 3.8386C18.689 3.63673 19.0391 3.52047 19.401 3.50225C19.7629 3.48404 20.123 3.56455 20.4427 3.73517C20.7624 3.9058 21.0296 4.16012 21.2159 4.47093C21.4022 4.78175 21.5005 5.13736 21.5003 5.49973V11.2214C21.8158 10.897 22.2178 10.6699 22.6585 10.5671C22.8776 10.4862 23.1138 10.4626 23.3446 10.4983C23.5754 10.5341 23.7932 10.6281 23.9776 10.7715C24.162 10.9149 24.3067 11.103 24.3982 11.3179C24.4896 11.5328 24.5248 11.7675 24.5003 11.9997V21.4997C24.4979 23.6207 23.6543 25.6541 22.1545 27.1539C20.6547 28.6537 18.6213 29.4973 16.5003 29.4997ZM10.4993 7.49973C10.2347 7.49953 9.98084 7.60428 9.79337 7.79102C9.6059 7.97776 9.50016 8.23123 9.49933 8.49583L9.50033 21.4997C9.50033 22.419 9.68139 23.3292 10.0332 24.1785C10.385 25.0278 10.9006 25.7995 11.5506 26.4495C12.2006 27.0995 12.9723 27.6151 13.8215 27.9669C14.6708 28.3187 15.5811 28.4997 16.5003 28.4997C17.4196 28.4997 18.3298 28.3187 19.1791 27.9669C20.0284 27.6151 20.8001 27.0995 21.4501 26.4495C22.1001 25.7995 22.6157 25.0278 22.9675 24.1785C23.3193 23.3292 23.5003 22.419 23.5003 21.4997V11.9997C23.5094 11.9215 23.5021 11.8423 23.4791 11.767C23.4561 11.6917 23.4178 11.622 23.3665 11.5622C23.293 11.5274 23.2133 11.5075 23.132 11.5037C23.0507 11.4998 22.9694 11.5121 22.8929 11.5398C21.7415 11.8171 21.5003 13.3386 21.5003 14.5652V17.0056C21.5004 17.0713 21.4875 17.1363 21.4623 17.197C21.4372 17.2577 21.4004 17.3128 21.354 17.3592C21.3075 17.4057 21.2524 17.4425 21.1917 17.4676C21.131 17.4927 21.066 17.5056 21.0003 17.5056C20.0724 17.5067 19.1828 17.8758 18.5267 18.532C17.8706 19.1881 17.5015 20.0777 17.5003 21.0056C17.5003 21.1382 17.4476 21.2654 17.3539 21.3591C17.2601 21.4529 17.1329 21.5056 17.0003 21.5056C16.8677 21.5056 16.7405 21.4529 16.6468 21.3591C16.553 21.2654 16.5003 21.1382 16.5003 21.0056C16.5017 19.899 16.9101 18.8317 17.6478 18.0068C18.3855 17.182 19.4008 16.6574 20.5003 16.5329V5.49973C20.5003 5.23451 20.395 4.98016 20.2074 4.79262C20.0199 4.60509 19.7655 4.49973 19.5003 4.49973C19.2351 4.49973 18.9808 4.60509 18.7932 4.79262C18.6057 4.98016 18.5003 5.23451 18.5003 5.49973V12.9997C18.5003 13.1323 18.4476 13.2595 18.3539 13.3533C18.2601 13.4471 18.1329 13.4997 18.0003 13.4997C17.8677 13.4997 17.7405 13.4471 17.6468 13.3533C17.553 13.2595 17.5003 13.1323 17.5003 12.9997V4.49973C17.5003 4.23451 17.395 3.98016 17.2074 3.79262C17.0199 3.60509 16.7655 3.49973 16.5003 3.49973C16.2351 3.49973 15.9808 3.60509 15.7932 3.79262C15.6057 3.98016 15.5003 4.23451 15.5003 4.49973V12.9997C15.5003 13.1323 15.4476 13.2595 15.3539 13.3533C15.2601 13.4471 15.1329 13.4997 15.0003 13.4997C14.8677 13.4997 14.7405 13.4471 14.6468 13.3533C14.553 13.2595 14.5003 13.1323 14.5003 12.9997V5.49973C14.5003 5.23451 14.395 4.98016 14.2074 4.79262C14.0199 4.60509 13.7655 4.49973 13.5003 4.49973C13.2351 4.49973 12.9808 4.60509 12.7932 4.79262C12.6057 4.98016 12.5003 5.23451 12.5003 5.49973V14.9997C12.5003 15.1323 12.4476 15.2595 12.3539 15.3533C12.2601 15.4471 12.1329 15.4997 12.0003 15.4997C11.8677 15.4997 11.7405 15.4471 11.6468 15.3533C11.553 15.2595 11.5003 15.1323 11.5003 14.9997V8.50073C11.5 8.23536 11.3944 7.98096 11.2068 7.79332C11.0191 7.60567 10.7647 7.50009 10.4993 7.49973Z" fill="black"/>
</svg>
