<svg width="32" height="32" viewBox="0 0 32 32" xmlns="http://www.w3.org/2000/svg">
<path d="M25 12V21C25 23.48 23.96 25.87 22.15 27.57C20.47 29.15 18.3 30 16.01 30C15.81 30 15.61 29.99 15.4 29.98C10.69 29.67 7 25.61 7 20.73V8C7 7.45 7.45 7 8 7C8.55 7 9 7.45 9 8V14C9 14.55 9.45 15 10 15C10.55 15 11 14.55 11 14V4C11 3.45 11.45 3 12 3C12.55 3 13 3.45 13 4V12C13 12.55 13.45 13 14 13C14.55 13 15 12.55 15 12V3C15 2.45 15.45 2 16 2C16.55 2 17 2.45 17 3V12C17 12.55 17.45 13 18 13C18.55 13 19 12.55 19 12V4C19 3.45 19.45 3 20 3C20.55 3 21 3.45 21 4V15C21 15.55 20.55 16 20 16C17.24 16 15 18.24 15 21C15 21.55 15.45 22 16 22C16.55 22 17 21.55 17 21C17 19.35 18.35 18 20 18C21.65 18 23 16.65 23 15V12C23 11.45 23.45 11 24 11C24.55 11 25 11.45 25 12Z" fill="black"/>
</svg>
