<svg xmlns="http://www.w3.org/2000/svg" width="32" height="32" viewBox="0 0 32 32"><path d="M16.0238 30H16.0168C13.8322 30.0607 11.7117 29.2577 10.1152 27.7651C8.51877 26.2726 7.57507 24.2108 7.4888 22.027C7.4818 21.777 7.4488 7.94803 7.4488 7.94803C7.42106 7.22506 7.67956 6.52031 8.16819 5.98674C8.65683 5.45317 9.33618 5.13383 10.0588 5.09803C10.2978 5.09303 10.5348 5.12803 10.7628 5.19903C10.8695 4.59417 11.1802 4.0441 11.643 3.64037C12.1059 3.23663 12.6931 3.00359 13.3068 2.98003H13.3168C13.6908 2.98003 14.0608 3.06603 14.3968 3.23203C14.6217 2.86309 14.9359 2.5568 15.3105 2.34146C15.685 2.12613 16.1078 2.0087 16.5398 2.00003C16.8713 1.99838 17.1996 2.0636 17.5053 2.19178C17.811 2.31996 18.0877 2.50846 18.3188 2.74603C18.5338 2.96103 18.7118 3.20903 18.8478 3.48103C19.1518 3.36603 19.4728 3.30103 19.7978 3.28703C20.1273 3.28856 20.4532 3.35527 20.7568 3.4833C21.0604 3.61133 21.3357 3.79816 21.5668 4.03303C22.1168 4.59503 22.4228 5.35103 22.4168 6.13703V11.7C22.8568 11.717 23.2828 11.855 23.6488 12.098C23.9252 12.274 24.1531 12.5164 24.3119 12.803C24.4707 13.0896 24.5552 13.4114 24.5578 13.739V21.853C24.5565 22.938 24.3321 24.0111 23.8984 25.0056C23.4647 26.0002 22.831 26.8948 22.0368 27.634C20.4109 29.166 18.2577 30.0133 16.0238 30ZM9.4878 21.954C9.57794 23.6089 10.307 25.1642 11.5215 26.2921C12.7359 27.42 14.3407 28.0323 15.9978 28H16.0038C17.7326 28.0162 19.401 27.365 20.6618 26.182C21.2579 25.6291 21.734 24.9595 22.0603 24.2147C22.3867 23.47 22.5563 22.6661 22.5588 21.853V13.74C22.4302 13.6898 22.2883 13.6852 22.1568 13.727C21.642 13.8762 21.1904 14.19 20.871 14.6204C20.5517 15.0509 20.3823 15.5741 20.3888 16.11L20.3828 18.813C20.3823 19.0343 20.3084 19.2492 20.1727 19.424C20.037 19.5989 19.8471 19.7237 19.6328 19.779C18.8714 19.9826 18.1956 20.4257 17.7053 21.0428C17.2149 21.6599 16.936 22.4183 16.9098 23.206C16.9098 23.4712 16.8044 23.7256 16.6169 23.9131C16.4294 24.1007 16.175 24.206 15.9098 24.206C15.6446 24.206 15.3902 24.1007 15.2027 23.9131C15.0152 23.7256 14.9098 23.4712 14.9098 23.206C14.9146 22.106 15.248 21.0325 15.8672 20.1233C16.4863 19.2141 17.363 18.5105 18.3848 18.103L18.3888 16.11C18.373 15.3659 18.552 14.6306 18.9081 13.977C19.2642 13.3234 19.785 12.7742 20.4188 12.384V6.13703C20.4249 5.88254 20.3308 5.63583 20.1568 5.45003C20.0637 5.35056 19.935 5.29196 19.7988 5.28703H19.7968C19.4628 5.28703 19.1798 5.67703 19.1798 6.13703V12.285C19.1798 12.5502 19.0744 12.8046 18.8869 12.9921C18.6994 13.1797 18.445 13.285 18.1798 13.285C17.9146 13.285 17.6602 13.1797 17.4727 12.9921C17.2852 12.8046 17.1798 12.5502 17.1798 12.285L17.1698 4.85103C17.1761 4.59622 17.082 4.34914 16.9078 4.16303C16.8149 4.0638 16.6866 4.00522 16.5508 4.00003H16.5488C16.2148 4.00003 15.9318 4.39003 15.9318 4.85003V13.217C15.9318 13.4822 15.8264 13.7366 15.6389 13.9241C15.4514 14.1117 15.197 14.217 14.9318 14.217C14.6666 14.217 14.4122 14.1117 14.2247 13.9241C14.0372 13.7366 13.9318 13.4822 13.9318 13.217V5.72303C13.9159 5.50576 13.8251 5.30074 13.6748 5.14303C13.5819 5.0431 13.4531 4.98412 13.3168 4.97903H13.3148C12.9808 4.98003 12.6978 5.36903 12.6978 5.82903L12.6878 13.186C12.6878 13.4512 12.5824 13.7056 12.3949 13.8931C12.2074 14.0807 11.953 14.186 11.6878 14.186H11.6868C11.4216 14.186 11.1672 14.0807 10.9797 13.8931C10.7922 13.7056 10.6868 13.4512 10.6868 13.186V7.94703C10.6935 7.69232 10.5998 7.44518 10.4258 7.25903C10.3329 7.1598 10.2046 7.10122 10.0688 7.09603H10.0668C9.7328 7.09703 9.4488 7.48703 9.4488 7.94703C9.4488 7.94703 9.4818 21.727 9.4878 21.953V21.954Z"/></svg>