<svg xmlns="http://www.w3.org/2000/svg" width="32" height="32" viewBox="0 0 32 32"><path d="M16.5 29.5002C14.379 29.4978 12.3456 28.6542 10.8458 27.1544C9.346 25.6546 8.50238 23.6212 8.5 21.5002V8.49617C8.50071 8.14544 8.59364 7.80106 8.76947 7.49759C8.94529 7.19411 9.19783 6.94221 9.50175 6.76715C9.80567 6.5921 10.1503 6.50004 10.501 6.50022C10.8517 6.5004 11.1963 6.5928 11.5 6.76817V5.50017C11.4998 5.13772 11.5981 4.78204 11.7845 4.47117C11.9708 4.16031 12.2382 3.90596 12.558 3.73534C12.8777 3.56472 13.2379 3.48425 13.5999 3.50254C13.9619 3.52083 14.3121 3.63719 14.613 3.83917C14.7501 3.44793 15.0053 3.10896 15.3435 2.86913C15.6816 2.62931 16.0859 2.50049 16.5005 2.50049C16.9151 2.50049 17.3194 2.62931 17.6575 2.86913C17.9957 3.10896 18.2509 3.44793 18.388 3.83917C18.6889 3.63786 19.0389 3.52202 19.4005 3.50401C19.7621 3.486 20.1218 3.56648 20.4413 3.73689C20.7608 3.90729 21.028 4.16122 21.2144 4.47158C21.4009 4.78195 21.4996 5.1371 21.5 5.49917V11.2212C21.8158 10.8967 22.218 10.6697 22.659 10.5672C22.8781 10.4865 23.1141 10.4631 23.3448 10.499C23.5755 10.5349 23.7932 10.629 23.9775 10.7724C24.1617 10.9158 24.3064 11.1038 24.3978 11.3186C24.4892 11.5334 24.5244 11.768 24.5 12.0002V21.5002C24.4976 23.6212 23.654 25.6546 22.1542 27.1544C20.6544 28.6542 18.621 29.4978 16.5 29.5002ZM10.5 7.50017C10.2355 7.50017 9.98173 7.60497 9.7943 7.79165C9.60688 7.97832 9.50106 8.23165 9.5 8.49617V21.5002C9.5 22.4194 9.68106 23.3297 10.0328 24.179C10.3846 25.0282 10.9002 25.7999 11.5503 26.4499C12.2003 27.0999 12.9719 27.6155 13.8212 27.9673C14.6705 28.3191 15.5807 28.5002 16.5 28.5002C17.4193 28.5002 18.3295 28.3191 19.1788 27.9673C20.0281 27.6155 20.7997 27.0999 21.4497 26.4499C22.0998 25.7999 22.6154 25.0282 22.9672 24.179C23.3189 23.3297 23.5 22.4194 23.5 21.5002V12.0002C23.5092 11.9219 23.502 11.8425 23.4789 11.7671C23.4559 11.6917 23.4174 11.6219 23.366 11.5622C23.2925 11.5274 23.2129 11.5076 23.1317 11.5038C23.0505 11.5 22.9694 11.5124 22.893 11.5402C21.741 11.8172 21.5 13.3392 21.5 14.5652V17.0052C21.5004 17.0709 21.4877 17.1361 21.4628 17.197C21.4378 17.2578 21.4009 17.3131 21.3544 17.3596C21.3079 17.4061 21.2527 17.4429 21.1918 17.4679C21.131 17.4929 21.0658 17.5056 21 17.5052C20.0721 17.5062 19.1824 17.8753 18.5263 18.5315C17.8701 19.1876 17.5011 20.0772 17.5 21.0052C17.5 21.1378 17.4473 21.265 17.3536 21.3587C17.2598 21.4525 17.1326 21.5052 17 21.5052C16.8674 21.5052 16.7402 21.4525 16.6464 21.3587C16.5527 21.265 16.5 21.1378 16.5 21.0052C16.5016 19.8987 16.9101 18.8315 17.6477 18.0068C18.3854 17.1822 19.4006 16.6576 20.5 16.5332V5.50017C20.5 5.23495 20.3946 4.9806 20.2071 4.79306C20.0196 4.60553 19.7652 4.50017 19.5 4.50017C19.2348 4.50017 18.9804 4.60553 18.7929 4.79306C18.6054 4.9806 18.5 5.23495 18.5 5.50017V13.0002C18.5 13.1328 18.4473 13.26 18.3536 13.3537C18.2598 13.4475 18.1326 13.5002 18 13.5002C17.8674 13.5002 17.7402 13.4475 17.6464 13.3537C17.5527 13.26 17.5 13.1328 17.5 13.0002V4.50017C17.5 4.23495 17.3946 3.9806 17.2071 3.79306C17.0196 3.60553 16.7652 3.50017 16.5 3.50017C16.2348 3.50017 15.9804 3.60553 15.7929 3.79306C15.6054 3.9806 15.5 4.23495 15.5 4.50017V13.0002C15.5 13.1328 15.4473 13.26 15.3536 13.3537C15.2598 13.4475 15.1326 13.5002 15 13.5002C14.8674 13.5002 14.7402 13.4475 14.6464 13.3537C14.5527 13.26 14.5 13.1328 14.5 13.0002V5.50017C14.5 5.23495 14.3946 4.9806 14.2071 4.79306C14.0196 4.60553 13.7652 4.50017 13.5 4.50017C13.2348 4.50017 12.9804 4.60553 12.7929 4.79306C12.6054 4.9806 12.5 5.23495 12.5 5.50017V15.0002C12.5 15.1328 12.4473 15.26 12.3536 15.3537C12.2598 15.4475 12.1326 15.5002 12 15.5002C11.8674 15.5002 11.7402 15.4475 11.6464 15.3537C11.5527 15.26 11.5 15.1328 11.5 15.0002V8.50017C11.4995 8.23511 11.3939 7.98107 11.2065 7.79365C11.0191 7.60622 10.7651 7.5007 10.5 7.50017Z"/></svg>