<svg xmlns="http://www.w3.org/2000/svg" width="32" height="32" viewBox="0 0 32 32"><path d="M16.001 17.5C15.6032 17.5 15.2216 17.342 14.9403 17.0607C14.659 16.7794 14.501 16.3978 14.501 16C14.501 15.6022 14.659 15.2206 14.9403 14.9393C15.2216 14.658 15.6032 14.5 16.001 14.5C16.3988 14.5 16.7803 14.658 17.0616 14.9393C17.3429 15.2206 17.501 15.6022 17.501 16C17.501 16.3978 17.3429 16.7794 17.0616 17.0607C16.7803 17.342 16.3988 17.5 16.001 17.5Z M16 2.5C18.016 2.4996 20.0063 2.95233 21.8237 3.82471C23.6412 4.69709 25.2393 5.96681 26.5 7.54L26.503 3C26.503 2.86739 26.5557 2.74022 26.6495 2.64645C26.7432 2.55268 26.8704 2.5 27.003 2.5C27.1356 2.5 27.2628 2.55268 27.3566 2.64645C27.4503 2.74022 27.503 2.86739 27.503 3L27.5 9C27.5 9.13261 27.4473 9.25979 27.3536 9.35355C27.2598 9.44732 27.1326 9.5 27 9.5H21.002C20.8694 9.5 20.7422 9.44732 20.6485 9.35355C20.5547 9.25979 20.502 9.13261 20.502 9C20.502 8.86739 20.5547 8.74021 20.6485 8.64645C20.7422 8.55268 20.8694 8.5 21.002 8.5H25.972C24.1852 6.13976 21.6172 4.49202 18.7271 3.85139C15.837 3.21075 12.8132 3.61901 10.1965 5.00316C7.57971 6.38731 5.54061 8.65709 4.44376 11.4067C3.3469 14.1562 3.26382 17.2063 4.20936 20.0115C5.1549 22.8167 7.06742 25.1941 9.60493 26.7187C12.1424 28.2432 15.1395 28.8155 18.0602 28.3332C20.9809 27.8508 23.6349 26.3453 25.5475 24.0858C27.4601 21.8264 28.5066 18.9603 28.5 16C28.5 15.8674 28.5527 15.7402 28.6465 15.6464C28.7402 15.5527 28.8674 15.5 29 15.5C29.1326 15.5 29.2598 15.5527 29.3536 15.6464C29.4473 15.7402 29.5 15.8674 29.5 16C29.5 18.67 28.7082 21.2801 27.2248 23.5002C25.7414 25.7203 23.633 27.4506 21.1662 28.4724C18.6994 29.4942 15.985 29.7615 13.3663 29.2406C10.7475 28.7197 8.34207 27.434 6.45406 25.5459C4.56606 23.6579 3.28031 21.2525 2.7594 18.6337C2.2385 16.015 2.50585 13.3006 3.52763 10.8338C4.54942 8.36697 6.27974 6.25856 8.49981 4.77516C10.7199 3.29176 13.33 2.5 16 2.5Z"/></svg>