<svg xmlns="http://www.w3.org/2000/svg" width="32" height="32" viewBox="0 0 32 32"><path d="M29.8421 13.8912C29.7971 13.6338 29.6532 13.4042 29.4412 13.2516C29.2291 13.0989 28.9658 13.0353 28.7074 13.0744C28.4491 13.1135 28.2163 13.2521 28.0589 13.4606C27.9014 13.6691 27.8319 13.931 27.8651 14.1902C28.2497 16.7267 27.8104 19.3198 26.6117 21.5881C25.4129 23.8565 23.518 25.6803 21.2056 26.7916C18.8932 27.9028 16.2852 28.2429 13.7651 27.7616C11.2451 27.2804 8.94592 26.0033 7.20568 24.1181C5.46545 22.233 4.37597 19.8392 4.09742 17.2888C3.81888 14.7384 4.36598 12.1659 5.65827 9.94951C6.95056 7.73315 8.91986 5.98989 11.2766 4.97604C13.6334 3.96219 16.2533 3.73124 18.7511 4.31715C19.0094 4.37775 19.2812 4.33326 19.5067 4.19345C19.7322 4.05364 19.893 3.82997 19.9536 3.57165C20.0142 3.31333 19.9697 3.04152 19.8299 2.816C19.6901 2.59049 19.4664 2.42975 19.2081 2.36915C16.2901 1.68225 13.2288 1.94993 10.4744 3.13282C7.71993 4.31571 5.41784 6.35136 3.90673 8.94032C2.39563 11.5293 1.75529 14.5349 2.07992 17.5149C2.40455 20.495 3.67701 23.2922 5.7101 25.4951C7.7432 27.6979 10.4296 29.1902 13.3741 29.7522C16.3186 30.3143 19.3658 29.9166 22.0674 28.6175C24.769 27.3185 26.9824 25.1867 28.3819 22.5357C29.7814 19.8848 30.2933 16.8547 29.8421 13.8912Z M11.5 15C11.8978 15 12.2793 14.842 12.5606 14.5607C12.8419 14.2794 13 13.8978 13 13.5C13 13.1022 12.8419 12.7206 12.5606 12.4393C12.2793 12.158 11.8978 12 11.5 12C11.1021 12 10.7206 12.158 10.4393 12.4393C10.158 12.7206 9.99996 13.1022 9.99996 13.5C9.99996 13.8978 10.158 14.2794 10.4393 14.5607C10.7206 14.842 11.1021 15 11.5 15ZM20.5 15C20.8978 15 21.2793 14.842 21.5606 14.5607C21.8419 14.2794 22 13.8978 22 13.5C22 13.1022 21.8419 12.7206 21.5606 12.4393C21.2793 12.158 20.8978 12 20.5 12C20.1021 12 19.7206 12.158 19.4393 12.4393C19.158 12.7206 19 13.1022 19 13.5C19 13.8978 19.158 14.2794 19.4393 14.5607C19.7206 14.842 20.1021 15 20.5 15ZM21 8H24V11C24 11.2652 24.1053 11.5196 24.2929 11.7071C24.4804 11.8946 24.7347 12 25 12C25.2652 12 25.5195 11.8946 25.7071 11.7071C25.8946 11.5196 26 11.2652 26 11V8H29C29.2652 8 29.5195 7.89464 29.7071 7.70711C29.8946 7.51957 30 7.26522 30 7C30 6.73478 29.8946 6.48043 29.7071 6.29289C29.5195 6.10536 29.2652 6 29 6H26V3C26 2.73478 25.8946 2.48043 25.7071 2.29289C25.5195 2.10536 25.2652 2 25 2C24.7347 2 24.4804 2.10536 24.2929 2.29289C24.1053 2.48043 24 2.73478 24 3V6H21C20.7347 6 20.4804 6.10536 20.2929 6.29289C20.1053 6.48043 20 6.73478 20 7C20 7.26522 20.1053 7.51957 20.2929 7.70711C20.4804 7.89464 20.7347 8 21 8ZM9.06996 19.37C9.63741 20.7419 10.5993 21.9145 11.8338 22.7393C13.0683 23.564 14.5198 24.0038 16.0045 24.0028C17.4891 24.0018 18.9401 23.5602 20.1735 22.7339C21.4069 21.9075 22.3673 20.7337 22.933 19.361C22.9802 19.2385 23.0029 19.1078 22.9997 18.9766C22.9965 18.8453 22.9675 18.7159 22.9143 18.5958C22.861 18.4758 22.7847 18.3674 22.6896 18.2768C22.5945 18.1862 22.4825 18.1153 22.36 18.068C22.2374 18.0207 22.1068 17.998 21.9755 18.0013C21.8442 18.0045 21.7149 18.0335 21.5948 18.0867C21.4747 18.1399 21.3663 18.2163 21.2757 18.3114C21.1852 18.4065 21.1142 18.5185 21.067 18.641C20.646 19.6381 19.9401 20.4889 19.0379 21.0867C18.1356 21.6845 17.077 22.0028 15.9946 22.0017C14.9123 22.0006 13.8543 21.6802 12.9532 21.0807C12.0521 20.4811 11.348 19.6289 10.929 18.631C10.8697 18.4758 10.7729 18.3377 10.647 18.2292C10.5212 18.1207 10.3704 18.0452 10.2081 18.0095C10.0458 17.9738 9.87725 17.979 9.71751 18.0247C9.55776 18.0703 9.41187 18.155 9.29296 18.271C9.15038 18.411 9.05302 18.5906 9.01345 18.7865C8.97388 18.9824 8.99391 19.1856 9.07096 19.37H9.06996Z"/></svg>