<svg width="32" height="32" viewBox="0 0 32 32" fill="none" xmlns="http://www.w3.org/2000/svg">
<path d="M16.001 17.5C15.1726 17.5 14.501 16.8284 14.501 16C14.501 15.1715 15.1726 14.5 16.001 14.5C16.8294 14.5 17.501 15.1715 17.501 16C17.501 16.8284 16.8294 17.5 16.001 17.5Z" fill="black"/>
<path d="M16.0005 2.5C18.0166 2.49965 20.0069 2.95247 21.8244 3.82497C23.6419 4.69747 25.2401 5.96734 26.5007 7.54068L26.5015 3C26.5015 2.86739 26.5541 2.74021 26.6479 2.64645C26.7417 2.55268 26.8689 2.5 27.0015 2.5C27.1341 2.5 27.2613 2.55268 27.355 2.64645C27.4488 2.74021 27.5015 2.86739 27.5015 3L27.5005 9C27.5005 9.06567 27.4876 9.13071 27.4625 9.19139C27.4374 9.25206 27.4005 9.3072 27.3541 9.35364C27.3077 9.40007 27.2525 9.4369 27.1919 9.46201C27.1312 9.48713 27.0661 9.50004 27.0005 9.5H21.0015C20.8689 9.5 20.7417 9.44732 20.6479 9.35355C20.5541 9.25979 20.5015 9.13261 20.5015 9C20.5015 8.86739 20.5541 8.74021 20.6479 8.64645C20.7417 8.55268 20.8689 8.5 21.0015 8.5H25.9729C24.1862 6.13952 21.6182 4.49151 18.7279 3.85066C15.8377 3.20981 12.8137 3.61791 10.1968 5.00197C7.57982 6.38603 5.54049 8.65582 4.44343 11.4055C3.34637 14.1551 3.26313 17.2054 4.20858 20.0108C5.15403 22.8161 7.06653 25.1938 9.60411 26.7185C12.1417 28.2433 15.1389 28.8157 18.0598 28.3334C20.9806 27.8512 23.6348 26.3457 25.5475 24.0862C27.4603 21.8266 28.507 18.9604 28.5005 16C28.5005 15.8674 28.5532 15.7402 28.6469 15.6464C28.7407 15.5527 28.8679 15.5 29.0005 15.5C29.1331 15.5 29.2603 15.5527 29.354 15.6464C29.4478 15.7402 29.5005 15.8674 29.5005 16C29.5005 18.67 28.7087 21.2801 27.2253 23.5002C25.7419 25.7203 23.6335 27.4506 21.1667 28.4724C18.6999 29.4942 15.9855 29.7615 13.3668 29.2406C10.748 28.7197 8.34256 27.434 6.45455 25.5459C4.56654 23.6579 3.28079 21.2525 2.75989 18.6337C2.23899 16.015 2.50633 13.3006 3.52811 10.8338C4.5499 8.36697 6.28023 6.25856 8.50029 4.77516C10.7204 3.29176 13.3304 2.5 16.0005 2.5Z" fill="black"/>
</svg>
