<svg xmlns="http://www.w3.org/2000/svg" width="32" height="32" viewBox="0 0 32 32"><path d="M16 2.5C13.33 2.5 10.7199 3.29176 8.49981 4.77516C6.27974 6.25856 4.54942 8.36697 3.52763 10.8338C2.50585 13.3006 2.2385 16.015 2.7594 18.6337C3.28031 21.2525 4.56606 23.6579 6.45406 25.5459C8.34207 27.434 10.7475 28.7197 13.3663 29.2406C15.985 29.7615 18.6994 29.4942 21.1662 28.4724C23.633 27.4506 25.7414 25.7203 27.2248 23.5002C28.7082 21.2801 29.5 18.67 29.5 16C29.496 12.4208 28.0724 8.98932 25.5416 6.45844C23.0107 3.92756 19.5792 2.50397 16 2.5ZM21.707 21.707C21.6143 21.8001 21.5041 21.8739 21.3828 21.9243C21.2615 21.9747 21.1314 22.0006 21 22.0006C20.8686 22.0006 20.7386 21.9747 20.6172 21.9243C20.4959 21.8739 20.3857 21.8001 20.293 21.707L15.293 16.707C15.1055 16.5195 15.0001 16.2652 15 16V8C15 7.73478 15.1054 7.48043 15.2929 7.29289C15.4804 7.10536 15.7348 7 16 7C16.2652 7 16.5196 7.10536 16.7071 7.29289C16.8946 7.48043 17 7.73478 17 8V15.586L21.707 20.293C21.8945 20.4805 21.9998 20.7348 21.9998 21C21.9998 21.2652 21.8945 21.5195 21.707 21.707Z"/></svg>