<svg width="32" height="32" viewBox="0 0 32 32" fill="none" xmlns="http://www.w3.org/2000/svg">
<path d="M17.0005 15.5872V8.0003C17.0005 7.73508 16.8951 7.48073 16.7076 7.29319C16.5201 7.10565 16.2657 7.0003 16.0005 7.0003C15.7353 7.0003 15.4809 7.10565 15.2934 7.29319C15.1059 7.48073 15.0005 7.73508 15.0005 8.0003V16.0003C15.0043 16.2703 15.1133 16.5281 15.3042 16.719L20.2935 21.7073C20.3863 21.8002 20.4965 21.8738 20.6179 21.9241C20.7392 21.9743 20.8692 22.0002 21.0005 22.0002C21.1318 22.0002 21.2618 21.9743 21.3831 21.9241C21.5045 21.8738 21.6147 21.8002 21.7075 21.7073C21.8004 21.6145 21.874 21.5042 21.9243 21.3829C21.9745 21.2616 22.0004 21.1316 22.0004 21.0003C22.0004 20.869 21.9745 20.739 21.9243 20.6176C21.874 20.4963 21.8004 20.3861 21.7075 20.2933L17.0005 15.5872Z" fill="black"/>
<path d="M16.0005 2.0003C13.2316 2.0003 10.5248 2.82138 8.22251 4.35972C5.92022 5.89806 4.12581 8.08456 3.06618 10.6427C2.00655 13.2009 1.72931 16.0158 2.2695 18.7316C2.80969 21.4473 4.14306 23.9419 6.101 25.8998C8.05893 27.8577 10.5535 29.1911 13.2692 29.7313C15.985 30.2715 18.7999 29.9942 21.3581 28.9346C23.9162 27.875 26.1027 26.0806 27.6411 23.7783C29.1794 21.476 30.0005 18.7692 30.0005 16.0003C29.9963 12.2885 28.52 8.73001 25.8954 6.1054C23.2708 3.48079 19.7122 2.00446 16.0005 2.0003ZM16.0005 28.0003C13.6271 28.0003 11.307 27.2965 9.33365 25.9779C7.36026 24.6594 5.82219 22.7852 4.91394 20.5925C4.00569 18.3998 3.76805 15.987 4.23107 13.6592C4.69409 11.3314 5.83698 9.19325 7.51521 7.51502C9.19344 5.83679 11.3316 4.6939 13.6594 4.23087C15.9872 3.76785 18.4 4.00549 20.5927 4.91374C22.7854 5.82199 24.6596 7.36006 25.9781 9.33345C27.2967 11.3068 28.0005 13.6269 28.0005 16.0003C27.997 19.1818 26.7316 22.2321 24.4819 24.4817C22.2323 26.7314 19.182 27.9968 16.0005 28.0003Z" fill="black"/>
</svg>
