<svg width="32" height="32" viewBox="0 0 32 32" fill="none" xmlns="http://www.w3.org/2000/svg">
<path fill-rule="evenodd" clip-rule="evenodd" d="M16 2.5C13.33 2.5 10.7199 3.29176 8.49981 4.77516C6.27974 6.25856 4.54942 8.36697 3.52763 10.8338C2.50585 13.3006 2.2385 16.015 2.7594 18.6337C3.28031 21.2525 4.56606 23.6579 6.45406 25.5459C8.34207 27.434 10.7475 28.7197 13.3663 29.2406C15.985 29.7615 18.6994 29.4942 21.1662 28.4724C23.633 27.4506 25.7414 25.7203 27.2248 23.5002C28.7082 21.2801 29.5 18.67 29.5 16C29.496 12.4208 28.0724 8.98932 25.5416 6.45844C23.0107 3.92756 19.5792 2.50397 16 2.5ZM14.27 20.333C13.7828 20.7666 13.1522 21.0043 12.5 21C11.838 21 11.202 20.76 10.733 20.334C10.5055 20.1323 10.3229 19.8852 10.1968 19.6086C10.0707 19.332 10.004 19.032 10.001 18.728V13.273C10.001 12.67 10.264 12.093 10.733 11.666C11.2196 11.2328 11.8496 10.9955 12.501 11C13.163 11 13.799 11.24 14.268 11.666C14.738 12.092 15 12.67 15 13.273V18.728C15 19.33 14.736 19.908 14.268 20.334L14.27 20.333ZM19.499 11C18.837 11.001 18.202 11.24 17.733 11.666C17.5054 11.8676 17.3225 12.1147 17.1962 12.3913C17.07 12.6679 17.0031 12.9679 17 13.272V18.727C17 19.33 17.264 19.907 17.733 20.334C18.2195 20.7666 18.849 21.0035 19.5 20.999C20.164 20.999 20.8 20.76 21.268 20.334C21.4957 20.1323 21.6785 19.885 21.8046 19.6082C21.9307 19.3314 21.9973 19.0312 22 18.727V13.272C21.9968 12.968 21.9299 12.6679 21.8037 12.3913C21.6774 12.1147 21.4946 11.8676 21.267 11.666C20.7805 11.2334 20.151 10.9962 19.5 11H19.499Z" fill="#0F0F0F"/>
</svg>
