<svg xmlns="http://www.w3.org/2000/svg" width="32" height="32" viewBox="0 0 32 32"><path d="M16 2C13.2311 2 10.5243 2.82109 8.22202 4.35943C5.91973 5.89777 4.12532 8.08427 3.06569 10.6424C2.00607 13.2006 1.72882 16.0155 2.26901 18.7313C2.80921 21.447 4.14258 23.9416 6.10051 25.8995C8.05845 27.8574 10.553 29.1908 13.2687 29.731C15.9845 30.2712 18.7994 29.9939 21.3576 28.9343C23.9157 27.8747 26.1022 26.0803 27.6406 23.778C29.1789 21.4757 30 18.7689 30 16C29.9958 12.2883 28.5194 8.72977 25.8948 6.10518C23.2702 3.48059 19.7117 2.00423 16 2ZM16 28C13.6266 28 11.3066 27.2962 9.33316 25.9776C7.35977 24.6591 5.8217 22.7849 4.91345 20.5922C4.0052 18.3995 3.76756 15.9867 4.23058 13.6589C4.69361 11.3311 5.83649 9.19295 7.51472 7.51472C9.19295 5.83649 11.3312 4.6936 13.6589 4.23058C15.9867 3.76755 18.3995 4.00519 20.5922 4.91345C22.7849 5.8217 24.6591 7.35977 25.9776 9.33316C27.2962 11.3065 28 13.6266 28 16C27.9966 19.1815 26.7312 22.2318 24.4815 24.4815C22.2318 26.7312 19.1815 27.9966 16 28Z M16 11C15.0111 11 14.0444 11.2932 13.2222 11.8427C12.3999 12.3921 11.759 13.173 11.3806 14.0866C11.0022 15.0002 10.9031 16.0055 11.0961 16.9755C11.289 17.9454 11.7652 18.8363 12.4645 19.5355C13.1637 20.2348 14.0546 20.711 15.0246 20.9039C15.9945 21.0969 16.9998 20.9978 17.9134 20.6194C18.8271 20.241 19.6079 19.6001 20.1574 18.7779C20.7068 17.9556 21 16.9889 21 16C20.9984 14.6744 20.4711 13.4036 19.5338 12.4662C18.5964 11.5289 17.3256 11.0016 16 11ZM16 19C15.6015 19.0073 15.2055 18.9351 14.8352 18.7876C14.465 18.6401 14.1278 18.4203 13.8434 18.1411C13.559 17.8618 13.3331 17.5287 13.1789 17.1612C13.0247 16.7937 12.9452 16.3991 12.9452 16.0005C12.9452 15.6019 13.0247 15.2073 13.1789 14.8398C13.3331 14.4723 13.559 14.1392 13.8434 13.8599C14.1278 13.5807 14.465 13.3609 14.8352 13.2134C15.2055 13.0659 15.6015 12.9937 16 13.001C16.7957 13.001 17.5587 13.3171 18.1213 13.8797C18.6839 14.4423 19 15.2053 19 16.001C19 16.7966 18.6839 17.5597 18.1213 18.1223C17.5587 18.6849 16.7957 19.001 16 19.001V19Z"/></svg>