<svg width="32" height="32" viewBox="0 0 32 32" fill="none" xmlns="http://www.w3.org/2000/svg">
<path d="M25.3801 9.80285C26.601 11.639 27.2517 13.7952 27.2504 16.0002C27.2481 16.6296 27.1959 17.2579 27.0941 17.8791C27.0623 18.0754 27.1097 18.2763 27.226 18.4377C27.3423 18.599 27.5179 18.7076 27.7142 18.7394C27.7542 18.7461 27.7947 18.7493 27.8353 18.7492C28.0132 18.749 28.1853 18.6855 28.3207 18.5701C28.4561 18.4547 28.5461 18.2949 28.5746 18.1193C28.6893 17.4187 28.748 16.7101 28.7504 16.0002C28.7513 13.3974 27.9506 10.8574 26.4571 8.72577L25.3801 9.80285Z" fill="black"/>
<path d="M29.5305 2.46991C29.4609 2.40025 29.3782 2.34499 29.2872 2.30729C29.1962 2.26959 29.0987 2.25018 29.0002 2.25018C28.9017 2.25018 28.8042 2.26959 28.7132 2.30729C28.6222 2.34499 28.5396 2.40025 28.4699 2.46991L24.451 6.48891C23.1318 5.30576 21.5793 4.41239 19.8935 3.86651C18.2077 3.32062 16.4261 3.13435 14.6638 3.31971C12.9016 3.50507 11.1978 4.05795 9.66246 4.94264C8.12713 5.82734 6.7944 7.02419 5.75033 8.45591V4.00018C5.75033 3.80127 5.67131 3.6105 5.53066 3.46985C5.39001 3.3292 5.19924 3.25018 5.00033 3.25018C4.80142 3.25018 4.61065 3.3292 4.47 3.46985C4.32935 3.6105 4.25033 3.80127 4.25033 4.00018V10.0002C4.25038 10.1991 4.32942 10.3898 4.47006 10.5305C4.6107 10.6711 4.80143 10.7501 5.00033 10.7502H11.0003C11.1992 10.7502 11.39 10.6712 11.5307 10.5305C11.6713 10.3899 11.7503 10.1991 11.7503 10.0002C11.7503 9.80127 11.6713 9.6105 11.5307 9.46985C11.39 9.3292 11.1992 9.25018 11.0003 9.25018H7.02617C7.94961 8.0101 9.12037 6.97517 10.4644 6.21085C11.8084 5.44654 13.2964 4.96949 14.8343 4.80987C16.3722 4.65026 17.9264 4.81155 19.3988 5.28355C20.8711 5.75556 22.2294 6.528 23.3879 7.552L7.55217 23.3877C5.74899 21.349 4.75261 18.7219 4.75035 16.0002C4.75414 15.37 4.80769 14.7411 4.91051 14.1193C4.94175 13.9233 4.89398 13.7228 4.77767 13.562C4.66136 13.4011 4.48601 13.2929 4.29005 13.2611C4.09409 13.2293 3.89352 13.2765 3.73231 13.3923C3.57109 13.5082 3.4624 13.6832 3.43004 13.8791C3.31437 14.5803 3.25429 15.2895 3.25035 16.0002C3.25172 19.1199 4.40508 22.1293 6.48911 24.4508L2.46995 28.4699C2.40009 28.5395 2.34464 28.6222 2.30677 28.7132C2.26891 28.8043 2.24936 28.9019 2.24927 29.0005C2.24917 29.0991 2.26852 29.1967 2.30621 29.2879C2.3439 29.379 2.39919 29.4618 2.46892 29.5315C2.53864 29.6012 2.62143 29.6565 2.71255 29.6942C2.80367 29.7319 2.90132 29.7512 2.99993 29.7511C3.09853 29.751 3.19615 29.7315 3.28719 29.6936C3.37823 29.6558 3.46091 29.6003 3.5305 29.5305L29.5305 3.53045C29.6002 3.46083 29.6554 3.37816 29.6931 3.28718C29.7308 3.19619 29.7502 3.09867 29.7502 3.00018C29.7502 2.90169 29.7308 2.80417 29.6931 2.71318C29.6554 2.6222 29.6002 2.53953 29.5305 2.46991Z" fill="black"/>
<path d="M27.0004 21.2502H21.0004C20.8014 21.2502 20.6107 21.3292 20.47 21.4699C20.3294 21.6105 20.2504 21.8013 20.2504 22.0002C20.2504 22.1991 20.3294 22.3899 20.47 22.5305C20.6107 22.6712 20.8014 22.7502 21.0004 22.7502H24.9745C23.2614 25.045 20.7343 26.5964 17.9126 27.0856C15.091 27.5747 12.1891 26.9644 9.80353 25.3801L8.72642 26.4573C11.4476 28.3615 14.8068 29.123 18.0831 28.5784C21.3593 28.0338 24.2915 26.2265 26.2504 23.5444V28.0002C26.2504 28.1991 26.3294 28.3899 26.47 28.5305C26.6107 28.6712 26.8014 28.7502 27.0004 28.7502C27.1993 28.7502 27.39 28.6712 27.5307 28.5305C27.6713 28.3899 27.7504 28.1991 27.7504 28.0002V22.0002C27.7503 21.8013 27.6713 21.6105 27.5306 21.4699C27.39 21.3293 27.1992 21.2502 27.0004 21.2502Z" fill="black"/>
</svg>
