<svg xmlns="http://www.w3.org/2000/svg" width="32" height="32" viewBox="0 0 32 32"><path d="M16 3C14.0891 2.99967 12.2017 3.42173 10.4729 4.23598C8.74418 5.05023 7.21677 6.23653 6 7.71V4C6 3.73478 5.89465 3.48043 5.70711 3.29289C5.51957 3.10536 5.26522 3 5 3C4.73479 3 4.48043 3.10536 4.2929 3.29289C4.10536 3.48043 4 3.73478 4 4V10C4 10.2652 4.10536 10.5196 4.2929 10.7071C4.48043 10.8946 4.73479 11 5 11H11C11.2652 11 11.5196 10.8946 11.7071 10.7071C11.8946 10.5196 12 10.2652 12 10C12 9.73478 11.8946 9.48043 11.7071 9.29289C11.5196 9.10536 11.2652 9 11 9H7.528C8.96813 7.25205 10.9131 5.9917 13.0969 5.39137C15.2807 4.79104 17.5966 4.88005 19.7279 5.64622C21.8591 6.41239 23.7016 7.8183 25.0034 9.67163C26.3051 11.525 27.0024 13.7352 27 16C26.998 16.616 26.947 17.23 26.847 17.838C26.8166 18.0941 26.8863 18.3521 27.0415 18.5581C27.1966 18.7641 27.4253 18.9023 27.6799 18.9438C27.9344 18.9853 28.1952 18.927 28.4078 18.781C28.6204 18.6349 28.7684 18.4125 28.821 18.16C28.938 17.446 28.998 16.724 29.001 16C28.997 12.5532 27.626 9.24879 25.1887 6.81164C22.7513 4.3745 19.4468 3.00371 16 3ZM27 21H21C20.7348 21 20.4804 21.1054 20.2929 21.2929C20.1054 21.4804 20 21.7348 20 22C20 22.2652 20.1054 22.5196 20.2929 22.7071C20.4804 22.8946 20.7348 23 21 23H24.472C23.0319 24.748 21.0869 26.0083 18.9031 26.6086C16.7193 27.209 14.4034 27.1199 12.2721 26.3538C10.1409 25.5876 8.29836 24.1817 6.99664 22.3284C5.69493 20.475 4.99758 18.2648 5 16C5.004 15.384 5.057 14.768 5.157 14.16C5.1997 13.8982 5.13667 13.6302 4.98176 13.4149C4.82686 13.1996 4.59277 13.0547 4.331 13.012C4.06924 12.9693 3.80123 13.0323 3.58593 13.1872C3.37064 13.3421 3.2257 13.5762 3.183 13.838C3.06526 14.5527 3.00407 15.2756 3 16C2.99772 18.6746 3.82109 21.2848 5.35768 23.4739C6.89427 25.6631 9.06916 27.3246 11.5853 28.2316C14.1015 29.1385 16.8363 29.2466 19.4162 28.5411C21.9961 27.8357 24.2954 26.3511 26 24.29V28C26 28.2652 26.1054 28.5196 26.2929 28.7071C26.4804 28.8946 26.7348 29 27 29C27.2652 29 27.5196 28.8946 27.7071 28.7071C27.8946 28.5196 28 28.2652 28 28V22C28 21.7348 27.8946 21.4804 27.7071 21.2929C27.5196 21.1054 27.2652 21 27 21Z"/></svg>