<svg width="32" height="32" viewBox="0 0 32 32" fill="none" xmlns="http://www.w3.org/2000/svg">
<path d="M25.5459 6.454C24.2923 5.2004 22.8041 4.20599 21.1662 3.52754C19.5283 2.84909 17.7728 2.4999 16 2.4999C14.2272 2.4999 12.4717 2.84909 10.8338 3.52754C9.1959 4.20599 7.70769 5.2004 6.45411 6.454C6.11642 6.79634 5.7979 7.15708 5.5 7.53456V2.99989C5.5 2.86728 5.44732 2.7401 5.35355 2.64634C5.25979 2.55257 5.13261 2.49989 5 2.49989C4.86739 2.49989 4.74021 2.55257 4.64645 2.64634C4.55268 2.7401 4.5 2.86728 4.5 2.99989V8.99989C4.49996 9.06556 4.51287 9.1306 4.53798 9.19128C4.5631 9.25196 4.59992 9.30709 4.64636 9.35353C4.6928 9.39996 4.74793 9.43679 4.80861 9.46191C4.86929 9.48702 4.93433 9.49993 5 9.49989H11C11.1326 9.49989 11.2598 9.44721 11.3536 9.35344C11.4473 9.25967 11.5 9.1325 11.5 8.99989C11.5 8.86728 11.4473 8.7401 11.3536 8.64634C11.2598 8.55257 11.1326 8.49989 11 8.49989H6.02234C6.36924 8.02678 6.74983 7.57932 7.16114 7.161C9.50536 4.81679 12.6848 3.49982 16 3.49983C19.3152 3.49983 22.4947 4.8168 24.8389 7.16102C27.1831 9.50523 28.5001 12.6847 28.5001 15.9999C28.5001 19.3151 27.1831 22.4945 24.8389 24.8388C23.0907 26.5869 20.8634 27.7775 18.4386 28.2598C16.0139 28.7421 13.5005 28.4946 11.2164 27.5485C8.93236 26.6023 6.98012 25.0002 5.60661 22.9446C4.23309 20.8889 3.49999 18.4722 3.5 15.9999C3.5 15.8673 3.44732 15.7401 3.35355 15.6463C3.25979 15.5526 3.13261 15.4999 3 15.4999C2.86739 15.4999 2.74021 15.5526 2.64645 15.6463C2.55268 15.7401 2.5 15.8673 2.5 15.9999C2.49998 18.6699 3.29174 21.28 4.77513 23.5001C6.25852 25.7202 8.36694 27.4505 10.8337 28.4723C13.3005 29.4941 16.0149 29.7614 18.6337 29.2405C21.2524 28.7196 23.6579 27.4338 25.5459 25.5458C26.7995 24.2922 27.7939 22.804 28.4724 21.1661C29.1508 19.5282 29.5 17.7727 29.5 15.9999C29.5 14.227 29.1508 12.4716 28.4724 10.8337C27.7939 9.19578 26.7995 7.70757 25.5459 6.454Z" fill="black"/>
</svg>
