<svg xmlns="http://www.w3.org/2000/svg" width="32" height="32" viewBox="0 0 32 32"><path d="M25.9 6.10003C24.6 4.79986 23.0566 3.7685 21.3579 3.06485C19.6592 2.36119 17.8386 1.99902 16 1.99902C14.1614 1.99902 12.3408 2.36119 10.6421 3.06485C8.94345 3.7685 7.40004 4.79986 6.1 6.10003C6.066 6.13503 6.035 6.17603 6 6.21103V3.00003C6 2.73482 5.89464 2.48046 5.70711 2.29293C5.51957 2.10539 5.26522 2.00003 5 2.00003C4.73478 2.00003 4.48043 2.10539 4.29289 2.29293C4.10536 2.48046 4 2.73482 4 3.00003V9.00003C4 9.26525 4.10536 9.5196 4.29289 9.70714C4.48043 9.89468 4.73478 10 5 10H11C11.2652 10 11.5196 9.89468 11.7071 9.70714C11.8946 9.5196 12 9.26525 12 9.00003C12 8.73482 11.8946 8.48046 11.7071 8.29293C11.5196 8.10539 11.2652 8.00003 11 8.00003H7.073C7.219 7.83603 7.362 7.66803 7.515 7.51503C9.47818 5.55198 12.0613 4.33036 14.8242 4.05834C17.5871 3.78631 20.3589 4.48071 22.6672 6.0232C24.9755 7.5657 26.6776 9.86086 27.4834 12.5176C28.2892 15.1744 28.1489 18.0283 27.0864 20.5932C26.0238 23.1581 24.1048 25.2753 21.6563 26.5839C19.2078 27.8925 16.3813 28.3117 13.6584 27.7699C10.9355 27.2282 8.48468 25.7591 6.72353 23.6129C4.96238 21.4667 3.99987 18.7763 4 16C4 15.7348 3.89464 15.4805 3.70711 15.2929C3.51957 15.1054 3.26522 15 3 15C2.73478 15 2.48043 15.1054 2.29289 15.2929C2.10536 15.4805 2 15.7348 2 16C2.00017 18.3023 2.56809 20.5689 3.65348 22.5993C4.73886 24.6296 6.3082 26.3609 8.2225 27.6399C10.1368 28.9189 12.337 29.706 14.6281 29.9316C16.9193 30.1572 19.2307 29.8143 21.3577 28.9333C23.4847 28.0522 25.3616 26.6602 26.8221 24.8806C28.2826 23.1009 29.2817 20.9886 29.7309 18.7306C30.1801 16.4726 30.0655 14.1386 29.3973 11.9355C28.7291 9.73238 27.5278 7.72805 25.9 6.10003Z"/></svg>