<svg width="32" height="32" viewBox="0 0 32 32" fill="none" xmlns="http://www.w3.org/2000/svg">
<path d="M25.7227 6.27723C23.1421 3.70231 19.6455 2.25621 16 2.25621C12.3545 2.25621 8.85792 3.70231 6.27735 6.27723C6.09435 6.46023 5.92383 6.66078 5.75001 6.85658V2.99989C5.75001 2.80098 5.67099 2.61021 5.53034 2.46956C5.38969 2.32891 5.19892 2.24989 5.00001 2.24989C4.8011 2.24989 4.61033 2.32891 4.46968 2.46956C4.32903 2.61021 4.25001 2.80098 4.25001 2.99989V8.99989C4.25006 9.19879 4.32909 9.38952 4.46974 9.53016C4.61038 9.6708 4.80111 9.74984 5.00001 9.74989H11C11.1989 9.74989 11.3897 9.67087 11.5303 9.53022C11.671 9.38957 11.75 9.1988 11.75 8.99989C11.75 8.80098 11.671 8.61021 11.5303 8.46956C11.3897 8.32891 11.1989 8.24989 11 8.24989H6.52442C6.77982 7.93216 7.05134 7.62772 7.3379 7.33778C9.34193 5.33369 11.9789 4.08648 14.7994 3.80865C17.6199 3.53082 20.4495 4.23957 22.806 5.81412C25.1626 7.38868 26.9002 9.73162 27.723 12.4437C28.5457 15.1559 28.4026 18.0694 27.318 20.6878C26.2335 23.3062 24.2745 25.4676 21.775 26.8036C19.2755 28.1397 16.3901 28.5677 13.6104 28.0148C10.8307 27.4619 8.32867 25.9622 6.53069 23.7714C4.73271 21.5805 3.75 18.8341 3.75 15.9999C3.75 15.801 3.67098 15.6102 3.53033 15.4696C3.38968 15.3289 3.19891 15.2499 3 15.2499C2.80109 15.2499 2.61032 15.3289 2.46967 15.4696C2.32902 15.6102 2.25 15.801 2.25 15.9999C2.25 18.2611 2.80766 20.4874 3.87358 22.4816C4.93949 24.4758 6.48077 26.1763 8.36088 27.4325C10.241 28.6888 12.4019 29.462 14.6522 29.6836C16.9025 29.9053 19.1727 29.5685 21.2618 28.7032C23.3509 27.8379 25.1943 26.4707 26.6288 24.7228C28.0633 22.9749 29.0446 20.9001 29.4857 18.6824C29.9268 16.4647 29.8142 14.1723 29.1578 12.0085C28.5015 9.84469 27.3216 7.87614 25.7227 6.27723Z" fill="black"/>
</svg>
