<svg width="32" height="32" viewBox="0 0 32 32" fill="none" xmlns="http://www.w3.org/2000/svg">
<path d="M25.8994 6.10047C24.5994 4.80043 23.0561 3.76918 21.3575 3.0656C19.659 2.36202 17.8385 1.99989 16 1.99989C14.1615 1.99989 12.341 2.36202 10.6425 3.0656C8.94391 3.76918 7.40058 4.80043 6.10059 6.10047C6.06568 6.13539 6.03459 6.17567 6.00001 6.21107V2.99989C6.00001 2.73468 5.89465 2.48032 5.70712 2.29279C5.51958 2.10525 5.26523 1.99989 5.00001 1.99989C4.73479 1.99989 4.48044 2.10525 4.2929 2.29279C4.10537 2.48032 4.00001 2.73468 4.00001 2.99989V8.99989C3.99993 9.13124 4.02575 9.26131 4.07597 9.38267C4.1262 9.50403 4.19986 9.6143 4.29273 9.70717C4.38561 9.80004 4.49588 9.8737 4.61724 9.92393C4.7386 9.97416 4.86867 9.99997 5.00001 9.99989H11C11.2652 9.99989 11.5196 9.89454 11.7071 9.707C11.8947 9.51946 12 9.26511 12 8.99989C12 8.73468 11.8947 8.48032 11.7071 8.29279C11.5196 8.10525 11.2652 7.99989 11 7.99989H7.07313C7.21906 7.83607 7.36182 7.66761 7.51465 7.51454C9.47779 5.55132 12.0609 4.32953 14.8239 4.05735C17.5869 3.78517 20.3588 4.47944 22.6673 6.02187C24.9757 7.5643 26.678 9.85944 27.4839 12.5162C28.2899 15.173 28.1497 18.0271 27.0873 20.5921C26.0249 23.1572 24.1059 25.2745 21.6574 26.5832C19.2088 27.892 16.3823 28.3113 13.6593 27.7697C10.9362 27.2281 8.48528 25.759 6.72397 23.6129C4.96266 21.4667 4 18.7763 4 15.9999C4 15.7347 3.89464 15.4803 3.70711 15.2928C3.51957 15.1052 3.26522 14.9999 3 14.9999C2.73478 14.9999 2.48043 15.1052 2.29289 15.2928C2.10536 15.4803 2 15.7347 2 15.9999C1.99997 18.7688 2.82104 21.4756 4.35938 23.7779C5.89771 26.0802 8.08421 27.8746 10.6424 28.9342C13.2006 29.9939 16.0155 30.2711 18.7312 29.7309C21.447 29.1907 23.9415 27.8573 25.8994 25.8993C27.1995 24.5993 28.2307 23.056 28.9343 21.3574C29.6379 19.6589 30 17.8384 30 15.9999C30 14.1614 29.6379 12.3409 28.9343 10.6423C28.2307 8.94379 27.1995 7.40046 25.8994 6.10047Z" fill="black"/>
</svg>
