<svg width="32" height="32" viewBox="0 0 32 32" fill="none" xmlns="http://www.w3.org/2000/svg">
<path d="M29 15.25C28.8011 15.25 28.6103 15.329 28.4697 15.4697C28.329 15.6103 28.25 15.8011 28.25 16C28.25 18.8341 27.2674 21.5805 25.4695 23.7713C23.6715 25.9622 21.1696 27.4618 18.39 28.0147C15.6103 28.5676 12.725 28.1397 10.2255 26.8037C7.72602 25.4677 5.7671 23.3064 4.68252 20.6881C3.59793 18.0697 3.45478 15.1563 4.27746 12.4442C5.10013 9.73214 6.83773 7.38922 9.19419 5.81466C11.5507 4.2401 14.3802 3.53132 17.2006 3.80909C20.0211 4.08686 22.658 5.334 24.662 7.338C24.95 7.628 25.223 7.932 25.48 8.25H21C20.8011 8.25 20.6103 8.32902 20.4697 8.46967C20.329 8.61032 20.25 8.80109 20.25 9C20.25 9.19891 20.329 9.38968 20.4697 9.53033C20.6103 9.67098 20.8011 9.75 21 9.75H27C27.1989 9.75 27.3897 9.67098 27.5303 9.53033C27.671 9.38968 27.75 9.19891 27.75 9V3C27.75 2.80109 27.671 2.61032 27.5303 2.46967C27.3897 2.32902 27.1989 2.25 27 2.25C26.8011 2.25 26.6103 2.32902 26.4697 2.46967C26.329 2.61032 26.25 2.80109 26.25 3V6.86C26.075 6.663 25.906 6.46 25.723 6.276C23.4737 4.02657 20.514 2.62662 17.3483 2.3147C14.1825 2.00277 11.0066 2.79816 8.36149 4.56534C5.71642 6.33253 3.76592 8.96217 2.84232 12.0062C1.91871 15.0503 2.07915 18.3204 3.29628 21.2594C4.51342 24.1985 6.71196 26.6245 9.5173 28.1243C12.3226 29.6241 15.5612 30.1048 18.6812 29.4845C21.8013 28.8642 24.6097 27.1812 26.628 24.7224C28.6463 22.2636 29.7496 19.1811 29.75 16C29.75 15.8011 29.671 15.6103 29.5303 15.4697C29.3897 15.329 29.1989 15.25 29 15.25Z" fill="#0F0F0F"/>
</svg>
