<svg width="32" height="32" viewBox="0 0 32 32" fill="none" xmlns="http://www.w3.org/2000/svg">
<path d="M29 15.5C28.8674 15.5 28.7402 15.5527 28.6465 15.6464C28.5527 15.7402 28.5 15.8674 28.5 16C28.4996 18.8916 27.4966 21.6936 25.6619 23.9287C23.8272 26.1637 21.2743 27.6935 18.4382 28.2573C15.6021 28.8212 12.6582 28.3842 10.1081 27.0209C7.55804 25.6576 5.55954 23.4523 4.45313 20.7807C3.34672 18.1091 3.20085 15.1365 4.04036 12.3695C4.87988 9.60238 6.65284 7.21198 9.05718 5.60554C11.4615 3.99909 14.3485 3.27599 17.2262 3.55943C20.1039 3.84288 22.7943 5.11533 24.839 7.15999C25.249 7.57999 25.629 8.02699 25.975 8.49999H21C20.8674 8.49999 20.7402 8.55266 20.6465 8.64643C20.5527 8.7402 20.5 8.86738 20.5 8.99999C20.5 9.13259 20.5527 9.25977 20.6465 9.35354C20.7402 9.44731 20.8674 9.49999 21 9.49999H27C27.1326 9.49999 27.2598 9.44731 27.3536 9.35354C27.4473 9.25977 27.5 9.13259 27.5 8.99999V2.99999C27.5 2.86738 27.4473 2.7402 27.3536 2.64643C27.2598 2.55266 27.1326 2.49999 27 2.49999C26.8674 2.49999 26.7402 2.55266 26.6465 2.64643C26.5527 2.7402 26.5 2.86738 26.5 2.99999V7.52999C26.202 7.15407 25.8835 6.79485 25.546 6.45399C23.3375 4.24547 20.4316 2.87104 17.3233 2.56488C14.2151 2.25873 11.0968 3.03979 8.49988 4.77498C5.90294 6.51017 3.988 9.09213 3.08134 12.0809C2.17467 15.0697 2.33238 18.2804 3.52759 21.166C4.7228 24.0516 6.88157 26.4334 9.63606 27.9058C12.3905 29.3781 15.5703 29.8498 18.6336 29.2405C21.6969 28.6312 24.4542 26.9786 26.4356 24.5643C28.417 22.1499 29.5 19.1233 29.5 16C29.5001 15.9343 29.4873 15.8692 29.4622 15.8085C29.4371 15.7478 29.4003 15.6926 29.3539 15.6461C29.3074 15.5997 29.2522 15.5629 29.1915 15.5378C29.1308 15.5127 29.0657 15.4999 29 15.5V15.5Z" fill="#0F0F0F"/>
</svg>
