<svg width="32" height="32" viewBox="0 0 32 32" fill="none" xmlns="http://www.w3.org/2000/svg">
<path d="M28.9998 15.4998C28.9342 15.4998 28.8691 15.5127 28.8085 15.5378C28.7478 15.5629 28.6926 15.5997 28.6462 15.6462C28.5998 15.6926 28.5629 15.7477 28.5378 15.8084C28.5127 15.8691 28.4998 15.9341 28.4998 15.9998C28.4999 18.4721 27.7668 20.8888 26.3932 22.9445C25.0197 25.0001 23.0675 26.6023 20.7834 27.5484C18.4993 28.4945 15.986 28.742 13.5612 28.2597C11.1364 27.7774 8.90913 26.5868 7.16098 24.8387C4.81676 22.4945 3.4998 19.315 3.4998 15.9998C3.4998 12.6846 4.81676 9.50515 7.16097 7.16093C9.50519 4.81672 12.6846 3.49975 15.9998 3.49975C19.3151 3.49975 22.4945 4.81672 24.8387 7.16093C25.2488 7.57955 25.6284 8.02698 25.9746 8.4998H20.9998C20.8672 8.4998 20.7401 8.55248 20.6463 8.64625C20.5525 8.74002 20.4998 8.86719 20.4998 8.9998C20.4998 9.13241 20.5525 9.25959 20.6463 9.35335C20.7401 9.44712 20.8672 9.4998 20.9998 9.4998H26.9998C27.0655 9.49984 27.1306 9.48693 27.1912 9.46182C27.2519 9.4367 27.307 9.39987 27.3535 9.35344C27.3999 9.307 27.4367 9.25186 27.4619 9.19119C27.487 9.13051 27.4999 9.06547 27.4998 8.9998V2.9998C27.4998 2.86719 27.4472 2.74001 27.3534 2.64625C27.2596 2.55248 27.1325 2.4998 26.9998 2.4998C26.8672 2.4998 26.7401 2.55248 26.6463 2.64625C26.5525 2.74001 26.4998 2.86719 26.4998 2.9998V7.52971C26.2018 7.15389 25.8833 6.79475 25.5457 6.4539C23.3373 4.24546 20.4313 2.8711 17.3231 2.56499C14.2149 2.25889 11.0967 3.03998 8.49987 4.77519C5.903 6.51039 3.98813 9.09234 3.08152 12.0811C2.17491 15.0699 2.33266 18.2805 3.52789 21.166C4.72311 24.0515 6.88187 26.4333 9.63633 27.9056C12.3908 29.3779 15.5705 29.8495 18.6338 29.2402C21.697 28.6309 24.4542 26.9783 26.4355 24.564C28.4169 22.1497 29.4998 19.123 29.4998 15.9998C29.4999 15.9341 29.487 15.8691 29.4619 15.8084C29.4367 15.7477 29.3999 15.6926 29.3535 15.6462C29.307 15.5997 29.2519 15.5629 29.1912 15.5378C29.1306 15.5127 29.0655 15.4998 28.9998 15.4998Z" fill="black"/>
</svg>
