<svg width="32" height="32" viewBox="0 0 32 32" fill="none" xmlns="http://www.w3.org/2000/svg">
<path d="M29 15C28.8686 14.9997 28.7385 15.0254 28.617 15.0756C28.4956 15.1257 28.3852 15.1994 28.2923 15.2923C28.1994 15.3852 28.1257 15.4956 28.0756 15.617C28.0254 15.7384 27.9997 15.8686 28 16C27.9999 18.7762 27.0372 21.4665 25.2759 23.6125C23.5146 25.7585 21.0638 27.2275 18.3409 27.769C15.618 28.3106 12.7915 27.8913 10.3431 26.5826C7.89473 25.2738 5.97585 23.1566 4.91344 20.5917C3.85103 18.0268 3.71082 15.1729 4.51669 12.5162C5.32257 9.85953 7.02468 7.56445 9.333 6.02203C11.6413 4.4796 14.4131 3.78526 17.1759 4.05731C19.9388 4.32936 22.5218 5.55097 24.485 7.51399C24.637 7.66599 24.778 7.83699 24.923 7.99999H21C20.7348 7.99999 20.4804 8.10535 20.2929 8.29289C20.1054 8.48042 20 8.73478 20 8.99999C20 9.26521 20.1054 9.51956 20.2929 9.7071C20.4804 9.89464 20.7348 9.99999 21 9.99999H27C27.2652 9.99999 27.5196 9.89464 27.7071 9.7071C27.8946 9.51956 28 9.26521 28 8.99999V2.99999C28 2.73478 27.8946 2.48042 27.7071 2.29289C27.5196 2.10535 27.2652 1.99999 27 1.99999C26.7348 1.99999 26.4804 2.10535 26.2929 2.29289C26.1054 2.48042 26 2.73478 26 2.99999V6.21199C25.965 6.17599 25.934 6.13499 25.9 6.09999C23.6098 3.80959 20.5963 2.38412 17.373 2.06647C14.1496 1.74883 10.9159 2.55865 8.22268 4.35797C5.52948 6.15729 3.54348 8.83477 2.60308 11.9342C1.66267 15.0336 1.82605 18.3633 3.06536 21.3558C4.30467 24.3482 6.54325 26.8184 9.39966 28.3455C12.2561 29.8725 15.5536 30.3618 18.7304 29.7302C21.9071 29.0985 24.7666 27.3849 26.8215 24.8812C28.8765 22.3776 29.9998 19.239 30 16C30 15.7348 29.8946 15.4804 29.7071 15.2929C29.5196 15.1054 29.2652 15 29 15Z" fill="#0F0F0F"/>
</svg>
