<svg xmlns="http://www.w3.org/2000/svg" width="32" height="32" viewBox="0 0 32 32"><path d="M29 15.0001C28.8686 14.9998 28.7385 15.0255 28.617 15.0756C28.4956 15.1258 28.3852 15.1994 28.2923 15.2924C28.1994 15.3853 28.1257 15.4956 28.0756 15.6171C28.0254 15.7385 27.9997 15.8687 28 16.0001C27.9999 18.7763 27.0372 21.4666 25.2759 23.6126C23.5146 25.7586 21.0638 27.2275 18.3409 27.7691C15.618 28.3107 12.7915 27.8913 10.3431 26.5826C7.89473 25.2739 5.97585 23.1567 4.91344 20.5918C3.85103 18.0269 3.71082 15.173 4.51669 12.5163C5.32257 9.85959 7.02468 7.56451 9.333 6.02209C11.6413 4.47966 14.4131 3.78532 17.1759 4.05737C19.9388 4.32942 22.5218 5.55103 24.485 7.51406C24.637 7.66606 24.778 7.83706 24.923 8.00006H21C20.7348 8.00006 20.4804 8.10541 20.2929 8.29295C20.1054 8.48049 20 8.73484 20 9.00006C20 9.26527 20.1054 9.51963 20.2929 9.70716C20.4804 9.8947 20.7348 10.0001 21 10.0001H27C27.2652 10.0001 27.5196 9.8947 27.7071 9.70716C27.8946 9.51963 28 9.26527 28 9.00006V3.00006C28 2.73484 27.8946 2.48049 27.7071 2.29295C27.5196 2.10541 27.2652 2.00006 27 2.00006C26.7348 2.00006 26.4804 2.10541 26.2929 2.29295C26.1054 2.48049 26 2.73484 26 3.00006V6.21206C25.965 6.17606 25.934 6.13506 25.9 6.10006C23.6098 3.80965 20.5963 2.38418 17.373 2.06653C14.1496 1.74889 10.9159 2.55871 8.22268 4.35803C5.52948 6.15735 3.54348 8.83483 2.60308 11.9343C1.66267 15.0337 1.82605 18.3633 3.06536 21.3558C4.30467 24.3483 6.54325 26.8185 9.39966 28.3455C12.2561 29.8725 15.5536 30.3619 18.7304 29.7302C21.9071 29.0985 24.7666 27.3849 26.8215 24.8813C28.8765 22.3777 29.9998 19.239 30 16.0001C30 15.7348 29.8946 15.4805 29.7071 15.2929C29.5196 15.1054 29.2652 15.0001 29 15.0001Z"/></svg>