<svg width="32" height="32" viewBox="0 0 32 32" fill="none" xmlns="http://www.w3.org/2000/svg">
<path d="M16.0005 2.49969C13.3304 2.49969 10.7204 3.29145 8.5003 4.77485C6.28023 6.25825 4.5499 8.36666 3.52812 10.8335C2.50634 13.3003 2.23899 16.0147 2.75989 18.6334C3.28079 21.2522 4.56654 23.6576 6.45455 25.5456C8.34256 27.4336 10.748 28.7194 13.3668 29.2403C15.9855 29.7612 18.6999 29.4938 21.1667 28.4721C23.6335 27.4503 25.7419 25.72 27.2253 23.4999C28.7087 21.2798 29.5005 18.6697 29.5005 15.9997C29.4966 12.4205 28.073 8.98896 25.5421 6.45807C23.0112 3.92717 19.5797 2.5036 16.0005 2.49969ZM16.0005 28.4997C13.5282 28.4997 11.1115 27.7666 9.05587 26.3931C7.00025 25.0195 5.3981 23.0673 4.452 20.7832C3.5059 18.4992 3.25836 15.9858 3.74068 13.5611C4.22299 11.1363 5.4135 8.90901 7.16166 7.16086C8.90982 5.4127 11.1371 4.22219 13.5619 3.73987C15.9866 3.25756 18.5 3.5051 20.784 4.4512C23.0681 5.39729 25.0203 6.99945 26.3939 9.05506C27.7674 11.1107 28.5005 13.5274 28.5005 15.9997C28.4968 19.3138 27.1786 22.491 24.8352 24.8344C22.4918 27.1778 19.3146 28.496 16.0005 28.4997Z" fill="black"/>
<path d="M21.0005 15.4997H11.0005C10.8679 15.4997 10.7407 15.5524 10.6469 15.6461C10.5532 15.7399 10.5005 15.8671 10.5005 15.9997C10.5005 16.1323 10.5532 16.2595 10.6469 16.3532C10.7407 16.447 10.8679 16.4997 11.0005 16.4997H21.0005C21.1331 16.4997 21.2603 16.447 21.354 16.3532C21.4478 16.2595 21.5005 16.1323 21.5005 15.9997C21.5005 15.8671 21.4478 15.7399 21.354 15.6461C21.2603 15.5524 21.1331 15.4997 21.0005 15.4997Z" fill="black"/>
</svg>
