<svg width="32" height="32" viewBox="0 0 32 32" fill="none" xmlns="http://www.w3.org/2000/svg">
<path d="M18.6807 9.59979C18.6023 9.54122 18.5084 9.50693 18.4107 9.50118C18.3131 9.49542 18.2158 9.51846 18.1311 9.56743C18.0464 9.61639 17.9779 9.68915 17.9341 9.77666C17.8903 9.86418 17.8732 9.96262 17.8848 10.0598L18.7178 17.0451C18.7275 17.1273 18.7575 17.2057 18.8051 17.2734C18.8526 17.3411 18.9163 17.3959 18.9902 17.4328C19.0642 17.4698 19.1462 17.4879 19.2289 17.4853C19.3116 17.4827 19.3923 17.4596 19.4639 17.4181L21.4313 16.2823L22.5674 18.2502C22.6001 18.3073 22.6437 18.3574 22.6958 18.3976C22.7479 18.4377 22.8074 18.4673 22.8709 18.4844C22.9344 18.5015 23.0007 18.506 23.0659 18.4974C23.1312 18.4889 23.1941 18.4675 23.2511 18.4346C23.308 18.4017 23.3579 18.3578 23.3979 18.3056C23.4379 18.2533 23.4671 18.1937 23.484 18.1301C23.5009 18.0665 23.505 18.0002 23.4962 17.935C23.4874 17.8698 23.4658 17.807 23.4326 17.7502L22.2968 15.7827L24.2647 14.6467C24.3362 14.6053 24.3965 14.5469 24.4399 14.4765C24.4834 14.4062 24.5087 14.3261 24.5136 14.2436C24.5186 14.1611 24.503 14.0786 24.4682 14.0036C24.4334 13.9285 24.3806 13.8633 24.3145 13.8137L18.6807 9.59979ZM19.6201 16.173L19.0156 11.0988L23.1074 14.1603L19.6201 16.173Z" fill="black"/>
<path d="M25 4.50018H7C5.80692 4.50148 4.66309 4.976 3.81945 5.81963C2.97582 6.66327 2.5013 7.80711 2.5 9.00018V19.0002C2.5013 20.1933 2.97582 21.3371 3.81945 22.1807C4.66309 23.0244 5.80692 23.4989 7 23.5002H12.0003L10.8018 25.0998C10.6344 25.3225 10.5324 25.5874 10.5071 25.8648C10.4819 26.1422 10.5344 26.4212 10.6588 26.6704C10.7833 26.9196 10.9746 27.1293 11.2115 27.2758C11.4484 27.4224 11.7214 27.5001 12 27.5002H20C20.2786 27.5001 20.5517 27.4225 20.7886 27.276C21.0256 27.1295 21.217 26.9199 21.3415 26.6706C21.466 26.4214 21.5187 26.1425 21.4935 25.865C21.4684 25.5875 21.3665 25.3226 21.1992 25.0998L20 23.5002H25C26.1931 23.4989 27.3369 23.0244 28.1805 22.1807C29.0242 21.3371 29.4987 20.1933 29.5 19.0002V9.00018C29.4987 7.80711 29.0242 6.66327 28.1805 5.81964C27.3369 4.97601 26.1931 4.50148 25 4.50018ZM20.3985 25.6994C20.4545 25.7735 20.4887 25.8618 20.4973 25.9543C20.5059 26.0469 20.4885 26.14 20.4471 26.2231C20.4057 26.3063 20.342 26.3763 20.263 26.4253C20.184 26.4742 20.0929 26.5002 20 26.5002H12C11.9071 26.5 11.8162 26.474 11.7373 26.425C11.6584 26.376 11.5947 26.306 11.5533 26.2229C11.512 26.1398 11.4946 26.0468 11.5031 25.9543C11.5116 25.8618 11.5457 25.7736 11.6016 25.6994L13.25 23.5002H18.75L20.3985 25.6994ZM28.5 19.0002C28.4989 19.9281 28.1298 20.8177 27.4736 21.4738C26.8175 22.1299 25.9279 22.4991 25 22.5002H7C6.07209 22.4991 5.1825 22.1299 4.52637 21.4738C3.87023 20.8177 3.50112 19.9281 3.5 19.0002V9.00018C3.50112 8.07227 3.87023 7.18268 4.52637 6.52655C5.1825 5.87041 6.07209 5.5013 7 5.50018H25C25.9279 5.5013 26.8175 5.87041 27.4736 6.52655C28.1298 7.18268 28.4989 8.07227 28.5 9.00018V19.0002Z" fill="black"/>
</svg>
