<svg xmlns="http://www.w3.org/2000/svg" width="32" height="32" viewBox="0 0 32 32"><path d="M21.7378 18.9966C22.5363 18.996 23.3024 19.3121 23.8683 19.8755L26.6212 22.6294C26.902 22.91 27.1248 23.2432 27.2768 23.6099C27.4288 23.9766 27.507 24.3697 27.507 24.7666C27.507 25.1636 27.4288 25.5567 27.2768 25.9234C27.1248 26.2901 26.902 26.6233 26.6212 26.9038L25.1496 28.3755C24.1302 29.2029 22.8341 29.6111 21.5246 29.5171C18.4289 29.5171 13.9035 27.9292 8.99039 23.0161C1.38785 15.4136 1.74918 8.73975 3.63199 6.85694L5.10365 5.38526C5.67924 4.83525 6.44472 4.52832 7.24085 4.52832C8.03698 4.52832 8.80246 4.83525 9.37806 5.38526L12.131 8.13819C12.4106 8.41766 12.6323 8.74947 12.7836 9.11467C12.9349 9.47987 13.0128 9.8713 13.0128 10.2666C13.0128 10.6619 12.9349 11.0533 12.7836 11.4185C12.6323 11.7837 12.4106 12.1155 12.131 12.395L12.1243 12.4016C12.015 12.5091 10.6161 13.8845 10.2677 14.2329C10.3019 16.2132 11.1024 18.1031 12.5011 19.5054C13.1961 20.2144 14.029 20.7736 14.9484 21.1485C15.8677 21.5233 16.8542 21.706 17.8468 21.6851C18.1359 21.3764 19.6085 19.8784 19.6085 19.8784C20.1736 19.3142 20.9393 18.9971 21.7378 18.9966ZM24.4425 27.6685L25.9142 26.1968C26.1021 26.009 26.2512 25.7861 26.3529 25.5407C26.4546 25.2953 26.507 25.0322 26.507 24.7666C26.507 24.501 26.4546 24.2379 26.3529 23.9925C26.2512 23.7471 26.1021 23.5242 25.9142 23.3364L23.1613 20.5825C22.7839 20.2063 22.2727 19.9951 21.7399 19.9951C21.207 19.9951 20.6959 20.2063 20.3185 20.5825C20.3185 20.5825 18.8439 22.0825 18.4806 22.4458C17.9005 23.0259 15.9484 22.5122 15.7267 22.4517C14.247 22.0511 12.8937 21.2805 11.7941 20.2124C9.49232 17.9106 8.86537 14.2231 9.55969 13.5259C9.92498 13.1616 11.4269 11.6851 11.4269 11.6851C11.8027 11.3078 12.0134 10.797 12.0129 10.2645C12.0123 9.7321 11.8005 9.22165 11.424 8.84522L8.67102 6.09229C8.48327 5.90436 8.26033 5.75529 8.01493 5.65357C7.76953 5.55186 7.50649 5.49951 7.24085 5.49951C6.97521 5.49951 6.71217 5.55186 6.46677 5.65357C6.22137 5.75529 5.99843 5.90436 5.81068 6.09229L4.33899 7.56397C2.95814 8.94483 2.53821 15.1499 9.69739 22.3091C16.8566 29.4683 23.0626 29.0483 24.4425 27.6685ZM20.75 12.0004C21.1642 12.0004 21.5 11.6646 21.5 11.2504C21.5 10.8362 21.1642 10.5004 20.75 10.5004C20.3358 10.5004 20 10.8362 20 11.2504C20 11.6646 20.3358 12.0004 20.75 12.0004ZM17.5 11.2504C17.5 11.6646 17.1642 12.0004 16.75 12.0004C16.3358 12.0004 16 11.6646 16 11.2504C16 10.8362 16.3358 10.5004 16.75 10.5004C17.1642 10.5004 17.5 10.8362 17.5 11.2504ZM23.8737 6.16819C23.6903 5.9618 23.3742 5.94321 23.1678 6.12667C22.9614 6.31013 22.9428 6.62616 23.1263 6.83255L26.831 11.0004L23.1263 15.1682C22.9428 15.3746 22.9614 15.6906 23.1678 15.8741C23.3742 16.0575 23.6903 16.0389 23.8737 15.8326L27.8737 11.3326C28.0421 11.1431 28.0421 10.8576 27.8737 10.6682L23.8737 6.16819Z"/></svg>