<svg width="32" height="32" viewBox="0 0 32 32" fill="none" xmlns="http://www.w3.org/2000/svg">
<path fill-rule="evenodd" clip-rule="evenodd" d="M16 29.5C23.4558 29.5 29.5 23.4558 29.5 16C29.5 8.54416 23.4558 2.5 16 2.5C8.54416 2.5 2.5 8.54416 2.5 16C2.5 23.4558 8.54416 29.5 16 29.5ZM11.0005 14.9997H21.0005C21.2657 14.9997 21.52 15.1051 21.7076 15.2926C21.8951 15.4801 22.0005 15.7345 22.0005 15.9997C22.0005 16.2649 21.8951 16.5193 21.7076 16.7068C21.52 16.8943 21.2657 16.9997 21.0005 16.9997H11.0005C10.7352 16.9997 10.4809 16.8943 10.2934 16.7068C10.1058 16.5193 10.0005 16.2649 10.0005 15.9997C10.0005 15.7345 10.1058 15.4801 10.2934 15.2926C10.4809 15.1051 10.7352 14.9997 11.0005 14.9997Z" fill="black"/>
</svg>
