<svg xmlns="http://www.w3.org/2000/svg" width="32" height="32" viewBox="0 0 32 32"><path d="M21.7358 18.4966C22.6677 18.4955 23.5618 18.8643 24.2219 19.522L26.9748 22.2759C27.3021 22.6029 27.5617 22.9912 27.7388 23.4186C27.9159 23.8459 28.0071 24.304 28.0071 24.7666C28.0071 25.2293 27.9159 25.6873 27.7388 26.1147C27.5617 26.5421 27.3021 26.9304 26.9748 27.2574L25.5032 28.729C24.387 29.6374 22.9671 30.0871 21.5315 29.9868C18.2893 29.9868 13.634 28.3676 8.63695 23.3696C0.784414 15.5171 1.27172 8.50928 3.27855 6.50342L4.75023 5.03174C5.42138 4.39142 6.31336 4.03418 7.24096 4.03418C8.16856 4.03418 9.06053 4.39142 9.73168 5.03174L12.4846 7.78467C12.8106 8.11056 13.0692 8.49748 13.2457 8.92334C13.4221 9.3492 13.5129 9.80564 13.5129 10.2666C13.5129 10.7276 13.4221 11.184 13.2457 11.6099C13.0692 12.0357 12.8106 12.4227 12.4846 12.7485L12.4164 12.8156C12.1577 13.0701 11.2291 13.9838 10.7834 14.4253C10.8785 16.1997 11.6145 17.8793 12.8547 19.1519C14.1282 20.3907 15.8073 21.1265 17.5813 21.2232C18.0959 20.7046 19.2522 19.5278 19.2522 19.5278C19.9107 18.8686 20.804 18.4977 21.7358 18.4966ZM24.0891 27.3149L25.5608 25.8433C25.7023 25.7019 25.8145 25.5341 25.8911 25.3494C25.9677 25.1646 26.0071 24.9666 26.0071 24.7666C26.0071 24.5666 25.9677 24.3686 25.8911 24.1839C25.8145 23.9991 25.7023 23.8313 25.5608 23.69L22.8079 20.9361C22.5242 20.6537 22.1402 20.4952 21.74 20.4952C21.3397 20.4952 20.9558 20.6537 20.6721 20.9361C20.6721 20.9361 19.1975 22.4361 18.8342 22.7994C18.136 23.4966 16.5051 23.1831 15.595 22.9341C14.0317 22.51 12.602 21.6951 11.4407 20.566C9.67406 18.7994 7.90355 14.48 9.20629 13.1734C9.57152 12.8081 11.0764 11.3286 11.0764 11.3286C11.3571 11.0449 11.514 10.6616 11.5129 10.2625C11.5118 9.86336 11.3528 9.48092 11.0706 9.19873L8.31762 6.4458C8.17629 6.30432 8.00845 6.19208 7.82371 6.1155C7.63897 6.03893 7.44095 5.99951 7.24096 5.99951C7.04098 5.99951 6.84296 6.03893 6.65822 6.1155C6.47348 6.19208 6.30564 6.30432 6.1643 6.4458L4.69262 7.91748C3.41527 9.19483 3.14379 15.0484 10.051 21.9556C16.9573 28.8618 22.8108 28.5904 24.0891 27.3149ZM21.25 12.5004C21.9404 12.5004 22.5 11.9407 22.5 11.2504C22.5 10.56 21.9404 10.0004 21.25 10.0004C20.5596 10.0004 20 10.56 20 11.2504C20 11.9407 20.5596 12.5004 21.25 12.5004ZM18.5 11.2504C18.5 11.9407 17.9404 12.5004 17.25 12.5004C16.5596 12.5004 16 11.9407 16 11.2504C16 10.56 16.5596 10.0004 17.25 10.0004C17.9404 10.0004 18.5 10.56 18.5 11.2504ZM23.7474 6.33601C23.3805 5.92323 22.7484 5.88605 22.3356 6.25297C21.9229 6.61989 21.8857 7.25196 22.2526 7.66474L25.6621 11.5004L22.2526 15.336C21.8857 15.7488 21.9229 16.3809 22.3356 16.7478C22.7484 17.1147 23.3805 17.0775 23.7474 16.6647L27.7474 12.1647C28.0842 11.7859 28.0842 11.2149 27.7474 10.836L23.7474 6.33601Z"/></svg>