<svg xmlns="http://www.w3.org/2000/svg" width="32" height="32" viewBox="0 0 32 32"><path d="M16 2C13.2311 2 10.5243 2.82109 8.22202 4.35943C5.91973 5.89777 4.12532 8.08427 3.06569 10.6424C2.00607 13.2006 1.72882 16.0155 2.26901 18.7313C2.80921 21.447 4.14258 23.9416 6.10051 25.8995C8.05845 27.8574 10.553 29.1908 13.2687 29.731C15.9845 30.2712 18.7994 29.9939 21.3576 28.9343C23.9157 27.8747 26.1022 26.0803 27.6406 23.778C29.1789 21.4757 30 18.7689 30 16C29.9958 12.2883 28.5194 8.72977 25.8948 6.10518C23.2702 3.48059 19.7117 2.00423 16 2ZM16 28C13.6266 28 11.3066 27.2962 9.33316 25.9776C7.35977 24.6591 5.8217 22.7849 4.91345 20.5922C4.0052 18.3995 3.76756 15.9867 4.23058 13.6589C4.69361 11.3311 5.83649 9.19295 7.51472 7.51472C9.19295 5.83649 11.3312 4.6936 13.6589 4.23058C15.9867 3.76755 18.3995 4.00519 20.5922 4.91345C22.7849 5.8217 24.6591 7.35977 25.9776 9.33316C27.2962 11.3065 28 13.6266 28 16C27.9966 19.1815 26.7312 22.2318 24.4815 24.4815C22.2318 26.7312 19.1815 27.9966 16 28Z M21 15H11C10.7348 15 10.4804 15.1054 10.2929 15.2929C10.1054 15.4804 10 15.7348 10 16C10 16.2652 10.1054 16.5196 10.2929 16.7071C10.4804 16.8946 10.7348 17 11 17H21C21.2652 17 21.5196 16.8946 21.7071 16.7071C21.8946 16.5196 22 16.2652 22 16C22 15.7348 21.8946 15.4804 21.7071 15.2929C21.5196 15.1054 21.2652 15 21 15Z"/></svg>