<svg xmlns="http://www.w3.org/2000/svg" width="32" height="32" viewBox="0 0 32 32"><path d="M20.6402 10.5H15.5002L15.4982 5.49998C15.4984 5.30345 15.4406 5.11121 15.3322 4.9473C15.2238 4.78338 15.0694 4.65505 14.8885 4.57834C14.7075 4.50163 14.508 4.47994 14.3148 4.51598C14.1216 4.55202 13.9433 4.64419 13.8022 4.78098L2.79218 15.294C2.60516 15.4835 2.50096 15.7394 2.50246 16.0056C2.50396 16.2719 2.61103 16.5266 2.80018 16.714L13.7982 27.213C13.9386 27.3514 14.1169 27.4453 14.3106 27.4827C14.5042 27.5201 14.7046 27.4994 14.8866 27.4231C15.0685 27.3469 15.2238 27.2186 15.333 27.0544C15.4422 26.8901 15.5003 26.6972 15.5002 26.5L15.5012 21.5H20.5862C27.2012 21.5 28.4662 25.939 28.5182 26.128C28.5483 26.2459 28.6208 26.3486 28.722 26.4163C28.8231 26.4841 28.9457 26.5121 29.0662 26.495C29.1862 26.479 29.2963 26.42 29.3761 26.329C29.456 26.238 29.5 26.1211 29.5002 26V18.989C29.4876 17.8463 29.2471 16.7176 28.7927 15.6691C28.3383 14.6205 27.6793 13.6732 26.8541 12.8826C26.029 12.092 25.0543 11.474 23.9873 11.0649C22.9203 10.6558 21.7824 10.4637 20.6402 10.5ZM28.5002 23.985C27.3692 22.436 25.0602 20.5 20.5852 20.5H15.0002C14.8676 20.5 14.7404 20.5527 14.6466 20.6464C14.5529 20.7402 14.5002 20.8674 14.5002 21L14.4952 26.495L3.49218 16.008L14.4982 5.49998L14.5012 11C14.5012 11.1326 14.5539 11.2598 14.6476 11.3535C14.7414 11.4473 14.8686 11.5 15.0012 11.5H20.6412C21.6517 11.4653 22.659 11.6326 23.604 11.9921C24.5491 12.3516 25.4129 12.896 26.1449 13.5936C26.8769 14.2911 27.4623 15.1277 27.8669 16.0543C28.2715 16.9809 28.4871 17.979 28.5012 18.99L28.5002 23.985Z"/></svg>