<svg width="32" height="32" viewBox="0 0 32 32" fill="none" xmlns="http://www.w3.org/2000/svg">
<path d="M16 17.75C16.9665 17.75 17.75 16.9665 17.75 16C17.75 15.0335 16.9665 14.25 16 14.25C15.0335 14.25 14.25 15.0335 14.25 16C14.25 16.9665 15.0335 17.75 16 17.75Z" fill="black"/>
<path d="M16.0005 2.25C14.0635 2.24968 12.1484 2.66002 10.3815 3.45397C8.61466 4.24791 7.03621 5.40741 5.75025 6.856L5.74951 3C5.74951 2.80109 5.67049 2.61032 5.52984 2.46967C5.38919 2.32902 5.19842 2.25 4.99951 2.25C4.8006 2.25 4.60983 2.32902 4.46918 2.46967C4.32853 2.61032 4.24951 2.80109 4.24951 3L4.25051 9C4.25056 9.1989 4.3296 9.38963 4.47024 9.53027C4.61088 9.67091 4.80161 9.74995 5.00051 9.75H10.9995C11.1984 9.75 11.3892 9.67098 11.5298 9.53033C11.6705 9.38968 11.7495 9.19891 11.7495 9C11.7495 8.80109 11.6705 8.61032 11.5298 8.46967C11.3892 8.32902 11.1984 8.25 10.9995 8.25H6.52751C8.3565 6.02091 10.9139 4.50924 13.7486 3.98158C16.5833 3.45391 19.5133 3.94415 22.0218 5.36583C24.5304 6.78751 26.4564 9.04931 27.4602 11.7524C28.4639 14.4554 28.481 17.4261 27.5084 20.1405C26.5357 22.8549 24.6358 25.1387 22.1438 26.5891C19.6517 28.0395 16.7276 28.5634 13.887 28.0683C11.0464 27.5733 8.47182 26.0911 6.61733 23.8832C4.76284 21.6753 3.74755 18.8834 3.75049 16C3.75049 15.8011 3.67147 15.6103 3.53082 15.4697C3.39017 15.329 3.1994 15.25 3.00049 15.25C2.80158 15.25 2.61081 15.329 2.47016 15.4697C2.32951 15.6103 2.25049 15.8011 2.25049 16C2.25049 18.7195 3.05691 21.3779 4.56778 23.6391C6.07865 25.9003 8.22611 27.6626 10.7386 28.7033C13.2511 29.744 16.0157 30.0163 18.683 29.4858C21.3502 28.9553 23.8002 27.6457 25.7232 25.7227C27.6462 23.7997 28.9557 21.3497 29.4863 18.6825C30.0168 16.0153 29.7445 13.2506 28.7038 10.7381C27.6631 8.22562 25.9008 6.07816 23.6396 4.56729C21.3784 3.05642 18.72 2.25 16.0005 2.25Z" fill="black"/>
</svg>
