<svg xmlns="http://www.w3.org/2000/svg" width="32" height="32" viewBox="0 0 32 32"><path d="M25 3.25H15C14.0058 3.25106 13.0526 3.64649 12.3495 4.34952C11.6465 5.05255 11.2511 6.00576 11.25 7V11.25H7C6.00584 11.2513 5.05279 11.6468 4.34981 12.3498C3.64684 13.0528 3.25132 14.0058 3.25 15V25C3.25132 25.9942 3.64684 26.9472 4.34981 27.6502C5.05279 28.3532 6.00584 28.7487 7 28.75H25C25.9942 28.7489 26.9474 28.3535 27.6505 27.6505C28.3535 26.9474 28.7489 25.9942 28.75 25V7C28.7489 6.00576 28.3535 5.05255 27.6505 4.34952C26.9474 3.64649 25.9942 3.25106 25 3.25ZM15.25 25C15.2492 25.5965 15.0119 26.1683 14.5901 26.5901C14.1683 27.0119 13.5965 27.2492 13 27.25H7C6.40351 27.2492 5.83167 27.0119 5.40989 26.5901C4.9881 26.1683 4.75079 25.5965 4.75 25V24.741H15.25V25ZM15.25 23.24H4.75V15C4.75079 14.4035 4.9881 13.8317 5.40989 13.4099C5.83167 12.9881 6.40351 12.7508 7 12.75H13C13.5965 12.7508 14.1683 12.9881 14.5901 13.4099C15.0119 13.8317 15.2492 14.4035 15.25 15V23.24ZM27.25 25C27.2492 25.5965 27.0119 26.1683 26.5901 26.5901C26.1683 27.0119 25.5965 27.2492 25 27.25H15.98C16.4763 26.6047 16.7469 25.8141 16.75 25V24.741H27.25V25ZM27.25 23.24H16.75V15C16.7489 14.0058 16.3535 13.0526 15.6505 12.3495C14.9474 11.6465 13.9942 11.2511 13 11.25H12.75V8.75H27.25V23.24ZM27.25 7.25H12.75V7C12.7508 6.40351 12.9881 5.83167 13.4099 5.40989C13.8317 4.9881 14.4035 4.75079 15 4.75H25C25.5965 4.75079 26.1683 4.9881 26.5901 5.40989C27.0119 5.83167 27.2492 6.40351 27.25 7V7.25Z"/></svg>