<svg xmlns="http://www.w3.org/2000/svg" width="32" height="32" viewBox="0 0 32 32"><path d="M16 2.25C14.0736 2.2499 12.1689 2.65607 10.4101 3.44197C8.65132 4.22788 7.07805 5.37587 5.793 6.811V3.002C5.793 2.80309 5.71398 2.61232 5.57333 2.47167C5.43268 2.33102 5.24191 2.252 5.043 2.252C4.84409 2.252 4.65332 2.33102 4.51267 2.47167C4.37202 2.61232 4.293 2.80309 4.293 3.002V9.002C4.293 9.20091 4.37202 9.39168 4.51267 9.53233C4.65332 9.67298 4.84409 9.752 5.043 9.752H11.043C11.2419 9.752 11.4327 9.67298 11.5733 9.53233C11.714 9.39168 11.793 9.20091 11.793 9.002C11.793 8.80309 11.714 8.61232 11.5733 8.47167C11.4327 8.33102 11.2419 8.252 11.043 8.252H6.526C8.35481 6.02248 10.9122 4.51036 13.747 3.98233C16.5819 3.45429 19.5122 3.94426 22.021 5.36583C24.5299 6.78739 26.4562 9.04922 27.4602 11.7524C28.4643 14.4556 28.4815 17.4265 27.5089 20.1412C26.5362 22.8558 24.6363 25.1398 22.144 26.5904C19.6518 28.0409 16.7274 28.5648 13.8866 28.0696C11.0458 27.5745 8.47109 26.0921 6.61657 23.8839C4.76205 21.6757 3.74684 18.8836 3.75 16C3.75 15.8011 3.67098 15.6103 3.53033 15.4697C3.38968 15.329 3.19891 15.25 3 15.25C2.80109 15.25 2.61032 15.329 2.46967 15.4697C2.32902 15.6103 2.25 15.8011 2.25 16C2.25 18.7195 3.05642 21.3779 4.56729 23.6391C6.07816 25.9003 8.22562 27.6626 10.7381 28.7033C13.2506 29.744 16.0153 30.0163 18.6825 29.4858C21.3497 28.9553 23.7997 27.6457 25.7227 25.7227C27.6457 23.7997 28.9553 21.3497 29.4858 18.6825C30.0163 16.0153 29.744 13.2506 28.7033 10.7381C27.6626 8.22562 25.9003 6.07816 23.6391 4.56729C21.3779 3.05642 18.7195 2.25 16 2.25Z"/></svg>