<svg xmlns="http://www.w3.org/2000/svg" width="32" height="32" viewBox="0 0 32 32"><path d="M16 2.5C13.9959 2.49917 12.0169 2.94616 10.2077 3.80829C8.39846 4.67042 6.80474 5.92591 5.543 7.483V3.003C5.543 2.87039 5.49032 2.74322 5.39655 2.64945C5.30279 2.55568 5.17561 2.503 5.043 2.503C4.91039 2.503 4.78321 2.55568 4.68945 2.64945C4.59568 2.74322 4.543 2.87039 4.543 3.003V9.003C4.543 9.13561 4.59568 9.26279 4.68945 9.35655C4.78321 9.45032 4.91039 9.503 5.043 9.503H11.043C11.1756 9.503 11.3028 9.45032 11.3966 9.35655C11.4903 9.26279 11.543 9.13561 11.543 9.003C11.543 8.87039 11.4903 8.74322 11.3966 8.64945C11.3028 8.55568 11.1756 8.503 11.043 8.503H6.027C7.81363 6.14215 10.3818 4.49382 13.2722 3.85275C16.1627 3.21169 19.1869 3.6197 21.8041 5.00384C24.4214 6.38797 26.4609 8.65796 27.558 11.4079C28.6551 14.1578 28.7383 17.2083 27.7926 20.0139C26.8469 22.8195 24.9341 25.1972 22.3961 26.7218C19.8582 28.2465 16.8607 28.8187 13.9396 28.336C11.0185 27.8533 8.36439 26.3474 6.4518 24.0874C4.53922 21.8273 3.49291 18.9607 3.5 16C3.5 15.8674 3.44732 15.7402 3.35355 15.6464C3.25979 15.5527 3.13261 15.5 3 15.5C2.86739 15.5 2.74021 15.5527 2.64645 15.6464C2.55268 15.7402 2.5 15.8674 2.5 16C2.5 18.67 3.29176 21.2801 4.77516 23.5002C6.25856 25.7203 8.36697 27.4506 10.8338 28.4724C13.3006 29.4942 16.015 29.7615 18.6337 29.2406C21.2525 28.7197 23.6579 27.434 25.5459 25.5459C27.434 23.6579 28.7197 21.2525 29.2406 18.6337C29.7615 16.015 29.4942 13.3006 28.4724 10.8338C27.4506 8.36697 25.7203 6.25856 23.5002 4.77516C21.2801 3.29176 18.67 2.5 16 2.5Z"/></svg>