<svg xmlns="http://www.w3.org/2000/svg" width="32" height="32" viewBox="0 0 32 32"><path d="M16 2C14.145 2.00093 12.3088 2.37209 10.599 3.09175C8.88925 3.8114 7.34033 4.86506 6.043 6.191V3.002C6.043 2.73678 5.93764 2.48243 5.75011 2.29489C5.56257 2.10736 5.30822 2.002 5.043 2.002C4.77778 2.002 4.52343 2.10736 4.33589 2.29489C4.14836 2.48243 4.043 2.73678 4.043 3.002V9.002C4.043 9.26722 4.14836 9.52157 4.33589 9.70911C4.52343 9.89664 4.77778 10.002 5.043 10.002H11.043C11.3082 10.002 11.5626 9.89664 11.7501 9.70911C11.9376 9.52157 12.043 9.26722 12.043 9.002C12.043 8.73678 11.9376 8.48243 11.7501 8.29489C11.5626 8.10736 11.3082 8.002 11.043 8.002H7.073C8.94566 5.91938 11.4886 4.55837 14.2602 4.15529C17.0318 3.75222 19.857 4.33255 22.2453 5.7955C24.6336 7.25846 26.4341 9.51164 27.3342 12.1638C28.2343 14.816 28.1771 17.6996 27.1726 20.3141C26.1681 22.9285 24.2797 25.1085 21.8353 26.4757C19.3909 27.8428 16.5449 28.3107 13.7914 27.7981C11.038 27.2855 8.55103 25.8247 6.76238 23.6695C4.97373 21.5143 3.99637 18.8007 4 16C4 15.7348 3.89464 15.4804 3.70711 15.2929C3.51957 15.1054 3.26522 15 3 15C2.73478 15 2.48043 15.1054 2.29289 15.2929C2.10536 15.4804 2 15.7348 2 16C2 18.7689 2.82109 21.4757 4.35943 23.778C5.89777 26.0803 8.08427 27.8747 10.6424 28.9343C13.2006 29.9939 16.0155 30.2712 18.7313 29.731C21.447 29.1908 23.9416 27.8574 25.8995 25.8995C27.8574 23.9416 29.1908 21.447 29.731 18.7313C30.2712 16.0155 29.9939 13.2006 28.9343 10.6424C27.8747 8.08427 26.0803 5.89777 23.778 4.35943C21.4757 2.82109 18.7689 2 16 2Z"/></svg>