<svg xmlns="http://www.w3.org/2000/svg" width="32" height="32" viewBox="0 0 32 32"><path d="M18.2078 14.9999H5.41379L13.7068 6.70692C13.8889 6.51832 13.9897 6.26571 13.9875 6.00352C13.9852 5.74132 13.88 5.49051 13.6946 5.3051C13.5092 5.11969 13.2584 5.01452 12.9962 5.01224C12.734 5.00997 12.4814 5.11076 12.2928 5.29292L2.29279 15.2929C2.10532 15.4804 2 15.7348 2 15.9999C2 16.2651 2.10532 16.5194 2.29279 16.7069L12.2928 26.7069C12.4814 26.8891 12.734 26.9899 12.9962 26.9876C13.2584 26.9853 13.5092 26.8801 13.6946 26.6947C13.88 26.5093 13.9852 26.2585 13.9875 25.9963C13.9897 25.7341 13.8889 25.4815 13.7068 25.2929L5.41379 16.9999H18.2078C20.5939 17.0026 22.8816 17.9516 24.5688 19.6389C26.2561 21.3261 27.2051 23.6138 27.2078 25.9999C27.2078 26.2651 27.3131 26.5195 27.5007 26.707C27.6882 26.8946 27.9426 26.9999 28.2078 26.9999C28.473 26.9999 28.7274 26.8946 28.9149 26.707C29.1024 26.5195 29.2078 26.2651 29.2078 25.9999C29.2046 23.0835 28.0447 20.2875 25.9825 18.2253C23.9202 16.163 21.1242 15.0031 18.2078 14.9999Z"/></svg>