<svg xmlns="http://www.w3.org/2000/svg" width="32" height="32" viewBox="0 0 32 32"><path d="M25.4999 18.9988V5.99976C25.4999 5.76994 25.4471 5.54319 25.3456 5.337C25.2441 5.13081 25.0966 4.9507 24.9144 4.81058C24.7323 4.67045 24.5203 4.57406 24.295 4.52884C24.0697 4.48362 23.837 4.49077 23.6149 4.54976L11.6149 7.73676C11.2953 7.82198 11.0128 8.01028 10.8112 8.27246C10.6096 8.53464 10.5001 8.85603 10.4999 9.18676V20.5538C9.93227 19.9749 9.18119 19.6112 8.37509 19.5249C7.56898 19.4386 6.75794 19.6351 6.08068 20.0807C5.40342 20.5263 4.90204 21.1934 4.66228 21.9678C4.42253 22.7423 4.4593 23.576 4.76631 24.3263C5.07332 25.0766 5.63149 25.697 6.34535 26.0813C7.05921 26.4655 7.8844 26.5898 8.67978 26.4329C9.47516 26.276 10.1913 25.8475 10.7057 25.2209C11.2201 24.5943 11.5008 23.8085 11.4999 22.9978V9.18776C11.4997 9.07746 11.5359 8.97019 11.603 8.88265C11.6701 8.79511 11.7643 8.73222 11.8709 8.70376L23.8709 5.51776C23.945 5.49719 24.0228 5.49435 24.0982 5.50946C24.1736 5.52458 24.2444 5.55722 24.3049 5.60476C24.3655 5.65124 24.4146 5.71103 24.4484 5.77953C24.4822 5.84802 24.4998 5.92338 24.4999 5.99976V16.5538C23.9323 15.9749 23.1812 15.6112 22.3751 15.5249C21.569 15.4386 20.7579 15.6351 20.0807 16.0807C19.4034 16.5263 18.902 17.1934 18.6623 17.9678C18.4225 18.7423 18.4593 19.576 18.7663 20.3263C19.0733 21.0766 19.6315 21.697 20.3453 22.0813C21.0592 22.4655 21.8844 22.5898 22.6798 22.4329C23.4752 22.276 24.1913 21.8475 24.7057 21.2209C25.2201 20.5943 25.5008 19.8085 25.4999 18.9978V18.9988Z"/></svg>