<svg xmlns="http://www.w3.org/2000/svg" width="32" height="32" viewBox="0 0 32 32"><path d="M25.75 18.9988V5.9998C25.7499 5.73186 25.6883 5.46753 25.5699 5.22717C25.4515 4.98681 25.2795 4.77685 25.0671 4.61347C24.8547 4.45009 24.6077 4.33765 24.345 4.28483C24.0823 4.23201 23.811 4.24021 23.552 4.3088H23.551L11.551 7.4958C11.1784 7.59507 10.8489 7.81448 10.6137 8.12003C10.3785 8.42558 10.2507 8.8002 10.25 9.1858V20.0158C9.57504 19.511 8.74936 19.249 7.90683 19.2722C7.0643 19.2955 6.25433 19.6027 5.60824 20.1439C4.96216 20.6852 4.51784 21.4288 4.34734 22.2543C4.17685 23.0797 4.29016 23.9385 4.66891 24.6915C5.04766 25.4444 5.66964 26.0474 6.434 26.4025C7.19837 26.7577 8.06029 26.8443 8.88002 26.6482C9.69975 26.4522 10.4292 25.985 10.9502 25.3224C11.4711 24.6598 11.7529 23.8406 11.75 22.9978V9.1878C11.7499 9.13272 11.7679 9.07914 11.8014 9.03537C11.8348 8.99161 11.8818 8.96013 11.935 8.9458L23.935 5.7588C23.9721 5.74881 24.011 5.74751 24.0487 5.75499C24.0864 5.76248 24.1218 5.77855 24.1523 5.80196C24.1828 5.82536 24.2074 5.85548 24.2244 5.88997C24.2413 5.92445 24.2501 5.96238 24.25 6.0008V16.0158C23.5754 15.5116 22.7503 15.2499 21.9084 15.2732C21.0665 15.2966 20.2571 15.6036 19.6115 16.1444C18.9659 16.6853 18.5219 17.4284 18.3514 18.2532C18.1809 19.0779 18.294 19.9361 18.6722 20.6887C19.0505 21.4412 19.6718 22.0439 20.4355 22.3991C21.1991 22.7543 22.0604 22.8412 22.8796 22.6457C23.6988 22.4503 24.428 21.9838 24.949 21.3221C25.47 20.6603 25.7523 19.842 25.75 18.9998V18.9988Z"/></svg>