<svg width="32" height="32" viewBox="0 0 32 32" fill="none" xmlns="http://www.w3.org/2000/svg">
<path d="M25.4999 18.9988V6.00136C25.4999 5.77159 25.447 5.5449 25.3455 5.33877C25.244 5.13264 25.0965 4.95257 24.9144 4.81245C24.7323 4.67234 24.5205 4.57591 24.2952 4.53061C24.0699 4.4853 23.8373 4.49234 23.6152 4.55116L11.6152 7.73769C11.2955 7.82283 11.0129 8.01114 10.8112 8.27337C10.6096 8.5356 10.5001 8.85707 10.4999 9.18788V20.555C9.93241 19.9763 9.18147 19.6128 8.37554 19.5265C7.56961 19.4403 6.75876 19.6368 6.08166 20.0823C5.40457 20.5278 4.90331 21.1948 4.6636 21.9691C4.4239 22.7433 4.46064 23.5768 4.76755 24.327C5.07447 25.0772 5.63248 25.6974 6.34615 26.0817C7.05983 26.4659 7.88482 26.5902 8.68004 26.4334C9.47525 26.2766 10.1913 25.8484 10.7057 25.222C11.2201 24.5956 11.5008 23.8099 11.5 22.9994L11.4999 9.18788C11.4998 9.07766 11.5361 8.97049 11.6033 8.88307C11.6704 8.79564 11.7645 8.73285 11.871 8.70448L23.871 5.51796C23.9451 5.4975 24.0229 5.4947 24.0982 5.5098C24.1735 5.5249 24.2442 5.55746 24.3046 5.60488C24.3655 5.65146 24.4148 5.71148 24.4487 5.78025C24.4826 5.84902 24.5001 5.92469 24.4999 6.00136V16.555C23.9324 15.9763 23.1815 15.6128 22.3755 15.5265C21.5696 15.4403 20.7588 15.6368 20.0817 16.0823C19.4046 16.5278 18.9033 17.1948 18.6636 17.9691C18.4239 18.7433 18.4606 19.5768 18.7676 20.327C19.0745 21.0772 19.6325 21.6974 20.3462 22.0817C21.0598 22.4659 21.8848 22.5902 22.68 22.4334C23.4753 22.2766 24.1913 21.8484 24.7057 21.222C25.2201 20.5956 25.5008 19.8093 25.4999 18.9988Z" fill="black"/>
</svg>
