<svg width="32" height="32" viewBox="0 0 32 32" fill="none" xmlns="http://www.w3.org/2000/svg">
<path d="M25.7499 18.9988V6.00136C25.7499 5.73341 25.6884 5.46904 25.5701 5.22863C25.4518 4.98822 25.2798 4.7782 25.0675 4.61476C24.8552 4.45132 24.6081 4.33883 24.3454 4.28596C24.0828 4.23309 23.8114 4.24126 23.5524 4.30983L23.5507 4.31L11.5507 7.49653C11.1779 7.59581 10.8482 7.81543 10.613 8.12128C10.3778 8.42713 10.2502 8.80209 10.2499 9.18793V20.0163C9.57519 19.5119 8.74986 19.2501 7.90773 19.2734C7.06559 19.2968 6.25603 19.6039 5.61026 20.1449C4.96449 20.6859 4.52038 21.4292 4.34992 22.2542C4.17946 23.0793 4.29264 23.9377 4.67111 24.6903C5.04959 25.443 5.67117 26.0458 6.4351 26.4009C7.19903 26.7561 8.06052 26.8429 8.87992 26.6471C9.69933 26.4514 10.4286 25.9847 10.9495 25.3226C11.4705 24.6605 11.7525 23.8419 11.75 22.9994L11.7499 9.18788C11.7499 9.13273 11.7681 9.07912 11.8017 9.03534C11.8352 8.99156 11.8822 8.96006 11.9355 8.9457L23.9355 5.75917C23.9726 5.74944 24.0114 5.74833 24.0489 5.75593C24.0865 5.76354 24.1218 5.77965 24.1522 5.80304C24.1825 5.82643 24.2071 5.85647 24.2241 5.89085C24.241 5.92523 24.2499 5.96303 24.2499 6.00136V16.0164C23.5752 15.5119 22.7499 15.2502 21.9077 15.2735C21.0656 15.2968 20.256 15.6039 19.6102 16.1449C18.9645 16.686 18.5204 17.4293 18.3499 18.2543C18.1795 19.0793 18.2926 19.9378 18.6711 20.6904C19.0496 21.4431 19.6712 22.0458 20.4351 22.401C21.1991 22.7562 22.0606 22.8429 22.88 22.6472C23.6994 22.4514 24.4286 21.9847 24.9496 21.3226C25.4705 20.6605 25.7525 19.8413 25.7499 18.9988Z" fill="black"/>
</svg>
