<svg xmlns="http://www.w3.org/2000/svg" width="32" height="32" viewBox="0 0 32 32"><path d="M21.5329 4.88996C20.827 4.12082 19.9659 3.51014 19.0065 3.09822C18.0472 2.68631 17.0114 2.48254 15.9675 2.50034C14.9339 2.4891 13.9096 2.69614 12.9615 3.10791C12.0134 3.51969 11.1629 4.12694 10.4655 4.88996C9.74905 5.69217 9.20724 6.63463 8.87453 7.65746C8.54183 8.6803 8.42549 9.76116 8.53293 10.8314C8.60086 11.5966 8.78596 12.3469 9.08175 13.056L11.4519 18.0316C11.4785 18.0857 11.4947 18.1443 11.4997 18.2044V20H15V14C15 13.4477 15.4477 13 16 13C16.5523 13 17 13.4477 17 14V20H20.4986L20.4978 18.227C20.5001 18.1586 20.5164 18.0915 20.5456 18.0297L22.9275 13.0336C23.2183 12.3306 23.4001 11.5874 23.4665 10.8295C23.5738 9.7595 23.4573 8.6789 23.1244 7.65637C22.7915 6.63383 22.2496 5.69174 21.5329 4.88996Z M11.4997 24V22H20.4994L20.5003 24H11.4997Z M11.6037 26C11.6589 26.2609 11.7378 26.517 11.8397 26.7649C12.0639 27.3104 12.3951 27.8055 12.8137 28.2209C13.2323 28.6364 13.7299 28.9638 14.2771 29.1839C14.8243 29.4039 15.41 29.5122 15.9997 29.5022C16.1013 29.5022 16.2019 29.4993 16.3015 29.4935C17.4414 29.4364 18.515 28.9399 19.2966 28.1082C19.8541 27.5151 20.2322 26.7844 20.3982 26H11.6037Z"/></svg>