<svg xmlns="http://www.w3.org/2000/svg" width="32" height="32" viewBox="0 0 32 32"><path d="M21.5328 4.8901C20.827 4.12086 19.966 3.51009 19.0067 3.0981C18.0474 2.68612 17.0117 2.4823 15.9678 2.5001C14.9342 2.48888 13.9098 2.69596 12.9617 3.10781C12.0136 3.51966 11.1631 4.12699 10.4658 4.8901C9.74936 5.69225 9.20754 6.63463 8.87476 7.65739C8.54199 8.68014 8.42555 9.76093 8.53282 10.8311C8.60108 11.5966 8.78658 12.347 9.08282 13.0561L11.4528 18.0321C11.479 18.086 11.495 18.1443 11.4998 18.2041V24.9541C11.4998 24.9641 11.5028 24.9751 11.5028 24.9871L11.4998 25.0021C11.4998 25.0171 11.5078 25.0301 11.5088 25.0451C11.5034 25.6348 11.6161 26.2196 11.8403 26.765C12.0645 27.3104 12.3957 27.8055 12.8142 28.2209C13.2328 28.6363 13.7303 28.9636 14.2774 29.1837C14.8246 29.4037 15.4102 29.512 15.9998 29.5021C16.1018 29.5021 16.2018 29.4991 16.3018 29.4941C17.4418 29.437 18.5154 28.9404 19.2971 28.1086C20.0787 27.2768 20.5077 26.1745 20.4938 25.0331C20.4938 25.0231 20.4998 25.0131 20.4998 25.0031L20.4978 24.9911C20.4978 24.9781 20.5008 24.9661 20.5008 24.9531L20.4978 18.2271C20.5003 18.1588 20.5166 18.0918 20.5458 18.0301L22.9278 13.0341C23.2178 12.3311 23.4008 11.5871 23.4668 10.8291C23.574 9.75916 23.4574 8.67864 23.1244 7.65619C22.7915 6.63375 22.2495 5.69176 21.5328 4.8901ZM19.4998 21.5001L19.5008 24.5021H12.5008V21.5001H19.4998ZM15.9998 28.5021C15.156 28.5163 14.3369 28.2176 13.7002 27.6637C13.0636 27.1097 12.6545 26.3397 12.5518 25.5021H19.4498C19.3469 26.34 18.9375 27.1101 18.3005 27.6641C17.6634 28.218 16.8439 28.5165 15.9998 28.5021ZM22.4698 10.7381C22.4138 11.3866 22.2607 12.023 22.0158 12.6261L19.6438 17.5981C19.5538 17.7881 19.5038 17.9951 19.4978 18.2051L19.4998 20.5001H16.4998V14.0001C16.4998 13.8675 16.4471 13.7403 16.3534 13.6465C16.2596 13.5528 16.1324 13.5001 15.9998 13.5001C15.8672 13.5001 15.74 13.5528 15.6463 13.6465C15.5525 13.7403 15.4998 13.8675 15.4998 14.0001V20.5001H12.4998V18.1831C12.4912 17.981 12.4418 17.7827 12.3548 17.6001L9.99482 12.6491C9.74418 12.0396 9.5874 11.3956 9.52982 10.7391C9.42939 9.80722 9.52667 8.86464 9.81529 7.97292C10.1039 7.0812 10.5774 6.26039 11.2048 5.5641C11.8175 4.898 12.5646 4.36958 13.3967 4.01377C14.2288 3.65796 15.127 3.48287 16.0318 3.5001C16.9263 3.48966 17.8128 3.66811 18.6336 4.02378C19.4544 4.37944 20.1908 4.90432 20.7948 5.5641C21.4224 6.26012 21.8961 7.08072 22.1849 7.97228C22.4737 8.86384 22.5711 9.80631 22.4708 10.7381H22.4698Z"/></svg>