<svg width="32" height="32" viewBox="0 0 32 32" fill="none" xmlns="http://www.w3.org/2000/svg">
<path d="M27.4997 4.05V2.99973C27.4997 2.73452 27.3944 2.48016 27.2068 2.29263C27.0193 2.10509 26.7649 1.99973 26.4997 1.99973C26.2345 1.99973 25.9801 2.10509 25.7926 2.29263C25.6051 2.48016 25.4997 2.73452 25.4997 2.99973V3.99973H22.4997V3.00559C22.4997 2.74038 22.3944 2.48602 22.2068 2.29849C22.0193 2.11095 21.7649 2.00559 21.4997 2.00559C21.2345 2.00559 20.9801 2.11095 20.7926 2.29849C20.6051 2.48602 20.4997 2.74038 20.4997 3.00559V4.05C19.9089 4.15051 19.3618 4.42574 18.9289 4.8402C18.496 5.25466 18.1973 5.78932 18.0712 6.3752C17.2703 6.07674 16.4147 5.95393 15.5622 6.01496C14.7097 6.07599 13.8802 6.3195 13.1299 6.729C12.8692 6.11839 12.4767 5.57284 11.9803 5.13198C11.4838 4.69113 10.8958 4.36566 10.2587 4.17894C9.62149 3.99222 8.95088 3.94889 8.29497 4.05204C7.63906 4.1552 7.01413 4.40229 6.46503 4.77558C5.91593 5.14887 5.45628 5.63909 5.11908 6.21106C4.78188 6.78304 4.5755 7.42257 4.51474 8.08375C4.45399 8.74494 4.54036 9.41137 4.76768 10.0352C4.99499 10.6591 5.3576 11.2248 5.82948 11.692C4.7188 12.1626 3.76708 12.943 3.08797 13.94C2.40887 14.937 2.03109 16.1083 1.99976 17.3142C1.99976 18.0408 2.32496 19.3904 4.50465 20.2576C5.37364 20.5805 6.28029 20.7913 7.20265 20.8848C6.41574 22.2142 6.00008 23.7302 5.99878 25.2751C5.99878 26.3962 6.60034 27.9529 9.46557 29.0076C11.5716 29.7051 13.7806 30.0409 15.9988 30.0007C20.6121 30.0007 25.9988 28.7625 25.9988 25.2751C25.9543 23.3815 25.3317 21.5468 24.2147 20.0172C23.0976 18.4875 21.5395 17.336 19.7493 16.7172C20.0195 16.5 20.2707 16.2599 20.4999 15.9998H27.0037C27.798 15.999 28.5596 15.683 29.1213 15.1213C29.683 14.5596 29.9989 13.798 29.9997 13.0037V6.9968C29.9981 6.28948 29.7462 5.60556 29.2886 5.06619C28.831 4.52683 28.1973 4.16684 27.4997 4.05ZM8.99581 5.99973C9.58588 6.00104 10.1564 6.2112 10.6064 6.59297C11.0563 6.97473 11.3566 7.50345 11.4539 8.08543C10.7995 8.83861 10.3435 9.74285 10.1268 10.7168C9.77779 10.9001 9.38998 10.9971 8.9958 10.9997C8.33275 10.9997 7.69687 10.7363 7.22803 10.2675C6.75919 9.79866 6.4958 9.16277 6.4958 8.49973C6.4958 7.83669 6.75919 7.20081 7.22803 6.73197C7.69687 6.26312 8.33276 5.99973 8.99581 5.99973ZM3.99971 17.3142C3.99971 14.9353 6.24288 12.9997 8.99971 12.9997C9.36415 13.0015 9.72759 13.038 10.0851 13.1088C10.3485 14.533 11.1166 15.8137 12.2485 16.7171C10.9163 17.2149 9.70442 17.9889 8.69255 18.9883C5.91664 18.9275 3.99971 18.0822 3.99971 17.3142ZM23.9987 25.2752C23.9987 26.7781 20.4099 28.0008 15.9987 28.0008C11.5876 28.0008 7.99874 26.7781 7.99874 25.2752C7.99874 21.284 11.5876 18.0369 15.9987 18.0369C20.4099 18.0369 23.9987 21.284 23.9987 25.2752ZM15.9987 16.0369C15.2039 16.0369 14.427 15.8012 13.7661 15.3597C13.1053 14.9181 12.5902 14.2905 12.2861 13.5562C11.9819 12.8219 11.9023 12.0139 12.0574 11.2344C12.2124 10.4548 12.5952 9.7388 13.1572 9.1768C13.7192 8.61479 14.4352 8.23206 15.2147 8.077C15.9943 7.92194 16.8023 8.00152 17.5366 8.30568C18.2709 8.60983 18.8985 9.12491 19.34 9.78576C19.7816 10.4466 20.0173 11.2236 20.0173 12.0184C20.0161 13.0838 19.5923 14.1052 18.839 14.8586C18.0856 15.6119 17.0642 16.0357 15.9987 16.0369ZM27.9997 13.0037C27.9993 13.2677 27.8942 13.5209 27.7075 13.7076C27.5208 13.8943 27.2677 13.9994 27.0036 13.9998H21.6752C22.0724 12.8779 22.125 11.6631 21.8264 10.511C21.5279 9.35897 20.8917 8.32248 19.9996 7.53473L19.9997 6.9968C20 6.73245 20.1051 6.47902 20.2921 6.29209C20.479 6.10517 20.7324 6.00003 20.9968 5.99973H27.0036C27.2678 6.00024 27.521 6.10548 27.7077 6.29239C27.8945 6.47929 27.9995 6.73261 27.9997 6.9968L27.9997 13.0037Z" fill="black"/>
</svg>
