<svg width="32" height="32" fill="none" xmlns="http://www.w3.org/2000/svg"><path fill-rule="evenodd" clip-rule="evenodd" d="M8.4999 19c0-2.4853 2.0147-4.5 4.5-4.5h11c2.4853 0 4.5 2.0147 4.5 4.5v5c0 2.4853-2.0147 4.5-4.5 4.5h-11c-2.4853 0-4.5-2.0147-4.5-4.5v-5zm4.5-3.5c-1.933 0-3.5 1.567-3.5 3.5v5c0 1.933 1.567 3.5 3.5 3.5h11c1.933 0 3.5-1.567 3.5-3.5v-5c0-1.933-1.567-3.5-3.5-3.5h-11z" fill="#0F0F0F"/><path d="M15.1563 3.6465a.5.5 0 10-.7071.707l2.2517 2.2518c-5.1915.1272-8.5082 2.1982-10.5187 4.7746-2.081 2.667-2.7319 5.8351-2.6793 7.8333a.5.5 0 00.9997-.0263c-.0475-1.8018.55-4.7337 2.468-7.1918C8.821 9.6238 11.93 7.6544 16.9954 7.6003l-2.5462 2.5462a.5.5 0 10.7071.7071l3.2146-3.2147a.55.55 0 000-.7778l-3.2146-3.2147z" fill="#0F0F0F"/></svg>