<svg xmlns="http://www.w3.org/2000/svg" width="32" height="32" viewBox="0 0 32 32"><path d="M5 6C5 5.44772 5.44772 5 6 5H12C12.5523 5 13 5.44772 13 6V12C13 12.5523 12.5523 13 12 13H6C5.44772 13 5 12.5523 5 12V6ZM6 3C4.34315 3 3 4.34315 3 6V12C3 13.6569 4.34315 15 6 15H12C13.6569 15 15 13.6569 15 12V6C15 4.34315 13.6569 3 12 3H6ZM19 6C19 5.44772 19.4477 5 20 5H26C26.5523 5 27 5.44772 27 6V12C27 12.5523 26.5523 13 26 13H20C19.4477 13 19 12.5523 19 12V6ZM20 3C18.3431 3 17 4.34315 17 6V12C17 13.6569 18.3431 15 20 15H26C27.6569 15 29 13.6569 29 12V6C29 4.34315 27.6569 3 26 3H20ZM19 25.5858L21.5858 23L19 20.4142V25.5858ZM20.4142 27H25.5858L23 24.4142L20.4142 27ZM24.4142 23L27 25.5858V20.4142L24.4142 23ZM25.5858 19H20.4142L23 21.5858L25.5858 19ZM17 20C17 18.3431 18.3431 17 20 17H26C27.6569 17 29 18.3431 29 20V26C29 27.6569 27.6569 29 26 29H20C18.3431 29 17 27.6569 17 26V20ZM5 20C5 19.4477 5.44772 19 6 19H12C12.5523 19 13 19.4477 13 20V26C13 26.5523 12.5523 27 12 27H6C5.44772 27 5 26.5523 5 26V20ZM6 17C4.34315 17 3 18.3431 3 20V26C3 27.6569 4.34315 29 6 29H12C13.6569 29 15 27.6569 15 26V20C15 18.3431 13.6569 17 12 17H6Z"/></svg>