<svg width="32" height="32" viewBox="0 0 32 32" fill="none" xmlns="http://www.w3.org/2000/svg">
<path d="M16 2.5C13.33 2.5 10.7199 3.29176 8.49981 4.77516C6.27974 6.25856 4.54942 8.36697 3.52763 10.8338C2.50585 13.3006 2.2385 16.015 2.7594 18.6337C3.28031 21.2525 4.56606 23.6579 6.45406 25.5459C8.34207 27.434 10.7475 28.7197 13.3663 29.2406C15.985 29.7615 18.6994 29.4942 21.1662 28.4724C23.633 27.4506 25.7414 25.7203 27.2248 23.5002C28.7082 21.2801 29.5 18.67 29.5 16C29.496 12.4208 28.0724 8.98932 25.5416 6.45844C23.0107 3.92756 19.5792 2.50397 16 2.5V2.5ZM16 28.5C13.5277 28.5 11.111 27.7669 9.05538 26.3934C6.99976 25.0199 5.39761 23.0676 4.45151 20.7835C3.50542 18.4995 3.25787 15.9861 3.74019 13.5614C4.22251 11.1366 5.41302 8.90932 7.16117 7.16117C8.90933 5.41301 11.1366 4.2225 13.5614 3.74018C15.9861 3.25787 18.4995 3.50541 20.7835 4.45151C23.0676 5.3976 25.0199 6.99976 26.3934 9.05537C27.7669 11.111 28.5 13.5277 28.5 16C28.4963 19.3141 27.1781 22.4913 24.8347 24.8347C22.4913 27.1781 19.3141 28.4963 16 28.5V28.5Z" fill="#0F0F0F"/>
<path d="M22 9.5C21.8674 9.5 21.7402 9.55268 21.6464 9.64645C21.5527 9.74021 21.5 9.86739 21.5 10V12.567C20.7181 11.3249 19.5379 10.385 18.1523 9.90099C16.7667 9.41701 15.2578 9.41767 13.8727 9.90285C12.4875 10.388 11.308 11.329 10.5273 12.5718C9.7465 13.8146 9.41068 15.2855 9.57476 16.744C9.73884 18.2025 10.3931 19.5621 11.4305 20.6003C12.4679 21.6386 13.8269 22.294 15.2853 22.4593C16.7436 22.6245 18.2149 22.2899 19.4583 21.5102C20.7017 20.7305 21.6437 19.5518 22.13 18.167C22.1743 18.0418 22.167 17.9042 22.1098 17.7843C22.0526 17.6645 21.9502 17.5723 21.825 17.528C21.6998 17.4837 21.5622 17.491 21.4423 17.5482C21.3225 17.6054 21.2303 17.7078 21.186 17.833C20.7671 19.0322 19.9471 20.05 18.8646 20.7145C17.782 21.379 16.5032 21.6494 15.2444 21.4801C13.9855 21.3108 12.8236 20.7121 11.9551 19.7852C11.0866 18.8583 10.5646 17.66 10.4775 16.3927C10.3903 15.1255 10.7433 13.867 11.4767 12.8299C12.2102 11.7928 13.2791 11.0407 14.503 10.7006C15.7269 10.3606 17.0306 10.4534 18.1939 10.9634C19.3573 11.4735 20.3089 12.3695 20.888 13.5H18C17.8674 13.5 17.7402 13.5527 17.6464 13.6464C17.5527 13.7402 17.5 13.8674 17.5 14C17.5 14.1326 17.5527 14.2598 17.6464 14.3536C17.7402 14.4473 17.8674 14.5 18 14.5H22C22.1326 14.5 22.2598 14.4473 22.3535 14.3536C22.4473 14.2598 22.5 14.1326 22.5 14V10C22.5 9.86739 22.4473 9.74021 22.3535 9.64645C22.2598 9.55268 22.1326 9.5 22 9.5V9.5Z" fill="#0F0F0F"/>
</svg>
