<svg width="32" height="32" viewBox="0 0 32 32" fill="none" xmlns="http://www.w3.org/2000/svg">
<path d="M16 2.25C13.2805 2.25 10.6221 3.05642 8.36092 4.56729C6.09974 6.07816 4.33737 8.22562 3.29666 10.7381C2.25596 13.2506 1.98366 16.0153 2.51421 18.6825C3.04476 21.3497 4.35432 23.7997 6.27729 25.7227C8.20026 27.6457 10.6503 28.9553 13.3175 29.4858C15.9848 30.0163 18.7494 29.744 21.2619 28.7033C23.7744 27.6626 25.9218 25.9003 27.4327 23.6391C28.9436 21.3779 29.75 18.7195 29.75 16C29.746 12.3545 28.2961 8.85943 25.7183 6.28167C23.1406 3.7039 19.6455 2.25397 16 2.25V2.25ZM16 28.25C13.5772 28.25 11.2088 27.5316 9.19427 26.1855C7.17977 24.8395 5.60966 22.9263 4.68248 20.6879C3.75531 18.4495 3.51272 15.9864 3.98539 13.6101C4.45806 11.2339 5.62476 9.05114 7.33795 7.33794C9.05114 5.62475 11.2339 4.45805 13.6102 3.98538C15.9864 3.51271 18.4495 3.7553 20.6879 4.68248C22.9263 5.60965 24.8395 7.17976 26.1855 9.19426C27.5316 11.2088 28.25 13.5772 28.25 16C28.2463 19.2478 26.9545 22.3614 24.658 24.658C22.3615 26.9545 19.2478 28.2463 16 28.25V28.25Z" fill="#0F0F0F"/>
<path d="M22 9.25C21.8011 9.25 21.6103 9.32902 21.4697 9.46967C21.329 9.61032 21.25 9.80109 21.25 10V11.764C21.1008 11.5765 20.9416 11.3972 20.773 11.227C19.7529 10.2087 18.4335 9.54406 17.0081 9.33043C15.5827 9.11679 14.1264 9.36544 12.8526 10.0399C11.5788 10.7144 10.5547 11.7792 9.93023 13.0782C9.3058 14.3772 9.11398 15.8421 9.38288 17.2581C9.65178 18.6742 10.3673 19.9668 11.4244 20.9465C12.4816 21.9261 13.8248 22.5414 15.2571 22.702C16.6895 22.8625 18.1356 22.56 19.3834 21.8387C20.6313 21.1174 21.6152 20.0153 22.191 18.694L22.362 18.291C22.4041 18.1998 22.4275 18.1011 22.4308 18.0006C22.434 17.9002 22.4171 17.8002 22.3809 17.7065C22.3447 17.6127 22.2901 17.5272 22.2203 17.455C22.1504 17.3828 22.0668 17.3253 21.9743 17.2861C21.8818 17.2468 21.7824 17.2265 21.6819 17.2264C21.5815 17.2263 21.482 17.2464 21.3895 17.2854C21.2969 17.3245 21.2131 17.3818 21.1431 17.4539C21.0731 17.5259 21.0183 17.6113 20.982 17.705L20.813 18.101C20.3641 19.1298 19.5974 19.9878 18.6253 20.549C17.6532 21.1103 16.5269 21.3453 15.4115 21.2197C14.2961 21.0941 13.2502 20.6144 12.4273 19.851C11.6044 19.0876 11.0477 18.0806 10.8389 16.9777C10.6301 15.8749 10.7801 14.7341 11.267 13.7227C11.7539 12.7113 12.5519 11.8825 13.5442 11.3578C14.5365 10.8331 15.6708 10.6401 16.7808 10.8072C17.8908 10.9742 18.9181 11.4925 19.712 12.286C19.954 12.531 20.172 12.799 20.363 13.086C20.4089 13.1491 20.4646 13.2045 20.528 13.25H18C17.8011 13.25 17.6103 13.329 17.4697 13.4697C17.329 13.6103 17.25 13.8011 17.25 14C17.25 14.1989 17.329 14.3897 17.4697 14.5303C17.6103 14.671 17.8011 14.75 18 14.75H22C22.1989 14.75 22.3897 14.671 22.5303 14.5303C22.671 14.3897 22.75 14.1989 22.75 14V10C22.75 9.80109 22.671 9.61032 22.5303 9.46967C22.3897 9.32902 22.1989 9.25 22 9.25V9.25Z" fill="#0F0F0F"/>
</svg>
