<svg xmlns="http://www.w3.org/2000/svg" width="32" height="32" viewBox="0 0 32 32"><path d="M16 2C13.2311 2 10.5243 2.82109 8.22202 4.35943C5.91973 5.89777 4.12532 8.08427 3.06569 10.6424C2.00607 13.2006 1.72882 16.0155 2.26901 18.7313C2.80921 21.447 4.14258 23.9416 6.10051 25.8995C8.05845 27.8574 10.553 29.1908 13.2687 29.731C15.9845 30.2712 18.7994 29.9939 21.3576 28.9343C23.9157 27.8747 26.1022 26.0803 27.6406 23.778C29.1789 21.4757 30 18.7689 30 16C29.9958 12.2883 28.5194 8.72977 25.8948 6.10518C23.2702 3.48059 19.7117 2.00423 16 2ZM16 28C13.6266 28 11.3066 27.2962 9.33316 25.9776C7.35977 24.6591 5.8217 22.7849 4.91345 20.5922C4.0052 18.3995 3.76756 15.9867 4.23058 13.6589C4.69361 11.3311 5.83649 9.19295 7.51472 7.51472C9.19295 5.83649 11.3312 4.6936 13.6589 4.23058C15.9867 3.76755 18.3995 4.00519 20.5922 4.91345C22.7849 5.8217 24.6591 7.35977 25.9776 9.33316C27.2962 11.3065 28 13.6266 28 16C27.9966 19.1815 26.7312 22.2318 24.4815 24.4815C22.2318 26.7312 19.1815 27.9966 16 28Z M21.9999 9C21.7347 9 21.4803 9.10536 21.2928 9.29289C21.1053 9.48043 20.9999 9.73478 20.9999 10V11.105C20.9829 11.088 20.9669 11.068 20.9499 11.05C19.892 9.99423 18.5237 9.30517 17.0455 9.08387C15.5674 8.86257 14.0573 9.12067 12.7365 9.82032C11.4158 10.52 10.354 11.6244 9.70678 12.9715C9.05956 14.3187 8.861 15.8379 9.1402 17.3061C9.4194 18.7744 10.1617 20.1146 11.2582 21.1302C12.3547 22.1459 13.7478 22.7834 15.2331 22.9495C16.7185 23.1156 18.218 22.8013 19.5117 22.053C20.8054 21.3046 21.8253 20.1614 22.4219 18.791L22.5919 18.389C22.6912 18.1456 22.6907 17.873 22.5905 17.63C22.4903 17.387 22.2985 17.1932 22.0566 17.0906C21.8146 16.9879 21.542 16.9847 21.2976 17.0815C21.0533 17.1783 20.8569 17.3675 20.7509 17.608L20.5849 18C20.1577 18.9797 19.4279 19.7969 18.5024 20.3315C17.5769 20.8662 16.5045 21.0903 15.4424 20.971C14.3802 20.8517 13.3843 20.3952 12.6005 19.6685C11.8167 18.9418 11.2864 17.9831 11.0872 16.933C10.8881 15.8829 11.0306 14.7966 11.494 13.8334C11.9573 12.8703 12.717 12.0808 13.6617 11.5809C14.6064 11.0811 15.6864 10.897 16.7434 11.0557C17.8004 11.2145 18.7787 11.7077 19.5349 12.463C19.6929 12.632 19.8389 12.812 19.9719 13H17.9999C17.7347 13 17.4803 13.1054 17.2928 13.2929C17.1053 13.4804 16.9999 13.7348 16.9999 14C16.9999 14.2652 17.1053 14.5196 17.2928 14.7071C17.4803 14.8946 17.7347 15 17.9999 15H21.9999C22.1313 15.0003 22.2614 14.9746 22.3829 14.9244C22.5043 14.8743 22.6147 14.8006 22.7076 14.7077C22.8005 14.6148 22.8742 14.5044 22.9243 14.383C22.9745 14.2616 23.0002 14.1314 22.9999 14V10C22.9999 9.73478 22.8945 9.48043 22.707 9.29289C22.5195 9.10536 22.2651 9 21.9999 9Z"/></svg>