<svg xmlns="http://www.w3.org/2000/svg" width="32" height="32" viewBox="0 0 32 32"><path d="M23 4H22C21.7348 4 21.4804 4.10536 21.2929 4.29289C21.1054 4.48043 21 4.73478 21 5C21 5.26522 21.1054 5.51957 21.2929 5.70711C21.4804 5.89464 21.7348 6 22 6H23C23.7954 6.00079 24.558 6.31712 25.1204 6.87956C25.6829 7.44199 25.9992 8.20459 26 9V10C26 10.2652 26.1054 10.5196 26.2929 10.7071C26.4804 10.8946 26.7348 11 27 11C27.2652 11 27.5196 10.8946 27.7071 10.7071C27.8946 10.5196 28 10.2652 28 10V9C27.9984 7.6744 27.4711 6.40356 26.5338 5.46622C25.5964 4.52888 24.3256 4.00159 23 4ZM5 10.998C5.26522 10.998 5.51957 10.8926 5.70711 10.7051C5.89464 10.5176 6 10.2632 6 9.998V9C6.00079 8.20459 6.31712 7.44199 6.87956 6.87956C7.44199 6.31712 8.20459 6.00079 9 6H10C10.2652 6 10.5196 5.89464 10.7071 5.70711C10.8946 5.51957 11 5.26522 11 5C11 4.73478 10.8946 4.48043 10.7071 4.29289C10.5196 4.10536 10.2652 4 10 4H9C7.6744 4.00159 6.40356 4.52888 5.46622 5.46622C4.52888 6.40356 4.00159 7.6744 4 9V9.998C4 10.2632 4.10536 10.5176 4.29289 10.7051C4.48043 10.8926 4.73478 10.998 5 10.998ZM10 26H9C8.20459 25.9992 7.44199 25.6829 6.87956 25.1204C6.31712 24.558 6.00079 23.7954 6 23V22C6 21.7348 5.89464 21.4804 5.70711 21.2929C5.51957 21.1054 5.26522 21 5 21C4.73478 21 4.48043 21.1054 4.29289 21.2929C4.10536 21.4804 4 21.7348 4 22V23C4.00159 24.3256 4.52888 25.5964 5.46622 26.5338C6.40356 27.4711 7.6744 27.9984 9 28H10C10.2652 28 10.5196 27.8946 10.7071 27.7071C10.8946 27.5196 11 27.2652 11 27C11 26.7348 10.8946 26.4804 10.7071 26.2929C10.5196 26.1054 10.2652 26 10 26ZM27 21C26.7348 21 26.4804 21.1054 26.2929 21.2929C26.1054 21.4804 26 21.7348 26 22V23C25.9989 23.7953 25.6825 24.5578 25.1202 25.1202C24.5578 25.6825 23.7953 25.9989 23 26H22C21.7348 26 21.4804 26.1054 21.2929 26.2929C21.1054 26.4804 21 26.7348 21 27C21 27.2652 21.1054 27.5196 21.2929 27.7071C21.4804 27.8946 21.7348 28 22 28H23C24.3256 27.9984 25.5964 27.4711 26.5338 26.5338C27.4711 25.5964 27.9984 24.3256 28 23V22C28 21.7348 27.8946 21.4804 27.7071 21.2929C27.5196 21.1054 27.2652 21 27 21ZM27 15H5C4.73478 15 4.48043 15.1054 4.29289 15.2929C4.10536 15.4804 4 15.7348 4 16C4 16.2652 4.10536 16.5196 4.29289 16.7071C4.48043 16.8946 4.73478 17 5 17H27C27.2652 17 27.5196 16.8946 27.7071 16.7071C27.8946 16.5196 28 16.2652 28 16C28 15.7348 27.8946 15.4804 27.7071 15.2929C27.5196 15.1054 27.2652 15 27 15Z"/></svg>