<svg width="32" height="32" viewBox="0 0 32 32" fill="none" xmlns="http://www.w3.org/2000/svg">
<path d="M21.9999 29C22.6903 29 23.2499 28.4404 23.2499 27.75C23.2499 27.0597 22.6903 26.5 21.9999 26.5C21.3096 26.5 20.7499 27.0597 20.7499 27.75C20.7499 28.4404 21.3096 29 21.9999 29Z" fill="black"/>
<path d="M21.9996 15.9998C20.9391 16.0009 19.9223 16.4227 19.1724 17.1726C18.4225 17.9225 18.0007 18.9393 17.9996 19.9998C17.9996 20.265 18.105 20.5194 18.2925 20.7069C18.4801 20.8945 18.7344 20.9998 18.9996 20.9998C19.2649 20.9998 19.5192 20.8945 19.7067 20.7069C19.8943 20.5194 19.9996 20.265 19.9996 19.9998C19.9996 19.6043 20.1169 19.2176 20.3367 18.8887C20.5565 18.5598 20.8688 18.3034 21.2343 18.1521C21.5997 18.0007 22.0019 17.9611 22.3898 18.0383C22.7778 18.1154 23.1341 18.3059 23.4138 18.5856C23.6936 18.8653 23.884 19.2217 23.9612 19.6096C24.0384 19.9976 23.9988 20.3997 23.8474 20.7652C23.696 21.1306 23.4397 21.443 23.1108 21.6628C22.7819 21.8825 22.3952 21.9998 21.9996 21.9998C21.8683 21.9998 21.7382 22.0256 21.6169 22.0758C21.4955 22.126 21.3852 22.1997 21.2924 22.2926C21.1995 22.3854 21.1258 22.4957 21.0756 22.6171C21.0254 22.7384 20.9996 22.8685 20.9996 22.9998V23.9998C20.9996 24.265 21.105 24.5194 21.2925 24.7069C21.4801 24.8945 21.7344 24.9998 21.9996 24.9998C22.2649 24.9998 22.5192 24.8945 22.7067 24.7069C22.8943 24.5194 22.9996 24.265 22.9996 23.9998V23.8728C23.9423 23.6294 24.7639 23.0506 25.3103 22.2448C25.8567 21.4391 26.0905 20.4616 25.9678 19.4958C25.8451 18.53 25.3744 17.6421 24.6439 16.9985C23.9134 16.3549 22.9732 15.9998 21.9996 15.9998Z" fill="black"/>
<path d="M22.9996 4.99983V3.0008C22.9996 2.73558 22.8943 2.48123 22.7067 2.29369C22.5192 2.10616 22.2649 2.0008 21.9996 2.0008C21.7344 2.0008 21.4801 2.10616 21.2925 2.29369C21.105 2.48123 20.9996 2.73558 20.9996 3.0008V4.9998H10.9996V3.0008C10.9996 2.73558 10.8943 2.48123 10.7067 2.29369C10.5192 2.10616 10.2648 2.0008 9.99963 2.0008C9.73442 2.0008 9.48006 2.10616 9.29253 2.29369C9.10499 2.48123 8.99963 2.73558 8.99963 3.0008V4.9998C7.67403 5.00136 6.40317 5.52865 5.46582 6.46599C4.52848 7.40333 4.00119 8.6742 3.99963 9.9998V23.9998C4.00119 25.3254 4.52848 26.5963 5.46582 27.5336C6.40317 28.471 7.67403 28.9982 8.99963 28.9998H13.9996C14.2649 28.9998 14.5192 28.8944 14.7067 28.7069C14.8943 28.5194 14.9996 28.265 14.9996 27.9998C14.9996 27.7346 14.8943 27.4802 14.7067 27.2927C14.5192 27.1052 14.2649 26.9998 13.9996 26.9998H8.99963C8.20425 26.9989 7.44169 26.6826 6.87927 26.1202C6.31685 25.5577 6.0005 24.7952 5.99963 23.9998V13.0018H25.9996V14.9998C25.9996 15.265 26.105 15.5194 26.2925 15.7069C26.4801 15.8944 26.7344 15.9998 26.9996 15.9998C27.2649 15.9998 27.5192 15.8944 27.7067 15.7069C27.8943 15.5194 27.9996 15.265 27.9996 14.9998V9.9998C27.9981 8.6742 27.4708 7.40334 26.5334 6.46601C25.5961 5.52867 24.3252 5.00139 22.9996 4.99983ZM5.99963 11.0018V9.99983C6.0005 9.20445 6.31685 8.44189 6.87927 7.87947C7.44169 7.31705 8.20425 7.0007 8.99963 6.99983H22.9996C23.795 7.0007 24.5576 7.31705 25.12 7.87947C25.6824 8.44189 25.9988 9.20445 25.9996 9.99983V11.0018H5.99963Z" fill="black"/>
</svg>
