<svg width="32" height="32" viewBox="0 0 32 32" fill="none" xmlns="http://www.w3.org/2000/svg">
<path d="M26.4696 21.4696L20.9999 26.9393L17.5302 23.4696C17.3895 23.3289 17.1988 23.2499 16.9999 23.2499C16.801 23.2499 16.6102 23.3289 16.4696 23.4696C16.329 23.6102 16.25 23.8009 16.25 23.9998C16.25 24.1987 16.329 24.3895 16.4696 24.5301L20.4696 28.5301C20.5392 28.5998 20.6219 28.655 20.7129 28.6927C20.8039 28.7304 20.9014 28.7498 20.9999 28.7498C21.0984 28.7498 21.1959 28.7304 21.2869 28.6927C21.3779 28.655 21.4605 28.5998 21.5302 28.5301L27.5302 22.5301C27.5998 22.4605 27.655 22.3778 27.6927 22.2868C27.7304 22.1958 27.7498 22.0983 27.7498 21.9998C27.7498 21.9013 27.7304 21.8038 27.6927 21.7128C27.655 21.6219 27.5998 21.5392 27.5302 21.4696C27.4605 21.3999 27.3778 21.3447 27.2869 21.307C27.1959 21.2693 27.0984 21.2499 26.9999 21.2499C26.9014 21.2499 26.8039 21.2693 26.7129 21.307C26.6219 21.3447 26.5392 21.3999 26.4696 21.4696Z" fill="black"/>
<path d="M22.9999 5.24983H22.7499V3.0008C22.7499 2.80189 22.6709 2.61112 22.5302 2.47047C22.3896 2.32982 22.1988 2.2508 21.9999 2.2508C21.801 2.2508 21.6102 2.32982 21.4695 2.47047C21.3289 2.61112 21.2499 2.80189 21.2499 3.0008V5.2498H10.7499V3.0008C10.7499 2.80189 10.6709 2.61112 10.5302 2.47047C10.3896 2.32982 10.1988 2.2508 9.99988 2.2508C9.80097 2.2508 9.6102 2.32982 9.46955 2.47047C9.3289 2.61112 9.24988 2.80189 9.24988 3.0008V5.2498H8.99988C7.74054 5.25123 6.53319 5.75213 5.6427 6.64262C4.75221 7.53311 4.25131 8.74046 4.24988 9.9998V23.9998C4.25131 25.2591 4.75221 26.4665 5.6427 27.357C6.53319 28.2475 7.74054 28.7484 8.99988 28.7498H13.9999C14.1988 28.7498 14.3896 28.6708 14.5302 28.5301C14.6709 28.3895 14.7499 28.1987 14.7499 27.9998C14.7499 27.8009 14.6709 27.6101 14.5302 27.4695C14.3896 27.3288 14.1988 27.2498 13.9999 27.2498H8.99988C8.13823 27.2488 7.31216 26.9061 6.70288 26.2968C6.09361 25.6875 5.75088 24.8614 5.74988 23.9998V12.7518H26.2499V16.9998C26.2499 17.1987 26.3289 17.3895 26.4695 17.5301C26.6102 17.6708 26.801 17.7498 26.9999 17.7498C27.1988 17.7498 27.3896 17.6708 27.5302 17.5301C27.6709 17.3895 27.7499 17.1987 27.7499 16.9998V9.9998C27.7484 8.74047 27.2475 7.53312 26.357 6.64264C25.4666 5.75216 24.2592 5.25126 22.9999 5.24983ZM5.74988 11.2518V9.99983C5.75088 9.13818 6.09361 8.31211 6.70288 7.70284C7.31216 7.09356 8.13823 6.75083 8.99988 6.74983H22.9999C23.8615 6.75083 24.6876 7.09356 25.2969 7.70283C25.9062 8.31211 26.2489 9.13818 26.2499 9.99983V11.2518H5.74988Z" fill="black"/>
</svg>
