<svg xmlns="http://www.w3.org/2000/svg" width="32" height="32" viewBox="0 0 32 32"><path d="M27.7071 19.2931C27.5196 19.1056 27.2652 19.0003 27.0001 19.0003C26.7349 19.0003 26.4806 19.1056 26.2931 19.2931L23.0001 22.5861L19.7071 19.2931C19.6148 19.1976 19.5045 19.1214 19.3825 19.069C19.2605 19.0166 19.1293 18.989 18.9965 18.9878C18.8637 18.9867 18.732 19.012 18.6091 19.0623C18.4862 19.1125 18.3746 19.1868 18.2807 19.2807C18.1868 19.3746 18.1125 19.4862 18.0623 19.6091C18.012 19.732 17.9867 19.8637 17.9878 19.9965C17.989 20.1293 18.0166 20.2605 18.069 20.3825C18.1214 20.5045 18.1976 20.6148 18.2931 20.7071L21.5861 24.0001L18.2931 27.2931C18.1056 27.4806 18.0002 27.7349 18.0002 28.0001C18.0002 28.2653 18.1056 28.5196 18.2931 28.7071C18.4806 28.8946 18.7349 28.9999 19.0001 28.9999C19.2653 28.9999 19.5196 28.8946 19.7071 28.7071L23.0001 25.4141L26.2931 28.7071C26.4817 28.8892 26.7343 28.99 26.9965 28.9878C27.2587 28.9855 27.5095 28.8803 27.6949 28.6949C27.8803 28.5095 27.9855 28.2587 27.9878 27.9965C27.99 27.7343 27.8892 27.4817 27.7071 27.2931L24.4141 24.0001L27.7071 20.7071C27.8946 20.5196 27.9999 20.2652 27.9999 20.0001C27.9999 19.7349 27.8946 19.4806 27.7071 19.2931Z M23 5V3C23 2.73478 22.8946 2.48043 22.7071 2.29289C22.5196 2.10536 22.2652 2 22 2C21.7348 2 21.4804 2.10536 21.2929 2.29289C21.1054 2.48043 21 2.73478 21 3V5H11V3C11 2.73478 10.8946 2.48043 10.7071 2.29289C10.5196 2.10536 10.2652 2 10 2C9.73478 2 9.48043 2.10536 9.29289 2.29289C9.10536 2.48043 9 2.73478 9 3V5C7.67441 5.00159 6.40356 5.52888 5.46622 6.46622C4.52888 7.40356 4.00159 8.67441 4 10V24C4.00159 25.3256 4.52888 26.5964 5.46622 27.5338C6.40356 28.4711 7.67441 28.9984 9 29H15C15.2652 29 15.5196 28.8946 15.7071 28.7071C15.8946 28.5196 16 28.2652 16 28C16 27.7348 15.8946 27.4804 15.7071 27.2929C15.5196 27.1054 15.2652 27 15 27H9C8.20459 26.9992 7.44199 26.6829 6.87956 26.1204C6.31712 25.558 6.00079 24.7954 6 24V13.002H26V16C26 16.2652 26.1054 16.5196 26.2929 16.7071C26.4804 16.8946 26.7348 17 27 17C27.2652 17 27.5196 16.8946 27.7071 16.7071C27.8946 16.5196 28 16.2652 28 16V10C27.9987 8.67432 27.4715 7.40332 26.5341 6.46593C25.5967 5.52853 24.3257 5.00132 23 5ZM26 11.002H6V10C6.00079 9.20459 6.31712 8.44199 6.87956 7.87956C7.44199 7.31712 8.20459 7.00079 9 7H23C23.7954 7.00079 24.558 7.31712 25.1204 7.87956C25.6829 8.44199 25.9992 9.20459 26 10V11.002Z"/></svg>