<svg width="32" height="32" viewBox="0 0 32 32" fill="none" xmlns="http://www.w3.org/2000/svg">
<path d="M27.7073 19.2928C27.6144 19.1999 27.5042 19.1262 27.3829 19.076C27.2616 19.0257 27.1316 18.9998 27.0002 18.9998C26.8689 18.9998 26.7389 19.0257 26.6176 19.076C26.4963 19.1262 26.386 19.1999 26.2932 19.2928L23.0002 22.5858L19.7072 19.2928C19.5197 19.1053 19.2654 18.9999 19.0002 18.9999C18.735 18.9999 18.4807 19.1053 18.2932 19.2928C18.1056 19.4803 18.0003 19.7346 18.0003 19.9998C18.0003 20.265 18.1056 20.5193 18.2932 20.7069L21.5862 23.9999L18.2932 27.2929C18.2003 27.3857 18.1267 27.4959 18.0764 27.6173C18.0262 27.7386 18.0003 27.8686 18.0003 27.9999C18.0003 28.1312 18.0262 28.2612 18.0764 28.3825C18.1267 28.5038 18.2003 28.6141 18.2932 28.7069C18.386 28.7998 18.4962 28.8734 18.6175 28.9237C18.7389 28.9739 18.8689 28.9998 19.0002 28.9998C19.1315 28.9998 19.2615 28.9739 19.3828 28.9237C19.5041 28.8734 19.6144 28.7998 19.7072 28.7069L23.0002 25.4139L26.2932 28.7069C26.4807 28.8944 26.7351 28.9998 27.0002 28.9998C27.2654 28.9998 27.5198 28.8944 27.7073 28.7069C27.8948 28.5194 28.0001 28.2651 28.0001 27.9999C28.0001 27.7347 27.8948 27.4804 27.7073 27.2929L24.4143 23.9999L27.7073 20.7069C27.8002 20.614 27.8738 20.5038 27.9241 20.3825C27.9744 20.2612 28.0002 20.1311 28.0002 19.9998C28.0002 19.8685 27.9744 19.7385 27.9241 19.6172C27.8738 19.4959 27.8002 19.3856 27.7073 19.2928Z" fill="black"/>
<path d="M23.0002 4.99983V3.0008C23.0002 2.73558 22.8949 2.48123 22.7073 2.29369C22.5198 2.10616 22.2655 2.0008 22.0002 2.0008C21.735 2.0008 21.4807 2.10616 21.2931 2.29369C21.1056 2.48123 21.0002 2.73558 21.0002 3.0008V4.9998H11.0002V3.0008C11.0002 2.73558 10.8949 2.48123 10.7074 2.29369C10.5198 2.10616 10.2655 2.0008 10.0002 2.0008C9.73503 2.0008 9.48067 2.10616 9.29314 2.29369C9.1056 2.48123 9.00024 2.73558 9.00024 3.0008V4.9998C7.67464 5.00136 6.40378 5.52865 5.46643 6.46599C4.52909 7.40333 4.0018 8.6742 4.00024 9.9998V23.9998C4.0018 25.3254 4.52909 26.5963 5.46643 27.5336C6.40378 28.471 7.67464 28.9982 9.00024 28.9998H15.0002C15.2655 28.9998 15.5198 28.8944 15.7074 28.7069C15.8949 28.5194 16.0002 28.265 16.0002 27.9998C16.0002 27.7346 15.8949 27.4802 15.7074 27.2927C15.5198 27.1052 15.2655 26.9998 15.0002 26.9998H9.00024C8.20486 26.9989 7.4423 26.6826 6.87988 26.1202C6.31746 25.5577 6.00111 24.7952 6.00024 23.9998V13.0018H26.0002V15.9998C26.0002 16.265 26.1056 16.5194 26.2931 16.7069C26.4807 16.8944 26.735 16.9998 27.0002 16.9998C27.2655 16.9998 27.5198 16.8944 27.7073 16.7069C27.8949 16.5194 28.0002 16.265 28.0002 15.9998V9.9998C27.9987 8.6742 27.4714 7.40334 26.534 6.46601C25.5967 5.52867 24.3258 5.00139 23.0002 4.99983ZM26.0002 11.0018H6.00024V9.99983C6.00111 9.20445 6.31746 8.44189 6.87988 7.87947C7.4423 7.31705 8.20486 7.0007 9.00024 6.99983H23.0002C23.7956 7.0007 24.5582 7.31705 25.1206 7.87947C25.683 8.44189 25.9994 9.20445 26.0002 9.99983V11.0018Z" fill="black"/>
</svg>
