<svg width="32" height="32" viewBox="0 0 32 32" fill="none" xmlns="http://www.w3.org/2000/svg">
<path d="M21.9999 28.5C22.4142 28.5 22.7499 28.1642 22.7499 27.75C22.7499 27.3358 22.4142 27 21.9999 27C21.5857 27 21.2499 27.3358 21.2499 27.75C21.2499 28.1642 21.5857 28.5 21.9999 28.5Z" fill="black"/>
<path d="M21.9996 16.4998C21.0717 16.501 20.1821 16.8701 19.526 17.5262C18.8699 18.1823 18.5008 19.0719 18.4996 19.9998C18.4996 20.1324 18.5523 20.2596 18.6461 20.3534C18.7398 20.4472 18.867 20.4998 18.9996 20.4998C19.1322 20.4998 19.2594 20.4472 19.3532 20.3534C19.447 20.2596 19.4996 20.1324 19.4996 19.9998C19.4996 19.5054 19.6463 19.022 19.921 18.6109C20.1957 18.1998 20.5861 17.8793 21.0429 17.6901C21.4997 17.5009 22.0024 17.4514 22.4874 17.5479C22.9723 17.6443 23.4178 17.8824 23.7674 18.2321C24.117 18.5817 24.3551 19.0271 24.4516 19.5121C24.5481 19.9971 24.4986 20.4997 24.3093 20.9565C24.1201 21.4134 23.7997 21.8038 23.3886 22.0785C22.9774 22.3532 22.4941 22.4998 21.9996 22.4998C21.934 22.4998 21.8689 22.5127 21.8082 22.5378C21.7476 22.5629 21.6924 22.5998 21.646 22.6462C21.5996 22.6926 21.5627 22.7478 21.5376 22.8084C21.5125 22.8691 21.4996 22.9342 21.4996 22.9998V24.5C21.4996 24.6326 21.5523 24.7598 21.6461 24.8536C21.7398 24.9473 21.867 25 21.9996 25C22.1322 25 22.2594 24.9473 22.3532 24.8536C22.447 24.7598 22.4996 24.6326 22.4996 24.5V23.4647C23.3754 23.3382 24.1708 22.8846 24.7258 22.1954C25.2807 21.5061 25.554 20.6322 25.4906 19.7496C25.4272 18.867 25.0319 18.0411 24.3842 17.4381C23.7365 16.8352 22.8845 16.4999 21.9996 16.4998Z" fill="black"/>
<path d="M22.9996 5.49983H22.4996V3.0008C22.4996 2.86819 22.447 2.74101 22.3532 2.64725C22.2594 2.55348 22.1322 2.5008 21.9996 2.5008C21.867 2.5008 21.7398 2.55348 21.6461 2.64725C21.5523 2.74101 21.4996 2.86819 21.4996 3.0008V5.4998H10.4996V3.0008C10.4996 2.86819 10.447 2.74101 10.3532 2.64725C10.2594 2.55348 10.1322 2.5008 9.99963 2.5008C9.86702 2.5008 9.73985 2.55348 9.64608 2.64725C9.55231 2.74101 9.49963 2.86819 9.49963 3.0008V5.4998H8.99963C7.80656 5.5011 6.66272 5.97563 5.81909 6.81926C4.97546 7.66289 4.50094 8.80673 4.49963 9.9998V23.9998C4.50094 25.1929 4.97546 26.3367 5.81909 27.1803C6.66273 28.024 7.80656 28.4985 8.99963 28.4998H13.9996C14.1322 28.4998 14.2594 28.4471 14.3532 28.3534C14.447 28.2596 14.4996 28.1324 14.4996 27.9998C14.4996 27.8672 14.447 27.74 14.3532 27.6462C14.2594 27.5525 14.1322 27.4998 13.9996 27.4998H8.99963C8.07172 27.4987 7.18214 27.1296 6.526 26.4734C5.86987 25.8173 5.50076 24.9277 5.49963 23.9998V12.5018H26.4566C26.4719 12.5018 26.4847 12.4945 26.4996 12.4931V14.9999C26.4996 15.1325 26.5523 15.2596 26.6461 15.3534C26.7398 15.4472 26.867 15.4999 26.9996 15.4999C27.1322 15.4999 27.2594 15.4472 27.3532 15.3534C27.447 15.2596 27.4996 15.1325 27.4996 14.9999V9.99985C27.4983 8.80677 27.0238 7.66293 26.1802 6.81929C25.3366 5.97566 24.1927 5.50113 22.9996 5.49983ZM26.4566 11.5018H5.49963V9.99983C5.50076 9.07192 5.86987 8.18233 6.526 7.5262C7.18214 6.87006 8.07172 6.50095 8.99963 6.49983H22.9996C23.9275 6.50095 24.8171 6.87006 25.4733 7.5262C26.1294 8.18233 26.4985 9.07192 26.4996 9.99983V11.5105C26.4847 11.5091 26.4719 11.5018 26.4566 11.5018Z" fill="black"/>
</svg>
