<svg xmlns="http://www.w3.org/2000/svg" width="32" height="32" viewBox="0 0 32 32"><path d="M26.712 25.282C25.9992 25.343 25.2829 25.2154 24.635 24.912C23.8787 24.5509 23.2496 23.969 22.8306 23.2432C22.4116 22.5173 22.2224 21.6815 22.288 20.846C22.348 20.133 22.596 19.448 23.008 18.862C23.1488 18.6612 23.2236 18.4216 23.2221 18.1764C23.2207 17.9312 23.143 17.6925 22.9998 17.4934C22.8566 17.2943 22.6551 17.1447 22.4231 17.0652C22.1911 16.9858 21.9402 16.9804 21.705 17.05C20.5096 17.4016 19.4505 18.1108 18.6702 19.0823C17.8899 20.0538 17.4259 21.241 17.3405 22.4841C17.2551 23.7272 17.5525 24.9667 18.1926 26.0358C18.8327 27.1048 19.7849 27.9522 20.921 28.464C21.711 28.814 22.564 28.996 23.427 28.997C24.9932 28.9975 26.4995 28.3948 27.633 27.314C27.8101 27.1448 27.9302 26.9248 27.9768 26.6844C28.0234 26.444 27.9942 26.195 27.8932 25.9719C27.7922 25.7488 27.6244 25.5626 27.4129 25.439C27.2015 25.3154 26.957 25.2606 26.713 25.282H26.712ZM21.732 26.636C20.9517 26.2826 20.3018 25.6936 19.8736 24.9517C19.4455 24.2098 19.2606 23.3524 19.345 22.5C19.4342 21.6422 19.7882 20.8334 20.358 20.186C20.1223 21.5842 20.3811 23.0209 21.0899 24.249C21.7987 25.477 22.9133 26.4197 24.242 26.915C23.3966 27.0845 22.5193 26.9867 21.732 26.635V26.636Z M23 5V3C23 2.73478 22.8946 2.48043 22.7071 2.29289C22.5196 2.10536 22.2652 2 22 2C21.7348 2 21.4804 2.10536 21.2929 2.29289C21.1054 2.48043 21 2.73478 21 3V5H11V3C11 2.73478 10.8946 2.48043 10.7071 2.29289C10.5196 2.10536 10.2652 2 10 2C9.73478 2 9.48043 2.10536 9.29289 2.29289C9.10536 2.48043 9 2.73478 9 3V5C7.67441 5.00159 6.40356 5.52888 5.46622 6.46622C4.52888 7.40356 4.00159 8.67441 4 10V24C4.00159 25.3256 4.52888 26.5964 5.46622 27.5338C6.40356 28.4711 7.67441 28.9984 9 29H14C14.2652 29 14.5196 28.8946 14.7071 28.7071C14.8946 28.5196 15 28.2652 15 28C15 27.7348 14.8946 27.4804 14.7071 27.2929C14.5196 27.1054 14.2652 27 14 27H9C8.20459 26.9992 7.44199 26.6829 6.87956 26.1204C6.31712 25.558 6.00079 24.7954 6 24V13.002H26V17C26 17.2652 26.1054 17.5196 26.2929 17.7071C26.4804 17.8946 26.7348 18 27 18C27.2652 18 27.5196 17.8946 27.7071 17.7071C27.8946 17.5196 28 17.2652 28 17V10C27.9984 8.67441 27.4711 7.40356 26.5338 6.46622C25.5964 5.52888 24.3256 5.00159 23 5ZM26 11.002H6V10C6.00079 9.20459 6.31712 8.44199 6.87956 7.87956C7.44199 7.31712 8.20459 7.00079 9 7H23C23.7954 7.00079 24.558 7.31712 25.1204 7.87956C25.6829 8.44199 25.9992 9.20459 26 10V11.002Z"/></svg>