<svg xmlns="http://www.w3.org/2000/svg" width="32" height="32" viewBox="0 0 32 32"><path d="M26.2931 21.2931L21.0001 26.5861L17.7071 23.2931C17.6148 23.1976 17.5045 23.1214 17.3825 23.069C17.2605 23.0166 17.1293 22.989 16.9965 22.9878C16.8637 22.9867 16.732 23.012 16.6091 23.0623C16.4862 23.1125 16.3746 23.1868 16.2807 23.2807C16.1868 23.3746 16.1125 23.4862 16.0623 23.6091C16.012 23.732 15.9867 23.8637 15.9878 23.9965C15.989 24.1293 16.0166 24.2605 16.069 24.3825C16.1214 24.5045 16.1976 24.6148 16.2931 24.7071L20.2931 28.7071C20.4806 28.8946 20.7349 28.9999 21.0001 28.9999C21.2652 28.9999 21.5196 28.8946 21.7071 28.7071L27.7071 22.7071C27.8026 22.6148 27.8788 22.5045 27.9312 22.3825C27.9836 22.2605 28.0112 22.1293 28.0123 21.9965C28.0135 21.8637 27.9882 21.732 27.9379 21.6091C27.8876 21.4862 27.8134 21.3746 27.7195 21.2807C27.6256 21.1868 27.5139 21.1125 27.391 21.0623C27.2681 21.012 27.1365 20.9867 27.0037 20.9878C26.8709 20.989 26.7397 21.0166 26.6177 21.069C26.4957 21.1214 26.3853 21.1976 26.2931 21.2931Z M23 5V3C23 2.73478 22.8946 2.48043 22.7071 2.29289C22.5196 2.10536 22.2652 2 22 2C21.7348 2 21.4804 2.10536 21.2929 2.29289C21.1054 2.48043 21 2.73478 21 3V5H11V3C11 2.73478 10.8946 2.48043 10.7071 2.29289C10.5196 2.10536 10.2652 2 10 2C9.73478 2 9.48043 2.10536 9.29289 2.29289C9.10536 2.48043 9 2.73478 9 3V5C7.67441 5.00159 6.40356 5.52888 5.46622 6.46622C4.52888 7.40356 4.00159 8.67441 4 10V24C4.00159 25.3256 4.52888 26.5964 5.46622 27.5338C6.40356 28.4711 7.67441 28.9984 9 29H14C14.2652 29 14.5196 28.8946 14.7071 28.7071C14.8946 28.5196 15 28.2652 15 28C15 27.7348 14.8946 27.4804 14.7071 27.2929C14.5196 27.1054 14.2652 27 14 27H9C8.20459 26.9992 7.44199 26.6829 6.87956 26.1204C6.31712 25.558 6.00079 24.7954 6 24V13.002H26V17C26 17.2652 26.1054 17.5196 26.2929 17.7071C26.4804 17.8946 26.7348 18 27 18C27.2652 18 27.5196 17.8946 27.7071 17.7071C27.8946 17.5196 28 17.2652 28 17V10C27.9984 8.67441 27.4711 7.40356 26.5338 6.46622C25.5964 5.52888 24.3256 5.00159 23 5ZM6 11.002V10C6.00079 9.20459 6.31712 8.44199 6.87956 7.87956C7.44199 7.31712 8.20459 7.00079 9 7H23C23.7954 7.00079 24.558 7.31712 25.1204 7.87956C25.6829 8.44199 25.9992 9.20459 26 10V11.002H6Z"/></svg>