<svg xmlns="http://www.w3.org/2000/svg" width="32" height="32" viewBox="0 0 32 32"><path d="M26.7548 25.78C25.8858 25.8529 25.0139 25.677 24.2411 25.2728C23.4683 24.8687 22.8264 24.2531 22.3904 23.4978C21.9544 22.7425 21.7423 21.8787 21.7788 21.0074C21.8154 20.1361 22.0991 19.2931 22.5968 18.577C22.6576 18.4901 22.6974 18.3903 22.7132 18.2854C22.7289 18.1805 22.7202 18.0735 22.6876 17.9725C22.6551 17.8716 22.5996 17.7796 22.5256 17.7037C22.4515 17.6278 22.3609 17.57 22.2608 17.535C22.127 17.4892 21.982 17.4871 21.8468 17.529C21.0342 17.7681 20.2863 18.1886 19.6597 18.7587C19.0331 19.3288 18.5441 20.0337 18.2295 20.8203C17.9149 21.6068 17.7829 22.4545 17.8434 23.2995C17.904 24.1445 18.1555 24.9647 18.5791 25.6983C19.0027 26.432 19.5872 27.0599 20.2887 27.5348C20.9902 28.0098 21.7904 28.3193 22.6288 28.4401C23.4673 28.5609 24.3223 28.4898 25.1293 28.2322C25.9364 27.9746 26.6744 27.5372 27.2878 26.953C27.3908 26.8566 27.4608 26.7303 27.4881 26.592C27.5153 26.4536 27.4985 26.3102 27.4398 26.182C27.3815 26.0522 27.2842 25.9438 27.1614 25.8718C27.0387 25.7997 26.8966 25.7677 26.7548 25.78ZM21.5298 27.093C20.7439 26.7371 20.0738 26.1673 19.5962 25.4488C19.1186 24.7302 18.8528 23.8918 18.829 23.0293C18.8052 22.1668 19.0245 21.315 19.4617 20.5712C19.899 19.8275 20.5367 19.2216 21.3018 18.823C20.9195 19.6398 20.7401 20.5369 20.7788 21.438C20.8175 22.339 21.0731 23.2174 21.5241 23.9985C21.975 24.7795 22.6078 25.4402 23.3687 25.9243C24.1297 26.4084 24.9963 26.7016 25.8948 26.779C25.2498 27.1877 24.5135 27.4303 23.7518 27.4851C22.9902 27.5399 22.2268 27.4051 21.5298 27.093Z M23 5.5H22.5V3C22.5 2.86739 22.4473 2.74021 22.3536 2.64645C22.2598 2.55268 22.1326 2.5 22 2.5C21.8674 2.5 21.7402 2.55268 21.6464 2.64645C21.5527 2.74021 21.5 2.86739 21.5 3V5.5H10.5V3C10.5 2.86739 10.4473 2.74021 10.3536 2.64645C10.2598 2.55268 10.1326 2.5 10 2.5C9.86739 2.5 9.74021 2.55268 9.64645 2.64645C9.55268 2.74021 9.5 2.86739 9.5 3V5.5H9C7.80693 5.50132 6.66311 5.97585 5.81948 6.81948C4.97585 7.66311 4.50132 8.80693 4.5 10V24C4.50132 25.1931 4.97585 26.3369 5.81948 27.1805C6.66311 28.0241 7.80693 28.4987 9 28.5H14C14.1326 28.5 14.2598 28.4473 14.3536 28.3536C14.4473 28.2598 14.5 28.1326 14.5 28C14.5 27.8674 14.4473 27.7402 14.3536 27.6464C14.2598 27.5527 14.1326 27.5 14 27.5H9C8.07207 27.4989 7.18244 27.1299 6.5263 26.4737C5.87015 25.8176 5.50106 24.9279 5.5 24V12.502H26.456C26.472 12.502 26.486 12.494 26.5 12.493V17C26.5 17.1326 26.5527 17.2598 26.6464 17.3536C26.7402 17.4473 26.8674 17.5 27 17.5C27.1326 17.5 27.2598 17.4473 27.3536 17.3536C27.4473 17.2598 27.5 17.1326 27.5 17V10C27.4987 8.80693 27.0241 7.66311 26.1805 6.81948C25.3369 5.97585 24.1931 5.50132 23 5.5ZM26.456 11.502H5.5V10C5.50106 9.07207 5.87015 8.18244 6.5263 7.5263C7.18244 6.87015 8.07207 6.50106 9 6.5H23C23.9279 6.50106 24.8176 6.87015 25.4737 7.5263C26.1299 8.18244 26.4989 9.07207 26.5 10V11.51C26.485 11.51 26.472 11.502 26.456 11.502Z"/></svg>