<svg width="32" height="32" viewBox="0 0 32 32" fill="none" xmlns="http://www.w3.org/2000/svg">
<path d="M15.9935 22.463C19.5834 22.463 22.4935 19.5529 22.4935 15.963C22.4935 12.3732 19.5834 9.46303 15.9935 9.46303C12.4037 9.46303 9.49354 12.3732 9.49354 15.963C9.49354 19.5529 12.4037 22.463 15.9935 22.463Z" fill="black"/>
<path d="M24.308 3.00014H22.0004C21.7351 3.00014 21.4808 3.10549 21.2933 3.29303C21.1057 3.48057 21.0004 3.73492 21.0004 4.00014C21.0004 4.26535 21.1057 4.51971 21.2933 4.70724C21.4808 4.89478 21.7351 5.00014 22.0004 5.00014H24.308C25.0218 5.00101 25.7061 5.28495 26.2108 5.78968C26.7155 6.29442 26.9995 6.97873 27.0004 7.69253V10.0001C27.0004 10.2654 27.1057 10.5197 27.2933 10.7072C27.4808 10.8948 27.7351 11.0001 28.0004 11.0001C28.2656 11.0001 28.5199 10.8948 28.7075 10.7072C28.895 10.5197 29.0004 10.2654 29.0004 10.0001V7.69253C28.9988 6.44851 28.5039 5.25589 27.6243 4.37623C26.7446 3.49658 25.552 3.0017 24.308 3.00014Z" fill="black"/>
<path d="M4.00037 11.0001C4.13171 11.0002 4.26178 10.9744 4.38314 10.9242C4.5045 10.8739 4.61477 10.8003 4.70764 10.7074C4.80052 10.6145 4.87417 10.5043 4.9244 10.3829C4.97463 10.2616 5.00044 10.1315 5.00037 10.0001V7.69253C5.00125 6.97873 5.28519 6.29442 5.78992 5.78969C6.29465 5.28496 6.97896 5.00102 7.69276 5.00014H10.0004C10.2656 5.00014 10.5199 4.89478 10.7075 4.70724C10.895 4.51971 11.0004 4.26535 11.0004 4.00014C11.0004 3.73492 10.895 3.48057 10.7075 3.29303C10.5199 3.10549 10.2656 3.00014 10.0004 3.00014H7.69276C6.44874 3.0017 5.25612 3.49658 4.37647 4.37624C3.49681 5.25589 3.00193 6.44851 3.00037 7.69253V10.0001C3.00029 10.1315 3.0261 10.2616 3.07633 10.3829C3.12656 10.5043 3.20022 10.6145 3.29309 10.7074C3.38596 10.8003 3.49623 10.8739 3.61759 10.9242C3.73895 10.9744 3.86902 11.0002 4.00037 11.0001Z" fill="black"/>
<path d="M10.0004 27.0001H7.69276C6.97896 26.9993 6.29465 26.7153 5.78992 26.2106C5.28519 25.7059 5.00125 25.0216 5.00037 24.3078V22.0001C5.00037 21.7349 4.89501 21.4806 4.70747 21.293C4.51994 21.1055 4.26558 21.0001 4.00037 21.0001C3.73515 21.0001 3.4808 21.1055 3.29326 21.293C3.10572 21.4806 3.00037 21.7349 3.00037 22.0001V24.3078C3.00194 25.5518 3.49682 26.7444 4.37647 27.624C5.25612 28.5037 6.44874 28.9986 7.69276 29.0001H10.0004C10.2656 29.0001 10.5199 28.8948 10.7075 28.7072C10.895 28.5197 11.0004 28.2654 11.0004 28.0001C11.0004 27.7349 10.895 27.4806 10.7075 27.293C10.5199 27.1055 10.2656 27.0001 10.0004 27.0001Z" fill="black"/>
<path d="M28.0004 21.0001C27.869 21.0001 27.739 21.0259 27.6176 21.0761C27.4962 21.1263 27.386 21.2 27.2931 21.2929C27.2002 21.3857 27.1266 21.496 27.0763 21.6174C27.0261 21.7387 27.0003 21.8688 27.0004 22.0001V24.3078C26.9995 25.0216 26.7155 25.7059 26.2108 26.2106C25.7061 26.7153 25.0218 26.9993 24.308 27.0001H22.0004C21.7351 27.0001 21.4808 27.1055 21.2933 27.293C21.1057 27.4806 21.0004 27.7349 21.0004 28.0001C21.0004 28.2654 21.1057 28.5197 21.2933 28.7072C21.4808 28.8948 21.7351 29.0001 22.0004 29.0001H24.308C25.552 28.9986 26.7446 28.5037 27.6242 27.624C28.5039 26.7444 28.9988 25.5518 29.0003 24.3078V22.0001C29.0004 21.8688 28.9746 21.7387 28.9244 21.6174C28.8742 21.496 28.8005 21.3857 28.7076 21.2929C28.6148 21.2 28.5045 21.1263 28.3831 21.0761C28.2618 21.0259 28.1317 21.0001 28.0004 21.0001Z" fill="black"/>
</svg>
