<svg xmlns="http://www.w3.org/2000/svg" width="32" height="32" viewBox="0 0 32 32"><path d="M15.993 9.463C14.7074 9.463 13.4507 9.84422 12.3818 10.5584C11.3129 11.2727 10.4798 12.2878 9.98778 13.4756C9.49581 14.6633 9.36709 15.9702 9.6179 17.2311C9.8687 18.492 10.4878 19.6502 11.3968 20.5592C12.3058 21.4682 13.464 22.0873 14.7249 22.3381C15.9858 22.5889 17.2927 22.4602 18.4804 21.9682C19.6682 21.4762 20.6833 20.6431 21.3976 19.5742C22.1118 18.5053 22.493 17.2486 22.493 15.963C22.4909 14.2397 21.8054 12.5877 20.5869 11.3691C19.3683 10.1506 17.7163 9.46512 15.993 9.463ZM15.993 21.463C14.9052 21.463 13.8418 21.1404 12.9374 20.5361C12.0329 19.9317 11.3279 19.0728 10.9117 18.0678C10.4954 17.0628 10.3865 15.9569 10.5987 14.89C10.8109 13.8231 11.3347 12.8431 12.1039 12.0739C12.8731 11.3047 13.8531 10.7809 14.92 10.5687C15.9869 10.3565 17.0928 10.4654 18.0978 10.8817C19.1028 11.2979 19.9617 12.0029 20.5661 12.9074C21.1704 13.8118 21.493 14.8752 21.493 15.963C21.4911 17.4211 20.9111 18.819 19.88 19.85C18.849 20.8811 17.4511 21.4611 15.993 21.463ZM24.307 3.5H22C21.8674 3.5 21.7402 3.55268 21.6464 3.64645C21.5527 3.74021 21.5 3.86739 21.5 4C21.5 4.13261 21.5527 4.25979 21.6464 4.35355C21.7402 4.44732 21.8674 4.5 22 4.5H24.307C25.1535 4.50053 25.9652 4.83697 26.5639 5.43544C27.1625 6.03391 27.4992 6.8455 27.5 7.692V10C27.5 10.1326 27.5527 10.2598 27.6464 10.3536C27.7402 10.4473 27.8674 10.5 28 10.5C28.1326 10.5 28.2598 10.4473 28.3536 10.3536C28.4473 10.2598 28.5 10.1326 28.5 10V7.692C28.4984 6.58053 28.0561 5.51505 27.2701 4.72921C26.4841 3.94337 25.4185 3.50132 24.307 3.5ZM4 10.5C4.13261 10.5 4.25979 10.4473 4.35355 10.3536C4.44732 10.2598 4.5 10.1326 4.5 10V7.692C4.50079 6.84567 4.83735 6.03424 5.43579 5.43579C6.03424 4.83735 6.84567 4.50079 7.692 4.5H10C10.1326 4.5 10.2598 4.44732 10.3536 4.35355C10.4473 4.25979 10.5 4.13261 10.5 4C10.5 3.86739 10.4473 3.74021 10.3536 3.64645C10.2598 3.55268 10.1326 3.5 10 3.5H7.692C6.58062 3.50132 5.51514 3.9434 4.72927 4.72927C3.9434 5.51514 3.50132 6.58062 3.5 7.692V10C3.5 10.1326 3.55268 10.2598 3.64645 10.3536C3.74021 10.4473 3.86739 10.5 4 10.5ZM10 27.5H7.692C6.84567 27.4992 6.03424 27.1627 5.43579 26.5642C4.83735 25.9658 4.50079 25.1543 4.5 24.308V22C4.5 21.8674 4.44732 21.7402 4.35355 21.6464C4.25979 21.5527 4.13261 21.5 4 21.5C3.86739 21.5 3.74021 21.5527 3.64645 21.6464C3.55268 21.7402 3.5 21.8674 3.5 22V24.308C3.50132 25.4194 3.9434 26.4849 4.72927 27.2707C5.51514 28.0566 6.58062 28.4987 7.692 28.5H10C10.1326 28.5 10.2598 28.4473 10.3536 28.3536C10.4473 28.2598 10.5 28.1326 10.5 28C10.5 27.8674 10.4473 27.7402 10.3536 27.6464C10.2598 27.5527 10.1326 27.5 10 27.5ZM28 21.5C27.9343 21.4997 27.8691 21.5125 27.8083 21.5375C27.7476 21.5626 27.6923 21.5994 27.6459 21.6459C27.5994 21.6923 27.5626 21.7476 27.5375 21.8083C27.5125 21.8691 27.4997 21.9343 27.5 22V24.308C27.4992 25.1545 27.1625 25.9661 26.5639 26.5646C25.9652 27.163 25.1535 27.4995 24.307 27.5H22C21.8674 27.5 21.7402 27.5527 21.6464 27.6464C21.5527 27.7402 21.5 27.8674 21.5 28C21.5 28.1326 21.5527 28.2598 21.6464 28.3536C21.7402 28.4473 21.8674 28.5 22 28.5H24.307C25.4185 28.4987 26.4841 28.0566 27.2701 27.2708C28.0561 26.485 28.4984 25.4195 28.5 24.308V22C28.5 21.8674 28.4473 21.7402 28.3536 21.6464C28.2598 21.5527 28.1326 21.5 28 21.5Z"/></svg>