<svg xmlns="http://www.w3.org/2000/svg" width="32" height="32" viewBox="0 0 32 32"><path d="M15.993 8.963C14.6085 8.963 13.2552 9.37354 12.104 10.1427C10.9529 10.9119 10.0557 12.0051 9.52584 13.2842C8.99603 14.5633 8.85741 15.9708 9.1275 17.3286C9.3976 18.6865 10.0643 19.9338 11.0433 20.9127C12.0222 21.8917 13.2695 22.5584 14.6274 22.8285C15.9852 23.0986 17.3927 22.96 18.6718 22.4302C19.9509 21.9003 21.0441 21.0031 21.8133 19.852C22.5825 18.7008 22.993 17.3475 22.993 15.963C22.9909 14.1071 22.2527 12.3279 20.9404 11.0156C19.6281 9.70329 17.8489 8.96512 15.993 8.963ZM15.993 20.963C15.0041 20.963 14.0374 20.6698 13.2151 20.1203C12.3929 19.5709 11.752 18.79 11.3736 17.8764C10.9952 16.9628 10.8961 15.9575 11.0891 14.9875C11.282 14.0176 11.7582 13.1267 12.4575 12.4275C13.1567 11.7282 14.0476 11.252 15.0175 11.0591C15.9875 10.8661 16.9928 10.9652 17.9064 11.3436C18.82 11.722 19.6009 12.3629 20.1503 13.1851C20.6998 14.0074 20.993 14.9741 20.993 15.963C20.9914 17.2886 20.4641 18.5594 19.5268 19.4968C18.5894 20.4341 17.3186 20.9614 15.993 20.963ZM24.307 3H22C21.7348 3 21.4804 3.10536 21.2929 3.29289C21.1054 3.48043 21 3.73478 21 4C21 4.26522 21.1054 4.51957 21.2929 4.70711C21.4804 4.89464 21.7348 5 22 5H24.307C25.021 5.00079 25.7055 5.28478 26.2104 5.78964C26.7152 6.2945 26.9992 6.97902 27 7.693V10C27 10.2652 27.1054 10.5196 27.2929 10.7071C27.4804 10.8946 27.7348 11 28 11C28.2652 11 28.5196 10.8946 28.7071 10.7071C28.8946 10.5196 29 10.2652 29 10V7.693C28.9987 6.44875 28.5038 5.25583 27.624 4.37601C26.7442 3.49619 25.5513 3.00132 24.307 3ZM4 11C4.26522 11 4.51957 10.8946 4.70711 10.7071C4.89464 10.5196 5 10.2652 5 10V7.693C5.00079 6.97919 5.28464 6.29483 5.78928 5.78999C6.29393 5.28516 6.97819 5.00106 7.692 5H10C10.2652 5 10.5196 4.89464 10.7071 4.70711C10.8946 4.51957 11 4.26522 11 4C11 3.73478 10.8946 3.48043 10.7071 3.29289C10.5196 3.10536 10.2652 3 10 3H7.692C6.44792 3.00159 5.25526 3.49657 4.37566 4.37636C3.49605 5.25616 3.00132 6.44892 3 7.693V10C3 10.2652 3.10536 10.5196 3.29289 10.7071C3.48043 10.8946 3.73478 11 4 11ZM10 27H7.692C6.97836 26.9989 6.29426 26.715 5.78964 26.2104C5.28502 25.7057 5.00106 25.0216 5 24.308V22C5 21.7348 4.89464 21.4804 4.70711 21.2929C4.51957 21.1054 4.26522 21 4 21C3.73478 21 3.48043 21.1054 3.29289 21.2929C3.10536 21.4804 3 21.7348 3 22V24.308C3.00159 25.5519 3.49643 26.7444 4.37601 27.624C5.25559 28.5036 6.44809 28.9984 7.692 29H10C10.2652 29 10.5196 28.8946 10.7071 28.7071C10.8946 28.5196 11 28.2652 11 28C11 27.7348 10.8946 27.4804 10.7071 27.2929C10.5196 27.1054 10.2652 27 10 27ZM28 21C27.7348 21 27.4804 21.1054 27.2929 21.2929C27.1054 21.4804 27 21.7348 27 22V24.308C26.9989 25.0218 26.7148 25.7061 26.21 26.2107C25.7052 26.7154 25.0208 26.9992 24.307 27H22C21.7348 27 21.4804 27.1054 21.2929 27.2929C21.1054 27.4804 21 27.7348 21 28C21 28.2652 21.1054 28.5196 21.2929 28.7071C21.4804 28.8946 21.7348 29 22 29H24.307C25.5511 28.9987 26.7438 28.5039 27.6236 27.6243C28.5034 26.7447 28.9984 25.5521 29 24.308V22C28.9995 21.7349 28.8939 21.4809 28.7065 21.2935C28.5191 21.1061 28.2651 21.0005 28 21Z"/></svg>