<svg xmlns="http://www.w3.org/2000/svg" width="32" height="32" viewBox="0 0 32 32"><path d="M28.9999 16.25C28.801 16.25 28.6103 16.329 28.4696 16.4697C28.3289 16.6103 28.2499 16.8011 28.2499 17V21.555C28.3043 22.4749 27.9934 23.379 27.3848 24.0709C26.7763 24.7628 25.9192 25.1865 24.9999 25.25H6.99993C6.08067 25.1865 5.2236 24.7628 4.61503 24.0709C4.00646 23.379 3.69557 22.4749 3.74993 21.555V10.444C3.69611 9.52438 4.00722 8.62065 4.61571 7.92903C5.2242 7.23741 6.08095 6.81374 6.99993 6.75H19.0029C19.2018 6.75 19.3926 6.67098 19.5333 6.53033C19.6739 6.38968 19.7529 6.19891 19.7529 6C19.7529 5.80109 19.6739 5.61032 19.5333 5.46967C19.3926 5.32902 19.2018 5.25 19.0029 5.25H6.99993C5.68277 5.31305 4.44402 5.8946 3.5541 6.8677C2.66417 7.84081 2.19534 9.12646 2.24993 10.444V21.555C2.19507 22.8727 2.66378 24.1586 3.55373 25.1319C4.44369 26.1053 5.68258 26.687 6.99993 26.75H24.9999C26.3174 26.6872 27.5564 26.1056 28.4464 25.1322C29.3364 24.1588 29.8051 22.8728 29.7499 21.555V17C29.7499 16.8011 29.6709 16.6103 29.5303 16.4697C29.3896 16.329 29.1988 16.25 28.9999 16.25Z M21 10.75H24.25V14C24.25 14.1989 24.329 14.3897 24.4697 14.5303C24.6103 14.671 24.8011 14.75 25 14.75C25.1989 14.75 25.3897 14.671 25.5303 14.5303C25.671 14.3897 25.75 14.1989 25.75 14V10.75H29C29.1989 10.75 29.3897 10.671 29.5303 10.5303C29.671 10.3897 29.75 10.1989 29.75 10C29.75 9.80109 29.671 9.61032 29.5303 9.46967C29.3897 9.32902 29.1989 9.25 29 9.25H25.75V6C25.75 5.80109 25.671 5.61032 25.5303 5.46967C25.3897 5.32902 25.1989 5.25 25 5.25C24.8011 5.25 24.6103 5.32902 24.4697 5.46967C24.329 5.61032 24.25 5.80109 24.25 6V9.25H21C20.8011 9.25 20.6103 9.32902 20.4697 9.46967C20.329 9.61032 20.25 9.80109 20.25 10C20.25 10.1989 20.329 10.3897 20.4697 10.5303C20.6103 10.671 20.8011 10.75 21 10.75Z"/></svg>