<svg xmlns="http://www.w3.org/2000/svg" width="32" height="32" viewBox="0 0 32 32"><path d="M15.993 22.463C17.7169 22.463 19.3702 21.7782 20.5892 20.5592C21.8082 19.3402 22.493 17.6869 22.493 15.963C22.493 14.2391 21.8082 12.5858 20.5892 11.3668C19.3702 10.1478 17.7169 9.463 15.993 9.463C14.2691 9.463 12.6158 10.1478 11.3968 11.3668C10.1778 12.5858 9.493 14.2391 9.493 15.963C9.493 17.6869 10.1778 19.3402 11.3968 20.5592C12.6158 21.7782 14.2691 22.463 15.993 22.463ZM24.308 3H22C21.7348 3 21.4804 3.10536 21.2929 3.29289C21.1054 3.48043 21 3.73478 21 4C21 4.26522 21.1054 4.51957 21.2929 4.70711C21.4804 4.89464 21.7348 5 22 5H24.308C25.0218 5.00106 25.7061 5.28516 26.2107 5.78999C26.7154 6.29483 26.9992 6.97919 27 7.693V10C27 10.2652 27.1054 10.5196 27.2929 10.7071C27.4804 10.8946 27.7348 11 28 11C28.2652 11 28.5196 10.8946 28.7071 10.7071C28.8946 10.5196 29 10.2652 29 10V7.693C28.9984 6.449 28.5036 5.25639 27.6241 4.37665C26.7445 3.49692 25.552 3.00185 24.308 3ZM4 11C4.26522 11 4.51957 10.8946 4.70711 10.7071C4.89464 10.5196 5 10.2652 5 10V7.693C5.00079 6.97902 5.28478 6.2945 5.78964 5.78964C6.2945 5.28478 6.97902 5.00079 7.693 5H10C10.2652 5 10.5196 4.89464 10.7071 4.70711C10.8946 4.51957 11 4.26522 11 4C11 3.73478 10.8946 3.48043 10.7071 3.29289C10.5196 3.10536 10.2652 3 10 3H7.693C6.44875 3.00132 5.25583 3.49619 4.37601 4.37601C3.49619 5.25583 3.00132 6.44875 3 7.693V10C2.99987 10.1314 3.02565 10.2615 3.07585 10.3828C3.12606 10.5042 3.19972 10.6145 3.2926 10.7074C3.38549 10.8003 3.49578 10.8739 3.61716 10.9241C3.73855 10.9744 3.86864 11.0001 4 11ZM10 27H7.693C6.97911 26.9995 6.29459 26.7157 5.7897 26.211C5.28481 25.7063 5.00079 25.0219 5 24.308V22C5 21.7348 4.89464 21.4804 4.70711 21.2929C4.51957 21.1054 4.26522 21 4 21C3.73478 21 3.48043 21.1054 3.29289 21.2929C3.10536 21.4804 3 21.7348 3 22V24.308C3.00159 25.5521 3.49657 26.7447 4.37636 27.6243C5.25616 28.5039 6.44892 28.9987 7.693 29H10C10.2652 29 10.5196 28.8946 10.7071 28.7071C10.8946 28.5196 11 28.2652 11 28C11 27.7348 10.8946 27.4804 10.7071 27.2929C10.5196 27.1054 10.2652 27 10 27ZM28 21C27.7349 21.0003 27.4807 21.1057 27.2932 21.2932C27.1057 21.4807 27.0003 21.7349 27 22V24.308C26.9989 25.0216 26.715 25.7057 26.2104 26.2104C25.7057 26.715 25.0216 26.9989 24.308 27H22C21.7348 27 21.4804 27.1054 21.2929 27.2929C21.1054 27.4804 21 27.7348 21 28C21 28.2652 21.1054 28.5196 21.2929 28.7071C21.4804 28.8946 21.7348 29 22 29H24.308C25.5519 28.9984 26.7444 28.5036 27.624 27.624C28.5036 26.7444 28.9984 25.5519 29 24.308V22C29.0001 21.8686 28.9744 21.7385 28.9241 21.6172C28.8739 21.4958 28.8003 21.3855 28.7074 21.2926C28.6145 21.1997 28.5042 21.1261 28.3828 21.0759C28.2615 21.0256 28.1314 20.9999 28 21Z"/></svg>