<svg xmlns="http://www.w3.org/2000/svg" width="32" height="32" viewBox="0 0 32 32">
<path fill-rule="evenodd" clip-rule="evenodd" d="M9.98998 27.2382C11.839 28.2268 13.9033 28.7441 16 28.7442C19.1217 28.7464 22.1356 27.6027 24.47 25.5302L28.47 29.5302C28.5923 29.6532 28.7536 29.7299 28.9263 29.7468C29.0989 29.7638 29.2721 29.7201 29.416 29.6231C29.5081 29.5615 29.5854 29.4801 29.6423 29.385C29.6993 29.2899 29.7345 29.1834 29.7454 29.0731C29.7562 28.9627 29.7426 28.8514 29.7054 28.747C29.6681 28.6426 29.6082 28.5477 29.53 28.4692L25.53 24.4692C27.6915 22.0393 28.8422 18.875 28.7465 15.6243C28.6507 12.3736 27.3158 9.28254 25.015 6.98415C23.7195 5.68856 22.16 4.68745 20.4426 4.04901C18.7253 3.41057 16.8905 3.14981 15.0633 3.28449C13.2361 3.41918 11.4594 3.94614 9.85424 4.82949C8.24908 5.71283 6.85319 6.9318 5.76167 8.40333C4.67015 9.87487 3.90865 11.5644 3.52905 13.3568C3.14945 15.1492 3.16068 17.0024 3.56196 18.7901C3.96324 20.5778 4.74515 22.2579 5.85442 23.7161C6.96369 25.1744 8.37424 26.3763 9.98998 27.2402V27.2382ZM23.96 23.9512C25.0046 22.9067 25.8331 21.6666 26.3982 20.3019C26.9633 18.9371 27.2539 17.4743 27.2535 15.9971C27.253 14.5199 26.9615 13.0574 26.3955 11.6929C25.8295 10.3285 25.0002 9.08894 23.955 8.04515C22.9109 7.00002 21.6707 6.17139 20.3056 5.6068C18.9405 5.04221 17.4773 4.75279 16 4.75515C14.1518 4.75656 12.3324 5.21355 10.7029 6.08568C9.07334 6.95781 7.68392 8.21817 6.65759 9.75524C5.63125 11.2923 4.99963 13.0587 4.81863 14.898C4.63763 16.7374 4.91283 18.593 5.61988 20.3006C6.32692 22.0082 7.44401 23.5152 8.87228 24.6883C10.3006 25.8613 11.996 26.6642 13.8085 27.0258C15.621 27.3874 17.4947 27.2967 19.2637 26.7617C21.0328 26.2266 22.6427 25.2637 23.951 23.9582L23.955 23.9552L23.959 23.9512H23.96Z"/>
</svg>