<svg width="32" height="32" viewBox="0 0 32 32" fill="none" xmlns="http://www.w3.org/2000/svg">
<path d="M26.0217 4.4677C25.5111 4.24948 24.9465 4.19063 24.4019 4.29886C23.8573 4.40709 23.3582 4.67734 22.9699 5.0742L5.07435 22.97C4.68273 23.3616 4.41602 23.8605 4.30796 24.4037C4.19991 24.9469 4.25536 25.5099 4.4673 26.0215C4.67924 26.5332 5.03816 26.9705 5.49865 27.2782C5.95915 27.5858 6.50054 27.75 7.05435 27.75H24.9501C25.6924 27.7492 26.4041 27.4539 26.929 26.929C27.4539 26.404 27.7492 25.6923 27.7501 24.95V7.0546C27.756 6.4995 27.5942 5.95553 27.2858 5.49394C26.9774 5.03235 26.5368 4.67466 26.0217 4.4677ZM26.2501 24.95C26.2496 25.2947 26.1125 25.6251 25.8688 25.8688C25.6251 26.1125 25.2947 26.2496 24.9501 26.25H7.05435C6.79707 26.2502 6.54551 26.174 6.33154 26.0311C6.11757 25.8883 5.9508 25.6851 5.85236 25.4474C5.75391 25.2097 5.72822 24.9481 5.77852 24.6958C5.82883 24.4435 5.95287 24.2118 6.13495 24.03L24.0301 6.1347C24.1475 6.01341 24.288 5.91675 24.4433 5.85035C24.5986 5.78396 24.7655 5.74916 24.9344 5.748C25.1105 5.74914 25.2847 5.78499 25.4471 5.8535C25.6876 5.94763 25.8936 6.11322 26.0371 6.32798C26.1807 6.54273 26.255 6.79632 26.2501 7.0546V24.95Z" fill="black"/>
</svg>
