<svg width="32" height="32" viewBox="0 0 32 32" fill="none" xmlns="http://www.w3.org/2000/svg">
<path d="M16.0001 2.49988C13.3301 2.49988 10.72 3.29164 8.49993 4.77504C6.27987 6.25844 4.54954 8.36685 3.52775 10.8337C2.50597 13.3005 2.23863 16.0149 2.75953 18.6336C3.28043 21.2523 4.56618 23.6578 6.45419 25.5458C8.3422 27.4338 10.7477 28.7196 13.3664 29.2405C15.9852 29.7614 18.6996 29.494 21.1664 28.4723C23.6332 27.4505 25.7416 25.7201 27.225 23.5001C28.7084 21.28 29.5001 18.6699 29.5001 15.9999C29.4962 12.4207 28.0726 8.98915 25.5418 6.45825C23.0109 3.92736 19.5794 2.50379 16.0001 2.49988ZM16.0001 28.4999C13.5279 28.4999 11.1111 27.7668 9.0555 26.3932C6.99989 25.0197 5.39773 23.0675 4.45163 20.7834C3.50554 18.4993 3.258 15.986 3.74031 13.5613C4.22263 11.1365 5.41314 8.9092 7.16129 7.16105C8.90945 5.41289 11.1367 4.22238 13.5615 3.74006C15.9863 3.25775 18.4996 3.50529 20.7837 4.45139C23.0677 5.39748 25.02 6.99964 26.3935 9.05525C27.767 11.1109 28.5001 13.5276 28.5001 15.9999C28.4964 19.3139 27.1782 22.4912 24.8348 24.8346C22.4914 27.178 19.3142 28.4962 16.0001 28.4999Z" fill="black"/>
<path d="M18.8458 14.3466H18.423V12.9237C18.4237 12.6051 18.3616 12.2895 18.2402 11.995C18.1188 11.7004 17.9404 11.4327 17.7154 11.2072C17.4904 10.9816 17.2232 10.8027 16.9289 10.6805C16.6347 10.5584 16.3192 10.4955 16.0006 10.4955C15.6821 10.4954 15.3666 10.5582 15.0723 10.6802C14.778 10.8022 14.5106 10.981 14.2855 11.2065C14.0605 11.4319 13.882 11.6996 13.7605 11.9941C13.639 12.2886 13.5767 12.6041 13.5773 12.9227V14.3465H13.1535C12.7558 14.347 12.3745 14.5051 12.0933 14.7864C11.8121 15.0676 11.6539 15.4488 11.6535 15.8465V19.9999C11.6539 20.3976 11.8121 20.7788 12.0933 21.06C12.3745 21.3413 12.7558 21.4994 13.1535 21.4999H18.8458C19.2435 21.4994 19.6248 21.3413 19.906 21.06C20.1872 20.7788 20.3454 20.3976 20.3458 19.9999V15.8466C20.3454 15.4489 20.1872 15.0676 19.906 14.7864C19.6248 14.5052 19.2435 14.347 18.8458 14.3466ZM14.5773 12.9227C14.5769 12.7356 14.6134 12.5502 14.6847 12.3771C14.756 12.2041 14.8608 12.0468 14.9931 11.9143C15.1253 11.7819 15.2823 11.6768 15.4552 11.6051C15.6281 11.5334 15.8135 11.4966 16.0006 11.4966C16.1878 11.4967 16.3731 11.5337 16.546 11.6055C16.7188 11.6773 16.8758 11.7825 17.0079 11.9151C17.14 12.0476 17.2447 12.205 17.3159 12.378C17.3872 12.5511 17.4235 12.7366 17.423 12.9237V14.3466H14.5773V12.9227ZM19.3458 19.9999C19.3456 20.1324 19.2928 20.2594 19.1991 20.3531C19.1054 20.4469 18.9784 20.4996 18.8458 20.4999H13.1534C13.0209 20.4996 12.8939 20.4469 12.8002 20.3531C12.7065 20.2594 12.6537 20.1324 12.6534 19.9999V15.8466C12.6537 15.714 12.7065 15.587 12.8002 15.4933C12.8939 15.3996 13.0209 15.3468 13.1534 15.3466H18.8458C18.9784 15.3468 19.1054 15.3996 19.1991 15.4933C19.2928 15.587 19.3456 15.714 19.3458 15.8466V19.9999Z" fill="black"/>
</svg>
