<svg width="32" height="32" fill="none" xmlns="http://www.w3.org/2000/svg"><path fill-rule="evenodd" clip-rule="evenodd" d="M27.0004 5.5v1a2.0027 2.0027 0 012 2v4a2.0028 2.0028 0 01-2 2h-6a2.0026 2.0026 0 01-2-2v-4a2.0024 2.0024 0 012-2v-1a3 3 0 016 0zm-3.7071-.7071a1.0002 1.0002 0 00-.2929.7071v1h2v-1a.9997.9997 0 00-1-1c-.2652 0-.5195.1054-.7071.2929z" fill="#0F0F0F"/><path d="M26.6151 22.6287l-2.7529-2.753a3.082 3.082 0 00-4.2598.003s-1.4727 1.497-1.7617 1.8066a7.277 7.277 0 01-5.3457-2.1797 7.653 7.653 0 01-2.2334-5.2724c.3623-.3623 1.8603-1.835 1.8633-1.8379a3.0149 3.0149 0 000-4.2569l-2.753-2.7529a3.0948 3.0948 0 00-4.2754 0L3.625 6.8572C1.742 8.74 1.3817 15.4129 8.9843 23.0164c4.913 4.9131 9.4374 6.5 12.5331 6.5a5.1686 5.1686 0 003.626-1.1416l1.4717-1.4717a3.0272 3.0272 0 000-4.2744z" fill="#0F0F0F"/></svg>