<svg width="32" height="32" fill="none" xmlns="http://www.w3.org/2000/svg"><path fill-rule="evenodd" clip-rule="evenodd" d="M26.5004 6h.5a1.5016 1.5016 0 011.5 1.5v4a1.5015 1.5015 0 01-1.5 1.5h-6a1.5017 1.5017 0 01-1.5-1.5v-4a1.502 1.502 0 011.5-1.5h.5V4.5a2.4998 2.4998 0 012.5-2.5 2.4999 2.4999 0 012.5 2.5V6zm-3.5606-2.5607A1.5 1.5 0 0022.5004 4.5V6h3V4.5a1.5 1.5 0 00-2.5606-1.0607zm4.4139 8.414a.5009.5009 0 00.1467-.3533v-4a.5007.5007 0 00-.5-.5h-6a.5009.5009 0 00-.5.5v4a.5014.5014 0 00.5.5h6a.5011.5011 0 00.3533-.1467z" fill="#0F0F0F"/><path d="M23.8614 19.8759a3.0822 3.0822 0 00-4.2597.003s-1.4727 1.497-1.7617 1.8056a7.2724 7.2724 0 01-5.3457-2.1797 7.64 7.64 0 01-2.2324-5.2714c.3623-.3643 1.8593-1.835 1.8623-1.8379a3.0149 3.0149 0 000-4.2569l-2.754-2.7539a3.0272 3.0272 0 00-4.2744 0L3.6241 6.8564C1.7413 8.7402 1.381 15.4131 8.9835 23.0156c4.9131 4.9141 9.4385 6.501 12.5332 6.501a5.1667 5.1667 0 003.626-1.1416l1.4717-1.4717a3.0204 3.0204 0 00.8857-2.1372 3.0205 3.0205 0 00-.8857-2.1372l-2.753-2.753zm2.0459 6.3204l-1.4716 1.4716c-1.3829 1.3789-7.586 1.8008-14.7452-5.3593C2.5315 15.1494 2.9504 8.9453 4.3312 7.5634l1.4717-1.4716a2.0264 2.0264 0 012.8603 0l2.7539 2.7539a2.0127 2.0127 0 01.0029 2.8398s-1.5029 1.4766-1.8662 1.8408c-.579.5791-.0664 2.5323-.0058 2.7539a9.0243 9.0243 0 002.2392 3.9317 9.0457 9.0457 0 003.9326 2.2402c.2207.0586 2.1739.5733 2.7539-.0068.3633-.3633 1.8379-1.8623 1.8379-1.8623a2.0577 2.0577 0 012.8428 0l2.7529 2.7529a2.0254 2.0254 0 010 2.8604z" fill="#0F0F0F"/></svg>