<svg width="32" height="32" fill="none" xmlns="http://www.w3.org/2000/svg"><path fill-rule="evenodd" clip-rule="evenodd" d="M21.7301 18.773a3.3353 3.3353 0 0 1 2.308.926l2.753 2.753a3.2763 3.2763 0 0 1 0 4.628l-1.472 1.472a5.4178 5.4178 0 0 1-3.8 1.2c-3.169 0-7.758-1.6-12.713-6.559-7.727-7.728-7.306-14.568-5.359-16.513l1.472-1.471a3.277 3.277 0 0 1 4.629 0l2.752 2.753a3.2619 3.2619 0 0 1 0 4.61l-.379.373c-.418.411-1.073 1.056-1.386 1.366a7.2918 7.2918 0 0 0 7.151 7.153c.474-.478 1.737-1.761 1.737-1.761a3.332 3.332 0 0 1 2.307-.93Zm2.529 8.718 1.471-1.472a1.7713 1.7713 0 0 0 .519-1.253 1.771 1.771 0 0 0-.519-1.253l-2.753-2.753a1.7999 1.7999 0 0 0-2.489 0s-1.474 1.5-1.837 1.862c-.866.861-4.744.064-7.041-2.233a9.287 9.287 0 0 1-2.3-4.043c-.148-.54-.578-2.349.07-3 .364-.364 1.868-1.842 1.868-1.842a1.7602 1.7602 0 0 0 0-2.485l-2.761-2.75a1.777 1.777 0 0 0-2.508 0l-1.471 1.472c-1.329 1.329-1.674 7.359 5.359 14.392 7.033 7.033 13.061 6.688 14.392 5.358Z" fill="#0F0F0F"/><path d="M23.5002 14.25a1.176 1.176 0 0 1-.563-.144 9.4913 9.4913 0 0 1-3.479-3.467 9.0381 9.0381 0 0 1-1.206-4.676v-.816a1.4684 1.4684 0 0 1 .2-.76c.1327-.2292.3225-.42.551-.554l2.93-1.673a3.2481 3.2481 0 0 1 3.129 0l2.918 1.668c.2335.1354.4276.3295.563.563.1351.2328.2043.498.2.767v.82a9.022 9.022 0 0 1-1.206 4.661 9.4816 9.4816 0 0 1-3.457 3.461 1.2007 1.2007 0 0 1-.58.15Zm0-11a1.7 1.7 0 0 0-.829.215l-2.911 1.665-.008.848a7.5398 7.5398 0 0 0 1.007 3.913 7.9455 7.9455 0 0 0 2.741 2.809 7.9516 7.9516 0 0 0 2.74-2.806 7.5238 7.5238 0 0 0 1.007-3.9v-.847l-2.923-1.684a1.694 1.694 0 0 0-.824-.213Z" fill="#0F0F0F"/></svg>