<svg xmlns="http://www.w3.org/2000/svg" width="32" height="32" viewBox="0 0 32 32"><path d="M23 12.25H21.751V8.454C21.751 4.917 19.279 2.25 16.001 2.25C12.669 2.25 10.252 4.86 10.252 8.454V12.25H9C8.00584 12.2513 7.05279 12.6468 6.34981 13.3498C5.64684 14.0528 5.25132 15.0058 5.25 16V26C5.25132 26.9942 5.64684 27.9472 6.34981 28.6502C7.05279 29.3532 8.00584 29.7487 9 29.75H23C23.9942 29.7489 24.9474 29.3535 25.6505 28.6505C26.3535 27.9474 26.7489 26.9942 26.75 26V16C26.7487 15.0058 26.3532 14.0528 25.6502 13.3498C24.9472 12.6468 23.9942 12.2513 23 12.25ZM11.752 8.454C11.752 5.73 13.54 3.75 16 3.75C18.463 3.75 20.251 5.729 20.251 8.454V12.25H11.752V8.454ZM25.25 26C25.2489 26.5964 25.0116 27.1681 24.5898 27.5898C24.1681 28.0116 23.5964 28.2489 23 28.25H9C8.40351 28.2492 7.83167 28.0119 7.40989 27.5901C6.9881 27.1683 6.75079 26.5965 6.75 26V16C6.75079 15.4035 6.9881 14.8317 7.40989 14.4099C7.83167 13.9881 8.40351 13.7508 9 13.75H23C23.5965 13.7508 24.1683 13.9881 24.5901 14.4099C25.0119 14.8317 25.2492 15.4035 25.25 16V26Z"/></svg>