<svg xmlns="http://www.w3.org/2000/svg" width="32" height="32" viewBox="0 0 32 32"><path d="M16 2.5C13.33 2.5 10.7199 3.29176 8.49981 4.77516C6.27974 6.25856 4.54942 8.36697 3.52763 10.8338C2.50585 13.3006 2.2385 16.015 2.7594 18.6337C3.28031 21.2525 4.56606 23.6579 6.45406 25.5459C8.34207 27.434 10.7475 28.7197 13.3663 29.2406C15.985 29.7615 18.6994 29.4942 21.1662 28.4724C23.633 27.4506 25.7414 25.7203 27.2248 23.5002C28.7082 21.2801 29.5 18.67 29.5 16C29.496 12.4208 28.0724 8.98932 25.5416 6.45844C23.0107 3.92756 19.5792 2.50397 16 2.5ZM16 28.5C13.5277 28.5 11.111 27.7669 9.05538 26.3934C6.99976 25.0199 5.39761 23.0676 4.45151 20.7835C3.50542 18.4995 3.25787 15.9861 3.74019 13.5614C4.22251 11.1366 5.41302 8.90932 7.16117 7.16117C8.90933 5.41301 11.1366 4.2225 13.5614 3.74018C15.9861 3.25787 18.4995 3.50541 20.7835 4.45151C23.0676 5.3976 25.0199 6.99976 26.3934 9.05537C27.7669 11.111 28.5 13.5277 28.5 16C28.4963 19.3141 27.1781 22.4913 24.8347 24.8347C22.4913 27.1781 19.3141 28.4963 16 28.5Z M18.8461 14.347H18.4231V12.924C18.4232 12.2814 18.1681 11.665 17.7137 11.2105C17.2594 10.756 16.6432 10.5006 16.0006 10.5005C15.358 10.5004 14.7416 10.7555 14.2871 11.2098C13.8326 11.6641 13.5772 12.2804 13.5771 12.923V14.347H13.1531C12.7554 14.3475 12.3742 14.5057 12.093 14.7869C11.8118 15.0681 11.6536 15.4493 11.6531 15.847V20C11.6533 20.3977 11.8115 20.7791 12.0927 21.0604C12.374 21.3416 12.7553 21.4997 13.1531 21.5H18.8461C19.2437 21.4995 19.625 21.3413 19.9062 21.0601C20.1873 20.7789 20.3455 20.3977 20.3461 20V15.847C20.3455 15.4493 20.1873 15.0681 19.9062 14.7869C19.625 14.5057 19.2437 14.3475 18.8461 14.347ZM14.5771 12.923C14.5769 12.6887 14.6345 12.458 14.7448 12.2513C14.8551 12.0445 15.0147 11.8682 15.2094 11.7379C15.4041 11.6075 15.628 11.5272 15.8611 11.5041C16.0943 11.4809 16.3295 11.5155 16.5461 11.605C16.8066 11.7131 17.0291 11.8962 17.1852 12.1311C17.3414 12.3659 17.4242 12.6419 17.4231 12.924V14.347H14.5771V12.923ZM19.3461 20C19.3461 20.1326 19.2934 20.2598 19.1996 20.3535C19.1059 20.4473 18.9787 20.5 18.8461 20.5H13.1531C13.0205 20.5 12.8933 20.4473 12.7995 20.3535C12.7058 20.2598 12.6531 20.1326 12.6531 20V15.847C12.6533 15.7145 12.7061 15.5874 12.7998 15.4937C12.8935 15.4 13.0205 15.3473 13.1531 15.347H18.8461C18.9787 15.347 19.1059 15.3997 19.1996 15.4934C19.2934 15.5872 19.3461 15.7144 19.3461 15.847V20Z"/></svg>