<svg width="32" height="32" viewBox="0 0 32 32" xmlns="http://www.w3.org/2000/svg"><path d="M11 26C5.477 26 1 21.523 1 16S5.477 6 11 6c1.821 0 3.53.487 5 1.338A9.954 9.954 0 0 1 21 6c5.523 0 10 4.477 10 10s-4.477 10-10 10a9.955 9.955 0 0 1-5-1.338A9.955 9.955 0 0 1 11 26Zm0-18a8 8 0 1 0 3.202 15.334A9.973 9.973 0 0 1 11 16a9.973 9.973 0 0 1 3.202-7.334A7.973 7.973 0 0 0 11 8Zm10 0a7.973 7.973 0 0 0-3.202.666A9.973 9.973 0 0 1 21 16a9.973 9.973 0 0 1-3.202 7.334c.98.428 2.064.666 3.202.666a8 8 0 1 0 0-16Z"/></svg>