<svg xmlns="http://www.w3.org/2000/svg" width="32" height="32" viewBox="0 0 32 32"><path d="M5.26792 21.375C5.14924 21.1376 4.94112 20.9571 4.68935 20.8732C4.43758 20.7893 4.16279 20.8088 3.92542 20.9275C3.68805 21.0462 3.50755 21.2543 3.42363 21.5061C3.33971 21.7578 3.35923 22.0326 3.47792 22.27C4.28416 23.8877 5.40068 25.3311 6.76392 26.518C6.85589 26.6141 6.96643 26.6905 7.08882 26.7426C7.21121 26.7947 7.34291 26.8213 7.47592 26.821C7.68067 26.8207 7.88043 26.7578 8.04837 26.6406C8.2163 26.5235 8.34436 26.3578 8.41535 26.1657C8.48633 25.9737 8.49684 25.7645 8.44546 25.5663C8.39408 25.3681 8.28327 25.1904 8.12792 25.057C6.94175 24.0297 5.96986 22.7784 5.26792 21.375ZM4.02992 16.858C3.91588 15.2869 4.11298 13.7088 4.60992 12.214C4.65329 12.0889 4.67138 11.9564 4.66313 11.8242C4.65489 11.692 4.62047 11.5628 4.56187 11.444C4.50328 11.3253 4.42168 11.2193 4.32181 11.1323C4.22194 11.0454 4.10579 10.9791 3.9801 10.9374C3.85441 10.8957 3.72169 10.8793 3.58964 10.8893C3.45758 10.8993 3.32883 10.9354 3.21084 10.9956C3.09286 11.0557 2.988 11.1387 2.90236 11.2397C2.81671 11.3407 2.75198 11.4578 2.71192 11.584C2.13265 13.3283 1.90293 15.1698 2.03592 17.003C2.05515 17.2675 2.17868 17.5136 2.37935 17.6871C2.58001 17.8606 2.84137 17.9472 3.10592 17.928C3.37047 17.9088 3.61655 17.7852 3.79002 17.5846C3.96349 17.3839 4.05015 17.1225 4.03092 16.858H4.02992ZM16.8519 27.969C15.2798 28.0824 13.7007 27.885 12.2049 27.388C12.0798 27.3446 11.9473 27.3265 11.8151 27.3348C11.6829 27.343 11.5537 27.3774 11.435 27.436C11.3162 27.4946 11.2103 27.5762 11.1233 27.6761C11.0363 27.776 10.97 27.8921 10.9283 28.0178C10.8866 28.1435 10.8703 28.2762 10.8802 28.4083C10.8902 28.5403 10.9264 28.6691 10.9865 28.7871C11.0467 28.905 11.1297 29.0099 11.2307 29.0956C11.3317 29.1812 11.4487 29.2459 11.5749 29.286C13.3182 29.8657 15.1585 30.0964 16.9909 29.965C17.122 29.9559 17.25 29.921 17.3676 29.8624C17.4852 29.8037 17.5901 29.7225 17.6762 29.6233C17.7624 29.5241 17.8282 29.4089 17.8699 29.2843C17.9115 29.1597 17.9282 29.0281 17.9189 28.897C17.896 28.6342 17.7719 28.3906 17.5728 28.2175C17.3738 28.0444 17.1153 27.9553 16.8519 27.969ZM11.0639 3.92899C11.0053 3.81128 10.924 3.70632 10.8246 3.62013C10.7253 3.53395 10.6099 3.46825 10.4851 3.4268C10.3603 3.38536 10.2286 3.36898 10.0974 3.37863C9.96627 3.38827 9.83832 3.42374 9.72092 3.48299C8.10667 4.28891 6.66642 5.40401 5.48192 6.76499C5.30963 6.92814 5.20124 7.14743 5.17627 7.3834C5.1513 7.61936 5.2114 7.85648 5.34573 8.05208C5.48007 8.24767 5.67981 8.38888 5.90901 8.45028C6.13821 8.51168 6.3818 8.48923 6.59592 8.38699C6.72892 8.32699 6.84792 8.23799 6.94392 8.12699C7.96918 6.94273 9.21759 5.97193 10.6179 5.26999C10.8548 5.15116 11.0348 4.9432 11.1184 4.69177C11.202 4.44034 11.1824 4.16599 11.0639 3.92899ZM29.9649 15.018C29.9569 14.8861 29.9229 14.7571 29.8648 14.6384C29.8067 14.5198 29.7256 14.4138 29.6263 14.3266C29.5269 14.2395 29.4113 14.1729 29.2861 14.1307C29.1609 14.0885 29.0286 14.0715 28.8967 14.0808C28.7649 14.09 28.6363 14.1253 28.5182 14.1846C28.4001 14.2439 28.2949 14.326 28.2087 14.4261C28.1225 14.5263 28.057 14.6425 28.0161 14.7682C27.9751 14.8938 27.9594 15.0263 27.9699 15.158C28.0821 16.7297 27.8833 18.3081 27.3849 19.803C27.301 20.0547 27.3205 20.3294 27.4391 20.5667C27.5577 20.8041 27.7657 20.9845 28.0174 21.0685C28.2691 21.1524 28.5438 21.133 28.7812 21.0143C29.0185 20.8957 29.199 20.6877 29.2829 20.436C29.8644 18.6924 30.0961 16.8513 29.9649 15.018ZM21.0399 3.97199C21.1234 3.7203 21.1036 3.44574 20.9847 3.2087C20.8658 2.97166 20.6576 2.79155 20.4059 2.70799C18.6612 2.13231 16.8204 1.90467 14.9879 2.03799C14.7237 2.05695 14.4779 2.17994 14.3043 2.37998C14.1306 2.58002 14.0435 2.84076 14.0619 3.10499C14.07 3.23645 14.1042 3.36498 14.1626 3.48305C14.221 3.60112 14.3023 3.70636 14.4019 3.79259C14.5014 3.87883 14.6172 3.94433 14.7424 3.98527C14.8676 4.0262 14.9996 4.04175 15.1309 4.03099C16.7023 3.91787 18.2806 4.1132 19.7769 4.60599C19.9016 4.64732 20.0332 4.66368 20.1642 4.65414C20.2952 4.64459 20.4231 4.60933 20.5405 4.55036C20.6579 4.49139 20.7625 4.40987 20.8483 4.31046C20.9342 4.21105 20.9996 4.0957 21.0409 3.97099L21.0399 3.97199ZM25.0729 23.854L25.0559 23.872C24.0267 25.0606 22.7727 26.0339 21.3659 26.736C21.1286 26.8544 20.9479 27.0623 20.8638 27.3139C20.7797 27.5654 20.799 27.8401 20.9174 28.0775C21.0358 28.3149 21.2437 28.4955 21.4953 28.5796C21.7469 28.6637 22.0216 28.6444 22.2589 28.526C23.8963 27.7093 25.3565 26.5777 26.5559 25.196C26.7332 24.9993 26.8253 24.7404 26.8119 24.476C26.7985 24.2115 26.6809 23.9632 26.4847 23.7854C26.2885 23.6076 26.0298 23.5149 25.7653 23.5276C25.5009 23.5402 25.2522 23.6573 25.0739 23.853L25.0729 23.854ZM28.1119 11.119C28.2295 11.0604 28.3343 10.9793 28.4204 10.8802C28.5066 10.781 28.5723 10.6659 28.6139 10.5414C28.6556 10.4168 28.6722 10.2853 28.6629 10.1543C28.6537 10.0233 28.6187 9.89544 28.5599 9.77799C27.7384 8.13385 26.6007 6.66787 25.2119 5.46399C25.0117 5.29001 24.7505 5.2027 24.4859 5.22126C24.2213 5.23983 23.9749 5.36275 23.8009 5.56299C23.6269 5.76323 23.5396 6.02438 23.5582 6.28899C23.5768 6.55361 23.6997 6.80001 23.8999 6.97399C25.0904 8.00603 26.0656 9.26266 26.7699 10.672C26.8287 10.7895 26.91 10.8942 27.0092 10.9803C27.1085 11.0663 27.2237 11.132 27.3483 11.1735C27.4729 11.215 27.6045 11.2316 27.7355 11.2222C27.8666 11.2129 27.9945 11.1778 28.1119 11.119Z"/></svg>