<svg width="32" height="32" viewBox="0 0 32 32" fill="none" xmlns="http://www.w3.org/2000/svg">
<path d="M16.8869 28.468C15.2495 28.5835 13.6053 28.3777 12.0469 27.862C11.9689 27.8359 11.8857 27.8294 11.8047 27.8433C11.7236 27.8571 11.6472 27.8907 11.5823 27.9412C11.5174 27.9917 11.4659 28.0574 11.4325 28.1326C11.3992 28.2077 11.3849 28.29 11.3909 28.372C11.3978 28.4708 11.4338 28.5655 11.4945 28.6438C11.5552 28.7221 11.6379 28.7807 11.7319 28.812C13.4134 29.371 15.1885 29.5933 16.9559 29.466C17.0883 29.4567 17.2115 29.3952 17.2985 29.2951C17.3855 29.1949 17.4292 29.0643 17.4199 28.932C17.4106 28.7996 17.3492 28.6764 17.249 28.5894C17.1489 28.5023 17.0183 28.4587 16.8859 28.468H16.8869ZM9.94493 3.92996C8.35448 4.7254 6.93882 5.83032 5.78093 7.17996C5.71184 7.26823 5.67469 7.3773 5.67554 7.48939C5.67638 7.60148 5.71516 7.70997 5.78557 7.79719C5.85597 7.88442 5.95384 7.94522 6.06323 7.96969C6.17262 7.99417 6.28707 7.98087 6.38793 7.93196C6.45632 7.90122 6.51735 7.85622 6.56693 7.79996C7.63476 6.56624 8.93519 5.55499 10.3939 4.82396C10.4526 4.79448 10.5049 4.75372 10.5479 4.70402C10.5908 4.65432 10.6236 4.59665 10.6442 4.53429C10.6649 4.47194 10.6731 4.40612 10.6683 4.34061C10.6635 4.27509 10.6459 4.21116 10.6164 4.15246C10.5869 4.09376 10.5462 4.04144 10.4965 3.99849C10.4468 3.95554 10.3891 3.9228 10.3268 3.90214C10.2644 3.88148 10.1986 3.8733 10.1331 3.87807C10.0676 3.88285 10.0036 3.90048 9.94493 3.92996V3.92996ZM4.81993 21.599C4.75826 21.4846 4.65449 21.3987 4.5306 21.3596C4.40672 21.3204 4.27245 21.331 4.15623 21.3891C4.04002 21.4472 3.95098 21.5482 3.908 21.6709C3.86501 21.7935 3.87144 21.928 3.92593 22.046C4.72019 23.638 5.82446 25.0554 7.17393 26.215C7.24543 26.2729 7.33201 26.3091 7.42345 26.3194C7.51489 26.3297 7.60735 26.3136 7.68993 26.273C7.76628 26.2373 7.83242 26.183 7.88223 26.1151C7.93203 26.0471 7.96389 25.9677 7.97486 25.8841C7.98582 25.8006 7.97554 25.7156 7.94496 25.6371C7.91439 25.5586 7.8645 25.4891 7.79993 25.435C6.56414 24.3646 5.5515 23.0611 4.81993 21.599V21.599ZM4.13493 12.057C4.15561 11.9946 4.16381 11.9287 4.15904 11.8632C4.15428 11.7977 4.13666 11.7337 4.10717 11.675C4.07769 11.6162 4.03693 11.5639 3.98721 11.5209C3.9375 11.4779 3.87981 11.4451 3.81743 11.4245C3.75505 11.4038 3.68921 11.3956 3.62366 11.4003C3.55812 11.4051 3.49415 11.4227 3.43542 11.4522C3.37669 11.4817 3.32434 11.5225 3.28136 11.5722C3.23838 11.6219 3.20561 11.6796 3.18493 11.742C2.62648 13.4239 2.40559 15.1995 2.53493 16.967C2.54402 17.0929 2.60041 17.2107 2.69279 17.2968C2.78516 17.3828 2.90667 17.4308 3.03293 17.431L3.06893 17.43C3.13447 17.4253 3.19845 17.4077 3.2572 17.3783C3.31595 17.3488 3.36832 17.3081 3.41132 17.2584C3.45432 17.2087 3.48711 17.1511 3.5078 17.0887C3.5285 17.0263 3.5367 16.9605 3.53193 16.895C3.41272 15.2583 3.61764 13.6143 4.13493 12.057V12.057ZM29.4659 15.053C29.4627 14.987 29.4462 14.9225 29.4174 14.8631C29.3885 14.8037 29.348 14.7508 29.2983 14.7074C29.2485 14.6641 29.1905 14.6313 29.1277 14.6109C29.0649 14.5906 28.9987 14.5831 28.9329 14.589C28.8673 14.5934 28.8033 14.6108 28.7444 14.64C28.6856 14.6693 28.6331 14.7099 28.5899 14.7595C28.5468 14.8091 28.5139 14.8668 28.4932 14.9292C28.4724 14.9915 28.4642 15.0574 28.4689 15.123C28.5838 16.7599 28.3769 18.4035 27.8599 19.961C27.8334 20.0245 27.8202 20.0929 27.8213 20.1618C27.8224 20.2307 27.8377 20.2986 27.8662 20.3614C27.8947 20.4241 27.9359 20.4802 27.9871 20.5263C28.0383 20.5724 28.0985 20.6075 28.1638 20.6292C28.2292 20.651 28.2984 20.6591 28.367 20.653C28.4356 20.6468 28.5022 20.6266 28.5627 20.5935C28.6231 20.5604 28.6761 20.5153 28.7183 20.4608C28.7605 20.4063 28.791 20.3438 28.8079 20.277C29.3684 18.5958 29.592 16.8206 29.4659 15.053ZM25.4469 24.186L25.4339 24.2C24.3618 25.4383 23.0554 26.4524 21.5899 27.184C21.4772 27.2464 21.3929 27.35 21.3547 27.4731C21.3164 27.5961 21.3272 27.7292 21.3847 27.8446C21.4423 27.9599 21.5421 28.0486 21.6635 28.092C21.7848 28.1355 21.9182 28.1305 22.0359 28.078C23.6168 27.2895 25.0265 26.1966 26.1839 24.862C26.2737 24.7642 26.321 24.6348 26.3154 24.5022C26.3097 24.3697 26.2517 24.2447 26.1539 24.155C26.0562 24.0652 25.9268 24.0179 25.7942 24.0235C25.6616 24.0292 25.5367 24.0872 25.4469 24.185V24.186ZM20.2489 3.18296C18.5664 2.62749 16.7912 2.40733 15.0239 2.53496C14.9584 2.53952 14.8945 2.55697 14.8357 2.5863C14.777 2.61562 14.7246 2.65625 14.6816 2.70586C14.6386 2.75547 14.6058 2.81308 14.5851 2.87539C14.5644 2.93769 14.5562 3.00348 14.5609 3.06896C14.5644 3.13487 14.5812 3.19941 14.6101 3.25872C14.6391 3.31803 14.6797 3.37091 14.7295 3.4142C14.7794 3.4575 14.8374 3.49032 14.9002 3.51072C14.9629 3.53113 15.0292 3.53869 15.0949 3.53296C16.7309 3.41596 18.3749 3.61896 19.9349 4.13196C20.0609 4.1736 20.1983 4.16349 20.3168 4.10385C20.4353 4.04422 20.5253 3.93994 20.5669 3.81396C20.6086 3.68798 20.5985 3.55062 20.5388 3.4321C20.4792 3.31358 20.3749 3.2236 20.2489 3.18196V3.18296ZM27.9899 10.55C28.064 10.4757 28.1128 10.38 28.1295 10.2765C28.1462 10.1729 28.1299 10.0667 28.0829 9.97296C27.2902 8.38745 26.1926 6.97382 24.8529 5.81296C24.8038 5.76897 24.7464 5.7353 24.684 5.71395C24.6216 5.69259 24.5556 5.68399 24.4898 5.68866C24.4241 5.69332 24.3599 5.71115 24.3012 5.7411C24.2425 5.77104 24.1903 5.81248 24.1479 5.86296C24.0614 5.96322 24.0181 6.09367 24.0274 6.22578C24.0368 6.35789 24.0981 6.48092 24.1979 6.56796C25.438 7.64304 26.454 8.95199 27.1879 10.42C27.2233 10.4909 27.2751 10.5523 27.339 10.5993C27.4028 10.6463 27.4769 10.6774 27.5551 10.6901C27.6334 10.7028 27.7135 10.6967 27.7889 10.6723C27.8644 10.648 27.9329 10.606 27.9889 10.55H27.9899Z" fill="#0F0F0F"/>
</svg>
