<svg data-name="Layer 1" xmlns="http://www.w3.org/2000/svg" viewBox="0 0 32 32"><path d="M19.651 15.759a1 1 0 1 0-1.3-1.518l-6.3 5.4-2.344-2.348a1 1 0 0 0-1.414 1.414l3 3a1 1 0 0 0 1.358.052Z" style="fill:#0f0f0f"/><path d="M24 4H12a4 4 0 0 0-4 4 4 4 0 0 0-4 4v12a4 4 0 0 0 4 4h12a4 4 0 0 0 4-4 4 4 0 0 0 4-4V8a4 4 0 0 0-4-4Zm-2 20a2 2 0 0 1-2 2H8a2 2 0 0 1-2-2V12a2 2 0 0 1 2-2h12a2 2 0 0 1 2 2Zm4-4a2 2 0 0 1-2 2V12a4 4 0 0 0-4-4H10a2 2 0 0 1 2-2h12a2 2 0 0 1 2 2Z" style="fill-rule:evenodd;fill:#0f0f0f"/></svg>