<svg xmlns="http://www.w3.org/2000/svg" width="32" height="32" viewBox="0 0 32 32"><path d="M16.8869 28.4682C15.2495 28.5838 13.6053 28.3779 12.0469 27.8622C11.9689 27.8361 11.8857 27.8297 11.8047 27.8435C11.7236 27.8573 11.6472 27.891 11.5823 27.9415C11.5174 27.9919 11.4659 28.0577 11.4325 28.1328C11.3992 28.208 11.3849 28.2902 11.3909 28.3722C11.3978 28.4711 11.4338 28.5657 11.4945 28.644C11.5552 28.7224 11.6379 28.7809 11.7319 28.8122C13.4134 29.3713 15.1885 29.5935 16.9559 29.4662C17.0883 29.4569 17.2115 29.3954 17.2985 29.2953C17.3855 29.1952 17.4292 29.0645 17.4199 28.9322C17.4106 28.7999 17.3492 28.6766 17.249 28.5896C17.1489 28.5026 17.0183 28.4589 16.8859 28.4682H16.8869ZM9.94493 3.9302C8.35448 4.72564 6.93882 5.83056 5.78093 7.1802C5.71184 7.26847 5.67469 7.37754 5.67554 7.48963C5.67638 7.60172 5.71516 7.71022 5.78557 7.79744C5.85597 7.88466 5.95384 7.94546 6.06323 7.96994C6.17262 7.99441 6.28707 7.98111 6.38793 7.9322C6.45632 7.90147 6.51735 7.85646 6.56693 7.8002C7.63476 6.56649 8.93519 5.55523 10.3939 4.8242C10.4526 4.79472 10.5049 4.75397 10.5479 4.70427C10.5908 4.65456 10.6236 4.59689 10.6442 4.53454C10.6649 4.47218 10.6731 4.40637 10.6683 4.34085C10.6635 4.27534 10.6459 4.21141 10.6164 4.1527C10.5869 4.094 10.5462 4.04168 10.4965 3.99873C10.4468 3.95578 10.3891 3.92304 10.3268 3.90238C10.2644 3.88172 10.1986 3.87354 10.1331 3.87832C10.0676 3.88309 10.0036 3.90072 9.94493 3.9302ZM4.81993 21.5992C4.75826 21.4848 4.65449 21.399 4.5306 21.3598C4.40672 21.3206 4.27245 21.3312 4.15623 21.3893C4.04002 21.4474 3.95098 21.5485 3.908 21.6711C3.86501 21.7937 3.87144 21.9282 3.92593 22.0462C4.72019 23.6383 5.82446 25.0557 7.17393 26.2152C7.24543 26.2731 7.33201 26.3094 7.42345 26.3196C7.51489 26.3299 7.60735 26.3138 7.68993 26.2732C7.76628 26.2376 7.83242 26.1833 7.88223 26.1153C7.93203 26.0474 7.96389 25.9679 7.97486 25.8844C7.98582 25.8008 7.97554 25.7159 7.94496 25.6374C7.91439 25.5589 7.8645 25.4893 7.79993 25.4352C6.56414 24.3648 5.5515 23.0613 4.81993 21.5992ZM4.13493 12.0572C4.15561 11.9948 4.16381 11.929 4.15904 11.8634C4.15428 11.7979 4.13666 11.7339 4.10717 11.6752C4.07769 11.6165 4.03693 11.5641 3.98721 11.5211C3.9375 11.4782 3.87981 11.4454 3.81743 11.4247C3.75505 11.404 3.68921 11.3958 3.62366 11.4006C3.55812 11.4054 3.49415 11.423 3.43542 11.4525C3.37669 11.4819 3.32434 11.5227 3.28136 11.5724C3.23838 11.6221 3.20561 11.6798 3.18493 11.7422C2.62648 13.4241 2.40559 15.1997 2.53493 16.9672C2.54402 17.0931 2.60041 17.211 2.69279 17.297C2.78516 17.3831 2.90667 17.431 3.03293 17.4312L3.06893 17.4302C3.13447 17.4255 3.19845 17.408 3.2572 17.3785C3.31595 17.3491 3.36832 17.3084 3.41132 17.2587C3.45432 17.209 3.48711 17.1513 3.5078 17.0889C3.5285 17.0266 3.5367 16.9607 3.53193 16.8952C3.41272 15.2586 3.61764 13.6145 4.13493 12.0572ZM29.4659 15.0532C29.4627 14.9873 29.4462 14.9227 29.4174 14.8633C29.3885 14.804 29.348 14.751 29.2983 14.7077C29.2485 14.6644 29.1905 14.6315 29.1277 14.6112C29.0649 14.5908 28.9987 14.5833 28.9329 14.5892C28.8673 14.5936 28.8033 14.611 28.7444 14.6403C28.6856 14.6695 28.6331 14.7102 28.5899 14.7598C28.5468 14.8094 28.5139 14.867 28.4932 14.9294C28.4724 14.9918 28.4642 15.0576 28.4689 15.1232C28.5838 16.7602 28.3769 18.4038 27.8599 19.9612C27.8334 20.0248 27.8202 20.0932 27.8213 20.1621C27.8224 20.2309 27.8377 20.2989 27.8662 20.3616C27.8947 20.4243 27.9359 20.4805 27.9871 20.5266C28.0383 20.5727 28.0985 20.6077 28.1638 20.6295C28.2292 20.6513 28.2984 20.6594 28.367 20.6532C28.4356 20.6471 28.5022 20.6268 28.5627 20.5938C28.6231 20.5607 28.6761 20.5155 28.7183 20.461C28.7605 20.4066 28.791 20.344 28.8079 20.2772C29.3684 18.596 29.592 16.8209 29.4659 15.0532ZM25.4469 24.1862L25.4339 24.2002C24.3618 25.4386 23.0554 26.4527 21.5899 27.1842C21.4772 27.2466 21.3929 27.3502 21.3547 27.4733C21.3164 27.5964 21.3272 27.7295 21.3847 27.8448C21.4423 27.9601 21.5421 28.0488 21.6635 28.0923C21.7848 28.1358 21.9182 28.1307 22.0359 28.0782C23.6168 27.2898 25.0265 26.1969 26.1839 24.8622C26.2737 24.7645 26.321 24.6351 26.3154 24.5025C26.3097 24.3699 26.2517 24.245 26.1539 24.1552C26.0562 24.0654 25.9268 24.0182 25.7942 24.0238C25.6616 24.0294 25.5367 24.0875 25.4469 24.1852V24.1862ZM20.2489 3.1832C18.5664 2.62773 16.7912 2.40758 15.0239 2.5352C14.9584 2.53977 14.8945 2.55721 14.8357 2.58654C14.777 2.61587 14.7246 2.6565 14.6816 2.70611C14.6386 2.75571 14.6058 2.81332 14.5851 2.87563C14.5644 2.93794 14.5562 3.00372 14.5609 3.0692C14.5644 3.13512 14.5812 3.19965 14.6101 3.25896C14.6391 3.31828 14.6797 3.37115 14.7295 3.41445C14.7794 3.45774 14.8374 3.49057 14.9002 3.51097C14.9629 3.53137 15.0292 3.53893 15.0949 3.5332C16.7309 3.4162 18.3749 3.6192 19.9349 4.1322C20.0609 4.17384 20.1983 4.16373 20.3168 4.1041C20.4353 4.04446 20.5253 3.94018 20.5669 3.8142C20.6086 3.68823 20.5985 3.55087 20.5388 3.43234C20.4792 3.31382 20.3749 3.22384 20.2489 3.1822V3.1832ZM27.9899 10.5502C28.064 10.4759 28.1128 10.3803 28.1295 10.2767C28.1462 10.1732 28.1299 10.067 28.0829 9.9732C27.2902 8.38769 26.1926 6.97406 24.8529 5.81321C24.8038 5.76922 24.7464 5.73554 24.684 5.71419C24.6216 5.69284 24.5556 5.68424 24.4898 5.6889C24.4241 5.69356 24.3599 5.7114 24.3012 5.74134C24.2425 5.77128 24.1903 5.81273 24.1479 5.8632C24.0614 5.96346 24.0181 6.09391 24.0274 6.22602C24.0368 6.35814 24.0981 6.48117 24.1979 6.5682C25.438 7.64329 26.454 8.95223 27.1879 10.4202C27.2233 10.4911 27.2751 10.5526 27.339 10.5996C27.4028 10.6465 27.4769 10.6776 27.5551 10.6903C27.6334 10.703 27.7135 10.6969 27.7889 10.6726C27.8644 10.6482 27.9329 10.6063 27.9889 10.5502H27.9899Z"/></svg>