<svg xmlns="http://www.w3.org/2000/svg" width="32" height="32" viewBox="0 0 32 32"><path d="M9.83298 3.70581C8.21093 4.51645 6.76757 5.6436 5.58798 7.02081C5.48314 7.15276 5.42606 7.31632 5.42605 7.48485C5.42604 7.65338 5.4831 7.81695 5.58793 7.94891C5.69275 8.08088 5.83917 8.17345 6.00334 8.21157C6.1675 8.24968 6.33973 8.23109 6.49198 8.15881C6.59198 8.11381 6.68198 8.04681 6.75498 7.96381C7.80154 6.75476 9.07617 5.76388 10.506 5.04781C10.5941 5.00362 10.6726 4.94251 10.7371 4.86796C10.8016 4.79342 10.8508 4.7069 10.8819 4.61334C10.913 4.51979 10.9253 4.42103 10.9182 4.32271C10.9111 4.22439 10.8847 4.12843 10.8405 4.04031C10.7963 3.9522 10.7352 3.87365 10.6606 3.80915C10.5861 3.74465 10.4996 3.69547 10.406 3.6644C10.3125 3.63334 10.2137 3.62101 10.1154 3.62812C10.0171 3.63522 9.9211 3.66162 9.83298 3.70581ZM3.74998 15.9938C3.74998 14.6828 3.95998 13.3798 4.37198 12.1358C4.4347 11.947 4.41984 11.741 4.33067 11.5631C4.28652 11.475 4.22545 11.3965 4.15095 11.332C4.07645 11.2675 3.98998 11.2184 3.89648 11.1873C3.80298 11.1563 3.70428 11.1439 3.60601 11.151C3.50774 11.1581 3.41183 11.1845 3.32375 11.2286C3.14587 11.3178 3.0107 11.474 2.94798 11.6628C2.37929 13.3756 2.15399 15.1838 2.28498 16.9838C2.29861 17.1727 2.38321 17.3494 2.52177 17.4785C2.66033 17.6076 2.8426 17.6795 3.03198 17.6798L3.08698 17.6788C3.28536 17.6645 3.46991 17.5719 3.60006 17.4215C3.73021 17.2711 3.79529 17.0752 3.78098 16.8768C3.75997 16.583 3.74963 16.2884 3.74998 15.9938ZM16.87 28.2188C15.2653 28.334 13.6537 28.1321 12.127 27.6248C11.9381 27.562 11.7321 27.5767 11.5541 27.6658C11.3761 27.7548 11.2408 27.911 11.178 28.0998C11.1151 28.2886 11.1299 28.4947 11.2189 28.6727C11.308 28.8507 11.4641 28.986 11.653 29.0488C13.3655 29.6176 15.1731 29.8439 16.973 29.7148C17.1681 29.6968 17.3484 29.6031 17.4753 29.4538C17.6023 29.3045 17.6657 29.1115 17.6521 28.916C17.6385 28.7205 17.549 28.5381 17.4026 28.4078C17.2563 28.2775 17.0647 28.2097 16.869 28.2188H16.87ZM5.04398 21.4858C4.99986 21.3977 4.93881 21.3191 4.86432 21.2546C4.78983 21.1901 4.70337 21.1409 4.60986 21.1098C4.51635 21.0786 4.41763 21.0663 4.31934 21.0733C4.22104 21.0804 4.1251 21.1067 4.03698 21.1508C3.94886 21.1949 3.8703 21.256 3.80578 21.3305C3.74125 21.405 3.69203 21.4914 3.66092 21.5849C3.62982 21.6784 3.61743 21.7772 3.62447 21.8755C3.63152 21.9738 3.65786 22.0697 3.70198 22.1578C4.51176 23.7824 5.63896 25.2282 7.01698 26.4098C7.14223 26.5106 7.29705 26.5676 7.45777 26.5722C7.61849 26.5767 7.77626 26.5284 7.90698 26.4348C8.00107 26.3688 8.07881 26.2821 8.13426 26.1814C8.18971 26.0807 8.22139 25.9686 8.22689 25.8538C8.23239 25.7389 8.21156 25.6244 8.16599 25.5188C8.12043 25.4133 8.05133 25.3196 7.96398 25.2448C6.75275 24.1962 5.76045 22.9188 5.04398 21.4858ZM29.716 15.0348C29.6999 14.8374 29.6071 14.6542 29.4576 14.5243C29.3081 14.3944 29.1137 14.3282 28.916 14.3398C28.7176 14.3537 28.5329 14.4457 28.4024 14.5957C28.2718 14.7457 28.2062 14.9414 28.22 15.1398C28.3347 16.744 28.1319 18.3551 27.623 19.8808C27.5847 19.9758 27.5662 20.0777 27.5688 20.1801C27.5713 20.2826 27.5948 20.3834 27.6378 20.4764C27.6807 20.5694 27.7423 20.6527 27.8186 20.721C27.8949 20.7894 27.9844 20.8414 28.0816 20.8738C28.1788 20.9063 28.2816 20.9185 28.3837 20.9098C28.4858 20.901 28.585 20.8715 28.6752 20.8229C28.7655 20.7744 28.8448 20.708 28.9084 20.6276C28.972 20.5473 29.0185 20.4548 29.045 20.3558C29.616 18.6438 29.8436 16.836 29.715 15.0358L29.716 15.0348ZM25.014 5.59781C24.8629 5.46946 24.6675 5.40542 24.4697 5.41944C24.2719 5.43346 24.0875 5.52442 23.956 5.67281C23.8256 5.82306 23.7603 6.01893 23.7744 6.21735C23.7884 6.41576 23.8807 6.60046 24.031 6.73081C25.2463 7.78395 26.2419 9.06642 26.961 10.5048C27.0508 10.6812 27.2066 10.8149 27.3945 10.8769C27.5825 10.9389 27.7873 10.924 27.9644 10.8356C28.1414 10.7472 28.2764 10.5924 28.3398 10.405C28.4032 10.2175 28.39 10.0126 28.303 9.83481C27.4961 8.21985 26.3784 6.78 25.014 5.59781ZM25.26 24.0178L25.245 24.0358C24.1944 25.2494 22.9142 26.2431 21.478 26.9598C21.3891 27.0033 21.3097 27.064 21.2443 27.1384C21.179 27.2127 21.129 27.2993 21.0973 27.3931C21.0656 27.4868 21.0528 27.5859 21.0595 27.6847C21.0663 27.7834 21.0925 27.8799 21.1367 27.9684C21.181 28.057 21.2423 28.1359 21.3171 28.2007C21.392 28.2654 21.4789 28.3147 21.5729 28.3457C21.6669 28.3767 21.7661 28.3888 21.8648 28.3812C21.9635 28.3737 22.0598 28.3467 22.148 28.3018C23.7567 27.4992 25.1911 26.387 26.369 25.0288C26.4956 24.8808 26.5597 24.6893 26.5476 24.4948C26.5355 24.3004 26.4483 24.1183 26.3043 23.987C26.1603 23.8558 25.9709 23.7857 25.7762 23.7916C25.5815 23.7976 25.3967 23.879 25.261 24.0188L25.26 24.0178ZM20.327 2.94481C18.6129 2.38201 16.8056 2.15818 15.006 2.28581C14.9077 2.29279 14.8117 2.31907 14.7235 2.36316C14.6354 2.40725 14.5568 2.46828 14.4923 2.54276C14.4277 2.61725 14.3785 2.70372 14.3474 2.79725C14.3163 2.89077 14.3039 2.98951 14.311 3.08781C14.3278 3.28502 14.421 3.46787 14.5706 3.59747C14.7201 3.72707 14.9144 3.79321 15.112 3.78181C16.7165 3.665 18.3283 3.86444 19.856 4.36881C19.9495 4.39981 20.0482 4.41208 20.1464 4.40493C20.2447 4.39778 20.3405 4.37135 20.4286 4.32715C20.6063 4.23788 20.7414 4.08165 20.804 3.89281C20.835 3.79931 20.8472 3.70062 20.8401 3.60238C20.8329 3.50414 20.8065 3.40826 20.7623 3.32023C20.7181 3.2322 20.657 3.15374 20.5825 3.08933C20.508 3.02491 20.4215 2.97581 20.328 2.94481H20.327Z"/></svg>