<svg width="32" height="32" viewBox="0 0 32 32" fill="none" xmlns="http://www.w3.org/2000/svg">
<path d="M5.26772 21.375C5.1491 21.1378 4.94109 20.9573 4.68946 20.8735C4.43782 20.7896 4.16317 20.8091 3.92592 20.9277C3.68867 21.0463 3.50826 21.2543 3.42437 21.506C3.34049 21.7576 3.36 22.0323 3.47862 22.2695C4.28468 23.8876 5.4011 25.3313 6.76432 26.5185C6.79022 26.5449 6.83262 26.582 6.86142 26.6054C7.03582 26.7452 7.2527 26.8213 7.47622 26.8212C7.68098 26.8208 7.88071 26.7577 8.04858 26.6405C8.21646 26.5232 8.34445 26.3574 8.41536 26.1654C8.48627 25.9733 8.49671 25.7641 8.44527 25.5659C8.39384 25.3677 8.28299 25.19 8.12762 25.0566C6.94154 24.0294 5.9697 22.7783 5.26772 21.375Z" fill="black"/>
<path d="M4.03092 16.8584C4.00992 16.5712 3.99962 16.2831 4.00002 15.9941C3.99933 14.7098 4.20529 13.4337 4.61002 12.2148C4.69368 11.963 4.67391 11.6884 4.55505 11.4512C4.43618 11.214 4.22797 11.0338 3.97622 10.9501C3.72446 10.8664 3.44978 10.8862 3.2126 11.0051C2.97543 11.1239 2.79518 11.3321 2.71152 11.5839C2.23977 13.0057 1.99954 14.4941 2.00002 15.9921C1.99948 16.33 2.01138 16.6669 2.03572 17.0029C2.05398 17.2548 2.16687 17.4904 2.35171 17.6625C2.53656 17.8346 2.77967 17.9304 3.03222 17.9306C3.05622 17.9306 3.08062 17.9296 3.10502 17.9277C3.23603 17.9183 3.36391 17.8832 3.48135 17.8244C3.5988 17.7655 3.7035 17.6842 3.78948 17.5849C3.87546 17.4856 3.94104 17.3703 3.98247 17.2456C4.02389 17.121 4.04036 16.9894 4.03092 16.8584Z" fill="black"/>
<path d="M16.8522 27.9687C15.2801 28.0822 13.701 27.8847 12.2052 27.3877C11.9535 27.304 11.6788 27.3238 11.4416 27.4427C11.2045 27.5615 11.0242 27.7697 10.9406 28.0215C10.8569 28.2732 10.8767 28.5479 10.9955 28.785C11.1144 29.0222 11.3226 29.2024 11.5743 29.2861C13.0006 29.76 14.4938 30.0011 15.9967 30C16.3287 29.999 16.6601 29.9873 16.9908 29.9648C17.2554 29.9462 17.5018 29.8234 17.6759 29.6232C17.85 29.4231 17.9374 29.162 17.9191 28.8974C17.8964 28.6345 17.7725 28.3906 17.5734 28.2173C17.3744 28.0441 17.1158 27.9549 16.8522 27.9687Z" fill="black"/>
<path d="M11.0636 3.9287C11.0049 3.81113 10.9236 3.7063 10.8243 3.62025C10.725 3.53419 10.6097 3.46859 10.485 3.42721C10.3603 3.38584 10.2286 3.3695 10.0975 3.37915C9.96649 3.38879 9.83864 3.42422 9.72132 3.4834C8.10703 4.28905 6.66668 5.40388 5.48202 6.7646C5.45762 6.789 5.41522 6.8369 5.39372 6.8632C5.27719 7.00973 5.20433 7.18614 5.18352 7.37219C5.1627 7.55825 5.19476 7.7464 5.27603 7.91506C5.35729 8.08372 5.48446 8.22605 5.64295 8.32571C5.80143 8.42537 5.9848 8.47832 6.17202 8.4785C6.31825 8.47846 6.46279 8.44716 6.59594 8.38669C6.72908 8.32622 6.84776 8.23799 6.94402 8.1279C7.96919 6.94352 9.21753 5.97259 10.6178 5.2705C10.8548 5.15164 11.0349 4.94352 11.1185 4.6919C11.2021 4.44028 11.1824 4.16576 11.0636 3.9287Z" fill="black"/>
<path d="M29.9654 15.0175C29.9468 14.7529 29.8238 14.5066 29.6235 14.3327C29.4232 14.1588 29.1621 14.0716 28.8975 14.0903C28.6329 14.109 28.3866 14.2319 28.2127 14.4322C28.0389 14.6325 27.9517 14.8936 27.9703 15.1582C27.9903 15.4404 28.0003 15.7229 28.0003 16.0058C28.0011 17.2963 27.7935 18.5784 27.3856 19.8027C27.3017 20.0543 27.3212 20.3289 27.4398 20.5662C27.5583 20.8035 27.7663 20.9839 28.0179 21.0678C28.2695 21.1517 28.5442 21.1322 28.7814 21.0137C29.0187 20.8951 29.1991 20.6871 29.283 20.4355C29.7591 19.0072 30.0012 17.5113 30 16.0058C30 15.6757 29.9885 15.3463 29.9654 15.0175Z" fill="black"/>
<path d="M21.0406 3.9716C21.124 3.71987 21.104 3.44533 20.9849 3.20837C20.8659 2.97141 20.6576 2.79142 20.4059 2.708C18.6612 2.13204 16.8204 1.90409 14.9879 2.0371C14.7234 2.05597 14.4773 2.17912 14.3036 2.37945C14.1299 2.57979 14.0428 2.84091 14.0616 3.1054C14.0696 3.23688 14.1038 3.36544 14.1621 3.48353C14.2204 3.60163 14.3018 3.70689 14.4013 3.79312C14.5009 3.87936 14.6167 3.94484 14.7419 3.98572C14.8671 4.02661 14.9992 4.04207 15.1305 4.0312C16.702 3.91808 18.2805 4.11348 19.777 4.6064C19.8785 4.63985 19.9846 4.657 20.0914 4.6572C20.3016 4.65718 20.5065 4.59093 20.6769 4.46785C20.8473 4.34477 20.9745 4.17114 21.0406 3.9716Z" fill="black"/>
<path d="M25.0734 23.8535L25.0563 23.872C24.0272 25.0607 22.7731 26.0341 21.3663 26.7363C21.1648 26.837 21.0032 27.0029 20.9077 27.2069C20.8122 27.411 20.7884 27.6413 20.8401 27.8606C20.8919 28.0799 21.0162 28.2752 21.1929 28.415C21.3696 28.5548 21.5883 28.6309 21.8136 28.6308C21.9683 28.6311 22.1208 28.595 22.2589 28.5254C23.8962 27.709 25.3563 26.5776 26.5558 25.1962C26.59 25.1586 26.6213 25.1185 26.6495 25.0762C26.7894 24.8659 26.8445 24.6103 26.8038 24.361C26.763 24.1117 26.6294 23.8871 26.4298 23.7322C26.2302 23.5774 25.9794 23.5038 25.7278 23.5263C25.4761 23.5489 25.2424 23.6657 25.0734 23.8535Z" fill="black"/>
<path d="M28.112 11.1189C28.2296 11.0604 28.3345 10.9792 28.4207 10.8801C28.5069 10.7809 28.5727 10.6657 28.6143 10.5411C28.6559 10.4165 28.6725 10.285 28.6632 10.1539C28.6539 10.0229 28.6188 9.89496 28.56 9.7775C27.8867 8.4309 27.0002 7.20193 25.9349 6.1381C25.7016 5.90476 25.4605 5.68 25.2116 5.4638C25.0114 5.28987 24.7502 5.20262 24.4856 5.22124C24.221 5.23986 23.9746 5.36283 23.8007 5.5631C23.6268 5.76336 23.5395 6.02452 23.5582 6.28911C23.5768 6.55371 23.6998 6.80007 23.9 6.974C24.1138 7.1594 24.3204 7.35216 24.52 7.5523C25.4331 8.46423 26.1928 9.51762 26.77 10.6718C26.8287 10.7894 26.9099 10.8942 27.0091 10.9804C27.1084 11.0665 27.2236 11.1322 27.3483 11.1738C27.4729 11.2153 27.6045 11.2318 27.7356 11.2224C27.8667 11.213 27.9946 11.1778 28.112 11.1189Z" fill="black"/>
</svg>
