<svg width="32" height="32" viewBox="0 0 32 32" fill="none" xmlns="http://www.w3.org/2000/svg">
<path d="M22.0001 2.24958H10.0001C8.74078 2.25101 7.53343 2.75191 6.64294 3.6424C5.75246 4.53289 5.25155 5.74024 5.25012 6.99958V24.9996C5.25155 26.2589 5.75246 27.4663 6.64294 28.3568C7.53343 29.2472 8.74078 29.7482 10.0001 29.7496H22.0001C23.2595 29.7482 24.4668 29.2472 25.3573 28.3568C26.2478 27.4663 26.7487 26.2589 26.7501 24.9996V6.99958C26.7487 5.74024 26.2478 4.53289 25.3573 3.6424C24.4668 2.75191 23.2595 2.25101 22.0001 2.24958ZM6.75012 12.7496H25.2501V19.2496H6.75012V12.7496ZM10.0001 3.74958H22.0001C22.8618 3.75058 23.6878 4.0933 24.2971 4.70258C24.9064 5.31186 25.2491 6.13793 25.2501 6.99958V11.2496H6.75012V6.99958C6.75112 6.13793 7.09385 5.31186 7.70312 4.70258C8.3124 4.0933 9.13847 3.75058 10.0001 3.74958ZM22.0001 28.2496H10.0001C9.13847 28.2486 8.3124 27.9059 7.70313 27.2966C7.09385 26.6873 6.75112 25.8612 6.75012 24.9996V20.7496H25.2501V24.9996C25.2491 25.8612 24.9064 26.6873 24.2971 27.2966C23.6878 27.9059 22.8618 28.2486 22.0001 28.2496Z" fill="black"/>
<path d="M10.496 8.75013C11.1863 8.75013 11.746 8.19049 11.746 7.50013C11.746 6.80977 11.1863 6.25013 10.496 6.25013C9.80562 6.25013 9.24597 6.80977 9.24597 7.50013C9.24597 8.19049 9.80562 8.75013 10.496 8.75013Z" fill="black"/>
</svg>
