<svg xmlns="http://www.w3.org/2000/svg" width="32" height="32" viewBox="0 0 32 32"><path d="M22 28.5H10C9.07207 28.4989 8.18244 28.1299 7.5263 27.4737C6.87015 26.8176 6.50106 25.9279 6.5 25V20.5H18.413L17.413 19.5H6.5V8.586L5.5 7.586V25C5.50132 26.1931 5.97585 27.3369 6.81948 28.1805C7.66311 29.0241 8.80693 29.4987 10 29.5H22C22.6994 29.4981 23.3886 29.3325 24.0125 29.0164C24.6364 28.7004 25.1777 28.2427 25.593 27.68L24.887 26.973C24.5664 27.4433 24.1359 27.8282 23.6328 28.0943C23.1297 28.3605 22.5692 28.4997 22 28.5ZM10.5 8.5C10.7652 8.5 11.0196 8.39464 11.2071 8.20711C11.3946 8.01957 11.5 7.76522 11.5 7.5C11.5 7.23478 11.3946 6.98043 11.2071 6.79289C11.0196 6.60536 10.7652 6.5 10.5 6.5C10.2348 6.5 9.98043 6.60536 9.79289 6.79289C9.60536 6.98043 9.5 7.23478 9.5 7.5C9.5 7.76522 9.60536 8.01957 9.79289 8.20711C9.98043 8.39464 10.2348 8.5 10.5 8.5Z M28.3542 27.646L26.4272 25.72C26.4712 25.482 26.4952 25.241 26.5002 25V7C26.4989 5.80693 26.0244 4.66311 25.1808 3.81948C24.3371 2.97585 23.1933 2.50132 22.0002 2.5H10.0002C9.129 2.50145 8.2769 2.75573 7.54735 3.23199C6.81779 3.70824 6.24214 4.38599 5.89024 5.183L4.35424 3.646C4.26047 3.55226 4.13332 3.49961 4.00074 3.49961C3.86816 3.49961 3.741 3.55226 3.64724 3.646C3.56989 3.72448 3.52106 3.82662 3.50856 3.9361C3.49605 4.04558 3.52058 4.15609 3.57824 4.25C3.59671 4.28716 3.6199 4.32178 3.64724 4.353L27.6472 28.353C27.6772 28.38 27.7122 28.403 27.7482 28.421C27.8519 28.4848 27.9754 28.5081 28.0952 28.4866C28.215 28.4651 28.3226 28.4002 28.3976 28.3043C28.4726 28.2085 28.5096 28.0883 28.5016 27.9669C28.4936 27.8454 28.4411 27.7312 28.3542 27.646ZM6.67424 5.966C6.89324 5.25403 7.33411 4.63072 7.93247 4.18708C8.53084 3.74343 9.25535 3.50269 10.0002 3.5H22.0002C22.9282 3.50106 23.8178 3.87015 24.4739 4.5263C25.1301 5.18244 25.4992 6.07207 25.5002 7V11.5H12.2072L6.67424 5.966ZM13.2072 12.5H25.5002V19.5H20.2072L13.2072 12.5ZM21.2072 20.5H25.5002V24.793L21.2072 20.5Z"/></svg>