<svg xmlns="http://www.w3.org/2000/svg" width="32" height="32" viewBox="0 0 32 32"><path d="M22 2.5H10C8.80693 2.50132 7.66311 2.97585 6.81948 3.81948C5.97585 4.66311 5.50132 5.80693 5.5 7V25C5.50132 26.1931 5.97585 27.3369 6.81948 28.1805C7.66311 29.0241 8.80693 29.4987 10 29.5H22C23.1931 29.4987 24.3369 29.0241 25.1805 28.1805C26.0241 27.3369 26.4987 26.1931 26.5 25V7C26.4987 5.80693 26.0241 4.66311 25.1805 3.81948C24.3369 2.97585 23.1931 2.50132 22 2.5ZM6.5 12.5H25.5V19.5H6.5V12.5ZM10 3.5H22C22.9279 3.50132 23.8173 3.8705 24.4734 4.52659C25.1295 5.18268 25.4987 6.07215 25.5 7V11.5H6.5V7C6.50106 6.07207 6.87015 5.18244 7.5263 4.5263C8.18244 3.87015 9.07207 3.50106 10 3.5ZM22 28.5H10C9.07207 28.4989 8.18244 28.1299 7.5263 27.4737C6.87015 26.8176 6.50106 25.9279 6.5 25V20.5H25.5V25C25.4989 25.9279 25.1299 26.8176 24.4737 27.4737C23.8176 28.1299 22.9279 28.4989 22 28.5Z M10.4961 8.5C10.7613 8.5 11.0157 8.39464 11.2032 8.20711C11.3907 8.01957 11.4961 7.76522 11.4961 7.5C11.4961 7.23478 11.3907 6.98043 11.2032 6.79289C11.0157 6.60536 10.7613 6.5 10.4961 6.5C10.2309 6.5 9.97652 6.60536 9.78899 6.79289C9.60145 6.98043 9.49609 7.23478 9.49609 7.5C9.49609 7.76522 9.60145 8.01957 9.78899 8.20711C9.97652 8.39464 10.2309 8.5 10.4961 8.5Z"/></svg>