<svg width="32" height="32" viewBox="0 0 32 32" fill="none" xmlns="http://www.w3.org/2000/svg">
<path d="M23.0001 1.99958C21.6157 1.99958 20.2623 2.41012 19.1111 3.17929C17.96 3.94846 17.0628 5.04171 16.533 6.3208C16.0032 7.59988 15.8645 9.00735 16.1346 10.3652C16.4047 11.7231 17.0714 12.9704 18.0504 13.9493C19.0293 14.9283 20.2766 15.595 21.6345 15.8651C22.9924 16.1352 24.3998 15.9966 25.6789 15.4667C26.958 14.9369 28.0512 14.0397 28.8204 12.8886C29.5896 11.7374 30.0001 10.3841 30.0001 8.99958C29.998 7.14373 29.2598 5.36451 27.9475 4.05222C26.6352 2.73994 24.856 2.00174 23.0001 1.99958ZM23.0001 13.9996C22.0112 13.9996 21.0445 13.7063 20.2223 13.1569C19.4 12.6075 18.7592 11.8266 18.3807 10.913C18.0023 9.99937 17.9033 8.99403 18.0962 8.02413C18.2891 7.05422 18.7653 6.16331 19.4646 5.46405C20.1638 4.76478 21.0548 4.28858 22.0247 4.09565C22.9946 3.90273 23.9999 4.00174 24.9135 4.38018C25.8272 4.75862 26.6081 5.39948 27.1575 6.22173C27.7069 7.04397 28.0001 8.01067 28.0001 8.99958C27.9986 10.3252 27.4713 11.596 26.5339 12.5334C25.5966 13.4707 24.3257 13.998 23.0001 13.9996Z" fill="black"/>
<path d="M23.0001 4.99958C22.4934 4.99769 21.9947 5.12579 21.5516 5.37165C21.1085 5.61751 20.7359 5.97291 20.4694 6.40387C20.1883 6.8545 20.0274 7.36963 20.002 7.90012C19.9767 8.4306 20.0876 8.95874 20.3244 9.43415L21.6437 12.1656L21.6671 12.2125C21.7983 12.4512 21.9913 12.6503 22.2258 12.789C22.4603 12.9276 22.7277 13.0007 23.0001 13.0006C23.2807 12.9984 23.5552 12.9196 23.7942 12.7726C24.0331 12.6256 24.2272 12.416 24.3556 12.1665L25.6759 9.4351C25.9138 8.95744 26.0257 8.42694 26.0011 7.89389C25.9765 7.36085 25.8162 6.84292 25.5353 6.38921C25.2661 5.9608 24.8919 5.60827 24.4482 5.36507C24.0045 5.12187 23.5061 4.99606 23.0001 4.99958ZM23.8751 8.56403L23.0001 10.3765L22.1212 8.55719C22.0346 8.38563 21.9935 8.19474 22.0017 8.00274C22.0099 7.81074 22.0672 7.62405 22.1681 7.46051C22.2574 7.32 22.3806 7.20417 22.5263 7.12363C22.672 7.0431 22.8356 7.00044 23.0021 6.99956C23.1686 6.99869 23.3327 7.03963 23.4792 7.11863C23.6258 7.19763 23.7502 7.31217 23.8409 7.45173C23.9407 7.61895 23.9962 7.80883 24.0021 8.00344C24.0081 8.19805 23.9644 8.391 23.8751 8.56403Z" fill="black"/>
<path d="M26.0001 17.9996C25.8688 17.9995 25.7387 18.0253 25.6173 18.0755C25.496 18.1258 25.3857 18.1994 25.2928 18.2923C25.2 18.3852 25.1263 18.4954 25.0761 18.6168C25.0259 18.7382 25 18.8682 25.0001 18.9996H7.00012V12.9996H13.0001C13.2653 12.9996 13.5197 12.8942 13.7072 12.7067C13.8948 12.5192 14.0001 12.2648 14.0001 11.9996C14.0001 11.7344 13.8948 11.48 13.7072 11.2925C13.5197 11.1049 13.2653 10.9996 13.0001 10.9996H7.00012V6.99958C7.00099 6.2042 7.31734 5.44164 7.87976 4.87922C8.44218 4.3168 9.20474 4.00045 10.0001 3.99958H15.0001C15.2653 3.99958 15.5197 3.89422 15.7072 3.70669C15.8948 3.51915 16.0001 3.2648 16.0001 2.99958C16.0001 2.73436 15.8948 2.48001 15.7072 2.29247C15.5197 2.10494 15.2653 1.99958 15.0001 1.99958H10.0001C8.67452 2.00114 7.40365 2.52842 6.46631 3.46577C5.52896 4.40311 5.00168 5.67398 5.00012 6.99958V24.9996C5.00168 26.3252 5.52897 27.596 6.46631 28.5334C7.40365 29.4707 8.67452 29.998 10.0001 29.9996H22.0001C23.3257 29.998 24.5966 29.4707 25.5339 28.5334C26.4713 27.596 26.9986 26.3252 27.0001 24.9996V18.9996C27.0002 18.8682 26.9744 18.7382 26.9242 18.6168C26.8739 18.4954 26.8003 18.3852 26.7074 18.2923C26.6145 18.1994 26.5043 18.1258 26.3829 18.0755C26.2615 18.0253 26.1315 17.9995 26.0001 17.9996ZM25.0001 24.9996C24.9993 25.795 24.6829 26.5575 24.1205 27.1199C23.5581 27.6824 22.7955 27.9987 22.0001 27.9996H10.0001C9.20474 27.9987 8.44218 27.6824 7.87976 27.1199C7.31734 26.5575 7.00099 25.795 7.00012 24.9996V20.9996H25.0001V24.9996Z" fill="black"/>
<path d="M10.496 9.00013C11.3244 9.00013 11.996 8.32856 11.996 7.50013C11.996 6.6717 11.3244 6.00013 10.496 6.00013C9.66754 6.00013 8.99597 6.6717 8.99597 7.50013C8.99597 8.32856 9.66754 9.00013 10.496 9.00013Z" fill="black"/>
</svg>
