<svg width="32" height="32" viewBox="0 0 32 32" fill="none" xmlns="http://www.w3.org/2000/svg">
<path d="M22.0001 28.4996H10.0001C9.07217 28.4985 8.18259 28.1293 7.52645 27.4732C6.87032 26.8171 6.50121 25.9275 6.50008 24.9996V20.4996H18.4134L17.4134 19.4996H6.50008V8.58606L5.50008 7.58606V24.9996C5.50139 26.1927 5.97591 27.3365 6.81954 28.1801C7.66317 29.0238 8.80701 29.4983 10.0001 29.4996H22.0001C22.6995 29.4977 23.3888 29.3321 24.0127 29.0161C24.6367 28.7001 25.1781 28.2425 25.5935 27.6799L24.8866 26.973C24.566 27.4431 24.1355 27.8278 23.6325 28.0938C23.1294 28.3599 22.5691 28.4991 22.0001 28.4996Z" fill="black"/>
<path d="M10.5005 8.49945C11.0528 8.49945 11.5005 8.05173 11.5005 7.49945C11.5005 6.94717 11.0528 6.49945 10.5005 6.49945C9.94823 6.49945 9.50051 6.94717 9.50051 7.49945C9.50051 8.05173 9.94823 8.49945 10.5005 8.49945Z" fill="black"/>
<path d="M28.3536 27.6461L26.4273 25.7197C26.471 25.482 26.4954 25.2412 26.5001 24.9996V6.99958C26.4988 5.80651 26.0243 4.66267 25.1806 3.81904C24.337 2.97541 23.1932 2.50088 22.0001 2.49958H10.0001C9.12887 2.50116 8.27684 2.75553 7.54736 3.23184C6.81788 3.70815 6.24231 4.38592 5.89046 5.18293L4.35359 3.64606C4.30718 3.59963 4.25207 3.56279 4.19141 3.53766C4.13076 3.51253 4.06575 3.49959 4.00009 3.49959C3.93444 3.49959 3.86943 3.51253 3.80877 3.53766C3.74812 3.56279 3.69301 3.59963 3.64659 3.64606C3.56932 3.72456 3.52057 3.82669 3.50815 3.93615C3.49573 4.0456 3.52034 4.15606 3.57805 4.24988C3.59636 4.28709 3.6194 4.32178 3.64659 4.35309L27.6466 28.3531C27.6775 28.3799 27.7117 28.4026 27.7484 28.4207C27.852 28.4845 27.9755 28.5079 28.0952 28.4864C28.215 28.4649 28.3226 28.4 28.3975 28.3041C28.4724 28.2082 28.5093 28.0881 28.5012 27.9667C28.4932 27.8453 28.4406 27.7311 28.3536 27.6461ZM6.67366 5.96613C6.89263 5.25401 7.33353 4.63055 7.93197 4.1868C8.53042 3.74305 9.25507 3.50226 10.0001 3.49958H22.0001C22.928 3.5007 23.8176 3.86981 24.4737 4.52595C25.1299 5.18208 25.499 6.07167 25.5001 6.99958V11.4996H12.2071L6.67366 5.96613ZM13.2071 12.4996H25.5001V19.4996H20.2071L13.2071 12.4996ZM21.2071 20.4996H25.5001V24.7926L21.2071 20.4996Z" fill="black"/>
</svg>
