<svg width="32" height="32" viewBox="0 0 32 32" fill="none" xmlns="http://www.w3.org/2000/svg">
<path d="M22.0001 27.9996H10.0001C9.20469 27.9987 8.44213 27.6824 7.87971 27.1199C7.31729 26.5575 7.00094 25.795 7.00007 24.9996V20.9996H16.7657L14.7657 18.9996H7.00007V11.234L5.00007 9.234V24.9996C5.00163 26.3252 5.52892 27.5961 6.46626 28.5334C7.40361 29.4707 8.67447 29.998 10.0001 29.9996H22.0001C23.0235 29.9988 24.0216 29.6817 24.8577 29.0916L23.4018 27.6357C22.9719 27.8711 22.4902 27.9961 22.0001 27.9996Z" fill="black"/>
<path d="M28.7071 27.2925L26.9463 25.5317C26.9739 25.3555 26.9919 25.1778 27.0001 24.9996V6.99958C26.9985 5.67398 26.4712 4.40311 25.5339 3.46577C24.5965 2.52842 23.3257 2.00114 22.0001 1.99958H10.0001C9.15316 2.00149 8.32068 2.219 7.58107 2.63161C6.84147 3.04422 6.21909 3.63834 5.77259 4.358L4.7071 3.29255C4.51959 3.10503 4.26526 2.99969 4.00007 2.99969C3.73489 2.99969 3.48056 3.10503 3.29304 3.29255C3.10553 3.48007 3.00018 3.73439 3.00018 3.99958C3.00018 4.13089 3.02605 4.26091 3.0763 4.38222C3.12654 4.50353 3.2002 4.61376 3.29304 4.70661L27.293 28.7066C27.2999 28.7135 27.3093 28.7154 27.3163 28.722C27.5065 28.9029 27.7604 29.0015 28.0229 28.9964C28.2854 28.9913 28.5352 28.8829 28.7183 28.6947C28.9013 28.5066 29.0028 28.2539 29.0007 27.9914C28.9986 27.7289 28.8931 27.4778 28.7071 27.2925ZM10.4043 8.98975C10.4367 8.99183 10.4675 8.99945 10.5005 8.99945C10.7972 8.99945 11.0872 8.91148 11.3339 8.74665C11.5805 8.58183 11.7728 8.34756 11.8863 8.07348C11.9999 7.79939 12.0296 7.49779 11.9717 7.20681C11.9138 6.91584 11.7709 6.64857 11.5612 6.43879C11.3514 6.22901 11.0841 6.08615 10.7931 6.02827C10.5022 5.97039 10.2006 6.0001 9.92648 6.11363C9.65239 6.22716 9.41812 6.41942 9.2533 6.6661C9.08848 6.91277 9.0005 7.20278 9.0005 7.49945C9.0005 7.53245 9.00812 7.56324 9.0102 7.59565L7.2402 5.82565C7.47085 5.28445 7.85535 4.82289 8.34598 4.49827C8.83661 4.17364 9.41177 4.00024 10.0001 3.99958H22.0001C22.7955 4.00045 23.558 4.3168 24.1204 4.87922C24.6829 5.44164 24.9992 6.2042 25.0001 6.99958V10.9996H12.4141L10.4043 8.98975ZM14.4141 12.9996H25.0001V18.9996H20.4141L14.4141 12.9996ZM22.4141 20.9996H25.0001V23.5855L22.4141 20.9996Z" fill="black"/>
</svg>
