<svg xmlns="http://www.w3.org/2000/svg" width="32" height="32" viewBox="0 0 32 32"><path d="M16 10C14.8133 10 13.6533 10.3519 12.6666 11.0112C11.6799 11.6705 10.9109 12.6075 10.4567 13.7039C10.0026 14.8003 9.88378 16.0067 10.1153 17.1705C10.3468 18.3344 10.9182 19.4035 11.7574 20.2426C12.5965 21.0818 13.6656 21.6532 14.8295 21.8847C15.9933 22.1162 17.1997 21.9974 18.2961 21.5433C19.3925 21.0892 20.3295 20.3201 20.9888 19.3334C21.6481 18.3467 22 17.1867 22 16C21.9984 14.4092 21.3658 12.884 20.2409 11.7591C19.116 10.6342 17.5908 10.0016 16 10ZM16 20C14.9391 20 13.9217 19.5786 13.1716 18.8284C12.4214 18.0783 12 17.0609 12 16C12 14.9391 12.4214 13.9217 13.1716 13.1716C13.9217 12.4214 14.9391 12 16 12C17.0609 12 18.0783 12.4214 18.8284 13.1716C19.5786 13.9217 20 14.9391 20 16C20 17.0609 19.5786 18.0783 18.8284 18.8284C18.0783 19.5786 17.0609 20 16 20Z M28 13H25.672L25.004 11.368L26.666 9.737C27.0445 9.36554 27.26 8.85893 27.2651 8.32859C27.2702 7.79826 27.0644 7.28762 26.693 6.909L25.292 5.479C24.9194 5.10188 24.4128 4.88755 23.8827 4.88287C23.3526 4.87818 22.8422 5.08352 22.463 5.454L20.797 7.089L19 6.335V4C18.9992 3.46981 18.7882 2.96156 18.4133 2.58666C18.0384 2.21176 17.5302 2.00079 17 2H15C14.4697 2.00053 13.9613 2.21141 13.5864 2.58637C13.2114 2.96133 13.0005 3.46973 13 4V6.331L11.285 7.042L9.636 5.394C9.26064 5.01924 8.75191 4.80875 8.2215 4.80875C7.69109 4.80875 7.18236 5.01924 6.807 5.394L5.393 6.808C5.0183 7.18319 4.80784 7.69175 4.80784 8.222C4.80784 8.75225 5.0183 9.26081 5.393 9.636L7.043 11.285L6.332 13H4C3.46981 13.0008 2.96156 13.2118 2.58666 13.5867C2.21176 13.9616 2.00079 14.4698 2 15V17C2.00053 17.5303 2.21141 18.0387 2.58637 18.4136C2.96133 18.7886 3.46973 18.9995 4 19H6.332L7.042 20.715L5.393 22.364C5.01824 22.7394 4.80775 23.2481 4.80775 23.7785C4.80775 24.3089 5.01824 24.8176 5.393 25.193L6.807 26.607C7.18266 26.9816 7.69151 27.1919 8.222 27.1919C8.75249 27.1919 9.26134 26.9816 9.637 26.607L11.285 24.957L13 25.668V28C13.0008 28.5302 13.2118 29.0384 13.5867 29.4133C13.9616 29.7882 14.4698 29.9992 15 30H17C17.5302 29.9992 18.0384 29.7882 18.4133 29.4133C18.7882 29.0384 18.9992 28.5302 19 28V25.668L20.715 24.958L22.364 26.607C22.7394 26.9812 23.2479 27.1913 23.778 27.1913C24.3081 27.1913 24.8166 26.9812 25.192 26.607L26.608 25.192C26.9817 24.8162 27.1913 24.3076 27.1909 23.7776C27.1905 23.2476 26.9802 22.7393 26.606 22.364L24.958 20.715L25.668 19H28C28.5302 18.9992 29.0384 18.7882 29.4133 18.4133C29.7882 18.0384 29.9992 17.5302 30 17V15C29.9992 14.4698 29.7882 13.9616 29.4133 13.5867C29.0384 13.2118 28.5302 13.0008 28 13ZM28 17H25.669C25.2731 16.9989 24.8859 17.1158 24.5567 17.3358C24.2276 17.5558 23.9714 17.8688 23.821 18.235L23.109 19.951C22.9577 20.3163 22.9183 20.7183 22.9958 21.1061C23.0732 21.4938 23.264 21.8498 23.544 22.129L25.193 23.779L23.778 25.193L22.13 23.543C21.8503 23.2632 21.4938 23.0727 21.1057 22.9956C20.7177 22.9185 20.3154 22.9583 19.95 23.11L18.236 23.82C17.8698 23.9705 17.5567 24.2266 17.3365 24.5558C17.1164 24.8849 16.9993 25.2721 17 25.668V28H15V25.668C15.0009 25.2723 14.8839 24.8853 14.6639 24.5563C14.444 24.2274 14.131 23.9714 13.765 23.821L12.049 23.109C11.6838 22.9576 11.2818 22.9181 10.8941 22.9953C10.5064 23.0726 10.1503 23.2632 9.871 23.543L8.221 25.193L6.807 23.778L8.457 22.129C8.73716 21.8495 8.9279 21.493 9.005 21.1048C9.0821 20.7167 9.04207 20.3144 8.89 19.949L8.18 18.236C8.02938 17.8699 7.77322 17.5568 7.44413 17.3367C7.11504 17.1166 6.72791 16.9994 6.332 17H4V15H6.332C6.72771 15.0009 7.11473 14.8839 7.44368 14.6639C7.77263 14.444 8.02862 14.131 8.179 13.765L8.89 12.049C9.04217 11.684 9.08226 11.2819 9.00514 10.8941C8.92803 10.5062 8.73722 10.1501 8.457 9.871L6.807 8.222L8.222 6.808L9.871 8.456C10.1505 8.7361 10.507 8.92687 10.8951 9.00414C11.2832 9.0814 11.6855 9.04168 12.051 8.89L13.764 8.18C14.1304 8.02942 14.4436 7.77314 14.6637 7.44383C14.8839 7.11452 15.0009 6.72711 15 6.331V4.001H17V6.335C16.9995 6.72906 17.1157 7.11445 17.3338 7.4426C17.552 7.77075 17.8624 8.02698 18.226 8.179L20.022 8.933C20.3853 9.08593 20.7857 9.12803 21.1729 9.05401C21.5601 8.97999 21.9167 8.79316 22.198 8.517L23.865 6.881L25.265 8.309L23.605 9.939C23.3204 10.2164 23.1252 10.5726 23.0447 10.9618C22.9641 11.351 23.0019 11.7554 23.153 12.123L23.821 13.758C23.9707 14.1257 24.2267 14.4403 24.5563 14.6615C24.8859 14.8828 25.274 15.0006 25.671 15H28V17Z"/></svg>