<svg width="32" height="32" viewBox="0 0 32 32" fill="none" xmlns="http://www.w3.org/2000/svg">
<path d="M16.0005 2.50038C13.3304 2.50038 10.7204 3.29214 8.5003 4.77554C6.28023 6.25894 4.5499 8.36735 3.52812 10.8342C2.50634 13.301 2.23899 16.0154 2.75989 18.6341C3.28079 21.2528 4.56654 23.6583 6.45455 25.5463C8.34256 27.4343 10.748 28.7201 13.3668 29.241C15.9855 29.7619 18.6999 29.4945 21.1667 28.4728C23.6335 27.451 25.7419 25.7206 27.2253 23.5006C28.7087 21.2805 29.5005 18.6704 29.5005 16.0004C29.4966 12.4212 28.073 8.98965 25.5421 6.45875C23.0112 3.92786 19.5797 2.50429 16.0005 2.50038ZM16.0005 28.5004C13.5282 28.5004 11.1115 27.7673 9.05587 26.3937C7.00025 25.0202 5.3981 23.068 4.452 20.7839C3.5059 18.4998 3.25836 15.9865 3.74068 13.5618C4.22299 11.137 5.4135 8.9097 7.16166 7.16155C8.90982 5.41339 11.1371 4.22288 13.5619 3.74056C15.9866 3.25825 18.5 3.50579 20.784 4.45189C23.0681 5.39798 25.0203 7.00014 26.3939 9.05575C27.7674 11.1114 28.5005 13.5281 28.5005 16.0004C28.4968 19.3144 27.1786 22.4917 24.8352 24.8351C22.4918 27.1785 19.3146 28.4967 16.0005 28.5004Z" fill="black"/>
<path d="M8.89795 13.4887C8.93162 13.4961 8.96602 13.4997 9.00049 13.4994C9.11512 13.4993 9.22624 13.4599 9.3153 13.3878C9.40435 13.3156 9.46593 13.215 9.48974 13.1029C9.72943 12.2328 10.1927 11.4406 10.8334 10.805C11.4742 10.1694 12.2701 9.71258 13.1421 9.47992C13.2057 9.46187 13.2651 9.43138 13.3168 9.39023C13.3685 9.34908 13.4116 9.29808 13.4435 9.24018C13.4754 9.18228 13.4955 9.11863 13.5026 9.05291C13.5098 8.98719 13.5038 8.92071 13.4851 8.85731C13.4663 8.79392 13.4352 8.73486 13.3935 8.68356C13.3519 8.63227 13.3004 8.58975 13.2422 8.55846C13.1839 8.52718 13.1201 8.50775 13.0543 8.50131C12.9885 8.49486 12.9221 8.50153 12.8589 8.52092C11.8134 8.80426 10.8611 9.35812 10.0978 10.1267C9.33455 10.8953 8.78732 11.8514 8.51123 12.8988C8.48438 13.0283 8.51003 13.1632 8.58254 13.2738C8.65505 13.3844 8.7685 13.4617 8.89795 13.4887Z" fill="black"/>
<path d="M18.8589 9.47988C19.7311 9.71253 20.5271 10.1695 21.1679 10.8053C21.8087 11.4411 22.2718 12.2335 22.5112 13.1039C22.5354 13.2157 22.5971 13.316 22.6861 13.3879C22.7751 13.4599 22.8861 13.4992 23.0005 13.4994C23.035 13.4997 23.0694 13.4961 23.103 13.4886C23.2325 13.4617 23.346 13.3844 23.4185 13.2738C23.4911 13.1632 23.5167 13.0283 23.4897 12.8988C23.2135 11.8515 22.6661 10.8954 21.9029 10.1269C21.1397 9.35835 20.1875 8.80442 19.1421 8.52087C19.0154 8.4849 18.8796 8.50037 18.7643 8.56392C18.6489 8.62746 18.5633 8.73395 18.526 8.86025C18.4887 8.98655 18.5028 9.12247 18.5651 9.23848C18.6274 9.3545 18.733 9.44125 18.8589 9.47988Z" fill="black"/>
<path d="M13.146 22.5209C12.2739 22.2882 11.4778 21.8313 10.8371 21.1955C10.1963 20.5597 9.73315 19.7672 9.4937 18.8969C9.46641 18.7672 9.38875 18.6537 9.2778 18.5813C9.16685 18.5089 9.03168 18.4834 8.902 18.5106C8.77232 18.5378 8.65873 18.6154 8.5862 18.7262C8.51367 18.8371 8.48812 18.9723 8.51518 19.102C8.79148 20.1493 9.3388 21.1053 10.102 21.8739C10.8653 22.6424 11.8175 23.1963 12.8628 23.4799C12.9088 23.4934 12.9565 23.5003 13.0044 23.5004C13.1246 23.5004 13.2408 23.457 13.3316 23.3784C13.4225 23.2997 13.482 23.1909 13.4992 23.0719C13.5164 22.953 13.4901 22.8318 13.4253 22.7306C13.3604 22.6294 13.2613 22.555 13.146 22.5209Z" fill="black"/>
<path d="M23.1069 18.5121C23.0427 18.4983 22.9764 18.4974 22.9119 18.5093C22.8473 18.5213 22.7857 18.5459 22.7307 18.5817C22.6757 18.6176 22.6283 18.664 22.5913 18.7182C22.5543 18.7725 22.5284 18.8335 22.5151 18.8978C22.2755 19.768 21.8122 20.5602 21.1715 21.1958C20.5307 21.8314 19.7348 22.2882 18.8628 22.5209C18.7475 22.555 18.6484 22.6294 18.5836 22.7306C18.5187 22.8318 18.4925 22.953 18.5097 23.0719C18.5269 23.1909 18.5863 23.2997 18.6772 23.3783C18.768 23.457 18.8842 23.5003 19.0044 23.5004C19.0523 23.5003 19.1 23.4934 19.146 23.4799C20.1915 23.1965 21.1438 22.6427 21.9071 21.8741C22.6703 21.1055 23.2176 20.1494 23.4937 19.102C23.5205 18.9725 23.4949 18.8376 23.4224 18.727C23.3499 18.6164 23.2364 18.5391 23.1069 18.5121Z" fill="black"/>
</svg>
