<svg xmlns="http://www.w3.org/2000/svg" width="32" height="32" viewBox="0 0 32 32"><path d="M11.6321 3.5H7C6.07172 3.5 5.18149 3.8687 4.52513 4.52506C3.86876 5.18143 3.5 6.07173 3.5 7V11.4916L28.5 11.5108V9.96168C28.4993 9.50439 28.4082 9.05174 28.2318 8.62983C28.0555 8.20793 27.7975 7.82514 27.4725 7.50335C27.1476 7.18158 26.7622 6.92726 26.3386 6.75506C25.9149 6.58287 25.4614 6.49618 25.0042 6.49998L25 6.5H16.923L16.9104 6.49984C16.5469 6.49066 16.1896 6.40351 15.8626 6.24435C15.5368 6.08569 15.2487 5.85908 15.0177 5.57995L14.3034 4.73804C13.9749 4.35004 13.5657 4.03833 13.1043 3.82449C12.6429 3.61067 12.1405 3.49994 11.6321 3.5ZM3.5 12.4916V21C3.5 21.9282 3.86874 22.8184 4.52513 23.4748C5.18152 24.1312 6.07176 24.5 7 24.5H10.9805C11.2566 24.5 11.4805 24.7239 11.4805 25C11.4805 25.2761 11.2566 25.5 10.9805 25.5H7C5.80651 25.5 4.66192 25.0258 3.81802 24.1819C2.97411 23.338 2.5 22.1935 2.5 21V7C2.5 5.80653 2.9741 4.66188 3.81802 3.81796C4.66195 2.97403 5.80655 2.5 7 2.5H11.6319C12.2857 2.49993 12.9317 2.6423 13.5248 2.91721C14.1178 3.19207 14.6439 3.59276 15.0664 4.0916L15.7867 4.94066C15.927 5.11075 16.1022 5.24877 16.3004 5.34525C16.4969 5.44091 16.7114 5.49365 16.9298 5.5H24.998C25.5864 5.49539 26.17 5.60707 26.7151 5.82868C27.261 6.05055 27.7575 6.37823 28.1761 6.79279C28.5948 7.20734 28.9273 7.70056 29.1545 8.2442C29.3817 8.78782 29.4991 9.37101 29.5 9.9602V11.9797C29.5007 11.9902 29.501 12.0009 29.501 12.0116C29.501 12.0221 29.5006 12.0325 29.5 12.0428V15.4805C29.5 15.7566 29.2761 15.9805 29 15.9805C28.7239 15.9805 28.5 15.7566 28.5 15.4805V12.5108L3.5 12.4916ZM26.6464 19.6464C26.8417 19.4512 27.1583 19.4512 27.3536 19.6464L29.3536 21.6464C29.5488 21.8417 29.5488 22.1583 29.3536 22.3536L27.3536 24.3536C27.1583 24.5488 26.8417 24.5488 26.6464 24.3536C26.4512 24.1583 26.4512 23.8417 26.6464 23.6464L27.7929 22.5H22.5V27.7929L23.6464 26.6464C23.8417 26.4512 24.1583 26.4512 24.3536 26.6464C24.5488 26.8417 24.5488 27.1583 24.3536 27.3536L22.3536 29.3536C22.1583 29.5488 21.8417 29.5488 21.6464 29.3536L19.6464 27.3536C19.4512 27.1583 19.4512 26.8417 19.6464 26.6464C19.8417 26.4512 20.1583 26.4512 20.3536 26.6464L21.5 27.7929V22.5H16.2071L17.3536 23.6464C17.5488 23.8417 17.5488 24.1583 17.3536 24.3536C17.1583 24.5488 16.8417 24.5488 16.6464 24.3536L14.6464 22.3536C14.4512 22.1583 14.4512 21.8417 14.6464 21.6464L16.6464 19.6464C16.8417 19.4512 17.1583 19.4512 17.3536 19.6464C17.5488 19.8417 17.5488 20.1583 17.3536 20.3536L16.2071 21.5H21.5V16.2071L20.3536 17.3536C20.1583 17.5488 19.8417 17.5488 19.6464 17.3536C19.4512 17.1583 19.4512 16.8417 19.6464 16.6464L21.6464 14.6464C21.8417 14.4512 22.1583 14.4512 22.3536 14.6464L24.3536 16.6464C24.5488 16.8417 24.5488 17.1583 24.3536 17.3536C24.1583 17.5488 23.8417 17.5488 23.6464 17.3536L22.5 16.2071V21.5H27.7929L26.6464 20.3536C26.4512 20.1583 26.4512 19.8417 26.6464 19.6464Z"/></svg>