<svg width="32" height="32" viewBox="0 0 32 32" fill="none" xmlns="http://www.w3.org/2000/svg">
<path d="M20 10.25C19.0997 10.2521 18.2041 10.3795 17.339 10.6284L13.0151 3.1384C12.8615 2.87232 12.6406 2.65135 12.3745 2.49773C12.1085 2.3441 11.8066 2.26322 11.4994 2.26322C11.1922 2.26322 10.8904 2.3441 10.6243 2.49773C10.3583 2.65135 10.1373 2.87232 9.98376 3.1384L2.48616 16.125C2.33259 16.391 2.25173 16.6927 2.25171 16.9999C2.25169 17.307 2.33251 17.6088 2.48605 17.8748C2.6396 18.1408 2.86045 18.3618 3.12642 18.5154C3.39239 18.669 3.69411 18.7499 4.00126 18.75H10.3392C10.086 20.7146 10.4376 22.7097 11.347 24.4694C12.2565 26.2292 13.6805 27.67 15.4295 28.5999C17.1785 29.5299 19.1693 29.9047 21.1368 29.6746C23.1042 29.4445 24.9548 28.6203 26.4419 27.3118C27.9291 26.0033 28.9822 24.2727 29.461 22.3506C29.9397 20.4285 29.8214 18.4061 29.1217 16.553C28.422 14.6998 27.1742 13.1039 25.5445 11.9778C23.9149 10.8518 21.9808 10.2491 20 10.25ZM4.00136 17.25C3.9575 17.25 3.91441 17.2384 3.87644 17.2164C3.83846 17.1945 3.80693 17.1629 3.78501 17.1249C3.7631 17.0869 3.75156 17.0438 3.75157 16.9999C3.75158 16.9561 3.76313 16.913 3.78506 16.875L11.2826 3.8886C11.3045 3.85058 11.3361 3.819 11.3741 3.79704C11.4121 3.77508 11.4552 3.76353 11.4991 3.76353C11.543 3.76353 11.5861 3.77508 11.6242 3.79704C11.6622 3.819 11.6937 3.85058 11.7157 3.8886L15.9136 11.16C14.6547 11.7439 13.5345 12.5889 12.6273 13.6389C11.72 14.6889 11.0464 15.9198 10.6513 17.25H4.00136ZM16.6648 12.4607L19.2133 16.875C19.2352 16.913 19.2467 16.9561 19.2468 16.9999C19.2468 17.0438 19.2352 17.0869 19.2133 17.1249C19.1914 17.1629 19.1599 17.1945 19.1219 17.2164C19.0839 17.2384 19.0408 17.25 18.997 17.25H12.2312C12.6074 16.1931 13.1943 15.2236 13.9564 14.4004C14.7185 13.5771 15.64 12.9172 16.6648 12.4607ZM20 28.25C18.8086 28.2585 17.6297 28.0071 16.5456 27.5132C15.4614 27.0194 14.4979 26.2949 13.7225 25.3905C12.947 24.486 12.3782 23.4233 12.0557 22.2764C11.7331 21.1295 11.6646 19.9261 11.855 18.75H18.997C19.3041 18.7499 19.6059 18.669 19.8718 18.5154C20.1378 18.3618 20.3587 18.1409 20.5122 17.8749C20.6658 17.6088 20.7466 17.3071 20.7466 16.9999C20.7466 16.6928 20.6657 16.391 20.5122 16.125L18.1165 11.975C19.2488 11.7091 20.4246 11.6857 21.5666 11.9064C22.7086 12.1271 23.791 12.5869 24.7427 13.2556C25.6944 13.9242 26.4939 14.7867 27.0887 15.7862C27.6835 16.7858 28.0601 17.8998 28.1938 19.0552C28.3275 20.2107 28.2153 21.3813 27.8645 22.4903C27.5138 23.5993 26.9324 24.6215 26.1586 25.4899C25.3847 26.3582 24.4359 27.0531 23.3745 27.5288C22.3131 28.0045 21.1631 28.2503 20 28.25Z" fill="black"/>
</svg>
