<svg xmlns="http://www.w3.org/2000/svg" width="32" height="32" viewBox="0 0 32 32"><path d="M19.9999 10.5001C19.0569 10.5001 18.1189 10.6401 17.2169 10.9181L12.7979 3.26409C12.6663 3.03608 12.4769 2.84674 12.2489 2.7151C12.0209 2.58346 11.7622 2.51416 11.4989 2.51416C11.2356 2.51416 10.977 2.58346 10.7489 2.7151C10.5209 2.84674 10.3316 3.03608 10.1999 3.26409L2.70292 16.2501C2.57135 16.478 2.50204 16.7365 2.50195 16.9996C2.50186 17.2627 2.57099 17.5212 2.70241 17.7492C2.83382 17.9772 3.02288 18.1666 3.25063 18.2984C3.47838 18.4302 3.73678 18.4997 3.99992 18.5001H10.6289C10.3231 20.4181 10.6128 22.3837 11.459 24.1318C12.3052 25.88 13.6671 27.3266 15.3611 28.2767C17.055 29.2267 18.9996 29.6344 20.9325 29.4447C22.8654 29.2551 24.6937 28.4773 26.1708 27.2162C27.6478 25.9551 28.7026 24.2714 29.1929 22.3921C29.6832 20.5128 29.5855 18.5284 28.9128 16.7064C28.24 14.8844 27.0248 13.3126 25.4309 12.2028C23.837 11.093 21.9411 10.4988 19.9989 10.5001H19.9999ZM4.00092 17.5001C3.91323 17.4999 3.82714 17.4767 3.75127 17.4327C3.6754 17.3888 3.61243 17.3256 3.56866 17.2497C3.5249 17.1737 3.50188 17.0875 3.50193 16.9998C3.50197 16.9122 3.52507 16.826 3.56892 16.7501L11.0659 3.76409C11.11 3.68834 11.1732 3.62548 11.2492 3.58179C11.3252 3.5381 11.4113 3.51511 11.4989 3.51511C11.5866 3.51511 11.6727 3.5381 11.7487 3.58179C11.8246 3.62548 11.8878 3.68834 11.9319 3.76409L16.2639 11.2681C14.9511 11.8341 13.7823 12.6881 12.8441 13.7668C11.9059 14.8455 11.2223 16.1214 10.8439 17.5001H4.00092ZM16.7689 12.1421L19.4299 16.7501C19.4738 16.8261 19.4969 16.9123 19.4969 17.0001C19.4969 17.0879 19.4738 17.1741 19.4299 17.2501C19.386 17.3261 19.3229 17.3892 19.2469 17.4331C19.1709 17.477 19.0847 17.5001 18.9969 17.5001H11.8769C12.2488 16.3026 12.88 15.2017 13.7255 14.2756C14.571 13.3496 15.6101 12.6211 16.7689 12.1421ZM19.9999 28.5001C18.7551 28.5058 17.5244 28.2368 16.3954 27.7123C15.2665 27.1878 14.2672 26.4207 13.4688 25.4656C12.6704 24.5106 12.0925 23.3911 11.7764 22.1871C11.4602 20.9831 11.4137 19.7242 11.6399 18.5001H18.9969C19.2602 18.5001 19.5189 18.4308 19.7469 18.2991C19.9749 18.1675 20.1643 17.9781 20.2959 17.7501C20.4276 17.522 20.4969 17.2634 20.4969 17.0001C20.4969 16.7368 20.4276 16.4781 20.2959 16.2501L17.7359 11.8161C18.9049 11.4914 20.1298 11.4208 21.3283 11.609C22.5268 11.7972 23.6712 12.2399 24.6843 12.9073C25.6975 13.5747 26.556 14.4513 27.202 15.4782C27.8481 16.505 28.2668 17.6583 28.4299 18.8605C28.5931 20.0627 28.4969 21.2859 28.1478 22.4478C27.7988 23.6097 27.2049 24.6834 26.4063 25.5967C25.6076 26.5099 24.6226 27.2416 23.5176 27.7424C22.4126 28.2432 21.2131 28.5015 19.9999 28.5001Z"/></svg>