<svg width="32" height="32" fill="none" xmlns="http://www.w3.org/2000/svg"><path fill-rule="evenodd" clip-rule="evenodd" d="M8.81 11.1519C7.007 12.4632 6 14.1896 6 16c0 1.8104 1.007 3.5368 2.81 4.8481C10.612 22.1587 13.1508 23 16 23c2.8492 0 5.388-.8413 7.19-2.1519C24.993 19.5368 26 17.8104 26 16c0-1.8104-1.007-3.5368-2.81-4.8481C21.388 9.8413 18.8492 9 16 9c-2.8492 0-5.388.8413-7.19 2.1519zM7.6336 9.5344C9.8129 7.9495 12.774 7 16 7c3.226 0 6.1872.9495 8.3663 2.5344C26.5446 11.1186 28 13.3921 28 16c0 2.6079-1.4554 4.8814-3.6337 6.4656C22.1872 24.0505 19.226 25 16 25c-3.226 0-6.1872-.9495-8.3664-2.5344C5.4554 20.8814 4 18.6079 4 16c0-2.6079 1.4554-4.8814 3.6337-6.4656z" fill="#0F0F0F"/></svg>