<svg xmlns="http://www.w3.org/2000/svg" width="32" height="32" viewBox="0 0 32 32"><path d="M25.033 20.001C24.2762 20.0035 23.5299 20.1786 22.8509 20.5131C22.172 20.8475 21.5783 21.3325 21.115 21.931L11.827 17.338C12.1 16.4672 12.1 15.5338 11.827 14.663L21.125 10.081C21.8601 10.9977 22.8961 11.6244 24.0492 11.85C25.2023 12.0756 26.3981 11.8856 27.4244 11.3136C28.4508 10.7416 29.2414 9.82456 29.6561 8.72517C30.0707 7.62578 30.0826 6.41506 29.6897 5.30773C29.2967 4.2004 28.5243 3.26801 27.5094 2.67593C26.4945 2.08385 25.3026 1.87033 24.1453 2.07325C22.988 2.27616 21.9399 2.8824 21.187 3.78443C20.434 4.68647 20.0248 5.82602 20.032 7.00099C20.038 7.43799 20.102 7.87399 20.223 8.29499L10.911 12.885C10.2649 12.0741 9.38254 11.4841 8.38625 11.1968C7.38996 10.9095 6.32898 10.939 5.35021 11.2813C4.37144 11.6236 3.5233 12.2617 2.9232 13.1073C2.3231 13.9529 2.00073 14.9641 2.00073 16.001C2.00073 17.0379 2.3231 18.0491 2.9232 18.8947C3.5233 19.7403 4.37144 20.3784 5.35021 20.7207C6.32898 21.063 7.38996 21.0925 8.38625 20.8052C9.38254 20.5179 10.2649 19.9279 10.911 19.117L20.22 23.72C20.1018 24.1369 20.0389 24.5676 20.033 25.001C20.033 25.9899 20.3263 26.9566 20.8757 27.7788C21.4251 28.6011 22.206 29.2419 23.1196 29.6204C24.0333 29.9988 25.0386 30.0978 26.0085 29.9049C26.9784 29.712 27.8693 29.2358 28.5686 28.5365C29.2678 27.8373 29.744 26.9463 29.937 25.9764C30.1299 25.0065 30.0309 24.0012 29.6524 23.0876C29.274 22.1739 28.6331 21.3931 27.8109 20.8436C26.9887 20.2942 26.022 20.001 25.033 20.001ZM25.032 4.00099C25.426 4.00099 25.8161 4.07859 26.1801 4.22935C26.5441 4.38012 26.8748 4.60109 27.1534 4.87967C27.4319 5.15825 27.6529 5.48896 27.8037 5.85294C27.9544 6.21692 28.032 6.60702 28.032 7.00099C28.032 7.39496 27.9544 7.78506 27.8037 8.14904C27.6529 8.51302 27.4319 8.84373 27.1534 9.12231C26.8748 9.40089 26.5441 9.62186 26.1801 9.77263C25.8161 9.92339 25.426 10.001 25.032 10.001C24.2364 10.001 23.4733 9.68492 22.9107 9.12231C22.3481 8.5597 22.032 7.79664 22.032 7.00099C22.032 6.20534 22.3481 5.44228 22.9107 4.87967C23.4733 4.31706 24.2364 4.00099 25.032 4.00099ZM7.03204 19.001C6.23613 19.001 5.47281 18.6848 4.91002 18.122C4.34722 17.5592 4.03104 16.7959 4.03104 16C4.03104 15.2041 4.34722 14.4408 4.91002 13.878C5.47281 13.3152 6.23613 12.999 7.03204 12.999C7.82783 12.999 8.59102 13.3151 9.15372 13.8778C9.71642 14.4405 10.0325 15.2037 10.0325 15.9995C10.0325 16.7953 9.71642 17.5585 9.15372 18.1212C8.59102 18.6839 7.82783 19 7.03204 19V19.001ZM25.032 28.001C24.6381 28.001 24.248 27.9234 23.884 27.7726C23.52 27.6219 23.1893 27.4009 22.9107 27.1223C22.6321 26.8437 22.4112 26.513 22.2604 26.149C22.1096 25.7851 22.032 25.395 22.032 25.001C22.032 24.607 22.1096 24.2169 22.2604 23.8529C22.4112 23.489 22.6321 23.1582 22.9107 22.8797C23.1893 22.6011 23.52 22.3801 23.884 22.2294C24.248 22.0786 24.6381 22.001 25.032 22.001C25.8277 22.001 26.5908 22.3171 27.1534 22.8797C27.716 23.4423 28.032 24.2053 28.032 25.001C28.032 25.7966 27.716 26.5597 27.1534 27.1223C26.5908 27.6849 25.8277 28.001 25.032 28.001Z"/></svg>