<svg width="32" height="32" viewBox="0 0 32 32" fill="none" xmlns="http://www.w3.org/2000/svg">
<path fill-rule="evenodd" clip-rule="evenodd" d="M7 6.5C5.067 6.5 3.5 8.067 3.5 10V22C3.5 23.933 5.067 25.5 7 25.5H16C16.2761 25.5 16.5 25.7239 16.5 26C16.5 26.2761 16.2761 26.5 16 26.5H7C4.51472 26.5 2.5 24.4853 2.5 22V10C2.5 7.51472 4.51472 5.5 7 5.5H25C27.4853 5.5 29.5 7.51472 29.5 10V18C29.5 18.2761 29.2761 18.5 29 18.5C28.7239 18.5 28.5 18.2761 28.5 18V10C28.5 8.067 26.933 6.5 25 6.5H7ZM15.6464 11.6464C15.8417 11.4512 16.1583 11.4512 16.3536 11.6464L20.3536 15.6464C20.5488 15.8417 20.5488 16.1583 20.3536 16.3536C20.1583 16.5488 19.8417 16.5488 19.6464 16.3536L16.5 13.2071V20C16.5 20.2761 16.2761 20.5 16 20.5C15.7239 20.5 15.5 20.2761 15.5 20V13.2071L12.3536 16.3536C12.1583 16.5488 11.8417 16.5488 11.6464 16.3536C11.4512 16.1583 11.4512 15.8417 11.6464 15.6464L15.6464 11.6464ZM25.5 21C25.5 20.7239 25.2761 20.5 25 20.5C24.7239 20.5 24.5 20.7239 24.5 21V24.5H21C20.7239 24.5 20.5 24.7239 20.5 25C20.5 25.2761 20.7239 25.5 21 25.5H24.5V29C24.5 29.2761 24.7239 29.5 25 29.5C25.2761 29.5 25.5 29.2761 25.5 29V25.5H29C29.2761 25.5 29.5 25.2761 29.5 25C29.5 24.7239 29.2761 24.5 29 24.5H25.5V21Z" fill="#0F0F0F"/>
</svg>
