<svg width="32" height="32" viewBox="0 0 32 32" fill="none" xmlns="http://www.w3.org/2000/svg">
<path d="M11.9998 7.99903C12.1312 7.99918 12.2613 7.97337 12.3826 7.92308C12.5039 7.8728 12.6141 7.79904 12.7068 7.70603L15.0018 5.41281V13C15.0018 13.2652 15.1071 13.5195 15.2947 13.7071C15.4822 13.8946 15.7365 14 16.0018 14C16.267 14 16.5213 13.8946 16.7089 13.7071C16.8964 13.5195 17.0018 13.2652 17.0018 13V5.41406L19.2948 7.70706C19.3876 7.79991 19.4978 7.87356 19.6192 7.92381C19.7405 7.97406 19.8705 7.99992 20.0018 7.99992C20.1331 7.99992 20.2631 7.97405 20.3844 7.9238C20.5058 7.87355 20.616 7.7999 20.7088 7.70705C20.8017 7.6142 20.8753 7.50397 20.9256 7.38265C20.9758 7.26134 21.0017 7.13131 21.0017 7C21.0017 6.86869 20.9758 6.73867 20.9256 6.61736C20.8753 6.49604 20.8017 6.38582 20.7088 6.29297L16.7088 2.29297C16.616 2.20009 16.5058 2.12641 16.3845 2.07614C16.2631 2.02587 16.1331 2 16.0018 2C15.8705 2 15.7404 2.02587 15.6191 2.07614C15.4978 2.12641 15.3876 2.20009 15.2948 2.29297L11.2928 6.29197C11.153 6.43182 11.0578 6.60998 11.0192 6.80394C10.9807 6.99789 11.0005 7.19892 11.0761 7.38162C11.1518 7.56432 11.2799 7.72048 11.4444 7.83037C11.6088 7.94025 11.8021 7.99898 11.9998 7.99903Z" fill="black"/>
<path d="M25.5045 6.67161C25.2751 6.53946 25.0026 6.50366 24.7468 6.57205C24.4911 6.64044 24.2728 6.80744 24.14 7.03645C24.0071 7.26546 23.9705 7.5378 24.0381 7.79378C24.1056 8.04977 24.272 8.26851 24.5006 8.40208C24.9555 8.66643 25.3333 9.04535 25.5963 9.5011C25.8593 9.95685 25.9983 10.4735 25.9996 10.9997V24.9997C25.9987 25.7951 25.6823 26.5577 25.1199 27.1201C24.5575 27.6825 23.7949 27.9989 22.9996 27.9997H8.99956C8.20418 27.9989 7.44162 27.6825 6.8792 27.1201C6.31678 26.5577 6.00043 25.7951 5.99956 24.9997V10.9997C6.00097 10.4733 6.14018 9.95647 6.40334 9.50057C6.6665 9.04466 7.04444 8.66561 7.49956 8.4011C7.72859 8.26801 7.89544 8.04947 7.96348 7.79347C8.03152 7.53747 7.99519 7.26493 7.86247 7.03569C7.72974 6.80645 7.51147 6.63926 7.25557 6.57081C6.99968 6.50237 6.72708 6.53827 6.49763 6.67063C5.7393 7.11104 5.10961 7.74249 4.67132 8.50206C4.23303 9.26162 4.00145 10.1228 3.99963 10.9997V24.9997C4.00119 26.3253 4.52848 27.5962 5.46582 28.5335C6.40317 29.4709 7.67403 29.9982 8.99963 29.9997H22.9996C24.3252 29.9982 25.5961 29.4709 26.5334 28.5335C27.4708 27.5962 27.9981 26.3253 27.9996 24.9997V10.9997C27.9978 10.1232 27.7666 9.26251 27.3288 8.50317C26.891 7.74384 26.2621 7.11237 25.5045 6.67161Z" fill="black"/>
</svg>
