<svg width="32" height="32" viewBox="0 0 32 32" fill="none" xmlns="http://www.w3.org/2000/svg">
<path fill-rule="evenodd" clip-rule="evenodd" d="M7 6.75C5.20507 6.75 3.75 8.20507 3.75 10V22C3.75 23.7949 5.20507 25.25 7 25.25H16C16.4142 25.25 16.75 25.5858 16.75 26C16.75 26.4142 16.4142 26.75 16 26.75H7C4.37665 26.75 2.25 24.6234 2.25 22V10C2.25 7.37665 4.37665 5.25 7 5.25H25C27.6234 5.25 29.75 7.37665 29.75 10V18C29.75 18.4142 29.4142 18.75 29 18.75C28.5858 18.75 28.25 18.4142 28.25 18V10C28.25 8.20507 26.7949 6.75 25 6.75H7ZM15.4697 11.4697C15.7626 11.1768 16.2374 11.1768 16.5303 11.4697L20.5303 15.4697C20.8232 15.7626 20.8232 16.2374 20.5303 16.5303C20.2374 16.8232 19.7626 16.8232 19.4697 16.5303L16.75 13.8107V20C16.75 20.4142 16.4142 20.75 16 20.75C15.5858 20.75 15.25 20.4142 15.25 20V13.8107L12.5303 16.5303C12.2374 16.8232 11.7626 16.8232 11.4697 16.5303C11.1768 16.2374 11.1768 15.7626 11.4697 15.4697L15.4697 11.4697ZM25.75 21C25.75 20.5858 25.4142 20.25 25 20.25C24.5858 20.25 24.25 20.5858 24.25 21V24.25H21C20.5858 24.25 20.25 24.5858 20.25 25C20.25 25.4142 20.5858 25.75 21 25.75H24.25V29C24.25 29.4142 24.5858 29.75 25 29.75C25.4142 29.75 25.75 29.4142 25.75 29V25.75H29C29.4142 25.75 29.75 25.4142 29.75 25C29.75 24.5858 29.4142 24.25 29 24.25H25.75V21Z" fill="#0F0F0F"/>
</svg>
