<svg xmlns="http://www.w3.org/2000/svg" width="32" height="32" viewBox="0 0 32 32"><path d="M25.001 20.2508C24.2467 20.2523 23.5037 20.4338 22.8337 20.7802C22.1637 21.1267 21.5861 21.6281 21.149 22.2428L11.494 17.4688C11.8353 16.5196 11.8353 15.4811 11.494 14.5318L21.158 9.76981C21.8219 10.6807 22.7891 11.3246 23.8856 11.5857C24.982 11.8469 26.1357 11.7081 27.1389 11.1943C28.1422 10.6805 28.929 9.82548 29.3579 8.78314C29.7868 7.74079 29.8296 6.57959 29.4785 5.50853C29.1274 4.43747 28.4055 3.52691 27.4428 2.94074C26.4801 2.35457 25.3398 2.13129 24.2271 2.3111C23.1144 2.4909 22.1024 3.06198 21.3733 3.92154C20.6442 4.7811 20.2458 5.87268 20.25 6.99981C20.257 7.48481 20.339 7.96581 20.493 8.42581L10.813 13.1958C10.2214 12.3874 9.38943 11.7867 8.43595 11.4796C7.48246 11.1724 6.45629 11.1746 5.50412 11.4858C4.55195 11.797 3.72253 12.4012 3.13442 13.2121C2.54631 14.023 2.22961 14.9991 2.22961 16.0008C2.22961 17.0025 2.54631 17.9786 3.13442 18.7895C3.72253 19.6004 4.55195 20.2047 5.50412 20.5158C6.45629 20.827 7.48246 20.8292 8.43595 20.522C9.38943 20.2149 10.2214 19.6142 10.813 18.8058L20.489 23.5898C20.3378 24.0452 20.2575 24.5211 20.251 25.0008C20.251 25.9403 20.5295 26.8586 21.0515 27.6398C21.5734 28.4209 22.3153 29.0297 23.1832 29.3892C24.0512 29.7488 25.0062 29.8428 25.9276 29.6595C26.849 29.4763 27.6954 29.0239 28.3597 28.3596C29.024 27.6953 29.4764 26.8489 29.6597 25.9275C29.843 25.0061 29.7489 24.051 29.3894 23.1831C29.0299 22.3151 28.421 21.5733 27.6399 21.0513C26.8588 20.5294 25.9404 20.2508 25.001 20.2508ZM25.001 3.75081C25.737 3.74981 26.271 3.94081 26.806 4.29781C27.3632 4.66986 27.7918 5.20505 28.0331 5.8301C28.2745 6.45516 28.3167 7.13952 28.1541 7.78951C27.9915 8.4395 27.6319 9.02334 27.1247 9.4611C26.6174 9.89887 25.9873 10.1692 25.3205 10.235C24.6537 10.3008 23.9829 10.1589 23.3999 9.82877C22.8168 9.49863 22.3501 8.99635 22.0635 8.3907C21.7769 7.78505 21.6846 7.10563 21.799 6.44546C21.9135 5.78529 22.2292 5.17663 22.703 4.70281C23.313 4.09281 24.029 3.74981 25 3.74981L25.001 3.75081ZM6.99995 19.2498C6.13787 19.2498 5.31109 18.9073 4.7015 18.2978C4.09191 17.6882 3.74945 16.8614 3.74945 15.9993C3.74945 15.1372 4.09191 14.3104 4.7015 13.7009C5.31109 13.0913 6.13787 12.7488 6.99995 12.7488C7.8619 12.7488 8.68855 13.0912 9.29805 13.7007C9.90754 14.3102 10.25 15.1369 10.25 15.9988C10.25 16.8608 9.90754 17.6874 9.29805 18.2969C8.68855 18.9064 7.8619 19.2488 6.99995 19.2488V19.2498ZM25.001 28.2498C24.139 28.2498 23.3123 27.9074 22.7029 27.2979C22.0934 26.6884 21.751 25.8618 21.751 24.9998C21.751 24.1379 22.0934 23.3112 22.7029 22.7017C23.3123 22.0922 24.139 21.7498 25.001 21.7498C25.8629 21.7498 26.6896 22.0922 27.299 22.7017C27.9085 23.3112 28.251 24.1379 28.251 24.9998C28.251 25.8618 27.9085 26.6884 27.299 27.2979C26.6896 27.9074 25.8629 28.2498 25.001 28.2498Z"/></svg>