<svg width="32" height="32" viewBox="0 0 32 32" fill="none" xmlns="http://www.w3.org/2000/svg">
<path d="M25.0328 20.0011C24.276 20.0037 23.5297 20.179 22.8509 20.5135C22.1721 20.8481 21.5785 21.3332 21.1155 21.9318L11.8268 17.3385C12.1 16.4677 12.1002 15.5341 11.8273 14.6631L21.1246 10.0815C21.8595 10.998 22.8952 11.6248 24.0481 11.8505C25.2011 12.0762 26.3967 11.8863 27.423 11.3145C28.4492 10.7428 29.2399 9.82602 29.6547 8.72687C30.0695 7.62772 30.0816 6.41718 29.689 5.30993C29.2963 4.20268 28.5242 3.27025 27.5096 2.67799C26.495 2.08573 25.3035 1.87191 24.1462 2.07445C22.989 2.27698 21.9409 2.88278 21.1878 3.78443C20.4346 4.68608 20.0251 5.8253 20.0319 7.0001C20.0379 7.43835 20.1023 7.87385 20.2234 8.2951L10.9108 12.8843C10.2646 12.0733 9.38236 11.4833 8.38609 11.1959C7.38981 10.9085 6.32882 10.9379 5.35 11.2801C4.37119 11.6223 3.52297 12.2603 2.92278 13.1059C2.32259 13.9514 2.00011 14.9626 2 15.9995C1.99989 17.0364 2.32215 18.0477 2.92216 18.8934C3.52217 19.7391 4.37025 20.3773 5.34899 20.7197C6.32773 21.0621 7.38871 21.0918 8.38505 20.8046C9.38139 20.5174 10.2638 19.9275 10.9101 19.1167L20.2199 23.7204C20.1016 24.1372 20.0387 24.5678 20.0328 25.0011C20.0328 25.99 20.3261 26.9567 20.8755 27.7789C21.4249 28.6012 22.2058 29.242 23.1194 29.6205C24.0331 29.9989 25.0384 30.0979 26.0083 29.905C26.9782 29.7121 27.8691 29.2359 28.5684 28.5366C29.2676 27.8373 29.7438 26.9464 29.9368 25.9765C30.1297 25.0066 30.0307 24.0013 29.6522 23.0877C29.2738 22.174 28.6329 21.3931 27.8107 20.8437C26.9885 20.2943 26.0217 20.0011 25.0328 20.0011ZM25.0318 4.00008C25.6251 4.00008 26.2051 4.17602 26.6985 4.50567C27.1918 4.83531 27.5764 5.30385 27.8034 5.85203C28.0305 6.40021 28.0899 7.00341 27.9741 7.58535C27.8584 8.16729 27.5727 8.70184 27.1531 9.1214C26.7335 9.54096 26.199 9.82668 25.6171 9.94243C25.0351 10.0582 24.4319 9.99878 23.8837 9.77172C23.3356 9.54465 22.867 9.16014 22.5374 8.66679C22.2077 8.17344 22.0318 7.59342 22.0318 7.00008C22.0327 6.20469 22.349 5.44213 22.9114 4.87971C23.4739 4.31729 24.2364 4.00093 25.0318 4.00008ZM7.03178 19.0001C6.43843 19.0001 5.85841 18.8241 5.36507 18.4945C4.87172 18.1648 4.4872 17.6963 4.26014 17.1481C4.03308 16.5999 3.97367 15.9967 4.08942 15.4148C4.20518 14.8329 4.4909 14.2983 4.91046 13.8788C5.33001 13.4592 5.86456 13.1735 6.44651 13.0577C7.02845 12.942 7.63165 13.0014 8.17983 13.2284C8.72801 13.4555 9.19654 13.84 9.52619 14.3334C9.85583 14.8267 10.0318 15.4067 10.0318 16.0001C10.0309 16.7955 9.71458 17.558 9.15217 18.1204C8.58976 18.6829 7.82715 18.9992 7.03178 19.0001ZM25.0328 28.0011C24.4394 28.0011 23.8594 27.8251 23.3661 27.4955C22.8727 27.1658 22.4882 26.6973 22.2611 26.1491C22.0341 25.601 21.9747 24.9977 22.0904 24.4158C22.2062 23.8339 22.4919 23.2993 22.9115 22.8798C23.331 22.4602 23.8656 22.1745 24.4475 22.0587C25.0295 21.943 25.6327 22.0024 26.1808 22.2294C26.729 22.4565 27.1975 22.841 27.5272 23.3344C27.8568 23.8277 28.0328 24.4077 28.0328 25.0011C28.0319 25.7965 27.7156 26.559 27.1531 27.1214C26.5907 27.6839 25.8282 28.0002 25.0328 28.0011Z" fill="black"/>
</svg>
