<svg width="32" height="32" viewBox="0 0 32 32" fill="none" xmlns="http://www.w3.org/2000/svg">
<path d="M12.351 7.352L15.5 4.206V13C15.5 13.1326 15.5527 13.2598 15.6465 13.3535C15.7402 13.4473 15.8674 13.5 16 13.5C16.1326 13.5 16.2598 13.4473 16.3536 13.3535C16.4473 13.2598 16.5 13.1326 16.5 13V4.207L19.646 7.353C19.7403 7.44408 19.8666 7.49447 19.9977 7.49333C20.1288 7.49219 20.2542 7.43961 20.3469 7.34691C20.4396 7.2542 20.4922 7.1288 20.4934 6.9977C20.4945 6.8666 20.4441 6.7403 20.353 6.646L16.353 2.646C16.2593 2.55226 16.1321 2.4996 15.9995 2.4996C15.8669 2.4996 15.7398 2.55226 15.646 2.646L11.644 6.646C11.5567 6.74099 11.5095 6.86606 11.5123 6.99505C11.515 7.12405 11.5675 7.24698 11.6588 7.33815C11.7501 7.42932 11.8731 7.48166 12.0021 7.48424C12.1311 7.48683 12.2561 7.43944 12.351 7.352V7.352Z" fill="#0F0F0F"/>
<path d="M25.253 7.104C25.1383 7.03743 25.0018 7.01915 24.8737 7.05319C24.7455 7.08723 24.6361 7.17079 24.5695 7.2855C24.5029 7.4002 24.4847 7.53666 24.5187 7.66484C24.5527 7.79302 24.6363 7.90243 24.751 7.969C25.2819 8.27738 25.7228 8.7195 26.0296 9.2513C26.3365 9.78309 26.4987 10.386 26.5 11V25C26.4987 25.9278 26.1295 26.8173 25.4734 27.4734C24.8173 28.1295 23.9279 28.4987 23 28.5H9C8.07207 28.4989 7.18244 28.1298 6.5263 27.4737C5.87015 26.8176 5.50106 25.9279 5.5 25V11C5.5018 10.3861 5.66429 9.78343 5.97131 9.25184C6.27833 8.72026 6.71918 8.27833 7.25 7.97C7.36484 7.90356 7.44858 7.79422 7.48281 7.66604C7.51703 7.53786 7.49894 7.40134 7.4325 7.2865C7.36606 7.17166 7.25673 7.08791 7.12855 7.05369C7.00037 7.01946 6.86384 7.03756 6.749 7.104C6.06642 7.5003 5.49959 8.06854 5.105 8.75211C4.7104 9.43568 4.50181 10.2107 4.5 11V25C4.50132 26.1931 4.97585 27.3369 5.81948 28.1805C6.66311 29.0241 7.80693 29.4987 9 29.5H23C24.1931 29.4987 25.3369 29.0241 26.1805 28.1805C27.0241 27.3369 27.4987 26.1931 27.5 25V11C27.4984 10.2109 27.2901 9.436 26.8959 8.75245C26.5016 8.0689 25.9352 7.50055 25.253 7.104V7.104Z" fill="#0F0F0F"/>
</svg>
