<svg xmlns="http://www.w3.org/2000/svg" width="32" height="32" viewBox="0 0 32 32"><path d="M25 2.5C24.2755 2.49978 23.5616 2.6745 22.9191 3.00932C22.2766 3.34413 21.7244 3.82914 21.3095 4.4231C20.8946 5.01707 20.6293 5.70243 20.536 6.42093C20.4428 7.13943 20.5244 7.86981 20.774 8.55L10.73 13.48C10.1884 12.6788 9.40312 12.0735 8.49052 11.7536C7.57791 11.4337 6.58653 11.4163 5.66327 11.704C4.74001 11.9917 3.93398 12.5691 3.36461 13.3508C2.79524 14.1324 2.49282 15.0767 2.50216 16.0437C2.51151 17.0107 2.83211 17.949 3.41648 18.7195C4.00085 19.49 4.81788 20.0518 5.74653 20.3216C6.67518 20.5914 7.66604 20.5548 8.57229 20.2174C9.47855 19.8799 10.252 19.2595 10.778 18.448L20.776 23.447C20.3782 24.5261 20.4086 25.7166 20.8611 26.774C21.3136 27.8314 22.1538 28.6754 23.2091 29.1326C24.2644 29.5899 25.4548 29.6257 26.5357 29.2328C27.6166 28.8398 28.5061 28.0479 29.0213 27.0196C29.5366 25.9914 29.6386 24.8049 29.3064 23.7038C28.9742 22.6027 28.233 21.6706 27.235 21.0989C26.237 20.5272 25.058 20.3593 23.9401 20.6297C22.8222 20.9002 21.8503 21.5884 21.224 22.553L11.226 17.553C11.4082 17.0556 11.501 16.5298 11.5 16C11.5 15.423 11.392 14.872 11.194 14.366L21.221 9.445C21.6449 10.1 22.2318 10.6335 22.9241 10.9932C23.6164 11.3529 24.3903 11.5264 25.17 11.4967C25.9496 11.4671 26.7081 11.2352 27.371 10.824C28.034 10.4127 28.5787 9.8361 28.9516 9.15081C29.3244 8.46551 29.5128 7.69504 29.498 6.91501C29.4833 6.13497 29.266 5.37216 28.8675 4.70144C28.469 4.03072 27.903 3.47513 27.2249 3.08918C26.5469 2.70324 25.7802 2.5002 25 2.5ZM21.5 7C21.5 6.07174 21.8687 5.1815 22.5251 4.52513C23.1815 3.86875 24.0717 3.5 25 3.5C25.9283 3.5 26.8185 3.86875 27.4749 4.52513C28.1313 5.1815 28.5 6.07174 28.5 7C28.5 7.92826 28.1313 8.8185 27.4749 9.47487C26.8185 10.1313 25.9283 10.5 25 10.5C24.0717 10.5 23.1815 10.1313 22.5251 9.47487C21.8687 8.8185 21.5 7.92826 21.5 7ZM3.5 16C3.5 15.0717 3.86875 14.1815 4.52513 13.5251C5.1815 12.8687 6.07174 12.5 7 12.5C7.92826 12.5 8.8185 12.8687 9.47487 13.5251C10.1313 14.1815 10.5 15.0717 10.5 16C10.5 16.9283 10.1313 17.8185 9.47487 18.4749C8.8185 19.1313 7.92826 19.5 7 19.5C6.07174 19.5 5.1815 19.1313 4.52513 18.4749C3.86875 17.8185 3.5 16.9283 3.5 16ZM21.5 25C21.5 24.0717 21.8687 23.1815 22.5251 22.5251C23.1815 21.8687 24.0717 21.5 25 21.5C25.9283 21.5 26.8185 21.8687 27.4749 22.5251C28.1313 23.1815 28.5 24.0717 28.5 25C28.5 25.9283 28.1313 26.8185 27.4749 27.4749C26.8185 28.1313 25.9283 28.5 25 28.5C24.0717 28.5 23.1815 28.1313 22.5251 27.4749C21.8687 26.8185 21.5 25.9283 21.5 25Z"/></svg>