<svg width="32" height="32" viewBox="0 0 32 32" fill="none" xmlns="http://www.w3.org/2000/svg">
<path d="M25.9283 7.2558L18.7925 3.01C17.9452 2.51432 16.9812 2.25306 15.9995 2.25306C15.0179 2.25306 14.0539 2.51432 13.2066 3.01L6.07178 7.2558C5.81856 7.41197 5.6099 7.63081 5.46594 7.89116C5.32198 8.15152 5.2476 8.4446 5.24998 8.7421V10.8564C5.18062 14.6236 6.10275 18.3429 7.92395 21.6414C9.74515 24.9399 12.4014 27.7017 15.6265 29.65C15.74 29.7153 15.8686 29.7496 15.9995 29.7496C16.1305 29.7496 16.2591 29.7153 16.3726 29.65C19.598 27.702 22.2546 24.9403 24.076 21.6417C25.8973 18.3432 26.8195 14.6238 26.75 10.8564V8.7421C26.7527 8.44454 26.6785 8.15133 26.5345 7.89091C26.3906 7.6305 26.1817 7.41171 25.9283 7.2558ZM6.74998 10.8564V8.7421C6.74785 8.70439 6.75492 8.66673 6.77061 8.63237C6.78629 8.59802 6.8101 8.56799 6.83998 8.5449L13.9738 4.2988C14.3684 4.06855 14.8004 3.90946 15.2501 3.8288V27.6368C12.5757 25.7417 10.4037 23.223 8.92255 20.2989C7.44138 17.3749 6.69564 14.1337 6.74998 10.8564ZM25.25 10.8564C25.3043 14.1337 24.5585 17.3747 23.0774 20.2987C21.5962 23.2227 19.4243 25.7413 16.75 27.6364V3.8281C17.1998 3.9089 17.6318 4.06823 18.0264 4.2988L25.1612 8.5449C25.1909 8.56803 25.2146 8.5981 25.2301 8.63247C25.2456 8.66684 25.2524 8.70448 25.25 8.7421V10.8564Z" fill="black"/>
</svg>
