<svg width="32" height="32" viewBox="0 0 32 32" fill="none" xmlns="http://www.w3.org/2000/svg">
<path d="M3.50001 16.0021C3.49997 16.0678 3.51288 16.1328 3.53799 16.1935C3.5631 16.2541 3.59993 16.3093 3.64637 16.3557C3.6928 16.4022 3.74794 16.439 3.80862 16.4641C3.8693 16.4892 3.93433 16.5021 4.00001 16.5021L14.7936 16.5003L11.6494 19.6495C11.6022 19.6958 11.5647 19.7509 11.5389 19.8118C11.5132 19.8727 11.4997 19.938 11.4994 20.0041C11.4991 20.0702 11.5118 20.1357 11.537 20.1968C11.5621 20.2579 11.5991 20.3134 11.6458 20.3601C11.6926 20.4069 11.7481 20.4439 11.8092 20.469C11.8703 20.4941 11.9358 20.5069 12.0019 20.5066C12.0679 20.5062 12.1333 20.4928 12.1942 20.467C12.255 20.4413 12.3102 20.4037 12.3564 20.3565L16.3525 16.3536C16.4462 16.2599 16.4989 16.1328 16.4991 16.0003C16.4993 15.8678 16.4469 15.7406 16.3535 15.6466L12.3613 11.6437C12.2674 11.5505 12.1404 11.4983 12.0081 11.4985C11.8758 11.4987 11.749 11.5513 11.6553 11.6447C11.5616 11.7381 11.5087 11.8648 11.5082 11.9971C11.5076 12.1293 11.5594 12.2565 11.6523 12.3507L14.7943 15.5003L4.00001 15.5021C3.93433 15.502 3.8693 15.5149 3.80862 15.5401C3.74794 15.5652 3.6928 15.602 3.64637 15.6484C3.59993 15.6949 3.5631 15.75 3.53799 15.8107C3.51288 15.8714 3.49997 15.9364 3.50001 16.0021Z" fill="black"/>
<path d="M16 2.50012C13.3369 2.49596 10.7322 3.28113 8.51507 4.75646C6.29792 6.23178 4.56772 8.33108 3.54301 10.7892C3.49201 10.9114 3.49159 11.0488 3.54182 11.1713C3.59205 11.2938 3.68884 11.3914 3.81094 11.4426C3.93304 11.4939 4.07047 11.4945 4.19308 11.4445C4.31568 11.3945 4.41343 11.2979 4.46488 11.1759C5.58002 8.51049 7.58409 6.31369 10.1362 4.95918C12.6883 3.60466 15.6309 3.1761 18.4633 3.74637C21.2958 4.31665 23.8432 5.85054 25.6723 8.08715C27.5014 10.3238 28.4992 13.1249 28.496 16.0142C28.4927 18.9035 27.4887 21.7025 25.6546 23.935C23.8205 26.1675 21.2697 27.6957 18.436 28.2597C15.6022 28.8236 12.6607 28.3885 10.1116 27.0283C7.56249 25.6681 5.56332 23.4668 4.45414 20.7989C4.42902 20.738 4.39213 20.6827 4.34559 20.6361C4.29906 20.5896 4.24378 20.5526 4.18294 20.5274C4.12209 20.5023 4.05688 20.4893 3.99103 20.4894C3.92518 20.4895 3.85999 20.5025 3.7992 20.5279C3.73842 20.5532 3.68323 20.5902 3.63679 20.6369C3.59036 20.6836 3.5536 20.739 3.52862 20.8C3.50364 20.8609 3.49093 20.9261 3.49122 20.992C3.49151 21.0578 3.50479 21.123 3.53031 21.1837C4.46837 23.4408 6.00155 25.4009 7.96629 26.8549C9.93103 28.309 12.2536 29.2024 14.6863 29.4399C17.119 29.6774 19.5706 29.25 21.7795 28.2035C23.9883 27.1569 25.8717 25.5303 27.2285 23.4972C28.5854 21.4642 29.365 19.1009 29.484 16.6596C29.6031 14.2182 29.0572 11.7903 27.9045 9.63487C26.7519 7.47945 25.0357 5.67735 22.9392 4.42081C20.8426 3.16428 18.4443 2.50044 16 2.50012Z" fill="black"/>
</svg>
