<svg xmlns="http://www.w3.org/2000/svg" width="32" height="32" viewBox="0 0 32 32"><path d="M3 16.0021C3 16.2673 3.10536 16.5217 3.29289 16.7092C3.48043 16.8968 3.73478 17.0021 4 17.0021L13.587 17.0001L11.295 19.2971C11.1783 19.4135 11.0921 19.5568 11.0441 19.7145C10.996 19.8721 10.9877 20.0392 11.0197 20.2008C11.0518 20.3625 11.1233 20.5137 11.2278 20.6411C11.3323 20.7685 11.4667 20.8681 11.619 20.9311C11.8025 21.0066 12.0043 21.0259 12.1988 20.9863C12.3932 20.9468 12.5715 20.8503 12.711 20.7091L16.707 16.7061C16.8939 16.5187 16.9988 16.2648 16.9988 16.0001C16.9988 15.7355 16.8939 15.4816 16.707 15.2941L12.715 11.2911C12.6229 11.1955 12.5126 11.1192 12.3907 11.0666C12.2688 11.014 12.1376 10.9863 12.0048 10.9849C11.8721 10.9836 11.7404 11.0087 11.6174 11.0588C11.4944 11.1089 11.3827 11.183 11.2887 11.2768C11.1946 11.3705 11.1202 11.4821 11.0698 11.6049C11.0193 11.7277 10.9938 11.8593 10.9948 11.9921C10.9958 12.1249 11.0232 12.2561 11.0754 12.3782C11.1276 12.5003 11.2036 12.6107 11.299 12.7031L13.589 15.0011L4 15.0021C3.73478 15.0021 3.48043 15.1075 3.29289 15.295C3.10536 15.4826 3 15.7369 3 16.0021Z M16.0001 2.00002C13.2381 1.99562 10.5367 2.80994 8.23731 4.34009C5.9379 5.87024 4.14359 8.04757 3.08105 10.597C2.97881 10.8418 2.978 11.1172 3.0788 11.3626C3.17961 11.608 3.37376 11.8033 3.61855 11.9055C3.86335 12.0078 4.13873 12.0086 4.38412 11.9078C4.62951 11.807 4.82481 11.6128 4.92705 11.368C5.99822 8.8101 7.92238 6.70222 10.3723 5.40288C12.8222 4.10354 15.6466 3.69298 18.365 4.24103C21.0835 4.78908 23.5281 6.2619 25.2832 8.40899C27.0383 10.5561 27.9955 13.2448 27.9919 16.018C27.9883 18.7911 27.0241 21.4774 25.2635 23.6199C23.5028 25.7624 21.0543 27.2289 18.3345 27.7699C15.6146 28.3109 12.7913 27.893 10.3448 26.5873C7.89825 25.2816 5.97957 23.1687 4.91505 20.608C4.80786 20.3714 4.61282 20.1858 4.3712 20.0905C4.12958 19.9952 3.86035 19.9976 3.62049 20.0972C3.38062 20.1969 3.18895 20.386 3.08603 20.6245C2.98311 20.863 2.97702 21.1321 3.06905 21.375C4.0419 23.7155 5.63182 25.7479 7.66922 27.2556C9.70662 28.7633 12.1151 29.6896 14.6377 29.9358C17.1603 30.182 19.7024 29.7388 21.9928 28.6535C24.2833 27.5682 26.2362 25.8815 27.6432 23.7733C29.0502 21.6652 29.8586 19.2146 29.982 16.683C30.1055 14.1514 29.5394 11.6338 28.3442 9.39876C27.149 7.16368 25.3695 5.29496 23.1955 3.99193C21.0216 2.68891 18.5346 2.00046 16.0001 2.00002Z"/></svg>