<svg width="32" height="32" viewBox="0 0 32 32" fill="none" xmlns="http://www.w3.org/2000/svg">
<path d="M4 26.75C4.41421 26.75 4.75 26.4142 4.75 26C4.75 25.5858 4.41421 25.25 4 25.25C3.58579 25.25 3.25 25.5858 3.25 26C3.25 26.4142 3.58579 26.75 4 26.75Z" fill="black"/>
<path d="M12 26.75C12.4142 26.75 12.75 26.4142 12.75 26C12.75 25.5858 12.4142 25.25 12 25.25C11.5858 25.25 11.25 25.5858 11.25 26C11.25 26.4142 11.5858 26.75 12 26.75Z" fill="black"/>
<path d="M20 26.75C20.4142 26.75 20.75 26.4142 20.75 26C20.75 25.5858 20.4142 25.25 20 25.25C19.5858 25.25 19.25 25.5858 19.25 26C19.25 26.4142 19.5858 26.75 20 26.75Z" fill="black"/>
<path d="M28 26.75C28.4142 26.75 28.75 26.4142 28.75 26C28.75 25.5858 28.4142 25.25 28 25.25C27.5858 25.25 27.25 25.5858 27.25 26C27.25 26.4142 27.5858 26.75 28 26.75Z" fill="black"/>
</svg>
