<svg width="32" height="32" viewBox="0 0 32 32" fill="none" xmlns="http://www.w3.org/2000/svg">
<path d="M6.99971 20.5001C7.09859 20.5001 7.19525 20.4708 7.27746 20.4158C7.35967 20.3609 7.42374 20.2828 7.46158 20.1915C7.49942 20.1001 7.50932 19.9996 7.49003 19.9026C7.47075 19.8056 7.42314 19.7165 7.35323 19.6466L4.20766 16.501L15.9997 16.5001C16.1323 16.5001 16.2595 16.4474 16.3533 16.3536C16.447 16.2599 16.4997 16.1327 16.4997 16.0001C16.4997 15.8675 16.447 15.7403 16.3533 15.6465C16.2595 15.5528 16.1323 15.5001 15.9997 15.5001L4.20583 15.501L7.35323 12.3536C7.44543 12.2595 7.49677 12.1329 7.4961 12.0011C7.49544 11.8694 7.44282 11.7433 7.34968 11.6502C7.25654 11.557 7.1304 11.5044 6.99869 11.5037C6.86697 11.5031 6.74031 11.5544 6.64623 11.6466L2.64623 15.6466C2.59979 15.693 2.56296 15.7481 2.53782 15.8088C2.51269 15.8694 2.49976 15.9344 2.49976 16.0001C2.49976 16.0658 2.51269 16.1308 2.53782 16.1914C2.56296 16.2521 2.59979 16.3072 2.64623 16.3536L6.64623 20.3536C6.69259 20.4001 6.74769 20.437 6.80835 20.4621C6.86901 20.4873 6.93404 20.5002 6.99971 20.5001Z" fill="black"/>
<path d="M15.9997 2.50012C13.9471 2.49435 11.9206 2.95943 10.0759 3.85959C8.23124 4.75975 6.61759 6.07101 5.35909 7.69251C5.3187 7.74419 5.28887 7.80333 5.27133 7.86653C5.25379 7.92974 5.24886 7.99578 5.25684 8.06089C5.26483 8.126 5.28555 8.1889 5.31784 8.246C5.35013 8.3031 5.39335 8.35328 5.44503 8.39368C5.49671 8.43408 5.55585 8.4639 5.61905 8.48144C5.68226 8.49899 5.74831 8.50391 5.81342 8.49593C5.87853 8.48795 5.94143 8.46722 5.99853 8.43493C6.05562 8.40264 6.10581 8.35942 6.1462 8.30774C7.74797 6.25612 9.95023 4.75568 12.4457 4.01579C14.9412 3.2759 17.6054 3.33346 20.0666 4.18044C22.5277 5.02743 24.6631 6.62158 26.1748 8.74046C27.6865 10.8594 28.499 13.3973 28.499 16.0001C28.499 18.603 27.6865 21.1409 26.1748 23.2598C24.6631 25.3787 22.5277 26.9728 20.0666 27.8198C17.6054 28.6668 14.9412 28.7243 12.4457 27.9845C9.95023 27.2446 7.74797 25.7441 6.1462 23.6925C6.10581 23.6408 6.05562 23.5976 5.99853 23.5653C5.94143 23.533 5.87853 23.5123 5.81342 23.5043C5.74831 23.4963 5.68226 23.5013 5.61905 23.5188C5.55585 23.5364 5.49671 23.5662 5.44503 23.6066C5.39335 23.647 5.35013 23.6971 5.31784 23.7542C5.28555 23.8113 5.26483 23.8742 5.25684 23.9394C5.24886 24.0045 5.25379 24.0705 5.27133 24.1337C5.28887 24.1969 5.3187 24.2561 5.35909 24.3077C6.76839 26.1128 8.61372 27.5297 10.7215 28.4251C12.8292 29.3205 15.1301 29.665 17.4077 29.4262C19.6853 29.1874 21.8646 28.3731 23.7408 27.06C25.617 25.7468 27.1283 23.978 28.1325 21.9198C29.1367 19.8617 29.6009 17.5819 29.4813 15.295C29.3617 13.0081 28.6623 10.7892 27.4489 8.84698C26.2355 6.90481 24.548 5.30324 22.5451 4.19293C20.5422 3.08263 18.2898 2.50009 15.9997 2.50012Z" fill="black"/>
</svg>
