<svg xmlns="http://www.w3.org/2000/svg" width="32" height="32" viewBox="0 0 32 32"><path d="M4 21C3.86861 20.9997 3.73845 21.0254 3.61701 21.0756C3.49556 21.1257 3.38522 21.1994 3.29231 21.2923C3.1994 21.3852 3.12575 21.4956 3.07559 21.617C3.02542 21.7385 2.99974 21.8686 3 22V26C3 26.2652 3.10536 26.5196 3.2929 26.7071C3.48043 26.8946 3.73479 27 4 27C4.26522 27 4.51957 26.8946 4.70711 26.7071C4.89464 26.5196 5 26.2652 5 26V22C5 21.7348 4.89464 21.4804 4.70711 21.2929C4.51957 21.1054 4.26522 21 4 21ZM12 17C11.8686 16.9997 11.7385 17.0254 11.617 17.0756C11.4956 17.1257 11.3852 17.1994 11.2923 17.2923C11.1994 17.3852 11.1257 17.4956 11.0756 17.617C11.0254 17.7385 10.9997 17.8686 11 18V26C11 26.2652 11.1054 26.5196 11.2929 26.7071C11.4804 26.8946 11.7348 27 12 27C12.2652 27 12.5196 26.8946 12.7071 26.7071C12.8946 26.5196 13 26.2652 13 26V18C13 17.7348 12.8946 17.4804 12.7071 17.2929C12.5196 17.1054 12.2652 17 12 17ZM20 27C20.2652 27 20.5196 26.8946 20.7071 26.7071C20.8946 26.5196 21 26.2652 21 26C21 25.7348 20.8946 25.4804 20.7071 25.2929C20.5196 25.1054 20.2652 25 20 25C19.7348 25 19.4804 25.1054 19.2929 25.2929C19.1054 25.4804 19 25.7348 19 26C19 26.2652 19.1054 26.5196 19.2929 26.7071C19.4804 26.8946 19.7348 27 20 27ZM28 27C28.2652 27 28.5196 26.8946 28.7071 26.7071C28.8946 26.5196 29 26.2652 29 26C29 25.7348 28.8946 25.4804 28.7071 25.2929C28.5196 25.1054 28.2652 25 28 25C27.7348 25 27.4804 25.1054 27.2929 25.2929C27.1054 25.4804 27 25.7348 27 26C27 26.2652 27.1054 26.5196 27.2929 26.7071C27.4804 26.8946 27.7348 27 28 27Z"/></svg>