<svg xmlns="http://www.w3.org/2000/svg" width="32" height="32" viewBox="0 0 32 32"><path d="M4 21.25C3.80109 21.25 3.61032 21.329 3.46967 21.4697C3.32902 21.6103 3.25 21.8011 3.25 22V26C3.25 26.1989 3.32902 26.3897 3.46967 26.5304C3.61032 26.671 3.80109 26.75 4 26.75C4.19891 26.75 4.38968 26.671 4.53033 26.5304C4.67098 26.3897 4.75 26.1989 4.75 26V22C4.75 21.8011 4.67098 21.6103 4.53033 21.4697C4.38968 21.329 4.19891 21.25 4 21.25ZM12 17.249C11.8011 17.249 11.6103 17.328 11.4697 17.4687C11.329 17.6093 11.25 17.8001 11.25 17.999V25.999C11.25 26.1979 11.329 26.3887 11.4697 26.5294C11.6103 26.67 11.8011 26.749 12 26.749C12.1989 26.749 12.3897 26.67 12.5303 26.5294C12.671 26.3887 12.75 26.1979 12.75 25.999V17.999C12.75 17.8001 12.671 17.6093 12.5303 17.4687C12.3897 17.328 12.1989 17.249 12 17.249ZM20 11.249C19.8011 11.249 19.6103 11.328 19.4697 11.4687C19.329 11.6093 19.25 11.8001 19.25 11.999V25.999C19.25 26.1979 19.329 26.3887 19.4697 26.5294C19.6103 26.67 19.8011 26.749 20 26.749C20.1989 26.749 20.3897 26.67 20.5303 26.5294C20.671 26.3887 20.75 26.1979 20.75 25.999V11.999C20.75 11.8001 20.671 11.6093 20.5303 11.4687C20.3897 11.328 20.1989 11.249 20 11.249ZM28 26.75C28.1989 26.75 28.3897 26.671 28.5303 26.5304C28.671 26.3897 28.75 26.1989 28.75 26C28.75 25.8011 28.671 25.6103 28.5303 25.4697C28.3897 25.329 28.1989 25.25 28 25.25C27.8011 25.25 27.6103 25.329 27.4697 25.4697C27.329 25.6103 27.25 25.8011 27.25 26C27.25 26.1989 27.329 26.3897 27.4697 26.5304C27.6103 26.671 27.8011 26.75 28 26.75Z"/></svg>