<svg width="32" height="32" viewBox="0 0 32 32" fill="none" xmlns="http://www.w3.org/2000/svg">
<path d="M7.00001 20.75C7.14825 20.7499 7.29313 20.7058 7.41634 20.6234C7.53956 20.541 7.63559 20.4239 7.6923 20.2869C7.74901 20.15 7.76386 19.9993 7.73498 19.8539C7.70609 19.7085 7.63477 19.5749 7.53001 19.47L4.81101 16.75H16C16.1989 16.75 16.3897 16.671 16.5303 16.5303C16.671 16.3897 16.75 16.1989 16.75 16C16.75 15.8011 16.671 15.6103 16.5303 15.4697C16.3897 15.329 16.1989 15.25 16 15.25H4.81001L7.53001 12.53C7.6667 12.3886 7.74238 12.1992 7.74077 12.0025C7.73915 11.8059 7.66037 11.6177 7.52137 11.4786C7.38238 11.3395 7.19431 11.2605 6.99766 11.2587C6.80101 11.2569 6.61153 11.3324 6.47001 11.469L2.47001 15.469C2.32956 15.6096 2.25067 15.8002 2.25067 15.999C2.25067 16.1977 2.32956 16.3884 2.47001 16.529L6.47001 20.529C6.53946 20.5988 6.62205 20.6542 6.71301 20.692C6.80398 20.7297 6.90152 20.7491 7.00001 20.749V20.75Z" fill="#0F0F0F"/>
<path d="M16 2.24999C13.9094 2.24406 11.8453 2.71767 9.96643 3.6344C8.08755 4.55113 6.44394 5.88656 5.16201 7.53799C5.09834 7.61523 5.05077 7.70444 5.02211 7.80035C4.99346 7.89626 4.98429 7.99694 4.99515 8.09645C5.00602 8.19596 5.03669 8.29229 5.08537 8.37976C5.13404 8.46723 5.19973 8.54407 5.27857 8.60575C5.35741 8.66743 5.4478 8.71271 5.54441 8.73891C5.64102 8.76511 5.7419 8.77171 5.8411 8.75831C5.9403 8.74491 6.03582 8.71179 6.12202 8.6609C6.20822 8.61001 6.28336 8.54238 6.34301 8.46199C7.91266 6.45127 10.0709 4.98071 12.5164 4.25549C14.962 3.53028 17.573 3.5866 19.985 4.4166C22.3971 5.24659 24.4899 6.80885 25.9714 8.88539C27.4528 10.9619 28.2491 13.4491 28.2491 16C28.2491 18.5508 27.4528 21.0381 25.9714 23.1146C24.4899 25.1911 22.3971 26.7534 19.985 27.5834C17.573 28.4134 14.962 28.4697 12.5164 27.7445C10.0709 27.0193 7.91266 25.5487 6.34301 23.538C6.28336 23.4576 6.20822 23.39 6.12202 23.3391C6.03582 23.2882 5.9403 23.2551 5.8411 23.2417C5.7419 23.2283 5.64102 23.2349 5.54441 23.2611C5.4478 23.2873 5.35741 23.3326 5.27857 23.3942C5.19973 23.4559 5.13404 23.5328 5.08537 23.6202C5.03669 23.7077 5.00602 23.804 4.99515 23.9035C4.98429 24.003 4.99346 24.1037 5.02211 24.1996C5.05077 24.2955 5.09834 24.3848 5.16201 24.462C6.59745 26.3004 8.47697 27.7435 10.6238 28.6555C12.7706 29.5674 15.1141 29.9183 17.4338 29.675C19.7536 29.4317 21.9733 28.6024 23.8842 27.2649C25.7951 25.9274 27.3344 24.1259 28.3572 22.0296C29.38 19.9334 29.8528 17.6114 29.731 15.2821C29.6092 12.9528 28.8969 10.6928 27.6611 8.71466C26.4252 6.7365 24.7065 5.10524 22.6665 3.97433C20.6266 2.84342 18.3325 2.25003 16 2.24999V2.24999Z" fill="#0F0F0F"/>
</svg>
