<svg width="32" height="32" viewBox="0 0 32 32" fill="none" xmlns="http://www.w3.org/2000/svg">
<path d="M14.7916 16.501L11.6468 19.6466C11.5996 19.6929 11.5621 19.748 11.5363 19.8089C11.5106 19.8697 11.4971 19.9351 11.4968 20.0012C11.4965 20.0673 11.5092 20.1327 11.5344 20.1939C11.5595 20.255 11.5965 20.3105 11.6432 20.3572C11.69 20.4039 11.7455 20.4409 11.8066 20.4661C11.8677 20.4912 11.9332 20.504 11.9993 20.5036C12.0654 20.5033 12.1307 20.4899 12.1916 20.4641C12.2524 20.4384 12.3076 20.4008 12.3538 20.3536L16.3528 16.3536C16.3993 16.3072 16.4361 16.2521 16.4612 16.1915C16.4864 16.1308 16.4993 16.0658 16.4993 16.0001C16.4993 15.9345 16.4864 15.8695 16.4612 15.8088C16.4361 15.7482 16.3993 15.693 16.3528 15.6466L12.3538 11.6466C12.2598 11.5544 12.1331 11.5031 12.0014 11.5038C11.8697 11.5044 11.7435 11.557 11.6504 11.6502C11.5572 11.7433 11.5046 11.8695 11.504 12.0012C11.5033 12.1329 11.5546 12.2596 11.6468 12.3536L14.7934 15.501L4.50037 15.5002V12.0001C4.50037 11.8675 4.44769 11.7403 4.35392 11.6466C4.26015 11.5528 4.13297 11.5001 4.00037 11.5001C3.86776 11.5001 3.74058 11.5528 3.64681 11.6466C3.55304 11.7403 3.50037 11.8675 3.50037 12.0001V20.0001C3.50037 20.1327 3.55304 20.2599 3.64681 20.3537C3.74058 20.4474 3.86776 20.5001 4.00037 20.5001C4.13297 20.5001 4.26015 20.4474 4.35392 20.3537C4.44769 20.2599 4.50037 20.1327 4.50037 20.0001V16.5002L14.7916 16.501Z" fill="black"/>
<path d="M16.0003 2.50012C13.9476 2.49445 11.921 2.95957 10.0762 3.85971C8.23134 4.75986 6.61751 6.07106 5.35874 7.69251C5.27715 7.79689 5.24037 7.9294 5.25649 8.06089C5.27261 8.19239 5.3403 8.3121 5.44468 8.39368C5.54905 8.47526 5.68156 8.51204 5.81306 8.49593C5.94455 8.47981 6.06426 8.41212 6.14585 8.30774C7.74761 6.25612 9.94987 4.75568 12.4453 4.01579C14.9408 3.2759 17.605 3.33346 20.0662 4.18044C22.5274 5.02743 24.6628 6.62158 26.1744 8.74046C27.6861 10.8594 28.4986 13.3973 28.4986 16.0001C28.4986 18.603 27.6861 21.1409 26.1744 23.2598C24.6628 25.3787 22.5274 26.9728 20.0662 27.8198C17.605 28.6668 14.9408 28.7243 12.4453 27.9845C9.94987 27.2446 7.74761 25.7441 6.14585 23.6925C6.10545 23.6408 6.05527 23.5976 5.99817 23.5653C5.94107 23.533 5.87817 23.5123 5.81306 23.5043C5.74795 23.4963 5.68191 23.5013 5.6187 23.5188C5.55549 23.5364 5.49636 23.5662 5.44468 23.6066C5.39299 23.647 5.34977 23.6971 5.31748 23.7542C5.2852 23.8113 5.26447 23.8742 5.25649 23.9394C5.24851 24.0045 5.25343 24.0705 5.27097 24.1337C5.28852 24.1969 5.31834 24.2561 5.35874 24.3077C6.76799 26.1129 8.6133 27.5299 10.7211 28.4255C12.8289 29.321 15.1298 29.6656 17.4074 29.4269C19.6851 29.1882 21.8646 28.374 23.7409 27.0608C25.6172 25.7477 27.1286 23.9789 28.1329 21.9207C29.1372 19.8626 29.6015 17.5828 29.4819 15.2958C29.3624 13.0088 28.6631 10.7897 27.4497 8.84748C26.2363 6.90521 24.5488 5.30354 22.5459 4.19315C20.5429 3.08276 18.2905 2.50015 16.0003 2.50012Z" fill="black"/>
</svg>
