<svg xmlns="http://www.w3.org/2000/svg" width="32" height="32" viewBox="0 0 32 32"><path d="M4 26.75C4.19891 26.75 4.38968 26.671 4.53033 26.5303C4.67098 26.3897 4.75 26.1989 4.75 26C4.75 25.8011 4.67098 25.6103 4.53033 25.4697C4.38968 25.329 4.19891 25.25 4 25.25C3.80109 25.25 3.61032 25.329 3.46967 25.4697C3.32902 25.6103 3.25 25.8011 3.25 26C3.25 26.1989 3.32902 26.3897 3.46967 26.5303C3.61032 26.671 3.80109 26.75 4 26.75ZM12 26.75C12.1989 26.75 12.3897 26.671 12.5303 26.5303C12.671 26.3897 12.75 26.1989 12.75 26C12.75 25.8011 12.671 25.6103 12.5303 25.4697C12.3897 25.329 12.1989 25.25 12 25.25C11.8011 25.25 11.6103 25.329 11.4697 25.4697C11.329 25.6103 11.25 25.8011 11.25 26C11.25 26.1989 11.329 26.3897 11.4697 26.5303C11.6103 26.671 11.8011 26.75 12 26.75ZM20 26.75C20.1989 26.75 20.3897 26.671 20.5303 26.5303C20.671 26.3897 20.75 26.1989 20.75 26C20.75 25.8011 20.671 25.6103 20.5303 25.4697C20.3897 25.329 20.1989 25.25 20 25.25C19.8011 25.25 19.6103 25.329 19.4697 25.4697C19.329 25.6103 19.25 25.8011 19.25 26C19.25 26.1989 19.329 26.3897 19.4697 26.5303C19.6103 26.671 19.8011 26.75 20 26.75ZM28 26.75C28.1989 26.75 28.3897 26.671 28.5303 26.5303C28.671 26.3897 28.75 26.1989 28.75 26C28.75 25.8011 28.671 25.6103 28.5303 25.4697C28.3897 25.329 28.1989 25.25 28 25.25C27.8011 25.25 27.6103 25.329 27.4697 25.4697C27.329 25.6103 27.25 25.8011 27.25 26C27.25 26.1989 27.329 26.3897 27.4697 26.5303C27.6103 26.671 27.8011 26.75 28 26.75Z"/></svg>