<svg width="32" height="32" viewBox="0 0 32 32" fill="none" xmlns="http://www.w3.org/2000/svg">
<path d="M4.00012 21C3.86879 21 3.73874 21.0258 3.6174 21.076C3.49606 21.1263 3.3858 21.1999 3.29294 21.2928C3.20007 21.3857 3.12641 21.4959 3.07617 21.6173C3.02593 21.7386 3.00009 21.8687 3.00012 22V26C3.00012 26.2652 3.10548 26.5196 3.29302 26.7071C3.48055 26.8946 3.73491 27 4.00012 27C4.26534 27 4.51969 26.8946 4.70723 26.7071C4.89477 26.5196 5.00012 26.2652 5.00012 26V22C5.00016 21.8687 4.97431 21.7386 4.92407 21.6173C4.87383 21.4959 4.80017 21.3857 4.70731 21.2928C4.61444 21.2 4.50419 21.1263 4.38285 21.0761C4.26151 21.0258 4.13145 21 4.00012 21Z" fill="black"/>
<path d="M12 27C12.5523 27 13 26.5522 13 26C13 25.4477 12.5523 25 12 25C11.4477 25 11 25.4477 11 26C11 26.5522 11.4477 27 12 27Z" fill="black"/>
<path d="M20 27C20.5523 27 21 26.5522 21 26C21 25.4477 20.5523 25 20 25C19.4477 25 19 25.4477 19 26C19 26.5522 19.4477 27 20 27Z" fill="black"/>
<path d="M28 27C28.5523 27 29 26.5522 29 26C29 25.4477 28.5523 25 28 25C27.4477 25 27 25.4477 27 26C27 26.5522 27.4477 27 28 27Z" fill="black"/>
</svg>
