<svg width="32" height="32" viewBox="0 0 32 32" fill="none" xmlns="http://www.w3.org/2000/svg">
<path d="M7 21C7.19775 21 7.39105 20.9413 7.55546 20.8314C7.71987 20.7215 7.84801 20.5654 7.92368 20.3827C7.99935 20.2 8.01915 19.9989 7.98059 19.805C7.94202 19.611 7.84681 19.4329 7.707 19.293L5.415 17.001H16C16.2652 17.001 16.5196 16.8957 16.7071 16.7081C16.8946 16.5206 17 16.2662 17 16.001C17 15.7358 16.8946 15.4814 16.7071 15.2939C16.5196 15.1064 16.2652 15.001 16 15.001H5.413L7.707 12.707C7.88916 12.5184 7.98996 12.2658 7.98768 12.0036C7.9854 11.7414 7.88023 11.4906 7.69482 11.3052C7.50941 11.1198 7.2586 11.0146 6.9964 11.0123C6.73421 11.0101 6.48161 11.1109 6.293 11.293L2.293 15.293C2.20006 15.3858 2.12632 15.496 2.07601 15.6173C2.0257 15.7386 1.9998 15.8687 1.9998 16C1.9998 16.1313 2.0257 16.2614 2.07601 16.3827C2.12632 16.504 2.20006 16.6142 2.293 16.707L6.293 20.707C6.38574 20.8 6.49594 20.8738 6.61727 20.924C6.7386 20.9743 6.86867 21.0001 7 21V21Z" fill="#0F0F0F"/>
<path d="M16 1.99999C13.8715 1.9942 11.7699 2.47651 9.85695 3.40987C7.94396 4.34322 6.27043 5.70276 4.965 7.38399C4.80779 7.59334 4.73895 7.85599 4.77326 8.11554C4.80757 8.37509 4.9423 8.61083 5.14852 8.77213C5.35473 8.93344 5.61598 9.00744 5.87615 8.97824C6.13632 8.94905 6.37467 8.81899 6.54 8.61599C8.0776 6.64626 10.1917 5.20567 12.5874 4.49522C14.9831 3.78477 17.5408 3.83991 19.9037 4.65295C22.2665 5.46599 24.3166 6.99637 25.7679 9.03054C27.2191 11.0647 27.9992 13.5012 27.9992 16C27.9992 18.4988 27.2191 20.9353 25.7679 22.9694C24.3166 25.0036 22.2665 26.534 19.9037 27.347C17.5408 28.1601 14.9831 28.2152 12.5874 27.5048C10.1917 26.7943 8.0776 25.3537 6.54 23.384C6.37663 23.175 6.13693 23.0395 5.87363 23.0072C5.61033 22.975 5.345 23.0486 5.136 23.212C4.92701 23.3754 4.79148 23.6151 4.75923 23.8784C4.72697 24.1417 4.80063 24.407 4.964 24.616C6.42554 26.4878 8.3392 27.9571 10.525 28.8856C12.7108 29.8141 15.0968 30.1713 17.4587 29.9237C19.8206 29.676 22.0806 28.8316 24.0263 27.4699C25.9719 26.1082 27.5392 24.2739 28.5806 22.1396C29.6221 20.0054 30.1035 17.6412 29.9796 15.2696C29.8558 12.8981 29.1306 10.597 27.8724 8.58283C26.6143 6.56868 24.8644 4.9077 22.7875 3.75612C20.7106 2.60454 18.3748 2.00021 16 1.99999V1.99999Z" fill="#0F0F0F"/>
</svg>
