<svg width="32" height="32" viewBox="0 0 32 32" xmlns="http://www.w3.org/2000/svg"><path d="M19.1478 4.14644C19.2415 4.05268 19.3687 4 19.5013 4C19.634 4 19.7612 4.05268 19.8549 4.14644C19.9487 4.24019 20.0014 4.36737 20.0014 4.5V4.95267C20.0006 4.96835 20.0002 4.98413 20.0002 5V13C20.0002 13.5523 20.448 14 21.0002 14C21.5525 14 22.0002 13.5523 22.0002 13V5.54733C22.001 5.53165 22.0014 5.51587 22.0014 5.5C22.0014 5.36737 22.054 5.24019 22.1478 5.14644C22.2415 5.05268 22.3687 5 22.5014 5C22.634 5 22.7612 5.05268 22.8549 5.14644C22.9487 5.24019 23.0014 5.36737 23.0014 5.5V14C23.0014 14.0461 23.0045 14.0915 23.0105 14.136C23.0043 14.2797 23.0014 14.4245 23.0014 14.57V16.1134C22.0493 16.3098 21.1671 16.7807 20.4695 17.4783C19.5334 18.4144 19.0056 19.6829 19.0014 21.0068C18.9996 21.5591 19.4458 22.0082 19.9981 22.01C20.5504 22.0118 20.9996 21.5655 21.0013 21.0132C21.0039 20.2175 21.3211 19.4551 21.8837 18.8925C22.4464 18.3298 23.2088 18.0126 24.0046 18.01C24.5556 18.0082 25.0014 17.561 25.0014 17.01V14.57C25.0014 13.7244 25.1244 13.0865 25.3246 12.6621C25.5077 12.2741 25.7314 12.1009 26.0014 12.0327V21.505C26.0014 23.2289 25.3165 24.8822 24.0975 26.1012C22.8785 27.3202 21.2252 28.005 19.5013 28.005C17.7774 28.005 16.1241 27.3202 14.9051 26.1012C14.5146 25.7107 13.8814 25.7107 13.4909 26.1012C13.1004 26.4917 13.1004 27.1249 13.4909 27.5154C15.085 29.1095 17.247 30.005 19.5013 30.005C21.7557 30.005 23.9176 29.1094 25.5117 27.5154C27.1057 25.9214 28.0013 23.7594 28.0013 21.505V12.0693C28.0343 11.7656 27.9929 11.458 27.88 11.1731C27.7557 10.8592 27.5491 10.5845 27.282 10.3778C27.0149 10.1711 26.6971 10.0402 26.362 9.9986C26.0584 9.96096 25.7508 9.99792 25.4656 10.1056C25.3018 10.1497 25.1471 10.2059 25.0014 10.2731V5.5C25.0014 4.83698 24.738 4.20108 24.2691 3.73222C23.8003 3.26337 23.1644 3 22.5014 3C22.1951 3 21.8946 3.05619 21.6137 3.16287C21.5159 3.00825 21.4006 2.86367 21.2691 2.73222C20.8003 2.26337 20.1644 2 19.5013 2C18.8383 2 18.2024 2.26337 17.7336 2.73222C17.6021 2.86367 17.4868 3.00825 17.389 3.16287C17.1081 3.05619 16.8076 3 16.5013 3C15.8383 3 15.2024 3.26337 14.7336 3.73222C14.2647 4.20108 14.0013 4.83698 14.0013 5.5V6.0505C13.838 6.01715 13.6706 6 13.5013 6C12.8383 6 12.2024 6.26337 11.7336 6.73222C11.2647 7.20108 11.0013 7.83698 11.0013 8.5C11.0013 9.59286 11.0008 11.1655 11.0003 12.8071L11.0002 12.9997C11.0001 13.552 11.4476 13.9998 11.9999 14C12.5522 14.0002 13.0001 13.5526 13.0002 13.0003L13.0003 12.7968C13.0008 11.1592 13.0013 9.5908 13.0013 8.5C13.0013 8.36737 13.054 8.24019 13.1478 8.14644C13.2415 8.05268 13.3687 8 13.5013 8C13.634 8 13.7612 8.05268 13.8549 8.14644C13.9408 8.23235 13.9922 8.34632 14.0002 8.46684V13C14.0002 13.5523 14.448 14 15.0002 14C15.5525 14 16.0002 13.5523 16.0002 13V8.54731C16.001 8.53163 16.0013 8.51586 16.0013 8.5V5.5C16.0013 5.36737 16.054 5.24019 16.1478 5.14644C16.2415 5.05268 16.3687 5 16.5013 5C16.634 5 16.7612 5.05268 16.8549 5.14644C16.9408 5.23235 16.9922 5.34632 17.0002 5.46684V13C17.0002 13.5523 17.448 14 18.0002 14C18.5525 14 19.0002 13.5523 19.0002 13V5.54731C19.001 5.53163 19.0013 5.51586 19.0013 5.5V4.5C19.0013 4.36737 19.054 4.24019 19.1478 4.14644ZM9.91406 14.5939C9.75356 14.2327 9.39544 14 9.00025 14C8.60506 14 8.24694 14.2327 8.08644 14.5939L4.08644 23.5939C3.86213 24.0985 4.08943 24.6895 4.59411 24.9138C5.0988 25.1381 5.68976 24.9108 5.91406 24.4061L6.98346 22H11.017L12.0864 24.4061C12.3107 24.9108 12.9017 25.1381 13.4064 24.9138C13.9111 24.6895 14.1384 24.0985 13.9141 23.5939L9.91406 14.5939ZM9.00025 17.4622L10.1282 20H7.87235L9.00025 17.4622Z"/></svg>