<svg xmlns="http://www.w3.org/2000/svg" width="32" height="32" viewBox="0 0 32 32"><path d="M6.99995 20.7501C7.14819 20.75 7.29307 20.7059 7.41628 20.6235C7.5395 20.5411 7.63553 20.424 7.69224 20.287C7.74895 20.15 7.7638 19.9993 7.73492 19.8539C7.70603 19.7085 7.63471 19.575 7.52995 19.4701L4.81095 16.7501H16C16.1989 16.7501 16.3896 16.6711 16.5303 16.5304C16.6709 16.3898 16.75 16.199 16.75 16.0001C16.75 15.8012 16.6709 15.6104 16.5303 15.4698C16.3896 15.3291 16.1989 15.2501 16 15.2501H4.80995L7.52995 12.5301C7.66664 12.3887 7.74232 12.1993 7.74071 12.0026C7.73909 11.806 7.6603 11.6178 7.52131 11.4787C7.38232 11.3396 7.19425 11.2606 6.9976 11.2588C6.80095 11.257 6.61147 11.3325 6.46995 11.4691L2.46995 15.4691C2.3295 15.6097 2.25061 15.8003 2.25061 15.9991C2.25061 16.1978 2.3295 16.3885 2.46995 16.5291L6.46995 20.5291C6.5394 20.5989 6.62198 20.6543 6.71295 20.6921C6.80392 20.7298 6.90146 20.7492 6.99995 20.7491V20.7501Z M16 2.25006C13.9094 2.24412 11.8453 2.71773 9.96643 3.63446C8.08755 4.55119 6.44394 5.88662 5.16201 7.53806C5.09834 7.6153 5.05077 7.7045 5.02211 7.80041C4.99346 7.89632 4.98429 7.997 4.99515 8.09651C5.00602 8.19602 5.03669 8.29235 5.08537 8.37982C5.13404 8.46729 5.19973 8.54413 5.27857 8.60581C5.35741 8.66749 5.4478 8.71277 5.54441 8.73897C5.64102 8.76517 5.7419 8.77177 5.8411 8.75837C5.9403 8.74497 6.03582 8.71185 6.12202 8.66096C6.20822 8.61007 6.28336 8.54244 6.34301 8.46206C7.91266 6.45133 10.0709 4.98076 12.5164 4.25555C14.962 3.53033 17.573 3.58665 19.985 4.41665C22.3971 5.24664 24.4899 6.80891 25.9714 8.88545C27.4528 10.962 28.2491 13.4492 28.2491 16.0001C28.2491 18.5509 27.4528 21.0381 25.9714 23.1147C24.4899 25.1912 22.3971 26.7535 19.985 27.5835C17.573 28.4134 14.962 28.4698 12.5164 27.7446C10.0709 27.0193 7.91266 25.5488 6.34301 23.5381C6.28336 23.4577 6.20822 23.39 6.12202 23.3391C6.03582 23.2883 5.9403 23.2551 5.8411 23.2417C5.7419 23.2283 5.64102 23.2349 5.54441 23.2611C5.4478 23.2873 5.35741 23.3326 5.27857 23.3943C5.19973 23.456 5.13404 23.5328 5.08537 23.6203C5.03669 23.7078 5.00602 23.8041 4.99515 23.9036C4.98429 24.0031 4.99346 24.1038 5.02211 24.1997C5.05077 24.2956 5.09834 24.3848 5.16201 24.4621C6.59745 26.3005 8.47697 27.7436 10.6238 28.6555C12.7706 29.5675 15.1141 29.9183 17.4338 29.6751C19.7536 29.4318 21.9733 28.6024 23.8842 27.265C25.7951 25.9275 27.3344 24.1259 28.3572 22.0297C29.38 19.9334 29.8528 17.6115 29.731 15.2822C29.6092 12.9529 28.8969 10.6929 27.6611 8.71472C26.4252 6.73655 24.7065 5.1053 22.6665 3.97439C20.6266 2.84348 18.3325 2.2501 16 2.25006Z"/></svg>