<svg width="32" height="32" viewBox="0 0 32 32" fill="none" xmlns="http://www.w3.org/2000/svg">
<path d="M7 20.5C7.09873 20.4998 7.19518 20.4703 7.2772 20.4154C7.35923 20.3604 7.42314 20.2824 7.46089 20.1912C7.49865 20.1 7.50855 19.9996 7.48934 19.9028C7.47014 19.8059 7.4227 19.7169 7.353 19.647L4.208 16.5H16C16.1326 16.5 16.2598 16.4473 16.3535 16.3536C16.4473 16.2598 16.5 16.1326 16.5 16C16.5 15.8674 16.4473 15.7402 16.3535 15.6464C16.2598 15.5527 16.1326 15.5 16 15.5H4.206L7.353 12.353C7.44408 12.2587 7.49447 12.1324 7.49333 12.0013C7.49219 11.8702 7.43961 11.7448 7.34691 11.6521C7.2542 11.5594 7.1288 11.5068 6.9977 11.5057C6.8666 11.5045 6.7403 11.5549 6.646 11.646L2.646 15.646C2.55226 15.7398 2.4996 15.8669 2.4996 15.9995C2.4996 16.1321 2.55226 16.2592 2.646 16.353L6.646 20.353C6.69237 20.3997 6.74753 20.4367 6.80829 20.4619C6.86905 20.4872 6.93421 20.5001 7 20.5V20.5Z" fill="#0F0F0F"/>
<path d="M16 2.49999C13.9475 2.49441 11.921 2.95964 10.0765 3.8599C8.23192 4.76016 6.6184 6.07147 5.36001 7.69299C5.28813 7.79787 5.2589 7.9262 5.27828 8.05186C5.29766 8.17752 5.36419 8.29108 5.46433 8.36943C5.56447 8.44779 5.69069 8.48504 5.81733 8.47363C5.94396 8.46222 6.06149 8.40298 6.14601 8.30799C7.74772 6.25627 9.94997 4.75574 12.4455 4.01576C14.9409 3.27578 17.6052 3.33328 20.0664 4.18023C22.5277 5.02718 24.6631 6.62132 26.1748 8.74023C27.6865 10.8591 28.4991 13.3971 28.4991 16C28.4991 18.6029 27.6865 21.1408 26.1748 23.2597C24.6631 25.3787 22.5277 26.9728 20.0664 27.8197C17.6052 28.6667 14.9409 28.7242 12.4455 27.9842C9.94997 27.2442 7.74772 25.7437 6.14601 23.692C6.10648 23.6378 6.05645 23.592 5.99888 23.5576C5.94132 23.5231 5.8774 23.5005 5.81094 23.4913C5.74447 23.482 5.67683 23.4862 5.61203 23.5037C5.54723 23.5211 5.4866 23.5514 5.43376 23.5928C5.38092 23.6341 5.33695 23.6857 5.30446 23.7444C5.27197 23.8031 5.25163 23.8678 5.24465 23.9345C5.23768 24.0013 5.24421 24.0687 5.26385 24.1329C5.2835 24.197 5.31586 24.2566 5.35901 24.308C6.76833 26.113 8.61367 27.5299 10.7214 28.4253C12.8292 29.3207 15.1301 29.6652 17.4077 29.4264C19.6853 29.1876 21.8646 28.3733 23.7408 27.0601C25.617 25.747 27.1283 23.9782 28.1326 21.92C29.1368 19.8619 29.601 17.5821 29.4814 15.2952C29.3619 13.0082 28.6625 10.7893 27.4491 8.84711C26.2358 6.90492 24.5483 5.30331 22.5454 4.19296C20.5425 3.08261 18.2901 2.50002 16 2.49999V2.49999Z" fill="#0F0F0F"/>
</svg>
