<svg width="32" height="32" viewBox="0 0 32 32" fill="none" xmlns="http://www.w3.org/2000/svg">
<path d="M4.00012 21.2498C3.80123 21.2499 3.61049 21.3289 3.46985 21.4696C3.32921 21.6102 3.25018 21.8009 3.25012 21.9998V25.9998C3.25012 26.1987 3.32914 26.3895 3.46979 26.5302C3.61044 26.6708 3.80121 26.7498 4.00012 26.7498C4.19903 26.7498 4.3898 26.6708 4.53045 26.5302C4.6711 26.3895 4.75012 26.1987 4.75012 25.9998V21.9998C4.75007 21.8009 4.67103 21.6102 4.53039 21.4696C4.38975 21.3289 4.19902 21.2499 4.00012 21.2498Z" fill="black"/>
<path d="M12.0001 17.2488C11.8012 17.2489 11.6105 17.3279 11.4699 17.4686C11.3292 17.6092 11.2502 17.8 11.2501 17.9988V25.9988C11.2501 26.1978 11.3291 26.3885 11.4698 26.5292C11.6104 26.6698 11.8012 26.7488 12.0001 26.7488C12.199 26.7488 12.3898 26.6698 12.5305 26.5292C12.6711 26.3885 12.7501 26.1978 12.7501 25.9988V17.9988C12.7501 17.8 12.671 17.6092 12.5304 17.4686C12.3898 17.3279 12.199 17.2489 12.0001 17.2488Z" fill="black"/>
<path d="M20.0001 11.2488C19.8012 11.2489 19.6105 11.3279 19.4699 11.4686C19.3292 11.6092 19.2502 11.8 19.2501 11.9988V25.9988C19.2501 26.1978 19.3291 26.3885 19.4698 26.5292C19.6104 26.6698 19.8012 26.7488 20.0001 26.7488C20.199 26.7488 20.3898 26.6698 20.5305 26.5292C20.6711 26.3885 20.7501 26.1978 20.7501 25.9988V11.9988C20.7501 11.8 20.671 11.6092 20.5304 11.4686C20.3898 11.3279 20.199 11.2489 20.0001 11.2488Z" fill="black"/>
<path d="M28 26.75C28.4142 26.75 28.75 26.4142 28.75 26C28.75 25.5858 28.4142 25.25 28 25.25C27.5858 25.25 27.25 25.5858 27.25 26C27.25 26.4142 27.5858 26.75 28 26.75Z" fill="black"/>
</svg>
