<svg width="32" height="32" viewBox="0 0 32 32" fill="none" xmlns="http://www.w3.org/2000/svg">
<path d="M25.9855 6.29139C24.6464 4.40813 22.5976 3.32937 20.4597 3.1605C20.1844 3.13875 19.9789 2.89796 20.0006 2.62268C20.0224 2.34739 20.2632 2.14186 20.5385 2.1636C22.9588 2.35478 25.2826 3.57725 26.8005 5.71188C28.3182 7.84621 28.71 10.4421 28.0963 12.7908C28.0265 13.058 27.7533 13.2179 27.4861 13.1481C27.219 13.0783 27.059 12.8051 27.1288 12.538C27.6709 10.4634 27.3245 8.17438 25.9855 6.29139Z" fill="#0F0F0F"/>
<path d="M7.20254 16.0468L4.31711 11.049C3.76483 10.0925 4.09258 8.86927 5.04916 8.31699C5.40585 8.11106 5.79959 8.02748 6.18181 8.05324C6.02901 7.2419 6.39226 6.38717 7.14779 5.95096C7.9032 5.51483 8.82485 5.62749 9.45109 6.16525C9.61991 5.82169 9.88903 5.52277 10.2455 5.31699C11.202 4.7647 12.4252 5.09245 12.9775 6.04904L13.6116 7.14726C13.7812 6.8526 14.0284 6.59731 14.3441 6.41507C15.3007 5.86278 16.5238 6.19053 17.0761 7.14712L23.5761 18.4054C23.5808 18.4135 23.5852 18.4216 23.5893 18.4298C25.7788 22.2525 24.4652 27.1291 20.647 29.3335C16.8207 31.5427 11.928 30.2316 9.71884 26.4053L5.00324 18.2382C4.80222 17.89 4.6692 17.2777 4.94642 16.7458C5.26056 16.1431 5.95921 15.8802 6.94347 15.9988C7.03177 16.0094 7.11815 16.0257 7.20254 16.0468ZM10.3661 7.52525L13.6298 13.1782C13.6331 13.1838 13.6362 13.1894 13.6392 13.1951L14.1294 14.0442C14.2675 14.2834 14.1856 14.5892 13.9464 14.7272C13.7073 14.8653 13.4015 14.7834 13.2634 14.5442L9.5134 8.04904C9.50696 8.03788 9.50063 8.02668 9.49442 8.01544L9.01382 7.18301C8.73768 6.70472 8.12609 6.54084 7.64779 6.81699C7.1695 7.09313 7.00563 7.70472 7.28177 8.18301L11.5318 15.5442C11.6698 15.7834 11.5879 16.0892 11.3488 16.2272C11.1096 16.3653 10.8038 16.2834 10.6657 16.0442L6.9267 9.56802C6.92275 9.56181 6.91891 9.55548 6.91519 9.54904C6.63905 9.07075 6.02745 8.90687 5.54916 9.18301C5.07087 9.45916 4.90699 10.0707 5.18314 10.549L9.48684 18.0033C9.58382 18.1519 9.66673 18.2892 9.7342 18.4063C9.80254 18.5248 9.85571 18.6237 9.89224 18.6939C9.91052 18.729 9.92468 18.7571 9.93453 18.7769L9.94077 18.7895L10.9331 20.5083C11.0712 20.7475 10.9893 21.0533 10.7501 21.1913C10.511 21.3294 10.2052 21.2475 10.0671 21.0083L9.07301 19.2865C9.06905 19.28 9.06522 19.2734 9.06153 19.2666L8.63489 18.5277C8.55181 18.4013 8.45792 18.2671 8.35456 18.1322C8.13633 17.8473 7.88519 17.5717 7.61472 17.3609C7.34274 17.1489 7.07659 17.0221 6.82386 16.9916C6.03905 16.8971 5.87167 17.1342 5.83321 17.208C5.75784 17.3526 5.78565 17.5934 5.86925 17.7382L10.5849 25.9053C12.5179 29.2534 16.799 30.4005 20.147 28.4675C23.4951 26.5345 24.6422 22.2534 22.7092 18.9053L22.703 18.8943L22.6964 18.8817L16.2101 7.64712C15.934 7.16882 15.3224 7.00495 14.8441 7.28109C14.3658 7.55723 14.2019 8.16882 14.4781 8.64712L16.7281 12.5442C16.8661 12.7834 16.7842 13.0892 16.545 13.2272C16.3059 13.3653 16.0001 13.2834 15.862 13.0442L14.873 11.3311C14.8709 11.3278 14.8688 11.3245 14.8668 11.3212C14.865 11.3182 14.8632 11.3152 14.8615 11.3122L12.1115 6.54904C11.8353 6.07075 11.2237 5.90687 10.7455 6.18301C10.2751 6.4546 10.1088 7.05065 10.3661 7.52525Z" fill="#0F0F0F"/>
<path d="M19.987 6.13944C21.3549 6.17515 22.6878 6.83094 23.5407 8.0305C24.3937 9.23005 24.5756 10.7043 24.1602 12.0081C24.0763 12.2712 24.2217 12.5525 24.4848 12.6363C24.7479 12.7202 25.0291 12.5748 25.113 12.3117C25.6197 10.7211 25.3987 8.91769 24.3557 7.45099C23.3127 5.98428 21.6819 5.18334 20.0131 5.13978C19.737 5.13258 19.5074 5.35052 19.5002 5.62657C19.493 5.90262 19.7109 6.13224 19.987 6.13944Z" fill="#0F0F0F"/>
</svg>
