<svg width="32" height="32" viewBox="0 0 32 32" fill="none" xmlns="http://www.w3.org/2000/svg">
<path d="M14.792 16.501L11.647 19.647C11.5992 19.6931 11.5612 19.7483 11.5349 19.8093C11.5087 19.8703 11.495 19.9359 11.4944 20.0023C11.4938 20.0687 11.5064 20.1345 11.5316 20.196C11.5567 20.2574 11.5939 20.3133 11.6408 20.3602C11.6877 20.4071 11.7436 20.4443 11.805 20.4694C11.8665 20.4946 11.9323 20.5072 11.9987 20.5066C12.0651 20.506 12.1307 20.4923 12.1917 20.4661C12.2527 20.4398 12.3079 20.4018 12.354 20.354L16.353 16.354C16.3997 16.3077 16.4367 16.2526 16.4619 16.192C16.4872 16.1313 16.5002 16.0662 16.5002 16.0005C16.5002 15.9348 16.4872 15.8697 16.4619 15.809C16.4367 15.7484 16.3997 15.6933 16.353 15.647L12.353 11.647C12.258 11.5597 12.1329 11.5125 12.0039 11.5152C11.8749 11.518 11.752 11.5705 11.6608 11.6618C11.5697 11.7531 11.5173 11.8761 11.5148 12.0051C11.5122 12.1341 11.5596 12.2591 11.647 12.354L14.793 15.501H4.5V12C4.5 11.8674 4.44732 11.7402 4.35355 11.6464C4.25979 11.5527 4.13261 11.5 4 11.5C3.86739 11.5 3.74021 11.5527 3.64645 11.6464C3.55268 11.7402 3.5 11.8674 3.5 12V20C3.5 20.1326 3.55268 20.2598 3.64645 20.3536C3.74021 20.4473 3.86739 20.5 4 20.5C4.13261 20.5 4.25979 20.4473 4.35355 20.3536C4.44732 20.2598 4.5 20.1326 4.5 20V16.5H14.792V16.501Z" fill="#0F0F0F"/>
<path d="M16 2.49998C13.9475 2.49463 11.9211 2.95996 10.0766 3.8602C8.2321 4.76045 6.61855 6.07164 5.36 7.69298C5.31574 7.74424 5.28234 7.80395 5.26185 7.8685C5.24135 7.93306 5.23418 8.0011 5.24078 8.0685C5.24738 8.1359 5.2676 8.20127 5.30021 8.26062C5.33283 8.31997 5.37717 8.37208 5.43053 8.41378C5.4839 8.45549 5.54518 8.48591 5.61066 8.50321C5.67613 8.52052 5.74445 8.52434 5.81144 8.51445C5.87844 8.50455 5.94274 8.48115 6.00042 8.44566C6.0581 8.41017 6.10797 8.36333 6.147 8.30798C7.74872 6.25627 9.95096 4.75573 12.4465 4.01576C14.9419 3.27578 17.6062 3.33328 20.0674 4.18022C22.5287 5.02717 24.6641 6.62132 26.1758 8.74022C27.6875 10.8591 28.5001 13.3971 28.5001 16C28.5001 18.6029 27.6875 21.1408 26.1758 23.2597C24.6641 25.3787 22.5287 26.9728 20.0674 27.8197C17.6062 28.6667 14.9419 28.7242 12.4465 27.9842C9.95096 27.2442 7.74872 25.7437 6.147 23.692C6.10748 23.6378 6.05744 23.592 5.99988 23.5576C5.94231 23.5231 5.87839 23.5005 5.81193 23.4913C5.74547 23.482 5.67783 23.4862 5.61303 23.5037C5.54823 23.5211 5.4876 23.5514 5.43476 23.5928C5.38192 23.6341 5.33794 23.6857 5.30545 23.7444C5.27296 23.8031 5.25263 23.8678 5.24565 23.9345C5.23867 24.0013 5.2452 24.0687 5.26485 24.1329C5.2845 24.197 5.31686 24.2566 5.36 24.308C6.76935 26.1131 8.61474 27.53 10.7225 28.4254C12.8304 29.3207 15.1313 29.6652 17.4089 29.4263C19.6865 29.1875 21.866 28.3731 23.7421 27.0599C25.6183 25.7467 27.1296 23.9778 28.1338 21.9196C29.138 19.8614 29.6021 17.5815 29.4824 15.2946C29.3627 13.0076 28.6632 10.7886 27.4497 8.84647C26.2362 6.90431 24.5486 5.30277 22.5456 4.19253C20.5426 3.08229 18.2901 2.49984 16 2.49998V2.49998Z" fill="#0F0F0F"/>
</svg>
