<svg width="32" height="32" viewBox="0 0 32 32" fill="none" xmlns="http://www.w3.org/2000/svg">
<path d="M16.0002 2.00012C13.8716 1.99451 11.77 2.47688 9.85685 3.41017C7.94371 4.34346 6.26994 5.70285 4.96411 7.38391C4.88302 7.48738 4.82311 7.60583 4.78782 7.73247C4.75253 7.85912 4.74255 7.99148 4.75845 8.12198C4.77434 8.25248 4.81581 8.37858 4.88047 8.49304C4.94513 8.60751 5.03172 8.70811 5.13529 8.78909C5.23886 8.87007 5.35737 8.92985 5.48406 8.965C5.61074 9.00014 5.74311 9.00998 5.87359 8.99393C6.00408 8.97789 6.13013 8.93628 6.24452 8.87149C6.35892 8.8067 6.45942 8.72 6.54028 8.61634C8.07785 6.64656 10.192 5.2059 12.5877 4.49541C14.9834 3.78491 17.5411 3.84002 19.904 4.65304C22.2669 5.46606 24.317 6.99644 25.7683 9.03061C27.2196 11.0648 27.9997 13.5013 27.9997 16.0001C27.9997 18.499 27.2196 20.9355 25.7683 22.9696C24.317 25.0038 22.2669 26.5342 19.904 27.3472C17.5411 28.1602 14.9834 28.2153 12.5877 27.5048C10.192 26.7943 8.07785 25.3537 6.54028 23.3839C6.45942 23.2802 6.35892 23.1935 6.24452 23.1288C6.13013 23.064 6.00408 23.0224 5.87359 23.0063C5.74311 22.9903 5.61074 23.0001 5.48406 23.0352C5.35737 23.0704 5.23886 23.1302 5.13529 23.2111C5.03172 23.2921 4.94513 23.3927 4.88047 23.5072C4.81581 23.6217 4.77434 23.7478 4.75845 23.8783C4.74255 24.0088 4.75253 24.1411 4.78782 24.2678C4.82311 24.3944 4.88302 24.5129 4.96411 24.6163C6.42563 26.4884 8.33935 27.9578 10.5252 28.8865C12.7111 29.8151 15.0973 30.1725 17.4594 29.9249C19.8214 29.6773 22.0816 28.8329 24.0274 27.4711C25.9732 26.1093 27.5406 24.2749 28.5821 22.1405C29.6237 20.0061 30.1051 17.6418 29.9812 15.2701C29.8573 12.8983 29.132 10.5971 27.8737 8.58287C26.6154 6.56863 24.8654 4.9076 22.7883 3.75603C20.7111 2.60446 18.3752 2.0002 16.0002 2.00012Z" fill="black"/>
<path d="M5.00024 17.0002L13.5847 17.0009L11.2932 19.2931C11.2004 19.3859 11.1267 19.4962 11.0765 19.6175C11.0262 19.7388 11.0003 19.8688 11.0003 20.0001C11.0003 20.1314 11.0262 20.2614 11.0765 20.3828C11.1267 20.5041 11.2004 20.6143 11.2932 20.7072C11.3861 20.8 11.4963 20.8737 11.6176 20.9239C11.7389 20.9742 11.8689 21 12.0002 21C12.1315 21 12.2616 20.9742 12.3829 20.9239C12.5042 20.8737 12.6144 20.8 12.7073 20.7072L16.7063 16.7072C16.7992 16.6143 16.8728 16.5041 16.9231 16.3828C16.9734 16.2615 16.9992 16.1314 16.9992 16.0001C16.9992 15.8688 16.9734 15.7388 16.9231 15.6175C16.8728 15.4961 16.7992 15.3859 16.7063 15.2931L12.7073 11.2931C12.6144 11.2002 12.5042 11.1266 12.3829 11.0763C12.2616 11.0261 12.1315 11.0002 12.0002 11.0002C11.8689 11.0002 11.7389 11.0261 11.6176 11.0763C11.4963 11.1266 11.3861 11.2002 11.2932 11.2931C11.2004 11.3859 11.1267 11.4962 11.0765 11.6175C11.0262 11.7388 11.0003 11.8688 11.0003 12.0001C11.0003 12.1314 11.0262 12.2615 11.0765 12.3828C11.1267 12.5041 11.2004 12.6143 11.2932 12.7072L13.5863 15.0009L5.00024 15.0002V12.0001C5.00024 11.7349 4.89489 11.4805 4.70735 11.293C4.51981 11.1055 4.26546 11.0001 4.00024 11.0001C3.73503 11.0001 3.48067 11.1055 3.29314 11.293C3.1056 11.4805 3.00024 11.7349 3.00024 12.0001V20.0001C3.00024 20.2653 3.1056 20.5197 3.29314 20.7072C3.48067 20.8948 3.73503 21.0001 4.00024 21.0001C4.26546 21.0001 4.51981 20.8948 4.70735 20.7072C4.89489 20.5197 5.00024 20.2653 5.00024 20.0001V17.0002Z" fill="black"/>
</svg>
