<svg xmlns="http://www.w3.org/2000/svg" width="32" height="32" viewBox="0 0 32 32"><path d="M29.53 15.4702L25.53 11.4702C25.4613 11.3965 25.3785 11.3374 25.2865 11.2964C25.1945 11.2554 25.0952 11.2333 24.9945 11.2316C24.8938 11.2298 24.7938 11.2483 24.7004 11.286C24.607 11.3238 24.5222 11.3799 24.451 11.4511C24.3797 11.5223 24.3236 11.6072 24.2859 11.7006C24.2482 11.7939 24.2296 11.894 24.2314 11.9947C24.2332 12.0954 24.2552 12.1947 24.2962 12.2867C24.3372 12.3787 24.3963 12.4615 24.47 12.5302L27.19 15.2502H21C20.9015 15.2502 20.804 15.2696 20.713 15.3072C20.622 15.3449 20.5393 15.4002 20.4697 15.4698C20.4 15.5395 20.3448 15.6221 20.3071 15.7131C20.2694 15.8041 20.25 15.9017 20.25 16.0002C20.25 16.0986 20.2694 16.1962 20.3071 16.2872C20.3448 16.3782 20.4 16.4608 20.4697 16.5305C20.5393 16.6001 20.622 16.6554 20.713 16.6931C20.804 16.7308 20.9015 16.7502 21 16.7502H27.19L24.47 19.4702C24.3963 19.5388 24.3372 19.6216 24.2962 19.7136C24.2552 19.8056 24.2332 19.9049 24.2314 20.0056C24.2296 20.1063 24.2482 20.2064 24.2859 20.2998C24.3236 20.3931 24.3797 20.478 24.451 20.5492C24.5222 20.6204 24.607 20.6766 24.7004 20.7143C24.7938 20.752 24.8938 20.7705 24.9945 20.7687C25.0952 20.767 25.1945 20.7449 25.2865 20.7039C25.3785 20.6629 25.4613 20.6038 25.53 20.5302L29.53 16.5302C29.6702 16.3894 29.7489 16.1988 29.7489 16.0002C29.7489 15.8015 29.6702 15.6109 29.53 15.4702Z M18.782 20.25H17.027C16.1593 19.0056 15.7118 17.5166 15.75 16C15.7108 14.4839 16.1568 12.9949 17.023 11.75H18.791C19.5887 11.7232 20.3444 11.3861 20.8972 10.8104C21.4501 10.2348 21.7564 9.4661 21.751 8.668V5.228C21.7502 4.43826 21.4361 3.6811 20.8775 3.12276C20.319 2.56442 19.5617 2.25053 18.772 2.25H17.305C14.845 2.25 10.251 6.283 10.251 16C10.251 25.717 14.845 29.75 17.305 29.75H18.772C19.5619 29.7495 20.3193 29.4354 20.8779 28.8769C21.4364 28.3183 21.7505 27.5609 21.751 26.771V23.202C21.7478 22.4169 21.4333 21.6652 20.8765 21.1118C20.3197 20.5583 19.5661 20.2484 18.781 20.25H18.782ZM20.25 26.771C20.2497 27.163 20.094 27.5389 19.8169 27.8162C19.5398 28.0934 19.164 28.2495 18.772 28.25H17.305C15.67 28.25 11.751 24.726 11.751 16C11.751 7.274 15.671 3.75 17.305 3.75H18.772C19.1642 3.75026 19.5402 3.90617 19.8175 4.18348C20.0948 4.46079 20.2507 4.83683 20.251 5.229V8.668C20.2562 9.06842 20.1078 9.45562 19.8362 9.7499C19.5646 10.0442 19.1906 10.2232 18.791 10.25H16.837C15.604 10.25 14.251 13.26 14.251 16C14.251 18.74 15.607 21.75 16.842 21.75H18.782C19.1691 21.7484 19.541 21.9004 19.8161 22.1725C20.0913 22.4447 20.2474 22.8149 20.25 23.202V26.772V26.771ZM7 11.25H3C2.80109 11.25 2.61032 11.329 2.46967 11.4697C2.32902 11.6103 2.25 11.8011 2.25 12C2.25 12.1989 2.32902 12.3897 2.46967 12.5303C2.61032 12.671 2.80109 12.75 3 12.75H7C7.19891 12.75 7.38968 12.671 7.53033 12.5303C7.67098 12.3897 7.75 12.1989 7.75 12C7.75 11.8011 7.67098 11.6103 7.53033 11.4697C7.38968 11.329 7.19891 11.25 7 11.25ZM7 19.25H3C2.80109 19.25 2.61032 19.329 2.46967 19.4697C2.32902 19.6103 2.25 19.8011 2.25 20C2.25 20.1989 2.32902 20.3897 2.46967 20.5303C2.61032 20.671 2.80109 20.75 3 20.75H7C7.19891 20.75 7.38968 20.671 7.53033 20.5303C7.67098 20.3897 7.75 20.1989 7.75 20C7.75 19.8011 7.67098 19.6103 7.53033 19.4697C7.38968 19.329 7.19891 19.25 7 19.25Z"/></svg>