<svg xmlns="http://www.w3.org/2000/svg" width="32" height="32" viewBox="0 0 32 32"><path d="M27.8087 2.53774C27.8694 2.51263 27.9344 2.49972 28.0001 2.49976C28.0658 2.49972 28.1308 2.51263 28.1915 2.53774C28.2522 2.56286 28.3073 2.59969 28.3537 2.64613C28.4002 2.69257 28.437 2.74771 28.4621 2.80839C28.4872 2.86907 28.5001 2.93411 28.5001 2.99979V5.99979C28.5001 6.06546 28.4872 6.13049 28.4621 6.19117C28.437 6.25185 28.4002 6.30699 28.3537 6.35342C28.3073 6.39986 28.2522 6.43669 28.1915 6.4618C28.1308 6.48692 28.0658 6.49982 28.0001 6.49979H25.0001C24.8675 6.49979 24.7403 6.44711 24.6465 6.35334C24.5528 6.25957 24.5001 6.13239 24.5001 5.99979C24.5001 5.86718 24.5528 5.74 24.6465 5.64623C24.7403 5.55246 24.8675 5.49979 25.0001 5.49979H26.7386C26.5764 5.25494 26.3902 5.02692 26.1827 4.81913C25.5023 4.13843 24.6216 3.69369 23.6699 3.55015C22.7183 3.4066 21.7456 3.5718 20.8947 4.02151C20.0437 4.47123 19.3593 5.18179 18.9418 6.04896C18.5242 6.91614 18.3956 7.8943 18.5746 8.83995C18.7537 9.7856 19.2311 10.649 19.9368 11.3035C20.6425 11.9579 21.5394 12.369 22.4958 12.4765C23.4523 12.5839 24.418 12.382 25.2513 11.9004C26.0846 11.4189 26.7417 10.6829 27.1261 9.80057C27.1521 9.74005 27.1899 9.68529 27.2372 9.63941C27.2844 9.59354 27.3403 9.55747 27.4016 9.53327C27.4629 9.50907 27.5283 9.49722 27.5942 9.4984C27.6601 9.49959 27.7251 9.51378 27.7854 9.54016C27.8458 9.56655 27.9003 9.60461 27.9459 9.65215C27.9915 9.69969 28.0273 9.75578 28.0512 9.81719C28.075 9.8786 28.0865 9.94412 28.0849 10.01C28.0834 10.0758 28.0688 10.1407 28.0421 10.201C27.5719 11.2766 26.7695 12.1734 25.7526 12.7599C24.7356 13.3464 23.5575 13.5917 22.391 13.46C21.2245 13.3282 20.1308 12.8263 19.2703 12.0278C18.4097 11.2292 17.8276 10.1761 17.6091 9.02264C17.3907 7.86919 17.5474 6.6761 18.0564 5.61821C18.5653 4.56032 19.3998 3.69325 20.4373 3.14408C21.4749 2.5949 22.6611 2.39249 23.8221 2.56652C24.9831 2.74054 26.0578 3.28183 26.8888 4.11109C27.1147 4.34203 27.3193 4.59288 27.5001 4.8606V2.99976C27.5001 2.93408 27.513 2.86905 27.5381 2.80837C27.5632 2.74769 27.6 2.69256 27.6465 2.64612C27.6929 2.59968 27.748 2.56286 27.8087 2.53774Z M23.8612 19.8757C23.2873 19.3278 22.5242 19.0223 21.7307 19.0228C20.9372 19.0234 20.1746 19.3299 19.6014 19.8787C19.6014 19.8787 18.1288 21.3757 17.8397 21.6853C16.8471 21.7057 15.8609 21.5228 14.9416 21.148C14.0223 20.7731 13.1893 20.2142 12.494 19.5056C11.0953 18.1033 10.2948 16.2134 10.2606 14.2332C10.6076 13.8861 11.9967 12.5203 12.1157 12.4033L12.1239 12.3953C12.4035 12.1158 12.6252 11.784 12.7765 11.4188C12.9278 11.0536 13.0057 10.6622 13.0057 10.2668C13.0057 9.87154 12.9278 9.48011 12.7765 9.11491C12.6252 8.74971 12.4035 8.4179 12.1239 8.13843L9.37092 5.3855C8.79513 4.83548 8.0295 4.52856 7.23323 4.52856C6.43695 4.52856 5.67132 4.83548 5.09553 5.3855L3.62392 6.85718C1.74107 8.73999 1.38072 15.4128 8.98326 23.0164C13.8964 27.9294 18.4208 29.5164 21.5165 29.5164C22.8263 29.6103 24.1227 29.2021 25.1425 28.3748L26.6141 26.9031C26.8949 26.6225 27.1177 26.2893 27.2697 25.9226C27.4217 25.5559 27.4999 25.1628 27.4999 24.7659C27.4999 24.3689 27.4217 23.9758 27.2697 23.6091C27.1177 23.2424 26.8949 22.9092 26.6141 22.6287L23.8612 19.8757ZM25.9071 26.196L24.4354 27.6677C23.0526 29.0486 16.8485 29.4685 9.69029 22.3093C2.53111 15.1492 2.95006 8.94507 4.33092 7.56421L5.8026 6.09253C6.18229 5.71357 6.69682 5.50073 7.23326 5.50073C7.7697 5.50073 8.28423 5.71357 8.66392 6.09253L11.4169 8.84546C11.7934 9.22189 12.0052 9.73235 12.0057 10.2648C12.0063 10.7972 11.7955 11.3081 11.4198 11.6853C11.4198 11.6853 9.91778 13.1619 9.55357 13.5261C8.97447 14.1052 9.48717 16.0583 9.54771 16.28C9.9483 17.7597 10.7189 19.113 11.787 20.2126C14.0897 22.5154 17.7762 23.1423 18.4745 22.446C18.8378 22.0808 20.3114 20.5828 20.3114 20.5828C20.6942 20.217 21.2033 20.0129 21.7328 20.0129C22.2622 20.0129 22.7713 20.217 23.1542 20.5828L25.9071 23.3357C26.2856 23.7154 26.4982 24.2297 26.4982 24.7659C26.4982 25.302 26.2856 25.8163 25.9071 26.196Z"/></svg>