<svg width="32" height="32" fill="none" xmlns="http://www.w3.org/2000/svg"><path d="M27.4698 2.4695a.7503.7503 0 01.5303-.2197.7503.7503 0 01.75.75v3a.7501.7501 0 01-.75.75h-3a.7499.7499 0 01-.5303-1.2804.7498.7498 0 01.5303-.2196h1.2128c-.0278-.0326-.0541-.0672-.0804-.1018-.0405-.0533-.081-.1066-.1265-.1521a4.2523 4.2523 0 10.8906 4.705.75.75 0 111.375.5996 5.744 5.744 0 01-5.9073 3.4072 5.7435 5.7435 0 01-2.0429-10.7838 5.7436 5.7436 0 016.7441 1.0104c.0376.0374.0705.081.1036.1248.0262.0347.0524.0695.081.1012V2.9998a.7506.7506 0 01.2197-.5303z" fill="#0F0F0F"/><path fill-rule="evenodd" clip-rule="evenodd" d="M24.038 19.699a3.3333 3.3333 0 00-4.6143.0039s-1.2627 1.2832-1.7363 1.7607a7.293 7.293 0 01-7.1514-7.1523c.3126-.31.968-.955 1.3862-1.3665.222-.2184.3771-.3711.3785-.3728a3.2602 3.2602 0 00.955-2.3051 3.259 3.259 0 00-.955-2.3052l-2.753-2.753a3.2783 3.2783 0 00-4.6289 0L3.4472 6.6804C1.5028 8.6248 1.079 15.4646 8.8065 23.1931c4.9551 4.9551 9.545 6.5586 12.7139 6.5586a5.4137 5.4137 0 003.7988-1.2002l1.4718-1.4717a3.275 3.275 0 000-4.6279l-2.753-2.7529zm1.6923 6.3203l-1.4716 1.4717c-1.3311 1.3301-7.3594 1.6738-14.3916-5.3584C2.8339 15.0984 3.1786 9.0701 4.5077 7.741l1.4717-1.4717a1.7753 1.7753 0 012.5078 0l2.7529 2.753c.3293.3292.5147.7755.5157 1.2411a1.7602 1.7602 0 01-.5108 1.2432s-1.5039 1.4785-1.8681 1.8428c-.6475.6474-.2178 2.457-.0704 2.9961a9.2858 9.2858 0 002.3038 4.044c2.2968 2.2968 6.1748 3.0937 7.041 2.2324.3632-.3643 1.8369-1.8623 1.8369-1.8623a1.8043 1.8043 0 012.4892 0l2.753 2.7529a1.7742 1.7742 0 01-.0001 2.5068z" fill="#0F0F0F"/></svg>