<svg xmlns="http://www.w3.org/2000/svg" width="32" height="32" viewBox="0 0 32 32"><path d="M27.6174 2.07572C27.7388 2.0255 27.8688 1.99968 28.0002 1.99976C28.1315 1.99967 28.2616 2.02549 28.3829 2.07571C28.5043 2.12594 28.6146 2.19959 28.7075 2.29247C28.8003 2.38534 28.874 2.49561 28.9242 2.61697C28.9745 2.73834 29.0003 2.86841 29.0002 2.99976V5.99976C29.0003 6.1311 28.9745 6.26117 28.9242 6.38253C28.874 6.50389 28.8004 6.61416 28.7075 6.70703C28.6146 6.79991 28.5043 6.87356 28.383 6.92379C28.2616 6.97402 28.1315 6.99983 28.0002 6.99976H25.0002C24.735 6.99976 24.4806 6.8944 24.2931 6.70686C24.1056 6.51933 24.0002 6.26497 24.0002 5.99976C24.0002 5.73454 24.1056 5.48019 24.2931 5.29265C24.4806 5.10511 24.735 4.99976 25.0002 4.99976H25.6141C24.8443 4.35481 23.864 4.01585 22.8603 4.04755C21.8566 4.07925 20.8996 4.4794 20.1721 5.17164C19.756 5.58772 19.4368 6.09046 19.2373 6.64403C19.0377 7.19761 18.9627 7.78838 19.0177 8.37426C19.0726 8.96013 19.2561 9.52667 19.5551 10.0335C19.8541 10.5403 20.2611 10.975 20.7473 11.3064C21.2335 11.6379 21.7869 11.858 22.3679 11.9512C22.9489 12.0443 23.5433 12.0081 24.1088 11.8452C24.6742 11.6822 25.1968 11.3966 25.6391 11.0086C26.0815 10.6206 26.4329 10.1397 26.6682 9.60039C26.7203 9.47936 26.7957 9.36983 26.8903 9.27808C26.9849 9.18634 27.0967 9.11419 27.2192 9.06579C27.3417 9.01739 27.4727 8.99369 27.6044 8.99606C27.7361 8.99843 27.8661 9.02681 27.9868 9.07958C28.1076 9.13236 28.2167 9.20847 28.3079 9.30355C28.3991 9.39864 28.4706 9.51081 28.5183 9.63363C28.566 9.75645 28.589 9.88749 28.5858 10.0192C28.5827 10.1509 28.5536 10.2807 28.5002 10.4012C27.9938 11.5604 27.1332 12.5295 26.042 13.1694C24.9507 13.8093 23.6848 14.087 22.4259 13.9628C21.1669 13.8386 19.9797 13.3189 19.0345 12.4781C18.0893 11.6374 17.4347 10.5188 17.1646 9.28295C16.8945 8.04709 17.0228 6.75743 17.531 5.599C18.0393 4.44058 18.9015 3.47292 19.9938 2.83486C21.0862 2.19681 22.3525 1.92114 23.6113 2.04742C24.87 2.1737 26.0563 2.69543 27.0002 3.53776V2.99976C27.0001 2.86841 27.0259 2.73834 27.0761 2.61698C27.1264 2.49562 27.2 2.38536 27.2929 2.29248C27.3858 2.19961 27.496 2.12595 27.6174 2.07572Z M24.2129 19.5157C23.8862 19.1895 23.4983 18.9309 23.0715 18.7546C22.6447 18.5784 22.1874 18.4879 21.7256 18.4885C21.2639 18.489 20.8068 18.5805 20.3804 18.7578C19.954 18.9351 19.5668 19.1946 19.2408 19.5216C19.2408 19.5216 18.0839 20.7005 17.569 21.22C15.7873 21.1464 14.0985 20.405 12.8383 19.1432C11.5782 17.8814 10.8391 16.1916 10.7678 14.4097C11.2097 13.9714 12.1263 13.0683 12.3945 12.8041L12.4698 12.7299C13.1286 12.0701 13.4986 11.1759 13.4986 10.2435C13.4986 9.31108 13.1286 8.4168 12.4698 7.75701L9.71548 4.99901C9.0444 4.35759 8.15183 3.99963 7.22352 3.99963C6.2952 3.99963 5.40264 4.35759 4.73156 4.99901L3.25916 6.47342C1.25134 8.48294 0.763776 15.5035 8.62023 23.3704C13.6198 28.3776 18.2774 29.9997 21.5212 29.9997C22.9578 30.1001 24.3787 29.6495 25.4949 28.7396L26.9673 27.2652C27.6285 26.6032 28 25.7057 28 24.77C28 23.8342 27.6285 22.9367 26.9673 22.2747L24.2129 19.5157ZM25.5525 25.8486L24.0801 27.2857C22.8011 28.5634 16.9447 28.8354 10.035 21.9166C3.12434 14.9967 3.39595 9.16974 4.67393 7.89006L6.14634 6.44765C6.28765 6.30593 6.45554 6.19349 6.64039 6.11676C6.82523 6.04004 7.0234 6.00055 7.22354 6.00055C7.42367 6.00055 7.62184 6.04004 7.80669 6.11676C7.99153 6.19349 8.15942 6.30593 8.30074 6.44765L11.055 9.17365C11.3374 9.45654 11.4965 9.83961 11.4976 10.2393C11.4987 10.639 11.3417 11.023 11.0609 11.3074C11.0609 11.3074 9.55527 12.7896 9.1899 13.1555C7.88652 14.4645 9.6579 18.7918 11.4254 20.5616C12.5869 21.6925 14.0173 22.509 15.5818 22.9341C16.4924 23.1835 18.124 23.4976 18.8226 22.7991C19.1861 22.4351 20.6614 20.9324 20.6614 20.9324C20.945 20.6495 21.3293 20.4907 21.7298 20.4907C22.1304 20.4907 22.5146 20.6495 22.7982 20.9324L25.5525 23.6913C25.8384 23.9775 25.999 24.3654 25.999 24.7699C25.999 25.1745 25.8384 25.5624 25.5525 25.8486Z"/></svg>