<svg xmlns="http://www.w3.org/2000/svg" width="32" height="32" viewBox="0 0 32 32"><path d="M17.73 13.549L6.724 5.54898C6.27459 5.2334 5.74717 5.04723 5.19924 5.01076C4.65131 4.97429 4.10387 5.08892 3.6166 5.34215C3.12932 5.59538 2.7209 5.9775 2.43585 6.44686C2.15079 6.91623 2.00003 7.45483 2 8.00398V23.995C2.00026 24.7901 2.31598 25.5527 2.87785 26.1153C3.43972 26.6779 4.20186 26.9947 4.997 26.996C5.62036 26.9949 6.22812 26.801 6.737 26.441L17.722 18.453C18.1155 18.1768 18.4369 17.8101 18.659 17.3837C18.8811 16.9573 18.9975 16.4838 18.9982 16.0031C18.999 15.5223 18.8842 15.0484 18.6635 14.6213C18.4428 14.1942 18.1226 13.8264 17.73 13.549ZM16.56 16.826L5.574 24.814C5.42415 24.919 5.24835 24.9809 5.06575 24.993C4.88315 25.005 4.70075 24.9667 4.53842 24.8822C4.37608 24.7978 4.24004 24.6704 4.1451 24.5139C4.05016 24.3575 3.99997 24.178 4 23.995V8.00498C3.998 7.82127 4.04741 7.64067 4.14266 7.48357C4.23791 7.32648 4.37519 7.19915 4.539 7.11598C4.683 7.04098 4.843 7.00098 5.006 6.99998C5.205 6.99998 5.399 7.06098 5.561 7.17598L16.561 15.171L16.574 15.181C16.7063 15.2741 16.814 15.3979 16.8879 15.5418C16.9618 15.6857 16.9996 15.8454 16.9983 16.0071C16.9969 16.1689 16.9563 16.3279 16.88 16.4705C16.8036 16.6131 16.6938 16.7351 16.56 16.826ZM25.992 5.00098C24.9315 5.00204 23.9147 5.4238 23.1647 6.17372C22.4148 6.92364 21.9931 7.94044 21.992 9.00098V23C21.992 24.0608 22.4134 25.0783 23.1636 25.8284C23.9137 26.5785 24.9311 27 25.992 27C27.0529 27 28.0703 26.5785 28.8204 25.8284C29.5706 25.0783 29.992 24.0608 29.992 23V9.00098C29.9909 7.94044 29.5692 6.92364 28.8193 6.17372C28.0693 5.4238 27.0525 5.00204 25.992 5.00098ZM27.992 22.999C27.992 23.5294 27.7813 24.0381 27.4062 24.4132C27.0311 24.7883 26.5224 24.999 25.992 24.999C25.4616 24.999 24.9529 24.7883 24.5778 24.4132C24.2027 24.0381 23.992 23.5294 23.992 22.999V9.00098C23.992 8.47054 24.2027 7.96184 24.5778 7.58676C24.9529 7.21169 25.4616 7.00098 25.992 7.00098C26.5224 7.00098 27.0311 7.21169 27.4062 7.58676C27.7813 7.96184 27.992 8.47054 27.992 9.00098V23V22.999Z"/></svg>