<svg width="32" height="32" viewBox="0 0 32 32" fill="none" xmlns="http://www.w3.org/2000/svg">
<path d="M17.5845 13.7522L6.5796 5.75413C6.16772 5.46474 5.68428 5.29397 5.18201 5.26046C4.67974 5.22695 4.17791 5.33197 3.73123 5.56407C3.28454 5.79618 2.91015 6.14646 2.64887 6.57673C2.38759 7.007 2.24945 7.50074 2.24951 8.00413V23.9953C2.24958 24.7244 2.53903 25.4237 3.05429 25.9395C3.56956 26.4553 4.26849 26.7455 4.99757 26.7463C5.56811 26.7451 6.12435 26.5677 6.59034 26.2385L17.5786 18.2493C17.9395 17.996 18.2342 17.6596 18.4378 17.2685C18.6414 16.8775 18.748 16.4432 18.7485 16.0023C18.7491 15.5614 18.6437 15.1268 18.4411 14.7352C18.2385 14.3436 17.9447 14.0064 17.5845 13.7522ZM16.7066 17.0286L5.71827 25.0188C5.53093 25.1502 5.31112 25.2277 5.08277 25.2429C4.85442 25.258 4.62629 25.2102 4.42324 25.1047C4.22018 24.9991 4.04999 24.8399 3.93119 24.6442C3.81239 24.4486 3.74955 24.2242 3.74951 23.9953V8.00413C3.74731 7.7748 3.80923 7.54941 3.92829 7.35339C4.04735 7.15737 4.21882 6.99852 4.42335 6.89476C4.60295 6.8006 4.80257 6.75102 5.00535 6.75023C5.25692 6.75022 5.50228 6.82836 5.7075 6.97386L16.7172 14.9768C16.8822 15.0927 17.0167 15.2467 17.1092 15.4259C17.2017 15.605 17.2495 15.8039 17.2484 16.0055C17.2474 16.2071 17.1975 16.4054 17.1032 16.5836C17.0088 16.7618 16.8727 16.9144 16.7066 17.0286Z" fill="black"/>
<path d="M25.9917 5.2512C24.9975 5.25245 24.0444 5.64794 23.3414 6.35093C22.6385 7.05392 22.243 8.00702 22.2417 9.0012V22.9993C22.2417 23.9938 22.6368 24.9476 23.3401 25.6509C24.0433 26.3542 24.9972 26.7493 25.9917 26.7493C26.9863 26.7493 27.9401 26.3542 28.6434 25.6509C29.3466 24.9476 29.7417 23.9938 29.7417 22.9993V9.0012C29.7405 8.00702 29.345 7.05392 28.642 6.35093C27.939 5.64794 26.9859 5.25245 25.9917 5.2512ZM28.2417 22.9993C28.2417 23.596 28.0047 24.1683 27.5827 24.5902C27.1607 25.0122 26.5884 25.2493 25.9917 25.2493C25.395 25.2493 24.8227 25.0122 24.4007 24.5902C23.9788 24.1683 23.7417 23.596 23.7417 22.9993V9.0012C23.7417 8.70573 23.7999 8.41315 23.913 8.14016C24.0261 7.86718 24.1918 7.61914 24.4007 7.41021C24.6097 7.20128 24.8577 7.03555 25.1307 6.92247C25.4037 6.8094 25.6962 6.7512 25.9917 6.7512C26.2872 6.7512 26.5798 6.8094 26.8528 6.92247C27.1257 7.03555 27.3738 7.20128 27.5827 7.41021C27.7916 7.61914 27.9574 7.86718 28.0704 8.14016C28.1835 8.41315 28.2417 8.70573 28.2417 9.0012V22.9993Z" fill="black"/>
</svg>
