<svg xmlns="http://www.w3.org/2000/svg" width="32" height="32" viewBox="0 0 32 32"><path d="M4.99902 26.496C4.33598 26.496 3.7001 26.2326 3.23126 25.7638C2.76242 25.2949 2.49902 24.659 2.49902 23.996V8.003C2.49897 7.54531 2.62457 7.09639 2.86213 6.70517C3.09968 6.31396 3.44007 5.99546 3.84619 5.78441C4.25231 5.57335 4.70858 5.47783 5.16526 5.50827C5.62194 5.5387 6.0615 5.69392 6.43602 5.957L17.439 13.955C17.7667 14.1859 18.0339 14.4923 18.2183 14.8482C18.4027 15.2041 18.4987 15.5992 18.4983 16C18.4979 16.4009 18.4011 16.7957 18.216 17.1513C18.031 17.5069 17.7631 17.8127 17.435 18.043L6.44302 26.036C6.02002 26.336 5.51602 26.496 4.99902 26.496ZM5.00502 6.5C4.76202 6.5 4.52302 6.56 4.30802 6.673C4.06268 6.7975 3.85701 6.9881 3.71424 7.22329C3.57147 7.45847 3.49727 7.72888 3.50002 8.004V23.995C3.49982 24.2698 3.57509 24.5393 3.71764 24.7743C3.86018 25.0092 4.06451 25.2004 4.30833 25.3271C4.55215 25.4538 4.82609 25.5111 5.10026 25.4928C5.37442 25.4744 5.63828 25.3811 5.86302 25.223L16.855 17.231C17.0537 17.0935 17.2161 16.91 17.3285 16.6961C17.441 16.4823 17.5 16.2444 17.5007 16.0028C17.5014 15.7612 17.4437 15.523 17.3325 15.3086C17.2213 15.0941 17.0599 14.9097 16.862 14.771L16.855 14.767L5.85502 6.772C5.60669 6.5955 5.30969 6.50046 5.00502 6.5ZM25.992 26.5C25.0642 26.4987 24.1747 26.1295 23.5186 25.4734C22.8625 24.8173 22.4933 23.9279 22.492 23V9C22.492 8.54037 22.5826 8.08525 22.7584 7.66061C22.9343 7.23597 23.1921 6.85013 23.5171 6.52513C23.8422 6.20012 24.228 5.94231 24.6526 5.76642C25.0773 5.59053 25.5324 5.5 25.992 5.5C26.4517 5.5 26.9068 5.59053 27.3314 5.76642C27.7561 5.94231 28.1419 6.20012 28.4669 6.52513C28.7919 6.85013 29.0497 7.23597 29.2256 7.66061C29.4015 8.08525 29.492 8.54037 29.492 9V23C29.491 23.9279 29.1219 24.8176 28.4657 25.4737C27.8096 26.1299 26.92 26.4989 25.992 26.5ZM25.992 6.501C25.3291 6.50153 24.6936 6.76509 24.2248 7.23382C23.7561 7.70254 23.4926 8.33812 23.492 9.001V23C23.492 23.663 23.7554 24.2989 24.2243 24.7678C24.6931 25.2366 25.329 25.5 25.992 25.5C26.6551 25.5 27.2909 25.2366 27.7598 24.7678C28.2286 24.2989 28.492 23.663 28.492 23V9.001C28.4915 8.33812 28.2279 7.70254 27.7592 7.23382C27.2905 6.76509 26.6549 6.50153 25.992 6.501Z"/></svg>