<svg xmlns="http://www.w3.org/2000/svg" width="32" height="32" viewBox="0 0 32 32"><path d="M17.439 13.956L6.436 5.95798C6.06148 5.69517 5.62202 5.54019 5.1655 5.5099C4.70898 5.47961 4.25289 5.57518 3.84694 5.78621C3.44098 5.99723 3.10072 6.31561 2.86322 6.70666C2.62571 7.09772 2.50008 7.54645 2.5 8.00398V23.995C2.49974 24.4534 2.62556 24.903 2.86371 25.2947C3.10185 25.6864 3.44314 26.005 3.85023 26.2157C4.25732 26.4264 4.71452 26.5211 5.17182 26.4894C5.62911 26.4577 6.06888 26.3009 6.443 26.036L17.435 18.044C17.7629 17.8135 18.0306 17.5077 18.2155 17.1521C18.4004 16.7966 18.4971 16.4018 18.4975 16.001C18.4979 15.6003 18.402 15.2053 18.2177 14.8494C18.0335 14.4935 17.7664 14.187 17.439 13.956ZM25.992 5.50098C25.0641 5.50204 24.1744 5.87112 23.5183 6.52727C22.8621 7.18342 22.4931 8.07304 22.492 9.00098V23C22.492 23.4596 22.5825 23.9147 22.7584 24.3394C22.9343 24.764 23.1921 25.1498 23.5171 25.4749C23.8421 25.7999 24.228 26.0577 24.6526 26.2336C25.0772 26.4094 25.5324 26.5 25.992 26.5C26.4516 26.5 26.9068 26.4094 27.3314 26.2336C27.756 26.0577 28.1419 25.7999 28.4669 25.4749C28.7919 25.1498 29.0497 24.764 29.2256 24.3394C29.4015 23.9147 29.492 23.4596 29.492 23V9.00098C29.4909 8.07304 29.1219 7.18342 28.4657 6.52727C27.8096 5.87112 26.9199 5.50204 25.992 5.50098Z"/></svg>