<svg width="32" height="32" viewBox="0 0 32 32" fill="none" xmlns="http://www.w3.org/2000/svg">
<path d="M14.2612 13.549L25.2671 5.54905C25.7165 5.2333 26.244 5.04699 26.792 5.01043C27.3401 4.97388 27.8876 5.08848 28.375 5.34174C28.8624 5.595 29.2709 5.9772 29.556 6.44667C29.841 6.91615 29.9918 7.45487 29.9917 8.00413V23.9953C29.9915 24.7905 29.6758 25.5531 29.1139 26.1158C28.552 26.6784 27.7898 26.9951 26.9946 26.9963C26.3711 26.9951 25.7633 26.801 25.2544 26.4407L14.2691 18.4533C13.8755 18.1772 13.5541 17.8104 13.332 17.384C13.1098 16.9576 12.9935 16.484 12.9927 16.0032C12.9919 15.5224 13.1068 15.0485 13.3276 14.6214C13.5483 14.1942 13.8686 13.8265 14.2612 13.549ZM15.4312 16.8264L26.4175 24.8137C26.5673 24.9189 26.743 24.981 26.9257 24.9932C27.1083 25.0054 27.2908 24.9672 27.4532 24.8827C27.6156 24.7983 27.7517 24.6709 27.8467 24.5144C27.9416 24.3579 27.9918 24.1784 27.9917 23.9953V8.00413C27.9935 7.82063 27.944 7.64029 27.8487 7.48345C27.7535 7.3266 27.6163 7.19948 27.4527 7.11644C27.3082 7.041 27.1478 7.00115 26.9849 7.00023C26.7863 7.00011 26.5925 7.06152 26.4302 7.17601L15.4312 15.1711L15.4175 15.1809C15.2851 15.274 15.1773 15.3978 15.1033 15.5417C15.0293 15.6857 14.9914 15.8454 14.9927 16.0072C14.9941 16.1691 15.0347 16.3281 15.111 16.4708C15.1874 16.6135 15.2972 16.7355 15.4312 16.8264Z" fill="black"/>
<path d="M5.99951 5.0012C7.06005 5.00226 8.07685 5.42402 8.82677 6.17394C9.57668 6.92386 9.99845 7.94066 9.99951 9.0012V22.9992C9.99951 24.0601 9.57808 25.0775 8.82794 25.8277C8.07779 26.5778 7.06038 26.9992 5.99951 26.9992C4.93865 26.9992 3.92123 26.5778 3.17108 25.8277C2.42094 25.0775 1.99951 24.0601 1.99951 22.9992V9.0012C2.00057 7.94066 2.42234 6.92386 3.17225 6.17394C3.92217 5.42402 4.93897 5.00226 5.99951 5.0012ZM3.99951 22.9992C3.99951 23.5297 4.21023 24.0384 4.5853 24.4135C4.96037 24.7885 5.46908 24.9992 5.99951 24.9992C6.52994 24.9992 7.03865 24.7885 7.41372 24.4135C7.7888 24.0384 7.99951 23.5297 7.99951 22.9992V9.0012C7.99951 8.47076 7.7888 7.96206 7.41372 7.58698C7.03865 7.21191 6.52994 7.0012 5.99951 7.0012C5.46908 7.0012 4.96037 7.21191 4.5853 7.58698C4.21023 7.96206 3.99951 8.47076 3.99951 9.0012V22.9992Z" fill="black"/>
</svg>
