<svg width="32" height="32" viewBox="0 0 32 32" fill="none" xmlns="http://www.w3.org/2000/svg">
<path d="M4.99851 26.4963C4.33553 26.4958 3.69988 26.2321 3.23127 25.7631C2.76266 25.2942 2.49946 24.6583 2.49951 23.9953V8.00413C2.49972 7.5466 2.62545 7.09789 2.86303 6.70687C3.1006 6.31585 3.44091 5.99751 3.84688 5.78652C4.25286 5.57552 4.70895 5.47996 5.16548 5.51024C5.62201 5.54051 6.06148 5.69547 6.43604 5.95823L17.439 13.9562C17.7667 14.1871 18.034 14.4934 18.2184 14.8493C18.4029 15.2053 18.4989 15.6003 18.4985 16.0012C18.4982 16.402 18.4013 16.7969 18.2162 17.1525C18.0311 17.5081 17.7632 17.8139 17.4351 18.0441L6.44285 26.0364C6.02042 26.3351 5.51589 26.4958 4.99851 26.4963ZM5.00535 6.50023C4.76239 6.50077 4.52316 6.56007 4.30808 6.67308C4.06261 6.7975 3.85681 6.98807 3.71393 7.22327C3.57105 7.45847 3.49677 7.72894 3.49948 8.00413V23.9953C3.49952 24.2699 3.57493 24.5393 3.71749 24.774C3.86005 25.0087 4.06429 25.1997 4.30795 25.3263C4.55162 25.4529 4.82536 25.5103 5.09935 25.492C5.37334 25.4738 5.63707 25.3807 5.8618 25.2229L16.854 17.2307C17.0523 17.0931 17.2145 16.9096 17.3267 16.6958C17.4389 16.4821 17.4978 16.2444 17.4985 16.003C17.4992 15.7616 17.4416 15.5236 17.3305 15.3092C17.2195 15.0948 17.0584 14.9104 16.8608 14.7717L16.854 14.7668L5.85496 6.77171C5.60668 6.59548 5.30983 6.50062 5.00535 6.50023Z" fill="black"/>
<path d="M25.9917 26.4993C25.0638 26.4981 24.1742 26.129 23.518 25.4729C22.8619 24.8168 22.4928 23.9272 22.4917 22.9993V9.0012C22.4917 8.07294 22.8604 7.1827 23.5168 6.52633C24.1732 5.86995 25.0634 5.5012 25.9917 5.5012C26.9199 5.5012 27.8102 5.86995 28.4666 6.52633C29.1229 7.1827 29.4917 8.07294 29.4917 9.0012V22.9993C29.4906 23.9272 29.1215 24.8168 28.4653 25.4729C27.8092 26.129 26.9196 26.4981 25.9917 26.4993ZM25.9917 6.50125C25.3288 6.50186 24.6933 6.76545 24.2246 7.23416C23.7559 7.70287 23.4923 8.3384 23.4917 9.00125V22.9993C23.4917 23.6623 23.7551 24.2982 24.2239 24.767C24.6928 25.2359 25.3286 25.4993 25.9917 25.4993C26.6547 25.4993 27.2906 25.2359 27.7594 24.767C28.2283 24.2982 28.4917 23.6623 28.4917 22.9993V9.0012C28.4911 8.33835 28.2275 7.70282 27.7588 7.23411C27.2901 6.7654 26.6545 6.50186 25.9917 6.50125Z" fill="black"/>
</svg>
