<svg width="32" height="32" viewBox="0 0 32 32" fill="none" xmlns="http://www.w3.org/2000/svg">
<path d="M14.3532 5.646C14.307 5.5986 14.2518 5.56085 14.1909 5.53493C14.13 5.50902 14.0646 5.49545 13.9984 5.49503C13.9322 5.49461 13.8666 5.50733 13.8053 5.53246C13.7441 5.5576 13.6885 5.59464 13.6416 5.64144C13.5948 5.68824 13.5578 5.74388 13.5326 5.80511C13.5075 5.86634 13.4948 5.93196 13.4952 5.99815C13.4956 6.06434 13.5091 6.1298 13.5351 6.19071C13.561 6.25162 13.5987 6.30679 13.6461 6.353L22.7926 15.5H3C2.86739 15.5 2.74021 15.5527 2.64645 15.6464C2.55268 15.7402 2.5 15.8674 2.5 16C2.5 16.1326 2.55268 16.2598 2.64645 16.3536C2.74021 16.4473 2.86739 16.5 3 16.5H22.793L13.6461 25.646C13.5987 25.6922 13.561 25.7474 13.5351 25.8083C13.5091 25.8692 13.4956 25.9347 13.4952 26.0008C13.4948 26.067 13.5075 26.1327 13.5326 26.1939C13.5578 26.2551 13.5948 26.3108 13.6416 26.3576C13.6885 26.4044 13.7441 26.4414 13.8053 26.4665C13.8666 26.4917 13.9322 26.5044 13.9984 26.504C14.0646 26.5035 14.13 26.49 14.1909 26.4641C14.2518 26.4382 14.307 26.4004 14.3532 26.353L24.3532 16.353C24.4469 16.2592 24.4996 16.1321 24.4996 15.9995C24.4996 15.8669 24.4469 15.7398 24.3532 15.646L14.3532 5.646Z" fill="black"/>
<path d="M29 5.5C28.8674 5.5 28.7402 5.55268 28.6464 5.64645C28.5527 5.74021 28.5 5.86739 28.5 6V26C28.5 26.1326 28.5527 26.2598 28.6464 26.3536C28.7402 26.4473 28.8674 26.5 29 26.5C29.1326 26.5 29.2598 26.4473 29.3536 26.3536C29.4473 26.2598 29.5 26.1326 29.5 26V6C29.5 5.86739 29.4473 5.74021 29.3536 5.64645C29.2598 5.55268 29.1326 5.5 29 5.5Z" fill="black"/>
</svg>
