<svg width="32" height="32" viewBox="0 0 32 32" fill="none" xmlns="http://www.w3.org/2000/svg">
<path d="M28.1441 5.78637C27.7371 5.57387 27.2794 5.47792 26.8213 5.50911C26.3633 5.5403 25.9228 5.69742 25.5484 5.96313L14.5523 13.9563C14.2251 14.1867 13.9582 14.4924 13.7738 14.8475C13.5894 15.2027 13.493 15.5969 13.4927 15.997C13.4924 16.3972 13.5882 16.7915 13.7721 17.1469C13.956 17.5023 14.2226 17.8084 14.5494 18.0393L25.5552 26.0412C25.9297 26.3044 26.3692 26.4597 26.8259 26.4902C27.2826 26.5207 27.7388 26.4252 28.145 26.2141C28.5511 26.0031 28.8915 25.6845 29.1289 25.2933C29.3664 24.902 29.4919 24.453 29.4917 23.9953V8.00414C29.4926 7.54632 29.3673 7.09713 29.1295 6.70589C28.8918 6.31464 28.5508 5.99649 28.1441 5.78637Z" fill="black"/>
<path d="M5.99951 5.50121C5.0716 5.50233 4.18202 5.87144 3.52588 6.52758C2.86975 7.18371 2.50064 8.07329 2.49951 9.0012V22.9993C2.49951 23.9275 2.86826 24.8178 3.52464 25.4741C4.18102 26.1305 5.07125 26.4993 5.99951 26.4993C6.92777 26.4993 7.81801 26.1305 8.47439 25.4741C9.13076 24.8178 9.49951 23.9275 9.49951 22.9993V9.0012C9.49839 8.07329 9.12928 7.1837 8.47315 6.52757C7.81701 5.87144 6.92743 5.50233 5.99951 5.50121Z" fill="black"/>
</svg>
