<svg xmlns="http://www.w3.org/2000/svg" width="32" height="32" fill="none" viewBox="0 0 32 32"><path fill="#39AC37" d="M16 3c7.18 0 13 5.82 13 13 0 6.489-4.754 11.867-10.969 12.842-1.346.21-2.716.21-4.062 0C7.754 27.867 3 22.489 3 16 3 8.82 8.82 3 16 3"/><path fill="#fff" d="M13.163 13.516c0-.859 1.04-1.485 2.695-1.485 1.773 0 2.814 1.067 2.814 2.112h3.003c0-2.74-2.412-4.643-5.817-4.643-3.381 0-5.746 1.834-5.746 4.016 0 4.968 8.677 2.948 8.677 4.991 0 .79-1.087 1.463-2.694 1.463-1.75 0-3.051-.883-3.051-1.95H10.04c0 2.739 2.648 4.48 6.054 4.48 3.38 0 5.863-1.718 5.863-3.993 0-4.828-8.795-2.832-8.795-4.99"/></svg>