<svg width="32" height="32" viewBox="0 0 32 32" fill="none" xmlns="http://www.w3.org/2000/svg">
<circle cx="16" cy="16" r="16" fill="#39AC37"/>
<path d="M12.5085 12.9433C12.5085 11.8857 13.7885 11.1149 15.8252 11.1149C18.008 11.1149 19.2881 12.4285 19.2881 13.7141H22.9841C22.9841 10.3432 20.0163 8 15.8252 8C11.6636 8 8.75362 10.2575 8.75362 12.9433C8.75362 19.0577 19.4331 16.5711 19.4331 19.0856C19.4331 20.0575 18.0952 20.886 16.1163 20.886C13.963 20.886 12.3615 19.7996 12.3615 18.4861H8.66638C8.66638 21.857 11.9253 24 16.1163 24C20.277 24 23.333 21.8858 23.333 19.0856C23.333 13.1434 12.5085 15.6002 12.5085 12.9433Z" fill="white"/>
</svg>
