<svg width="32" height="32" xmlns="http://www.w3.org/2000/svg"><path fill-rule="evenodd" clip-rule="evenodd" d="M5 7.5A4.5 4.5 0 0 1 9.5 3h8a4.482 4.482 0 0 1 2.977 1.125.5.5 0 0 1-.662.75A3.482 3.482 0 0 0 17.5 4h-8A3.5 3.5 0 0 0 6 7.5v18A3.5 3.5 0 0 0 9.5 29h8c.888 0 1.698-.33 2.315-.875a.5.5 0 0 1 .662.75A4.485 4.485 0 0 1 17.5 30h-8A4.5 4.5 0 0 1 5 25.5v-18Zm19.395 3.365A7.758 7.758 0 0 0 19.285 9a7.753 7.753 0 0 0-5.083 1.936 7.448 7.448 0 0 0-2.478 4.748 7.382 7.382 0 0 0 1.37 5.158.5.5 0 0 1 .072.44 4.61 4.61 0 0 1-.871 1.606 4.69 4.69 0 0 1-1.05.93 4.748 4.748 0 0 0 1.88.144 4.71 4.71 0 0 0 2.08-.785.499.499 0 0 1 .312-.109h.002c.092 0 .18.025.256.07a7.808 7.808 0 0 0 5.385.647 7.665 7.665 0 0 0 4.488-3.03 7.379 7.379 0 0 0 1.294-5.177 7.453 7.453 0 0 0-2.547-4.713Zm-8.843 13.28a8.81 8.81 0 0 0 5.841.612 8.665 8.665 0 0 0 5.073-3.427 8.379 8.379 0 0 0 1.468-5.878 8.453 8.453 0 0 0-2.887-5.345A8.757 8.757 0 0 0 19.277 8a8.753 8.753 0 0 0-5.738 2.188 8.448 8.448 0 0 0-2.809 5.385 8.378 8.378 0 0 0 1.403 5.642 3.617 3.617 0 0 1-.605 1.032c-.31.371-.694.68-1.127.906a.496.496 0 0 0-.07.044.835.835 0 0 0-.325.762.83.83 0 0 0 .519.674 5.744 5.744 0 0 0 5.027-.489Z"/></svg>