<svg width="32" height="32" xmlns="http://www.w3.org/2000/svg"><path d="M14.609 23.951a5.825 5.825 0 0 1-5.385.67.38.38 0 0 1-.221-.297.37.37 0 0 1 .145-.341 4.702 4.702 0 0 0 1.43-1.157c.394-.475.689-1.023.868-1.61A8.91 8.91 0 0 1 12.767 9.32 9.19 9.19 0 0 1 18.814 7c2.236-.015 4.4.78 6.08 2.235a8.965 8.965 0 0 1 3.037 5.657 8.908 8.908 0 0 1-1.544 6.218 9.123 9.123 0 0 1-5.342 3.633 9.23 9.23 0 0 1-6.438-.791h.002Z"/><path d="M17 2H9a5 5 0 0 0-5 5v18a5 5 0 0 0 5 5h8a5 5 0 0 0 4.488-2.794 11.737 11.737 0 0 1-6.75-.46 8.314 8.314 0 0 1-6.528.161 2.88 2.88 0 0 1-1.69-2.288 2.87 2.87 0 0 1 1.115-2.626 2.5 2.5 0 0 1 .35-.223c.223-.117.423-.27.59-.452a11.398 11.398 0 0 1-1.247-6.575 11.46 11.46 0 0 1 3.776-7.29A11.69 11.69 0 0 1 18.797 4.5c.912-.006 1.814.094 2.691.294A5 5 0 0 0 17 2Z"/></svg>