<svg width="32" height="32" xmlns="http://www.w3.org/2000/svg"><path d="M4 6.75A4.75 4.75 0 0 1 8.75 2h8a4.732 4.732 0 0 1 3.142 1.188.75.75 0 1 1-.992 1.124 3.232 3.232 0 0 0-2.15-.812h-8A3.25 3.25 0 0 0 5.5 6.75v18A3.25 3.25 0 0 0 8.75 28h8c.825 0 1.576-.306 2.15-.812a.75.75 0 1 1 .992 1.124A4.735 4.735 0 0 1 16.75 29.5h-8A4.75 4.75 0 0 1 4 24.75v-18Z"/><path d="M23.482 10.305a7.203 7.203 0 0 1 2.462 4.554 7.128 7.128 0 0 1-1.25 5.002 7.415 7.415 0 0 1-4.342 2.93 7.558 7.558 0 0 1-5.206-.621.748.748 0 0 0-.377-.102h-.002a.749.749 0 0 0-.46.157 4.46 4.46 0 0 1-3.22.718 4.86 4.86 0 0 0 1.568-2.337.75.75 0 0 0-.11-.66 7.132 7.132 0 0 1-1.322-4.984 7.198 7.198 0 0 1 2.395-4.588A7.503 7.503 0 0 1 18.536 8.5c1.821-.013 3.581.63 4.946 1.805Zm-8.665 13.372a9.061 9.061 0 0 0 5.885.574 8.914 8.914 0 0 0 5.218-3.527 8.629 8.629 0 0 0 1.512-6.053 8.703 8.703 0 0 0-2.972-5.503A9.007 9.007 0 0 0 18.526 7a9.003 9.003 0 0 0-5.902 2.25 8.698 8.698 0 0 0-2.892 5.545 8.626 8.626 0 0 0 1.37 5.699 3.371 3.371 0 0 1-.516.842c-.29.346-.646.634-1.05.845a.748.748 0 0 0-.106.067 1.084 1.084 0 0 0-.422.99 1.08 1.08 0 0 0 .68.879 5.994 5.994 0 0 0 5.129-.44Z"/></svg>