<svg width="32" height="32" viewBox="0 0 32 32" xmlns="http://www.w3.org/2000/svg"><path d="M9.75 2.5A4.5 4.5 0 0 0 5.25 7v18a4.5 4.5 0 0 0 4.5 4.5h8c1.14 0 2.184-.425 2.977-1.125a.5.5 0 0 0-.662-.75 3.485 3.485 0 0 1-2.315.875h-8a3.5 3.5 0 0 1-3.5-3.5V7a3.5 3.5 0 0 1 3.5-3.5h8a3.482 3.482 0 0 1 2.315.875.5.5 0 1 0 .662-.75A4.482 4.482 0 0 0 17.75 2.5h-8Zm3.747 21.954a5.744 5.744 0 0 1-2.748-.332.838.838 0 0 1-.493-.663.827.827 0 0 1 .395-.806 3.703 3.703 0 0 0 1.127-.906c.259-.31.463-.659.605-1.032a8.378 8.378 0 0 1-1.403-5.642 8.448 8.448 0 0 1 2.81-5.385A8.753 8.753 0 0 1 19.527 7.5a8.757 8.757 0 0 1 5.77 2.107 8.453 8.453 0 0 1 2.886 5.345 8.379 8.379 0 0 1-1.468 5.878 8.665 8.665 0 0 1-5.073 3.427 8.81 8.81 0 0 1-5.841-.613 5.715 5.715 0 0 1-2.305.81ZM19.535 8.5a7.753 7.753 0 0 0-5.083 1.936 7.448 7.448 0 0 0-2.478 4.748 7.381 7.381 0 0 0 1.37 5.158.5.5 0 0 1 .072.44 4.61 4.61 0 0 1-.87 1.606c-.302.36-.657.674-1.052.93a4.748 4.748 0 0 0 1.88.144 4.71 4.71 0 0 0 2.081-.785.499.499 0 0 1 .312-.109h.002c.092 0 .18.025.256.07a7.808 7.808 0 0 0 5.386.647 7.665 7.665 0 0 0 4.487-3.03 7.379 7.379 0 0 0 1.294-5.177 7.453 7.453 0 0 0-2.547-4.713 7.758 7.758 0 0 0-5.11-1.865Z"/></svg>