<svg xmlns="http://www.w3.org/2000/svg" width="31" height="32" viewBox="0 0 31 32"><path d="M24.2909 5.53599C23.6621 4.93982 21.1207 3.04441 15.4601 3.01866C15.4601 3.01866 8.78483 2.60509 5.53072 5.67177C3.7193 7.53324 3.08207 10.257 3.01486 13.6338C2.94764 17.0107 2.86068 23.3391 8.79812 25.0551H8.80382L8.80002 27.6735C8.80002 27.6735 8.76205 28.7335 9.44143 28.9497C10.1273 29.1685 10.5766 28.6435 11.1626 27.959C11.2787 27.8234 11.4003 27.6813 11.5301 27.5377C11.9607 27.0609 12.5554 26.3606 13.0035 25.8253C17.0642 26.1764 20.1873 25.3738 20.542 25.2552C20.6152 25.2308 20.7189 25.2038 20.8475 25.1702C22.1594 24.8274 26.0687 23.8061 26.7559 18.0435C27.5348 11.5211 26.3792 7.39551 24.2909 5.53599ZM24.979 17.5756C24.4056 22.333 21.2977 23.076 20.1779 23.3437C20.0542 23.3733 19.9544 23.3972 19.8854 23.4199C19.5903 23.5174 16.8474 24.2186 13.3981 23.9872C13.3981 23.9872 10.8279 27.1729 10.0251 28.0012C9.89979 28.1307 9.75244 28.183 9.65409 28.1573C9.51586 28.1225 9.47788 27.9544 9.4794 27.7086C9.48168 27.3574 9.50143 23.3575 9.50143 23.3575C4.64478 21.9721 4.75805 16.8902 4.82234 14.0059C4.82454 13.9073 4.82668 13.8113 4.82856 13.7181C4.88552 10.8976 5.40123 8.58707 6.93315 7.03305C9.68561 4.47163 15.3557 4.85438 15.3557 4.85438C20.144 4.87584 22.4385 6.35729 22.9705 6.85357C24.7371 8.40759 25.6372 12.1262 24.979 17.5741V17.5756ZM17.7906 13.815C17.7085 13.8151 17.6296 13.7827 17.5702 13.7246C17.5107 13.6665 17.4753 13.5871 17.4712 13.5029C17.4169 12.3867 16.905 11.84 15.8603 11.7823C15.7771 11.7755 15.6997 11.7355 15.6447 11.671C15.5898 11.6064 15.5615 11.5223 15.566 11.4367C15.5705 11.351 15.6074 11.2705 15.6689 11.2124C15.7303 11.1543 15.8114 11.1232 15.8949 11.1257C17.2734 11.2037 18.0397 12.0125 18.1103 13.4701C18.1124 13.5133 18.1062 13.5564 18.0921 13.5971C18.078 13.6378 18.0562 13.6752 18.028 13.7072C17.9998 13.7393 17.9657 13.7653 17.9277 13.7838C17.8897 13.8023 17.8485 13.8129 17.8065 13.815H17.7906ZM19.4253 14.3814H19.4329C19.5167 14.3813 19.597 14.3474 19.6568 14.2871C19.7166 14.2268 19.751 14.1448 19.7527 14.0588C19.7808 12.7748 19.3984 11.6815 18.6293 10.8173C17.8603 9.95309 16.7788 9.46266 15.4144 9.36004C15.3296 9.35368 15.2458 9.38219 15.1814 9.4393C15.1171 9.49641 15.0774 9.57744 15.0712 9.66457C15.0651 9.75169 15.0928 9.83778 15.1484 9.90389C15.204 9.97 15.2828 10.0107 15.3676 10.0171C16.5802 10.1084 17.4897 10.5141 18.1573 11.2625C18.8249 12.0108 19.1375 12.9211 19.1128 14.0451C19.1108 14.1323 19.1427 14.2167 19.2013 14.2798C19.2599 14.3428 19.3405 14.3794 19.4253 14.3814ZM21.1143 15.0561C21.0298 15.056 20.9488 15.0216 20.8888 14.9605C20.8289 14.8993 20.7949 14.8163 20.7942 14.7295C20.7793 12.719 20.2158 11.1833 19.0712 10.0355C17.9403 8.90399 16.5117 8.32343 14.8244 8.31094C14.7824 8.31079 14.7408 8.30213 14.702 8.28546C14.6632 8.26879 14.628 8.24443 14.5984 8.21378C14.5386 8.15188 14.5051 8.0681 14.5054 7.98087C14.5057 7.89363 14.5398 7.8101 14.6 7.74864C14.6603 7.68717 14.7418 7.65282 14.8267 7.65313H14.8294C16.6871 7.66717 18.2646 8.31016 19.5182 9.56493C20.7717 10.8197 21.4181 12.559 21.4348 14.7256C21.4354 14.8128 21.4023 14.8966 21.3428 14.9587C21.2833 15.0209 21.2022 15.0561 21.1173 15.0569L21.1143 15.0561ZM16.633 17.6241C16.3908 17.9308 15.9408 17.8918 15.9408 17.8918C12.6517 17.0291 11.7714 13.6062 11.7714 13.6062C11.7714 13.6062 11.7319 13.1439 12.032 12.895L12.6263 12.4096C12.921 12.1763 13.1089 11.6102 12.8089 11.0573C12.5788 10.6423 12.3286 10.2394 12.0593 9.85014C11.7976 9.48299 11.1881 8.73115 11.1859 8.72881C10.8919 8.37259 10.4598 8.28987 10.0041 8.53372C10.0027 8.53372 10.0008 8.53435 9.99898 8.53496C9.99729 8.53552 9.99567 8.53607 9.99457 8.53607C9.54133 8.80437 9.13265 9.14523 8.78392 9.54581C8.78273 9.54825 8.78154 9.54942 8.78035 9.55059C8.77926 9.55166 8.77817 9.55273 8.77708 9.55478C8.49556 9.90385 8.33442 10.246 8.29366 10.5813C8.28519 10.6307 8.28226 10.681 8.28492 10.7311C8.28341 10.8792 8.30534 11.0265 8.34986 11.1673L8.36543 11.1783C8.50746 11.6964 8.86291 12.5594 9.63533 13.9984C10.0771 14.8306 10.5867 15.623 11.1585 16.367C11.445 16.74 11.7521 17.0958 12.0783 17.4326C12.0822 17.4366 12.0861 17.4407 12.09 17.4447C12.0977 17.4527 12.1054 17.4607 12.1132 17.4685L12.218 17.5762C12.5459 17.9113 12.8921 18.2268 13.2551 18.5211C13.9794 19.1087 14.7508 19.6322 15.561 20.0861C16.9612 20.8797 17.8019 21.2449 18.3055 21.3908L18.3161 21.4068C18.4532 21.4526 18.5966 21.4753 18.7407 21.4739C18.7895 21.4763 18.8384 21.4732 18.8865 21.4645C19.2133 21.4247 19.5461 21.2594 19.8849 20.9686C19.8869 20.9675 19.8879 20.9664 19.889 20.9653C19.8901 20.964 19.8912 20.9628 19.8936 20.9616C20.2835 20.6032 20.6154 20.1833 20.8768 19.7178C20.8768 19.7166 20.8772 19.715 20.8777 19.7132C20.8782 19.7114 20.8787 19.7094 20.8787 19.708C21.116 19.2398 21.0355 18.7958 20.6869 18.4934C20.6865 18.4934 20.658 18.4693 20.6099 18.4286C20.4123 18.2613 19.8828 17.8132 19.5955 17.596C19.217 17.3194 18.8252 17.0623 18.4217 16.8259C17.8832 16.5176 17.3333 16.7108 17.1055 17.0135L16.633 17.6241Z"/></svg>