<svg xmlns="http://www.w3.org/2000/svg" width="32" height="32" viewBox="0 0 32 32"><path d="M10.7072 4.29297L16.7072 10.293C16.8947 10.4805 17.0001 10.7348 17.0001 11C17.0001 11.2652 16.8947 11.5195 16.7072 11.7071C16.5197 11.8946 16.2654 11.9999 16.0002 11.9999C15.735 11.9999 15.4807 11.8946 15.2932 11.7071L11.0002 7.41406V27C11.0002 27.2652 10.8948 27.5196 10.7073 27.7071C10.5197 27.8946 10.2654 28 10.0002 28C9.73495 28 9.4806 27.8946 9.29306 27.7071C9.10552 27.5196 9.00017 27.2652 9.00017 27V7.41403L4.70717 11.707C4.61432 11.7999 4.50409 11.8735 4.38278 11.9238C4.26147 11.974 4.13144 11.9999 4.00014 11.9999C3.73495 11.9999 3.48062 11.8945 3.29311 11.707C3.20026 11.6142 3.12661 11.504 3.07636 11.3826C3.02611 11.2613 3.00024 11.1313 3.00024 11C3.00024 10.8687 3.02611 10.7387 3.07636 10.6174C3.12661 10.496 3.20026 10.3858 3.29311 10.293L9.29311 4.29297C9.38594 4.20009 9.49616 4.12641 9.61747 4.07614C9.73879 4.02587 9.86882 4 10.0001 4C10.1315 4 10.2615 4.02587 10.3828 4.07614C10.5041 4.12641 10.6143 4.20009 10.7072 4.29297ZM15 14C14.4477 14 14 14.4477 14 15C14 15.5523 14.4477 16 15 16H18C18.5523 16 19 15.5523 19 15C19 14.4477 18.5523 14 18 14H15ZM14 19C14 18.4477 14.4477 18 15 18H21C21.5523 18 22 18.4477 22 19C22 19.5523 21.5523 20 21 20H15C14.4477 20 14 19.5523 14 19ZM15 22C14.4477 22 14 22.4477 14 23C14 23.5523 14.4477 24 15 24H25C25.5523 24 26 23.5523 26 23C26 22.4477 25.5523 22 25 22H15ZM14 27C14 26.4477 14.4477 26 15 26H28C28.5523 26 29 26.4477 29 27C29 27.5523 28.5523 28 28 28H15C14.4477 28 14 27.5523 14 27Z"/></svg>