<svg xmlns="http://www.w3.org/2000/svg" width="32" height="32" viewBox="0 0 32 32"><path d="M15.293 20.293L11 24.586V5C11 4.73478 10.8947 4.48043 10.7072 4.29289C10.5196 4.10536 10.2653 4 10 4C9.73483 4 9.48047 4.10536 9.29294 4.29289C9.1054 4.48043 9.00004 4.73478 9.00004 5V24.5859L4.70704 20.2929C4.51953 20.1054 4.2652 20.0001 4.00001 20.0001C3.73483 20.0001 3.4805 20.1054 3.29298 20.2929C3.10547 20.4805 3.00012 20.7348 3.00012 21C3.00012 21.2652 3.10547 21.5195 3.29298 21.707L9.29298 27.707C9.38581 27.7999 9.49604 27.8736 9.61735 27.9238C9.73867 27.9741 9.8687 28 10 28C10.1313 28 10.2614 27.9741 10.3827 27.9238C10.504 27.8736 10.6142 27.7999 10.707 27.707L16.707 21.707C16.8946 21.5195 16.9999 21.2652 16.9999 21C16.9999 20.7348 16.8946 20.4805 16.707 20.2929C16.5195 20.1054 16.2652 20.0001 16 20.0001C15.7348 20.0001 15.4806 20.1055 15.293 20.293ZM15 4C14.4477 4 14 4.44772 14 5C14 5.55228 14.4477 6 15 6H28C28.5523 6 29 5.55228 29 5C29 4.44772 28.5523 4 28 4H15ZM15 16C14.4477 16 14 16.4477 14 17C14 17.5523 14.4477 18 15 18H18C18.5523 18 19 17.5523 19 17C19 16.4477 18.5523 16 18 16H15ZM14 13C14 12.4477 14.4477 12 15 12H21C21.5523 12 22 12.4477 22 13C22 13.5523 21.5523 14 21 14H15C14.4477 14 14 13.5523 14 13ZM15 8C14.4477 8 14 8.44771 14 9C14 9.55229 14.4477 10 15 10H25C25.5523 10 26 9.55229 26 9C26 8.44771 25.5523 8 25 8H15Z"/></svg>