<svg xmlns="http://www.w3.org/2000/svg" width="32" height="32" viewBox="0 0 32 32"><path d="M10.5304 4.46973L16.5304 10.4697C16.6002 10.5393 16.6557 10.622 16.6936 10.7131C16.7314 10.8041 16.751 10.9018 16.7511 11.0004C16.7512 11.099 16.7318 11.1966 16.6941 11.2877C16.6564 11.3788 16.6011 11.4616 16.5314 11.5314C16.4617 11.6011 16.3789 11.6564 16.2878 11.6941C16.1967 11.7318 16.099 11.7511 16.0004 11.751C15.9018 11.7509 15.8042 11.7314 15.7131 11.6935C15.6221 11.6556 15.5394 11.6002 15.4698 11.5303L10.7501 6.8106V27C10.7501 27.1989 10.6711 27.3897 10.5304 27.5303C10.3898 27.671 10.199 27.75 10.0001 27.75C9.80119 27.75 9.61043 27.671 9.46978 27.5303C9.32912 27.3897 9.2501 27.1989 9.2501 27V6.8106L4.53038 11.5303C4.38964 11.6704 4.19905 11.7491 4.00041 11.7489C3.80177 11.7487 3.61133 11.6697 3.47087 11.5292C3.33041 11.3888 3.25142 11.1983 3.25122 10.9997C3.25103 10.8011 3.32964 10.6105 3.46983 10.4697L9.46983 4.46973C9.53945 4.40007 9.62212 4.34481 9.7131 4.30711C9.80409 4.2694 9.90161 4.25 10.0001 4.25C10.0986 4.25 10.1961 4.2694 10.2871 4.30711C10.3781 4.34481 10.4608 4.40007 10.5304 4.46973ZM14.25 15C14.25 14.5858 14.5858 14.25 15 14.25H18C18.4142 14.25 18.75 14.5858 18.75 15C18.75 15.4142 18.4142 15.75 18 15.75H15C14.5858 15.75 14.25 15.4142 14.25 15ZM15 18.25C14.5858 18.25 14.25 18.5858 14.25 19C14.25 19.4142 14.5858 19.75 15 19.75H21C21.4142 19.75 21.75 19.4142 21.75 19C21.75 18.5858 21.4142 18.25 21 18.25H15ZM14.25 23C14.25 22.5858 14.5858 22.25 15 22.25H25C25.4142 22.25 25.75 22.5858 25.75 23C25.75 23.4142 25.4142 23.75 25 23.75H15C14.5858 23.75 14.25 23.4142 14.25 23ZM15 26.25C14.5858 26.25 14.25 26.5858 14.25 27C14.25 27.4142 14.5858 27.75 15 27.75H28C28.4142 27.75 28.75 27.4142 28.75 27C28.75 26.5858 28.4142 26.25 28 26.25H15Z"/></svg>