<svg width="32" height="32" viewBox="0 0 32 32" fill="none" xmlns="http://www.w3.org/2000/svg">
<path d="M21.2729 10.813C21.1828 10.9084 21.1123 11.0207 21.0656 11.1434C21.0188 11.266 20.9967 11.3967 21.0004 11.5279C21.0042 11.6592 21.0338 11.7884 21.0875 11.9082C21.1412 12.028 21.218 12.136 21.3135 12.2261C21.8396 12.7037 22.2611 13.2851 22.5514 13.9337C22.8417 14.5824 22.9944 15.2841 23 15.9947C22.9916 16.7062 22.8376 17.4086 22.5474 18.0584C22.2573 18.7082 21.8372 19.2917 21.313 19.773C21.2169 19.863 21.1395 19.9712 21.0853 20.0912C21.0311 20.2112 21.0011 20.3408 20.9971 20.4724C20.9932 20.6041 21.0152 20.7352 21.062 20.8583C21.1089 20.9814 21.1796 21.094 21.2701 21.1897C21.3605 21.2854 21.469 21.3623 21.5893 21.416C21.7096 21.4696 21.8393 21.499 21.971 21.5023C22.1026 21.5057 22.2337 21.483 22.3565 21.4356C22.4794 21.3882 22.5917 21.317 22.687 21.2261C23.4155 20.5642 23.9976 19.7573 24.396 18.8573C24.7943 17.9572 25 16.9837 25 15.9994C24.9999 15.0152 24.7941 14.0417 24.3957 13.1417C23.9973 12.2416 23.4151 11.4348 22.6865 10.773C22.4937 10.591 22.2365 10.4929 21.9715 10.5004C21.7064 10.5079 21.4552 10.6203 21.2729 10.813Z" fill="black"/>
<path d="M17.0747 3.11478C16.804 3.00163 16.506 2.97074 16.2179 3.02597C15.9297 3.0812 15.6642 3.22011 15.4546 3.42533L8.59814 9.99955H5C4.20462 10.0004 3.44206 10.3168 2.87964 10.8792C2.31722 11.4416 2.00087 12.2042 2 12.9996V18.9996C2.00087 19.7949 2.31722 20.5575 2.87964 21.1199C3.44206 21.6823 4.20462 21.9987 5 21.9996H8.59814L15.439 28.5591C15.6488 28.7688 15.9161 28.9116 16.207 28.9695C16.498 29.0273 16.7996 28.9976 17.0736 28.8841C17.3477 28.7706 17.582 28.5784 17.7469 28.3318C17.9117 28.0852 17.9998 27.7952 18 27.4986V4.50052C18.0005 4.20384 17.9128 3.9137 17.748 3.66697C17.5833 3.42023 17.3489 3.22803 17.0747 3.11478ZM16 26.3257L9.69189 20.2779C9.50585 20.0992 9.25792 19.9995 9 19.9996H5C4.73486 19.9993 4.48066 19.8938 4.29319 19.7064C4.10571 19.5189 4.00026 19.2647 4 18.9996V12.9996C4.00026 12.7344 4.10571 12.4802 4.29319 12.2927C4.48066 12.1053 4.73486 11.9998 5 11.9996H9C9.25792 11.9996 9.50585 11.8999 9.69189 11.7212L16 5.6724V26.3257Z" fill="black"/>
<path d="M27.0201 9.272C26.8269 9.09086 26.5699 8.99368 26.3052 9.00176C26.0406 9.00983 25.7899 9.12251 25.6082 9.31508C25.4265 9.50766 25.3285 9.76443 25.3358 10.0291C25.3431 10.2938 25.455 10.5448 25.647 10.7271C26.382 11.3947 26.9706 12.2076 27.3757 13.1142C27.7807 14.0209 27.9932 15.0017 28 15.9947C27.9887 16.9885 27.774 17.9695 27.3692 18.8773C26.9645 19.785 26.3782 20.6003 25.6465 21.273C25.5504 21.363 25.473 21.4712 25.4188 21.5912C25.3646 21.7113 25.3346 21.8408 25.3306 21.9725C25.3266 22.1041 25.3487 22.2352 25.3955 22.3583C25.4424 22.4814 25.513 22.5941 25.6035 22.6898C25.694 22.7855 25.8025 22.8623 25.9228 22.916C26.0431 22.9696 26.1728 22.999 26.3045 23.0024C26.4361 23.0057 26.5671 22.9831 26.69 22.9357C26.8129 22.8883 26.9252 22.8171 27.0205 22.7261C27.9496 21.8684 28.6933 20.8296 29.2057 19.6736C29.7181 18.5176 29.9884 17.2689 30 16.0044C29.9957 14.7372 29.7286 13.4847 29.2157 12.3259C28.7028 11.1671 27.9552 10.1272 27.0201 9.272Z" fill="black"/>
</svg>
