<svg xmlns="http://www.w3.org/2000/svg" width="32" height="32" viewBox="0 0 32 32"><path d="M26.415 15.9999L29.708 12.7069C29.8956 12.5193 30.0011 12.265 30.0012 11.9997C30.0013 11.7344 29.896 11.48 29.7085 11.2924C29.521 11.1047 29.2666 10.9992 29.0014 10.9991C28.7361 10.9991 28.4816 11.1043 28.294 11.2919L25 14.5849L21.707 11.2919C21.5194 11.1043 21.2649 10.9991 20.9996 10.9991C20.7344 10.9992 20.48 11.1047 20.2925 11.2924C20.105 11.48 19.9997 11.7344 19.9998 11.9997C19.9999 12.265 20.1054 12.5193 20.293 12.7069L23.586 15.9989L20.293 19.2919C20.1054 19.4795 19.9999 19.734 19.9999 19.9994C19.9999 20.2647 20.1054 20.5192 20.293 20.7069C20.4806 20.8945 20.7351 20.9999 21.0005 20.9999C21.2659 20.9999 21.5204 20.8945 21.708 20.7069L25 17.4139L28.293 20.7069C28.3859 20.7997 28.4962 20.8733 28.6176 20.9236C28.7389 20.9738 28.869 20.9996 29.0004 20.9996C29.1317 20.9995 29.2618 20.9736 29.3831 20.9233C29.5044 20.873 29.6147 20.7993 29.7075 20.7064C29.8003 20.6134 29.874 20.5032 29.9242 20.3818C29.9744 20.2604 30.0002 20.1303 30.0002 19.999C30.0002 19.8676 29.9742 19.7376 29.9239 19.6163C29.8736 19.4949 29.7999 19.3847 29.707 19.2919L26.415 15.9999ZM16.883 3.57685C16.7021 3.50134 16.5029 3.4809 16.3105 3.51808C16.118 3.55526 15.9408 3.6484 15.801 3.78585L8.8 10.4989H5C4.33695 10.4994 3.70122 10.7631 3.23246 11.232C2.76371 11.701 2.50026 12.3368 2.5 12.9999V18.9999C2.50053 19.6627 2.76409 20.2983 3.23282 20.767C3.70154 21.2358 4.33712 21.4993 5 21.4999H8.8L15.792 28.2059C15.9314 28.3469 16.1096 28.4433 16.3039 28.4827C16.4983 28.522 16.7 28.5026 16.8832 28.4268C17.0665 28.3511 17.2231 28.2224 17.3329 28.0573C17.4428 27.8922 17.5009 27.6982 17.5 27.4999V4.49985C17.5003 4.30203 17.4418 4.10857 17.332 3.94405C17.2221 3.77953 17.0658 3.65137 16.883 3.57585V3.57685Z"/></svg>