<svg width="32" height="32" viewBox="0 0 32 32" fill="none" xmlns="http://www.w3.org/2000/svg">
<path d="M26.0611 15.9995L29.5308 12.5298C29.6714 12.3892 29.7504 12.1984 29.7504 11.9995C29.7504 11.8007 29.6714 11.6099 29.5308 11.4693C29.3901 11.3286 29.1994 11.2496 29.0005 11.2496C28.8016 11.2496 28.6109 11.3286 28.4702 11.4693L25.0005 14.939L21.5308 11.4693C21.3901 11.3286 21.1994 11.2496 21.0005 11.2496C20.8016 11.2496 20.6108 11.3286 20.4702 11.4693C20.3296 11.6099 20.2506 11.8007 20.2506 11.9995C20.2506 12.1984 20.3296 12.3892 20.4702 12.5298L23.9399 15.9995L20.4702 19.4693C20.3296 19.6099 20.2506 19.8007 20.2506 19.9995C20.2506 20.1984 20.3296 20.3892 20.4702 20.5298C20.6108 20.6705 20.8016 20.7495 21.0005 20.7495C21.1994 20.7495 21.3901 20.6705 21.5308 20.5298L25.0005 17.0601L28.4702 20.5298C28.6108 20.6705 28.8016 20.7495 29.0005 20.7495C29.1994 20.7495 29.3901 20.6705 29.5308 20.5298C29.6714 20.3892 29.7504 20.1984 29.7504 19.9995C29.7504 19.8007 29.6714 19.6099 29.5308 19.4693L26.0611 15.9995Z" fill="black"/>
<path d="M16.979 3.34623C16.7533 3.25068 16.5044 3.22436 16.2637 3.27061C16.0231 3.31687 15.8016 3.4336 15.6274 3.60599L8.69873 10.2495H5.00049C4.27137 10.2503 3.57233 10.5403 3.05676 11.0558C2.5412 11.5714 2.25123 12.2704 2.25049 12.9995V18.9995C2.25123 19.7287 2.5412 20.4277 3.05676 20.9433C3.57233 21.4588 4.27137 21.7488 5.00049 21.7495H8.69873L15.6157 28.3814C15.7904 28.5565 16.0131 28.6759 16.2557 28.7244C16.4982 28.7729 16.7497 28.7483 16.9783 28.6537C17.2069 28.5592 17.4023 28.399 17.5397 28.1934C17.6772 27.9877 17.7505 27.7459 17.7505 27.4986V4.50052C17.7509 4.25329 17.6778 4.01152 17.5404 3.80598C17.403 3.60043 17.2076 3.4404 16.979 3.34623ZM16.2505 26.9126L9.52006 20.4585C9.38024 20.3246 9.19415 20.2497 9.00053 20.2495H5.00053C4.6691 20.2492 4.35134 20.1174 4.11698 19.8831C3.88263 19.6487 3.75084 19.331 3.75053 18.9995V12.9995C3.75084 12.6681 3.88263 12.3503 4.11698 12.116C4.35134 11.8816 4.6691 11.7498 5.00053 11.7495H9.00053C9.19415 11.7493 9.38024 11.6745 9.52006 11.5405L16.2505 5.08643L16.2505 26.9126Z" fill="black"/>
</svg>
