<svg xmlns="http://www.w3.org/2000/svg" width="32" height="32" viewBox="0 0 32 32"><path d="M22.498 28.9999C22.3012 28.9998 22.1064 28.9609 21.9247 28.8854C21.7429 28.8099 21.5779 28.6993 21.439 28.5599L14.597 21.9999H11C10.2046 21.9991 9.44199 21.6828 8.87956 21.1203C8.31712 20.5579 8.00079 19.7953 8 18.9999V12.9999C8.00079 12.2045 8.31712 11.4419 8.87956 10.8794C9.44199 10.317 10.2046 10.0007 11 9.99988H14.598L21.455 3.42488C21.6665 3.21951 21.9338 3.08101 22.2235 3.02668C22.5133 2.97234 22.8126 3.00459 23.0841 3.11938C23.3556 3.23418 23.5873 3.42644 23.7502 3.67214C23.9131 3.91784 24 4.20609 24 4.50088V27.4989C24 27.696 23.9611 27.8913 23.8856 28.0734C23.8101 28.2555 23.6995 28.4209 23.56 28.5603C23.4205 28.6996 23.2549 28.81 23.0726 28.8853C22.8904 28.9605 22.6952 28.9991 22.498 28.9989V28.9999ZM11 11.9999C10.7348 11.9999 10.4804 12.1052 10.2929 12.2928C10.1054 12.4803 10 12.7347 10 12.9999V18.9999C10 19.2651 10.1054 19.5195 10.2929 19.707C10.4804 19.8945 10.7348 19.9999 11 19.9999H15C15.259 19.9999 15.507 20.0999 15.693 20.2789L22 26.3269V5.67188L15.692 11.7219C15.5057 11.9009 15.2574 12.0009 14.999 12.0009H10.999L11 11.9999Z"/></svg>