<svg xmlns="http://www.w3.org/2000/svg" width="32" height="32" viewBox="0 0 32 32"><path d="M16.2499 26.9132L9.51891 20.4592C9.37944 20.3249 9.19351 20.2497 8.99991 20.2492H4.99991C4.66864 20.2489 4.35101 20.1173 4.11667 19.8831C3.88234 19.649 3.75044 19.3314 3.74991 19.0002V13.0002C3.75017 12.6687 3.88196 12.3509 4.11632 12.1166C4.35068 11.8822 4.66847 11.7504 4.99991 11.7502H8.56991L7.06991 10.2502H4.99991C4.27081 10.251 3.5718 10.541 3.05624 11.0565C2.54069 11.5721 2.2507 12.2711 2.24991 13.0002V19.0002C2.2507 19.7293 2.54069 20.4283 3.05624 20.9438C3.5718 21.4594 4.27081 21.7494 4.99991 21.7502H8.69891L15.6159 28.3832C15.7907 28.558 16.0135 28.6771 16.256 28.7254C16.4985 28.7736 16.7499 28.7489 16.9783 28.6542C17.2067 28.5596 17.402 28.3994 17.5393 28.1938C17.6767 27.9882 17.75 27.7464 17.7499 27.4992V20.9292L16.2499 19.4302V26.9142V26.9132ZM29.5299 28.4702L22.3019 21.2402L22.5159 21.0452C23.213 20.4017 23.7708 19.6222 24.1552 18.7549C24.5396 17.8876 24.7423 16.9508 24.7509 16.0022C24.7474 15.0521 24.5468 14.113 24.162 13.2443C23.7771 12.3756 23.2163 11.5961 22.5149 10.9552C22.4438 10.8851 22.3595 10.8299 22.2668 10.7929C22.1741 10.7558 22.0749 10.7377 21.9751 10.7394C21.8753 10.7412 21.7768 10.7629 21.6855 10.8032C21.5942 10.8435 21.5119 10.9016 21.4433 10.9742C21.3747 11.0468 21.3214 11.1323 21.2863 11.2257C21.2512 11.3192 21.2351 11.4187 21.239 11.5184C21.2429 11.6182 21.2666 11.7162 21.3088 11.8066C21.3511 11.8971 21.4109 11.9782 21.4849 12.0452C22.036 12.5459 22.4773 13.1555 22.7811 13.8353C23.0849 14.5152 23.2445 15.2506 23.2499 15.9952C23.2416 16.7384 23.0817 17.472 22.7799 18.1512C22.4781 18.8304 22.0409 19.4409 21.4949 19.9452L21.2399 20.1782L17.7499 16.6882V4.50118C17.75 4.25522 17.6775 4.01471 17.5415 3.80976C17.4055 3.60481 17.2121 3.44453 16.9855 3.34898C16.7589 3.25344 16.5091 3.22688 16.2674 3.27263C16.0257 3.31838 15.8029 3.4344 15.6269 3.60618L10.0319 8.97118L3.52991 2.46918C3.46125 2.39549 3.37845 2.33639 3.28645 2.2954C3.19445 2.2544 3.09513 2.23236 2.99443 2.23059C2.89373 2.22881 2.7937 2.24733 2.70031 2.28505C2.60692 2.32278 2.52209 2.37892 2.45087 2.45014C2.37965 2.52136 2.32351 2.60619 2.28579 2.69958C2.24807 2.79297 2.22954 2.893 2.23132 2.9937C2.23309 3.0944 2.25514 3.19372 2.29613 3.28572C2.33712 3.37771 2.39622 3.46051 2.46991 3.52918L28.4699 29.5292C28.5386 29.6029 28.6214 29.662 28.7134 29.703C28.8054 29.744 28.9047 29.766 29.0054 29.7678C29.1061 29.7695 29.2061 29.751 29.2995 29.7133C29.3929 29.6756 29.4777 29.6194 29.5489 29.5482C29.6202 29.477 29.6763 29.3922 29.714 29.2988C29.7518 29.2054 29.7703 29.1054 29.7685 29.0047C29.7667 28.904 29.7447 28.8046 29.7037 28.7126C29.6627 28.6206 29.6036 28.5378 29.5299 28.4692V28.4702ZM16.2499 5.08518V15.1902L11.0929 10.0332L16.2499 5.08718V5.08518Z M28.2499 15.9968C28.2387 17.0244 28.0172 18.0389 27.5989 18.9776C27.1806 19.9163 26.5745 20.7594 25.8179 21.4548C25.6734 21.5916 25.5891 21.7801 25.5835 21.979C25.578 22.1779 25.6517 22.3708 25.7884 22.5153C25.9251 22.6599 26.1137 22.7442 26.3126 22.7497C26.5115 22.7553 26.7044 22.6816 26.8489 22.5448C27.7535 21.7103 28.4775 20.6992 28.9763 19.5741C29.475 18.4489 29.738 17.2335 29.7489 16.0028C29.7446 14.7702 29.4847 13.5518 28.9855 12.4248C28.4863 11.2977 27.7588 10.2864 26.8489 9.45483C26.7044 9.31825 26.5115 9.24467 26.3127 9.2503C26.1139 9.25593 25.9255 9.34029 25.7889 9.48483C25.6523 9.62938 25.5788 9.82226 25.5844 10.021C25.59 10.2198 25.6744 10.4082 25.8189 10.5448C26.5787 11.2364 27.1868 12.0779 27.6051 13.0163C28.0233 13.9546 28.2425 14.9695 28.2489 15.9968H28.2499Z"/></svg>