<svg xmlns="http://www.w3.org/2000/svg" width="32" height="32" viewBox="0 0 32 32"><path d="M16.493 27.4902L9.346 20.6382C9.25263 20.5495 9.12876 20.5001 9 20.5002H5C4.60234 20.4997 4.22111 20.3415 3.93992 20.0603C3.65873 19.7791 3.50053 19.3979 3.5 19.0002V13.0002C3.50053 12.6026 3.65873 12.2213 3.93992 11.9401C4.22111 11.6589 4.60234 11.5007 5 11.5002H9.376L8.379 10.5002H5C4.3372 10.501 3.70178 10.7647 3.23311 11.2333C2.76444 11.702 2.50079 12.3374 2.5 13.0002V19.0002C2.50053 19.6631 2.76409 20.2987 3.23282 20.7674C3.70154 21.2361 4.33712 21.4997 5 21.5002H8.799L15.792 28.2062C15.9319 28.346 16.11 28.4412 16.304 28.4798C16.4979 28.5184 16.699 28.4986 16.8817 28.4229C17.0644 28.3472 17.2205 28.2191 17.3304 28.0547C17.4403 27.8903 17.499 27.697 17.499 27.4992V19.6202L16.495 18.6162L16.493 27.4912V27.4902ZM29.354 28.6462L21.94 21.2322L22.344 20.8622C23.0158 20.242 23.5536 19.4909 23.9244 18.6551C24.2952 17.8193 24.491 16.9165 24.5 16.0022C24.4964 15.0862 24.303 14.1808 23.9319 13.3433C23.5608 12.5058 23.0201 11.7543 22.344 11.1362C22.2972 11.0865 22.2408 11.0468 22.1781 11.0197C22.1155 10.9925 22.0479 10.9785 21.9796 10.9784C21.9113 10.9783 21.8438 10.9922 21.781 11.0191C21.7183 11.0461 21.6617 11.0856 21.6148 11.1353C21.5679 11.1849 21.5317 11.2436 21.5083 11.3078C21.4849 11.3719 21.4749 11.4402 21.4788 11.5083C21.4828 11.5765 21.5006 11.6432 21.5312 11.7042C21.5619 11.7652 21.6047 11.8193 21.657 11.8632C22.2332 12.3875 22.6945 13.0255 23.0117 13.7371C23.3289 14.4486 23.4952 15.2182 23.5 15.9972C23.4917 16.775 23.3245 17.5428 23.0086 18.2535C22.6927 18.9643 22.2348 19.6029 21.663 20.1302L21.233 20.5252L17.5 16.7922V4.50022C17.5002 4.30321 17.4421 4.11055 17.3332 3.9464C17.2243 3.78226 17.0693 3.65395 16.8877 3.57757C16.7061 3.50119 16.506 3.48016 16.3125 3.5171C16.119 3.55404 15.9407 3.64731 15.8 3.78522L10.028 9.32022L3.353 2.64622C3.2587 2.55514 3.1324 2.50474 3.0013 2.50588C2.8702 2.50702 2.74479 2.5596 2.65209 2.65231C2.55939 2.74501 2.5068 2.87042 2.50566 3.00151C2.50452 3.13261 2.55492 3.25891 2.646 3.35322L28.646 29.3532C28.7398 29.4471 28.867 29.4999 28.9996 29.5C29.1323 29.5001 29.2596 29.4475 29.3535 29.3537C29.4474 29.26 29.5002 29.1328 29.5003 29.0001C29.5004 28.8674 29.4478 28.7401 29.354 28.6462ZM10.736 10.0282L16.5 4.50122L16.496 15.7892L10.736 10.0292V10.0282Z M25.9699 22.3431C26.015 22.3909 26.0691 22.4293 26.129 22.4561C26.189 22.483 26.2536 22.4978 26.3193 22.4996C26.3849 22.5015 26.4503 22.4904 26.5117 22.467C26.573 22.4435 26.6292 22.4083 26.6769 22.3631C27.5568 21.5518 28.2612 20.5688 28.7465 19.4748C29.2319 18.3808 29.4879 17.1989 29.4989 16.0021C29.4944 14.8036 29.2413 13.6189 28.7555 12.5232C28.2698 11.4274 27.562 10.4444 26.6769 9.63614C26.5805 9.54503 26.4519 9.49596 26.3193 9.49971C26.1867 9.50346 26.061 9.55973 25.9699 9.65614C25.8788 9.75254 25.8298 9.88119 25.8335 10.0138C25.8373 10.1464 25.8935 10.272 25.9899 10.3631C26.7751 11.0779 27.4035 11.9477 27.8356 12.9176C28.2676 13.8874 28.4938 14.9364 28.4999 15.9981C28.4888 17.0595 28.2604 18.1073 27.8287 19.077C27.397 20.0467 26.7712 20.9176 25.9899 21.6361C25.9422 21.6812 25.9038 21.7353 25.8769 21.7952C25.8501 21.8552 25.8353 21.9198 25.8335 21.9855C25.8316 22.0511 25.8427 22.1165 25.8661 22.1779C25.8895 22.2393 25.9248 22.2954 25.9699 22.3431Z"/></svg>