<svg xmlns="http://www.w3.org/2000/svg" width="32" height="32" viewBox="0 0 32 32"><path d="M29 15.0002H21C20.7348 15.0002 20.4804 15.1055 20.2929 15.2931C20.1054 15.4806 20 15.7349 20 16.0002C20 16.2654 20.1054 16.5197 20.2929 16.7073C20.4804 16.8948 20.7348 17.0002 21 17.0002H29C29.2652 17.0002 29.5196 16.8948 29.7071 16.7073C29.8946 16.5197 30 16.2654 30 16.0002C30 15.7349 29.8946 15.4806 29.7071 15.2931C29.5196 15.1055 29.2652 15.0002 29 15.0002ZM16.884 3.57816C16.7032 3.50179 16.5037 3.48078 16.3109 3.51781C16.1181 3.55483 15.9407 3.64823 15.801 3.78616L8.799 10.4992H5C4.33703 10.5 3.70145 10.7637 3.23276 11.2326C2.76406 11.7015 2.50053 12.3372 2.5 13.0002V19.0002C2.50053 19.663 2.76409 20.2986 3.23282 20.7673C3.70154 21.2361 4.33712 21.4996 5 21.5002H8.799L15.793 28.2072C15.9329 28.347 16.111 28.4422 16.305 28.4807C16.4989 28.5193 16.7 28.4995 16.8827 28.4238C17.0654 28.3482 17.2215 28.22 17.3314 28.0556C17.4413 27.8912 17.5 27.6979 17.5 27.5002V4.50016C17.5003 4.30259 17.442 4.10938 17.3323 3.94504C17.2226 3.78071 17.0666 3.65267 16.884 3.57716V3.57816Z"/></svg>