<svg width="32" height="32" viewBox="0 0 32 32" fill="none" xmlns="http://www.w3.org/2000/svg">
<path d="M22.4985 28.9995C22.3016 28.9995 22.1067 28.9605 21.9249 28.885C21.743 28.8094 21.5779 28.6987 21.439 28.5591L14.5972 22.0005H10.9995C10.2041 21.9997 9.44157 21.6833 8.87915 21.1209C8.31673 20.5585 8.00038 19.7959 7.99951 19.0005V13.0005C8.00038 12.2051 8.31673 11.4426 8.87915 10.8802C9.44157 10.3177 10.2041 10.0014 10.9995 10.0005H14.5972L21.4536 3.42533C21.6651 3.21986 21.9324 3.08124 22.2221 3.02679C22.5119 2.97234 22.8113 3.00448 23.0829 3.11919C23.3545 3.23389 23.5863 3.42608 23.7493 3.67175C23.9123 3.91742 23.9994 4.20568 23.9995 4.50052V27.4986C23.9996 27.6957 23.9609 27.891 23.8855 28.0731C23.8101 28.2553 23.6996 28.4208 23.5602 28.5602C23.4208 28.6996 23.2552 28.8102 23.0731 28.8856C22.8909 28.961 22.6957 28.9997 22.4985 28.9995ZM10.9995 12.0005C10.7344 12.0007 10.4801 12.1061 10.2926 12.2936C10.1051 12.4811 9.99969 12.7354 9.99951 13.0005V19.0005C9.99969 19.2657 10.1051 19.5199 10.2926 19.7074C10.4801 19.8949 10.7344 20.0003 10.9995 20.0005H14.9995C15.2576 20.0006 15.5056 20.1003 15.6919 20.2789L21.9995 26.3267V5.6724L15.6919 11.7222C15.5056 11.9008 15.2576 12.0005 14.9995 12.0005H10.9995Z" fill="black"/>
</svg>
