<svg width="32" height="32" viewBox="0 0 32 32" fill="none" xmlns="http://www.w3.org/2000/svg">
<path d="M29 15.4995H21C20.8674 15.4995 20.7402 15.5522 20.6464 15.646C20.5527 15.7398 20.5 15.8669 20.5 15.9995C20.5 16.1322 20.5527 16.2593 20.6464 16.3531C20.7402 16.4469 20.8674 16.4995 21 16.4995H29C29.1326 16.4995 29.2598 16.4469 29.3536 16.3531C29.4473 16.2593 29.5 16.1322 29.5 15.9995C29.5 15.8669 29.4473 15.7398 29.3536 15.646C29.2598 15.5522 29.1326 15.4995 29 15.4995Z" fill="black"/>
<path d="M16.8838 3.57767C16.7029 3.50132 16.5035 3.48033 16.3107 3.51735C16.118 3.55438 15.9405 3.64776 15.8008 3.78567L8.79879 10.4995H5C4.33715 10.5002 3.70162 10.7637 3.23291 11.2324C2.7642 11.7012 2.50061 12.3367 2.5 12.9995V18.9995C2.50061 19.6624 2.7642 20.2979 3.23291 20.7666C3.70162 21.2353 4.33715 21.4989 5 21.4995H8.79883L15.793 28.2056C15.9328 28.3454 16.111 28.4407 16.3049 28.4793C16.4989 28.5179 16.7 28.4981 16.8827 28.4224C17.0654 28.3467 17.2216 28.2186 17.3314 28.0541C17.4413 27.8897 17.5 27.6964 17.5 27.4986V4.50052C17.5003 4.30295 17.4419 4.10973 17.3322 3.94542C17.2225 3.78111 17.0664 3.6531 16.8838 3.57767ZM16.4922 27.4908L9.3457 20.6382C9.25263 20.5492 9.12879 20.4995 9 20.4995H5C4.60231 20.4991 4.22103 20.3409 3.93982 20.0597C3.65861 19.7785 3.50043 19.3972 3.5 18.9996V12.9996C3.50043 12.6019 3.65861 12.2206 3.93982 11.9394C4.22103 11.6582 4.60231 11.5 5 11.4996H9C9.12879 11.4996 9.25262 11.4499 9.3457 11.3609L16.5 4.50052L16.4922 27.4908Z" fill="black"/>
</svg>
