<svg xmlns="http://www.w3.org/2000/svg" width="32" height="32" viewBox="0 0 32 32"><path d="M26.415 16.0001L29.708 12.7071C29.8956 12.5196 30.0011 12.2652 30.0012 12C30.0013 11.7347 29.896 11.4802 29.7085 11.2926C29.521 11.105 29.2666 10.9995 29.0014 10.9994C28.7361 10.9993 28.4816 11.1046 28.294 11.2921L25 14.5851L21.707 11.2921C21.5194 11.1046 21.2649 10.9993 20.9996 10.9994C20.7344 10.9995 20.48 11.105 20.2925 11.2926C20.105 11.4802 19.9997 11.7347 19.9998 12C19.9999 12.2652 20.1054 12.5196 20.293 12.7071L23.586 16.0001L20.293 19.2931C20.1055 19.4807 20.0002 19.7352 20.0003 20.0005C20.0004 20.2657 20.1059 20.5201 20.2935 20.7076C20.4811 20.8951 20.7356 21.0004 21.0009 21.0003C21.2661 21.0002 21.5205 20.8947 21.708 20.7071L25 17.4141L28.293 20.7071C28.3852 20.8026 28.4956 20.8788 28.6176 20.9312C28.7396 20.9836 28.8708 21.0112 29.0036 21.0124C29.1364 21.0135 29.2681 20.9882 29.391 20.9379C29.5138 20.8876 29.6255 20.8134 29.7194 20.7195C29.8133 20.6256 29.8875 20.514 29.9378 20.3911C29.9881 20.2682 30.0134 20.1365 30.0123 20.0037C30.0111 19.8709 29.9835 19.7397 29.9311 19.6177C29.8787 19.4957 29.8025 19.3854 29.707 19.2931L26.415 16.0001ZM17.075 3.11511C16.8046 3.00086 16.5063 2.96934 16.218 3.02451C15.9297 3.07969 15.6641 3.21909 15.455 3.42511L8.598 10.0001H5C4.20459 10.0009 3.44199 10.3172 2.87956 10.8797C2.31712 11.4421 2.00079 12.2047 2 13.0001V19.0001C2.00079 19.7955 2.31712 20.5581 2.87956 21.1206C3.44199 21.683 4.20459 21.9993 5 22.0001H8.598L15.439 28.5581C15.6485 28.7685 15.9158 28.9118 16.2069 28.9701C16.4981 29.0283 16.7999 28.9988 17.0743 28.8853C17.3486 28.7717 17.583 28.5793 17.7478 28.3323C17.9127 28.0853 18.0004 27.795 18 27.4981V4.50211C18.0005 4.20542 17.9129 3.91528 17.7482 3.66851C17.5835 3.42174 17.3492 3.22947 17.075 3.11611V3.11511ZM16 26.3251L9.693 20.2781C9.50656 20.0994 9.25823 19.9998 9 20.0001H5C4.73478 20.0001 4.48043 19.8948 4.29289 19.7072C4.10536 19.5197 4 19.2653 4 19.0001V13.0001C4 12.7349 4.10536 12.4805 4.29289 12.293C4.48043 12.1055 4.73478 12.0001 5 12.0001H9C9.259 12.0001 9.507 11.9001 9.693 11.7211L16 5.67211V26.3261V26.3251Z"/></svg>