<svg xmlns="http://www.w3.org/2000/svg" width="32" height="32" viewBox="0 0 32 32"><path d="M28.998 15.0001H26V12.0001C26 11.7349 25.8946 11.4805 25.7071 11.293C25.5196 11.1055 25.2652 11.0001 25 11.0001C24.7348 11.0001 24.4804 11.1055 24.2929 11.293C24.1054 11.4805 24 11.7349 24 12.0001V15.0001H20.998C20.7328 15.0001 20.4784 15.1055 20.2909 15.293C20.1034 15.4805 19.998 15.7349 19.998 16.0001C19.998 16.2653 20.1034 16.5197 20.2909 16.7072C20.4784 16.8947 20.7328 17.0001 20.998 17.0001H24V20.0001C24 20.2653 24.1054 20.5197 24.2929 20.7072C24.4804 20.8948 24.7348 21.0001 25 21.0001C25.2652 21.0001 25.5196 20.8948 25.7071 20.7072C25.8946 20.5197 26 20.2653 26 20.0001V17.0001H28.998C29.2632 17.0001 29.5176 16.8947 29.7051 16.7072C29.8926 16.5197 29.998 16.2653 29.998 16.0001C29.998 15.7349 29.8926 15.4805 29.7051 15.293C29.5176 15.1055 29.2632 15.0001 28.998 15.0001ZM17.075 3.11511C16.8046 3.00086 16.5063 2.96934 16.218 3.02451C15.9297 3.07969 15.6641 3.21909 15.455 3.42511L8.598 10.0001H5C4.20459 10.0009 3.44199 10.3172 2.87956 10.8797C2.31712 11.4421 2.00079 12.2047 2 13.0001V19.0001C2.00079 19.7955 2.31712 20.5581 2.87956 21.1206C3.44199 21.683 4.20459 21.9993 5 22.0001H8.598L15.439 28.5581C15.6485 28.7685 15.9158 28.9118 16.2069 28.9701C16.4981 29.0283 16.7999 28.9988 17.0743 28.8853C17.3486 28.7717 17.583 28.5793 17.7478 28.3323C17.9127 28.0853 18.0004 27.795 18 27.4981V4.50211C18.0005 4.20542 17.9129 3.91528 17.7482 3.66851C17.5835 3.42174 17.3492 3.22947 17.075 3.11611V3.11511ZM16 26.3251L9.693 20.2781C9.50656 20.0994 9.25823 19.9998 9 20.0001H5C4.73478 20.0001 4.48043 19.8948 4.29289 19.7072C4.10536 19.5197 4 19.2653 4 19.0001V13.0001C4 12.7349 4.10536 12.4805 4.29289 12.293C4.48043 12.1055 4.73478 12.0001 5 12.0001H9C9.259 12.0001 9.507 11.9001 9.693 11.7211L16 5.67211V26.3261V26.3251Z"/></svg>