<svg width="32" height="32" viewBox="0 0 32 32" fill="none" xmlns="http://www.w3.org/2000/svg">
<path d="M25.788 22.709C25.8811 22.8018 25.9915 22.8753 26.1131 22.9254C26.2346 22.9755 26.3649 23.001 26.4963 23.0007C26.6278 23.0003 26.7579 22.974 26.8791 22.9232C27.0004 22.8725 27.1105 22.7983 27.203 22.705C28.9856 20.9259 29.9912 18.5134 30 15.995C30.0087 14.7516 29.7701 13.519 29.298 12.3688C28.8258 11.2185 28.1297 10.1737 27.25 9.29496C27.1574 9.20179 27.0474 9.12777 26.9262 9.07711C26.805 9.02646 26.675 9.00018 26.5437 8.99976C26.2784 8.99892 26.0237 9.10349 25.8355 9.29046C25.6473 9.47744 25.5411 9.73151 25.5403 9.99678C25.5395 10.2621 25.644 10.5168 25.831 10.705C26.5247 11.3972 27.0739 12.2205 27.4464 13.127C27.819 14.0334 28.0075 15.005 28.001 15.985C27.9935 17.9783 27.1967 19.8876 25.785 21.295C25.6923 21.3879 25.6188 21.4981 25.5688 21.6195C25.5187 21.7408 25.4931 21.8708 25.4934 22.0021C25.4937 22.1333 25.5198 22.2632 25.5704 22.3844C25.6209 22.5055 25.6949 22.6155 25.788 22.708V22.709ZM6.266 10.5H5C4.33712 10.5005 3.70154 10.7641 3.23282 11.2328C2.76409 11.7015 2.50053 12.3371 2.5 13V19C2.50079 19.6628 2.76444 20.2982 3.23311 20.7669C3.70178 21.2355 4.3372 21.4992 5 21.5H8.799L15.792 28.206C15.9319 28.3458 16.11 28.441 16.304 28.4795C16.4979 28.5181 16.699 28.4983 16.8817 28.4226C17.0644 28.347 17.2205 28.2188 17.3304 28.0544C17.4403 27.89 17.499 27.6967 17.499 27.499V21.733L6.266 10.5Z" fill="#0F0F0F"/>
<path d="M22.663 21.2479L22.709 21.2049C24.098 19.8257 24.9161 17.9736 25 16.0179C24.9205 14.0506 24.1029 12.1855 22.71 10.7939C22.5704 10.6538 22.3924 10.5582 22.1984 10.5192C22.0045 10.4802 21.8034 10.4995 21.6204 10.5747C21.4375 10.6499 21.2809 10.7777 21.1705 10.9418C21.0601 11.1059 21.0008 11.2991 21 11.4969C20.9996 11.6283 21.0251 11.7584 21.075 11.8799C21.125 12.0014 21.1984 12.1118 21.291 12.2049C22.3047 13.2264 22.9124 14.5816 23.001 16.0179C22.9194 17.4341 22.3188 18.7705 21.314 19.7719L21.248 19.8339L17.499 16.0839V4.50192C17.499 4.30512 17.4409 4.1127 17.332 3.94877C17.2232 3.78483 17.0683 3.65667 16.8869 3.58033C16.7055 3.504 16.5057 3.48288 16.3123 3.51963C16.119 3.55638 15.9408 3.64936 15.8 3.78692L10.39 8.97492L3.70704 2.29292C3.51844 2.11076 3.26584 2.00997 3.00364 2.01224C2.74144 2.01452 2.49063 2.11969 2.30522 2.3051C2.11981 2.49051 2.01465 2.74132 2.01237 3.00352C2.01009 3.26571 2.11088 3.51832 2.29304 3.70692L28.293 29.7069C28.4807 29.8946 28.7352 30 29.0005 30C29.2659 30 29.5204 29.8946 29.708 29.7069C29.8957 29.5193 30.0011 29.2648 30.0011 28.9994C30.0011 28.7341 29.8957 28.4796 29.708 28.2919L22.663 21.2479V21.2479Z" fill="#0F0F0F"/>
</svg>
