<svg xmlns="http://www.w3.org/2000/svg" width="32" height="32" viewBox="0 0 32 32"><path d="M28.998 15.5002H25.5V12.0002C25.5 11.8676 25.4473 11.7404 25.3536 11.6466C25.2598 11.5528 25.1326 11.5002 25 11.5002C24.8674 11.5002 24.7402 11.5528 24.6464 11.6466C24.5527 11.7404 24.5 11.8676 24.5 12.0002V15.5002H20.998C20.8654 15.5002 20.7382 15.5528 20.6444 15.6466C20.5507 15.7404 20.498 15.8676 20.498 16.0002C20.498 16.1328 20.5507 16.2599 20.6444 16.3537C20.7382 16.4475 20.8654 16.5002 20.998 16.5002H24.5V20.0002C24.5 20.1328 24.5527 20.2599 24.6464 20.3537C24.7402 20.4475 24.8674 20.5002 25 20.5002C25.1326 20.5002 25.2598 20.4475 25.3536 20.3537C25.4473 20.2599 25.5 20.1328 25.5 20.0002V16.5002H28.998C29.1306 16.5002 29.2578 16.4475 29.3516 16.3537C29.4453 16.2599 29.498 16.1328 29.498 16.0002C29.498 15.8676 29.4453 15.7404 29.3516 15.6466C29.2578 15.5528 29.1306 15.5002 28.998 15.5002ZM16.883 3.57716C16.7021 3.50179 16.5029 3.48141 16.3105 3.51858C16.1181 3.55576 15.9408 3.64883 15.801 3.78616L8.8 10.4992H5C4.33695 10.4997 3.70122 10.7634 3.23246 11.2323C2.76371 11.7013 2.50026 12.3371 2.5 13.0002V19.0002C2.50053 19.663 2.76409 20.2986 3.23282 20.7673C3.70154 21.2361 4.33712 21.4996 5 21.5002H8.8L15.792 28.2062C15.9317 28.3463 16.1099 28.4417 16.3039 28.4805C16.498 28.5193 16.6991 28.4997 16.882 28.4241C17.0649 28.3485 17.2212 28.2204 17.3312 28.0559C17.4412 27.8914 17.5 27.698 17.5 27.5002V4.50016C17.5003 4.30234 17.4418 4.10888 17.332 3.94436C17.2221 3.77984 17.0658 3.65168 16.883 3.57616V3.57716ZM16.493 27.4912L9.346 20.6382C9.25275 20.5493 9.1288 20.4999 9 20.5002H5C4.60234 20.4996 4.22111 20.3414 3.93992 20.0602C3.65873 19.779 3.50053 19.3978 3.5 19.0002V13.0002C3.50053 12.6025 3.65873 12.2213 3.93992 11.9401C4.22111 11.6589 4.60234 11.5007 5 11.5002H9C9.1288 11.5004 9.25275 11.451 9.346 11.3622L16.5 4.50016L16.493 27.4902V27.4912Z"/></svg>