<svg width="32" height="32" viewBox="0 0 32 32" fill="none" xmlns="http://www.w3.org/2000/svg">
<path d="M28.9985 15.4995H25.5005V11.9995C25.5005 11.8669 25.4478 11.7398 25.3541 11.646C25.2603 11.5522 25.1331 11.4995 25.0005 11.4995C24.8679 11.4995 24.7407 11.5522 24.647 11.646C24.5532 11.7398 24.5005 11.8669 24.5005 11.9995V15.4995H20.9985C20.8659 15.4995 20.7387 15.5522 20.645 15.646C20.5512 15.7398 20.4985 15.8669 20.4985 15.9995C20.4985 16.1322 20.5512 16.2593 20.645 16.3531C20.7387 16.4469 20.8659 16.4995 20.9985 16.4995H24.5005V19.9995C24.5005 20.1322 24.5532 20.2593 24.647 20.3531C24.7407 20.4469 24.8679 20.4995 25.0005 20.4995C25.1331 20.4995 25.2603 20.4469 25.3541 20.3531C25.4478 20.2593 25.5005 20.1322 25.5005 19.9995V16.4995H28.9985C29.1311 16.4995 29.2583 16.4469 29.3521 16.3531C29.4459 16.2593 29.4985 16.1322 29.4985 15.9995C29.4985 15.8669 29.4459 15.7398 29.3521 15.646C29.2583 15.5522 29.1311 15.4995 28.9985 15.4995Z" fill="black"/>
<path d="M16.8833 3.5767C16.7024 3.50128 16.5032 3.48087 16.3108 3.51805C16.1183 3.55522 15.9411 3.64832 15.8013 3.7857L8.79932 10.4995H5.00049C4.33763 10.5002 3.70211 10.7637 3.2334 11.2325C2.76469 11.7012 2.5011 12.3367 2.50049 12.9995V18.9995C2.5011 19.6624 2.76469 20.2979 3.2334 20.7666C3.70211 21.2353 4.33764 21.4989 5.00049 21.4995H8.79932L15.7925 28.2046C15.8851 28.2979 15.9952 28.372 16.1165 28.4227C16.2379 28.4733 16.368 28.4994 16.4995 28.4995C16.6308 28.4992 16.7608 28.4733 16.8823 28.4234C17.0654 28.3479 17.222 28.2197 17.3321 28.055C17.4421 27.8903 17.5008 27.6966 17.5005 27.4986V4.50052C17.5008 4.30269 17.4423 4.10923 17.3324 3.94473C17.2225 3.78023 17.0662 3.65212 16.8833 3.5767ZM16.4927 27.4908L9.34619 20.6382C9.25311 20.5492 9.12928 20.4995 9.00049 20.4995H5.00049C4.6028 20.4991 4.22152 20.3409 3.94031 20.0597C3.6591 19.7785 3.50092 19.3972 3.50049 18.9995V12.9995C3.50092 12.6019 3.6591 12.2206 3.94031 11.9394C4.22152 11.6582 4.6028 11.5 5.00049 11.4995H9.00049C9.12928 11.4996 9.25311 11.4499 9.34619 11.3609L16.5005 4.50052L16.4927 27.4908Z" fill="black"/>
</svg>
