<svg width="32" height="32" viewBox="0 0 32 32" fill="none" xmlns="http://www.w3.org/2000/svg">
<path d="M28.998 14.9999H25.998V11.9999C25.998 11.7347 25.8926 11.4803 25.7051 11.2928C25.5176 11.1053 25.2632 10.9999 24.998 10.9999C24.7328 10.9999 24.4784 11.1053 24.2909 11.2928C24.1034 11.4803 23.998 11.7347 23.998 11.9999V14.9999H20.998C20.7328 14.9999 20.4784 15.1053 20.2909 15.2928C20.1034 15.4803 19.998 15.7347 19.998 15.9999C19.998 16.2651 20.1034 16.5195 20.2909 16.707C20.4784 16.8946 20.7328 16.9999 20.998 16.9999H23.998V19.9999C23.998 20.2651 24.1034 20.5195 24.2909 20.707C24.4784 20.8946 24.7328 20.9999 24.998 20.9999C25.2632 20.9999 25.5176 20.8946 25.7051 20.707C25.8926 20.5195 25.998 20.2651 25.998 19.9999V16.9999H28.998C29.2632 16.9999 29.5176 16.8946 29.7051 16.707C29.8926 16.5195 29.998 16.2651 29.998 15.9999C29.998 15.7347 29.8926 15.4803 29.7051 15.2928C29.5176 15.1053 29.2632 14.9999 28.998 14.9999ZM16.883 3.57692C16.7021 3.50154 16.5029 3.48117 16.3105 3.51834C16.1181 3.55551 15.9408 3.64858 15.801 3.78592L8.8 10.4989H5C4.33695 10.4994 3.70122 10.7631 3.23246 11.2321C2.76371 11.701 2.50026 12.3369 2.5 12.9999V18.9999C2.50053 19.6628 2.76409 20.2984 3.23282 20.7671C3.70154 21.2358 4.33712 21.4994 5 21.4999H8.8L15.792 28.2059C15.9314 28.347 16.1096 28.4434 16.3039 28.4827C16.4983 28.5221 16.7 28.5026 16.8832 28.4269C17.0665 28.3511 17.2231 28.2225 17.3329 28.0574C17.4428 27.8923 17.5009 27.6982 17.5 27.4999V4.49992C17.5003 4.30209 17.4418 4.10864 17.332 3.94412C17.2221 3.7796 17.0658 3.65144 16.883 3.57592V3.57692Z" fill="#0F0F0F"/>
</svg>
