<svg width="32" height="32" viewBox="0 0 32 32" fill="none" xmlns="http://www.w3.org/2000/svg">
<path d="M29 14.9995H21C20.7348 14.9995 20.4804 15.1049 20.2929 15.2924C20.1054 15.48 20 15.7343 20 15.9995C20 16.2648 20.1054 16.5191 20.2929 16.7067C20.4804 16.8942 20.7348 16.9995 21 16.9995H29C29.2652 16.9995 29.5196 16.8942 29.7071 16.7067C29.8946 16.5191 30 16.2648 30 15.9995C30 15.7343 29.8946 15.48 29.7071 15.2924C29.5196 15.1049 29.2652 14.9995 29 14.9995Z" fill="black"/>
<path d="M16.8838 3.57767C16.7029 3.50132 16.5035 3.48033 16.3107 3.51735C16.118 3.55438 15.9405 3.64775 15.8008 3.78567L8.79879 10.4995H5C4.33715 10.5002 3.70162 10.7637 3.23291 11.2324C2.7642 11.7012 2.50061 12.3367 2.5 12.9995V18.9995C2.50061 19.6624 2.7642 20.2979 3.23291 20.7666C3.70162 21.2353 4.33715 21.4989 5 21.4995H8.79883L15.793 28.2056C15.9328 28.3454 16.111 28.4407 16.3049 28.4793C16.4989 28.5179 16.7 28.4981 16.8827 28.4224C17.0654 28.3467 17.2216 28.2186 17.3314 28.0541C17.4413 27.8897 17.5 27.6964 17.5 27.4986V4.50052C17.5003 4.30294 17.4419 4.10973 17.3322 3.94542C17.2225 3.7811 17.0664 3.6531 16.8838 3.57767Z" fill="black"/>
</svg>
