<svg width="32" height="32" viewBox="0 0 32 32" fill="none" xmlns="http://www.w3.org/2000/svg">
<path d="M25.7075 15.9995L29.354 12.3531C29.4012 12.3068 29.4388 12.2517 29.4645 12.1908C29.4902 12.1299 29.5037 12.0646 29.504 11.9985C29.5043 11.9324 29.4916 11.8669 29.4664 11.8058C29.4413 11.7447 29.4043 11.6892 29.3576 11.6425C29.3109 11.5957 29.2553 11.5587 29.1942 11.5336C29.1331 11.5085 29.0676 11.4957 29.0015 11.496C28.9355 11.4964 28.8701 11.5098 28.8093 11.5356C28.7484 11.5613 28.6932 11.5989 28.647 11.6461L25.0005 15.2926L21.354 11.646C21.2599 11.5538 21.1333 11.5025 21.0015 11.5031C20.8698 11.5038 20.7437 11.5564 20.6506 11.6496C20.5574 11.7427 20.5048 11.8688 20.5041 12.0005C20.5035 12.1323 20.5548 12.2589 20.647 12.353L24.2935 15.9995L20.647 19.646C20.5998 19.6922 20.5622 19.7474 20.5365 19.8083C20.5107 19.8691 20.4973 19.9345 20.497 20.0005C20.4966 20.0666 20.5094 20.1321 20.5345 20.1932C20.5597 20.2543 20.5967 20.3099 20.6434 20.3566C20.6901 20.4033 20.7456 20.4403 20.8067 20.4654C20.8679 20.4906 20.9333 20.5033 20.9994 20.503C21.0655 20.5027 21.1309 20.4893 21.1917 20.4635C21.2526 20.4378 21.3077 20.4002 21.354 20.353L25.0005 16.7065L28.6469 20.353C28.741 20.4452 28.8677 20.4965 28.9994 20.4959C29.1311 20.4952 29.2572 20.4426 29.3504 20.3494C29.4435 20.2563 29.4961 20.1302 29.4968 19.9985C29.4975 19.8667 29.4461 19.7401 29.3539 19.646L25.7075 15.9995Z" fill="black"/>
<path d="M16.8833 3.5767C16.7024 3.50123 16.5032 3.4808 16.3108 3.51798C16.1183 3.55516 15.9411 3.64828 15.8013 3.7857L8.79932 10.4995H5.00049C4.33763 10.5002 3.70211 10.7637 3.2334 11.2325C2.76469 11.7012 2.5011 12.3367 2.50049 12.9995V18.9995C2.5011 19.6624 2.76469 20.2979 3.2334 20.7666C3.70211 21.2353 4.33764 21.4989 5.00049 21.4995H8.79932L15.7925 28.2046C15.8851 28.2979 15.9952 28.372 16.1165 28.4227C16.2379 28.4733 16.368 28.4994 16.4995 28.4995C16.6308 28.4992 16.7608 28.4733 16.8823 28.4234C17.0654 28.3479 17.222 28.2197 17.3321 28.055C17.4421 27.8903 17.5007 27.6966 17.5005 27.4986V4.50052C17.5008 4.30269 17.4423 4.10923 17.3324 3.94473C17.2225 3.78023 17.0662 3.65212 16.8833 3.5767ZM16.4927 27.4908L9.34619 20.6382C9.25311 20.5492 9.12928 20.4995 9.00049 20.4995H5.00049C4.6028 20.4991 4.22152 20.3409 3.94031 20.0597C3.6591 19.7785 3.50092 19.3972 3.50049 18.9995V12.9995C3.50092 12.6019 3.6591 12.2206 3.94031 11.9394C4.22152 11.6582 4.6028 11.5 5.00049 11.4995H9.00049C9.12928 11.4996 9.25311 11.4499 9.34619 11.3609L16.5005 4.50052L16.4927 27.4908Z" fill="black"/>
</svg>
