<svg width="32" height="32" viewBox="0 0 32 32" xmlns="http://www.w3.org/2000/svg"><path d="M3.75 7A3.25 3.25 0 0 1 7 3.75h18A3.25 3.25 0 0 1 28.25 7v11a.75.75 0 0 0 1.5 0V7A4.75 4.75 0 0 0 25 2.25H7A4.75 4.75 0 0 0 2.25 7v18A4.75 4.75 0 0 0 7 29.75h8a.75.75 0 0 0 0-1.5H7A3.25 3.25 0 0 1 3.75 25V7Zm12.361-.75a.75.75 0 0 1 .686.445l7.11 16a.75.75 0 0 1-1.37.61l-2.173-4.888h-8.506l-2.173 4.888a.75.75 0 0 1-1.37-.61l7.11-16a.75.75 0 0 1 .686-.445Zm0 2.597-3.587 8.07h7.174l-3.587-8.07ZM29.57 22.012a.75.75 0 0 1-.08 1.057l-6.93 5.94a.85.85 0 0 1-1.155-.044L18.47 26.03a.75.75 0 1 1 1.06-1.06l2.51 2.509 6.472-5.548a.75.75 0 0 1 1.057.08Z"/></svg>