<svg width="32" height="32" viewBox="0 0 32 32" fill="none" xmlns="http://www.w3.org/2000/svg">
<path fill-rule="evenodd" clip-rule="evenodd" d="M3 4.5C2.72386 4.5 2.5 4.72386 2.5 5V10.6801L10.612 7.02973C10.8985 6.9008 11.229 6.91402 11.5043 7.06544L20.9443 12.2575L29.5 6.81296V5C29.5 4.72386 29.2761 4.5 29 4.5H3ZM1.5 5C1.5 4.17157 2.17157 3.5 3 3.5H29C29.8284 3.5 30.5 4.17157 30.5 5V6.81296C30.5 7.15486 30.3253 7.47307 30.0369 7.65663L21.4812 13.1011C21.1731 13.2972 20.7825 13.3097 20.4624 13.1337L11.0224 7.94166L2.91036 11.5921C2.24862 11.8898 1.5 11.4058 1.5 10.6801V5ZM10.5226 11.2631C10.8092 11.1342 11.1396 11.1474 11.4149 11.2988L21.0186 16.5808L28.9631 11.5252C29.6288 11.1016 30.5 11.5798 30.5 12.3689V16.9887C30.5 17.3808 30.2708 17.7368 29.9138 17.8991L21.3412 21.7957C21.1067 21.9023 20.8401 21.9143 20.597 21.8292L11 18.4703L2.83035 21.3296C2.18017 21.5572 1.5 21.0746 1.5 20.3858V15.9699C1.5 15.5764 1.73078 15.2195 2.08964 15.058L10.5226 11.2631ZM10.933 12.175L2.5 15.9699L2.5 20.3858L10.6697 17.5264C10.8835 17.4515 11.1165 17.4515 11.3304 17.5264L20.9274 20.8853L29.5 16.9887V12.3689L21.5555 17.4245C21.2473 17.6206 20.8567 17.6331 20.5367 17.4571L10.933 12.175ZM29.0862 21.3737C29.7483 21.0727 30.5 21.5568 30.5 22.2841V27C30.5 27.8284 29.8284 28.5 29 28.5H3C2.17157 28.5 1.5 27.8284 1.5 27V25.5642C1.5 25.1393 1.76856 24.7608 2.16965 24.6204L10.6697 21.6454C10.8835 21.5705 11.1165 21.5705 11.3304 21.6454L21.0243 25.0382L29.0862 21.3737ZM29.5 22.2841L21.4381 25.9486C21.2036 26.0552 20.937 26.0672 20.6939 25.9821L11 22.5892L2.5 25.5642L2.5 27C2.5 27.2761 2.72386 27.5 3 27.5H29C29.2761 27.5 29.5 27.2761 29.5 27V22.2841Z" fill="black"/>
</svg>
