<svg xmlns="http://www.w3.org/2000/svg" width="32" height="32" viewBox="0 0 32 32"><path d="M12.13 6.08813C12.0048 5.97257 11.844 5.90307 11.6741 5.89107C11.5041 5.87908 11.3352 5.9253 11.195 6.02213L3.073 11.6451C2.97328 11.7142 2.8918 11.8064 2.83554 11.9139C2.77929 12.0213 2.74993 12.1408 2.75 12.2621V15.3371C2.75007 15.382 2.76221 15.426 2.78513 15.4645C2.80805 15.503 2.84092 15.5347 2.88029 15.5562C2.91965 15.5777 2.96407 15.5881 3.00888 15.5866C3.0537 15.585 3.09726 15.5713 3.135 15.5471L9.387 11.5271C9.6754 11.3419 10.0119 11.2454 10.3546 11.2497C10.6974 11.2539 11.0313 11.3587 11.315 11.5511L20.374 17.6881C20.4197 17.7189 20.4743 17.7337 20.5292 17.7303C20.5842 17.7268 20.6365 17.7053 20.678 17.6691L29.164 10.2791C29.1912 10.2555 29.2129 10.2263 29.2278 10.1935C29.2426 10.1607 29.2502 10.1251 29.25 10.0891V7.40413C29.25 7.3577 29.2371 7.31219 29.2127 7.27269C29.1883 7.2332 29.1533 7.20128 29.1118 7.18052C29.0703 7.15976 29.0238 7.15097 28.9775 7.15514C28.9313 7.15931 28.8871 7.17627 28.85 7.20413L21.45 12.7401C21.1226 12.9853 20.7197 13.108 20.3112 13.087C19.9027 13.066 19.5145 12.9026 19.214 12.6251L12.132 6.08713L12.13 6.08813ZM10.341 4.78913C10.7616 4.498 11.2688 4.35887 11.7791 4.39468C12.2894 4.43049 12.7722 4.63911 13.148 4.98613L20.231 11.5241C20.274 11.5638 20.3296 11.5872 20.3881 11.5901C20.4466 11.5931 20.5042 11.5754 20.551 11.5401L27.951 6.00213C29.105 5.13913 30.75 5.96213 30.75 7.40313V10.0901C30.75 10.5961 30.531 11.0771 30.15 11.4101L21.663 18.8001C21.372 19.0536 21.0053 19.2038 20.6201 19.2274C20.2349 19.2509 19.8527 19.1464 19.533 18.9301L10.473 12.7931C10.4325 12.7658 10.3848 12.7509 10.3359 12.7504C10.2871 12.7499 10.2391 12.7637 10.198 12.7901L3.946 16.8091C2.782 17.5571 1.25 16.7211 1.25 15.3371V12.2621C1.25 11.5241 1.612 10.8321 2.22 10.4121L10.341 4.78913ZM29.25 17.3941C29.2499 17.3462 29.236 17.2994 29.21 17.2591C29.184 17.2189 29.147 17.187 29.1034 17.1672C29.0598 17.1474 29.0114 17.1405 28.964 17.1474C28.9166 17.1543 28.8722 17.1747 28.836 17.2061L21.816 23.3201C21.5249 23.5735 21.1582 23.7235 20.7729 23.7468C20.3877 23.7702 20.0056 23.6655 19.686 23.4491L10.445 17.1891C10.4044 17.1616 10.3565 17.1466 10.3075 17.1461C10.2584 17.1456 10.2102 17.1595 10.169 17.1861L2.865 21.8821C2.82979 21.9047 2.80082 21.9358 2.78073 21.9725C2.76063 22.0092 2.75007 22.0503 2.75 22.0921V25.5001C2.75 25.9141 3.086 26.2501 3.5 26.2501H28.5C28.6989 26.2501 28.8897 26.1711 29.0303 26.0305C29.171 25.8898 29.25 25.699 29.25 25.5001V17.3941ZM27.85 16.0741C28.983 15.0881 30.75 15.8921 30.75 17.3941V25.5001C30.75 26.0969 30.5129 26.6692 30.091 27.0911C29.669 27.5131 29.0967 27.7501 28.5 27.7501H3.5C2.90326 27.7501 2.33097 27.5131 1.90901 27.0911C1.48705 26.6692 1.25 26.0969 1.25 25.5001V22.0921C1.25 21.4961 1.553 20.9421 2.054 20.6201L9.358 15.9241C9.6463 15.7387 9.98271 15.6421 10.3255 15.6462C10.6682 15.6502 11.0022 15.7549 11.286 15.9471L20.526 22.2071C20.5717 22.2383 20.6264 22.2534 20.6816 22.2501C20.7368 22.2469 20.7893 22.2254 20.831 22.1891L27.851 16.0751L27.85 16.0741Z"/></svg>