<svg xmlns="http://www.w3.org/2000/svg" width="32" height="32" viewBox="0 0 32 32"><path d="M3.00002 4.5C2.86742 4.5 2.74024 4.55268 2.64647 4.64645C2.5527 4.74021 2.50002 4.86739 2.50002 5V10.68L10.612 7.03C10.7533 6.96634 10.9073 6.93637 11.0621 6.94244C11.2169 6.94852 11.3682 6.99047 11.504 7.065L20.944 12.257L29.5 6.814V5C29.5 4.86739 29.4473 4.74021 29.3536 4.64645C29.2598 4.55268 29.1326 4.5 29 4.5H3.00002ZM1.50002 5C1.50002 4.60218 1.65806 4.22064 1.93936 3.93934C2.22067 3.65804 2.6022 3.5 3.00002 3.5H29C29.3978 3.5 29.7794 3.65804 30.0607 3.93934C30.342 4.22064 30.5 4.60218 30.5 5V6.813C30.5001 6.98127 30.4577 7.14685 30.3768 7.29438C30.2958 7.44191 30.179 7.56664 30.037 7.657L21.48 13.1C21.3287 13.1964 21.1543 13.2503 20.975 13.2561C20.7958 13.2619 20.6182 13.2194 20.461 13.133L11.021 7.941L2.90902 11.591C2.75674 11.6595 2.58974 11.6887 2.42326 11.676C2.25678 11.6634 2.09611 11.6093 1.95592 11.5186C1.81573 11.4279 1.70047 11.3036 1.62066 11.1569C1.54086 11.0103 1.49904 10.846 1.49902 10.679V5H1.50002ZM10.523 11.263C10.6643 11.1995 10.8185 11.1697 10.9733 11.1759C11.1281 11.1822 11.2793 11.2243 11.415 11.299L21.019 16.581L28.963 11.525C29.1142 11.4287 29.2885 11.3749 29.4677 11.3691C29.6468 11.3633 29.8242 11.4058 29.9813 11.492C30.1385 11.5783 30.2695 11.7052 30.3607 11.8595C30.452 12.0138 30.5001 12.1898 30.5 12.369V16.989C30.5 17.1809 30.4447 17.3688 30.3408 17.5301C30.2369 17.6915 30.0887 17.8195 29.914 17.899L21.341 21.796C21.1065 21.9024 20.84 21.9142 20.597 21.829L11 18.47L2.83002 21.33C2.67929 21.3827 2.51812 21.3985 2.36001 21.3762C2.2019 21.3538 2.05144 21.2939 1.92122 21.2015C1.79101 21.1091 1.68482 20.9868 1.61154 20.8449C1.53826 20.703 1.50002 20.5457 1.50002 20.386V15.97C1.50004 15.7773 1.55573 15.5887 1.6604 15.4269C1.76507 15.2651 1.91426 15.137 2.09002 15.058L10.523 11.263ZM10.933 12.175L2.50002 15.97V20.386L10.67 17.526C10.8837 17.4513 11.1164 17.4513 11.33 17.526L20.927 20.886L29.5 16.989V12.369L21.555 17.424C21.4039 17.5202 21.2296 17.574 21.0505 17.5798C20.8715 17.5856 20.6941 17.5432 20.537 17.457L10.933 12.175ZM29.086 21.374C29.2383 21.3047 29.4056 21.2748 29.5725 21.2869C29.7393 21.299 29.9005 21.3528 30.0412 21.4434C30.1819 21.5339 30.2976 21.6583 30.3778 21.8052C30.4579 21.9521 30.5 22.1167 30.5 22.284V27C30.5 27.3978 30.342 27.7794 30.0607 28.0607C29.7794 28.342 29.3978 28.5 29 28.5H3.00002C2.6022 28.5 2.22067 28.342 1.93936 28.0607C1.65806 27.7794 1.50002 27.3978 1.50002 27V25.564C1.50002 25.3566 1.5645 25.1543 1.68454 24.9852C1.80458 24.8161 1.97424 24.6884 2.17002 24.62L10.67 21.645C10.8837 21.5703 11.1164 21.5703 11.33 21.645L21.024 25.038L29.086 21.374ZM29.5 22.284L21.438 25.949C21.2035 26.0554 20.937 26.0672 20.694 25.982L11 22.59L2.50002 25.565V27C2.50002 27.1326 2.5527 27.2598 2.64647 27.3536C2.74024 27.4473 2.86742 27.5 3.00002 27.5H29C29.1326 27.5 29.2598 27.4473 29.3536 27.3536C29.4473 27.2598 29.5 27.1326 29.5 27V22.284Z"/></svg>