<svg width="32" height="32" viewBox="0 0 32 32" fill="none" xmlns="http://www.w3.org/2000/svg">
<path fill-rule="evenodd" clip-rule="evenodd" d="M6.00684 24.0004H8.00684C8.53706 23.9997 9.04536 23.7887 9.42029 23.4138C9.79521 23.0389 10.0061 22.5306 10.0068 22.0004V6.00037C10.0061 5.47014 9.79521 4.96184 9.42029 4.58692C9.04536 4.21199 8.53706 4.00106 8.00684 4.00037H6.00684C5.47661 4.00105 4.96831 4.21199 4.59338 4.58691C4.21846 4.96184 4.00752 5.47014 4.00684 6.00037V22.0004C4.00752 22.5306 4.21846 23.0389 4.59338 23.4138C4.96831 23.7887 5.47661 23.9997 6.00684 24.0004ZM6.00684 6.50037C6.00684 6.22422 6.23069 6.00037 6.50684 6.00037H7.50684C7.78298 6.00037 8.00684 6.22422 8.00684 6.50037V14H6.00684V6.50037Z" fill="black"/>
<path d="M26 4.00037H24C23.4698 4.00105 22.9615 4.21199 22.5865 4.58691C22.2116 4.96184 22.0007 5.47014 22 6.00037V22.0004C22.0007 22.5306 22.2116 23.0389 22.5865 23.4138C22.9615 23.7887 23.4698 23.9997 24 24.0004H26C26.5302 23.9997 27.0385 23.7887 27.4135 23.4138C27.7884 23.0389 27.9993 22.5306 28 22.0004V6.00037C27.9993 5.47014 27.7884 4.96184 27.4135 4.58691C27.0385 4.21199 26.5302 4.00105 26 4.00037Z" fill="black"/>
<path fill-rule="evenodd" clip-rule="evenodd" d="M15 24.0004H17C17.5302 23.9997 18.0385 23.7887 18.4135 23.4138C18.7884 23.0389 18.9993 22.5306 19 22.0004V6.0004C18.9993 5.4701 18.7884 4.9618 18.4135 4.5869C18.0385 4.212 17.5302 4.0011 17 4.0004H15C14.4698 4.0011 13.9615 4.212 13.5865 4.5869C13.2116 4.9618 13.0007 5.4701 13 6.0004V22.0004C13.0007 22.5306 13.2116 23.0389 13.5865 23.4138C13.9615 23.7887 14.4698 23.9997 15 24.0004ZM15 6.5004C15 6.2242 15.2239 6.0004 15.5 6.0004H16.5C16.7761 6.0004 17 6.2242 17 6.5004V8H15V6.5004Z" fill="black"/>
<path d="M27 25.9994H5C4.73478 25.9994 4.48043 26.1047 4.29289 26.2923C4.10536 26.4798 4 26.7342 4 26.9994C4 27.2646 4.10536 27.519 4.29289 27.7065C4.48043 27.894 4.73478 27.9994 5 27.9994H27C27.2652 27.9994 27.5196 27.894 27.7071 27.7065C27.8946 27.519 28 27.2646 28 26.9994C28 26.7342 27.8946 26.4798 27.7071 26.2923C27.5196 26.1047 27.2652 25.9994 27 25.9994Z" fill="black"/>
</svg>
