<svg xmlns="http://www.w3.org/2000/svg" width="32" height="32" viewBox="0 0 32 32"><path d="M6.00684 23.5H8.00684C8.4708 23.4995 8.91561 23.3149 9.24369 22.9869C9.57176 22.6588 9.75631 22.214 9.75684 21.75V5.75C9.75631 5.28603 9.57176 4.84122 9.24369 4.51315C8.91561 4.18507 8.4708 4.00053 8.00684 4H6.00684C5.54287 4.00053 5.09806 4.18507 4.76998 4.51315C4.44191 4.84122 4.25737 5.28603 4.25684 5.75V21.75C4.25737 22.214 4.44191 22.6588 4.76998 22.9869C5.09806 23.3149 5.54287 23.4995 6.00684 23.5ZM5.75684 5.75C5.75684 5.6837 5.78317 5.62011 5.83006 5.57322C5.87694 5.52634 5.94053 5.5 6.00684 5.5H8.00684C8.07314 5.5 8.13673 5.52634 8.18361 5.57322C8.2305 5.62011 8.25684 5.6837 8.25684 5.75V10.75H5.75684V5.75ZM14.9998 23.5H16.9998C17.4638 23.4995 17.9086 23.3149 18.2367 22.9869C18.5648 22.6588 18.7493 22.214 18.7498 21.75V5.75C18.749 5.28611 18.5644 4.84146 18.2364 4.51344C17.9084 4.18542 17.4637 4.00079 16.9998 4H14.9998C14.5359 4.00053 14.0911 4.18507 13.763 4.51315C13.4349 4.84122 13.2504 5.28603 13.2498 5.75V21.75C13.2504 22.214 13.4349 22.6588 13.763 22.9869C14.0911 23.3149 14.5359 23.4995 14.9998 23.5ZM14.7498 5.75C14.7498 5.6837 14.7762 5.62011 14.8231 5.57322C14.8699 5.52634 14.9335 5.5 14.9998 5.5H16.9998C17.0661 5.5 17.1297 5.52634 17.1766 5.57322C17.2235 5.62011 17.2498 5.6837 17.2498 5.75V7.75H14.7498V5.75Z M26 4H24C23.536 4.00053 23.0912 4.18507 22.7631 4.51315C22.4351 4.84122 22.2505 5.28603 22.25 5.75V21.75C22.2505 22.214 22.4351 22.6588 22.7631 22.9869C23.0912 23.3149 23.536 23.4995 24 23.5H26C26.464 23.4995 26.9088 23.3149 27.2369 22.9869C27.5649 22.6588 27.7495 22.214 27.75 21.75V5.75C27.7492 5.28611 27.5646 4.84146 27.2366 4.51344C26.9085 4.18542 26.4639 4.00079 26 4ZM27 25.999H5C4.80109 25.999 4.61032 26.078 4.46967 26.2187C4.32902 26.3593 4.25 26.5501 4.25 26.749C4.25 26.9479 4.32902 27.1387 4.46967 27.2793C4.61032 27.42 4.80109 27.499 5 27.499H27C27.1989 27.499 27.3897 27.42 27.5303 27.2793C27.671 27.1387 27.75 26.9479 27.75 26.749C27.75 26.5501 27.671 26.3593 27.5303 26.2187C27.3897 26.078 27.1989 25.999 27 25.999Z"/></svg>