<svg xmlns="http://www.w3.org/2000/svg" width="32" height="32" viewBox="0 0 32 32"><path d="M23.9998 4.25H25.9998C26.4638 4.25053 26.9086 4.43507 27.2367 4.76315C27.5648 5.09122 27.7493 5.53603 27.7498 6V22C27.749 22.4639 27.5644 22.9085 27.2364 23.2366C26.9084 23.5646 26.4637 23.7492 25.9998 23.75H23.9998C23.5359 23.7495 23.0911 23.5649 22.763 23.2369C22.4349 22.9088 22.2504 22.464 22.2498 22V6C22.2504 5.53603 22.4349 5.09122 22.763 4.76315C23.0911 4.43507 23.5359 4.25053 23.9998 4.25ZM23.7498 11H26.2498V6C26.2498 5.9337 26.2235 5.87011 26.1766 5.82322C26.1297 5.77634 26.0661 5.75 25.9998 5.75H23.9998C23.9335 5.75 23.8699 5.77634 23.8231 5.82322C23.7762 5.87011 23.7498 5.9337 23.7498 6V11ZM16.9998 23.75H14.9998C14.5359 23.7495 14.0911 23.5649 13.763 23.2369C13.4349 22.9088 13.2504 22.464 13.2498 22V14C13.2504 13.536 13.4349 13.0912 13.763 12.7631C14.0911 12.4351 14.5359 12.2505 14.9998 12.25H16.9998C17.4638 12.2505 17.9086 12.4351 18.2367 12.7631C18.5648 13.0912 18.7493 13.536 18.7498 14V22C18.749 22.4639 18.5644 22.9085 18.2364 23.2366C17.9084 23.5646 17.4637 23.7492 16.9998 23.75ZM14.8228 13.824C14.7762 13.8707 14.75 13.934 14.7498 14V16H17.2498V14C17.2498 13.9337 17.2235 13.8701 17.1766 13.8232C17.1297 13.7763 17.0661 13.75 16.9998 13.75H14.9998C14.9669 13.7501 14.9343 13.7566 14.904 13.7693C14.8736 13.782 14.846 13.8006 14.8228 13.824ZM6.00684 23.75H8.00684C8.4708 23.7495 8.91561 23.5649 9.24369 23.2369C9.57176 22.9088 9.75631 22.464 9.75684 22V9C9.75631 8.53603 9.57176 8.09122 9.24369 7.76315C8.91561 7.43507 8.4708 7.25053 8.00684 7.25H6.00684C5.54287 7.25053 5.09806 7.43507 4.76998 7.76315C4.44191 8.09122 4.25737 8.53603 4.25684 9V22C4.25737 22.464 4.44191 22.9088 4.76998 23.2369C5.09806 23.5649 5.54287 23.7495 6.00684 23.75ZM5.75684 9C5.75684 8.9337 5.78317 8.87011 5.83006 8.82322C5.87694 8.77634 5.94053 8.75 6.00684 8.75H8.00684C8.07314 8.75 8.13673 8.77634 8.18361 8.82322C8.2305 8.87011 8.25684 8.9337 8.25684 9V14H5.75684V9Z M5 26.25H27C27.1989 26.25 27.3897 26.329 27.5303 26.4697C27.671 26.6103 27.75 26.8011 27.75 27C27.75 27.1989 27.671 27.3897 27.5303 27.5303C27.3897 27.671 27.1989 27.75 27 27.75H5C4.80109 27.75 4.61032 27.671 4.46967 27.5303C4.32902 27.3897 4.25 27.1989 4.25 27C4.25 26.8011 4.32902 26.6103 4.46967 26.4697C4.61032 26.329 4.80109 26.25 5 26.25Z"/></svg>