<svg xmlns="http://www.w3.org/2000/svg" width="32" height="32" viewBox="0 0 32 32"><path d="M23.9998 4H25.9998C26.53 4.00079 27.0383 4.21176 27.4132 4.58666C27.7881 4.96156 27.999 5.46981 27.9998 6V22C27.999 22.5302 27.7881 23.0384 27.4132 23.4133C27.0383 23.7882 26.53 23.9992 25.9998 24H23.9998C23.4696 23.9992 22.9614 23.7882 22.5865 23.4133C22.2116 23.0384 22.0006 22.5302 21.9998 22V6C22.0006 5.46981 22.2116 4.96156 22.5865 4.58666C22.9614 4.21176 23.4696 4.00079 23.9998 4ZM25.9998 11H23.9998V6.5C23.9998 6.36739 24.0525 6.24021 24.1463 6.14645C24.2401 6.05268 24.3672 6 24.4998 6H25.4998C25.6324 6 25.7596 6.05268 25.8534 6.14645C25.9472 6.24021 25.9998 6.36739 25.9998 6.5V11ZM16.9998 24H14.9998C14.4696 23.9992 13.9614 23.7882 13.5865 23.4133C13.2116 23.0384 13.0006 22.5302 12.9998 22V14C13.0006 13.4698 13.2116 12.9616 13.5865 12.5867C13.9614 12.2118 14.4696 12.0008 14.9998 12H16.9998C17.53 12.0008 18.0383 12.2118 18.4132 12.5867C18.7881 12.9616 18.999 13.4698 18.9998 14V22C18.999 22.5302 18.7881 23.0384 18.4132 23.4133C18.0383 23.7882 17.53 23.9992 16.9998 24ZM15.4998 14C15.3672 14 15.2401 14.0527 15.1463 14.1464C15.0525 14.2402 14.9998 14.3674 14.9998 14.5V16H16.9998V14.5C16.9998 14.3674 16.9472 14.2402 16.8534 14.1464C16.7596 14.0527 16.6324 14 16.4998 14H15.4998ZM6.00684 24H8.00684C8.53703 23.9992 9.04527 23.7882 9.42017 23.4133C9.79507 23.0384 10.006 22.5302 10.0068 22V9C10.006 8.46981 9.79507 7.96156 9.42017 7.58666C9.04527 7.21176 8.53703 7.00079 8.00684 7H6.00684C5.47665 7.00079 4.9684 7.21176 4.5935 7.58666C4.2186 7.96156 4.00763 8.46981 4.00684 9V22C4.00737 22.5303 4.21825 23.0387 4.59321 23.4136C4.96817 23.7886 5.47657 23.9995 6.00684 24ZM6.00684 9.5C6.00684 9.36739 6.05951 9.24021 6.15328 9.14645C6.24705 9.05268 6.37423 9 6.50684 9H7.50684C7.63944 9 7.76662 9.05268 7.86039 9.14645C7.95416 9.24021 8.00684 9.36739 8.00684 9.5V14H6.00684V9.5Z M5 26H27C27.2652 26 27.5196 26.1054 27.7071 26.2929C27.8946 26.4804 28 26.7348 28 27C28 27.2652 27.8946 27.5196 27.7071 27.7071C27.5196 27.8946 27.2652 28 27 28H5C4.73478 28 4.48043 27.8946 4.29289 27.7071C4.10536 27.5196 4 27.2652 4 27C4 26.7348 4.10536 26.4804 4.29289 26.2929C4.48043 26.1054 4.73478 26 5 26Z"/></svg>