<svg width="32" height="32" viewBox="0 0 32 32" fill="none" xmlns="http://www.w3.org/2000/svg">
<path fill-rule="evenodd" clip-rule="evenodd" d="M24.0001 4.50038H26.0001C26.3978 4.50081 26.779 4.65899 27.0602 4.9402C27.3415 5.22141 27.4996 5.60269 27.5001 6.00038V22.0004C27.4996 22.3981 27.3415 22.7794 27.0602 23.0606C26.779 23.3418 26.3978 23.4999 26.0001 23.5004H24.0001C23.6024 23.4999 23.2211 23.3418 22.9399 23.0606C22.6587 22.7794 22.5005 22.3981 22.5001 22.0004V6.00038C22.5005 5.60269 22.6587 5.22141 22.9399 4.9402C23.2211 4.65899 23.6024 4.50081 24.0001 4.50038ZM23.5001 11H26.5L26.5001 6.00038C26.4998 5.86785 26.447 5.74083 26.3533 5.64712C26.2596 5.55341 26.1326 5.50064 26.0001 5.50038H24.0001C23.8675 5.50064 23.7405 5.55341 23.6468 5.64712C23.5531 5.74083 23.5003 5.86785 23.5001 6.00038V11Z" fill="black"/>
<path fill-rule="evenodd" clip-rule="evenodd" d="M17.0001 23.5004H15.0001C14.6024 23.4999 14.2211 23.3418 13.9399 23.0606C13.6587 22.7794 13.5005 22.3981 13.5001 22.0004V14.0004C13.5005 13.6027 13.6587 13.2214 13.9399 12.9402C14.2211 12.659 14.6024 12.5008 15.0001 12.5004H17.0001C17.3978 12.5008 17.779 12.659 18.0602 12.9402C18.3415 13.2214 18.4996 13.6027 18.5001 14.0004V22.0004C18.4996 22.3981 18.3415 22.7794 18.0602 23.0606C17.779 23.3418 17.3978 23.4999 17.0001 23.5004ZM14.6468 13.6471C14.5531 13.7408 14.5003 13.8679 14.5001 14.0004V16H17.5C17.5 16 17.5 16 17.5 16L17.5001 14.0004C17.4998 13.8679 17.447 13.7408 17.3533 13.6471C17.2596 13.5534 17.1326 13.5006 17.0001 13.5004H15.0001C14.8675 13.5006 14.7405 13.5534 14.6468 13.6471Z" fill="black"/>
<path fill-rule="evenodd" clip-rule="evenodd" d="M6.0069 23.5004H8.0069C8.40459 23.4999 8.78587 23.3418 9.06708 23.0606C9.34829 22.7794 9.50647 22.3981 9.5069 22.0004V9.00038C9.50647 8.60269 9.34829 8.22141 9.06708 7.9402C8.78587 7.65899 8.40459 7.50081 8.0069 7.50038H6.0069C5.60921 7.50081 5.22793 7.65899 4.94672 7.9402C4.66551 8.22141 4.50733 8.60269 4.5069 9.00038V22.0004C4.50733 22.3981 4.66551 22.7794 4.94672 23.0606C5.22793 23.3418 5.60921 23.4999 6.0069 23.5004ZM5.5069 9.00038C5.50716 8.86785 5.55993 8.74083 5.65364 8.64712C5.74735 8.55341 5.87437 8.50064 6.0069 8.50038H8.0069C8.13943 8.50064 8.26645 8.55341 8.36016 8.64712C8.45387 8.74083 8.50664 8.86785 8.5069 9.00038V14L8.5 14H5.5069V9.00038Z" fill="black"/>
<path d="M5.00006 26.4994H27.0001C27.1327 26.4994 27.2598 26.5521 27.3536 26.6459C27.4474 26.7396 27.5001 26.8668 27.5001 26.9994C27.5001 27.132 27.4474 27.2592 27.3536 27.353C27.2598 27.4467 27.1327 27.4994 27.0001 27.4994H5.00006C4.86745 27.4994 4.74028 27.4467 4.64651 27.353C4.55274 27.2592 4.50006 27.132 4.50006 26.9994C4.50006 26.8668 4.55274 26.7396 4.64651 26.6459C4.74028 26.5521 4.86745 26.4994 5.00006 26.4994Z" fill="black"/>
</svg>
