<svg xmlns="http://www.w3.org/2000/svg" width="32" height="32" viewBox="0 0 32 32"><path d="M23 4.5H9C7.80693 4.50132 6.66311 4.97585 5.81948 5.81948C4.97585 6.66311 4.50132 7.80693 4.5 9V23C4.50132 24.1931 4.97585 25.3369 5.81948 26.1805C6.66311 27.0241 7.80693 27.4987 9 27.5H17.216C17.8828 27.4982 18.5216 27.2317 18.992 26.759L26.776 18.9C27.241 18.433 27.502 17.8 27.5 17.14V9C27.4987 7.80693 27.0241 6.66311 26.1805 5.81948C25.3369 4.97585 24.1931 4.50132 23 4.5ZM9 26.5C8.07207 26.4989 7.18244 26.1299 6.5263 25.4737C5.87015 24.8176 5.50106 23.9279 5.5 23V9C5.50106 8.07207 5.87015 7.18244 6.5263 6.5263C7.18244 5.87015 8.07207 5.50106 9 5.5H23C23.9279 5.50106 24.8176 5.87015 25.4737 6.5263C26.1299 7.18244 26.4989 8.07207 26.5 9V17.14C26.4987 17.2615 26.4825 17.3824 26.452 17.5H19C18.6023 17.5005 18.2211 17.6587 17.9399 17.9399C17.6587 18.2211 17.5005 18.6023 17.5 19V26.471C17.4065 26.4897 17.3114 26.4994 17.216 26.5H9ZM18.5 25.835V19C18.5003 18.8675 18.553 18.7404 18.6467 18.6467C18.7404 18.553 18.8675 18.5003 19 18.5H25.765L18.5 25.835Z"/></svg>