<svg width="32" height="32" viewBox="0 0 32 32" fill="none" xmlns="http://www.w3.org/2000/svg">
<path d="M7 26.003C6.20468 26.0019 5.44223 25.6855 4.87985 25.1232C4.31747 24.5608 4.00106 23.7983 4 23.003V11.003C4.00186 10.2673 4.27618 9.55835 4.77 9.013L3.358 7.6C2.48838 8.51994 2.00267 9.7371 2 11.003V23.003C2.00159 24.3286 2.52888 25.5994 3.46622 26.5368C4.40356 27.4741 5.6744 28.0014 7 28.003H23.76L21.76 26.003H7ZM30 23.003V11.003C29.9984 9.67741 29.4711 8.40656 28.5338 7.46922C27.5964 6.53188 26.3256 6.00459 25 6.003C24.7348 6.003 24.4804 6.10836 24.2929 6.29589C24.1054 6.48343 24 6.73778 24 7.003C24 7.26822 24.1054 7.52257 24.2929 7.71011C24.4804 7.89764 24.7348 8.003 25 8.003C25.7954 8.00379 26.558 8.32012 27.1204 8.88256C27.6829 9.44499 27.9992 10.2076 28 11.003V23.003C27.9984 23.4662 27.8892 23.9227 27.681 24.3364C27.4727 24.7502 27.1711 25.1098 26.8 25.387L17 15.586V5.414L19.293 7.707C19.3852 7.80251 19.4956 7.87869 19.6176 7.9311C19.7396 7.98351 19.8708 8.0111 20.0036 8.01225C20.1364 8.0134 20.2681 7.9881 20.391 7.93782C20.5138 7.88754 20.6255 7.81329 20.7194 7.7194C20.8133 7.6255 20.8875 7.51385 20.9378 7.39095C20.9881 7.26806 21.0134 7.13638 21.0123 7.0036C21.0111 6.87082 20.9835 6.7396 20.9311 6.6176C20.8787 6.49559 20.8025 6.38525 20.707 6.293L16.707 2.293C16.5195 2.10553 16.2652 2.00021 16 2.00021C15.7348 2.00021 15.4805 2.10553 15.293 2.293L11.293 6.293C11.1108 6.4816 11.01 6.7342 11.0123 6.9964C11.0146 7.2586 11.1198 7.50941 11.3052 7.69482C11.4906 7.88023 11.7414 7.9854 12.0036 7.98767C12.2658 7.98995 12.5184 7.88916 12.707 7.707L15 5.414V13.586L3.707 2.293C3.5184 2.11084 3.2658 2.01005 3.0036 2.01233C2.7414 2.0146 2.49059 2.11977 2.30518 2.30518C2.11977 2.49059 2.0146 2.7414 2.01233 3.0036C2.01005 3.2658 2.11084 3.5184 2.293 3.707L28.293 29.707C28.4816 29.8892 28.7342 29.99 28.9964 29.9877C29.2586 29.9854 29.5094 29.8802 29.6948 29.6948C29.8802 29.5094 29.9854 29.2586 29.9877 28.9964C29.99 28.7342 29.8892 28.4816 29.707 28.293L28.208 26.793C28.7667 26.3318 29.2169 25.7533 29.5266 25.0984C29.8363 24.4435 29.998 23.7284 30 23.004V23.003Z" fill="#0F0F0F"/>
</svg>
