<svg xmlns="http://www.w3.org/2000/svg" width="32" height="32" viewBox="0 0 32 32"><path d="M23 28H9C7.67432 27.9987 6.40332 27.4715 5.46593 26.5341C4.52853 25.5967 4.00132 24.3257 4 23V9C4.00159 7.6744 4.52888 6.40356 5.46622 5.46622C6.40356 4.52888 7.6744 4.00159 9 4H23C24.3256 4.00159 25.5964 4.52888 26.5338 5.46622C27.4711 6.40356 27.9984 7.6744 28 9V23C27.9984 24.3256 27.4711 25.5964 26.5338 26.5338C25.5964 27.4711 24.3256 27.9984 23 28ZM9 6C8.20459 6.00079 7.44199 6.31712 6.87956 6.87956C6.31712 7.44199 6.00079 8.20459 6 9V23C6.00079 23.7954 6.31712 24.558 6.87956 25.1204C7.44199 25.6829 8.20459 25.9992 9 26H23C23.7954 25.9992 24.558 25.6829 25.1204 25.1204C25.6829 24.558 25.9992 23.7954 26 23V9C25.9992 8.20459 25.6829 7.44199 25.1204 6.87956C24.558 6.31712 23.7954 6.00079 23 6H9Z"/></svg>