<svg xmlns="http://www.w3.org/2000/svg" width="32" height="32" viewBox="0 0 32 32"><path d="M11.5 13.5C11.5 12.3954 12.3954 11.5 13.5 11.5H18.5C19.6046 11.5 20.5 12.3954 20.5 13.5V18.5C20.5 19.6046 19.6046 20.5 18.5 20.5H13.5C12.3954 20.5 11.5 19.6046 11.5 18.5V13.5ZM13.5 12.5C12.9477 12.5 12.5 12.9477 12.5 13.5V18.5C12.5 19.0523 12.9477 19.5 13.5 19.5H18.5C19.0523 19.5 19.5 19.0523 19.5 18.5V13.5C19.5 12.9477 19.0523 12.5 18.5 12.5H13.5Z M8.5003 27.2251C10.7204 28.7085 13.3304 29.5002 16.0005 29.5002C19.5797 29.4963 23.0112 28.0727 25.5421 25.5418C28.073 23.011 29.4966 19.5794 29.5005 16.0002C29.5005 13.3302 28.7087 10.7201 27.2253 8.50002C25.7419 6.27996 23.6335 4.54963 21.1667 3.52785C18.6999 2.50606 15.9855 2.23872 13.3668 2.75962C10.748 3.28052 8.34256 4.56627 6.45455 6.45428C4.56654 8.34229 3.28079 10.7478 2.75989 13.3665C2.23899 15.9852 2.50634 18.6996 3.52812 21.1664C4.5499 23.6332 6.28023 25.7417 8.5003 27.2251ZM9.05587 5.60685C11.1115 4.23333 13.5282 3.50022 16.0005 3.50022C19.3146 3.50395 22.4918 4.8221 24.8352 7.1655C27.1786 9.5089 28.4968 12.6862 28.5005 16.0002C28.5005 18.4725 27.7674 20.8892 26.3939 22.9448C25.0203 25.0005 23.0681 26.6026 20.784 27.5487C18.5 28.4948 15.9866 28.7424 13.5619 28.26C11.1371 27.7777 8.90982 26.5872 7.16166 24.8391C5.4135 23.0909 4.22299 20.8636 3.74068 18.4389C3.25836 16.0141 3.5059 13.5008 4.452 11.2167C5.3981 8.9326 7.00025 6.98037 9.05587 5.60685Z"/></svg>