<svg xmlns="http://www.w3.org/2000/svg" width="32" height="32" viewBox="0 0 32 32"><path d="M11 13C11 11.8954 11.8954 11 13 11H19C20.1046 11 21 11.8954 21 13V19C21 20.1046 20.1046 21 19 21H13C11.8954 21 11 20.1046 11 19V13ZM13 13V19H19V13H13Z M8.22251 4.35965C10.5248 2.82131 13.2316 2.00023 16.0005 2.00023C19.7122 2.00439 23.2708 3.48072 25.8954 6.10533C28.52 8.72994 29.9963 12.2885 30.0005 16.0002C30.0005 18.7692 29.1794 21.4759 27.6411 23.7782C26.1027 26.0805 23.9162 27.8749 21.3581 28.9345C18.7999 29.9942 15.985 30.2714 13.2692 29.7312C10.5535 29.191 8.05893 27.8577 6.101 25.8997C4.14306 23.9418 2.80969 21.4472 2.2695 18.7315C1.72931 16.0158 2.00655 13.2008 3.06618 10.6427C4.12581 8.0845 5.92022 5.89799 8.22251 4.35965ZM9.33365 25.9779C11.307 27.2964 13.6271 28.0002 16.0005 28.0002C19.182 27.9968 22.2323 26.7314 24.4819 24.4817C26.7316 22.232 27.997 19.1818 28.0005 16.0002C28.0005 13.6269 27.2967 11.3068 25.9781 9.33339C24.6596 7.36 22.7854 5.82193 20.5927 4.91367C18.4 4.00542 15.9872 3.76778 13.6594 4.23081C11.3316 4.69383 9.19344 5.83672 7.51521 7.51495C5.83698 9.19318 4.69409 11.3314 4.23107 13.6591C3.76805 15.9869 4.00569 18.3997 4.91394 20.5924C5.82219 22.7851 7.36026 24.6593 9.33365 25.9779Z"/></svg>