<svg width="32" height="32" viewBox="0 0 32 32" fill="none" xmlns="http://www.w3.org/2000/svg">
<path d="M7 26.253C6.13837 26.252 5.31234 25.9092 4.70307 25.2999C4.09381 24.6907 3.75106 23.8646 3.75 23.003V11.003C3.75033 10.4777 3.87818 9.96022 4.12255 9.49516C4.36693 9.0301 4.72053 8.6313 5.153 8.33301L4.093 7.27301C3.52158 7.71292 3.05841 8.27777 2.73897 8.9243C2.41952 9.57082 2.25226 10.2819 2.25 11.003V23.003C2.25132 24.2624 2.75219 25.4698 3.6427 26.3603C4.53322 27.2508 5.74063 27.7517 7 27.753H24.572L23.072 26.253H7ZM29.75 23.003V11.003C29.7484 9.74372 29.2475 8.53646 28.357 7.64601C27.4666 6.75555 26.2593 6.2546 25 6.25301C24.8011 6.25301 24.6103 6.33203 24.4697 6.47268C24.329 6.61333 24.25 6.8041 24.25 7.00301C24.25 7.20192 24.329 7.39269 24.4697 7.53334C24.6103 7.67399 24.8011 7.75301 25 7.75301C25.8616 7.75407 26.6877 8.09682 27.2969 8.70608C27.9062 9.31535 28.2489 10.1414 28.25 11.003V23.003C28.2487 23.5418 28.1121 24.0716 27.8528 24.5438C27.5936 25.0161 27.2199 25.4157 26.766 25.706L16.75 15.689V4.81001L19.47 7.53001C19.5387 7.6037 19.6215 7.6628 19.7135 7.70379C19.8055 7.74478 19.9048 7.76683 20.0055 7.7686C20.1062 7.77038 20.2062 7.75186 20.2996 7.71413C20.393 7.67641 20.4778 7.62027 20.549 7.54905C20.6203 7.47783 20.6764 7.393 20.7141 7.29961C20.7518 7.20622 20.7704 7.10619 20.7686 7.00549C20.7668 6.90479 20.7448 6.80547 20.7038 6.71347C20.6628 6.62147 20.6037 6.53867 20.53 6.47001L16.53 2.47001C16.3894 2.32956 16.1988 2.25067 16 2.25067C15.8012 2.25067 15.6106 2.32956 15.47 2.47001L11.47 6.47001C11.3963 6.53867 11.3372 6.62147 11.2962 6.71347C11.2552 6.80547 11.2332 6.90479 11.2314 7.00549C11.2296 7.10619 11.2482 7.20622 11.2859 7.29961C11.3236 7.393 11.3797 7.47783 11.451 7.54905C11.5222 7.62027 11.607 7.67641 11.7004 7.71413C11.7938 7.75186 11.8938 7.77038 11.9945 7.7686C12.0952 7.76683 12.1945 7.74478 12.2865 7.70379C12.3785 7.6628 12.4613 7.6037 12.53 7.53001L15.25 4.81001V14.19L3.53 2.47001C3.38783 2.33753 3.19978 2.26541 3.00548 2.26884C2.81118 2.27226 2.62579 2.35098 2.48838 2.48839C2.35097 2.6258 2.27225 2.81119 2.26883 3.00549C2.2654 3.19979 2.33752 3.38784 2.47 3.53001L28.47 29.53C28.5387 29.6037 28.6215 29.6628 28.7135 29.7038C28.8055 29.7448 28.9048 29.7668 29.0055 29.7686C29.1062 29.7704 29.2062 29.7519 29.2996 29.7141C29.393 29.6764 29.4778 29.6203 29.549 29.549C29.6203 29.4778 29.6764 29.393 29.7141 29.2996C29.7518 29.2062 29.7704 29.1062 29.7686 29.0055C29.7668 28.9048 29.7448 28.8055 29.7038 28.7135C29.6628 28.6215 29.6037 28.5387 29.53 28.47L27.838 26.778C28.4297 26.3421 28.9109 25.7735 29.243 25.1179C29.575 24.4623 29.7487 23.7379 29.75 23.003V23.003Z" fill="#0F0F0F"/>
</svg>
