<svg width="32" height="32" viewBox="0 0 32 32" fill="none" xmlns="http://www.w3.org/2000/svg">
<path d="M6.99976 26.0027C6.20437 26.0018 5.44182 25.6854 4.87939 25.123C4.31697 24.5606 4.00062 23.798 3.99976 23.0027V11.0027C4.00223 10.2672 4.27688 9.55879 4.77076 9.01389L3.35731 7.60044C2.48801 8.52023 2.00247 9.73708 1.99976 11.0027V23.0027C2.00131 24.3283 2.5286 25.5991 3.46594 26.5365C4.40329 27.4738 5.67415 28.0011 6.99976 28.0027H23.7595L21.7595 26.0027H6.99976Z" fill="black"/>
<path d="M29.9998 23.0027V11.0027C29.9982 9.67705 29.4709 8.40619 28.5336 7.46885C27.5962 6.5315 26.3254 6.00422 24.9998 6.00266C24.7345 6.00266 24.4802 6.10802 24.2927 6.29555C24.1051 6.48309 23.9998 6.73744 23.9998 7.00266C23.9998 7.26788 24.1051 7.52223 24.2927 7.70977C24.4802 7.8973 24.7345 8.00266 24.9998 8.00266C25.7951 8.00353 26.5577 8.31988 27.1201 8.8823C27.6825 9.44472 27.9989 10.2073 27.9998 11.0027V23.0027C27.9984 23.4658 27.8894 23.9222 27.6813 24.336C27.4732 24.7497 27.1717 25.1094 26.8008 25.3867L16.9998 15.5857V5.41379L19.2928 7.70679C19.4803 7.8943 19.7346 7.99964 19.9998 7.99964C20.265 7.99963 20.5193 7.89428 20.7068 7.70676C20.8943 7.51924 20.9997 7.26492 20.9997 6.99973C20.9997 6.73454 20.8943 6.48021 20.7068 6.2927L16.7068 2.2927C16.614 2.19982 16.5037 2.12614 16.3824 2.07587C16.2611 2.02561 16.1311 1.99973 15.9998 1.99973C15.8684 1.99973 15.7384 2.02561 15.6171 2.07587C15.4958 2.12614 15.3856 2.19982 15.2927 2.2927L11.2927 6.2927C11.1052 6.48022 10.9999 6.73454 10.9999 6.99973C10.9999 7.26492 11.1052 7.51925 11.2927 7.70676C11.4802 7.89428 11.7346 7.99963 11.9998 7.99962C12.265 7.99962 12.5193 7.89428 12.7068 7.70676L14.9998 5.41376V13.5856L3.7068 2.2927C3.61395 2.19985 3.50372 2.1262 3.38241 2.07595C3.26109 2.0257 3.13107 1.99983 2.99976 1.99983C2.86846 1.99983 2.73843 2.0257 2.61712 2.07595C2.49581 2.12619 2.38558 2.19985 2.29273 2.29269C2.19988 2.38554 2.12623 2.49577 2.07598 2.61708C2.02573 2.7384 1.99987 2.86842 1.99987 2.99973C1.99987 3.13103 2.02573 3.26106 2.07598 3.38237C2.12623 3.50368 2.19988 3.61391 2.29273 3.70676L28.2927 29.7068C28.4802 29.8943 28.7346 29.9996 28.9998 29.9996C29.2649 29.9996 29.5193 29.8943 29.7068 29.7068C29.8943 29.5192 29.9997 29.2649 29.9997 28.9997C29.9997 28.7345 29.8943 28.4802 29.7068 28.2927L28.208 26.7939C28.7669 26.3325 29.2173 25.7535 29.527 25.0982C29.8367 24.4429 29.9981 23.7274 29.9998 23.0027Z" fill="black"/>
</svg>
