<svg id="Layer_1" data-name="Layer 1" xmlns="http://www.w3.org/2000/svg" viewBox="0 0 32 32"><defs><style>.cls-1{fill:#0f0f0f;fill-rule:evenodd}</style></defs><path class="cls-1" d="M25.719 6.282A13.739 13.739 0 1 0 29.75 16a13.766 13.766 0 0 0-4.031-9.718Zm-1.06 18.376A12.24 12.24 0 1 1 28.25 16a12.262 12.262 0 0 1-3.591 8.658Z"/><path class="cls-1" d="M18.75 11.25h-5.5a2 2 0 0 0-2 2v5.5a2 2 0 0 0 2 2h5.5a2 2 0 0 0 2-2v-5.5a2 2 0 0 0-2-2Zm.5 7.5a.5.5 0 0 1-.5.5h-5.5a.5.5 0 0 1-.5-.5v-5.5a.5.5 0 0 1 .5-.5h5.5a.5.5 0 0 1 .5.5Z"/></svg>