<svg width="32" height="32" viewBox="0 0 32 32" fill="none" xmlns="http://www.w3.org/2000/svg">
<path d="M28.7346 13.261C28.5381 13.2911 28.3615 13.398 28.2438 13.5583C28.126 13.7185 28.0767 13.9189 28.1067 14.1155C28.2017 14.7393 28.2497 15.3693 28.2502 16.0003C28.2502 18.4231 27.5318 20.7915 26.1858 22.806C24.8397 24.8205 22.9265 26.3906 20.6881 27.3178C18.4497 28.245 15.9867 28.4876 13.6104 28.0149C11.2341 27.5422 9.05139 26.3755 7.33819 24.6623C5.625 22.9491 4.4583 20.7664 3.98563 18.3901C3.51296 16.0139 3.75555 13.5508 4.68273 11.3124C5.6099 9.07399 7.18001 7.16081 9.19451 5.81476C11.209 4.46871 13.5774 3.75026 16.0002 3.75026C16.3167 3.75026 16.6311 3.76198 16.9417 3.78639C17.1396 3.79946 17.3347 3.73452 17.4853 3.60546C17.6359 3.47641 17.7299 3.29352 17.7473 3.09596C17.7624 2.89761 17.6982 2.70138 17.5687 2.55034C17.4393 2.39929 17.2552 2.30577 17.0569 2.2903C16.7073 2.26393 16.3557 2.2503 16.0002 2.2503C13.2808 2.2503 10.6223 3.05672 8.36116 4.56759C6.09998 6.07846 4.33761 8.22592 3.29691 10.7384C2.2562 13.2509 1.98391 16.0156 2.51445 18.6828C3.045 21.35 4.35456 23.8 6.27753 25.723C8.2005 27.646 10.6505 28.9556 13.3178 29.4861C15.985 30.0166 18.7497 29.7444 21.2621 28.7036C23.7746 27.6629 25.9221 25.9006 27.433 23.6394C28.9438 21.3782 29.7502 18.7198 29.7502 16.0003C29.7502 15.2935 29.6963 14.5876 29.5891 13.889C29.5578 13.693 29.4506 13.5172 29.2907 13.3997C29.1308 13.2821 28.931 13.2323 28.7346 13.261Z" fill="black"/>
<path d="M15.7501 13.25C16.3024 13.25 16.7501 12.8023 16.7501 12.25C16.7501 11.6977 16.3024 11.25 15.7501 11.25C15.1978 11.25 14.7501 11.6977 14.7501 12.25C14.7501 12.8023 15.1978 13.25 15.7501 13.25Z" fill="black"/>
<path d="M16.7502 16.0002C16.7502 15.8013 16.6712 15.6106 16.5305 15.47C16.3899 15.3293 16.1991 15.2503 16.0002 15.2502H15.0002C14.8013 15.2502 14.6106 15.3293 14.4699 15.4699C14.3293 15.6106 14.2502 15.8013 14.2502 16.0002C14.2502 16.1992 14.3293 16.3899 14.4699 16.5306C14.6106 16.6712 14.8013 16.7502 15.0002 16.7502H15.2502V20.2502H14.0002C13.8013 20.2502 13.6106 20.3293 13.4699 20.4699C13.3293 20.6106 13.2502 20.8013 13.2502 21.0002C13.2502 21.1992 13.3293 21.3899 13.4699 21.5306C13.6106 21.6712 13.8013 21.7502 14.0002 21.7502H18.0002C18.1992 21.7502 18.3899 21.6712 18.5306 21.5306C18.6712 21.3899 18.7502 21.1992 18.7502 21.0002C18.7502 20.8013 18.6712 20.6106 18.5306 20.4699C18.3899 20.3293 18.1992 20.2502 18.0002 20.2502H16.7502V16.0002Z" fill="black"/>
<path d="M20.9426 10.7502H26.3919C27.2078 10.7581 27.9987 10.468 28.6161 9.93444C29.2335 9.40083 29.635 8.66033 29.7454 7.8518C29.8268 7.09175 29.6373 6.32736 29.2103 5.69334C28.7833 5.05931 28.1463 4.59633 27.4114 4.38598C27.0491 3.64829 26.4586 3.04712 25.7275 2.67177C24.9964 2.29641 24.1637 2.16689 23.3531 2.30243C22.5426 2.43798 21.7973 2.83137 21.2281 3.42418C20.6589 4.01698 20.2961 4.77757 20.1936 5.59298C19.5486 5.7712 18.9957 6.18854 18.6476 6.76004C18.2994 7.33153 18.1821 8.01423 18.3196 8.66915C18.452 9.26419 18.7848 9.79567 19.2623 10.1745C19.7399 10.5534 20.3331 10.7567 20.9426 10.7502ZM20.0169 7.41524C20.1222 7.28556 20.2551 7.18101 20.406 7.10922C20.5569 7.03743 20.7218 7.0002 20.8889 7.00024H21.6389V6.25024C21.6389 5.6087 21.8852 4.99163 22.3269 4.52642C22.7687 4.0612 23.3722 3.78336 24.0129 3.75024C24.4905 3.77725 24.9503 3.94026 25.3383 4.22005C25.7262 4.49984 26.026 4.88474 26.2024 5.32934L26.3655 5.71606L26.7795 5.77953C27.2245 5.84724 27.6261 6.0841 27.9006 6.44071C28.1752 6.79731 28.3015 7.24614 28.2532 7.6936C28.1854 8.13509 27.959 8.53672 27.6164 8.82327C27.2737 9.10982 26.8384 9.26162 26.3919 9.25024H20.9426C20.6784 9.25737 20.4197 9.17373 20.2097 9.01327C19.9996 8.8528 19.8509 8.6252 19.7883 8.3684C19.7523 8.20258 19.7541 8.03074 19.7936 7.86571C19.8332 7.70068 19.9095 7.54667 20.0169 7.41524Z" fill="black"/>
</svg>
