<svg xmlns="http://www.w3.org/2000/svg" width="32" height="32" viewBox="0 0 32 32"><path d="M28.7731 13.5082C28.708 13.518 28.6455 13.5405 28.5892 13.5745C28.5329 13.6084 28.4838 13.6531 28.4448 13.7061C28.4058 13.759 28.3776 13.8192 28.3618 13.883C28.3461 13.9469 28.3431 14.0132 28.3531 14.0782C28.752 16.6428 28.3427 19.2679 27.182 21.5893C26.0214 23.9108 24.167 25.8133 21.876 27.0331C19.5851 28.2528 16.9713 28.7292 14.3974 28.3961C11.8235 28.063 9.41703 26.937 7.51204 25.1743C5.60706 23.4116 4.29798 21.0996 3.76649 18.5593C3.23499 16.0189 3.50743 13.376 4.54599 10.9975C5.58455 8.61895 7.33774 6.62267 9.56225 5.28566C11.7868 3.94865 14.3723 3.33723 16.9601 3.53624C17.0258 3.54184 17.092 3.53437 17.1549 3.51426C17.2177 3.49414 17.276 3.46179 17.3263 3.41905C17.3765 3.37632 17.4179 3.32405 17.4479 3.26527C17.4779 3.20648 17.4959 3.14234 17.501 3.07655C17.5061 3.01075 17.4981 2.9446 17.4775 2.88191C17.4569 2.81922 17.4241 2.76122 17.3809 2.71127C17.3378 2.66133 17.2852 2.62041 17.2262 2.59088C17.1672 2.56136 17.1029 2.54381 17.0371 2.53924C14.2424 2.32438 11.4501 2.98474 9.04768 4.42867C6.64528 5.87261 4.75189 8.02852 3.63024 10.5972C2.50859 13.166 2.21431 16.0201 2.78822 18.7637C3.36214 21.5073 4.77579 24.0042 6.83302 25.9079C8.89025 27.8117 11.489 29.0279 14.2688 29.3878C17.0485 29.7477 19.8714 29.2334 22.3456 27.9164C24.8198 26.5993 26.8228 24.5448 28.0765 22.0379C29.3302 19.5309 29.7725 16.6959 29.3421 13.9262C29.3211 13.7955 29.2496 13.6783 29.1429 13.5999C29.0363 13.5215 28.903 13.4882 28.7721 13.5072L28.7731 13.5082Z M15.75 13.0001C15.9489 13.0001 16.1397 12.921 16.2803 12.7804C16.421 12.6397 16.5 12.449 16.5 12.2501C16.5 12.0511 16.421 11.8604 16.2803 11.7197C16.1397 11.5791 15.9489 11.5001 15.75 11.5001C15.5511 11.5001 15.3603 11.5791 15.2197 11.7197C15.079 11.8604 15 12.0511 15 12.2501C15 12.449 15.079 12.6397 15.2197 12.7804C15.3603 12.921 15.5511 13.0001 15.75 13.0001ZM16.5 16.0001C16.5003 15.9343 16.4875 15.8692 16.4625 15.8084C16.4374 15.7476 16.4006 15.6924 16.3541 15.6459C16.3077 15.5994 16.2524 15.5626 16.1917 15.5376C16.1309 15.5125 16.0657 15.4998 16 15.5001H15C14.8674 15.5001 14.7402 15.5527 14.6464 15.6465C14.5527 15.7403 14.5 15.8674 14.5 16.0001C14.5 16.1327 14.5527 16.2598 14.6464 16.3536C14.7402 16.4474 14.8674 16.5001 15 16.5001H15.5V20.5001H14C13.8674 20.5001 13.7402 20.5527 13.6464 20.6465C13.5527 20.7403 13.5 20.8674 13.5 21.0001C13.5 21.1327 13.5527 21.2598 13.6464 21.3536C13.7402 21.4474 13.8674 21.5001 14 21.5001H18C18.1326 21.5001 18.2598 21.4474 18.3536 21.3536C18.4473 21.2598 18.5 21.1327 18.5 21.0001C18.5 20.8674 18.4473 20.7403 18.3536 20.6465C18.2598 20.5527 18.1326 20.5001 18 20.5001H16.5V16.0001ZM20.943 10.5001H26.392C27.1464 10.5086 27.8779 10.2415 28.4494 9.74903C29.0209 9.25653 29.393 8.57242 29.496 7.82505C29.5734 7.10575 29.3876 6.38276 28.973 5.78986C28.5585 5.19696 27.9432 4.77429 27.241 4.60005C26.913 3.87758 26.3543 3.2846 25.6525 2.91438C24.9507 2.54416 24.1458 2.41769 23.3644 2.55486C22.5829 2.69203 21.8692 3.08507 21.3355 3.67216C20.8017 4.25924 20.4783 5.00708 20.416 5.79805C20.1088 5.86116 19.8171 5.98431 19.5576 6.16044C19.2981 6.33657 19.0759 6.5622 18.9039 6.8244C18.7318 7.0866 18.6132 7.38019 18.5549 7.68833C18.4966 7.99648 18.4997 8.31311 18.564 8.62005C18.6851 9.15863 18.9875 9.6393 19.4205 9.98168C19.8536 10.3241 20.391 10.5074 20.943 10.5011V10.5001ZM19.823 7.25705C19.9517 7.09843 20.1142 6.97058 20.2986 6.88286C20.483 6.79513 20.6848 6.74976 20.889 6.75005H21.389V6.25005C21.3553 5.62645 21.5471 5.01154 21.9295 4.51775C22.3118 4.02396 22.8591 3.6843 23.4713 3.56086C24.0835 3.43743 24.7197 3.53847 25.2635 3.84552C25.8073 4.15257 26.2225 4.6451 26.433 5.23305L26.541 5.48905L26.818 5.53205C27.3264 5.60971 27.7853 5.88055 28.099 6.28815C28.4127 6.69575 28.5571 7.20867 28.502 7.72005C28.427 8.22261 28.1713 8.68059 27.7829 9.00824C27.3945 9.33589 26.9 9.51074 26.392 9.50005H20.942C20.6206 9.50715 20.3064 9.40381 20.052 9.20726C19.7976 9.01071 19.6183 8.73285 19.544 8.42005C19.4997 8.21765 19.5019 8.00783 19.5504 7.80638C19.5989 7.60493 19.6924 7.41711 19.824 7.25705H19.823Z"/></svg>