<svg width="32" height="32" viewBox="0 0 32 32" fill="none" xmlns="http://www.w3.org/2000/svg">
<path d="M15.7501 13.5C16.4404 13.5 17.0001 12.9403 17.0001 12.25C17.0001 11.5596 16.4404 11 15.7501 11C15.0597 11 14.5001 11.5596 14.5001 12.25C14.5001 12.9403 15.0597 13.5 15.7501 13.5Z" fill="black"/>
<path d="M17.0003 16.0002C17.0003 15.8689 16.9745 15.7388 16.9243 15.6175C16.8741 15.4961 16.8004 15.3858 16.7075 15.293C16.6147 15.2001 16.5044 15.1264 16.383 15.0762C16.2617 15.026 16.1316 15.0002 16.0003 15.0002H15.0003C14.735 15.0002 14.4807 15.1056 14.2931 15.2931C14.1056 15.4807 14.0003 15.735 14.0003 16.0002C14.0003 16.2655 14.1056 16.5198 14.2931 16.7073C14.4807 16.8949 14.735 17.0002 15.0003 17.0002V20.0002H14.0003C13.735 20.0002 13.4807 20.1056 13.2931 20.2931C13.1056 20.4807 13.0003 20.735 13.0003 21.0002C13.0003 21.2655 13.1056 21.5198 13.2931 21.7073C13.4807 21.8949 13.735 22.0002 14.0003 22.0002H18.0002C18.2655 22.0002 18.5198 21.8949 18.7074 21.7073C18.8949 21.5198 19.0002 21.2655 19.0002 21.0002C19.0002 20.735 18.8949 20.4807 18.7074 20.2931C18.5198 20.1056 18.2655 20.0002 18.0002 20.0002H17.0003V16.0002Z" fill="black"/>
<path d="M28.6965 13.0139C28.5667 13.0337 28.4421 13.0789 28.3297 13.1469C28.2174 13.2149 28.1195 13.3044 28.0418 13.4102C27.9641 13.5161 27.908 13.6362 27.8767 13.7638C27.8455 13.8913 27.8397 14.0238 27.8596 14.1536C27.9527 14.7647 27.9997 15.382 28.0002 16.0002C28.0002 18.3736 27.2965 20.6937 25.9779 22.6671C24.6593 24.6405 22.7852 26.1785 20.5925 27.0868C18.3997 27.995 15.9869 28.2327 13.6592 27.7697C11.3314 27.3066 9.1932 26.1638 7.51497 24.4855C5.83674 22.8073 4.69385 20.6691 4.23083 18.3413C3.7678 16.0136 4.00544 13.6008 4.9137 11.408C5.82195 9.21533 7.36002 7.34118 9.33341 6.02261C11.3068 4.70403 13.6269 4.00024 16.0002 4.00024C16.3108 4.00024 16.6174 4.01196 16.9221 4.03539C17.1866 4.05585 17.4483 3.97043 17.6498 3.79791C17.8512 3.62539 17.9759 3.37991 17.9963 3.11547C18.0168 2.85103 17.9314 2.58929 17.7589 2.38784C17.5863 2.18638 17.3409 2.06171 17.0764 2.04125C16.721 2.01391 16.3616 2.00025 16.0002 2.00025C13.2313 2.00025 10.5246 2.82134 8.22227 4.35968C5.91998 5.89802 4.12556 8.08452 3.06594 10.6427C2.00631 13.2009 1.72906 16.0158 2.26926 18.7315C2.80945 21.4473 4.14282 23.9418 6.10076 25.8997C8.05869 27.8577 10.5533 29.1911 13.269 29.7312C15.9847 30.2714 18.7997 29.9942 21.3578 28.9346C23.916 27.8749 26.1025 26.0805 27.6408 23.7782C29.1792 21.4759 30.0002 18.7692 30.0002 16.0003C30.0002 15.2807 29.9453 14.5621 29.8362 13.8508C29.8169 13.7208 29.772 13.5958 29.7042 13.4832C29.6363 13.3706 29.5468 13.2726 29.4409 13.1948C29.3349 13.1169 29.2146 13.0609 29.0868 13.0299C28.959 12.9988 28.8264 12.9934 28.6965 13.0139Z" fill="black"/>
<path d="M20.9426 11.0002H26.3919C27.2694 11.0077 28.1195 10.6947 28.7826 10.1198C29.4458 9.545 29.8763 8.74791 29.9934 7.87817C30.0796 7.07763 29.8866 6.27188 29.4471 5.59726C29.0075 4.92264 28.3484 4.42057 27.5813 4.176C27.186 3.42199 26.5637 2.81126 25.8024 2.43006C25.0412 2.04887 24.1794 1.91649 23.3388 2.05162C22.4982 2.18676 21.7213 2.58257 21.1179 3.18316C20.5144 3.78374 20.115 4.55874 19.9758 5.39867C19.3073 5.62354 18.7444 6.08586 18.394 6.69801C18.0436 7.31017 17.9299 8.02962 18.0745 8.72C18.2187 9.3713 18.5823 9.95325 19.1045 10.3684C19.6266 10.7835 20.2756 11.0066 20.9426 11.0002ZM20.2102 7.57348C20.2922 7.47255 20.3957 7.39116 20.5131 7.33525C20.6305 7.27933 20.7589 7.25029 20.8889 7.25024H21.8889V6.25024C21.8873 5.67451 22.1068 5.12012 22.502 4.70145C22.8972 4.28279 23.438 4.03179 24.0129 4.00024C24.441 4.02842 24.8522 4.17744 25.199 4.42998C25.5458 4.68253 25.8138 5.02825 25.9719 5.427L26.1897 5.94164L26.7415 6.02664C27.1227 6.0847 27.4668 6.28756 27.7022 6.59299C27.9376 6.89842 28.0461 7.28287 28.0051 7.66629C27.9442 8.04671 27.7469 8.39194 27.45 8.63745C27.1531 8.88296 26.7769 9.01194 26.3918 9.00029H20.9426C20.7365 9.00558 20.5346 8.94116 20.3696 8.81746C20.2046 8.69376 20.0862 8.51801 20.0335 8.31865C20.0048 8.18916 20.0058 8.05485 20.0364 7.9258C20.067 7.79675 20.1264 7.67631 20.2102 7.57348Z" fill="black"/>
</svg>
