<svg width="32" height="32" viewBox="0 0 32 32" fill="none" xmlns="http://www.w3.org/2000/svg">
<path d="M28.735 13.261C28.6376 13.2758 28.5441 13.3098 28.4599 13.3608C28.3756 13.4118 28.3022 13.479 28.2439 13.5584C28.1856 13.6378 28.1435 13.7279 28.12 13.8235C28.0965 13.9192 28.0921 14.0186 28.107 14.116C28.202 14.739 28.25 15.369 28.25 16C28.25 18.4629 27.5075 20.8687 26.1194 22.9033C24.7314 24.9379 22.7623 26.5068 20.469 27.4054C18.1758 28.3039 15.665 28.4903 13.2642 27.9403C10.8635 27.3902 8.68424 26.1293 7.01097 24.3219C5.33771 22.5146 4.2481 20.2449 3.88434 17.8089C3.52058 15.3729 3.89957 12.8839 4.97185 10.6666C6.04412 8.44924 7.75988 6.60664 9.89523 5.37922C12.0306 4.15179 14.4863 3.59655 16.942 3.78595C17.1397 3.79874 17.3345 3.73373 17.485 3.60481C17.6354 3.47589 17.7294 3.29327 17.747 3.09595C17.7547 2.99772 17.7429 2.89894 17.7123 2.80526C17.6818 2.71158 17.6331 2.62483 17.569 2.54998C17.5049 2.47513 17.4267 2.41364 17.3389 2.36902C17.251 2.3244 17.1552 2.29754 17.057 2.28995C14.2106 2.07086 11.3666 2.74317 8.91962 4.21358C6.47263 5.68399 4.54398 7.87959 3.4013 10.4957C2.25861 13.1119 1.95856 16.0188 2.54277 18.8132C3.12697 21.6076 4.56647 24.1509 6.66152 26.0901C8.75657 28.0293 11.4033 29.2684 14.2344 29.6353C17.0655 30.0023 19.9407 29.4789 22.4609 28.1379C24.9811 26.7968 27.0214 24.7046 28.2987 22.1515C29.576 19.5983 30.027 16.711 29.589 13.89C29.5577 13.6941 29.4506 13.5184 29.2908 13.4009C29.1309 13.2834 28.9313 13.2335 28.735 13.262V13.261Z" fill="#0F0F0F"/>
<path d="M15.75 13.25C16.0152 13.25 16.2696 13.1447 16.4571 12.9571C16.6446 12.7696 16.75 12.5152 16.75 12.25C16.75 11.9848 16.6446 11.7304 16.4571 11.5429C16.2696 11.3554 16.0152 11.25 15.75 11.25C15.4848 11.25 15.2304 11.3554 15.0429 11.5429C14.8554 11.7304 14.75 11.9848 14.75 12.25C14.75 12.5152 14.8554 12.7696 15.0429 12.9571C15.2304 13.1447 15.4848 13.25 15.75 13.25V13.25ZM16.75 16C16.75 15.8011 16.671 15.6103 16.5303 15.4697C16.3897 15.329 16.1989 15.25 16 15.25H15C14.8011 15.25 14.6103 15.329 14.4697 15.4697C14.329 15.6103 14.25 15.8011 14.25 16C14.25 16.1989 14.329 16.3897 14.4697 16.5303C14.6103 16.671 14.8011 16.75 15 16.75H15.25V20.25H14C13.8011 20.25 13.6103 20.329 13.4697 20.4697C13.329 20.6103 13.25 20.8011 13.25 21C13.25 21.1989 13.329 21.3897 13.4697 21.5303C13.6103 21.671 13.8011 21.75 14 21.75H18C18.1989 21.75 18.3897 21.671 18.5303 21.5303C18.671 21.3897 18.75 21.1989 18.75 21C18.75 20.8011 18.671 20.6103 18.5303 20.4697C18.3897 20.329 18.1989 20.25 18 20.25H16.75V16ZM20.943 10.75H26.392C27.2078 10.7578 27.9985 10.4677 28.6158 9.9342C29.233 9.40069 29.6345 8.66037 29.745 7.85201C29.8265 7.09191 29.6371 6.32743 29.2101 5.69334C28.7831 5.05924 28.146 4.59626 27.411 4.38601C27.0483 3.64909 26.4577 3.04871 25.7268 2.67392C24.9959 2.29913 24.1637 2.1699 23.3536 2.30538C22.5435 2.44087 21.7986 2.83386 21.2295 3.42607C20.6603 4.01828 20.2972 4.77816 20.194 5.59301C19.5489 5.77107 18.996 6.18835 18.6478 6.75986C18.2996 7.33136 18.1824 8.0141 18.32 8.66901C18.4525 9.26397 18.7853 9.79537 19.2628 10.1742C19.7403 10.553 20.3335 10.7563 20.943 10.75V10.75ZM20.017 7.41501C20.1223 7.28527 20.2552 7.18069 20.4061 7.10889C20.5569 7.03709 20.7219 6.99989 20.889 7.00001H21.639V6.25001C21.6392 5.60852 21.8855 4.99156 22.3272 4.52638C22.769 4.06121 23.3724 3.78331 24.013 3.75001C24.4907 3.77702 24.9508 3.94013 25.3388 4.22009C25.7269 4.50005 26.0267 4.88517 26.203 5.33001L26.366 5.71601L26.779 5.78001C27.224 5.84752 27.6258 6.0843 27.9005 6.44093C28.1751 6.79757 28.3014 7.24649 28.253 7.69401C28.185 8.13531 27.9586 8.53672 27.6161 8.82312C27.2735 9.10953 26.8384 9.26129 26.392 9.25001H20.942C20.6778 9.25706 20.4192 9.17337 20.2092 9.01288C19.9992 8.85239 19.8505 8.62479 19.788 8.36801C19.7522 8.20216 19.7542 8.03037 19.7938 7.86539C19.8334 7.70041 19.9097 7.54647 20.017 7.41501V7.41501Z" fill="#0F0F0F"/>
</svg>
