<svg width="32" height="32" viewBox="0 0 32 32" fill="none" xmlns="http://www.w3.org/2000/svg">
<path d="M28.773 13.508C28.708 13.5178 28.6455 13.5403 28.5891 13.5742C28.5328 13.6082 28.4837 13.6529 28.4447 13.7059C28.4057 13.7588 28.3775 13.8189 28.3618 13.8828C28.346 13.9466 28.3431 14.013 28.353 14.078C28.7519 16.6426 28.3426 19.2677 27.182 21.5891C26.0213 23.9105 24.1669 25.8131 21.876 27.0328C19.585 28.2525 16.9713 28.7289 14.3973 28.3958C11.8234 28.0628 9.41697 26.9367 7.51198 25.174C5.60699 23.4114 4.29792 21.0994 3.76643 18.559C3.23493 16.0186 3.50736 13.3758 4.54593 10.9972C5.58449 8.61871 7.33767 6.62242 9.56219 5.28542C11.7867 3.94841 14.3722 3.33699 16.96 3.536C17.0257 3.5416 17.092 3.53413 17.1548 3.51401C17.2177 3.4939 17.2759 3.46154 17.3262 3.41881C17.3765 3.37607 17.4178 3.32381 17.4478 3.26502C17.4778 3.20624 17.4959 3.1421 17.5009 3.0763C17.506 3.01051 17.498 2.94436 17.4774 2.88166C17.4568 2.81897 17.424 2.76098 17.3809 2.71103C17.3377 2.66108 17.2851 2.62016 17.2261 2.59064C17.1671 2.56111 17.1028 2.54356 17.037 2.539C14.2423 2.32414 11.45 2.98449 9.04762 4.42843C6.64522 5.87236 4.75183 8.02827 3.63018 10.597C2.50853 13.1657 2.21425 16.0199 2.78816 18.7635C3.36208 21.507 4.77573 24.0039 6.83296 25.9077C8.89019 27.8114 11.489 29.0276 14.2687 29.3875C17.0485 29.7474 19.8713 29.2332 22.3455 27.9161C24.8198 26.5991 26.8227 24.5445 28.0764 22.0376C29.3301 19.5307 29.7725 16.6957 29.342 13.926C29.321 13.7953 29.2495 13.6781 29.1429 13.5997C29.0362 13.5213 28.903 13.488 28.772 13.507L28.773 13.508Z" fill="#0F0F0F"/>
<path d="M15.75 13.0001C15.9489 13.0001 16.1397 12.921 16.2803 12.7804C16.421 12.6397 16.5 12.449 16.5 12.2501C16.5 12.0511 16.421 11.8604 16.2803 11.7197C16.1397 11.5791 15.9489 11.5001 15.75 11.5001C15.5511 11.5001 15.3603 11.5791 15.2197 11.7197C15.079 11.8604 15 12.0511 15 12.2501C15 12.449 15.079 12.6397 15.2197 12.7804C15.3603 12.921 15.5511 13.0001 15.75 13.0001ZM16.5 16.0001C16.5003 15.9343 16.4875 15.8692 16.4625 15.8084C16.4374 15.7476 16.4006 15.6924 16.3541 15.6459C16.3077 15.5994 16.2524 15.5626 16.1917 15.5376C16.1309 15.5125 16.0657 15.4998 16 15.5001H15C14.8674 15.5001 14.7402 15.5527 14.6464 15.6465C14.5527 15.7403 14.5 15.8674 14.5 16.0001C14.5 16.1327 14.5527 16.2598 14.6464 16.3536C14.7402 16.4474 14.8674 16.5001 15 16.5001H15.5V20.5001H14C13.8674 20.5001 13.7402 20.5527 13.6464 20.6465C13.5527 20.7403 13.5 20.8674 13.5 21.0001C13.5 21.1327 13.5527 21.2598 13.6464 21.3536C13.7402 21.4474 13.8674 21.5001 14 21.5001H18C18.1326 21.5001 18.2598 21.4474 18.3536 21.3536C18.4473 21.2598 18.5 21.1327 18.5 21.0001C18.5 20.8674 18.4473 20.7403 18.3536 20.6465C18.2598 20.5527 18.1326 20.5001 18 20.5001H16.5V16.0001ZM20.943 10.5001H26.392C27.1464 10.5086 27.8779 10.2415 28.4494 9.74903C29.0209 9.25653 29.393 8.57242 29.496 7.82505C29.5734 7.10575 29.3876 6.38276 28.973 5.78986C28.5585 5.19696 27.9432 4.77429 27.241 4.60005C26.913 3.87758 26.3543 3.2846 25.6525 2.91438C24.9507 2.54416 24.1458 2.41769 23.3644 2.55486C22.5829 2.69203 21.8692 3.08507 21.3355 3.67216C20.8017 4.25924 20.4783 5.00708 20.416 5.79805C20.1088 5.86116 19.8171 5.98431 19.5576 6.16044C19.2981 6.33657 19.0759 6.5622 18.9039 6.8244C18.7318 7.0866 18.6132 7.38019 18.5549 7.68833C18.4966 7.99648 18.4997 8.31311 18.564 8.62005C18.6851 9.15863 18.9875 9.6393 19.4205 9.98168C19.8536 10.3241 20.391 10.5074 20.943 10.5011V10.5001ZM19.823 7.25705C19.9517 7.09843 20.1142 6.97058 20.2986 6.88286C20.483 6.79513 20.6848 6.74976 20.889 6.75005H21.389V6.25005C21.3553 5.62645 21.5471 5.01154 21.9295 4.51775C22.3118 4.02396 22.8591 3.6843 23.4713 3.56086C24.0835 3.43743 24.7197 3.53847 25.2635 3.84552C25.8073 4.15257 26.2225 4.6451 26.433 5.23305L26.541 5.48905L26.818 5.53205C27.3264 5.60971 27.7853 5.88055 28.099 6.28815C28.4127 6.69575 28.5571 7.20867 28.502 7.72005C28.427 8.22261 28.1713 8.68059 27.7829 9.00824C27.3945 9.33589 26.9 9.51074 26.392 9.50005H20.942C20.6206 9.50715 20.3064 9.40381 20.052 9.20726C19.7976 9.01071 19.6183 8.73285 19.544 8.42005C19.4997 8.21765 19.5019 8.00783 19.5504 7.80638C19.5989 7.60493 19.6924 7.41711 19.824 7.25705H19.823Z" fill="#0F0F0F"/>
</svg>
