<svg xmlns="http://www.w3.org/2000/svg" width="32" height="32" viewBox="0 0 32 32"><path d="M14.232 14.2319C13.9119 14.5507 13.6843 14.9505 13.5736 15.3886C13.4629 15.8266 13.4732 16.2865 13.6034 16.7192C13.7335 17.1519 13.9787 17.5411 14.3127 17.8454C14.6467 18.1496 15.0571 18.3575 15.5 18.4469V28.9999C15.5 29.1325 15.5527 29.2597 15.6464 29.3534C15.7402 29.4472 15.8674 29.4999 16 29.4999C16.1326 29.4999 16.2598 29.4472 16.3535 29.3534C16.4473 29.2597 16.5 29.1325 16.5 28.9999V18.4459C16.8825 18.3684 17.2415 18.2025 17.5484 17.9614C17.8552 17.7202 18.1014 17.4106 18.2671 17.0573C18.4328 16.704 18.5136 16.3168 18.5028 15.9267C18.4921 15.5366 18.3901 15.1544 18.2052 14.8108C18.0202 14.4671 17.7574 14.1716 17.4377 13.9477C17.118 13.7239 16.7504 13.578 16.3642 13.5217C15.9781 13.4655 15.5841 13.5004 15.2138 13.6237C14.8435 13.747 14.5073 13.9553 14.232 14.2319ZM17.061 17.0619C16.7796 17.3429 16.3981 17.5006 16.0004 17.5003C15.6027 17.5 15.2215 17.3418 14.9405 17.0604C14.6595 16.779 14.5018 16.3975 14.5021 15.9998C14.5023 15.6021 14.6606 15.2209 14.942 14.9399C15.2232 14.6589 15.6046 14.5011 16.0022 14.5013C16.3998 14.5015 16.781 14.6596 17.062 14.9409C17.343 15.2221 17.5007 15.6035 17.5005 16.0011C17.5004 16.3986 17.3422 16.7799 17.061 17.0609V17.0619Z M16 9.50008C17.3852 9.50378 18.7331 9.94873 19.8483 10.7704C20.9635 11.592 21.7878 12.7476 22.2018 14.0695C22.6157 15.3914 22.5977 16.8108 22.1504 18.1217C21.7031 19.4327 20.8496 20.567 19.714 21.3601C19.6587 21.397 19.6113 21.4446 19.5746 21.5001C19.5379 21.5556 19.5126 21.6178 19.5003 21.6832C19.488 21.7486 19.4888 21.8157 19.5028 21.8808C19.5167 21.9458 19.5435 22.0074 19.5816 22.062C19.6196 22.1165 19.6682 22.1629 19.7244 22.1985C19.7806 22.2341 19.8434 22.258 19.909 22.269C19.9746 22.28 20.0417 22.2778 20.1064 22.2626C20.1712 22.2473 20.2322 22.2192 20.286 22.1801C21.5963 21.2676 22.5812 19.9608 23.0973 18.4499C23.6135 16.9389 23.6339 15.3027 23.1558 13.7793C22.6776 12.2559 21.7257 10.9249 20.4387 9.97991C19.1517 9.03495 17.5967 8.52539 16 8.52539C14.4033 8.52539 12.8483 9.03495 11.5613 9.97991C10.2743 10.9249 9.3224 12.2559 8.84423 13.7793C8.36606 15.3027 8.38654 16.9389 8.90269 18.4499C9.41884 19.9608 10.4037 21.2676 11.714 22.1801C11.7678 22.2192 11.8288 22.2473 11.8936 22.2626C11.9583 22.2778 12.0254 22.28 12.091 22.269C12.1566 22.258 12.2194 22.2341 12.2756 22.1985C12.3318 22.1629 12.3804 22.1165 12.4184 22.062C12.4565 22.0074 12.4833 21.9458 12.4972 21.8808C12.5112 21.8157 12.512 21.7486 12.4997 21.6832C12.4874 21.6178 12.4621 21.5556 12.4254 21.5001C12.3887 21.4446 12.3413 21.397 12.286 21.3601C11.1497 20.5673 10.2957 19.433 9.8479 18.1219C9.40013 16.8107 9.38196 15.391 9.796 14.0688C10.2101 12.7466 11.0348 11.5908 12.1504 10.7693C13.266 9.94768 14.6145 9.50311 16 9.50008Z M16 2.5C12.7842 2.50106 9.67433 3.64988 7.23012 5.73971C4.7859 7.82954 3.16784 10.7231 2.66713 13.8998C2.16643 17.0764 2.81597 20.3274 4.49885 23.0677C6.18173 25.8081 8.78744 27.8578 11.847 28.848C11.9712 28.882 12.1038 28.8667 12.217 28.8054C12.3303 28.7441 12.4155 28.6414 12.4549 28.5189C12.4944 28.3963 12.485 28.2632 12.4288 28.1474C12.3725 28.0315 12.2738 27.9418 12.153 27.897C9.31985 26.9806 6.90688 25.0829 5.34851 22.5455C3.79015 20.0081 3.18877 16.9978 3.65264 14.0564C4.11652 11.1151 5.61517 8.43592 7.8788 6.50131C10.1424 4.56669 13.0223 3.5037 16 3.5037C18.9777 3.5037 21.8576 4.56669 24.1213 6.50131C26.3849 8.43592 27.8836 11.1151 28.3474 14.0564C28.8113 16.9978 28.2099 20.0081 26.6516 22.5455C25.0932 25.0829 22.6802 26.9806 19.847 27.897C19.7263 27.9418 19.6276 28.0315 19.5713 28.1474C19.5151 28.2632 19.5057 28.3963 19.5452 28.5189C19.5846 28.6414 19.6698 28.7441 19.7831 28.8054C19.8963 28.8667 20.0288 28.882 20.153 28.848C23.2139 27.859 25.8211 25.8096 27.505 23.0689C29.189 20.3282 29.8391 17.0764 29.3383 13.8989C28.8375 10.7215 27.2186 7.82722 24.7732 5.73741C22.3279 3.6476 19.2167 2.49955 16 2.5Z"/></svg>