<svg xmlns="http://www.w3.org/2000/svg" width="32" height="32" viewBox="0 0 32 32"><path d="M28 15.25H16.042C12.329 14.972 10.717 12.665 10.792 10.638C10.862 8.70795 12.499 6.76095 16.055 6.75795C17.7123 6.75625 19.305 7.4005 20.495 8.55395C20.6423 8.68574 20.8357 8.75405 21.033 8.74405C21.2304 8.73405 21.4159 8.64654 21.5491 8.50054C21.6823 8.35454 21.7525 8.16186 21.7445 7.96438C21.7364 7.7669 21.6507 7.58059 21.506 7.44595C20.0233 6.0296 18.0475 5.24595 15.997 5.26095C11.524 5.26095 9.387 8.01995 9.292 10.583C9.27664 11.4935 9.48299 12.3942 9.89326 13.2072C10.3035 14.0203 10.9054 14.7213 11.647 15.25H4C3.80109 15.25 3.61032 15.329 3.46967 15.4696C3.32902 15.6103 3.25 15.801 3.25 16C3.25 16.1989 3.32902 16.3896 3.46967 16.5303C3.61032 16.6709 3.80109 16.75 4 16.75H15.964C20.417 17.083 22.337 19.238 22.264 21.23C22.194 23.161 20.202 25.24 15.945 25.242C14.7024 25.2655 13.4734 24.9797 12.3687 24.4101C11.264 23.8404 10.3184 23.005 9.617 21.979C9.56099 21.8979 9.48957 21.8287 9.40682 21.7753C9.32407 21.7219 9.2316 21.6853 9.1347 21.6676C9.03781 21.6499 8.93837 21.6515 8.84208 21.6722C8.74579 21.6929 8.65453 21.7324 8.5735 21.7885C8.49247 21.8445 8.42327 21.9159 8.36985 21.9986C8.31642 22.0814 8.27982 22.1739 8.26213 22.2708C8.24444 22.3676 8.24601 22.4671 8.26675 22.5634C8.28749 22.6597 8.32699 22.7509 8.383 22.832C9.20149 24.0262 10.2957 25.0057 11.5731 25.6874C12.8504 26.369 14.2732 26.7328 15.721 26.748C15.882 26.748 15.979 26.742 15.997 26.74C21.195 26.74 23.667 23.912 23.763 21.284C23.7658 20.3609 23.5218 19.4539 23.0565 18.6568C22.5911 17.8596 21.9212 17.2013 21.116 16.75H28C28.1989 16.75 28.3897 16.6709 28.5303 16.5303C28.671 16.3896 28.75 16.1989 28.75 16C28.75 15.801 28.671 15.6103 28.5303 15.4696C28.3897 15.329 28.1989 15.25 28 15.25Z"/></svg>