<svg width="32" height="32" viewBox="0 0 32 32" fill="none" xmlns="http://www.w3.org/2000/svg">
<path d="M28 15H16.0536C12.5111 14.7312 10.971 12.5577 11.0412 10.6474C11.1076 8.8369 12.6662 7.0107 16.0724 7.0074C17.6608 7.01238 19.1855 7.63263 20.3263 8.7379C20.5237 8.90591 20.7786 8.99071 21.0373 8.97444C21.2959 8.95817 21.5382 8.84209 21.713 8.65067C21.8877 8.45925 21.9814 8.20746 21.9741 7.94836C21.9668 7.68927 21.8592 7.44311 21.674 7.2618C20.1466 5.8015 18.1103 4.99402 15.9972 5.0108C11.3595 5.0108 9.1408 7.8946 9.0421 10.5733C9.02379 11.4053 9.18516 12.2314 9.5152 12.9954C9.84523 13.7593 10.3362 14.4431 10.9545 15H4C3.73478 15 3.48043 15.1054 3.29289 15.2929C3.10536 15.4804 3 15.7348 3 16C3 16.2652 3.10536 16.5196 3.29289 16.7071C3.48043 16.8946 3.73478 17 4 17H15.9558C20.2352 17.3236 22.083 19.35 22.0148 21.2207C21.9474 23.0361 20.0363 24.9907 15.9289 24.9922C14.7289 25.0157 13.542 24.7395 12.4757 24.1886C11.4094 23.6376 10.4975 22.8294 9.8224 21.837C9.74961 21.7247 9.65503 21.6282 9.54424 21.5531C9.43346 21.478 9.30874 21.4259 9.17747 21.3999C9.04619 21.374 8.91103 21.3746 8.78 21.4018C8.64897 21.429 8.52474 21.4822 8.41465 21.5583C8.30457 21.6344 8.21087 21.7318 8.13912 21.8448C8.06738 21.9577 8.01903 22.0839 7.99695 22.2159C7.97488 22.3479 7.97952 22.483 8.0106 22.6132C8.04168 22.7433 8.09857 22.8659 8.1779 22.9737C9.01965 24.2007 10.1444 25.2069 11.4572 25.9074C12.7699 26.6079 14.232 26.982 15.7199 26.9981C15.883 26.9981 15.9806 26.9923 15.9972 26.9903C21.3615 26.9903 23.9122 24.0372 24.0128 21.294C24.0254 20.4619 23.8403 19.6387 23.4726 18.8922C23.1048 18.1457 22.5651 17.4971 21.8977 17H28C28.2652 17 28.5196 16.8946 28.7071 16.7071C28.8946 16.5196 29 16.2652 29 16C29 15.7348 28.8946 15.4804 28.7071 15.2929C28.5196 15.1054 28.2652 15 28 15Z" fill="black"/>
</svg>
