<svg xmlns="http://www.w3.org/2000/svg" width="32" height="32" viewBox="0 0 32 32"><path d="M7.692 3.25H7.69a4.45 4.45 0 0 0-4.44 4.44V10a.75.75 0 0 0 1.5 0V7.693A2.95 2.95 0 0 1 7.693 4.75H10a.75.75 0 0 0 0-1.5H7.692ZM22 3.25a.75.75 0 0 0 0 1.5h2.306a2.95 2.95 0 0 1 2.944 2.943V10a.75.75 0 0 0 1.5 0V7.69a4.45 4.45 0 0 0-4.442-4.44H22ZM4 21.25a.75.75 0 0 1 .75.75v2.307a2.95 2.95 0 0 0 2.943 2.943H10a.75.75 0 0 1 0 1.5H7.69a4.45 4.45 0 0 1-4.44-4.44V22a.75.75 0 0 1 .75-.75ZM28.75 22a.75.75 0 0 0-1.5 0v2.307a2.95 2.95 0 0 1-2.944 2.943H22a.75.75 0 0 0 0 1.5h2.308a4.45 4.45 0 0 0 4.442-4.44V22ZM18.682 15.298a4.25 4.25 0 1 0-5.362 0 6.758 6.758 0 0 0-4.07 5.859c0 .66.326 1.191.766 1.585.43.383 1 .668 1.613.88 1.23.428 2.82.628 4.371.628 1.552 0 3.141-.2 4.37-.627.613-.213 1.184-.498 1.614-.881.44-.394.766-.925.766-1.585H22l.749-.043a6.76 6.76 0 0 0-4.067-5.816ZM16 9.25a2.75 2.75 0 0 1 .16 5.495 7.168 7.168 0 0 0-.32 0A2.75 2.75 0 0 1 16 9.25Zm-.176 6.996a4.274 4.274 0 0 0 .35 0 5.26 5.26 0 0 1 5.075 4.928c-.005.118-.06.265-.265.448-.226.203-.593.406-1.106.584-1.02.354-2.43.544-3.879.544-1.448 0-2.859-.19-3.88-.544-.511-.178-.879-.381-1.105-.584-.206-.183-.26-.33-.265-.448a5.26 5.26 0 0 1 5.075-4.928Z"/></svg>
