<svg xmlns="http://www.w3.org/2000/svg" width="32" height="32" viewBox="0 0 32 32"><path d="M18.6829 3.26885C18.4887 3.08822 18.2308 2.99195 17.9657 3.00114C17.7007 3.01032 17.4501 3.12421 17.2689 3.31785L10.9999 10.0338L4.73185 3.31785C4.55077 3.12407 4.30024 3.01 4.03519 3.00063C3.77013 2.99125 3.51218 3.08735 3.31785 3.26785C3.12378 3.44897 3.00951 3.6997 3.00014 3.965C2.99076 4.2303 3.08705 4.48848 3.26785 4.68285L9.63285 11.4998L3.26985 18.3178C3.13799 18.4606 3.05046 18.6385 3.01792 18.8301C2.98539 19.0217 3.00925 19.2185 3.08661 19.3968C3.16397 19.575 3.29149 19.7269 3.45363 19.834C3.61577 19.9411 3.80555 19.9987 3.99985 19.9998C4.13711 20.0002 4.27295 19.9722 4.3989 19.9177C4.52485 19.8631 4.6382 19.7832 4.73185 19.6828L10.9999 12.9668L17.2689 19.6828C17.3583 19.7792 17.4659 19.8569 17.5855 19.9116C17.7051 19.9662 17.8343 19.9967 17.9657 20.0012C18.0971 20.0058 18.2281 19.9843 18.3511 19.9381C18.4742 19.8919 18.5869 19.8218 18.6829 19.7318C19.0859 19.3548 19.1079 18.7218 18.7319 18.3178L12.3689 11.4998L18.7319 4.68285C18.9125 4.48865 19.0087 4.23077 18.9996 3.96572C18.9904 3.70067 18.8765 3.45007 18.6829 3.26885ZM26.2509 25.2738C27.2849 24.2818 27.9849 23.5238 28.3469 23.0008C28.8269 22.3188 29.0669 21.5708 29.0669 20.7608C29.0669 19.8648 28.7519 19.1228 28.1229 18.5368C27.4299 17.8868 26.4959 17.5608 25.3229 17.5608C24.3209 17.5608 23.4559 17.8228 22.7309 18.3448C21.8769 18.9428 21.3819 19.7578 21.2429 20.7928H23.2589C23.3329 20.2928 23.5359 19.8868 23.8669 19.5768C24.2299 19.2468 24.6989 19.0808 25.2759 19.0808C25.7979 19.0808 26.2249 19.2138 26.5549 19.4808C26.9169 19.7908 27.0989 20.2168 27.0989 20.7608C27.0989 21.2518 26.9519 21.7158 26.6589 22.1538C26.3659 22.5908 25.7439 23.2628 24.7949 24.1688L21.5309 27.3368V29.0008H29.0029V27.3368H24.0909L26.2509 25.2738Z"/></svg>