<svg width="32" height="32" viewBox="0 0 32 32" fill="none" xmlns="http://www.w3.org/2000/svg">
<path d="M18.6822 12.269C18.2779 11.893 17.6461 11.9145 17.2681 12.3178L10.9995 19.0341L4.73097 12.3178C4.35397 11.9145 3.72217 11.892 3.31687 12.269C2.91357 12.646 2.89207 13.2788 3.26807 13.6831L9.63097 20.5005L3.26807 27.3179C2.89207 27.7222 2.91357 28.355 3.31687 28.732C3.51027 28.9117 3.75537 29.0006 3.99947 29.0006C4.26707 29.0006 4.53367 28.8942 4.73097 28.6832L10.9995 21.9669L17.2681 28.6832C17.4654 28.8941 17.732 29.0006 17.9995 29.0006C18.2436 29.0006 18.4888 28.9117 18.6821 28.732C19.0854 28.355 19.1069 27.7222 18.7309 27.3179L12.368 20.5005L18.7309 13.6831C19.107 13.2788 19.0855 12.646 18.6822 12.269Z" fill="black"/>
<path d="M26.2515 10.7163C27.2857 9.7241 27.9849 8.9663 28.3472 8.4438C28.8277 7.7612 29.0679 7.0141 29.0679 6.2036C29.0679 5.3081 28.7525 4.5669 28.1236 3.98C27.4302 3.3296 26.4966 3.0044 25.3238 3.0044C24.3209 3.0044 23.4566 3.2651 22.731 3.7886C21.8775 4.3853 21.3824 5.2017 21.2437 6.2359H23.2593C23.3335 5.7349 23.5366 5.3297 23.8677 5.0201C24.23 4.69 24.6997 4.524 25.2759 4.524C25.7984 4.524 26.2251 4.6578 26.5552 4.9244C26.9175 5.234 27.0991 5.6598 27.0991 6.2037C27.0991 6.6949 26.9526 7.1588 26.6596 7.5963C26.3657 8.0338 25.7446 8.7057 24.7953 9.6119L21.5316 12.7799V14.444H29.0033V12.7799H24.0912L26.2515 10.7163Z" fill="black"/>
</svg>
