<svg xmlns="http://www.w3.org/2000/svg" width="32" height="32" viewBox="0 0 32 32"><path d="M18.3399 12.6349C18.2429 12.5447 18.1141 12.4967 17.9817 12.5014C17.8494 12.5061 17.7243 12.5631 17.6339 12.6599L10.9999 19.7679L4.36492 12.6599C4.27263 12.5718 4.15014 12.5223 4.02253 12.5215C3.89493 12.5208 3.77187 12.5689 3.67856 12.6559C3.58525 12.743 3.52875 12.8624 3.52064 12.9897C3.51253 13.1171 3.55341 13.2427 3.63492 13.3409L10.3159 20.5009L3.63392 27.6599C3.58921 27.7078 3.55437 27.7641 3.5314 27.8255C3.50843 27.8869 3.49778 27.9522 3.50006 28.0177C3.50233 28.0832 3.51749 28.1477 3.54466 28.2073C3.57183 28.267 3.61049 28.3207 3.65842 28.3654C3.70635 28.4101 3.76262 28.445 3.82402 28.4679C3.88541 28.4909 3.95073 28.5015 4.01624 28.4993C4.08176 28.497 4.14618 28.4818 4.20583 28.4547C4.26549 28.4275 4.31921 28.3888 4.36392 28.3409L10.9999 21.2329L17.6349 28.3409C17.6795 28.3891 17.7332 28.428 17.7929 28.4553C17.8526 28.4827 17.9171 28.4979 17.9827 28.5003C18.0483 28.5026 18.1138 28.4919 18.1752 28.4689C18.2367 28.4458 18.293 28.4108 18.3409 28.3659C18.389 28.3212 18.4278 28.2675 18.455 28.2078C18.4823 28.1481 18.4975 28.0837 18.4999 28.0181C18.5022 27.9525 18.4915 27.8871 18.4686 27.8257C18.4456 27.7642 18.4107 27.7079 18.3659 27.6599L11.6839 20.4999L18.3659 13.3409C18.4107 13.2929 18.4456 13.2366 18.4686 13.1752C18.4915 13.1137 18.5022 13.0483 18.4999 12.9827C18.4975 12.9171 18.4823 12.8527 18.455 12.793C18.4278 12.7333 18.389 12.6796 18.3409 12.6349H18.3399ZM26.2359 10.3799C27.1309 9.51591 27.7499 8.81191 28.0909 8.26791C28.52 7.6353 28.7489 6.88829 28.7479 6.12391C28.7479 5.24991 28.4479 4.52991 27.8509 3.96391C27.1899 3.32391 26.3149 3.00391 25.2269 3.00391C24.2669 3.00391 23.4519 3.25391 22.7799 3.75591C22.0109 4.31091 21.5579 5.07891 21.4199 6.05991H22.6829C22.7579 5.47291 22.9979 4.99891 23.4029 4.63591C23.8619 4.21991 24.4599 4.01191 25.1959 4.01191C25.8679 4.01191 26.4119 4.18291 26.8279 4.52391C27.2969 4.90791 27.5319 5.44691 27.5319 6.13891C27.5319 6.67291 27.3899 7.17091 27.1069 7.63591C26.8249 8.09991 26.2989 8.70991 25.5319 9.46791L21.6119 13.3399V14.4439H28.7149V13.3399H23.2119L26.2359 10.3799Z"/></svg>