<svg xmlns="http://www.w3.org/2000/svg" width="32" height="32" viewBox="0 0 32 32"><path d="M18.511 12.4529C18.4391 12.3854 18.3547 12.3328 18.2624 12.2981C18.1702 12.2634 18.072 12.2472 17.9735 12.2506C17.875 12.2539 17.7781 12.2767 17.6884 12.3176C17.5988 12.3585 17.5181 12.4167 17.451 12.4889L11 19.4019L4.54797 12.4889C4.48073 12.4169 4.39998 12.3589 4.31032 12.3182C4.22066 12.2774 4.12385 12.2547 4.02542 12.2514C3.92699 12.248 3.82887 12.2641 3.73665 12.2987C3.64443 12.3333 3.55993 12.3857 3.48797 12.4529C3.416 12.5201 3.35798 12.6009 3.31723 12.6906C3.27647 12.7802 3.25378 12.877 3.25043 12.9755C3.24709 13.0739 3.26317 13.172 3.29775 13.2642C3.33232 13.3564 3.38473 13.4409 3.45197 13.5129L9.97497 20.4999L3.45197 27.4899C3.31631 27.6351 3.24389 27.8283 3.25064 28.0269C3.25739 28.2255 3.34276 28.4132 3.48797 28.5489C3.63317 28.6846 3.82632 28.757 4.02492 28.7502C4.22352 28.7435 4.41131 28.6581 4.54697 28.5129L11 21.5999L17.453 28.5129C17.52 28.5852 17.6007 28.6435 17.6903 28.6845C17.78 28.7255 17.8769 28.7483 17.9755 28.7517C18.074 28.755 18.1722 28.7388 18.2645 28.704C18.3567 28.6692 18.4412 28.6165 18.513 28.5489C18.585 28.4817 18.643 28.4009 18.6838 28.3112C18.7245 28.2215 18.7471 28.1246 18.7504 28.0262C18.7536 27.9277 18.7374 27.8296 18.7027 27.7374C18.668 27.6452 18.6154 27.5607 18.548 27.4889L12.025 20.4999L18.547 13.5119C18.6143 13.44 18.6668 13.3555 18.7015 13.2633C18.7361 13.1711 18.7522 13.0729 18.7489 12.9744C18.7456 12.876 18.7228 12.7791 18.682 12.6895C18.6412 12.5998 18.583 12.5191 18.511 12.4519V12.4529ZM26.252 10.6039C27.222 9.68691 27.888 8.94591 28.252 8.37891C28.6917 7.73305 28.9256 6.96923 28.923 6.18791C28.923 5.29291 28.62 4.55091 28.011 3.96391C27.329 3.32391 26.417 3.00391 25.276 3.00391C24.273 3.00391 23.419 3.27091 22.716 3.80391C21.926 4.39091 21.467 5.17991 21.339 6.17191H22.956C23.019 5.62791 23.233 5.19091 23.596 4.85991C24.011 4.48691 24.561 4.29991 25.244 4.29991C25.851 4.29991 26.342 4.45491 26.715 4.76391C27.142 5.10591 27.355 5.58491 27.355 6.20391C27.355 6.71591 27.208 7.20391 26.915 7.66791C26.622 8.13191 26.07 8.75391 25.259 9.53191L21.612 13.0359V14.4439H28.875V13.0359H23.691L26.251 10.6039H26.252Z"/></svg>