<svg width="32" height="32" xmlns="http://www.w3.org/2000/svg"><path d="M7 6.25a3.25 3.25 0 0 0-3.25 3.251V19c0 1.933.861 2.997 1.864 3.437a.75.75 0 0 1 .405.939c-.205.575-.61 1.134-1.07 1.602a6.53 6.53 0 0 1-.753.658c.666.09 1.59.041 2.525-.332.82-.328 1.525-.721 2.236-1.117.273-.152.547-.305.829-.454.973-.517 2.02-.983 3.214-.983h12.003a3.248 3.248 0 0 0 3.247-3.25v-6a.75.75 0 0 1 1.5 0v6a4.748 4.748 0 0 1-4.747 4.75H13c-.806 0-1.576.31-2.51.807-.232.123-.475.258-.73.4-.734.41-1.566.873-2.482 1.24-1.4.56-2.8.562-3.75.34-.438-.103-.924-.286-1.218-.61-.163-.179-.358-.513-.24-.929.104-.373.4-.571.595-.669a4.737 4.737 0 0 0 1.642-1.409C3.068 22.576 2.25 21.07 2.25 19V9.501A4.751 4.751 0 0 1 7 4.75h11.5a.75.75 0 0 1 0 1.5H7Z"/><path d="m25.504 3.57-.543 1.57-.709-.245.704.26a1.096 1.096 0 0 1-.983.715h-1.536l1.172 1.008a1.145 1.145 0 0 1 .378 1.199l-.004.013-.505 1.566 1.413-.964a1.097 1.097 0 0 1 1.218 0l.006.004 1.408.96-.515-1.6-.004-.012a1.095 1.095 0 0 1 .36-1.146l1.198-1.027H27.05a1.096 1.096 0 0 1-.986-.716l-.004-.01-.556-1.575Zm-1.864.8.828-2.396.003-.007a1.096 1.096 0 0 1 2.057 0l.003.01.847 2.394H29.698a1.097 1.097 0 0 1 .65 1.943l-1.822 1.564.795 2.468.004.014a1.096 1.096 0 0 1-1.664 1.206l-.007-.004-2.154-1.47-2.161 1.474a1.096 1.096 0 0 1-1.664-1.206l.004-.014.796-2.466-1.824-1.566a1.097 1.097 0 0 1 .65-1.943h2.339Z"/></svg>