<svg width="32" height="32" viewBox="0 0 32 32" xmlns="http://www.w3.org/2000/svg">
<path d="M15.0011 29.9975C13.0811 29.9975 11.1811 29.5675 9.4411 28.7475C8.4111 29.3675 7.2611 29.7775 6.0711 29.9175C4.6811 30.0975 3.2511 29.9175 1.9411 29.4175C1.6611 29.2975 1.4511 29.1275 1.2911 28.9175C1.1411 28.7075 1.0411 28.4575 1.0111 28.2075C0.981098 27.9475 1.0111 27.6875 1.1111 27.4475C1.2111 27.1975 1.3811 26.9975 1.5811 26.8375C1.6211 26.8075 1.6711 26.7775 1.7211 26.7475C2.3311 26.4275 2.8611 25.9875 3.3011 25.4575C3.6411 25.0475 3.9111 24.5875 4.1111 24.0975C2.9011 22.2475 2.1911 20.1275 2.0311 17.9175C1.8611 15.5375 2.3511 13.1575 3.4411 11.0375C4.5311 8.9175 6.1911 7.1375 8.2311 5.8975C10.5811 4.4675 13.3911 3.8175 16.0811 4.0475C16.6311 4.0875 17.0411 4.5775 17.0011 5.1275C16.9611 5.6775 16.4811 6.0875 15.9211 6.0475C13.6511 5.8675 11.2711 6.4075 9.2811 7.6175C7.5611 8.6675 6.1511 10.1775 5.2311 11.9675C4.3011 13.7575 3.8911 15.7775 4.0311 17.7875C4.1711 19.8075 4.8711 21.7375 6.0411 23.3875C6.2211 23.6375 6.2711 23.9575 6.1811 24.2575C5.9011 25.1675 5.4611 26.0075 4.8511 26.7475C4.5011 27.1675 4.1211 27.5475 3.6911 27.8775C4.3811 28.0175 5.1111 28.0475 5.8211 27.9575C6.8911 27.8275 7.9211 27.4275 8.8011 26.7975C9.1111 26.5775 9.5111 26.5475 9.8511 26.7275C11.5211 27.6175 13.4111 28.0575 15.3011 28.0075C17.1911 27.9575 19.0511 27.4175 20.6711 26.4375C22.2911 25.4575 23.6411 24.0775 24.5811 22.4275C25.5111 20.7775 26.0011 18.9075 26.0011 17.0175C26.0011 16.7175 25.9911 16.4175 25.9611 16.1175C25.9211 15.5675 26.3311 15.0875 26.8811 15.0375C27.4311 14.9975 27.9111 15.4075 27.9611 15.9575C27.9911 16.3075 28.0011 16.6575 28.0011 17.0175C28.0011 19.2575 27.4211 21.4675 26.3211 23.4175C25.2211 25.3675 23.6211 27.0075 21.7111 28.1575C19.7911 29.3075 17.6011 29.9475 15.3611 30.0175C15.2411 30.0175 15.1311 30.0175 15.0111 30.0175L15.0011 29.9975ZM27.1011 13.9975C27.3811 13.9975 27.6511 13.8975 27.8911 13.7375C28.1211 13.5675 28.2911 13.3475 28.3911 13.0675C28.4811 12.8075 28.4911 12.5175 28.4011 12.2075L27.5511 9.5875L29.4711 7.9375C29.6911 7.7575 29.8511 7.5175 29.9411 7.2475C30.0211 6.9775 30.0211 6.6875 29.9411 6.4175C29.8511 6.1475 29.6911 5.9175 29.4611 5.7475C29.2311 5.5775 28.9611 5.4775 28.6311 5.4675H26.2011L25.2911 2.9075C25.1911 2.6475 25.0211 2.4175 24.7811 2.2475C24.3111 1.9175 23.6711 1.9175 23.1911 2.2475C22.9511 2.4175 22.7811 2.6475 22.6811 2.9175L21.8011 5.4575H19.3111C19.0211 5.4675 18.7511 5.5675 18.5311 5.7375C18.3011 5.9075 18.1411 6.1375 18.0511 6.4075C17.9611 6.6775 17.9611 6.9575 18.0511 7.2375C18.1311 7.5075 18.2911 7.7475 18.4911 7.8975L20.4411 9.5775L19.5811 12.2375C19.5111 12.5075 19.5211 12.7875 19.6111 13.0675C19.7011 13.3375 19.8811 13.5575 20.1011 13.7275C20.3311 13.8975 20.6011 13.9875 20.8911 13.9875C21.1811 13.9875 21.4511 13.9175 21.6911 13.7475L23.9911 12.1775L26.3011 13.7575C26.5311 13.9075 26.7911 13.9875 27.0711 13.9875H27.1011V13.9975ZM23.2211 10.2975L22.0611 11.0875L22.4811 9.7875C22.5611 9.5075 22.5511 9.2175 22.4611 8.9575C22.3711 8.6875 22.2111 8.4475 22.0111 8.2975L21.0411 7.4575H22.3011C22.5811 7.4475 22.8411 7.3575 23.0611 7.1975C23.2811 7.0375 23.4511 6.8175 23.5511 6.5575L24.0011 5.2475L24.4611 6.5575C24.5511 6.8175 24.7211 7.0375 24.9511 7.1975C25.1711 7.3575 25.4311 7.4475 25.7511 7.4575H26.9511L25.9811 8.2875C25.7711 8.4575 25.6111 8.6875 25.5211 8.9475C25.4411 9.2075 25.4311 9.4875 25.5211 9.7875L25.9411 11.0875L24.7711 10.2875C24.5411 10.1375 24.2811 10.0575 24.0011 10.0575C23.7211 10.0575 23.4611 10.1375 23.2211 10.2975V10.2975Z" fill="black"/>
</svg>
