<svg width="32" height="32" viewBox="0 0 32 32" xmlns="http://www.w3.org/2000/svg">
<path d="M20.3385 4.9674C20.4615 4.9674 20.4921 4.80466 20.3764 4.76314C18.9512 4.25184 17.4359 3.98936 15.8967 4.00033C12.7122 4.02302 9.64687 5.21461 7.28307 7.34869C4.91927 9.48278 3.42164 12.4107 3.07463 15.5764C2.74667 18.5684 3.46813 21.5757 5.10628 24.088C4.90933 24.5807 4.63777 25.0413 4.30036 25.4532C3.86551 25.9841 3.32987 26.4236 2.7243 26.7465C2.67524 26.7727 2.62845 26.8029 2.58441 26.8368C2.379 26.9951 2.21823 27.2039 2.11765 27.4427C2.01705 27.6815 1.98 27.9423 2.01023 28.1998C2.04044 28.4573 2.13685 28.7025 2.29006 28.9116C2.44336 29.1208 2.6482 29.2865 2.88441 29.3928C2.90183 29.4006 2.91948 29.408 2.93733 29.4148C4.25357 29.9186 5.67382 30.0899 7.07212 29.9133C8.26705 29.7624 9.41436 29.3616 10.4403 28.7394C13.1275 30.0088 16.1754 30.321 19.0741 29.6125C22.1676 28.8563 24.8757 26.9903 26.6839 24.3688C28.4921 21.7473 29.2745 18.5529 28.8824 15.3925C28.8659 15.2596 28.8474 15.1271 28.8269 14.9951C28.7769 14.6735 28.4387 14.4933 28.1133 14.4996C27.7299 14.5072 27.3522 14.3976 27.0316 14.184L27.0247 14.1794L25.5635 13.1828C25.2236 12.951 24.7764 12.951 24.4365 13.1828L22.9753 14.1794L22.9684 14.184C22.6478 14.3976 22.2701 14.5072 21.8867 14.4996C21.503 14.4921 21.13 14.3676 20.8182 14.1418C20.5068 13.9163 20.2717 13.6009 20.1447 13.2377C20.0177 12.8746 20.0048 12.4813 20.1079 12.1106L20.1161 12.0812L20.868 9.75082L19.1836 8.30377C18.8983 8.06783 18.6886 7.75294 18.5811 7.39841C18.4693 7.02984 18.4732 6.63592 18.5921 6.26959C18.7109 5.90385 18.9389 5.58262 19.2462 5.34975C19.553 5.11726 19.9235 4.9843 20.308 4.96864L20.3385 4.9674Z"/>
<path d="M23.6138 6.21643L24.6382 3.25163C24.6654 3.1778 24.7146 3.11409 24.7791 3.06908C24.8437 3.02407 24.9205 3 24.9992 3C25.0779 3 25.1548 3.02407 25.2193 3.06908C25.2839 3.11409 25.3331 3.1778 25.3603 3.25163L26.4081 6.21643C26.4345 6.28782 26.4815 6.34978 26.5431 6.39447C26.6047 6.43916 26.6782 6.4645 26.7543 6.4674H29.631C29.7095 6.47059 29.7852 6.49775 29.8478 6.5452C29.9104 6.59266 29.957 6.65822 29.9812 6.73291C30.0055 6.80761 30.0063 6.88789 29.9835 6.96305C29.9607 7.0382 29.9154 7.10462 29.8537 7.15329L27.6049 9.08315C27.5452 9.13022 27.5008 9.19382 27.4773 9.26607C27.4539 9.33833 27.4523 9.41595 27.4729 9.48907L28.4469 12.5126C28.468 12.5882 28.4653 12.6684 28.4394 12.7425C28.4135 12.8165 28.3656 12.8809 28.302 12.9269C28.2385 12.9729 28.1623 12.9984 28.0839 12.9999C28.0054 13.0015 27.9283 12.979 27.863 12.9355L25.2137 11.1286C25.1504 11.0864 25.0761 11.0639 25 11.0639C24.9239 11.0639 24.8496 11.0864 24.7863 11.1286L22.137 12.9355C22.0717 12.979 21.9946 13.0015 21.9161 12.9999C21.8377 12.9984 21.7615 12.9729 21.698 12.9269C21.6344 12.8809 21.5865 12.8165 21.5606 12.7425C21.5347 12.6684 21.532 12.5882 21.5531 12.5126L22.5171 9.52483C22.5408 9.4412 22.5391 9.35241 22.5122 9.26973C22.4854 9.18706 22.4346 9.11423 22.3663 9.06044L20.1463 7.15329C20.0846 7.10462 20.0393 7.0382 20.0165 6.96305C19.9937 6.88789 19.9945 6.80761 20.0188 6.73291C20.043 6.65822 20.0896 6.59266 20.1522 6.5452C20.2148 6.49775 20.2905 6.47059 20.369 6.4674H23.2687C23.3446 6.46427 23.4179 6.43877 23.4793 6.3941C23.5407 6.34942 23.5875 6.28764 23.6138 6.21643Z"/>
</svg>
