<svg width="32" height="32" xmlns="http://www.w3.org/2000/svg"><path d="M17.416 6.5h-11.2c-2.76 0-5 2.24-5 5.001V21c0 2.025.762 3.555 1.953 4.472a4.49 4.49 0 0 1-1.4 1.133c-.22.11-.59.352-.724.825-.149.53.102.951.296 1.166.348.382.898.58 1.347.684.996.234 2.449.23 3.9-.352.932-.372 1.786-.848 2.523-1.259.251-.14.49-.273.712-.39.93-.494 1.653-.779 2.394-.779h12.002a4.998 4.998 0 0 0 4.998-5V15a.997.997 0 0 0-.038-.274 2.496 2.496 0 0 1-3.561.855l-.015-.01L24 14.479l-1.613 1.1-.005.004a2.497 2.497 0 0 1-3.789-2.747l.012-.042.603-1.87L17.9 9.798a2.496 2.496 0 0 1-.484-3.299Z"/><path d="m23.45 3.89-.771 2.23h-2.15l-.02.001a1.346 1.346 0 0 0-.802 2.385l1.695 1.456-.745 2.312-.006.02a1.346 1.346 0 0 0 2.043 1.48l2.023-1.379 2.013 1.373.01.006a1.346 1.346 0 0 0 2.043-1.48l-.006-.02-.745-2.314 1.694-1.454a1.347 1.347 0 0 0-.8-2.385H26.77l-.787-2.228-.005-.012a1.347 1.347 0 0 0-2.526 0l-.004.01Z"/></svg>