<svg width="32" height="32" viewBox="0 0 32 32" fill="none" xmlns="http://www.w3.org/2000/svg">
<path d="M25.0002 8.25H7.00024C5.7409 8.25143 4.53355 8.75233 3.64307 9.64282C2.75258 10.5333 2.25167 11.7407 2.25024 13V19C2.25167 20.2593 2.75258 21.4667 3.64307 22.3572C4.53355 23.2477 5.7409 23.7486 7.00024 23.75H25.0002C26.2596 23.7486 27.4669 23.2477 28.3574 22.3572C29.2479 21.4667 29.7488 20.2593 29.7502 19V13C29.7488 11.7407 29.2479 10.5333 28.3574 9.64282C27.4669 8.75233 26.2596 8.25143 25.0002 8.25ZM28.2502 19C28.2492 19.8616 27.9065 20.6877 27.2972 21.297C26.688 21.9063 25.8619 22.249 25.0002 22.25H7.00024C6.1386 22.249 5.31253 21.9063 4.70325 21.297C4.09397 20.6877 3.75124 19.8616 3.75024 19V13C3.75124 12.1384 4.09397 11.3123 4.70325 10.703C5.31253 10.0937 6.1386 9.751 7.00024 9.75H25.0002C25.8619 9.751 26.688 10.0937 27.2972 10.703C27.9065 11.3123 28.2492 12.1384 28.2502 13V19Z" fill="black"/>
<path d="M18.0002 14.25H14.0002C13.2709 14.25 12.5714 14.5397 12.0557 15.0555C11.54 15.5712 11.2502 16.2707 11.2502 17C11.2502 17.7293 11.54 18.4288 12.0557 18.9445C12.5714 19.4603 13.2709 19.75 14.0002 19.75H18.0002C18.7296 19.75 19.4291 19.4603 19.9448 18.9445C20.4605 18.4288 20.7502 17.7293 20.7502 17C20.7502 16.2707 20.4605 15.5712 19.9448 15.0555C19.4291 14.5397 18.7296 14.25 18.0002 14.25ZM18.0002 18.25H14.0002C13.6687 18.25 13.3508 18.1183 13.1164 17.8839C12.8819 17.6495 12.7502 17.3315 12.7502 17C12.7502 16.6685 12.8819 16.3505 13.1164 16.1161C13.3508 15.8817 13.6687 15.75 14.0002 15.75H18.0002C18.3318 15.75 18.6497 15.8817 18.8841 16.1161C19.1185 16.3505 19.2502 16.6685 19.2502 17C19.2502 17.3315 19.1185 17.6495 18.8841 17.8839C18.6497 18.1183 18.3318 18.25 18.0002 18.25Z" fill="black"/>
<path d="M24.4999 19.75C25.1903 19.75 25.7499 19.1903 25.7499 18.5C25.7499 17.8096 25.1903 17.25 24.4999 17.25C23.8096 17.25 23.2499 17.8096 23.2499 18.5C23.2499 19.1903 23.8096 19.75 24.4999 19.75Z" fill="black"/>
</svg>
