<svg xmlns="http://www.w3.org/2000/svg" width="32" height="32" viewBox="0 0 32 32"><path d="M25 8.25H7C5.74063 8.25132 4.53322 8.75219 3.6427 9.6427C2.75219 10.5332 2.25132 11.7406 2.25 13V19C2.25159 20.2593 2.75254 21.4665 3.643 22.357C4.53345 23.2475 5.74071 23.7484 7 23.75H25C26.2594 23.7487 27.4668 23.2478 28.3573 22.3573C29.2478 21.4668 29.7487 20.2594 29.75 19V13C29.7487 11.7406 29.2478 10.5332 28.3573 9.6427C27.4668 8.75219 26.2594 8.25132 25 8.25ZM28.25 19C28.2489 19.8616 27.9062 20.6877 27.2969 21.2969C26.6877 21.9062 25.8616 22.2489 25 22.25H7C6.13837 22.2489 5.31234 21.9062 4.70307 21.2969C4.09381 20.6877 3.75106 19.8616 3.75 19V13C3.75106 12.1384 4.09381 11.3123 4.70307 10.7031C5.31234 10.0938 6.13837 9.75106 7 9.75H25C25.8617 9.75079 26.6879 10.0935 27.2972 10.7028C27.9065 11.3121 28.2492 12.1383 28.25 13V19Z M18 14.25H14C13.2707 14.25 12.5712 14.5397 12.0555 15.0555C11.5397 15.5712 11.25 16.2707 11.25 17C11.25 17.7293 11.5397 18.4288 12.0555 18.9445C12.5712 19.4603 13.2707 19.75 14 19.75H18C18.7293 19.75 19.4288 19.4603 19.9445 18.9445C20.4603 18.4288 20.75 17.7293 20.75 17C20.75 16.2707 20.4603 15.5712 19.9445 15.0555C19.4288 14.5397 18.7293 14.25 18 14.25ZM18 18.25H14C13.6685 18.25 13.3505 18.1183 13.1161 17.8839C12.8817 17.6495 12.75 17.3315 12.75 17C12.75 16.6685 12.8817 16.3505 13.1161 16.1161C13.3505 15.8817 13.6685 15.75 14 15.75H18C18.3315 15.75 18.6495 15.8817 18.8839 16.1161C19.1183 16.3505 19.25 16.6685 19.25 17C19.25 17.3315 19.1183 17.6495 18.8839 17.8839C18.6495 18.1183 18.3315 18.25 18 18.25ZM24.5 19.75C24.8315 19.75 25.1495 19.6183 25.3839 19.3839C25.6183 19.1495 25.75 18.8315 25.75 18.5C25.75 18.1685 25.6183 17.8505 25.3839 17.6161C25.1495 17.3817 24.8315 17.25 24.5 17.25C24.1685 17.25 23.8505 17.3817 23.6161 17.6161C23.3817 17.8505 23.25 18.1685 23.25 18.5C23.25 18.8315 23.3817 19.1495 23.6161 19.3839C23.8505 19.6183 24.1685 19.75 24.5 19.75Z"/></svg>