<svg width="32" height="32" viewBox="0 0 32 32" fill="none" xmlns="http://www.w3.org/2000/svg">
<path d="M25 8.49985H7C5.80692 8.50115 4.66309 8.97567 3.81946 9.8193C2.97582 10.6629 2.5013 11.8068 2.5 12.9999V18.9998C2.5013 20.1929 2.97583 21.3368 3.81946 22.1804C4.66309 23.024 5.80693 23.4985 7 23.4998H25C26.1931 23.4985 27.3369 23.024 28.1805 22.1804C29.0242 21.3368 29.4987 20.1929 29.5 18.9998V12.9999C29.4987 11.8068 29.0242 10.6629 28.1805 9.81931C27.3369 8.97568 26.1931 8.50115 25 8.49985ZM28.5 18.9998C28.4989 19.9278 28.1298 20.8173 27.4736 21.4735C26.8175 22.1296 25.9279 22.4987 25 22.4998H7C6.07209 22.4987 5.1825 22.1296 4.52637 21.4735C3.87023 20.8173 3.50112 19.9278 3.5 18.9998V12.9999C3.50112 12.0719 3.87023 11.1823 4.52637 10.5262C5.1825 9.87008 6.07209 9.50097 7 9.49985H25C25.9279 9.50098 26.8175 9.87008 27.4736 10.5262C28.1298 11.1824 28.4989 12.0719 28.5 12.9999V18.9998Z" fill="black"/>
<path d="M24.4999 19.5C25.0522 19.5 25.4999 19.0523 25.4999 18.5C25.4999 17.9477 25.0522 17.5 24.4999 17.5C23.9476 17.5 23.4999 17.9477 23.4999 18.5C23.4999 19.0523 23.9476 19.5 24.4999 19.5Z" fill="black"/>
</svg>
