<svg xmlns="http://www.w3.org/2000/svg" width="32" height="32" viewBox="0 0 32 32"><path d="M25 8H7C5.67441 8.00159 4.40356 8.52888 3.46622 9.46622C2.52888 10.4036 2.00159 11.6744 2 13V19C2.00159 20.3256 2.52888 21.5964 3.46622 22.5338C4.40356 23.4711 5.67441 23.9984 7 24H25C26.3256 23.9984 27.5964 23.4711 28.5338 22.5338C29.4711 21.5964 29.9984 20.3256 30 19V13C29.9984 11.6744 29.4711 10.4036 28.5338 9.46622C27.5964 8.52888 26.3256 8.00159 25 8ZM28 19C27.9992 19.7954 27.6829 20.558 27.1204 21.1204C26.558 21.6829 25.7954 21.9992 25 22H7C6.20459 21.9992 5.44199 21.6829 4.87956 21.1204C4.31712 20.558 4.00079 19.7954 4 19V13C4.00079 12.2046 4.31712 11.442 4.87956 10.8796C5.44199 10.3171 6.20459 10.0008 7 10H25C25.7953 10.0011 26.5578 10.3175 27.1202 10.8798C27.6825 11.4422 27.9989 12.2047 28 13V19Z M24.5 20C24.8978 20 25.2794 19.842 25.5607 19.5607C25.842 19.2794 26 18.8978 26 18.5C26 18.1022 25.842 17.7206 25.5607 17.4393C25.2794 17.158 24.8978 17 24.5 17C24.1022 17 23.7206 17.158 23.4393 17.4393C23.158 17.7206 23 18.1022 23 18.5C23 18.8978 23.158 19.2794 23.4393 19.5607C23.7206 19.842 24.1022 20 24.5 20Z"/></svg>