<svg width="32" height="32" viewBox="0 0 32 32" fill="none" xmlns="http://www.w3.org/2000/svg">
<path d="M25 7.99985H7C5.6744 8.0014 4.40353 8.52869 3.46618 9.46603C2.52884 10.4034 2.00156 11.6742 2 12.9998V18.9998C2.00156 20.3255 2.52884 21.5963 3.46619 22.5337C4.40353 23.471 5.6744 23.9983 7 23.9998H25C26.3256 23.9983 27.5965 23.471 28.5338 22.5337C29.4712 21.5963 29.9984 20.3255 30 18.9998V12.9998C29.9984 11.6742 29.4712 10.4034 28.5338 9.46604C27.5965 8.52869 26.3256 8.00141 25 7.99985ZM28 18.9998C27.9991 19.7952 27.6828 20.5578 27.1204 21.1202C26.5579 21.6826 25.7954 21.999 25 21.9998H7C6.20462 21.999 5.44206 21.6826 4.87964 21.1202C4.31722 20.5578 4.00087 19.7952 4 18.9998V12.9998C4.00087 12.2045 4.31722 11.4419 4.87964 10.8795C5.44206 10.3171 6.20462 10.0007 7 9.99985H25C25.7954 10.0007 26.5579 10.3171 27.1204 10.8795C27.6828 11.4419 27.9991 12.2045 28 12.9998V18.9998Z" fill="black"/>
<path d="M24.4999 20C25.3284 20 25.9999 19.3284 25.9999 18.5C25.9999 17.6715 25.3284 17 24.4999 17C23.6715 17 22.9999 17.6715 22.9999 18.5C22.9999 19.3284 23.6715 20 24.4999 20Z" fill="black"/>
</svg>
