<svg width="32" height="32" viewBox="0 0 32 32" fill="none" xmlns="http://www.w3.org/2000/svg">
<path d="M25 9.49965H7C5.80693 9.50095 4.66309 9.97548 3.81946 10.8191C2.97583 11.6627 2.5013 12.8066 2.5 13.9997V17.9996C2.5013 19.1927 2.97583 20.3366 3.81946 21.1802C4.66309 22.0238 5.80693 22.4983 7 22.4996H25C26.1931 22.4983 27.3369 22.0238 28.1805 21.1802C29.0242 20.3366 29.4987 19.1927 29.5 17.9996V13.9997C29.4987 12.8066 29.0242 11.6627 28.1805 10.8191C27.3369 9.97547 26.1931 9.50095 25 9.49965ZM7 21.4996C6.4321 21.4956 5.87395 21.3517 5.37494 21.0806L7.78418 18.0641C7.92456 17.8878 8.10295 17.7454 8.30603 17.6477C8.50912 17.55 8.73165 17.4994 8.95703 17.4996H23.044C23.2692 17.4994 23.4916 17.55 23.6945 17.6477C23.8974 17.7455 24.0756 17.8878 24.2158 18.0641L26.6257 21.0802C26.1265 21.3516 25.5681 21.4956 25 21.4996H7ZM28.5 17.9996C28.4998 18.4659 28.4061 18.9273 28.2244 19.3567C28.0427 19.786 27.7767 20.1746 27.4421 20.4993L24.9971 17.4391C24.7633 17.1456 24.4662 16.9087 24.128 16.746C23.7898 16.5834 23.4193 16.4991 23.044 16.4996H8.95703C8.5816 16.499 8.21088 16.5832 7.87253 16.7459C7.53417 16.9085 7.23691 17.1455 7.00293 17.4391L4.55841 20.4997C4.22372 20.175 3.9576 19.7864 3.77579 19.357C3.59399 18.9275 3.50021 18.466 3.5 17.9996V13.9997C3.50112 13.0717 3.87023 12.1821 4.52637 11.526C5.1825 10.8699 6.07209 10.5008 7 10.4997H25C25.9279 10.5008 26.8175 10.8699 27.4736 11.526C28.1298 12.1821 28.4989 13.0717 28.5 13.9997V17.9996Z" fill="black"/>
</svg>
