<svg xmlns="http://www.w3.org/2000/svg" width="32" height="32" viewBox="0 0 32 32"><path d="M25 9H7C5.67441 9.00159 4.40356 9.52888 3.46622 10.4662C2.52888 11.4036 2.00159 12.6744 2 14V18C2.00159 19.3256 2.52888 20.5964 3.46622 21.5338C4.40356 22.4711 5.67441 22.9984 7 23H25C26.3256 22.9984 27.5964 22.4711 28.5338 21.5338C29.4711 20.5964 29.9984 19.3256 30 18V14C29.9984 12.6744 29.4711 11.4036 28.5338 10.4662C27.5964 9.52888 26.3256 9.00159 25 9ZM4 14C4.00079 13.2046 4.31712 12.442 4.87956 11.8796C5.44199 11.3171 6.20459 11.0008 7 11H25C25.7953 11.0011 26.5578 11.3175 27.1202 11.8798C27.6825 12.4422 27.9989 13.2047 28 14V18C28 18.614 27.81 19.213 27.455 19.715L25.387 17.127C25.1066 16.7748 24.7502 16.4905 24.3445 16.2953C23.9388 16.1002 23.4942 15.9992 23.044 16H8.957C8.50639 15.9992 8.06142 16.1002 7.65535 16.2955C7.24928 16.4908 6.89261 16.7754 6.612 17.128L4.546 19.715C4.19147 19.2133 4.00076 18.6143 4 18V14ZM7 21C6.72235 20.996 6.44664 20.9529 6.181 20.872L8.174 18.377C8.26774 18.2593 8.38684 18.1643 8.52241 18.099C8.65798 18.0337 8.80653 17.9999 8.957 18H23.044C23.194 18.0001 23.3421 18.034 23.4773 18.0991C23.6125 18.1642 23.7313 18.2588 23.825 18.376L25.819 20.871C25.5534 20.9522 25.2777 20.9957 25 21H7Z"/></svg>