<svg width="32" height="32" viewBox="0 0 32 32" fill="none" xmlns="http://www.w3.org/2000/svg">
<path d="M25 5.49987H20.5048L20.5 5.49887L20.4952 5.49987H7C5.80693 5.50117 4.66309 5.9757 3.81946 6.81933C2.97583 7.66296 2.5013 8.8068 2.5 9.99987V21.9999C2.5013 23.1929 2.97583 24.3368 3.81946 25.1804C4.66309 26.024 5.80693 26.4986 7 26.4999H25C26.1931 26.4986 27.3369 26.024 28.1805 25.1804C29.0242 24.3368 29.4987 23.1929 29.5 21.9999V9.99987C29.4987 8.8068 29.0242 7.66296 28.1805 6.81933C27.3369 5.9757 26.1931 5.50117 25 5.49987ZM12 18.9999V12.9989H20V18.9999H12ZM20 19.9999V25.4999H12V19.9999H20ZM3.5 12.9989H11V18.9999H3.5V12.9989ZM12 11.9989V6.49987H20V11.9989H12ZM21 12.9989H28.5V18.9999H21V12.9989ZM28.5 9.99987V11.9989H21V6.49987H25C25.9279 6.50099 26.8175 6.8701 27.4736 7.52624C28.1298 8.18237 28.4989 9.07196 28.5 9.99987ZM7 6.49987H11V11.9989H3.5V9.99987C3.50113 9.07196 3.87024 8.18237 4.52637 7.52624C5.1825 6.87011 6.07209 6.501 7 6.49987ZM3.5 21.9999V19.9999H11V25.4999H7C6.07209 25.4987 5.1825 25.1296 4.52637 24.4735C3.87023 23.8174 3.50112 22.9278 3.5 21.9999ZM25 25.4999H21V19.9999H28.5V21.9999C28.4989 22.9278 28.1298 23.8174 27.4736 24.4735C26.8175 25.1296 25.9279 25.4987 25 25.4999Z" fill="black"/>
</svg>
