<svg width="32" height="32" viewBox="0 0 32 32" fill="none" xmlns="http://www.w3.org/2000/svg">
<path d="M24.9998 5.25H6.99976C5.74042 5.25143 4.53307 5.75233 3.64258 6.64282C2.75209 7.53331 2.25119 8.74066 2.24976 10V22C2.25119 23.2593 2.75209 24.4667 3.64258 25.3572C4.53307 26.2477 5.74042 26.7486 6.99976 26.75H24.9998C26.2591 26.7486 27.4664 26.2477 28.3569 25.3572C29.2474 24.4667 29.7483 23.2593 29.7498 22V10C29.7483 8.74066 29.2474 7.53331 28.3569 6.64282C27.4664 5.75233 26.2591 5.25143 24.9998 5.25ZM3.74976 22V10C3.75075 9.13835 4.09348 8.31228 4.70276 7.703C5.31204 7.09373 6.13811 6.751 6.99976 6.75H20.2654V25.25H6.99976C6.13811 25.249 5.31204 24.9063 4.70276 24.297C4.09348 23.6877 3.75075 22.8616 3.74976 22ZM28.2498 22C28.2488 22.8616 27.906 23.6877 27.2968 24.297C26.6875 24.9063 25.8614 25.249 24.9998 25.25H21.7654V6.75H24.9998C25.8614 6.751 26.6875 7.09372 27.2968 7.703C27.906 8.31228 28.2488 9.13835 28.2498 10V22Z" fill="black"/>
<path d="M24.9998 14.25C24.8009 14.2501 24.6101 14.3291 24.4695 14.4697C24.3288 14.6104 24.2498 14.8011 24.2498 15V17C24.2498 17.1989 24.3288 17.3897 24.4694 17.5303C24.6101 17.671 24.8008 17.75 24.9998 17.75C25.1987 17.75 25.3894 17.671 25.5301 17.5303C25.6707 17.3897 25.7498 17.1989 25.7498 17V15C25.7497 14.8011 25.6707 14.6104 25.53 14.4697C25.3894 14.3291 25.1987 14.2501 24.9998 14.25Z" fill="black"/>
</svg>
