<svg xmlns="http://www.w3.org/2000/svg" width="32" height="32" viewBox="0 0 32 32"><path d="M4.75 8.5C4.75 5.32436 7.32436 2.75 10.5 2.75C13.6756 2.75 16.25 5.32436 16.25 8.5C16.25 8.91421 16.5858 9.25 17 9.25C17.4142 9.25 17.75 8.91421 17.75 8.5C17.75 4.49594 14.5041 1.25 10.5 1.25C6.49594 1.25 3.25 4.49594 3.25 8.5C3.25 12.5041 6.49594 15.75 10.5 15.75C10.9142 15.75 11.25 15.4142 11.25 15C11.25 14.5858 10.9142 14.25 10.5 14.25C7.32436 14.25 4.75 11.6756 4.75 8.5ZM10.8341 5.85828C9.17647 5.52664 7.67243 7.01776 8.07941 8.69669C8.19431 9.17071 8.43755 9.60392 8.78243 9.94881L14.0889 15.2553L10.4556 18.8887C8.60057 20.7437 8.60057 23.7512 10.4556 25.6062L13.5804 28.7311C14.8837 30.0343 16.6513 30.7665 18.4943 30.7665H18.8122C22.8496 30.7665 26.2267 27.7 26.6149 23.6813C26.7092 22.7059 26.661 21.7219 26.472 20.7604L24.3358 9.89553C24.2086 9.2487 23.6415 8.78226 22.9823 8.78226C21.2132 8.78226 19.845 10.3337 20.0662 12.0889L20.2559 13.5938L20.3969 14.7805L12.2082 6.59188C11.8328 6.21639 11.3503 5.96156 10.8341 5.85828ZM9.53719 8.34332C9.39725 7.766 9.92097 7.20531 10.5398 7.32913C10.7702 7.37522 10.9847 7.48964 11.1476 7.65254L20.8668 17.3718C21.0928 17.5978 21.4371 17.6557 21.7246 17.5162C22.0121 17.3767 22.1796 17.0703 22.1419 16.7529L21.7448 13.4115L21.5545 11.9013C21.4503 11.0748 22.0659 10.3406 22.8837 10.2856L25.0001 21.0498C25.1611 21.8686 25.2021 22.7064 25.1219 23.537C24.8079 26.7867 22.077 29.2665 18.8122 29.2665L18.4943 29.2665C17.0491 29.2665 15.663 28.6924 14.6411 27.6704L11.5162 24.5455C10.247 23.2763 10.247 21.2185 11.5162 19.9493L15.6799 15.7856C15.9728 15.4927 15.9728 15.0179 15.6799 14.725L9.84309 8.88815C9.69303 8.73808 9.58719 8.54958 9.53719 8.34332Z"/></svg>