<svg xmlns="http://www.w3.org/2000/svg" width="32" height="32" viewBox="0 0 32 32"><path d="M5 8.5C5 5.46243 7.46243 3 10.5 3C13.2489 3 15.5284 5.01762 15.9353 7.6526C16.0195 8.19842 16.5303 8.57257 17.0762 8.48829C17.622 8.40401 17.9961 7.89321 17.9118 7.3474C17.3567 3.7522 14.2507 1 10.5 1C6.35786 1 3 4.35786 3 8.5C3 12.0477 5.46234 15.0179 8.77011 15.7993C9.3076 15.9262 9.84625 15.5935 9.97322 15.056C10.1002 14.5185 9.76738 13.9798 9.22989 13.8529C6.80426 13.2799 5 11.0994 5 8.5ZM10.8732 5.6216C8.97827 5.47916 7.41906 7.09161 7.62501 8.98073C7.71008 9.76105 8.059 10.4889 8.61404 11.044L13.5134 15.9434L10.7639 18.6929C8.81132 20.6455 8.81132 23.8113 10.7639 25.7639L13.8888 28.8888C15.2389 30.2389 17.0701 30.9974 18.9795 30.9974H19.2973C23.4635 30.9974 26.9483 27.8331 27.3489 23.6863C27.4455 22.6867 27.3962 21.6785 27.2024 20.6931L25.0662 9.82826C24.916 9.0642 24.2461 8.51323 23.4675 8.51323C21.5479 8.51323 20.0633 10.1966 20.3033 12.1011L20.493 13.606L20.5486 14.0745L13.1079 6.63382C12.519 6.04485 11.7383 5.68662 10.9077 5.62419L10.8732 5.6216ZM9.61323 8.76397C9.54284 8.11836 10.0757 7.56729 10.7233 7.61597L10.7578 7.61856C11.1111 7.64512 11.4432 7.7975 11.6937 8.04804L21.1752 17.5295C21.4765 17.8308 21.9356 17.9081 22.319 17.7221C22.7023 17.536 22.9256 17.1275 22.8753 16.7044L22.4782 13.3629L22.2876 11.851C22.211 11.2431 22.6057 10.6956 23.17 10.5506L25.24 21.079C25.3963 21.874 25.4361 22.6875 25.3582 23.4939C25.0566 26.6155 22.4334 28.9974 19.2973 28.9974L18.9795 28.9974C17.6005 28.9974 16.2781 28.4497 15.303 27.4746L12.1782 24.3497C11.0066 23.1782 11.0066 21.2787 12.1782 20.1071L15.6348 16.6505C16.0253 16.26 16.0253 15.6268 15.6348 15.2363L10.0283 9.62978C9.79534 9.39686 9.64893 9.09142 9.61323 8.76397Z"/></svg>