<svg width="32" height="32" viewBox="0 0 32 32" fill="none" xmlns="http://www.w3.org/2000/svg">
<path d="M28.9997 16.4997C28.934 16.4997 28.869 16.5126 28.8083 16.5377C28.7476 16.5628 28.6925 16.5996 28.646 16.6461C28.5996 16.6925 28.5628 16.7476 28.5376 16.8083C28.5125 16.869 28.4996 16.934 28.4997 16.9997V21.5554C28.5538 22.5414 28.2165 23.5089 27.5611 24.2475C26.9057 24.9862 25.9851 25.4362 24.9997 25.4997H22.3807C22.1458 24.4236 21.6323 23.4286 20.8915 22.6136C20.1506 21.7986 19.2085 21.1927 18.1597 20.8566C18.8873 20.3897 19.4441 19.6997 19.7467 18.8899C20.0492 18.0801 20.0813 17.194 19.8381 16.3644C19.5948 15.5349 19.0893 14.8064 18.3974 14.2882C17.7054 13.77 16.8642 13.4899 15.9997 13.4899C15.1351 13.4899 14.2939 13.77 13.6019 14.2882C12.91 14.8064 12.4045 15.5349 12.1613 16.3644C11.918 17.194 11.9501 18.0801 12.2527 18.8899C12.5552 19.6997 13.112 20.3897 13.8397 20.8566C12.7908 21.1927 11.8487 21.7986 11.1079 22.6136C10.367 23.4286 9.85342 24.424 9.61859 25.5001L6.99966 25.4997C6.0142 25.4362 5.09366 24.9862 4.43824 24.2475C3.78281 23.5089 3.4455 22.5414 3.49966 21.5554V10.444C3.4455 9.45798 3.78282 8.49046 4.43824 7.75183C5.09367 7.01319 6.0142 6.56319 6.99966 6.49967H13.9997C14.1323 6.49967 14.2594 6.44699 14.3532 6.35322C14.447 6.25946 14.4997 6.13228 14.4997 5.99967C14.4997 5.86706 14.447 5.73988 14.3532 5.64612C14.2594 5.55235 14.1323 5.49967 13.9997 5.49967H6.99966C5.74872 5.56264 4.57347 6.11787 3.73041 7.04418C2.88734 7.97049 2.4449 9.19268 2.49966 10.444V21.5554C2.4449 22.8067 2.88734 24.0289 3.7304 24.9552C4.57347 25.8815 5.74872 26.4367 6.99966 26.4997H9.50811C9.50671 26.5524 9.49969 26.6038 9.49969 26.6569C9.49969 27.3239 9.88348 28.2526 11.7106 28.8864C13.0984 29.3186 14.5464 29.5257 15.9997 29.4997C19.235 29.4997 22.4997 28.6208 22.4997 26.6569C22.4997 26.6038 22.4927 26.5524 22.4913 26.4997H24.9997C26.2506 26.4367 27.4259 25.8815 28.2689 24.9552C29.112 24.0289 29.5544 22.8067 29.4997 21.5554V16.9997C29.4997 16.934 29.4868 16.869 29.4617 16.8083C29.4366 16.7476 29.3998 16.6925 29.3533 16.6461C29.3069 16.5996 29.2517 16.5628 29.1911 16.5377C29.1304 16.5126 29.0653 16.4997 28.9997 16.4997ZM12.9997 17.4997C12.9997 16.9064 13.1756 16.3263 13.5053 15.833C13.8349 15.3396 14.3034 14.9551 14.8516 14.7281C15.3998 14.501 16.003 14.4416 16.5849 14.5573C17.1669 14.6731 17.7014 14.9588 18.121 15.3784C18.5405 15.7979 18.8263 16.3325 18.942 16.9144C19.0578 17.4964 18.9984 18.0996 18.7713 18.6478C18.5442 19.1959 18.1597 19.6645 17.6664 19.9941C17.173 20.3238 16.593 20.4997 15.9997 20.4997C15.2043 20.4988 14.4417 20.1825 13.8793 19.6201C13.3169 19.0576 13.0005 18.2951 12.9997 17.4997ZM15.9997 28.4997C12.9157 28.4997 10.4997 27.6901 10.4997 26.6569C10.5482 25.2447 11.1542 23.9093 12.1849 22.9428C13.2157 21.9763 14.5873 21.4574 15.9997 21.4997C17.412 21.4574 18.7837 21.9763 19.8144 22.9428C20.8452 23.9093 21.4511 25.2447 21.4997 26.6569C21.4997 27.6901 19.0836 28.4997 15.9997 28.4997Z" fill="black"/>
<path d="M24.0143 13.4977C25.1021 13.4977 26.1655 13.1752 27.07 12.5708C27.9744 11.9665 28.6794 11.1075 29.0957 10.1025C29.5119 9.09751 29.6209 7.99164 29.4086 6.92474C29.1964 5.85785 28.6726 4.87784 27.9034 4.10865C27.1342 3.33946 26.1542 2.81564 25.0873 2.60342C24.0204 2.3912 22.9145 2.50012 21.9096 2.9164C20.9046 3.33268 20.0456 4.03763 19.4412 4.9421C18.8369 5.84657 18.5143 6.90994 18.5143 7.99774C18.5161 9.45587 19.0962 10.8538 20.1272 11.8848C21.1583 12.9159 22.5562 13.4959 24.0143 13.4977ZM24.0143 12.4977C22.9107 12.4943 21.847 12.0846 21.0263 11.3468C20.2056 10.609 19.6853 9.59474 19.5648 8.49774H28.4638C28.3433 9.59474 27.823 10.609 27.0023 11.3468C26.1816 12.0846 25.1179 12.4943 24.0143 12.4977ZM24.0143 3.49774C25.1179 3.50118 26.1816 3.91091 27.0023 4.64872C27.823 5.38653 28.3433 6.40074 28.4638 7.49774H19.5648C19.6853 6.40074 20.2056 5.38652 21.0263 4.64871C21.847 3.9109 22.9107 3.50117 24.0143 3.49774Z" fill="black"/>
</svg>
