<svg width="32" height="32" viewBox="0 0 32 32" fill="none" xmlns="http://www.w3.org/2000/svg">
<path d="M23.9997 8.34052C24.0653 8.34056 24.1304 8.32765 24.191 8.30254C24.2517 8.27742 24.3069 8.24059 24.3533 8.19416C24.3997 8.14772 24.4366 8.09258 24.4617 8.03191C24.4868 7.97123 24.4997 7.90619 24.4997 7.84052V6.75067C24.4997 6.61806 24.447 6.49088 24.3532 6.39712C24.2594 6.30335 24.1323 6.25067 23.9997 6.25067C23.8671 6.25067 23.7399 6.30335 23.6461 6.39712C23.5523 6.49088 23.4997 6.61806 23.4997 6.75067V7.84052C23.4996 7.90619 23.5125 7.97123 23.5377 8.03191C23.5628 8.09258 23.5996 8.14772 23.646 8.19416C23.6925 8.24059 23.7476 8.27742 23.8083 8.30254C23.869 8.32765 23.934 8.34056 23.9997 8.34052Z" fill="black"/>
<path d="M24.0001 10.3759C24.2762 10.3759 24.5001 10.152 24.5001 9.87586C24.5001 9.59972 24.2762 9.37586 24.0001 9.37586C23.7239 9.37586 23.5001 9.59972 23.5001 9.87586C23.5001 10.152 23.7239 10.3759 24.0001 10.3759Z" fill="black"/>
<path d="M19.8346 12.6677H28.1656C28.3993 12.6676 28.6288 12.6061 28.8312 12.4894C29.0336 12.3727 29.2018 12.2049 29.319 12.0028C29.4361 11.8007 29.4982 11.5713 29.4988 11.3377C29.4995 11.1041 29.4388 10.8744 29.3229 10.6716L25.1686 3.17157L25.1627 3.16181C25.0373 2.96967 24.8658 2.81198 24.6639 2.70311C24.4619 2.59425 24.2359 2.53767 24.0065 2.53854C23.7771 2.53942 23.5515 2.59771 23.3504 2.70812C23.1493 2.81852 22.979 2.97751 22.8551 3.1706L18.6832 10.6618C18.5648 10.8644 18.502 11.0946 18.5011 11.3293C18.5002 11.5639 18.5612 11.7947 18.678 11.9982C18.7948 12.2017 18.9633 12.3707 19.1664 12.4883C19.3694 12.6059 19.6 12.6677 19.8346 12.6677ZM19.5514 11.1569L23.7233 3.66571C23.7523 3.61556 23.7939 3.57386 23.844 3.54474C23.8941 3.51562 23.9509 3.5001 24.0088 3.4997C24.0667 3.49931 24.1238 3.51406 24.1742 3.5425C24.2247 3.57093 24.2669 3.61206 24.2965 3.66181L28.4538 11.1657C28.4832 11.2164 28.4988 11.274 28.499 11.3327C28.4992 11.3913 28.4839 11.449 28.4547 11.4999C28.4255 11.5508 28.3834 11.5931 28.3327 11.6225C28.2819 11.652 28.2243 11.6676 28.1657 11.6677H19.8347C19.776 11.6682 19.7182 11.6529 19.6674 11.6236C19.6166 11.5942 19.5745 11.5518 19.5456 11.5007C19.5153 11.4483 19.4998 11.3886 19.5009 11.328C19.5019 11.2674 19.5194 11.2083 19.5514 11.1569Z" fill="black"/>
<path d="M28.9997 16.4997C28.934 16.4997 28.869 16.5126 28.8083 16.5377C28.7476 16.5628 28.6925 16.5996 28.646 16.6461C28.5996 16.6925 28.5628 16.7476 28.5376 16.8083C28.5125 16.869 28.4996 16.934 28.4997 16.9997V21.5554C28.5538 22.5414 28.2165 23.5089 27.5611 24.2475C26.9057 24.9862 25.9851 25.4362 24.9997 25.4997H22.3807C22.1458 24.4236 21.6323 23.4286 20.8915 22.6136C20.1506 21.7986 19.2085 21.1927 18.1597 20.8566C18.8873 20.3897 19.4441 19.6997 19.7467 18.8899C20.0492 18.0801 20.0813 17.194 19.8381 16.3644C19.5948 15.5349 19.0893 14.8064 18.3974 14.2882C17.7054 13.77 16.8642 13.4899 15.9997 13.4899C15.1351 13.4899 14.2939 13.77 13.6019 14.2882C12.91 14.8064 12.4045 15.5349 12.1613 16.3644C11.918 17.194 11.9501 18.0801 12.2527 18.8899C12.5552 19.6997 13.112 20.3897 13.8397 20.8566C12.7908 21.1927 11.8487 21.7986 11.1079 22.6136C10.367 23.4286 9.85342 24.424 9.61859 25.5001L6.99966 25.4997C6.0142 25.4362 5.09366 24.9862 4.43824 24.2475C3.78281 23.5089 3.4455 22.5414 3.49966 21.5554V10.444C3.4455 9.45798 3.78282 8.49046 4.43824 7.75183C5.09367 7.01319 6.0142 6.56319 6.99966 6.49967H15.9997C16.1323 6.49967 16.2594 6.44699 16.3532 6.35322C16.447 6.25946 16.4997 6.13228 16.4997 5.99967C16.4997 5.86706 16.447 5.73988 16.3532 5.64612C16.2594 5.55235 16.1323 5.49967 15.9997 5.49967H6.99966C5.74872 5.56264 4.57347 6.11787 3.73041 7.04418C2.88734 7.97049 2.4449 9.19268 2.49966 10.444V21.5554C2.4449 22.8067 2.88734 24.0289 3.7304 24.9552C4.57347 25.8815 5.74872 26.4367 6.99966 26.4997H9.50811C9.50671 26.5524 9.49969 26.6038 9.49969 26.6569C9.49969 27.3239 9.88348 28.2526 11.7106 28.8864C13.0984 29.3186 14.5464 29.5257 15.9997 29.4997C19.235 29.4997 22.4997 28.6208 22.4997 26.6569C22.4997 26.6038 22.4927 26.5524 22.4913 26.4997H24.9997C26.2506 26.4367 27.4259 25.8815 28.2689 24.9552C29.112 24.0289 29.5544 22.8067 29.4997 21.5554V16.9997C29.4997 16.934 29.4868 16.869 29.4617 16.8083C29.4366 16.7476 29.3998 16.6925 29.3533 16.6461C29.3069 16.5996 29.2517 16.5628 29.1911 16.5377C29.1304 16.5126 29.0653 16.4997 28.9997 16.4997ZM12.9997 17.4997C12.9997 16.9064 13.1756 16.3263 13.5053 15.833C13.8349 15.3396 14.3034 14.9551 14.8516 14.7281C15.3998 14.501 16.003 14.4416 16.5849 14.5573C17.1669 14.6731 17.7014 14.9588 18.121 15.3784C18.5405 15.7979 18.8263 16.3325 18.942 16.9144C19.0578 17.4964 18.9984 18.0996 18.7713 18.6478C18.5442 19.1959 18.1597 19.6645 17.6664 19.9941C17.173 20.3238 16.593 20.4997 15.9997 20.4997C15.2043 20.4988 14.4417 20.1825 13.8793 19.6201C13.3169 19.0576 13.0005 18.2951 12.9997 17.4997ZM15.9997 28.4997C12.9157 28.4997 10.4997 27.6901 10.4997 26.6569C10.5482 25.2447 11.1542 23.9093 12.1849 22.9428C13.2157 21.9763 14.5873 21.4574 15.9997 21.4997C17.412 21.4574 18.7837 21.9763 19.8144 22.9428C20.8452 23.9093 21.4511 25.2447 21.4997 26.6569C21.4997 27.6901 19.0836 28.4997 15.9997 28.4997Z" fill="black"/>
</svg>
