<svg width="32" height="32" viewBox="0 0 32 32" fill="none" xmlns="http://www.w3.org/2000/svg">
<path d="M25.0002 4.9997H7.00024C5.67464 5.00126 4.40377 5.52854 3.46643 6.46589C2.52908 7.40323 2.0018 8.6741 2.00024 9.9997V21.9997C2.0018 23.3253 2.52909 24.5962 3.46643 25.5335C4.40378 26.4709 5.67464 26.9981 7.00024 26.9997H9.02752C9.1469 27.7805 9.71886 28.7248 11.5471 29.3591C12.9877 29.8093 14.4912 30.0256 16.0002 29.9997C19.074 29.9997 22.6303 29.2038 22.9669 26.9997H25.0002C26.3258 26.9981 27.5967 26.4709 28.5341 25.5335C29.4714 24.5962 29.9987 23.3253 30.0002 21.9997V9.9997C29.9987 8.6741 29.4714 7.40323 28.5341 6.46589C27.5967 5.52855 26.3258 5.00126 25.0002 4.9997ZM16.0002 27.9997C12.7649 27.9997 11.0002 27.113 11.0002 26.6569C11.0487 25.3773 11.6019 24.169 12.5389 23.2962C13.4759 22.4235 14.7204 21.9573 16.0002 21.9997C17.28 21.9573 18.5246 22.4235 19.4616 23.2962C20.3986 24.169 20.9518 25.3773 21.0002 26.6569C21.0002 27.113 19.2356 27.9997 16.0002 27.9997ZM13.5002 17.4997C13.5002 17.0052 13.6469 16.5219 13.9216 16.1108C14.1963 15.6997 14.5867 15.3792 15.0435 15.19C15.5004 15.0008 16.003 14.9513 16.488 15.0477C16.9729 15.1442 17.4184 15.3823 17.768 15.7319C18.1176 16.0816 18.3557 16.527 18.4522 17.012C18.5487 17.4969 18.4992 17.9996 18.3099 18.4564C18.1207 18.9132 17.8003 19.3037 17.3892 19.5784C16.978 19.8531 16.4947 19.9997 16.0002 19.9997C15.3374 19.9991 14.7019 19.7355 14.2332 19.2668C13.7644 18.7981 13.5009 18.1626 13.5002 17.4997ZM28.0002 21.9997C27.9994 22.7951 27.683 23.5576 27.1206 24.1201C26.5582 24.6825 25.7956 24.9988 25.0002 24.9997H22.7718C22.5092 24.0666 22.0488 23.201 21.4219 22.4617C20.7951 21.7223 20.0164 21.1265 19.1389 20.7149C19.7804 20.0905 20.2211 19.2889 20.4046 18.4128C20.5882 17.5366 20.5062 16.6256 20.1693 15.7962C19.8323 14.9668 19.2556 14.2568 18.513 13.757C17.7703 13.2571 16.8954 12.9901 16.0002 12.9901C15.105 12.9901 14.2302 13.2571 13.4875 13.757C12.7449 14.2568 12.1682 14.9668 11.8312 15.7962C11.4942 16.6256 11.4123 17.5366 11.5958 18.4128C11.7794 19.2889 12.2201 20.0905 12.8616 20.7149C11.984 21.1266 11.2054 21.7224 10.5785 22.4618C9.9516 23.2012 9.49122 24.0668 9.22862 24.9999L7.00024 24.9997C6.20486 24.9988 5.4423 24.6825 4.87988 24.1201C4.31746 23.5576 4.00111 22.7951 4.00024 21.9997V9.9997C4.00111 9.20432 4.31746 8.44176 4.87988 7.87934C5.4423 7.31692 6.20486 7.00057 7.00024 6.9997H25.0002C25.7956 7.00057 26.5582 7.31692 27.1206 7.87934C27.683 8.44176 27.9994 9.20432 28.0002 9.9997V21.9997Z" fill="black"/>
</svg>
