<svg width="32" height="32" viewBox="0 0 32 32" fill="none" xmlns="http://www.w3.org/2000/svg">
<path d="M23.9997 8.59052C24.1986 8.59047 24.3893 8.51143 24.5299 8.37079C24.6706 8.23015 24.7496 8.03942 24.7497 7.84052V6.75067C24.7497 6.55176 24.6707 6.36099 24.53 6.22034C24.3894 6.07969 24.1986 6.00067 23.9997 6.00067C23.8008 6.00067 23.61 6.07969 23.4693 6.22034C23.3287 6.36099 23.2497 6.55176 23.2497 6.75067V7.84052C23.2497 8.03942 23.3288 8.23015 23.4694 8.37079C23.61 8.51144 23.8008 8.59047 23.9997 8.59052Z" fill="black"/>
<path d="M24.0001 10.6259C24.4143 10.6259 24.7501 10.2901 24.7501 9.87586C24.7501 9.46165 24.4143 9.12586 24.0001 9.12586C23.5859 9.12586 23.2501 9.46165 23.2501 9.87586C23.2501 10.2901 23.5859 10.6259 24.0001 10.6259Z" fill="black"/>
<path d="M19.8346 12.9177H28.1656C28.4428 12.9176 28.7151 12.8449 28.9553 12.7066C29.1955 12.5684 29.3953 12.3695 29.5346 12.1299C29.6738 11.8903 29.7478 11.6183 29.7491 11.3411C29.7503 11.064 29.6788 10.7913 29.5416 10.5505L25.3873 3.05048L25.3795 3.03681C25.2397 2.79637 25.039 2.59702 24.7976 2.45884C24.5562 2.32066 24.2827 2.24853 24.0046 2.24972C23.7264 2.25091 23.4535 2.32537 23.2133 2.46561C22.9731 2.60584 22.7741 2.8069 22.6364 3.04853L18.4674 10.5358C18.3269 10.7764 18.2524 11.0498 18.2513 11.3284C18.2503 11.607 18.3228 11.8809 18.4615 12.1226C18.6001 12.3642 18.8001 12.5649 19.0412 12.7045C19.2823 12.8441 19.556 12.9177 19.8346 12.9177ZM24.0114 3.74967C24.0251 3.74883 24.0388 3.75186 24.0509 3.75842C24.063 3.76498 24.073 3.77481 24.0798 3.78678L28.2292 11.277C28.2321 11.2819 28.1628 11.4127 28.1657 11.4176H19.8347L19.7702 11.2789L24.0114 3.74967Z" fill="black"/>
<path d="M28.9997 16.2497C28.8008 16.2497 28.61 16.3288 28.4694 16.4694C28.3288 16.6101 28.2497 16.8008 28.2497 16.9997V21.5554C28.3037 22.4751 27.9927 23.3789 27.3841 24.0707C26.7756 24.7624 25.9188 25.1861 24.9997 25.2497H22.5804C22.3298 24.248 21.8449 23.3201 21.1656 22.5424C20.4863 21.7647 19.6321 21.1594 18.6732 20.7763C19.3562 20.2236 19.8512 19.4728 20.0899 18.6272C20.3286 17.7816 20.2994 16.8827 20.0062 16.0544C19.7131 15.2261 19.1704 14.509 18.4529 14.0019C17.7354 13.4947 16.8783 13.2224 15.9997 13.2224C15.121 13.2224 14.264 13.4947 13.5465 14.0019C12.829 14.509 12.2863 15.2261 11.9931 16.0544C11.7 16.8827 11.6708 17.7816 11.9095 18.6272C12.1482 19.4728 12.6432 20.2236 13.3262 20.7763C12.3673 21.1594 11.513 21.7647 10.8337 22.5424C10.1545 23.3201 9.66958 24.248 9.41898 25.2497H6.99967C6.08058 25.1861 5.22372 24.7624 4.6152 24.0707C4.00668 23.3789 3.69565 22.4751 3.74967 21.5554V10.444C3.69565 9.5243 4.00668 8.62042 4.6152 7.92871C5.22372 7.23699 6.08059 6.8133 6.99967 6.74967H15.9997C16.1986 6.74967 16.3893 6.67065 16.53 6.53C16.6707 6.38935 16.7497 6.19858 16.7497 5.99967C16.7497 5.80076 16.6707 5.60999 16.53 5.46934C16.3893 5.32869 16.1986 5.24967 15.9997 5.24967H6.99967C5.68242 5.31264 4.44358 5.89422 3.55363 6.86741C2.66368 7.84061 2.19491 9.12638 2.24967 10.444V21.5554C2.19491 22.873 2.66368 24.1588 3.55363 25.132C4.44358 26.1052 5.68242 26.6867 6.99967 26.7497H9.2565C9.25516 26.7192 9.24967 26.6866 9.24967 26.6569C9.24967 27.4049 9.66275 28.4401 11.6286 29.1227C13.0427 29.564 14.5185 29.7757 15.9997 29.7497C19.07 29.7497 22.64 28.9598 22.7403 26.7497H24.9997C26.3169 26.6868 27.5558 26.1052 28.4457 25.132C29.3357 24.1588 29.8044 22.873 29.7497 21.5554V16.9997C29.7496 16.8008 29.6706 16.6101 29.5299 16.4694C29.3893 16.3288 29.1986 16.2498 28.9997 16.2497ZM13.2497 17.4997C13.2497 16.9558 13.411 16.4241 13.7131 15.9719C14.0153 15.5196 14.4448 15.1672 14.9473 14.959C15.4498 14.7509 16.0027 14.6964 16.5362 14.8025C17.0696 14.9087 17.5596 15.1706 17.9442 15.5552C18.3288 15.9398 18.5907 16.4298 18.6968 16.9632C18.8029 17.4966 18.7485 18.0496 18.5403 18.5521C18.3322 19.0546 17.9797 19.4841 17.5275 19.7862C17.0753 20.0884 16.5436 20.2497 15.9997 20.2497C15.2706 20.249 14.5715 19.959 14.0559 19.4434C13.5404 18.9279 13.2504 18.2288 13.2497 17.4997ZM15.9997 28.2497C12.9059 28.2497 10.7497 27.4108 10.7497 26.6569C10.7982 25.311 11.3778 24.0392 12.3616 23.1195C13.3455 22.1999 14.6536 21.7074 15.9997 21.7497C17.3458 21.7074 18.6538 22.1999 19.6377 23.1195C20.6216 24.0392 21.2012 25.311 21.2497 26.6569C21.2497 27.4108 19.0934 28.2497 15.9997 28.2497Z" fill="black"/>
</svg>
