<svg xmlns="http://www.w3.org/2000/svg" width="32" height="32" viewBox="0 0 32 32"><path d="M9.252 26.755C9.288 27.494 9.747 28.47 11.628 29.123C13.043 29.564 14.518 29.776 15.999 29.75C19.069 29.75 22.639 28.96 22.74 26.75H25C26.2594 26.7487 27.4668 26.2478 28.3573 25.3573C29.2478 24.4668 29.7487 23.2594 29.75 22V10C29.7487 8.74063 29.2478 7.53322 28.3573 6.6427C27.4668 5.75219 26.2594 5.25132 25 5.25H7C5.74063 5.25132 4.53322 5.75219 3.6427 6.6427C2.75219 7.53322 2.25132 8.74063 2.25 10V22C2.25132 23.2594 2.75219 24.4668 3.6427 25.3573C4.53322 26.2478 5.74063 26.7487 7 26.75H9.25V26.755H9.252ZM15.999 28.25C12.906 28.25 10.749 27.41 10.749 26.657C10.7975 25.311 11.3773 24.039 12.3614 23.1193C13.3454 22.1997 14.6538 21.7073 16 21.75C17.3461 21.7076 18.6541 22.2001 19.638 23.1197C20.6219 24.0393 21.2015 25.3111 21.25 26.657C21.25 27.411 19.094 28.25 16 28.25H15.999ZM13.25 17.5C13.25 16.7707 13.5397 16.0712 14.0555 15.5555C14.5712 15.0397 15.2707 14.75 16 14.75C16.7293 14.75 17.4288 15.0397 17.9445 15.5555C18.4603 16.0712 18.75 16.7707 18.75 17.5C18.75 18.2293 18.4603 18.9288 17.9445 19.4445C17.4288 19.9603 16.7293 20.25 16 20.25C15.2707 20.25 14.5712 19.9603 14.0555 19.4445C13.5397 18.9288 13.25 18.2293 13.25 17.5ZM28.25 22C28.2489 22.8616 27.9062 23.6877 27.2969 24.2969C26.6877 24.9062 25.8616 25.2489 25 25.25H22.58C22.3295 24.2482 21.8446 23.3202 21.1654 22.5424C20.4861 21.7646 19.6319 21.1592 18.673 20.776C19.356 20.2233 19.8509 19.4725 20.0896 18.6269C20.3284 17.7813 20.2991 16.8825 20.006 16.0542C19.7128 15.2259 19.1701 14.5089 18.4527 14.0017C17.7352 13.4945 16.8781 13.2222 15.9995 13.2222C15.1209 13.2222 14.2638 13.4945 13.5463 14.0017C12.8289 14.5089 12.2862 15.2259 11.993 16.0542C11.6999 16.8825 11.6706 17.7813 11.9094 18.6269C12.1481 19.4725 12.643 20.2233 13.326 20.776C12.3671 21.1592 11.5129 21.7646 10.8336 22.5424C10.1544 23.3202 9.66954 24.2482 9.419 25.25H6.999C6.13754 25.2487 5.31177 24.9058 4.70272 24.2966C4.09367 23.6873 3.75106 22.8615 3.75 22V10C3.75106 9.13837 4.09381 8.31234 4.70307 7.70307C5.31234 7.09381 6.13837 6.75106 7 6.75H25C25.8616 6.75106 26.6877 7.09381 27.2969 7.70307C27.9062 8.31234 28.2489 9.13837 28.25 10V22Z"/></svg>