<svg xmlns="http://www.w3.org/2000/svg" width="32" height="32" viewBox="0 0 32 32"><path d="M21.6521 20.7101C21.6053 20.6184 21.556 20.5281 21.5041 20.4391L21.0001 19.6971V6.69313C20.9197 5.4217 20.3579 4.22868 19.429 3.35676C18.5002 2.48484 17.2741 1.99951 16.0001 1.99951C14.7262 1.99951 13.5 2.48484 12.5712 3.35676C11.6424 4.22868 11.0806 5.4217 11.0001 6.69313V19.7681L10.6701 20.4321C9.90276 21.6841 9.57906 23.1578 9.75112 24.6161L9.77012 24.7461C9.95615 26.1963 10.6636 27.5292 11.7603 28.496C12.857 29.4628 14.2681 29.9974 15.7301 30.0001H16.2511C17.8117 29.9985 19.3127 29.4014 20.4479 28.3305C21.583 27.2597 22.2666 25.7959 22.3591 24.2381C22.4071 22.9681 22.2151 21.8521 21.6521 20.7111V20.7101ZM16.2511 28.0001H15.7291C14.7495 27.9942 13.8055 27.6321 13.0733 26.9812C12.3411 26.3304 11.8708 25.4353 11.7501 24.4631L11.7321 24.3331C11.6264 23.2889 11.8774 22.2396 12.4441 21.3561L12.6871 20.8981L12.8961 20.4471C12.9647 20.3088 13.0003 20.1565 13.0001 20.0021V6.69213C13.0812 5.95312 13.4322 5.27005 13.9858 4.77385C14.5394 4.27765 15.2567 4.00325 16.0001 4.00325C16.7436 4.00325 17.4608 4.27765 18.0144 4.77385C18.5681 5.27005 18.919 5.95312 19.0001 6.69213V20.0031C19.0001 20.2031 19.0601 20.3991 19.1721 20.5651L19.4781 20.9951L19.8071 21.4991C20.1991 22.3161 20.3891 23.2151 20.3631 24.1211C20.3012 25.1701 19.8411 26.1558 19.0769 26.8769C18.3126 27.598 17.3019 28.0001 16.2511 28.0011V28.0001Z M17.0151 21.784L17.0001 9.999C16.9999 9.73378 16.8943 9.47954 16.7065 9.29219C16.5188 9.10484 16.2644 8.99974 15.9991 9C15.7339 9.00027 15.4797 9.10588 15.2923 9.2936C15.105 9.48132 14.9999 9.73578 15.0001 10.001L15.0151 21.771C14.6327 21.9886 14.3328 22.3264 14.1619 22.7318C13.991 23.1372 13.9586 23.5877 14.0698 24.0135C14.1809 24.4392 14.4295 24.8163 14.7768 25.0864C15.1242 25.3565 15.5509 25.5044 15.9909 25.5073C16.4309 25.5102 16.8595 25.3678 17.2103 25.1022C17.5612 24.8367 17.8146 24.4628 17.9313 24.0386C18.048 23.6143 18.0215 23.1634 17.8558 22.7558C17.6902 22.3482 17.3947 22.0066 17.0151 21.784Z"/></svg>