<svg width="32" height="32" viewBox="0 0 32 32" fill="none" xmlns="http://www.w3.org/2000/svg">
<path d="M25 12.4995H7C6.86739 12.4995 6.74021 12.5522 6.64645 12.646C6.55268 12.7397 6.5 12.8669 6.5 12.9995C6.5 13.1321 6.55268 13.2593 6.64645 13.3531C6.74021 13.4469 6.86739 13.4995 7 13.4995H25C25.1326 13.4995 25.2598 13.4469 25.3536 13.3531C25.4473 13.2593 25.5 13.1321 25.5 12.9995C25.5 12.8669 25.4473 12.7397 25.3536 12.646C25.2598 12.5522 25.1326 12.4995 25 12.4995Z" fill="black"/>
<path d="M7 8.49953H25C25.1326 8.49953 25.2598 8.44685 25.3536 8.35308C25.4473 8.25932 25.5 8.13214 25.5 7.99953C25.5 7.86692 25.4473 7.73974 25.3536 7.64598C25.2598 7.55221 25.1326 7.49953 25 7.49953H7C6.86739 7.49953 6.74021 7.55221 6.64645 7.64598C6.55268 7.73974 6.5 7.86692 6.5 7.99953C6.5 8.13214 6.55268 8.25932 6.64645 8.35308C6.74021 8.44685 6.86739 8.49953 7 8.49953Z" fill="black"/>
<path d="M25 17.4995H7C6.86739 17.4995 6.74021 17.5522 6.64645 17.646C6.55268 17.7397 6.5 17.8669 6.5 17.9995C6.5 18.1321 6.55268 18.2593 6.64645 18.3531C6.74021 18.4469 6.86739 18.4995 7 18.4995H25C25.1326 18.4995 25.2598 18.4469 25.3536 18.3531C25.4473 18.2593 25.5 18.1321 25.5 17.9995C25.5 17.8669 25.4473 17.7397 25.3536 17.646C25.2598 17.5522 25.1326 17.4995 25 17.4995Z" fill="black"/>
<path d="M16 22.4995H7.03174C6.89913 22.4995 6.77195 22.5522 6.67819 22.646C6.58442 22.7397 6.53174 22.8669 6.53174 22.9995C6.53174 23.1321 6.58442 23.2593 6.67819 23.3531C6.77195 23.4469 6.89913 23.4995 7.03174 23.4995H16C16.1326 23.4995 16.2598 23.4469 16.3536 23.3531C16.4473 23.2593 16.5 23.1321 16.5 22.9995C16.5 22.8669 16.4473 22.7397 16.3536 22.646C16.2598 22.5522 16.1326 22.4995 16 22.4995Z" fill="black"/>
</svg>
