<svg xmlns="http://www.w3.org/2000/svg" width="32" height="32" viewBox="0 0 32 32"><path d="M28 8H4C3.73478 8 3.48043 7.89464 3.29289 7.70711C3.10536 7.51957 3 7.26522 3 7C3 6.73478 3.10536 6.48043 3.29289 6.29289C3.48043 6.10536 3.73478 6 4 6H28C28.2652 6 28.5196 6.10536 28.7071 6.29289C28.8946 6.48043 29 6.73478 29 7C29 7.26522 28.8946 7.51957 28.7071 7.70711C28.5196 7.89464 28.2652 8 28 8ZM14 12H28C28.2652 12 28.5196 12.1054 28.7071 12.2929C28.8946 12.4804 29 12.7348 29 13C29 13.2652 28.8946 13.5196 28.7071 13.7071C28.5196 13.8946 28.2652 14 28 14H14C13.7348 14 13.4804 13.8946 13.2929 13.7071C13.1054 13.5196 13 13.2652 13 13C13 12.7348 13.1054 12.4804 13.2929 12.2929C13.4804 12.1054 13.7348 12 14 12ZM28 18H14C13.7348 18 13.4804 18.1054 13.2929 18.2929C13.1054 18.4804 13 18.7348 13 19C13 19.2652 13.1054 19.5196 13.2929 19.7071C13.4804 19.8946 13.7348 20 14 20H28C28.2652 20 28.5196 19.8946 28.7071 19.7071C28.8946 19.5196 29 19.2652 29 19C29 18.7348 28.8946 18.4804 28.7071 18.2929C28.5196 18.1054 28.2652 18 28 18ZM28 26H4C3.73478 26 3.48043 25.8946 3.29289 25.7071C3.10536 25.5196 3 25.2652 3 25C3 24.7348 3.10536 24.4804 3.29289 24.2929C3.48043 24.1054 3.73478 24 4 24H28C28.2652 24 28.5196 24.1054 28.7071 24.2929C28.8946 24.4804 29 24.7348 29 25C29 25.2652 28.8946 25.5196 28.7071 25.7071C28.5196 25.8946 28.2652 26 28 26Z"/></svg>