<svg xmlns="http://www.w3.org/2000/svg" width="32" height="32" viewBox="0 0 32 32"><path d="M28 7.75H4C3.80109 7.75 3.61032 7.67098 3.46967 7.53033C3.32902 7.38968 3.25 7.19891 3.25 7C3.25 6.80109 3.32902 6.61032 3.46967 6.46967C3.61032 6.32902 3.80109 6.25 4 6.25H28C28.1989 6.25 28.3897 6.32902 28.5303 6.46967C28.671 6.61032 28.75 6.80109 28.75 7C28.75 7.19891 28.671 7.38968 28.5303 7.53033C28.3897 7.67098 28.1989 7.75 28 7.75ZM9 12.25H23C23.1989 12.25 23.3897 12.329 23.5303 12.4697C23.671 12.6103 23.75 12.8011 23.75 13C23.75 13.1989 23.671 13.3897 23.5303 13.5303C23.3897 13.671 23.1989 13.75 23 13.75H9C8.80109 13.75 8.61032 13.671 8.46967 13.5303C8.32902 13.3897 8.25 13.1989 8.25 13C8.25 12.8011 8.32902 12.6103 8.46967 12.4697C8.61032 12.329 8.80109 12.25 9 12.25ZM23 18.25H9C8.80109 18.25 8.61032 18.329 8.46967 18.4697C8.32902 18.6103 8.25 18.8011 8.25 19C8.25 19.1989 8.32902 19.3897 8.46967 19.5303C8.61032 19.671 8.80109 19.75 9 19.75H23C23.1989 19.75 23.3897 19.671 23.5303 19.5303C23.671 19.3897 23.75 19.1989 23.75 19C23.75 18.8011 23.671 18.6103 23.5303 18.4697C23.3897 18.329 23.1989 18.25 23 18.25ZM28 25.75H4C3.80109 25.75 3.61032 25.671 3.46967 25.5303C3.32902 25.3897 3.25 25.1989 3.25 25C3.25 24.8011 3.32902 24.6103 3.46967 24.4697C3.61032 24.329 3.80109 24.25 4 24.25H28C28.1989 24.25 28.3897 24.329 28.5303 24.4697C28.671 24.6103 28.75 24.8011 28.75 25C28.75 25.1989 28.671 25.3897 28.5303 25.5303C28.3897 25.671 28.1989 25.75 28 25.75Z"/></svg>