<svg width="32" height="32" viewBox="0 0 32 32" fill="none" xmlns="http://www.w3.org/2000/svg">
<path d="M16.9139 6.59362C16.8352 6.41687 16.707 6.26672 16.5448 6.16134C16.3825 6.05596 16.1932 5.99988 15.9998 5.99988C15.8063 5.99988 15.617 6.05596 15.4548 6.16134C15.2926 6.26672 15.1644 6.41687 15.0857 6.59362L7.08573 24.5936C7.03199 24.7137 7.00248 24.8432 6.99888 24.9748C6.99527 25.1063 7.01765 25.2372 7.06473 25.3601C7.11181 25.4829 7.18266 25.5953 7.27323 25.6907C7.36379 25.7861 7.4723 25.8628 7.59253 25.9162C7.71276 25.9696 7.84235 25.9988 7.97387 26.0021C8.1054 26.0054 8.23628 25.9827 8.35902 25.9353C8.48176 25.8879 8.59395 25.8168 8.68916 25.726C8.78436 25.6352 8.86072 25.5265 8.91386 25.4061L11.3165 19.9999H20.6831L23.0857 25.4061C23.1389 25.5265 23.2152 25.6352 23.3104 25.726C23.4056 25.8168 23.5178 25.8879 23.6406 25.9353C23.7633 25.9827 23.8942 26.0054 24.0257 26.0021C24.1572 25.9988 24.2868 25.9696 24.4071 25.9162C24.5273 25.8628 24.6358 25.7861 24.7264 25.6907C24.8169 25.5953 24.8878 25.4829 24.9349 25.3601C24.9819 25.2372 25.0043 25.1063 25.0007 24.9748C24.9971 24.8432 24.9676 24.7137 24.9139 24.5936L16.9139 6.59362ZM12.2053 17.9999L15.9998 9.46179L19.7943 17.9999H12.2053Z" fill="black"/>
<path d="M24.9998 1.99987H6.99979C5.67418 2.00143 4.40332 2.52871 3.46597 3.46606C2.52863 4.4034 2.00135 5.67427 1.99979 6.99987V24.9999C2.00135 26.3255 2.52863 27.5963 3.46597 28.5337C4.40332 29.471 5.67418 29.9983 6.99979 29.9999H24.9998C26.3254 29.9983 27.5963 29.471 28.5336 28.5337C29.4709 27.5963 29.9982 26.3255 29.9998 24.9999V6.99987C29.9982 5.67427 29.4709 4.4034 28.5336 3.46606C27.5963 2.52871 26.3254 2.00143 24.9998 1.99987ZM27.9998 24.9999C27.9989 25.7953 27.6826 26.5578 27.1201 27.1202C26.5577 27.6827 25.7952 27.999 24.9998 27.9999H6.99979C6.2044 27.999 5.44185 27.6827 4.87942 27.1202C4.317 26.5578 4.00065 25.7953 3.99979 24.9999V6.99987C4.00066 6.20449 4.31701 5.44193 4.87943 4.87951C5.44185 4.31709 6.2044 4.00074 6.99979 3.99987H24.9998C25.7952 4.00074 26.5577 4.31709 27.1201 4.87951C27.6826 5.44193 27.9989 6.20449 27.9998 6.99987V24.9999Z" fill="black"/>
</svg>
