<svg xmlns="http://www.w3.org/2000/svg" width="32" height="32" viewBox="0 0 32 32"><path d="M28 7.5H4C3.86739 7.5 3.74021 7.44732 3.64645 7.35355C3.55268 7.25979 3.5 7.13261 3.5 7C3.5 6.86739 3.55268 6.74021 3.64645 6.64645C3.74021 6.55268 3.86739 6.5 4 6.5H28C28.1326 6.5 28.2598 6.55268 28.3536 6.64645C28.4473 6.74021 28.5 6.86739 28.5 7C28.5 7.13261 28.4473 7.25979 28.3536 7.35355C28.2598 7.44732 28.1326 7.5 28 7.5Z M14 12.5H28C28.1326 12.5 28.2598 12.5527 28.3536 12.6464C28.4473 12.7402 28.5 12.8674 28.5 13C28.5 13.1326 28.4473 13.2598 28.3536 13.3536C28.2598 13.4473 28.1326 13.5 28 13.5H14C13.8674 13.5 13.7402 13.4473 13.6464 13.3536C13.5527 13.2598 13.5 13.1326 13.5 13C13.5 12.8674 13.5527 12.7402 13.6464 12.6464C13.7402 12.5527 13.8674 12.5 14 12.5Z M28 18.5H14C13.8674 18.5 13.7402 18.5527 13.6464 18.6464C13.5527 18.7402 13.5 18.8674 13.5 19C13.5 19.1326 13.5527 19.2598 13.6464 19.3536C13.7402 19.4473 13.8674 19.5 14 19.5H28C28.1326 19.5 28.2598 19.4473 28.3536 19.3536C28.4473 19.2598 28.5 19.1326 28.5 19C28.5 18.8674 28.4473 18.7402 28.3536 18.6464C28.2598 18.5527 28.1326 18.5 28 18.5Z M28 25.5H4C3.86739 25.5 3.74021 25.4473 3.64645 25.3536C3.55268 25.2598 3.5 25.1326 3.5 25C3.5 24.8674 3.55268 24.7402 3.64645 24.6464C3.74021 24.5527 3.86739 24.5 4 24.5H28C28.1326 24.5 28.2598 24.5527 28.3536 24.6464C28.4473 24.7402 28.5 24.8674 28.5 25C28.5 25.1326 28.4473 25.2598 28.3536 25.3536C28.2598 25.4473 28.1326 25.5 28 25.5Z"/></svg>