<svg width="32" height="32" viewBox="0 0 32 32" fill="none" xmlns="http://www.w3.org/2000/svg">
<path d="M16.6853 6.69519C16.6179 6.57233 16.5187 6.46985 16.3981 6.39847C16.2775 6.32709 16.1399 6.28942 15.9998 6.28942C15.8596 6.28942 15.7221 6.32709 15.6015 6.39847C15.4809 6.46985 15.3817 6.57233 15.3142 6.69519L7.31425 24.6952C7.27423 24.7852 7.25235 24.8822 7.24983 24.9807C7.24732 25.0792 7.26423 25.1772 7.29959 25.2692C7.33496 25.3611 7.38809 25.4452 7.45595 25.5166C7.52382 25.5881 7.60508 25.6454 7.69511 25.6854C7.78513 25.7254 7.88216 25.7473 7.98065 25.7498C8.07913 25.7523 8.17715 25.7354 8.2691 25.7001C8.36105 25.6647 8.44514 25.6116 8.51655 25.5437C8.58797 25.4759 8.64533 25.3946 8.68534 25.3046L11.154 19.7499H20.8455L23.3142 25.3046C23.395 25.4864 23.5447 25.6286 23.7304 25.7001C23.9161 25.7715 24.1226 25.7662 24.3044 25.6854C24.4863 25.6046 24.6285 25.4549 24.6999 25.2692C24.7714 25.0835 24.7661 24.877 24.6853 24.6952L16.6853 6.69519ZM11.8207 18.2499L15.9998 8.84655L20.1789 18.2499H11.8207Z" fill="black"/>
<path d="M24.9998 2.24987H6.99979C5.74045 2.2513 4.5331 2.7522 3.64261 3.64269C2.75212 4.53318 2.25122 5.74053 2.24979 6.99987V24.9999C2.25122 26.2592 2.75212 27.4666 3.64261 28.357C4.5331 29.2475 5.74045 29.7484 6.99979 29.7499H24.9998C26.2591 29.7484 27.4665 29.2475 28.357 28.3571C29.2475 27.4666 29.7484 26.2592 29.7498 24.9999V6.99987C29.7484 5.74053 29.2475 4.53318 28.357 3.64269C27.4665 2.7522 26.2591 2.2513 24.9998 2.24987ZM28.2498 24.9999C28.2488 25.8615 27.9061 26.6876 27.2968 27.2969C26.6875 27.9061 25.8614 28.2489 24.9998 28.2499H6.99979C6.13814 28.2489 5.31207 27.9061 4.70279 27.2969C4.09351 26.6876 3.75078 25.8615 3.74979 24.9999V6.99987C3.75078 6.13822 4.09351 5.31215 4.70279 4.70288C5.31207 4.0936 6.13814 3.75087 6.99979 3.74987H24.9998C25.8614 3.75087 26.6875 4.09359 27.2968 4.70287C27.9061 5.31215 28.2488 6.13822 28.2498 6.99987V24.9999Z" fill="black"/>
</svg>
