<svg width="32" height="32" viewBox="0 0 32 32" fill="none" xmlns="http://www.w3.org/2000/svg">
<path d="M25 12.2495H7C6.80109 12.2495 6.61032 12.3285 6.46967 12.4692C6.32902 12.6099 6.25 12.8006 6.25 12.9995C6.25 13.1984 6.32902 13.3892 6.46967 13.5299C6.61032 13.6705 6.80109 13.7495 7 13.7495H25C25.1989 13.7495 25.3897 13.6705 25.5303 13.5299C25.671 13.3892 25.75 13.1984 25.75 12.9995C25.75 12.8006 25.671 12.6099 25.5303 12.4692C25.3897 12.3285 25.1989 12.2495 25 12.2495Z" fill="black"/>
<path d="M7 8.74953H25C25.1989 8.74953 25.3897 8.67051 25.5303 8.52986C25.671 8.38921 25.75 8.19844 25.75 7.99953C25.75 7.80062 25.671 7.60985 25.5303 7.4692C25.3897 7.32855 25.1989 7.24953 25 7.24953H7C6.80109 7.24953 6.61032 7.32855 6.46967 7.4692C6.32902 7.60985 6.25 7.80062 6.25 7.99953C6.25 8.19844 6.32902 8.38921 6.46967 8.52986C6.61032 8.67051 6.80109 8.74953 7 8.74953Z" fill="black"/>
<path d="M25 17.2495H7C6.80109 17.2495 6.61032 17.3285 6.46967 17.4692C6.32902 17.6099 6.25 17.8006 6.25 17.9995C6.25 18.1984 6.32902 18.3892 6.46967 18.5299C6.61032 18.6705 6.80109 18.7495 7 18.7495H25C25.1989 18.7495 25.3897 18.6705 25.5303 18.5299C25.671 18.3892 25.75 18.1984 25.75 17.9995C25.75 17.8006 25.671 17.6099 25.5303 17.4692C25.3897 17.3285 25.1989 17.2495 25 17.2495Z" fill="black"/>
<path d="M16 22.2495H7.03174C6.83283 22.2495 6.64206 22.3285 6.50141 22.4692C6.36076 22.6099 6.28174 22.8006 6.28174 22.9995C6.28174 23.1984 6.36076 23.3892 6.50141 23.5299C6.64206 23.6705 6.83283 23.7495 7.03174 23.7495H16C16.1989 23.7495 16.3897 23.6705 16.5303 23.5299C16.671 23.3892 16.75 23.1984 16.75 22.9995C16.75 22.8006 16.671 22.6099 16.5303 22.4692C16.3897 22.3285 16.1989 22.2495 16 22.2495Z" fill="black"/>
</svg>
