<svg xmlns="http://www.w3.org/2000/svg" width="32" height="32" viewBox="0 0 32 32"><path d="M28 7.75H4C3.80109 7.75 3.61032 7.67098 3.46967 7.53033C3.32902 7.38968 3.25 7.19891 3.25 7C3.25 6.80109 3.32902 6.61032 3.46967 6.46967C3.61032 6.32902 3.80109 6.25 4 6.25H28C28.1989 6.25 28.3897 6.32902 28.5303 6.46967C28.671 6.61032 28.75 6.80109 28.75 7C28.75 7.19891 28.671 7.38968 28.5303 7.53033C28.3897 7.67098 28.1989 7.75 28 7.75ZM14 12.25H28C28.1989 12.25 28.3897 12.329 28.5303 12.4697C28.671 12.6103 28.75 12.8011 28.75 13C28.75 13.1989 28.671 13.3897 28.5303 13.5303C28.3897 13.671 28.1989 13.75 28 13.75H14C13.8011 13.75 13.6103 13.671 13.4697 13.5303C13.329 13.3897 13.25 13.1989 13.25 13C13.25 12.8011 13.329 12.6103 13.4697 12.4697C13.6103 12.329 13.8011 12.25 14 12.25ZM28 18.25H14C13.8011 18.25 13.6103 18.329 13.4697 18.4697C13.329 18.6103 13.25 18.8011 13.25 19C13.25 19.1989 13.329 19.3897 13.4697 19.5303C13.6103 19.671 13.8011 19.75 14 19.75H28C28.1989 19.75 28.3897 19.671 28.5303 19.5303C28.671 19.3897 28.75 19.1989 28.75 19C28.75 18.8011 28.671 18.6103 28.5303 18.4697C28.3897 18.329 28.1989 18.25 28 18.25ZM28 25.75H4C3.80109 25.75 3.61032 25.671 3.46967 25.5303C3.32902 25.3897 3.25 25.1989 3.25 25C3.25 24.8011 3.32902 24.6103 3.46967 24.4697C3.61032 24.329 3.80109 24.25 4 24.25H28C28.1989 24.25 28.3897 24.329 28.5303 24.4697C28.671 24.6103 28.75 24.8011 28.75 25C28.75 25.1989 28.671 25.3897 28.5303 25.5303C28.3897 25.671 28.1989 25.75 28 25.75Z"/></svg>