<svg xmlns="http://www.w3.org/2000/svg" width="32" height="32" viewBox="0 0 32 32"><path d="M25 12.25H7C6.80109 12.25 6.61032 12.329 6.46967 12.4697C6.32902 12.6103 6.25 12.8011 6.25 13C6.25 13.1989 6.32902 13.3897 6.46967 13.5303C6.61032 13.671 6.80109 13.75 7 13.75H25C25.1989 13.75 25.3897 13.671 25.5303 13.5303C25.671 13.3897 25.75 13.1989 25.75 13C25.75 12.8011 25.671 12.6103 25.5303 12.4697C25.3897 12.329 25.1989 12.25 25 12.25ZM7 8.75H25C25.1989 8.75 25.3897 8.67098 25.5303 8.53033C25.671 8.38968 25.75 8.19891 25.75 8C25.75 7.80109 25.671 7.61032 25.5303 7.46967C25.3897 7.32902 25.1989 7.25 25 7.25H7C6.80109 7.25 6.61032 7.32902 6.46967 7.46967C6.32902 7.61032 6.25 7.80109 6.25 8C6.25 8.19891 6.32902 8.38968 6.46967 8.53033C6.61032 8.67098 6.80109 8.75 7 8.75ZM25 17.25H7C6.80109 17.25 6.61032 17.329 6.46967 17.4697C6.32902 17.6103 6.25 17.8011 6.25 18C6.25 18.1989 6.32902 18.3897 6.46967 18.5303C6.61032 18.671 6.80109 18.75 7 18.75H25C25.1989 18.75 25.3897 18.671 25.5303 18.5303C25.671 18.3897 25.75 18.1989 25.75 18C25.75 17.8011 25.671 17.6103 25.5303 17.4697C25.3897 17.329 25.1989 17.25 25 17.25ZM16 22.25H7.032C6.83309 22.25 6.64232 22.329 6.50167 22.4697C6.36102 22.6103 6.282 22.8011 6.282 23C6.282 23.1989 6.36102 23.3897 6.50167 23.5303C6.64232 23.671 6.83309 23.75 7.032 23.75H16C16.1989 23.75 16.3897 23.671 16.5303 23.5303C16.671 23.3897 16.75 23.1989 16.75 23C16.75 22.8011 16.671 22.6103 16.5303 22.4697C16.3897 22.329 16.1989 22.25 16 22.25Z"/></svg>