<svg xmlns="http://www.w3.org/2000/svg" width="32" height="32" viewBox="0 0 32 32"><path d="M7 2C5.34315 2 4 3.34315 4 5V27C4 28.6569 5.34314 30 7 30H25C26.6569 30 28 28.6569 28 27V5C28 3.34315 26.6569 2 25 2H7ZM6 5C6 4.44772 6.44772 4 7 4H25C25.5523 4 26 4.44771 26 5V27C26 27.5523 25.5523 28 25 28H7C6.44772 28 6 27.5523 6 27V5ZM9 24C9 24.5523 9.44772 25 10 25C10.5523 25 11 24.5523 11 24L11 8C11 7.44772 10.5523 7 10 7C9.44772 7 9 7.44772 9 8L9 24ZM15 24C15 24.5523 15.4477 25 16 25C16.5523 25 17 24.5523 17 24L17 8C17 7.44772 16.5523 7 16 7C15.4477 7 15 7.44772 15 8L15 24ZM22 25C21.4477 25 21 24.5523 21 24V8C21 7.44772 21.4477 7 22 7C22.5523 7 23 7.44772 23 8V24C23 24.5523 22.5523 25 22 25Z"/></svg>