<svg xmlns="http://www.w3.org/2000/svg" width="32" height="32" viewBox="0 0 32 32"><path d="M27.58 7.28311L16.587 2.61511C16.2163 2.46259 15.8004 2.46295 15.43 2.61611L4.424 7.28211C4.1501 7.39545 3.91604 7.58761 3.75153 7.8342C3.58702 8.08078 3.49947 8.37069 3.5 8.66711V23.3341C3.49941 23.6298 3.5865 23.919 3.75025 24.1651C3.91401 24.4113 4.14708 24.6034 4.42 24.7171L15.434 29.3851C15.6175 29.461 15.8141 29.4999 16.0127 29.4996C16.2113 29.4992 16.4078 29.4596 16.591 29.3831L27.577 24.7171C27.8506 24.6038 28.0845 24.4118 28.2488 24.1653C28.4131 23.9189 28.5005 23.6293 28.5 23.3331V8.66611C28.5005 8.37048 28.4133 8.08134 28.2496 7.8352C28.0858 7.58905 27.8528 7.39694 27.58 7.28311ZM15.817 3.53811C15.9394 3.48799 16.0766 3.48799 16.199 3.53811L26.695 7.99311L16.173 12.3781C16.1121 12.4039 16.0466 12.4172 15.9805 12.4172C15.9144 12.4172 15.8489 12.4039 15.788 12.3781L5.295 8.00011L15.815 3.54011L15.817 3.53811ZM4.806 23.7951C4.71502 23.7572 4.63731 23.6932 4.58267 23.6111C4.52803 23.5291 4.49892 23.4327 4.499 23.3341V8.75011L15.4 13.3001C15.432 13.3131 15.466 13.3191 15.499 13.3301V28.3261L4.807 23.7951H4.806ZM27.191 23.7951H27.188L16.5 28.3361V13.3191C16.518 13.3131 16.538 13.3101 16.556 13.3031L27.5 8.74011V23.3321C27.5001 23.4308 27.4709 23.5274 27.4161 23.6094C27.3612 23.6915 27.2833 23.7554 27.192 23.7931L27.191 23.7951Z"/></svg>