<svg xmlns="http://www.w3.org/2000/svg" width="32" height="32" viewBox="0 0 32 32"><path d="M7 2.5C5.61929 2.5 4.5 3.61929 4.5 5V27C4.5 28.3807 5.61929 29.5 7 29.5H25C26.3807 29.5 27.5 28.3807 27.5 27V5C27.5 3.61929 26.3807 2.5 25 2.5H7ZM5.5 5C5.5 4.17157 6.17157 3.5 7 3.5H25C25.8284 3.5 26.5 4.17157 26.5 5V27C26.5 27.8284 25.8284 28.5 25 28.5H7C6.17157 28.5 5.5 27.8284 5.5 27V5ZM9.5 24C9.5 24.2761 9.72386 24.5 10 24.5C10.2761 24.5 10.5 24.2761 10.5 24L10.5 8C10.5 7.72386 10.2761 7.5 10 7.5C9.72386 7.5 9.5 7.72386 9.5 8L9.5 24ZM15.5 24C15.5 24.2761 15.7239 24.5 16 24.5C16.2761 24.5 16.5 24.2761 16.5 24L16.5 8C16.5 7.72386 16.2761 7.5 16 7.5C15.7239 7.5 15.5 7.72386 15.5 8L15.5 24ZM22 24.5C21.7239 24.5 21.5 24.2761 21.5 24V8C21.5 7.72386 21.7239 7.5 22 7.5C22.2761 7.5 22.5 7.72386 22.5 8V24C22.5 24.2761 22.2761 24.5 22 24.5Z"/></svg>