<svg width="32" height="32" viewBox="0 0 32 32" fill="none" xmlns="http://www.w3.org/2000/svg">
<path d="M27.5806 7.283L16.586 2.6155C16.2153 2.46276 15.7992 2.46294 15.4287 2.616L4.4239 7.282C4.14997 7.39536 3.91591 7.58755 3.75141 7.83418C3.58692 8.0808 3.49941 8.37075 3.5 8.6672V23.3337C3.49941 23.6294 3.5865 23.9186 3.75025 24.1648C3.914 24.4111 4.14707 24.6032 4.42 24.717L15.4341 29.3845C15.6175 29.4605 15.8141 29.4995 16.0126 29.4993C16.2111 29.4991 16.4076 29.4598 16.5909 29.3835L27.5772 24.717C27.8508 24.6036 28.0846 24.4116 28.2489 24.1651C28.4132 23.9187 28.5006 23.629 28.5 23.3328V8.6663C28.5006 8.37067 28.4136 8.08149 28.25 7.83528C28.0864 7.58907 27.8534 7.39688 27.5806 7.283ZM15.8155 3.5383C15.8769 3.51288 15.9428 3.49986 16.0093 3.5C16.0742 3.49992 16.1384 3.5127 16.1983 3.5376L26.6943 7.9934L16.1719 12.3784C16.111 12.4042 16.0455 12.4176 15.9793 12.4176C15.9131 12.4176 15.8476 12.4042 15.7867 12.3784L5.2948 7.9992L15.8155 3.5383ZM4.8072 23.7952C4.71608 23.7573 4.63826 23.6932 4.58358 23.6111C4.52889 23.5289 4.49981 23.4324 4.5 23.3337V8.751L15.4014 13.301C15.4333 13.3143 15.4674 13.32 15.5 13.331V28.327L4.8072 23.7952ZM27.1924 23.7942L27.1885 23.7957L16.5 28.3358V13.3185C16.5185 13.3117 16.5381 13.3091 16.5562 13.3015L27.5 8.7406V23.3328C27.5003 23.4315 27.4712 23.5281 27.4164 23.6103C27.3616 23.6924 27.2836 23.7565 27.1924 23.7942Z" fill="black"/>
</svg>
