<svg xmlns="http://www.w3.org/2000/svg" width="32" height="32" viewBox="0 0 32 32"><path d="M27.776 6.82322L16.78 2.15522C16.2851 1.95021 15.7289 1.95021 15.234 2.15522L4.231 6.82222C3.86627 6.97342 3.55461 7.22944 3.33548 7.55788C3.11634 7.88631 2.99959 8.27239 3 8.66722V23.3342C2.99923 23.728 3.11518 24.1133 3.3332 24.4413C3.55123 24.7693 3.86156 25.0254 4.225 25.1772L15.241 29.8462C15.7362 30.0489 16.2913 30.0481 16.786 29.8442L27.77 25.1782C28.1346 25.0269 28.4462 24.7709 28.6651 24.4424C28.8841 24.114 29.0006 23.7279 29 23.3332V8.66622C29.001 8.27243 28.8852 7.88719 28.6674 7.55917C28.4495 7.23114 28.1393 6.97503 27.776 6.82322ZM16.003 3.99822L25.405 7.98822L15.98 11.9172L6.583 7.99522L16.003 3.99822ZM5.006 9.50422L15 13.6752V27.5712L5 23.3342L5.006 9.50422ZM26.993 23.3362L17 27.5842V13.6582L27 9.49122V23.3332L26.993 23.3362Z"/></svg>