<svg xmlns="http://www.w3.org/2000/svg" width="32" height="32" viewBox="0 0 32 32"><path d="M3.00006 25.9971H6.21006C6.17506 25.9621 6.13506 25.9311 6.10006 25.8971C3.80965 23.6069 2.38418 20.5934 2.06653 17.3701C1.74889 14.1467 2.55871 10.9129 4.35803 8.21975C6.15735 5.52655 8.83483 3.54055 11.9343 2.60015C15.0337 1.65975 18.3633 1.82312 21.3558 3.06243C24.3483 4.30174 26.8185 6.54032 28.3455 9.39673C29.8725 12.2531 30.3619 15.5507 29.7302 18.7274C29.0985 21.9042 27.3849 24.7637 24.8813 26.8186C22.3777 28.8736 19.239 29.9968 16.0001 29.9971C15.7348 29.9971 15.4805 29.8917 15.2929 29.7042C15.1054 29.5166 15.0001 29.2623 15.0001 28.9971C15.0001 28.7319 15.1054 28.4775 15.2929 28.29C15.4805 28.1024 15.7348 27.9971 16.0001 27.9971C18.7763 27.9972 21.4668 27.0347 23.6129 25.2735C25.7591 23.5124 27.2282 21.0616 27.7699 18.3387C28.3117 15.6158 27.8925 12.7893 26.5839 10.3408C25.2753 7.89225 23.1582 5.97324 20.5933 4.9107C18.0284 3.84817 15.1744 3.70785 12.5176 4.51366C9.86089 5.31946 7.56572 7.02154 6.02323 9.32987C4.48073 11.6382 3.78633 14.41 4.05836 17.1729C4.33039 19.9358 5.552 22.5189 7.51506 24.4821C7.66806 24.6351 7.83506 24.7801 8.00006 24.9271V20.9971C8.00006 20.7319 8.10541 20.4775 8.29295 20.29C8.48048 20.1024 8.73484 19.9971 9.00006 19.9971C9.26527 19.9971 9.51963 20.1024 9.70716 20.29C9.8947 20.4775 10.0001 20.7319 10.0001 20.9971V26.9971C9.99979 27.2622 9.89435 27.5164 9.70687 27.7039C9.51939 27.8914 9.26519 27.9968 9.00006 27.9971H3.00006C2.73484 27.9971 2.48049 27.8917 2.29295 27.7042C2.10541 27.5166 2.00006 27.2623 2.00006 26.9971C2.00006 26.7319 2.10541 26.4775 2.29295 26.29C2.48049 26.1024 2.73484 25.9971 3.00006 25.9971Z M9.29399 10.289C9.4493 10.1339 9.65133 10.0342 9.86892 10.0053C10.0865 9.97638 10.3076 10.0199 10.498 10.129L17.184 13.977C17.607 14.231 18.02 14.511 18.329 14.899C18.639 15.287 18.859 15.738 18.976 16.22C19.0712 16.7191 19.0437 17.2339 18.896 17.7201C18.7483 18.2062 18.4847 18.6492 18.128 19.011L18.044 19.095C17.7536 19.3829 17.4093 19.6108 17.0308 19.7656C16.6522 19.9203 16.2469 19.999 15.838 19.997C15.641 19.997 15.445 19.979 15.251 19.943C14.7776 19.8407 14.3315 19.6384 13.9426 19.3497C13.5537 19.061 13.2309 18.6926 12.996 18.269L9.13099 11.492C9.02245 11.3014 8.9796 11.0804 9.00906 10.863C9.03851 10.6456 9.13863 10.4439 9.29399 10.289ZM14.724 17.262C14.8149 17.4356 14.9406 17.5885 15.0932 17.7113C15.2458 17.8342 15.4221 17.9243 15.611 17.976C15.792 18.0134 15.9794 18.0061 16.157 17.9547C16.3346 17.9033 16.4969 17.8093 16.63 17.681L16.714 17.597C16.8426 17.4648 16.9368 17.303 16.9882 17.1258C17.0397 16.9487 17.0468 16.7616 17.009 16.581C16.9579 16.3931 16.8634 16.2197 16.733 16.075C16.603 15.931 16.418 15.844 16.259 15.749L12.691 13.698L14.725 17.262H14.724Z"/></svg>