<svg width="32" height="32" viewBox="0 0 32 32" fill="none" xmlns="http://www.w3.org/2000/svg">
<path d="M3 25.9967H6.21033C6.17511 25.9623 6.13533 25.9309 6.10059 25.8962C3.81042 23.6059 2.38521 20.5924 2.0678 17.3691C1.75039 14.1458 2.56043 10.9122 4.35989 8.21922C6.15935 5.52623 8.8369 3.54048 11.9363 2.60033C15.0357 1.66017 18.3652 1.82378 21.3575 3.06327C24.3498 4.30276 26.8198 6.54145 28.3466 9.39789C29.8733 12.2543 30.3624 15.5518 29.7305 18.7284C29.0987 21.905 27.3849 24.7643 24.8812 26.819C22.3775 28.8737 19.2388 29.9967 16 29.9967C15.7347 29.9967 15.4804 29.8914 15.2929 29.7038C15.1053 29.5163 15 29.262 15 28.9967C15 28.7315 15.1053 28.4772 15.2929 28.2896C15.4804 28.1021 15.7347 27.9967 16 27.9967C18.7762 27.9967 21.4666 27.034 23.6126 25.2728C25.7587 23.5115 27.2277 21.0606 27.7693 18.3377C28.3109 15.6148 27.8916 12.7883 26.5828 10.3399C25.2741 7.89144 23.1569 5.97255 20.5919 4.91014C18.027 3.84774 15.173 3.70756 12.5163 4.51349C9.85964 5.31942 7.56456 7.0216 6.02217 9.32999C4.47978 11.6384 3.78551 14.4102 4.05766 17.173C4.3298 19.9359 5.55152 22.519 7.51465 24.4821C7.66797 24.6354 7.83551 24.7801 8 24.9266V20.9967C8 20.7315 8.10536 20.4772 8.2929 20.2896C8.48043 20.1021 8.73479 19.9967 9 19.9967C9.26522 19.9967 9.51954 20.1021 9.70714 20.2896C9.89464 20.4772 10 20.7315 10 20.9967V26.9967C10 27.1281 9.97424 27.2582 9.92404 27.3795C9.87384 27.5009 9.80014 27.6111 9.70724 27.704C9.61444 27.7969 9.50414 27.8705 9.38274 27.9208C9.26142 27.971 9.13135 27.9968 9 27.9967H3C2.73479 27.9967 2.48043 27.8914 2.2929 27.7038C2.10536 27.5163 2 27.262 2 26.9967C2 26.7315 2.10536 26.4772 2.2929 26.2896C2.48043 26.1021 2.73479 25.9967 3 25.9967Z" fill="black"/>
<path d="M9.294 10.2887C9.44944 10.1338 9.65154 10.0343 9.86914 10.0056C10.0867 9.97682 10.3077 10.0204 10.4981 10.1295L17.1836 13.9772C17.6074 14.2307 18.0198 14.5115 18.3295 14.8992C18.6392 15.2868 18.8598 15.7379 18.9756 16.2204C19.0709 16.7194 19.0435 17.2342 18.8959 17.7204C18.7482 18.2065 18.4847 18.6496 18.1279 19.0114L18.0439 19.0954C17.7535 19.3832 17.4092 19.611 17.0307 19.7657C16.6521 19.9204 16.2468 19.9989 15.8379 19.9967C15.641 19.9968 15.4446 19.9788 15.251 19.943C14.7776 19.8406 14.3316 19.6383 13.9428 19.3496C13.5539 19.061 13.2312 18.6926 12.9961 18.2692L9.13086 11.4918C9.02247 11.3011 8.97973 11.0801 9.0092 10.8627C9.03868 10.6453 9.13874 10.4437 9.294 10.2887ZM14.7246 17.2623C14.8155 17.4358 14.9411 17.5887 15.0937 17.7116C15.2462 17.8344 15.4225 17.9245 15.6113 17.9762C15.7923 18.0135 15.9796 18.0062 16.1571 17.9548C16.3346 17.9034 16.4969 17.8095 16.6299 17.6813L16.7139 17.5973C16.8426 17.465 16.9368 17.3031 16.9882 17.1258C17.0396 16.9485 17.0467 16.7613 17.0088 16.5807C16.9578 16.3929 16.8633 16.2198 16.7331 16.0752C16.6028 15.9307 16.4179 15.8437 16.2588 15.7487L12.6914 13.6979L14.7246 17.2623Z" fill="black"/>
</svg>
