<svg xmlns="http://www.w3.org/2000/svg" width="32" height="32" viewBox="0 0 32 32"><path d="M25.546 6.45423C23.0144 3.92247 19.5807 2.50009 16.0004 2.5C12.42 2.49991 8.98626 3.9221 6.4545 6.45373C3.92274 8.98535 2.50036 12.419 2.50027 15.9994C2.50018 19.5797 3.92238 23.0135 6.454 25.5452C6.797 25.8832 7.159 26.2022 7.537 26.5002H3C2.86739 26.5002 2.74021 26.5529 2.64645 26.6467C2.55268 26.7404 2.5 26.8676 2.5 27.0002C2.5 27.1328 2.55268 27.26 2.64645 27.3538C2.74021 27.4476 2.86739 27.5002 3 27.5002H9C9.0657 27.5004 9.13078 27.4875 9.1915 27.4624C9.25222 27.4374 9.30739 27.4005 9.35385 27.3541C9.4003 27.3076 9.43713 27.2524 9.46221 27.1917C9.48729 27.131 9.50013 27.0659 9.5 27.0002V21.0002C9.5 20.8676 9.44732 20.7404 9.35355 20.6467C9.25979 20.5529 9.13261 20.5002 9 20.5002C8.86739 20.5002 8.74021 20.5529 8.64645 20.6467C8.55268 20.7404 8.5 20.8676 8.5 21.0002V25.9812C7.06756 24.9086 5.88253 23.5405 5.0253 21.9697C4.16807 20.3989 3.65868 18.6621 3.53168 16.8771C3.40468 15.0921 3.66305 13.3007 4.28925 11.6243C4.91545 9.94791 5.89484 8.42582 7.161 7.16123C8.61463 5.70798 10.4042 4.63563 12.3712 4.03914C14.3382 3.44265 16.422 3.34043 18.4379 3.74154C20.4539 4.14265 22.3398 5.0347 23.9287 6.3387C25.5176 7.64269 26.7604 9.31839 27.547 11.2174C28.3337 13.1164 28.6399 15.18 28.4386 17.2256C28.2372 19.2712 27.5346 21.2356 26.3928 22.9447C25.251 24.6539 23.7054 26.0552 21.8927 27.0244C20.0801 27.9936 18.0565 28.5008 16.001 28.5012C15.8684 28.5012 15.7412 28.5539 15.6474 28.6477C15.5537 28.7414 15.501 28.8686 15.501 29.0012C15.501 29.1338 15.5537 29.261 15.6474 29.3548C15.7412 29.4486 15.8684 29.5012 16.001 29.5012C18.6712 29.5013 21.2814 28.7094 23.5016 27.2259C25.7217 25.7424 27.452 23.6338 28.4738 21.1668C29.4955 18.6998 29.7626 15.9853 29.2415 13.3664C28.7204 10.7476 27.4343 8.34213 25.546 6.45423Z M17.6882 18.747L17.7732 18.663L17.7752 18.66C18.2225 18.2101 18.4904 17.6125 18.5287 16.9792C18.567 16.346 18.3731 15.7205 17.9832 15.22C17.7232 14.888 17.3772 14.652 17.0062 14.45L10.2492 10.567C10.1541 10.5125 10.0437 10.4909 9.93508 10.5053C9.82644 10.5198 9.72555 10.5695 9.64794 10.6469C9.57033 10.7243 9.5203 10.825 9.50553 10.9336C9.49077 11.0422 9.5121 11.1527 9.56624 11.248L13.4352 18.032C13.634 18.3907 13.9068 18.7031 14.2356 18.9483C14.5644 19.1935 14.9417 19.3658 15.3422 19.454C15.5052 19.484 15.6722 19.499 15.8382 19.499C16.1809 19.5014 16.5207 19.4362 16.8381 19.3071C17.1555 19.1781 17.4444 18.9877 17.6882 18.747ZM14.2982 17.529L11.3452 12.35L16.5432 15.336C16.7562 15.469 16.9942 15.599 17.1602 15.8C17.3262 16.001 17.4432 16.239 17.5002 16.494C17.5537 16.7539 17.5422 17.0231 17.4668 17.2775C17.3915 17.532 17.2546 17.764 17.0682 17.953L16.9822 18.038C16.7933 18.2247 16.5612 18.3618 16.3065 18.4372C16.0517 18.5126 15.7824 18.5238 15.5222 18.47C15.2642 18.4066 15.0222 18.2903 14.8116 18.1283C14.6011 17.9662 14.4266 17.7621 14.2992 17.529H14.2982Z"/></svg>