<svg xmlns="http://www.w3.org/2000/svg" width="32" height="32" viewBox="0 0 32 32"><path d="M29 26H25.79C25.825 25.965 25.864 25.934 25.899 25.899C28.1894 23.6089 29.6149 20.5954 29.9325 17.372C30.2502 14.1487 29.4404 10.9149 27.641 8.2217C25.8417 5.5285 23.1642 3.54251 20.0648 2.6021C16.9654 1.6617 13.6357 1.82507 10.6433 3.06438C7.65077 4.3037 5.18057 6.54227 3.65355 9.39868C2.12653 12.2551 1.63717 15.5526 2.26885 18.7294C2.90052 21.9061 4.61416 24.7656 7.11776 26.8206C9.62137 28.8755 12.7601 29.9988 15.999 29.999C16.2642 29.999 16.5186 29.8937 16.7061 29.7061C16.8937 29.5186 16.999 29.2642 16.999 28.999C16.999 28.7338 16.8937 28.4795 16.7061 28.2919C16.5186 28.1044 16.2642 27.999 15.999 27.999C13.2228 27.9987 10.5325 27.0358 8.38666 25.2743C6.2408 23.5128 4.77208 21.0618 4.23077 18.3388C3.68945 15.6158 4.10902 12.7894 5.418 10.3411C6.72697 7.89285 8.84436 5.97416 11.4094 4.912C13.9744 3.84984 16.8284 3.70992 19.485 4.51608C22.1416 5.32225 24.4365 7.02461 25.9787 9.33312C27.5209 11.6416 28.2149 14.4134 27.9426 17.1763C27.6702 19.9391 26.4483 22.5221 24.485 24.485C24.332 24.638 24.165 24.783 24 24.929V21C24 20.7348 23.8947 20.4805 23.7071 20.2929C23.5196 20.1054 23.2652 20 23 20C22.7348 20 22.4804 20.1054 22.2929 20.2929C22.1054 20.4805 22 20.7348 22 21V27C21.9996 27.1315 22.0252 27.2617 22.0753 27.3832C22.1254 27.5047 22.1991 27.6151 22.292 27.708C22.385 27.801 22.4954 27.8746 22.6169 27.9247C22.7384 27.9748 22.8686 28.0004 23 28H29C29.2652 28 29.5196 27.8947 29.7071 27.7071C29.8947 27.5196 30 27.2652 30 27C30 26.7348 29.8947 26.4805 29.7071 26.2929C29.5196 26.1054 29.2652 26 29 26Z M22.706 10.2911C22.5504 10.1363 22.3484 10.0369 22.1308 10.0081C21.9133 9.97941 21.6923 10.023 21.502 10.1321L14.816 13.9801C14.34 14.2381 13.98 14.5141 13.67 14.9021C13.3603 15.2897 13.1397 15.7407 13.024 16.2231C12.9286 16.7222 12.956 17.237 13.1037 17.7232C13.2514 18.2094 13.5151 18.6524 13.872 19.0141L13.956 19.0981C14.2463 19.386 14.5906 19.6139 14.9692 19.7687C15.3477 19.9235 15.753 20.0021 16.162 20.0001C16.359 20.0001 16.555 19.9821 16.749 19.9461C17.2222 19.8436 17.6681 19.6413 18.0568 19.3526C18.4455 19.0639 18.7681 18.6955 19.003 18.2721L22.869 11.4951C22.9778 11.3043 23.0207 11.0831 22.9913 10.8655C22.9618 10.6479 22.8616 10.446 22.706 10.2911ZM17.275 17.2651C17.1839 17.4385 17.0582 17.5913 16.9056 17.7142C16.753 17.837 16.5768 17.9272 16.388 17.9791C16.2071 18.0163 16.0199 18.0088 15.8425 17.9574C15.6651 17.906 15.5029 17.8122 15.37 17.6841L15.286 17.6001C15.1572 17.4677 15.0629 17.3058 15.0115 17.1284C14.96 16.9511 14.953 16.7638 14.991 16.5831C15.0421 16.3954 15.1366 16.2224 15.267 16.0781C15.397 15.9341 15.553 15.8681 15.741 15.7521L19.308 13.7011L17.275 17.2651Z"/></svg>