<svg xmlns="http://www.w3.org/2000/svg" width="32" height="32" viewBox="0 0 32 32"><path d="M28.9999 26.5H24.4639C24.8419 26.202 25.2029 25.883 25.5459 25.546C27.7544 23.3375 29.1289 20.4316 29.435 17.3233C29.7412 14.2151 28.9601 11.0968 27.2249 8.49988C25.4897 5.90294 22.9078 3.988 19.919 3.08134C16.9302 2.17467 13.7194 2.33238 10.8339 3.52759C7.94833 4.7228 5.56647 6.88157 4.09413 9.63606C2.6218 12.3905 2.1501 15.5703 2.7594 18.6336C3.3687 21.6969 5.0213 24.4542 7.43563 26.4356C9.84995 28.417 12.8766 29.5 15.9999 29.5C16.1325 29.5 16.2597 29.4473 16.3535 29.3536C16.4472 29.2598 16.4999 29.1326 16.4999 29C16.4999 28.8674 16.4472 28.7402 16.3535 28.6465C16.2597 28.5527 16.1325 28.5 15.9999 28.5C13.108 28.4999 10.3055 27.4971 8.07007 25.6624C5.83462 23.8277 4.30448 21.2747 3.74036 18.4383C3.17624 15.6019 3.61305 12.6577 4.97636 10.1073C6.33967 7.55686 8.54513 5.55804 11.217 4.4514C13.8888 3.34477 16.8617 3.19878 19.6291 4.03833C22.3964 4.87787 24.7871 6.651 26.3937 9.05559C28.0004 11.4602 28.7235 14.3475 28.44 17.2255C28.1565 20.1035 26.8839 22.7941 24.8389 24.839C24.4199 25.251 23.9729 25.633 23.4989 25.982V21C23.4989 20.8674 23.4462 20.7402 23.3525 20.6465C23.2587 20.5527 23.1315 20.5 22.9989 20.5C22.8663 20.5 22.7391 20.5527 22.6454 20.6465C22.5516 20.7402 22.4989 20.8674 22.4989 21V27C22.4988 27.0657 22.5116 27.1308 22.5367 27.1915C22.5618 27.2522 22.5986 27.3074 22.6451 27.3539C22.6915 27.4003 22.7467 27.4371 22.8074 27.4622C22.8681 27.4873 22.9332 27.5001 22.9989 27.5H28.9989C29.1315 27.5 29.2587 27.4473 29.3525 27.3536C29.4462 27.2598 29.4989 27.1326 29.4989 27C29.4989 26.8674 29.4462 26.7402 29.3525 26.6465C29.2587 26.5527 29.1315 26.5 28.9989 26.5H28.9999Z M21.7498 10.566L15.0298 14.432C14.6398 14.657 14.2998 14.864 14.0348 15.195C13.6352 15.6952 13.4337 16.325 13.4688 16.9642C13.5038 17.6035 13.7729 18.2075 14.2248 18.661L14.3088 18.745C14.5529 18.9864 14.8422 19.1774 15.1602 19.307C15.4781 19.4365 15.8185 19.5021 16.1618 19.5C16.3288 19.5 16.4948 19.485 16.6588 19.455C17.0604 19.3657 17.4383 19.192 17.7676 18.9454C18.0969 18.6989 18.37 18.3851 18.5688 18.025L22.4338 11.248C22.4884 11.1527 22.5101 11.0421 22.4955 10.9332C22.4809 10.8243 22.4309 10.7233 22.3532 10.6457C22.2755 10.5681 22.1744 10.5182 22.0655 10.5038C21.9566 10.4894 21.846 10.5113 21.7508 10.566H21.7498ZM17.7048 17.521C17.5776 17.7559 17.4027 17.9618 17.1915 18.1253C16.9802 18.2889 16.7371 18.4066 16.4778 18.471C16.2173 18.5251 15.9475 18.5138 15.6924 18.4383C15.4373 18.3627 15.2048 18.2252 15.0158 18.038L14.9318 17.954C14.747 17.7636 14.6111 17.5312 14.5359 17.2767C14.4606 17.0222 14.4482 16.7533 14.4998 16.493C14.5598 16.233 14.6808 15.99 14.8538 15.786C15.0268 15.581 15.2608 15.448 15.4918 15.318L20.6538 12.35L17.7038 17.521H17.7048Z"/></svg>