<svg width="32" height="32" viewBox="0 0 32 32" fill="none" xmlns="http://www.w3.org/2000/svg">
<path d="M28.9997 26.2496H25.1467C25.3421 26.0762 25.5402 25.9044 25.7224 25.7223C27.9717 23.4729 29.3714 20.5132 29.6832 17.3474C29.995 14.1817 29.1994 11.0058 27.4321 8.36087C25.6647 5.71595 23.035 3.76564 19.9909 2.84226C16.9468 1.91888 13.6767 2.07956 10.7378 3.29692C7.79893 4.51428 5.37305 6.713 3.87353 9.51845C2.37401 12.3239 1.89363 15.5625 2.51423 18.6824C3.13484 21.8023 4.81803 24.6106 7.27702 26.6286C9.736 28.6466 12.8187 29.7496 15.9997 29.7496C16.1986 29.7496 16.3894 29.6706 16.53 29.5299C16.6707 29.3893 16.7497 29.1985 16.7497 28.9996C16.7497 28.8007 16.6707 28.6099 16.53 28.4693C16.3894 28.3286 16.1986 28.2496 15.9997 28.2496C13.1656 28.2496 10.4192 27.2669 8.22841 25.4689C6.03764 23.671 4.53805 21.169 3.98517 18.3894C3.43228 15.6097 3.86031 12.7244 5.19631 10.2249C6.53232 7.72547 8.69364 5.76659 11.312 4.68205C13.9304 3.5975 16.8438 3.4544 19.5559 4.27711C22.2679 5.09983 24.6108 6.83746 26.1854 9.19394C27.7599 11.5504 28.4686 14.3799 28.1908 17.2004C27.913 20.0208 26.6658 22.6577 24.6618 24.6617C24.3719 24.9478 24.0675 25.2187 23.7497 25.4734V20.9996C23.7497 20.8007 23.6707 20.6099 23.53 20.4693C23.3894 20.3286 23.1986 20.2496 22.9997 20.2496C22.8008 20.2496 22.61 20.3286 22.4694 20.4693C22.3287 20.6099 22.2497 20.8007 22.2497 20.9996V26.9996C22.2498 27.1985 22.3288 27.3892 22.4694 27.5299C22.6101 27.6705 22.8008 27.7496 22.9997 27.7496H28.9997C29.1986 27.7496 29.3894 27.6706 29.53 27.5299C29.6707 27.3893 29.7497 27.1985 29.7497 26.9996C29.7497 26.8007 29.6707 26.6099 29.53 26.4693C29.3894 26.3286 29.1986 26.2496 28.9997 26.2496Z" fill="black"/>
<path d="M22.529 10.4683C22.4123 10.3523 22.2607 10.2779 22.0975 10.2563C21.9343 10.2348 21.7686 10.2674 21.6257 10.3492L14.9226 14.2066C14.5211 14.4453 14.125 14.681 13.8363 15.0443C13.5476 15.4077 13.3518 15.8358 13.2657 16.2918C13.1796 16.7478 13.2059 17.2179 13.3423 17.6615C13.4788 18.105 13.7212 18.5087 14.0486 18.8375L14.1326 18.9215C14.3999 19.186 14.7167 19.3953 15.0648 19.5374C15.413 19.6795 15.7858 19.7516 16.1619 19.7496C16.3437 19.7495 16.5251 19.7328 16.7039 19.6998C17.1413 19.6042 17.5534 19.4163 17.9124 19.1487C18.2714 18.8811 18.5692 18.5399 18.7859 18.148L22.6511 11.3707C22.7329 11.2278 22.7652 11.062 22.7431 10.8988C22.7211 10.7357 22.6458 10.5844 22.529 10.4683ZM17.49 17.3931C17.3809 17.5973 17.2307 17.7766 17.0488 17.9198C16.867 18.063 16.6574 18.167 16.4333 18.2251C16.2126 18.2703 15.9841 18.2608 15.7679 18.1973C15.5517 18.1338 15.3544 18.0183 15.1931 17.8609L15.1091 17.7769C14.9515 17.6162 14.8358 17.4192 14.7723 17.2033C14.7087 16.9873 14.6993 16.7591 14.7448 16.5386C14.7998 16.3139 14.9075 16.1056 15.0592 15.931C15.2109 15.7564 15.4156 15.668 15.6169 15.5347L19.9812 13.0249L17.49 17.3931Z" fill="black"/>
</svg>
