<svg xmlns="http://www.w3.org/2000/svg" width="32" height="32" viewBox="0 0 32 32"><path d="M29 26.25H25.147C25.342 26.076 25.54 25.904 25.722 25.722C27.9712 23.4724 29.3709 20.5125 29.6825 17.3467C29.994 14.1808 29.1982 11.0049 27.4306 8.35998C25.6631 5.71509 23.0331 3.76491 19.9888 2.84173C16.9446 1.91855 13.6744 2.07949 10.7355 3.29713C7.79663 4.51477 5.37086 6.71376 3.87154 9.51943C2.37221 12.3251 1.8921 15.5638 2.51302 18.6838C3.13393 21.8038 4.81745 24.6119 7.27672 26.6298C9.73599 28.6476 12.8188 29.7503 16 29.75C16.1989 29.75 16.3897 29.671 16.5303 29.5303C16.671 29.3897 16.75 29.1989 16.75 29C16.75 28.8011 16.671 28.6103 16.5303 28.4697C16.3897 28.329 16.1989 28.25 16 28.25C13.1659 28.25 10.4195 27.2674 8.22865 25.4695C6.03784 23.6715 4.53821 21.1696 3.98528 18.39C3.43235 15.6103 3.86033 12.725 5.19629 10.2255C6.53226 7.72602 8.69355 5.7671 11.3119 4.68252C13.9303 3.59793 16.8437 3.45478 19.5558 4.27746C22.2678 5.10013 24.6108 6.83773 26.1853 9.19419C27.7599 11.5507 28.4687 14.3802 28.1909 17.2006C27.9131 20.0211 26.666 22.658 24.662 24.662C24.372 24.948 24.067 25.219 23.75 25.473V21C23.75 20.8011 23.671 20.6103 23.5303 20.4697C23.3897 20.329 23.1989 20.25 23 20.25C22.8011 20.25 22.6103 20.329 22.4697 20.4697C22.329 20.6103 22.25 20.8011 22.25 21V27C22.25 27.1989 22.329 27.3897 22.4697 27.5303C22.6103 27.671 22.8011 27.75 23 27.75H29C29.1989 27.75 29.3897 27.671 29.5303 27.5303C29.671 27.3897 29.75 27.1989 29.75 27C29.75 26.8011 29.671 26.6103 29.5303 26.4697C29.3897 26.329 29.1989 26.25 29 26.25Z M22.5292 10.4682C22.4124 10.3523 22.2609 10.2779 22.0978 10.2564C21.9347 10.235 21.769 10.2675 21.6262 10.3492L14.9232 14.2072C14.5212 14.4452 14.1252 14.6812 13.8362 15.0442C13.4009 15.5927 13.182 16.282 13.2213 16.9812C13.2606 17.6804 13.5552 18.3409 14.0492 18.8372L14.1332 18.9222C14.6731 19.4562 15.4029 19.754 16.1622 19.7502C16.3442 19.7502 16.5252 19.7332 16.7042 19.7002C17.1417 19.6046 17.5538 19.4167 17.9128 19.149C18.2719 18.8814 18.5696 18.5402 18.7862 18.1482L22.6512 11.3712C22.7332 11.2283 22.7656 11.0623 22.7436 10.899C22.7215 10.7357 22.6462 10.5843 22.5292 10.4682ZM17.4902 17.3932C17.3811 17.5974 17.2308 17.7768 17.0489 17.92C16.867 18.0632 16.6573 18.1671 16.4332 18.2252C16.2125 18.2703 15.9841 18.2608 15.768 18.1973C15.5518 18.1339 15.3545 18.0185 15.1932 17.8612L15.1092 17.7772C14.9517 17.6165 14.8361 17.4196 14.7726 17.2037C14.7091 16.9878 14.6997 16.7596 14.7452 16.5392C14.8002 16.3142 14.9082 16.1062 15.0592 15.9312C15.2112 15.7562 15.4162 15.6682 15.6172 15.5352L19.9812 13.0252L17.4902 17.3932Z"/></svg>