<svg xmlns="http://www.w3.org/2000/svg" width="32" height="32" viewBox="0 0 32 32"><path d="M28.0581 23.5119L21.2231 16.6769C21.2801 16.6249 27.6081 10.3209 27.6081 10.3209C28.452 9.53309 28.9495 8.44316 28.9918 7.2895C29.0342 6.13585 28.6179 5.01237 27.8341 4.16485C27.4322 3.76483 26.9501 3.45459 26.4195 3.25464C25.8889 3.05468 25.322 2.96954 24.7561 3.00485C23.5933 3.06722 22.4958 3.56192 21.6791 4.39185L15.9871 10.0849C16.1704 9.41167 16.1726 8.70199 15.9935 8.02767C15.8144 7.35335 15.4603 6.73833 14.9671 6.24485L12.8801 4.15885C12.1382 3.41862 11.133 3.00289 10.0851 3.00289C9.03709 3.00289 8.0319 3.41862 7.29007 4.15885C7.1026 4.34638 6.99728 4.60069 6.99728 4.86585C6.99728 5.13102 7.1026 5.38532 7.29007 5.57285L9.71507 7.99685L7.99707 9.71485L5.57207 7.28985C5.38454 7.10238 5.13023 6.99706 4.86507 6.99706C4.5999 6.99706 4.3456 7.10238 4.15807 7.28985C3.41783 8.03169 3.00211 9.03687 3.00211 10.0849C3.00211 11.1328 3.41783 12.138 4.15807 12.8799L6.24607 14.9679C6.87185 15.5734 7.67651 15.9606 8.54018 16.0718C9.40384 16.1829 10.2803 16.0122 11.0391 15.5849L13.0191 17.5669L7.41607 23.1699C6.96871 22.9964 6.4806 22.9566 6.01105 23.0553C5.5415 23.154 5.11073 23.387 4.77107 23.7259L3.72507 24.7699C3.26041 25.2346 2.99942 25.865 2.99951 26.5222C2.99961 27.1794 3.26078 27.8097 3.72557 28.2744C4.19036 28.739 4.8207 29 5.47792 28.9999C6.13514 28.9998 6.76541 28.7386 7.23007 28.2739L8.27507 27.2289C8.61377 26.8889 8.8465 26.4579 8.94502 25.9882C9.04354 25.5185 9.00361 25.0303 8.83007 24.5829L14.4341 18.9799L23.5131 28.0579C24.1159 28.6606 24.9335 28.9991 25.7859 28.999C26.6384 28.9989 27.4559 28.6602 28.0586 28.0574C28.6613 27.4545 28.9998 26.6369 28.9997 25.7845C28.9996 24.9321 28.6609 24.1146 28.0581 23.5119ZM6.86107 25.8149L5.81607 26.8599C5.72642 26.9496 5.60479 27.0001 5.47792 27.0002C5.35105 27.0003 5.22934 26.95 5.13957 26.8604C5.04979 26.7707 4.9993 26.6491 4.99921 26.5222C4.99912 26.3953 5.04942 26.2736 5.13907 26.1839L6.18507 25.1389C6.26882 25.0535 6.38217 25.0037 6.50167 24.9996C6.62117 24.9955 6.73767 25.0375 6.82707 25.1169L6.88307 25.1719C6.96095 25.2621 7.00194 25.3785 6.99787 25.4977C6.99379 25.6168 6.94494 25.7301 6.86107 25.8149ZM23.0931 5.80585C23.5865 5.30104 24.2592 5.01139 24.9651 4.99985C25.2339 4.99518 25.5011 5.04406 25.7509 5.14363C26.0007 5.24321 26.2281 5.39149 26.4201 5.57985C26.828 6.05246 27.0331 6.66691 26.9908 7.28979C26.9485 7.91268 26.6622 8.49375 26.1941 8.90685C26.1941 8.90685 19.8681 15.2129 19.8091 15.2629L18.9801 14.4329L25.1501 8.26385C25.3322 8.07525 25.433 7.82265 25.4307 7.56045C25.4285 7.29825 25.3233 7.04744 25.1379 6.86203C24.9525 6.67662 24.7017 6.57146 24.4395 6.56918C24.1773 6.5669 23.9247 6.66769 23.7361 6.84985L17.5661 13.0199L16.7371 12.1899C16.7871 12.1319 23.0941 5.80585 23.0941 5.80585H23.0931ZM26.6441 26.6439C26.4159 26.8706 26.1073 26.9978 25.7856 26.9978C25.4639 26.9978 25.1553 26.8706 24.9271 26.6439L11.8361 13.5539C11.6485 13.3664 11.3942 13.2611 11.1291 13.2611C10.8639 13.2611 10.6096 13.3664 10.4221 13.5539C10.0557 13.9199 9.55896 14.1255 9.04107 14.1255C8.52317 14.1255 8.02646 13.9199 7.66007 13.5539L5.57207 11.4649C5.333 11.2257 5.16012 10.9285 5.07037 10.6025C4.98062 10.2764 4.97707 9.93268 5.06007 9.60485L6.58307 11.1279C6.95851 11.5021 7.46698 11.7122 7.99707 11.7122C8.52715 11.7122 9.03562 11.5021 9.41107 11.1279L11.1291 9.41085C11.5041 9.03563 11.7147 8.52684 11.7147 7.99635C11.7147 7.46586 11.5041 6.95708 11.1291 6.58185L9.60607 5.05985C9.93389 4.97676 10.2777 4.98026 10.6037 5.07001C10.9298 5.15977 11.227 5.3327 11.4661 5.57185L13.5541 7.65985C13.9195 8.02633 14.1248 8.52278 14.1248 9.04035C14.1248 9.55792 13.9195 10.0544 13.5541 10.4209C13.3668 10.6085 13.2617 10.8628 13.2617 11.1279C13.2617 11.3929 13.3668 11.6472 13.5541 11.8349L26.6441 24.9259C26.8718 25.1537 26.9998 25.4627 26.9998 25.7849C26.9998 26.107 26.8718 26.416 26.6441 26.6439Z"/></svg>