<svg xmlns="http://www.w3.org/2000/svg" width="32" height="32" viewBox="0 0 32 32"><path d="M25 5.5H7C5.80693 5.50132 4.66311 5.97585 3.81948 6.81948C2.97585 7.66311 2.50132 8.80693 2.5 10V22C2.50132 23.1931 2.97585 24.3369 3.81948 25.1805C4.66311 26.0241 5.80693 26.4987 7 26.5H25C26.1931 26.4987 27.3369 26.0241 28.1805 25.1805C29.0241 24.3369 29.4987 23.1931 29.5 22V10C29.4987 8.80693 29.0241 7.66311 28.1805 6.81948C27.3369 5.97585 26.1931 5.50132 25 5.5ZM7 6.5H25C25.9279 6.50106 26.8176 6.87015 27.4737 7.5263C28.1299 8.18244 28.4989 9.07207 28.5 10V17.516H3.5V10C3.50106 9.07207 3.87015 8.18244 4.5263 7.5263C5.18244 6.87015 6.07207 6.50106 7 6.5ZM25 25.5H7C6.07215 25.4987 5.18268 25.1295 4.52659 24.4734C3.8705 23.8173 3.50132 22.9279 3.5 22V18.516H28.5V22C28.4989 22.9279 28.1299 23.8176 27.4737 24.4737C26.8176 25.1299 25.9279 25.4989 25 25.5Z M24.9999 21.5H20.0239C19.8913 21.5 19.7641 21.5527 19.6704 21.6464C19.5766 21.7402 19.5239 21.8674 19.5239 22C19.5239 22.1326 19.5766 22.2598 19.6704 22.3536C19.7641 22.4473 19.8913 22.5 20.0239 22.5H24.9999C25.1325 22.5 25.2597 22.4473 25.3535 22.3536C25.4472 22.2598 25.4999 22.1326 25.4999 22C25.4999 21.8674 25.4472 21.7402 25.3535 21.6464C25.2597 21.5527 25.1325 21.5 24.9999 21.5Z"/></svg>