<svg xmlns="http://www.w3.org/2000/svg" width="32" height="32" viewBox="0 0 32 32"><path d="M25 5.25H7C5.74063 5.25132 4.53322 5.75219 3.6427 6.6427C2.75219 7.53322 2.25132 8.74063 2.25 10V22C2.25132 23.2594 2.75219 24.4668 3.6427 25.3573C4.53322 26.2478 5.74063 26.7487 7 26.75H25C26.2594 26.7487 27.4668 26.2478 28.3573 25.3573C29.2478 24.4668 29.7487 23.2594 29.75 22V10C29.7487 8.74063 29.2478 7.53322 28.3573 6.6427C27.4668 5.75219 26.2594 5.25132 25 5.25ZM7 6.75H25C25.8616 6.75106 26.6877 7.09381 27.2969 7.70307C27.9062 8.31234 28.2489 9.13837 28.25 10V17.266H3.75V10C3.75106 9.13837 4.09381 8.31234 4.70307 7.70307C5.31234 7.09381 6.13837 6.75106 7 6.75ZM25 25.25H7C6.13829 25.2492 5.3121 24.9065 4.70278 24.2972C4.09346 23.6879 3.75079 22.8617 3.75 22V18.766H28.25V22C28.2492 22.8617 27.9065 23.6879 27.2972 24.2972C26.6879 24.9065 25.8617 25.2492 25 25.25Z M24.9999 21.25H20.0239C19.825 21.25 19.6342 21.329 19.4936 21.4697C19.3529 21.6103 19.2739 21.8011 19.2739 22C19.2739 22.1989 19.3529 22.3897 19.4936 22.5303C19.6342 22.671 19.825 22.75 20.0239 22.75H24.9999C25.1988 22.75 25.3896 22.671 25.5303 22.5303C25.6709 22.3897 25.7499 22.1989 25.7499 22C25.7499 21.8011 25.6709 21.6103 25.5303 21.4697C25.3896 21.329 25.1988 21.25 24.9999 21.25Z"/></svg>