<svg xmlns="http://www.w3.org/2000/svg" width="32" height="32" viewBox="0 0 32 32"><path d="M11.8086 4C11.8086 3.58579 11.4728 3.25 11.0586 3.25C10.6444 3.25 10.3086 3.58579 10.3086 4V6.25H4C3.58579 6.25 3.25 6.58579 3.25 7C3.25 7.41421 3.58579 7.75 4 7.75H14.5236C14.3646 10.6587 13.2833 13.2242 11.5616 15.4419L7.34889 11.3102C7.05316 11.0202 6.57831 11.0248 6.28828 11.3205C5.99824 11.6163 6.00285 12.0911 6.29857 12.3812L10.5877 16.5878C9.05901 18.2383 7.16352 19.6724 5.03918 20.8878C4.67965 21.0935 4.55494 21.5517 4.76063 21.9112C4.96633 22.2707 5.42453 22.3954 5.78406 22.1898C7.98806 20.9288 10.0059 19.4121 11.658 17.6376L13.3574 19.3042C13.6531 19.5943 14.128 19.5897 14.418 19.2939C14.708 18.9982 14.7034 18.5234 14.4077 18.2333L12.6387 16.4983C14.5973 14.0287 15.8616 11.1142 16.0258 7.75H18.5C18.9142 7.75 19.25 7.41421 19.25 7C19.25 6.58579 18.9142 6.25 18.5 6.25H11.8086V4Z M21.412 12.4805C21.708 12.4805 21.9763 12.6546 22.0969 12.9249L28.6851 27.6942C28.8539 28.0724 28.684 28.5159 28.3057 28.6846C27.9275 28.8534 27.484 28.6835 27.3153 28.3052L25.0432 23.2119H17.7807L15.5087 28.3052C15.3399 28.6835 14.8965 28.8534 14.5182 28.6846C14.1399 28.5159 13.97 28.0724 14.1388 27.6942L20.727 12.9249C20.8476 12.6546 21.1159 12.4805 21.412 12.4805ZM24.3741 21.7119L21.412 15.0715L18.4498 21.7119H24.3741Z"/></svg>