<svg xmlns="http://www.w3.org/2000/svg" width="32" height="32" viewBox="0 0 32 32"><path d="M12.703 24.413C12.5719 24.7501 12.5 25.1167 12.5 25.5001C12.5 27.1569 13.8431 28.5001 15.5 28.5001C17.1569 28.5001 18.5 27.1569 18.5 25.5001C18.5 23.8432 17.1569 22.5001 15.5 22.5001C14.2463 22.5001 13.1722 23.2691 12.7237 24.3612C12.7177 24.379 12.7108 24.3963 12.703 24.413ZM13.3879 22.1026C14.0008 21.7207 14.7247 21.5001 15.5 21.5001C17.7091 21.5001 19.5 23.2909 19.5 25.5001C19.5 27.7092 17.7091 29.5001 15.5 29.5001C13.2909 29.5001 11.5 27.7092 11.5 25.5001C11.5 24.9796 11.5994 24.4823 11.7803 24.0261L13.365 18.6335L8.14577 20.1469C7.64382 20.3738 7.08666 20.5001 6.5 20.5001C4.29086 20.5001 2.5 18.7092 2.5 16.5001C2.5 14.291 4.29086 12.5001 6.5 12.5001C8.70914 12.5001 10.5 14.291 10.5 16.5001C10.5 17.268 10.2836 17.9854 9.90845 18.5946L13.6995 17.4953L17.9999 2.86111C18.0778 2.59617 18.3557 2.44451 18.6206 2.52237C18.8855 2.60022 19.0372 2.87811 18.9594 3.14305L14.8388 17.165L28.8595 13.0994C29.1247 13.0225 29.4021 13.1752 29.479 13.4404C29.5559 13.7056 29.4032 13.983 29.138 14.0599L14.5044 18.3031L13.3879 22.1026ZM3.5 16.5001C3.5 14.8432 4.84315 13.5001 6.5 13.5001C8.15685 13.5001 9.5 14.8432 9.5 16.5001C9.5 18.1569 8.15685 19.5001 6.5 19.5001C4.84315 19.5001 3.5 18.1569 3.5 16.5001Z"/></svg>