<svg xmlns="http://www.w3.org/2000/svg" width="32" height="32" viewBox="0 0 32 32"><path d="M12.9337 24.5098C12.8151 24.8171 12.75 25.151 12.75 25.5002C12.75 27.0189 13.9812 28.2502 15.5 28.2502C17.0188 28.2502 18.25 27.0189 18.25 25.5002C18.25 23.9814 17.0188 22.7502 15.5 22.7502C14.3529 22.7502 13.3698 23.4525 12.9574 24.4506C12.9503 24.4708 12.9424 24.4906 12.9337 24.5098ZM13.7943 21.6063C14.3164 21.3773 14.8934 21.2502 15.5 21.2502C17.8472 21.2502 19.75 23.1529 19.75 25.5002C19.75 27.8474 17.8472 29.7502 15.5 29.7502C13.1528 29.7502 11.25 27.8474 11.25 25.5002C11.25 24.9509 11.3542 24.426 11.5439 23.9442L12.9966 19.0007L8.23267 20.3821C7.7035 20.6186 7.11711 20.7502 6.5 20.7502C4.15279 20.7502 2.25 18.8474 2.25 16.5002C2.25 14.1529 4.15279 12.2502 6.5 12.2502C8.84721 12.2502 10.75 14.1529 10.75 16.5002C10.75 17.1014 10.6252 17.6734 10.4 18.1918L13.4983 17.2934L17.7601 2.79069C17.8768 2.39328 18.2937 2.16579 18.6911 2.28257C19.0885 2.39936 19.316 2.8162 19.1992 3.21361L15.2073 16.7979L28.7899 12.8594C29.1877 12.744 29.6037 12.973 29.7191 13.3708C29.8344 13.7687 29.6054 14.1847 29.2076 14.3L14.7056 18.5051L13.7943 21.6063ZM3.75 16.5002C3.75 14.9814 4.98122 13.7502 6.5 13.7502C8.01878 13.7502 9.25 14.9814 9.25 16.5002C9.25 18.0189 8.01878 19.2502 6.5 19.2502C4.98122 19.2502 3.75 18.0189 3.75 16.5002Z"/></svg>