<svg xmlns="http://www.w3.org/2000/svg" width="32" height="32" viewBox="0 0 32 32"><path d="M7 2C5.34315 2 4 3.34315 4 5V27C4 28.6569 5.34314 30 7 30H25C26.6569 30 28 28.6569 28 27V5C28 3.34315 26.6569 2 25 2H7ZM6 5C6 4.44772 6.44772 4 7 4H25C25.5523 4 26 4.44771 26 5V27C26 27.5523 25.5523 28 25 28H7C6.44772 28 6 27.5523 6 27V5ZM12 25C11.4477 25 11 24.5523 11 24L11 8C11 7.44772 11.4477 7 12 7C12.5523 7 13 7.44772 13 8L13 24C13 24.5523 12.5523 25 12 25ZM20 25C19.4477 25 19 24.5523 19 24L19 8C19 7.44772 19.4477 7 20 7C20.5523 7 21 7.44772 21 8V24C21 24.5523 20.5523 25 20 25Z"/></svg>