<svg width="32" height="32" viewBox="0 0 32 32" fill="none" xmlns="http://www.w3.org/2000/svg">
<path d="M24.9998 25.9997H6.99976C6.73454 25.9997 6.48019 26.105 6.29265 26.2926C6.10511 26.4801 5.99976 26.7345 5.99976 26.9997C5.99976 27.2649 6.10511 27.5193 6.29265 27.7068C6.48019 27.8943 6.73454 27.9997 6.99976 27.9997H24.9998C25.265 27.9997 25.5193 27.8943 25.7069 27.7068C25.8944 27.5193 25.9998 27.2649 25.9998 26.9997C25.9998 26.7345 25.8944 26.4801 25.7069 26.2926C25.5193 26.105 25.265 25.9997 24.9998 25.9997Z" fill="black"/>
<path d="M15.9998 23.9997C18.1207 23.9973 20.1542 23.1536 21.6539 21.6539C23.1537 20.1541 23.9973 18.1207 23.9998 15.9997V4.99968C23.9998 4.73446 23.8944 4.48011 23.7069 4.29257C23.5193 4.10504 23.265 3.99968 22.9998 3.99968C22.7345 3.99968 22.4802 4.10504 22.2926 4.29257C22.1051 4.48011 21.9998 4.73446 21.9998 4.99968V15.9997C21.9998 17.591 21.3676 19.1171 20.2424 20.2423C19.1172 21.3675 17.5911 21.9997 15.9998 21.9997C14.4085 21.9997 12.8823 21.3675 11.7571 20.2423C10.6319 19.1171 9.99976 17.591 9.99976 15.9997V4.99968C9.99976 4.73446 9.8944 4.48011 9.70686 4.29257C9.51933 4.10504 9.26497 3.99968 8.99976 3.99968C8.73454 3.99968 8.48019 4.10504 8.29265 4.29257C8.10511 4.48011 7.99976 4.73446 7.99976 4.99968V15.9997C8.00218 18.1207 8.84582 20.1541 10.3456 21.6539C11.8453 23.1536 13.8788 23.9973 15.9998 23.9997Z" fill="black"/>
</svg>
