<svg width="32" height="32" viewBox="0 0 32 32" fill="none" xmlns="http://www.w3.org/2000/svg">
<path d="M24.9998 26.4997H6.99976C6.86715 26.4997 6.73997 26.5524 6.6462 26.6461C6.55243 26.7399 6.49976 26.8671 6.49976 26.9997C6.49976 27.1323 6.55243 27.2595 6.6462 27.3532C6.73997 27.447 6.86715 27.4997 6.99976 27.4997H24.9998C25.1324 27.4997 25.2595 27.447 25.3533 27.3532C25.4471 27.2595 25.4998 27.1323 25.4998 26.9997C25.4998 26.8671 25.4471 26.7399 25.3533 26.6461C25.2595 26.5524 25.1324 26.4997 24.9998 26.4997Z" fill="black"/>
<path d="M15.9998 23.4997C17.9882 23.4975 19.8946 22.7066 21.3007 21.3006C22.7067 19.8945 23.4976 17.9881 23.4998 15.9997V4.99968C23.4998 4.86707 23.4471 4.73989 23.3533 4.64613C23.2595 4.55236 23.1324 4.49968 22.9998 4.49968C22.8671 4.49968 22.74 4.55236 22.6462 4.64613C22.5524 4.73989 22.4998 4.86707 22.4998 4.99968V15.9997C22.4998 17.7236 21.8149 19.3769 20.5959 20.5959C19.377 21.8149 17.7237 22.4997 15.9998 22.4997C14.2758 22.4997 12.6225 21.8149 11.4036 20.5959C10.1846 19.3769 9.49976 17.7236 9.49976 15.9997V4.99968C9.49976 4.86707 9.44708 4.73989 9.35331 4.64613C9.25954 4.55236 9.13236 4.49968 8.99976 4.49968C8.86715 4.49968 8.73997 4.55236 8.6462 4.64613C8.55243 4.73989 8.49976 4.86707 8.49976 4.99968V15.9997C8.50193 17.9881 9.2928 19.8945 10.6989 21.3006C12.1049 22.7066 14.0113 23.4975 15.9998 23.4997Z" fill="black"/>
</svg>
