<svg xmlns="http://www.w3.org/2000/svg" width="32" height="32" viewBox="0 0 32 32"><path d="M16 2.00002C13.2166 1.99524 10.4952 2.82166 8.18446 4.3734C5.87373 5.92513 4.07896 8.13149 3.03016 10.7097C1.98135 13.288 1.72627 16.1207 2.29761 18.8448C2.86895 21.569 4.24069 24.0604 6.23703 26H3.00003C2.73482 26 2.48046 26.1054 2.29293 26.2929C2.10539 26.4804 2.00003 26.7348 2.00003 27C2.00003 27.2652 2.10539 27.5196 2.29293 27.7071C2.48046 27.8947 2.73482 28 3.00003 28H9.00003C9.26525 28 9.5196 27.8947 9.70714 27.7071C9.89468 27.5196 10 27.2652 10 27V21C10 20.7348 9.89468 20.4804 9.70714 20.2929C9.5196 20.1054 9.26525 20 9.00003 20C8.73482 20 8.48046 20.1054 8.29293 20.2929C8.10539 20.4804 8.00003 20.7348 8.00003 21V24.925C6.13112 23.2455 4.83717 21.0213 4.30099 18.5665C3.76481 16.1117 4.01351 13.5505 5.01195 11.2447C6.0104 8.93898 7.70811 7.00522 9.86522 5.71669C12.0223 4.42816 14.5298 3.84999 17.0333 4.06388C19.5369 4.27777 21.9099 5.2729 23.8172 6.90867C25.7245 8.54444 27.0696 10.7382 27.6624 13.1799C28.2552 15.6216 28.0659 18.1879 27.1211 20.5161C26.1763 22.8444 24.5237 24.8169 22.397 26.155C22.1811 26.3003 22.0303 26.524 21.9767 26.7787C21.9231 27.0334 21.9708 27.2989 22.1099 27.519C22.2489 27.739 22.4682 27.8961 22.7213 27.957C22.9743 28.0179 23.2411 27.9777 23.465 27.845C26.0321 26.2259 28.0035 23.8165 29.0825 20.9797C30.1614 18.1429 30.2894 15.0324 29.4472 12.1166C28.605 9.20072 26.8382 6.63747 24.4129 4.81286C21.9876 2.98825 19.0351 2.00108 16 2.00002Z"/></svg>