<svg xmlns="http://www.w3.org/2000/svg" width="32" height="32" viewBox="0 0 32 32"><path d="M16 2.25001C13.2137 2.24725 10.4924 3.09194 8.1973 4.67196C5.90225 6.25198 4.14198 8.49261 3.15013 11.0964C2.15829 13.7003 1.98177 16.5442 2.64402 19.2507C3.30626 21.9572 4.77595 24.3983 6.858 26.25H3C2.80109 26.25 2.61032 26.329 2.46967 26.4697C2.32902 26.6103 2.25 26.8011 2.25 27C2.25 27.1989 2.32902 27.3897 2.46967 27.5303C2.61032 27.671 2.80109 27.75 3 27.75H9C9.19891 27.75 9.38968 27.671 9.53033 27.5303C9.67098 27.3897 9.75 27.1989 9.75 27V21C9.75 20.8011 9.67098 20.6103 9.53033 20.4697C9.38968 20.329 9.19891 20.25 9 20.25C8.80109 20.25 8.61032 20.329 8.46967 20.4697C8.32902 20.6103 8.25 20.8011 8.25 21V25.473C6.24782 23.8315 4.81772 21.5974 4.1653 19.0919C3.51287 16.5864 3.67174 13.9386 4.61905 11.529C5.56636 9.1195 7.25332 7.07242 9.4374 5.68209C11.6215 4.29177 14.1902 3.62981 16.7742 3.79139C19.3582 3.95297 21.8244 4.92976 23.8183 6.58134C25.8122 8.23292 27.231 10.4742 27.8707 12.983C28.5105 15.4917 28.3383 18.1388 27.3788 20.5435C26.4193 22.9482 24.7221 24.9867 22.531 26.366C22.446 26.4178 22.3722 26.486 22.3139 26.5666C22.2555 26.6472 22.2138 26.7386 22.1911 26.8354C22.1684 26.9323 22.1652 27.0327 22.1818 27.1309C22.1983 27.229 22.2341 27.3228 22.2873 27.407C22.3404 27.4911 22.4098 27.5638 22.4913 27.6208C22.5728 27.6779 22.6649 27.7182 22.7621 27.7393C22.8593 27.7604 22.9598 27.762 23.0576 27.7439C23.1555 27.7259 23.2487 27.6885 23.332 27.634C25.8542 26.0443 27.7913 23.6779 28.8516 20.8914C29.9119 18.105 30.0379 15.0494 29.2106 12.1851C28.3833 9.32083 26.6475 6.80302 24.2647 5.01106C21.882 3.2191 18.9814 2.25008 16 2.25001Z"/></svg>