<svg xmlns="http://www.w3.org/2000/svg" width="32" height="32" viewBox="0 0 32 32"><path d="M23.3531 22.6462C23.3066 22.5998 23.2515 22.563 23.1909 22.5378C23.1302 22.5127 23.0652 22.4998 22.9996 22.4998C22.9339 22.4998 22.8689 22.5127 22.8082 22.5378C22.7476 22.563 22.6925 22.5998 22.6461 22.6462C22.5996 22.6926 22.5628 22.7477 22.5377 22.8084C22.5126 22.8691 22.4996 22.9341 22.4996 22.9997C22.4996 23.0654 22.5126 23.1304 22.5377 23.191C22.5628 23.2517 22.5996 23.3068 22.6461 23.3532L26.6461 27.3532C26.7404 27.4443 26.8667 27.4947 26.9978 27.4936C27.1288 27.4924 27.2543 27.4398 27.347 27.3471C27.4397 27.2544 27.4922 27.129 27.4934 26.9979C27.4945 26.8668 27.4441 26.7405 27.3531 26.6462L23.3531 22.6462ZM30.0001 19.5002H25.0001C24.8674 19.5002 24.7403 19.5529 24.6465 19.6467C24.5527 19.7404 24.5001 19.8676 24.5001 20.0002C24.5001 20.1328 24.5527 20.26 24.6465 20.3538C24.7403 20.4475 24.8674 20.5002 25.0001 20.5002H30.0001C30.1327 20.5002 30.2598 20.4475 30.3536 20.3538C30.4474 20.26 30.5001 20.1328 30.5001 20.0002C30.5001 19.8676 30.4474 19.7404 30.3536 19.6467C30.2598 19.5529 30.1327 19.5002 30.0001 19.5002ZM20.0001 24.5002C19.8674 24.5002 19.7403 24.5529 19.6465 24.6467C19.5527 24.7404 19.5001 24.8676 19.5001 25.0002V30.0002C19.5001 30.1328 19.5527 30.26 19.6465 30.3538C19.7403 30.4475 19.8674 30.5002 20.0001 30.5002C20.1327 30.5002 20.2598 30.4475 20.3536 30.3538C20.4474 30.26 20.5001 30.1328 20.5001 30.0002V25.0002C20.5001 24.8676 20.4474 24.7404 20.3536 24.6467C20.2598 24.5529 20.1327 24.5002 20.0001 24.5002ZM20.6461 10.6462L10.6461 20.6462C10.5983 20.6923 10.5602 20.7475 10.534 20.8085C10.5078 20.8695 10.494 20.9351 10.4934 21.0015C10.4929 21.0679 10.5055 21.1337 10.5306 21.1952C10.5558 21.2566 10.5929 21.3125 10.6399 21.3594C10.6868 21.4064 10.7426 21.4435 10.8041 21.4686C10.8655 21.4938 10.9314 21.5064 10.9978 21.5058C11.0641 21.5053 11.1298 21.4915 11.1908 21.4653C11.2518 21.4391 11.3069 21.401 11.3531 21.3532L21.3531 11.3532C21.4441 11.2589 21.4945 11.1326 21.4934 11.0015C21.4923 10.8704 21.4397 10.745 21.347 10.6523C21.2543 10.5596 21.1289 10.507 20.9978 10.5059C20.8667 10.5047 20.7404 10.5551 20.6461 10.6462Z M15.814 24.6452L13.711 26.7482C12.5893 27.87 11.0678 28.5004 9.48136 28.5004C7.8949 28.5005 6.37338 27.8704 5.25151 26.7487C4.12964 25.6269 3.49933 24.1055 3.49924 22.519C3.49915 20.9326 4.12928 19.411 5.25101 18.2892L7.28901 16.2522C8.29361 15.2476 9.6229 14.6333 11.039 14.5192C11.1712 14.5086 11.2938 14.4459 11.3798 14.3449C11.4658 14.2439 11.5081 14.1129 11.4975 13.9807C11.4869 13.8485 11.4242 13.7259 11.3232 13.6399C11.2222 13.5539 11.0912 13.5116 10.959 13.5222C9.30611 13.6555 7.75457 14.3726 6.58201 15.5452L4.54501 17.5822C3.23577 18.8914 2.50024 20.6671 2.50024 22.5187C2.50024 24.3702 3.23577 26.1459 4.54501 27.4552C5.85425 28.7644 7.62996 29.4999 9.48151 29.4999C11.3331 29.4999 13.1088 28.7644 14.418 27.4552L16.521 25.3522C16.6121 25.2579 16.6625 25.1316 16.6613 25.0005C16.6602 24.8694 16.6076 24.744 16.5149 24.6513C16.4222 24.5586 16.2968 24.506 16.1657 24.5048C16.0346 24.5037 15.9083 24.5541 15.814 24.6452ZM13.988 11.5002C14.1192 11.5051 14.2472 11.4597 14.3459 11.3732C14.4447 11.2868 14.5066 11.1658 14.519 11.0352C14.5946 9.6106 15.2146 8.26952 16.251 7.28918L18.289 5.25218C19.4109 4.13031 20.9325 3.50006 22.519 3.50006C24.1056 3.50006 25.6271 4.13031 26.749 5.25218C27.8709 6.37404 28.5011 7.89562 28.5011 9.48218C28.5011 11.0687 27.8709 12.5903 26.749 13.7122L24.65 15.8092C24.6023 15.8553 24.5642 15.9105 24.538 15.9715C24.5118 16.0325 24.498 16.0981 24.4974 16.1645C24.4968 16.2309 24.5095 16.2967 24.5346 16.3582C24.5597 16.4196 24.5969 16.4754 24.6438 16.5224C24.6908 16.5693 24.7466 16.6064 24.808 16.6316C24.8695 16.6567 24.9353 16.6694 25.0017 16.6688C25.0681 16.6682 25.1337 16.6544 25.1947 16.6282C25.2557 16.602 25.3109 16.5639 25.357 16.5162L27.456 14.4182C28.7427 13.1042 29.459 11.3355 29.4493 9.49644C29.4396 7.65736 28.7047 5.89638 27.4042 4.596C26.1037 3.29562 24.3426 2.56088 22.5035 2.55136C20.6645 2.54185 18.8959 3.25833 17.582 4.54518L15.557 6.56918C14.3401 7.72114 13.6114 9.29596 13.521 10.9692C13.5125 11.1016 13.5569 11.232 13.6445 11.3318C13.732 11.4315 13.8556 11.4924 13.988 11.5012V11.5002Z"/></svg>