<svg xmlns="http://www.w3.org/2000/svg" width="32" height="32" viewBox="0 0 32 32"><path d="M23.5299 22.4698C23.4078 22.344 23.2455 22.2649 23.0712 22.2462C22.8969 22.2274 22.7215 22.2703 22.5755 22.3673C22.4294 22.4643 22.3219 22.6094 22.2716 22.7773C22.2213 22.9452 22.2313 23.1255 22.2999 23.2868C22.3398 23.3784 22.3976 23.461 22.4699 23.5298L26.4699 27.5298C26.6121 27.6623 26.8001 27.7345 26.9944 27.731C27.1887 27.7276 27.3741 27.6489 27.5115 27.5115C27.6489 27.3741 27.7277 27.1887 27.7311 26.9944C27.7345 26.8001 27.6624 26.612 27.5299 26.4698L23.5299 22.4698ZM29.9999 19.2498H24.9999C24.801 19.2498 24.6102 19.3289 24.4696 19.4695C24.3289 19.6102 24.2499 19.8009 24.2499 19.9998C24.2499 20.1988 24.3289 20.3895 24.4696 20.5302C24.6102 20.6708 24.801 20.7498 24.9999 20.7498H29.9999C30.1988 20.7498 30.3896 20.6708 30.5302 20.5302C30.6709 20.3895 30.7499 20.1988 30.7499 19.9998C30.7499 19.8009 30.6709 19.6102 30.5302 19.4695C30.3896 19.3289 30.1988 19.2498 29.9999 19.2498ZM19.9999 24.2498C19.801 24.2498 19.6102 24.3289 19.4696 24.4695C19.3289 24.6102 19.2499 24.8009 19.2499 24.9998V29.9998C19.2499 30.1988 19.3289 30.3895 19.4696 30.5302C19.6102 30.6708 19.801 30.7498 19.9999 30.7498C20.1988 30.7498 20.3896 30.6708 20.5302 30.5302C20.6709 30.3895 20.7499 30.1988 20.7499 29.9998V24.9998C20.7499 24.8009 20.6709 24.6102 20.5302 24.4695C20.3896 24.3289 20.1988 24.2498 19.9999 24.2498ZM20.4699 10.4698L10.4699 20.4698C10.3962 20.5385 10.3371 20.6213 10.2961 20.7133C10.2551 20.8053 10.2331 20.9046 10.2313 21.0053C10.2295 21.106 10.2481 21.2061 10.2858 21.2994C10.3235 21.3928 10.3797 21.4777 10.4509 21.5489C10.5221 21.6201 10.6069 21.6762 10.7003 21.714C10.7937 21.7517 10.8937 21.7702 10.9944 21.7684C11.0951 21.7667 11.1944 21.7446 11.2864 21.7036C11.3784 21.6626 11.4612 21.6035 11.5299 21.5298L21.5299 11.5298C21.6624 11.3877 21.7345 11.1996 21.7311 11.0053C21.7277 10.811 21.6489 10.6256 21.5115 10.4882C21.3741 10.3508 21.1887 10.2721 20.9944 10.2687C20.8001 10.2652 20.6121 10.3374 20.4699 10.4698Z M15.637 24.4678L13.535 26.5708C13.0068 27.121 12.3742 27.5604 11.6741 27.8631C10.9741 28.1658 10.2206 28.3258 9.45798 28.3337C8.69531 28.3415 7.93874 28.1971 7.23257 27.9089C6.52641 27.6208 5.88485 27.1945 5.34546 26.6553C4.80608 26.1161 4.37972 25.4746 4.09135 24.7685C3.80299 24.0624 3.65841 23.3059 3.6661 22.5432C3.67378 21.7805 3.83357 21.0271 4.1361 20.3269C4.43864 19.6268 4.87783 18.994 5.42797 18.4658L7.46497 16.4288C8.42766 15.4658 9.70171 14.877 11.059 14.7678C11.1585 14.7618 11.2558 14.736 11.3452 14.6919C11.4346 14.6478 11.5144 14.5864 11.5798 14.5111C11.6452 14.4359 11.6949 14.3483 11.7261 14.2537C11.7573 14.159 11.7692 14.059 11.7613 13.9596C11.7534 13.8602 11.7258 13.7634 11.68 13.6749C11.6343 13.5863 11.5713 13.5078 11.4948 13.4438C11.4183 13.3798 11.3299 13.3318 11.2346 13.3024C11.1393 13.273 11.0392 13.263 10.94 13.2728C9.22747 13.4104 7.61986 14.153 6.40497 15.3678L4.36797 17.4048C3.01192 18.761 2.25015 20.6003 2.25024 22.5181C2.25034 24.436 3.01229 26.2752 4.36847 27.6313C5.72466 28.9873 7.56398 29.7491 9.48183 29.749C11.3997 29.7489 13.2389 28.987 14.595 27.6308L16.698 25.5288C16.8224 25.4064 16.9003 25.2444 16.9183 25.0708C16.9363 24.8972 16.8933 24.7227 16.7966 24.5774C16.6999 24.432 16.5556 24.3249 16.3885 24.2745C16.2214 24.224 16.042 24.2333 15.881 24.3008C15.7893 24.3397 15.7064 24.3964 15.637 24.4678ZM13.971 11.7498C14.1689 11.7603 14.3631 11.6929 14.5121 11.5621C14.661 11.4313 14.7528 11.2474 14.768 11.0498C14.8409 9.68607 15.4352 8.40259 16.428 7.46477L18.465 5.42777C19.5399 4.35272 20.9979 3.7487 22.5181 3.74861C24.0384 3.74852 25.4964 4.35235 26.5715 5.42727C27.6465 6.50219 28.2505 7.96015 28.2506 9.48042C28.2507 11.0007 27.6469 12.4587 26.572 13.5338L24.473 15.6318C24.3993 15.7004 24.3402 15.7832 24.2992 15.8752C24.2582 15.9672 24.2362 16.0665 24.2344 16.1672C24.2326 16.2679 24.2511 16.368 24.2888 16.4614C24.3266 16.5548 24.3827 16.6396 24.4539 16.7108C24.5252 16.782 24.61 16.8382 24.7034 16.8759C24.7968 16.9136 24.8968 16.9321 24.9975 16.9304C25.0982 16.9286 25.1975 16.9065 25.2895 16.8656C25.3815 16.8246 25.4643 16.7655 25.533 16.6918L27.633 14.5938C28.9795 13.2353 29.7331 11.3988 29.7287 9.48608C29.7244 7.57336 28.9625 5.74026 27.6098 4.38796C26.2571 3.03566 24.4238 2.27431 22.511 2.27052C20.5983 2.26674 18.762 3.02083 17.404 4.36777L15.386 6.38677C14.1224 7.58184 13.3654 9.21611 13.271 10.9528C13.2646 11.0511 13.2776 11.1497 13.3094 11.2429C13.3411 11.3362 13.3909 11.4223 13.4559 11.4963C13.5209 11.5703 13.5998 11.6308 13.6882 11.6743C13.7766 11.7177 13.8727 11.7434 13.971 11.7498Z"/></svg>