<svg width="32" height="32" viewBox="0 0 32 32" fill="none" xmlns="http://www.w3.org/2000/svg">
<path d="M23.53 22.47C23.461 22.3976 23.3782 22.3397 23.2865 22.2997C23.1949 22.2597 23.0961 22.2385 22.9961 22.2372C22.8961 22.236 22.7968 22.2548 22.7042 22.2924C22.6116 22.3301 22.5274 22.386 22.4566 22.4567C22.3859 22.5274 22.33 22.6115 22.2922 22.7041C22.2545 22.7967 22.2357 22.896 22.2368 22.996C22.238 23.096 22.2592 23.1948 22.2991 23.2865C22.339 23.3782 22.3969 23.461 22.4693 23.53L26.4693 27.53C26.6109 27.6651 26.7998 27.7394 26.9956 27.7371C27.1914 27.7348 27.3785 27.6561 27.5169 27.5177C27.6554 27.3793 27.7343 27.1922 27.7367 26.9965C27.7392 26.8007 27.665 26.6118 27.53 26.47L23.53 22.47Z" fill="black"/>
<path d="M30 19.25H25C24.801 19.25 24.6103 19.329 24.4696 19.4697C24.329 19.6103 24.25 19.8011 24.25 20C24.25 20.1989 24.329 20.3897 24.4696 20.5303C24.6103 20.671 24.801 20.75 25 20.75H30C30.1989 20.75 30.3896 20.671 30.5303 20.5303C30.6709 20.3897 30.75 20.1989 30.75 20C30.75 19.8011 30.6709 19.6103 30.5303 19.4697C30.3896 19.329 30.1989 19.25 30 19.25Z" fill="black"/>
<path d="M20 24.25C19.801 24.25 19.6103 24.329 19.4696 24.4697C19.329 24.6103 19.25 24.8011 19.25 25V30C19.25 30.1989 19.329 30.3897 19.4696 30.5303C19.6103 30.671 19.801 30.75 20 30.75C20.1989 30.75 20.3896 30.671 20.5303 30.5303C20.6709 30.3897 20.75 30.1989 20.75 30V25C20.75 24.8011 20.6709 24.6103 20.5303 24.4697C20.3896 24.329 20.1989 24.25 20 24.25Z" fill="black"/>
<path d="M20.4693 10.47L10.4693 20.47C10.3969 20.539 10.339 20.6218 10.2991 20.7135C10.2592 20.8052 10.238 20.904 10.2368 21.004C10.2357 21.104 10.2545 21.2033 10.2922 21.2959C10.33 21.3885 10.3859 21.4726 10.4566 21.5433C10.5274 21.614 10.6116 21.6699 10.7042 21.7076C10.7968 21.7452 10.8961 21.764 10.9961 21.7628C11.0961 21.7615 11.1949 21.7403 11.2865 21.7003C11.3782 21.6603 11.461 21.6024 11.53 21.53L21.53 11.53C21.665 11.3882 21.7392 11.1993 21.7367 11.0035C21.7343 10.8078 21.6554 10.6207 21.5169 10.4823C21.3785 10.3439 21.1914 10.2652 20.9956 10.2629C20.7998 10.2606 20.6109 10.3349 20.4693 10.47Z" fill="black"/>
<path d="M15.6372 24.4682L13.5347 26.5712C13.003 27.1062 12.3711 27.531 11.675 27.8213C10.9788 28.1116 10.2323 28.2616 9.47808 28.2629C8.72387 28.2641 7.97683 28.1164 7.27979 27.8284C6.58275 27.5403 5.94941 27.1176 5.41607 26.5843C4.88273 26.051 4.45988 25.4177 4.17176 24.7207C3.88364 24.0237 3.73591 23.2767 3.73704 22.5225C3.73818 21.7683 3.88815 21.0217 4.17836 20.3255C4.46857 19.6294 4.89332 18.9974 5.42825 18.4657L7.46535 16.4286C8.42802 15.4658 9.70195 14.8772 11.0591 14.768C11.1579 14.761 11.2544 14.7346 11.3429 14.6901C11.4314 14.6457 11.5103 14.5841 11.5749 14.509C11.6395 14.4339 11.6886 14.3468 11.7194 14.2526C11.7501 14.1584 11.7619 14.0591 11.754 13.9603C11.7462 13.8615 11.7188 13.7653 11.6736 13.6772C11.6283 13.5891 11.566 13.5108 11.4903 13.4468C11.4146 13.3829 11.327 13.3346 11.2325 13.3048C11.1381 13.2749 11.0386 13.264 10.94 13.2728C9.22734 13.4104 7.61964 14.1532 6.40475 15.3681L4.36765 17.4052C3.69621 18.0767 3.1636 18.874 2.80026 19.7514C2.43691 20.6287 2.24993 21.5691 2.25 22.5187C2.25007 23.4684 2.43718 24.4087 2.80066 25.286C3.16414 26.1634 3.69686 26.9605 4.3684 27.632C5.03995 28.3034 5.83718 28.836 6.71456 29.1994C7.59194 29.5627 8.53229 29.7497 9.48194 29.7496C10.4316 29.7495 11.3719 29.5624 12.2492 29.1989C13.1266 28.8355 13.9237 28.3027 14.5952 27.6312L16.6978 25.5287C16.769 25.4594 16.8259 25.3767 16.8649 25.2853C16.9039 25.1938 16.9244 25.0956 16.9251 24.9962C16.9258 24.8968 16.9067 24.7982 16.869 24.7063C16.8313 24.6143 16.7757 24.5307 16.7054 24.4605C16.6351 24.3902 16.5516 24.3346 16.4596 24.2969C16.3676 24.2592 16.2691 24.2401 16.1697 24.2408C16.0703 24.2415 15.972 24.262 15.8806 24.3011C15.7892 24.3401 15.7064 24.3969 15.6372 24.4682Z" fill="black"/>
<path d="M13.9712 11.75C14.1691 11.7605 14.3633 11.6931 14.5122 11.5623C14.6611 11.4315 14.7529 11.2476 14.7681 11.05C14.8411 9.68631 15.4354 8.40284 16.4281 7.465L18.4652 5.4279C19.5401 4.35292 20.998 3.74899 22.5182 3.74895C24.0384 3.74891 25.4964 4.35278 26.5714 5.4277C27.6463 6.50262 28.2503 7.96055 28.2503 9.48076C28.2503 11.001 27.6465 12.4589 26.5716 13.5339L24.473 15.6315C24.4017 15.7008 24.3448 15.7835 24.3058 15.8749C24.2668 15.9663 24.2463 16.0646 24.2456 16.164C24.2449 16.2634 24.2639 16.3619 24.3016 16.4539C24.3393 16.5459 24.3949 16.6295 24.4652 16.6997C24.5355 16.77 24.619 16.8257 24.711 16.8634C24.803 16.9011 24.9015 16.9201 25.0009 16.9194C25.1003 16.9187 25.1986 16.8982 25.29 16.8592C25.3814 16.8202 25.4642 16.7634 25.5335 16.6921L27.6322 14.5944C28.9671 13.2338 29.7108 11.4012 29.7017 9.49506C29.6926 7.58897 28.9313 5.76356 27.5834 4.4158C26.2355 3.06805 24.41 2.30694 22.5039 2.29801C20.5978 2.28908 18.7652 3.03304 17.4048 4.3681L15.3872 6.3866C14.1234 7.58172 13.3663 9.21617 13.272 10.953C13.2591 11.1514 13.3255 11.3468 13.4566 11.4962C13.5877 11.6457 13.7728 11.737 13.9712 11.75Z" fill="black"/>
</svg>
