<svg width="32" height="32" viewBox="0 0 32 32" fill="none" xmlns="http://www.w3.org/2000/svg">
<path d="M23.5299 22.4701C23.4078 22.3443 23.2455 22.2651 23.0712 22.2464C22.8969 22.2277 22.7215 22.2705 22.5755 22.3675C22.4294 22.4646 22.3219 22.6096 22.2716 22.7775C22.2213 22.9455 22.2313 23.1258 22.2999 23.2871C22.3398 23.3786 22.3976 23.4612 22.4699 23.5301L26.4699 27.5301C26.6121 27.6626 26.8001 27.7347 26.9944 27.7313C27.1887 27.7278 27.3741 27.6491 27.5115 27.5117C27.6489 27.3743 27.7277 27.1889 27.7311 26.9946C27.7345 26.8003 27.6624 26.6123 27.5299 26.4701L23.5299 22.4701ZM29.9999 19.2501H24.9999C24.801 19.2501 24.6102 19.3291 24.4696 19.4698C24.3289 19.6104 24.2499 19.8012 24.2499 20.0001C24.2499 20.199 24.3289 20.3898 24.4696 20.5304C24.6102 20.6711 24.801 20.7501 24.9999 20.7501H29.9999C30.1988 20.7501 30.3896 20.6711 30.5302 20.5304C30.6709 20.3898 30.7499 20.199 30.7499 20.0001C30.7499 19.8012 30.6709 19.6104 30.5302 19.4698C30.3896 19.3291 30.1988 19.2501 29.9999 19.2501ZM19.9999 24.2501C19.801 24.2501 19.6102 24.3291 19.4696 24.4698C19.3289 24.6104 19.2499 24.8012 19.2499 25.0001V30.0001C19.2499 30.199 19.3289 30.3898 19.4696 30.5304C19.6102 30.6711 19.801 30.7501 19.9999 30.7501C20.1988 30.7501 20.3896 30.6711 20.5302 30.5304C20.6709 30.3898 20.7499 30.199 20.7499 30.0001V25.0001C20.7499 24.8012 20.6709 24.6104 20.5302 24.4698C20.3896 24.3291 20.1988 24.2501 19.9999 24.2501V24.2501ZM20.4699 10.4701L10.4699 20.4701C10.3962 20.5388 10.3371 20.6216 10.2961 20.7136C10.2551 20.8056 10.2331 20.9049 10.2313 21.0056C10.2295 21.1063 10.2481 21.2063 10.2858 21.2997C10.3235 21.3931 10.3797 21.4779 10.4509 21.5491C10.5221 21.6203 10.6069 21.6765 10.7003 21.7142C10.7937 21.7519 10.8937 21.7705 10.9944 21.7687C11.0951 21.7669 11.1944 21.7449 11.2864 21.7039C11.3784 21.6629 11.4612 21.6038 11.5299 21.5301L21.5299 11.5301C21.6624 11.3879 21.7345 11.1999 21.7311 11.0056C21.7277 10.8113 21.6489 10.6259 21.5115 10.4885C21.3741 10.3511 21.1887 10.2723 20.9944 10.2689C20.8001 10.2655 20.6121 10.3376 20.4699 10.4701V10.4701Z" fill="#0F0F0F"/>
<path d="M15.637 24.468L13.535 26.571C13.0068 27.1213 12.3742 27.5606 11.6741 27.8633C10.9741 28.1661 10.2206 28.326 9.45798 28.3339C8.69531 28.3418 7.93874 28.1974 7.23257 27.9092C6.52641 27.621 5.88485 27.1948 5.34546 26.6555C4.80608 26.1163 4.37972 25.4748 4.09135 24.7687C3.80299 24.0626 3.65841 23.3061 3.6661 22.5434C3.67378 21.7808 3.83357 21.0273 4.1361 20.3272C4.43864 19.627 4.87783 18.9943 5.42797 18.466L7.46497 16.429C8.42766 15.466 9.70171 14.8772 11.059 14.768C11.1585 14.762 11.2558 14.7362 11.3452 14.6921C11.4346 14.6481 11.5144 14.5866 11.5798 14.5114C11.6452 14.4361 11.6949 14.3486 11.7261 14.2539C11.7573 14.1592 11.7692 14.0592 11.7613 13.9599C11.7534 13.8605 11.7258 13.7637 11.68 13.6751C11.6343 13.5866 11.5713 13.508 11.4948 13.444C11.4183 13.3801 11.3299 13.332 11.2346 13.3027C11.1393 13.2733 11.0392 13.2632 10.94 13.273C9.22747 13.4106 7.61986 14.1533 6.40497 15.368L4.36797 17.405C3.01192 18.7612 2.25015 20.6005 2.25024 22.5184C2.25034 24.4362 3.01229 26.2755 4.36847 27.6315C5.72466 28.9876 7.56398 29.7493 9.48183 29.7492C11.3997 29.7491 13.2389 28.9872 14.595 27.631L16.698 25.529C16.8224 25.4066 16.9003 25.2447 16.9183 25.071C16.9363 24.8974 16.8933 24.7229 16.7966 24.5776C16.6999 24.4323 16.5556 24.3252 16.3885 24.2747C16.2214 24.2242 16.042 24.2335 15.881 24.301C15.7893 24.3399 15.7064 24.3967 15.637 24.468V24.468ZM13.971 11.75C14.1689 11.7605 14.3631 11.6932 14.5121 11.5624C14.661 11.4315 14.7528 11.2477 14.768 11.05C14.8409 9.68632 15.4352 8.40283 16.428 7.46501L18.465 5.42801C19.5399 4.35296 20.9979 3.74895 22.5181 3.74885C24.0384 3.74876 25.4964 4.35259 26.5715 5.42751C27.6465 6.50244 28.2505 7.9604 28.2506 9.48066C28.2507 11.0009 27.6469 12.459 26.572 13.534L24.473 15.632C24.3993 15.7007 24.3402 15.7835 24.2992 15.8755C24.2582 15.9675 24.2362 16.0668 24.2344 16.1675C24.2326 16.2682 24.2511 16.3682 24.2888 16.4616C24.3266 16.555 24.3827 16.6398 24.4539 16.7111C24.5252 16.7823 24.61 16.8384 24.7034 16.8761C24.7968 16.9139 24.8968 16.9324 24.9975 16.9306C25.0982 16.9288 25.1975 16.9068 25.2895 16.8658C25.3815 16.8248 25.4643 16.7657 25.533 16.692L27.633 14.594C28.9795 13.2356 29.7331 11.399 29.7287 9.48632C29.7244 7.57361 28.9625 5.74051 27.6098 4.38821C26.2571 3.03591 24.4238 2.27455 22.511 2.27077C20.5983 2.26698 18.762 3.02108 17.404 4.36801L15.386 6.38701C14.1224 7.58209 13.3654 9.21636 13.271 10.953C13.2646 11.0513 13.2776 11.1499 13.3094 11.2432C13.3411 11.3364 13.3909 11.4225 13.4559 11.4965C13.5209 11.5705 13.5998 11.631 13.6882 11.6745C13.7766 11.718 13.8727 11.7437 13.971 11.75V11.75Z" fill="#0F0F0F"/>
</svg>
