<svg xmlns="http://www.w3.org/2000/svg" width="32" height="32" viewBox="0 0 32 32"><path d="M23 12.5001H11.502V8.45405C11.502 5.59505 13.384 3.51105 16 3.49905C16.6509 3.49851 17.2955 3.62649 17.8968 3.87566C18.4981 4.12483 19.0443 4.49029 19.504 4.95105C19.942 5.38905 20.294 5.90505 20.543 6.47205C20.5986 6.58949 20.6978 6.68065 20.8195 6.72622C20.9412 6.77179 21.0759 6.76819 21.1949 6.71619C21.314 6.66418 21.4082 6.56786 21.4575 6.44762C21.5068 6.32738 21.5073 6.19268 21.459 6.07205C20.9951 5.00673 20.2292 4.10068 19.256 3.46586C18.2828 2.83104 17.1449 2.49527 15.983 2.50005H15.975C12.803 2.51405 10.502 5.01805 10.502 8.45405V12.5001H9C8.07207 12.5011 7.18244 12.8702 6.5263 13.5263C5.87015 14.1825 5.50106 15.0721 5.5 16.0001V26C5.50132 26.9279 5.8705 27.8174 6.52659 28.4735C7.18268 29.1296 8.07215 29.4987 9 29.5H23C23.9279 29.4987 24.8173 29.1296 25.4734 28.4735C26.1295 27.8174 26.4987 26.9279 26.5 26V16.0001C26.4989 15.0721 26.1299 14.1825 25.4737 13.5263C24.8176 12.8702 23.9279 12.5011 23 12.5001ZM25.5 26C25.4995 26.6629 25.2359 27.2985 24.7672 27.7672C24.2985 28.236 23.6629 28.4995 23 28.5H9C8.33712 28.4995 7.70154 28.236 7.23282 27.7672C6.76409 27.2985 6.50053 26.6629 6.5 26V16.0001C6.50053 15.3372 6.76409 14.7016 7.23282 14.2329C7.70154 13.7641 8.33712 13.5006 9 13.5001H23C23.6629 13.5006 24.2985 13.7641 24.7672 14.2329C25.2359 14.7016 25.4995 15.3372 25.5 16.0001V26Z"/></svg>