<svg width="32" height="32" viewBox="0 0 32 32" fill="none" xmlns="http://www.w3.org/2000/svg">
<path d="M22.9997 12.0003H12.0017V8.45442C12.0017 5.88313 13.6755 4.01009 15.9773 4.00032C15.99 4.00032 16.0046 4.00032 16.0203 3.99932C16.8839 4.00362 17.7277 4.25857 18.4492 4.73322C19.1707 5.20786 19.7389 5.88178 20.0847 6.67314C20.1921 6.91463 20.3907 7.10378 20.6372 7.19928C20.8836 7.29477 21.1578 7.28883 21.3999 7.18276C21.6419 7.07669 21.8322 6.87912 21.929 6.63321C22.0259 6.3873 22.0214 6.11306 21.9167 5.87041C21.4131 4.71655 20.5829 3.73527 19.5284 3.04757C18.4738 2.35987 17.2411 1.99582 15.9821 2.00029H15.9733C12.569 2.01494 10.0016 4.78935 10.0016 8.45439V12.0003H8.99963C7.93909 12.0014 6.92229 12.4231 6.17238 13.173C5.42246 13.923 5.00069 14.9398 4.99963 16.0003V26.0003C5.00069 27.0608 5.42246 28.0776 6.17238 28.8275C6.92229 29.5775 7.93909 29.9992 8.99963 30.0003H22.9996C24.0602 29.9992 25.077 29.5775 25.8269 28.8275C26.5768 28.0776 26.9986 27.0608 26.9996 26.0003V16.0003C26.9986 14.9398 26.5768 13.923 25.8269 13.1731C25.077 12.4232 24.0602 12.0014 22.9997 12.0003ZM24.9997 26.0003C24.999 26.5305 24.7881 27.0389 24.4131 27.4138C24.0382 27.7887 23.5299 27.9996 22.9997 28.0003H8.99967C8.46945 27.9996 7.96114 27.7887 7.58622 27.4138C7.2113 27.0389 7.00036 26.5305 6.99967 26.0003V16.0003C7.00036 15.4701 7.2113 14.9618 7.58622 14.5869C7.96114 14.2119 8.46945 14.001 8.99967 14.0003H22.9997C23.5299 14.001 24.0382 14.2119 24.4131 14.5869C24.7881 14.9618 24.999 15.4701 24.9997 16.0003V26.0003Z" fill="black"/>
</svg>
