<svg xmlns="http://www.w3.org/2000/svg" width="32" height="32" viewBox="0 0 32 32"><path d="M25 2H7C5.6744 2.00159 4.40356 2.52888 3.46622 3.46622C2.52888 4.40356 2.00159 5.6744 2 7V19C2.00159 20.3256 2.52888 21.5964 3.46622 22.5338C4.40356 23.4711 5.6744 23.9984 7 24C7.26522 24 7.51957 23.8946 7.70711 23.7071C7.89464 23.5196 8 23.2652 8 23C8 22.7348 7.89464 22.4804 7.70711 22.2929C7.51957 22.1054 7.26522 22 7 22C6.20459 21.9992 5.44199 21.6829 4.87956 21.1204C4.31712 20.558 4.00079 19.7954 4 19V7C4.00079 6.20459 4.31712 5.44199 4.87956 4.87956C5.44199 4.31712 6.20459 4.00079 7 4H25C25.7954 4.00079 26.558 4.31712 27.1204 4.87956C27.6829 5.44199 27.9992 6.20459 28 7V19C27.9992 19.7954 27.6829 20.558 27.1204 21.1204C26.558 21.6829 25.7954 21.9992 25 22C24.7348 22 24.4804 22.1054 24.2929 22.2929C24.1054 22.4804 24 22.7348 24 23C24 23.2652 24.1054 23.5196 24.2929 23.7071C24.4804 23.8946 24.7348 24 25 24C26.3256 23.9984 27.5964 23.4711 28.5338 22.5338C29.4711 21.5964 29.9984 20.3256 30 19V7C29.9987 5.67432 29.4715 4.40332 28.5341 3.46593C27.5967 2.52853 26.3257 2.00132 25 2Z M21 18C20.8686 17.9997 20.7385 18.0254 20.617 18.0756C20.4956 18.1257 20.3852 18.1994 20.2923 18.2923C20.1994 18.3852 20.1258 18.4956 20.0756 18.617C20.0255 18.7385 19.9998 18.8686 20 19V19.538C19.0562 18.6957 17.8699 18.1739 16.6112 18.0476C15.3525 17.9214 14.0861 18.197 12.9938 18.8351C11.9015 19.4731 11.0393 20.4408 10.531 21.5992C10.0227 22.7576 9.89445 24.0472 10.1646 25.2831C10.4347 26.5189 11.0893 27.6375 12.0345 28.4782C12.9798 29.3189 14.167 29.8387 15.4259 29.9628C16.6848 30.087 17.9507 29.8092 19.042 29.1693C20.1332 28.5294 20.9937 27.5603 21.5 26.401C21.5812 26.2197 21.6064 26.0184 21.5725 25.8227C21.5385 25.627 21.447 25.4459 21.3095 25.3025C21.1721 25.1592 20.995 25.0601 20.8009 25.018C20.6068 24.9758 20.4046 24.9925 20.22 25.066C20.0974 25.1142 19.9855 25.1863 19.8907 25.2779C19.796 25.3695 19.7203 25.479 19.668 25.6C19.4325 26.1388 19.0811 26.6191 18.6388 27.0066C18.1965 27.3942 17.6742 27.6794 17.1091 27.842C16.544 28.0047 15.95 28.0407 15.3693 27.9476C14.7887 27.8545 14.2357 27.6345 13.7498 27.3032C13.2639 26.972 12.857 26.5377 12.5581 26.0313C12.2592 25.5249 12.0756 24.9588 12.0205 24.3734C11.9653 23.7879 12.0399 23.1975 12.2389 22.6442C12.438 22.0908 12.7566 21.5882 13.172 21.172C13.8994 20.4795 14.8564 20.0792 15.8602 20.0475C16.864 20.0158 17.8443 20.3549 18.614 21H18C17.7348 21 17.4805 21.1054 17.2929 21.2929C17.1054 21.4804 17 21.7348 17 22C17 22.2652 17.1054 22.5196 17.2929 22.7071C17.4805 22.8946 17.7348 23 18 23H21C21.1315 23.0004 21.2617 22.9748 21.3832 22.9247C21.5047 22.8746 21.6151 22.8009 21.708 22.708C21.801 22.6151 21.8746 22.5047 21.9247 22.3832C21.9748 22.2616 22.0004 22.1314 22 22V19C21.9995 18.7349 21.894 18.4809 21.7066 18.2935C21.5191 18.1061 21.2651 18.0005 21 18Z"/></svg>