<svg width="32" height="32" viewBox="0 0 32 32" fill="none" xmlns="http://www.w3.org/2000/svg">
<path d="M25.0001 2.4998H7.00012C5.80705 2.5011 4.66321 2.97563 3.81958 3.81926C2.97595 4.66289 2.50143 5.80673 2.50012 6.9998V18.9998C2.50142 20.1929 2.97595 21.3367 3.81958 22.1803C4.66321 23.024 5.80705 23.4985 7.00012 23.4998C7.13273 23.4998 7.25991 23.4471 7.35368 23.3534C7.44744 23.2596 7.50012 23.1324 7.50012 22.9998C7.50012 22.8672 7.44744 22.74 7.35368 22.6462C7.25991 22.5525 7.13273 22.4998 7.00012 22.4998C6.07221 22.4987 5.18262 22.1296 4.52649 21.4734C3.87036 20.8173 3.50125 19.9277 3.50012 18.9998V6.9998C3.50125 6.07189 3.87036 5.1823 4.52649 4.52617C5.18262 3.87003 6.07221 3.50092 7.00012 3.4998H25.0001C25.928 3.50092 26.8176 3.87003 27.4738 4.52617C28.1299 5.1823 28.499 6.07189 28.5001 6.9998V18.9998C28.499 19.9277 28.1299 20.8173 27.4738 21.4734C26.8176 22.1296 25.928 22.4987 25.0001 22.4998C24.8675 22.4998 24.7403 22.5525 24.6466 22.6462C24.5528 22.74 24.5001 22.8672 24.5001 22.9998C24.5001 23.1324 24.5528 23.2596 24.6466 23.3534C24.7403 23.4471 24.8675 23.4998 25.0001 23.4998C26.1932 23.4985 27.337 23.024 28.1807 22.1803C29.0243 21.3367 29.4988 20.1929 29.5001 18.9998V6.9998C29.4988 5.80673 29.0243 4.66289 28.1807 3.81926C27.337 2.97563 26.1932 2.5011 25.0001 2.4998Z" fill="black"/>
<path d="M21.0001 18.4998C20.9345 18.4998 20.8694 18.5127 20.8087 18.5378C20.7481 18.5629 20.6929 18.5997 20.6465 18.6462C20.6 18.6926 20.5632 18.7477 20.5381 18.8084C20.513 18.8691 20.5001 18.9341 20.5001 18.9998V20.8606C20.3193 20.5929 20.1147 20.3421 19.8888 20.1111C19.0578 19.2819 17.9831 18.7406 16.8221 18.5666C15.6611 18.3925 14.4749 18.5949 13.4374 19.1441C12.3998 19.6933 11.5654 20.5604 11.0564 21.6183C10.5475 22.6761 10.3907 23.8692 10.6092 25.0227C10.8276 26.1761 11.4098 27.2293 12.2703 28.0278C13.1308 28.8264 14.2245 29.3283 15.391 29.46C16.5576 29.5918 17.7356 29.3464 18.7526 28.7599C19.7695 28.1735 20.5719 27.2767 21.0421 26.201C21.0688 26.1408 21.0834 26.0759 21.085 26.01C21.0865 25.9442 21.075 25.8786 21.0512 25.8172C21.0273 25.7558 20.9916 25.6997 20.946 25.6522C20.9004 25.6047 20.8458 25.5666 20.7854 25.5402C20.7251 25.5138 20.6601 25.4996 20.5942 25.4984C20.5284 25.4973 20.4629 25.5091 20.4016 25.5333C20.3404 25.5575 20.2845 25.5936 20.2372 25.6395C20.1899 25.6853 20.1522 25.7401 20.1261 25.8006C19.7417 26.683 19.0846 27.4189 18.2513 27.9005C17.418 28.3821 16.4523 28.584 15.4958 28.4765C14.5394 28.3691 13.6425 27.958 12.9369 27.3035C12.2312 26.649 11.7538 25.7856 11.5747 24.84C11.3956 23.8943 11.5242 22.9162 11.9418 22.049C12.3593 21.1818 13.0438 20.4713 13.8947 20.0216C14.7456 19.5718 15.7183 19.4066 16.67 19.5502C17.6217 19.6937 18.5023 20.1385 19.1828 20.8192C19.3903 21.027 19.5765 21.255 19.7386 21.4998H18.0001C17.8675 21.4998 17.7403 21.5525 17.6466 21.6463C17.5528 21.74 17.5001 21.8672 17.5001 21.9998C17.5001 22.1324 17.5528 22.2596 17.6466 22.3534C17.7403 22.4472 17.8675 22.4998 18.0001 22.4998H21.0001C21.0658 22.4999 21.1308 22.487 21.1915 22.4618C21.2522 22.4367 21.3073 22.3999 21.3538 22.3535C21.4002 22.307 21.437 22.2519 21.4621 22.1912C21.4873 22.1305 21.5002 22.0655 21.5001 21.9998V18.9998C21.5002 18.9342 21.4873 18.8691 21.4621 18.8084C21.437 18.7477 21.4002 18.6926 21.3538 18.6462C21.3073 18.5997 21.2522 18.5629 21.1915 18.5378C21.1308 18.5127 21.0658 18.4998 21.0001 18.4998Z" fill="black"/>
</svg>
