<svg width="32" height="32" viewBox="0 0 32 32" xmlns="http://www.w3.org/2000/svg"><path d="M25 2.25H7A4.755 4.755 0 0 0 2.25 7v12A4.756 4.756 0 0 0 7 23.75a.75.75 0 1 0 0-1.5A3.254 3.254 0 0 1 3.75 19V7A3.254 3.254 0 0 1 7 3.75h18A3.254 3.254 0 0 1 28.25 7v12A3.254 3.254 0 0 1 25 22.25a.75.75 0 1 0 0 1.5A4.755 4.755 0 0 0 29.75 19V7A4.755 4.755 0 0 0 25 2.25Z"/><path d="M21 18.25a.75.75 0 0 0-.75.75v1.16c-.065-.071-.117-.159-.185-.226a5.743 5.743 0 1 0 1.206 6.367.75.75 0 0 0-1.375-.6 4.253 4.253 0 1 1-.89-4.705c.075.075.136.171.207.254H18a.75.75 0 1 0 0 1.5h3a.75.75 0 0 0 .75-.75v-3a.75.75 0 0 0-.75-.75Z"/></svg>