<svg xmlns="http://www.w3.org/2000/svg" width="32" height="32" viewBox="0 0 32 32"><path d="M16 3C13.9289 3 12.25 4.67893 12.25 6.75C12.25 8.33346 13.2314 9.6877 14.6192 10.2376L11.1895 15.1916L7.70803 13.2926C7.8952 12.9012 8 12.4628 8 12C8 10.3431 6.65685 9 5 9C3.34315 9 2 10.3431 2 12C2 13.6569 3.34315 15 5 15C5.10107 15 5.20097 14.995 5.29948 14.9852L7.69399 26H24.3059L26.7004 14.9852C26.799 14.995 26.8989 15 27 15C28.6569 15 30 13.6569 30 12C30 10.3431 28.6569 9 27 9C25.3431 9 24 10.3431 24 12C24 12.4628 24.1048 12.9011 24.292 13.2925L20.8104 15.1916L17.3807 10.2376C18.7685 9.68775 19.75 8.33349 19.75 6.75C19.75 4.67893 18.0711 3 16 3Z M7 29C7 28.4477 7.44772 28 8 28H24C24.5523 28 25 28.4477 25 29C25 29.5523 24.5523 30 24 30H8C7.44772 30 7 29.5523 7 29Z"/></svg>