<svg xmlns="http://www.w3.org/2000/svg" width="32" height="32" viewBox="0 0 32 32"><path d="M12.5 6.75C12.5 4.817 14.067 3.25 16 3.25C17.933 3.25 19.5 4.817 19.5 6.75C19.5 8.34019 18.4395 9.68269 16.9872 10.1088L20.7329 15.5193L24.629 13.3941C24.3882 12.9853 24.25 12.5088 24.25 12C24.25 10.4812 25.4812 9.25 27 9.25C28.5188 9.25 29.75 10.4812 29.75 12C29.75 13.5188 28.5188 14.75 27 14.75C26.8312 14.75 26.666 14.7348 26.5056 14.7057L24.1045 25.7506H7.89556L5.49449 14.7057C5.33408 14.7348 5.16881 14.75 5 14.75C3.48122 14.75 2.25 13.5188 2.25 12C2.25 10.4812 3.48122 9.25 5 9.25C6.51878 9.25 7.75 10.4812 7.75 12C7.75 12.5088 7.61183 12.9853 7.37098 13.3941L11.2672 15.5193L15.0129 10.1089C13.5605 9.68273 12.5 8.34021 12.5 6.75ZM16 4.75C14.8954 4.75 14 5.64543 14 6.75C14 7.85457 14.8954 8.75 16 8.75C17.1046 8.75 18 7.85457 18 6.75C18 5.64543 17.1046 4.75 16 4.75ZM25.75 12C25.75 12.6904 26.3096 13.25 27 13.25C27.6904 13.25 28.25 12.6904 28.25 12C28.25 11.3096 27.6904 10.75 27 10.75C26.3096 10.75 25.75 11.3096 25.75 12ZM11.7329 17.4819L7.08151 14.9448L9.10451 24.2506H22.8956L24.9186 14.9448L20.2672 17.4819L16 11.3182L11.7329 17.4819ZM3.75 12C3.75 12.6904 4.30964 13.25 5 13.25C5.69036 13.25 6.25 12.6904 6.25 12C6.25 11.3096 5.69036 10.75 5 10.75C4.30964 10.75 3.75 11.3096 3.75 12Z M7 29C7 28.5858 7.33579 28.25 7.75 28.25H24.25C24.6642 28.25 25 28.5858 25 29C25 29.4142 24.6642 29.75 24.25 29.75H7.75C7.33579 29.75 7 29.4142 7 29Z"/></svg>