<svg width="32" height="32" viewBox="0 0 32 32" xmlns="http://www.w3.org/2000/svg"><path d="M8.002 1a1 1 0 0 1 1 1v3.002h3.001a1 1 0 1 1 0 2H9.002v3.001a1 1 0 1 1-2 0V7.002H4a1 1 0 1 1 0-2h3.002V2a1 1 0 0 1 1-1ZM16 4a1 1 0 0 1 1-1h7a5 5 0 0 1 5 5v18a5 5 0 0 1-5 5H10a5 5 0 0 1-5-5V15a1 1 0 1 1 2 0v8.882l3.852-4.938c1.935-2.48 5.65-2.58 7.714-.207l7.859 9.03A2.986 2.986 0 0 0 27 26V8a3 3 0 0 0-3-3h-7a1 1 0 0 1-1-1Zm-6 25h14a3 3 0 0 0 .762-.098l-7.704-8.852a3 3 0 0 0-4.629.124L7.15 26.94A3.001 3.001 0 0 0 10 29Zm12-16.5a1.5 1.5 0 1 0-3 0 1.5 1.5 0 0 0 3 0Zm2 0a3.5 3.5 0 1 1-7 0 3.5 3.5 0 0 1 7 0Z"/></svg>