<svg xmlns="http://www.w3.org/2000/svg" width="32" height="32" viewBox="0 0 32 32"><path d="M27 3.25L5 3.251C4.80109 3.251 4.61032 3.33002 4.46967 3.47067C4.32902 3.61132 4.25 3.80209 4.25 4.001C4.25 4.19991 4.32902 4.39068 4.46967 4.53133C4.61032 4.67198 4.80109 4.751 5 4.751L27 4.75C27.1989 4.75 27.3897 4.67098 27.5303 4.53033C27.671 4.38968 27.75 4.19891 27.75 4C27.75 3.80109 27.671 3.61032 27.5303 3.46967C27.3897 3.32902 27.1989 3.25 27 3.25ZM16.53 11.47C16.4604 11.4003 16.3778 11.3451 16.2869 11.3074C16.1959 11.2697 16.0984 11.2502 16 11.2502C15.9016 11.2502 15.8041 11.2697 15.7131 11.3074C15.6222 11.3451 15.5396 11.4003 15.47 11.47L9.47 17.47C9.33752 17.6122 9.2654 17.8002 9.26882 17.9945C9.27225 18.1888 9.35097 18.3742 9.48838 18.5116C9.62579 18.649 9.81118 18.7277 10.0055 18.7312C10.1998 18.7346 10.3878 18.6625 10.53 18.53L15.25 13.81V28C15.25 28.1989 15.329 28.3897 15.4697 28.5303C15.6103 28.671 15.8011 28.75 16 28.75C16.1989 28.75 16.3897 28.671 16.5303 28.5303C16.671 28.3897 16.75 28.1989 16.75 28V13.81L21.47 18.53C21.6122 18.6625 21.8002 18.7346 21.9945 18.7312C22.1888 18.7277 22.3742 18.649 22.5116 18.5116C22.649 18.3742 22.7277 18.1888 22.7312 17.9945C22.7346 17.8002 22.6625 17.6122 22.53 17.47L16.53 11.47Z"/></svg>