<svg xmlns="http://www.w3.org/2000/svg" width="32" height="32" viewBox="0 0 32 32"><path d="M27 3.5L5 3.501C4.86739 3.501 4.74021 3.55368 4.64645 3.64745C4.55268 3.74121 4.5 3.86839 4.5 4.001C4.5 4.13361 4.55268 4.26079 4.64645 4.35455C4.74021 4.44832 4.86739 4.501 5 4.501L27 4.5C27.1326 4.5 27.2598 4.44732 27.3536 4.35355C27.4473 4.25979 27.5 4.13261 27.5 4C27.5 3.86739 27.4473 3.74021 27.3536 3.64645C27.2598 3.55268 27.1326 3.5 27 3.5ZM16.354 11.646C16.2602 11.5523 16.1331 11.4996 16.0005 11.4996C15.8679 11.4996 15.7408 11.5523 15.647 11.646L9.647 17.646C9.59925 17.6921 9.56115 17.7473 9.53495 17.8083C9.50874 17.8693 9.49495 17.9349 9.49438 18.0013C9.4938 18.0677 9.50645 18.1335 9.53159 18.195C9.55673 18.2564 9.59386 18.3123 9.6408 18.3592C9.68775 18.4061 9.74358 18.4433 9.80502 18.4684C9.86647 18.4936 9.93231 18.5062 9.9987 18.5056C10.0651 18.505 10.1307 18.4913 10.1917 18.4651C10.2527 18.4388 10.3079 18.4008 10.354 18.353L15.5 13.207V28C15.5 28.1326 15.5527 28.2598 15.6464 28.3536C15.7402 28.4473 15.8674 28.5 16 28.5C16.1326 28.5 16.2598 28.4473 16.3536 28.3536C16.4473 28.2598 16.5 28.1326 16.5 28V13.207L21.647 18.353C21.6931 18.4008 21.7483 18.4388 21.8093 18.4651C21.8703 18.4913 21.9359 18.505 22.0023 18.5056C22.0687 18.5062 22.1345 18.4936 22.196 18.4684C22.2574 18.4433 22.3133 18.4061 22.3602 18.3592C22.4071 18.3123 22.4443 18.2564 22.4694 18.195C22.4946 18.1335 22.5072 18.0677 22.5066 18.0013C22.506 17.9349 22.4923 17.8693 22.4661 17.8083C22.4398 17.7473 22.4018 17.6921 22.354 17.646L16.354 11.646Z"/></svg>