<svg xmlns="http://www.w3.org/2000/svg" width="32" height="32" viewBox="0 0 32 32"><path d="M27 3L5 3.001C4.73478 3.001 4.48043 3.10636 4.29289 3.29389C4.10536 3.48143 4 3.73578 4 4.001C4 4.26622 4.10536 4.52057 4.29289 4.70811C4.48043 4.89564 4.73478 5.001 5 5.001L27 5C27.2652 5 27.5196 4.89464 27.7071 4.70711C27.8946 4.51957 28 4.26522 28 4C28 3.73478 27.8946 3.48043 27.7071 3.29289C27.5196 3.10536 27.2652 3 27 3ZM16.707 11.293C16.6143 11.1999 16.5041 11.1261 16.3828 11.0757C16.2614 11.0253 16.1314 10.9994 16 10.9994C15.8686 10.9994 15.7386 11.0253 15.6172 11.0757C15.4959 11.1261 15.3857 11.1999 15.293 11.293L9.293 17.293C9.19749 17.3852 9.12131 17.4956 9.0689 17.6176C9.01649 17.7396 8.9889 17.8708 8.98775 18.0036C8.9866 18.1364 9.0119 18.2681 9.06218 18.391C9.11246 18.5138 9.18671 18.6255 9.28061 18.7194C9.3745 18.8133 9.48615 18.8875 9.60905 18.9378C9.73194 18.9881 9.86362 19.0134 9.9964 19.0123C10.1292 19.0111 10.2604 18.9835 10.3824 18.9311C10.5044 18.8787 10.6148 18.8025 10.707 18.707L15 14.414V28C15 28.2652 15.1054 28.5196 15.2929 28.7071C15.4804 28.8946 15.7348 29 16 29C16.2652 29 16.5196 28.8946 16.7071 28.7071C16.8946 28.5196 17 28.2652 17 28V14.414L21.293 18.707C21.4816 18.8892 21.7342 18.99 21.9964 18.9877C22.2586 18.9854 22.5094 18.8802 22.6948 18.6948C22.8802 18.5094 22.9854 18.2586 22.9877 17.9964C22.99 17.7342 22.8892 17.4816 22.707 17.293L16.707 11.293Z"/></svg>