<svg width="32" height="32" viewBox="0 0 32 32" fill="none" xmlns="http://www.w3.org/2000/svg">
<path d="M27.0001 3.5L5.00012 3.501C4.86751 3.501 4.74034 3.55368 4.64657 3.64745C4.5528 3.74121 4.50012 3.86839 4.50012 4.001C4.50012 4.13361 4.5528 4.26079 4.64657 4.35455C4.74034 4.44832 4.86751 4.501 5.00012 4.501L27.0001 4.5C27.1327 4.5 27.2599 4.44732 27.3537 4.35355C27.4474 4.25978 27.5001 4.13261 27.5001 4C27.5001 3.86739 27.4474 3.74021 27.3537 3.64645C27.2599 3.55268 27.1327 3.5 27.0001 3.5Z" fill="black"/>
<path d="M16.3536 11.6462C16.3072 11.5998 16.2521 11.5629 16.1915 11.5378C16.1308 11.5127 16.0658 11.4997 16.0001 11.4997C15.9345 11.4997 15.8695 11.5127 15.8088 11.5378C15.7482 11.5629 15.693 11.5998 15.6466 11.6462L9.64663 17.6462C9.59944 17.6925 9.56188 17.7476 9.53613 17.8085C9.51038 17.8693 9.49695 17.9347 9.49662 18.0008C9.49628 18.0668 9.50905 18.1323 9.53419 18.1934C9.55932 18.2546 9.59632 18.3101 9.64304 18.3568C9.68977 18.4035 9.74529 18.4405 9.80641 18.4657C9.86752 18.4908 9.93301 18.5036 9.99909 18.5032C10.0652 18.5029 10.1305 18.4895 10.1914 18.4637C10.2522 18.438 10.3074 18.4004 10.3536 18.3532L15.5001 13.2067V27.9997C15.5001 28.1323 15.5528 28.2595 15.6466 28.3533C15.7403 28.4471 15.8675 28.4997 16.0001 28.4997C16.1327 28.4997 16.2599 28.4471 16.3537 28.3533C16.4474 28.2595 16.5001 28.1323 16.5001 27.9997V13.2067L21.6466 18.3532C21.6929 18.4004 21.748 18.438 21.8089 18.4637C21.8697 18.4895 21.9351 18.5029 22.0011 18.5032C22.0672 18.5036 22.1327 18.4908 22.1938 18.4657C22.2549 18.4405 22.3105 18.4035 22.3572 18.3568C22.4039 18.3101 22.4409 18.2546 22.466 18.1934C22.4912 18.1323 22.504 18.0668 22.5036 18.0008C22.5033 17.9347 22.4899 17.8693 22.4641 17.8085C22.4384 17.7476 22.4008 17.6925 22.3536 17.6462L16.3536 11.6462Z" fill="black"/>
</svg>
