<svg xmlns="http://www.w3.org/2000/svg" width="32" height="32" viewBox="0 0 32 32"><path d="M24.5 13C22.0147 13 20 10.9853 20 8.5C20 6.01472 22.0147 4 24.5 4C26.9853 4 29 6.01472 29 8.5C29 10.9853 26.9853 13 24.5 13ZM24.5 15C28.0899 15 31 12.0899 31 8.5C31 4.91015 28.0899 2 24.5 2C20.9101 2 18 4.91015 18 8.5C18 12.0899 20.9101 15 24.5 15ZM25.0342 9.28417C24.8935 9.42481 24.7028 9.50385 24.5039 9.5039C24.305 9.50385 24.1143 9.42481 23.9736 9.28417C23.833 9.14353 23.754 8.9528 23.7539 8.7539V6.44629C23.7539 6.24738 23.8329 6.05661 23.9736 5.91596C24.1142 5.77531 24.305 5.69629 24.5039 5.69629C24.7028 5.69629 24.8936 5.77531 25.0342 5.91596C25.1749 6.05661 25.2539 6.24738 25.2539 6.44629V8.7539C25.2539 8.9528 25.1748 9.14353 25.0342 9.28417ZM25.2543 11.2541C25.2543 11.6683 24.9185 12.0041 24.5043 12.0041C24.0901 12.0041 23.7543 11.6683 23.7543 11.2541C23.7543 10.8399 24.0901 10.5041 24.5043 10.5041C24.9185 10.5041 25.2543 10.8399 25.2543 11.2541ZM2 13C2 10.2386 4.23858 8 7 8H15C15.5523 8 16 8.44772 16 9C16 9.55228 15.5523 10 15 10H7C5.34315 10 4 11.3431 4 13V23C4 24.6569 5.34315 26 7 26H25C26.6569 26 28 24.6569 28 23V17C28 16.4477 28.4477 16 29 16C29.5523 16 30 16.4477 30 17V23C30 25.7614 27.7614 28 25 28H7C4.23858 28 2 25.7614 2 23V13ZM11 20C12.1046 20 13 19.1046 13 18C13 16.8954 12.1046 16 11 16C9.89543 16 9 16.8954 9 18C9 19.1046 9.89543 20 11 20ZM15 18C15 18.7286 14.8052 19.4117 14.4649 20H17.5351C17.1948 19.4116 17 18.7286 17 18C17 16.8152 17.5164 15.7497 18.3331 15.0187C18.7446 14.6504 19.3768 14.6854 19.7451 15.097C20.1135 15.5085 20.0784 16.1407 19.6669 16.509C19.2561 16.8766 19 17.4077 19 18C19 19.1045 19.8954 20 21 20C22.1046 20 23 19.1045 23 18C23 17.4477 23.4477 17 24 17C24.5523 17 25 17.4477 25 18C25 20.2061 23.2139 21.9952 21.0089 22L21 22H11C8.79086 22 7 20.2091 7 18C7 15.7909 8.79086 14 11 14C13.2091 14 15 15.7909 15 18Z"/></svg>