<svg xmlns="http://www.w3.org/2000/svg" width="32" height="32" viewBox="0 0 32 32"><path d="M24 9.99979C23.7349 10.0003 23.4809 10.1058 23.2935 10.2933C23.1061 10.4807 23.0005 10.7347 23 10.9998V13.5808C23.0003 13.7909 22.949 13.9979 22.8507 14.1836C22.7524 14.3692 22.61 14.528 22.436 14.6458L17 18.3258V6.41379L19.293 8.70679C19.4816 8.88894 19.7342 8.98974 19.9964 8.98746C20.2586 8.98518 20.5094 8.88001 20.6948 8.6946C20.8802 8.5092 20.9854 8.25838 20.9877 7.99619C20.99 7.73399 20.8892 7.48139 20.707 7.29279L16.707 3.29279C16.5195 3.10532 16.2652 3 16 3C15.7348 3 15.4805 3.10532 15.293 3.29279L11.293 7.29279C11.1108 7.48139 11.01 7.73399 11.0123 7.99619C11.0146 8.25838 11.1198 8.5092 11.3052 8.6946C11.4906 8.88001 11.7414 8.98518 12.0036 8.98746C12.2658 8.98974 12.5184 8.88894 12.707 8.70679L15 6.41379V24.4898L9.565 20.8098C9.39058 20.6921 9.2478 20.5333 9.14926 20.3474C9.05073 20.1615 8.99947 19.9542 9 19.7438V17.9998C9 17.7346 8.89464 17.4802 8.70711 17.2927C8.51957 17.1051 8.26522 16.9998 8 16.9998C7.73478 16.9998 7.48043 17.1051 7.29289 17.2927C7.10536 17.4802 7 17.7346 7 17.9998V19.7438C6.99975 20.2807 7.13116 20.8096 7.38273 21.2839C7.6343 21.7583 7.99835 22.1638 8.443 22.4648L15 26.9048V27.9998C15 28.265 15.1054 28.5194 15.2929 28.7069C15.4804 28.8944 15.7348 28.9998 16 28.9998C16.2652 28.9998 16.5196 28.8944 16.7071 28.7069C16.8946 28.5194 17 28.265 17 27.9998V20.7418L23.558 16.3018C24.0023 16.0007 24.366 15.5953 24.6174 15.1212C24.8687 14.647 25.0001 14.1185 25 13.5818V10.9998C25 10.7346 24.8946 10.4802 24.7071 10.2927C24.5196 10.1051 24.2652 9.99979 24 9.99979Z"/></svg>