<svg width="32" height="32" viewBox="0 0 32 32" fill="none" xmlns="http://www.w3.org/2000/svg">
<path d="M20.997 10.6485L23.9999 12.6819V13C23.9999 13.5527 24.4472 14 24.9999 14C25.5526 14 25.9999 13.5527 25.9999 13V9.53052L29.0302 7.47762C29.9999 6.77352 29.9999 5.93662 29.9999 5.12702V4.00002C29.9999 3.44732 29.5526 3.00002 28.9999 3.00002C28.4472 3.00002 27.9999 3.44732 27.9999 4.00002V5.12702C27.9999 5.32432 27.9999 5.69242 27.9618 5.76472C27.9618 5.76472 27.9413 5.79692 27.8817 5.84092L25.9999 7.11522V3.00012C25.9999 2.44742 25.5526 2.00012 24.9999 2.00012C24.4472 2.00012 23.9999 2.44742 23.9999 3.00012V10.2671L22.1454 9.01192C22.0585 8.94842 22.038 8.91622 22.038 8.91622C21.9999 8.84392 21.9999 8.47582 21.9999 8.27852V7.15152C21.9999 6.59882 21.5526 6.15152 20.9999 6.15152C20.4472 6.15152 19.9999 6.59882 19.9999 7.15152V8.27852C19.9999 9.08802 19.9999 9.92489 20.997 10.6485Z" fill="black"/>
<path d="M17.7782 4.1983C18.3134 4.3194 18.8514 3.9815 18.9745 3.4434C19.0966 2.9043 18.7577 2.3692 18.2196 2.2471C17.494 2.083 16.7469 2 15.9999 2C11.1444 2 7.08578 5.4785 6.18638 10.0742C3.81138 10.4824 1.99988 12.5361 1.99988 15C1.99988 17.7568 4.24308 20 6.99988 20C7.55258 20 7.99988 19.5527 7.99988 19V12C7.99988 7.5889 11.5888 4 15.9999 4C16.5985 4.0001 17.1972 4.0665 17.7782 4.1983ZM5.99988 17.8292C4.83578 17.4161 3.99988 16.3038 3.99988 15.0001C3.99988 13.7101 4.83388 12.6075 5.99988 12.1847V17.8292Z" fill="black"/>
<path d="M29.0009 14.0001C28.4482 14.0001 28.0009 14.4474 28.0009 15.0001C28.0009 15.2511 27.9687 15.5069 27.9062 15.7423C27.6555 16.702 26.9172 17.4642 26 17.8046V17.0001C26 16.4474 25.5527 16.0001 25 16.0001C24.4473 16.0001 24 16.4474 24 17.0001V18.0001C24 21.4958 21.7425 24.4674 18.6118 25.5534C18.0992 24.6321 17.1271 24.0001 16 24.0001C14.3457 24.0001 13 25.3458 13 27.0001C13 28.6544 14.3457 30.0001 16 30.0001C17.4686 30.0001 18.6872 28.952 18.9438 27.5566C22.4256 26.4817 25.0948 23.5507 25.8061 19.9263C27.7388 19.5966 29.3378 18.177 29.8408 16.2502C29.9472 15.8469 30.001 15.426 30.001 15.0002C30.0009 14.4473 29.5536 14.0001 29.0009 14.0001ZM15.9999 28.0001C15.4481 28.0001 14.9999 27.5519 14.9999 27.0001C14.9999 26.4483 15.4481 26.0001 15.9999 26.0001C16.5517 26.0001 16.9999 26.4483 16.9999 27.0001C16.9999 27.5519 16.5516 28.0001 15.9999 28.0001Z" fill="black"/>
</svg>
