<svg width="32" height="32" viewBox="0 0 32 32" fill="none" xmlns="http://www.w3.org/2000/svg">
<path d="M21.1366 10.4414L24.2499 12.5496V13C24.2499 13.4141 24.5858 13.75 24.9999 13.75C25.414 13.75 25.7499 13.4141 25.7499 13V9.3981L28.8827 7.2754C29.7499 6.6455 29.7499 5.9082 29.7499 5.127V4C29.7499 3.5859 29.414 3.25 28.9999 3.25C28.5858 3.25 28.2499 3.5859 28.2499 4V5.127C28.2499 5.8819 28.2216 5.9024 28.0214 6.0479L25.7499 7.586V3C25.7499 2.5859 25.414 2.25 24.9999 2.25C24.5858 2.25 24.2499 2.5859 24.2499 3V10.7379L21.9979 9.2139C21.7782 9.0537 21.7499 9.0332 21.7499 8.2784V7.1514C21.7499 6.7373 21.414 6.4014 20.9999 6.4014C20.5858 6.4014 20.2499 6.7373 20.2499 7.1514V8.2784C20.2499 9.0595 20.2499 9.79683 21.1366 10.4414Z" fill="black"/>
<path d="M17.8339 3.9541C18.2382 4.0439 18.6386 3.792 18.7304 3.3877C18.8222 2.9844 18.5683 2.582 18.164 2.4912C17.457 2.331 16.7284 2.25 15.9999 2.25C11.206 2.25 7.20788 5.7285 6.39928 10.2939C4.05848 10.6113 2.24988 12.6005 2.24988 15C2.24988 17.6191 4.38078 19.75 6.99988 19.75C7.41398 19.75 7.74988 19.4141 7.74988 19V12C7.74988 7.4512 11.4511 3.75 15.9999 3.75C16.6171 3.75 17.2343 3.8183 17.8339 3.9541ZM6.24988 18.163C4.81828 17.8232 3.74988 16.5341 3.74988 14.9999C3.74988 13.4804 4.81628 12.2011 6.25088 11.8466L6.24988 18.163Z" fill="black"/>
<path d="M29.0009 14.25C28.5868 14.25 28.2509 14.5859 28.2509 15C28.2509 15.2715 28.2157 15.5498 28.1484 15.8057C27.8411 16.9823 26.9008 17.8582 25.744 18.1426C25.7447 18.0947 25.75 18.0481 25.75 18.0001V17.0001C25.75 16.586 25.4141 16.2501 25 16.2501C24.5859 16.2501 24.25 16.586 24.25 17.0001V18.0001C24.25 21.6789 21.8283 24.8012 18.4962 25.8618C18.0619 24.9135 17.1096 24.2501 16 24.2501C14.4834 24.2501 13.25 25.4835 13.25 27.0001C13.25 28.5167 14.4834 29.7501 16 29.7501C17.394 29.7501 18.5363 28.7043 18.7138 27.358C22.2425 26.3326 24.9518 23.3666 25.5995 19.6956C27.5087 19.436 29.1073 18.0712 29.5996 16.1856C29.7002 15.8038 29.751 15.4044 29.751 15.0001C29.7509 14.5859 29.4149 14.25 29.0009 14.25ZM15.9999 28.25C15.3104 28.25 14.7499 27.6895 14.7499 27C14.7499 26.3105 15.3104 25.75 15.9999 25.75C16.6894 25.75 17.2499 26.3105 17.2499 27C17.2499 27.6895 16.6893 28.25 15.9999 28.25Z" fill="black"/>
</svg>
