<svg width="32" height="32" viewBox="0 0 32 32" fill="none" xmlns="http://www.w3.org/2000/svg">
<path d="M21.2772 10.2345L24.4999 12.4168V13.0002C24.4999 13.2766 24.7235 13.5002 24.9999 13.5002C25.2763 13.5002 25.4999 13.2766 25.4999 13.0002V9.26542L28.7362 7.07342C29.4999 6.51872 29.4999 5.90452 29.4999 5.12712V4.00012C29.4999 3.72372 29.2763 3.50012 28.9999 3.50012C28.7235 3.50012 28.4999 3.72372 28.4999 4.00012V5.12712C28.4999 5.88692 28.4765 6.02652 28.162 6.25502L25.4999 8.05772V3.00022C25.4999 2.72382 25.2763 2.50022 24.9999 2.50022C24.7235 2.50022 24.4999 2.72382 24.4999 3.00022V11.2092L21.8515 9.41622C21.5234 9.17792 21.4999 9.03832 21.4999 8.27852V7.15152C21.4999 6.87512 21.2763 6.65152 20.9999 6.65152C20.7235 6.65152 20.4999 6.87512 20.4999 7.15152V8.27852C20.4999 9.05582 20.4999 9.67012 21.2772 10.2345Z" fill="black"/>
<path d="M17.8886 3.7101C18.1591 3.7736 18.4257 3.6027 18.4863 3.3331C18.5478 3.0636 18.3789 2.796 18.1093 2.7354C17.4198 2.5792 16.7099 2.5 15.9999 2.5C11.2645 2.5 7.32698 5.9824 6.61508 10.5205C4.30848 10.7402 2.49988 12.665 2.49988 15C2.49988 17.4814 4.51848 19.5 6.99988 19.5C7.27628 19.5 7.49988 19.2764 7.49988 19V12C7.49988 7.3135 11.3134 3.5 15.9999 3.5C16.6356 3.5002 17.2714 3.5705 17.8886 3.7101ZM6.49988 18.465C4.80558 18.2209 3.49988 16.7599 3.49988 15.0002C3.49988 13.2522 4.80748 11.8 6.51058 11.5412L6.49988 18.465Z" fill="black"/>
<path d="M29.0009 14.5002C28.7245 14.5002 28.5009 14.7238 28.5009 15.0002C28.5009 15.2932 28.4628 15.593 28.3905 15.8693C28.0307 17.2444 26.8722 18.2471 25.4805 18.4557C25.4878 18.304 25.4998 18.1536 25.4998 18.0001V17.0001C25.4998 16.7237 25.2762 16.5001 24.9998 16.5001C24.7234 16.5001 24.4998 16.7237 24.4998 17.0001V18.0001C24.4998 21.8724 21.8936 25.1419 18.3453 26.1635C18.3452 26.1633 18.3454 26.1637 18.3453 26.1635C17.9996 25.1968 17.0841 24.5001 15.9998 24.5001C14.6209 24.5001 13.4998 25.6212 13.4998 27.0001C13.4998 28.379 14.6209 29.5001 15.9998 29.5001C17.3241 29.5001 18.3998 28.4629 18.4837 27.1594C22.0599 26.188 24.8029 23.1817 25.382 19.4637C27.2724 19.2829 28.8749 17.9682 29.3572 16.1221C29.4529 15.7608 29.5008 15.3828 29.5008 15C29.5009 14.7238 29.2772 14.5002 29.0009 14.5002ZM15.9999 28.5002C15.1728 28.5002 14.4999 27.8273 14.4999 27.0002C14.4999 26.1731 15.1728 25.5002 15.9999 25.5002C16.827 25.5002 17.4999 26.1731 17.4999 27.0002C17.4999 27.8273 16.827 28.5002 15.9999 28.5002Z" fill="black"/>
</svg>
