<svg width="32" height="32" viewBox="0 0 32 32" fill="none" xmlns="http://www.w3.org/2000/svg">
<path d="M21.138 10.441L24.25 12.55V13C24.25 13.1989 24.329 13.3897 24.4697 13.5303C24.6103 13.671 24.8011 13.75 25 13.75C25.1989 13.75 25.3897 13.671 25.5303 13.5303C25.671 13.3897 25.75 13.1989 25.75 13V9.398L28.883 7.276C29.75 6.648 29.75 5.908 29.75 5.127V4C29.75 3.80109 29.671 3.61032 29.5303 3.46967C29.3897 3.32902 29.1989 3.25 29 3.25C28.8011 3.25 28.6103 3.32902 28.4697 3.46967C28.329 3.61032 28.25 3.80109 28.25 4V5.127C28.25 5.882 28.222 5.902 28.021 6.047L25.75 7.587V3C25.75 2.80109 25.671 2.61032 25.5303 2.46967C25.3897 2.32902 25.1989 2.25 25 2.25C24.8011 2.25 24.6103 2.32902 24.4697 2.46967C24.329 2.61032 24.25 2.80109 24.25 3V10.737L21.999 9.213C21.779 9.053 21.75 9.033 21.75 8.278V7.151C21.75 6.95209 21.671 6.76132 21.5303 6.62067C21.3897 6.48002 21.1989 6.401 21 6.401C20.8011 6.401 20.6103 6.48002 20.4697 6.62067C20.329 6.76132 20.25 6.95209 20.25 7.151V8.278C20.25 9.059 20.25 9.798 21.138 10.441ZM6.4 10.294C4.058 10.61 2.25 12.6 2.25 15C2.25 17.62 4.38 19.75 7 19.75C7.19891 19.75 7.38968 19.671 7.53033 19.5303C7.67098 19.3897 7.75 19.1989 7.75 19V12C7.75 11.7 7.767 11.402 7.798 11.11L7.804 11.058C7.806 11.037 7.811 11.017 7.814 10.996L6.53 9.712C6.483 9.904 6.434 10.097 6.4 10.294ZM6.25 12V18.163C5.53859 17.9932 4.90508 17.5888 4.45156 17.015C3.99803 16.4412 3.7509 15.7314 3.75 15C3.75 13.48 4.815 12.201 6.251 11.848L6.25 12Z" fill="#0F0F0F"/>
<path d="M29.6 16.184C29.7 15.801 29.751 15.402 29.751 15C29.751 14.8011 29.672 14.6103 29.5314 14.4697C29.3907 14.329 29.1999 14.25 29.001 14.25C28.8021 14.25 28.6114 14.329 28.4707 14.4697C28.3301 14.6103 28.251 14.8011 28.251 15C28.251 15.271 28.216 15.55 28.149 15.806C27.842 16.982 26.901 17.858 25.744 18.143C25.744 18.095 25.75 18.048 25.75 18V17C25.75 16.8011 25.671 16.6103 25.5304 16.4697C25.3897 16.329 25.1989 16.25 25 16.25C24.8011 16.25 24.6104 16.329 24.4697 16.4697C24.329 16.6103 24.25 16.8011 24.25 17V18C24.25 19.49 23.84 20.878 23.14 22.08L8.90603 7.845C10.338 5.404 12.971 3.75 16 3.75C16.618 3.75 17.235 3.818 17.833 3.954C18.027 3.99803 18.2306 3.96318 18.3989 3.85713C18.5672 3.75108 18.6865 3.58251 18.7305 3.3885C18.7746 3.19449 18.7397 2.99095 18.6337 2.82263C18.5276 2.65432 18.359 2.53503 18.165 2.491C17.4545 2.33056 16.7284 2.24973 16 2.25C12.56 2.25 9.54003 4.046 7.80503 6.745L4.53003 3.47C4.46137 3.39631 4.37857 3.33721 4.28657 3.29622C4.19457 3.25523 4.09526 3.23319 3.99455 3.23141C3.89385 3.22963 3.79382 3.24816 3.70043 3.28588C3.60705 3.3236 3.52221 3.37974 3.45099 3.45096C3.37977 3.52218 3.32363 3.60702 3.28591 3.7004C3.24819 3.79379 3.22966 3.89382 3.23144 3.99452C3.23322 4.09523 3.25526 4.19454 3.29625 4.28654C3.33724 4.37854 3.39634 4.46134 3.47003 4.53L27.47 28.53C27.5395 28.5999 27.622 28.6554 27.713 28.6932C27.804 28.7311 27.9015 28.7506 28 28.7506C28.0986 28.7506 28.1961 28.7311 28.2871 28.6932C28.378 28.6554 28.4606 28.5999 28.53 28.53C28.6705 28.3894 28.7494 28.1988 28.7494 28C28.7494 27.8012 28.6705 27.6106 28.53 27.47L24.233 23.173C24.912 22.1147 25.3765 20.9333 25.6 19.696C27.51 19.436 29.108 18.071 29.6 16.184V16.184ZM18.496 25.862C18.2783 25.3823 17.9272 24.9754 17.4847 24.6896C17.0422 24.4038 16.5268 24.2512 16 24.25C15.2709 24.2508 14.5719 24.5408 14.0564 25.0563C13.5408 25.5719 13.2508 26.2709 13.25 27C13.2508 27.7291 13.5408 28.4281 14.0564 28.9437C14.5719 29.4592 15.2709 29.7492 16 29.75C16.6656 29.7482 17.3078 29.5046 17.807 29.0646C18.3063 28.6245 18.6287 28.018 18.714 27.358C20.0193 26.9776 21.2306 26.3284 22.27 25.452L21.192 24.374C20.3951 25.0354 19.4804 25.5403 18.496 25.862V25.862ZM16 28.25C15.6772 28.2371 15.3718 28.0997 15.1479 27.8667C14.9241 27.6337 14.799 27.3231 14.799 27C14.799 26.6769 14.9241 26.3663 15.1479 26.1333C15.3718 25.9003 15.6772 25.7629 16 25.75C16.3229 25.7629 16.6282 25.9003 16.8521 26.1333C17.076 26.3663 17.201 26.6769 17.201 27C17.201 27.3231 17.076 27.6337 16.8521 27.8667C16.6282 28.0997 16.3229 28.2371 16 28.25Z" fill="#0F0F0F"/>
</svg>
