<svg xmlns="http://www.w3.org/2000/svg" width="32" height="32" viewBox="0 0 32 32"><path d="M21.138 10.441L24.25 12.55V13C24.25 13.1989 24.329 13.3897 24.4697 13.5303C24.6103 13.671 24.8011 13.75 25 13.75C25.1989 13.75 25.3897 13.671 25.5303 13.5303C25.671 13.3897 25.75 13.1989 25.75 13V9.398L28.883 7.276C29.75 6.648 29.75 5.908 29.75 5.127V4C29.75 3.80109 29.671 3.61032 29.5303 3.46967C29.3897 3.32902 29.1989 3.25 29 3.25C28.8011 3.25 28.6103 3.32902 28.4697 3.46967C28.329 3.61032 28.25 3.80109 28.25 4V5.127C28.25 5.882 28.222 5.902 28.021 6.047L25.75 7.587V3C25.75 2.80109 25.671 2.61032 25.5303 2.46967C25.3897 2.32902 25.1989 2.25 25 2.25C24.8011 2.25 24.6103 2.32902 24.4697 2.46967C24.329 2.61032 24.25 2.80109 24.25 3V10.737L21.999 9.213C21.779 9.053 21.75 9.033 21.75 8.278V7.151C21.75 6.95209 21.671 6.76132 21.5303 6.62067C21.3897 6.48002 21.1989 6.401 21 6.401C20.8011 6.401 20.6103 6.48002 20.4697 6.62067C20.329 6.76132 20.25 6.95209 20.25 7.151V8.278C20.25 9.059 20.25 9.798 21.138 10.441ZM6.4 10.294C4.058 10.61 2.25 12.6 2.25 15C2.25 17.62 4.38 19.75 7 19.75C7.19891 19.75 7.38968 19.671 7.53033 19.5303C7.67098 19.3897 7.75 19.1989 7.75 19V12C7.75 11.7 7.767 11.402 7.798 11.11L7.804 11.058C7.806 11.037 7.811 11.017 7.814 10.996L6.53 9.712C6.483 9.904 6.434 10.097 6.4 10.294ZM6.25 12V18.163C5.53859 17.9932 4.90508 17.5888 4.45156 17.015C3.99803 16.4412 3.7509 15.7314 3.75 15C3.75 13.48 4.815 12.201 6.251 11.848L6.25 12Z M29.5999 16.184C29.6999 15.801 29.7509 15.402 29.7509 15C29.7509 14.8011 29.6719 14.6103 29.5312 14.4697C29.3906 14.329 29.1998 14.25 29.0009 14.25C28.802 14.25 28.6112 14.329 28.4706 14.4697C28.3299 14.6103 28.2509 14.8011 28.2509 15C28.2509 15.271 28.2159 15.55 28.1489 15.806C27.8419 16.982 26.9009 17.858 25.7439 18.143C25.7439 18.095 25.7499 18.048 25.7499 18V17C25.7499 16.8011 25.6709 16.6103 25.5302 16.4697C25.3896 16.329 25.1988 16.25 24.9999 16.25C24.801 16.25 24.6102 16.329 24.4696 16.4697C24.3289 16.6103 24.2499 16.8011 24.2499 17V18C24.2499 19.49 23.8399 20.878 23.1399 22.08L8.90591 7.845C10.3379 5.404 12.9709 3.75 15.9999 3.75C16.6179 3.75 17.2349 3.818 17.8329 3.954C18.0269 3.99803 18.2305 3.96318 18.3988 3.85713C18.5671 3.75108 18.6864 3.58251 18.7304 3.3885C18.7744 3.19449 18.7396 2.99095 18.6335 2.82263C18.5275 2.65432 18.3589 2.53503 18.1649 2.491C17.4544 2.33056 16.7283 2.24973 15.9999 2.25C12.5599 2.25 9.53991 4.046 7.80491 6.745L4.52991 3.47C4.46125 3.39631 4.37845 3.33721 4.28645 3.29622C4.19445 3.25523 4.09513 3.23319 3.99443 3.23141C3.89373 3.22963 3.7937 3.24816 3.70031 3.28588C3.60692 3.3236 3.52209 3.37974 3.45087 3.45096C3.37965 3.52218 3.32351 3.60702 3.28579 3.7004C3.24807 3.79379 3.22954 3.89382 3.23132 3.99452C3.23309 4.09523 3.25514 4.19454 3.29613 4.28654C3.33712 4.37854 3.39622 4.46134 3.46991 4.53L27.4699 28.53C27.5393 28.5999 27.6219 28.6554 27.7129 28.6932C27.8038 28.7311 27.9014 28.7506 27.9999 28.7506C28.0984 28.7506 28.196 28.7311 28.2869 28.6932C28.3779 28.6554 28.4605 28.5999 28.5299 28.53C28.6704 28.3894 28.7493 28.1988 28.7493 28C28.7493 27.8012 28.6704 27.6106 28.5299 27.47L24.2329 23.173C24.9119 22.1147 25.3763 20.9333 25.5999 19.696C27.5099 19.436 29.1079 18.071 29.5999 16.184ZM18.4959 25.862C18.2781 25.3823 17.9271 24.9754 17.4846 24.6896C17.042 24.4038 16.5267 24.2512 15.9999 24.25C15.2708 24.2508 14.5718 24.5408 14.0562 25.0563C13.5407 25.5719 13.2507 26.2709 13.2499 27C13.2507 27.7291 13.5407 28.4281 14.0562 28.9437C14.5718 29.4592 15.2708 29.7492 15.9999 29.75C16.6654 29.7482 17.3076 29.5046 17.8069 29.0646C18.3062 28.6245 18.6285 28.018 18.7139 27.358C20.0192 26.9776 21.2305 26.3284 22.2699 25.452L21.1919 24.374C20.395 25.0354 19.4803 25.5403 18.4959 25.862ZM15.9999 28.25C15.677 28.2371 15.3717 28.0997 15.1478 27.8667C14.9239 27.6337 14.7989 27.3231 14.7989 27C14.7989 26.6769 14.9239 26.3663 15.1478 26.1333C15.3717 25.9003 15.677 25.7629 15.9999 25.75C16.3228 25.7629 16.6281 25.9003 16.852 26.1333C17.0759 26.3663 17.2009 26.6769 17.2009 27C17.2009 27.3231 17.0759 27.6337 16.852 27.8667C16.6281 28.0997 16.3228 28.2371 15.9999 28.25Z"/></svg>