<svg xmlns="http://www.w3.org/2000/svg" width="32" height="32" viewBox="0 0 32 32"><path d="M21.277 10.235L24.5 12.417V13C24.5 13.1326 24.5527 13.2598 24.6464 13.3536C24.7402 13.4473 24.8674 13.5 25 13.5C25.1326 13.5 25.2598 13.4473 25.3536 13.3536C25.4473 13.2598 25.5 13.1326 25.5 13V9.265L28.736 7.073C29.5 6.519 29.5 5.905 29.5 5.127V4C29.5 3.86739 29.4473 3.74022 29.3536 3.64645C29.2598 3.55268 29.1326 3.5 29 3.5C28.8674 3.5 28.7402 3.55268 28.6464 3.64645C28.5527 3.74022 28.5 3.86739 28.5 4V5.127C28.5 5.887 28.477 6.027 28.162 6.255L25.5 8.058V3C25.5 2.86739 25.4473 2.74022 25.3536 2.64645C25.2598 2.55268 25.1326 2.5 25 2.5C24.8674 2.5 24.7402 2.55268 24.6464 2.64645C24.5527 2.74022 24.5 2.86739 24.5 3V11.21L21.852 9.416C21.523 9.178 21.5 9.038 21.5 8.279V7.152C21.5 7.01939 21.4473 6.89221 21.3536 6.79845C21.2598 6.70468 21.1326 6.652 21 6.652C20.8674 6.652 20.7402 6.70468 20.6464 6.79845C20.5527 6.89221 20.5 7.01939 20.5 7.152V8.279C20.5 9.056 20.5 9.67 21.277 10.235ZM17.889 3.71C17.953 3.72476 18.0192 3.72669 18.084 3.7157C18.1487 3.70471 18.2106 3.681 18.2661 3.64594C18.3216 3.61089 18.3696 3.56519 18.4074 3.51147C18.4451 3.45776 18.4718 3.3971 18.486 3.333C18.5006 3.26897 18.5025 3.20269 18.4914 3.13795C18.4804 3.07321 18.4567 3.01129 18.4217 2.95573C18.3866 2.90017 18.341 2.85208 18.2873 2.8142C18.2337 2.77632 18.1731 2.74941 18.109 2.735C17.4169 2.57867 16.7095 2.49985 16 2.5C11.265 2.5 7.328 5.982 6.616 10.52C4.308 10.74 2.5 12.665 2.5 15C2.5 17.481 4.518 19.5 7 19.5C7.13261 19.5 7.25979 19.4473 7.35355 19.3536C7.44732 19.2598 7.5 19.1326 7.5 19V12C7.5 7.314 11.313 3.5 16 3.5C16.636 3.5 17.271 3.57 17.889 3.71ZM6.499 18.465C5.66655 18.3433 4.90561 17.9264 4.35504 17.2903C3.80447 16.6542 3.501 15.8413 3.5 15C3.5 13.252 4.808 11.8 6.512 11.541L6.5 18.465H6.499ZM29 14.5C28.8674 14.5 28.7402 14.5527 28.6464 14.6464C28.5527 14.7402 28.5 14.8674 28.5 15C28.5 15.293 28.463 15.593 28.39 15.87C28.03 17.244 26.872 18.247 25.48 18.456C25.488 18.304 25.5 18.154 25.5 18V17C25.5 16.8674 25.4473 16.7402 25.3536 16.6464C25.2598 16.5527 25.1326 16.5 25 16.5C24.8674 16.5 24.7402 16.5527 24.6464 16.6464C24.5527 16.7402 24.5 16.8674 24.5 17V18C24.5 21.872 21.894 25.142 18.345 26.163C18.1734 25.6778 17.8559 25.2575 17.4361 24.9598C17.0163 24.6621 16.5147 24.5015 16 24.5C15.3371 24.5005 14.7015 24.7641 14.2328 25.2328C13.7641 25.7015 13.5005 26.3371 13.5 27C13.5 28.379 14.62 29.5 16 29.5C17.324 29.5 18.4 28.463 18.484 27.16C22.06 26.188 24.803 23.182 25.382 19.464C27.272 19.283 28.875 17.968 29.357 16.122C29.453 15.761 29.501 15.382 29.501 15C29.501 14.8674 29.4483 14.7402 29.3546 14.6464C29.2608 14.5527 29.1336 14.5 29.001 14.5H29ZM16 28.5C15.173 28.5 14.5 27.827 14.5 27C14.5 26.173 15.173 25.5 16 25.5C16.827 25.5 17.5 26.173 17.5 27C17.5 27.827 16.827 28.5 16 28.5Z"/></svg>