<svg width="32" height="32" viewBox="0 0 32 32" fill="none" xmlns="http://www.w3.org/2000/svg">
<path d="M21.2783 10.2344L24.5 12.4167V13.0001C24.5 13.2765 24.7236 13.5001 25 13.5001C25.2764 13.5001 25.5 13.2765 25.5 13.0001V9.26529L28.7363 7.07329C29.5 6.51959 29.5 5.90529 29.5 5.12699V3.99999C29.5 3.72359 29.2764 3.49999 29 3.49999C28.7236 3.49999 28.5 3.72359 28.5 3.99999V5.12699C28.5 5.88769 28.4766 6.02639 28.1621 6.25489L25.5 8.05759V3.00009C25.5 2.72369 25.2764 2.50009 25 2.50009C24.7236 2.50009 24.5 2.72369 24.5 3.00009V11.209L21.8525 9.41609C21.5234 9.17779 21.5 9.03819 21.5 8.27839V7.15139C21.5 6.87499 21.2764 6.65139 21 6.65139C20.7236 6.65139 20.5 6.87499 20.5 7.15139V8.27839C20.5 9.05569 20.5 9.66999 21.2783 10.2344Z" fill="black"/>
<path d="M6.6152 10.5206C4.3086 10.7403 2.5 12.6651 2.5 15.0001C2.5 17.4815 4.5186 19.5001 7 19.5001C7.2764 19.5001 7.5 19.2765 7.5 19.0001V12.0001C7.5 11.6886 7.5166 11.38 7.5498 11.0772C7.5518 11.0635 7.5537 11.0489 7.5547 11.0342C7.599 10.6445 7.6781 10.2661 7.7735 9.89402L6.965 9.0856C6.8147 9.5504 6.6926 10.0278 6.6152 10.5206ZM6.5 18.4649C4.8057 18.2208 3.5 16.7598 3.5 15.0001C3.5 13.2521 4.8076 11.7999 6.5107 11.5411L6.5 18.4649Z" fill="black"/>
<path d="M18.3455 26.1635C18.3454 26.1633 18.3456 26.1637 18.3455 26.1635C17.9998 25.1968 17.0843 24.5001 16 24.5001C14.6211 24.5001 13.5 25.6212 13.5 27.0001C13.5 28.379 14.6211 29.5001 16 29.5001C17.3243 29.5001 18.4 28.4629 18.4839 27.1594C20.0761 26.7269 21.4868 25.8743 22.6312 24.7519L21.9408 24.0615C20.9466 25.034 19.718 25.7683 18.3455 26.1635ZM16 28.5001C15.1729 28.5001 14.5 27.8272 14.5 27.0001C14.5 26.173 15.1729 25.5001 16 25.5001C16.8271 25.5001 17.5 26.173 17.5 27.0001C17.5 27.8272 16.8272 28.5001 16 28.5001Z" fill="black"/>
<path d="M29.3594 16.1212C29.4532 15.7589 29.501 15.381 29.501 15.0001C29.501 14.7237 29.2774 14.5001 29.001 14.5001C28.7246 14.5001 28.501 14.7237 28.501 15.0001C28.501 15.2921 28.4629 15.5929 28.3916 15.8692C28.0317 17.2444 26.8731 18.2472 25.4807 18.4557C25.488 18.304 25.5 18.1536 25.5 18.0001V17.0001C25.5 16.7237 25.2764 16.5001 25 16.5001C24.7236 16.5001 24.5 16.7237 24.5 17.0001V18.0001C24.5 19.6515 24.0171 21.1866 23.1971 22.4902L8.585 7.8781C10.0385 5.273 12.8108 3.5001 16 3.5001C16.6367 3.5001 17.2725 3.5704 17.8887 3.7101C18.1602 3.7736 18.4268 3.6027 18.4864 3.3331C18.5479 3.0636 18.379 2.796 18.1094 2.7354C17.4209 2.5792 16.711 2.5 16 2.5C12.5367 2.5 9.51544 4.3723 7.8556 7.1486L4.3535 3.6465C4.1582 3.4512 3.8418 3.4512 3.6465 3.6465C3.4512 3.8418 3.4512 4.1582 3.6465 4.3535L27.6465 28.3535C27.7442 28.4512 27.8721 28.5 28 28.5C28.1279 28.5 28.2559 28.4512 28.3535 28.3535C28.5488 28.1582 28.5488 27.8418 28.3535 27.6465L23.9043 23.1973C24.6423 22.0904 25.1689 20.833 25.3821 19.4636C27.2734 19.2829 28.8761 17.9682 29.3594 16.1212Z" fill="black"/>
</svg>
