<svg width="32" height="32" viewBox="0 0 32 32" fill="none" xmlns="http://www.w3.org/2000/svg">
<path d="M24 10.0002C23.8687 10.0002 23.7386 10.026 23.6172 10.0762C23.4959 10.1264 23.3856 10.2001 23.2927 10.293C23.1999 10.3858 23.1262 10.4961 23.076 10.6175C23.0257 10.7388 22.9999 10.8689 23 11.0002V13.5812C23.0001 13.7913 22.9488 13.9982 22.8503 14.1838C22.7519 14.3693 22.6095 14.528 22.4356 14.6457L17 18.3263V6.4143L19.293 8.7073C19.3859 8.80015 19.4961 8.8738 19.6174 8.92404C19.7387 8.97429 19.8687 9.00015 20 9.00015C20.1313 9.00014 20.2614 8.97428 20.3827 8.92402C20.504 8.87377 20.6142 8.80012 20.7071 8.70727C20.7999 8.61442 20.8736 8.50419 20.9238 8.38287C20.9741 8.26156 20.9999 8.13154 20.9999 8.00023C20.9999 7.86892 20.974 7.7389 20.9238 7.61759C20.8735 7.49627 20.7999 7.38605 20.707 7.2932L16.707 3.2932C16.6142 3.20032 16.504 3.12665 16.3827 3.07638C16.2613 3.02611 16.1313 3.00024 16 3.00024C15.8687 3.00024 15.7387 3.02611 15.6173 3.07638C15.496 3.12665 15.3858 3.20032 15.293 3.2932L11.293 7.2932C11.1055 7.48072 11.0001 7.73504 11.0001 8.00023C11.0001 8.26542 11.1054 8.51975 11.293 8.70727C11.4805 8.89478 11.7348 9.00013 12 9.00013C12.2652 9.00013 12.5195 8.89479 12.707 8.70727L15 6.41427V24.4893L9.56543 20.8088C9.39119 20.6913 9.2485 20.5328 9.14991 20.3472C9.05131 20.1615 8.99984 19.9546 9 19.7444V18.0002C9 17.735 8.89464 17.4807 8.70711 17.2931C8.51957 17.1056 8.26522 17.0002 8 17.0002C7.73478 17.0002 7.48043 17.1056 7.29289 17.2931C7.10536 17.4807 7 17.735 7 18.0002V19.7444C6.9998 20.2813 7.13127 20.8101 7.38291 21.2845C7.63455 21.7588 7.99866 22.1642 8.44336 22.4651L15 26.9048V28.0002C15 28.2655 15.1054 28.5198 15.2929 28.7073C15.4804 28.8949 15.7348 29.0002 16 29.0002C16.2652 29.0002 16.5196 28.8949 16.7071 28.7073C16.8946 28.5198 17 28.2655 17 28.0002V20.7418L23.5576 16.302C24.002 16.0009 24.3659 15.5954 24.6173 15.1211C24.8688 14.6468 25.0002 14.1181 25 13.5813V11.0003C25.0001 10.869 24.9743 10.7389 24.9241 10.6175C24.8738 10.4961 24.8002 10.3859 24.7073 10.293C24.6144 10.2001 24.5042 10.1264 24.3828 10.0762C24.2614 10.026 24.1313 10.0002 24 10.0002Z" fill="black"/>
</svg>
