<svg width="32" height="32" viewBox="0 0 32 32" fill="none" xmlns="http://www.w3.org/2000/svg">
<path d="M30 16.0001C30.0081 12.7592 28.8943 9.61543 26.8478 7.10245C24.8012 4.58948 21.948 2.8622 18.7727 2.21388C15.5973 1.56557 12.2954 2.03616 9.42754 3.54577C6.55971 5.05538 4.3027 7.51097 3.03969 10.4956C1.77669 13.4803 1.58553 16.8101 2.49868 19.9197C3.41183 23.0293 5.373 25.727 8.04923 27.5549C10.7255 29.3828 13.9518 30.2281 17.1805 29.9475C20.4093 29.6668 23.4413 28.2774 25.762 26.0151C25.782 25.9991 25.799 25.9831 25.817 25.9651C27.1418 24.6657 28.1941 23.115 28.9123 21.404C29.6306 19.6929 30.0004 17.8558 30 16.0001ZM16 4.00012C18.2597 3.99711 20.4742 4.633 22.3881 5.83442C24.3019 7.03584 25.8371 8.75384 26.8166 10.7902C27.796 12.8266 28.1798 15.0984 27.9237 17.3435C27.6676 19.5887 26.782 21.7157 25.369 23.4791C24.1305 21.2591 22.1395 19.5546 19.755 18.6731C20.7244 17.8956 21.4285 16.8363 21.77 15.6415C22.1115 14.4467 22.0736 13.1754 21.6615 12.003C21.2495 10.8307 20.4836 9.81517 19.4696 9.09679C18.4557 8.37841 17.2437 7.99257 16.001 7.99257C14.7584 7.99257 13.5464 8.37841 12.5324 9.09679C11.5184 9.81517 10.7525 10.8307 10.3405 12.003C9.92843 13.1754 9.89054 14.4467 10.2321 15.6415C10.5736 16.8363 11.2776 17.8956 12.247 18.6731C9.8643 19.5588 7.87481 21.264 6.63502 23.4831C5.2215 21.7199 4.33526 19.5929 4.07855 17.3476C3.82184 15.1024 4.20512 12.8303 5.18416 10.7935C6.16321 8.75665 7.69813 7.03812 9.61185 5.83613C11.5256 4.63414 13.7401 3.99766 16 4.00012V4.00012ZM12 14.0001C12 12.9391 12.4215 11.9216 13.1717 11.1713C13.922 10.4211 14.9395 9.99962 16.0005 9.99962C17.0615 9.99962 18.0791 10.4211 18.8293 11.1713C19.5795 11.9216 20.001 12.9391 20.001 14.0001C20.001 15.061 19.5796 16.0784 18.8294 16.8285C18.0793 17.5787 17.0619 18.0001 16.001 18.0001C14.9401 18.0001 13.9227 17.5787 13.1726 16.8285C12.4224 16.0784 12.001 15.061 12.001 14.0001H12ZM8.11001 25.0171C8.81277 23.5175 9.92828 22.2491 11.3259 21.3606C12.7235 20.472 14.3454 20.0002 16.0015 20.0002C17.6577 20.0002 19.2795 20.472 20.6771 21.3606C22.0748 22.2491 23.1903 23.5175 23.893 25.0171C21.7134 26.939 18.9074 27.9994 16.0015 27.9994C13.0956 27.9994 10.2896 26.939 8.11001 25.0171V25.0171Z" fill="#0F0F0F"/>
</svg>
