<svg width="32" height="32" viewBox="0 0 32 32" fill="none" xmlns="http://www.w3.org/2000/svg">
<path d="M29.5004 15.9997C29.5075 12.8748 28.4329 9.84373 26.4589 7.42125C24.4849 4.99876 21.7333 3.3342 18.6713 2.71022C15.6093 2.08624 12.4257 2.54132 9.66118 3.99817C6.89665 5.45503 4.72158 7.82384 3.50534 10.7024C2.2891 13.5809 2.10667 16.7916 2.98903 19.7894C3.87139 22.7871 5.76414 25.3871 8.34586 27.1477C10.9276 28.9083 14.0391 29.7211 17.1521 29.4479C20.265 29.1748 23.1875 27.8326 25.4232 25.6493C25.4405 25.6357 25.4569 25.6208 25.4722 25.6049C26.7483 24.3519 27.7617 22.8571 28.4534 21.2079C29.1451 19.5586 29.501 17.7881 29.5004 15.9997ZM16.0004 3.49969C18.4186 3.49553 20.7859 4.1941 22.8145 5.51043C24.843 6.82676 26.4454 8.70415 27.4267 10.9143C28.4081 13.1244 28.7261 15.5721 28.3421 17.9596C27.9581 20.3471 26.8887 22.5717 25.2639 24.3627C24.6287 23.0099 23.7033 21.8136 22.5535 20.8589C21.4036 19.9042 20.0576 19.2145 18.611 18.8389C19.6887 18.2578 20.5417 17.3336 21.0347 16.2129C21.5278 15.0921 21.6328 13.8389 21.3331 12.6518C21.0334 11.4646 20.3461 10.4114 19.3802 9.65898C18.4142 8.90658 17.2248 8.49802 16.0004 8.49802C14.776 8.49802 13.5866 8.90658 12.6207 9.65898C11.6547 10.4114 10.9674 11.4646 10.6677 12.6518C10.368 13.8389 10.473 15.0921 10.9661 16.2129C11.4592 17.3336 12.3121 18.2578 13.3898 18.8389C11.9443 19.217 10.5994 19.9077 9.44999 20.8623C8.30058 21.8168 7.37468 23.0121 6.73763 24.3635C5.11259 22.5726 4.04294 20.3481 3.65879 17.9605C3.27464 15.5729 3.59254 13.1251 4.57381 10.9148C5.55509 8.70454 7.15747 6.82702 9.18607 5.51058C11.2147 4.19415 13.5821 3.49553 16.0004 3.49969ZM16.0004 18.4997C15.1104 18.4997 14.2403 18.2358 13.5003 17.7413C12.7603 17.2468 12.1835 16.544 11.8429 15.7218C11.5023 14.8995 11.4132 13.9947 11.5869 13.1218C11.7605 12.2489 12.1891 11.447 12.8184 10.8177C13.4477 10.1884 14.2496 9.75979 15.1225 9.58616C15.9954 9.41252 16.9002 9.50164 17.7225 9.84223C18.5447 10.1828 19.2475 10.7596 19.742 11.4996C20.2365 12.2396 20.5004 13.1097 20.5004 13.9997C20.4991 15.1928 20.0246 16.3366 19.1809 17.1802C18.3373 18.0239 17.1935 18.4984 16.0004 18.4997ZM7.49709 25.1357C8.20398 23.4647 9.38748 22.039 10.8998 21.0367C12.4121 20.0343 14.1862 19.4998 16.0006 19.4997C17.8149 19.4996 19.589 20.0341 21.1014 21.0363C22.6138 22.0385 23.7975 23.4641 24.5045 25.135C22.2006 27.2965 19.16 28.4996 16.0009 28.4997C12.8418 28.4998 9.80118 27.297 7.49709 25.1357Z" fill="black"/>
</svg>
