<svg xmlns="http://www.w3.org/2000/svg" width="32" height="32" viewBox="0 0 32 32"><path d="M10.2451 8.5C10.2451 5.87665 12.3718 3.75 14.9951 3.75C17.6185 3.75 19.7451 5.87665 19.7451 8.5C19.7451 11.1234 17.6185 13.25 14.9951 13.25C12.3718 13.25 10.2451 11.1234 10.2451 8.5ZM14.9951 2.25C11.5433 2.25 8.74512 5.04822 8.74512 8.5C8.74512 10.6922 9.87371 12.6207 11.5816 13.7363C6.78619 15.1183 3.25 19.306 3.25 24.0749C3.25 26.335 5.25277 27.7818 7.56728 28.6134C9.95549 29.4714 13.0564 29.8323 16.0272 29.7244C16.4412 29.7094 16.7645 29.3616 16.7495 28.9477C16.7345 28.5338 16.3867 28.2104 15.9728 28.2254C13.1326 28.3285 10.2335 27.9774 8.07447 27.2017C5.84173 26.3995 4.75 25.2907 4.75 24.0749C4.75 19.1617 9.28454 14.7549 15 14.7549L15.0018 14.7549C17.3662 14.7494 19.6663 15.5252 21.5444 16.9616C21.8734 17.2133 22.3441 17.1506 22.5957 16.8216C22.8474 16.4925 22.7847 16.0218 22.4556 15.7702C21.2387 14.8394 19.8664 14.152 18.4134 13.7332C20.1186 12.6171 21.2451 10.6901 21.2451 8.5C21.2451 5.04822 18.4469 2.25 14.9951 2.25ZM28.5303 18.7197C28.8232 19.0126 28.8232 19.4874 28.5303 19.7803L25.0607 23.25L28.5303 26.7197C28.8232 27.0126 28.8232 27.4874 28.5303 27.7803C28.2374 28.0732 27.7626 28.0732 27.4697 27.7803L24 24.3107L20.5303 27.7803C20.2374 28.0732 19.7626 28.0732 19.4697 27.7803C19.1768 27.4874 19.1768 27.0126 19.4697 26.7197L22.9393 23.25L19.4697 19.7803C19.1768 19.4874 19.1768 19.0126 19.4697 18.7197C19.7626 18.4268 20.2374 18.4268 20.5303 18.7197L24 22.1893L27.4697 18.7197C27.7626 18.4268 28.2374 18.4268 28.5303 18.7197Z"/></svg>