<svg xmlns="http://www.w3.org/2000/svg" width="32" height="32" viewBox="0 0 32 32"><path d="M29.5 15.9999C29.507 12.875 28.4322 9.84402 26.4581 7.42162C24.484 4.99922 21.7324 3.33476 18.6704 2.7109C15.6084 2.08703 12.4248 2.54221 9.66036 3.99916C6.89588 5.4561 4.72089 7.82497 3.50475 10.7035C2.2886 13.5821 2.10627 16.7928 2.98871 19.7905C3.87115 22.7882 5.76397 25.3881 8.34573 27.1487C10.9275 28.9092 14.039 29.7219 17.152 29.4487C20.2649 29.1755 23.1873 27.8332 25.423 25.6499C26.7132 24.3957 27.7388 22.8955 28.4391 21.238C29.1394 19.5804 29.5001 17.7993 29.5 15.9999ZM16 3.49991C18.4181 3.49585 20.7854 4.19446 22.8139 5.51079C24.8424 6.82712 26.4447 8.70447 27.4261 10.9146C28.4075 13.1246 28.7256 15.5722 28.3417 17.9597C27.9579 20.3473 26.8886 22.5718 25.264 24.3629C24.6287 23.0101 23.7033 21.8138 22.5534 20.8591C21.4036 19.9043 20.0575 19.2146 18.611 18.8389C19.6887 18.2578 20.5416 17.3336 21.0347 16.2129C21.5278 15.0921 21.6329 13.8389 21.3332 12.6517C21.0335 11.4645 20.3462 10.4113 19.3802 9.6589C18.4143 8.90649 17.2249 8.49791 16.0005 8.49791C14.776 8.49791 13.5866 8.90649 12.6207 9.6589C11.6547 10.4113 10.9674 11.4645 10.6678 12.6517C10.3681 13.8389 10.4731 15.0921 10.9662 16.2129C11.4593 17.3336 12.3122 18.2578 13.39 18.8389C11.9445 19.2169 10.5997 19.9075 9.45033 20.862C8.30095 21.8165 7.37505 23.0115 6.73796 24.3629C5.11297 22.5721 4.04336 20.3477 3.6592 17.9602C3.27504 15.5727 3.59288 13.125 4.57408 10.9149C5.55527 8.70469 7.15754 6.82723 9.18602 5.51083C11.2145 4.19443 13.5818 3.4958 16 3.49991ZM16 18.4999C15.409 18.4999 14.8238 18.3835 14.2779 18.1574C13.7319 17.9312 13.2358 17.5998 12.818 17.1819C12.4001 16.764 12.0686 16.268 11.8425 15.722C11.6164 15.176 11.5 14.5909 11.5 13.9999C11.5 13.409 11.6164 12.8238 11.8425 12.2778C12.0686 11.7319 12.4001 11.2358 12.818 10.8179C13.2358 10.4001 13.7319 10.0686 14.2779 9.84246C14.8238 9.61631 15.409 9.49991 16 9.49991C17.1934 9.49991 18.338 9.97402 19.1819 10.8179C20.0259 11.6618 20.5 12.8064 20.5 13.9999C20.5 15.1934 20.0259 16.338 19.1819 17.1819C18.338 18.0258 17.1934 18.4999 16 18.4999ZM7.49696 25.1359C8.20356 23.4646 9.38697 22.0385 10.8994 21.0358C12.4118 20.0332 14.1861 19.4984 16.0006 19.4983C17.8152 19.4982 19.5896 20.0328 21.1021 21.0352C22.6146 22.0377 23.7982 23.4637 24.505 25.1349C22.2009 27.2965 19.1602 28.4996 16.001 28.4996C12.8417 28.4996 9.80098 27.2965 7.49696 25.1349V25.1359Z"/></svg>