<svg xmlns="http://www.w3.org/2000/svg" width="32" height="32" viewBox="0 0 32 32"><path d="M24.4491 16.1912L17.2431 3.23619C17.121 3.01355 16.9413 2.82779 16.7229 2.69829C16.5045 2.56879 16.2554 2.50031 16.0014 2.5C15.7475 2.49969 15.4982 2.56757 15.2795 2.69654C15.0608 2.82552 14.8807 3.01085 14.7581 3.23319L7.55505 16.1302C6.83285 17.4629 6.47383 18.9621 6.51403 20.4773C6.55422 21.9926 6.99221 23.4707 7.78405 24.7632C8.62032 26.203 9.81978 27.3982 11.2626 28.2293C12.7054 29.0605 14.3411 29.4984 16.0062 29.4994C17.6713 29.5004 19.3075 29.0645 20.7513 28.2351C22.1951 27.4057 23.396 26.212 24.2341 24.7732C25.0195 23.4872 25.4528 22.0173 25.4905 20.511C25.5282 19.0046 25.1691 17.5149 24.4491 16.1912Z"/></svg>