<svg xmlns="http://www.w3.org/2000/svg" width="32" height="32" viewBox="0 0 32 32"><path d="M11.8579 16.9698H14.0149L12.9419 13.4658L11.8579 16.9698Z M28.788 9.724C28.5629 9.58615 28.3056 9.50988 28.0418 9.50286C27.778 9.49584 27.517 9.55831 27.285 9.684L23.502 12.089V10C23.5006 8.80693 23.0261 7.66311 22.1825 6.81948C21.3388 5.97585 20.195 5.50132 19.002 5.5H7.00195C5.80889 5.50132 4.66506 5.97585 3.82143 6.81948C2.97781 7.66311 2.50328 8.80693 2.50195 10V22C2.50328 23.1931 2.97781 24.3369 3.82143 25.1805C4.66506 26.0241 5.80889 26.4987 7.00195 26.5H19.002C20.195 26.4987 21.3388 26.0241 22.1825 25.1805C23.0261 24.3369 23.5006 23.1931 23.502 22V19.91L27.328 22.34C27.538 22.445 27.768 22.5 28.001 22.5C28.3985 22.4989 28.7794 22.3406 29.0604 22.0595C29.3415 21.7784 29.4999 21.3975 29.501 21V11C29.5019 10.7439 29.4368 10.492 29.3119 10.2684C29.187 10.0449 29.0065 9.85737 28.788 9.724ZM14.973 20.108L14.391 18.225H11.47L10.889 20.108H8.99295L11.915 11.892H14.049L16.993 20.108H14.973Z"/></svg>