<svg width="32" height="32" viewBox="0 0 32 32" fill="none" xmlns="http://www.w3.org/2000/svg">
<path d="M24.4486 16.191L17.2435 3.2359C17.1214 3.01322 16.9417 2.82741 16.7232 2.69789C16.5047 2.56837 16.2555 2.49989 16.0015 2.49959C15.7475 2.49929 15.4981 2.56719 15.2793 2.6962C15.0605 2.82521 14.8804 3.01059 14.7577 3.23299L7.55505 16.1304C6.83276 17.463 6.47366 18.9622 6.51377 20.4774C6.55388 21.9927 6.99179 23.4707 7.78357 24.7633C8.61983 26.2031 9.81932 27.3984 11.2622 28.2295C12.705 29.0607 14.3407 29.4986 16.0059 29.4996C17.671 29.5006 19.3072 29.0646 20.7511 28.2351C22.1949 27.4057 23.3958 26.2119 24.2338 24.773C25.0192 23.4871 25.4525 22.0171 25.4902 20.5108C25.5279 19.0044 25.1687 17.5146 24.4486 16.191Z" fill="black"/>
</svg>
