<svg xmlns="http://www.w3.org/2000/svg" width="32" height="32" viewBox="0 0 32 32"><path d="M15.9991 29.7501C14.294 29.7362 12.6217 29.2806 11.1453 28.4276C9.66884 27.5745 8.43878 26.3533 7.57512 24.8831C6.7573 23.5489 6.30464 22.0231 6.26251 20.4587C6.22039 18.8944 6.59029 17.3464 7.33512 15.9701L14.5391 3.11211C14.6834 2.85062 14.8953 2.63268 15.1526 2.48103C15.4099 2.32938 15.7031 2.24959 16.0018 2.25C16.3005 2.25041 16.5935 2.331 16.8504 2.48335C17.1073 2.6357 17.3185 2.85423 17.4621 3.11611L24.6671 16.0701C25.4085 17.4317 25.7787 18.9644 25.7404 20.5143C25.7022 22.0642 25.2568 23.5768 24.4491 24.9001C23.5799 26.3699 22.3446 27.5892 20.8636 28.4393C19.3826 29.2893 17.7067 29.7409 15.9991 29.7501ZM16.0001 3.75011C15.9697 3.74905 15.9397 3.75667 15.9135 3.77208C15.8873 3.78749 15.866 3.81005 15.8521 3.83711L15.8491 3.84211L8.64612 16.6971C8.0197 17.8421 7.70987 19.1334 7.74854 20.438C7.78721 21.7426 8.17299 23.0132 8.86612 24.1191C9.58945 25.3737 10.6301 26.4158 11.8836 27.141C13.1371 27.8661 14.5594 28.2487 16.0075 28.2504C17.4556 28.252 18.8787 27.8726 20.1339 27.1502C21.389 26.4279 22.432 25.388 23.1581 24.1351C23.8406 23.0397 24.2186 21.782 24.2533 20.4919C24.2879 19.2017 23.9779 17.9256 23.3551 16.7951L16.1501 3.84011C16.1364 3.81233 16.1149 3.78908 16.0883 3.77313C16.0617 3.75717 16.0311 3.74918 16.0001 3.75011Z"/></svg>