<svg xmlns="http://www.w3.org/2000/svg" width="32" height="32" viewBox="0 0 32 32"><path d="M11.9149 11.8921L8.99292 20.1081H10.8879L11.4689 18.2251H14.3909L14.9729 20.1081H16.9929L14.0489 11.8921H11.9149ZM11.8579 16.9701L12.9419 13.4661L14.0149 16.9701H11.8569H11.8579Z M29.05 9.298C28.7458 9.10891 28.3962 9.00564 28.0381 8.99913C27.68 8.99261 27.3268 9.0831 27.016 9.261L24.001 11.178V10C23.9994 8.6744 23.4721 7.40356 22.5348 6.46622C21.5974 5.52888 20.3266 5.00159 19.001 5H7.00098C5.67538 5.00159 4.40453 5.52888 3.4672 6.46622C2.52986 7.40356 2.00256 8.6744 2.00098 10V22C2.00256 23.3256 2.52986 24.5964 3.4672 25.5338C4.40453 26.4711 5.67538 26.9984 7.00098 27H19.001C20.3266 26.9984 21.5974 26.4711 22.5348 25.5338C23.4721 24.5964 23.9994 23.3256 24.001 22V20.822L27.016 22.738C27.0448 22.7562 27.0745 22.7729 27.105 22.788C27.4098 22.9401 27.7484 23.0118 28.0887 22.9964C28.429 22.9809 28.7597 22.8788 29.0495 22.6997C29.3392 22.5206 29.5784 22.2705 29.7444 21.973C29.9104 21.6756 29.9977 21.3406 29.998 21V11C29.9994 10.6587 29.9128 10.3227 29.7466 10.0246C29.5803 9.72648 29.3401 9.47623 29.049 9.298H29.05ZM22 22C21.9992 22.7954 21.6829 23.558 21.1204 24.1204C20.558 24.6829 19.7954 24.9992 19 25H6.99998C6.20457 24.9992 5.44197 24.6829 4.87953 24.1204C4.3171 23.558 4.00077 22.7954 3.99998 22V10C4.00077 9.20459 4.3171 8.44199 4.87953 7.87956C5.44197 7.31712 6.20457 7.00079 6.99998 7H19C19.7954 7.00079 20.558 7.31712 21.1204 7.87956C21.6829 8.44199 21.9992 9.20459 22 10V22ZM24 18.453V13.547L27.997 11.007L27.998 20.994L24 18.453Z"/></svg>