<svg width="32" height="32" viewBox="0 0 32 32" fill="none" xmlns="http://www.w3.org/2000/svg">
<path d="M29.0528 9.2937C28.7633 9.11282 28.432 9.00986 28.0909 8.99481C27.7499 8.97976 27.4108 9.05313 27.1065 9.2078C27.076 9.22261 27.0465 9.23931 27.0181 9.2578L24 11.1764V10C23.9985 8.67439 23.4712 7.40351 22.5338 6.46616C21.5965 5.52881 20.3256 5.00154 19 5H7C5.6744 5.00156 4.40353 5.52885 3.46619 6.46619C2.52885 7.40353 2.00156 8.6744 2 10V22C2.00156 23.3256 2.52885 24.5965 3.46619 25.5338C4.40353 26.4712 5.6744 26.9984 7 27H19C20.3256 26.9984 21.5965 26.4712 22.5338 25.5338C23.4712 24.5965 23.9984 23.3256 24 22V20.8153L27.0181 22.7342C27.0474 22.7527 27.0772 22.7693 27.1081 22.7849C27.413 22.9373 27.7518 23.0092 28.0924 22.9938C28.4329 22.9785 28.7639 22.8763 29.0538 22.6971C29.3438 22.5179 29.5831 22.2675 29.7491 21.9697C29.9151 21.672 30.0022 21.3368 30.0022 20.9959V10.9949C30.0033 10.6537 29.9165 10.3179 29.7502 10.02C29.584 9.72203 29.3438 9.47191 29.0528 9.2937ZM22 22C21.9991 22.7954 21.6828 23.5579 21.1204 24.1204C20.5579 24.6828 19.7954 24.9991 19 25H7C6.20462 24.9991 5.44206 24.6828 4.87964 24.1204C4.31722 23.5579 4.00087 22.7954 4 22V10C4.00087 9.20462 4.31722 8.44206 4.87964 7.87964C5.44206 7.31722 6.20462 7.00087 7 7H19C19.7954 7.00087 20.5579 7.31722 21.1204 7.87964C21.6828 8.44206 21.9991 9.20462 22 10V22ZM28.0015 20.99L24 18.4455V13.5462L28.002 11.0017L28.0015 20.99Z" fill="black"/>
</svg>
