<svg width="32" height="32" viewBox="0 0 32 32" fill="none" xmlns="http://www.w3.org/2000/svg">
<path d="M11.915 11.8918L8.99329 20.1081H10.8879L11.4692 18.2248H14.3911L14.9733 20.1081H16.9933L14.0493 11.8918H11.915ZM11.8575 16.97L12.9422 13.466L14.0149 16.97H11.8575Z" fill="black"/>
<path d="M29.0492 9.29753C28.7596 9.11731 28.4285 9.01472 28.0878 8.99967C27.7471 8.98462 27.4082 9.0576 27.1039 9.21159C27.0735 9.22628 27.0442 9.24291 27.016 9.26139L24.0013 11.1776V9.99965C23.9998 8.67405 23.4725 7.40318 22.5352 6.46584C21.5978 5.52849 20.3269 5.00121 19.0013 4.99965H7.00134C5.67574 5.00121 4.40487 5.52849 3.46753 6.46584C2.53019 7.40318 2.0029 8.67405 2.00134 9.99965V21.9996C2.0029 23.3253 2.53019 24.5961 3.46753 25.5335C4.40487 26.4708 5.67574 26.9981 7.00134 26.9996H19.0013C20.3269 26.9981 21.5978 26.4708 22.5352 25.5335C23.4725 24.5961 23.9998 23.3253 24.0013 21.9996V20.8216L27.016 22.738C27.0447 22.7564 27.0744 22.7734 27.1049 22.7888C27.4098 22.9411 27.7485 23.013 28.089 22.9976C28.4295 22.9822 28.7604 22.88 29.0503 22.7008C29.3402 22.5215 29.5795 22.2712 29.7454 21.9735C29.9114 21.6757 29.9984 21.3405 29.9984 20.9997V10.9997C29.9999 10.6583 29.9133 10.3223 29.7471 10.0241C29.5808 9.72596 29.3404 9.4757 29.0492 9.29753ZM22.0013 21.9997C22.0005 22.7951 21.6841 23.5576 21.1217 24.12C20.5593 24.6825 19.7967 24.9988 19.0013 24.9997H7.00134C6.20596 24.9988 5.4434 24.6825 4.88098 24.12C4.31856 23.5576 4.00221 22.7951 4.00134 21.9997V9.99967C4.00221 9.20429 4.31856 8.44173 4.88098 7.87931C5.4434 7.31689 6.20596 7.00054 7.00134 6.99967H19.0013C19.7967 7.00054 20.5593 7.31689 21.1217 7.87931C21.6841 8.44173 22.0005 9.20429 22.0013 9.99967V21.9997ZM24.0013 18.4526V13.5468L27.9984 11.0065L27.9994 20.9938L24.0013 18.4526Z" fill="black"/>
</svg>
