<svg width="32" height="32" fill="none" xmlns="http://www.w3.org/2000/svg"><path d="M12.75 21.5a.75.75 0 01-.75-.75V16.5H7.75a.75.75 0 010-1.5H12v-4.25a.75.75 0 011.5 0V15h4.25a.75.75 0 010 1.5H13.5v4.25a.75.75 0 01-.75.75z" fill="#0F0F0F"/><path fill-rule="evenodd" clip-rule="evenodd" d="M28.042 9.2494c.3107.0067.6141.0954.8794.2572a1.7386 1.7386 0 01.8306 1.4883v10.001a1.7502 1.7502 0 01-2.5327 1.5654L23.75 20.359V22A4.7553 4.7553 0 0119 26.75H7A4.7557 4.7557 0 012.25 22V10A4.7554 4.7554 0 017 5.25h12A4.7554 4.7554 0 0123.75 10v1.6317l3.4024-2.1632a1.7615 1.7615 0 01.8896-.2191zM21.297 24.297A3.2538 3.2538 0 0022.25 22V10A3.2537 3.2537 0 0019 6.75H7A3.2539 3.2539 0 003.75 10v12A3.254 3.254 0 007 25.25h12a3.2538 3.2538 0 002.297-.953zm6.924-3.1786a.2446.2446 0 00.031-.1223V10.9949a.2419.2419 0 00-.1187-.2119.2379.2379 0 00-.2426-.0108L23.75 13.4086v5.1742l4.2071 2.675c.042.0195.1318-.0225.1762-.0488a.2443.2443 0 00.0877-.0906z" fill="#0F0F0F"/></svg>