<svg xmlns="http://www.w3.org/2000/svg" width="32" height="32" viewBox="0 0 32 32"><path d="M25 5H7C5.6744 5.00159 4.40356 5.52888 3.46622 6.46622C2.52888 7.40356 2.00159 8.6744 2 10V22C2.00159 23.3256 2.52888 24.5964 3.46622 25.5338C4.40356 26.4711 5.6744 26.9984 7 27H25C26.3256 26.9984 27.5964 26.4711 28.5338 25.5338C29.4711 24.5964 29.9984 23.3256 30 22V10C29.9984 8.6744 29.4711 7.40356 28.5338 6.46622C27.5964 5.52888 26.3256 5.00159 25 5ZM9.455 25C9.79889 23.538 10.6392 22.2405 11.8327 21.3287C13.0262 20.417 14.499 19.9474 16 20C17.501 19.9474 18.9738 20.417 20.1673 21.3287C21.3608 22.2405 22.2011 23.538 22.545 25H9.455ZM13 15C12.9927 14.6015 13.0649 14.2055 13.2124 13.8352C13.3599 13.4649 13.5797 13.1278 13.8589 12.8434C14.1382 12.559 14.4713 12.3331 14.8388 12.1789C15.2063 12.0247 15.6009 11.9452 15.9995 11.9452C16.3981 11.9452 16.7927 12.0247 17.1602 12.1789C17.5277 12.3331 17.8608 12.559 18.1401 12.8434C18.4193 13.1278 18.6391 13.4649 18.7866 13.8352C18.9341 14.2055 19.0063 14.6015 18.999 15C18.9846 15.786 18.6623 16.535 18.1014 17.0858C17.5404 17.6366 16.7857 17.9452 15.9995 17.9452C15.2133 17.9452 14.4586 17.6366 13.8976 17.0858C13.3367 16.535 13.0144 15.786 13 15ZM28 22C27.9992 22.7954 27.6829 23.558 27.1204 24.1204C26.558 24.6829 25.7954 24.9992 25 25H24.57C24.3484 23.5776 23.7527 22.2396 22.8439 21.1231C21.9351 20.0066 20.7459 19.1517 19.398 18.646C20.1354 17.9629 20.6497 17.0734 20.874 16.0935C21.0982 15.1137 21.0219 14.089 20.6551 13.1532C20.2882 12.2174 19.6478 11.4138 18.8174 10.8474C17.987 10.281 17.0052 9.97809 16 9.97809C14.9948 9.97809 14.013 10.281 13.1826 10.8474C12.3522 11.4138 11.7118 12.2174 11.3449 13.1532C10.9781 14.089 10.9018 15.1137 11.126 16.0935C11.3503 17.0734 11.8646 17.9629 12.602 18.646C11.2541 19.1517 10.0649 20.0066 9.15613 21.1231C8.24734 22.2396 7.65162 23.5776 7.43 25H7C6.20459 24.9992 5.44199 24.6829 4.87956 24.1204C4.31712 23.558 4.00079 22.7954 4 22V10C4.00079 9.20459 4.31712 8.44199 4.87956 7.87956C5.44199 7.31712 6.20459 7.00079 7 7H25C25.7954 7.00079 26.558 7.31712 27.1204 7.87956C27.6829 8.44199 27.9992 9.20459 28 10V22Z"/></svg>