<svg xmlns="http://www.w3.org/2000/svg" width="32" height="32" viewBox="0 0 32 32"><path d="M25 5.25H7C5.74063 5.25132 4.53322 5.75219 3.6427 6.6427C2.75219 7.53322 2.25132 8.74063 2.25 10V22C2.25159 23.2593 2.75254 24.4666 3.643 25.357C4.53345 26.2475 5.74071 26.7484 7 26.75H25C26.2593 26.7484 27.4666 26.2475 28.357 25.357C29.2475 24.4666 29.7484 23.2593 29.75 22V10C29.7487 8.74063 29.2478 7.53322 28.3573 6.6427C27.4668 5.75219 26.2594 5.25132 25 5.25ZM9.16 25.25C9.44784 23.6638 10.2979 22.2345 11.5542 21.2243C12.8106 20.2141 14.389 19.6907 16 19.75C17.6111 19.6904 19.1896 20.2138 20.446 21.224C21.7024 22.2343 22.5524 23.6637 22.84 25.25H9.16ZM12.75 15C12.75 14.138 13.0924 13.3114 13.7019 12.7019C14.3114 12.0924 15.138 11.75 16 11.75C16.862 11.75 17.6886 12.0924 18.2981 12.7019C18.9076 13.3114 19.25 14.138 19.25 15C19.25 15.862 18.9076 16.6886 18.2981 17.2981C17.6886 17.9076 16.862 18.25 16 18.25C15.138 18.25 14.3114 17.9076 13.7019 17.2981C13.0924 16.6886 12.75 15.862 12.75 15ZM28.25 22C28.2489 22.8616 27.9062 23.6877 27.2969 24.2969C26.6877 24.9062 25.8616 25.2489 25 25.25H24.354C24.1605 23.7569 23.5441 22.3503 22.5774 21.1962C21.6106 20.042 20.334 19.1884 18.898 18.736C19.6838 18.1309 20.2605 17.295 20.5472 16.3456C20.8339 15.3961 20.8162 14.3807 20.4966 13.4418C20.177 12.5029 19.5716 11.6876 18.7651 11.1103C17.9587 10.5329 16.9918 10.2225 16 10.2225C15.0082 10.2225 14.0413 10.5329 13.2349 11.1103C12.4284 11.6876 11.823 12.5029 11.5034 13.4418C11.1838 14.3807 11.1661 15.3961 11.4528 16.3456C11.7395 17.295 12.3162 18.1309 13.102 18.736C11.666 19.1884 10.3894 20.042 9.42265 21.1962C8.45593 22.3503 7.83947 23.7569 7.646 25.25H7C6.13837 25.2489 5.31234 24.9062 4.70307 24.2969C4.09381 23.6877 3.75106 22.8616 3.75 22V10C3.75106 9.13837 4.09381 8.31234 4.70307 7.70307C5.31234 7.09381 6.13837 6.75106 7 6.75H25C25.8616 6.75106 26.6877 7.09381 27.2969 7.70307C27.9062 8.31234 28.2489 9.13837 28.25 10V22Z"/></svg>