<svg xmlns="http://www.w3.org/2000/svg" width="32" height="32" viewBox="0 0 32 32"><path d="M28.048 3.951C27.5983 3.50284 26.9894 3.25119 26.3545 3.25119C25.7196 3.25119 25.1107 3.50284 24.661 3.951L3.95 24.661C3.50086 25.1103 3.24858 25.7196 3.24868 26.3549C3.24877 26.9901 3.50122 27.5994 3.9505 28.0485C4.39978 28.4976 5.00907 28.7499 5.64435 28.7498C6.27963 28.7497 6.88886 28.4973 7.338 28.048L28.05 7.34C28.4985 6.89029 28.7503 6.2811 28.7503 5.646C28.7503 5.0109 28.4985 4.40171 28.05 3.952L28.048 3.951ZM26.988 6.279L6.278 26.988C6.11012 27.1559 5.88242 27.2502 5.645 27.2502C5.40758 27.2502 5.17988 27.1559 5.012 26.988C4.84412 26.8201 4.7498 26.5924 4.7498 26.355C4.7498 26.1176 4.84412 25.8899 5.012 25.722L25.722 5.012C25.8917 4.8528 26.1168 4.76589 26.3495 4.76967C26.5822 4.77345 26.8043 4.86761 26.9688 5.03223C27.1332 5.19686 27.2272 5.41902 27.2308 5.65172C27.2344 5.88441 27.1473 6.10938 26.988 6.279ZM7 7.75H10.25V11C10.25 11.1989 10.329 11.3897 10.4697 11.5303C10.6103 11.671 10.8011 11.75 11 11.75C11.1989 11.75 11.3897 11.671 11.5303 11.5303C11.671 11.3897 11.75 11.1989 11.75 11V7.75H15C15.1989 7.75 15.3897 7.67098 15.5303 7.53033C15.671 7.38968 15.75 7.19891 15.75 7C15.75 6.80109 15.671 6.61032 15.5303 6.46967C15.3897 6.32902 15.1989 6.25 15 6.25H11.75V3C11.75 2.80109 11.671 2.61032 11.5303 2.46967C11.3897 2.32902 11.1989 2.25 11 2.25C10.8011 2.25 10.6103 2.32902 10.4697 2.46967C10.329 2.61032 10.25 2.80109 10.25 3V6.25H7C6.80109 6.25 6.61032 6.32902 6.46967 6.46967C6.32902 6.61032 6.25 6.80109 6.25 7C6.25 7.19891 6.32902 7.38968 6.46967 7.53033C6.61032 7.67098 6.80109 7.75 7 7.75ZM26 23.25H23.75V21C23.75 20.8011 23.671 20.6103 23.5303 20.4697C23.3897 20.329 23.1989 20.25 23 20.25C22.8011 20.25 22.6103 20.329 22.4697 20.4697C22.329 20.6103 22.25 20.8011 22.25 21V23.25H20C19.8011 23.25 19.6103 23.329 19.4697 23.4697C19.329 23.6103 19.25 23.8011 19.25 24C19.25 24.1989 19.329 24.3897 19.4697 24.5303C19.6103 24.671 19.8011 24.75 20 24.75H22.25V27C22.25 27.1989 22.329 27.3897 22.4697 27.5303C22.6103 27.671 22.8011 27.75 23 27.75C23.1989 27.75 23.3897 27.671 23.5303 27.5303C23.671 27.3897 23.75 27.1989 23.75 27V24.75H26C26.1989 24.75 26.3897 24.671 26.5303 24.5303C26.671 24.3897 26.75 24.1989 26.75 24C26.75 23.8011 26.671 23.6103 26.5303 23.4697C26.3897 23.329 26.1989 23.25 26 23.25ZM4.25 18C4.25 18.1989 4.32902 18.3897 4.46967 18.5303C4.61032 18.671 4.80109 18.75 5 18.75C5.19891 18.75 5.38968 18.671 5.53033 18.5303C5.67098 18.3897 5.75 18.1989 5.75 18V16.75H7C7.19891 16.75 7.38968 16.671 7.53033 16.5303C7.67098 16.3897 7.75 16.1989 7.75 16C7.75 15.8011 7.67098 15.6103 7.53033 15.4697C7.38968 15.329 7.19891 15.25 7 15.25H5.75V14C5.75 13.8011 5.67098 13.6103 5.53033 13.4697C5.38968 13.329 5.19891 13.25 5 13.25C4.80109 13.25 4.61032 13.329 4.46967 13.4697C4.32902 13.6103 4.25 13.8011 4.25 14V15.25H3C2.80109 15.25 2.61032 15.329 2.46967 15.4697C2.32902 15.6103 2.25 15.8011 2.25 16C2.25 16.1989 2.32902 16.3897 2.46967 16.5303C2.61032 16.671 2.80109 16.75 3 16.75H4.25V18Z"/></svg>