<svg width="32" height="32" viewBox="0 0 32 32" fill="none" xmlns="http://www.w3.org/2000/svg">
<path d="M28.7871 9.7236C28.5622 9.58519 28.3047 9.5086 28.0408 9.50157C27.7768 9.49455 27.5156 9.55734 27.2837 9.6836L23.501 12.0886V10C23.4997 8.80693 23.0251 7.66311 22.1815 6.81948C21.3379 5.97585 20.194 5.50132 19.001 5.5H7.00098C5.8079 5.5013 4.66406 5.97582 3.82043 6.81945C2.9768 7.66308 2.50227 8.80692 2.50098 10V22C2.50227 23.1931 2.9768 24.3369 3.82043 25.1805C4.66406 26.0242 5.8079 26.4987 7.00098 26.5H19.001C20.194 26.4987 21.3379 26.0241 22.1815 25.1805C23.0251 24.3369 23.4997 23.1931 23.501 22V19.9109L27.3286 22.3418C27.5573 22.4561 27.8114 22.51 28.0667 22.4984C28.3221 22.4869 28.5703 22.4102 28.7878 22.2758C29.0052 22.1414 29.1847 21.9536 29.3091 21.7303C29.4336 21.507 29.499 21.2556 29.499 21V11C29.5001 10.744 29.4351 10.492 29.3104 10.2684C29.1857 10.0449 29.0055 9.8572 28.7871 9.7236Z" fill="black"/>
</svg>
