<svg width="32" height="32" fill="none" xmlns="http://www.w3.org/2000/svg"><path d="M13.0001 22c-.5522 0-1-.4477-1-1v-4H8c-.5523 0-1-.4477-1-1s.4477-1 1-1h4.0001v-4c0-.5523.4478-1 1-1 .5523 0 1 .4477 1 1v4H18c.5523 0 1 .4477 1 1s-.4477 1-1 1h-3.9999v4c0 .5523-.4477 1-1 1z" fill="#0F0F0F"/><path fill-rule="evenodd" clip-rule="evenodd" d="M28.0909 8.9948c.3411.015.6724.118.9619.2989a1.987 1.987 0 01.9494 1.7012v10.001a1.9995 1.9995 0 01-.9484 1.7012 1.9994 1.9994 0 01-1.9457.0878 1.0746 1.0746 0 01-.09-.0507L24 20.8153V22a5.0057 5.0057 0 01-5 5H7a5.0058 5.0058 0 01-5-5V10a5.006 5.006 0 015-5h12a5.0057 5.0057 0 015 5v1.1764l3.0181-1.9186a.8123.8123 0 01.0884-.05 1.9799 1.9799 0 01.9844-.213zm-6.9705 15.1256A3.0037 3.0037 0 0022 22V10a3.0035 3.0035 0 00-3-3H7a3.0033 3.0033 0 00-3 3v12a3.0035 3.0035 0 003 3h12a3.0037 3.0037 0 002.1204-.8796zM24 18.4455l4.0015 2.5445.0005-9.9883L24 13.5462v4.8993z" fill="#0F0F0F"/></svg>