<svg xmlns="http://www.w3.org/2000/svg" width="32" height="32" viewBox="0 0 32 32"><path d="M3.75 7.5C3.75 5.70507 5.20507 4.25 7 4.25H25C26.7949 4.25 28.25 5.70507 28.25 7.5V16.5C28.25 16.9142 28.5858 17.25 29 17.25C29.4142 17.25 29.75 16.9142 29.75 16.5V7.5C29.75 4.87665 27.6234 2.75 25 2.75H7C4.37665 2.75 2.25 4.87665 2.25 7.5V19.5C2.25 22.1234 4.37665 24.25 7 24.25H10C10.4142 24.25 10.75 23.9142 10.75 23.5C10.75 23.0858 10.4142 22.75 10 22.75H7C5.20507 22.75 3.75 21.2949 3.75 19.5V7.5Z M16.25 14.5C16.25 11.8766 18.3766 9.75 21 9.75C23.6234 9.75 25.75 11.8766 25.75 14.5C25.75 16.0163 25.0395 17.3667 23.9333 18.2363C24.9154 18.5525 25.8737 19.0154 26.7178 19.6033C28.4072 20.78 29.7501 22.5441 29.7501 24.75C29.7501 25.2821 29.6797 25.8693 29.4152 26.4416C29.1461 27.0239 28.6986 27.5416 28.0225 27.9641C26.7107 28.784 24.5306 29.25 21.0001 29.25C17.4695 29.25 15.2894 28.784 13.9775 27.9641C13.3015 27.5416 12.854 27.0239 12.5848 26.4416C12.3203 25.8693 12.25 25.2821 12.25 24.75C12.25 22.5441 13.5929 20.78 15.2823 19.6033C16.1263 19.0154 17.0847 18.5525 18.0667 18.2364C16.9605 17.3667 16.25 16.0163 16.25 14.5ZM21 11.25C19.2051 11.25 17.75 12.7051 17.75 14.5C17.75 16.2949 19.2051 17.75 21 17.75C22.7949 17.75 24.25 16.2949 24.25 14.5C24.25 12.7051 22.7949 11.25 21 11.25ZM16.1396 20.8342C14.6884 21.845 13.75 23.2059 13.75 24.75C13.75 25.1554 13.8047 25.5057 13.9464 25.8123C14.0835 26.1089 14.3235 26.4115 14.7725 26.6921C15.7107 27.2785 17.5306 27.75 21.0001 27.75C24.4695 27.75 26.2894 27.2785 27.2275 26.6921C27.6765 26.4115 27.9165 26.1089 28.0536 25.8123C28.1954 25.5057 28.2501 25.1554 28.2501 24.75C28.2501 23.2059 27.3117 21.845 25.8605 20.8342C24.4099 19.8239 22.5584 19.25 21.0001 19.25C19.4417 19.25 17.5902 19.8239 16.1396 20.8342Z"/></svg>