<svg xmlns="http://www.w3.org/2000/svg" width="32" height="32" viewBox="0 0 32 32"><path d="M12 3H6C5.20459 3.00079 4.44199 3.31712 3.87956 3.87956C3.31712 4.44199 3.00079 5.20459 3 6V12C3.00079 12.7954 3.31712 13.558 3.87956 14.1204C4.44199 14.6829 5.20459 14.9992 6 15H12C12.7954 14.9992 13.558 14.6829 14.1204 14.1204C14.6829 13.558 14.9992 12.7954 15 12V6C14.9992 5.20459 14.6829 4.44199 14.1204 3.87956C13.558 3.31712 12.7954 3.00079 12 3ZM13 12C13 12.2652 12.8946 12.5196 12.7071 12.7071C12.5196 12.8946 12.2652 13 12 13H6C5.73478 13 5.48043 12.8946 5.29289 12.7071C5.10536 12.5196 5 12.2652 5 12V6C5 5.73478 5.10536 5.48043 5.29289 5.29289C5.48043 5.10536 5.73478 5 6 5H12C12.2652 5 12.5196 5.10536 12.7071 5.29289C12.8946 5.48043 13 5.73478 13 6V12ZM26 3H20C19.2046 3.00079 18.442 3.31712 17.8796 3.87956C17.3171 4.44199 17.0008 5.20459 17 6V12C17.0008 12.7954 17.3171 13.558 17.8796 14.1204C18.442 14.6829 19.2046 14.9992 20 15H26C26.7954 14.9992 27.558 14.6829 28.1204 14.1204C28.6829 13.558 28.9992 12.7954 29 12V6C28.9992 5.20459 28.6829 4.44199 28.1204 3.87956C27.558 3.31712 26.7954 3.00079 26 3ZM27 12C27 12.2652 26.8946 12.5196 26.7071 12.7071C26.5196 12.8946 26.2652 13 26 13H20C19.7348 13 19.4804 12.8946 19.2929 12.7071C19.1054 12.5196 19 12.2652 19 12V6C19 5.73478 19.1054 5.48043 19.2929 5.29289C19.4804 5.10536 19.7348 5 20 5H26C26.2652 5 26.5196 5.10536 26.7071 5.29289C26.8946 5.48043 27 5.73478 27 6V12ZM26 17H20C19.2047 17.0011 18.4422 17.3175 17.8798 17.8798C17.3175 18.4422 17.0011 19.2047 17 20V26C17.0008 26.7954 17.3171 27.558 17.8796 28.1204C18.442 28.6829 19.2046 28.9992 20 29H26C26.7954 28.9992 27.558 28.6829 28.1204 28.1204C28.6829 27.558 28.9992 26.7954 29 26V20C28.9992 19.2046 28.6829 18.442 28.1204 17.8796C27.558 17.3171 26.7954 17.0008 26 17ZM27 26C27 26.2652 26.8946 26.5196 26.7071 26.7071C26.5196 26.8946 26.2652 27 26 27H20C19.7348 27 19.4804 26.8946 19.2929 26.7071C19.1054 26.5196 19 26.2652 19 26V20C19 19.7348 19.1054 19.4804 19.2929 19.2929C19.4804 19.1054 19.7348 19 20 19H26C26.2652 19 26.5196 19.1054 26.7071 19.2929C26.8946 19.4804 27 19.7348 27 20V26ZM12 17H6C5.20468 17.0011 4.44223 17.3175 3.87985 17.8798C3.31747 18.4422 3.00106 19.2047 3 20V26C3.00079 26.7954 3.31712 27.558 3.87956 28.1204C4.44199 28.6829 5.20459 28.9992 6 29H12C12.7954 28.9992 13.558 28.6829 14.1204 28.1204C14.6829 27.558 14.9992 26.7954 15 26V20C14.9992 19.2046 14.6829 18.442 14.1204 17.8796C13.558 17.3171 12.7954 17.0008 12 17ZM13 26C13 26.2652 12.8946 26.5196 12.7071 26.7071C12.5196 26.8946 12.2652 27 12 27H6C5.73478 27 5.48043 26.8946 5.29289 26.7071C5.10536 26.5196 5 26.2652 5 26V20C5 19.7348 5.10536 19.4804 5.29289 19.2929C5.48043 19.1054 5.73478 19 6 19H12C12.2652 19 12.5196 19.1054 12.7071 19.2929C12.8946 19.4804 13 19.7348 13 20V26Z"/></svg>