<svg xmlns="http://www.w3.org/2000/svg" width="32" height="32" viewBox="0 0 32 32"><path d="M28 15H10C9.73478 15 9.48043 15.1054 9.29289 15.2929C9.10536 15.4804 9 15.7348 9 16C9 16.2652 9.10536 16.5196 9.29289 16.7071C9.48043 16.8946 9.73478 17 10 17H28C28.2652 17 28.5196 16.8946 28.7071 16.7071C28.8946 16.5196 29 16.2652 29 16C29 15.7348 28.8946 15.4804 28.7071 15.2929C28.5196 15.1054 28.2652 15 28 15ZM10 10H28C28.2652 10 28.5196 9.89464 28.7071 9.70711C28.8946 9.51957 29 9.26522 29 9C29 8.73478 28.8946 8.48043 28.7071 8.29289C28.5196 8.10536 28.2652 8 28 8H10C9.73478 8 9.48043 8.10536 9.29289 8.29289C9.10536 8.48043 9 8.73478 9 9C9 9.26522 9.10536 9.51957 9.29289 9.70711C9.48043 9.89464 9.73478 10 10 10ZM28 22H10C9.73478 22 9.48043 22.1054 9.29289 22.2929C9.10536 22.4804 9 22.7348 9 23C9 23.2652 9.10536 23.5196 9.29289 23.7071C9.48043 23.8946 9.73478 24 10 24H28C28.2652 24 28.5196 23.8946 28.7071 23.7071C28.8946 23.5196 29 23.2652 29 23C29 22.7348 28.8946 22.4804 28.7071 22.2929C28.5196 22.1054 28.2652 22 28 22ZM4.25 14.75C3.91848 14.75 3.60054 14.8817 3.36612 15.1161C3.1317 15.3505 3 15.6685 3 16C3 16.3315 3.1317 16.6495 3.36612 16.8839C3.60054 17.1183 3.91848 17.25 4.25 17.25C4.58152 17.25 4.89946 17.1183 5.13388 16.8839C5.3683 16.6495 5.5 16.3315 5.5 16C5.5 15.6685 5.3683 15.3505 5.13388 15.1161C4.89946 14.8817 4.58152 14.75 4.25 14.75ZM4.25 21.75C3.91848 21.75 3.60054 21.8817 3.36612 22.1161C3.1317 22.3505 3 22.6685 3 23C3 23.3315 3.1317 23.6495 3.36612 23.8839C3.60054 24.1183 3.91848 24.25 4.25 24.25C4.58152 24.25 4.89946 24.1183 5.13388 23.8839C5.3683 23.6495 5.5 23.3315 5.5 23C5.5 22.6685 5.3683 22.3505 5.13388 22.1161C4.89946 21.8817 4.58152 21.75 4.25 21.75ZM4.25 7.75C3.91848 7.75 3.60054 7.8817 3.36612 8.11612C3.1317 8.35054 3 8.66848 3 9C3 9.33152 3.1317 9.64946 3.36612 9.88388C3.60054 10.1183 3.91848 10.25 4.25 10.25C4.58152 10.25 4.89946 10.1183 5.13388 9.88388C5.3683 9.64946 5.5 9.33152 5.5 9C5.5 8.66848 5.3683 8.35054 5.13388 8.11612C4.89946 7.8817 4.58152 7.75 4.25 7.75Z"/></svg>