<svg xmlns="http://www.w3.org/2000/svg" width="32" height="32" viewBox="0 0 32 32"><path d="M26 17.25H6C5.27088 17.2507 4.57184 17.5407 4.05628 18.0563C3.54071 18.5718 3.25074 19.2709 3.25 20V24C3.25074 24.7291 3.54071 25.4282 4.05628 25.9437C4.57184 26.4593 5.27088 26.7493 6 26.75H26C26.7291 26.7493 27.4282 26.4593 27.9437 25.9437C28.4593 25.4282 28.7493 24.7291 28.75 24V20C28.7493 19.2709 28.4593 18.5718 27.9437 18.0563C27.4282 17.5407 26.7291 17.2507 26 17.25Z M26 5.25H6C5.27088 5.25074 4.57184 5.54071 4.05628 6.05627C3.54071 6.57184 3.25074 7.27088 3.25 8V12C3.25074 12.7291 3.54071 13.4282 4.05628 13.9437C4.57184 14.4593 5.27088 14.7493 6 14.75H26C26.7291 14.7493 27.4282 14.4593 27.9437 13.9437C28.4593 13.4282 28.7493 12.7291 28.75 12V8C28.7493 7.27088 28.4593 6.57184 27.9437 6.05627C27.4282 5.54071 26.7291 5.25074 26 5.25Z"/></svg>