<svg xmlns="http://www.w3.org/2000/svg" width="32" height="32" viewBox="0 0 32 32"><path d="M28 15.5H10C9.86739 15.5 9.74021 15.5527 9.64645 15.6464C9.55268 15.7402 9.5 15.8674 9.5 16C9.5 16.1326 9.55268 16.2598 9.64645 16.3536C9.74021 16.4473 9.86739 16.5 10 16.5H28C28.1326 16.5 28.2598 16.4473 28.3536 16.3536C28.4473 16.2598 28.5 16.1326 28.5 16C28.5 15.8674 28.4473 15.7402 28.3536 15.6464C28.2598 15.5527 28.1326 15.5 28 15.5ZM10 9.5H28C28.1326 9.5 28.2598 9.44732 28.3536 9.35355C28.4473 9.25979 28.5 9.13261 28.5 9C28.5 8.86739 28.4473 8.74021 28.3536 8.64645C28.2598 8.55268 28.1326 8.5 28 8.5H10C9.86739 8.5 9.74021 8.55268 9.64645 8.64645C9.55268 8.74021 9.5 8.86739 9.5 9C9.5 9.13261 9.55268 9.25979 9.64645 9.35355C9.74021 9.44732 9.86739 9.5 10 9.5ZM28 22.5H10C9.86739 22.5 9.74021 22.5527 9.64645 22.6464C9.55268 22.7402 9.5 22.8674 9.5 23C9.5 23.1326 9.55268 23.2598 9.64645 23.3536C9.74021 23.4473 9.86739 23.5 10 23.5H28C28.1326 23.5 28.2598 23.4473 28.3536 23.3536C28.4473 23.2598 28.5 23.1326 28.5 23C28.5 22.8674 28.4473 22.7402 28.3536 22.6464C28.2598 22.5527 28.1326 22.5 28 22.5ZM4.25 15.25C4.05109 15.25 3.86032 15.329 3.71967 15.4697C3.57902 15.6103 3.5 15.8011 3.5 16C3.5 16.1989 3.57902 16.3897 3.71967 16.5303C3.86032 16.671 4.05109 16.75 4.25 16.75C4.44891 16.75 4.63968 16.671 4.78033 16.5303C4.92098 16.3897 5 16.1989 5 16C5 15.8011 4.92098 15.6103 4.78033 15.4697C4.63968 15.329 4.44891 15.25 4.25 15.25ZM4.25 22.25C4.05109 22.25 3.86032 22.329 3.71967 22.4697C3.57902 22.6103 3.5 22.8011 3.5 23C3.5 23.1989 3.57902 23.3897 3.71967 23.5303C3.86032 23.671 4.05109 23.75 4.25 23.75C4.44891 23.75 4.63968 23.671 4.78033 23.5303C4.92098 23.3897 5 23.1989 5 23C5 22.8011 4.92098 22.6103 4.78033 22.4697C4.63968 22.329 4.44891 22.25 4.25 22.25ZM4.25 8.25C4.05109 8.25 3.86032 8.32902 3.71967 8.46967C3.57902 8.61032 3.5 8.80109 3.5 9C3.5 9.19891 3.57902 9.38968 3.71967 9.53033C3.86032 9.67098 4.05109 9.75 4.25 9.75C4.44891 9.75 4.63968 9.67098 4.78033 9.53033C4.92098 9.38968 5 9.19891 5 9C5 8.80109 4.92098 8.61032 4.78033 8.46967C4.63968 8.32902 4.44891 8.25 4.25 8.25Z"/></svg>