<svg width="32" height="32" viewBox="0 0 32 32" fill="none" xmlns="http://www.w3.org/2000/svg">
<path d="M21.0005 12.0003C19.9399 12.0014 18.9231 12.4231 18.1732 13.173C17.4233 13.923 17.0015 14.9398 17.0005 16.0003C17.0045 16.7046 17.1965 17.3951 17.5567 18.0003H14.4443C14.8045 17.3951 14.9965 16.7046 15.0005 16.0003C15.0005 15.2092 14.7659 14.4358 14.3264 13.778C13.8868 13.1202 13.2621 12.6075 12.5312 12.3048C11.8003 12.002 10.9961 11.9228 10.2201 12.0772C9.4442 12.2315 8.73147 12.6125 8.17206 13.1719C7.61265 13.7313 7.23169 14.444 7.07735 15.2199C6.92301 15.9959 7.00222 16.8001 7.30497 17.531C7.60772 18.2619 8.12041 18.8867 8.77821 19.3262C9.436 19.7657 10.2094 20.0003 11.0005 20.0003H21.0005C22.0614 20.0003 23.0788 19.5789 23.8289 18.8287C24.5791 18.0786 25.0005 17.0612 25.0005 16.0003C25.0005 14.9394 24.5791 13.922 23.8289 13.1719C23.0788 12.4217 22.0614 12.0003 21.0005 12.0003ZM9.00049 16.0003C9.00049 15.6047 9.11779 15.2181 9.33755 14.8892C9.55731 14.5603 9.86967 14.3039 10.2351 14.1525C10.6006 14.0012 11.0027 13.9616 11.3907 14.0387C11.7786 14.1159 12.135 14.3064 12.4147 14.5861C12.6944 14.8658 12.8849 15.2222 12.9621 15.6101C13.0392 15.9981 12.9996 16.4002 12.8482 16.7657C12.6969 17.1311 12.4405 17.4435 12.1116 17.6632C11.7827 17.883 11.3961 18.0003 11.0005 18.0003C10.4703 17.9996 9.96196 17.7887 9.58703 17.4138C9.21211 17.0388 9.00118 16.5305 9.00049 16.0003ZM21.0005 18.0003C20.6049 18.0003 20.2182 17.883 19.8893 17.6632C19.5604 17.4435 19.3041 17.1311 19.1527 16.7657C19.0014 16.4002 18.9617 15.9981 19.0389 15.6101C19.1161 15.2222 19.3066 14.8658 19.5863 14.5861C19.866 14.3064 20.2223 14.1159 20.6103 14.0387C20.9983 13.9616 21.4004 14.0012 21.7659 14.1525C22.1313 14.3039 22.4437 14.5603 22.6634 14.8892C22.8832 15.2181 23.0005 15.6047 23.0005 16.0003C22.9998 16.5305 22.7889 17.0388 22.4139 17.4137C22.039 17.7887 21.5307 17.9996 21.0005 18.0003Z" fill="black"/>
<path d="M25.0005 6.0003H7.00049C5.67488 6.00185 4.40402 6.52914 3.46667 7.46648C2.52933 8.40383 2.00204 9.67469 2.00049 11.0003V21.0003C2.00205 22.3259 2.52933 23.5968 3.46668 24.5341C4.40402 25.4715 5.67488 25.9987 7.00049 26.0003H25.0005C26.3261 25.9987 27.597 25.4715 28.5343 24.5341C29.4716 23.5968 29.9989 22.3259 30.0005 21.0003V11.0003C29.9989 9.67469 29.4716 8.40383 28.5343 7.46649C27.597 6.52914 26.3261 6.00186 25.0005 6.0003ZM28.0005 21.0003C27.9996 21.7957 27.6833 22.5582 27.1208 23.1207C26.5584 23.6831 25.7959 23.9994 25.0005 24.0003H7.00049C6.20511 23.9994 5.44255 23.6831 4.88013 23.1207C4.31771 22.5582 4.00136 21.7957 4.00049 21.0003V11.0003C4.00136 10.2049 4.31771 9.44236 4.88013 8.87994C5.44255 8.31751 6.20511 8.00117 7.00049 8.0003H25.0005C25.7959 8.00117 26.5584 8.31751 27.1208 8.87994C27.6833 9.44236 27.9996 10.2049 28.0005 11.0003V21.0003Z" fill="black"/>
</svg>
