<svg width="32" height="32" viewBox="0 0 32 32" fill="none" xmlns="http://www.w3.org/2000/svg">
<path d="M21.0005 12.5003C20.3047 12.4992 19.6244 12.7059 19.0468 13.0938C18.4692 13.4817 18.0205 14.0332 17.7583 14.6777C17.496 15.3222 17.4321 16.0302 17.5747 16.7113C17.7173 17.3923 18.06 18.0152 18.5588 18.5003H13.4422C14.0205 17.9329 14.3837 17.1823 14.4697 16.3767C14.5557 15.5712 14.3591 14.7608 13.9136 14.0841C13.4681 13.4075 12.8013 12.9067 12.0273 12.6673C11.2534 12.428 10.4203 12.465 9.67056 12.772C8.92087 13.0791 8.30114 13.6371 7.91739 14.3505C7.53364 15.064 7.40971 15.8887 7.56681 16.6834C7.7239 17.4782 8.15225 18.1937 8.7786 18.7075C9.40494 19.2213 10.1904 19.5016 11.0005 19.5003H21.0005C21.9287 19.5003 22.819 19.1316 23.4754 18.4752C24.1317 17.8188 24.5005 16.9286 24.5005 16.0003C24.5005 15.072 24.1317 14.1818 23.4754 13.5254C22.819 12.869 21.9287 12.5003 21.0005 12.5003ZM8.50049 16.0003C8.50049 15.5058 8.64711 15.0225 8.92181 14.6114C9.19652 14.2003 9.58696 13.8798 10.0438 13.6906C10.5006 13.5014 11.0033 13.4519 11.4882 13.5483C11.9732 13.6448 12.4186 13.8829 12.7683 14.2325C13.1179 14.5822 13.356 15.0276 13.4525 15.5126C13.5489 15.9975 13.4994 16.5002 13.3102 16.957C13.121 17.4138 12.8005 17.8043 12.3894 18.079C11.9783 18.3537 11.4949 18.5003 11.0005 18.5003C10.3376 18.4997 9.70211 18.2361 9.2334 17.7674C8.76469 17.2987 8.5011 16.6632 8.50049 16.0003ZM21.0005 18.5003C20.506 18.5003 20.0227 18.3537 19.6116 18.079C19.2004 17.8043 18.88 17.4138 18.6908 16.957C18.5016 16.5002 18.4521 15.9975 18.5485 15.5126C18.645 15.0276 18.8831 14.5822 19.2327 14.2325C19.5824 13.8829 20.0278 13.6448 20.5128 13.5483C20.9977 13.4519 21.5004 13.5014 21.9572 13.6906C22.414 13.8798 22.8045 14.2003 23.0792 14.6114C23.3539 15.0225 23.5005 15.5058 23.5005 16.0003C23.4999 16.6632 23.2363 17.2987 22.7676 17.7674C22.2989 18.2361 21.6633 18.4997 21.0005 18.5003Z" fill="black"/>
<path d="M25.0005 6.5003H7.00049C5.80741 6.5016 4.66358 6.97612 3.81994 7.81976C2.97631 8.66339 2.50179 9.80723 2.50049 11.0003V21.0003C2.50179 22.1934 2.97631 23.3372 3.81995 24.1808C4.66358 25.0245 5.80741 25.499 7.00049 25.5003H25.0005C26.1936 25.499 27.3374 25.0245 28.181 24.1808C29.0247 23.3372 29.4992 22.1934 29.5005 21.0003V11.0003C29.4992 9.80723 29.0247 8.66339 28.181 7.81976C27.3374 6.97613 26.1936 6.5016 25.0005 6.5003ZM28.5005 21.0003C28.4994 21.9282 28.1303 22.8178 27.4741 23.4739C26.818 24.1301 25.9284 24.4992 25.0005 24.5003H7.00049C6.07258 24.4992 5.18299 24.1301 4.52686 23.4739C3.87072 22.8178 3.50161 21.9282 3.50049 21.0003V11.0003C3.50161 10.0724 3.87072 9.1828 4.52685 8.52667C5.18299 7.87053 6.07258 7.50142 7.00049 7.5003H25.0005C25.9284 7.50142 26.818 7.87053 27.4741 8.52667C28.1303 9.1828 28.4994 10.0724 28.5005 11.0003V21.0003Z" fill="black"/>
</svg>
