<svg xmlns="http://www.w3.org/2000/svg" width="32" height="32" viewBox="0 0 32 32"><path d="M21 12C19.9395 12.0011 18.9227 12.4228 18.1727 13.1727C17.4228 13.9227 17.0011 14.9395 17 16C17.005 16.705 17.197 17.395 17.557 18H14.444C14.804 17.395 14.996 16.705 15 16C15 15.2089 14.7654 14.4355 14.3259 13.7777C13.8864 13.1199 13.2616 12.6072 12.5307 12.3045C11.7998 12.0017 10.9956 11.9225 10.2196 12.0769C9.44372 12.2312 8.73098 12.6122 8.17157 13.1716C7.61216 13.731 7.2312 14.4437 7.07686 15.2196C6.92252 15.9956 7.00173 16.7998 7.30448 17.5307C7.60723 18.2616 8.11992 18.8864 8.77772 19.3259C9.43552 19.7654 10.2089 20 11 20H21C22.0609 20 23.0783 19.5786 23.8284 18.8284C24.5786 18.0783 25 17.0609 25 16C25 14.9391 24.5786 13.9217 23.8284 13.1716C23.0783 12.4214 22.0609 12 21 12ZM9 16C9 15.4696 9.21072 14.9609 9.58579 14.5858C9.96086 14.2107 10.4696 14 11 14C11.5304 14 12.0391 14.2107 12.4142 14.5858C12.7893 14.9609 13 15.4696 13 16C13 16.5304 12.7893 17.0391 12.4142 17.4142C12.0391 17.7893 11.5304 18 11 18C10.4696 18 9.96086 17.7893 9.58579 17.4142C9.21072 17.0391 9 16.5304 9 16ZM21 18C20.4696 18 19.9609 17.7893 19.5858 17.4142C19.2107 17.0391 19 16.5304 19 16C19 15.4696 19.2107 14.9609 19.5858 14.5858C19.9609 14.2107 20.4696 14 21 14C21.5304 14 22.0391 14.2107 22.4142 14.5858C22.7893 14.9609 23 15.4696 23 16C23 16.5304 22.7893 17.0391 22.4142 17.4142C22.0391 17.7893 21.5304 18 21 18Z M25 6H7C5.6744 6.00159 4.40356 6.52888 3.46622 7.46622C2.52888 8.40356 2.00159 9.6744 2 11V21C2.00159 22.3256 2.52888 23.5964 3.46622 24.5338C4.40356 25.4711 5.6744 25.9984 7 26H25C26.3256 25.9984 27.5964 25.4711 28.5338 24.5338C29.4711 23.5964 29.9984 22.3256 30 21V11C29.9984 9.6744 29.4711 8.40356 28.5338 7.46622C27.5964 6.52888 26.3256 6.00159 25 6ZM28 21C27.9992 21.7954 27.6829 22.558 27.1204 23.1204C26.558 23.6829 25.7954 23.9992 25 24H7C6.20459 23.9992 5.44199 23.6829 4.87956 23.1204C4.31712 22.558 4.00079 21.7954 4 21V11C4.00079 10.2046 4.31712 9.44199 4.87956 8.87956C5.44199 8.31712 6.20459 8.00079 7 8H25C25.7954 8.00079 26.558 8.31712 27.1204 8.87956C27.6829 9.44199 27.9992 10.2046 28 11V21Z"/></svg>