<svg width="32" height="32" viewBox="0 0 32 32" fill="none" xmlns="http://www.w3.org/2000/svg">
<path d="M21.0005 12.2503C20.0063 12.2516 19.0532 12.647 18.3502 13.35C17.6472 14.053 17.2517 15.0061 17.2505 16.0003C17.2534 16.8144 17.5237 17.6049 18.0198 18.2503H13.9811C14.4773 17.6049 14.7476 16.8144 14.7505 16.0003C14.7505 15.2586 14.5306 14.5336 14.1185 13.9169C13.7064 13.3002 13.1208 12.8196 12.4356 12.5358C11.7503 12.2519 10.9963 12.1777 10.2689 12.3224C9.54147 12.4671 8.87328 12.8242 8.34884 13.3487C7.82439 13.8731 7.46724 14.5413 7.32254 15.2687C7.17785 15.9961 7.25211 16.7501 7.53594 17.4354C7.81977 18.1206 8.30042 18.7063 8.9171 19.1183C9.53378 19.5304 10.2588 19.7503 11.0005 19.7503H21.0005C21.9951 19.7503 22.9489 19.3552 23.6521 18.652C24.3554 17.9487 24.7505 16.9949 24.7505 16.0003C24.7505 15.0057 24.3554 14.0519 23.6521 13.3487C22.9489 12.6454 21.9951 12.2503 21.0005 12.2503ZM8.75049 16.0003C8.75049 15.5553 8.88245 15.1203 9.12968 14.7503C9.37691 14.3803 9.72832 14.0919 10.1395 13.9216C10.5506 13.7513 11.003 13.7067 11.4394 13.7935C11.8759 13.8804 12.2768 14.0946 12.5915 14.4093C12.9061 14.724 13.1204 15.1249 13.2073 15.5613C13.2941 15.9978 13.2495 16.4502 13.0792 16.8613C12.9089 17.2725 12.6205 17.6239 12.2505 17.8711C11.8805 18.1183 11.4455 18.2503 11.0005 18.2503C10.404 18.2495 9.83218 18.0122 9.4104 17.5904C8.98862 17.1686 8.7513 16.5968 8.75049 16.0003ZM21.0005 18.2503C20.5555 18.2503 20.1205 18.1183 19.7505 17.8711C19.3804 17.6239 19.0921 17.2725 18.9218 16.8613C18.7515 16.4502 18.7069 15.9978 18.7937 15.5613C18.8805 15.1249 19.0948 14.724 19.4095 14.4093C19.7242 14.0946 20.1251 13.8804 20.5615 13.7935C20.998 13.7067 21.4504 13.7513 21.8615 13.9216C22.2727 14.0919 22.6241 14.3803 22.8713 14.7503C23.1185 15.1203 23.2505 15.5553 23.2505 16.0003C23.2497 16.5968 23.0124 17.1686 22.5906 17.5904C22.1688 18.0122 21.597 18.2495 21.0005 18.2503Z" fill="black"/>
<path d="M25.0005 6.2503H7.00049C5.74115 6.25173 4.5338 6.75263 3.64331 7.64312C2.75282 8.53361 2.25192 9.74096 2.25049 11.0003V21.0003C2.25192 22.2596 2.75282 23.467 3.64331 24.3575C4.5338 25.248 5.74115 25.7489 7.00049 25.7503H25.0005C26.2598 25.7489 27.4672 25.248 28.3577 24.3575C29.2482 23.467 29.7491 22.2596 29.7505 21.0003V11.0003C29.7491 9.74096 29.2482 8.53361 28.3577 7.64312C27.4672 6.75263 26.2598 6.25173 25.0005 6.2503ZM28.2505 21.0003C28.2495 21.8619 27.9068 22.688 27.2975 23.2973C26.6882 23.9066 25.8621 24.2493 25.0005 24.2503H7.00049C6.13884 24.2493 5.31277 23.9066 4.70349 23.2973C4.09421 22.688 3.75148 21.8619 3.75049 21.0003V11.0003C3.75148 10.1387 4.09421 9.31258 4.70349 8.7033C5.31277 8.09402 6.13884 7.75129 7.00049 7.7503H25.0005C25.8621 7.7513 26.6882 8.09403 27.2975 8.7033C27.9068 9.31258 28.2495 10.1387 28.2505 11.0003V21.0003Z" fill="black"/>
</svg>
