<svg xmlns="http://www.w3.org/2000/svg" width="32" height="32" viewBox="0 0 32 32"><path d="M21 12.5C20.3041 12.4988 19.6237 12.7053 19.046 13.0932C18.4683 13.4812 18.0195 14.0327 17.7573 14.6773C17.4951 15.3219 17.4313 16.0301 17.5741 16.7111C17.7169 17.3922 18.0599 18.0151 18.559 18.5H13.442C14.0204 17.9326 14.3837 17.1818 14.4698 16.376C14.5558 15.5703 14.3592 14.7597 13.9135 14.083C13.4679 13.4062 12.801 12.9053 12.0268 12.6659C11.2527 12.4266 10.4194 12.4637 9.6696 12.7709C8.91977 13.0781 8.29998 13.6362 7.91625 14.3499C7.53253 15.0636 7.40871 15.8885 7.56598 16.6834C7.72325 17.4783 8.15184 18.1938 8.77843 18.7076C9.40502 19.2214 10.1907 19.5015 11.001 19.5H21.001C21.9292 19.5 22.8195 19.1313 23.4758 18.4749C24.1322 17.8185 24.501 16.9283 24.501 16C24.501 15.0717 24.1322 14.1815 23.4758 13.5251C22.8195 12.8688 21.9292 12.5 21.001 12.5H21ZM8.49997 16C8.49997 15.337 8.76336 14.7011 9.2322 14.2322C9.70105 13.7634 10.3369 13.5 11 13.5C11.663 13.5 12.2989 13.7634 12.7677 14.2322C13.2366 14.7011 13.5 15.337 13.5 16C13.5 16.663 13.2366 17.2989 12.7677 17.7678C12.2989 18.2366 11.663 18.5 11 18.5C10.3369 18.5 9.70105 18.2366 9.2322 17.7678C8.76336 17.2989 8.49997 16.663 8.49997 16ZM21 18.5C20.3369 18.5 19.701 18.2366 19.2322 17.7678C18.7634 17.2989 18.5 16.663 18.5 16C18.5 15.337 18.7634 14.7011 19.2322 14.2322C19.701 13.7634 20.3369 13.5 21 13.5C21.663 13.5 22.2989 13.7634 22.7677 14.2322C23.2366 14.7011 23.5 15.337 23.5 16C23.5 16.663 23.2366 17.2989 22.7677 17.7678C22.2989 18.2366 21.663 18.5 21 18.5Z M25 6.5H7C5.80693 6.50132 4.66311 6.97585 3.81948 7.81948C2.97585 8.66311 2.50132 9.80693 2.5 11V21C2.50132 22.1931 2.97585 23.3369 3.81948 24.1805C4.66311 25.0241 5.80693 25.4987 7 25.5H25C26.1931 25.4989 27.3371 25.0245 28.1808 24.1808C29.0245 23.3371 29.4989 22.1931 29.5 21V11C29.4987 9.80693 29.0241 8.66311 28.1805 7.81948C27.3369 6.97585 26.1931 6.50132 25 6.5ZM28.5 21C28.4989 21.9279 28.1299 22.8176 27.4737 23.4737C26.8176 24.1299 25.9279 24.4989 25 24.5H7C6.07207 24.4989 5.18244 24.1299 4.5263 23.4737C3.87015 22.8176 3.50106 21.9279 3.5 21V11C3.50106 10.0721 3.87015 9.18244 4.5263 8.5263C5.18244 7.87015 6.07207 7.50106 7 7.5H25C25.9279 7.50106 26.8176 7.87015 27.4737 8.5263C28.1299 9.18244 28.4989 10.0721 28.5 11V21Z"/></svg>