<svg xmlns="http://www.w3.org/2000/svg" width="32" height="32" viewBox="0 0 32 32"><path d="M15.428 3.78516C8.80056 3.78516 3.42798 9.15774 3.42798 15.7852C3.42798 21.9665 8.10254 27.0574 14.1088 27.7136C14.6579 27.7735 15.0543 28.2672 14.9943 28.8162C14.9344 29.3653 14.4407 29.7617 13.8917 29.7017C6.882 28.936 1.42798 22.9982 1.42798 15.7852C1.42798 8.05317 7.69599 1.78516 15.428 1.78516C21.7436 1.78516 27.08 5.96632 28.8251 11.7093C28.9857 12.2377 28.6875 12.7962 28.1591 12.9568C27.6306 13.1174 27.0721 12.8192 26.9115 12.2907C25.4153 7.36677 20.8386 3.78516 15.428 3.78516ZM21 17.1934C21 15.982 21.982 15 23.1934 15C24.4048 15 25.3869 15.982 25.3869 17.1934C25.3869 18.4048 24.4048 19.3869 23.1934 19.3869C21.982 19.3869 21 18.4048 21 17.1934ZM23.1934 13C20.8775 13 19 14.8775 19 17.1934C19 18.4927 19.5909 19.654 20.5186 20.4232C17.9101 21.3445 16 23.6782 16 26.5094C16 27.2606 16.3499 27.8715 16.8273 28.3245C17.2895 28.763 17.8951 29.0817 18.5288 29.3155C19.7998 29.7845 21.4262 30 23 30C24.5738 30 26.2002 29.7845 27.4712 29.3155C28.1049 29.0817 28.7105 28.763 29.1727 28.3245C29.6501 27.8715 30 27.2606 30 26.5094C30 23.7744 28.2174 21.5035 25.7446 20.5219C26.7432 19.7553 27.3869 18.5496 27.3869 17.1934C27.3869 14.8775 25.5094 13 23.1934 13ZM18 26.5094C18 24.0977 20.1563 22 23 22C25.8437 22 28 24.0977 28 26.5094C28 26.5884 27.9749 26.7039 27.7961 26.8736C27.602 27.0577 27.2701 27.2579 26.7788 27.4392C25.7998 27.8004 24.4262 28 23 28C21.5738 28 20.2002 27.8004 19.2212 27.4392C18.7299 27.2579 18.398 27.0577 18.2039 26.8736C18.0251 26.7039 18 26.5884 18 26.5094ZM14.4277 7.78516C14.4277 7.23287 14.8754 6.78516 15.4277 6.78516C15.98 6.78516 16.4277 7.23287 16.4277 7.78516V15.7852C16.4277 16.0504 16.3224 16.3047 16.1348 16.4923L11.1348 21.4923C10.7443 21.8828 10.1112 21.8828 9.72063 21.4923C9.3301 21.1017 9.3301 20.4686 9.72063 20.078L14.4277 15.3709V7.78516Z"/></svg>