<svg width="32" height="32" viewBox="0 0 32 32" fill="none" xmlns="http://www.w3.org/2000/svg">
<path d="M24.667 4.00038H7.333C5.91911 4.00205 4.56361 4.56446 3.56384 5.56423C2.56407 6.564 2.00167 7.9195 2 9.33339V22.6654C2.00146 24.0794 2.56377 25.4352 3.56355 26.4351C4.56334 27.4351 5.91896 27.9977 7.333 27.9994H24.667C26.081 27.9977 27.4367 27.4351 28.4364 26.4351C29.4362 25.4352 29.9985 24.0795 30 22.6654V9.33339C29.9983 7.9195 29.4359 6.564 28.4362 5.56423C27.4364 4.56446 26.0809 4.00205 24.667 4.00038ZM4.06469 23.306L9.30569 17.1772C9.57484 16.8255 9.91847 16.5378 10.3119 16.3346C10.7054 16.1314 11.1389 16.0178 11.5815 16.002C12.024 15.9861 12.4646 16.0684 12.8716 16.2428C13.2786 16.4173 13.6419 16.6797 13.9356 17.0112L22.3596 25.9994H7.333C6.56071 25.998 5.81281 25.7288 5.21682 25.2376C4.62083 24.7465 4.21364 24.0638 4.06469 23.306ZM28 22.6654C27.9975 23.4786 27.6973 24.2627 27.1561 24.8696C26.6148 25.4765 25.8701 25.8642 25.0625 25.9594L15.4092 15.6596C14.9212 15.1162 14.3202 14.6863 13.6482 14.4001C12.9763 14.114 12.2499 13.9785 11.52 14.0033C10.7901 14.028 10.0745 14.2124 9.42347 14.5434C8.77248 14.8745 8.20193 15.3441 7.75194 15.9193L4 20.3049V9.33339C4.00098 8.44973 4.35245 7.60254 4.9773 6.97769C5.60214 6.35284 6.44934 6.00137 7.333 6.00039H24.667C25.5507 6.00137 26.3979 6.35284 27.0227 6.97769C27.6475 7.60254 27.999 8.44973 28 9.33339V22.6654Z" fill="black"/>
<path d="M21.5 9.00038C20.8078 9.00038 20.1311 9.20565 19.5555 9.59024C18.9799 9.97482 18.5313 10.5214 18.2664 11.161C18.0015 11.8005 17.9322 12.5043 18.0673 13.1832C18.2023 13.8621 18.5356 14.4858 19.0251 14.9753C19.5146 15.4647 20.1383 15.7981 20.8172 15.9331C21.4961 16.0682 22.1999 15.9989 22.8394 15.734C23.4789 15.4691 24.0256 15.0204 24.4101 14.4449C24.7947 13.8693 25 13.1926 25 12.5004C24.9989 11.5725 24.6298 10.6829 23.9736 10.0268C23.3175 9.37062 22.4279 9.00151 21.5 9.00038ZM21.5 14.0004C21.2033 14.0004 20.9133 13.9124 20.6666 13.7476C20.42 13.5828 20.2277 13.3485 20.1142 13.0744C20.0007 12.8003 19.9709 12.4987 20.0288 12.2077C20.0867 11.9168 20.2296 11.6495 20.4393 11.4397C20.6491 11.2299 20.9164 11.0871 21.2074 11.0292C21.4983 10.9713 21.7999 11.001 22.074 11.1146C22.3481 11.2281 22.5824 11.4204 22.7472 11.667C22.912 11.9137 23 12.2037 23 12.5004C22.9996 12.8981 22.8414 13.2794 22.5602 13.5606C22.279 13.8418 21.8977 13.9999 21.5 14.0004Z" fill="black"/>
</svg>
