<svg xmlns="http://www.w3.org/2000/svg" width="32" height="32" viewBox="0 0 32 32"><path d="M29.1619 23.7499L18.1649 4.74989C17.9455 4.36987 17.6299 4.05431 17.2499 3.8349C16.8698 3.6155 16.4388 3.5 15.9999 3.5C15.5611 3.5 15.13 3.6155 14.75 3.8349C14.37 4.05431 14.0544 4.36987 13.8349 4.74989L2.83494 23.7499C2.61552 24.1299 2.5 24.561 2.5 24.9999C2.5 25.4387 2.61551 25.8698 2.83492 26.2499C3.05433 26.6299 3.36992 26.9455 3.74996 27.1649C4.13 27.3844 4.5611 27.4999 4.99994 27.4999H26.9969C27.4358 27.4999 27.8669 27.3844 28.2469 27.1649C28.627 26.9455 28.9425 26.6299 29.162 26.2499C29.3814 25.8698 29.4969 25.4387 29.4969 24.9999C29.4969 24.561 29.3814 24.1299 29.1619 23.7499ZM28.2959 25.7499C28.1655 25.9792 27.9762 26.1695 27.7477 26.3013C27.5192 26.4332 27.2597 26.5017 26.9959 26.4999H4.99994C4.73681 26.4997 4.47838 26.4303 4.25053 26.2987C4.02269 26.167 3.83344 25.9779 3.70176 25.7501C3.57008 25.5223 3.5006 25.2638 3.50028 25.0007C3.49996 24.7376 3.56881 24.479 3.69994 24.2509L14.6989 5.25089C14.8984 4.90675 15.2262 4.65566 15.6104 4.55258C15.9946 4.4495 16.404 4.50283 16.7489 4.70089C16.9774 4.83267 17.1672 5.02239 17.2989 5.25089L28.2959 24.2509C28.4288 24.4785 28.4988 24.7374 28.4986 25.001C28.4984 25.2646 28.4281 25.5234 28.2949 25.7509L28.2959 25.7499Z M16 23.5C16.1989 23.5 16.3897 23.421 16.5303 23.2803C16.671 23.1397 16.75 22.9489 16.75 22.75C16.75 22.5511 16.671 22.3603 16.5303 22.2197C16.3897 22.079 16.1989 22 16 22C15.8011 22 15.6103 22.079 15.4697 22.2197C15.329 22.3603 15.25 22.5511 15.25 22.75C15.25 22.9489 15.329 23.1397 15.4697 23.2803C15.6103 23.421 15.8011 23.5 16 23.5ZM16 19.5C16.1326 19.5 16.2598 19.4473 16.3536 19.3536C16.4473 19.2598 16.5 19.1326 16.5 19V12C16.5 11.8674 16.4473 11.7402 16.3536 11.6464C16.2598 11.5527 16.1326 11.5 16 11.5C15.8674 11.5 15.7402 11.5527 15.6464 11.6464C15.5527 11.7402 15.5 11.8674 15.5 12V19C15.5 19.1326 15.5527 19.2598 15.6464 19.3536C15.7402 19.4473 15.8674 19.5 16 19.5Z"/></svg>