<svg xmlns="http://www.w3.org/2000/svg" width="32" height="32" viewBox="0 0 32 32"><path d="M29.3789 23.6242L18.3819 4.62521C18.1402 4.20747 17.7929 3.86063 17.3748 3.61951C16.9567 3.37839 16.4826 3.25146 15.9999 3.25146C15.5173 3.25146 15.0431 3.37839 14.625 3.61951C14.207 3.86063 13.8596 4.20747 13.6179 4.62521L2.61892 23.6252C2.37762 24.0431 2.25056 24.5172 2.25049 24.9998C2.25042 25.4824 2.37735 25.9565 2.61853 26.3745C2.8597 26.7925 3.20663 27.1397 3.62447 27.3812C4.0423 27.6227 4.51633 27.7499 4.99892 27.7502H26.9969C27.4798 27.7504 27.9543 27.6234 28.3725 27.382C28.7908 27.1406 29.1381 26.7934 29.3795 26.3751C29.621 25.9569 29.748 25.4825 29.7479 24.9996C29.7478 24.5167 29.6205 24.0423 29.3789 23.6242ZM28.0799 25.6252C27.9711 25.8161 27.8135 25.9747 27.6231 26.0845C27.4328 26.1943 27.2167 26.2515 26.9969 26.2502H4.99992C4.78069 26.25 4.56537 26.1922 4.37556 26.0825C4.18575 25.9728 4.02812 25.8151 3.91851 25.6252C3.80889 25.4354 3.75113 25.22 3.75103 25.0008C3.75092 24.7816 3.80848 24.5662 3.91792 24.3762L14.9169 5.37621C15.0268 5.18614 15.1846 5.02826 15.3747 4.9184C15.5648 4.80853 15.7804 4.75054 15.9999 4.75021C16.2195 4.75023 16.4352 4.8081 16.6254 4.918C16.8155 5.02789 16.9733 5.18593 17.0829 5.37621L28.0799 24.3762C28.1907 24.5659 28.2491 24.7816 28.2491 25.0012C28.2491 25.2209 28.1907 25.4366 28.0799 25.6262V25.6252Z M16 23.75C16.2652 23.75 16.5196 23.6446 16.7071 23.4571C16.8946 23.2696 17 23.0152 17 22.75C17 22.4848 16.8946 22.2304 16.7071 22.0429C16.5196 21.8554 16.2652 21.75 16 21.75C15.7348 21.75 15.4804 21.8554 15.2929 22.0429C15.1054 22.2304 15 22.4848 15 22.75C15 23.0152 15.1054 23.2696 15.2929 23.4571C15.4804 23.6446 15.7348 23.75 16 23.75ZM16 19.75C16.1989 19.75 16.3897 19.671 16.5303 19.5303C16.671 19.3897 16.75 19.1989 16.75 19V12C16.75 11.8011 16.671 11.6103 16.5303 11.4697C16.3897 11.329 16.1989 11.25 16 11.25C15.8011 11.25 15.6103 11.329 15.4697 11.4697C15.329 11.6103 15.25 11.8011 15.25 12V19C15.25 19.1989 15.329 19.3897 15.4697 19.5303C15.6103 19.671 15.8011 19.75 16 19.75Z"/></svg>