<svg width="32" height="32" viewBox="0 0 32 32" fill="none" xmlns="http://www.w3.org/2000/svg">
<path d="M29.1618 23.7503L18.1648 4.74739C17.9455 4.36743 17.63 4.05189 17.2501 3.83247C16.8702 3.61304 16.4392 3.49748 16.0005 3.49738C15.5618 3.49727 15.1308 3.61264 14.7508 3.83189C14.3708 4.05113 14.0552 4.36653 13.8357 4.74639L2.83567 23.7503C2.61625 24.1303 2.50074 24.5614 2.50073 25.0003C2.50073 25.4391 2.61624 25.8702 2.83565 26.2503C3.05507 26.6303 3.37065 26.9459 3.75069 27.1653C4.13073 27.3848 4.56183 27.5003 5.00067 27.5003H26.9978C27.4366 27.5002 27.8676 27.3847 28.2476 27.1652C28.6276 26.9457 28.9431 26.6301 29.1624 26.25C29.3817 25.87 29.4971 25.4389 29.497 25.0001C29.497 24.5613 29.3813 24.1303 29.1618 23.7503ZM14.9997 12.0003C14.9997 11.7351 15.1051 11.4808 15.2926 11.2932C15.4802 11.1057 15.7345 11.0003 15.9997 11.0003C16.265 11.0003 16.5193 11.1057 16.7068 11.2932C16.8944 11.4808 16.9997 11.7351 16.9997 12.0003V19.0003C16.9997 19.2655 16.8944 19.5199 16.7068 19.7074C16.5193 19.895 16.265 20.0003 15.9997 20.0003C15.7345 20.0003 15.4802 19.895 15.2926 19.7074C15.1051 19.5199 14.9997 19.2655 14.9997 19.0003V12.0003ZM16.0001 24C15.7528 24 15.5112 23.9267 15.3056 23.7893C15.1 23.652 14.9398 23.4568 14.8452 23.2284C14.7506 23 14.7258 22.7486 14.7741 22.5061C14.8223 22.2637 14.9414 22.0409 15.1162 21.8661C15.291 21.6913 15.5137 21.5723 15.7562 21.524C15.9987 21.4758 16.25 21.5005 16.4784 21.5952C16.7068 21.6898 16.902 21.85 17.0394 22.0555C17.1767 22.2611 17.2501 22.5028 17.2501 22.75C17.2501 22.9142 17.2177 23.0767 17.1549 23.2284C17.0921 23.38 17 23.5178 16.8839 23.6339C16.7679 23.75 16.6301 23.842 16.4784 23.9049C16.3268 23.9677 16.1642 24 16.0001 24Z" fill="black"/>
</svg>
