<svg xmlns="http://www.w3.org/2000/svg" width="32" height="32" viewBox="0 0 32 32"><path d="M29.1619 23.75L18.1649 4.74696C17.9455 4.36694 17.6299 4.05138 17.2499 3.83198C16.8698 3.61257 16.4388 3.49707 15.9999 3.49707C15.5611 3.49707 15.13 3.61257 14.75 3.83198C14.37 4.05138 14.0544 4.36694 13.8349 4.74696L2.83494 23.75C2.61548 24.1301 2.49996 24.5613 2.5 25.0002C2.50004 25.4391 2.61564 25.8703 2.83517 26.2504C3.0547 26.6304 3.37043 26.946 3.75061 27.1654C4.13079 27.3847 4.56202 27.5001 5.00094 27.5H26.9979C27.4367 27.4998 27.8677 27.3841 28.2476 27.1646C28.6275 26.9451 28.9429 26.6295 29.1622 26.2495C29.3815 25.8695 29.4969 25.4384 29.4969 24.9997C29.4968 24.5609 29.3813 24.1299 29.1619 23.75ZM14.9999 12C14.9999 11.7347 15.1053 11.4804 15.2928 11.2929C15.4804 11.1053 15.7347 11 15.9999 11C16.2652 11 16.5195 11.1053 16.707 11.2929C16.8946 11.4804 16.9999 11.7347 16.9999 12V19C16.9999 19.2652 16.8946 19.5195 16.707 19.7071C16.5195 19.8946 16.2652 20 15.9999 20C15.7347 20 15.4804 19.8946 15.2928 19.7071C15.1053 19.5195 14.9999 19.2652 14.9999 19V12ZM15.9999 24C15.6684 24 15.3505 23.8683 15.1161 23.6338C14.8816 23.3994 14.7499 23.0815 14.7499 22.75C14.7499 22.4184 14.8816 22.1005 15.1161 21.8661C15.3505 21.6317 15.6684 21.5 15.9999 21.5C16.3315 21.5 16.6494 21.6317 16.8838 21.8661C17.1182 22.1005 17.2499 22.4184 17.2499 22.75C17.2499 23.0815 17.1182 23.3994 16.8838 23.6338C16.6494 23.8683 16.3315 24 15.9999 24Z"/></svg>