<svg data-name="Layer 1" xmlns="http://www.w3.org/2000/svg" viewBox="0 0 32 32"><path d="M30.014 18.817a4.767 4.767 0 0 0-2.838-4.217 3.25 3.25 0 1 0-5.324 0 5.539 5.539 0 0 0-1.029.656 9.38 9.38 0 0 0-1.372-.646 5 5 0 1 0-6.872 0 9.4 9.4 0 0 0-1.391.657 5.578 5.578 0 0 0-1.04-.664 3.25 3.25 0 1 0-5.324 0 4.767 4.767 0 0 0-2.838 4.217c0 .676.366 1.6 2.108 2.141a11.306 11.306 0 0 0 2.96.428 7.343 7.343 0 0 0-.039.682c0 .962.554 2.289 3.191 3.148a19.542 19.542 0 0 0 5.809.781c4.152 0 9-1.028 9-3.929 0-.23-.017-.456-.038-.681 1.617-.05 5.037-.412 5.037-2.573Zm-6.383-6.952a1.248 1.248 0 1 1-.367.884 1.25 1.25 0 0 1 .367-.884Zm-10.11-2.532A3 3 0 1 1 13.015 11a3 3 0 0 1 .506-1.667ZM6.6 11.868a1.249 1.249 0 1 1-.366.884 1.252 1.252 0 0 1 .366-.884Zm.93 7.534h-.044a6.552 6.552 0 0 1-3.5-.674C4.048 17.217 5.594 16 7.486 16a4.066 4.066 0 0 1 2.01.521A7.978 7.978 0 0 0 7.532 19.4ZM16.015 24c-4.337 0-7-1.123-7-1.929 0-3.347 3.14-6.071 7-6.071s7 2.724 7 6.071c0 .806-2.663 1.929-7 1.929Zm8.5-4.6H24.5a7.981 7.981 0 0 0-1.977-2.889A4.068 4.068 0 0 1 24.514 16c1.892 0 3.437 1.214 3.5 2.726a6.552 6.552 0 0 1-3.5.674Z" style="fill:#0f0f0f"/></svg>