<svg width="32" height="32" viewBox="0 0 32 32" fill="none" xmlns="http://www.w3.org/2000/svg">
<path d="M25.0002 6.25024H7.00024C5.7409 6.25167 4.53355 6.75257 3.64307 7.64306C2.75258 8.53355 2.25167 9.7409 2.25024 11.0002V15.0002C2.25167 16.2596 2.75258 17.4669 3.64307 18.3574C4.53355 19.2479 5.7409 19.7488 7.00024 19.7502H9.25024V24.0002C9.25081 24.4642 9.43536 24.909 9.76343 25.2371C10.0915 25.5651 10.5363 25.7497 11.0002 25.7502H21.0002C21.4642 25.7497 21.909 25.5651 22.2371 25.2371C22.5651 24.909 22.7497 24.4642 22.7502 24.0002V19.7502H25.0002C26.2596 19.7488 27.4669 19.2479 28.3574 18.3574C29.2479 17.4669 29.7488 16.2596 29.7502 15.0002V11.0002C29.7488 9.7409 29.2479 8.53355 28.3574 7.64306C27.4669 6.75257 26.2596 6.25167 25.0002 6.25024ZM21.2502 24.0002C21.2495 24.0663 21.2229 24.1294 21.1762 24.1762C21.1294 24.2229 21.0663 24.2495 21.0002 24.2502H11.0002C10.9342 24.2495 10.871 24.2229 10.8243 24.1762C10.7776 24.1294 10.751 24.0663 10.7502 24.0002V19.7502H21.2502V24.0002ZM28.2502 15.0002C28.2492 15.8619 27.9065 16.688 27.2972 17.2972C26.688 17.9065 25.8619 18.2492 25.0002 18.2502H7.00024C6.1386 18.2492 5.31253 17.9065 4.70325 17.2972C4.09397 16.688 3.75124 15.8619 3.75024 15.0002V11.0002C3.75124 10.1386 4.09397 9.31252 4.70325 8.70324C5.31252 8.09397 6.1386 7.75124 7.00024 7.75024H25.0002C25.8619 7.75124 26.688 8.09397 27.2972 8.70324C27.9065 9.31252 28.2492 10.1386 28.2502 11.0002V15.0002Z" fill="black"/>
<path d="M17.0002 12.2502H15.0002C14.8013 12.2502 14.6106 12.3293 14.4699 12.4699C14.3293 12.6106 14.2502 12.8013 14.2502 13.0002C14.2502 13.1992 14.3293 13.3899 14.4699 13.5306C14.6106 13.6712 14.8013 13.7502 15.0002 13.7502H17.0002C17.1992 13.7502 17.3899 13.6712 17.5306 13.5306C17.6712 13.3899 17.7502 13.1992 17.7502 13.0002C17.7502 12.8013 17.6712 12.6106 17.5306 12.4699C17.3899 12.3293 17.1992 12.2502 17.0002 12.2502Z" fill="black"/>
</svg>
