<?xml version="1.0" encoding="utf-8"?>
<!-- Generator: Adobe Illustrator 25.2.0, SVG Export Plug-In . SVG Version: 6.00 Build 0)  -->
<svg version="1.1" id="Layer_1" xmlns="http://www.w3.org/2000/svg" xmlns:xlink="http://www.w3.org/1999/xlink" x="0px" y="0px"
	 viewBox="0 0 32 32" style="enable-background:new 0 0 32 32;" xml:space="preserve">
<style type="text/css">
	.st0{fill:#0F0F0F;}
</style>
<g>
	<path class="st0" d="M16,16c1.913,0,3.641,0.68,4.899,1.759c0.419,0.359,1.051,0.311,1.41-0.108c0.27-0.315,0.31-0.75,0.135-1.099
		C23.012,16.218,23.71,16,24.5,16c1.95,0,3.307,1.215,3.48,2.496c0.074,0.547,0.577,0.931,1.125,0.857
		c0.547-0.074,0.931-0.577,0.858-1.124c-0.223-1.653-1.362-2.951-2.88-3.653c0.384-0.528,0.618-1.173,0.618-1.876
		c0-1.767-1.433-3.2-3.2-3.2s-3.2,1.433-3.2,3.2c0,0.699,0.23,1.341,0.611,1.867c-0.405,0.188-0.782,0.417-1.121,0.688
		c-0.43-0.245-0.882-0.459-1.355-0.636C20.395,13.707,21,12.428,21,11c0-2.761-2.239-5-5-5s-5,2.239-5,5
		c0,1.428,0.606,2.709,1.567,3.62c-0.473,0.177-0.923,0.395-1.354,0.64c-0.323-0.258-0.68-0.481-1.064-0.665
		c0.348-0.512,0.551-1.13,0.551-1.795c0-1.767-1.433-3.2-3.2-3.2s-3.2,1.433-3.2,3.2c0,0.666,0.204,1.284,0.552,1.796
		C3.191,15.387,2,16.909,2,18.8c0,0.75,0.463,1.268,0.907,1.578c0.443,0.309,1.003,0.517,1.566,0.66
		c0.765,0.195,1.664,0.295,2.569,0.322C7.018,21.604,7,21.85,7,22.1c0,1.124,0.749,1.914,1.566,2.419
		c0.827,0.512,1.919,0.867,3.083,1.103c2.341,0.475,5.265,0.528,7.728,0.169c0.547-0.08,0.925-0.587,0.845-1.134
		c-0.08-0.547-0.587-0.925-1.134-0.845c-2.253,0.329-4.944,0.276-7.041-0.15c-1.055-0.214-1.887-0.508-2.429-0.844
		C9.066,22.477,9,22.221,9,22.1C9,18.861,12.037,16,16,16z M24.5,11.5c0.663,0,1.2,0.537,1.2,1.2c0,0.663-0.537,1.2-1.2,1.2
		s-1.2-0.537-1.2-1.2C23.3,12.037,23.837,11.5,24.5,11.5z M13,11c0-1.657,1.343-3,3-3s3,1.343,3,3c0,1.657-1.343,3-3,3
		S13,12.657,13,11z M6.3,12.8c0-0.663,0.537-1.2,1.2-1.2s1.2,0.537,1.2,1.2c0,0.663-0.537,1.2-1.2,1.2S6.3,13.463,6.3,12.8z
		 M7.536,19.37c-0.936,0.002-1.857-0.088-2.569-0.27c-0.452-0.115-0.752-0.248-0.915-0.362c-0.021-0.014-0.037-0.027-0.049-0.037
		C4.066,17.337,5.439,16,7.5,16c0.765,0,1.439,0.208,1.997,0.523C8.641,17.328,7.966,18.293,7.536,19.37z"/>
	<path class="st0" d="M30,22h-3v-3c0-0.552-0.448-1-1-1s-1,0.448-1,1v3h-3c-0.552,0-1,0.448-1,1s0.448,1,1,1h3v3
		c0,0.552,0.448,1,1,1s1-0.448,1-1v-3h3c0.552,0,1-0.448,1-1S30.552,22,30,22z"/>
</g>
</svg>
