<svg width="32" height="32" viewBox="0 0 32 32" fill="none" xmlns="http://www.w3.org/2000/svg">
<path d="M25.0005 9.50043H7.00049C5.80741 9.50173 4.66358 9.97626 3.81995 10.8199C2.97631 11.6635 2.50179 12.8074 2.50049 14.0004V18.0004C2.50179 19.1935 2.97631 20.3373 3.81994 21.181C4.66358 22.0246 5.80741 22.4991 7.00049 22.5004H25.0005C26.1936 22.4991 27.3374 22.0246 28.181 21.181C29.0247 20.3373 29.4992 19.1935 29.5005 18.0004V14.0004C29.4992 12.8074 29.0247 11.6635 28.181 10.8199C27.3374 9.97626 26.1936 9.50174 25.0005 9.50043ZM28.5005 18.0004C28.4994 18.9283 28.1303 19.8179 27.4741 20.4741C26.818 21.1302 25.9284 21.4993 25.0005 21.5004H7.00049C6.07258 21.4993 5.18299 21.1302 4.52685 20.4741C3.87072 19.8179 3.50161 18.9283 3.50049 18.0004V14.0004C3.50161 13.0725 3.87072 12.1829 4.52685 11.5268C5.18299 10.8707 6.07258 10.5016 7.00049 10.5004H25.0005C25.9284 10.5016 26.818 10.8707 27.4741 11.5268C28.1303 12.1829 28.4994 13.0725 28.5005 14.0004V18.0004Z" fill="black"/>
<path d="M15.0005 15.5004H11.0005C10.8679 15.5004 10.7407 15.5531 10.6469 15.6469C10.5532 15.7406 10.5005 15.8678 10.5005 16.0004C10.5005 16.133 10.5532 16.2602 10.6469 16.354C10.7407 16.4478 10.8679 16.5004 11.0005 16.5004H15.0005C15.1331 16.5004 15.2603 16.4478 15.354 16.354C15.4478 16.2602 15.5005 16.133 15.5005 16.0004C15.5005 15.8678 15.4478 15.7406 15.354 15.6469C15.2603 15.5531 15.1331 15.5004 15.0005 15.5004Z" fill="black"/>
<path d="M20 16.7836C20.4142 16.7836 20.75 16.4478 20.75 16.0336C20.75 15.6194 20.4142 15.2836 20 15.2836C19.5858 15.2836 19.25 15.6194 19.25 16.0336C19.25 16.4478 19.5858 16.7836 20 16.7836Z" fill="black"/>
</svg>
