<svg width="32" height="32" viewBox="0 0 32 32" fill="none" xmlns="http://www.w3.org/2000/svg">
<path fill-rule="evenodd" clip-rule="evenodd" d="M7.5 11.6C6.83726 11.6 6.3 12.1373 6.3 12.8C6.3 13.4627 6.83726 14 7.5 14C8.16274 14 8.7 13.4627 8.7 12.8C8.7 12.1373 8.16274 11.6 7.5 11.6ZM4.3 12.8C4.3 11.0327 5.73269 9.6 7.5 9.6C9.26731 9.6 10.7 11.0327 10.7 12.8C10.7 14.5673 9.26731 16 7.5 16C5.73269 16 4.3 14.5673 4.3 12.8Z" fill="black"/>
<path fill-rule="evenodd" clip-rule="evenodd" d="M4.00231 18.7012C4.06588 17.337 5.43893 16 7.5 16C8.70968 16 9.72868 16.4841 10.3435 17.1683L11.8312 15.8317C10.8075 14.6923 9.23139 14 7.5 14C4.61082 14 2 15.9976 2 18.8C2 19.5497 2.46286 20.0681 2.90677 20.3781C3.34972 20.6873 3.91012 20.8952 4.47276 21.0386C5.61114 21.3288 7.04303 21.4253 8.35791 21.351L8.24512 19.3542C7.07741 19.4201 5.85854 19.3279 4.96681 19.1006C4.51439 18.9853 4.21491 18.8521 4.05172 18.7382C4.03111 18.7238 4.0149 18.7115 4.00231 18.7012Z" fill="black"/>
<path fill-rule="evenodd" clip-rule="evenodd" d="M24.5 11.5C23.8373 11.5 23.3 12.0373 23.3 12.7C23.3 13.3627 23.8373 13.9 24.5 13.9C25.1627 13.9 25.7 13.3627 25.7 12.7C25.7 12.0373 25.1627 11.5 24.5 11.5ZM21.3 12.7C21.3 10.9327 22.7327 9.5 24.5 9.5C26.2673 9.5 27.7 10.9327 27.7 12.7C27.7 14.4673 26.2673 15.9 24.5 15.9C22.7327 15.9 21.3 14.4673 21.3 12.7Z" fill="black"/>
<path fill-rule="evenodd" clip-rule="evenodd" d="M24.5 16C23.3332 16 22.3424 16.4507 21.7219 17.0979L20.2781 15.7139C21.3027 14.6452 22.8282 14 24.5 14C27.1976 14 29.6243 15.723 29.9618 18.2291C30.0355 18.7765 29.6516 19.2799 29.1042 19.3536C28.5569 19.4274 28.0534 19.0434 27.9797 18.4961C27.8072 17.2148 26.4501 16 24.5 16Z" fill="black"/>
<path fill-rule="evenodd" clip-rule="evenodd" d="M16 8C14.3431 8 13 9.34315 13 11C13 12.6569 14.3431 14 16 14C17.6569 14 19 12.6569 19 11C19 9.34315 17.6569 8 16 8ZM11 11C11 8.23858 13.2386 6 16 6C18.7614 6 21 8.23858 21 11C21 13.7614 18.7614 16 16 16C13.2386 16 11 13.7614 11 11Z" fill="black"/>
<path fill-rule="evenodd" clip-rule="evenodd" d="M16 16C12.0372 16 9 18.8607 9 22.1C9 22.2206 9.06604 22.4769 9.61816 22.8186C10.1601 23.1539 10.992 23.4481 12.0467 23.6621C14.1435 24.0876 16.835 24.1407 19.0879 23.812C19.6344 23.7323 20.1421 24.1107 20.2218 24.6572C20.3016 25.2037 19.9232 25.7113 19.3767 25.7911C16.9141 26.1503 13.9895 26.0971 11.6489 25.6221C10.485 25.3859 9.39304 25.0312 8.56569 24.5192C7.74856 24.0135 7 23.2239 7 22.1C7 17.5393 11.1628 14 16 14C18.386 14 20.5763 14.8477 22.2008 16.2409C22.62 16.6005 22.6683 17.2318 22.3088 17.651C21.9492 18.0702 21.3179 18.1186 20.8987 17.7591C19.6406 16.68 17.9134 16 16 16Z" fill="black"/>
<path d="M27 19C27 18.4477 26.5523 18 26 18C25.4477 18 25 18.4477 25 19V22H22C21.4477 22 21 22.4477 21 23C21 23.5523 21.4477 24 22 24H25V27C25 27.5523 25.4477 28 26 28C26.5523 28 27 27.5523 27 27V24H30C30.5523 24 31 23.5523 31 23C31 22.4477 30.5523 22 30 22H27V19Z" fill="black"/>
</svg>
