<svg xmlns="http://www.w3.org/2000/svg" width="32" height="32" viewBox="0 0 32 32"><path d="M4.5 13.001V24C4.50132 25.1931 4.97585 26.3369 5.81948 27.1805C6.66311 28.0241 7.80693 28.4987 9 28.5H23C24.1931 28.4987 25.3369 28.0241 26.1805 27.1805C27.0241 26.3369 27.4987 25.1931 27.5 24V12.992C27.485 12.993 27.472 13.002 27.457 13.002H4.5V13.001ZM23 5.5V3C23 2.73478 22.8946 2.48043 22.7071 2.29289C22.5196 2.10536 22.2652 2 22 2C21.7348 2 21.4804 2.10536 21.2929 2.29289C21.1054 2.48043 21 2.73478 21 3V5.5H11V3C11 2.73478 10.8946 2.48043 10.7071 2.29289C10.5196 2.10536 10.2652 2 10 2C9.73478 2 9.48043 2.10536 9.29289 2.29289C9.10536 2.48043 9 2.73478 9 3V5.5C7.80693 5.50132 6.66311 5.97585 5.81948 6.81948C4.97585 7.66311 4.50132 8.80693 4.5 10V11H27.457C27.472 11 27.485 11.008 27.5 11.009V10C27.4987 8.80693 27.0241 7.66311 26.1805 6.81948C25.3369 5.97585 24.1931 5.50132 23 5.5Z"/></svg>