<svg xmlns="http://www.w3.org/2000/svg" id="Layer_1" data-name="Layer 1" viewBox="0 0 32 32"><defs><style>.cls-1{fill:#0f0f0f;}</style></defs><path d="M16,16a7.522,7.522,0,0,1,4.9,1.76,1,1,0,0,0,1.544-1.208A4.038,4.038,0,0,1,24.5,16a3.3,3.3,0,0,1,3.48,2.5,1.006,1.006,0,0,0,.38.672,1,1,0,0,0,1.582-.545.982.982,0,0,0,.02-.393,4.8,4.8,0,0,0-2.881-3.655,3.2,3.2,0,1,0-5.169-.009,5.509,5.509,0,0,0-1.122.689,9.443,9.443,0,0,0-1.356-.637c.032-.03.07-.051.1-.082a5,5,0,1,0-7.072,0c.032.031.071.053.1.084a9.428,9.428,0,0,0-1.354.64,5.508,5.508,0,0,0-1.066-.666,3.2,3.2,0,1,0-5.294,0A4.691,4.691,0,0,0,2,18.8a1.934,1.934,0,0,0,.907,1.578,4.837,4.837,0,0,0,1.566.66,12.221,12.221,0,0,0,2.569.323C7.018,21.6,7,21.85,7,22.1a2.9,2.9,0,0,0,1.566,2.419,9.593,9.593,0,0,0,3.083,1.1,23.993,23.993,0,0,0,7.728.17,1,1,0,1,0-.29-1.98,21.938,21.938,0,0,1-7.04-.15,7.7,7.7,0,0,1-2.429-.843C9.066,22.477,9,22.22,9,22.1,9,18.86,12.037,16,16,16Zm7.651-4.148a1.2,1.2,0,1,1-.351.848A1.2,1.2,0,0,1,23.651,11.852Zm-8.8,1.92A3,3,0,1,1,16,14,2.991,2.991,0,0,1,14.852,13.772Zm-8.2-.123A1.2,1.2,0,1,1,7.5,14h0A1.2,1.2,0,0,1,6.651,13.649Zm.885,5.721A10.775,10.775,0,0,1,4.967,19.1a2.965,2.965,0,0,1-.915-.363c-.017-.012-.034-.024-.05-.037C4.066,17.337,5.44,16,7.5,16h0a4.04,4.04,0,0,1,2,.523A7.984,7.984,0,0,0,7.536,19.37Z M30.707,22.293A1,1,0,0,0,30,22H27V19a1,1,0,0,0-2,0v3H22a1,1,0,0,0,0,2h3v3a1,1,0,0,0,2,0V24h3a1,1,0,0,0,.707-1.707Z"/></svg>