<svg xmlns="http://www.w3.org/2000/svg" width="32" height="32" viewBox="0 0 32 32"><path d="M22 19H10C9.46981 19.0008 8.96156 19.2118 8.58666 19.5867C8.21176 19.9616 8.00079 20.4698 8 21V25C8.00079 25.5302 8.21176 26.0384 8.58666 26.4133C8.96156 26.7882 9.46981 26.9992 10 27H22C22.5302 26.9992 23.0384 26.7882 23.4133 26.4133C23.7882 26.0384 23.9992 25.5302 24 25V21C23.9992 20.4698 23.7882 19.9616 23.4133 19.5867C23.0384 19.2118 22.5302 19.0008 22 19ZM10 25V21H22L22.001 25H10ZM25 5H7C5.67441 5.00159 4.40356 5.52888 3.46622 6.46622C2.52888 7.40356 2.00159 8.67441 2 10V12C2.00159 13.3256 2.52888 14.5964 3.46622 15.5338C4.40356 16.4711 5.67441 16.9984 7 17H25C26.3257 16.9987 27.5967 16.4715 28.5341 15.5341C29.4715 14.5967 29.9987 13.3257 30 12V10C29.9984 8.67441 29.4711 7.40356 28.5338 6.46622C27.5964 5.52888 26.3256 5.00159 25 5ZM28 12C27.9992 12.7954 27.6829 13.558 27.1204 14.1204C26.558 14.6829 25.7954 14.9992 25 15H7C6.20459 14.9992 5.44199 14.6829 4.87956 14.1204C4.31712 13.558 4.00079 12.7954 4 12V10C4.00079 9.20459 4.31712 8.44199 4.87956 7.87956C5.44199 7.31712 6.20459 7.00079 7 7H25C25.7954 7.00079 26.558 7.31712 27.1204 7.87956C27.6829 8.44199 27.9992 9.20459 28 10V12Z M15.976 10H11C10.7348 10 10.4804 10.1054 10.2929 10.2929C10.1054 10.4804 10 10.7348 10 11C10 11.2652 10.1054 11.5196 10.2929 11.7071C10.4804 11.8946 10.7348 12 11 12H15.976C16.2412 12 16.4956 11.8946 16.6831 11.7071C16.8706 11.5196 16.976 11.2652 16.976 11C16.976 10.7348 16.8706 10.4804 16.6831 10.2929C16.4956 10.1054 16.2412 10 15.976 10ZM20.5 12.25C20.8315 12.25 21.1495 12.1183 21.3839 11.8839C21.6183 11.6495 21.75 11.3315 21.75 11C21.75 10.6685 21.6183 10.3505 21.3839 10.1161C21.1495 9.8817 20.8315 9.75 20.5 9.75C20.1685 9.75 19.8505 9.8817 19.6161 10.1161C19.3817 10.3505 19.25 10.6685 19.25 11C19.25 11.3315 19.3817 11.6495 19.6161 11.8839C19.8505 12.1183 20.1685 12.25 20.5 12.25Z"/></svg>