<svg width="32" height="32" viewBox="0 0 32 32" fill="none" xmlns="http://www.w3.org/2000/svg">
<path d="M27 19C27 18.4477 26.5523 18 26 18C25.4477 18 25 18.4477 25 19V22H22C21.4477 22 21 22.4477 21 23C21 23.5523 21.4477 24 22 24H25V27C25 27.5523 25.4477 28 26 28C26.5523 28 27 27.5523 27 27V24H30C30.5523 24 31 23.5523 31 23C31 22.4477 30.5523 22 30 22H27V19Z" fill="black"/>
<path d="M19.9999 9.99995C19.9999 12.2091 18.2091 14 15.9999 14C13.7908 14 11.9999 12.2091 11.9999 9.99995C11.9999 7.79082 13.7908 5.99995 15.9999 5.99995C18.2091 5.99995 19.9999 7.79082 19.9999 9.99995Z" fill="black"/>
<path d="M10.5742 11.5C10.5742 12.8807 9.45493 14 8.07422 14C6.69351 14 5.57422 12.8807 5.57422 11.5C5.57422 10.1192 6.69351 8.99995 8.07422 8.99995C9.45493 8.99995 10.5742 10.1192 10.5742 11.5Z" fill="black"/>
<path d="M23.9999 14C25.3807 14 26.4999 12.8807 26.4999 11.5C26.4999 10.1192 25.3807 8.99995 23.9999 8.99995C22.6192 8.99995 21.4999 10.1192 21.4999 11.5C21.4999 12.8807 22.6192 14 23.9999 14Z" fill="black"/>
<path d="M20.4942 17.2218C21.4845 16.418 22.7246 15.9858 23.9999 16C24.4025 16 24.7939 16.0404 25.169 16.1166C23.9164 16.477 23 17.6315 23 19V20H22C20.3431 20 19 21.3431 19 23C19 24.0815 19.5723 25.0293 20.4305 25.5572C15.7151 26.6116 7.99991 25.7829 7.99991 23.0711C8.00305 22.7117 8.03702 22.3532 8.10144 21.9996C5.59241 22.0038 3.07422 21.4185 3.07422 20.2427C3.07422 17.8995 5.31281 16 8.07422 16C9.33477 15.9872 10.561 16.4103 11.5455 17.1977C12.9057 16.4091 14.4509 15.9958 16.0231 16C17.5954 16.0043 19.1383 16.4259 20.4942 17.2218Z" fill="black"/>
</svg>
