<svg width="32" height="32" viewBox="0 0 32 32" fill="none" xmlns="http://www.w3.org/2000/svg">
<path d="M25.0002 6.00024H7.00024C5.67464 6.0018 4.40378 6.52908 3.46643 7.46642C2.52909 8.40377 2.0018 9.67463 2.00024 11.0002V15.0002C2.0018 16.3258 2.52909 17.5967 3.46643 18.534C4.40378 19.4714 5.67464 19.9987 7.00024 20.0002H9.00024V24.0002C9.00094 24.5305 9.21187 25.0388 9.58679 25.4137C9.96172 25.7886 10.47 25.9995 11.0002 26.0002H21.0002C21.5305 25.9995 22.0388 25.7886 22.4137 25.4137C22.7886 25.0388 22.9996 24.5305 23.0002 24.0002V20.0002H25.0002C26.3258 19.9987 27.5967 19.4714 28.5341 18.534C29.4714 17.5967 29.9987 16.3258 30.0002 15.0002V11.0002C29.9987 9.67463 29.4714 8.40377 28.5341 7.46642C27.5967 6.52908 26.3258 6.00179 25.0002 6.00024ZM20.9973 24.0002H11.0002V20.0002H20.9988L20.9973 24.0002ZM28.0002 15.0002C27.9994 15.7956 27.683 16.5582 27.1206 17.1206C26.5582 17.683 25.7956 17.9994 25.0002 18.0002H7.00024C6.20486 17.9994 5.4423 17.683 4.87988 17.1206C4.31746 16.5582 4.00111 15.7956 4.00024 15.0002V11.0002C4.00111 10.2049 4.31746 9.4423 4.87988 8.87988C5.4423 8.31745 6.20486 8.00111 7.00024 8.00024H25.0002C25.7956 8.00111 26.5582 8.31745 27.1206 8.87988C27.683 9.4423 27.9994 10.2049 28.0002 11.0002V15.0002Z" fill="black"/>
<path d="M17.0002 12.0002H15.0002C14.735 12.0002 14.4807 12.1056 14.2931 12.2931C14.1056 12.4807 14.0002 12.735 14.0002 13.0002C14.0002 13.2655 14.1056 13.5198 14.2931 13.7073C14.4807 13.8949 14.735 14.0002 15.0002 14.0002H17.0002C17.2655 14.0002 17.5198 13.8949 17.7073 13.7073C17.8949 13.5198 18.0002 13.2655 18.0002 13.0002C18.0002 12.735 17.8949 12.4807 17.7073 12.2931C17.5198 12.1056 17.2655 12.0002 17.0002 12.0002Z" fill="black"/>
</svg>
