<svg xmlns="http://www.w3.org/2000/svg" width="32" height="32" viewBox="0 0 32 32"><path d="M27.3361 16.2639L22.5361 8.17891C21.8639 7.0464 20.9059 6.11042 19.7581 5.46473C18.6103 4.81904 17.313 4.48632 15.9961 4.49991C14.6789 4.48658 13.3814 4.81939 12.2333 5.46503C11.0853 6.11068 10.1269 7.04652 9.45406 8.17891L4.65606 16.2639C3.99464 17.2789 3.60475 18.4467 3.52368 19.6555C3.44262 20.8643 3.67309 22.0737 4.19306 23.1679C5.37006 25.4889 7.90606 27.0009 11.1501 27.3169C12.7711 27.4619 14.4001 27.5239 16.0271 27.4999H16.0911C17.6772 27.5246 19.2636 27.4632 20.8431 27.3159C24.1081 26.9879 26.6491 25.4739 27.8171 23.1599C28.3324 22.065 28.5587 20.8564 28.4745 19.6493C28.3903 18.4421 27.9984 17.2766 27.3361 16.2639ZM26.9241 22.7099C25.9141 24.7119 23.6611 26.0279 20.7441 26.3209C19.1971 26.4639 17.6441 26.5239 16.0911 26.4999C14.474 26.5269 12.8567 26.4668 11.2461 26.3199C8.35006 26.0399 6.10406 24.7259 5.08506 22.7159C4.64306 21.7711 4.45051 20.7288 4.52578 19.6884C4.60106 18.648 4.94165 17.6443 5.51506 16.7729L10.3131 8.68791C10.9075 7.71407 11.7423 6.90936 12.7373 6.35101C13.7323 5.79266 14.8541 5.49942 15.9951 5.49942C17.136 5.49942 18.2578 5.79266 19.2528 6.35101C20.2478 6.90936 21.0826 7.71407 21.6771 8.68791L26.4771 16.7729C27.0512 17.6424 27.3937 18.6443 27.4719 19.6833C27.5501 20.7224 27.3616 21.7642 26.9241 22.7099Z M16.0029 11.5C14.9151 11.5 13.8518 11.8226 12.9473 12.4269C12.0428 13.0313 11.3379 13.8902 10.9216 14.8952C10.5053 15.9002 10.3964 17.0061 10.6086 18.073C10.8208 19.1399 11.3447 20.1199 12.1138 20.8891C12.883 21.6583 13.863 22.1821 14.9299 22.3943C15.9968 22.6065 17.1027 22.4976 18.1077 22.0813C19.1127 21.6651 19.9717 20.9601 20.576 20.0556C21.1804 19.1512 21.5029 18.0878 21.5029 17C21.5011 15.5419 20.921 14.144 19.89 13.113C18.8589 12.0819 17.4611 11.5019 16.0029 11.5ZM16.0029 21.5C15.4064 21.5089 14.8141 21.3991 14.2604 21.177C13.7067 20.9548 13.2027 20.6248 12.7777 20.2061C12.3527 19.7874 12.0152 19.2884 11.7848 18.7381C11.5545 18.1877 11.4359 17.5971 11.4359 17.0005C11.4359 16.4039 11.5545 15.8133 11.7848 15.2629C12.0152 14.7126 12.3527 14.2136 12.7777 13.7949C13.2027 13.3762 13.7067 13.0462 14.2604 12.824C14.8141 12.6019 15.4064 12.4921 16.0029 12.501C17.1847 12.5186 18.312 13.0004 19.1415 13.8423C19.9709 14.6842 20.4359 15.8186 20.4359 17.0005C20.4359 18.1824 19.9709 19.3168 19.1415 20.1587C18.312 21.0006 17.1847 21.4824 16.0029 21.5Z"/></svg>