<svg width="32" height="32" viewBox="0 0 32 32" fill="none" xmlns="http://www.w3.org/2000/svg">
<path d="M24.9995 5.0001H6.99951C5.67391 5.00166 4.40304 5.52894 3.4657 6.46628C2.52835 7.40363 2.00107 8.67449 1.99951 10.0001V21.9996C2.00107 23.3252 2.52835 24.5961 3.4657 25.5334C4.40304 26.4708 5.67391 26.9981 6.99951 26.9996H24.9995C26.3251 26.9981 27.596 26.4708 28.5333 25.5334C29.4707 24.5961 29.998 23.3252 29.9995 21.9996V10.0001C29.998 8.67449 29.4707 7.40363 28.5333 6.46628C27.596 5.52894 26.3251 5.00166 24.9995 5.0001ZM27.9995 21.9996C27.9986 22.795 27.6823 23.5576 27.1199 24.12C26.5575 24.6824 25.7949 24.9987 24.9995 24.9996H6.99951C6.20413 24.9987 5.44157 24.6824 4.87915 24.12C4.31673 23.5576 4.00038 22.795 3.99951 21.9996V10.0001C4.00038 9.20472 4.31673 8.44216 4.87915 7.87974C5.44157 7.31732 6.20413 7.00097 6.99951 7.0001H24.9995C25.7949 7.00097 26.5575 7.31732 27.1199 7.87974C27.6823 8.44216 27.9986 9.20472 27.9995 10.0001V21.9996Z" fill="black"/>
<path d="M23.9995 15.024C23.8682 15.024 23.7381 15.0498 23.6168 15.1C23.4954 15.1503 23.3852 15.224 23.2923 15.3168C23.1995 15.4097 23.1258 15.5199 23.0756 15.6413C23.0253 15.7626 22.9995 15.8927 22.9995 16.024V20.9996C22.9995 21.2648 23.1049 21.5192 23.2924 21.7067C23.4799 21.8942 23.7343 21.9996 23.9995 21.9996C24.2647 21.9996 24.5191 21.8942 24.7066 21.7067C24.8942 21.5192 24.9995 21.2648 24.9995 20.9996V16.024C24.9995 15.8927 24.9737 15.7626 24.9235 15.6413C24.8732 15.5199 24.7996 15.4097 24.7067 15.3168C24.6138 15.224 24.5036 15.1503 24.3822 15.1C24.2609 15.0498 24.1308 15.024 23.9995 15.024Z" fill="black"/>
</svg>
