<svg width="32" height="32" viewBox="0 0 32 32" fill="none" xmlns="http://www.w3.org/2000/svg">
<path d="M25.0005 9.25043H7.00049C5.74115 9.25186 4.5338 9.75276 3.64331 10.6432C2.75282 11.5337 2.25192 12.7411 2.25049 14.0004V18.0004C2.25192 19.2598 2.75282 20.4671 3.64331 21.3576C4.5338 22.2481 5.74115 22.749 7.00049 22.7504H25.0005C26.2598 22.749 27.4672 22.2481 28.3577 21.3576C29.2482 20.4671 29.7491 19.2598 29.7505 18.0004V14.0004C29.7491 12.7411 29.2482 11.5337 28.3577 10.6432C27.4672 9.75276 26.2598 9.25186 25.0005 9.25043ZM28.2505 18.0004C28.2495 18.8621 27.9068 19.6881 27.2975 20.2974C26.6882 20.9067 25.8621 21.2494 25.0005 21.2504H7.00049C6.13884 21.2494 5.31277 20.9067 4.70349 20.2974C4.09421 19.6881 3.75148 18.8621 3.75049 18.0004V14.0004C3.75148 13.1388 4.09421 12.3127 4.70349 11.7034C5.31277 11.0942 6.13884 10.7514 7.00049 10.7504H25.0005C25.8621 10.7514 26.6882 11.0942 27.2975 11.7034C27.9068 12.3127 28.2495 13.1388 28.2505 14.0004V18.0004Z" fill="black"/>
<path d="M15.0005 15.2504H11.0005C10.8016 15.2504 10.6108 15.3294 10.4702 15.4701C10.3295 15.6107 10.2505 15.8015 10.2505 16.0004C10.2505 16.1993 10.3295 16.3901 10.4702 16.5308C10.6108 16.6714 10.8016 16.7504 11.0005 16.7504H15.0005C15.1994 16.7504 15.3902 16.6714 15.5308 16.5308C15.6715 16.3901 15.7505 16.1993 15.7505 16.0004C15.7505 15.8015 15.6715 15.6107 15.5308 15.4701C15.3902 15.3294 15.1994 15.2504 15.0005 15.2504Z" fill="black"/>
<path d="M20 17.0336C20.5523 17.0336 21 16.5859 21 16.0336C21 15.4813 20.5523 15.0336 20 15.0336C19.4477 15.0336 19 15.4813 19 16.0336C19 16.5859 19.4477 17.0336 20 17.0336Z" fill="black"/>
</svg>
