<svg xmlns="http://www.w3.org/2000/svg" id="Layer_1" data-name="Layer 1" viewBox="0 0 32 32"><defs><style>.cls-1,.cls-2{fill:#0f0f0f;}.cls-1{fill-rule:evenodd;}</style></defs><path d="M26.238,14.766a2.7,2.7,0,1,0-3.478,0,5.094,5.094,0,0,0-1.92,1.1A8.931,8.931,0,0,0,18.4,14.809h0a4.5,4.5,0,1,0-4.792,0,8.971,8.971,0,0,0-2.445,1.052,5.069,5.069,0,0,0-1.837-1.071,2.7,2.7,0,1,0-3.644,0A4.343,4.343,0,0,0,2.5,18.8a1.439,1.439,0,0,0,.693,1.168,4.38,4.38,0,0,0,1.4.586,12.276,12.276,0,0,0,3.014.32A6.9,6.9,0,0,0,7.5,22.1a2.406,2.406,0,0,0,1.329,1.994,9.147,9.147,0,0,0,2.92,1.038,23.436,23.436,0,0,0,7.556.164.508.508,0,0,0,.184-.066.5.5,0,0,0,.145-.13.525.525,0,0,0,.084-.177.509.509,0,0,0-.056-.379.5.5,0,0,0-.131-.144.478.478,0,0,0-.176-.084.493.493,0,0,0-.2-.01,22.444,22.444,0,0,1-7.213-.154,8.206,8.206,0,0,1-2.592-.908c-.618-.383-.855-.773-.855-1.144,0-3.57,3.319-6.6,7.5-6.6a8.018,8.018,0,0,1,5.224,1.88.5.5,0,0,0,.706-.055.5.5,0,0,0-.055-.7c-.065-.055-.13-.109-.2-.162A4.445,4.445,0,0,1,24.5,15.5a3.792,3.792,0,0,1,3.975,2.93.5.5,0,0,0,.562.428.5.5,0,0,0,.429-.562A4.456,4.456,0,0,0,26.238,14.766ZM5.929,12.149a1.7,1.7,0,1,1,.92,2.221A1.7,1.7,0,0,1,5.8,12.8,1.714,1.714,0,0,1,5.929,12.149ZM7.874,19.87h0a11.646,11.646,0,0,1-3.03-.285,3.419,3.419,0,0,1-1.078-.437c-.232-.162-.265-.282-.265-.348,0-1.749,1.7-3.3,4-3.3a4.441,4.441,0,0,1,2.821.958A7.584,7.584,0,0,0,7.874,19.87Zm6.787-5.636A3.5,3.5,0,1,1,16,14.5,3.5,3.5,0,0,1,14.661,14.234ZM25.7,13.9a1.7,1.7,0,1,1,.5-1.2A1.7,1.7,0,0,1,25.7,13.9Z M26.5,19a.5.5,0,1,0-1,0v3.5H22a.5.5,0,1,0,0,1h3.5V27a.5.5,0,1,0,1,0V23.5H30a.5.5,0,1,0,0-1H26.5Z"/></svg>