<svg width="32" height="32" viewBox="0 0 32 32" fill="none" xmlns="http://www.w3.org/2000/svg">
<path d="M27.3356 16.2637L22.5367 8.17871C21.8645 7.0463 20.9065 6.11041 19.7586 5.46478C18.6108 4.81915 17.3135 4.48645 15.9967 4.5C14.6795 4.48631 13.3809 4.81894 12.2328 5.46456C11.0846 6.11019 10.1263 7.04615 9.45369 8.17871L4.65584 16.2637C3.99438 17.2788 3.60447 18.4466 3.52343 19.6555C3.44238 20.8643 3.67291 22.0737 4.19295 23.168C5.36971 25.4893 7.90584 27.001 11.1499 27.3165C12.7713 27.4624 14.3992 27.5237 16.0269 27.5H16.0914C17.6776 27.5245 19.2639 27.4629 20.8434 27.3155C24.1081 26.9883 26.6491 25.4737 27.817 23.1602C28.3323 22.0652 28.5586 20.8565 28.4743 19.6493C28.39 18.442 27.998 17.2765 27.3356 16.2637ZM26.9244 22.71C25.9137 24.712 23.6607 26.0284 20.7438 26.3213C19.1973 26.4642 17.6443 26.5238 16.0914 26.5C14.4741 26.5271 12.8566 26.4671 11.2457 26.3203C8.35021 26.04 6.10411 24.7256 5.08458 22.7158C4.64279 21.771 4.45042 20.7288 4.52581 19.6885C4.6012 18.6483 4.94184 17.6447 5.51524 16.7734L10.3131 8.68844C10.9076 7.7146 11.7424 6.90989 12.7374 6.35155C13.7324 5.7932 14.8543 5.49996 15.9952 5.49996C17.1362 5.49996 18.258 5.7932 19.253 6.35155C20.248 6.90989 21.0828 7.7146 21.6773 8.68844L26.4762 16.7734C27.0506 17.6427 27.3933 18.6445 27.4718 19.6835C27.5502 20.7225 27.3618 21.7643 26.9244 22.71Z" fill="black"/>
<path d="M16.0025 11.5C14.9148 11.5 13.8514 11.8226 12.9469 12.4269C12.0424 13.0313 11.3375 13.8902 10.9212 14.8952C10.5049 15.9002 10.396 17.0061 10.6082 18.073C10.8204 19.1399 11.3443 20.1199 12.1135 20.8891C12.8826 21.6583 13.8627 22.1821 14.9296 22.3943C15.9964 22.6065 17.1023 22.4976 18.1073 22.0813C19.1123 21.6651 19.9713 20.9601 20.5756 20.0556C21.18 19.1512 21.5025 18.0878 21.5025 17C21.5007 15.5419 20.9207 14.144 19.8896 13.1129C18.8586 12.0819 17.4607 11.5018 16.0025 11.5ZM16.0025 21.5C15.1125 21.5 14.2425 21.2361 13.5025 20.7416C12.7625 20.2471 12.1857 19.5443 11.8451 18.7221C11.5045 17.8998 11.4154 16.995 11.589 16.1221C11.7626 15.2492 12.1912 14.4474 12.8206 13.818C13.4499 13.1887 14.2517 12.7601 15.1246 12.5865C15.9976 12.4128 16.9024 12.5019 17.7246 12.8425C18.5469 13.1831 19.2497 13.7599 19.7442 14.4999C20.2386 15.24 20.5025 16.11 20.5025 17C20.5012 18.1931 20.0267 19.3369 19.1831 20.1805C18.3395 21.0242 17.1956 21.4987 16.0025 21.5Z" fill="black"/>
</svg>
