<svg xmlns="http://www.w3.org/2000/svg" width="32" height="32" viewBox="0 0 32 32"><path d="M27.409 10.6071C28.007 11.9851 27.447 13.6911 26.114 14.2301C23.598 15.2671 22.614 12.7201 22.614 12.7201C22.34 12.0771 21.767 10.9741 21.057 10.9741C20.82 10.9741 20.471 10.9741 19.96 11.9591C19.694 12.4761 19.454 13.3411 19.242 14.1061L19.138 14.4791C18.702 12.6281 18.179 10.4491 17.345 8.86014C17.118 8.41714 16.856 7.99614 16.56 7.60014C17.1172 6.93963 17.8107 6.40746 18.593 6.04014C19.3637 5.67861 20.2056 5.4941 21.057 5.50014C22.277 5.50014 24.283 5.89414 25.989 8.09914C26.1837 8.33851 26.3586 8.59336 26.512 8.86114C26.8356 9.37643 27.1188 9.91605 27.359 10.4751L27.409 10.6071Z M2.02296 11.8011C1.82396 10.2911 2.93296 8.82114 4.27796 8.71614C6.37096 8.53214 7.03096 10.3311 7.14296 10.9211L7.16796 11.0801C7.24896 11.5931 7.50696 13.2251 7.72796 14.2821C7.81928 14.7476 8.01282 15.4638 8.14002 15.9345L8.14696 15.9601L8.17696 16.0671C8.30654 16.5345 8.44758 16.9987 8.59996 17.4591C8.81512 18.0979 9.06482 18.7245 9.34796 19.3361C9.89596 20.4511 10.432 21.0291 10.942 21.0291C11.179 21.0291 11.54 21.0291 12.063 20.0051C12.393 19.3161 12.66 18.5951 12.86 17.8521C13.296 19.7161 13.807 21.5011 14.604 23.0511C14.8432 23.5248 15.1226 23.9771 15.439 24.4031C14.8822 25.0647 14.1886 25.5976 13.406 25.9651C12.6352 26.3264 11.7932 26.5102 10.942 26.5031C9.13596 26.5031 6.59396 25.6891 4.71396 21.8301C4.22094 20.7614 3.80065 19.6605 3.45596 18.5351C3.13396 17.5181 2.86396 16.4841 2.64696 15.4371C2.55896 15.0041 2.47196 14.5571 2.39696 14.1371C2.22296 13.2051 2.08596 12.3521 2.02296 11.8011Z M27.745 8.71624L27.509 8.69024L27.51 8.68924H27.448C27.707 9.14724 27.94 9.62024 28.145 10.1072L28.207 10.2392C28.582 11.1265 28.6102 12.1222 28.286 13.0292C27.9743 13.9207 27.3241 14.6536 26.476 15.0692C26.0278 15.2812 25.5388 15.3931 25.043 15.3972C24.707 15.3912 24.371 15.3382 24.047 15.2392C23.698 16.6182 23.15 18.3112 22.652 19.3352C22.154 20.3582 21.568 21.0282 21.045 21.0282C20.821 21.0282 20.46 21.0282 19.936 20.0042C19.606 19.3152 19.339 18.5942 19.139 17.8522C18.978 17.2742 18.828 16.6572 18.678 16.0142C18.6171 15.7823 18.5677 15.5493 18.5186 15.3173L18.516 15.3052C18.043 13.2312 17.507 11.0522 16.586 9.30624C16.2659 8.69838 15.8817 8.12647 15.44 7.60024C14.8811 6.93783 14.185 6.40457 13.4 6.03724C12.6272 5.67587 11.7831 5.49237 10.93 5.50024C9.72101 5.50024 7.71601 5.89424 6.01001 8.10024C6.55359 8.36019 7.02122 8.75551 7.36801 9.24824C7.72335 9.75251 7.94962 10.3362 8.02701 10.9482C8.11501 11.6052 8.32601 12.8782 8.57501 14.0852L8.57646 14.0929C8.60098 14.2214 8.62573 14.351 8.66201 14.4922C8.80801 14.0942 8.95301 13.7432 9.10501 13.3782L9.23501 13.0612L9.38501 12.7202C9.65901 12.0772 10.232 10.9742 10.93 10.9742C11.178 10.9742 11.528 10.9742 12.038 11.9592C12.3834 12.6657 12.6591 13.4042 12.861 14.1642C13.022 14.7552 13.184 15.3852 13.321 16.0152C13.3681 16.1885 13.4036 16.3608 13.4393 16.534C13.4416 16.5447 13.4438 16.5555 13.446 16.5662C13.944 18.7582 14.467 20.8722 15.364 22.6182C15.5492 22.988 15.7618 23.3433 16 23.6812C16.1738 23.9316 16.3608 24.1726 16.56 24.4032C18.042 26.0962 19.748 26.5032 21.044 26.5032C22.85 26.5032 25.404 25.6902 27.285 21.8302C28.244 19.8472 29.053 16.9212 29.352 15.4372C29.651 13.9542 29.876 12.6152 29.976 11.8022C30.022 11.4442 30.002 11.0812 29.916 10.7322C29.829 10.3832 29.677 10.0562 29.47 9.76924C29.263 9.48224 29.004 9.24124 28.708 9.06124C28.412 8.88024 28.085 8.76324 27.745 8.71624Z"/></svg>