<svg xmlns="http://www.w3.org/2000/svg" width="32" height="32" viewBox="0 0 32 32"><path d="M3.25 7C3.25 4.92893 4.92893 3.25 7 3.25H20.5C22.5711 3.25 24.25 4.92893 24.25 7V10.7851C25.4456 11.4767 26.25 12.7694 26.25 14.25C26.25 15.6242 25.557 16.8366 24.5014 17.5567C26.2387 18.0658 27.4622 19.1565 28.2809 20.4305C29.3902 22.1565 29.75 24.198 29.75 25.5625C29.75 27.3412 27.8049 29.75 22.25 29.75C16.6951 29.75 14.75 27.3412 14.75 25.5625C14.75 25.1726 14.7794 24.7273 14.8472 24.25H8.40139L6.12789 27.6602C5.89813 28.0049 5.43248 28.098 5.08783 27.8683C4.74318 27.6385 4.65005 27.1728 4.87982 26.8282L6.61184 24.2302C4.72316 24.0359 3.25 22.44 3.25 20.5V7ZM15.1738 22.75C15.4046 21.971 15.7427 21.1717 16.2191 20.4305C17.0378 19.1565 18.2613 18.0658 19.9986 17.5567C18.943 16.8366 18.25 15.6242 18.25 14.25C18.25 12.0409 20.0409 10.25 22.25 10.25C22.4193 10.25 22.5862 10.2605 22.75 10.2809V7C22.75 5.75736 21.7426 4.75 20.5 4.75H7C5.75736 4.75 4.75 5.75736 4.75 7V20.5C4.75 21.7426 5.75736 22.75 7 22.75H7.98926C7.99688 22.7499 8.0045 22.7499 8.01212 22.75H15.1738ZM7.60256 16.136C7.95379 16.3555 8.41651 16.2488 8.63607 15.8975L10.5004 12.9151L12.3641 15.8974C12.5011 16.1167 12.7415 16.25 13.0001 16.25C13.2587 16.25 13.499 16.1168 13.6361 15.8975L16.1361 11.8975C16.3556 11.5462 16.2489 11.0835 15.8976 10.864C15.5463 10.6445 15.0836 10.7512 14.8641 11.1025L13.0001 14.0848L11.1365 11.1025C10.9995 10.8832 10.7591 10.75 10.5005 10.75C10.242 10.75 10.0016 10.8832 9.86452 11.1024L7.36413 15.1024C7.14457 15.4537 7.25132 15.9164 7.60256 16.136ZM22.25 11.75C20.8693 11.75 19.75 12.8693 19.75 14.25C19.75 15.6307 20.8693 16.75 22.25 16.75C23.6307 16.75 24.75 15.6307 24.75 14.25C24.75 12.8693 23.6307 11.75 22.25 11.75ZM17.4809 21.2414C16.5652 22.6664 16.25 24.4062 16.25 25.5625C16.25 26.0755 17.0049 28.25 22.25 28.25C27.4951 28.25 28.25 26.0755 28.25 25.5625C28.25 24.4062 27.9348 22.6664 27.0191 21.2414C26.1293 19.8568 24.6677 18.75 22.25 18.75C19.8323 18.75 18.3707 19.8568 17.4809 21.2414Z"/></svg>