<svg width="32" height="32" viewBox="0 0 32 32" fill="none" xmlns="http://www.w3.org/2000/svg">
<path d="M19.0012 14.4452H21.425C21.4907 14.4452 21.5557 14.4323 21.6164 14.4072C21.677 14.3821 21.7322 14.3452 21.7786 14.2988L28.8635 7.2138C29.2787 6.79863 29.5119 6.23553 29.5119 5.64839C29.512 5.06124 29.2787 4.49813 28.8636 4.08295C28.4484 3.66777 27.8853 3.43451 27.2981 3.4345C26.711 3.4345 26.1479 3.66773 25.7327 4.0829L18.6482 11.1523C18.6016 11.1986 18.5646 11.2537 18.5394 11.3144C18.5141 11.375 18.5012 11.4401 18.5012 11.5058V13.9452C18.5012 14.0778 18.5539 14.205 18.6476 14.2988C18.7414 14.3925 18.8686 14.4452 19.0012 14.4452ZM19.5012 11.7128L26.4392 4.79C26.6669 4.56227 26.9757 4.43431 27.2977 4.43426C27.6197 4.43422 27.9285 4.56209 28.1562 4.78975C28.384 5.01741 28.5119 5.32621 28.512 5.64822C28.512 5.97023 28.3842 6.27907 28.1565 6.5068L21.218 13.4452H19.5012V11.7128Z" fill="black"/>
<path d="M29 14.5C28.8674 14.5 28.7402 14.5527 28.6464 14.6464C28.5527 14.7402 28.5 14.8674 28.5 15V24C28.4989 24.9279 28.1298 25.8175 27.4736 26.4736C26.8175 27.1298 25.9279 27.4989 25 27.5H7C6.07209 27.4989 5.18251 27.1297 4.52638 26.4736C3.87025 25.8175 3.50114 24.9279 3.5 24V12C3.50114 11.0721 3.87025 10.1825 4.52638 9.52638C5.18251 8.87025 6.07209 8.50114 7 8.5H16C16.1326 8.5 16.2598 8.44732 16.3536 8.35355C16.4473 8.25979 16.5 8.13261 16.5 8C16.5 7.86739 16.4473 7.74021 16.3536 7.64645C16.2598 7.55268 16.1326 7.5 16 7.5H7C5.80693 7.50132 4.66311 7.97585 3.81948 8.81948C2.97585 9.66311 2.50132 10.8069 2.5 12V24C2.5013 25.1931 2.97582 26.3369 3.81945 27.1805C4.66308 28.0242 5.80692 28.4987 7 28.5H25C26.1931 28.4987 27.3369 28.0242 28.1805 27.1805C29.0242 26.3369 29.4987 25.1931 29.5 24V15C29.5 14.8674 29.4473 14.7402 29.3536 14.6464C29.2598 14.5527 29.1326 14.5 29 14.5Z" fill="black"/>
</svg>
