<svg width="32" height="32" viewBox="0 0 32 32" fill="none" xmlns="http://www.w3.org/2000/svg">
<path d="M19.001 14.9451H21.425C21.6902 14.945 21.9445 14.8396 22.132 14.6521L29.217 7.56708C29.7261 7.05813 30.0121 6.36779 30.0122 5.64793C30.0123 4.92807 29.7264 4.23766 29.2175 3.72858C28.7085 3.2195 28.0182 2.93344 27.2983 2.93335C26.5785 2.93326 25.8881 3.21913 25.379 3.72808L18.295 10.7981C18.2018 10.891 18.1279 11.0013 18.0774 11.1228C18.027 11.2443 18.001 11.3745 18.001 11.5061V13.9461C18.001 14.2113 18.1063 14.4656 18.2939 14.6532C18.4814 14.8407 18.7358 14.9461 19.001 14.9461V14.9451ZM20.001 11.9211L26.793 5.14408C26.8593 5.07776 26.938 5.02516 27.0247 4.98926C27.1113 4.95337 27.2042 4.9349 27.298 4.9349C27.3918 4.9349 27.4846 4.95337 27.5713 4.98926C27.6579 5.02516 27.7367 5.07776 27.803 5.14408C27.8693 5.2104 27.9219 5.28913 27.9578 5.37578C27.9937 5.46242 28.0122 5.55529 28.0122 5.64908C28.0122 5.74287 27.9937 5.83574 27.9578 5.92238C27.9219 6.00903 27.8693 6.08776 27.803 6.15408L21.011 12.9451H20V11.9211H20.001Z" fill="#0F0F0F"/>
<path d="M29 14C28.7348 14 28.4804 14.1054 28.2929 14.2929C28.1054 14.4804 28 14.7348 28 15V24C27.9989 24.7953 27.6825 25.5578 27.1202 26.1202C26.5578 26.6825 25.7953 26.9989 25 27H7C6.20459 26.9992 5.44199 26.6829 4.87956 26.1204C4.31712 25.558 4.00079 24.7954 4 24V12C4.00079 11.2046 4.31712 10.442 4.87956 9.87956C5.44199 9.31712 6.20459 9.00079 7 9H16C16.2652 9 16.5196 8.89464 16.7071 8.70711C16.8946 8.51957 17 8.26522 17 8C17 7.73478 16.8946 7.48043 16.7071 7.29289C16.5196 7.10536 16.2652 7 16 7H7C5.6744 7.00159 4.40356 7.52888 3.46622 8.46622C2.52888 9.40356 2.00159 10.6744 2 12V24C2.00159 25.3256 2.52888 26.5964 3.46622 27.5338C4.40356 28.4711 5.6744 28.9984 7 29H25C26.3257 28.9987 27.5967 28.4715 28.5341 27.5341C29.4715 26.5967 29.9987 25.3257 30 24V15C30 14.7348 29.8946 14.4804 29.7071 14.2929C29.5196 14.1054 29.2652 14 29 14Z" fill="#0F0F0F"/>
</svg>
