<svg xmlns="http://www.w3.org/2000/svg" width="32" height="32" viewBox="0 0 32 32"><path d="M19.001 14.9448H21.425C21.6902 14.9448 21.9445 14.8394 22.132 14.6518L29.217 7.56683C29.7261 7.05788 30.0121 6.36755 30.0122 5.64769C30.0123 4.92783 29.7264 4.23742 29.2175 3.72833C28.7085 3.21925 28.0182 2.9332 27.2983 2.93311C26.5785 2.93301 25.8881 3.21888 25.379 3.72783L18.295 10.7978C18.2018 10.8907 18.1279 11.0011 18.0774 11.1225C18.027 11.244 18.001 11.3743 18.001 11.5058V13.9458C18.001 14.2111 18.1063 14.4654 18.2939 14.6529C18.4814 14.8405 18.7358 14.9458 19.001 14.9458V14.9448ZM20.001 11.9208L26.793 5.14383C26.8593 5.07752 26.938 5.02491 27.0247 4.98902C27.1113 4.95313 27.2042 4.93466 27.298 4.93466C27.3918 4.93466 27.4846 4.95313 27.5713 4.98902C27.6579 5.02491 27.7367 5.07752 27.803 5.14383C27.8693 5.21015 27.9219 5.28888 27.9578 5.37553C27.9937 5.46218 28.0122 5.55505 28.0122 5.64883C28.0122 5.74262 27.9937 5.83549 27.9578 5.92214C27.9219 6.00879 27.8693 6.08752 27.803 6.15383L21.011 12.9448H20V11.9208H20.001Z M29 14C28.7348 14 28.4804 14.1054 28.2929 14.2929C28.1054 14.4804 28 14.7348 28 15V24C27.9989 24.7953 27.6825 25.5578 27.1202 26.1202C26.5578 26.6825 25.7953 26.9989 25 27H7C6.20459 26.9992 5.44199 26.6829 4.87956 26.1204C4.31712 25.558 4.00079 24.7954 4 24V12C4.00079 11.2046 4.31712 10.442 4.87956 9.87956C5.44199 9.31712 6.20459 9.00079 7 9H16C16.2652 9 16.5196 8.89464 16.7071 8.70711C16.8946 8.51957 17 8.26522 17 8C17 7.73478 16.8946 7.48043 16.7071 7.29289C16.5196 7.10536 16.2652 7 16 7H7C5.6744 7.00159 4.40356 7.52888 3.46622 8.46622C2.52888 9.40356 2.00159 10.6744 2 12V24C2.00159 25.3256 2.52888 26.5964 3.46622 27.5338C4.40356 28.4711 5.6744 28.9984 7 29H25C26.3257 28.9987 27.5967 28.4715 28.5341 27.5341C29.4715 26.5967 29.9987 25.3257 30 24V15C30 14.7348 29.8946 14.4804 29.7071 14.2929C29.5196 14.1054 29.2652 14 29 14Z"/></svg>