<svg width="32" height="32" viewBox="0 0 32 32" fill="none" xmlns="http://www.w3.org/2000/svg">
<path d="M26 27H6C5.73478 27 5.48043 27.1054 5.29289 27.2929C5.10536 27.4804 5 27.7348 5 28C5 28.2652 5.10536 28.5196 5.29289 28.7071C5.48043 28.8946 5.73478 29 6 29H26C26.2652 29 26.5196 28.8946 26.7071 28.7071C26.8946 28.5196 27 28.2652 27 28C27 27.7348 26.8946 27.4804 26.7071 27.2929C26.5196 27.1054 26.2652 27 26 27Z" fill="black"/>
<path d="M17.7527 7.3474C19.3534 8.93566 21.4849 9.87595 23.7371 9.9874C24.3723 10.0342 25.0094 10.0478 25.646 10.0282C26.105 9.42571 26.3865 8.707 26.4589 7.95307C26.5314 7.19914 26.3917 6.43998 26.0558 5.76115C25.7199 5.08233 25.201 4.51083 24.5577 4.11109C23.9144 3.71134 23.1722 3.49924 22.4148 3.4987H22.408C21.8766 3.49636 21.35 3.59945 20.8587 3.802C20.3673 4.00454 19.9211 4.30253 19.5457 4.6787L17.3327 6.9029C17.4684 7.0547 17.61 7.207 17.7527 7.3474Z" fill="black"/>
<path d="M23.5906 11.9822C20.8616 11.8402 18.2811 10.6953 16.3445 8.7673C16.2201 8.6449 16.072 8.4943 15.9169 8.3261L5.9412 18.3523C5.6596 18.6342 5.50136 19.0163 5.5012 19.4148V22.9948C5.50151 23.3928 5.65932 23.7745 5.94015 24.0565C6.22098 24.3386 6.602 24.498 7 24.5H10.5859C10.9836 24.4985 11.3648 24.3409 11.6474 24.0611L23.7444 11.9933C23.657 11.9874 23.6017 11.9831 23.5906 11.9822Z" fill="black"/>
</svg>
