<svg xmlns="http://www.w3.org/2000/svg" width="32" height="32" viewBox="0 0 32 32"><path d="M26 27.25H6C5.80109 27.25 5.61032 27.329 5.46967 27.4696C5.32902 27.6103 5.25 27.8011 5.25 28C5.25 28.1989 5.32902 28.3896 5.46967 28.5303C5.61032 28.6709 5.80109 28.75 6 28.75H26C26.1989 28.75 26.3897 28.6709 26.5303 28.5303C26.671 28.3896 26.75 28.1989 26.75 28C26.75 27.8011 26.671 27.6103 26.5303 27.4696C26.3897 27.329 26.1989 27.25 26 27.25ZM7.003 24.747L10.587 24.75C11.0509 24.7489 11.4955 24.5645 11.824 24.237L25.504 10.557C25.9156 10.1622 26.2443 9.68915 26.4708 9.16568C26.6973 8.6422 26.817 8.07879 26.823 7.50845C26.8289 6.93811 26.721 6.37232 26.5055 5.84423C26.29 5.31614 25.9712 4.83639 25.5679 4.43307C25.1646 4.02976 24.6848 3.71101 24.1567 3.49549C23.6286 3.27997 23.0629 3.17202 22.4925 3.17797C21.9222 3.18392 21.3588 3.30365 20.8353 3.53014C20.3118 3.75663 19.8388 4.08532 19.444 4.49696L5.762 18.177C5.59933 18.3396 5.47043 18.5328 5.38273 18.7454C5.29503 18.9581 5.25026 19.1859 5.251 19.416L5.254 22.998C5.25479 23.4616 5.43932 23.906 5.76715 24.2338C6.09498 24.5616 6.53938 24.7462 7.003 24.747ZM20.503 5.55696C21.0255 5.03449 21.7341 4.74096 22.473 4.74096C23.2119 4.74096 23.9205 5.03449 24.443 5.55696C24.9655 6.07944 25.259 6.78807 25.259 7.52696C25.259 8.26586 24.9655 8.97449 24.443 9.49696L23.588 10.352C21.5443 10.1762 19.6119 9.34576 18.078 7.98396L20.503 5.55696ZM6.823 19.237L17.016 9.04396C18.4982 10.3753 20.3106 11.2842 22.264 11.676L10.762 23.176C10.7392 23.1992 10.7119 23.2178 10.6819 23.2305C10.6519 23.2432 10.6196 23.2498 10.587 23.25L7.004 23.247C6.9377 23.247 6.87411 23.2206 6.82722 23.1737C6.78034 23.1269 6.754 23.0633 6.754 22.997L6.751 19.415C6.751 19.348 6.777 19.285 6.823 19.237Z"/></svg>