<svg id="Layer_1" data-name="Layer 1" xmlns="http://www.w3.org/2000/svg" viewBox="0 0 32 32"><defs><style>.cls-1{fill:#07120d;fill-rule:evenodd}</style></defs><path class="cls-1" d="m29.115 7.129-4.242-4.243a3 3 0 0 0-4.243 0l-4.243 4.243a3 3 0 0 0 0 4.242l4.243 4.243a3 3 0 0 0 4.243 0l4.242-4.243a3 3 0 0 0 0-4.242ZM27.7 9.957 23.458 14.2a1 1 0 0 1-1.414 0L17.8 9.957a1 1 0 0 1 0-1.414L22.044 4.3a1 1 0 0 1 1.414 0L27.7 8.543a1 1 0 0 1 0 1.414ZM11 3H5a3 3 0 0 0-3 3v6a3 3 0 0 0 3 3h6a3 3 0 0 0 3-3V6a3 3 0 0 0-3-3Zm1 9a1 1 0 0 1-1 1H5a1 1 0 0 1-1-1V6a1 1 0 0 1 1-1h6a1 1 0 0 1 1 1ZM11 18H5a3 3 0 0 0-3 3v6a3 3 0 0 0 3 3h6a3 3 0 0 0 3-3v-6a3 3 0 0 0-3-3Zm1 9a1 1 0 0 1-1 1H5a1 1 0 0 1-1-1v-6a1 1 0 0 1 1-1h6a1 1 0 0 1 1 1ZM26 18h-6a3 3 0 0 0-3 3v6a3 3 0 0 0 3 3h6a3 3 0 0 0 3-3v-6a3 3 0 0 0-3-3Zm1 9a1 1 0 0 1-1 1h-6a1 1 0 0 1-1-1v-6a1 1 0 0 1 1-1h6a1 1 0 0 1 1 1Z"/></svg>