<svg width="32" height="32" viewBox="0 0 32 32" xmlns="http://www.w3.org/2000/svg">
<path fill-rule="evenodd" clip-rule="evenodd" d="M16.3873 7.12867C15.2157 8.30025 15.2157 10.1997 16.3873 11.3713L20.6299 15.614C21.8015 16.7855 23.701 16.7855 24.8726 15.614L29.1152 11.3713C30.2868 10.1997 30.2868 8.30025 29.1152 7.12867L24.8726 2.88603C23.701 1.71446 21.8015 1.71446 20.6299 2.88603L16.3873 7.12867Z" fill="#07120D"/>
<path fill-rule="evenodd" clip-rule="evenodd" d="M5 3C3.34315 3 2 4.34314 2 6V12C2 13.6568 3.34315 15 5 15H11C12.6569 15 14 13.6568 14 12V6C14 4.34314 12.6569 3 11 3H5Z" fill="#07120D"/>
<path fill-rule="evenodd" clip-rule="evenodd" d="M5 18C3.34315 18 2 19.3431 2 21V27C2 28.6568 3.34315 30 5 30H11C12.6569 30 14 28.6569 14 27V21C14 19.3431 12.6569 18 11 18H5Z" fill="#07120D"/>
<path fill-rule="evenodd" clip-rule="evenodd" d="M17 21C17 19.3431 18.3431 18 20 18H26C27.6569 18 29 19.3431 29 21V27C29 28.6569 27.6569 30 26 30H20C18.3431 30 17 28.6568 17 27V21Z" fill="#07120D"/>
</svg>
