<svg id="Layer_1" data-name="Layer 1" xmlns="http://www.w3.org/2000/svg" viewBox="0 0 32 32"><defs><style>.cls-1{fill:#07120d;fill-rule:evenodd}</style></defs><path class="cls-1" d="m24.565 15.687 4.243-4.242a2.751 2.751 0 0 0 0-3.89l-4.243-4.242a2.75 2.75 0 0 0-3.889 0l-4.242 4.242a2.751 2.751 0 0 0 0 3.89l4.242 4.242a2.75 2.75 0 0 0 3.889 0Zm-7.071-7.071 4.243-4.243a1.251 1.251 0 0 1 1.768 0l4.242 4.243a1.249 1.249 0 0 1 0 1.768l-4.242 4.243a1.251 1.251 0 0 1-1.768 0l-4.243-4.243a1.251 1.251 0 0 1 0-1.768ZM11.25 3.5h-6A2.75 2.75 0 0 0 2.5 6.25v6A2.75 2.75 0 0 0 5.25 15h6A2.75 2.75 0 0 0 14 12.25v-6a2.75 2.75 0 0 0-2.75-2.75Zm1.25 8.75a1.25 1.25 0 0 1-1.25 1.25h-6A1.25 1.25 0 0 1 4 12.25v-6A1.25 1.25 0 0 1 5.25 5h6a1.25 1.25 0 0 1 1.25 1.25ZM11.25 18h-6a2.75 2.75 0 0 0-2.75 2.75v6a2.75 2.75 0 0 0 2.75 2.75h6A2.75 2.75 0 0 0 14 26.75v-6A2.75 2.75 0 0 0 11.25 18Zm1.25 8.75A1.25 1.25 0 0 1 11.25 28h-6A1.25 1.25 0 0 1 4 26.75v-6a1.25 1.25 0 0 1 1.25-1.25h6a1.25 1.25 0 0 1 1.25 1.25ZM26.25 18h-6a2.75 2.75 0 0 0-2.75 2.75v6a2.75 2.75 0 0 0 2.75 2.75h6A2.75 2.75 0 0 0 29 26.75v-6A2.75 2.75 0 0 0 26.25 18Zm1.25 8.75A1.25 1.25 0 0 1 26.25 28h-6A1.25 1.25 0 0 1 19 26.75v-6a1.25 1.25 0 0 1 1.25-1.25h6a1.25 1.25 0 0 1 1.25 1.25Z"/></svg>