<svg width="32" height="32" viewBox="0 0 32 32" fill="none" xmlns="http://www.w3.org/2000/svg">
<path d="M15.1212 23.6312C14.9464 23.806 14.8273 24.0288 14.7791 24.2712C14.7308 24.5137 14.7556 24.7651 14.8502 24.9935C14.9448 25.2219 15.105 25.4171 15.3106 25.5545C15.5162 25.6918 15.7578 25.7651 16.0051 25.7651C16.2523 25.7651 16.494 25.6918 16.6995 25.5545C16.9051 25.4171 17.0653 25.2219 17.1599 24.9935C17.2545 24.7651 17.2793 24.5137 17.231 24.2712C17.1828 24.0288 17.0638 23.806 16.8889 23.6312C16.6545 23.3968 16.3366 23.2651 16.0051 23.2651C15.6735 23.2651 15.3556 23.3968 15.1212 23.6312Z" fill="black"/>
<path d="M11.7775 19.9576C11.706 20.0262 11.6489 20.1083 11.6093 20.1991C11.5697 20.29 11.5486 20.3877 11.547 20.4868C11.5455 20.5859 11.5636 20.6843 11.6003 20.7763C11.6369 20.8683 11.6915 20.9522 11.7608 21.023C11.8301 21.0938 11.9127 21.1502 12.0039 21.1889C12.0951 21.2277 12.193 21.2479 12.2921 21.2486C12.3912 21.2492 12.4894 21.2302 12.5811 21.1927C12.6728 21.1551 12.7561 21.0998 12.8263 21.0299C13.6778 20.2067 14.8158 19.7466 16.0001 19.7466C17.1845 19.7466 18.3224 20.2067 19.174 21.0299C19.3166 21.1667 19.5075 21.2417 19.7051 21.2385C19.9027 21.2354 20.0911 21.1543 20.2293 21.013C20.3675 20.8717 20.4444 20.6816 20.4431 20.484C20.4419 20.2863 20.3627 20.0972 20.2228 19.9576C19.0901 18.862 17.576 18.2496 16.0001 18.2496C14.4243 18.2496 12.9102 18.862 11.7775 19.9576Z" fill="black"/>
<path d="M7.53627 15.6793C7.46481 15.7479 7.40765 15.83 7.36809 15.9208C7.32854 16.0117 7.30737 16.1094 7.30582 16.2085C7.30427 16.3076 7.32236 16.4059 7.35904 16.498C7.39573 16.59 7.45029 16.6739 7.51957 16.7447C7.58885 16.8155 7.67147 16.8719 7.76267 16.9106C7.85387 16.9493 7.95184 16.9696 8.05091 16.9702C8.14998 16.9709 8.2482 16.9519 8.33989 16.9143C8.43158 16.8768 8.51492 16.8215 8.5851 16.7515C10.5743 14.8282 13.2331 13.753 16.0001 13.753C18.7672 13.753 21.4259 14.8282 23.4152 16.7515C23.5577 16.8889 23.7488 16.9643 23.9467 16.9613C24.1446 16.9584 24.3333 16.8773 24.4717 16.7359C24.6101 16.5944 24.687 16.4039 24.6855 16.206C24.6841 16.0081 24.6045 15.8187 24.464 15.6793C22.1932 13.4843 19.1584 12.2574 16.0002 12.2574C12.8419 12.2574 9.80714 13.4843 7.53627 15.6793Z" fill="black"/>
<path d="M28.5246 11.3248C25.1648 8.07566 20.6739 6.25934 16.0001 6.25934C11.3263 6.25934 6.83544 8.07566 3.47572 11.3248C3.33611 11.4644 3.25719 11.6535 3.25611 11.8509C3.25503 12.0484 3.33187 12.2383 3.46996 12.3795C3.60804 12.5207 3.79622 12.6017 3.99366 12.6049C4.1911 12.6082 4.38186 12.5335 4.52455 12.397C7.60311 9.42033 11.7178 7.75636 16.0001 7.75636C20.2824 7.75636 24.3972 9.42033 27.4757 12.397C27.6183 12.5339 27.8092 12.609 28.0069 12.6059C28.2046 12.6028 28.3931 12.5218 28.5313 12.3804C28.6696 12.2391 28.7464 12.0489 28.7452 11.8512C28.7439 11.6535 28.6646 11.4643 28.5246 11.3248Z" fill="black"/>
</svg>
