<svg xmlns="http://www.w3.org/2000/svg" width="32" height="32" viewBox="0 0 32 32"><path d="M15.2979 23.8078C15.2024 23.9001 15.1262 24.0104 15.0738 24.1324C15.0214 24.2544 14.9938 24.3857 14.9926 24.5184C14.9915 24.6512 15.0168 24.7829 15.0671 24.9058C15.1173 25.0287 15.1916 25.1403 15.2855 25.2342C15.3794 25.3281 15.491 25.4024 15.6139 25.4527C15.7368 25.5029 15.8685 25.5282 16.0013 25.5271C16.1341 25.5259 16.2653 25.4984 16.3873 25.4459C16.5093 25.3935 16.6196 25.3174 16.7119 25.2218C16.894 25.0332 16.9948 24.7806 16.9925 24.5184C16.9903 24.2562 16.8851 24.0054 16.6997 23.82C16.5143 23.6346 16.2635 23.5294 16.0013 23.5272C15.7391 23.5249 15.4865 23.6257 15.2979 23.8078ZM11.9519 20.1358C11.8924 20.1933 11.8481 20.2645 11.8228 20.3432C11.7975 20.4219 11.792 20.5057 11.8068 20.587C11.8217 20.6683 11.8564 20.7447 11.9078 20.8094C11.9593 20.8741 12.026 20.9251 12.1019 20.9578C12.1938 20.997 12.2952 21.0077 12.3933 20.9886C12.4913 20.9696 12.5814 20.9216 12.6519 20.8508C13.5505 19.9829 14.751 19.4978 16.0004 19.4978C17.2497 19.4978 18.4502 19.9829 19.3489 20.8508C19.4441 20.9415 19.5712 20.991 19.7026 20.9887C19.8341 20.9863 19.9593 20.9323 20.0512 20.8383C20.1431 20.7443 20.1943 20.6178 20.1937 20.4864C20.193 20.3549 20.1407 20.229 20.0479 20.1358C18.9617 19.0862 17.5103 18.4994 15.9999 18.4994C14.4894 18.4994 13.038 19.0862 11.9519 20.1358ZM7.70988 15.8578C7.66293 15.9038 7.62549 15.9586 7.59971 16.019C7.57392 16.0794 7.56029 16.1443 7.5596 16.21C7.5589 16.2757 7.57115 16.3409 7.59565 16.4019C7.62015 16.4629 7.65641 16.5184 7.70238 16.5653C7.74834 16.6123 7.8031 16.6497 7.86353 16.6755C7.92396 16.7013 7.98888 16.7149 8.05457 16.7156C8.12027 16.7163 8.18546 16.7041 8.24643 16.6796C8.30739 16.6551 8.36293 16.6188 8.40988 16.5728C10.4461 14.6043 13.1676 13.5038 15.9999 13.5038C18.8321 13.5038 21.5536 14.6043 23.5899 16.5728C23.6862 16.6577 23.8113 16.7023 23.9395 16.6976C24.0678 16.6928 24.1893 16.6391 24.279 16.5474C24.3688 16.4557 24.42 16.3331 24.422 16.2048C24.424 16.0765 24.3767 15.9523 24.2899 15.8578C22.0659 13.7075 19.0934 12.5054 15.9999 12.5054C12.9063 12.5054 9.93381 13.7075 7.70988 15.8578Z M28.3502 11.5042C25.0374 8.30002 20.609 6.50879 16.0002 6.50879C11.3914 6.50879 6.96299 8.30002 3.65022 11.5042C3.60224 11.5499 3.56383 11.6047 3.53722 11.6654C3.51061 11.726 3.49632 11.7914 3.49519 11.8577C3.49406 11.9239 3.50611 11.9897 3.53064 12.0513C3.55517 12.1128 3.59169 12.1689 3.63808 12.2162C3.68447 12.2635 3.7398 12.3012 3.80086 12.3269C3.86191 12.3527 3.92748 12.366 3.99374 12.3662C4.06 12.3664 4.12564 12.3534 4.18683 12.328C4.24803 12.3026 4.30357 12.2652 4.35022 12.2182C7.47533 9.19583 11.6527 7.50627 16.0002 7.50627C20.3477 7.50627 24.5251 9.19583 27.6502 12.2182C27.7453 12.3088 27.8723 12.3584 28.0036 12.3561C28.135 12.3539 28.2602 12.3 28.3522 12.2062C28.4441 12.1124 28.4955 11.9862 28.4951 11.8548C28.4948 11.7234 28.4427 11.5975 28.3502 11.5042Z"/></svg>