<svg xmlns="http://www.w3.org/2000/svg" width="32" height="32" viewBox="0 0 32 32"><path d="M16.0048 26.0149C16.4026 26.0149 16.7842 25.8569 17.0655 25.5755C17.3468 25.2942 17.5048 24.9127 17.5048 24.5149C17.5048 24.1171 17.3468 23.7355 17.0655 23.4542C16.7842 23.1729 16.4026 23.0149 16.0048 23.0149C15.607 23.0149 15.2255 23.1729 14.9442 23.4542C14.6629 23.7355 14.5048 24.1171 14.5048 24.5149C14.5048 24.9127 14.6629 25.2942 14.9442 25.5755C15.2255 25.8569 15.607 26.0149 16.0048 26.0149ZM11.6028 19.7789C11.5089 19.8706 11.434 19.9799 11.3824 20.1006C11.3307 20.2213 11.3034 20.351 11.3018 20.4822C11.3003 20.6135 11.3246 20.7437 11.3734 20.8656C11.4223 20.9874 11.4946 21.0985 11.5863 21.1924C11.678 21.2863 11.7874 21.3612 11.9081 21.4128C12.0287 21.4645 12.1584 21.4919 12.2897 21.4934C12.4209 21.4949 12.5512 21.4706 12.673 21.4218C12.7949 21.373 12.9059 21.3006 12.9998 21.2089C13.8043 20.4309 14.8797 19.9959 15.9988 19.9959C17.118 19.9959 18.1933 20.4309 18.9978 21.2089C19.1874 21.3944 19.443 21.497 19.7083 21.4941C19.9736 21.4912 20.2268 21.383 20.4123 21.1934C20.5978 21.0038 20.7004 20.7482 20.6975 20.4829C20.6946 20.2177 20.5864 19.9644 20.3968 19.7789C19.2173 18.6379 17.6404 18.0001 15.9993 18.0001C14.3582 18.0001 12.7814 18.6379 11.6018 19.7789H11.6028ZM7.36082 15.4999C7.26693 15.5917 7.19204 15.7012 7.14045 15.822C7.08885 15.9428 7.06156 16.0726 7.06012 16.2039C7.05868 16.3353 7.08312 16.4656 7.13206 16.5875C7.181 16.7094 7.25346 16.8205 7.34532 16.9144C7.43718 17.0083 7.54663 17.0832 7.66743 17.1348C7.78823 17.1864 7.91801 17.2136 8.04936 17.2151C8.18071 17.2165 8.31106 17.1921 8.43296 17.1431C8.55486 17.0942 8.66593 17.0217 8.75982 16.9299C10.7026 15.0529 13.2984 14.0038 15.9998 14.0038C18.7012 14.0038 21.297 15.0529 23.2398 16.9299C23.3337 17.0217 23.4448 17.0942 23.5667 17.1431C23.6886 17.1921 23.8189 17.2165 23.9503 17.2151C24.0816 17.2136 24.2114 17.1864 24.3322 17.1348C24.453 17.0832 24.5625 17.0083 24.6543 16.9144C24.7462 16.8205 24.8186 16.7094 24.8676 16.5875C24.9165 16.4656 24.941 16.3353 24.9395 16.2039C24.9381 16.0726 24.9108 15.9428 24.8592 15.822C24.8076 15.7012 24.7327 15.5917 24.6388 15.4999C22.3214 13.2587 19.2237 12.0059 15.9998 12.0059C12.776 12.0059 9.67825 13.2587 7.36082 15.4999Z M28.7001 11.1462C25.2932 7.85184 20.7394 6.01025 16.0001 6.01025C11.2609 6.01025 6.70709 7.85184 3.30012 11.1462C3.11049 11.3319 3.00238 11.5852 2.99957 11.8506C2.99675 12.116 3.09947 12.3716 3.28512 12.5612C3.47078 12.7508 3.72415 12.859 3.98952 12.8618C4.25488 12.8646 4.51049 12.7619 4.70012 12.5762C7.73164 9.64523 11.7834 8.00682 16.0001 8.00682C20.2168 8.00682 24.2686 9.64523 27.3001 12.5762C27.4898 12.7619 27.7454 12.8646 28.0107 12.8618C28.2761 12.859 28.5295 12.7508 28.7151 12.5612C28.9008 12.3716 29.0035 12.116 29.0007 11.8506C28.9979 11.5852 28.8898 11.3319 28.7001 11.1462Z"/></svg>