<svg width="32" height="32" viewBox="0 0 32 32" xmlns="http://www.w3.org/2000/svg">
<g>
<path d="M16.0051 26.0151C16.8335 26.0151 17.5051 25.3435 17.5051 24.5151C17.5051 23.6867 16.8335 23.0151 16.0051 23.0151C15.1767 23.0151 14.5051 23.6867 14.5051 24.5151C14.5051 25.3435 15.1767 26.0151 16.0051 26.0151Z"/>
<path d="M28.6993 11.1458C25.2924 7.85196 20.7389 6.01074 16.0001 6.01074C11.2613 6.01074 6.70785 7.85196 3.30089 11.1458C3.20559 11.2372 3.12936 11.3467 3.0766 11.4678C3.02384 11.5889 2.99561 11.7193 2.99353 11.8514C2.99145 11.9835 3.01557 12.1147 3.06449 12.2374C3.1134 12.3602 3.18615 12.472 3.27853 12.5664C3.37091 12.6609 3.48109 12.7361 3.6027 12.7877C3.72431 12.8393 3.85494 12.8663 3.98705 12.8671C4.11916 12.868 4.25012 12.8426 4.37238 12.7926C4.49464 12.7425 4.60576 12.6687 4.69933 12.5754C7.73088 9.6439 11.783 8.00513 16.0001 8.00513C20.2172 8.00513 24.2694 9.6439 27.3009 12.5754C27.4911 12.758 27.7456 12.8581 28.0091 12.8539C28.2727 12.8498 28.524 12.7417 28.7083 12.5533C28.8926 12.3649 28.9951 12.1113 28.9934 11.8477C28.9917 11.5841 28.886 11.3318 28.6993 11.1458Z" fill="black" fill-opacity="0.2"/>
<path d="M7.36146 15.5005C7.2661 15.592 7.18982 15.7014 7.13701 15.8226C7.08421 15.9437 7.05594 16.0741 7.05384 16.2062C7.05173 16.3383 7.07584 16.4696 7.12475 16.5923C7.17367 16.7151 7.24643 16.8269 7.33883 16.9214C7.43123 17.0159 7.54144 17.0911 7.66308 17.1427C7.78473 17.1943 7.91539 17.2213 8.04753 17.2221C8.17967 17.2229 8.31066 17.1976 8.43293 17.1475C8.55521 17.0973 8.66633 17.0235 8.75989 16.9302C10.7026 15.0528 13.2985 14.0034 16.0001 14.0034C18.7017 14.0034 21.2977 15.0528 23.2404 16.9302C23.4305 17.1127 23.6851 17.2128 23.9486 17.2086C24.2122 17.2045 24.4634 17.0965 24.6478 16.908C24.8321 16.7196 24.9345 16.466 24.9329 16.2024C24.9312 15.9388 24.8255 15.6866 24.6388 15.5005C22.3214 13.2595 19.2238 12.0068 16.0001 12.0068C12.7764 12.0068 9.67888 13.2595 7.36146 15.5005Z" fill="black" fill-opacity="0.2"/>
<path d="M11.3782 20.1011C11.431 19.98 11.5073 19.8705 11.6027 19.7791C12.7821 18.6379 14.359 18 16.0001 18C17.6413 18 19.2181 18.6379 20.3976 19.7791C20.5843 19.9651 20.69 20.2174 20.6916 20.481C20.6933 20.7446 20.5909 20.9982 20.4065 21.1866C20.2222 21.375 19.971 21.4831 19.7074 21.4872C19.4438 21.4914 19.1893 21.3913 18.9992 21.2087C18.1946 20.4308 17.1193 19.9959 16.0001 19.9959C14.881 19.9959 13.8056 20.4308 13.0011 21.2087C12.9075 21.3021 12.7964 21.3759 12.6741 21.426C12.5519 21.4761 12.4209 21.5015 12.2887 21.5007C12.1566 21.4999 12.0259 21.4729 11.9043 21.4213C11.7826 21.3696 11.6724 21.2944 11.58 21.2C11.4876 21.1055 11.4149 20.9937 11.366 20.8709C11.317 20.7481 11.2929 20.6169 11.295 20.4848C11.2972 20.3527 11.3254 20.2223 11.3782 20.1011Z" fill="black" fill-opacity="0.2"/>
</g>
</svg>
