<svg width="32" height="32" viewBox="0 0 32 32" fill="none" xmlns="http://www.w3.org/2000/svg">
<path d="M29.5186 12.1353L24.5323 3.13239L24.5235 3.11774C24.3688 2.85249 24.147 2.63263 23.8804 2.48024C23.6138 2.32785 23.3118 2.24831 23.0047 2.2496C22.6976 2.25088 22.3963 2.33296 22.131 2.48757C21.8657 2.64219 21.6457 2.8639 21.4932 3.13044L16.4883 12.1207C16.3333 12.3866 16.2511 12.6887 16.2501 12.9966C16.2492 13.3044 16.3294 13.6071 16.4827 13.874C16.636 14.1409 16.857 14.3627 17.1234 14.5169C17.3899 14.6712 17.6922 14.7524 18.0001 14.7525H27.9981C28.3045 14.7524 28.6055 14.6719 28.871 14.519C29.1365 14.3661 29.3573 14.1462 29.5112 13.8813C29.6651 13.6164 29.7468 13.3157 29.7481 13.0093C29.7494 12.7029 29.6703 12.4015 29.5186 12.1353ZM28.2149 13.1265C28.1938 13.1654 28.1624 13.1977 28.1241 13.2199C28.0859 13.2421 28.0423 13.2534 27.9981 13.2525H18.0001C17.9559 13.2533 17.9124 13.2419 17.8742 13.2197C17.836 13.1975 17.8045 13.1653 17.7833 13.1265C17.76 13.0864 17.7484 13.0405 17.7498 12.9941C17.7511 12.9477 17.7655 12.9026 17.7911 12.8638L22.796 3.8736C22.8178 3.83627 22.849 3.80523 22.8864 3.7835C22.9238 3.76177 22.9662 3.75009 23.0094 3.7496C23.0527 3.7491 23.0953 3.75982 23.1332 3.78069C23.1711 3.80157 23.2029 3.83189 23.2256 3.86872L28.2149 12.8765C28.2379 12.9142 28.2501 12.9574 28.2501 13.0015C28.2501 13.0456 28.2379 13.0889 28.2149 13.1265Z" fill="black"/>
<path d="M22.9991 9.50251C23.198 9.50246 23.3887 9.42342 23.5294 9.28278C23.67 9.14214 23.749 8.95141 23.7491 8.75251V7.44392C23.7491 7.24501 23.6701 7.05424 23.5294 6.91359C23.3888 6.77294 23.198 6.69392 22.9991 6.69392C22.8002 6.69392 22.6094 6.77294 22.4687 6.91359C22.3281 7.05424 22.2491 7.24501 22.2491 7.44392V8.75251C22.2491 8.95141 22.3282 9.14214 22.4688 9.28278C22.6094 9.42342 22.8002 9.50246 22.9991 9.50251Z" fill="black"/>
<path d="M22.9992 12.0021C23.4134 12.0021 23.7492 11.6663 23.7492 11.2521C23.7492 10.8379 23.4134 10.5021 22.9992 10.5021C22.585 10.5021 22.2492 10.8379 22.2492 11.2521C22.2492 11.6663 22.585 12.0021 22.9992 12.0021Z" fill="black"/>
<path d="M15.1211 23.6312C14.9463 23.806 14.8272 24.0287 14.779 24.2712C14.7308 24.5137 14.7555 24.765 14.8501 24.9934C14.9447 25.2218 15.1049 25.417 15.3105 25.5544C15.5161 25.6917 15.7577 25.7651 16.005 25.7651C16.2522 25.7651 16.4939 25.6917 16.6994 25.5544C16.905 25.417 17.0652 25.2218 17.1598 24.9934C17.2544 24.765 17.2792 24.5137 17.2309 24.2712C17.1827 24.0287 17.0637 23.806 16.8888 23.6312C16.6544 23.3968 16.3365 23.2651 16.005 23.2651C15.6735 23.2651 15.3555 23.3968 15.1211 23.6312Z" fill="black"/>
<path d="M11.7774 19.9576C11.7059 20.0262 11.6487 20.1083 11.6091 20.1992C11.5695 20.29 11.5483 20.3878 11.5467 20.4869C11.5451 20.586 11.5632 20.6844 11.5999 20.7765C11.6366 20.8685 11.6911 20.9524 11.7604 21.0233C11.8297 21.0941 11.9124 21.1505 12.0036 21.1892C12.0949 21.228 12.1929 21.2482 12.292 21.2488C12.3911 21.2494 12.4893 21.2304 12.581 21.1928C12.6727 21.1552 12.7561 21.0998 12.8262 21.0299C13.6778 20.2067 14.8157 19.7467 16.0001 19.7467C17.1844 19.7467 18.3224 20.2067 19.1739 21.0299C19.244 21.0999 19.3274 21.1553 19.4191 21.193C19.5108 21.2306 19.6091 21.2497 19.7082 21.2491C19.8074 21.2485 19.9054 21.2282 19.9967 21.1895C20.0879 21.1508 20.1706 21.0944 20.2399 21.0235C20.3093 20.9526 20.3638 20.8687 20.4005 20.7766C20.4372 20.6845 20.4553 20.5861 20.4537 20.487C20.4521 20.3878 20.4308 20.29 20.3912 20.1992C20.3516 20.1083 20.2943 20.0262 20.2227 19.9576C19.09 18.862 17.5759 18.2496 16.0001 18.2496C14.4242 18.2496 12.9101 18.862 11.7774 19.9576Z" fill="black"/>
<path d="M13.9825 13.1529C13.9341 12.9603 13.8117 12.7946 13.6418 12.6916C13.472 12.5887 13.2684 12.5569 13.0752 12.6031C10.9871 13.1148 9.07431 14.1771 7.53619 15.6793C7.46467 15.7479 7.40745 15.83 7.36785 15.9208C7.32825 16.0117 7.30705 16.1095 7.30547 16.2086C7.30389 16.3077 7.32197 16.4061 7.35866 16.4982C7.39534 16.5902 7.44992 16.6741 7.51922 16.745C7.58852 16.8158 7.67117 16.8722 7.76241 16.9109C7.85364 16.9496 7.95164 16.9699 8.05075 16.9705C8.14985 16.9711 8.2481 16.9521 8.3398 16.9145C8.4315 16.8769 8.51485 16.8215 8.58502 16.7515C9.931 15.4368 11.6051 14.5074 13.4327 14.0601C13.6259 14.0127 13.7923 13.8905 13.8955 13.7204C13.9986 13.5502 14.0299 13.3461 13.9825 13.1529Z" fill="black"/>
<path d="M16.252 7.75153C16.4509 7.75295 16.6423 7.6753 16.7839 7.53566C16.9256 7.39601 17.006 7.20581 17.0074 7.0069C17.0088 6.80799 16.9312 6.61666 16.7915 6.475C16.6519 6.33334 16.4617 6.25295 16.2627 6.25153C13.9025 6.20998 11.5575 6.63698 9.36347 7.5078C7.16939 8.37863 5.16983 9.67598 3.48053 11.3248C3.40876 11.3933 3.35131 11.4754 3.3115 11.5663C3.2717 11.6573 3.25033 11.7552 3.24864 11.8544C3.24696 11.9536 3.26498 12.0522 3.30167 12.1444C3.33836 12.2366 3.39299 12.3207 3.46239 12.3916C3.53179 12.4625 3.61457 12.519 3.70596 12.5577C3.79734 12.5964 3.8955 12.6166 3.99474 12.6171C4.09398 12.6176 4.19234 12.5984 4.28411 12.5607C4.37588 12.5229 4.45923 12.4672 4.52935 12.397C7.59213 9.399 11.7133 7.72916 15.9991 7.74958C16.084 7.74958 16.1836 7.74567 16.252 7.75153Z" fill="black"/>
</svg>
