<svg width="32" height="32" viewBox="0 0 32 32" fill="none" xmlns="http://www.w3.org/2000/svg">
<path d="M29.2999 12.2564L24.3135 3.25349L24.3077 3.24372C24.1752 3.01655 23.9853 2.82821 23.7571 2.6976C23.5288 2.56699 23.2703 2.4987 23.0073 2.49959C22.7443 2.50048 22.4862 2.57052 22.2589 2.70267C22.0315 2.83482 21.8429 3.02445 21.712 3.25251L16.7042 12.2466C16.5714 12.4746 16.5011 12.7336 16.5003 12.9974C16.4995 13.2612 16.5683 13.5206 16.6997 13.7494C16.8311 13.9781 17.0205 14.1682 17.2488 14.3004C17.4771 14.4326 17.7362 14.5024 18.0001 14.5025H27.9981C28.261 14.5025 28.5193 14.4334 28.7471 14.3021C28.9749 14.1708 29.1642 13.982 29.296 13.7545C29.4279 13.527 29.4976 13.2689 29.4983 13.006C29.4989 12.743 29.4306 12.4846 29.2999 12.2564ZM28.4317 13.2515C28.3887 13.3285 28.3257 13.3924 28.2494 13.4366C28.1731 13.4808 28.0863 13.5035 27.9981 13.5025H18.0001C17.912 13.5034 17.8252 13.4805 17.749 13.4364C17.6727 13.3922 17.6097 13.3284 17.5665 13.2515C17.5214 13.174 17.4981 13.0856 17.4991 12.9958C17.5001 12.9061 17.5255 12.8183 17.5724 12.7418L22.5802 3.74763C22.624 3.67248 22.6867 3.61007 22.762 3.56657C22.8374 3.52307 22.9227 3.49998 23.0097 3.49959C23.0967 3.49919 23.1823 3.5215 23.258 3.56432C23.3338 3.60714 23.397 3.66897 23.4415 3.74372L28.4308 12.7506C28.4759 12.8263 28.4998 12.9128 28.4999 13.0009C28.5001 13.0891 28.4765 13.1756 28.4317 13.2515Z" fill="black"/>
<path d="M22.9991 9.25251C23.0648 9.25255 23.1298 9.23964 23.1905 9.21453C23.2512 9.18941 23.3063 9.15259 23.3527 9.10615C23.3992 9.05971 23.436 9.00458 23.4611 8.9439C23.4862 8.88322 23.4991 8.81818 23.4991 8.75251V7.44392C23.4991 7.31131 23.4464 7.18414 23.3526 7.09037C23.2589 6.9966 23.1317 6.94392 22.9991 6.94392C22.8665 6.94392 22.7393 6.9966 22.6455 7.09037C22.5518 7.18414 22.4991 7.31131 22.4991 7.44392V8.75251C22.4991 8.81818 22.512 8.88322 22.5371 8.9439C22.5622 9.00458 22.599 9.05971 22.6455 9.10615C22.6919 9.15259 22.747 9.18941 22.8077 9.21453C22.8684 9.23964 22.9334 9.25255 22.9991 9.25251Z" fill="black"/>
<path d="M22.9992 11.7521C23.2754 11.7521 23.4992 11.5282 23.4992 11.2521C23.4992 10.9759 23.2754 10.7521 22.9992 10.7521C22.7231 10.7521 22.4992 10.9759 22.4992 11.2521C22.4992 11.5282 22.7231 11.7521 22.9992 11.7521Z" fill="black"/>
<path d="M15.2979 23.808C15.158 23.9479 15.0628 24.126 15.0242 24.32C14.9856 24.514 15.0054 24.7151 15.0811 24.8978C15.1568 25.0805 15.285 25.2367 15.4494 25.3466C15.6139 25.4564 15.8072 25.5151 16.005 25.5151C16.2028 25.5151 16.3961 25.4564 16.5605 25.3466C16.725 25.2367 16.8532 25.0805 16.9289 24.8978C17.0045 24.7151 17.0244 24.514 16.9858 24.32C16.9472 24.126 16.8519 23.9479 16.7121 23.808C16.6192 23.7151 16.509 23.6415 16.3877 23.5912C16.2663 23.541 16.1363 23.5151 16.005 23.5151C15.8737 23.5151 15.7436 23.541 15.6223 23.5912C15.501 23.6415 15.3907 23.7151 15.2979 23.808Z" fill="black"/>
<path d="M11.9522 20.1363C11.9045 20.182 11.8663 20.2368 11.8398 20.2973C11.8134 20.3579 11.7992 20.4231 11.7982 20.4892C11.7971 20.5553 11.8091 20.621 11.8336 20.6824C11.858 20.7438 11.8944 20.7997 11.9407 20.847C11.9869 20.8943 12.042 20.9319 12.1029 20.9577C12.1637 20.9835 12.2291 20.997 12.2952 20.9974C12.3613 20.9977 12.4268 20.985 12.4879 20.9599C12.5491 20.9348 12.6047 20.8979 12.6514 20.8511C13.55 19.9829 14.7506 19.4976 16.0001 19.4976C17.2495 19.4976 18.4502 19.9829 19.3487 20.8511C19.4422 20.9424 19.5676 20.9936 19.6983 20.9937C19.7977 20.9937 19.8948 20.9641 19.9772 20.9087C20.0597 20.8532 20.1238 20.7745 20.1613 20.6825C20.1988 20.5905 20.208 20.4894 20.1878 20.3921C20.1677 20.2948 20.1189 20.2058 20.0479 20.1363C18.9618 19.0867 17.5105 18.5001 16.0001 18.5001C14.4897 18.5001 13.0383 19.0867 11.9522 20.1363Z" fill="black"/>
<path d="M13.7393 13.2125C13.724 13.1486 13.6961 13.0883 13.6574 13.0352C13.6186 12.9822 13.5697 12.9373 13.5135 12.9032C13.4573 12.8692 13.3949 12.8466 13.3299 12.8368C13.2649 12.827 13.1986 12.8303 13.1348 12.8463C11.0901 13.3472 9.21715 14.3872 7.71097 15.858C7.66324 15.9037 7.62504 15.9585 7.5986 16.019C7.57215 16.0796 7.55798 16.1448 7.55691 16.2109C7.55583 16.277 7.56787 16.3427 7.59233 16.4041C7.61679 16.4655 7.65318 16.5214 7.6994 16.5687C7.74562 16.616 7.80076 16.6536 7.86161 16.6794C7.92246 16.7052 7.98783 16.7187 8.05393 16.7191C8.12003 16.7195 8.18555 16.7067 8.2467 16.6816C8.30785 16.6565 8.36341 16.6196 8.41018 16.5728C9.78839 15.2271 11.5022 14.2754 13.3731 13.817C13.4369 13.8015 13.4971 13.7736 13.5501 13.7347C13.6031 13.6959 13.6479 13.647 13.6819 13.5909C13.7159 13.5347 13.7385 13.4723 13.7484 13.4074C13.7582 13.3425 13.7552 13.2762 13.7393 13.2125Z" fill="black"/>
<path d="M16.252 7.50153C16.3846 7.50244 16.5122 7.45063 16.6066 7.3575C16.701 7.26437 16.7545 7.13756 16.7554 7.00495C16.7563 6.87234 16.7045 6.7448 16.6114 6.6504C16.5183 6.55599 16.3915 6.50244 16.2589 6.50153C16.1719 6.50053 16.086 6.49958 15.9991 6.49958C11.3863 6.47815 6.9511 8.2761 3.65534 11.5035C3.60766 11.5492 3.56952 11.604 3.54312 11.6645C3.51672 11.7251 3.50258 11.7903 3.50153 11.8564C3.50048 11.9224 3.51253 11.988 3.53699 12.0494C3.56145 12.1108 3.59783 12.1667 3.64403 12.2139C3.69023 12.2612 3.74533 12.2988 3.80615 12.3246C3.86698 12.3504 3.93231 12.3639 3.99838 12.3643C4.06445 12.3647 4.12995 12.352 4.19108 12.327C4.25222 12.3019 4.30778 12.265 4.35456 12.2183C7.46375 9.17416 11.6478 7.47863 15.9991 7.49958C16.0832 7.48998 16.1681 7.49063 16.252 7.50153Z" fill="black"/>
</svg>
