<svg width="32" height="32" viewBox="0 0 32 32" fill="none" xmlns="http://www.w3.org/2000/svg">
<path d="M16.005 26.0151C16.8335 26.0151 17.505 25.3435 17.505 24.5151C17.505 23.6867 16.8335 23.0151 16.005 23.0151C15.1766 23.0151 14.5051 23.6867 14.5051 24.5151C14.5051 25.3435 15.1766 26.0151 16.005 26.0151Z" fill="#0F0F0F"/>
<path d="M11.6027 19.7789C11.5073 19.8703 11.431 19.9798 11.3782 20.1009C11.3254 20.2221 11.2972 20.3525 11.295 20.4846C11.2929 20.6167 11.317 20.748 11.366 20.8707C11.4149 20.9935 11.4876 21.1053 11.58 21.1998C11.6724 21.2942 11.7826 21.3695 11.9043 21.4211C12.0259 21.4727 12.1566 21.4997 12.2887 21.5005C12.4209 21.5013 12.5519 21.4759 12.6741 21.4258C12.7964 21.3757 12.9075 21.3019 13.0011 21.2086C13.8056 20.4306 14.881 19.9957 16.0001 19.9957C17.1193 19.9957 18.1946 20.4306 18.9992 21.2086C19.1893 21.3911 19.4438 21.4912 19.7074 21.487C19.971 21.4829 20.2222 21.3748 20.4065 21.1864C20.5909 20.998 20.6933 20.7444 20.6916 20.4808C20.69 20.2172 20.5843 19.9649 20.3976 19.7789C19.2181 18.6378 17.6413 17.9998 16.0001 17.9998C14.359 17.9998 12.7821 18.6378 11.6027 19.7789Z" fill="#0F0F0F"/>
<path d="M16.0001 6.01074C20.7389 6.01074 25.2924 7.85196 28.6993 11.1458C28.886 11.3318 28.9917 11.5841 28.9934 11.8477C28.9951 12.1113 28.8926 12.3649 28.7083 12.5533C28.524 12.7417 28.2727 12.8498 28.0091 12.8539C27.7456 12.8581 27.4911 12.758 27.3009 12.5754C24.2694 9.6439 20.2172 8.00513 16.0001 8.00513C11.783 8.00513 7.73088 9.6439 4.69933 12.5754C4.60576 12.6687 4.49464 12.7425 4.37238 12.7926C4.25012 12.8426 4.11916 12.868 3.98705 12.8671C3.85494 12.8663 3.72431 12.8393 3.6027 12.7877C3.48109 12.7361 3.37091 12.6609 3.27853 12.5664C3.18615 12.472 3.1134 12.3602 3.06449 12.2374C3.01557 12.1147 2.99145 11.9835 2.99353 11.8514C2.99561 11.7193 3.02384 11.5889 3.0766 11.4678C3.12936 11.3467 3.20559 11.2372 3.30089 11.1458C6.70785 7.85196 11.2613 6.01074 16.0001 6.01074Z" fill="black" fill-opacity="0.2"/>
<path d="M7.13701 15.8226C7.18982 15.7014 7.2661 15.592 7.36146 15.5005C9.67888 13.2595 12.7764 12.0068 16.0001 12.0068C19.2238 12.0068 22.3214 13.2595 24.6388 15.5005C24.8255 15.6866 24.9312 15.9388 24.9329 16.2024C24.9345 16.466 24.8321 16.7196 24.6478 16.908C24.4634 17.0965 24.2122 17.2045 23.9486 17.2086C23.6851 17.2128 23.4305 17.1127 23.2404 16.9302C21.2977 15.0528 18.7017 14.0034 16.0001 14.0034C13.2985 14.0034 10.7026 15.0528 8.75989 16.9302C8.66633 17.0235 8.55521 17.0973 8.43293 17.1475C8.31066 17.1976 8.17967 17.2229 8.04753 17.2221C7.91539 17.2213 7.78473 17.1943 7.66308 17.1427C7.54144 17.0911 7.43123 17.0159 7.33883 16.9214C7.24643 16.8269 7.17367 16.7151 7.12475 16.5923C7.07584 16.4696 7.05173 16.3383 7.05384 16.2062C7.05594 16.0741 7.08421 15.9437 7.13701 15.8226Z" fill="black" fill-opacity="0.2"/>
</svg>
