<svg width="32" height="32" viewBox="0 0 32 32" fill="none" xmlns="http://www.w3.org/2000/svg">
<path d="M16.005 26.0151C16.8334 26.0151 17.505 25.3435 17.505 24.5151C17.505 23.6867 16.8334 23.0151 16.005 23.0151C15.1766 23.0151 14.505 23.6867 14.505 24.5151C14.505 25.3435 15.1766 26.0151 16.005 26.0151Z" fill="black"/>
<path d="M11.6027 19.7789C11.5073 19.8703 11.431 19.9798 11.3782 20.1009C11.3254 20.2221 11.2971 20.3525 11.295 20.4846C11.2929 20.6167 11.317 20.748 11.3659 20.8707C11.4149 20.9935 11.4876 21.1053 11.58 21.1998C11.6724 21.2942 11.7826 21.3695 11.9043 21.4211C12.0259 21.4727 12.1566 21.4997 12.2887 21.5005C12.4209 21.5013 12.5519 21.4759 12.6741 21.4258C12.7964 21.3757 12.9075 21.3019 13.0011 21.2086C13.8056 20.4306 14.881 19.9957 16.0001 19.9957C17.1193 19.9957 18.1946 20.4306 18.9991 21.2086C19.1893 21.3911 19.4438 21.4912 19.7074 21.487C19.9709 21.4829 20.2222 21.3748 20.4065 21.1864C20.5908 20.998 20.6933 20.7444 20.6916 20.4808C20.69 20.2172 20.5843 19.9649 20.3976 19.7789C19.2181 18.6378 17.6412 17.9998 16.0001 17.9998C14.359 17.9998 12.7821 18.6378 11.6027 19.7789Z" fill="black"/>
<path d="M7.36145 15.5005C7.26608 15.592 7.1898 15.7015 7.137 15.8226C7.08419 15.9438 7.05592 16.0742 7.05382 16.2063C7.05171 16.3384 7.07582 16.4696 7.12473 16.5924C7.17365 16.7152 7.24641 16.827 7.33881 16.9215C7.43121 17.0159 7.54142 17.0911 7.66306 17.1428C7.78471 17.1944 7.91537 17.2214 8.04751 17.2222C8.17965 17.223 8.31064 17.1976 8.43292 17.1475C8.55519 17.0974 8.66632 17.0236 8.75988 16.9302C10.7026 15.0529 13.2985 14.0035 16.0001 14.0035C18.7017 14.0035 21.2977 15.0529 23.2403 16.9302C23.4305 17.1128 23.685 17.2129 23.9486 17.2087C24.2122 17.2046 24.4634 17.0965 24.6477 16.9081C24.8321 16.7196 24.9345 16.4661 24.9328 16.2025C24.9312 15.9389 24.8255 15.6866 24.6388 15.5005C22.3214 13.2596 19.2238 12.0069 16.0001 12.0069C12.7764 12.0069 9.67887 13.2596 7.36145 15.5005Z" fill="black"/>
<path d="M28.6993 11.1461C25.2924 7.85226 20.7389 6.01105 16.0001 6.01105C11.2613 6.01105 6.70785 7.85226 3.30089 11.1461C3.20559 11.2375 3.12936 11.347 3.0766 11.4681C3.02384 11.5893 2.99561 11.7196 2.99353 11.8517C2.99145 11.9838 3.01557 12.115 3.06449 12.2377C3.1134 12.3605 3.18615 12.4723 3.27853 12.5667C3.37091 12.6612 3.48109 12.7364 3.6027 12.788C3.72431 12.8396 3.85494 12.8666 3.98705 12.8674C4.11916 12.8683 4.25012 12.8429 4.37238 12.7929C4.49464 12.7428 4.60576 12.669 4.69933 12.5757C7.73088 9.64421 11.783 8.00544 16.0001 8.00544C20.2172 8.00544 24.2694 9.64421 27.3009 12.5757C27.4911 12.7583 27.7456 12.8584 28.0091 12.8542C28.2727 12.8501 28.524 12.742 28.7083 12.5536C28.8926 12.3652 28.9951 12.1116 28.9934 11.848C28.9917 11.5844 28.886 11.3321 28.6993 11.1461Z" fill="black"/>
</svg>
