<svg xmlns="http://www.w3.org/2000/svg" width="32" height="32" viewBox="0 0 32 32"><path d="M27.9969 15.497H16.4999V5.20697L19.6459 8.35297C19.6921 8.40072 19.7472 8.43881 19.8082 8.46502C19.8692 8.49122 19.9348 8.50502 20.0012 8.50559C20.0676 8.50617 20.1335 8.49352 20.1949 8.46838C20.2564 8.44324 20.3122 8.40611 20.3591 8.35917C20.4061 8.31222 20.4432 8.25639 20.4683 8.19494C20.4935 8.1335 20.5061 8.06766 20.5056 8.00127C20.505 7.93488 20.4912 7.86927 20.465 7.80827C20.4388 7.74726 20.4007 7.69209 20.3529 7.64597L16.3539 3.64697C16.26 3.55317 16.1327 3.50049 15.9999 3.50049C15.8672 3.50049 15.7399 3.55317 15.6459 3.64697L11.6459 7.64697C11.5586 7.74196 11.5114 7.86703 11.5142 7.99602C11.5169 8.12502 11.5695 8.24795 11.6608 8.33912C11.7521 8.43029 11.8751 8.48263 12.0041 8.48522C12.1331 8.4878 12.2581 8.44041 12.3529 8.35297L15.4999 5.20697V15.497H4.00293C3.87032 15.497 3.74314 15.5496 3.64938 15.6434C3.55561 15.7372 3.50293 15.8644 3.50293 15.997C3.50293 16.1296 3.55561 16.2568 3.64938 16.3505C3.74314 16.4443 3.87032 16.497 4.00293 16.497H15.4999V26.793L12.3539 23.646C12.2596 23.5549 12.1333 23.5045 12.0022 23.5056C11.8711 23.5068 11.7457 23.5594 11.653 23.6521C11.5603 23.7448 11.5077 23.8702 11.5066 24.0013C11.5055 24.1324 11.5559 24.2587 11.6469 24.353L15.6469 28.353C15.7407 28.4467 15.8678 28.4994 16.0004 28.4994C16.133 28.4994 16.2602 28.4467 16.3539 28.353L20.3539 24.353C20.445 24.2587 20.4954 24.1324 20.4943 24.0013C20.4931 23.8702 20.4405 23.7448 20.3478 23.6521C20.2551 23.5594 20.1297 23.5068 19.9986 23.5056C19.8675 23.5045 19.7412 23.5549 19.6469 23.646L16.4999 26.793V16.497H27.9969C28.1295 16.497 28.2567 16.4443 28.3505 16.3505C28.4443 16.2568 28.4969 16.1296 28.4969 15.997C28.4969 15.8644 28.4443 15.7372 28.3505 15.6434C28.2567 15.5496 28.1295 15.497 27.9969 15.497Z"/></svg>