<svg xmlns="http://www.w3.org/2000/svg" width="32" height="32" viewBox="0 0 32 32"><path d="M25.2929 21.2929C25.4804 21.1053 25.7347 21 25.9999 21C26.2651 21 26.5194 21.1053 26.7069 21.2929C26.8944 21.4804 26.9998 21.7347 26.9998 21.9999C26.9998 22.2651 26.8944 22.5194 26.7069 22.7069L22.7069 26.7069C22.5194 26.8944 22.2651 26.9998 21.9999 26.9998C21.7347 26.9998 21.4804 26.8944 21.2929 26.7069C21.1053 26.5194 21 26.2651 21 25.9999C21 25.7347 21.1053 25.4804 21.2929 25.2929L25.2929 21.2929Z M15.2929 23.2929L23.2929 15.2929C23.4804 15.1053 23.7347 15 23.9999 15C24.2651 15 24.5194 15.1053 24.7069 15.2929C24.8944 15.4804 24.9998 15.7347 24.9998 15.9999C24.9998 16.2651 24.8944 16.5194 24.7069 16.7069L16.7069 24.7069C16.6141 24.7998 16.5038 24.8734 16.3825 24.9237C16.2612 24.9739 16.1312 24.9998 15.9999 24.9998C15.8686 24.9998 15.7386 24.9739 15.6173 24.9237C15.4959 24.8734 15.3857 24.7998 15.2929 24.7069C15.2 24.6141 15.1264 24.5039 15.0761 24.3825C15.0259 24.2612 15 24.1312 15 23.9999C15 23.8686 15.0259 23.7386 15.0761 23.6173C15.1264 23.4959 15.2 23.3857 15.2929 23.2929Z"/></svg>