<svg xmlns="http://www.w3.org/2000/svg" width="32" height="32" viewBox="0 0 32 32"><path d="M6.70692 21.2929C6.51832 21.1108 6.26571 21.01 6.00352 21.0122C5.74132 21.0145 5.49051 21.1197 5.3051 21.3051C5.11969 21.4905 5.01452 21.7413 5.01224 22.0035C5.00997 22.2657 5.11076 22.5183 5.29292 22.7069L9.29292 26.7069C9.38517 26.8024 9.49551 26.8786 9.61751 26.931C9.73952 26.9834 9.87074 27.011 10.0035 27.0122C10.1363 27.0133 10.268 26.988 10.3909 26.9377C10.5138 26.8875 10.6254 26.8132 10.7193 26.7193C10.8132 26.6254 10.8875 26.5138 10.9377 26.3909C10.988 26.268 11.0133 26.1363 11.0122 26.0035C11.011 25.8707 10.9834 25.7395 10.931 25.6175C10.8786 25.4955 10.8024 25.3852 10.7069 25.2929L6.70692 21.2929ZM16.7069 23.2929L8.70692 15.2929C8.51832 15.1108 8.26572 15.01 8.00352 15.0122C7.74132 15.0145 7.49051 15.1197 7.3051 15.3051C7.11969 15.4905 7.01452 15.7413 7.01224 16.0035C7.00997 16.2657 7.11076 16.5183 7.29292 16.7069L15.2929 24.7069C15.4815 24.8891 15.7341 24.9899 15.9963 24.9876C16.2585 24.9853 16.5093 24.8801 16.6947 24.6947C16.8801 24.5093 16.9853 24.2585 16.9876 23.9963C16.9899 23.7341 16.8891 23.4815 16.7069 23.2929Z"/></svg>