<svg xmlns="http://www.w3.org/2000/svg" width="32" height="32" viewBox="0 0 32 32"><path d="M13.75 5.5C13.75 5.36193 13.8619 5.25 14 5.25H18C18.1381 5.25 18.25 5.36193 18.25 5.5V9.5C18.25 9.63807 18.1381 9.75 18 9.75H14C13.8619 9.75 13.75 9.63807 13.75 9.5V5.5ZM16.75 11.25H18C18.9665 11.25 19.75 10.4665 19.75 9.5V5.5C19.75 4.5335 18.9665 3.75 18 3.75H14C13.0335 3.75 12.25 4.5335 12.25 5.5V9.5C12.25 10.4665 13.0335 11.25 14 11.25H15.25V15.75H3C2.58579 15.75 2.25 16.0858 2.25 16.5C2.25 16.9142 2.58579 17.25 3 17.25H5.25V20.75H4C3.0335 20.75 2.25 21.5335 2.25 22.5V26.5C2.25 27.4665 3.0335 28.25 4 28.25H8C8.9665 28.25 9.75 27.4665 9.75 26.5V22.5C9.75 21.5335 8.9665 20.75 8 20.75H6.75V17.25H15.25V20.75H14C13.0335 20.75 12.25 21.5335 12.25 22.5V26.5C12.25 27.4665 13.0335 28.25 14 28.25H18C18.9665 28.25 19.75 27.4665 19.75 26.5V22.5C19.75 21.5335 18.9665 20.75 18 20.75H16.75V17.25H25.25V20.75H24C23.0335 20.75 22.25 21.5335 22.25 22.5V26.5C22.25 27.4665 23.0335 28.25 24 28.25H28C28.9665 28.25 29.75 27.4665 29.75 26.5V22.5C29.75 21.5335 28.9665 20.75 28 20.75H26.75V17.25H29C29.4142 17.25 29.75 16.9142 29.75 16.5C29.75 16.0858 29.4142 15.75 29 15.75H16.75V11.25ZM24 22.25H28C28.1381 22.25 28.25 22.3619 28.25 22.5V26.5C28.25 26.6381 28.1381 26.75 28 26.75H24C23.8619 26.75 23.75 26.6381 23.75 26.5V22.5C23.75 22.3619 23.8619 22.25 24 22.25ZM14 22.25H18C18.1381 22.25 18.25 22.3619 18.25 22.5V26.5C18.25 26.6381 18.1381 26.75 18 26.75H14C13.8619 26.75 13.75 26.6381 13.75 26.5V22.5C13.75 22.3619 13.8619 22.25 14 22.25ZM4 22.25H8C8.13807 22.25 8.25 22.3619 8.25 22.5V26.5C8.25 26.6381 8.13807 26.75 8 26.75H4C3.86193 26.75 3.75 26.6381 3.75 26.5V22.5C3.75 22.3619 3.86193 22.25 4 22.25Z"/></svg>