<svg width="32" height="32" viewBox="0 0 32 32" fill="none" xmlns="http://www.w3.org/2000/svg">
<path d="M26 7.99992H21V5.99992C20.9997 5.46991 20.7892 4.96166 20.4146 4.5867C20.04 4.21175 19.532 4.00071 19.002 3.99992L13.002 3.99292H12.998C12.4679 3.99345 11.9597 4.2044 11.5851 4.57941C11.2104 4.95443 11 5.46283 11 5.99292V7.99992H6C4.93946 8.00098 3.92266 8.42275 3.17274 9.17266C2.42283 9.92258 2.00106 10.9394 2 11.9999V23.9999C2.00106 25.0605 2.42283 26.0773 3.17274 26.8272C3.92266 27.5771 4.93946 27.9989 6 27.9999H26C27.0605 27.9989 28.0773 27.5771 28.8273 26.8272C29.5772 26.0773 29.9989 25.0605 30 23.9999V11.9999C29.9989 10.9394 29.5772 9.92258 28.8273 9.17266C28.0773 8.42275 27.0605 8.00098 26 7.99992V7.99992ZM13 5.99292L19 5.99992V7.99992H13V5.99292ZM6 9.99992H26C26.5302 10.0007 27.0384 10.2117 27.4133 10.5866C27.7882 10.9615 27.9992 11.4697 28 11.9999V17.9999H4V11.9999C4.00079 11.4697 4.21176 10.9615 4.58666 10.5866C4.96156 10.2117 5.46981 10.0007 6 9.99992V9.99992ZM26 25.9999H6C5.46981 25.9991 4.96156 25.7882 4.58666 25.4133C4.21176 25.0384 4.00079 24.5301 4 23.9999V19.9999H9V20.9999C9 21.2651 9.10536 21.5195 9.29289 21.707C9.48043 21.8946 9.73478 21.9999 10 21.9999C10.2652 21.9999 10.5196 21.8946 10.7071 21.707C10.8946 21.5195 11 21.2651 11 20.9999V19.9999H21V20.9999C21 21.2651 21.1054 21.5195 21.2929 21.707C21.4804 21.8946 21.7348 21.9999 22 21.9999C22.2652 21.9999 22.5196 21.8946 22.7071 21.707C22.8946 21.5195 23 21.2651 23 20.9999V19.9999H28V23.9999C27.9992 24.5301 27.7882 25.0384 27.4133 25.4133C27.0384 25.7882 26.5302 25.9991 26 25.9999Z" fill="#0F0F0F"/>
</svg>
