<svg width="122" height="122" viewBox="0 0 122 122" fill="none" xmlns="http://www.w3.org/2000/svg">
<path d="M32.321 63.6686H57.1022C58.5001 63.6686 59.6439 62.5249 59.6439 61.127M59.6439 61.127C59.6439 59.729 58.5001 58.5853 57.1022 58.5853H32.321C28.5085 53.502 19.6126 48.4186 12.623 48.4186C8.17513 48.4186 4.99805 51.8499 4.99805 56.0436C4.99805 60.2374 8.4293 63.6686 12.623 63.6686C14.5293 63.6686 15.8001 62.5249 15.8001 61.127C15.8001 59.729 14.5293 58.5853 12.623 58.5853C8.4293 58.5853 4.99805 62.0165 4.99805 66.2103C4.99805 70.404 8.17513 73.8353 12.623 73.8353C15.8637 73.8353 19.0408 72.9457 21.9001 71.4842C22.6626 71.103 23.5522 71.5478 23.7428 72.3738C28.3178 96.4561 47.2533 114.502 69.8105 114.502C95.7991 114.502 116.831 90.6103 116.831 61.127C116.831 31.6436 95.7991 7.75195 69.8105 7.75195C48.0793 7.75195 29.8428 24.4634 24.4418 47.1478M59.6439 61.127H69.1751M42.6783 68.8155C45.6647 82.6676 56.721 92.9613 69.8105 92.9613C85.2512 92.9613 97.7689 78.728 97.7689 61.1905C97.7689 43.653 85.2512 29.4197 69.8105 29.4197C56.6574 29.4197 45.6647 39.7134 42.6783 53.5655M62.122 66.2738C63.647 69.3238 66.5064 71.3572 69.8105 71.3572C74.7033 71.3572 78.7064 66.7822 78.7064 61.1905C78.7064 55.5988 74.7033 51.0238 69.8105 51.0238C66.5064 51.0238 63.647 53.0572 62.122 56.1072" stroke="url(#paint0_linear)" stroke-width="1.58854" stroke-miterlimit="10" stroke-linecap="round" stroke-linejoin="round"/>
<defs>
<linearGradient id="paint0_linear" x1="60.9147" y1="7.75195" x2="60.9147" y2="114.502" gradientUnits="userSpaceOnUse">
<stop stop-color="#93C437"/>
<stop offset="1" stop-color="#279BE8"/>
</linearGradient>
</defs>
</svg>
