<svg width="121" height="120" viewBox="0 0 121 120" fill="none" xmlns="http://www.w3.org/2000/svg">
<path d="M69.1992 91.2C65.1992 99.2 55.1992 102.2 50.1992 97.2C45.1992 92.2 46.8992 83.4 52.1992 77.2C52.1992 77.2 45.1992 80.1999 38.1992 80.1999C24.1992 80.1999 12.1992 72.2 12.1992 58.2C12.1992 50.2 18.1992 44.2 28.1992 44.2C56.1992 44.2 54.1992 87.2 82.1992 87.2C92.0992 87.2 100.199 81.2 100.199 73.7C100.199 66.2 92.0992 60.2 82.1992 60.2C68.1992 60.2 67.1992 70.2 72.1992 70.2C78.1992 70.2 88.1992 60.2 88.1992 40.2C88.1992 26.9 80.0992 16.2 70.1992 16.2C60.2992 16.2 52.1992 26.9 52.1992 40.2C52.1992 47.2 54.1992 52.2 54.1992 52.2" stroke="black" stroke-width="2.5" stroke-miterlimit="10" stroke-linecap="round" stroke-linejoin="round"/>
</svg>
