<svg width="121" height="120" viewBox="0 0 121 120" fill="none" xmlns="http://www.w3.org/2000/svg">
<path d="M89.1999 90.7C93.3999 94.9 93.3999 101.6 89.1999 105.8L85.7999 109.2C83.7999 111.2 80.9999 112.4 78.1999 112.3C60.6999 111.9 43.2999 105 29.8999 91.6C15.9999 77.8 9.19992 59.6 9.29992 41.4C9.29992 38.6 10.3999 35.8 12.3999 33.8L14.8999 31.3C19.0999 27.1 25.7999 27.1 29.9999 31.3L37.4999 38.8C41.6999 43 41.6999 49.7 37.4999 53.9L33.1999 58.2C30.8999 60.5 30.1999 63.7999 31.1999 66.7999C33.0999 71.9999 36.0999 77 40.2999 81.2C43.9999 84.9 48.2999 87.7 52.8999 89.6C55.9999 90.9 59.5999 90.2 61.8999 87.8L66.5999 83.0999C70.7999 78.8999 78.2999 79.2 81.2999 82.2C84.2999 85.2 81.2999 90.2 75.2999 90.2C57.2999 90.2 51.1999 70.2 73.1999 48.2L97.1999 24.2M97.1999 24.2H73.1999M97.1999 24.2V48.2" stroke="black" stroke-width="2.5" stroke-miterlimit="10" stroke-linecap="round" stroke-linejoin="round"/>
</svg>
