<svg width="78" height="78" viewBox="0 0 78 78" fill="none" xmlns="http://www.w3.org/2000/svg">
<path d="M28.293 45.1753C28.293 45.1753 29.1867 47.9378 29.5117 48.8315C29.918 50.0503 29.1055 50.4565 28.293 50.4565H27.4805M15.293 44.769C17.7305 44.769 19.3555 43.144 20.9805 41.519C22.6055 39.894 24.2305 38.269 27.0742 38.269C29.9992 38.269 32.3555 40.6253 32.3555 43.5503V51.6753C32.3555 55.0472 29.6336 57.769 26.2617 57.769C19.7617 57.769 14.4805 51.6753 14.4805 48.4253C14.4805 47.5315 15.2117 46.8003 16.1055 46.8003C16.9992 46.8003 17.7305 47.5315 17.7305 48.4253V57.3628C17.7305 59.1503 16.268 60.6128 14.4805 60.6128C10.5398 60.6128 7.37109 63.7815 7.37109 67.7222C7.37109 71.6628 10.5398 74.8315 14.4805 74.8315H62.0117M45.7617 71.1753C37.2305 71.1753 35.6055 60.6128 25.8555 60.6128M33.9805 40.3003C33.9805 36.7253 31.0555 33.8003 27.4805 33.8003C25.4492 33.8003 23.418 33.8003 23.418 33.8003C17.1211 33.8003 12.043 38.8784 12.043 45.1753V47.2065C12.043 49.644 10.418 50.4565 9.60547 51.269C8.79297 52.0815 7.16797 53.3003 7.16797 55.7378C7.16797 58.1753 8.79297 59.8003 8.79297 59.8003M69.7305 51.269C71.7617 46.8003 72.9805 42.2909 72.9805 37.0503C72.9805 18.2003 57.7055 2.92529 38.8555 2.92529C20.0055 2.92529 4.73047 18.2003 4.73047 37.0503C4.73047 41.6409 5.50234 46.0284 7.16797 50.0503M68.5117 54.1128H49.0117C47.2242 54.1128 45.7617 55.5753 45.7617 57.3628V74.8315H68.5117C70.2992 74.8315 71.7617 73.369 71.7617 71.5815V57.3628C71.7617 55.5753 70.3399 54.1128 68.5117 54.1128ZM36.8649 13.0815C36.1742 13.7722 35.8086 14.6659 35.8086 15.6003C35.768 21.6534 38.0836 27.7065 42.6742 32.3378C47.143 36.8065 52.9524 39.0815 58.7617 39.2034C59.6961 39.244 60.6305 38.8378 61.3211 38.1472L62.4586 37.0097C63.8399 35.6284 63.8399 33.3534 62.4586 31.9722L59.9399 29.4534C58.5586 28.0722 56.2836 28.0722 54.9024 29.4534L53.318 31.0378C52.5461 31.8097 51.3273 32.0534 50.3117 31.6472C48.768 31.0378 47.3461 30.1034 46.1273 28.844C44.7461 27.4628 43.7305 25.7972 43.1211 24.0503C42.7555 23.0347 42.9992 21.9378 43.7711 21.1659L45.193 19.744C46.5742 18.3628 46.5742 16.0878 45.193 14.7065L42.6742 12.1878C41.293 10.8065 39.018 10.8065 37.6367 12.1878L36.8649 13.0815Z" stroke="url(#paint0_linear)" stroke-width="1.01563" stroke-miterlimit="10" stroke-linecap="round" stroke-linejoin="round"/>
<path d="M24.2305 46.8003C24.6792 46.8003 25.043 46.4365 25.043 45.9878C25.043 45.5391 24.6792 45.1753 24.2305 45.1753C23.7817 45.1753 23.418 45.5391 23.418 45.9878C23.418 46.4365 23.7817 46.8003 24.2305 46.8003Z" fill="#52ABA0"/>
<defs>
<linearGradient id="paint0_linear" x1="38.8555" y1="2.92529" x2="38.8555" y2="74.8316" gradientUnits="userSpaceOnUse">
<stop stop-color="#93C437"/>
<stop offset="1" stop-color="#279BE8"/>
</linearGradient>
</defs>
</svg>
