<svg width="143" height="143" viewBox="0 0 143 143" fill="none" xmlns="http://www.w3.org/2000/svg">
<path d="M137.164 41.5289C136.797 39.6922 135.738 38.1147 134.183 37.0735C132.628 36.0368 130.756 35.6659 128.923 36.0323C127.087 36.3987 125.509 37.4578 124.468 39.013L121.21 43.8973V40.2195C121.21 35.4782 117.349 31.6172 112.608 31.6172H14.3C9.55866 31.6172 5.69766 35.4782 5.69766 40.2195V102.782C5.69766 107.523 9.55866 111.384 14.3 111.384H112.613C117.354 111.384 121.215 107.523 121.215 102.782V69.1502L136.127 46.7841C137.164 45.229 137.53 43.3611 137.164 41.5289ZM120.098 102.782C120.098 106.911 116.742 110.267 112.613 110.267H14.3C10.1709 110.267 6.81485 106.911 6.81485 102.782V40.2195C6.81485 36.0904 10.1709 32.7344 14.3 32.7344H112.613C116.742 32.7344 120.098 36.0904 120.098 40.2195V45.5776L92.6998 86.6722C92.3869 87.1369 92.1769 87.6553 92.0741 88.205L89.6119 101.334H58.9875C57.8167 101.334 56.8649 100.382 56.8649 99.2115C56.8649 98.0407 57.8167 97.0888 58.9875 97.0888H71.5C73.2875 97.0888 74.7399 95.6365 74.7399 93.849C74.7399 92.0615 73.2875 90.6092 71.5 90.6092H54.6171C56.838 89.1032 61.2129 85.8768 64.9131 81.6538C66.6693 82.3867 68.5909 82.7888 70.6063 82.7888C78.7975 82.7888 85.4649 73.7173 85.4649 62.5677C85.4649 50.4306 75.5934 40.5592 63.4563 40.5592C51.3191 40.5592 41.4477 50.4262 41.4477 62.5633C41.4477 68.0598 43.405 73.2704 46.9532 77.2342C47.1587 77.4621 47.5118 77.4844 47.7441 77.2789C47.972 77.0733 47.9944 76.7203 47.7888 76.4879C44.4239 72.7252 42.5693 67.7828 42.5693 62.5588C42.5693 51.0384 51.9403 41.6674 63.4607 41.6674C74.9812 41.6674 84.3521 51.0384 84.3521 62.5588C84.3521 73.0917 78.1897 81.6627 70.6107 81.6627C68.8724 81.6627 67.2145 81.3365 65.6817 80.7466C68.7473 77.0197 71.1693 72.5956 71.1693 67.9213C71.1693 62.6839 67.7105 58.4252 63.4607 58.4252C59.2109 58.4252 55.7521 62.6839 55.7521 67.9213C55.7521 73.6905 59.059 78.6955 63.8718 81.1578C60.136 85.3539 55.7119 88.5312 53.6965 89.8763C53.3256 90.1221 53.1647 90.5779 53.2943 91.0024C53.4239 91.4314 53.8127 91.7174 54.2596 91.7174H71.5C72.6708 91.7174 73.6227 92.6693 73.6227 93.8401C73.6227 95.0109 72.6708 95.9627 71.5 95.9627H58.9875C57.2 95.9627 55.7477 97.4151 55.7477 99.2026C55.7477 100.99 57.2 102.442 58.9875 102.442H90.0811C90.1481 102.442 90.2107 102.429 90.2732 102.402C90.2866 102.398 90.3 102.393 90.3134 102.384C90.3224 102.38 90.3313 102.38 90.3447 102.371L102.96 95.6454C103.559 95.3237 104.077 94.8545 104.453 94.2914L120.102 70.8171V102.782H120.098ZM64.6226 80.2953C60.0377 78.0654 56.8649 73.3598 56.8649 67.9258C56.8649 63.3051 59.8232 59.5469 63.4563 59.5469C67.0894 59.5469 70.0477 63.3051 70.0477 67.9258C70.0477 72.4079 67.6435 76.6845 64.6226 80.2953ZM103.519 93.6792C103.242 94.0903 102.866 94.4344 102.428 94.6668L90.8408 100.847L93.1734 88.4061C93.2494 88.0039 93.4014 87.6285 93.6293 87.2889L125.398 39.6341C126.269 38.3248 127.601 37.4355 129.142 37.1272C129.531 37.0512 129.92 37.011 130.309 37.011C131.457 37.011 132.583 37.3506 133.562 38.003C134.871 38.8744 135.761 40.2061 136.069 41.7478C136.377 43.2896 136.069 44.8581 135.193 46.1674L103.519 93.6792Z" fill="url(#paint0_linear)"/>
<defs>
<linearGradient id="paint0_linear" x1="71.4999" y1="31.6172" x2="71.4999" y2="111.384" gradientUnits="userSpaceOnUse">
<stop stop-color="#93C437"/>
<stop offset="1" stop-color="#279BE8"/>
</linearGradient>
</defs>
</svg>
