<svg width="193" height="192" viewBox="0 0 193 192" fill="none" xmlns="http://www.w3.org/2000/svg">
<path d="M171 89.6C179.1 99.6 184.3 112.5 184.3 126.4C184.3 158.4 158.3 184.4 126.3 184.4C94.3002 184.4 68.3002 158.4 68.3002 126.4C68.3002 112.5 73.4002 99.6 81.6002 89.6M118.2 76.4C118.2 61.4 132.2 59.4 132.2 45.4C132.2 39.4 128.2 33.4 124.2 27.4L112.2 9.19996C111.3 7.89996 109.4 7.99996 108.7 9.39996L104.2 18.3H95.2002L85.7002 8.79996C84.6002 7.69996 82.7002 8.19996 82.4002 9.69996L70.2002 55.4C62.7002 79.3 56.6002 90 46.2002 101.4C33.1002 115.7 19.2002 128.4 18.2002 144.4C16.8002 167.4 32.2002 184.4 56.2002 184.4C66.2002 184.4 74.2002 179.4 74.2002 172.4C74.2002 165.4 68.2002 160.4 60.2002 160.4C40.2002 160.4 37.2002 184.4 4.2002 184.4M124.2 150.4C124.2 150.4 127.2 152.4 132.2 152.4C132.2 148.4 128.2 146.4 128.2 146.4C128.2 146.4 132.2 144.4 132.2 140.4C122.2 140.4 122.2 151.4 112.2 151.4C107.2 151.4 104.2 148.4 104.2 146.4C104.2 144.4 107.2 141.4 112.2 141.4C116.2 141.4 118.2 143.4 118.2 143.4M92.2002 130.4C92.2002 130.4 89.2002 132.4 84.2002 132.4C84.2002 128.4 88.2002 126.4 88.2002 126.4C88.2002 126.4 84.2002 124.4 84.2002 120.4C94.2002 120.4 94.2002 131.4 104.2 131.4C109.2 131.4 112.2 128.4 112.2 126.4C112.2 124.4 109.2 121.4 104.2 121.4C100.2 121.4 98.2002 123.4 98.2002 123.4M148.2 118.4C148.2 118.4 145.2 120.4 140.2 120.4C140.2 116.4 144.2 114.4 144.2 114.4C144.2 114.4 140.2 112.4 140.2 108.4C150.2 108.4 150.2 119.4 160.2 119.4C165.2 119.4 168.2 116.4 168.2 114.4C168.2 112.4 165.2 109.4 160.2 109.4C156.2 109.4 154.2 111.4 154.2 111.4M102.2 170.4C102.2 170.4 107.2 166.4 112.2 166.4C118.2 166.4 120.2 172.4 128.2 172.4C137.2 172.4 139.2 162.4 147.2 162.4C153.2 162.4 157.2 166.4 157.2 166.4M171.2 90.4C171.2 94.266 151.053 97.4 126.2 97.4C101.347 97.4 81.2002 94.266 81.2002 90.4C81.2002 86.534 101.347 83.4 126.2 83.4C151.053 83.4 171.2 86.534 171.2 90.4Z" stroke="black" stroke-width="2.5" stroke-miterlimit="10" stroke-linecap="round" stroke-linejoin="round"/>
<path d="M114.2 40.3999C115.305 40.3999 116.2 39.5045 116.2 38.3999C116.2 37.2953 115.305 36.3999 114.2 36.3999C113.096 36.3999 112.2 37.2953 112.2 38.3999C112.2 39.5045 113.096 40.3999 114.2 40.3999Z" fill="black"/>
<path d="M96.2002 40.3999C97.3048 40.3999 98.2002 39.5045 98.2002 38.3999C98.2002 37.2953 97.3048 36.3999 96.2002 36.3999C95.0956 36.3999 94.2002 37.2953 94.2002 38.3999C94.2002 39.5045 95.0956 40.3999 96.2002 40.3999Z" fill="black"/>
</svg>
