<svg width="321" height="320" viewBox="0 0 321 320" fill="none" xmlns="http://www.w3.org/2000/svg">
<path d="M304.2 71.2V246.2C304.2 256.1 296.1 264.2 286.2 264.2H66.2002C56.3002 264.2 48.2002 256.1 48.2002 246.2V151.2M55.2002 81.2C70.6002 84.5 82.3002 99.5 79.9002 116.7C77.8002 131.7 65.1002 143.4 49.9002 144.1C31.5002 145.1 16.2002 130.4 16.2002 112.1C16.2002 94.4 30.5002 80.1 48.2002 80.1V74.1C48.2002 64.2 56.3002 56.1 66.2002 56.1H300.2C302.4 56.1 304.2 57.9 304.2 60.1C304.2 62.3 302.4 64.1 300.2 64.1H108.2C101.6 64.1 96.2002 69.5 96.2002 76.1V240.1M172.2 123.2C172.2 123.2 174.4 130 175.2 132.2C176.2 135.2 174.2 136.2 172.2 136.2H170.2M165.2 102.2C158.2 102.2 154.2 106.2 150.2 110.2C146.2 114.2 142.2 118.2 135.2 118.2M161.2 96.2C154.2 96.2 150.2 100.2 146.2 104.2C142.2 108.2 138.2 112.2 131.2 112.2M160.2 176.2C186.7 176.2 208.2 154.7 208.2 128.2C208.2 101.1 185.7 79.2 158.4 80.2C133.6 81.1 113.3 101.2 112.2 126C111.6 139.8 116.8 152.4 125.6 161.5C133 169.2 146.2 163.8 146.2 153.1V133.2C146.2 130.9 144.2 129 141.8 129.2C139.6 129.4 138.1 131.4 138.2 133.6C138.6 141.7 151.6 156.3 167.5 156.2C175.7 156.1 182.2 149.4 182.2 141.2V121.2C182.2 114 176.4 108.2 169.2 108.2C162.2 108.2 158.2 112.2 154.2 116.2C150.2 120.2 146.2 124.2 139.2 124.2M112.2 232.2H144.2M112.2 240.2H176.2M112.2 200.2H144.2M112.2 208.2H176.2M208.2 232.2H240.2M208.2 240.2H272.2M208.2 200.2H240.2M208.2 208.2H272.2M48.2002 111.2C43.8002 111.2 41.2002 114.4 41.2002 118.2C41.2002 120.2 45.2002 121.2 48.2002 121.2C51.2002 121.2 55.2002 120.2 55.2002 118.2C55.2002 114.4 52.6002 111.2 48.2002 111.2ZM48.2002 111.2C50.4093 111.2 52.2002 109.409 52.2002 107.2C52.2002 104.991 50.4093 103.2 48.2002 103.2C45.9911 103.2 44.2002 104.991 44.2002 107.2C44.2002 109.409 45.9911 111.2 48.2002 111.2ZM34.2002 101.2H30.2002M34.2002 112.2H30.2002M34.2002 123.2H30.2002M58.2002 129.2H38.2002C36.0002 129.2 34.2002 127.4 34.2002 125.2V99.2C34.2002 97 36.0002 95.2 38.2002 95.2H58.2002C60.4002 95.2 62.2002 97 62.2002 99.2V125.2C62.2002 127.5 60.5002 129.2 58.2002 129.2Z" stroke="black" stroke-width="2.5" stroke-miterlimit="10" stroke-linecap="round" stroke-linejoin="round"/>
<path d="M160.2 128C161.305 128 162.2 127.105 162.2 126C162.2 124.895 161.305 124 160.2 124C159.096 124 158.2 124.895 158.2 126C158.2 127.105 159.096 128 160.2 128Z" fill="black"/>
</svg>
