<svg width="192" height="192" viewBox="0 0 192 192" fill="none" xmlns="http://www.w3.org/2000/svg">
<path d="M67.8662 119.199V123.199C67.8662 126.299 64.2662 128.599 60.9662 126.099C58.4662 122.799 60.7662 119.199 63.8662 119.199H67.8662ZM67.8662 119.199V62.1992C67.8662 55.5992 62.4662 50.1992 55.8662 50.1992C49.2662 50.1992 43.8662 55.5992 43.8662 62.1992V97.1992C43.8662 100.499 41.1662 103.199 37.8662 103.199C34.5662 103.199 31.8662 100.499 31.8662 97.1992V87.1992C31.8662 82.7992 28.2662 79.1992 23.8662 79.1992C19.4662 79.1992 15.8662 82.7992 15.8662 87.1992V97.1992C15.8662 109.399 25.6662 119.199 37.8662 119.199H39.8662C42.0662 119.199 43.8662 120.999 43.8662 123.199V169.199C43.8662 175.799 38.4662 181.199 31.8662 181.199H3.86621M67.8662 119.199H73.8662C77.1662 119.199 79.8662 116.499 79.8662 113.199V87.1992C79.8662 82.7992 83.4662 79.1992 87.8662 79.1992C92.2662 79.1992 95.8662 82.7992 95.8662 87.1992V113.199C95.8662 125.399 86.0662 135.199 73.8662 135.199H71.8662C69.6662 135.199 67.8662 136.999 67.8662 139.199V169.199C67.8662 175.799 73.2662 181.199 79.8662 181.199H187.866M88.8662 173.199L93.8662 168.199V157.199C93.8662 154.999 95.6662 153.199 97.8662 153.199H103.866C106.066 153.199 107.866 154.999 107.866 157.199V168.199L112.466 172.799C113.266 173.599 114.466 173.599 115.266 172.799L127.866 160.199V133.199C127.866 128.799 131.466 125.199 135.866 125.199H147.866C152.266 125.199 155.866 128.799 155.866 133.199V157.199C155.866 159.399 157.666 161.199 159.866 161.199C162.066 161.199 163.866 159.399 163.866 157.199V145.199C163.866 142.999 165.666 141.199 167.866 141.199C170.066 141.199 171.866 142.999 171.866 145.199V166.199L178.866 173.199M175.866 39.1992C175.866 52.4541 165.121 63.1992 151.866 63.1992C138.611 63.1992 127.866 52.4541 127.866 39.1992C127.866 25.9444 138.611 15.1992 151.866 15.1992C165.121 15.1992 175.866 25.9444 175.866 39.1992Z" stroke="url(#paint0_linear)" stroke-width="2.5" stroke-miterlimit="10" stroke-linecap="round" stroke-linejoin="round"/>
<defs>
<linearGradient id="paint0_linear" x1="95.8662" y1="15.1992" x2="95.8662" y2="181.199" gradientUnits="userSpaceOnUse">
<stop stop-color="#93C437"/>
<stop offset="1" stop-color="#279BE8"/>
</linearGradient>
</defs>
</svg>
