<svg width="321" height="320" viewBox="0 0 321 320" fill="none" xmlns="http://www.w3.org/2000/svg">
<path d="M168.2 106.2L112.1 190.2L83.4001 147.2C81.8001 144.8 78.3001 144.8 76.7001 147.2L44.1001 196.2C32.1001 214.2 24.1001 226.2 24.1001 238.2C24.1001 254.2 44.1001 266.2 80.1001 266.2C148.1 266.2 216.1 242.2 216.1 218.2C216.1 194.2 144.1 202.2 144.1 182.2C144.1 166.2 184.1 166.2 184.1 154.2C184.1 144.2 160.1 144.2 160.1 136.2C160.1 128.2 184.2 130.2 168.2 106.2ZM168.2 106.2V78.2L184.2 86.2L174.2 91.2M296.2 266.2C280.2 266.2 272.2 262.2 264.2 250.2L180.2 124.2M178.2 72.2L190.2 60.2M146.2 60.2L158.2 72.2M168.2 70.2V53.2M119.2 206.2C119.2 210.6 116.1 214.2 112.2 214.2C108.3 214.2 105.2 210.6 105.2 206.2C105.2 202.2 106.9 198.2 110.2 193.2L112.3 190.2L114.2 193.2C117.5 198.2 119.2 202.2 119.2 206.2Z" stroke="black" stroke-width="2.5" stroke-miterlimit="10" stroke-linecap="round" stroke-linejoin="round"/>
</svg>
