<svg width="320" height="320" viewBox="0 0 320 320" fill="none" xmlns="http://www.w3.org/2000/svg">
<path d="M167.867 106.2L111.767 190.2L83.0666 147.2C81.4666 144.8 77.9666 144.8 76.3666 147.2L43.7666 196.2C31.7666 214.2 23.7666 226.2 23.7666 238.2C23.7666 254.2 43.7666 266.2 79.7666 266.2C147.767 266.2 215.767 242.2 215.767 218.2C215.767 194.2 143.767 202.2 143.767 182.2C143.767 166.2 183.767 166.2 183.767 154.2C183.767 144.2 159.767 144.2 159.767 136.2C159.767 128.2 183.867 130.2 167.867 106.2ZM167.867 106.2V78.2002L183.867 86.2002L173.867 91.2002M295.867 266.2C279.867 266.2 271.867 262.2 263.867 250.2L179.867 124.2M177.867 72.2002L189.867 60.2002M145.867 60.2002L157.867 72.2002M167.867 70.2002V53.2002M118.867 206.2C118.867 210.6 115.767 214.2 111.867 214.2C107.967 214.2 104.867 210.6 104.867 206.2C104.867 202.2 106.567 198.2 109.867 193.2L111.967 190.2L113.867 193.2C117.167 198.2 118.867 202.2 118.867 206.2Z" stroke="url(#paint0_linear)" stroke-width="2.5" stroke-miterlimit="10" stroke-linecap="round" stroke-linejoin="round"/>
<defs>
<linearGradient id="paint0_linear" x1="159.817" y1="53.2002" x2="159.817" y2="266.2" gradientUnits="userSpaceOnUse">
<stop stop-color="#93C437"/>
<stop offset="1" stop-color="#279BE8"/>
</linearGradient>
</defs>
</svg>
