<svg width="121" height="120" viewBox="0 0 121 120" fill="none" xmlns="http://www.w3.org/2000/svg">
<path d="M76.1992 55.2C76.1992 55.2 78.3992 62 79.1992 64.2C80.1992 67.2 78.1992 68.2 76.1992 68.2H74.1992M43.1992 54.2C50.1992 54.2 54.1992 50.2 58.1992 46.2C62.1992 42.2 66.1992 38.2 73.1992 38.2C80.3992 38.2 86.1992 44 86.1992 51.2V71.2C86.1992 79.4 79.6992 86.1 71.4992 86.2C55.6992 86.4 42.6992 71.8 42.2992 63.7C42.1992 61.6 43.7992 59.4999 45.8992 59.2999C48.2992 59.0999 50.2992 60.8999 50.2992 63.2999V94.3M69.1992 32.2C62.1992 32.2 58.1992 36.2 54.1992 40.2C50.1992 44.2 46.1992 48.2 39.1992 48.2M65.1992 26.2C58.1992 26.2 54.1992 30.2 50.1992 34.2C46.1992 38.2 42.1992 42.2 35.1992 42.2" stroke="black" stroke-width="2.5" stroke-miterlimit="10" stroke-linecap="round" stroke-linejoin="round"/>
<path d="M66.1992 59.2C67.3038 59.2 68.1992 58.3045 68.1992 57.2C68.1992 56.0954 67.3038 55.2 66.1992 55.2C65.0946 55.2 64.1992 56.0954 64.1992 57.2C64.1992 58.3045 65.0946 59.2 66.1992 59.2Z" fill="black"/>
</svg>
