<svg width="320" height="320" viewBox="0 0 320 320" fill="none" xmlns="http://www.w3.org/2000/svg">
<path d="M142.445 98.5003C140.245 99.0003 138.045 99.3003 135.645 99.3003C125.645 99.3003 119.645 93.3003 119.645 88.3003C119.645 85.5003 120.945 84.3003 122.645 84.3003C124.545 84.3003 126.045 85.9003 125.545 89.6003C124.745 96.1003 119.145 100.8 112.645 101.3C110.745 101.4 109.345 101.2 107.845 100.7C106.445 100 106.245 98.0003 107.645 97.1003C109.545 95.8003 110.745 93.7003 110.745 91.3003C110.745 87.1003 106.545 83.6003 105.145 75.6003C102.145 58.2003 114.445 41.9003 132.045 40.4003C151.545 38.7003 167.545 55.6003 164.245 75.3003C164.245 75.6003 164.145 75.9003 164.045 76.2003M87.6445 140.2L91.6445 152.2C93.6445 158.2 91.6445 160.2 87.6445 160.2H81.6445C77.1445 160.2 73.3445 163.2 72.0445 167.3C71.5445 169 69.9445 170.2 68.2445 170.2C63.5445 170.2 59.6445 166.4 59.6445 161.6V142.2C59.6445 135.6 54.2445 130.2 47.6445 130.2H41.7445C40.5445 130.2 39.6445 129.2 39.7445 128.1C40.8445 111.1 55.2445 97.8003 72.5445 98.3003C89.9445 98.8003 103.645 113.5 103.645 131V166.2C103.645 179.3 92.9445 190.3 79.8445 190.4C55.9445 190.5 35.9445 164.9 35.6445 146.8C35.5445 143.6 37.8445 140.7 41.0445 140.4C44.6445 140 47.6445 142.8 47.6445 146.4C47.6445 146.4 47.6445 174.4 47.6445 186.4C47.6445 198.4 43.6445 198.4 31.6445 202.4L16.6445 207.4M231.645 140.2L227.645 152.2C225.645 158.2 227.645 160.2 231.645 160.2H233.645M271.645 134.2C271.645 134.2 259.645 132.2 259.645 114.2C242.945 130.9 223.445 133.7 217.445 134.1C216.445 134.2 215.645 135 215.645 136.1V166C215.645 179.1 226.345 190.1 239.445 190.2C263.345 190.3 283.345 164.7 283.645 146.6C283.745 143.4 281.445 140.5 278.245 140.2C274.645 139.8 271.645 142.6 271.645 146.2C271.645 146.2 271.645 174.2 271.645 186.2C271.645 198.2 275.645 198.2 287.645 202.2L302.645 207.2M278.645 186.2H291.645C293.845 186.2 295.645 184.4 295.645 182.2V130.2C295.645 110.3 279.545 94.2003 259.645 94.2003H247.645C226.645 94.2003 211.645 106.2 211.645 128.2M44.6445 205.2C47.6445 215 56.8445 222.2 67.6445 222.2C80.0445 222.2 90.2445 212.8 91.5445 200.7C91.6445 199.4 92.9445 198.7 94.1445 199.1L115.645 206.3C127.645 210.3 143.645 219.3 143.645 239.3V263.3C143.645 272.1 150.845 279.3 159.645 279.3C168.445 279.3 175.645 272.1 175.645 263.3V239.3C175.645 219.3 191.645 210.3 203.645 206.3L225.145 199.1C226.345 198.7 227.645 199.5 227.745 200.7C228.945 212.8 239.245 222.2 251.645 222.2C262.445 222.2 271.645 215 274.645 205.2M176.845 102.2V115.2M176.845 102.1C176.845 101.3 174.145 91.7003 174.145 91.7003C173.245 89.3003 169.745 90.0003 169.745 92.5003V98.1003C169.745 98.4003 169.545 98.7003 169.145 98.7003H160.945C159.045 98.7003 157.545 100.2 157.545 102.1V107.2C157.545 111.6 161.145 115.1 165.445 115.1H181.245C183.145 115.1 184.645 113.6 184.645 111.7V105.4C184.645 103.5 183.145 102 181.245 102L176.845 102.1ZM201.645 105.2C201.645 121.769 188.213 135.2 171.645 135.2C155.076 135.2 141.645 121.769 141.645 105.2C141.645 88.6317 155.076 75.2003 171.645 75.2003C188.213 75.2003 201.645 88.6317 201.645 105.2Z" stroke="url(#paint0_linear)" stroke-width="2.5" stroke-miterlimit="10" stroke-linecap="round" stroke-linejoin="round"/>
<path d="M142.745 72.2002C143.849 72.2002 144.745 71.3048 144.745 70.2002C144.745 69.0956 143.849 68.2002 142.745 68.2002C141.64 68.2002 140.745 69.0956 140.745 70.2002C140.745 71.3048 141.64 72.2002 142.745 72.2002Z" fill="#76B965"/>
<path d="M75.6445 146.2C76.7491 146.2 77.6445 145.305 77.6445 144.2C77.6445 143.096 76.7491 142.2 75.6445 142.2C74.54 142.2 73.6445 143.096 73.6445 144.2C73.6445 145.305 74.54 146.2 75.6445 146.2Z" fill="#76B965"/>
<path d="M243.645 146.2C244.749 146.2 245.645 145.305 245.645 144.2C245.645 143.096 244.749 142.2 243.645 142.2C242.54 142.2 241.645 143.096 241.645 144.2C241.645 145.305 242.54 146.2 243.645 146.2Z" fill="#76B965"/>
<path d="M134.745 72.2002C135.849 72.2002 136.745 71.3048 136.745 70.2002C136.745 69.0956 135.849 68.2002 134.745 68.2002C133.64 68.2002 132.745 69.0956 132.745 70.2002C132.745 71.3048 133.64 72.2002 134.745 72.2002Z" fill="#76B965"/>
<path d="M126.745 72.2002C127.849 72.2002 128.745 71.3048 128.745 70.2002C128.745 69.0956 127.849 68.2002 126.745 68.2002C125.64 68.2002 124.745 69.0956 124.745 70.2002C124.745 71.3048 125.64 72.2002 126.745 72.2002Z" fill="#76B965"/>
<defs>
<linearGradient id="paint0_linear" x1="159.645" y1="40.2822" x2="159.645" y2="279.3" gradientUnits="userSpaceOnUse">
<stop stop-color="#93C437"/>
<stop offset="1" stop-color="#279BE8"/>
</linearGradient>
</defs>
</svg>
