<svg width="143" height="143" viewBox="0 0 143 143" fill="none" xmlns="http://www.w3.org/2000/svg">
<path d="M136.04 95.3449L115.976 35.1506C115.69 34.2922 115.237 33.4986 114.645 32.8151C114.052 32.1315 113.33 31.5715 112.521 31.1669C111.712 30.7623 110.831 30.5212 109.928 30.4572C109.026 30.3931 108.119 30.5076 107.261 30.7939L102.223 32.4733V26.8132C102.221 24.9866 101.494 23.2355 100.203 21.9439C98.911 20.6524 97.1599 19.9259 95.3334 19.9238H23.8334C22.0068 19.9259 20.2557 20.6524 18.9641 21.9439C17.6726 23.2355 16.9461 24.9866 16.944 26.8132V27.5579C16.944 27.8049 17.0421 28.0417 17.2167 28.2163C17.3913 28.3908 17.6281 28.4889 17.875 28.4889C18.1219 28.4889 18.3587 28.3908 18.5333 28.2163C18.7079 28.0417 18.806 27.8049 18.806 27.5579V26.8132C18.8076 25.4803 19.3378 24.2025 20.2802 23.26C21.2227 22.3176 22.5005 21.7874 23.8334 21.7858H95.3334C96.6662 21.7874 97.944 22.3176 98.8865 23.26C99.829 24.2025 100.359 25.4803 100.361 26.8132V33.0937L97.2732 34.1229C93.3259 35.4386 90.7104 37.6817 90.0973 40.2776C89.8937 41.1884 89.9343 42.1369 90.2151 43.0269C90.4958 43.917 91.0066 44.7172 91.6959 45.3464C92.3983 46.0646 93.3011 46.554 94.2863 46.7507C95.2714 46.9473 96.2929 46.8419 97.2172 46.4483C100.351 45.15 102.223 41.1504 102.223 35.7507V34.4356L107.85 32.5598C109.115 32.1382 110.496 32.2364 111.689 32.8327C112.881 33.4291 113.788 34.4747 114.21 35.7397L134.274 95.934C134.696 97.1991 134.598 98.5798 134.001 99.7725C133.405 100.965 132.359 101.872 131.094 102.294L61.9625 125.337C60.6974 125.759 59.3167 125.661 58.124 125.064C56.9313 124.468 56.0244 123.422 55.6026 122.157L51.5288 109.935C51.4902 109.819 51.4291 109.712 51.349 109.619C51.2689 109.527 51.1714 109.451 51.062 109.397C50.9526 109.342 50.8336 109.309 50.7116 109.301C50.5896 109.292 50.4671 109.307 50.3511 109.346C50.235 109.385 50.1278 109.446 50.0354 109.526C49.9431 109.606 49.8674 109.704 49.8128 109.813C49.7582 109.923 49.7256 110.042 49.7171 110.164C49.7085 110.286 49.7241 110.408 49.7629 110.524L53.8367 122.747C54.2943 124.117 55.1706 125.309 56.3419 126.155C57.5132 127 58.9205 127.457 60.3652 127.46C61.1085 127.46 61.8468 127.339 62.5516 127.103L131.683 104.06C132.542 103.774 133.335 103.321 134.019 102.729C134.702 102.136 135.263 101.414 135.667 100.605C136.072 99.7956 136.313 98.9145 136.377 98.012C136.441 97.1095 136.326 96.2032 136.04 95.3449ZM100.361 35.7507C100.361 40.3714 98.9191 43.7274 96.5044 44.7274C95.9207 44.9816 95.2733 45.051 94.649 44.9263C94.0247 44.8017 93.4536 44.4888 93.0124 44.0299C92.5492 43.6243 92.2027 43.1024 92.0088 42.518C91.815 41.9336 91.7808 41.308 91.9098 40.706C92.3709 38.7517 94.5406 36.9966 97.8623 35.8888L100.361 35.056V35.7507Z" fill="url(#paint0_linear)"/>
<path d="M102.223 98.3131V49.1569C102.223 48.91 102.125 48.6732 101.95 48.4986C101.775 48.324 101.539 48.2259 101.292 48.2259C101.045 48.2259 100.808 48.324 100.633 48.4986C100.459 48.6732 100.361 48.91 100.361 49.1569V98.3131C100.359 99.646 99.829 100.924 98.8865 101.866C97.944 102.809 96.6662 103.339 95.3334 103.34H23.8334C22.5005 103.339 21.2227 102.809 20.2802 101.866C19.3378 100.924 18.8076 99.646 18.806 98.3131V48.3772C18.8066 47.9624 18.653 47.5623 18.375 47.2544C18.0971 46.9466 17.7146 46.7531 17.3019 46.7116C15.6449 46.5645 14.1068 45.7897 13.0024 44.5458C11.898 43.3018 11.3108 41.6828 11.361 40.0201C11.4354 38.3959 12.1042 36.8557 13.2403 35.6926C14.3763 34.5295 15.9003 33.8245 17.5223 33.7119C18.5278 33.6561 19.5325 33.8351 20.457 34.2346C21.3814 34.6342 22.2002 35.2433 22.8486 36.0139C22.9485 36.1323 23.0764 36.2238 23.2207 36.2801C23.365 36.3364 23.5211 36.3556 23.6748 36.3362L29.2644 35.6379C29.4397 35.6161 29.6052 35.5448 29.7415 35.4324C29.8778 35.3199 29.9792 35.171 30.0339 35.0029C31.1955 31.4441 33.3855 29.2337 35.75 29.2337C39.2827 29.2337 42.267 34.2647 42.267 40.2194C42.267 46.1741 39.2827 51.2051 35.75 51.2051C33.4538 51.2051 31.1155 48.7692 29.9321 45.1442C29.8781 44.9789 29.7789 44.832 29.6457 44.7202C29.5125 44.6083 29.3507 44.536 29.1786 44.5114L23.965 43.7666C23.7206 43.7317 23.4724 43.7953 23.2748 43.9434C23.0773 44.0916 22.9468 44.3121 22.9118 44.5565C22.8769 44.8009 22.9405 45.0492 23.0887 45.2467C23.2368 45.4442 23.4573 45.5748 23.7017 45.6097L28.353 46.2745C29.8681 50.4203 32.7294 53.0671 35.75 53.0671C40.2434 53.0671 43.7966 47.9019 44.0993 41.1504H56.6042C56.8511 41.1504 57.0879 41.0523 57.2625 40.8777C57.4371 40.7031 57.5352 40.4663 57.5352 40.2194C57.5352 39.9725 57.4371 39.7357 57.2625 39.5611C57.0879 39.3865 56.8511 39.2884 56.6042 39.2884H44.0993C43.7966 32.5369 40.2433 27.3717 35.75 27.3717C32.6931 27.3717 29.9365 29.8425 28.4592 33.8625L23.9257 34.4284C23.0944 33.5525 22.0821 32.8683 20.9594 32.4235C19.8367 31.9787 18.6305 31.784 17.4248 31.8529C15.3253 31.9661 13.3451 32.8645 11.8771 34.3698C10.4092 35.875 9.56075 37.8771 9.50023 39.9788C9.4397 42.0805 10.1715 44.1281 11.5504 45.7154C12.9293 47.3026 14.8545 48.3135 16.9441 48.5474V98.3131C16.9461 100.14 17.6726 101.891 18.9641 103.182C20.2557 104.474 22.0068 105.2 23.8334 105.202H95.3334C97.1599 105.2 98.9111 104.474 100.203 103.182C101.494 101.891 102.221 100.14 102.223 98.3131Z" fill="url(#paint1_linear)"/>
<path d="M87.0541 68.6524C86.9677 68.566 86.8651 68.4974 86.7521 68.4506C86.6392 68.4038 86.5181 68.3797 86.3959 68.3797C86.2736 68.3797 86.1525 68.4038 86.0396 68.4506C85.9267 68.4974 85.824 68.566 85.7376 68.6524L83.1199 71.2708C82.7323 71.6582 82.2385 71.922 81.7009 72.0288C81.1634 72.1356 80.6062 72.0806 80.0999 71.8708C79.5936 71.661 79.1609 71.3059 78.8564 70.8502C78.5519 70.3945 78.3894 69.8587 78.3893 69.3107C78.3892 68.3944 78.1173 67.4988 77.6082 66.737C77.0991 65.9753 76.3756 65.3815 75.5291 65.0309C74.6826 64.6803 73.7511 64.5885 72.8524 64.7672C71.9538 64.9459 71.1283 65.387 70.4803 66.0347L65.2449 71.2708C64.8572 71.6579 64.3634 71.9214 63.8259 72.0281C63.2885 72.1347 62.7315 72.0797 62.2253 71.8699C61.7191 71.6602 61.2864 71.3051 60.9819 70.8496C60.6774 70.3941 60.5147 69.8586 60.5143 69.3107C60.5139 68.3945 60.2419 67.4991 59.7327 66.7375C59.2236 65.9759 58.5001 65.3823 57.6537 65.0317C56.8073 64.6812 55.876 64.5893 54.9774 64.7679C54.0789 64.9464 53.2534 65.3872 52.6053 66.0347L47.3699 71.2708C46.9821 71.6579 46.4883 71.9213 45.9509 72.0279C45.4135 72.1345 44.8565 72.0794 44.3504 71.8697C43.8442 71.66 43.4116 71.305 43.107 70.8495C42.8025 70.394 42.6398 69.8586 42.6393 69.3107C42.6388 68.3946 42.3668 67.4992 41.8576 66.7377C41.3484 65.9761 40.6249 65.3826 39.7786 65.032C38.9322 64.6815 38.001 64.5896 37.1024 64.7681C36.2039 64.9466 35.3784 65.3873 34.7303 66.0347L32.1126 68.6524C32.0259 68.7388 31.9571 68.8414 31.9101 68.9545C31.8631 69.0675 31.8388 69.1886 31.8387 69.311C31.8386 69.4334 31.8626 69.5546 31.9094 69.6677C31.9562 69.7808 32.0248 69.8836 32.1114 69.9701C32.1979 70.0567 32.3007 70.1253 32.4138 70.1721C32.5269 70.2189 32.6481 70.2429 32.7705 70.2428C32.8929 70.2427 33.0141 70.2184 33.1271 70.1714C33.2401 70.1244 33.3427 70.0556 33.4291 69.9689L36.0468 67.3512C36.4345 66.9642 36.9283 66.7008 37.4656 66.5942C38.003 66.4876 38.5599 66.5426 39.066 66.7522C39.5721 66.9619 40.0048 67.3168 40.3094 67.7721C40.614 68.2275 40.7768 68.7628 40.7774 69.3107C40.7778 70.2268 41.0497 71.1223 41.5588 71.8839C42.0679 72.6456 42.7914 73.2393 43.6378 73.5899C44.4842 73.9406 45.4155 74.0325 46.3141 73.854C47.2127 73.6756 48.0382 73.2348 48.6864 72.5873L53.9218 67.3512C54.3095 66.9642 54.8032 66.7007 55.3406 66.594C55.878 66.4874 56.4349 66.5424 56.9411 66.752C57.4472 66.9617 57.8799 67.3166 58.1845 67.772C58.4891 68.2274 58.6519 68.7628 58.6524 69.3107C58.6527 70.2269 58.9245 71.1224 59.4337 71.8841C59.9428 72.6458 60.6662 73.2395 61.5127 73.5902C62.3591 73.9409 63.2905 74.0328 64.1891 73.8543C65.0877 73.6758 65.9133 73.2349 66.5614 72.5873L71.7968 67.3512C72.1844 66.9638 72.6781 66.7 73.2156 66.5931C73.7531 66.4862 74.3102 66.5411 74.8166 66.7508C75.3229 66.9606 75.7556 67.3157 76.0602 67.7713C76.3647 68.2269 76.5273 68.7626 76.5274 69.3107C76.5177 70.2291 76.7855 71.1291 77.2958 71.8928C77.8061 72.6566 78.535 73.2485 79.3872 73.591C79.9581 73.8302 80.5706 73.9543 81.1896 73.9562C81.7944 73.9542 82.3929 73.8322 82.9502 73.5972C83.5076 73.3623 84.0127 73.019 84.4364 72.5873L87.0541 69.9689C87.1406 69.8825 87.2092 69.7799 87.256 69.6669C87.3028 69.554 87.3268 69.4329 87.3268 69.3107C87.3268 69.1884 87.3028 69.0674 87.256 68.9544C87.2092 68.8415 87.1406 68.7389 87.0541 68.6524Z" fill="url(#paint2_linear)"/>
<path d="M85.7376 85.0079L83.1199 87.6256C82.7324 88.0133 82.2387 88.2773 81.7011 88.3843C81.1635 88.4912 80.6063 88.4364 80.0999 88.2266C79.5935 88.0169 79.1607 87.6617 78.8562 87.2059C78.5517 86.7501 78.3893 86.2143 78.3893 85.6662C78.3894 84.7498 78.1177 83.8541 77.6086 83.0922C77.0995 82.3302 76.3759 81.7364 75.5293 81.3857C74.6827 81.0351 73.7512 80.9434 72.8524 81.1222C71.9537 81.301 71.1282 81.7423 70.4803 82.3903L65.2449 87.6256C64.8572 88.0127 64.3635 88.2762 63.8261 88.3828C63.2887 88.4895 62.7318 88.4345 62.2256 88.2248C61.7195 88.0152 61.2868 87.6603 60.9822 87.2049C60.6776 86.7495 60.5148 86.214 60.5143 85.6662C60.514 84.75 60.2421 83.8545 59.7329 83.0928C59.2238 82.3311 58.5003 81.7375 57.6539 81.3869C56.8074 81.0363 55.876 80.9445 54.9774 81.1231C54.0788 81.3017 53.2533 81.7426 52.6053 82.3903L47.3699 87.6256C46.9822 88.0127 46.4885 88.2762 45.9511 88.3828C45.4137 88.4895 44.8568 88.4345 44.3506 88.2248C43.8445 88.0152 43.4118 87.6603 43.1072 87.2049C42.8026 86.7495 42.6398 86.214 42.6393 85.6662C42.639 84.75 42.3671 83.8545 41.8579 83.0928C41.3488 82.3311 40.6253 81.7375 39.7789 81.3869C38.9324 81.0363 38.001 80.9445 37.1024 81.1231C36.2038 81.3017 35.3783 81.7426 34.7303 82.3903L32.1126 85.0079C32.0259 85.0943 31.9571 85.197 31.9101 85.31C31.8631 85.423 31.8388 85.5441 31.8387 85.6665C31.8386 85.7889 31.8626 85.9101 31.9094 86.0232C31.9562 86.1363 32.0248 86.2391 32.1114 86.3257C32.1979 86.4122 32.3007 86.4808 32.4138 86.5276C32.5269 86.5744 32.6481 86.5984 32.7705 86.5983C32.8929 86.5982 33.0141 86.5739 33.1271 86.5269C33.2401 86.4799 33.3427 86.4111 33.4291 86.3244L36.0468 83.7067C36.4345 83.3197 36.9283 83.0563 37.4656 82.9497C38.003 82.8431 38.5599 82.8981 39.066 83.1077C39.5721 83.3174 40.0048 83.6723 40.3094 84.1276C40.614 84.583 40.7768 85.1183 40.7774 85.6662C40.7778 86.5823 41.0498 87.4777 41.5589 88.2393C42.0681 89.001 42.7916 89.5946 43.638 89.9451C44.4844 90.2957 45.4157 90.3875 46.3143 90.209C47.2128 90.0305 48.0383 89.5896 48.6864 88.9421L53.9218 83.7068C54.3094 83.3195 54.8032 83.0558 55.3406 82.949C55.8781 82.8423 56.4351 82.8972 56.9413 83.1069C57.4476 83.3166 57.8803 83.6716 58.1849 84.1271C58.4894 84.5826 58.6521 85.1182 58.6524 85.6662C58.6528 86.5823 58.9248 87.4777 59.4339 88.2393C59.9431 89.001 60.6666 89.5946 61.513 89.9451C62.3594 90.2957 63.2907 90.3875 64.1893 90.209C65.0878 90.0305 65.9133 89.5896 66.5614 88.9421L71.7968 83.7068C72.1843 83.3192 72.6781 83.0553 73.2156 82.9483C73.7532 82.8414 74.3104 82.8963 74.8167 83.106C75.3231 83.3157 75.7559 83.6709 76.0604 84.1266C76.3649 84.5823 76.5274 85.1181 76.5274 85.6662C76.5176 86.5846 76.7854 87.4845 77.2955 88.2482C77.8056 89.0119 78.5344 89.6039 79.3865 89.9466C79.9578 90.1853 80.5705 90.3091 81.1896 90.311C81.7944 90.309 82.3929 90.1869 82.9502 89.952C83.5075 89.717 84.0127 89.3737 84.4364 88.9421L87.0541 86.3244C87.2281 86.1498 87.3257 85.9131 87.3255 85.6666C87.3253 85.42 87.2272 85.1836 87.0529 85.0092C86.8785 84.8348 86.6421 84.7368 86.3955 84.7365C86.1489 84.7363 85.9123 84.8339 85.7376 85.0079Z" fill="url(#paint3_linear)"/>
<defs>
<linearGradient id="paint0_linear" x1="72.9454" y1="19.9238" x2="72.9454" y2="127.46" gradientUnits="userSpaceOnUse">
<stop stop-color="#93C437"/>
<stop offset="1" stop-color="#279BE8"/>
</linearGradient>
<linearGradient id="paint1_linear" x1="72.9454" y1="19.9238" x2="72.9454" y2="127.46" gradientUnits="userSpaceOnUse">
<stop stop-color="#93C437"/>
<stop offset="1" stop-color="#279BE8"/>
</linearGradient>
<linearGradient id="paint2_linear" x1="72.9454" y1="19.9238" x2="72.9454" y2="127.46" gradientUnits="userSpaceOnUse">
<stop stop-color="#93C437"/>
<stop offset="1" stop-color="#279BE8"/>
</linearGradient>
<linearGradient id="paint3_linear" x1="72.9454" y1="19.9238" x2="72.9454" y2="127.46" gradientUnits="userSpaceOnUse">
<stop stop-color="#93C437"/>
<stop offset="1" stop-color="#279BE8"/>
</linearGradient>
</defs>
</svg>
