<svg width="193" height="192" viewBox="0 0 193 192" fill="none" xmlns="http://www.w3.org/2000/svg">
<path d="M149.2 183.2L176.9 141.6C180.4 136.3 176.6 129.2 170.2 129.2H155.1C155.1 129.2 152.1 115.2 157.1 105.2C160.1 99.2 166.1 95.2 166.1 83.2C166.1 71.2 162.1 69.2 162.1 63.2C162.1 58.2 165.1 55.2 167.1 53.2L170.7 49.6C172 48.3 171.1 46.2 169.3 46.2H167.1C169.1 41.2 165.1 39.2 165.1 39.2L157.1 47.2C151.6 47.2 147.1 51.7 147.1 57.2H140.2C139.6 57.2 139.1 57.7 139.2 58.3C139.8 62.2 143.1 65.2 147.1 65.2C147.1 79.2 133.1 86.2 125.1 98.2C121.1 104.2 117.1 113.2 117.1 123.2C108.3 123.2 101.1 116 101.1 107.2C101.1 104.9 101.7 102.5 102.4 100.7C102.7 100 102.1 99.2 101.4 99.4C93.7996 100.5 85.0996 109 85.0996 119.3C85.0996 133.3 99.0996 142.3 119.1 142.3C124.1 142.3 127.1 140.3 127.1 137.3C127.1 134.3 124.1 132.3 119.1 132.3C100.1 132.3 51.0996 154.3 19.0996 178.3M34.0996 11.5C29.4996 11 24.9996 11.2 20.6996 12.1C19.6996 12.3 19.5996 13.6 20.5996 14C37.3996 20.2 49.2996 36.3 49.2996 55.3C49.2996 74.2 37.3996 90.3 20.5996 96.5C19.6996 96.9 19.7996 98.2 20.7996 98.4C23.5996 98.9 26.3996 99.2 29.2996 99.2C54.4996 99.2 74.6996 78.1 73.1996 52.6C71.8996 31.4 55.2996 13.8 34.0996 11.5Z" stroke="black" stroke-width="2.5" stroke-miterlimit="10" stroke-linecap="round" stroke-linejoin="round"/>
</svg>
