<svg width="193" height="192" viewBox="0 0 193 192" fill="none" xmlns="http://www.w3.org/2000/svg">
<path d="M104.299 168.2L100.299 160.2H94.2992L90.2992 156.2C90.2992 156.2 92.2992 154.6 92.9992 152C93.1992 151.4 93.8992 151.1 94.4992 151.5C95.0992 151.9 95.9992 152.2 97.1992 152.2C99.8992 152.2 102.299 150.5 102.999 147.9C104.099 143.9 101.099 140.2 97.1992 140.2C93.9992 140.2 91.9992 142.2 91.3992 144.5C91.1992 145.2 90.4992 145.5 89.8992 145.1C89.0992 144.6 88.1992 144.2 87.1992 144.2C85.5992 144.2 84.0992 144.9 82.9992 145.9C82.6992 146.2 82.1992 146.3 81.8992 146.1C79.6992 144.9 76.5992 144.2 73.1992 144.2C66.5992 144.2 61.1992 146.9 61.1992 150.2C61.1992 152.2 63.1992 153.2 63.1992 153.2M73.2992 168.2L77.2992 160.2H82.2992C83.9992 160.2 85.2992 158.9 85.2992 157.2C85.2992 155.5 83.9992 154.2 82.2992 154.2H71.2992L65.2992 164.2L57.2992 168.2M103.299 146.2H109.299M101.499 142L105.699 137.8M97.2992 140.2L81.2992 124.2M93.2992 127.2C93.2992 116.2 85.2992 108.2 65.2992 108.2C65.2992 128.2 73.2992 136.2 84.2992 136.2M89.2992 61.2H129.299M100.299 54.2C106.299 48.2 115.299 44.2 125.299 44.2C135.299 44.2 145.299 49.2 157.299 61.2C145.299 73.2 135.299 78.2 122.299 78.2C104.299 78.2 109.799 57.7 130.299 78.2L151.299 99.2M134.099 105.2H176.199M109.299 120L117.799 117.2L121.999 121.4H127.699C127.699 121.4 127.399 118.8 128.699 116.5C128.999 115.9 128.699 115.2 127.999 115.1C127.299 114.9 126.399 114.5 125.499 113.7C123.599 111.8 123.099 108.9 124.499 106.6C126.599 103 131.299 102.5 133.999 105.3C136.299 107.6 136.299 110.4 134.999 112.5C134.599 113.1 134.999 113.9 135.699 114C136.599 114.2 137.599 114.6 138.199 115.3C139.399 116.5 139.899 118 139.999 119.5C139.999 119.9 140.299 120.3 140.699 120.4C143.099 121.1 145.699 122.8 148.199 125.2C152.899 129.9 154.799 135.6 152.399 137.9C150.999 139.3 148.899 138.6 148.899 138.6M131.199 141.9L133.999 133.4L130.499 129.9C129.299 128.7 129.299 126.8 130.499 125.7C131.699 124.5 133.599 124.5 134.699 125.7L142.399 133.4L139.599 144.7L142.399 153.2M125.499 105.2L121.299 100.9M129.799 103.4V97.4M156.199 105.2L166.199 94.2M163.299 111.2L184.299 132.2M8.19922 48.2L28.1992 28.2C32.1992 24.2 35.8992 23 37.3992 22.5M98.2992 46.2L80.2992 28.2C76.2992 24.2 72.5992 23 71.0992 22.5M64.2992 75.9999L72.7992 73.2L76.9992 77.3999H82.6992C82.6992 77.3999 82.3992 74.7999 83.6992 72.4999C83.9992 71.8999 83.6992 71.1999 82.9992 71.0999C82.2992 70.8999 81.3992 70.5 80.4992 69.7C78.5992 67.8 78.0992 64.8999 79.4992 62.5999C81.5992 58.9999 86.2992 58.4999 88.9992 61.2999C91.2992 63.5999 91.2992 66.3999 89.9992 68.4999C89.5992 69.0999 89.9992 69.8999 90.6992 69.9999C91.5992 70.1999 92.5992 70.5999 93.1992 71.2999C94.3992 72.4999 94.8992 73.9999 94.9992 75.4999C94.9992 75.8999 95.2992 76.2999 95.6992 76.3999C98.0992 77.0999 100.699 78.8 103.199 81.2C107.899 85.9 109.799 91.5999 107.399 93.8999C105.999 95.2999 103.899 94.5999 103.899 94.5999M86.1992 97.8999L88.9992 89.3999L85.4992 85.8999C84.2992 84.6999 84.2992 82.8 85.4992 81.7C86.6992 80.5 88.5992 80.5 89.6992 81.7L97.3992 89.3999L94.5992 100.7L97.3992 109.2M80.4992 61.2L76.2992 56.9M84.7992 59.4V53.4M78.2992 28.2C78.2992 32.6182 67.5541 36.2 54.2992 36.2C41.0444 36.2 30.2992 32.6182 30.2992 28.2C30.2992 23.7817 41.0444 20.2 54.2992 20.2C67.5541 20.2 78.2992 23.7817 78.2992 28.2Z" stroke="black" stroke-width="2.5" stroke-miterlimit="10" stroke-linecap="round" stroke-linejoin="round"/>
</svg>
