<svg width="321" height="320" viewBox="0 0 321 320" fill="none" xmlns="http://www.w3.org/2000/svg">
<path d="M159.2 248.2H166.3C167.4 248.2 168.2 247.4 168.3 246.3C169.3 228.8 184.5 215 202.5 216.3C218.3 217.4 231.1 230.2 232.2 246C233.5 264.7 218.7 280.3 200.3 280.3C185 280.3 172.3 269.3 169.3 255.3M239.2 248.2H278.2C288.1 248.2 296.2 240.1 296.2 230.2V66.2C296.2 56.3 288.1 48.2 278.2 48.2H42.2002C32.3002 48.2 24.2002 56.3 24.2002 66.2V230.2C24.2002 240.1 32.3002 248.2 42.2002 248.2H86.3002C87.4002 248.2 88.2002 247.4 88.3002 246.3C89.3002 228.8 104.5 215 122.5 216.3C138.3 217.4 151.1 230.2 152.2 246C153.5 264.7 138.7 280.3 120.3 280.3C105 280.3 92.3002 269.3 89.3002 255.3M137.2 187.2C140.2 197 149.4 204.2 160.2 204.2C172.6 204.2 182.8 194.8 184.1 182.7C184.2 181.4 185.5 180.7 186.7 181.1L208.2 188.3C220.2 192.3 236.2 197.3 236.2 213.3M180.2 122.2L184.2 134.2C186.2 140.2 184.2 142.2 180.2 142.2H174.2C169.7 142.2 165.9 145.2 164.6 149.3C164.1 151 162.5 152.2 160.8 152.2C156.1 152.2 152.2 148.4 152.2 143.6V124.2C152.2 117.6 146.8 112.2 140.2 112.2H134.3C133.1 112.2 132.2 111.2 132.3 110.1C133.4 93.1 147.8 79.8 165.1 80.3C182.5 80.8 196.2 95.5 196.2 113V148.2C196.2 161.3 185.5 172.3 172.4 172.4C148.5 172.5 128.5 146.9 128.2 128.8C128.1 125.6 130.4 122.7 133.6 122.4C137.2 122 140.2 124.8 140.2 128.4C140.2 128.4 140.2 156.4 140.2 168.4C140.2 180.4 136.2 180.4 124.2 184.4C112.2 188.4 124.2 184.4 112.2 188.4C100.2 192.4 84.2002 197.4 84.2002 213.4M24.2002 144.3L67.2002 101.3C76.6002 91.9 91.8002 91.9 101.1 101.3L121.1 121.3M204.2 140.2L223.2 121.2C232.6 111.8 247.8 111.8 257.1 121.2L296.1 160.2M209.2 244.2L216.6 239.2C217.3 238.8 218.2 239.2 218.2 240V256.1C218.2 256.9 217.2 257.4 216.6 256.9L209.2 251.2V244.2ZM209.2 244.2V256.2C209.2 258.4 207.4 260.2 205.2 260.2H193.2M186.2 259.2C186.2 259.2 185.2 258.2 185.2 256.2V240.2C185.2 238 187 236.2 189.2 236.2H205.2C207.2 236.2 208.2 237.2 208.2 237.2M214.2 231.2L181.2 264.2M130.2 266.2H110.2M113.2 253.2V237.2C113.2 233.3 116.3 230.2 120.2 230.2C124.1 230.2 127.2 233.3 127.2 237.2V239.2M127.2 246.2V251.2C127.2 255.1 124.1 258.2 120.2 258.2M120.2 258.2C118.7 258.2 117.3 258 116.2 257.2M120.2 258.2V259.2C120.2 263.1 123.3 266.2 127.2 266.2M136.2 230.2L103.2 263.2M280.2 80.2C280.2 89.0366 273.037 96.2 264.2 96.2C255.364 96.2 248.2 89.0366 248.2 80.2C248.2 71.3635 255.364 64.2 264.2 64.2C273.037 64.2 280.2 71.3635 280.2 80.2Z" stroke="black" stroke-width="2.5" stroke-miterlimit="10" stroke-linecap="round" stroke-linejoin="round"/>
<path d="M168.2 128.2C169.305 128.2 170.2 127.305 170.2 126.2C170.2 125.095 169.305 124.2 168.2 124.2C167.096 124.2 166.2 125.095 166.2 126.2C166.2 127.305 167.096 128.2 168.2 128.2Z" fill="black"/>
</svg>
