<svg width="192" height="192" viewBox="0 0 192 192" fill="none" xmlns="http://www.w3.org/2000/svg">
<path d="M50.8662 100.199H89.8662C92.0662 100.199 93.8662 98.3992 93.8662 96.1992M93.8662 96.1992C93.8662 93.9992 92.0662 92.1992 89.8662 92.1992H50.8662C44.8662 84.1992 30.8662 76.1992 19.8662 76.1992C12.8662 76.1992 7.86621 81.5992 7.86621 88.1992C7.86621 94.7992 13.2662 100.199 19.8662 100.199C22.8662 100.199 24.8662 98.3992 24.8662 96.1992C24.8662 93.9992 22.8662 92.1992 19.8662 92.1992C13.2662 92.1992 7.86621 97.5992 7.86621 104.199C7.86621 110.799 12.8662 116.199 19.8662 116.199C24.9662 116.199 29.9662 114.799 34.4662 112.499C35.6662 111.899 37.0662 112.599 37.3662 113.899C44.5662 151.799 74.3662 180.199 109.866 180.199C150.766 180.199 183.866 142.599 183.866 96.1992C183.866 49.7992 150.766 12.1992 109.866 12.1992C75.6662 12.1992 46.9662 38.4992 38.4662 74.1992M93.8662 96.1992H108.866M67.1662 108.299C71.8662 130.099 89.2662 146.299 109.866 146.299C134.166 146.299 153.866 123.899 153.866 96.2992C153.866 68.6992 134.166 46.2992 109.866 46.2992C89.1662 46.2992 71.8662 62.4992 67.1662 84.2992M97.7662 104.299C100.166 109.099 104.666 112.299 109.866 112.299C117.566 112.299 123.866 105.099 123.866 96.2992C123.866 87.4992 117.566 80.2992 109.866 80.2992C104.666 80.2992 100.166 83.4992 97.7662 88.2992" stroke="url(#paint0_linear)" stroke-width="2.5" stroke-miterlimit="10" stroke-linecap="round" stroke-linejoin="round"/>
<defs>
<linearGradient id="paint0_linear" x1="95.8662" y1="12.1992" x2="95.8662" y2="180.199" gradientUnits="userSpaceOnUse">
<stop stop-color="#93C437"/>
<stop offset="1" stop-color="#279BE8"/>
</linearGradient>
</defs>
</svg>
