<svg width="321" height="320" viewBox="0 0 321 320" fill="none" xmlns="http://www.w3.org/2000/svg">
<path d="M138.8 212C127.5 207.3 117.7 199 111.4 187.7C109.6 184.6 111 180.6 114.3 179.2C117.1 178 120.4 179.2 121.9 181.9C125.6 188.5 130.9 193.9 137.1 197.7C140.3 199.7 144.4 198.4 145.9 194.9C147 192.2 146 189 143.5 187.5C130.3 179.4 124.6 162.7 130.7 148C135.8 135.7 147.7 128.2 160.3 128.2M181.7 108.5C193 113.2 202.8 121.5 209.1 132.8C210.9 135.9 209.5 139.9 206.2 141.3C203.4 142.5 200.1 141.3 198.6 138.6C194.9 132 189.6 126.6 183.4 122.8C180.2 120.8 176.1 122.1 174.6 125.6C173.5 128.3 174.5 131.5 177 133C190.2 141.1 195.9 157.8 189.8 172.5C184.7 184.8 172.8 192.3 160.2 192.3M278.2 264.2C288.1 264.2 296.2 256.1 296.2 246.2V74.2C296.2 64.3 288.1 56.2 278.2 56.2H42.2002C32.3002 56.2 24.2002 64.3 24.2002 74.2V246.2C24.2002 256.1 32.3002 264.2 42.2002 264.2H278.2ZM145.7 145.6C144.9 146.4 144.5 147.5 144.5 148.6C144.5 155.7 147.2 162.9 152.6 168.3C157.8 173.5 164.7 176.2 171.6 176.4C172.7 176.4 173.8 176 174.6 175.2L175.9 173.9C177.5 172.3 177.5 169.6 175.9 168L172.9 165C171.3 163.4 168.6 163.4 167 165L165.2 166.8C164.3 167.7 162.9 168 161.6 167.5C159.8 166.8 158.1 165.7 156.7 164.2C155.1 162.6 153.9 160.6 153.1 158.6C152.7 157.4 153 156.1 153.9 155.2L155.6 153.5C157.2 151.9 157.2 149.2 155.6 147.6L152.7 144.7C151.1 143.1 148.4 143.1 146.8 144.7L145.7 145.6Z" stroke="black" stroke-width="2.5" stroke-miterlimit="10" stroke-linecap="round" stroke-linejoin="round"/>
</svg>
