<svg width="320" height="320" viewBox="0 0 320 320" fill="none" xmlns="http://www.w3.org/2000/svg">
<path d="M138.244 212C126.944 207.3 117.144 199 110.844 187.7C109.044 184.6 110.444 180.6 113.744 179.2C116.544 178 119.844 179.2 121.344 181.9C125.044 188.5 130.344 193.9 136.544 197.7C139.744 199.7 143.844 198.4 145.344 194.9C146.444 192.2 145.444 189 142.944 187.5C129.744 179.4 124.044 162.7 130.144 148C135.244 135.7 147.144 128.2 159.744 128.2M181.144 108.5C192.444 113.2 202.244 121.5 208.544 132.8C210.344 135.9 208.944 139.9 205.644 141.3C202.844 142.5 199.544 141.3 198.044 138.6C194.344 132 189.044 126.6 182.844 122.8C179.644 120.8 175.544 122.1 174.044 125.6C172.944 128.3 173.944 131.5 176.444 133C189.644 141.1 195.344 157.8 189.244 172.5C184.144 184.8 172.244 192.3 159.644 192.3M277.644 264.2C287.544 264.2 295.644 256.1 295.644 246.2V74.2C295.644 64.3 287.544 56.2 277.644 56.2H41.6443C31.7443 56.2 23.6443 64.3 23.6443 74.2V246.2C23.6443 256.1 31.7443 264.2 41.6443 264.2H277.644ZM145.144 145.6C144.344 146.4 143.944 147.5 143.944 148.6C143.944 155.7 146.644 162.9 152.044 168.3C157.244 173.5 164.144 176.2 171.044 176.4C172.144 176.4 173.244 176 174.044 175.2L175.344 173.9C176.944 172.3 176.944 169.6 175.344 168L172.344 165C170.744 163.4 168.044 163.4 166.444 165L164.644 166.8C163.744 167.7 162.344 168 161.044 167.5C159.244 166.8 157.544 165.7 156.144 164.2C154.544 162.6 153.344 160.6 152.544 158.6C152.144 157.4 152.444 156.1 153.344 155.2L155.044 153.5C156.644 151.9 156.644 149.2 155.044 147.6L152.144 144.7C150.544 143.1 147.844 143.1 146.244 144.7L145.144 145.6Z" stroke="url(#paint0_linear)" stroke-width="2.5" stroke-miterlimit="10" stroke-linecap="round" stroke-linejoin="round"/>
<defs>
<linearGradient id="paint0_linear" x1="159.644" y1="56.2" x2="159.644" y2="264.2" gradientUnits="userSpaceOnUse">
<stop stop-color="#FFBE4F"/>
<stop offset="1" stop-color="#F26B1D"/>
</linearGradient>
</defs>
</svg>
