<svg width="193" height="192" viewBox="0 0 193 192" fill="none" xmlns="http://www.w3.org/2000/svg">
<path d="M158.6 58.5L167.6 49.5C169.3 47.8 171.9 47.8 173.6 49.5C175.3 51.2 175.3 53.8 173.6 55.5L166.6 62.5L174.6 70.5C176.8 72.7 176.8 76.3 174.6 78.5C172.4 80.7 168.8 80.7 166.6 78.5L158.6 70.5L150.6 76.1C149.6 76.8 149.5 78.3 150.3 79.2L150.6 79.5C151.7 80.6 151.7 82.4 150.6 83.5C149.5 84.6 147.7 84.6 146.6 83.5L139.6 76.5C138.5 75.4 138.5 73.6 139.6 72.5C140.7 71.4 142.5 71.4 143.6 72.5L143.9 72.8C144.8 73.7 146.2 73.6 147 72.5L152.6 64.5L144.6 56.5C142.4 54.3 142.4 50.7 144.6 48.5C146.8 46.3 150.4 46.3 152.6 48.5L156.3 52.2M60.2002 174.3C60.2002 161 49.5002 150.3 36.2002 150.3C36.2002 137 25.5002 126.3 12.2002 126.3M180.2 130.3C180.2 121.5 173 114.3 164.2 114.3C164.2 105.5 157 98.3 148.2 98.3M116.2 66.3C116.2 57.5 109 50.3 100.2 50.3C100.2 41.5 93.0002 34.3 84.2002 34.3M136.8 85.8L98.3002 124.3C90.3002 132.3 94.3002 141.3 101.3 141.3C110.3 141.3 112.3 126.3 97.3002 126.3C88.3002 126.3 75.3002 119.3 65.3002 109.3C58.1002 102.1 53.1002 93.5 49.9002 84.5C48.1002 79.3 49.4002 73.6 53.3002 69.7L60.7002 62.3C67.8002 55.2 67.8002 43.6 60.7002 36.5L47.7002 23.5C40.6002 16.4 29.0002 16.4 21.9002 23.5L17.7002 27.7C14.3002 31.1 12.4002 35.8 12.3002 40.7C12.1002 72 23.9002 103.2 47.7002 126.9C70.6002 149.8 100.5 161.6 130.5 162.3C135.4 162.4 140.1 160.4 143.6 156.9L149.4 151.1C156.5 144 156.5 132.4 149.4 125.3L135.3 111.2" stroke="black" stroke-width="2.5" stroke-miterlimit="10" stroke-linecap="round" stroke-linejoin="round"/>
</svg>
