<svg width="193" height="192" viewBox="0 0 193 192" fill="none" xmlns="http://www.w3.org/2000/svg">
<path d="M70.2002 111.2C70.2002 111.2 72.4002 118 73.2002 120.2C74.2002 123.2 72.2002 124.2 70.2002 124.2H68.2002M38.2002 110.2C44.2002 110.2 48.2002 106.2 52.2002 102.2C56.2002 98.2002 60.2002 94.2002 67.2002 94.2002C74.4002 94.2002 80.2002 100 80.2002 107.2V127.2C80.2002 135.5 73.5002 142.2 65.2002 142.2C49.2002 142.2 36.2002 127.2 36.2002 119.2C36.2002 117 38.0002 115.2 40.2002 115.2C42.4002 115.2 44.2002 117 44.2002 119.2V141.2C44.2002 145.6 40.6002 149.2 36.2002 149.2C26.5002 149.2 18.7002 157 18.7002 166.7C18.7002 176.4 26.5002 184.2 36.2002 184.2H153.2M113.2 175.2C92.2002 175.2 88.2002 149.2 64.2002 149.2M84.2002 99.2002C84.2002 90.4002 77.0002 83.2002 68.2002 83.2002C63.2002 83.2002 58.2002 83.2002 58.2002 83.2002C42.7002 83.2002 30.2002 95.7002 30.2002 111.2V116.2C30.2002 122.2 26.2002 124.2 24.2002 126.2C22.2002 128.2 18.2002 131.2 18.2002 137.2C18.2002 143.2 22.2002 147.2 22.2002 147.2M172.2 126.2C177.2 115.2 180.2 104.1 180.2 91.2002C180.2 44.8002 142.6 7.2002 96.2002 7.2002C49.8002 7.2002 12.2002 44.8002 12.2002 91.2002C12.2002 102.5 14.1002 113.3 18.2002 123.2M169.2 133.2H121.2C116.8 133.2 113.2 136.8 113.2 141.2V184.2H169.2C173.6 184.2 177.2 180.6 177.2 176.2V141.2C177.2 136.8 173.7 133.2 169.2 133.2ZM91.3002 32.2002C89.6002 33.9002 88.7002 36.1002 88.7002 38.4002C88.6002 53.3002 94.3002 68.2002 105.6 79.6002C116.6 90.6002 130.9 96.2002 145.2 96.5002C147.5 96.6002 149.8 95.6002 151.5 93.9002L154.3 91.1002C157.7 87.7002 157.7 82.1002 154.3 78.7002L148.1 72.5002C144.7 69.1002 139.1 69.1002 135.7 72.5002L131.8 76.4002C129.9 78.3002 126.9 78.9002 124.4 77.9002C120.6 76.4002 117.1 74.1002 114.1 71.0002C110.7 67.6002 108.2 63.5002 106.7 59.2002C105.8 56.7002 106.4 54.0002 108.3 52.1002L111.8 48.6002C115.2 45.2002 115.2 39.6002 111.8 36.2002L105.6 30.0002C102.2 26.6002 96.6002 26.6002 93.2002 30.0002L91.3002 32.2002Z" stroke="black" stroke-width="2.5" stroke-miterlimit="10" stroke-linecap="round" stroke-linejoin="round"/>
<path d="M60.2002 115.2C61.3048 115.2 62.2002 114.305 62.2002 113.2C62.2002 112.096 61.3048 111.2 60.2002 111.2C59.0956 111.2 58.2002 112.096 58.2002 113.2C58.2002 114.305 59.0956 115.2 60.2002 115.2Z" fill="black"/>
</svg>
