<svg width="192" height="192" viewBox="0 0 192 192" fill="none" xmlns="http://www.w3.org/2000/svg">
<path d="M158.266 58.5008L167.266 49.5008C168.966 47.8008 171.566 47.8008 173.266 49.5008C174.966 51.2008 174.966 53.8008 173.266 55.5008L166.266 62.5008L174.266 70.5008C176.466 72.7008 176.466 76.3008 174.266 78.5008C172.066 80.7008 168.466 80.7008 166.266 78.5008L158.266 70.5008L150.266 76.1008C149.266 76.8008 149.166 78.3008 149.966 79.2008L150.266 79.5008C151.366 80.6008 151.366 82.4008 150.266 83.5008C149.166 84.6008 147.366 84.6008 146.266 83.5008L139.266 76.5008C138.166 75.4008 138.166 73.6008 139.266 72.5008C140.366 71.4008 142.166 71.4008 143.266 72.5008L143.566 72.8008C144.466 73.7008 145.866 73.6008 146.666 72.5008L152.266 64.5008L144.266 56.5008C142.066 54.3008 142.066 50.7008 144.266 48.5008C146.466 46.3008 150.066 46.3008 152.266 48.5008L155.966 52.2008M59.8658 174.301C59.8658 161.001 49.1658 150.301 35.8658 150.301C35.8658 137.001 25.1658 126.301 11.8658 126.301M179.866 130.301C179.866 121.501 172.666 114.301 163.866 114.301C163.866 105.501 156.666 98.3008 147.866 98.3008M115.866 66.3008C115.866 57.5008 108.666 50.3008 99.8658 50.3008C99.8658 41.5008 92.6658 34.3008 83.8658 34.3008M136.466 85.8008L97.9658 124.301C89.9658 132.301 93.9658 141.301 100.966 141.301C109.966 141.301 111.966 126.301 96.9658 126.301C87.9658 126.301 74.9658 119.301 64.9658 109.301C57.7658 102.101 52.7658 93.5008 49.5658 84.5008C47.7658 79.3008 49.0658 73.6008 52.9658 69.7008L60.3658 62.3008C67.4658 55.2008 67.4658 43.6008 60.3658 36.5008L47.3658 23.5008C40.2658 16.4008 28.6658 16.4008 21.5658 23.5008L17.3658 27.7008C13.9658 31.1008 12.0658 35.8008 11.9658 40.7008C11.7658 72.0008 23.5658 103.201 47.3658 126.901C70.2658 149.801 100.166 161.601 130.166 162.301C135.066 162.401 139.766 160.401 143.266 156.901L149.066 151.101C156.166 144.001 156.166 132.401 149.066 125.301L134.966 111.201" stroke="url(#paint0_linear)" stroke-width="2.5" stroke-miterlimit="10" stroke-linecap="round" stroke-linejoin="round"/>
<defs>
<linearGradient id="paint0_linear" x1="95.8658" y1="18.1758" x2="95.8658" y2="174.301" gradientUnits="userSpaceOnUse">
<stop stop-color="#93C437"/>
<stop offset="1" stop-color="#279BE8"/>
</linearGradient>
</defs>
</svg>
