<svg width="121" height="120" viewBox="0 0 121 120" fill="none" xmlns="http://www.w3.org/2000/svg">
<path d="M34.2 72.2999V82.2M18.2 69.2V28.2C18.2 23.8 21.8 20.2 26.2 20.2H74.2C78.6 20.2 82.2 23.8 82.2 28.2V39.2999C82.2 40.0999 83.1 40.6 83.8 40.1L103 27.3C104.3 26.4 106.1 27.4 106.1 29V75.5C106.1 77.1 104.3 78.1 103 77.2L83.7 64.2999C83 63.8999 82.1 64.2999 82.1 65.0999V76.2C82.1 80.6 78.5 84.1999 74.1 84.1999H51.4C50.7 84.1999 50 83.7999 49.6 83.0999L39.4 63.9C37.1 59.7 31.1 59.7 28.9 63.9L15 89.4C12.8 93.4 15.7 98.3 20.3 98.3H49.2C51.4 98.3 53.2 96.5 53.2 94.3C53.2 92.1 51.4 90.3 49.2 90.3C41.2 90.3 34.2 104.3 34.2 104.3" stroke="black" stroke-width="2.5" stroke-miterlimit="10" stroke-linecap="round" stroke-linejoin="round"/>
<path d="M34.2 90.2C35.3046 90.2 36.2 89.3045 36.2 88.2C36.2 87.0954 35.3046 86.2 34.2 86.2C33.0954 86.2 32.2 87.0954 32.2 88.2C32.2 89.3045 33.0954 90.2 34.2 90.2Z" fill="black"/>
</svg>
