<svg width="192" height="192" viewBox="0 0 192 192" fill="none" xmlns="http://www.w3.org/2000/svg">
<path d="M19.8662 11.2002L45.8662 37.2002M45.8662 37.2002C48.8662 34.2002 53.8662 33.2002 56.8662 36.2002L64.8662 44.2002M45.8662 37.2002C42.8662 40.2002 41.8662 45.2002 44.8662 48.2002L52.8662 56.2002C55.8662 59.2002 60.8662 58.2002 63.8662 55.2002C66.8662 52.2002 67.8662 47.2002 64.8662 44.2002M27.8662 19.2002H43.8662M64.8662 44.2002C61.8662 41.2002 56.8662 42.2002 53.8662 45.2002M59.8662 51.2002L67.8662 59.2002M179.866 15.2002L153.866 41.2002M153.866 41.2002C150.866 38.2002 145.866 37.2002 142.866 40.2002L134.866 48.2002M153.866 41.2002C156.866 44.2002 157.866 49.2002 154.866 52.2002L146.866 60.2002C143.866 63.2002 138.866 62.2002 135.866 59.2002C132.866 56.2002 131.866 51.2002 134.866 48.2002M134.866 48.2002C137.866 45.2002 142.866 46.2002 145.866 49.2002M139.866 55.2002L131.866 63.2002M45.8662 147.2L65.8662 137.2C72.5662 133.9 74.2662 133 77.8662 133.2C80.4662 133.4 82.6662 135.3 82.8662 137.9C83.0662 141.1 79.9662 143.2 75.8662 143.2C62.5662 143.2 51.8662 132.5 51.8662 119.2C51.8662 92.0002 78.2662 79.9002 90.7662 46.3002C91.2662 44.9002 93.1662 44.5002 94.1662 45.7002C108.266 61.6002 111.866 83.3002 111.866 83.3002C117.066 80.7002 120.566 76.4002 122.366 73.7002C123.166 72.5002 124.866 72.5002 125.666 73.7002C129.866 79.6002 139.866 95.4002 139.866 111.3C139.866 129 125.566 143.3 107.866 143.3C94.5662 143.3 83.8662 132.6 83.8662 119.3C83.8662 110.4 90.4662 101.5 93.8662 97.5002C94.7662 96.4002 96.5662 96.6002 97.1662 97.9002L103.866 111.3L112.166 103C113.066 102.1 114.566 102.3 115.266 103.4C117.766 107.3 119.866 112.3 119.866 117.4M45.8662 147.2C41.8662 149.2 41.8662 155.2 43.8662 159.2C45.8662 163.2 49.8662 167.2 53.8662 165.2M45.8662 147.2C49.8662 145.2 53.8662 149.2 55.8662 153.2C57.8662 157.2 57.8662 163.2 53.8662 165.2M85.8662 173.2V152.4C85.8662 150.9 84.2662 149.9 82.9662 150.6L53.8662 165.2M85.8662 173.2C85.8662 178.723 90.3434 183.2 95.8662 183.2C101.389 183.2 105.866 178.723 105.866 173.2M85.8662 173.2C85.8662 167.677 90.3434 163.2 95.8662 163.2C101.389 163.2 105.866 167.677 105.866 173.2M137.866 165.2L108.766 150.6C107.466 149.9 105.866 150.9 105.866 152.4V173.2M137.866 165.2C141.866 167.2 145.866 163.2 147.866 159.2C149.866 155.2 149.866 149.2 145.866 147.2C141.866 145.2 137.866 149.2 135.866 153.2C133.866 157.2 133.866 163.2 137.866 165.2Z" stroke="url(#paint0_linear)" stroke-width="2.5" stroke-miterlimit="10" stroke-linecap="round" stroke-linejoin="round"/>
<defs>
<linearGradient id="paint0_linear" x1="99.8662" y1="11.2002" x2="99.8662" y2="183.2" gradientUnits="userSpaceOnUse">
<stop stop-color="#93C437"/>
<stop offset="1" stop-color="#279BE8"/>
</linearGradient>
</defs>
</svg>
