<svg width="121" height="120" viewBox="0 0 121 120" fill="none" xmlns="http://www.w3.org/2000/svg">
<path d="M81.2988 104.4V85.4001C81.2988 70.4001 97.2988 66.4001 97.2988 52.4001C97.2988 46.4001 93.2988 40.1001 89.2988 34.1001L77.1988 16.2001C76.2988 14.9001 74.3988 15.0001 73.6988 16.4001L69.1988 25.3001H60.1988L50.6988 15.8001C49.5988 14.7001 47.6988 15.2001 47.3988 16.7001L38.2988 52.3001C35.2988 64.3001 32.2988 74.3001 23.2988 84.3001" stroke="black" stroke-width="2.5" stroke-miterlimit="10" stroke-linecap="round" stroke-linejoin="round"/>
<path d="M79.1992 46.4001C80.3038 46.4001 81.1992 45.5047 81.1992 44.4001C81.1992 43.2956 80.3038 42.4001 79.1992 42.4001C78.0946 42.4001 77.1992 43.2956 77.1992 44.4001C77.1992 45.5047 78.0946 46.4001 79.1992 46.4001Z" fill="black"/>
<path d="M61.1992 46.4001C62.3038 46.4001 63.1992 45.5047 63.1992 44.4001C63.1992 43.2956 62.3038 42.4001 61.1992 42.4001C60.0946 42.4001 59.1992 43.2956 59.1992 44.4001C59.1992 45.5047 60.0946 46.4001 61.1992 46.4001Z" fill="black"/>
</svg>
