<svg width="320" height="320" viewBox="0 0 320 320" fill="none" xmlns="http://www.w3.org/2000/svg"><path d="M259.539 163.202a1.591 1.591 0 1 0 0-3.182 1.591 1.591 0 0 0 0 3.182Z" fill="url(#a)"/><path d="M46.362 115.476a1.591 1.591 0 1 0 0-3.183 1.591 1.591 0 0 0 0 3.183Z" fill="url(#b)"/><path d="M262.721 85.25a1.591 1.591 0 1 0 0-3.184 1.591 1.591 0 0 0 0 3.183Z" fill="url(#c)"/><path d="M87.243 208.996a1.25 1.25 0 0 0 0-2.5v2.5Zm-6.246 7.566a1.25 1.25 0 0 0 2.32-.928l-2.32.928ZM55.135 113.924a1.25 1.25 0 0 0-2.378.769l2.378-.769Zm1.343 7.979 1.185-.395-.01-.032-1.175.427ZM28.29 110.511h-1.25c0 .301.109.591.306.818l.944-.818Zm17.807-17.3.046-1.25h-.002l-.044 1.25Zm3.882 48.946-.016-1.25.016 1.25Zm-24.726-19.072-1.25.059.002.017 1.247-.076Zm3.037-3.713-.103-1.246-.015.001.119 1.245Zm-1.856 31.646.555 1.12.004-.002-.56-1.118Zm-10.211 5.063-.556-1.12-.009.005.565 1.115Zm12.067 56.525a1.25 1.25 0 1 0 0-2.5v2.5Zm25.729-61.141a1.25 1.25 0 0 0-2.5 0h2.5Zm21.173 11.769.898-.869a.43.43 0 0 0-.034-.033l-.864.902Zm2.333 2.408-.898.87.025.025.873-.895Zm8.115-.11.897.871v-.001l-.897-.87Zm14.877-15.359-.898-.871v.001l.898.87Zm1.264-2.589 1.24.153.001-.001-1.241-.152Zm10.175-11.432.515 1.139.042-.02-.557-1.119Zm2.94.557-.886.882.002.002.884-.884Zm-.16 3.818-.818-.945-.002.002.82.943Zm-3.065 2.667-.82-.943-.002.002.822.941Zm-.61 2.376 1.17-.438v-.001l-1.17.439Zm-4.864 11.713a1.25 1.25 0 1 0 1.332 2.115l-1.332-2.115Zm80.161 65.235a1.25 1.25 0 1 0 0-2.5v2.5Zm-20.626-10.509 1.163.458c.017-.043.031-.087.043-.132l-1.206-.326Zm.208-.769-1.194-.372-.013.045 1.207.327Zm12.057-38.712-1.186-.394-.007.022 1.193.372Zm.045-.147 1.186.394a.998.998 0 0 0 .016-.051l-1.202-.343Zm-1.751-7.095.913-.855a1.257 1.257 0 0 0-.344-.258l-.569 1.113Zm-41.925-21.404.569-1.113-.01-.005-.559 1.118Zm-6.463 2.275 1.201.349a.182.182 0 0 1 .007-.025l-1.208-.324Zm-11.947 41.126-1.2-.349-.002.006 1.202.343Zm-.045.168-1.195-.367a.969.969 0 0 0-.021.077l1.216.29Zm1.433 4.955-.887.881c.079.079.167.147.264.202l.623-1.083Zm2.713 1.559-.623 1.083v.001l.623-1.084Zm-32.73 12.531a1.25 1.25 0 0 0 0 2.5v-2.5Zm161.639-39.079-1.185-.398 1.185.398Zm2.73-8.145-1.185-.4-.001.003 1.186.397Zm46.023 28.053v1.25c.69 0 1.25-.56 1.25-1.25h-1.25Zm-16.473-11.117v-1.25c-.69 0-1.25.559-1.25 1.25h1.25Zm5.459-5.611 1.25-.037v-.001l-1.25.038Zm-15.771-21.292a1.25 1.25 0 1 0-2.5 0h2.5Zm10.312 38.02h-1.25c0 .69.56 1.25 1.25 1.25v-1.25Zm-39.285 25.61 1.087.616c.02-.034.037-.069.053-.105l-1.14-.511Zm-6.286 6.743h-1.25c0 .69.559 1.25 1.25 1.25v-1.25ZM110.881 72.611a1.25 1.25 0 0 0-1.768-1.768l1.768 1.768Zm-7.247 5.48-.884.883a1.249 1.249 0 0 0 1.768 0l-.884-.884Zm-8.662-10.43a1.25 1.25 0 0 0-1.767 1.768l1.767-1.768ZM82.1 221.193a1.25 1.25 0 1 0-1.385 2.081l1.385-2.081Zm5.859 5.402.698-1.037-.005-.004-.693 1.041Zm-67.54 9.182a1.25 1.25 0 0 0-2.5 0h2.5Zm-1.25 2.624.687 1.044a1.25 1.25 0 0 0 .563-1.044h-1.25Zm-1.146.754-.687-1.044-.007.004.694 1.04Zm0 1.082-.694 1.04.694-1.04Zm30.628 20.431.694-1.039-.694 1.039Zm0-7.87.694-1.04-.694 1.04Zm-30.628-20.431-.694 1.039.694-1.039Zm0-1.083-.693-1.04-.001.001.694 1.039Zm9.008-6.001.693 1.04a1.25 1.25 0 0 0 .557-1.04h-1.25Zm1.25-2.624a1.25 1.25 0 0 0-2.5 0h2.5Zm25.212 35.034a1.25 1.25 0 0 0 1.387 2.081l-1.387-2.081Zm35.973-22.473.693 1.04v-.001l-.693-1.039Zm.262-.197.694 1.04a1.3 1.3 0 0 0 .098-.073l-.792-.967Zm1.18-2.394-1.25-.021v.021h1.25Zm-37.415 6.7a1.25 1.25 0 1 0 1.387 2.079l-1.387-2.079Zm28.078-17.227.694 1.04-.694-1.04Zm.262-.197.694 1.04c.034-.023.067-.047.099-.073l-.793-.967Zm1.18-2.394-1.25-.021v.021h1.25Zm-2.146-6.836a1.25 1.25 0 1 0-1.395 2.074l1.395-2.074Zm-32.216 21.79.694-1.039-.694 1.039Zm0 7.871-.694 1.04.694-1.04Zm-20.926-15.469a1.25 1.25 0 1 0-1.388 2.079l1.388-2.079Zm-1.84-7.585-.695 1.039.694-1.039Zm0-1.083-.651-1.067a.834.834 0 0 0-.044.028l.694 1.039Zm24.311-13.363a1.25 1.25 0 1 0-1.302-2.134l1.302 2.134Zm155.254 28.023a1.25 1.25 0 1 0 0-2.5v2.5Zm-1.73-33.863a1.25 1.25 0 0 0-2.5 0h2.5Zm-2.5 11.534a1.25 1.25 0 1 0 2.5 0h-2.5Zm7.017-4.517a1.25 1.25 0 1 0 0-2.5v2.5Zm-11.534-2.5a1.25 1.25 0 0 0 0 2.5v-2.5Zm10.729 12.377a1.25 1.25 0 0 0-1.768-1.768l1.768 1.768Zm-9.924 6.387a1.25 1.25 0 0 0 1.768 1.768l-1.768-1.768Zm8.156 1.768a1.25 1.25 0 0 0 1.768-1.768l-1.768 1.768Zm-6.388-9.923a1.25 1.25 0 0 0-1.768 1.768l1.768-1.768Zm28.847-8.109a1.25 1.25 0 1 0 0-2.5v2.5Zm-11.534-2.5a1.25 1.25 0 1 0 0 2.5v-2.5Zm11.534 14.233a1.25 1.25 0 0 0 0-2.5v2.5Zm-11.534-2.5a1.25 1.25 0 1 0 0 2.5v-2.5Zm11.534 7.272a1.25 1.25 0 1 0 0-2.5v2.5Zm-11.534-2.5a1.25 1.25 0 1 0 0 2.5v-2.5Zm6.123-64.055v-1.25a1.25 1.25 0 0 0-1.118.691l1.118.559Zm0 .08v1.25a1.25 1.25 0 0 0 1.117-.69l-1.117-.56Zm13.84-27.602-1.115-.564-.002.004 1.117.56Zm23.227-9.329a1.25 1.25 0 0 0 0-2.5v2.5Zm-50.749 35.681a1.25 1.25 0 1 0 0 2.5v-2.5Zm106.19 11.662h1.25v-.007l-1.25.007Zm-31.618-46.649-.56 1.118h.002l.558-1.118Zm-1.23-.616.56-1.118-.011-.005-.549 1.123Zm-1.844-33.703.113-1.245h-.013l-.1 1.245Zm3.074 3.96-1.245-.113-.002.022 1.247.091Zm-25.734 19.711.016-1.25h-.001l-.015 1.25ZM280 74.663l1.246-.103a.369.369 0 0 0-.004-.033l-1.242.136Zm-49.096.686a1.25 1.25 0 1 0 0 2.5v-2.5Zm24.025 6.826a1.25 1.25 0 0 0-2.379-.768l2.379.768Zm-3.825 7.536-1.175-.427-.011.032 1.186.395Zm4.392 4.77a1.25 1.25 0 0 0 0-2.5v2.5Zm-73.235 44.33a1.25 1.25 0 1 0 1.367-2.093l-1.367 2.093Zm-8.449-20.772 1.239.164.001-.006-1.24-.158Zm17.769-17.534.133 1.243.009-.001-.142-1.242Zm18.243 56.788a1.25 1.25 0 1 0 0-2.5v2.5Zm-12.982-16.903v-1.25c-.69 0-1.25.56-1.25 1.25h1.25Zm-9.596-38.97a1.251 1.251 0 0 0-1.706 1.827l1.706-1.827Zm1.686 9.245.781.976-.781-.976Zm-2.539 4.429.781-.976-.781.976Zm4.569 5.055-.75-1 .75 1Zm2.708 3.048 1.011.735-1.011-.735Zm-10.154 8.806 1.097-.599-1.097.599Zm20.771-27.829a1.25 1.25 0 0 0-1.601-1.92l1.601 1.92Zm-4.524 5.814-.727 1.017.727-1.017Zm5.111-1.054-.929-.836.929.836Zm5.077.432a1.25 1.25 0 0 0 1.287-2.143l-1.287 2.143Zm5.044 12.71a1.25 1.25 0 0 0 0-2.5v2.5Zm-6.77-1.927-.344 1.201.344-1.201Zm-3.471 12.604a1.25 1.25 0 0 0 2-1.5l-2 1.5Zm-28.989-21.587a1.25 1.25 0 1 0-.746 2.386l.746-2.386Zm97.67 89.787a1.25 1.25 0 1 0-2.338.885l2.338-.885Zm14.67 7.485.108 1.245h.007l-.115-1.245Zm27.114-30.938h-1.25v.005l1.25-.005Zm-171.39 16.591-.012-1.25h-.011l.023 1.25Zm13.028-17.273.247-1.225a.48.48 0 0 0-.05-.009l-.197 1.234ZM152.607 201a1.25 1.25 0 0 0 2.5 0h-2.5Zm1.25-26.386a1.25 1.25 0 1 0 0-2.5v2.5Zm-10.813 1.733a1.25 1.25 0 0 0-2.374-.785l2.374.785Zm-.33 8.63a1.25 1.25 0 1 0 0-2.5v2.5Zm3.429-23.227a1.25 1.25 0 1 0 0 2.5v-2.5Zm12 9.409a1.25 1.25 0 0 0 0-2.5v2.5Zm-70.9 35.337H68.32v2.5h18.924v-2.5Zm-18.923 0c-2.313 0-4.117 1.798-4.117 4.112h2.5c0-.929.68-1.612 1.617-1.612v-2.5Zm-4.117 4.112c0 2.314 1.804 4.112 4.117 4.112v-2.5c-.936 0-1.617-.683-1.617-1.612h-2.5Zm4.117 4.112h10.322v-2.5H68.32v2.5Zm10.322 0c.646 0 1.046.125 1.346.338.312.221.663.642 1.008 1.504l2.322-.928c-.45-1.126-1.044-2.02-1.885-2.615-.852-.605-1.813-.799-2.791-.799v2.5ZM53.946 114.308l-1.19.385v.001l.002.003.004.013.016.048.06.186a703.564 703.564 0 0 0 .933 2.856c.547 1.662 1.186 3.58 1.532 4.531l2.35-.855c-.33-.906-.957-2.785-1.507-4.457a772.907 772.907 0 0 1-.93-2.846l-.06-.185a5.806 5.806 0 0 1-.02-.063v-.001l-1.19.384Zm1.346 7.991c.326.978.073 1.27-.015 1.358-.189.189-.635.372-1.331.372v2.5c.992 0 2.233-.239 3.099-1.105.968-.967 1.136-2.362.618-3.916l-2.371.791Zm-4.722 1.73c-3.475 0-6.313 2.838-6.313 6.313h2.5a3.828 3.828 0 0 1 3.813-3.813v-2.5Zm-6.313 6.313c0 .238-.2.438-.438.438v2.5a2.943 2.943 0 0 0 2.938-2.938h-2.5Zm-.438.438a3.828 3.828 0 0 1-3.813-3.813h-2.5c0 3.475 2.838 6.313 6.313 6.313v-2.5Zm-3.813-3.813v-8.439h-2.5v8.439h2.5Zm0-8.439c0-4.404-3.598-8.001-8.001-8.001v2.5c3.022 0 5.5 2.478 5.5 5.501h2.5Zm-8.001-8.001h-1.688v2.5h1.688v-2.5Zm-1.688 0c.039 0-.003.008-.142-.062a2.581 2.581 0 0 1-.432-.292 4.786 4.786 0 0 1-.508-.482v.001l-.944.819-.944.819.001.001.002.003.006.005.015.018.05.054a7.396 7.396 0 0 0 .749.704c.235.191.535.406.872.578.328.167.772.334 1.275.334v-2.5Zm-.776-.016c0-2.69 1.852-6.812 5.003-10.278 3.13-3.444 7.254-5.923 11.51-5.773l.088-2.498c-5.28-.187-10.06 2.86-13.449 6.59-3.368 3.707-5.651 8.404-5.651 11.959h2.5Zm16.51-16.05c8.41.31 15.084 7.49 15.084 16.05h2.5c0-9.837-7.672-18.185-17.491-18.55l-.093 2.5Zm15.084 16.05v18.987h2.5v-18.987h-2.5Zm0 18.987c0 6.249-4.948 11.333-11.17 11.409l.03 2.5c7.617-.093 13.64-6.317 13.64-13.909h-2.5Zm-11.171 11.409c-6.647.084-12.746-3.135-17.102-7.239l-1.714 1.82c4.683 4.411 11.377 8.013 18.847 7.919l-.031-2.5Zm-17.102-7.239c-3.916-3.688-6.19-7.862-6.36-10.659l-2.496.152c.226 3.715 3.022 8.447 7.142 12.327l1.714-1.82Zm-6.36-10.643c-.057-1.198.889-2.312 1.908-2.409l-.237-2.489c-2.525.241-4.28 2.671-4.168 5.017l2.497-.119Zm1.893-2.408c1.316-.109 2.36.855 2.36 2.13h2.5c0-2.775-2.332-4.849-5.067-4.621l.207 2.491Zm2.36 2.13v11.831h2.5v-11.831h-2.5Zm0 11.831v7.41h2.5v-7.41h-2.5Zm0 7.41c0 3.325-1.928 6.436-4.88 7.912l1.119 2.236c3.8-1.9 6.26-5.878 6.26-10.148h-2.5Zm-4.875 7.91-10.211 5.063 1.11 2.24 10.211-5.063-1.11-2.24Zm-10.22 5.068c-7.249 3.669-11.91 11.099-11.91 19.259h2.5c0-7.2 4.115-13.777 10.538-17.029l-1.129-2.23ZM3.75 174.225v27.005h2.5v-27.005h-2.5Zm0 27.005c0 6.26 5.117 11.376 11.377 11.376v-2.5c-4.88 0-8.877-3.997-8.877-8.876h-2.5Zm11.377 11.376H28.29v-2.5H15.127v2.5Zm38.819-88.577H50.57v2.5h3.376v-2.5Zm-2.426 27.436c0 4.189 3.422 7.611 7.61 7.611v-2.5c-2.808 0-5.11-2.303-5.11-5.111h-2.5Zm7.61 7.611h2.465v-2.5H59.13v2.5Zm2.465 0c4.774 0 9.314 1.788 12.733 5.061l1.73-1.805c-3.897-3.73-9.06-5.756-14.463-5.756v2.5Zm12.7 5.028 2.333 2.408 1.796-1.74-2.334-2.407-1.795 1.739Zm2.358 2.433a6.98 6.98 0 0 0 9.885-.134l-1.794-1.741a4.48 4.48 0 0 1-6.345.086l-1.746 1.789Zm9.886-.135 14.876-15.36-1.795-1.739-14.877 15.36 1.796 1.739Zm14.876-15.359a5.785 5.785 0 0 0 1.607-3.306l-2.481-.307a3.286 3.286 0 0 1-.92 1.872l1.794 1.741Zm1.608-3.307c.348-2.833 1.899-5.084 3.814-6.832 1.919-1.753 4.134-2.935 5.635-3.613l-1.031-2.278c-1.624.735-4.101 2.046-6.29 4.045-2.193 2.002-4.166 4.761-4.61 8.373l2.482.305Zm9.491-10.465c.424-.212 1.045-.134 1.497.32l1.772-1.764c-1.131-1.136-2.897-1.535-4.384-.794l1.115 2.238Zm1.499.322a1.354 1.354 0 0 1-.094 1.989l1.637 1.89a3.856 3.856 0 0 0 .225-5.647l-1.768 1.768Zm-.096 1.991-3.065 2.667 1.641 1.886 3.065-2.667-1.641-1.886Zm-3.067 2.669a3.403 3.403 0 0 0-.959 3.756l2.341-.878a.904.904 0 0 1 .263-.996l-1.645-1.882Zm-.959 3.755c1.323 3.538.351 8.728-3.693 11.275l1.332 2.115c5.225-3.291 6.362-9.828 4.702-14.266l-2.341.876Zm76.468 74.01H172.31v2.5h14.049v-2.5Zm-14.049 0c-4.029 0-6.838-3.935-5.414-7.551l-2.326-.916c-2.127 5.402 2.107 10.967 7.74 10.967v-2.5Zm-5.371-7.683.208-.769-2.413-.653-.208.77 2.413.652Zm.195-.724 12.057-38.711-2.386-.744-12.058 38.712 2.387.743Zm12.05-38.689c.017-.05.031-.097.037-.118l.008-.029-2.372-.788c-.017.05-.031.097-.037.118l-.008.029 2.372.788Zm.061-.198c.838-2.934.03-6.083-2.04-8.293l-1.825 1.71c1.487 1.587 2.051 3.831 1.461 5.897l2.404.686Zm-2.384-8.551-41.925-21.404-1.137 2.226 41.925 21.404 1.137-2.226Zm-41.935-21.409c-1.434-.717-3.181-.905-4.726-.456-1.585.46-2.99 1.611-3.503 3.526l2.415.647c.254-.95.913-1.519 1.785-1.772.911-.265 2.012-.158 2.912.291l1.117-2.236Zm-8.222 3.044-11.947 41.126 2.401.698 11.947-41.126-2.401-.698Zm-11.949 41.132a6.486 6.486 0 0 0-.032.121l-.006.023 2.39.733c.019-.059.032-.114.039-.141l.013-.051-2.404-.685Zm-.059.221c-.529 2.224.182 4.536 1.762 6.126l1.773-1.763c-.998-1.004-1.422-2.44-1.103-3.784l-2.432-.579Zm2.026 6.328 2.713 1.559 1.246-2.167-2.714-1.559-1.245 2.167Zm2.713 1.56a7.704 7.704 0 0 1 3.865 6.686h2.5c0-3.659-1.952-7.035-5.12-8.854l-1.245 2.168Zm3.865 6.686v.802h2.5v-.802h-2.5Zm0 .802c0 1.011-.542 1.982-1.498 2.741-.959.763-2.228 1.218-3.416 1.218v2.5c1.778 0 3.591-.662 4.972-1.761 1.386-1.101 2.442-2.735 2.442-4.698h-2.5Zm138.223-.388h7.005v-2.5h-7.005v2.5Zm7.005 0c3.414 0 6.254-2.815 6.254-6.227h-2.5c0 2.018-1.708 3.727-3.754 3.727v2.5Zm6.254-6.227c0-3.411-2.84-6.227-6.254-6.227v2.5c2.046 0 3.754 1.709 3.754 3.727h2.5Zm-6.254-6.227h-5.095v2.5h5.095v-2.5Zm-5.095 0c-3.811 0-6.847-3.193-6.847-7.076h-2.5c0 5.167 4.061 9.576 9.347 9.576v-2.5Zm-6.847-7.076v-7.058h-2.5v7.058h2.5Zm0-7.058a3.07 3.07 0 0 0-3.07-3.06v2.5a.57.57 0 0 1 .57.56h2.5Zm-3.07-3.06h-1.819v2.5h1.819v-2.5Zm-1.819 0c-.779 0-1.408-.204-1.732-.634-.307-.407-.677-1.474.187-4.053l-2.37-.795c-.955 2.85-.87 4.951.187 6.354 1.041 1.38 2.686 1.628 3.728 1.628v-2.5Zm-1.545-4.687 2.73-8.145-2.371-.794-2.729 8.144 2.37.795Zm2.729-8.142c3.519-10.415 12.295-15.106 22.812-15.106v-2.5c-11.319 0-21.239 5.141-25.181 16.806l2.369.8Zm22.812-15.106c7.241 0 12.39 2.246 15.736 5.788 3.359 3.555 5.041 8.565 5.041 14.348h2.5c0-6.253-1.823-11.936-5.723-16.065-3.913-4.142-9.777-6.571-17.554-6.571v2.5Zm20.777 20.136v22.623h2.5v-22.623h-2.5Zm-15.223 12.756a6.694 6.694 0 0 0 6.709-6.898l-2.499.074a4.194 4.194 0 0 1-4.21 4.324v2.5Zm6.709-6.899c-.114-3.738-3.383-6.46-6.891-6.46v2.5c2.315 0 4.324 1.801 4.392 4.036l2.499-.076Zm-6.891-6.46h-2.456v2.5h2.456v-2.5Zm-10.13-7.475v-7.319h-2.5v7.319h2.5Zm7.674 7.475c-1.628 0-3.562-.968-5.138-2.521-1.582-1.557-2.536-3.437-2.536-4.954h-2.5c0 2.437 1.437 4.919 3.281 6.736 1.85 1.821 4.378 3.239 6.893 3.239v-2.5Zm1.388 12.109v11.117h2.5v-11.117h-2.5Zm1.25 12.367h16.473v-2.5h-16.473v2.5Zm-38.145 24.871c1.667-3.721 7.731-11.297 18.421-11.297v-2.5c-11.982 0-18.775 8.472-20.702 12.775l2.281 1.022Zm-2.228-1.127c-.342.604-.618 1.399-.866 2.066-.268.722-.54 1.414-.899 2.033-.354.61-.766 1.099-1.282 1.439-.504.332-1.18.571-2.151.571v2.5c1.415 0 2.578-.358 3.526-.983.936-.616 1.588-1.444 2.069-2.272.477-.821.811-1.692 1.081-2.419.29-.781.481-1.322.697-1.703l-2.175-1.232ZM83.294 78.09c0 11.234 9.106 20.34 20.34 20.34v-2.5c-9.853 0-17.84-7.987-17.84-17.84h-2.5Zm20.34 20.34c11.233 0 20.34-9.106 20.34-20.34h-2.5c0 9.853-7.987 17.84-17.84 17.84v2.5Zm20.34-20.34c0-11.233-9.107-20.34-20.34-20.34v2.5c9.853 0 17.84 7.987 17.84 17.84h2.5Zm-20.34-20.34c-11.234 0-20.34 9.107-20.34 20.34h2.5c0-9.853 7.987-17.84 17.84-17.84v-2.5Zm5.479 13.093-6.363 6.364 1.768 1.767 6.363-6.363-1.768-1.768Zm-4.595 6.364-9.546-9.546-1.767 1.768 9.545 9.545 1.768-1.767ZM80.714 223.274l6.551 4.361 1.386-2.081-6.552-4.361-1.385 2.081Zm-62.796 12.503v2.624h2.5v-2.624h-2.5Zm.563 1.58-1.146.754 1.374 2.088 1.146-.754-1.374-2.088Zm-1.153.758a1.894 1.894 0 0 0 0 3.162l1.388-2.079a.606.606 0 0 1 0 .997l-1.388-2.08Zm0 3.162 30.628 20.431 1.387-2.079-30.628-20.432-1.387 2.08Zm30.628 20.431c.599.4 1.231.675 1.88.729a2.478 2.478 0 0 0 1.825-.563c.928-.774 1.187-2.078 1.187-3.173 0-2.268-1.104-5.341-3.505-6.943l-1.387 2.079c1.53 1.022 2.392 3.196 2.392 4.864 0 .872-.233 1.208-.288 1.254-.002.001.005-.004.017-.008s.005.002-.034-.002c-.088-.007-.316-.06-.7-.316l-1.387 2.079Zm1.387-9.95-30.628-20.431-1.387 2.079 30.628 20.432 1.387-2.08Zm-30.627-20.431a.606.606 0 0 1 0 .997l-1.388-2.079a1.893 1.893 0 0 0 0 3.161l1.388-2.079Zm-.001.998 9.008-6.002-1.386-2.08-9.008 6.001 1.386 2.081Zm9.565-7.042v-2.624h-2.5v2.624h2.5Zm26.599 34.491 35.279-23.514-1.386-2.08-35.28 23.513 1.387 2.081Zm35.28-23.515c.1-.067.18-.132.218-.162a.56.56 0 0 1 .044-.034l-1.388-2.08c-.1.067-.18.132-.219.163l-.043.034 1.388 2.079Zm.36-.269c.98-.803 1.637-2.03 1.637-3.361h-2.5c0 .506-.26 1.049-.721 1.427l1.584 1.934Zm1.637-3.34c.038-2.273-1.063-5.452-3.5-7.092l-1.396 2.074c1.56 1.049 2.424 3.314 2.396 4.976l2.5.042Zm-37.277 8.758 27.385-18.266-1.387-2.08-27.385 18.267 1.387 2.079Zm27.385-18.266c.1-.067.181-.133.219-.163a.56.56 0 0 1 .043-.034l-1.388-2.08c-.1.067-.18.133-.218.163a.56.56 0 0 1-.044.034l1.388 2.08Zm.36-.27c.98-.803 1.638-2.03 1.638-3.361h-2.5c0 .506-.26 1.049-.722 1.427l1.584 1.934Zm1.637-3.34c.038-2.274-.958-5.217-3.395-6.857l-1.395 2.074c1.559 1.049 2.319 3.079 2.29 4.741l2.5.042Zm-36.305 15.973c1.53 1.021 2.392 3.196 2.392 4.863 0 .872-.233 1.209-.288 1.254-.002.002.005-.004.017-.007.012-.004.005.001-.034-.002-.088-.007-.316-.06-.7-.317l-1.387 2.08c.599.4 1.231.674 1.88.729a2.478 2.478 0 0 0 1.825-.563c.928-.774 1.187-2.078 1.187-3.174 0-2.267-1.104-5.34-3.505-6.942l-1.387 2.079Zm1.387 5.791-21.62-14.429-1.387 2.079 21.62 14.43 1.387-2.08Zm0-7.87-22.766-15.184-1.387 2.079 22.766 15.184 1.387-2.079Zm-22.766-15.184a.606.606 0 0 1 0 .997l-1.388-2.079a1.893 1.893 0 0 0 0 3.161l1.388-2.079Zm-.043 1.024 23.661-14.43-1.302-2.134-23.66 14.43 1.301 2.134Zm178.915 11.093h-11.136v2.5h11.136v-2.5Zm-11.136 0c-2.809 0-5.113-2.304-5.113-5.113h-2.5c0 4.19 3.423 7.613 7.613 7.613v-2.5Zm-5.113-5.113v-26.25h-2.5v26.25h2.5Zm0-26.25c0-2.809 2.304-5.113 5.113-5.113v-2.5c-4.19 0-7.613 3.423-7.613 7.613h2.5Zm5.113-5.113h34.999v-2.5h-34.999v2.5Zm34.999 0c2.81 0 5.114 2.304 5.114 5.113h2.5c0-4.19-3.423-7.613-7.614-7.613v2.5Zm5.114 5.113v20.682h2.5v-20.682h-2.5Zm-33.207 0v11.534h2.5v-11.534h-2.5Zm7.017 4.517h-11.534v2.5h11.534v-2.5Zm-2.573 10.609-8.156 8.155 1.768 1.768 8.156-8.155-1.768-1.768Zm1.768 8.155-8.156-8.155-1.768 1.768 8.156 8.155 1.768-1.768Zm20.691-18.764h-11.534v2.5h11.534v-2.5Zm0 11.733h-11.534v2.5h11.534v-2.5Zm0 4.772h-11.534v2.5h11.534v-2.5Zm2.088-57.691c0 1.537-1.19 2.727-2.727 2.727v2.5a5.188 5.188 0 0 0 5.227-5.227h-2.5Zm-2.727 2.727c-1.525 0-3.048-.86-3.898-2.336-.827-1.438-1.067-3.575.244-6.196l-2.236-1.118c-1.633 3.266-1.475 6.299-.175 8.56 1.279 2.223 3.613 3.59 6.065 3.59v-2.5Zm-4.772-7.841c5.152 0 7.499 2.868 7.499 5.114h2.5c0-4.118-4.016-7.614-9.999-7.614v2.5Zm1.117-.61 13.841-27.601-2.235-1.121-13.841 27.602 2.235 1.12Zm13.839-27.597c3.052-6.03 9.228-9.894 15.986-9.894v-2.5c-7.718 0-14.747 4.409-18.217 11.265l2.231 1.129Zm15.986-9.894h6.125v-2.5h-6.125v2.5Zm62.816 47.336c-.09-18.015-10.927-37.093-32.31-47.761l-1.116 2.237c20.598 10.276 30.841 28.529 30.926 45.537l2.5-.013Zm-32.308-47.76-1.23-.616-1.12 2.236 1.23.616 1.12-2.236Zm-1.241-.621c-3.153-1.541-5.096-4.789-5.096-8.293h-2.5c0 4.417 2.45 8.56 6.498 10.539l1.098-2.246Zm-5.096-8.293V89.007h-2.5v20.767h2.5Zm0-20.767c0-1.343 1.095-2.395 2.603-2.274l.2-2.492c-2.884-.231-5.303 1.885-5.303 4.766h2.5Zm2.589-2.275c1.137.103 2.067 1.24 1.943 2.602l2.49.226c.227-2.51-1.478-5.07-4.206-5.318l-.227 2.49Zm1.941 2.624c-.112 1.534-.817 3.483-2.11 5.585-1.282 2.085-3.098 4.245-5.326 6.192-4.468 3.904-10.483 6.859-17.035 6.775l-.032 2.5c7.325.093 13.913-3.2 18.712-7.392 2.404-2.101 4.387-4.45 5.811-6.765 1.413-2.298 2.322-4.639 2.474-6.713l-2.494-.182Zm-24.472 18.552c-6.502-.079-11.676-5.403-11.676-11.95h-2.5c0 7.886 6.244 14.354 14.146 14.45l.03-2.5Zm-11.676-11.95V76.6h-2.5v19.36h2.5Zm0-19.359c0-8.991 7.347-16.349 16.316-16.349v-2.5c-10.354 0-18.816 8.482-18.816 18.85h2.5Zm16.316-16.349c8.4 0 15.338 6.375 16.235 14.55l2.485-.273c-1.034-9.425-9.028-16.777-18.72-16.777v2.5Zm16.232 14.517c.029.349-.209.582-.511.582v2.5c1.806 0 3.149-1.526 3.003-3.29l-2.492.208Zm-.511.582h-47.339v2.5h47.339v-2.5Zm-24.504 6.442-1.19-.384v.001l-.001.003-.004.013-.016.05-.063.193-.228.703c-.191.59-.455 1.398-.739 2.265-.573 1.743-1.225 3.703-1.569 4.65l2.35.852c.359-.99 1.025-2.99 1.594-4.722.286-.87.55-1.68.742-2.272l.229-.706.063-.194.016-.05.004-.013.001-.004h.001l-1.19-.385Zm-3.821 7.525c-.535 1.608-.357 3.038.631 4.028.887.889 2.163 1.137 3.19 1.137v-2.5c-.73 0-1.21-.192-1.421-.403-.109-.11-.371-.44-.028-1.472l-2.372-.79Zm3.821 5.165h1.757v-2.5h-1.757v2.5Zm-70.111 42.237c-5.884-3.843-9.6-10.761-8.577-18.515l-2.478-.327c-1.16 8.783 3.065 16.61 9.688 20.935l1.367-2.093Zm-8.576-18.521c1.119-8.798 7.915-15.515 16.662-16.449l-.266-2.486c-9.915 1.059-17.613 8.688-18.876 18.619l2.48.316Zm16.671-16.45c11.562-1.321 22.022 7.197 22.022 18.413h2.5c0-12.892-11.948-22.365-24.806-20.897l.284 2.484Zm3.869 45.33c0 1.007-.735 1.738-1.728 1.738v2.5c2.382 0 4.228-1.859 4.228-4.238h-2.5Zm-9.639 1.738c-2.382 0-4.228 1.859-4.228 4.239h2.5c0-1.007.735-1.739 1.728-1.739v-2.5Zm-4.228 4.239c0 2.38 1.846 4.239 4.228 4.239v-2.5c-.993 0-1.728-.731-1.728-1.739h-2.5Zm4.228 4.239h23.871v-2.5h-23.871v2.5Zm27.792-37.133c0 12.064-9.116 18.98-16.903 18.98v2.5c9.157 0 19.403-8.024 19.403-21.48h-2.5Zm-15.653 26.917v-6.687h-2.5v6.687h2.5Zm-12.552-43.83c.766.716 1.966 2.133 2.642 3.566.338.716.497 1.338.484 1.823-.012.431-.154.764-.516 1.053l1.563 1.952c.992-.795 1.422-1.847 1.452-2.935.029-1.033-.299-2.062-.722-2.96-.847-1.796-2.271-3.461-3.197-4.326l-1.706 1.827Zm2.61 6.442c-.38.305-.826.599-1.354.967-.487.34-1.048.746-1.49 1.2-.424.436-.927 1.107-.933 1.986-.006.933.54 1.67 1.239 2.229l1.562-1.953c-.402-.321-.3-.408-.301-.259 0 .095-.048.022.226-.26.256-.264.637-.55 1.128-.893.451-.314 1.02-.692 1.486-1.065l-1.563-1.952Zm3.563 11.459c.103-.077.37-.194.749-.232.375-.037.669.022.818.096.064.032.069.051.059.035-.017-.023-.01-.034-.008.008.005.127-.06.566-.672 1.407l2.022 1.47c.743-1.022 1.185-2.022 1.148-2.975-.042-1.071-.673-1.801-1.43-2.18-.698-.349-1.503-.417-2.186-.348-.679.068-1.427.289-2.001.72l1.501 1.999Zm.946 1.314c-1.26 1.733-2.33 2.57-3.21 3.362-.433.39-.896.836-1.232 1.402-.36.605-.535 1.275-.535 2.067h2.5c0-.392.078-.612.184-.79.129-.217.343-.449.756-.821.812-.732 2.111-1.758 3.559-3.75l-2.022-1.47Zm-4.977 6.831c0 .246-.115.613-.421 1.036a3.867 3.867 0 0 1-1.162 1.046c-.458.265-.837.345-1.072.326-.161-.013-.286-.063-.414-.297l-2.195 1.198c.542.992 1.428 1.512 2.408 1.591.906.073 1.797-.232 2.526-.655a6.38 6.38 0 0 0 1.934-1.743c.5-.69.896-1.562.896-2.502h-2.5Zm-3.069 2.111c-2.203-4.037-1.37-6.966-1.37-9.269h-2.5c0 1.761-.928 5.698 1.675 10.467l2.195-1.198Zm18.073-29.15c-1.059.882-2.556 2.319-3.56 3.759-.492.707-.948 1.53-1.097 2.362-.077.432-.082.918.082 1.402.169.5.489.916.925 1.228l1.454-2.034c-.039-.028-.021-.024-.01.006.005.015-.014-.026.01-.161.054-.3.266-.768.688-1.374.825-1.184 2.136-2.457 3.109-3.268l-1.601-1.92Zm-3.65 8.751c1.338.956 2.792.961 3.992.578 1.163-.371 2.148-1.115 2.775-1.813l-1.858-1.672c-.388.431-1.011.891-1.677 1.103-.627.201-1.221.168-1.778-.23l-1.454 2.034Zm6.767-1.235c.403-.448 1.126-.743 2.026-.798.904-.056 1.716.15 2.122.394l1.287-2.143c-.948-.569-2.295-.824-3.562-.746-1.271.077-2.731.509-3.731 1.621l1.858 1.672Zm9.192 9.806c-1.472 0-4.718-.141-6.426-.629l-.688 2.403c2.083.596 5.652.726 7.114.726v-2.5Zm-6.426-.629c-1.497-.428-3.215-.229-4.506.557-.659.402-1.242.98-1.592 1.744-.355.777-.429 1.662-.198 2.591l2.426-.606c-.107-.427-.054-.727.046-.945.105-.231.304-.457.618-.648.656-.399 1.646-.539 2.518-.29l.688-2.403Zm-6.296 4.892c.274 1.093.995 1.796 1.746 2.255.72.441 1.559.713 2.225.921.743.232 1.245.381 1.595.572.313.17.151.174.151.013h2.5c0-1.178-.796-1.85-1.456-2.209-.623-.339-1.433-.571-2.044-.762-.688-.215-1.245-.409-1.667-.667-.391-.24-.559-.468-.624-.729l-2.426.606Zm5.717 3.761c0 .017-.006.159-.317.467-.308.305-.735.599-1.258.954-.448.304-1.075.718-1.483 1.183-.216.246-.475.617-.554 1.106a1.882 1.882 0 0 0 .376 1.443l2-1.5c.045.06.128.232.092.453-.026.167-.1.221-.037.149.15-.171.458-.391 1.009-.765.476-.323 1.11-.748 1.614-1.247.502-.497 1.058-1.244 1.058-2.243h-2.5Zm-24.747-5.465c0-.879-.383-1.954-.839-2.946-.48-1.044-1.135-2.185-1.852-3.261-.716-1.074-1.516-2.113-2.297-2.942-.731-.775-1.608-1.545-2.49-1.82l-.746 2.386c.211.066.706.395 1.417 1.15.662.701 1.376 1.623 2.036 2.613.66.99 1.246 2.017 1.661 2.92.44.955.61 1.604.61 1.9h2.5Zm2.369-6.064c.397.317.737.801 1.062 1.434.34.666.564 1.279.883 1.996.146.327.312.673.506.983.19.303.454.65.828.909.409.283.912.432 1.469.358.513-.069.966-.312 1.353-.603l-1.501-1.999c-.195.146-.248.132-.182.123a.436.436 0 0 1 .282.065c.023.015-.026-.013-.13-.18-.1-.159-.21-.378-.341-.672-.234-.527-.566-1.385-.942-2.119-.393-.767-.929-1.61-1.725-2.248l-1.562 1.953Zm86.654 85.325c-1.169.442-1.169.443-1.169.444l.001.002.002.004a.468.468 0 0 0 .016.042l.04.096c.034.078.083.184.147.315.129.26.324.618.598 1.037a12.896 12.896 0 0 0 2.72 2.971c2.631 2.112 6.915 3.956 13.592 3.376l-.216-2.49c-6.075.527-9.711-1.15-11.811-2.836a10.379 10.379 0 0 1-2.193-2.39 7.789 7.789 0 0 1-.45-.778 3.914 3.914 0 0 1-.109-.239l-.002-.004.001.002.001.002v.001c0 .001.001.002-1.168.445Zm15.954 8.287c7.963-.738 15.056-4.066 20.151-9.607 5.099-5.546 8.132-13.237 8.098-22.581l-2.5.01c.032 8.777-2.807 15.842-7.439 20.879-4.636 5.042-11.134 8.123-18.541 8.809l.231 2.49Zm-169.834-3.187H87.327v2.5h31.059v-2.5Zm90.643-49.203h13.682v-2.5h-13.682v2.5Zm-15.165-8.478h-7.911v2.5h7.911v-2.5Zm-60.114 24.549v12.004h2.5v-12.004h-2.5Zm0 12.004c0 5.522 4.502 10.072 10.101 9.973l-.045-2.5c-4.172.074-7.556-3.321-7.556-7.473h-2.5Zm10.09 9.973c9.996-.093 16.41-8.391 16.41-15.846h-2.5c0 6.192-5.415 13.266-13.933 13.346l.023 2.5Zm16.41-15.846c0-1.852-1.24-3.518-3.146-3.902l-.494 2.451c.666.134 1.14.713 1.14 1.451h2.5Zm-3.196-3.911c-2.411-.384-4.447 1.439-4.447 3.825h2.5c0-.895.707-1.491 1.554-1.356l.393-2.469Zm-4.447 3.825V201h2.5v-21.591h-2.5Zm-16.357-6.045c0-3.119 2.535-5.659 5.607-5.659v-2.5c-4.471 0-8.107 3.677-8.107 8.159h2.5Zm5.607-5.659c2.379 0 3.542 1.279 5.056 3.024 1.486 1.71 3.323 3.885 6.944 3.885v-2.5c-2.378 0-3.541-1.28-5.056-3.025-1.485-1.71-3.322-3.884-6.944-3.884v2.5Zm0 8.25-1.187-.393v.002l-.002.005-.007.023a88.703 88.703 0 0 1-.138.415l-.388 1.174-1.179 3.563 2.374.785 1.178-3.563.389-1.174a55.9 55.9 0 0 1 .137-.415l.007-.022.002-.006.001-.001v-.001l-1.187-.392Zm-2.901 4.789c-.247.748-.357 1.443-.264 2.072.099.676.425 1.217.912 1.585.447.338.946.466 1.316.522.375.056.733.054.937.054v-2.5c-.224 0-.402-.002-.563-.026-.165-.025-.202-.059-.183-.045.058.044.062.1.054.046-.014-.099-.017-.375.165-.923l-2.374-.785Zm2.901 4.233h.857v-2.5h-.857v2.5Zm4.286-20.727c2.378 0 3.541 1.28 5.056 3.024 1.485 1.71 3.322 3.885 6.944 3.885v-2.5c-2.379 0-3.542-1.28-5.056-3.024-1.486-1.71-3.323-3.885-6.944-3.885v2.5Zm167.826 2.205V177.5h2.5v-11.045h-2.5Z" fill="url(#d)"/><defs><linearGradient id="a" x1="154.542" y1="82.067" x2="154.542" y2="163.202" gradientUnits="userSpaceOnUse"><stop stop-color="#3CC29A"/><stop offset="1" stop-color="#93C437"/></linearGradient><linearGradient id="b" x1="154.542" y1="82.067" x2="154.542" y2="163.202" gradientUnits="userSpaceOnUse"><stop stop-color="#3CC29A"/><stop offset="1" stop-color="#93C437"/></linearGradient><linearGradient id="c" x1="154.542" y1="82.067" x2="154.542" y2="163.202" gradientUnits="userSpaceOnUse"><stop stop-color="#3CC29A"/><stop offset="1" stop-color="#93C437"/></linearGradient><linearGradient id="d" x1="160.11" y1="59" x2="160.11" y2="261.196" gradientUnits="userSpaceOnUse"><stop stop-color="#3CC29A"/><stop offset="1" stop-color="#93C437"/></linearGradient></defs></svg>