<svg width="121" height="120" viewBox="0 0 121 120" fill="none" xmlns="http://www.w3.org/2000/svg">
<path d="M49.2001 84.2H28.7001C17.9001 84.2 8.60005 75.8 8.30005 65C7.90005 53.6 17.0001 44.3 28.3001 44.3C30.0001 44.3 31.6001 44.5 33.2001 44.9C36.5001 30.8 49.2001 20.3 64.3001 20.3C82.0001 20.3 96.3001 34.6 96.3001 52.3C105.4 52.3 112.7 59.9 112.3 69.1C111.9 77.7 104.5 84.3 95.9001 84.3H70.4001C69.3001 84.3 68.4001 85.2 68.4001 86.3V98.3C68.4001 101.6 65.7001 104.3 62.4001 104.3C59.1001 104.3 56.4001 101.6 56.4001 98.3V52.3M44.2001 64.2001L56.2001 52.2001L68.2001 64.2001M96.2001 52.2001C84.2001 52.2001 80.2001 60.2001 84.2001 64.2001C88.2001 68.2001 96.2001 64.2001 96.2001 52.2001Z" stroke="black" stroke-width="2.5" stroke-miterlimit="10" stroke-linecap="round" stroke-linejoin="round"/>
</svg>
