<svg width="320" height="320" viewBox="0 0 320 320" fill="none" xmlns="http://www.w3.org/2000/svg">
<path d="M263.228 166.2C263.228 166.2 261.028 173 260.228 175.2C259.228 178.2 261.228 179.2 263.228 179.2H265.228M64.2275 168.2L59.2275 178.2C56.3275 183.9 52.6275 186.9 47.9275 187.2C44.5275 187.4 41.3275 184.9 41.2275 181.5C41.0275 178 43.8275 175.2 47.2275 175.2C57.2275 175.2 64.2275 181.2 71.2275 195.2L80.9275 214.6C82.9275 218.7 87.1275 221.2 91.6275 221.2H115.028C115.828 221.2 116.628 220.9 117.328 220.5L122.728 216.7C124.528 215.4 126.728 214.7 128.928 214.9L135.228 215C137.428 215.2 139.228 217 139.228 219.7V220.5C139.328 222 139.128 223.5 138.528 224.9C137.928 226.3 137.028 227.6 135.828 228.6C134.228 230 132.228 230.7 130.128 230.9L126.128 231.2C126.128 231.2 123.128 237.2 110.128 237.2M8.22754 111.2V91.2C8.22754 81.3 16.3275 73.2 26.2275 73.2H150.228C160.128 73.2 168.228 81.3 168.228 91.2V98.2M125.228 141.2C125.228 135.5 122.128 130.2 118.228 130.2C114.328 130.2 111.228 135.5 111.228 141.2M118.228 91.2V85.2M118.228 91.2C119.328 91.2 120.228 92.1 120.228 93.2C120.828 117.7 131.428 135.4 134.428 140C134.928 140.8 135.728 141.2 136.628 141.2C138.028 141.2 139.228 140 139.228 138.6V131.2C139.228 130.1 140.128 129.2 141.228 129.2H145.228M118.228 91.2C117.128 91.2 116.228 92.1 116.228 93.2C115.628 117.7 105.028 135.5 102.028 140C101.528 140.7 100.728 141.2 99.8275 141.2C98.4275 141.2 97.2275 140 97.2275 138.6V111.2C97.2275 110.1 96.3275 109.2 95.2275 109.2H85.2275C84.1275 109.2 83.2275 110.1 83.2275 111.2V119.2M36.2275 201.2H26.2275C16.3275 201.2 8.22754 193.1 8.22754 183.2V120.2C8.22754 119.1 9.12754 118.2 10.2275 118.2H18.2275C19.3275 118.2 20.2275 117.3 20.2275 116.2V107.2C20.2275 106.1 21.1275 105.2 22.2275 105.2H36.2275C37.3275 105.2 38.2275 106.1 38.2275 107.2V119.2M248.228 233.2H294.228C304.128 233.2 312.228 225.1 312.228 215.2V123.2C312.228 113.3 304.128 105.2 294.228 105.2H170.228C160.328 105.2 152.228 113.3 152.228 123.2V163.2C152.228 164.3 153.128 165.2 154.228 165.2H166.228C167.328 165.2 168.228 164.3 168.228 163.2V138.2C168.228 137.1 169.128 136.2 170.228 136.2C171.328 136.2 172.228 135.3 172.228 134.2V129.2C172.228 128.1 173.128 127.2 174.228 127.2H182.228C183.328 127.2 184.228 128.1 184.228 129.2V134.2C184.228 135.3 185.128 136.2 186.228 136.2C187.328 136.2 188.228 137.1 188.228 138.2V151.2C188.228 152.3 189.128 153.2 190.228 153.2H194.228C195.328 153.2 196.228 154.1 196.228 155.2V185.2C196.228 186.3 197.128 187.2 198.228 187.2H206.228C207.328 187.2 208.228 186.3 208.228 185.2V147.2C208.228 146.1 209.128 145.2 210.228 145.2H222.228C223.328 145.2 224.228 146.1 224.228 147.2V166.2C224.228 167.3 225.128 168.2 226.228 168.2H235.228C236.328 168.2 237.228 167.3 237.228 166.2V156.2C237.228 155.1 238.128 154.2 239.228 154.2H249.228M178.228 127.2V117.2M64.2275 168.3H71.3275C76.3275 168.3 80.2275 164.1 80.2275 159.1V153.3C80.2275 152.2 81.1275 151.3 82.2275 151.3H84.2275C86.2275 151.3 89.2275 150.3 87.2275 144.3L84.2275 135.3C80.1275 123.1 72.2275 117.3 60.2275 117.3C46.9275 117.3 36.2275 128 36.2275 141.3C36.2275 156.3 20.2275 155.3 20.2275 169.3M51.2275 154.2C47.9275 154.2 45.2275 151.5 45.2275 148.2C45.2275 144.9 47.9275 142.2 51.2275 142.2H54.2275C61.2275 142.2 68.2275 136.2 68.2275 124.2M289.228 207.2V176.2C289.228 174 291.028 172.2 293.228 172.2C295.428 172.2 297.228 174 297.228 176.2C297.228 184.2 284.228 199.2 268.228 199.2C259.928 199.2 253.228 192.5 253.228 184.2V164.2C253.228 157 259.028 151.2 266.228 151.2C273.228 151.2 277.228 155.2 281.228 159.2C285.228 163.2 289.228 167.2 296.228 167.2M270.228 145.2C277.228 145.2 281.228 149.2 285.228 153.2C289.228 157.2 293.228 161.2 300.228 161.2M274.228 139.2C281.228 139.2 285.228 143.2 289.228 147.2C293.228 151.2 297.228 155.2 304.228 155.2M126.228 239.2V245.2C126.228 246.3 127.128 247.2 128.228 247.2H172.228C173.328 247.2 174.228 246.3 174.228 245.2V231.2C167.228 227.2 169.228 217.2 169.228 217.2L162.428 212.6C161.128 211.8 160.628 210.2 161.028 208.8C161.628 206.9 163.828 206 165.528 206.9L174.628 211.5C176.828 212.6 178.428 214.7 178.928 217.1L180.128 223.3L201.228 242.9C204.828 246.3 210.628 245.6 213.328 241.5L229.028 218C233.528 211.3 240.928 207.3 249.028 207.3H261.728C263.628 207.3 265.128 208.6 265.628 210.4C267.028 215.5 271.628 219.3 277.228 219.3C283.828 219.3 289.228 213.9 289.228 207.3M126.228 214.2V181.2C126.228 180.1 127.128 179.2 128.228 179.2H172.228C173.328 179.2 174.228 180.1 174.228 181.2V204.2" stroke="url(#paint0_linear)" stroke-width="2.5" stroke-miterlimit="10" stroke-linecap="round" stroke-linejoin="round"/>
<path d="M76.2275 143.2C77.3321 143.2 78.2275 142.305 78.2275 141.2C78.2275 140.095 77.3321 139.2 76.2275 139.2C75.123 139.2 74.2275 140.095 74.2275 141.2C74.2275 142.305 75.123 143.2 76.2275 143.2Z" fill="#5BAF91"/>
<path d="M273.228 170.2C274.332 170.2 275.228 169.305 275.228 168.2C275.228 167.095 274.332 166.2 273.228 166.2C272.123 166.2 271.228 167.095 271.228 168.2C271.228 169.305 272.123 170.2 273.228 170.2Z" fill="#5BAF91"/>
<defs>
<linearGradient id="paint0_linear" x1="160.228" y1="73.2" x2="160.228" y2="247.2" gradientUnits="userSpaceOnUse">
<stop stop-color="#93C437"/>
<stop offset="1" stop-color="#279BE8"/>
</linearGradient>
</defs>
</svg>
