<svg width="960" height="320" viewBox="0 0 960 320" fill="none" xmlns="http://www.w3.org/2000/svg">
<path d="M362.2 88.3001C362.2 96.6001 368.9 103.3 377.2 103.3C394.2 103.3 405 114.3 405 127.3C405 136.9 398.5 142.7 391.3 144.6C389.5 145.1 388.1 143.1 389.1 141.6C396 131.2 388 122.5 388 115.3C388 108.7 392 103.3 397 103.3C399.3 103.3 401.4 104.4 403 106.3C406 96.5 415.2 89.3 426 89.3C438 89.3 445.9 95.1 450 107.3L453 116.3C455 122.3 452 123.3 450 123.3H448C446.9 123.3 446 124.2 446 125.3V133.1C446 138.1 442 142.3 437.1 142.3H431.5C428.5 142.3 426 144.8 426 147.8C426 150.8 428.5 153.3 431.5 153.3H439.2C448.3 153.3 456.6 158.4 460.7 166.6L475.9 196.9C477.3 199.6 480 201.3 483.1 201.3H519.4M329.1 103.3H336.8C339.8 103.3 342.3 100.8 342.3 97.8C342.3 94.8 339.8 92.3 336.8 92.3H331.2C326.2 92.3 322.3 88.1 322.3 83.1V75.3C322.3 74.2 321.4 73.3 320.3 73.3H318.3C316.3 73.3 313.3 72.3 315.3 66.3L318.3 57.3C322.4 45.1 330.3 39.3 342.3 39.3C355.6 39.3 366.3 50 366.3 63.3C366.3 73.3 362.3 76.3001 362.3 88.3001M332.5 47.4H342.3C343.8 47.4 344.8 49 344.1 50.3L341.2 56.1C340.8 56.9 341 57.8001 341.6 58.4001L344.3 61.1C345.1 61.9 345.6 63.1 345.5 64.3C344.5 73.9 336.4 81.4 326.6 81.4H314.6M417 125.3C413.6 125.3 410.9 122.5 411 119.1C411.1 115.8 414 113.3 417.2 113.3H419.9C421.2 113.3 422.5 112.8 423.4 111.8L424.9 110.3C426.7 108.5 427.2 105.7 426 103.4L424.4 100.2C423.7 98.9 424.7 97.3 426.2 97.3H436M519.3 201.4H549.3C553.7 201.4 557.3 197.8 557.3 193.4V161.4C557.3 157 553.7 153.4 549.3 153.4H501.3C496.9 153.4 493.3 157 493.3 161.4V194.4M328.7 103.3C318.7 103.3 311.7 109.3 304.7 123.3L295 142.7C293 146.8 290.3 149.3 284.3 149.3H263.7C262.1 149.3 260.6 148.8 259.3 148L252.3 143.4C250.3 142.1 248 141.4 245.6 141.4H240.5C238.7 141.4 237.2 142.9 237.2 144.7C237.2 146.3 238.3 147.6 239.9 147.9L247.2 149.4C247.2 149.4 249.2 161.4 259.2 161.4M351.2 75.3C354.5 75.3 357.2 72.6 357.2 69.3C357.2 66 354.5 63.3 351.2 63.3M249.2 141.3V107.3C249.2 106.2 248.3 105.3 247.2 105.3H214C213.5 105.3 213 105.5 212.6 105.9L201.8 116.7C201.4 117.1 201.2 117.6 201.2 118.1V171.3C201.2 172.4 202.1 173.3 203.2 173.3H247.2C248.3 173.3 249.2 172.4 249.2 171.3V165.3M214.2 106.3V118.3H202.2M148.5 201.3C145.2 201.3 142.3 203.8 142.3 207.1C142.2 210.5 144.9 213.3 148.3 213.3V225.3H129.3V197.3M149.2 201.4C155.8 201.4 161.2 196 161.2 189.4V184.4M137.2 232.4C137.2 232.4 132.6 242.7 113.6 241.3C90.7001 239.5 73.1001 220.1 73.2001 197.2C73.3001 177.3 85.3001 161.4 109.2 149.5L110.6 148.8C114.7 146.8 117.2 142.6 117.2 138.1V114.5C117.2 112.1 115.2 110.3 112.7 110.5C110.5 110.7 109 112.8 109.2 115C109.8 123.2 122.7 137.6 138.5 137.4C146.7 137.3 153.2 130.6 153.2 122.4V100.4C153.2 89.4001 144.2 80.4001 133.2 80.4001C122.9 80.4001 114.4 88.2 113.3 98.2C113.2 99.4 114.1 100.4 115.3 100.4H169.2M143.2 106.3C143.2 106.3 145.4 113.1 146.2 115.3C147.2 118.3 145.2 119.3 143.2 119.3H141.2M407.2 203.3C407.2 203.3 405 210.1 404.2 212.3C403.2 215.3 405.2 216.3 407.2 216.3H409.2M473.2 289.3V268.1C473.2 259 468 250.7 459.9 246.6L447.8 240.6C443.8 238.6 441.2 234.4 441.2 229.9V199.3C441.2 187.1 431.4 177.3 419.2 177.3C407 177.3 397.2 187.1 397.2 199.3V218.3C397.2 227.1 404.4 234.3 413.2 234.3C422 234.3 429.2 227.1 429.2 218.3V203.3C429.2 198.9 425.6 195.3 421.2 195.3H404.2M361.2 277.4C385.2 277.4 385.2 241.4 409.2 241.4H413.2M361.2 277.4V253.4C361.2 251.2 359.4 249.4 357.2 249.4H343.2C341 249.4 339.2 251.2 339.2 253.4V269.4M361.2 277.4V285.4C361.2 287.6 359.4 289.4 357.2 289.4H343.2M333.2 282.4V273.4C333.2 271.2 335 269.4 337.2 269.4H343.2C346.5 269.4 349.2 272.1 349.2 275.4V283.4C349.2 286.7 346.5 289.4 343.2 289.4M343.2 289.4H277.2C276.1 289.4 275.2 288.5 275.2 287.4V277.4C275.2 276.3 276.1 275.4 277.2 275.4H297.2C303.8 275.4 309.2 270 309.2 263.4V221.4C309.2 214.8 303.8 209.4 297.2 209.4H233.2C226.6 209.4 221.2 214.8 221.2 221.4V263.4C221.2 270 226.6 275.4 233.2 275.4H253.2C254.3 275.4 255.2 276.3 255.2 277.4V287.4C255.2 288.5 254.3 289.4 253.2 289.4H214.1C211.1 289.4 208.3 287.7 206.9 285L191.7 254.7C187.6 246.6 179.3 241.4 170.2 241.4H162.5C159.5 241.4 157 238.9 157 235.9C157 232.9 159.5 230.4 162.5 230.4H168.1C173.1 230.4 177 226.2 177 221.2V213.4C177 212.3 177.9 211.4 179 211.4H181C183 211.4 186 210.4 184 204.4L181 195.4C176.9 183.2 169 177.4 157 177.4H149C138 177.4 129 186.4 129 197.4M545.2 56.3C545.2 56.3 543 63.1 542.2 65.3C541.2 68.3 543.2 69.3 545.2 69.3H547.2M578.2 57.4001C571.2 57.4001 567.2 53.4 563.2 49.4C559.2 45.4 555.2 41.4 548.2 41.4C541 41.4 535.2 47.2 535.2 54.4V74.4C535.2 82.7 541.9 89.4 550.2 89.4H553.2C555.4 89.4 557.2 91.2 557.2 93.4C557.2 95.6 555.4 97.4 553.2 97.4H544C534.9 97.4 526.6 102.5 522.5 110.7L509.1 137.4M552.2 35.4C559.2 35.4 563.2 39.4 567.2 43.4C571.2 47.4 575.2 51.4 582.2 51.4M556.2 29.3C563.2 29.3 567.2 33.3 571.2 37.3C575.2 41.3 579.2 45.3 586.2 45.3M605.2 129.3L589.2 81.3C586.2 73.3 577.2 73.3 577.2 73.3H571.2C567.9 73.3 565.2 76 565.2 79.3V83.3C565.2 88.8 569.7 93.3 575.2 93.3C577 93.3 578.5 94.5 578.9 96.2L581.2 105.3L590.6 143.1C592.1 149.1 597.5 153.3 603.7 153.3C611.1 153.3 617.2 147.3 617.2 139.8V111.3C617.2 103.6 610.9 97.3 603.2 97.3M583.2 74.3V66.3C583.2 64.1 581.4 62.3 579.2 62.3H573.2C571 62.3 569.2 64.1 569.2 66.3V73.3M621.2 265.4H652.2C655.4 265.4 658.4 266.7 660.7 268.9L671 279.2C672.2 280.4 672.2 282.4 671 283.6C670 284.6 668.3 284.8 667.1 284L657.2 277.4M659.2 166.3C659.2 166.3 661.4 173.1 662.2 175.3C663.2 178.3 661.2 179.3 659.2 179.3H655.2C651.9 179.3 649.2 182 649.2 185.3C649.2 186.4 648.3 187.3 647.2 187.3C643.9 187.3 641.2 184.6 641.2 181.3V171.3C641.2 166.9 637.6 163.3 633.2 163.3H631.2C630.1 163.3 629.2 162.4 629.2 161.3C629.2 150 638.6 140.9 649.9 141.3C660.7 141.7 669.2 150.9 669.2 161.8V184.3C669.2 192.5 662.7 199.2 654.5 199.3C638.7 199.5 625.7 184.9 625.2 176.7C625.1 174.6 626.7 172.5 628.8 172.3C631.2 172.1 633.2 173.9 633.2 176.3V199.1C633.2 203.6 630.6 207.8 626.6 209.8L614.5 215.8C606.4 219.9 601.2 228.2 601.2 237.3V269.3C601.2 275.9 606.6 281.3 613.2 281.3H644.2C647.4 281.3 650.4 282.6 652.7 284.8L661.1 293.2C663.5 295.6 667.3 296.2 670.3 294.7L681.1 289.3M722.2 97.3C722.2 97.3 720 104.1 719.2 106.3C718.2 109.3 720.2 110.3 722.2 110.3H724.2M754.2 96.3C748.2 96.3 744.2 92.3001 740.2 88.3001C736.2 84.3001 732.2 80.3 725.2 80.3C718 80.3 712.2 86.1 712.2 93.3V113.3C712.2 121.5 718.7 128.2 726.9 128.3C742.7 128.5 755.7 113.9 756.2 105.7C756.3 103.6 754.7 101.5 752.6 101.3C750.2 101.1 748.2 102.9 748.2 105.3V129.3M708.2 85.3C708.2 76.5 715.4 69.3 724.2 69.3C729.2 69.3 734.2 69.3 734.2 69.3C749.7 69.3 762.2 81.8 762.2 97.3V102.3C762.2 108.3 766.2 110.3 768.2 112.3C770.2 114.3 774.2 117.3 774.2 123.3C774.2 129.3 770.2 133.3 770.2 133.3M748.2 130.3C748.2 134.7 751.8 138.3 756.2 138.3H759.3C765.7 138.3 771.8 140.7 776.4 145.1L788.8 157C789.6 157.7 790.8 157.7 791.6 157L816.2 133.3C816.2 124.1 824.9 119.1 829.1 117.2C830.3 116.6 831.8 116.9 832.8 117.9C834.1 119.2 834.1 121.4 832.6 122.7L827.2 127.4C830.1 132.3 829.2 141 822.7 145.1C822.4 145.3 822.2 145.6 822.2 145.9V153.3C822.2 154.4 823.1 155.3 824.2 155.3H865.2M822.2 113.3V91.3C822.2 90.2 823.1 89.3 824.2 89.3H856.4C856.9 89.3 857.4 89.5 857.8 89.9L868.6 100.7C869 101.1 869.2 101.6 869.2 102.1V121.3M856.2 90.3V102.3H868.2M827.2 201.3C830.6 201.3 833.3 198.5 833.2 195.1C833.1 191.8 830.2 189.3 827 189.3H824.3C823 189.3 821.7 188.8 820.8 187.8L819.3 186.3C817.5 184.5 817 181.7 818.2 179.4L819.8 176.2C820.5 174.9 819.5 173.3 818 173.3H808.2M838.2 214.4C838.2 222.7 844.9 229.4 853.2 229.4C865.2 229.4 881.2 213.4 881.2 185.4C881.2 168.2 873.9 151 859.3 135.5C858.2 134.3 858.2 132.4 859.4 131.3C860.5 130.2 862.2 130.1 863.4 131L869.3 135.4V121.4C875.9 121.4 881.3 126.8 881.3 133.4V141.4M734.5 293.4C723.8 293.4 718.5 287.4 718.5 287.4L714.5 287.1C712.4 286.9 710.4 286.2 708.8 284.8C706.9 283.1 705.6 280.7 705.4 278.1V276C705.4 273.3 707.2 271.4 709.4 271.3L715.7 271.2C717.9 271 720.1 271.7 721.9 273L727.3 276.8C728 277.3 728.8 277.5 729.6 277.5H766.2L783.6 242.8C787.7 234.7 796 229.5 805.1 229.5H812.8C815.8 229.5 818.3 227 818.3 224C818.3 221 815.8 218.5 812.8 218.5H807.2C802.2 218.5 798.3 214.3 798.3 209.3V201.5C798.3 200.4 797.4 199.5 796.3 199.5H794.3C792.3 199.5 789.3 198.5 791.3 192.5L794.3 183.5C798.4 171.3 806.3 165.5 818.3 165.5C831.6 165.5 842.3 176.2 842.3 189.5C842.3 199.5 838.3 202.5 838.3 214.5M751.1 145.4C748.5 150.7 743.4 154.4 737.1 154.4C728.9 154.4 722.1 148.2 721.2 140.2C721.1 139.2 720.2 138.4 719.2 138.4H708.2C701.4 138.4 695.1 142.3 692.1 148.4L679.2 174.4M674.8 247.9C668.5 243.8 664.5 236.4 665.6 228.1C666.8 218.7 674.1 211.5 683.5 210.5C695.8 209.1 706.2 218.7 706.2 230.8C706.2 245.4 693.4 252 685.8 248.8C685.8 248.8 678.6 244 678.6 235.6C678.6 224.6 693.1 224.2 693 235.6C693 240.6 689.9 244.9 687 247.6L681 252.4L673.8 258.4H693.6C695.3 258.4 696.6 259.7 696.6 261.4C696.6 263.1 695.3 264.4 693.6 264.4H682.8C681.1 264.4 679.8 265.7 679.8 267.4C679.8 269.1 681.1 270.4 682.8 270.4H689.6M527.7 240.6V231C527.7 225.7 532 221.4 537.3 221.4C542.6 221.4 546.9 225.7 546.9 231V240.6H519.3C516.6 240.6 514.5 242.7 514.5 245.4V276.6C514.5 279.3 516.6 281.4 519.3 281.4H520.5C529.4 281.4 542.1 271.8 542.1 263.4C542.1 260.7 540 258.6 537.3 258.6C534.6 258.6 532.5 260.7 532.5 263.4C532.5 271.8 545.2 281.4 554.1 281.4H555.3C558 281.4 560.1 279.3 560.1 276.6V245.4C560.1 242.7 557.9 240.6 555.3 240.6C554.3 240.6 553.7 240.6 554.1 240.6M321.2 203.1V157.6M328.4 150.3V210.4M342.8 157.6V203.1M335.6 195.9V164.7M350 171.9V188.7M357.2 182.7V177.9M673.6 64.2001L682.6 55.2001C683.7 54.1001 683.5 52.3 682.3 51C681.1 49.8 679.2 49.6001 678.1 50.7001L663.7 65.1V69.6H668.1M687.8 50H692.2V54.5L677.8 68.9001C676.7 70.0001 674.9 69.8 673.6 68.6C672.4 67.4 672.2 65.5001 673.3 64.4001L682 55.7001M682.4 55.3C682.4 55.3 678.6 56.9 675.1 53.8C675.1 53.8 673.5 52.6 673.1 49.6M680.7 65.8C677.2 62.8 673.4 64.3 673.4 64.3M686.2 68.3V71.5C686.2 74.2 684.1 76.3 681.4 76.3H631C628.3 76.3 626.2 74.2 626.2 71.5V37.9C626.2 35.2 628.3 33.1 631 33.1H681.4C684.1 33.1 686.2 35.2 686.2 37.9V43.9M484.7 81.2001C482.1 82.0001 479.3 82.4001 476.5 82.4001C460.6 82.4001 447.7 69.5 447.7 53.6C447.7 37.7001 460.6 24.8 476.5 24.8C492.4 24.8 505.3 37.7001 505.3 53.6C505.3 67.2001 497.5 75.2001 487.9 75.2001C486.2 75.2001 484.5 74.9 482.9 74.3C476 71.8 470.3 66.7 467.1 60L466.7 59.2001C463.5 52.5001 463.2 44.9 465.7 37.9L465.9 37.6C466.2 36.7 466.9 36 467.8 35.5L469.5 34.7C471.3 33.8 473.5 34.6 474.4 36.4L476.8 41.5C477.7 43.3 476.9 45.5 475.1 46.4L473.4 47.2001C473.4 47.2001 472.3 47.7 471.6 48.1C470.5 48.6 469.9 53.2 471.9 57.5C473.9 61.7 478.3 63.8 479 63.5C479.7 63.2 480.7 62.7001 480.7 62.7001L482.4 61.9001C484.2 61.0001 486.4 61.8 487.3 63.6L489.8 68.9001M255.8 36.6V46.1L251 46.1C249.7 46.1 248.6 47.2 248.6 48.5V65.9001C248.6 66.9001 249.4 67.7001 250.4 67.7001H267.8C269.1 67.7001 270.2 66.6 270.2 65.3V48.5C270.2 47.2 269.1 46.1 267.8 46.1H262.2M266.6 46.1H275C276.3 46.1 277.4 45.0001 277.4 43.7001V36.5M270.2 57H279.8M279.8 57C279.8 59.651 281.949 61.8 284.6 61.8C287.251 61.8 289.4 59.651 289.4 57C289.4 54.3491 287.251 52.2001 284.6 52.2001C281.949 52.2001 279.8 54.3491 279.8 57ZM248.6 56.9001H239M252.2 67.7001H243.8C242.5 67.7001 241.4 68.8 241.4 70.1V77.3M263 67.7001V77.3M314.5 81.3C314.5 83.5092 312.709 85.3 310.5 85.3C308.291 85.3 306.5 83.5092 306.5 81.3C306.5 79.0909 308.291 77.3 310.5 77.3C312.709 77.3 314.5 79.0909 314.5 81.3ZM777.2 285.4C777.2 288.2 775 290.4 772.2 290.4C767.2 290.4 762.5 284.8 766.2 277.4C773.2 277.4 777.2 281.4 777.2 285.4ZM282.1 31.7C282.1 34.351 279.951 36.5 277.3 36.5C274.649 36.5 272.5 34.351 272.5 31.7C272.5 29.0491 274.649 26.9 277.3 26.9C279.951 26.9 282.1 29.0491 282.1 31.7ZM260.6 31.7C260.6 34.351 258.451 36.5 255.8 36.5C253.149 36.5 251 34.351 251 31.7C251 29.0491 253.149 26.9 255.8 26.9C258.451 26.9 260.6 29.0491 260.6 31.7ZM267.8 82.2001C267.8 84.851 265.651 87 263 87C260.349 87 258.2 84.851 258.2 82.2001C258.2 79.5491 260.349 77.4001 263 77.4001C265.651 77.4001 267.8 79.5491 267.8 82.2001ZM246.4 82.2001C246.4 84.851 244.251 87 241.6 87C238.949 87 236.8 84.851 236.8 82.2001C236.8 79.5491 238.949 77.4001 241.6 77.4001C244.251 77.4001 246.4 79.5491 246.4 82.2001ZM239 57C239 59.651 236.851 61.8 234.2 61.8C231.549 61.8 229.4 59.651 229.4 57C229.4 54.3491 231.549 52.2001 234.2 52.2001C236.851 52.2001 239 54.3491 239 57Z" stroke="url(#paint0_linear)" stroke-width="2.5" stroke-miterlimit="10" stroke-linecap="round" stroke-linejoin="round"/>
<path d="M327.2 62.3C328.305 62.3 329.2 61.4046 329.2 60.3C329.2 59.1955 328.305 58.3 327.2 58.3C326.096 58.3 325.2 59.1955 325.2 60.3C325.2 61.4046 326.096 62.3 327.2 62.3Z" fill="#5EB08D"/>
<path d="M441 112.3C442.105 112.3 443 111.405 443 110.3C443 109.195 442.105 108.3 441 108.3C439.895 108.3 439 109.195 439 110.3C439 111.405 439.895 112.3 441 112.3Z" fill="#5EB08D"/>
<path d="M172.2 200.3C173.305 200.3 174.2 199.405 174.2 198.3C174.2 197.195 173.305 196.3 172.2 196.3C171.096 196.3 170.2 197.195 170.2 198.3C170.2 199.405 171.096 200.3 172.2 200.3Z" fill="#5EB08D"/>
<path d="M133.2 110.3C134.305 110.3 135.2 109.405 135.2 108.3C135.2 107.195 134.305 106.3 133.2 106.3C132.096 106.3 131.2 107.195 131.2 108.3C131.2 109.405 132.096 110.3 133.2 110.3Z" fill="#5EB08D"/>
<path d="M417.2 207.3C418.305 207.3 419.2 206.405 419.2 205.3C419.2 204.195 418.305 203.3 417.2 203.3C416.096 203.3 415.2 204.195 415.2 205.3C415.2 206.405 416.096 207.3 417.2 207.3Z" fill="#5EB08D"/>
<path d="M555.2 60.3C556.305 60.3 557.2 59.4046 557.2 58.3C557.2 57.1955 556.305 56.3 555.2 56.3C554.096 56.3 553.2 57.1955 553.2 58.3C553.2 59.4046 554.096 60.3 555.2 60.3Z" fill="#5EB08D"/>
<path d="M649.2 170.3C650.305 170.3 651.2 169.405 651.2 168.3C651.2 167.195 650.305 166.3 649.2 166.3C648.096 166.3 647.2 167.195 647.2 168.3C647.2 169.405 648.096 170.3 649.2 170.3Z" fill="#5EB08D"/>
<path d="M732.2 101.3C733.305 101.3 734.2 100.405 734.2 99.3C734.2 98.1955 733.305 97.3 732.2 97.3C731.096 97.3 730.2 98.1955 730.2 99.3C730.2 100.405 731.096 101.3 732.2 101.3Z" fill="#5EB08D"/>
<path d="M803.2 188.3C804.305 188.3 805.2 187.405 805.2 186.3C805.2 185.195 804.305 184.3 803.2 184.3C802.096 184.3 801.2 185.195 801.2 186.3C801.2 187.405 802.096 188.3 803.2 188.3Z" fill="#5EB08D"/>
<path d="M364.4 182.4C365.504 182.4 366.4 181.505 366.4 180.4C366.4 179.296 365.504 178.4 364.4 178.4C363.295 178.4 362.4 179.296 362.4 180.4C362.4 181.505 363.295 182.4 364.4 182.4Z" fill="#5EB08D"/>
<path d="M371.6 182.4C372.705 182.4 373.6 181.505 373.6 180.4C373.6 179.296 372.705 178.4 371.6 178.4C370.496 178.4 369.6 179.296 369.6 180.4C369.6 181.505 370.496 182.4 371.6 182.4Z" fill="#5EB08D"/>
<defs>
<linearGradient id="paint0_linear" x1="477.25" y1="24.8" x2="477.25" y2="295.518" gradientUnits="userSpaceOnUse">
<stop stop-color="#93C437"/>
<stop offset="1" stop-color="#279BE8"/>
</linearGradient>
</defs>
</svg>
