<svg width="321" height="321" viewBox="0 0 321 321" fill="none" xmlns="http://www.w3.org/2000/svg">
<path d="M232.2 193.2V165.2C232.2 158.6 226.8 153.2 220.2 153.2H100.2C93.6 153.2 88.2 158.6 88.2 165.2V238.2M232.2 193.2H180.2M232.2 193.2C263.1 193.2 288.2 175.3 288.2 153.2C288.2 131.1 263.1 113.2 232.2 113.2C218.9 113.2 208.2 118.6 208.2 125.2C208.2 131.8 218.9 137.2 232.2 137.2C263.1 137.2 288.2 119.3 288.2 97.2C288.2 75.1 263.1 57.2 232.2 57.2C160.2 57.2 120.2 113.2 32.2 113.2M239.2 245.2H246.2C247.3 245.2 248.2 246.1 248.2 247.2C248.2 252.7 243.7 257.2 238.2 257.2H82.2C76.7 257.2 72.2 252.7 72.2 247.2C72.2 246.1 73.1 245.2 74.2 245.2H230.2C231.3 245.2 232.2 244.3 232.2 243.2V200.2M152.2 181.2V205.2M152.2 181.2C152.2 179 154 177.2 156.2 177.1H168.5C169.5 177.1 170.5 177.5 171.3 178.3L179 186C179.8 186.7 180.2 187.7 180.2 188.8V197.5C180.2 198.5 179.8 199.5 179 200.3L171.3 208C170.6 208.8 169.6 209.2 168.5 209.2H156.2C154 209.2 152.2 207.4 152.2 205.2M152.2 181.2H142.2C141.1 181.2 140.2 182.1 140.2 183.2V203.2C140.2 204.3 141.1 205.2 142.2 205.2H152.2" stroke="black" stroke-width="2.5" stroke-miterlimit="10" stroke-linecap="round" stroke-linejoin="round"/>
</svg>
