<svg width="121" height="120" viewBox="0 0 121 120" fill="none" xmlns="http://www.w3.org/2000/svg">
<path d="M99.2 67.2H112.2C114.4 67.2 116.2 65.4 116.2 63.2V48.2C116.2 46 114.4 44.2 112.2 44.2H74.2C72 44.2 70.2 46 70.2 48.2V63.2C70.2 65.4 72 67.2 74.2 67.2H90.2C91.3 67.2 92.2 68.1 92.2 69.2V84.2C92.2 88.6 88.6 92.1999 84.2 92.1999H12.2C7.79995 92.1999 4.19995 88.6 4.19995 84.2V36.2C4.19995 31.8 7.79995 28.2 12.2 28.2H84.2C88.6 28.2 92.2 31.8 92.2 36.2V37.2M79.8 56.1V53.2M79.8 56.1L77.2 55.2999M79.8 56.1L78.2 58.2M79.8 56.1L81.3 58.2M79.8 56.1L82.2 55.2999M88.8 56.1V53.2M88.8 56.1L86.2 55.2999M88.8 56.1L87.2 58.2M88.8 56.1L90.3 58.2M88.8 56.1L91.2 55.2999M97.8 56.1V53.2M97.8 56.1L95.2 55.2999M97.8 56.1L96.2 58.2M97.8 56.1L99.3 58.2M97.8 56.1L100.2 55.2999M106.8 56.1V53.2M106.8 56.1L104.2 55.2999M106.8 56.1L105.2 58.2M106.8 56.1L108.3 58.2M106.8 56.1L109.2 55.2999" stroke="black" stroke-width="2" stroke-miterlimit="10" stroke-linecap="round" stroke-linejoin="round"/>
</svg>
