<svg width="120" height="120" viewBox="0 0 120 120" fill="none" xmlns="http://www.w3.org/2000/svg">
<path d="M29.866 59.45H21.866C20.766 59.45 19.866 58.55 19.866 57.45V19.45C19.866 15.05 23.466 11.45 27.866 11.45H95.866C100.266 11.45 103.866 15.05 103.866 19.45V44.45M29.866 59.45C29.866 61.6591 31.6568 63.45 33.866 63.45C36.0751 63.45 37.866 61.6591 37.866 59.45M29.866 59.45C29.866 57.2408 31.6568 55.45 33.866 55.45C36.0751 55.45 37.866 57.2408 37.866 59.45M12.866 59.45H7.86597C5.66597 59.45 3.86597 61.25 3.86597 63.45V105.45C3.86597 106.55 4.76597 107.45 5.86597 107.45H10.666C11.466 107.45 12.166 107.05 12.466 106.35L14.866 101.45H52.866L55.266 106.35C55.566 107.05 56.266 107.45 57.066 107.45H61.866C62.966 107.45 63.866 106.55 63.866 105.45V63.45C63.866 61.25 62.066 59.45 59.866 59.45H37.866M91.866 74.4499V87.45C91.866 89.65 93.666 91.45 95.866 91.45H111.866C114.066 91.45 115.866 89.65 115.866 87.45V55.45C115.866 53.25 114.066 51.45 111.866 51.45H95.866C93.666 51.45 91.866 53.25 91.866 55.45V65.45C91.866 66.55 90.966 67.45 89.866 67.45H73.866C72.766 67.45 71.866 68.35 71.866 69.45V81.45C71.866 82.55 72.766 83.45 73.866 83.45H83.866M3.96597 95.45H63.866" stroke="black" stroke-width="2.5" stroke-linecap="round" stroke-linejoin="round"/>
</svg>
