<svg width="120" height="120" viewBox="0 0 120 120" fill="none" xmlns="http://www.w3.org/2000/svg">
<path d="M93.75 28.125H63.5839C62.7701 28.1263 61.9659 27.9504 61.2269 27.6096C60.488 27.2687 59.8321 26.7712 59.3047 26.1514L56.4979 22.848C54.9152 20.9749 52.9427 19.4699 50.718 18.4382C48.4934 17.4066 46.0703 16.8731 43.6181 16.875H26.25C21.776 16.8799 17.4866 18.6593 14.3229 21.8229C11.1593 24.9866 9.37986 29.276 9.375 33.75V86.25C9.37986 90.724 11.1593 95.0134 14.3229 98.1771C17.4866 101.341 21.776 103.12 26.25 103.125H93.75C98.224 103.12 102.513 101.341 105.677 98.1771C108.841 95.0134 110.62 90.724 110.625 86.25V45C110.62 40.526 108.841 36.2367 105.677 33.0731C102.513 29.9095 98.224 28.13 93.75 28.125ZM26.25 20.625H43.6174C45.525 20.6225 47.4101 21.0371 49.1407 21.8397C50.8713 22.6422 52.4055 23.8135 53.6359 25.2713L56.4503 28.5818C57.3295 29.615 58.4229 30.4447 59.6547 31.0133C60.8865 31.582 62.2272 31.876 63.5839 31.875H93.75C97.2297 31.8793 100.566 33.2635 103.026 35.7239C105.487 38.1844 106.871 41.5203 106.875 45V50.625H13.125V33.75C13.1292 30.2703 14.5133 26.9343 16.9738 24.4738C19.4343 22.0133 22.7703 20.6292 26.25 20.625ZM93.75 99.375H26.25C22.7703 99.3708 19.4343 97.9867 16.9738 95.5262C14.5133 93.0657 13.1292 89.7297 13.125 86.25V54.375H106.875V86.25C106.871 89.7297 105.487 93.0656 103.026 95.5261C100.566 97.9866 97.2297 99.3707 93.75 99.375Z" fill="url(#paint0_linear)"/>
<defs>
<linearGradient id="paint0_linear" x1="60" y1="16.875" x2="60" y2="103.125" gradientUnits="userSpaceOnUse">
<stop stop-color="#93C437"/>
<stop offset="1" stop-color="#279BE8"/>
</linearGradient>
</defs>
</svg>
