<svg width="193" height="193" viewBox="0 0 193 193" fill="none" xmlns="http://www.w3.org/2000/svg">
<g clip-path="url(#clip0)">
<path d="M112.2 30.2V6.20001M164.2 82.2H188.2M66.2 166.2C58.2 176.2 39.5 179.9 28.2 174.2L16.2 186.2M150.2 44.2L168.2 26.2M104.2 118.2C99.8 118.2 96.2 114.6 96.2 110.2C96.2 105.8 99.8 102.2 104.2 102.2H120.2C124.7 102.2 128.2 105.8 128.2 110.2C128.2 114.6 124.6 118.2 120.2 118.2H104.2ZM104.2 118.2H84.2C79.8 118.2 76.2 121.8 76.2 126.2C76.2 130.6 79.8 134.2 84.2 134.2H104.2C108.6 134.2 112.2 130.6 112.2 126.2C112.2 121.8 108.7 118.2 104.2 118.2ZM4.2 134.2L24.2 114.2C36.2 102.2 42.2 96.2 48.2 94.2L88.6 80.7C89.5 80.4 90.6 80.8 91 81.7C94.8 89.3 91 98.6 82.9 101.3L65.2 107.2C59.2 109.2 54.2 109.2 52.2 107.2C49.6 104.6 53.7 98.8 57.9 102.3C59.3 103.4 60 105.2 60.1 107C61.5 138.3 42.4 149.6 35.2 153.2C33.2 154.2 32.2 157.2 34.2 159.2L39.2 164.4C42.2 167.4 44.2 166.2 47.2 163.2L54.2 156.2M112.2 42.2C111.2 43.2 110.2 44.2 109.2 49.2L105 70.7C104.5 73 103.4 75.2 101.7 76.8L99.3 79.2M152.2 82.2C151.2 83.2 150.2 84.2 145.2 85.2L123.8 89.5C121.5 90 119.3 91.1 117.7 92.8L108.3 102.2M92.2 134.2H72.2C67.8 134.2 64.2 137.8 64.2 142.2C64.2 146.6 67.8 150.2 72.2 150.2H92.2C96.6 150.2 100.2 146.6 100.2 142.2C100.2 137.8 96.7 134.2 92.2 134.2ZM80.3 150.2H68.3C63.9 150.2 60.3 153.8 60.3 158.2C60.3 162.6 63.9 166.2 68.3 166.2H80.3C84.7 166.2 88.3 162.6 88.3 158.2C88.2 153.8 84.7 150.2 80.3 150.2ZM139.956 54.4724C151.008 65.5241 156.485 77.9657 152.189 82.2614C147.893 86.5572 135.452 81.0803 124.4 70.0286C113.348 58.9769 107.871 46.5353 112.167 42.2396C116.463 37.9439 128.904 43.4207 139.956 54.4724Z" stroke="black" stroke-width="2.5" stroke-miterlimit="10" stroke-linecap="round" stroke-linejoin="round"/>
</g>
<defs>
<clipPath id="clip0">
<rect width="192" height="192" fill="white" transform="translate(0.333984 0.75)"/>
</clipPath>
</defs>
</svg>
