<svg width="192" height="192" viewBox="0 0 192 192" fill="none" xmlns="http://www.w3.org/2000/svg"><path d="M15.307 127.782a1.25 1.25 0 0 0 1.118 2.236l-1.118-2.236ZM90.117 74.9a1.25 1.25 0 1 0-2.5 0h2.5Zm-74.81 60.882a1.25 1.25 0 0 0 1.118 2.236l-1.118-2.236Zm11.16-4.182-.493-1.149-.067.031.56 1.118Zm3.5 44.3-.113-1.245h-.001l.113 1.245Zm13.2-19.8.194 1.235.05-.009-.245-1.226Zm-3.3 4.1h-1.25v.015l1.25-.015Zm17.8 15.7.103-1.246h-.003l-.1 1.246Zm3.9-61.8.517 1.138a.929.929 0 0 0 .047-.023l-.565-1.115Zm8.3-4.2-.56-1.118-.005.003.564 1.115Zm35.449.4a1.25 1.25 0 0 0 1.5-2l-1.5 2Zm69.991-30.282a1.25 1.25 0 1 0 1.118-2.236l-1.118 2.236ZM104.116 24.9a1.25 1.25 0 1 0-2.5 0h2.5Zm71.191 63.118a1.25 1.25 0 1 0 1.118-2.236l-1.118 2.236ZM165.266 81.6l.559-1.118a1.63 1.63 0 0 0-.066-.031l-.493 1.149Zm-3.5 44.3.113-1.245h-.001l-.112 1.245Zm-13.2-19.8-.245 1.226.05.009.195-1.235Zm3.3 4.1 1.25.015v-.015h-1.25Zm-17.8 15.7-.1-1.246h-.004l.104 1.246Zm-3.9-61.9-.564 1.115a.852.852 0 0 0 .047.023l.517-1.138Zm-8.3-4.2.565-1.115-.006-.003-.559 1.118Zm-36.95-1.6a1.25 1.25 0 1 0 1.5 2l-1.5-2Zm-68.49 71.818 52-26-1.119-2.236-52 26 1.118 2.236Zm52-26c7.995-3.998 13.481-7.352 16.922-11.72 3.496-4.436 4.768-9.761 4.768-17.398h-2.5c0 7.363-1.227 12.038-4.232 15.851-3.059 3.883-8.073 7.029-16.077 11.031l1.118 2.236Zm-52 34 10.6-5.3-1.119-2.236-10.6 5.3 1.118 2.236Zm10.533-5.269a.202.202 0 0 1-.097.011.277.277 0 0 1-.127-.045.266.266 0 0 1-.119-.215h2.5a2.235 2.235 0 0 0-3.142-2.049l.985 2.298Zm-.343-.249v41.4h2.5v-41.4h-2.5Zm0 41.4c0 1.905 1.602 3.414 3.463 3.245l-.226-2.49c-.338.031-.737-.26-.737-.755h-2.5Zm3.462 3.245c10.386-.935 19.038-8.068 19.038-17.145h-2.5c0 7.323-7.148 13.79-16.762 14.655l.224 2.49ZM49.116 160c0-3.134-2.868-5.791-6.195-5.126l.49 2.452c1.674-.335 3.205 1.008 3.205 2.674h2.5Zm-6.145-5.135c-2.58.408-4.355 2.797-4.355 5.335h2.5c0-1.462 1.026-2.673 2.245-2.865l-.39-2.47Zm-4.355 5.35c.11 9.06 8.645 16.098 18.95 16.931l.2-2.492c-9.494-.767-16.56-7.129-16.65-14.469l-2.5.03Zm18.946 16.931c1.91.159 3.554-1.296 3.554-3.246h-2.5c0 .45-.356.795-.846.754l-.208 2.492Zm3.554-3.246v-57.1h-2.5v57.1h2.5Zm0-57.1c0-.666.363-1.287.968-1.562l-1.035-2.276c-1.595.725-2.433 2.304-2.433 3.838h2.5Zm1.015-1.585 8.3-4.2-1.13-2.23-8.3 4.2 1.13 2.23Zm8.294-4.197c9.02-4.51 14.838-6.777 19.827-6.919 4.88-.138 9.148 1.764 15.064 6.201l1.5-2c-6.084-4.563-10.916-6.861-16.635-6.7-5.612.159-11.893 2.691-20.874 7.182l1.118 2.236Zm42.35-26.548c2.977 5.954 4.544 11.84 4.714 16.511.175 4.795-1.112 7.793-3.171 8.823l1.118 2.236c3.473-1.737 4.733-6.168 4.551-11.15-.186-5.104-1.877-11.34-4.976-17.538l-2.236 1.118Zm1.543 25.334c-2.059 1.029-5.23.26-8.961-2.757-3.635-2.939-7.404-7.724-10.38-13.678l-2.237 1.118c3.1 6.198 7.074 11.293 11.046 14.504 3.876 3.134 8.177 4.786 11.65 3.049l-1.118-2.236ZM94.977 93.369C92 87.416 90.433 81.53 90.263 76.858c-.175-4.795 1.111-7.793 3.17-8.823L92.317 65.8c-3.474 1.737-4.733 6.169-4.552 11.15.186 5.104 1.877 11.34 4.977 17.538l2.236-1.118Zm-1.543-25.334c2.059-1.03 5.23-.26 8.96 2.757 3.635 2.94 7.404 7.725 10.381 13.678l2.236-1.118c-3.099-6.198-7.073-11.293-11.045-14.504-3.876-3.134-8.177-4.785-11.65-3.049l1.118 2.236Zm82.991 9.747-52-26-1.118 2.236 52 26 1.118-2.236Zm-52-26c-8.004-4.002-13.018-7.148-16.077-11.03-3.004-3.814-4.232-8.489-4.232-15.852h-2.5c0 7.637 1.273 12.962 4.768 17.399 3.441 4.367 8.927 7.72 16.923 11.719l1.118-2.236Zm52 34-10.6-5.3-1.118 2.236 10.6 5.3 1.118-2.236Zm-10.666-5.331a2.236 2.236 0 0 0-3.143 2.049h2.5a.265.265 0 0 1-.119.215.276.276 0 0 1-.126.045.208.208 0 0 1-.097-.011l.985-2.298Zm-3.143 2.049v41.4h2.5V82.5h-2.5Zm0 41.4c0 .495-.398.786-.737.755l-.226 2.49c1.861.169 3.463-1.34 3.463-3.245h-2.5Zm-.738.755c-9.614-.865-16.762-7.332-16.762-14.655h-2.5c0 9.077 8.652 16.21 19.038 17.145l.224-2.49ZM145.116 110c0-1.666 1.532-3.009 3.205-2.674l.49-2.452c-3.326-.665-6.195 1.992-6.195 5.126h2.5Zm3.255-2.665c1.22.192 2.245 1.403 2.245 2.865h2.5c0-2.538-1.774-4.927-4.355-5.335l-.39 2.47Zm2.245 2.85c-.089 7.34-7.155 13.702-16.65 14.469l.201 2.492c10.305-.833 18.839-7.871 18.949-16.931l-2.5-.03Zm-16.654 14.469c-.489.041-.846-.304-.846-.754h-2.5c0 1.95 1.644 3.405 3.554 3.246l-.208-2.492Zm-.846-.754V66.7h-2.5v57.2h2.5Zm0-57.2c0-1.534-.837-3.113-2.433-3.838l-1.034 2.276c.605.275.967.896.967 1.562h2.5Zm-2.385-3.815-8.3-4.2-1.129 2.23 8.3 4.2 1.129-2.23Zm-8.306-4.203c-8.981-4.49-15.262-7.023-20.873-7.181-5.72-.162-10.552 2.136-16.636 6.699l1.5 2c5.916-4.437 10.184-6.339 15.065-6.2 4.988.14 10.807 2.408 19.826 6.918l1.118-2.236ZM98.35 18.052c2.059 1.03 3.345 4.028 3.171 8.823-.17 4.672-1.737 10.558-4.714 16.511l2.236 1.118c3.099-6.198 4.79-12.434 4.976-17.538.182-4.981-1.078-9.413-4.551-11.15l-1.118 2.237Zm-1.543 25.334c-2.977 5.954-6.746 10.74-10.38 13.678-3.732 3.017-6.902 3.786-8.961 2.757l-1.118 2.236c3.473 1.737 7.774.085 11.65-3.049 3.972-3.21 7.946-8.306 11.045-14.504l-2.236-1.118ZM77.466 59.821c-2.06-1.03-3.346-4.028-3.171-8.822.17-4.672 1.737-10.558 4.713-16.512l-2.236-1.118c-3.099 6.198-4.79 12.434-4.976 17.539-.181 4.98 1.078 9.412 4.552 11.149l1.118-2.236Zm1.543-25.334c2.976-5.953 6.745-10.739 10.38-13.678 3.731-3.016 6.902-3.786 8.96-2.756l1.119-2.237c-3.473-1.736-7.774-.085-11.65 3.05-3.972 3.21-7.947 8.305-11.046 14.503l2.236 1.118Z" fill="url(#a)"/><defs><linearGradient id="a" x1="95.866" y1="16.367" x2="95.866" y2="175.908" gradientUnits="userSpaceOnUse"><stop stop-color="#279BE8"/><stop offset="1" stop-color="#875AE0"/></linearGradient></defs></svg>