<svg width="193" height="192" viewBox="0 0 193 192" fill="none" xmlns="http://www.w3.org/2000/svg">
<path d="M16.2002 128.9L68.2002 102.9C84.2002 94.9 89.2002 89.9 89.2002 74.9M16.2002 136.9L26.8002 131.6C27.5002 131.3 28.2002 131.8 28.2002 132.5V173.9C28.2002 175.1 29.2002 176 30.3002 175.9C40.3002 175 48.2002 168.2 48.2002 160C48.2002 157.6 46.0002 155.6 43.5002 156.1C41.6002 156.4 40.2002 158.2 40.2002 160.2C40.3002 168.4 48.1002 175.1 58.0002 175.9C59.2002 176 60.2002 175.1 60.2002 173.9V116.8C60.2002 115.7 60.8002 114.6 61.9002 114.1L70.2002 109.9C88.2002 100.9 94.4002 100.3 106.4 109.3M176.2 78.9L124.2 52.9C108.2 44.9 103.2 39.9 103.2 24.9M176.2 86.9L165.6 81.6C164.9 81.3 164.2 81.8 164.2 82.5V123.9C164.2 125.1 163.2 126 162.1 125.9C152.1 125 144.2 118.2 144.2 110C144.2 107.6 146.4 105.6 148.9 106.1C150.8 106.4 152.2 108.2 152.2 110.2C152.1 118.4 144.3 125.1 134.4 125.9C133.2 126 132.2 125.1 132.2 123.9V66.7C132.2 65.6 131.6 64.5 130.5 64L122.2 59.8C104.2 50.8 98.0002 50.2 86.0002 59.2M114.227 83.9111C120.303 96.0626 120.743 108.156 115.211 110.922C109.678 113.688 100.268 106.08 94.1925 93.9283C88.1167 81.7768 87.6762 69.6836 93.2086 66.9175C98.741 64.1513 108.151 71.7596 114.227 83.9111ZM99.2428 16.9345C104.775 19.7007 104.335 31.7939 98.259 43.9454C92.1832 56.0969 82.773 63.7052 77.2406 60.939C71.7082 58.1728 72.1487 46.0796 78.2244 33.9281C84.3002 21.7766 93.7104 14.1683 99.2428 16.9345Z" stroke="black" stroke-width="2.5" stroke-miterlimit="10" stroke-linecap="round" stroke-linejoin="round"/>
</svg>
