<svg width="329" height="329" viewBox="0 0 329 329" fill="none" xmlns="http://www.w3.org/2000/svg">
<path d="M261.234 148.683C261.234 174.428 240.364 195.298 214.619 195.298C188.874 195.298 168.004 174.428 168.004 148.683C168.004 122.938 188.874 102.068 214.619 102.068M219.414 92.7446H218.348C216.288 92.7446 214.619 94.4143 214.619 96.4738V144.954C214.619 147.013 216.288 148.683 218.348 148.683H266.828C268.887 148.683 270.557 147.013 270.557 144.954V143.888C270.557 115.642 247.659 92.7446 219.414 92.7446Z" stroke="black" stroke-width="2.5" stroke-miterlimit="10" stroke-linecap="round" stroke-linejoin="round"/>
<path d="M123.212 157.651C122.993 156.996 122.285 156.643 121.63 156.861C120.975 157.08 120.622 157.788 120.841 158.443L123.212 157.651ZM125.51 168.469L124.325 168.865L125.51 168.469ZM108.439 181.583L107.248 181.204C107.246 181.212 107.243 181.22 107.241 181.229L108.439 181.583ZM80.3072 147.538L81.552 147.652C81.553 147.641 81.5538 147.63 81.5545 147.619L80.3072 147.538ZM108.875 121.658L108.839 122.907L108.839 122.907L108.875 121.658ZM115.233 201.644L115.238 202.894L115.243 202.894L115.233 201.644ZM76.7362 163.779L77.986 163.758C77.9859 163.752 77.9858 163.746 77.9856 163.74L76.7362 163.779ZM81.4394 158.221L81.5558 159.465C81.5629 159.465 81.57 159.464 81.5771 159.463L81.4394 158.221ZM37.4813 234.455L36.2954 234.06C36.2825 234.098 36.2714 234.138 36.2624 234.178L37.4813 234.455ZM152.155 256.215C152.845 256.215 153.405 255.656 153.405 254.965C153.405 254.275 152.845 253.715 152.155 253.715V256.215ZM34.8905 245.854L36.1094 246.131L34.8905 245.854ZM120.841 158.443L124.325 168.865L126.696 168.072L123.212 157.651L120.841 158.443ZM124.325 168.865C125.173 171.403 125.01 172.666 124.657 173.252C124.352 173.758 123.636 174.166 122.027 174.166V176.666C123.901 176.666 125.797 176.206 126.799 174.541C127.753 172.956 127.589 170.745 126.696 168.072L124.325 168.865ZM122.027 174.166H116.801V176.666H122.027V174.166ZM116.801 174.166C112.31 174.166 108.537 177.15 107.248 181.204L109.631 181.961C110.606 178.894 113.452 176.666 116.801 176.666V174.166ZM107.241 181.229C106.958 182.186 106.044 182.851 105.13 182.851V185.351C107.177 185.351 109.05 183.932 109.638 181.936L107.241 181.229ZM105.13 182.851C101.714 182.851 98.8894 180.098 98.8894 176.632H96.3894C96.3894 181.504 100.359 185.351 105.13 185.351V182.851ZM98.8894 176.632V159.784H96.3894V176.632H98.8894ZM98.8894 159.784C98.8894 153.358 93.6232 148.112 87.1878 148.112V150.612C92.2492 150.612 96.3894 154.746 96.3894 159.784H98.8894ZM87.1878 148.112H82.0491V150.612H87.1878V148.112ZM82.0491 148.112C81.7053 148.112 81.5347 147.842 81.552 147.652L79.0623 147.425C78.9054 149.146 80.3025 150.612 82.0491 150.612V148.112ZM81.5545 147.619C82.469 133.527 94.4437 122.492 108.839 122.907L108.911 120.408C93.1706 119.955 80.0614 132.022 79.0598 147.457L81.5545 147.619ZM108.839 122.907C123.289 123.321 134.712 135.506 134.712 150.057H137.212C137.212 134.211 124.77 120.863 108.911 120.408L108.839 122.907ZM134.712 150.057V180.627H137.212V150.057H134.712ZM134.712 180.627C134.712 191.329 125.935 200.313 115.223 200.394L115.243 202.894C127.35 202.802 137.212 192.68 137.212 180.627H134.712ZM115.228 200.394C105.272 200.436 96.0246 195.131 89.1917 187.787C82.345 180.429 78.1101 171.223 77.986 163.758L75.4864 163.8C75.6236 172.055 80.229 181.825 87.3614 189.49C94.5075 197.171 104.378 202.94 115.238 202.894L115.228 200.394ZM77.9856 163.74C77.917 161.551 79.4937 159.658 81.5558 159.465L81.3231 156.976C77.8109 157.304 75.3812 160.449 75.4868 163.818L77.9856 163.74ZM81.5771 159.463C83.9468 159.2 85.9378 161.024 85.9378 163.431H88.4378C88.4378 159.586 85.203 156.546 81.3018 156.978L81.5771 159.463ZM87.1878 163.431C85.9378 163.431 85.9378 163.432 85.9378 163.432C85.9378 163.432 85.9378 163.432 85.9378 163.433C85.9378 163.433 85.9378 163.433 85.9378 163.434C85.9378 163.434 85.9378 163.435 85.9378 163.436C85.9378 163.437 85.9378 163.437 85.9378 163.438C85.9378 163.439 85.9378 163.44 85.9378 163.441C85.9378 163.443 85.9378 163.444 85.9378 163.445C85.9378 163.446 85.9378 163.448 85.9378 163.449C85.9378 163.451 85.9378 163.452 85.9378 163.454C85.9378 163.455 85.9378 163.457 85.9378 163.459C85.9378 163.461 85.9378 163.463 85.9378 163.465C85.9378 163.467 85.9378 163.469 85.9378 163.471C85.9378 163.473 85.9378 163.475 85.9378 163.478C85.9378 163.48 85.9378 163.483 85.9378 163.485C85.9378 163.488 85.9378 163.49 85.9378 163.493C85.9378 163.496 85.9378 163.499 85.9378 163.502C85.9378 163.504 85.9378 163.507 85.9378 163.51C85.9378 163.514 85.9378 163.517 85.9378 163.52C85.9378 163.523 85.9378 163.527 85.9378 163.53C85.9378 163.533 85.9378 163.537 85.9378 163.54C85.9378 163.544 85.9378 163.548 85.9378 163.552C85.9378 163.555 85.9378 163.559 85.9378 163.563C85.9378 163.567 85.9378 163.571 85.9378 163.575C85.9378 163.579 85.9378 163.584 85.9378 163.588C85.9378 163.592 85.9378 163.596 85.9378 163.601C85.9378 163.605 85.9378 163.61 85.9378 163.615C85.9378 163.619 85.9378 163.624 85.9378 163.629C85.9378 163.634 85.9378 163.638 85.9378 163.643C85.9378 163.648 85.9378 163.653 85.9378 163.659C85.9378 163.664 85.9378 163.669 85.9378 163.674C85.9378 163.68 85.9378 163.685 85.9378 163.69C85.9378 163.696 85.9378 163.701 85.9378 163.707C85.9378 163.713 85.9378 163.718 85.9378 163.724C85.9378 163.73 85.9378 163.736 85.9378 163.742C85.9378 163.748 85.9378 163.754 85.9378 163.76C85.9378 163.766 85.9378 163.773 85.9378 163.779C85.9378 163.785 85.9378 163.792 85.9378 163.798C85.9378 163.804 85.9378 163.811 85.9378 163.818C85.9378 163.824 85.9378 163.831 85.9378 163.838C85.9378 163.845 85.9378 163.852 85.9378 163.858C85.9378 163.865 85.9378 163.873 85.9378 163.88C85.9378 163.887 85.9378 163.894 85.9378 163.901C85.9378 163.909 85.9378 163.916 85.9378 163.923C85.9378 163.931 85.9378 163.938 85.9378 163.946C85.9378 163.954 85.9378 163.961 85.9378 163.969C85.9378 163.977 85.9378 163.985 85.9378 163.993C85.9378 164.001 85.9378 164.009 85.9378 164.017C85.9378 164.025 85.9378 164.033 85.9378 164.041C85.9378 164.049 85.9378 164.058 85.9378 164.066C85.9378 164.075 85.9378 164.083 85.9378 164.092C85.9378 164.1 85.9378 164.109 85.9378 164.118C85.9378 164.126 85.9378 164.135 85.9378 164.144C85.9378 164.153 85.9378 164.162 85.9378 164.171C85.9378 164.18 85.9378 164.189 85.9378 164.198C85.9378 164.207 85.9378 164.217 85.9378 164.226C85.9378 164.235 85.9378 164.245 85.9378 164.254C85.9378 164.264 85.9378 164.273 85.9378 164.283C85.9378 164.293 85.9378 164.302 85.9378 164.312C85.9378 164.322 85.9378 164.332 85.9378 164.342C85.9378 164.352 85.9378 164.362 85.9378 164.372C85.9378 164.382 85.9378 164.392 85.9378 164.402C85.9378 164.413 85.9378 164.423 85.9378 164.433C85.9378 164.444 85.9378 164.454 85.9378 164.465C85.9378 164.475 85.9378 164.486 85.9378 164.497C85.9378 164.507 85.9378 164.518 85.9378 164.529C85.9378 164.54 85.9378 164.551 85.9378 164.562C85.9378 164.573 85.9378 164.584 85.9378 164.595C85.9378 164.606 85.9378 164.617 85.9378 164.629C85.9378 164.64 85.9378 164.651 85.9378 164.663C85.9378 164.674 85.9378 164.686 85.9378 164.697C85.9378 164.709 85.9378 164.721 85.9378 164.732C85.9378 164.744 85.9378 164.756 85.9378 164.768C85.9378 164.78 85.9378 164.792 85.9378 164.804C85.9378 164.816 85.9378 164.828 85.9378 164.84C85.9378 164.852 85.9378 164.864 85.9378 164.877C85.9378 164.889 85.9378 164.901 85.9378 164.914C85.9378 164.926 85.9378 164.939 85.9378 164.951C85.9378 164.964 85.9378 164.977 85.9378 164.989C85.9378 165.002 85.9378 165.015 85.9378 165.028C85.9378 165.041 85.9378 165.054 85.9378 165.067C85.9378 165.08 85.9378 165.093 85.9378 165.106C85.9378 165.119 85.9378 165.132 85.9378 165.146C85.9378 165.159 85.9378 165.172 85.9378 165.186C85.9378 165.199 85.9378 165.213 85.9378 165.226C85.9378 165.24 85.9378 165.254 85.9378 165.267C85.9378 165.281 85.9378 165.295 85.9378 165.309C85.9378 165.322 85.9378 165.336 85.9378 165.35C85.9378 165.364 85.9378 165.378 85.9378 165.392C85.9378 165.407 85.9378 165.421 85.9378 165.435C85.9378 165.449 85.9378 165.464 85.9378 165.478C85.9378 165.492 85.9378 165.507 85.9378 165.521C85.9378 165.536 85.9378 165.551 85.9378 165.565C85.9378 165.58 85.9378 165.595 85.9378 165.609C85.9378 165.624 85.9378 165.639 85.9378 165.654C85.9378 165.669 85.9378 165.684 85.9378 165.699C85.9378 165.714 85.9378 165.729 85.9378 165.744C85.9378 165.759 85.9378 165.775 85.9378 165.79C85.9378 165.805 85.9378 165.821 85.9378 165.836C85.9378 165.852 85.9378 165.867 85.9378 165.883C85.9378 165.898 85.9378 165.914 85.9378 165.93C85.9378 165.945 85.9378 165.961 85.9378 165.977C85.9378 165.993 85.9378 166.009 85.9378 166.025C85.9378 166.041 85.9378 166.057 85.9378 166.073C85.9378 166.089 85.9378 166.105 85.9378 166.121C85.9378 166.137 85.9378 166.154 85.9378 166.17C85.9378 166.186 85.9378 166.203 85.9378 166.219C85.9378 166.236 85.9378 166.252 85.9378 166.269C85.9378 166.285 85.9378 166.302 85.9378 166.319C85.9378 166.335 85.9378 166.352 85.9378 166.369C85.9378 166.386 85.9378 166.403 85.9378 166.42C85.9378 166.437 85.9378 166.454 85.9378 166.471C85.9378 166.488 85.9378 166.505 85.9378 166.522C85.9378 166.54 85.9378 166.557 85.9378 166.574C85.9378 166.591 85.9378 166.609 85.9378 166.626C85.9378 166.644 85.9378 166.661 85.9378 166.679C85.9378 166.696 85.9378 166.714 85.9378 166.732C85.9378 166.749 85.9378 166.767 85.9378 166.785C85.9378 166.803 85.9378 166.821 85.9378 166.839C85.9378 166.856 85.9378 166.874 85.9378 166.893C85.9378 166.911 85.9378 166.929 85.9378 166.947C85.9378 166.965 85.9378 166.983 85.9378 167.001C85.9378 167.02 85.9378 167.038 85.9378 167.057C85.9378 167.075 85.9378 167.093 85.9378 167.112C85.9378 167.13 85.9378 167.149 85.9378 167.168C85.9378 167.186 85.9378 167.205 85.9378 167.224C85.9378 167.242 85.9378 167.261 85.9378 167.28C85.9378 167.299 85.9378 167.318 85.9378 167.337C85.9378 167.356 85.9378 167.375 85.9378 167.394C85.9378 167.413 85.9378 167.432 85.9378 167.451C85.9378 167.47 85.9378 167.49 85.9378 167.509C85.9378 167.528 85.9378 167.548 85.9378 167.567C85.9378 167.587 85.9378 167.606 85.9378 167.626C85.9378 167.645 85.9378 167.665 85.9378 167.684C85.9378 167.704 85.9378 167.724 85.9378 167.743C85.9378 167.763 85.9378 167.783 85.9378 167.803C85.9378 167.823 85.9378 167.843 85.9378 167.863C85.9378 167.882 85.9378 167.902 85.9378 167.923C85.9378 167.943 85.9378 167.963 85.9378 167.983C85.9378 168.003 85.9378 168.023 85.9378 168.044C85.9378 168.064 85.9378 168.084 85.9378 168.105C85.9378 168.125 85.9378 168.146 85.9378 168.166C85.9378 168.187 85.9378 168.207 85.9378 168.228C85.9378 168.248 85.9378 168.269 85.9378 168.29C85.9378 168.31 85.9378 168.331 85.9378 168.352C85.9378 168.373 85.9378 168.394 85.9378 168.415C85.9378 168.435 85.9378 168.456 85.9378 168.477C85.9378 168.498 85.9378 168.519 85.9378 168.541C85.9378 168.562 85.9378 168.583 85.9378 168.604C85.9378 168.625 85.9378 168.647 85.9378 168.668C85.9378 168.689 85.9378 168.711 85.9378 168.732C85.9378 168.753 85.9378 168.775 85.9378 168.796C85.9378 168.818 85.9378 168.84 85.9378 168.861C85.9378 168.883 85.9378 168.904 85.9378 168.926C85.9378 168.948 85.9378 168.97 85.9378 168.992C85.9378 169.013 85.9378 169.035 85.9378 169.057C85.9378 169.079 85.9378 169.101 85.9378 169.123C85.9378 169.145 85.9378 169.167 85.9378 169.189C85.9378 169.211 85.9378 169.233 85.9378 169.256C85.9378 169.278 85.9378 169.3 85.9378 169.322C85.9378 169.345 85.9378 169.367 85.9378 169.389C85.9378 169.412 85.9378 169.434 85.9378 169.457C85.9378 169.479 85.9378 169.502 85.9378 169.524C85.9378 169.547 85.9378 169.57 85.9378 169.592C85.9378 169.615 85.9378 169.638 85.9378 169.66C85.9378 169.683 85.9378 169.706 85.9378 169.729C85.9378 169.752 85.9378 169.775 85.9378 169.798C85.9378 169.821 85.9378 169.844 85.9378 169.867C85.9378 169.89 85.9378 169.913 85.9378 169.936C85.9378 169.959 85.9378 169.982 85.9378 170.005C85.9378 170.029 85.9378 170.052 85.9378 170.075C85.9378 170.099 85.9378 170.122 85.9378 170.145C85.9378 170.169 85.9378 170.192 85.9378 170.216C85.9378 170.239 85.9378 170.263 85.9378 170.286C85.9378 170.31 85.9378 170.333 85.9378 170.357C85.9378 170.381 85.9378 170.404 85.9378 170.428C85.9378 170.452 85.9378 170.476 85.9378 170.5C85.9378 170.523 85.9378 170.547 85.9378 170.571C85.9378 170.595 85.9378 170.619 85.9378 170.643C85.9378 170.667 85.9378 170.691 85.9378 170.715C85.9378 170.739 85.9378 170.763 85.9378 170.788C85.9378 170.812 85.9378 170.836 85.9378 170.86C85.9378 170.884 85.9378 170.909 85.9378 170.933C85.9378 170.957 85.9378 170.982 85.9378 171.006C85.9378 171.031 85.9378 171.055 85.9378 171.08C85.9378 171.104 85.9378 171.129 85.9378 171.153C85.9378 171.178 85.9378 171.202 85.9378 171.227C85.9378 171.252 85.9378 171.276 85.9378 171.301C85.9378 171.326 85.9378 171.351 85.9378 171.376C85.9378 171.4 85.9378 171.425 85.9378 171.45C85.9378 171.475 85.9378 171.5 85.9378 171.525C85.9378 171.55 85.9378 171.575 85.9378 171.6C85.9378 171.625 85.9378 171.65 85.9378 171.675C85.9378 171.7 85.9378 171.725 85.9378 171.751C85.9378 171.776 85.9378 171.801 85.9378 171.826C85.9378 171.852 85.9378 171.877 85.9378 171.902C85.9378 171.928 85.9378 171.953 85.9378 171.978C85.9378 172.004 85.9378 172.029 85.9378 172.055C85.9378 172.08 85.9378 172.106 85.9378 172.131C85.9378 172.157 85.9378 172.183 85.9378 172.208C85.9378 172.234 85.9378 172.26 85.9378 172.285C85.9378 172.311 85.9378 172.337 85.9378 172.363C85.9378 172.388 85.9378 172.414 85.9378 172.44C85.9378 172.466 85.9378 172.492 85.9378 172.518C85.9378 172.544 85.9378 172.57 85.9378 172.596C85.9378 172.622 85.9378 172.648 85.9378 172.674C85.9378 172.7 85.9378 172.726 85.9378 172.752C85.9378 172.778 85.9378 172.804 85.9378 172.831C85.9378 172.857 85.9378 172.883 85.9378 172.909C85.9378 172.936 85.9378 172.962 85.9378 172.988C85.9378 173.015 85.9378 173.041 85.9378 173.067C85.9378 173.094 85.9378 173.12 85.9378 173.147C85.9378 173.173 85.9378 173.2 85.9378 173.226C85.9378 173.253 85.9378 173.279 85.9378 173.306C85.9378 173.332 85.9378 173.359 85.9378 173.386C85.9378 173.412 85.9378 173.439 85.9378 173.466C85.9378 173.493 85.9378 173.519 85.9378 173.546C85.9378 173.573 85.9378 173.6 85.9378 173.627C85.9378 173.653 85.9378 173.68 85.9378 173.707C85.9378 173.734 85.9378 173.761 85.9378 173.788C85.9378 173.815 85.9378 173.842 85.9378 173.869C85.9378 173.896 85.9378 173.923 85.9378 173.95C85.9378 173.977 85.9378 174.004 85.9378 174.032C85.9378 174.059 85.9378 174.086 85.9378 174.113C85.9378 174.14 85.9378 174.168 85.9378 174.195C85.9378 174.222 85.9378 174.249 85.9378 174.277C85.9378 174.304 85.9378 174.332 85.9378 174.359C85.9378 174.386 85.9378 174.414 85.9378 174.441C85.9378 174.469 85.9378 174.496 85.9378 174.524C85.9378 174.551 85.9378 174.579 85.9378 174.606C85.9378 174.634 85.9378 174.661 85.9378 174.689C85.9378 174.717 85.9378 174.744 85.9378 174.772C85.9378 174.799 85.9378 174.827 85.9378 174.855C85.9378 174.883 85.9378 174.91 85.9378 174.938C85.9378 174.966 85.9378 174.994 85.9378 175.022C85.9378 175.049 85.9378 175.077 85.9378 175.105C85.9378 175.133 85.9378 175.161 85.9378 175.189C85.9378 175.217 85.9378 175.245 85.9378 175.273C85.9378 175.301 85.9378 175.329 85.9378 175.357C85.9378 175.385 85.9378 175.413 85.9378 175.441C85.9378 175.469 85.9378 175.497 85.9378 175.525C85.9378 175.553 85.9378 175.581 85.9378 175.61C85.9378 175.638 85.9378 175.666 85.9378 175.694C85.9378 175.722 85.9378 175.751 85.9378 175.779C85.9378 175.807 85.9378 175.835 85.9378 175.864C85.9378 175.892 85.9378 175.92 85.9378 175.949C85.9378 175.977 85.9378 176.006 85.9378 176.034C85.9378 176.062 85.9378 176.091 85.9378 176.119C85.9378 176.148 85.9378 176.176 85.9378 176.205C85.9378 176.233 85.9378 176.262 85.9378 176.29C85.9378 176.319 85.9378 176.347 85.9378 176.376C85.9378 176.405 85.9378 176.433 85.9378 176.462C85.9378 176.49 85.9378 176.519 85.9378 176.548C85.9378 176.576 85.9378 176.605 85.9378 176.634C85.9378 176.663 85.9378 176.691 85.9378 176.72C85.9378 176.749 85.9378 176.778 85.9378 176.806C85.9378 176.835 85.9378 176.864 85.9378 176.893C85.9378 176.922 85.9378 176.95 85.9378 176.979C85.9378 177.008 85.9378 177.037 85.9378 177.066C85.9378 177.095 85.9378 177.124 85.9378 177.153C85.9378 177.182 85.9378 177.211 85.9378 177.24C85.9378 177.269 85.9378 177.298 85.9378 177.327C85.9378 177.356 85.9378 177.385 85.9378 177.414C85.9378 177.443 85.9378 177.472 85.9378 177.501C85.9378 177.53 85.9378 177.559 85.9378 177.589C85.9378 177.618 85.9378 177.647 85.9378 177.676C85.9378 177.705 85.9378 177.734 85.9378 177.764C85.9378 177.793 85.9378 177.822 85.9378 177.851C85.9378 177.88 85.9378 177.91 85.9378 177.939C85.9378 177.968 85.9378 177.998 85.9378 178.027C85.9378 178.056 85.9378 178.085 85.9378 178.115C85.9378 178.144 85.9378 178.174 85.9378 178.203C85.9378 178.232 85.9378 178.262 85.9378 178.291C85.9378 178.32 85.9378 178.35 85.9378 178.379C85.9378 178.409 85.9378 178.438 85.9378 178.468C85.9378 178.497 85.9378 178.527 85.9378 178.556C85.9378 178.586 85.9378 178.615 85.9378 178.645C85.9378 178.674 85.9378 178.704 85.9378 178.733C85.9378 178.763 85.9378 178.792 85.9378 178.822C85.9378 178.851 85.9378 178.881 85.9378 178.911C85.9378 178.94 85.9378 178.97 85.9378 178.999C85.9378 179.029 85.9378 179.059 85.9378 179.088C85.9378 179.118 85.9378 179.148 85.9378 179.177C85.9378 179.207 85.9378 179.237 85.9378 179.266C85.9378 179.296 85.9378 179.326 85.9378 179.356C85.9378 179.385 85.9378 179.415 85.9378 179.445C85.9378 179.474 85.9378 179.504 85.9378 179.534C85.9378 179.564 85.9378 179.594 85.9378 179.623C85.9378 179.653 85.9378 179.683 85.9378 179.713C85.9378 179.743 85.9378 179.772 85.9378 179.802C85.9378 179.832 85.9378 179.862 85.9378 179.892C85.9378 179.922 85.9378 179.952 85.9378 179.981C85.9378 180.011 85.9378 180.041 85.9378 180.071C85.9378 180.101 85.9378 180.131 85.9378 180.161C85.9378 180.191 85.9378 180.221 85.9378 180.251C85.9378 180.281 85.9378 180.31 85.9378 180.34C85.9378 180.37 85.9378 180.4 85.9378 180.43C85.9378 180.46 85.9378 180.49 85.9378 180.52C85.9378 180.55 85.9378 180.58 85.9378 180.61C85.9378 180.64 85.9378 180.67 85.9378 180.7C85.9378 180.73 85.9378 180.76 85.9378 180.79C85.9378 180.82 85.9378 180.85 85.9378 180.88C85.9378 180.911 85.9378 180.941 85.9378 180.971C85.9378 181.001 85.9378 181.031 85.9378 181.061C85.9378 181.091 85.9378 181.121 85.9378 181.151C85.9378 181.181 85.9378 181.211 85.9378 181.241C85.9378 181.271 85.9378 181.302 85.9378 181.332C85.9378 181.362 85.9378 181.392 85.9378 181.422C85.9378 181.452 85.9378 181.482 85.9378 181.512C85.9378 181.543 85.9378 181.573 85.9378 181.603C85.9378 181.633 85.9378 181.663 85.9378 181.693C85.9378 181.723 85.9378 181.754 85.9378 181.784C85.9378 181.814 85.9378 181.844 85.9378 181.874C85.9378 181.904 85.9378 181.935 85.9378 181.965C85.9378 181.995 85.9378 182.025 85.9378 182.055C85.9378 182.085 85.9378 182.116 85.9378 182.146C85.9378 182.176 85.9378 182.206 85.9378 182.236C85.9378 182.267 85.9378 182.297 85.9378 182.327C85.9378 182.357 85.9378 182.387 85.9378 182.418C85.9378 182.448 85.9378 182.478 85.9378 182.508C85.9378 182.539 85.9378 182.569 85.9378 182.599C85.9378 182.629 85.9378 182.659 85.9378 182.69C85.9378 182.72 85.9378 182.75 85.9378 182.78C85.9378 182.81 85.9378 182.841 85.9378 182.871C85.9378 182.901 85.9378 182.931 85.9378 182.962C85.9378 182.992 85.9378 183.022 85.9378 183.052C85.9378 183.082 85.9378 183.113 85.9378 183.143C85.9378 183.173 85.9378 183.203 85.9378 183.234C85.9378 183.264 85.9378 183.294 85.9378 183.324C85.9378 183.354 85.9378 183.385 85.9378 183.415C85.9378 183.445 85.9378 183.475 85.9378 183.506C85.9378 183.536 85.9378 183.566 85.9378 183.596C85.9378 183.626 85.9378 183.657 85.9378 183.687C85.9378 183.717 85.9378 183.747 85.9378 183.778C85.9378 183.808 85.9378 183.838 85.9378 183.868C85.9378 183.898 85.9378 183.929 85.9378 183.959C85.9378 183.989 85.9378 184.019 85.9378 184.049C85.9378 184.08 85.9378 184.11 85.9378 184.14C85.9378 184.17 85.9378 184.2 85.9378 184.23C85.9378 184.261 85.9378 184.291 85.9378 184.321C85.9378 184.351 85.9378 184.381 85.9378 184.411C85.9378 184.442 85.9378 184.472 85.9378 184.502C85.9378 184.532 85.9378 184.562 85.9378 184.592C85.9378 184.623 85.9378 184.653 85.9378 184.683C85.9378 184.713 85.9378 184.743 85.9378 184.773C85.9378 184.803 85.9378 184.834 85.9378 184.864C85.9378 184.894 85.9378 184.924 85.9378 184.954C85.9378 184.984 85.9378 185.014 85.9378 185.044C85.9378 185.074 85.9378 185.104 85.9378 185.135C85.9378 185.165 85.9378 185.195 85.9378 185.225C85.9378 185.255 85.9378 185.285 85.9378 185.315C85.9378 185.345 85.9378 185.375 85.9378 185.405C85.9378 185.435 85.9378 185.465 85.9378 185.495C85.9378 185.525 85.9378 185.555 85.9378 185.585C85.9378 185.615 85.9378 185.645 85.9378 185.675C85.9378 185.705 85.9378 185.735 85.9378 185.765C85.9378 185.795 85.9378 185.825 85.9378 185.855C85.9378 185.885 85.9378 185.915 85.9378 185.945C85.9378 185.975 85.9378 186.005 85.9378 186.035C85.9378 186.065 85.9378 186.095 85.9378 186.125C85.9378 186.155 85.9378 186.184 85.9378 186.214C85.9378 186.244 85.9378 186.274 85.9378 186.304C85.9378 186.334 85.9378 186.364 85.9378 186.394C85.9378 186.423 85.9378 186.453 85.9378 186.483C85.9378 186.513 85.9378 186.543 85.9378 186.573C85.9378 186.602 85.9378 186.632 85.9378 186.662C85.9378 186.692 85.9378 186.722 85.9378 186.751C85.9378 186.781 85.9378 186.811 85.9378 186.841C85.9378 186.87 85.9378 186.9 85.9378 186.93C85.9378 186.959 85.9378 186.989 85.9378 187.019C85.9378 187.049 85.9378 187.078 85.9378 187.108C85.9378 187.138 85.9378 187.167 85.9378 187.197C85.9378 187.227 85.9378 187.256 85.9378 187.286C85.9378 187.315 85.9378 187.345 85.9378 187.375C85.9378 187.404 85.9378 187.434 85.9378 187.463C85.9378 187.493 85.9378 187.522 85.9378 187.552C85.9378 187.581 85.9378 187.611 85.9378 187.641C85.9378 187.67 85.9378 187.7 85.9378 187.729C85.9378 187.758 85.9378 187.788 85.9378 187.817C85.9378 187.847 85.9378 187.876 85.9378 187.906C85.9378 187.935 85.9378 187.965 85.9378 187.994C85.9378 188.023 85.9378 188.053 85.9378 188.082C85.9378 188.111 85.9378 188.141 85.9378 188.17C85.9378 188.199 85.9378 188.229 85.9378 188.258C85.9378 188.287 85.9378 188.317 85.9378 188.346C85.9378 188.375 85.9378 188.404 85.9378 188.434C85.9378 188.463 85.9378 188.492 85.9378 188.521C85.9378 188.55 85.9378 188.58 85.9378 188.609C85.9378 188.638 85.9378 188.667 85.9378 188.696C85.9378 188.725 85.9378 188.754 85.9378 188.783C85.9378 188.812 85.9378 188.842 85.9378 188.871C85.9378 188.9 85.9378 188.929 85.9378 188.958C85.9378 188.987 85.9378 189.016 85.9378 189.045C85.9378 189.074 85.9378 189.103 85.9378 189.132C85.9378 189.161 85.9378 189.189 85.9378 189.218C85.9378 189.247 85.9378 189.276 85.9378 189.305C85.9378 189.334 85.9378 189.363 85.9378 189.392C85.9378 189.42 85.9378 189.449 85.9378 189.478C85.9378 189.507 85.9378 189.535 85.9378 189.564C85.9378 189.593 85.9378 189.622 85.9378 189.65C85.9378 189.679 85.9378 189.708 85.9378 189.736C85.9378 189.765 85.9378 189.794 85.9378 189.822C85.9378 189.851 85.9378 189.88 85.9378 189.908C85.9378 189.937 85.9378 189.965 85.9378 189.994C85.9378 190.022 85.9378 190.051 85.9378 190.079C85.9378 190.108 85.9378 190.136 85.9378 190.165C85.9378 190.193 85.9378 190.221 85.9378 190.25C85.9378 190.278 85.9378 190.307 85.9378 190.335C85.9378 190.363 85.9378 190.392 85.9378 190.42C85.9378 190.448 85.9378 190.477 85.9378 190.505C85.9378 190.533 85.9378 190.561 85.9378 190.589C85.9378 190.618 85.9378 190.646 85.9378 190.674C85.9378 190.702 85.9378 190.73 85.9378 190.758C85.9378 190.787 85.9378 190.815 85.9378 190.843C85.9378 190.871 85.9378 190.899 85.9378 190.927C85.9378 190.955 85.9378 190.983 85.9378 191.011C85.9378 191.039 85.9378 191.067 85.9378 191.095C85.9378 191.122 85.9378 191.15 85.9378 191.178C85.9378 191.206 85.9378 191.234 85.9378 191.262C85.9378 191.289 85.9378 191.317 85.9378 191.345C85.9378 191.373 85.9378 191.4 85.9378 191.428C85.9378 191.456 85.9378 191.484 85.9378 191.511C85.9378 191.539 85.9378 191.566 85.9378 191.594C85.9378 191.622 85.9378 191.649 85.9378 191.677C85.9378 191.704 85.9378 191.732 85.9378 191.759C85.9378 191.787 85.9378 191.814 85.9378 191.842C85.9378 191.869 85.9378 191.896 85.9378 191.924C85.9378 191.951 85.9378 191.979 85.9378 192.006C85.9378 192.033 85.9378 192.06 85.9378 192.088C85.9378 192.115 85.9378 192.142 85.9378 192.169C85.9378 192.197 85.9378 192.224 85.9378 192.251C85.9378 192.278 85.9378 192.305 85.9378 192.332C85.9378 192.359 85.9378 192.386 85.9378 192.413C85.9378 192.44 85.9378 192.467 85.9378 192.494C85.9378 192.521 85.9378 192.548 85.9378 192.575C85.9378 192.602 85.9378 192.629 85.9378 192.656C85.9378 192.682 85.9378 192.709 85.9378 192.736C85.9378 192.763 85.9378 192.789 85.9378 192.816C85.9378 192.843 85.9378 192.87 85.9378 192.896C85.9378 192.923 85.9378 192.949 85.9378 192.976C85.9378 193.003 85.9378 193.029 85.9378 193.056C85.9378 193.082 85.9378 193.109 85.9378 193.135C85.9378 193.162 85.9378 193.188 85.9378 193.214C85.9378 193.241 85.9378 193.267 85.9378 193.293C85.9378 193.32 85.9378 193.346 85.9378 193.372C85.9378 193.398 85.9378 193.425 85.9378 193.451C85.9378 193.477 85.9378 193.503 85.9378 193.529C85.9378 193.555 85.9378 193.581 85.9378 193.608C85.9378 193.634 85.9378 193.66 85.9378 193.686C85.9378 193.712 85.9378 193.737 85.9378 193.763C85.9378 193.789 85.9378 193.815 85.9378 193.841C85.9378 193.867 85.9378 193.893 85.9378 193.918C85.9378 193.944 85.9378 193.97 85.9378 193.996C85.9378 194.021 85.9378 194.047 85.9378 194.073C85.9378 194.098 85.9378 194.124 85.9378 194.149C85.9378 194.175 85.9378 194.2 85.9378 194.226C85.9378 194.251 85.9378 194.277 85.9378 194.302C85.9378 194.327 85.9378 194.353 85.9378 194.378C85.9378 194.403 85.9378 194.429 85.9378 194.454C85.9378 194.479 85.9378 194.504 85.9378 194.53C85.9378 194.555 85.9378 194.58 85.9378 194.605C85.9378 194.63 85.9378 194.655 85.9378 194.68C85.9378 194.705 85.9378 194.73 85.9378 194.755C85.9378 194.78 85.9378 194.805 85.9378 194.83C85.9378 194.855 85.9378 194.88 85.9378 194.904C85.9378 194.929 85.9378 194.954 85.9378 194.979C85.9378 195.003 85.9378 195.028 85.9378 195.053C85.9378 195.077 85.9378 195.102 85.9378 195.126C85.9378 195.151 85.9378 195.175 85.9378 195.2C85.9378 195.224 85.9378 195.249 85.9378 195.273C85.9378 195.298 85.9378 195.322 85.9378 195.346C85.9378 195.371 85.9378 195.395 85.9378 195.419C85.9378 195.443 85.9378 195.467 85.9378 195.492C85.9378 195.516 85.9378 195.54 85.9378 195.564C85.9378 195.588 85.9378 195.612 85.9378 195.636C85.9378 195.66 85.9378 195.684 85.9378 195.708C85.9378 195.732 85.9378 195.755 85.9378 195.779C85.9378 195.803 85.9378 195.827 85.9378 195.851C85.9378 195.874 85.9378 195.898 85.9378 195.922C85.9378 195.945 85.9378 195.969 85.9378 195.992C85.9378 196.016 85.9378 196.039 85.9378 196.063C85.9378 196.086 85.9378 196.11 85.9378 196.133C85.9378 196.156 85.9378 196.18 85.9378 196.203C85.9378 196.226 85.9378 196.25 85.9378 196.273C85.9378 196.296 85.9378 196.319 85.9378 196.342C85.9378 196.365 85.9378 196.388 85.9378 196.411C85.9378 196.434 85.9378 196.457 85.9378 196.48C85.9378 196.503 85.9378 196.526 85.9378 196.549C85.9378 196.572 85.9378 196.594 85.9378 196.617C85.9378 196.64 85.9378 196.663 85.9378 196.685C85.9378 196.708 85.9378 196.73 85.9378 196.753C85.9378 196.776 85.9378 196.798 85.9378 196.821C85.9378 196.843 85.9378 196.865 85.9378 196.888C85.9378 196.91 85.9378 196.932 85.9378 196.955C85.9378 196.977 85.9378 196.999 85.9378 197.021C85.9378 197.044 85.9378 197.066 85.9378 197.088C85.9378 197.11 85.9378 197.132 85.9378 197.154C85.9378 197.176 85.9378 197.198 85.9378 197.22C85.9378 197.241 85.9378 197.263 85.9378 197.285C85.9378 197.307 85.9378 197.329 85.9378 197.35C85.9378 197.372 85.9378 197.394 85.9378 197.415C85.9378 197.437 85.9378 197.458 85.9378 197.48C85.9378 197.501 85.9378 197.523 85.9378 197.544C85.9378 197.566 85.9378 197.587 85.9378 197.608C85.9378 197.629 85.9378 197.651 85.9378 197.672C85.9378 197.693 85.9378 197.714 85.9378 197.735C85.9378 197.756 85.9378 197.777 85.9378 197.798C85.9378 197.819 85.9378 197.84 85.9378 197.861C85.9378 197.882 85.9378 197.903 85.9378 197.924C85.9378 197.944 85.9378 197.965 85.9378 197.986C85.9378 198.006 85.9378 198.027 85.9378 198.048C85.9378 198.068 85.9378 198.089 85.9378 198.109C85.9378 198.13 85.9378 198.15 85.9378 198.17H88.4378C88.4378 198.15 88.4378 198.13 88.4378 198.109C88.4378 198.089 88.4378 198.068 88.4378 198.048C88.4378 198.027 88.4378 198.006 88.4378 197.986C88.4378 197.965 88.4378 197.944 88.4378 197.924C88.4378 197.903 88.4378 197.882 88.4378 197.861C88.4378 197.84 88.4378 197.819 88.4378 197.798C88.4378 197.777 88.4378 197.756 88.4378 197.735C88.4378 197.714 88.4378 197.693 88.4378 197.672C88.4378 197.651 88.4378 197.629 88.4378 197.608C88.4378 197.587 88.4378 197.566 88.4378 197.544C88.4378 197.523 88.4378 197.501 88.4378 197.48C88.4378 197.458 88.4378 197.437 88.4378 197.415C88.4378 197.394 88.4378 197.372 88.4378 197.35C88.4378 197.329 88.4378 197.307 88.4378 197.285C88.4378 197.263 88.4378 197.241 88.4378 197.22C88.4378 197.198 88.4378 197.176 88.4378 197.154C88.4378 197.132 88.4378 197.11 88.4378 197.088C88.4378 197.066 88.4378 197.044 88.4378 197.021C88.4378 196.999 88.4378 196.977 88.4378 196.955C88.4378 196.932 88.4378 196.91 88.4378 196.888C88.4378 196.865 88.4378 196.843 88.4378 196.821C88.4378 196.798 88.4378 196.776 88.4378 196.753C88.4378 196.73 88.4378 196.708 88.4378 196.685C88.4378 196.663 88.4378 196.64 88.4378 196.617C88.4378 196.594 88.4378 196.572 88.4378 196.549C88.4378 196.526 88.4378 196.503 88.4378 196.48C88.4378 196.457 88.4378 196.434 88.4378 196.411C88.4378 196.388 88.4378 196.365 88.4378 196.342C88.4378 196.319 88.4378 196.296 88.4378 196.273C88.4378 196.25 88.4378 196.226 88.4378 196.203C88.4378 196.18 88.4378 196.156 88.4378 196.133C88.4378 196.11 88.4378 196.086 88.4378 196.063C88.4378 196.039 88.4378 196.016 88.4378 195.992C88.4378 195.969 88.4378 195.945 88.4378 195.922C88.4378 195.898 88.4378 195.874 88.4378 195.851C88.4378 195.827 88.4378 195.803 88.4378 195.779C88.4378 195.755 88.4378 195.732 88.4378 195.708C88.4378 195.684 88.4378 195.66 88.4378 195.636C88.4378 195.612 88.4378 195.588 88.4378 195.564C88.4378 195.54 88.4378 195.516 88.4378 195.492C88.4378 195.467 88.4378 195.443 88.4378 195.419C88.4378 195.395 88.4378 195.371 88.4378 195.346C88.4378 195.322 88.4378 195.298 88.4378 195.273C88.4378 195.249 88.4378 195.224 88.4378 195.2C88.4378 195.175 88.4378 195.151 88.4378 195.126C88.4378 195.102 88.4378 195.077 88.4378 195.053C88.4378 195.028 88.4378 195.003 88.4378 194.979C88.4378 194.954 88.4378 194.929 88.4378 194.904C88.4378 194.88 88.4378 194.855 88.4378 194.83C88.4378 194.805 88.4378 194.78 88.4378 194.755C88.4378 194.73 88.4378 194.705 88.4378 194.68C88.4378 194.655 88.4378 194.63 88.4378 194.605C88.4378 194.58 88.4378 194.555 88.4378 194.53C88.4378 194.504 88.4378 194.479 88.4378 194.454C88.4378 194.429 88.4378 194.403 88.4378 194.378C88.4378 194.353 88.4378 194.327 88.4378 194.302C88.4378 194.277 88.4378 194.251 88.4378 194.226C88.4378 194.2 88.4378 194.175 88.4378 194.149C88.4378 194.124 88.4378 194.098 88.4378 194.073C88.4378 194.047 88.4378 194.021 88.4378 193.996C88.4378 193.97 88.4378 193.944 88.4378 193.918C88.4378 193.893 88.4378 193.867 88.4378 193.841C88.4378 193.815 88.4378 193.789 88.4378 193.763C88.4378 193.737 88.4378 193.712 88.4378 193.686C88.4378 193.66 88.4378 193.634 88.4378 193.608C88.4378 193.581 88.4378 193.555 88.4378 193.529C88.4378 193.503 88.4378 193.477 88.4378 193.451C88.4378 193.425 88.4378 193.398 88.4378 193.372C88.4378 193.346 88.4378 193.32 88.4378 193.293C88.4378 193.267 88.4378 193.241 88.4378 193.214C88.4378 193.188 88.4378 193.162 88.4378 193.135C88.4378 193.109 88.4378 193.082 88.4378 193.056C88.4378 193.029 88.4378 193.003 88.4378 192.976C88.4378 192.949 88.4378 192.923 88.4378 192.896C88.4378 192.87 88.4378 192.843 88.4378 192.816C88.4378 192.789 88.4378 192.763 88.4378 192.736C88.4378 192.709 88.4378 192.682 88.4378 192.656C88.4378 192.629 88.4378 192.602 88.4378 192.575C88.4378 192.548 88.4378 192.521 88.4378 192.494C88.4378 192.467 88.4378 192.44 88.4378 192.413C88.4378 192.386 88.4378 192.359 88.4378 192.332C88.4378 192.305 88.4378 192.278 88.4378 192.251C88.4378 192.224 88.4378 192.197 88.4378 192.169C88.4378 192.142 88.4378 192.115 88.4378 192.088C88.4378 192.06 88.4378 192.033 88.4378 192.006C88.4378 191.979 88.4378 191.951 88.4378 191.924C88.4378 191.896 88.4378 191.869 88.4378 191.842C88.4378 191.814 88.4378 191.787 88.4378 191.759C88.4378 191.732 88.4378 191.704 88.4378 191.677C88.4378 191.649 88.4378 191.622 88.4378 191.594C88.4378 191.566 88.4378 191.539 88.4378 191.511C88.4378 191.484 88.4378 191.456 88.4378 191.428C88.4378 191.4 88.4378 191.373 88.4378 191.345C88.4378 191.317 88.4378 191.289 88.4378 191.262C88.4378 191.234 88.4378 191.206 88.4378 191.178C88.4378 191.15 88.4378 191.122 88.4378 191.095C88.4378 191.067 88.4378 191.039 88.4378 191.011C88.4378 190.983 88.4378 190.955 88.4378 190.927C88.4378 190.899 88.4378 190.871 88.4378 190.843C88.4378 190.815 88.4378 190.787 88.4378 190.758C88.4378 190.73 88.4378 190.702 88.4378 190.674C88.4378 190.646 88.4378 190.618 88.4378 190.589C88.4378 190.561 88.4378 190.533 88.4378 190.505C88.4378 190.477 88.4378 190.448 88.4378 190.42C88.4378 190.392 88.4378 190.363 88.4378 190.335C88.4378 190.307 88.4378 190.278 88.4378 190.25C88.4378 190.221 88.4378 190.193 88.4378 190.165C88.4378 190.136 88.4378 190.108 88.4378 190.079C88.4378 190.051 88.4378 190.022 88.4378 189.994C88.4378 189.965 88.4378 189.937 88.4378 189.908C88.4378 189.88 88.4378 189.851 88.4378 189.822C88.4378 189.794 88.4378 189.765 88.4378 189.736C88.4378 189.708 88.4378 189.679 88.4378 189.65C88.4378 189.622 88.4378 189.593 88.4378 189.564C88.4378 189.535 88.4378 189.507 88.4378 189.478C88.4378 189.449 88.4378 189.42 88.4378 189.392C88.4378 189.363 88.4378 189.334 88.4378 189.305C88.4378 189.276 88.4378 189.247 88.4378 189.218C88.4378 189.189 88.4378 189.161 88.4378 189.132C88.4378 189.103 88.4378 189.074 88.4378 189.045C88.4378 189.016 88.4378 188.987 88.4378 188.958C88.4378 188.929 88.4378 188.9 88.4378 188.871C88.4378 188.842 88.4378 188.812 88.4378 188.783C88.4378 188.754 88.4378 188.725 88.4378 188.696C88.4378 188.667 88.4378 188.638 88.4378 188.609C88.4378 188.58 88.4378 188.55 88.4378 188.521C88.4378 188.492 88.4378 188.463 88.4378 188.434C88.4378 188.404 88.4378 188.375 88.4378 188.346C88.4378 188.317 88.4378 188.287 88.4378 188.258C88.4378 188.229 88.4378 188.199 88.4378 188.17C88.4378 188.141 88.4378 188.111 88.4378 188.082C88.4378 188.053 88.4378 188.023 88.4378 187.994C88.4378 187.965 88.4378 187.935 88.4378 187.906C88.4378 187.876 88.4378 187.847 88.4378 187.817C88.4378 187.788 88.4378 187.758 88.4378 187.729C88.4378 187.7 88.4378 187.67 88.4378 187.641C88.4378 187.611 88.4378 187.581 88.4378 187.552C88.4378 187.522 88.4378 187.493 88.4378 187.463C88.4378 187.434 88.4378 187.404 88.4378 187.375C88.4378 187.345 88.4378 187.315 88.4378 187.286C88.4378 187.256 88.4378 187.227 88.4378 187.197C88.4378 187.167 88.4378 187.138 88.4378 187.108C88.4378 187.078 88.4378 187.049 88.4378 187.019C88.4378 186.989 88.4378 186.959 88.4378 186.93C88.4378 186.9 88.4378 186.87 88.4378 186.841C88.4378 186.811 88.4378 186.781 88.4378 186.751C88.4378 186.722 88.4378 186.692 88.4378 186.662C88.4378 186.632 88.4378 186.602 88.4378 186.573C88.4378 186.543 88.4378 186.513 88.4378 186.483C88.4378 186.453 88.4378 186.423 88.4378 186.394C88.4378 186.364 88.4378 186.334 88.4378 186.304C88.4378 186.274 88.4378 186.244 88.4378 186.214C88.4378 186.184 88.4378 186.155 88.4378 186.125C88.4378 186.095 88.4378 186.065 88.4378 186.035C88.4378 186.005 88.4378 185.975 88.4378 185.945C88.4378 185.915 88.4378 185.885 88.4378 185.855C88.4378 185.825 88.4378 185.795 88.4378 185.765C88.4378 185.735 88.4378 185.705 88.4378 185.675C88.4378 185.645 88.4378 185.615 88.4378 185.585C88.4378 185.555 88.4378 185.525 88.4378 185.495C88.4378 185.465 88.4378 185.435 88.4378 185.405C88.4378 185.375 88.4378 185.345 88.4378 185.315C88.4378 185.285 88.4378 185.255 88.4378 185.225C88.4378 185.195 88.4378 185.165 88.4378 185.135C88.4378 185.104 88.4378 185.074 88.4378 185.044C88.4378 185.014 88.4378 184.984 88.4378 184.954C88.4378 184.924 88.4378 184.894 88.4378 184.864C88.4378 184.834 88.4378 184.803 88.4378 184.773C88.4378 184.743 88.4378 184.713 88.4378 184.683C88.4378 184.653 88.4378 184.623 88.4378 184.592C88.4378 184.562 88.4378 184.532 88.4378 184.502C88.4378 184.472 88.4378 184.442 88.4378 184.411C88.4378 184.381 88.4378 184.351 88.4378 184.321C88.4378 184.291 88.4378 184.261 88.4378 184.23C88.4378 184.2 88.4378 184.17 88.4378 184.14C88.4378 184.11 88.4378 184.08 88.4378 184.049C88.4378 184.019 88.4378 183.989 88.4378 183.959C88.4378 183.929 88.4378 183.898 88.4378 183.868C88.4378 183.838 88.4378 183.808 88.4378 183.778C88.4378 183.747 88.4378 183.717 88.4378 183.687C88.4378 183.657 88.4378 183.626 88.4378 183.596C88.4378 183.566 88.4378 183.536 88.4378 183.506C88.4378 183.475 88.4378 183.445 88.4378 183.415C88.4378 183.385 88.4378 183.354 88.4378 183.324C88.4378 183.294 88.4378 183.264 88.4378 183.234C88.4378 183.203 88.4378 183.173 88.4378 183.143C88.4378 183.113 88.4378 183.082 88.4378 183.052C88.4378 183.022 88.4378 182.992 88.4378 182.962C88.4378 182.931 88.4378 182.901 88.4378 182.871C88.4378 182.841 88.4378 182.81 88.4378 182.78C88.4378 182.75 88.4378 182.72 88.4378 182.69C88.4378 182.659 88.4378 182.629 88.4378 182.599C88.4378 182.569 88.4378 182.539 88.4378 182.508C88.4378 182.478 88.4378 182.448 88.4378 182.418C88.4378 182.387 88.4378 182.357 88.4378 182.327C88.4378 182.297 88.4378 182.267 88.4378 182.236C88.4378 182.206 88.4378 182.176 88.4378 182.146C88.4378 182.116 88.4378 182.085 88.4378 182.055C88.4378 182.025 88.4378 181.995 88.4378 181.965C88.4378 181.935 88.4378 181.904 88.4378 181.874C88.4378 181.844 88.4378 181.814 88.4378 181.784C88.4378 181.754 88.4378 181.723 88.4378 181.693C88.4378 181.663 88.4378 181.633 88.4378 181.603C88.4378 181.573 88.4378 181.543 88.4378 181.512C88.4378 181.482 88.4378 181.452 88.4378 181.422C88.4378 181.392 88.4378 181.362 88.4378 181.332C88.4378 181.302 88.4378 181.271 88.4378 181.241C88.4378 181.211 88.4378 181.181 88.4378 181.151C88.4378 181.121 88.4378 181.091 88.4378 181.061C88.4378 181.031 88.4378 181.001 88.4378 180.971C88.4378 180.941 88.4378 180.911 88.4378 180.88C88.4378 180.85 88.4378 180.82 88.4378 180.79C88.4378 180.76 88.4378 180.73 88.4378 180.7C88.4378 180.67 88.4378 180.64 88.4378 180.61C88.4378 180.58 88.4378 180.55 88.4378 180.52C88.4378 180.49 88.4378 180.46 88.4378 180.43C88.4378 180.4 88.4378 180.37 88.4378 180.34C88.4378 180.31 88.4378 180.281 88.4378 180.251C88.4378 180.221 88.4378 180.191 88.4378 180.161C88.4378 180.131 88.4378 180.101 88.4378 180.071C88.4378 180.041 88.4378 180.011 88.4378 179.981C88.4378 179.952 88.4378 179.922 88.4378 179.892C88.4378 179.862 88.4378 179.832 88.4378 179.802C88.4378 179.772 88.4378 179.743 88.4378 179.713C88.4378 179.683 88.4378 179.653 88.4378 179.623C88.4378 179.594 88.4378 179.564 88.4378 179.534C88.4378 179.504 88.4378 179.474 88.4378 179.445C88.4378 179.415 88.4378 179.385 88.4378 179.356C88.4378 179.326 88.4378 179.296 88.4378 179.266C88.4378 179.237 88.4378 179.207 88.4378 179.177C88.4378 179.148 88.4378 179.118 88.4378 179.088C88.4378 179.059 88.4378 179.029 88.4378 178.999C88.4378 178.97 88.4378 178.94 88.4378 178.911C88.4378 178.881 88.4378 178.851 88.4378 178.822C88.4378 178.792 88.4378 178.763 88.4378 178.733C88.4378 178.704 88.4378 178.674 88.4378 178.645C88.4378 178.615 88.4378 178.586 88.4378 178.556C88.4378 178.527 88.4378 178.497 88.4378 178.468C88.4378 178.438 88.4378 178.409 88.4378 178.379C88.4378 178.35 88.4378 178.32 88.4378 178.291C88.4378 178.262 88.4378 178.232 88.4378 178.203C88.4378 178.174 88.4378 178.144 88.4378 178.115C88.4378 178.085 88.4378 178.056 88.4378 178.027C88.4378 177.998 88.4378 177.968 88.4378 177.939C88.4378 177.91 88.4378 177.88 88.4378 177.851C88.4378 177.822 88.4378 177.793 88.4378 177.764C88.4378 177.734 88.4378 177.705 88.4378 177.676C88.4378 177.647 88.4378 177.618 88.4378 177.589C88.4378 177.559 88.4378 177.53 88.4378 177.501C88.4378 177.472 88.4378 177.443 88.4378 177.414C88.4378 177.385 88.4378 177.356 88.4378 177.327C88.4378 177.298 88.4378 177.269 88.4378 177.24C88.4378 177.211 88.4378 177.182 88.4378 177.153C88.4378 177.124 88.4378 177.095 88.4378 177.066C88.4378 177.037 88.4378 177.008 88.4378 176.979C88.4378 176.95 88.4378 176.922 88.4378 176.893C88.4378 176.864 88.4378 176.835 88.4378 176.806C88.4378 176.778 88.4378 176.749 88.4378 176.72C88.4378 176.691 88.4378 176.663 88.4378 176.634C88.4378 176.605 88.4378 176.576 88.4378 176.548C88.4378 176.519 88.4378 176.49 88.4378 176.462C88.4378 176.433 88.4378 176.405 88.4378 176.376C88.4378 176.347 88.4378 176.319 88.4378 176.29C88.4378 176.262 88.4378 176.233 88.4378 176.205C88.4378 176.176 88.4378 176.148 88.4378 176.119C88.4378 176.091 88.4378 176.062 88.4378 176.034C88.4378 176.006 88.4378 175.977 88.4378 175.949C88.4378 175.92 88.4378 175.892 88.4378 175.864C88.4378 175.835 88.4378 175.807 88.4378 175.779C88.4378 175.751 88.4378 175.722 88.4378 175.694C88.4378 175.666 88.4378 175.638 88.4378 175.61C88.4378 175.581 88.4378 175.553 88.4378 175.525C88.4378 175.497 88.4378 175.469 88.4378 175.441C88.4378 175.413 88.4378 175.385 88.4378 175.357C88.4378 175.329 88.4378 175.301 88.4378 175.273C88.4378 175.245 88.4378 175.217 88.4378 175.189C88.4378 175.161 88.4378 175.133 88.4378 175.105C88.4378 175.077 88.4378 175.049 88.4378 175.022C88.4378 174.994 88.4378 174.966 88.4378 174.938C88.4378 174.91 88.4378 174.883 88.4378 174.855C88.4378 174.827 88.4378 174.799 88.4378 174.772C88.4378 174.744 88.4378 174.717 88.4378 174.689C88.4378 174.661 88.4378 174.634 88.4378 174.606C88.4378 174.579 88.4378 174.551 88.4378 174.524C88.4378 174.496 88.4378 174.469 88.4378 174.441C88.4378 174.414 88.4378 174.386 88.4378 174.359C88.4378 174.332 88.4378 174.304 88.4378 174.277C88.4378 174.249 88.4378 174.222 88.4378 174.195C88.4378 174.168 88.4378 174.14 88.4378 174.113C88.4378 174.086 88.4378 174.059 88.4378 174.032C88.4378 174.004 88.4378 173.977 88.4378 173.95C88.4378 173.923 88.4378 173.896 88.4378 173.869C88.4378 173.842 88.4378 173.815 88.4378 173.788C88.4378 173.761 88.4378 173.734 88.4378 173.707C88.4378 173.68 88.4378 173.653 88.4378 173.627C88.4378 173.6 88.4378 173.573 88.4378 173.546C88.4378 173.519 88.4378 173.493 88.4378 173.466C88.4378 173.439 88.4378 173.412 88.4378 173.386C88.4378 173.359 88.4378 173.332 88.4378 173.306C88.4378 173.279 88.4378 173.253 88.4378 173.226C88.4378 173.2 88.4378 173.173 88.4378 173.147C88.4378 173.12 88.4378 173.094 88.4378 173.067C88.4378 173.041 88.4378 173.015 88.4378 172.988C88.4378 172.962 88.4378 172.936 88.4378 172.909C88.4378 172.883 88.4378 172.857 88.4378 172.831C88.4378 172.804 88.4378 172.778 88.4378 172.752C88.4378 172.726 88.4378 172.7 88.4378 172.674C88.4378 172.648 88.4378 172.622 88.4378 172.596C88.4378 172.57 88.4378 172.544 88.4378 172.518C88.4378 172.492 88.4378 172.466 88.4378 172.44C88.4378 172.414 88.4378 172.388 88.4378 172.363C88.4378 172.337 88.4378 172.311 88.4378 172.285C88.4378 172.26 88.4378 172.234 88.4378 172.208C88.4378 172.183 88.4378 172.157 88.4378 172.131C88.4378 172.106 88.4378 172.08 88.4378 172.055C88.4378 172.029 88.4378 172.004 88.4378 171.978C88.4378 171.953 88.4378 171.928 88.4378 171.902C88.4378 171.877 88.4378 171.852 88.4378 171.826C88.4378 171.801 88.4378 171.776 88.4378 171.751C88.4378 171.725 88.4378 171.7 88.4378 171.675C88.4378 171.65 88.4378 171.625 88.4378 171.6C88.4378 171.575 88.4378 171.55 88.4378 171.525C88.4378 171.5 88.4378 171.475 88.4378 171.45C88.4378 171.425 88.4378 171.4 88.4378 171.376C88.4378 171.351 88.4378 171.326 88.4378 171.301C88.4378 171.276 88.4378 171.252 88.4378 171.227C88.4378 171.202 88.4378 171.178 88.4378 171.153C88.4378 171.129 88.4378 171.104 88.4378 171.08C88.4378 171.055 88.4378 171.031 88.4378 171.006C88.4378 170.982 88.4378 170.957 88.4378 170.933C88.4378 170.909 88.4378 170.884 88.4378 170.86C88.4378 170.836 88.4378 170.812 88.4378 170.788C88.4378 170.763 88.4378 170.739 88.4378 170.715C88.4378 170.691 88.4378 170.667 88.4378 170.643C88.4378 170.619 88.4378 170.595 88.4378 170.571C88.4378 170.547 88.4378 170.523 88.4378 170.5C88.4378 170.476 88.4378 170.452 88.4378 170.428C88.4378 170.404 88.4378 170.381 88.4378 170.357C88.4378 170.333 88.4378 170.31 88.4378 170.286C88.4378 170.263 88.4378 170.239 88.4378 170.216C88.4378 170.192 88.4378 170.169 88.4378 170.145C88.4378 170.122 88.4378 170.099 88.4378 170.075C88.4378 170.052 88.4378 170.029 88.4378 170.005C88.4378 169.982 88.4378 169.959 88.4378 169.936C88.4378 169.913 88.4378 169.89 88.4378 169.867C88.4378 169.844 88.4378 169.821 88.4378 169.798C88.4378 169.775 88.4378 169.752 88.4378 169.729C88.4378 169.706 88.4378 169.683 88.4378 169.66C88.4378 169.638 88.4378 169.615 88.4378 169.592C88.4378 169.57 88.4378 169.547 88.4378 169.524C88.4378 169.502 88.4378 169.479 88.4378 169.457C88.4378 169.434 88.4378 169.412 88.4378 169.389C88.4378 169.367 88.4378 169.345 88.4378 169.322C88.4378 169.3 88.4378 169.278 88.4378 169.256C88.4378 169.233 88.4378 169.211 88.4378 169.189C88.4378 169.167 88.4378 169.145 88.4378 169.123C88.4378 169.101 88.4378 169.079 88.4378 169.057C88.4378 169.035 88.4378 169.013 88.4378 168.992C88.4378 168.97 88.4378 168.948 88.4378 168.926C88.4378 168.904 88.4378 168.883 88.4378 168.861C88.4378 168.84 88.4378 168.818 88.4378 168.796C88.4378 168.775 88.4378 168.753 88.4378 168.732C88.4378 168.711 88.4378 168.689 88.4378 168.668C88.4378 168.647 88.4378 168.625 88.4378 168.604C88.4378 168.583 88.4378 168.562 88.4378 168.541C88.4378 168.519 88.4378 168.498 88.4378 168.477C88.4378 168.456 88.4378 168.435 88.4378 168.415C88.4378 168.394 88.4378 168.373 88.4378 168.352C88.4378 168.331 88.4378 168.31 88.4378 168.29C88.4378 168.269 88.4378 168.248 88.4378 168.228C88.4378 168.207 88.4378 168.187 88.4378 168.166C88.4378 168.146 88.4378 168.125 88.4378 168.105C88.4378 168.084 88.4378 168.064 88.4378 168.044C88.4378 168.023 88.4378 168.003 88.4378 167.983C88.4378 167.963 88.4378 167.943 88.4378 167.923C88.4378 167.902 88.4378 167.882 88.4378 167.863C88.4378 167.843 88.4378 167.823 88.4378 167.803C88.4378 167.783 88.4378 167.763 88.4378 167.743C88.4378 167.724 88.4378 167.704 88.4378 167.684C88.4378 167.665 88.4378 167.645 88.4378 167.626C88.4378 167.606 88.4378 167.587 88.4378 167.567C88.4378 167.548 88.4378 167.528 88.4378 167.509C88.4378 167.49 88.4378 167.47 88.4378 167.451C88.4378 167.432 88.4378 167.413 88.4378 167.394C88.4378 167.375 88.4378 167.356 88.4378 167.337C88.4378 167.318 88.4378 167.299 88.4378 167.28C88.4378 167.261 88.4378 167.242 88.4378 167.224C88.4378 167.205 88.4378 167.186 88.4378 167.168C88.4378 167.149 88.4378 167.13 88.4378 167.112C88.4378 167.093 88.4378 167.075 88.4378 167.057C88.4378 167.038 88.4378 167.02 88.4378 167.001C88.4378 166.983 88.4378 166.965 88.4378 166.947C88.4378 166.929 88.4378 166.911 88.4378 166.893C88.4378 166.874 88.4378 166.856 88.4378 166.839C88.4378 166.821 88.4378 166.803 88.4378 166.785C88.4378 166.767 88.4378 166.749 88.4378 166.732C88.4378 166.714 88.4378 166.696 88.4378 166.679C88.4378 166.661 88.4378 166.644 88.4378 166.626C88.4378 166.609 88.4378 166.591 88.4378 166.574C88.4378 166.557 88.4378 166.54 88.4378 166.522C88.4378 166.505 88.4378 166.488 88.4378 166.471C88.4378 166.454 88.4378 166.437 88.4378 166.42C88.4378 166.403 88.4378 166.386 88.4378 166.369C88.4378 166.352 88.4378 166.335 88.4378 166.319C88.4378 166.302 88.4378 166.285 88.4378 166.269C88.4378 166.252 88.4378 166.236 88.4378 166.219C88.4378 166.203 88.4378 166.186 88.4378 166.17C88.4378 166.154 88.4378 166.137 88.4378 166.121C88.4378 166.105 88.4378 166.089 88.4378 166.073C88.4378 166.057 88.4378 166.041 88.4378 166.025C88.4378 166.009 88.4378 165.993 88.4378 165.977C88.4378 165.961 88.4378 165.945 88.4378 165.93C88.4378 165.914 88.4378 165.898 88.4378 165.883C88.4378 165.867 88.4378 165.852 88.4378 165.836C88.4378 165.821 88.4378 165.805 88.4378 165.79C88.4378 165.775 88.4378 165.759 88.4378 165.744C88.4378 165.729 88.4378 165.714 88.4378 165.699C88.4378 165.684 88.4378 165.669 88.4378 165.654C88.4378 165.639 88.4378 165.624 88.4378 165.609C88.4378 165.595 88.4378 165.58 88.4378 165.565C88.4378 165.551 88.4378 165.536 88.4378 165.521C88.4378 165.507 88.4378 165.492 88.4378 165.478C88.4378 165.464 88.4378 165.449 88.4378 165.435C88.4378 165.421 88.4378 165.407 88.4378 165.392C88.4378 165.378 88.4378 165.364 88.4378 165.35C88.4378 165.336 88.4378 165.322 88.4378 165.309C88.4378 165.295 88.4378 165.281 88.4378 165.267C88.4378 165.254 88.4378 165.24 88.4378 165.226C88.4378 165.213 88.4378 165.199 88.4378 165.186C88.4378 165.172 88.4378 165.159 88.4378 165.146C88.4378 165.132 88.4378 165.119 88.4378 165.106C88.4378 165.093 88.4378 165.08 88.4378 165.067C88.4378 165.054 88.4378 165.041 88.4378 165.028C88.4378 165.015 88.4378 165.002 88.4378 164.989C88.4378 164.977 88.4378 164.964 88.4378 164.951C88.4378 164.939 88.4378 164.926 88.4378 164.914C88.4378 164.901 88.4378 164.889 88.4378 164.877C88.4378 164.864 88.4378 164.852 88.4378 164.84C88.4378 164.828 88.4378 164.816 88.4378 164.804C88.4378 164.792 88.4378 164.78 88.4378 164.768C88.4378 164.756 88.4378 164.744 88.4378 164.732C88.4378 164.721 88.4378 164.709 88.4378 164.697C88.4378 164.686 88.4378 164.674 88.4378 164.663C88.4378 164.651 88.4378 164.64 88.4378 164.629C88.4378 164.617 88.4378 164.606 88.4378 164.595C88.4378 164.584 88.4378 164.573 88.4378 164.562C88.4378 164.551 88.4378 164.54 88.4378 164.529C88.4378 164.518 88.4378 164.507 88.4378 164.497C88.4378 164.486 88.4378 164.475 88.4378 164.465C88.4378 164.454 88.4378 164.444 88.4378 164.433C88.4378 164.423 88.4378 164.413 88.4378 164.402C88.4378 164.392 88.4378 164.382 88.4378 164.372C88.4378 164.362 88.4378 164.352 88.4378 164.342C88.4378 164.332 88.4378 164.322 88.4378 164.312C88.4378 164.302 88.4378 164.293 88.4378 164.283C88.4378 164.273 88.4378 164.264 88.4378 164.254C88.4378 164.245 88.4378 164.235 88.4378 164.226C88.4378 164.217 88.4378 164.207 88.4378 164.198C88.4378 164.189 88.4378 164.18 88.4378 164.171C88.4378 164.162 88.4378 164.153 88.4378 164.144C88.4378 164.135 88.4378 164.126 88.4378 164.118C88.4378 164.109 88.4378 164.1 88.4378 164.092C88.4378 164.083 88.4378 164.075 88.4378 164.066C88.4378 164.058 88.4378 164.049 88.4378 164.041C88.4378 164.033 88.4378 164.025 88.4378 164.017C88.4378 164.009 88.4378 164.001 88.4378 163.993C88.4378 163.985 88.4378 163.977 88.4378 163.969C88.4378 163.961 88.4378 163.954 88.4378 163.946C88.4378 163.938 88.4378 163.931 88.4378 163.923C88.4378 163.916 88.4378 163.909 88.4378 163.901C88.4378 163.894 88.4378 163.887 88.4378 163.88C88.4378 163.873 88.4378 163.865 88.4378 163.858C88.4378 163.852 88.4378 163.845 88.4378 163.838C88.4378 163.831 88.4378 163.824 88.4378 163.818C88.4378 163.811 88.4378 163.804 88.4378 163.798C88.4378 163.792 88.4378 163.785 88.4378 163.779C88.4378 163.773 88.4378 163.766 88.4378 163.76C88.4378 163.754 88.4378 163.748 88.4378 163.742C88.4378 163.736 88.4378 163.73 88.4378 163.724C88.4378 163.718 88.4378 163.713 88.4378 163.707C88.4378 163.701 88.4378 163.696 88.4378 163.69C88.4378 163.685 88.4378 163.68 88.4378 163.674C88.4378 163.669 88.4378 163.664 88.4378 163.659C88.4378 163.653 88.4378 163.648 88.4378 163.643C88.4378 163.638 88.4378 163.634 88.4378 163.629C88.4378 163.624 88.4378 163.619 88.4378 163.615C88.4378 163.61 88.4378 163.605 88.4378 163.601C88.4378 163.596 88.4378 163.592 88.4378 163.588C88.4378 163.584 88.4378 163.579 88.4378 163.575C88.4378 163.571 88.4378 163.567 88.4378 163.563C88.4378 163.559 88.4378 163.555 88.4378 163.552C88.4378 163.548 88.4378 163.544 88.4378 163.54C88.4378 163.537 88.4378 163.533 88.4378 163.53C88.4378 163.527 88.4378 163.523 88.4378 163.52C88.4378 163.517 88.4378 163.514 88.4378 163.51C88.4378 163.507 88.4378 163.504 88.4378 163.502C88.4378 163.499 88.4378 163.496 88.4378 163.493C88.4378 163.49 88.4378 163.488 88.4378 163.485C88.4378 163.483 88.4378 163.48 88.4378 163.478C88.4378 163.475 88.4378 163.473 88.4378 163.471C88.4378 163.469 88.4378 163.467 88.4378 163.465C88.4378 163.463 88.4378 163.461 88.4378 163.459C88.4378 163.457 88.4378 163.455 88.4378 163.454C88.4378 163.452 88.4378 163.451 88.4378 163.449C88.4378 163.448 88.4378 163.446 88.4378 163.445C88.4378 163.444 88.4378 163.443 88.4378 163.441C88.4378 163.44 88.4378 163.439 88.4378 163.438C88.4378 163.437 88.4378 163.437 88.4378 163.436C88.4378 163.435 88.4378 163.434 88.4378 163.434C88.4378 163.433 88.4378 163.433 88.4378 163.433C88.4378 163.432 88.4378 163.432 88.4378 163.432C88.4378 163.432 88.4378 163.431 87.1878 163.431ZM85.9378 198.17C85.9378 203.289 85.0708 205.382 83.3599 206.746C82.4351 207.484 81.1769 208.08 79.4129 208.72C77.6326 209.365 75.5269 209.993 72.858 210.88L73.6466 213.252C76.2036 212.402 78.4527 211.727 80.2651 211.07C82.0939 210.407 83.6663 209.7 84.9189 208.701C87.5629 206.592 88.4378 203.473 88.4378 198.17H85.9378ZM72.858 210.88C70.2451 211.748 68.9387 212.182 68.2855 212.4C67.9588 212.508 67.7955 212.562 67.7139 212.59C67.6731 212.603 67.6527 212.61 67.6425 212.613C67.6373 212.615 67.6348 212.616 67.6336 212.616C67.6329 212.617 67.6327 212.617 67.6326 212.617C67.6325 212.617 67.6328 212.617 67.6331 212.616C67.6332 212.616 67.6336 212.616 67.6338 212.616C67.6341 212.616 67.6351 212.616 67.6357 212.616C67.6374 212.615 67.6425 212.613 67.6459 212.612C68.6423 212.715 69.2433 213.517 69.2433 213.517C69.2433 213.517 68.6423 212.715 67.6459 212.612C67.6425 212.613 67.6374 212.615 67.6356 212.616C67.6351 212.616 67.6341 212.616 67.6337 212.616C67.6335 212.616 67.6332 212.616 67.6331 212.616C67.6327 212.617 67.6323 212.617 67.6323 212.617C67.632 212.617 67.6316 212.617 67.631 212.617C67.6297 212.618 67.6271 212.618 67.622 212.62C67.6118 212.624 67.5914 212.63 67.5506 212.644C67.4689 212.671 67.3056 212.725 66.979 212.834C66.3258 213.051 65.0193 213.485 62.4064 214.354L63.195 216.726C65.8079 215.858 67.1143 215.423 67.7675 215.206C68.0942 215.098 68.2575 215.043 68.3391 215.016C68.3799 215.003 68.4003 214.996 68.4105 214.993C68.4156 214.991 68.4182 214.99 68.4194 214.99C68.4201 214.989 68.4203 214.989 68.4204 214.989C68.4205 214.989 68.4202 214.989 68.4199 214.989C68.4198 214.989 68.4194 214.99 68.4192 214.99C68.4189 214.99 68.4179 214.99 68.4173 214.99C68.4156 214.991 68.4105 214.992 68.4071 214.994C67.4107 214.891 66.8097 214.089 66.8097 214.089C66.8097 214.089 67.4107 214.891 68.4071 214.994C68.4105 214.992 68.4156 214.991 68.4174 214.99C68.4179 214.99 68.4189 214.99 68.4193 214.99C68.4194 214.99 68.4198 214.989 68.4199 214.989C68.4203 214.989 68.4207 214.989 68.4207 214.989C68.421 214.989 68.4214 214.989 68.422 214.989C68.4233 214.988 68.4259 214.987 68.431 214.986C68.4412 214.982 68.4616 214.976 68.5024 214.962C68.5841 214.935 68.7474 214.881 69.074 214.772C69.7272 214.555 71.0337 214.121 73.6466 213.252L72.858 210.88ZM62.4064 214.354C52.0494 217.796 40.2491 222.199 36.2954 234.06L38.6671 234.85C42.1719 224.336 52.6487 220.231 63.195 216.726L62.4064 214.354ZM36.2624 234.178L33.6716 245.577L36.1094 246.131L38.7002 234.732L36.2624 234.178ZM42.1635 256.215H152.155V253.715H42.1635V256.215ZM33.6716 245.577C32.4331 251.027 36.5751 256.215 42.1635 256.215V253.715C38.1794 253.715 35.2265 250.016 36.1094 246.131L33.6716 245.577Z" fill="black"/>
<path d="M110.201 162.667C111.746 162.667 112.998 161.415 112.998 159.87C112.998 158.325 111.746 157.073 110.201 157.073C108.657 157.073 107.404 158.325 107.404 159.87C107.404 161.415 108.657 162.667 110.201 162.667Z" fill="black"/>
<path d="M239.077 238.829L240.041 239.624L239.077 238.829ZM242.187 223.411L241.479 222.381C241.068 222.663 240.865 223.163 240.961 223.652L242.187 223.411ZM250.882 217.433L250.219 216.373C250.203 216.382 250.188 216.392 250.173 216.403L250.882 217.433ZM252.672 212.494L253.875 212.156C253.872 212.145 253.869 212.134 253.865 212.123L252.672 212.494ZM246.918 210.025L247.489 211.137C247.496 211.133 247.503 211.129 247.51 211.125L246.918 210.025ZM235.283 216.003L235.849 217.117L235.854 217.115L235.283 216.003ZM229.785 223.281L228.561 223.03C228.559 223.036 228.558 223.041 228.557 223.047L229.785 223.281ZM228.251 231.338L228.945 232.378C229.224 232.192 229.416 231.902 229.479 231.572L228.251 231.338ZM201.273 249.353L200.579 248.313C200.518 248.354 200.46 248.4 200.407 248.451L201.273 249.353ZM185.802 247.533L184.743 248.197C184.746 248.202 184.75 248.208 184.753 248.213L185.802 247.533ZM171.322 224.451L172.381 223.786C172.376 223.778 172.37 223.77 172.365 223.761L171.322 224.451ZM124.526 214.573L123.32 214.244L123.319 214.248L124.526 214.573ZM95.6018 210.545C95.6018 209.854 95.0422 209.295 94.3518 209.295C93.6615 209.295 93.1018 209.854 93.1018 210.545H95.6018ZM233.796 245.436L234.901 246.021L234.905 246.014L233.796 245.436ZM227.146 255.313C226.823 255.923 227.055 256.68 227.665 257.003C228.275 257.326 229.032 257.094 229.355 256.484L227.146 255.313ZM240.041 239.624C242.768 236.322 243.578 232.154 243.741 228.93C243.824 227.303 243.744 225.875 243.643 224.852C243.593 224.34 243.537 223.927 243.493 223.639C243.471 223.494 243.452 223.381 243.438 223.302C243.431 223.262 243.425 223.231 243.421 223.209C243.419 223.198 243.418 223.189 243.416 223.182C243.416 223.179 243.415 223.176 243.415 223.174C243.414 223.173 243.414 223.172 243.414 223.171C243.414 223.171 243.414 223.171 243.414 223.17C243.414 223.17 243.414 223.169 242.187 223.411C240.961 223.652 240.961 223.652 240.961 223.651C240.961 223.651 240.961 223.651 240.961 223.651C240.961 223.651 240.961 223.651 240.961 223.651C240.961 223.651 240.961 223.652 240.961 223.653C240.961 223.655 240.962 223.66 240.964 223.667C240.966 223.681 240.97 223.703 240.976 223.734C240.986 223.795 241.002 223.89 241.021 224.015C241.059 224.264 241.109 224.633 241.155 225.097C241.247 226.027 241.319 227.327 241.244 228.803C241.093 231.786 240.348 235.326 238.113 238.033L240.041 239.624ZM242.896 224.441L251.59 218.463L250.173 216.403L241.479 222.381L242.896 224.441ZM251.545 218.492C253.739 217.12 254.516 214.436 253.875 212.156L251.468 212.832C251.85 214.191 251.349 215.666 250.219 216.373L251.545 218.492ZM253.865 212.123C252.876 208.938 249.223 207.365 246.326 208.924L247.51 211.125C248.96 210.345 250.933 211.112 251.478 212.865L253.865 212.123ZM246.347 208.913L234.712 214.891L235.854 217.115L247.489 211.137L246.347 208.913ZM234.717 214.889C231.555 216.495 229.274 219.548 228.561 223.03L231.01 223.532C231.575 220.776 233.385 218.37 235.849 217.117L234.717 214.889ZM228.557 223.047L227.023 231.105L229.479 231.572L231.013 223.515L228.557 223.047ZM200.407 248.451C196.377 252.32 189.881 251.53 186.851 246.853L184.753 248.213C188.627 254.193 196.963 255.222 202.138 250.254L200.407 248.451ZM186.861 246.869L172.381 223.786L170.263 225.115L184.743 248.197L186.861 246.869ZM172.365 223.761C166.386 214.713 156.538 209.295 145.751 209.295V211.795C155.676 211.795 164.751 216.773 170.279 225.14L172.365 223.761ZM129.513 209.295C126.439 209.295 124.086 211.443 123.32 214.244L125.732 214.903C126.245 213.025 127.728 211.795 129.513 211.795V209.295ZM123.319 214.248C121.666 220.37 116.25 224.89 109.695 224.89V227.39C117.46 227.39 123.806 222.033 125.733 214.899L123.319 214.248ZM109.695 224.89C101.966 224.89 95.6018 218.451 95.6018 210.545H93.1018C93.1018 219.793 100.547 227.39 109.695 227.39V224.89ZM145.751 209.295H129.513V211.795H145.751V209.295ZM227.557 230.299L200.579 248.313L201.967 250.392L228.945 232.378L227.557 230.299ZM232.692 244.851L227.146 255.313L229.355 256.484L234.901 246.021L232.692 244.851ZM238.113 238.033C237.216 239.119 236.314 240.04 235.311 241.188C234.356 242.281 233.409 243.476 232.688 244.858L234.905 246.014C235.489 244.894 236.284 243.873 237.194 242.833C238.056 241.846 239.141 240.714 240.041 239.624L238.113 238.033Z" fill="black"/>
<path d="M39.947 207.419V90.0408C39.947 80.8109 47.4987 73.2593 56.7285 73.2593H278.617C287.847 73.2593 295.398 80.8109 295.398 90.0408V239.209C295.398 248.439 287.94 255.991 279.549 255.991H244.453" stroke="black" stroke-width="2.5" stroke-miterlimit="10" stroke-linecap="round" stroke-linejoin="round"/>
</svg>
