<svg width="320" height="320" viewBox="0 0 320 320" fill="none" xmlns="http://www.w3.org/2000/svg">
<path d="M64.6445 248.199C55.6445 248.199 47.6445 240.099 47.6445 230.199V151.199M54.6445 81.1986C70.0445 84.4986 81.7445 99.4986 79.3445 116.699C77.2445 131.699 64.5445 143.399 49.3445 144.099C30.9445 145.099 15.6445 130.399 15.6445 112.099C15.6445 94.3986 29.9445 80.0986 47.6445 80.0986V74.0986C47.6445 64.1986 55.7445 56.0986 65.6445 56.0986H285.645C295.545 56.0986 303.645 64.1986 303.645 74.0986V230.099C303.645 239.999 295.645 248.099 286.645 248.099M107.645 276.199H127.645C132.045 276.199 135.645 272.599 135.645 268.199V228.199C135.645 223.799 132.045 220.199 127.645 220.199H79.6445C75.2445 220.199 71.6445 223.799 71.6445 228.199V268.199C71.6445 272.599 75.2445 276.199 79.6445 276.199H89.6445C91.8445 276.199 93.6445 274.399 93.6445 272.199V251.199C93.6445 249.299 92.0445 247.899 90.1445 248.199C88.6445 248.499 87.6445 249.799 87.6445 251.299C87.6445 259.199 94.5445 268.099 105.345 268.199C111.045 268.299 115.645 263.699 115.645 258.099V244.199C115.645 239.799 112.045 236.199 107.645 236.199C100.645 236.199 100.645 244.199 93.6445 244.199M107.645 247.199C107.645 247.199 108.645 250.199 109.645 253.199C110.645 256.199 108.645 256.199 107.645 256.199H106.645M102.645 232.199C95.6445 232.199 95.6445 240.199 88.6445 240.199M171.645 276.199H151.645C147.245 276.199 143.645 272.599 143.645 268.199V228.199C143.645 223.799 147.245 220.199 151.645 220.199H199.645C204.045 220.199 207.645 223.799 207.645 228.199V268.199C207.645 272.599 204.045 276.199 199.645 276.199H189.645C187.445 276.199 185.645 274.399 185.645 272.199V251.199C185.645 249.299 187.245 247.899 189.145 248.199C190.645 248.499 191.645 249.799 191.645 251.299C191.645 259.199 184.745 268.099 173.945 268.199C168.245 268.299 163.645 263.699 163.645 258.099V244.199C163.645 239.799 167.245 236.199 171.645 236.199C178.645 236.199 178.645 244.199 185.645 244.199M171.645 247.199C171.645 247.199 170.645 250.199 169.645 253.199C168.645 256.199 170.645 256.199 171.645 256.199H172.645M163.645 232.199C163.645 232.199 164.645 228.199 171.645 228.199H181.645C184.945 228.199 187.645 230.899 187.645 234.199C190.945 234.199 193.645 236.899 193.645 240.199V244.199M255.645 248.199C255.645 248.199 256.645 251.199 257.645 254.199C258.645 257.199 256.645 257.199 255.645 257.199H254.645M256.645 242.199H247.645C245.445 242.199 243.645 243.999 243.645 246.199V257.899C243.645 263.199 247.645 267.899 252.945 268.199C258.745 268.599 263.645 263.999 263.645 258.199V244.699C263.645 236.099 257.045 228.699 248.445 228.299C239.245 227.899 231.645 235.199 231.645 244.299V272.299C231.645 274.499 229.845 276.299 227.645 276.299H223.645C219.245 276.299 215.645 272.699 215.645 268.299V228.299C215.645 223.899 219.245 220.299 223.645 220.299H271.645C276.045 220.299 279.645 223.899 279.645 228.299V268.299C279.645 272.699 276.045 276.299 271.645 276.299H254.645M195.645 122.199L199.645 134.199C201.645 140.199 199.645 142.199 195.645 142.199H193.645M155.645 116.199C155.645 116.199 167.645 114.199 167.645 96.1986C184.345 112.899 203.845 115.699 209.845 116.099C210.845 116.199 211.645 116.999 211.645 118.099V147.999C211.645 161.099 200.945 172.099 187.845 172.199C163.945 172.299 143.945 146.699 143.645 128.599C143.545 125.399 145.845 122.499 149.045 122.199C152.645 121.799 155.645 124.599 155.645 128.199C155.645 128.199 155.645 156.199 155.645 168.199C155.645 180.199 151.645 180.199 139.645 184.199C127.645 188.199 139.645 184.199 127.645 188.199C115.645 192.199 99.6445 197.199 99.6445 213.199M148.645 168.199H135.645C133.445 168.199 131.645 166.399 131.645 164.199V112.199C131.645 92.2986 147.745 76.1986 167.645 76.1986H179.645C200.645 76.1986 215.645 88.1986 215.645 110.199M152.645 187.199C155.645 196.999 164.845 204.199 175.645 204.199C188.045 204.199 198.245 194.799 199.545 182.699C199.645 181.399 200.945 180.699 202.145 181.099L223.645 188.299C235.645 192.299 251.645 197.299 251.645 213.299M55.6445 108.199L63.0445 103.199C63.7445 102.799 64.6445 103.199 64.6445 103.999V120.099C64.6445 120.899 63.6445 121.399 63.0445 120.899L55.6445 115.199V108.199ZM51.6445 124.199H35.6445C33.4445 124.199 31.6445 122.399 31.6445 120.199V104.199C31.6445 101.999 33.4445 100.199 35.6445 100.199H51.6445C53.8445 100.199 55.6445 101.999 55.6445 104.199V120.199C55.6445 122.499 53.9445 124.199 51.6445 124.199Z" stroke="url(#paint0_linear)" stroke-width="2.5" stroke-miterlimit="10" stroke-linecap="round" stroke-linejoin="round"/>
<path d="M183.645 128.199C184.749 128.199 185.645 127.304 185.645 126.199C185.645 125.095 184.749 124.199 183.645 124.199C182.54 124.199 181.645 125.095 181.645 126.199C181.645 127.304 182.54 128.199 183.645 128.199Z" fill="#70B770"/>
<defs>
<linearGradient id="paint0_linear" x1="159.645" y1="56.0986" x2="159.645" y2="276.299" gradientUnits="userSpaceOnUse">
<stop stop-color="#93C437"/>
<stop offset="1" stop-color="#279BE8"/>
</linearGradient>
</defs>
</svg>
