<svg width="320" height="320" viewBox="0 0 320 320" fill="none" xmlns="http://www.w3.org/2000/svg"><path d="M319.275 61.588a1.202 1.202 0 0 0-1.6.6l-40.7 92.3a6.705 6.705 0 0 1-9.2 3.3l-45.9-22.9a3.203 3.203 0 0 0-3 0 3.684 3.684 0 0 0-1.7 2.5l-3.1 28.6a2.897 2.897 0 0 0 1.6 3.1 3.302 3.302 0 0 0 1.6.5 2.596 2.596 0 0 0 1.9-.7l20.3-15.2a1.303 1.303 0 0 0 .3-1.8 1.4 1.4 0 0 0-1.8-.2l-20.3 15.2a.598.598 0 0 1-.8.1.799.799 0 0 1-.3-.8l3.1-28.5a1 1 0 0 1 .4-.6c.1 0 .4-.2.7 0l45.9 23a9.306 9.306 0 0 0 7.3.4 8.996 8.996 0 0 0 5.3-5l40.6-92.3a1.197 1.197 0 0 0-.215-1.327 1.203 1.203 0 0 0-.385-.273Z" fill="url(#a)"/><path d="M204.475 128.188a5.105 5.105 0 0 0-2.8-3.4l-33.4-16.7a4.807 4.807 0 0 1-2.6-4.6 4.598 4.598 0 0 1 3.2-4.2l143.3-47.8a.7.7 0 0 1 .9.4.61.61 0 0 1 .111.497.596.596 0 0 1-.311.403l-82.9 64.9a1.296 1.296 0 0 0-.638 1.447 1.301 1.301 0 0 0 2.238.553l82.9-64.9a3.202 3.202 0 0 0 .8-4.1 3.202 3.202 0 0 0-3.9-1.5l-143.3 47.7a7.205 7.205 0 0 0-4.9 6.4 7.104 7.104 0 0 0 4 7l33.4 16.7a2.803 2.803 0 0 1 1.4 1.8l6.6 26.2a1.098 1.098 0 0 0 1.2.9h.3a1.205 1.205 0 0 0 .935-1.015c.021-.162.01-.328-.035-.485l-6.5-26.2Z" fill="url(#b)"/><path d="M189.775 173.888c-15.8 21.1-35 37.5-54 46.9a58.7 58.7 0 0 0 8.2-30.1 41.295 41.295 0 0 0-25.449-38.237 41.295 41.295 0 0 0-56.362 30.104 41.3 41.3 0 0 0 40.611 49.333 72.611 72.611 0 0 0 25.9-5.1c-17.6 22.4-50.6 36.4-82.1 42.7a1.197 1.197 0 0 0-.99.923 1.205 1.205 0 0 0-.01.477 1.204 1.204 0 0 0 1.2 1h.2c33.6-6.7 68.9-22.1 86.1-47 20.5-9 41.4-26.3 58.7-49.4a1.298 1.298 0 0 0-.3-1.8 1.195 1.195 0 0 0-1.342-.11 1.198 1.198 0 0 0-.358.31Zm-58.2 48.8c-9.9 4.4-19.7 6.8-28.8 6.8a38.798 38.798 0 0 1-7.707-76.847 38.797 38.797 0 0 1 46.406 38.047 56.097 56.097 0 0 1-9.899 32Z" fill="url(#c)"/><defs><linearGradient id="a" x1="182.771" y1="49" x2="182.771" y2="271.888" gradientUnits="userSpaceOnUse"><stop stop-color="#279BE8"/><stop offset="1" stop-color="#875AE0"/></linearGradient><linearGradient id="b" x1="182.771" y1="49" x2="182.771" y2="271.888" gradientUnits="userSpaceOnUse"><stop stop-color="#279BE8"/><stop offset="1" stop-color="#875AE0"/></linearGradient><linearGradient id="c" x1="182.771" y1="49" x2="182.771" y2="271.888" gradientUnits="userSpaceOnUse"><stop stop-color="#279BE8"/><stop offset="1" stop-color="#875AE0"/></linearGradient></defs></svg>