<svg width="193" height="192" viewBox="0 0 193 192" fill="none" xmlns="http://www.w3.org/2000/svg">
<path d="M61.2002 51.2002C57.9002 47.9002 52.5002 47.9002 49.2002 51.2002C45.9002 54.5002 45.9002 59.9002 49.2002 63.2002L61.2002 75.2002M118.2 11.2002C111.2 9.3002 103.8 8.2002 96.2002 8.2002C49.8002 8.2002 12.2002 45.8002 12.2002 92.2002C12.2002 134.5 43.5002 169.4 84.2002 175.2M157.2 150.2C171.5 135.1 180.2 114.6 180.2 92.2002C180.2 77.2002 176.1 63.4002 169.2 51.2002M61.2002 77.2002V48.2002C61.2002 41.6002 66.6002 36.2002 73.2002 36.2002H97.2002M152.2 184.2C152.2 151.2 146.2 129.2 128.2 111.2L101.7 84.7002C100.9 83.9002 99.7002 83.9002 98.9002 84.7002C93.0002 90.5002 93.0002 100 98.8002 105.8L114.6 121.6C115.5 122.5 115.7 124 115.1 125.1C113 129 108.9 138.7 110.7 150.3C111.2 153.4 108.9 156.2 105.8 156.2H73.2002C66.6002 156.2 61.2002 150.8 61.2002 144.2V139.2M77.2002 156.2L89.9002 168.9C91.4002 170.4 92.2002 172.4 92.2002 174.6V184.3M128.2 79.2002V102.2M70.2002 137.2C73.5002 133.9 73.5002 128.5 70.2002 125.2L66.2002 121.2C62.9002 117.9 57.5002 117.9 54.2002 121.2C50.9002 124.5 50.9002 129.9 54.2002 133.2L58.2002 137.2C61.6002 140.6 66.9002 140.6 70.2002 137.2ZM70.2002 116.8C73.5002 113.5 73.5002 108.1 70.2002 104.8L66.2002 100.8C62.9002 97.5002 57.5002 97.5002 54.2002 100.8C50.9002 104.1 50.9002 109.5 54.2002 112.8L58.2002 116.8C61.6002 120.1 66.9002 120.1 70.2002 116.8ZM70.2002 95.8002C73.5002 92.5002 73.5002 87.1002 70.2002 83.8002L66.2002 79.8002C62.9002 76.5002 57.5002 76.5002 54.2002 79.8002C50.9002 83.1002 50.9002 88.5002 54.2002 91.8002L58.2002 95.8002C61.6002 99.1002 66.9002 99.1002 70.2002 95.8002ZM148.2 62.2002C148.2 59.4002 146.9 58.2002 145.2 58.2002C143.3 58.2002 141.8 59.8002 142.3 63.5002C143.1 70.0002 148.7 74.7002 155.2 75.2002C157.1 75.3002 158.5 75.1002 160 74.6002C161.5 74.0002 161.7 72.0002 160.3 71.1002C158.4 69.8002 157.2 67.7002 157.2 65.3002C157.2 61.1002 161.4 57.6002 162.8 49.6002C165.8 32.2002 153.5 15.9002 135.9 14.4002C116.4 12.7002 100.4 29.6002 103.7 49.3002C105.8 62.0002 117.3 73.3002 132.3 73.3002C142.2 73.2002 148.2 67.2002 148.2 62.2002Z" stroke="black" stroke-width="2.5" stroke-miterlimit="10" stroke-linecap="round" stroke-linejoin="round"/>
<path d="M125.2 46.2002C126.305 46.2002 127.2 45.3048 127.2 44.2002C127.2 43.0956 126.305 42.2002 125.2 42.2002C124.096 42.2002 123.2 43.0956 123.2 44.2002C123.2 45.3048 124.096 46.2002 125.2 46.2002Z" fill="black"/>
<path d="M133.2 46.2002C134.305 46.2002 135.2 45.3048 135.2 44.2002C135.2 43.0956 134.305 42.2002 133.2 42.2002C132.096 42.2002 131.2 43.0956 131.2 44.2002C131.2 45.3048 132.096 46.2002 133.2 46.2002Z" fill="black"/>
<path d="M141.2 46.2002C142.305 46.2002 143.2 45.3048 143.2 44.2002C143.2 43.0956 142.305 42.2002 141.2 42.2002C140.096 42.2002 139.2 43.0956 139.2 44.2002C139.2 45.3048 140.096 46.2002 141.2 46.2002Z" fill="black"/>
</svg>
