<svg width="320" height="320" viewBox="0 0 320 320" fill="none" xmlns="http://www.w3.org/2000/svg">
<path d="M167.489 124L191.815 148.325L167.489 172.642M189.652 148.36H119.824C117.542 148.36 115.353 149.265 113.736 150.877C112.12 152.488 111.208 154.675 111.201 156.957L110.931 242.827C110.923 244.545 110.577 246.244 109.912 247.828C109.248 249.411 108.278 250.848 107.058 252.057C105.837 253.266 104.391 254.223 102.802 254.872C101.212 255.522 99.5095 255.853 97.7921 255.844L47.8165 255.6C44.3495 255.582 41.0317 254.188 38.5924 251.724C36.1532 249.26 34.792 245.928 34.8082 242.461L35.3924 122.518C35.4004 120.801 35.7466 119.102 36.4112 117.518C37.0759 115.934 38.0459 114.497 39.266 113.288C40.4861 112.08 41.9323 111.123 43.5221 110.473C45.1118 109.823 46.814 109.493 48.5315 109.501H82.0461M111.341 217.421H271.434C275.083 217.419 278.583 215.967 281.163 213.386C283.742 210.804 285.192 207.304 285.192 203.654V77.9221C285.18 74.2744 283.726 70.7795 281.147 68.2002C278.567 65.6209 275.073 64.1668 271.425 64.1553H92.5086C88.8564 64.1599 85.3547 65.6109 82.7698 68.191C80.1848 70.771 78.7271 74.2699 78.7156 77.9221V109.501H98.4983C101.992 109.572 105.317 111.017 107.753 113.521C110.19 116.026 111.541 119.39 111.515 122.884L111.411 131.437M72.4209 229.496C72.4209 236.353 66.8623 241.912 60.0055 241.912C53.1486 241.912 47.5901 236.353 47.5901 229.496C47.5901 222.639 53.1486 217.081 60.0055 217.081C66.8623 217.081 72.4209 222.639 72.4209 229.496Z" stroke="black" stroke-width="2.5" stroke-linecap="round" stroke-linejoin="round"/>
</svg>
