<svg width="321" height="320" viewBox="0 0 321 320" fill="none" xmlns="http://www.w3.org/2000/svg">
<path d="M66.1999 94.3V72.8C66.1999 61.9 73.4999 52.5 83.8999 49.6C100.8 45 128.6 39.2 162.2 39.2C195.8 39.2 223.7 45 240.5 49.6C251 52.5 258.2 62 258.2 72.8L258.2 188.9C258.2 210.3 247.5 230.3 229.7 242.2L164.4 285.7C163.1 286.6 161.3 286.6 160 285.7L94.6997 242.2C75.1997 229.2 64.2997 206.8 66.4997 183.1C67.0997 177.1 72.4997 172.2 78.4997 172.2H80.1997C82.3997 172.2 84.1997 170.4 84.1997 168.2V142.2C84.1997 139.8 82.1997 138 79.7997 138.2C77.6997 138.4 76.0997 140.5 76.1997 142.6C76.6997 150.8 89.6997 165.4 105.5 165.2C113.7 165.1 120.2 158.4 120.2 150.2V130.2C120.2 123 114.4 117.2 107.2 117.2H103.3C96.0997 117.2 90.2997 123 90.2997 130.2M162.2 199.2C141.2 199.2 135.2 172.2 111.2 172.2M110.2 134.2C110.2 134.2 112.4 141 113.2 143.2C114.2 146.2 112.2 147.2 110.2 147.2H108.2M69.1997 144.5C63.5997 138.7 60.1997 130.9 60.1997 122.3C60.1997 104.6 74.4997 90.3 92.1997 90.3C109.9 90.3 124.2 104.6 124.2 122.3M89.7997 207.2H202.2M177.3 116.1C177.3 113.3 178.6 111.4 180.2 111.3C182 111.2 183.7 113.3 183.2 117C182.4 123.5 176.7 127.8 170.2 128.3C168.3 128.4 166.9 128.2 165.4 127.7C163.9 127.1 163.7 125.1 165.1 124.2C167 122.9 168.2 120.8 168.2 118.4C168.2 114.2 164 110.7 162.6 102.7C159.6 85.3 171.9 69 189.5 67.5C209 65.8 225 82.7 221.7 102.4C219.6 115.1 208.1 126.4 193.1 126.4C183.3 126.2 177.3 121.1 177.3 116.1ZM218.2 156.2H170.2C165.8 156.2 162.2 159.8 162.2 164.2V207.2H218.2C222.6 207.2 226.2 203.6 226.2 199.2V164.2C226.2 159.8 222.7 156.2 218.2 156.2Z" stroke="black" stroke-width="2.5" stroke-miterlimit="10" stroke-linecap="round" stroke-linejoin="round"/>
<path d="M200.3 99.2C201.404 99.2 202.3 98.3046 202.3 97.2C202.3 96.0954 201.404 95.2 200.3 95.2C199.195 95.2 198.3 96.0954 198.3 97.2C198.3 98.3046 199.195 99.2 200.3 99.2Z" fill="black"/>
<path d="M192.3 99.2C193.404 99.2 194.3 98.3046 194.3 97.2C194.3 96.0954 193.404 95.2 192.3 95.2C191.195 95.2 190.3 96.0954 190.3 97.2C190.3 98.3046 191.195 99.2 192.3 99.2Z" fill="black"/>
<path d="M184.3 99.2C185.404 99.2 186.3 98.3046 186.3 97.2C186.3 96.0954 185.404 95.2 184.3 95.2C183.195 95.2 182.3 96.0954 182.3 97.2C182.3 98.3046 183.195 99.2 184.3 99.2Z" fill="black"/>
<path d="M100.2 138.2C101.304 138.2 102.2 137.305 102.2 136.2C102.2 135.095 101.304 134.2 100.2 134.2C99.0951 134.2 98.1997 135.095 98.1997 136.2C98.1997 137.305 99.0951 138.2 100.2 138.2Z" fill="black"/>
</svg>
