<svg width="121" height="120" viewBox="0 0 121 120" fill="none" xmlns="http://www.w3.org/2000/svg">
<path d="M72.1994 52.2C72.1994 52.2 74.3994 59 75.1994 61.2C76.1994 64.2 74.1994 65.2 72.1994 65.2H68.1994C64.8994 65.2 62.1994 67.9 62.1994 71.2C62.1994 72.3 61.2994 73.2 60.1994 73.2C56.8994 73.2 54.1994 70.5 54.1994 67.2V57.2C54.1994 52.8 50.5994 49.2 46.1994 49.2H44.1994C43.0994 49.2 42.1994 48.3 42.1994 47.2C42.1994 36 51.5994 26.9 62.9994 27.3C73.7994 27.7 82.2994 36.9 82.2994 47.8V70.3C82.2994 78.5 75.7994 85.2 67.5994 85.3C51.6994 85.4 38.6994 70.8 38.2994 62.7C38.1994 60.6 39.7994 58.5 41.8994 58.3C44.2994 58.1 46.2994 59.9 46.2994 62.3V93.3" stroke="black" stroke-width="2.5" stroke-miterlimit="10" stroke-linecap="round" stroke-linejoin="round"/>
<path d="M62.1992 56.2C63.3038 56.2 64.1992 55.3046 64.1992 54.2C64.1992 53.0954 63.3038 52.2 62.1992 52.2C61.0946 52.2 60.1992 53.0954 60.1992 54.2C60.1992 55.3046 61.0946 56.2 62.1992 56.2Z" fill="black"/>
</svg>
