<svg width="121" height="120" viewBox="0 0 121 120" fill="none" xmlns="http://www.w3.org/2000/svg">
<path d="M78.0992 62.2001C78.0992 62.2001 80.2992 69.0001 81.0992 71.2001C82.0992 74.2001 80.0992 75.2001 78.0992 75.2001H76.0992M37.1992 72.5C31.5992 66.7 28.1992 58.9 28.1992 50.3C28.1992 32.6 42.4992 18.3 60.1992 18.3C77.8992 18.3 92.1992 32.6 92.1992 50.3M58.1992 58.2001C58.1992 51.0001 63.9992 45.2001 71.1992 45.2001H75.0992C82.2992 45.2001 88.0992 51.0001 88.0992 58.2001V78.2001C88.0992 86.4001 81.5992 93.1 73.3992 93.2C57.5992 93.4 44.5992 78.8 44.0992 70.6C43.9992 68.5 45.5992 66.4001 47.6992 66.2001C50.0992 66.0001 52.0992 67.8001 52.0992 70.2001V101.2" stroke="black" stroke-width="2.5" stroke-miterlimit="10" stroke-linecap="round" stroke-linejoin="round"/>
<path d="M68.1016 66.2C69.2061 66.2 70.1016 65.3045 70.1016 64.2C70.1016 63.0954 69.2061 62.2 68.1016 62.2C66.997 62.2 66.1016 63.0954 66.1016 64.2C66.1016 65.3045 66.997 66.2 68.1016 66.2Z" fill="black"/>
</svg>
