<svg width="122" height="122" viewBox="0 0 122 122" fill="none" xmlns="http://www.w3.org/2000/svg">
<path d="M59.2008 85.2V60.2C59.2008 58.4 57.6008 56.9 55.7008 57.2C54.3008 57.4 53.2008 58.7999 53.2008 60.2999C53.3008 68.1999 60.1008 77.1 70.9008 77.2C76.5008 77.3 81.2008 72.7 81.2008 67.1V63.2M73.2008 59.2H77.2008M60.2008 51.2H79.2008C80.3008 51.2 81.2008 50.3 81.2008 49.2C81.2008 42.6 75.8008 37.2 69.2008 37.2H64.2008M53.3008 41.6C51.8008 40.7 50.1008 40.2 48.3008 40.2C42.8008 40.2 38.3008 44.7 38.3008 50.2C38.3008 55.7 42.8008 60.2 48.3008 60.2C48.8008 60.2 49.2008 59.9 49.2008 59.4C49.1008 58.4 48.3008 55.9 48.3008 53.2C48.3008 44.4 55.5008 37.2 64.3008 37.2M71.9008 62.2999C72.7008 61.5999 73.3008 60.4999 73.3008 59.2999C73.3008 57.0999 71.5008 55.2999 69.3008 55.2999C67.1008 55.2999 65.3008 57.0999 65.3008 59.2999C65.3008 61.4999 67.1008 63.2999 69.3008 63.2999C70.3008 63.1999 71.2008 62.8999 71.9008 62.2999ZM78.2008 61.9C78.9008 62.7 80.0008 63.2999 81.2008 63.2999C83.4008 63.2999 85.2008 61.4999 85.2008 59.2999C85.2008 57.0999 83.4008 55.2999 81.2008 55.2999C79.0008 55.2999 77.2008 57.0999 77.2008 59.2999C77.2008 60.2999 77.6008 61.2 78.2008 61.9Z" stroke="black" stroke-width="2.5" stroke-miterlimit="10" stroke-linecap="round" stroke-linejoin="round"/>
</svg>
