<svg width="192" height="192" viewBox="0 0 192 192" fill="none" xmlns="http://www.w3.org/2000/svg">
<path d="M92.8662 72.2002C92.8662 47.9002 73.1662 28.2002 48.8662 28.2002C24.5662 28.2002 4.86621 47.9002 4.86621 72.2002C4.86621 87.2002 12.3662 100.3 23.8662 108.2M28.8662 148.2C35.4662 148.2 40.8662 142.8 40.8662 136.2V102.2C40.8662 98.9002 38.1662 96.2002 34.8662 96.2002C31.5662 96.2002 28.8662 98.9002 28.8662 102.2C28.8662 116.2 50.9662 132.2 66.8662 132.2C79.0662 132.2 88.8662 122.4 88.8662 110.2V82.2002C88.8662 73.4002 81.6662 66.2002 72.8662 66.2002H64.8662C56.0662 66.2002 48.8662 73.4002 48.8662 82.2002M76.8662 91.2002C76.8662 91.2002 79.8662 100.2 80.8662 103.2C81.8662 106.2 79.8662 108.2 76.8662 108.2H74.8662M186.966 110.3H180.966C174.366 110.3 168.966 104.9 168.966 98.3002V64.3002C168.966 61.0002 171.666 58.3002 174.966 58.3002C178.266 58.3002 180.966 61.0002 180.966 64.3002C180.966 78.3002 158.866 94.3002 142.966 94.3002C130.766 94.3002 120.966 84.5002 120.966 72.3002V44.3002M132.966 53.3002C132.966 53.3002 129.966 62.3002 128.966 65.3002C127.966 68.3002 129.966 70.3002 132.966 70.3002H134.966M120.866 44.2002C120.866 35.4002 128.066 28.2002 136.866 28.2002C154.866 28.2002 151.866 52.2002 174.866 52.2002M142.866 20.2002C160.866 20.2002 157.866 44.2002 180.866 44.2002M148.866 12.2002C166.866 12.2002 163.866 36.2002 186.866 36.2002M112.866 176.3C112.866 161.3 104.866 156.3 92.8662 152.3L80.8662 148.3C74.8662 146.3 68.8662 144.3 68.8662 139.3M140.866 101.2C140.866 106.2 134.866 108.2 128.866 110.2L116.866 114.2C104.866 118.2 96.8662 123.2 96.8662 138.2V176.2C96.8662 180.6 100.466 184.2 104.866 184.2C109.266 184.2 112.866 180.6 112.866 176.2" stroke="url(#paint0_linear)" stroke-width="2.5" stroke-miterlimit="10" stroke-linecap="round" stroke-linejoin="round"/>
<path d="M64.8662 96.1998C65.9708 96.1998 66.8662 95.3044 66.8662 94.1998C66.8662 93.0953 65.9708 92.1998 64.8662 92.1998C63.7616 92.1998 62.8662 93.0953 62.8662 94.1998C62.8662 95.3044 63.7616 96.1998 64.8662 96.1998Z" fill="#79BA73"/>
<path d="M144.966 58.2998C146.071 58.2998 146.966 57.4044 146.966 56.2998C146.966 55.1952 146.071 54.2998 144.966 54.2998C143.862 54.2998 142.966 55.1952 142.966 56.2998C142.966 57.4044 143.862 58.2998 144.966 58.2998Z" fill="#79BA73"/>
<defs>
<linearGradient id="paint0_linear" x1="95.9162" y1="12.2002" x2="95.9162" y2="184.2" gradientUnits="userSpaceOnUse">
<stop stop-color="#93C437"/>
<stop offset="1" stop-color="#279BE8"/>
</linearGradient>
</defs>
</svg>
