<svg width="321" height="320" viewBox="0 0 321 320" fill="none" xmlns="http://www.w3.org/2000/svg">
<path d="M135.3 238.2L130 246.2C128.5 248.5 125.5 249.3 123.1 248C120.9 246.9 119.7 244.5 120.2 242.1L121 238.2M135 206.2H187.1C189.3 206.2 191.1 208 191.1 210.2V212.5C191.1 213.6 190.7 214.6 189.9 215.3L188.5 216.7C187.7 217.5 187.7 218.7 188.5 219.5L192.5 223.5C194.2 225.2 195.3 227.3 195.8 229.6L198.3 242C198.8 244.4 197.6 246.8 195.4 247.9C192.9 249.1 190 248.3 188.5 246.1L179.5 232.7C178 230.5 175.5 229.1 172.8 229.1H169.1C168 229.1 167.1 230 167.1 231.1V236.1C167.1 237.2 166.2 238.1 165.1 238.1H112.3C98.9002 238.1 90.2002 224 96.2002 212.1L111.2 182.1M145.1 113.3C147.7 118.6 152.8 122.3 159.1 122.3C167.3 122.3 174.1 116.1 175 108.1C175.1 107.1 176 106.3 177 106.3H188C194.8 106.3 201.1 110.2 204.1 116.3L217.3 142.7C220.8 149.6 219.4 158 213.9 163.5L194.4 183C193.1 184.3 191 183.4 191 181.6V166.4C191 162 187.4 158.4 183 158.4H135C130.6 158.4 127 162 127 166.4V198.4C127 202.8 130.6 206.4 135 206.4M207.2 182.2L222.2 212.2C228.2 224.2 219.5 238.2 206.1 238.2H204.1M170.1 71.2C170.1 71.2 172.3 78 173.1 80.2C174.1 83.2 172.1 84.2 170.1 84.2H168.1M141.1 67.2C147.1 67.2 151.1 63.2 155.1 59.2C159.1 55.2 163.1 51.2 170.1 51.2C177.3 51.2 183.1 57 183.1 64.2V84.2C183.1 92.5 176.4 99.2 168.1 99.2C152.1 99.2 139.1 84.2 139.1 76.2C139.1 74 140.9 72.2 143.1 72.2C145.3 72.2 147.1 74 147.1 76.2V98.2C147.1 102.6 143.5 106.2 139.1 106.2H130.3C123.5 106.2 117.2 110.1 114.2 116.2L101 142.6C97.5002 149.5 98.9002 157.9 104.4 163.4L119.7 178.7M187.1 56.2C187.1 47.4 179.9 40.2 171.1 40.2C166.1 40.2 161.1 40.2 161.1 40.2C145.6 40.2 133.1 52.7 133.1 68.2C127.6 68.2 123.1 72.7 123.1 78.2V86.2C123.1 94.2 123.1 98.2 115.1 102.2M32.2002 280.2H288.2" stroke="black" stroke-width="2.5" stroke-miterlimit="10" stroke-linecap="round" stroke-linejoin="round"/>
<path d="M161.1 76.2C162.204 76.2 163.1 75.3045 163.1 74.2C163.1 73.0954 162.204 72.2 161.1 72.2C159.995 72.2 159.1 73.0954 159.1 74.2C159.1 75.3045 159.995 76.2 161.1 76.2Z" fill="black"/>
</svg>
