<svg width="121" height="120" viewBox="0 0 121 120" fill="none" xmlns="http://www.w3.org/2000/svg">
<path d="M64.1995 53.2C64.1995 53.2 66.3995 60 67.1995 62.2C68.1995 65.2 66.1995 66.2 64.1995 66.2H62.1995M38.1995 92.2V61.2C38.1995 58.8 36.1995 57 33.6995 57.2C31.4995 57.4 29.9995 59.5 30.1995 61.7C30.7995 70 43.7995 84.4 59.4995 84.2C67.6995 84.1 74.1995 77.4 74.1995 69.2V47.2C74.1995 36.2 65.1995 27.2 54.1995 27.2C43.8995 27.2 35.3995 35.1 34.2995 45.1C34.1995 46.3 35.0995 47.3 36.2995 47.3H90.1995" stroke="black" stroke-width="2.5" stroke-miterlimit="10" stroke-linecap="round" stroke-linejoin="round"/>
<path d="M54.1992 57.2C55.3038 57.2 56.1992 56.3046 56.1992 55.2C56.1992 54.0954 55.3038 53.2 54.1992 53.2C53.0946 53.2 52.1992 54.0954 52.1992 55.2C52.1992 56.3046 53.0946 57.2 54.1992 57.2Z" fill="black"/>
</svg>
