<svg width="320" height="320" viewBox="0 0 320 320" fill="none" xmlns="http://www.w3.org/2000/svg"><path d="M87.834 116.815a1.25 1.25 0 1 0-2.379.77l2.379-.77Zm1.81 9.385 1.186-.395a.74.74 0 0 0-.01-.032l-1.175.427Zm-5 2.75a1.25 1.25 0 0 0 0 2.5v-2.5Zm-30-14a1.25 1.25 0 0 0 0 2.5v-2.5Zm44.75-9.75a1.25 1.25 0 0 0 2.501 0h-2.5Zm-61.633 48.884a1.25 1.25 0 0 0 1.767-1.768l-1.767 1.768Zm129.884 8.366a1.25 1.25 0 0 0 0-2.5v2.5Zm-6-7.45-1.25-.038v.001l1.25.037Zm12.4-7.3-.884-.884-.046.048.93.836Zm2.6-8.4-1.119.559.01.019 1.109-.578Zm-1.6-3.2 1.118-.559-.018-.034-1.1.593Zm11.6-1.65a1.25 1.25 0 0 0 0-2.5v2.5Zm97.812-10.86a1.25 1.25 0 1 0 2.375-.78l-2.375.78Zm-2.225-14.78a1.25 1.25 0 0 0-2.375.78l2.375-.78Zm-24.869-2.051a1.25 1.25 0 0 0-2.236-1.118l2.236 1.118Zm-5.718 8.641-1.118-.559 1.118.559Zm.9 2.7.559-1.118-.559 1.118Zm8.4 4.2-.559 1.118.559-1.118Zm.9 2.7-1.118-.559 1.118.559Zm-4.2 8.4 1.118.559-1.118-.559Zm.9 2.7.559-1.118-.559 1.118Zm8.641 5.718a1.25 1.25 0 0 0 1.118-2.236l-1.118 2.236ZM81.945 148.2l-.016-1.25.016 1.25Zm-29.3-22.6-1.25.059.002.017 1.248-.076Zm3.6-4.4-.104-1.246-.015.002.119 1.244Zm-6.6 37 .395 1.186-.395-1.186Zm-17.1 5.7-.396-1.186-.006.002.401 1.184Zm-4.6 17.6-.396-1.186-.013.005.409 1.181Zm118.095-38.014a1.25 1.25 0 0 0-.79-2.372l.79 2.372Zm50.209-19.472a1.25 1.25 0 0 0 .791 2.372l-.791-2.372Zm59.496-18.514.395 1.186-.395-1.186Zm1.8-.2-.206 1.233.029.004.177-1.237Zm37.1 5.3-.177 1.237.022.003.155-1.24Zm1.1 3.4-.884-.884.884.884Zm-26.5 26.5.883.884-.883-.884Zm-1.6 1 .382 1.19.013-.004-.395-1.186Zm-28.3 9.1.303 1.213a2.35 2.35 0 0 0 .079-.023l-.382-1.19Zm-1.3-1.2-1.196-.365-.006.022 1.202.343Zm2.2-7.2 1.195.365.002-.006-1.197-.359Zm-5.6-2.2-1.119-.559 1.119.559Zm-4.9 9.8-1.119-.559a.332.332 0 0 1-.013.027l1.132.532Zm-11.5 57.3.895-.872-.012-.012-.883.884Zm-14.7-54.8-1.186.395 1.186-.395Zm-3-9 1.185-.395-.001-.003-1.184.398Zm-46.7 36.3-.373-1.193-.022.007.395 1.186Zm-64.4 21.4-.395-1.186-.016.005.41 1.181Zm-7-.9-.684 1.047.026.016.657-1.063Zm-4.9-3.2-.781.976a1.3 1.3 0 0 0 .097.071l.683-1.047Zm-.9-1.6h1.25v-.021l-1.25.021Zm-2-9-1.118.559.011.023 1.106-.582Zm-7.2-9.6-.19-1.236-.04.007.23 1.229Zm-2.3 3.4 1.231-.214c0-.006-.002-.011-.003-.016l-1.229.23Zm1.2 6.9 1.242-.138a1.139 1.139 0 0 0-.011-.076l-1.231.214Zm-1.5 1 .726-1.017a4.37 4.37 0 0 0-.039-.027L64.844 188Zm-8.5-5.6.687-1.044-.003-.002-.685 1.046Zm-8 1.3.981.774.014-.018-.996-.756Zm2.6 16.4.692-1.041-.008-.005-.684 1.046Zm33.2 22.1.693-1.04v-.001l-.694 1.041Zm29.85-21.9a1.25 1.25 0 0 0-2.5 0h2.5Zm143.817-55.547a1.25 1.25 0 0 0-2.335.894l2.335-.894Zm-5.367 13.047-.676-1.052-.007.004.683 1.048Zm-4.3 2.8.679 1.049.003-.002-.682-1.047Zm-6.75 12.6a1.25 1.25 0 1 0 2.5 0h-2.5Zm-154.75-56-1.19.385v.001l.002.004a.54.54 0 0 1 .005.015l.018.057.072.22.26.802c.22.673.52 1.593.845 2.582.648 1.969 1.405 4.239 1.813 5.361l2.35-.854c-.393-1.078-1.136-3.309-1.788-5.289-.325-.986-.624-1.903-.843-2.574l-.26-.799-.07-.219-.019-.057a.54.54 0 0 0-.005-.015v-.004l-.001-.001-1.19.385Zm1.814 9.395c.404 1.212.112 1.661-.073 1.846-.287.287-.89.509-1.742.509v2.5c1.148 0 2.546-.278 3.51-1.241 1.065-1.065 1.272-2.616.676-4.404l-2.371.79Zm-1.815 2.355h-2v2.5h2v-2.5Zm-3-30c-7.574 0-11.91 4.393-15.883 8.366l1.767 1.768c4.027-4.027 7.691-7.634 14.116-7.634v-2.5Zm-15.883 8.366c-4.072 4.072-7.715 7.634-13.116 7.634v2.5c6.598 0 10.955-4.438 14.883-8.366l-1.767-1.768Zm34.134-2.116c0-9.49-7.76-17.25-17.25-17.25v2.5c8.11 0 14.75 6.64 14.75 14.75h2.5Zm-17.25-17.25H74.645v2.5H84.644v-2.5Zm-10 0c-16.19 0-29.25 13.06-29.25 29.25h2.5c0-14.81 11.94-26.75 26.75-26.75v-2.5Zm-29.25 29.25v5h2.5v-5h-2.5Zm0 5c0 5.329-3.35 6.832-5.634 9.116l1.767 1.768c1.716-1.716 6.367-4.213 6.367-10.884h-2.5Zm-5.634 9.116c-1.868 1.867-6.367 5.258-6.367 11.884h2.5c0-5.374 3.502-7.983 5.634-10.116l-1.767-1.768ZM33.394 143.2c0 3.28 1.093 5.994 2.165 7.87a17.147 17.147 0 0 0 1.484 2.192 12.793 12.793 0 0 0 .651.754l.045.046.014.014.004.004.002.002.001.001.885-.883c.883-.884.884-.884.884-.883l.001.001-.003-.003a.879.879 0 0 1-.022-.024c-.022-.023-.058-.06-.105-.113a10.101 10.101 0 0 1-.404-.478 14.656 14.656 0 0 1-1.266-1.87c-.928-1.624-1.835-3.91-1.835-6.63h-2.5Zm134.251 16.75a4.75 4.75 0 0 1-4.751-4.913l-2.499-.074c-.12 4.099 3.139 7.487 7.25 7.487v-2.5Zm-4.751-4.912c.077-2.555 2.353-4.588 4.951-4.588v-2.5c-3.803 0-7.327 2.966-7.45 7.012l2.499.076Zm4.951-4.588h2.7v-2.5h-2.7v2.5Zm2.7 0c1.609 0 3.263-.619 4.429-1.914l-1.859-1.672c-.634.704-1.579 1.086-2.57 1.086v2.5Zm4.383-1.866 1.5-1.5-1.767-1.768-1.5 1.5 1.767 1.768Zm1.5-1.5c2.17-2.17 2.788-5.558 1.325-8.362l-2.217 1.156c.937 1.796.555 4.008-.875 5.438l1.767 1.768Zm1.335-8.343-1.6-3.2-2.237 1.118 1.6 3.2 2.237-1.118Zm-1.618-3.234c-.224-.415.086-1.057.7-1.057v-2.5c-2.387 0-4.077 2.558-2.901 4.743l2.201-1.186Zm.7-1.057h9.8v-2.5h-9.8v2.5Zm109.987-11.64-4.6-14-2.375.78 4.6 14 2.375-.78Zm-31.705-17.169-4.6 9.2 2.236 1.118 4.6-9.2-2.236-1.118Zm-4.6 9.2a3.254 3.254 0 0 0 1.459 4.377l1.118-2.236a.753.753 0 0 1-.341-1.023l-2.236-1.118Zm1.459 4.377 8.4 4.2 1.118-2.236-8.4-4.2-1.118 2.236Zm8.4 4.2c.382.191.532.64.341 1.023l2.236 1.118a3.255 3.255 0 0 0-1.459-4.377l-1.118 2.236Zm.341 1.023-4.2 8.4 2.236 1.118 4.2-8.4-2.236-1.118Zm-4.2 8.4a3.254 3.254 0 0 0 1.459 4.377l1.118-2.236a.753.753 0 0 1-.341-1.023l-2.236-1.118Zm1.459 4.377 9.2 4.6 1.118-2.236-9.2-4.6-1.118 2.236ZM83.645 101.45c6.51 0 11.75 5.24 11.75 11.75h2.5c0-7.89-6.36-14.25-14.25-14.25v2.5Zm11.75 11.75v20h2.5v-20h-2.5Zm0 20c0 7.529-5.963 13.659-13.466 13.75l.03 2.5c8.898-.109 15.935-7.379 15.935-16.25h-2.5Zm-13.466 13.75c-7.51.095-14.422-3.332-19.547-7.839-2.556-2.248-4.638-4.74-6.103-7.143-1.476-2.421-2.279-4.671-2.387-6.444l-2.495.152c.142 2.327 1.152 4.977 2.748 7.593 1.606 2.635 3.855 5.318 6.586 7.72 5.452 4.793 12.94 8.566 21.23 8.461l-.032-2.5Zm-28.036-21.41c-.072-1.525 1.123-2.967 2.47-3.096l-.237-2.488c-2.853.271-4.857 3.029-4.73 5.703l2.497-.119Zm2.455-3.094c1.69-.141 3.047 1.104 3.047 2.754h2.5c0-3.15-2.644-5.505-5.754-5.246l.207 2.492Zm3.047 2.754v22h2.5v-22h-2.5Zm0 22c0 2.592-1.057 4.513-2.824 6.059-1.812 1.586-4.375 2.773-7.322 3.755l.79 2.372c3.054-1.018 5.992-2.332 8.179-4.245 2.233-1.954 3.676-4.533 3.676-7.941h-2.5Zm-10.146 9.814-17.1 5.7.79 2.372 17.1-5.7-.79-2.372Zm-17.106 5.702A15.79 15.79 0 0 0 21.395 177.7h2.5c0-5.76 3.654-10.787 9.05-12.616l-.802-2.368ZM21.395 177.7c0 3.535 3.523 6.17 6.958 4.981l-.817-2.362c-1.765.611-3.642-.754-3.642-2.619h-2.5Zm6.945 4.986 117.7-39.2-.79-2.372-117.7 39.2.79 2.372Zm168.7-56.3 59.1-19.7-.791-2.372-59.1 19.7.791 2.372Zm59.1-19.7c.488-.163.871-.208 1.199-.153l.411-2.466c-.872-.145-1.689.01-2.401.247l.791 2.372Zm1.228-.149 37.1 5.3.353-2.474-37.1-5.3-.353 2.474Zm37.122 5.303c.534.067.859.788.371 1.276l1.767 1.768c1.912-1.912.837-5.191-1.828-5.524l-.31 2.48Zm.371 1.276-26.5 26.5 1.767 1.768 26.5-26.5-1.767-1.768Zm-26.5 26.5a3.13 3.13 0 0 1-1.112.698l.791 2.372a5.585 5.585 0 0 0 2.088-1.302l-1.767-1.768Zm-1.099.694-28.3 9.1.765 2.38 28.3-9.1-.765-2.38Zm-28.221 9.077a.163.163 0 0 1 .139.044.243.243 0 0 1 .064.109c.019.06.022.133.002.203l-2.403-.686c-.503 1.758 1.21 3.154 2.805 2.756l-.607-2.426Zm.199.378 2.2-7.2-2.391-.73-2.2 7.2 2.391.73Zm2.202-7.206c.848-2.827-1.286-5.509-4.097-5.509v2.5a1.766 1.766 0 0 1 1.702 2.291l2.395.718Zm-4.097-5.509c-1.716 0-3.126 1.006-3.819 2.391l2.237 1.118c.307-.616.897-1.009 1.582-1.009v-2.5Zm-3.819 2.391-4.9 9.8 2.237 1.118 4.9-9.8-2.237-1.118Zm-4.913 9.827c-.859 1.825-1.418 3.808-1.418 5.932h2.5c0-1.676.44-3.293 1.181-4.868l-2.263-1.064Zm-1.418 5.932v47.7h2.5v-47.7h-2.5Zm0 47.7c0 4.204-5.155 6.306-8.055 3.328l-1.791 1.744c4.5 4.622 12.346 1.324 12.346-5.072h-2.5Zm-8.067 3.316-12.5-12.5-1.767 1.768 12.5 12.5 1.767-1.768Zm-12.5-12.5c-3.632-3.632-8.549-5.666-13.583-5.666v2.5c4.365 0 8.648 1.766 11.816 4.934l1.767-1.768Zm-13.583-5.666h-11v2.5h11v-2.5Zm-11 0c-2.31 0-4.25-1.94-4.25-4.25h-2.5c0 3.69 3.059 6.75 6.75 6.75v-2.5Zm-4.25-4.25c0-2.31 1.94-4.25 4.25-4.25v-2.5c-3.691 0-6.75 3.06-6.75 6.75h2.5Zm4.25-4.25h5.6v-2.5h-5.6v2.5Zm5.6 0c5.743 0 10.15-4.814 10.15-10.45h-2.5c0 4.364-3.394 7.95-7.65 7.95v2.5Zm10.15-10.45v-7.8h-2.5v7.8h2.5Zm0-7.8c0-.41.34-.75.75-.75v-2.5a3.256 3.256 0 0 0-3.25 3.25h2.5Zm.75-.75h2v-2.5h-2v2.5Zm2 0c1.133 0 2.892-.273 4-1.75 1.122-1.496 1.23-3.761.185-6.895l-2.371.79c.955 2.866.563 4.101.186 4.605-.393.523-1.134.75-2 .75v2.5Zm4.185-8.645-3-9-2.371.79 3 9 2.371-.79Zm-3.001-9.003c-2.107-6.272-5.231-11.013-9.474-14.179-4.249-3.17-9.504-4.673-15.71-4.673v2.5c5.793 0 10.488 1.397 14.215 4.177 3.731 2.784 6.607 7.043 8.6 12.971l2.369-.796Zm-25.184-18.852a25.192 25.192 0 0 0-25.25 25.25h2.5c0-12.61 10.14-22.75 22.75-22.75v-2.5Zm-25.25 25.25c0 5.204 1.053 8.36 2.055 11.618.982 3.19 1.945 6.556 1.945 12.382h2.5c0-6.175-1.037-9.808-2.056-13.118-.998-3.243-1.944-6.086-1.944-10.882h-2.5Zm4 24v2.5h2.5v-2.5h-2.5Zm0 2.5c0 1.197-.786 2.283-1.823 2.607l.745 2.386c2.163-.676 3.578-2.79 3.578-4.993h-2.5Zm-1.845 2.614-64.4 21.4.789 2.372 64.4-21.4-.789-2.372Zm-64.416 21.405c-1.902.662-4.112.345-5.931-.782l-1.316 2.126c2.38 1.473 5.37 1.956 8.068 1.018l-.821-2.362Zm-5.906-.766-4.9-3.2-1.367 2.094 4.9 3.2 1.367-2.094Zm-4.803-3.129c-.338-.271-.43-.548-.43-.624h-2.5c0 1.124.707 2.046 1.369 2.576l1.561-1.952Zm-.43-.645c-.051-3.097-.305-4.998-.712-6.402-.409-1.408-.977-2.293-1.432-3.159l-2.213 1.164c.545 1.034.927 1.599 1.243 2.691.318 1.096.564 2.745.614 5.747l2.5-.041Zm-2.132-9.538-4-8-2.237 1.118 4 8 2.237-1.118Zm-4-8c-.864-1.727-2.719-2.552-4.509-2.277l.38 2.471c.81-.124 1.556.251 1.892.924l2.237-1.118Zm-4.549-2.27c-2.295.431-3.722 2.598-3.298 4.859l2.457-.46c-.176-.939.397-1.772 1.302-1.941l-.46-2.458Zm-3.301 4.843 1.2 6.9 2.463-.428-1.2-6.9-2.463.428Zm1.19 6.824c0 .001-.002-.023.014-.058a.23.23 0 0 1 .084-.095.335.335 0 0 1 .187-.054c.086 0 .152.029.183.052l-1.453 2.034a2.15 2.15 0 0 0 2.47.048c.691-.461 1.1-1.291.999-2.203l-2.485.276Zm.43-.182-8.5-5.6-1.376 2.088 8.5 5.6 1.375-2.088Zm-8.504-5.602c-3.12-2.04-7.361-1.461-9.68 1.59l1.99 1.512c1.482-1.949 4.24-2.371 6.322-1.01l1.368-2.092Zm-9.666 1.572c-4.547 5.767-3.227 14.212 2.897 18.22l1.37-2.092c-4.877-3.192-5.957-9.947-2.304-14.58l-1.963-1.548Zm2.889 18.214 33.2 22.1 1.385-2.081-33.2-22.1-1.385 2.081Zm33.2 22.1a19.78 19.78 0 0 0 10.892 3.31v-2.5c-3.35 0-6.71-1.026-9.506-2.89l-1.387 2.08Zm10.892 3.31c10.895 0 19.651-8.864 19.651-19.65h-2.5c0 9.414-7.645 17.15-17.15 17.15v2.5Zm19.651-19.65V200.3h-2.5V206.9h2.5Zm141.482-61.253c1.582 4.131.009 8.712-3.708 11.101l1.351 2.103c4.683-3.01 6.71-8.829 4.692-14.098l-2.335.894Zm-3.715 11.105-4.3 2.8 1.365 2.095 4.3-2.8-1.365-2.095Zm-4.297 2.798a13.303 13.303 0 0 0-6.07 11.15h2.5a10.8 10.8 0 0 1 4.929-9.051l-1.359-2.099Zm-6.07 11.15v2.5h2.5v-2.5h-2.5Z" fill="url(#a)"/><path d="M76.644 121.2a2 2 0 1 0 .001-4 2 2 0 0 0 0 4ZM191.645 148.2a2 2 0 1 0 0-4 2 2 0 0 0 0 4Z" fill="#676767"/><defs><linearGradient id="a" x1="159.497" y1="89.2" x2="159.497" y2="225.3" gradientUnits="userSpaceOnUse"><stop stop-color="#FFBE4F"/><stop offset="1" stop-color="#93C437"/></linearGradient></defs></svg>