<svg width="121" height="120" viewBox="0 0 121 120" fill="none" xmlns="http://www.w3.org/2000/svg">
<path d="M72.1992 53.2C72.1992 53.2 74.3992 60 75.1992 62.2C76.1992 65.2 74.1992 66.2 72.1992 66.2H70.1992M82.1992 49.2C82.1992 37 72.3992 27.2 60.1992 27.2C47.9992 27.2 38.1992 37 38.1992 49.2V92.2M82.2992 49.2V68.2C82.2992 77 75.0992 84.2 66.2992 84.2C57.4992 84.2 50.2992 77 50.2992 68.2V53.2C50.2992 48.8 53.8992 45.2 58.2992 45.2H75.2992" stroke="black" stroke-width="2.5" stroke-miterlimit="10" stroke-linecap="round" stroke-linejoin="round"/>
<path d="M62.1992 57.2C63.3038 57.2 64.1992 56.3045 64.1992 55.2C64.1992 54.0954 63.3038 53.2 62.1992 53.2C61.0946 53.2 60.1992 54.0954 60.1992 55.2C60.1992 56.3045 61.0946 57.2 62.1992 57.2Z" fill="black"/>
</svg>
