<svg width="321" height="320" viewBox="0 0 321 320" fill="none" xmlns="http://www.w3.org/2000/svg">
<path d="M87.2002 117.2C87.2002 117.2 89.4002 124 90.2002 126.2C91.2002 129.2 89.2002 130.2 87.2002 130.2H85.2002M55.2002 116.2C61.2002 116.2 65.2002 112.2 69.2002 108.2C73.2002 104.2 77.2002 100.2 84.2002 100.2C91.4002 100.2 97.2002 106 97.2002 113.2V133.2C97.2002 141.4 90.7002 148.1 82.5002 148.2C66.7002 148.4 53.7002 133.8 53.2002 125.6C53.1002 123.5 54.7002 121.4 56.8002 121.2C59.2002 121 61.2002 122.8 61.2002 125.2V147.2C61.2002 153.2 56.2002 156.2 50.2002 158.2L33.1002 163.9C27.2002 165.9 23.2002 171.4 23.2002 177.7C23.2002 180.4 25.9002 182.4 28.5002 181.5L146.2 142.3M101.2 105.2C101.2 96.4 94.0002 89.2 85.2002 89.2C80.2002 89.2 75.2002 89.2 75.2002 89.2C59.7002 89.2 47.2002 101.7 47.2002 117.2V122.2C47.2002 128.2 43.2002 130.2 41.2002 132.2C39.2002 134.2 35.2002 137.2 35.2002 143.2C35.2002 149.2 39.2002 153.2 39.2002 153.2M168.2 161.2C164.8 161.2 162.1 158.4 162.2 155C162.3 151.7 165.2 149.2 168.4 149.2H171.1C172.4 149.2 173.7 148.7 174.6 147.7L176.1 146.2C177.9 144.4 178.4 141.6 177.2 139.3L175.6 136.1C174.9 134.8 175.9 133.2 177.4 133.2H187.2M286.2 123.2L281.6 109.2M256.8 106.2L252.2 115.4C251.7 116.4 252.1 117.6 253.1 118.1L261.5 122.3C262.5 122.8 262.9 124 262.4 125L258.2 133.4C257.7 134.4 258.1 135.6 259.1 136.1L268.3 140.7M197.2 125.2L256.3 105.5C256.9 105.3 257.5 105.2 258.1 105.3L295.2 110.6C296.8 110.8 297.5 112.8 296.3 114L269.8 140.5C269.4 140.9 268.8 141.3 268.2 141.5L239.9 150.6C239.1 150.8 238.4 150.1 238.6 149.4L240.8 142.2C241.4 140.2 239.9 138.3 237.9 138.3C236.7 138.3 235.7 139 235.2 140L230.3 149.8C229.5 151.5 229 153.3 229 155.2V202.9C229 208.2 222.5 210.9 218.8 207.1L206.3 194.6C202.9 191.2 198.3 189.3 193.6 189.3H182.6C179.6 189.3 177.1 186.8 177.1 183.8C177.1 180.8 179.6 178.3 182.6 178.3H188.2C193.2 178.3 197.1 174.1 197.1 169.1V161.3C197.1 160.2 198 159.3 199.1 159.3H201.1C203.1 159.3 206.1 158.3 204.1 152.3L201.1 143.3C197 131.1 189.1 125.3 177.1 125.3C163.8 125.3 153.1 136 153.1 149.3C153.1 159.3 157.1 161.3 157.1 173.3V175.8C157.1 177.5 156 179.1 154.4 179.6L90.0002 201C87.7002 201.8 85.1002 201.4 83.0002 200.1L78.1002 196.9C77.6002 196.5 77.2002 195.9 77.2002 195.3C77.1002 189.2 76.2002 188.2 75.2002 186.3L71.2002 178.3C70.6002 177.1 69.3002 176.5 68.0002 176.7C66.4002 177 65.4002 178.5 65.7002 180.1L66.9002 187C67.0002 187.9 66.1002 188.5 65.4002 188L56.9002 182.4C54.3002 180.7 50.8002 181.2 48.9002 183.7C44.8002 188.9 46.0002 196.5 51.5002 200.1L84.7002 222.2C87.7002 224.2 91.3002 225.3 94.9002 225.3C105.1 225.3 113.3 217 113.3 206.9C113.3 203.2 113.3 200.3 113.3 200.3M257.2 145.2C259 149.9 257.2 155.1 253 157.8L248.7 160.6C245.3 162.8 243.2 166.6 243.2 170.7V173.2" stroke="black" stroke-width="2.5" stroke-miterlimit="10" stroke-linecap="round" stroke-linejoin="round"/>
<path d="M77.2002 121.2C78.3048 121.2 79.2002 120.305 79.2002 119.2C79.2002 118.095 78.3048 117.2 77.2002 117.2C76.0956 117.2 75.2002 118.095 75.2002 119.2C75.2002 120.305 76.0956 121.2 77.2002 121.2Z" fill="black"/>
<path d="M192.2 148.2C193.305 148.2 194.2 147.305 194.2 146.2C194.2 145.095 193.305 144.2 192.2 144.2C191.096 144.2 190.2 145.095 190.2 146.2C190.2 147.305 191.096 148.2 192.2 148.2Z" fill="black"/>
</svg>
