<svg width="192" height="192" viewBox="0 0 192 192" fill="none" xmlns="http://www.w3.org/2000/svg">
<path d="M73.1 81L91.1 99.2002C95 103.1 103.3 101.2 111.1 95.2002M73.1 81L62.1 70C57.6 65.6 55.5 59.8 55.5 54M73.1 81C76 83.9 81.3 83.6 87 80.9M93.1 77C94.6 75.9 96 74.7 97.4 73.3C98.8 71.9 100 70.5 101.1 69M105 62.9C107.7 57.2 108 51.9 105.1 49M105.1 49L94.1 38C85.3 29.2 70.9 29.2 62.1 38M105.1 49L123.1 67.2002C127.4 71.5002 124.6 81.7002 117 90.2002C116.6 90.7002 116.7 91.5002 117.3 91.8002C122 94.2002 139.1 104.5 139.1 125.2C139.1 137.4 131.9 147.2 123.1 147.2C114.3 147.2 107.1 137.4 107.1 125.2C107.1 103.2 135.1 78.2002 167.1 107.2M62 38C60 40 59 43 59 45C59 47.8 60.8 50 63 50C65.2 50 67 47.8 67 45C67 31 56.6 20 44 20C33 20 24 34.3 24 52C24 90 64 102 64 140C64 157.7 55 172 44 172C30 172 24 156 24 156" stroke="black" stroke-width="2.5" stroke-miterlimit="10" stroke-linecap="round" stroke-linejoin="round"/>
</svg>
