<svg fill="none" height="320" viewBox="0 0 320 320" width="320" xmlns="http://www.w3.org/2000/svg" xmlns:xlink="http://www.w3.org/1999/xlink"><linearGradient id="a" gradientUnits="userSpaceOnUse" x1="159.186" x2="159.186" y1="35.2666" y2="285.6"><stop offset="0" stop-color="#f55868"/><stop offset="1" stop-color="#875ae0"/></linearGradient><path d="m132.386 80.2666c0-16.5333 10.4-30.6667 18.133-40.8 4.267-5.6 12.534-5.6 16.8 0 7.734 10.1333 18.134 24.2667 18.134 40.8m-79.734 48.0004v-13.334c0-10.133 5.334-18.1331 9.334-22.6664 2.133-2.4 5.866-2.4 8 0 4 4.5333 9.333 12.5334 9.333 22.6664v1.867c0 5.6-2.133 11.2-6.133 15.2l-33.0669 32.8c-9.0667 9.067-14.1334 21.333-14.1334 33.867v6.666c0 2.934 2.4 5.334 5.3334 5.334h42.6669c2.933 0 5.333-2.4 5.333-5.334v-56m80-21.066v-13.334c0-10.133-5.333-18.1331-9.333-22.6664-2.134-2.4-5.867-2.4-8 0-4 4.5333-9.334 12.5334-9.334 22.6664v1.867c0 5.6 2.134 11.2 6.134 15.2l33.333 32.8c9.067 9.067 14.133 21.333 14.133 33.867v6.666c0 2.934-2.4 5.334-5.333 5.334h-42.667c-2.933 0-5.333-2.4-5.333-5.334v-56m-90.9333 136.267c0-11.733 9.6003-21.333 21.3333-21.333 0-11.734 9.6-21.334 21.333-21.334 0-11.733 9.6-21.333 21.334-21.333 11.733 0 21.333 9.6 21.333 21.333 11.733 0 21.333 9.6 21.333 21.334 11.734 0 21.334 9.6 21.334 21.333m-53.334-186.6667c0 5.8907-4.775 10.6667-10.666 10.6667s-10.667-4.776-10.667-10.6667c0-5.8911 4.776-10.6667 10.667-10.6667s10.666 4.7756 10.666 10.6667z" stroke="url(#a)" stroke-linecap="round" stroke-linejoin="round" stroke-miterlimit="10" stroke-width="2.5"/></svg>