<svg width="321" height="320" viewBox="0 0 321 320" fill="none" xmlns="http://www.w3.org/2000/svg"><path d="M228.727 127.4c-8.9-8.6-20.7-13.1-33.1-12.6-12.3.5-24 6.1-32.2 15.4-.5.5-.4 1.3.1 1.8s1.3.4 1.8-.1c7.8-8.8 18.8-14.1 30.4-14.5 11.7-.4 22.9 3.8 31.3 11.9 8.5 8.1 13.1 19.1 13.1 30.8 0 23.6-19.2 42.8-42.8 42.8-.7 0-1.2.6-1.2 1.2s.6 1.2 1.2 1.2c25 0 45.2-20.3 45.2-45.2.1-12.5-4.8-24.1-13.8-32.7Z" fill="url(#a)"/><path d="M225.327 173v-8.1c1.8-1.3 3-3.5 3-5.9 0-4-3.3-7.2-7.2-7.2-3.6 0-6.5 2.6-7.1 6h-2.7c-.6-3.4-3.6-6-7.1-6-4 0-7.2 3.3-7.2 7.2 0 4 3.3 7.2 7.2 7.2 3.6 0 6.5-2.6 7.1-6h2.6l2 6.1c.2.6.3 1.3 0 1.7-.3.4-1 .6-1.8.6h-2c-.7 0-1.2.6-1.2 1.2s.6 1.2 1.2 1.2h2c1.7 0 3.1-.6 3.9-1.7.5-.7 1-2 .4-3.9.9.4 1.8.6 2.8.6.6 0 1.2-.1 1.8-.2v7c0 7.5-6 13.7-13.5 13.7-7.8 0-14.9-3.7-20-8.3v-13.4c0-1.5-.6-2.9-1.7-3.9s-2.6-1.5-4.1-1.3c-2.8.3-4.9 2.8-4.7 5.7.2 4.2 3.3 9.6 8 14.1v6.4c0 3.8-2.1 7.1-5.5 8.8-3.4 1.7-7.3 1.3-10.3-1.1-2.1-1.6-4.1-3.5-5.8-5.5-.5-.5-1.2-.6-1.8-.1-.5.5-.6 1.2-.1 1.8 1.9 2.1 3.9 4.1 6.2 5.8 2.2 1.7 4.9 2.6 7.5 2.6 1.8 0 3.7-.4 5.4-1.3 4.3-2.1 6.9-6.3 6.9-11v-4.2c6.1 4.9 13.1 7.5 20 7.5 8.6 0 15.8-7.2 15.8-16.1Zm-21.3-9.2c-2.6 0-4.8-2.1-4.8-4.8 0-2.7 2.1-4.8 4.8-4.8 2.7 0 4.8 2.1 4.8 4.8 0 2.7-2.2 4.8-4.8 4.8Zm12.2-4.8c0-2.6 2.1-4.8 4.8-4.8 2.7 0 4.8 2.1 4.8 4.8 0 2.7-2.1 4.8-4.8 4.8-2.7 0-4.8-2.2-4.8-4.8Zm-29.4 16.9c-3.3-3.7-5.3-7.7-5.5-10.5-.1-1.5 1.1-3 2.5-3.1h.3c.7 0 1.3.2 1.8.7.6.5.9 1.3.9 2v10.9Z" fill="url(#b)"/><path d="M222.027 146.8h-30c-.7 0-1.2.6-1.2 1.2s.6 1.2 1.2 1.2h30c1.8 0 3.2-1.5 3.2-3.2 0-10.6-8.6-19.2-19.2-19.2h-10c-13.9 0-25.2 11.3-25.2 25.2v28c0 2.9 2.4 5.2 5.2 5.2h5c.7 0 1.2-.6 1.2-1.2s-.6-1.2-1.2-1.2h-5c-1.5 0-2.8-1.2-2.8-2.8v-28c0-12.5 10.2-22.8 22.8-22.8h10c9.2 0 16.8 7.5 16.8 16.8 0 .4-.4.8-.8.8Z" fill="url(#c)"/><path d="M122.727 114.8c-13 0-25.4 5.6-34 15.4-.5.5-.4 1.3.1 1.8s1.3.4 1.8-.1c8.1-9.3 19.8-14.6 32.2-14.6 23.6 0 42.8 19.2 42.8 42.8 0 23.6-19.2 42.8-42.8 42.8-.7 0-1.2.6-1.2 1.2s.6 1.2 1.2 1.2c25 0 45.3-20.3 45.3-45.2 0-24.9-20.5-45.3-45.4-45.3Z" fill="url(#d)"/><path d="M79.427 127.4c-8.9-8.6-20.7-13.1-33.1-12.6-23.6.9-42.6 20-43.5 43.6-.5 14.9 6.3 29.1 18.2 37.9 3.1 2.3 7 2.6 10.5.9 3.5-1.8 5.7-5.3 5.7-9.2v-6.2c6.1 4.9 13.1 7.5 20 7.5 8.8-.1 16-7.4 16-16.2v-20c0-7.9-6.4-14.2-14.2-14.2-7.5 0-11.8 4.3-15.9 8.4-3.9 3.9-7.6 7.6-13.1 7.6-.7 0-1.2.6-1.2 1.2s.6 1.2 1.2 1.2c6.5 0 10.8-4.3 14.9-8.4 3.9-3.9 7.6-7.6 14.1-7.6s11.8 5.3 11.8 11.8v20c0 7.5-6 13.7-13.5 13.7h-.3c-7.7 0-14.7-3.7-19.8-8.3v-13.4c0-1.5-.6-2.9-1.7-3.9s-2.6-1.5-4.1-1.3c-2.8.3-4.9 2.8-4.7 5.7.2 4.2 3.3 9.6 8 14.1v8.4c0 3-1.7 5.6-4.3 7-2.6 1.3-5.6 1.1-7.9-.7-11.3-8.4-17.7-21.8-17.2-35.8.8-22.3 18.8-40.4 41.1-41.2 11.7-.4 22.9 3.8 31.3 11.9 8.4 8.1 13.1 19.1 13.1 30.8 0 23.6-19.2 42.8-42.8 42.8-.7 0-1.2.6-1.2 1.2s.6 1.2 1.2 1.2c25 0 45.2-20.3 45.2-45.2 0-12.5-4.9-24.1-13.8-32.7Zm-50.1 37.9c-.1-1.5 1.1-3 2.5-3.1h.3c.7 0 1.3.2 1.8.7.6.5.9 1.3.9 2v10.9c-3.4-3.7-5.4-7.6-5.5-10.5Z" fill="url(#e)"/><path d="M21.827 146.8c-6.8.6-12.1 6.3-12.1 13.2v10c0 .7.6 1.2 1.2 1.2s1.2-.6 1.2-1.2v-10c0-5.9 4.8-10.8 10.8-10.8.7 0 1.2-.6 1.2-1.2 0-9.8 8-17.8 17.8-17.8h18c8.1 0 14.8 6.6 14.8 14.8 0 .7.6 1.2 1.2 1.2s1.2-.6 1.2-1.2c0-9.5-7.7-17.2-17.2-17.2h-18c-10.7 0-19.5 8.4-20.1 19Z" fill="url(#f)"/><path d="M303.427 127.4c-8.9-8.6-20.7-13.1-33.1-12.6-12.2.5-24 6.1-32.2 15.4-.5.5-.4 1.3.1 1.8s1.3.4 1.8-.1c7.8-8.8 18.8-14.1 30.4-14.5 11.7-.4 22.9 3.8 31.3 11.9 8.5 8.1 13.1 19.1 13.1 30.8 0 23.6-19.2 42.8-42.8 42.8-.7 0-1.2.6-1.2 1.2s.6 1.2 1.2 1.2c25 0 45.2-20.3 45.2-45.2 0-12.5-4.9-24.1-13.8-32.7Z" fill="url(#g)"/><path d="M297.227 173v-22.5c0-11.6-9.2-21.3-20.5-21.7-5.8-.2-11.3 1.9-15.5 5.9-4.2 4-6.5 9.5-6.5 15.3 0 1.8 1.5 3.2 3.2 3.2h2c3.7 0 6.8 3 6.8 6.8v10c0 4 3.3 7.2 7.2 7.2 1.8 0 3.2-1.5 3.2-3.2 0-2.6 2.1-4.8 4.8-4.8h4c1.7 0 3.1-.6 3.9-1.7.5-.7 1-2 .3-4l-3-9c-.2-.7-.9-1-1.6-.8-.7.2-1 .9-.8 1.6l3 9c.2.6.3 1.3 0 1.8s-1 .5-1.8.5h-4c-4 0-7.2 3.3-7.2 7.2 0 .4-.3.8-.8.8-2.6 0-4.8-2.1-4.8-4.8v-10c0-5.1-4.1-9.2-9.2-9.2h-2c-.4 0-.8-.3-.8-.8 0-5.1 2-9.9 5.7-13.5 3.7-3.6 8.5-5.4 13.7-5.2 10 .4 18.1 9 18.1 19.2V173c0 7.5-6 13.7-13.5 13.7-7.8.1-14.9-3.7-20-8.3V165c0-1.5-.6-2.9-1.7-3.9s-2.6-1.5-4.1-1.3c-2.7.3-4.9 2.9-4.7 5.7.2 4.2 3.3 9.6 8 14.1v8.4c0 3-1.7 5.6-4.3 7-2.6 1.3-5.6 1.1-7.9-.7-2.4-1.8-4.7-3.9-6.7-6.1-.5-.5-1.2-.6-1.8-.1-.5.5-.6 1.2-.1 1.8 2.1 2.4 4.5 4.6 7 6.5 1.8 1.3 3.8 2 5.9 2 1.5 0 3.1-.4 4.6-1.1 3.5-1.8 5.7-5.3 5.7-9.2v-6.2c6 4.9 13.1 7.5 20 7.5 9.1-.2 16.2-7.5 16.2-16.4Zm-38.4 2.9c-3.3-3.7-5.3-7.7-5.5-10.5-.1-1.5 1.1-3 2.5-3.1h.3c.7 0 1.3.2 1.8.7.6.5.9 1.3.9 2v10.9Z" fill="url(#h)"/><path d="M100.027 148.8c-.7 0-1.2.6-1.2 1.2s.6 1.2 1.2 1.2c7.5 0 11.8-4.3 15.9-8.4 3.9-3.9 7.6-7.6 14.1-7.6.7 0 1.2-.6 1.2-1.2s-.6-1.2-1.2-1.2c-7.5 0-11.8 4.3-15.9 8.4-3.9 3.8-7.6 7.6-14.1 7.6Z" fill="url(#i)"/><path d="M126.027 126.8c-7.5 0-11.8 4.3-15.9 8.4-3.9 3.9-7.6 7.6-14.1 7.6-.7 0-1.2.6-1.2 1.2s.6 1.2 1.2 1.2c7.5 0 11.8-4.3 15.9-8.4 3.9-3.9 7.6-7.6 14.1-7.6.7 0 1.2-.6 1.2-1.2s-.5-1.2-1.2-1.2Z" fill="url(#j)"/><path d="M148.227 173v-20c0-7.9-6.4-14.2-14.2-14.2-7.5 0-11.8 4.3-15.9 8.4-3.9 3.9-7.6 7.6-14.1 7.6-.7 0-1.2.6-1.2 1.2s.6 1.2 1.2 1.2c7.5 0 11.8-4.3 15.9-8.4 3.9-3.9 7.6-7.6 14.1-7.6s11.8 5.3 11.8 11.8v20c0 7.5-6 13.7-13.5 13.7-7.8.1-14.9-3.7-20-8.3V165c0-1.5-.6-2.9-1.7-3.9s-2.6-1.5-4.1-1.3c-2.8.3-4.9 2.8-4.7 5.7.2 4.2 3.3 9.6 8 14.1v8.7c0 3-1.6 5.6-4.3 6.9-2.6 1.3-5.6 1.1-8-.6-2.5-1.9-4.9-4-7-6.4-.5-.5-1.2-.6-1.8-.1-.5.5-.6 1.2-.1 1.8 2.2 2.5 4.7 4.8 7.4 6.7 1.8 1.3 3.9 2 6 2 1.6 0 3.2-.4 4.6-1.1 3.5-1.8 5.6-5.3 5.6-9.2v-6.5c6.1 4.9 13.1 7.5 20 7.5 8.9-.1 16-7.4 16-16.3Zm-38.5 2.9c-3.3-3.7-5.3-7.7-5.5-10.5-.1-1.5 1.1-3 2.5-3.1h.3c.7 0 1.3.2 1.8.7.6.5.9 1.3.9 2v10.9Z" fill="url(#k)"/><path d="M60.827 157.2c-.2-.7.1-1.4.8-1.6.7-.2 1.4.1 1.6.8l3 9c.7 2 .2 3.3-.3 4-.8 1.1-2.1 1.7-3.9 1.7h-2c-.7 0-1.2-.6-1.2-1.2 0-.7.6-1.2 1.2-1.2h2c.9 0 1.6-.2 1.8-.6.3-.4.2-1.2 0-1.7l-3-9.2Z" fill="url(#l)"/><path d="M135.827 157.2c-.2-.7.1-1.4.8-1.6.7-.2 1.4.1 1.6.8l3 9c.7 2 .2 3.3-.3 4-.8 1.1-2.1 1.7-3.9 1.7h-2c-.7 0-1.2-.6-1.2-1.2 0-.7.6-1.2 1.2-1.2h2c.9 0 1.6-.2 1.8-.6.3-.4.2-1.2 0-1.7l-3-9.2Z" fill="url(#m)"/><path d="M52.027 161a2 2 0 1 0 0-4 2 2 0 0 0 0 4Z" fill="url(#n)"/><path d="M276.027 159a2 2 0 1 0 .001-3.999 2 2 0 0 0-.001 3.999Z" fill="url(#o)"/><path d="M127.027 161a2 2 0 1 0 .001-3.999 2 2 0 0 0-.001 3.999Z" fill="url(#p)"/><defs><linearGradient id="a" x1="160.014" y1="114.762" x2="160.014" y2="205.3" gradientUnits="userSpaceOnUse"><stop stop-color="#279BE8"/><stop offset="1" stop-color="#875AE0"/></linearGradient><linearGradient id="b" x1="160.014" y1="114.762" x2="160.014" y2="205.3" gradientUnits="userSpaceOnUse"><stop stop-color="#279BE8"/><stop offset="1" stop-color="#875AE0"/></linearGradient><linearGradient id="c" x1="160.014" y1="114.762" x2="160.014" y2="205.3" gradientUnits="userSpaceOnUse"><stop stop-color="#279BE8"/><stop offset="1" stop-color="#875AE0"/></linearGradient><linearGradient id="d" x1="160.014" y1="114.762" x2="160.014" y2="205.3" gradientUnits="userSpaceOnUse"><stop stop-color="#279BE8"/><stop offset="1" stop-color="#875AE0"/></linearGradient><linearGradient id="e" x1="160.014" y1="114.762" x2="160.014" y2="205.3" gradientUnits="userSpaceOnUse"><stop stop-color="#279BE8"/><stop offset="1" stop-color="#875AE0"/></linearGradient><linearGradient id="f" x1="160.014" y1="114.762" x2="160.014" y2="205.3" gradientUnits="userSpaceOnUse"><stop stop-color="#279BE8"/><stop offset="1" stop-color="#875AE0"/></linearGradient><linearGradient id="g" x1="160.014" y1="114.762" x2="160.014" y2="205.3" gradientUnits="userSpaceOnUse"><stop stop-color="#279BE8"/><stop offset="1" stop-color="#875AE0"/></linearGradient><linearGradient id="h" x1="160.014" y1="114.762" x2="160.014" y2="205.3" gradientUnits="userSpaceOnUse"><stop stop-color="#279BE8"/><stop offset="1" stop-color="#875AE0"/></linearGradient><linearGradient id="i" x1="160.014" y1="114.762" x2="160.014" y2="205.3" gradientUnits="userSpaceOnUse"><stop stop-color="#279BE8"/><stop offset="1" stop-color="#875AE0"/></linearGradient><linearGradient id="j" x1="160.014" y1="114.762" x2="160.014" y2="205.3" gradientUnits="userSpaceOnUse"><stop stop-color="#279BE8"/><stop offset="1" stop-color="#875AE0"/></linearGradient><linearGradient id="k" x1="160.014" y1="114.762" x2="160.014" y2="205.3" gradientUnits="userSpaceOnUse"><stop stop-color="#279BE8"/><stop offset="1" stop-color="#875AE0"/></linearGradient><linearGradient id="l" x1="160.014" y1="114.762" x2="160.014" y2="205.3" gradientUnits="userSpaceOnUse"><stop stop-color="#279BE8"/><stop offset="1" stop-color="#875AE0"/></linearGradient><linearGradient id="m" x1="160.014" y1="114.762" x2="160.014" y2="205.3" gradientUnits="userSpaceOnUse"><stop stop-color="#279BE8"/><stop offset="1" stop-color="#875AE0"/></linearGradient><linearGradient id="n" x1="164.027" y1="155" x2="164.027" y2="161" gradientUnits="userSpaceOnUse"><stop stop-color="#279BE8"/><stop offset="1" stop-color="#875AE0"/></linearGradient><linearGradient id="o" x1="164.027" y1="155" x2="164.027" y2="161" gradientUnits="userSpaceOnUse"><stop stop-color="#279BE8"/><stop offset="1" stop-color="#875AE0"/></linearGradient><linearGradient id="p" x1="164.027" y1="155" x2="164.027" y2="161" gradientUnits="userSpaceOnUse"><stop stop-color="#279BE8"/><stop offset="1" stop-color="#875AE0"/></linearGradient></defs></svg>