<svg width="320" height="320" viewBox="0 0 320 320" fill="none" xmlns="http://www.w3.org/2000/svg">
<path d="M255.745 183.2L260.745 193.2C263.645 198.9 267.345 201.9 272.045 202.2C275.445 202.4 278.645 199.9 278.745 196.5C278.945 193 276.145 190.2 272.745 190.2C262.745 190.2 255.745 196.2 248.745 210.2L239.045 229.6C237.045 233.7 232.845 236.2 228.345 236.2H205.045C204.245 236.2 203.445 235.9 202.745 235.5L197.345 231.7C195.545 230.4 193.345 229.7 191.145 229.9L184.845 230C182.645 230.2 180.845 232 180.845 234.7L180.945 236.8C181.145 239.5 182.445 241.9 184.345 243.5C185.945 244.9 187.945 245.6 190.045 245.8L194.045 246.1C194.045 246.1 199.745 252.1 210.045 252.1M283.645 216.2H293.645C303.545 216.2 311.645 208.1 311.645 198.2V74.2002C311.645 64.3002 303.545 56.2002 293.645 56.2002H233.645C223.745 56.2002 215.645 64.3002 215.645 74.2002V198.2C215.645 208.1 223.745 216.2 233.645 216.2M71.6445 248.2H19.6445C13.0445 248.2 7.64453 242.8 7.64453 236.2V138.2C7.64453 128.3 15.7445 120.2 25.6445 120.2H157.645C167.545 120.2 175.645 128.3 175.645 138.2V187.2M255.745 183.3H248.645C243.645 183.3 239.745 179.1 239.745 174.1V168.3M193.645 254.2V260.2C193.645 261.3 192.745 262.2 191.645 262.2H147.645C146.545 262.2 145.645 261.3 145.645 260.2V246.2C152.645 242.2 150.645 232.2 150.645 232.2L157.445 227.6C158.745 226.8 159.245 225.2 158.845 223.8C158.245 221.9 156.045 221 154.345 221.9L145.245 226.5C143.045 227.6 141.445 229.7 140.945 232.1L139.745 238.3L118.645 257.9C115.045 261.3 109.245 260.6 106.545 256.5L90.8445 233C86.3445 226.3 78.9445 222.3 70.8445 222.3H58.1445C56.2445 222.3 54.7445 223.6 54.2445 225.4C52.8445 230.5 48.2445 234.3 42.6445 234.3C36.0445 234.3 30.6445 228.9 30.6445 222.3M145.645 219.2V196.2C145.645 195.1 146.545 194.2 147.645 194.2H180.845C181.345 194.2 181.845 194.4 182.245 194.8L193.045 205.6C193.445 206 193.645 206.5 193.645 207V229.2M180.645 195.2V207.2H192.645M56.6445 181.2C56.6445 181.2 58.8445 188 59.6445 190.2C60.6445 193.2 58.6445 194.2 56.6445 194.2H52.6445C49.3445 194.2 46.6445 196.9 46.6445 200.2C46.6445 201.3 45.7445 202.2 44.6445 202.2C41.3445 202.2 38.6445 199.5 38.6445 196.2V186.2C38.6445 181.8 35.0445 178.2 30.6445 178.2H28.6445C27.5445 178.2 26.6445 177.3 26.6445 176.2C26.6445 164.9 36.0445 155.8 47.3445 156.2C58.1445 156.6 66.6445 165.8 66.6445 176.7V199.2C66.6445 207.4 60.1445 214.1 51.9445 214.2C36.1445 214.4 23.1445 199.8 22.6445 191.6C22.5445 189.5 24.1445 187.4 26.2445 187.2C28.6445 187 30.6445 188.8 30.6445 191.2V222.2M268.745 168.2C272.145 168.2 274.845 165.4 274.745 162C274.645 158.7 271.745 156.2 268.545 156.2H265.845C264.545 156.2 263.245 155.7 262.345 154.7L260.845 153.2C259.045 151.4 258.545 148.6 259.745 146.3L261.345 143.1C262.045 141.8 261.045 140.2 259.545 140.2H249.745M294.445 187.5C287.245 185.6 279.745 179.8 279.745 170.2C279.745 162.2 283.745 156.2 283.745 156.2M239.645 168.2C239.645 167.1 238.745 166.2 237.645 166.2H235.645C233.645 166.2 230.645 165.2 232.645 159.2L235.645 150.2C239.745 138 247.645 132.2 259.645 132.2C270.445 132.2 279.645 139.4 282.645 149.2C284.245 147.3 286.345 146.2 288.645 146.2C293.645 146.2 297.645 151.6 297.645 158.2C297.645 165.4 289.645 174.1 296.545 184.5C297.545 186 296.145 188 294.345 187.5" stroke="url(#paint0_linear)" stroke-width="2.5" stroke-miterlimit="10" stroke-linecap="round" stroke-linejoin="round"/>
<path d="M46.6445 185.2C47.7491 185.2 48.6445 184.305 48.6445 183.2C48.6445 182.096 47.7491 181.2 46.6445 181.2C45.54 181.2 44.6445 182.096 44.6445 183.2C44.6445 184.305 45.54 185.2 46.6445 185.2Z" fill="#5DAF8F"/>
<path d="M244.645 155.2C245.749 155.2 246.645 154.305 246.645 153.2C246.645 152.096 245.749 151.2 244.645 151.2C243.54 151.2 242.645 152.096 242.645 153.2C242.645 154.305 243.54 155.2 244.645 155.2Z" fill="#5DAF8F"/>
<defs>
<linearGradient id="paint0_linear" x1="159.645" y1="56.2002" x2="159.645" y2="262.2" gradientUnits="userSpaceOnUse">
<stop stop-color="#93C437"/>
<stop offset="1" stop-color="#279BE8"/>
</linearGradient>
</defs>
</svg>
