<svg width="321" height="321" viewBox="0 0 321 321" fill="none" xmlns="http://www.w3.org/2000/svg">
<path d="M246.2 91.2C246.2 91.2 244 98 243.2 100.2C242.2 103.2 244.2 104.2 246.2 104.2H248.2M278.2 90.2C272.2 90.2 268.2 86.2 264.2 82.2C260.2 78.2 256.2 74.2 249.2 74.2C242 74.2 236.2 80 236.2 87.2V107.2C236.2 115.5 242.9 122.2 251.2 122.2C267.2 122.2 280.2 107.2 280.2 99.2C280.2 97 278.4 95.2 276.2 95.2C274 95.2 272.2 97 272.2 99.2V121.2C272.2 125.6 275.8 129.2 280.2 129.2M232.2 79.2C232.2 70.4 239.4 63.2 248.2 63.2C253.2 63.2 258.2 63.2 258.2 63.2C273.7 63.2 286.2 75.7 286.2 91.2V96.2C286.2 102.2 290.2 104.2 292.2 106.2C294.2 108.2 298.2 111.2 298.2 117.2C298.2 123.2 294.2 127.2 294.2 127.2M291.3 174.6C299 170.6 304.3 162.6 304.3 153.3C304.3 140 293.6 129.3 280.3 129.3M82.1996 56.2C82.1996 56.2 79.9996 63 79.1996 65.2C78.1996 68.2 80.1996 69.2 82.1996 69.2H84.1996M85.1996 41.2C92.1996 41.2 96.1996 45.2 100.2 49.2C104.2 53.2 108.2 57.2 115.2 57.2M89.1996 35.2C96.1996 35.2 100.2 39.2 104.2 43.2C108.2 47.2 112.2 51.2 119.2 51.2M93.1996 29.2C100.2 29.2 104.2 33.2 108.2 37.2C112.2 41.2 116.2 45.2 123.2 45.2M67.1996 189.2C63.7996 189.2 61.0996 186.4 61.1996 183C61.2996 179.7 64.1996 177.2 67.3996 177.2M86.1996 161.2H76.3996C74.8996 161.2 73.8996 162.8 74.5996 164.1L77.4996 169.9C77.8996 170.7 77.6996 171.6 77.0996 172.2L74.3996 174.9C73.5996 175.7 73.0996 176.9 73.1996 178.1C74.1996 187.7 82.2996 195.2 92.0996 195.2H104.1M207.2 169.2H255.4C281.7 169.2 303.7 190.1 304.2 216.4C304.6 243.3 283 265.2 256.2 265.2H250.2C249.1 265.2 248.2 264.3 248.2 263.2V245.2C248.2 244.1 247.3 243.2 246.2 243.2H234.2C233.1 243.2 232.2 244.1 232.2 245.2V263.2C232.2 264.3 231.3 265.2 230.2 265.2H192.2C191.1 265.2 190.2 264.3 190.2 263.2V253.2C190.2 252.1 191.1 251.2 192.2 251.2H212.2C218.8 251.2 224.2 245.8 224.2 239.2V197.2C224.2 190.6 218.8 185.2 212.2 185.2H148.2C141.6 185.2 136.2 190.6 136.2 197.2V239.2C136.2 245.8 141.6 251.2 148.2 251.2H168.2C169.3 251.2 170.2 252.1 170.2 253.2V263.2C170.2 264.3 169.3 265.2 168.2 265.2H128.2M128.2 265.2L110.8 230.5C106.7 222.4 98.3996 217.2 89.2996 217.2H81.5996C78.5996 217.2 76.0996 214.7 76.0996 211.7C76.0996 208.7 78.5996 206.2 81.5996 206.2H87.1996C92.1996 206.2 96.0996 202 96.0996 197V189.2C96.0996 188.1 96.9996 187.2 98.0996 187.2H100.1C102.1 187.2 105.1 186.2 103.1 180.2L100.1 171.2C95.9996 159 88.0996 153.2 76.0996 153.2C62.7996 153.2 52.0996 163.9 52.0996 177.2C52.0996 187.2 56.0996 189.2 56.0996 201.2C56.0996 210 48.8996 217.2 40.0996 217.2C31.2996 217.2 24.0996 210 24.0996 201.2V145.2C24.0996 118.7 45.5996 97.2 72.0996 97.2H90.0996C92.2996 97.2 94.0996 95.3999 94.0996 93.1999C94.0996 90.9999 92.2996 89.2 90.0996 89.2H87.0996C78.7996 89.2 72.0996 82.5 72.0996 74.2V54.2C72.0996 47 77.8996 41.2 85.0996 41.2M128.2 265.2C131.9 272.6 127.2 278.2 122.2 278.2C119.4 278.2 117.2 276 117.2 273.2C117.2 269.2 121.2 265.2 128.2 265.2ZM182.2 169.2H192.2M182.2 169.2C185.5 169.2 188.2 166.5 188.2 163.2V155.2C188.2 151.9 185.5 149.2 182.2 149.2H176.2C174 149.2 172.2 151 172.2 153.2V165.2C172.2 167.4 174 169.2 176.2 169.2H182.2ZM252.2 129.2C228.2 129.2 224.2 157.2 200.2 157.2M200.2 157.2V133.2C200.2 131 198.4 129.2 196.2 129.2H182.2C180 129.2 178.2 131 178.2 133.2V149.2M200.2 157.2V165.2C200.2 167.4 198.4 169.2 196.2 169.2H191.2M142.2 129.2L126.2 81.2C123.2 73.2 114.2 73.2 114.2 73.2H108.2C104.9 73.2 102.2 75.9 102.2 79.2V83.2C102.2 88.7 106.7 93.1999 112.2 93.1999C114 93.1999 115.5 94.3999 115.9 96.0999L118.2 105.2L127.6 143C129.1 149 134.5 153.2 140.7 153.2C148.1 153.2 154.2 147.2 154.2 139.7V111.2C154.2 103.5 147.9 97.2 140.2 97.2M120.2 74.2V66.2C120.2 64 118.4 62.2 116.2 62.2H110.2C108 62.2 106.2 64 106.2 66.2V73.2M235.2 243.2V237.2M240.2 243.2V232.2M245.2 243.2L248.2 237.2M112.2 195.2C112.2 197.409 110.409 199.2 108.2 199.2C105.99 199.2 104.2 197.409 104.2 195.2C104.2 192.991 105.99 191.2 108.2 191.2C110.409 191.2 112.2 192.991 112.2 195.2ZM165.8 87C155.1 76.4 155 60.3 162.5 49.9C174.2 33.7 197.6 33.1 210.2 48C221.6 61.5 218.8 81.7 204.3 91.9C197.6 96.6 192.2 96.1 189.2 99.1C187.5 100.8 186.8 103.2 187.3 105.4C187.6 107 186 108.3 184.6 107.7C183.2 107.1 182 106.2 180.8 104.7C176.5 99.7999 175.9 92.4999 179.9 87.2999C182.2 84.3999 184.4 84.3 185.7 85.6C186.9 86.8 187 88.6 185 90.5C181.4 94.1 172.9 94.1 165.8 87Z" stroke="black" stroke-width="2.5" stroke-miterlimit="10" stroke-linecap="round" stroke-linejoin="round"/>
<path d="M256.2 95.1999C257.305 95.1999 258.2 94.3045 258.2 93.1999C258.2 92.0954 257.305 91.2 256.2 91.2C255.096 91.2 254.2 92.0954 254.2 93.1999C254.2 94.3045 255.096 95.1999 256.2 95.1999Z" fill="black"/>
<path d="M92.2002 60.2C93.3048 60.2 94.2002 59.3045 94.2002 58.2C94.2002 57.0954 93.3048 56.2 92.2002 56.2C91.0956 56.2 90.2002 57.0954 90.2002 58.2C90.2002 59.3045 91.0956 60.2 92.2002 60.2Z" fill="black"/>
<path d="M91.2002 176.2C92.3048 176.2 93.2002 175.305 93.2002 174.2C93.2002 173.095 92.3048 172.2 91.2002 172.2C90.0956 172.2 89.2002 173.095 89.2002 174.2C89.2002 175.305 90.0956 176.2 91.2002 176.2Z" fill="black"/>
<path d="M178.2 69.0999C179.305 69.0999 180.2 68.2044 180.2 67.0999C180.2 65.9953 179.305 65.0999 178.2 65.0999C177.096 65.0999 176.2 65.9953 176.2 67.0999C176.2 68.2044 177.096 69.0999 178.2 69.0999Z" fill="black"/>
<path d="M186.2 69.0999C187.305 69.0999 188.2 68.2044 188.2 67.0999C188.2 65.9953 187.305 65.0999 186.2 65.0999C185.096 65.0999 184.2 65.9953 184.2 67.0999C184.2 68.2044 185.096 69.0999 186.2 69.0999Z" fill="black"/>
<path d="M194.2 69.0999C195.305 69.0999 196.2 68.2044 196.2 67.0999C196.2 65.9953 195.305 65.0999 194.2 65.0999C193.096 65.0999 192.2 65.9953 192.2 67.0999C192.2 68.2044 193.096 69.0999 194.2 69.0999Z" fill="black"/>
</svg>
