<svg width="321" height="320" viewBox="0 0 321 320" fill="none" xmlns="http://www.w3.org/2000/svg"><path d="M265.355 171.2c3.4 0 6.1-2.8 6-6.2-.1-3.3-3-5.8-6.2-5.8h-2.7c-1.3 0-2.6-.5-3.5-1.5l-1.5-1.5c-1.8-1.8-2.3-4.6-1.1-6.9l1.6-3.2c.7-1.3-.3-2.9-1.8-2.9h-9.8m33.9 16s-4 6-4 14c0 9.6 7.5 15.4 14.7 17.3 1.8.5 3.2-1.5 2.2-3-6.9-10.4 1.1-19.1 1.1-26.3 0-6.6-4-12-9-12-2.3 0-4.4 1.1-6 3-3-9.8-12.2-17-23-17-12 0-19.9 5.8-24 18l-3 9c-2 6 1 7 3 7h2c1.1 0 2 .9 2 2v7.8c0 5 4 9.2 8.9 9.2h5.6c3 0 5.5 2.5 5.5 5.5s-2.5 5.5-5.5 5.5h-7.7c-9.1 0-17.4 5.1-21.5 13.3l-15.2 30.3c-1.4 2.7-4.1 4.4-7.2 4.4h-59.1c-4.4 0-8-3.6-8-8v-32c0-4.4 3.6-8 8-8h48c4.4 0 8 3.6 8 8v33m-131.8-105v-21c0-1.9-1.6-3.3-3.5-3-1.5.3-2.5 1.6-2.5 3.1 0 7.9 6.9 16.8 17.7 16.9 5.7.1 10.3-4.5 10.3-10.1v-13.9c0-4.4-3.6-8-8-8h-2c-4.4 0-8 3.6-8 8m10 3 2 6c1 3-1 3-2 3h-1m11.4-21c-2.2-8.6-10.1-15-19.4-15-11 0-20 9-20 20 0 4.1 1.2 7.8 3.3 11m-12.1 50.1c-10-10.7-16.2-25.1-16.2-41 0-33.1 26.9-60 60-60s60 26.9 60 60m-28 35.9h-10c-2.2 0-4-1.8-4-4v-16c0-2.2 1.8-4 4-4h6c2.2 0 4 1.8 4 4v9m0 11h4c2.3 0 4-1.7 4-4v-3c0-2.2-1.8-4-4-4h-4m0 11c-2.2 0-4-1.8-4-4v-3c0-2.2 1.8-4 4-4m-32-13c10 0 10 16 18 16m42-28c0 31.3-21.6 35.6-3.3 56.5 1.8 2.1 1 5.4-1.6 6.4-1.8.7-4.2 1.2-7.1 1.2-15 0-22-9.9-22-9.9-7.9 3.8-16.7 5.9-26 5.9-26 0-39-15-39-29 0-10.5 8.5-19 19-19" stroke="url(#a)" stroke-width="2.5" stroke-miterlimit="10" stroke-linecap="round" stroke-linejoin="round"/><path d="M241.255 158.2a2 2 0 1 0 0-4 2 2 0 0 0 0 4Z" fill="url(#b)"/><defs><linearGradient id="a" x1="159.255" y1="63.3" x2="159.255" y2="247.2" gradientUnits="userSpaceOnUse"><stop stop-color="#279BE8"/><stop offset="1" stop-color="#875AE0"/></linearGradient><linearGradient id="b" x1="241.255" y1="154.2" x2="241.255" y2="158.2" gradientUnits="userSpaceOnUse"><stop stop-color="#279BE8"/><stop offset="1" stop-color="#875AE0"/></linearGradient></defs></svg>