<svg width="320" height="320" viewBox="0 0 320 320" fill="none" xmlns="http://www.w3.org/2000/svg">
<path d="M54.6443 81.2C70.0443 84.5 81.7443 99.5 79.3443 116.7C77.2443 131.7 64.5443 143.4 49.3443 144.1C30.9443 145.1 15.6443 130.4 15.6443 112.1C15.6443 94.4 29.9443 80.1 47.6443 80.1V74.1C47.6443 64.2 55.7443 56.1 65.6443 56.1H285.644C295.544 56.1 303.644 64.2 303.644 74.1V246.1C303.644 256 295.544 264.1 285.644 264.1H65.6443C55.7443 264.1 47.6443 256 47.6443 246.1V151.1M41.7443 106.7C40.8443 106.4 39.8443 106.2 38.7443 106.2C33.7443 106.2 29.7443 109.8 29.7443 114.2C29.7443 117.2 34.7443 118.2 38.7443 118.2M56.6443 118.2C60.6443 118.2 65.6443 117.2 65.6443 114.2C65.6443 109.8 61.6443 106.2 56.6443 106.2M56.6443 106.2C55.5443 106.2 54.5443 106.4 53.6443 106.7M56.6443 106.2C59.4057 106.2 61.6443 103.961 61.6443 101.2C61.6443 98.4386 59.4057 96.2 56.6443 96.2C53.8829 96.2 51.6443 98.4386 51.6443 101.2C51.6443 103.961 53.8829 106.2 56.6443 106.2ZM47.6443 114.2C50.958 114.2 53.6443 111.514 53.6443 108.2C53.6443 104.886 50.958 102.2 47.6443 102.2C44.3306 102.2 41.6443 104.886 41.6443 108.2C41.6443 111.514 44.3306 114.2 47.6443 114.2ZM47.6443 114.2C53.7443 114.2 58.6443 118.7 58.6443 124.2C58.6443 127.2 52.6443 129.2 47.6443 129.2C42.6443 129.2 36.6443 127.2 36.6443 124.2C36.6443 118.7 41.5443 114.2 47.6443 114.2ZM123.644 96.2V112.2M131.644 104.2H115.644M171.644 92.2H203.644M171.644 100.2H187.644M235.644 92.2H267.644M235.644 100.2H251.644M171.644 148.2H203.644M171.644 156.2H187.644M235.644 148.2H267.644M235.644 156.2H251.644M171.644 204.2H203.644M171.644 212.2H187.644M107.644 148.2H139.644M107.644 156.2H123.644M107.644 204.2H139.644M107.644 212.2H123.644M43.6443 101.2C43.6443 103.961 41.4057 106.2 38.6443 106.2C35.8829 106.2 33.6443 103.961 33.6443 101.2C33.6443 98.4386 35.8829 96.2 38.6443 96.2C41.4057 96.2 43.6443 98.4386 43.6443 101.2ZM143.644 128.2H103.644C99.2443 128.2 95.6443 124.6 95.6443 120.2V88.2C95.6443 83.8 99.2443 80.2 103.644 80.2H143.644C148.044 80.2 151.644 83.8 151.644 88.2V120.2C151.644 124.7 148.144 128.2 143.644 128.2ZM207.644 128.2H167.644C163.244 128.2 159.644 124.6 159.644 120.2V88.2C159.644 83.8 163.244 80.2 167.644 80.2H207.644C212.044 80.2 215.644 83.8 215.644 88.2V120.2C215.644 124.7 212.144 128.2 207.644 128.2ZM271.644 128.2H231.644C227.244 128.2 223.644 124.6 223.644 120.2V88.2C223.644 83.8 227.244 80.2 231.644 80.2H271.644C276.044 80.2 279.644 83.8 279.644 88.2V120.2C279.644 124.7 276.144 128.2 271.644 128.2ZM143.644 184.2H103.644C99.2443 184.2 95.6443 180.6 95.6443 176.2V144.2C95.6443 139.8 99.2443 136.2 103.644 136.2H143.644C148.044 136.2 151.644 139.8 151.644 144.2V176.2C151.644 180.7 148.144 184.2 143.644 184.2ZM207.644 184.2H167.644C163.244 184.2 159.644 180.6 159.644 176.2V144.2C159.644 139.8 163.244 136.2 167.644 136.2H207.644C212.044 136.2 215.644 139.8 215.644 144.2V176.2C215.644 180.7 212.144 184.2 207.644 184.2ZM271.644 184.2H231.644C227.244 184.2 223.644 180.6 223.644 176.2V144.2C223.644 139.8 227.244 136.2 231.644 136.2H271.644C276.044 136.2 279.644 139.8 279.644 144.2V176.2C279.644 180.7 276.144 184.2 271.644 184.2ZM143.644 240.2H103.644C99.2443 240.2 95.6443 236.6 95.6443 232.2V200.2C95.6443 195.8 99.2443 192.2 103.644 192.2H143.644C148.044 192.2 151.644 195.8 151.644 200.2V232.2C151.644 236.7 148.144 240.2 143.644 240.2ZM207.644 240.2H167.644C163.244 240.2 159.644 236.6 159.644 232.2V200.2C159.644 195.8 163.244 192.2 167.644 192.2H207.644C212.044 192.2 215.644 195.8 215.644 200.2V232.2C215.644 236.7 212.144 240.2 207.644 240.2Z" stroke="url(#paint0_linear)" stroke-width="2.5" stroke-miterlimit="10" stroke-linecap="round" stroke-linejoin="round"/>
<defs>
<linearGradient id="paint0_linear" x1="159.644" y1="56.1" x2="159.644" y2="264.1" gradientUnits="userSpaceOnUse">
<stop stop-color="#279BE8"/>
<stop offset="1" stop-color="#875AE0"/>
</linearGradient>
</defs>
</svg>
