<svg width="120" height="120" viewBox="0 0 120 120" fill="none" xmlns="http://www.w3.org/2000/svg">
<path d="M61.8027 40.321V59.2922M91.3134 61.0169L71.7674 24.2243C67.3599 16.1759 55.8622 16.1759 51.6464 24.2243L25.0101 73.0895C20.7943 80.7546 26.3515 90.1444 35.1664 90.1444H90.5469C94.7627 90.1444 98.2121 86.6951 98.2121 82.4792C98.2121 78.2634 94.7627 74.8141 90.5469 74.8141C75.2167 74.8141 61.8027 101.642 61.8027 101.642" stroke="black" stroke-width="2.5" stroke-miterlimit="10" stroke-linecap="round" stroke-linejoin="round"/>
<path d="M61.8469 70.6863C63.2276 70.6863 64.3469 69.567 64.3469 68.1863C64.3469 66.8056 63.2276 65.6863 61.8469 65.6863C60.4662 65.6863 59.3469 66.8056 59.3469 68.1863C59.3469 69.567 60.4662 70.6863 61.8469 70.6863Z" fill="black"/>
</svg>
