<svg width="192" height="192" viewBox="0 0 192 192" fill="none" xmlns="http://www.w3.org/2000/svg">
<path d="M148.866 183.2L176.566 141.6C180.066 136.3 176.266 129.2 169.866 129.2H154.766C154.766 129.2 151.766 115.2 156.766 105.2C159.766 99.2003 165.766 95.2003 165.766 83.2003C165.766 71.2003 161.766 69.2003 161.766 63.2003C161.766 58.2003 164.766 55.2003 166.766 53.2003L170.366 49.6003C171.666 48.3003 170.766 46.2003 168.966 46.2003H166.766C168.766 41.2003 164.766 39.2003 164.766 39.2003L156.766 47.2003C151.266 47.2003 146.766 51.7003 146.766 57.2003H139.866C139.266 57.2003 138.766 57.7003 138.866 58.3003C139.466 62.2003 142.766 65.2003 146.766 65.2003C146.766 79.2003 132.766 86.2003 124.766 98.2003C120.766 104.2 116.766 113.2 116.766 123.2C107.966 123.2 100.766 116 100.766 107.2C100.766 104.9 101.366 102.5 102.066 100.7C102.366 100 101.766 99.2003 101.066 99.4003C93.4656 100.5 84.7656 109 84.7656 119.3C84.7656 133.3 98.7656 142.3 118.766 142.3C123.766 142.3 126.766 140.3 126.766 137.3C126.766 134.3 123.766 132.3 118.766 132.3C99.7656 132.3 50.7656 154.3 18.7656 178.3M33.7656 11.5003C29.1656 11.0003 24.6656 11.2003 20.3656 12.1003C19.3656 12.3003 19.2656 13.6003 20.2656 14.0003C37.0656 20.2003 48.9656 36.3003 48.9656 55.3003C48.9656 74.2003 37.0656 90.3003 20.2656 96.5003C19.3656 96.9003 19.4656 98.2003 20.4656 98.4003C23.2656 98.9003 26.0656 99.2003 28.9656 99.2003C54.1656 99.2003 74.3656 78.1003 72.8656 52.6003C71.5656 31.4003 54.9656 13.8003 33.7656 11.5003Z" stroke="url(#paint0_linear)" stroke-width="2.5" stroke-miterlimit="10" stroke-linecap="round" stroke-linejoin="round"/>
<defs>
<linearGradient id="paint0_linear" x1="98.3317" y1="11.2324" x2="98.3317" y2="183.2" gradientUnits="userSpaceOnUse">
<stop stop-color="#93C437"/>
<stop offset="1" stop-color="#279BE8"/>
</linearGradient>
</defs>
</svg>
