<svg width="192" height="192" viewBox="0 0 192 192" fill="none" xmlns="http://www.w3.org/2000/svg">
<path d="M33.7656 11.5L33.6306 12.7427L33.6308 12.7427L33.7656 11.5ZM20.3656 12.1L20.6108 13.3257L20.6217 13.3235L20.3656 12.1ZM20.2656 14L19.8014 15.1606C19.8118 15.1647 19.8223 15.1688 19.8328 15.1727L20.2656 14ZM20.2656 96.5L19.8328 95.3273C19.8076 95.3366 19.7826 95.3468 19.758 95.3577L20.2656 96.5ZM20.4656 98.4L20.2205 99.6257C20.2289 99.6274 20.2374 99.629 20.2459 99.6305L20.4656 98.4ZM72.8656 52.6L74.1135 52.5266L74.1133 52.5235L72.8656 52.6ZM147.825 182.507C147.443 183.082 147.598 183.858 148.173 184.24C148.747 184.623 149.523 184.467 149.906 183.893L147.825 182.507ZM176.566 141.6L177.606 142.293L177.609 142.289L176.566 141.6ZM154.766 129.2L153.543 129.462C153.667 130.038 154.176 130.45 154.766 130.45V129.2ZM166.766 53.2L167.65 54.0839V54.0839L166.766 53.2ZM170.366 49.6L169.482 48.7161V48.7161L170.366 49.6ZM166.766 46.2L165.605 45.7357C165.451 46.1208 165.498 46.5573 165.731 46.9008C165.963 47.2442 166.351 47.45 166.766 47.45V46.2ZM164.766 39.2L165.325 38.0819C164.843 37.8413 164.262 37.9356 163.882 38.3161L164.766 39.2ZM156.766 47.2V48.45C157.097 48.45 157.415 48.3183 157.65 48.0839L156.766 47.2ZM146.766 57.2V58.45C147.456 58.45 148.016 57.8903 148.016 57.2H146.766ZM138.866 58.3L140.101 58.1099C140.1 58.1048 140.099 58.0996 140.099 58.0945L138.866 58.3ZM146.766 65.2H148.016C148.016 64.5096 147.456 63.95 146.766 63.95V65.2ZM116.766 123.2V124.45C117.456 124.45 118.016 123.89 118.016 123.2H116.766ZM102.066 100.7L100.917 100.208C100.911 100.221 100.906 100.234 100.901 100.247L102.066 100.7ZM101.066 99.4L101.245 100.637C101.3 100.629 101.355 100.617 101.409 100.602L101.066 99.4ZM18.0156 177.3C17.4633 177.714 17.3514 178.498 17.7656 179.05C18.1798 179.602 18.9633 179.714 19.5156 179.3L18.0156 177.3ZM33.9007 10.2573C29.1775 9.74391 24.5452 9.94809 20.1095 10.8765L20.6217 13.3235C24.786 12.4519 29.1537 12.256 33.6306 12.7427L33.9007 10.2573ZM20.1205 10.8742C19.0491 11.0885 18.3774 11.9475 18.3181 12.897C18.2589 13.8437 18.8078 14.7631 19.8014 15.1606L20.7299 12.8394C20.7101 12.8315 20.7405 12.8399 20.7726 12.8902C20.8014 12.9354 20.817 12.9925 20.8132 13.0529C20.8094 13.1131 20.7859 13.1811 20.7352 13.24C20.6796 13.3047 20.6216 13.3235 20.6108 13.3257L20.1205 10.8742ZM19.8328 15.1727C36.1552 21.1964 47.7156 36.8376 47.7156 55.3H50.2156C50.2156 35.7624 37.9761 19.2036 20.6984 12.8273L19.8328 15.1727ZM47.7156 55.3C47.7156 73.6607 36.1567 89.303 19.8328 95.3273L20.6984 97.6727C37.9745 91.297 50.2156 74.7392 50.2156 55.3H47.7156ZM19.758 95.3577C17.8294 96.2149 17.934 99.1684 20.2205 99.6257L20.7108 97.1743C20.7227 97.1766 20.7775 97.1954 20.829 97.2545C20.8746 97.307 20.8935 97.3634 20.8977 97.4083C20.9018 97.4525 20.8936 97.5012 20.867 97.5485C20.8366 97.6028 20.7946 97.6328 20.7733 97.6422L19.758 95.3577ZM20.2459 99.6305C23.1034 100.141 25.9781 100.45 28.9656 100.45V97.95C26.1531 97.95 23.4278 97.6592 20.6854 97.1694L20.2459 99.6305ZM28.9656 100.45C54.8798 100.45 75.656 78.7496 74.1135 52.5266L71.6178 52.6734C73.0753 77.4504 53.4514 97.95 28.9656 97.95V100.45ZM74.1133 52.5235C72.7764 30.7216 55.712 12.6236 33.9004 10.2573L33.6308 12.7427C54.2192 14.9763 70.3549 32.0783 71.618 52.6765L74.1133 52.5235ZM149.906 183.893L177.606 142.293L175.525 140.907L147.825 182.507L149.906 183.893ZM177.609 142.289C181.658 136.157 177.26 127.95 169.866 127.95V130.45C175.271 130.45 178.473 136.443 175.523 140.911L177.609 142.289ZM169.866 127.95H154.766V130.45H169.866V127.95ZM154.766 129.2C155.988 128.938 155.988 128.938 155.988 128.938C155.988 128.938 155.988 128.939 155.988 128.939C155.988 128.939 155.988 128.938 155.988 128.938C155.988 128.937 155.987 128.935 155.987 128.933C155.986 128.927 155.984 128.919 155.981 128.907C155.977 128.884 155.969 128.847 155.959 128.798C155.94 128.7 155.912 128.552 155.877 128.358C155.807 127.97 155.712 127.401 155.613 126.685C155.415 125.251 155.201 123.236 155.14 120.917C155.017 116.247 155.519 110.489 157.884 105.759L155.648 104.641C153.013 109.911 152.514 116.153 152.641 120.983C152.705 123.414 152.929 125.524 153.137 127.027C153.241 127.78 153.341 128.383 153.416 128.8C153.454 129.009 153.485 129.171 153.507 129.283C153.518 129.339 153.527 129.382 153.533 129.412C153.536 129.427 153.538 129.439 153.54 129.447C153.541 129.451 153.542 129.455 153.542 129.457C153.543 129.458 153.543 129.459 153.543 129.46C153.543 129.46 153.543 129.461 153.543 129.461C153.543 129.462 153.543 129.462 154.766 129.2ZM157.884 105.759C158.588 104.35 159.477 103.043 160.462 101.636C161.434 100.247 162.502 98.7579 163.473 97.0746C165.446 93.6558 167.016 89.4424 167.016 83.2H164.516C164.516 88.9575 163.086 92.7441 161.308 95.8253C160.404 97.3921 159.41 98.7784 158.413 100.202C157.43 101.607 156.443 103.05 155.648 104.641L157.884 105.759ZM167.016 83.2C167.016 77.0318 165.982 73.3868 164.94 70.5228C163.893 67.6434 163.016 65.9187 163.016 63.2H160.516C160.516 66.4813 161.638 68.7566 162.591 71.3771C163.549 74.0131 164.516 77.3681 164.516 83.2H167.016ZM163.016 63.2C163.016 58.7621 165.643 56.0902 167.65 54.0839L165.882 52.3161C163.888 54.3098 160.516 57.6378 160.516 63.2H163.016ZM167.65 54.0839L171.249 50.4839L169.482 48.7161L165.882 52.3161L167.65 54.0839ZM171.249 50.4839C173.347 48.386 171.865 44.95 168.966 44.95V47.45C169.667 47.45 169.984 48.2139 169.482 48.7161L171.249 50.4839ZM168.966 44.95H166.766V47.45H168.966V44.95ZM167.926 46.6642C169.08 43.7801 168.533 41.5973 167.556 40.1316C167.087 39.4293 166.546 38.9276 166.124 38.6015C165.911 38.4373 165.725 38.3141 165.585 38.2291C165.516 38.1865 165.457 38.1531 165.413 38.1288C165.391 38.1166 165.372 38.1066 165.358 38.0988C165.35 38.0949 165.344 38.0916 165.338 38.0888C165.335 38.0874 165.333 38.0861 165.331 38.085C165.33 38.0844 165.328 38.0839 165.327 38.0833C165.327 38.0831 165.326 38.0827 165.326 38.0826C165.325 38.0823 165.325 38.0819 164.766 39.2C164.207 40.318 164.206 40.3177 164.205 40.3174C164.205 40.3173 164.205 40.317 164.204 40.3168C164.203 40.3164 164.203 40.316 164.202 40.3157C164.201 40.3151 164.2 40.3145 164.199 40.3141C164.197 40.3133 164.196 40.3128 164.197 40.3129C164.197 40.313 164.2 40.3148 164.207 40.3185C164.22 40.3259 164.246 40.3404 164.282 40.3623C164.354 40.4061 164.464 40.4782 164.595 40.5797C164.86 40.7848 165.194 41.0957 165.476 41.5183C165.998 42.3026 166.451 43.6199 165.605 45.7357L167.926 46.6642ZM163.882 38.3161L155.882 46.3161L157.65 48.0839L165.65 40.0839L163.882 38.3161ZM156.766 45.95C150.575 45.95 145.516 51.0096 145.516 57.2H148.016C148.016 52.3903 151.956 48.45 156.766 48.45V45.95ZM146.766 55.95H139.866V58.45H146.766V55.95ZM139.866 55.95C138.626 55.95 137.385 57.0183 137.633 58.5055L140.099 58.0945C140.107 58.143 140.104 58.2008 140.085 58.2575C140.068 58.3118 140.041 58.3524 140.015 58.3799C139.967 58.4314 139.912 58.45 139.866 58.45V55.95ZM137.63 58.49C138.319 62.9675 142.116 66.45 146.766 66.45V63.95C143.415 63.95 140.612 61.4325 140.101 58.1099L137.63 58.49ZM145.516 65.2C145.516 71.7283 142.274 76.6833 137.837 81.6138C135.596 84.1034 133.16 86.4731 130.672 89.0884C128.218 91.6692 125.785 94.4176 123.726 97.5066L125.806 98.8933C127.746 95.9824 130.064 93.3557 132.484 90.8115C134.871 88.3018 137.435 85.7965 139.695 83.2862C144.257 78.2166 148.016 72.6717 148.016 65.2H145.516ZM123.726 97.5066C119.636 103.641 115.516 112.88 115.516 123.2H118.016C118.016 113.52 121.896 104.759 125.806 98.8933L123.726 97.5066ZM116.766 121.95C108.656 121.95 102.016 115.31 102.016 107.2H99.5156C99.5156 116.69 107.275 124.45 116.766 124.45V121.95ZM102.016 107.2C102.016 105.094 102.571 102.851 103.231 101.153L100.901 100.247C100.161 102.149 99.5156 104.706 99.5156 107.2H102.016ZM103.215 101.192C103.559 100.389 103.381 99.5403 102.935 98.9549C102.483 98.3613 101.655 97.9314 100.722 98.1981L101.409 100.602C101.315 100.629 101.206 100.624 101.11 100.587C101.023 100.553 100.972 100.504 100.946 100.47C100.9 100.41 100.872 100.311 100.917 100.208L103.215 101.192ZM100.887 98.1629C96.731 98.7643 92.403 101.353 89.1274 105.074C85.8391 108.81 83.5156 113.793 83.5156 119.3H86.0156C86.0156 114.507 88.0421 110.09 91.0039 106.726C93.9782 103.347 97.8002 101.136 101.245 100.637L100.887 98.1629ZM83.5156 119.3C83.5156 126.778 87.2772 132.893 93.5723 137.09C99.8341 141.265 108.597 143.55 118.766 143.55V141.05C108.934 141.05 100.697 138.835 94.959 135.01C89.2541 131.207 86.0156 125.822 86.0156 119.3H83.5156ZM118.766 143.55C121.41 143.55 123.67 143.024 125.312 141.98C126.996 140.907 128.016 139.284 128.016 137.3H125.516C125.516 138.316 125.035 139.193 123.97 139.87C122.862 140.575 121.121 141.05 118.766 141.05V143.55ZM128.016 137.3C128.016 135.316 126.996 133.693 125.312 132.62C123.67 131.575 121.41 131.05 118.766 131.05V133.55C121.121 133.55 122.862 134.024 123.97 134.73C125.035 135.407 125.516 136.284 125.516 137.3H128.016ZM118.766 131.05C113.822 131.05 107.051 132.471 99.2507 134.92C91.4242 137.376 82.4687 140.897 73.1216 145.163C54.4325 153.692 34.1014 165.236 18.0156 177.3L19.5156 179.3C35.4298 167.364 55.5988 155.908 74.1596 147.437C83.4375 143.203 92.2945 139.724 99.9993 137.305C107.73 134.879 114.209 133.55 118.766 133.55V131.05Z" fill="url(#paint0_linear_11202_12755)"/>
<defs>
<linearGradient id="paint0_linear_11202_12755" x1="98.3317" y1="11.2321" x2="98.3317" y2="183.2" gradientUnits="userSpaceOnUse">
<stop stop-color="#F55868"/>
<stop offset="1" stop-color="#875AE0"/>
</linearGradient>
</defs>
</svg>
