<svg width="96" height="96" viewBox="0 0 96 96" fill="none" xmlns="http://www.w3.org/2000/svg">
<path d="M93.4615 52.3769V44.0846C93.4615 42.9538 92.7077 41.8231 91.5769 41.4462C86.3 39.5615 83.2846 38.8077 81.4 34.6615C79.5154 30.5154 81.4 27.5 83.6615 22.6C84.0385 21.4692 84.0385 20.3385 83.2846 19.2077L77.6308 13.5538C76.8769 12.8 75.3692 12.4231 74.2385 13.1769C69.3385 15.4385 66.3231 17.3231 62.1769 15.4385C58.0308 13.5538 56.9 10.1615 55.3923 5.26154C54.6385 3.75385 53.5077 3 52.3769 3H44.0846C42.9538 3 41.8231 3.75385 41.4462 4.88462C39.5615 9.78461 38.8077 13.1769 34.6615 15.0615C30.5154 16.9462 27.5 15.0615 22.6 12.8C21.4692 12.4231 19.9615 12.4231 19.2077 13.5538L13.5538 19.2077C12.4231 19.9615 12.4231 21.4692 12.8 22.2231C15.0615 27.1231 16.9462 30.1385 15.0615 34.2846C13.1769 38.4308 9.78461 39.5615 4.88462 41.0692C3.75385 41.8231 3 42.9538 3 44.0846V52.3769C3 53.5077 3.75385 54.6385 4.88462 55.0154C9.78461 56.9 13.1769 57.6538 15.0615 61.8C16.9462 65.9462 15.0615 69.3385 12.8 73.8615C12.4231 74.9923 12.4231 76.1231 13.1769 77.2538L18.8308 82.9077C19.5846 83.6615 21.0923 84.0385 22.2231 83.2846C27.1231 81.0231 30.1385 79.1385 34.2846 81.0231C38.4308 82.9077 39.5615 86.3 41.0692 91.2C41.4462 92.3308 42.5769 93.0846 43.7077 93.0846H52C53.1308 93.0846 54.2615 92.3308 54.6385 91.2C56.5231 86.3 57.2769 82.9077 61.4231 81.0231C65.5692 79.1385 68.5846 81.0231 73.4846 83.2846C74.6154 83.6615 75.7462 83.6615 76.8769 82.9077L82.5308 77.2538C83.2846 76.5 83.6615 74.9923 82.9077 73.8615C80.6462 68.9615 78.7615 65.9462 80.6462 61.8C82.5308 57.6538 85.9231 56.5231 90.8231 55.0154C92.7077 54.6385 93.4615 53.5077 93.4615 52.3769ZM50.4923 63.3077C40.3154 64.8154 31.6462 56.1462 33.1538 45.9692C34.2846 39.5615 39.1846 34.2846 45.5923 33.5308C55.7692 32.0231 64.4385 40.6923 62.9308 50.8692C62.1769 56.9 56.9 62.1769 50.4923 63.3077Z" stroke="black" stroke-width="5" stroke-miterlimit="10"/>
</svg>
