<svg width="500" height="500" viewBox="0 0 500 500" fill="none" xmlns="http://www.w3.org/2000/svg">
<path opacity="0.3" d="M250 500C388.071 500 500 388.071 500 250C500 111.929 388.071 0 250 0C111.929 0 0 111.929 0 250C0 388.071 111.929 500 250 500Z" fill="#F69481"/>
<path d="M259.334 188.258C259.334 183.057 255.136 178.841 249.959 178.841C244.781 178.841 240.584 183.057 240.584 188.258V269.925C240.584 275.125 244.781 279.341 249.959 279.341C255.136 279.341 259.334 275.125 259.334 269.925V188.258Z" fill="#F2634C"/>
<path d="M250.001 316.587C255.201 316.587 259.417 312.371 259.417 307.171C259.417 301.97 255.201 297.754 250.001 297.754C244.8 297.754 240.584 301.97 240.584 307.171C240.584 312.371 244.8 316.587 250.001 316.587Z" fill="#F2634C"/>
<path d="M232.586 121.33L111.169 331.663C109.395 334.719 108.459 338.189 108.455 341.722C108.451 345.256 109.378 348.728 111.145 351.788C112.912 354.848 115.455 357.388 118.518 359.152C121.579 360.914 125.053 361.838 128.586 361.83H371.419C374.953 361.838 378.426 360.914 381.488 359.152C384.551 357.388 387.093 354.848 388.86 351.788C390.627 348.728 391.555 345.256 391.551 341.722C391.547 338.189 390.61 334.719 388.836 331.663L267.419 121.33C265.66 118.266 263.123 115.72 260.065 113.949C257.008 112.179 253.537 111.247 250.003 111.247C246.469 111.247 242.998 112.179 239.94 113.949C236.883 115.72 234.346 118.266 232.586 121.33Z" stroke="#F2634C" stroke-miterlimit="10"/>
</svg>
