<svg width="20" height="20" viewBox="0 0 20 20" xmlns="http://www.w3.org/2000/svg"><title>settings/4-way-navigation_20</title><path d="M10.3535.1465l2.969 2.969c.195.195.195.511 0 .707-.098.097-.226.146-.354.146-.128 0-.256-.049-.353-.146l-2.616-2.615-2.615 2.615c-.195.195-.511.195-.707 0-.195-.196-.195-.512 0-.707l2.969-2.969c.195-.195.512-.195.707 0zm2.2617 16.0312c.195-.195.512-.195.707 0 .195.195.195.512 0 .707l-2.969 2.969c-.097.097-.225.146-.353.146-.128 0-.256-.049-.354-.146l-2.968-2.969c-.196-.195-.196-.512 0-.707.195-.195.511-.195.707 0l2.615 2.615 2.615-2.615zm-8.7929-9.5c.195.195.195.512 0 .707l-2.615 2.615 2.615 2.615c.195.196.195.512 0 .708-.098.097-.226.146-.354.146-.127 0-.255-.049-.353-.146l-2.969-2.969c-.195-.196-.195-.512 0-.707l2.969-2.969c.195-.195.512-.195.707 0zm16.0312 2.9688c.195.195.195.512 0 .707l-2.969 2.969c-.097.097-.225.146-.353.146-.128 0-.256-.049-.354-.146-.195-.196-.195-.512 0-.707l2.615-2.615-2.615-2.616c-.195-.195-.195-.511 0-.707.196-.195.512-.195.707 0l2.969 2.969zM10 10.5c-.07 0-.13-.011-.19-.04-.06-.021-.12-.061-.16-.11-.1-.09-.15-.22-.15-.35 0-.07.01-.13.04-.19.02-.06.06-.121.11-.161.13-.139.35-.189.54-.109.06.02.12.06.16.109.05.04.09.101.11.161.03.06.04.129.04.19 0 .069-.01.13-.04.189-.02.061-.06.121-.11.161-.04.049-.1.089-.16.11-.06.029-.12.04-.19.04z" fill="#000" fill-rule="evenodd"/></svg>