<svg width="16" height="16" viewBox="0 0 16 16" xmlns="http://www.w3.org/2000/svg"><title>settings/accessories_16</title><path d="M13 11l0 2c0 .551-.449 1-1 1l-8 0c-.551 0-1-.449-1-1l0-8c0-.551.449-1 1-1l2.592 0c.162 0 .314-.079.408-.211.094-.133.117-.303.063-.456C7.021 3.213 7 3.104 7 3c0-.551.449-1 1-1 .551 0 1 .449 1 1 0 .104-.021.213-.063.333-.054.153-.031.323.063.456.094.132.246.211.408.211L12 4c.551 0 1 .449 1 1l0 2c-.059 0-.115.012-.173.017-.073.006-.146.009-.217.022-.038.008-.073.022-.11.032-.199.051-.384.13-.555.237-.022.014-.047.025-.07.04-.07.048-.131.104-.195.161-.045.04-.089.078-.13.122-.05.053-.094.108-.138.166-.046.061-.088.124-.127.189-.031.054-.062.107-.088.164-.04.084-.071.172-.099.262-.015.048-.033.094-.044.143-.033.144-.054.292-.054.445 0 1.103.897 2 2 2m.333-2.937c.073.026.147.03.218.022.022-.002.04-.01.061-.015.052-.012.1-.03.145-.057.01-.006.022-.006.032-.013.011-.008.016-.022.026-.031.038-.031.069-.068.096-.11.015-.022.029-.042.04-.067.006-.012.016-.02.02-.033.014-.039.013-.078.017-.118.002-.017.012-.032.012-.049L14 5c0-1.103-.897-2-2-2l-2 0c0-1.103-.897-2-2-2-1.103 0-2 .897-2 2L4 3c-1.103 0-2 .897-2 2l0 8c0 1.103.897 2 2 2l8 0c1.103 0 2-.897 2-2l0-2.592c0-.017-.01-.032-.012-.049-.004-.04-.003-.079-.017-.118-.004-.013-.014-.021-.02-.033-.011-.025-.025-.045-.04-.067-.027-.042-.057-.078-.095-.109-.011-.01-.016-.024-.027-.032-.01-.007-.023-.007-.033-.013-.043-.026-.089-.043-.139-.055-.023-.006-.044-.015-.068-.018-.071-.007-.144-.002-.216.023C12.58 10.204 12 9.655 12 9c0-.655.58-1.205 1.333-.937" fill-rule="evenodd"/></svg>