<svg width="16" height="16" viewBox="0 0 16 16" xmlns="http://www.w3.org/2000/svg"><title>settings/accessories-active_16</title><path d="M13.333 8.063c.073.026.147.03.218.022.022-.002.04-.01.061-.015.052-.012.1-.03.145-.057.01-.006.022-.006.032-.013.011-.008.016-.022.026-.031.038-.031.069-.068.096-.11.015-.022.029-.042.04-.067.006-.012.016-.02.02-.033.014-.039.013-.078.017-.118.002-.017.012-.032.012-.049L14 5c0-1.103-.897-2-2-2l-2 0c0-1.103-.897-2-2-2-1.103 0-2 .897-2 2L4 3c-1.103 0-2 .897-2 2l0 8c0 1.103.897 2 2 2l8 0c1.103 0 2-.897 2-2l0-2.592c0-.017-.01-.032-.012-.049-.004-.04-.003-.079-.017-.118-.004-.013-.014-.021-.02-.033-.011-.025-.025-.045-.04-.067-.027-.042-.057-.078-.095-.109-.011-.01-.016-.024-.027-.032-.01-.007-.023-.007-.033-.013-.043-.026-.089-.043-.139-.055-.023-.006-.044-.015-.068-.018-.071-.007-.144-.002-.216.023C12.58 10.204 12 9.655 12 9c0-.655.58-1.205 1.333-.937" fill-rule="evenodd"/></svg>