<svg width="18" height="18" viewBox="0 0 18 18" xmlns="http://www.w3.org/2000/svg"><title>settings/accessories_18</title><path d="M14 14c.167 0 .333-.016.496-.043.056-.01.109-.028.165-.042.105-.023.209-.047.311-.082.009-.003.019-.005.028-.008L15 16c0 .552-.449 1-1 1L4 17c-.551 0-1-.448-1-1L3 6c0-.552.449-1 1-1l3.011 0c.19 0 .364-.107.448-.277.084-.17.065-.373-.049-.525C7.142 3.844 7 3.429 7 3c0-1.103.897-2 2-2 1.103 0 2 .897 2 2 0 .429-.142.844-.41 1.198-.114.152-.133.355-.049.525.084.17.258.277.448.277L14 5c.551 0 1 .448 1 1l0 2.175c-.009-.003-.019-.005-.028-.008-.102-.035-.206-.059-.311-.082-.056-.014-.109-.032-.165-.042C14.333 8.016 14.167 8 14 8c-1.654 0-3 1.346-3 3 0 1.654 1.346 3 3 3m0-5c.43 0 .844.142 1.198.41.069.052.148.076.227.089.023.003.043.003.066.003.069.002.134-.011.198-.037.011-.004.023-.001.034-.006.004-.002.005-.006.009-.008.063-.033.121-.077.166-.138.006-.007.007-.017.013-.025.011-.017.016-.035.026-.054.03-.059.048-.121.052-.185.002-.014.011-.024.011-.037L16 6c0-1.103-.897-2-2-2l-2.175 0c.115-.319.175-.656.175-1 0-1.654-1.346-3-3-3-1.654 0-3 1.346-3 3 0 .344.06.681.175 1L4 4c-1.103 0-2 .897-2 2l0 10c0 1.103.897 2 2 2l10 0c1.103 0 2-.897 2-2l0-3.012c0-.013-.009-.023-.011-.037-.004-.064-.022-.126-.052-.185-.01-.019-.015-.037-.026-.054-.006-.008-.007-.018-.013-.025-.045-.061-.104-.106-.168-.139-.003-.001-.004-.005-.007-.007-.009-.005-.019-.001-.029-.005-.066-.029-.135-.041-.208-.039-.02 0-.038 0-.057.003-.081.012-.161.036-.231.09-.354.268-.768.41-1.198.41-1.103 0-2-.897-2-2 0-1.103.897-2 2-2" fill-rule="evenodd"/></svg>