<svg width="32" height="32" viewBox="0 0 32 32" xmlns="http://www.w3.org/2000/svg"><title>meetings/active-speaker_32</title><path d="M15.115 30c-.128 0-.256-.049-.354-.146-.195-.196-.195-.512 0-.708 3.389-3.388 5.255-8.057 5.254-13.146-.001-5.091-1.866-9.759-5.254-13.146-.195-.196-.195-.512 0-.708.196-.195.512-.195.708 0 3.576 3.577 5.545 8.497 5.546 13.854.001 5.355-1.969 10.275-5.546 13.854-.098.097-.226.146-.354.146zm-3.1148-5c-.128 0-.256-.049-.354-.146-.195-.196-.195-.512 0-.708 4.492-4.492 4.492-11.8 0-16.292-.195-.196-.195-.512 0-.708.196-.195.512-.195.708 0 4.881 4.882 4.881 12.826 0 17.708-.098.097-.226.146-.354.146z" fill-rule="evenodd"/></svg>