<svg width="12" height="12" viewBox="0 0 12 12" xmlns="http://www.w3.org/2000/svg"><title>meetings/active-speaker-muted_12</title><path d="M11.8535.1465c-.195-.195-.512-.195-.707 0l-3.499 3.499c-.271-.91-.683-1.752-1.25-2.458-.173-.215-.486-.249-.703-.077-.215.173-.249.488-.076.703.595.741.993 1.66 1.204 2.657l-.872.872c-.11-.976-.46-1.884-1.056-2.647-.171-.219-.487-.256-.702-.087-.218.17-.257.485-.087.702.59.755.899 1.684.894 2.687 0 .107-.012.212-.021.317l-4.832 4.832c-.195.195-.195.512 0 .707.098.098.226.147.353.147.128 0 .256-.049.354-.147l6.125-6.125c.004.091.021.179.021.272 0 1.589-.492 3.076-1.385 4.186-.173.215-.139.53.076.703.093.074.203.111.313.111.146 0 .291-.064.39-.187 1.036-1.287 1.606-2.996 1.606-4.813 0-.408-.038-.807-.093-1.199l3.947-3.948c.195-.195.195-.512 0-.707" fill="#000" fill-rule="evenodd"/></svg>