<svg width="12" height="12" viewBox="0 0 12 12" fill="none" xmlns="http://www.w3.org/2000/svg">
<path fill-rule="evenodd" clip-rule="evenodd" d="M6 0C2.691 0 0 2.691 0 6C0 7.483 0.553 8.905 1.531 10H0.5C0.225 10 0 10.225 0 10.5C0 10.775 0.225 11 0.5 11H2.5C2.775 11 3 10.775 3 10.5V8.5C3 8.225 2.775 8 2.5 8C2.225 8 2 8.225 2 8.5V8.996C1.357 8.139 1 7.089 1 6C1 3.243 3.243 1 6 1C8.757 1 11 3.243 11 6C11 8.757 8.757 11 6 11C5.543 11 5.092 10.938 4.658 10.818C4.391 10.744 4.117 10.899 4.043 11.166C3.969 11.432 4.124 11.707 4.391 11.781C4.911 11.927 5.452 12 6 12C9.309 12 12 9.309 12 6C12 2.691 9.309 0 6 0M6 3.001C5.724 3.001 5.5 3.225 5.5 3.501V6.543C5.5 6.81 5.604 7.062 5.793 7.25L7.137 8.594C7.234 8.691 7.362 8.74 7.49 8.74C7.618 8.74 7.746 8.691 7.844 8.594C8.039 8.398 8.039 8.082 7.844 7.887L6.5 6.543V3.501C6.5 3.225 6.276 3.001 6 3.001" fill="#121212"/>
</svg>
