<svg width="12" height="12" viewBox="0 0 12 12" xmlns="http://www.w3.org/2000/svg"><title>meetings/active-speaker-alert_12</title><path d="M1.895 2.6949c.728.934 1.111 2.077 1.105 3.308-.006 1.223-.387 2.364-1.103 3.301-.098.129-.247.196-.397.196-.106 0-.213-.034-.304-.103-.219-.168-.26-.481-.093-.701.583-.761.892-1.694.897-2.699.005-1.003-.305-1.932-.895-2.687-.169-.217-.13-.532.087-.702.215-.169.532-.132.703.087zm8.9491 6.6407c.123.207.164.437.141.664-.015.153-.054.305-.136.444-.08.136-.189.243-.311.331-.19.14-.418.225-.668.225l-5.741 0c-.248 0-.475-.084-.665-.223-.011-.007-.017-.02-.028-.029-.015.021-.026.045-.042.064-.099.124-.244.188-.39.188-.11 0-.221-.036-.313-.11-.215-.174-.249-.489-.077-.703.193-.24.359-.505.514-.778.012-.024.014-.051.028-.074l.111-.187c.471-.931.733-2.01.733-3.148 0-1.591-.491-3.078-1.382-4.188-.173-.214-.138-.529.076-.702.217-.173.531-.138.704.077 1.033 1.286 1.602 2.995 1.602 4.813 0 .094-.019.183-.022.276l1.049-1.76c.123-.207.314-.344.527-.426.142-.055.293-.09.446-.09.152 0 .301.035.442.089.215.082.407.219.53.425.001 0 .001.002.001.002l2.871 4.82zm-6.912.664l6.144 0-3.078-5.164-2.86 4.808c-.063.123-.136.238-.206.356zm2.5689-3.5c0-.275.225-.5.5-.5.275 0 .5.225.5.5l0 1c0 .275-.225.5-.5.5-.275 0-.5-.225-.5-.5l0-1zm.5 2c.276 0 .5.224.5.5 0 .276-.224.5-.5.5-.276 0-.5-.224-.5-.5 0-.276.224-.5.5-.5z" fill="#000" fill-rule="evenodd"/></svg>