<svg width="16" height="16" viewBox="0 0 16 16" xmlns="http://www.w3.org/2000/svg" xmlns:xlink="http://www.w3.org/1999/xlink"><title>meetings/add-option_16</title><defs><path id="a" d="M.0000902838 0L15.998 0l0 16L.0000902838 16z"/></defs><g fill="none" fill-rule="evenodd"><mask id="b" fill="#fff"><use xlink:href="#a"/></mask><path d="M11.4984 15c-1.93 0-3.5-1.57-3.5-3.5 0-1.93 1.57-3.5 3.5-3.5 1.93 0 3.5 1.57 3.5 3.5 0 1.93-1.57 3.5-3.5 3.5zm-4.639-7.237l-.26 1.239-1.592 0 0-3.5c0-.276-.224-.5-.5-.5-.277 0-.5.224-.5.5l0 3.5-1.682 0-.29-1.397c-.1-.494-.255-.896-.472-1.229-.375-.575-.758-1.517-.46-2.736.309-1.257 1.354-2.284 2.602-2.555.262-.057.524-.085.784-.085.802 0 1.576.266 2.203.771.83.668 1.306 1.663 1.306 2.727 0 .698-.215 1.377-.621 1.964-.241.348-.41.773-.518 1.301zm-.682 3.239l-3.436 0-.208-1 3.855 0-.211 1zm-1.719 2c-.657 0-1.22-.412-1.459-1l2.918 0c-.238.587-.801 1-1.459 1zM11.4984 7c-1.728 0-3.21.984-3.965 2.413l.307-1.452c.079-.391.196-.695.359-.929.523-.756.799-1.632.799-2.534 0-1.369-.611-2.646-1.679-3.506-1.066-.859-2.462-1.18-3.827-.885-1.638.357-2.956 1.65-3.359 3.295-.3 1.223-.09 2.473.593 3.52.147.225.254.514.329.882l.863 4.15c.248 1.187 1.316 2.048 2.54 2.048 1.224 0 2.292-.861 2.539-2.044l.032-.151c.16 2.339 2.089 4.193 4.469 4.193 2.485 0 4.5-2.015 4.5-4.5 0-2.485-2.015-4.5-4.5-4.5z" fill="#000" mask="url(#b)"/><path d="M12.9984 11l-1 0 0-1c0-.275-.225-.5-.5-.5-.275 0-.5.225-.5.5l0 1-1 0c-.275 0-.5.225-.5.5 0 .275.225.5.5.5l1 0 0 1c0 .275.225.5.5.5.275 0 .5-.225.5-.5l0-1 1 0c.275 0 .5-.225.5-.5 0-.275-.225-.5-.5-.5" fill="#000"/></g></svg>