<svg width="12" height="12" viewBox="0 0 12 12" xmlns="http://www.w3.org/2000/svg"><title>video-controls/add-video-marker_12</title><path d="M9.5 0c.825 0 1.5.675 1.5 1.5l0 5.959c0 .608-.276 1.184-.75 1.562l-3.313 2.651C6.663 11.891 6.332 12 6 12c-.332 0-.663-.109-.937-.328L1.75 9.021C1.276 8.643 1 8.067 1 7.459L1 1.5C1 .675 1.675 0 2.5 0l7 0zm.5 7.459L10 1.5c0-.271-.229-.5-.5-.5l-7 0c-.271 0-.5.229-.5.5l0 5.959c0 .307.137.591.375.781l3.313 2.651c.113.089.232.109.312.109.08 0 .199-.02.312-.109L9.625 8.24c.238-.19.375-.474.375-.781zM8 4c.275 0 .5.225.5.5 0 .275-.225.5-.5.5L6.5 5l0 1.5c0 .275-.225.5-.5.5-.275 0-.5-.225-.5-.5l0-1.5L4 5c-.275 0-.5-.225-.5-.5 0-.275.225-.5.5-.5l1.5 0 0-1.5c0-.275.225-.5.5-.5.275 0 .5.225.5.5l0 1.5L8 4z" fill="#000" fill-rule="evenodd"/></svg>