<svg width="12" height="12" viewBox="0 0 12 12" xmlns="http://www.w3.org/2000/svg"><title>meetings/add-poll_12</title><path d="M1 10l1 0 0-5-1 0 0 5zm1-6c.552 0 1 .447 1 1l0 5c0 .553-.448 1-1 1l-1 0c-.552 0-1-.447-1-1l0-5c0-.553.448-1 1-1l1 0zm3.5 2c.552 0 1 .447 1 1l0 3c0 .553-.448 1-1 1l-1 0c-.552 0-1-.447-1-1l0-3c0-.553.448-1 1-1l1 0zm-1 4l1 0 0-3-1 0 0 3zm7-2c.275 0 .5.225.5.5 0 .275-.225.5-.5.5L10 9l0 1.5c0 .275-.225.5-.5.5-.275 0-.5-.225-.5-.5L9 9 7.5 9c-.275 0-.5-.225-.5-.5 0-.275.225-.5.5-.5L9 8l0-1.5c0-.275.225-.5.5-.5.275 0 .5.225.5.5L10 8l1.5 0zm-4-1c-.275 0-.5-.225-.5-.5l0-1 0-.001L7 2c0-.553.448-1 1-1l1 0c.552 0 1 .447 1 1l0 2.5c0 .275-.226.5-.5.5-.275 0-.5-.225-.5-.5L9 2 8 2l0 4 0 .5c0 .275-.226.5-.5.5z" fill-rule="evenodd"/></svg>