<svg width="14" height="14" viewBox="0 0 14 14" xmlns="http://www.w3.org/2000/svg"><title>meetings/add-poll_14</title><path d="M3.0001 12.4999c0 .275-.224.5-.5.5l-1 0c-.276 0-.5-.225-.5-.5l0-8c0-.275.224-.5.5-.5l1 0c.276 0 .5.225.5.5l0 8zm-.5-9.5c.828 0 1.5.672 1.5 1.5l0 8c0 .828-.672 1.5-1.5 1.5l-1 0c-.828 0-1.5-.672-1.5-1.5l0-8c0-.828.672-1.5 1.5-1.5l1 0zm10-3.0003c.828 0 1.5.672 1.5 1.5l0 9c0 1.933-1.567 3.5-3.5 3.5-.691 0-1.331-.207-1.873-.551-.273.328-.666.551-1.127.551l-1 0c-.828 0-1.5-.672-1.5-1.5l0-5c0-.828.672-1.5 1.5-1.5l1 0c.779 0 1.413.598 1.485 1.358.316-.153.656-.255 1.015-.307l0-3.551 0-2c0-.828.672-1.5 1.5-1.5l1 0zm.5 8.056l0-6.556c0-.275-.224-.5-.5-.5l-1 0c-.276 0-.5.225-.5.5l0 2 0 3.551c.778.112 1.476.469 2 1.005zm-2.5 4.944c1.378 0 2.5-1.121 2.5-2.5 0-1.379-1.122-2.5-2.5-2.5-1.378 0-2.5 1.121-2.5 2.5 0 1.379 1.122 2.5 2.5 2.5zm-3 0c.159 0 .294-.079.385-.194-.544-.617-.885-1.418-.885-2.306 0-.952.383-1.813 1-2.444l0-.556c0-.275-.224-.5-.5-.5l-1 0c-.276 0-.5.225-.5.5l0 5c0 .276.224.5.5.5l1 0zm4-2.9997c.275 0 .5.225.5.5 0 .275-.225.5-.5.5l-.5 0 0 .5c0 .275-.225.5-.5.5-.275 0-.5-.225-.5-.5l0-.5-.5 0c-.275 0-.5-.225-.5-.5 0-.275.225-.5.5-.5l.5 0 0-.5c0-.275.225-.5.5-.5.275 0 .5.225.5.5l0 .5.5 0z" fill="#000" fill-rule="evenodd"/></svg>