<svg width="14" height="14" xmlns="http://www.w3.org/2000/svg"><path d="M7 0c1.87 0 3.627.728 4.95 2.05A6.956 6.956 0 0114 7c0 1.87-.728 3.627-2.05 4.95A6.956 6.956 0 017 14a6.956 6.956 0 01-4.95-2.05A6.956 6.956 0 010 7c0-1.87.728-3.627 2.05-4.95A6.956 6.956 0 017 0zm0 1a5.963 5.963 0 00-4.243 1.757A5.963 5.963 0 001 7c0 1.603.624 3.109 1.757 4.243A5.963 5.963 0 007 13a5.963 5.963 0 004.243-1.757A5.963 5.963 0 0013 7a5.963 5.963 0 00-1.757-4.243A5.963 5.963 0 007 1zm0 2.256a.5.5 0 01.5.5V6.5h2.744a.5.5 0 010 1H7.5v2.744a.5.5 0 01-1 0V7.5H3.756a.5.5 0 110-1H6.5V3.756a.5.5 0 01.5-.5z" fill="#171B1F" fill-rule="evenodd"/></svg>