<svg width="20" height="20" viewBox="0 0 20 20" xmlns="http://www.w3.org/2000/svg"><title>common-actions/add_20</title><path d="M10 0c5.523 0 10 4.477 10 10 0 5.523-4.477 10-10 10-5.523 0-10-4.477-10-10C0 4.477 4.477 0 10 0zm0 19c4.963 0 9-4.037 9-9 0-4.963-4.037-9-9-9-4.963 0-9 4.037-9 9 0 4.963 4.037 9 9 9zm4.4849-9.5c.276 0 .5.224.5.5 0 .276-.224.5-.5.5l-3.985 0 0 4c0 .276-.224.5-.5.5-.276 0-.5-.224-.5-.5l0-4-4 0c-.276 0-.5-.224-.5-.5 0-.276.224-.5.5-.5l4 0 0-4c0-.276.224-.5.5-.5.276 0 .5.224.5.5l0 4 3.985 0z" fill="#000" fill-rule="evenodd"/></svg>