<?xml version="1.0" encoding="UTF-8"?>
<svg width="14px" height="14px" viewBox="0 0 14 14" version="1.1" xmlns="http://www.w3.org/2000/svg" xmlns:xlink="http://www.w3.org/1999/xlink">
    <!-- Generator: Sketch 57.1 (83088) - https://sketch.com -->
    <title>add_14</title>
    <desc>Created with Sketch.</desc>
    <g id="New-Icon" stroke="none" stroke-width="1" fill="none" fill-rule="evenodd">
        <g id="add_14" fill="#171B1F">
            <g id="fill">
                <path d="M7,0 C8.87,0 10.627,0.728 11.95,2.05 C13.272,3.373 14,5.13 14,7 C14,8.87 13.272,10.627 11.95,11.95 C10.627,13.272 8.87,14 7,14 C5.13,14 3.373,13.272 2.05,11.95 C0.728,10.627 0,8.87 0,7 C0,5.13 0.728,3.373 2.05,2.05 C3.373,0.728 5.13,0 7,0 Z M7,1 C5.397,1 3.891,1.624 2.757,2.757 C1.624,3.891 1,5.397 1,7 C1,8.603 1.624,10.109 2.757,11.243 C3.891,12.376 5.397,13 7,13 C8.603,13 10.109,12.376 11.243,11.243 C12.376,10.109 13,8.603 13,7 C13,5.397 12.376,3.891 11.243,2.757 C10.109,1.624 8.603,1 7,1 Z M7,3.2561 C7.276,3.2561 7.5,3.4791 7.5,3.7561 L7.5,6.5 L10.2441,6.5 C10.5201,6.5 10.7441,6.724 10.7441,7 C10.7441,7.276 10.5201,7.5 10.2441,7.5 L7.5,7.5 L7.5,10.2441 C7.5,10.5201 7.276,10.7441 7,10.7441 C6.724,10.7441 6.5,10.5201 6.5,10.2441 L6.5,7.5 L3.7561,7.5 C3.4791,7.5 3.2561,7.276 3.2561,7 C3.2561,6.724 3.4791,6.5 3.7561,6.5 L6.5,6.5 L6.5,3.7561 C6.5,3.4791 6.724,3.2561 7,3.2561 Z"></path>
            </g>
        </g>
    </g>
</svg>