<svg width="12" height="12" viewBox="0 0 12 12" xmlns="http://www.w3.org/2000/svg"><title>common-actions/add_12</title><path d="M6.5 5.5l2 0c.27614237 0 .5.22385763.5.5 0 .27614237-.22385763.5-.5.5l-2 0 0 2c0 .27614237-.22385763.5-.5.5-.27614237 0-.5-.22385763-.5-.5l0-2-2 0c-.27614237 0-.5-.22385763-.5-.5 0-.27614237.22385763-.5.5-.5l2 0 0-2c0-.27614237.22385763-.5.5-.5.27614237 0 .5.22385763.5.5l0 2zM6 12c-3.3137085 0-6-2.6862915-6-6 0-3.3137085 2.6862915-6 6-6 3.3137085 0 6 2.6862915 6 6 0 3.3137085-2.6862915 6-6 6zm0-1c2.76142375 0 5-2.23857625 5-5 0-2.76142375-2.23857625-5-5-5-2.76142375 0-5 2.23857625-5 5 0 2.76142375 2.23857625 5 5 5z" fill-rule="nonzero" fill="#000"/></svg>