<svg width="12" height="12" viewBox="0 0 12 12" xmlns="http://www.w3.org/2000/svg"><title>common-actions/added-to-space_12</title><path d="M1.75715375 1.76427766c2.20019252-2.196506939 5.66649582-2.361244959 8.0617054-.38638554.21301865.17671897.24302125.49022041.06600578.70288222-.17501532.21366022-.49104297.244611-.70306152.06789204C7.18662883.501286171 4.29837611.640065473 2.46421562 2.47015512c-.94408261.94250116-1.46412811 2.19550853-1.46412811 3.52938729 0 1.33387876.5200455 2.58688612 1.46412811 3.52938728 1.83416049 1.83108811 4.72141312 1.96986741 6.71758779.32248716.21301864-.17572056.52904629-.1467666.7040616.06689362.17601539.21266183.14601279.52616323-.06700586.70288223C8.69976123 11.544724 7.34764292 12 6.00052505 12c-1.53813459 0-3.07126874-.5940553-4.2433713-1.7651928C.624054605 9.10460449 0 7.59999723 0 5.99954241c0-1.59945642.624054605-3.10406368 1.75715375-4.23526475zm2.58910886 4.588503c-.04600403-.04592697-.08300727-.10183805-.10800945-.16174279-.05100447-.1228047-.05100447-.25958718 0-.38239189.02500218-.05990473.06200542-.11581582.10800945-.16174278l2.00017501-1.99682449c.19501707-.19469039.51104472-.19469039.70706187 0 .19501706.19469039.19501706.51118707 0 .70587746L5.90639912 5.5001366l5.58748888 0c.2760242 0 .5000438.22364434.5000438.49920612 0 .2765602-.2240196.49920613-.5000438.49920613l-5.58748888 0 1.14710037 1.14517884c.19501706.19469039.19501706.51118707 0 .70587746-.09800858.0978444-.22601978.14576819-.35403098.14576819-.1280112 0-.2560224-.04792379-.35303089-.14576819L4.34626261 6.35278066z" fill-rule="evenodd"/></svg>