<svg width="20" height="20" viewBox="0 0 20 20" xmlns="http://www.w3.org/2000/svg"><title>settings/adjust-audio_20</title><path d="M18.5005248 7.00006301c.2759035 0 .4998251-.224.4998251-.5 0-.276-.2239216-.5-.4998251-.5-.2759034 0-.499825.224-.499825.5 0 .276.2239216.5.499825.5zm1.4994752-.5c0 .652-.4188534 1.202-.9996501 1.408l0 7.59199999c0 .276-.2239216.5-.4998251.5-.2759034 0-.499825-.224-.499825-.5l0-7.59199999c-.5807968-.206-.9996502-.756-.9996502-1.408 0-.829.6707653-1.5 1.4994752-1.5.82871 0 1.4994752.671 1.4994752 1.5zM11.5109712.0609630143c.2988953.1229999997.4918278.4119999997.4918278.7349999997l0 18.405999986c0 .323-.1929325.613-.4918278.736-.0989654.041-.202929.061-.305893.061-.2069276 0-.4098565-.081-.562803-.234l-5.76298295-5.766-2.59909032 0c-1.25556055 0-2.2792022799-1.022-2.28020193-2.279l0-3.44199999c.0009996501-1.255 1.02464138-2.279 2.28020193-2.279l2.59909032 0L10.6432749.232963014c.2279202-.2289999997.5688009-.2949999997.8676963-.1719999997zM11.0031489 18.710963l0-17.42399999-5.56405258 5.566c-.09396712.093-.22092268.146-.3528765.146l-2.80601789 0c-.70575299 0-1.280551808.575-1.280551808 1.281l0 3.43799999c0 .706.574798818 1.281 1.280551808 1.281l2.80601789 0c.13295347 0 .25990903.053.35387615.147l5.56305293 5.565zm3.4987754-4.7109c.2759035 0 .4998251-.224.4998251-.5 0-.276-.2239216-.5-.4998251-.5-.2759034 0-.499825.224-.499825.5 0 .276.2239216.5.499825.5zm.4998251-1.908c.5807967.206.9996501.756.9996501 1.408 0 .829-.6707652 1.5-1.4994752 1.5-.8287099 0-1.4994752-.671-1.4994752-1.5 0-.652.4188534-1.202.9996502-1.408l0-7.59199999c0-.276.2239216-.5.499825-.5.2759035 0 .4998251.224.4998251.5l0 7.59199999z" fill="#000" fill-rule="evenodd"/></svg>