<svg width="20" height="20" viewBox="0 0 20 20" fill="none" xmlns="http://www.w3.org/2000/svg">
<path fill-rule="evenodd" clip-rule="evenodd" d="M19.499 5H6.94865C6.71666 3.859 5.70771 3 4.49977 3C3.29184 3 2.28289 3.859 2.0509 5H0.499975C0.225989 5 0 5.225 0 5.5C0 5.775 0.225989 6 0.499975 6H2.0509C2.28289 7.141 3.29184 8 4.49977 8C5.70771 8 6.71666 7.141 6.94865 6H19.499C19.776 6 19.999 5.776 19.999 5.5C19.999 5.224 19.776 5 19.499 5ZM4.4998 7C3.67284 7 2.99988 6.327 2.99988 5.5C2.99988 4.673 3.67284 4 4.4998 4C5.32676 4 5.99973 4.673 5.99973 5.5C5.99973 6.327 5.32676 7 4.4998 7ZM0.500952 15H13.0513C13.2833 16.141 14.2923 17 15.5002 17C16.7081 17 17.7171 16.141 17.9491 15H19.5C19.774 15 20 14.775 20 14.5C20 14.225 19.774 14 19.5 14H17.9491C17.7171 12.859 16.7081 12 15.5002 12C14.2923 12 13.2833 12.859 13.0513 14H0.500952C0.223965 14 0.000976562 14.224 0.000976562 14.5C0.000976562 14.776 0.223965 15 0.500952 15ZM15.5002 13C16.3272 13 17.0002 13.673 17.0002 14.5C17.0002 15.327 16.3272 16 15.5002 16C14.6733 16 14.0003 15.327 14.0003 14.5C14.0003 13.673 14.6733 13 15.5002 13Z" fill="#121212"/>
</svg>
