<?xml version="1.0" encoding="UTF-8"?>
<svg width="18px" height="18px" viewBox="0 0 18 18" version="1.1" xmlns="http://www.w3.org/2000/svg" xmlns:xlink="http://www.w3.org/1999/xlink">
    <!-- Generator: Sketch 60.1 (88133) - https://sketch.com -->
    <title>settings/adjust-audio_18</title>
    <desc>Created with Sketch.</desc>
    <g id="settings/adjust-audio_18" stroke="none" stroke-width="1" fill="none" fill-rule="evenodd">
        <path d="M9.673,0.227 L4.346,5.499 L2.167,5.499 C0.972,5.499 0,6.471 0,7.666 L0,10.333 C0,11.528 0.972,12.5 2.167,12.5 L4.347,12.5 L9.673,17.77 C9.822,17.918 10.02,17.998 10.222,17.998 C10.322,17.998 10.424,17.977 10.521,17.937 C10.812,17.816 11,17.534 11,17.218 L11,0.778 C11,0.462 10.812,0.181 10.521,0.06 C10.229,-0.061 9.896,0.00399999999 9.673,0.227 Z M10,16.687 L4.903,11.644 C4.81,11.551 4.684,11.5 4.552,11.5 L2.167,11.5 C1.523,11.5 1,10.976 1,10.333 L1,7.666 C1,7.023 1.523,6.499 2.167,6.499 L4.552,6.499 C4.684,6.499 4.81,6.448 4.903,6.355 L10,1.31 L10,16.687 Z M15,5.4995 C15,6.1515 15.419,6.7005 16,6.9075 L16,13.4995 C16,13.7745 16.225,13.9995 16.5,13.9995 C16.775,13.9995 17,13.7745 17,13.4995 L17,6.9075 C17.581,6.7005 18,6.1515 18,5.4995 C18,4.6715 17.328,3.9995 16.5,3.9995 C15.672,3.9995 15,4.6715 15,5.4995 Z M16,5.4995 C16,5.2245 16.225,4.9995 16.5,4.9995 C16.775,4.9995 17,5.2245 17,5.4995 C17,5.7745 16.775,5.9995 16.5,5.9995 C16.225,5.9995 16,5.7745 16,5.4995 Z M14,4.4995 C14,4.2245 13.775,3.9995 13.5,3.9995 C13.225,3.9995 13,4.2245 13,4.4995 L13,11.0915 C12.419,11.2985 12,11.8475 12,12.4995 C12,13.3275 12.672,13.9995 13.5,13.9995 C14.328,13.9995 15,13.3275 15,12.4995 C15,11.8475 14.581,11.2985 14,11.0915 L14,4.4995 Z M13,12.4995 C13,12.2245 13.225,11.9995 13.5,11.9995 C13.775,11.9995 14,12.2245 14,12.4995 C14,12.7745 13.775,12.9995 13.5,12.9995 C13.225,12.9995 13,12.7745 13,12.4995 Z" id="fill" fill="#171B1F"></path>
    </g>
</svg>