<svg width="14" height="14" viewBox="0 0 14 14" xmlns="http://www.w3.org/2000/svg"><title>settings/adjust-audio_14</title><path d="M7.571.0534c.261.109.429.361.429.642l0 12.609c0 .283-.168.535-.429.643-.086.036-.176.053-.266.053-.18 0-.357-.071-.491-.203l-3.796-3.797-1.351 0c-.919 0-1.667-.747-1.667-1.666l0-2.668c0-.919.748-1.667 1.667-1.667l1.352 0L6.814.2054c.199-.2.496-.261.757-.152zM7 12.5684l0-11.136-3.42 3.421c-.094.093-.221.146-.354.146l-1.559 0c-.368 0-.667.298-.667.667l0 2.668c0 .367.299.667.667.667l1.558 0c.132 0 .259.051.353.145L7 12.5684zM12.5 4c.55 0 1 .45 1 1 0 .364-.207.671-.5.846L13 9.5c0 .275-.225.5-.5.5-.275 0-.5-.225-.5-.5l0-3.654c-.293-.175-.5-.482-.5-.846 0-.55.45-1 1-1zM11 8.1543c.293.176.5.481.5.846 0 .55-.45 1-1 1-.55 0-1-.45-1-1 0-.365.207-.67.5-.846l0-3.654c0-.276.225-.5.5-.5.275 0 .5.224.5.5l0 3.654z" fill-rule="evenodd"/></svg>