<svg width="24" height="24" viewBox="0 0 24 24" xmlns="http://www.w3.org/2000/svg"><title>settings/adjust-audio_24</title><path d="M16.998 16.4932c0 .271.229.5.5.5.271 0 .5-.229.5-.5 0-.271-.229-.5-.5-.5-.271 0-.5.229-.5.5zm2 0c0 .824-.675 1.5-1.5 1.5-.825 0-1.5-.676-1.5-1.5 0-.649.42-1.2 1-1.407l0-7.593c0-.275.225-.5.5-.5.275 0 .5.225.5.5l0 7.593c.58.207 1 .758 1 1.407zm4 1c0 .274-.225.5-.5.5-.275 0-.5-.226-.5-.5l0-7.593c-.58-.208-1-.759-1-1.407 0-.825.675-1.5 1.5-1.5.825 0 1.5.675 1.5 1.5 0 .648-.42 1.199-1 1.407l0 7.593zm-1-9c0 .271.229.5.5.5.271 0 .5-.229.5-.5 0-.271-.229-.5-.5-.5-.271 0-.5.229-.5.5zm-9.521-7.4368c.316.133.521.439.521.78l0 20.319c0 .343-.205.647-.521.78-.105.043-.215.065-.323.065-.22 0-.435-.086-.596-.248l-6.63-6.759-2.428 0c-1.381 0-2.5-1.12-2.5-2.5l0-3c0-1.381 1.119-2.5 2.5-2.5l2.427 0 6.626-6.747.005-.005c.242-.243.602-.315.919-.185zm-.479 20.717l0-19.553-6.502 6.62c-.094.097-.224.153-.358.153l-2.638 0c-.827 0-1.5.673-1.5 1.5l0 3c0 .827.673 1.5 1.5 1.5l2.638 0c.134 0 .262.053.356.149l6.504 6.631z" fill="#000" fill-rule="evenodd"/></svg>