<svg width="24" height="24" viewBox="0 0 24 24" xmlns="http://www.w3.org/2000/svg"><title>settings/adjust-video_24</title><path d="M22.3246 7.0879c.419.174.69.579.69 1.032l0 7.76c0 .454-.271.859-.691 1.034-.14.058-.286.086-.431.086-.291 0-.576-.114-.791-.329l-3.102-3.097 0 3.926c0 1.379-1.121 2.5-2.5 2.5l-12 0c-1.378 0-2.5-1.121-2.5-2.5l0-11c0-1.379 1.122-2.5 2.5-2.5l12 0c1.379 0 2.5 1.121 2.5 2.5l0 3.924 3.102-3.096c.322-.321.802-.417 1.223-.24zm-.31 8.792l0-7.76c0-.052-.025-.089-.074-.109-.05-.018-.094-.011-.133.026l-3.808 3.802 0 .322 3.808 3.802c.039.039.084.047.133.027.049-.02.074-.057.074-.11zm-5.015 1.62l0-11c0-.827-.672-1.5-1.5-1.5l-12 0c-.827 0-1.5.673-1.5 1.5l0 11c0 .827.673 1.5 1.5 1.5l12 0c.828 0 1.5-.673 1.5-1.5zM13.5146 15c.271 0 .5-.229.5-.5 0-.271-.229-.5-.5-.5-.271 0-.5.229-.5.5 0 .271.229.5.5.5zm0-2c.825 0 1.5.675 1.5 1.5 0 .825-.675 1.5-1.5 1.5-.649 0-1.2-.42-1.407-1l-7.593 0c-.275 0-.5-.225-.5-.5 0-.275.225-.5.5-.5l7.593 0c.207-.58.758-1 1.407-1zm-8-3c.271 0 .5-.229.5-.5 0-.271-.229-.5-.5-.5-.271 0-.5.229-.5.5 0 .271.229.5.5.5zm9-1c.275 0 .5.225.5.5 0 .275-.225.5-.5.5l-7.593 0c-.208.58-.758 1-1.407 1-.825 0-1.5-.675-1.5-1.5 0-.825.675-1.5 1.5-1.5.649 0 1.199.42 1.407 1l7.593 0z" fill="#000" fill-rule="evenodd"/></svg>