<svg width="16" height="16" viewBox="0 0 16 16" xmlns="http://www.w3.org/2000/svg"><title>settings/adjust-video_16</title><path d="M6.08535285 10L3.5 10c-.275 0-.5-.225-.5-.5 0-.275.225-.5.5-.5l2.58535285 0C6.29127106 8.41740381 6.84689059 8 7.5 8 8.32842712 8 9 8.67157288 9 9.5c0 .82842712-.67157288 1.5-1.5 1.5-.65310941 0-1.20872894-.41740381-1.41464715-1zm-.1707057-4L8.5 6c.275 0 .5.225.5.5 0 .275-.225.5-.5.5L5.91464715 7C5.70872894 7.58259619 5.15310941 8 4.5 8 3.67157288 8 3 7.32842712 3 6.5 3 5.67157288 3.67157288 5 4.5 5c.65310941 0 1.20872894.41740381 1.41464715 1zM15.388 4.088c.372.153.612.514.612.915l0 5.994c0 .402-.24.761-.611.914-.123.052-.253.076-.381.076-.256 0-.509-.099-.699-.29l-2.305-2.305L12 9.379l0 2.612C12 13.101 11.098 14 9.992 14l-7.983 0C.899 14 0 13.098 0 11.991l0-7.982C0 2.9.902 2 2.009 2l7.983 0C11.101 2 12 2.902 12 4.009l0 2.602 2.309-2.308c.284-.283.707-.367 1.079-.215zM12.026 8l2.99 2.99L15 5.003 12.026 8zM1 11.9914698C1 12.5469054 1.45267418 13 2.0085302 13l7.9829396 0C10.5469054 13 11 12.5473258 11 11.9914698l0-7.9829396C11 3.45309463 10.5473258 3 9.9914698 3L2.0085302 3C1.45309463 3 1 3.45267418 1 4.0085302l0 7.9829396zM4.5 7c.27614237 0 .5-.22385763.5-.5 0-.27614237-.22385763-.5-.5-.5-.27614237 0-.5.22385763-.5.5 0 .27614237.22385763.5.5.5zm3 3c.27614237 0 .5-.22385763.5-.5 0-.27614237-.22385763-.5-.5-.5-.27614237 0-.5.22385763-.5.5 0 .27614237.22385763.5.5.5z" fill="#000" fill-rule="evenodd"/></svg>