<svg width="14" height="14" viewBox="0 0 14 14" xmlns="http://www.w3.org/2000/svg"><title>settings/adjust-video_14</title><path d="M13.4529 4.068c.332.139.547.461.547.821l0 4.224c0 .36-.215.682-.547.821-.109.044-.225.066-.339.066-.23 0-.455-.089-.625-.259l-1.489-1.472 0 2.234c0 .827-.672 1.497-1.497 1.497l-7.006 0c-.827 0-1.497-.671-1.497-1.497l0-7.005c0-.827.671-1.498 1.497-1.498l7.006 0c.826 0 1.497.672 1.497 1.498l0 2.234 1.492-1.474c.249-.252.628-.327.961-.19zm-.45 4.93l0-3.994-1.993 1.997 1.993 1.997zm-3.003 1.505l0-7.005c0-.273-.224-.498-.497-.498l-7.006 0c-.274 0-.497.225-.497.498l0 7.005c0 .274.223.497.497.497l7.006 0c.273 0 .497-.223.497-.497zM8.5 5c.275 0 .5.225.5.5 0 .275-.225.5-.5.5L5.908 6c-.206.581-.756 1-1.408 1C3.671 7 3 6.328 3 5.5 3 4.672 3.671 4 4.5 4c.652 0 1.202.419 1.408 1L8.5 5zm-4 1c.276 0 .5-.225.5-.5 0-.275-.224-.5-.5-.5-.276 0-.5.225-.5.5 0 .275.224.5.5.5zm3 3c.276 0 .5-.225.5-.5 0-.275-.224-.5-.5-.5-.276 0-.5.225-.5.5 0 .275.224.5.5.5zm0-2C8.329 7 9 7.672 9 8.5c0 .828-.671 1.5-1.5 1.5-.652 0-1.202-.419-1.408-1L3.5 9c-.275 0-.5-.225-.5-.5 0-.275.225-.5.5-.5l2.592 0c.206-.581.756-1 1.408-1z" fill="#000" fill-rule="evenodd"/></svg>