<svg width="16" height="16" viewBox="0 0 16 16" xmlns="http://www.w3.org/2000/svg"><title>settings/admin_16</title><path d="M15.7248 12.1183c.164.056.275.209.275.383l0 .002c0 .172-.111.328-.276.383l-.833.275c-.094.227-.14.337-.235.564l.393.782c.078.156.048.344-.075.467l-.001.001c-.078.078-.182.118-.285.118-.062 0-.123-.013-.181-.043l-.785-.391c-.227.095-.336.14-.563.234l-.275.83c-.056.165-.21.277-.384.277l-.001 0c-.174 0-.328-.111-.383-.276l-.277-.83c-.226-.094-.337-.139-.563-.233l-.782.393c-.056.029-.12.043-.18.043-.106 0-.208-.041-.285-.119l-.002-.001c-.122-.123-.154-.31-.077-.465l.392-.788c-.094-.226-.14-.336-.233-.562l-.831-.276c-.165-.055-.278-.209-.278-.383l0-.002c0-.174.113-.328.277-.383l.834-.279c.092-.228.138-.337.232-.564l-.393-.784c-.077-.155-.045-.343.078-.465l.001-.002c.078-.077.179-.118.286-.118.059 0 .123.014.178.043l.785.391c.225-.094.335-.139.562-.233l.276-.831c.055-.165.209-.276.383-.276l.002 0c.174 0 .328.111.383.276l.276.832c.228.094.337.139.564.233l.787-.393c.058-.028.118-.042.181-.042.103 0 .208.04.284.118l.001.001c.123.123.153.311.075.466l-.394.785c.094.227.139.336.233.564l.834.278zm-1.758.66c.043-.103.103-.196.174-.278-.071-.082-.132-.176-.174-.28l-.117-.281-.115-.282c-.042-.103-.068-.21-.075-.318-.108-.007-.215-.032-.319-.074l-.237-.099-.325-.135c-.104-.042-.198-.101-.279-.173-.082.071-.175.13-.277.173l-.564.233c-.102.042-.21.067-.318.074-.007.109-.032.216-.074.319l-.168.407-.065.156c-.043.104-.102.199-.174.281.07.081.128.174.171.277l.119.281.116.281c.043.105.067.213.074.324.107.007.215.031.316.073l.284.116.28.116c.103.043.197.102.278.173.082-.071.175-.13.279-.172l.166-.069.395-.165c.105-.043.212-.067.321-.074.007-.109.033-.217.076-.321l.098-.241.134-.322zM12.5 12c.276 0 .5.224.5.5 0 .276-.224.5-.5.5-.275 0-.5-.224-.5-.5 0-.276.225-.5.5-.5zm-4 3c.275 0 .5.225.5.5 0 .275-.225.5-.5.5L.97 16c-.292 0-.566-.134-.75-.367-.195-.244-.264-.561-.193-.869l.551-2.349C1.05 10.405 2.746 9 4.703 9l.324 0C3.804 8.088 3 6.644 3 5c0-2.761 2.238-5 5-5 2.763 0 5 2.239 5 5 0 2.761-2.237 5-5 5l-3.297 0c-1.49 0-2.785 1.087-3.15 2.644l-.551 2.349L8.5 15zM4 5c0 2.206 1.794 4 4 4 2.206 0 4-1.794 4-4 0-2.206-1.794-4-4-4-2.206 0-4 1.794-4 4z" fill="#000" fill-rule="evenodd"/></svg>