<svg width="16" height="16" xmlns="http://www.w3.org/2000/svg"><path d="M12.499 9c.15 0 .285.082.355.21l.03.066.276.832.412.17.152.063.787-.393a.41.41 0 01.403.025l.062.051a.404.404 0 01.106.387l-.03.08-.394.785.17.412.063.152.834.278c.14.048.242.168.268.31l.007.073c0 .15-.082.285-.209.356l-.067.03-.833.274-.172.412-.063.152.393.782a.405.405 0 01-.022.4l-.053.067a.405.405 0 01-.408.1l-.06-.024-.784-.39-.411.17-.152.063-.275.83a.407.407 0 01-.311.27L12.5 16a.404.404 0 01-.355-.208l-.03-.068-.276-.83-.412-.17-.151-.063-.782.393a.397.397 0 01-.403-.024l-.062-.052a.406.406 0 01-.109-.386l.03-.08.392-.788-.17-.41-.063-.152-.831-.276a.406.406 0 01-.271-.31L9 12.503c0-.15.083-.285.21-.355l.067-.03.834-.279.169-.412.063-.152-.393-.784a.403.403 0 01.024-.399l.054-.066a.401.401 0 01.407-.1l.058.023.785.391.41-.17.152-.063.276-.83a.403.403 0 01.31-.27L12.499 9h.002zM8 0a5 5 0 015 5 5 5 0 01-5 5H4.703c-1.49 0-2.785 1.087-3.15 2.644l-.551 2.349L8.5 15c.275 0 .5.225.5.5s-.225.5-.5.5H.97a.953.953 0 01-.75-.367 1.017 1.017 0 01-.193-.869l.551-2.349C1.05 10.405 2.746 9 4.703 9h.324C3.804 8.088 3 6.644 3 5a5 5 0 015-5zm4.5 10.858c-.055.048-.114.09-.178.125l-.1.048-.563.233c-.102.042-.21.067-.318.074a1.001 1.001 0 01-.038.215l-.036.104-.168.407-.065.156a1.012 1.012 0 01-.174.281c.046.054.088.114.123.178l.048.1.119.28.116.281c.043.105.067.213.074.324.071.005.143.017.213.037l.103.036.284.116.28.116c.103.043.197.102.278.173a1.02 1.02 0 01.178-.124l.1-.048.167-.069.395-.165c.105-.043.212-.067.32-.074a.983.983 0 01.04-.215l.037-.106.098-.24.134-.323c.043-.103.103-.196.174-.278a1.054 1.054 0 01-.126-.18l-.048-.1-.117-.28-.115-.283a1.017 1.017 0 01-.075-.318 1.005 1.005 0 01-.214-.037l-.105-.037-.237-.099-.325-.135a.962.962 0 01-.28-.173zm0 1.142a.5.5 0 110 1 .5.5 0 010-1zM8 1C5.794 1 4 2.794 4 5s1.794 4 4 4 4-1.794 4-4-1.794-4-4-4z" fill="#171B1F" fill-rule="evenodd"/></svg>