<svg width="12" height="12" xmlns="http://www.w3.org/2000/svg"><path d="M6 0c2.206 0 4 1.794 4 4 0 2.14-1.687 3.89-3.8 3.995L6 8H3.582c-.978 0-1.836.603-2.137 1.486l-.047.159L1.049 11H6.5a.5.5 0 01.09.992L6.5 12H.844a.839.839 0 01-.838-.933l.021-.107.403-1.565c.348-1.352 1.555-2.303 2.97-2.38A3.975 3.975 0 012 4c0-2.206 1.794-4 4-4zm3.768 7c.275 0 .5.225.5.5v.593c.174.061.33.154.467.271l.515-.297a.5.5 0 11.5.866l-.508.295c.014.088.026.178.026.272 0 .094-.011.184-.026.271l.508.296a.5.5 0 11-.5.866l-.515-.297c-.137.117-.293.21-.467.271v.593c0 .275-.225.5-.5.5a.502.502 0 01-.5-.5v-.593a1.474 1.474 0 01-.467-.271l-.514.297a.502.502 0 01-.683-.183.498.498 0 01.183-.683l.508-.296a1.585 1.585 0 01-.027-.271c0-.094.013-.184.027-.272l-.508-.295a.498.498 0 01-.183-.683.502.502 0 01.683-.183l.514.297c.137-.117.294-.21.467-.271V7.5c0-.275.226-.5.5-.5zm0 2a.5.5 0 10.001 1.002A.5.5 0 009.768 9zM6 1C4.346 1 3 2.346 3 4s1.346 3 3 3 3-1.346 3-3-1.346-3-3-3z" fill="#171B1F" fill-rule="evenodd"/></svg>