<svg width="12" height="12" viewBox="0 0 12 12" fill="none" xmlns="http://www.w3.org/2000/svg">
<path d="M6 0.5C6 0.223858 5.77614 0 5.5 0C5.22386 0 5 0.223858 5 0.5V11.5C5 11.7761 5.22386 12 5.5 12C5.77614 12 6 11.7761 6 11.5V0.5Z" fill="#121212"/>
<path d="M3.5 2.5C3.77614 2.5 4 2.72386 4 3V9C4 9.27614 3.77614 9.5 3.5 9.5C3.22386 9.5 3 9.27614 3 9V3C3 2.72386 3.22386 2.5 3.5 2.5Z" fill="#121212"/>
<path d="M1.5 5C1.77614 5 2 5.22386 2 5.5V6.5C2 6.77614 1.77614 7 1.5 7C1.22386 7 1 6.77614 1 6.5V5.5C1 5.22386 1.22386 5 1.5 5Z" fill="#121212"/>
<path d="M11.5 5C11.7761 5 12 5.22386 12 5.5V6C12 6.27614 11.7761 6.5 11.5 6.5C11.2239 6.5 11 6.27614 11 6V5.5C11 5.22386 11.2239 5 11.5 5Z" fill="#121212"/>
<path d="M10 4.5C10 4.22386 9.77614 4 9.5 4C9.22386 4 9 4.22386 9 4.5V6.5C9 6.77614 9.22386 7 9.5 7C9.77614 7 10 6.77614 10 6.5V4.5Z" fill="#121212"/>
<path d="M7.5 3C7.77614 3 8 3.22386 8 3.5V8C8 8.27614 7.77614 8.5 7.5 8.5C7.22386 8.5 7 8.27614 7 8V3.5C7 3.22386 7.22386 3 7.5 3Z" fill="#121212"/>
<path d="M10.5 8.5C10.5 8.22386 10.2761 8 10 8C9.72386 8 9.5 8.22386 9.5 8.5V9.5H8.5C8.22386 9.5 8 9.72386 8 10C8 10.2761 8.22386 10.5 8.5 10.5H9.5V11.5C9.5 11.7761 9.72386 12 10 12C10.2761 12 10.5 11.7761 10.5 11.5V10.5H11.5C11.7761 10.5 12 10.2761 12 10C12 9.72386 11.7761 9.5 11.5 9.5H10.5V8.5Z" fill="#121212"/>
</svg>
