<svg width="24" height="24" viewBox="0 0 24 24" xmlns="http://www.w3.org/2000/svg"><title>alerts-and-notifications/alarm_24</title><path d="M18.8598 20.2421l2.975 2.883c.198.192.203.509.011.707-.098.102-.229.152-.359.152-.125 0-.251-.047-.348-.14l-3.043-2.949c-1.692 1.312-3.808 2.101-6.109 2.101-2.301 0-4.417-.789-6.109-2.101l-3.042 2.959c-.098.095-.224.142-.349.142-.13 0-.26-.051-.358-.151-.193-.199-.188-.515.009-.707l2.977-2.896c-1.922-1.823-3.128-4.393-3.128-7.246 0-5.515 4.486-10 10-10 5.514 0 10 4.485 10 10 0 2.852-1.206 5.422-3.127 7.246zm-15.873-7.246c0 4.963 4.038 9 9 9 4.962 0 9-4.037 9-9 0-4.963-4.038-9-9-9-4.962 0-9 4.037-9 9zm9 .5801l1.854 1.566c.195.196.195.512 0 .707-.098.098-.226.147-.354.147-.128 0-.256-.049-.354-.147l-2-1.712c-.093-.094-.146-.221-.146-.354l0-5.287c0-.276.225-.5.5-.5.277 0 .5.224.5.5l0 5.08zM6.9981 1.5375c0 .132-.052.259-.146.353l-4.971 4.971c-.097.097-.225.146-.353.146-.128 0-.256-.049-.354-.146-1.565-1.565-1.565-4.111 0-5.678 1.566-1.564 4.112-1.564 5.678 0 .094.094.146.221.146.354zm-5.441 4.234l4.205-4.205c-1.178-.838-2.826-.732-3.881.324-1.054 1.056-1.162 2.704-.324 3.881zm21.2653-4.588c.759.759 1.176 1.767 1.176 2.839 0 1.073-.417 2.081-1.176 2.839-.097.097-.225.146-.353.146-.128 0-.256-.049-.354-.146l-4.97-4.971c-.094-.094-.147-.221-.147-.353 0-.133.053-.26.147-.354 1.565-1.564 4.112-1.564 5.677 0zm-.382 4.588c.363-.507.558-1.112.558-1.749 0-.805-.313-1.563-.883-2.132-1.055-1.056-2.704-1.162-3.881-.324l4.206 4.205z" fill="#000" fill-rule="evenodd"/></svg>