<svg width="20" height="20" viewBox="0 0 20 20" xmlns="http://www.w3.org/2000/svg"><title>alerts-and-notifications/alarm_20</title><path d="M3 11.5C3 7.364 6.364 4 10.5 4c4.135 0 7.5 3.364 7.5 7.5 0 4.136-3.365 7.5-7.5 7.5C6.364 19 3 15.636 3 11.5m6.99952944-8.475l.99994118 0C15.4602082 3.285 19 6.974 19 11.5c0 2.117-.7789542 4.049-2.0588789 5.536l1.8718899 1.873c.2479854.247.2479854.649 0 .896-.1229928.124-.2849832.185-.4469737.185-.1619905 0-.323981-.061-.4479737-.185l-1.8718898-1.872C14.5572613 19.218 12.6213752 20 10.50049997 20c-2.12187518 0-4.05776131-.782-5.54667372-2.068l-1.87288983 1.873c-.12299277.124-.28598318.185-.44797365.185-.16199047 0-.32398095-.061-.44697371-.185-.247985413-.247-.247985413-.649 0-.896l1.87288983-1.874c-1.27992471-1.487-2.05787895-3.419-2.05787895-5.535 0-4.525 3.53879184-8.214 7.9985295-8.475zm9.00288746-1.027c1.3301108 1.332 1.3301108 3.497 0 4.827-.1130094.112-.2650221.175-.4250355.175-.1580131 0-.3110259-.063-.4240353-.175l-3.9773314-3.978C14.0630053 2.735 14 2.582 14 2.423c0-.159.0630053-.312.1760147-.425.6650554-.665 1.5391282-.998 2.4132011-.998.8740728 0 1.7481456.332 2.4132011.998zM18.532194 6c.7043395-.98766728.6130168-2.37313041-.2718687-3.25898714C17.7827181 2.26239832 17.1476579 2 16.4695607 2c-.53534 0-1.0444378.16478615-1.4695607.4681186L18.532194 6zm-15.68636709.824c-.11200467.112-.26501104.176-.42401767.176-.15900662 0-.312013-.064-.425017707-.176-1.329055377-1.33-1.329055377-3.495 0-4.826C2.66281928 1.333 3.5368557 1 4.41089212 1c.87403642 0 1.74807284.333 2.41310055.998C6.93599733 2.11 7 2.264 7 2.423c0 .159-.06400267.311-.17600733.424L2.84582691 6.824zm-.10551902-4.08384252C1.854544803 3.62729659 1.763239841 5.01207349 2.46849197 6L6 2.4671916C5.57495966 2.16377953 5.06596073 2 4.53072474 2c-.6769161 0-1.31290239.26246719-1.79041685.74015748zM10.99991667 12.293l0-4.793c0-.276-.22398133-.5-.49995833-.5C10.22398133 7 10 7.224 10 7.5l0 5c0 .133.05299558.26.14598783.354l1.99983337 2c.0979918.097.2259811.146.3539705.146.1279893 0 .2559787-.049.3539705-.146.1949837-.196.1949837-.512 0-.707l-1.85384553-1.854z" fill="#000" fill-rule="evenodd"/></svg>