<svg width="36" height="36" viewBox="0 0 36 36" xmlns="http://www.w3.org/2000/svg"><title>alerts-and-notifications/alert-muted_36</title><path d="M26.99825 9.99725l0 .99c0 1.625.537 3.237 1.509 4.532l4.179 5.656.002.003c.846 1.128 1.312 2.525 1.312 3.935l0 4.218c0 .181-.07.351-.199.478-.127.127-.27.233-.478.198l-9.324-.003 0-.004-1 0c0 .002 0 .003 0 .004l-10-.002 0-.002-1 0 0 .002-5.293-.002 20.278-20.277c.003.091.014.181.014.274zm-8.999 25.003c-2.414 0-4.433-1.72-4.898-3.998l9.797.002c-.466 2.277-2.485 3.996-4.899 3.996zm-15.318-5.001c-.373 0-.677-.304-.677-.677l0-4.218c0-1.409.466-2.806 1.314-3.938l4.174-5.644c.974-1.298 1.511-2.91 1.511-4.535l0-.99c0-4.961 4.037-8.997 8.997-8.997 4.43 0 8.112 3.22 8.853 7.438l-21.56 21.562-2.612-.001zm33.172-29.853c-.195-.195-.512-.195-.707 0l-7.451 7.452c-1.079-4.356-5.01-7.598-9.695-7.598-5.512 0-9.997 4.484-9.997 9.997l0 .99c0 1.41-.465 2.808-1.313 3.939l-4.174 5.643c-.975 1.3-1.512 2.911-1.512 4.535l0 4.218c0 .925.752 1.677 1.677 1.677l1.612.001-4.147 4.146c-.195.196-.195.512 0 .707.098.098.226.147.353.147.128 0 .256-.049.354-.147l4.853-4.853 6.384.002c.479 2.832 2.943 4.998 5.909 4.998 2.966 0 5.429-2.164 5.91-4.996l9.414.003.002 0c.447 0 .867-.174 1.183-.489.317-.318.492-.739.492-1.187l0-4.218c0-1.624-.537-3.234-1.511-4.535l-4.179-5.655c-.846-1.128-1.312-2.526-1.312-3.936l0-.99c0-.409-.032-.812-.081-1.208l7.936-7.936c.195-.195.195-.511 0-.707z" fill="#000" fill-rule="evenodd"/></svg>