<svg width="12" height="12" viewBox="0 0 12 12" xmlns="http://www.w3.org/2000/svg"><title>alerts-and-notifications/alert_12</title><path d="M9.998 8.99818087l-7.998 0 0-1.8768869c0-.26798386.104-.51896873.293-.70695741l1.12-1.12093245c.378-.37797723.586-.87894704.586-1.41391481l0-.87994698c0-1.10293354.897-1.999879494 2-1.999879494.036 0 .073.000999944.109.002999814C7.152 1.05765933 8 2.03060071 7.999 3.17153196l-.001.70395758c-.001.53496777.207 1.03693752.585 1.41491475l1.122 1.12393227c.189.18798868.293.43897355.293.70595747l0 1.87788684zM7 10.0001205c0 .5519667-.449.9999398-1 .9999398-.551 0-1-.4479731-1-.9999398 0-.00099994 0-.00099994 0-.00199988l1.999 0c0 .00099994.001.00099994.001.00199988zm3.412-4.29274134L9.29 4.58444682c-.188-.18798867-.292-.44197336-.292-.70795734l.001-.70395758C9 1.54762981 7.784.0897176543 6.161.003722836c-.054-.0019998796-.108-.003999759-.162-.003999759-1.657 0-3 1.342919083-3 2.999819243l0 .87994698c0 .26498403-.105.51996867-.293.7069574l-1.12 1.11993252C1.211 6.08135663 1 6.59032596 1 7.12129397l0 1.8768869c0 .55296669.448.99993975 1 .99993975l2 0 0 .00199988C4 11.104054 4.895 12 6 12c1.104 0 2-.895946 2-1.9998795l0-.00199988 1.998 0c.552 0 1-.44697306 1-.99993975l0-1.87788684c0-.52996807-.211-1.03793746-.586-1.41291487z" fill="#000" fill-rule="evenodd"/></svg>