<svg width="14" height="14" viewBox="0 0 14 14" xmlns="http://www.w3.org/2000/svg"><title>alerts-and-notifications/alert_14</title><path d="M1.5 10.9942l0-1.358c0-.463.14-.92.341-1.223l2.083-2.132c.375-.541.573-1.184.573-1.857l0-.924c0-1.379 1.122-2.5 2.5-2.5 1.378 0 2.5 1.121 2.5 2.5l0 .892c0 .665.204 1.324.625 1.921l1.983 2.035c.255.368.395.825.395 1.288l.039 1.358-11.039 0zm5.497 2.003c-.635 0-1.167-.425-1.344-1.003l2.688 0c-.176.578-.709 1.003-1.344 1.003zm5.878-5.282l-1.983-2.034c-.255-.369-.395-.826-.395-1.289l0-.892c0-1.93-1.57-3.5-3.5-3.5-1.93 0-3.5 1.57-3.5 3.5l0 .924c0 .462-.14.92-.341 1.222l-2.083 2.132C.704 8.3122.5 8.9722.5 9.6362l0 1.358c0 .551.431 1 .961 1l3.166 0c.195 1.135 1.181 2.003 2.37 2.003 1.19 0 2.175-.868 2.37-2.003l3.172 0c.53 0 .961-.449.961-1l0-1.358c0-.664-.204-1.324-.625-1.921z" fill-rule="evenodd"/></svg>