<svg width="36" height="36" viewBox="0 0 36 36" xmlns="http://www.w3.org/2000/svg"><title>alerts-and-notifications/alert-muted-active_36</title><path d="M35.8535.1464c.194.196.194.512 0 .707l-17.875 17.875-12.272 12.272-4.853 4.853c-.098.098-.226.147-.354.147-.127 0-.255-.049-.353-.147-.195-.195-.195-.512 0-.707l4.147-4.146-1.612-.001c-.925 0-1.677-.752-1.677-1.677l0-4.218c0-1.624.536-3.235 1.512-4.535l4.174-5.643c.848-1.131 1.313-2.529 1.313-3.939l0-.99c0-5.513 4.485-9.997 9.996-9.997 4.686 0 8.617 3.242 9.696 7.598l7.451-7.452c.098-.098.226-.146.353-.146.128 0 .256.048.354.146zM29.637 15.365l3.852 5.213C34.463 21.879 35 23.489 35 25.113l0 4.218c0 .448-.175.869-.492 1.188-.316.314-.736.488-1.183.488l-.002 0-9.414-.003C23.428 33.836 20.965 36 17.999 36c-2.966 0-5.43-2.166-5.909-4.998l-4.97-.001 20.878-20.878 0 .864c0 1.41.466 2.808 1.313 3.936l.326.442zM17.999 35c2.414 0 4.434-1.719 4.899-3.996l-9.797-.002C13.566 33.28 15.585 35 17.999 35z" fill="#000" fill-rule="evenodd"/></svg>