<svg width="20" height="20" viewBox="0 0 20 20" xmlns="http://www.w3.org/2000/svg"><title>alerts-and-notifications/alert-muted_20</title><path d="M14.8872 7.8194l2.446 3.039c.43.572.667 1.282.667 1.999l0 3.004c0 .075-.064.139-.139.139l-4.458 0-1.139 0-4.529 0-1.138 0-1.89 0 9.502-9.502c.149.467.374.916.678 1.321zm-4.887 11.182c-1.165 0-2.119-.876-2.265-2.001l4.529 0c-.146 1.125-1.1 2.001-2.264 2.001zm-7.862-3.001c-.075 0-.138-.064-.138-.139l0-3.004c0-.717.237-1.427.646-1.973l2.497-3.104c.553-.738.857-1.657.857-2.587l0-.193c0-2.205 1.794-4 4-4 2.205 0 4 1.795 4 4l0 .193c0 .03.007.062.008.092l-10.715 10.715-1.155 0zM19.8532.1464c-.195-.195-.511-.195-.707 0l-4.211 4.211c-.318-2.454-2.394-4.357-4.935-4.357-2.761 0-5 2.238-5 5l0 .193c0 .716-.237 1.426-.658 1.988l-2.476 3.076c-.559.746-.866 1.669-.866 2.6l0 3.004c0 .628.511 1.139 1.138 1.139l.155 0-2.147 2.146c-.195.195-.195.512 0 .707.098.098.226.147.354.147.128 0 .256-.049.353-.147l2.854-2.853 3.028 0c.152 1.677 1.549 3.001 3.265 3.001 1.716 0 3.113-1.324 3.264-3.001l4.597 0c.628 0 1.139-.511 1.139-1.139l0-3.004c0-.931-.308-1.854-.867-2.6l-2.467-3.065c-.334-.445-.547-.975-.627-1.524l4.814-4.815c.196-.195.196-.512 0-.707z" fill="#000" fill-rule="evenodd"/></svg>