<svg width="16" height="16" viewBox="0 0 16 16" xmlns="http://www.w3.org/2000/svg"><title>alerts-and-notifications/alert-muted_16</title><path d="M11.6885 6.6101l.015.021.016.019 1.838 2.208c.286.388.443.868.443 1.352l0 1.803-9.306 0 6.473-6.473c.109.384.28.75.521 1.07zm-3.688 8.39c-1.099 0-1.992-.89-1.999-1.987l3.997 0c-.007 1.097-.9 1.987-1.998 1.987zm-6-2.987l0-1.803c0-.482.155-.96.438-1.348l1.901-2.227.022-.025.019-.026c.41-.55.636-1.241.636-1.945l0-.483c0-1.77 1.31-3.156 2.984-3.156 1.699 0 3.031 1.386 3.031 3.156l0 .106-7.751 7.751-1.28 0zM15.8535.1471c-.195-.196-.512-.196-.707 0l-3.193 3.192c-.358-1.926-1.965-3.339-3.953-3.339-2.234 0-3.984 1.825-3.984 4.156l0 .483c0 .491-.162.978-.437 1.347l-1.923 2.253c-.424.564-.656 1.265-.656 1.971l0 1.839c0 .532.433.964.963.964l.317 0-2.134 2.134c-.195.195-.195.511 0 .707.098.097.226.146.354.146.127 0 .255-.049.353-.146l2.841-2.841 1.307 0c.007 1.648 1.349 2.987 2.999 2.987 1.649 0 2.991-1.339 2.998-2.987l3.038 0c.53 0 .964-.432.964-.964l0-1.839c0-.706-.233-1.407-.657-1.971l-1.856-2.229c-.287-.384-.446-.858-.454-1.337l3.82-3.819c.195-.196.195-.512 0-.707z" fill="#000" fill-rule="evenodd"/></svg>