<svg width="18" height="18" viewBox="0 0 18 18" xmlns="http://www.w3.org/2000/svg"><title>alerts-and-notifications/alert-active_18</title><path d="M8.9999 16.9981306c-1.10041265 0-1.99474803-.8944909-1.99974991-1.9923206l3.99949982 0c-.00600225 1.0978297-.89933726 1.9923206-1.99974991 1.9923206zm7.2297111-6.8954925l-1.6476178-2.76861439c-.3541328-.47178631-.5642116-1.12888147-.5802176-1.77195326l0-.5539232C14.0017757 2.2425379 11.7629361-.0002 8.9999-.0002c-2.76303614 0-5.0018757 2.2427379-5.0018757 5.00834725l0 .55292153c-.01600601.64407346-.22808554 1.30217029-.60922846 1.81702838L1.786194861 10.081603C1.279004664 10.7567282.9999 11.5951255.9999 12.4415362l0 1.5085142c0 .5919867.481180443 1.0747913 1.07240215 1.0747913l3.9274728-.0190317C6.00477683 16.6565613 7.34828064 17.9998 8.9999 17.9998c1.65161936 0 2.9941228-1.3432387 3.000125-2.99399l3.9284732.0190317c.5912217 0 1.0714018-.4828046 1.0714018-1.0747913l0-1.5085142c0-.836394-.272102-1.6657763-.7702889-2.3388981z" fill="#000" fill-rule="evenodd"/></svg>