<svg width="16" height="16" viewBox="0 0 16 16" xmlns="http://www.w3.org/2000/svg"><title>alerts-and-notifications/alert_16</title><path d="M8 15.0002c-1.099 0-1.992-.891-1.999-1.987l3.998 0c-.007 1.096-.9 1.987-1.999 1.987m0-15c-2.234 0-3.984 1.825-3.984 4.156l0 .483c0 .491-.162.978-.437 1.347l-1.923 2.253c-.423.564-.656 1.265-.656 1.971l0 1.839c0 .532.433.964.964.964l3.037 0c.007 1.648 1.349 2.987 2.999 2.987 1.65 0 2.992-1.339 2.999-2.987l3.037 0c.531 0 .964-.432.964-.964l0-1.839c0-.706-.233-1.407-.656-1.971l-1.856-2.229c-.295-.393-.457-.88-.457-1.371l0-.483c0-2.331-1.77-4.156-4.031-4.156m0 1c1.7 0 3.031 1.386 3.031 3.156l0 .483c0 .706.234 1.406.657 1.971l.015.02.017.019 1.838 2.208c.285.389.442.869.442 1.353l0 1.803-2.995 0-1.006 0-3.998 0-1.006 0-2.995 0 0-1.803c0-.482.156-.96.439-1.348l1.901-2.227.021-.025.02-.027c.41-.549.635-1.24.635-1.944l0-.483c0-1.77 1.311-3.156 2.984-3.156" fill="#000" fill-rule="evenodd"/></svg>