<svg width="10" height="10" viewBox="0 0 10 10" xmlns="http://www.w3.org/2000/svg"><title>alerts-and-notifications/alert-muted-active_10</title><path d="M9.5578 5.4414c.281.28.442.667.442 1.064l0 1.596c0 .496-.404.899-.9.899l-2.186 0c-.207.581-.755 1-1.408 1-.652 0-1.201-.419-1.408-1l-.146 0 .889-1 2.754-3.099.666-.749 1.297 1.289zM9.173 1.6221l-6.56 7.378-.739.832c-.098.111-.236.168-.374.168-.118 0-.237-.042-.332-.126-.206-.184-.225-.5-.042-.706l.296-.333c-.241-.161-.41-.423-.41-.734l0-1.597c0-.398.162-.786.445-1.066l1.466-1.45c.056-.056.089-.134.089-.214l0-1.275c0-.667.26-1.294.731-1.767.472-.47 1.099-.731 1.765-.731l.001 0c1.065.001 1.97.675 2.328 1.617l1.289-1.45c.183-.207.5-.226.706-.042.206.184.226.5.042.706l-.701.79z" fill="#000" fill-rule="evenodd"/></svg>