<svg width="16" height="16" viewBox="0 0 16 16" xmlns="http://www.w3.org/2000/svg"><title>alerts-and-notifications/alert-muted-active_16</title><path d="M7.9995 15.9998c-1.616 0-2.929-1.288-2.988-2.89l7.347-7.347c.046.082.073.172.129.247l1.856 2.229c.424.564.656 1.265.656 1.971l0 1.839c0 .532-.433.964-.963.964l-3.038 0c-.007 1.648-1.349 2.987-2.999 2.987zm1.999-2.987l-3.997 0c.007 1.097.9 1.987 1.998 1.987 1.099 0 1.992-.89 1.999-1.987zM15.8535.1466c.195.195.195.512 0 .707l-1.938 1.938-1.882 1.882-8.339 8.339-.196.196-2.645 2.645c-.098.098-.226.147-.354.147-.127 0-.255-.049-.353-.147-.195-.195-.195-.512 0-.707l2.134-2.134-.317 0c-.53 0-.964-.431-.964-.964l0-1.839c0-.706.233-1.407.657-1.971l1.923-2.253c.274-.369.437-.856.437-1.347l0-.483c0-2.331 1.75-4.155 3.983-4.155 1.989 0 3.596 1.413 3.954 3.339l3.193-3.193c.195-.195.512-.195.707 0z" fill="#000" fill-rule="evenodd"/></svg>