<svg width="28" height="28" viewBox="0 0 28 28" xmlns="http://www.w3.org/2000/svg"><title>alerts-and-notifications/alert_28</title><path d="M26 22.5c0 .276-.224.5-.499.5L2.499 23C2.224 23 2 22.776 2 22.5l0-3.019c0-1.063.351-2.117.961-2.935l3.872-4.345c.766-1.021 1.188-2.288 1.188-3.567l0-1.634c0-3.309 2.688-6 5.993-6l.004 0c3.304 0 5.992 2.691 5.992 6l0 1.59c0 1.278.422 2.545 1.212 3.597l3.79 4.327c.637.85.988 1.904.988 2.967l0 3.019zM14 27c-1.654 0-3-1.346-3-3l6 0c0 1.654-1.346 3-3 3zm11.788-11.116l-3.79-4.326c-.637-.851-.988-1.905-.988-2.968l0-1.59c0-3.86-3.136-7-6.992-7l-.004 0c-3.856 0-6.993 3.14-6.993 7l0 1.634c0 1.064-.351 2.117-.961 2.935l-3.872 4.345C1.422 16.937 1 18.203 1 19.481L1 22.5c0 .827.672 1.5 1.499 1.5L10 24c0 2.206 1.794 4 4 4 2.206 0 4-1.794 4-4l7.501 0c.827 0 1.499-.673 1.499-1.5l0-3.019c0-1.278-.422-2.544-1.212-3.597z" fill-rule="evenodd"/></svg>