<svg width="24" height="24" viewBox="0 0 24 24" xmlns="http://www.w3.org/2000/svg"><title>alerts-and-notifications/alert-muted_24</title><path d="M18.13 10.493l3.049 3.702c.529.71.821 1.588.821 2.474l0 2.831c0 .276-.224.5-.5.5L4.707 20l12.32-12.32c.066.943.437 1.925 1.103 2.813zM12 23c-1.206 0-2.214-.86-2.443-2l4.886 0c-.229 1.14-1.237 2-2.443 2zm-9.5-3c-.275 0-.5-.224-.5-.5l0-2.831c0-.89.294-1.772.814-2.465l3.071-3.729C6.604 9.515 7 8.42 7 7.392L7 6c0-2.757 2.243-5 5-5 2.757 0 5 2.243 5 5l0 .293L3.293 20 2.5 20zM23.854.854c.195-.195.195-.512 0-.707-.196-.196-.512-.196-.707 0l-5.186 5.186C17.627 2.338 15.083 0 12 0 8.692 0 6 2.692 6 6l0 1.392c0 .813-.325 1.695-.901 2.465l-3.071 3.729C1.365 14.469 1 15.564 1 16.669L1 19.5c0 .763.574 1.388 1.312 1.482L.147 23.147c-.196.195-.196.512 0 .707.097.097.225.146.353.146.128 0 .256-.049.354-.146L3.707 21l4.85 0c.242 1.692 1.686 3 3.443 3 1.757 0 3.201-1.308 3.443-3l6.057 0c.827 0 1.5-.673 1.5-1.5l0-2.831c0-1.105-.365-2.2-1.028-3.083l-3.056-3.711C18.325 9.087 18 8.205 18 7.392l0-.685L23.854.854z" fill="#000" fill-rule="evenodd"/></svg>