<svg width="8" height="8" viewBox="0 0 8 8" xmlns="http://www.w3.org/2000/svg"><title>alerts-and-notifications/alert-muted-active_8</title><path d="M7.8555 4.50002c.093.094.145.22.145.351l0 1.416c0 .405-.331.735-.736.735l-2.264 0c-.001.551-.449.998-1 .998-.517 0-.926-.396-.979-.898l1.1-1.1 1.92-1.921.707-.707 1.107 1.126zm-1.5039-2.145l-.97.971-2.675 2.676-1 1-.001 0-.85.852c-.098.097-.226.146-.354.146-.128 0-.255-.049-.352-.146-.196-.196-.196-.512 0-.707l.241-.243c-.228-.125-.391-.359-.391-.637l0-1.421c0-.131.052-.257.145-.351l1.504-1.53 0-.611c0-1.298 1.056-2.354 2.351-2.354.891 0 1.658.504 2.057 1.235l1.088-1.088c.195-.196.512-.196.707 0 .195.195.195.511 0 .707l-1.5 1.5 0 .001z" fill="#000" fill-rule="evenodd"/></svg>