<svg width="16" height="16" viewBox="0 0 16 16" xmlns="http://www.w3.org/2000/svg"><title>alerts-and-notifications/alert-active_16</title><path d="M7.992 14.9998c-.547 0-.99-.442-.997-.987l1.995 0c-.008.545-.451.987-.998.987zm6.352-5.761l-1.856-2.229c-.295-.393-.457-.88-.457-1.371l0-.483c0-2.331-1.77-4.156-4.031-4.156-2.234 0-3.984 1.825-3.984 4.156l0 .483c0 .491-.162.978-.437 1.347l-1.923 2.253c-.423.564-.656 1.265-.656 1.971l0 1.839c0 .532.433.964.964.964l4.03 0c.007 1.097.9 1.987 1.998 1.987 1.098 0 1.992-.89 1.999-1.987l4.045 0c.531 0 .964-.432.964-.964l0-1.839c0-.706-.233-1.407-.656-1.971z" fill="#000" fill-rule="evenodd"/></svg>