<svg width="18" height="18" viewBox="0 0 18 18" xmlns="http://www.w3.org/2000/svg"><title>alerts-and-notifications/alert-muted_18</title><path d="M13.7498681 7.907l1.6319546 2.743.0289992.044c.3779895.504.5859837 1.128.5859837 1.757l0 1.486c0 .04-.0319991.073-.070998.073l-11.22868808 0 8.31276908-8.312c.0389989.815.3109914 1.642.7399795 2.209zM9 17c-1.09996945 0-1.99394461-.893-1.99894447-1.99l3.99788897 0C10.9929446 16.107 10.0999694 17 9 17zm-6.92480764-2.99c-.03999889 0-.071998-.033-.071998-.073l0-1.486c0-.63.20799422-1.254.61598289-1.801l1.6019555-2.699c.49098636-.656.78497819-1.571.78497819-2.445l0-.511c-.00199994-1.067.41298853-2.07 1.16596761-2.824C6.92605761 1.415 7.92902975 1 9.00399989 1c1.06597041 0 2.06894251.415 2.82292161 1.17.6009833.601.9739729 1.363 1.1059693 2.191l-9.649732 9.649-1.20796644 0zM17.8537541.147c-.1959946-.196-.5119858-.196-.7079804 0l-3.3899058 3.39c-.2349935-.772-.6349824-1.486-1.2219661-2.074C11.591928.519 10.3379628 0 8.99600011 0 7.66203717 0 6.408072.52 5.46509819 1.464c-.9429738.944-1.46095942 2.198-1.45895947 3.542l0 .5c0 .666-.21899392 1.356-.61498292 1.89l-1.6019555 2.698c-.50698592.675-.78597817 1.512-.78597817 2.357l0 1.486c0 .591.48098664 1.073 1.07197023 1.073l.20799422 0-2.136940642 2.136c-.1949945839.196-.1949945839.512 0 .707.097997277.098.225993722.147.353990167.147.127996444 0 .255992889-.049.353990166-.147L3.6971473 15.01l2.303936 0C6.00608316 16.659 7.34904586 18 9 18c1.6509541 0 2.9929169-1.341 2.9989167-2.99l3.9268909 0c.5909836 0 1.0709703-.482 1.0709703-1.073l0-1.486c0-.835-.2719925-1.663-.7689787-2.335L14.579845 7.351c-.3669898-.489-.5859837-1.179-.5859837-1.845l0-.51c0-.088-.0199995-.171-.0249993-.258L17.8537541.854c.1949945-.196.1949945-.512 0-.707z" fill="#000" fill-rule="evenodd"/></svg>