<svg width="20" height="20" viewBox="0 0 20 20" xmlns="http://www.w3.org/2000/svg"><title>alerts-and-notifications/alert-muted-active_20</title><path d="M15.666 7.1917l2.467 3.066c.559.745.867 1.669.867 2.599l0 3.004c0 .628-.511 1.139-1.139 1.139l-4.596 0c-.152 1.678-1.549 3.001-3.265 3.001-1.716 0-3.113-1.323-3.265-3.001l-1.613 0L15.4 6.7227c.083.16.158.325.266.469zM10 19.0007c1.165 0 2.119-.875 2.265-2.001l-4.53 0c.146 1.126 1.1 2.001 2.265 2.001zM19.8535.1472c.195.195.195.512 0 .707l-1.614 1.614-3.2 3.2-11.332 11.332-.25.25-2.604 2.604c-.098.098-.226.147-.354.147-.127 0-.255-.049-.353-.147-.195-.195-.195-.512 0-.707l2.147-2.147-.155 0c-.628 0-1.139-.511-1.139-1.139l0-3.004c0-.931.308-1.855.867-2.6l2.476-3.076c.421-.562.657-1.272.657-1.988l0-.193c0-2.761 2.239-5 5-5 2.542 0 4.618 1.903 4.936 4.358l4.211-4.211c.195-.195.512-.195.707 0z" fill="#000" fill-rule="evenodd"/></svg>