<svg width="12" height="12" viewBox="0 0 12 12" fill="none" xmlns="http://www.w3.org/2000/svg">
<path fill-rule="evenodd" clip-rule="evenodd" d="M9 2C9 1.44772 9.44771 1 10 1H11C11.5523 1 12 1.44772 12 2V8C12 8.55228 11.5523 9 11 9H10C9.44771 9 9 8.55228 9 8V2ZM11 2H10V8H11V2ZM1 3C0.447715 3 0 3.44772 0 4V8C0 8.55228 0.447715 9 1 9H2C2.55228 9 3 8.55228 3 8V4C3 3.44772 2.55228 3 2 3H1ZM1 4H2V8H1V4ZM0.5 10H11.5C11.7761 10 12 10.2239 12 10.5C12 10.7761 11.7761 11 11.5 11H0.5C0.223858 11 0 10.7761 0 10.5C0 10.2239 0.223858 10 0.5 10ZM5.5 5C4.94772 5 4.5 5.44772 4.5 6V8C4.5 8.55228 4.94772 9 5.5 9H6.5C7.05228 9 7.5 8.55228 7.5 8V6C7.5 5.44772 7.05228 5 6.5 5H5.5ZM5.5 6H6.5V8H5.5V6Z" fill="#121212"/>
</svg>
