<svg width="24" height="24" viewBox="0 0 24 24" xmlns="http://www.w3.org/2000/svg"><title>settings/analysis_24</title><path d="M22.5 21l-20 0c-.276 0-.5-.224-.5-.5 0-.276.224-.5.5-.5l20 0c.276 0 .5.224.5.5 0 .276-.224.5-.5.5zm-16-3l-2 0c-.827 0-1.5-.673-1.5-1.5l0-8C3 7.673 3.673 7 4.5 7l2 0C7.327 7 8 7.673 8 8.5l0 8c0 .827-.673 1.5-1.5 1.5zm-2-10c-.276 0-.5.225-.5.5l0 8c0 .275.224.5.5.5l2 0c.276 0 .5-.225.5-.5l0-8c0-.275-.224-.5-.5-.5l-2 0zm9 10l-2 0c-.827 0-1.5-.673-1.5-1.5l0-4c0-.827.673-1.5 1.5-1.5l2 0c.827 0 1.5.673 1.5 1.5l0 4c0 .827-.673 1.5-1.5 1.5zm-2-6c-.276 0-.5.225-.5.5l0 4c0 .275.224.5.5.5l2 0c.276 0 .5-.225.5-.5l0-4c0-.275-.224-.5-.5-.5l-2 0zm9 6l-2 0c-.827 0-1.5-.673-1.5-1.5l0-12c0-.827.673-1.5 1.5-1.5l2 0c.827 0 1.5.673 1.5 1.5l0 12c0 .827-.673 1.5-1.5 1.5zm-2-14c-.276 0-.5.225-.5.5l0 12c0 .275.224.5.5.5l2 0c.276 0 .5-.225.5-.5l0-12c0-.275-.224-.5-.5-.5l-2 0z" fill="#000" fill-rule="evenodd"/></svg>