<svg width="16" height="16" viewBox="0 0 16 16" xmlns="http://www.w3.org/2000/svg"><title>settings/analysis_16</title><path d="M15.5 14c.276 0 .5.224.5.5 0 .276-.224.5-.5.5l-15 0c-.276 0-.5-.224-.5-.5 0-.276.224-.5.5-.5l15 0zM1.944 13c-.52 0-.944-.424-.944-.944l0-6.111C1 5.424 1.424 5 1.944 5l2.112 0c.52 0 .944.424.944.945l0 6.111c0 .52-.424.944-.944.944l-2.112 0zM2 6l0 6 2 0 0-6-2 0zm4.945 7C6.424 13 6 12.576 6 12.056l0-3.112c0-.52.424-.944.945-.944l2.109 0c.521 0 .945.424.945.944l0 3.112c0 .52-.424.944-.945.944l-2.109 0zM7 12l2 0 0-3-2 0 0 3zm4.944 1c-.52 0-.944-.424-.944-.944l0-10.112c0-.52.424-.944.944-.944l2.112 0c.52 0 .944.424.944.944l0 10.112c0 .52-.424.944-.944.944l-2.112 0zM12 12l2 0 0-10-2 0 0 10z" fill="#000" fill-rule="evenodd"/></svg>