<svg width="16" height="13" xmlns="http://www.w3.org/2000/svg"><path d="M15 9.24a.727.727 0 01-.284.575.861.861 0 01-.736.166L4 7.798v-4.81l9.982-1.964a.868.868 0 01.735.166.734.734 0 01.283.575V9.24zm-9.02 2.055a.527.527 0 01-.074.484c-.24.334-.83.238-.954-.165l-.895-2.78 1.178.258.745 2.203zM1 5.38c0-.81.477-1.862 1.805-2.156L3 3.186v4.393l-.188-.041C1.475 7.24 1 6.19 1 5.38zM15.343.41a1.843 1.843 0 00-1.565-.364L2.6 2.246C.805 2.642.001 4.106 0 5.38c0 1.273.803 2.736 2.597 3.134l.331.073 1.07 3.327c.2.65.791 1.089 1.472 1.089.5 0 .955-.233 1.248-.64.292-.404.37-.91.212-1.385l-.546-1.635 7.382 1.615a1.852 1.852 0 001.576-.363c.418-.335.658-.83.658-1.355V1.765c0-.525-.239-1.018-.657-1.354z" fill="#171B1F" fill-rule="evenodd"/></svg>