<svg width="20" height="16" xmlns="http://www.w3.org/2000/svg"><path d="M19 11.878c0 .332-.153.646-.42.859a1.215 1.215 0 01-1.034.233L3.987 10.036v-6.08l13.564-2.924c.365-.083.741.003 1.029.234.267.213.42.526.42.858v9.754zm-12.059 2.05a.808.808 0 01-.111.734c-.368.509-1.259.36-1.441-.238l-1.001-3.277 1.753.378.8 2.403zM1 6.995c0-1.003.54-2.267 1.987-2.781v5.562C1.538 9.261 1 7.997 1 6.995zM19.205.484a2.2 2.2 0 00-1.869-.428L3.187 3.106C.986 3.6.001 5.415 0 6.994c0 1.58.984 3.396 3.184 3.892l.086.018 1.163 3.811a1.805 1.805 0 001.735 1.286c.591 0 1.127-.274 1.473-.754a1.796 1.796 0 00.249-1.636l-.614-1.84 10.055 2.174a2.206 2.206 0 001.873-.426A2.095 2.095 0 0020 11.878V2.124c0-.638-.29-1.235-.795-1.64z" fill="#171B1F" fill-rule="evenodd"/></svg>