<svg width="20" height="20" viewBox="0 0 20 20" xmlns="http://www.w3.org/2000/svg"><title>content/annotation_20</title><path d="M14.456819 19c-.0552161 0-.1084244-.0030049-.1606288-.0080131-.3443481-.0370605-.8182033-.2083403-1.125406-.8133284-.5441303-1.0667424.5411185-2.8927248 1.7990433-5.0081801 1.1013116-1.8550298 2.6112229-4.39517874 1.7709332-4.96010145-1.1444807-.77526627-3.3089546 1.40729859-5.2164223 3.33043975-1.77896467 1.7919268-3.45954414 3.4846916-4.86605061 3.4846916l-.00803144 0c-.45980012-.0020032-.86137227-.1762879-1.1926693-.5168441-1.31916453-1.3582185.3272813-3.88133957 2.07211232-6.5527028 1.26495229-1.9391673 2.69956883-4.1367567 2.44758228-5.25858903-.05320831-.23438282-.1817114-.40766585-.40458394-.54589162C8.04371173 1.208941271 3.96675042 4.79579981.90074702 8.80234383c-.167656375.21935828-.482890517.26343027-.703755202.09515542-.2198607546-.16827485-.2620258309-.48278856-.094369456-.70214684C.79834612 7.28686855 6.9855691-.62104771 10.0997612 1.300090147c.4567883.280458082.7449163.67710594.8573565 1.178925583.3433442 1.53350472-1.08022909 3.7140663-2.58612467 6.02383893C7.0548403 10.51814631 5.4164259 13.0272445 6.179413 13.8115255c.14255811.1472405.28009658.2153517.47987872.2123468.98686357 0 2.66844697-1.6927648 4.15125218-3.18720574 2.2899652-2.30776936 4.658237-4.69066142 6.4914139-3.4576475 1.6263672 1.09478816.0532083 3.74211214-1.4697541 6.30229374-.8694037 1.4633902-2.0610691 3.4676639-1.7679214 4.0436046.1124402.217355.2288961.2584221.3393284.2704417 1.0230051.1121832 3.361159-2.1505125 4.7064257-3.7881874.1756878-.2143501.4909219-.2454008.7057631-.0701145.2148411.1752863.2459629.4908016.0702751.7041501C19.3047989 15.5503656 16.3763339 19 14.456819 19" fill="#000" fill-rule="evenodd"/></svg>