<svg width="18" height="18" viewBox="0 0 18 18" xmlns="http://www.w3.org/2000/svg"><title>content/annotation_18</title><path d="M13.3372206 17c-.315 0-.759-.1070663-1.097-.6173823-.619-.9355794.199-2.5856012 1.234-4.6728937.853-1.71806394 2.02-4.07052071 1.287-4.56582743-.932-.63139099-2.912 1.5439561-4.503 3.29003737-1.701 1.86715626-3.303 3.63525116-4.694 3.60022946-.469-.0110068-.89-.2241388-1.217-.6193836-1.095-1.317816.491-3.62524491 2.172-6.06875807 1.219-1.77409861 2.602-3.78634471 2.394-4.77795877-.04-.18911711-.139-.32420076-.322-.43727078-1.476-.912565109-5.484 2.7767195-7.694000005 5.67251273-.168.2191357-.481.26316296-.701.09405824-.2189999997-.16710348-.2609999997-.48129804-.094-.70043374C1.7592206 5.02458417 6.6082206-.26869371 9.1162206 1.279264869c.418.258159867.679.622385415.775 1.082670451.297 1.41187431-1.085 3.42311978-2.549 5.55143775-1.264 1.83813827-2.837 4.12655543-2.226 4.86201083.185.2231382.349.255158.471.2581599l.016 0c.935 0 2.518-1.7380764 3.916-3.27302688 2.134-2.34545243 4.149-4.55982369 5.801-3.44613403 1.459.98460972.234 3.45313837-.95 5.84061681-.636 1.2817938-1.597 3.219994-1.296 3.6752759.103.1560967.156.150093.264.1691048.877-.0020013 2.717-2.2103688 3.743-3.7783398.152-.2311431.462-.2961834.693-.1450898.23.1510935.295.4622862.144.6924288-.462.7064374-2.852 4.2266173-4.578 4.2316204l-.003 0z" fill="#000" fill-rule="evenodd"/></svg>