<?xml version="1.0" encoding="UTF-8"?>
<svg width="20px" height="20px" viewBox="0 0 20 20" version="1.1" xmlns="http://www.w3.org/2000/svg" xmlns:xlink="http://www.w3.org/1999/xlink">
    <!-- Generator: Sketch 58 (84663) - https://sketch.com -->
    <title>appearance_20</title>
    <desc>Created with Sketch.</desc>
    <g id="Icons-Webex" stroke="none" stroke-width="1" fill="none" fill-rule="evenodd">
        <g id="settings/appearance_20" fill="#171B1F">
            <g id="appearance_20" transform="translate(2.000000, 0.000000)">
                <path d="M13.5,19 L12.25,19 L12.25,16 L15,16 L15,17.5 C15,18.327 14.327,19 13.5,19 L13.5,19 Z M1,17.5 L1,16 L3.75,16 L3.75,19 L2.5,19 C1.673,19 1,18.327 1,17.5 L1,17.5 Z M8.5,19 L11.25,19 L11.25,16 L8.5,16 L8.5,19 Z M4.75,19 L7.5,19 L7.5,16 L4.75,16 L4.75,19 Z M2.5,10 L5.146,10 C5.807,10 6.423,9.674 6.793,9.129 C7.169,8.576 7.244,7.873 6.997,7.248 C6.354,5.629 6,3.709 6,3 C6,1.897 6.897,1 8,1 C9.103,1 10,1.897 10,3 C10,3.709 9.646,5.629 9.003,7.248 C8.756,7.873 8.832,8.576 9.207,9.129 C9.577,9.674 10.193,10 10.854,10 L13.5,10 C14.327,10 15,10.673 15,11.5 L15,15 L1,15 L1,11.5 C1,10.673 1.673,10 2.5,10 L2.5,10 Z M8,0 C9.657,0 11,1.343 11,3 C11,3.92 10.585,5.972 9.933,7.617 C9.67,8.28 10.141,9 10.854,9 L10.854,9 L13.5,9 C14.881,9 16,10.119 16,11.5 L16,11.5 L16,17.5 C16,18.881 14.881,20 13.5,20 L13.5,20 L2.5,20 C1.119,20 0,18.881 0,17.5 L0,17.5 L0,11.5 C0,10.119 1.119,9 2.5,9 L2.5,9 L5.146,9 C5.859,9 6.33,8.28 6.067,7.617 C5.415,5.972 5,3.92 5,3 C5,1.343 6.343,0 8,0 Z M8,2.5 C7.724,2.5 7.5,2.724 7.5,3 C7.5,3.276 7.724,3.5 8,3.5 C8.276,3.5 8.5,3.276 8.5,3 C8.5,2.724 8.276,2.5 8,2.5 Z" id="fill"></path>
            </g>
        </g>
    </g>
</svg>