<svg width="24" height="24" viewBox="0 0 24 24" xmlns="http://www.w3.org/2000/svg"><title>format/application_24</title><path d="M23 6L1 6l0-.5C1 4.673 1.673 4 2.5 4l19 0c.827 0 1.5.673 1.5 1.5l0 .5zm0 12.5c0 .827-.673 1.5-1.5 1.5l-19 0c-.827 0-1.5-.673-1.5-1.5L1 7l22 0 0 11.5zM21.5 3C22.881 3 24 4.119 24 5.5l0 13c0 1.381-1.119 2.5-2.5 2.5l-19 0C1.119 21 0 19.881 0 18.5l0-13C0 4.119 1.119 3 2.5 3l19 0zM16 10.7085l2.65 2.655-2.65 1.327 0-3.982zm-.5 5.292c.076 0 .153-.018.224-.053l1.628-.816.697 1.571c.083.187.265.298.457.298.068 0 .137-.014.203-.043.252-.112.366-.408.254-.66l-.716-1.614 1.471-.736c.143-.072.244-.209.269-.367.027-.159-.025-.32-.139-.434l-3.994-4c-.143-.143-.357-.185-.545-.108-.187.077-.309.259-.309.462l0 6c0 .173.09.334.237.425.08.05.171.075.263.075z" fill="#000" fill-rule="evenodd"/></svg>