<svg width="16" height="16" viewBox="0 0 16 16" xmlns="http://www.w3.org/2000/svg"><title>format/application_16</title><path d="M15 12c0 .552-.449 1-1 1L2 13c-.551 0-1-.448-1-1l0-7 14 0 0 7zM2 3l12 0c.551 0 1 .448 1 1L1 4c0-.552.449-1 1-1zm12-1c1.104 0 2 .896 2 2l0 1 0 7c0 1.104-.896 2-2 2L2 14c-1.104 0-2-.896-2-2l0-7 0-1c0-1.104.896-2 2-2l12 0zm-4 5.6914c.4.402.889.896 1.329 1.344L10 9.6994l0-2.008zm-.5 3.318c.077 0 .153-.017.224-.052l.989-.496.616 1.267c.086.179.264.282.45.282.073 0 .148-.015.218-.049.248-.121.352-.42.232-.668l-.622-1.28.783-.39c.143-.073.243-.207.27-.366.026-.158-.025-.318-.137-.431-2.865-2.926-2.863-2.918-3.211-2.781-.188.078-.312.261-.312.464l0 4c0 .172.09.334.237.426.08.049.172.074.263.074z" fill="#000" fill-rule="evenodd"/></svg>