<svg width="20" height="20" viewBox="0 0 20 20" xmlns="http://www.w3.org/2000/svg"><title>format/application-panel_20</title><path d="M17.505 2C18.881 2 20 3.119 20 4.495l0 11.01C20 16.881 18.881 18 17.505 18l-15.01 0C1.119 18 0 16.881 0 15.505l0-11.01C0 3.119 1.119 2 2.495 2l15.01 0zM19 15.505l0-11.01C19 3.671 18.329 3 17.505 3L8 3l0 14 9.505 0c.824 0 1.495-.671 1.495-1.495zm-18 0C1 16.329 1.671 17 2.495 17L7 17 7 3 2.495 3C1.671 3 1 3.671 1 4.495l0 11.01zM3.5 5l1 0c.27614237 0 .5.22385763.5.5 0 .27614237-.22385763.5-.5.5l-1 0c-.27614237 0-.5-.22385763-.5-.5 0-.27614237.22385763-.5.5-.5zm0 3l1 0c.27614237 0 .5.22385763.5.5 0 .27614237-.22385763.5-.5.5l-1 0c-.27614237 0-.5-.22385763-.5-.5 0-.27614237.22385763-.5.5-.5zm0 3l1 0c.27614237 0 .5.22385763.5.5 0 .27614237-.22385763.5-.5.5l-1 0c-.27614237 0-.5-.22385763-.5-.5 0-.27614237.22385763-.5.5-.5z" fill="#000" fill-rule="evenodd"/></svg>