<svg width="16" height="16" viewBox="0 0 16 16" xmlns="http://www.w3.org/2000/svg"><title>format/application-panel_16</title><path d="M14 2c1.105 0 2 .895 2 2l0 8c0 1.105-.895 2-2 2L2 14c-1.105 0-2-.895-2-2l0-8c0-1.105.895-2 2-2l12 0zm1 10l0-8c0-.551-.449-1-1-1L6 3l0 10 8 0c.551 0 1-.449 1-1zM5 13L5 3 2 3c-.551 0-1 .449-1 1l0 8c0 .551.449 1 1 1l3 0zM2.5 4l1 0c.27614237 0 .5.22385763.5.5 0 .27614237-.22385763.5-.5.5l-1 0c-.27614237 0-.5-.22385763-.5-.5 0-.27614237.22385763-.5.5-.5zm0 2l1 0c.27614237 0 .5.22385763.5.5 0 .27614237-.22385763.5-.5.5l-1 0c-.27614237 0-.5-.22385763-.5-.5 0-.27614237.22385763-.5.5-.5zm0 2l1 0c.27614237 0 .5.22385763.5.5 0 .27614237-.22385763.5-.5.5l-1 0c-.27614237 0-.5-.22385763-.5-.5 0-.27614237.22385763-.5.5-.5z" fill="#000" fill-rule="evenodd"/></svg>