<svg width="24" height="24" viewBox="0 0 24 24" xmlns="http://www.w3.org/2000/svg"><title>format/applications_24</title><path d="M23 3L12 3l0-.469C12 1.687 12.687 1 13.531 1l7.938 0C22.313 1 23 1.687 23 2.531L23 3zm0 6.469c0 .844-.687 1.531-1.531 1.531L18 11l0-2.469C18 7.136 16.864 6 15.469 6L12 6l0-2 11 0 0 5.469zM17 9L6 9l0-.469C6 7.687 6.687 7 7.531 7l7.938 0C16.313 7 17 7.687 17 8.531L17 9zm0 6.469c0 .844-.687 1.531-1.531 1.531L13 17l0-2.469C13 13.136 11.864 12 10.469 12L6 12l0-2 11 0 0 5.469zM12 15L1 15l0-.469C1 13.687 1.687 13 2.531 13l7.938 0c.844 0 1.531.687 1.531 1.531L12 15zm0 6.469c0 .844-.687 1.531-1.531 1.531l-7.938 0C1.687 23 1 22.313 1 21.469L1 16l11 0 0 5.469zM21.469 0l-7.938 0C12.136 0 11 1.136 11 2.531L11 6 7.531 6C6.136 6 5 7.136 5 8.531L5 12l-2.469 0C1.136 12 0 13.136 0 14.531l0 6.938C0 22.864 1.136 24 2.531 24l7.938 0C11.864 24 13 22.864 13 21.469L13 18l2.469 0C16.864 18 18 16.864 18 15.469L18 12l3.469 0C22.864 12 24 10.864 24 9.469l0-6.938C24 1.136 22.864 0 21.469 0z" fill="#000" fill-rule="evenodd"/></svg>