<svg width="24" height="24" viewBox="0 0 24 24" xmlns="http://www.w3.org/2000/svg"><title>content/apps_24</title><path d="M9.9999 8.5l0-5c0-.827-.673-1.5-1.5-1.5l-5 0c-.827 0-1.5.673-1.5 1.5l0 5c0 .827.673 1.5 1.5 1.5l5 0c.827 0 1.5-.673 1.5-1.5zm-1.5-7.5c1.381 0 2.5 1.119 2.5 2.5l0 5c0 1.381-1.119 2.5-2.5 2.5l-5 0c-1.381 0-2.5-1.119-2.5-2.5l0-5c0-1.381 1.119-2.5 2.5-2.5l5 0zm1.5 19.5l0-5c0-.827-.673-1.5-1.5-1.5l-5 0c-.827 0-1.5.673-1.5 1.5l0 5c0 .827.673 1.5 1.5 1.5l5 0c.827 0 1.5-.673 1.5-1.5zm-1.5-7.5c1.381 0 2.5 1.119 2.5 2.5l0 5c0 1.381-1.119 2.5-2.5 2.5l-5 0c-1.381 0-2.5-1.119-2.5-2.5l0-5c0-1.381 1.119-2.5 2.5-2.5l5 0zm13.5-4.5l0-5c0-.827-.673-1.5-1.5-1.5l-5 0c-.827 0-1.5.673-1.5 1.5l0 5c0 .827.673 1.5 1.5 1.5l5 0c.827 0 1.5-.673 1.5-1.5zm-1.5-7.5c1.381 0 2.5 1.119 2.5 2.5l0 5c0 1.381-1.119 2.5-2.5 2.5l-5 0c-1.381 0-2.5-1.119-2.5-2.5l0-5c0-1.381 1.119-2.5 2.5-2.5l5 0zm-2.5 21c2.206 0 4-1.795 4-4 0-2.206-1.794-4-4-4-2.205 0-4 1.794-4 4 0 2.205 1.795 4 4 4zm0-9c2.762 0 5 2.238 5 5 0 2.762-2.238 5-5 5-2.762 0-5-2.238-5-5 0-2.762 2.238-5 5-5z" fill-rule="evenodd"/></svg>