<svg width="28" height="28" viewBox="0 0 28 28" xmlns="http://www.w3.org/2000/svg"><title>content/apps-active_28</title><path d="M10 1c1.657 0 3 1.343 3 3l0 6c0 1.657-1.343 3-3 3l-6 0c-1.657 0-3-1.343-3-3l0-6c0-1.657 1.343-3 3-3l6 0zm14 0c1.657 0 3 1.343 3 3l0 6c0 1.657-1.343 3-3 3l-6 0c-1.657 0-3-1.343-3-3l0-6c0-1.657 1.343-3 3-3l6 0zM10 15c1.657 0 3 1.343 3 3l0 6c0 1.657-1.343 3-3 3l-6 0c-1.657 0-3-1.343-3-3l0-6c0-1.657 1.343-3 3-3l6 0zm11 0c3.313 0 6 2.687 6 6 0 3.313-2.687 6-6 6-3.313 0-6-2.687-6-6 0-3.313 2.687-6 6-6z" fill-rule="evenodd"/></svg>