<svg width="12" height="12" viewBox="0 0 12 12" xmlns="http://www.w3.org/2000/svg"><title>content/archive_12</title><path d="M10 10.167c0 .459-.374.833-.833.833L2.5 11c-.276 0-.5-.225-.5-.5L2 3l8 0 0 7.167zM10.5 2c.276 0 .5.224.5.5l0 7.667C11 11.178 10.178 12 9.167 12L2.5 12c-.827 0-1.5-.673-1.5-1.5l0-8c0-.276.224-.5.5-.5l9 0zm1-2c.275 0 .5.225.5.5 0 .275-.225.5-.5.5L.5 1C.225 1 0 .775 0 .5 0 .225.225 0 .5 0l11 0zM7 5c0 .552-.449 1-1 1-.551 0-1-.448-1-1l2 0zM6 7c1.103 0 2-.897 2-2l0-.5c0-.276-.224-.5-.5-.5l-3 0c-.276 0-.5.224-.5.5L4 5c0 1.103.897 2 2 2z" fill="#000" fill-rule="evenodd"/></svg>