<svg width="14" height="14" viewBox="0 0 14 14" xmlns="http://www.w3.org/2000/svg"><title>navigation/arrow-tail-down_14</title><path d="M11.8535 7.61388209c-.195-.19617706-.512-.19617706-.707 0l-3.647 3.66800801 0-9.778671991c0-.278672033-.223-.503018109-.5-.503018109-.276 0-.5.224346076-.5.503018109l0 9.778671991-3.646-3.66800801c-.195-.19617706-.512-.19617706-.707 0-.195.19617706-.195.51509055 0 .71126761l4.5 4.527163c.098.0985915.226.1478873.353.1478873.128 0 .256-.0492958.354-.1478873l4.5-4.527163c.195-.19617706.195-.51509055 0-.71126761" fill="#000" fill-rule="evenodd"/></svg>