<svg width="16" height="16" viewBox="0 0 16 16" xmlns="http://www.w3.org/2000/svg"><title>navigation/arrow-circle-left_16</title><path d="M16 8c0 4.418-3.582 8-8 8-4.418 0-8-3.582-8-8 0-4.418 3.582-8 8-8 4.418 0 8 3.582 8 8zM1 8c0 3.859 3.14 7 7 7 3.86 0 7-3.141 7-7 0-3.86-3.14-7-7-7-3.86 0-7 3.14-7 7zm8.8506 3.1436c.198.194.198.511.006.707-.193.197-.51.199-.707.006l-3.561-3.5c-.095-.094-.15-.222-.15-.356l0-.001c0-.133.054-.262.149-.356l3.551-3.5c.197-.193.513-.191.707.005.194.199.191.515-.005.707l-3.189 3.144 3.199 3.144z" fill="#000" fill-rule="evenodd"/></svg>