<svg width="12" height="12" viewBox="0 0 12 12" fill="none" xmlns="http://www.w3.org/2000/svg">
<path fill-rule="evenodd" clip-rule="evenodd" d="M3.25569 10.261C3.34269 10.261 3.42869 10.284 3.50569 10.328C4.26569 10.767 5.1287 10.999 5.99969 10.999C8.75669 10.999 10.9997 8.756 10.9997 5.999C10.9997 3.242 8.75669 0.998999 5.99969 0.998999C3.24269 0.998999 0.999695 3.242 0.999695 5.999C0.999695 6.871 1.23269 7.733 1.67169 8.493C1.73769 8.608 1.75569 8.745 1.72169 8.873L1.20669 10.792L3.12669 10.278C3.16869 10.267 3.21269 10.261 3.25569 10.261ZM0.499695 11.9997C0.369695 11.9997 0.241695 11.9487 0.146695 11.8537C0.0196948 11.7267 -0.0293052 11.5427 0.0166948 11.3707L0.703695 8.8097C0.242695 7.9437 -0.000305176 6.9767 -0.000305176 5.9997C-0.000305176 2.6917 2.69169 -0.000301361 5.99969 -0.000301361C9.30869 -0.000301361 11.9997 2.6917 11.9997 5.9997C11.9997 9.3087 9.30869 11.9997 5.99969 11.9997C5.02369 11.9997 4.05669 11.7577 3.18969 11.2967L0.629695 11.9827C0.586695 11.9947 0.543695 11.9997 0.499695 11.9997ZM5.99976 8.48999C5.72376 8.48999 5.49976 8.71399 5.49976 8.98999C5.49976 9.26599 5.72376 9.48999 5.99976 9.48999C6.27576 9.48999 6.49976 9.26599 6.49976 8.98999C6.49976 8.71399 6.27576 8.48999 5.99976 8.48999ZM4.621 3.55961C5.008 3.18461 5.53 2.97961 6.052 3.00161C7.126 3.03261 8 3.93461 8 5.01261C8 5.91761 7.476 6.35561 7.13 6.64461L7.12407 6.64961C7.06912 6.69588 7.01519 6.74128 6.965 6.78761L6.709 7.02261C6.579 7.14161 6.504 7.31261 6.504 7.49061C6.504 7.76661 6.281 7.99061 6.004 7.99061C5.728 7.99061 5.504 7.76661 5.504 7.49061C5.504 7.03361 5.697 6.59461 6.032 6.28661L6.288 6.05161C6.34106 6.00197 6.39925 5.95307 6.45881 5.90301C6.46884 5.89458 6.47891 5.88612 6.489 5.87761C6.815 5.60461 7 5.42961 7 5.01261C7 4.47961 6.552 4.01661 6.024 4.00161C5.761 3.98961 5.509 4.09061 5.318 4.27661C5.113 4.47661 5 4.75061 5 5.04761C5 5.32361 4.776 5.54761 4.5 5.54761C4.223 5.54761 4 5.32361 4 5.04761C4 4.47761 4.22 3.94961 4.621 3.55961Z" fill="#121212"/>
</svg>
