<svg width="16" height="16" viewBox="0 0 16 16" xmlns="http://www.w3.org/2000/svg"><title>meetings/assign-privilege_16</title><path d="M7.99970449 9C10.2046166 9 11.999545 7.206 11.999545 5c0-2.206-1.7949284-4-3.99984051-4C5.79479242 1 3.999864 2.794 3.999864 5c0 2.206 1.79492842 4 3.99984049 4zm7.97268201 5.765c.0709972.307.002.625-.1929923.869-.1839926.232-.4579817.366-.7489701.366l-8.53065979 0c-.275989 0-.49998006-.224-.49998006-.5 0-.276.22399106-.5.49998006-.5l8.49866109-.007-.550978-2.348C14.0834619 11.087 12.7875136 10 11.296573 10l-3.29686851 0c-2.75689006 0-4.99980061-2.243-4.99980061-5 0-2.757 2.24291055-5 4.99980061-5 2.75689001 0 4.99980061 2.243 4.99980061 5 0 1.642-.8059679 3.088-2.030919 4l.3279869 0c1.9579219 0 3.6538543 1.405 4.1248355 3.416l.550978 2.349zm-9.08203777-1.9676c-.01399944.018-.02099916.04-.03699852.056l-2.99988037 3c-.09799609.098-.22599099.147-.35398588.147-.1279949 0-.25498983-.049-.35298593-.147-.19499222-.195-.19499222-.512 0-.707l2.14591443-2.146-4.79280887 0c-.273989073 0-.4989801005-.225-.4999800606-.499l0-.001 0-.001c.0009999601-.275.2259909876-.499.4999800606-.499l4.79280887 0-2.14591443-2.147c-.19499222-.195-.19499222-.512 0-.707.19499223-.195.51197959-.195.70697181 0l2.99988037 3c.01599936.016.02199912.037.03599856.054.02599896.034.05499781.068.07099717.108.05099797.123.05099797.26 0 .383-.01599936.04-.04399825.072-.06999721.106z" fill-rule="evenodd"/></svg>