<?xml version="1.0" encoding="UTF-8"?>
<svg width="24px" height="24px" viewBox="0 0 24 24" version="1.1" xmlns="http://www.w3.org/2000/svg" xmlns:xlink="http://www.w3.org/1999/xlink">
    <!-- Generator: Sketch 60.1 (88133) - https://sketch.com -->
    <title>meetings/assignment_24</title>
    <desc>Created with Sketch.</desc>
    <g id="meetings/assignment_24" stroke="none" stroke-width="1" fill="none" fill-rule="evenodd">
        <path d="M11,2 C11.276,2 11.5,2.224 11.5,2.5 L11.5,2.5 L11.5,12.5 L21.5,12.5 C21.776,12.5 22,12.724 22,13 L22,13 L22,21.5 C22,22.879 20.879,24 19.5,24 L19.5,24 L2.5,24 C1.121,24 0,22.879 0,21.5 L0,21.5 L0,4.5 C0,3.121 1.121,2 2.5,2 L2.5,2 Z M21,13.5 L11.5,13.5 L11.5,23 L19.5,23 C20.327,23 21,22.327 21,21.5 L21,21.5 L21,13.5 Z M10.5,13.5 L1,13.5 L1,21.5 C1,22.327 1.673,23 2.5,23 L2.5,23 L10.5,23 L10.5,13.5 Z M10.5,3 L2.5,3 C1.673,3 1,3.673 1,4.5 L1,4.5 L1,12.5 L10.5,12.5 L10.5,3 Z M21.5,0 C22.879,0 24,1.121 24,2.5 L24,2.5 L24,10.5 C24,10.776 23.776,11 23.5,11 L23.5,11 L13.5,11 C13.224,11 13,10.776 13,10.5 L13,10.5 L13,0.5 C13,0.224 13.224,0 13.5,0 L13.5,0 Z M21.5,1 L14,1 L14,10 L23,10 L23,2.5 C23,1.673 22.327,1 21.5,1 L21.5,1 Z" id="fill" fill="#171B1F"></path>
    </g>
</svg>