<svg width="24" height="24" viewBox="0 0 24 24" xmlns="http://www.w3.org/2000/svg"><title>meetings/assignment_24</title><path d="M21 21.5c0 .827-.673 1.5-1.5 1.5l-8 0 0-9.5 9.5 0 0 8zm-10.5-9l-9.5 0 0-8C1 3.673 1.673 3 2.5 3l8 0 0 9.5zm0 10.5l-8 0c-.827 0-1.5-.673-1.5-1.5l0-8 9.5 0 0 9.5zm11-10.5c.276 0 .5.224.5.5l0 8.5c0 1.379-1.121 2.5-2.5 2.5l-17 0C1.121 24 0 22.879 0 21.5l0-17C0 3.121 1.121 2 2.5 2L11 2c.276 0 .5.224.5.5l0 10 10 0zm0-12.5C22.879 0 24 1.121 24 2.5l0 8c0 .276-.224.5-.5.5l-10 0c-.276 0-.5-.224-.5-.5l0-10c0-.276.224-.5.5-.5l8 0zM23 10l0-7.5c0-.827-.673-1.5-1.5-1.5L14 1l0 9 9 0z" fill-rule="evenodd"/></svg>