<svg width="32" height="32" viewBox="0 0 32 32" xmlns="http://www.w3.org/2000/svg"><title>phone/asterisk_32</title><path d="M27.7501 22.207L16.9991 16l10.751-6.207c.239-.138.321-.443.183-.683-.138-.239-.445-.323-.683-.182l-10.75 6.207 0-12.635c0-.276-.224-.5-.5-.5-.276 0-.5.224-.5.5l0 12.635-10.75-6.207c-.238-.139-.545-.056-.683.182-.138.24-.056.545.183.683L15.0011 16l-10.751 6.207c-.239.138-.321.443-.183.683.092.16.261.25.433.25.085 0 .171-.022.25-.068l10.75-6.207 0 12.635c0 .276.224.5.5.5.276 0 .5-.224.5-.5l0-12.635 10.75 6.207c.079.046.165.068.25.068.172 0 .341-.09.433-.25.138-.24.056-.545-.183-.683" fill-rule="evenodd"/></svg>