<svg width="16" height="16" viewBox="0 0 16 16" xmlns="http://www.w3.org/2000/svg"><title>phone/asterisk_16</title><path d="M14.7403 11.3174l-5.745-3.317 5.745-3.317c.239-.138.321-.444.183-.683-.138-.241-.445-.322-.683-.183l-5.745 3.316 0-6.633c0-.277-.224-.5-.5-.5-.276 0-.5.223-.5.5l0 6.633-5.745-3.316c-.238-.137-.545-.058-.683.183-.139.239-.056.545.183.683l5.745 3.317-5.745 3.317c-.239.138-.322.443-.183.683.092.16.261.25.433.25.085 0 .171-.022.25-.068l5.745-3.316 0 6.634c0 .276.224.5.5.5.276 0 .5-.224.5-.5l0-6.634 5.745 3.316c.079.046.165.068.25.068.172 0 .341-.09.433-.25.138-.24.056-.545-.183-.683" fill-rule="evenodd"/></svg>