<svg width="12" height="12" viewBox="0 0 12 12" xmlns="http://www.w3.org/2000/svg"><title>content/attachment_12</title><path d="M3.4314857 11.9956c-.87899634 0-1.75799267-.3340028-2.42798988-1.0040084-1.337994426-1.33901113-1.337994426-3.51702929 0-4.85504044l3.06798721-3.06802558c.76599681-.76500638 2.01399161-.76500638 2.78098841 0 .37099845.3720031.5759976.86600722.5759976 1.3910116 0 .52500437-.20499915 1.01900849-.5759976 1.39001158L4.85147978 7.85056545c-.19499919.19600163-.51199787.19600163-.70699705 0-.19499919-.19500163-.19499919-.51100426 0-.7070059l2.00099166-2.00101668c.18199924-.18200152.28299882-.42400353.28299882-.68300569 0-.25800215-.10099958-.50100418-.28299882-.68400571-.37699843-.37700314-.98999588-.37700314-1.36699431 0L1.71049287 6.84355705c-.947996048.94900791-.947996048 2.49202078 0 3.44102865.94899605.9490079 2.49298961.9490079 3.44198566 0l5.13297857-5.13304275c.9489961-.94900792.9489961-2.49202078 0-3.44102869-.94899601-.949007912-2.49298958-.949007912-3.44098563 0-.19599918.19500163-.51199786.19500163-.70699705 0-.19599918-.19500163-.19599918-.51200427 0-.70700589 1.33799442-1.338011159 3.51698534-1.338011159 4.85497978 0 1.3389944 1.33901116 1.3389944 3.51602931 0 4.85504047L5.85947558 10.9915916C5.19047837 11.6605972 4.31048203 11.9956 3.4314857 11.9956" fill="#000" fill-rule="evenodd"/></svg>