<svg width="20" height="20" viewBox="0 0 20 20" xmlns="http://www.w3.org/2000/svg"><title>content/attachment_20</title><path d="M5.49705675 20c-1.2421327 0-2.46922748-.3999433-3.45772049-1.2158676C.804221255 17.7637257.0813982701 16.3263356.0062086392 14.7365862-.0679784632 13.1688888.525518356 11.633267 1.63431478 10.5246523l5.2151528-5.21329561c1.14187986-1.14469979 2.97851191-1.1918109 4.17954092-.11226478.6305904.5693428.9874905 1.34216551 1.0095461 2.18314898.0220557.84198583-.2927383 1.6328511-.8882401 2.22825536L7.87304908 12.8862221c-.19549304.1964633-.51229201.1964633-.70878758 0-.19549304-.195461-.19549304-.5122081 0-.7086714l3.2772654-3.27572586c.3990063-.3989409.6105398-.9291915.5955019-1.49352248-.015038-.56332862-.2546423-1.08155085-.6736991-1.45843975-.80904047-.72972105-2.03914283-.69564067-2.80507454.07016549l-5.21515279 5.2132956c-.90929327.9091442-1.396522081 2.1691159-1.33536785 3.455149.06215676 1.3040757.65565358 2.4848606 1.67021234 3.322837 1.7925208 1.4794893 4.55749415 1.2780142 6.29487589-.4580804l8.57963815-8.57923424c1.7373817-1.73709696 1.9378874-4.50161711.4581555-6.2938441-.8381138-1.01539481-2.0170872-1.60779199-3.3213766-1.66993856-1.2872465-.047111114-2.5464222.42500237-3.456718 1.33615132-.195493.195461-.5132946.195461-.7087876 0-.195493-.19646336-.195493-.51321041 0-.7086714C11.6335332.527072909 13.1744193-.0863739119 14.7373611.0098530403c1.5890076.0751773065 3.0266333.7968794477 4.0462047 2.0317919997 1.8055537 2.18615607 1.5759747 5.54207103-.5213148 7.64102143L9.68161034 18.2619007C8.53171025 19.4116123 7.00285442 20 5.49705675 20" fill="#000" fill-rule="evenodd"/></svg>