<svg width="20" height="20" viewBox="0 0 20 20" xmlns="http://www.w3.org/2000/svg"><title>audio/audio-broadcast_20</title><path d="M1 10c0 2.404.936 4.664 2.636 6.364.196.195.196.511 0 .707-.097.097-.225.146-.353.146-.128 0-.256-.049-.354-.146C1.04 15.182 0 12.671 0 10c0-2.671 1.04-5.182 2.929-7.071.196-.195.512-.195.707 0 .196.196.196.512 0 .707C1.936 5.336 1 7.596 1 10zm16.0708-7.0708c1.889 1.889 2.929 4.4 2.929 7.071 0 2.671-1.04 5.182-2.929 7.071-.098.097-.226.146-.354.146-.127 0-.255-.049-.353-.146-.195-.196-.195-.512 0-.707 1.7-1.7 2.636-3.96 2.636-6.364 0-2.404-.936-4.664-2.636-6.364-.195-.195-.195-.512 0-.707.195-.195.512-.195.707 0zM5.7573 5.0503c.195.195.195.512 0 .707-2.339 2.339-2.339 6.146 0 8.485.195.196.195.512 0 .707-.098.098-.226.147-.354.147-.127 0-.255-.049-.353-.147-1.322-1.322-2.05-3.08-2.05-4.949 0-1.87.728-3.628 2.05-4.95.195-.195.512-.195.707 0zm9.1924 0c1.322 1.322 2.05 3.08 2.05 4.95 0 1.869-.728 3.627-2.05 4.949-.098.098-.226.147-.354.147-.127 0-.255-.049-.353-.147-.195-.195-.195-.511 0-.707 2.339-2.339 2.339-6.146 0-8.485-.195-.195-.195-.512 0-.707.195-.195.512-.195.707 0zM10 8c1.103 0 2 .897 2 2 0 1.103-.897 2-2 2-1.103 0-2-.897-2-2 0-1.103.897-2 2-2zm0 3c.551 0 1-.449 1-1 0-.551-.449-1-1-1-.551 0-1 .449-1 1 0 .551.449 1 1 1z" fill="#000" fill-rule="evenodd"/></svg>