<svg xmlns="http://www.w3.org/2000/svg" viewBox="0 0 28 28"><title>audio/audio-options_28</title><path d="M16.1 11.7c0 .1 0 .1 0 0 .1.1.2.2.2.2.1 0 .1 0 .2 0h8c.3 0 .5-.2.5-.5 0-.3-.2-.5-.5-.5h-6.8L27.8.9c.2-.2.2-.5 0-.7-.2-.2-.5-.2-.7 0L17 10.3V3.5c0-.3-.2-.5-.5-.5-.3 0-.5.2-.5.5v8c0 0 0 .1 0 .1 0 0 0 .1.1.1z"/><path d="M25.8 18.6L23 17.4c-1.2-.5-2.6-.5-3.8.1l-1.6.8c-.4.2-.8.1-1.2-.1-2.6-2.1-5.1-4.5-6.8-6.7-.3-.3-.3-.8-.1-1.2l.8-1.6c.7-1.2.8-2.5.3-3.7L9.4 2.2C8.8.9 7.5 0 6 0H2.9C2 0 1.2.4.6 1.1c-.5.7-.7 1.6-.5 2.5 1.2 4.8 4.6 10.2 9.4 15 4.7 4.7 10.2 8.2 15 9.4.2.1.5.1.7.1.6 0 1.2-.2 1.8-.6.7-.6 1.1-1.4 1.1-2.3V22c-.1-1.5-1-2.8-2.3-3.4zm1.2 6.5c0 .6-.3 1.1-.7 1.5-.5.4-1 .5-1.6.3-4.6-1.2-9.9-4.5-14.5-9.1-4.7-4.6-8-9.9-9.1-14.5-.2-.5-.1-1.1.3-1.6.4-.4.9-.7 1.5-.7H6c1.1 0 2 .6 2.5 1.6l1.2 2.7c.4.9.4 2-.1 2.9l-.8 1.7c-.4.7-.3 1.6.2 2.2 1.7 2.2 4.3 4.7 6.9 6.9.6.5 1.5.6 2.3.2l1.6-.8c.9-.5 2-.5 2.9-.1l2.7 1.2c1 .4 1.6 1.4 1.6 2.5v3.1z"/></svg>