<svg width="16" height="16" viewBox="0 0 16 16" xmlns="http://www.w3.org/2000/svg"><title>activities/audio-video_16</title><path d="M15.0029 6.998l0-3.994-1.993 1.997 1.993 1.997zm.997-4.112l0 .003 0 4.224 0 .003c-.002.359-.216.679-.547.817-.109.045-.224.067-.339.067-.23 0-.455-.089-.625-.259l-1.489-1.472 0 2.234c0 .651-.42 1.2-1 1.406-.156.055-.322.091-.497.091l-4.003 0c-.275 0-.5-.225-.5-.5 0-.275.225-.5.5-.5l4.003 0c.273 0 .497-.223.497-.497l0-4.503 0-2.502c0-.274-.224-.498-.497-.498l-7.006 0c-.274 0-.497.224-.497.498l0 .002 0 1c0 .275-.225.5-.5.5-.275 0-.5-.225-.5-.5l0-1 0-.002c0-.827.671-1.498 1.497-1.498l7.006 0c.826 0 1.497.672 1.497 1.498l0 2.235 1.492-1.475c.249-.252.628-.327.961-.19.331.138.545.459.547.818zM11 14.5259l0-1.269c0-.318-.188-.604-.479-.729l-1.116-.48c-.303-.131-.647-.12-.941.028l-.635.317c-.401.201-.887.146-1.235-.135-1.101-.884-2.148-1.923-2.868-2.85-.273-.351-.322-.831-.125-1.225l.324-.647c.147-.295.157-.638.027-.941l-.479-1.115c-.125-.292-.412-.48-.729-.48l-1.27 0c-.147 0-.286.067-.375.184-.052.066-.132.207-.084.396.463 1.825 1.787 3.93 3.631 5.774 1.844 1.844 3.949 3.168 5.774 3.632.189.047.329-.032.396-.084.117-.091.184-.228.184-.376zm-.085-2.917c.659.284 1.085.93 1.085 1.648l0 1.269c0 .459-.208.884-.569 1.165-.262.203-.576.309-.895.309-.121 0-.242-.015-.362-.045-1.994-.507-4.268-1.926-6.236-3.894-1.967-1.968-3.386-4.241-3.892-6.235-.112-.439-.017-.897.263-1.256.282-.362.707-.57 1.165-.57l1.27 0c.717 0 1.363.426 1.647 1.085l.48 1.116c.247.573.228 1.223-.052 1.782l-.323.647c-.026.052-.019.115.02.164.665.855 1.675 1.859 2.704 2.685.049.038.11.045.162.02l.635-.318c.56-.278 1.209-.299 1.783-.052l1.115.48z" fill-rule="evenodd"/></svg>