<svg xmlns="http://www.w3.org/2000/svg" viewBox="0 0 24 24"><title>audio/audio-options_24</title><path d="M14.3 10c.1 0 .1 0 .2 0h7c.3 0 .5-.2.5-.5 0-.3-.2-.5-.5-.5h-5.8L23.8.9c.2-.2.2-.5 0-.7-.2-.2-.5-.2-.7 0L15 8.3V2.5c0-.3-.2-.5-.5-.5-.3 0-.5.2-.5.5v7c0 .1 0 .1 0 .2.1.1.2.2.3.3z"/><path d="M22.1 15.9l-2.3-1c-1.1-.5-2.2-.4-3.3.1l-1.3.7c-.3.1-.7.1-.9-.1-2.2-1.8-4.3-3.9-5.7-5.7-.3-.4-.4-.7-.2-1L9 7.5c.5-1 .5-2.2.1-3.3l-1-2.3C7.6.8 6.5 0 5.2 0H2.5C1.7 0 1 .4.5 1c-.4.6-.6 1.4-.4 2.1 1 4.1 4 8.7 8 12.8 4 4 8.7 7 12.8 8 .2.1.4.1.6.1.6 0 1.1-.2 1.5-.5.6-.5 1-1.2 1-2v-2.7c0-1.3-.8-2.4-1.9-2.9zm.9 5.6c0 .5-.2.9-.6 1.2-.4.3-.8.4-1.3.3-3.9-1-8.4-3.8-12.3-7.7C4.9 11.3 2 6.8 1 2.9c-.1-.5 0-.9.3-1.3.3-.4.8-.6 1.2-.6h2.7c.9 0 1.7.5 2 1.3l1 2.3c.3.8.3 1.7-.1 2.4l-.6 1.4c-.3.6-.2 1.4.2 2 1.5 1.9 3.6 4 5.9 5.9.6.5 1.4.5 2 .2l1.3-.7c.8-.4 1.6-.4 2.4-.1l2.3 1c.8.3 1.3 1.1 1.3 2v2.8z"/></svg>