<svg width="40" height="40" xmlns="http://www.w3.org/2000/svg"><path d="M7.708 3.656a4.652 4.652 0 014.278 2.818l1.54 3.582a5.687 5.687 0 01-.138 4.798l-1.04 2.078a1.589 1.589 0 00.179 1.7c2.223 2.858 5.458 6.07 8.874 8.811.485.39 1.156.465 1.706.19l2.04-1.02a5.687 5.687 0 014.798-.139l3.582 1.541a4.65 4.65 0 012.817 4.277v4.08a3.615 3.615 0 01-1.403 2.868 3.571 3.571 0 01-3.085.648c-6.221-1.58-13.337-6.034-19.523-12.22C6.146 21.481 1.69 14.364.112 8.143A3.558 3.558 0 01.76 5.06a3.61 3.61 0 012.868-1.404zm0 1h-4.08c-.817 0-1.575.371-2.078 1.018a2.566 2.566 0 00-.47 2.223c1.537 6.052 5.896 13 11.96 19.064 6.062 6.062 13.01 10.421 19.062 11.958a2.567 2.567 0 002.224-.468 2.619 2.619 0 001.018-2.08v-4.079a3.65 3.65 0 00-2.212-3.358l-3.582-1.54a4.69 4.69 0 00-3.956.113l-2.04 1.02a2.602 2.602 0 01-2.78-.304c-3.473-2.788-6.767-6.06-9.036-8.977a2.614 2.614 0 01-.283-2.762l1.038-2.077a4.682 4.682 0 00.115-3.955L11.067 6.87a3.652 3.652 0 00-3.36-2.213zM39.146.146a.5.5 0 01.707.708L23.644 17.063h13.418a.5.5 0 010 1H22.437a.5.5 0 01-.5-.5V2.938a.5.5 0 011 0v13.417z" fill="#171B1F" fill-rule="evenodd"/></svg>