<svg width="12" height="12" viewBox="0 0 12 12" xmlns="http://www.w3.org/2000/svg"><title>settings/audio-and-video-connection_12</title><path d="M10.5350669 11.0000833c.130994 0 .2289895-.0579951.2799872-.0989917.1169946-.0899925.1849915-.227981.1849915-.3759687l0-1.26889425c0-.3179735-.1889913-.60394967-.480978-.72893926l-1.11394916-.47996c-.14099357-.06099492-.29198668-.09099242-.44097988-.09099242-.17199215 0-.34298434.03999667-.49897722.11899009l-.63597097.3179735c-.16099266.07999333-.33698462.11899008-.51197664.11899008-.25898818 0-.51497649-.08599283-.722967-.25397883-1.10094975-.88392634-2.14690201-1.92283977-2.86886906-2.85076244-.27198758-.34997083-.32098535-.83093075-.12399434-1.22489792l.32398522-.64694609c.14699329-.2939755.15699283-.63694692.02599881-.94092159l-.47797819-1.11490709c-.12599424-.29197567-.41298115-.479960006-.72996668-.479960006l-1.26994203 0c-.1469933 0-.28398704.066994416-.37498289.183984666-.05099767.06699442-.131993975.20698275-.08399617.39696692.46297887 1.82384801 1.78691845 3.92767269 3.63083428 5.77351887 1.84591575 1.84384635 3.95081968 3.16673607 5.77473642 3.63069747.0409981.0099991.0789964.0149987.1149948.0149987zM2.74342249 0c.71796723 0 1.36393775.425964503 1.64692483 1.08490959l.4799781 1.11590701c.24698872.57495209.22798959 1.22389801-.05099768 1.78185151l-.32298526.64694609c-.02599881.05299558-.01999908.11599033.01799918.16398633.66696956.85592868 1.67792342 1.85984502 2.70687646 2.68577619.02799872.02199817.06299712.03399717.09699557.03399717.02299895 0 .04399799-.00499959.06499703-.01499875l.63297111-.31697359c.2979864-.1499875.62297157-.22498125.94695678-.22498125.28398704 0 .56797408.05799517.8369618.17198567l0 .00099991 1.11394919.47896009C11.5730195 7.89134239 12 8.53828848 12 9.25622865l0 1.26889425c0 .4589618-.2079905.8829264-.569974 1.1649029-.2609881.203983-.5749737.3099742-.8949591.3099742-.1199946 0-.240989-.0159987-.3609836-.0459962-1.992909-.5059578-4.26680521-1.9258395-6.23571535-3.89267558C1.97145773 6.09249229.551522536 3.81968169.0455456299 1.82584785-.0664492584 1.38588451.0305463145.927922673.309533581.568952587.592520665.207982668 1.01550136 0 1.47348046 0l1.26994203 0zm4.37480033 4.99278393l2.76387385 0c.06499703 0 .11799463-.05299558.11799463-.11799016l0-.88192651 0-.99991667 0-.88192651c0-.06499458-.0529976-.11799017-.11799463-.11799017l-2.76387385 0c-.06499704 0-.11799462.05299559-.11799462.11799017l0 2.76376969c0 .06499458.05299758.11799016.11799462.11799016zM9.88209667.99311724c.61797183 0 1.11794893.49995834 1.11794893 1.11790684l0 .179985.3569837-.25097908c.065997-.03199734.132994-.04699609.198991-.04699609.2329893 0 .4439797.18698442.4439797.44396301l0 2.11182401c0 .25697859-.2109904.443963-.4439797.443963-.065997 0-.132994-.01499875-.198991-.04699608l-.3569837-.25097908 0 .179985c0 .6179485-.4999771 1.11790684-1.11794893 1.11790684l-2.76387385 0c-.61697184 0-1.11794898-.49995834-1.11794898-1.11790684l0-2.76376969c0-.6179485.50097714-1.11790684 1.11794898-1.11790684l2.76387385 0z" fill-rule="evenodd"/></svg>