<svg width="24" height="24" viewBox="0 0 24 24" xmlns="http://www.w3.org/2000/svg"><title>format/back-to-fullscreen_24</title><path d="M22 12c1.104 0 2 .896 2 2l0 6c0 1.104-.896 2-2 2l-10 0c-1.104 0-2-.896-2-2l0-1-7.5 0C1.125 19 0 17.875 0 16.5l0-11C0 4.125 1.125 3 2.5 3l16 0C19.875 3 21 4.125 21 5.5l0 6.5 1 0zm1 8l0-6c0-.551-.448-1-1-1l-10 0c-.552 0-1 .449-1 1l0 6c0 .551.448 1 1 1l10 0c.552 0 1-.449 1-1zM2.5 18l7.5 0 0-4c0-1.104.896-2 2-2l8 0 0-6.5c0-.827-.673-1.5-1.5-1.5l-16 0C1.673 4 1 4.673 1 5.5l0 11c0 .827.673 1.5 1.5 1.5zM4.707 7l4.146 4.146c.196.196.196.512 0 .708-.097.097-.225.146-.353.146-.128 0-.256-.049-.354-.146L4 7.707 4 10.5c0 .275-.225.5-.5.5-.275 0-.5-.225-.5-.5l0-4c0-.275.225-.5.5-.5l4 0c.275 0 .5.225.5.5 0 .275-.225.5-.5.5L4.707 7z" fill="#000" fill-rule="evenodd"/></svg>