<svg width="16" height="16" viewBox="0 0 16 16" xmlns="http://www.w3.org/2000/svg"><title>settings/backup-data_16</title><path d="M0 2C0 .896.896 0 2 0l12 0c1.1 0 2 .9 2 2l0 12c0 1.104-.896 2-2 2L2 16c-1.1 0-2-.9-2-2L0 2zm1 0l0 12c0 .551.449 1 1 1l12 0c.551 0 1-.448 1-1l0-12c0-.552-.449-1-1-1L2 1c-.551 0-1 .448-1 1zm3.5 2c.276 0 .5.224.5.5l0 .866C5.75 4.511 6.833 4 8 4c2.206 0 4 1.794 4 4 0 2.206-1.794 4-4 4-1.533 0-2.951-.895-3.611-2.278-.119-.25-.014-.548.236-.667.249-.12.547-.014.666.235C5.787 10.329 6.85 11 8 11c1.654 0 3-1.346 3-3 0-1.654-1.346-3-3-3-.864 0-1.668.373-2.23 1l.73 0c.276 0 .5.224.5.5 0 .276-.224.5-.5.5l-2 0c-.276 0-.5-.224-.5-.5l0-2c0-.276.224-.5.5-.5z" fill="#000" fill-rule="evenodd"/></svg>