<svg width="22" height="22" viewBox="0 0 22 22" xmlns="http://www.w3.org/2000/svg"><title>format/back-to-fullscreen_22</title><path d="M21 17.5c0 .827-.673 1.5-1.5 1.5l-8 0c-.827 0-1.5-.673-1.5-1.5l0-5c0-.827.673-1.5 1.5-1.5l8 0c.827 0 1.5.673 1.5 1.5l0 5zm-12-5L9 16l-6.5 0c-.827 0-1.5-.673-1.5-1.5l0-10C1 3.673 1.673 3 2.5 3l14 0c.827 0 1.5.673 1.5 1.5l0 5.5-6.5 0C10.119 10 9 11.119 9 12.5zM19.5 10c1.381 0 2.5 1.119 2.5 2.5l0 5c0 1.381-1.119 2.5-2.5 2.5l-8 0C10.119 20 9 18.881 9 17.5l0-.5-6.5 0C1.119 17 0 15.881 0 14.5l0-10C0 3.119 1.119 2 2.5 2l14 0C17.881 2 19 3.119 19 4.5l0 5.5.5 0zM8 5.5c0-.275-.225-.5-.5-.5l-4 0c-.275 0-.5.225-.5.5l0 4c0 .275.225.5.5.5.275 0 .5-.225.5-.5l0-2.793 3.146 3.147c.098.097.226.146.354.146.128 0 .256-.049.354-.146.195-.196.195-.512 0-.708L4.707 6 7.5 6c.275 0 .5-.225.5-.5z" fill="#000" fill-rule="evenodd"/></svg>