<svg width="26" height="26" viewBox="0 0 26 26" xmlns="http://www.w3.org/2000/svg"><title>format/back-to-fullscreen-adr_26</title><path d="M23.3 2.9998c1.491 0 2.7 1.209 2.7 2.7l0 14.6c0 1.491-1.209 2.7-2.7 2.7l-20.6 0c-1.491 0-2.7-1.209-2.7-2.7l0-14.6c0-1.491 1.209-2.7 2.7-2.7l20.6 0zm1.7 17.3l0-14.6c0-.939-.761-1.7-1.7-1.7l-20.6 0c-.939 0-1.7.761-1.7 1.7l0 14.6c0 .939.761 1.7 1.7 1.7l20.6 0c.939 0 1.7-.761 1.7-1.7zM8.5 6c.276 0 .5.224.5.5 0 .276-.224.5-.5.5L4 7l0 4.5c0 .276-.224.5-.5.5-.276 0-.5-.224-.5-.5l0-5c0-.276.224-.5.5-.5l5 0zm14 8c.276 0 .5.224.5.5l0 5c0 .276-.224.5-.5.5l-5 0c-.276 0-.5-.224-.5-.5 0-.276.224-.5.5-.5l4.5 0 0-4.5c0-.276.224-.5.5-.5z" fill="#000" fill-rule="evenodd"/></svg>