<svg width="24" height="24" viewBox="0 0 24 24" xmlns="http://www.w3.org/2000/svg"><title>common-actions/backspace_24</title><path d="M21.4731467 4C22.8659634 4 24 5.122 24 6.5l0 12c0 1.379-1.1340366 2.5-2.5268533 2.5L8.18843255 21c-.73737357 0-1.43378194-.316-1.91437366-.868L.299134826 13.279c-.400659623-.431-.400659623-1.126.010990663-1.57L6.27405889 4.868C6.75465061 4.316 7.45205813 4 8.18843255 4L21.4731467 4zM23 18.5l0-12c0-.827-.6863693-1.5-1.5275964-1.5L8.18860927 5c-.44658966 0-.87020043.191-1.16093329.525l-5.9745104 6.853c-.068936656.075-.068936656.169-.0109899.232l5.9855003 6.865c.29073286.334.71334455.525 1.16093329.525l13.28379433 0C22.3136307 20 23 19.327 23 18.5zM19.8537419 8.14624594c.1950108.19499458.1950108.51198578 0 .70698036l-3.6462026 3.6468987 3.6462026 3.6458987c.1950108.1949946.1950108.5119858 0 .7069804C19.7557364 16.9510014 19.6277293 17 19.4997222 17c-.127007 0-.2550142-.0489986-.3530196-.1469959L15.4995 13.20710536l-3.6462026 3.64589874C11.755292 16.9510014 11.6272848 17 11.4992777 17c-.127007 0-.2550141-.0489986-.3530196-.1469959-.1950108-.1949946-.1950108-.5119858 0-.7069804l3.6462026-3.6458987-3.6462026-3.6468987c-.1950108-.19499458-.1950108-.51198578 0-.70698036.1950109-.19499459.5120285-.19499459.7070393 0L15.4995 11.79214466l3.6472026-3.64589872c.1950108-.19499459.5120284-.19499459.7070393 0z" fill="#000" fill-rule="evenodd"/></svg>