<svg width="26" height="26" viewBox="0 0 26 26" xmlns="http://www.w3.org/2000/svg"><title>format/back-to-fullscreen-adr_26</title><path d="M2.70000005 4C1.76111595 4 1 4.76111595 1 5.70000005L1 20.3c0 .9388841.76111595 1.7 1.70000005 1.7L23.3 22c.9388841 0 1.7-.7611159 1.7-1.7l0-14.59999995C25 4.76111595 24.2388841 4 23.3 4L2.70000005 4zM23 19.5l0-5c0-.2761424-.2238576-.5-.5-.5-.2761424 0-.5.2238576-.5.5l0 4.5-4.5 0c-.2761424 0-.5.2238576-.5.5 0 .2761424.2238576.5.5.5l5 0c.2761424 0 .5-.2238576.5-.5zM4 7l4.5 0c.27614237 0 .5-.22385763.5-.5 0-.27614237-.22385763-.5-.5-.5l-5 0c-.27614237 0-.5.22385763-.5.5l0 5c0 .27614237.22385763.5.5.5.27614237 0 .5-.22385763.5-.5L4 7zM2.70000005 3L23.3 3C24.7911688 3 26 4.2088312 26 5.70000005L26 20.3c0 1.4911688-1.2088312 2.7-2.7 2.7L2.70000005 23C1.2088312 23 0 21.7911688 0 20.3L0 5.70000005C0 4.2088312 1.2088312 3 2.70000005 3z" fill-rule="nonzero" fill="#000"/></svg>