<svg width="24" height="24" viewBox="0 0 24 24" xmlns="http://www.w3.org/2000/svg"><title>format/back-to-fullscreen-adr_24</title><path d="M21.5 3C22.878 3 24 4.121 24 5.5l0 13c0 1.379-1.122 2.5-2.5 2.5l-19 0C1.122 21 0 19.879 0 18.5l0-13C0 4.121 1.122 3 2.5 3l19 0zM23 18.5l0-13c0-.827-.673-1.5-1.5-1.5l-19 0C1.673 4 1 4.673 1 5.5l0 13c0 .827.673 1.5 1.5 1.5l19 0c.827 0 1.5-.673 1.5-1.5zM7.5 6c.276 0 .5.224.5.5 0 .276-.224.5-.5.5L4 7l0 3.5c0 .276-.224.5-.5.5-.276 0-.5-.224-.5-.5l0-4c0-.276.224-.5.5-.5l4 0zm14 7c.276 0 .5.224.5.5l0 4c0 .276-.224.5-.5.5l-4 0c-.276 0-.5-.224-.5-.5 0-.276.224-.5.5-.5l3.5 0 0-3.5c0-.276.224-.5.5-.5z" fill="#000" fill-rule="evenodd"/></svg>