<svg width="20" height="20" viewBox="0 0 20 20" xmlns="http://www.w3.org/2000/svg"><title>hardware/battery_20</title><path d="M17.5 2C18.881 2 20 3.119 20 4.5l0 11c0 1.381-1.119 2.5-2.5 2.5l-13 0C3.119 18 2 16.881 2 15.5L2 12l-1 0c-.552 0-1-.448-1-1l0-2c0-.552.448-1 1-1l1 0 0-3.5C2 3.119 3.119 2 4.5 2l13 0zM19 15.5l0-11c0-.827-.673-1.5-1.5-1.5l-13 0C3.673 3 3 3.673 3 4.5L3 9l0 2 0 4.5c0 .827.673 1.5 1.5 1.5l13 0c.827 0 1.5-.673 1.5-1.5zM1 11l1 0 0-2-1 0 0 2zm5.5-5c.275 0 .5.225.5.5l0 7c0 .275-.225.5-.5.5-.275 0-.5-.225-.5-.5l0-7c0-.275.225-.5.5-.5zm3 0c.275 0 .5.225.5.5l0 7c0 .275-.225.5-.5.5-.275 0-.5-.225-.5-.5l0-7c0-.275.225-.5.5-.5zm3 0c.275 0 .5.225.5.5l0 7c0 .275-.225.5-.5.5-.275 0-.5-.225-.5-.5l0-7c0-.275.225-.5.5-.5zm3 0c.275 0 .5.225.5.5l0 7c0 .275-.225.5-.5.5-.275 0-.5-.225-.5-.5l0-7c0-.275.225-.5.5-.5z" fill-rule="evenodd"/></svg>