<svg width="12" height="12" fill="none" xmlns="http://www.w3.org/2000/svg"><path d="M4.925 6.2a.5.5 0 10-.6.8l.0375.0281a2.9375 2.9375 0 003.525 0L7.925 7a.5.5 0 00-.6-.8l-.0375.0281a1.9375 1.9375 0 01-2.325 0L4.925 6.2zM8.2344 4.2093c0 .4402-.3043.797-.6797.797-.3754 0-.6797-.3569-.6797-.797 0-.44.3043-.7968.6797-.7968.3754 0 .6797.3567.6797.7968zM4.3102 3.4205a.2812.2812 0 10-.1338.5464c.1364.0334.34.104.5248.2072-.3323.0205-.5832.1299-.7184.2357a.2812.2812 0 10.3469.4428c.065-.051.4126-.2172.958-.0392a.2812.2812 0 00.3656-.308c-.0534-.3662-.342-.6172-.5917-.7717-.2612-.1617-.5556-.2652-.7514-.3132z" fill="#121212"/><path fill-rule="evenodd" clip-rule="evenodd" d="M3.5.85c-1.1046 0-2 .8954-2 2v4.875c0 1.1045.8954 2 2 2h1v.625c0 .6597.7663 1.0214 1.276.6045l.0064-.0054 1.0817-.9157a1.3748 1.3748 0 01.8677-.3084h.8307c1.1046 0 2-.8955 2-2V2.85c0-1.1046-.8954-2-2-2H3.5zm-1 2c0-.5523.4477-1 1-1h5.0625c.5523 0 1 .4477 1 1v4.875c0 .5523-.4477 1-1 1h-.8307a2.375 2.375 0 00-1.504.5368l-.0064.0054-.7214.6107V9.6a.875.875 0 00-.875-.875H3.5c-.5523 0-1-.4476-1-1V2.85z" fill="#121212"/></svg>