<svg width="16" height="17" fill="none" xmlns="http://www.w3.org/2000/svg"><path d="M13.8163.5a.5.5 0 10-1 0v1.1837h-1.1836a.5.5 0 100 1h1.1836v1.1837a.5.5 0 001 0V2.6837H15a.5.5 0 000-1h-1.1837V.5zM3.4949 1.5842C1.9953 1.5842.75 2.7629.75 4.253v7.0485c0 1.4901 1.2453 2.6688 2.7449 2.6688h1.6837a.0701.0701 0 01.0494.0184c.01.0097.0118.0178.0118.0238v1.0844c0 .7945.9214 1.1622 1.4975.7068l.0065-.0053 1.6207-1.3255c.4112-.3239.9282-.5026 1.4637-.5026h1.2432c1.4996 0 2.7449-1.1787 2.7449-2.6688v-5.422a.5.5 0 10-1 0v5.422c0 .9056-.7648 1.6688-1.7449 1.6688H9.8282c-.7586 0-1.496.2535-2.087.7206l-.0065.0052-1.4949 1.2227v-.9063c0-.5917-.4915-1.0422-1.0612-1.0422H3.4949c-.98 0-1.7449-.7632-1.7449-1.6688V4.2529c0-.9055.7648-1.6687 1.7449-1.6687h5.8929a.5.5 0 100-1H3.4949z" fill="#121212"/><path d="M5.4786 9.5413a.5.5 0 00-.6.8l.2949.2212c1.3333 1 3.1666 1 4.5 0l.2949-.2212a.5.5 0 10-.6-.8l-.295.2212a2.75 2.75 0 01-3.3 0l-.2948-.2212zM10.5803 6.3635c0 .6586-.4554 1.1926-1.0172 1.1926-.5618 0-1.0172-.534-1.0172-1.1926 0-.6587.4554-1.1926 1.0172-1.1926.5618 0 1.0172.534 1.0172 1.1926zM4.6965 5.2275a.375.375 0 00-.1783.7286c.2317.0566.5905.1839.895.3723.0125.0077.0247.0155.0368.0232-.5659.002-.9897.18-1.2042.348a.375.375 0 10.4625.5905c.1105-.0865.6468-.337 1.4764-.0663a.375.375 0 00.4874-.4106c-.077-.5273-.4936-.8932-.8643-1.1226-.386-.2388-.8218-.3922-1.1113-.463z" fill="#121212"/></svg>