<svg width="14" height="14" viewBox="0 0 14 14" fill="none" xmlns="http://www.w3.org/2000/svg">
<path d="M7.8 2.40625H3.5C2.5335 2.40625 1.75 3.18975 1.75 4.15625V9.84375C1.75 10.8102 2.5335 11.5938 3.5 11.5938H4.8125C5.05412 11.5938 5.25 11.7896 5.25 12.0312V12.9062C5.25 13.1831 5.57166 13.3353 5.78591 13.16L7.0519 12.0882C7.44272 11.7685 7.93214 11.5938 8.43711 11.5938H9.40625C10.3727 11.5938 11.1562 10.8102 11.1562 9.84375V5.7" stroke="#121212" stroke-linecap="round" stroke-linejoin="round"/>
<path d="M11.1562 1.09375L11.1563 3.71875" stroke="#121212" stroke-linecap="round" stroke-linejoin="round"/>
<path d="M12.4688 2.40625L9.84375 2.40625" stroke="#121212" stroke-linecap="round" stroke-linejoin="round"/>
<path d="M5.1125 8.13125C4.89159 7.96556 4.57819 8.01034 4.4125 8.23125C4.24681 8.45216 4.29159 8.76556 4.5125 8.93125L5.1125 8.13125ZM8.6125 8.93125C8.83341 8.76556 8.87819 8.45216 8.7125 8.23125C8.54681 8.01034 8.23341 7.96556 8.0125 8.13125L8.6125 8.93125ZM4.5125 8.93125L4.55625 8.96406L5.15625 8.16406L5.1125 8.13125L4.5125 8.93125ZM8.56875 8.96406L8.6125 8.93125L8.0125 8.13125L7.96875 8.16406L8.56875 8.96406ZM4.55625 8.96406C5.74514 9.85573 7.37986 9.85573 8.56875 8.96406L7.96875 8.16406C7.13542 8.78906 5.98958 8.78906 5.15625 8.16406L4.55625 8.96406Z" fill="#121212"/>
<ellipse cx="8.23047" cy="5.74219" rx="0.792969" ry="0.929688" fill="#121212"/>
<path d="M4.26562 6.23438C4.4349 6.1018 4.95625 5.89631 5.6875 6.13494C5.60625 5.57813 4.77344 5.24006 4.36719 5.14062" stroke="#121212" stroke-width="0.65625" stroke-linecap="round" stroke-linejoin="round"/>
</svg>
