<svg width="16" height="17" viewBox="0 0 16 17" fill="none" xmlns="http://www.w3.org/2000/svg">
<path d="M13.8163 0.5C13.8163 0.223858 13.5925 0 13.3163 0C13.0402 0 12.8163 0.223858 12.8163 0.5V1.68367L11.6327 1.68367C11.3565 1.68367 11.1327 1.90753 11.1327 2.18367C11.1327 2.45982 11.3565 2.68367 11.6327 2.68367H12.8163V3.86735C12.8163 4.14349 13.0402 4.36735 13.3163 4.36735C13.5925 4.36735 13.8163 4.14349 13.8163 3.86735V2.68367H15C15.2761 2.68367 15.5 2.45982 15.5 2.18367C15.5 1.90753 15.2761 1.68367 15 1.68367L13.8163 1.68367V0.5Z" fill="#121212"/>
<path d="M3.4949 1.58416C1.99533 1.58416 0.75 2.7629 0.75 4.25295V11.3015C0.75 12.7916 1.99533 13.9703 3.4949 13.9703H5.17857C5.20118 13.9703 5.21768 13.9788 5.22801 13.9887C5.23804 13.9984 5.2398 14.0065 5.2398 14.0125V15.0969C5.2398 15.8914 6.16118 16.2591 6.73731 15.8037L6.74381 15.7984L8.36446 14.4729C8.77572 14.149 9.29267 13.9703 9.82821 13.9703H11.0714C12.571 13.9703 13.8163 12.7916 13.8163 11.3015V5.87955C13.8163 5.60341 13.5925 5.37955 13.3163 5.37955C13.0402 5.37955 12.8163 5.60341 12.8163 5.87955V11.3015C12.8163 12.2071 12.0515 12.9703 11.0714 12.9703H9.82821C9.06958 12.9703 8.33214 13.2238 7.74121 13.6909L7.73472 13.6961L6.2398 14.9188V14.0125C6.2398 13.4208 5.74828 12.9703 5.17857 12.9703H3.4949C2.51482 12.9703 1.75 12.2071 1.75 11.3015V4.25295C1.75 3.34742 2.51482 2.58416 3.4949 2.58416H9.38775C9.6639 2.58416 9.88775 2.3603 9.88775 2.08416C9.88775 1.80801 9.6639 1.58416 9.38775 1.58416H3.4949Z" fill="#121212"/>
<path d="M5.47859 9.5413C5.25768 9.37562 4.94427 9.42039 4.77859 9.6413C4.6129 9.86222 4.65768 10.1756 4.87859 10.3413L5.17349 10.5625C6.50682 11.5625 8.34015 11.5625 9.67349 10.5625L9.96838 10.3413C10.1893 10.1756 10.2341 9.86222 10.0684 9.6413C9.9027 9.42039 9.5893 9.37562 9.36839 9.5413L9.07349 9.76248C8.09571 10.4958 6.75126 10.4958 5.77349 9.76248L5.47859 9.5413Z" fill="#121212"/>
<path d="M10.5803 6.36349C10.5803 7.02215 10.1249 7.55609 9.56312 7.55609C9.00132 7.55609 8.5459 7.02215 8.5459 6.36349C8.5459 5.70483 9.00132 5.17089 9.56312 5.17089C10.1249 5.17089 10.5803 5.70483 10.5803 6.36349Z" fill="#121212"/>
<path d="M4.69649 5.22755C4.49532 5.17832 4.29232 5.30148 4.24309 5.50265C4.19385 5.70382 4.31701 5.90681 4.51818 5.95605C4.74985 6.01275 5.10868 6.13997 5.41319 6.32841C5.42568 6.33614 5.43793 6.34388 5.44996 6.35163C4.88412 6.35356 4.46027 6.53167 4.24582 6.69964C4.08277 6.82734 4.05412 7.06304 4.18182 7.22609C4.30953 7.38914 4.54523 7.41779 4.70828 7.29009C4.81876 7.20356 5.35514 6.95309 6.18469 7.22381C6.30803 7.26406 6.44342 7.23769 6.54265 7.1541C6.64187 7.0705 6.69083 6.94155 6.6721 6.81316C6.59517 6.28595 6.17852 5.92002 5.80785 5.69065C5.42186 5.45179 4.98596 5.2984 4.69649 5.22755Z" fill="#121212"/>
</svg>
