<svg width="14" height="14" viewBox="0 0 14 14" fill="none" xmlns="http://www.w3.org/2000/svg">
<path fill-rule="evenodd" clip-rule="evenodd" d="M7.12812 11.7479L7.11526 11.7588L6.464 12.3178C6.40041 11.523 5.74109 10.8783 4.91118 10.8783H3.23763C2.57056 10.8783 2.00623 10.3261 2.00623 9.61575V2.26253C2.00623 1.55215 2.57056 1 3.23763 1H11.25C11.6642 1 12 1.33579 12 1.75V9.61575C12 10.3261 11.4357 10.8783 10.7686 10.8783H9.53286C8.65438 10.8783 7.80481 11.1866 7.12812 11.7479ZM5.46903 13.5752C5.46903 13.9331 5.87917 14.1299 6.15235 13.9032L7.7666 12.5176C8.26493 12.1042 8.88898 11.8783 9.53286 11.8783H10.7686C12.001 11.8783 13 10.8653 13 9.61575V1.75C13 0.783502 12.2165 0 11.25 0H3.23763C2.00526 0 1.00623 1.01297 1.00623 2.26253V9.61575C1.00623 10.8653 2.00526 11.8783 3.23763 11.8783H4.91118C5.21927 11.8783 5.46903 12.1315 5.46903 12.4439V13.5752ZM5.21119 7.52047C4.99028 7.35479 4.67688 7.39956 4.51119 7.62047C4.34551 7.84138 4.39028 8.15479 4.61119 8.32047L5.13634 8.71433C6.32523 9.606 7.95996 9.606 9.14884 8.71433L9.67399 8.32047C9.89491 8.15479 9.93968 7.84138 9.77399 7.62047C9.60831 7.39956 9.29491 7.35479 9.07399 7.52047L8.54884 7.91433C7.71551 8.53933 6.56968 8.53933 5.73634 7.91433L5.21119 7.52047ZM10.2805 4.36417C10.2805 5.01887 9.82782 5.5496 9.2694 5.5496C8.71099 5.5496 8.2583 5.01887 8.2583 4.36417C8.2583 3.70948 8.71099 3.17874 9.2694 3.17874C9.82782 3.17874 10.2805 3.70948 10.2805 4.36417ZM4.42138 3.27842C4.24535 3.23534 4.06773 3.34311 4.02465 3.51913C3.98157 3.69515 4.08934 3.87277 4.26536 3.91585C4.49907 3.97306 4.86033 4.10107 5.16786 4.29138C5.22582 4.32724 5.27928 4.36368 5.32817 4.40053C4.7009 4.36859 4.23408 4.55914 4.01154 4.73344C3.86887 4.84518 3.8438 5.05142 3.95554 5.19409C4.06728 5.33675 4.27352 5.36183 4.41619 5.25009C4.5387 5.15414 5.08761 4.90361 5.92508 5.17691C6.03301 5.21213 6.15147 5.18906 6.23829 5.11592C6.32512 5.04277 6.36796 4.92994 6.35157 4.8176C6.27805 4.3138 5.8786 3.95946 5.51319 3.73333C5.13437 3.49891 4.70567 3.348 4.42138 3.27842Z" fill="#121212"/>
</svg>
