<svg width="48" height="48" viewBox="0 0 48 48" xmlns="http://www.w3.org/2000/svg"><title>alerts-and-notifications/blocked_48</title><path d="M24 47c-6.162 0-11.761-2.44-15.894-6.399L40.601 8.106C44.56 12.239 47 17.838 47 24c0 12.683-10.317 23-23 23M1 24C1 11.317 11.317 1 24 1c6.162 0 11.761 2.44 15.894 6.399L7.399 39.894C3.44 35.761 1 30.162 1 24M41.315 7.392l.039-.038-.708-.708-.038.039C36.297 2.547 30.447 0 24 0 10.745 0 0 10.745 0 24c0 6.447 2.547 12.297 6.685 16.608l-.039.038.708.708.038-.039C11.703 45.453 17.553 48 24 48c13.255 0 24-10.745 24-24 0-6.447-2.547-12.297-6.685-16.608" fill="#000" fill-rule="evenodd"/></svg>