<svg width="56" height="56" viewBox="0 0 56 56" xmlns="http://www.w3.org/2000/svg"><title>alerts-and-notifications/blocked_56</title><path d="M28 55c-7.265 0-13.863-2.889-18.721-7.572L47.428 9.279C52.111 14.137 55 20.735 55 28c0 14.888-12.112 27-27 27M1 28C1 13.112 13.112 1 28 1c7.265 0 13.863 2.889 18.721 7.572L8.572 46.721C3.889 41.863 1 35.265 1 28M48.145 8.562l.042-.041-.708-.708-.042.042C42.4 2.995 35.552 0 28 0 12.536 0 0 12.536 0 28c0 7.552 2.995 14.4 7.855 19.438l-.042.041.708.708.042-.042C13.6 53.005 20.448 56 28 56c15.464 0 28-12.536 28-28 0-7.552-2.995-14.4-7.855-19.438" fill="#000" fill-rule="evenodd"/></svg>