<svg width="20" height="20" viewBox="0 0 20 20" fill="none" xmlns="http://www.w3.org/2000/svg">
<path fill-rule="evenodd" clip-rule="evenodd" d="M20 15C20 17.7614 17.7614 20 15 20C12.2386 20 10 17.7614 10 15C10 12.2386 12.2386 10 15 10C17.7614 10 20 12.2386 20 15ZM17.8796 13.8254C18.0593 13.6157 18.0351 13.3001 17.8254 13.1204C17.6157 12.9407 17.3001 12.9649 17.1204 13.1746L14.4718 16.2647L12.8536 14.6464C12.6583 14.4512 12.3417 14.4512 12.1464 14.6464C11.9512 14.8417 11.9512 15.1583 12.1464 15.3536L14.1464 17.3536C14.2449 17.452 14.38 17.505 14.5192 17.4996C14.6584 17.4943 14.789 17.4311 14.8796 17.3254L17.8796 13.8254Z" fill="#00A0D1"/>
<path fill-rule="evenodd" clip-rule="evenodd" d="M10 3C6.13401 3 3 6.13401 3 10C3 11.753 3.64443 13.3555 4.70927 14.5836L14.5836 4.70927C13.3555 3.64443 11.753 3 10 3ZM15.2908 5.41636C16.2603 6.53448 16.8814 7.96301 16.9847 9.53284C17.0028 9.80839 17.2409 10.0171 17.5164 9.99892C17.792 9.98078 18.0007 9.74271 17.9825 9.46716C17.708 5.29706 14.2393 2 10 2C5.58172 2 2 5.58172 2 10C2 14.2393 5.29706 17.708 9.46716 17.9825C9.74271 18.0007 9.98078 17.792 9.99892 17.5164C10.0171 17.2409 9.80839 17.0028 9.53284 16.9847C7.96301 16.8814 6.53448 16.2603 5.41636 15.2908L15.2908 5.41636Z" fill="#121212"/>
</svg>
