<svg width="16" height="16" viewBox="0 0 16 16" xmlns="http://www.w3.org/2000/svg"><title>network/bluetooth-container_16</title><path d="M8 0c3.44 0 6 2.083 6 8 0 5.854-2.56 8-6 8-3.44 0-6-2.083-6-8 0-5.854 2.56-8 6-8zm0 15c3.364 0 5-2.289 5-7 0-7-3.764-7-5-7-3.364 0-5 2.29-5 7 0 7 3.764 7 5 7zm2.354-9.353c.195.195.195.511 0 .707L8.707 8l1.647 1.647c.195.195.195.511 0 .707l-2.5 2.5c-.017.017-.04.023-.057.038-.034.025-.067.053-.106.069-.061.025-.126.039-.191.039-.065 0-.13-.014-.191-.039-.039-.016-.07-.043-.103-.068-.019-.014-.042-.022-.06-.039-.017-.018-.025-.04-.039-.06-.025-.032-.052-.064-.068-.103-.025-.06-.039-.126-.039-.191l0-2.793-1.146 1.147c-.098.097-.226.146-.354.146-.128 0-.256-.049-.354-.146-.195-.196-.195-.512 0-.707L7 8.293l0-.586-1.854-1.853c-.195-.196-.195-.512 0-.707.196-.196.512-.196.708 0L7 6.293 7 3.5c0-.065.014-.13.039-.191.017-.04.044-.072.069-.105.015-.019.022-.04.038-.057.017-.017.039-.024.057-.038.033-.025.066-.053.106-.07.122-.051.26-.051.382 0 .041.017.075.045.109.072.017.013.038.02.054.036l2.5 2.5zM8 7.293L9.293 6 8 4.707l0 2.586zM9.293 10L8 8.707l0 2.586L9.293 10z" fill="#000" fill-rule="evenodd"/></svg>