<svg width="20" height="20" viewBox="0 0 20 20" xmlns="http://www.w3.org/2000/svg"><title>network/bluetooth_20</title><path d="M10.5001 1.8019l0 6.99 3.311-3.315-3.311-3.675zm0 9.404l0 6.99 3.311-3.683-3.311-3.307zm-.5 8.794c-.06 0-.121-.011-.179-.033-.194-.074-.321-.26-.321-.467l0-8.294-3.646 3.642c-.196.195-.513.195-.708 0-.195-.196-.195-.512 0-.708l4.147-4.14-4.147-4.152c-.195-.196-.195-.512 0-.708.196-.194.513-.194.708.001l3.646 3.651 0-8.292c0-.207.127-.392.321-.467.192-.074.412-.022.551.133l4.5 4.994c.177.197.17.499-.018.688l-4.147 4.152 4.147 4.14c.188.188.196.491.018.689l-4.5 5.006c-.097.107-.233.165-.372.165z" fill-rule="evenodd"/></svg>