<svg width="24" height="24" viewBox="0 0 24 24" xmlns="http://www.w3.org/2000/svg"><title>chat/bot-expert-assistant_24</title><path d="M10.95 11c-.232 1.141-1.241 2-2.45 2C7.119 13 6 11.881 6 10.5 6 9.119 7.119 8 8.5 8c1.209 0 2.218.859 2.45 2l2.1 0c.232-1.141 1.241-2 2.45-2 1.381 0 2.5 1.119 2.5 2.5 0 1.381-1.119 2.5-2.5 2.5-1.209 0-2.218-.859-2.45-2l-2.1 0zM7 10.5c0 .827.673 1.5 1.5 1.5.827 0 1.5-.673 1.5-1.5C10 9.673 9.327 9 8.5 9 7.673 9 7 9.673 7 10.5zM15.5 9c-.827 0-1.5.673-1.5 1.5 0 .827.673 1.5 1.5 1.5.827 0 1.5-.673 1.5-1.5 0-.827-.673-1.5-1.5-1.5zM9 10.5c0 .276-.224.5-.5.5-.276 0-.5-.224-.5-.5 0-.276.224-.5.5-.5.276 0 .5.224.5.5zm6.5.5c-.276 0-.5-.224-.5-.5 0-.276.224-.5.5-.5.276 0 .5.224.5.5 0 .276-.224.5-.5.5zm-6 4l5 0c.275 0 .5.225.5.5 0 .275-.225.5-.5.5l-5 0c-.275 0-.5-.225-.5-.5 0-.275.225-.5.5-.5zM3 19.051c1.141.231 2 1.24 2 2.449C5 22.881 3.881 24 2.5 24 1.119 24 0 22.881 0 21.5c0-1.209.859-2.218 2-2.449L2 4.5C2 3.121 3.122 2 4.5 2l12 0c.276 0 .5.224.5.5 0 .276-.224.5-.5.5l-12 0C3.673 3 3 3.673 3 4.5l0 14.551zM2.5 23c.827 0 1.5-.673 1.5-1.5 0-.827-.673-1.5-1.5-1.5-.827 0-1.5.673-1.5 1.5 0 .827.673 1.5 1.5 1.5zM24 2.5c0 1.209-.859 2.218-2 2.449L22 19.5c0 1.379-1.122 2.5-2.5 2.5l-12 0c-.276 0-.5-.224-.5-.5 0-.276.224-.5.5-.5l12 0c.827 0 1.5-.673 1.5-1.5l0-14.551c-1.141-.231-2-1.24-2-2.449C19 1.119 20.119 0 21.5 0 22.881 0 24 1.119 24 2.5zM21.5 4c.827 0 1.5-.673 1.5-1.5 0-.827-.673-1.5-1.5-1.5-.827 0-1.5.673-1.5 1.5 0 .827.673 1.5 1.5 1.5z" fill-rule="evenodd"/></svg>