<?xml version="1.0" encoding="UTF-8"?>
<svg width="24px" height="24px" viewBox="0 0 24 24" version="1.1" xmlns="http://www.w3.org/2000/svg" xmlns:xlink="http://www.w3.org/1999/xlink">
    <!-- Generator: Sketch 55.2 (78181) - https://sketchapp.com -->
    <title>chat/bot-active_24</title>
    <desc>Created with Sketch.</desc>
    <g id="Icons-Webex" stroke="none" stroke-width="1" fill="none" fill-rule="evenodd">
        <g id="chat/bot-active_24" fill="#000000">
            <g transform="translate(2.000000, 0.000000)" id="fill">
                <path d="M22,7.5 C22,8.709 21.141,9.718 20,9.949 L20,19.5 C20,20.881 18.881,22 17.5,22 L2.5,22 C1.119,22 0,20.881 0,19.5 L0,4.5 C0,3.119 1.119,2 2.5,2 L12.051,2 C12.282,0.859 13.291,0 14.5,0 C15.881,0 17,1.119 17,2.5 C17,3.881 15.881,5 14.5,5 C13.291,5 12.282,4.141 12.051,3 L2.5,3 C1.673,3 1,3.673 1,4.5 L1,19.5 C1,20.327 1.673,21 2.5,21 L17.5,21 C18.327,21 19,20.327 19,19.5 L19,9.949 C17.859,9.718 17,8.709 17,7.5 C17,6.119 18.119,5 19.5,5 C20.881,5 22,6.119 22,7.5 Z M6.5,10 C6.776,10 7,10.224 7,10.5 C7,10.776 6.776,11 6.5,11 C6.224,11 6,10.776 6,10.5 C6,10.224 6.224,10 6.5,10 Z M13,10.5 C13,10.224 13.224,10 13.5,10 C13.776,10 14,10.224 14,10.5 C14,10.776 13.776,11 13.5,11 C13.224,11 13,10.776 13,10.5 Z M7.5,16 C7.225,16 7,15.775 7,15.5 C7,15.225 7.225,15 7.5,15 L12.5,15 C12.775,15 13,15.225 13,15.5 C13,15.775 12.775,16 12.5,16 L7.5,16 Z"></path>
            </g>
        </g>
    </g>
</svg>