<?xml version="1.0" encoding="UTF-8"?>
<svg width="24px" height="24px" viewBox="0 0 24 24" version="1.1" xmlns="http://www.w3.org/2000/svg" xmlns:xlink="http://www.w3.org/1999/xlink">
    <!-- Generator: Sketch 60.1 (88133) - https://sketch.com -->
    <title>chat/bot-customer-assistant_24</title>
    <desc>Created with Sketch.</desc>
    <g id="chat/bot-customer-assistant_24" stroke="none" stroke-width="1" fill="none" fill-rule="evenodd">
        <g id="bot-customer-assistant_24" transform="translate(0.000000, 2.000000)" fill="#171B1F">
            <path d="M1,6.4492 C1,5.6222 1.673,4.9492 2.5,4.9492 C3.327,4.9492 4,5.6222 4,6.4492 C4,7.2762 3.327,7.9492 2.5,7.9492 C1.673,7.9492 1,7.2762 1,6.4492 M21.5,11 C22.881,11 24,12.119 24,13.5 C24,14.709 23.141,15.718 22,15.949 L22,15.949 L22,17.5 C22,18.881 20.881,20 19.5,20 L19.5,20 L4.5,20 C3.119,20 2,18.881 2,17.5 L2,17.5 L2,11.5 C2,11.225 2.225,11 2.5,11 C2.775,11 3,11.225 3,11.5 L3,11.5 L3,17.5 C3,18.327 3.673,19 4.5,19 L4.5,19 L19.5,19 C20.327,19 21,18.327 21,17.5 L21,17.5 L21,15.949 C19.859,15.718 19,14.709 19,13.5 C19,12.119 20.119,11 21.5,11 Z M21.5,12 C20.673,12 20,12.673 20,13.5 C20,14.327 20.673,15 21.5,15 C22.327,15 23,14.327 23,13.5 C23,12.673 22.327,12 21.5,12 Z M14.732,11.687 C14.905,11.474 15.22,11.437 15.436,11.61 C15.651,11.782 15.686,12.098 15.513,12.313 C14.653,13.385 13.373,14 12,14 C10.627,14 9.347,13.385 8.487,12.313 C8.314,12.098 8.349,11.782 8.564,11.61 C8.781,11.437 9.096,11.474 9.268,11.687 C9.937,12.521 10.933,13 12,13 C13.067,13 14.063,12.521 14.732,11.687 Z M19.5,0.000200000002 C20.881,0.000200000002 22,1.1192 22,2.5002 L22,2.5002 L22,8.5002 C22,8.7752 21.775,9.0002 21.5,9.0002 C21.225,9.0002 21,8.7752 21,8.5002 L21,8.5002 L21,2.5002 C21,1.6732 20.327,1.0002 19.5,1.0002 L19.5,1.0002 L4.5,1.0002 C3.673,1.0002 3,1.6732 3,2.5002 L3,2.5002 L3,4.0002 C4.141,4.2312 5,5.2402 5,6.4492 C5,7.8302 3.881,8.9492 2.5,8.9492 C1.119,8.9492 0,7.8302 0,6.4492 C0,5.2402 0.859,4.2312 2,4.0002 L2,4.0002 L2,2.5002 C2,1.1192 3.119,0.000200000002 4.5,0.000200000002 L4.5,0.000200000002 Z M8.5,8 C8.776,8 9,8.224 9,8.5 C9,8.776 8.776,9 8.5,9 C8.224,9 8,8.776 8,8.5 C8,8.224 8.224,8 8.5,8 Z M15.5,8 C15.776,8 16,8.224 16,8.5 C16,8.776 15.776,9 15.5,9 C15.224,9 15,8.776 15,8.5 C15,8.224 15.224,8 15.5,8 Z" id="fill"></path>
        </g>
    </g>
</svg>