<svg width="36" height="36" viewBox="0 0 36 36" xmlns="http://www.w3.org/2000/svg"><title>chat/bot-customer-assistant_36</title><path d="M24 16c0 .55-.45 1-1 1-.55 0-1-.45-1-1 0-.55.45-1 1-1 .55 0 1 .45 1 1zm-10 0c0 .55-.45 1-1 1-.55 0-1-.45-1-1 0-.55.45-1 1-1 .55 0 1 .45 1 1zm4 8c-1.78 0-3.44-.797-4.555-2.188-.172-.214-.137-.53.078-.703.214-.171.529-.136.704.078C15.149 22.339 16.524 23 18 23c1.476 0 2.851-.661 3.773-1.813.176-.214.491-.249.704-.078.215.173.25.489.078.703C21.44 23.203 19.78 24 18 24zM7 13.5C7 15.433 5.433 17 3.5 17 1.567 17 0 15.433 0 13.5c0-1.762 1.306-3.205 3-3.449L3 6c0-1.654 1.346-3 3-3l24 0c1.654 0 3 1.346 3 3l0 10.5c0 .276-.224.5-.5.5-.276 0-.5-.224-.5-.5L32 6c0-1.103-.897-2-2-2L6 4c-1.103 0-2 .897-2 2l0 4.051c1.694.244 3 1.687 3 3.449zm-6 0C1 14.879 2.121 16 3.5 16 4.879 16 6 14.879 6 13.5 6 12.121 4.879 11 3.5 11 2.121 11 1 12.121 1 13.5zm35 9c0 1.762-1.306 3.205-3 3.449L33 30c0 1.654-1.346 3-3 3L6 33c-1.654 0-3-1.346-3-3l0-10.5c0-.276.224-.5.5-.5.276 0 .5.224.5.5L4 30c0 1.103.897 2 2 2l24 0c1.103 0 2-.897 2-2l0-4.051c-1.694-.244-3-1.687-3-3.449 0-1.933 1.567-3.5 3.5-3.5 1.933 0 3.5 1.567 3.5 3.5zM32.5 25c1.379 0 2.5-1.121 2.5-2.5 0-1.379-1.121-2.5-2.5-2.5-1.379 0-2.5 1.121-2.5 2.5 0 1.379 1.121 2.5 2.5 2.5z" fill-rule="evenodd"/></svg>