<?xml version="1.0" encoding="UTF-8"?>
<svg width="24px" height="24px" viewBox="0 0 24 24" version="1.1" xmlns="http://www.w3.org/2000/svg" xmlns:xlink="http://www.w3.org/1999/xlink">
    <!-- Generator: Sketch 60.1 (88133) - https://sketch.com -->
    <title>chat/bot-expert-assistant_24</title>
    <desc>Created with Sketch.</desc>
    <g id="chat/bot-expert-assistant_24" stroke="none" stroke-width="1" fill="none" fill-rule="evenodd">
        <path d="M24,2.5 C24,1.119 22.881,0 21.5,0 C20.119,0 19,1.119 19,2.5 C19,3.709 19.859,4.718 21,4.949 L21,19.5 C21,20.327 20.327,21 19.5,21 L7.5,21 C7.224,21 7,21.224 7,21.5 C7,21.776 7.224,22 7.5,22 L19.5,22 C20.878,22 22,20.879 22,19.5 L22,4.949 C23.141,4.718 24,3.709 24,2.5 M3,19.051 L3,4.5 C3,3.673 3.673,3 4.5,3 L16.5,3 C16.776,3 17,2.776 17,2.5 C17,2.224 16.776,2 16.5,2 L4.5,2 C3.122,2 2,3.121 2,4.5 L2,19.051 C0.859,19.282 0,20.291 0,21.5 C0,22.881 1.119,24 2.5,24 C3.881,24 5,22.881 5,21.5 C5,20.291 4.141,19.282 3,19.051 M21.5,4 C20.673,4 20,3.327 20,2.5 C20,1.673 20.673,1 21.5,1 C22.327,1 23,1.673 23,2.5 C23,3.327 22.327,4 21.5,4 M2.5,23 C1.673,23 1,22.327 1,21.5 C1,20.673 1.673,20 2.5,20 C3.327,20 4,20.673 4,21.5 C4,22.327 3.327,23 2.5,23 M9.5,15 C9.225,15 9,15.225 9,15.5 C9,15.775 9.225,16 9.5,16 L14.5,16 C14.775,16 15,15.775 15,15.5 C15,15.225 14.775,15 14.5,15 L9.5,15 Z M10.95,11 L13.05,11 C13.282,12.141 14.291,13 15.5,13 C16.881,13 18,11.881 18,10.5 C18,9.119 16.881,8 15.5,8 C14.291,8 13.282,8.859 13.05,10 L10.95,10 C10.718,8.859 9.709,8 8.5,8 C7.119,8 6,9.119 6,10.5 C6,11.881 7.119,13 8.5,13 C9.709,13 10.718,12.141 10.95,11 M15.5,9 C16.327,9 17,9.673 17,10.5 C17,11.327 16.327,12 15.5,12 C14.673,12 14,11.327 14,10.5 C14,9.673 14.673,9 15.5,9 M7,10.5 C7,9.673 7.673,9 8.5,9 C9.327,9 10,9.673 10,10.5 C10,11.327 9.327,12 8.5,12 C7.673,12 7,11.327 7,10.5 M15.5,11 C15.776,11 16,10.776 16,10.5 C16,10.224 15.776,10 15.5,10 C15.224,10 15,10.224 15,10.5 C15,10.776 15.224,11 15.5,11 M9,10.5 C9,10.224 8.776,10 8.5,10 C8.224,10 8,10.224 8,10.5 C8,10.776 8.224,11 8.5,11 C8.776,11 9,10.776 9,10.5" id="fill" fill="#171B1F"></path>
    </g>
</svg>