<svg width="36" height="36" viewBox="0 0 36 36" xmlns="http://www.w3.org/2000/svg"><title>chat/bot-expert-assistant_36</title><path d="M14.5 23l7 0c.275 0 .5.225.5.5 0 .275-.225.5-.5.5l-7 0c-.275 0-.5-.225-.5-.5 0-.275.225-.5.5-.5zM4 29.051c1.694.244 3 1.687 3 3.449C7 34.433 5.433 36 3.5 36 1.567 36 0 34.433 0 32.5c0-1.762 1.306-3.205 3-3.449L3 6c0-1.654 1.346-3 3-3l20.5 0c.276 0 .5.224.5.5 0 .276-.224.5-.5.5L6 4c-1.103 0-2 .897-2 2l0 23.051zM3.5 35C4.879 35 6 33.879 6 32.5 6 31.121 4.879 30 3.5 30 2.121 30 1 31.121 1 32.5 1 33.879 2.121 35 3.5 35zM27 16.0005c0 2.209-1.791 4-4 4-2.038 0-3.701-1.53-3.949-3.5l-2.102 0c-.248 1.97-1.911 3.5-3.949 3.5-2.209 0-4-1.791-4-4 0-2.209 1.791-4 4-4 2.038 0 3.701 1.529 3.949 3.5l2.102 0c.248-1.971 1.911-3.5 3.949-3.5 2.209 0 4 1.791 4 4zm-6.998.022c.013 1.644 1.352 2.978 2.998 2.978 1.654 0 3-1.346 3-3 0-1.655-1.346-3-3-3-1.646 0-2.985 1.334-2.998 2.977.001.008.005.015.005.023 0 .007-.004.014-.005.022zM24 16c0 .55-.45 1-1 1-.55 0-1-.45-1-1 0-.55.45-1 1-1 .55 0 1 .45 1 1zm-11 3.0005c1.654 0 3-1.346 3-3 0-1.655-1.346-3-3-3-1.654 0-3 1.345-3 3 0 1.654 1.346 3 3 3zM13 15c.55 0 1 .45 1 1 0 .55-.45 1-1 1-.55 0-1-.45-1-1 0-.55.45-1 1-1zM36 3.5c0 1.766-1.312 3.21-3.01 3.45.002.018.01.032.01.05l0 23c0 1.654-1.346 3-3 3L9.5 33c-.276 0-.5-.224-.5-.5 0-.276.224-.5.5-.5L30 32c1.103 0 2-.897 2-2l0-23c0-.018.008-.032.01-.05C30.312 6.71 29 5.266 29 3.5 29 1.567 30.567 0 32.5 0 34.433 0 36 1.567 36 3.5zM32.5 6C33.879 6 35 4.879 35 3.5 35 2.121 33.879 1 32.5 1 31.121 1 30 2.121 30 3.5 30 4.879 31.121 6 32.5 6z" fill-rule="evenodd"/></svg>