<svg width="18" height="18" viewBox="0 0 18 18" xmlns="http://www.w3.org/2000/svg"><title>chat/bot_18</title><path d="M13.5.0001c.829 0 1.5.671 1.5 1.5 0 .828-.671 1.5-1.5 1.5-.652 0-1.202-.419-1.408-1l-9.092 0c-.551 0-1 .449-1 1l0 12c0 .551.449 1 1 1l12 0c.551 0 1-.449 1-1l0-8.092c-.581-.206-1-.756-1-1.408 0-.829.671-1.5 1.5-1.5.829 0 1.5.671 1.5 1.5 0 .652-.419 1.202-1 1.408l0 8.092c0 1.1-.9 2-2 2l-12 0c-1.1 0-2-.9-2-2l0-12c0-1.1.9-2 2-2l9.092 0c.206-.581.756-1 1.408-1zm3 5c-.276 0-.5.224-.5.5 0 .24.168.407.335.466l.165.058.165-.058c.167-.059.335-.226.335-.466 0-.276-.224-.5-.5-.5zm-3-4c-.24 0-.407.168-.466.335l-.058.165.058.165c.059.167.226.335.466.335.276 0 .5-.225.5-.5 0-.276-.224-.5-.5-.5zm-7 6c.276 0 .5.224.5.5 0 .276-.224.5-.5.5-.276 0-.5-.224-.5-.5 0-.276.224-.5.5-.5zm5 0c.276 0 .5.224.5.5 0 .276-.224.5-.5.5-.276 0-.5-.224-.5-.5 0-.276.224-.5.5-.5zm-1 4c.275 0 .5.225.5.5 0 .275-.225.5-.5.5l-3 0c-.275 0-.5-.225-.5-.5 0-.275.225-.5.5-.5l3 0z" fill="#000" fill-rule="evenodd"/></svg>