<svg width="32" height="24" viewBox="0 0 32 24" xmlns="http://www.w3.org/2000/svg"><title>settings/box_24</title><path d="M30.695259 10.725l-9.518 6.172c-.147.099-.323.133-.493.098-.176-.037-.327-.143-.43-.307l-2.912-4.388c.169-.051.334-.117.495-.199l10.837-5.839 2.211 3.49c.207.327.12.765-.19.973zm-2.99 4.672c-.018.226-.138.435-.323.559l-10.04 6.797c-.498.335-1.142.335-1.638.001L5.66125904 15.955c-.183-.123-.303-.331-.32-.557l-.122-1.588 6.04199996 3.918c.373.25.818.337 1.255.245.442-.092.82-.355 1.06-.732l2.922-4.406 2.917 4.398c.245.385.623.648 1.064.74.113.024.228.036.341.036.322 0 .637-.095.908-.277l6.101-3.956-.124 1.621zM2.11025904 9.752l2.229-3.519L15.217259 12.106c.144.074.292.134.444.181l-2.924 4.409c-.099.156-.25.262-.426.299-.173.035-.346.001-.499-.102l-9.50599996-6.164c-.315000003-.212-.403000003-.65-.196-.977zm.584-2.889c.01-.039.037-.11.105-.142l.064-.028-.168.266c-.007-.041-.006-.077-.001-.096zM15.064259 1.321c.304-.133.617-.21.934-.26l0 10.276c-.108-.032-.214-.065-.315-.116L5.30425904 5.618 15.064259 1.321zm12.675 4.306l-10.368 5.589c-.119.061-.245.104-.373.138l0-10.296c.325.049.647.126.959.262l9.782 4.307zm2.589 1.236c.005.023.004.07-.011.122l-.196-.308.091.039c.079.037.106.108.116.147zm1.403 2.354l-.833-1.315.177-.226c.231-.297.313-.679.224-1.047-.086-.363-.329-.661-.674-.823l-12.267-5.402c-.592-.259-1.211-.393-1.84-.403l0-.001c-.003 0-.005.001-.007.001-.003 0-.005-.001-.007-.001l0 .001c-.629.01-1.248.144-1.841.404L2.38625904 5.811c-.335.157-.577000003.455-.664000003.818-.089.368-.006.75.226 1.048l.161000003.207-.845000003 1.333c-.494.781-.2759999997 1.832.492 2.347l2.408000003 1.562.18 2.349c.041.536.319 1.014.758 1.309L15.144259 23.583c.418.282.898.422 1.378.422.48 0 .96-.141 1.38-.423l10.04-6.797c.441-.297.718-.775.76-1.311l.181-2.382 2.363-1.533c.761-.51.979-1.561.485-2.342z" fill="#000" fill-rule="evenodd"/></svg>