<svg width="24" height="24" viewBox="0 0 24 24" xmlns="http://www.w3.org/2000/svg"><title>settings/brightness_24</title><path d="M13 19.9746l0-7.475 0-7.474c3.902.259 7 3.508 7 7.474 0 3.967-3.098 7.216-7 7.475m-8-7.475c0-3.966 3.098-7.215 7-7.474l0 7.474 0 7.475c-3.902-.259-7-3.508-7-7.475m18.5-.5l-2.525 0c-.116-1.966-.899-3.752-2.131-5.136l2.01-2.01c.195-.195.195-.512 0-.707-.196-.195-.512-.195-.708 0l-2.009 2.01c-1.385-1.233-3.17-2.016-5.137-2.131l0-2.526c0-.276-.224-.5-.5-.5-.276 0-.5.224-.5.5l0 2.526c-1.967.115-3.752.898-5.137 2.131l-2.009-2.01c-.196-.195-.512-.195-.708 0-.195.195-.195.512 0 .707l2.01 2.01c-1.232 1.384-2.015 3.17-2.131 5.136l-2.525 0c-.276 0-.5.224-.5.5 0 .277.224.5.5.5l2.525 0c.116 1.967.899 3.752 2.131 5.137l-2.01 2.01c-.195.195-.195.512 0 .707.098.098.226.146.354.146.128 0 .256-.048.354-.146l2.009-2.01c1.385 1.233 3.17 2.016 5.137 2.131l0 2.525c0 .277.224.5.5.5.276 0 .5-.223.5-.5l0-2.525c1.967-.115 3.752-.898 5.137-2.131l2.009 2.01c.098.098.226.146.354.146.128 0 .256-.048.354-.146.195-.195.195-.512 0-.707l-2.01-2.01c1.232-1.385 2.015-3.17 2.131-5.137l2.525 0c.276 0 .5-.223.5-.5 0-.276-.224-.5-.5-.5" fill="#000" fill-rule="evenodd"/></svg>