<svg width="24" height="24" viewBox="0 0 24 24" xmlns="http://www.w3.org/2000/svg"><title>alerts-and-notifications/broken-file_24</title><path d="M20 14.293l-5.146-5.146c-.196-.196-.512-.196-.708 0L9.5 13.793l-5.49-5.49c-.003-.003-.007-.004-.01-.007l0-5.657C4 1.735 4.735 1 5.639 1l12.722 0C19.265 1 20 1.735 20 2.639l0 11.654zm0 7.068c0 .904-.735 1.639-1.639 1.639L5.639 23C4.735 23 4 22.265 4 21.361L4 9.707l5.146 5.147c.196.195.512.195.708 0l4.646-4.647 5.5 5.5 0 5.654zM18.361 0L5.639 0C4.184 0 3 1.184 3 2.639l0 18.722C3 22.816 4.184 24 5.639 24l12.722 0C19.816 24 21 22.816 21 21.361l0-18.722C21 1.184 19.816 0 18.361 0z" fill="#000" fill-rule="evenodd"/></svg>