<svg width="24" height="24" viewBox="0 0 24 24" xmlns="http://www.w3.org/2000/svg"><title>format/browser_24</title><path d="M23 18.5c0 .827-.673 1.5-1.5 1.5l-19 0c-.827 0-1.5-.673-1.5-1.5l0-13C1 4.673 1.673 4 2.5 4l19 0c.827 0 1.5.673 1.5 1.5l0 13zM21.5 3C22.881 3 24 4.119 24 5.5l0 13c0 1.381-1.119 2.5-2.5 2.5l-19 0C1.119 21 0 19.881 0 18.5l0-13C0 4.119 1.119 3 2.5 3l19 0zm-17 3l-1 0c-.275 0-.5.225-.5.5 0 .275.225.5.5.5l1 0c.275 0 .5-.225.5-.5 0-.275-.225-.5-.5-.5zm16 0l-13 0c-.275 0-.5.225-.5.5 0 .275.225.5.5.5l13 0c.275 0 .5-.225.5-.5 0-.275-.225-.5-.5-.5z" fill="#000" fill-rule="evenodd"/></svg>