<svg width="16" height="16" viewBox="0 0 16 16" xmlns="http://www.w3.org/2000/svg"><title>format/browser_16</title><path d="M2 3c-.551 0-1 .449-1 1l0 8c0 .551.449 1 1 1l12 0c.551 0 1-.449 1-1l0-8c0-.551-.449-1-1-1L2 3zm12 11L2 14c-1.103 0-2-.897-2-2l0-8c0-1.103.897-2 2-2l12 0c1.103 0 2 .897 2 2l0 8c0 1.103-.897 2-2 2zM4 5.5c0-.276-.224-.5-.5-.5-.276 0-.5.224-.5.5 0 .276.224.5.5.5.276 0 .5-.224.5-.5zm8.5.5c.275 0 .5-.225.5-.5 0-.275-.225-.5-.5-.5l-6 0c-.275 0-.5.225-.5.5 0 .275.225.5.5.5l6 0z" fill="#000" fill-rule="evenodd"/></svg>