<svg width="18" height="18" viewBox="0 0 18 18" xmlns="http://www.w3.org/2000/svg"><title>meetings/calendar-empty_18</title><path d="M17 15.4996c0 .827-.673 1.5-1.5 1.5l-13 0c-.827 0-1.5-.673-1.5-1.5l0-11c0-.827.673-1.5 1.5-1.5l13 0c.827 0 1.5.673 1.5 1.5l0 11zm-1.5-13.5l-1.5 0 0-1.5c0-.274-.225-.5-.5-.5-.275 0-.5.226-.5.5l0 1.5-8 0 0-1.5c0-.274-.225-.5-.5-.5-.275 0-.5.226-.5.5l0 1.5-1.5 0c-1.381 0-2.5 1.119-2.5 2.5l0 11c0 1.382 1.119 2.5 2.5 2.5l13 0c1.381 0 2.5-1.118 2.5-2.5l0-11c0-1.381-1.119-2.5-2.5-2.5z" fill-rule="evenodd"/></svg>