<svg xmlns="http://www.w3.org/2000/svg" viewBox="0 0 16 16"><title>meetings/calendar-external_16</title><path d="M9.5 5C8.1 5 7 6.1 7 7.5c0 .2 0 .4.1.6-.2-.1-.4-.1-.6-.1C5.1 8 4 9.1 4 10.5S5.1 13 6.5 13 9 11.9 9 10.5c0-.2 0-.4-.1-.6.2.1.4.1.6.1 1.4 0 2.5-1.1 2.5-2.5S10.9 5 9.5 5zm-3 7c-.8 0-1.5-.7-1.5-1.5S5.7 9 6.5 9c.2 0 .4.1.6.2l-1 1c-.2.2-.2.5 0 .7.1.1.3.1.4.1s.3 0 .4-.1l1-1c0 .2.1.4.1.6 0 .8-.7 1.5-1.5 1.5zm3-3c-.2 0-.4-.1-.6-.2l1-1c.2-.2.2-.5 0-.7-.2-.1-.6-.1-.8 0l-1 1c0-.2-.1-.4-.1-.6C8 6.7 8.7 6 9.5 6s1.5.7 1.5 1.5S10.3 9 9.5 9z"/><path d="M14 2h-2V.5c0-.3-.2-.5-.5-.5s-.5.2-.5.5V2H5V.5c0-.3-.2-.5-.5-.5S4 .2 4 .5V2H2C.9 2 0 2.9 0 4v10c0 1.1.9 2 2 2h12c1.1 0 2-.9 2-2V4c0-1.1-.9-2-2-2zm1 12c0 .6-.4 1-1 1H2c-.6 0-1-.4-1-1V4c0-.6.4-1 1-1h12c.6 0 1 .4 1 1v10z"/></svg>