<svg width="12" height="12" viewBox="0 0 12 12" xmlns="http://www.w3.org/2000/svg"><title>meetings/calendar-external_12</title><path d="M11 10.5c0 .276-.224.5-.5.5l-9 0c-.276 0-.5-.224-.5-.5l0-8c0-.276.224-.5.5-.5l9 0c.276 0 .5.224.5.5l0 8zM10.5 1c.827 0 1.5.673 1.5 1.5l0 8c0 .827-.673 1.5-1.5 1.5l-9 0C.673 12 0 11.327 0 10.5l0-8C0 1.673.673 1 1.5 1l1.499 0 0-.5c0-.276.224-.5.5-.5.276 0 .5.224.5.5l0 .5 4 0 0-.5c0-.276.224-.5.5-.5.276 0 .5.224.5.5l0 .5L10.5 1zM7 6.5c-.086 0-.164-.029-.244-.049l.543-.543c.195-.195.195-.512 0-.707-.195-.195-.512-.195-.707 0l-.543.543C6.028 5.664 6 5.586 6 5.5c0-.551.448-1 1-1 .552 0 1 .449 1 1 0 .551-.448 1-1 1zm-2 2c-.552 0-1-.449-1-1 0-.551.448-1 1-1 .086 0 .164.029.244.049l-.598.597c-.195.196-.195.512 0 .708.098.097.226.146.354.146.128 0 .256-.049.354-.146l.597-.598c.021.08.049.158.049.244 0 .551-.448 1-1 1zm2-5c-1.104 0-2 .896-2 2-1.104 0-2 .896-2 2 0 1.104.896 2 2 2 1.104 0 2-.896 2-2 1.104 0 2-.896 2-2 0-1.104-.896-2-2-2z" fill="#000" fill-rule="evenodd"/></svg>