<svg width="12" height="12" viewBox="0 0 12 12" xmlns="http://www.w3.org/2000/svg"><title>meetings/calendar-add_12</title><path d="M10.5 1c.827 0 1.5.673 1.5 1.5l0 8c0 .827-.673 1.5-1.5 1.5l-9 0C.673 12 0 11.327 0 10.5l0-8C0 1.673.673 1 1.5 1l1.499 0 0-.5c0-.276.224-.5.5-.5.276 0 .5.224.5.5l0 .5 4 0 0-.5c0-.276.224-.5.5-.5.276 0 .5.224.5.5l0 .5L10.5 1zm.5 9.5l0-8c0-.276-.224-.5-.5-.5l-9 0c-.276 0-.5.224-.5.5l0 8c0 .276.224.5.5.5l9 0c.276 0 .5-.224.5-.5zM8 6c.275 0 .5.225.5.5 0 .275-.225.5-.5.5L6.5 7l0 1.5c0 .275-.225.5-.5.5-.275 0-.5-.225-.5-.5l0-1.5L4 7c-.275 0-.5-.225-.5-.5 0-.275.225-.5.5-.5l1.5 0 0-1.5c0-.275.225-.5.5-.5.275 0 .5.225.5.5l0 1.5L8 6z" fill="#000" fill-rule="evenodd"/></svg>