<?xml version="1.0" encoding="UTF-8"?>
<svg width="12px" height="12px" viewBox="0 0 12 12" version="1.1" xmlns="http://www.w3.org/2000/svg" xmlns:xlink="http://www.w3.org/1999/xlink">
    <!-- Generator: Sketch 60.1 (88133) - https://sketch.com -->
    <title>phone/call-voicemail_12</title>
    <desc>Created with Sketch.</desc>
    <g id="phone/call-voicemail_12" stroke="none" stroke-width="1" fill="none" fill-rule="evenodd">
        <path d="M9.07453131,7.4297533 L8.16153131,6.9937533 C7.65553131,6.7517533 7.08253131,6.7697533 6.58953131,7.0437533 L6.07453131,7.3257533 C5.23753131,6.5787533 4.41353131,5.6707533 3.87153131,4.8967533 C3.84453131,4.8577533 3.83953131,4.8007533 3.85853131,4.7567533 L4.12353131,4.1687533 C4.35253131,3.6597533 4.36853131,3.0687533 4.16653131,2.5447533 L3.77353131,1.5317533 C3.53153131,0.905753304 2.96653131,0.500753304 2.33453131,0.500753304 L1.29653131,0.500753304 C0.915531311,0.500753304 0.554531311,0.677753304 0.308531311,0.987753304 C0.0405313112,1.3237533 -0.0614686888,1.7787533 0.0365313112,2.2047533 C0.452531311,4.0227533 1.61653131,6.0937533 3.23053131,7.8867533 C4.87553131,9.7157533 6.70453131,10.9807533 8.38053131,11.4537533 C8.48853131,11.4847533 8.59953131,11.5007533 8.70953131,11.5007533 C8.97253131,11.5007533 9.23153131,11.4137533 9.45153131,11.2467533 C9.79453131,10.9877533 9.99953131,10.5647533 9.99953131,10.1157533 L9.99953131,8.9617533 C9.99953131,8.2997533 9.63653131,7.6977533 9.07453131,7.4297533 L9.07453131,7.4297533 Z M8.99953131,10.1157533 C8.99953131,10.2527533 8.94253131,10.3777533 8.84953131,10.4497533 C8.78553131,10.4967533 8.71853131,10.5117533 8.65153131,10.4917533 C7.17753131,10.0767533 5.47253131,8.8837533 3.97453131,7.2187533 C2.46953131,5.5467533 1.39053131,3.6387533 1.01153131,1.9827533 C0.980531311,1.8497533 1.01053131,1.7107533 1.08953131,1.6107533 C1.12353131,1.5697533 1.19353131,1.5007533 1.29653131,1.5007533 L2.33453131,1.5007533 C2.55053131,1.5007533 2.74853131,1.6547533 2.84053131,1.8927533 L3.23353131,2.9057533 C3.33953131,3.1807533 3.33153131,3.4917533 3.21153131,3.7587533 L2.94653131,4.3467533 C2.78253131,4.7127533 2.82253131,5.1427533 3.05153131,5.4697533 C3.64553131,6.3167533 4.50353131,7.2647533 5.40853131,8.0727533 C5.73253131,8.3617533 6.18353131,8.4147533 6.55553131,8.2067533 L7.07553131,7.9187533 C7.28153131,7.8027533 7.52053131,7.7957533 7.73153131,7.8957533 L8.64453131,8.3327533 C8.85653131,8.4337533 8.99953131,8.6857533 8.99953131,8.9617533 L8.99953131,10.1157533 Z M10.9223313,0.500553304 L5.59533131,0.500553304 C5.30033131,0.491553304 5.05133131,0.592553304 4.84933131,0.788553304 C4.62733131,1.0025533 4.49933131,1.3115533 4.49933131,1.6365533 L4.49933131,3.4995533 C4.49933131,3.7755533 4.72333131,3.9995533 4.99933131,3.9995533 C5.27633131,3.9995533 5.49933131,3.7755533 5.49933131,3.4995533 L5.49933131,1.6365533 C5.49933131,1.5725533 5.52333131,1.5275533 5.57633131,1.5005533 L10.9223313,1.5005533 C10.9493313,1.5005533 10.9993313,1.5525533 10.9993313,1.6365533 L10.9993313,5.3645533 C10.9993313,5.4485533 10.9493313,5.5005533 10.9223313,5.5005533 L7.10733131,5.5005533 C6.83033131,5.5005533 6.60733131,5.7245533 6.60733131,6.0005533 C6.60733131,6.2765533 6.83033131,6.5005533 7.10733131,6.5005533 L10.9223313,6.5005533 C11.5163313,6.5005533 11.9993313,5.9905533 11.9993313,5.3645533 L11.9993313,1.6365533 C11.9993313,1.0105533 11.5163313,0.500553304 10.9223313,0.500553304 M7.07863131,2.3828533 C6.48363131,2.3828533 5.99963131,2.8578533 5.99963131,3.4418533 C5.99963131,4.0258533 6.48363131,4.5008533 7.07863131,4.5008533 C7.09263131,4.5008533 6.98663131,4.5008533 6.99963131,4.5008533 C7.01263131,4.5018533 7.14063131,4.5008533 7.15363131,4.5008533 L9.49963131,4.5008533 C9.51363131,4.5008533 9.98563131,4.5018533 9.99963131,4.5008533 C10.0136313,4.5008533 9.56463131,4.5008533 9.57863131,4.5008533 C10.1736313,4.5008533 10.6576313,4.0258533 10.6576313,3.4418533 C10.6576313,2.8578533 10.1736313,2.3828533 9.57863131,2.3828533 C8.98363131,2.3828533 8.49963131,2.8578533 8.49963131,3.4418533 C8.49963131,3.4628533 8.51063131,3.4798533 8.51163131,3.5008533 L8.14463131,3.5008533 C8.14563131,3.4798533 8.15763131,3.4628533 8.15763131,3.4418533 C8.15763131,2.8578533 7.67363131,2.3828533 7.07863131,2.3828533" id="fill" fill="#171B1F"></path>
    </g>
</svg>