<svg width="20" height="20" viewBox="0 0 20 20" xmlns="http://www.w3.org/2000/svg"><title>phone/call-hold_20</title><path d="M18.3462263 13.113c1.005.433 1.654 1.418 1.654 2.513l0 2.192c0 .679-.308 1.308-.844 1.725-.386.3-.849.457-1.323.457-.177 0-.356-.022-.534-.067-3.383-.86-7.248-3.276-10.60200003-6.63C3.34222627 9.948.926226271 6.084.0672262714 2.7c-.165-.649-.023-1.325.3899999996-1.856C.875226271.308 1.50322627 0 2.18222627 0l2.193 0c1.094 0 2.08.65 2.512 1.655l.828 1.925c.384.893.355 1.904-.08 2.774l-.558 1.117c-.109.217-.081.473.071.669 1.167 1.5 2.93600003 3.257 4.73200003 4.698.192.154.455.183.67.076l1.096-.549c.87-.435 1.881-.464 2.774-.08l1.926.828zm.654 4.705l0-2.192c0-.694-.412-1.32-1.049-1.594l-1.926-.828c-.622-.268-1.326-.247-1.931.056l-1.097.548c-.564.282-1.248.207-1.743-.19-1.88000003-1.509-3.66500003-3.282-4.89600003-4.864-.385-.496-.454-1.175-.176-1.73l.559-1.117c.302-.606.322-1.31.055-1.931l-.828-1.926c-.274-.638-.9-1.05-1.593-1.05l-2.193 0c-.368 0-.709.167-.935.458-.223.285-.298999999.649-.211.996.816 3.214 3.137 6.911 6.368 10.142 3.23100003 3.23 6.92700003 5.551 10.14100003 6.368.348.088.712.012.997-.21.291-.227.458-.568.458-.936zm-2.5-8.8179c-.825 0-1.5-.675-1.5-1.5l0-6c0-.825.675-1.5 1.5-1.5.825 0 1.5.675 1.5 1.5l0 6c0 .825-.675 1.5-1.5 1.5zm-.5-7.5l0 6c0 .271.229.5.5.5.271 0 .5-.229.5-.5l0-6c0-.271-.229-.5-.5-.5-.271 0-.5.229-.5.5zm-3.5 7.5c-.825 0-1.5-.675-1.5-1.5l0-6c0-.825.675-1.5 1.5-1.5.825 0 1.5.675 1.5 1.5l0 6c0 .825-.675 1.5-1.5 1.5zm-.5-7.5l0 6c0 .271.229.5.5.5.271 0 .5-.229.5-.5l0-6c0-.271-.229-.5-.5-.5-.271 0-.5.229-.5.5z" fill="#000" fill-rule="evenodd"/></svg>