<svg width="24" height="24" xmlns="http://www.w3.org/2000/svg"><path d="M12 13c4.292 0 8.312.95 11.03 2.608.526.321.874.863.953 1.487.08.636-.128 1.26-.57 1.714l-1.4 1.435a2.492 2.492 0 01-1.784.757 2.46 2.46 0 01-.937-.185l-1.758-.718a3.053 3.053 0 01-1.745-1.892l-.357-1.096a.522.522 0 00-.432-.362c-1.699-.219-3.944-.21-6.006.022a.521.521 0 00-.435.36l-.35 1.076a3.055 3.055 0 01-1.745 1.892l-1.757.718a2.48 2.48 0 01-2.72-.572l-1.4-1.435a2.075 2.075 0 01-.57-1.714 2.024 2.024 0 01.953-1.488C3.687 13.95 7.707 13 12 13zm0-10a.5.5 0 110 1H6.822l7.156 6.314 4.168-4.168a.5.5 0 01.707.707l-4.5 4.5a.5.5 0 01-.684.023L6 4.609V10a.5.5 0 01-1 0V3.5c0-.023.01-.042.013-.064.005-.039.008-.076.023-.113.012-.033.032-.06.051-.089.014-.02.02-.046.037-.065.004-.004.009-.005.013-.01.027-.028.059-.047.091-.068.023-.015.042-.034.066-.045.027-.012.058-.015.087-.023.034-.008.068-.02.104-.02L5.5 3H12z" fill="#171B1F" fill-rule="nonzero"/></svg>