<svg width="28" height="28" viewBox="0 0 28 28" xmlns="http://www.w3.org/2000/svg"><title>meetings/call-room_28</title><path d="M16.0976 22c-.157 0-.315-.02-.471-.06-2.862-.725-6.129-2.768-8.964-5.603-2.834-2.834-4.877-6.102-5.604-8.965-.144-.57-.019-1.165.343-1.631.367-.47.919-.741 1.515-.741l1.846 0c.953 0 1.812.565 2.188 1.441l.698 1.622c.333.773.307 1.649-.07 2.402l-.47.94c-.077.156-.057.339.052.48.979 1.259 2.464 2.733 3.972 3.944.137.109.326.132.479.054l.924-.462c.754-.377 1.629-.403 2.402-.068l1.622.697c.875.376 1.44 1.234 1.44 2.187l0 1.847c0 .597-.27 1.148-.741 1.515-.339.263-.746.401-1.161.401zM2.9166 6c-.286 0-.55.129-.726.355-.171.221-.231.501-.162.771.684 2.693 2.631 5.793 5.341 8.504 2.711 2.711 5.811 4.658 8.504 5.342.269.069.55.008.771-.162.226-.176.355-.441.355-.726l0-1.847c0-.552-.328-1.05-.835-1.269l-1.622-.697-.001 0c-.501-.216-1.069-.201-1.559.044l-.923.462c-.502.252-1.111.184-1.552-.168-1.59-1.276-3.097-2.774-4.136-4.111-.348-.447-.408-1.037-.157-1.54l.47-.94c.245-.49.261-1.058.045-1.56l-.697-1.622c-.219-.508-.717-.836-1.27-.836l-1.846 0zm21.0835 21l-17 0c-1.654 0-3-1.346-3-3l0-1.5c0-.276.224-.5.5-.5.276 0 .5.224.5.5l0 1.5c0 1.103.897 2 2 2l17 0c1.103 0 2-.897 2-2l0-20c0-1.103-.897-2-2-2l-12 0c-1.103 0-2 .897-2 2l0 1c0 .276-.224.5-.5.5-.276 0-.5-.224-.5-.5l0-1c0-1.654 1.346-3 3-3l12 0c1.654 0 3 1.346 3 3l0 20c0 1.654-1.346 3-3 3z" fill-rule="evenodd"/></svg>