<svg width="14" height="14" viewBox="0 0 14 14" xmlns="http://www.w3.org/2000/svg"><title>phone/call-forward-divert_14</title><path d="M.5 9C.224 9 0 8.776 0 8.5l0-7c0-.276.224-.5.5-.5l7 0c.276 0 .5.224.5.5 0 .276-.224.5-.5.5L1.759 2l7.218 6.315 4.169-4.169c.196-.195.512-.195.708 0 .195.196.195.512 0 .708l-4.5 4.5c-.098.097-.226.146-.354.146-.117 0-.235-.041-.329-.124L1 2.664 1 8.5c0 .276-.224.5-.5.5zm13 3c.275 0 .5.225.5.5 0 .275-.225.5-.5.5l-13 0c-.275 0-.5-.225-.5-.5 0-.275.225-.5.5-.5l13 0z" fill-rule="evenodd"/></svg>