<?xml version="1.0" encoding="utf-8"?>
<!-- Generator: Adobe Illustrator 23.0.2, SVG Export Plug-In . SVG Version: 6.00 Build 0)  -->
<svg version="1.1" id="Layer_1" xmlns="http://www.w3.org/2000/svg" xmlns:xlink="http://www.w3.org/1999/xlink" x="0px" y="0px"
	 viewBox="0 0 12 12" style="enable-background:new 0 0 12 12;" xml:space="preserve">
<style type="text/css">
	.st0{fill-rule:evenodd;clip-rule:evenodd;fill:#121212;}
</style>
<g>
	<path class="st0" d="M12,9.1c0-0.2-0.1-0.4-0.2-0.5c-0.1-0.2-0.2-0.3-0.4-0.4C9.7,7.4,7.9,6.9,6,7C4.1,6.9,2.3,7.4,0.6,8.2
		C0.4,8.3,0.3,8.5,0.2,8.6C0.1,8.8,0,8.9,0,9.1c0,0.2,0,0.4,0.1,0.5c0.1,0.2,0.2,0.3,0.3,0.5L1,10.8c0.2,0.2,0.5,0.3,0.7,0.4
		s0.6,0,0.8-0.1l0.8-0.3c0.2-0.1,0.4-0.2,0.6-0.4c0.2-0.2,0.3-0.4,0.4-0.6l0.2-0.5c0.9-0.1,1.9-0.1,2.8,0l0.2,0.5
		c0.1,0.2,0.2,0.4,0.4,0.6c0.2,0.2,0.4,0.3,0.6,0.4l0.8,0.3c0.3,0.1,0.6,0.1,0.8,0.1c0.3-0.1,0.5-0.2,0.7-0.4l0.7-0.7
		c0.1-0.1,0.2-0.3,0.3-0.5C12,9.5,12,9.3,12,9.1z M11,9.4C11,9.4,11,9.4,11,9.4l-0.7,0.7c-0.1,0.1-0.1,0.1-0.2,0.1
		c-0.1,0-0.2,0-0.3,0L8.9,9.9c-0.1,0-0.2-0.1-0.3-0.2C8.6,9.6,8.5,9.5,8.5,9.4L8.3,8.9C8.3,8.8,8.2,8.6,8,8.5
		C7.9,8.4,7.7,8.3,7.5,8.3C7.1,8.2,6.6,8.2,6.1,8.2c-0.5,0-1.1,0-1.6,0.1C4.3,8.3,4.1,8.4,4,8.5C3.8,8.6,3.7,8.8,3.7,8.9L3.5,9.4
		c0,0.1-0.1,0.2-0.2,0.3C3.3,9.8,3.2,9.8,3.1,9.9l-0.8,0.3c-0.1,0-0.2,0-0.3,0c-0.1,0-0.2-0.1-0.2-0.1L1.1,9.4c0,0,0-0.1-0.1-0.1
		s0-0.1,0-0.1c0,0,0-0.1,0-0.1s0,0,0.1-0.1C2.6,8.3,4.3,7.9,6,8c1.7-0.1,3.4,0.3,4.9,1.1c0,0,0.1,0,0.1,0.1C11,9.2,11,9.2,11,9.4
		C11,9.3,11,9.3,11,9.4z"/>
	<path class="st0" d="M4.4,3.9l1.1-1.1v2.8C5.5,5.8,5.7,6,6,6s0.5-0.2,0.5-0.5V2.7l1.1,1.1C7.8,4,8.2,4,8.4,3.9
		c0.2-0.2,0.2-0.5,0-0.7l-2-2c0,0-0.1-0.1-0.2-0.1C6.1,1,5.9,1,5.8,1c-0.1,0-0.1,0.1-0.2,0.1l-2,2C3.5,3.2,3.5,3.4,3.5,3.5
		s0,0.3,0.1,0.4C3.8,4,4.2,4,4.4,3.9z"/>
</g>
</svg>
