<svg width="18" height="18" xmlns="http://www.w3.org/2000/svg"><path d="M9.011 3c-3.036 0-5.841.64-7.716 1.755a.604.604 0 00-.29.446.62.62 0 00.178.518L2.43 7.23c.247.245.664.332 1.033.184l1.16-.338c.328-.132.616-.435.743-.817l.257-.776a1.254 1.254 0 011.05-.844 23.817 23.817 0 012.311-.135h.031c.766.007 1.564.054 2.31.135.486.053.898.385 1.051.844l.258.776c.127.382.414.685.787.833l1.07.306c.415.161.831.077 1.111-.204l1.182-1.439c.17-.173.235-.362.21-.554a.602.602 0 00-.29-.446C14.83 3.64 12.025 3 9.011 3m-5.91 5.489c-.51 0-1.026-.202-1.41-.588L.444 6.39a1.578 1.578 0 01-.431-1.313c.06-.496.343-.927.77-1.181C2.809 2.69 5.8 2 8.988 2c3.211 0 6.203.69 8.228 1.896a1.618 1.618 0 01.308 2.53l-1.183 1.439c-.594.6-1.434.773-2.174.479l-1.069-.307a2.374 2.374 0 01-1.413-1.462l-.258-.775a.246.246 0 00-.21-.167 22.645 22.645 0 00-2.209-.129H8.99a22.68 22.68 0 00-2.207.129.246.246 0 00-.21.167l-.257.775a2.356 2.356 0 01-1.367 1.446l-1.162.338c-.217.088-.451.13-.685.13M3.848 10a.85.85 0 00-.848.849v4.302a.85.85 0 001.215.764l4.288-2.06a.984.984 0 000-1.71l-4.288-2.06A.833.833 0 003.848 10M4 11.091L7.974 13 4 14.909v-3.818M10.847 10a.85.85 0 00-.848.849v4.302a.85.85 0 001.215.764l4.29-2.06a.984.984 0 000-1.71l-4.29-2.06a.833.833 0 00-.367-.085M11 11.091L14.974 13 11 14.909v-3.818" fill="#000" fill-rule="evenodd"/></svg>