<?xml version="1.0" encoding="UTF-8"?>
<svg width="18px" height="18px" viewBox="0 0 18 18" version="1.1" xmlns="http://www.w3.org/2000/svg" xmlns:xlink="http://www.w3.org/1999/xlink">
    <!-- Generator: Sketch 55.2 (78181) - https://sketchapp.com -->
    <title>phone/call-pickup_18</title>
    <desc>Created with Sketch.</desc>
    <g id="Icons-Webex" stroke="none" stroke-width="1" fill="none" fill-rule="evenodd">
        <g id="phone/call-pickup_18" fill="#000000">
            <g id="call-pickup_18" transform="translate(0.000000, 2.000000)">
                <path d="M9.01140852,1 C5.97451256,1 3.16960865,1.64 1.29467288,2.755 C1.1336784,2.851 1.028682,3.014 1.00468282,3.201 C0.98068364,3.393 1.04568141,3.582 1.18267672,3.719 L2.429634,5.23 C2.67662554,5.475 3.09361125,5.562 3.46259861,5.414 L4.62355884,5.076 C4.95054764,4.944 5.23853777,4.641 5.36553342,4.259 L5.62252462,3.483 C5.77651934,3.024 6.18850523,2.692 6.67348861,2.639 C7.41946306,2.558 8.21843569,2.511 8.98440945,2.504 L9.01540839,2.504 C9.78138214,2.511 10.5793548,2.558 11.3253293,2.639 C11.8113126,2.692 12.2232985,3.024 12.3762932,3.483 L12.6342844,4.259 C12.7612801,4.641 13.0482702,4.944 13.4212574,5.092 L14.4902208,5.398 C14.9062066,5.559 15.3221923,5.475 15.6021827,5.194 L16.7841422,3.755 C16.9531365,3.582 17.0191342,3.393 16.994135,3.201 C16.9711358,3.014 16.8651395,2.851 16.704145,2.755 C14.8292092,1.64 12.0253053,1 9.01140852,1 M3.10061102,6.489 C2.59062849,6.489 2.07464616,6.287 1.69065932,5.901 L0.443702036,4.39 C0.118713169,4.069 -0.0502810411,3.577 0.0127168007,3.077 C0.0737147111,2.581 0.355705051,2.15 0.782690423,1.896 C2.80862102,0.69 5.79951856,6.98552327e-13 8.98840931,6.98552327e-13 C12.1992993,6.98552327e-13 15.1911968,0.69 17.2161274,1.896 C17.6441128,2.15 17.9251032,2.581 17.987101,3.077 C18.0490989,3.577 17.8801047,4.069 17.5241169,4.426 L16.3411574,5.865 C15.7471778,6.465 14.9072065,6.638 14.1672319,6.344 L13.0982685,6.037 C12.4062922,5.765 11.9073093,5.238 11.6853169,4.575 L11.4273258,3.8 C11.3973268,3.708 11.3163296,3.644 11.216333,3.633 C10.5043574,3.555 9.74038355,3.511 9.00840862,3.504 L8.98940928,3.504 C8.25943428,3.511 7.49546046,3.555 6.78248488,3.633 C6.68348827,3.644 6.60249105,3.708 6.57249207,3.8 L6.31450091,4.575 C6.09250852,5.238 5.59352561,5.765 4.94754774,6.021 L3.78558755,6.359 C3.56859498,6.447 3.334603,6.489 3.10061102,6.489 M3.84758543,8 C3.40260067,8 2.99961448,8.358 2.99961448,8.849 L2.99961448,13.151 C2.99961448,13.642 3.40260067,14 3.84758543,14 C3.96858128,14 4.093577,13.974 4.21457285,13.915 L8.50342592,11.855 C9.16540325,11.478 9.16540325,10.522 8.50342592,10.145 L4.21457285,8.085 C4.093577,8.026 3.96858128,8 3.84758543,8 M3.99958022,9.091 L7.97444405,11 L3.99958022,12.909 L3.99958022,9.091 M10.8473456,8 C10.4023609,8 9.99937468,8.358 9.99937468,8.849 L9.99937468,13.151 C9.99937468,13.642 10.4023609,14 10.8473456,14 C10.9683415,14 11.0933372,13.974 11.2143331,13.915 L15.5031861,11.855 C16.1651634,11.478 16.1651634,10.522 15.5031861,10.145 L11.2143331,8.085 C11.0933372,8.026 10.9683415,8 10.8473456,8 M10.9993404,9.091 L14.9742042,11 L10.9993404,12.909 L10.9993404,9.091" id="fill"></path>
            </g>
        </g>
    </g>
</svg>