<svg width="14" height="14" viewBox="0 0 14 14" fill="none" xmlns="http://www.w3.org/2000/svg">
<path fill-rule="evenodd" clip-rule="evenodd" d="M1.56237 1.99512C1.38737 1.99512 1.22537 2.07512 1.11737 2.21312C1.01237 2.34812 0.975368 2.52012 1.01737 2.68412C1.52437 4.68312 2.97337 6.98612 4.99137 9.00412C7.00837 11.0221 9.31237 12.4701 11.3114 12.9781C11.4744 13.0191 11.6454 12.9831 11.7824 12.8781C11.9204 12.7701 12.0004 12.6081 12.0004 12.4331V11.0481C12.0004 10.6831 11.7834 10.3541 11.4494 10.2111L10.2324 9.68812C9.89037 9.54112 9.50137 9.55312 9.16737 9.71912L8.47537 10.0651C8.05537 10.2741 7.54537 10.2201 7.17737 9.92312C5.97937 8.96212 4.84037 7.83112 4.05537 6.82112C3.76837 6.45312 3.71637 5.94712 3.92437 5.53212L4.27637 4.82812C4.44337 4.49412 4.45537 4.10512 4.30737 3.76312L3.78437 2.54612C3.64037 2.21112 3.31237 1.99512 2.94737 1.99512H1.56237ZM11.4484 13.9951C11.3204 13.9951 11.1914 13.9791 11.0644 13.9471C8.89637 13.3961 6.42537 11.8521 4.28437 9.71112C2.14237 7.57012 0.598368 5.09812 0.0473679 2.93012C-0.0696321 2.46412 0.0323679 1.97912 0.328368 1.59912C0.626368 1.21512 1.07637 0.995117 1.56237 0.995117H2.94737C3.71137 0.995117 4.40137 1.44912 4.70337 2.15112L5.22637 3.36812C5.49037 3.98212 5.47037 4.67712 5.17137 5.27512L4.81837 5.98012C4.78237 6.05312 4.79137 6.14012 4.84437 6.20612C5.57337 7.14412 6.67937 8.24212 7.80337 9.14312C7.86737 9.19612 7.95637 9.20612 8.02837 9.17012L8.72037 8.82412C9.31737 8.52612 10.0124 8.50512 10.6274 8.76912L11.8434 9.29212C12.5464 9.59412 13.0004 10.2831 13.0004 11.0481V12.4331C13.0004 12.9191 12.7804 13.3691 12.3954 13.6671C12.1194 13.8831 11.7874 13.9951 11.4484 13.9951Z" fill="#121212"/>
<path fill-rule="evenodd" clip-rule="evenodd" d="M10.5001 2.62508C10.3271 2.625 10.1578 2.67625 10.0139 2.77235C9.86995 2.86845 9.75774 3.00507 9.69145 3.16495C9.62516 3.32483 9.60777 3.50078 9.64149 3.67054C9.67521 3.8403 9.75851 3.99624 9.88087 4.11865C10.0032 4.24107 10.1591 4.32444 10.3289 4.35823C10.4986 4.39203 10.6746 4.37472 10.8345 4.30851C10.9944 4.24229 11.1311 4.13014 11.2272 3.98624C11.3234 3.84234 11.3747 3.67315 11.3747 3.50008C11.3744 3.26817 11.2822 3.04584 11.1183 2.88182C10.9543 2.7178 10.732 2.62547 10.5001 2.62508ZM12.4986 3.66698C12.4377 3.68693 12.3817 3.71981 12.3346 3.76337C12.2875 3.80693 12.2504 3.86014 12.2257 3.91938L12.0163 4.42408C11.9917 4.48346 11.9801 4.54745 11.9825 4.6117C11.9848 4.67595 12.0009 4.73894 12.0298 4.79638L12.266 5.26888L11.7935 5.03268C11.7363 5.00381 11.6734 4.98766 11.6094 4.98533C11.5453 4.983 11.4814 4.99455 11.4222 5.01918L10.9185 5.22918C10.8593 5.25375 10.806 5.29075 10.7623 5.33768C10.7186 5.3846 10.6855 5.44036 10.6652 5.50118L10.5001 6.00008L10.3328 5.50068C10.3127 5.44005 10.2796 5.38449 10.236 5.33779C10.1924 5.29109 10.1392 5.25435 10.0801 5.23008L9.57453 5.02148C9.51551 4.997 9.45191 4.98553 9.38805 4.98786C9.3242 4.99019 9.2616 5.00626 9.20453 5.03498L8.73453 5.27118L8.97013 4.79458C8.99865 4.73717 9.01453 4.67431 9.0167 4.61024C9.01888 4.54618 9.00729 4.48239 8.98273 4.42318L8.77273 3.92028C8.74833 3.86109 8.7115 3.80785 8.66473 3.76414C8.61795 3.72044 8.56233 3.6873 8.50163 3.66698L8.00013 3.50008L8.50393 3.33098C8.56451 3.31069 8.62005 3.27767 8.66681 3.23414C8.71357 3.1906 8.75047 3.13756 8.77503 3.07858L8.98353 2.57478C9.0079 2.51556 9.01932 2.45182 9.01701 2.38783C9.01469 2.32383 8.99871 2.26108 8.97013 2.20378L8.73393 1.73128L9.20553 1.96748C9.26615 1.99527 9.33188 2.01017 9.39857 2.01126C9.46525 2.01234 9.53143 1.99958 9.59293 1.97378L10.0805 1.77148C10.14 1.74708 10.1934 1.71015 10.2373 1.66321C10.2812 1.61627 10.3144 1.56042 10.3347 1.49948L10.5001 1.00008L10.6665 1.50008C10.6869 1.56084 10.7201 1.61654 10.7638 1.66345C10.8075 1.71036 10.8607 1.7474 10.9198 1.77208L11.4244 1.98068C11.4836 2.00526 11.5474 2.01686 11.6114 2.01469C11.6755 2.01252 11.7383 1.99662 11.7957 1.96808L12.2682 1.73098L12.032 2.20348C12.0031 2.26075 11.987 2.3236 11.9847 2.3877C11.9823 2.4518 11.9939 2.51565 12.0185 2.57488L12.2261 3.07868C12.2504 3.13818 12.2873 3.19171 12.3343 3.23559C12.3812 3.27947 12.4371 3.31266 12.4981 3.33288L13.0001 3.50008L12.4986 3.66698ZM13.4586 2.75198L12.9186 2.57078L12.8679 2.44658L13.1225 1.93908C13.1968 1.79071 13.2225 1.62277 13.1961 1.45898C13.1697 1.29519 13.0925 1.14385 12.9754 1.02633C12.8582 0.90882 12.7072 0.831079 12.5435 0.804098C12.3798 0.777117 12.2118 0.802262 12.0631 0.875977L11.5539 1.13058L11.4301 1.07898L11.2512 0.540777C11.1985 0.383266 11.0977 0.246303 10.9629 0.149259C10.8281 0.0522145 10.6662 0 10.5001 0C10.334 0 10.1722 0.0522145 10.0374 0.149259C9.90258 0.246303 9.80171 0.383266 9.74903 0.540777L9.57013 1.07898L9.44633 1.13008L8.94063 0.876777C8.79209 0.80253 8.62396 0.776882 8.46004 0.803465C8.29612 0.830048 8.14471 0.907514 8.02725 1.0249C7.90979 1.14228 7.83222 1.29364 7.80553 1.45754C7.77884 1.62144 7.80438 1.78959 7.87853 1.93818L8.13223 2.44568L8.08063 2.57008L7.54063 2.75118C7.38308 2.80391 7.2461 2.90485 7.14907 3.03972C7.05205 3.17459 6.9999 3.33656 7 3.5027C7.0001 3.66884 7.05244 3.83075 7.14963 3.9655C7.24681 4.10026 7.38391 4.20103 7.54153 4.25358L8.07953 4.43118L8.13113 4.55538L7.87743 5.06638C7.80358 5.21501 7.77833 5.3831 7.80524 5.54687C7.83216 5.71064 7.90987 5.86181 8.02739 5.979C8.14491 6.09619 8.2963 6.17347 8.46014 6.19992C8.62399 6.22637 8.792 6.20064 8.94043 6.12638L9.44613 5.87258L9.56953 5.92418L9.74883 6.46148C9.80188 6.6188 9.90302 6.75548 10.038 6.85221C10.1729 6.94893 10.3348 7.00081 10.5009 7.00053C10.6669 7.00024 10.8286 6.9478 10.9632 6.8506C11.0978 6.75341 11.1985 6.61638 11.251 6.45888L11.4286 5.92248L11.552 5.87088L12.0611 6.12548C12.2051 6.1967 12.3674 6.2224 12.5264 6.19918C12.6854 6.17596 12.8335 6.10491 12.9511 5.99548C12.9594 5.98865 12.9673 5.98134 12.9747 5.97358C13.0916 5.85613 13.1686 5.70497 13.195 5.5414C13.2214 5.37782 13.1958 5.2101 13.1217 5.06188L12.868 4.55518L12.9187 4.43098L13.4568 4.25338C13.615 4.20152 13.7527 4.10099 13.8503 3.96616C13.9478 3.83134 14.0003 3.66911 14.0001 3.50268V3.50098C14.0002 3.33514 13.948 3.1735 13.8509 3.03903C13.7538 2.90457 13.6169 2.80412 13.4594 2.75198H13.4586Z" fill="#121212"/>
</svg>
