<svg width="20" height="20" xmlns="http://www.w3.org/2000/svg"><path d="M15 6a1.001 1.001 0 000-2 1.001 1.001 0 000 2zm0-3c1.103 0 2 .897 2 2s-.897 2-2 2-2-.897-2-2 .897-2 2-2zm2.917 2.376L19 5.004c0-.01-.004-.018-.012-.02l-1.072-.358a.499.499 0 01-.305-.284l-.298-.726a.498.498 0 01.016-.415l.505-1.008-1.038.48a.509.509 0 01-.415.014l-.722-.299a.498.498 0 01-.284-.305l-.356-1.07-.394 1.07a.494.494 0 01-.284.303l-.723.3a.505.505 0 01-.415-.015l-1.007-.504.476 1.035c.065.13.072.28.015.414l-.297.724a.502.502 0 01-.305.283l-1.07.36 1.068.394a.497.497 0 01.303.282l.301.725a.495.495 0 01-.015.414l-.504 1.012 1.033-.477a.489.489 0 01.415-.017l.723.3a.5.5 0 01.285.304l.356 1.067.393-1.066a.495.495 0 01.282-.305l.723-.3a.5.5 0 01.415.014l1.011.503-.478-1.034a.494.494 0 01-.014-.415l.3-.725a.501.501 0 01.305-.283zm1.388-1.34c.415.138.695.527.695.966v.002c0 .44-.28.828-.699.967l-.854.282-.125.303.403.802a1.023 1.023 0 01-1.369 1.37l-.805-.402-.3.126-.284.85A1.016 1.016 0 0115 10c-.439 0-.829-.279-.967-.696l-.285-.85-.303-.126-.799.402a1.016 1.016 0 01-1.18-.19 1.025 1.025 0 01-.194-1.175l.403-.808-.125-.303-.853-.283A1.017 1.017 0 0110 5.004c0-.442.28-.83.696-.969l.855-.287.125-.303-.402-.803a1.02 1.02 0 011.37-1.37l.801.402.304-.125.284-.853C14.17.28 14.56 0 15 0c.438 0 .83.28.967.696l.284.854.304.126.806-.404c.393-.197.866-.12 1.177.193.312.31.388.785.19 1.18l-.403.801.125.304.855.285zM19 17.817v-2.192c0-.694-.412-1.32-1.049-1.594l-1.926-.828a2.285 2.285 0 00-1.93.056l-1.098.548a1.63 1.63 0 01-1.743-.19c-1.88-1.509-3.665-3.282-4.896-4.864a1.64 1.64 0 01-.176-1.73l.56-1.117c.301-.606.321-1.31.054-1.93L5.968 2.05A1.733 1.733 0 004.375 1H2.182c-.368 0-.709.167-.935.458a1.15 1.15 0 00-.21.996c.815 3.214 3.136 6.911 6.367 10.142 3.231 3.23 6.927 5.551 10.141 6.368.348.088.712.012.997-.21a1.18 1.18 0 00.458-.936zm-.654-4.705A2.733 2.733 0 0120 15.626v2.192c0 .68-.308 1.308-.844 1.725a2.15 2.15 0 01-1.857.39c-3.383-.86-7.248-3.276-10.602-6.63C3.342 9.948.927 6.084.067 2.7A2.143 2.143 0 01.457.844 2.174 2.174 0 012.182 0h2.193c1.094 0 2.08.65 2.512 1.655l.828 1.925a3.287 3.287 0 01-.08 2.774l-.558 1.117a.625.625 0 00.071.67c1.167 1.5 2.936 3.256 4.732 4.697a.63.63 0 00.67.076l1.096-.549a3.287 3.287 0 012.774-.08l1.926.828z" fill="#171B1F" fill-rule="evenodd"/></svg>