<svg width="14" height="14" viewBox="0 0 14 14" xmlns="http://www.w3.org/2000/svg"><title>phone/call-private_14</title><path d="M12.3599847 14c-.1350013 0-.2700025-.017-.4040038-.05-2.34302186-.596-5.01304679-2.264-7.3270684-4.578C2.31389089 7.057.644875307 4.386.0508697607 2.044-.0741314064 1.553.033869602 1.04.345872515.638.661875466.232 1.1368799 0 1.6508847 0l1.500014 0c.81200759 0 1.54301441.481 1.86401741 1.227l.56700529 1.318c.28100263.654.26000243 1.394-.05900055 2.031l-.38200356.764c-.04600043.094-.03400032.204.03200029.29.7920074 1.018 1.99301861 2.21 3.21202999 3.188.08400079.068.19400182.082.2890027.034l.750007-.375c.63600593-.319 1.37601283-.34 2.03101893-.059l1.3180123.567C13.5179955 9.306 14 10.038 14 10.849l0 1.5c0 .514-.2330022.989-.638006 1.305-.2920027.227-.643006.346-1.0020093.346zM1.65086929 1c-.203 0-.391.092-.515.252-.122.157-.164000004.356-.116.546.552 2.173 2.125 4.675 4.316 6.867 2.19 2.19 4.69300001 3.763 6.86600001 4.315.191.049.389.007.546-.116.16-.124.252-.312.252-.515l0-1.5c0-.411-.244-.783-.623-.945l-1.317-.567c-.383-.164-.816-.152-1.18900001.035l-.75.375c-.44.22-.975.163-1.362-.148-1.296-1.04-2.526-2.263-3.375-3.355-.301-.386-.355-.916-.137-1.351l.382-.764c.186-.373.199-.806.034-1.189l-.566-1.318c-.163-.378-.534-.622-.946-.622l-1.5 0zM10.5 0C12.433 0 14 1.566 14 3.5 14 5.434 12.433 7 10.5 7 8.567 7 7 5.434 7 3.5 7 1.566 8.567 0 10.5 0zm0 6c1.209 0 2.218-.859 2.45-2l-4.9 0c.232 1.141 1.241 2 2.45 2zm0-5c-1.209 0-2.218.859-2.45 2l4.9 0c-.232-1.141-1.241-2-2.45-2z" fill="#000" fill-rule="evenodd"/></svg>