<?xml version="1.0" encoding="UTF-8"?>
<svg width="12px" height="12px" viewBox="0 0 12 12" version="1.1" xmlns="http://www.w3.org/2000/svg" xmlns:xlink="http://www.w3.org/1999/xlink">
    <!-- Generator: Sketch 56.3 (81716) - https://sketch.com -->
    <title>phone/call-forward-settings_12</title>
    <desc>Created with Sketch.</desc>
    <g id="Icons-Webex" stroke="none" stroke-width="1" fill="none" fill-rule="evenodd">
        <g id="phone/call-forward-settings_12" fill="#000000">
            <g id="call-forward-settings_12" transform="translate(0.000000, 1.000000)">
                <path d="M10.9356,8.18696 C11.0016,8.12196 11.0026,8.04496 10.9976,8.00596 C10.9936,7.96796 10.9736,7.89796 10.8976,7.85296 C9.7066,7.15196 7.9226,6.74996 5.9996,6.74996 C4.0766,6.74996 2.2916,7.15196 1.1036,7.85196 C1.0256,7.89796 1.0066,7.96796 1.0016,8.00596 C0.9966,8.04496 0.9986,8.12196 1.0646,8.18696 L1.7346,8.84996 C1.8656,8.97996 2.0636,9.01996 2.2396,8.95196 L3.0786,8.62096 C3.2716,8.54296 3.4206,8.38796 3.4856,8.19396 L3.6536,7.69696 C3.7746,7.33596 4.1006,7.07596 4.4826,7.03496 C5.0256,6.97596 5.5836,6.94596 6.1176,6.94596 C6.6196,6.94596 7.1006,6.97196 7.5266,7.02496 C7.9036,7.07196 8.2236,7.33196 8.3426,7.68596 L8.5136,8.19296 C8.5796,8.38796 8.7276,8.54296 8.9216,8.62096 L9.7616,8.95296 C9.9386,9.01896 10.1346,8.97996 10.2656,8.84996 L10.9356,8.18696 Z M11.9906,7.88096 C12.0386,8.25796 11.9106,8.62896 11.6386,8.89796 L10.9686,9.56096 C10.6896,9.83696 10.3156,9.98496 9.9346,9.98496 C9.7536,9.98496 9.5706,9.95196 9.3956,9.88296 L8.5536,9.54996 C8.0846,9.36496 7.7256,8.98696 7.5666,8.51196 L7.3956,8.00596 C6.6086,7.91996 5.5586,7.92296 4.5896,8.02896 L4.4336,8.51196 C4.2746,8.98696 3.9146,9.36496 3.4466,9.54996 L3.4456,9.54996 L2.6056,9.88196 C2.0616,10.09796 1.4446,9.96896 1.0306,9.56096 L0.3606,8.89796 C0.0906,8.62896 -0.0384,8.25796 0.00959999999,7.88096 C0.0566,7.50596 0.2706,7.18096 0.5966,6.98996 C1.9536,6.18996 3.8726,5.74896 5.9996,5.74896 C8.1266,5.74896 10.0456,6.18996 11.4046,6.99096 C11.7296,7.18096 11.9436,7.50596 11.9906,7.88096 Z M2.4766,3.99756 C2.2006,3.99756 1.9766,3.77356 1.9766,3.49756 L1.9766,0.49956 C1.9766,0.22356 2.2006,-0.000439999998 2.4766,-0.000439999998 L5.4766,-0.000439999998 C5.7526,-0.000439999998 5.9766,0.22356 5.9766,0.49956 C5.9766,0.77656 5.7526,0.99956 5.4766,0.99956 L3.7646,0.99956 L6.4686,3.70456 L8.4226,1.75056 C8.6186,1.55556 8.9346,1.55556 9.1296,1.75056 C9.3256,1.94556 9.3256,2.26256 9.1296,2.45756 L6.8226,4.76556 C6.7246,4.86256 6.5966,4.91156 6.4686,4.91156 C6.3406,4.91156 6.2126,4.86256 6.1156,4.76556 L2.9766,1.62656 L2.9766,3.49756 C2.9766,3.77356 2.7526,3.99756 2.4766,3.99756 Z" id="fill"></path>
            </g>
        </g>
    </g>
</svg>