<svg width="14" height="14" viewBox="0 0 14 14" xmlns="http://www.w3.org/2000/svg"><title>phone/call-log_14</title><path d="M1.5624 1.9951c-.175 0-.337.08-.445.218-.105.135-.142.307-.1.471.507 1.999 1.956 4.302 3.974 6.32 2.017 2.018 4.321 3.466 6.32 3.974.163.041.334.005.471-.1.138-.108.218-.27.218-.445l0-1.385c0-.365-.217-.694-.551-.837l-1.217-.523c-.342-.147-.731-.135-1.065.031l-.692.346c-.42.209-.93.155-1.298-.142-1.198-.961-2.337-2.092-3.122-3.102-.287-.368-.339-.874-.131-1.289l.352-.704c.167-.334.179-.723.031-1.065l-.523-1.217c-.144-.335-.472-.551-.837-.551l-1.385 0zm9.886 12c-.128 0-.257-.016-.384-.048-2.168-.551-4.639-2.095-6.78-4.236-2.142-2.141-3.686-4.613-4.237-6.781-.117-.466-.015-.951.281-1.331.298-.384.748-.604 1.234-.604l1.385 0c.764 0 1.454.454 1.756 1.156l.523 1.217c.264.614.244 1.309-.055 1.907l-.353.705c-.036.073-.027.16.026.226.729.938 1.835 2.036 2.959 2.937.064.053.153.063.225.027l.692-.346c.597-.298 1.292-.319 1.907-.055l1.216.523c.703.302 1.157.991 1.157 1.756l0 1.385c0 .486-.22.936-.605 1.234-.276.216-.608.328-.947.328zM10.4985 6c-.128 0-.256-.049-.354-.146l-1-1c-.093-.094-.146-.221-.146-.354l0-2c0-.276.224-.5.5-.5.276 0 .5.224.5.5l0 1.793.854.853c.195.196.195.512 0 .708-.098.097-.226.146-.354.146zm1.5004 2.1225c-.146 0-.292-.064-.391-.187-.172-.216-.138-.53.078-.703.834-.669 1.313-1.665 1.313-2.733 0-1.929-1.571-3.5-3.5-3.5-1.068 0-2.064.479-2.733 1.313-.172.216-.486.251-.703.078-.215-.173-.25-.488-.077-.703.859-1.072 2.139-1.688 3.513-1.688 2.481 0 4.5 2.019 4.5 4.5 0 1.373-.616 2.654-1.688 3.513-.092.074-.203.11-.312.11z" fill="#000" fill-rule="evenodd"/></svg>