<svg width="16" height="16" viewBox="0 0 16 16" xmlns="http://www.w3.org/2000/svg"><title>phone/call-hold_16</title><path d="M14.6300146 10.3603525C15.4620057 10.7183301 16 11.535279 16 12.4402225l0 1.7308918c0 .5689644-.2579972 1.0959315-.7069925 1.4449097C14.970011 15.8680082 14.5810151 16 14.1840194 16c-.1489985 0-.2989969-.0189988-.4469953-.0569964-2.6899713-.6829574-5.7579386-2.6008375-8.41891023-5.2616712C2.65714223 8.02049872.739162677 4.95269046.0561699571 2.26285857-.0818285719 1.71889257.0371701596 1.151928.383166471.706955815.732162751.257983876 1.25915713 0 1.82815107 0l1.73098155 0c.90499035 0 1.72198164.537966377 2.07997782 1.36991438l.65399303 1.51990501c.31499665.73395412.2909969 1.56490219-.06599929 2.27885757l-.4409953.88194488c-.06699929.13399162-.04999947.29298168.04499952.415974.91599023 1.17692644 2.30597542 2.55784013 3.71896035 3.69076936.11899874.094994.281997.1149928.41599557.047997l.86599078-.43297297c.7139924-.35797763 1.5439835-.38197613 2.2779757-.06499594l1.5199838.65295921zm.3699961 3.8107618l0-1.7308918c0-.5049685-.2999968-.96094-.7649919-1.1619274l-1.5199838-.6519592c-.4619951-.1989876-.9849895-.1839885-1.4359847.0409974l-.8659907.4329729c-.47899494.240985-1.06498869.176989-1.48898417-.1619898-1.4919841-1.19792517-2.90696901-2.6038373-3.88195862-3.85775893-.33399644-.42997313-.39099583-.99493782-.1499984-1.4769077l.4409953-.88194488c.2249976-.44997187.23999744-.97393913.04099956-1.43691019l-.65399303-1.51990501c-.19899788-.46497093-.65599301-.764952186-1.16098762-.764952186l-1.73098155 0c-.25799725 0-.4969947.116992686-.65599301.320979936-.15499835.1999875-.208997771.45397163-.14699843.69595651.64099317 2.51984251 2.46297374 5.4206612 4.9999467 7.95750265 2.53797295 2.5368414 5.43794207 4.3597275 7.95791517 4.9996875.2429974.0619961.4959947.0079995.6959926-.1469908.2039978-.1589901.3209966-.3979751.3209966-.655959zM14.500016.0000999938C15.3250072.0000999938 16 .675057809 16 1.50000625l0 4.99968752c0 .82494844-.6749928 1.49990625-1.499984 1.49990625-.8249912 0-1.499984-.67495781-1.499984-1.49990625l0-4.99968752c0-.824948441.6749928-1.4999062562 1.499984-1.4999062562zm.4999947 6.4995937762l0-4.99968752c0-.27098306-.2289976-.49996875-.4999947-.49996875-.2709971 0-.4999947.22898569-.4999947.49996875l0 4.99968752c0 .27098306.2289976.49996875.4999947.49996875.2709971 0 .4999947-.22898569.4999947-.49996875zm-4.4999521 1.49990625c-.82499118 0-1.49998398-.67495781-1.49998398-1.49990625l0-4.99968752c0-.824948441.6749928-1.4999062562 1.49998398-1.4999062562.8249912 0 1.499984.6749578152 1.499984 1.4999062562l0 4.99968752c0 .82494844-.6749928 1.49990625-1.499984 1.49990625zm-.4999946-6.49959377l0 4.99968752c0 .27098306.2289975.49996875.4999946.49996875.2709971 0 .4999947-.22898569.4999947-.49996875l0-4.99968752c0-.27098306-.2289976-.49996875-.4999947-.49996875-.2709971 0-.4999946.22898569-.4999946.49996875z" fill="#000" fill-rule="evenodd"/></svg>