<svg width="20" height="20" xmlns="http://www.w3.org/2000/svg"><path d="M4.763 2a2.38 2.38 0 012.188 1.44l.697 1.623c.333.774.308 1.65-.069 2.402l-.47.94a.447.447 0 00.051.48c.98 1.26 2.465 2.733 3.973 3.944.137.11.324.131.48.053l.922-.461a2.85 2.85 0 012.402-.07h.001l1.621.697A2.38 2.38 0 0118 15.239v1.846c0 .596-.27 1.148-.74 1.515a1.892 1.892 0 01-1.633.343c-2.863-.729-6.13-2.771-8.964-5.606-2.835-2.835-4.877-6.102-5.604-8.963a1.882 1.882 0 01.343-1.632 1.905 1.905 0 011.514-.74zm0 1H2.916a.915.915 0 00-.725.354.892.892 0 00-.163.771C2.712 6.82 4.66 9.918 7.37 12.63c2.71 2.71 5.81 4.658 8.504 5.342A.91.91 0 0017 17.084v-1.845c0-.553-.328-1.051-.836-1.27l-1.622-.697a1.847 1.847 0 00-1.56.044l-.923.463a1.45 1.45 0 01-1.553-.17c-1.588-1.274-3.095-2.773-4.135-4.109a1.461 1.461 0 01-.157-1.54l.471-.941a1.85 1.85 0 00.044-1.56l-.697-1.623a1.38 1.38 0 00-1.269-.834zM13 1c3.309 0 6 2.692 6 6a5.945 5.945 0 01-1.882 4.364.498.498 0 01-.706-.02.5.5 0 01.02-.707A4.957 4.957 0 0018 6.998c0-2.755-2.243-5-5-5a5.012 5.012 0 00-4.091 2.126.497.497 0 01-.696.12.498.498 0 01-.121-.696A6.01 6.01 0 0113 1zm0 3.5a.5.5 0 01.5.5v2.293l1.354 1.353a.502.502 0 01-.708.708l-1.5-1.5A.504.504 0 0112.5 7.5V5a.5.5 0 01.5-.5z" fill="#171B1F" fill-rule="evenodd"/></svg>