<svg width="14" height="14" viewBox="0 0 14 14" xmlns="http://www.w3.org/2000/svg"><title>phone/call-handling_14</title><path d="M13.9621295 10.8091c-.024996-.062-.0619901-.117-.1079827-.163l-2.4995982-2.5c-.1949687-.195-.5119178-.195-.7068864 0-.1949687.196-.1949687.512 0 .707l1.6147405 1.615c-1.3957757-.149-2.69356716-.844-3.70340486-1.997l-1.28679319-1.471 1.28679319-1.471c1.0098377-1.153 2.30762916-1.848 3.70340486-1.997l-1.6147405 1.614c-.1949687.196-.1949687.512 0 .707.0979842.098.2259636.147.3539431.147.1279794 0 .254959-.049.3529433-.147l2.4995982-2.499c.0459926-.046.0829867-.102.1079827-.163.0509918-.122.0509918-.26 0-.382-.024996-.062-.0619901-.117-.1079827-.163l-2.4995982-2.5c-.1949687-.195-.5119178-.195-.7068864 0-.1949687.196-.1949687.512 0 .707l1.6757306 1.676c-1.6937277.14-3.31746679.971-4.51727396 2.342l-1.1978075 1.37-1.19880733-1.37c-1.35678195-1.551-3.0545091-2.371-4.909211021-2.371-.276955489 0-.4999196557.224-.4999196557.5 0 .276.2229641667.5.4999196557.5 1.557749651 0 2.995518581.702 4.156332021 2.029l1.28679319 1.471-1.28679319 1.471c-1.16081344 1.327-2.59858237 2.029-4.156332021 2.029-.276955489 0-.4999196557.224-.4999196557.5 0 .276.2229641667.5.4999196557.5 1.854701921 0 3.552429071-.82 4.909211021-2.371l1.19880733-1.37 1.19880734 1.371c1.19880733 1.37 2.82254642 2.2 4.51627412 2.341l-1.6757306 1.675c-.1949687.196-.1949687.512 0 .707.0979842.098.2259636.147.3539431.147.1279794 0 .254959-.049.3529433-.147l2.4995982-2.499c.0459926-.046.0829867-.102.1079827-.163.0509918-.122.0509918-.26 0-.382" fill-rule="evenodd"/></svg>