<svg width="12" height="12" viewBox="0 0 12 12" xmlns="http://www.w3.org/2000/svg"><title>phone/call-private_12</title><path d="M11.0002 10.5266c0 .147-.067.284-.184.375-.067.052-.205.133-.396.084-1.825-.464-3.93-1.787-5.774-3.632-1.844-1.844-3.168-3.949-3.632-5.774-.048-.189.032-.329.084-.396.091-.117.228-.183.376-.183l1.269 0c.318 0 .604.188.729.48l.48 1.114c.13.303.12.647-.027.942l-.324.646c-.197.394-.148.874.125 1.225.721.928 1.767 1.967 2.868 2.85.351.283.836.335 1.235.135l.635-.317c.295-.148.638-.158.941-.028l1.115.48c.292.125.48.412.48.729l0 1.27zm-.085-2.918c.659.283 1.085.931 1.085 1.648l0 1.27c0 .458-.208.883-.57 1.164-.261.203-.574.31-.894.31-.12 0-.242-.015-.362-.046-1.994-.506-4.267-1.925-6.235-3.894-1.968-1.968-3.387-4.24-3.894-6.235-.111-.439-.015-.897.264-1.255.281-.362.706-.57 1.165-.57l1.269 0c.718 0 1.365.425 1.648 1.085l.48 1.114c.246.575.228 1.224-.052 1.784l-.323.647c-.026.051-.019.115.019.164.666.855 1.677 1.859 2.705 2.684.048.038.11.046.162.02l.635-.318c.559-.278 1.209-.298 1.783-.051l1.115.479zm-1.915-1.6083c-1.657 0-3-1.343-3-3 0-1.657 1.343-3 3-3 1.657 0 3 1.343 3 3 0 1.657-1.343 3-3 3zm0-5c-.929 0-1.706.64-1.929 1.5l3.858 0c-.223-.86-1-1.5-1.929-1.5zm0 4c.929 0 1.706-.64 1.929-1.5l-3.858 0c.223.86 1 1.5 1.929 1.5z" fill-rule="evenodd"/></svg>