<?xml version="1.0" encoding="UTF-8"?>
<svg width="16px" height="16px" viewBox="0 0 16 16" version="1.1" xmlns="http://www.w3.org/2000/svg" xmlns:xlink="http://www.w3.org/1999/xlink">
    <!-- Generator: Sketch 60.1 (88133) - https://sketch.com -->
    <title>phone/call-voicemail_16</title>
    <desc>Created with Sketch.</desc>
    <g id="phone/call-voicemail_16" stroke="none" stroke-width="1" fill="none" fill-rule="evenodd">
        <path d="M12.785,10.1787 L11.467,9.5687 C10.806,9.2607 10.056,9.2847 9.411,9.6317 L8.661,10.0367 C8.576,10.0827 8.479,10.0687 8.4,9.9997 C7.179,8.9447 5.977,7.6587 5.185,6.5627 C5.105,6.4537 5.091,6.3037 5.148,6.1817 L5.53,5.3597 C5.84,4.6917 5.861,3.9147 5.587,3.2297 L5.021,1.8107 C4.703,1.0147 3.969,0.4997 3.151,0.4997 L1.651,0.4997 C1.16,0.4997 0.697,0.7277 0.382,1.1257 C0.044,1.5527 -0.078,2.1067 0.049,2.6457 C0.641,5.1577 2.306,8.0257 4.616,10.5137 C6.931,13.0057 9.602,14.8027 11.947,15.4447 C12.083,15.4817 12.221,15.4997 12.359,15.4997 C12.699,15.4997 13.034,15.3867 13.316,15.1717 C13.745,14.8447 14,14.3177 14,13.7607 L14,12.1447 C14,11.2927 13.523,10.5207 12.785,10.1787 L12.785,10.1787 Z M13,13.7607 C13,14.0077 12.892,14.2377 12.71,14.3767 C12.624,14.4427 12.444,14.5437 12.21,14.4797 C10.041,13.8857 7.54,12.1927 5.349,9.8327 C3.153,7.4687 1.576,4.7647 1.022,2.4157 C0.966,2.1767 1.019,1.9327 1.167,1.7457 C1.239,1.6547 1.399,1.4997 1.651,1.4997 L3.151,1.4997 C3.558,1.4997 3.927,1.7677 4.092,2.1817 L4.658,3.6007 C4.831,4.0317 4.817,4.5187 4.623,4.9387 L4.241,5.7607 C4.031,6.2117 4.082,6.7437 4.374,7.1487 C5.221,8.3217 6.45,9.6367 7.746,10.7567 C8.139,11.0957 8.684,11.1587 9.135,10.9167 L9.885,10.5127 C10.25,10.3157 10.673,10.3037 11.047,10.4757 L12.365,11.0857 C12.75,11.2647 13,11.6807 13,12.1447 L13,13.7607 Z M14.7446,1 L7.7626,1 C7.4346,0.983 7.1366,1.106 6.9016,1.332 C6.6396,1.585 6.4886,1.954 6.4886,2.343 L6.4886,4.809 C6.4886,5.085 6.7116,5.309 6.9886,5.309 C7.2646,5.309 7.4886,5.085 7.4886,4.809 L7.4886,2.343 C7.4886,2.226 7.5286,2.117 7.5966,2.052 C7.6476,2.002 7.6946,2 7.7446,2 L14.7446,2 C14.8826,2 14.9996,2.157 14.9996,2.343 L14.9996,7.153 C14.9996,7.339 14.8826,7.496 14.7446,7.496 L9.7476,7.496 C9.4716,7.496 9.2476,7.719 9.2476,7.996 C9.2476,8.272 9.4716,8.496 9.7476,8.496 L14.7446,8.496 C15.4366,8.496 15.9996,7.893 15.9996,7.153 L15.9996,2.343 C15.9996,1.603 15.4366,1 14.7446,1 M9.6164,3.2328 C8.8534,3.2328 8.2324,3.8528 8.2324,4.6158 C8.2324,5.3798 8.8534,5.9998 9.6164,5.9998 C9.6344,5.9998 9.6524,5.9948 9.6704,5.9948 C9.6734,5.9948 9.6754,5.9958 9.6784,5.9958 L12.9554,5.9958 C12.9684,5.9968 12.9804,5.9998 12.9934,5.9998 C13.0064,5.9998 13.0194,5.9968 13.0324,5.9958 L13.0904,5.9958 C13.1114,5.9958 13.1294,5.9868 13.1494,5.9848 C13.8394,5.9058 14.3794,5.3248 14.3794,4.6138 C14.3794,3.8498 13.7574,3.2278 12.9934,3.2278 C12.2294,3.2278 11.6074,3.8498 11.6074,4.6138 C11.6074,4.7468 11.6324,4.8738 11.6684,4.9958 L10.9404,4.9958 C10.9754,4.8748 11.0004,4.7488 11.0004,4.6158 C11.0004,3.8528 10.3794,3.2328 9.6164,3.2328 M12.6074,4.6138 C12.6074,4.4008 12.7804,4.2278 12.9934,4.2278 C13.2064,4.2278 13.3794,4.4008 13.3794,4.6138 C13.3794,4.8198 13.2164,4.9858 13.0134,4.9958 L12.9744,4.9958 C12.7714,4.9858 12.6074,4.8198 12.6074,4.6138 M9.6164,4.2328 C9.8274,4.2328 10.0004,4.4048 10.0004,4.6158 C10.0004,4.8278 9.8274,4.9998 9.6164,4.9998 C9.4044,4.9998 9.2324,4.8278 9.2324,4.6158 C9.2324,4.4048 9.4044,4.2328 9.6164,4.2328" id="fill" fill="#171B1F"></path>
    </g>
</svg>