<svg width="12" height="12" viewBox="0 0 12 12" fill="none" xmlns="http://www.w3.org/2000/svg">
<path fill-rule="evenodd" clip-rule="evenodd" d="M5.99932 7.0015C7.87807 6.9416 9.74028 7.3695 11.4044 8.2435C11.5643 8.33788 11.7004 8.46775 11.8021 8.62308C11.9039 8.77841 11.9686 8.95505 11.9912 9.13935C12.0138 9.32366 11.9937 9.51069 11.9326 9.68601C11.8714 9.86134 11.7708 10.0202 11.6384 10.1504L10.9684 10.8134C10.7654 11.0135 10.5088 11.1505 10.2296 11.2076C9.95038 11.2648 9.66059 11.2397 9.39532 11.1355L8.55332 10.8025C8.32286 10.7123 8.11501 10.5726 7.94446 10.3932C7.77392 10.2139 7.64483 9.99921 7.56632 9.7645L7.39532 9.2585C6.46164 9.17067 5.52144 9.17837 4.58932 9.2815L4.43332 9.7645C4.35465 9.99913 4.22551 10.2137 4.05498 10.393C3.88446 10.5724 3.6767 10.7122 3.44632 10.8025L2.60532 11.1344C2.33996 11.2395 2.04976 11.2651 1.77009 11.2081C1.49043 11.1512 1.23339 11.014 1.03032 10.8134L0.360324 10.1504C0.227566 10.0193 0.126875 9.85941 0.0660967 9.68301C0.00531827 9.5066 -0.0139053 9.31855 0.00992382 9.1335C0.0322797 8.94973 0.0969169 8.77364 0.198763 8.61904C0.30061 8.46445 0.436895 8.33557 0.596924 8.2425C2.26031 7.36915 4.12156 6.9416 5.99932 7.0015ZM5.99932 8.0025C7.69909 7.94936 9.3845 8.32889 10.8974 9.1055C10.925 9.12133 10.9484 9.14344 10.9657 9.17002C10.9831 9.19661 10.994 9.22692 10.9974 9.2585C11.002 9.29141 10.9987 9.32494 10.988 9.35638C10.9772 9.38782 10.9592 9.41629 10.9354 9.4395L10.2654 10.1025C10.2001 10.1662 10.1178 10.2097 10.0285 10.228C9.93912 10.2462 9.84639 10.2385 9.76132 10.2055L8.92132 9.8735C8.82637 9.83597 8.74071 9.77826 8.67026 9.70436C8.59981 9.63046 8.54627 9.54213 8.51332 9.4455L8.34232 8.9385C8.28178 8.763 8.17321 8.60802 8.02896 8.49117C7.88471 8.37431 7.71056 8.30028 7.52632 8.2775C7.05869 8.2226 6.58816 8.19622 6.11732 8.1985C5.57113 8.19897 5.02535 8.22868 4.48232 8.2875C4.29542 8.30735 4.11808 8.38021 3.9712 8.4975C3.82433 8.61479 3.71404 8.77161 3.65332 8.9495L3.48532 9.4465C3.45241 9.54287 3.39897 9.63096 3.3287 9.70468C3.25844 9.7784 3.17301 9.836 3.07832 9.8735L2.23932 10.2045C2.15428 10.2381 2.06135 10.2463 1.97175 10.2282C1.88215 10.2101 1.79969 10.1664 1.73432 10.1025L1.06432 9.4395C1.0405 9.41629 1.0224 9.38785 1.01146 9.35643C1.00053 9.32502 0.997057 9.29149 1.00132 9.2585C1.00513 9.22665 1.01633 9.19613 1.03405 9.16939C1.05176 9.14265 1.07548 9.12042 1.10332 9.1045C2.61562 8.32835 4.30032 7.94915 5.99932 8.0025ZM6.191 1.0375C6.252 1.0625 6.308 1.0995 6.354 1.1465L8.353 3.1455C8.549 3.3415 8.549 3.6575 8.353 3.8525C8.158 4.0485 7.842 4.0485 7.646 3.8525L6.5 2.7065V5.4995C6.5 5.7755 6.276 5.9995 6 5.9995C5.724 5.9995 5.5 5.7755 5.5 5.4995V2.7065L4.353 3.8525C4.158 4.0485 3.842 4.0485 3.646 3.8525C3.549 3.7555 3.5 3.6275 3.5 3.4995C3.5 3.3715 3.549 3.2435 3.646 3.1455L5.646 1.1465C5.692 1.0995 5.747 1.0625 5.809 1.0375C5.931 0.9875 6.069 0.9875 6.191 1.0375Z" fill="#121212"/>
</svg>
