<svg width="16" height="16" viewBox="0 0 16 16" xmlns="http://www.w3.org/2000/svg"><title>phone/call-swap_16</title><path d="M15.8525 2.1364l-2-1.991c-.194-.194-.511-.194-.705 0l-2 1.991c-.196.195-.197.512-.002.707.194.195.512.197.707.002l1.147-1.142 0 11.047c0 1.24-1.009 2.25-2.25 2.25-1.24 0-2.25-1.01-2.25-2.25l0-9.5c0-1.792-1.458-3.25-3.25-3.25-1.792 0-3.25 1.458-3.25 3.25l0 11.037-1.147-1.142c-.194-.195-.512-.193-.707.002-.195.196-.194.512.002.707l1.998 1.99.001 0 .001.001c.003.003.007.003.01.006.044.042.094.077.152.101.061.025.126.038.19.038.065 0 .13-.013.191-.038.058-.024.108-.059.152-.101.003-.003.007-.003.01-.006l0-.001.001 0 1.999-1.99c.196-.195.197-.511.002-.707-.195-.196-.512-.197-.707-.002l-1.148 1.142 0-11.037c0-1.241 1.01-2.25 2.25-2.25 1.241 0 2.25 1.009 2.25 2.25l0 9.5c0 1.792 1.458 3.25 3.25 3.25 1.792 0 3.25-1.458 3.25-3.25l0-11.047 1.148 1.142c.097.097.225.145.352.145.129 0 .257-.049.355-.147.195-.195.194-.512-.002-.707" fill="#000" fill-rule="evenodd"/></svg>