<svg width="24" height="24" xmlns="http://www.w3.org/2000/svg"><path d="M5.19 0c1.282 0 2.438.761 2.945 1.939l1.002 2.332a3.87 3.87 0 01-.094 3.269l-.676 1.352a.861.861 0 00.097.921c1.438 1.848 3.532 3.928 5.746 5.705a.861.861 0 00.923.103l1.328-.664a3.877 3.877 0 013.27-.094l2.33 1.002a3.203 3.203 0 011.94 2.945v2.654c0 .789-.358 1.52-.98 2.004a2.493 2.493 0 01-2.159.454c-4.078-1.036-8.738-3.951-12.785-7.998C4.03 11.876 1.113 7.216.078 3.138A2.49 2.49 0 01.532.981 2.524 2.524 0 012.536 0H5.19zm0 1H2.536a1.53 1.53 0 00-1.215.595 1.498 1.498 0 00-.274 1.297C2.04 6.8 4.86 11.293 8.784 15.217c3.923 3.924 8.415 6.743 12.324 7.736.454.116.926.015 1.297-.274.378-.294.595-.736.595-1.215V18.81c0-.882-.524-1.677-1.334-2.026l-2.33-1.002a2.878 2.878 0 00-2.428.07l-1.327.664a1.871 1.871 0 01-1.997-.218c-2.272-1.824-4.425-3.964-5.909-5.871a1.88 1.88 0 01-.203-1.983l.676-1.352c.381-.76.407-1.645.07-2.426L7.216 2.334A2.205 2.205 0 005.19 1zM18.5 0a.5.5 0 01.492.41L19 .5V5h4.5a.5.5 0 01.09.992L23.5 6H19v4.5a.5.5 0 01-.992.09L18 10.5V6h-4.5a.5.5 0 01-.09-.992L13.5 5H18V.5a.5.5 0 01.5-.5z" fill="#171B1F" fill-rule="nonzero"/></svg>