<svg width="16" height="16" viewBox="0 0 16 16" xmlns="http://www.w3.org/2000/svg"><title>phone/call-merge_16</title><path d="M7.461 7.80935c.051.122.051.26 0 .382-.025.061-.062.117-.108.163l-3.5 3.499c-.098.098-.225.147-.353.147-.128 0-.256-.049-.354-.147-.195-.195-.195-.511 0-.707l2.647-2.646-5.293 0c-.277 0-.5-.224-.5-.5 0-.276.223-.5.5-.5l5.293 0-2.647-2.647c-.195-.195-.195-.511 0-.707.195-.195.512-.195.707 0l3.5 3.5c.046.046.083.101.108.163zm8.0386-.3091c.276 0 .5.224.5.5 0 .276-.224.5-.5.5l-5.293 0 2.647 2.646c.195.196.195.512 0 .708-.098.097-.226.146-.354.146-.128 0-.256-.049-.354-.146l-3.499-3.5c-.046-.046-.083-.102-.108-.163-.051-.122-.051-.26 0-.382.025-.061.062-.117.108-.163l3.499-3.5c.196-.195.512-.195.708 0 .195.196.195.512 0 .708l-2.647 2.646 5.293 0z" fill="#000" fill-rule="evenodd"/></svg>