<svg width="12" height="12" viewBox="0 0 12 12" xmlns="http://www.w3.org/2000/svg"><title>activities/camera_12</title><path d="M1.4998 9.00003c-.276 0-.5-.225-.5-.5l0-6c0-.276.224-.5.5-.5l6.002 0c.276 0 .5.224.5.5l0 6c0 .275-.224.5-.5.5l-6.002 0zm6.002-8l-6.002 0c-.827 0-1.5.673-1.5 1.5l0 6c0 .827.673 1.5 1.5 1.5l6.002 0c.827 0 1.5-.673 1.5-1.5l0-1.321 1.577 1.576c.159.16.371.244.588.244.107 0 .216-.02.319-.063.313-.13.515-.433.515-.771l0-5.333c0-.338-.201-.64-.514-.769-.104-.043-.212-.064-.32-.064-.216 0-.429.084-.588.244l-1.577 1.576 0-1.319c0-.827-.673-1.5-1.5-1.5zm3.499 2.234l0 4.53-1.292-1.292-.707-.708 0-.53.707-.707 1.292-1.293z" fill="#000" fill-rule="evenodd"/></svg>