<?xml version="1.0" encoding="UTF-8"?>
<svg width="12px" height="12px" viewBox="0 0 12 12" version="1.1" xmlns="http://www.w3.org/2000/svg" xmlns:xlink="http://www.w3.org/1999/xlink">
    <!-- Generator: Sketch 57.1 (83088) - https://sketch.com -->
    <title>camera-photo_12</title>
    <desc>Created with Sketch.</desc>
    <g id="Icons-Webex" stroke="none" stroke-width="1" fill="none" fill-rule="evenodd">
        <g id="video/camera-photo_12" fill="#000000">
            <g transform="translate(0.000000, 1.000000)" id="Combined-Shape">
                <path d="M7.583,0.0004 C7.981,0.0004 8.37,0.1624 8.649,0.4454 L9.694,1.5024 L10.5,1.5024 C11.327,1.5024 12,2.1754 12,3.0024 L12,8.5144 C12,9.3414 11.327,10.0144 10.5,10.0144 L1.5,10.0144 C0.673,10.0144 0,9.3414 0,8.5144 L0,3.0024 C0,2.1754 0.673,1.5024 1.5,1.5024 L2.292,1.5024 L3.353,0.4404 C3.632,0.1604 4.019,0.0004 4.415,0.0004 L7.583,0.0004 Z M7.583,1.0004 L4.415,1.0004 C4.283,1.0004 4.154,1.0534 4.061,1.1464 L2.854,2.3554 C2.76,2.4494 2.633,2.5024 2.5,2.5024 L1.5,2.5024 C1.224,2.5024 1,2.7264 1,3.0024 L1,8.5144 C1,8.7904 1.224,9.0144 1.5,9.0144 L10.5,9.0144 C10.776,9.0144 11,8.7904 11,8.5144 L11,3.0024 C11,2.7264 10.776,2.5024 10.5,2.5024 L9.485,2.5024 C9.352,2.5024 9.224,2.4484 9.13,2.3544 L7.938,1.1484 C7.845,1.0544 7.715,1.0004 7.583,1.0004 Z M6,3.0073 C7.378,3.0073 8.5,4.1293 8.5,5.5073 C8.5,6.8853 7.378,8.0073 6,8.0073 C4.622,8.0073 3.5,6.8853 3.5,5.5073 C3.5,4.1293 4.622,3.0073 6,3.0073 Z M6,4.0073 C5.173,4.0073 4.5,4.6803 4.5,5.5073 C4.5,6.3343 5.173,7.0073 6,7.0073 C6.827,7.0073 7.5,6.3343 7.5,5.5073 C7.5,4.6803 6.827,4.0073 6,4.0073 Z"></path>
            </g>
        </g>
    </g>
</svg>