<svg width="14" height="14" viewBox="0 0 14 14" xmlns="http://www.w3.org/2000/svg"><title>activities/camera_14</title><path d="M13.0034 8.9976l-1.993-1.997 1.993-1.997 0 3.994zm-3.003 1.505c0 .274-.224.497-.497.497l-7.006 0c-.274 0-.497-.223-.497-.497l0-7.005c0-.274.223-.498.497-.498l7.006 0c.273 0 .497.224.497.498l0 7.005zm3.453-6.435c-.333-.137-.712-.062-.961.19l-1.492 1.475 0-2.235c0-.826-.671-1.498-1.497-1.498l-7.006 0c-.826 0-1.497.671-1.497 1.498l0 7.005c0 .826.67 1.497 1.497 1.497l7.006 0c.825 0 1.497-.67 1.497-1.497l0-2.234 1.489 1.472c.17.17.395.259.625.259.114 0 .23-.022.339-.067.332-.138.547-.46.547-.82l0-4.224c0-.36-.215-.682-.547-.821z" fill="#000" fill-rule="evenodd"/></svg>