<?xml version="1.0" encoding="UTF-8"?>
<svg width="10px" height="10px" viewBox="0 0 10 10" version="1.1" xmlns="http://www.w3.org/2000/svg" xmlns:xlink="http://www.w3.org/1999/xlink">
    <!-- Generator: Sketch 60.1 (88133) - https://sketch.com -->
    <title>activities/camera-presence-stroke_10</title>
    <desc>Created with Sketch.</desc>
    <g id="activities/camera-presence-stroke_10" stroke="none" stroke-width="1" fill="none" fill-rule="evenodd">
        <path d="M6.5057,0.9999 L1.7797,0.9999 C0.785279601,0.9999 -0.0003,1.82514128 -0.0003,2.8189 L-0.0003,7.1809 C-0.0003,8.17465872 0.785279601,8.9999 1.7797,8.9999 L6.5057,8.9999 L6.65322466,8.99379278 C7.38229552,8.93313104 7.97767264,8.42674144 8.19604436,7.75167935 L8.209,7.704 L8.23964676,7.71727703 C9.0230805,8.00560006 9.9997,7.50865192 9.9997,6.5429 L9.9997,3.4579 L9.99375968,3.32927981 C9.91136305,2.44956595 8.98799002,2.00747009 8.23954549,2.28275576 L8.209,2.294 L8.19604436,2.24812065 C7.96311453,1.52805442 7.30123632,0.9999 6.5057,0.9999 Z M6.5057,1.9999 C6.90354615,1.9999 7.23152249,2.31261006 7.27962626,2.71622954 L7.2857,2.8189 L7.2857,4.3199 L8.4927,3.2759 C8.661,3.1301 8.93703,3.20867 8.990553,3.392783 L8.9997,3.4579 L8.9997,6.5429 C8.9997,6.749 8.7405,6.86195 8.552337,6.764381 L8.4927,6.7239 L7.2857,5.6799 L7.2857,7.1809 C7.2857,7.59813077 6.98832722,7.9429355 6.60358439,7.99351356 L6.5057,7.9999 L1.7797,7.9999 C1.38185385,7.9999 1.05387751,7.68718994 1.00577374,7.28357046 L0.9997,7.1809 L0.9997,2.8189 C0.9997,2.40166923 1.29707278,2.0568645 1.68181561,2.00628644 L1.7797,1.9999 L6.5057,1.9999 Z" id="fill" fill="#171B1F"></path>
    </g>
</svg>