<svg width="48" height="48" xmlns="http://www.w3.org/2000/svg"><path d="M46 32.588a.916.916 0 01-.569.87.84.84 0 01-.945-.205L36 24.508v-1.016l8.486-8.744a.84.84 0 01.945-.205.915.915 0 01.569.869v17.176zm-11 2.64A3.776 3.776 0 0131.228 39H5.772A3.776 3.776 0 012 35.228V12.773A3.776 3.776 0 015.772 9h25.456A3.776 3.776 0 0135 12.773v22.455zm10.806-21.612a1.834 1.834 0 00-2.036.435L36 22.057v-9.284A4.778 4.778 0 0031.228 8H5.772A4.778 4.778 0 001 12.773v22.455A4.778 4.778 0 005.772 40h25.456A4.778 4.778 0 0036 35.228v-9.285l7.77 8.006c.365.377.839.576 1.33.576a1.923 1.923 0 001.9-1.937V15.412c0-.797-.469-1.502-1.194-1.796z" fill="#171B1F" fill-rule="evenodd"/></svg>