<svg width="24" height="24" viewBox="0 0 24 24" xmlns="http://www.w3.org/2000/svg"><title>video/camera-swap_24</title><path d="M17 12c0 2.762-2.239 5-5 5-2.761 0-5-2.238-5-5 0-2.762 2.239-5 5-5 2.761 0 5 2.238 5 5zm-9 0c0 2.206 1.794 4 4 4 2.206 0 4-1.794 4-4 0-2.206-1.794-4-4-4-2.206 0-4 1.794-4 4zm15.8538-2.8542c.195.195.195.512 0 .708l-1.997 1.997c-.001.001-.001.003-.003.004-.097.096-.225.145-.354.145-.128 0-.257-.049-.354-.145-.001-.001-.001-.003-.002-.004l-1.998-1.997c-.195-.196-.195-.513 0-.708.195-.195.513-.195.707 0l1.147 1.147 0-5.793c0-.827-.673-1.5-1.5-1.5l-15 0c-.827 0-1.5.673-1.5 1.5l0 5c0 .276-.225.5-.5.5-.275 0-.5-.224-.5-.5l0-5c0-1.381 1.119-2.5 2.5-2.5l15 0c1.381 0 2.5 1.119 2.5 2.5l0 5.793 1.147-1.147c.195-.195.513-.195.707 0zM21.5 14c.275 0 .5.225.5.5l0 5c0 1.381-1.119 2.5-2.5 2.5l-15 0C3.119 22 2 20.881 2 19.5l0-5.793-1.147 1.147c-.194.195-.513.195-.707 0-.195-.194-.195-.512 0-.707l1.998-1.998c.001-.001.001-.003.002-.003.097-.097.226-.146.354-.146.128 0 .257.049.354.146.001 0 .001.002.002.003l1.998 1.998c.195.195.195.513 0 .707-.194.195-.513.195-.707 0L3 13.707 3 19.5c0 .827.673 1.5 1.5 1.5l15 0c.827 0 1.5-.673 1.5-1.5l0-5c0-.275.225-.5.5-.5z" fill="#000" fill-rule="evenodd"/></svg>