<svg width="32" height="32" viewBox="0 0 32 32" xmlns="http://www.w3.org/2000/svg"><title>video/camera-photo_32</title><path d="M29 6c1.657 0 3 1.343 3 3l0 18c0 1.657-1.343 3-3 3L3 30c-1.657 0-3-1.343-3-3L0 9c0-1.657 1.343-3 3-3l2 .007 1.153 0c.401 0 .777-.156 1.061-.439l2.504-2.505c.674-.674 1.576-1.06 2.475-1.06l7.514 0c.924-.044 1.842.364 2.503 1.025l2.539 2.54c.28.279.666.439 1.061.439l1.19 0L29 6zm2 21l0-18c0-1.103-.897-2-2-2l-3.19.007c-.667 0-1.295-.26-1.768-.732l-2.539-2.54c-.472-.472-1.13-.747-1.791-.732l-7.519 0c-.636 0-1.28.28-1.768.767L7.921 6.275c-.472.472-1.1.732-1.768.732L3 7c-1.103 0-2 .897-2 2l0 18c0 1.103.897 2 2 2l26 0c1.103 0 2-.897 2-2zm-4-15c-.5522847 0-1-.44771525-1-1 0-.55228475.4477153-1 1-1 .5522847 0 1 .44771525 1 1 0 .55228475-.4477153 1-1 1zm-11.0174-.9371c3.85 0 6.981 3.132 6.981 6.982 0 3.849-3.131 6.981-6.981 6.981-3.85 0-6.981-3.132-6.981-6.981 0-3.85 3.131-6.982 6.981-6.982zm0 12.963c3.298 0 5.981-2.684 5.981-5.981 0-3.298-2.683-5.982-5.981-5.982-3.298 0-5.981 2.684-5.981 5.982 0 3.297 2.683 5.981 5.981 5.981z" fill="#000" fill-rule="evenodd"/></svg>