<svg width="16" height="16" viewBox="0 0 16 16" xmlns="http://www.w3.org/2000/svg"><title>video/camera-muted_16</title><path d="M12.0259 8l2.974-2.997.016 5.987-2.99-2.99zm-2.035 5l-7.284 0 8.293-8.293 0 7.284c0 .556-.453 1.009-1.009 1.009zm-8.991-1.009l0-7.982c0-.556.453-1.009 1.009-1.009l7.982 0c.354 0 .651.194.831.471l-9.351 9.351c-.277-.18-.471-.477-.471-.831zm14.388-7.903c-.372-.152-.795-.068-1.079.215l-2.309 2.309 0-2.603c0-.094-.015-.184-.028-.275l.877-.877c.196-.195.196-.511 0-.707-.195-.195-.511-.195-.707 0l-.598.599c-.369-.453-.924-.749-1.553-.749l-7.982 0c-1.107 0-2.009.899-2.009 2.009l0 7.982c0 .628.296 1.184.749 1.553l-.602.602c-.196.196-.196.512 0 .708.097.097.225.146.353.146.128 0 .256-.049.354-.146l.881-.881c.09.011.18.027.274.027l7.982 0c1.107 0 2.009-.899 2.009-2.009l0-2.603 2.309 2.309c.19.191.443.29.699.29.128 0 .258-.024.381-.076.371-.153.611-.513.611-.914l0-5.994c0-.402-.24-.762-.612-.915z" fill="#000" fill-rule="evenodd"/></svg>