<svg width="20" height="20" viewBox="0 0 20 20" xmlns="http://www.w3.org/2000/svg"><title>activities/camera_20</title><path d="M19.004 13.855c0 .081-.047.117-.087.134-.049.022-.1.012-.141-.03L15 10.127l0-.255 3.776-3.831c.041-.042.091-.054.141-.031.04.017.087.053.087.134l0 7.711zM14 14.497c0 .826-.677 1.503-1.494 1.503L2.493 16C1.67 16 1 15.327 1 14.497l0-8.994C1 4.677 1.676 4 2.493 4l10.013 0C13.33 4 14 4.673 14 5.503l0 8.994zm5.296-9.412c-.425-.175-.906-.077-1.228.252L15 8.451l0-2.948C15 4.122 13.883 3 12.506 3L2.493 3C1.127 3 0 4.121 0 5.503l0 8.994C0 15.878 1.116 17 2.493 17l10.013 0C13.872 17 15 15.879 15 14.497l0-2.949 3.068 3.114c.216.22.505.337.799.337.145 0 .289-.028.429-.085.428-.176.704-.592.704-1.059l0-7.711c0-.467-.276-.883-.704-1.059z" fill="#000" fill-rule="evenodd"/></svg>