<svg width="16" height="16" viewBox="0 0 16 16" xmlns="http://www.w3.org/2000/svg"><title>video/camera-photo-swap_16</title><path d="M12 7.501c0 .275-.225.5-.5.5l-7 0c-.275 0-.5-.225-.5-.5l0-5c0-.276.225-.5.5-.5l1 0c.266 0 .52-.105.707-.294L6.914 1l2.172 0 .707.707c.187.189.441.294.707.294l1 0c.275 0 .5.224.5.5l0 5zm1.881-2.156C15.256 6.421 16 7.802 16 9.251 16 12.421 12.411 15 8 15c-.169 0-.338-.003-.504-.01-.275-.012-.49-.245-.478-.521.011-.276.194-.495.521-.479.152.007.306.01.461.01 3.859 0 7-2.131 7-4.749 0-1.135-.608-2.236-1.712-3.102-.093-.063-.19-.127-.288-.188l0 1.54c0 .828-.672 1.5-1.5 1.5l-7 0c-.828 0-1.5-.672-1.5-1.5l0-1.56C1.723 6.827 1 8 1 9.251c0 1.508 1.146 2.967 3 3.872l0-1.622c0-.275.225-.5.5-.5.275 0 .5.225.5.5l0 3c0 .274-.225.5-.5.5l-3 0c-.275 0-.5-.226-.5-.5 0-.275.225-.5.5-.5l2.025 0C1.348 12.924 0 11.136 0 9.251c0-1.774 1.096-3.393 3-4.485l0-2.265c0-.829.672-1.5 1.5-1.5l1 0 .707-.708C6.395.105 6.649 0 6.914 0l2.172 0c.265 0 .519.105.707.293l.707.708 1 0c.828 0 1.5.671 1.5 1.5l0 2.312c.351.174.738.433.881.532zM8 6c-.552 0-1-.448-1-1 0-.552.448-1 1-1 .552 0 1 .448 1 1 0 .552-.448 1-1 1zm0-3c-1.104 0-2 .896-2 2 0 1.104.896 2 2 2 1.104 0 2-.896 2-2 0-1.104-.896-2-2-2z" fill="#000" fill-rule="evenodd"/></svg>