<svg width="18" height="18" viewBox="0 0 18 18" xmlns="http://www.w3.org/2000/svg"><title>common-actions/cancel_18</title><path d="M9.707 9l6.146-6.146c.196-.196.196-.512 0-.708-.195-.195-.511-.195-.707 0L9 8.293 2.853 2.146c-.195-.195-.511-.195-.707 0-.195.196-.195.512 0 .708L8.293 9l-6.147 6.146c-.195.196-.195.512 0 .708.098.097.226.146.354.146.128 0 .256-.049.353-.146L9 9.707l6.146 6.147c.098.097.226.146.354.146.128 0 .256-.049.353-.146.196-.196.196-.512 0-.708L9.707 9z" fill="#000" fill-rule="evenodd"/></svg>