<svg width="12" height="12" viewBox="0 0 12 12" xmlns="http://www.w3.org/2000/svg"><title>common-actions/cancel_12</title><path d="M6.707 6l3.146-3.146c.196-.196.196-.512 0-.708-.195-.195-.511-.195-.707 0L6 5.293 2.853 2.146c-.195-.195-.511-.195-.707 0-.195.196-.195.512 0 .708L5.293 6 2.146 9.146c-.195.196-.195.512 0 .708.098.097.226.146.354.146.128 0 .256-.049.353-.146L6 6.707l3.146 3.147c.098.097.226.146.354.146.128 0 .256-.049.353-.146.196-.196.196-.512 0-.708L6.707 6z" fill="#000" fill-rule="evenodd"/></svg>