<svg width="20" height="20" viewBox="0 0 20 20" xmlns="http://www.w3.org/2000/svg"><title>common-actions/cancel_20</title><path d="M10.70725 10.00025l7.146-7.146c.196-.196.196-.512 0-.708-.195-.195-.511-.195-.707 0l-7.146 7.147-7.147-7.147c-.195-.195-.511-.195-.707 0-.195.196-.195.512 0 .708l7.147 7.146-7.147 7.146c-.195.196-.195.512 0 .708.098.097.226.146.354.146.128 0 .256-.049.353-.146l7.147-7.147 7.146 7.147c.098.097.226.146.354.146.128 0 .256-.049.353-.146.196-.196.196-.512 0-.708l-7.146-7.146z" fill="#000" fill-rule="evenodd"/></svg>