<svg width="12" height="12" viewBox="0 0 12 12" xmlns="http://www.w3.org/2000/svg"><title>content/capture-rewind_12</title><path d="M6 0c3.309 0 6 2.691 6 6 0 3.309-2.691 6-6 6-.548 0-1.089-.073-1.609-.219-.267-.074-.422-.349-.348-.615.074-.267.348-.422.615-.348.434.12.885.182 1.342.182 2.757 0 5-2.243 5-5 0-2.757-2.243-5-5-5-2.757 0-5 2.243-5 5 0 1.089.357 2.139 1 2.996L2 8.5c0-.275.225-.5.5-.5.275 0 .5.225.5.5l0 2c0 .275-.225.5-.5.5l-2 0c-.275 0-.5-.225-.5-.5 0-.275.225-.5.5-.5l1.031 0C.553 8.905 0 7.483 0 6c0-3.309 2.691-6 6-6zm0 3.001c.276 0 .5.224.5.5l0 3.042 1.344 1.344c.195.195.195.511 0 .707-.098.097-.226.146-.354.146-.128 0-.256-.049-.353-.146L5.793 7.25c-.189-.188-.293-.44-.293-.707l0-3.042c0-.276.224-.5.5-.5z" fill="#000" fill-rule="evenodd"/></svg>