<svg width="24" height="24" viewBox="0 0 24 24" xmlns="http://www.w3.org/2000/svg"><title>alerts-and-notifications/certified_24</title><path d="M21.1064 13.7924253c-.333.3039873-.46.7769676-.324 1.2069497l.757 2.3739011c.018.0579976-.001.1039957-.014.1259948-.013.021999-.044.0629973-.102.0749968l-2.436.5309779c-.44.0979959-.786.4449815-.881.8839632l-.531 2.4338986c-.013.0579976-.052.0889963-.075.1009958-.022.0129994-.07.0329986-.126.0139994l-2.374-.7549686c-.431-.1349943-.903-.0109995-1.206.3219866l-1.681 1.8429232c-.081.0899963-.151.0879964-.231 0l-1.677-1.8409233c-.222-.2449898-.536-.3779842-.856-.3779842-.118 0-.235.0169993-.35.0539977l-2.373.7549686c-.057.0189992-.104-.001-.126-.0139994-.023-.0119995-.062-.0429982-.075-.1009958l-.532-2.4348986c-.097-.4389817-.444-.7859672-.883-.8819632l-2.434-.5319779c-.059-.0119995-.09-.0529978-.103-.0749968-.013-.0219991-.032-.0679972-.013-.1259948l.755-2.374901c.136-.4289822.009-.9009625-.323-1.2059498l-1.841-1.6759302c-.045-.0409982-.051-.0909962-.051-.1159951 0-.024999.006-.0749969.051-.1159952l1.841-1.67893c.332-.30398737.459-.7759677.323-1.20494983l-.755-2.37390108c-.019-.05799759 0-.10399567.013-.12599475.013-.02199909.044-.06199742.102-.07499688l2.434-.53197783c.441-.095996.787-.44298155.883-.88296321l.533-2.43489855c.013-.05799758.052-.08899629.075-.10099579.022-.01299946.067-.03499854.126-.01399942l2.374.7559685c.429.13499438.901.00899963 1.205-.32298654l1.677-1.84192325c.081-.089996252.152-.088996293.232-.00099996l1.68 1.84292321c.303.33198617.775.45998084 1.206.32298654l2.374-.7559685c.056-.01999916.104.00099996.126.01399942.023.0119995.062.04299821.075.10099579l.531 2.43489855c.096.43998166.442.78696721.882.88296321l2.434.53197783c.059.01299946.09.05299779.103.07499688.013.02199908.032.06799716.013.12599475l-.755 2.37290113c-.137.42898212-.011.90196241.323 1.20694968l1.842 1.6779301c.045.0409983.052.0899963.052.1159952 0 .0249989-.007.0749969-.052.1149952l-1.842 1.6769301zm2.516-.9369609l-1.843 1.6769301c-.045.0409983-.063.1059956-.044.1639932l.757 2.373901c.098.3089872.061.647973-.101.9279614-.162.2819882-.437.4829798-.754.5529769l-2.435.5309779c-.059.0139994-.106.0609975-.119.119995l-.532 2.4338986c-.069.3169868-.27.5919753-.55.7549685-.282.1629932-.62.1989917-.93.0999959l-2.375-.7549686c-.058-.0159993-.122-.0009999-.164.0429982l-1.679 1.8429232c-.218.2389901-.53.3779843-.854.3779843l-.001 0c-.325 0-.636-.1379943-.855-.3779843l-1.678-1.8419232c-.041-.0459981-.103-.0609975-.162-.0439982l-2.374.7549686c-.31.0989958-.648.0629973-.93-.0999959-.281-.1629932-.482-.4379817-.551-.7549685l-.532-2.4338986c-.013-.0579976-.06-.1049956-.12-.118995l-2.435-.5319779c-.317-.0699971-.592-.2709887-.754-.551977-.162-.2809883-.199-.6199741-.101-.9289613l.756-2.374901c.018-.0579976.001-.1219949-.044-.1639932l-1.841-1.6759301c-.24-.2189909-.377-.5309779-.377-.8549644 0-.3239865.137-.6359735.377-.8539644l1.841-1.67893008c.045-.04199825.062-.10599559.044-.16399317l-.756-2.37390109c-.098-.30898712-.061-.647973.101-.92896129.162-.28098829.437-.48197992.754-.551977l2.435-.53197784c.06-.01299945.106-.0599975.12-.11899504l.532-2.43489854c.069-.3169868.27-.59097538.551-.75496855.282-.16199325.62-.19699179.93-.09999583l2.373.7559685c.058.01799925.122.00199992.164-.04399817l1.677-1.841923249C11.3624.13799425 11.6734 0 11.9984 0l.001 0c.324 0 .635.13799425.854.376984292l1.68 1.842923208c.041.04499813.106.06199742.164.04399817l2.373-.7559685c.311-.09699596.649-.06199742.931.09999583.28.16399317.481.43798175.55.75496855l.532 2.43489854c.013.05899754.06.10599559.119.11899504l2.435.53197784c.318.06999708.593.27198866.755.55297696.161.28098829.198.61997416.099.92896129l-.756 2.37290113c-.019.05799758-.001.12299487.044.16399317l1.843 1.67793008c0 0 0 .001 0 .001.24.2169909.378.5289779.378.8539644 0 .3239865-.138.6359735-.378.8549644zM16.146 8.14616058L10 14.3069039l-3.146-3.1598684c-.194-.1969918-.512-.1969918-.707-.0019999-.195.1949919-.196.5119787-.001.7069706l3.5 3.5158535c.093.0939961.221.1469938.354.1469938.133 0 .26-.0529977.354-.1459939l6.5-6.51572848c.195-.19599183.195-.51297863-.001-.70697054-.195-.19499188-.512-.19499188-.707 0z" fill="#000" fill-rule="evenodd"/></svg>