<svg width="14" height="14" viewBox="0 0 14 14" xmlns="http://www.w3.org/2000/svg"><title>chat/ch-p-search_14</title><path d="M13.5 2c.275 0 .5.225.5.5 0 .275-.225.5-.5.5L12 3l0 1.5c0 .275-.225.5-.5.5-.275 0-.5-.225-.5-.5L11 3 9.5 3c-.275 0-.5-.225-.5-.5 0-.275.225-.5.5-.5L11 2l0-1.5c0-.275.225-.5.5-.5.275 0 .5.225.5.5L12 2l1.5 0zM8.002 9.295l3.852 3.851c.195.196.195.512 0 .708-.098.097-.226.146-.354.146-.128 0-.256-.049-.354-.146l-3.851-3.852c-.77.615-1.733.998-2.795.998C2.015 11 0 8.985 0 6.5 0 4.015 2.015 2 4.5 2 6.985 2 9 4.015 9 6.5c0 1.062-.383 2.025-.998 2.795zM4.5 10C6.43 10 8 8.43 8 6.5 8 4.57 6.43 3 4.5 3 2.57 3 1 4.57 1 6.5 1 8.43 2.57 10 4.5 10z" fill-rule="evenodd"/></svg>