<svg width="12" height="12" viewBox="0 0 12 12" xmlns="http://www.w3.org/2000/svg"><title>activities/chat_12</title><path d="M3.2557 10.2617c.087 0 .173.023.25.067.76.439 1.623.671 2.494.671 2.757 0 5-2.243 5-5 0-2.757-2.243-5-5-5-2.757 0-5 2.243-5 5 0 .872.233 1.734.672 2.494.066.115.084.252.05.38l-.515 1.919 1.92-.514c.042-.011.086-.017.129-.017m-2.756 1.738c-.13 0-.258-.051-.353-.146-.127-.127-.176-.311-.13-.483l.687-2.561c-.461-.866-.704-1.833-.704-2.81 0-3.308 2.692-6 6-6 3.309 0 6 2.692 6 6 0 3.309-2.691 6-6 6-.976 0-1.943-.242-2.81-.703l-2.56.686c-.043.012-.086.017-.13.017" fill="#000" fill-rule="evenodd"/></svg>