<svg width="16" height="16" viewBox="0 0 16 16" xmlns="http://www.w3.org/2000/svg"><title>activities/chat_16</title><path d="M.0005309287 7.99973454C.0005309287 3.58173877 3.5822697 0 8.00026546 0 12.4182612 0 16 3.58173877 16 7.99973454c0 4.41799576-3.5817388 7.99973456-7.99973454 7.99973456-1.34626116 0-2.64496283-.3379304-3.80896813-.9713493l-3.561372137.9543112c-.371776528.0996219-.7119780986-.2405797-.6123562348-.6123562l.9543126028-3.5613771C.338627481 10.6449048.0005309287 9.34536678.0005309287 7.99973454zM4.12897878 14.0095737c.12817357-.0343456.26474311-.0163308.37962642.0500764 1.05978191.6125962 2.25211524.9398522 3.49166026.9398522 3.86572934 0 6.99976774-3.1340384 6.99976774-6.99976776 0-3.86572935-3.1340384-6.999767723-6.99976774-6.999767723-3.86572934 0-6.99976771 3.134038373-6.99976771 6.999767723 0 1.23891983.32745838 2.43222856.93985218 3.49166026.06640714.1148833.08442198.2514529.05007637.3796264l-.78281437 2.9213669 2.92136685-.7828144z" fill-rule="nonzero" fill="#000"/></svg>