<svg width="16" height="16" viewBox="0 0 16 16" xmlns="http://www.w3.org/2000/svg"><title>chat/chat-group_16</title><path d="M14.3457 13.124l.447 1.669-1.669-.447c-.127-.035-.265-.017-.38.05-.683.395-1.459.604-2.244.604-1.064 0-2.068-.369-2.866-1.032 3.355-.303 6.031-2.98 6.334-6.334.663.799 1.032 1.802 1.032 2.866 0 .785-.209 1.561-.604 2.244-.067.115-.084.252-.05.38zm-10.589-.997c-.043 0-.087.006-.129.018l-2.421.648.649-2.42c.034-.128.016-.265-.05-.38C1.2787 9.081.9997 8.046.9997 7c0-3.309 2.692-6 6-6 3.309 0 6 2.691 6 6 0 3.309-2.691 6-6 6-1.046 0-2.081-.278-2.993-.806-.077-.044-.163-.067-.25-.067zm11.607.933c.417-.789.636-1.67.636-2.56 0-1.673-.746-3.223-2.045-4.274C13.5687 2.729 10.5977 0 6.9997 0c-3.86 0-7 3.14-7 7 0 1.151.289 2.291.837 3.31l-.82 3.061c-.046.172.003.356.13.482.095.096.222.147.353.147.043 0 .087-.005.13-.017l3.061-.82c.788.424 1.65.689 2.533.789 1.05 1.3 2.601 2.048 4.276 2.048.89 0 1.771-.219 2.56-.636l2.311.619c.043.012.086.017.129.017.131 0 .259-.051.354-.147.126-.126.176-.31.129-.482l-.619-2.311z" fill="#000" fill-rule="evenodd"/></svg>