<svg width="16" height="16" viewBox="0 0 16 16" xmlns="http://www.w3.org/2000/svg"><title>chat/chat-persistent_16</title><path d="M10.0165681 6.371l.2849704-1.063C10.103559 4.9 9.99956982 4.453 9.99956982 4c0-1.654 1.34586048-3 2.99968898-3 1.6538285 0 2.9996889 1.346 2.9996889 3 0 1.654-1.3458604 3-2.9996889 3-.4529531 0-.9009066-.104-1.3078644-.302l-1.0628898.285c-.0419956.011-.0859911.017-.1289866.017-.1309864 0-.2579733-.052-.3539633-.146-.125987-.126-.17498187-.311-.1289866-.483zM12.9992588 2c-1.1028857 0-1.9997927.897-1.9997927 2 0 .349.0929904.693.2679723.997.0659931.114.0849911.251.0499948.379l-.1109885.417.4159568-.112c.0429956-.011.0859911-.017.1289867-.017.0879908 0 .1739819.023.2509739.067.3039685.176.6479329.269.9968967.269 1.1028856 0 1.9997926-.897 1.9997926-2 0-1.103-.896907-2-1.9997926-2zm2.7597138 11.143l.221977 1.011c.0489949.198.0019998.414-.1299865.582-.1309864.168-.327966.264-.539944.264l-5.1244687 0-.49994812 0-8.87407982 0c-.24997408 0-.480950129-.113-.636933954-.312-.1569837223-.199-.2119780197-.456-.1519842407-.704l.3649621557-1.656C.70653345 11.027 1.79742033 10.115 3.0812872 10.02c-.66293125-.638-1.08088792-1.53-1.08088792-2.52 0-1.93 1.56983722-3.5 3.49963711-3.5 1.9297999 0 3.49963712 1.57 3.49963712 3.5 0 .99-.41795667 1.882-1.08088792 2.52 1.08888709.081 2.034789.75 2.49074171 1.739.0829914-.036.1709823-.06.2579733-.083-.28997-.385-.4679515-.858-.4679515-1.376 0-1.269 1.031893-2.3 2.2997615-2.3 1.2678685 0 2.2997615 1.031 2.2997615 2.3 0 .517-.1779815.99-.4669515 1.375.6899284.186 1.2468707.735 1.426852 1.468zM10.9784683 14l3.9455909 0-.1389856-.631c-.1099886-.448-.5089472-.769-.9668997-.769l-2.6377265 0c-.1719822 0-.3299658.059-.4769506.144l.2749715 1.252c0 .002 0 .002 0 .004zm-1.29186602 0l.2689721 0-.32096671-1.457C9.41363058 11.64 8.61571332 11 7.6978085 11l-4.39554421 0c-.91790482 0-1.71582208.64-1.93979886 1.555L1.04449841 14l8.64210387 0zM3.0002956 7.5c0 1.379 1.12188367 2.5 2.49974079 2.5 1.37785713 0 2.4997408-1.121 2.4997408-2.5 0-1.379-1.12188367-2.5-2.4997408-2.5C4.12217927 5 3.0002956 6.121 3.0002956 7.5zm9.499015 1.5c-.7169256 0-1.2998652.583-1.2998652 1.3 0 .717.5829396 1.3 1.2998652 1.3.7169257 0 1.2998652-.583 1.2998652-1.3 0-.717-.5829395-1.3-1.2998652-1.3z" fill="#000" fill-rule="evenodd"/></svg>