<svg width="14" height="14" viewBox="0 0 14 14" xmlns="http://www.w3.org/2000/svg"><title>alerts-and-notifications/check-circle_14</title><path d="M6.9999 13c-3.309 0-6-2.691-6-6 0-3.309 2.691-6 6-6 3.309 0 6 2.691 6 6 0 3.309-2.691 6-6 6m0-13c3.866 0 7 3.134 7 7 0 3.866-3.134 7-7 7-3.866 0-7-3.134-7-7 0-3.866 3.134-7 7-7zm2.6465 4.6465l-3.646 3.646-1.647-1.646c-.195-.195-.512-.195-.707 0-.195.195-.195.512 0 .707l2 2c.098.098.226.147.354.147.127 0 .255-.049.353-.147l4-4c.195-.195.195-.512 0-.707-.195-.195-.512-.195-.707 0z" fill="#000" fill-rule="evenodd"/></svg>