<svg width="72" height="72" viewBox="0 0 72 72" xmlns="http://www.w3.org/2000/svg"><title>alerts-and-notifications/check-circle_72</title><path d="M71.9998 35.9821l0 .018 0 .017c-.009 19.874-16.123 35.983-36 35.983-19.882 0-36-16.118-36-36 0-19.882 16.118-36 36-36 19.877 0 35.991 16.109 36 35.982zm-1 .013l0-.002 0-.011c-.009-19.289-15.71-34.982-35-34.982-19.299 0-35 15.701-35 35 0 19.299 15.701 35 35 35 19.29 0 34.991-15.693 35-34.984l0-.021zM52.6462 24.6465c.195-.195.512-.195.707 0 .195.195.195.512 0 .707l-23 23c-.098.098-.226.147-.353.147-.128 0-.256-.049-.354-.147l-11-11c-.195-.195-.195-.512 0-.707.195-.195.512-.195.707 0l10.647 10.646 22.646-22.646z" fill-rule="evenodd"/></svg>