<svg width="16" height="16" viewBox="0 0 16 16" xmlns="http://www.w3.org/2000/svg"><title>alerts-and-notifications/check-refresh_16</title><path d="M15.5002 10c.276 0 .5.224.5.5l0 5c0 .276-.224.5-.5.5-.276 0-.5-.224-.5-.5l0-3.646c-1.393 2.514-4.08 4.146-7 4.146-4.411 0-8-3.589-8-8 0-4.411 3.589-8 8-8 1.309 0 2.607.323 3.757.935.243.129.336.432.206.676-.13.245-.433.336-.677.206-1.005-.535-2.14-.817-3.286-.817-3.859 0-7 3.141-7 7 0 3.859 3.141 7 7 7 2.694 0 5.152-1.594 6.303-4l-3.803 0c-.276 0-.5-.224-.5-.5 0-.276.224-.5.5-.5l5 0zM4.8537 7.1465l2.646 2.646 6.647-6.646c.195-.195.512-.195.707 0 .195.195.195.512 0 .707l-7 7c-.098.098-.226.147-.354.147-.127 0-.255-.049-.353-.147l-3-3c-.195-.195-.195-.512 0-.707.195-.195.512-.195.707 0z" fill="#000" fill-rule="evenodd"/></svg>