<svg xmlns="http://www.w3.org/2000/svg" viewBox="0 0 759.34 400.21"><g data-name="Layer 2"><path d="M248.06 397.88h-33.3v-132h33.3zM516.53 268.3a102.57 102.57 0 00-30.35-4.71c-40.58 0-70.31 28.89-70.31 68.29 0 42.51 32.86 68.33 70.31 68.33a105.93 105.93 0 0030.35-4.7V360.1a59 59 0 01-28 7c-22.15 0-36.46-15.61-36.46-35.22 0-20.21 14.93-35.18 36.46-35.18a58.4 58.4 0 0128 7zm-347.53 0a102.45 102.45 0 00-30.36-4.71c-40.53 0-70.27 28.89-70.27 68.29 0 42.51 32.83 68.33 70.27 68.33a105.1 105.1 0 0030.36-4.7V360.1a58.65 58.65 0 01-28 7c-22.2 0-36.5-15.61-36.5-35.22 0-20.21 14.94-35.18 36.5-35.18a58 58 0 0128 7zm522 63.58c0-37.68-29.14-68.29-69.72-68.29s-69.69 30.61-69.69 68.29 29.12 68.33 69.69 68.33S691 369.63 691 331.88m-69.72-34.7c19.74 0 34.44 15.54 34.44 34.7s-14.7 34.73-34.44 34.73-34.42-15.53-34.42-34.73 14.66-34.7 34.42-34.7m-246.95-29.43a142.26 142.26 0 00-32.45-4.2c-30.69 0-49.18 16.56-49.18 41.25 0 21.83 15.47 32.74 34 38.59 2.06.69 5.08 1.63 7.1 2.31 8.26 2.58 14.84 6.45 14.84 13.12 0 7.49-7.62 12.33-24.18 12.33-14.54 0-28.51-4.16-31.45-4.9v30.37a199.7 199.7 0 0035.99 3.59c25.49 0 54.64-11.12 54.64-44.27 0-16.07-9.86-30.88-31.46-37.75l-9.18-2.93c-5.48-1.72-15.25-4.53-15.25-12.56 0-6.34 7.25-10.81 20.59-10.81 11.51 0 25.53 3.88 26 4zM33.05 124.13a16.53 16.53 0 00-33 0v34.63a16.53 16.53 0 0033.05 0zm90.8-45.47a16.53 16.53 0 00-33 0v80.1a16.53 16.53 0 0033.05 0zm90.8-62.19a16.53 16.53 0 00-33.05 0v175.2a16.53 16.53 0 1033.05 0zm90.81 62.19a16.54 16.54 0 00-33.07 0v80.1a16.54 16.54 0 0033.07 0zm90.69 45.47a16.48 16.48 0 00-33 0v34.63a16.48 16.48 0 1033 0zM487 78.66a16.48 16.48 0 00-33 0v80.1a16.48 16.48 0 1033 0zm90.86-62.19a16.49 16.49 0 00-33 0v175.2a16.49 16.49 0 1033 0zm90.84 62.19a16.58 16.58 0 00-33.16 0v80.1a16.58 16.58 0 0033.16 0zm90.65 45.47a16.49 16.49 0 00-33 0v34.63a16.49 16.49 0 1033 0z" data-name="Layer 1"/></g></svg>