<svg width="20" height="20" viewBox="0 0 20 20" xmlns="http://www.w3.org/2000/svg"><title>common-actions/clear-active_20</title><path d="M10 0c5.514 0 10 4.486 10 10 0 5.514-4.486 10-10 10-5.514 0-10-4.486-10-10C0 4.486 4.486 0 10 0zm3.8535 6.1465c-.195-.195-.512-.195-.707 0l-3.147 3.146-3.146-3.146c-.195-.195-.512-.195-.707 0-.195.195-.195.512 0 .707l3.146 3.147-3.146 3.146c-.195.195-.195.512 0 .707.098.098.226.147.353.147.128 0 .256-.049.354-.147l3.146-3.146 3.147 3.146c.098.098.226.147.353.147.128 0 .256-.049.354-.147.195-.195.195-.512 0-.707l-3.146-3.146 3.146-3.147c.195-.195.195-.512 0-.707z" fill-rule="evenodd"/></svg>