<svg width="20" height="20" viewBox="0 0 20 20" xmlns="http://www.w3.org/2000/svg"><title>common-actions/clear_20</title><path d="M10 0c5.514 0 10 4.486 10 10 0 5.514-4.486 10-10 10-5.514 0-10-4.486-10-10C0 4.486 4.486 0 10 0zm0 19c4.963 0 9-4.037 9-9 0-4.963-4.037-9-9-9-4.963 0-9 4.037-9 9 0 4.963 4.037 9 9 9zm3.8535-12.8535c.195.195.195.512 0 .707l-3.146 3.147 3.146 3.146c.195.195.195.512 0 .707-.098.098-.226.147-.354.147-.127 0-.255-.049-.353-.147l-3.147-3.146-3.146 3.146c-.098.098-.226.147-.354.147-.127 0-.255-.049-.353-.147-.195-.195-.195-.512 0-.707l3.146-3.146-3.146-3.147c-.195-.195-.195-.512 0-.707.195-.195.512-.195.707 0l3.146 3.146 3.147-3.146c.195-.195.512-.195.707 0z" fill="#000" fill-rule="evenodd"/></svg>