<?xml version="1.0" encoding="UTF-8"?>
<svg width="140px" height="140px" viewBox="0 0 140 140" version="1.1" xmlns="http://www.w3.org/2000/svg" xmlns:xlink="http://www.w3.org/1999/xlink">
    <!-- Generator: Sketch 61.2 (89653) - https://sketch.com -->
    <title>common-actions/clear_140</title>
    <desc>Created with Sketch.</desc>
    <g id="common-actions/clear_140" stroke="none" stroke-width="1" fill="none" fill-rule="evenodd">
        <path d="M69.9996,-0.0003 C31.4016,-0.0003 -0.0004,31.4017 -0.0004,69.9997 C-0.0004,108.5987 31.4016,139.9997 69.9996,139.9997 C108.5976,139.9997 139.9996,108.5987 139.9996,69.9997 C139.9996,31.4017 108.5976,-0.0003 69.9996,-0.0003 M69.9996,138.9997 C31.9526,138.9997 0.9996,108.0467 0.9996,69.9997 C0.9996,31.9537 31.9526,0.9997 69.9996,0.9997 C108.0466,0.9997 138.9996,31.9537 138.9996,69.9997 C138.9996,108.0467 108.0466,138.9997 69.9996,138.9997 M93.731,44.9651 C93.536,44.7701 93.219,44.7701 93.024,44.9651 L68.805,69.1841 L44.586,44.9651 C44.391,44.7701 44.075,44.7701 43.879,44.9651 C43.684,45.1601 43.684,45.4771 43.879,45.6721 L68.098,69.8911 L43.879,94.1091 C43.684,94.3041 43.684,94.6211 43.879,94.8161 C43.977,94.9141 44.105,94.9631 44.233,94.9631 C44.361,94.9631 44.489,94.9141 44.586,94.8161 L68.805,70.5981 L93.024,94.8161 C93.122,94.9141 93.25,94.9631 93.377,94.9631 C93.505,94.9631 93.633,94.9141 93.731,94.8161 C93.926,94.6211 93.926,94.3041 93.731,94.1091 L69.512,69.8911 L93.731,45.6721 C93.926,45.4771 93.926,45.1601 93.731,44.9651" id="fill" fill="#171B1F"></path>
    </g>
</svg>