<?xml version="1.0" encoding="UTF-8"?>
<svg width="16px" height="16px" viewBox="0 0 16 16" version="1.1" xmlns="http://www.w3.org/2000/svg" xmlns:xlink="http://www.w3.org/1999/xlink">
    <!-- Generator: Sketch 60.1 (88133) - https://sketch.com -->
    <title>alerts-and-notifications/closed-caption_16</title>
    <desc>Created with Sketch.</desc>
    <g id="alerts-and-notifications/closed-caption_16" stroke="none" stroke-width="1" fill="none" fill-rule="evenodd">
        <path d="M14.5,1 L1.5,1 C0.673,1 0,1.673 0,2.5 L0,12 C0,12.827 0.673,13.5 1.5,13.5 L1.5,15.5 C1.5,15.694 1.612,15.871 1.788,15.953 C1.855,15.984 1.928,16 2,16 C2.115,16 2.229,15.96 2.32,15.884 L5.182,13.5 L14.5,13.5 C15.327,13.5 16,12.827 16,12 L16,2.5 C16,1.673 15.327,1 14.5,1 L14.5,1 Z M15,12 C15,12.276 14.776,12.5 14.5,12.5 L5,12.5 L5,12.507 C4.887,12.507 4.773,12.538 4.68,12.616 L2.5,14.433 L2.5,13 C2.5,12.724 2.276,12.5 2,12.5 L1.5,12.5 C1.224,12.5 1,12.276 1,12 L1,2.5 C1,2.224 1.224,2 1.5,2 L14.5,2 C14.776,2 15,2.224 15,2.5 L15,12 Z M10.868,10.5 C11.5506667,10.5 12.1213333,10.3186667 12.58,9.956 C13.092,9.55066667 13.3773333,9.004 13.436,8.316 L13.436,8.316 L12.396,8.316 C12.3693333,8.716 12.236,9.03866667 11.996,9.284 C11.7186667,9.56666667 11.348,9.708 10.884,9.708 C10.4306667,9.708 10.0653333,9.55066667 9.788,9.236 C9.44133333,8.84666667 9.268,8.26533333 9.268,7.492 C9.268,6.80933333 9.404,6.27866667 9.676,5.9 C9.964,5.48933333 10.3826667,5.284 10.932,5.284 C11.2946667,5.284 11.6013333,5.37466667 11.852,5.556 C12.14,5.76933333 12.316,6.07866667 12.38,6.484 L12.38,6.484 L13.412,6.484 C13.3533333,5.94 13.124,5.48933333 12.724,5.132 C12.2546667,4.71066667 11.6573333,4.5 10.932,4.5 C10.1586667,4.5 9.53466667,4.724 9.06,5.172 C8.49466667,5.7 8.212,6.47333333 8.212,7.492 C8.212,8.388 8.428,9.1 8.86,9.628 C9.33466667,10.2093333 10.004,10.5 10.868,10.5 Z M5.156,10.5 C5.83866667,10.5 6.40933333,10.3186667 6.868,9.956 C7.38,9.55066667 7.66533333,9.004 7.724,8.316 L7.724,8.316 L6.684,8.316 C6.65733333,8.716 6.524,9.03866667 6.284,9.284 C6.00666667,9.56666667 5.636,9.708 5.172,9.708 C4.71866667,9.708 4.35333333,9.55066667 4.076,9.236 C3.72933333,8.84666667 3.556,8.26533333 3.556,7.492 C3.556,6.80933333 3.692,6.27866667 3.964,5.9 C4.252,5.48933333 4.67066667,5.284 5.22,5.284 C5.58266667,5.284 5.88933333,5.37466667 6.14,5.556 C6.428,5.76933333 6.604,6.07866667 6.668,6.484 L6.668,6.484 L7.7,6.484 C7.64133333,5.94 7.412,5.48933333 7.012,5.132 C6.54266667,4.71066667 5.94533333,4.5 5.22,4.5 C4.44666667,4.5 3.82266667,4.724 3.348,5.172 C2.78266667,5.7 2.5,6.47333333 2.5,7.492 C2.5,8.388 2.716,9.1 3.148,9.628 C3.62266667,10.2093333 4.292,10.5 5.156,10.5 Z" id="fill" fill="#171B1F"></path>
    </g>
</svg>