<svg width="20" height="20" viewBox="0 0 20 20" xmlns="http://www.w3.org/2000/svg"><title>alerts-and-notifications/closed-caption_20</title><path d="M19 13c0 .551-.449 1-1 1L2 14c-.551 0-1-.449-1-1l0-6c0-.551.449-1 1-1l16 0c.551 0 1 .449 1 1l0 6zm-1-8c1.1 0 2 .9 2 2l0 6c0 1.104-.896 2-2 2L2 15c-1.1 0-2-.9-2-2l0-6c0-1.104.896-2 2-2l16 0zm-9.1592 5.6187c-.033.558-.499.963-1.109.963-.766 0-1.222-.591-1.222-1.582 0-1.008.458-1.587 1.257-1.587.59 0 1 .323 1.069.842l.015.109.851 0-.01-.135c-.067-.894-.895-1.568-1.925-1.568-1.308 0-2.121.896-2.121 2.339 0 1.443.795 2.34 2.074 2.34 1.222 0 1.932-.879 1.979-1.706l.008-.133-.859 0-.007.118zm4.6553 0c-.033.558-.499.963-1.109.963-.766 0-1.222-.591-1.222-1.582 0-1.008.458-1.587 1.257-1.587.59 0 1 .323 1.069.842l.015.109.851 0-.01-.135c-.067-.894-.895-1.568-1.925-1.568-1.308 0-2.121.896-2.121 2.339 0 1.443.795 2.34 2.074 2.34 1.222 0 1.932-.879 1.979-1.706l.008-.133-.859 0-.007.118z" fill-rule="evenodd"/></svg>