<svg width="12" height="12" viewBox="0 0 12 12" xmlns="http://www.w3.org/2000/svg"><title>alerts-and-notifications/closed-caption_12</title><path d="M10.5002 2c.825 0 1.5.675 1.5 1.5l0 5c0 .829-.672 1.5-1.5 1.5l-9 0c-.825 0-1.5-.675-1.5-1.5l0-5c0-.829.671-1.5 1.5-1.5l9 0zm.5 6.5l0-5c0-.271-.229-.5-.5-.5l-9 0c-.276 0-.5.224-.5.5l0 5c0 .271.229.5.5.5l9 0c.275 0 .5-.224.5-.5zM4.969 6.3711l.008-.116.94 0-.016.139c-.095.794-.609 1.23-1.448 1.23-.903 0-1.463-.625-1.463-1.632 0-1.012.559-1.616 1.496-1.616.751 0 1.286.423 1.394 1.105l.024.144-.919 0-.022-.099c-.061-.291-.218-.432-.477-.432-.363 0-.547.302-.547.898 0 .416.092.911.527.911.326 0 .477-.159.503-.532zm3.2842 0l.008-.116.94 0-.016.139c-.095.794-.609 1.23-1.448 1.23-.903 0-1.463-.625-1.463-1.632 0-1.012.559-1.616 1.496-1.616.751 0 1.286.423 1.394 1.105l.024.144-.919 0-.022-.099c-.061-.291-.218-.432-.477-.432-.363 0-.547.302-.547.898 0 .416.092.911.527.911.326 0 .477-.159.503-.532z" fill="#000" fill-rule="evenodd"/></svg>