<svg width="12" height="12" viewBox="0 0 12 12" xmlns="http://www.w3.org/2000/svg"><title>content/close-space_12</title><path d="M12 2.838c0 .001 0 .001 0 .002l0 4.66c0 .001 0 .001 0 .002C11.999 8.328 11.327 9 10.5 9c-.277 0-.5-.224-.5-.5 0-.276.223-.5.5-.5.275 0 .5-.225.5-.5l0-4.66c0-.463-.376-.84-.84-.84L2.84 2c-.463 0-.84.377-.84.84L2 7.5c0 .275.224.5.5.5.276 0 .5.224.5.5 0 .276-.224.5-.5.5C1.673 9 1 8.327 1 7.5l0-4.66C1 1.825 1.825 1 2.84 1l7.32 0c1.015 0 1.839.824 1.84 1.838zM8.854 6.1466c.195.195.195.512 0 .707l-1.646 1.647 1.646 1.646c.195.195.195.512 0 .707-.098.098-.226.147-.354.147-.127 0-.255-.049-.353-.147L6.5 9.2076l-1.646 1.646c-.098.098-.226.147-.354.147-.127 0-.255-.049-.353-.147-.195-.195-.195-.512 0-.707l1.646-1.646-1.646-1.647c-.195-.195-.195-.512 0-.707.195-.195.512-.195.707 0L6.5 7.7926l1.647-1.646c.195-.195.512-.195.707 0z" fill="#000" fill-rule="evenodd"/></svg>