<svg width="16" height="16" viewBox="0 0 16 16" xmlns="http://www.w3.org/2000/svg"><title>alerts-and-notifications/closed-caption_16</title><path d="M14.5 4c.825 0 1.5.675 1.5 1.5l0 5c0 .829-.672 1.5-1.5 1.5l-13 0C.675 12 0 11.325 0 10.5l0-5C0 4.671.672 4 1.5 4l13 0zm.5 6.5l0-5c0-.271-.229-.5-.5-.5l-13 0c-.276 0-.5.224-.5.5l0 5c0 .271.229.5.5.5l13 0c.276 0 .5-.224.5-.5zM6.9663 8.5332l.006-.105.764 0-.007.118c-.042.735-.674 1.516-1.76 1.516-1.136 0-1.843-.797-1.843-2.079 0-1.283.722-2.079 1.885-2.079.916 0 1.652.599 1.711 1.394l.01.119-.757 0-.013-.096c-.062-.462-.426-.749-.951-.749-.71 0-1.117.514-1.117 1.411 0 .88.406 1.405 1.086 1.405.543 0 .957-.359.986-.855zm4.1382 0l.006-.105.764 0-.007.118c-.042.735-.674 1.516-1.76 1.516-1.137 0-1.843-.797-1.843-2.079 0-1.283.722-2.079 1.885-2.079.916 0 1.652.599 1.711 1.394l.01.119-.757 0-.013-.096c-.062-.462-.426-.749-.951-.749-.71 0-1.117.514-1.117 1.411 0 .88.406 1.405 1.086 1.405.543 0 .957-.359.986-.855z" fill="#000" fill-rule="evenodd"/></svg>