<svg width="24" height="24" xmlns="http://www.w3.org/2000/svg"><path d="M3 23a.5.5 0 01-.5-.5V19A2.503 2.503 0 010 16.5v-12C0 3.122 1.122 2 2.5 2h19C22.878 2 24 3.122 24 4.5v12c0 1.378-1.122 2.5-2.5 2.5H7.69l-4.358 3.874A.498.498 0 013 23zM2.5 3C1.673 3 1 3.673 1 4.5v12c0 .827.673 1.5 1.5 1.5H3a.5.5 0 01.5.5v2.887l3.668-3.261A.499.499 0 017.5 18h14c.827 0 1.5-.673 1.5-1.5v-12c0-.827-.673-1.5-1.5-1.5h-19zm14.096 3.18c2.076 0 3.54 1.368 3.66 2.952H19.02C18.864 7.956 17.928 7.2 16.596 7.2c-1.656 0-2.808 1.14-2.808 3.48 0 2.232 1.116 3.468 2.736 3.468 1.404 0 2.436-.948 2.508-2.196h1.236c-.096 1.68-1.572 3.228-3.768 3.228-2.412 0-3.96-1.62-3.96-4.5 0-2.916 1.68-4.5 4.056-4.5zm-8.748 0c2.076 0 3.54 1.368 3.66 2.952h-1.236C10.116 7.956 9.18 7.2 7.848 7.2c-1.656 0-2.808 1.14-2.808 3.48 0 2.232 1.116 3.468 2.736 3.468 1.404 0 2.436-.948 2.508-2.196h1.236c-.096 1.68-1.572 3.228-3.768 3.228-2.412 0-3.96-1.62-3.96-4.5 0-2.916 1.68-4.5 4.056-4.5z" fill="#171B1F" fill-rule="evenodd"/></svg>