<svg width="12" height="12" viewBox="0 0 12 12" xmlns="http://www.w3.org/2000/svg"><title>alerts-and-notifications/closed-caption_12</title><path d="M11.0002 8.5c0 .276-.225.5-.5.5l-9 0c-.271 0-.5-.229-.5-.5l0-5c0-.276.224-.5.5-.5l9 0c.271 0 .5.229.5.5l0 5zm-.5-6.5c.825 0 1.5.675 1.5 1.5l0 5c0 .829-.672 1.5-1.5 1.5l-9 0c-.825 0-1.5-.675-1.5-1.5l0-5c0-.829.671-1.5 1.5-1.5l9 0zM4.969 6.3711c-.026.373-.177.532-.503.532-.435 0-.527-.495-.527-.911 0-.596.184-.898.547-.898.259 0 .416.141.477.432l.022.099.919 0-.024-.144c-.108-.682-.643-1.105-1.394-1.105-.937 0-1.496.604-1.496 1.616 0 1.007.56 1.632 1.463 1.632.839 0 1.353-.436 1.448-1.23l.016-.139-.94 0-.008.116zm3.2842 0c-.026.373-.177.532-.503.532-.435 0-.527-.495-.527-.911 0-.596.184-.898.547-.898.259 0 .416.141.477.432l.022.099.919 0-.024-.144c-.108-.682-.643-1.105-1.394-1.105-.937 0-1.496.604-1.496 1.616 0 1.007.56 1.632 1.463 1.632.839 0 1.353-.436 1.448-1.23l.016-.139-.94 0-.008.116z" fill-rule="evenodd"/></svg>