<svg width="24" height="24" xmlns="http://www.w3.org/2000/svg"><path d="M17.348 20H12v-9.293l4.146 4.147a.502.502 0 00.707 0 .5.5 0 000-.708l-4.999-4.999a.496.496 0 00-.708 0l-5 4.999a.5.5 0 00.707.708L11 10.707V20H5.51C3.023 20 1 17.814 1 15.128c0-2.518 1.882-4.613 4.285-4.77a.5.5 0 00.467-.526l-.006-.102c-.005-.08-.01-.159-.01-.24C5.735 6.463 8.09 4 10.985 4c2.312 0 4.382 1.621 5.033 3.942a.503.503 0 00.56.359c.314-.05.58-.072.832-.072 3.082 0 5.59 2.62 5.59 5.842C23 17.285 20.41 20 17.347 20m.063-12.771c-.178 0-.364.009-.56.029C15.957 4.73 13.603 3 10.985 3c-3.422 0-6.21 2.87-6.249 6.414C2.044 9.836 0 12.255 0 15.128 0 18.366 2.472 21 5.51 21h11.838C20.953 21 24 17.827 24 14.071c0-3.773-2.956-6.842-6.589-6.842" fill="#171B1F" fill-rule="evenodd"/></svg>