<?xml version="1.0" encoding="UTF-8"?>
<svg width="20px" height="20px" viewBox="0 0 20 20" version="1.1" xmlns="http://www.w3.org/2000/svg" xmlns:xlink="http://www.w3.org/1999/xlink">
    <!-- Generator: Sketch 57.1 (83088) - https://sketch.com -->
    <title>cloud_20</title>
    <desc>Created with Sketch.</desc>
    <g id="New-Icon" stroke="none" stroke-width="1" fill="none" fill-rule="evenodd">
        <g id="cloud_20" fill="#171B1F">
            <g transform="translate(0.000000, 3.000000)" id="fill">
                <path d="M9.1616,1 C6.8186,1 4.9116,2.841 4.9116,5.104 C4.9116,5.167 4.9166,5.228 4.9206,5.289 C4.9306,5.422 4.8886,5.585 4.8006,5.686 C4.7126,5.787 4.5906,5.879 4.4566,5.887 C2.5186,6.005 0.9996,7.564 0.9996,9.438 C0.9996,11.402 2.6556,13 4.6916,13 L14.4706,13 C16.9686,13 18.9996,11.038 18.9996,8.625 C18.9996,6.212 16.9686,4.25 14.4706,4.25 C14.2396,4.25 14.0136,4.272 13.7906,4.305 C13.5476,4.34 13.3116,4.192 13.2396,3.955 C12.7146,2.215 11.0376,1 9.1616,1 M14.4706,14 L4.6916,14 C2.1046,14 -0.0004,11.953 -0.0004,9.438 C-0.0004,7.195 1.6836,5.305 3.9136,4.943 C4.0016,2.203 6.3226,0 9.1616,0 C11.3296,0 13.2846,1.324 14.0576,3.268 C14.1936,3.256 14.3316,3.25 14.4706,3.25 C17.5196,3.25 19.9996,5.661 19.9996,8.625 C19.9996,11.589 17.5196,14 14.4706,14"></path>
            </g>
        </g>
    </g>
</svg>