<svg width="32" height="32" viewBox="0 0 32 32" xmlns="http://www.w3.org/2000/svg"><title>network/cloud_32</title><path d="M23.233 27l-15.5 0C4.02 27 1 23.941 1 20.182c0-3.757 3.015-6.814 6.791-6.814l.007 0c.147.013.291-.056.39-.166.099-.109.144-.258.123-.404-.054-.375-.078-.687-.078-.98C8.233 8.059 11.254 5 14.966 5c3.363 0 6.229 2.545 6.668 5.92.018.132.087.252.193.333.106.08.24.118.371.098.395-.053.724-.079 1.035-.079 4.282 0 7.767 3.529 7.767 7.865C31 23.473 27.515 27 23.233 27m0-16.728c-.219 0-.442.011-.686.033C21.842 6.678 18.666 4 14.966 4c-4.264 0-7.733 3.507-7.733 7.818 0 .18.008.365.023.56C3.213 12.627 0 16.032 0 20.182 0 24.493 3.468 28 7.733 28l15.5 0C28.067 28 32 24.024 32 19.137c0-4.888-3.933-8.865-8.767-8.865" fill="#000" fill-rule="evenodd"/></svg>