<svg width="20" height="20" viewBox="0 0 20 20" xmlns="http://www.w3.org/2000/svg"><title>chat/commenting_20</title><path d="M10.0002 19.0005c-1.569 0-3.122-.418-4.49-1.209-.077-.045-.163-.066-.25-.066-.043 0-.087.005-.129.017l-3.924 1.051 1.052-3.922c.034-.129.016-.266-.05-.381-.791-1.369-1.209-2.921-1.209-4.49 0-4.963 4.038-9 9-9 4.963 0 9 4.037 9 9 0 4.963-4.037 9-9 9m.009-19c5.51.006 9.991 4.488 9.991 10 0 5.514-4.486 10-10 10-1.675 0-3.333-.428-4.808-1.239l-4.562 1.222c-.043.011-.087.017-.13.017-.131 0-.259-.051-.354-.146-.126-.126-.175-.311-.129-.483l1.223-4.563c-.812-1.474-1.24-3.13-1.24-4.804l0-.004 0-.006c.003-5.508 4.482-9.988 9.99-9.994l.01 0 .009 0zm-.009 9.5c-.276 0-.5.224-.5.5 0 .276.224.5.5.5.276 0 .5-.224.5-.5 0-.276-.224-.5-.5-.5zm3.5 0c-.276 0-.5.224-.5.5 0 .276.224.5.5.5.276 0 .5-.224.5-.5 0-.276-.224-.5-.5-.5zm-7 0c-.276 0-.5.224-.5.5 0 .276.224.5.5.5.276 0 .5-.224.5-.5 0-.276-.224-.5-.5-.5z" fill="#000" fill-rule="evenodd"/></svg>