<svg width="16" height="16" xmlns="http://www.w3.org/2000/svg"><path d="M8 0c4.411 0 8 3.583 8 7.99 0 4.405-3.589 7.99-8 7.99a8.002 8.002 0 01-3.809-.97l-3.562.953a.5.5 0 01-.612-.612l.954-3.558A7.966 7.966 0 010 7.99C0 3.582 3.589 0 8 0zm0 1C4.14 1 1 4.136 1 7.99c0 1.219.325 2.425.939 3.486a.5.5 0 01.051.38l-.782 2.917 2.92-.781a.493.493 0 01.38.05A7.009 7.009 0 008 14.98c3.86 0 7-3.136 7-6.99S11.86 1 8 1zM5 7.5a.5.5 0 110 1 .5.5 0 010-1zm3 0a.5.5 0 110 1 .5.5 0 010-1zm3 0a.5.5 0 110 1 .5.5 0 010-1z" fill="#171B1F" fill-rule="evenodd"/></svg>