<svg width="32" height="32" viewBox="0 0 32 32" xmlns="http://www.w3.org/2000/svg"><title>phone/company_32</title><path d="M29 31L9 31l0-17c0-1.103.897-2 2-2l16 0c1.103 0 2 .897 2 2l0 17zM3 31L3 3c0-1.103.897-2 2-2l11 0c1.103 0 2 .897 2 2l0 8-7 0c-1.657 0-3 1.343-3 3l0 17-5 0zm24-20c1.657 0 3 1.343 3 3l0 17c0 .553-.447 1-1 1L3 32c-.552 0-1-.447-1-1L2 3c0-1.657 1.343-3 3-3l11 0c1.657 0 3 1.343 3 3l0 8 8 0zM9 6c0-.552-.448-1-1-1-.552 0-1 .448-1 1 0 .552.448 1 1 1 .552 0 1-.448 1-1zm4 1c.552 0 1-.448 1-1 0-.552-.448-1-1-1-.552 0-1 .448-1 1 0 .552.448 1 1 1zm1 9c-.552 0-1 .448-1 1 0 .553.448 1 1 1 .552 0 1-.447 1-1 0-.552-.448-1-1-1zm5 0c-.553 0-1 .448-1 1 0 .553.447 1 1 1 .553 0 1-.447 1-1 0-.552-.447-1-1-1zm5 0c-.553 0-1 .448-1 1 0 .553.447 1 1 1 .553 0 1-.447 1-1 0-.552-.447-1-1-1zm-10 5c-.552 0-1 .447-1 1 0 .553.448 1 1 1 .552 0 1-.447 1-1 0-.553-.448-1-1-1zm5 0c-.553 0-1 .447-1 1 0 .553.447 1 1 1 .553 0 1-.447 1-1 0-.553-.447-1-1-1zm5 0c-.553 0-1 .447-1 1 0 .553.447 1 1 1 .553 0 1-.447 1-1 0-.553-.447-1-1-1zm-10 5c-.552 0-1 .447-1 1 0 .553.448 1 1 1 .552 0 1-.447 1-1 0-.553-.448-1-1-1zm5 0c-.553 0-1 .447-1 1 0 .553.447 1 1 1 .553 0 1-.447 1-1 0-.553-.447-1-1-1zm5 0c-.553 0-1 .447-1 1 0 .553.447 1 1 1 .553 0 1-.447 1-1 0-.553-.447-1-1-1z" fill="#000" fill-rule="evenodd"/></svg>