<svg width="24" height="24" viewBox="0 0 24 24" xmlns="http://www.w3.org/2000/svg"><title>hardware/computer_24</title><path d="M15 4c1.103 0 2 .897 2 2l0 10c0 1.103-.897 2-2 2l-5 0 0 .5c0 .275.224.5.5.5.276 0 .5.224.5.5 0 .276-.224.5-.5.5l-4 0c-.276 0-.5-.224-.5-.5 0-.276.224-.5.5-.5.276 0 .5-.225.5-.5l0-.5-5 0c-1.103 0-2-.897-2-2L0 6c0-1.103.897-2 2-2l13 0zm1 10l0-8c0-.552-.449-1-1-1L2 5c-.551 0-1 .448-1 1l0 8 15 0zm0 2l0-1-15 0 0 1c0 .552.449 1 1 1l13 0c.551 0 1-.448 1-1zm-8.085 3l1.17 0C9.03 18.844 9 18.675 9 18.5l0-.5-1 0 0 .5c0 .175-.03.344-.085.5zM22 4c1.103 0 2 .897 2 2l0 12c0 1.103-.897 2-2 2l-2 0c-1.103 0-2-.897-2-2l0-12c0-1.103.897-2 2-2l2 0zm1 14l0-12c0-.552-.449-1-1-1l-2 0c-.551 0-1 .448-1 1l0 12c0 .552.449 1 1 1l2 0c.551 0 1-.448 1-1z" fill="#000" fill-rule="evenodd"/></svg>