<?xml version="1.0" encoding="utf-8"?>
<!-- Generator: Adobe Illustrator 23.0.2, SVG Export Plug-In . SVG Version: 6.00 Build 0)  -->
<svg version="1.1" id="Layer_1" xmlns="http://www.w3.org/2000/svg" xmlns:xlink="http://www.w3.org/1999/xlink" x="0px" y="0px"
	 viewBox="0 0 12 12" style="enable-background:new 0 0 12 12;" xml:space="preserve">
<style type="text/css">
	.st0{fill-rule:evenodd;clip-rule:evenodd;fill:#121212;}
</style>
<g>
	<path class="st0" d="M10,4H7V2c0-1.1-0.9-2-2-2H2C0.9,0,0,0.9,0,2v9c0,0.5,0.5,1,1,1h3.1h0.4H11c0.5,0,1-0.5,1-1V6
		C12,4.9,11.1,4,10,4z M4,6v5H1V2c0-0.5,0.5-1,1-1h3c0.5,0,1,0.5,1,1v2C4.9,4,4,4.9,4,6z M11,11H5V6c0-0.5,0.5-1,1-1h4
		c0.5,0,1,0.5,1,1V11z"/>
	<circle class="st0" cx="2.5" cy="2.5" r="0.5"/>
	<circle class="st0" cx="4.5" cy="2.5" r="0.5"/>
	<circle class="st0" cx="7" cy="8.5" r="0.5"/>
	<circle class="st0" cx="9" cy="8.5" r="0.5"/>
	<circle class="st0" cx="7" cy="6.5" r="0.5"/>
	<circle class="st0" cx="9" cy="6.5" r="0.5"/>
</g>
</svg>
