<svg width="20" height="20" viewBox="0 0 20 20" xmlns="http://www.w3.org/2000/svg" xmlns:xlink="http://www.w3.org/1999/xlink"><title>common-actions/content-share_20</title><defs><path d="M5.9995 4.99925c-.127 0-.255-.049-.353-.146-.195-.196-.195-.513 0-.708l4-4c.016-.016.036-.022.054-.036.034-.026.067-.054.108-.071.122-.051.261-.051.383 0 .041.017.074.045.108.071.018.014.038.02.054.036l4 4c.195.195.195.512 0 .708-.195.194-.512.194-.707 0l-3.147-3.147 0 8.793c0 .275-.224.5-.5.5-.275 0-.5-.225-.5-.5l0-8.793-3.146 3.147c-.098.097-.226.146-.354.146zM17.5 3.00025c1.375 0 2.5 1.125 2.5 2.5l0 10c0 1.375-1.125 2.5-2.5 2.5l-15 0c-1.375 0-2.5-1.125-2.5-2.5l0-10c0-1.375 1.125-2.5 2.5-2.5.275 0 .5.226.5.5 0 .275-.225.5-.5.5-.827 0-1.5.674-1.5 1.5l0 10c0 .827.673 1.5 1.5 1.5l15 0c.827 0 1.5-.673 1.5-1.5l0-10c0-.826-.673-1.5-1.5-1.5-.275 0-.5-.225-.5-.5 0-.274.225-.5.5-.5z" id="a"/></defs><use xlink:href="#a" transform="translate(0.000000, 1.000000)" fill-rule="evenodd"/></svg>