<svg width="12" height="12" viewBox="0 0 12 12" xmlns="http://www.w3.org/2000/svg"><title>common-actions/content-share_12</title><path d="M10.5 2.9945c.827 0 1.5.674 1.5 1.5l0 4.66c0 1.016-.825 1.84-1.84 1.84l-8.32 0c-1.014 0-1.839-.823-1.84-1.838l0-4.664c.001-.825.674-1.498 1.5-1.498.277 0 .5.225.5.5 0 .276-.223.5-.5.5-.275 0-.5.226-.5.5l0 4.66c0 .463.377.84.84.84l8.32 0c.463 0 .84-.377.84-.84l0-4.66c0-.274-.224-.5-.5-.5-.276 0-.5-.224-.5-.5 0-.275.224-.5.5-.5zm-6.1445.8535c-.195.195-.513.195-.708 0-.195-.195-.195-.512 0-.707l1.998-2c.187-.188.52-.188.707 0l2 2c.195.195.195.512 0 .707-.098.098-.226.146-.354.146-.127 0-.255-.048-.353-.146l-1.147-1.146 0 3.792c0 .276-.224.5-.5.5-.275 0-.5-.224-.5-.5l0-3.791-1.143 1.145z" fill-rule="evenodd"/></svg>