<svg width="24" height="24" viewBox="0 0 24 24" xmlns="http://www.w3.org/2000/svg"><title>contacts/contact-card_24</title><path d="M21.5 3C22.879 3 24 4.122 24 5.5l0 13c0 1.379-1.121 2.5-2.5 2.5l-19 0C1.121 21 0 19.879 0 18.5l0-13C0 4.122 1.121 3 2.5 3l19 0zM23 18.5l0-13c0-.827-.673-1.5-1.5-1.5l-19 0C1.673 4 1 4.673 1 5.5l0 13c0 .827.673 1.5 1.5 1.5l19 0c.827 0 1.5-.673 1.5-1.5zm-2.4839-7c.276 0 .5.224.5.5 0 .276-.224.5-.5.5l-6 0c-.276 0-.5-.224-.5-.5 0-.276.224-.5.5-.5l6 0zM21 7.5c0 .276-.224.5-.5.5l-8 0c-.276 0-.5-.224-.5-.5 0-.276.224-.5.5-.5l8 0c.276 0 .5.224.5.5zm-.5 8.5c.276 0 .5.224.5.5 0 .276-.224.5-.5.5l-4 0c-.276 0-.5-.224-.5-.5 0-.276.224-.5.5-.5l4 0zm-8.5161.286c.039.169.007.345-.086.485-.099.145-.249.229-.413.229l-7.969 0c-.164 0-.315-.084-.413-.229-.094-.14-.125-.316-.086-.485l.312-1.343c.224-.964.934-1.677 1.804-1.879-.692-.64-1.133-1.547-1.133-2.564 0-1.933 1.567-3.5 3.5-3.5 1.933 0 3.5 1.567 3.5 3.5 0 1.017-.44 1.924-1.133 2.563.87.203 1.58.916 1.805 1.88l.312 1.343zM4.1099 16l6.78 0-.193-.83c-.159-.689-.706-1.17-1.328-1.17l-.214 0-3.31 0-.213 0c-.623 0-1.169.481-1.329 1.17l-.193.83zm.89-5.5c0 1.378 1.122 2.5 2.5 2.5 1.379 0 2.5-1.122 2.5-2.5 0-1.378-1.121-2.5-2.5-2.5-1.378 0-2.5 1.122-2.5 2.5z" fill="#000" fill-rule="evenodd"/></svg>