<svg width="16" height="16" viewBox="0 0 16 16" xmlns="http://www.w3.org/2000/svg"><title>contacts/contact-card_16</title><path d="M14.006 2.0002c1.101 0 1.994.902 1.994 2.009l0 7.982c0 1.11-.895 2.009-1.994 2.009l-12.012 0c-1.101 0-1.994-.903-1.994-2.009l0-7.982c0-1.111.895-2.009 1.994-2.009l12.012 0zm.994 9.991l0-7.982c0-.558-.448-1.009-.994-1.009l-12.012 0c-.546 0-.994.451-.994 1.009l0 7.982c0 .558.448 1.009.994 1.009l12.012 0c.546 0 .994-.451.994-1.009zM13.5 5c.276 0 .5.225.5.5 0 .275-.224.5-.5.5l-5 0c-.276 0-.5-.225-.5-.5 0-.275.224-.5.5-.5l5 0zM6.6698 8.094c.539.183.949.622 1.052 1.176l.221 1.134c.028.147-.01.299-.105.414-.095.116-.237.182-.386.182l-4.904 0c-.15 0-.291-.066-.386-.182-.095-.115-.134-.267-.105-.414l.222-1.14c.101-.55.512-.987 1.05-1.17-.207-.315-.329-.69-.329-1.094 0-1.104.897-2 2-2 1.103 0 2 .896 2 2 0 .404-.123.779-.33 1.094zM3.1538 10l3.691 0-.106-.545c-.048-.262-.321-.455-.636-.455l-2.206 0c-.315 0-.589.193-.636.45l-.107.55zm1.846-4c-.552 0-1 .449-1 1 0 .551.448 1 1 1 .551 0 1-.449 1-1 0-.551-.449-1-1-1zM13.5 10c.276 0 .5.225.5.5 0 .275-.224.5-.5.5l-3 0c-.276 0-.5-.225-.5-.5 0-.275.224-.5.5-.5l3 0zm0-2.5c.276 0 .5.225.5.5 0 .275-.224.5-.5.5l-4 0c-.276 0-.5-.225-.5-.5 0-.275.224-.5.5-.5l4 0z" fill="#000" fill-rule="evenodd"/></svg>