<svg width="24" height="24" viewBox="0 0 24 24" xmlns="http://www.w3.org/2000/svg"><title>contacts/contact-card_24</title><path d="M21.5 3C22.879 3 24 4.122 24 5.5l0 13c0 1.379-1.121 2.5-2.5 2.5l-19 0C1.121 21 0 19.879 0 18.5l0-13C0 4.122 1.121 3 2.5 3l19 0zM23 18.5l0-13c0-.827-.673-1.5-1.5-1.5l-19 0C1.673 4 1 4.673 1 5.5l0 13c0 .827.673 1.5 1.5 1.5l19 0c.827 0 1.5-.673 1.5-1.5zM9.1506 13.083c.778.209 1.385.822 1.525 1.62l.316 1.706c.027.146-.012.297-.107.41-.096.115-.236.181-.385.181l-7 0c-.148 0-.289-.066-.384-.181-.095-.113-.134-.264-.107-.41l.317-1.711c.139-.794.746-1.406 1.523-1.615-.523-.54-.849-1.273-.849-2.083 0-1.654 1.346-3 3-3 1.655 0 3 1.346 3 3 0 .81-.325 1.543-.849 2.083zM4.1006 16l5.799 0-.207-1.12c-.091-.512-.561-.88-1.118-.88l-3.149 0c-.557 0-1.027.368-1.117.875L4.1006 16zm2.899-7c-1.102 0-2 .897-2 2 0 1.103.898 2 2 2 1.103 0 2-.897 2-2 0-1.103-.897-2-2-2zM20.5 16c.276 0 .5.224.5.5 0 .276-.224.5-.5.5l-4 0c-.276 0-.5-.224-.5-.5 0-.276.224-.5.5-.5l4 0zm.0161-4c.276 0 .5.224.5.5 0 .276-.224.5-.5.5l-6 0c-.276 0-.5-.224-.5-.5 0-.276.224-.5.5-.5l6 0zM21 8.5c0 .276-.224.5-.5.5l-8 0c-.276 0-.5-.224-.5-.5 0-.276.224-.5.5-.5l8 0c.276 0 .5.224.5.5z" fill="#000" fill-rule="evenodd"/></svg>