<svg width="28" height="28" viewBox="0 0 28 28" xmlns="http://www.w3.org/2000/svg"><title>contacts/contact-card_28</title><path d="M27 22l0-16c0-1.103-.897-2-2-2L3 4c-1.104 0-2 .897-2 2l0 16c0 1.103.896 2 2 2l22 0c1.103 0 2-.897 2-2zM25 3c1.657 0 3 1.343 3 3l0 16c0 1.657-1.343 3-3 3L3 25c-1.658 0-3-1.343-3-3L0 6c0-1.657 1.342-3 3-3l22 0zm-1.5 15c.276 0 .5.224.5.5 0 .276-.224.5-.5.5l-6 0c-.276 0-.5-.224-.5-.5 0-.276.224-.5.5-.5l6 0zm.3335-4.2251c0 .276-.224.5-.5.5l-6.833 0c-.277 0-.5-.224-.5-.5 0-.276.223-.5.5-.5l6.833 0c.276 0 .5.224.5.5zM23.5 9c.276 0 .5.224.5.5 0 .276-.224.5-.5.5l-8 0c-.276 0-.5-.224-.5-.5 0-.276.224-.5.5-.5l8 0zM5.0615 18l7.877 0-.262-1.049c-.196-.781-.894-1.326-1.698-1.326l-3.957 0c-.804 0-1.502.545-1.698 1.325L5.0615 18zm3.938-8c-1.274 0-2.312 1.037-2.312 2.313 0 1.275 1.038 2.312 2.312 2.312 1.275 0 2.313-1.037 2.313-2.312 0-1.276-1.038-2.313-2.313-2.313zm4.646 6.708l.331 1.321c.059.237.006.481-.143.671-.149.191-.373.3-.615.3l-8.437 0c-.242 0-.466-.109-.615-.3-.149-.19-.202-.434-.144-.67l.331-1.323c.278-1.106 1.201-1.906 2.308-2.052-.601-.599-.974-1.428-.974-2.342C5.6875 10.486 7.1735 9 8.99949543 9 10.8265 9 12.3125 10.486 12.3125 12.313c0 .914-.372 1.743-.973 2.342 1.107.146 2.03.946 2.306 2.053z" fill-rule="evenodd"/></svg>