<?xml version="1.0" encoding="UTF-8"?>
<svg width="22px" height="22px" viewBox="0 0 22 22" version="1.1" xmlns="http://www.w3.org/2000/svg" xmlns:xlink="http://www.w3.org/1999/xlink">
    <!-- Generator: Sketch 63.1 (92452) - https://sketch.com -->
    <title>contact_card_active_22</title>
    <desc>Created with Sketch.</desc>
    <g id="Icons-Webex" stroke="none" stroke-width="1" fill="none" fill-rule="evenodd">
        <g id="contact_card_active_22" fill="#000000" fill-rule="nonzero">
            <g transform="translate(0.000000, 2.000000)">
                <path d="M8.57,10 L5.43,10 C4.87,10 4.4,10.37 4.31,10.88 L4.1,12 L9.9,12 L9.69,10.88 C9.6,10.37 9.13,10 8.57,10 Z" id="Path"></path>
                <circle id="Oval" cx="7" cy="7.5" r="1.5"></circle>
                <path d="M19,0 L3,0 C1.34,0 0,1.34 0,3 L0,15 C0,16.66 1.34,18 3,18 L19,18 C20.66,18 22,16.66 22,15 L22,3 C22,1.34 20.66,0 19,0 Z M10.88,12.82 C10.79,12.93 10.65,13 10.5,13 L3.5,13 C3.35,13 3.21,12.93 3.12,12.82 C3.02,12.71 2.99,12.56 3.01,12.41 L3.33,10.7 C3.48,9.84 4.18,9.19 5.05,9.04 C4.71,8.61 4.5,8.08 4.5,7.5 C4.5,6.12 5.62,5 7,5 C8.38,5 9.5,6.12 9.5,7.5 C9.5,8.08 9.29,8.61 8.96,9.03 C9.83,9.18 10.52,9.84 10.68,10.7 L11,12.41 C11.02,12.55 10.98,12.71 10.88,12.82 Z M18.48,13 L13.48,13 C13.2,13 12.98,12.78 12.98,12.5 C12.98,12.22 13.2,12 13.48,12 L18.48,12 C18.76,12 18.98,12.22 18.98,12.5 C18.98,12.78 18.76,13 18.48,13 Z M18.5,9.5 L12.5,9.5 C12.22,9.5 12,9.28 12,9 C12,8.72 12.22,8.5 12.5,8.5 L18.5,8.5 C18.78,8.5 19,8.72 19,9 C19,9.28 18.78,9.5 18.5,9.5 Z M18.5,6 L11.5,6 C11.22,6 11,5.78 11,5.5 C11,5.22 11.22,5 11.5,5 L18.5,5 C18.78,5 19,5.22 19,5.5 C19,5.78 18.78,6 18.5,6 Z" id="Shape"></path>
            </g>
        </g>
    </g>
</svg>