<svg width="20" height="20" viewBox="0 0 20 20" xmlns="http://www.w3.org/2000/svg"><title>contacts/contact-card_20</title><path d="M19.5719 3.104c.27.398.428.878.428 1.396l0 11c0 1.379-1.121 2.5-2.5 2.5l-15 0c-.862 0-1.623-.437-2.072-1.104-.27-.398-.428-.878-.428-1.396l0-11c0-1.379 1.121-2.5 2.5-2.5l15 0c.862 0 1.623.437 2.072 1.104zm-.572 12.396l0-11c0-.207-.042-.404-.118-.584-.152-.358-.44-.646-.799-.798-.179-.076-.376-.118-.583-.118l-15 0c-.827 0-1.5.673-1.5 1.5l0 11c0 .207.042.404.118.584.153.358.44.646.799.798.179.076.376.118.583.118l15 0c.827 0 1.5-.673 1.5-1.5zm-8.2789-3.42l.256 1.027c.055.215.007.44-.129.617-.138.175-.344.276-.567.276l-6.562 0c-.223 0-.43-.101-.567-.276-.137-.177-.184-.402-.131-.619l.258-1.025c.21-.842.877-1.464 1.696-1.645-.407-.472-.664-1.078-.664-1.747C4.311 7.205 5.517 6 7 6c1.481 0 2.686 1.205 2.686 2.688 0 .669-.254 1.275-.662 1.747.82.181 1.487.803 1.697 1.645zM4.079 13l5.842 0-.17-.678c-.139-.558-.638-.947-1.213-.947l-3.077 0c-.574 0-1.073.389-1.213.947L4.079 13zM7 7c-.932 0-1.689.757-1.689 1.688 0 .93.757 1.687 1.689 1.687.931 0 1.686-.757 1.686-1.687C8.686 7.757 7.931 7 7 7zm9.4999-1c.276 0 .5.224.5.5 0 .276-.224.5-.5.5l-5 0c-.276 0-.5-.224-.5-.5 0-.276.224-.5.5-.5l5 0zm0 7c.276 0 .5.224.5.5 0 .276-.224.5-.5.5l-3 0c-.276 0-.5-.224-.5-.5 0-.276.224-.5.5-.5l3 0zm0-3.5c.276 0 .5.224.5.5 0 .276-.224.5-.5.5l-4 0c-.276 0-.5-.224-.5-.5 0-.276.224-.5.5-.5l4 0z" fill-rule="evenodd"/></svg>