<?xml version="1.0" encoding="UTF-8"?>
<svg width="24px" height="24px" viewBox="0 0 24 24" version="1.1" xmlns="http://www.w3.org/2000/svg" xmlns:xlink="http://www.w3.org/1999/xlink">
    <title>contact-card-active_24</title>
    <g id="contact-card-active_24" stroke="none" stroke-width="1" fill="none" fill-rule="evenodd">
        <path d="M21.5,3 C22.879,3 24,4.122 24,5.5 L24,18.5 C24,19.879 22.879,21 21.5,21 L2.5,21 C1.121,21 0,19.879 0,18.5 L0,5.5 C0,4.122 1.121,3 2.5,3 L21.5,3 Z M7.9995,7 C6.1735,7 4.6875,8.486 4.6875,10.313 C4.6875,11.227 5.0605,12.056 5.6615,12.655 C4.5545,12.801 3.6305,13.601 3.3535,14.707 L3.3535,14.707 L3.0225,16.03 C2.9645,16.266 3.0175,16.51 3.1655,16.7 C3.3155,16.891 3.5395,17 3.7815,17 L3.7815,17 L12.2185,17 C12.4595,17 12.6845,16.891 12.8325,16.7 C12.9825,16.51 13.0355,16.266 12.9765,16.029 L12.9765,16.029 L12.6455,14.708 C12.3695,13.601 11.4465,12.801 10.3395,12.655 C10.9405,12.056 11.3125,11.227 11.3125,10.313 C11.3125,8.486 9.8265,7 7.9995,7 Z M20.5,16 L16.5,16 C16.224,16 16,16.224 16,16.5 C16,16.776 16.224,17 16.5,17 L16.5,17 L20.5,17 C20.776,17 21,16.776 21,16.5 C21,16.224 20.776,16 20.5,16 L20.5,16 Z M20.5156,11.5 L14.5156,11.5 C14.2406,11.5 14.0156,11.724 14.0156,12 C14.0156,12.276 14.2406,12.5 14.5156,12.5 L14.5156,12.5 L20.5156,12.5 C20.7916,12.5 21.0156,12.276 21.0156,12 C21.0156,11.724 20.7916,11.5 20.5156,11.5 L20.5156,11.5 Z M20.5,7 L12.5,7 C12.224,7 12,7.224 12,7.5 C12,7.776 12.224,8 12.5,8 L12.5,8 L20.5,8 C20.776,8 21,7.776 21,7.5 C21,7.224 20.776,7 20.5,7 L20.5,7 Z M7.9995,8 C6.7255,8 5.6875,9.037 5.6875,10.313 C5.6875,11.588 6.7255,12.625 7.9995,12.625 C9.2745,12.625 10.3125,11.588 10.3125,10.313 C10.3125,9.037 9.2745,8 7.9995,8 Z M4.0615,16 L11.9385,16 L11.6765,14.951 C11.4805,14.17 10.7825,13.625 9.9785,13.625 L6.0215,13.625 C5.2175,13.625 4.5195,14.17 4.3235,14.95 L4.0615,16 Z" id="fill" fill="#171B1F"></path>
    </g>
</svg>