<svg width="48" height="48" viewBox="0 0 48 48" xmlns="http://www.w3.org/2000/svg"><title>common-actions/content-share_48</title><path d="M43.5 10c2.481 0 4.5 2.019 4.5 4.5l0 27c0 2.481-2.019 4.5-4.5 4.5l-39 0C2.019 46 0 43.981 0 41.5l0-27C0 12.019 2.019 10 4.5 10l1 0c.276 0 .5.224.5.5 0 .276-.224.5-.5.5l-1 0C2.57 11 1 12.57 1 14.5l0 27C1 43.43 2.57 45 4.5 45l39 0c1.93 0 3.5-1.57 3.5-3.5l0-27c0-1.93-1.57-3.5-3.5-3.5l-1.028 0c-.277 0-.5-.224-.5-.5 0-.276.223-.5.5-.5l1.028 0zm-29.1504 2.8535c-.195.195-.512.195-.707 0-.195-.195-.195-.512 0-.707l9.99-9.98c.092-.101.221-.167.367-.167.147 0 .276.066.368.167l9.986 9.98c.195.195.195.512 0 .707-.098.098-.226.146-.354.146-.128 0-.255-.048-.353-.146l-9.147-9.141 0 23.787c0 .277-.223.5-.5.5-.276 0-.5-.223-.5-.5l0-23.787-9.15 9.141z" fill-rule="evenodd"/></svg>