<svg width="20" height="20" viewBox="0 0 20 20" xmlns="http://www.w3.org/2000/svg"><title>format/copy_20</title><path d="M15.5 4l-7 0C7.119 4 6 5.119 6 6.5l0 11C6 18.881 7.119 20 8.5 20l7 0c1.381 0 2.5-1.119 2.5-2.5l0-11C18 5.119 16.881 4 15.5 4m0 1c.827 0 1.5.673 1.5 1.5l0 11c0 .827-.673 1.5-1.5 1.5l-7 0c-.827 0-1.5-.673-1.5-1.5l0-11C7 5.673 7.673 5 8.5 5l7 0zm-2-5c.275 0 .5.225.5.5 0 .275-.225.5-.5.5l-9 0C3.673 1 3 1.673 3 2.5l0 12c0 .275-.225.5-.5.5-.275 0-.5-.225-.5-.5l0-12C2 1.119 3.119 0 4.5 0l9 0z" fill="#000" fill-rule="evenodd"/></svg>