<svg width="12" height="12" viewBox="0 0 12 12" xmlns="http://www.w3.org/2000/svg"><title>format/copy_12</title><path d="M1.5 9c-.276 0-.5-.224-.5-.5l0-7C1 .673 1.673 0 2.5 0l4 0c.276 0 .5.224.5.5 0 .276-.224.5-.5.5l-4 0c-.276 0-.5.225-.5.5l0 7c0 .276-.224.5-.5.5zm8 3l-5 0c-.827 0-1.5-.673-1.5-1.5l0-7C3 2.673 3.673 2 4.5 2l5 0c.827 0 1.5.673 1.5 1.5l0 7c0 .827-.673 1.5-1.5 1.5zm-5-9c-.276 0-.5.225-.5.5l0 7c0 .275.224.5.5.5l5 0c.276 0 .5-.225.5-.5l0-7c0-.275-.224-.5-.5-.5l-5 0z" fill="#000" fill-rule="evenodd"/></svg>