<svg width="32" height="32" viewBox="0 0 32 32" xmlns="http://www.w3.org/2000/svg"><title>hardware/cpu_32</title><path d="M26 24.0068l0-16.014c0-1.099-.897-1.993-2-1.993l-16 0c-1.103 0-2 .894-2 1.993l0 16.014c0 1.1.897 1.993 2 1.993l16 0c1.103 0 2-.893 2-1.993zm-2-19.007c1.656 0 3 1.339 3 2.993l0 16.014c0 1.653-1.348 2.993-3 2.993l-16 0c-1.656 0-3-1.339-3-2.993l0-16.014c0-1.653 1.348-2.993 3-2.993l16 0zM11.5 28c.275 0 .5.225.5.5l0 2c0 .275-.225.5-.5.5-.275 0-.5-.225-.5-.5l0-2c0-.275.225-.5.5-.5zm3 0c.275 0 .5.225.5.5l0 2c0 .275-.225.5-.5.5-.275 0-.5-.225-.5-.5l0-2c0-.275.225-.5.5-.5zm3 0c.275 0 .5.225.5.5l0 2c0 .275-.225.5-.5.5-.275 0-.5-.225-.5-.5l0-2c0-.275.225-.5.5-.5zm3 0c.275 0 .5.225.5.5l0 2c0 .275-.225.5-.5.5-.275 0-.5-.225-.5-.5l0-2c0-.275.225-.5.5-.5zm-9-24c-.275 0-.5-.225-.5-.5l0-2c0-.275.225-.5.5-.5.275 0 .5.225.5.5l0 2c0 .275-.225.5-.5.5zm3 0c-.275 0-.5-.225-.5-.5l0-2c0-.275.225-.5.5-.5.275 0 .5.225.5.5l0 2c0 .275-.225.5-.5.5zm3 0c-.275 0-.5-.225-.5-.5l0-2c0-.275.225-.5.5-.5.275 0 .5.225.5.5l0 2c0 .275-.225.5-.5.5zm3 0c-.275 0-.5-.225-.5-.5l0-2c0-.275.225-.5.5-.5.275 0 .5.225.5.5l0 2c0 .275-.225.5-.5.5zm10 16c.275 0 .5.225.5.5 0 .275-.225.5-.5.5l-2 0c-.275 0-.5-.225-.5-.5 0-.275.225-.5.5-.5l2 0zm0-3c.275 0 .5.225.5.5 0 .275-.225.5-.5.5l-2 0c-.275 0-.5-.225-.5-.5 0-.275.225-.5.5-.5l2 0zm0-3c.275 0 .5.225.5.5 0 .275-.225.5-.5.5l-2 0c-.275 0-.5-.225-.5-.5 0-.275.225-.5.5-.5l2 0zm-2-2c-.275 0-.5-.225-.5-.5 0-.275.225-.5.5-.5l2 0c.275 0 .5.225.5.5 0 .275-.225.5-.5.5l-2 0zm-25 8c.275 0 .5.225.5.5 0 .275-.225.5-.5.5l-2 0c-.275 0-.5-.225-.5-.5 0-.275.225-.5.5-.5l2 0zm0-3c.275 0 .5.225.5.5 0 .275-.225.5-.5.5l-2 0c-.275 0-.5-.225-.5-.5 0-.275.225-.5.5-.5l2 0zm0-3c.275 0 .5.225.5.5 0 .275-.225.5-.5.5l-2 0c-.275 0-.5-.225-.5-.5 0-.275.225-.5.5-.5l2 0zm0-3c.275 0 .5.225.5.5 0 .275-.225.5-.5.5l-2 0c-.275 0-.5-.225-.5-.5 0-.275.225-.5.5-.5l2 0z" fill-rule="evenodd"/></svg>