<svg width="20" height="20" viewBox="0 0 20 20" fill="none" xmlns="http://www.w3.org/2000/svg">
<g clip-path="url(#clip0)">
<path d="M18.1803 0H12.9743C11.971 0 11.1543 0.816658 11.1543 1.82065V8.88458C11.1543 9.88857 11.971 10.7052 12.9743 10.7052H18.1803C19.1836 10.7052 20.0003 9.88857 20.0003 8.88458V1.82065C20.0003 0.816658 19.1836 0 18.1803 0Z" fill="#121212"/>
<path d="M7.026 0.000244141H1.82067C0.816667 0.000244141 0 0.816902 0 1.82022V5.16686C0 6.17018 0.816667 6.98684 1.82067 6.98684H7.026C8.02933 6.98684 8.846 6.17018 8.846 5.16686V1.82022C8.846 0.816902 8.02933 0.000244141 7.026 0.000244141Z" fill="#121212"/>
<path d="M7.026 9.2948H1.82067C0.816667 9.2948 0 10.1114 0 11.1154V18.1794C0 19.1833 0.816667 20 1.82067 20H7.026C8.02933 20 8.846 19.1833 8.846 18.1794V11.1154C8.846 10.1114 8.02933 9.2948 7.026 9.2948Z" fill="#121212"/>
<path d="M12.9743 13.0127H18.1803C19.1836 13.0127 20.0003 13.8294 20.0003 14.8334V18.1794C20.0003 19.1833 19.1836 20 18.1803 20H12.9743C11.971 20 11.1543 19.1833 11.1543 18.1794V14.8334C11.1543 13.8294 11.971 13.0127 12.9743 13.0127Z" fill="#121212"/>
</g>
<defs>
<clipPath id="clip0">
<rect width="20" height="20" fill="white"/>
</clipPath>
</defs>
</svg>
