<svg width="20" height="20" viewBox="0 0 20 20" xmlns="http://www.w3.org/2000/svg"><title>settings/data-usage_20</title><path d="M1.0254 10.5l2.975 0c.008 0 .016-.005.025-.005.253 3.077 2.833 5.505 5.975 5.505 1.474 0 2.824-.537 3.87-1.423l2.12 2.121c-1.593 1.426-3.689 2.302-5.99 2.302-4.794 0-8.713-3.771-8.975-8.5m8.975-9.5c2.301 0 4.397.876 5.99 2.302l-2.12 2.121C12.8244 4.537 11.4744 4 10.0004 4c-3.142 0-5.722 2.428-5.975 5.505-.009 0-.017-.005-.025-.005l-2.975 0c.262-4.729 4.181-8.5 8.975-8.5m5 9c0 2.757-2.243 5-5 5-2.757 0-5-2.243-5-5 0-2.757 2.243-5 5-5 2.757 0 5 2.243 5 5m1.697 5.991l-2.12-2.121c.886-1.045 1.423-2.395 1.423-3.87 0-1.475-.537-2.825-1.423-3.87l2.12-2.121c1.427 1.594 2.303 3.689 2.303 5.991 0 2.302-.876 4.397-2.303 5.991M10.0004 0c-5.514 0-10 4.486-10 10 0 5.514 4.486 10 10 10 5.514 0 10-4.486 10-10 0-5.514-4.486-10-10-10" fill="#000" fill-rule="evenodd"/></svg>