<svg width="24" height="24" viewBox="0 0 24 24" xmlns="http://www.w3.org/2000/svg"><title>settings/data-usage_24</title><path d="M1.0254 12.5l3 0c.26 4.178 3.732 7.5 7.975 7.5 2.025 0 3.872-.764 5.283-2.009l2.121 2.12c-1.957 1.787-4.551 2.889-7.404 2.889-5.897 0-10.711-4.668-10.975-10.5M12.0004 1c2.853 0 5.447 1.102 7.404 2.889l-2.121 2.12C15.8724 4.764 14.0254 4 12.0004 4c-4.243 0-7.715 3.322-7.975 7.5l-3 0C1.2894 5.668 6.1034 1 12.0004 1m7 11c0 3.859-3.141 7-7 7-3.86 0-7-3.141-7-7 0-3.859 3.14-7 7-7 3.859 0 7 3.141 7 7m1.111 7.404l-2.121-2.12c1.246-1.411 2.01-3.258 2.01-5.284 0-2.026-.764-3.873-2.01-5.284l2.121-2.12c1.788 1.957 2.889 4.55 2.889 7.404 0 2.854-1.101 5.447-2.889 7.404M12.0004 0c-6.617 0-12 5.383-12 12 0 6.617 5.383 12 12 12 6.616 0 12-5.383 12-12 0-6.617-5.384-12-12-12" fill="#000" fill-rule="evenodd"/></svg>