<svg width="16" height="16" viewBox="0 0 16 16" xmlns="http://www.w3.org/2000/svg"><title>settings/data-usage_16</title><path d="M13.2842 12.5771l-1.401-1.401c-.011-.011-.024-.014-.035-.023.708-.864 1.152-1.952 1.152-3.153 0-1.201-.444-2.29-1.152-3.153.011-.009.024-.013.035-.023l1.401-1.401c1.065 1.228 1.716 2.826 1.716 4.577 0 1.75-.651 3.348-1.716 4.577m-5.284 2.423c-3.86 0-7-3.14-7-7l2 0c0 2.757 2.243 5 5 5 1.201 0 2.289-.444 3.153-1.152.009.011.012.024.023.035l1.401 1.401c-1.229 1.065-2.827 1.716-4.577 1.716m4-7c0 2.205-1.795 4-4 4-2.206 0-4-1.795-4-4 0-2.206 1.794-4 4-4 2.205 0 4 1.794 4 4m-4-7c1.75 0 3.348.65 4.577 1.716l-1.401 1.401c-.011.01-.014.024-.023.035-.864-.709-1.952-1.152-3.153-1.152-2.415 0-4.434 1.721-4.899 4l-2.021 0c.487-3.387 3.4-6 6.92-6m0-1c-4.411 0-8 3.589-8 8 0 4.411 3.589 8 8 8 4.411 0 8-3.589 8-8 0-4.411-3.589-8-8-8" fill="#000" fill-rule="evenodd"/></svg>