<svg width="14" height="14" viewBox="0 0 14 14" xmlns="http://www.w3.org/2000/svg"><title>phone/deskphone_14</title><path d="M13 5l0-1.3c0-.386-.314-.7-.7-.7L5.7 3c-.386 0-.7.314-.7.7L5 5l8 0zm0 5.3L13 6 5 6l0 4.3c0 .386.314.7.7.7l6.6 0c.386 0 .7-.314.7-.7zM12.3 2c.938 0 1.699.76 1.7 1.697l0 6.603c0 .939-.761 1.7-1.7 1.7l-6.6 0c-.938 0-1.699-.76-1.7-1.697L4 3.7C4 2.761 4.761 2 5.7 2l6.6 0zM7 8c-.276 0-.5-.224-.5-.5 0-.276.224-.5.5-.5.276 0 .5.224.5.5 0 .276-.224.5-.5.5zm2 0c-.276 0-.5-.224-.5-.5 0-.276.224-.5.5-.5.276 0 .5.224.5.5 0 .276-.224.5-.5.5zm2 0c-.276 0-.5-.224-.5-.5 0-.276.224-.5.5-.5.276 0 .5.224.5.5 0 .276-.224.5-.5.5zm-4 2c-.276 0-.5-.224-.5-.5 0-.276.224-.5.5-.5.276 0 .5.224.5.5 0 .276-.224.5-.5.5zm2 0c-.276 0-.5-.224-.5-.5 0-.276.224-.5.5-.5.276 0 .5.224.5.5 0 .276-.224.5-.5.5zm2 0c-.276 0-.5-.224-.5-.5 0-.276.224-.5.5-.5.276 0 .5.224.5.5 0 .276-.224.5-.5.5zm-9 .5l0-7c0-.271-.229-.5-.5-.5-.271 0-.5.229-.5.5l0 7c0 .271.229.5.5.5.271 0 .5-.229.5-.5zM1.5 2C2.325 2 3 2.675 3 3.5l0 7c0 .825-.675 1.5-1.5 1.5-.825 0-1.5-.675-1.5-1.5l0-7C0 2.675.675 2 1.5 2z" fill-rule="evenodd"/></svg>