<svg width="20" height="20" viewBox="0 0 20 20" xmlns="http://www.w3.org/2000/svg"><title>phone/deskphone_20</title><path d="M2 2c1.1 0 2 .9 2 2l0 12c0 1.1-.9 2-2 2-1.1 0-2-.9-2-2L0 4c0-1.1.9-2 2-2zm1 14L3 4c0-.551-.449-1-1-1-.551 0-1 .449-1 1l0 12c0 .551.449 1 1 1 .551 0 1-.449 1-1zM17.5 2C18.881 2 20 3.119 20 4.5L20 9l0 1 0 5.5c0 1.381-1.119 2.5-2.5 2.5l-10 0C6.119 18 5 16.881 5 15.5L5 10l0-1 0-4.5C5 3.119 6.119 2 7.5 2l10 0zM6 9l13 0 0-4.5c0-.827-.673-1.5-1.5-1.5l-10 0C6.673 3 6 3.673 6 4.5L6 9zm13 6.5l0-5.5-13 0 0 5.5c0 .827.673 1.5 1.5 1.5l10 0c.827 0 1.5-.673 1.5-1.5zM12.5 13c-.276 0-.5-.224-.5-.5 0-.276.224-.5.5-.5.276 0 .5.224.5.5 0 .276-.224.5-.5.5zm0 2c-.276 0-.5-.224-.5-.5 0-.276.224-.5.5-.5.276 0 .5.224.5.5 0 .276-.224.5-.5.5zm-3 0c-.276 0-.5-.224-.5-.5 0-.276.224-.5.5-.5.276 0 .5.224.5.5 0 .276-.224.5-.5.5zm0-2c-.276 0-.5-.224-.5-.5 0-.276.224-.5.5-.5.276 0 .5.224.5.5 0 .276-.224.5-.5.5zm6 0c-.276 0-.5-.224-.5-.5 0-.276.224-.5.5-.5.276 0 .5.224.5.5 0 .276-.224.5-.5.5zm0 2c-.276 0-.5-.224-.5-.5 0-.276.224-.5.5-.5.276 0 .5.224.5.5 0 .276-.224.5-.5.5z" fill="#000" fill-rule="evenodd"/></svg>