<svg width="18" height="18" viewBox="0 0 18 18" xmlns="http://www.w3.org/2000/svg"><title>network/device-connection_18</title><path d="M16 2c1.103 0 2 .897 2 2l0 10c0 1.103-.897 2-2 2l-4.5 0c-.276 0-.5-.224-.5-.5 0-.276.224-.5.5-.5l4.5 0c.551 0 1-.449 1-1l0-10c0-.551-.449-1-1-1L2 3c-.551 0-1 .449-1 1l0 .5c0 .276-.224.5-.5.5-.276 0-.5-.224-.5-.5L0 4c0-1.103.897-2 2-2l14 0zM.5 15c.276 0 .5.224.5.5 0 .276-.224.5-.5.5-.276 0-.5-.224-.5-.5 0-.276.224-.5.5-.5zm0-4C2.981 11 5 13.019 5 15.5c0 .276-.224.5-.5.5-.276 0-.5-.224-.5-.5C4 13.57 2.43 12 .5 12c-.276 0-.5-.224-.5-.5 0-.276.224-.5.5-.5zm0-4C5.187 7 9 10.813 9 15.5c0 .276-.224.5-.5.5-.276 0-.5-.224-.5-.5C8 11.364 4.636 8 .5 8 .224 8 0 7.776 0 7.5c0-.276.224-.5.5-.5z" fill="#000" fill-rule="evenodd"/></svg>