<?xml version="1.0" encoding="UTF-8"?>
<svg width="20px" height="20px" viewBox="0 0 20 20" version="1.1" xmlns="http://www.w3.org/2000/svg" xmlns:xlink="http://www.w3.org/1999/xlink">
    <!-- Generator: Sketch 60.1 (88133) - https://sketch.com -->
    <title>network/device-connection-active_20</title>
    <desc>Created with Sketch.</desc>
    <g id="network/device-connection-active_20" stroke="none" stroke-width="1" fill="none" fill-rule="evenodd">
        <path d="M17.852,2 L2.147,2 C0.963,2 -2.0250468e-13,2.997 -2.0250468e-13,4.223 L-2.0250468e-13,15.777 C-2.0250468e-13,17.003 0.963,18 2.147,18 L17.852,18 C19.035,18 19.998,17.003 19.998,15.777 L19.998,4.223 C19.998,2.997 19.035,2 17.852,2 M10,16.5 C9.724,16.5 9.5,16.276 9.5,16 C9.5,11.864 6.136,8.5 2,8.5 C1.724,8.5 1.5,8.276 1.5,8 C1.5,7.724 1.724,7.5 2,7.5 C6.687,7.5 10.5,11.313 10.5,16 C10.5,16.276 10.276,16.5 10,16.5 M6.444,16.5 C6.168,16.5 5.944,16.276 5.944,16 C5.944,13.825 4.175,12.056 2,12.056 C1.724,12.056 1.5,11.832 1.5,11.556 C1.5,11.279 1.724,11.056 2,11.056 C4.727,11.056 6.944,13.274 6.944,16 C6.944,16.276 6.721,16.5 6.444,16.5 M2.5,16 C2.224,16 2,15.776 2,15.5 C2,15.224 2.224,15 2.5,15 C2.776,15 3,15.224 3,15.5 C3,15.776 2.776,16 2.5,16" id="fill" fill="#171B1F"></path>
    </g>
</svg>