<svg width="12" height="12" viewBox="0 0 12 12" xmlns="http://www.w3.org/2000/svg"><title>network/device-connection_12</title><path d="M1.5 1l9 0c.827 0 1.5.673 1.5 1.5l0 7c0 .827-.673 1.5-1.5 1.5l-4 0c-.276 0-.5-.224-.5-.5 0-.276.224-.5.5-.5l4 0c.276 0 .5-.225.5-.5l0-7c0-.275-.224-.5-.5-.5l-9 0c-.276 0-.5.225-.5.5l0 2c0 .276-.224.5-.5.5-.276 0-.5-.224-.5-.5l0-2C0 1.673.673 1 1.5 1zm-1 9c.276 0 .5.224.5.5 0 .276-.224.5-.5.5-.276 0-.5-.224-.5-.5 0-.276.224-.5.5-.5zm0-2C1.878 8 3 9.121 3 10.5c0 .276-.224.5-.5.5-.276 0-.5-.224-.5-.5C2 9.673 1.327 9 .5 9 .224 9 0 8.776 0 8.5c0-.276.224-.5.5-.5zm0-2C2.981 6 5 8.019 5 10.5c0 .276-.224.5-.5.5-.276 0-.5-.224-.5-.5C4 8.57 2.43 7 .5 7 .224 7 0 6.776 0 6.5c0-.276.224-.5.5-.5z" fill="#000" fill-rule="evenodd"/></svg>