<svg width="58" height="56" viewBox="0 0 58 56" xmlns="http://www.w3.org/2000/svg"><title>meetings/device-in-room_56</title><path d="M56.7033302 41.508c-.2669949.333-.6669873.524-1.100979.524l-9.4318202 0C44.7325584 38.431 41.1586265 36 37.087704 36l-3.7879278 0c3.3479362-1.618 5.669892-5.038 5.669892-9 0-.683-.0699987-1.351-.2009962-1.996l13.9277346 0c.6599874 0 1.2199767.44 1.3609741 1.057l2.9089445 14.317c.0899983.397-.0059999.809-.262995 1.13zm-9.7688138 7.729c.0629988.241-.0399992.422-.105998.508-.1259976.162-.3189939.255-.5309899.255l-34.686339 0c-.2119959 0-.4049923-.093-.5299899-.254-.0659987-.086-.1699968-.267-.103998-.522l1.3549742-5.824c.9739814-3.768 4.4649149-6.4 8.4888382-6.4l16.26669 0c4.0239234 0 7.5148568 2.632 8.4858383 6.388l1.3609741 5.849zM2.39636511 42.039c-.43299175 0-.83498409-.191-1.10097902-.525-.25599512-.32-.351993295-.732-.25999505-1.138l2.98994303-14.312c.13999733-.618.71298641-1.067 1.363974-1.067l13.78273733 0c-.1319975.647-.2019961 1.317-.2019961 2.003 0 3.962 2.3209558 7.382 5.6698919 9l-3.8189272 0c-4.0699224 0-7.6438543 2.43-9.0838269 6.039l-9.34082199 0zm6.59287436-22.063c.51799013-2.309 2.83194603-3.983 5.50189513-3.983l2.8489457 0c.0489991.001.0959982.007.1449973.007.048999 0 .0959981-.006.1449972-.007l2.5939506 0c1.8049656 0 3.4409344.769 4.4749147 1.978-2.4929525 1.185-4.4259156 3.361-5.2668996 6.026l-11.36278349 0 .91998246-4.021zM12.9851633 10.5c0-2.481 2.0179616-4.5 4.4999143-4.5 2.4809527 0 4.4999142 2.019 4.4999142 4.5 0 2.457-1.9799622 4.453-4.4279156 4.493l-.1449972 0c-2.4469534-.04-4.4269157-2.036-4.4269157-4.493zM28.9698587 18c4.9629055 0 8.9998285 4.038 8.9998285 9 0 4.963-4.036923 9-8.9998285 9-4.9629054 0-8.9998285-4.037-8.9998285-9 0-4.962 4.0369231-9 8.9998285-9zm8.7598331-2.007l2.5949505 0c.0489991.001.0959982.007.1449973.007.0479991 0 .0959982-.006.1439972-.007l2.8499457 0c2.6699492 0 4.9829051 1.674 5.5018952 3.983l.9219824 4.028-11.3937829 0c-.838984-2.659-2.7529475-4.84-5.2399001-6.026 1.0329803-1.212 2.6689491-1.985 4.4759147-1.985zM35.9697253 10.5c0-2.481 2.0179616-4.5 4.4999143-4.5 2.4809527 0 4.4999142 2.019 4.4999142 4.5 0 2.457-1.9809622 4.453-4.4279156 4.493l-.1449972 0c-2.4469534-.04-4.4269157-2.036-4.4269157-4.493zm21.9735813 29.668L55.034362 25.851c-.2469953-1.088-1.2079769-1.847-2.3379554-1.847l-1.783966 0-.9719815-4.249c-.6089884-2.714-3.2569379-4.686-6.3258794-4.75 1.4209729-.996 2.3549551-2.642 2.3549551-4.505 0-3.033-2.467953-5.5-5.4998952-5.5-3.0329422 0-5.4998952 2.467-5.4998952 5.5 0 1.874.942982 3.53 2.3779547 4.523-2.0669606.11-3.9079256 1.089-5.0429039 2.561-1.0449801-.371-2.1649588-.584-3.3349365-.584-1.1659778 0-2.2799565.211-3.3209367.579-1.1359783-1.47-2.9769433-2.446-5.0429039-2.556 1.4349727-.993 2.3789547-2.649 2.3789547-4.523 0-3.033-2.467953-5.5-5.4998952-5.5-3.0319422 0-5.4998952 2.467-5.4998952 5.5 0 1.863.9329822 3.509 2.3539551 4.505-3.0679415.064-5.71689103 2.036-6.32587943 4.75l-.96998151 4.242-1.65396849 0c-1.13097844 0-2.09296011.759-2.33995541 1.855L.0584096595 40.164c-.1579969892.695.0079998476 1.414.4559913105 1.974.456991292.573 1.14297822.901 1.88196414.901l9.00182849 0c-.0119998.042-.0269995.081-.0379993.123l-1.3539742 5.824c-.12399764.479-.01999962.979.2849946 1.372.314994.408.7969848.642 1.3199748.642l34.686339 0c.5229901 0 1.0059809-.234 1.3209749-.642.3049941-.394.4079922-.894.2879945-1.36l-1.3609741-5.848c-.0109998-.04-.0249995-.078-.0359993-.118l9.0928267 0c.7399859 0 1.4249729-.328 1.8819642-.9.4479914-.56.6139883-1.279.4589912-1.964z" fill="#000" fill-rule="evenodd"/></svg>