<svg width="10" height="8" viewBox="0 0 10 8" xmlns="http://www.w3.org/2000/svg"><title>meetings/device-in-room_8</title><path d="M6.71556887 5c.173-.296.284-.633.284-1l1.098 0c.344 0 .643.241.725.575l.093.425-2.2 0zm-3.642 2l.091-.414c.085-.345.384-.586.727-.586l2.198 0c.344 0 .643.241.725.575l.094.425-3.835 0zm-1.99-2l.091-.414c.084-.345.383-.586.726-.586l1.099 0c0 .367.112.704.285 1l-2.201 0zm1.926-4c.551 0 1 .449 1 1 0 .108-.03.208-.062.306-.258.16-.475.376-.637.633-.097.031-.194.061-.301.061-.552 0-1-.449-1-1 0-.551.448-1 1-1zm1.99 2c.552 0 1 .449 1 1 0 .551-.448 1-1 1-.551 0-1-.449-1-1 0-.551.449-1 1-1zm2.008-2c.552 0 1 .449 1 1 0 .551-.448 1-1 1-.113 0-.218-.03-.32-.065-.158-.249-.367-.46-.616-.619-.034-.1-.064-.204-.064-.316 0-.551.449-1 1-1zm2.975 4.194l-.187-.845c-.145-.595-.575-1.056-1.119-1.249.208-.316.331-.693.331-1.1 0-1.105-.895-2-2-2-1.101 0-1.994.891-1.999 1.992-.005-1.101-.897-1.992-1.999-1.992-1.105 0-2 .895-2 2 0 .405.122.781.33 1.096C.786568869 3.287.349568869 3.75.200568869 4.36l-.1809999999.822c-.049.198-.005.405.1209999999.566.125.16.313.252.516.252L2.32856887 6c-.056.114-.106.232-.138.36l-.18.822c-.05.198-.006.405.121.566.125.16.313.252.515.252l4.688 0c.202 0 .39-.091.515-.25.126-.161.171-.367.125-.556l-.187-.845c-.03-.124-.079-.238-.132-.349l1.687 0c.202 0 .39-.091.515-.25.126-.161.17100003-.367.125-.556z" fill="#000" fill-rule="evenodd"/></svg>