<svg width="28" height="24" viewBox="0 0 28 24" xmlns="http://www.w3.org/2000/svg"><title>meetings/device-in-room-active_24</title><path d="M8.997 14.3096c-1.48.54-2.694 1.759-3.234 3.373l-.01.028-.008.029-.269 1-.062.26-3.913 0c-.464 0-.897-.21-1.183-.576-.285-.366-.385-.836-.273-1.287l1.406-5.622c.197-.792.85-1.368 1.637-1.488l.005-.027 4.997 0c-.055.327-.09.659-.09 1 0 .274.024.541.06.806.009.065.019.128.03.191.043.257.096.51.172.754 0 .003.001.006.002.009.078.257.178.504.289.745.019.042.041.084.06.126.115.235.241.463.384.679zm9.6885-7.0518c.075-.036.142-.087.222-.115-.559-.545-.909-1.303-.909-2.143 0-1.654 1.347-3 3-3 1.656 0 3 1.346 3 3 0 .84-.347 1.598-.907 2.143.813.286 1.442.978 1.623 1.857l-5.063 0c-.226-.637-.552-1.224-.966-1.742zm9.2695 9.8789c.112.451.012.921-.273 1.287-.287.366-.719.576-1.184.576l-3.912 0-.054-.228-.278-1.032-.008-.029-.01-.028c-.539-1.614-1.753-2.833-3.233-3.373 0 0 .001-.001.001-.002.142-.215.267-.442.382-.676.02-.043.042-.085.061-.128.112-.241.211-.487.289-.744.001-.003.002-.007.003-.011.074-.243.128-.495.171-.751.011-.064.021-.128.029-.192.037-.265.061-.532.061-.806 0-.342-.035-.674-.09-1l5.002 0 .005.028c.785.121 1.434.697 1.632 1.487l1.406 5.622zM9.3154 7.2559c-.414.519-.741 1.106-.967 1.744l-5.057 0c.18-.879.809-1.571 1.622-1.857-.56-.545-.909-1.303-.909-2.143 0-1.654 1.346-3 3-3 1.656 0 3 1.346 3 3 0 .84-.348 1.598-.907 2.143.078.028.145.077.219.113l-.001 0zM21.5586 19l.414 1.765c.07.308.002.624-.192.869-.184.233-.457.366-.749.366l-14.063 0c-.292 0-.565-.133-.749-.366-.194-.245-.263-.561-.191-.869L6.4406 19l.27-1c.597-1.782 2.176-3 3.993-3l.324 0c-1.224-.911-2.028-2.356-2.028-4 0-2.762 2.239-5 5-5 2.762 0 5 2.238 5 5 0 1.644-.803 3.089-2.027 4l.324 0c1.817 0 3.396 1.218 3.991 3l.271 1z" fill-rule="evenodd"/></svg>