<svg width="100" height="100" viewBox="0 0 100 100" xmlns="http://www.w3.org/2000/svg"><title>meetings/device-in-room_100</title><path d="M98.4351978 72.106c-.4579971.568-1.1309929.894-1.8449885.894L73.393354 73c-2.0529871-4.796-6.8019575-8-12.1829239-8l-5.6959645 0c6.1089619-2.254 10.4849346-8.118 10.4849346-15 0-1.027-.1059994-2.028-.2919982-3l26.3588355 0c1.135993 0 2.1019869.803 2.3499854 1.955l4.5239718 21c.1649989.765-.0189999 1.549-.5049969 2.151zM74.9663442 82.654c.0819995.323.011.661-.1959987.925-.2079987.267-.5229968.421-.8649946.421l-47.8107018 0c-.3419978 0-.6569959-.154-.8659946-.421-.2059987-.264-.2769982-.602-.1949987-.925l1.8709883-7.438C28.2706356 69.79 33.1576051 66 38.7895699 66l22.4208602 0c5.6319648 0 10.5189343 3.79 11.8849258 9.216l1.8709883 7.438zM3.40979068 73c-.71399555 0-1.38699135-.326-1.84498849-.894-.48599697-.602-.670995817-1.386-.50499685-2.151l4.52297178-21C5.83077557 47.803 6.79776954 47 7.93376245 47L34.291598 47c-.1849988.972-.2919982 1.973-.2919982 3 0 6.882 4.3769727 12.746 10.4859346 15l-5.6959645 0c-5.3809664 0-10.1299368 3.204-12.1829239 8L3.40979068 73zM17.1147052 39.265c.7799951-3.1 3.5729777-5.265 6.7909576-5.265l13.1889177 0c1.9409879 0 3.7119769.801 4.9919689 2.112-3.6999769 2.116-6.4669597 5.665-7.5599529 9.888l-19.2088801 0 1.7969888-6.735zM21.9996747 24.5c0-4.687 3.8129762-8.5 8.499947-8.5 4.6869707 0 8.4999469 3.813 8.4999469 8.5 0 4.686-3.8129762 8.5-8.4999469 8.5-4.6869708 0-8.499947-3.814-8.499947-8.5zM64.9994064 50c0 8.271-6.728958 15-14.9999064 15-8.2709484 0-14.9999064-6.729-14.9999064-15 0-8.272 6.728958-15 14.9999064-15 8.2709484 0 14.9999064 6.728 14.9999064 15zm-2.0939869-16l13.1889177 0c3.2179799 0 6.0099625 2.165 6.7929576 5.272L84.6822836 46l-19.2088801 0c-1.0929932-4.223-3.8609759-7.772-7.5609529-9.889 1.279992-1.31 3.050981-2.111 4.9929689-2.111zm-1.9059881-9.5c0-4.687 3.8129762-8.5 8.4999469-8.5 4.6869708 0 8.499947 3.813 8.499947 8.5 0 4.686-3.8129762 8.5-8.499947 8.5-4.6869707 0-8.4999469-3.814-8.4999469-8.5zm38.9187572 45.244l-4.5239718-21C95.046219 47.128 93.6772275 46 92.0662375 46l-6.3499603 0-1.8609884-6.979C82.9622943 35.476 79.7713143 33 76.0943372 33l-2.3779852 0c3.1259805-1.557 5.2829671-4.778 5.2829671-8.5 0-5.239-4.2609734-9.5-9.4999408-9.5-5.2379673 0-9.4999407 4.261-9.4999407 9.5 0 3.722 2.1579866 6.943 5.283967 8.5l-2.3779851 0c-2.3259855 0-4.4499723 1-5.926963 2.625C54.8664696 34.594 52.5034844 34 49.9995 34c-2.5039844 0-4.8669696.594-6.9789565 1.625C41.5415528 34 39.419566 33 37.0945805 33l-2.3779851 0c3.1259804-1.557 5.282967-4.778 5.282967-8.5 0-5.239-4.2609734-9.5-9.4999407-9.5-5.2379674 0-9.4999408 4.261-9.4999408 9.5 0 3.722 2.1579866 6.943 5.2839671 8.5l-2.3779852 0c-3.6769771 0-6.8679571 2.476-7.7589516 6.014L14.2837228 46l-6.34996035 0c-1.61098995 0-2.97998141 1.128-3.32797924 2.744l-4.5239717713 21c-.2289985717 1.062.0279998253 2.152.7049956013 2.99C1.43580299 73.539 2.39179703 74 3.40979068 74l22.81485762 0c-.1069993.318-.2059987.642-.2899982.972l-1.8709883 7.438c-.156999.625-.0199999 1.275.3759977 1.783.3999975.513 1.0029937.807 1.6549896.807l47.8107018 0c.6519959 0 1.2549921-.294 1.6549896-.807.3959976-.508.5329967-1.158.3759977-1.783l-1.8719883-7.438c-.0829995-.33-.1819989-.654-.2889982-.972l22.8148576 0c1.0179937 0 1.9739877-.461 2.6229837-1.266.6769957-.838.933994-1.928.7049956-2.99z" fill-rule="evenodd"/></svg>