<svg width="14" height="14" viewBox="0 0 14 14" fill="none" xmlns="http://www.w3.org/2000/svg">
<path fill-rule="evenodd" clip-rule="evenodd" d="M12.5 12H6.5C6.224 12 6 11.776 6 11.5C6 11.224 6.224 11 6.5 11H12.5C12.776 11 13 10.775 13 10.5V3.5C13 3.225 12.776 3 12.5 3H1.5C1.224 3 1 3.225 1 3.5V5.5C1 5.776 0.776 6 0.5 6C0.224 6 0 5.776 0 5.5V3.5C0 2.673 0.673 2 1.5 2H12.5C13.327 2 14 2.673 14 3.5V10.5C14 11.327 13.327 12 12.5 12V12ZM1 11.5C1 11.776 0.776 12 0.5 12C0.224 12 0 11.776 0 11.5C0 11.224 0.224 11 0.5 11C0.776 11 1 11.224 1 11.5M2.5 12C2.224 12 2 11.776 2 11.5C2 10.673 1.327 10 0.5 10C0.224 10 0 9.776 0 9.5C0 9.224 0.224 9 0.5 9C1.878 9 3 10.121 3 11.5C3 11.776 2.776 12 2.5 12M4.5 12C4.224 12 4 11.776 4 11.5C4 9.57 2.43 8 0.5 8C0.224 8 0 7.776 0 7.5C0 7.224 0.224 7 0.5 7C2.981 7 5 9.019 5 11.5C5 11.776 4.776 12 4.5 12" fill="#121212"/>
</svg>
