<svg width="14" height="14" viewBox="0 0 14 14" xmlns="http://www.w3.org/2000/svg"><title>network/device-connection_14</title><path d="M12.5 12l-6 0c-.276 0-.5-.224-.5-.5 0-.276.224-.5.5-.5l6 0c.276 0 .5-.225.5-.5l0-7c0-.275-.224-.5-.5-.5l-11 0c-.276 0-.5.225-.5.5l0 2c0 .276-.224.5-.5.5-.276 0-.5-.224-.5-.5l0-2C0 2.673.673 2 1.5 2l11 0c.827 0 1.5.673 1.5 1.5l0 7c0 .827-.673 1.5-1.5 1.5zM1 11.5c0 .276-.224.5-.5.5-.276 0-.5-.224-.5-.5 0-.276.224-.5.5-.5.276 0 .5.224.5.5zm1.5.5c-.276 0-.5-.224-.5-.5 0-.827-.673-1.5-1.5-1.5-.276 0-.5-.224-.5-.5 0-.276.224-.5.5-.5C1.878 9 3 10.121 3 11.5c0 .276-.224.5-.5.5zm2 0c-.276 0-.5-.224-.5-.5C4 9.57 2.43 8 .5 8 .224 8 0 7.776 0 7.5c0-.276.224-.5.5-.5C2.981 7 5 9.019 5 11.5c0 .276-.224.5-.5.5z" fill="#000" fill-rule="evenodd"/></svg>