<svg width="18" height="18" viewBox="0 0 18 18" xmlns="http://www.w3.org/2000/svg"><title>meetings/device-in-room_18</title><path d="M13.5553453 13c-.3695604-1.115-1.2814758-1.887-2.3532011-1.98.4884191-.534.7950544-1.237.7950544-2.016l4.223976.028.7800722 3.968-3.4459015 0zm-8.50188789 2l.28865668-1.457c.1997624-.908.89593437-1.543 1.69198755-1.543l3.95229916 0c.797052 0 1.4922251.635 1.6909887 1.533L12.967045 15l-7.91358759 0zM1.77635518 9l4.22897008 0c0 .781.30663529 1.487.79705199 2.021-1.05874073.1-1.96066799.872-2.33222606 1.979l-3.4498967 0 .75610069-4zm1.3214283-2.089C3.20365756 6.383 3.67010277 6 4.20846245 6l1.61408022 0c.51738462 0 .96085716.359 1.08870509.857-.32361509.317-.56732522.707-.72214108 1.143L2.88004246 8l.21774102-1.089zM5.01550256 3c.55034542 0 .99881201.448.99881201 1 0 .552-.44846659 1-.99881201 1-.55134424 0-.99881202-.448-.99881202-1 0-.552.44746778-1 .99881202-1zm5.98388274 6c0 1.103-.8959343 2-1.99762398 2-1.10168966 0-1.99762404-.897-1.99762404-2 0-1.103.89593438-2 1.99762404-2 1.10168968 0 1.99762398.897 1.99762398 2zm1.2025697-3l1.6140802 0c.5373609 0 1.0048049.384 1.110679.911L15.1434564 8l-3.3300393 0c-.1518194-.429-.3885378-.816-.7061601-1.131.1218551-.505.5713205-.869 1.094698-.869zm.8070401-3c.5503454 0 .998812.448.998812 1 0 .552-.4484666 1-.998812 1-.5513442 0-.998812-.448-.998812-1 0-.552.4474678-1 .998812-1zm4.1920141 5.837C17.1041244 8.352 16.6936127 8 16.224171 8l-.0619263 0-.2566947-1.284c-.1428301-.714-.6392397-1.283-1.2814758-1.55.2377172-.328.382545-.729.382545-1.166 0-1.103-.8959344-2-1.9976241-2-1.1016896 0-1.997624.897-1.997624 2 0 .437.1438289.838.3815462 1.166-.5053989.21-.9169094.607-1.1396445 1.117C9.87172658 6.105 9.45022791 6 9.00176132 6c-.44147492 0-.85797953.102-1.23553047.274-.22373389-.504-.63324682-.899-1.13564926-1.108.23771726-.328.382545-.729.382545-1.166 0-1.103-.89593438-2-1.99762403-2-1.10168966 0-1.99762404.897-1.99762404 2 0 .437.14382893.838.382545 1.166-.64323493.267-1.13964451.835-1.28147581 1.549L1.86125421 8l-.08489903 0c-.46944164 0-.880952195.352-.976838148.837l-.7770757494 3.89c-.0659215931.326.0149821803.657.2217362674.909.189774284.231.464447588.364.755101885.364l3.234153315 0-.19676597.997c-.05493466.25.00699168.517.16380517.713.14882299.185.3655652.29.59629077.29l8.42697698 0c.2307256 0 .4484666-.105.5962908-.29.1578123-.196.2187398-.463.1668016-.704L13.7870697 14l3.2141771 0c.2896554 0 .5653276-.133.7551018-.364.2057553-.252.2866591-.583.2217363-.909l-.7770757-3.89z" fill="#000" fill-rule="evenodd"/></svg>