<svg width="100" height="100" viewBox="0 0 100 100" xmlns="http://www.w3.org/2000/svg"><title>settings/diagnostics-circle_100</title><path d="M50 0c27.57 0 50 22.43 50 50 0 27.57-22.43 50-50 50-27.57 0-50-22.43-50-50C0 22.43 22.43 0 50 0zm0 99c27.019 0 49-21.981 49-49C99 22.981 77.019 1 50 1 22.981 1 1 22.981 1 50c0 27.019 21.981 49 49 49zm29-50.998c.276 0 .5.224.5.5 0 .276-.224.5-.5.5l-10.887 0c-.455 0-.865.274-1.073.717l-6.526 14.978c-.38.81-1.138 1.306-1.985 1.306-.846 0-1.604-.496-1.978-1.294L42.546 35.738c-.213-.454-.614-.722-1.075-.722-.462 0-.863.268-1.074.716L33.852 47.74c-.36.771-1.119 1.266-1.965 1.266l-10.887 0c-.276 0-.5-.224-.5-.5 0-.276.224-.5.5-.5l10.887 0c.455 0 .865-.275 1.073-.717l6.546-12.008c.36-.77 1.118-1.265 1.965-1.265.846 0 1.604.495 1.978 1.293l14.005 28.97c.213.455.614.724 1.075.724.461 0 .863-.269 1.074-.718l6.526-14.978c.379-.81 1.138-1.305 1.984-1.305l10.887 0z" fill="#000" fill-rule="evenodd"/></svg>