<svg width="16" height="16" viewBox="0 0 16 16" xmlns="http://www.w3.org/2000/svg"><title>settings/diagnostics_16</title><path d="M5.9487 4.96537c0 .001 0 .001 0 .001l0-.001zm4.104 6.068l.001.001c0-.001-.001-.001-.001-.001zm-.053.966c-.359 0-.681-.199-.842-.52l-3.158-6.409-1.85 3.424c-.153.308-.475.507-.834.507l-2.816 0c-.276 0-.5-.223-.5-.5 0-.276.224-.5.5-.5l2.816 0 1.852-3.494c.153-.307.475-.508.834-.508l.001 0c.359 0 .681.2.842.522l3.157 6.408 1.848-3.421c.154-.308.476-.507.835-.507l2.815 0c.277 0 .5.224.5.5 0 .277-.223.5-.5.5l-2.815 0-1.851 3.491c-.153.308-.475.507-.834.507z" fill="#000" fill-rule="evenodd"/></svg>