<svg width="14" height="14" viewBox="0 0 14 14" fill="none" xmlns="http://www.w3.org/2000/svg">
<path fill-rule="evenodd" clip-rule="evenodd" d="M2 1C2 0.448 2.448 0 3 0C3.552 0 4 0.448 4 1C4 1.552 3.552 2 3 2C2.448 2 2 1.552 2 1ZM6 1C6 0.448 6.448 0 7 0C7.552 0 8 0.448 8 1C8 1.552 7.552 2 7 2C6.448 2 6 1.552 6 1ZM11 2C11.552 2 12 1.552 12 1C12 0.448 11.552 0 11 0C10.448 0 10 0.448 10 1C10 1.552 10.448 2 11 2ZM2 5C2 4.448 2.448 4 3 4C3.552 4 4 4.448 4 5C4 5.552 3.552 6 3 6C2.448 6 2 5.552 2 5ZM7 4C6.448 4 6 4.448 6 5C6 5.552 6.448 6 7 6C7.552 6 8 5.552 8 5C8 4.448 7.552 4 7 4ZM10 5C10 4.448 10.448 4 11 4C11.552 4 12 4.448 12 5C12 5.552 11.552 6 11 6C10.448 6 10 5.552 10 5ZM3 8C2.448 8 2 8.448 2 9C2 9.552 2.448 10 3 10C3.552 10 4 9.552 4 9C4 8.448 3.552 8 3 8ZM6 9C6 8.448 6.448 8 7 8C7.552 8 8 8.448 8 9C8 9.552 7.552 10 7 10C6.448 10 6 9.552 6 9ZM7 12C6.448 12 6 12.448 6 13C6 13.552 6.448 14 7 14C7.552 14 8 13.552 8 13C8 12.448 7.552 12 7 12ZM10 9C10 8.448 10.448 8 11 8C11.552 8 12 8.448 12 9C12 9.552 11.552 10 11 10C10.448 10 10 9.552 10 9Z" fill="#121212"/>
</svg>
