<svg width="16" height="16" viewBox="0 0 16 16" xmlns="http://www.w3.org/2000/svg"><title>contacts/directory_16</title><path d="M12 0c1.104 0 2 .896 2 2l0 12c0 1.104-.896 2-2 2l-8 0c-1.104 0-2-.896-2-2L2 2c0-1.104.896-2 2-2l8 0zm1 14l0-12c0-.552-.449-1-1-1l-1 0 0 14 1 0c.551 0 1-.448 1-1zm-3 1l0-14-6 0c-.551 0-1 .448-1 1l0 12c0 .552.449 1 1 1l6 0zM4.5 5c-.276 0-.5-.224-.5-.5 0-.276.224-.5.5-.5.276 0 .5.224.5.5 0 .276-.224.5-.5.5zm0 6c.276 0 .5.224.5.5 0 .276-.224.5-.5.5-.276 0-.5-.224-.5-.5 0-.276.224-.5.5-.5z" fill="#000" fill-rule="evenodd"/></svg>