<svg width="24" height="24" viewBox="0 0 24 24" xmlns="http://www.w3.org/2000/svg"><title>contacts/directory_24</title><path d="M18.5 0C19.878 0 21 1.121 21 2.5l0 19c0 1.379-1.122 2.5-2.5 2.5l-13 0C4.122 24 3 22.879 3 21.5l0-19C3 1.121 4.122 0 5.5 0l13 0zM20 21.5l0-19c0-.827-.673-1.5-1.5-1.5L16 1l0 22 2.5 0c.827 0 1.5-.673 1.5-1.5zm-16 0c0 .827.673 1.5 1.5 1.5l9.5 0 0-22-9.5 0C4.673 1 4 1.673 4 2.5l0 19zm4-17c0 .276-.224.5-.5.5-.276 0-.5-.224-.5-.5 0-.276.224-.5.5-.5.276 0 .5.224.5.5zm0 15c0 .276-.224.5-.5.5-.276 0-.5-.224-.5-.5 0-.276.224-.5.5-.5.276 0 .5.224.5.5z" fill="#000" fill-rule="evenodd"/></svg>