<svg width="16" height="16" viewBox="0 0 16 16" fill="none" xmlns="http://www.w3.org/2000/svg">
<path fill-rule="evenodd" clip-rule="evenodd" d="M15.3536 1.35355C15.5488 1.15829 15.5488 0.841709 15.3536 0.646447C15.1583 0.451184 14.8417 0.451184 14.6464 0.646447L11.6464 3.64645C11.4512 3.84171 11.4512 4.15829 11.6464 4.35355C11.8417 4.54882 12.1583 4.54882 12.3536 4.35355L15.3536 1.35355ZM4.35355 12.3536C4.54882 12.1583 4.54882 11.8417 4.35355 11.6464C4.15829 11.4512 3.84171 11.4512 3.64645 11.6464L0.646447 14.6464C0.451184 14.8417 0.451184 15.1583 0.646447 15.3536C0.841709 15.5488 1.15829 15.5488 1.35355 15.3536L4.35355 12.3536Z" fill="#121212"/>
<path d="M5.19922 3.26013C5.31257 3.19336 5.4278 3.13099 5.54466 3.07304C7.60159 2.05298 10.1641 2.39962 11.8774 4.11295C13.633 5.8686 13.9537 8.51587 12.8392 10.5972" stroke="#121212" stroke-linecap="round"/>
<path d="M10.7998 12.74C10.6865 12.8068 10.5712 12.8691 10.4544 12.9271C8.39744 13.9471 5.83495 13.6005 4.12163 11.8872C2.36597 10.1315 2.04537 7.48425 3.15981 5.40295" stroke="#121212" stroke-linecap="round"/>
<path fill-rule="evenodd" clip-rule="evenodd" d="M10.1036 6.60355C10.2988 6.40829 10.2988 6.09171 10.1036 5.89645C9.90829 5.70118 9.59171 5.70118 9.39645 5.89645L8 7.29289L6.60355 5.89645C6.40829 5.70118 6.09171 5.70118 5.89645 5.89645C5.70118 6.09171 5.70118 6.40829 5.89645 6.60355L7.29289 8L5.89645 9.39645C5.70118 9.59171 5.70118 9.90829 5.89645 10.1036C6.09171 10.2988 6.40829 10.2988 6.60355 10.1036L8 8.70711L9.39645 10.1036C9.59171 10.2988 9.90829 10.2988 10.1036 10.1036C10.2988 9.90829 10.2988 9.59171 10.1036 9.39645L8.70711 8L10.1036 6.60355Z" fill="#121212"/>
</svg>
