<?xml version="1.0" encoding="UTF-8"?>
<svg width="16px" height="16px" viewBox="0 0 16 16" version="1.1" xmlns="http://www.w3.org/2000/svg" xmlns:xlink="http://www.w3.org/1999/xlink">
    <!-- Generator: Sketch 57.1 (83088) - https://sketch.com -->
    <title>dislike_16</title>
    <desc>Created with Sketch.</desc>
    <g id="Icons-Webex" stroke="none" stroke-width="1" fill="none" fill-rule="evenodd">
        <g id="chat/dislike_16" fill="#171B1F">
            <path d="M14.2690607,12.4932694 C14.0276856,13.9461578 12.7868977,15.0000768 11.3177011,15.0000768 L4.48838062,15.0000768 L4.48838062,10.2974381 C4.48838062,9.8284741 4.58014306,9.37250913 4.75868087,8.94654185 L8.24266165,1.00215215 C8.78824925,1.20613648 9.10143847,1.77009316 8.99072508,2.32305068 L7.99629942,6.38173888 C7.95939496,6.53072744 7.99330717,6.68771538 8.08806187,6.80870608 C8.18181915,6.92969679 8.32644475,7.00069134 8.48004711,7.00069134 L14.0047449,7.00069134 C14.2989832,7.00069134 14.5762654,7.12968143 14.7657748,7.35466414 C14.9552842,7.57864694 15.0370725,7.8746242 14.9891964,8.16460192 L14.2690607,12.4932694 Z M3.4909627,15.0000768 L1.99483583,15.0000768 C1.44525856,15.0000768 0.997417915,14.5511113 0.997417915,14.0001536 L0.997417915,9.99046166 C0.997417915,9.43950398 1.44525856,8.99053847 1.99483583,8.99053847 L3.4909627,8.99053847 L3.4909627,15.0000768 Z M15.5268047,6.70771384 C15.1467885,6.25874833 14.5922241,6.00076815 14.0047449,6.00076815 L9.11639974,6.00076815 L9.96420497,2.54103393 C10.176655,1.48211528 9.59915001,0.441195244 8.58976308,0.065224126 C8.07709027,-0.125761202 7.50656723,0.116220208 7.29611205,0.614181954 L4.08741861,7.99061529 L1.99483583,7.99061529 C0.894683869,7.99061529 0,8.88754639 0,9.99046166 L0,14.0001536 C0,15.1030689 0.894683869,16 1.99483583,16 L3.4909627,16 L3.98967166,16 L11.3177011,16 C13.2756324,16 14.9313462,14.594108 15.2525147,12.6572568 L15.9726505,8.32858933 C16.0694,7.74863388 15.9068209,7.15767928 15.5268047,6.70771384 L15.5268047,6.70771384 Z" id="fill" transform="translate(8.000000, 8.000000) rotate(-180.000000) translate(-8.000000, -8.000000) "></path>
        </g>
    </g>
</svg>