<svg width="16" height="16" xmlns="http://www.w3.org/2000/svg"><path d="M1.73 3.507A2.984 2.984 0 014.683 1h6.83v4.703c0 .469-.092.924-.27 1.35l-3.485 7.945a1.173 1.173 0 01-.748-1.321l.995-4.059A.498.498 0 007.52 9H1.995a1.001 1.001 0 01-.984-1.164l.72-4.328zM12.51 1h1.496a1 1 0 01.998 1v4.01a1 1 0 01-.998 1H12.51V1zM.473 9.292c.38.45.935.707 1.522.707h4.889l-.848 3.46a2.172 2.172 0 001.374 2.476 1.016 1.016 0 001.294-.55l3.209-7.376h2.092a2 2 0 001.995-2V2A2 2 0 0014.005 0H4.682A3.98 3.98 0 00.747 3.343L.027 7.67c-.096.58.066 1.171.446 1.621z" fill="#171B1F" fill-rule="evenodd"/></svg>