<svg width="24" height="24" viewBox="0 0 24 24" xmlns="http://www.w3.org/2000/svg"><title>hardware/display-input_24</title><path d="M21.4709 2c1.394 0 2.529 1.104 2.529 2.461l0 12.424c0 1.718-1.437 3.115-3.206 3.115l-6.703 0c.208.579.757.997 1.407.997.276 0 .5.223.5.5 0 .276-.224.5-.5.5l-6.996 0c-.276 0-.5-.224-.5-.5 0-.277.224-.5.5-.5.65 0 1.199-.418 1.407-.997l-6.703 0c-1.768 0-3.206-1.397-3.206-3.115l0-4.385c0-.275.225-.5.5-.5.275 0 .5.225.5.5l0 3.5 22 0 0-11.539c0-.805-.687-1.461-1.529-1.461L2.5289 3c-.843 0-1.529.656-1.529 1.461l0 2.039c0 .275-.225.5-.5.5-.275 0-.5-.225-.5-.5l0-2.039C-.0001 3.104 1.1349 2 2.5289 2l18.942 0zm-.677 17c1.176 0 2.13-.888 2.194-2l-21.976 0c.064 1.112 1.019 2 2.194 2l17.588 0zm-10.293 1.997l2.998 0c-.218-.29-.369-.63-.444-.997l-2.11 0c-.075.367-.226.707-.444.997zM0 9.5c0-.276.224-.5.5-.5l11.793 0-3.147-3.146c-.195-.196-.195-.512 0-.708.196-.195.512-.195.708 0l4 4c.195.196.195.512 0 .708l-4 4c-.098.097-.226.146-.354.146-.128 0-.256-.049-.354-.146-.195-.196-.195-.512 0-.708L12.293 10 .5 10c-.276 0-.5-.224-.5-.5z" fill="#000" fill-rule="evenodd"/></svg>