<svg width="16" height="16" viewBox="0 0 16 16" xmlns="http://www.w3.org/2000/svg"><title>hardware/display-input_16</title><path d="M15 11l0-1-14 0 0 1c0 .551.449 1 1 1l12 0c.551 0 1-.449 1-1zm-8.125 3l2.25 0c-.078-.237-.125-.529-.125-.889L9 13l-2 0 0 .111c0 .36-.047.652-.125.889zM14 1c1.105 0 2 .895 2 2l0 8c0 1.105-.895 2-2 2l-4 0 0 .111c0 .889.325.889.5.889.276 0 .5.224.5.5 0 .276-.224.5-.5.5l-5 0c-.276 0-.5-.224-.5-.5 0-.276.224-.5.5-.5.175 0 .5 0 .5-.889L6 13l-4 0c-1.105 0-2-.895-2-2l0-3.5c0-.275.225-.5.5-.5.275 0 .5.225.5.5L1 9l14 0 0-6c0-.551-.449-1-1-1L2 2c-.551 0-1 .449-1 1l0 .5c0 .275-.225.5-.5.5-.275 0-.5-.225-.5-.5L0 3c0-1.105.895-2 2-2l12 0zM0 5.5c0-.275.225-.5.5-.5l6.793 0-1.147-1.146c-.195-.196-.195-.512 0-.708.196-.195.512-.195.708 0l2 2c.195.196.195.512 0 .708l-2 2C6.756 7.951 6.628 8 6.5 8c-.128 0-.256-.049-.354-.146-.195-.196-.195-.512 0-.708L7.293 6 .5 6C.225 6 0 5.775 0 5.5z" fill-rule="evenodd"/></svg>