<svg width="36" height="36" viewBox="0 0 36 36" xmlns="http://www.w3.org/2000/svg"><title>hardware/display_36</title><path d="M35 24L1 24 1 6.5C1 5.121 2.121 4 3.5 4l29 0C33.879 4 35 5.121 35 6.5L35 24zm0 2.5c0 1.379-1.121 2.5-2.5 2.5L21 29l-6 0-11.5 0C2.121 29 1 27.879 1 26.5L1 25l34 0 0 1.5zm-14.854 3.635l.014.104.035.099c.252.701.73 1.277 1.331 1.657l-7.052 0c.601-.38 1.079-.956 1.331-1.657l.035-.099.014-.104.019-.135 4.254 0 .019.135zM32.5 3l-29 0C1.567 3 0 4.567 0 6.5l0 20C0 28.433 1.567 30 3.5 30l11.363 0c-.311.868-1.135 1.495-2.11 1.495-.414 0-.75.335-.75.75 0 .414.336.75.75.75l10.494 0c.414 0 .75-.336.75-.75 0-.415-.336-.75-.75-.75-.975 0-1.799-.627-2.11-1.495L32.5 30c1.933 0 3.5-1.567 3.5-3.5l0-20C36 4.567 34.433 3 32.5 3z" fill="#000" fill-rule="evenodd"/></svg>