<svg width="24" height="24" xmlns="http://www.w3.org/2000/svg" xmlns:xlink="http://www.w3.org/1999/xlink"><defs><path d="M6.802.058A12.67 12.67 0 000 11.298C0 18.303 5.697 24 12.7 24c4.728 0 9.036-2.606 11.242-6.801a.495.495 0 00.058-.221v-.023a.511.511 0 00-.085-.268.51.51 0 00-.464-.219c-.499.049-.964.073-1.42.073-8.036 0-14.572-6.536-14.572-14.572 0-.457.023-.921.073-1.421a.501.501 0 00-.5-.548.482.482 0 00-.23.058z" id="a"/></defs><use fill="#171B1F" xlink:href="#a" fill-rule="evenodd"/></svg>