<?xml version="1.0" encoding="UTF-8"?>
<svg width="14px" height="14px" viewBox="0 0 14 14" version="1.1" xmlns="http://www.w3.org/2000/svg" xmlns:xlink="http://www.w3.org/1999/xlink">
    <!-- Generator: Sketch 60.1 (88133) - https://sketch.com -->
    <title>contacts/dnd-presence-stroke_14</title>
    <desc>Created with Sketch.</desc>
    <g id="contacts/dnd-presence-stroke_14" stroke="none" stroke-width="1" fill="none" fill-rule="evenodd">
        <path d="M3.92749267,0.16590506 C1.5067103,1.43811256 -0.0002,3.92940921 -0.0002,6.661 C-0.0002,10.7091432 3.29137363,14 7.3398,14 C10.0714574,14 12.5621618,12.4929329 13.8359107,10.0703806 C14.0795744,9.6097627 14.0499751,9.05015165 13.7608273,8.61476813 C13.4706566,8.17950923 12.9779172,7.9489036 12.4680309,7.98097192 C12.2248852,8.00451042 12.0371217,8.015 11.8598,8.015 C8.62232002,8.015 5.9868,5.37895055 5.9868,2.141 C5.9868,1.95488112 5.99644251,1.76331654 6.01527511,1.56602262 C6.06299715,1.09491696 5.87001019,0.632296689 5.50827545,0.330425355 L5.38603187,0.238972694 C4.94990249,-0.0506704881 4.39137391,-0.0792893076 3.92749267,0.16590506 Z M4.8328,1.072 C4.9638,1.161 5.0358,1.313 5.0198,1.471 C4.9988,1.691 4.9868,1.915 4.9868,2.141 C4.9868,5.931 8.0698,9.015 11.8598,9.015 C12.0858,9.015 12.3098,9.001 12.5308,8.979 C12.6898,8.969 12.8398,9.036 12.9278,9.168 C13.0148,9.299 13.0238,9.467 12.9508,9.605 C11.8498,11.699 9.6998,13 7.3398,13 C3.8438,13 0.9998,10.157 0.9998,6.661 C0.9998,4.302 2.2998,2.151 4.3948,1.05 C4.5348,0.976 4.7018,0.985 4.8328,1.072 Z" id="fill" fill="#171B1F"></path>
    </g>
</svg>