<svg width="56" height="56" viewBox="0 0 56 56" xmlns="http://www.w3.org/2000/svg"><title>contacts/dnd_56</title><path d="M15.5451913 1.38472625C6.54908058 6.48475181 1.0000123 15.9567993 1.0000123 26.3248513c0 15.8120792 12.8631583 28.6751437 28.6753528 28.6751437 10.3671276 0 19.8392441-5.5500278 24.9393069-14.5450729-.9040111.0670003-1.7710218.1000005-2.6290324.1000005-20.1482479 0-36.5404496-16.3920822-36.5404496-36.54018317 0-.85700429.0330004-1.72500865.1000013-2.63001318M29.6753651 56C13.3121638 56 0 42.6879333 0 26.3248513 0 15.2767959 6.08807491 5.21174543 15.8901955.0577195968c.163002-.0860004311.3600044-.075000376.5110063.0270001353.1530019.1030005159.2370029.2800014039.2190027.4630023209-.1170014 1.219006107-.1750022 2.353011797-.1750022 3.467017377 0 19.59709827 15.9441962 35.54017817 35.5404373 35.54017817 1.1170138 0 2.2500277-.0580003 3.4660427-.1760009.1770022-.0140001.3610044.0670003.4640057.2190011.1020013.1530008.1120014.3500017.0270003.5120026C50.7876249 49.9109695 40.7225011 56 29.6753651 56" fill="#000" fill-rule="evenodd"/></svg>