<svg width="120" height="120" viewBox="0 0 120 120" xmlns="http://www.w3.org/2000/svg"><title>contacts/dnd_120</title><path d="M34.5498 0c-.171 0-.343.041-.499.124C13.0458 11.168-.0002 32.736-.0002 56.411c0 35.064 28.527 63.589 63.59 63.589 23.673 0 45.241-13.048 56.287-34.05.183-.347.161-.769-.057-1.097-.205-.302-.558-.473-.91-.473-.028 0-.056.001-.085.004-2.605.252-5.034.377-7.427.377-41.992 0-76.159-34.164-76.159-76.158 0-2.387.125-4.817.375-7.429.04-.392-.14-.772-.468-.992-.178-.121-.386-.182-.596-.182m0 1l.037.011c.024.016.035.039.032.067-.255 2.662-.38 5.123-.38 7.525 0 42.545 34.614 77.158 77.159 77.158 2.416 0 4.877-.125 7.512-.381.036 0 .073.02.078.027.014.023.016.054.004.077C108.1188 106.157 86.8898 119 63.5898 119c-34.512 0-62.59-28.077-62.59-62.589 0-23.304 12.842-44.532 33.517-55.403.011-.005.021-.008.033-.008" fill="#000" fill-rule="evenodd"/></svg>