<svg width="48" height="48" viewBox="0 0 48 48" xmlns="http://www.w3.org/2000/svg"><title>contacts/dnd_48</title><path d="M13.2749851 1.38680197C5.67899364 5.7488205.999998881 13.7818546.999998881 22.568892c0 13.4710572 10.959987719 24.4311038 24.431972619 24.4311038 8.7879902 0 16.8199812-4.6790199 21.1809763-12.2740522-.7289991.0510002-1.4269984.0760003-2.1159976.0760003-17.2579807 0-31.297965-14.0400596-31.297965-31.29813294 0-.69200294.025-1.39100591.0759999-2.11700899M25.4319715 48C11.4089872 48 0 36.5919515 0 22.568892 0 13.1018517 5.21799416 4.47581509 13.6179848.0577963211c.1639998-.0870003697.3599996-.0740003144.5109994.0270001147.1529998.1030004372.2369997.2810011942.2189997.4630019672-.0999998 1.037004407-.1489998 2.004008517-.1489998 2.956012557 0 16.70607094 13.5919848 30.29812874 30.2979661 30.29812874.9449989 0 1.9119979-.0490002 2.9549967-.1500007.1779998-.011.3609996.0660003.4629995.218001.1029999.1540006.1129999.3500015.0269999.5120021C43.5249513 42.7829778 34.8999609 48 25.4319715 48" fill="#000" fill-rule="evenodd"/></svg>