<svg width="24" height="24" viewBox="0 0 24 24" xmlns="http://www.w3.org/2000/svg"><title>contacts/dnd_24</title><path d="M6.47007567 1.40197766C3.07403595 3.5368853 1.0000117 7.25072462 1.0000117 11.2985495c0 6.4527208 5.24806137 11.7014938 11.7001368 11.7014938 4.0480474 0 7.7620908-2.0749103 9.8981158-5.4697634-.1910022.0069997-.3800044.0109995-.5680066.0109995-8.5861005 0-15.57118216-6.9856978-15.57118216-15.57132631 0-.18799187.00400005-.3769837.01100013-.56797543M12.7001485 24C5.69706663 24 0 18.3022465 0 11.2985495 0 6.57075404 2.60603048 2.26294041 6.80107954.0580358004c.1620019-.0869962363.35800419-.0749967554.51100598.0279987887.15300179.1019955869.23700277.2799878869.21900256.4619800129-.04900057.499978368-.07200084.963958298-.07200084 1.421938488 0 8.03465241 6.53607646 14.57136961 14.57117046 14.57136961.4570053 0 .9220107-.023999 1.4210166-.0729969.1810021-.0139994.3610042.0669971.4640054.2189906.1020012.1529933.1130013.3499848.0270003.5119778C21.7362542 21.3941127 17.4282038 24 12.7001485 24" fill="#000" fill-rule="evenodd"/></svg>