<svg width="12" height="12" viewBox="0 0 12 12" xmlns="http://www.w3.org/2000/svg"><title>format/dock-in_12</title><path d="M6.5 2c.276 0 .5.225.5.5l0 1.793 2.146-2.147c.196-.195.512-.195.708 0 .097.098.146.226.146.354 0 .128-.049.256-.146.354L7.707 5 9.5 5c.276 0 .5.225.5.5 0 .276-.224.5-.5.5l-3 0c-.069 0-.135-.014-.195-.04-.119-.05-.215-.146-.266-.266C6.014 5.635 6 5.569 6 5.5l0-3c0-.275.224-.5.5-.5zm4-2c.827 0 1.5.673 1.5 1.5l0 8c0 .827-.673 1.5-1.5 1.5l-4 0c-.276 0-.5-.224-.5-.5 0-.276.224-.5.5-.5l4 0c.276 0 .5-.225.5-.5l0-8c0-.275-.224-.5-.5-.5l-8 0c-.276 0-.5.225-.5.5l0 4c0 .276-.224.5-.5.5-.276 0-.5-.224-.5-.5l0-4C1 .673 1.673 0 2.5 0l8 0zM4 7c.551 0 1 .448 1 1l0 3c0 .552-.449 1-1 1l-3 0c-.551 0-1-.448-1-1l0-3c0-.552.449-1 1-1l3 0zm-3 4l3 0 0-3-3 0 0 3z" fill-rule="evenodd"/></svg>