<svg width="12" height="12" viewBox="0 0 12 12" xmlns="http://www.w3.org/2000/svg"><title>format/dock-out_12</title><path d="M6 5.5c0-.128.049-.256.146-.354L8.293 3 6.5 3c-.276 0-.5-.224-.5-.5 0-.276.224-.5.5-.5l3 0c.069 0 .135.014.195.04.119.05.215.146.266.266.025.059.039.125.039.194l0 3c0 .276-.224.5-.5.5-.276 0-.5-.224-.5-.5l0-1.793-2.146 2.147c-.196.195-.512.195-.708 0C6.049 5.756 6 5.628 6 5.5zM10.5 0c.827 0 1.5.673 1.5 1.5l0 8c0 .827-.673 1.5-1.5 1.5l-4 0c-.276 0-.5-.224-.5-.5 0-.276.224-.5.5-.5l4 0c.275 0 .5-.225.5-.5l0-8c0-.275-.225-.5-.5-.5l-8 0c-.275 0-.5.225-.5.5l0 4c0 .276-.224.5-.5.5-.276 0-.5-.224-.5-.5l0-4C1 .673 1.673 0 2.5 0l8 0zM4 7c.551 0 1 .448 1 1l0 3c0 .552-.449 1-1 1l-3 0c-.551 0-1-.448-1-1l0-3c0-.552.449-1 1-1l3 0zm-3 4l3 0 0-3-3 0 0 3z" fill-rule="evenodd"/></svg>