<svg width="16" height="16" viewBox="0 0 16 16" xmlns="http://www.w3.org/2000/svg"><title>format/dock-out_16</title><path d="M12.5 3c.065 0 .13.014.191.039.041.017.075.045.109.073.017.012.038.019.054.035.015.016.022.037.035.054.027.034.055.067.072.108.025.061.039.126.039.191l0 4c0 .276-.225.5-.5.5-.275 0-.5-.224-.5-.5l0-2.793-3.146 3.147C8.756 7.952 8.628 8 8.5 8c-.128 0-.256-.048-.353-.146-.196-.195-.196-.511 0-.707L11.293 4 8.5 4c-.275 0-.5-.224-.5-.5 0-.275.225-.5.5-.5l4 0zM14 0c1.104 0 2 .896 2 2l0 10c0 1.104-.896 2-2 2l-4.5 0c-.275 0-.5-.225-.5-.5 0-.275.225-.5.5-.5l4.5 0c.552 0 1-.449 1-1l0-10c0-.551-.448-1-1-1L4 1c-.552 0-1 .449-1 1l0 4.5c0 .275-.225.5-.5.5-.275 0-.5-.225-.5-.5L2 2c0-1.104.896-2 2-2l10 0zM5.5 9c.829 0 1.5.672 1.5 1.5l0 4c0 .828-.671 1.5-1.5 1.5l-4 0C.671 16 0 15.328 0 14.5l0-4C0 9.672.671 9 1.5 9l4 0zm0 1l-4 0c-.276 0-.5.225-.5.5l0 4c0 .275.224.5.5.5l4 0c.276 0 .5-.225.5-.5l0-4c0-.275-.224-.5-.5-.5z" fill-rule="evenodd"/></svg>