<svg width="14" height="14" viewBox="0 0 14 14" xmlns="http://www.w3.org/2000/svg"><title>content/document_14</title><path d="M10.5 13l-7 0c-.275 0-.5-.224-.5-.5l0-11c0-.276.225-.5.5-.5L7 1l0 2.5C7 4.327 7.673 5 8.5 5L11 5l0 7.5c0 .276-.225.5-.5.5zM8 1.366L10.672 4 8.5 4c-.275 0-.5-.224-.5-.5l0-2.134zM11.741 3.7L8.299.257C8.132.091 7.911 0 7.676 0L3.5 0C2.673 0 2 .673 2 1.5l0 11c0 .827.673 1.5 1.5 1.5l7 0c.827 0 1.5-.673 1.5-1.5l0-8.176c0-.236-.092-.458-.259-.624z" fill="#000" fill-rule="evenodd"/></svg>