<svg width="16" height="16" viewBox="0 0 16 16" xmlns="http://www.w3.org/2000/svg"><title>content/document-create_16</title><path d="M13.707 4.207c.188.188.293.442.293.707L14 5l0 1 0 8c0 1.105-.895 2-2 2l-8 0c-1.105 0-2-.895-2-2L2 2c0-1.105.895-2 2-2l4 0 1 0 .086 0c.265 0 .519.105.707.293l3.914 3.914zM13 5l0-.086L9.086 1 9 1l0 3c0 .551.449 1 1 1l3 0zm0 9l0-8-3 0c-1.105 0-2-.895-2-2l0-3-4 0c-.551 0-1 .449-1 1l0 12c0 .551.449 1 1 1l8 0c.551 0 1-.449 1-1zm-4.5-4l1.5 0c.276 0 .5.224.5.5 0 .276-.224.5-.5.5l-1.5 0 0 1.5c0 .276-.224.5-.5.5-.276 0-.5-.224-.5-.5l0-1.5L6 11c-.276 0-.5-.224-.5-.5 0-.276.224-.5.5-.5l1.5 0 0-1.5c0-.276.224-.5.5-.5.276 0 .5.224.5.5l0 1.5z" fill="#000" fill-rule="evenodd"/></svg>