<svg width="36" height="36" viewBox="0 0 36 36" xmlns="http://www.w3.org/2000/svg"><title>content/document_36</title><path d="M30 31.5c0 1.379-1.121 2.5-2.5 2.5l-19 0C7.122 34 6 32.879 6 31.5l0-27C6 3.122 7.122 2 8.5 2L20 2l0 6.5c0 1.93 1.57 3.5 3.5 3.5l6.5 0 0 19.5zM21 2.023c.078.02.152.054.211.112l8.653 8.654c.059.058.092.132.113.211L23.5 11C22.121 11 21 9.878 21 8.5l0-6.477zm9.572 8.059l-8.654-8.654C21.641 1.152 21.274 1 20.885 1L8.5 1C6.57 1 5 2.57 5 4.5l0 27C5 33.43 6.57 35 8.5 35l19 0c1.93 0 3.5-1.57 3.5-3.5l0-20.385c0-.384-.155-.761-.428-1.033z" fill="#000" fill-rule="evenodd"/></svg>