<svg width="14" height="14" viewBox="0 0 14 14" xmlns="http://www.w3.org/2000/svg"><title>common-actions/download_14</title><path d="M6.64725 10.854l-4.001-4.002c-.195-.195-.195-.512 0-.707.195-.195.512-.195.707 0l3.147 3.147 0-7.792c0-.276.223-.5.5-.5.275 0 .5.224.5.5l0 7.794 3.147-3.148c.195-.195.511-.195.707 0 .195.195.195.512 0 .707l-3.999 4.001c-.098.098-.227.146-.354.146-.128 0-.256-.048-.354-.146zm5.8057913 1.1455c.3010932 0 .5454587.224.5454587.5 0 .276-.2443655.5-.5454587.5l-10.90808262 0c-.30109319 0-.54545868-.224-.54545868-.5 0-.276.24436549-.5.54545868-.5l10.90808262 0z" fill="#000" fill-rule="evenodd"/></svg>