<svg width="100" height="100" viewBox="0 0 100 100" xmlns="http://www.w3.org/2000/svg"><title>common-actions/download-circle_100</title><path d="M50 99C22.981 99 1 77.019 1 50 1 22.981 22.981 1 50 1c27.019 0 49 21.981 49 49 0 27.019-21.981 49-49 49m0-99c27.57 0 50 22.43 50 50 0 27.57-22.43 50-50 50-27.57 0-50-22.43-50-50C0 22.43 22.43 0 50 0zm20.5 69l-41 0c-.276 0-.5.224-.5.5 0 .276.224.5.5.5l41 0c.276 0 .5-.224.5-.5 0-.276-.224-.5-.5-.5zm-21.3535-7.1465c.046.046.101.083.163.107.061.026.126.039.191.039.064 0 .129-.013.19-.039.062-.025.117-.061.164-.107l12.999-13c.195-.195.195-.512 0-.707-.195-.195-.512-.195-.707 0l-12.146 12.146 0-29.793c0-.276-.224-.5-.5-.5-.277 0-.5.224-.5.5l0 29.793-12.147-12.146c-.196-.195-.512-.195-.707 0-.196.195-.196.512 0 .707l13 13z" fill-rule="evenodd"/></svg>