<svg width="20" height="20" viewBox="0 0 20 20" xmlns="http://www.w3.org/2000/svg"><title>common-actions/download_20</title><path d="M5.35325 9.12154045l4.146 4.16385655 0-10.783243534C9.49925 2.224964753 9.72325 2 9.99925 2c.277 0 .5.224964753.5.502153466l0 10.783243534 4.147-4.16385655c.098-.09842208.226-.14662881.353-.14662881.128 0 .256.04820673.354.14662881.195.19583985.195.51420515 0 .710045l-4.999 5.02053035c-.047.0472024-.102.0843618-.164.1094695-.122.0512196-.259.0512196-.381 0-.062-.0251077-.117-.0622671-.164-.1094695l-4.999-5.02053035c-.195-.19583985-.195-.51420515 0-.710045.195-.19583985.512-.19583985.707 0zM17.4666667 16.99975c.2944 0 .5333333.224.5333333.5 0 .276-.2389333.5-.5333333.5l-14.933333367 0c-.2944 0-.533333333-.224-.533333333-.5 0-.276.238933333-.5.533333333-.5l14.933333367 0z" fill="#000" fill-rule="evenodd"/></svg>