<svg width="14" height="14" viewBox="0 0 14 14" xmlns="http://www.w3.org/2000/svg"><title>format/drag_14</title><path d="M13.8538 6.6465l-2-2c-.195-.195-.512-.195-.707 0-.195.195-.195.512 0 .707l1.146 1.147-4.793 0 0-4.793 1.147 1.146c.098.098.226.147.353.147.128 0 .256-.049.354-.147.195-.195.195-.512 0-.707l-2-2c-.195-.195-.512-.195-.707 0l-2 2c-.195.195-.195.512 0 .707.195.195.512.195.707 0l1.146-1.146 0 4.793-4.792 0 1.146-1.147c.098-.098.146-.226.146-.353 0-.128-.048-.256-.146-.354-.195-.195-.512-.195-.707 0l-2 2c-.195.195-.195.512 0 .707l2 2c.195.195.512.195.707 0 .195-.195.195-.512 0-.707l-1.146-1.146 4.792 0 0 4.792-1.146-1.146c-.195-.195-.512-.195-.707 0-.195.195-.195.512 0 .707l2 2c.098.098.226.147.353.147.128 0 .256-.049.354-.147l2-2c.195-.195.195-.512 0-.707-.195-.195-.512-.195-.707 0l-1.147 1.146 0-4.792 4.793 0-1.146 1.146c-.195.195-.195.512 0 .707.195.195.512.195.707 0l2-2c.098-.098.146-.226.146-.353 0-.128-.048-.256-.146-.354" fill-rule="evenodd"/></svg>