<svg width="16" height="16" viewBox="0 0 16 16" xmlns="http://www.w3.org/2000/svg"><title>format/drag_16</title><path d="M15.96025 8.691c.051-.123.051-.261 0-.383-.017-.041-.045-.074-.072-.108-.013-.018-.02-.038-.036-.054l-2.5-2.5c-.195-.196-.512-.196-.707 0-.195.195-.195.511 0 .707l1.647 1.646-5.293 0 0-5.293 1.646 1.647c.098.097.226.146.354.146.128 0 .255-.049.353-.146.195-.196.195-.512 0-.707l-2.5-2.5c-.016-.016-.036-.022-.054-.036-.034-.026-.067-.055-.108-.072-.122-.051-.26-.051-.383 0-.04.017-.074.046-.108.072-.017.014-.038.02-.054.036l-2.5 2.5c-.195.195-.195.511 0 .707.195.195.512.195.707 0l1.647-1.647 0 5.293-5.293 0 1.646-1.646c.098-.098.147-.226.147-.354 0-.128-.049-.256-.147-.353-.195-.196-.512-.196-.707 0l-2.5 2.5c-.016.016-.022.036-.036.054-.026.034-.054.067-.071.108-.051.122-.051.26 0 .383.016.04.044.072.07.106.014.018.02.04.037.056l2.5 2.5c.195.195.512.195.707 0 .195-.196.195-.512 0-.707l-1.646-1.647 5.293 0 0 5.293-1.647-1.646c-.098-.098-.225-.147-.353-.147-.128 0-.256.049-.354.147-.195.195-.195.511 0 .707l2.5 2.5c.017.017.039.024.057.038.034.025.066.053.105.07.123.05.261.05.383 0 .04-.017.071-.045.105-.07.019-.014.04-.021.057-.038l2.5-2.5c.195-.196.195-.512 0-.707-.195-.196-.512-.196-.707 0l-1.646 1.646 0-5.293 5.293 0-1.647 1.647c-.098.097-.146.225-.146.353 0 .128.048.256.146.354.195.195.512.195.707 0l2.5-2.5c.017-.016.024-.038.038-.056.025-.034.053-.066.07-.106" fill="#000" fill-rule="evenodd"/></svg>