<svg width="56" height="56" viewBox="0 0 56 56" xmlns="http://www.w3.org/2000/svg"><title>email/email_56</title><path d="M50.1001 48l-44.2 0c-2.151 0-3.9-1.75-3.9-3.9l0-31.24 21.916 16.761c1.203.919 2.643 1.379 4.084 1.379 1.441 0 2.881-.46 4.083-1.379l21.917-16.761 0 31.24c0 2.15-1.75 3.9-3.9 3.9m-44.2-40l44.2 0c2.056 0 3.727 1.604 3.872 3.624l-22.496 17.203c-2.047 1.564-4.905 1.564-6.952 0L2.0281 11.624C2.1731 9.604 3.8441 8 5.9001 8m44.2-1l-44.2 0c-2.702 0-4.9 2.198-4.9 4.9l0 32.2c0 2.702 2.198 4.9 4.9 4.9l44.2 0c2.702 0 4.9-2.198 4.9-4.9l0-32.2c0-2.702-2.198-4.9-4.9-4.9" fill-rule="evenodd"/></svg>