<svg width="24" height="24" viewBox="0 0 24 24" xmlns="http://www.w3.org/2000/svg" xmlns:xlink="http://www.w3.org/1999/xlink"><title>social/email-circle_24</title><path d="M17 15l0-5.516-3.655 3.047c-.39.324-.867.487-1.345.487-.478 0-.955-.163-1.345-.488L7 9.484 7 15c0 .553.448 1 1 1l8 0c.552 0 1-.447 1-1zM8 8c-.313 0-.581.153-.765.378l4.061 3.384c.408.342 1 .341 1.408.001l4.061-3.385C16.582 8.153 16.313 8 16 8L8 8zm4-8c6.627 0 12 5.372 12 12 0 6.628-5.373 12-12 12-6.627 0-12-5.372-12-12C0 5.372 5.373 0 12 0z" fill="#000" fill-rule="evenodd"/></svg>
