<svg width="100" height="100" viewBox="0 0 100 100" xmlns="http://www.w3.org/2000/svg"><title>email/email-invite_100</title><path d="M89.5 97l-79 0C6.364 97 3 93.636 3 89.5l0-55.412 39.907 30.517C44.995 66.202 47.498 67 50 67c2.502 0 5.005-.798 7.093-2.395L97 34.088 97 89.5c0 4.136-3.364 7.5-7.5 7.5zm-79-72l2.5 0 0 15.476-10-7.648 0-.328c0-4.136 3.364-7.5 7.5-7.5zm11-22l57 0c4.136 0 7.5 3.364 7.5 7.5l0 30.74-29.515 22.571c-3.818 2.919-9.152 2.919-12.97 0L14 41.24l0-30.74C14 6.364 17.364 3 21.5 3zm68 22c4.136 0 7.5 3.364 7.5 7.5l0 .328-10 7.648L87 25l2.5 0zm0-1L87 24l0-13.5C87 5.813 83.187 2 78.5 2l-57 0C16.813 2 13 5.813 13 10.5L13 24l-2.5 0C5.813 24 2 27.813 2 32.5l0 57c0 4.687 3.813 8.5 8.5 8.5l79 0c4.687 0 8.5-3.813 8.5-8.5l0-57c0-4.687-3.813-8.5-8.5-8.5z" fill-rule="evenodd"/></svg>