<svg width="24" height="24" viewBox="0 0 24 24" xmlns="http://www.w3.org/2000/svg"><title>email/email-invite_24</title><path d="M21.5 23l-19 0c-.827 0-1.5-.673-1.5-1.5L1 9.4l9.076 6.941c.567.432 1.245.649 1.924.649.679 0 1.357-.217 1.924-.649L23 9.4l0 12.1c0 .827-.673 1.5-1.5 1.5zM2.5 6l.518 0 0 3.683L1 8.141 1 7.5C1 6.673 1.673 6 2.5 6zm3-5l13 0c.827 0 1.5.673 1.5 1.5l0 7.935-6.684 5.111c-.775.594-1.857.594-2.632 0L4 10.435 4 2.5C4 1.673 4.673 1 5.5 1zm16 5c.827 0 1.5.673 1.5 1.5l0 .641-2 1.529L21 6l.5 0zm0-1L21 5l0-2.5C21 1.121 19.879 0 18.5 0L5.518 0c-1.379 0-2.5 1.121-2.5 2.5l0 2.5L2.5 5C1.121 5 0 6.121 0 7.5l0 14C0 22.879 1.121 24 2.5 24l19 0c1.379 0 2.5-1.121 2.5-2.5l0-14C24 6.121 22.879 5 21.5 5z" fill="#000" fill-rule="evenodd"/></svg>