<svg width="20" height="20" viewBox="0 0 20 20" xmlns="http://www.w3.org/2000/svg"><title>email/email-read_20</title><path d="M17.5 19.0000635l-15 0c-.827 0-1.5-.6729572-1.5-1.4999047L1 6.83383638 8.338 12.44448c.49.3739762 1.076.5609643 1.662.5609643.586 0 1.172-.1869881 1.661-.5609643L19 6.83283644l0 10.66732236c0 .8269475-.673 1.4999047-1.5 1.4999047zM8.946 1.35818422c.307-.23498507.676-.35397752 1.047-.35397752.378 0 .759.12299219 1.083.37097644l7.104 4.82669338-7.126 5.44865388c-.62.4749698-1.488.4749698-2.108 0L1.819 6.20187652l7.127-4.8436923zm10.638 4.58970844c-.007-.00599962-.015-.0109993-.022-.01699892L11.661.564234653c-.977-.748952422-2.345-.749952359-3.3-.01699892L.415 5.94789266c-.26.19898736-.415.51296741-.415.84094658L0 17.5001588C0 18.8780713 1.122 20 2.5 20l15 0c1.378 0 2.5-1.1219287 2.5-2.4998412l0-10.71131956c0-.32697923-.155-.64195922-.416-.84094658z" fill="#000" fill-rule="evenodd"/></svg>