<svg width="16" height="16" xmlns="http://www.w3.org/2000/svg"><path d="M13.517 6.67c-.733.756-1.943.84-2.781.253l2.058-2.067a.5.5 0 000-.707.496.496 0 00-.703 0l-2.011 2.02c-.463-.865-.348-1.976.365-2.711 1.235-1.278 3.24-1.455 4.26-1.455.08 0 .155.002.223.003.025.947-.062 3.27-1.411 4.664m-9.562.662c-.582 0-1.13-.236-1.544-.662C1.067 5.28.977 2.954 1 2.006c.92-.025 3.144.07 4.482 1.452.712.734.828 1.845.364 2.71l-2.01-2.02a.497.497 0 00-.704 0 .502.502 0 000 .708l2.06 2.07a2.098 2.098 0 01-1.238.406m11.938-5.851a.499.499 0 00-.438-.446c-.15-.016-3.678-.387-5.724 1.725-1.09 1.126-1.214 2.873-.38 4.14L7.965 8.294 6.576 6.9c.836-1.268.71-3.015-.38-4.14C4.15.647.622 1.018.473 1.036a.499.499 0 00-.438.444c-.017.153-.376 3.781 1.663 5.886a3.118 3.118 0 002.257.966c.716 0 1.387-.254 1.942-.7L7.466 9.21v5.292a.498.498 0 10.995 0V9.21l1.57-1.577a3.078 3.078 0 001.942.7c.853 0 1.655-.343 2.257-.966 2.039-2.104 1.68-5.732 1.663-5.885" fill="#171B1F" fill-rule="evenodd"/></svg>