<svg width="18" height="18" viewBox="0 0 18 18" xmlns="http://www.w3.org/2000/svg"><title>chat/emoticons_18</title><path d="M9 17c4.411 0 8-3.589 8-8 0-4.411-3.589-8-8-8-4.411 0-8 3.589-8 8 0 4.411 3.589 8 8 8zM9 0c4.962 0 9 4.038 9 9 0 4.962-4.038 9-9 9-4.962 0-9-4.038-9-9 0-4.962 4.038-9 9-9zm3.6006 11.6997c.167-.221.479-.265.7-.1.221.166.265.48.1.701-1.051 1.398-2.654 2.199-4.401 2.199-1.746 0-3.35-.801-4.399-2.199-.166-.221-.122-.534.099-.7.221-.166.535-.121.7.099.859 1.145 2.172 1.8 3.6 1.8 1.429 0 2.741-.656 3.601-1.8zM5.29 8.71c-.09-.1-.16-.21-.21-.33C5.03 8.26 5 8.13 5 8c0-.27.11-.52.29-.71.38-.37 1.04-.37 1.42 0 .18.19.29.44.29.71 0 .13-.03.26-.08.38-.05.12-.12.23-.21.33-.19.18-.45.29-.71.29-.26 0-.52-.11-.71-.29zm6 0c-.09-.1-.16-.21-.21-.33-.05-.12-.08-.25-.08-.38 0-.27.11-.52.29-.71.38-.37 1.04-.37 1.42 0 .18.19.29.44.29.71 0 .13-.03.26-.08.38-.05.12-.12.23-.21.33-.19.18-.45.29-.71.29-.26 0-.52-.11-.71-.29z" fill-rule="evenodd"/></svg>