<svg width="20" height="20" viewBox="0 0 20 20" xmlns="http://www.w3.org/2000/svg"><title>chat/emoticons_20</title><path d="M10 0c5.514 0 10 4.486 10 10 0 5.514-4.486 10-10 10-5.514 0-10-4.486-10-10C0 4.486 4.486 0 10 0zm0 19c4.963 0 9-4.037 9-9 0-4.963-4.037-9-9-9-4.963 0-9 4.037-9 9 0 4.963 4.037 9 9 9zm-3-9c-.553 0-1-.447-1-1 0-.553.447-1 1-1 .553 0 1 .447 1 1 0 .553-.447 1-1 1zm6 0c-.553 0-1-.447-1-1 0-.553.447-1 1-1 .553 0 1 .447 1 1 0 .553-.447 1-1 1zm.8545 3.1865c.176-.214.491-.242.703-.066.213.175.243.491.067.703-1.145 1.384-2.831 2.176-4.624 2.176-1.797 0-3.485-.795-4.629-2.182-.176-.213-.146-.528.067-.704.213-.177.528-.147.704.067.954 1.156 2.359 1.819 3.858 1.819 1.495 0 2.9-.661 3.854-1.813z" fill="#000" fill-rule="evenodd"/></svg>