<?xml version="1.0" encoding="utf-8"?>
<!-- Generator: Adobe Illustrator 25.0.0, SVG Export Plug-In . SVG Version: 6.00 Build 0)  -->
<svg version="1.1" id="Layer_1" xmlns="http://www.w3.org/2000/svg" xmlns:xlink="http://www.w3.org/1999/xlink" x="0px" y="0px"
	 viewBox="0 0 14 14" style="enable-background:new 0 0 14 14;" xml:space="preserve">
<style type="text/css">
	.st0{fill-rule:evenodd;clip-rule:evenodd;}
</style>
<g>
	<path d="M6,12c-1.7-0.9-3.9-3.1-4-6.8l4-3.1V12z"/>
	<path d="M6.7,0.2c-0.4-0.3-1-0.3-1.5,0L0.6,3.7C0.2,4,0,4.4,0,4.9c0,4.8,3.3,8,5.4,9c0.4,0.2,0.8,0.2,1.2,0l0,0
		c0.2-0.1,0.2-0.1,0.4-0.2l0.1-0.1c0.2-0.1,0.3-0.4,0.2-0.7c-0.1-0.2-0.5-0.3-0.7-0.2c-0.1,0.1-0.3,0.2-0.4,0.2l0,0
		c-0.1,0-0.2,0-0.3,0C4,12,1,9.2,1,4.9c0-0.2,0.1-0.3,0.1-0.3l0,0L5.8,1C5.9,1,6,1,6.1,1l4.3,3.2c0.2,0.2,0.5,0.1,0.7-0.1
		c0.2-0.2,0.1-0.5-0.1-0.7L6.7,0.2z"/>
	<path d="M7,11.3c-0.3,0.3-0.7,0.5-1,0.7V2.1l4,3.1c0-0.1,0,0.1,0,0C8.8,5.6,8,6.7,8,8v0.4c-0.6,0.4-1,1-1,1.8V11.3z"/>
</g>
<path class="st0" d="M11,7c0.6,0,1,0.4,1,1v1h-2V8C10,7.4,10.4,7,11,7z M13,9V8c0-1.1-0.9-2-2-2S9,6.9,9,8v1c-0.6,0.1-1,0.5-1,1.1
	v2.7C8,13.5,8.5,14,9.2,14h3.7c0.6,0,1.2-0.5,1.2-1.2v-2.7C14,9.6,13.6,9.1,13,9z"/>
</svg>
