<svg width="20" height="20" viewBox="0 0 20 20" xmlns="http://www.w3.org/2000/svg"><title>hardware/endpoint-stand_20</title><path d="M17.4056 2c1.433 0 2.594 1.162 2.594 2.594l0 9.812c0 1.432-1.161 2.594-2.594 2.594l-6.906 0 0 2 3 0c.275 0 .5.225.5.5 0 .275-.225.5-.5.5l-7 0c-.274 0-.5-.225-.5-.5 0-.275.226-.5.5-.5l3 0 0-2-6.905 0c-1.433 0-2.595-1.162-2.595-2.594l0-9.812C-.0004 3.162 1.1616 2 2.5946 2l14.811 0zm1.594 11l0-8.406c0-.879-.715-1.594-1.594-1.594L2.5946 3c-.879 0-1.595.715-1.595 1.594l0 8.406 18 0zm0 1.406l0-.406-18 0 0 .406c0 .879.716 1.594 1.595 1.594l14.811 0c.879 0 1.594-.715 1.594-1.594zM9.9996 1c-.275 0-.5-.224-.5-.5 0-.276.225-.5.5-.5.276 0 .5.224.5.5 0 .276-.224.5-.5.5z" fill="#000" fill-rule="evenodd"/></svg>