<svg width="20" height="20" viewBox="0 0 20 20" xmlns="http://www.w3.org/2000/svg"><title>hardware/endpoint-g2-70_20</title><path d="M19 4l0 1 0 9-18 0 0-9 0-1 0-1.5C1 1.673 1.673 1 2.5 1l15 0c.827 0 1.5.673 1.5 1.5L19 4zm-1.5-4C18.875 0 20 1.125 20 2.5l0 17c0 .275-.225.5-.5.5-.275 0-.5-.225-.5-.5l0-4.5-18 0 0 4.5c0 .275-.225.5-.5.5-.275 0-.5-.225-.5-.5l0-17C0 1.125 1.125 0 2.5 0l15 0zm-7 2l-1 0c-.275 0-.5.225-.5.5 0 .275.225.5.5.5l1 0c.275 0 .5-.225.5-.5 0-.275-.225-.5-.5-.5z" fill="#000" fill-rule="evenodd"/></svg>