<svg width="20" height="20" viewBox="0 0 20 20" xmlns="http://www.w3.org/2000/svg"><title>hardware/endpoint-g2_20</title><path d="M17.4996 1.9999c1.375 0 2.5 1.125 2.5 2.5l0 11c0 1.375-1.125 2.5-2.5 2.5l-15 0c-1.375 0-2.5-1.125-2.5-2.5l0-11c0-1.375 1.125-2.5 2.5-2.5l15 0zm1.5 13.5l0-11c0-.827-.673-1.5-1.5-1.5l-15 0c-.827 0-1.5.673-1.5 1.5l0 11c0 .827.673 1.5 1.5 1.5l15 0c.827 0 1.5-.673 1.5-1.5zm-8.5-10.5c.276 0 .5.224.5.5 0 .276-.224.5-.5.5l-1 0c-.275 0-.5-.224-.5-.5 0-.276.225-.5.5-.5l1 0z" fill="#000" fill-rule="evenodd"/></svg>