<svg width="12" height="12" xmlns="http://www.w3.org/2000/svg"><path d="M1.3 10A1.3 1.3 0 01.007 8.833L0 8.7V3.3a1.3 1.3 0 011.167-1.293L1.3 2h7.4a1.3 1.3 0 011.293 1.167L10 3.3v3.809l1.862 3.318c.185.328.182.735-.008 1.06a1.018 1.018 0 01-.764.506l-.12.007H6.03c-.366 0-.697-.191-.884-.512a1.07 1.07 0 01-.07-.935l.061-.127.24-.426zm7.2-3.5l-.283.5L7.09 9l-.563 1-.52 1.003L10.968 11 9.926 9.09 8.784 7l-.263-.483-.009-.012-.007-.005zm.19 3.34a.42.42 0 01.16.1c.011.012.017.027.027.04A.503.503 0 019 10.3c0 .13-.05.26-.15.35a.345.345 0 01-.16.11.392.392 0 01-.19.04.466.466 0 01-.35-.15.467.467 0 01-.15-.35c0-.107.043-.21.11-.3.014-.02.022-.042.04-.06.14-.14.36-.18.54-.1zM8.5 7.356a.5.5 0 01.492.41l.008.09v1.15a.5.5 0 01-.992.09L8 9.008v-1.15a.5.5 0 01.5-.5zM5.938 9l.561-1H1v.7a.3.3 0 00.233.292L1.3 9h4.638zm2.83-5.992L8.7 3H1.3a.301.301 0 00-.292.23L1 3.3V7H7.06l.546-.973c.278-.492.926-.616 1.393-.375l.043.025L9 5.652V3.3a.3.3 0 00-.3-.3zM5.5 0a.5.5 0 01.09.992L5.5 1h-1a.5.5 0 01-.09-.992L4.5 0h1zm3.893 6.027l.265.473-.265-.473z" fill="#171B1F" fill-rule="evenodd"/></svg>