<svg width="20" height="20" viewBox="0 0 20 20" xmlns="http://www.w3.org/2000/svg"><title>hardware/endpoint-mx800-dual_20</title><path d="M17.5 0C18.875 0 20 1.125 20 2.5l0 17c0 .275-.225.5-.5.5-.275 0-.5-.225-.5-.5l0-6.5-8.5 0-1 0L1 13l0 6.5c0 .275-.225.5-.5.5-.275 0-.5-.225-.5-.5l0-17C0 1.125 1.125 0 2.5 0l15 0zM19 4l0-1.5c0-.827-.673-1.5-1.5-1.5l-15 0C1.673 1 1 1.673 1 2.5L1 4l8.5 0 1 0L19 4zm-8.5 8l8.5 0 0-7-8.5 0 0 7zM1 12l8.5 0 0-7L1 5l0 7zM7.5 2c.275 0 .5.225.5.5 0 .275-.225.5-.5.5l-1 0c-.275 0-.5-.225-.5-.5 0-.275.225-.5.5-.5l1 0zm6 0c.275 0 .5.225.5.5 0 .275-.225.5-.5.5l-1 0c-.275 0-.5-.225-.5-.5 0-.275.225-.5.5-.5l1 0z" fill="#000" fill-rule="evenodd"/></svg>