<svg width="20" height="20" viewBox="0 0 20 20" xmlns="http://www.w3.org/2000/svg"><title>hardware/endpoint-g2-70_20</title><path d="M17.5 0C18.875 0 20 1.125 20 2.5l0 17c0 .275-.225.5-.5.5-.275 0-.5-.225-.5-.5l0-4.5-18 0 0 4.5c0 .275-.225.5-.5.5-.275 0-.5-.225-.5-.5l0-17C0 1.125 1.125 0 2.5 0l15 0zM19 4l0-1.5c0-.827-.673-1.5-1.5-1.5l-15 0C1.673 1 1 1.673 1 2.5L1 4l0 1 0 9 18 0 0-9 0-1zm-8.5-2c.275 0 .5.225.5.5 0 .275-.225.5-.5.5l-1 0c-.275 0-.5-.225-.5-.5 0-.275.225-.5.5-.5l1 0z" fill="#000" fill-rule="evenodd"/></svg>