<svg width="16" height="16" viewBox="0 0 16 16" xmlns="http://www.w3.org/2000/svg"><title>hardware/endpoint-mx800-dual_16</title><path d="M14 1c1.103 0 2 .897 2 2l0 2 0 1 0 4 0 1 0 3.5c0 .276-.224.5-.5.5-.276 0-.5-.224-.5-.5l0-3.5-13 0 0 3.5c0 .276-.224.5-.5.5-.276 0-.5-.224-.5-.5L1 11l0-1 0-4 0-1 0-2c0-1.103.897-2 2-2l11 0zM2 5l13 0 0-2c0-.551-.448-1-1-1L3 2c-.552 0-1 .449-1 1l0 2zm4.5-2c.275 0 .5.225.5.5 0 .275-.225.5-.5.5l-1 0c-.275 0-.5-.225-.5-.5 0-.275.225-.5.5-.5l1 0zm5 0c.275 0 .5.225.5.5 0 .275-.225.5-.5.5l-1 0c-.275 0-.5-.225-.5-.5 0-.275.225-.5.5-.5l1 0zM9 10l6 0 0-4-6 0 0 4zm-7 0l6 0 0-4-6 0 0 4z" fill="#000" fill-rule="evenodd"/></svg>