<svg width="56" height="56" viewBox="0 0 56 56" xmlns="http://www.w3.org/2000/svg"><title>hardware/endpoint_56</title><path d="M29 5c0 .552-.448 1-1 1-.552 0-1-.448-1-1 0-.552.448-1 1-1 .552 0 1 .448 1 1zM4.99424261 10l46.01151479 0C53.7640014 10 56 12.24325385 56 15.0036561l0 31.9926878C56 49.7597868 53.7701762 52 51.0057574 52L4.99424261 52C2.23599858 52 0 49.7567461 0 46.9963439l0-31.9926878C0 12.24021316 2.22982375 10 4.99424261 10zM1 46.9963439C1 49.2060264 2.78984723 51 4.99424261 51l46.01151479 0C53.2151452 51 55 49.2102524 55 46.9963439l0-31.9926878C55 12.7939736 53.2101528 11 51.0057574 11L4.99424261 11C2.78485485 11 1 12.78974757 1 15.0036561l0 31.9926878zM1 42l54 0 0 1-54 0 0-1z" fill="#000" fill-rule="evenodd"/></svg>