<svg width="16" height="16" viewBox="0 0 16 16" xmlns="http://www.w3.org/2000/svg"><title>hardware/endpoint-g2-stand_16</title><path d="M14.5 1c.827 0 1.5.673 1.5 1.5l0 8c0 .827-.673 1.5-1.5 1.5L9 12l0 3 2 0c.275 0 .5.225.5.5 0 .275-.225.5-.5.5l-5 0c-.275 0-.5-.225-.5-.5 0-.275.225-.5.5-.5l2 0 0-3-5.5 0c-.827 0-1.5-.673-1.5-1.5l0-8C1 1.673 1.673 1 2.5 1l12 0zm.5 9.5l0-8c0-.276-.225-.5-.5-.5l-12 0c-.275 0-.5.224-.5.5l0 8c0 .276.225.5.5.5l12 0c.275 0 .5-.224.5-.5zM8.5 3c.276 0 .5.224.5.5 0 .276-.224.5-.5.5-.276 0-.5-.224-.5-.5 0-.276.224-.5.5-.5z" fill="#000" fill-rule="evenodd"/></svg>