<svg width="8" height="8" viewBox="0 0 8 8" xmlns="http://www.w3.org/2000/svg"><title>meetings/enter-room_8</title><path d="M5.4999 6c.275 0 .5.225.5.5l0 .333c0 .644-.523 1.167-1.167 1.167l-3.666 0c-.644 0-1.167-.523-1.167-1.167l0-5.666C-.0001.523.5229 0 1.1669 0l3.666 0c.644 0 1.167.523 1.167 1.167l0 .333c0 .275-.225.5-.5.5-.275 0-.5-.225-.5-.5l0-.333c0-.092-.075-.167-.167-.167l-3.666 0c-.092 0-.167.075-.167.167l0 5.666c0 .092.075.167.167.167l3.666 0c.092 0 .167-.075.167-.167l0-.333c0-.275.225-.5.5-.5zm2-2.5c.276 0 .5.224.5.5 0 .276-.224.5-.5.5l-3.793 0 .647.646c.195.196.195.512 0 .708-.098.097-.226.146-.354.146-.128 0-.256-.049-.354-.146l-1.5-1.5c-.195-.196-.195-.512 0-.708l1.5-1.5c.196-.195.512-.195.708 0 .195.196.195.512 0 .708l-.647.646 3.793 0z" fill="#000" fill-rule="evenodd"/></svg>