<svg width="20" height="20" viewBox="0 0 20 20" xmlns="http://www.w3.org/2000/svg"><title>meetings/enter-room_20</title><path d="M15 2.5C15 1.119 13.881 0 12.5 0l-9 0C2.119 0 1 1.119 1 2.5l0 15C1 18.881 2.119 20 3.5 20l9 0c1.381 0 2.5-1.119 2.5-2.5l0-1.5c0-.276-.224-.5-.5-.5-.276 0-.5.224-.5.5l0 1.5c0 .827-.673 1.5-1.5 1.5l-9 0c-.827 0-1.5-.673-1.5-1.5l0-15C2 1.673 2.673 1 3.5 1l9 0c.827 0 1.5.673 1.5 1.5L14 4c0 .276.224.5.5.5.276 0 .5-.224.5-.5l0-1.5zm-.146 11.854c.195-.196.195-.512 0-.708L11.707 10.5l6.793 0c.276 0 .5-.224.5-.5 0-.276-.224-.5-.5-.5l-6.793 0 3.147-3.146c.195-.196.195-.512 0-.708-.196-.195-.512-.195-.708 0l-3.999 4c-.046.046-.083.102-.109.163-.05.122-.05.26 0 .382.026.061.063.117.109.163l3.999 4c.098.097.226.146.354.146.128 0 .256-.049.354-.146z" fill="#000" fill-rule="evenodd"/></svg>