<svg width="16" height="16" viewBox="0 0 16 16" xmlns="http://www.w3.org/2000/svg"><title>meetings/enter-room_16</title><path d="M12 14c0 1.103-.897 2-2 2l-7 0c-1.103 0-2-.897-2-2L1 2c0-1.104.897-2 2-2l7 0c1.103 0 2 .896 2 2l0 1c0 .276-.224.5-.5.5-.276 0-.5-.224-.5-.5l0-1c0-.552-.448-1-1-1L3 1c-.552 0-1 .448-1 1l.026 12.128c.066.489.468.872.974.872l7 0c.552 0 1-.448 1-1l0-1c0-.276.224-.5.5-.5.276 0 .5.224.5.5l0 1zm-.1634-3.3232c.195.195.195.513 0 .707-.196.195-.512.195-.707 0l-2.983-2.981c-.094-.094-.147-.221-.147-.355 0-.133.053-.26.147-.353l3.031-3.031c.098-.097.226-.145.354-.145.128 0 .256.048.353.145.196.196.196.512 0 .707l-2.177 2.177 4.812 0c.276 0 .5.225.5.5 0 .276-.224.5-.5.5l-4.812 0 2.129 2.129z" fill-rule="evenodd"/></svg>