<svg width="16" height="16" viewBox="0 0 16 16" xmlns="http://www.w3.org/2000/svg"><title>navigation/enter_16</title><path d="M15.8537523 7.63896531L9.86384588 1.646314716c-.19499696-.195086288-.51099202-.195086288-.70698896 0-.19499695.196086731-.19499695.512226564 0 .707312854l5.15291948 5.15528022-7.82087779 0C2.91095452 7.50890779 0 10.42119591 0 13.9997787 0 14.2769013.2239965 14.5.499992188 14.5c.276995672 0 .499992187-.2230987.499992187-.5002213 0-3.02733897 2.461961535-5.49042841 5.488914235-5.49042841l7.78787829 0-5.12291993 5.12526691c-.19499695.1950863-.19499695.5112262 0 .7073129.09799847.0970429.22599647.1460646.35399447.1460646.127998 0 .255996-.0490217.35299448-.1460646l5.99290638-5.99565194c.1949969-.19508629.1949969-.51222656 0-.70731285" fill="#000" fill-rule="evenodd"/></svg>