<svg width="24" height="24" viewBox="0 0 24 24" xmlns="http://www.w3.org/2000/svg"><title>content/eraser_24</title><path d="M22.1592 10.2091l-9.15 9.188-8.426-8.361 9.15-9.187c.564-.567 1.307-.85 2.05-.85.737 0 1.475.279 2.037.837l4.327 4.296c.548.542.85 1.264.853 2.035.002.771-.297 1.495-.841 2.042zm-11.894 11.942c-1.123 1.129-2.957 1.133-4.085.012l-4.328-4.295c-.547-.542-.85-1.265-.852-2.035-.003-.771.296-1.496.84-2.043l2.037-2.045 8.426 8.36-2.038 2.046zm12.587-16.729l-4.327-4.296c-1.521-1.508-3.989-1.501-5.501.018l-11.893 11.941c-.733.735-1.134 1.713-1.131 2.751.003 1.038.411 2.012 1.147 2.742l4.327 4.294c.758.752 1.75 1.128 2.743 1.128 1 0 1.999-.381 2.757-1.144l11.894-11.942c.732-.735 1.135-1.712 1.132-2.75-.004-1.038-.411-2.012-1.148-2.742z" fill-rule="evenodd"/></svg>