<svg width="16" height="16" viewBox="0 0 16 16" xmlns="http://www.w3.org/2000/svg"><title>content/eraser_16</title><path d="M14.5020107 6.70776137L8.97001068 12.2617614l-5.227-5.22700003 5.51-5.532c.665-.667999996 1.75100002-.670999996 2.42000002-.007l2.822 2.8c.324.321.503.748.505 1.204.001.456-.176.885-.498 1.208zM6.74601068 14.4947614c-.664.669-1.75.671-2.42.007l-2.822-2.8c-.324-.321-.503-.748-.504-1.204-.002000002-.456.175-.88500003.497-1.20800003l1.54-1.546 5.227 5.22700003-1.518 1.524zM15.1990107 3.58576137l-2.822-2.799999996c-1.06-1.052-2.77800002-1.047-3.83300002.011L.788010678 8.58376137c-.511.513-.7899999996 1.194-.7879999996 1.91700003.002.723.2859999996 1.402.7999999996 1.911l2.822000002 2.8c.527.524 1.219.786 1.91.786.697 0 1.393-.266 1.923-.797l7.75600002-7.78700003c.511-.513.791-1.194.789-1.917-.003-.723-.287-1.402-.801-1.911z" fill="#000" fill-rule="evenodd"/></svg>