<svg width="16" height="16" viewBox="0 0 16 16" xmlns="http://www.w3.org/2000/svg"><title>alerts-and-notifications/error_16</title><path d="M15 10.8896c0 .217-.088.429-.241.582l-3.287 3.287c-.154.153-.366.241-.583.241l-5.778 0c-.217 0-.429-.088-.583-.241l-3.287-3.287c-.153-.153-.241-.365-.241-.582l0-5.779c0-.217.088-.429.241-.582l3.287-3.287c.154-.154.366-.242.583-.242l5.778 0c.217 0 .429.088.583.242l3.287 3.287c.153.153.241.365.241.582l0 5.779zm.466-7.068c.339.339.534.809.534 1.289l0 5.779c0 .479-.195.949-.534 1.289l-3.287 3.287c-.34.34-.81.534-1.29.534l-5.778 0c-.48 0-.95-.194-1.29-.534l-3.287-3.287c-.339-.34-.534-.81-.534-1.289l0-5.779c0-.48.195-.95.534-1.289L3.821.5346c.34-.34.81-.535 1.29-.535l5.778 0c.48 0 .95.195 1.29.535l3.287 3.287zm-4.6125 1.3249c-.195-.195-.512-.195-.707 0l-2.147 2.146-2.146-2.146c-.195-.195-.512-.195-.707 0-.195.195-.195.512 0 .707l2.146 2.147-2.146 2.146c-.195.195-.195.512 0 .707.098.098.226.147.353.147.128 0 .256-.049.354-.147l2.146-2.146 2.147 2.146c.098.098.226.147.353.147.128 0 .256-.049.354-.147.195-.195.195-.512 0-.707l-2.146-2.146 2.146-2.147c.195-.195.195-.512 0-.707z" fill="#000" fill-rule="evenodd"/></svg>