<svg width="12" height="12" viewBox="0 0 12 12" xmlns="http://www.w3.org/2000/svg"><title>alerts-and-notifications/error_12</title><path d="M7.8535 4.1465c-.195-.195-.512-.195-.707 0l-1.147 1.146-1.146-1.146c-.195-.195-.512-.195-.707 0-.195.195-.195.512 0 .707l1.146 1.147-1.146 1.146c-.195.195-.195.512 0 .707.098.098.226.147.353.147.128 0 .256-.049.354-.147l1.146-1.146 1.147 1.146c.098.098.226.147.353.147.128 0 .256-.049.354-.147.195-.195.195-.512 0-.707l-1.146-1.146 1.146-1.147c.195-.195.195-.512 0-.707M6 11c2.76142375 0 5-2.23857625 5-5 0-2.76142375-2.23857625-5-5-5-2.76142375 0-5 2.23857625-5 5 0 2.76142375 2.23857625 5 5 5zm0 1c-3.3137085 0-6-2.6862915-6-6 0-3.3137085 2.6862915-6 6-6 3.3137085 0 6 2.6862915 6 6 0 3.3137085-2.6862915 6-6 6z" fill="#000" fill-rule="evenodd"/></svg>