<svg width="12" height="12" viewBox="0 0 12 12" xmlns="http://www.w3.org/2000/svg"><title>alerts-and-notifications/error-legacy_12</title><path d="M11.569 2.8411c.279.279.431.648.431 1.04l0 4.238c0 .387-.157.766-.431 1.039l-2.411 2.411c-.273.274-.652.431-1.039.431l-4.238 0c-.386 0-.765-.157-1.039-.43L.431 9.1581C.157 8.8861 0 8.5071 0 8.1191l0-4.238c0-.393.153-.762.431-1.04l2.41-2.41c.278-.278.647-.431 1.04-.431l4.238 0c.388 0 .767.157 1.04.431l2.41 2.41zM11 8.1191l0-4.238c0-.125-.049-.244-.139-.333l-2.41-2.41c-.088-.088-.208-.138-.332-.138l-4.238 0c-.126 0-.244.049-.333.138l-2.41 2.41c-.088.088-.138.209-.138.333l0 4.238c0 .124.05.244.137.331l2.411 2.412c.088.087.209.138.333.138l4.238 0c.123 0 .244-.05.332-.138l2.411-2.411c.088-.088.138-.209.138-.332zM7.8535 4.1465c.195.195.195.512 0 .707l-1.146 1.147 1.146 1.146c.195.195.195.512 0 .707-.098.098-.226.147-.354.147-.127 0-.255-.049-.353-.147l-1.147-1.146-1.146 1.146c-.098.098-.226.147-.354.147-.127 0-.255-.049-.353-.147-.195-.195-.195-.512 0-.707l1.146-1.146-1.146-1.147c-.195-.195-.195-.512 0-.707.195-.195.512-.195.707 0l1.146 1.146 1.147-1.146c.195-.195.512-.195.707 0z" fill="#000" fill-rule="evenodd"/></svg>