<svg width="80" height="80" viewBox="0 0 80 80" xmlns="http://www.w3.org/2000/svg"><title>alerts-and-notifications/error-legacy_80</title><path d="M79 55.217c0 1.728-.673 3.353-1.895 4.576L59.792 77.105C58.57 78.327 56.945 79 55.217 79l-30.434 0c-1.728 0-3.353-.673-4.575-1.895L2.895 59.793C1.673 58.57 1 56.945 1 55.217l0-30.434c0-1.728.673-3.353 1.895-4.575L20.208 2.895C21.43 1.673 23.055 1 24.783 1l30.434 0c1.728 0 3.353.673 4.575 1.895l17.313 17.313C78.327 21.43 79 23.055 79 24.783l0 30.434zm-1.188-35.716C79.223 20.912 80 22.788 80 24.783l0 30.434c0 1.995-.777 3.871-2.188 5.283L60.5 77.812C59.088 79.223 57.212 80 55.217 80l-30.434 0c-1.995 0-3.871-.777-5.283-2.188L2.188 60.5C.777 59.088 0 57.212 0 55.217l0-30.434c0-1.995.777-3.871 2.188-5.282L19.5 2.188C20.912.777 22.788 0 24.783 0l30.434 0c1.995 0 3.871.777 5.283 2.188l17.312 17.313zm-23.9585 6.6457c-.195-.195-.512-.195-.707 0l-13.147 13.146-13.146-13.146c-.195-.195-.512-.195-.707 0-.195.195-.195.512 0 .707l13.146 13.147-13.146 13.146c-.195.195-.195.512 0 .707.098.098.226.147.353.147.128 0 .256-.049.354-.147l13.146-13.146 13.147 13.146c.098.098.226.147.353.147.128 0 .256-.049.354-.147.195-.195.195-.512 0-.707l-13.146-13.146 13.146-13.147c.195-.195.195-.512 0-.707z" fill="#000" fill-rule="evenodd"/></svg>