<svg width="20" height="20" viewBox="0 0 20 20" xmlns="http://www.w3.org/2000/svg"><title>alerts-and-notifications/error-legacy_20</title><path d="M19.362 4.8022c.406.403.638.964.638 1.538l0 7.32c0 .573-.232 1.135-.639 1.539l-4.163 4.163c-.403.405-.965.638-1.538.638l-7.32 0c-.573 0-1.135-.233-1.539-.639l-4.163-4.163c-.406-.403-.638-.965-.638-1.538l0-7.32c0-.574.232-1.135.639-1.539L4.802.6382c.403-.406.965-.638 1.538-.638l7.32 0c.573 0 1.135.232 1.539.639l4.163 4.163zM19 13.6602l0-7.32c0-.31-.125-.613-.344-.83l-4.165-4.165c-.219-.22-.521-.345-.831-.345l-7.32 0c-.31 0-.612.125-.83.344l-4.165 4.165c-.22.218-.345.521-.345.831l0 7.32c0 .31.125.612.344.83l4.165 4.165c.219.22.521.345.831.345l7.32 0c.31 0 .612-.125.83-.344l4.165-4.165c.22-.219.345-.521.345-.831zm-5.1465-7.5137c.195.195.195.512 0 .707l-3.146 3.147 3.146 3.146c.195.195.195.512 0 .707-.098.098-.226.147-.354.147-.127 0-.255-.049-.353-.147l-3.147-3.146-3.146 3.146c-.098.098-.226.147-.354.147-.127 0-.255-.049-.353-.147-.195-.195-.195-.512 0-.707l3.146-3.146-3.146-3.147c-.195-.195-.195-.512 0-.707.195-.195.512-.195.707 0l3.146 3.146 3.147-3.146c.195-.195.512-.195.707 0z" fill="#000" fill-rule="evenodd"/></svg>