<svg width="20" height="14" viewBox="0 0 20 14" fill="none" xmlns="http://www.w3.org/2000/svg">
<path fill-rule="evenodd" clip-rule="evenodd" d="M1.5 0C1.08638 0 0.702836 0.140057 0.421447 0.421447C0.140057 0.702836 0 1.08638 0 1.5V5C0 5.27614 0.223858 5.5 0.5 5.5C1.32386 5.5 2 6.17614 2 7C2 7.82386 1.32386 8.5 0.5 8.5C0.223858 8.5 0 8.72386 0 9V12.5C0 12.9136 0.140057 13.2972 0.421447 13.5786C0.702836 13.8599 1.08638 14 1.5 14H18.5C18.9136 14 19.2972 13.8599 19.5786 13.5786C19.8599 13.2972 20 12.9136 20 12.5V9C20 8.72386 19.7761 8.5 19.5 8.5C18.6761 8.5 18 7.82386 18 7C18 6.17614 18.6761 5.5 19.5 5.5C19.7761 5.5 20 5.27614 20 5V1.5C20 1.08638 19.8599 0.702836 19.5786 0.421447C19.2972 0.140057 18.9136 0 18.5 0H1.5ZM1 1.5C1 1.31362 1.05994 1.19716 1.12855 1.12855C1.19716 1.05994 1.31362 1 1.5 1H6V13H1.5C1.31362 13 1.19716 12.9401 1.12855 12.8714C1.05994 12.8028 1 12.6864 1 12.5V9.44954C2.13827 9.21659 3 8.20502 3 7C3 5.79498 2.13827 4.78341 1 4.55046V1.5ZM7 13H18.5C18.6864 13 18.8028 12.9401 18.8714 12.8714C18.9401 12.8028 19 12.6864 19 12.5V9.44954C17.8617 9.21659 17 8.20502 17 7C17 5.79498 17.8617 4.78341 19 4.55046V1.5C19 1.31362 18.9401 1.19716 18.8714 1.12855C18.8028 1.05994 18.6864 1 18.5 1H7V13Z" fill="#121212"/>
</svg>
