<svg width="16" height="16" viewBox="0 0 16 16" fill="none" xmlns="http://www.w3.org/2000/svg">
<path d="M0.5 10C0.223858 10 0 10.2239 0 10.5C0 10.7761 0.223858 11 0.5 11H14.2929L12.1464 13.1464C11.9512 13.3417 11.9512 13.6583 12.1464 13.8536C12.3417 14.0488 12.6583 14.0488 12.8536 13.8536L15.8536 10.8535C15.9966 10.7105 16.0393 10.4955 15.9619 10.3087C15.8845 10.1218 15.7022 10 15.5 10H0.5Z" fill="#121212"/>
<path d="M15.5 6C15.7761 6 16 5.77614 16 5.5C16 5.22386 15.7761 5 15.5 5H1.7071L3.8536 2.85355C4.0488 2.65829 4.0488 2.34171 3.8536 2.14645C3.6583 1.95118 3.3417 1.95118 3.1464 2.14645L0.146401 5.14645C0.00340164 5.28945 -0.0392986 5.5045 0.0381014 5.69134C0.115501 5.87818 0.297801 6 0.5 6H15.5Z" fill="#121212"/>
</svg>
