<svg width="28" height="28" viewBox="0 0 28 28" xmlns="http://www.w3.org/2000/svg"><title>meetings/exit-room_28</title><path d="M17 27L5 27c-1.654 0-3-1.346-3-3L2 4c0-1.654 1.346-3 3-3l12 0c1.654 0 3 1.346 3 3l0 1.5c0 .276-.224.5-.5.5-.276 0-.5-.224-.5-.5L19 4c0-1.103-.897-2-2-2L5 2c-1.103 0-2 .897-2 2l0 20c0 1.103.897 2 2 2l12 0c1.103 0 2-.897 2-2l0-.481c0-.277.224-.5.5-.5.276 0 .5.223.5.5L20 24c0 1.654-1.346 3-3 3zm8.9615-12.3052c-.025.062-.062.117-.109.163l-5.999 6.004c-.098.098-.226.147-.354.147-.127 0-.255-.049-.353-.147-.195-.195-.195-.511 0-.707l5.147-5.151-10.794 0c-.276 0-.5-.224-.5-.5 0-.276.224-.5.5-.5l10.794 0-5.147-5.15c-.195-.196-.195-.512 0-.707.195-.196.512-.196.707 0l5.999 6.003c.047.046.084.102.109.163.051.122.051.26 0 .382z" fill="#000" fill-rule="evenodd"/></svg>