<svg width="28" height="28" viewBox="0 0 28 28" xmlns="http://www.w3.org/2000/svg"><title>meetings/exit-room_28</title><path d="M5 27c-1.654 0-3-1.346-3-3L2 4c0-1.654 1.346-3 3-3l12 0c1.654 0 3 1.346 3 3l0 1.5c0 .276-.224.5-.5.5-.276 0-.5-.224-.5-.5L19 4c0-1.104-.897-2-2-2L5 2c-1.103 0-2 .896-2 2l0 20c0 1.103.897 2 2 2l12 0c1.103 0 2-.897 2-2l0-1.481c0-.277.224-.5.5-.5.276 0 .5.223.5.5L20 24c0 1.654-1.346 3-3 3L5 27zm14.1465-7.3496l5.147-5.149-10.794 0c-.276 0-.5-.225-.5-.5 0-.277.224-.5.5-.5l10.794 0-5.147-5.152c-.195-.196-.195-.512 0-.707.098-.097.226-.147.353-.147.128 0 .256.05.354.147l5.999 6.004c.047.046.084.101.109.163.051.122.051.26 0 .382-.025.062-.062.117-.109.163l-5.999 6.003c-.195.196-.512.196-.707 0-.195-.195-.195-.511 0-.707z" fill="#000" fill-rule="evenodd"/></svg>