<svg width="24" height="24" viewBox="0 0 24 24" xmlns="http://www.w3.org/2000/svg"><title>meetings/exit-room_24</title><path d="M17.5 20c.276 0 .5.224.5.5l0 1c0 1.378-1.121 2.5-2.5 2.5l-11 0C3.121 24 2 22.878 2 21.5l0-19C2 1.122 3.121 0 4.5 0l11 0C16.879 0 18 1.122 18 2.5l0 2c0 .276-.224.5-.5.5-.276 0-.5-.224-.5-.5l0-2c0-.827-.673-1.5-1.5-1.5l-11 0C3.673 1 3 1.673 3 2.5l0 19c0 .827.673 1.5 1.5 1.5l11 0c.827 0 1.5-.673 1.5-1.5l0-1c0-.276.224-.5.5-.5zm-4-7.9999021l6.791 0-3.145-3.14296423c-.195-.19512195-.195-.51131956 0-.70744213.196-.19512195.512-.19512195.708-.00100063l4 3.99749829c.003.0040025.004.0090057.008.0130082.041.0430269.076.0930581.099.1490932.026.0620387.039.1270794.039.19212l0 .0030019c0 .1290807-.048.2581613-.146.3562226l-4 3.9974984c-.098.0970606-.226.1460913-.354.1460913-.128 0-.256-.0490307-.354-.1460913-.195-.1961226-.195-.5133209 0-.7084428l3.151-3.1479674-6.797 0c-.276 0-.5-.2241401-.5-.5003127 0-.2761726.224-.5003127.5-.5003127z" fill="#000" fill-rule="evenodd"/></svg>