<svg width="10" height="10" viewBox="0 0 10 10" xmlns="http://www.w3.org/2000/svg"><title>contacts/external-user_10</title><path d="M9.8569 8.5154c.189.308.191.677.005.988-.186.311-.519.497-.893.497l-1.687 0-3.253 0-3.31 0c-.215 0-.415-.099-.552-.268-.144-.181-.199-.423-.148-.651l.256-1.173c.196-.9.813-1.574 1.587-1.81-.531-.541-.862-1.282-.862-2.098 0-1.656 1.346-3 3-3 1.655 0 3 1.344 3 3 0 .037-.013.071-.015.107.163.077.305.192.402.351 0 0 0 0 .001.001l2.469 4.056zm-.865.509l.012.013-.01-.018c-.001.002-.002.003-.002.005zm-7.74-.902l-.191.878 1.939 0c.002-.167.048-.334.141-.486l.922-1.514-1.602 0c-.567 0-1.064.461-1.209 1.122zm2.748-6.122c-1.102 0-2 .896-2 2 0 1.103.898 2 2 2 .281 0 .54-.076.783-.182l.828-1.359c.092-.151.225-.265.377-.341.003-.04.012-.078.012-.118 0-1.104-.897-2-2-2zm4.982 7l-2.439-4.005c.001.005-.004.006-.011.006-.008 0-.02-.001-.033-.001-.035 0-.058.008-.064.011l-2.419 3.989 4.966 0zM6 5.9121c0-.276.224-.5.5-.5.276 0 .5.224.5.5l0 1.588c0 .276-.224.5-.5.5-.276 0-.5-.224-.5-.5l0-1.588zm.1489 2.2305c.18-.19.52-.19.7 0 .1.09.15.22.15.35 0 .13-.05.26-.15.35-.09.1-.22.15-.35.15-.13 0-.26-.05-.35-.15-.1-.09-.15-.22-.15-.35 0-.13.05-.26.15-.35z" fill="#000" fill-rule="evenodd"/></svg>