<svg width="36" height="36" viewBox="0 0 36 36" xmlns="http://www.w3.org/2000/svg"><title>chat/external-message_36</title><path d="M31.7501 25.3613l-12.751-7.361 12.751-7.362c.239-.137.321-.443.183-.682-.138-.241-.445-.323-.683-.183l-12.75 7.361 0-14.634c0-.277-.224-.5-.5-.5-.276 0-.5.223-.5.5l0 14.634-12.75-7.361c-.238-.139-.545-.057-.683.183-.138.239-.056.545.183.682l12.751 7.362-12.751 7.361c-.239.138-.321.443-.183.683.092.16.261.25.433.25.085 0 .171-.022.25-.068l12.75-7.361 0 14.635c0 .276.224.5.5.5.276 0 .5-.224.5-.5l0-14.635 12.75 7.361c.079.046.165.068.25.068.172 0 .341-.09.433-.25.138-.24.056-.545-.183-.683" fill-rule="evenodd"/></svg>