<svg width="20" height="20" viewBox="0 0 20 20" xmlns="http://www.w3.org/2000/svg" xmlns:xlink="http://www.w3.org/1999/xlink"><title>contacts/external-user_20</title><defs><path d="M19.807902 15.912c.127.217.192.457.192.697 0 .239-.063.479-.188.698-.25.435-.698.693-1.197.693l-7.674 0-.559 0-9.35099999 0c-.328 0-.629-.147-.826-.402-.1879999996-.244-.2499999996-.553-.1719999996-.847L.65590201 14.403c.532-2.003 2.426-3.403 4.607-3.403l.427 0c-1.619-1.075-2.69-2.914-2.69-5 0-3.307 2.691-6 6-6C12.306902 0 14.999902 2.693 14.999902 6c0 .764-.15 1.492-.41 2.163.439.027.869.234 1.102.637.001 0 .001 0 .001.001l4.115 7.111zm-.863.896c.034-.06.104-.217-.001-.396l-4.116-7.11c-.101-.172-.264-.19-.328-.19-.067 0-.23.018-.329.191l-4.117 7.109c-.10299999.179-.035.336-.002.396.035.059.133.192.33.192l8.233 0c.198 0 .296-.133.33-.192zm-9.88499999.196c-.107-.363-.068-.754.129-1.093L11.452902 12l-6.18999999 0c-1.728 0-3.224 1.094-3.64 2.66l-.623 2.348 8.06-.004zm-5.06-11.004c0 2.757 2.243 5 5 5C11.756902 11 13.999902 8.757 13.999902 6c0-2.755-2.243-5-4.99999999-5-2.757 0-5 2.245-5 5zM14.848202 15.1508c.05.04.091.1.11.16.03.06.04.13.04.19 0 .129-.049.26-.15.35-.09.1-.22.15-.35.15-.059 0-.129-.01-.19-.04-.06-.02-.119-.06-.16-.11-.1-.09-.15-.221-.15-.35 0-.06.01-.13.04-.19.02-.06.06-.12.11-.16.041-.05.1-.09.16-.11.12-.05.26-.05.381 0 .059.02.119.06.159.11zm-.3496-4.1504c.276 0 .5.225.5.5l0 2c0 .276-.224.5-.5.5-.275 0-.5-.224-.5-.5l0-2c0-.275.225-.5.5-.5z" id="a"/></defs><use xlink:href="#a" transform="translate(0.000000, 1.000000)" fill-rule="evenodd"/></svg>