<svg width="12" height="12" viewBox="0 0 12 12" xmlns="http://www.w3.org/2000/svg"><title>contacts/external-user_12</title><path d="M11.8508698 10.4848c.1899688.304.1989674.675.023996.99-.1799705.324-.5279134.525-.9068513.525l-3.47842997 0-1.45976077 0-5.02917578 0c-.629896769 0-1.103819099-.579-.9808392542-1.198l.2799541192-1.393c.228962476-1.151 1.103819095-2.027 2.200639345-2.306-.90985089-.733-1.503753556-1.843-1.503753556-3.103 0-2.209 1.790706526-4 3.999344556-4 2.20863804 0 3.99934456 1.791 3.99934456 4 0 .755-.23296182 1.443-.59890185 2.041.3789379-.033.77787252.11.9848386.442 0 .001 0 .001.00099984.002l2.46859546 4zm-4.36128527.522l3.47842997-.007-2.43660072-3.989c-.00699885-.011-.03099492-.011-.03199475-.011l-2.49159166 3.995 1.48175716 0 0 .012zm-6.2109821-1.401l-.27695462 1.39 4.0003444-.001c0-.176.04799213-.352.14597608-.511l1.5327488-2.484-3.4444355 0c-.94684483 0-1.77070981.675-1.95767916 1.606zm.71788234-5.606c0 1.654 1.34577945 3 2.99950842 3 1.65272914 0 2.99950842-1.346 2.99950842-3 0-1.654-1.34677928-3-2.99950842-3-1.65372897 0-2.99950842 1.346-2.99950842 3zM7.99930099 8.5c0-.275.22496313-.5.49991807-.5.27495494 0 .49991807.225.49991807.5l0 1c0 .275-.22496313.5-.49991807.5-.27495494 0-.49991807-.225-.49991807-.5l0-1zm0 2c0-.275.22496313-.5.49991807-.5.27495494 0 .49991807.225.49991807.5 0 .275-.22496313.5-.49991807.5-.27495494 0-.49991807-.225-.49991807-.5z" fill="#000" fill-rule="evenodd"/></svg>