<svg width="40" height="40" viewBox="0 0 40 40" xmlns="http://www.w3.org/2000/svg" xmlns:xlink="http://www.w3.org/1999/xlink"><title>social/facebook-circle_40</title><path d="M25.137 12.825l0-3.915-3.115 0c-3.347 0-4.856 1.475-4.856 4.297l0 3.007-2.341 0 0 3.819 2.341 0 0 11.217 4.498 0 0-11.264 3.139 0 .334-3.772-3.473 0 0-2.148c0-.889.179-1.241 1.038-1.241l2.435 0zM20 0c11.045 0 20 8.953 20 20 0 11.046-8.955 20-20 20C8.954 40 0 31.046 0 20 0 8.953 8.954 0 20 0z" fill="#000" fill-rule="evenodd"/></svg>
