<svg width="14" height="14" viewBox="0 0 14 14" xmlns="http://www.w3.org/2000/svg"><title>contacts/favorite_14</title><path d="M9.6063952 7.9445c-.006.004-.012.008-.018.012-.306.238-.436.646-.321 1.018l1.119 3.578-2.818-2.167c-.332-.255-.8-.256-1.138 0l-2.817 2.168 1.119-3.58c.115-.371-.015-.779-.339-1.029l-2.764-1.946 3.426 0c.4 0 .766-.281.894-.689l1.051-3.543 1.05 3.545c.126.401.493.681.892.681l3.427 0-2.763 1.952zm4.354-2.468c-.098-.289-.375-.484-.689-.484l-4.264.028-1.344-4.534c-.092-.291-.359-.486-.663-.486-.305 0-.572.195-.666.494l-1.279 4.504-4.329999998 0c-.313 0-.59.194-.6879999999.483-.098.29-.001.6.2629999999.803L3.7773952 8.6755l-1.363 4.363c-.096.31.018.642.284.827.265.185.618.177.876-.02l3.386-2.667 3.466 2.666c.133.103.292.155.451.155.149 0 .296-.044.425-.134.266-.186.38-.519.283-.829l-1.348-4.314 3.476-2.455c.248-.191.345-.501.247-.791z" fill="#000" fill-rule="evenodd"/></svg>