<svg width="14" height="14" viewBox="0 0 14 14" xmlns="http://www.w3.org/2000/svg"><title>meetings/feedback-active_14</title><path d="M1 5.8886c0-.587.28-1.312 1-1.694l0 3.389c-.723-.384-1-1.109-1-1.695zm12.383-4.528c-.396-.314-.906-.43-1.391-.32l-9.691 1.98C.712 3.3856.001 4.7236 0 5.8886c0 1.118.663 2.387 2.12 2.812l1.122 3.302c.182.596.723.998 1.347.998.452 0 .879-.219 1.143-.586.268-.371.338-.833.19-1.278l-.604-1.692 6.661 1.513c.125.028.25.043.376.043.371 0 .731-.124 1.028-.361.392-.312.617-.777.617-1.276l0-6.727c0-.499-.225-.964-.617-1.276z" fill="#000" fill-rule="evenodd"/></svg>