<svg width="72" height="72" viewBox="0 0 72 72" xmlns="http://www.w3.org/2000/svg"><title>meetings/feedback_72</title><path d="M70 50.3205c0 1.725-.773 3.327-2.123 4.397-1.344 1.067-3.072 1.455-4.748 1.064l-51.175-11.476 0-24.719 51.184-11.44c1.669-.389 3.398 0 4.742 1.068 1.347 1.07 2.12 2.672 2.12 4.395l0 36.711zm-44.939 8.039c.441 1.324.226 2.732-.59 3.863-.814 1.129-2.077 1.776-3.466 1.776-1.894 0-3.537-1.219-4.089-3.033l-4.748-15.586 9.266 2.078 3.627 10.902zM2 31.9405c.002-4.452 2.378-10.159 8.954-12.085l0 24.181c-6.583-1.932-8.956-7.642-8.954-12.096zm66.501-23.51c-1.583-1.256-3.622-1.713-5.585-1.259l-51.374 11.481C5.141 20.1415 1.002 25.3575 1 31.9405c-.002 6.419 3.934 11.53 10.062 13.167l4.897 16.149c.682 2.238 2.709 3.742 5.046 3.742 1.714 0 3.273-.798 4.277-2.191 1.006-1.394 1.271-3.132.728-4.764l-3.437-10.33 40.333 9.044c.502.117 1.008.173 1.51.173 1.469 0 2.902-.492 4.083-1.429 1.589-1.261 2.501-3.15 2.501-5.181l0-36.711c0-2.03-.911-3.917-2.499-5.179z" fill="#000" fill-rule="evenodd"/></svg>