<svg width="16" height="16" viewBox="0 0 16 16" xmlns="http://www.w3.org/2000/svg"><title>meetings/feedback-active_16</title><path d="M1 7.3799c0-.81.477-1.862 1.805-2.156L3 5.1859l0 4.393-.188-.041C1.475 9.2409 1 8.1899 1 7.3799zm14.343-4.969c-.441-.355-1.017-.49-1.565-.365L2.6 4.2459c-1.795.396-2.599 1.86-2.6 3.134 0 1.273.803 2.736 2.597 3.134l.331.073 1.07 3.327c.2.651.791 1.089 1.472 1.089.5 0 .955-.233 1.248-.639.292-.405.37-.911.212-1.386l-.546-1.635 7.382 1.615c.137.03.276.046.414.046.421 0 .829-.142 1.162-.409.418-.335.658-.83.658-1.355l0-7.475c0-.525-.239-1.018-.657-1.354z" fill="#000" fill-rule="evenodd"/></svg>