<svg width="24" height="24" viewBox="0 0 24 24" xmlns="http://www.w3.org/2000/svg"><title>video-controls/ffw_24</title><path d="M21.3745 13.0088l-11.684 6.854c-.362.193-.789.181-1.14-.032-.345-.207-.551-.569-.551-.968l0-.368 7.862-4.612c.702-.372 1.138-1.094 1.138-1.885 0-.791-.436-1.512-1.119-1.874l-7.881-4.619 0-.368c0-.399.206-.761.551-.968.188-.113.397-.17.604-.17.179 0 .357.043.517.127l11.722 6.872c.38.2.606.574.606 1 0 .426-.226.8-.625 1.011zm-17.684 6.854c-.362.193-.789.181-1.14-.032-.345-.207-.551-.569-.551-.968l0-13.726c0-.399.206-.761.551-.968.188-.113.397-.17.604-.17.179 0 .357.043.517.127l11.722 6.872c.38.2.606.574.606 1 0 .426-.226.8-.625 1.011l-11.684 6.854zm18.19-9.739l-11.723-6.872c-.675-.355-1.47-.335-2.123.061-.588.353-.944.952-1.009 1.621l-2.868-1.682c-.675-.355-1.47-.335-2.123.061-.648.389-1.035 1.072-1.035 1.824l0 13.726c0 .752.387 1.435 1.035 1.825.342.207.723.311 1.108.311.35 0 .704-.087 1.035-.261l2.848-1.672c.064.669.421 1.268 1.009 1.622.342.207.723.311 1.108.311.35 0 .704-.087 1.035-.261l11.684-6.855c.702-.372 1.138-1.094 1.138-1.885 0-.791-.436-1.512-1.119-1.874z" fill="#000" fill-rule="evenodd"/></svg>