<svg width="28" height="28" viewBox="0 0 28 28" xmlns="http://www.w3.org/2000/svg"><title>sources-and-media/file-video_28</title><path d="M24 24.9996c0 1.104-.897 2-2 2l-16 0c-1.103 0-2-.896-2-2l0-22c0-1.103.897-2 2-2l10.172 0c.263 0 .52.107.707.294l6.828 6.827c.186.187.293.444.293.707l0 16.172zm.414-17.586c.375.375.586.885.586 1.414l0 16.172c0 1.657-1.343 3-3 3l-16 0c-1.657 0-3-1.343-3-3l0-22c0-1.656 1.343-3 3-3l10.172 0c.53 0 1.039.212 1.414.587l6.828 6.827zm-6.6913 10.1602l-6.917 3.532c-.188.093-.406.083-.582-.026-.084-.053-.224-.17-.224-.376l0-7.07c0-.206.14-.324.224-.376.097-.06.207-.09.315-.09.09 0 .179.02.261.06l6.928 3.538c.173.085.272.233.272.403 0 .17-.099.317-.277.405zm.455-1.701l-6.929-3.538c-.5-.247-1.081-.22-1.552.074-.436.27-.697.728-.697 1.225l0 7.07c0 .496.261.954.697 1.224.257.161.547.242.839.242.243 0 .489-.057.719-.17l6.918-3.532c.51-.253.827-.751.827-1.299 0-.548-.317-1.046-.822-1.296z" fill="#000" fill-rule="evenodd"/></svg>