<svg width="24" height="24" viewBox="0 0 24 24" xmlns="http://www.w3.org/2000/svg"><title>activities/files_24</title><path d="M21.5008331 21L2.49916694 21c-.82672442 0-1.499500162-.673-1.499500162-1.5l0-9.499 22.000666422 0 0 9.499c0 .827-.6727757 1.5-1.4995001 1.5M2.49916694 3l5.34021993 0c.39486838 0 .78073975.16 1.06064645.44l.82772409.828C10.1996001 4.74 10.8273909 5 11.4951683 5l10.0056648 0c.8267244 0 1.4995001.673 1.4995001 1.501l0 2.5-22.000666422 0 0-4.501c0-.827.672775742-1.5 1.499500162-1.5M21.5008331 4L11.4951683 4c-.3948684 0-.7817394-.16-1.0606465-.439l-.82772407-.828C9.13395535 2.26 8.50616461 2 7.83938687 2L2.49916694 2C1.12162612 2 0 3.122 0 4.5l0 15C0 20.878 1.12162612 22 2.49916694 22l19.00166616 0C22.8783739 22 24 20.878 24 19.5l0-12.999C24 5.122 22.8783739 4 21.5008331 4" fill="#000" fill-rule="evenodd"/></svg>