<svg width="24" height="24" viewBox="0 0 24 24" xmlns="http://www.w3.org/2000/svg"><title>sources-and-media/file-missing_24</title><path d="M20 13l0 8.5c0 .827-.673 1.5-1.5 1.5l-13 0c-.827 0-1.5-.673-1.5-1.5l0-19C4 1.673 4.673 1 5.5 1L8 1l5 0 0 4.623c0 1.307 1.143 2.369 2.548 2.369L20 7.999 20 13zM14.019 1.117l5.928 5.928-4.399 0c-.843 0-1.529-.638-1.529-1.422l0-4.506zm6.639 5.225c.221.221.342.512.342.824L21 8l0 5 0 8.5c0 1.379-1.121 2.5-2.5 2.5l-13 0C4.121 24 3 22.879 3 21.5l0-19C3 1.121 4.121 0 5.5 0L8 0l5.833 0c.308 0 .608.125.825.342l6 6zM11.4912 19c-.276 0-.5.224-.5.5 0 .275.224.5.5.5.276 0 .5-.225.5-.5 0-.276-.224-.5-.5-.5zm.0996-9.999c-.96-.021-1.871.317-2.545.974-.675.655-1.046 1.55-1.046 2.525 0 .275.224.5.5.5.277 0 .5-.225.5-.5 0-.701.264-1.343.743-1.81.479-.463 1.131-.719 1.82-.689 1.321.037 2.437 1.191 2.437 2.521 0 1.111-.584 1.599-1.202 2.116-.133.111-.263.218-.384.331l-.51.469c-.569.524-.895 1.267-.895 2.041 0 .276.224.5.5.5.276 0 .5-.224.5-.5 0-.496.208-.97.572-1.305l.51-.469c.11-.101.228-.199.348-.301.695-.581 1.561-1.304 1.561-2.882 0-1.887-1.529-3.467-3.409-3.521z" fill="#000" fill-rule="evenodd"/></svg>