<?xml version="1.0" encoding="UTF-8"?>
<svg width="72px" height="72px" viewBox="0 0 72 72" version="1.1" xmlns="http://www.w3.org/2000/svg" xmlns:xlink="http://www.w3.org/1999/xlink">
    <!-- Generator: Sketch 60.1 (88133) - https://sketch.com -->
    <title>sources-and-media/file-pdf_72</title>
    <desc>Created with Sketch.</desc>
    <g id="sources-and-media/file-pdf_72" stroke="none" stroke-width="1" fill="none" fill-rule="evenodd">
        <path d="M43.2035,2.44869 L43.2034,2.44858 C42.9118,2.15827 42.5286,2 42.117,2 L15.5,2 C12.46828,2 10,4.46828 10,7.5 L10,64.5 C10,67.5317 12.46828,70 15.5,70 L56.5,70 C59.5317,70 62,67.5317 62,64.5 L62,21.794 C62,21.3841 61.8421,21.0041 61.5514,20.7146 L43.2035,2.44869 Z M62.257,20.006 C62.736,20.483 63,21.118 63,21.794 L63,64.5 C63,68.084 60.084,71 56.5,71 L15.5,71 C11.916,71 9,68.084 9,64.5 L9,7.5 C9,3.916 11.916,1 15.5,1 L42.117,1 C42.793,1 43.43,1.263 43.909,1.74 L62.257,20.006 Z M36.6313,30.898 C36.5348,29.7752 36.2501,28.9181 35.821,28.3401 C35.3121,27.6546 34.5883,27.3621 33.8461,27.5608 C33.1462,27.7482 32.5498,28.3411 32.1483,29.1529 C31.7415,29.9754 31.5061,31.0723 31.55,32.3837 L31.5499,32.3837 L31.5501,32.3878 C31.6781,35.4499 32.3221,37.4594 33.3804,39.2441 C33.5702,39.5643 33.7741,39.8777 33.9904,40.1888 C33.5365,41.2984 33.0267,42.3935 32.5055,43.5131 C32.2583,44.044 32.0085,44.5804 31.761,45.1265 L31.7608,45.1268 C31.2085,46.3477 30.3672,48.0755 29.3861,49.9078 C26.0415,51.0563 23.2965,52.7469 20.9805,55.3499 C20.1686,56.2512 19.7056,57.1325 19.5548,57.9216 C19.4036,58.7131 19.5663,59.4425 20.0519,59.9363 C20.5386,60.4311 21.2579,60.5961 22.0231,60.4469 C22.7842,60.2985 23.6158,59.8401 24.4343,59.0507 C25.9036,57.6724 27.5803,55.1275 29.0657,52.547 C29.4139,51.942 29.7534,51.3319 30.0791,50.7301 C31.8005,50.1675 33.6996,49.7412 35.8087,49.4022 C37.2837,49.1754 39.1604,48.9611 41.1209,48.873 C41.8184,49.625 42.4846,50.2931 43.1224,50.877 C44.7818,52.3961 46.287,53.3806 47.6862,53.7593 L47.6876,53.7597 C49.7271,54.3053 51.4995,53.7594 52.2042,52.6072 C52.5672,52.0137 52.6082,51.3003 52.2597,50.6268 C51.9209,49.9721 51.2396,49.3988 50.2385,48.9644 C48.2663,48.1085 45.5772,47.8309 42.9373,47.8309 C42.472,47.8309 42.0063,47.8396 41.5441,47.8555 C40.5326,46.7436 39.4467,45.448 38.2767,43.9658 L38.2759,43.9648 C37.7606,43.3154 37.278,42.7326 36.8283,42.1893 C36.1948,41.4241 35.6263,40.7375 35.1228,40.054 C36.1813,37.3424 36.908,34.4379 36.6464,30.8972 L36.6313,30.898 Z M34.6832,41.1293 C34.2794,42.0782 33.8446,43.0101 33.4085,43.945 C33.1616,44.4743 32.9142,45.0045 32.6718,45.5394 C32.2027,46.5761 31.5307,47.9682 30.7428,49.4803 C32.2583,49.0429 33.89,48.6977 35.6517,48.4146 L35.655,48.4141 C36.9512,48.2148 38.5541,48.0244 40.2577,47.918 C39.3848,46.9288 38.4647,45.8179 37.4923,44.5861 C37.4921,44.5859 37.4919,44.5856 37.4918,44.5854 L37.884,44.2758 L37.4925,44.5864 C37.4925,44.5863 37.4924,44.5862 37.4923,44.5861 C37.0144,43.9839 36.5524,43.4257 36.1119,42.8935 C35.604,42.2799 35.1248,41.701 34.6832,41.1293 Z M34.433,39.0486 C35.2762,36.7408 35.8196,34.3161 35.6779,31.4375 L35.6619,31.438 C35.6186,30.1686 35.3406,29.3707 35.018,28.9362 C34.713,28.5252 34.3888,28.4508 34.1047,28.5268 C33.7784,28.6142 33.3703,28.9378 33.0446,29.5962 C32.7244,30.2438 32.5102,31.1703 32.5493,32.3482 C32.6716,35.267 33.2778,37.1107 34.2405,38.734 C34.3032,38.8398 34.3674,38.9445 34.433,39.0486 Z M42.461,48.834 C42.9225,49.3107 43.3676,49.7457 43.7976,50.1394 C45.4127,51.6179 46.7759,52.4767 47.9465,52.7938 C49.7547,53.2774 50.9689,52.7103 51.3511,52.0854 C51.5317,51.7902 51.5592,51.449 51.3716,51.0864 C51.1743,50.7051 50.7147,50.2611 49.8404,49.8817 C48.0618,49.1099 45.5416,48.8309 42.9373,48.8309 C42.7786,48.8309 42.6198,48.832 42.461,48.834 Z M28.6556,51.2432 C25.9184,52.3291 23.6604,53.8418 21.7266,56.0157 L21.7245,56.0181 C20.9951,56.8276 20.6441,57.5492 20.537,58.1093 C20.4304,58.6672 20.5664,59.0333 20.7649,59.2351 C20.9624,59.4359 21.3127,59.5666 21.8317,59.4654 C22.3538,59.3636 23.0198,59.0263 23.7425,58.3287 L23.7478,58.3236 L23.7478,58.3236 C25.0979,57.0581 26.7124,54.6309 28.199,52.0482 C28.353,51.7805 28.5054,51.5118 28.6556,51.2432 Z" id="Shape" fill="#171B1F"></path>
    </g>
</svg>