<svg width="16" height="16" viewBox="0 0 16 16" xmlns="http://www.w3.org/2000/svg"><title>sources-and-media/file-zip_16</title><path d="M13 5l0 1 0 8c0 .552-.448 1-1 1l-8 0c-.552 0-1-.448-1-1L3 2c0-.552.448-1 1-1l1 0 0 1.5c0 .276.224.5.5.5.276 0 .5-.224.5-.5L6 1l2 0 1 0 .086 0L13 4.914 13 5zm.707-.793c.188.188.293.441.293.707L14 5l0 1 0 8c0 1.105-.895 2-2 2l-8 0c-1.105 0-2-.895-2-2L2 2c0-1.105.895-2 2-2l4 0 1 0 .086 0c.266 0 .519.105.707.293l3.914 3.914zM5.5 4c-.276 0-.5.224-.5.5l0 1c0 .276.224.5.5.5.276 0 .5-.224.5-.5l0-1c0-.276-.224-.5-.5-.5zm0 3c-.276 0-.5.224-.5.5l0 1c0 .276.224.5.5.5.276 0 .5-.224.5-.5l0-1c0-.276-.224-.5-.5-.5zm0 3c-.276 0-.5.224-.5.5l0 1c0 .276.224.5.5.5.276 0 .5-.224.5-.5l0-1c0-.276-.224-.5-.5-.5z" fill="#000" fill-rule="evenodd"/></svg>