<svg width="72" height="72" viewBox="0 0 72 72" xmlns="http://www.w3.org/2000/svg"><title>sources-and-media/file-locked_72</title><path d="M62.257 20.006c.479.477.743 1.112.743 1.788L63 64.5c0 3.584-2.916 6.5-6.5 6.5l-41 0C11.916 71 9 68.084 9 64.5l0-57C9 3.916 11.916 1 15.5 1l26.617 0c.676 0 1.313.263 1.792.74l18.348 18.266zM62 22l0-.206c0-.408-.159-.791-.448-1.079L43.204 2.449c-.291-.29-.677-.449-1.087-.449L42 2l0 14.5c0 3.033 2.467 5.5 5.5 5.5L62 22zm0 42.5L62 23l-14.5 0c-3.584 0-6.5-2.916-6.5-6.5L41 2 15.5 2C12.467 2 10 4.467 10 7.5l0 57c0 3.033 2.467 5.5 5.5 5.5l41 0c3.033 0 5.5-2.467 5.5-5.5zM36 33c.276 0 .5.224.5.5l0 16c0 .276-.224.5-.5.5-.276 0-.5-.224-.5-.5l0-16c0-.276.224-.5.5-.5zm0 23c.276 0 .5.224.5.5 0 .276-.224.5-.5.5-.276 0-.5-.224-.5-.5 0-.276.224-.5.5-.5z" fill-rule="evenodd"/></svg>