<?xml version="1.0" encoding="UTF-8"?>
<svg width="24px" height="24px" viewBox="0 0 24 24" version="1.1" xmlns="http://www.w3.org/2000/svg" xmlns:xlink="http://www.w3.org/1999/xlink">
    <!-- Generator: Sketch 60.1 (88133) - https://sketch.com -->
    <title>sources-and-media/file-onenote_24</title>
    <desc>Created with Sketch.</desc>
    <g id="sources-and-media/file-onenote_24" stroke="none" stroke-width="1" fill="none" fill-rule="evenodd">
        <path d="M13.9493,1.0475 L13.9509,1.04911 L19.9509,7.04911 C19.9847,7.08293 20,7.12113 20,7.166 L20,21.5 C20,22.3265 19.326,23 18.5,23 L5.5,23 C4.67402,23 4,22.3265 4,21.5 L4,2.5 C4,1.67355 4.67402,1 5.5,1 L13.833,1 C13.8807,1 13.9182,1.01625 13.9493,1.0475 Z M13.833,0 C14.145,0 14.438,0.121 14.658,0.342 L20.658,6.342 C20.878,6.562 21,6.854 21,7.166 L21,21.5 C21,22.879 19.878,24 18.5,24 L5.5,24 C4.122,24 3,22.879 3,21.5 L3,2.5 C3,1.121 4.122,0 5.5,0 L13.833,0 Z M15.3373,18.916 L15.3373,8.98 L16.4733,8.98 L16.4733,20.5 L14.9213,20.5 L8.69725,10.484 L8.69725,20.5 L7.54525,20.5 L7.54525,8.98 L9.16125,8.98 L15.3373,18.916 Z" id="Shape" fill="#171B1F"></path>
    </g>
</svg>