<svg width="20" height="20" viewBox="0 0 20 20" fill="none" xmlns="http://www.w3.org/2000/svg">
<path fill-rule="evenodd" clip-rule="evenodd" d="M4.5 0C3.11929 0 2 1.11929 2 2.5V17.5C2 18.8807 3.11929 20 4.5 20H15.5C16.8807 20 18 18.8807 18 17.5V6.41421C18 6.01639 17.842 5.63486 17.5607 5.35355L12.6464 0.43934C12.3651 0.158036 11.9836 0 11.5858 0H4.5ZM12.8711 6.42H14.1171L10.6312 11.264L14.2291 16.5H12.9131L10.0152 12.16L7.01915 16.5H5.77315L9.38515 11.278L6.02515 6.42H7.32715L10.0571 10.424L12.8711 6.42Z" fill="#121212"/>
</svg>
