<svg width="28" height="28" viewBox="0 0 28 28" xmlns="http://www.w3.org/2000/svg"><title>sources-and-media/file-pdf_28</title><path d="M24.414 7.414c.375.375.586.884.586 1.414L25 25c0 1.657-1.343 3-3 3L6 28c-1.657 0-3-1.343-3-3L3 3c0-1.657 1.343-3 3-3l10.172 0c.53 0 1.039.211 1.414.586l6.828 6.828zM24 25l0-16.172c0-.263-.107-.52-.293-.707l-6.828-6.828c-.187-.186-.444-.293-.707-.293L6 1c-1.103 0-2 .897-2 2l0 22c0 1.103.897 2 2 2l16 0c1.103 0 2-.897 2-2zm-5.8647-8.1764c1.23 0 1.874.902 1.874 1.794 0 .989-.841 1.794-1.876 1.794-.969 0-1.671-.311-2.347-1.039-.262-.282-.5-.552-.716-.817-.641.197-1.317.419-1.979.641l-1.342 2.759c-.315.636-.995 1.044-1.733 1.044-1.149 0-2.007-.812-2.007-1.81 0-.781.526-1.471 1.309-1.717.29-.109 1.555-.578 3.058-1.092l1.113-2.386-1.211-2.493c-.104-.238-.152-.469-.152-.708 0-.989.842-1.794 1.877-1.794 1.035 0 1.877.805 1.877 1.794 0 .239-.049.472-.144.691-.002.003-.003.006-.004.009l-1.142 2.499c.231.481.506.938.848 1.407 1.155-.336 2.166-.576 2.697-.576zm-.002 2.588c.483 0 .876-.356.876-.794 0-.384-.229-.794-.874-.794-.378 0-1.117.167-2.019.421.127.146.261.295.402.448.401.431.829.719 1.615.719zm-4.434-1.473c.244-.079.488-.157.73-.233-.13-.19-.251-.379-.362-.569l-.368.802zm-.513-4.854l.842 1.731.792-1.734c.04-.091.06-.189.06-.288 0-.438-.394-.794-.877-.794-.484 0-.877.356-.877.794 0 .101.021.199.06.291zm-2.334 8.43l.904-1.859c-.849.298-1.6.57-2.113.762-.389.123-.634.43-.634.772 0 .447.41.81.913.81.455 0 .783-.19.93-.485z" fill="#000" fill-rule="evenodd"/></svg>