<svg width="44" height="44" viewBox="0 0 44 44" xmlns="http://www.w3.org/2000/svg"><title>sources-and-media/file-spreadsheet_44</title><path d="M38.481 11.898c.33.33.519.786.519 1.25L39 40c0 2.206-1.794 4-4 4L9 44c-2.206 0-4-1.794-4-4L5 4c0-2.206 1.794-4 4-4l16.809 0c.472 0 .916.184 1.249.517l11.423 11.381zM38 40l0-26.852c0-.201-.082-.399-.225-.543L26.352 1.225c-.143-.143-.341-.225-.543-.225L9 1C7.346 1 6 2.346 6 4l0 36c0 1.654 1.346 3 3 3l26 0c1.654 0 3-1.346 3-3zM16.5 20l-3 0c-.275 0-.5-.225-.5-.5 0-.275.225-.5.5-.5l3 0c.275 0 .5.225.5.5 0 .275-.225.5-.5.5zm14 0l-3 0c-.275 0-.5-.225-.5-.5 0-.275.225-.5.5-.5l3 0c.275 0 .5.225.5.5 0 .275-.225.5-.5.5zm-7 0l-3 0c-.275 0-.5-.225-.5-.5 0-.275.225-.5.5-.5l3 0c.275 0 .5.225.5.5 0 .275-.225.5-.5.5zm-7 8l-3 0c-.275 0-.5-.225-.5-.5 0-.275.225-.5.5-.5l3 0c.275 0 .5.225.5.5 0 .275-.225.5-.5.5zm14 0l-3 0c-.275 0-.5-.225-.5-.5 0-.275.225-.5.5-.5l3 0c.275 0 .5.225.5.5 0 .275-.225.5-.5.5zm-7 0l-3 0c-.275 0-.5-.225-.5-.5 0-.275.225-.5.5-.5l3 0c.275 0 .5.225.5.5 0 .275-.225.5-.5.5zm-7 8l-3 0c-.275 0-.5-.225-.5-.5 0-.275.225-.5.5-.5l3 0c.275 0 .5.225.5.5 0 .275-.225.5-.5.5zm14 0l-3 0c-.275 0-.5-.225-.5-.5 0-.275.225-.5.5-.5l3 0c.275 0 .5.225.5.5 0 .275-.225.5-.5.5zm-7 0l-3 0c-.275 0-.5-.225-.5-.5 0-.275.225-.5.5-.5l3 0c.275 0 .5.225.5.5 0 .275-.225.5-.5.5z" fill="#000" fill-rule="evenodd"/></svg>