<?xml version="1.0" encoding="UTF-8"?>
<svg width="28px" height="28px" viewBox="0 0 28 28" version="1.1" xmlns="http://www.w3.org/2000/svg" xmlns:xlink="http://www.w3.org/1999/xlink">
    <!-- Generator: Sketch 60.1 (88133) - https://sketch.com -->
    <title>sources-and-media/file-spreadsheet-active_28</title>
    <desc>Created with Sketch.</desc>
    <g id="sources-and-media/file-spreadsheet-active_28" stroke="none" stroke-width="1" fill="none" fill-rule="evenodd">
        <path d="M17.586,0.585756 L24.414,7.41376 C24.789,7.78876 25,8.29776 25,8.82776 L25,24.9998 C25,26.6568 23.657,27.9998 22,27.9998 L6,27.9998 C4.343,27.9998 3,26.6568 3,24.9998 L3,2.99975586 C3,1.34276 4.343,-0.000244141 6,-0.000244141 L16.172,-0.000244141 C16.702,-0.000244141 17.211,0.210756 17.586,0.585756 Z M6,13.4998 C6,13.2236 6.22386,12.9998 6.5,12.9998 L8.5,12.9998 C8.77614,12.9998 9,13.2236 9,13.4998 C9,13.7759 8.77614,13.9998 8.5,13.9998 L6.5,13.9998 C6.22386,13.9998 6,13.7759 6,13.4998 Z M6,17.4998 C6,17.2236 6.22386,16.9998 6.5,16.9998 L8.5,16.9998 C8.77614,16.9998 9,17.2236 9,17.4998 C9,17.7759 8.77614,17.9998 8.5,17.9998 L6.5,17.9998 C6.22386,17.9998 6,17.7759 6,17.4998 Z M6.5,20.9998 C6.22386,20.9998 6,21.2236 6,21.4998 C6,21.7759 6.22386,21.9998 6.5,21.9998 L8.5,21.9998 C8.77614,21.9998 9,21.7759 9,21.4998 C9,21.2236 8.77614,20.9998 8.5,20.9998 L6.5,20.9998 Z M11,13.4998 C11,13.2236 11.22386,12.9998 11.5,12.9998 L21.5,12.9998 C21.7761,12.9998 22,13.2236 22,13.4998 C22,13.7759 21.7761,13.9998 21.5,13.9998 L11.5,13.9998 C11.22386,13.9998 11,13.7759 11,13.4998 Z M11.5,16.9998 C11.22386,16.9998 11,17.2236 11,17.4998 C11,17.7759 11.22386,17.9998 11.5,17.9998 L21.5,17.9998 C21.7761,17.9998 22,17.7759 22,17.4998 C22,17.2236 21.7761,16.9998 21.5,16.9998 L11.5,16.9998 Z M11,21.4998 C11,21.2236 11.22386,20.9998 11.5,20.9998 L21.5,20.9998 C21.7761,20.9998 22,21.2236 22,21.4998 C22,21.7759 21.7761,21.9998 21.5,21.9998 L11.5,21.9998 C11.22386,21.9998 11,21.7759 11,21.4998 Z" id="Shape" fill="#171B1F"></path>
    </g>
</svg>