<?xml version="1.0" encoding="UTF-8"?>
<svg width="40px" height="40px" viewBox="0 0 40 40" version="1.1" xmlns="http://www.w3.org/2000/svg" xmlns:xlink="http://www.w3.org/1999/xlink">
    <!-- Generator: Sketch 60.1 (88133) - https://sketch.com -->
    <title>sources-and-media/file-pdf_40</title>
    <desc>Created with Sketch.</desc>
    <g id="sources-and-media/file-pdf_40" stroke="none" stroke-width="1" fill="none" fill-rule="evenodd">
        <path d="M20.5774,16.7056 C20.5183,16.0146 20.3417,15.4645 20.0568,15.0808 C19.7132,14.618 19.2024,14.4 18.6686,14.543 C18.1772,14.6745 17.7848,15.0813 17.531,15.5944 C17.2719,16.1182 17.1278,16.8039 17.1548,17.6095 L17.1548,17.6095 L17.1549,17.6137 C17.2321,19.4606 17.6221,20.6874 18.2699,21.7797 C18.3663,21.9423 18.4689,22.1023 18.5769,22.261 C18.3206,22.8787 18.035,23.4927 17.7416,24.1233 C17.5948,24.4388 17.4461,24.7585 17.2981,25.0849 L17.2979,25.0853 C16.9787,25.7908 16.4956,26.7842 15.9313,27.8418 C13.95416,28.5319 12.31649,29.5462 10.93086,31.1034 C10.43216,31.6572 10.13455,32.2128 10.03616,32.7277 C9.93728,33.2452 10.03932,33.7521 10.38603,34.1046 C10.73371,34.4581 11.23578,34.563 11.74009,34.4646 C12.24036,34.3671 12.7676,34.0705 13.27295,33.5834 C14.16935,32.742 15.1773,31.2075 16.0588,29.6761 C16.2527,29.3392 16.442,28.9997 16.6243,28.6641 C17.6132,28.3465 18.7046,28.1032 19.9179,27.9082 C20.7646,27.778 21.835,27.6549 22.956,27.6006 C23.3502,28.0226 23.7283,28.4002 24.0918,28.733 C25.086,29.6431 26.0085,30.2532 26.8856,30.4906 L26.887,30.491 C28.1449,30.8275 29.3106,30.5077 29.7945,29.7164 C30.0471,29.3035 30.0742,28.8043 29.8346,28.3412 C29.6047,27.897 29.1551,27.5303 28.535,27.2612 C27.3247,26.7359 25.6937,26.5714 24.119,26.5714 C23.872,26.5714 23.6248,26.5755 23.3791,26.583 C22.8008,25.9433 22.18,25.2009 21.5112,24.3538 L21.5104,24.3528 C21.1966,23.9573 20.9059,23.6062 20.6372,23.2816 C20.2929,22.8658 19.9845,22.4933 19.7091,22.1262 C20.3221,20.5278 20.741,18.7988 20.5864,16.7052 L20.5774,16.7056 Z M19.2695,23.1894 C19.0674,23.6495 18.8559,24.1027 18.6446,24.5552 C18.4981,24.8691 18.3518,25.1826 18.2089,25.4978 C17.9722,26.0208 17.6494,26.6947 17.2716,27.435 C18.0518,27.23 18.8801,27.0621 19.761,26.9206 L19.7643,26.92 L19.7643,26.92 C20.4341,26.817 21.2412,26.7179 22.1064,26.6519 C21.666,26.1415 21.2067,25.5819 20.7267,24.9739 C20.4504,24.6257 20.1802,24.2993 19.9208,23.9858 C19.6946,23.7125 19.4765,23.4491 19.2695,23.1894 Z M19.022,21.081 C19.4328,19.8512 19.6806,18.5576 19.6057,17.0479 L19.5963,17.0482 C19.5712,16.3157 19.4111,15.8886 19.2539,15.6768 C19.1142,15.4886 19.0028,15.4887 18.9272,15.5089 C18.8093,15.5405 18.6053,15.6779 18.4273,16.0377 C18.2548,16.3866 18.1319,16.9021 18.1542,17.574 C18.2208,19.1639 18.5321,20.1939 19.022,21.081 Z M24.3224,27.5724 C24.4738,27.7216 24.6219,27.8625 24.767,27.9953 C25.7169,28.8649 26.4973,29.3492 27.1459,29.5251 C28.1725,29.7995 28.78,29.4586 28.9415,29.1946 C29.0116,29.08 29.0252,28.953 28.9465,28.8008 C28.8581,28.63 28.6302,28.3926 28.1369,28.1785 C27.1651,27.7568 25.7863,27.5866 24.3224,27.5724 Z M15.1666,29.2214 C13.80973,29.8352 12.66935,30.6537 11.67696,31.7693 L11.67481,31.7717 C11.25861,32.2335 11.07303,32.6294 11.01838,32.9154 C10.96415,33.1992 11.03945,33.3428 11.09897,33.4033 C11.15751,33.4629 11.29055,33.5335 11.54869,33.4831 C11.81,33.4322 12.17159,33.2567 12.581,32.8614 L12.5863,32.8563 L12.58634,32.8564 C13.35616,32.1348 14.29116,30.738 15.1666,29.2214 Z M34.525,10.472 L24.525,0.471 C24.22,0.167 23.816,0 23.386,0 L8.833,0 C6.719,0 5,1.72 5,3.833 L5,36.167 C5,38.28 6.719,40 8.833,40 L31.164,40 C33.278,40 34.998,38.28 34.998,36.167 L34.998,11.611 C34.998,11.181 34.83,10.776 34.525,10.472 Z M23.8191,1.17927 C23.8189,1.17909 23.8187,1.17892 23.8185,1.17874 C23.7008,1.06171 23.5508,1 23.386,1 L8.833,1 C7.27145,1 6,2.27211 6,3.833 L6,36.167 C6,37.7279 7.27145,39 8.833,39 L31.164,39 C32.7259,39 33.998,37.7275 33.998,36.167 L33.998,11.611 C33.998,11.4468 33.9358,11.2966 33.8191,11.1803 L33.8179,11.1791 L23.8191,1.17927 Z" id="Shape" fill="#171B1F"></path>
    </g>
</svg>