<svg width="28" height="28" viewBox="0 0 28 28" xmlns="http://www.w3.org/2000/svg"><title>sources-and-media/file-video_28</title><path d="M24.414 7.4136c.375.375.586.885.586 1.414l0 16.172c0 1.657-1.343 3-3 3l-16 0c-1.657 0-3-1.343-3-3l0-22c0-1.656 1.343-3 3-3l10.172 0c.53 0 1.039.212 1.414.587l6.828 6.827zM24 24.9996l0-16.172c0-.263-.107-.52-.293-.707l-6.828-6.827c-.187-.187-.444-.294-.707-.294L6 .9996c-1.103 0-2 .897-2 2l0 22c0 1.104.897 2 2 2l16 0c1.103 0 2-.896 2-2zm-5.8223-9.1268c.505.25.822.748.822 1.296 0 .548-.317 1.046-.827 1.299l-6.918 3.532c-.23.113-.476.17-.719.17-.292 0-.582-.081-.839-.242-.436-.27-.697-.728-.697-1.224l0-7.07c0-.497.261-.955.697-1.225.471-.294 1.052-.321 1.552-.074l6.929 3.538zm-.455 1.701c.178-.088.277-.235.277-.405 0-.17-.099-.318-.272-.403l-6.928-3.538c-.082-.04-.171-.06-.261-.06-.108 0-.218.03-.315.09-.084.052-.224.17-.224.376l0 7.07c0 .206.14.323.224.376.176.109.394.119.582.026l6.917-3.532z" fill="#000" fill-rule="evenodd"/></svg>