<?xml version="1.0" encoding="UTF-8"?>
<svg width="12px" height="12px" viewBox="0 0 12 12" version="1.1" xmlns="http://www.w3.org/2000/svg" xmlns:xlink="http://www.w3.org/1999/xlink">
    <!-- Generator: Sketch 60.1 (88133) - https://sketch.com -->
    <title>sources-and-media/file-onenote-active_12</title>
    <desc>Created with Sketch.</desc>
    <g id="sources-and-media/file-onenote-active_12" stroke="none" stroke-width="1" fill="none" fill-rule="evenodd">
        <path d="M7.582,0.24 L10.759,3.417 C10.915,3.574 11,3.78 11,4 L11,10.5 C11,11.327 10.327,12 9.5,12 L2.5,12 C1.673,12 1,11.327 1,10.5 L1,1.5 C1,0.673 1.673,0 2.5,0 L6,0 L7,0 C7.219,0 7.426,0.085 7.582,0.24 Z M7.43309,8.688 L4.91309,4.24 L3.67309,4.24 L3.67309,10 L4.57709,10 L4.57709,5.472 L7.15309,10 L8.32909,10 L8.32909,4.24 L7.43309,4.24 L7.43309,8.688 Z" id="Shape" fill="#171B1F"></path>
    </g>
</svg>