<svg width="36" height="36" viewBox="0 0 36 36" xmlns="http://www.w3.org/2000/svg"><title>sources-and-media/file-missing_36</title><path d="M30.572 10.082c.273.272.428.648.428 1.033L31 31.5c0 1.93-1.57 3.5-3.5 3.5l-19 0C6.57 35 5 33.43 5 31.5l0-27C5 2.57 6.57 1 8.5 1l12.385 0c.389 0 .756.152 1.033.428l8.654 8.654zM30 31.5L30 12l-6.5 0c-1.93 0-3.5-1.57-3.5-3.5L20 2 8.5 2C7.122 2 6 3.122 6 4.5l0 27C6 32.879 7.122 34 8.5 34l19 0c1.379 0 2.5-1.121 2.5-2.5zM21 2.023L21 8.5c0 1.378 1.121 2.5 2.5 2.5l6.477 0c-.021-.079-.054-.153-.113-.211l-8.653-8.654c-.059-.058-.133-.092-.211-.112zm-2.8447 11.979c2.64.076 4.871 2.38 4.871 5.032 0 2.249-1.248 3.293-2.252 4.132-.183.153-.364.304-.531.457l-.802.744c-.599.55-.941 1.33-.941 2.141 0 .276-.224.5-.5.5-.277 0-.5-.224-.5-.5 0-1.09.46-2.138 1.262-2.876l.803-.743c.179-.165.371-.326.568-.491.973-.813 1.893-1.583 1.893-3.364 0-2.125-1.786-3.971-3.899-4.032-1.078-.026-2.077.364-2.845 1.11-.81.788-1.256 1.864-1.256 3.028 0 .276-.224.5-.5.5-.277 0-.5-.224-.5-.5 0-1.437.553-2.767 1.559-3.744.963-.937 2.233-1.433 3.57-1.394zM18 29c.276 0 .5.224.5.5 0 .276-.224.5-.5.5-.276 0-.5-.224-.5-.5 0-.276.224-.5.5-.5z" fill="#000" fill-rule="evenodd"/></svg>