<?xml version="1.0" encoding="UTF-8"?>
<svg width="40px" height="40px" viewBox="0 0 40 40" version="1.1" xmlns="http://www.w3.org/2000/svg" xmlns:xlink="http://www.w3.org/1999/xlink">
    <!-- Generator: Sketch 60.1 (88133) - https://sketch.com -->
    <title>sources-and-media/file-graph_40</title>
    <desc>Created with Sketch.</desc>
    <g id="sources-and-media/file-graph_40" stroke="none" stroke-width="1" fill="none" fill-rule="evenodd">
        <path d="M19.5000014,16 C19.3674,16 19.2402,16.0527 19.1465,16.1464 C19.0527,16.2402 19.0000014,16.3674 19.0000014,16.5 L19.0000014,17.0139 C17.3956,17.1032 15.841,17.6207 14.49987,18.5168 C13.01983,19.5057 11.86628,20.9113 11.18509,22.5558 C10.5039,24.2004 10.32567,26.01 10.67294,27.7558 C11.0202,29.5016 11.87737,31.1053 13.13604,32.364 C14.39472,33.6226 15.9984,34.4798 17.7442,34.8271 C19.49,35.1743 21.2996,34.9961 22.9442,34.3149 C24.5887,33.6337 25.9943,32.4802 26.9832,31.0001 C27.8793,29.659 28.3969,28.1044 28.4861,26.5 L29.0000014,26.5 C29.1326,26.5 29.2598,26.4473 29.3536,26.3536 C29.4473,26.2598 29.5000014,26.1326 29.5000014,26 C29.5000014,24.6868 29.2413,23.3864 28.7388,22.1732 C28.2363,20.9599 27.4997,19.8575 26.5711,18.9289 C25.6425,18.0003 24.5401,17.2638 23.3268,16.7612 C22.1136,16.2587 20.8132,16 19.5000014,16 Z M27.4844,26.5 L19.5000007,26.5 C19.3652,26.5 19.2429,26.4467 19.1529,26.3599 C19.1508,26.3578 19.1486,26.3557 19.1465,26.3536 C19.1443,26.3514 19.1422,26.3492 19.1401,26.3471 C19.0533,26.2571 19.0000007,26.1348 19.0000007,26 L19.0000007,18.0156 C17.5936,18.1037 16.2321,18.562 15.0554,19.3482 C13.73985,20.2273 12.71447,21.4767 12.10897,22.9385 C11.50347,24.4003 11.34504,26.0089 11.65372,27.5607 C11.9624,29.1126 12.72433,30.538 13.84315,31.6569 C14.96197,32.7757 16.3874,33.5376 17.9393,33.8463 C19.4911,34.155 21.0997,33.9965 22.5615,33.391 C24.0233,32.7855 25.2727,31.7602 26.1518,30.4446 C26.938,29.2679 27.3963,27.9064 27.4844,26.5 Z M28.0014,25.5 L28.4861,25.5 C28.4299,24.489 28.2033,23.4935 27.8149,22.5559 C27.3626,21.4639 26.6997,20.4718 25.864,19.636 C25.0282,18.8003 24.0361,18.1374 22.9442,17.6851 C22.0065,17.2967 21.011,17.0702 20,17.0139 L20,17.5 L20,25.5 L28,25.5 C28.0005,25.5 28.0009,25.5 28.0014,25.5 Z M34.525,10.472 L24.525,0.471 C24.22,0.167 23.816,0 23.386,0 L8.833,0 C6.719,0 5,1.72 5,3.833 L5,36.167 C5,38.28 6.719,40 8.833,40 L31.164,40 C33.278,40 34.998,38.28 34.998,36.167 L34.998,11.611 C34.998,11.181 34.83,10.776 34.525,10.472 Z M23.8191,1.17927 C23.8189,1.17909 23.8187,1.17892 23.8185,1.17874 C23.7008,1.06171 23.5508,1 23.386,1 L8.833,1 C7.27145,1 6,2.27211 6,3.833 L6,36.167 C6,37.7279 7.27145,39 8.833,39 L31.164,39 C32.7259,39 33.998,37.7275 33.998,36.167 L33.998,11.611 C33.998,11.4468 33.9358,11.2966 33.8191,11.1803 L33.8179,11.1791 L23.8191,1.17927 Z" id="Shape" fill="#171B1F"></path>
    </g>
</svg>