<svg width="40" height="40" viewBox="0 0 40 40" xmlns="http://www.w3.org/2000/svg"><title>sources-and-media/file-text_40</title><path d="M34.526 10.472c.305.304.472.709.472 1.14l0 24.555c0 2.114-1.72 3.833-3.833 3.833L8.833 40C6.72 40 5 38.281 5 36.167L5 3.834C5 1.72 6.72 0 8.833 0l14.554 0c.429 0 .834.168 1.138.472l10.001 10zM34 36.167l0-24.555c0-.164-.063-.317-.179-.433l-10.002-10C23.704 1.064 23.55 1 23.387 1L8.833 1C7.271 1 5.998 2.271 5.998 3.834l0 32.333C5.998 37.729 7.271 39 8.833 39l22.333 0C32.729 39 34 37.729 34 36.167zM12.5 19l15 0c.2761424 0 .5.2238576.5.5 0 .2761424-.2238576.5-.5.5l-15 0c-.27614237 0-.5-.2238576-.5-.5 0-.2761424.22385763-.5.5-.5zm0 6l15 0c.2761424 0 .5.2238576.5.5 0 .2761424-.2238576.5-.5.5l-15 0c-.27614237 0-.5-.2238576-.5-.5 0-.2761424.22385763-.5.5-.5zm0 6l8 0c.2761424 0 .5.2238576.5.5 0 .2761424-.2238576.5-.5.5l-8 0c-.27614237 0-.5-.2238576-.5-.5 0-.2761424.22385763-.5.5-.5z" fill="#000" fill-rule="evenodd"/></svg>