<svg width="28" height="28" viewBox="0 0 28 28" xmlns="http://www.w3.org/2000/svg"><title>sources-and-media/file-text_28</title><path d="M24 25c0 1.103-.897 2-2 2L6 27c-1.103 0-2-.897-2-2L4 3c0-1.103.897-2 2-2l10.172 0c.263 0 .52.106.707.293l6.828 6.828c.186.187.293.444.293.707L24 25zm.414-17.586c.375.375.586.884.586 1.414L25 25c0 1.657-1.343 3-3 3L6 28c-1.657 0-3-1.343-3-3L3 3c0-1.657 1.343-3 3-3l10.172 0c.53 0 1.039.211 1.414.586l6.828 6.828zM19.5 12.0107l-11 0c-.276 0-.5.224-.5.5 0 .276.224.5.5.5l11 0c.276 0 .5-.224.5-.5 0-.276-.224-.5-.5-.5zm0 5l-11 0c-.276 0-.5.224-.5.5 0 .276.224.5.5.5l11 0c.276 0 .5-.224.5-.5 0-.276-.224-.5-.5-.5zm-6 5l-5 0c-.276 0-.5.224-.5.5 0 .276.224.5.5.5l5 0c.276 0 .5-.224.5-.5 0-.276-.224-.5-.5-.5z" fill="#000" fill-rule="evenodd"/></svg>