<svg width="40" height="40" viewBox="0 0 40 40" xmlns="http://www.w3.org/2000/svg"><title>sources-and-media/file-audio_40</title><path d="M31.166 39L8.833 39c-1.562 0-2.835-1.271-2.835-2.833l0-15.112c1.816.274 2.85 2.165 3.927 4.181C11.178 27.578 12.473 30 15.179 30c2.776 0 4.038-2.424 5.259-4.769C21.571 23.055 22.642 21 24.811 21c2.108 0 3.209 2.058 4.375 4.236 1.18 2.206 2.414 4.456 4.813 4.713l0 6.218c0 1.562-1.271 2.833-2.833 2.833M8.833 1l14.554 0c.163 0 .317.063.432.179l10.001 10c.116.115.179.269.179.432l0 17.334c-1.818-.273-2.853-2.164-3.932-4.181C28.814 22.422 27.518 20 24.811 20c-2.776 0-4.039 2.424-5.26 4.769C18.418 26.945 17.348 29 15.179 29c-2.107 0-3.207-2.058-4.372-4.236-1.179-2.205-2.412-4.455-4.809-4.713l0-16.218C5.998 2.271 7.271 1 8.833 1m25.693 9.472L24.525.471C24.221.167 23.816 0 23.387 0L8.833 0C6.72 0 5 1.72 5 3.833l0 32.334C5 38.28 6.72 40 8.833 40l22.332 0c2.113 0 3.833-1.72 3.833-3.833l0-24.556c0-.43-.167-.835-.472-1.139" fill="#000" fill-rule="evenodd"/></svg>