<svg width="40" height="40" viewBox="0 0 40 40" xmlns="http://www.w3.org/2000/svg"><title>sources-and-media/file-image_40</title><path d="M34.528 10.472c.305.304.472.709.472 1.14l0 24.555C35 38.28 33.28 40 31.167 40L8.833 40C6.719 40 5 38.28 5 36.167L5 3.834C5 1.72 6.719 0 8.833 0l14.553 0c.429 0 .834.168 1.138.472l10.004 10zM31.168 39c1.562 0 2.834-1.271 2.834-2.833l0-1.181-14.18-14.761c-1.638-1.637-4.314-1.637-5.959.007l-7.865 7.864 0 8.071C5.998 37.729 7.271 39 8.833 39l22.335 0zM8.833 1C7.271 1 5.998 2.271 5.998 3.834l0 22.848 7.158-7.157c2.034-2.035 5.345-2.034 7.38 0l13.466 14.018 0-21.931c0-.164-.063-.317-.179-.433l-10.005-10c-.115-.115-.269-.179-.432-.179L8.833 1zm18.1666 19.0005c-1.654 0-3-1.346-3-3 0-1.654 1.346-3 3-3 1.654 0 3 1.346 3 3 0 1.654-1.346 3-3 3zm0-5c-1.103 0-2 .897-2 2 0 1.103.897 2 2 2 1.103 0 2-.897 2-2 0-1.103-.897-2-2-2z" fill="#000" fill-rule="evenodd"/></svg>