<?xml version="1.0" encoding="UTF-8"?>
<svg width="28px" height="28px" viewBox="0 0 28 28" version="1.1" xmlns="http://www.w3.org/2000/svg" xmlns:xlink="http://www.w3.org/1999/xlink">
    <!-- Generator: Sketch 60.1 (88133) - https://sketch.com -->
    <title>sources-and-media/file-graph_28</title>
    <desc>Created with Sketch.</desc>
    <g id="sources-and-media/file-graph_28" stroke="none" stroke-width="1" fill="none" fill-rule="evenodd">
        <path d="M23.7069,8.12086 L16.8789,1.29286 C16.6912,1.10519 16.4365,0.999756 16.172,0.999756 L6,0.999756 C4.89528,0.999756 4,1.89504 4,2.999756 L4,24.9998 C4,26.1045 4.89528,26.9998 6,26.9998 L22,26.9998 C23.1047,26.9998 24,26.1045 24,24.9998 L24,8.82776 C24,8.56327 23.8946,8.30854 23.7069,8.12086 Z M17.586,0.585756 L24.414,7.41376 C24.789,7.78876 25,8.29776 25,8.82776 L25,24.9998 C25,26.6568 23.657,27.9998 22,27.9998 L6,27.9998 C4.343,27.9998 3,26.6568 3,24.9998 L3,2.99975586 C3,1.34276 4.343,-0.000244141 6,-0.000244141 L16.172,-0.000244141 C16.702,-0.000244141 17.211,0.210756 17.586,0.585756 Z M13.5000001,10.9998 C13.3674,10.9998 13.2402,11.0524 13.1464,11.1462 C13.0527,11.24 13.0000001,11.3671 13.0000001,11.4998 L13.0000001,12.0206 C11.98961,12.1051 11.01414,12.4446 10.16658,13.0109 C9.17989,13.6702 8.41085,14.6073 7.95673,15.7037 C7.5026,16.8 7.38378,18.0064 7.61529,19.1703 C7.8468,20.3342 8.41825,21.4033 9.25736,22.2424 C10.09648,23.0815 11.16557,23.653 12.32946,23.8845 C13.4933,24.116 14.6997,23.9972 15.7961,23.543 C16.8925,23.0889 17.8295,22.3199 18.4888,21.3332 C19.0551,20.4856 19.3946,19.5101 19.4791,18.4998 L20.0000001,18.4998 C20.1326,18.4998 20.2598,18.4471 20.3536,18.3533 C20.4473,18.2595 20.5000001,18.1324 20.5000001,17.9998 C20.5000001,17.0805 20.3189,16.1703 19.9672,15.321 C19.6154,14.4717 19.0998,13.7 18.4498,13.05 C17.7997,12.4 17.0281,11.8844 16.1788,11.5326 C15.3295,11.1808 14.4193,10.9998 13.5000001,10.9998 Z M18.4749,18.4998 L13.5000023,18.4998 C13.2239,18.4998 13.0000023,18.2759 13.0000023,17.9998 L13.0000023,13.0248 C12.18776,13.1064 11.40512,13.3861 10.72215,13.8424 C9.89991,14.3918 9.25904,15.1727 8.88061,16.0863 C8.50217,17 8.40315,18.0053 8.59608,18.9752 C8.789,19.9451 9.26521,20.836 9.96447,21.5353 C10.66373,22.2346 11.55465,22.7108 12.52455,22.9037 C13.4945,23.0966 14.4998,22.9976 15.4134,22.6192 C16.3271,22.2407 17.1079,21.5999 17.6574,20.7776 C18.1137,20.0946 18.3933,19.312 18.4749,18.4998 Z M19.0009,17.4998 L19.4791,17.4998 C19.4276,16.8831 19.2808,16.2772 19.0433,15.7037 C18.7418,14.9757 18.2998,14.3143 17.7426,13.7571 C17.1855,13.2 16.5241,12.758 15.7961,12.4565 C15.2226,12.2189 14.6166,12.0722 14,12.0206 L14,12.4998 L14,17.4998 L19,17.4998 C19.0003,17.4998 19.0006,17.4998 19.0009,17.4998 Z" id="Shape" fill="#171B1F"></path>
    </g>
</svg>