<?xml version="1.0" encoding="UTF-8"?>
<svg width="28px" height="28px" viewBox="0 0 28 28" version="1.1" xmlns="http://www.w3.org/2000/svg" xmlns:xlink="http://www.w3.org/1999/xlink">
    <!-- Generator: Sketch 60.1 (88133) - https://sketch.com -->
    <title>sources-and-media/file-onenote-active_28</title>
    <desc>Created with Sketch.</desc>
    <g id="sources-and-media/file-onenote-active_28" stroke="none" stroke-width="1" fill="none" fill-rule="evenodd">
        <path d="M17.586,0.585756 L24.414,7.41376 C24.789,7.78876 25,8.29776 25,8.82776 L25,24.9998 C25,26.6568 23.657,27.9998 22,27.9998 L6,27.9998 C4.343,27.9998 3,26.6568 3,24.9998 L3,2.99975586 C3,1.34276 4.343,-0.000244141 6,-0.000244141 L16.172,-0.000244141 C16.702,-0.000244141 17.211,0.210756 17.586,0.585756 Z M18.0148,22.1318 L18.0148,10.5398 L18.9328,10.5398 L18.9328,23.4998 L17.7448,23.4998 L10.02277,11.8358 L10.02277,23.4998 L9.06877,23.4998 L9.06877,10.5398 L10.31077,10.5398 L18.0148,22.1318 Z" id="Shape" fill="#171B1F"></path>
    </g>
</svg>