<svg width="16" height="16" viewBox="0 0 16 16" xmlns="http://www.w3.org/2000/svg"><title>sources-and-media/file-audio_16</title><path d="M12 15l-8 0c-.551 0-1-.448-1-1l0-4.846c.321.196.58.573.906 1.107.473.774 1.062 1.739 2.26 1.739 1.225 0 1.8-.967 2.263-1.744C8.892 9.478 9.208 9 9.833 9c.605 0 .929.479 1.407 1.261.402.657.891 1.445 1.76 1.671L13 14c0 .552-.449 1-1 1zM4 1l5.086 0L13 4.914l0 5.932c-.321-.196-.581-.573-.907-1.107C11.62 8.965 11.03 8 9.833 8c-1.226 0-1.801.967-2.264 1.744C7.106 10.522 6.791 11 6.166 11c-.606 0-.929-.479-1.407-1.261-.401-.657-.89-1.445-1.759-1.671L3 2c0-.552.449-1 1-1zm10 10.5l0-.001 0-6.585c0-.266-.105-.519-.293-.707L9.793.293C9.605.105 9.351 0 9.086 0L4 0C2.895 0 2 .895 2 2l0 12c0 1.105.895 2 2 2l8 0c1.105 0 2-.895 2-2l0-2.499 0-.001z" fill="#000" fill-rule="evenodd"/></svg>