<?xml version="1.0" encoding="UTF-8"?>
<svg width="16px" height="16px" viewBox="0 0 16 16" version="1.1" xmlns="http://www.w3.org/2000/svg" xmlns:xlink="http://www.w3.org/1999/xlink">
    <!-- Generator: Sketch 60.1 (88133) - https://sketch.com -->
    <title>sources-and-media/file-graph_16</title>
    <desc>Created with Sketch.</desc>
    <g id="sources-and-media/file-graph_16" stroke="none" stroke-width="1" fill="none" fill-rule="evenodd">
        <path d="M13,4.914 L13,4.91411 L9.08589,1 L9.086,1 L4,1 C3.44728,1 3,1.44728 3,2 L3,14 C3,14.5527 3.44728,15 4,15 L12,15 C12.5527,15 13,14.5527 13,14 L13,4.914 Z M9.793,0.293 L13.707,4.207 C13.895,4.395 14,4.648 14,4.914 L14,14 C14,15.105 13.105,16 12,16 L4,16 C2.895,16 2,15.105 2,14 L2,2 C2,0.895 2.895,0 4,0 L9.086,0 C9.351,0 9.605,0.105 9.793,0.293 Z M7.75,5.5 C7.61739,5.5 7.49022,5.55268 7.39645,5.64645 C7.30268,5.74021 7.25,5.86739 7.25,6 L7.25,6.03348 C6.68566,6.1094 6.14372,6.3132 5.66661,6.63199 C5.04993,7.04404 4.56928,7.62971 4.28545,8.31494 C4.00162,9.00016 3.92736,9.75416 4.07206,10.4816 C4.21675,11.209 4.5739,11.8772 5.09835,12.4017 C5.6228,12.9261 6.29098,13.2833 7.01841,13.4279 C7.74584,13.5726 8.49984,13.4984 9.18506,13.2145 C9.87029,12.9307 10.45596,12.4501 10.86801,11.8334 C11.1868,11.3563 11.3906,10.8143 11.46652,10.25 L11.4999987,10.25 C11.77614,10.25 11.9999987,10.0261 11.9999987,9.75 C11.9999987,9.19188 11.89007,8.63923 11.67649,8.1236 C11.46291,7.60796 11.14986,7.13945 10.75521,6.7448 C10.36056,6.35015 9.89204,6.03709 9.37641,5.82351 C8.86077,5.60993 8.30812,5.5 7.75,5.5 Z M10.45417,10.25 L7.75,10.25 C7.47386,10.25 7.25,10.0261 7.25,9.75 L7.25,7.04584 C6.88429,7.11346 6.53431,7.2549 6.22218,7.46346 C5.76995,7.76563 5.41747,8.19512 5.20933,8.69762 C5.00119,9.20012 4.94673,9.75305 5.05284,10.2865 C5.15895,10.8199 5.42086,11.3099 5.80546,11.6945 C6.19005,12.0791 6.68006,12.3411 7.2135,12.4472 C7.74695,12.5533 8.29988,12.4988 8.80238,12.2907 C9.30488,12.0825 9.73437,11.7301 10.03654,11.2778 C10.2451,10.9657 10.38654,10.6157 10.45417,10.25 Z M10.96131,9.25 C10.92165,8.99526 10.85172,8.74556 10.75261,8.50628 C10.58928,8.11197 10.34989,7.75369 10.0481,7.4519 C9.74631,7.15011 9.38803,6.91072 8.99372,6.74739 C8.75444,6.64828 8.50474,6.57835 8.25,6.53869 L8.25,9.25 L10.96131,9.25 Z" id="Shape" fill="#171B1F"></path>
    </g>
</svg>