<?xml version="1.0" encoding="UTF-8"?>
<svg width="72px" height="72px" viewBox="0 0 72 72" version="1.1" xmlns="http://www.w3.org/2000/svg" xmlns:xlink="http://www.w3.org/1999/xlink">
    <!-- Generator: Sketch 60.1 (88133) - https://sketch.com -->
    <title>sources-and-media/file-powerpoint_72</title>
    <desc>Created with Sketch.</desc>
    <g id="sources-and-media/file-powerpoint_72" stroke="none" stroke-width="1" fill="none" fill-rule="evenodd">
        <path d="M43.2034,2.44858 L43.2035,2.44869 L61.5514,20.7146 C61.8421,21.0041 62,21.3841 62,21.794 L62,64.5 C62,67.5317 59.5317,70 56.5,70 L15.5,70 C12.46828,70 10,67.5317 10,64.5 L10,7.5 C10,4.46828 12.46828,2 15.5,2 L42.117,2 C42.5286,2 42.9118,2.15827 43.2034,2.44858 Z M63,21.794 C63,21.118 62.736,20.483 62.257,20.006 L43.909,1.74 C43.43,1.263 42.793,1 42.117,1 L15.5,1 C11.916,1 9,3.916 9,7.5 L9,64.5 C9,68.084 11.916,71 15.5,71 L56.5,71 C60.084,71 63,68.084 63,64.5 L63,21.794 Z M28.688,56 L28.688,32.96 L36.496,32.96 C41.52,32.96 44.432,35.616 44.432,40.096 C44.432,44.352 41.072,46.976 36.432,46.976 L30.064,46.976 L30.064,56 L28.688,56 Z M30.064,34.144 L30.064,45.76 L36.432,45.76 C40.464,45.76 42.992,43.616 42.992,40.096 C42.992,36.384 40.624,34.144 36.592,34.144 L30.064,34.144 Z" id="Shape" fill="#171B1F"></path>
    </g>
</svg>