<?xml version="1.0" encoding="UTF-8"?>
<svg width="16px" height="16px" viewBox="0 0 16 16" version="1.1" xmlns="http://www.w3.org/2000/svg" xmlns:xlink="http://www.w3.org/1999/xlink">
    <!-- Generator: Sketch 60.1 (88133) - https://sketch.com -->
    <title>sources-and-media/file-word-active_16</title>
    <desc>Created with Sketch.</desc>
    <g id="sources-and-media/file-word-active_16" stroke="none" stroke-width="1" fill="none" fill-rule="evenodd">
        <path d="M9.793,0.293 L13.707,4.207 C13.895,4.395 14,4.648 14,4.914 L14,14 C14,15.105 13.105,16 12,16 L4,16 C2.895,16 2,15.105 2,14 L2,2 C2,0.895 2.895,0 4,0 L9.086,0 C9.351,0 9.605,0.105 9.793,0.293 Z M12.3484,6.02 L11.26844,6.02 L10.06244,11.168 L8.74844,6.02 L7.38944,6.02 L6.05744,11.168 L4.84244,6.02 L3.65444,6.02 L5.30144,12.5 L6.66044,12.5 L8.02844,7.208 L9.38744,12.5 L10.73744,12.5 L12.3484,6.02 Z" id="Shape" fill="#171B1F"></path>
    </g>
</svg>