<svg width="28" height="28" viewBox="0 0 28 28" xmlns="http://www.w3.org/2000/svg"><title>sources-and-media/file-graph_28</title><path d="M24.414 7.414c.375.375.586.884.586 1.414L25 25c0 1.657-1.343 3-3 3L6 28c-1.657 0-3-1.343-3-3L3 3c0-1.657 1.343-3 3-3l10.172 0c.53 0 1.039.211 1.414.586l6.828 6.828zM24 25l0-16.172c0-.263-.107-.52-.293-.707l-6.828-6.828c-.187-.187-.444-.293-.707-.293L6 1c-1.103 0-2 .897-2 2l0 22c0 1.103.897 2 2 2l16 0c1.104 0 2-.897 2-2zm-9.5-15c3.584 0 6.5 2.916 6.5 6.5 0 .276-.224.5-.5.5l-.5 0c0 3.309-2.691 6-6 6-3.309 0-6-2.691-6-6 0-3.309 2.691-6 6-6l0-.5c0-.276.224-.5.5-.5zm.5 6l4.978 0c-.239-2.635-2.343-4.739-4.978-4.978L15 16zm-1 6c2.757 0 5-2.243 5-5l-4.5 0c-.276 0-.5-.224-.5-.5l0-4.5c-2.757 0-5 2.243-5 5 0 2.757 2.243 5 5 5z" fill="#000" fill-rule="evenodd"/></svg>