<svg width="14" height="14" viewBox="0 0 14 14" xmlns="http://www.w3.org/2000/svg"><title>activities/files_14</title><path d="M12.333 12.001l-10.662 0c-.368 0-.667-.299-.667-.667l0-5.334L13 6l0 5.334c0 .368-.299.667-.667.667zM1.004 2.667c0-.368.299-.667.667-.667l3.112 0c.175 0 .347.071.462.186l.304.32c.003.004.006.007.009.01.315.315.734.488 1.179.488l5.596 0c.368 0 .667.299.667.666L13 5 1.004 5l0-2.333zm11.329-.663l-5.596 0c-.176 0-.342-.068-.468-.191l-.308-.325C5.651 1.178 5.221 1 4.783 1L1.671 1C.752 1 .005 1.748.005 2.667L.005 5 0 5l0 1 .005 0 0 5.334c0 .919.747 1.667 1.666 1.667l10.662 0c.919 0 1.667-.748 1.667-1.667l0-7.664c0-.919-.748-1.666-1.667-1.666z" fill="#000" fill-rule="evenodd"/></svg>