<?xml version="1.0" encoding="UTF-8"?>
<svg width="72px" height="72px" viewBox="0 0 72 72" version="1.1" xmlns="http://www.w3.org/2000/svg" xmlns:xlink="http://www.w3.org/1999/xlink">
    <!-- Generator: Sketch 60.1 (88133) - https://sketch.com -->
    <title>sources-and-media/file-spreadsheet-active_72</title>
    <desc>Created with Sketch.</desc>
    <g id="sources-and-media/file-spreadsheet-active_72" stroke="none" stroke-width="1" fill="none" fill-rule="evenodd">
        <path d="M62.257,20.006 L43.909,1.74 C43.43,1.263 42.793,1 42.117,1 L15.5,1 C11.916,1 9,3.916 9,7.5 L9,64.5 C9,68.084 11.916,71 15.5,71 L56.5,71 C60.084,71 63,68.084 63,64.5 L63,21.794 C63,21.118 62.736,20.483 62.257,20.006 Z M16,33.5 C16,33.2239 16.22386,33 16.5,33 L22.5,33 C22.7761,33 23,33.2239 23,33.5 C23,33.7761 22.7761,34 22.5,34 L16.5,34 C16.22386,34 16,33.7761 16,33.5 Z M16.5,44 C16.22386,44 16,44.2239 16,44.5 C16,44.7761 16.22386,45 16.5,45 L22.5,45 C22.7761,45 23,44.7761 23,44.5 C23,44.2239 22.7761,44 22.5,44 L16.5,44 Z M16,55.5 C16,55.2239 16.22386,55 16.5,55 L22.5,55 C22.7761,55 23,55.2239 23,55.5 C23,55.7761 22.7761,56 22.5,56 L16.5,56 C16.22386,56 16,55.7761 16,55.5 Z M29.5,33 C29.2239,33 29,33.2239 29,33.5 C29,33.7761 29.2239,34 29.5,34 L54.5,34 C54.7761,34 55,33.7761 55,33.5 C55,33.2239 54.7761,33 54.5,33 L29.5,33 Z M29,44.5 C29,44.2239 29.2239,44 29.5,44 L54.5,44 C54.7761,44 55,44.2239 55,44.5 C55,44.7761 54.7761,45 54.5,45 L29.5,45 C29.2239,45 29,44.7761 29,44.5 Z M29.5,55 C29.2239,55 29,55.2239 29,55.5 C29,55.7761 29.2239,56 29.5,56 L54.5,56 C54.7761,56 55,55.7761 55,55.5 C55,55.2239 54.7761,55 54.5,55 L29.5,55 Z" id="Shape" fill="#171B1F"></path>
    </g>
</svg>