<?xml version="1.0" encoding="UTF-8"?>
<svg width="28px" height="28px" viewBox="0 0 28 28" version="1.1" xmlns="http://www.w3.org/2000/svg" xmlns:xlink="http://www.w3.org/1999/xlink">
    <!-- Generator: Sketch 61.2 (89653) - https://sketch.com -->
    <title>sources-and-media/file-analysis_28</title>
    <desc>Created with Sketch.</desc>
    <g id="sources-and-media/file-analysis_28" stroke="none" stroke-width="1" fill="none" fill-rule="evenodd">
        <path d="M24.621,7.8648 L17.367,0.4298 C17.121,0.1568 16.777,-0.0002 16.423,-0.0002 L5.923,-0.0002 C4.311,-0.0002 3,1.4358 3,3.1998 L3,24.7998 C3,26.5648 4.311,27.9998 5.923,27.9998 L22.077,27.9998 C23.689,27.9998 25,26.5648 25,24.7998 L25,8.8508 C25,8.4868 24.871,8.1418 24.621,7.8648 L24.621,7.8648 Z M24,24.7998 C24,26.0138 23.137,26.9998 22.077,26.9998 L5.923,26.9998 C4.863,26.9998 4,26.0138 4,24.7998 L4,3.1998 C4,1.9868 4.863,0.9998 5.923,0.9998 L16.423,0.9998 C16.495,0.9998 16.565,1.0348 16.637,1.1128 L23.892,8.5488 C23.961,8.6248 24,8.7358 24,8.8508 L24,24.7998 Z M22.0303,23 L5.9373,23 C5.6613,23 5.4373,23.224 5.4373,23.5 C5.4373,23.776 5.6613,24 5.9373,24 L22.0303,24 C22.3063,24 22.5303,23.776 22.5303,23.5 C22.5303,23.224 22.3063,23 22.0303,23 M7.9473,21 L9.9623,21 C10.5133,21 10.9633,20.551 10.9633,19.998 L10.9633,13.502 C10.9633,12.949 10.5133,12.5 9.9623,12.5 L7.9473,12.5 C7.3953,12.5 6.9463,12.949 6.9463,13.502 L6.9463,19.998 C6.9463,20.551 7.3953,21 7.9473,21 L7.9473,21 Z M7.9473,13.5 L9.9623,13.5 L9.9633,13.502 L9.9623,20 L7.9463,19.998 L7.9473,13.5 Z M12.9785,21 L14.9905,21 C15.5425,21 15.9925,20.551 15.9925,20 L15.9925,16.5 C15.9925,15.949 15.5425,15.5 14.9905,15.5 L12.9785,15.5 C12.4245,15.5 11.9745,15.949 11.9745,16.5 L11.9745,20 C11.9745,20.551 12.4245,21 12.9785,21 L12.9785,21 Z M12.9785,16.5 L14.9925,16.5 L14.9905,20 L12.9745,20 L12.9785,16.5 Z M18.0059,21 L20.0199,21 C20.5719,21 21.0219,20.551 21.0219,19.998 L21.0219,10.002 C21.0219,9.449 20.5719,9 20.0199,9 L18.0059,9 C17.4529,9 17.0039,9.449 17.0039,10.002 L17.0039,19.998 C17.0039,20.551 17.4529,21 18.0059,21 L18.0059,21 Z M18.0059,10 L20.0199,10 L20.0219,10.002 L20.0199,20 L18.0039,19.998 L18.0059,10 Z" id="fill" fill="#171B1F"></path>
    </g>
</svg>