<svg width="36" height="36" viewBox="0 0 36 36" xmlns="http://www.w3.org/2000/svg"><title>sources-and-media/file-text_36</title><path d="M30.121 9.631c.563.562.879 1.326.879 2.121L31 31.5c0 1.933-1.567 3.5-3.5 3.5l-19 0C6.567 35 5 33.433 5 31.5l0-27C5 2.567 6.567 1 8.5 1l11.748 0c.795 0 1.559.316 2.121.879l7.752 7.752zM30 31.5l0-19.748c0-.534-.208-1.036-.586-1.414l-7.752-7.752c-.378-.378-.88-.586-1.414-.586L8.5 2C7.121 2 6 3.122 6 4.5l0 27C6 32.879 7.121 34 8.5 34l19 0c1.379 0 2.5-1.121 2.5-2.5zM17.5 27c.276 0 .5.224.5.5 0 .276-.224.5-.5.5l-6 0c-.276 0-.5-.224-.5-.5 0-.276.224-.5.5-.5l6 0zm7-6c.276 0 .5.224.5.5 0 .276-.224.5-.5.5l-13 0c-.276 0-.5-.224-.5-.5 0-.276.224-.5.5-.5l13 0zm0-6c.276 0 .5.224.5.5 0 .276-.224.5-.5.5l-13 0c-.276 0-.5-.224-.5-.5 0-.276.224-.5.5-.5l13 0z" fill="#000" fill-rule="evenodd"/></svg>