<svg width="16" height="16" viewBox="0 0 16 16" xmlns="http://www.w3.org/2000/svg"><title>sources-and-media/file-pdf_16</title><path d="M13.707 4.207c.188.188.293.441.293.707L14 14c0 1.105-.895 2-2 2l-8 0c-1.105 0-2-.895-2-2L2 2c0-1.105.895-2 2-2l5.086 0c.265 0 .519.105.707.293l3.914 3.914zM13 14l0-9.086L9.086 1 4 1c-.551 0-1 .448-1 1l0 12c0 .552.449 1 1 1l8 0c.551 0 1-.448 1-1zM9.041 8.0761c-.001.003-.002.006-.003.008l-.481 1.158c.064.138.136.273.217.407.466-.141.868-.237 1.101-.237.652 0 1.125.482 1.125 1.146 0 .633-.505 1.148-1.126 1.148-.682 0-1.058-.352-1.282-.616-.074-.089-.145-.176-.212-.261-.188.065-.385.136-.588.21l-.566 1.281c-.187.414-.595.68-1.041.68-.673 0-1.185-.519-1.185-1.155 0-.495.311-.934.772-1.093.192-.079.687-.28 1.276-.503l.423-.999-.511-1.156c-.062-.155-.089-.298-.089-.447 0-.632.505-1.147 1.126-1.147.621 0 1.126.515 1.126 1.147 0 .148-.028.291-.082.429zm.834 2.336c-.09 0-.252.033-.467.091.144.152.265.203.466.203.069 0 .126-.066.126-.148 0-.146-.072-.146-.125-.146zm-1.763-2.706c.007-.019.011-.038.011-.059 0-.081-.057-.147-.126-.147-.069 0-.126.066-.126.147l.135.314.106-.255zm-1.8 4.207l.163-.367c-.118.047-.235.094-.35.141-.085.031-.125.091-.125.158 0 .191.269.164.312.068z" fill="#000" fill-rule="evenodd"/></svg>