<?xml version="1.0" encoding="UTF-8"?>
<svg width="32px" height="32px" viewBox="0 0 32 32" version="1.1" xmlns="http://www.w3.org/2000/svg" xmlns:xlink="http://www.w3.org/1999/xlink">
    <!-- Generator: Sketch 60.1 (88133) - https://sketch.com -->
    <title>sources-and-media/file-powerpoint-active_32</title>
    <desc>Created with Sketch.</desc>
    <g id="sources-and-media/file-powerpoint-active_32" stroke="none" stroke-width="1" fill="none" fill-rule="evenodd">
        <path d="M17.7574,0 L7,0 C5.34315,0 4,1.34315 4,3 L4,29 C4,30.6569 5.34315,32 7,32 L25,32 C26.6569,32 28,30.6569 28,29 L28,10.2426 C28,9.44699 27.6839,8.68393 27.1213,8.12132 L19.8787,0.87868 C19.3161,0.31607 18.553,0 17.7574,0 Z M11.84221,25.5002 L11.84221,12.5402 L16.1982,12.5402 C19.1142,12.5402 20.7882,14.0342 20.7882,16.6082 C20.7882,19.0562 18.9342,20.5322 16.1442,20.5322 L12.85021,20.5322 L12.85021,25.5002 L11.84221,25.5002 Z M19.7262,16.6082 C19.7262,14.6102 18.4482,13.4042 16.2342,13.4042 L12.85021,13.4042 L12.85021,19.6502 L16.1622,19.6502 C18.4302,19.6502 19.7262,18.5162 19.7262,16.6082 Z" id="Shape" fill="#171B1F"></path>
    </g>
</svg>