<svg width="44" height="44" viewBox="0 0 44 44" fill="none" xmlns="http://www.w3.org/2000/svg">
<path fill-rule="evenodd" clip-rule="evenodd" d="M27.058 0.517L38.481 11.898C38.811 12.228 39 12.684 39 13.148V40C39 42.206 37.206 44 35 44H9C6.794 44 5 42.206 5 40V4C5 1.794 6.794 0 9 0H25.809C26.281 0 26.725 0.184 27.058 0.517ZM27.9319 18.78H28.9979L22.6539 27.828L29.2319 37.5H28.0879L22.0039 28.53L15.8939 37.5H14.7759L21.4319 27.776L15.2959 18.78H16.4399L22.0819 27.074L27.9319 18.78Z" fill="#121212"/>
</svg>
