<svg width="32" height="32" viewBox="0 0 32 32" xmlns="http://www.w3.org/2000/svg"><title>sources-and-media/file-image_32</title><path d="M27.1215 8.1215c.562.562.878 1.326.878 2.121l0 17.695 0 1.063c0 .117-.021.228-.034.342-.173 1.493-1.426 2.658-2.966 2.658l-18 0c-1.657 0-3-1.344-3-3l0-26c0-1.657 1.343-3 3-3l10.758 0c.795 0 1.559.316 2.121.878l7.243 7.243zm-10.436 8.068l10.314 10.71 0-16.657c0-.531-.21-1.039-.585-1.414l-7.243-7.243c-.375-.375-.883-.585-1.414-.585l-10.758 0c-1.104 0-2 .895-2 2l0 19.129 5.942-5.94c1.585-1.586 4.16-1.582 5.744 0zM22.5088 17c-1.379 0-2.5-1.123-2.5-2.5 0-1.379 1.121-2.5 2.5-2.5 1.379 0 2.5 1.121 2.5 2.5 0 1.377-1.121 2.5-2.5 2.5zm0-4c-.827 0-1.5.672-1.5 1.5 0 .826.673 1.5 1.5 1.5.827 0 1.5-.674 1.5-1.5 0-.828-.673-1.5-1.5-1.5zm4.4907 16.0005l0-.661-11.029-11.449c-1.187-1.186-3.129-1.188-4.322.006l-6.649 6.647 0 5.457c0 1.104.896 2 2 2l18 0c1.105 0 2-.896 2-2z" fill="#000" fill-rule="evenodd"/></svg>