<?xml version="1.0" encoding="UTF-8"?>
<svg width="72px" height="72px" viewBox="0 0 72 72" version="1.1" xmlns="http://www.w3.org/2000/svg" xmlns:xlink="http://www.w3.org/1999/xlink">
    <!-- Generator: Sketch 60.1 (88133) - https://sketch.com -->
    <title>sources-and-media/file-powerpoint-active_72</title>
    <desc>Created with Sketch.</desc>
    <g id="sources-and-media/file-powerpoint-active_72" stroke="none" stroke-width="1" fill="none" fill-rule="evenodd">
        <path d="M43.909,1.74 L62.257,20.006 C62.736,20.483 63,21.118 63,21.794 L63,64.5 C63,68.084 60.084,71 56.5,71 L15.5,71 C11.916,71 9,68.084 9,64.5 L9,7.5 C9,3.916 11.916,1 15.5,1 L42.117,1 C42.793,1 43.43,1.263 43.909,1.74 Z M28.688,56 L28.688,32.96 L36.496,32.96 C41.52,32.96 44.432,35.616 44.432,40.096 C44.432,44.352 41.072,46.976 36.432,46.976 L30.064,46.976 L30.064,56 L28.688,56 Z M30.064,34.144 L30.064,45.76 L36.432,45.76 C40.464,45.76 42.992,43.616 42.992,40.096 C42.992,36.384 40.624,34.144 36.592,34.144 L30.064,34.144 Z" id="Shape" fill="#171B1F"></path>
    </g>
</svg>