<svg width="36" height="36" viewBox="0 0 36 36" xmlns="http://www.w3.org/2000/svg"><title>sources-and-media/file-graph_36</title><path d="M30 31.5c0 1.379-1.121 2.5-2.5 2.5l-19 0C7.121 34 6 32.879 6 31.5l0-27C6 3.122 7.121 2 8.5 2l11.748 0c.534 0 1.036.208 1.414.586l7.752 7.752c.378.378.586.88.586 1.414L30 31.5zm.121-21.869c.563.562.879 1.326.879 2.121L31 31.5c0 1.933-1.567 3.5-3.5 3.5l-19 0C6.567 35 5 33.433 5 31.5l0-27C5 2.567 6.567 1 8.5 1l11.748 0c.795 0 1.559.316 2.121.879l7.752 7.752zM19 21l0-6.948c3.602.48 6.468 3.345 6.948 6.948L19 21zm-1 8c-3.859 0-7-3.141-7-7 0-3.86 3.141-7 7-7l0 6.5c0 .276.224.5.5.5l6.5 0c0 3.859-3.141 7-7 7zm8.999-7.533c-.3-4.527-3.939-8.167-8.466-8.466-.006 0-.011.002-.016.002-.006 0-.011-.003-.017-.003-.04 0-.075.014-.112.022-.023.006-.047.006-.069.014-.039.016-.071.04-.104.065-.019.012-.04.018-.057.034-.002.002-.003.005-.005.007-.04.038-.069.085-.094.134-.005.01-.014.017-.018.027-.026.06-.041.127-.041.197l0 .5c-4.411 0-8 3.589-8 8 0 4.411 3.589 8 8 8 4.411 0 8-3.589 8-8l.5 0c.07 0 .137-.015.197-.041.012-.005.02-.015.031-.021.047-.024.093-.053.13-.091.002-.002.005-.003.007-.005.016-.017.022-.038.034-.056.025-.034.049-.066.065-.106.011-.029.013-.059.017-.09.006-.03.019-.058.019-.09 0-.006-.003-.011-.003-.017-.001-.005.002-.01.002-.016z" fill="#000" fill-rule="evenodd"/></svg>