<?xml version="1.0" encoding="UTF-8"?>
<svg width="12px" height="12px" viewBox="0 0 12 12" version="1.1" xmlns="http://www.w3.org/2000/svg" xmlns:xlink="http://www.w3.org/1999/xlink">
    <!-- Generator: Sketch 60.1 (88133) - https://sketch.com -->
    <title>sources-and-media/file-graph_12</title>
    <desc>Created with Sketch.</desc>
    <g id="sources-and-media/file-graph_12" stroke="none" stroke-width="1" fill="none" fill-rule="evenodd">
        <path d="M10.759,3.417 L7.582,0.24 C7.426,0.085 7.219,0 7,0 L6,0 L2.5,0 C1.673,0 1,0.673 1,1.5 L1,10.5 C1,11.327 1.673,12 2.5,12 L9.5,12 C10.327,12 11,11.327 11,10.5 L11,4 C11,3.78 10.915,3.574 10.759,3.417 Z M6.92779,1 L6,1 L2.5,1 C2.22528,1 2,1.22528 2,1.5 L2,10.5 C2,10.7747 2.22528,11 2.5,11 L9.5,11 C9.77472,11 10,10.7747 10,10.5 L10,4.07221 L6.92779,1 Z M5.75,4 C5.61739,4 5.49021,4.05268 5.39644,4.14645 C5.30267,4.24021 5.25,4.36739 5.25,4.5 L5.25,4.54584 C4.88428,4.61346 4.53431,4.7549 4.22218,4.96346 C3.76994,5.26563 3.41747,5.69512 3.20933,6.19762 C3.00119,6.70012 2.94673,7.25305 3.05284,7.7865 C3.15895,8.31995 3.42086,8.80995 3.80545,9.19454 C4.19005,9.57914 4.68005,9.84105 5.2135,9.94716 C5.74695,10.0533 6.29988,9.99881 6.80238,9.79067 C7.30487,9.58253 7.73437,9.23005 8.03654,8.77782 C8.2451,8.46569 8.38654,8.11572 8.45416,7.75 L8.49999801,7.75 C8.77614,7.75 8.99999801,7.52614 8.99999801,7.25 C8.99999801,6.8232 8.91593,6.40059 8.75261,6.00628 C8.58928,5.61197 8.34988,5.25369 8.04809,4.9519 C7.7463,4.65011 7.38803,4.41072 6.99372,4.24739 C6.59941,4.08406 6.17679,4 5.75,4 Z M7.42705,7.75 L5.75,7.75 C5.47385,7.75 5.25,7.52614 5.25,7.25 L5.25,5.57295 C5.08327,5.62266 4.92398,5.69722 4.77775,5.79493 C4.48996,5.98722 4.26566,6.26053 4.13321,6.5803 C4.00076,6.90007 3.9661,7.25194 4.03362,7.59141 C4.10115,7.93087 4.26782,8.24269 4.51256,8.48744 C4.7573,8.73218 5.06912,8.89885 5.40859,8.96637 C5.74806,9.0339 6.09992,8.99924 6.41969,8.86679 C6.73946,8.73434 7.01278,8.51003 7.20507,8.22225 C7.30278,8.07601 7.37734,7.91673 7.42705,7.75 Z M7.94374,6.75 C7.91569,6.62692 7.87726,6.50614 7.82873,6.38896 C7.71565,6.11598 7.54992,5.86794 7.34099,5.65901 C7.13206,5.45008 6.88402,5.28434 6.61103,5.17127 C6.49386,5.12274 6.37307,5.08431 6.25,5.05626 L6.25,6.75 L7.94374,6.75 Z" id="Shape" fill="#171B1F"></path>
    </g>
</svg>