<svg width="32" height="32" viewBox="0 0 32 32" fill="none" xmlns="http://www.w3.org/2000/svg">
<path fill-rule="evenodd" clip-rule="evenodd" d="M7 0H17.7574C18.553 0 19.3161 0.31607 19.8787 0.87868L27.1213 8.12132C27.6839 8.68393 28 9.44699 28 10.2426V29C28 30.6569 26.6569 32 25 32H7C5.34315 32 4 30.6569 4 29V3C4 1.34315 5.34315 0 7 0ZM19.9125 12.5402H21.0465L16.6185 18.7862L21.2085 25.5002H19.9845L16.0065 19.5782L11.9565 25.5002H10.7865L15.4125 18.7862L11.1285 12.5402H12.3345L16.0605 18.0122L19.9125 12.5402Z" fill="#121212"/>
</svg>
