<svg width="36" height="36" viewBox="0 0 36 36" fill="none" xmlns="http://www.w3.org/2000/svg">
<path fill-rule="evenodd" clip-rule="evenodd" d="M30.121 8.631L22.369 0.879C21.807 0.316 21.043 0 20.248 0H8.5C6.567 0 5 1.567 5 3.5V32.5C5 34.433 6.567 36 8.5 36H27.5C29.433 36 31 34.433 31 32.5V10.752C31 9.957 30.684 9.193 30.121 8.631ZM21.9125 15.54H23.0465L18.6185 21.786L23.2085 28.5H21.9845L18.0065 22.578L13.9565 28.5H12.7865L17.4125 21.786L13.1285 15.54H14.3345L18.0605 21.012L21.9125 15.54Z" fill="#121212"/>
</svg>
