<?xml version="1.0" encoding="UTF-8"?>
<svg width="72px" height="72px" viewBox="0 0 72 72" version="1.1" xmlns="http://www.w3.org/2000/svg" xmlns:xlink="http://www.w3.org/1999/xlink">
    <!-- Generator: Sketch 55.2 (78181) - https://sketchapp.com -->
    <title>activities/files_72</title>
    <desc>Created with Sketch.</desc>
    <g id="Icons-Webex" stroke="none" stroke-width="1" fill="none" fill-rule="evenodd">
        <g id="activities/files_72" fill="#000000">
            <g id="files_72" transform="translate(0.000000, 4.000000)">
                <path d="M1,21.0207 L71.0005601,21.0207 L71,12.708 C71,9.543 68.426,6.969 65.261,6.969 L31.302,6.97 C29.871,6.97 28.46,6.486 27.329,5.607 L23.458,2.103 C22.551,1.4 21.384,1 20.2,1 L6.738,1 C3.574,1 1,3.574 1,6.739 L1,21.0207 Z M71.0006275,22.0207 L1,22.0207 L1,57.234 C1,60.398 3.574,62.973 6.738,62.973 L65.264,62.973 C68.428,62.973 71.003,60.398 71.003,57.234 L71.0006275,22.0207 Z M65.264,63.973 L6.738,63.973 C3.022,63.973 0,60.95 0,57.234 L0,6.739 C0,3.023 3.022,0 6.738,0 L20.2,0 C21.605,0 22.99,0.475 24.1,1.337 L27.971,4.842 C28.898,5.561 30.092,5.97 31.302,5.97 L65.261,5.969 C68.977,5.969 72,8.992 72,12.708 L72.003,57.234 C72.003,60.95 68.98,63.973 65.264,63.973 Z" id="fill"></path>
            </g>
        </g>
    </g>
</svg>