<svg width="36" height="36" viewBox="0 0 36 36" fill="none" xmlns="http://www.w3.org/2000/svg">
<path fill-rule="evenodd" clip-rule="evenodd" d="M22.369 0.879L30.121 8.631C30.684 9.193 31 9.957 31 10.752V32.5C31 34.433 29.433 36 27.5 36H8.5C6.567 36 5 34.433 5 32.5V3.5C5 1.567 6.567 0 8.5 0H20.248C21.043 0 21.807 0.316 22.369 0.879ZM21.9125 15.54H23.0465L18.6185 21.786L23.2085 28.5H21.9845L18.0065 22.578L13.9565 28.5H12.7865L17.4125 21.786L13.1285 15.54H14.3345L18.0605 21.012L21.9125 15.54Z" fill="#121212"/>
</svg>
