<svg width="24" height="24" viewBox="0 0 24 24" xmlns="http://www.w3.org/2000/svg"><title>sources-and-media/file-missing_24</title><path d="M20.658 6.342c.221.221.342.512.342.824L21 8l0 5 0 8.5c0 1.379-1.121 2.5-2.5 2.5l-13 0C4.121 24 3 22.879 3 21.5l0-19C3 1.121 4.121 0 5.5 0L8 0l5.833 0c.308 0 .608.125.825.342l6 6zM20 13l0-5.001-4.452-.007C14.143 7.992 13 6.93 13 5.623L13 1 8 1 5.5 1C4.673 1 4 1.673 4 2.5l0 19c0 .827.673 1.5 1.5 1.5l13 0c.827 0 1.5-.673 1.5-1.5l0-8.5zM14.019 1.117l0 4.506c0 .784.686 1.422 1.529 1.422l4.399 0-5.928-5.928zM11.4912 19c.276 0 .5.224.5.5 0 .275-.224.5-.5.5-.276 0-.5-.225-.5-.5 0-.276.224-.5.5-.5zm.0996-9.999c1.88.054 3.409 1.634 3.409 3.521 0 1.578-.866 2.301-1.561 2.882-.12.102-.238.2-.348.301l-.51.469c-.364.335-.572.809-.572 1.305 0 .276-.224.5-.5.5-.276 0-.5-.224-.5-.5 0-.774.326-1.517.895-2.041l.51-.469c.121-.113.251-.22.384-.331.618-.517 1.202-1.005 1.202-2.116 0-1.33-1.116-2.484-2.437-2.521-.689-.03-1.341.226-1.82.689-.479.467-.743 1.109-.743 1.81 0 .275-.223.5-.5.5-.276 0-.5-.225-.5-.5 0-.975.371-1.87 1.046-2.525.674-.657 1.585-.995 2.545-.974z" fill="#000" fill-rule="evenodd"/></svg>