<svg width="44" height="44" viewBox="0 0 44 44" xmlns="http://www.w3.org/2000/svg"><title>sources-and-media/file-spreadsheet_44</title><path d="M38 40c0 1.654-1.346 3-3 3L9 43c-1.654 0-3-1.346-3-3L6 4c0-1.654 1.346-3 3-3l16.809 0c.202 0 .4.082.543.225l11.423 11.38c.143.144.225.342.225.543L38 40zm.481-28.102c.33.33.519.786.519 1.25L39 40c0 2.206-1.794 4-4 4L9 44c-2.206 0-4-1.794-4-4L5 4c0-2.206 1.794-4 4-4l16.809 0c.472 0 .916.184 1.249.517l11.423 11.381zM16.5 20c.275 0 .5-.225.5-.5 0-.275-.225-.5-.5-.5l-3 0c-.275 0-.5.225-.5.5 0 .275.225.5.5.5l3 0zm14 0c.275 0 .5-.225.5-.5 0-.275-.225-.5-.5-.5l-3 0c-.275 0-.5.225-.5.5 0 .275.225.5.5.5l3 0zm-7 0c.275 0 .5-.225.5-.5 0-.275-.225-.5-.5-.5l-3 0c-.275 0-.5.225-.5.5 0 .275.225.5.5.5l3 0zm-7 8c.275 0 .5-.225.5-.5 0-.275-.225-.5-.5-.5l-3 0c-.275 0-.5.225-.5.5 0 .275.225.5.5.5l3 0zm14 0c.275 0 .5-.225.5-.5 0-.275-.225-.5-.5-.5l-3 0c-.275 0-.5.225-.5.5 0 .275.225.5.5.5l3 0zm-7 0c.275 0 .5-.225.5-.5 0-.275-.225-.5-.5-.5l-3 0c-.275 0-.5.225-.5.5 0 .275.225.5.5.5l3 0zm-7 8c.275 0 .5-.225.5-.5 0-.275-.225-.5-.5-.5l-3 0c-.275 0-.5.225-.5.5 0 .275.225.5.5.5l3 0zm14 0c.275 0 .5-.225.5-.5 0-.275-.225-.5-.5-.5l-3 0c-.275 0-.5.225-.5.5 0 .275.225.5.5.5l3 0zm-7 0c.275 0 .5-.225.5-.5 0-.275-.225-.5-.5-.5l-3 0c-.275 0-.5.225-.5.5 0 .275.225.5.5.5l3 0z" fill="#000" fill-rule="evenodd"/></svg>