<?xml version="1.0" encoding="UTF-8"?>
<svg width="72px" height="72px" viewBox="0 0 72 72" version="1.1" xmlns="http://www.w3.org/2000/svg" xmlns:xlink="http://www.w3.org/1999/xlink">
    <!-- Generator: Sketch 60.1 (88133) - https://sketch.com -->
    <title>sources-and-media/file-graph_72</title>
    <desc>Created with Sketch.</desc>
    <g id="sources-and-media/file-graph_72" stroke="none" stroke-width="1" fill="none" fill-rule="evenodd">
        <path d="M43.2035,2.44869 L43.2034,2.44858 C42.9118,2.15827 42.5286,2 42.117,2 L15.5,2 C12.46828,2 10,4.46828 10,7.5 L10,64.5 C10,67.5317 12.46828,70 15.5,70 L56.5,70 C59.5317,70 62,67.5317 62,64.5 L62,21.794 C62,21.3841 61.8421,21.0041 61.5514,20.7146 L43.2035,2.44869 Z M62.257,20.006 C62.736,20.483 63,21.118 63,21.794 L63,64.5 C63,68.084 60.084,71 56.5,71 L15.5,71 C11.916,71 9,68.084 9,64.5 L9,7.5 C9,3.916 11.916,1 15.5,1 L42.117,1 C42.793,1 43.43,1.263 43.909,1.74 L62.257,20.006 Z M34.9997,27 C34.8671,27 34.7399,27.0527 34.6462,27.1464 C34.5524,27.2402 34.4997,27.3674 34.4997,27.5 L34.4997,29.0076 C31.4113,29.1012 28.4075,30.0604 25.8328,31.7808 C23.1194,33.5938 21.0046,36.1707 19.7557,39.1857 C18.50687,42.2007 18.18012,45.5183 18.81678,48.719 C19.4534,51.9197 21.0249,54.8597 23.3325,57.1673 C25.64,59.4748 28.5801,61.0463 31.7807,61.683 C34.9814,62.3196 38.299,61.9929 41.314,60.744 C44.329,59.4952 46.9059,57.3803 48.719,54.6669 C50.4393,52.0923 51.3986,49.0884 51.4922,46 L52.9997,46 C53.1323,46 53.2595,45.9473 53.3533,45.8536 C53.4471,45.7598 53.4997,45.6326 53.4997,45.5 C53.4997,43.0705 53.0212,40.6649 52.0915,38.4204 C51.1618,36.1758 49.7991,34.1364 48.0812,32.4185 C46.3633,30.7006 44.3239,29.3379 42.0794,28.4082 C39.8349,27.4785 37.4292,27 34.9997,27 Z M50.4917,46 L34.9997,46 C34.9911,46 34.9825,45.9998 34.974,45.9993 C34.8648,45.9938 34.7648,45.9532 34.6851,45.8886 C34.6715,45.8776 34.6585,45.8659 34.6462,45.8536 C34.6349,45.8422 34.6241,45.8304 34.6139,45.818 C34.5484,45.7387 34.5069,45.6387 34.5006,45.5293 C34.5,45.5196 34.4997,45.5098 34.4997,45.5 L34.4997,30.0081 C31.6092,30.1013 28.7986,31.0018 26.3884,32.6122 C23.8394,34.3154 21.8528,36.7362 20.6796,39.5684 C19.5064,42.4007 19.1995,45.5172 19.7976,48.5239 C20.3956,51.5306 21.8719,54.2924 24.0396,56.4602 C26.2073,58.6279 28.9691,60.1041 31.9758,60.7022 C34.9825,61.3002 38.0991,60.9933 40.9313,59.8201 C43.7636,58.647 46.1844,56.6603 47.8875,54.1113 C49.498,51.7011 50.3984,48.8906 50.4917,46 Z M51.0016,45 L52.4926,45 C52.4318,42.8723 51.9832,40.7721 51.1676,38.803 C50.2882,36.6798 48.9991,34.7507 47.3741,33.1256 C45.7491,31.5006 43.8199,30.2116 41.6967,29.3321 C39.7276,28.5165 37.6274,28.068 35.4997,28.0071 L35.4997,29.5 L35.4997,45 L50.9997,45 C51.0004,45 51.001,45 51.0016,45 Z" id="Shape" fill="#171B1F"></path>
    </g>
</svg>