<?xml version="1.0" encoding="UTF-8"?>
<svg width="12px" height="12px" viewBox="0 0 12 12" version="1.1" xmlns="http://www.w3.org/2000/svg" xmlns:xlink="http://www.w3.org/1999/xlink">
    <!-- Generator: Sketch 60.1 (88133) - https://sketch.com -->
    <title>sources-and-media/file-excel_12</title>
    <desc>Created with Sketch.</desc>
    <g id="sources-and-media/file-excel_12" stroke="none" stroke-width="1" fill="none" fill-rule="evenodd">
        <path d="M9.5,11 C9.775,11 10,10.775 10,10.5 L10,4.072 L6.928,1 L6,1 L2.5,1 C2.225,1 2,1.225 2,1.5 L2,10.5 C2,10.775 2.225,11 2.5,11 L9.5,11 Z M7.582,0.24 L10.759,3.417 C10.915,3.574 11,3.78 11,4 L11,10.5 C11,11.327 10.327,12 9.5,12 L2.5,12 C1.673,12 1,11.327 1,10.5 L1,1.5 C1,0.673 1.673,0 2.5,0 L6,0 L7,0 C7.219,0 7.426,0.085 7.582,0.24 Z M6.5605,6.968 L8.5205,4.24 L7.4085,4.24 L6.0565,6.216 L4.7285,4.24 L3.5125,4.24 L5.4405,7.024 L3.3765,10 L4.5045,10 L5.9605,7.824 L7.3845,10 L8.6245,10 L6.5605,6.968 Z" id="Shape" fill="#171B1F"></path>
    </g>
</svg>