<?xml version="1.0" encoding="UTF-8"?>
<svg width="12px" height="12px" viewBox="0 0 12 12" version="1.1" xmlns="http://www.w3.org/2000/svg" xmlns:xlink="http://www.w3.org/1999/xlink">
    <!-- Generator: Sketch 60.1 (88133) - https://sketch.com -->
    <title>sources-and-media/file-spreadsheet_12</title>
    <desc>Created with Sketch.</desc>
    <g id="sources-and-media/file-spreadsheet_12" stroke="none" stroke-width="1" fill="none" fill-rule="evenodd">
        <path d="M10.759,3.417 L7.582,0.24 C7.426,0.085 7.219,0 7,0 L6,0 L2.5,0 C1.673,0 1,0.673 1,1.5 L1,10.5 C1,11.327 1.673,12 2.5,12 L9.5,12 C10.327,12 11,11.327 11,10.5 L11,4 C11,3.78 10.915,3.574 10.759,3.417 Z M6.92779,1 L6,1 L2.5,1 C2.22528,1 2,1.22528 2,1.5 L2,10.5 C2,10.7747 2.22528,11 2.5,11 L9.5,11 C9.77472,11 10,10.7747 10,10.5 L10,4.07221 L6.92779,1 Z M3,6 C3,5.72386 3.22386,5.5 3.5,5.5 L4,5.5 C4.27614,5.5 4.5,5.72386 4.5,6 C4.5,6.27614 4.27614,6.5 4,6.5 L3.5,6.5 C3.22386,6.5 3,6.27614 3,6 Z M3.5,8 C3.22386,8 3,8.22386 3,8.5 C3,8.77614 3.22386,9 3.5,9 L4,9 C4.27614,9 4.5,8.77614 4.5,8.5 C4.5,8.22386 4.27614,8 4,8 L3.5,8 Z M5.5,6 C5.5,5.72386 5.72386,5.5 6,5.5 L8.5,5.5 C8.77614,5.5 9,5.72386 9,6 C9,6.27614 8.77614,6.5 8.5,6.5 L6,6.5 C5.72386,6.5 5.5,6.27614 5.5,6 Z M6,8 C5.72386,8 5.5,8.22386 5.5,8.5 C5.5,8.77614 5.72386,9 6,9 L8.5,9 C8.77614,9 9,8.77614 9,8.5 C9,8.22386 8.77614,8 8.5,8 L6,8 Z" id="Shape" fill="#171B1F"></path>
    </g>
</svg>