<svg width="72" height="72" viewBox="0 0 72 72" xmlns="http://www.w3.org/2000/svg"><title>sources-and-media/file-pdf_72</title><path d="M62.257 20.006c.479.477.743 1.112.743 1.788L63 64.5c0 3.584-2.916 6.5-6.5 6.5l-41 0C11.916 71 9 68.084 9 64.5l0-57C9 3.916 11.916 1 15.5 1l26.617 0c.676 0 1.313.263 1.792.74l18.348 18.266zM62 64.5l0-42.706c0-.408-.159-.791-.448-1.079L43.204 2.449c-.291-.29-.677-.449-1.087-.449L15.5 2C12.467 2 10 4.467 10 7.5l0 57c0 3.033 2.467 5.5 5.5 5.5l41 0c3.033 0 5.5-2.467 5.5-5.5zM48.3966 43.5286c3.176 0 4.623 2.394 4.623 4.618 0 2.547-2.071 4.618-4.618 4.618-2.619 0-4.508-.888-6.33-2.968-.943-1.077-1.779-2.101-2.525-3.098-2.278.734-4.705 1.578-6.99 2.399l-4.212 9.182c-.772 1.654-2.462 2.72-4.306 2.72l-.282 0c-2.612 0-4.737-2.094-4.737-4.669 0-2.003 1.293-3.779 3.218-4.421.372-.148 4.583-1.811 9.588-3.617l1.283-2.798 2.564-5.442c-.056-.133-.112-.266-.166-.399l-4.145-7.816c-.248-.599-.364-1.186-.364-1.791 0-2.801 2.246-5.047 5.006-5.047 2.754 0 5 2.242 5.005 4.996 0 0 .001.051.001.051 0 .606-.116 1.196-.345 1.753l-3.896 8.27c.832 1.873 1.846 3.63 3.16 5.457 3.651-1.153 6.871-1.998 8.468-1.998zm-.007 8.236c2.007 0 3.63-1.623 3.63-3.618 0-1.8-1.12-3.618-3.623-3.618-1.452 0-4.418.773-7.84 1.848.678.89 1.429 1.804 2.267 2.761 1.634 1.866 3.247 2.627 5.566 2.627zm-15.248-3.943c1.908-.679 3.889-1.361 5.786-1.975-1.09-1.542-1.973-3.039-2.715-4.595l-3.071 6.57zm-.876-16.408l3.959 7.465 3.525-7.482c.169-.412.26-.872.26-1.345l-.001-.045c-.004-2.213-1.801-4.007-4.005-4.007-2.209 0-4.006 1.797-4.006 4.006 0 .515.091.975.268 1.408zm-4.829 26.446l3.8-8.284c-4.737 1.725-8.568 3.237-8.657 3.272-1.542.516-2.56 1.912-2.56 3.483 0 2.023 1.677 3.669 3.737 3.669l.282 0c1.457 0 2.791-.84 3.398-2.14z" fill="#000" fill-rule="evenodd"/></svg>