<svg width="12" height="12" viewBox="0 0 12 12" xmlns="http://www.w3.org/2000/svg"><title>sources-and-media/file-locked_12</title><path d="M10.759 3.417c.156.157.241.363.241.583l0 6.5c0 .827-.673 1.5-1.5 1.5l-7 0c-.827 0-1.5-.673-1.5-1.5l0-9C1 .673 1.673 0 2.5 0L6 0l1 0c.219 0 .426.085.582.24l3.177 3.177zM10 10.5L10 5 7.5 5C6.673 5 6 4.327 6 3.5L6 1 2.5 1c-.276 0-.5.224-.5.5l0 9c0 .276.224.5.5.5l7 0c.276 0 .5-.224.5-.5zM7 1.073L7 3.5c0 .276.225.5.5.5l2.427 0L7 1.073zM6 5c.275 0 .5.225.5.5l0 2c0 .275-.225.5-.5.5-.275 0-.5-.225-.5-.5l0-2c0-.275.225-.5.5-.5zm0 4c.275 0 .5.225.5.5 0 .275-.225.5-.5.5-.275 0-.5-.225-.5-.5 0-.275.225-.5.5-.5z" fill="#000" fill-rule="evenodd"/></svg>