<svg width="16" height="16" viewBox="0 0 16 16" xmlns="http://www.w3.org/2000/svg"><title>activities/files_16</title><path d="M15 6L1 6l0-3c0-.551.449-1 1-1l2.627 0c.132 0 .261.053.354.146l.415.415c.283.283.66.439 1.06.439L14 3c.551 0 1 .449 1 1l0 2zm0 7c0 .551-.449 1-1 1L2 14c-.551 0-1-.449-1-1l0-6 14 0 0 6zM14 2L6.456 2c-.133 0-.259-.052-.354-.146l-.414-.415C5.405 1.156 5.028 1 4.627 1L2 1C.897 1 0 1.897 0 3l0 10c0 1.103.897 2 2 2l12 0c1.103 0 2-.897 2-2l0-9c0-1.103-.897-2-2-2z" fill="#000" fill-rule="evenodd"/></svg>