<svg width="12" height="12" viewBox="0 0 12 12" xmlns="http://www.w3.org/2000/svg"><title>sources-and-media/file-zip_12</title><path d="M10.759 3.417c.156.157.241.363.241.583l0 6.5c0 .827-.673 1.5-1.5 1.5l-7 0c-.827 0-1.5-.673-1.5-1.5l0-9C1 .673 1.673 0 2.5 0L6 0l1 0c.219 0 .426.085.582.24l3.177 3.177zM10 10.5l0-6.428L6.928 1 6 1 4 1l0 1.5c0 .275-.225.5-.5.5-.275 0-.5-.225-.5-.5L3 1l-.5 0c-.275 0-.5.225-.5.5l0 9c0 .275.225.5.5.5l7 0c.275 0 .5-.225.5-.5zM3.5 4c.275 0 .5.225.5.5l0 1c0 .275-.225.5-.5.5-.275 0-.5-.225-.5-.5l0-1c0-.275.225-.5.5-.5zm0 3c.275 0 .5.225.5.5l0 1c0 .275-.225.5-.5.5-.275 0-.5-.225-.5-.5l0-1c0-.275.225-.5.5-.5z" fill="#000" fill-rule="evenodd"/></svg>