<svg width="32" height="32" viewBox="0 0 32 32" xmlns="http://www.w3.org/2000/svg"><title>sources-and-media/file-text_32</title><path d="M15.5 26c.276 0 .5.224.5.5 0 .276-.224.5-.5.5l-6 0c-.276 0-.5-.224-.5-.5 0-.276.224-.5.5-.5l6 0zm7-6c.276 0 .5.224.5.5 0 .276-.224.5-.5.5l-13 0c-.276 0-.5-.224-.5-.5 0-.276.224-.5.5-.5l13 0zM9 14.5c0-.276.224-.5.5-.5l13 0c.276 0 .5.224.5.5 0 .276-.224.5-.5.5l-13 0c-.276 0-.5-.224-.5-.5zM6.9996 1c-1.1045695 0-2 .8954305-2 2l0 26c0 1.1045695.8954305 2 2 2l18 0c1.1045695 0 2-.8954305 2-2l0-18.7573593c0-.53043299-.2107137-1.03914082-.5857864-1.41421358l-7.2426407-7.24264068C18.7961001 1.21071368 18.2873923 1 17.7569593 1L6.9996 1zm0-1l10.7573593 0c.7956495 0 1.5587112.316070521 2.1213204.878679656l7.2426406 7.242640684c.5626092.56260914.8786797 1.32567088.8786797 2.12132036L27.9996 29c0 1.6568542-1.3431458 3-3 3l-18 0c-1.65685425 0-3-1.3431458-3-3l0-26c0-1.65685425 1.34314575-3 3-3z" fill="#000" fill-rule="evenodd"/></svg>