<svg width="24" height="24" viewBox="0 0 24 24" xmlns="http://www.w3.org/2000/svg"><title>sources-and-media/file-image_24</title><path d="M18.5 23l-13 0c-.827 0-1.5-.673-1.5-1.5l0-4.157 4.665-4.663c.894-.893 2.348-.893 3.233-.008L20 21.115l0 .385c0 .827-.673 1.5-1.5 1.5M5.5 1l8.333 0c.042 0 .088.019.118.049l6 6c.033.033.049.07.049.117l0 12.505-7.388-7.698c-1.283-1.284-3.371-1.284-4.654 0L4 15.929 4 2.5C4 1.673 4.673 1 5.5 1m15.158 5.342c.221.221.342.512.342.824L21 21.5c0 1.379-1.121 2.5-2.5 2.5l-13 0C4.121 24 3 22.879 3 21.5l0-19C3 1.121 4.121 0 5.5 0l8.333 0c.308 0 .608.125.825.342l6 6zM17 10c.551 0 1 .449 1 1 0 .551-.449 1-1 1-.551 0-1-.449-1-1 0-.551.449-1 1-1zm0 3c1.103 0 2-.897 2-2 0-1.103-.897-2-2-2-1.103 0-2 .897-2 2 0 1.103.897 2 2 2z" fill="#000" fill-rule="evenodd"/></svg>