<?xml version="1.0" encoding="UTF-8"?>
<svg width="24px" height="24px" viewBox="0 0 24 24" version="1.1" xmlns="http://www.w3.org/2000/svg" xmlns:xlink="http://www.w3.org/1999/xlink">
    <!-- Generator: Sketch 60.1 (88133) - https://sketch.com -->
    <title>sources-and-media/file-onenote-active_24</title>
    <desc>Created with Sketch.</desc>
    <g id="sources-and-media/file-onenote-active_24" stroke="none" stroke-width="1" fill="none" fill-rule="evenodd">
        <path d="M14.658,0.342244 L20.658,6.34224 C20.878,6.56224 21,6.85424 21,7.16624 L21,21.5002 C21,22.8792 19.878,24.0002 18.5,24.0002 L5.5,24.0002 C4.122,24.0002 3,22.8792 3,21.5002 L3,2.50024414 C3,1.12124 4.122,0.000244141 5.5,0.000244141 L13.833,0.000244141 C14.145,0.000244141 14.438,0.121244 14.658,0.342244 Z M15.3373,18.9162 L15.3373,8.98024 L16.4733,8.98024 L16.4733,20.5002 L14.9213,20.5002 L8.69725,10.4842 L8.69725,20.5002 L7.54525,20.5002 L7.54525,8.98024 L9.16125,8.98024 L15.3373,18.9162 Z" id="Shape" fill="#171B1F"></path>
    </g>
</svg>