<?xml version="1.0" encoding="UTF-8"?>
<svg width="36px" height="36px" viewBox="0 0 36 36" version="1.1" xmlns="http://www.w3.org/2000/svg" xmlns:xlink="http://www.w3.org/1999/xlink">
    <!-- Generator: Sketch 60.1 (88133) - https://sketch.com -->
    <title>sources-and-media/file-powerpoint-active_36</title>
    <desc>Created with Sketch.</desc>
    <g id="sources-and-media/file-powerpoint-active_36" stroke="none" stroke-width="1" fill="none" fill-rule="evenodd">
        <path d="M22.369,0.879 L30.121,8.631 C30.684,9.193 31,9.957 31,10.752 L31,32.5 C31,34.433 29.433,36 27.5,36 L8.5,36 C6.567,36 5,34.433 5,32.5 L5,3.5 C5,1.567 6.567,0 8.5,0 L20.248,0 C21.043,0 21.807,0.316 22.369,0.879 Z M13.84221,28.5 L13.84221,15.54 L18.1982,15.54 C21.1142,15.54 22.7882,17.034 22.7882,19.608 C22.7882,22.056 20.9342,23.532 18.1442,23.532 L14.85021,23.532 L14.85021,28.5 L13.84221,28.5 Z M21.7262,19.608 C21.7262,17.61 20.4482,16.404 18.2342,16.404 L14.85021,16.404 L14.85021,22.65 L18.1622,22.65 C20.4302,22.65 21.7262,21.516 21.7262,19.608 Z" id="Shape" fill="#171B1F"></path>
    </g>
</svg>