<svg width="44" height="44" viewBox="0 0 44 44" xmlns="http://www.w3.org/2000/svg"><title>sources-and-media/file-audio_44</title><path d="M38 40c0 1.654-1.346 3-3 3L9 43c-1.654 0-3-1.346-3-3l0-17c2.366 0 3.592 2.3 4.89 4.735C12.27 30.323 13.696 33 16.662 33c3.042 0 4.433-2.679 5.778-5.27 1.263-2.432 2.456-4.73 4.891-4.73 2.367 0 3.594 2.3 4.894 4.735C33.605 30.323 35.033 33 38 33l0 7zM6 4c0-1.654 1.346-3 3-3l16.809 0c.202 0 .4.082.543.225l11.423 11.381c.143.143.225.341.225.542L38 32c-2.367 0-3.594-2.3-4.894-4.735C31.726 24.677 30.298 22 27.331 22c-3.042 0-4.434 2.679-5.778 5.27C20.29 29.702 19.097 32 16.662 32c-2.366 0-3.592-2.3-4.89-4.735C10.393 24.677 8.966 22 6 22L6 4zm32.481 7.898L27.058.517C26.725.184 26.281 0 25.809 0L9 0C6.794 0 5 1.794 5 4l0 36c0 2.206 1.794 4 4 4l26 0c2.206 0 4-1.794 4-4l0-26.852c0-.464-.189-.92-.519-1.25z" fill-rule="evenodd"/></svg>