<?xml version="1.0" encoding="UTF-8"?>
<svg width="32px" height="32px" viewBox="0 0 32 32" version="1.1" xmlns="http://www.w3.org/2000/svg" xmlns:xlink="http://www.w3.org/1999/xlink">
    <!-- Generator: Sketch 60.1 (88133) - https://sketch.com -->
    <title>sources-and-media/file-pdf_32</title>
    <desc>Created with Sketch.</desc>
    <g id="sources-and-media/file-pdf_32" stroke="none" stroke-width="1" fill="none" fill-rule="evenodd">
        <path d="M16.5691,12.5225 C16.5158,11.8979 16.3558,11.395 16.0931,11.0411 C15.7749,10.6126 15.2968,10.4061 14.7951,10.5405 C14.3358,10.6635 13.97475,11.0415 13.74368,11.5088 C13.50738,11.9866 13.37731,12.6091 13.40167,13.3369 L13.40166,13.3369 L13.40183,13.341 C13.47122,15.001 13.82213,16.1073 14.4067,17.0932 C14.4887,17.2314 14.5757,17.3676 14.6672,17.5028 C14.4413,18.0452 14.1901,18.5852 13.93172,19.1406 C13.80039,19.4229 13.66722,19.7092 13.53456,20.0019 L13.5344,20.0022 C13.25108,20.6285 12.82294,21.509 12.32285,22.4474 C10.55596,23.067 9.08873,23.9772 7.8463,25.3735 C7.39578,25.8737 7.12362,26.3793 7.03329,26.852 C6.94247,27.3273 7.03517,27.7999 7.3605,28.1307 C7.6868,28.4625 8.15545,28.5581 8.61963,28.4676 C9.07973,28.3779 9.56011,28.1063 10.01727,27.6657 C10.82555,26.9069 11.73066,25.5278 12.51926,24.1577 C12.68939,23.8621 12.85558,23.5643 13.01583,23.2697 C13.89208,22.9897 14.8594,22.7745 15.9348,22.6016 C16.6848,22.4863 17.6313,22.3773 18.623,22.3282 C18.9706,22.6995 19.3043,23.0324 19.6255,23.3264 C20.5174,24.1429 21.3503,24.6954 22.147,24.911 L22.1484,24.9114 C23.2861,25.2158 24.3584,24.9307 24.8084,24.195 C25.044,23.8098 25.069,23.3436 24.8461,22.913 C24.633,22.5011 24.2191,22.1662 23.6575,21.9225 C22.5644,21.4481 21.0962,21.301 19.6855,21.301 C19.472,21.301 19.2585,21.3044 19.0462,21.3107 C18.5345,20.7436 17.9851,20.0863 17.3934,19.3368 L17.3927,19.3358 C17.1098,18.9793 16.8487,18.664 16.6077,18.373 C16.308,18.011 16.0395,17.6867 15.7993,17.368 C16.3438,15.9407 16.7153,14.3929 16.5771,12.522 L16.5691,12.5225 Z M15.3596,18.4284 C15.1891,18.8137 15.0117,19.1936 14.8348,19.5725 C14.7037,19.8532 14.5729,20.1333 14.4453,20.4147 C14.2445,20.8587 13.97435,21.4239 13.65868,22.046 C14.3255,21.8753 15.0308,21.7341 15.7778,21.614 L15.7811,21.6135 L15.7811,21.6135 C16.3547,21.5253 17.0406,21.4403 17.7771,21.3813 C17.4031,20.9452 17.0142,20.4702 16.6089,19.9569 C16.3636,19.6477 16.123,19.357 15.8913,19.0772 C15.7077,18.8553 15.5298,18.6403 15.3596,18.4284 Z M15.1132,16.3084 C15.4564,15.2473 15.659,14.1306 15.5946,12.8344 L15.5862,12.8346 C15.564,12.1847 15.4219,11.8147 15.2902,11.6372 C15.1759,11.4833 15.0972,11.4948 15.0538,11.5064 C14.9679,11.5294 14.7953,11.6382 14.6401,11.9521 C14.4902,12.255 14.3814,12.7072 14.401,13.3014 C14.4578,14.6526 14.7125,15.5465 15.1132,16.3084 Z M19.9983,22.3036 C20.1008,22.403 20.2016,22.4981 20.3007,22.5888 C21.1484,23.3648 21.8393,23.7916 22.4077,23.9456 C23.3138,24.1878 23.8279,23.8817 23.9553,23.6733 C24.0085,23.5864 24.02,23.4923 23.958,23.3726 C23.8863,23.2341 23.6942,23.0285 23.2594,22.8398 C22.4285,22.4792 21.2563,22.325 19.9983,22.3036 Z M11.54629,23.8423 C10.40395,24.3807 9.43767,25.0891 8.59239,26.0393 L8.59026,26.0417 L8.59025,26.0417 C8.22223,26.4501 8.0621,26.7959 8.01551,27.0397 C7.96934,27.2813 8.03531,27.3907 8.07344,27.4295 C8.1106,27.4673 8.21022,27.5286 8.42822,27.4861 C8.64941,27.443 8.96417,27.2924 9.3254,26.9437 L9.33069,26.9386 L9.33073,26.9386 C9.98908,26.3215 10.78764,25.1427 11.54629,23.8423 Z M17.7574,1 L7,1 C5.89543,1 5,1.89543 5,3 L5,29 C5,30.1046 5.89543,31 7,31 L25,31 C26.1046,31 27,30.1046 27,29 L27,10.2426 C27,9.71221 26.7893,9.2035 26.4142,8.82843 L19.1716,1.58579 C18.7965,1.21071 18.2878,1 17.7574,1 Z M17.7574,0 L7,0 C5.34315,0 4,1.34315 4,3 L4,29 C4,30.6569 5.34315,32 7,32 L25,32 C26.6569,32 28,30.6569 28,29 L28,10.2426 C28,9.44699 27.6839,8.68393 27.1213,8.12132 L19.8787,0.87868 C19.3161,0.31607 18.553,0 17.7574,0 Z" id="Shape" fill="#171B1F"></path>
    </g>
</svg>