<svg width="44" height="44" viewBox="0 0 44 44" xmlns="http://www.w3.org/2000/svg"><title>sources-and-media/file-image_44</title><path d="M35 43L9 43c-1.654 0-3-1.346-3-3l0-8.095 9.468-9.478c.889-.891 2.071-1.381 3.327-1.381 1.257 0 2.438.49 3.32 1.373l15.799 16.473c.025.026.057.04.086.059L38 40c0 1.654-1.346 3-3 3M9 1l16.809 0c.205 0 .398.08.544.225l11.422 11.382c.145.145.225.337.225.541l0 24.388L22.83 21.72c-1.077-1.079-2.511-1.674-4.035-1.674-1.524 0-2.957.595-4.034 1.674L6 30.49 6 4c0-1.654 1.346-3 3-3m29.48 10.898c.331.33.52.785.52 1.25L39 40c0 2.206-1.794 4-4 4L9 44c-2.206 0-4-1.794-4-4L5 4c0-2.206 1.794-4 4-4l16.809 0c.471 0 .915.184 1.249.516L38.48 11.898zM30.5 16c1.379 0 2.5 1.121 2.5 2.5 0 1.379-1.121 2.5-2.5 2.5-1.379 0-2.5-1.121-2.5-2.5 0-1.379 1.121-2.5 2.5-2.5zm0 6c1.933 0 3.5-1.567 3.5-3.5 0-1.933-1.567-3.5-3.5-3.5-1.933 0-3.5 1.567-3.5 3.5 0 1.933 1.567 3.5 3.5 3.5z" fill-rule="evenodd"/></svg>