<?xml version="1.0" encoding="UTF-8"?>
<svg width="32px" height="32px" viewBox="0 0 32 32" version="1.1" xmlns="http://www.w3.org/2000/svg" xmlns:xlink="http://www.w3.org/1999/xlink">
    <!-- Generator: Sketch 60.1 (88133) - https://sketch.com -->
    <title>sources-and-media/file-excel_32</title>
    <desc>Created with Sketch.</desc>
    <g id="sources-and-media/file-excel_32" stroke="none" stroke-width="1" fill="none" fill-rule="evenodd">
        <path d="M7,1 L17.7574,1 C18.2878,1 18.7965,1.21071 19.1716,1.58579 L26.4142,8.82843 C26.7893,9.2035 27,9.71221 27,10.2426 L27,29 C27,30.1046 26.1046,31 25,31 L7,31 C5.89543,31 5,30.1046 5,29 L5,3 C5,1.89543 5.89543,1 7,1 Z M7,0 L17.7574,0 C18.553,0 19.3161,0.31607 19.8787,0.87868 L27.1213,8.12132 C27.6839,8.68393 28,9.44699 28,10.2426 L28,29 C28,30.6569 26.6569,32 25,32 L7,32 C5.34315,32 4,30.6569 4,29 L4,3 C4,1.34315 5.34315,0 7,0 Z M19.9125,12.5402 L21.0465,12.5402 L16.6185,18.7862 L21.2085,25.5002 L19.9845,25.5002 L16.0065,19.5782 L11.95647,25.5002 L10.78647,25.5002 L15.4125,18.7862 L11.12847,12.5402 L12.33447,12.5402 L16.0605,18.0122 L19.9125,12.5402 Z" id="Shape" fill="#171B1F"></path>
    </g>
</svg>