<svg width="24" height="24" viewBox="0 0 24 24" xmlns="http://www.w3.org/2000/svg"><title>sources-and-media/file-sketch_24</title><path d="M20 21.5L20 7l-6-6-8.5 0C4.673 1 4 1.673 4 2.5l0 19c0 .827.673 1.5 1.5 1.5l13 0c.827 0 1.5-.673 1.5-1.5zm.658-15.158c.22.22.342.512.342.824L21 21.5c0 1.379-1.122 2.5-2.5 2.5l-13 0C4.122 24 3 22.879 3 21.5l0-19C3 1.121 4.122 0 5.5 0l8.333 0c.312 0 .605.121.825.342l6 6zm-5.0096 7.66l-.652-.82 0 .82.652 0zm-2.063 3.44l2.263-2.41c.009-.009.012-.02.02-.03l-1.064 0-1.219 2.44zm-5.454-2.44c.008.01.011.021.02.03l2.261 2.408-1.22-2.438-1.061 0zm.87-1.816l-.65.816.65 0 0-.816zm4.995-.081l0-.883-.799-.09.799.973zm-3.42.897l2.863 0-1.415-1.722-1.448 1.722zm-.575-1.78l0 .909.846-1.007-.846.098zm1.999 6.156l1.687-3.376-3.377 0 1.69 3.376zm.033-7.38l.07.006 2.034.227c.413.045.784.25 1.044.577l1.479 1.86c.482.604.446 1.484-.083 2.048l-3.636 3.872c-.243.26-.586.408-.941.408-.356 0-.699-.148-.942-.408l-3.636-3.872c-.529-.564-.565-1.444-.083-2.048l1.478-1.859c.26-.327.631-.533 1.045-.578l2.118-.237.049.004.003 0 .001 0z" fill-rule="evenodd"/></svg>