<svg width="24" height="24" viewBox="0 0 24 24" xmlns="http://www.w3.org/2000/svg"><title>sources-and-media/file-video_24</title><path d="M13.833 0L5.5 0C4.121 0 3 1.121 3 2.5l0 19C3 22.879 4.121 24 5.5 24l13 0c1.379 0 2.5-1.121 2.5-2.5l0-14.334c0-.312-.121-.604-.342-.824l-6-6C14.441.125 14.141 0 13.833 0m0 1c.042 0 .088.019.118.049l6 6c.033.033.049.07.049.117L20 21.5c0 .827-.673 1.5-1.5 1.5l-13 0c-.827 0-1.5-.673-1.5-1.5l0-19C4 1.673 4.673 1 5.5 1l8.333 0zM9.3057 11.9995c.053 0 .104.012.152.035l5.391 2.752c.129.064.148.161.148.213 0 .053-.019.15-.154.217l-5.379 2.746c-.111.055-.241.049-.345-.015-.045-.029-.122-.092-.122-.198l0-5.499c0-.106.077-.169.122-.198.058-.035.123-.053.187-.053zm-.004 7.001c.207 0 .416-.048.611-.145l5.379-2.746c.436-.215.705-.641.705-1.11 0-.468-.269-.894-.699-1.106l-5.39-2.752c-.422-.211-.915-.187-1.316.062-.372.231-.595.622-.595 1.047l0 5.499c0 .425.223.816.595 1.047.218.136.463.204.71.204z" fill="#000" fill-rule="evenodd"/></svg>