<svg width="24" height="24" viewBox="0 0 24 24" xmlns="http://www.w3.org/2000/svg"><title>sources-and-media/file-graph_24</title><path d="M16 15c0 2.206-1.794 4-4 4-2.206 0-4-1.794-4-4 0-2.206 1.794-4 4-4l0 3c0 .552.448 1 1 1l3 0zm-3-4.901c1.967.397 3.504 1.934 3.901 3.901L13 14l0-3.901zm7.658-3.757c.22.22.342.512.342.824L21 21.5c0 1.379-1.122 2.5-2.5 2.5l-13 0C4.122 24 3 22.879 3 21.5l0-19C3 1.121 4.122 0 5.5 0l8.333 0c.312 0 .605.121.825.342l6 6zM20 21.5L20 7l-6-6-8.5 0C4.673 1 4 1.673 4 2.5l0 19c0 .827.673 1.5 1.5 1.5l13 0c.827 0 1.5-.673 1.5-1.5zM12.486 9.021c.013 0 .027.001.04.002 2.894.251 5.2 2.557 5.451 5.451.025.285-.217.526-.503.526L17 15c0 2.761-2.239 5-5 5-2.761 0-5-2.239-5-5 0-2.761 2.239-5 5-5l0-.474c0-.273.219-.505.486-.505z" fill="#000" fill-rule="evenodd"/></svg>