<?xml version="1.0" encoding="UTF-8"?>
<svg width="40px" height="40px" viewBox="0 0 40 40" version="1.1" xmlns="http://www.w3.org/2000/svg" xmlns:xlink="http://www.w3.org/1999/xlink">
    <!-- Generator: Sketch 60.1 (88133) - https://sketch.com -->
    <title>sources-and-media/file-excel-active_40</title>
    <desc>Created with Sketch.</desc>
    <g id="sources-and-media/file-excel-active_40" stroke="none" stroke-width="1" fill="none" fill-rule="evenodd">
        <path d="M8.833,40 L31.164,40 C33.278,40 34.998,38.28 34.998,36.167 L34.998,11.611 C34.998,11.181 34.83,10.776 34.525,10.472 L24.525,0.471 C24.22,0.167 23.816,0 23.386,0 L8.833,0 C6.719,0 5,1.72 5,3.833 L5,36.167 C5,38.28 6.719,40 8.833,40 Z M25.9319,16.28 L26.9979,16.28 L20.6539,25.328 L27.2319,35 L26.0879,35 L20.0039,26.03 L13.89386,35 L12.77586,35 L19.4319,25.276 L13.29586,16.28 L14.43986,16.28 L20.0819,24.574 L25.9319,16.28 Z" id="Shape" fill="#171B1F"></path>
    </g>
</svg>