<svg width="28" height="28" viewBox="0 0 28 28" xmlns="http://www.w3.org/2000/svg"><title>sources-and-media/file-image_28</title><path d="M24 24.1646l-9.623-10.018c-.764-.764-1.768-1.147-2.772-1.147-1.004 0-2.008.383-2.773 1.147L4 18.9776l0-15.978c0-1.102.897-2 2-2l10.172 0c.263 0 .52.107.707.293l6.828 6.829c.186.186.293.443.293.707l0 15.336zm-2 2.835l-16 0c-1.103 0-2-.897-2-2l0-4.609 5.539-5.537c.57-.57 1.32-.855 2.068-.855.747 0 1.492.284 2.057.848l10.257 10.678c-.232.848-1.001 1.475-1.921 1.475zm2.414-19.585c.375.375.586.883.586 1.414l0 16.171c0 1.658-1.343 3-3 3l-16 0c-1.657 0-3-1.342-3-3l0-22c0-1.657 1.343-3 3-3l10.172 0c.53 0 1.039.211 1.414.586l6.828 6.829zM19.5 14c-.827 0-1.5-.673-1.5-1.5 0-.827.673-1.5 1.5-1.5.827 0 1.5.673 1.5 1.5 0 .827-.673 1.5-1.5 1.5zm0-4c-1.379 0-2.5 1.121-2.5 2.5 0 1.379 1.121 2.5 2.5 2.5 1.379 0 2.5-1.121 2.5-2.5 0-1.379-1.121-2.5-2.5-2.5z" fill="#000" fill-rule="evenodd"/></svg>