<svg width="32" height="32" viewBox="0 0 32 32" xmlns="http://www.w3.org/2000/svg"><title>sources-and-media/file-video_32</title><path d="M6.9996 0l10.7573593 0c.7956495 0 1.5587112.316070521 2.1213204.878679656l7.2426406 7.242640684c.5626092.56260914.8786797 1.32567088.8786797 2.12132036L27.9996 29c0 1.6568542-1.3431458 3-3 3l-18 0c-1.65685425 0-3-1.3431458-3-3l0-26c0-1.65685425 1.34314575-3 3-3zm0 1c-1.1045695 0-2 .8954305-2 2l0 26c0 1.1045695.8954305 2 2 2l18 0c1.1045695 0 2-.8954305 2-2l0-18.7573593c0-.53043299-.2107137-1.03914082-.5857864-1.41421358l-7.2426407-7.24264068C18.7961001 1.21071368 18.2873923 1 17.7569593 1L6.9996 1zm4.6964 14.24c.472-.294 1.053-.321 1.553-.073l6.929 3.537c.505.25.822.748.822 1.296 0 .548-.317 1.046-.828 1.299l-6.917 3.532c-.231.113-.476.17-.72.17-.292 0-.582-.081-.84-.241-.435-.271-.695-.729-.695-1.225l0-7.07c0-.496.261-.954.696-1.225zM20 20c0-.17-.099-.317-.271-.402L12.8 16.06c-.082-.04-.171-.061-.261-.061-.109 0-.219.03-.315.09-.083.053-.224.17-.224.376l0 7.07c0 .206.14.323.224.376.176.11.396.118.582.027l6.917-3.533c.178-.088.277-.235.277-.405z" fill="#000" fill-rule="evenodd"/></svg>