<svg width="12" height="12" viewBox="0 0 12 12" xmlns="http://www.w3.org/2000/svg"><title>sources-and-media/file-image_12</title><path d="M10.759 3.417c.156.157.241.363.241.583l0 6.5c0 .827-.673 1.5-1.5 1.5l-7 0c-.827 0-1.5-.673-1.5-1.5l0-9C1 .673 1.673 0 2.5 0L6 0l1 0c.219 0 .426.085.582.24l3.177 3.177zM2 10.5c0 .275.225.5.5.5l6.79 0-3.617-3.766c-.32-.32-.91-.326-1.244.008l-2.35 2.35c-.023.022-.053.034-.079.052l0 .856zM2.5 1c-.275 0-.5.225-.5.5l0 6.756 1.722-1.721c.713-.713 1.954-.713 2.665 0L10 10.296l0-6.224L6.928 1 6 1 2.5 1zM8 6c-.553 0-1-.447-1-1 0-.553.447-1 1-1 .553 0 1 .447 1 1 0 .553-.447 1-1 1z" fill="#000" fill-rule="evenodd"/></svg>