<svg width="24" height="24" viewBox="0 0 24 24" xmlns="http://www.w3.org/2000/svg"><title>sources-and-media/file-zip_24</title><path d="M20.658 6.342c.22.22.342.512.342.824L21 21.5c0 1.379-1.122 2.5-2.5 2.5l-13 0C4.122 24 3 22.879 3 21.5l0-19C3 1.121 4.122 0 5.5 0l8.333 0c.312 0 .605.121.825.342l6 6zM20 21.5L20 7l-6-6-6 0 0 1.498c0 .276-.224.5-.5.5-.276 0-.5-.224-.5-.5L7 1 5.5 1C4.673 1 4 1.673 4 2.5l0 19c0 .827.673 1.5 1.5 1.5l13 0c.827 0 1.5-.673 1.5-1.5zM7.5002 5c.276 0 .5.224.5.5l0 1.998c0 .276-.224.5-.5.5-.277 0-.501-.224-.501-.5l0-1.998c0-.276.224-.5.501-.5zm0 5.0022c.276 0 .5.224.5.5l0 1.998c0 .276-.224.5-.5.5-.277 0-.501-.224-.501-.5l0-1.998c0-.276.224-.5.501-.5zM7.5 15.0032c.276 0 .5.224.5.5l0 1.997c0 .276-.224.5-.5.5-.276 0-.5-.224-.5-.5l0-1.997c0-.276.224-.5.5-.5z" fill="#000" fill-rule="evenodd"/></svg>