<?xml version="1.0" encoding="UTF-8"?>
<svg width="24px" height="24px" viewBox="0 0 24 24" version="1.1" xmlns="http://www.w3.org/2000/svg" xmlns:xlink="http://www.w3.org/1999/xlink">
    <!-- Generator: Sketch 60.1 (88133) - https://sketch.com -->
    <title>sources-and-media/file-pdf_24</title>
    <desc>Created with Sketch.</desc>
    <g id="sources-and-media/file-pdf_24" stroke="none" stroke-width="1" fill="none" fill-rule="evenodd">
        <path d="M13.9509,1.04886 L13.9493,1.04726 C13.9182,1.016 13.8807,0.999756 13.833,0.999756 L5.5,0.999756 C4.67402,0.999756 4,1.6733 4,2.499756 L4,21.4998 C4,22.3262 4.67402,22.9998 5.5,22.9998 L18.5,22.9998 C19.326,22.9998 20,22.3262 20,21.4998 L20,7.16576 C20,7.12088 19.9847,7.08268 19.9509,7.04886 L13.9509,1.04886 Z M14.658,0.341756 C14.438,0.120756 14.145,-0.000244141 13.833,-0.000244141 L5.5,-0.000244141 C4.122,-0.000244141 3,1.12076 3,2.49975586 L3,21.4998 C3,22.8788 4.122,23.9998 5.5,23.9998 L18.5,23.9998 C19.878,23.9998 21,22.8788 21,21.4998 L21,7.16576 C21,6.85376 20.878,6.56176 20.658,6.34176 L14.658,0.341756 Z M11.56685,9.79969 L11.5609,9.79988 C11.54576,9.35647 11.44906,9.12916 11.38085,9.03729 C11.37023,9.02298 11.36133,9.01325 11.35459,9.00679 C11.32309,9.02486 11.24878,9.08154 11.17186,9.23707 C11.07883,9.42519 11.00519,9.71924 11.01828,10.1188 C11.04918,10.8537 11.16413,11.3874 11.34394,11.8331 C11.51361,11.207 11.60432,10.547 11.56685,9.79969 Z M12.54841,9.56367 C12.50943,9.10518 12.39104,8.72039 12.18378,8.44121 C11.92923,8.09832 11.533,7.92054 11.11147,8.0334 C10.7323,8.13491 10.44975,8.44141 10.27548,8.79377 C10.09599,9.15672 10.00106,9.62106 10.01891,10.1543 L10.01889,10.1543 L10.01907,10.1584 C10.06892,11.3511 10.32216,12.1563 10.74886,12.8759 C10.79469,12.9532 10.84277,13.0297 10.89287,13.1057 C10.74304,13.4601 10.5778,13.8156 10.40708,14.1829 C10.31439,14.3824 10.22009,14.5853 10.12575,14.7934 L10.12559,14.7937 C9.93188,15.2219 9.64126,15.8203 9.30137,16.4608 C8.06001,16.9042 7.01911,17.5541 6.13488,18.5477 C5.80481,18.9143 5.59629,19.2946 5.52611,19.6619 C5.45544,20.0317 5.52481,20.4188 5.79669,20.6952 C6.06954,20.9726 6.45461,21.0452 6.81847,20.9743 C7.17821,20.9041 7.54153,20.6947 7.87828,20.3704 C8.46621,19.8181 9.1141,18.8276 9.67046,17.861 C9.78113,17.6687 9.88945,17.4751 9.99432,17.2831 C10.58911,17.097 11.24594,16.952 11.97673,16.8345 C12.48514,16.7564 13.122,16.6824 13.7911,16.6466 C14.0219,16.8912 14.2446,17.1123 14.4599,17.3093 C15.0959,17.8915 15.7047,18.3 16.3007,18.4613 L16.3021,18.4617 C17.1391,18.6856 17.9781,18.4876 18.3432,17.8907 C18.5363,17.5749 18.5559,17.1911 18.3749,16.8414 C18.2037,16.5104 17.8789,16.255 17.4638,16.0749 C16.6638,15.7277 15.6026,15.6241 14.6015,15.6241 C14.4722,15.6241 14.3429,15.6258 14.2141,15.6291 C13.8688,15.2436 13.4981,14.799 13.099,14.2935 L13.0982,14.2925 C12.8927,14.0335 12.7054,13.8073 12.53417,13.6005 C12.34588,13.3731 12.17702,13.1692 12.02469,12.9709 C12.39803,11.971 12.65107,10.8766 12.55404,9.56338 L12.54841,9.56367 Z M11.58453,14.0219 C11.49402,14.2213 11.40185,14.4186 11.31016,14.6148 C11.21773,14.8126 11.12579,15.0093 11.03654,15.2062 C10.92525,15.4522 10.78417,15.7503 10.62122,16.0789 C11.00392,15.9902 11.40313,15.9138 11.8198,15.8469 L11.82312,15.8464 L11.82312,15.8464 C12.15608,15.7952 12.54245,15.7454 12.95835,15.7061 C12.75003,15.4578 12.53554,15.1936 12.31449,14.9136 C12.14651,14.7019 11.97972,14.5004 11.81777,14.3047 C11.73873,14.2092 11.66084,14.1151 11.58453,14.0219 Z M15.2095,16.639 C15.766,17.1369 16.209,17.4003 16.5611,17.4958 C17.1667,17.6577 17.4475,17.4385 17.4901,17.3689 C17.5008,17.3515 17.5069,17.3398 17.4868,17.301 C17.457,17.2434 17.354,17.1173 17.0658,16.9923 C16.5891,16.7854 15.936,16.6763 15.2095,16.639 Z M8.46482,17.9327 C7.86832,18.2704 7.34762,18.689 6.88098,19.2136 L6.87884,19.216 L6.87883,19.216 C6.63128,19.4907 6.53478,19.7112 6.50834,19.8496 C6.49133,19.9386 6.50364,19.9796 6.50994,19.993 C6.52227,19.9982 6.55628,20.0066 6.62707,19.9927 C6.74793,19.9692 6.94562,19.8808 7.18638,19.6484 L7.19167,19.6433 L7.19171,19.6433 C7.56619,19.2923 8.01515,18.6648 8.46482,17.9327 Z" id="Shape" fill="#171B1F"></path>
    </g>
</svg>