<?xml version="1.0" encoding="UTF-8"?>
<svg width="40px" height="40px" viewBox="0 0 40 40" version="1.1" xmlns="http://www.w3.org/2000/svg" xmlns:xlink="http://www.w3.org/1999/xlink">
    <!-- Generator: Sketch 60.1 (88133) - https://sketch.com -->
    <title>sources-and-media/file-word-active_40</title>
    <desc>Created with Sketch.</desc>
    <g id="sources-and-media/file-word-active_40" stroke="none" stroke-width="1" fill="none" fill-rule="evenodd">
        <path d="M8.833,40 L31.164,40 C33.278,40 34.998,38.28 34.998,36.167 L34.998,11.611 C34.998,11.181 34.83,10.776 34.525,10.472 L24.525,0.471 C24.22,0.167 23.816,0 23.386,0 L8.833,0 C6.719,0 5,1.72 5,3.833 L5,36.167 C5,38.28 6.719,40 8.833,40 Z M25.9775,34.194 L31.0215,16.28 L31.9575,16.28 L26.6795,35 L25.2495,35 L19.9975,17.06 L14.77146,35 L13.31546,35 L8.03746,16.28 L9.05146,16.28 L14.06946,34.246 L19.3215,16.28 L20.7515,16.28 L25.9775,34.194 Z" id="Shape" fill="#171B1F"></path>
    </g>
</svg>