<?xml version="1.0" encoding="UTF-8"?>
<svg width="24px" height="24px" viewBox="0 0 24 24" version="1.1" xmlns="http://www.w3.org/2000/svg" xmlns:xlink="http://www.w3.org/1999/xlink">
    <!-- Generator: Sketch 60.1 (88133) - https://sketch.com -->
    <title>sources-and-media/file-word-active_24</title>
    <desc>Created with Sketch.</desc>
    <g id="sources-and-media/file-word-active_24" stroke="none" stroke-width="1" fill="none" fill-rule="evenodd">
        <path d="M14.658,0.342244 L20.658,6.34224 C20.878,6.56224 21,6.85424 21,7.16624 L21,21.5002 C21,22.8792 19.878,24.0002 18.5,24.0002 L5.5,24.0002 C4.122,24.0002 3,22.8792 3,21.5002 L3,2.50024414 C3,1.12124 4.122,0.000244141 5.5,0.000244141 L13.833,0.000244141 C14.145,0.000244141 14.438,0.121244 14.658,0.342244 Z M15.4345,18.6502 L17.9695,9.20024 L19.0645,9.20024 L16.1395,20.0002 L14.7145,20.0002 L12.05945,10.4152 L9.35945,20.0002 L7.85945,20.0002 L4.94945,9.20024 L6.14945,9.20024 L8.66945,18.6802 L11.33945,9.20024 L12.85445,9.20024 L15.4345,18.6502 Z" id="Shape" fill="#171B1F"></path>
    </g>
</svg>