<?xml version="1.0" encoding="UTF-8"?>
<svg width="16px" height="16px" viewBox="0 0 16 16" version="1.1" xmlns="http://www.w3.org/2000/svg" xmlns:xlink="http://www.w3.org/1999/xlink">
    <!-- Generator: Sketch 60.1 (88133) - https://sketch.com -->
    <title>sources-and-media/file-text-active_16</title>
    <desc>Created with Sketch.</desc>
    <g id="sources-and-media/file-text-active_16" stroke="none" stroke-width="1" fill="none" fill-rule="evenodd">
        <path d="M9.793,0.293 L13.707,4.207 C13.895,4.395 14,4.648 14,4.914 L14,14 C14,15.105 13.105,16 12,16 L4,16 C2.895,16 2,15.105 2,14 L2,2 C2,0.895 2.895,0 4,0 L9.086,0 C9.351,0 9.605,0.105 9.793,0.293 Z M4.5,10 C4.22386,10 4,10.2239 4,10.5 C4,10.7761 4.22386,11 4.5,11 L11.5,11 C11.77614,11 12,10.7761 12,10.5 C12,10.2239 11.77614,10 11.5,10 L4.5,10 Z M4,13 C4,12.7239 4.22386,12.5 4.5,12.5 L11.5,12.5 C11.77614,12.5 12,12.7239 12,13 C12,13.2761 11.77614,13.5 11.5,13.5 L4.5,13.5 C4.22386,13.5 4,13.2761 4,13 Z M4.5,7.5 C4.22386,7.5 4,7.72386 4,8 C4,8.27614 4.22386,8.5 4.5,8.5 L11.5,8.5 C11.77614,8.5 12,8.27614 12,8 C12,7.72386 11.77614,7.5 11.5,7.5 L4.5,7.5 Z" id="Shape" fill="#171B1F"></path>
    </g>
</svg>