<?xml version="1.0" encoding="UTF-8"?>
<svg width="32px" height="32px" viewBox="0 0 32 32" version="1.1" xmlns="http://www.w3.org/2000/svg" xmlns:xlink="http://www.w3.org/1999/xlink">
    <!-- Generator: Sketch 60.1 (88133) - https://sketch.com -->
    <title>sources-and-media/file-spreadsheet_32</title>
    <desc>Created with Sketch.</desc>
    <g id="sources-and-media/file-spreadsheet_32" stroke="none" stroke-width="1" fill="none" fill-rule="evenodd">
        <path d="M7,1 L17.7574,1 C18.2878,1 18.7965,1.21071 19.1716,1.58579 L26.4142,8.82843 C26.7893,9.2035 27,9.71221 27,10.2426 L27,29 C27,30.1046 26.1046,31 25,31 L7,31 C5.89543,31 5,30.1046 5,29 L5,3 C5,1.89543 5.89543,1 7,1 Z M7,0 L17.7574,0 C18.553,0 19.3161,0.31607 19.8787,0.87868 L27.1213,8.12132 C27.6839,8.68393 28,9.44699 28,10.2426 L28,29 C28,30.6569 26.6569,32 25,32 L7,32 C5.34315,32 4,30.6569 4,29 L4,3 C4,1.34315 5.34315,0 7,0 Z M7,14.5002 C7,14.2241 7.22386,14.0002 7.5,14.0002 L10.5,14.0002 C10.77614,14.0002 11,14.2241 11,14.5002 C11,14.7764 10.77614,15.0002 10.5,15.0002 L7.5,15.0002 C7.22386,15.0002 7,14.7764 7,14.5002 Z M7,19.5002 C7,19.2241 7.22386,19.0002 7.5,19.0002 L10.5,19.0002 C10.77614,19.0002 11,19.2241 11,19.5002 C11,19.7764 10.77614,20.0002 10.5,20.0002 L7.5,20.0002 C7.22386,20.0002 7,19.7764 7,19.5002 Z M7.5,24.0002 C7.22386,24.0002 7,24.2241 7,24.5002 C7,24.7764 7.22386,25.0002 7.5,25.0002 L10.5,25.0002 C10.77614,25.0002 11,24.7764 11,24.5002 C11,24.2241 10.77614,24.0002 10.5,24.0002 L7.5,24.0002 Z M13,14.5002 C13,14.2241 13.22386,14.0002 13.5,14.0002 L24.5,14.0002 C24.7761,14.0002 25,14.2241 25,14.5002 C25,14.7764 24.7761,15.0002 24.5,15.0002 L13.5,15.0002 C13.22386,15.0002 13,14.7764 13,14.5002 Z M13.5,19.0002 C13.22386,19.0002 13,19.2241 13,19.5002 C13,19.7764 13.22386,20.0002 13.5,20.0002 L24.5,20.0002 C24.7761,20.0002 25,19.7764 25,19.5002 C25,19.2241 24.7761,19.0002 24.5,19.0002 L13.5,19.0002 Z M13,24.5002 C13,24.2241 13.22386,24.0002 13.5,24.0002 L24.5,24.0002 C24.7761,24.0002 25,24.2241 25,24.5002 C25,24.7764 24.7761,25.0002 24.5,25.0002 L13.5,25.0002 C13.22386,25.0002 13,24.7764 13,24.5002 Z" id="Shape" fill="#171B1F"></path>
    </g>
</svg>