<svg width="12" height="12" viewBox="0 0 12 12" xmlns="http://www.w3.org/2000/svg"><title>sources-and-media/file-text_12</title><path d="M10.759 3.417c.156.157.241.363.241.583l0 6.5c0 .827-.673 1.5-1.5 1.5l-7 0c-.827 0-1.5-.673-1.5-1.5l0-9C1 .673 1.673 0 2.5 0L6 0l1 0c.219 0 .426.085.582.24l3.177 3.177zM10 10.5l0-6.428L6.928 1 6 1 2.5 1c-.275 0-.5.225-.5.5l0 9c0 .275.225.5.5.5l7 0c.275 0 .5-.225.5-.5zm-6-4c0-.275.225-.5.5-.5l3 0c.275 0 .5.225.5.5 0 .275-.225.5-.5.5l-3 0c-.275 0-.5-.225-.5-.5zM5.5 8c.275 0 .5.225.5.5 0 .275-.225.5-.5.5l-1 0c-.275 0-.5-.225-.5-.5 0-.275.225-.5.5-.5l1 0z" fill="#000" fill-rule="evenodd"/></svg>