<?xml version="1.0" encoding="UTF-8"?>
<svg width="28px" height="28px" viewBox="0 0 28 28" version="1.1" xmlns="http://www.w3.org/2000/svg" xmlns:xlink="http://www.w3.org/1999/xlink">
    <!-- Generator: Sketch 60.1 (88133) - https://sketch.com -->
    <title>sources-and-media/file-pdf-active_28</title>
    <desc>Created with Sketch.</desc>
    <g id="sources-and-media/file-pdf-active_28" stroke="none" stroke-width="1" fill="none" fill-rule="evenodd">
        <path d="M14.5608,10.8385 C14.5132,10.2804 14.3699,9.82477 14.1294,9.50078 C13.8367,9.1065 13.3913,8.91151 12.92167,9.03725 C12.49439,9.15164 12.16475,9.5011 11.9564,9.92239 C11.74282,10.3542 11.62681,10.9135 11.64857,11.5634 L11.64855,11.5634 L11.64872,11.5676 C11.7103,13.0407 12.02214,14.0265 12.54359,14.9059 C12.61114,15.0198 12.68256,15.1322 12.75743,15.2438 C12.56195,15.7108 12.34518,16.1769 12.12187,16.6571 C12.006,16.9063 11.88837,17.1592 11.77104,17.4181 L11.77088,17.4184 C11.52341,17.9654 11.1503,18.7331 10.7143,19.5523 C9.15768,20.1014 7.86093,20.9075 6.76173,22.1428 C6.35939,22.5896 6.11269,23.045 6.03042,23.4756 C5.94766,23.9087 6.03103,24.3471 6.33497,24.6561 C6.6399,24.9661 7.07511,25.0526 7.49917,24.9699 C7.91913,24.888 8.35269,24.6413 8.76169,24.2472 C9.48182,23.571 10.28404,22.3473 10.97974,21.1386 C11.12609,20.8844 11.26916,20.6282 11.40728,20.3746 C12.17093,20.1322 13.014,19.9451 13.9516,19.7944 C14.605,19.694 15.4275,19.599 16.2902,19.5551 C16.591,19.8758 16.8804,20.1639 17.1593,20.4192 C17.9488,21.142 18.692,21.6368 19.4085,21.8308 L19.4099,21.8311 C20.4273,22.1033 21.4063,21.8531 21.8223,21.1729 C22.0409,20.8155 22.0638,20.3822 21.8576,19.9839 C21.6613,19.6044 21.283,19.3013 20.78,19.0831 C19.8041,18.6596 18.4988,18.5298 17.2519,18.5298 C17.0721,18.5298 16.8922,18.5325 16.7133,18.5376 C16.2682,18.0432 15.7903,17.471 15.2757,16.8191 L15.2749,16.8181 C15.023,16.5006 14.7914,16.2209 14.5783,15.9636 C14.3232,15.6554 14.0946,15.3794 13.8895,15.109 C14.3655,13.8527 14.6896,12.4861 14.5679,10.8382 L14.5608,10.8385 Z M13.4496,16.166 C13.3109,16.4767 13.1676,16.7834 13.0249,17.089 C12.90932,17.3366 12.79406,17.5833 12.68182,17.8309 C12.51672,18.1959 12.29878,18.6532 12.0448,19.1575 C12.59811,19.0204 13.1807,18.9054 13.7946,18.8068 L13.7979,18.8063 L13.7979,18.8063 C14.2752,18.7329 14.8407,18.6619 15.4486,18.6103 C15.1411,18.249 14.8222,17.8585 14.4912,17.4393 C14.4911,17.4391 14.4909,17.4389 14.4908,17.4387 L14.8832,17.1289 L14.4916,17.4397 C14.4914,17.4396 14.4913,17.4394 14.4912,17.4393 C14.2768,17.1691 14.0657,16.914 13.8619,16.6678 C13.7205,16.497 13.5826,16.3304 13.4496,16.166 Z M13.2048,14.0285 C13.4796,13.1381 13.6374,12.2005 13.5835,11.1201 L13.5761,11.1203 C13.5567,10.553 13.4328,10.2401 13.3264,10.0969 C13.2425,9.98382 13.1969,9.99806 13.1825,10.0026 C13.1817,10.0028 13.1809,10.0031 13.1803,10.0032 C13.1265,10.0176 12.98528,10.0978 12.85277,10.3657 C12.72567,10.6227 12.63094,11.0116 12.64794,11.528 C12.69453,12.6374 12.89306,13.392 13.2048,14.0285 Z M17.6777,19.5354 C17.7305,19.5855 17.7827,19.6342 17.8345,19.6816 C18.5798,20.3639 19.181,20.733 19.6691,20.8653 C20.455,21.0753 20.8757,20.804 20.9692,20.6511 C21.0054,20.592 21.0147,20.5309 20.9695,20.4435 C20.9146,20.3374 20.7581,20.1636 20.382,20.0004 C19.6921,19.7011 18.7268,19.5637 17.6777,19.5354 Z M9.92118,20.9685 C8.99487,21.4297 8.20429,22.0257 7.50783,22.8086 L7.50569,22.811 L7.50568,22.811 C7.18585,23.1659 7.05117,23.4616 7.01264,23.6633 C6.97453,23.8627 7.03116,23.9379 7.04792,23.9549 C7.0637,23.9709 7.12988,24.0231 7.30776,23.9884 C7.48882,23.9531 7.75675,23.8274 8.06979,23.5252 L8.07508,23.52 L8.07512,23.5201 C8.62129,23.0082 9.28212,22.0481 9.92118,20.9685 Z M24.414,7.41376 L17.586,0.585756 C17.211,0.210756 16.702,-0.000244141 16.172,-0.000244141 L6,-0.000244141 C4.343,-0.000244141 3,1.34276 3,2.99975586 L3,24.9998 C3,26.6568 4.343,27.9998 6,27.9998 L22,27.9998 C23.657,27.9998 25,26.6568 25,24.9998 L25,8.82776 C25,8.29776 24.789,7.78876 24.414,7.41376 L24.414,7.41376 Z" id="Shape" fill="#171B1F"></path>
    </g>
</svg>