<svg width="20" height="20" viewBox="0 0 20 20" xmlns="http://www.w3.org/2000/svg"><title>format/filter-circle_20</title><path d="M10 20C4.4771525 20 0 15.5228475 0 10 0 4.4771525 4.4771525 0 10 0c5.5228475 0 10 4.4771525 10 10 0 5.5228475-4.4771525 10-10 10zm0-1c4.9705627 0 9-4.0294373 9-9 0-4.97056275-4.0294373-9-9-9-4.97056275 0-9 4.02943725-9 9 0 4.9705627 4.02943725 9 9 9zM5 7.5c0-.27614237.22765279-.5.50964952-.5l8.98070098 0C14.7718221 7 15 7.23193359 15 7.5c0 .27614237-.2276528.5-.5096495.5L5.50964952 8C5.22817786 8 5 7.76806641 5 7.5zm1 3c0-.2761424.23079681-.5.50043583-.5l6.99912837 0C13.7759472 10 14 10.2319336 14 10.5c0 .2761424-.2307968.5-.5004358.5l-6.99912837 0C6.22405275 11 6 10.7680664 6 10.5zm1 3c0-.2761424.22788048-.5.49100518-.5l5.01798962 0C12.7801695 13 13 13.2319336 13 13.5c0 .2761424-.2278805.5-.4910052.5l-5.01798962 0C7.21983051 14 7 13.7680664 7 13.5z" fill="#000" fill-rule="evenodd"/></svg>