<svg width="24" height="24" viewBox="0 0 24 24" xmlns="http://www.w3.org/2000/svg"><title>format/filter_24</title><path d="M.5 4l23 0c.2761424 0 .5.223857625.5.5 0 .276142375-.2238576.5-.5.5L.5 5C.223857625 5 0 4.776142375 0 4.5c0-.276142375.223857625-.5.5-.5zm3 7.5l17 0c.2761424 0 .5.22385763.5.5 0 .27614237-.2238576.5-.5.5l-17 0c-.27614237 0-.5-.22385763-.5-.5 0-.27614237.22385763-.5.5-.5zm3 7.5l11 0c.2761424 0 .5.2238576.5.5 0 .2761424-.2238576.5-.5.5l-11 0c-.27614237 0-.5-.2238576-.5-.5 0-.2761424.22385763-.5.5-.5z" fill="#000" fill-rule="evenodd"/></svg>