<svg width="8" height="8" viewBox="0 0 8 8" xmlns="http://www.w3.org/2000/svg"><title>format/filter_8</title><path d="M.5 1l7 0c.27614237 0 .5.223857625.5.5 0 .276142375-.22385763.5-.5.5l-7 0C.223857625 2 0 1.776142375 0 1.5c0-.276142375.223857625-.5.5-.5zm1 2.5l5 0c.27614237 0 .5.22385763.5.5 0 .27614237-.22385763.5-.5.5l-5 0c-.27614237 0-.5-.22385763-.5-.5 0-.27614237.22385763-.5.5-.5zm1 2.5l3 0c.27614237 0 .5.22385763.5.5 0 .27614237-.22385763.5-.5.5l-3 0c-.27614237 0-.5-.22385763-.5-.5 0-.27614237.22385763-.5.5-.5z" fill="#000" fill-rule="evenodd"/></svg>