<svg width="16" height="16" viewBox="0 0 16 16" xmlns="http://www.w3.org/2000/svg"><title>format/fit-to-width_16</title><path d="M.5 1c.275 0 .5.225.5.5l0 13c0 .275-.225.5-.5.5-.275 0-.5-.225-.5-.5l0-13c0-.275.225-.5.5-.5zm15 0c.275 0 .5.225.5.5l0 13c0 .275-.225.5-.5.5-.275 0-.5-.225-.5-.5l0-13c0-.275.225-.5.5-.5zm-1.5386 6.8086c.05.123.05.26 0 .383-.025.06-.062.116-.108.162l-3 3c-.098.098-.225.146-.353.146-.128 0-.256-.048-.354-.146-.195-.195-.195-.512 0-.707l2.147-2.147-8.586 0 2.146 2.147c.195.195.195.512 0 .707-.098.098-.225.146-.353.146-.128 0-.256-.048-.354-.146l-2.999-3c-.047-.046-.083-.102-.109-.162-.05-.123-.05-.26 0-.383.026-.061.062-.116.109-.162l2.999-3c.195-.195.512-.195.707 0 .195.195.195.512 0 .707l-2.146 2.146 8.586 0-2.147-2.146c-.195-.195-.195-.512 0-.707.195-.195.512-.195.707 0l3 3c.046.046.083.101.108.162z" fill="#000" fill-rule="evenodd"/></svg>