<svg width="16" height="16" viewBox="0 0 16 16" xmlns="http://www.w3.org/2000/svg"><title>alerts-and-notifications/flag_16</title><path d="M2.999868492 9l0-7L12.7245894 2l-2.26870156 3.056c-.20297331.261-.20297331.627-.00699908.878L12.7245894 9 2.999868492 9zM13.8524411 8.844L11.37176738 5.5l2.47567442-3.334c.1699776-.22.1989738-.512.0769898-.761-.1219839-.25-.3709512-.405-.6489146-.405L2.499934246 1C2.223970542 1 2 1.224 2 1.5l0 13c0 .276.223970542.5.499934246.5.275963704 0 .499934246-.224.499934246-.5l0-4.5L13.275517 10c.2789633 0 .5269307-.155.6499145-.405.121984-.25.0919879-.541-.0729904-.751z" fill="#000" fill-rule="evenodd"/></svg>