<svg width="16" height="16" viewBox="0 0 16 16" fill="none" xmlns="http://www.w3.org/2000/svg">
<path fill-rule="evenodd" clip-rule="evenodd" d="M1.27605 12.9455C1.02905 12.8213 0.930049 12.5207 1.05305 12.2732L5.55305 3.25453C5.72305 2.91483 6.27705 2.91483 6.44705 3.25453L10.947 12.2732C11.07 12.5207 10.971 12.8213 10.724 12.9455C10.651 12.9816 10.575 12.9987 10.5 12.9987C10.317 12.9987 10.1411 12.8964 10.0531 12.7211L8.69105 9.99245H3.30905L1.94705 12.7211C1.82405 12.9696 1.52405 13.0718 1.27605 12.9455ZM6.00005 4.59931L3.80905 8.99038H8.19105L6.00005 4.59931Z" fill="#121212"/>
<path d="M14.5 7L13 8.5L11.5 7" stroke="#121212" stroke-linecap="round" stroke-linejoin="round"/>
</svg>
