<svg width="12" height="12" viewBox="0 0 12 12" xmlns="http://www.w3.org/2000/svg"><title>format/fullscreen_12</title><path d="M10.5 1c.828 0 1.5.672 1.5 1.5l0 2c0 .275-.225.5-.5.5-.275 0-.5-.225-.5-.5l0-.859 0-.141 0-1c0-.276-.224-.5-.5-.5l-2 0c-.275 0-.5-.225-.5-.5 0-.275.225-.5.5-.5l2 0zm-7 0c.275 0 .5.225.5.5 0 .275-.225.5-.5.5l-2 0c-.276 0-.5.224-.5.5l0 2c0 .275-.225.5-.5.5-.275 0-.5-.225-.5-.5l0-2C0 1.672.672 1 1.5 1l2 0zm8 6c.275 0 .5.225.5.5l0 2c0 .828-.672 1.5-1.5 1.5l-2 0c-.275 0-.5-.225-.5-.5 0-.275.225-.5.5-.5l2 0c.276 0 .5-.224.5-.5l0-2c0-.275.225-.5.5-.5zm-8 3c.275 0 .5.225.5.5 0 .275-.225.5-.5.5l-2 0C.672 11 0 10.328 0 9.5l0-2c0-.275.225-.5.5-.5.275 0 .5.225.5.5l0 2c0 .276.224.5.5.5l2 0z" fill="#000" fill-rule="evenodd"/></svg>