<svg width="12" height="12" viewBox="0 0 12 12" fill="none" xmlns="http://www.w3.org/2000/svg">
<path fill-rule="evenodd" clip-rule="evenodd" d="M0 2.5C0 1.67157 0.671573 1 1.5 1H10.5C11.3284 1 12 1.67157 12 2.5V8V9V10.5C12 11.3284 11.3284 12 10.5 12H1.5C0.671572 12 0 11.3284 0 10.5V9V8V2.5ZM11 2.5V8H1V2.5C1 2.22386 1.22386 2 1.5 2H10.5C10.7761 2 11 2.22386 11 2.5ZM1 10.5V9H11V10.5C11 10.7761 10.7761 11 10.5 11H1.5C1.22386 11 1 10.7761 1 10.5ZM5.5 3C5.22386 3 5 3.22386 5 3.5C5 3.77614 5.22386 4 5.5 4H6.5C6.77614 4 7 3.77614 7 3.5C7 3.22386 6.77614 3 6.5 3H5.5Z" fill="#121212"/>
</svg>
