<?xml version="1.0" encoding="UTF-8"?>
<svg width="12px" height="12px" viewBox="0 0 12 12" version="1.1" xmlns="http://www.w3.org/2000/svg" xmlns:xlink="http://www.w3.org/1999/xlink">
    <title>hardware/generic-device-video_12</title>
    <g id="Icons-Webex" stroke="none" stroke-width="1" fill="none" fill-rule="evenodd">
        <g id="hardware/generic-device-video_12" fill="#000000">
            <g id="generic-video-device_12" transform="translate(0.000000, 1.000000)">
                <path d="M0,1.5 C0,0.671573 0.671573,0 1.5,0 L10.5,0 C11.3284,0 12,0.671573 12,1.5 L12,7 L12,8 L12,9.5 C12,10.3284 11.3284,11 10.5,11 L1.5,11 C0.671572,11 0,10.3284 0,9.5 L0,8 L0,7 L0,1.5 Z M11,1.5 L11,7 L1,7 L1,1.5 C1,1.22386 1.22386,1 1.5,1 L10.5,1 C10.7761,1 11,1.22386 11,1.5 Z M1,9.5 L1,8 L11,8 L11,9.5 C11,9.77614 10.7761,10 10.5,10 L1.5,10 C1.22386,10 1,9.77614 1,9.5 Z M5.5,2 C5.22386,2 5,2.22386 5,2.5 C5,2.77614 5.22386,3 5.5,3 L6.5,3 C6.77614,3 7,2.77614 7,2.5 C7,2.22386 6.77614,2 6.5,2 L5.5,2 Z" id="Shape"></path>
            </g>
        </g>
    </g>
</svg>