<?xml version="1.0" encoding="utf-8"?>
<!-- Generator: Adobe Illustrator 23.0.2, SVG Export Plug-In . SVG Version: 6.00 Build 0)  -->
<svg version="1.1" id="Layer_1" xmlns="http://www.w3.org/2000/svg" xmlns:xlink="http://www.w3.org/1999/xlink" x="0px" y="0px"
	 viewBox="0 0 16 16" style="enable-background:new 0 0 16 16;" xml:space="preserve">
<style type="text/css">
	.st0{fill-rule:evenodd;clip-rule:evenodd;fill:#171B1F;}
</style>
<g>
	<path class="st0" d="M13.8,1H2.2C1,1,0,2,0,3.2v10.6C0,15,1,16,2.2,16h11.6c1.2,0,2.2-1,2.2-2.2V3.2C16,2,15,1,13.8,1z M15,13.5
		c0,0.8-0.7,1.5-1.5,1.5h-11C1.7,15,1,14.3,1,13.5V12h14V13.5z M15,11H1V3.5C1,2.7,1.7,2,2.5,2h11C14.3,2,15,2.7,15,3.5V11z"/>
	<path class="st0" d="M8.5,3h-1C7.2,3,7,3.2,7,3.5S7.2,4,7.5,4h1C8.8,4,9,3.8,9,3.5S8.8,3,8.5,3z"/>
</g>
</svg>
