<?xml version="1.0" encoding="UTF-8"?>
<svg width="20px" height="20px" viewBox="0 0 20 20" version="1.1" xmlns="http://www.w3.org/2000/svg" xmlns:xlink="http://www.w3.org/1999/xlink">
    <!-- Generator: Sketch 60.1 (88133) - https://sketch.com -->
    <title>chat/gif_20</title>
    <desc>Created with Sketch.</desc>
    <g id="chat/gif_20" stroke="none" stroke-width="1" fill="none" fill-rule="evenodd">
        <path d="M13.713,1.333 C13.503,1.121 13.211,1 12.914,1 L3.5,1 C2.122,1 1,2.121 1,3.5 L1,16.5 C1,17.879 2.122,19 3.5,19 L16.5,19 C17.878,19 19,17.879 19,16.5 L19,7.159 C19,6.858 18.883,6.574 18.672,6.359 L13.713,1.333 Z M18,16.5 C18,17.327 17.327,18 16.5,18 L3.5,18 C2.673,18 2,17.327 2,16.5 L2,3.5 C2,2.673 2.673,2 3.5,2 L12.914,2 C12.945,2 12.981,2.015 13.001,2.035 L17.958,7.06 C17.986,7.088 18,7.121 18,7.159 L18,16.5 Z M13.5235,16 L13.5235,13.264 L16.2595,13.264 L16.2595,12.499 L13.5235,12.499 L13.5235,10.294 L16.5745,10.294 L16.5745,9.52 L12.6055,9.52 L12.6055,16 L13.5235,16 Z M11.2555,16 L11.2555,9.52 L10.3375,9.52 L10.3375,16 L11.2555,16 Z M6.2965,16.135 C7.1605,16.135 7.8805,15.793 8.2855,15.226 L8.4115,16 L9.0865,16 L9.0865,12.517 L6.3595,12.517 L6.3595,13.255 L8.2585,13.255 L8.2585,13.759 C8.2585,14.713 7.4125,15.379 6.4045,15.379 C5.3425,15.379 4.3615,14.497 4.3615,12.751 C4.3615,10.996 5.2615,10.15 6.3955,10.15 C7.3495,10.15 8.0155,10.627 8.1775,11.419 L9.0775,11.419 C8.9245,10.276 7.8715,9.385 6.3955,9.385 C4.7485,9.385 3.4255,10.528 3.4255,12.751 C3.4255,14.929 4.6855,16.135 6.2965,16.135 Z" id="fill" fill="#171B1F"></path>
    </g>
</svg>