<svg width="20" height="20" viewBox="0 0 20 20" xmlns="http://www.w3.org/2000/svg"><title>chat/gif_20</title><path d="M2.5 17C1.119 17 0 15.881 0 14.5l0-9C0 4.119 1.119 3 2.5 3l15 0C18.881 3 20 4.119 20 5.5l0 9c0 1.381-1.119 2.5-2.5 2.5l-15 0zM1 5.5l0 9c0 .827.673 1.5 1.5 1.5l15 0c.827 0 1.5-.673 1.5-1.5l0-9c0-.827-.673-1.5-1.5-1.5l-15 0C1.673 4 1 4.673 1 5.5zM16.5 7L14 7l0 2 2.5 0c.275 0 .5.225.5.5 0 .275-.225.5-.5.5L14 10l0 3.5c0 .275-.225.5-.5.5-.275 0-.5-.225-.5-.5l0-7c0-.275.225-.5.5-.5l3 0c.275 0 .5.225.5.5 0 .275-.225.5-.5.5zM5 7c-.552 0-1 .448-1 1l0 4c0 .552.448 1 1 1l2 0 0-2-1.5 0c-.275 0-.5-.225-.5-.5 0-.275.225-.5.5-.5l2 0c.275 0 .5.225.5.5l0 3c0 .275-.225.5-.5.5L5 14c-1.104 0-2-.896-2-2l0-4c0-1.104.896-2 2-2l2.5 0c.275 0 .5.225.5.5 0 .275-.225.5-.5.5L5 7zm5.5-1c.275 0 .5.225.5.5l0 7c0 .275-.225.5-.5.5-.275 0-.5-.225-.5-.5l0-7c0-.275.225-.5.5-.5z" fill="#000" fill-rule="evenodd"/></svg>