<svg width="24" height="24" viewBox="0 0 24 24" xmlns="http://www.w3.org/2000/svg"><title>social/github-circle_24</title><path d="M11.9988634 0C5.37271234 0-.0004 5.37237569-.0004 12.0007366c0 5.3009209 3.43793738 9.7981584 8.20699816 11.3848988.60036832.1104972.81915285-.2593002.81915285-.5782689 0-.2850829-.01031307-1.0394107-.01620626-2.0412523-3.33775322.7255985-4.04198895-1.6081032-4.04198895-1.6081032-.54585635-1.386372-1.33259668-1.7546961-1.33259668-1.7546961-1.08950277-.7447514.0825046-.7300184.0825046-.7300184 1.20441989.0854512 1.83793738 1.2368324 1.83793738 1.2368324 1.07034991 1.8335175 2.80810314 1.3038674 3.49244936.9974217.10902394-.7756906.41841621-1.304604.76169429-1.6044198-2.66445672-.3027625-5.46593002-1.3325967-5.46593002-5.9307551 0-1.3097606.46777164-2.38084715 1.23535912-3.21988951-.12375691-.30349908-.53554328-1.52338858.11712707-3.17569061 0 0 1.00773481-.32265193 3.30018416 1.23020258.95690608-.26666667 1.98379372-.39926335 3.00405152-.40441989 1.0187846.00515654 2.0456722.13775322 3.0040516.40441989 2.2909761-1.55285451 3.2965009-1.23020258 3.2965009-1.23020258.6548803 1.65230203.243094 2.87219153.1193371 3.17569061.7690607.83904236 1.2338858 1.91012891 1.2338858 3.21988951 0 4.6099447-2.8058932 5.6243094-5.4791897 5.9211786.4309392.3705341.8147329 1.1027625.8147329 2.2224678 0 1.6036832-.0147329 2.8987109-.0147329 3.2913444 0 .320442.2158379.6939226.825046.5775322C20.5638726 21.7944751 23.9996 17.3001842 23.9996 12.0007366 23.9996 5.37237569 18.6264877 0 11.9988634 0" fill-rule="evenodd"/></svg>