<?xml version="1.0" encoding="UTF-8"?>
<svg width="16px" height="17px" viewBox="0 0 16 17" version="1.1" xmlns="http://www.w3.org/2000/svg" xmlns:xlink="http://www.w3.org/1999/xlink">
    <!-- Generator: Sketch 59.1 (86144) - https://sketch.com -->
    <title>google_16</title>
    <desc>Created with Sketch.</desc>
    <g id="Icons-Webex" stroke="none" stroke-width="1" fill="none" fill-rule="evenodd">
        <g id="social/google_16" transform="translate(0.000000, 0.500000)" fill="#171B1F">
            <path d="M16.0005,8.18451579 C16.0005,7.64051579 15.9555,7.09351579 15.8595,6.55951579 L8.1615,6.55951579 L8.1615,9.63951579 L12.5695,9.63951579 C12.3865,10.6335158 11.7995,11.5125158 10.9385,12.0705158 L10.9385,12.0725158 C10.2075,12.5595158 9.2635,12.8345158 8.1645,12.8345158 C6.0355,12.8345158 4.2305,11.4265158 3.5825,9.53351579 L3.5795,9.53351579 C3.2375,8.53951579 3.2375,7.46451579 3.5795,6.47051579 C4.2245,4.57451579 6.0325,3.16651579 8.1615,3.16651579 C9.3255,3.14851579 10.4495,3.57851579 11.2925,4.36651579 L13.6225,2.08151579 C12.1465,0.724515794 10.1885,-0.022484206 8.1615,0.000515794002 C5.0755,0.000515794002 2.2535,1.70551579 0.8685,4.41051579 C-0.2895,6.67051579 -0.2895,9.33351579 0.8685,11.5945158 C2.2535,14.2955158 5.0755,16.0005158 8.1615,16.0005158 C10.3625,16.0005158 12.2195,15.2915158 13.5715,14.0695158 L13.5695,14.0675158 C15.1135,12.6745158 16.0005,10.6175158 16.0005,8.18451579" id="fill"></path>
        </g>
    </g>
</svg>