<svg width="56" height="56" viewBox="0 0 56 56" xmlns="http://www.w3.org/2000/svg"><title>contacts/guest-issuer_56</title><path d="M42.0006286 26C49.720282 26 56 32.28 56 40c0 7.72-6.279718 14-13.9993714 14L2.06342184 54c-.63497149 0-1.223945042-.288-1.617927351-.79-.3999820403-.511-.5389757992-1.166-.3829828036-1.798L1.89742929 43.975C3.34636424 38.102 8.53313134 34 14.509863 34l5.389758 0c-6.3437152-2.301-10.89751072-8.371-10.89751072-15.5 0-9.098 7.40166762-16.5 16.49925912-16.5 9.0975915 0 16.4992592 7.402 16.4992592 16.5 0 2.67-.6529707 5.294-1.8809155 7.642.6159723-.083 1.2409442-.142 1.8809155-.142zm0 27c7.1676782 0 12.9994163-5.832 12.9994163-13 0-7.168-5.8317381-13-12.9994163-13-7.1676782 0-12.9994163 5.832-12.9994163 13 0 7.168 5.8317381 13 12.9994163 13zm7.2004767-16.7771l1.3689385 1.37c.2769876.277.4299807.645.4299807 1.038 0 .393-.1529931.761-.4299807 1.038l-8.9006003 8.901c-.2859872.287-.6619703.429-1.0379534.429-.3759831 0-.7519663-.142-1.0389534-.429l-1.3689385-1.37c-.1949913-.195-.1949913-.511 0-.707l.2199901-.22c.3839828-.383.5879736-.914.5609748-1.455-.0269988-.548-.2789874-1.044-.7079682-1.396-.7519662-.612-1.9219137-.512-2.6658803.232l-.1229945.123c-.0939957.094-.22099.147-.3539841.147-.132994 0-.2599883-.053-.3529841-.147l-1.3699385-1.37c-.2769876-.277-.4299807-.645-.4299807-1.038 0-.392.1529931-.761.4299807-1.038l8.9006003-8.901c.5729743-.572 1.5039325-.572 2.0769068 0l1.3689385 1.37c.0939958.094.1469934.222.1469934.354 0 .132-.0539976.26-.1469934.354l-.1439935.143c-.7439666.744-.8449621 1.915-.2309896 2.665.3509842.429.8469619.681 1.3949373.709.5509753.036 1.0719519-.177 1.4549347-.56l.2409892-.242c.1879915-.187.5199766-.189.7079682 0zm.6619703 2.739c.088996-.089.1369938-.206.1369938-.331 0-.125-.0479978-.242-.1369938-.331l-1.0189543-1.02c-.5709744.513-1.3229406.77-2.0969058.744-.8219631-.041-1.5939285-.433-2.1189049-1.075-.8749607-1.07-.8169633-2.68.0979956-3.786l-1.024954-1.026c-.1839917-.183-.4809784-.182-.6629702 0l-2.5958834 2.596 1.3909375 1.393c.1949912.195.1949912.512 0 .707-.0979956.098-.2259899.147-.3539841.147-.1279943 0-.2559885-.049-.3529842-.147l-1.3909375-1.392-5.5977487 5.597c-.087996.089-.1369938.206-.1369938.331 0 .125.0489978.242.1369938.331l1.0279539 1.029c1.1049504-.898 2.7008787-.952 3.762831-.08.6429712.524 1.0339536 1.297 1.0749518 2.12.0369983.76-.22399 1.505-.7229676 2.074l1.0199542 1.02c.1819919.181.4799785.181.6619703 0l5.5967487-5.597-1.4119366-1.412c-.1959912-.196-.1959912-.512 0-.707.1949912-.196.5109771-.196.7069683 0l1.4119366 1.412 2.5968834-2.597zM2.06342184 53l34.77043876 0c-5.166768-2.062-8.8326034-7.105-8.8326034-13 0-1.764.3409847-3.444.9389578-5l-14.430352 0c-5.51575236 0-10.30353738 3.789-11.64247726 9.215l-1.83491761 7.437c-.08099636.331-.00899959.674.19999102.941.20299089.259.50597728.407.83096269.407zm7.93864356-34.5c0 8.547 6.9526878 15.5 15.499304 15.5 1.404937 0 2.7978744-.189 4.1408141-.561 1.8819155-3.533 5.2357649-6.16 9.2365853-7.076.0089996-.024.0109995-.05.0249988-.073 1.3719384-2.354 2.0969059-5.048 2.0969059-7.79 0-8.547-6.9526878-15.5-15.4993041-15.5-8.5466162 0-15.499304 6.953-15.499304 15.5zm33.3520024 19.1465l.9999551 1c.1949913.195.1949913.512 0 .707-.0979956.098-.2259898.147-.3539841.147-.1269943 0-.2549885-.049-.3529841-.147l-.9999551-1c-.1949913-.195-.1949913-.512 0-.707.1949912-.195.511977-.195.7069682 0z" fill-rule="evenodd"/></svg>