<svg width="36" height="36" viewBox="0 0 36 36" xmlns="http://www.w3.org/2000/svg"><title>contacts/guest-issuer_36</title><path d="M27.7397 17.037c4.623.378 8.26 4.242 8.26 8.963 0 4.971-4.03 9-9 9l-24.469 0c-.482 0-.927-.217-1.218-.593-.283-.365-.38-.83-.265-1.275l1.211-4.698c.977-3.788 4.467-6.434 8.488-6.434l2.698 0c-3.796-1.737-6.445-5.561-6.445-10 0-6.066 4.935-11 11-11 6.066 0 11 4.934 11 11 0 1.822-.471 3.525-1.26 5.037zM26.9997 34c4.411 0 8-3.589 8-8 0-4.411-3.589-8-8-8-4.411 0-8 3.589-8 8 0 4.411 3.589 8 8 8zm-24.469 0l20.358 0c-2.901-1.494-4.889-4.512-4.889-8 0-1.054.19-2.061.523-3l-7.776 0c-3.565 0-6.657 2.337-7.52 5.684l-1.211 4.698c-.05.196.033.342.087.412.101.131.258.206.428.206zm5.469-22c0 5.514 4.487 10 10 10 .331 0 .655-.026.976-.061 1.434-2.828 4.314-4.79 7.67-4.921.86-1.476 1.354-3.19 1.354-5.018 0-5.515-4.487-10-10-10-5.513 0-10 4.485-10 10zm24.5908 12.1748c.264.264.409.615.409.988 0 .373-.145.724-.409.988l-5.44 5.44c-.261.263-.612.409-.987.409-.375 0-.726-.146-.989-.41l-.482-.481c-.182-.182-.196-.47-.035-.669.224-.276.342-.601.342-.94 0-.827-.673-1.5-1.5-1.5-.339 0-.664.118-.939.342-.198.162-.487.147-.669-.034l-.483-.484c-.264-.264-.409-.615-.409-.987 0-.374.146-.725.41-.989l5.439-5.44c.545-.545 1.431-.545 1.976 0l.483.484c.181.181.196.47.034.669-.223.275-.342.6-.342.939 0 .827.673 1.5 1.5 1.5.428 0 .748-.186.94-.342.198-.161.487-.147.669.035l.482.482zm-.707 1.269c.076-.076.116-.173.116-.281 0-.108-.04-.205-.116-.281l-.192-.192c-.366.204-.771.31-1.192.31-1.378 0-2.5-1.121-2.5-2.5 0-.421.106-.826.31-1.192l-.192-.193c-.155-.155-.407-.154-.562 0l-1.867 1.868.665.664c.195.195.195.511 0 .707-.098.097-.226.146-.354.146-.128 0-.256-.049-.353-.146l-.665-.664-2.866 2.866c-.075.075-.116.175-.116.281 0 .107.04.204.117.28l.192.193c.366-.204.771-.31 1.191-.31 1.379 0 2.5 1.122 2.5 2.5 0 .421-.106.826-.31 1.192l.192.192c.149.149.414.15.561.001l2.868-2.867-.664-.664c-.196-.196-.196-.512 0-.707.195-.196.511-.196.707 0l.664.664 1.866-1.867zm-4.5303-.7973l1 1c.195.195.195.512 0 .707-.098.098-.226.147-.354.147-.127 0-.255-.049-.353-.147l-1-1c-.195-.195-.195-.512 0-.707.195-.195.512-.195.707 0z" fill="#000" fill-rule="evenodd"/></svg>