<?xml version="1.0" encoding="UTF-8"?>
<svg width="14px" height="14px" viewBox="0 0 14 14" version="1.1" xmlns="http://www.w3.org/2000/svg" xmlns:xlink="http://www.w3.org/1999/xlink">
    <!-- Generator: Sketch 60.1 (88133) - https://sketch.com -->
    <title>activities/handset-presence-active_14</title>
    <desc>Created with Sketch.</desc>
    <g id="activities/handset-presence-active_14" stroke="none" stroke-width="1" fill="none" fill-rule="evenodd">
        <path d="M13.4644,1.9634 C13.5664,1.4764 13.4474,0.9784 13.1394,0.5954 C12.8184,0.1954 12.3424,-0.0196 11.8374,0.0014 L10.4164,0.0634 C9.6294,0.0974 8.9374,0.6044 8.6524,1.3574 L8.1654,2.6464 C7.9164,3.3044 7.9654,4.0354 8.3004,4.6514 L8.6914,5.3684 C8.7274,5.4354 8.7224,5.5114 8.6784,5.5744 C7.9694,6.5804 6.8814,7.7694 5.7664,8.7564 C5.7034,8.8144 5.6144,8.8334 5.5324,8.7914 L4.8084,8.4624 C4.1864,8.1824 3.4744,8.1894 2.8554,8.4904 L1.6294,9.0894 C0.9124,9.4384 0.4694,10.1864 0.5014,10.9944 L0.5584,12.4344 C0.5784,12.9374 0.8174,13.3954 1.2144,13.6904 C1.3774,13.8104 1.5554,13.8964 1.7424,13.9464 C2.0194,14.0214 2.3154,14.0184 2.6004,13.9314 C4.8044,13.2614 7.2784,11.5454 9.3894,9.2204 C11.5024,6.8934 12.9874,4.2494 13.4644,1.9634" id="Fill-1" fill="#171B1F"></path>
    </g>
</svg>