<svg width="8" height="8" viewBox="0 0 8 8" xmlns="http://www.w3.org/2000/svg"><title>activities/handset_8</title><path d="M1.1196 1c-.051 0-.082.029-.095.047.158.729.514 1.487 1.019 2.224l.475-.925c.068-.135.073-.297.011-.441l-.306-.709c-.05-.119-.167-.196-.296-.196l-.808 0zm3.619 4.969c.722.501 1.451.858 2.119 1.028.113-.035.142-.065.142-.117l0-.807c0-.13-.076-.246-.195-.297l-.71-.305c-.143-.062-.306-.057-.445.012l-.911.486zM6.8866 8c-.092 0-.184-.011-.275-.034-1.32-.336-2.758-1.233-4.052-2.526-1.293-1.294-2.19-2.732-2.525-4.052-.085-.334-.012-.682.2-.955C.4496.158.7716 0 1.1196 0l.808 0c.529 0 1.006.314 1.215.801l.306.709c.178.415.165.884-.037 1.288l-.693 1.346c.173.2.356.397.548.589.198.198.401.386.606.563l1.318-.701c.414-.207.884-.221 1.299-.043l.71.305c.486.209.8.686.8 1.216l0 .807c0 .349-.157.671-.432.885-.199.154-.437.235-.681.235z" fill="#000" fill-rule="evenodd"/></svg>