<svg width="32" height="32" viewBox="0 0 32 32" xmlns="http://www.w3.org/2000/svg"><title>activities/handset_32</title><path d="M4.0673 2c-.644 0-1.24.292-1.635.8-.389.501-.524 1.137-.369 1.748 1.257 4.95 4.825 10.636 9.789 15.6 4.963 4.963 10.649 8.531 15.6 9.789.61.154 1.247.02 1.747-.369.509-.395.801-.992.801-1.635l0-3.347c0-1.164-.692-2.214-1.761-2.673l-2.939-1.265c-1.021-.438-2.176-.405-3.17.092l-1.674.837c-.768.384-1.701.282-2.377-.26-2.857-2.293-5.565-4.983-7.43-7.381-.526-.676-.62-1.603-.241-2.361l.852-1.705c.497-.994.53-2.149.091-3.169l-1.263-2.94C9.6273 2.691 8.5783 2 7.4133 2l-3.346 0zm23.888 29c-.249 0-.501-.031-.749-.094-5.12-1.301-10.974-4.964-16.061-10.051-5.088-5.087-8.751-10.941-10.051-16.061-.232-.912-.032-1.862.548-2.608C2.2293 1.432 3.1123 1 4.0673 1l3.346 0c1.565 0 2.975.929 3.593 2.366l1.264 2.94c.556 1.291.514 2.754-.115 4.012l-.853 1.704c-.211.422-.159.92.137 1.3 1.819 2.339 4.467 4.969 7.266 7.215.372.298.883.356 1.304.145l1.674-.837c1.257-.629 2.72-.671 4.012-.115l2.939 1.264c1.437.618 2.366 2.028 2.366 3.592l0 3.347c0 .954-.433 1.838-1.187 2.425-.542.421-1.193.642-1.858.642z" fill="#000" fill-rule="evenodd"/></svg>