<svg width="24" height="24" viewBox="0 0 24 24" xmlns="http://www.w3.org/2000/svg"><title>activities/handset_24</title><path d="M3.359 2c-.424 0-.815.192-1.076.526-.255.329-.344.746-.242 1.147.905 3.561 3.475 7.656 7.052 11.233 3.578 3.577 7.672 6.148 11.234 7.053.396.099.817.013 1.146-.242.334-.261.527-.653.527-1.076l0-2.423c0-.788-.468-1.498-1.193-1.811l-2.127-.914c-.7-.302-1.497-.278-2.179.063l-1.212.606c-.608.301-1.341.222-1.87-.205-2.076-1.665-4.044-3.621-5.403-5.367-.413-.532-.487-1.26-.189-1.856L8.444 7.5c.342-.684.365-1.478.063-2.18l-.915-2.129C7.28 2.468 6.57 2 5.782 2L3.359 2zm17.298 21c-.192 0-.385-.023-.576-.072-3.732-.948-7.994-3.615-11.695-7.315-3.7-3.7-6.366-7.963-7.314-11.694-.179-.701-.025-1.433.422-2.007C1.945 1.333 2.625 1 3.359 1l2.423 0c1.187 0 2.259.705 2.728 1.796l.915 2.13c.419.972.388 2.074-.087 3.021l-.617 1.235c-.129.257-.096.561.084.795 1.313 1.686 3.223 3.582 5.24 5.201.226.181.538.217.797.09l1.211-.607c.948-.472 2.049-.505 3.022-.088l0 .001 2.128.915c1.092.47 1.797 1.541 1.797 2.729l0 2.423c0 .734-.333 1.414-.912 1.865-.418.324-.919.494-1.431.494z" fill="#000" fill-rule="evenodd"/></svg>