<svg xmlns="http://www.w3.org/2000/svg" width="17" height="16" viewBox="0 0 17 16"><path d="M7.10568 2.69513C4.65067 1.59755 2.75775 2.99068 2.12213 3.81848L2.11736 3.82468C0.365421 6.04271 1.37092 8.43744 2.13414 9.39712L6.28333 13.5462C6.50648 13.7694 6.50648 14.1313 6.28333 14.3545C6.06018 14.5776 5.69837 14.5776 5.4752 14.3545L1.30402 10.1832C1.28995 10.1692 1.27662 10.1544 1.2641 10.1389C0.334233 8.99127 -1.01911 5.95503 1.21812 3.11927C2.04366 2.04682 4.4545 0.267901 7.55598 1.6446L8.22198 1.89522C9.39559 1.14187 11.8336 0.525731 14.3387 2.61338C14.9534 3.12566 15.5266 4.00321 15.8115 5.02418C16.0996 6.05681 16.1048 7.28008 15.5146 8.46043C15.318 8.85351 14.7337 9.79808 13.8618 10.67C13.6386 10.8931 13.2768 10.8931 13.0537 10.67C12.8305 10.4468 12.8305 10.085 13.0537 9.86183C13.8306 9.0849 14.3453 8.24326 14.4923 7.94932C14.9326 7.06868 14.9378 6.14507 14.7107 5.33138C14.4803 4.50603 14.0229 3.83783 13.6072 3.49135C11.3888 1.64268 9.36454 2.42699 8.66918 2.97764L5.50734 5.68779C5.83955 5.89383 6.37244 5.9457 6.98877 5.6477L8.50342 4.63788C8.70501 4.50348 8.96943 4.51082 9.16326 4.65619C9.86991 5.18618 10.4912 5.27272 10.9681 5.20459C11.4661 5.13344 11.845 4.8874 12.0232 4.70927C12.2462 4.48611 12.6081 4.48611 12.8313 4.70927C13.0544 4.93242 13.0544 5.29424 12.8313 5.51739C12.4941 5.8545 11.8939 6.22679 11.1297 6.33596C10.4387 6.43467 9.64012 6.31416 8.81656 5.80266L8.73031 5.86017L10.2992 7.42907L10.3017 7.43158L11.8861 8.99646C12.1107 9.21822 12.113 9.58002 11.8912 9.80456C11.6694 10.0291 11.3076 10.0313 11.083 9.80958L9.49358 8.2397L7.76059 6.5067L7.59163 6.61934C7.5719 6.63248 7.55139 6.64439 7.53019 6.65498C7.40436 6.71791 7.2743 6.77255 7.14162 6.81848L10.6348 10.2685L12.1201 11.7538C12.3433 11.977 12.3433 12.3388 12.1201 12.5619C11.8969 12.7851 11.535 12.7851 11.312 12.5619L9.82917 11.0792L9.82665 11.0766L6.33783 7.63091C6.16367 7.4589 6.12325 7.20266 6.21734 6.99155C5.38346 7.0174 4.58584 6.68127 4.18727 5.88414C4.07 5.64961 4.12741 5.36537 4.3265 5.19472L7.19998 2.73174L7.13765 2.70827C7.12686 2.70422 7.1162 2.69984 7.10568 2.69513ZM5.07891 8.09238C5.30067 7.86784 5.66247 7.8656 5.88701 8.08736L9.69827 11.8516L10.6348 12.7881C10.8579 13.0113 10.8579 13.3731 10.6348 13.5962C10.4116 13.8194 10.0498 13.8194 9.82665 13.5962L8.89266 12.6623L8.89013 12.6597L5.08392 8.90049C4.85939 8.67872 4.85714 8.31692 5.07891 8.09238ZM3.825 9.36195C4.04676 9.13742 4.40856 9.13518 4.6331 9.35694L7.80957 12.4943L8.832 13.5166C9.05516 13.7398 9.05516 14.1016 8.832 14.3248C8.60885 14.548 8.24703 14.548 8.02388 14.3248L7.00144 13.3024L3.83002 10.1701C3.60548 9.9483 3.60323 9.58649 3.825 9.36195Z"/></svg>