<?xml version="1.0" encoding="UTF-8"?>
<svg width="30px" height="30px" viewBox="0 0 30 30" version="1.1" xmlns="http://www.w3.org/2000/svg" xmlns:xlink="http://www.w3.org/1999/xlink">
    <!-- Generator: Sketch 60.1 (88133) - https://sketch.com -->
    <title>activities/handset-presence-stroke_30</title>
    <desc>Created with Sketch.</desc>
    <g id="activities/handset-presence-stroke_30" stroke="none" stroke-width="1" fill="none" fill-rule="evenodd">
        <path d="M25.277918,0.00172641893 L22.2076883,0.0915138157 C20.2971216,0.144708248 18.6215697,1.3216139 17.9480445,3.08943177 L16.9294094,5.7661197 L16.839667,6.02150142 C16.3687495,7.47688779 16.5367654,9.06481252 17.310089,10.4151029 L18.129,11.843 L17.9001938,12.1536882 C16.5100921,13.9946755 14.5823507,16.0301904 12.5113943,17.8403673 L12.1,18.194 L10.709186,17.3116357 L10.5818337,17.2431928 C9.09786948,16.5790905 7.40861434,16.5813661 5.94814944,17.2518134 L3.30963404,18.4654602 C1.63700282,19.2348135 0.586974747,20.8894601 0.599987236,22.7037702 L0.701444654,26.1779415 C0.767874547,27.390824 1.35866975,28.4830889 2.31917248,29.1988183 C2.73240316,29.5060537 3.19103088,29.7300803 3.67598341,29.8614867 C4.36792055,30.0501983 5.09765311,30.0478018 5.79610066,29.8504479 C10.6531377,28.4863039 16.03222,24.9204495 20.5969539,20.0647317 C25.1686487,15.2043866 28.3618671,9.64465632 29.3555559,4.76743235 C29.5878082,3.62343377 29.2959748,2.43853981 28.5584486,1.51896605 C27.7639641,0.53051468 26.5416193,-0.0354868699 25.277918,0.00172641893 Z M25.3073531,1.00129311 C26.2581864,0.973293113 27.1810198,1.40145978 27.7783531,2.14462645 C28.3313531,2.83412645 28.5483531,3.71729311 28.3756864,4.56779311 C27.4225198,9.24612645 24.3215198,14.6454598 19.8683531,19.3797931 C15.4210198,24.1106264 10.1931864,27.5767931 5.52418642,28.8881264 C4.99568642,29.0374598 4.45085308,29.0362931 3.93751975,28.8962931 C3.57585308,28.7982931 3.23051975,28.6302931 2.91668642,28.3969598 C2.24899411,27.8994213 1.81988168,27.163303 1.7192754,26.3528578 L1.70101975,26.1487931 L1.60535308,22.8681264 C1.52851218,21.4493537 2.28401321,20.1294415 3.54410886,19.4644442 L3.72751975,19.3739598 L6.36535308,18.1606264 C7.48255308,17.6477598 8.76642568,17.6115361 9.92671664,18.0538524 L10.1733531,18.1559598 L11.7635198,19.1651264 C12.0318531,19.2724598 12.4343531,19.2246264 12.7131864,18.9866264 C15.1620198,16.9052931 17.4533531,14.4844598 18.9991864,12.3494598 C19.1717073,12.1116056 19.2066708,11.8103322 19.098606,11.5402101 L19.0435198,11.4266264 L18.1778531,9.91812645 C17.5489468,8.82000145 17.4091519,7.53525535 17.7825009,6.35612449 L17.8640198,6.12179311 L18.8825198,3.44545978 C19.386997,2.12134614 20.6090105,1.21818705 22.0310643,1.10228834 L22.2355198,1.09112645 L25.3073531,1.00129311 Z" id="fill" fill="#171B1F"></path>
    </g>
</svg>