<svg width="56" height="56" viewBox="0 0 56 56" xmlns="http://www.w3.org/2000/svg"><title>activities/handset_56</title><path d="M7.014683 3c-1.25 0-2.407.566-3.176 1.554-.756.973-1.017 2.212-.716 3.399 2.227 8.771 8.538 18.834 17.314 27.61 8.775 8.775 18.838 15.086 27.609 17.314 1.187.3 2.427.04 3.4-.716.987-.768 1.554-1.926 1.554-3.176l0-5.885c0-2.199-1.306-4.182-3.326-5.051l-5.169-2.222c-1.898-.817-4.046-.755-5.894.17l-2.943 1.471c-1.221.611-2.702.448-3.774-.414-5.001-4.013-9.741-8.721-13.004-12.917-.849-1.091-.996-2.527-.385-3.749l1.499-2.998c.924-1.848.986-3.996.17-5.894l-2.223-5.17c-.869-2.02-2.852-3.326-5.051-3.326l-5.885 0zm42.01 51c-.408 0-.819-.051-1.225-.154-8.94-2.271-19.171-8.677-28.07-17.576-8.9-8.899-15.306-19.131-17.576-28.071-.378-1.489-.051-3.041.896-4.259.959-1.233 2.404-1.94 3.965-1.94l5.885 0c2.6 0 4.943 1.543 5.969 3.931l2.223 5.17c.933 2.17.863 4.625-.193 6.736l-1.499 2.998c-.438.874-.331 1.904.279 2.688 3.218 4.137 7.898 8.785 12.841 12.751.768.618 1.828.736 2.7.3l2.944-1.472c2.111-1.056 4.566-1.127 6.736-.194l5.169 2.222c2.388 1.027 3.931 3.37 3.931 5.97l0 5.885c0 1.561-.707 3.006-1.941 3.965-.885.689-1.948 1.05-3.034 1.05z" fill="#000" fill-rule="evenodd"/></svg>