<svg width="26" height="26" viewBox="0 0 26 26" xmlns="http://www.w3.org/2000/svg"><title>activities/handset_26</title><path d="M25.0004207 23.287c0 .534-.242 1.028-.664 1.355-.413.323-.94.435-1.446.306-4.256-1.081-9.146-4.15-13.41699996-8.42-4.27-4.271-7.34-9.161-8.42-13.417-.128999997-.506-.017-1.033.305-1.448.328-.421.822-.663 1.355-.663l2.885 0c.976 0 1.856.58 2.242 1.476l1.089 2.535c.371.861.343 1.836-.076 2.674l-.735 1.47c-.339.677-.254 1.505.215 2.109 1.612 2.071 3.94999996 4.395 6.41599996 6.374.604.484 1.438.575 2.124.232l1.442-.722c.838-.419 1.814-.448 2.675-.077l2.533 1.09c.897.385 1.477 1.265 1.477 2.241l0 2.885zm-1.082-6.045l-2.533-1.09c-1.133-.486-2.413-.449-3.517.102l-1.443.721c-.337.171-.749.125-1.05-.117-2.408-1.932-4.687-4.196-6.25199996-6.209-.239-.306-.281-.707-.111-1.047l.735-1.469c.55099996-1.102.58799996-2.384.101-3.517l-1.089-2.535c-.544-1.264-1.785-2.081-3.161-2.081l-2.885 0c-.844 0-1.626.383-2.144999997 1.05-.5129999999.659-.69 1.5-.4849999999 2.307C1.20742074 7.782 4.37242074 12.841 8.76642074 17.235c4.39399996 4.394 9.45199996 7.558 13.87799996 8.682.219.056.442.083.663.083.588 0 1.164-.195 1.644-.568.667-.519 1.049-1.301 1.049-2.145l0-2.885c0-1.376-.817-2.616-2.082-3.16z" fill="#000" fill-rule="evenodd"/></svg>