<svg width="36" height="36" viewBox="0 0 36 36" xmlns="http://www.w3.org/2000/svg"><title>activities/handset_36</title><path d="M4.42169507 2c-.754 0-1.453.342-1.916.937-.456.586-.613000004 1.334-.432 2.048 1.435 5.646 5.501 12.128 11.15800003 17.784 5.655 5.656 12.137 9.722 17.783 11.157.717.178 1.462.024 2.048-.432.595-.463.937-1.162.937-1.916l0-3.807c0-1.353-.803-2.573-2.045-3.107l-3.345-1.437c-1.179-.507-2.514-.47-3.665.105l-1.905.952c-.852.427-1.884.313-2.632-.288-3.246-2.606-6.323-5.663-8.442-8.388-.582-.748-.687-1.773-.268-2.612l.97-1.94c.575-1.15.613-2.485.107-3.665l-1.439-3.346C10.80169507 2.803 9.58169507 2 8.22969507 2l-3.808 0zM31.6046951 35c-.279 0-.559-.035-.836-.105-5.816-1.477-12.465-5.639-18.244-11.419-5.78100003-5.78-9.94300003-12.429-11.419000034-18.245-.259-1.016-.0369999998-2.076.611-2.908C2.36969507 1.482 3.35669507 1 4.42169507 1l3.808 0c1.753 0 3.33300003 1.04 4.02400003 2.65l1.439 3.346c.625 1.451.577 3.094-.13 4.507l-.97 1.94c-.252.504-.19 1.099.162 1.552 2.073 2.665 5.091 5.662 8.28 8.222.444.355 1.055.426 1.558.173l1.905-.953c1.415-.708 3.059-.753 4.507-.128l3.345 1.437c1.61.691 2.65 2.272 2.65 4.025l0 3.807c0 1.066-.482 2.052-1.323 2.705-.606.471-1.33.717-2.072.717z" fill="#000" fill-rule="evenodd"/></svg>