<svg width="124" height="124" viewBox="0 0 124 124" xmlns="http://www.w3.org/2000/svg"><title>activities/handset_124</title><path d="M16.3269 7c-2.904 0-5.592 1.315-7.376 3.609-1.759 2.262-2.366 5.143-1.665 7.904 4.873 19.188 18.664 41.19 37.838 60.363 19.172 19.173 41.173 32.964 60.362 37.838 2.761.701 5.643.095 7.905-1.665 2.294-1.784 3.609-4.472 3.609-7.376l0-12.808c0-5.023-2.981-9.55-7.595-11.533l-11.25-4.838c-4.289-1.844-9.146-1.705-13.323.384l-6.407 3.204c-2.449 1.224-5.426.897-7.582-.833-10.851-8.71-21.132-18.921-28.206-28.017-1.706-2.194-2.004-5.082-.776-7.536l3.263-6.526c2.088-4.176 2.228-9.032.384-13.322l-4.839-11.253C38.6849 9.981 34.1579 7 29.1359 7l-12.809 0zm91.431 111c-.838 0-1.683-.104-2.518-.317-19.358-4.916-41.528-18.803-60.823-38.1-19.298-19.297-33.184-41.466-38.1-60.824-.778-3.062-.105-6.257 1.844-8.764C10.1359 7.456 13.1129 6 16.3269 6l12.809 0c5.422 0 10.31 3.219 12.452 8.2l4.838 11.252c1.962 4.562 1.813 9.725-.408 14.166l-3.263 6.525c-1.053 2.107-.796 4.588.671 6.475 7.029 9.037 17.25 19.188 28.043 27.851 1.853 1.488 4.408 1.769 6.509.718l6.407-3.204c4.441-2.22 9.604-2.369 14.165-.408l11.25 4.838c4.981 2.142 8.2 7.029 8.2 12.452l0 12.808c0 3.215-1.456 6.191-3.995 8.166-1.824 1.418-4.011 2.161-6.247 2.161z" fill="#000" fill-rule="evenodd"/></svg>