<svg width="27" height="26" viewBox="0 0 27 26" xmlns="http://www.w3.org/2000/svg"><title>activities/handset-active_26</title><path d="M23.9184207 17.242l-2.533-1.09c-1.133-.486-2.413-.449-3.517.102l-1.443.721c-.337.171-.749.125-1.05-.117-2.408-1.932-4.687-4.196-6.25199996-6.209-.239-.306-.281-.707-.111-1.047l.735-1.469c.55099996-1.102.58799996-2.384.101-3.517l-1.089-2.535c-.544-1.264-1.785-2.081-3.161-2.081l-2.885 0c-.844 0-1.626.383-2.144999997 1.05-.5129999999.659-.69 1.5-.4849999999 2.307C1.20742074 7.782 4.37242074 12.841 8.76642074 17.235c4.39399996 4.394 9.45199996 7.558 13.87799996 8.682.219.056.442.083.663.083.588 0 1.164-.195 1.644-.568.667-.519 1.049-1.301 1.049-2.145l0-2.885c0-1.376-.817-2.616-2.082-3.16z" fill="#000" fill-rule="evenodd"/></svg>