<svg width="10" height="10" viewBox="0 0 10 10" xmlns="http://www.w3.org/2000/svg"><title>activities/handset_10</title><path d="M9.00040922 8.7035c0 .093-.042.179-.115.235-.043.033-.13.082-.246.053-1.478-.375-3.184-1.45-4.682-2.948-1.499-1.498-2.573-3.204-2.948-4.682-.029999996-.117.02-.204.053-.246.056-.073.142-.115.235-.115l1.038 0c.224 0 .425.132.513.338l.393.912c.096.223.089.476-.02.693l-.265.53c-.177.353-.133.784.111 1.098.596.765 1.456 1.621 2.362 2.348.315.253.75.299 1.108.12l.52-.26c.216-.108.468-.116.693-.02 0 .001 0 .001 0 .001l.912.392c.206.088.338.289.338.512l0 1.039zm.057-2.47l-.912-.392c-.495-.213-1.054-.197-1.536.044l-.554.255c-.835-.671-1.657-1.487-2.204-2.22l.264-.529c.241-.482.257-1.042.045-1.536l-.393-.913c-.246-.572-.809-.942-1.432-.942l-1.038 0c-.402999996 0-.776999996.182-1.024999996.501-.2460000003.316-.3310000003.72-.2320000003 1.106C.464409224 3.2795 1.60440922 5.1055 3.25040922 6.7505c1.645 1.646 3.471 2.786 5.143 3.21.106.027.212.04.318.04.282 0 .558-.093.788-.272.318-.248.50099998-.622.50099998-1.025l0-1.039c0-.623-.36999998-1.185-.94299998-1.431z" fill="#000" fill-rule="evenodd"/></svg>