<svg width="28" height="28" viewBox="0 0 28 28" xmlns="http://www.w3.org/2000/svg"><title>activities/handset_28</title><path d="M3.7134 2c-.534 0-1.028.242-1.356.663-.322.415-.433.942-.305 1.447 1.081 4.256 4.15 9.147 8.421 13.417 4.27 4.27 9.16 7.339 13.416 8.421.505.128 1.033.017 1.447-.306.422-.328.664-.822.664-1.355l0-2.885c0-.976-.58-1.856-1.477-2.242l-2.533-1.089c-.861-.37-1.836-.342-2.675.077l-1.443.721c-.686.343-1.52.253-2.123-.232-2.466-1.979-4.805-4.302-6.416-6.374-.47-.604-.554-1.431-.216-2.108l.735-1.47c.419-.839.447-1.813.077-2.675l-1.09-2.534C8.4544 2.58 7.5744 2 6.5984 2l-2.885 0zm20.593 25c-.22 0-.443-.027-.663-.083-4.426-1.124-9.484-4.289-13.877-8.683-4.395-4.394-7.559-9.452-8.683-13.878-.205-.806-.028-1.647.485-2.307C2.0874 1.383 2.8694 1 3.7134 1l2.885 0c1.376 0 2.616.817 3.16 2.081l1.09 2.534c.487 1.133.45 2.415-.101 3.517l-.735 1.47c-.17.34-.128.741.11 1.047 1.566 2.013 3.845 4.276 6.253 6.208.299.241.712.288 1.05.118l1.443-.722c1.102-.551 2.384-.588 3.517-.101l2.533 1.09c1.265.543 2.082 1.784 2.082 3.16l0 2.885c0 .844-.383 1.626-1.05 2.145-.479.373-1.055.568-1.644.568z" fill="#000" fill-rule="evenodd"/></svg>