<?xml version="1.0" encoding="UTF-8"?>
<svg width="16px" height="16px" viewBox="0 0 16 16" version="1.1" xmlns="http://www.w3.org/2000/svg" xmlns:xlink="http://www.w3.org/1999/xlink">
    <!-- Generator: Sketch 60.1 (88133) - https://sketch.com -->
    <title>activities/handset-presence-stroke_16</title>
    <desc>Created with Sketch.</desc>
    <g id="activities/handset-presence-stroke_16" stroke="none" stroke-width="1" fill="none" fill-rule="evenodd">
        <path d="M12.7958517,0.00227241307 L11.3732382,0.0643408152 C10.1836542,0.115733264 9.14270089,0.879070761 8.71714708,2.00342872 L8.22993857,3.29298012 L8.15622995,3.5092491 C7.89125386,4.38080922 7.98421206,5.32432807 8.4219056,6.12916155 L8.566,6.39600891 L8.42039593,6.58385507 C7.94272574,7.18317029 7.355004,7.82495285 6.73350835,8.42483697 L6.476,8.66800891 L6.2221082,8.55199938 C5.3244327,8.14789423 4.30191279,8.16132319 3.41809305,8.5910966 L2.19041333,9.19091534 C1.11620544,9.71378519 0.454546441,10.8311508 0.502183316,12.0339818 L0.559182501,13.4739613 C0.591143474,14.2777801 0.977050135,15.0168237 1.61796433,15.4930698 C1.88374708,15.6887503 2.17494351,15.8298115 2.48409432,15.9124721 C2.94235823,16.036556 3.43010753,16.0289481 3.89236275,15.8878386 C6.28455762,15.1606294 8.90607669,13.3417259 11.1297578,10.8926219 C13.3551347,8.44186377 14.9267796,5.64314864 15.4433162,3.16767096 C15.6062991,2.38950914 15.4151265,1.58606741 14.9186783,0.96873084 C14.4004983,0.323022862 13.6202198,-0.0320082377 12.7958517,0.00227241307 Z M12.8374,1.00140891 C13.3424,0.980408912 13.8184,1.19540891 14.1394,1.59540891 C14.4474,1.97840891 14.5664,2.47640891 14.4644,2.96340891 C13.9874,5.24940891 12.5024,7.89340891 10.3894,10.2204089 C8.2784,12.5454089 5.8044,14.2614089 3.6004,14.9314089 C3.3154,15.0184089 3.0194,15.0214089 2.7424,14.9464089 C2.5554,14.8964089 2.3774,14.8104089 2.2144,14.6904089 C1.86151111,14.4281867 1.63346173,14.0371743 1.5730941,13.600247 L1.5584,13.4344089 L1.5014,11.9944089 C1.47153333,11.2402756 1.85544444,10.5384089 2.48971289,10.1644285 L2.6294,10.0894089 L3.8554,9.49040891 C4.41812727,9.21677255 5.05771405,9.18611139 5.63666972,9.39316624 L5.8084,9.46240891 L6.5324,9.79140891 C6.6144,9.83340891 6.7034,9.81440891 6.7664,9.75640891 C7.8814,8.76940891 8.9694,7.58040891 9.6784,6.57440891 C9.7114,6.52715891 9.7224625,6.47259641 9.71074375,6.42000266 L9.6914,6.36840891 L9.3004,5.65140891 C8.99585455,5.09140891 8.92767273,4.43636759 9.10487032,3.82753213 L9.1654,3.64640891 L9.6524,2.35740891 C9.9184,1.65460891 10.5389422,1.16610225 11.2603591,1.07644832 L11.4164,1.06340891 L12.8374,1.00140891 Z" id="fill" fill="#171B1F"></path>
    </g>
</svg>