<svg width="64" height="64" viewBox="0 0 64 64" xmlns="http://www.w3.org/2000/svg"><title>activities/handset_64</title><path d="M8.5459 4c-1.415 0-2.726.642-3.595 1.759-.857 1.102-1.153 2.506-.812 3.85 2.492 9.812 9.551 21.069 19.367 30.885 9.815 9.816 21.072 16.874 30.884 19.366 1.345.341 2.748.046 3.85-.81 1.119-.87 1.76-2.181 1.76-3.596l0-6.577c0-2.481-1.473-4.719-3.753-5.7l-5.777-2.484c-2.138-.918-4.556-.848-6.637.192l-3.29 1.645c-1.342.669-2.972.492-4.154-.456-5.587-4.484-10.88-9.743-14.524-14.428-.934-1.201-1.097-2.782-.424-4.127l1.675-3.351c1.041-2.081 1.11-4.5.191-6.637l-2.484-5.778C19.8419 5.474 17.6049 4 15.1239 4l-6.578 0zm46.952 57c-.45 0-.905-.057-1.354-.171-9.981-2.535-21.406-9.688-31.345-19.628-9.94-9.939-17.094-21.364-19.629-31.346-.418-1.646-.057-3.363.991-4.709C5.2219 3.782 6.8199 3 8.5459 3l6.578 0c2.881 0 5.479 1.711 6.617 4.358l2.485 5.779c1.036 2.407.957 5.134-.215 7.478l-1.676 3.351c-.499.998-.377 2.173.319 3.067 3.598 4.626 8.832 9.823 14.361 14.262.877.704 2.087.838 3.081.341l3.29-1.646c2.345-1.172 5.071-1.252 7.479-.215l5.777 2.484c2.647 1.138 4.358 3.736 4.358 6.618l0 6.577c0 1.727-.782 3.324-2.146 4.385-.98.762-2.155 1.161-3.356 1.161z" fill="#000" fill-rule="evenodd"/></svg>