<svg width="14" height="14" viewBox="0 0 14 14" fill="none" xmlns="http://www.w3.org/2000/svg">
<path d="M11.817 2.62055C10.5215 1.3294 8.47976 1.17129 7.00093 2.24754C5.34237 1.03794 3.01723 1.40185 1.80763 3.06046C0.728582 4.53999 0.88792 6.58495 2.18305 7.87951C2.18305 7.87951 4.41648 10.1149 6.05133 11.7482C6.39932 12.1045 6.96492 12.127 7.34012 11.7995C7.4491 11.6911 7.52737 11.5558 7.56701 11.4073L7.98036 11.8209C8.12583 11.9603 8.32069 12.0362 8.52211 12.0319C8.76278 12.032 8.99378 11.9372 9.16489 11.7679C9.28188 11.652 9.36334 11.5051 9.39965 11.3445C9.81624 11.5896 10.3526 11.4506 10.5977 11.034C10.764 10.7514 10.7584 10.3996 10.5831 10.1225C11.052 10.0121 11.3426 9.54249 11.2322 9.07363C11.1972 8.92509 11.1238 8.78833 11.0195 8.67703L11.817 7.87951C13.2549 6.42854 13.2455 4.08075 11.817 2.62055ZM10.6904 9.58121C10.5235 9.74716 10.2242 9.73324 10.0369 9.54599L8.02971 7.53896C7.94343 7.45439 7.80496 7.45579 7.7204 7.54207C7.63701 7.62712 7.63701 7.76323 7.7204 7.84828L10.1527 10.2806C10.3245 10.4506 10.326 10.7276 10.156 10.8994C9.98603 11.0713 9.70896 11.0727 9.53716 10.9028C9.53611 10.9017 9.53506 10.9007 9.53401 10.8996L7.15471 8.52115C7.06843 8.43658 6.92996 8.43798 6.8454 8.52426C6.76205 8.60931 6.76205 8.74541 6.8454 8.83046L8.86603 10.8505C9.03097 11.0298 9.01929 11.3089 8.83996 11.4738C8.68793 11.6137 8.41602 11.6378 8.20086 11.4227L6.24873 9.47009C6.16416 9.38381 6.0257 9.38241 5.93942 9.46698C5.85315 9.55155 5.85175 9.69002 5.93631 9.77629C5.93732 9.77734 5.93837 9.77839 5.93942 9.7794L7.03317 10.8736C7.20161 11.045 7.20056 11.32 7.03081 11.4901C6.85331 11.6676 6.53845 11.6237 6.36047 11.4388C4.10035 9.18042 2.49241 7.57011 2.49241 7.57011C1.21101 6.28959 1.21031 4.21274 2.49083 2.93135C3.60335 1.81809 5.34971 1.65192 6.65224 2.53537C6.62122 2.56437 6.58832 2.59023 6.55809 2.62046L3.71325 5.46548C3.55304 5.60149 3.47162 5.80878 3.49643 6.01747C3.56227 6.27533 3.74825 6.48573 3.99609 6.58272C4.68476 6.94405 5.53062 6.79443 6.05348 6.21872L6.99988 5.27158L10.6904 8.96206C10.8613 9.13313 10.8613 9.41024 10.6904 9.58121ZM10.7124 8.36549L7.69856 5.35168C8.5065 5.52655 9.34728 5.26921 9.91896 4.67216C10.0052 4.58759 10.0066 4.44912 9.92207 4.36285C9.8375 4.27657 9.69903 4.27517 9.61276 4.35974C9.61171 4.36075 9.61066 4.3618 9.60965 4.36285C8.96351 5.01061 7.96745 5.15437 7.16451 4.71573C7.13388 4.70178 7.10037 4.6953 7.06673 4.69683C7.0064 4.69005 6.94606 4.70991 6.90153 4.75121L5.74412 5.90949C5.3075 6.34612 4.71512 6.46814 4.19538 6.19317C4.01206 6.09959 3.93729 6.00605 3.92854 5.94966C3.91892 5.88898 3.98323 5.81421 4.02256 5.77492L6.86736 2.92991C6.9073 2.88996 6.95026 2.85496 6.99174 2.81751C8.33556 1.60354 10.4091 1.7088 11.6231 3.05267C12.794 4.34889 12.7433 6.33549 11.5077 7.5702L10.7124 8.36549Z" fill="#0F0F0F"/>
</svg>
