<svg width="20" height="20" viewBox="0 0 20 20" xmlns="http://www.w3.org/2000/svg"><title>audio/handset-alert_20</title><path d="M14.995629 16c-.2749236 0-.4998611-.225-.4998611-.5l0-2c0-.275.2249375-.5.4998611-.5.2749236 0 .4998611.225.4998611.5l0 2c0 .275-.2249375.5-.4998611.5zm.0028992.5c.2749236 0 .4998611.225.4998611.5 0 .275-.2249375.5-.4998611.5-.2749236 0-.4998611-.225-.4998611-.5 0-.275.2249375-.5.4998611-.5zm3.8056425 1.5c.1219661 0 .1609553-.071.1739517-.095.0309914-.056.0289919-.126-.0049986-.178l-3.7539569-5.604c-.0549848-.087-.1289642-.123-.2189392-.123l-.0029992 0c-.089975 0-.1639544.036-.2039433.099l-.1629547.243-3.2590944 4.866-.3628992.542c-.0189947.031-.0199944.098.0099972.153.0149959.026.053985.097.1739517.097l7.6118849 0zM6.71852888 12.285c1.39461249 1.394 2.88419859 2.579 4.37678382 3.529l1.9934461-2.977c-.1349625.033-.269925.063-.3968897.126l-.9817272.491c-.5238544.26-1.1576783.191-1.6165508-.175-1.6865314-1.355-3.28708666-2.944-4.39077998-4.362-.35690083-.459-.42088306-1.088-.16295472-1.604l.49886138-.998c.26392666-.529.28192166-1.143.04898639-1.685l-.74079416-1.723C5.10897612 2.356 4.56812641 2 3.9692928 2L2.00583838 2c-.31291306 0-.6028325.142-.79577889.39-.18894749.242-.253929438.551-.17795055.846.72779777 2.867 2.79922219 6.166 5.68641994 9.049zm13.10135962 4.909c.2269369.361.240933.819.0339905 1.193-.2109414.384-.6038322.613-1.0497083.613l-7.6118849 0c-.4448764 0-.8377672-.229-1.0487086-.613-.20694252-.374-.19394613-.832.0339905-1.193l.3628992-.542-.0059983 0c-1.54757002-.987-3.08714222-2.223-4.52374304-3.66C3.0015617 9.986.83316422 6.518.0613786723 3.481c-.150958054-.596-.0199944442-1.218.3589002747-1.705C.804172276 1.283 1.38201171 1 2.00583838 1L3.9692928 1c.99872249 0 1.90147165.593 2.29636192 1.512l.74179388 1.724c.34890306.813.32291028 1.733-.07397944 2.525l-.49986111 1c-.08797555.175-.06498194.383.05898361.542 1.04171055 1.339 2.62227137 2.907 4.22682554 4.195.1549569.125.3688975.149.5438489.062l.9807275-.49c.4878644-.245 1.0227158-.329 1.5515688-.288l.0059984 0 .1459594-.216c.2229381-.354.6158289-.566 1.0497083-.566l.0029992 0c.4348792 0 .8267703.212 1.0497083.566l3.7699525 5.628z" fill-rule="evenodd"/></svg>