<svg width="16" height="12" viewBox="0 0 16 12" xmlns="http://www.w3.org/2000/svg"><title>audio/headset-alert_12</title><path d="M14.8807 11.0001l-5.763 0c-.064 0-.094-.036-.104-.146l2.881-4.799c.028-.048.078-.055.104-.055-.012-.012.075.006.104.054l2.884 4.888c-.012.022-.042.058-.106.058zm-4.881-4l0-1.903c.375.138.665.427.832.785l-.854 1.424c.009-.102.022-.203.022-.306zm-4 4c-.271 0-.5-.229-.5-.5 0-.271.229-.5.5-.5.271 0 .5.229.5.5 0 .271-.229.5-.5.5zm-4-3.085c-.582-.207-1-.763-1-1.415 0-.652.418-1.208 1-1.414l0 2.829zm13.842 2.424c.205.339.211.749.016 1.095-.197.349-.572.566-.977.566l-5.763 0c-.405 0-.78-.217-.977-.566-.195-.345-.189-.755.015-1.095-.213.139-.437.264-.677.361-.099.731-.723 1.3-1.479 1.3-.825 0-1.5-.675-1.5-1.5 0-.825.675-1.5 1.5-1.5.535 0 1.003.286 1.269.711 1.035-.491 1.731-1.551 1.731-2.711l0-3c0-1.654-1.346-3-3-3-1.654 0-3 1.346-3 3l0 4.5c0 .276-.223.5-.5.5-1.379 0-2.5-1.121-2.5-2.5 0-1.207.86-2.217 2-2.45l0-.05c0-2.205 1.794-3.999 3.999-4l.001 0 .002 0c2.204.001 3.998 1.795 3.998 4l0 .055c.642.135 1.174.53 1.529 1.054.145-.066.303-.109.47-.109l.001 0c.398 0 .757.202.96.539.001 0 .001.001.001.001l2.881 4.799zm-4.3418-2.839l0 1c0 .275.225.5.5.5.275 0 .5-.225.5-.5l0-1c0-.275-.225-.5-.5-.5-.275 0-.5.225-.5.5zm.5 2c-.276 0-.5.224-.5.5 0 .276.224.5.5.5.276 0 .5-.224.5-.5 0-.276-.224-.5-.5-.5z" fill="#000" fill-rule="evenodd"/></svg>