<svg width="12" height="12" viewBox="0 0 12 12" xmlns="http://www.w3.org/2000/svg"><title>audio/headset_12</title><path d="M9.875 7.946C9.951 7.638 10 7.323 10 7l0-1.908c.58.207 1 .757 1 1.408 0 .697-.48 1.279-1.125 1.446zM6.5 11c-.276 0-.5-.225-.5-.5 0-.276.224-.5.5-.5.275 0 .5.224.5.5 0 .275-.225.5-.5.5zM2 7.914c-.583-.206-1-.762-1-1.414 0-.651.416-1.206 1-1.413l0 2.827zm8-3.864L10 4c0-2.206-1.795-4-4-4-2.206 0-4 1.794-4 4l0 .05C.86 4.282 0 5.293 0 6.5 0 7.879 1.121 9 2.5 9c.276 0 .5-.224.5-.5l0-3.946c.001-.017.002-.036.002-.054 0-.019-.001-.036-.002-.054L3 4c0-1.655 1.345-3 3-3 1.654 0 3 1.345 3 3l0 .485c0 .005-.003.01-.003.015 0 .005.003.009.003.014L9 7c0 1.015-.531 1.965-1.377 2.515C7.348 9.202 6.949 9 6.5 9 5.671 9 5 9.672 5 10.5c0 .828.671 1.5 1.5 1.5.828 0 1.5-.672 1.5-1.5 0-.016-.005-.032-.005-.047.612-.358 1.111-.863 1.458-1.463.016.002.03.01.047.01C10.878 9 12 7.879 12 6.5c0-1.206-.859-2.215-2-2.45z" fill="#000" fill-rule="evenodd"/></svg>