<svg width="20" height="20" viewBox="0 0 20 20" fill="none" xmlns="http://www.w3.org/2000/svg">
<path fill-rule="evenodd" clip-rule="evenodd" d="M20 15C20 17.7614 17.7614 20 15 20C12.2386 20 10 17.7614 10 15C10 12.2386 12.2386 10 15 10C17.7614 10 20 12.2386 20 15ZM17.8796 13.8254C18.0593 13.6157 18.0351 13.3001 17.8254 13.1204C17.6157 12.9407 17.3001 12.9649 17.1204 13.1746L14.4718 16.2647L12.8536 14.6464C12.6583 14.4512 12.3417 14.4512 12.1464 14.6464C11.9512 14.8417 11.9512 15.1583 12.1464 15.3536L14.1464 17.3536C14.2449 17.452 14.38 17.505 14.5192 17.4996C14.6584 17.4943 14.789 17.4311 14.8796 17.3254L17.8796 13.8254Z" fill="#00A0D1"/>
<path fill-rule="evenodd" clip-rule="evenodd" d="M10 3C7.79086 3 6 4.79086 6 7V12.5C6 12.7761 5.77614 13 5.5 13H5C3.34315 13 2 11.6569 2 10C2 8.34315 3.34315 7 5 7C5 4.23858 7.23858 2 10 2C12.7614 2 15 4.23858 15 7H15.5C16.8807 7 18 8.11929 18 9.5C18 9.77614 17.7761 10 17.5 10C17.2239 10 17 9.77614 17 9.5C17 8.67157 16.3284 8 15.5 8H15V9C15 9.27614 14.7761 9.5 14.5 9.5C14.2239 9.5 14 9.27614 14 9V7C14 4.79086 12.2091 3 10 3ZM5 8C3.89543 8 3 8.89543 3 10C3 11.1046 3.89543 12 5 12V8ZM9.37257 14.5485C9.55673 14.7543 9.53922 15.0704 9.33346 15.2545C9.12808 15.4383 9 15.7039 9 16C9 16.4346 9.27755 16.8057 9.66662 16.9432C9.92698 17.0353 10.0634 17.3209 9.97142 17.5813C9.8794 17.8416 9.59374 17.9781 9.33338 17.8861C8.55726 17.6117 8 16.8716 8 16C8 15.4076 8.25818 14.8749 8.66654 14.5094C8.87231 14.3252 9.1884 14.3427 9.37257 14.5485Z" fill="#121212"/>
</svg>
