<svg width="16" height="16" viewBox="0 0 16 16" xmlns="http://www.w3.org/2000/svg"><title>audio/headset-muted_16</title><path d="M12.9949239 10.0029985l0-3.998001c1.1025693 0 1.999219.89755123 1.999219 1.9990005 0 1.10344828-.8966497 1.9990005-1.999219 1.9990005zm-4.99804768 4.9975013c-.55178446 0-.99960953-.4467767-.99960953-.9995003 0-.5507246.44782507-.9995002.99960953-.9995002.55178446 0 .99960953.4487756.99960953.9995002 0 .5527236-.44782507.9995003-.99960953.9995003zm-4.99804764-4.9975013c-1.10256931 0-1.999219052-.89555222-1.999219052-1.9990005 0-1.10144927.896649742-1.9990005 1.999219052-1.9990005l0 3.998001zm9.99609532-4.99750125l0-.007996c0-.3918041-.0559782-.76861569-.1419446-1.13643178L15.8538071.861569215c.1949239-.195902049.1949239-.511744128 0-.707646177-.1949239-.1949025482-.5118001-.1949025482-.7067239 0L12.4761265 2.82458771C11.6644436 1.15942029 9.97010543 0 7.99687622 0 5.24095275 0 2.99882858 2.24287856 2.99882858 4.99750125l0 .007996C1.34547442 5.00549725 0 6.35082459 0 8.003998c0 1.65317341 1.34547442 2.9985008 2.99882858 2.9985008l.49980477 0c.27589223 0 .49980476-.2228886.49980476-.4997502l0-5.50524735c0-2.20389805 1.79329949-3.998001 3.99843811-3.998001 1.70333464 0 3.15076928 1.07546227 3.72554468 2.57871064L.152940258 15.1464268c-.1949238582.195902-.1949238582.5117441 0 .7076462C.249902382 15.9510245.377852401 16 .505802421 16c.127950019 0 .255900039-.0489755.353861773-.145927L11.9693245 4.74462769c.0059976.08495752.0259898.16691654.0259898.25287356l0 4.60569715c-.0379851 1.5292354-.9426318 2.8325837-2.23912531 3.4682659-.33486919-.6316842-.99261226-1.0694653-1.75931277-1.0694653-1.10356892 0-1.99921905.8955522-1.99921905 1.9990005C5.99765717 15.1054473 6.8933073 16 7.99687622 16c1.08657556 0 1.96623194-.8665667 1.99422101-1.946027 1.31148767-.5737131 2.33208907-1.6781609 2.77091757-3.0514742l.2329091 0c1.6533541 0 2.9988285-1.34532739 2.9988285-2.9985008 0-1.65317341-1.3454744-2.99850075-2.9988285-2.99850075z" fill="#000" fill-rule="evenodd"/></svg>