<svg width="16" height="16" viewBox="0 0 16 16" xmlns="http://www.w3.org/2000/svg"><title>alerts-and-notifications/help-circle-active_16</title><path d="M8 0c4.418 0 8 3.582 8 8 0 4.418-3.582 8-8 8-4.418 0-8-3.582-8-8 0-4.418 3.582-8 8-8zm-.3301 12.1426c-.1.09-.15.22-.15.35 0 .07.01.13.04.19.02.06.06.12.11.16.09.1.22.15.35.15.06 0 .13-.01.19-.04.06-.02.12-.06.16-.11.05-.04.09-.1.11-.16.03-.06.04-.12.04-.19 0-.13-.05-.26-.15-.35-.18-.19-.52-.19-.7 0zm.4082-9.127c-.801-.021-1.566.274-2.144.837-.603.585-.934 1.38-.934 2.239 0 .277.224.5.5.5.276 0 .5-.223.5-.5 0-.586.224-1.127.631-1.522.383-.373.871-.58 1.419-.554 1.057.03 1.95.954 1.95 2.018 0 .885-.45 1.262-.972 1.698-.112.094-.221.186-.323.279l-.424.391c-.492.452-.781 1.094-.781 1.761l0 .337c0 .277.224.5.5.5.276 0 .5-.223.5-.5l0-.337c0-.388.171-.762.457-1.025l.426-.391c.09-.084.187-.165.287-.248.561-.469 1.33-1.112 1.33-2.465 0-1.618-1.311-2.972-2.922-3.018z" fill-rule="evenodd"/></svg>