<svg width="20" height="20" viewBox="0 0 20 20" xmlns="http://www.w3.org/2000/svg"><title>alerts-and-notifications/help_20</title><path d="M9.6549 1.001c2.905.083 5.358 2.594 5.358 5.483 0 2.453-1.377 3.591-2.483 4.507-.205.17-.406.335-.592.505l-.85.775c-.733.667-1.089 1.395-1.089 2.228 0 .276-.223.5-.5.5-.276 0-.5-.224-.5-.5 0-1.115.476-2.113 1.415-2.968l.85-.773c.198-.181.411-.358.628-.537 1.043-.864 2.121-1.755 2.121-3.737 0-2.363-2.008-4.416-4.386-4.483-1.197-.023-2.333.402-3.2 1.228-.895.852-1.401 2.014-1.427 3.272-.006.276-.239.486-.51.49-.276-.006-.495-.234-.49-.51.031-1.527.648-2.939 1.737-3.976 1.061-1.011 2.45-1.53 3.918-1.504zM9.149 18.1484c.18-.189.52-.189.7 0 .1.091.15.221.15.351 0 .129-.05.259-.15.349-.04.05-.1.09-.16.111-.06.03-.12.04-.19.04-.07 0-.13-.01-.19-.04-.06-.021-.12-.061-.16-.111-.1-.09-.15-.22-.15-.349 0-.13.05-.26.15-.351z" fill-rule="evenodd"/></svg>