<svg width="21" height="20" viewBox="0 0 21 20" xmlns="http://www.w3.org/2000/svg"><title>alerts-and-notifications/help-circle_20_y2</title><path d="M11.5 1c5.247 0 9.5 4.253 9.5 9.5 0 5.247-4.253 9.5-9.5 9.5C6.253 20 2 15.747 2 10.5 2 5.253 6.253 1 11.5 1zm0 18c4.687 0 8.5-3.813 8.5-8.5C20 5.813 16.187 2 11.5 2 6.813 2 3 5.813 3 10.5c0 4.687 3.813 8.5 8.5 8.5zm.0903-13.999c1.88.053 3.41 1.592 3.41 3.432 0 1.542-.906 2.276-1.567 2.812-.12.098-.238.193-.347.291l-.511.456c-.365.326-.575.781-.575 1.249l0 .256c0 .276-.224.5-.5.5-.277 0-.5-.224-.5-.5l0-.256c0-.752.331-1.479.909-1.995l.51-.455c.121-.108.251-.214.384-.322.616-.5 1.197-.971 1.197-2.036 0-1.282-1.117-2.395-2.438-2.432-.684-.036-1.325.229-1.808.7-.487.473-.754 1.113-.754 1.8 0 .276-.224.5-.5.5-.277 0-.5-.224-.5-.5 0-.96.375-1.854 1.056-2.517.68-.66 1.581-1.013 2.534-.983zm-.4507 10.1489c.18-.19.52-.19.71 0 .09.09.14.22.14.35 0 .13-.05.26-.14.35-.05.05-.11.09-.17.11-.06.03-.12.04-.19.04-.13 0-.26-.05-.35-.15-.09-.09-.15-.22-.15-.35 0-.07.02-.13.04-.19.03-.06.06-.12.11-.16z" fill="#D69700" fill-rule="evenodd"/></svg>