<svg width="16" height="16" viewBox="0 0 16 16" xmlns="http://www.w3.org/2000/svg"><title>alerts-and-notifications/help_16</title><path d="M8 14.999c.276 0 .5.224.5.5 0 .276-.224.5-.5.5-.276 0-.5-.224-.5-.5 0-.276.224-.5.5-.5zm4.9155-10.9331c.105.578.112 1.159.022 1.726-.207 1.295-1.041 2.465-2.288 3.209l-.248.148c-1.173.699-1.902 1.982-1.902 3.349 0 .276-.223.501-.5.501-.276 0-.5-.224-.5-.5 0-1.717.916-3.33 2.39-4.209l.248-.148c.992-.592 1.653-1.506 1.813-2.507.072-.456.066-.923-.019-1.39-.284-1.565-1.516-2.833-3.065-3.155-1.214-.252-2.449.04-3.388.804-.939.764-1.479 1.896-1.479 3.105 0 .276-.223.5-.5.5-.276 0-.5-.224-.5-.5 0-1.512.674-2.926 1.848-3.881 1.174-.954 2.712-1.323 4.223-1.007 1.944.404 3.489 1.994 3.845 3.955z" fill="#000" fill-rule="evenodd"/></svg>