<svg width="72" height="72" viewBox="0 0 72 72" xmlns="http://www.w3.org/2000/svg"><title>alerts-and-notifications/help-circle_72</title><path d="M36 0c19.882 0 36 16.118 36 36 0 19.882-16.118 36-36 36C16.118 72 0 55.882 0 36 0 16.118 16.118 0 36 0zm0 71c19.299 0 35-15.701 35-35C71 16.701 55.299 1 36 1 16.701 1 1 16.701 1 36c0 19.299 15.701 35 35 35zm.2832-53.998c5.809.167 10.717 5.238 10.717 11.074 0 4.925-2.67 7.151-5.026 9.114-.445.371-.879.733-1.282 1.104l-1.785 1.643c-1.643 1.51-2.407 3.129-2.407 5.096l0 .467c0 .276-.224.5-.5.5-.277 0-.5-.224-.5-.5l0-.467c0-2.235.892-4.143 2.729-5.832l1.785-1.642c.415-.382.862-.755 1.32-1.137 2.294-1.912 4.666-3.89 4.666-8.346 0-5.309-4.463-9.923-9.746-10.074-2.617-.079-5.121.881-7.032 2.694-2.007 1.903-3.15 4.516-3.219 7.356-.007.276-.208.485-.512.488-.276-.007-.495-.236-.488-.512.076-3.108 1.33-5.97 3.531-8.058 2.105-1.996 4.869-3.046 7.749-2.968zm-.4727 37.0278c.18-.07.399-.03.539.11.101.09.15.22.15.36 0 .13-.049.26-.15.35-.09.09-.22.15-.35.15-.07 0-.129-.02-.189-.04-.061-.03-.12-.07-.16-.11-.101-.09-.151-.22-.151-.35 0-.14.05-.27.151-.36.04-.04.099-.08.16-.11z" fill="#000" fill-rule="evenodd"/></svg>