<svg width="10" height="10" viewBox="0 0 10 10" xmlns="http://www.w3.org/2000/svg"><title>format/hide_10</title><path d="M5 8c-.624 0-1.211-.184-1.766-.527l4.329-4.328c.513.48.996 1.096 1.435 1.868C8.201 6.376 6.859 8 5 8M1.002 4.987C1.799 3.625 3.14 2 5 2c.625 0 1.212.184 1.765.528L2.437 6.855c-.513-.48-.996-1.096-1.435-1.868m7.263-2.545L9.854.854c.195-.196.195-.512 0-.708-.196-.195-.512-.195-.708 0L7.491 1.802l-.029-.02C6.774 1.323 5.955 1 5 1 2.369 1 .748 3.44.139 4.482.046 4.64 0 4.82 0 5c0 .18.046.36.139.519.293.501.835 1.318 1.596 2.039L.146 9.146c-.195.196-.195.512 0 .708.098.097.226.146.354.146.128 0 .256-.049.354-.146l1.655-1.656.029.02C3.226 8.677 4.045 9 5 9c2.631 0 4.252-2.44 4.861-3.481C9.954 5.36 10 5.18 10 5c0-.18-.046-.36-.139-.518-.293-.501-.835-1.319-1.596-2.04" fill="#000" fill-rule="evenodd"/></svg>