<svg width="24" height="24" viewBox="0 0 24 24" xmlns="http://www.w3.org/2000/svg"><title>format/hide_24</title><path d="M6.17624635 18.5308604l-5.322692959 5.322693c-.195262146.1952621-.511844636.1952621-.707106782 0-.1952621455-.1952622-.1952621455-.5118446 0-.7071068l5.136138681-5.1361387C2.82584197 16.4540062 1.17598021 14.3492107.333 13.0882c-.444-.664-.444-1.512 0-2.176C1.795 8.7242 5.684 4.0002 12 4.0002c2.2489224 0 4.1901399.59892798 5.8236525 1.46904075L23.1464466.146446609c.1952622-.1952621455.5118446-.1952621455.7071068 0 .1952621.195262146.1952621.511844636 0 .707106782L18.7173597 5.98974711C21.1741334 7.54587413 22.8240135 9.65060324 23.667 10.9122c.444.664.444 1.512 0 2.176-1.462 2.187-5.351 6.912-11.667 6.912-2.24896888 0-4.1902201-.5990795-5.82375365-1.4693396zm.74713968-.7471396C8.37192603 18.5103312 10.0657697 19.0002 12 19.0002c5.878 0 9.536-4.524 10.836-6.468.219-.328.219-.736 0-1.064-.7792628-1.1658971-2.4058019-3.25812073-4.8498936-4.74719966L6.92338603 17.7837208zm-.90956173-.5046519L17.0764927 6.21640049C15.6279795 5.48993319 13.9341763 5.0002 12 5.0002c-5.878 0-9.536 4.523-10.836 6.468-.219.328-.219.736 0 1.064.77925547 1.1652866 2.40577114 3.257601 4.8498243 4.7468689z" fill="#000" fill-rule="evenodd"/></svg>