<svg width="32" height="32" viewBox="0 0 32 32" xmlns="http://www.w3.org/2000/svg"><title>navigation/home_32</title><path d="M15.9961 1c.797 0 1.593.274 2.228.822l11.12 9.592c1.051.907 1.656 2.227 1.656 3.615l0 13.971c0 1.104-.896 2-2 2l-8 0c-1.105 0-2-.896-2-2l0-8.318c0-.375-.307-.682-.682-.682l-4.636 0c-.375 0-.682.307-.682.682l0 8.318c0 1.104-.896 2-2 2l-7.929 0c-1.1 0-1.994-.89-2-1.99l-.071-13.965c-.007-1.396.598-2.725 1.654-3.636l11.113-9.587c.635-.548 1.432-.822 2.229-.822zm0 1c-.583 0-1.143.206-1.576.58l-11.112 9.586c-.837.722-1.314 1.769-1.308 2.874l.071 13.965c.003.549.451.995 1 .995l7.929 0c.552 0 1-.448 1-1l0-8.318c0-.928.754-1.682 1.682-1.682l4.636 0c.927 0 1.682.754 1.682 1.682l0 8.318c0 .552.448 1 1 1l8 0c.552 0 1-.448 1-1l0-13.971c0-1.098-.478-2.14-1.31-2.858l-11.12-9.592c-.432-.373-.991-.579-1.574-.579z" fill="#000" fill-rule="evenodd"/></svg>