<svg width="16" height="16" viewBox="0 0 16 16" xmlns="http://www.w3.org/2000/svg"><title>navigation/home-active_16</title><path d="M7.99803672 0c-.425 0-.85.146-1.189.438L.882036717 5.551c-.563.487-.8859999998 1.195-.8819999998 1.94l.037 7.266c.003.687.5619999998 1.243 1.2500000028 1.243l3.463 0c.69 0 1.25-.56 1.25-1.25l0-4.39c0-.199.161-.36.36-.36l3.28 0c.199 0 .35999998.161.35999998.36l0 4.39c0 .69.56 1.25 1.25 1.25l3.5 0c.69 0 1.25-.56 1.25-1.25l0-7.268c0-.74-.322-1.444-.883-1.928L9.18503672.438c-.337-.292-.762-.438-1.187-.438" fill="#000" fill-rule="evenodd"/></svg>