<svg width="24" height="24" viewBox="0 0 24 24" fill="none" xmlns="http://www.w3.org/2000/svg">
<path fill-rule="evenodd" clip-rule="evenodd" d="M18.5001 16C19.8751 16 21.0001 17.125 21.0001 18.5C21.0001 19.875 19.8751 21 18.5001 21H5.5001C4.1251 21 3.0001 19.875 3.0001 18.5C3.0001 17.125 4.1251 16 5.5001 16H18.5001ZM18.5001 3C19.8751 3 21.0001 4.125 21.0001 5.5C21.0001 6.875 19.8751 8 18.5001 8H5.5001C4.1251 8 3.0001 6.875 3.0001 5.5C3.0001 4.125 4.1251 3 5.5001 3H18.5001ZM18.5001 17C19.3271 17 20.0001 17.673 20.0001 18.5C20.0001 19.327 19.3271 20 18.5001 20H5.5001C4.6731 20 4.0001 19.327 4.0001 18.5C4.0001 17.673 4.6731 17 5.5001 17H18.5001ZM21.474 11.5C21.7644 11.5 22 11.724 22 12C22 12.276 21.7644 12.5 21.474 12.5H2.52596C2.23563 12.5 2 12.276 2 12C2 11.724 2.23563 11.5 2.52596 11.5H21.474ZM18.5001 4C19.3271 4 20.0001 4.673 20.0001 5.5C20.0001 6.327 19.3271 7 18.5001 7H5.5001C4.6731 7 4.0001 6.327 4.0001 5.5C4.0001 4.673 4.6731 4 5.5001 4H18.5001Z" fill="#121212"/>
</svg>
