<svg width="32" height="32" viewBox="0 0 32 32" xmlns="http://www.w3.org/2000/svg"><title>navigation/house_32</title><path d="M28 28.3976258c0 1.434-1.178 2.601-2.625 2.601l-4.375 0 0-14.505c0-.277-.224-.5-.5-.5l-9 0c-.276 0-.5.223-.5.5l0 14.505-4.375 0c-1.447 0-2.625-1.167-2.625-2.601l0-14.846c0-.588.227-1.144.632-1.56L15.697 1.12362577c.083-.083.193-.124000002.303-.124000002.109 0 .22.042000002.304.125000002L27.36 11.9836258c.413.424.64.98.64 1.568l0 14.846zm-16 2.601l8 0 0-14.005-8 0 0 14.005zm16.069-19.72L17.007.412625768c-.556-.549-1.459-.551-2.012-.001L3.924 11.2866258c-.596.611-.924 1.416-.924 2.265l0 14.846c0 1.985 1.626 3.601 3.625 3.601l18.75 0c1.999 0 3.625-1.616 3.625-3.601l0-14.846c0-.849-.328-1.654-.931-2.273z" fill="#000" fill-rule="evenodd"/></svg>