<svg width="16" height="16" viewBox="0 0 16 16" xmlns="http://www.w3.org/2000/svg"><title>navigation/house_16</title><path d="M14 14.0001256c0 .5509654-.449.9999372-1 .9999372l-2 0 0-6.49859199c0-.27598267-.224-.49996861-.5-.49996861l-5 0c-.276 0-.5.22398594-.5.49996861l0 6.49859199-2 0c-.551 0-1-.4489718-1-.9999372l0-6.83857066c0-.2309855.096-.45097169.271-.61896114L8.005.996941991 13.729 6.5425938l.001 0c.174.16798945.27.38797564.27.61896114l0 6.83857066zm-8 .9999372l4 0 0-5.99862338-4 0 0 5.99862338zm8.425-9.17642386L8.695.272987446c-.388-.3649770846-1-.3649770846-1.397.005999623L1.575 5.82363894C1.204 6.1826164 1 6.65758658 1 7.16155494l0 6.83857066C1 15.1030563 1.897 16 3 16l10 0c1.103 0 2-.8969437 2-1.9998744l0-6.83857066c0-.50396836-.204-.97893854-.575-1.337916z" fill="#000" fill-rule="evenodd"/></svg>