<svg width="16" height="16" viewBox="0 0 16 16" fill="none" xmlns="http://www.w3.org/2000/svg">
<path fill-rule="evenodd" clip-rule="evenodd" d="M4.00013 10.0235V13.0385L7.032 11.4605L4.00013 10.0235ZM3.96413 14.0025C3.79413 14.0025 3.62114 13.9555 3.46715 13.8625C3.17516 13.6875 3.00017 13.3785 3.00017 13.0385V9.9615C3.00017 9.6215 3.17516 9.3125 3.46715 9.1375C3.76014 8.9615 4.11112 8.9535 4.41411 9.1135L7.47898 10.6455C7.80497 10.8195 7.99996 11.1445 7.99996 11.5005C7.99996 11.8555 7.80496 12.1805 7.49098 12.3485L4.40211 13.8925C4.26711 13.9645 4.11512 14.0025 3.96413 14.0025ZM8.01076 3C5.33987 3 2.87697 3.561 1.23204 4.539C1.05905 4.642 1.01505 4.802 1.00405 4.889C0.986053 5.041 1.03605 5.189 1.14405 5.298L2.248 6.635C2.44599 6.83 2.78998 6.905 3.09196 6.78L4.12292 6.48C4.38991 6.372 4.6309 6.117 4.73789 5.797L4.94589 4.94C5.09788 4.473 5.48186 4.164 5.93384 4.116C6.59482 4.044 7.30279 4.002 7.97776 3.996C7.97876 3.995 8.00076 3.996 8.00376 3.996C8.67873 4.002 9.3867 4.044 10.0497 4.116C10.4987 4.164 10.8826 4.472 11.0266 4.9L11.2716 5.827C11.3686 6.117 11.6106 6.372 11.9226 6.496L12.8616 6.765C13.2065 6.9 13.5545 6.83 13.7825 6.6L14.8235 5.333C14.9635 5.189 15.0145 5.041 14.9955 4.889C14.9855 4.802 14.9415 4.642 14.7685 4.539C13.1225 3.561 10.6596 3 8.01076 3ZM9.99987 10.0235V13.0385L13.0317 11.4605L9.99987 10.0235ZM9.96387 14.0025C9.79388 14.0025 9.62089 13.9555 9.4669 13.8625C9.17491 13.6875 8.99992 13.3785 8.99992 13.0385V9.9615C8.99992 9.6215 9.17491 9.3125 9.4669 9.1375C9.75988 8.9615 10.1119 8.9535 10.4139 9.1135L13.4787 10.6455C13.8047 10.8195 13.9997 11.1445 13.9997 11.5005C13.9997 11.8555 13.8047 12.1805 13.4907 12.3485L10.4019 13.8925C10.2669 13.9645 10.1149 14.0025 9.96387 14.0025ZM2.79498 7.844C2.331 7.844 1.86102 7.659 1.50803 7.307L0.405077 5.97C0.10909 5.677 -0.0459037 5.225 0.0120939 4.765C0.0700914 4.309 0.327081 3.913 0.720064 3.68C2.51599 2.612 5.16488 2 7.98976 2C10.8346 2 13.4845 2.612 15.2804 3.68C15.6724 3.913 15.9304 4.309 15.9884 4.765C16.0454 5.225 15.8914 5.677 15.5634 6.005L14.5235 7.271C13.9805 7.819 13.2145 7.978 12.5366 7.71L11.5996 7.441C10.9656 7.191 10.5147 6.714 10.3137 6.113L10.0687 5.187C10.0587 5.159 10.0047 5.117 9.94267 5.11C9.3107 5.041 8.63973 5.002 7.99776 4.996H7.98176C7.34378 5.002 6.67081 5.041 6.04084 5.11C5.97684 5.117 5.92384 5.158 5.90585 5.216L5.69785 6.073C5.48586 6.714 5.03388 7.191 4.44691 7.426L3.41595 7.726C3.21896 7.805 3.00797 7.844 2.79498 7.844Z" fill="#121212"/>
</svg>
