<svg width="20" height="20" fill="none" xmlns="http://www.w3.org/2000/svg"><path d="M18.4782 9.9625c.1.025.2008.0375.3016.0375.2667 0 .5275-.0883.7459-.2575a1.223 1.223 0 00.4741-.9708V7.7142a1.4924 1.4924 0 00-.9041-1.3734l-.9292-.4c-.4783-.2058-1.0192-.1883-1.4858.0434l-.5292.265c-.0433.0208-.0942.015-.135-.0167-.8567-.6883-1.6992-1.525-2.2533-2.2375-.0325-.0408-.0384-.0933-.0167-.1367l.27-.5391a1.7601 1.7601 0 00.0425-1.485l-.4-.93A1.4926 1.4926 0 0012.2865 0h-1.0583c-.3817 0-.7359.1733-.9709.475-.2325.2992-.3125.6808-.2191 1.0467.4216 1.6616 1.6041 3.5558 3.2441 5.1958 1.64 1.64 3.5342 2.8225 5.1959 3.245zM1 10.4999c0 .116.04.232.121.325l3 3.5c.179.21.495.235.704.054.211-.18.234-.495.054-.704L2.8018 11.25h7.6745c2.5396 0 4.3809 1.797 4.3809 3.75s-1.8413 3.75-4.3809 3.75H.5714c-.3156 0-.5714.2798-.5714.625S.2558 20 .5714 20h9.9048C13.4069 20 16 17.8795 16 15s-2.5931-5-5.5238-5H2.5873l2.2918-2.6751c.18-.209.157-.526-.054-.704a.4973.4973 0 00-.704.054l-3 3.5a.4933.4933 0 00-.121.325z" fill="#121212"/></svg>