<svg width="16" height="16" fill="none" xmlns="http://www.w3.org/2000/svg"><path d="M13.612 8.966a1.12 1.12 0 0 0 .956-.201c.275-.214.432-.536.432-.885v-.807c0-.53-.314-1.007-.8-1.216l-.71-.305a1.535 1.535 0 0 0-1.3.043l-1.317.701a11.322 11.322 0 0 1-1.154-1.152l.693-1.346c.202-.404.215-.873.037-1.288l-.306-.709A1.32 1.32 0 0 0 8.928 1H8.12a1.117 1.117 0 0 0-1.085 1.388C7.37 3.708 8.267 5.146 9.56 6.44c1.294 1.293 2.732 2.19 4.052 2.526Z" fill="#0F0F0F"/><path fill-rule="evenodd" clip-rule="evenodd" d="M6.628 7.03A1.117 1.117 0 0 1 8 8.121v4.77a1.117 1.117 0 0 1-1.374 1.093l-3.203-1.023.541 1.35a.5.5 0 1 1-.927.374l-.85-2.119-.927-.296A1.789 1.789 0 0 1 0 10.553c-.004-.8.482-1.48 1.239-1.731l5.389-1.793Zm.328 5.956A.12.12 0 0 0 7 12.892v-4.77a.117.117 0 0 0-.044-.093.16.16 0 0 0-.087-.025L3 9.292v2.483l3.893 1.243a.204.204 0 0 0 .063-.032ZM1.555 9.774a.791.791 0 0 0-.554.773.792.792 0 0 0 .563.768l.436.139v-1.83l-.445.15Z" fill="#0F0F0F"/></svg>