<svg width="24" height="24" viewBox="0 0 24 24" xmlns="http://www.w3.org/2000/svg"><title>common-actions/import_24</title><path d="M5.647 11.8534c-.196-.195-.196-.512 0-.707.195-.195.511-.195.707 0l5.146 5.146 0-13.793c0-.276.22-.5.496-.5.276 0 .499.224.499.5l0 13.793 5.144-5.146c.195-.195.511-.195.706 0 .195.195.195.512 0 .707l-5.995 6c-.046.046-.102.082-.163.108-.061.026-.126.038-.191.038-.065 0-.13-.012-.191-.038-.061-.026-.117-.062-.163-.108l-5.995-6zM22 11.4999c0-.275.225-.5.5-.5.275 0 .5.225.5.5l0 7.875c0 1.447-1.177 2.625-2.625 2.625l-16.75 0c-1.448 0-2.625-1.178-2.625-2.625l0-7.875c0-.275.225-.5.5-.5.275 0 .5.225.5.5l0 7.926c0 .868.707 1.574 1.575 1.574l16.85 0c.868 0 1.575-.706 1.575-1.574l0-7.926z" fill="#000" fill-rule="evenodd"/></svg>