<svg width="16" height="16" viewBox="0 0 16 16" xmlns="http://www.w3.org/2000/svg"><title>common-actions/import_16</title><path d="M14 7.499c0-.274.225-.5.5-.5.275 0 .5.226.5.5L15 13c0 1.105-.896 2-2 2l-9.999 0c-1.104 0-2-.895-2-2L1 7.499c0-.274.225-.5.5-.5.275 0 .499.226.499.5L2 13c0 .551.448 1 1 1l10 0c.552 0 1-.449 1-1l0-5.501zm-6.35375 4.3545l-4-4c-.195-.195-.195-.512 0-.707.196-.195.512-.195.707 0l3.147 3.146 0-8.793c0-.276.224-.5.5-.5.276 0 .5.224.5.5l0 8.793 3.146-3.146c.196-.195.512-.195.707 0 .196.195.196.512 0 .707l-3.999 4c-.046.045-.102.082-.163.108-.061.026-.126.038-.191.038-.065 0-.13-.012-.191-.038-.062-.026-.117-.063-.163-.108z" fill="#000" fill-rule="evenodd"/></svg>