<svg width="12" height="12" viewBox="0 0 12 12" fill="none" xmlns="http://www.w3.org/2000/svg">
<path fill-rule="evenodd" clip-rule="evenodd" d="M2.74373 0C3.46073 0 4.10773 0.426 4.39073 1.085L4.87073 2.201C5.11773 2.774 5.09873 3.424 4.81973 3.983L4.49573 4.63C4.46973 4.682 4.47673 4.745 4.51573 4.794C5.18073 5.649 6.19173 6.653 7.21973 7.479C7.26873 7.517 7.32973 7.524 7.38173 7.499L8.01673 7.181C8.57673 6.903 9.22573 6.882 9.79973 7.129L10.9147 7.609C11.5747 7.893 11.9997 8.539 11.9997 9.257V10.526C11.9997 10.985 11.7917 11.41 11.4307 11.691C11.1687 11.894 10.8557 12 10.5357 12C10.4147 12 10.2937 11.985 10.1737 11.955C8.17973 11.448 5.90673 10.029 3.93873 8.061C1.97073 6.093 0.551731 3.82 0.0457309 1.826C-0.0662691 1.387 0.0297309 0.929 0.308731 0.57C0.590731 0.208 1.01573 0 1.47373 0H2.74373ZM7.49988 0C7.77487 0 7.99987 0.225992 7.99987 0.499983V3.29289L11.1458 0.145995C11.3418 -0.0479984 11.6578 -0.0479984 11.8538 0.145995C12.0487 0.341989 12.0487 0.657978 11.8538 0.853972L8.70684 3.99987H11.4998C11.7738 3.99987 11.9998 4.22586 11.9998 4.49985C11.9998 4.77484 11.7738 4.99983 11.4998 4.99983H7.49988C7.43488 4.99983 7.36988 4.98583 7.30888 4.96083C7.26989 4.94384 7.23689 4.91684 7.20389 4.89184C7.18589 4.87784 7.16289 4.86984 7.14589 4.85384C7.12989 4.83684 7.12289 4.81484 7.10889 4.79784C7.08289 4.76384 7.05589 4.73084 7.03889 4.69084C7.01389 4.62985 6.99989 4.56485 6.99989 4.49985V0.499983C6.99989 0.225992 7.22489 0 7.49988 0Z" fill="#121212"/>
</svg>
