<svg width="18" height="18" viewBox="0 0 18 18" fill="none" xmlns="http://www.w3.org/2000/svg">
<path fill-rule="evenodd" clip-rule="evenodd" d="M7.50012 1C5.01484 1 3.00012 3.01472 3.00012 5.5V7.07743C2.3349 6.94591 1.68561 6.78258 0.898058 6.58447L0.621834 6.51504C0.353999 6.44782 0.0823811 6.61045 0.0151595 6.87828C-0.0520621 7.14612 0.110568 7.41774 0.378403 7.48496L0.664825 7.55697L0.664837 7.55698C1.84489 7.85394 2.77006 8.08676 3.91736 8.24529C5.15617 8.41647 6.64295 8.5 9.0001 8.5C13.1106 8.5 15.3582 7.99253 16.9163 7.64077C17.1604 7.58564 17.3877 7.53434 17.6025 7.48941C17.8728 7.43288 18.0461 7.16794 17.9895 6.89764C17.933 6.62735 17.6681 6.45406 17.3978 6.51059C17.1777 6.55661 16.9471 6.60865 16.701 6.6642C16.2092 6.7752 15.6554 6.90019 15.0001 7.01902V5.5C15.0001 3.01472 12.9854 1 10.5001 1H7.50012ZM14.0001 7.18106V5.5C14.0001 3.567 12.4331 2 10.5001 2H7.50012C5.56712 2 4.00012 3.567 4.00012 5.5V7.24715C4.0181 7.24969 4.03614 7.25221 4.05424 7.25471C5.22775 7.41686 6.66284 7.5 9.0001 7.5C11.1253 7.5 12.7305 7.36239 14.0001 7.18106ZM4.75012 15.5C5.99276 15.5 7.00012 14.4926 7.00012 13.25C7.00012 12.0074 5.99276 11 4.75012 11C3.50748 11 2.50012 12.0074 2.50012 13.25C2.50012 14.4926 3.50748 15.5 4.75012 15.5ZM4.75012 16.5C6.54504 16.5 8.00012 15.0449 8.00012 13.25C8.00012 12.9919 7.97002 12.7408 7.91315 12.5H10.0871C10.0302 12.7408 10.0001 12.9919 10.0001 13.25C10.0001 15.0449 11.4552 16.5 13.2501 16.5C15.045 16.5 16.5001 15.0449 16.5001 13.25C16.5001 11.4551 15.045 10 13.2501 10C12.0995 10 11.0885 10.598 10.511 11.5001L10.5001 11.5H7.50012L7.48928 11.5001C6.91176 10.598 5.90077 10 4.75012 10C2.95519 10 1.50012 11.4551 1.50012 13.25C1.50012 15.0449 2.95519 16.5 4.75012 16.5ZM13.2501 15.5C14.4928 15.5 15.5001 14.4926 15.5001 13.25C15.5001 12.0074 14.4928 11 13.2501 11C12.0075 11 11.0001 12.0074 11.0001 13.25C11.0001 14.4926 12.0075 15.5 13.2501 15.5Z" fill="#121212"/>
</svg>
