<svg width="12" height="12" viewBox="0 0 12 12" xmlns="http://www.w3.org/2000/svg"><title>phone/incoming-call-legacy_12</title><path d="M10.9997787 10.5260491l0-1.26995764c0-.31698943-.1879946-.6029799-.4799862-.72797573l-1.11496793-.48098397c-.14199592-.059998-.29199161-.089997-.44098733-.089997-.17199506 0-.34299014.03999867-.49898566.11899604l-.63598173.31698943c-.16199534.07999733-.33699031.11899603-.51198528.11899603-.25799259 0-.51498521-.08599713-.72297923-.25399153-1.10096836-.88297057-2.14693831-1.92193594-2.86791759-2.849905-.27299216-.3509883-.32199075-.8309723-.12399644-1.22595914l.32299072-.64597847c.14699578-.2939902.15699549-.63697876.02599925-.9419686l-.47798626-1.11396287c-.12599638-.29199026-.41198816-.479984-.72997903-.479984l-1.26896353 0c-.14799575 0-.28499181.06699777-.37498923.1829939-.0519985.06799774-.132996177.20799307-.08499756.39798674.46398667 1.8239392 1.78694866 3.92786907 3.63189564 5.77280757 1.84494699 1.8449385 3.94988651 3.16789444 5.77383409 3.63187894.0399989.0099997.0789977.0139995.1139967.0139995.1319962 0 .2299934-.057998.280992-.0979967.1179966-.090997.1849946-.2289924.1849946-.3759875zm-.0859975-2.91690274c.6589811.2819906 1.0859688.929969 1.0859688 1.6469451l0 1.26995764c0 .4589847-.207994.8829706-.5699836 1.1649612C11.1687739 11.8940035 10.8547829 12 10.5347921 12c-.1199966 0-.2409931-.0149995-.3609896-.0449985-1.99294276-.5059831-4.26687742-1.9259358-6.23582084-3.8938702C1.97103818 6.09219693.551078978 3.82027266.0450935169 1.82633912-.0659032937 1.38535382.0300939479.927369088.310085903.569381021.5920778.208393054 1.01606562.0003999867 1.47405246.0003999867l1.26896353 0c.71797937 0 1.36396081.4249858333 1.64795265 1.0849638333l.47898624 1.1159628c.2469929.57498084.22899342 1.2239592-.05099854 1.7819406l-.32299072.64697844c-.02599925.05299823-.01899945.11599613.01899946.16399453.66698083.85597147 1.67695181 1.859938 2.70592224 2.6849105.0279992.02299924.06299819.03399887.09699722.03399887.02199937 0 .04399873-.00499983.06499813-.01399953l.63398178-.3179894c.29699147-.14899504.62098216-.22399254.94597282-.22399254.28299187 0 .56798368.0569981.83697595.17199427l0 .00099997 1.11396798.47898403zm.5859832-3.60927969c.2739921 0 .4999856.22599247.4999856.49998333 0 .27499084-.2259935.49998334-.4999856.49998334l-3.99988509 0c-.06499813 0-.12999627-.01399953-.19099451-.0389987-.03899888-.01699943-.07199793-.04399853-.10499699-.0689977-.01799948-.01399953-.04099882-.02199927-.05799833-.03799873-.01599954-.01699944-.02299934-.0389987-.03699894-.05599814-.02599925-.03399886-.05299847-.06699776-.06999799-.10699643-.02499928-.06099797-.03899888-.1259958-.03899888-.19099364l0-3.999866666C6.99989367.225992467 7.22488721 0 7.49987931 0c.2749921 0 .49998563.225992467.49998563.499983334l0 2.792906906L11.1457745.145995133c.1959944-.1939935331.5119853-.1939935331.7079797 0 .1949944.195993467.1949944.511982934 0 .707976401L8.70684463 3.99986667l2.79291977 0z" fill-rule="evenodd"/></svg>