<svg width="40" height="40" viewBox="0 0 40 40" fill="none" xmlns="http://www.w3.org/2000/svg">
<path fill-rule="evenodd" clip-rule="evenodd" d="M14.7775 2.99756C10.6353 2.99756 7.27746 6.35542 7.27746 10.4976V16.5309C5.05072 16.1729 3.07628 15.686 0.621834 15.07C0.353999 15.0028 0.0823812 15.1654 0.0151595 15.4333C-0.0520621 15.7011 0.110568 15.9727 0.378403 16.0399C6.31625 17.5302 9.52264 18.2772 20.0003 18.2772C29.3659 18.2772 34.8114 17.0875 38.3909 16.3056L38.391 16.3055C38.8205 16.2117 39.2232 16.1237 39.6025 16.0444C39.8728 15.9879 40.0461 15.7229 39.9895 15.4526C39.933 15.1823 39.6681 15.009 39.3978 15.0656C39.0166 15.1453 38.6129 15.2335 38.1832 15.3273L38.1827 15.3275L38.1823 15.3276C36.7152 15.648 34.944 16.035 32.7219 16.3794V10.4976C32.7219 6.35542 29.364 2.99756 25.2219 2.99756H14.7775ZM31.7219 16.5268V10.4976C31.7219 6.90771 28.8118 3.99756 25.2219 3.99756H14.7775C11.1876 3.99756 8.27746 6.90771 8.27746 10.4976V16.6803C11.1588 17.0784 14.5968 17.2772 20.0003 17.2772C24.8925 17.2772 28.6963 16.9502 31.7219 16.5268ZM10.5001 35.9998C14.09 35.9998 17.0001 33.0896 17.0001 29.4998C17.0001 25.9099 14.09 22.9998 10.5001 22.9998C6.91027 22.9998 4.00012 25.9099 4.00012 29.4998C4.00012 33.0896 6.91027 35.9998 10.5001 35.9998ZM10.5001 36.9998C14.6423 36.9998 18.0001 33.6419 18.0001 29.4998C18.0001 28.6238 17.8499 27.7828 17.5739 27.0013H22.4264C22.1503 27.7828 22.0001 28.6238 22.0001 29.4998C22.0001 33.6419 25.358 36.9998 29.5001 36.9998C33.6423 36.9998 37.0001 33.6419 37.0001 29.4998C37.0001 25.3577 33.6423 21.9998 29.5001 21.9998C26.6215 21.9998 24.1216 23.6216 22.8644 26.0013H17.1358C15.8786 23.6216 13.3788 21.9998 10.5001 21.9998C6.35798 21.9998 3.00012 25.3577 3.00012 29.4998C3.00012 33.6419 6.35798 36.9998 10.5001 36.9998ZM29.5001 35.9998C33.09 35.9998 36.0001 33.0896 36.0001 29.4998C36.0001 25.9099 33.09 22.9998 29.5001 22.9998C25.9103 22.9998 23.0001 25.9099 23.0001 29.4998C23.0001 33.0896 25.9103 35.9998 29.5001 35.9998Z" fill="#121212"/>
</svg>
