<svg width="14" height="14" viewBox="0 0 14 14" xmlns="http://www.w3.org/2000/svg"><title>alerts-and-notifications/info_14</title><path d="M7 13c3.309 0 6-2.691 6-6 0-3.309-2.691-6-6-6-3.309 0-6 2.691-6 6 0 3.309 2.691 6 6 6zM7 0c3.866 0 7 3.134 7 7 0 3.866-3.134 7-7 7-3.866 0-7-3.134-7-7 0-3.866 3.134-7 7-7zm0 4c.276 0 .5.224.5.5 0 .276-.224.5-.5.5-.276 0-.5-.224-.5-.5 0-.276.224-.5.5-.5zm0 2c.275 0 .5.225.5.5l0 3c0 .275-.225.5-.5.5-.275 0-.5-.225-.5-.5l0-3c0-.275.225-.5.5-.5z" fill-rule="evenodd"/></svg>