<svg width="40" height="40" viewBox="0 0 40 40" xmlns="http://www.w3.org/2000/svg"><title>alerts-and-notifications/info-active_40</title><path d="M20 0C8.972 0 0 8.972 0 20c0 11.028 8.972 20 20 20 11.028 0 20-8.972 20-20C40 8.972 31.028 0 20 0zm0 16c.276 0 .5.224.5.5l0 12c0 .276-.224.5-.5.5-.276 0-.5-.224-.5-.5l0-12c0-.276.224-.5.5-.5zm0-4.9976c.07 0 .13.01.19.04.06.02.12.06.16.11.1.09.15.22.15.35 0 .13-.05.26-.15.36-.04.04-.1.08-.16.1-.12.05-.26.05-.38 0-.06-.02-.12-.06-.16-.1-.1-.1-.15-.23-.15-.36 0-.13.05-.26.15-.35.09-.1.22-.15.35-.15z" fill="#000" fill-rule="evenodd"/></svg>