<svg width="18" height="18" viewBox="0 0 18 18" xmlns="http://www.w3.org/2000/svg"><title>alerts-and-notifications/info_18</title><path d="M9.0001 0c4.97 0 9 4.029 9 9 0 4.971-4.03 9-9 9-4.971 0-9-4.029-9-9 0-4.971 4.029-9 9-9zm0 17c4.411 0 8-3.589 8-8 0-4.411-3.589-8-8-8-4.411 0-8 3.589-8 8 0 4.411 3.589 8 8 8zm0-12c.276 0 .5.224.5.5 0 .276-.224.5-.5.5-.276 0-.5-.224-.5-.5 0-.276.224-.5.5-.5zm0 3c.275 0 .5.225.5.5l0 4c0 .275-.225.5-.5.5-.275 0-.5-.225-.5-.5l0-4c0-.275.225-.5.5-.5z" fill="#000" fill-rule="evenodd"/></svg>