<svg width="16" height="16" viewBox="0 0 16 16" xmlns="http://www.w3.org/2000/svg"><title>activities/input_16</title><path d="M8.5 15c-3.416 0-6.218-2.649-6.475-6l7.268 0-2.147 2.146c-.195.196-.195.512 0 .708.098.097.226.146.354.146.128 0 .256-.049.354-.146l3-3c.195-.196.195-.512 0-.708l-3-3c-.196-.195-.512-.195-.708 0-.195.196-.195.512 0 .708L9.293 8 2.025 8C2.282 4.649 5.084 2 8.5 2 12.084 2 15 4.916 15 8.5c0 3.584-2.916 6.5-6.5 6.5m0-14C4.364 1 1 4.364 1 8.5 1 12.636 4.364 16 8.5 16c4.136 0 7.5-3.364 7.5-7.5C16 4.364 12.636 1 8.5 1" fill="#000" fill-rule="evenodd"/></svg>