<svg width="12" height="12" viewBox="0 0 12 12" xmlns="http://www.w3.org/2000/svg"><title>activities/input_12</title><path d="M6 11c-2.586 0-4.694-1.98-4.949-4.5l5.742 0-1.647 1.646c-.195.196-.195.512 0 .708.098.097.226.146.354.146.128 0 .256-.049.354-.146l2.5-2.5c.195-.196.195-.512 0-.708l-2.5-2.5c-.196-.195-.512-.195-.708 0-.195.196-.195.512 0 .708L6.793 5.5l-5.742 0C1.306 2.98 3.414 1 6 1c2.757 0 5 2.243 5 5 0 2.757-2.243 5-5 5M6 0C2.691 0 0 2.691 0 6c0 3.309 2.691 6 6 6 3.309 0 6-2.691 6-6 0-3.309-2.691-6-6-6" fill="#000" fill-rule="evenodd"/></svg>