<svg width="32" height="32" viewBox="0 0 32 32" xmlns="http://www.w3.org/2000/svg"><title>social/instagram-circle_32</title><path d="M16.0001-.0002c8.836 0 16 7.164 16 16 0 8.837-7.164 16-16 16-8.837 0-16-7.163-16-16 0-8.836 7.163-16 16-16zm7.952 19.299c.039-.854.048-1.126.048-3.299 0-2.173-.009-2.445-.048-3.298-.039-.852-.174-1.433-.372-1.942-.205-.526-.478-.972-.923-1.417-.445-.445-.891-.718-1.417-.923-.509-.198-1.09-.333-1.942-.372-.853-.039-1.125-.048-3.298-.048-2.173 0-2.445.009-3.298.048-.852.039-1.434.174-1.942.372-.527.205-.973.478-1.417.923-.445.445-.719.891-.923 1.417-.198.509-.333 1.09-.372 1.942-.039.853-.048 1.125-.048 3.298 0 2.173.009 2.445.048 3.299.039.852.174 1.433.372 1.941.204.527.478.973.923 1.417.444.445.89.719 1.417.923.508.198 1.09.333 1.942.372.853.039 1.125.048 3.298.048 2.173 0 2.445-.009 3.298-.048.852-.039 1.433-.174 1.942-.372.526-.204.972-.478 1.417-.923.445-.444.718-.89.923-1.417.198-.508.333-1.089.372-1.941zm-1.3046-8.1765c.122.313.267.781.306 1.625.038.835.046 1.114.046 3.253 0 2.139-.008 2.418-.046 3.253-.039.843-.184 1.311-.306 1.625-.167.429-.375.75-.697 1.072-.323.322-.643.531-1.073.697-.313.122-.781.267-1.625.306-.835.038-1.113.047-3.253.047-2.139 0-2.417-.009-3.252-.047-.844-.039-1.312-.184-1.625-.306-.43-.166-.75-.375-1.073-.697-.322-.322-.53-.643-.697-1.072-.122-.314-.267-.782-.306-1.625-.038-.835-.047-1.114-.047-3.253 0-2.139.009-2.418.047-3.253.039-.844.184-1.312.306-1.625.167-.429.375-.75.697-1.072.323-.323.643-.531 1.073-.698.313-.122.781-.267 1.625-.305.835-.039 1.113-.047 3.252-.047 2.14 0 2.418.008 3.253.047.844.038 1.312.183 1.625.305.43.167.75.375 1.073.698.322.322.53.643.697 1.072zm-2.377 1.657c.53 0 .96-.43.96-.96 0-.53-.43-.96-.96-.96-.53 0-.96.43-.96.96 0 .53.43.96.96.96zm-4.271 7.221c2.209 0 4-1.791 4-4 0-2.209-1.791-4-4-4-2.208 0-4 1.791-4 4 0 2.209 1.792 4 4 4zM16 13c1.654 0 3 1.346 3 3 0 1.654-1.346 3-3 3-1.654 0-3-1.346-3-3 0-1.654 1.346-3 3-3z" fill-rule="evenodd"/></svg>