<svg width="16" height="16" viewBox="0 0 16 16" fill="none" xmlns="http://www.w3.org/2000/svg">
<path fill-rule="evenodd" clip-rule="evenodd" d="M10 10.5C9.44769 10.5 9 10.9478 9 11.5V15C9 15.5522 9.44769 16 10 16H15C15.5522 16 16 15.5522 16 15V11.5C16 10.9478 15.5522 10.5 15 10.5H10ZM14.1996 11.5H10.8004L12.5 12.8597L14.1996 11.5ZM10 12.1403V15H15V12.1403L12.8123 13.8904C12.6297 14.0365 12.3703 14.0365 12.1877 13.8904L10 12.1403Z" fill="#121212"/>
<path fill-rule="evenodd" clip-rule="evenodd" d="M4.00024 5C4.00024 2.794 5.79524 1 8.00024 1C10.2062 1 12.0002 2.794 12.0002 5C12.0002 7.206 10.2062 9 8.00024 9C5.79524 9 4.00024 7.206 4.00024 5ZM8 15L1.00124 14.993L1.55224 12.645C1.91624 11.087 3.21224 10 4.70324 10H8.00024C10.7572 10 13.0002 7.757 13.0002 5C13.0002 2.243 10.7572 0 8.00024 0C5.24324 0 3.00024 2.243 3.00024 5C3.00024 6.642 3.80624 8.088 5.03124 9H4.70324C2.74524 9 1.04924 10.405 0.578238 12.416L0.0272381 14.765C-0.0437619 15.072 0.0252381 15.39 0.220238 15.634C0.404238 15.866 0.678238 16 0.969238 16H8C8.276 16 8.5 15.776 8.5 15.5C8.5 15.224 8.276 15 8 15Z" fill="#121212"/>
</svg>
