<svg width="16" height="16" viewBox="0 0 16 16" xmlns="http://www.w3.org/2000/svg"><title>format/jabber-hub_16</title><path d="M12 0c1.105 0 2 .895 2 2l0 12c0 1.104-.895 1.999-1.999 2L12 16l-8 0-.001 0C2.895 15.999 2 15.104 2 14L2 2c0-1.105.895-2 2-2l8 0zm1 5l0-3c0-.551-.449-1-1-1L4 1c-.551 0-1 .449-1 1l0 3 10 0zm0 9l0-8L3 6l0 8c0 .551.449 1 1 1l8 0c.551 0 1-.449 1-1zM11.001 2.5c.276 0 .5.224.5.5 0 .276-.224.5-.5.5L7.5 3.5c-.276 0-.5-.224-.5-.5 0-.276.224-.5.5-.5l3.501 0zM5 2.5c.276 0 .5.224.5.5 0 .276-.224.5-.5.5-.276 0-.5-.224-.5-.5 0-.276.224-.5.5-.5z" fill-rule="evenodd"/></svg>