<svg width="14" height="14" viewBox="0 0 14 14" xmlns="http://www.w3.org/2000/svg"><title>meetings/jabber_14</title><path d="M10.791 9.8457c-.998 1.048-2.345 1.625-3.791 1.625-.108 0-.213.035-.3.1l-.118.088c-.748.561-1.614.952-2.527 1.143l.091-.107c.275-.319.536-.663.774-1.025.151-.23.019-.58-.21-.732-1.015-.495-1.804-1.281-2.313-2.226.409.197.864.318 1.353.318l.214 0 0-.001c3.428-.013 6.212-2.804 6.212-6.235 0-.243-.02-.485-.048-.725 1.205.91 2.024 2.314 2.101 3.906.07 1.449-.44 2.824-1.438 3.871m-9.026-3.61c0-.99.89-1.794 1.985-1.794.989 0 1.794.804 1.794 1.794 0 .614-.04 1.075-.131 1.557-.471.139-.957.237-1.472.237l-.191 0c-1.095 0-1.985-.805-1.985-1.794m5.49-6.231c-1.44-.05-2.854.383-3.997 1.242-.22.165-.265.479-.099.701.166.219.48.267.7.098.973-.73 2.136-1.084 3.356-1.041.626.025 1.222.173 1.776.403.123.45.185.915.185 1.386 0 1.956-1.091 3.646-2.685 4.544.036-.338.053-.692.053-1.102 0-1.541-1.253-2.794-2.794-2.794-1.646 0-2.985 1.253-2.985 2.794 0 2.222 1.153 4.228 3.006 5.33-.123.165-.251.324-.382.476l-.974 1.132c-.136.158-.16.384-.06.567.089.162.258.259.439.259.023 0 .047-.002.071-.005l.931-.132c1.221-.175 2.387-.658 3.373-1.394 1.659-.044 3.196-.727 4.346-1.933 1.188-1.247 1.797-2.884 1.713-4.61-.155-3.192-2.778-5.793-5.973-5.921" fill-rule="evenodd"/></svg>