<svg width="20" height="20" viewBox="0 0 20 20" fill="none" xmlns="http://www.w3.org/2000/svg">
<path fill-rule="evenodd" clip-rule="evenodd" d="M6.85355 5.14645L9.85355 8.14645L9.89103 8.18834L9.93325 8.25024L9.96238 8.30941L9.98338 8.37186L9.99481 8.42772L10 8.5L9.99718 8.55343L9.98338 8.62814L9.96221 8.69104L9.92281 8.76701L9.88241 8.82214L6.85355 11.8536C6.65829 12.0488 6.34171 12.0488 6.14645 11.8536C5.95118 11.6583 5.95118 11.3417 6.14645 11.1464L8.291 9H2.5C2.22386 9 2 8.77614 2 8.5C2 8.22386 2.22386 8 2.5 8H8.293L6.14645 5.85355C5.95118 5.65829 5.95118 5.34171 6.14645 5.14645C6.34171 4.95118 6.65829 4.95118 6.85355 5.14645Z" fill="#121212"/>
<path fill-rule="evenodd" clip-rule="evenodd" d="M10.5001 0C8.81225 0 7.3452 0.904462 6.55986 2.36295C6.42894 2.60609 6.51991 2.90932 6.76305 3.04024C7.00618 3.17115 7.30941 3.08019 7.44033 2.83705C8.05499 1.69554 9.18794 1 10.5001 1C12.424 1 14.0001 2.57614 14.0001 4.5V12.5C14.0001 14.4239 12.424 16 10.5001 16C9.20563 16 8.05727 15.22 7.43199 14.1481C7.29285 13.9095 6.98669 13.829 6.74816 13.9681C6.50964 14.1073 6.42907 14.4134 6.56821 14.6519C7.266 15.8482 8.51298 16.7944 10 16.9705V19H8C7.7 19 7.5 19.2 7.5 19.5C7.5 19.8 7.7 20 8 20H10H11H13C13.3 20 13.5 19.8 13.5 19.5C13.5 19.2 13.3 19 13 19H11V16.9722C13.2429 16.7218 15.0001 14.8072 15.0001 12.5V4.5C15.0001 2.02386 12.9762 0 10.5001 0Z" fill="#121212"/>
</svg>
