<svg width="16" height="16" viewBox="0 0 16 16" fill="none" xmlns="http://www.w3.org/2000/svg">
<path fill-rule="evenodd" clip-rule="evenodd" d="M5.50014 15.5C5.50014 15.7761 5.724 16 6.00014 16H11.0001L11.09 15.9919C11.3233 15.9496 11.5001 15.7455 11.5001 15.5C11.5001 15.2239 11.2763 15 11.0001 15H8.99945L9.00016 13.9646C10.6963 13.722 12.0002 12.2633 12.0002 10.5V3.5L11.9951 3.30797C11.8954 1.46429 10.3688 0 8.50021 0C7.02815 0 5.72882 0.917249 5.2213 2.27343C5.12452 2.53205 5.25572 2.82017 5.51435 2.91695C5.77297 3.01374 6.06109 2.88254 6.15787 2.62391C6.52035 1.65529 7.44861 1 8.50021 1C9.88091 1 11.0002 2.11931 11.0002 3.5V10.5L10.9949 10.6644C10.9103 11.9685 9.8257 13 8.50021 13C7.65079 13 6.87462 12.5737 6.41409 11.8783C6.26161 11.6481 5.95137 11.5851 5.72114 11.7375C5.49091 11.89 5.42788 12.2003 5.58035 12.4305C6.13249 13.2642 7.01096 13.8222 7.9995 13.9643L7.99945 15H6.00014L5.91026 15.0081C5.67701 15.0504 5.50014 15.2545 5.50014 15.5ZM4.85355 4.14645L4.78431 4.08859C4.58944 3.9536 4.32001 3.97288 4.14645 4.14645L4.08859 4.21569C3.9536 4.41056 3.97288 4.67999 4.14645 4.85355L6.293 7H0.5L0.410124 7.00806C0.176875 7.05039 0 7.25454 0 7.5C0 7.77614 0.223858 8 0.5 8H6.293L4.14645 10.1464L4.08859 10.2157C3.9536 10.4106 3.97288 10.68 4.14645 10.8536C4.34171 11.0488 4.65829 11.0488 4.85355 10.8536L7.86541 7.84129L7.91141 7.78431L7.96221 7.69104L7.98339 7.62815L7.99718 7.55343L8 7.5L7.99481 7.42772L7.98339 7.37186L7.96239 7.3094L7.93325 7.25024L7.89104 7.18834L7.85355 7.14645L4.85355 4.14645Z" fill="#121212"/>
</svg>
