<svg width="28" height="28" viewBox="0 0 28 28" xmlns="http://www.w3.org/2000/svg"><title>common-actions/keyboard_28</title><path d="M4 7c-1.1045695 0-2 .8954305-2 2l0 11c0 1.1045695.8954305 2 2 2l21 0c1.1045695 0 2-.8954305 2-2l0-11c0-1.1045695-.8954305-2-2-2L4 7zm0-1l21 0c1.6568542 0 3 1.34314575 3 3l0 11c0 1.6568542-1.3431458 3-3 3L4 23c-1.65685425 0-3-1.3431458-3-3L1 9c0-1.65685425 1.34314575-3 3-3zm2.5 5c.27614237 0 .5-.22385763.5-.5 0-.27614237-.22385763-.5-.5-.5-.27614237 0-.5.22385763-.5.5 0 .27614237.22385763.5.5.5zm8 0c.2761424 0 .5-.22385763.5-.5 0-.27614237-.2238576-.5-.5-.5-.2761424 0-.5.22385763-.5.5 0 .27614237.2238576.5.5.5zm-4 0c.27614237 0 .5-.22385763.5-.5 0-.27614237-.22385763-.5-.5-.5-.27614237 0-.5.22385763-.5.5 0 .27614237.22385763.5.5.5zm8 0c.2761424 0 .5-.22385763.5-.5 0-.27614237-.2238576-.5-.5-.5-.2761424 0-.5.22385763-.5.5 0 .27614237.2238576.5.5.5zm4 0c.2761424 0 .5-.22385763.5-.5 0-.27614237-.2238576-.5-.5-.5-.2761424 0-.5.22385763-.5.5 0 .27614237.2238576.5.5.5zm-16 4c.27614237 0 .5-.22385763.5-.5 0-.27614237-.22385763-.5-.5-.5-.27614237 0-.5.22385763-.5.5 0 .27614237.22385763.5.5.5zm8 0c.2761424 0 .5-.22385763.5-.5 0-.27614237-.2238576-.5-.5-.5-.2761424 0-.5.22385763-.5.5 0 .27614237.2238576.5.5.5zm-4 0c.27614237 0 .5-.22385763.5-.5 0-.27614237-.22385763-.5-.5-.5-.27614237 0-.5.22385763-.5.5 0 .27614237.22385763.5.5.5zm8 0c.2761424 0 .5-.22385763.5-.5 0-.27614237-.2238576-.5-.5-.5-.2761424 0-.5.22385763-.5.5 0 .27614237.2238576.5.5.5zm4 0c.2761424 0 .5-.22385763.5-.5 0-.27614237-.2238576-.5-.5-.5-.2761424 0-.5.22385763-.5.5 0 .27614237.2238576.5.5.5zm-16 4c.27614237 0 .5-.2238576.5-.5 0-.2761424-.22385763-.5-.5-.5-.27614237 0-.5.2238576-.5.5 0 .2761424.22385763.5.5.5zm16 0c.2761424 0 .5-.2238576.5-.5 0-.2761424-.2238576-.5-.5-.5-.2761424 0-.5.2238576-.5.5 0 .2761424.2238576.5.5.5zm-12-1c-.27614237 0-.5.2238576-.5.5 0 .2761424.22385763.5.5.5l8 0c.2761424 0 .5-.2238576.5-.5 0-.2761424-.2238576-.5-.5-.5l-8 0z" fill-rule="nonzero" fill="#000"/></svg>