<svg width="20" height="20" viewBox="0 0 20 20" xmlns="http://www.w3.org/2000/svg"><title>common-actions/keyboard_20</title><path d="M17.5 4C18.881 4 20 5.119 20 6.5l0 8c0 1.381-1.119 2.5-2.5 2.5l-15 0C1.119 17 0 15.881 0 14.5l0-8C0 5.119 1.119 4 2.5 4l15 0zM19 14.5l0-8c0-.829-.671-1.5-1.5-1.5l-15 0C1.671 5 1 5.671 1 6.5l0 8c0 .828.671 1.5 1.5 1.5l15 0c.829 0 1.5-.672 1.5-1.5zM3.5 10c.276 0 .5.224.5.5 0 .276-.224.5-.5.5-.276 0-.5-.224-.5-.5 0-.276.224-.5.5-.5zm0-3c.276 0 .5.224.5.5 0 .276-.224.5-.5.5-.276 0-.5-.224-.5-.5 0-.276.224-.5.5-.5zm0 6c.276 0 .5.224.5.5 0 .276-.224.5-.5.5-.276 0-.5-.224-.5-.5 0-.276.224-.5.5-.5zm4.3335-2c-.276 0-.5-.224-.5-.5 0-.276.224-.5.5-.5.276 0 .5.224.5.5 0 .276-.224.5-.5.5zm4.333 2c.276 0 .5.224.5.5 0 .276-.224.5-.5.5l-4.333 0c-.276 0-.5-.224-.5-.5 0-.276.224-.5.5-.5l4.333 0zm-4.333-5c-.276 0-.5-.224-.5-.5 0-.276.224-.5.5-.5.276 0 .5.224.5.5 0 .276-.224.5-.5.5zm4.333-1c.276 0 .5.224.5.5 0 .276-.224.5-.5.5-.276 0-.5-.224-.5-.5 0-.276.224-.5.5-.5zM16.5 10c.276 0 .5.224.5.5 0 .276-.224.5-.5.5-.276 0-.5-.224-.5-.5 0-.276.224-.5.5-.5zm0-3c.276 0 .5.224.5.5 0 .276-.224.5-.5.5-.276 0-.5-.224-.5-.5 0-.276.224-.5.5-.5zm-4.3335 3c.276 0 .5.224.5.5 0 .276-.224.5-.5.5-.276 0-.5-.224-.5-.5 0-.276.224-.5.5-.5zM16.5 13c.276 0 .5.224.5.5 0 .276-.224.5-.5.5-.276 0-.5-.224-.5-.5 0-.276.224-.5.5-.5z" fill="#000" fill-rule="evenodd"/></svg>