<svg width="16" height="16" viewBox="0 0 16 16" xmlns="http://www.w3.org/2000/svg"><title>common-actions/keyboard-close_16</title><path d="M2 2c-.55228475 0-1 .44771525-1 1l0 6c0 .55228475.44771525 1 1 1l12 0c.5522847 0 1-.44771525 1-1l0-6c0-.55228475-.4477153-1-1-1L2 2zm0-1l12 0c1.1045695 0 2 .8954305 2 2l0 6c0 1.1045695-.8954305 2-2 2L2 11c-1.1045695 0-2-.8954305-2-2l0-6c0-1.1045695.8954305-2 2-2zm1.5 4c.27614237 0 .5-.22385763.5-.5 0-.27614237-.22385763-.5-.5-.5-.27614237 0-.5.22385763-.5.5 0 .27614237.22385763.5.5.5zm3 0c.27614237 0 .5-.22385763.5-.5 0-.27614237-.22385763-.5-.5-.5-.27614237 0-.5.22385763-.5.5 0 .27614237.22385763.5.5.5zm3 0c.27614237 0 .5-.22385763.5-.5 0-.27614237-.22385763-.5-.5-.5-.27614237 0-.5.22385763-.5.5 0 .27614237.22385763.5.5.5zm3 0c.2761424 0 .5-.22385763.5-.5 0-.27614237-.2238576-.5-.5-.5-.2761424 0-.5.22385763-.5.5 0 .27614237.2238576.5.5.5zm-9 3c.27614237 0 .5-.22385763.5-.5 0-.27614237-.22385763-.5-.5-.5-.27614237 0-.5.22385763-.5.5 0 .27614237.22385763.5.5.5zm9 0c.2761424 0 .5-.22385763.5-.5 0-.27614237-.2238576-.5-.5-.5-.2761424 0-.5.22385763-.5.5 0 .27614237.2238576.5.5.5zm-6-1l3 0c.27614237 0 .5.22385763.5.5 0 .27614237-.22385763.5-.5.5l-3 0c-.27614237 0-.5-.22385763-.5-.5 0-.27614237.22385763-.5.5-.5zm1.4999421 8.0000205c-.111 0-.221-.036-.312-.109l-2.5-2c-.216-.173-.251-.488-.078-.704.172-.214.487-.249.702-.078l2.188 1.75 2.181-1.749c.215-.173.53-.138.703.077.173.215.138.531-.077.703l-2.494 2c-.092.073-.202.11-.313.11z" fill-rule="nonzero" fill="#000"/></svg>