<svg width="24" height="24" viewBox="0 0 24 24" xmlns="http://www.w3.org/2000/svg"><title>common-actions/keyboard-close_24</title><path d="M12 22.9999c-.128 0-.256-.049-.354-.146l-3-3c-.195-.196-.195-.512 0-.708.196-.195.512-.195.708 0L12 21.7929l2.646-2.647c.196-.195.512-.195.708 0 .195.196.195.512 0 .708l-3 3c-.098.097-.226.146-.354.146zm9.5-22c1.378 0 2.5 1.121 2.5 2.5l0 10c0 1.379-1.122 2.5-2.5 2.5l-19 0c-1.378 0-2.5-1.121-2.5-2.5l0-10c0-1.379 1.122-2.5 2.5-2.5l19 0zm1.5 12.5l0-10c0-.827-.673-1.5-1.5-1.5l-19 0c-.827 0-1.5.673-1.5 1.5l0 10c0 .827.673 1.5 1.5 1.5l19 0c.827 0 1.5-.673 1.5-1.5zm-18.5-8.5c.276 0 .5.224.5.5 0 .276-.224.5-.5.5-.276 0-.5-.224-.5-.5 0-.276.224-.5.5-.5zm0 3c.276 0 .5.224.5.5 0 .276-.224.5-.5.5-.276 0-.5-.224-.5-.5 0-.276.224-.5.5-.5zm3-2c-.276 0-.5-.224-.5-.5 0-.276.224-.5.5-.5.276 0 .5.224.5.5 0 .276-.224.5-.5.5zm0 3c-.276 0-.5-.224-.5-.5 0-.276.224-.5.5-.5.276 0 .5.224.5.5 0 .276-.224.5-.5.5zm3-3c-.276 0-.5-.224-.5-.5 0-.276.224-.5.5-.5.276 0 .5.224.5.5 0 .276-.224.5-.5.5zm0 3c-.276 0-.5-.224-.5-.5 0-.276.224-.5.5-.5.276 0 .5.224.5.5 0 .276-.224.5-.5.5zm3-3c-.276 0-.5-.224-.5-.5 0-.276.224-.5.5-.5.276 0 .5.224.5.5 0 .276-.224.5-.5.5zm0 3c-.276 0-.5-.224-.5-.5 0-.276.224-.5.5-.5.276 0 .5.224.5.5 0 .276-.224.5-.5.5zm3-4c.276 0 .5.224.5.5 0 .276-.224.5-.5.5-.276 0-.5-.224-.5-.5 0-.276.224-.5.5-.5zm0 3c.276 0 .5.224.5.5 0 .276-.224.5-.5.5-.276 0-.5-.224-.5-.5 0-.276.224-.5.5-.5zm3-3c.276 0 .5.224.5.5 0 .276-.224.5-.5.5-.276 0-.5-.224-.5-.5 0-.276.224-.5.5-.5zm0 3c.276 0 .5.224.5.5 0 .276-.224.5-.5.5-.276 0-.5-.224-.5-.5 0-.276.224-.5.5-.5zm-15 3c.276 0 .5.224.5.5 0 .276-.224.5-.5.5-.276 0-.5-.224-.5-.5 0-.276.224-.5.5-.5zm15 0c.276 0 .5.224.5.5 0 .276-.224.5-.5.5-.276 0-.5-.224-.5-.5 0-.276.224-.5.5-.5zm-3 0c.276 0 .5.224.5.5 0 .276-.224.5-.5.5l-9 0c-.276 0-.5-.224-.5-.5 0-.276.224-.5.5-.5l9 0z" fill="#000" fill-rule="evenodd"/></svg>