<svg width="40" height="40" viewBox="0 0 40 40" xmlns="http://www.w3.org/2000/svg"><title>settings/language_40</title><path d="M24.4634 38.5615305c3.781-2.8409645 6.469-9.6098799 6.582-17.5517806 2.436-.002 5.075-.006 7.929-.0099999-.232 8.6168923-6.368 15.7758028-14.511 17.5617805zM2.0254 20.9947501c.917.0149998 3.023.0259996 7.931.0289996.114 7.9349008 2.801 14.6988163 6.58 17.5377808-8.144-1.7859777-14.282-8.9488882-14.511-17.5667804zm14.511-18.55576809c-3.785 2.84396445-6.476 9.62687969-6.582 17.58078019-3.873 0-6.812-.0039999-7.929-.0109998.228-8.6198923 6.366-15.78380271 14.511-17.56978039zm4.464 17.57878029l0-17.96877541c4.953.49999375 8.914 8.31289608 9.046 17.96077551-2.953.0029999-6.038.0059999-9.046.0079999zm0 1.0019874c2.642-.0019999 5.641-.0049999 9.045-.0089998-.137 9.6398795-4.096 17.4407819-9.045 17.9407757l0-17.9317759zm-8.534.004c2.091 0 4.58-.001 7.534-.003l0 17.9307759c-4.948-.4989938-8.905-8.2948963-9.045-17.9277759l1.511 0zm7.534-1.0059874c-3.228.0019999-6.331.0029999-9.046.0029999.129-9.6528793 4.091-17.47178156 9.046-17.97177531l0 17.96877541zm18.974-.0179998c-2.355.0039999-5.062.0059999-7.929.0089999-.108-7.9499006-2.798-14.72681593-6.582-17.56978039 8.143 1.78597768 14.28 8.94588819 14.511 17.56078049zm1.026.4999937C39.9994 9.74789065 31.2524 1 20.5004 1 9.7594 1 1.0224 9.72889089 1.0024 20.4637567c0 .002 0 .0049999-.001.0069999 0 .0099999-.001.0199998-.001.0289996 0 10.7518656 8.747 19.4997563 19.5 19.4997563 10.752 0 19.5-8.7478907 19.5-19.4997563z" fill="#000" fill-rule="evenodd"/></svg>