<svg width="12" height="12" viewBox="0 0 12 12" xmlns="http://www.w3.org/2000/svg"><title>settings/language_12</title><path d="M8.4004 10.3584c.609-.986 1.012-2.341 1.085-3.858l1.464 0c-.169 1.668-1.148 3.083-2.549 3.858zm-7.35-3.858l1.464 0c.074 1.517.476 2.872 1.085 3.858-1.401-.775-2.38-2.19-2.549-3.858zm2.549-4.859c-.609.987-1.011 2.341-1.085 3.859l-1.464 0c.169-1.668 1.148-3.083 2.549-3.859zm2.901 3.859l0-4.373c.955.442 1.851 2.099 1.972 4.373l-1.972 0zm0 5.373l0-4.373 1.972 0c-.121 2.272-1.017 3.93-1.972 4.373zm-1-4.373l0 4.373c-.955-.443-1.852-2.101-1.973-4.373l1.973 0zm0-5.373l0 4.373-1.973 0c.121-2.274 1.018-3.931 1.973-4.373zm5.449 4.373l-1.464 0c-.073-1.518-.476-2.872-1.085-3.859 1.401.776 2.38 2.191 2.549 3.859zm-4.949-5.5c-3.314 0-6 2.686-6 6 0 3.313 2.686 6 6 6 3.313 0 6-2.687 6-6 0-3.314-2.687-6-6-6z" fill-rule="evenodd"/></svg>