<svg width="20" height="20" viewBox="0 0 20 20" xmlns="http://www.w3.org/2000/svg"><title>settings/language_20</title><path d="M13.2734 18.375c1.562-1.699 2.613-4.576 2.712-7.875l2.989 0c-.198 3.59-2.503 6.62-5.701 7.875zM1.0254 10.5l2.99 0c.098 3.299 1.15 6.176 2.711 7.875-3.198-1.255-5.503-4.285-5.701-7.875zm5.701-8.875c-1.561 1.699-2.613 4.576-2.711 7.875l-2.99 0c.198-3.59 2.503-6.62 5.701-7.875zm3.774 7.875l0-8.453c2.394.451 4.344 4.097 4.485 8.453l-4.485 0zm0 9.453l0-8.453 4.485 0c-.141 4.356-2.091 8.002-4.485 8.453zm-1-8.453l0 8.453c-2.395-.451-4.345-4.098-4.486-8.453l4.486 0zm0-9.453l0 8.453-4.486 0c.141-4.356 2.091-8.002 4.486-8.453zm9.474 8.453l-2.989 0c-.099-3.299-1.15-6.176-2.712-7.875 3.198 1.255 5.503 4.285 5.701 7.875zM10.0004 0c-5.523 0-10 4.478-10 10 0 5.522 4.477 10 10 10 5.522 0 10-4.478 10-10 0-5.522-4.478-10-10-10z" fill-rule="evenodd"/></svg>