<svg width="16" height="16" viewBox="0 0 16 16" xmlns="http://www.w3.org/2000/svg"><title>settings/language_16</title><path d="M11.1035 14.2646c1.077-1.368 1.79-3.43 1.881-5.765l1.99 0c-.18 2.531-1.708 4.689-3.871 5.765zm-10.078-5.765l1.99 0c.091 2.335.804 4.397 1.881 5.765-2.163-1.076-3.691-3.234-3.871-5.765zm3.871-6.764c-1.077 1.368-1.79 3.429-1.881 5.764l-1.99 0c.18-2.53 1.708-4.688 3.871-5.764zm3.603 5.764l0-6.436c1.849.426 3.345 3.157 3.486 6.436l-3.486 0zm0 7.437l0-6.437 3.486 0c-.141 3.28-1.637 6.011-3.486 6.437zm-1-6.437l0 6.437c-1.848-.426-3.344-3.157-3.485-6.437l3.485 0zm0-7.436l0 6.436-3.485 0c.141-3.279 1.637-6.01 3.485-6.436zm7.475 6.436l-1.99 0c-.091-2.335-.804-4.396-1.881-5.764 2.163 1.076 3.691 3.234 3.871 5.764zm-6.975-7.5c-4.417 0-8 3.582-8 8 0 4.418 3.583 8 8 8 4.418 0 8-3.582 8-8 0-4.418-3.582-8-8-8z" fill-rule="evenodd"/></svg>