<svg width="24" height="24" viewBox="0 0 24 24" xmlns="http://www.w3.org/2000/svg"><title>hardware/laptop_24</title><path d="M23 17.5c0 1.379-1.122 2.5-2.5 2.5l-17 0C2.122 20 1 18.879 1 17.5l0-.5 22 0 0 .5zM3 5.5C3 4.673 3.673 4 4.5 4l15 0c.827 0 1.5.673 1.5 1.5L21 16 3 16 3 5.5zM23.5 16L22 16l0-10.5C22 4.121 20.878 3 19.5 3l-15 0C3.122 3 2 4.121 2 5.5L2 16 .5 16c-.276 0-.5.224-.5.5l0 1C0 19.43 1.57 21 3.5 21l17 0c1.93 0 3.5-1.57 3.5-3.5l0-1c0-.276-.224-.5-.5-.5z" fill="#000" fill-rule="evenodd"/></svg>