<svg width="20" height="20" viewBox="0 0 20 20" xmlns="http://www.w3.org/2000/svg"><title>hardware/laptop_20</title><path d="M18.9998 15.2778c0 .95-.771 1.722-1.723 1.722l-14.555 0c-.95 0-1.722-.772-1.722-1.722l0-.278 18 0 0 .278zm-17-11.11c0-.644.523-1.168 1.167-1.168l13.666 0c.645 0 1.167.524 1.167 1.168l0 7.832 0 2-16 0 0-9.832zm18 10.331c-.001-.275-.225-.499-.5-.499l-.5 0 0-2 0-7.832c0-.922-.58-1.705-1.391-2.018-.217-.092-.47-.15-.609-.15l-14 0c-.139 0-.393.058-.609.15-.812.313-1.391 1.096-1.391 2.018l0 9.832-.5 0c-.276 0-.5.224-.5.5l0 .778c0 1.501 1.221 2.722 2.722 2.722l14.555 0c1.5 0 2.722-1.22 2.723-2.719l0-.003 0-.778 0-.001z" fill="#000" fill-rule="evenodd"/></svg>