<?xml version="1.0" encoding="utf-8"?>
<!-- Generator: Adobe Illustrator 23.0.2, SVG Export Plug-In . SVG Version: 6.00 Build 0)  -->
<svg version="1.1" id="Layer_1" xmlns="http://www.w3.org/2000/svg" xmlns:xlink="http://www.w3.org/1999/xlink" x="0px" y="0px"
	 viewBox="0 0 13 13" style="enable-background:new 0 0 13 13;" xml:space="preserve">
<style type="text/css">
	.st0{fill-rule:evenodd;clip-rule:evenodd;fill:#121212;}
</style>
<g>
	<path class="st0" d="M3,10.5c0-0.1-0.1-0.3-0.1-0.3S2.6,10,2.5,10c-0.1,0-0.3,0-0.4,0.1l-2,2C0.1,12.2,0,12.3,0,12.4
		c0,0.1,0,0.2,0,0.3c0,0.1,0.1,0.2,0.2,0.2C0.3,13,0.4,13,0.5,13c0.1,0,0.1,0,0.2,0c0.1,0,0.1-0.1,0.2-0.1l2-2
		C2.9,10.8,3,10.6,3,10.5z"/>
	<path class="st0" d="M0.5,11c0.1,0,0.1,0,0.2,0c0.1,0,0.1-0.1,0.2-0.1l1-1C1.9,9.8,2,9.6,2,9.5c0-0.1-0.1-0.3-0.1-0.3
		C1.8,9.1,1.6,9,1.5,9c-0.1,0-0.3,0-0.4,0.1l-1,1C0.1,10.2,0,10.3,0,10.4c0,0.1,0,0.2,0,0.3c0,0.1,0.1,0.2,0.2,0.2
		C0.3,11,0.4,11,0.5,11z"/>
	<path class="st0" d="M3.5,11c-0.1,0-0.3,0-0.4,0.1l-1,1C2.1,12.2,2,12.3,2,12.4c0,0.1,0,0.2,0,0.3c0,0.1,0.1,0.2,0.2,0.2
		C2.3,13,2.4,13,2.5,13c0.1,0,0.1,0,0.2,0c0.1,0,0.1-0.1,0.2-0.1l1-1C3.9,11.8,4,11.6,4,11.5c0-0.1-0.1-0.3-0.1-0.3S3.6,11,3.5,11z"
		/>
	<path class="st0" d="M8,4C7.8,4,7.6,4.1,7.4,4.2C7.3,4.3,7.2,4.4,7.1,4.6S7,5,7,5.2c0,0.2,0.1,0.4,0.3,0.5C7.4,5.8,7.6,5.9,7.8,6
		C8,6,8.2,6,8.4,5.9s0.3-0.2,0.4-0.4C8.9,5.4,9,5.2,9,5c0-0.3-0.1-0.5-0.3-0.7C8.5,4.1,8.3,4,8,4z"/>
	<path class="st0" d="M12,2.3c0-0.2,0-0.4-0.1-0.5c-0.1-0.2-0.2-0.3-0.3-0.4c-0.1-0.1-0.3-0.2-0.4-0.3C11,1,10.8,1,10.7,1
		C9.8,1,8.9,1.2,8,1.5c-1.3,0.4-2.5,1.1-3.6,2c0,0,0,0,0,0c0,0,0,0,0,0l-1.7,0c-0.4,0-0.7,0.1-1,0.3C1.5,4,1.2,4.3,1.1,4.6L0,7.3
		c0,0,0,0.1,0,0.1c0,0,0,0,0,0.1v0C0,7.8,0.2,8,0.5,8h1.4c0,0.2,0,0.4,0.1,0.6C2.1,8.8,2.3,9,2.4,9.2l0.7,0.7l0,0l0,0l0.7,0.7
		c0.2,0.2,0.3,0.3,0.5,0.4C4.6,11,4.8,11.1,5,11.1v1.4C5,12.8,5.2,13,5.5,13h0c0,0,0.1,0,0.1,0c0,0,0.1,0,0.1,0l2.7-1
		c0.3-0.1,0.6-0.4,0.8-0.7c0.2-0.3,0.3-0.6,0.3-1l0-1.7c0,0,0,0,0,0c0,0,0,0,0,0c0.9-1.1,1.6-2.3,2-3.6C11.8,4.1,12,3.2,12,2.3z
		 M2.2,7H1.2L2,5c0.1-0.1,0.2-0.3,0.3-0.4c0.1-0.1,0.3-0.1,0.4-0.1l0.8,0C2.9,5.3,2.5,6.1,2.2,7z M8.4,10.7C8.3,10.8,8.2,10.9,8,11
		l-2,0.8v-0.9c0.9-0.3,1.7-0.8,2.5-1.4l0,0.8C8.5,10.4,8.5,10.6,8.4,10.7z M10.6,4.7c-0.4,1.3-1.1,2.5-2,3.4c-1,0.9-2.2,1.6-3.5,2
		c0,0-0.1,0-0.1,0c-0.1,0-0.2,0-0.3-0.1c-0.1,0-0.2-0.1-0.2-0.2L3.1,8.4C3.1,8.4,3,8.3,3,8.2S2.9,8.1,2.9,8c0,0,0-0.1,0-0.1
		c0.3-1.3,1-2.5,2-3.5c1-0.9,2.2-1.6,3.4-2C9.1,2.2,9.9,2,10.7,2c0.2,0,0.3,0,0.3,0.1c0,0,0.1,0.1,0.1,0.3C11,3.1,10.8,3.9,10.6,4.7
		z"/>
</g>
</svg>
