<svg width="32" height="32" viewBox="0 0 32 32" xmlns="http://www.w3.org/2000/svg"><title>settings/launch_32</title><path d="M12.79595 24.3240064c-.375.072-.75-.041-1.014-.304l-3.801-3.802c-.263-.263-.377-.643-.304-1.014.79-4.057 2.783-7.776 5.764-10.75599997 4.061-4.062 9.622-6.448 14.972-6.448.176 0 .353.003.528.008.563.016 1.035.488 1.051 1.051.164 5.51-2.244 11.30499997-6.44 15.50099997-2.98 2.98-6.699 4.973-10.756 5.764zm10.184-1.442c.485 1.316-.101 2.772-1.374 3.394l-6.933 3.626c-.48.234-1.059.033-1.294-.443-.186-.372-.111-.821.186-1.118l4.752-4.838c1.402-.684 2.731-1.52 3.971-2.5l.692 1.879zm-19.324-4.444c-.295.294-.741.367-1.116.183-.476-.235-.675-.816-.448-1.281l3.618-6.94299997c.614-1.262 2.072-1.846 3.405-1.356l1.919.625c-.995 1.253-1.843 2.59799997-2.537 4.01699997l-4.841 4.755zm27.336-15.40799997c.171 5.78-2.345 11.84999997-6.733 16.23699997-.372.373-.758.728-1.151 1.071l.809 2.198c.664 1.8-.136 3.791-1.861 4.632l-6.933 3.626c-.281.138-.579.203-.872.203-.729 0-1.427-.403-1.768-1.093-.375-.758-.226-1.668.372-2.267l3.076-3.131c-.958.333-1.941.604-2.944.799-.137.027-.276.04-.414.04-.558 0-1.097-.218-1.498-.618l-3.801-3.802c-.499-.499-.715-1.213-.58-1.913.196-1.002.467-1.983.799-2.941l-3.133 3.078c-.376.376-.878.574-1.388.574-.297 0-.596-.067-.875-.205-.967-.479-1.37-1.658-.898-2.628l3.618-6.94299997c.835-1.713 2.829-2.512 4.626-1.851l2.272.74c.327-.374.664-.741 1.019-1.095 4.386-4.387 10.475-6.902000004 16.236-6.7330000035 1.101.033 1.99.9199999995 2.022 2.0220000035zm-7.5368 8.34379997c-.778.78-2.049.781-2.829 0-.779-.77999997-.779-2.04899997 0-2.82899997.39-.389.902-.584 1.415-.584.512 0 1.024.195 1.414.584.378.378.586.881.586 1.415 0 .534-.208 1.036-.586 1.41399997zm-3.536-3.53599997c-1.169 1.17-1.169 3.074 0 4.24299997.585.585 1.353.877 2.122.877.768 0 1.536-.292 2.121-.877.566-.566.879-1.31999997.879-2.12099997 0-.801-.313-1.555-.879-2.122-1.171-1.17-3.074-1.168-4.243 0zM7.49225 24.5081064c.195.195.195.512 0 .707l-5.639 5.639c-.097.097-.225.146-.353.146-.128 0-.256-.049-.354-.146-.195-.196-.195-.512 0-.707l5.639-5.639c.195-.195.512-.195.707 0zm-4.833 1.1094c-.098.098-.226.146-.354.146-.127 0-.255-.048-.353-.146-.195-.195-.195-.512 0-.707l2.819-2.819c.196-.196.512-.196.707 0 .196.195.196.511 0 .707l-2.819 2.819zm6.5429.9043c.195-.195.512-.195.707 0 .195.195.195.512 0 .707l-2.819 2.819c-.098.098-.226.147-.354.147-.128 0-.256-.049-.353-.147-.196-.195-.196-.511 0-.707l2.819-2.819z" fill="#000" fill-rule="evenodd"/></svg>