<svg width="16" height="16" viewBox="0 0 16 16" xmlns="http://www.w3.org/2000/svg"><title>social/linkedin_16</title><path d="M1.277 15.006l0-9.337 2.891 0 0 9.337-2.891 0zm10.3246-9.6217c1.98 0 3.398 1.209 3.398 3.71l0 5.913-2.877 0 0-4.902c0-1.344-.51-2.095-1.573-2.095-1.157 0-1.761.782-1.761 2.095l0 4.902-2.772 0 0-9.338 2.772 0 0 1.257c0 0 .834-1.542 2.813-1.542zM2.709 1c.944 0 1.709.772 1.709 1.723 0 .951-.765 1.723-1.709 1.723C1.766 4.446 1 3.674 1 2.723 1 1.772 1.766 1 2.709 1z" fill-rule="evenodd"/></svg>