<svg width="14" height="14" viewBox="0 0 14 14" xmlns="http://www.w3.org/2000/svg"><title>content/link_14</title><path d="M3.9678 10.524c-.128 0-.256-.049-.354-.147-.195-.196-.195-.513 0-.709l6.065-6.082c.195-.196.512-.196.707 0 .195.196.195.513 0 .709l-6.064 6.082c-.098.098-.226.147-.354.147zm-.083 3.4761c-1.041 0-2.018-.404-2.748-1.138-1.516-1.52-1.516-3.993 0-5.512l.599-.601c.828-.831 1.975-1.235 3.149-1.117.275.028.474.274.445.55-.028.276-.275.466-.547.447-.871-.093-1.726.212-2.341.829l-.599.601c-1.125 1.129-1.125 2.965 0 4.094 1.086 1.089 2.998 1.089 4.083 0l.6-.6c.614-.616.915-1.472.826-2.348-.029-.276.172-.522.446-.55.269-.026.52.171.548.448.121 1.177-.285 2.328-1.113 3.159l-.6.601c-.731.733-1.707 1.137-2.748 1.137zm5.6357-5.6485c-.135 0-.27-.007-.405-.021-.276-.028-.474-.274-.446-.549.029-.276.276-.47.547-.448.876.095 1.727-.212 2.342-.829l.599-.6c1.125-1.129 1.125-2.966 0-4.095-1.086-1.089-2.998-1.089-4.083 0l-.6.601c-.614.615-.915 1.471-.826 2.348.028.275-.172.521-.446.55-.27.021-.52-.172-.548-.449-.121-1.176.285-2.328 1.113-3.159l.6-.6c1.462-1.467 4.034-1.468 5.496 0 1.515 1.52 1.515 3.993 0 5.513l-.599.6c-.732.735-1.715 1.138-2.744 1.138z" fill-rule="evenodd"/></svg>