<svg width="24" height="24" viewBox="0 0 24 24" xmlns="http://www.w3.org/2000/svg"><title>content/link_24</title><path d="M17.5 14.9979c-.126 0-.252-.047-.349-.142-.198-.193-.202-.51-.009-.707l3.36-3.441c.967-.967 1.498-2.248 1.498-3.61 0-1.362-.531-2.643-1.494-3.606-1.988-1.989-5.224-1.988-7.212 0l-3.445 3.364c-.197.193-.514.189-.707-.009-.193-.197-.189-.514.009-.707l3.44-3.36c2.374-2.374 6.244-2.374 8.622.005C22.365 3.9369 23 5.4689 23 7.0979c0 1.629-.635 3.161-1.787 4.313l-3.355 3.436c-.098.101-.228.151-.358.151zM7.1016 22.9955c-1.562 0-3.125-.594-4.315-1.784-1.152-1.153-1.787-2.684-1.787-4.314 0-1.629.635-3.161 1.787-4.313l3.356-3.436c.193-.197.51-.2.707-.008.197.193.201.509.008.707l-3.36 3.44c-.967.967-1.498 2.248-1.498 3.61 0 1.363.531 2.643 1.494 3.607 1.989 1.989 5.225 1.988 7.213 0l3.444-3.364c.198-.192.514-.189.707.008.193.198.189.514-.008.707l-3.44 3.36c-1.187 1.187-2.747 1.78-4.308 1.78zM7.5 16.9979c-.128 0-.256-.049-.354-.146-.195-.196-.195-.512 0-.708l9-9c.196-.195.512-.195.708 0 .195.196.195.512 0 .708l-9 9c-.098.097-.226.146-.354.146z" fill="#000" fill-rule="evenodd"/></svg>