<svg width="18" height="18" viewBox="0 0 18 18" xmlns="http://www.w3.org/2000/svg"><title>content/link_18</title><path d="M5.1465 12.8535c-.195-.195-.195-.512 0-.707l7-7c.195-.195.512-.195.707 0 .195.195.195.512 0 .707l-7 7c-.098.098-.226.146-.353.146-.128 0-.256-.048-.354-.146zm4.7822-1.8511c.256-.021.52.171.548.446.137 1.332-.324 2.635-1.264 3.574l-.69.691c-.83.83-1.938 1.287-3.118 1.287-1.181 0-2.288-.457-3.118-1.287-.83-.83-1.287-1.937-1.287-3.118 0-1.181.457-2.288 1.287-3.117l.691-.692c.939-.939 2.248-1.396 3.573-1.263.275.028.475.274.446.549-.028.275-.29.468-.547.446-1.033-.11-2.04.249-2.765.975l-.691.692c-.64.64-.994 1.496-.994 2.41 0 .914.354 1.77.994 2.411 1.282 1.281 3.54 1.281 4.822 0l.69-.691c.727-.726 1.082-1.733.977-2.764-.029-.275.171-.521.446-.549zm5.7842-8.7158c.83.83 1.287 1.937 1.287 3.118 0 1.181-.457 2.288-1.287 3.117l-.69.692c-.831.83-1.946 1.286-3.113 1.286-.153 0-.306-.007-.461-.023-.275-.028-.474-.274-.446-.549.028-.275.295-.47.548-.446 1.031.108 2.038-.249 2.765-.975l.69-.692c.641-.64.994-1.496.994-2.41 0-.914-.353-1.77-.994-2.411-1.281-1.281-3.54-1.281-4.821 0l-.691.691c-.726.726-1.082 1.733-.976 2.764.028.275-.171.521-.447.549-.26.024-.519-.171-.547-.446-.137-1.332.324-2.635 1.263-3.574l.691-.691c.83-.83 1.937-1.287 3.118-1.287 1.18 0 2.288.457 3.117 1.287z" fill-rule="evenodd"/></svg>