<svg width="16" height="16" viewBox="0 0 16 16" xmlns="http://www.w3.org/2000/svg"><title>navigation/list-menu_16</title><path d="M1 3.5c0-.276142375.219906569-.5.498267412-.5L14.5017326 3C14.7769181 3 15 3.231933594 15 3.5c0 .276142375-.2199066.5-.4982674.5L1.498267412 4C1.223081919 4 1 3.768066406 1 3.5zm0 5c0-.27614237.219906569-.5.498267412-.5L14.5017326 8C14.7769181 8 15 8.23193359 15 8.5c0 .27614237-.2199066.5-.4982674.5L1.498267412 9C1.223081919 9 1 8.76806641 1 8.5zm0 5c0-.2761424.219906569-.5.498267412-.5L14.5017326 13C14.7769181 13 15 13.2319336 15 13.5c0 .2761424-.2199066.5-.4982674.5L1.498267412 14C1.223081919 14 1 13.7680664 1 13.5z" fill="#000" fill-rule="evenodd"/></svg>