<svg width="28" height="28" viewBox="0 0 28 28" xmlns="http://www.w3.org/2000/svg"><title>navigation/list-menu_28</title><path d="M4 6.5c0-.276142375.221630886-.5.498391226-.5L24.5016088 6C24.7768626 6 25 6.231933594 25 6.5c0 .276142375-.2216309.5-.4983912.5L4.498391226 7C4.223137352 7 4 6.768066406 4 6.5zm0 8c0-.27614237.221630886-.5.498391226-.5L24.5016088 14C24.7768626 14 25 14.23193359 25 14.5c0 .27614237-.2216309.5-.4983912.5L4.498391226 15C4.223137352 15 4 14.76806641 4 14.5zm0 8c0-.2761424.221630886-.5.498391226-.5L24.5016088 22C24.7768626 22 25 22.2319336 25 22.5c0 .2761424-.2216309.5-.4983912.5L4.498391226 23C4.223137352 23 4 22.7680664 4 22.5z" fill="#000" fill-rule="evenodd"/></svg>