<svg width="24" height="24" viewBox="0 0 24 24" xmlns="http://www.w3.org/2000/svg"><title>meetings/location_24</title><path d="M12.0001.9997c3.86 0 7 3.313 7 7.385 0 5.265-6.326 14.038-6.595 14.409-.095.129-.277.228-.405.206-.157 0-.306-.074-.4-.2-.27-.359-6.6-8.863-6.6-14.415 0-4.072 3.14-7.385 7-7.385zm-.006 20.638c1.4-2.033 6.006-9.042 6.006-13.253 0-3.52-2.692-6.385-6-6.385-3.309 0-6 2.865-6 6.385 0 4.442 4.585 11.263 5.994 13.253zM12 9c-.55228475 0-1-.44771525-1-1 0-.55228475.44771525-1 1-1 .55228475 0 1 .44771525 1 1 0 .55228475-.44771525 1-1 1z" fill="#000" fill-rule="evenodd"/></svg>