<svg width="28" height="28" viewBox="0 0 28 28" xmlns="http://www.w3.org/2000/svg"><title>meetings/location_28</title><path d="M13.99863376 0c4.96300004 0 9.00000004 4.262 9.00000004 9.5 0 6.839-8.25 17.837-8.601 18.302-.093.124-.239.197-.395.198l-.00400004 0c-.153 0-.299-.071-.394-.192-.351-.45-8.605999998-11.094-8.605999998-18.308 0-5.238 4.037999998-9.5 8.999999998-9.5zm-.006 26.662C15.6526338 24.359 21.9986338 15.183 21.9986338 9.5c0-4.687-3.589-8.5-8.00000004-8.5-4.411 0-8 3.813-8 8.5 0 5.993 6.324 14.911 7.994 17.162zm.0063-18.6621c.55200004 0 1.00000004.448 1.00000004 1 0 .552-.448 1-1.00000004 1-.552 0-1-.448-1-1 0-.552.448-1 1-1z" fill="#000" fill-rule="evenodd"/></svg>