<svg width="18" height="18" viewBox="0 0 18 18" xmlns="http://www.w3.org/2000/svg"><title>meetings/location_18</title><path d="M8.994 16.6590899C7.745 14.9632843 4 9.58190134 4 6.07230375 4 3.27562442 6.243.999885354 9 .999885354c2.757 0 5 2.275739066 5 5.072418396 0 3.3246188-3.764 8.85298495-5.006 10.58678615M9 0c3.308 0 6 2.7236877 6 6.07230375C15 10.3708109 9.627 17.4989936 9.398 17.800959c-.093.1239857-.245.2139754-.398.1969774-.153 0-.299-.069992-.394-.191978C8.378 17.5139919 3 10.6037842 3 6.07230375 3 2.7236877 5.691 0 9 0zm-.0001 5.00512611c-.553 0-1 .44794864-1 .99988536 0 .55193671.447.99988535 1 .99988535.553 0 1-.44794864 1-.99988535 0-.55193672-.447-.99988536-1-.99988536z" fill="#000" fill-rule="evenodd"/></svg>