<svg width="10" height="10" viewBox="0 0 10 10" xmlns="http://www.w3.org/2000/svg"><title>meetings/location_10</title><path d="M5.0001.0001c1.881 0 3.412 1.57 3.412 3.5 0 2.394-2.894 6.148-3.017 6.307-.095.122-.251.201-.395.193-.152 0-.295-.068-.39-.186-.123-.155-3.022-3.792-3.022-6.314 0-1.93 1.531-3.5 3.412-3.5zm-.006 8.668c.916-1.286 2.418-3.702 2.418-5.168 0-1.379-1.082-2.5-2.412-2.5-1.33 0-2.412 1.121-2.412 2.5 0 1.549 1.491 3.916 2.406 5.168zM5 3.0002c.276 0 .5.224.5.5 0 .276-.224.5-.5.5-.276 0-.5-.224-.5-.5 0-.276.224-.5.5-.5z" fill="#000" fill-rule="evenodd"/></svg>