<svg width="32" height="32" viewBox="0 0 32 32" xmlns="http://www.w3.org/2000/svg"><title>meetings/location_32</title><path d="M16 0c6.065 0 11 4.859 11 10.833 0 .297-.019.602-.047.913-.015.166-.034.335-.058.503-.019.149-.043.299-.069.45l-.018.108c-.017.102-.034.204-.056.303-1.548 7.79-10.005 18.263-10.364 18.705-.095.116-.267.168-.388.185-.147 0-.288-.066-.383-.179-.392-.467-9.627-11.536-10.538-19.738l-.028-.255C5.02 11.491 5 11.157 5 10.833 5 4.859 9.935 0 16 0zm9.957 11.658c.026-.283.043-.558.043-.825C26 5.411 21.514 1 16 1 10.486 1 6 5.411 6 10.833c0 .295.019.597.047.902l.025.234c.775 6.973 8.135 16.507 9.922 18.732 1.691-2.167 8.461-11.162 9.779-17.797.021-.093.035-.177.048-.26l.02-.114c.022-.137.045-.276.064-.415.02-.151.039-.303.052-.457zm-9.247-1.3682c.09.1.16.2.21.33.05.12.08.25.08.38 0 .269-.101.519-.29.71-.19.189-.44.29-.71.29-.13 0-.26-.03-.38-.08-.12-.05-.23-.12-.33-.21-.19-.191-.29-.441-.29-.71 0-.26.109-.521.29-.71.1-.09.2-.16.33-.21.18-.08.38-.101.569-.061.071.011.13.031.191.061.059.02.12.05.18.09.049.03.1.08.15.12z" fill="#000" fill-rule="evenodd"/></svg>