<svg width="16" height="16" viewBox="0 0 16 16" fill="none" xmlns="http://www.w3.org/2000/svg">
<path fill-rule="evenodd" clip-rule="evenodd" d="M9 1.09348C9 0.725668 8.42126 0 7.50821 0C6.59517 0 6 0.725668 6 1.09348C6 1.09348 5.80188 1 5.49606 1C4.63969 1.00155 4 1.72556 4 2.63783V3.09621C3.85441 3.03207 3.68766 3 3.49977 3C2.74197 3 2 3.61733 2 4.55185V10.5441C2 11.3828 2.19411 12.1914 2.53417 12.9175L0.158843 15.1345C-0.0430326 15.3229 -0.0539428 15.6393 0.134474 15.8412C0.322891 16.043 0.639286 16.0539 0.841161 15.8655L3.04986 13.8041C3.98089 15.1202 5.43259 16 6.99692 16C9.6061 16 11.2726 14.6387 12.8834 11.3769C13.0227 11.1263 13.2956 10.5424 13.7021 9.62522C14.3118 8.24952 13.8938 7.5908 13.2911 7.22879C12.6132 6.82163 11.6464 6.89795 11 8V6.38394L15.8412 1.86553C16.043 1.67711 16.0539 1.36072 15.8655 1.15884C15.6771 0.956966 15.3607 0.946055 15.1588 1.13447L11 5.01606V2.63783C11 1.79576 10.365 1.00418 9.4807 1C9.2074 1 9 1.09348 9 1.09348ZM10.0004 5.94903L10 2.63783C10 2.22379 9.8031 2 9.4928 2C9.1825 2 9 2.22379 9 2.63783V5.51088C9 6.17755 7.99885 6.15521 8.00256 5.51088V1.64448C8.00256 1.22569 7.77682 1 7.49601 1C7.20086 1 7 1.24498 7 1.64448V6.51088C7.00375 7.16274 6 7.16274 6 6.51088V2.63783C6 2.25359 5.82421 2 5.49978 2C5.17535 2 4.99817 2.24534 4.99817 2.63783L5 8.51088C5 9.15942 4 9.15942 4 8.51088V4.55185C4 4.21149 3.7404 4.00291 3.50669 4.00291C3.26634 4.00291 2.99938 4.21149 2.99938 4.55185V10.5441C2.99938 11.1308 3.10363 11.6934 3.29268 12.2096L10.0004 5.94903ZM3.75828 13.1429C4.4857 14.263 5.66725 15 6.99692 15C9.201 15 10.4106 14.0429 12.1037 10.6773C12.5529 9.72012 12.8251 9.13713 12.9204 8.92833C13.0632 8.61512 13.0392 8.26593 12.7784 8.08946C12.5177 7.91299 12.1317 8 11.9418 8.36785C11.802 8.63373 11.4666 9.26403 10.9355 10.2587C10.8485 10.414 10.7122 10.4937 10.5704 10.5107L10.5718 10.5112C9.1417 10.6421 8.20755 11.2341 7.7544 12.2877C7.6453 12.5414 7.35121 12.6586 7.09753 12.5495C6.84386 12.4404 6.72666 12.1463 6.83576 11.8926C7.39015 10.6036 8.46474 9.82842 10.0008 9.57994L10.0005 7.31677L3.75828 13.1429Z" fill="#121212"/>
</svg>
