<svg width="18" height="18" viewBox="0 0 18 18" xmlns="http://www.w3.org/2000/svg"><title>content/marker_18</title><path d="M16.6340059 5.201L6.27305095 15.565 2.43806761 11.73 12.7990226 1.367c.235999-.237.5499976-.367.8829962-.367l.002 0c.3319985 0 .6449971.13.8819961.366l2.067991 2.068c.235999.236.3659984.55.3659984.883 0 .334-.1299994.648-.3659984.884zM2.31706814 16.963l-1.27999444-1.28.9889957-2.951 3.2449859 3.245-2.95398716.986zM17.3410029 2.727L15.2730118.659C14.8480137.234 14.2840161 0 13.6840188 0l-.002 0c-.6009974 0-1.164995.235-1.5899931.659L1.57207137 11.181c-.08199964.082-.14299938.183-.17899922.292l-1.353994117 4.04c-.0909996046.269-.0199999131.566.180999214.768L1.71907073 17.78c.14399938.143.33399855.22.5299977.22.07899966 0 .15899931-.013.23799897-.039l4.04298243-1.35c.11099952-.037.20999909-.099.29199873-.181L17.3410029 5.908C17.766001 5.483 18 4.918 18 4.317c0-.6-.233999-1.166-.6589971-1.59z" fill-rule="evenodd"/></svg>