<svg width="16" height="12" viewBox="0 0 16 12" xmlns="http://www.w3.org/2000/svg"><title>activities/meet_12</title><path d="M11.5254293 8c-.356-.251-.769-.415-1.213-.471.436-.443.747-1.008.874-1.64l2.072 0c.688 0 1.286.488 1.455 1.188l.222.923-3.41 0zm-7.469 3l.269-1.115c.197-.816.894-1.385 1.697-1.385l3.957 0c.802 0 1.5.569 1.696 1.385l.269 1.115-7.888 0zm-2.769-3.923c.169-.7.767-1.188 1.454-1.188l2.074 0c.127.632.437 1.197.873 1.64-.444.056-.856.22-1.213.471l-3.41 0 .222-.923zm3.213-6.077c.902 0 1.653.62 1.87 1.455-.852.499-1.449 1.367-1.579 2.39-.097.015-.189.044-.291.044-1.072 0-1.944-.872-1.944-1.945 0-1.072.872-1.944 1.944-1.944zm5.75 4.25c0 1.241-1.009 2.25-2.25 2.25-1.241 0-2.25-1.009-2.25-2.25 0-1.241 1.009-2.25 2.25-2.25 1.241 0 2.25 1.009 2.25 2.25zm1.25-4.25c1.072 0 1.944.872 1.944 1.944 0 1.073-.872 1.945-1.944 1.945-.101 0-.194-.026-.29-.042-.129-1.023-.727-1.893-1.58-2.392.217-.835.968-1.455 1.87-1.455zm4.478 7.061l-.293-1.218c-.244-1.012-1.047-1.755-2.02-1.919.479-.524.779-1.215.779-1.98 0-1.623-1.32-2.944-2.944-2.944-1.321 0-2.424.881-2.793 2.083-.228-.051-.464-.083-.707-.083-.243 0-.478.032-.707.083-.369-1.202-1.472-2.083-2.793-2.083-1.623 0-2.944 1.321-2.944 2.944 0 .765.3 1.456.78 1.98-.974.164-1.775999999.906-2.019999999 1.919L.0214293008 8.062c-.055.23-.003.468.1430000002.653.143.181.357.285.586.285L3.6064293 9c-.106.204-.197.418-.253.65l-.331 1.371c-.057.241-.003.489.149.682.149.189.372.297.61.297l8.438 0c.239 0 .461-.108.61-.297.152-.193.206-.441.149-.682l-.331-1.371c-.056-.232-.146-.446-.252-.65l2.855 0c.23 0 .443-.104.587-.286.145-.185.197-.423.141-.653z" fill="#000" fill-rule="evenodd"/></svg>