<svg width="12" height="12" viewBox="0 0 12 12" xmlns="http://www.w3.org/2000/svg"><title>activities/meetings_12</title><path d="M10.375 11l-8.75 0C1.28 11 1 10.72 1 10.375L1 9l10 0 0 1.375c0 .345-.28.625-.625.625m-8.75-8.998l8.75 0c.345 0 .625.28.625.625L11 8 1 8l0-5.373c0-.345.28-.625.625-.625m8.75-1L9 1.002 9 .5c0-.276-.224-.5-.5-.5-.276 0-.5.224-.5.5l0 .502-4 0L4 .5c0-.276-.224-.5-.5-.5-.276 0-.5.224-.5.5l0 .502-1.375 0C.729 1.002 0 1.731 0 2.627l0 7.748C0 11.271.729 12 1.625 12l8.75 0c.896 0 1.625-.729 1.625-1.625l0-7.748c0-.896-.729-1.625-1.625-1.625" fill="#000" fill-rule="evenodd"/></svg>