<?xml version="1.0" encoding="UTF-8"?>
<svg width="26px" height="26px" viewBox="0 0 26 26" version="1.1" xmlns="http://www.w3.org/2000/svg" xmlns:xlink="http://www.w3.org/1999/xlink">
    <!-- Generator: Sketch 60.1 (88133) - https://sketch.com -->
    <title>activities/meetings-presence-stroke_26</title>
    <desc>Created with Sketch.</desc>
    <g id="activities/meetings-presence-stroke_26" stroke="none" stroke-width="1" fill="none" fill-rule="evenodd">
        <path d="M18.5,1 C19.182527,1 19.7691657,1.45878229 19.9559941,2.17432729 L19.9879389,2.32079994 L20,2.5 L20,3 L21.531,3 C23.23337,3 24.6637862,4.2336589 24.9498341,5.89555273 L24.9768636,6.08192896 L24.9942084,6.27158424 L25,6.466 L25,21.534 C25,23.2987233 23.6713193,24.7697709 21.9152069,24.9769078 L21.7254574,24.9942205 L21.531,25 L4.469,25 C2.70288715,25 1.23049722,23.673485 1.02312018,21.9180681 L1.00578607,21.7283873 L1,21.534 L1,6.466 C1,4.70102591 2.32807521,3.23017498 4.08465082,3.02308681 L4.27445404,3.00577879 L4.469,3 L6,3 L6,2.5 C6,1.76912821 6.52221091,1.1602101 7.21473921,1.02705112 L7.3554115,1.00686761 L7.5,1 C8.182527,1 8.76916573,1.45878229 8.95599406,2.17432729 L8.98793886,2.32079994 L9,2.5 L9,3 L17,3 L17,2.5 C17,1.76912821 17.5222109,1.1602101 18.2147392,1.02705112 L18.3554115,1.00686761 L18.5,1 Z M24,19 L2,19 L2,21.534 L2.00525907,21.6959263 C2.08548013,22.9271777 3.07382067,23.9145983 4.30683853,23.9947457 L4.469,24 L21.531,24 L21.6930509,23.9947457 C22.9252915,23.9145983 23.9144461,22.9271777 23.9947363,21.6959263 L24,21.534 L24,19 Z M7.5,2 C7.25377778,2 7.05022222,2.17698765 7.00802743,2.41016187 L7,2.5 L7,4 L4.469,4 L4.30683853,4.00525427 C3.07382067,4.08540173 2.08548013,5.07282227 2.00525907,6.30407373 L2,6.466 L2,18 L24,18 L24,6.466 L23.9947363,6.30407373 C23.9144461,5.07282227 22.9252915,4.08540173 21.6930509,4.00525427 L21.531,4 L19,4 L19,2.5 L18.9919396,2.41016187 C18.9495802,2.17698765 18.7453333,2 18.5,2 C18.2537778,2 18.0502222,2.17698765 18.0080274,2.41016187 L18,2.5 L18,4 L8,4 L8,2.5 L7.99193964,2.41016187 C7.94958025,2.17698765 7.74533333,2 7.5,2 Z" id="fill" fill="#171B1F"></path>
    </g>
</svg>