<svg width="10" height="10" viewBox="0 0 10 10" xmlns="http://www.w3.org/2000/svg"><title>activities/meetings_10</title><path d="M8.667 9L1.333 9C1.152 9 1 8.86 1 8.695L1 8l8 0 0 .695C9 8.863 8.851 9 8.667 9M1.333 2l7.334 0c.181 0 .333.14.333.305L9 7 1 7l0-4.695C1 2.137 1.149 2 1.333 2m7.334-1L8 1l0-.5c0-.276-.224-.5-.5-.5-.276 0-.5.224-.5.5L7 1 3 1l0-.499c0-.276-.224-.5-.5-.5-.276 0-.5.224-.5.5L2 1l-.667 0C.598 1 0 1.585 0 2.305l0 6.39C0 9.415.598 10 1.333 10l7.334 0C9.402 10 10 9.415 10 8.695l0-6.39C10 1.585 9.402 1 8.667 1" fill="#000" fill-rule="evenodd"/></svg>