<?xml version="1.0" encoding="UTF-8"?>
<svg width="24px" height="24px" viewBox="0 0 24 24" version="1.1" xmlns="http://www.w3.org/2000/svg" xmlns:xlink="http://www.w3.org/1999/xlink">
    <!-- Generator: Sketch 60.1 (88133) - https://sketch.com -->
    <title>activities/meetings-presence_24</title>
    <desc>Created with Sketch.</desc>
    <g id="activities/meetings-presence_24" stroke="none" stroke-width="1" fill="none" fill-rule="evenodd">
        <path d="M23,18 L23,20.534 C23,21.894 21.892,23 20.531,23 L20.531,23 L3.469,23 C2.107,23 1,21.894 1,20.534 L1,20.534 L1,18 L23,18 Z M1,5.466 C1,4.106 2.107,3 3.469,3 L3.469,3 L6,3 L6,1.5 C6,1.224 6.223,1 6.5,1 C6.776,1 7,1.224 7,1.5 L7,1.5 L7,3 L17,3 L17,1.5 C17,1.224 17.223,1 17.5,1 C17.776,1 18,1.224 18,1.5 L18,1.5 L18,3 L20.531,3 C21.892,3 23,4.106 23,5.466 L23,5.466 L23,17 L1,17 Z" id="fill" fill="#171B1F"></path>
    </g>
</svg>