<svg width="20" height="20" viewBox="0 0 20 20" xmlns="http://www.w3.org/2000/svg"><title>activities/meetings_20</title><path d="M16.5 18l-13 0c-.827 0-1.5-.673-1.5-1.5L2 15l16 0 0 1.5c0 .827-.673 1.5-1.5 1.5M3.5 4l13 0c.827 0 1.5.673 1.5 1.5l0 8.5-16 0 0-8.5C2 4.673 2.673 4 3.5 4m13-1L15 3l0-1.5c0-.275-.225-.5-.5-.5-.275 0-.5.225-.5.5L14 3 6 3l0-1.5c0-.275-.225-.5-.5-.5-.275 0-.5.225-.5.5L5 3 3.5 3C2.119 3 1 4.119 1 5.5l0 11C1 17.881 2.119 19 3.5 19l13 0c1.381 0 2.5-1.119 2.5-2.5l0-11C19 4.119 17.881 3 16.5 3" fill="#000" fill-rule="evenodd"/></svg>