<?xml version="1.0" encoding="UTF-8"?>
<svg width="10px" height="10px" viewBox="0 0 10 10" version="1.1" xmlns="http://www.w3.org/2000/svg" xmlns:xlink="http://www.w3.org/1999/xlink">
    <!-- Generator: Sketch 60.1 (88133) - https://sketch.com -->
    <title>activities/meetings-presence-stroke_10</title>
    <desc>Created with Sketch.</desc>
    <g id="activities/meetings-presence-stroke_10" stroke="none" stroke-width="1" fill="none" fill-rule="evenodd">
        <path d="M6.5003,0 C7.04252978,0 7.52424046,0.289556761 7.79304326,0.767376204 L7.86095991,0.902282164 L7.9,1.002 L7.98965103,1.00554793 C8.91701599,1.07159058 9.69625886,1.72138015 9.93264467,2.63900926 L9.96864427,2.80365985 L9.99191605,2.96442436 L10.0003,3.14410504 L10.0003,7.85564953 C10.0003,8.90468962 9.23589271,9.78384297 8.17448118,9.96932257 L8.01310035,9.99187648 L7.8333,10 L2.1663,10 C1.11555797,10 0.222385412,9.25284522 0.0319000998,8.19623198 L0.008665597,8.03547377 L0.000300000014,7.85635047 L0.000300000014,3.144 C0.000300000014,2.09540122 0.763835346,1.21618497 1.82513685,1.03068101 L1.9865071,1.0081238 L2.086,1.004 L2.10515453,0.948043665 C2.29123643,0.478224085 2.70780636,0.124706969 3.21530419,0.0270524618 L3.35586225,0.00686796906 L3.5003,0 C4.04252978,0 4.52424046,0.289556761 4.79304326,0.767376204 L4.86095991,0.902282164 L4.899,1 L5.087,1 L5.10515453,0.948043665 C5.29123643,0.478224085 5.70780636,0.124706969 6.21530419,0.0270524618 L6.35586225,0.00686796906 L6.5003,0 Z M9,7 L1,7 L1.0003,7.856 L1.00715393,7.98050963 C1.06603719,8.51221926 1.4975717,8.93551852 2.03941941,8.99327704 L2.1663,9 L7.8333,9 L7.96019333,8.99327704 C8.50214889,8.93551852 8.93444222,8.51221926 8.99343333,7.98050963 L9.0003,7.856 L9,7 Z M3.5003,1 C3.25496667,1 3.05071975,1.17698765 3.00836036,1.41016187 L3.0003,1.5 L3.0003,2 L2.1663,2 L2.03941941,2.00672296 C1.4975717,2.06448148 1.06603719,2.48778074 1.00715393,3.01949037 L1.0003,3.144 L1,6 L9,6 L9.0003,3.144 L8.99343333,3.01949037 C8.93444222,2.48778074 8.50214889,2.06448148 7.96019333,2.00672296 L7.8333,2 L7.0003,2 L7.0003,1.5 L6.99223964,1.41016187 C6.94988025,1.17698765 6.74563333,1 6.5003,1 C6.25496667,1 6.05071975,1.17698765 6.00836036,1.41016187 L6.0003,1.5 L6.0003,2 L4.0003,2 L4.0003,1.5 L3.99223964,1.41016187 C3.94988025,1.17698765 3.74563333,1 3.5003,1 Z" id="fill" fill="#171B1F"></path>
    </g>
</svg>