<svg width="12" height="10" viewBox="0 0 12 10" xmlns="http://www.w3.org/2000/svg"><title>activities/meet_10</title><path d="M9.7096 7.00007c-.377-.502-.929-.854-1.561-.965.152-.163.281-.345.394-.539l0 .004.901 0c.6 0 1.119.367 1.261.893l.163.607-1.158 0zm-7.182 1.997l.216-.864c.167-.669.766-1.136 1.455-1.136l1.73 0c.01 0 .019.003.029.003.01 0 .019-.003.029-.003l1.73 0c.689 0 1.288.467 1.455 1.136l.216.864-6.86 0zm-.322-1.997l-1.116 0 .164-.607c.142-.526.66-.893 1.261-.893l.86 0c.112.192.241.373.392.535-.632.111-1.184.463-1.561.965zm1.336-6c.376 0 .723.139 1.002.371-.939.507-1.586 1.488-1.586 2.629 0 .019.005.036.005.054-.587-.232-1.005-.802-1.005-1.471 0-.873.71-1.583 1.584-1.583zm2.416 1c1.103 0 2 .897 2 2 0 1.093-.882 1.981-1.971 1.997l-.058 0c-1.089-.016-1.971-.904-1.971-1.997 0-1.103.898-2 2-2zm2.459-1c.873 0 1.584.71 1.584 1.583 0 .685-.44 1.264-1.05 1.484.001-.023.007-.044.007-.067 0-1.13-.636-2.105-1.561-2.616.281-.24.635-.384 1.02-.384zm3.517 6.111l-.264-.978c-.209-.775-.846-1.354-1.634-1.553.583-.474.965-1.188.965-1.997 0-1.424-1.16-2.583-2.584-2.583-.81 0-1.562.402-2.047 1.042-.136-.02-.271-.042-.412-.042-.128 0-.249.022-.373.038-.485-.638-1.236-1.038-2.043-1.038-1.425 0-2.584 1.159-2.584 2.583 0 .809.381 1.523.965 1.997-.789.199-1.425.778-1.634 1.553l-.265.978c-.056.211-.012.432.122.606.136.177.353.283.58.283l1.021 0-.266 1.065c-.057.226-.007.461.136.644.143.183.359.288.591.288l7.5 0c.232 0 .448-.105.591-.288.143-.183.193-.418.137-.644l-.267-1.065 1.064 0c.227 0 .444-.106.58-.283.133-.174.178-.395.121-.606z" fill-rule="evenodd"/></svg>