<svg width="20" height="20" viewBox="0 0 20 20" xmlns="http://www.w3.org/2000/svg"><title>chat/mention_20</title><path d="M10 14c-2.206 0-4-1.794-4-4 0-2.206 1.794-4 4-4 2.206 0 4 1.794 4 4 0 2.206-1.794 4-4 4m0-14C4.486 0 0 4.486 0 10c0 5.514 4.486 10 10 10 2.081 0 4.077-.634 5.771-1.832.226-.159.279-.472.12-.697-.162-.227-.474-.28-.698-.119C13.669 18.43 11.873 19 10 19c-4.962 0-9-4.037-9-9 0-4.962 4.038-9 9-9 4.963 0 9 4.038 9 9l0 2c0 1.103-.897 2-2 2-1.103 0-2-.897-2-2l0-6.5c0-.276-.224-.5-.5-.5-.276 0-.5.224-.5.5l0 1.531C13.088 5.806 11.642 5 10 5c-2.757 0-5 2.243-5 5 0 2.757 2.243 5 5 5 1.713 0 3.226-.867 4.127-2.185C14.484 14.072 15.63 15 17 15c1.654 0 3-1.346 3-3l0-2c0-5.514-4.486-10-10-10" fill="#000" fill-rule="evenodd"/></svg>