<svg width="12" height="12" viewBox="0 0 12 12" xmlns="http://www.w3.org/2000/svg"><title>chat/mention_12</title><path d="M6 8c-1.103 0-2-.897-2-2 0-1.103.897-2 2-2 1.103 0 2 .897 2 2 0 1.103-.897 2-2 2m0-8C2.691 0 0 2.691 0 6c0 3.309 2.691 6 6 6 1.236 0 2.427-.378 3.441-1.092.226-.159.28-.471.122-.697-.16-.226-.47-.28-.698-.121-.844.596-1.836.91-2.865.91-2.757 0-5-2.243-5-5 0-2.757 2.243-5 5-5 2.757 0 5 2.243 5 5l0 1c0 .552-.448 1-1 1-.552 0-1-.448-1-1l0-3.5c0-.276-.224-.5-.5-.5-.276 0-.5.224-.5.5l0 .28C7.468 3.301 6.771 3 6 3 4.346 3 3 4.346 3 6c0 1.654 1.346 3 3 3 .903 0 1.705-.409 2.255-1.043C8.596 8.575 9.246 9 10 9c1.103 0 2-.897 2-2l0-1c0-3.309-2.691-6-6-6" fill="#000" fill-rule="evenodd"/></svg>