<svg width="8" height="8" viewBox="0 0 8 8" xmlns="http://www.w3.org/2000/svg"><title>chat/mention_8</title><path d="M4.0005 5c-.552 0-1-.449-1-1 0-.551.448-1 1-1 .552 0 1 .449 1 1 0 .551-.448 1-1 1m0-5c-2.206 0-4 1.794-4 4 0 2.206 1.794 4 4 4 .733 0 1.451-.2 2.075-.58.237-.143.311-.451.167-.687-.143-.237-.452-.31-.686-.167-.467.284-1.005.434-1.556.434-1.654 0-3-1.346-3-3 0-1.654 1.346-3 3-3 1.654 0 3 1.346 3 3l0 .5c0 .276-.225.5-.5.5-.275 0-.5-.224-.5-.5l0-2c0-.276-.224-.5-.5-.5-.205 0-.381.124-.458.301-.305-.187-.659-.301-1.042-.301-1.103 0-2 .897-2 2 0 1.103.897 2 2 2 .525 0 1-.208 1.357-.54.276.327.683.54 1.143.54.827 0 1.5-.673 1.5-1.5l0-.5c0-2.206-1.794-4-4-4" fill="#000" fill-rule="evenodd"/></svg>