<svg width="28" height="28" viewBox="0 0 28 28" fill="none" xmlns="http://www.w3.org/2000/svg">
<path fill-rule="evenodd" clip-rule="evenodd" d="M17.5152 16.5153C17.5152 18.4453 15.9452 20.0153 14.0152 20.0153C12.1492 20.0153 10.6342 18.5442 10.5342 16.7032L17.5152 9.72225V16.5153ZM10.5153 8.51525C10.5153 6.58525 12.0853 5.01525 14.0153 5.01525C15.8813 5.01525 17.3963 6.48625 17.4963 8.32725L10.5153 15.3083V8.51525ZM22.3843 4.14625C22.1893 3.95125 21.8722 3.95125 21.6772 4.14625L18.3743 7.44925C17.8933 5.48125 16.1313 4.01525 14.0153 4.01525C11.5303 4.01525 9.51525 6.03025 9.51525 8.51525V16.3083L5.64625 20.1772C5.45125 20.3722 5.45125 20.6883 5.64625 20.8843C5.74425 20.9813 5.87225 21.0303 6.00025 21.0303C6.12825 21.0303 6.25625 20.9813 6.35325 20.8843L9.65825 17.5793C10.1022 19.3843 11.6283 20.7543 13.5183 20.9653C13.5183 20.9693 13.5173 21.6522 13.5153 23.0152H11.5153C11.2403 23.0152 11.0153 23.2392 11.0153 23.5152C11.0153 23.7912 11.2403 24.0152 11.5153 24.0152H16.5153C16.7913 24.0152 17.0153 23.7912 17.0153 23.5152C17.0153 23.2392 16.7913 23.0152 16.5153 23.0152H14.5153V20.9823C16.7603 20.7143 18.5153 18.8303 18.5153 16.5153V8.72225L22.3843 4.85325C22.5793 4.65825 22.5793 4.34125 22.3843 4.14625Z" fill="#121212"/>
<path fill-rule="evenodd" clip-rule="evenodd" d="M25 24.834C25 24.926 24.925 25 24.833 25H21.167C21.075 25 21 24.926 21 24.834V22.167C21 22.075 21.075 22 21.167 22H24.833C24.925 22 25 22.075 25 22.167V24.834ZM23 19C23.552 19 24 19.449 24 20V21H22V20C22 19.449 22.448 19 23 19ZM25 21.033V20C25 18.9 24.1 18 23 18C21.9 18 21 18.9 21 20V21.033C20.439 21.118 20 21.582 20 22.167V24.834C20 25.477 20.523 26 21.167 26H24.833C25.477 26 26 25.477 26 24.834V22.167C26 21.582 25.561 21.118 25 21.033Z" fill="#121212"/>
</svg>
