<svg width="28" height="28" viewBox="0 0 28 28" xmlns="http://www.w3.org/2000/svg"><title>audio/microphone-muted_28</title><path d="M19 18.4436c0 2.481-2.019 4.5-4.5 4.5-2.481 0-4.5-2.019-4.5-4.5l0-.792 9-9 0 9.792zm-9-11.944c0-2.481 2.019-4.5 4.5-4.5 2.481 0 4.5 2.019 4.5 4.5l0 .738-9 9 0-9.738zm14.854-4.409c-.196-.195-.512-.195-.708 0l-4.159 4.159c-.132-2.915-2.539-5.25-5.487-5.25-3.033 0-5.5 2.468-5.5 5.5l0 10.738-4.854 4.853c-.195.196-.195.512 0 .707.098.098.226.147.354.147.128 0 .256-.049.354-.147l4.164-4.164c.097 2.775 2.246 5.037 4.982 5.285l0 2.026-3.5 0c-.276 0-.5.223-.5.5 0 .276.224.5.5.5l8 0c.276 0 .5-.224.5-.5 0-.277-.224-.5-.5-.5l-3.5 0 0-2.026c2.799-.254 5-2.611 5-5.475l0-10.792 4.854-4.854c.195-.195.195-.511 0-.707z" fill="#000" fill-rule="evenodd"/></svg>