<svg width="20" height="20" viewBox="0 0 20 20" xmlns="http://www.w3.org/2000/svg"><title>audio/microphone-muted_20</title><path d="M13.51525 12.51525c0 1.93-1.57 3.5-3.5 3.5-1.866 0-3.381-1.471-3.481-3.312l6.981-6.981 0 6.793zm-7-8c0-1.93 1.57-3.5 3.5-3.5 1.866 0 3.381 1.471 3.481 3.312l-6.981 6.981 0-6.793zm11.869-4.369c-.195-.195-.512-.195-.707 0l-3.303 3.303c-.481-1.968-2.243-3.434-4.359-3.434-2.485 0-4.5 2.015-4.5 4.5l0 7.793-3.869 3.869c-.195.195-.195.511 0 .707.098.097.226.146.354.146.128 0 .256-.049.353-.146l3.305-3.305c.444 1.805 1.97 3.175 3.86 3.386 0 .004-.001.687-.003 2.05l-2 0c-.275 0-.5.224-.5.5 0 .276.225.5.5.5l5 0c.276 0 .5-.224.5-.5 0-.276-.224-.5-.5-.5l-2 0 0-2.033c2.245-.268 4-2.152 4-4.467l0-7.793 3.869-3.869c.195-.195.195-.512 0-.707z" fill="#000" fill-rule="evenodd"/></svg>