<svg width="28" height="28" viewBox="0 0 28 28" xmlns="http://www.w3.org/2000/svg"><title>audio/microphone-muted_28</title><path d="M18.5088 18.4814c0 2.485-2.019 4.509-4.5 4.509-2.48 0-4.5-2.024-4.5-4.509l0-.778 9-9 0 9.778zm-9-11.97c0-2.486 2.02-4.509 4.5-4.509 2.481 0 4.5 2.023 4.5 4.509l0 .778-9 9 0-9.778zm13.868-3.383c-.195-.195-.512-.195-.707 0l-3.171 3.171c-.113-2.939-2.528-5.299-5.49-5.299-3.033 0-5.5 2.473-5.5 5.511l0 10.778-3.886 3.886c-.195.196-.195.512 0 .707.098.098.226.147.354.147.128 0 .256-.049.353-.147l3.199-3.198c.103 2.776 2.249 5.034 4.98 5.283l0 2.031-4.025 0c-.276 0-.5.223-.5.501 0 .276.224.501.5.501l9.025 0c.276 0 .5-.225.5-.501 0-.278-.224-.501-.5-.501l-4 0 0-2.031c2.799-.255 5-2.616 5-5.486l0-10.778 3.868-3.868c.195-.195.195-.511 0-.707z" fill="#000" fill-rule="evenodd"/></svg>