<svg width="18" height="18" viewBox="0 0 18 18" xmlns="http://www.w3.org/2000/svg"><title>audio/microphone-muted_18</title><path d="M12.00025 11.5c0 1.654-1.346 3-3 3-1.59 0-2.882-1.247-2.981-2.812l5.981-5.981 0 5.793zm-6-7.5c0-1.654 1.346-3 3-3 1.654 0 3 1.346 3 3l0 .293-6 6 0-6.293zm9.854-2.854c-.196-.195-.512-.195-.708 0l-2.211 2.212c-.31-1.9-1.949-3.358-3.935-3.358-2.206 0-4 1.794-4 4l0 7.293-2.854 2.853c-.195.196-.195.512 0 .708.098.097.226.146.354.146.128 0 .256-.049.354-.146l2.303-2.304c.423 1.54 1.734 2.7 3.353 2.9-.002.018-.01.032-.01.05l0 1.5-2 0c-.276 0-.5.224-.5.5 0 .276.224.5.5.5l5 0c.276 0 .5-.224.5-.5 0-.276-.224-.5-.5-.5l-2 0 0-1.5c0-.018-.008-.032-.01-.05 1.973-.244 3.51-1.912 3.51-3.95l0-6.793 2.854-2.853c.195-.196.195-.512 0-.708z" fill="#000" fill-rule="evenodd"/></svg>