<svg width="10" height="10" viewBox="0 0 10 10" xmlns="http://www.w3.org/2000/svg"><title>audio/microphone-muted_10</title><path d="M7 6.5C7 7.327 6.327 8 5.5 8c-.763 0-1.387-.574-1.481-1.312L7 3.707 7 6.5zm-3-4C4 1.673 4.673 1 5.5 1c.763 0 1.387.574 1.481 1.312L4 5.293 4 2.5zM9.854.146c-.196-.195-.512-.195-.708 0L7.79 1.503C7.404.62 6.524 0 5.5 0 4.122 0 3 1.122 3 2.5l0 3.793-1.854 1.853c-.195.196-.195.512 0 .708.098.097.226.146.354.146.128 0 .256-.049.354-.146L3.21 7.497c.321.734.987 1.281 1.79 1.446L5 9l-.5 0c-.276 0-.5.224-.5.5 0 .276.224.5.5.5l.5 0 1 0 .5 0c.276 0 .5-.224.5-.5 0-.276-.224-.5-.5-.5L6 9l0-.051C7.14 8.717 8 7.708 8 6.5l0-3.793L9.854.854c.195-.196.195-.512 0-.708z" fill-rule="evenodd"/></svg>