<svg width="20" height="20" viewBox="0 0 20 20" fill="none" xmlns="http://www.w3.org/2000/svg">
<path fill-rule="evenodd" clip-rule="evenodd" d="M11.5003 11.501C11.5003 12.328 10.8273 13.001 10.0003 13.001C9.17325 13.001 8.50025 12.328 8.50025 11.501V11.207L11.5003 8.207V11.501ZM8.50025 6.501C8.50025 5.674 9.17325 5.001 10.0003 5.001C10.8273 5.001 11.5003 5.674 11.5003 6.501V6.793L8.50025 9.793V6.501ZM14.8542 4.147C14.6582 3.951 14.3422 3.951 14.1462 4.147L12.4123 5.881C12.1333 4.805 11.1602 4.001 10.0002 4.001C8.62525 4.001 7.50025 5.126 7.50025 6.501V10.793L5.14625 13.147C4.95125 13.342 4.95125 13.658 5.14625 13.854C5.24425 13.951 5.37225 14 5.50025 14C5.62825 14 5.75625 13.951 5.85425 13.854L7.58725 12.12C7.82525 13.038 8.56525 13.759 9.50025 13.95V15.001H8.50025C8.22525 15.001 8.00025 15.227 8.00025 15.501C8.00025 15.776 8.22525 16.001 8.50025 16.001H11.5002C11.7752 16.001 12.0002 15.776 12.0002 15.501C12.0002 15.227 11.7752 15.001 11.5002 15.001H10.5002V13.95C11.6382 13.717 12.5002 12.705 12.5002 11.501V7.207L14.8542 4.854C15.0492 4.658 15.0492 4.342 14.8542 4.147Z" fill="#121212"/>
<path fill-rule="evenodd" clip-rule="evenodd" d="M19 16.834C19 16.926 18.925 17 18.833 17H15.167C15.075 17 15 16.926 15 16.834V14.167C15 14.075 15.075 14 15.167 14H18.833C18.925 14 19 14.075 19 14.167V16.834ZM17 11C17.552 11 18 11.449 18 12V13H16V12C16 11.449 16.448 11 17 11ZM19 13.033V12C19 10.9 18.1 10 17 10C15.9 10 15 10.9 15 12V13.033C14.439 13.118 14 13.582 14 14.167V16.834C14 17.477 14.523 18 15.167 18H18.833C19.477 18 20 17.477 20 16.834V14.167C20 13.582 19.561 13.118 19 13.033Z" fill="#121212"/>
</svg>
