<svg width="16" height="16" viewBox="0 0 16 16" xmlns="http://www.w3.org/2000/svg"><title>audio/microphone-muted_16</title><path d="M11 4.2929l-5 5 0-5.796C6 2.1199 7.122.9999 8.5.9999c1.381 0 2.5 1.118 2.5 2.497l0 .796zm0 6.21c0 1.378-1.121 2.497-2.5 2.497-1.318 0-2.385-1.021-2.481-2.311L11 5.7069l0 4.796zm2.854-8.356c-.196-.196-.512-.196-.708 0l-1.165 1.165c-.098-1.844-1.611-3.312-3.481-3.312-1.929 0-3.5 1.566-3.5 3.497l0 6.796-1.854 1.854c-.195.195-.195.511 0 .707.196.195.512.195.708 0l1.319-1.319c.394 1.269 1.481 2.221 2.827 2.415l0 1.05-1.502 0c-.283 0-.498.224-.498.5 0 .268.223.5.498.5l4.004 0c.283 0 .498-.224.498-.5 0-.268-.223-.5-.498-.5l-1.502 0 0-1.05c1.691-.245 3-1.687 3-3.447l0-5.796 1.854-1.853c.195-.196.195-.512 0-.707z" fill="#000" fill-rule="evenodd"/></svg>