<svg width="16" height="16" viewBox="0 0 16 16" xmlns="http://www.w3.org/2000/svg"><title>audio/microphone_16</title><path d="M9 13.9645556L9 15l1.5 0c.27614237 0 .5.2238576.5.5 0 .2761424-.22385763.5-.5.5l-4 0c-.27614237 0-.5-.2238576-.5-.5 0-.2761424.22385763-.5.5-.5L8 15l0-1.0354444C6.30385293 13.7219407 5 12.263236 5 10.5l0-7C5 1.56700338 6.56700338 0 8.5 0 10.43299662 0 12 1.56700338 12 3.5l0 7c0 1.763236-1.30385293 3.2219407-3 3.4645556zM6 3.5l0 7C6 11.8807119 7.11928813 13 8.5 13c1.38071187 0 2.5-1.1192881 2.5-2.5l0-7C11 2.11928813 9.88071187 1 8.5 1 7.11928813 1 6 2.11928813 6 3.5z" fill="#000" fill-rule="evenodd"/></svg>