<svg width="32" height="32" xmlns="http://www.w3.org/2000/svg"><path d="M21.5 20.56c0 3-2.44 5.44-5.44 5.44h-.043a5.446 5.446 0 01-5.44-5.44v-.09L21.5 9.46v11.1zM10.577 7.44c0-3 2.44-5.44 5.483-5.44 3 0 5.44 2.44 5.44 5.44v.6L10.577 19.051V7.44zm16.775-4.589a.5.5 0 00-.707.003L22.48 7.052C22.278 3.682 19.479 1 16.017 1a6.447 6.447 0 00-6.44 6.44v12.619L4.645 25.03a.5.5 0 00.71.704l4.286-4.32a6.442 6.442 0 005.882 5.561c-.01.038-.023.073-.023.113V30h-3.731a.5.5 0 000 1h8.462a.5.5 0 000-1H16.5v-2.912c0-.039-.014-.073-.022-.109 3.356-.217 6.022-3.009 6.022-6.419V8.452l4.855-4.894a.5.5 0 00-.003-.707z" fill="#171B1F" fill-rule="evenodd"/></svg>