<svg width="12" height="12" viewBox="0 0 12 12" xmlns="http://www.w3.org/2000/svg"><title>audio/microphone-muted_12</title><path d="M7.50025 7.501c0 .827-.673 1.5-1.5 1.5-.827 0-1.5-.673-1.5-1.5l0-.294 3-3 0 3.294zm-3-5c0-.827.673-1.5 1.5-1.5.827 0 1.5.673 1.5 1.5l0 .292-3 3 0-3.292zm6.354-2.354c-.196-.196-.512-.196-.708 0l-1.734 1.734c-.279-1.076-1.252-1.88-2.412-1.88-1.375 0-2.5 1.125-2.5 2.5l0 4.292-2.354 2.354c-.195.195-.195.511 0 .707.098.097.226.146.354.146.128 0 .256-.049.354-.146l1.733-1.734c.238.918.978 1.639 1.913 1.83l0 1.051-1 0c-.275 0-.5.226-.5.5 0 .275.225.5.5.5l3 0c.275 0 .5-.225.5-.5 0-.274-.225-.5-.5-.5l-1 0 0-1.051c1.138-.233 2-1.245 2-2.449l0-4.294 2.354-2.353c.195-.196.195-.512 0-.707z" fill="#000" fill-rule="evenodd"/></svg>