<svg width="20" height="20" viewBox="0 0 20 20" fill="none" xmlns="http://www.w3.org/2000/svg">
<path fill-rule="evenodd" clip-rule="evenodd" d="M6 8H14V9H6V8ZM14 10H6V13C6 15.2091 7.79086 16.5 10 16.5C12.2091 16.5 14 15.2091 14 13V10Z" fill="#00CF64"/>
<path fill-rule="evenodd" clip-rule="evenodd" d="M13.5 12.5C13.5 14.43 11.93 16 10 16C8.07 16 6.5 14.43 6.5 12.5V4.5C6.5 2.57 8.07 1 10 1C11.93 1 13.5 2.57 13.5 4.5V12.5ZM5.5 4.5V12.5C5.5 14.815 7.255 16.699 9.503 16.95C9.503 16.956 9.5 19 9.5 19H7.5C7.225 19 7 19.224 7 19.5C7 19.776 7.225 20 7.5 20H12.5C12.776 20 13 19.776 13 19.5C13 19.224 12.776 19 12.5 19H10.5V16.967C12.745 16.699 14.5 14.815 14.5 12.5V4.5C14.5 2.015 12.485 0 10 0C7.515 0 5.5 2.015 5.5 4.5Z" fill="#121212"/>
</svg>
