<svg width="36" height="36" viewBox="0 0 36 36" xmlns="http://www.w3.org/2000/svg"><title>audio/microphone-muted_36</title><path d="M25.00025 23.5c0 3.584-2.916 6.5-6.5 6.5-3.584 0-6.5-2.916-6.5-6.5l0-.793 13-13 0 13.793zm-13-15c0-3.584 2.916-6.5 6.5-6.5 3.517 0 6.385 2.811 6.49 6.303l-12.99 12.99 0-12.793zm19.852-6.352c-.196-.195-.512-.195-.707 0l-5.237 5.237c-.541-3.607-3.652-6.385-7.408-6.385-4.136 0-7.5 3.364-7.5 7.5l0 13.793-5.854 5.853c-.195.196-.195.512 0 .708.098.097.226.146.354.146.128 0 .256-.049.354-.146l5.156-5.157c.101 3.876 3.153 7.023 6.99 7.278l0 3.025-5.5 0c-.276 0-.5.224-.5.5 0 .276.224.5.5.5l5.5 0c0 .051.01.037.024 0l.952 0c.014.037.024.051.024 0l5.5 0c.276 0 .5-.224.5-.5 0-.276-.224-.5-.5-.5l-5.5 0 0-3.025c3.902-.259 7-3.508 7-7.475l0-14.793 5.852-5.852c.195-.195.195-.511 0-.707z" fill="#000" fill-rule="evenodd"/></svg>