<svg width="24" height="24" viewBox="0 0 24 24" xmlns="http://www.w3.org/2000/svg"><title>meetings/mind-map_24</title><path d="M19.5 22c-1.378 0-2.5-1.122-2.5-2.5 0-1.378 1.122-2.5 2.5-2.5 1.378 0 2.5 1.122 2.5 2.5 0 1.378-1.122 2.5-2.5 2.5M9.5 4.5C9.5 3.122 10.622 2 12 2c1.378 0 2.5 1.122 2.5 2.5C14.5 5.878 13.378 7 12 7c-1.378 0-2.5-1.122-2.5-2.5M4.5 22C3.122 22 2 20.878 2 19.5 2 18.122 3.122 17 4.5 17 5.878 17 7 18.122 7 19.5 7 20.878 5.878 22 4.5 22m15-6c-.875 0-1.665.333-2.279.863L12.5 12.771l0-4.821c1.694-.245 3-1.688 3-3.45C15.5 2.567 13.933 1 12 1c-1.933 0-3.5 1.567-3.5 3.5 0 1.762 1.306 3.205 3 3.45l0 4.821-4.721 4.092C6.165 16.333 5.375 16 4.5 16 2.567 16 1 17.567 1 19.5 1 21.433 2.567 23 4.5 23 6.433 23 8 21.433 8 19.5c0-.696-.209-1.341-.56-1.887L12 13.662l4.56 3.951c-.351.546-.56 1.191-.56 1.887 0 1.933 1.567 3.5 3.5 3.5 1.933 0 3.5-1.567 3.5-3.5 0-1.933-1.567-3.5-3.5-3.5" fill="#000" fill-rule="evenodd"/></svg>