<svg width="28" height="28" viewBox="0 0 28 28" xmlns="http://www.w3.org/2000/svg"><title>common-actions/more-android_28</title><path d="M13 14c0-.55228475.44771525-1 1-1 .55228475 0 1 .44771525 1 1 0 .55228475-.44771525 1-1 1-.55228475 0-1-.44771525-1-1zm0 7c0-.5522847.44771525-1 1-1 .55228475 0 1 .4477153 1 1 0 .5522847-.44771525 1-1 1-.55228475 0-1-.4477153-1-1zm0-14c0-.55228475.44771525-1 1-1 .55228475 0 1 .44771525 1 1 0 .55228475-.44771525 1-1 1-.55228475 0-1-.44771525-1-1z" fill="#000" fill-rule="evenodd"/></svg>