<?xml version="1.0" encoding="UTF-8"?>
<svg width="140px" height="140px" viewBox="0 0 140 140" version="1.1" xmlns="http://www.w3.org/2000/svg" xmlns:xlink="http://www.w3.org/1999/xlink">
    <!-- Generator: Sketch 61.2 (89653) - https://sketch.com -->
    <title>common-actions/more-circle_140</title>
    <desc>Created with Sketch.</desc>
    <g id="common-actions/more-circle_140" stroke="none" stroke-width="1" fill="none" fill-rule="evenodd">
        <path d="M69.9996,0.0003 C31.4016,0.0003 -0.0004,31.4013 -0.0004,70.0003 C-0.0004,108.5983 31.4016,140.0003 69.9996,140.0003 C108.5976,140.0003 139.9996,108.5983 139.9996,70.0003 C139.9996,31.4013 108.5976,0.0003 69.9996,0.0003 M69.9996,139.0003 C31.9526,139.0003 0.9996,108.0473 0.9996,70.0003 C0.9996,31.9533 31.9526,1.0003 69.9996,1.0003 C108.0466,1.0003 138.9996,31.9533 138.9996,70.0003 C138.9996,108.0473 108.0466,139.0003 69.9996,139.0003 M44.5055,68.9886 C43.6745,68.9886 42.9995,69.6636 42.9995,70.4946 C42.9995,71.3256 43.6745,71.9996 44.5055,71.9996 C45.3365,71.9996 46.0115,71.3256 46.0115,70.4946 C46.0115,69.6636 45.3365,68.9886 44.5055,68.9886 M69.5055,68.9886 C68.6745,68.9886 67.9995,69.6636 67.9995,70.4946 C67.9995,71.3256 68.6745,71.9996 69.5055,71.9996 C70.3365,71.9996 71.0115,71.3256 71.0115,70.4946 C71.0115,69.6636 70.3365,68.9886 69.5055,68.9886 M94.5055,68.9886 C93.6745,68.9886 92.9995,69.6636 92.9995,70.4946 C92.9995,71.3256 93.6745,71.9996 94.5055,71.9996 C95.3365,71.9996 96.0115,71.3256 96.0115,70.4946 C96.0115,69.6636 95.3365,68.9886 94.5055,68.9886" id="fill" fill="#171B1F"></path>
    </g>
</svg>