<?xml version="1.0" encoding="UTF-8"?>
<svg width="16px" height="16px" viewBox="0 0 16 16" version="1.1" xmlns="http://www.w3.org/2000/svg" xmlns:xlink="http://www.w3.org/1999/xlink">
    <!-- Generator: Sketch 60.1 (88133) - https://sketch.com -->
    <title>meetings/move-call-out-laptop_16</title>
    <desc>Created with Sketch.</desc>
    <g id="meetings/move-call-out-laptop_16" stroke="none" stroke-width="1" fill="none" fill-rule="evenodd">
        <path d="M15.5001,11 L15.0001,11 L15.0001,10.5 C15.0001,10.225 14.7751,10 14.5001,10 C14.2251,10 14.0001,10.225 14.0001,10.5 L14.0001,11 L2.0001,11 L2.0001,4 C2.0001,3.449 2.4491,3 3.0001,3 L13.0001,3 C13.2811,3 13.5531,3.122 13.7431,3.334 C13.8421,3.444 13.9791,3.5 14.1151,3.5 C14.2341,3.5 14.3541,3.458 14.4491,3.372 C14.6551,3.187 14.6721,2.872 14.4871,2.666 C14.1071,2.243 13.5651,2 13.0001,2 L3.0001,2 C1.8951,2 1.0001,2.895 1.0001,4 L1.0001,11 L0.5001,11 C0.2241,11 0.0001,11.224 0.0001,11.5 L0.0001,12 C0.0001,13.105 0.8951,14 2.0001,14 L14.0001,14 C15.1051,14 16.0001,13.105 16.0001,12 L16.0001,11.5 C16.0001,11.224 15.7761,11 15.5001,11 M14.0001,13 L2.0001,13 C1.4491,13 1.0001,12.551 1.0001,12 L15.0001,12 C15.0001,12.551 14.5511,13 14.0001,13 M13.0001,4 C12.8721,4 12.7441,4.049 12.6461,4.146 C12.4511,4.342 12.4511,4.658 12.6461,4.854 L14.2931,6.5 L9.5001,6.5 C9.2231,6.5 9.0001,6.724 9.0001,7 C9.0001,7.276 9.2231,7.5 9.5001,7.5 L14.2931,7.5 L12.6461,9.146 C12.4511,9.342 12.4511,9.658 12.6461,9.854 C12.8421,10.049 13.1581,10.049 13.3541,9.854 L15.8541,7.354 C16.0491,7.158 16.0491,6.842 15.8541,6.646 L13.3541,4.146 C13.2561,4.049 13.1281,4 13.0001,4" id="fill" fill="#171B1F"></path>
    </g>
</svg>