<svg width="12" height="12" viewBox="0 0 12 12" xmlns="http://www.w3.org/2000/svg"><title>meetings/move-call-out-adr_12</title><path d="M10.9619 5.8091c.05.122.05.26 0 .382-.025.061-.062.117-.109.163l-1.999 1.999c-.196.196-.512.196-.707 0-.196-.195-.196-.511 0-.707l1.146-1.146-2.793 0c-.276 0-.5-.224-.5-.5 0-.276.224-.5.5-.5l2.793 0-1.146-1.147c-.196-.195-.196-.511 0-.707.097-.097.225-.146.353-.146.128 0 .256.049.354.146l1.999 2c.047.046.084.101.109.163zM8.5 10c.275 0 .5.225.5.5 0 .827-.673 1.5-1.5 1.5l-5 0c-.827 0-1.5-.673-1.5-1.5l0-9C1 .673 1.673 0 2.5 0l5 0C8.327 0 9 .673 9 1.5c0 .276-.224.5-.5.5-.276 0-.5-.224-.5-.5 0-.276-.224-.5-.5-.5l-5 0c-.276 0-.5.224-.5.5L2 9l0 1 0 .5c0 .276.224.5.5.5l5 0c.276 0 .5-.224.5-.5 0-.275.225-.5.5-.5zm-4-8l1 0c.275 0 .5.225.5.5 0 .275-.225.5-.5.5l-1 0c-.275 0-.5-.225-.5-.5 0-.275.225-.5.5-.5z" fill="#000" fill-rule="evenodd"/></svg>