<svg width="20" height="20" viewBox="0 0 20 20" xmlns="http://www.w3.org/2000/svg"><title>meetings/move-call-in-laptop_20</title><path d="M14.8538 4.8445l-3.145 3.141 7.791 0c.276 0 .5.224.5.5 0 .276-.224.5-.5.5l-7.797 0 3.151 3.146c.195.195.195.512 0 .708-.098.097-.226.146-.354.146-.127 0-.256-.049-.354-.146l-4-3.995c-.098-.098-.146-.227-.146-.356l0-.003c0-.065.013-.13.04-.192.022-.056.057-.106.098-.149.004-.004.005-.009.008-.013l4-3.995c.196-.194.512-.194.708.001.195.196.195.512 0 .707zm4.6464 9.1463c.276 0 .5.224.5.5l0 .778c0 1.501-1.222 2.722-2.723 2.722l-14.555 0c-1.501 0-2.722-1.221-2.722-2.722l0-.778c0-.276.224-.5.5-.5l.5 0 0-9.833c0-.921.579-1.704 1.391-2.017.216-.092.47-.15.609-.15l14 0c.139 0 .392.058.609.15.811.313 1.391 1.096 1.391 2.017l0 1.333 0 1c0 .275-.225.5-.5.5-.275 0-.5-.225-.5-.5l0-1 0-1.333c0-.643-.523-1.167-1.167-1.167l-13.666 0c-.644 0-1.167.524-1.167 1.167l0 9.833 16 0 0-2 0-1.5c0-.275.225-.5.5-.5.275 0 .5.225.5.5l0 1.5 0 2 .5 0zm-.5 1.278l0-.278-18 0 0 .278c0 .95.772 1.722 1.722 1.722l14.555 0c.951 0 1.723-.772 1.723-1.722z" fill="#000" fill-rule="evenodd"/></svg>