<svg width="24" height="24" viewBox="0 0 24 24" xmlns="http://www.w3.org/2000/svg"><title>meetings/move-call-in-adr_24</title><path d="M21.5 11.4971c.276 0 .5.224.5.5 0 .276-.224.5-.5.5l-8.797 0 4.151 4.146c.195.195.195.512 0 .708-.098.097-.226.146-.354.146-.128 0-.256-.049-.354-.146l-5-4.995c-.098-.098-.146-.227-.146-.356l0-.003c0-.065.014-.13.039-.192.023-.056.059-.106.1-.149.004-.004.005-.009.007-.013l5-4.995c.196-.194.512-.194.708.001.195.196.195.512 0 .707l-4.145 4.141 8.791 0zM6.5 3l4 0c.275 0 .5.225.5.5 0 .275-.225.5-.5.5l-4 0c-.275 0-.5-.225-.5-.5 0-.275.225-.5.5-.5zm6.5.5c0-.275.225-.5.5-.5.275 0 .5.225.5.5 0 .275-.225.5-.5.5-.275 0-.5-.225-.5-.5zM17.5 20c.275 0 .5.225.5.5l0 1c0 1.381-1.119 2.5-2.5 2.5l-11 0C3.119 24 2 22.881 2 21.5l0-19C2 1.119 3.119 0 4.5 0l11 0C16.881 0 18 1.119 18 2.5l0 1c0 .275-.225.5-.5.5-.275 0-.5-.225-.5-.5l0-1c0-.829-.672-1.5-1.5-1.5l-11 0C3.672 1 3 1.671 3 2.5L3 19l0 1 0 1.5c0 .827.673 1.5 1.5 1.5l11 0c.827 0 1.5-.673 1.5-1.5l0-1c0-.275.225-.5.5-.5z" fill="#000" fill-rule="evenodd"/></svg>