<svg width="18" height="18" viewBox="0 0 18 18" xmlns="http://www.w3.org/2000/svg"><title>meetings/move-call-in-tablet_18</title><path d="M13 15.927c0 .592-.481 1.073-1.073 1.073l-9.854 0C1.481 17 1 16.519 1 15.927L1 14l12 0 0 1.927zM13.5 13c.276 0 .5.224.5.5l0 2.427C14 17.07 13.07 18 11.927 18l-9.854 0C.93 18 0 17.07 0 15.927L0 2.073C0 .93.93 0 2.073 0l9.854 0C13.07 0 14 .93 14 2.073L14 3.5c0 .277-.224.5-.5.5-.276 0-.5-.223-.5-.5l0-1.427C13 1.482 12.519 1 11.927 1L2.073 1C1.481 1 1 1.482 1 2.073L1 13l12.5 0zm-1.793-4.9997l5.793 0c.276 0 .5.224.5.5 0 .276-.224.5-.5.5l-5.793 0 2.146 2.147c.196.195.196.511 0 .707-.097.097-.225.146-.353.146-.128 0-.256-.049-.354-.146l-2.999-3c-.047-.046-.084-.101-.109-.163-.05-.122-.05-.26 0-.382.025-.061.062-.117.109-.163l2.999-2.999c.196-.196.512-.196.707 0 .196.195.196.511 0 .707l-2.146 2.146zm-5.207 8l1 0c.275 0 .5-.225.5-.5 0-.275-.225-.5-.5-.5l-1 0c-.275 0-.5.225-.5.5 0 .275.225.5.5.5z" fill="#000" fill-rule="evenodd"/></svg>