<?xml version="1.0" encoding="UTF-8"?>
<svg width="18px" height="18px" viewBox="0 0 18 18" version="1.1" xmlns="http://www.w3.org/2000/svg" xmlns:xlink="http://www.w3.org/1999/xlink">
    <!-- Generator: Sketch 60.1 (88133) - https://sketch.com -->
    <title>meetings/move-call-out-iph_18</title>
    <desc>Created with Sketch.</desc>
    <g id="meetings/move-call-out-iph_18" stroke="none" stroke-width="1" fill="none" fill-rule="evenodd">
        <path d="M13.5,12.9998 L3,12.9998 L3,2.0728 C3,1.4818 3.481,0.9998 4.073,0.9998 L11.927,0.9998 C12.519,0.9998 13,1.4818 13,2.0728 L13,3.4998 C13,3.7768 13.224,3.9998 13.5,3.9998 C13.776,3.9998 14,3.7768 14,3.4998 L14,2.0728 C14,0.9298 13.07,-0.000200000002 11.927,-0.000200000002 L4.073,-0.000200000002 C2.93,-0.000200000002 2,0.9298 2,2.0728 L2,15.9268 C2,17.0698 2.93,17.9998 4.073,17.9998 L11.927,17.9998 C13.07,17.9998 14,17.0698 14,15.9268 L14,13.4998 C14,13.2238 13.776,12.9998 13.5,12.9998 L13.5,12.9998 Z M13,15.9268 C13,16.5188 12.519,16.9998 11.927,16.9998 L4.073,16.9998 C3.481,16.9998 3,16.5188 3,15.9268 L3,13.9998 L13,13.9998 L13,15.9268 Z M7.5,16.0001 L8.5,16.0001 C8.775,16.0001 9,15.7751 9,15.5001 C9,15.2251 8.775,15.0001 8.5,15.0001 L7.5,15.0001 C7.225,15.0001 7,15.2251 7,15.5001 C7,15.7751 7.225,16.0001 7.5,16.0001 M15.9624,8.3091 C15.9374,8.2471 15.9004,8.1921 15.8534,8.1461 L12.8544,5.1461 C12.7564,5.0491 12.6284,5.0001 12.5004,5.0001 C12.3724,5.0001 12.2444,5.0491 12.1474,5.1461 C11.9514,5.3421 11.9514,5.6581 12.1474,5.8531 L14.2934,8.0001 L9.5004,8.0001 C9.2244,8.0001 9.0004,8.2241 9.0004,8.5001 C9.0004,8.7761 9.2244,9.0001 9.5004,9.0001 L14.2934,9.0001 L12.1474,11.1461 C11.9514,11.3421 11.9514,11.6581 12.1474,11.8531 C12.3424,12.0491 12.6584,12.0491 12.8544,11.8531 L15.8534,8.8541 C15.9004,8.8081 15.9374,8.7521 15.9624,8.6911 C16.0124,8.5691 16.0124,8.4311 15.9624,8.3091" id="fill" fill="#171B1F"></path>
    </g>
</svg>