<svg width="24" height="24" viewBox="0 0 24 24" xmlns="http://www.w3.org/2000/svg"><title>meetings/move-call-out-iph_24</title><path d="M21.8545 11.1465c.098.098.146.227.146.356l0 .003c0 .065-.013.13-.04.192-.022.056-.057.106-.098.149-.004.004-.005.009-.008.013l-5 4.995c-.196.194-.513.194-.708-.001-.195-.196-.195-.512 0-.707l4.145-4.141-8.791 0c-.276 0-.5-.224-.5-.5 0-.276.224-.5.5-.5l8.796 0-4.15-4.146c-.195-.195-.195-.512 0-.708.098-.097.226-.146.354-.146.127 0 .255.049.354.146l5 4.995zM17.5 19.0001c.276 0 .5.224.5.5l0 2c0 1.38-1.119 2.5-2.5 2.5l-11 0c-1.381 0-2.5-1.12-2.5-2.5l0-19c0-1.381 1.119-2.5 2.5-2.5l11 0c1.381 0 2.5 1.119 2.5 2.5l0 1c0 .275-.225.5-.5.5-.275 0-.5-.225-.5-.5l0-1c0-.829-.672-1.5-1.5-1.5l-11 0c-.828 0-1.5.671-1.5 1.5l0 16.5 14.5 0zm-.5 2.5l0-1.5-14 0 0 1.5c0 .827.673 1.5 1.5 1.5l11 0c.827 0 1.5-.673 1.5-1.5zm-7.5.5c-.275 0-.5-.225-.5-.5 0-.275.225-.5.5-.5l1 0c.275 0 .5.225.5.5 0 .275-.225.5-.5.5l-1 0z" fill="#000" fill-rule="evenodd"/></svg>