<svg width="28" height="28" viewBox="0 0 28 28" xmlns="http://www.w3.org/2000/svg"><title>meetings/move-call-in-iph_28</title><path d="M25.5 12.0039c.276 0 .5.224.5.5 0 .276-.224.5-.5.5l-10.794 0 5.148 5.151c.194.196.194.512 0 .707-.099.098-.227.147-.354.147-.128 0-.256-.049-.354-.147l-5.999-6.004c-.047-.046-.084-.101-.109-.163-.051-.122-.051-.26 0-.382.025-.061.062-.117.109-.163l5.999-6.003c.195-.196.512-.196.708 0 .194.195.194.511 0 .707l-5.148 5.15 10.794 0zM19.5 21c.276 0 .5.224.5.5l0 2.5c0 1.654-1.346 3-3 3L5 27c-1.654 0-3-1.346-3-3L2 4c0-1.654 1.346-3 3-3l12 0c1.418 0 2.653 1.009 2.939 2.399.055.27-.119.535-.389.59-.268.053-.535-.118-.591-.389C18.77 2.673 17.945 2 17 2L5 2c-1.103 0-2 .897-2 2l0 17 16.5 0zm-.5 3l0-2-16 0 0 2c0 1.103.897 2 2 2l12 0c1.103 0 2-.897 2-2zm-8.5.5c-.275 0-.5-.225-.5-.5 0-.275.225-.5.5-.5l1 0c.275 0 .5.225.5.5 0 .275-.225.5-.5.5l-1 0z" fill="#000" fill-rule="evenodd"/></svg>