<svg width="28" height="28" viewBox="0 0 28 28" xmlns="http://www.w3.org/2000/svg"><title>meetings/move-call-out-iph_28</title><path d="M25.9619 12.314c.051.122.051.26 0 .382-.025.061-.062.117-.109.163l-5.999 6.003c-.195.196-.512.196-.707 0-.195-.195-.195-.511 0-.707l5.147-5.15-10.794 0c-.276 0-.5-.224-.5-.5 0-.276.224-.5.5-.5l10.794 0-5.147-5.151c-.195-.196-.195-.512 0-.707.098-.098.226-.147.353-.147.128 0 .256.049.354.147l5.999 6.004c.047.046.084.101.109.163zM19.5 21.0001c.276 0 .5.224.5.5l0 2.5c0 1.654-1.346 3-3 3l-12 0c-1.654 0-3-1.346-3-3l0-20c0-1.654 1.346-3 3-3l12 0c1.418 0 2.653 1.009 2.939 2.399.055.27-.119.535-.389.59-.268.053-.535-.118-.591-.389-.189-.927-1.014-1.6-1.959-1.6l-12 0c-1.103 0-2 .897-2 2l0 17 16.5 0zm-.5 3l0-2-16 0 0 2c0 1.103.897 2 2 2l12 0c1.103 0 2-.897 2-2zm-8.5.5c-.275 0-.5-.225-.5-.5 0-.275.225-.5.5-.5l1 0c.275 0 .5.225.5.5 0 .275-.225.5-.5.5l-1 0z" fill="#000" fill-rule="evenodd"/></svg>