<?xml version="1.0" encoding="UTF-8"?>
<svg width="20px" height="20px" viewBox="0 0 20 20" version="1.1" xmlns="http://www.w3.org/2000/svg" xmlns:xlink="http://www.w3.org/1999/xlink">
    <!-- Generator: Sketch 60.1 (88133) - https://sketch.com -->
    <title>meetings/move-call-out-iph_20</title>
    <desc>Created with Sketch.</desc>
    <g id="meetings/move-call-out-iph_20" stroke="none" stroke-width="1" fill="none" fill-rule="evenodd">
        <path d="M14.5,15.0001 L2,15.0001 L2,2.5001 C2,1.6731 2.673,1.0001 3.5,1.0001 L12.5,1.0001 C13.327,1.0001 14,1.6731 14,2.5001 L14,3.5001 C14,3.7761 14.224,4.0001 14.5,4.0001 C14.776,4.0001 15,3.7761 15,3.5001 L15,2.5001 C15,1.1191 13.881,9.99999975e-05 12.5,9.99999975e-05 L3.5,9.99999975e-05 C2.119,9.99999975e-05 1,1.1191 1,2.5001 L1,17.5001 C1,18.8811 2.119,20.0001 3.5,20.0001 L12.5,20.0001 C13.881,20.0001 15,18.8811 15,17.5001 L15,16.5001 L15,15.5001 C15,15.2251 14.775,15.0001 14.5,15.0001 L14.5,15.0001 Z M14,16.5001 L14,17.5001 C14,18.3271 13.327,19.0001 12.5,19.0001 L3.5,19.0001 C2.673,19.0001 2,18.3271 2,17.5001 L2,16.0001 L14,16.0001 L14,16.5001 Z M7.5,18.0001 L8.5,18.0001 C8.775,18.0001 9,17.7751 9,17.5001 C9,17.2251 8.775,17.0001 8.5,17.0001 L7.5,17.0001 C7.225,17.0001 7,17.2251 7,17.5001 C7,17.7751 7.225,18.0001 7.5,18.0001 M18.9624,9.3091 C18.9364,9.2481 18.8994,9.1921 18.8534,9.1461 L14.8544,5.1461 C14.6584,4.9511 14.3424,4.9511 14.1464,5.1461 C13.9514,5.3421 13.9514,5.6581 14.1464,5.8541 L17.2934,9.0001 L10.5004,9.0001 C10.2244,9.0001 10.0004,9.2241 10.0004,9.5001 C10.0004,9.7761 10.2244,10.0001 10.5004,10.0001 L17.2934,10.0001 L14.1464,13.1461 C13.9514,13.3421 13.9514,13.6581 14.1464,13.8541 C14.2444,13.9511 14.3724,14.0001 14.5004,14.0001 C14.6284,14.0001 14.7564,13.9511 14.8544,13.8541 L18.8534,9.8541 C18.8994,9.8081 18.9364,9.7521 18.9624,9.6911 C19.0124,9.5691 19.0124,9.4311 18.9624,9.3091" id="fill" fill="#171B1F"></path>
    </g>
</svg>