<svg width="16" height="16" viewBox="0 0 16 16" xmlns="http://www.w3.org/2000/svg"><title>meetings/move-call-in-laptop_16</title><path d="M15.4998 11c.276 0 .5.224.5.5l0 .5c0 1.105-.895 2-2 2l-12 0c-1.104 0-2-.895-2-2l0-.5c0-.276.224-.5.5-.5l.5 0 0-7c0-1.105.896-2 2-2l10 0c1.105 0 2 .895 2 2l0 .5c0 .275-.225.5-.5.5-.275 0-.5-.225-.5-.5l0-.5c0-.551-.449-1-1-1l-10 0c-.551 0-1 .449-1 1l0 7 12 0 0-1.5c0-.275.225-.5.5-.5.275 0 .5.225.5.5l0 1.5.5 0zm-1.5 2c.551 0 1-.449 1-1l-14 0c0 .551.449 1 1 1l12 0zm-1.6465-8.1465l-1.646 1.646 4.792 0c.277 0 .5.224.5.5 0 .277-.223.5-.5.5l-4.792 0 1.646 1.647c.195.195.195.512 0 .707-.098.098-.226.146-.354.146-.127 0-.255-.048-.353-.146l-2.5-2.5c-.195-.195-.195-.512 0-.707l2.5-2.5c.195-.195.512-.195.707 0 .195.195.195.512 0 .707z" fill="#000" fill-rule="evenodd"/></svg>