<?xml version="1.0" encoding="UTF-8"?>
<svg width="24px" height="24px" viewBox="0 0 24 24" version="1.1" xmlns="http://www.w3.org/2000/svg" xmlns:xlink="http://www.w3.org/1999/xlink">
    <!-- Generator: Sketch 60.1 (88133) - https://sketch.com -->
    <title>meetings/move-call-out-laptop_24</title>
    <desc>Created with Sketch.</desc>
    <g id="meetings/move-call-out-laptop_24" stroke="none" stroke-width="1" fill="none" fill-rule="evenodd">
        <path d="M23.5002,15.991 L22.0002,15.991 L22.0002,15.491 C22.0002,15.216 21.7742,14.991 21.5002,14.991 C21.2252,14.991 21.0002,15.216 21.0002,15.491 L21.0002,16.179 L21.0002,15.991 L3.0002,15.991 L3.0002,5.491 C3.0002,4.664 3.6732,3.991 4.5002,3.991 L19.5002,3.991 C20.3262,3.991 21.0002,4.664 21.0002,5.491 C21.0002,5.766 21.2252,5.991 21.5002,5.991 C21.7742,5.991 22.0002,5.766 22.0002,5.491 C22.0002,4.116 20.8842,2.999 19.5122,2.992 C19.5092,2.992 19.5042,2.991 19.5022,2.991 L19.5002,2.991 L4.4992,2.991 L4.4982,2.991 C3.1212,2.992 2.0002,4.113 2.0002,5.491 L2.0002,15.991 L0.5002,15.991 C0.2242,15.991 0.0002,16.215 0.0002,16.491 L0.0002,17.491 C0.0002,19.421 1.5692,20.991 3.5002,20.991 L20.5002,20.991 C22.4302,20.991 24.0002,19.421 24.0002,17.491 L24.0002,16.491 C24.0002,16.215 23.7752,15.991 23.5002,15.991 L23.5002,15.991 Z M23.0002,17.491 C23.0002,18.87 21.8782,19.991 20.5002,19.991 L3.5002,19.991 C2.1222,19.991 1.0002,18.87 1.0002,17.491 L1.0002,16.991 L23.0002,16.991 L23.0002,17.491 Z M19.5002,5.991 C19.3722,5.991 19.2442,6.04 19.1462,6.138 C18.9512,6.333 18.9512,6.649 19.1462,6.845 L22.2932,9.996 L14.5002,9.996 C14.2242,9.996 14.0002,10.22 14.0002,10.496 C14.0002,10.772 14.2242,10.996 14.5002,10.996 L22.2932,10.996 L19.1462,14.146 C18.9512,14.342 18.9512,14.658 19.1462,14.853 C19.3422,15.049 19.6582,15.049 19.8542,14.853 L23.8532,10.85 C23.8992,10.804 23.9372,10.748 23.9612,10.687 C24.0132,10.565 24.0132,10.427 23.9612,10.305 C23.9372,10.243 23.8992,10.188 23.8532,10.142 L19.8542,6.138 C19.7562,6.04 19.6272,5.991 19.5002,5.991" id="fill" fill="#171B1F"></path>
    </g>
</svg>