<svg width="18" height="18" viewBox="0 0 18 18" xmlns="http://www.w3.org/2000/svg"><title>meetings/move-call-in-laptop_18</title><path d="M17.5002972 12c.2760016 0 .5000028.224.5000028.5l0 1c0 1.378-1.1220062 2.5-2.5000139 2.5L2.50021389 16C1.12120623 16 .0002 14.878.0002 13.5l0-1c0-.276.224001244-.5.500002778-.5l.500002782 0 0-8c0-1.054.82000455-1.91 1.8550103-1.985.05500031-.009.10500058-.015.14500081-.015L14.5002806 2l.5000027 0c.0400003 0 .0900005.006.1450008.015 1.0340058.075 1.8550103.931 1.8550103 1.985l0 .5 0 .5 0 .5c0 .276-.2240012.5-.5000027.5-.2760016 0-.5000028-.224-.5000028-.5l0-.5 0-.5 0-.5c0-.551-.4490025-1-1.0000056-1l-.5000027 0L3.00021667 3c-.55200307 0-1.00000556.449-1.00000556 1l0 8 14.00007779 0 0-2.5c0-.276.2240012-.5.5000028-.5.2760015 0 .5000027.224.5000027.5l0 2.5.5000028 0zM17.0002 13.5l0-.5-16 0 0 .5c0 .827.673 1.5 1.5 1.5l13 0c.827 0 1.5-.673 1.5-1.5zm-3.1469-8.6465l-2.147 2.146 5.794 0c.276 0 .5.224.5.5 0 .276-.224.5-.5.5l-5.794 0 2.147 2.146c.195.196.195.512 0 .708-.196.195-.512.195-.708 0l-2.999-3c-.046-.046-.083-.102-.109-.163-.05-.122-.05-.26 0-.382.026-.06.063-.117.109-.163l2.999-3c.098-.097.226-.146.354-.146.128 0 .256.049.354.146.195.196.195.512 0 .708z" fill="#000" fill-rule="evenodd"/></svg>