<svg width="20" height="20" viewBox="0 0 20 20" xmlns="http://www.w3.org/2000/svg"><title>meetings/move-call-in-iph_20</title><path d="M14.5 14.9998c.275 0 .5.225.5.5l0 1 0 1c0 1.381-1.119 2.5-2.5 2.5l-9 0c-1.381 0-2.5-1.119-2.5-2.5l0-15c0-1.381 1.119-2.5 2.5-2.5l9 0c1.381 0 2.5 1.119 2.5 2.5l0 1c0 .276-.224.5-.5.5-.276 0-.5-.224-.5-.5l0-1c0-.827-.673-1.5-1.5-1.5l-9 0c-.827 0-1.5.673-1.5 1.5l0 12.5 12.5 0zm-.5 1.5l0-.5-12 0 0 1.5c0 .827.673 1.5 1.5 1.5l9 0c.827 0 1.5-.673 1.5-1.5l0-1zm4.5-7.5c.276 0 .5.224.5.5 0 .276-.224.5-.5.5l-6.793 0 3.147 3.146c.195.196.195.512 0 .708-.196.195-.512.195-.708 0l-3.999-4c-.046-.046-.083-.102-.109-.163-.05-.122-.05-.26 0-.382.026-.061.063-.117.109-.163l3.999-4c.098-.097.226-.146.354-.146.128 0 .256.049.354.146.195.196.195.512 0 .708l-3.147 3.146 6.793 0zm-11 9c-.275 0-.5-.225-.5-.5 0-.275.225-.5.5-.5l1 0c.275 0 .5.225.5.5 0 .275-.225.5-.5.5l-1 0z" fill="#000" fill-rule="evenodd"/></svg>