<svg width="18" height="18" viewBox="0 0 18 18" xmlns="http://www.w3.org/2000/svg"><title>meetings/move-call-out-iph_18</title><path d="M13 15.9268c0 .592-.481 1.073-1.073 1.073l-7.854 0c-.592 0-1.073-.481-1.073-1.073l0-1.927 10 0 0 1.927zm.5-2.927c.276 0 .5.224.5.5l0 2.427c0 1.143-.93 2.073-2.073 2.073l-7.854 0c-1.143 0-2.073-.93-2.073-2.073l0-13.854c0-1.143.93-2.073 2.073-2.073l7.854 0c1.143 0 2.073.93 2.073 2.073l0 1.427c0 .277-.224.5-.5.5-.276 0-.5-.223-.5-.5l0-1.427c0-.591-.481-1.073-1.073-1.073l-7.854 0C3.481.9998 3 1.4818 3 2.0728l0 10.927 10.5 0zm2.4624-4.6907c.05.122.05.26 0 .382-.025.061-.062.117-.109.163l-2.999 2.999c-.196.196-.512.196-.707 0-.196-.195-.196-.511 0-.707l2.146-2.146-4.793 0c-.276 0-.5-.224-.5-.5 0-.276.224-.5.5-.5l4.793 0-2.146-2.147c-.196-.195-.196-.511 0-.707.097-.097.225-.146.353-.146.128 0 .256.049.354.146l2.999 3c.047.046.084.101.109.163zM7.5 16.0001l1 0c.275 0 .5-.225.5-.5 0-.275-.225-.5-.5-.5l-1 0c-.275 0-.5.225-.5.5 0 .275.225.5.5.5z" fill="#000" fill-rule="evenodd"/></svg>