<svg width="18" height="18" viewBox="0 0 18 18" xmlns="http://www.w3.org/2000/svg"><title>meetings/move-call-in-adr_18</title><path d="M16.5 8.5c.276 0 .5.224.5.5 0 .276-.224.5-.5.5l-5.793 0 2.146 2.147c.196.195.196.511 0 .707-.097.097-.225.146-.353.146-.128 0-.256-.049-.354-.146l-2.999-3c-.047-.046-.084-.101-.109-.163-.05-.122-.05-.26 0-.382.025-.061.062-.117.109-.163l2.999-2.999c.196-.196.512-.196.707 0 .196.195.196.511 0 .707L10.707 8.5l5.793 0zm-4 5.5c.275 0 .5.225.5.5l0 .542 0 .458 0 .427C13 17.07 12.07 18 10.927 18l-7.854 0C1.93 18 1 17.07 1 15.927L1 2.073C1 .93 1.93 0 3.073 0l7.854 0C12.07 0 13 .93 13 2.073L13 3.5c0 .276-.224.5-.5.5-.276 0-.5-.224-.5-.5l0-1.427C12 1.481 11.519 1 10.927 1L3.073 1C2.481 1 2 1.481 2 2.073L2 13l0 1 0 1.927C2 16.519 2.481 17 3.073 17l7.854 0c.592 0 1.073-.481 1.073-1.073l0-.427 0-.458 0-.542c0-.275.225-.5.5-.5zM5 3l2 0c.275 0 .5.225.5.5 0 .275-.225.5-.5.5L5 4c-.275 0-.5-.225-.5-.5 0-.275.225-.5.5-.5zm3.5.5c0-.275.225-.5.5-.5.275 0 .5.225.5.5 0 .275-.225.5-.5.5-.275 0-.5-.225-.5-.5z" fill="#000" fill-rule="evenodd"/></svg>