<svg width="28" height="28" viewBox="0 0 28 28" xmlns="http://www.w3.org/2000/svg"><title>meetings/move-call-in-out-adr_28</title><path d="M15 5.5c0 .275-.225.5-.5.5-.275 0-.5-.225-.5-.5 0-.275.225-.5.5-.5.275 0 .5.225.5.5zM7.5 5l4 0c.275 0 .5.225.5.5 0 .275-.225.5-.5.5l-4 0c-.275 0-.5-.225-.5-.5 0-.275.225-.5.5-.5zm12 18c.275 0 .5.225.5.5l0 .5c0 1.654-1.346 3-3 3L5 27c-1.654 0-3-1.346-3-3L2 4c0-1.654 1.346-3 3-3l12 0c1.654 0 3 1.346 3 3l0 .5c0 .275-.225.5-.5.5-.275 0-.5-.225-.5-.5l0-.5c0-1.104-.897-2-2-2L5 2c-1.103 0-2 .896-2 2l0 20c0 1.104.897 2 2 2l12 0c1.103 0 2-.896 2-2l0-.5c0-.275.225-.5.5-.5zM17.8486 6.8545l-3.143 3.146 10.794 0c.276 0 .5.223.5.5 0 .275-.224.5-.5.5l-10.794 0 3.147 3.151c.196.196.196.513 0 .707-.097.099-.225.147-.353.147-.128 0-.255-.048-.354-.147l-3.999-4.005c-.047-.045-.084-.102-.109-.162-.051-.123-.051-.261 0-.383.025-.06.062-.117.109-.162l3.995-3.999c.195-.196.512-.196.707 0 .195.194.195.511 0 .707zm8.0039 11.292c.047.045.084.102.109.162.051.123.051.261 0 .383-.025.06-.062.117-.109.162l-3.995 3.999c-.195.196-.512.196-.707 0-.195-.194-.195-.511 0-.707l3.143-3.145-10.794 0c-.276 0-.5-.224-.5-.5 0-.276.224-.5.5-.5l10.794 0-3.148-3.152c-.194-.196-.194-.513 0-.707.099-.099.227-.147.354-.147.128 0 .256.048.353.147l4 4.005z" fill-rule="evenodd"/></svg>