<?xml version="1.0" encoding="UTF-8"?>
<svg width="20px" height="20px" viewBox="0 0 20 20" version="1.1" xmlns="http://www.w3.org/2000/svg" xmlns:xlink="http://www.w3.org/1999/xlink">
    <!-- Generator: Sketch 55.2 (78181) - https://sketchapp.com -->
    <title>hardware/multiple-devices_20</title>
    <desc>Created with Sketch.</desc>
    <g id="Icons-Webex" stroke="none" stroke-width="1" fill="none" fill-rule="evenodd">
        <g id="hardware/multiple-devices_20" fill="#000000">
            <g id="multiple-devices_20" transform="translate(0.000000, 2.000000)">
                <path d="M19,8.5 L19,2.5 C19,1.673 18.327,1 17.5,1 L8.5,1 C7.673,1 7,1.673 7,2.5 L7,5 L11.5,5 C12.879,5 14,6.121 14,7.5 L14,10 L17.5,10 C18.327,10 19,9.327 19,8.5 Z M13,13.5 L13,7.5 C13,6.673 12.327,6 11.5,6 L2.5,6 C1.673,6 1,6.673 1,7.5 L1,13.5 C1,14.327 1.673,15 2.5,15 L11.5,15 C12.327,15 13,14.327 13,13.5 Z M17.5,0 C18.879,0 20,1.121 20,2.5 L20,8.5 C20,9.879 18.879,11 17.5,11 L14,11 L14,13.5 C14,14.879 12.879,16 11.5,16 L2.5,16 C1.121,16 0,14.879 0,13.5 L0,7.5 C0,6.121 1.121,5 2.5,5 L6,5 L6,2.5 C6,1.121 7.121,0 8.5,0 L17.5,0 Z M13,2 C13.276,2 13.5,2.224 13.5,2.5 C13.5,2.776 13.276,3 13,3 C12.724,3 12.5,2.776 12.5,2.5 C12.5,2.224 12.724,2 13,2 Z M7,7 C7.276,7 7.5,7.224 7.5,7.5 C7.5,7.776 7.276,8 7,8 C6.724,8 6.5,7.776 6.5,7.5 C6.5,7.224 6.724,7 7,7 Z" id="fill"></path>
            </g>
        </g>
    </g>
</svg>