<svg width="16" height="16" viewBox="0 0 16 16" fill="none" xmlns="http://www.w3.org/2000/svg">
<path fill-rule="evenodd" clip-rule="evenodd" d="M14.5 14H3C2.448 14 2 13.552 2 13V1.5C2 1.224 1.776 1 1.5 1C1.224 1 1 1.224 1 1.5V13C1 14.103 1.897 15 3 15H14.5C14.776 15 15 14.776 15 14.5C15 14.224 14.776 14 14.5 14ZM13.8763 3.17075C14.0581 3.37857 14.0371 3.69445 13.8293 3.87629L9.82925 7.37629C9.65924 7.52504 9.41061 7.54133 9.22265 7.41603L6.5 5.60093L3.77735 7.41603C3.54759 7.5692 3.23715 7.50711 3.08397 7.27735C2.9308 7.04759 2.99289 6.73715 3.22265 6.58397L6.22265 4.58397C6.3906 4.47201 6.6094 4.47201 6.77735 4.58397L9.45884 6.37163L13.1707 3.12371C13.3786 2.94187 13.6944 2.96293 13.8763 3.17075ZM14.3763 6.82925C14.5581 6.62143 14.5371 6.30555 14.3293 6.12371C14.1214 5.94187 13.8056 5.96293 13.6237 6.17075L10.3781 9.88003L6.72361 8.05279C6.53111 7.95654 6.29863 7.99427 6.14645 8.14645L3.14645 11.1464C2.95118 11.3417 2.95118 11.6583 3.14645 11.8536C3.34171 12.0488 3.65829 12.0488 3.85355 11.8536L6.59873 9.10838L10.2764 10.9472C10.4799 11.049 10.7265 11.0005 10.8763 10.8293L14.3763 6.82925Z" fill="#121212"/>
</svg>
