<svg width="20" height="20" xmlns="http://www.w3.org/2000/svg"><path d="M19 10.5v-6c0-.827-.673-1.5-1.5-1.5h-9C7.673 3 7 3.673 7 4.5V7h4.5C12.879 7 14 8.121 14 9.5V12h3.5c.827 0 1.5-.673 1.5-1.5zm-6 5v-6c0-.827-.673-1.5-1.5-1.5h-9C1.673 8 1 8.673 1 9.5v6c0 .827.673 1.5 1.5 1.5h9c.827 0 1.5-.673 1.5-1.5zM17.5 2C18.879 2 20 3.121 20 4.5v6c0 1.379-1.121 2.5-2.5 2.5H14v2.5c0 1.379-1.121 2.5-2.5 2.5h-9A2.502 2.502 0 010 15.5v-6C0 8.121 1.121 7 2.5 7H6V4.5C6 3.121 7.121 2 8.5 2h9zM13 4a.5.5 0 110 1 .5.5 0 010-1zM7 9a.5.5 0 110 1 .5.5 0 010-1z" fill="#000" fill-rule="evenodd"/></svg>