<svg width="20" height="20" viewBox="0 0 20 20" fill="none" xmlns="http://www.w3.org/2000/svg">
<path d="M1.5 1C1.77614 1 2 1.22386 2 1.5V18H18.5C18.7761 18 19 18.2239 19 18.5C19 18.7761 18.7761 19 18.5 19H1.5C1.22386 19 1 18.7761 1 18.5V1.5C1 1.22386 1.22386 1 1.5 1Z" fill="#121212"/>
<path d="M17.3278 3.97135C17.5092 4.17955 17.4875 4.49539 17.2793 4.67679L12.2293 9.07679C12.0606 9.2238 11.8147 9.24079 11.6274 9.11839L8.15272 6.84829L4.57694 9.21667C4.34671 9.36915 4.03647 9.30614 3.88398 9.07591C3.73149 8.84569 3.79451 8.53544 4.02474 8.38296L7.87474 5.83296C8.04116 5.72273 8.2572 5.72205 8.42431 5.83123L11.8576 8.07431L16.6224 3.92283C16.8306 3.74143 17.1464 3.76315 17.3278 3.97135Z" fill="#121212"/>
<path d="M17.9294 8.37643C18.1098 8.16735 18.0865 7.85162 17.8774 7.67123C17.6683 7.49085 17.3526 7.51411 17.1722 7.7232L13.0264 12.5286L8.3744 10.2026C8.18298 10.1069 7.95187 10.1436 7.79956 10.294L3.94955 14.094C3.75301 14.2879 3.75094 14.6045 3.94492 14.801C4.13891 14.9976 4.45548 14.9996 4.65202 14.8057L8.2473 11.2571L12.9272 13.597C13.1319 13.6994 13.3799 13.6497 13.5294 13.4764L17.9294 8.37643Z" fill="#121212"/>
</svg>
