<svg width="20" height="20" viewBox="0 0 20 20" xmlns="http://www.w3.org/2000/svg"><title>sources-and-media/multimedia_20</title><path d="M19 9.5c0 .276-.224.5-.5.5L10 10l0 8.5c0 .276-.224.5-.5.5C4.262 19 0 14.738 0 9.5 0 4.262 4.262 0 9.5 0 14.738 0 19 4.262 19 9.5zM10 9l7.985 0C17.735 4.711 14.29 1.265 10 1.015L10 9zm-1 8.985l0-16.97C4.545 1.274 1 4.981 1 9.5c0 4.519 3.545 8.226 8 8.485zM19.5 11c.275 0 .5.225.5.5l0 .5 0 1 0 2 0 1 0 2 0 1 0 .5c0 .275-.225.5-.5.5-.275 0-.5-.225-.5-.5l0-.5-1 0-1 0-3 0-1 0-1 0 0 .5c0 .275-.225.5-.5.5-.275 0-.5-.225-.5-.5l0-.5 0-1 0-2 0-1 0-2 0-1 0-.5c0-.275.225-.5.5-.5.275 0 .5.225.5.5l0 .5 1 0 1 0 3 0 1 0 1 0 0-.5c0-.275.225-.5.5-.5zM18 15l1 0 0-2-1 0 0 2zm0 3l1 0 0-2-1 0 0 2zm-4 0l3 0 0-2 0-1 0-2-3 0 0 2 0 1 0 2zm-2 0l1 0 0-2-1 0 0 2zm0-3l1 0 0-2-1 0 0 2z" fill="#000" fill-rule="evenodd"/></svg>