<?xml version="1.0" encoding="utf-8"?>
<!-- Generator: Adobe Illustrator 23.0.2, SVG Export Plug-In . SVG Version: 6.00 Build 0)  -->
<svg version="1.1" id="Layer_1" xmlns="http://www.w3.org/2000/svg" xmlns:xlink="http://www.w3.org/1999/xlink" x="0px" y="0px"
	 viewBox="0 0 12 12" style="enable-background:new 0 0 12 12;" xml:space="preserve">
<style type="text/css">
	.st0{fill-rule:evenodd;clip-rule:evenodd;fill:#121212;}
</style>
<path class="st0" d="M9.1,0.1L4,0.9C3.4,1,3,1.5,3,2.1v6.2C2.7,8.1,2.4,8,2,8c-1.1,0-2,0.9-2,2c0,1.1,0.9,2,2,2s2-0.9,2-2V4.4
	l5.5-0.8v3.2c-0.3-0.2-0.6-0.3-1-0.3c-1.1,0-2,0.9-2,2s0.9,2,2,2s2-0.9,2-2V1.3C10.5,0.6,9.8,0,9.1,0.1z M2,11c-0.6,0-1-0.4-1-1
	c0-0.6,0.4-1,1-1s1,0.4,1,1C3,10.6,2.6,11,2,11z M8.5,9.5c-0.6,0-1-0.4-1-1s0.4-1,1-1s1,0.4,1,1S9.1,9.5,8.5,9.5z M9.5,2.6L4,3.4
	V2.1C4,2,4.1,1.9,4.2,1.9l5.1-0.8c0.1,0,0.2,0.1,0.2,0.2V2.6z"/>
</svg>
