<svg width="12" height="12" viewBox="0 0 12 12" fill="none" xmlns="http://www.w3.org/2000/svg">
<path fill-rule="evenodd" clip-rule="evenodd" d="M9.5 3.58286V6.76762C9.20583 6.59745 8.86429 6.50005 8.5 6.50005C7.39543 6.50005 6.5 7.39548 6.5 8.50005C6.5 9.60462 7.39543 10.5001 8.5 10.5001C9.60457 10.5001 10.5 9.60462 10.5 8.50005V1.31598C10.5 0.580518 9.84444 0.0181021 9.11753 0.129934L4.01753 0.91455C3.43213 1.00461 3 1.50831 3 2.1006V8.26762C2.70583 8.09745 2.36429 8.00005 2 8.00005C0.895431 8.00005 0 8.89548 0 10.0001C0 11.1046 0.895431 12.0001 2 12.0001C3.10457 12.0001 4 11.1046 4 10.0001V4.42901L9.5 3.58286ZM9.5 1.31598C9.5 1.1934 9.39074 1.09967 9.26959 1.11831L4.16959 1.90292C4.07202 1.91793 4 2.00188 4 2.1006V3.41725L9.5 2.57109V1.31598ZM8.5 7.50005C9.05228 7.50005 9.5 7.94777 9.5 8.50005C9.5 9.05234 9.05228 9.50005 8.5 9.50005C7.94772 9.50005 7.5 9.05234 7.5 8.50005C7.5 7.94777 7.94772 7.50005 8.5 7.50005ZM3 10.0001C3 9.44777 2.55228 9.00005 2 9.00005C1.44772 9.00005 1 9.44777 1 10.0001C1 10.5523 1.44772 11.0001 2 11.0001C2.55228 11.0001 3 10.5523 3 10.0001Z" fill="#121212"/>
</svg>
