<?xml version="1.0" encoding="UTF-8"?>
<svg width="20px" height="20px" viewBox="0 0 20 20" version="1.1" xmlns="http://www.w3.org/2000/svg" xmlns:xlink="http://www.w3.org/1999/xlink">
    <!-- Generator: Sketch 57.1 (83088) - https://sketch.com -->
    <title>new-voicemail_20</title>
    <desc>Created with Sketch.</desc>
    <g id="New-Icon" stroke="none" stroke-width="1" fill="none" fill-rule="evenodd">
        <g id="new-voicemail_20" fill="#171B1F">
            <g transform="translate(0.000000, 1.500000)" id="fill">
                <path d="M2.536,0.5 L13.5,0.5 C13.776,0.5 14,0.724 14,1 C14,1.24533333 13.8230123,1.44958025 13.5898381,1.49193964 L13.5,1.5 L2.536,1.5 C1.73882353,1.5 1.08160554,2.05983391 1.00704417,2.77348667 L1,2.909 L1,14.091 C1,14.8222941 1.61032526,15.4251453 2.38827763,15.4935386 L2.536,15.5 L17.464,15.5 C18.2611765,15.5 18.9183945,14.9401661 18.9929558,14.2265133 L19,14.091 L19,7 C19,6.724 19.224,6.5 19.5,6.5 C19.7453333,6.5 19.9495802,6.67698765 19.9919396,6.91016187 L20,7 L20,14.091 C20,15.36588 18.9512192,16.4131248 17.6304558,16.4948646 L17.464,16.5 L2.536,16.5 C1.19392,16.5 0.091456,15.5037504 0.005406208,14.249121 L0,14.091 L0,2.909 C0,1.63412 1.0487808,0.5868752 2.36954419,0.505135424 L2.536,0.5 L13.5,0.5 Z M14,5.5 C15.654,5.5 17,6.846 17,8.5 C17,10.154 15.654,11.5 14,11.5 L14,11.5 L6,11.5 C4.346,11.5 3,10.154 3,8.5 C3,6.846 4.346,5.5 6,5.5 C7.654,5.5 9,6.846 9,8.5 C9,9.271 8.699,9.968 8.22,10.5 L8.22,10.5 L11.78,10.5 C11.301,9.968 11,9.271 11,8.5 C11,6.846 12.346,5.5 14,5.5 Z M14,6.5 C12.897,6.5 12,7.397 12,8.5 C12,9.603 12.897,10.5 14,10.5 C15.103,10.5 16,9.603 16,8.5 C16,7.397 15.103,6.5 14,6.5 Z M6,6.5 C4.897,6.5 4,7.397 4,8.5 C4,9.603 4.897,10.5 6,10.5 C7.103,10.5 8,9.603 8,8.5 C8,7.397 7.103,6.5 6,6.5 Z M17,3.55271368e-15 C17.2453333,3.55271368e-15 17.4495802,0.176987654 17.4919396,0.410161866 L17.5,0.5 L17.5,2.5 L19.5,2.5 C19.776,2.5 20,2.724 20,3 C20,3.24533333 19.8230123,3.44958025 19.5898381,3.49193964 L19.5,3.5 L17.5,3.5 L17.5,5.567 C17.5,5.843 17.276,6.067 17,6.067 C16.7546667,6.067 16.5504198,5.89001235 16.5080604,5.65683813 L16.5,5.567 L16.5,3.5 L14.5,3.5 C14.224,3.5 14,3.276 14,3 C14,2.75466667 14.1769877,2.55041975 14.4101619,2.50806036 L14.5,2.5 L16.5,2.5 L16.5,0.5 C16.5,0.224 16.724,3.55271368e-15 17,3.55271368e-15 Z"></path>
            </g>
        </g>
    </g>
</svg>