<svg width="16" height="16" viewBox="0 0 16 16" xmlns="http://www.w3.org/2000/svg"><title>navigation/next_16</title><path d="M.4998629 8l13.79293117 0-5.15448982-5.146c-.19482953-.195-.19482953-.512 0-.707.19582865-.196.51155239-.195.70738104-.001l6.007743223 6c.0939178215.094.146871487.221.146871487.354 0 .133-.0529536655.26-.146871487.354l-6.007743223 6c-.09791433.097-.22580243.146-.35369052.146-.1278881 0-.2557762-.049-.35369052-.147-.19482953-.195-.19482953-.512 0-.707L14.29279407 9 .4998629 9C.2241042 9 .0003 8.776.0003 8.5c0-.276.2238042-.5.4995629-.5" fill="#000" fill-rule="evenodd"/></svg>