<svg width="14" height="14" viewBox="0 0 14 14" fill="none" xmlns="http://www.w3.org/2000/svg">
<path fill-rule="evenodd" clip-rule="evenodd" d="M7.61368 2.14674C7.41751 2.34174 7.41751 2.65874 7.61368 2.85374L11.2817 6.50074H1.50302C1.22435 6.50074 1 6.72374 1 7.00074C1 7.27674 1.22435 7.50074 1.50302 7.50074H11.2817L7.61368 11.1467C7.41751 11.3417 7.41751 11.6587 7.61368 11.8537C7.80986 12.0487 8.12877 12.0487 8.32495 11.8537L12.8521 7.35374C12.9507 7.25574 13 7.12774 13 7.00074C13 6.87274 12.9507 6.74474 12.8521 6.64674L8.32495 2.14674C8.12877 1.95174 7.80986 1.95174 7.61368 2.14674Z" fill="#121212"/>
</svg>
