<svg width="28" height="28" viewBox="0 0 28 28" fill="none" xmlns="http://www.w3.org/2000/svg">
<path d="M26.4 1.1C26.2 0.9 25.9 0.9 25.7 1.1L22.6 4.2C22.3 4.1 22 4 21.6 4H5.59999C3.89999 4 2.59999 5.3 2.59999 7V21C2.59999 21.9 2.99999 22.7 3.59999 23.3L0.699988 26.2C0.499988 26.4 0.499988 26.7 0.699988 26.9C0.799988 27 0.999988 27 1.09999 27C1.19999 27 1.39999 27 1.49999 26.9L4.59999 23.8C4.79999 23.9 5.19999 24 5.59999 24H21.6C23.3 24 24.6 22.7 24.6 21V7C24.6 6.1 24.2 5.3 23.6 4.7L26.5 1.8C26.6 1.7 26.6 1.3 26.4 1.1ZM3.59999 7C3.59999 5.9 4.49999 5 5.59999 5H21.6C21.7 5 21.8 5 21.9 5L9.89999 17H3.59999V7ZM3.59999 21V18H8.89999L4.39999 22.5C3.89999 22.2 3.59999 21.6 3.59999 21ZM23.6 21C23.6 22.1 22.7 23 21.6 23H5.59999C5.49999 23 5.39999 23 5.29999 23L10.3 18H23.6V21ZM23.6 7V17H11.3L22.8 5.5C23.3 5.8 23.6 6.4 23.6 7Z" fill="#121212"/>
<path d="M13.6 7H14.6C14.9 7 15.1 6.8 15.1 6.5C15.1 6.2 14.9 6 14.6 6H13.6C13.3 6 13.1 6.2 13.1 6.5C13.1 6.8 13.3 7 13.6 7Z" fill="#121212"/>
</svg>
