<svg width="24" height="24" viewBox="0 0 24 24" xmlns="http://www.w3.org/2000/svg"><title>phone/no-phone-warning_24</title><path d="M10.122 8.8278c-.195-.195-.195-.512 0-.707 1.169-1.17 1.169-3.073 0-4.243-.195-.195-.195-.511 0-.706.195-.196.512-.196.707 0 1.559 1.558 1.559 4.096 0 5.656-.098.098-.226.146-.353.146-.128 0-.256-.048-.354-.146zm2.146 2.0273c-.192-.191-.192-.502 0-.693 2.295-2.295 2.295-6.03 0-8.325-.192-.191-.192-.502 0-.694.191-.191.502-.191.693 0 1.298 1.298 2.012 3.023 2.012 4.857 0 1.834-.714 3.558-2.012 4.855-.095.096-.221.144-.346.144-.126 0-.251-.048-.347-.144zm11.5149 9.9775c.273.434.29.982.041 1.432-.253.461-.724.735-1.259.735l-9.13 0c-.534 0-1.005-.274-1.259-.735-.248-.45-.232-.998.042-1.432l.539-.853c-2.065-1.184-4.147-2.759-6.063-4.675-3.345-3.344-5.758-7.199-6.624-10.575-.17-.663-.028-1.35.39-1.889.414-.533 1.041-.841 1.718-.841l2.193 0c1.094 0 2.081.649 2.512 1.655l.828 1.927c.386.894.356 1.903-.079 2.773l-.557 1.117c-.11.216-.082.473.07.67 1.17 1.503 2.946 3.265 4.751 4.712.181.146.436.168.653.061l1.096-.548c.852-.428 1.839-.458 2.719-.096l.375-.593c.268-.425.739-.68 1.26-.68l.003 0c.521 0 .992.255 1.259.68l4.522 7.155zm-5.284-2.332l0-2.006c0-.275-.224-.5-.5-.5-.276 0-.5.225-.5.5l0 2.006c0 .276.224.5.5.5.276 0 .5-.224.5-.5zm-.5 2.5c.276 0 .5-.225.5-.5 0-.276-.224-.5-.5-.5-.276 0-.5.224-.5.5 0 .275.224.5.5.5zm-4.712-1.859l2.527-4.001c-.567-.181-1.182-.151-1.721.121l-1.097.548c-.561.282-1.242.212-1.726-.176-1.89-1.515-3.682-3.292-4.915-4.879-.385-.495-.454-1.175-.176-1.731l.559-1.117c.303-.604.323-1.307.055-1.93l-.828-1.927c-.274-.638-.9-1.05-1.594-1.05l-2.193 0c-.366 0-.704.165-.928.454-.227.293-.304.668-.212 1.028.823 3.207 3.142 6.895 6.363 10.116 1.868 1.867 3.89 3.403 5.886 4.544z" fill-rule="evenodd"/></svg>