<svg width="16" height="16" viewBox="0 0 16 16" xmlns="http://www.w3.org/2000/svg"><title>content/note-ppt_16</title><path d="M14.0936-.0001c1.051 0 1.906.856 1.906 1.906l0 8.907c0 .257-.1.502-.283.684l-4.219 4.219c-.181.181-.43.284-.685.284l-8.905 0c-1.051 0-1.906-.853-1.907-1.903 0-.001-.001-.002-.001-.003l0-12.188c0-.002.001-.002.001-.004.001-1.047.856-1.902 1.907-1.902l12.186 0zm-2.16 10.004l3.075 0-.009-8.098c0-.5-.406-.906-.906-.906l-12.186 0c-.5 0-.908.406-.908.906l0 12.188c0 .5.408.906.908.906l8.096 0 0-3.135c0-.781.486-1.449 1.17-1.724l0-3.451-1.262 0 0-.703 3.301 0 0 .703-1.279 0 0 3.314zm-.93 4.792l3.792-3.792-2.928 0c-.476 0-.864.387-.864.861l0 2.931zM4.135 5.9871c1.016 0 1.6.491 1.6 1.347 0 .851-.576 1.32-1.622 1.32l-.566 0 0 1.359-.759 0 0-4.026 1.347 0zm-.011 2.008c.732 0 .83-.334.83-.661 0-.568-.44-.689-.809-.689l-.598 0 0 1.35.577 0zm3.7708-2.008c1.016 0 1.6.491 1.6 1.347 0 .851-.576 1.32-1.622 1.32l-.566 0 0 1.359-.759 0 0-4.026 1.347 0zm-.011 2.008c.732 0 .831-.334.831-.661 0-.568-.441-.689-.81-.689l-.598 0 0 1.35.577 0z" fill="#000" fill-rule="evenodd"/></svg>