<svg width="26" height="26" viewBox="0 0 26 26" xmlns="http://www.w3.org/2000/svg"><title>activities/notes_26</title><path d="M20.333 1.0001c1.471 0 2.667 1.196 2.667 2.667l0 18.666c0 1.471-1.196 2.667-2.667 2.667l-14.667 0c-1.47 0-2.666-1.196-2.666-2.667l0-18.666c0-1.471 1.196-2.667 2.666-2.667l14.667 0zM22 22.3331l0-18.666c0-.919-.748-1.667-1.667-1.667l-14.667 0c-.919 0-1.666.748-1.666 1.667l0 18.666c0 .919.747 1.667 1.666 1.667l14.667 0c.919 0 1.667-.748 1.667-1.667zm-9.5-4.3321c.276 0 .5.224.5.5 0 .276-.224.5-.5.5l-4 0c-.277 0-.5-.224-.5-.5 0-.276.223-.5.5-.5l4 0zm5-11.0009c.275 0 .5.224.5.5 0 .276-.225.5-.5.5l-9 0c-.276 0-.5-.224-.5-.5 0-.276.224-.5.5-.5l9 0zm-.001 5.5c.275 0 .5.224.5.5 0 .276-.225.5-.5.5l-8.999 0c-.276 0-.5-.224-.5-.5 0-.276.224-.5.5-.5l8.999 0z" fill="#000" fill-rule="evenodd"/></svg>