<svg width="8" height="8" viewBox="0 0 8 8" xmlns="http://www.w3.org/2000/svg"><title>activities/notes_8</title><path d="M5.833 0C6.477 0 7 .523 7 1.167l0 5.666C7 7.477 6.477 8 5.833 8L2.167 8C1.523 8 1 7.477 1 6.833l0-5.666C1 .523 1.523 0 2.167 0l3.666 0zM6 6.833l0-5.666C6 1.075 5.925 1 5.833 1L2.167 1C2.075 1 2 1.075 2 1.167l0 5.666c0 .092.075.167.167.167l3.666 0C5.925 7 6 6.925 6 6.833zM4.5 2c.275 0 .5.225.5.5 0 .275-.225.5-.5.5l-1 0c-.275 0-.5-.225-.5-.5 0-.275.225-.5.5-.5l1 0zm0 2c.275 0 .5.225.5.5 0 .275-.225.5-.5.5l-1 0c-.275 0-.5-.225-.5-.5 0-.275.225-.5.5-.5l1 0z" fill="#000" fill-rule="evenodd"/></svg>