<svg width="16" height="16" viewBox="0 0 16 16" xmlns="http://www.w3.org/2000/svg"><title>content/note-ppt_16</title><path d="M11.9336 10.0039l0-3.314 1.279 0 0-.703-3.301 0 0 .703 1.262 0 0 3.451c-.684.275-1.17.943-1.17 1.724l0 3.135-8.096 0c-.5 0-.908-.406-.908-.906l0-12.188c0-.5.408-.906.908-.906l12.186 0c.5 0 .906.406.906.906l.009 8.098-3.075 0zm-.93 4.792l0-2.931c0-.474.388-.861.864-.861l2.928 0-3.792 3.792zm3.09-14.796c1.051 0 1.906.856 1.906 1.906l0 8.907c0 .257-.1.502-.283.684l-4.219 4.219c-.181.181-.43.284-.685.284l-8.905 0c-1.051 0-1.906-.853-1.907-1.903 0-.001-.001-.002-.001-.003l0-12.188c0-.002.001-.002.001-.004.001-1.047.856-1.902 1.907-1.902l12.186 0zM4.124 7.9951l-.577 0 0-1.35.598 0c.369 0 .809.121.809.689 0 .327-.098.661-.83.661zm.011-2.008l-1.347 0 0 4.026.759 0 0-1.359.566 0c1.046 0 1.622-.469 1.622-1.32 0-.856-.584-1.347-1.6-1.347zm3.7488 2.008l-.577 0 0-1.35.598 0c.369 0 .81.121.81.689 0 .327-.099.661-.831.661zm.011-2.008l-1.347 0 0 4.026.759 0 0-1.359.566 0c1.046 0 1.622-.469 1.622-1.32 0-.856-.584-1.347-1.6-1.347z" fill-rule="evenodd"/></svg>