<svg width="16" height="16" viewBox="0 0 16 16" xmlns="http://www.w3.org/2000/svg"><title>content/note_16</title><path d="M14.0937-.0001c1.051 0 1.906.856 1.906 1.906l0 8.907c0 .258-.1.502-.283.684l-4.219 4.219c-.181.181-.43.284-.685.284l-8.906 0c-1.051 0-1.907-.855-1.907-1.906l0-12.188c0-1.05.856-1.906 1.907-1.906l12.187 0zm-3.09 14.796l3.792-3.792-2.929 0c-.476 0-.863.387-.863.862l0 2.93zm-10.004-.702c0 .5.407.906.907.906l8.097 0 0-3.134c0-1.027.835-1.862 1.863-1.862l3.142 0-.009-8.098c0-.5-.406-.906-.906-.906l-12.187 0c-.5 0-.907.406-.907.906l0 12.188zM4.5 5c-.276 0-.5-.224-.5-.5 0-.276.224-.5.5-.5l7 0c.277 0 .5.224.5.5 0 .276-.223.5-.5.5l-7 0zm0 3.002c-.276 0-.5-.224-.5-.5 0-.276.224-.5.5-.5l7 0c.277 0 .5.224.5.5 0 .276-.223.5-.5.5l-7 0zm2.9983 2.0019c.276 0 .5.224.5.5 0 .276-.224.5-.5.5l-2.998 0c-.276 0-.5-.224-.5-.5 0-.276.224-.5.5-.5l2.998 0z" fill="#000" fill-rule="evenodd"/></svg>