<?xml version="1.0" encoding="UTF-8"?>
<svg width="28px" height="28px" viewBox="0 0 28 28" version="1.1" xmlns="http://www.w3.org/2000/svg" xmlns:xlink="http://www.w3.org/1999/xlink">
    <!-- Generator: Sketch 57.1 (83088) - https://sketch.com -->
    <title>notes_28</title>
    <desc>Created with Sketch.</desc>
    <g id="Icons-Webex" stroke="none" stroke-width="1" fill="none" fill-rule="evenodd">
        <g id="activities/notes_28" fill="#171B1F">
            <g id="notes_28" transform="translate(3.000000, 0.000000)">
                <path d="M19,0 C20.657,0 22,1.343 22,3 L22,3 L22,25 C22,26.657 20.657,28 19,28 L19,28 L3,28 C1.343,28 0,26.657 0,25 L0,25 L0,3 C0,1.343 1.343,0 3,0 L3,0 Z M19,1 L3,1 C1.896,1 1,1.896 1,3 L1,3 L1,25 C1,26.104 1.896,27 3,27 L3,27 L19,27 C20.104,27 21,26.104 21,25 L21,25 L21,3 C21,1.896 20.104,1 19,1 L19,1 Z M10.5,20 C10.776,20 11,20.224 11,20.5 C11,20.7453333 10.8230123,20.9495802 10.5898381,20.9919396 L10.5898381,20.9919396 L10.5,21 L5.5,21 L5.41016187,20.9919396 C5.17698765,20.9495802 5,20.7453333 5,20.5 C5,20.2546667 5.17698765,20.0504198 5.41016187,20.0080604 L5.41016187,20.0080604 L5.5,20 Z M16.5,13.5186 C16.776,13.5186 17,13.7426 17,14.0186 C17,14.2639333 16.8230123,14.4681802 16.5898381,14.5105396 L16.5898381,14.5105396 L16.5,14.5186 L5.5,14.5186 L5.41016187,14.5105396 C5.17698765,14.4681802 5,14.2639333 5,14.0186 C5,13.7732667 5.17698765,13.5690198 5.41016187,13.5266604 L5.41016187,13.5266604 L5.5,13.5186 Z M16.5,7 C16.776,7 17,7.224 17,7.5 C17,7.74533333 16.8230123,7.94958025 16.5898381,7.99193964 L16.5898381,7.99193964 L16.5,8 L5.5,8 L5.41016187,7.99193964 C5.17698765,7.94958025 5,7.74533333 5,7.5 C5,7.25466667 5.17698765,7.05041975 5.41016187,7.00806036 L5.41016187,7.00806036 L5.5,7 Z" id="fill"></path>
            </g>
        </g>
    </g>
</svg>