<svg width="12" height="12" viewBox="0 0 12 12" xmlns="http://www.w3.org/2000/svg"><title>activities/notes_12</title><path d="M9.349 11c.35944521 0 .651-.2917298.651-.651l0-8.698C10 1.2917298 9.70844521 1 9.349 1L2.652 1C2.29223004 1 2 1.29205484 2 1.651l0 8.698c0 .3589452.29223004.651.652.651l6.697 0zm0 1l-6.697 0C1.740079496 12 1 11.2603642 1 10.349l0-8.698C1 .739635803 1.740079496 0 2.652 0l6.697 0C10.26086433 0 11 .739579329 11 1.651l0 8.698C11 11.2604207 10.26086433 12 9.349 12zM7.5003 5c.276 0 .5-.224.5-.5 0-.276-.224-.5-.5-.5l-2.984 0c-.276 0-.5.224-.5.5 0 .276.224.5.5.5l2.984 0zm-.0156 2c.276 0 .5-.224.5-.5 0-.276-.224-.5-.5-.5l-2.984 0c-.276 0-.5.224-.5.5 0 .276.224.5.5.5l2.984 0zM6.0003 9c.276 0 .5-.224.5-.5 0-.276-.224-.5-.5-.5l-1.5 0c-.276 0-.5.224-.5.5 0 .276.224.5.5.5l1.5 0z" fill-rule="nonzero" fill="#000"/></svg>