<svg width="16" height="13" viewBox="0 0 16 13" fill="none" xmlns="http://www.w3.org/2000/svg">
<path fill-rule="evenodd" clip-rule="evenodd" d="M12 8.5C12 8.776 11.744 9 11.4286 9H4.57143C4.256 9 4 8.776 4 8.5V4.5C4 4.224 4.256 4 4.57143 4H11.4286C11.744 4 12 4.224 12 4.5V8.5ZM11.75 3H4.25C3.56 3 3 3.52267 3 4.16667V8.83333C3 9.47733 3.56 10 4.25 10H11.75C12.44 10 13 9.47733 13 8.83333V4.16667C13 3.52267 12.44 3 11.75 3Z" fill="#121212"/>
<path fill-rule="evenodd" clip-rule="evenodd" d="M3.5 0H0.5C0.225 0 0 0.225 0 0.5V3.5C0 3.775 0.225 4 0.5 4C0.775 4 1 3.775 1 3.5V1H3.5C3.775 1 4 0.775 4 0.5C4 0.225 3.775 0 3.5 0Z" fill="#121212"/>
<path fill-rule="evenodd" clip-rule="evenodd" d="M0 9.5L0 12.5C0 12.775 0.225 13 0.5 13H3.5C3.775 13 4 12.775 4 12.5C4 12.225 3.775 12 3.5 12H1L1 9.5C1 9.225 0.775 9 0.5 9C0.225 9 0 9.225 0 9.5Z" fill="#121212"/>
<path fill-rule="evenodd" clip-rule="evenodd" d="M16 3.5V0.5C16 0.225 15.775 0 15.5 0L12.5 0C12.225 0 12 0.225 12 0.5C12 0.775 12.225 1 12.5 1L15 1V3.5C15 3.775 15.225 4 15.5 4C15.775 4 16 3.775 16 3.5Z" fill="#121212"/>
<path fill-rule="evenodd" clip-rule="evenodd" d="M15.5 9C15.225 9 15 9.225 15 9.5V12H12.5C12.225 12 12 12.225 12 12.5C12 12.775 12.225 13 12.5 13H15.5C15.775 13 16 12.775 16 12.5V9.5C16 9.225 15.775 9 15.5 9Z" fill="#121212"/>
</svg>
