<svg width="14" height="14" viewBox="0 0 14 14" xmlns="http://www.w3.org/2000/svg"><title>content/open-in-folder_14</title><path d="M1.4951 3c-.274 0-.498.225-.498.5l0 6.646 1.775-4.229c.236-.557.777-.917 1.379-.917l4.822 0 0-.5c0-.275-.225-.5-.499-.5l-2.579 0c-.392 0-.778-.16-1.056-.439l-.413-.415c-.095-.094-.219-.146-.353-.146l-2.578 0zm-.181 8.966c.057.022.117.034.181.034l8.615 0c.199 0 .38-.119.458-.303L13.0021 6l-8.851 0c-.201 0-.382.12-.46.306l-2.377 5.66zM10.1101 13l-8.615 0c-.824 0-1.495-.673-1.495-1.5l0-8c0-.827.671-1.5 1.495-1.5l2.578 0c.4 0 .776.156 1.058.439l.413.415c.092.092.221.146.351.146l2.579 0c.825 0 1.496.673 1.496 1.5l0 .5 3.033 0c.336 0 .646.168.831.449.186.282.218.635.085.946l-2.434 5.696c-.235.552-.775.909-1.375.909z" fill="#000" fill-rule="evenodd"/></svg>