<svg width="16" height="16" viewBox="0 0 16 16" xmlns="http://www.w3.org/2000/svg"><title>phone/other-number-warning_16</title><path d="M6.99923164 12.9997c.27597334 0 .49995171.224.49995171.5 0 .276-.22397837.5-.49995171.5-.27597334 0-.4999517-.224-.4999517-.5 0-.276.22397836-.5.4999517-.5zm-2.49975852-5c.27597334 0 .4999517.225.4999517.5 0 .276-.22397836.5-.4999517.5-.27597334 0-.49995171-.224-.49995171-.5 0-.275.22397837-.5.49995171-.5zm0 2.5c.27597334 0 .4999517.225.4999517.5 0 .276-.22397836.5-.4999517.5-.27597334 0-.49995171-.224-.49995171-.5 0-.275.22397837-.5.49995171-.5zm0 2.5c.27597334 0 .4999517.224.4999517.5 0 .276-.22397836.5-.4999517.5-.27597334 0-.49995171-.224-.49995171-.5 0-.276.22397837-.5.49995171-.5zm2.49975852-2.5c.27597334 0 .49995171.225.49995171.5 0 .276-.22397837.5-.49995171.5-.27597334 0-.4999517-.224-.4999517-.5 0-.275.22397836-.5.4999517-.5zM5.21280421 3.5881c1.24387984-.141 2.54875379-.145 3.58265392-.012.4119602.055.76092649.348.88891413.745l.20098059.626c.0879915.273.28497245.491.53894795.597l.993904.41c.2329775.095.4989518.037.6769346-.147l.7919235-.82c.0839919-.087.123988-.21.1079896-.336-.0149986-.118-.0779925-.22-.1719834-.277-1.4148634-.873-3.5376583-1.374-5.8234375-1.374-2.28577919 0-4.40857413.501-5.82443736 1.374-.09399092.057-.15698484.159-.17198339.277-.015998452.126.02399768.249.10798957.337l.7909236.818c.17898271.186.44495702.243.67793451.148l.99290409-.41c.25497537-.106.45195634-.324.53894794-.597l.19898077-.614c.12998745-.405.48395325-.698.90191288-.745zm3.51966 1.04c-1.00890254-.182-2.25678199-.178-3.40667091-.046l-.26097479.672c-.17798281.553-.58294369.996-1.10989279 1.213l-.99290409.411c-.19998068.083-.40796059.123-.61494059.123-.42895857 0-.8499179-.174-1.16488748-.499l-.789923691-.82c-.2959714097-.307-.4349579837-.728-.3809631996-1.157.0529948808-.42.2859723756-.785.6399381826-1.003C2.2200933 2.5541 4.53286989 2.0001 6.9996316 2.0001c2.46576181 0 4.7795383.554 6.3483868 1.522.3529659.218.5859434.583.6389382 1.003.0539948.429-.0839919.85-.3799633 1.156l-.7919235.821c-.464955.481-1.1638875.631-1.7778282.376l-.993904-.411c-.52694911-.217-.93190999-.66-1.1098928-1.213l-.20098059-.626zm.26657425 3.8716c0-.275.22397837-.5.49995171-.5.27597334 0 .4999517.225.4999517.5 0 .276-.22397836.5-.4999517.5-.27597334 0-.49995171-.224-.49995171-.5zm-1.99980682-.5c.27597334 0 .49995171.225.49995171.5 0 .276-.22397837.5-.49995171.5-.27597334 0-.4999517-.224-.4999517-.5 0-.275.22397836-.5.4999517-.5zm7.88163866 6c.0639938 0 .0939909-.036.1059897-.058l-2.8827215-4.887c-.0289972-.048-.0779925-.055-.1049898-.055-.0259975 0-.0749928.007-.10399.055l-2.88072172 4.799c.00999903.11.03999613.146.10398995.146l5.76244337 0zm.9609072-.661c.2049802.339.2109796.749.0159984 1.095-.196981.349-.5719447.566-.9769056.566l-5.76244337 0c-.40496088 0-.77992466-.217-.97690563-.566-.19498117-.346-.18898175-.756.01599845-1.096l1.13289057-1.887c-.17098349-.079-.2909719-.25-.2909719-.451 0-.275.22397837-.5.49995171-.5.11298909 0 .21297943.045.29697131.108l1.24188006-2.068c.4069607-.677 1.5158535-.677 1.9218143-.001.0009999 0 .0009999 0 .0009999.001l2.8807218 4.799zm-4.3431805-2.839c0-.275.2249783-.5.4999517-.5.2749735 0 .4999517.225.4999517.5l0 1.488c0 .275-.2249782.5-.4999517.5-.2749734 0-.4999517-.225-.4999517-.5l0-1.488zm.4999517 1.9912c.2759734 0 .4999517.224.4999517.5 0 .276-.2239783.5-.4999517.5-.2759733 0-.4999517-.224-.4999517-.5 0-.276.2239784-.5.4999517-.5z" fill-rule="evenodd"/></svg>