<svg width="20" height="20" viewBox="0 0 20 20" fill="none" xmlns="http://www.w3.org/2000/svg">
<path fill-rule="evenodd" clip-rule="evenodd" d="M17.6246 6.26469L18.7795 5.11627C18.9445 4.95278 19.0225 4.72711 18.9935 4.49843C18.9665 4.27275 18.8385 4.07717 18.6425 3.96183C16.5356 2.71611 13.3857 2.00299 9.99985 2.00299C6.61498 2.00299 3.4651 2.71611 1.35818 3.96183C1.16219 4.07717 1.03419 4.27275 1.00619 4.49843C0.977192 4.72711 1.05519 4.95278 1.22018 5.11627L2.37614 6.26569C2.70613 6.59367 3.20111 6.69597 3.63509 6.52145L5.08804 5.94674C5.52202 5.77423 5.85501 5.42418 6.002 4.98588L6.29199 4.12331C6.45598 3.63285 6.89797 3.27879 7.41695 3.22262C8.34191 3.12232 9.29088 3.07117 10.1968 3.07117C11.0518 3.07117 11.8688 3.11631 12.5928 3.20658C13.1047 3.26976 13.5397 3.62382 13.7027 4.10726L13.9977 4.98487C14.1447 5.42418 14.4777 5.77523 14.9117 5.94674L16.3636 6.52246C16.7996 6.69397 17.2936 6.59367 17.6246 6.26469ZM19.1505 3.09825C19.6145 3.37307 19.9195 3.83846 19.9865 4.37405C20.0535 4.91467 19.8695 5.44525 19.4835 5.82839L18.3275 6.97681C17.7156 7.58563 16.8006 7.76694 15.9966 7.45L14.5447 6.87952C13.8357 6.59868 13.2907 6.02497 13.0497 5.30483L12.7547 4.44C12.7137 4.31764 12.6047 4.21759 12.4698 4.20154C11.0718 4.02702 9.22288 4.01445 7.52494 4.2C7.39295 4.21505 7.27995 4.3219 7.23995 4.44326L6.94997 5.30483C6.70897 6.02497 6.16399 6.59868 5.45502 6.87952L4.00308 7.45423C3.74309 7.55754 3.4711 7.60769 3.20211 7.60769C2.63913 7.60769 2.08715 7.38904 1.67317 6.97781L0.51621 5.82839C0.130225 5.44525 -0.0527684 4.91467 0.0132291 4.37405C0.0802265 3.83846 0.385215 3.37307 0.850197 3.09825C3.10711 1.76428 6.44198 1 9.99985 1C13.5587 1 16.8936 1.76428 19.1505 3.09825ZM6.5 10.5C6.5 10.7761 6.27614 11 6 11C5.72386 11 5.5 10.7761 5.5 10.5C5.5 10.2239 5.72386 10 6 10C6.27614 10 6.5 10.2239 6.5 10.5ZM10.5 10.5C10.5 10.7761 10.2761 11 10 11C9.72386 11 9.5 10.7761 9.5 10.5C9.5 10.2239 9.72386 10 10 10C10.2761 10 10.5 10.2239 10.5 10.5ZM14 11C14.2761 11 14.5 10.7761 14.5 10.5C14.5 10.2239 14.2761 10 14 10C13.7239 10 13.5 10.2239 13.5 10.5C13.5 10.7761 13.7239 11 14 11ZM6.5 14.5C6.5 14.7761 6.27614 15 6 15C5.72386 15 5.5 14.7761 5.5 14.5C5.5 14.2239 5.72386 14 6 14C6.27614 14 6.5 14.2239 6.5 14.5ZM10 15C10.2761 15 10.5 14.7761 10.5 14.5C10.5 14.2239 10.2761 14 10 14C9.72386 14 9.5 14.2239 9.5 14.5C9.5 14.7761 9.72386 15 10 15ZM14.5 14.5C14.5 14.7761 14.2761 15 14 15C13.7239 15 13.5 14.7761 13.5 14.5C13.5 14.2239 13.7239 14 14 14C14.2761 14 14.5 14.2239 14.5 14.5ZM6 19C6.27614 19 6.5 18.7761 6.5 18.5C6.5 18.2239 6.27614 18 6 18C5.72386 18 5.5 18.2239 5.5 18.5C5.5 18.7761 5.72386 19 6 19ZM10.5 18.5C10.5 18.7761 10.2761 19 10 19C9.72386 19 9.5 18.7761 9.5 18.5C9.5 18.2239 9.72386 18 10 18C10.2761 18 10.5 18.2239 10.5 18.5ZM14 19C14.2761 19 14.5 18.7761 14.5 18.5C14.5 18.2239 14.2761 18 14 18C13.7239 18 13.5 18.2239 13.5 18.5C13.5 18.7761 13.7239 19 14 19Z" fill="#121212"/>
</svg>
