<svg width="12" height="12" viewBox="0 0 12 12" xmlns="http://www.w3.org/2000/svg"><title>phone/other-number_12</title><path d="M10.9353 3.437l-.669.663c-.132.13-.33.171-.504.103l-.841-.332c-.194-.077-.341-.232-.407-.427l-.171-.507c-.12-.355-.44-.615-.817-.662-.879-.109-1.988-.106-3.043.01-.382.04-.708.3-.829.661l-.168.498c-.065.195-.214.35-.407.427l-.84.331c-.175.068-.373.028-.505-.102l-.669-.663c-.067-.065-.068-.142-.064-.181.005-.038.025-.109.102-.154C2.2923 2.401 4.0773 2 6.0003 2c1.924 0 3.708.402 4.896 1.102.078.045.097.116.102.154.005.04.003.116-.063.181m1.055-.305c.048.378-.08.747-.351 1.015l-.669.664c-.414.409-1.031.535-1.575.322l-.841-.333c-.469-.184-.828-.563-.988-1.037l-.171-.507c-.786-.086-1.838-.083-2.805.023l-.156.484c-.16.474-.52.852-.988 1.037l-.841.332c-.175.07-.359.103-.541.103-.38 0-.754-.147-1.034-.424l-.669-.663c-.271-.269-.399-.639-.352-1.016.047-.375.261-.7.587-.892C1.9533 1.44 3.8733 1 6.0003 1c2.128 0 4.047.44 5.404 1.241.326.191.539.516.586.891zM6.0002 8c.276 0 .5.224.5.5 0 .276-.224.5-.5.5-.276 0-.5-.224-.5-.5 0-.276.224-.5.5-.5zm-2 0c.276 0 .5.224.5.5 0 .276-.224.5-.5.5-.276 0-.5-.224-.5-.5 0-.276.224-.5.5-.5zm4 0c.276 0 .5.224.5.5 0 .276-.224.5-.5.5-.276 0-.5-.224-.5-.5 0-.276.224-.5.5-.5zm-2-2c.276 0 .5.224.5.5 0 .276-.224.5-.5.5-.276 0-.5-.224-.5-.5 0-.276.224-.5.5-.5zm-2 0c.276 0 .5.224.5.5 0 .276-.224.5-.5.5-.276 0-.5-.224-.5-.5 0-.276.224-.5.5-.5zm4 0c.276 0 .5.224.5.5 0 .276-.224.5-.5.5-.276 0-.5-.224-.5-.5 0-.276.224-.5.5-.5zm-2 4c.276 0 .5.224.5.5 0 .276-.224.5-.5.5-.276 0-.5-.224-.5-.5 0-.276.224-.5.5-.5zm-2 0c.276 0 .5.224.5.5 0 .276-.224.5-.5.5-.276 0-.5-.224-.5-.5 0-.276.224-.5.5-.5zm4 0c.276 0 .5.224.5.5 0 .276-.224.5-.5.5-.276 0-.5-.224-.5-.5 0-.276.224-.5.5-.5z" fill="#000" fill-rule="evenodd"/></svg>