<svg width="16" height="16" viewBox="0 0 16 16" fill="none" xmlns="http://www.w3.org/2000/svg">
<path fill-rule="evenodd" clip-rule="evenodd" d="M3.35512 1.00004C4.21312 1.00004 4.98712 1.51004 5.32712 2.29904L5.93712 3.71804C6.23612 4.41204 6.21312 5.19804 5.87512 5.87304L5.46312 6.69604C5.40712 6.80904 5.42112 6.94504 5.50212 7.04904C6.35512 8.14704 7.65212 9.43304 8.96812 10.489C9.07012 10.572 9.20612 10.587 9.32012 10.53L10.1281 10.125C10.8041 9.78704 11.5891 9.76604 12.2821 10.063L13.7011 10.673C14.4901 11.013 15.0001 11.787 15.0001 12.645V14.261C15.0001 14.803 14.7551 15.303 14.3271 15.636C14.0201 15.875 13.6491 16 13.2711 16C13.1301 16 12.9861 15.983 12.8461 15.947C10.3311 15.308 7.46112 13.515 4.97412 11.027C2.48512 8.53904 0.692122 5.66904 0.0531215 3.15404C-0.0778785 2.63604 0.0361215 2.09604 0.365121 1.67304C0.697122 1.24504 1.19812 1.00004 1.73912 1.00004H3.35512ZM15.5001 0.000244141C15.7751 0.000244141 16.0001 0.225244 16.0001 0.500244V6.50024C16.0001 6.77524 15.7751 7.00024 15.5001 7.00024C15.2251 7.00024 15.0001 6.77524 15.0001 6.50024V1.70724L9.8541 6.85424C9.7561 6.95124 9.6281 7.00024 9.5001 7.00024C9.3721 7.00024 9.2441 6.95124 9.1461 6.85424C8.9511 6.65824 8.9511 6.34224 9.1461 6.14624L14.2931 1.00024H9.5001C9.2251 1.00024 9.0001 0.775244 9.0001 0.500244C9.0001 0.225244 9.2251 0.000244141 9.5001 0.000244141H15.5001Z" fill="#121212"/>
</svg>
