<svg width="12" height="12" viewBox="0 0 12 12" fill="none" xmlns="http://www.w3.org/2000/svg">
<path fill-rule="evenodd" clip-rule="evenodd" d="M2.74373 0C3.46073 0 4.10773 0.426 4.39073 1.085L4.87073 2.201C5.11773 2.774 5.09873 3.424 4.81973 3.983L4.49573 4.63C4.46973 4.682 4.47673 4.745 4.51573 4.794C5.18073 5.649 6.19173 6.653 7.21973 7.479C7.26873 7.517 7.32973 7.524 7.38173 7.499L8.01673 7.181C8.57673 6.903 9.22573 6.882 9.79973 7.129L10.9147 7.609C11.5747 7.893 11.9997 8.539 11.9997 9.257V10.526C11.9997 10.985 11.7917 11.41 11.4307 11.691C11.1687 11.894 10.8557 12 10.5357 12C10.4147 12 10.2937 11.985 10.1737 11.955C8.17973 11.448 5.90673 10.029 3.93873 8.061C1.97073 6.093 0.551731 3.82 0.0457309 1.826C-0.0662691 1.387 0.0297309 0.929 0.308731 0.57C0.590731 0.208 1.01573 0 1.47373 0H2.74373ZM11.5 0C11.565 0 11.63 0.0139991 11.691 0.0389974C11.731 0.0559963 11.763 0.0829945 11.796 0.108993C11.815 0.121992 11.837 0.129991 11.854 0.14699C11.87 0.162989 11.877 0.184988 11.891 0.202986C11.917 0.236984 11.944 0.268982 11.961 0.308979C11.986 0.370975 12 0.434971 12 0.499967V4.4997C12 4.77368 11.775 4.99967 11.5 4.99967C11.225 4.99967 11 4.77368 11 4.4997V1.70689L7.85503 4.85368C7.65803 5.04766 7.34203 5.04766 7.14703 4.85368C7.04903 4.75568 7.00003 4.62769 7.00003 4.4997C7.00003 4.37171 7.04903 4.24472 7.14703 4.14572L10.293 0.999933H7.50003C7.22703 0.999933 7.00003 0.774948 7.00003 0.499967C7.00003 0.224985 7.22703 0 7.50003 0H11.5Z" fill="#121212"/>
</svg>
