<?xml version="1.0" encoding="UTF-8"?>
<svg width="36px" height="36px" viewBox="0 0 36 36" version="1.1" xmlns="http://www.w3.org/2000/svg" xmlns:xlink="http://www.w3.org/1999/xlink">
    <!-- Generator: Sketch 60.1 (88133) - https://sketch.com -->
    <title>phone/outgoing-call-legacy_36</title>
    <desc>Created with Sketch.</desc>
    <g id="phone/outgoing-call-legacy_36" stroke="none" stroke-width="1" fill="none" fill-rule="evenodd">
        <path d="M30.4198,25.059 L27.1778,23.664 C25.7678,23.057 24.1688,23.103 22.7938,23.789 L20.9468,24.713 C20.4658,24.952 19.8778,24.888 19.4518,24.547 C16.3618,22.066 13.4358,19.161 11.4258,16.577 C11.0878,16.142 11.0278,15.571 11.2708,15.088 L12.2108,13.207 C12.8978,11.833 12.9438,10.235 12.3368,8.823 L10.9418,5.579 C10.2688,4.012 8.7308,3 7.0248,3 L3.3328,3 C2.2958,3 1.3348,3.47 0.6978,4.289 C0.0678,5.099 -0.1492,6.132 0.1028,7.122 C1.5348,12.763 5.5718,19.214 11.1798,24.82 C16.7858,30.427 23.2358,34.465 28.8778,35.897 C29.1478,35.966 29.4208,36 29.6918,36 C30.4148,36 31.1218,35.76 31.7108,35.302 C32.5298,34.665 32.9998,33.704 32.9998,32.667 L32.9998,28.975 C32.9998,27.269 31.9868,25.731 30.4198,25.059 L30.4198,25.059 Z M31.9998,32.667 C31.9998,33.394 31.6708,34.066 31.0968,34.513 C30.5328,34.951 29.8158,35.106 29.1238,34.929 C23.6518,33.538 17.3688,29.597 11.8868,24.113 C6.4028,18.63 2.4608,12.347 1.0708,6.875 C0.8958,6.187 1.0478,5.468 1.4868,4.903 C1.9338,4.329 2.6058,4 3.3328,4 L7.0248,4 C8.3308,4 9.5078,4.775 10.0228,5.975 L11.4178,9.218 C11.9088,10.358 11.8718,11.649 11.3158,12.759 L10.3758,14.64 C9.9658,15.459 10.0688,16.46 10.6368,17.191 C12.6918,19.834 15.6778,22.799 18.8268,25.326 C19.5558,25.911 20.5618,26.022 21.3948,25.607 L23.2408,24.684 C24.3508,24.13 25.6398,24.092 26.7828,24.582 L30.0248,25.977 C31.2248,26.492 31.9998,27.669 31.9998,28.975 L31.9998,32.667 Z M35.4998,0 L22.6428,0 C22.3658,0 22.1428,0.224 22.1428,0.5 C22.1428,0.776 22.3658,1 22.6428,1 L34.2928,1 L20.1458,15.146 C19.9508,15.342 19.9508,15.658 20.1458,15.854 C20.2438,15.951 20.3718,16 20.4998,16 C20.6278,16 20.7558,15.951 20.8538,15.854 L34.9998,1.707 L34.9998,13.357 C34.9998,13.633 35.2238,13.857 35.4998,13.857 C35.7758,13.857 35.9998,13.633 35.9998,13.357 L35.9998,0.5 C35.9998,0.224 35.7758,0 35.4998,0" id="fill" fill="#171B1F"></path>
    </g>
</svg>