<svg width="24" height="24" viewBox="0 0 24 24" fill="none" xmlns="http://www.w3.org/2000/svg">
<path fill-rule="evenodd" clip-rule="evenodd" d="M18 12C14.687 12 12 14.687 12 18C12 21.313 14.687 24 18 24C21.313 24 24 21.313 24 18C24 14.687 21.313 12 18 12ZM20.1465 15.98L17.1665 18.959L15.8535 17.647C15.6585 17.451 15.3415 17.451 15.1465 17.647C14.9515 17.842 14.9515 18.158 15.1465 18.354L16.8135 20.02C16.9105 20.118 17.0385 20.167 17.1665 20.167C17.2945 20.167 17.4225 20.118 17.5205 20.02L20.8535 16.687C21.0485 16.492 21.0485 16.175 20.8535 15.98C20.6585 15.785 20.3415 15.785 20.1465 15.98Z" fill="#00A0D1"/>
<path fill-rule="evenodd" clip-rule="evenodd" d="M3.92915 3.0023C4.13196 3.00229 4.325 3.00167 4.5089 3.00108C5.39639 2.99824 6.07091 2.99608 6.60241 3.06644C7.22632 3.14904 7.51589 3.31612 7.68813 3.58503C7.95392 4 8.26341 4.63191 8.51304 5.26413C8.76812 5.91015 8.93221 6.48558 8.95135 6.80205C8.98789 7.40643 8.7436 7.89675 8.46456 8.45679L8.42806 8.53009L8.42604 8.53416C8.16416 9.06095 7.79628 9.80094 8.24284 10.58C8.4868 11.0057 8.99168 11.6119 9.57295 12.2364C10.1644 12.8718 10.8682 13.561 11.5398 14.1597C11.7459 14.3435 12.062 14.3254 12.2457 14.1193C12.4295 13.9131 12.4114 13.5971 12.2053 13.4133C11.5566 12.835 10.875 12.1675 10.3049 11.555C9.72454 10.9316 9.29158 10.3988 9.11043 10.0828C8.9622 9.82415 9.02582 9.57409 9.32352 8.97524C9.34156 8.93896 9.36029 8.90167 9.37953 8.86338C9.64385 8.33726 10.0028 7.62276 9.94953 6.7417C9.92011 6.25515 9.70224 5.55301 9.44316 4.89687C9.17864 4.22694 8.84177 3.5321 8.53021 3.04567C8.1251 2.41319 7.47849 2.1737 6.73365 2.07509C6.1287 1.995 5.36859 1.99776 4.48172 2.00097C4.30261 2.00162 4.11833 2.00229 3.92911 2.0023C3.44138 2.00232 2.96328 2.25344 2.61855 2.60041C2.267 2.95425 2 3.46091 2 4.04407C2 5.07962 2.51492 6.59762 3.47337 8.36772C4.44296 10.1584 5.90019 12.2683 7.86233 14.5042C8.63428 15.3839 9.49421 16.2002 10.3881 16.9425C10.6005 17.1189 10.9158 17.0897 11.0922 16.8772C11.2686 16.6648 11.2394 16.3495 11.0269 16.1731C10.1669 15.459 9.34607 14.6789 8.61395 13.8446C6.69338 11.6561 5.28155 9.60693 4.35274 7.89157C3.4128 6.15567 3 4.82073 3 4.04407C3 3.77289 3.12581 3.50867 3.32795 3.30522C3.5369 3.0949 3.77336 3.0023 3.92915 3.0023ZM15.5002 2H21.5002C21.7752 2 22.0002 2.225 22.0002 2.5V8.5C22.0002 8.775 21.7752 9 21.5002 9C21.2253 9 21.0002 8.775 21.0002 8.5V3.707L14.8542 9.854C14.7563 9.951 14.6283 10 14.5002 10C14.3722 10 14.2443 9.951 14.1462 9.854C13.9513 9.658 13.9513 9.342 14.1462 9.146L20.2933 3H15.5002C15.2253 3 15.0002 2.775 15.0002 2.5C15.0002 2.225 15.2253 2 15.5002 2Z" fill="#121212"/>
</svg>
