<svg width="24" height="24" viewBox="0 0 24 24" xmlns="http://www.w3.org/2000/svg"><title>network/paired-handset_24</title><path d="M22.0004 21.5520758c0 .4509861-.204.8679731-.561 1.1459645-.351.2709916-.795.3659887-1.221.2569921-3.737-.9489706-8.03-3.6438871-11.78-7.393771-3.75-3.7508838-6.446-8.04375081-7.394-11.77863511-.108-.42698677-.015-.87197299.258-1.22196214.277-.35598898.694-.560982627 1.145-.560982627l2.539 0c.835 0 1.588.495984637 1.918 1.262960877l.959 2.22993092c.319.74197702.294 1.58095103-.066 2.30292866l-.648 1.29395992c-.312.62598061-.237 1.35995787.197 1.9189406 1.42 1.8249434 3.481 3.8738799 5.656 5.6188259.55.4409863 1.308.5239838 1.933.2109935l1.269-.6349804c.722-.3599888 1.559-.385988 2.304-.0659979l2.229.9579703c.767.3309897 1.263 1.0829664 1.263 1.9179406l0 2.5389213zm-.868-5.3748335c1.135.4879849 1.868 1.6009504 1.868 2.8359122l0 2.5389213c0 .7619764-.345 1.4669546-.947 1.9349401-.433.3359896-.952.5129841-1.483.5129841-.199 0-.4-.0249992-.598-.0759976-3.906-.9919693-8.368-3.7818829-12.241-7.6557629-3.874-3.87388-6.665-8.33574176-7.656-12.23962083-.185-.72697748-.025-1.48595397.438-2.081935505C.9804 1.344701813 1.6864.9997125 2.4474.9997125l2.539 0c1.236 0 2.349.733977263 2.836 1.86794214l.959 2.22993092c.436 1.01396859.403 2.15993309-.09 3.14490257l-.647 1.29395992c-.139.27799139-.104.6069812.091.85797342 1.374 1.76694523 3.376 3.75388373 5.492 5.45283113.246.1979938.581.2369926.86.096997l1.27-.6349804c.988-.4939847 2.135-.5249837 3.145-.0909972l2.23.9589703zm-4.632-5.18433937c-1.933 0-3.5-1.56695146-3.5-3.49989158 0-1.93294012 1.567-3.49989158 3.5-3.49989158.745 0 1.433.23699266 2 .63298039.567-.39598773 1.255-.63298039 2-.63298039 1.933 0 3.5 1.56695146 3.5 3.49989158 0 1.93294012-1.567 3.49989158-3.5 3.49989158-.745 0-1.433-.23699266-2-.63298039-.567.39598773-1.255.63298039-2 .63298039zm0-5.99981414c-1.378 0-2.5 1.12096528-2.5 2.49992256 0 1.37795732 1.122 2.49992256 2.5 2.49992256.46 0 .886-.13399585 1.256-.35098913-.466-.59498157-.756-1.33495864-.756-2.14893343 0-.81397478.29-1.55395186.756-2.14893343-.37-.21699328-.796-.35098913-1.256-.35098913zm6.5 2.49992256c0-1.37895728-1.122-2.49992256-2.5-2.49992256-.46 0-.886.13399585-1.256.35098913.466.59498157.756 1.33495865.756 2.14893343 0 .81397479-.29 1.55395186-.756 2.14893343.37.21699328.796.35098913 1.256.35098913 1.378 0 2.5-1.12196524 2.5-2.49992256zm-4.5-1.484954c-.31.41698708-.5.92697129-.5 1.484954 0 .55798272.19 1.06796692.5 1.484954.31-.41698708.5-.92697128.5-1.484954 0-.55798271-.19-1.06796692-.5-1.484954z" fill="#000" fill-rule="evenodd"/></svg>