<svg width="14" height="14" viewBox="0 0 14 14" xmlns="http://www.w3.org/2000/svg"><title>network/pairing_14</title><path d="M9 11c-.31 0-.607-.043-.897-.11C9.25 9.973 10 8.579 10 7c0-1.579-.75-2.973-1.897-3.89C8.393 3.043 8.69 3 9 3c2.206 0 4 1.794 4 4 0 2.206-1.794 4-4 4m0-4c0 1.474-.811 2.75-2 3.444C5.811 9.75 5 8.474 5 7c0-1.474.811-2.75 2-3.444C8.189 4.25 9 5.526 9 7m-4 4c-2.206 0-4-1.794-4-4 0-2.206 1.794-4 4-4 .31 0 .607.043.897.11C4.75 4.027 4 5.421 4 7c0 1.579.75 2.973 1.897 3.89-.29.067-.587.11-.897.11m4-9c-.712 0-1.387.154-2 .424C6.387 2.154 5.712 2 5 2 2.243 2 0 4.243 0 7c0 2.757 2.243 5 5 5 .712 0 1.387-.154 2-.424.613.27 1.288.424 2 .424 2.757 0 5-2.243 5-5 0-2.757-2.243-5-5-5" fill="#000" fill-rule="evenodd"/></svg>