<svg width="24" height="24" viewBox="0 0 24 24" xmlns="http://www.w3.org/2000/svg"><title>network/paired-device_24</title><path d="M21.5 3C22.881 3 24 4.126 24 5.503l0 12.994C24 19.88 22.875 21 21.5 21l-3 0c-.275 0-.5-.225-.5-.5 0-.275.225-.5.5-.5l3 0c.824 0 1.5-.675 1.5-1.503l0-12.994C23 4.676 22.326 4 21.5 4l-19 0C1.676 4 1 4.675 1 5.503l0 12.994C1 19.324 1.674 20 2.5 20l3 0c.275 0 .5.225.5.5 0 .275-.225.5-.5.5l-3 0C1.119 21 0 19.874 0 18.497L0 5.503C0 4.12 1.125 3 2.5 3l19 0zM12 17c1.657 0 3 1.343 3 3 0 1.657-1.343 3-3 3-1.657 0-3-1.343-3-3 0-1.657 1.343-3 3-3zm0 5c1.103 0 2-.897 2-2 0-1.103-.897-2-2-2-1.103 0-2 .897-2 2 0 1.103.897 2 2 2zm0-8c1.603 0 3.109.624 4.242 1.758.195.195.195.512 0 .707-.097.098-.225.146-.353.146-.128 0-.256-.048-.354-.146C14.591 15.521 13.335 15 12 15c-1.335 0-2.591.521-3.535 1.465-.195.195-.512.195-.707 0-.195-.195-.195-.512 0-.707C8.891 14.624 10.397 14 12 14zm6.3643.3428c-.098.098-.226.146-.354.146-.127 0-.255-.048-.353-.146-3.119-3.119-8.195-3.119-11.314 0-.196.195-.512.195-.708 0-.195-.195-.195-.512 0-.707 3.51-3.51 9.219-3.51 12.729 0 .195.195.195.512 0 .707z" fill-rule="evenodd"/></svg>