<svg width="16" height="16" viewBox="0 0 16 16" xmlns="http://www.w3.org/2000/svg"><title>network/paired-device_16</title><path d="M8 11c-1.104 0-2 .896-2 2 0 1.104.896 2 2 2 1.104 0 2-.896 2-2 0-1.104-.896-2-2-2m0 1c.551 0 1 .448 1 1 0 .552-.449 1-1 1-.551 0-1-.448-1-1 0-.552.449-1 1-1zm2.4746-.9746c-.128 0-.256-.049-.354-.146-1.131-1.132-3.108-1.134-4.242 0-.196.195-.512.195-.707 0-.196-.196-.196-.512 0-.708.756-.755 1.76-1.171 2.828-1.171 1.07 0 2.075.416 2.829 1.171.195.196.195.513 0 .708-.098.097-.226.146-.354.146zM4.2241 9.501c-.133 0-.265-.053-.363-.156-.19-.201-.181-.518.02-.707C4.9991 7.582 6.4621 7 8.0001 7c1.532 0 2.99.577 4.106 1.626.202.189.212.505.023.706-.191.203-.508.211-.706.023C10.4921 8.481 9.2761 8 8.0001 8c-1.282 0-2.501.484-3.433 1.364-.096.092-.22.137-.343.137zM14 2c1.104 0 2 .896 2 2l0 8c0 1.104-.896 2-2 2l-1.5 0c-.275 0-.5-.225-.5-.5 0-.275.225-.5.5-.5l1.5 0c.552 0 1-.448 1-1l0-8c0-.551-.448-1-1-1L2 3c-.551 0-1 .449-1 1l0 8c0 .552.449 1 1 1l1.5 0c.275 0 .5.225.5.5 0 .275-.225.5-.5.5L2 14c-1.104 0-2-.896-2-2l0-8c0-1.104.896-2 2-2l12 0z" fill="#000" fill-rule="evenodd"/></svg>