<svg width="16" height="16" viewBox="0 0 16 16" fill="none" xmlns="http://www.w3.org/2000/svg">
<path fill-rule="evenodd" clip-rule="evenodd" d="M8.00024 4C5.34624 4 2.87924 4.557 1.23024 5.528C1.05824 5.629 1.01424 5.788 1.00424 5.873C0.985237 6.02 1.03624 6.165 1.14324 6.271L2.05524 7.175C2.28624 7.404 2.63224 7.472 2.93724 7.354L4.08324 6.902C4.39724 6.778 4.63824 6.525 4.74524 6.209L4.97224 5.531C5.11624 5.105 5.50024 4.799 5.95024 4.75C7.37824 4.596 8.87724 4.592 10.0602 4.738C10.5032 4.792 10.8822 5.099 11.0232 5.518L11.2562 6.209C11.3622 6.525 11.6032 6.778 11.9172 6.902L13.0632 7.354C13.3672 7.473 13.7132 7.404 13.9452 7.175L14.8572 6.271C14.9642 6.165 15.0152 6.02 14.9962 5.873C14.9862 5.788 14.9422 5.629 14.7702 5.528C13.1232 4.557 10.6552 4 8.00024 4ZM2.63424 8.412C2.16224 8.412 1.69924 8.229 1.35224 7.886L0.438237 6.981C0.110237 6.656 -0.0447627 6.207 0.0112374 5.749C0.0682373 5.294 0.327237 4.899 0.723237 4.667C2.52124 3.607 5.17324 3 8.00024 3C10.8292 3 13.4812 3.607 15.2772 4.667C15.6732 4.899 15.9322 5.294 15.9892 5.749C16.0452 6.207 15.8902 6.656 15.5622 6.981L14.6492 7.885C14.1352 8.395 13.3692 8.55 12.6962 8.284L11.5492 7.832C10.9602 7.599 10.5082 7.124 10.3082 6.528L10.0752 5.837C10.0562 5.78 10.0032 5.739 9.93724 5.73C8.84324 5.595 7.39324 5.6 6.05824 5.745C5.99224 5.752 5.93924 5.792 5.92024 5.85L5.69224 6.528C5.49124 7.124 5.03924 7.599 4.45124 7.832L3.30424 8.284C3.08624 8.37 2.85924 8.412 2.63424 8.412ZM13.5002 12.9961H2.50024C2.22424 12.9961 2.00024 12.7721 2.00024 12.4961C2.00024 12.2201 2.22424 11.9961 2.50024 11.9961H13.5002C13.7762 11.9961 14.0002 12.2201 14.0002 12.4961C14.0002 12.7721 13.7762 12.9961 13.5002 12.9961Z" fill="#121212"/>
</svg>
