<svg width="24" height="24" viewBox="0 0 24 24" xmlns="http://www.w3.org/2000/svg"><title>contacts/participant-add_24</title><path d="M23.5001428 11.00014282C23.776064 11.00014282 24 11.22507855 24 11.5c0 .27492145-.223936.49985718-.4998572.49985718l-2.5002856 0 0 2.50028562C20.9998572 14.776064 20.7759212 15 20.5 15c-.2769209 0-.4998572-.223936-.4998572-.4998572l0-2.50028562-2.5002856 0C17.2229363 11.99985718 17 11.77492145 17 11.5c0-.27492145.2229363-.49985718.4998572-.49985718l2.5002856 0 0-2.50028564C20.0001428 8.22393602 20.2230791 8 20.5 8c.2759212 0 .4998572.22393602.4998572.49985718l0 2.50028564 2.5002856 0zm-4.2561557 6.45804048l.7239828 3.0932373c.083998.3661464.001.7402961-.2279946 1.0284113C19.5279804 21.8469388 19.2159878 22 18.8829957 22L1.11741821 22c-.331992109 0-.643984689-.1530612-.856979624-.4201681-.2289945539-.2871148-.31199258-.6612645-.2289945539-1.0254101l.7249827589-3.0992397c.601985679-2.6240496 2.769934129-4.4587835 5.271874619-4.4587835l.64398469 0c-1.61096169-1.07643061-2.67293643-2.91016411-2.67293643-4.99399764C3.99934967 4.68707483 6.68628577 2 9.99920698 2c3.31392122 0 5.99985732 2.68707483 5.99985732 6.00240096 0 2.08383353-1.0619748 3.91756703-2.6729364 4.99399764l.6459846 0c2.5019405 0 4.6698889 1.8347339 5.2718746 4.4617847zM18.8840178 21c.1120068-.09.1260077-.157.1110067-.222l-.7240441-3.092C17.77295 15.515 16.0058423 14 13.9727183 14l-3.8182329 0c-.0520031.002-.1030063.008-.15500943.008-.05200317 0-.10200622-.006-.15400939-.008l-3.81723279 0c-2.03312398 0-3.80023175 1.515-4.29826212 3.683l-.72404415 3.097c-.015000918.063-.00100006.13.03600219.177L18.8840178 21zM5 8.0040032C5 10.73618895 7.202 12.9569656 9.923 13l.154 0C12.798 12.9569656 15 10.73618895 15 8.0040032 15 5.24479584 12.757 3 10 3 7.243 3 5 5.24479584 5 8.0040032z" fill="#000" fill-rule="evenodd"/></svg>