<svg width="14" height="14" viewBox="0 0 14 14" xmlns="http://www.w3.org/2000/svg"><title>contacts/participant-blocked_14</title><path d="M10.5004 13c-.509 0-.981-.154-1.376-.416l3.459-3.461c.263.396.417.868.417 1.377 0 1.379-1.122 2.5-2.5 2.5zm-9.478 0l.454-1.856C1.7834 9.881 2.8814 9 4.1444 9l2.856 0c.13 0 .252-.027.379-.038-.233.465-.379.981-.379 1.538 0 .98.406 1.864 1.056 2.5l-7.034 0zm2.478-8.5c0-1.93 1.57-3.5 3.5-3.5 1.931 0 3.5 1.57 3.5 3.5 0 1.93-1.569 3.5-3.5 3.5-1.93 0-3.5-1.57-3.5-3.5zm4.917 7.377c-.263-.396-.417-.868-.417-1.377 0-1.379 1.122-2.5 2.5-2.5.509 0 .981.154 1.376.416l-3.459 3.461zm2.287-4.856c.498-.718.796-1.582.796-2.521 0-2.481-2.019-4.5-4.5-4.5-2.48 0-4.5 2.019-4.5 4.5 0 1.421.676 2.675 1.707 3.5l-.063 0c-1.727 0-3.222 1.195-3.641 2.906l-.477 1.958c-.067.279-.005.566.171.79.173.22.431.346.709.346l9.594 0c1.933 0 3.5-1.567 3.5-3.5 0-1.863-1.46-3.372-3.296-3.479z" fill-rule="evenodd"/></svg>