<svg width="12" height="12" viewBox="0 0 12 12" fill="none" xmlns="http://www.w3.org/2000/svg">
<path fill-rule="evenodd" clip-rule="evenodd" d="M9 12C10.6569 12 12 10.6569 12 9C12 7.47902 10.8682 6.22241 9.40074 6.02653C9.77189 5.43541 10.0011 4.75077 10.0011 4C10.0011 1.795 8.20613 0 6.00113 0C3.79513 0 2.00114 1.795 2.00114 4C2.00114 5.209 2.55114 6.281 3.40113 7.015C1.98713 7.092 0.779135 8.043 0.431135 9.396L0.026135 10.962C-0.037865 11.21 0.017135 11.47 0.175135 11.674C0.335135 11.881 0.579135 12 0.845135 12H9ZM6.17071 8C6.06015 8.31278 6 8.64936 6 9C6 9.76837 6.28885 10.4693 6.76388 11H1.05014L1.39913 9.646C1.64814 8.677 2.54613 8 3.58314 8H6.17071ZM7.8884 6.21268C7.51609 6.3613 7.18053 6.58235 6.89915 6.85841C6.61603 6.94981 6.31478 7 6.00113 7C4.34714 7 3.00114 5.655 3.00114 4C3.00114 2.346 4.34714 1 6.00113 1C7.65514 1 9.00113 2.346 9.00113 4C9.00113 4.815 8.67313 5.551 8.14513 6.092C8.05464 6.12145 7.96779 6.16129 7.8884 6.21268ZM9 11C10.1046 11 11 10.1046 11 9C11 8.66091 10.9156 8.34154 10.7667 8.06173L8.06173 10.7667C8.34154 10.9156 8.66091 11 9 11ZM9 7C9.40243 7 9.77711 7.11886 10.0908 7.32339L7.32339 10.0908C7.11886 9.77711 7 9.40243 7 9C7 7.89543 7.89543 7 9 7Z" fill="#121212"/>
</svg>
