<svg width="14" height="14" xmlns="http://www.w3.org/2000/svg"><path d="M6.907 0c2.45 0 4.442 2.016 4.442 4.493 0 2.406-1.88 4.377-4.233 4.488l-.209.005H4.36c-1.334 0-2.447.794-2.825 1.996l-.049.175L1.023 13h8.911a.5.5 0 01.09.992l-.09.008H.916a.92.92 0 01-.91-1.023l.021-.12.49-1.942C.932 9.225 2.387 8.08 4.166 8a4.484 4.484 0 01-1.703-3.508C2.464 2.016 4.457 0 6.907 0zm4.663 13.123c.18-.19.52-.19.71 0a.5.5 0 01.14.35c0 .13-.05.26-.14.36-.1.09-.23.14-.36.14-.06 0-.13-.01-.19-.04-.06-.02-.11-.06-.16-.1a.533.533 0 01-.15-.36c0-.13.06-.26.15-.35zm.413-5.636C13.095 7.52 14 8.466 14 9.596c0 .948-.54 1.408-.9 1.712l-.089.076-.085.076-.267.25a.719.719 0 00-.226.526.5.5 0 01-1 0c0-.422.156-.831.433-1.144l.11-.112.267-.25c.066-.061.136-.122.21-.184.318-.27.547-.465.547-.95 0-.585-.479-1.093-1.046-1.11a1.032 1.032 0 00-.748.294c-.225.22-.35.523-.35.854a.5.5 0 01-1 0c0-.595.238-1.168.653-1.571a1.983 1.983 0 011.474-.576zM6.907 1C5.008 1 3.464 2.567 3.464 4.493s1.544 3.493 3.443 3.493c1.898 0 3.442-1.567 3.442-3.493S8.805 1 6.907 1z" fill="#171B1F" fill-rule="evenodd"/></svg>