<svg width="24" height="24" viewBox="0 0 24 24" xmlns="http://www.w3.org/2000/svg"><title>contacts/participant-add_24</title><path d="M13.5007609 22c.276 0 .5.224.5.5 0 .276-.224.5-.5.5L2.15676087 23c-.354999996 0-.685999996-.161-.906999996-.443-.2239999996-.286-.3019999996-.652-.2149999996-1.004l.7719999996-3.132C2.44576087 15.817 4.73976087 14 7.38476087 14l1.029 0c-2.04-1.225-3.413-3.452-3.413-6 0-3.859 3.141-7 7.00000003-7 3.859 0 7 3.141 7 7 0 3.859-3.141 7-7 7l-4.61600003 0c-2.183 0-4.077 1.505-4.608 3.659l-.771 3.132c-.017999996.072.012.125.031.149.022.028.06.06.12.06l11.34400003 0zM6.00076087 8c0 3.309 2.691 6 6.00000003 6 3.309 0 6-2.691 6-6 0-3.309-2.691-6-6-6-3.30900003 0-6.00000003 2.691-6.00000003 6zM22.5007609 18c.275 0 .5.225.5.5 0 .275-.225.5-.5.5l-3.5 0 0 3.5c0 .275-.225.5-.5.5-.275 0-.5-.225-.5-.5l0-3.5-3.5 0c-.275 0-.5-.225-.5-.5 0-.275.225-.5.5-.5l3.5 0 0-3.5c0-.275.225-.5.5-.5.275 0 .5.225.5.5l0 3.5 3.5 0z" fill-rule="evenodd"/></svg>