<?xml version="1.0" encoding="UTF-8"?>
<svg width="14px" height="14px" viewBox="0 0 14 14" version="1.1" xmlns="http://www.w3.org/2000/svg" xmlns:xlink="http://www.w3.org/1999/xlink">
    <!-- Generator: Sketch 60.1 (88133) - https://sketch.com -->
    <title>contacts/participant-add_14</title>
    <desc>Created with Sketch.</desc>
    <g id="contacts/participant-add_14" stroke="none" stroke-width="1" fill="none" fill-rule="evenodd">
        <path d="M7.50036767,13 L1.02236767,13 L1.47536767,11.144 C1.78336767,9.881 2.88036767,9 4.14336767,9 L7.00036767,9 C9.48136767,9 11.5003677,6.981 11.5003677,4.5 C11.5003677,2.019 9.48136767,0 7.00036767,0 C4.51936767,0 2.50036767,2.019 2.50036767,4.5 C2.50036767,5.921 3.17536767,7.175 4.20736767,8 L4.14336767,8 C2.41736767,8 0.921367671,9.195 0.503367671,10.906 L0.0263676707,12.864 C-0.0406323293,13.143 0.0213676707,13.43 0.197367671,13.654 C0.370367671,13.874 0.628367671,14 0.906367671,14 L7.50036767,14 C7.77536767,14 8.00036767,13.775 8.00036767,13.5 C8.00036767,13.225 7.77536767,13 7.50036767,13 M3.50036767,4.5 C3.50036767,2.57 5.07036767,1 7.00036767,1 C8.93036767,1 10.5003677,2.57 10.5003677,4.5 C10.5003677,6.43 8.93036767,8 7.00036767,8 C5.07036767,8 3.50036767,6.43 3.50036767,4.5 M13.5003677,10.5 L11.5003677,10.5 L11.5003677,8.5 C11.5003677,8.225 11.2753677,8 11.0003677,8 C10.7253677,8 10.5003677,8.225 10.5003677,8.5 L10.5003677,10.5 L8.50036767,10.5 C8.22536767,10.5 8.00036767,10.725 8.00036767,11 C8.00036767,11.275 8.22536767,11.5 8.50036767,11.5 L10.5003677,11.5 L10.5003677,13.5 C10.5003677,13.775 10.7253677,14 11.0003677,14 C11.2753677,14 11.5003677,13.775 11.5003677,13.5 L11.5003677,11.5 L13.5003677,11.5 C13.7753677,11.5 14.0003677,11.275 14.0003677,11 C14.0003677,10.725 13.7753677,10.5 13.5003677,10.5" id="fill" fill="#171B1F"></path>
    </g>
</svg>