<svg width="56" height="56" viewBox="0 0 56 56" xmlns="http://www.w3.org/2000/svg"><title>contacts/participant-add_56</title><path d="M41.382 40.5216l1.562 6.187c.139.56.016 1.138-.337 1.589-.35.446-.873.702-1.438.702l-38.338 0c-.564 0-1.088-.256-1.437-.702-.353-.451-.477-1.029-.339-1.587l1.563-6.191c1.242-5.016 5.687-8.52 10.81-8.52l3.571 0c-4.697-1.959-7.999-6.593-7.999-12 0-7.179 5.82-13 13-13 7.18 0 13 5.821 13 13 0 5.407-3.302 10.041-7.999 12l3.571 0c5.123 0 9.569 3.504 10.81 8.522zm.437 7.16c.162-.207.219-.474.155-.73l-1.562-6.188c-1.131-4.572-5.177-7.764-9.84-7.764l-17.144 0c-4.662 0-8.709 3.192-9.839 7.762l-1.563 6.191c-.063.255-.007.522.155.729.159.202.395.318.65.318l38.338 0c.255 0 .492-.116.65-.318zM10 19.9996c0 6.618 5.383 12 12 12 6.617 0 12-5.382 12-12 0-6.617-5.383-12-12-12-6.617 0-12 5.383-12 12zM54.5002 27c.276 0 .5.225.5.5 0 .277-.224.5-.5.5l-5.5 0 0 5.5c0 .277-.224.5-.5.5-.276 0-.5-.223-.5-.5l0-5.5-5.5 0c-.276 0-.5-.223-.5-.5 0-.275.224-.5.5-.5l5.5 0 0-5.5c0-.276.224-.5.5-.5.276 0 .5.224.5.5l0 5.5 5.5 0z" fill="#000" fill-rule="evenodd"/></svg>