<?xml version="1.0" encoding="UTF-8"?>
<svg width="14px" height="14px" viewBox="0 0 14 14" version="1.1" xmlns="http://www.w3.org/2000/svg" xmlns:xlink="http://www.w3.org/1999/xlink">
    <!-- Generator: Sketch 60.1 (88133) - https://sketch.com -->
    <title>contacts/participant-remove_14</title>
    <desc>Created with Sketch.</desc>
    <g id="contacts/participant-remove_14" stroke="none" stroke-width="1" fill="none" fill-rule="evenodd">
        <path d="M7.5,13 L1.022,13 L1.476,11.144 C1.783,9.881 2.881,9 4.144,9 L7,9 C9.481,9 11.5,6.981 11.5,4.5 C11.5,2.019 9.481,0 7,0 C4.52,0 2.5,2.019 2.5,4.5 C2.5,5.921 3.176,7.175 4.207,8 L4.144,8 C2.417,8 0.922,9.195 0.503,10.906 L0.026,12.864 C-0.041,13.143 0.021,13.43 0.197,13.654 C0.37,13.874 0.628,14 0.906,14 L7.5,14 C7.775,14 8,13.775 8,13.5 C8,13.225 7.775,13 7.5,13 M3.5,4.5 C3.5,2.57 5.07,1 7,1 C8.931,1 10.5,2.57 10.5,4.5 C10.5,6.43 8.931,8 7,8 C5.07,8 3.5,6.43 3.5,4.5 M13.5,10.5 L8.5,10.5 C8.226,10.5 8,10.725 8,11 C8,11.275 8.226,11.5 8.5,11.5 L13.5,11.5 C13.774,11.5 13.999,11.276 14,11.002 L14,10.998 C13.999,10.724 13.774,10.5 13.5,10.5" id="fill" fill="#171B1F"></path>
    </g>
</svg>