<svg xmlns="http://www.w3.org/2000/svg" viewBox="0 0 80 80"><title>meetings/participant-list-legacy-optical_80</title><path d="M57.8 65.6c-.2.3-.6.4-.9.4L7.2 66c-.4 0-.7-.2-.9-.4-.2-.3-.3-.7-.2-1L8 56.7C9.4 51 14.5 47 20.4 47l23.3 0c5.9 0 10.9 4 12.4 9.7l1.9 7.8c.1.4 0 .8-.2 1.1zM16 30c0-8.8 7.2-16 16-16s16 7.2 16 16c0 8.8-7.2 16-16 16s-16-7.2-16-16zm41 26.5l1.9 7.8c.2.7 0 1.3-.4 1.9-.4.5-1 .8-1.7.8L7.2 67c-.7 0-1.3-.3-1.7-.8-.5-.6-.6-1.2-.4-1.9L7 56.5C8.5 50.3 14 46 20.4 46l6 0C19.7 43.7 15 37.4 15 30c0-9.4 7.6-17 17-17s17 7.6 17 17c0 7.4-4.7 13.7-11.3 16l6 0C50 46 55.5 50.3 57 56.5zM58.5 23c-.3 0-.5-.2-.5-.5 0-.3.2-.5.5-.5l21 0c.3 0 .5.2.5.5 0 .3-.2.5-.5.5l-21 0zm21 8c.3 0 .5.2.5.5s-.2.5-.5.5l-21 0c-.3 0-.5-.2-.5-.5s.2-.5.5-.5l21 0zm0 9c.3 0 .5.2.5.5s-.2.5-.5.5l-21 0c-.3 0-.5-.2-.5-.5s.2-.5.5-.5l21 0z"/></svg>