<svg width="16" height="16" viewBox="0 0 16 16" xmlns="http://www.w3.org/2000/svg"><title>contacts/participant-remove_16</title><path d="M15.5002381 12c.275 0 .5.225.5.5 0 .275-.225.5-.5.5l-6.00000003 0c-.275 0-.5-.225-.5-.5 0-.275.225-.5.5-.5l6.00000003 0zm-6.00000003 3c.276 0 .50000003.224.50000003.5 0 .276-.22400003.5-.50000003.5L.969238071 16c-.291 0-.565-.134-.749-.366-.1949999998-.244-.2639999998-.562-.1929999998-.869l.5509999998-2.349C1.04923807 10.405 2.74523807 9 4.70323807 9l.328 0c-1.225-.912-2.031-2.358-2.031-4 0-2.757 2.243-5 5-5 2.75700003 0 5.00000003 2.243 5.00000003 5 0 2.757-2.243 5-5.00000003 5l-3.297 0c-1.491 0-2.787 1.087-3.151 2.645l-.551 2.348 8.499.007zm-5.5-10c0 2.206 1.795 4 4 4 2.20500003 0 4.00000003-1.794 4.00000003-4 0-2.206-1.795-4-4.00000003-4-2.205 0-4 1.794-4 4z" fill-rule="evenodd"/></svg>