<svg width="28" height="28" viewBox="0 0 28 28" xmlns="http://www.w3.org/2000/svg"><title>contacts/participant-add_28</title><path d="M17.5003116 26c.276 0 .5.224.5.5 0 .276-.224.5-.5.5L2.28131158 27c-.405000005 0-.778000005-.182-1.022000005-.497-.236-.305-.316-.691-.219-1.061l.918-3.523C2.71231158 19.022 5.40431158 17 8.50531158 17l1.504 0c-2.68-1.432-4.509-4.256-4.509-7.5 0-4.687 3.813-8.5 8.50000002-8.5 4.687 0 8.5 3.813 8.5 8.5 0 4.687-3.813 8.5-8.5 8.5l-5.49500002 0c-2.646 0-4.941 1.715-5.58 4.171l-.918 3.523c-.023000005.088.011.156.043.197.054.069.138.109.231.109l15.21900002 0zM6.50031158 9.5c0 4.136 3.364 7.5 7.50000002 7.5 4.136 0 7.5-3.364 7.5-7.5 0-4.136-3.364-7.5-7.5-7.5-4.13600002 0-7.50000002 3.364-7.50000002 7.5zM26.5003116 21c.275 0 .5.225.5.5 0 .275-.225.5-.5.5l-3.5 0 0 3.5c0 .275-.225.5-.5.5-.275 0-.5-.225-.5-.5l0-3.5-3.5 0c-.275 0-.5-.225-.5-.5 0-.275.225-.5.5-.5l3.5 0 0-3.5c0-.275.225-.5.5-.5.275 0 .5.225.5.5l0 3.5 3.5 0z" fill-rule="evenodd"/></svg>