<svg width="22" height="22" viewBox="0 0 22 22" xmlns="http://www.w3.org/2000/svg"><title>meetings/participant-list_22</title><path d="M6.3839 14.0001c-2.183 0-4.077 1.505-4.608 3.659l-.771 3.132c-.017.072.013.125.032.149.021.028.059.06.12.06l9.343 0c.276 0 .5.224.5.5 0 .276-.224.5-.5.5l-9.343 0c-.356 0-.687-.161-.907-.442-.224-.287-.302-.653-.215-1.005l.77-3.132c.641-2.604 2.935-4.421 5.579-4.421l1.029 0c-2.04-1.225-3.413-3.452-3.413-6 0-3.859 3.14-7 7-7 3.86 0 7 3.141 7 7 0 3.859-3.14 7-7 7l-4.616 0zm-1.384-7c0 3.309 2.691 6 6 6 3.309 0 6-2.691 6-6 0-3.309-2.691-6-6-6-3.309 0-6 2.691-6 6zm16.5 14c.275 0 .5.225.5.5 0 .275-.225.5-.5.5l-8 0c-.275 0-.5-.225-.5-.5 0-.275.225-.5.5-.5l8 0zm0-3c.275 0 .5.225.5.5 0 .275-.225.5-.5.5l-8 0c-.275 0-.5-.225-.5-.5 0-.275.225-.5.5-.5l8 0zm-8.5-2.5c0-.275.225-.5.5-.5l8 0c.275 0 .5.225.5.5 0 .275-.225.5-.5.5l-8 0c-.275 0-.5-.225-.5-.5z" fill-rule="evenodd"/></svg>