<svg width="20" height="20" viewBox="0 0 20 20" xmlns="http://www.w3.org/2000/svg"><title>meetings/participant-list-legacy_20</title><path d="M14.4566 14.8853l.514 1.958c.071.272.013.557-.16.781-.179.231-.451.364-.748.364l-13.124 0c-.297 0-.57-.133-.749-.364-.173-.225-.231-.509-.16-.781l.515-1.958c.439-1.676 1.99-2.85 3.787-2.889-1.412-.996-2.338-2.637-2.338-4.496 0-3.037 2.463-5.5 5.5-5.5 3.038 0 5.5 2.463 5.5 5.5 0 1.859-.925 3.499-2.336 4.495 1.802.034 3.358 1.21 3.799 2.89zm-13.431 2.103l12.949 0-.485-1.849c-.333-1.266-1.53-2.151-2.912-2.151l-2.851 0c-.078.003-.155.012-.233.012-.078 0-.155-.009-.232-.012l-2.839 0c-1.382 0-2.579.885-2.912 2.151l-.485 1.849zm1.968-9.488c0 2.441 1.958 4.425 4.385 4.488l.231 0c2.427-.063 4.384-2.047 4.384-4.488 0-2.482-2.018-4.5-4.5-4.5-2.481 0-4.5 2.018-4.5 4.5zM14.4938 7c-.275 0-.5-.225-.5-.5 0-.275.225-.5.5-.5l5 0c.275 0 .5.225.5.5 0 .275-.225.5-.5.5l-5 0zm5 1c.275 0 .5.225.5.5 0 .275-.225.5-.5.5l-5 0c-.275 0-.5-.225-.5-.5 0-.275.225-.5.5-.5l5 0zm0 2c.275 0 .5.225.5.5 0 .275-.225.5-.5.5l-5 0c-.275 0-.5-.225-.5-.5 0-.275.225-.5.5-.5l5 0z" fill="#000" fill-rule="evenodd"/></svg>