<svg width="26" height="26" viewBox="0 0 26 26" xmlns="http://www.w3.org/2000/svg"><title>meetings/participant-list-legacy-optical_26</title><path d="M2.9989 21.0073l.624-2.349c.416-1.565 1.913-2.658 3.64-2.658l7.474 0c1.727 0 3.224 1.093 3.64 2.658l.592 2.342-15.97.007zm3.001-11.007c0-2.757 2.243-5 5-5 2.757 0 5 2.243 5 5 0 2.757-2.243 5-5 5-2.757 0-5-2.243-5-5zm13.343 8.401l.624 2.349c.078.295.015.604-.172.848-.196.255-.498.402-.826.402l-15.938 0c-.328 0-.63-.147-.826-.402-.187-.244-.25-.553-.172-.848l.624-2.349c.531-2.002 2.426-3.401 4.606-3.401l.427 0c-1.619-1.076-2.69-2.914-2.69-5 0-3.309 2.691-6 6-6 3.309 0 6 2.691 6 6 0 2.086-1.071 3.924-2.69 5l.427 0c2.18 0 4.075 1.399 4.606 3.401zM25.4999 10c.276 0 .5.224.5.5 0 .276-.224.5-.5.5l-6 0c-.276 0-.5-.224-.5-.5 0-.276.224-.5.5-.5l6 0zm0 3c.276 0 .5.224.5.5 0 .276-.224.5-.5.5l-6 0c-.276 0-.5-.224-.5-.5 0-.276.224-.5.5-.5l6 0zm-6-5c-.276 0-.5-.224-.5-.5 0-.276.224-.5.5-.5l6 0c.276 0 .5.224.5.5 0 .276-.224.5-.5.5l-6 0z" fill="#000" fill-rule="evenodd"/></svg>