<svg width="16" height="16" viewBox="0 0 16 16" fill="none" xmlns="http://www.w3.org/2000/svg">
<path d="M12.5 9.99996V12.229L13.36 13.16C13.55 13.36 13.55 13.669 13.35 13.86C13.254 13.953 13.124 14 13 14C12.868 14 12.739 13.953 12.64 13.85L11.638 12.774C11.549 12.682 11.5 12.558 11.5 12.429V9.99996C11.5 9.72396 11.724 9.5 12 9.5C12.276 9.5 12.5 9.72396 12.5 9.99996Z" fill="#121212"/>
<path fill-rule="evenodd" clip-rule="evenodd" d="M0.969238 16H12C14.2091 16 16 14.2091 16 12C16 9.79086 14.2091 8 12 8L11.9979 8C12.627 7.16378 13.0002 6.12466 13.0002 5C13.0002 2.243 10.7572 0 8.00024 0C5.24324 0 3.00024 2.243 3.00024 5C3.00024 6.642 3.80624 8.088 5.03124 9H4.70324C2.74524 9 1.04924 10.405 0.578238 12.416L0.0272381 14.765C-0.0437619 15.072 0.0252381 15.39 0.220238 15.634C0.404238 15.866 0.678238 16 0.969238 16ZM1.00124 14.993L9.35227 14.9983C8.52295 14.2654 8 13.1938 8 12C8 11.2589 8.20156 10.5648 8.55286 9.96966C8.37137 9.98971 8.18698 10 8.00024 10H4.70324C3.21224 10 1.91624 11.087 1.55224 12.645L1.00124 14.993ZM12 15L11.9961 15C10.341 14.9979 9 13.6556 9 12C9 10.3431 10.3431 9 12 9C13.6569 9 15 10.3431 15 12C15 13.6569 13.6569 15 12 15ZM8 1C5.795 1 4 2.794 4 5C4 7.206 5.795 9 8 9C10.206 9 12 7.206 12 5C12 2.794 10.206 1 8 1Z" fill="#121212"/>
</svg>
