<svg width="16" height="16" viewBox="0 0 16 16" xmlns="http://www.w3.org/2000/svg"><title>meetings/pass-mouse_16</title><path d="M8.50200977 8.9983l0-2.95c1.414.24 2.496 1.467 2.496 2.95l-2.496 0zm2.496 3.001c0 1.654-1.344 3.001-2.995 3.001-1.651 0-2.995-1.347-2.995-3.001l0-2.001 5.99 0 0 2.001zm-3.494-5.951l0 2.95-2.496 0c0-1.483 1.082-2.71 2.496-2.95zm.499-1.051c2.202 0 3.99300003 1.795 3.99300003 4.001l0 3.001c0 2.206-1.79100003 4.001-3.99300003 4.001-2.202 0-3.993-1.795-3.993-4.001l0-3.001c0-2.206 1.791-4.001 3.993-4.001zM8 2.4973c1.733 0 3.362.677 4.588 1.904.195.196.195.512 0 .707-.098.098-.225.147-.353.147-.128 0-.256-.049-.353-.147-1.037-1.039-2.415-1.611-3.882-1.611-1.467 0-2.845.572-3.882 1.611-.195.196-.512.196-.706 0-.195-.195-.195-.511 0-.707C4.638 3.1743 6.267 2.4973 8 2.4973zm6.3535.1358c.195.195.195.512 0 .707-.098.098-.225.147-.353.147-.127 0-.255-.049-.353-.147-3.113-3.12-8.182-3.12-11.295 0-.195.195-.512.195-.706 0-.195-.195-.195-.512 0-.707 3.504-3.511 9.203-3.511 12.707 0z" fill="#000" fill-rule="evenodd"/></svg>