<svg width="16" height="16" viewBox="0 0 16 16" xmlns="http://www.w3.org/2000/svg"><title>video-controls/pause-circle_16</title><path d="M8 0c4.418 0 8 3.582 8 8 0 4.418-3.582 8-8 8-4.418 0-8-3.582-8-8 0-4.418 3.582-8 8-8zm0 15c3.86 0 7-3.14 7-7 0-3.86-3.14-7-7-7-3.86 0-7 3.14-7 7 0 3.86 3.14 7 7 7zM6.5 5c.275 0 .5.225.5.5l0 5c0 .275-.225.5-.5.5-.275 0-.5-.225-.5-.5l0-5c0-.275.225-.5.5-.5zm3 0c.275 0 .5.225.5.5l0 5c0 .275-.225.5-.5.5-.275 0-.5-.225-.5-.5l0-5c0-.275.225-.5.5-.5z" fill="#000" fill-rule="evenodd"/></svg>