<svg width="12" height="12" viewBox="0 0 12 12" xmlns="http://www.w3.org/2000/svg"><title>video-controls/pause-circle_12</title><path d="M6 11c2.757 0 5-2.243 5-5 0-2.757-2.243-5-5-5-2.757 0-5 2.243-5 5 0 2.757 2.243 5 5 5zM6 0c3.314 0 6 2.687 6 6 0 3.313-2.686 6-6 6-3.313 0-6-2.687-6-6 0-3.313 2.687-6 6-6zM5 4c.275 0 .5.225.5.5l0 3c0 .275-.225.5-.5.5-.275 0-.5-.225-.5-.5l0-3c0-.275.225-.5.5-.5zm2 0c.275 0 .5.225.5.5l0 3c0 .275-.225.5-.5.5-.275 0-.5-.225-.5-.5l0-3c0-.275.225-.5.5-.5z" fill-rule="evenodd"/></svg>