<svg width="24" height="24" viewBox="0 0 24 24" xmlns="http://www.w3.org/2000/svg"><title>video-controls/pause_24</title><path d="M10 18.5c0 .827-.673 1.5-1.5 1.5-.827 0-1.5-.673-1.5-1.5l0-13C7 4.673 7.673 4 8.5 4c.827 0 1.5.673 1.5 1.5l0 13zM8.5 3C9.875 3 11 4.125 11 5.5l0 13c0 1.375-1.125 2.5-2.5 2.5C7.125 21 6 19.875 6 18.5l0-13C6 4.125 7.125 3 8.5 3zm7 0C16.875 3 18 4.125 18 5.5l0 13c0 1.375-1.125 2.5-2.5 2.5-1.375 0-2.5-1.125-2.5-2.5l0-13C13 4.125 14.125 3 15.5 3zM17 18.5l0-13c0-.827-.673-1.5-1.5-1.5-.827 0-1.5.673-1.5 1.5l0 13c0 .827.673 1.5 1.5 1.5.827 0 1.5-.673 1.5-1.5z" fill-rule="evenodd"/></svg>