<svg width="124" height="124" viewBox="0 0 124 124" xmlns="http://www.w3.org/2000/svg"><title>video-controls/pause_124</title><path d="M54 101.5l0-79C54 16.159 48.841 11 42.5 11 36.159 11 31 16.159 31 22.5l0 79c0 6.341 5.159 11.5 11.5 11.5 6.341 0 11.5-5.159 11.5-11.5zM42.5 10C49.375 10 55 15.625 55 22.5l0 79c0 6.875-5.625 12.5-12.5 12.5-6.875 0-12.5-5.625-12.5-12.5l0-79C30 15.625 35.625 10 42.5 10zM93 101.5l0-79C93 16.159 87.841 11 81.5 11 75.159 11 70 16.159 70 22.5l0 79c0 6.341 5.159 11.5 11.5 11.5 6.341 0 11.5-5.159 11.5-11.5zM81.5 10C88.375 10 94 15.625 94 22.5l0 79c0 6.875-5.625 12.5-12.5 12.5-6.875 0-12.5-5.625-12.5-12.5l0-79C69 15.625 74.625 10 81.5 10z" fill-rule="evenodd"/></svg>