<svg width="18" height="18" viewBox="0 0 18 18" xmlns="http://www.w3.org/2000/svg"><title>video-controls/pause_18</title><path d="M6 2c-.552 0-1 .448-1 1l0 12c0 .552.448 1 1 1 .552 0 1-.448 1-1L7 3c0-.552-.448-1-1-1zm0 15c-1.103 0-2-.897-2-2L4 3c0-1.103.897-2 2-2 1.103 0 2 .897 2 2l0 12c0 1.103-.897 2-2 2zm6-15c-.552 0-1 .448-1 1l0 12c0 .552.448 1 1 1 .552 0 1-.448 1-1l0-12c0-.552-.448-1-1-1zm0 15c-1.103 0-2-.897-2-2l0-12c0-1.103.897-2 2-2 1.103 0 2 .897 2 2l0 12c0 1.103-.897 2-2 2z" fill-rule="evenodd"/></svg>