<svg width="10" height="10" viewBox="0 0 10 10" xmlns="http://www.w3.org/2000/svg"><title>video-controls/pause_10</title><path d="M7 0c.829 0 1.5.671 1.5 1.5l0 7c0 .829-.671 1.5-1.5 1.5-.828 0-1.5-.671-1.5-1.5l0-7C5.5.671 6.172 0 7 0zm.5 8.5l0-7c0-.276-.224-.5-.5-.5-.275 0-.5.224-.5.5l0 7c0 .276.225.5.5.5.276 0 .5-.224.5-.5zM3 0c.829 0 1.5.671 1.5 1.5l0 7c0 .829-.671 1.5-1.5 1.5-.828 0-1.5-.671-1.5-1.5l0-7C1.5.671 2.172 0 3 0zm.5 8.5l0-7c0-.276-.224-.5-.5-.5-.275 0-.5.224-.5.5l0 7c0 .276.225.5.5.5.276 0 .5-.224.5-.5z" fill-rule="evenodd"/></svg>