<svg width="12" height="12" viewBox="0 0 12 12" xmlns="http://www.w3.org/2000/svg"><title>video-controls/pause_12</title><path d="M4 2c-.276 0-.5.224-.5.5l0 7c0 .276.224.5.5.5.276 0 .5-.224.5-.5l0-7c0-.276-.224-.5-.5-.5m0 9c-.827 0-1.5-.673-1.5-1.5l0-7C2.5 1.673 3.173 1 4 1c.827 0 1.5.673 1.5 1.5l0 7c0 .827-.673 1.5-1.5 1.5zm4 0c-.827 0-1.5-.673-1.5-1.5l0-7C6.5 1.673 7.173 1 8 1c.827 0 1.5.673 1.5 1.5l0 7c0 .827-.673 1.5-1.5 1.5zm0-9c-.276 0-.5.224-.5.5l0 7c0 .276.224.5.5.5.276 0 .5-.224.5-.5l0-7c0-.276-.224-.5-.5-.5z" fill-rule="evenodd"/></svg>