<svg width="18" height="18" viewBox="0 0 18 18" xmlns="http://www.w3.org/2000/svg"><title>content/pen_18</title><path d="M16.446 4.226l-11.6 11.6-2.673-2.674 11.599-11.6c.737-.736 1.938-.736 2.674 0 .737.737.737 1.937 0 2.674zm-14.703 9.91l2.119 2.119-2.708.589.589-2.708zM17.153.845c-1.127-1.127-2.961-1.127-4.088 0L1.086 12.825c-.068.067-.115.153-.135.247l-.94 4.32c-.036.166.015.34.135.46.095.095.223.146.354.146.035 0 .071-.003.106-.011l4.32-.94c.094-.02.18-.067.248-.134l11.979-11.98c1.127-1.127 1.127-2.961 0-4.088z" fill-rule="evenodd"/></svg>