<svg width="20" height="20" viewBox="0 0 20 20" xmlns="http://www.w3.org/2000/svg"><title>activities/people_20</title><path d="M1.999730749 18.007l.623000001-2.348c.416-1.565 1.913-2.659 3.64-2.659l7.47399995 0c1.727 0 3.224 1.094 3.64 2.658l.592 2.342-15.968999951.007zM4.99973075 7c0-2.757 2.243-5 5-5 2.75699995 0 4.99999995 2.243 4.99999995 5 0 2.757-2.243 5-4.99999995 5-2.757 0-5-2.243-5-5zM18.9667307 17.751l-.623-2.349c-.533-2.003-2.427-3.402-4.607-3.402l-.427 0c1.619-1.075 2.69-2.914 2.69-5 0-3.308-2.691-6-5.99999995-6-3.309 0-6 2.692-6 6 0 2.086 1.071 3.925 2.69 5l-.427 0c-2.18 0-4.074 1.399-4.607000001 3.403l-.6229999999 2.347c-.078.295-.015.605.1719999999.848.196.256.497.402.826000001.402l15.93799995 0c.329 0 .63-.146.826-.402.187-.243.25-.553.172-.847z" fill-rule="evenodd"/></svg>