<svg width="28" height="28" viewBox="0 0 28 28" xmlns="http://www.w3.org/2000/svg"><title>activities/people_28</title><path d="M25.9501 25.8906c-.054.069-.138.109-.232.109l-23.436 0c-.094 0-.179-.04-.232-.109-.032-.041-.065-.108-.042-.196l.917-3.524c.639-2.456 2.934-4.171 5.58-4.171l10.99 0c2.646 0 4.94 1.715 5.58 4.171l.917 3.524c.023.088-.01.155-.042.196m-19.45-16.391c0-4.135 3.364-7.5 7.5-7.5 4.136 0 7.5 3.365 7.5 7.5 0 4.136-3.364 7.5-7.5 7.5-4.136 0-7.5-3.364-7.5-7.5m20.46 15.943l-.918-3.524c-.754-2.896-3.446-4.919-6.547-4.919l-1.504 0c2.68-1.431 4.509-4.255 4.509-7.5 0-4.686-3.813-8.5-8.5-8.5-4.687 0-8.5 3.814-8.5 8.5 0 3.245 1.829 6.069 4.509 7.5l-1.504 0c-3.101 0-5.794 2.023-6.548 4.919l-.917 3.524c-.096.369-.017.755.218 1.059.244.317.617.498 1.024.498l23.436 0c.406 0 .779-.181 1.024-.498.235-.304.314-.69.218-1.059" fill-rule="evenodd"/></svg>