<svg width="32" height="32" viewBox="0 0 32 32" xmlns="http://www.w3.org/2000/svg"><title>activities/people_32</title><path d="M2.4191 30c-.066 0-.127-.016-.184-.039-.128-.061-.218-.189-.218-.34 0-.039.006-.078.017-.113l-.001-.001.231-.837.825-2.987c.761-2.757 3.5-4.683 6.662-4.683l12.495 0c3.161 0 5.9 1.926 6.661 4.683l.825 2.987.231.837-.001.001c.011.035.017.074.017.113 0 .151-.09.279-.218.34-.057.023-.118.039-.184.039l-27.158 0zm4.583-19c0-4.962 4.035-8.998 8.996-9 4.961.002 8.997 4.038 8.997 9 0 4.962-4.036 8.998-8.997 9-4.961-.002-8.996-4.038-8.996-9zm23.95 18.332l-.54-1.958-.541-1.957c-.88-3.189-4.016-5.417-7.625-5.417l-1.914 0c3.348-1.618 5.67-5.039 5.67-9 0-5.514-4.487-10-10-10l-.004 0-.003 0c-5.514 0-10 4.486-10 10 0 3.961 2.321 7.382 5.67 9l-1.914 0c-3.61 0-6.746 2.228-7.626 5.417l-.54 1.957-.541 1.958c-.096.346-.033.706.159 1.01.021.033.036.069.06.1.266.35.698.558 1.156.558l27.158 0c.458 0 .89-.208 1.156-.558.048-.063.085-.132.121-.201.143-.282.183-.601.098-.909z" fill="#000" fill-rule="evenodd"/></svg>