<svg width="36" height="36" viewBox="0 0 36 36" xmlns="http://www.w3.org/2000/svg"><title>activities/people_36</title><path d="M33.8973187 33.794c-.101.131-.258.206-.429.206L2.53131871 34c-.171 0-.328-.075-.429-.206-.054-.07-.137-.216-.087-.412l1.211-4.698c.863-3.347 3.955-5.684 7.52-5.684l14.50699999 0c3.565 0 6.657 2.337 7.52 5.684l1.211 4.697c.05.197-.033.343-.087.413M8.00031871 12c0-5.515 4.48599999-10 9.99999999-10 5.513 0 10 4.485 10 10 0 5.514-4.487 10-10 10-5.514 0-9.99999999-4.486-9.99999999-10M34.9523187 33.132l-1.211-4.698c-.977-3.788-4.467-6.434-8.488-6.434l-2.698 0c3.796-1.737 6.445-5.561 6.445-10 0-6.066-4.935-11-11-11-6.066 0-10.99999999 4.934-10.99999999 11 0 4.439 2.648 8.263 6.44399999 10l-2.69799999 0c-4.021 0-7.511 2.646-8.488 6.434l-1.2110000001 4.698c-.115.445-.018.91.2650000001 1.275.292.376.736.593 1.219.593l30.93699999 0c.483 0 .927-.217 1.22-.593.282-.365.379-.83.264-1.275" fill-rule="evenodd"/></svg>