<svg width="24" height="24" viewBox="0 0 24 24" fill="none" xmlns="http://www.w3.org/2000/svg">
<path fill-rule="evenodd" clip-rule="evenodd" d="M21 8C22.6569 8 24 6.65685 24 5C24 3.34315 22.6569 2 21 2C19.3431 2 18 3.34315 18 5C18 5.98315 18.4729 6.85585 19.2037 7.403L16.0594 13.0628C15.8795 13.0217 15.6923 13 15.5 13C14.9693 13 14.4772 13.1654 14.0725 13.4474L11.7183 11.878C11.8996 11.4551 12 10.9893 12 10.5C12 8.567 10.433 7 8.5 7C6.567 7 5 8.567 5 10.5C5 11.573 5.48286 12.5333 6.24315 13.1753L3.9973 16.1698C3.68529 16.0598 3.34963 16 3 16C1.34315 16 0 17.3431 0 19C0 20.6569 1.34315 22 3 22C4.65685 22 6 20.6569 6 19C6 18.0544 5.56248 17.2109 4.87883 16.6611L7.09476 13.7065C7.52487 13.8952 8.0002 14 8.5 14C9.58477 14 10.5543 13.5065 11.1963 12.7318L13.3742 14.1837C13.137 14.566 13 15.017 13 15.5C13 16.8807 14.1193 18 15.5 18C16.8807 18 18 16.8807 18 15.5C18 14.6696 17.5951 13.9338 16.972 13.4791L20.0934 7.86059C20.3795 7.95115 20.684 8 21 8Z" fill="#121212"/>
</svg>
