<svg width="26" height="26" viewBox="0 0 26 26" xmlns="http://www.w3.org/2000/svg"><title>activities/people_26</title><path d="M23.9702 23.915c-.041.054-.111.085-.189.085l-21.562 0c-.078 0-.149-.031-.189-.085-.041-.054-.03-.098-.025-.113l.844-3.132c.582-2.161 2.677-3.67 5.095-3.67l10.111 0c2.418 0 4.514 1.509 5.096 3.67l.844 3.133c.004.014.016.058-.025.112M6.0002 9c0-3.859 3.14-7 7-7 3.86 0 7 3.141 7 7 0 3.859-3.14 7-7 7-3.86 0-7-3.141-7-7m18.961 14.542l-.844-3.132c-.7-2.597-3.193-4.41-6.062-4.41l-1.191 0c2.463-1.365 4.136-3.99 4.136-7 0-4.411-3.589-8-8-8-4.411 0-8 3.589-8 8 0 3.01 1.672 5.635 4.136 7l-1.192 0c-2.869 0-5.361 1.813-6.061 4.41l-.844 3.131c-.092.341-.02.699.197.982.228.298.596.477.983.477l21.562 0c.387 0 .754-.179.983-.477.217-.283.289-.641.197-.981" fill-rule="evenodd"/></svg>