<svg width="24" height="24" viewBox="0 0 24 24" fill="none" xmlns="http://www.w3.org/2000/svg">
<path d="M21 2C19.346 2 18 3.346 18 5C18 5.972 18.472 6.828 19.19 7.377L16.187 13.108C15.968 13.045 15.74 13 15.5 13C14.844 13 14.251 13.259 13.805 13.674L11.597 12.097C11.846 11.616 12 11.078 12 10.5C12 8.57 10.43 7 8.5 7C6.57 7 5 8.57 5 10.5C5 11.549 5.474 12.481 6.207 13.123L4.186 16.247C3.822 16.089 3.421 16 3 16C1.346 16 0 17.346 0 19C0 20.654 1.346 22 3 22C4.654 22 6 20.654 6 19C6 18.126 5.618 17.346 5.021 16.797L7.043 13.672C7.488 13.878 7.979 14 8.5 14C9.492 14 10.384 13.581 11.021 12.916L13.219 14.486C13.081 14.796 13 15.138 13 15.5C13 16.879 14.121 18 15.5 18C16.879 18 18 16.879 18 15.5C18 14.721 17.634 14.032 17.074 13.574L20.077 7.84C20.37 7.935 20.676 8 21 8C22.654 8 24 6.654 24 5C24 3.346 22.654 2 21 2ZM3 21C1.897 21 1 20.103 1 19C1 17.897 1.897 17 3 17C4.103 17 5 17.897 5 19C5 20.103 4.103 21 3 21ZM8.5 13C7.122 13 6 11.878 6 10.5C6 9.122 7.122 8 8.5 8C9.878 8 11 9.122 11 10.5C11 11.878 9.878 13 8.5 13ZM15.5 17C14.673 17 14 16.327 14 15.5C14 14.673 14.673 14 15.5 14C16.327 14 17 14.673 17 15.5C17 16.327 16.327 17 15.5 17ZM21 7C19.897 7 19 6.103 19 5C19 3.897 19.897 3 21 3C22.103 3 23 3.897 23 5C23 6.103 22.103 7 21 7Z" fill="black"/>
</svg>
