<svg width="8" height="8" viewBox="0 0 8 8" xmlns="http://www.w3.org/2000/svg"><title>activities/people_8</title><path d="M1.21828741 7c.351-.604 1.005-1 1.73-1l2.102 0c.725 0 1.38.396 1.731 1l-5.563 0zm2.781-6c1.103 0 1.999.897 1.999 1.999 0 1.102-.896 1.999-1.999 1.999-1.102 0-1.999-.897-1.999-1.999 0-1.102.897-1.999 1.999-1.999zm2.053 4.176c.58-.547.946-1.317.946-2.177 0-1.656-1.342-2.999-2.999-2.999-1.656 0-2.999 1.343-2.999 2.999 0 .86.367 1.63.946 2.177C.970287407 5.525.222287407 6.365.010287407 7.397c-.064.31.179.603.496.603L7.49328741 8c.317 0 .56-.293.496-.603-.213-1.032-.96-1.872-1.937-2.221z" fill="#000" fill-rule="evenodd"/></svg>