<?xml version="1.0" encoding="UTF-8"?>
<svg width="16px" height="16px" viewBox="0 0 16 16" version="1.1" xmlns="http://www.w3.org/2000/svg" xmlns:xlink="http://www.w3.org/1999/xlink">
    <!-- Generator: Sketch 57.1 (83088) - https://sketch.com -->
    <title>phone-reply_16</title>
    <desc>Created with Sketch.</desc>
    <g id="New-Icon" stroke="none" stroke-width="1" fill="none" fill-rule="evenodd">
        <g id="phone-reply_16" fill="#171B1F">
            <g transform="translate(0.000000, 2.000000)" id="fill">
                <path d="M9.9736,5.5025 L1.6906,5.5025 L6.3186,0.8525 C6.5136,0.6565 6.5126,0.3395 6.3166,0.1455 C6.1216,-0.0495 5.8046,-0.0485 5.6096,0.1475 L0.1456,5.6375 C0.0466,5.7365 -0.0004,5.8665 0.0006,5.9965 C0.0006,5.9985 -0.0004,6.0005 -0.0004,6.0025 C-0.0004,6.1565 0.0736,6.2895 0.1826,6.3805 L5.6476,11.8385 C5.7456,11.9355 5.8736,11.9845 6.0016,11.9845 C6.1296,11.9845 6.2576,11.9355 6.3556,11.8375 C6.5506,11.6425 6.5506,11.3255 6.3546,11.1305 L1.7206,6.5025 L9.9736,6.5025 C12.7446,6.5025 14.9996,8.7445 14.9996,11.4995 C14.9996,11.7755 15.2236,11.9995 15.4996,11.9995 C15.7766,11.9995 15.9996,11.7755 15.9996,11.4995 C15.9996,8.1925 13.2966,5.5025 9.9736,5.5025"></path>
            </g>
        </g>
    </g>
</svg>