<svg width="12" height="12" viewBox="0 0 12 12" xmlns="http://www.w3.org/2000/svg"><title>hardware/phone-ios-muted_12</title><path d="M9 9L3.707 9 9 3.707 9 9zm0 1.5c0 .276-.224.5-.5.5l-5 0c-.276 0-.5-.224-.5-.5l0-.5 6 0 0 .5zm-6-9c0-.276.224-.5.5-.5l5 0c.276 0 .5.224.5.5l0 .793-6 6L3 1.5zM11.854.146c-.196-.195-.512-.195-.708 0L9.981 1.312C9.888.573 9.264 0 8.5 0l-5 0C2.671 0 2 .671 2 1.5l0 7.793-1.854 1.853c-.195.196-.195.512 0 .708.098.097.226.146.354.146.128 0 .256-.049.354-.146l1.165-1.166C2.112 11.427 2.736 12 3.5 12l5 0c.829 0 1.5-.671 1.5-1.5l0-7.793L11.854.854c.195-.196.195-.512 0-.708z" fill-rule="evenodd"/></svg>