<svg width="16" height="12" viewBox="0 0 16 12" xmlns="http://www.w3.org/2000/svg"><title>hardware/phone-iph-muted-alert_12</title><path d="M15.8414 10.3308c.205.341.211.752.017 1.1-.198.351-.572.569-.978.569l-5.514 0-5.866 0c-.765 0-1.389-.573-1.481-1.312l-1.165 1.166c-.099.097-.226.146-.354.146-.128 0-.256-.049-.354-.146-.098-.097-.146-.225-.146-.353l0-.002c0-.128.048-.255.146-.353l1.854-1.853 0-7.793c0-.829.671-1.5 1.5-1.5l5 0c.764 0 1.388.573 1.481 1.312l1.165-1.166c.097-.097.225-.145.352-.146l.003 0c.128.001.255.049.353.146.097.098.145.225.146.353l0 .002c-.001.128-.049.256-.146.353l-1.854 1.853 0 4.541 1.038-1.738c.204-.34.583-.51.962-.51.378 0 .757.17.961.509l0 .001 2.88 4.821zm-.941.669c.077 0 .124-.084.085-.149l-2.863-4.781c-.057-.094-.194-.094-.25 0l-2.858 4.781c-.04.066.008.149.085.149l5.801 0zm-2.9004-4c.275 0 .5.225.5.5l0 1c0 .275-.225.5-.5.5-.275 0-.5-.225-.5-.5l0-1c0-.275.225-.5.5-.5zm0 2.5c.276 0 .5.224.5.5 0 .276-.224.5-.5.5-.276 0-.5-.224-.5-.5 0-.276.224-.5.5-.5zm-8.9996 1c0 .276.224.5.5.5l4.514 0c-.023-.229.019-.462.145-.67l.197-.33-5.356 0 0 .5zm0-9l0 6.793 6-6 0-.793c0-.276-.225-.5-.5-.5l-5 0c-.276 0-.5.224-.5.5zm5.953 7.5l.047-.078 0-5.215-5.293 5.293 5.246 0z" fill="#000" fill-rule="evenodd"/></svg>