<svg width="16" height="12" viewBox="0 0 16 12" xmlns="http://www.w3.org/2000/svg"><title>hardware/phone-iph-alert_12</title><path d="M15.8415 10.3309c.205.341.211.752.017 1.1-.198.351-.572.569-.978.569l-5.599 0-.162 0-5.619 0c-.826 0-1.5-.675-1.5-1.5l0-9c0-.825.674-1.5 1.5-1.5l5 0c.824 0 1.5.675 1.5 1.5l0 5.748 1.038-1.738c.204-.34.583-.51.962-.51.378 0 .756.17.96.509 0 0 .001 0 .001.001l2.88 4.821zm-.941.669c.077 0 .124-.083.085-.149l-2.863-4.781c-.057-.094-.194-.094-.25 0l-2.858 4.781c-.04.066.008.149.084.149l5.802 0zm-2.9004-4c.275 0 .5.225.5.5l0 1c0 .275-.225.5-.5.5-.275 0-.5-.225-.5-.5l0-1c0-.275.225-.5.5-.5zm0 2.5c.276 0 .5.224.5.5 0 .276-.224.5-.5.5-.276 0-.5-.224-.5-.5 0-.276.224-.5.5-.5zm-8.9996 1c0 .271.229.5.5.5l4.514 0c-.023-.229.019-.462.144-.67l.198-.33-5.356 0 0 .5zm0-9l0 7.5 5.953 0 .047-.078 0-7.422c0-.271-.229-.5-.5-.5l-5 0c-.271 0-.5.229-.5.5z" fill="#000" fill-rule="evenodd"/></svg>