<?xml version="1.0" encoding="UTF-8"?>
<svg width="16px" height="16px" viewBox="0 0 16 16" version="1.1" xmlns="http://www.w3.org/2000/svg" xmlns:xlink="http://www.w3.org/1999/xlink">
    <!-- Generator: Sketch 55.2 (78181) - https://sketchapp.com -->
    <title>phone-reply_16</title>
    <desc>Created with Sketch.</desc>
    <g id="Icons-Webex" stroke="none" stroke-width="1" fill="none" fill-rule="evenodd">
        <g id="phone/phone-reply_16" fill="#000000">
            <g transform="translate(0.000000, 1.000000)" id="fill">
                <path d="M9.7246,6.5 L1.7076,6.5 L6.6306,1.577 C6.8256,1.382 6.8256,1.065 6.6306,0.87 C6.4346,0.675 6.1186,0.675 5.9236,0.87 L0.1466,6.646 C-0.0484,6.842 -0.0484,7.158 0.1466,7.354 L5.9236,13.13 C6.0206,13.228 6.1486,13.276 6.2766,13.276 C6.4046,13.276 6.5326,13.228 6.6306,13.13 C6.8256,12.935 6.8256,12.618 6.6306,12.423 L1.7076,7.5 L9.7246,7.5 C12.6336,7.5 15.0006,9.867 15.0006,12.776 C15.0006,13.053 15.2246,13.276 15.5006,13.276 C15.7766,13.276 16.0006,13.053 16.0006,12.776 C16.0006,9.315 13.1846,6.5 9.7246,6.5"></path>
            </g>
        </g>
    </g>
</svg>