<svg width="16" height="16" viewBox="0 0 16 16" xmlns="http://www.w3.org/2000/svg"><title>format/picker_16</title><path d="M4.8535 5.3535c-.195.195-.512.195-.707 0-.195-.195-.195-.512 0-.707l3.5-3.5c.195-.195.512-.195.707 0l3.5 3.5c.195.195.195.512 0 .707-.098.098-.226.146-.354.146-.127 0-.255-.048-.353-.146l-3.147-3.146-3.146 3.146zm6.293 5.293c.195-.195.512-.195.707 0 .195.195.195.512 0 .707l-3.5 3.5c-.098.098-.226.147-.353.147-.128 0-.256-.049-.354-.147l-3.5-3.5c-.195-.195-.195-.512 0-.707.195-.195.512-.195.707 0l3.147 3.146 3.146-3.146z" fill="#000" fill-rule="evenodd"/></svg>