<svg width="24" height="24" viewBox="0 0 24 24" xmlns="http://www.w3.org/2000/svg"><title>format/picture-in-picture_24</title><path d="M23 18.5c0 .827-.673 1.5-1.5 1.5l-19 0c-.827 0-1.5-.673-1.5-1.5l0-13C1 4.673 1.673 4 2.5 4l19 0c.827 0 1.5.673 1.5 1.5l0 13zM21.5 3C22.878 3 24 4.121 24 5.5l0 13c0 1.379-1.122 2.5-2.5 2.5l-19 0C1.122 21 0 19.879 0 18.5l0-13C0 4.121 1.122 3 2.5 3l19 0zM20 16.5859c0 .228-.186.414-.414.414l-5.172 0c-.228 0-.414-.186-.414-.414l0-3.172c0-.228.186-.414.414-.414l5.172 0c.228 0 .414.186.414.414l0 3.172zm-.414-4.586l-5.172 0c-.781 0-1.414.633-1.414 1.414l0 3.172c0 .781.633 1.414 1.414 1.414l5.172 0c.781 0 1.414-.633 1.414-1.414l0-3.172c0-.781-.633-1.414-1.414-1.414z" fill="#000" fill-rule="evenodd"/></svg>