<svg width="20" height="20" viewBox="0 0 20 20" fill="none" xmlns="http://www.w3.org/2000/svg">
<path fill-rule="evenodd" clip-rule="evenodd" d="M20 10C20 15.5228 15.5228 20 10 20C4.47715 20 0 15.5228 0 10C0 4.47715 4.47715 0 10 0C15.5228 0 20 4.47715 20 10ZM9.12425 11.1473C8.85825 12.0402 9.02525 12.9932 9.55425 13.7382L13.7382 9.55425C12.9943 9.02425 12.0402 8.85925 11.1473 9.12325C10.9733 9.17625 10.7823 9.12725 10.6523 8.99725L8.18025 6.52625L6.52725 8.18025L8.99825 10.6512C9.12825 10.7812 9.17625 10.9712 9.12425 11.1473ZM12.7073 12.0002L14.8532 14.1462C15.0492 14.3422 15.0492 14.6582 14.8532 14.8532C14.7562 14.9512 14.6283 15.0002 14.5002 15.0002C14.3722 15.0002 14.2442 14.9512 14.1462 14.8532L12.0002 12.7073L9.87825 14.8282C9.78125 14.9253 9.65325 14.9742 9.52525 14.9742C9.39725 14.9742 9.26925 14.9253 9.17125 14.8282C8.20525 13.8623 7.80425 12.4783 8.08925 11.1553L5.81325 8.88025C5.72125 8.95525 5.61225 9.00025 5.50025 9.00025C5.37225 9.00025 5.24425 8.95125 5.14625 8.85325C4.95125 8.65825 4.95125 8.34225 5.14625 8.14625L8.14625 5.14625C8.34225 4.95125 8.65825 4.95125 8.85325 5.14625C9.03625 5.32925 9.04125 5.61625 8.88125 5.81225L11.1582 8.08925C12.4792 7.80525 13.8623 8.20525 14.8282 9.17125C15.0232 9.36625 15.0232 9.68325 14.8282 9.87825L12.7073 12.0002Z" fill="#121212"/>
</svg>
