<svg width="16" height="16" xmlns="http://www.w3.org/2000/svg"><path d="M10.171.146a.5.5 0 10-.707.709l.353.354L6.11 4.922C5.201 4.791 2.274 4.55.308 6.521A1.049 1.049 0 000 7.255c0 .265.103.514.29.701l3.517 3.523-3.646 3.652a.502.502 0 00.354.855.498.498 0 00.353-.147l3.646-3.652 3.517 3.523c.187.187.435.29.699.29.272 0 .539-.112.734-.309a5.217 5.217 0 001.014-1.444.5.5 0 10-.901-.434 4.263 4.263 0 01-.82 1.171L.997 7.248C2.939 5.301 6.148 5.941 6.18 5.949a.493.493 0 00.455-.136l3.889-3.896 3.536 3.541-1.19 1.193a.5.5 0 10.707.708l1.19-1.192.353.354a.5.5 0 00.708 0 .502.502 0 000-.708zm5.33 11.874h-7a.5.5 0 00-.09.993l.09.008h7a.5.5 0 00.09-.992l-.09-.008h-7zm-7-2.003a.5.5 0 00-.09.993l.09.008h7a.5.5 0 00.09-.993l-.09-.008h-7zm0-2.003a.5.5 0 00-.09.993l.09.008h7a.5.5 0 00.09-.993l-.09-.008h-7z" fill="#171B1F" fill-rule="evenodd"/></svg>