<svg width="24" height="24" viewBox="0 0 24 24" xmlns="http://www.w3.org/2000/svg"><title>meetings/pin_24</title><path d="M10.7852 22.9385c-.055.055-.127.059-.158.062-.068-.003-.132-.036-.178-.089-1.779-2.11-2.459-4.877-1.864-7.592.036-.167-.015-.341-.135-.461l-6.488-6.488 6.408-6.409 6.488 6.489c.12.12.29.171.461.134 2.714-.593 5.483.085 7.592 1.865.054.046.086.11.089.177.002.042-.008.105-.063.16l-12.152 12.152zm13.067.207l-5.94-5.92 5.731-5.731c.244-.243.37-.566.356-.909-.015-.346-.176-.674-.443-.9-2.246-1.894-5.285-2.679-8.181-2.133l-6.298-6.298.401-.401c.196-.195.196-.512 0-.707-.195-.195-.511-.195-.707 0l-8.625 8.625c-.195.195-.195.512 0 .707.098.098.226.147.354.147.128 0 .256-.049.353-.147l.402-.401 6.298 6.298c-.549 2.897.239 5.936 2.132 8.18.226.268.554.429.901.444.017.001.034.001.052.001.324 0 .626-.125.855-.356l5.712-5.712 5.942 5.922c.098.097.225.146.353.146.128 0 .257-.049.354-.148.195-.195.195-.512-.002-.707z" fill="#000" fill-rule="evenodd"/></svg>