<svg width="12" height="12" viewBox="0 0 12 12" xmlns="http://www.w3.org/2000/svg"><title>video-controls/play-circle_12</title><path d="M6 11c2.757 0 5-2.243 5-5 0-2.757-2.243-5-5-5-2.757 0-5 2.243-5 5 0 2.757 2.243 5 5 5zM6 0c3.314 0 6 2.687 6 6 0 3.313-2.686 6-6 6-3.313 0-6-2.687-6-6 0-3.313 2.687-6 6-6zm-.9976 6.9009l1.772-.905-1.772-.905 0 1.81zm2.544-1.634c.279.138.456.418.456.728 0 .311-.176.591-.461.732l-2.303 1.176c-.126.062-.259.093-.392.093-.158 0-.315-.044-.454-.13-.244-.152-.39-.41-.39-.692l0-2.356c0-.282.146-.541.39-.692.256-.16.57-.174.841-.04l2.313 1.181z" fill-rule="evenodd"/></svg>