<svg width="28" height="28" viewBox="0 0 28 28" xmlns="http://www.w3.org/2000/svg"><title>video-controls/play_28</title><path d="M5.9233 3.0009c-.333 0-.667.09-.969.269-.597.356-.954.99-.954 1.697l0 18.066c0 .706.357 1.341.954 1.697.579.343 1.277.357 1.87.037l16.149-9.03c.645-.35 1.027-.998 1.027-1.737 0-.739-.382-1.388-1.021-1.734l-16.161-9.036c-.281-.153-.588-.229-.895-.229m-.003 22.998c-.51 0-1.018-.137-1.477-.41-.904-.538-1.443-1.494-1.443-2.556l0-18.066c0-1.063.539-2.018 1.443-2.556.885-.527 1.953-.548 2.857-.057l16.161 9.036c.961.521 1.539 1.498 1.539 2.61 0 1.112-.578 2.088-1.545 2.613l-16.149 9.03c-.438.238-.913.356-1.386.356" fill="#000" fill-rule="evenodd"/></svg>