<svg width="28" height="28" viewBox="0 0 28 28" xmlns="http://www.w3.org/2000/svg"><title>video-controls/play-circle_28</title><path d="M14 0c7.732 0 14 6.268 14 14 0 7.732-6.268 14-14 14-7.732 0-14-6.268-14-14C0 6.268 6.268 0 14 0zm0 27c7.168 0 13-5.832 13-13 0-7.168-5.832-13-13-13C6.832 1 1 6.832 1 14c0 7.168 5.832 13 13 13zm6.0515-14.5671c.59.314.949.913.949 1.567 0 .654-.359 1.253-.937 1.562l-8.474 4.234c-.256.137-.537.205-.818.205-.314 0-.629-.085-.913-.255-.537-.322-.858-.889-.858-1.516l0-8.459c0-.627.321-1.195.858-1.517.538-.321 1.19-.339 1.743-.044l8.45 4.223zm-.447 2.24c.243-.13.396-.384.396-.673 0-.289-.153-.543-.408-.679l-8.45-4.222c-.123-.066-.251-.099-.378-.099-.135 0-.268.038-.391.111-.237.143-.373.383-.373.66l0 8.459c0 .276.136.516.373.659.238.142.514.15.757.018l8.474-4.234z" fill="#000" fill-rule="evenodd"/></svg>