<svg width="24" height="24" viewBox="0 0 24 24" xmlns="http://www.w3.org/2000/svg"><title>hardware/plug-ac_24</title><path d="M12.0001 18c-4.411 0-7.999-3.588-8-7.998l0-2.002c0-.552.448-1 1-1l14 0c.551 0 1 .448 1 1l0 2c0 4.411-3.589 8-8 8zm9-10c0-1.104-.896-2-2-2l-2 0 0-4.5c0-.276-.224-.5-.5-.5-.276 0-.5.224-.5.5l0 4.5-8 0 0-4.5c0-.276-.224-.5-.5-.5-.276 0-.5.224-.5.5l0 4.5-2 0c-1.104 0-2 .896-2 2l0 2c0 4.803 3.766 8.716 8.504 8.975l-.004 0 0 3.525c0 .276.224.5.5.5.276 0 .5-.224.5-.5l0-3.525-.004 0c4.738-.259 8.504-4.171 8.504-8.975l0-2z" fill="#000" fill-rule="evenodd"/></svg>