<svg width="24" height="24" viewBox="0 0 24 24" xmlns="http://www.w3.org/2000/svg"><title>hardware/plug-ac_24</title><path d="M20 10.5c0 4.136-3.365 7.5-7.5 7.5C8.364 18 5 14.636 5 10.5L5 8c0-.552.448-1 1-1l13 0c.551 0 1 .448 1 1l0 2.5zM19 6l-2 0 0-4.5c0-.276-.224-.5-.5-.5-.276 0-.5.224-.5.5L16 6 9 6l0-4.5c0-.276-.224-.5-.5-.5-.276 0-.5.224-.5.5L8 6 6 6c-1.104 0-2 .896-2 2l0 2.5c0 4.525 3.54 8.215 8 8.475l0 3.525c0 .276.224.5.5.5.276 0 .5-.224.5-.5l0-3.525c4.46-.26 8-3.95 8-8.475L21 8c0-1.104-.896-2-2-2z" fill="#000" fill-rule="evenodd"/></svg>