<?xml version="1.0" encoding="UTF-8"?>
<svg width="20px" height="20px" viewBox="0 0 20 20" version="1.1" xmlns="http://www.w3.org/2000/svg" xmlns:xlink="http://www.w3.org/1999/xlink">
    <!-- Generator: Sketch 61.1 (89650) - https://sketch.com -->
    <title>common-actions/plus-circle-active_20</title>
    <desc>Created with Sketch.</desc>
    <g id="common-actions/plus-circle-active_20" stroke="none" stroke-width="1" fill="none" fill-rule="evenodd">
        <path d="M17.071,2.929 C15.182,1.04 12.671,0 10,0 C7.329,0 4.818,1.04 2.929,2.929 C1.04,4.818 0,7.329 0,10 C0,12.671 1.04,15.182 2.929,17.071 C4.818,18.96 7.329,20 10,20 C12.671,20 15.182,18.96 17.071,17.071 C18.96,15.182 20,12.671 20,10 C20,7.329 18.96,4.818 17.071,2.929 M14.742,10.5 L10.5,10.5 L10.5,14.742 C10.5,15.018 10.277,15.242 10,15.242 C9.724,15.242 9.5,15.018 9.5,14.742 L9.5,10.5 L5.259,10.5 C4.982,10.5 4.759,10.276 4.759,10 C4.759,9.724 4.982,9.5 5.259,9.5 L9.5,9.5 L9.5,5.258 C9.5,4.982 9.724,4.758 10,4.758 C10.277,4.758 10.5,4.982 10.5,5.258 L10.5,9.5 L14.742,9.5 C15.018,9.5 15.242,9.724 15.242,10 C15.242,10.276 15.018,10.5 14.742,10.5" id="fill" fill="#171B1F"></path>
    </g>
</svg>