<svg width="28" height="28" viewBox="0 0 28 28" xmlns="http://www.w3.org/2000/svg"><title>common-actions/plus_28</title><path d="M13.5 13.5l0-10.998725891C13.5 2.224428063 13.7319336 2 14 2c.2761424 0 .5.222265363.5.501274109L14.5 13.5l10.9987259 0C25.7755719 13.5 26 13.7319336 26 14c0 .2761424-.2222654.5-.5012741.5L14.5 14.5l0 10.9987259C14.5 25.7755719 14.2680664 26 14 26c-.2761424 0-.5-.2222654-.5-.5012741L13.5 14.5l-10.998725891 0C2.224428063 14.5 2 14.2680664 2 14c0-.2761424.222265363-.5.501274109-.5L13.5 13.5z" fill="#000" fill-rule="evenodd"/></svg>