<svg width="28" height="28" viewBox="0 0 28 28" xmlns="http://www.w3.org/2000/svg"><title>common-actions/plus_28</title><path d="M14 14L2.499384478 14C2.216126442 14 2 14.2238576 2 14.5c0 .2680664.223582046.5.499384478.5L14 15l0 11.5006155C14 26.7838736 14.2238576 27 14.5 27c.2680664 0 .5-.223582.5-.4993845L15 15l11.5006155 0C26.7838736 15 27 14.7761424 27 14.5c0-.2680664-.223582-.5-.4993845-.5L15 14l0-11.500615522C15 2.216126442 14.7761424 2 14.5 2c-.2680664 0-.5.223582046-.5.499384478L14 14z" fill="#000" fill-rule="evenodd"/></svg>