<svg width="10" height="10" viewBox="0 0 10 10" xmlns="http://www.w3.org/2000/svg"><title>meetings/pmr-legacy_10</title><path d="M8.656.00027c.741 0 1.344.603 1.344 1.343l0 7.31c0 .741-.603 1.344-1.344 1.344l-7.312 0c-.741 0-1.344-.603-1.344-1.344l0-7.31c0-.74.603-1.343 1.344-1.343l7.312 0zM9 8.65327l0-7.31c0-.186-.157-.343-.344-.343l-7.312 0c-.19 0-.344.154-.344.343l0 7.31c0 .187.157.344.344.344l7.312 0c.19 0 .344-.155.344-.344zm-1.2011-2.2602l.183.783c.047.204.001.412-.128.574-.125.157-.311.247-.51.247l-4.688 0c-.199 0-.386-.091-.511-.249-.128-.162-.174-.371-.127-.573l.184-.782c.145-.621.579-1.098 1.131-1.295-.209-.316-.333-.694-.333-1.101 0-1.103.897-2 2-2 1.103 0 2 .897 2 2 0 .407-.123.785-.333 1.101.552.197.986.674 1.132 1.295zm-4.712.604l3.826 0-.088-.376c-.086-.367-.384-.624-.726-.624l-2.198 0c-.341 0-.64.257-.726.624l-.088.376zm1.913-4c-.551 0-1 .449-1 1 0 .551.449 1 1 1 .551 0 1-.449 1-1 0-.551-.449-1-1-1z" fill-rule="evenodd"/></svg>