<svg width="18" height="18" viewBox="0 0 18 18" xmlns="http://www.w3.org/2000/svg"><title>meetings/pmr-legacy_18</title><path d="M15.0943 16.995l-12.188 0c-1.051 0-1.906-.855-1.906-1.906l0-12.183c0-1.051.855-1.906 1.906-1.906l12.188 0c1.05 0 1.906.855 1.906 1.906l0 12.183c0 1.051-.856 1.906-1.906 1.906zM2.9063 2c-.5 0-.906.406-.906.906l0 12.183c0 .5.406.906.906.906l12.188 0c.5 0 .906-.406.906-.906l0-12.183c0-.5-.406-.906-.906-.906L2.9063 2zm11.0702 11.029c.059.237.006.481-.143.671-.149.191-.373.3-.615.3l-8.437 0c-.242 0-.466-.109-.616-.3-.148-.19-.201-.434-.143-.67l.331-1.323c.278-1.106 1.201-1.906 2.308-2.052-.601-.599-.974-1.428-.974-2.342C5.6875 5.486 7.1735 4 8.9995 4c1.827 0 3.313 1.486 3.313 3.313 0 .914-.372 1.743-.973 2.342 1.107.146 2.03.946 2.306 2.053l.331 1.321zM5.0615 13l7.877 0-.262-1.049c-.196-.781-.894-1.326-1.698-1.326l-3.957 0c-.804 0-1.502.545-1.698 1.325L5.0615 13zm3.938-8c-1.274 0-2.312 1.037-2.312 2.313 0 1.275 1.038 2.312 2.312 2.312 1.275 0 2.313-1.037 2.313-2.312 0-1.276-1.038-2.313-2.313-2.313z" fill-rule="evenodd"/></svg>