<svg width="16" height="16" viewBox="0 0 16 16" xmlns="http://www.w3.org/2000/svg"><title>meetings/pmr_16</title><path d="M13.811 2.766C14.5 3.134 15 3.969 15 4.751l0 9.5c0 .965-.785 1.75-1.75 1.75l-10.5 0c-.965 0-1.75-.785-1.75-1.75l0-9.5c0-.782.5-1.617 1.19-1.985L6.867.264C7.275.046 7.708 0 8 0c.292 0 .725.046 1.133.264l4.678 2.502zM14 14.251l0-9.5c0-.413-.298-.909-.661-1.104L8.661 1.146C8.479 1.049 8.24 1 8 1c-.24 0-.479.049-.661.146L2.661 3.647C2.298 3.842 2 4.338 2 4.751l0 9.5c0 .413.337.75.75.75l10.5 0c.412 0 .75-.337.75-.75zm-2.2918-3.6727l.257.984c.055.212.009.434-.123.608-.139.177-.347.279-.573.279l-6.562 0c-.227 0-.435-.102-.571-.279-.135-.174-.18-.396-.125-.608l.256-.983c.21-.804.867-1.399 1.673-1.579-.428-.485-.696-1.113-.696-1.808 0-1.513 1.231-2.743 2.744-2.743 1.513 0 2.743 1.23 2.743 2.743 0 .695-.267 1.323-.695 1.808.806.18 1.462.775 1.672 1.578zm-6.634.871l5.828 0-.162-.618c-.138-.527-.637-.895-1.214-.895l-3.077 0c-.577 0-1.076.368-1.214.896l-.161.617zm2.914-6c-.962 0-1.744.782-1.744 1.743 0 .962.782 1.744 1.744 1.744.961 0 1.743-.782 1.743-1.744 0-.961-.782-1.743-1.743-1.743z" fill-rule="evenodd"/></svg>