<svg width="20" height="20" viewBox="0 0 20 20" xmlns="http://www.w3.org/2000/svg"><title>meetings/pmr_20</title><path d="M17.424 2.723C18.381 3.104 19 4.016 19 5.046L19 17.5c0 1.379-1.121 2.5-2.5 2.5l-13 0C2.121 20 1 18.879 1 17.5L1 5.046c0-1.03.619-1.942 1.576-2.323L8.892.212C9.246.071 9.619 0 10 0c.381 0 .754.071 1.108.212l6.316 2.511zM18 17.5l0-12.454c0-.614-.375-1.167-.946-1.394l-6.315-2.51C10.502 1.047 10.251 1 10 1c-.251 0-.502.047-.739.142l-6.315 2.51C2.375 3.879 2 4.432 2 5.046L2 17.5c0 .829.672 1.5 1.5 1.5l13 0c.828 0 1.5-.671 1.5-1.5zm-2.8901-4.1155l.367 1.567c.06.254.003.516-.159.719-.155.197-.384.309-.63.309l-9.375 0c-.247 0-.476-.112-.631-.309-.161-.203-.219-.465-.159-.72l.368-1.566c.312-1.34 1.404-2.286 2.691-2.385-.664-.638-1.082-1.529-1.082-2.52 0-1.93 1.57-3.5 3.5-3.5 1.93 0 3.5 1.57 3.5 3.5 0 .991-.418 1.882-1.082 2.52 1.287.099 2.379 1.045 2.692 2.385zm-9.566 1.595l8.912 0-.319-1.366c-.226-.962-1.023-1.634-1.939-1.634l-4.396 0c-.916 0-1.713.672-1.938 1.634l-.32 1.366zm1.956-6.5c0 1.378 1.121 2.5 2.5 2.5 1.379 0 2.5-1.122 2.5-2.5 0-1.378-1.121-2.5-2.5-2.5-1.379 0-2.5 1.122-2.5 2.5z" fill-rule="evenodd"/></svg>