<svg width="24" height="24" viewBox="0 0 24 24" xmlns="http://www.w3.org/2000/svg"><title>meetings/pmr_24</title><path d="M20.396 4.5C21.37 4.947 22 5.928 22 7l0 13.5c0 1.379-1.121 2.5-2.5 2.5l-15 0C3.121 23 2 21.879 2 20.5L2 7c0-1.072.63-2.053 1.611-2.503l7.243-3.247C11.216 1.084 11.602 1 12 1c.398 0 .784.084 1.139.247L20.396 4.5zm.604 16L21 7c0-.684-.398-1.306-1.021-1.591l-7.25-3.25C12.498 2.053 12.249 2 12 2c-.249 0-.498.053-.729.159l-7.25 3.25C3.398 5.694 3 6.316 3 7l0 13.5c0 .825.675 1.5 1.5 1.5l15 0c.825 0 1.5-.675 1.5-1.5zm-3.4302-4.105l.404 1.566c.064.248.011.507-.147.711-.161.209-.405.328-.671.328l-10.312 0c-.266 0-.51-.119-.671-.328-.157-.204-.211-.463-.145-.712l.402-1.565c.348-1.352 1.556-2.303 2.971-2.38-.851-.734-1.401-1.806-1.401-3.015 0-2.206 1.794-4 4-4 2.206 0 4 1.794 4 4 0 1.209-.55 2.281-1.4 3.015 1.415.077 2.622 1.028 2.97 2.38zM7.0488 18l9.902 0-.349-1.355c-.249-.969-1.148-1.645-2.184-1.645l-4.836 0c-1.036 0-1.934.676-2.183 1.645L7.0488 18zm1.951-7c0 1.654 1.346 3 3 3 1.654 0 3-1.346 3-3 0-1.654-1.346-3-3-3-1.654 0-3 1.346-3 3z" fill-rule="evenodd"/></svg>