<svg width="36" height="36" viewBox="0 0 36 36" xmlns="http://www.w3.org/2000/svg"><title>meetings/poll_36</title><path d="M7.5002 9.9999l-4 0c-1.381 0-2.5 1.119-2.5 2.5l0 18c0 1.381 1.119 2.5 2.5 2.5l4 0c1.38 0 2.5-1.119 2.5-2.5l0-18c0-1.381-1.12-2.5-2.5-2.5m0 1c.827 0 1.5.673 1.5 1.5l0 18c0 .827-.673 1.5-1.5 1.5l-4 0c-.827 0-1.5-.673-1.5-1.5l0-18c0-.827.673-1.5 1.5-1.5l4 0zm12.5 7c1.38 0 2.5 1.119 2.5 2.5l0 10c0 1.381-1.12 2.5-2.5 2.5l-4 0c-1.381 0-2.5-1.119-2.5-2.5l0-10c0-1.381 1.119-2.5 2.5-2.5l4 0zm0 1l-4 0c-.827 0-1.5.673-1.5 1.5l0 10c0 .827.673 1.5 1.5 1.5l4 0c.827 0 1.5-.673 1.5-1.5l0-10c0-.827-.673-1.5-1.5-1.5zm12.5-16c1.38 0 2.5 1.119 2.5 2.5l0 25c0 1.381-1.12 2.5-2.5 2.5l-4 0c-1.381 0-2.5-1.119-2.5-2.5l0-25c0-1.381 1.119-2.5 2.5-2.5l4 0zm0 1l-4 0c-.827 0-1.5.673-1.5 1.5l0 25c0 .827.673 1.5 1.5 1.5l4 0c.827 0 1.5-.673 1.5-1.5l0-25c0-.827-.673-1.5-1.5-1.5z" fill="#000" fill-rule="evenodd"/></svg>