<svg width="10" height="10" viewBox="0 0 10 10" xmlns="http://www.w3.org/2000/svg"><title>format/pop-in_10</title><path d="M.5 4C.224 4 0 3.776 0 3.5l0-2.2C0 .583.583 0 1.3 0l7.4 0c.717 0 1.3.583 1.3 1.3l0 7.4c0 .717-.583 1.3-1.3 1.3l-2.2 0c-.276 0-.5-.224-.5-.5 0-.276.224-.5.5-.5l2.2 0c.165 0 .3-.135.3-.3l0-7.4c0-.165-.135-.3-.3-.3L1.3 1c-.165 0-.3.135-.3.3l0 2.2c0 .276-.224.5-.5.5zM.0386 9.6914c-.025-.062-.039-.126-.039-.191l0-3c0-.277.224-.5.5-.5.277 0 .5.223.5.5l0 1.793 3.147-3.147c.098-.098.225-.146.353-.146.128 0 .256.048.354.146.195.195.195.512 0 .707l-3.147 3.147 1.793 0c.277 0 .5.223.5.5 0 .276-.223.5-.5.5l-3 0c-.065 0-.129-.014-.19-.039-.123-.05-.22-.148-.271-.27z" fill-rule="evenodd"/></svg>