<svg width="12" height="12" viewBox="0 0 12 12" xmlns="http://www.w3.org/2000/svg"><title>format/pop-up_12</title><path d="M10.5 7L10 7l0-1.5C10 4.673 9.327 4 8.5 4L3 4l0-1 8 0 0 3.5c0 .275-.225.5-.5.5m-2 4l-7 0c-.276 0-.5-.225-.5-.5L1 7l8 0 0 3.5c0 .275-.225.5-.5.5m-7-6l7 0c.275 0 .5.224.5.5L9 6 1 6l0-.5c0-.276.224-.5.5-.5m2-4l7 0c.275 0 .5.224.5.5l0 .5-8 0 0-.5c0-.276.224-.5.5-.5m7-1l-7 0C2.673 0 2 .673 2 1.5L2 4l-.5 0C.673 4 0 4.673 0 5.5l0 5c0 .827.673 1.5 1.5 1.5l7 0c.827 0 1.5-.673 1.5-1.5L10 8l.5 0c.827 0 1.5-.673 1.5-1.5l0-5c0-.827-.673-1.5-1.5-1.5" fill="#000" fill-rule="evenodd"/></svg>