<svg width="8" height="8" viewBox="0 0 8 8" xmlns="http://www.w3.org/2000/svg"><title>format/pop-out_8</title><path d="M7.5 0c.275 0 .5.225.5.5l0 3c0 .275-.225.5-.5.5-.275 0-.5-.225-.5-.5l0-1.793-3.15 3.149c-.097.098-.225.147-.353.147-.128 0-.256-.049-.354-.147-.195-.195-.195-.511 0-.707L6.293 1 4.5 1C4.225 1 4 .775 4 .5c0-.275.225-.5.5-.5l3 0zm0 6c.275 0 .5.225.5.5l0 .509C8 7.557 7.549 8 7.009 8L.991 8C.443 8 0 7.549 0 7.009L0 .991C0 .443.451 0 .991 0L1.5 0c.275 0 .5.225.5.5 0 .275-.225.5-.5.5L.991 1 1 7l0 .009L7 7l.009 0L7 6.5c0-.275.225-.5.5-.5z" fill-rule="evenodd"/></svg>