<svg width="16" height="16" viewBox="0 0 16 16" xmlns="http://www.w3.org/2000/svg"><title>hardware/power-ac_16</title><path d="M8 1C4.14 1 1 4.141 1 8c0 3.859 3.14 7 7 7 3.86 0 7-3.141 7-7 0-3.859-3.14-7-7-7m0 15c-4.411 0-8-3.589-8-8 0-4.411 3.589-8 8-8 4.411 0 8 3.589 8 8 0 4.411-3.589 8-8 8zm1.4248-7.001c.571 0 1.141-.178 1.618-.532l.755-.56c.222-.164.268-.477.104-.699-.165-.222-.477-.269-.7-.104l-.755.56c-.576.426-1.367.45-1.967.053l-.409-.269c-.949-.625-2.2-.592-3.114.085l-.755.56c-.221.164-.268.477-.104.699.165.221.477.268.7.103l.755-.559c.576-.426 1.367-.45 1.968-.053l.409.269c.453.299.974.447 1.495.447z" fill="#000" fill-rule="evenodd"/></svg>