<svg width="32" height="32" viewBox="0 0 32 32" xmlns="http://www.w3.org/2000/svg"><title>microsoft/power-apps_32</title><path d="M29 4c1.654 0 3 1.346 3 3l0 14c0 1.654-1.346 3-3 3-.276 0-.5-.224-.5-.5 0-.276.224-.5.5-.5 1.103 0 2-.897 2-2l0-14c0-1.103-.897-2-2-2L3 5c-1.103 0-2 .897-2 2l0 14c0 1.103.897 2 2 2 .276 0 .5.224.5.5 0 .276-.224.5-.5.5-1.654 0-3-1.346-3-3L0 7c0-1.654 1.346-3 3-3l26 0zM18.7174 19.8167c.377.378.377.989 0 1.366l-6.534 6.535c-.188.188-.436.282-.683.282-.247 0-.495-.094-.683-.282l-6.534-6.535c-.377-.377-.377-.988 0-1.366l6.534-6.534c.188-.189.436-.283.683-.283.247 0 .495.094.683.283l6.534 6.534zm-7.193 7.193l6.486-6.534-6.509-6.462-6.511 6.51 6.534 6.486zM20.5 19.0011c-.234 0-.47-.09-.649-.269l-2.081-2.081c-.359-.359-.359-.94 0-1.299l2.081-2.082c.179-.179.415-.269.649-.269.235 0 .471.09.649.269l2.082 2.082c.359.359.359.94 0 1.299l-2.082 2.081c-.178.179-.414.269-.649.269zm0-4.966l-1.966 1.966 1.966 1.967 1.967-1.967-1.967-1.966zm.649 8.2356l2.082 2.081c.359.359.359.941 0 1.299l-2.082 2.082c-.178.179-.414.269-.649.269-.234 0-.47-.09-.649-.269l-2.081-2.082c-.359-.358-.359-.94 0-1.299l2.081-2.081c.179-.179.415-.269.649-.269.235 0 .471.09.649.269zm-.649 4.697l1.967-1.966-1.967-1.966-1.966 1.966 1.966 1.966zm5.148-9.1984l2.081 2.081c.36.359.36.94 0 1.299l-2.081 2.082c-.179.179-.415.269-.649.269-.235 0-.471-.09-.649-.269l-2.082-2.082c-.359-.359-.359-.94 0-1.299l2.082-2.081c.178-.179.414-.269.649-.269.234 0 .47.09.649.269zm-.649 4.697l1.966-1.966-1.966-1.967-1.967 1.967 1.967 1.966zM10.8772 17.758c.172-.172.397-.258.623-.258.225 0 .452.086.624.258l2.118 2.118c.345.345.345.903 0 1.248l-2.118 2.118c-.172.172-.399.258-.624.258-.226 0-.451-.086-.623-.258l-2.118-2.118c-.345-.345-.345-.903 0-1.248l2.118-2.118zm2.574 2.742l-1.951-1.951-1.95 1.951 1.95 1.951 1.951-1.951z" fill="#000" fill-rule="evenodd"/></svg>