<svg width="10" height="10" viewBox="0 0 10 10" xmlns="http://www.w3.org/2000/svg"><title>content/print_10</title><path d="M9 6.667C9 6.851 8.851 7 8.667 7L8 7l0-1.5c0-.276-.224-.5-.5-.5l-5 0c-.276 0-.5.224-.5.5L2 7l-.667 0C1.149 7 1 6.851 1 6.667l0-3.334C1 3.149 1.149 3 1.333 3l7.334 0c.184 0 .333.149.333.333l0 3.334zM7 8.666C7 8.851 6.851 9 6.667 9L3.333 9C3.149 9 3 8.851 3 8.666L3 6l4 0 0 2.666zM3 1.334C3 1.149 3.149 1 3.333 1l3.334 0c.184 0 .333.149.333.334L7 2 3 2l0-.666zM8.667 2L8 2l0-.666C8 .599 7.402 0 6.667 0L3.333 0C2.598 0 2 .599 2 1.334L2 2l-.667 0C.598 2 0 2.598 0 3.333l0 3.334C0 7.402.598 8 1.333 8L2 8l0 .666C2 9.401 2.598 10 3.333 10l3.334 0C7.402 10 8 9.401 8 8.666L8 8l.667 0C9.402 8 10 7.402 10 6.667l0-3.334C10 2.598 9.402 2 8.667 2z" fill-rule="evenodd"/></svg>