<svg width="72" height="72" viewBox="0 0 72 72" xmlns="http://www.w3.org/2000/svg"><title>alerts-and-notifications/priority_72</title><path d="M36.0004 72c19.882 0 36-16.118 36-36 0-19.882-16.118-36-36-36-19.883 0-36 16.118-36 36 0 19.882 16.117 36 36 36zm0-71c19.299 0 35 15.701 35 35 0 19.299-15.701 35-35 35-19.3 0-35-15.701-35-35 0-19.299 15.7-35 35-35zm0 50c.276 0 .5-.224.5-.5 0-.276-.224-.5-.5-.5-.276 0-.5.224-.5.5 0 .276.224.5.5.5zm0-7c.274 0 .5-.225.5-.5l0-22c0-.275-.226-.5-.5-.5-.275 0-.5.225-.5.5l0 22c0 .275.225.5.5.5z" fill="#000" fill-rule="evenodd"/></svg>