<svg width="32" height="32" viewBox="0 0 32 32" xmlns="http://www.w3.org/2000/svg"><title>alerts-and-notifications/priority_32</title><path d="M15.9996 32c8.837 0 16-7.164 16-16 0-8.836-7.163-16-16-16-8.836 0-16 7.164-16 16 0 8.836 7.164 16 16 16zm0-31c8.271 0 15 6.729 15 15 0 8.271-6.729 15-15 15-8.271 0-15-6.729-15-15 0-8.271 6.729-15 15-15zm.0009 22c.275 0 .5-.224.5-.5 0-.276-.225-.5-.5-.5-.276 0-.5.224-.5.5 0 .276.224.5.5.5zm0-4c.274 0 .5-.225.5-.5l0-9c0-.275-.226-.5-.5-.5-.275 0-.5.225-.5.5l0 9c0 .275.225.5.5.5z" fill="#000" fill-rule="evenodd"/></svg>