<svg width="28" height="28" viewBox="0 0 28 28" xmlns="http://www.w3.org/2000/svg"><title>alerts-and-notifications/priority_28</title><path d="M14.5 27C7.607 27 2 21.393 2 14.5 2 7.607 7.607 2 14.5 2 21.393 2 27 7.607 27 14.5 27 21.393 21.393 27 14.5 27m0-26C7.056 1 1 7.056 1 14.5 1 21.944 7.056 28 14.5 28 21.944 28 28 21.944 28 14.5 28 7.056 21.944 1 14.5 1zm0 7c.276 0 .5.224.5.5l0 8c0 .276-.224.5-.5.5-.276 0-.5-.224-.5-.5l0-8c0-.276.224-.5.5-.5zm0 11.9963c.13 0 .26.06.35.15.1.09.15.22.15.36 0 .13-.061.261-.15.35-.04.04-.1.08-.161.11-.179.07-.409.03-.54-.11-.099-.089-.149-.22-.149-.35 0-.07.01-.14.04-.2.02-.06.06-.11.109-.16.091-.09.221-.15.351-.15z" fill="#000" fill-rule="evenodd"/></svg>