<svg width="32" height="32" viewBox="0 0 32 32" xmlns="http://www.w3.org/2000/svg"><title>alerts-and-notifications/priority_32</title><path d="M31 16.5C31 24.50812887 24.5081289 31 16.5 31 8.49187113 31 2 24.50812887 2 16.5 2 8.4918711 8.49187113 2 16.5 2 24.5081289 2 31 8.4918711 31 16.5zm-30 0C1 25.06041362 7.93958638 32 16.5 32 25.0604136 32 32 25.06041362 32 16.5 32 7.9395864 25.0604136 1 16.5 1 7.93958638 1 1 7.9395864 1 16.5zM16.4959278 10c.2739602 0 .4959279.2286002.4959279.510574l0 8.979859c0 .2819738-.2219677.509567-.4959279.509567C16.2219677 20 16 19.7724068 16 19.490433l0-8.979859C16 10.2286002 16.2219677 10 16.4959278 10zm-.3479493 13.86128892C16.0589914 23.77130351 16 23.64077522 16 23.51024694c0-.13942795.0589914-.26995623.1479785-.35994164C16.2479639 23.06031989 16.3659468 23 16.5059264 23c.1279814 0 .2569626.06031989.3469495.1503053.0889871.09987391.1489783.22051369.1489783.35994164 0 .13052828-.0599912.25116806-.1489783.35104198-.1879726.18985932-.5159249.17997082-.7048974 0z" fill-rule="nonzero" fill="#000"/></svg>