<svg width="16" height="16" viewBox="0 0 16 16" xmlns="http://www.w3.org/2000/svg"><title>alerts-and-notifications/private-circle-active_16</title><path d="M8 0c4.418 0 8 3.582 8 8 0 4.418-3.582 8-8 8-4.418 0-8-3.582-8-8 0-4.418 3.582-8 8-8zm1.24225 7.234c-.547 0-.992-.445-.992-.992 0-.547.445-.992.992-.992.547 0 .992.445.992.992 0 .547-.445.992-.992.992zm-2.993 3.309l-.292-.293.297-.297.29.294-.295.296zm2.993-6.293c-1.101 0-1.992.891-1.992 1.992 0 .372.108.716.285 1.013l-2.639 2.641c-.195.195-.195.512 0 .707l.998 1c.094.094.221.147.354.147.133 0 .26-.053.353-.147l1.001-1c.195-.194.196-.509.003-.704l-.644-.654 1.286-1.286c.294.171.631.275.995.275 1.101 0 1.992-.892 1.992-1.992 0-1.101-.891-1.992-1.992-1.992z" fill="#000" fill-rule="evenodd"/></svg>