<svg width="16" height="16" viewBox="0 0 16 16" xmlns="http://www.w3.org/2000/svg"><title>alerts-and-notifications/private_16</title><path d="M10.5 7.0002c-1.379 0-2.5-1.122-2.5-2.5 0-1.378 1.121-2.5 2.5-2.5 1.378 0 2.5 1.122 2.5 2.5 0 1.378-1.122 2.5-2.5 2.5zm-4.092 5.188l-1.6 1.601-1.601-1.601 1.601-1.6 1.6 1.6zM10.5 1.0002c-1.93 0-3.5 1.569-3.5 3.5 0 .704.213 1.358.572 1.907l-5.426 5.428c-.195.195-.195.512 0 .707l2.308 2.308c.098.097.226.146.354.146.128 0 .255-.049.353-.146l2.308-2.308c.195-.195.195-.512 0-.707l-1.954-1.954 2.727-2.729c.612.521 1.394.848 2.258.848 1.93 0 3.5-1.57 3.5-3.5 0-1.931-1.57-3.5-3.5-3.5z" fill="#000" fill-rule="evenodd"/></svg>