<svg width="12" height="12" viewBox="0 0 12 12" fill="none" xmlns="http://www.w3.org/2000/svg">
<path d="M2.35 10C2.16 10 2 9.839 2 9.65V3.349C2 3.16 2.16 3 2.35 3H9.65C9.84 3 10 3.16 10 3.349V4C10 4.27614 10.2239 4.5 10.5 4.5C10.7761 4.5 11 4.27614 11 4V3.349C11 2.607 10.393 2 9.65 2H8.982V1.5C8.982 1.224 8.757 1 8.482 1C8.207 1 7.982 1.224 7.982 1.5V2H3.982V1.5C3.982 1.224 3.757 1 3.482 1C3.207 1 2.982 1.224 2.982 1.5V2H2.35C1.607 2 1 2.607 1 3.349V9.65C1 10.392 1.607 11 2.35 11H4.5C4.77614 11 5 10.7761 5 10.5C5 10.2239 4.77614 10 4.5 10H2.35Z" fill="#121212"/>
<path fill-rule="evenodd" clip-rule="evenodd" d="M10.1667 7.02845V6C10.1667 5.2 9.41667 4.5 8.5 4.5C7.58333 4.5 6.83333 5.19543 6.83333 6V7.02845C6.82535 7.03127 6.81746 7.03429 6.80967 7.0375C6.35355 7.12814 6 7.42491 6 8V10.0004C6 10.6434 6.43583 11.0004 6.9725 11.0004H10.0275C10.5642 11.0004 11 10.6434 11 10.0004V8C11 7.42491 10.6465 7.12814 10.1903 7.0375C10.1825 7.03429 10.1747 7.03127 10.1667 7.02845ZM9.91177 8C9.93671 8.00656 9.96205 8.01219 9.98778 8.01687L10 8.01926V10.0004H7V8.01926L7.01222 8.01687C7.03795 8.01219 7.06329 8.00656 7.08823 8H9.91177ZM7.83333 7H9.16667V6C9.16667 5.92023 9.12829 5.80271 9.0039 5.68948C8.88119 5.57777 8.70297 5.5 8.5 5.5C8.29521 5.5 8.11703 5.5779 7.99533 5.68846C7.8725 5.80005 7.83333 5.91698 7.83333 6V7Z" fill="#121212"/>
</svg>
