<svg width="48" height="48" viewBox="0 0 48 48" xmlns="http://www.w3.org/2000/svg"><title>alerts-and-notifications/private-circle_48</title><path d="M24 0c13.233 0 24 10.767 24 24 0 13.233-10.767 24-24 24C10.767 48 0 37.233 0 24 0 10.767 10.767 0 24 0zm0 47c12.683 0 23-10.317 23-23C47 11.318 36.683 1 24 1 11.318 1 1 11.318 1 24c0 12.683 10.318 23 23 23zm5-35c3.313 0 6 2.687 6 6 0 3.313-2.687 6-6 6-1.477 0-2.827-.536-3.872-1.421L18.707 29l3.147 3.146c.094.095.146.223.146.357 0 .133-.055.261-.15.354l-4.083 4c-.094.092-.22.143-.35.143l-.006 0c-.133-.002-.26-.056-.352-.15l-3.417-3.5c-.191-.197-.189-.51.004-.704l10.775-10.774C23.536 20.827 23 19.477 23 18c0-3.313 2.687-6 6-6zm0 11c2.757 0 5-2.243 5-5 0-2.757-2.243-5-5-5-2.757 0-5 2.243-5 5 0 2.757 2.243 5 5 5zm-8.211 9.496L18 29.707l-3.297 3.297 2.721 2.788 3.365-3.296z" fill="#000" fill-rule="evenodd"/></svg>