<svg width="14" height="14" viewBox="0 0 14 14" xmlns="http://www.w3.org/2000/svg"><title>alerts-and-notifications/private-circle_14</title><path d="M7 13c-3.309 0-6-2.691-6-6 0-3.309 2.691-6 6-6 3.309 0 6 2.691 6 6 0 3.309-2.691 6-6 6M7 0c3.866 0 7 3.134 7 7 0 3.866-3.134 7-7 7-3.866 0-7-3.134-7-7 0-3.866 3.134-7 7-7zm1.4746 6.2729c-.551 0-1-.449-1-1 0-.551.449-1 1-1 .552 0 1 .449 1 1 0 .551-.448 1-1 1zm-3 3.293l-.293-.293.293-.293.293.293-.293.293zm3-6.293c-1.104 0-2 .896-2 2 0 .37.107.712.283 1.01l-2.637 2.636c-.195.196-.195.512 0 .708l1 1c.098.097.226.146.354.146.128 0 .256-.049.354-.146l1-1c.195-.196.195-.512 0-.708l-.647-.646 1.283-1.283c.297.176.64.283 1.01.283 1.104 0 2-.896 2-2 0-1.104-.896-2-2-2z" fill-rule="evenodd"/></svg>