<svg width="24" height="24" viewBox="0 0 24 24" xmlns="http://www.w3.org/2000/svg"><title>alerts-and-notifications/private-circle_24</title><g fill="#000" fill-rule="evenodd"><path d="M12 0c6.616 0 12 5.383 12 12 0 6.617-5.384 12-12 12-6.617 0-12-5.383-12-12C0 5.383 5.383 0 12 0zm0 23c6.065 0 11-4.935 11-11 0-6.065-4.935-11-11-11C5.935 1 1 5.935 1 12c0 6.065 4.935 11 11 11z"/><path d="M14.469 5.5c1.654 0 3 1.346 3 3 0 1.654-1.346 3-3 3-.647 0-1.243-.21-1.733-.561l-3.029 3.03 1.647 1.646c.195.196.195.512 0 .707l-2 2c-.098.098-.226.147-.354.147-.128 0-.256-.049-.353-.147l-2-2c-.196-.195-.196-.511 0-.707l5.382-5.383c-.35-.489-.56-1.086-.56-1.732 0-1.654 1.346-3 3-3zm0 5c1.103 0 2-.897 2-2 0-1.104-.897-2-2-2-1.103 0-2 .896-2 2 0 1.103.897 2 2 2zm-4.176 5.469L9 14.676l-1.293 1.293L9 17.262l1.293-1.293z"/></g></svg>