<svg width="16" height="16" viewBox="0 0 16 16" fill="none" xmlns="http://www.w3.org/2000/svg">
<path d="M2 15C1.448 15 1 14.551 1 14V12H5.5C5.77614 12 6 11.7761 6 11.5C6 11.2239 5.77614 11 5.5 11H1V4C1 3.449 1.448 3 2 3H14C14.552 3 15 3.449 15 4V5.5C15 5.77614 15.2239 6 15.5 6C15.7761 6 16 5.77614 16 5.5V4C16 2.895 15.104 2 14 2H12V0.5C12 0.225 11.775 0 11.5 0C11.225 0 11 0.225 11 0.5V2H5V0.5C5 0.225 4.775 0 4.5 0C4.225 0 4 0.225 4 0.5V2H2C0.896 2 0 2.895 0 4V14C0 15.105 0.896 16 2 16H5.5C5.77614 16 6 15.7761 6 15.5C6 15.2239 5.77614 15 5.5 15H2Z" fill="#121212"/>
<path d="M12 13.5C12.2761 13.5 12.5 13.2761 12.5 13C12.5 12.7239 12.2761 12.5 12 12.5C11.7239 12.5 11.5 12.7239 11.5 13C11.5 13.2761 11.7239 13.5 12 13.5Z" fill="#121212"/>
<path fill-rule="evenodd" clip-rule="evenodd" d="M9 10H9.5V8.5C9.5 7.11929 10.6193 6 12 6C13.3807 6 14.5 7.11929 14.5 8.5V10H15C15.5523 10 16 10.4477 16 11V15C16 15.5523 15.5523 16 15 16H9C8.44772 16 8 15.5523 8 15V11C8 10.4477 8.44772 10 9 10ZM12 7C11.1716 7 10.5 7.67157 10.5 8.5V10H13.5V8.5C13.5 7.67157 12.8284 7 12 7ZM9 11V15H15V11H9Z" fill="#121212"/>
</svg>
