<svg width="10" height="10" viewBox="0 0 10 10" xmlns="http://www.w3.org/2000/svg"><title>alerts-and-notifications/private_10</title><path d="M6.75 4c-.827 0-1.5-.673-1.5-1.5 0-.827.673-1.5 1.5-1.5.827 0 1.5.673 1.5 1.5 0 .827-.673 1.5-1.5 1.5zM3.543 8l-.793.793L1.957 8l.793-.793.793.793zM6.75 0c-1.378 0-2.5 1.121-2.5 2.5 0 .509.154.981.417 1.377L.896 7.646c-.195.196-.195.512 0 .708l1.5 1.5c.098.097.226.146.354.146.128 0 .256-.049.354-.146l1.5-1.5c.195-.196.195-.512 0-.708L3.457 6.5l1.917-1.916c.395.262.867.416 1.376.416 1.378 0 2.5-1.121 2.5-2.5 0-1.379-1.122-2.5-2.5-2.5z" fill="#000" fill-rule="evenodd"/></svg>