<svg width="24" height="24" viewBox="0 0 24 24" xmlns="http://www.w3.org/2000/svg"><title>alerts-and-notifications/private-circle-active_24</title><path d="M12 0c6.616 0 12 5.383 12 12 0 6.617-5.384 12-12 12-6.617 0-12-5.383-12-12C0 5.383 5.383 0 12 0zm2.469 10.5c-1.103 0-2-.897-2-2 0-1.104.897-2 2-2 1.103 0 2 .896 2 2 0 1.103-.897 2-2 2zm-4.176 5.469L9 17.262l-1.293-1.293L9 14.676l1.293 1.293zM14.469 5.5c-1.654 0-3 1.346-3 3 0 .646.21 1.243.56 1.732l-5.382 5.383c-.196.196-.196.512 0 .707l2 2c.097.098.225.147.353.147.128 0 .256-.049.354-.147l2-2c.195-.195.195-.511 0-.707l-1.647-1.646 3.029-3.03c.49.351 1.086.561 1.733.561 1.654 0 3-1.346 3-3 0-1.654-1.346-3-3-3z" fill="#000" fill-rule="evenodd"/></svg>