<svg width="20" height="20" viewBox="0 0 20 20" xmlns="http://www.w3.org/2000/svg"><title>alerts-and-notifications/private_20</title><path d="M13.5 9C11.57 9 10 7.43 10 5.5 10 3.57 11.57 2 13.5 2 15.43 2 17 3.57 17 5.5 17 7.43 15.43 9 13.5 9zm-6.687 6.979L5 17.793l-1.784-1.784 1.857-1.77 1.74 1.74zM13.5 1C11.019 1 9 3.019 9 5.5c0 1.026.359 1.963.939 2.721l-5.17 4.926c-.015.012-.029.025-.042.039-.008.007-.015.015-.023.023l-2.549 2.429c-.097.092-.153.221-.155.356-.002.135.051.264.146.36l2.5 2.5c.098.097.226.146.354.146.128 0 .256-.049.354-.146l2.52-2.521c.195-.195.195-.512 0-.707l-2.077-2.077 4.838-4.609c.78.652 1.771 1.06 2.865 1.06 2.481 0 4.5-2.019 4.5-4.5C18 3.019 15.981 1 13.5 1z" fill="#000" fill-rule="evenodd"/></svg>