<svg width="16" height="16" viewBox="0 0 16 16" xmlns="http://www.w3.org/2000/svg"><title>alerts-and-notifications/private-circle_16</title><g fill="#000" fill-rule="evenodd"><path d="M8 0C3.582 0 0 3.582 0 8c0 4.418 3.582 8 8 8 4.418 0 8-3.582 8-8 0-4.418-3.582-8-8-8m0 1c3.859 0 7 3.141 7 7 0 3.859-3.141 7-7 7-3.859 0-7-3.141-7-7 0-3.859 3.141-7 7-7"/><path d="M9.24225 4.25c1.101 0 1.992.891 1.992 1.992 0 1.1-.891 1.992-1.992 1.992-.364 0-.701-.104-.995-.275l-1.286 1.286.644.654c.193.195.192.51-.003.704l-1.001 1c-.093.094-.22.147-.353.147-.133 0-.26-.053-.354-.147l-.998-1c-.195-.195-.195-.512 0-.707l2.639-2.641c-.177-.297-.285-.641-.285-1.013 0-1.101.891-1.992 1.992-1.992zm0 2.984c.547 0 .992-.445.992-.992 0-.547-.445-.992-.992-.992-.547 0-.992.445-.992.992 0 .547.445.992.992.992zm-2.993 3.309l.295-.296-.29-.294-.297.297.292.293z"/></g></svg>