<svg width="12" height="12" viewBox="0 0 12 12" xmlns="http://www.w3.org/2000/svg"><title>alerts-and-notifications/private_12</title><path d="M8.4996 5.00002c-.827 0-1.5-.673-1.5-1.5 0-.827.673-1.5 1.5-1.5.827 0 1.5.673 1.5 1.5 0 .827-.673 1.5-1.5 1.5zm-5.018 4.798l-.269-.258.304-.307.269.265-.304.3zm5.018-8.798c-1.38 0-2.5 1.119-2.5 2.5 0 .51.155.983.417 1.378l-4.272 4.32c-.094.096-.146.225-.145.359.002.133.058.261.155.354l.987.945c.097.093.221.139.346.139.127 0 .254-.048.351-.144l1.01-.998c.095-.094.149-.223.149-.357 0-.134-.055-.262-.15-.355l-.628-.619 2.905-2.937c.395.261.867.415 1.375.415 1.381 0 2.5-1.119 2.5-2.5 0-1.381-1.119-2.5-2.5-2.5z" fill="#000" fill-rule="evenodd"/></svg>