<svg width="20" height="20" viewBox="0 0 20 20" xmlns="http://www.w3.org/2000/svg"><title>alerts-and-notifications/private-circle-active_20</title><path d="M10 0c5.5136842 0 10 4.48631579 10 10 0 5.5136842-4.4863158 10-10 10-5.51368421 0-10-4.4863158-10-10C0 4.48631579 4.48631579 0 10 0zm2.00025 8.75c-.827 0-1.5-.673-1.5-1.5 0-.827.673-1.5 1.5-1.5.827 0 1.5.673 1.5 1.5 0 .827-.673 1.5-1.5 1.5zm-3.723 4.484l-.793.793-.777-.777.793-.793.777.777zm3.723-8.484c-1.378 0-2.5 1.121-2.5 2.5 0 .509.154.981.417 1.376l-4.271 4.27c-.195.196-.195.512 0 .708l1.485 1.484c.098.098.225.146.353.146.128 0 .256-.048.354-.146l1.5-1.5c.195-.195.195-.512 0-.707l-1.131-1.131 2.417-2.417c.395.262.867.417 1.376.417 1.378 0 2.5-1.121 2.5-2.5 0-1.379-1.122-2.5-2.5-2.5z" fill="#000" fill-rule="evenodd"/></svg>