<svg width="16" height="16" viewBox="0 0 16 16" fill="none" xmlns="http://www.w3.org/2000/svg">
<path fill-rule="evenodd" clip-rule="evenodd" d="M3 10.5C3 10.22 3.22 10.0026 3.5 9.9981L5.5 9.99922C5.78 9.99922 6 10.22 6 10.5V10.9951L3 10.9962V10.5ZM7 10.5V11H9V10.5C9 9.68 9.68 9 10.5 9H12.5C13.33 9 14 9.67 14 10.5V11H15C15.55 11 16 11.45 16 12V15C16 15.55 15.55 16 15 16H1.00381C0.45 16 0 15.55 0 15V12C0 11.45 0.45 11 1.00381 11H2V10.5C2 9.68 2.68 9 3.5 9H5.5C6.33 9 7 9.67 7 10.5ZM15 15H1V12H15V15ZM10.5 9.9981C10.22 10.0026 10 10.22 10 10.5V10.9962L13 10.9951V10.5C13 10.22 12.78 9.99922 12.5 9.99922L10.5 9.9981Z" fill="#121212"/>
<path fill-rule="evenodd" clip-rule="evenodd" d="M10 1.5C10 1.22 10.22 1.00262 10.5 0.998098L12.5 0.999219C12.78 0.999219 13 1.22 13 1.5V1.99505L10 1.9962V1.5ZM14 1.5V2H15C15.55 2 16 2.45 16 3V6C16 6.55 15.55 7 15 7H1.00381C0.45 7 0 6.55 0 6V3C0 2.45 0.45 2 1.00381 2H2V1.5C2 0.68 2.68 0 3.5 0H5.5C6.33 0 7 0.67 7 1.5V2H9V1.5C9 0.68 9.68 0 10.5 0H12.5C13.33 0 14 0.67 14 1.5ZM15 6H1V3H15V6ZM3.5 0.998098C3.22 1.00262 3 1.22 3 1.5V1.9962L6 1.99505V1.5C6 1.22 5.78 0.999219 5.5 0.999219L3.5 0.998098Z" fill="#121212"/>
</svg>
