<svg width="24" height="24" viewBox="0 0 24 24" fill="none" xmlns="http://www.w3.org/2000/svg">
<path fill-rule="evenodd" clip-rule="evenodd" d="M21.6354 7.02237C21.8568 6.97839 22.0864 7.00124 22.2948 7.088C22.5039 7.17412 22.6826 7.32053 22.8082 7.5086C22.9338 7.69666 23.0006 7.91786 23 8.144V15.855C23.0004 16.0813 22.9336 16.3025 22.8081 16.4907C22.6825 16.6789 22.5038 16.8256 22.2947 16.912C22.1556 16.9695 22.0066 16.9994 21.8561 17C21.5536 16.9987 21.2639 16.878 21.05 16.664L18 13.6086V17.5C17.9994 18.1629 17.7358 18.7984 17.2671 19.2671C16.7984 19.7358 16.1629 19.9994 15.5 20H13.5C13.3674 20 13.2402 19.9473 13.1464 19.8536C13.0527 19.7598 13 19.6326 13 19.5C13 19.3674 13.0527 19.2402 13.1464 19.1464C13.2402 19.0527 13.3674 19 13.5 19H15.5C15.8977 18.9995 16.279 18.8414 16.5602 18.5602C16.8414 18.279 16.9995 17.8977 17 17.5V6.5C16.9995 6.10231 16.8414 5.72104 16.5602 5.43984C16.279 5.15863 15.8977 5.00045 15.5 5H3.5C3.10231 5.00045 2.72104 5.15863 2.43984 5.43984C2.15863 5.72104 2.00045 6.10231 2 6.5V7.5C2 7.63261 1.94732 7.75979 1.85355 7.85355C1.75979 7.94732 1.63261 8 1.5 8C1.36739 8 1.24021 7.94732 1.14645 7.85355C1.05268 7.75979 1 7.63261 1 7.5V6.5C1.00079 5.8372 1.26444 5.20178 1.73311 4.73311C2.20178 4.26444 2.8372 4.00079 3.5 4H15.5C16.1628 4.00069 16.7983 4.2643 17.267 4.73299C17.7357 5.20168 17.9993 5.83717 18 6.5V10.3905L21.0511 7.335C21.2106 7.17517 21.4139 7.06635 21.6354 7.02237ZM21.979 15.9348C21.9948 15.9109 22.0027 15.8827 22.0015 15.8541V8.1431C22.0028 8.11459 21.995 8.08639 21.9792 8.06263C21.9634 8.03886 21.9404 8.02077 21.9136 8.011C21.8877 7.99915 21.8586 7.99578 21.8307 8.00137C21.8027 8.00695 21.7772 8.0212 21.7578 8.0421L18 11.804V12.1932L21.7578 15.9561C21.7774 15.9766 21.8029 15.9906 21.8308 15.9962C21.8587 16.0017 21.8876 15.9986 21.9136 15.9871C21.9404 15.977 21.9633 15.9587 21.979 15.9348ZM1.5 11C1.36739 11 1.24021 11.0527 1.14645 11.1464C1.05268 11.2402 1 11.3674 1 11.5C1 11.6326 1.05268 11.7598 1.14645 11.8536C1.24021 11.9473 1.36739 12 1.5 12C3.48845 12.0022 5.39483 12.7931 6.80087 14.1991C8.20692 15.6052 8.9978 17.5116 9 19.5C9 19.6326 9.05268 19.7598 9.14645 19.8536C9.24021 19.9473 9.36739 20 9.5 20C9.63261 20 9.75979 19.9473 9.85355 19.8536C9.94732 19.7598 10 19.6326 10 19.5C9.99735 17.2465 9.10097 15.086 7.50748 13.4925C5.914 11.899 3.75353 11.0026 1.5 11ZM1.14645 15.1464C1.24021 15.0527 1.36739 15 1.5 15C2.69307 15.0013 3.83689 15.4759 4.68052 16.3195C5.52415 17.1631 5.99868 18.3069 6 19.5C6 19.6326 5.94732 19.7598 5.85355 19.8536C5.75979 19.9473 5.63261 20 5.5 20C5.36739 20 5.24021 19.9473 5.14645 19.8536C5.05268 19.7598 5 19.6326 5 19.5C4.99889 18.5721 4.62978 17.6825 3.97365 17.0264C3.31751 16.3702 2.42792 16.0011 1.5 16C1.36739 16 1.24021 15.9473 1.14645 15.8536C1.05268 15.7598 1 15.6326 1 15.5C1 15.3674 1.05268 15.2402 1.14645 15.1464ZM2 19.5C2 19.7761 1.77614 20 1.5 20C1.22386 20 1 19.7761 1 19.5C1 19.2239 1.22386 19 1.5 19C1.77614 19 2 19.2239 2 19.5Z" fill="#121212"/>
</svg>
