<svg width="14" height="14" viewBox="0 0 14 14" fill="none" xmlns="http://www.w3.org/2000/svg">
<path fill-rule="evenodd" clip-rule="evenodd" d="M12.9436 4.01662C13.1147 3.98278 13.2921 4.00067 13.453 4.068C13.6151 4.13545 13.7536 4.24944 13.851 4.39557C13.9483 4.5417 14.0002 4.71341 14 4.889V9.113C14.0003 9.22948 13.9776 9.34488 13.9332 9.45257C13.8888 9.56025 13.8236 9.65811 13.7412 9.74053C13.6589 9.82294 13.5611 9.88828 13.4535 9.93281C13.3459 9.97734 13.2305 10.0002 13.114 10C12.9979 10.0001 12.8829 9.97729 12.7757 9.93284C12.6684 9.88839 12.571 9.8232 12.489 9.741L11 8.269V11C10.9995 11.3977 10.8414 11.779 10.5602 12.0602C10.279 12.3414 9.89769 12.4995 9.5 12.5H6.5C6.36739 12.5 6.24021 12.4473 6.14645 12.3536C6.05268 12.2598 6 12.1326 6 12C6 11.8674 6.05268 11.7402 6.14645 11.6464C6.24021 11.5527 6.36739 11.5 6.5 11.5H9.5C9.63253 11.4997 9.75955 11.447 9.85326 11.3533C9.94697 11.2596 9.99974 11.1325 10 11V3C9.99984 2.86744 9.94711 2.74036 9.85338 2.64662C9.75964 2.55289 9.63256 2.50016 9.5 2.5H1.5C1.36739 2.5 1.24021 2.55268 1.14645 2.64645C1.05268 2.74021 1 2.86739 1 3V6C1 6.13261 0.947322 6.25979 0.853553 6.35355C0.759785 6.44732 0.632608 6.5 0.5 6.5C0.367392 6.5 0.240215 6.44732 0.146447 6.35355C0.0526784 6.25979 0 6.13261 0 6V3C0.000449947 2.60231 0.15863 2.22104 0.439837 1.93984C0.721044 1.65863 1.10231 1.50045 1.5 1.5H9.5C9.89769 1.50045 10.279 1.65863 10.5602 1.93984C10.8414 2.22104 10.9995 2.60231 11 3V5.733L12.492 4.258C12.6152 4.13449 12.7724 4.05046 12.9436 4.01662ZM11.01 7L13.003 8.9969V5.003L11.01 7ZM1 12C1 12.2761 0.776142 12.5 0.5 12.5C0.223858 12.5 0 12.2761 0 12C0 11.7239 0.223858 11.5 0.5 11.5C0.776142 11.5 1 11.7239 1 12ZM0.5 7.5C0.367392 7.5 0.240215 7.55268 0.146447 7.64645C0.0526784 7.74021 0 7.86739 0 8C0 8.13261 0.0526784 8.25979 0.146447 8.35355C0.240215 8.44732 0.367392 8.5 0.5 8.5C1.42792 8.50111 2.31751 8.87022 2.97365 9.52635C3.62978 10.1825 3.99889 11.0721 4 12C4 12.1326 4.05268 12.2598 4.14645 12.3536C4.24021 12.4473 4.36739 12.5 4.5 12.5C4.63261 12.5 4.75979 12.4473 4.85355 12.3536C4.94732 12.2598 5 12.1326 5 12C4.99868 10.8069 4.52415 9.66311 3.68052 8.81948C2.83689 7.97585 1.69307 7.50132 0.5 7.5ZM0.146447 9.64645C0.240215 9.55268 0.367392 9.5 0.5 9.5C1.16283 9.50069 1.79832 9.7643 2.26701 10.233C2.7357 10.7017 2.99931 11.3372 3 12C3 12.1326 2.94732 12.2598 2.85355 12.3536C2.75979 12.4473 2.63261 12.5 2.5 12.5C2.36739 12.5 2.24021 12.4473 2.14645 12.3536C2.05268 12.2598 2 12.1326 2 12C1.99955 11.6023 1.84137 11.221 1.56016 10.9398C1.27896 10.6586 0.897687 10.5004 0.5 10.5C0.367392 10.5 0.240215 10.4473 0.146447 10.3536C0.0526784 10.2598 0 10.1326 0 10C0 9.86739 0.0526784 9.74021 0.146447 9.64645Z" fill="#121212"/>
</svg>
