<svg width="26" height="26" viewBox="0 0 26 26" fill="none" xmlns="http://www.w3.org/2000/svg">
<path fill-rule="evenodd" clip-rule="evenodd" d="M16.5 4H3.5C2.8372 4.00079 2.20178 4.26444 1.73311 4.73311C1.26444 5.20178 1.00079 5.8372 1 6.5V7.5C1 7.63261 1.05268 7.75979 1.14645 7.85355C1.24021 7.94732 1.36739 8 1.5 8C1.63261 8 1.75979 7.94732 1.85355 7.85355C1.94732 7.75979 2 7.63261 2 7.5V6.5C2.00045 6.10231 2.15863 5.72104 2.43984 5.43984C2.72104 5.15863 3.10231 5.00045 3.5 5H16.5C16.8977 5.00045 17.279 5.15863 17.5602 5.43984C17.8414 5.72104 17.9995 6.10231 18 6.5V19.5C17.9995 19.8977 17.8414 20.279 17.5602 20.5602C17.279 20.8414 16.8977 20.9995 16.5 21H15.5C15.3674 21 15.2402 21.0527 15.1464 21.1464C15.0527 21.2402 15 21.3674 15 21.5C15 21.6326 15.0527 21.7598 15.1464 21.8536C15.2402 21.9473 15.3674 22 15.5 22H16.5C17.1629 21.9994 17.7984 21.7358 18.2671 21.2671C18.7358 20.7984 18.9994 20.1629 19 19.5V6.5C18.9993 5.83717 18.7357 5.20168 18.267 4.73299C17.7983 4.2643 17.1628 4.00069 16.5 4ZM24.247 7.09398C24.0238 7.00032 23.7778 6.9755 23.5404 7.02272C23.3031 7.06994 23.0852 7.18704 22.915 7.35899L19.002 11.273V12.6869L23.622 8.06588C23.6531 8.03492 23.6927 8.01386 23.7358 8.00534C23.7789 7.99682 23.8236 8.00122 23.8642 8.018C23.9048 8.03477 23.9395 8.06317 23.964 8.09962C23.9885 8.13607 24.0017 8.17896 24.002 8.22289V17.7789C24.0036 17.8233 23.9911 17.867 23.9663 17.9038C23.9415 17.9407 23.9057 17.9687 23.864 17.9839C23.8238 18.0028 23.7786 18.0084 23.735 17.9998C23.6915 17.9911 23.6518 17.9687 23.622 17.9359L19.002 13.3159V14.73L22.915 18.643C23.0859 18.8139 23.3037 18.9303 23.5408 18.9775C23.7779 19.0246 24.0236 19.0005 24.247 18.908C24.4704 18.8155 24.6613 18.6589 24.7957 18.458C24.93 18.257 25.0018 18.0207 25.002 17.779V8.22298C25.0024 7.9811 24.9309 7.74456 24.7964 7.54349C24.6619 7.34243 24.4707 7.18594 24.247 7.09398ZM2 21.5C2 21.7761 1.77614 22 1.5 22C1.22386 22 1 21.7761 1 21.5C1 21.2239 1.22386 21 1.5 21C1.77614 21 2 21.2239 2 21.5ZM1.5 16C1.36739 16 1.24021 16.0527 1.14645 16.1464C1.05268 16.2402 1 16.3674 1 16.5C1 16.6326 1.05268 16.7598 1.14645 16.8536C1.24021 16.9473 1.36739 17 1.5 17C2.69307 17.0013 3.83689 17.4759 4.68052 18.3195C5.52415 19.1631 5.99868 20.3069 6 21.5C6 21.6326 6.05268 21.7598 6.14645 21.8536C6.24021 21.9473 6.36739 22 6.5 22C6.63261 22 6.75979 21.9473 6.85355 21.8536C6.94732 21.7598 7 21.6326 7 21.5C6.99825 20.0418 6.41823 18.6439 5.38716 17.6128C4.35609 16.5818 2.95815 16.0017 1.5 16ZM1.14645 11.1464C1.24021 11.0527 1.36739 11 1.5 11C4.28381 11.0031 6.95272 12.1104 8.92117 14.0788C10.8896 16.0473 11.9969 18.7162 12 21.5C12 21.6326 11.9473 21.7598 11.8536 21.8536C11.7598 21.9473 11.6326 22 11.5 22C11.3674 22 11.2402 21.9473 11.1464 21.8536C11.0527 21.7598 11 21.6326 11 21.5C10.9971 18.9813 9.99533 16.5666 8.21436 14.7856C6.43338 13.0047 4.01868 12.0029 1.5 12C1.36739 12 1.24021 11.9473 1.14645 11.8536C1.05268 11.7598 1 11.6326 1 11.5C1 11.3674 1.05268 11.2402 1.14645 11.1464Z" fill="#121212"/>
</svg>
