<svg width="20" height="20" viewBox="0 0 20 20" fill="none" xmlns="http://www.w3.org/2000/svg">
<path fill-rule="evenodd" clip-rule="evenodd" d="M18.6432 5.02204C18.8622 4.9771 19.0896 4.99904 19.296 5.085C19.5054 5.17146 19.6842 5.31841 19.8096 5.50706C19.935 5.69571 20.0013 5.91748 20 6.144V13.855C20.0012 14.0046 19.9728 14.153 19.9164 14.2916C19.86 14.4303 19.7768 14.5564 19.6715 14.6627C19.5662 14.769 19.4409 14.8535 19.3028 14.9112C19.1648 14.9689 19.0166 14.9987 18.867 14.999C18.7181 14.9988 18.5707 14.9689 18.4335 14.911C18.2963 14.8532 18.1721 14.7685 18.068 14.662L15 11.548V14.5C14.9994 15.1629 14.7358 15.7984 14.2671 16.2671C13.7984 16.7358 13.1629 16.9994 12.5 17H9.5C9.36739 17 9.24021 16.9473 9.14645 16.8536C9.05268 16.7598 9 16.6326 9 16.5C9 16.3674 9.05268 16.2402 9.14645 16.1464C9.24021 16.0527 9.36739 16 9.5 16H12.5C12.8977 15.9995 13.279 15.8414 13.5602 15.5602C13.8414 15.279 13.9995 14.8977 14 14.5V5.5C13.9995 5.10231 13.8414 4.72104 13.5602 4.43984C13.279 4.15863 12.8977 4.00045 12.5 4H2.5C2.10231 4.00045 1.72104 4.15863 1.43984 4.43984C1.15863 4.72104 1.00045 5.10231 1 5.5V7.5C1 7.63261 0.947322 7.75979 0.853553 7.85355C0.759785 7.94732 0.632608 8 0.5 8C0.367392 8 0.240215 7.94732 0.146447 7.85355C0.0526784 7.75979 0 7.63261 0 7.5V5.5C0.000793929 4.8372 0.264441 4.20178 0.73311 3.73311C1.20178 3.26444 1.8372 3.00079 2.5 3H12.5C13.1628 3.00069 13.7983 3.2643 14.267 3.73299C14.7357 4.20168 14.9993 4.83717 15 5.5V8.451L18.068 5.337C18.2238 5.17671 18.4242 5.06698 18.6432 5.02204ZM18.9825 13.9373C18.9981 13.9132 19.0056 13.8847 19.004 13.856V6.145C19.0056 6.11631 18.9981 6.08785 18.9825 6.06375C18.9668 6.03965 18.9439 6.02117 18.917 6.011C18.8934 5.9999 18.8667 5.99692 18.8412 6.00252C18.8157 6.00813 18.7928 6.02201 18.776 6.042L15 9.873V10.128L18.776 13.96C18.7931 13.9796 18.8161 13.9931 18.8415 13.9985C18.8669 14.0039 18.8934 14.0009 18.917 13.99C18.9439 13.9798 18.9668 13.9614 18.9825 13.9373ZM1 16.5C1 16.7761 0.776142 17 0.5 17C0.223858 17 0 16.7761 0 16.5C0 16.2239 0.223858 16 0.5 16C0.776142 16 1 16.2239 1 16.5ZM0.5 13C0.367392 13 0.240215 13.0527 0.146447 13.1464C0.0526784 13.2402 0 13.3674 0 13.5C0 13.6326 0.0526784 13.7598 0.146447 13.8536C0.240215 13.9473 0.367392 14 0.5 14C1.16283 14.0007 1.79832 14.2643 2.26701 14.733C2.7357 15.2017 2.99931 15.8372 3 16.5C3 16.6326 3.05268 16.7598 3.14645 16.8536C3.24021 16.9473 3.36739 17 3.5 17C3.63261 17 3.75979 16.9473 3.85355 16.8536C3.94732 16.7598 4 16.6326 4 16.5C3.99889 15.5721 3.62978 14.6825 2.97365 14.0264C2.31751 13.3702 1.42792 13.0011 0.5 13ZM0.146447 10.1464C0.240215 10.0527 0.367392 10 0.5 10C2.2233 10.002 3.87545 10.6874 5.094 11.906C6.31256 13.1246 6.99801 14.7767 7 16.5C7 16.6326 6.94732 16.7598 6.85355 16.8536C6.75979 16.9473 6.63261 17 6.5 17C6.36739 17 6.24021 16.9473 6.14645 16.8536C6.05268 16.7598 6 16.6326 6 16.5C5.99825 15.0418 5.41823 13.6439 4.38716 12.6128C3.35609 11.5818 1.95815 11.0017 0.5 11C0.367392 11 0.240215 10.9473 0.146447 10.8536C0.0526784 10.7598 0 10.6326 0 10.5C0 10.3674 0.0526784 10.2402 0.146447 10.1464Z" fill="#121212"/>
</svg>
