<svg width="28" height="28" viewBox="0 0 28 28" xmlns="http://www.w3.org/2000/svg"><title>contacts/pto_28</title><path d="M26.1623739 8.89101364l-6.245 3.102c-.14.07-.24.201-.269.355l-1.984 10.52199996c-.018.097-.079.179-.163.22l-1.355.674-1.734-8.337c-.032-.15-.13-.278-.268-.346-.069-.034-.146-.052-.222-.052-.073 0-.147.016-.215.049l-5.488 2.618c-1.587.787-3.514.486-4.813-.767l-2.028-1.779 1.094-.57299996c.07-.034.147-.04.219-.014l2.874 1.00799996c.128.045.268.035.389-.024l18.821-9.34899996c.377-.188.827-.214000004 1.235-.074.378.13.675.389.838.727.362.757.055 1.672-.686 2.04zm-17.804-1.923l1.714-.916c.131-.069000004.286-.069000004.405-.008l5.865 3.226-4.19 2.081-3.794-4.383zm19.392-.549l-.001 0c-.278-.582000004-.781-1.023000004-1.414-1.240000004-.66-.2279999996-1.39-.1819999996-2.005.123l-6.898 3.427000004-6.484-3.567000004c-.42-.2179999996-.921-.2159999996-1.345.006l-2.268 1.214000004c-.134.071-.228.2-.256.35-.028.149.014.303.114.418l4.034 4.66-5.53 2.748-2.675-.938c-.324-.115-.687-.091-1.004.066l-1.750000004.916c-.146.077-.2450000002.22-.2650000002.384-.019.16399996.043.32599996.1670000002.43499996l2.559000004 2.244c1.586 1.529 3.971 1.902 5.928.93l4.905-2.34 1.737 8.346c.032.152.132.28.272.348.069.034.143.05.218.05.076 0 .152-.017.223-.052l1.934-.961c.363-.18.625-.527.701-.929l1.938-10.27899996 6.022-2.991c1.227-.61 1.74-2.12 1.143-3.368z" fill="#000" fill-rule="evenodd"/></svg>