<svg width="32" height="32" viewBox="0 0 32 32" xmlns="http://www.w3.org/2000/svg"><title>contacts/pto_32</title><path d="M30.897405 8.5267113c-.1403941.51033284-.4758946.93561021-.92082 1.16787708l-7.1621623 3.73807902c-.1455556.07524138-.2477542.21918142-.2787235.38711145l-2.168882 12.09096275c-.0908432.5026996-.400536.9367006-.8299767 1.1613343l-1.1159264.5833933-2.0037124-10.1237822c-.0330339-.1635683-.1342003-.302056-.2756266-.3762069-.0722617-.038166-.1507172-.0567037-.230205-.0567037-.0753586 0-.1507172.0174473-.2198819.0523418L9.39543342 20.305804c-1.83854296.9596002-4.07762196.5942978-5.5837613-.9323389l-2.38669923-2.1983569 1.32548521-.7306047c.09290784-.04798.20336494-.0534322.29730509-.0185377l3.29822839 1.2147666c.13110329.0468896.27459429.038166.39950372-.0261709L28.3217931 6.35234445c.8650753-.451448288 1.9108047-.17229186 2.3784408.63573514.270465.46889556.3406621 1.01521341.1971711 1.53863171zM9.56679677 7.18218054l1.49788083-.88108747c.4666039-.27588506 1.0261155-.28024688 1.4875578-.01526637l6.273344 3.80786813-4.951988 2.58437786-4.30679463-5.49589215zm22.01399703-.7622279c-.7432628-1.286736651-2.3774085-1.743637209-3.7163137-1.044655688L19.9394412 9.51139197l-6.8834388-4.1775323c-.7824905-.450357828-1.7167305-.444905554-2.4950917.015266367L8.5220997 6.54753585c-.13420021.07851275-.22814036.21700051-.25601272.37620691-.02787235.1592064.01238772.32386507.1104571.44817691l4.54629042 5.80230995-6.44057808 3.36187208-3.09279883-1.1406157c-.35717904-.1297641-.75461814-.1046836-1.10560332.0774223L.277044883 16.577539c-.151749475.0828746-.2529157917.2399001-.2735619788.4187347-.0196138778.1788345.0443893023.3565787.1723956618.4754382l2.937952424 2.7065088c1.80137983 1.8243309 4.50809496 2.2692365 6.730657 1.1089926l5.69628301-2.8537202 2.0057771 10.1335963c.0330339.1646587.1362648.3042369.2797558.3783879.0712294.0370754.1476203.0545227.2260758.0545227.0784555 0 .1558787-.0185377.2281403-.0556132l1.7136336-.8941729c.7184873-.3762069 1.2367066-1.0991785 1.3863914-1.9366477l2.1224281-11.82380133 6.9319573-3.618129c.7030027-.36748326 1.2336097-1.03811296 1.4534916-1.84177814.2219465-.80911745.1094247-1.68802402-.3076282-2.40990509z" fill="#000" fill-rule="evenodd"/></svg>