<svg width="16" height="16" viewBox="0 0 16 16" xmlns="http://www.w3.org/2000/svg"><title>contacts/pto_16</title><path d="M14.6505044 5.27838896l-3.469 1.796c-.138.071-.235.202-.262.355L9.83850438 13.499389l-.484.251-.907-4.54200004c-.03-.153-.13-.283-.27-.351-.069-.034-.145-.051-.22-.051-.077 0-.153.017-.223.052l-3.053 1.518c-.802.416-1.744.26-2.412-.411l-.93-.849.298-.173 1.597.584c.131.047.277.038.402-.026l10.45600002-5.413c.15-.077.329-.088999997.493-.033.158.054.281.164.349.311.153.335.024.753-.284.912zm-9.45500002-.871l.733-.412999997 2.928 1.678999997-1.824.944-1.837-2.21zm10.64700002-.458999997c-.183-.397-.513-.695-.932-.839-.422-.1439999998-.886-.1119999998-1.278.091L9.91250438 5.12638896l-3.499-2.005999997c-.303-.1619999998-.662-.1609999998-.969.006l-1.26.703c-.13.072-.221.198999997-.248.344999997-.027.146.012.296.107.411l2.08 2.503-2.752 1.424-1.39-.508c-.243-.089-.512-.071-.749.052l-.972.531c-.142.078-.237.219-.257.379-.019.16.04.32.159.429l1.415 1.292c.95.956 2.383 1.188 3.557.58l2.46-1.223.909 4.55300004c.031.154.132.285.273.353.069.033.143.049.217.049.079 0 .158-.018.23-.056l1.07400002-.556c.263-.135.451-.393.503-.688l1.059-5.85000004 3.251-1.683c.78-.404 1.109-1.399.732-2.217999997z" fill="#000" fill-rule="evenodd"/></svg>