<svg width="24" height="24" viewBox="0 0 24 24" xmlns="http://www.w3.org/2000/svg"><title>contacts/pto_24</title><path d="M22.3185 7.4915l-5.32 2.775c-.137.072-.233.204-.261.356l-1.69 9.415c-.012.071-.052.13-.106.158l-1.057.552-1.46-7.371c-.03-.154-.13-.284-.271-.353-.069-.034-.144-.051-.219-.051-.077 0-.154.018-.224.053l-4.677 2.343c-1.315.686-2.916.424-4-.674l-1.684-1.551.872-.48c.036-.019.075-.023.113-.008l2.449.901c.133.051.279.039.404-.025l16.034-8.364c.291-.154.64-.179.96-.069.312.108.557.33.692.624.3.66.051 1.453-.555 1.769zm-15.029-1.665l1.407-.791c.086-.048.184-.048.258-.009l4.922 2.844-3.428 1.788-3.159-3.832zm16.494-.518c-.25-.547-.703-.958-1.278-1.155-.575-.196-1.213-.151-1.747.127l-5.833 3.043-5.484-3.17c-.386-.207-.844-.205-1.23.008l-1.933 1.086c-.129.072-.219.198-.247.344-.026.145.012.296.106.41l3.405 4.131-4.621 2.41-2.241-.824c-.3-.112-.635-.09-.931.063l-1.491.82c-.14.078-.235.219-.255.378-.019.16.04.32.158.429l2.178 2.006c1.377 1.394 3.45 1.733 5.149.845l4.083-2.045 1.462 7.381c.031.156.132.287.274.355.069.032.143.049.217.049.079 0 .159-.019.231-.057l1.648-.86c.327-.17.562-.495.629-.869l1.646-9.173 5.103-2.662c1.07-.559 1.519-1.936 1.002-3.07z" fill="#000" fill-rule="evenodd"/></svg>