<svg width="10" height="8" viewBox="0 0 10 8" xmlns="http://www.w3.org/2000/svg"><title>contacts/pto_8</title><path d="M6.80473107 2.61938311c-.13409923.073-.2271681.204-.25218661.354l-.61845766 3.622-.46934732-2.492c-.02902148-.156-.13109701-.289-.27420291-.358-.0690511-.033-.1431059-.05-.2171607-.05-.08005924 0-.16011849.02-.23317255.058l-1.83435742.967c-.39529252.215-.85863539.132-1.19888718-.229l-.21615996-.209.57142286.221c.13710145.053.29221624.043.42231251-.029l6.16456177-3.377c.11408443-.063.25819106-.017.31323179.102l.00100075.001c.05003702.108.00800592.236-.0960711.293l-2.06252627 1.126zm-3.04625422-1.584l1.38202269.84-.6664932.367-.87264576-1.115.15711627-.092zm6.13153733-.315c-.13109701-.304-.38428437-.539-.6935132-.6440000001-.3062266-.105-.64047395-.076-.9206813.0790000001l-2.12357144 1.165-1.99747814-1.214c-.24818365-.1430000001-.54440286-.1420000001-.79759021.004l-.75555912.447c-.12409183.073-.21015551.196-.23717551.338-.02601925.141.00900667.287.09807258.4l1.12283089 1.434-1.37902047.757-.73854653-.286c-.20515181-.08-.43332066-.066-.634469507.046l-.583431739.338c-.136100715.079-.2271681045.216-.2461821749.372-.0190140704.155.0360266598.31.1481096009.42l.841622801.816c.637471729.677 1.599183399.841 2.386766209.408l1.22690791-.647.49636731 2.639c.03002222.157.13309849.291.27820587.36.06805036.031.14110442.047.21415848.047.08306147 0 .16612293-.02.24017773-.061l.64747914-.356c.20915477-.116.35226067-.321.39329103-.564l.62145988-3.639 1.86938335-1.026c.55641174-.306.78658208-1.023.52238656-1.633z" fill="#000" fill-rule="evenodd"/></svg>