<svg width="26" height="26" viewBox="0 0 26 26" xmlns="http://www.w3.org/2000/svg"><title>contacts/pto_26</title><path d="M24.9273 7.7261c-.112.329-.347.594-.652.742l-5.916 2.766c-.146.068-.249.201-.28.358l-1.801 9.381c-.013.067-.058.126-.12.156l-1.181.576-1.562-7.37c-.032-.151-.132-.279-.27-.346-.07-.034-.145-.05-.219-.05-.076 0-.151.017-.222.052l-5.214 2.573c-1.426.691-3.158.43-4.326-.677l-1.777-1.53.918-.473c.053-.025.116-.029.17-.011l2.609.899c.125.044.264.036.383-.024l17.576-8.576c.319-.156.701-.183 1.052-.076.351.108.624.333.771.635l0 .001c.153.312.174.665.061.994zm-17.151-.864l1.673-.821c.107-.055.236-.054.332-.007l5.347 2.888-3.726 1.818-3.626-3.878zm17.989-.569c-.27-.553-.759-.963-1.377-1.153-.59-.18-1.239-.133-1.784.134l-6.372 3.109-5.989-3.235c-.394-.198-.862-.196-1.243 0l-2.27 1.113c-.143.07-.243.203-.273.36-.028.155.019.315.127.431l3.877 4.147-5.247 2.56-2.413-.831c-.307-.107-.638-.086-.942.062l-1.588.817c-.149.076-.248.221-.268.386-.019.165.044.329.17.437l2.321 1.999c1.453 1.375 3.634 1.71 5.436.832l4.641-2.289 1.56 7.367c.032.15.132.278.27.345.069.034.144.051.219.051.076 0 .151-.017.219-.051l1.758-.856c.344-.168.592-.493.663-.867l1.754-9.129 5.691-2.661c.553-.269.968-.738 1.168-1.32.2-.581.161-1.205-.108-1.758z" fill="#000" fill-rule="evenodd"/></svg>