<svg width="14" height="14" viewBox="0 0 14 14" fill="none" xmlns="http://www.w3.org/2000/svg">
<path fill-rule="evenodd" clip-rule="evenodd" d="M12.9999 3.72124C13.1839 3.51524 13.4989 3.49324 13.7059 3.67924C13.9129 3.86224 13.9319 4.17824 13.7489 4.38524L11.6037 7.20613C11.6019 7.20798 11.5998 7.20919 11.5978 7.21035C11.5955 7.2117 11.5933 7.21298 11.5917 7.21513C11.5557 7.25313 11.5117 7.28113 11.4657 7.30613C11.4599 7.30926 11.4545 7.31359 11.449 7.31795C11.4423 7.32335 11.4354 7.32881 11.4277 7.33213C11.3667 7.35813 11.2987 7.37413 11.2287 7.37413C11.1437 7.37413 11.0677 7.34713 10.9977 7.31013C10.9937 7.3076 10.9891 7.30686 10.9844 7.3061C10.9798 7.30536 10.9752 7.3046 10.9707 7.30213L7.77472 5.44561C7.53872 5.30361 7.46272 4.99561 7.60472 4.75961C7.74772 4.52361 8.05472 4.44961 8.29072 4.58861L10.6717 5.95513C10.4047 3.66313 10.0889 2.21619 8.13794 0.915191C7.90894 0.761191 7.84694 0.451191 7.99994 0.221191C8.15294 -0.00680859 8.46294 -0.0688086 8.69294 0.0831914C10.8379 1.51219 11.2947 3.14713 11.6397 5.65613L12.9999 3.72124ZM1.13587 1.252C1.25987 1.092 1.44787 1 1.65087 1H3.15087C3.56287 1 3.93387 1.244 4.09687 1.622L4.66287 2.94C4.82787 3.323 4.81487 3.756 4.62887 4.129L4.24687 4.893C4.02887 5.328 4.08287 5.858 4.38387 6.244C5.23287 7.336 6.46287 8.559 7.75887 9.599C8.14587 9.91 8.68087 9.967 9.12087 9.747L9.87087 9.372C10.2439 9.185 10.6769 9.173 11.0599 9.337L12.3769 9.904C12.7559 10.066 12.9999 10.438 12.9999 10.849V12.349C12.9999 12.552 12.9079 12.74 12.7479 12.864C12.5909 12.987 12.3929 13.029 12.2019 12.98C10.0289 12.428 7.52587 10.855 5.33587 8.665C3.14487 6.473 1.57187 3.971 1.01987 1.798C0.971869 1.608 1.01387 1.409 1.13587 1.252ZM11.9559 13.95C12.0899 13.983 12.2249 14 12.3599 14C12.7189 14 13.0699 13.881 13.3619 13.654C13.7669 13.338 13.9999 12.863 13.9999 12.349V10.849C13.9999 10.038 13.5179 9.306 12.7729 8.985L11.4549 8.418C10.7999 8.137 10.0599 8.158 9.42387 8.477L8.67387 8.852C8.57887 8.9 8.46887 8.886 8.38487 8.818C7.16587 7.84 5.96487 6.648 5.17287 5.63C5.10687 5.544 5.09487 5.434 5.14087 5.34L5.52287 4.576C5.84187 3.939 5.86287 3.199 5.58187 2.545L5.01487 1.227C4.69387 0.481 3.96287 0 3.15087 0H1.65087C1.13687 0 0.661869 0.232 0.345869 0.638C0.0338693 1.04 -0.0741307 1.553 0.0508693 2.044C0.644869 4.386 2.31387 7.057 4.62887 9.372C6.94287 11.686 9.61287 13.354 11.9559 13.95Z" fill="#121212"/>
</svg>
