<svg width="16" height="16" viewBox="0 0 16 16" xmlns="http://www.w3.org/2000/svg"><title>phone/pull-call_16</title><path d="M14.0001 14.2606c0 .23-.104.444-.287.585-.177.139-.404.187-.621.131-2.345-.595-5.047-2.293-7.411-4.656-2.365-2.366-4.063-5.067-4.658-7.413-.055-.216-.007-.443.131-.622.142-.18.355-.286.585-.286l1.616 0c.458 0 .872.274 1.053.694l.611 1.42c.181.421.168.9-.039 1.312l-.411.823c-.227.454-.171 1.009.144 1.414.913 1.173 2.236 2.488 3.629 3.605.404.326.963.387 1.425.156l.808-.404c.411-.207.889-.22 1.312-.037l.001 0 1.418.609c.422.182.694.596.694 1.053l0 1.616zm-.299-3.588c.789.34 1.299 1.114 1.299 1.972l0 1.616c0 .542-.245 1.042-.673 1.375-.307.239-.677.364-1.055.364-.142 0-.285-.017-.426-.052-2.515-.639-5.385-2.432-7.872-4.92-2.489-2.489-4.282-5.359-4.921-7.873-.131-.519-.017-1.059.312-1.482.332-.428.833-.673 1.374-.673l1.616 0c.858 0 1.632.51 1.972 1.299l.61 1.419c.299.694.276 1.48-.062 2.155l-.412.824c-.056.112-.042.249.039.352.854 1.098 2.15 2.385 3.466 3.441.102.083.238.097.352.041l.808-.406c.676-.338 1.461-.359 2.154-.062l1.419.61zm2.129-6.7254c.207.183.226.499.043.706l-2.816 3.178c-.004.004-.009.005-.012.009-.036.038-.08.066-.126.091-.013.007-.024.02-.038.026-.061.026-.128.042-.198.042l-.001 0c-.085 0-.161-.027-.231-.064-.008-.005-.018-.003-.027-.008l-3.526-2.123c-.236-.142-.312-.45-.17-.686.143-.236.45-.31.686-.171l2.711 1.633c-.267-2.292-1.519-4.364-3.47-5.665-.229-.154-.291-.464-.138-.694.153-.228.463-.29.693-.138 2.145 1.429 3.538 3.689 3.883 6.198l2.031-2.292c.184-.206.499-.228.706-.042z" fill-rule="evenodd"/></svg>