<svg width="16" height="16" viewBox="0 0 16 16" xmlns="http://www.w3.org/2000/svg"><title>meetings/q&amp;a_16</title><path d="M14 13.2832c0 .394-.323.717-.717.717l-10.566 0c-.394 0-.717-.323-.717-.717l0-10.566c0-.394.323-.717.717-.717l10.566 0c.394 0 .717.323.717.717l0 10.566zm-.717-12.283c.948 0 1.717.772 1.717 1.717l0 10.566c0 .948-.772 1.717-1.717 1.717l-10.566 0c-.948 0-1.717-.773-1.717-1.717l0-10.566c0-.949.772-1.717 1.717-1.717l10.566 0zM8.5137 3.5513c-.752-.15-1.515.036-2.097.513-.582.477-.917 1.183-.917 1.935 0 .277.224.5.5.5.277 0 .5-.223.5-.5 0-.451.202-.875.551-1.161.356-.291.801-.398 1.266-.307.555.112 1.026.574 1.146 1.126.104.477-.013.958-.301 1.293l-.941.954c-.465.47-.721 1.094-.721 1.756l0 .339c0 .277.224.5.5.5.277 0 .5-.223.5-.5l0-.339c0-.397.154-.772.433-1.054l.965-.979c.515-.601.713-1.397.542-2.182-.204-.943-.979-1.704-1.926-1.894zm-.8741 8.0981c-.09.09-.15.22-.15.35 0 .07.02.13.04.19.03.06.06.12.11.16.09.1.22.15.35.15.13 0 .26-.05.36-.15.04-.04.08-.1.11-.16.02-.06.03-.13.03-.19 0-.13-.05-.26-.14-.35-.189-.19-.53-.19-.71 0z" fill-rule="evenodd"/></svg>