<svg width="24" height="24" viewBox="0 0 24 24" xmlns="http://www.w3.org/2000/svg"><title>meetings/q&amp;a_24</title><path d="M20.5 1C21.881 1 23 2.119 23 3.5l0 17c0 1.381-1.119 2.5-2.5 2.5l-17 0C2.119 23 1 21.881 1 20.5l0-17C1 2.119 2.119 1 3.5 1l17 0zM22 20.5l0-17c0-.827-.673-1.5-1.5-1.5l-17 0C2.673 2 2 2.673 2 3.5l0 17c0 .827.673 1.5 1.5 1.5l17 0c.827 0 1.5-.673 1.5-1.5zm-10.3501-3.3496c.19-.19.52-.19.71 0 .09.09.15.22.15.35 0 .129-.06.259-.15.349-.09.101-.22.151-.35.151-.07 0-.13-.01-.19-.04-.06-.021-.12-.06-.17-.111-.09-.09-.14-.22-.14-.349 0-.13.05-.26.14-.35zm.4722-12.1494c2.136.062 3.941 1.925 3.941 4.07 0 1.824-1.005 2.661-1.812 3.338-.144.118-.284.238-.415.357l-.602.554c-.449.412-.706.998-.706 1.609 0 .277-.224.5-.5.5-.277 0-.5-.223-.5-.5 0-.888.375-1.741 1.029-2.345l.602-.554c.142-.132.294-.258.45-.387.748-.625 1.454-1.218 1.454-2.572 0-1.617-1.36-3.024-2.969-3.07-.816-.026-1.58.276-2.164.845-.618.599-.958 1.422-.958 2.308 0 .278-.224.5-.5.5-.276 0-.5-.222-.5-.5 0-1.16.448-2.236 1.261-3.026.78-.757 1.813-1.155 2.889-1.127z" fill="#000" fill-rule="evenodd"/></svg>