<svg width="36" height="36" viewBox="0 0 36 36" xmlns="http://www.w3.org/2000/svg"><title>meetings/q&amp;a_36</title><path d="M31.5.9998c1.933 0 3.5 1.567 3.5 3.5l0 27c0 1.934-1.567 3.5-3.5 3.5l-27 0c-1.925 0-3.5-1.575-3.5-3.5l0-27c0-1.933 1.567-3.5 3.5-3.5l27 0zm2.5 30.5l0-27c0-1.378-1.122-2.5-2.5-2.5l-27 0c-1.378 0-2.5 1.122-2.5 2.5l0 27c0 1.379 1.122 2.5 2.5 2.5l27 0c1.378 0 2.5-1.121 2.5-2.5zm-16-4.501c.276 0 .5.224.5.5 0 .276-.224.5-.5.5-.276 0-.5-.224-.5-.5 0-.276.224-.5.5-.5zm0-18.999c3.309 0 6 2.691 6 6 0 3.011-1.708 4.621-2.955 5.796l-1.347 1.3c-.761.739-1.198 1.791-1.198 2.886 0 .277-.224.5-.5.5-.276 0-.5-.223-.5-.5 0-1.364.547-2.677 1.501-3.603l1.358-1.312c1.239-1.166 2.641-2.487 2.641-5.067 0-2.757-2.243-5-5-5-2.757 0-5 2.243-5 5l0 .499c0 .276-.224.5-.5.5-.276 0-.5-.224-.5-.5l0-.499c0-3.309 2.691-6 6-6z" fill="#000" fill-rule="evenodd"/></svg>