<svg width="16" height="16" viewBox="0 0 16 16" xmlns="http://www.w3.org/2000/svg"><title>meetings/q&amp;a_16</title><path d="M13.283 1.0002c.948 0 1.717.772 1.717 1.717l0 10.566c0 .948-.772 1.717-1.717 1.717l-10.566 0c-.948 0-1.717-.773-1.717-1.717l0-10.566c0-.949.772-1.717 1.717-1.717l10.566 0zM14 13.2832l0-10.566c0-.394-.323-.717-.717-.717l-10.566 0c-.394 0-.717.323-.717.717l0 10.566c0 .394.323.717.717.717l10.566 0c.394 0 .717-.323.717-.717zM8.5137 3.5513c.947.19 1.722.951 1.926 1.894.171.785-.027 1.581-.542 2.182l-.965.979c-.279.282-.433.657-.433 1.054l0 .339c0 .277-.223.5-.5.5-.276 0-.5-.223-.5-.5l0-.339c0-.662.256-1.286.721-1.756l.941-.954c.288-.335.405-.816.301-1.293-.12-.552-.591-1.014-1.146-1.126-.465-.091-.91.016-1.266.307-.349.286-.551.71-.551 1.161 0 .277-.223.5-.5.5-.276 0-.5-.223-.5-.5 0-.752.335-1.458.917-1.935.582-.477 1.345-.663 2.097-.513zm-.8741 8.0981c.18-.19.521-.19.71 0 .09.09.14.22.14.35 0 .06-.01.13-.03.19-.03.06-.07.12-.11.16-.1.1-.23.15-.36.15-.13 0-.26-.05-.35-.15-.05-.04-.08-.1-.11-.16-.02-.06-.04-.12-.04-.19 0-.13.06-.26.15-.35z" fill="#000" fill-rule="evenodd"/></svg>