<svg width="16" height="16" viewBox="0 0 16 16" fill="none" xmlns="http://www.w3.org/2000/svg">
<path fill-rule="evenodd" clip-rule="evenodd" d="M1.24787 6.322L1.07887 7H4.15045C3.86617 6.52241 3.69856 5.96741 3.6876 5.375H2.46087C1.88687 5.375 1.38787 5.764 1.24787 6.322ZM0.718868 8H3.64298C3.0157 8.36155 2.53941 8.9655 2.35303 9.707L2.02203 11.03C1.96403 11.266 2.01703 11.51 2.16603 11.7C2.31503 11.891 2.53903 12 2.78103 12H6V11H3.06103L3.32303 9.95C3.51903 9.17 4.21703 8.625 5.02103 8.625H7.2426C7.40413 8.1837 7.6412 7.7788 7.93814 7.42595C7.65111 7.55387 7.33343 7.625 6.9995 7.625C5.7255 7.625 4.6875 6.588 4.6875 5.313C4.6875 4.037 5.7255 3 6.9995 3C8.16844 3 9.13817 3.87166 9.29141 5H10.2974C10.1392 3.31927 8.72048 2 6.99903 2C6.86534 2 6.73347 2.00797 6.60387 2.02345C6.3076 0.861168 5.25272 0 3.99987 0C2.51787 0 1.31187 1.205 1.31187 2.688C1.31187 3.357 1.56787 3.963 1.97487 4.435C1.15587 4.616 0.488868 5.238 0.278868 6.08L0.0218683 7.106C-0.0321317 7.322 0.0148683 7.547 0.151868 7.724C0.288868 7.899 0.495868 8 0.718868 8ZM3.99987 1C4.79449 1 5.46162 1.55146 5.64002 2.29189C4.77149 2.68437 4.10117 3.44095 3.82486 4.366C2.97583 4.27821 2.31187 3.55898 2.31187 2.688C2.31187 1.757 3.06887 1 3.99987 1Z" fill="#121212"/>
<path d="M10.2949 4.98999C10.2949 5.26613 10.0711 5.48999 9.79492 5.48999C9.51878 5.48999 9.29492 5.26613 9.29492 4.98999C9.29492 4.62329 9.51878 4.48999 9.79492 4.48999C10.0711 4.48999 10.2949 4.71385 10.2949 4.98999Z" fill="#121212"/>
<circle cx="6" cy="11.5" r="0.5" fill="#121212"/>
<path fill-rule="evenodd" clip-rule="evenodd" d="M14 10C14 11.6569 12.6569 13 11 13C9.34315 13 8 11.6569 8 10C8 8.34315 9.34315 7 11 7C12.6569 7 14 8.34315 14 10ZM12.8436 13.5507C12.2919 13.8378 11.6649 14 11 14C8.79086 14 7 12.2091 7 10C7 7.79086 8.79086 6 11 6C13.2091 6 15 7.79086 15 10C15 11.1791 14.4898 12.239 13.6782 12.9711L15.8536 15.1464C16.0488 15.3417 16.0488 15.6583 15.8536 15.8536C15.6583 16.0488 15.3417 16.0488 15.1464 15.8536L12.8436 13.5507Z" fill="#121212"/>
</svg>
