<svg width="14" height="14" viewBox="0 0 14 14" fill="none" xmlns="http://www.w3.org/2000/svg">
<path fill-rule="evenodd" clip-rule="evenodd" d="M0.559104 7.22204H3.61186C3.12399 7.50324 2.75355 7.97297 2.60859 8.54967L2.35116 9.57864C2.30605 9.76219 2.34727 9.95196 2.46315 10.0997C2.57904 10.2483 2.75326 10.3331 2.94147 10.3331H5.61143C5.32339 10.6297 5.10923 10.9991 5.00109 11.418L4.68688 12.636C4.6371 12.8297 4.6791 13.0319 4.80199 13.1898C4.9272 13.3515 5.11698 13.4441 5.32308 13.4441H13.3433C13.5494 13.4441 13.7392 13.3515 13.8644 13.1898C13.9873 13.0319 14.0293 12.8297 13.9795 12.636L13.6653 11.418C13.3938 10.3665 12.4543 9.62686 11.3554 9.56697C12.0164 8.9961 12.4442 8.16157 12.4442 7.22204C12.4442 5.50631 11.0481 4.11102 9.33319 4.11102C9.08845 4.11102 8.85022 4.13941 8.62164 4.19308C8.24555 3.23526 7.31179 2.55551 6.22204 2.55551C5.85036 2.55551 5.4968 2.63467 5.17732 2.77703C5.02574 1.77203 4.15706 1 3.11092 1C1.95829 1 1.02031 1.9372 1.02031 3.09061C1.02031 3.61092 1.21942 4.08224 1.53596 4.44935C0.898983 4.59012 0.38022 5.07388 0.216891 5.72875L0.0170082 6.52673C-0.0249906 6.69472 0.0115639 6.86972 0.118116 7.00738C0.224669 7.14349 0.385664 7.22204 0.559104 7.22204ZM7.68336 4.5853C7.469 3.98554 6.89509 3.55551 6.22289 3.55551C5.36897 3.55551 4.67323 4.25058 4.67323 5.10585C4.67323 5.96044 5.36897 6.65551 6.22289 6.65551C6.23999 6.65551 6.25702 6.65523 6.27399 6.65468C6.43496 5.78427 6.95934 5.03988 7.68336 4.5853ZM6.26096 7.70814H4.77148C4.18152 7.70814 3.66934 8.10806 3.52551 8.6804L3.33326 9.45088H7.18358C6.70643 8.9924 6.37067 8.38847 6.26096 7.70814ZM3.64656 5.18044C3.6544 5.60443 3.76542 6.00379 3.95538 6.35426H0.999983L1.12206 5.86451C1.22319 5.46143 1.58365 5.18044 1.99828 5.18044H3.64656ZM4.2 3.10033C4.2 2.49345 3.7072 2 3.10033 2C2.49345 2 2 2.49345 2 3.10033C2 3.70655 2.49345 4.2 3.10033 4.2C3.7072 4.2 4.2 3.70655 4.2 3.10033ZM5.97035 11.5858L5.71658 12.471H12.9166L12.6628 11.5858C12.481 10.9527 11.8281 10.511 11.0748 10.511H7.55839C6.80509 10.511 6.15213 10.9527 5.97035 11.5858ZM7.22653 7.21102C7.22653 6.05322 8.16873 5.11102 9.32653 5.11102C10.4843 5.11102 11.4265 6.05322 11.4265 7.21102C11.4265 8.36882 10.4843 9.31102 9.32653 9.31102C8.16873 9.31102 7.22653 8.36882 7.22653 7.21102Z" fill="#121212"/>
</svg>
