<svg width="20" height="20" viewBox="0 0 20 20" xmlns="http://www.w3.org/2000/svg"><title>contacts/quiet_20</title><path d="M18.2498399 15.161c-.43-.473-1.003-.79-1.625-.909l.057-.514c.077-.698.031-1.398-.138-2.081l-.47-1.897c-.395-1.595-1.815-2.713-3.467-2.751.846-.734 1.393-1.804 1.393-3.009 0-2.206-1.794-4-3.99999999-4-2.205 0-4 1.794-4 4 0 1.205.547 2.274 1.393 3.009-1.652.038-3.072 1.155-3.467 2.751l-.47 1.897c-.169.683-.215 1.383-.137 2.081l.057.514c-.622.119-1.196.436-1.625000005.909-.555.611-.8159999999 1.4-.7369999999 2.223C1.154839905 18.851 2.48183991 20 4.03283991 20l.558-.003 5.409-.594L15.4648399 20l.502 0c1.552 0 2.878-1.149 3.02-2.616.079-.823-.183-1.612-.737-2.223m-2.283 3.839l-.448.003-5.46399999-.6c-.019-.002-.037-.003-.055-.003-.018 0-.036.001-.054.003l-5.41.597-.503 0c-1.042 0-1.931-.752-2.024-1.712-.052000005-.539.119-1.055.482-1.455.366-.402.89-.633 1.438-.633.142 0 .277-.06.372-.167.095-.106.141-.247.125-.388l-.113-1.017c-.065-.581-.027-1.163.114-1.731l.47-1.897c.291-1.175 1.351-1.997 2.577-1.998l2.525-.002 2.52699999.002c1.226.001 2.286.823 2.577 1.998l.47 1.897c.141.568.18 1.15.115 1.731l-.114 1.017c-.015.141.03.282.125.388.095.107.23.167.372.167.548 0 1.073.231 1.438.633.363.4.534.916.482 1.455-.092.96-.982 1.712-2.024 1.712m-2.549-4.993l-2.313.385c-.72599999.143-1.46899999.146-2.22599999-.003l-2.297-.382c-.271-.046-.53.139-.575.411-.046.273.139.53.411.575l2.283.38c.426.084.864.127 1.299.127.435 0 .873-.043 1.28499999-.124l2.297-.383c.273-.045.457-.302.411-.575-.045-.272-.304-.457-.575-.411M6.99983991 4c0-1.654 1.346-3 3-3 1.65499999 0 2.99999999 1.346 2.99999999 3 0 1.654-1.345 3-2.99999999 3-1.654 0-3-1.346-3-3" fill="#000" fill-rule="evenodd"/></svg>