<svg width="20" height="20" viewBox="0 0 20 20" xmlns="http://www.w3.org/2000/svg"><title>meetings/raise-hand_20</title><path d="M16.9976 12c0 3.859-3.14 7-7 7l-.292 0c-1.892 0-3.683-.825-4.914-2.265-.858-1.005-1.383-2.23-1.517-3.546l-.277-2.696c0-1.257.833-2.343 2-2.703l0 4.71c0 .276.224.5.5.5.276 0 .5-.224.5-.5l0-8.5c0-.552.449-1 1-1 .551 0 1 .448 1 1l0 6.5c0 .276.224.5.5.5.276 0 .5-.224.5-.5l0-6.5 0-2c0-.552.449-1 1-1 .551 0 1 .448 1 1l0 1 0 7.5c0 .276.224.5.5.5.276 0 .5-.224.5-.5l0-7.5c0-.552.449-1 1-1 .551 0 1 .448 1 1l0 2 0 5.5c0 .276.224.5.5.5.276 0 .5-.224.5-.5l0-5.5c0-.552.449-1 1-1 .551 0 1 .448 1 1l0 7zm-1-9c-.366 0-.705.105-1 .278l0-.278c0-1.103-.897-2-2-2-.415 0-.8.127-1.12.344C11.6046.564 10.8696 0 9.9976 0c-1.103 0-2 .897-2 2l0 .278c-.295-.173-.634-.278-1-.278-1.103 0-2 .897-2 2l0 2.77c-1.729.387-3 1.923-2.998 3.774l.28 2.747c.155 1.519.76 2.935 1.753 4.095C5.4526 19.047 7.5206 20 9.7056 20l.292 0c4.411 0 8-3.589 8-8l0-7c0-1.103-.897-2-2-2z" fill="#000" fill-rule="evenodd"/></svg>