<?xml version="1.0" encoding="UTF-8"?>
<svg width="20px" height="20px" viewBox="0 0 20 20" version="1.1" xmlns="http://www.w3.org/2000/svg" xmlns:xlink="http://www.w3.org/1999/xlink">
    <!-- Generator: Sketch 61.2 (89653) - https://sketch.com -->
    <title>chat/reactions_20</title>
    <desc>Created with Sketch.</desc>
    <g id="chat/reactions_20" stroke="none" stroke-width="1" fill="none" fill-rule="evenodd">
        <path d="M18.9119,8.733 C18.9699,9.149 18.9999,9.575 18.9999,10 C18.9999,14.962 14.9619,19 9.9999,19 C5.0379,19 0.9999,14.962 0.9999,10 C0.9999,5.038 5.0379,1 9.9999,1 C11.2409,1 12.4419,1.247 13.5699,1.735 C13.8249,1.845 14.1179,1.73 14.2279,1.476 C14.3369,1.222 14.2209,0.928 13.9679,0.817 C12.7129,0.275 11.3789,0 9.9999,0 C4.4859,0 -0.0001,4.485 -0.0001,10 C-0.0001,15.515 4.4859,20 9.9999,20 C15.5139,20 19.9999,15.515 19.9999,10 C19.9999,9.529 19.9669,9.056 19.9019,8.593 C19.8629,8.32 19.6149,8.128 19.3369,8.168 C19.0639,8.206 18.8729,8.46 18.9119,8.733 Z M9.9994,16.2006 C11.9324,16.2006 13.7084,15.3126 14.8704,13.7646 C15.0364,13.5436 14.9914,13.2316 14.7714,13.0656 C14.5504,12.8996 14.2374,12.9436 14.0704,13.1646 C13.0994,14.4576 11.6154,15.2006 9.9994,15.2006 C8.3844,15.2006 6.9004,14.4576 5.9294,13.1646 C5.7624,12.9446 5.4504,12.9006 5.2294,13.0656 C5.0084,13.2316 4.9634,13.5446 5.1294,13.7656 C6.2924,15.3126 8.0674,16.2006 9.9994,16.2006 Z M6.9097,9.4444 C7.0897,9.2544 7.1997,8.9944 7.1997,8.7334 C7.1997,8.6044 7.1797,8.4734 7.1197,8.3544 C7.0697,8.2234 6.9997,8.1244 6.9097,8.0244 C6.5297,7.6534 5.8697,7.6534 5.4897,8.0244 C5.3997,8.1144 5.3297,8.2234 5.2797,8.3544 C5.2297,8.4734 5.1997,8.6044 5.1997,8.7334 C5.1997,8.9944 5.3097,9.2544 5.4897,9.4444 C5.6797,9.6244 5.9397,9.7334 6.1997,9.7334 C6.4597,9.7334 6.7197,9.6244 6.9097,9.4444 Z M14.7998,8.7333 C14.7998,8.6043 14.7698,8.4733 14.7198,8.3543 C14.6698,8.2233 14.5998,8.1143 14.5098,8.0243 C14.1398,7.6533 13.4598,7.6533 13.0898,8.0243 C12.9998,8.1143 12.9298,8.2233 12.8798,8.3543 C12.8298,8.4733 12.7998,8.6043 12.7998,8.7333 C12.7998,8.9943 12.9098,9.2543 13.0898,9.4443 C13.2798,9.6243 13.5398,9.7333 13.7998,9.7333 C14.0598,9.7333 14.3198,9.6243 14.5098,9.4443 C14.6898,9.2543 14.7998,8.9943 14.7998,8.7333 Z M14.4331,4.7998 L16.4671,4.7998 L16.4671,6.8328 C16.4671,7.1098 16.6901,7.3328 16.9671,7.3328 C17.2431,7.3328 17.4671,7.1098 17.4671,6.8328 L17.4671,4.7998 L19.5001,4.7998 C19.7761,4.7998 20.0001,4.5758 20.0001,4.2998 C20.0001,4.0238 19.7761,3.7998 19.5001,3.7998 L17.4671,3.7998 L17.4671,1.7668 C17.4671,1.4898 17.2431,1.2668 16.9671,1.2668 C16.6901,1.2668 16.4671,1.4898 16.4671,1.7668 L16.4671,3.7998 L14.4331,3.7998 C14.1571,3.7998 13.9331,4.0238 13.9331,4.2998 C13.9331,4.5758 14.1571,4.7998 14.4331,4.7998 Z" id="fill" fill="#171B1F"></path>
    </g>
</svg>