<svg width="18" height="12" viewBox="0 0 18 12" xmlns="http://www.w3.org/2000/svg"><title>chat/reactions_12</title><path d="M6.0001.0003c3.309 0 6 2.69 6 6 0 3.309-2.691 6-6 6-3.309 0-6-2.691-6-6 0-3.31 2.691-6 6-6zm0 11c2.757 0 5-2.243 5-5 0-2.757-2.243-5-5-5-2.757 0-5 2.243-5 5 0 2.757 2.243 5 5 5zm-2-5c-.552 0-1-.448-1-1 0-.553.448-1 1-1 .552 0 1 .447 1 1 0 .552-.448 1-1 1zm4.0322 1.1563c.191-.198.508-.202.707-.011.197.193.202.51.01.707-.727.749-1.703 1.162-2.749 1.162-1.039 0-2.012-.408-2.739-1.149-.193-.197-.189-.515.008-.707.198-.192.514-.189.707.008 1.076 1.096 2.982 1.096 4.056-.01zm-.0322-3.1563c.552 0 1 .447 1 1 0 .552-.448 1-1 1-.552 0-1-.448-1-1 0-.553.448-1 1-1zm8.5113-1.998c.275 0 .5.225.5.5 0 .274-.225.5-.5.5l-1.501 0 0 1.5c0 .275-.225.5-.5.5-.274 0-.5-.225-.5-.5l0-1.5-1.5 0c-.275 0-.5-.226-.5-.5 0-.275.225-.5.5-.5l1.5 0 0-1.501c0-.275.226-.5.5-.5.275 0 .5.225.5.5l0 1.501 1.501 0z" fill="#000" fill-rule="evenodd"/></svg>