<svg width="22" height="16" viewBox="0 0 22 16" xmlns="http://www.w3.org/2000/svg"><title>chat/reactions_16</title><path d="M8 15c-3.86 0-7-3.141-7-7 0-3.859 3.14-7 7-7 3.86 0 7 3.141 7 7 0 3.859-3.14 7-7 7M8 0c4.411 0 8 3.589 8 8 0 4.411-3.589 8-8 8-4.411 0-8-3.589-8-8 0-4.411 3.589-8 8-8zM5.0044 7.9805c.261 0 .518-.105.705-.292.185-.187.291-.442.291-.705 0-.262-.106-.519-.291-.704-.373-.373-1.041-.372-1.41 0-.186.185-.293.441-.293.704 0 .263.107.518.293.705.186.187.442.292.705.292zm5.9936 0c.261 0 .518-.105.704-.292.186-.187.292-.442.292-.705 0-.262-.106-.519-.292-.704-.372-.373-1.04-.372-1.409 0-.187.185-.293.441-.293.704 0 .263.106.518.293.705.185.187.442.292.705.292zm.3282 2.2422c-.745 1.113-1.989 1.777-3.326 1.777-1.337 0-2.58-.664-3.326-1.776-.154-.23-.464-.291-.694-.137-.229.154-.29.464-.136.695.931 1.388 2.485 2.218 4.156 2.218 1.672 0 3.226-.83 4.157-2.22.153-.23.092-.539-.137-.695-.23-.154-.541-.091-.694.138zM20.5 2c.275 0 .5.225.5.5 0 .275-.225.5-.5.5L19 3l0 1.5c0 .275-.225.5-.5.5-.275 0-.5-.225-.5-.5L18 3l-1.5 0c-.275 0-.5-.225-.5-.5 0-.275.225-.5.5-.5L18 2l0-1.5c0-.275.225-.5.5-.5.275 0 .5.225.5.5L19 2l1.5 0z" fill="#000" fill-rule="evenodd"/></svg>