<svg width="12" height="12" viewBox="0 0 12 12" xmlns="http://www.w3.org/2000/svg"><title>phone/recents_12</title><path d="M6 0c3.30872727 0 6 2.69127273 6 6 0 3.30872727-2.69127273 6-6 6-3.30872727 0-6-2.69127273-6-6 0-3.30872727 2.69127273-6 6-6zm0 11c2.75666667 0 5-2.24333333 5-5 0-2.75666667-2.24333333-5-5-5-2.75666667 0-5 2.24333333-5 5 0 2.75666667 2.24333333 5 5 5zm.4990673-4.619l1.26481919 1.265c.19481813.195.19481813.512 0 .707-.09790859.098-.22578921.147-.35366982.147-.12788061 0-.25576123-.049-.35267075-.147L5.73178361 7.027C5.58292259 6.878 5.5 6.678 5.5 6.466L5.5 4c0-.277.22379107-.5.49953365-.5.27574257 0 .49953365.223.49953365.5l0 2.381z" fill="#000" fill-rule="evenodd"/></svg>