<svg width="16" height="16" viewBox="0 0 16 16" xmlns="http://www.w3.org/2000/svg"><title>phone/recents_16</title><path d="M8.5 2C4.916 2 2 4.916 2 8.5 2 12.084 4.916 15 8.5 15c3.584 0 6.5-2.916 6.5-6.5C15 4.916 12.084 2 8.5 2m0 14C4.364 16 1 12.636 1 8.5 1 4.364 4.364 1 8.5 1 12.636 1 16 4.364 16 8.5c0 4.136-3.364 7.5-7.5 7.5zm2-4c.121 0 .241-.043.337-.131.204-.186.218-.503.032-.706L9 8.985 9 5.5c0-.276-.224-.5-.5-.5-.276 0-.5.224-.5.5l0 3.485c0 .252.098.488.26.65l1.871 2.202c.098.108.234.163.369.163z" fill="#000" fill-rule="evenodd"/></svg>