<?xml version="1.0" encoding="UTF-8"?>
<svg width="12px" height="12px" viewBox="0 0 12 12" version="1.1" xmlns="http://www.w3.org/2000/svg" xmlns:xlink="http://www.w3.org/1999/xlink">
    <!-- Generator: Sketch 60.1 (88133) - https://sketch.com -->
    <title>phone/recents-presence_12</title>
    <desc>Created with Sketch.</desc>
    <g id="phone/recents-presence_12" stroke="none" stroke-width="1" fill="none" fill-rule="evenodd">
        <path d="M6.0002,0.0002 C2.6912,0.0002 0.0002,2.6912 0.0002,6.0002 C0.0002,9.3082 2.6912,12.0002 6.0002,12.0002 C9.3082,12.0002 12.0002,9.3082 12.0002,6.0002 C12.0002,2.6912 9.3082,0.0002 6.0002,0.0002 M7.9712,8.6182 C7.8732,8.7162 7.7452,8.7642 7.6172,8.7642 C7.4902,8.7642 7.3622,8.7162 7.2642,8.6182 L5.7412,7.0962 C5.5882,6.9412 5.5002,6.7302 5.5002,6.5142 L5.5002,3.0882 C5.5002,2.8122 5.7232,2.5882 6.0002,2.5882 C6.2762,2.5882 6.5002,2.8122 6.5002,3.0882 L6.5002,6.4392 L7.9712,7.9112 C8.1662,8.1062 8.1662,8.4232 7.9712,8.6182" id="fill" fill="#171B1F"></path>
    </g>
</svg>