<?xml version="1.0" encoding="UTF-8"?>
<svg width="14px" height="14px" viewBox="0 0 14 14" version="1.1" xmlns="http://www.w3.org/2000/svg" xmlns:xlink="http://www.w3.org/1999/xlink">
    <!-- Generator: Sketch 60.1 (88133) - https://sketch.com -->
    <title>phone/recents-presence-stroke_14</title>
    <desc>Created with Sketch.</desc>
    <g id="phone/recents-presence-stroke_14" stroke="none" stroke-width="1" fill="none" fill-rule="evenodd">
        <path d="M7.0002,0.0002 C3.13891525,0.0002 0.0002,3.13891525 0.0002,7.0002 C0.0002,10.8608042 3.13923464,14.0002 7.0002,14.0002 C10.8604847,14.0002 14.0002,10.8604847 14.0002,7.0002 C14.0002,3.13923464 10.8608042,0.0002 7.0002,0.0002 Z M7.0002,1.0002 C10.3082,1.0002 13.0002,3.6912 13.0002,7.0002 C13.0002,10.3082 10.3082,13.0002 7.0002,13.0002 C3.6912,13.0002 1.0002,10.3082 1.0002,7.0002 C1.0002,3.6912 3.6912,1.0002 7.0002,1.0002 Z M8.9712,9.6182 C8.8732,9.7162 8.7452,9.7642 8.6172,9.7642 C8.4902,9.7642 8.3622,9.7162 8.2642,9.6182 L6.7412,8.0962 C6.5882,7.9412 6.5002,7.7302 6.5002,7.5142 L6.5002,4.0882 C6.5002,3.8122 6.7232,3.5882 7.0002,3.5882 C7.2762,3.5882 7.5002,3.8122 7.5002,4.0882 L7.5002,7.4392 L8.9712,8.9112 C9.1662,9.1062 9.1662,9.4232 8.9712,9.6182" id="fill" fill="#171B1F"></path>
    </g>
</svg>