<svg width="14" height="14" viewBox="0 0 14 14" xmlns="http://www.w3.org/2000/svg"><title>phone/recents_14</title><path d="M7.0001 13.0002c-3.309 0-6-2.691-6-6 0-3.309 2.691-6 6-6 3.309 0 6 2.691 6 6 0 3.309-2.691 6-6 6m0-13c3.86 0 7 3.14 7 7 0 3.86-3.14 7-7 7-3.86 0-7-3.14-7-7 0-3.86 3.14-7 7-7zm.5 7.6064l0-4.111c0-.276-.224-.5-.5-.5-.276 0-.5.224-.5.5l0 4.111c0 .232.094.459.258.624l1.388 1.387c.097.097.225.146.353.146.128 0 .256-.049.354-.146.195-.196.195-.512 0-.707l-1.353-1.304z" fill="#000" fill-rule="evenodd"/></svg>