<svg width="20" height="20" viewBox="0 0 20 20" xmlns="http://www.w3.org/2000/svg"><title>video-controls/record_20</title><path d="M10 1c-4.962 0-9 4.038-9 9 0 4.962 4.038 9 9 9 4.962 0 9-4.038 9-9 0-4.962-4.038-9-9-9m0 19C4.486 20 0 15.514 0 10 0 4.486 4.486 0 10 0c5.514 0 10 4.486 10 10 0 5.514-4.486 10-10 10zm0-13c1.654 0 3 1.346 3 3 0 1.654-1.346 3-3 3-1.654 0-3-1.346-3-3 0-1.654 1.346-3 3-3zm0 7c2.206 0 4-1.794 4-4 0-2.206-1.794-4-4-4-2.206 0-4 1.794-4 4 0 2.206 1.794 4 4 4z" fill="#000" fill-rule="evenodd"/></svg>