<svg width="12" height="12" viewBox="0 0 12 12" xmlns="http://www.w3.org/2000/svg"><title>video-controls/record_12</title><path d="M6 12c-3.3137085 0-6-2.6862915-6-6 0-3.3137085 2.6862915-6 6-6 3.3137085 0 6 2.6862915 6 6 0 3.3137085-2.6862915 6-6 6zm0-1c2.76142375 0 5-2.23857625 5-5 0-2.76142375-2.23857625-5-5-5-2.76142375 0-5 2.23857625-5 5 0 2.76142375 2.23857625 5 5 5zm0-2.5C4.61928813 8.5 3.5 7.38071187 3.5 6c0-1.38071187 1.11928813-2.5 2.5-2.5 1.38071187 0 2.5 1.11928813 2.5 2.5 0 1.38071187-1.11928813 2.5-2.5 2.5zm0-1c.82842712 0 1.5-.67157288 1.5-1.5 0-.82842712-.67157288-1.5-1.5-1.5-.82842712 0-1.5.67157288-1.5 1.5 0 .82842712.67157288 1.5 1.5 1.5z" fill-rule="nonzero" fill="#000"/></svg>