<svg width="14" height="14" viewBox="0 0 14 14" xmlns="http://www.w3.org/2000/svg"><title>video-controls/record_14</title><path d="M7 13c3.3137085 0 6-2.6862915 6-6 0-3.3137085-2.6862915-6-6-6-3.3137085 0-6 2.6862915-6 6 0 3.3137085 2.6862915 6 6 6zm0 1c-3.86599325 0-7-3.1340068-7-7 0-3.86599325 3.13400675-7 7-7 3.8659932 0 7 3.13400675 7 7 0 3.8659932-3.1340068 7-7 7zm0-5c-1.1045695 0-2-.8954305-2-2 0-1.1045695.8954305-2 2-2 1.1045695 0 2 .8954305 2 2 0 1.1045695-.8954305 2-2 2zm0 1c1.65685425 0 3-1.34314575 3-3 0-1.65685425-1.34314575-3-3-3-1.65685425 0-3 1.34314575-3 3 0 1.65685425 1.34314575 3 3 3z"/></svg>