<svg width="12" height="12" viewBox="0 0 12 12" xmlns="http://www.w3.org/2000/svg"><title>meetings/recurring_12</title><path d="M10.499 6.5122c.27.062.438.329.377.599-.52 2.29-2.525 3.889-4.876 3.889-1.606 0-3.067-.758-4-2.013l0 1.513c0 .275-.225.5-.5.5-.275 0-.5-.225-.5-.5l0-3c0-.275.225-.5.5-.5l3 0c.275 0 .5.225.5.5 0 .275-.225.5-.5.5l-1.954 0c.715 1.236 2.011 2 3.454 2 1.881 0 3.485-1.28 3.901-3.111.061-.269.329-.438.598-.377zM11 4.4995c0 .069-.014.135-.04.195-.05.119-.147.215-.266.266-.06.025-.125.039-.194.039l-3 0c-.275 0-.5-.225-.5-.5 0-.274.225-.5.5-.5l1.954 0c-.715-1.236-2.012-2-3.454-2-2.044 0-3.753 1.53-3.976 3.559-.028.256-.245.445-.497.445-.018 0-.036-.001-.054-.003-.275-.03-.473-.276-.443-.551.278-2.537 2.415-4.45 4.97-4.45 1.606 0 3.066.758 4 2.013l0-1.513c0-.274.225-.5.5-.5.275 0 .5.226.5.5l0 3z" fill="#000" fill-rule="evenodd"/></svg>