<svg width="14" height="14" viewBox="0 0 14 14" xmlns="http://www.w3.org/2000/svg"><title>meetings/recurring_14</title><path d="M12.5 1.0004c.275 0 .5.225.5.5l0 4c0 .274-.225.5-.5.5l-4 0c-.275 0-.5-.226-.5-.5 0-.275.225-.5.5-.5l3.072 0c-.787-1.792-2.576-3-4.572-3-2.603 0-4.743 1.951-4.979 4.54-.024.26-.242.454-.498.454-.015 0-.03 0-.045-.002-.275-.025-.478-.268-.453-.543.284-3.106 2.852-5.449 5.975-5.449 2.044 0 3.908 1.057 5 2.701l0-2.201c0-.275.225-.5.5-.5zm.0449 6.0019c.275.025.479.269.453.543-.283 3.106-2.851 5.449-5.974 5.449-2.061 0-3.936-1.074-5.024-2.741l0 2.247c0 .274-.225.5-.5.5-.275 0-.5-.226-.5-.5l0-4c0-.275.225-.5.5-.5l4 0c.275 0 .5.225.5.5 0 .274-.225.5-.5.5l-3.047 0c.787 1.789 2.576 2.994 4.571 2.994 2.602 0 4.743-1.951 4.978-4.54.023-.26.242-.454.498-.454.015 0 .029 0 .045.002z" fill="#000" fill-rule="evenodd"/></svg>