<?xml version="1.0" encoding="UTF-8"?>
<svg width="20px" height="20px" viewBox="0 0 20 20" version="1.1" xmlns="http://www.w3.org/2000/svg" xmlns:xlink="http://www.w3.org/1999/xlink">
    <!-- Generator: Sketch 61.2 (89653) - https://sketch.com -->
    <title>meetings/recurring_20</title>
    <desc>Created with Sketch.</desc>
    <g id="meetings/recurring_20" stroke="none" stroke-width="1" fill="none" fill-rule="evenodd">
        <path d="M19.5127,10.0605 C19.2407,10.0485 18.9997,10.2535 18.9847,10.5305 C18.7087,15.2795 14.7617,18.9995 9.9997,18.9995 C6.2517,18.9995 2.9677,16.7335 1.6227,13.2935 L7.2057,13.2935 C7.4827,13.2935 7.7057,13.0705 7.7057,12.7935 C7.7057,12.5175 7.4827,12.2935 7.2057,12.2935 L0.4997,12.2935 C0.2237,12.2935 -0.000300000006,12.5175 -0.000300000006,12.7935 L-0.000300000006,19.4995 C-0.000300000006,19.7765 0.2237,19.9995 0.4997,19.9995 C0.7767,19.9995 0.9997,19.7765 0.9997,19.4995 L0.9997,14.3625 C2.6487,17.7875 6.0967,19.9995 9.9997,19.9995 C15.2907,19.9995 19.6767,15.8655 19.9827,10.5875 C19.9987,10.3125 19.7887,10.0765 19.5127,10.0605 M19.5,-6.90114632e-13 C19.224,-6.90114632e-13 19,0.224 19,0.5 L19,5.637 C17.352,2.213 13.903,-6.90114632e-13 10,-6.90114632e-13 C4.708,-6.90114632e-13 0.323,4.134 0.017,9.412 C0.000999999995,9.688 0.211,9.924 0.487,9.939 C0.497,9.94 0.507,9.941 0.517,9.941 C0.779,9.941 1,9.736 1.015,9.47 C1.291,4.72 5.238,1 10,1 C13.748,1 17.032,3.267 18.377,6.706 L12.794,6.706 C12.518,6.706 12.294,6.93 12.294,7.206 C12.294,7.482 12.518,7.706 12.794,7.706 L19.5,7.706 C19.776,7.706 20,7.482 20,7.206 L20,0.5 C20,0.224 19.776,-6.90114632e-13 19.5,-6.90114632e-13" id="fill" fill="#171B1F"></path>
    </g>
</svg>