<svg width="20" height="20" viewBox="0 0 20 20" xmlns="http://www.w3.org/2000/svg"><title>phone/redial_20</title><path d="M10 0C6.097 0 2.648 2.213 1 5.637L1 .5C1 .224.776 0 .5 0 .224 0 0 .224 0 .5l0 7c0 .276.224.5.5.5l7 0c.276 0 .5-.224.5-.5 0-.276-.224-.5-.5-.5L1.52 7C2.789 3.398 6.147 1 10 1c4.962 0 9 4.038 9 9 0 4.962-4.038 9-9 9-4.762 0-8.709-3.72-8.985-8.47-.015-.276-.251-.481-.528-.47-.276.016-.486.253-.47.528C.323 15.866 4.708 20 10 20c5.514 0 10-4.486 10-10 0-5.514-4.486-10-10-10" fill="#000" fill-rule="evenodd"/></svg>