<svg width="24" height="24" viewBox="0 0 24 24" xmlns="http://www.w3.org/2000/svg"><title>phone/redial_24</title><path d="M12 0C7.184 0 2.892 2.856 1 7.204L1 .5C1 .224.776 0 .5 0 .224 0 0 .224 0 .5l0 8c0 .276.224.5.5.5l8 0c.276 0 .5-.224.5-.5 0-.276-.224-.5-.5-.5L1.758 8C3.399 3.793 7.442 1 12 1c6.065 0 11 4.935 11 11 0 6.065-4.935 11-11 11-5.889 0-10.715-4.604-10.988-10.481-.013-.276-.252-.503-.523-.476-.275.013-.489.246-.475.522C.311 18.978 5.576 24 12 24c6.617 0 12-5.383 12-12 0-6.617-5.383-12-12-12" fill="#000" fill-rule="evenodd"/></svg>