<svg width="16" height="16" viewBox="0 0 16 16" xmlns="http://www.w3.org/2000/svg"><title>common-actions/refresh_16</title><path d="M10 5.5c0 .275.225.5.5.5l5 0c.275 0 .5-.225.5-.5l0-5c0-.275-.225-.5-.5-.5-.275 0-.5.225-.5.5l0 3.646C13.607 1.632 10.919 0 8 0 3.589 0 0 3.589 0 8c0 4.411 3.589 8 8 8 4.195 0 7.702-3.276 7.982-7.458.019-.275-.19-.514-.465-.532-.242-.014-.514.19-.533.466C14.739 12.134 11.671 15 8 15c-3.859 0-7-3.14-7-7 0-3.86 3.141-7 7-7 2.694 0 5.152 1.594 6.303 4L10.5 5c-.275 0-.5.225-.5.5" fill="#000" fill-rule="evenodd"/></svg>