<svg width="16" height="16" viewBox="0 0 16 16" xmlns="http://www.w3.org/2000/svg"><title>common-actions/remove_16</title><path d="M8 0c4.411 0 8 3.589 8 8 0 4.411-3.589 8-8 8-4.411 0-8-3.589-8-8 0-4.411 3.589-8 8-8zm0 15c3.86 0 7-3.14 7-7 0-3.86-3.14-7-7-7-3.86 0-7 3.14-7 7 0 3.86 3.14 7 7 7zM4 8c0-.27614237.23079681-.5.50043583-.5l6.99912837 0C11.7759472 7.5 12 7.73193359 12 8c0 .27614237-.2307968.5-.5004358.5l-6.99912837 0C4.22405275 8.5 4 8.26806641 4 8z" fill="#000" fill-rule="evenodd"/></svg>