<svg width="12" height="12" viewBox="0 0 12 12" fill="none" xmlns="http://www.w3.org/2000/svg">
<path d="M7.498 6.44859C7.407 6.44859 7.316 6.42359 7.236 6.37459C7.09 6.28359 7 6.12359 7 5.95159V3.51159C7 3.30959 7.122 3.12659 7.309 3.05159C7.642 2.91559 7.642 2.91559 9.484 4.79059C9.596 4.90459 9.646 5.06359 9.62 5.22059C9.593 5.37859 9.493 5.51259 9.351 5.58359L9.043 5.73759L9.306 6.27759C9.425 6.52459 9.321 6.82159 9.074 6.94159C9.004 6.97559 8.931 6.99159 8.857 6.99159C8.672 6.99159 8.494 6.88759 8.408 6.71059L8.151 6.18059L7.721 6.39559C7.65 6.43059 7.574 6.44859 7.498 6.44859ZM10.5 0.9998L1.5 1C0.67 1 0 1.67 0 2.5V7.5C0 8.33 0.67 9 1.5 9H4.5V9.33333C4.5 9.63933 4.27878 10 3.99939 10C3.72 10 3.5 10.22 3.5 10.5C3.5 10.78 3.72 11 4 11C4.18667 11 5.52 11 8 11C8.28 11 8.5 10.78 8.5 10.5C8.5 10.22 8.28 10 8 10C7.72 10 7.5 9.63933 7.5 9.33333V9H10.5C11.33 9 12 8.33 12 7.5V2.5C12 1.67 11.33 0.9998 10.5 0.9998ZM6.59 10H5.41C5.47612 9.82644 5.5 9.69422 5.5 9.5V9H6.5V9.5C6.5 9.69422 6.52388 9.82644 6.59 10ZM11 7.5C11 7.78 10.78 8 10.5 8H1.5C1.22 8 1 7.806 1 7.5V2.5C1 2.23 1.23 2 1.5 2H10.5C10.78 2 11 2.22 11 2.5V7.5ZM7.996 4.69959V5.14759L8.293 4.99959C8.193 4.89859 8.094 4.79859 7.996 4.69959Z" fill="#121212"/>
</svg>
