<svg width="10" height="10" viewBox="0 0 10 10" fill="none" xmlns="http://www.w3.org/2000/svg">
<path d="M8.49978 0.999512H1.50018C0.673083 0.999512 0.000183105 1.67241 0.000183105 2.49951V6.49951C0.000183105 7.32711 0.673083 8.00001 1.50018 8.00001H3.50018V8.50001C3.50018 8.77541 3.27608 9.00001 3.00018 9.00001C2.72378 9.00001 2.50018 9.22361 2.50018 9.50001C2.50018 9.77641 2.72378 10 3.00018 10H6.99968C7.27608 10 7.49968 9.77641 7.49968 9.50001C7.49968 9.22361 7.27608 9.00001 6.99978 9.00001C6.72438 9.00001 6.49978 8.77541 6.49978 8.50001V7.50001C6.49978 7.22361 6.27618 7.00001 5.99978 7.00001H1.50018C1.22428 7.00001 1.00018 6.77541 1.00018 6.49951V2.49951C1.00018 2.22361 1.22428 1.99951 1.50018 1.99951H8.49968C8.77508 1.99951 8.99968 2.22361 8.99968 2.49951V3.49951C8.99968 3.77591 9.22328 3.99951 9.49968 3.99951C9.77608 3.99951 9.99968 3.77591 9.99968 3.49951V2.49951C9.99978 1.67241 9.32688 0.999512 8.49978 0.999512ZM5.49968 8.00001V8.50001C5.49968 8.67481 5.52998 8.84381 5.58508 9.00001H4.41478C4.46998 8.84381 4.50018 8.67481 4.50018 8.50001V8.00001H5.49968ZM7.17346 3.62072C7.43355 3.80561 7.9855 4.27928 9.02163 5.2185C9.13678 5.32288 9.18363 5.4915 9.15763 5.6485C9.13063 5.8065 9.03909 5.95785 8.89709 6.02885L8.5876 6.1798L9.1578 7.34966C9.2768 7.59666 9.1728 7.89366 8.9258 8.01366C8.8558 8.04766 8.7828 8.06366 8.7088 8.06366C8.5238 8.06366 8.3458 7.95966 8.2598 7.78266L7.69247 6.61638L7.38151 6.76357C7.23785 6.83401 7.06051 6.81491 6.91153 6.73524C6.77606 6.66281 6.66713 6.54303 6.66713 6.37103C6.66713 6.37103 6.53421 4.1345 6.53421 3.9325C6.53421 3.7305 6.54856 3.61403 6.73549 3.52286C6.92242 3.43168 6.96232 3.47064 7.17346 3.62072Z" fill="#121212"/>
</svg>
