<?xml version="1.0" encoding="utf-8"?>
<!-- Generator: Adobe Illustrator 23.0.2, SVG Export Plug-In . SVG Version: 6.00 Build 0)  -->
<svg version="1.1" id="Layer_1" xmlns="http://www.w3.org/2000/svg" xmlns:xlink="http://www.w3.org/1999/xlink" x="0px" y="0px"
	 viewBox="0 0 10 10" style="enable-background:new 0 0 10 10;" xml:space="preserve">
<style type="text/css">
	.st0{fill:#121212;}
</style>
<g>
	<path class="st0" d="M8.5,1h-7C0.7,1,0,1.7,0,2.5v4C0,7.3,0.7,8,1.5,8h2v0.5C3.5,8.8,3.3,9,3,9C2.7,9,2.5,9.2,2.5,9.5
		C2.5,9.8,2.7,10,3,10h4c0.3,0,0.5-0.2,0.5-0.5C7.5,9.2,7.3,9,7,9C6.7,9,6.5,8.8,6.5,8.5v-1C6.5,7.2,6.3,7,6,7H1.5
		C1.2,7,1,6.8,1,6.5v-4C1,2.2,1.2,2,1.5,2h7C8.8,2,9,2.2,9,2.5v1C9,3.8,9.2,4,9.5,4C9.8,4,10,3.8,10,3.5v-1C10,1.7,9.3,1,8.5,1z
		 M4.5,8.5V8h1v0.5c0,0.2,0,0.3,0.1,0.5H4.4C4.5,8.8,4.5,8.7,4.5,8.5z"/>
	<path class="st0" d="M8.6,6.2L8.9,6C9,6,9.1,5.8,9.2,5.6c0-0.2,0-0.3-0.1-0.4C8,4.3,7.4,3.8,7.2,3.6C7,3.5,6.9,3.4,6.7,3.5
		C6.5,3.6,6.5,3.7,6.5,3.9c0,0.2,0.1,2.4,0.1,2.4c0,0.2,0.1,0.3,0.2,0.4c0.1,0.1,0.3,0.1,0.5,0l0.3-0.1l0.6,1.2
		C8.3,8,8.5,8.1,8.7,8.1c0.1,0,0.1,0,0.2,0c0.2-0.1,0.4-0.4,0.2-0.7L8.6,6.2z"/>
</g>
</svg>
