<?xml version="1.0" encoding="UTF-8"?>
<svg width="16px" height="16px" viewBox="0 0 16 16" version="1.1" xmlns="http://www.w3.org/2000/svg" xmlns:xlink="http://www.w3.org/1999/xlink">
    <!-- Generator: Sketch 60.1 (88133) - https://sketch.com -->
    <title>meetings/remote-desktop-control_16</title>
    <desc>Created with Sketch.</desc>
    <g id="meetings/remote-desktop-control_16" stroke="none" stroke-width="1" fill="none" fill-rule="evenodd">
        <path d="M14.368,1 L1.632,1 C0.732,1 0,1.733 0,2.633 L0,10.868 C0,11.768 0.732,12.5 1.632,12.5 L6.34,12.5 C6.34,12.501 6.339,12.501 6.339,12.502 L6.346,13.189 C6.344,13.38 6.289,14 5.692,14 C5.416,14 5.192,14.224 5.192,14.5 C5.192,14.777 5.416,15 5.692,15 L10.308,15 C10.584,15 10.808,14.777 10.808,14.5 C10.808,14.224 10.584,14 10.308,14 C9.711,14 9.656,13.38 9.654,13.188 L9.647,12.5 L14.368,12.5 C15.268,12.5 16,11.768 16,10.868 L16,2.633 C16,1.733 15.268,1 14.368,1 L14.368,1 Z M8.654,13.193 C8.654,13.44 8.705,13.728 8.82,14 L7.18,14 C7.295,13.726 7.346,13.437 7.346,13.188 L7.339,12.5 L8.647,12.5 C8.647,12.501 8.647,12.501 8.647,12.502 L8.654,13.193 Z M15,10.868 C15,11.217 14.716,11.5 14.368,11.5 L1.632,11.5 C1.284,11.5 1,11.217 1,10.868 L1,2.633 C1,2.284 1.284,2 1.632,2 L14.368,2 C14.716,2 15,2.284 15,2.633 L15,10.868 Z M9.9273,3.4121 C9.7763,3.2781 9.4943,3.2371 9.3123,3.3271 C9.1393,3.4111 9.0033,3.6361 9.0003,3.8321 L9.0003,3.8321 L9.0073,8.3821 C9.0073,8.6021 9.1193,8.8021 9.3063,8.9171 C9.4073,8.9791 9.5203,9.0111 9.6343,9.0111 C9.7313,9.0111 9.8273,8.9881 9.9173,8.9431 L10.9913,8.4021 L11.7553,9.7471 C11.8473,9.9091 12.0163,10.0001 12.1903,10.0001 C12.2743,10.0001 12.3593,9.9791 12.4373,9.9351 C12.6773,9.7991 12.7613,9.4931 12.6243,9.2531 L11.8853,7.9511 L12.8613,7.4601 C13.0413,7.3681 13.1673,7.1951 13.1983,6.9951 C13.2293,6.7961 13.1623,6.5921 13.0183,6.4511 L9.9273,3.4121 Z M10.0063,7.7781 L10.0013,4.8871 L11.9473,6.8001 L10.0063,7.7781 Z" id="fill" fill="#171B1F"></path>
    </g>
</svg>