<svg width="24" height="24" viewBox="0 0 24 24" xmlns="http://www.w3.org/2000/svg"><title>chat/reply_24</title><path d="M1.2651 12l9.735 8.4 0-4.9c0-.133.053-.261.148-.355.095-.094.214-.128.356-.145l1 .008c4.587 0 7.946 2.587 10.438 5.173-.567-6.312-5.212-10.934-11.462-11.181-.268-.011-.48-.231-.48-.5l0-4.908L1.2651 12zm22.226 10c-.142 0-.28-.053-.374-.159-2.581-2.884-5.859-5.833-10.617-5.833l-.5-.004 0 5.488c0 .196-.114.373-.292.455-.178.08-.387.052-.535-.076l-11-9.493c-.11-.094-.173-.232-.173-.378 0-.145.063-.283.173-.378l11-9.5c.148-.128.358-.158.535-.077.178.082.292.259.292.455l0 5.527c6.982.514 12 6.101 12 13.465 0 .101-.031.2-.088.283-.087.127-.232.214-.386.224-.011.001-.023.001-.035.001z" fill-rule="evenodd"/></svg>