<svg width="12" height="12" viewBox="0 0 12 12" xmlns="http://www.w3.org/2000/svg"><title>chat/reply_12</title><path d="M5.60595189 6.99994802l-.10894076 0c-.27585002 0-.49972829.22400291-.49972829.5000065l0 1.87702439-3.7509605-3.37704388 3.7509605-3.37704388 0 1.87702439c0 .13200171.05197174.26000337.14592066.3540046.09394892.0930012.2208799.14600189.35380763.14600189 2.49864142 0 4.60949367 1.67902182 5.27513177 3.96805157-1.41523051-1.24801622-3.25123222-1.96802558-5.16619101-1.96802558m6.26659271 3.81504958c.0319826-.03600047.0589679-.07300095.0779576-.11600151.0019989-.00400005.0039978-.00900012.0049973-.01300017.0429766-.1000013.0579685-.20900272.0309831-.31600411-.0659641-3.35604361-2.68354086-6.09807924-5.98974319-6.35108252l0-2.519032737c0-.19700256-.11593696-.376004886-.29583914-.4570059384-.17990219-.0800010396-.39078752-.0460005978-.53770764.0850011044L.164910334 5.62793019C.0599673941 5.72293143 0 5.85793318 0 5.99993503c0 .14200184.0599673941.2770036.164910334.37200483l4.998282296 4.50005848C5.25614209 10.95599943 5.37607688 11 5.49701113 11c.0689625 0 .137925-.01400018.20388914-.04300056.17990218-.08100105.29583914-.26000338.29583914-.45700594l0-2.47703218c2.00291096.11800153 3.87789149 1.11501448 5.08023769 2.73703556.0879522.14100183.2378707.24000312.4167734.24000312.1039435 0 .1958935-.04000052.27585-.09400122.0089952-.00600008.0209886-.00400005.0299837-.01000013.0099946-.00700009.0149919-.01900025.023987-.02700035.0179902-.01600021.0329821-.03500046.0489734-.0540007" fill="#000" fill-rule="evenodd"/></svg>