<?xml version="1.0" encoding="UTF-8"?>
<svg width="12px" height="12px" viewBox="0 0 12 12" version="1.1" xmlns="http://www.w3.org/2000/svg" xmlns:xlink="http://www.w3.org/1999/xlink">
    <!-- Generator: Sketch 59.1 (86144) - https://sketch.com -->
    <title>reply-list_12</title>
    <desc>Created with Sketch.</desc>
    <g id="Icons-Webex" stroke="none" stroke-width="1" fill="none" fill-rule="evenodd">
        <g id="chat/reply-list_12" fill="#171B1F">
            <path d="M11.5001229,11.0004452 C11.7761229,11.0004452 12.0001229,11.2244452 12.0001229,11.5004452 C12.0001229,11.7764452 11.7761229,12.0004452 11.5001229,12.0004452 L11.5001229,12.0004452 L7.00012293,12.0004452 C6.72412293,12.0004452 6.50012293,11.7764452 6.50012293,11.5004452 C6.50012293,11.2244452 6.72412293,11.0004452 7.00012293,11.0004452 L7.00012293,11.0004452 Z M5.14612293,0.146445175 C5.28912293,0.00344517537 5.50512293,-0.0395548246 5.69112293,0.0384451754 C5.87812293,0.115445175 6.00012293,0.298445175 6.00012293,0.500445175 L6.00012293,0.500445175 L6.00012293,3.49244518 C7.21312293,3.48844518 9.72412293,3.59344518 11.3541229,5.67744518 C11.5251229,5.89444518 11.4861229,6.20844518 11.2691229,6.37844518 C11.0511229,6.54844518 10.7361229,6.50944518 10.5671229,6.29344518 C9.10512293,4.42544518 6.74912293,4.47444518 5.74012293,4.49744518 L5.74012293,4.49744518 L5.50012293,4.50044518 C5.22412293,4.50044518 5.00012293,4.27644518 5.00012293,4.00044518 L5.00012293,4.00044518 L5.00012293,1.70744518 L1.22612293,5.48144518 L5.00012293,8.87744518 L5.00012293,7.50044518 C5.00012293,7.22444518 5.22412293,7.00044518 5.50012293,7.00044518 C5.77612293,7.00044518 6.00012293,7.22444518 6.00012293,7.50044518 L6.00012293,7.50044518 L6.00012293,10.0004452 C6.00012293,10.1974452 5.88412293,10.3764452 5.70412293,10.4574452 C5.63812293,10.4864452 5.56912293,10.5004452 5.50012293,10.5004452 C5.37912293,10.5004452 5.25912293,10.4564452 5.16612293,10.3724452 L5.16612293,10.3724452 L0.166122931,5.87244518 C0.0631229309,5.78044518 0.00412293089,5.65044518 0.000122930886,5.51344518 C-0.00287706911,5.37644518 0.0491229309,5.24444518 0.146122931,5.14644518 L0.146122931,5.14644518 Z M11.5001229,9.00044518 C11.7761229,9.00044518 12.0001229,9.22444518 12.0001229,9.50044518 C12.0001229,9.77644518 11.7761229,10.0004452 11.5001229,10.0004452 L11.5001229,10.0004452 L7.00012293,10.0004452 C6.72412293,10.0004452 6.50012293,9.77644518 6.50012293,9.50044518 C6.50012293,9.22444518 6.72412293,9.00044518 7.00012293,9.00044518 L7.00012293,9.00044518 Z M11.5001229,7.00044518 C11.7761229,7.00044518 12.0001229,7.22444518 12.0001229,7.50044518 C12.0001229,7.77644518 11.7761229,8.00044518 11.5001229,8.00044518 L11.5001229,8.00044518 L7.00012293,8.00044518 C6.72412293,8.00044518 6.50012293,7.77644518 6.50012293,7.50044518 C6.50012293,7.22444518 6.72412293,7.00044518 7.00012293,7.00044518 L7.00012293,7.00044518 Z" id="fill"></path>
        </g>
    </g>
</svg>