<svg width="16" height="16" viewBox="0 0 16 16" xmlns="http://www.w3.org/2000/svg"><title>navigation/return_16</title><path d="M9.5003 7.9998l-7.793 0 5.155-5.146c.195-.195.195-.512 0-.707-.196-.196-.512-.195-.708-.001l-6.008 6c-.093.094-.146.221-.146.354 0 .133.053.26.146.354l6.008 6c.098.097.226.146.354.146.128 0 .256-.049.354-.147.195-.195.195-.512 0-.707l-5.155-5.146 7.793 0c3.032 0 5.5 2.468 5.5 5.5 0 .276.224.5.5.5.276 0 .5-.224.5-.5 0-3.584-2.916-6.5-6.5-6.5" fill="#000" fill-rule="evenodd"/></svg>