<svg width="24" height="24" viewBox="0 0 24 24" xmlns="http://www.w3.org/2000/svg"><title>settings/ringtone_24</title><path d="M20 5.2217l-12 3 0-3.723c0-.502.341-.938.826-1.06l9.815-2.404c.33-.084.671-.01.938.199.268.209.421.523.421.862l0 3.126zm-1.5 14.766c-.827 0-1.5-.673-1.5-1.5 0-.828.673-1.5 1.5-1.5.827 0 1.5.672 1.5 1.5 0 .827-.673 1.5-1.5 1.5zm-13 3c-.827 0-1.5-.673-1.5-1.5 0-.828.673-1.5 1.5-1.5.827 0 1.5.672 1.5 1.5 0 .827-.673 1.5-1.5 1.5zM21 2.0957c0-.649-.294-1.251-.806-1.65-.512-.4-1.166-.54-1.794-.381l-9.815 2.403C7.652 2.7017 7 3.5367 7 4.4987l0 15.001c-.419-.317-.935-.512-1.5-.512-1.378 0-2.5 1.121-2.5 2.5 0 1.379 1.122 2.5 2.5 2.5 1.378 0 2.5-1.121 2.5-2.5l0-12.235 12-3 0 10.245c-.419-.316-.935-.51-1.5-.51-1.381 0-2.5 1.119-2.5 2.5 0 1.38 1.119 2.5 2.5 2.5 1.38 0 2.5-1.12 2.5-2.5 0-.029-.007-.056-.008-.083.001-.015.008-.028.008-.042l0-16.267z" fill="#000" fill-rule="evenodd"/></svg>