<?xml version="1.0" encoding="UTF-8"?>
<svg width="24px" height="24px" viewBox="0 0 24 24" version="1.1" xmlns="http://www.w3.org/2000/svg" xmlns:xlink="http://www.w3.org/1999/xlink">
    <!-- Generator: Sketch 61.2 (89653) - https://sketch.com -->
    <title>content/rotate-content_24</title>
    <desc>Created with Sketch.</desc>
    <g id="content/rotate-content_24" stroke="none" stroke-width="1" fill="none" fill-rule="evenodd">
        <path d="M21.5,10.0713 L7.5,10.0713 C6.122,10.0713 5,11.1933 5,12.5713 L5,21.5713 C5,22.9493 6.122,24.0713 7.5,24.0713 L21.5,24.0713 C22.878,24.0713 24,22.9493 24,21.5713 L24,12.5713 C24,11.1933 22.878,10.0713 21.5,10.0713 L21.5,10.0713 Z M23,21.5713 C23,22.3983 22.327,23.0713 21.5,23.0713 L7.5,23.0713 C6.673,23.0713 6,22.3983 6,21.5713 L6,12.5713 C6,11.7443 6.673,11.0713 7.5,11.0713 L21.5,11.0713 C22.327,11.0713 23,11.7443 23,12.5713 L23,21.5713 Z M9.6108,7.2178 C9.4158,7.4128 9.4158,7.7298 9.6108,7.9248 C9.7088,8.0228 9.8368,8.0718 9.9648,8.0718 C10.0918,8.0718 10.2198,8.0228 10.3178,7.9248 L13.8538,4.3888 C14.0488,4.1938 14.0488,3.8778 13.8538,3.6818 L10.3178,0.1468 C10.1228,-0.0492 9.8058,-0.0492 9.6108,0.1468 C9.4158,0.3418 9.4158,0.6578 9.6108,0.8538 L12.3368,3.5798 C5.5198,3.6678 -0.0002,9.2338 -0.0002,16.0718 C-0.0002,16.3478 0.2238,16.5718 0.4998,16.5718 C0.7768,16.5718 0.9998,16.3478 0.9998,16.0718 C0.9998,9.8168 6.0218,4.7218 12.2438,4.5838 L9.6108,7.2178 Z" id="fill" fill="#171B1F"></path>
    </g>
</svg>