<svg width="12" height="12" viewBox="0 0 12 12" fill="none" xmlns="http://www.w3.org/2000/svg">
<path d="M5.85355 0.146447C5.65829 -0.0488156 5.34171 -0.0488156 5.14645 0.146447C4.95118 0.341709 4.95118 0.658291 5.14645 0.853553L5.79629 1.50339C2.57689 1.6108 0 4.25447 0 7.5C0 7.77614 0.223858 8 0.5 8C0.776142 8 1 7.77614 1 7.5C1 4.80943 3.12517 2.61522 5.7885 2.50439L5.14645 3.14645C4.95118 3.34171 4.95118 3.65829 5.14645 3.85355C5.34171 4.04882 5.65829 4.04882 5.85355 3.85355L7.35355 2.35355C7.54882 2.15829 7.54882 1.84171 7.35355 1.64645L5.85355 0.146447Z" fill="#121212"/>
<path fill-rule="evenodd" clip-rule="evenodd" d="M4 5C3.17157 5 2.5 5.67157 2.5 6.5V10.5C2.5 11.3284 3.17157 12 4 12H10.5C11.3284 12 12 11.3284 12 10.5V6.5C12 5.67157 11.3284 5 10.5 5H4ZM3.5 6.5C3.5 6.22386 3.72386 6 4 6H10.5C10.7761 6 11 6.22386 11 6.5V10.5C11 10.7761 10.7761 11 10.5 11H4C3.72386 11 3.5 10.7761 3.5 10.5V6.5Z" fill="#121212"/>
</svg>
