<svg width="32" height="32" viewBox="0 0 32 32" xmlns="http://www.w3.org/2000/svg" xmlns:xlink="http://www.w3.org/1999/xlink"><title>social/rss-circle_32</title><path d="M21.297 22.958l2.989 0C24.267 14.74 17.613 8.081 9.399 8.052l0 2.989c3.172.013 6.153 1.254 8.398 3.5 2.25 2.249 3.492 5.237 3.5 8.417zm-5.061 0l2.988 0c-.039-5.41-4.416-9.787-9.825-9.826l0 2.989c3.752.039 6.798 3.084 6.837 6.837zm-4.82 0c1.114 0 2.016-.904 2.016-2.017 0-1.114-.902-2.017-2.016-2.017-1.115 0-2.017.903-2.017 2.017 0 1.113.902 2.017 2.017 2.017zM16 0c8.837 0 16 7.163 16 16 0 8.837-7.163 16-16 16-8.837 0-16-7.163-16-16C0 7.163 7.163 0 16 0z" fill="#000" fill-rule="evenodd"/></svg>
