<svg width="16" height="16" viewBox="0 0 16 16" xmlns="http://www.w3.org/2000/svg"><title>alerts-and-notifications/running-application_16</title><path d="M8 0c4.411 0 8 3.589 8 8 0 4.411-3.589 8-8 8-4.411 0-8-3.589-8-8 0-4.411 3.589-8 8-8zm0 15c3.86 0 7-3.141 7-7 0-3.859-3.14-7-7-7-3.86 0-7 3.141-7 7 0 3.859 3.14 7 7 7zm3.5-11c.276 0 .5.224.5.5L12 6l0 .5c0 .275-.225.5-.5.5L11 7 9.5 7c-.276 0-.5-.224-.5-.5 0-.276.224-.5.5-.5l.712 0C9.649 5.375 8.864 5 8 5 6.346 5 5 6.346 5 8c0 1.654 1.346 3 3 3 1.155 0 2.22-.675 2.714-1.72.118-.249.413-.354.666-.238.249.118.356.416.238.666C10.959 11.101 9.54 12 8 12c-2.206 0-4-1.794-4-4 0-2.206 1.794-4 4-4 1.172 0 2.248.503 3 1.363l0-.863c0-.276.224-.5.5-.5z" fill="#000" fill-rule="evenodd"/></svg>