<svg width="14" height="14" viewBox="0 0 14 14" fill="none" xmlns="http://www.w3.org/2000/svg">
<path d="M4.5 13H1.718C1.322 13 1 12.696 1 12.323V11H4.5C4.77614 11 5 10.7761 5 10.5C5 10.2239 4.77614 10 4.5 10H1V3.677C1 3.303 1.322 3 1.718 3H12.281C12.677 3 13 3.303 13 3.677V5.49982C13 5.77596 13.2239 5.99982 13.5 5.99982C13.7761 5.99982 14 5.77596 14 5.49982V3.49982C14 3.42463 13.9834 3.35333 13.9537 3.28936C13.774 2.55075 13.0923 2 12.281 2H10.974V0.5C10.974 0.224 10.751 0 10.474 0C10.198 0 9.974 0.224 9.974 0.5V2H3.974V0.5C3.974 0.224 3.751 0 3.474 0C3.198 0 2.974 0.224 2.974 0.5V2H1.718C0.77 2 0 2.752 0 3.677V12.323C0 13.248 0.77 14 1.718 14L4.51366 13.9998C4.78349 13.9926 5 13.7716 5 13.5C5 13.2239 4.77614 13 4.5 13Z" fill="#121212"/>
<path d="M13.8536 9.35355C14.0488 9.15829 14.0488 8.84171 13.8536 8.64645C13.6583 8.45118 13.3417 8.45118 13.1464 8.64645L9 12.7929L6.85355 10.6464C6.65829 10.4512 6.34171 10.4512 6.14645 10.6464C5.95118 10.8417 5.95118 11.1583 6.14645 11.3536L8.64645 13.8536C8.84171 14.0488 9.15829 14.0488 9.35355 13.8536L13.8536 9.35355Z" fill="#121212"/>
</svg>
