<svg width="16" height="16" viewBox="0 0 16 16" fill="none" xmlns="http://www.w3.org/2000/svg">
<path fill-rule="evenodd" clip-rule="evenodd" d="M1.718 14.9925H4.5C4.77614 14.9925 5 15.2162 5 15.4922C5 15.7637 4.78349 15.9846 4.51366 15.9917L4 15.9919H1.718C0.77 15.9919 0 15.2403 0 14.3158V3.67515C0 2.75061 0.77 1.99899 1.718 1.99899H3V0.499748C3 0.223887 3.224 0 3.5 0C3.777 0 4 0.223887 4 0.499748V1.99899H12V0.499748C12 0.223887 12.224 0 12.5 0C12.777 0 13 0.223887 13 0.499748V1.99899H14.281C15.0923 1.99899 15.7903 2.54947 15.97 3.2877C15.97 3.2877 16 3.42291 16 3.49806V5.49705C16 5.77305 15.7761 5.9968 15.5 5.9968C15.2239 5.9968 15 5.77305 15 5.49705V3.67515C15 3.30134 14.677 2.99849 14.281 2.99849H1.718C1.322 2.99849 1 3.30134 1 3.67515V11.994H4.5C4.77614 11.994 5 12.2177 5 12.4937C5 12.7697 4.77614 12.9935 4.5 12.9935H1V14.3158C1 14.6886 1.322 14.9925 1.718 14.9925ZM10.1397 15.143C10.0897 15.183 10.0597 15.243 10.0297 15.303C10.0097 15.363 9.98975 15.423 9.98975 15.493C9.98975 15.623 10.0497 15.753 10.1397 15.843C10.2297 15.943 10.3597 15.993 10.4897 15.993C10.5597 15.993 10.6187 15.983 10.6797 15.953C10.7397 15.933 10.7997 15.893 10.8497 15.843C10.9397 15.753 10.9897 15.623 10.9897 15.493C10.9897 15.363 10.9397 15.233 10.8497 15.143C10.6597 14.953 10.3197 14.953 10.1397 15.143ZM8.056 6.48427C8.736 5.8246 9.637 5.47178 10.59 5.50177C12.47 5.55474 14 7.09296 14 8.93204C14 10.4726 13.0948 11.2063 12.4339 11.7419L12.433 11.7426C12.419 11.7541 12.405 11.7655 12.391 11.7769C12.2855 11.8628 12.1823 11.947 12.086 12.0335L11.575 12.4892C11.21 12.8151 11 13.2699 11 13.7376C11 14.0135 10.777 14.2374 10.5 14.2374C10.223 14.2374 10 14.0135 10 13.7376C10 12.986 10.331 12.2594 10.909 11.7436L11.419 11.2889C11.54 11.1809 11.67 11.075 11.803 10.967L11.804 10.9662C12.4196 10.4667 13 9.99591 13 8.93204C13 7.65068 11.883 6.53824 10.562 6.50126C9.878 6.46528 9.237 6.73015 8.754 7.20091C8.267 7.67367 8 8.31335 8 9C8 9.27587 7.777 9.49975 7.5 9.49975C7.223 9.49975 7 9.27587 7 9C7 8.04049 7.375 7.14694 8.056 6.48427Z" fill="#121212"/>
</svg>
