<svg width="16" height="16" viewBox="0 0 16 16" fill="none" xmlns="http://www.w3.org/2000/svg">
<path fill-rule="evenodd" clip-rule="evenodd" d="M1.718 15H4.5C4.77614 15 5 15.2239 5 15.5C5 15.7716 4.78349 15.9926 4.51366 15.9998L1.718 16C0.77 16 0 15.248 0 14.323V3.677C0 2.752 0.77 2 1.718 2H2.974V0.5C2.974 0.224 3.198 0 3.474 0C3.751 0 3.974 0.224 3.974 0.5V2H11.974V0.5C11.974 0.224 12.198 0 12.474 0C12.751 0 12.974 0.224 12.974 0.5V2H14.281C15.0923 2 15.774 2.55075 15.9537 3.28936C15.9834 3.35333 16 3.42463 16 3.49982V5.49982C16 5.77596 15.7761 5.99982 15.5 5.99982C15.2239 5.99982 15 5.77596 15 5.49982V3.677C15 3.303 14.677 3 14.281 3H1.718C1.322 3 1 3.303 1 3.677V12H4.5C4.77614 12 5 12.2239 5 12.5C5 12.7761 4.77614 13 4.5 13H1V14.323C1 14.696 1.322 15 1.718 15ZM15.8536 9.64645C16.0488 9.84171 16.0488 10.1583 15.8536 10.3536L10.3536 15.8536C10.1583 16.0488 9.84171 16.0488 9.64645 15.8536L6.14645 12.3536C5.95118 12.1583 5.95118 11.8417 6.14645 11.6464C6.34171 11.4512 6.65829 11.4512 6.85355 11.6464L10 14.7929L15.1464 9.64645C15.3417 9.45118 15.6583 9.45118 15.8536 9.64645Z" fill="#121212"/>
</svg>
