<svg width="16" height="16" viewBox="0 0 16 16" fill="none" xmlns="http://www.w3.org/2000/svg">
<path fill-rule="evenodd" clip-rule="evenodd" d="M4.5 15H1.718C1.322 15 1 14.696 1 14.323V13H4.5C4.77614 13 5 12.7761 5 12.5C5 12.2239 4.77614 12 4.5 12H1V3.677C1 3.303 1.322 3 1.718 3H14.281C14.677 3 15 3.303 15 3.677V5.49982C15 5.77596 15.2239 5.99982 15.5 5.99982C15.7761 5.99982 16 5.77596 16 5.49982V3.49982C16 3.42463 15.97 3.28936 15.97 3.28936C15.7903 2.55075 15.0923 2 14.281 2H13V0.5C13 0.224 12.777 0 12.5 0C12.224 0 12 0.224 12 0.5V2H4V0.5C4 0.224 3.777 0 3.5 0C3.224 0 3 0.224 3 0.5V2H1.718C0.77 2 0 2.752 0 3.677V14.323C0 15.248 0.77 16 1.718 16H4L4.51366 15.9998C4.78349 15.9926 5 15.7716 5 15.5C5 15.2239 4.77614 15 4.5 15ZM15.8536 10.359C16.0488 10.1625 16.0488 9.8439 15.8536 9.64739C15.6583 9.45087 15.3417 9.45087 15.1464 9.64739L10 14.8268L6.85355 11.6602C6.65829 11.4637 6.34171 11.4637 6.14645 11.6602C5.95118 11.8567 5.95118 12.1753 6.14645 12.3719L9.57574 15.8231C9.81005 16.059 10.19 16.059 10.4243 15.8231L15.8536 10.359Z" fill="black"/>
</svg>
