<svg width="14" height="14" viewBox="0 0 14 14" fill="none" xmlns="http://www.w3.org/2000/svg">
<path fill-rule="evenodd" clip-rule="evenodd" d="M1.718 13H4.5C4.77614 13 5 13.2239 5 13.5C5 13.7716 4.78349 13.9926 4.51366 13.9998L1.718 14C0.77 14 0 13.248 0 12.323V3.677C0 2.752 0.77 2 1.718 2H3V0.5C3 0.224 3.224 0 3.5 0C3.777 0 4 0.224 4 0.5V2H10V0.5C10 0.224 10.224 0 10.5 0C10.777 0 11 0.224 11 0.5V2H12.281C13.0923 2 13.7903 2.55075 13.97 3.28936C13.97 3.28936 14 3.42463 14 3.49982V5.49982C14 5.77596 13.7761 5.99982 13.5 5.99982C13.2239 5.99982 13 5.77596 13 5.49982V3.677C13 3.303 12.677 3 12.281 3H1.718C1.322 3 1 3.303 1 3.677V10H4.5C4.77614 10 5 10.2239 5 10.5C5 10.7761 4.77614 11 4.5 11H1V12.323C1 12.696 1.322 13 1.718 13Z" fill="#121212"/>
<path fill-rule="evenodd" clip-rule="evenodd" d="M7.99209 7.4661C7.36606 8.0631 7.00005 8.89508 7.00005 9.78607C7.00005 11.559 8.44111 13 10.2132 13C11.1042 13 11.9363 12.634 12.5333 12.008C10.1422 11.765 8.2351 9.85807 7.99209 7.4661ZM10.2132 14C7.89009 14 6 12.11 6 9.78607C6 8.21809 6.86404 6.78912 8.2561 6.05813C8.41811 5.97113 8.61512 5.98313 8.76713 6.08513C8.91914 6.18813 9.00314 6.36512 8.98614 6.54812C8.97314 6.67912 8.96614 6.81312 8.96614 6.94711C8.96614 9.20108 10.7992 11.034 13.0533 11.034C13.1873 11.034 13.3193 11.027 13.4503 11.014C13.6344 10.987 13.8124 11.079 13.9144 11.232C14.0174 11.384 14.0284 11.581 13.9424 11.743C13.2103 13.136 11.7813 14 10.2132 14Z" fill="#121212"/>
</svg>
