<svg width="24" height="24" viewBox="0 0 24 24" xmlns="http://www.w3.org/2000/svg"><title>format/screen-toggle_24</title><path d="M1.5 9c-.276 0-.5-.224-.5-.5l0-5C1 2.122 2.122 1 3.5 1l5 0c.276 0 .5.224.5.5 0 .276-.224.5-.5.5l-5 0C2.673 2 2 2.673 2 3.5l0 5c0 .276-.224.5-.5.5zm21-8c.276 0 .5.224.5.5l0 7c0 .276-.224.5-.5.5-.276 0-.5-.224-.5-.5l0-5.793-7.146 7.147c-.098.097-.226.146-.354.146-.128 0-.256-.049-.354-.146-.195-.196-.195-.512 0-.708L21.293 2 15.5 2c-.276 0-.5-.224-.5-.5 0-.276.224-.5.5-.5l7 0zm0 14c.276 0 .5.224.5.5l0 5c0 1.378-1.122 2.5-2.5 2.5l-5 0c-.276 0-.5-.224-.5-.5 0-.276.224-.5.5-.5l5 0c.827 0 1.5-.673 1.5-1.5l0-5c0-.276.224-.5.5-.5zm-13.3535-.8535c.195-.195.512-.195.707 0 .195.195.195.512 0 .707l-7.146 7.147 5.793 0c.276 0 .5.223.5.5 0 .276-.224.5-.5.5l-7 0c-.277 0-.5-.224-.5-.5l0-7c0-.277.223-.5.5-.5.276 0 .5.223.5.5l0 5.792 7.146-7.146z" fill="#000" fill-rule="evenodd"/></svg>