<svg width="28" height="28" viewBox="0 0 28 28" xmlns="http://www.w3.org/2000/svg"><title>alerts-and-notifications/secure_28</title><path d="M22.015 9.9996c1.646 0 2.985 1.34 2.985 2.986l0 12.029c0 1.646-1.339 2.985-2.985 2.985l-16.03 0c-1.646 0-2.985-1.339-2.985-2.985l0-12.029c0-1.646 1.339-2.986 2.985-2.986l1.015 0 0-3c0-3.85 3.15-7 7-7 3.85 0 7 3.15 7 7l0 3 1.015 0zM24 25.0146l0-12.029c0-1.095-.891-1.986-1.985-1.986l-16.03 0c-1.094 0-1.985.891-1.985 1.986l0 12.029c0 1.095.891 1.985 1.985 1.985l16.03 0c1.094 0 1.985-.89 1.985-1.985zM8 6.9996l0 3 12 0 0-3c0-3.308-2.692-6-6-6-3.308 0-6 2.692-6 6zM14 18c.552 0 1 .448 1 1 0 .552-.448 1-1 1-.552 0-1-.448-1-1 0-.552.448-1 1-1z" fill="#000" fill-rule="evenodd"/></svg>