<?xml version="1.0" encoding="UTF-8"?>
<svg width="14px" height="14px" viewBox="0 0 14 14" version="1.1" xmlns="http://www.w3.org/2000/svg" xmlns:xlink="http://www.w3.org/1999/xlink">
    <!-- Generator: Sketch 60.1 (88133) - https://sketch.com -->
    <title>alerts-and-notifications/secure-circle-active_14</title>
    <desc>Created with Sketch.</desc>
    <g id="alerts-and-notifications/secure-circle-active_14" stroke="none" stroke-width="1" fill="none" fill-rule="evenodd">
        <path d="M7.0003,0.0004 C3.1403,0.0004 0.0003,3.1404 0.0003,7.0004 C0.0003,10.8594 3.1403,14.0004 7.0003,14.0004 C10.8603,14.0004 14.0003,10.8594 14.0003,7.0004 C14.0003,3.1404 10.8603,0.0004 7.0003,0.0004 L7.0003,0.0004 Z M9.6763,8.9854 C9.6763,9.5454 9.2203,10.0014 8.6603,10.0014 L5.3593,10.0014 C4.7993,10.0014 4.3433,9.5454 4.3433,8.9854 L4.3433,6.5844 C4.3433,6.0774 4.7233,5.6734 5.2093,5.5984 L5.2093,5.0804 C5.2093,3.6354 6.0803,2.9884 6.9443,2.9884 C8.0773,2.9884 8.8093,3.8094 8.8093,5.0804 L8.8093,5.5984 C9.2963,5.6734 9.6763,6.0774 9.6763,6.5844 L9.6763,8.9854 Z M5.3584,6.5679 L5.3424,8.9849 L8.6604,9.0009 L8.6764,6.5849 L8.6604,6.5679 L5.3584,6.5679 Z M7.8096,5.0801 C7.8096,4.3561 7.5176,3.9891 6.9436,3.9891 C6.4836,3.9891 6.2096,4.3971 6.2096,5.0801 L6.2096,5.5681 L7.8096,5.5681 L7.8096,5.0801 Z M7.4204,8.2329 L6.6254,8.2329 C6.3484,8.2329 6.1254,8.0089 6.1254,7.7329 C6.1254,7.4569 6.3484,7.2329 6.6254,7.2329 L7.4204,7.2329 C7.6964,7.2329 7.9204,7.4569 7.9204,7.7329 C7.9204,8.0089 7.6964,8.2329 7.4204,8.2329 L7.4204,8.2329 Z" id="fill" fill="#171B1F"></path>
    </g>
</svg>