<svg width="24" height="24" viewBox="0 0 24 24" xmlns="http://www.w3.org/2000/svg"><title>alerts-and-notifications/secure_24</title><path d="M18.541 9C19.897 9 21 10.103 21 11.459l0 10.082C21 22.897 19.897 24 18.541 24L5.459 24C4.103 24 3 22.897 3 21.541l0-10.082C3 10.103 4.103 9 5.459 9L6 9l0-2.99C6 2.696 8.696 0 12.01 0c3.315 0 6.011 2.696 6.011 6.01l0 2.99.52 0zM20 21.541l0-10.082c0-.805-.654-1.459-1.459-1.459L5.459 10C4.654 10 4 10.654 4 11.459l0 10.082C4 22.346 4.654 23 5.459 23l13.082 0c.805 0 1.459-.654 1.459-1.459zM7 6.01L7 9l10.021 0 0-2.99c0-2.762-2.248-5.01-5.011-5.01C9.248 1 7 3.248 7 6.01zM12 17c-.27614237 0-.5-.2238576-.5-.5 0-.2761424.22385763-.5.5-.5.27614237 0 .5.2238576.5.5 0 .2761424-.22385763.5-.5.5z" fill="#000" fill-rule="evenodd"/></svg>