<svg width="16" height="16" viewBox="0 0 16 16" xmlns="http://www.w3.org/2000/svg"><title>alerts-and-notifications/secure_16</title><path d="M12 6c1.104 0 2 .896 2 2l0 6c0 1.104-.896 2-2 2l-8 0c-1.104 0-2-.896-2-2l0-6c0-1.104.896-2 2-2l0-2c0-2.2 1.8-4 4-4 2.2 0 4 1.8 4 4l0 2zm1 8l0-6c0-.551-.449-1-1-1L4 7c-.551 0-1 .449-1 1l0 6c0 .551.449 1 1 1l8 0c.551 0 1-.449 1-1zm-5.3501-3.3501c.18-.19.51-.19.7 0 .1.09.15.22.15.35 0 .13-.05.26-.15.35-.09.1-.22.15-.35.15-.13 0-.26-.05-.35-.15-.1-.09-.15-.22-.15-.35 0-.13.05-.26.15-.35zM5 4l0 2 6 0 0-2c0-1.654-1.346-3-3-3-1.654 0-3 1.346-3 3z" fill="#000" fill-rule="evenodd"/></svg>