<?xml version="1.0" encoding="UTF-8"?>
<svg width="14px" height="14px" viewBox="0 0 14 14" version="1.1" xmlns="http://www.w3.org/2000/svg" xmlns:xlink="http://www.w3.org/1999/xlink">
    <!-- Generator: Sketch 60.1 (88133) - https://sketch.com -->
    <title>alerts-and-notifications/secure-circle_14</title>
    <desc>Created with Sketch.</desc>
    <g id="alerts-and-notifications/secure-circle_14" stroke="none" stroke-width="1" fill="none" fill-rule="evenodd">
        <path d="M0,7 C0,10.859 3.14,14 7,14 C10.86,14 14,10.859 14,7 C14,3.14 10.86,0 7,0 C3.14,0 0,3.14 0,7 Z M1,7 C1,3.691 3.691,1 7,1 C10.309,1 13,3.691 13,7 C13,10.309 10.309,13 7,13 C3.691,13 1,10.309 1,7 Z M8.8092,5.08 C8.8092,3.81 8.0772,2.989 6.9442,2.989 C6.0802,2.989 5.2092,3.635 5.2092,5.08 L5.2092,5.599 C4.7232,5.674 4.3432,6.077 4.3432,6.584 L4.3432,8.985 C4.3432,9.545 4.7992,10.001 5.3592,10.001 L8.6602,10.001 C9.2202,10.001 9.6762,9.545 9.6762,8.985 L9.6762,6.584 C9.6762,6.077 9.2962,5.674 8.8092,5.599 L8.8092,5.08 Z M8.6602,9.001 L5.3432,8.985 L5.3592,6.568 L8.6602,6.568 L8.6762,6.584 L8.6602,9.001 Z M7.8092,5.08 L7.8092,5.568 L6.2092,5.568 L6.2092,5.08 C6.2092,4.397 6.4842,3.989 6.9442,3.989 C7.5182,3.989 7.8092,4.356 7.8092,5.08 Z M6.6254,7.2324 C6.3484,7.2324 6.1254,7.4574 6.1254,7.7324 C6.1254,8.0094 6.3484,8.2324 6.6254,8.2324 L7.4204,8.2324 C7.6964,8.2324 7.9204,8.0094 7.9204,7.7324 C7.9204,7.4574 7.6964,7.2324 7.4204,7.2324 L6.6254,7.2324 Z" id="fill" fill="#171B1F"></path>
    </g>
</svg>