<svg width="16" height="16" viewBox="0 0 16 16" fill="none" xmlns="http://www.w3.org/2000/svg">
<path d="M11.5002 6.00006H11.0007V4.22711C11.0007 2.38727 9.71064 1.00006 8.00018 1.00006C6.29022 1.00006 5.00118 2.38727 5.00118 4.22711V6.00006H4.50018C3.96991 6.00058 3.46151 6.21146 3.08655 6.58642C2.71159 6.96138 2.5007 7.46979 2.50018 8.00006V13.0001C2.50071 13.5303 2.7116 14.0387 3.08655 14.4137C3.46151 14.7886 3.96991 14.9995 4.50018 15.0001H11.5002C12.0305 14.9995 12.5389 14.7886 12.9138 14.4137C13.2888 14.0387 13.4997 13.5303 13.5002 13.0001V8.00006C13.4997 7.46979 13.2888 6.96139 12.9138 6.58643C12.5389 6.21147 12.0305 6.00059 11.5002 6.00006ZM6.00118 4.22711C6.00118 2.93658 6.842 2.00006 8.00018 2.00006C9.15936 2.00006 10.0007 2.93656 10.0007 4.22711V6.00006H6.00118V4.22711ZM12.5002 13.0001C12.4998 13.2652 12.3944 13.5193 12.2069 13.7068C12.0194 13.8942 11.7653 13.9997 11.5002 14.0001H4.50018C4.23507 13.9997 3.98092 13.8942 3.79346 13.7068C3.60599 13.5193 3.50053 13.2652 3.50018 13.0001V8.00006C3.50053 7.73495 3.60599 7.4808 3.79346 7.29333C3.98092 7.10587 4.23507 7.0004 4.50018 7.00006H11.5002C11.7653 7.0004 12.0194 7.10587 12.2069 7.29333C12.3944 7.4808 12.4998 7.73495 12.5002 8.00006V13.0001Z" fill="black" fill-opacity="0.95"/>
</svg>
