<svg width="20" height="20" viewBox="0 0 20 20" xmlns="http://www.w3.org/2000/svg"><title>alerts-and-notifications/secure-active_20</title><path d="M15 7l.5 0C16.881 7 18 8.119 18 9.5l0 8c0 1.381-1.119 2.5-2.5 2.5l-11 0C3.119 20 2 18.881 2 17.5l0-8C2 8.119 3.119 7 4.5 7L5 7l0-2c0-2.757 2.243-5 5-5 2.757 0 5 2.243 5 5l0 2zM6 5l0 2 8 0 0-2c0-2.206-1.794-4-4-4-2.206 0-4 1.794-4 4zm4 9c.27614237 0 .5-.2238576.5-.5 0-.2761424-.22385763-.5-.5-.5-.27614237 0-.5.2238576-.5.5 0 .2761424.22385763.5.5.5z" fill="#000" fill-rule="evenodd"/></svg>