<svg width="24" height="24" viewBox="0 0 24 24" xmlns="http://www.w3.org/2000/svg"><title>video/selfview_24</title><path d="M23 18.5c0 .827-.673 1.5-1.5 1.5l-1.694 0-.541-1.932C18.8 16.262 17.138 15 15.224 15l-.255 0C16.194 14.088 17 12.641 17 11c0-2.757-2.243-5-5-5-2.757 0-5 2.243-5 5 0 1.641.806 3.088 2.031 4l-.255 0c-1.914 0-3.576 1.262-4.039 3.059L4.194 20 2.5 20c-.827 0-1.5-.673-1.5-1.5l0-13C1 4.673 1.673 4 2.5 4l19 0c.827 0 1.5.673 1.5 1.5l0 13zM8 11c0-2.206 1.794-4 4-4 2.206 0 4 1.794 4 4 0 2.206-1.794 4-4 4-2.206 0-4-1.794-4-4zm7.224 5c1.457 0 2.721.953 3.076 2.328L18.767 20 5.233 20l.47-1.682C6.055 16.953 7.319 16 8.776 16l6.448 0zM21.5 3l-19 0C1.122 3 0 4.121 0 5.5l0 13C0 19.879 1.122 21 2.5 21l19 0c1.378 0 2.5-1.121 2.5-2.5l0-13C24 4.121 22.878 3 21.5 3z" fill-rule="evenodd"/></svg>