<svg width="24" height="24" viewBox="0 0 24 24" xmlns="http://www.w3.org/2000/svg"><title>video/selfview_24</title><path d="M23 18.4999c0 .827-.673 1.5-1.5 1.5l-1.275 0-.395-1.913c-.319-1.789-1.949-3.087-3.875-3.087l-.981 0c1.225-.912 2.03-2.358 2.03-4.004 0-2.764-2.241-5.004-5.004-5.004-2.763 0-5.004 2.24-5.004 5.004 0 1.646.805 3.092 2.03 4.004l-.981 0c-1.926 0-3.556 1.298-3.874 3.077l-.382 1.923-1.289 0c-.827 0-1.5-.673-1.5-1.5l0-13c0-.827.673-1.5 1.5-1.5l19 0c.827 0 1.5.673 1.5 1.5l0 13zm-18.191 1.5l.345-1.737c.234-1.312 1.45-2.263 2.891-2.263l7.91 0c1.441 0 2.657.951 2.893 2.275l.356 1.725-14.395 0zm3.187-9.004c0-2.207 1.796-4.004 4.004-4.004 2.208 0 4.004 1.797 4.004 4.004 0 2.208-1.796 4.004-4.004 4.004-2.208 0-4.004-1.796-4.004-4.004zM21.5 2.9999l-19 0c-1.378 0-2.5 1.121-2.5 2.5l0 13c0 1.379 1.122 2.5 2.5 2.5l19 0c1.378 0 2.5-1.121 2.5-2.5l0-13c0-1.379-1.122-2.5-2.5-2.5z" fill="#000" fill-rule="evenodd"/></svg>