<svg width="12" height="12" viewBox="0 0 12 12" xmlns="http://www.w3.org/2000/svg"><title>email/send_12</title><path d="M1.0293 10.9399l.999-4.44 7.898 0-8.897 4.44zm-.001-9.88l8.898 4.44-7.898 0-1-4.44zm10.454 4.099L1.3393.0979c-.131-.066-.272-.098-.413-.098-.196 0-.39.064-.555.189-.288.217-.423.575-.352.94l1.096 4.871-1.097 4.88c-.07.356.065.712.352.93.165.126.36.19.559.19.138 0 .278-.032.409-.096l.001-.001 10.141-5.061c.321-.159.52-.482.52-.842 0-.36-.199-.683-.518-.841z" fill="#000" fill-rule="evenodd"/></svg>