<svg width="16" height="16" viewBox="0 0 16 16" xmlns="http://www.w3.org/2000/svg"><title>email/send_16</title><path d="M15.0001 8l0-.001 0 .001zm-13.977 6.992c-.014-.011-.028-.027-.021-.066L2.2491 8.5l11.825 0-13.051 6.492zm-.021-13.921c-.007-.037.007-.053.02-.063.007-.005.013-.008.019-.008l.015.004L14.0781 7.5l-11.829 0-1.247-6.429zm14.415 5.979L1.5021.109C1.3551.036 1.1981 0 1.0411 0c-.22 0-.438.071-.623.211-.324.246-.477.649-.398 1.053L1.3271 8l-1.307 6.735c-.079.404.074.807.398 1.053.185.14.403.212.623.212.157 0 .315-.037.461-.11l13.915-6.941c.359-.179.583-.543.583-.949 0-.407-.224-.771-.583-.95z" fill="#000" fill-rule="evenodd"/></svg>