<svg width="24" height="24" viewBox="0 0 24 24" xmlns="http://www.w3.org/2000/svg"><title>email/send_24</title><path d="M2.3141 21.9602c-.113.058-.203.002-.236-.025-.036-.029-.095-.092-.075-.188l1.9-8.757 17.335 0-18.924 8.97zm-.31-18.72c-.02-.101.038-.163.074-.191.033-.027.125-.081.236-.026l18.919 8.967-17.33 0-1.899-8.75zm20.335 8.167l-19.596-9.288c-.422-.2-.914-.145-1.282.142-.36.283-.528.735-.437 1.18.001.002.001.005.001.007l1.963 9.042-1.964 9.051c-.091.446.077.899.437 1.182.221.173.486.26.753.26.18 0 .359-.039.529-.119l19.596-9.288c.423-.201.686-.617.686-1.086-.001-.468-.264-.883-.686-1.083z" fill="#000" fill-rule="evenodd"/></svg>