<svg width="16" height="16" viewBox="0 0 16 16" xmlns="http://www.w3.org/2000/svg"><title>email/send_16</title><path d="M2.0052 14.9806l1.16-5.981 10.831 0-11.991 5.981zm-.043-12.983l12.05 6.002-10.849 0-1.201-6.002zm13.491 5.612l-13.045-6.507c-.33-.165-.72-.129-1.016.095-.304.231-.447.609-.373.987l1.225 6.315-1.225 6.315c-.074.378.069.756.373.987.173.131.378.198.584.198.147 0 .295-.034.432-.103l13.045-6.507c.337-.168.547-.509.547-.89 0-.381-.21-.722-.547-.89z" fill="#000" fill-rule="evenodd"/></svg>