<svg width="24" height="24" viewBox="0 0 24 24" xmlns="http://www.w3.org/2000/svg"><title>format/seperate_24</title><path d="M23 20c0 .551-.448 1-1 1l-10 0c-.552 0-1-.449-1-1l0-7c0-.551.448-1 1-1l10 0c.552 0 1 .449 1 1l0 7zm-13-7l0 4-7.5 0c-.827 0-1.5-.673-1.5-1.5l0-11C1 3.673 1.673 3 2.5 3l16 0c.827 0 1.5.673 1.5 1.5l0 6.5-8 0c-1.104 0-2 .896-2 2zm12-2l-1 0 0-6.5C21 3.125 19.875 2 18.5 2l-16 0C1.125 2 0 3.125 0 4.5l0 11C0 16.875 1.125 18 2.5 18l7.5 0 0 2c0 1.104.896 2 2 2l10 0c1.104 0 2-.896 2-2l0-7c0-1.104-.896-2-2-2z" fill="#000" fill-rule="evenodd"/></svg>