<svg width="100" height="100" viewBox="0 0 100 100" xmlns="http://www.w3.org/2000/svg"><title>network/server-circle_100</title><path d="M50 0c27.57 0 50 22.43 50 50 0 27.57-22.43 50-50 50-27.57 0-50-22.43-50-50C0 22.43 22.43 0 50 0zm0 99c27.019 0 49-21.981 49-49C99 22.981 77.019 1 50 1 22.981 1 1 22.981 1 50c0 27.019 21.981 49 49 49zm14.8-71c2.316 0 4.2 1.884 4.2 4.2l0 35.6c0 2.316-1.884 4.2-4.2 4.2l-29.6 0c-2.316 0-4.2-1.884-4.2-4.2l0-35.6c0-2.316 1.884-4.2 4.2-4.2l29.6 0zM68 42l0-9.8c0-1.764-1.436-3.2-3.2-3.2l-29.6 0c-1.764 0-3.2 1.436-3.2 3.2l0 9.8 36 0zM32 57l36 0 0-14-36 0 0 14zm36 10.8l0-9.8-36 0 0 9.8c0 1.764 1.436 3.2 3.2 3.2l29.6 0c1.764 0 3.2-1.436 3.2-3.2zM38.5 35c.276 0 .5.224.5.5 0 .276-.224.5-.5.5-.276 0-.5-.224-.5-.5 0-.276.224-.5.5-.5z" fill="#000" fill-rule="evenodd"/></svg>