<svg width="12" height="12" viewBox="0 0 12 12" xmlns="http://www.w3.org/2000/svg"><title>settings/settings-active_12</title><path d="M11.226 4.926c.463.156.774.588.774 1.076l0 .003c0 .49-.313.923-.777 1.077l-1.092.36-.192.464.514 1.027c.219.437.133.964-.213 1.309-.345.346-.87.431-1.309.216L7.9 9.943l-.463.193-.36 1.087c-.154.465-.586.777-1.076.777-.491 0-.923-.31-1.078-.773l-.364-1.089-.464-.192-1.023.514c-.436.221-.965.137-1.311-.211-.024-.023-.047-.052-.065-.079-.282-.268-.368-.793-.151-1.23l.515-1.034-.193-.464-1.09-.361C.312 6.927 0 6.495 0 6.005c0-.492.311-.924.774-1.079l1.095-.367.191-.463-.514-1.029c-.217-.437-.132-.963.213-1.308.346-.348.874-.435 1.311-.215l1.026.513.464-.192.363-1.089C5.077.312 5.509 0 5.999 0c.491 0 .923.312 1.078.776l.363 1.09.463.193 1.033-.515c.439-.219.961-.135 1.309.213.348.348.433.875.212 1.312L9.94 4.097l.192.464 1.094.365zM6 7.0001c.551 0 1-.449 1-1 0-.551-.449-1-1-1-.551 0-1 .449-1 1 0 .551.449 1 1 1z" fill="#000" fill-rule="evenodd"/></svg>