<svg width="24" height="24" viewBox="0 0 24 24" xmlns="http://www.w3.org/2000/svg"><title>settings/settings_24</title><path d="M7.975 18.603c.065 0 .129.013.191.038l1.852.765c.134.055.238.166.284.303l.912 2.727c.113.338.428.564.783.564.361 0 .676-.227.789-.565l.904-2.727c.046-.137.149-.248.283-.304l1.851-.769c.133-.055.286-.05.415.015l2.578 1.286c.318.158.701.097.953-.155.256-.256.318-.639.158-.958l-1.288-2.572c-.065-.129-.071-.281-.015-.416l.769-1.852c.056-.134.167-.237.305-.283l2.735-.906c.339-.112.566-.427.566-.784l0-.006c0-.355-.226-.67-.564-.783l-2.739-.916c-.138-.046-.248-.149-.304-.284l-.764-1.852c-.055-.134-.049-.286.016-.416l1.294-2.575c.161-.319.099-.702-.153-.955-.255-.255-.638-.317-.957-.158l-2.584 1.29c-.13.064-.283.069-.415.015l-1.85-.767c-.134-.056-.237-.167-.283-.304l-.91-2.734c-.113-.337-.428-.565-.784-.565-.361 0-.676.228-.788.565l-.91 2.732c-.046.137-.149.248-.283.304l-1.851.766c-.134.056-.285.05-.415-.014L5.184 4.066c-.319-.16-.702-.097-.954.155-.255.256-.318.639-.159.957l1.287 2.576c.065.129.071.281.015.414l-.764 1.85c-.055.134-.166.237-.303.283l-2.742.92c-.337.112-.564.427-.564.783 0 .364.228.679.566.791l2.732.906c.137.046.249.149.304.283l.769 1.849c.056.134.051.285-.014.415L4.07 18.835c-.159.318-.096.701.155.952.256.257.641.319.959.159l2.566-1.29c.071-.035.148-.053.225-.053M12.002 24c-.792 0-1.487-.501-1.736-1.246l-.84-2.511-1.43-.591-2.363 1.187c-.705.354-1.554.217-2.111-.34-.56-.561-.697-1.406-.348-2.109l1.186-2.384-.593-1.427-2.516-.835C.503 13.495 0 12.799 0 12.011c0-.793.501-1.489 1.246-1.739l2.526-.846.59-1.429-1.185-2.372c-.352-.704-.215-1.55.341-2.107.561-.561 1.41-.699 2.113-.347l2.368 1.185 1.429-.592.838-2.515C10.514.502 11.21 0 11.998 0c.792 0 1.488.502 1.737 1.249l.839 2.517 1.428.592 2.381-1.188c.704-.352 1.551-.213 2.107.343.561.561.697 1.409.343 2.114l-1.192 2.372.59 1.43 2.523.844c.745.249 1.246.945 1.246 1.731l0 .006c0 .789-.503 1.486-1.252 1.734l-2.518.834-.594 1.43 1.187 2.367c.352.705.215 1.552-.341 2.109-.561.56-1.407.699-2.111.347l-2.375-1.185-1.428.594-.833 2.51c-.248.748-.945 1.25-1.733 1.25zm-.0016-15.9995c2.206 0 4 1.794 4 4 0 2.206-1.794 4-4 4-2.206 0-4-1.794-4-4 0-2.206 1.794-4 4-4zm0 9c2.757 0 5-2.243 5-5 0-2.757-2.243-5-5-5-2.757 0-5 2.243-5 5 0 2.757 2.243 5 5 5z" fill="#000" fill-rule="evenodd"/></svg>