<svg width="18" height="18" viewBox="0 0 18 18" xmlns="http://www.w3.org/2000/svg"><title>settings/settings-active_18</title><path d="M9.0009 18c-.641 0-1.205-.406-1.407-1.01l-.602-1.8-.946-.39-1.694.85c-.574.287-1.26.176-1.711-.278-.453-.452-.565-1.138-.282-1.707l.851-1.709-.393-.945-1.803-.598c-.606-.201-1.014-.766-1.014-1.405 0-.643.406-1.206 1.01-1.408l1.81-.607.391-.946-.85-1.701c-.285-.571-.173-1.256.278-1.707.454-.455 1.141-.568 1.711-.282l1.697.85.947-.393.6-1.801C7.7959.407 8.3599 0 8.9979 0c.642 0 1.206.407 1.408 1.013l.601 1.803.946.393 1.706-.853c.573-.286 1.259-.172 1.708.28.454.453.565 1.14.278 1.712l-.854 1.7.39.947 1.809.605c.604.203 1.01.766 1.01 1.403l0 .005c0 .638-.408 1.203-1.015 1.404l-1.805.598-.393.947.851 1.697c.285.571.175 1.257-.277 1.709-.454.453-1.141.567-1.711.281l-1.701-.849-.946.392-.597 1.799c-.201.607-.766 1.014-1.405 1.014zM9 6C7.346 6 6 7.346 6 9c0 1.654 1.346 3 3 3 1.654 0 3-1.346 3-3 0-1.654-1.346-3-3-3z" fill="#000" fill-rule="evenodd"/></svg>