<svg width="12" height="12" viewBox="0 0 12 12" xmlns="http://www.w3.org/2000/svg"><title>settings/settings_12</title><path d="M11 6.005c0 .058-.037.109-.092.127L9.6 6.566c-.138.045-.249.148-.305.282l-.367.887c-.056.134-.05.286.014.415l.617 1.23c.026.052.015.114-.028.157-.04.041-.104.049-.154.026l-1.233-.616c-.13-.066-.282-.07-.415-.014l-.886.367c-.134.056-.237.167-.282.305l-.433 1.303c-.036.107-.22.111-.257.001l-.436-1.304c-.046-.138-.149-.249-.283-.304l-.886-.366c-.061-.026-.126-.038-.191-.038-.077 0-.155.017-.225.053l-1.228.618c-.051.025-.113.015-.092.05-.018-.027-.041-.056-.065-.079-.04-.041-.05-.102-.024-.154l.616-1.237c.064-.13.069-.282.013-.415l-.368-.885c-.056-.134-.166-.237-.304-.282l-1.306-.434C1.037 6.114 1 6.063 1 6.002c0-.058.037-.109.092-.127l1.311-.44c.137-.046.247-.15.303-.283l.365-.885c.056-.134.05-.285-.014-.414l-.616-1.232c-.025-.052-.016-.114.028-.158.04-.041.103-.051.155-.024l1.229.615c.13.064.281.07.415.014l.886-.366c.134-.056.237-.167.283-.304l.435-1.307c.036-.106.219-.11.256 0l.435 1.308c.046.137.149.248.283.304l.885.367c.134.055.285.051.415-.015l1.237-.617c.049-.025.112-.016.156.027.041.041.051.103.025.155l-.619 1.232c-.065.13-.071.281-.015.415l.365.886c.055.134.166.238.304.284l1.309.438c.055.018.092.069.092.127l0 .003zm.226-1.079c.463.156.774.588.774 1.076l0 .003c0 .49-.313.923-.777 1.077l-1.092.36-.192.464.514 1.027c.219.437.133.964-.213 1.309-.345.346-.87.431-1.309.216L7.9 9.943l-.463.193-.36 1.087c-.154.465-.586.777-1.076.777-.491 0-.923-.31-1.078-.773l-.364-1.089-.464-.192-1.023.514c-.436.221-.965.137-1.311-.211-.024-.023-.047-.052-.065-.079-.282-.268-.368-.793-.151-1.23l.515-1.034-.193-.464-1.09-.361C.312 6.927 0 6.495 0 6.005c0-.492.311-.924.774-1.079l1.095-.367.191-.463-.514-1.029c-.217-.437-.132-.963.213-1.308.346-.348.874-.435 1.311-.215l1.026.513.464-.192.363-1.089C5.077.312 5.509 0 5.999 0c.491 0 .923.312 1.078.776l.363 1.09.463.193 1.033-.515c.439-.219.961-.135 1.309.213.348.348.433.875.212 1.312L9.94 4.097l.192.464 1.094.365zM6 7.0001c-.551 0-1-.449-1-1 0-.551.449-1 1-1 .551 0 1 .449 1 1 0 .551-.449 1-1 1zm0-3c-1.103 0-2 .897-2 2 0 1.103.897 2 2 2 1.103 0 2-.897 2-2 0-1.103-.897-2-2-2z" fill="#000" fill-rule="evenodd"/></svg>