<svg width="8" height="8" viewBox="0 0 8 8" xmlns="http://www.w3.org/2000/svg"><title>settings/settings-active_8</title><path d="M7.38207724 3.145C7.75303087 3.269 8 3.613 8 4.001l0 .002c0 .391-.24996875.736-.62092238.858l-.61492314.203-.05799275.142.28996375.579c.17397826.346.10598676.765-.167979 1.042-.007999.009-.01799775.017-.02699662.025-.27396576.255-.67791526.315-1.01687289.148l-.58192726-.291-.14098238.059-.20297463.613c-.12498438.371-.46894138.619-.85789276.619-.38995126 0-.73490814-.247-.85889264-.616l-.20497438-.614-.14098238-.059-.57792776.29c-.3479565.175-.76890388.106-1.04386951-.169-.274965631-.275-.343957007-.694-.17097863-1.042l.28996376-.584-.05899263-.142-.614923135-.203C.248968879 4.738 0 4.394 0 4.003c0-.392.247969004-.736.61792276-.859l.61692288-.207.05899263-.142-.28996375-.58c-.173978257-.347-.105986756-.766.167979-1.042.27796525-.279.69791276-.346 1.04586926-.171l.57792776.289.14198226-.058.2039745-.615C3.26459193.249 3.60954881 0 3.99950006 0c.38995126 0 .73490814.249.85889264.618l.2039745.615.14198226.059.58192726-.291c.34695663-.174.76590426-.106 1.04286964.17.2759655.277.343957.697.16897887 1.045l-.29096363.58.05799276.142.61692288.207zM4.00050025 3C3.44822411 3 3 3.449 3 4c0 .551.44822411 1 1.00050025 1C4.55177589 5 5 4.551 5 4c0-.551-.44822411-1-.99949975-1z" fill="#000" fill-rule="evenodd"/></svg>