<svg width="14" height="14" viewBox="0 0 14 14" xmlns="http://www.w3.org/2000/svg"><title>settings/settings-active_14</title><path d="M7.0006 13.9996c-.541 0-1.016-.342-1.187-.852l-.443-1.326-.625-.258-1.247.627c-.484.241-1.064.147-1.445-.234-.023-.023-.046-.051-.064-.079-.318-.303-.412-.883-.172-1.363l.626-1.259-.26-.624-1.327-.44c-.513-.17-.857-.647-.857-1.186 0-.541.342-1.017.852-1.188l1.334-.448.259-.624-.626-1.252c-.24-.48-.148-1.06.232-1.441.024-.023.053-.047.08-.065.308-.319.887-.412 1.367-.172l1.249.625.624-.259.442-1.327c.171-.512.647-.855 1.186-.855.54 0 1.018.343 1.189.855l.441 1.329.624.259 1.257-.628c.482-.241 1.061-.147 1.442.233.384.387.477.967.234 1.448l-.628 1.251.258.625 1.332.447c.51.169.852.644.852 1.183l0 .004c0 .539-.343 1.016-.856 1.186l-1.33.439-.259.626.626 1.249c.241.484.148 1.064-.234 1.444-.384.382-.962.476-1.444.236l-1.252-.625-.625.259-.439 1.324c-.17.513-.647.856-1.186.856zM7 5c-1.103 0-2 .897-2 2 0 1.103.897 2 2 2 1.103 0 2-.897 2-2 0-1.103-.897-2-2-2z" fill="#000" fill-rule="evenodd"/></svg>