<svg width="16" height="16" viewBox="0 0 16 16" xmlns="http://www.w3.org/2000/svg"><title>content/shape-diagonal-arrowhead-dual_16</title><path d="M13.9614 2.3091c-.05-.123-.148-.22-.271-.271-.061-.025-.125-.038-.19-.038l-5 0c-.277 0-.5.224-.5.5 0 .276.223.5.5.5l3.793 0-9.293 9.293 0-3.793c0-.276-.224-.5-.5-.5-.277 0-.5.224-.5.5l0 5c0 .065.013.13.038.191.05.122.148.22.271.27.061.026.126.039.191.039l5 0c.276 0 .5-.224.5-.5 0-.276-.224-.5-.5-.5l-3.793 0 9.293-9.293 0 3.793c0 .276.223.5.5.5.276 0 .5-.224.5-.5l0-5c0-.065-.014-.13-.039-.191" fill="#000" fill-rule="evenodd"/></svg>