<svg width="20" height="20" viewBox="0 0 20 20" fill="none" xmlns="http://www.w3.org/2000/svg">
<path fill-rule="evenodd" clip-rule="evenodd" d="M16 3C16 3.07605 15.9683 3.23213 15.7382 3.4653C15.5038 3.70277 15.1151 3.96249 14.5558 4.20218C13.4409 4.68002 11.8308 5 10 5C8.16919 5 6.55915 4.68002 5.44417 4.20218C4.8849 3.96249 4.4962 3.70277 4.26184 3.4653C4.03173 3.23213 4 3.07605 4 3C4 2.92395 4.03173 2.76787 4.26184 2.5347C4.4962 2.29723 4.8849 2.03751 5.44417 1.79782C5.58354 1.73809 5.73065 1.68083 5.88496 1.62635C6.96511 1.24498 8.39804 1 10 1C11.602 1 13.0349 1.24498 14.115 1.62635C14.2693 1.68083 14.4165 1.73809 14.5558 1.79782C15.1151 2.03751 15.5038 2.29723 15.7382 2.5347C15.9683 2.76787 16 2.92395 16 3ZM16 4.54611C14.7751 5.41732 12.5463 6 10 6C7.45367 6 5.2249 5.41732 4 4.54611V17C4 17.076 4.03173 17.2321 4.26184 17.4653C4.4962 17.7028 4.8849 17.9625 5.44417 18.2022C6.55915 18.68 8.16919 19 10 19C11.8308 19 13.4409 18.68 14.5558 18.2022C15.1151 17.9625 15.5038 17.7028 15.7382 17.4653C15.9683 17.2321 16 17.076 16 17V4.54611ZM10 0C13.866 0 17 1.34315 17 3V17C17 18.6569 13.866 20 10 20C6.13401 20 3 18.6569 3 17V3C3 1.34315 6.13401 0 10 0Z" fill="#121212"/>
</svg>
