<svg width="28" height="28" viewBox="0 0 28 28" xmlns="http://www.w3.org/2000/svg"><title>activities/share-screen_28</title><path d="M27 15c0 1.103-.897 2-2 2l-15 0c-1.103 0-2-.897-2-2L8 5c0-1.103.897-2 2-2l15 0c1.103 0 2 .897 2 2l0 10zm-7 8c0 1.103-.897 2-2 2L3 25c-1.103 0-2-.897-2-2l0-10c0-1.103.897-2 2-2l4 0 0 4c0 1.657 1.343 3 3 3l10 0 0 5zm5-21L10 2C8.343 2 7 3.343 7 5l0 5-4 0c-1.657 0-3 1.343-3 3l0 10c0 1.657 1.343 3 3 3l15 0c1.657 0 3-1.343 3-3l0-5 4 0c1.657 0 3-1.343 3-3l0-10c0-1.657-1.343-3-3-3z" fill="#000" fill-rule="evenodd"/></svg>