<?xml version="1.0" encoding="UTF-8"?>
<svg width="14px" height="14px" viewBox="0 0 14 14" version="1.1" xmlns="http://www.w3.org/2000/svg" xmlns:xlink="http://www.w3.org/1999/xlink">
    <!-- Generator: Sketch 60.1 (88133) - https://sketch.com -->
    <title>activities/share-screen-presence_14</title>
    <desc>Created with Sketch.</desc>
    <g id="activities/share-screen-presence_14" stroke="none" stroke-width="1" fill="none" fill-rule="evenodd">
        <path d="M1.9997,4 L1.4997,4 C0.6717,4 -0.0003,4.671 -0.0003,5.5 L-0.0003,11.5 C-0.0003,12.328 0.6717,13 1.4997,13 L9.4997,13 C10.3287,13 10.9997,12.328 10.9997,11.5 L10.9997,11 L4.4997,11 C3.1217,11 1.9997,9.879 1.9997,8.5 L1.9997,4 Z M4.4997,1 C3.6717,1 2.9997,1.671 2.9997,2.5 L2.9997,4 L2.9997,8.5 C2.9997,9.328 3.6717,10 4.4997,10 L10.9997,10 L12.4997,10 C13.3287,10 13.9997,9.328 13.9997,8.5 L13.9997,2.5 C13.9997,1.671 13.3287,1 12.4997,1 L4.4997,1 Z" id="fill" fill="#171B1F"></path>
    </g>
</svg>