<svg width="10" height="10" viewBox="0 0 10 10" xmlns="http://www.w3.org/2000/svg"><title>activities/share-screen_10</title><path d="M9.00009999 5.66586683c0 .1839632-.1489851.33293341-.3329667.33293341l-5.33346666 0c-.1839816 0-.3329667-.14897021-.3329667-.33293341l0-4.33213358c0-.1839632.1489851-.33393321.3329667-.33393321l5.33346666 0c.1839816 0 .3329667.14997001.3329667.33393321l0 4.33213358zM6.99930007 8.66726655c0 .1839632-.1489851.33293341-.3329667.33293341l-5.33246676 0c-.1849815 0-.3339666-.14897021-.3339666-.33293341l0-4.33213358c0-.1839632.1489851-.33393321.3339666-.33393321l.66693331 0 0 1.66466707c0 .73485303.59794021 1.33273345 1.33286671 1.33273345l3.66563344 0 0 1.66866627zM8.66713329 0L3.33366663 0c-.7349265 0-1.33286671.598880224-1.33286671 1.33373325l0 1.66766647-.66693331 0C.597940206 3.00139972 0 3.60027994 0 4.33513297l0 4.33213358C0 9.40211958.597940206 10 1.33386661 10l5.33246676 0c.7349265 0 1.33286671-.59788042 1.33286671-1.33273345l0-1.66866627.66793321 0C9.40205979 6.99860028 10 6.40071986 10 5.66586683l0-4.33213358C10 .598880224 9.40205979 0 8.66713329 0z" fill="#000" fill-rule="evenodd"/></svg>