<svg width="24" height="24" viewBox="0 0 24 24" xmlns="http://www.w3.org/2000/svg"><title>common-actions/share-c-native-iph_24</title><path d="M8.3533 4.8541c-.195.195-.512.195-.707 0-.195-.195-.195-.512 0-.707l3.996-4c.046-.046.101-.082.163-.108.061-.026.126-.039.191-.039.065 0 .128.013.191.039.061.026.115.062.162.108l3.994 4c.197.195.197.512 0 .707-.194.195-.51.195-.705 0l-3.147-3.146 0 13.792c0 .276-.225.5-.5.5-.276 0-.5-.224-.5-.5l.005-13.792-3.143 3.146zm10.0215 3.1455c1.448 0 2.625 1.178 2.625 2.625l0 10.75c0 1.447-1.177 2.625-2.625 2.625l-12.75 0c-1.447 0-2.625-1.178-2.625-2.625l0-10.75c0-1.447 1.178-2.625 2.625-2.625l2.875 0c.275 0 .5.225.5.5 0 .275-.225.5-.5.5l-2.925 0c-.868 0-1.575.706-1.575 1.574l0 10.852c0 .868.707 1.574 1.575 1.574l12.85 0c.868 0 1.575-.706 1.575-1.574l0-10.852c0-.868-.707-1.574-1.575-1.574l-2.925 0c-.274 0-.5-.225-.5-.5 0-.275.226-.5.5-.5l2.875 0z" fill="#000" fill-rule="evenodd"/></svg>