<svg width="14" height="14" viewBox="0 0 14 14" xmlns="http://www.w3.org/2000/svg"><title>common-actions/share-c-native-ios_14</title><path d="M5.877 2.8294c-.195.195-.512.195-.707 0-.195-.195-.195-.512 0-.707L7.147.1454c.015-.015.036-.022.053-.036.034-.026.068-.054.109-.071.122-.051.26-.051.382 0 .041.017.075.045.109.071.017.014.038.021.054.036l2 2c.195.196.195.512 0 .707-.098.098-.226.147-.354.147-.128 0-.256-.049-.353-.147L8 1.7064l0 6.793c0 .275-.225.5-.5.5-.275 0-.5-.225-.5-.5l0-6.793-1.123 1.123zm4.624 2.1689c.828 0 1.5.672 1.5 1.5l0 6.001c0 .828-.672 1.5-1.5 1.5l-6.001 0c-.828 0-1.5-.672-1.5-1.5l0-6.001c0-.828.672-1.5 1.5-1.5l0 .001 1 0c.275 0 .5.225.5.5 0 .275-.225.5-.5.5l-1 0-.002 0c-.274.001-.498.225-.498.499l0 6.001c0 .275.225.5.5.5l6.001 0c.275 0 .5-.225.5-.5l0-6.001c0-.275-.225-.5-.5-.5l-1.001.001c-.275 0-.5-.225-.5-.5 0-.275.225-.5.5-.5l1.001-.001z" fill="#000" fill-rule="evenodd"/></svg>