<svg width="14" height="14" viewBox="0 0 14 14" xmlns="http://www.w3.org/2000/svg"><title>common-actions/share_14</title><path d="M7.1455 1.146c.098-.098.226-.146.354-.146.127 0 .256.048.354.146l3.999 4.001c.195.195.195.512 0 .707-.196.195-.512.195-.707 0l-3.147-3.148 0 7.794c0 .276-.225.5-.5.5-.277 0-.5-.224-.5-.5l0-7.792-3.147 3.147c-.195.195-.512.195-.707 0-.195-.195-.195-.512 0-.707l4.001-4.002zm5.353 10.8535c.276 0 .5.224.5.5 0 .276-.224.5-.5.5l-9.999 0c-.276 0-.5-.224-.5-.5 0-.276.224-.5.5-.5l9.999 0z" fill="#000" fill-rule="evenodd"/></svg>