<svg width="120" height="120" viewBox="0 0 120 120" xmlns="http://www.w3.org/2000/svg"><title>activities/share-screen_120</title><path d="M116 66c0 4.962-4.038 9-9 9l-66 0c-4.962 0-9-4.038-9-9l0-47c0-4.962 4.038-9 9-9l66 0c4.962 0 9 4.038 9 9l0 47zm-28 35c0 4.962-4.038 9-9 9l-66 0c-4.962 0-9-4.038-9-9l0-47c0-4.962 4.038-9 9-9l18 0 0 21c0 5.514 4.486 10 10 10l47 0 0 25zm19-92L41 9c-5.514 0-10 4.486-10 10l0 25-18 0C7.486 44 3 48.486 3 54l0 47c0 5.514 4.486 10 10 10l66 0c5.514 0 10-4.486 10-10l0-25 18 0c5.514 0 10-4.486 10-10l0-47c0-5.514-4.486-10-10-10z" fill="#000" fill-rule="evenodd"/></svg>