<?xml version="1.0" encoding="UTF-8"?>
<svg width="16px" height="16px" viewBox="0 0 16 16" version="1.1" xmlns="http://www.w3.org/2000/svg" xmlns:xlink="http://www.w3.org/1999/xlink">
    <!-- Generator: Sketch 60.1 (88133) - https://sketch.com -->
    <title>activities/share-screen-presence-stroke_16</title>
    <desc>Created with Sketch.</desc>
    <g id="activities/share-screen-presence-stroke_16" stroke="none" stroke-width="1" fill="none" fill-rule="evenodd">
        <path d="M13.5,1 C14.8260334,1 15.9100827,2.03100797 15.994685,3.33556096 L16,3.5 L16,9.5 C16,10.8253061 14.9687688,11.9100245 13.6644123,11.9946815 L13.5,12 L12.9993,12 L13,12.5 C13,13.8253061 11.9687688,14.9100245 10.6644123,14.9946815 L10.5,15 L2.5,15 C1.17492664,15 0.0899941312,13.9680704 0.00531964787,12.6643285 L0,12.5 L0,6.5 C0,5.17419914 1.03170618,4.08993593 2.33564474,4.00531616 L2.5,4 L2.9993,4 L3,3.5 C3,2.17419914 4.03170618,1.08993593 5.33564474,1.00531616 L5.5,1 L13.5,1 Z M2.5,5 L2.35560676,5.00686098 C1.64278771,5.07494871 1.07505312,5.64194749 1.00687075,6.35545044 L1,6.5 L1,12.5 L1.00687075,12.6443932 C1.07505312,13.3572123 1.64278771,13.9249469 2.35560676,13.9931292 L2.5,14 L10.5,14 L10.6445496,13.9931292 C11.3580525,13.9249469 11.9250513,13.3572123 11.993139,12.6443932 L12,12.5 L12,12 L5.5,12 L5.33592422,11.9946744 L5.17463859,11.9789187 C4.0029207,11.8259423 3.08309965,10.8583281 3.00533018,9.66418637 L3,9.5 L3,5 L2.5,5 Z M5.5,2 L5.35560676,2.00686098 C4.64278771,2.07494871 4.07505312,2.64194749 4.00687075,3.35545044 L4,3.5 L4,9.5 L4.00687075,9.64439324 C4.07050763,10.309691 4.56930999,10.8486041 5.21508243,10.9729371 L5.35560676,10.9931292 L5.5,11 L13.5,11 L13.6445496,10.9931292 C14.3580525,10.9249469 14.9250513,10.3572123 14.993139,9.64439324 L15,9.5 L15,3.5 L14.993139,3.35545044 C14.9250513,2.64194749 14.3580525,2.07494871 13.6445496,2.00686098 L13.5,2 L5.5,2 Z" id="fill" fill="#171B1F"></path>
    </g>
</svg>