<svg width="28" height="28" viewBox="0 0 28 28" xmlns="http://www.w3.org/2000/svg"><title>common-actions/share_28</title><path d="M7.35325 10.85325c-.195.195-.512.195-.707 0-.195-.195-.195-.512 0-.707l6.999-6.999c.047-.047.102-.084.164-.109.122-.051.259-.051.381 0 .062.025.117.062.164.109l6.999 6.999c.195.195.195.512 0 .707-.098.098-.226.146-.354.146-.127 0-.255-.048-.353-.146l-6.147-6.147-.002 15.792c0 .276-.224.5-.5.5-.277 0-.5-.224-.5-.5l.002-15.791-6.146 6.146zm17.1229405 13.1445c.2891428 0 .5238095.224.5238095.5 0 .276-.2346667.5-.5238095.5l-20.952380976 0C3.234666667 24.99775 3 24.77375 3 24.49775c0-.276.234666667-.5.523809524-.5l20.952380976 0z" fill="#000" fill-rule="evenodd"/></svg>