<svg width="20" height="20" viewBox="0 0 20 20" xmlns="http://www.w3.org/2000/svg"><title>format/show_20</title><path d="M18.891247 10.351C17.1681991 12.928 14.2271174 16 10 16c-4.22811745 0-7.16919914-3.072-8.89124698-5.649-.145004027-.217-.145004027-.485 0-.702C2.83080086 7.072 5.77088252 4 10 4c4.2291175 0 7.1691991 3.072 8.891247 5.649.145004.217.145004.485 0 .702m.8312669-1.258c.3699815.553.3699815 1.26 0 1.814C18.5035748 12.729 15.2627369 17 10 17c-5.26273686 0-8.50357482-4.271-9.722513874-6.093-.3699815012-.554-.3699815012-1.261 0-1.814C1.49642518 7.27 4.73726314 3 10 3c5.2627369 0 8.5035748 4.27 9.7225139 6.093zM10 9c-.552 0-1 .448-1 1 0 .552.448 1 1 1 .552 0 1-.448 1-1 0-.552-.448-1-1-1z" fill="#000" fill-rule="evenodd"/></svg>