<svg width="16" height="16" viewBox="0 0 16 16" xmlns="http://www.w3.org/2000/svg"><title>format/show_16</title><path d="M8 2c4.21 0 6.803 3.543 7.778 5.184.296.498.296 1.134 0 1.632C14.803 10.457 12.21 14 8 14 3.79 14 1.197 10.457.222 8.816c-.296-.498-.296-1.134 0-1.632C1.197 5.543 3.79 2 8 2zm0 5c.552 0 1 .448 1 1 0 .552-.448 1-1 1-.552 0-1-.448-1-1 0-.552.448-1 1-1zm0-4C4.273 3 1.92 6.283 1.082 7.695c-.109.182-.109.428 0 .61C1.92 9.717 4.273 13 8 13c3.727 0 6.08-3.283 6.918-4.695.109-.182.109-.428 0-.61C14.08 6.283 11.727 3 8 3z" fill="#000" fill-rule="evenodd"/></svg>