<svg width="12" height="12" viewBox="0 0 12 12" xmlns="http://www.w3.org/2000/svg"><title>format/show_12</title><path d="M11.832757 5.456c.2229907.332.2229907.756 0 1.088C11.1027874 7.638 9.15686846 10 6 10 2.84313154 10 .897212616 7.638.167243032 6.544c-.2229907092-.332-.2229907092-.756 0-1.088C.897212616 4.362 2.84313154 2 6 2c3.15686846 0 5.1027874 2.362 5.832757 3.456zM6 9c2.69788759 0 4.3968168-2.106 5.0017916-3.012C10.3968168 5.106 8.69788759 3 6 3 3.30211241 3 1.6031832 5.106.998208408 6.012 1.6031832 6.894 3.30211241 9 6 9zm0-4c.551977 0 .99995834.447.99995834 1 0 .553-.44798134 1-.99995834 1-.551977 0-.99995834-.447-.99995834-1 0-.553.44798134-1 .99995834-1z" fill="#000" fill-rule="evenodd"/></svg>