<svg width="16" height="16" viewBox="0 0 16 16" xmlns="http://www.w3.org/2000/svg"><title>common-actions/sign-in-forced_16</title><path d="M13.6567 2.3433c1.511 1.511 2.343 3.52 2.343 5.657 0 2.136-.832 4.146-2.343 5.656-1.511 1.512-3.52 2.344-5.657 2.344-2.136 0-4.146-.832-5.656-2.344-.196-.195-.196-.511 0-.707.195-.195.511-.195.707 0 1.322 1.323 3.08 2.051 4.949 2.051 1.87 0 3.628-.728 4.95-2.051 1.322-1.322 2.05-3.08 2.05-4.949 0-1.87-.728-3.628-2.05-4.95-1.322-1.322-3.08-2.05-4.95-2.05-1.869 0-3.627.728-4.949 2.05-.196.195-.512.195-.707 0-.196-.195-.196-.512 0-.707 1.51-1.511 3.52-2.343 5.656-2.343 2.137 0 4.146.832 5.657 2.343zM8.7935 8.5l-7.793 0 0 2c0 .275-.226.5-.5.5-.275 0-.5-.225-.5-.5l0-5c0-.275.225-.5.5-.5.274 0 .5.225.5.5l0 2 7.793 0-2.647-2.646c-.195-.196-.195-.512 0-.708.195-.195.512-.195.707 0l3.5 3.5c.098.098.147.226.147.354 0 .128-.049.256-.147.354l-3.5 3.5c-.098.098-.226.146-.353.146-.128 0-.256-.048-.354-.146-.195-.195-.195-.512 0-.707L8.7935 8.5z" fill="#000" fill-rule="evenodd"/></svg>