<svg width="20" height="20" viewBox="0 0 20 20" xmlns="http://www.w3.org/2000/svg"><title>common-actions/sign-in_20</title><path d="M17.0713 2.9238c3.899 3.899 3.899 10.243 0 14.143-1.95 1.949-4.511 2.923-7.071 2.923-2.561 0-5.122-.974-7.072-2.923-.195-.196-.195-.512 0-.707.196-.196.512-.196.707 0 3.51 3.509 9.219 3.509 12.729 0 3.509-3.51 3.509-9.219 0-12.729-3.51-3.509-9.219-3.51-12.729 0-.194.195-.511.195-.707 0-.195-.195-.195-.512 0-.707 3.9-3.898 10.244-3.898 14.143 0zM7.6465 13.6416l3.146-3.146-10.292 0c-.277 0-.5-.224-.5-.5 0-.277.223-.5.5-.5l10.292 0-3.146-3.147c-.195-.195-.195-.512 0-.707.195-.195.512-.195.707 0l4 4c.195.195.195.512 0 .707l-4 4c-.098.098-.226.147-.353.147-.128 0-.256-.049-.354-.147-.195-.195-.195-.512 0-.707z" fill="#000" fill-rule="evenodd"/></svg>