<svg width="12" height="12" viewBox="0 0 12 12" xmlns="http://www.w3.org/2000/svg"><title>common-actions/sign-out_12</title><path d="M10.2428462 1.76427766C11.3759454 2.89547873 12 4.40008599 12 5.99954241c0 1.60045482-.6240546 3.10506208-1.7571538 4.23526479C9.07074369 11.4059447 7.53760954 12 5.99947495 12c-1.34711787 0-2.69923618-.455276-3.8183341-1.3788073-.21301864-.176719-.24302126-.4902204-.06700586-.70288223.17501531-.21366022.49104296-.24261418.7040616-.06689362 1.99617467 1.64738025 4.8834273 1.50860095 6.71758779-.32248716.94408262-.94250116 1.46412812-2.19550852 1.46412812-3.52938728 0-1.33387876-.5200455-2.58688613-1.46412812-3.52938729C7.70162389.640065473 4.81337117.501286171 2.81819659 2.14866638c-.21201855.17671896-.5280462.14576818-.70306152-.06789204-.17701548-.21266181-.14701286-.52616325.06600578-.70288222 2.39520958-1.974859419 5.86151288-1.810121399 8.06170535.38638554zM.146262798 6.35278066c-.046004025-.04592697-.0830072631-.10183805-.1080094508-.16174279-.0510044629-.1228047-.0510044629-.25958718 0-.38239189.0250021877-.05990473.0620054258-.11581582.1080094508-.16174278L2.14643781 3.65007871c.19501707-.19469039.51104472-.19469039.70706187 0 .19501707.19469039.19501707.51118707 0 .70587746L1.70639931 5.5001366l5.58748891 0c.27602415 0 .50004375.22364434.50004375.49920612 0 .2765602-.2240196.49920613-.50004375.49920613l-5.58748891 0 1.14710037 1.14517884c.19501707.19469039.19501707.51118707 0 .70587746-.09800857.0978444-.22601978.14576819-.35403098.14576819-.1280112 0-.2560224-.04792379-.35303089-.14576819L.146262798 6.35278066z" fill="#000" fill-rule="evenodd"/></svg>