<svg width="24" height="24" viewBox="0 0 24 24" xmlns="http://www.w3.org/2000/svg"><title>common-actions/sign-in-forced_24</title><path d="M13.293 13.038L2 13.038l0 4.5c0 .274-.225.5-.5.5-.275 0-.5-.226-.5-.5l0-10c0-.275.225-.5.5-.5.275 0 .5.225.5.5l0 4.5 11.293 0-4.146-4.146c-.196-.196-.196-.512 0-.708.097-.097.225-.146.353-.146.128 0 .256.049.354.146l5 5c.195.196.195.512 0 .708l-5 5c-.196.195-.512.195-.707 0-.196-.196-.196-.512 0-.708l4.146-4.146zm7.3386-8.6318c4.484 4.484 4.484 11.779 0 16.264-2.216 2.215-5.176 3.33-8.138 3.33-2.82 0-5.643-1.01-7.826-3.042-.203-.189-.214-.505-.026-.707.189-.201.505-.213.707-.026 4.088 3.805 10.627 3.687 14.576-.262 4.094-4.094 4.094-10.756 0-14.85-3.994-3.994-10.379-4.129-14.535-.302-.203.187-.519.172-.706-.029-.187-.203-.174-.52.029-.707 4.552-4.188 11.544-4.045 15.919.331z" fill="#000" fill-rule="evenodd"/></svg>