<svg width="16" height="16" viewBox="0 0 16 16" xmlns="http://www.w3.org/2000/svg"><title>common-actions/sign-in-forced_16</title><path d="M7.5005 1c4.136 0 7.5 3.364 7.5 7.5 0 4.136-3.364 7.5-7.5 7.5-1.976 0-3.841-.762-5.251-2.145-.198-.193-.201-.51-.007-.707.194-.199.509-.199.707-.007C4.1715 14.34 5.7885 15 7.5005 15c3.584 0 6.5-2.916 6.5-6.5 0-3.584-2.916-6.5-6.5-6.5-1.708 0-3.321.657-4.542 1.851-.197.195-.514.191-.708-.008-.192-.197-.188-.515.009-.707C3.6685 1.759 5.5295 1 7.5005 1zm.793 8l-6.293 0 0 2.5c0 .275-.226.5-.5.5-.275 0-.5-.225-.5-.5l0-6c0-.275.225-.5.5-.5.274 0 .5.225.5.5l0 2.5 6.293 0-2.146-2.146c-.196-.196-.196-.512 0-.708.195-.195.511-.195.707 0l3 3c.195.196.195.512 0 .708l-3 3c-.098.097-.226.146-.354.146-.128 0-.256-.049-.353-.146-.196-.196-.196-.512 0-.708L8.2935 9z" fill="#000" fill-rule="evenodd"/></svg>