<?xml version="1.0" encoding="UTF-8"?>
<svg width="20px" height="20px" viewBox="0 0 20 20" version="1.1" xmlns="http://www.w3.org/2000/svg" xmlns:xlink="http://www.w3.org/1999/xlink">
    <!-- Generator: Sketch 56.3 (81716) - https://sketch.com -->
    <title>phone/single-number-reach_20</title>
    <desc>Created with Sketch.</desc>
    <g id="Icons-Webex" stroke="none" stroke-width="1" fill="none" fill-rule="evenodd">
        <g id="phone/single-number-reach_20" fill="#000000">
            <g id="single-number-reach_20">
                <path d="M12.6653,17.6211 L11.5203,18.7771 C11.3583,18.9411 11.1423,19.0221 10.9053,18.9901 C10.6823,18.9631 10.4873,18.8351 10.3733,18.6401 C9.1313,16.5341 8.4203,13.3851 8.4203,10.0001 C8.4203,6.6151 9.1313,3.4661 10.3733,1.3601 C10.4873,1.1651 10.6833,1.0381 10.9053,1.0101 C10.9373,1.0061 10.9683,1.0041 10.9993,1.0041 C11.1933,1.0041 11.3803,1.0811 11.5203,1.2231 L12.6653,2.3791 C12.9923,2.7091 13.0923,3.2031 12.9223,3.6361 L12.3483,5.0881 C12.1773,5.5221 11.8283,5.8551 11.3913,6.0011 L10.5163,6.2961 C10.0323,6.4581 9.6803,6.8941 9.6163,7.4081 C9.4313,8.9001 9.4363,10.7861 9.6323,12.5821 C9.6873,13.1021 10.0413,13.5451 10.5313,13.7101 L11.3913,13.9981 C11.8283,14.1451 12.1773,14.4781 12.3483,14.9131 L12.9223,16.3631 C13.0933,16.7981 12.9923,17.2911 12.6653,17.6211 L12.6653,17.6211 Z M13.2813,14.5441 L13.8543,15.9951 C14.1723,16.8001 13.9843,17.7151 13.3783,18.3281 L12.2333,19.4831 C11.9023,19.8171 11.4623,20.0001 11.0013,20.0001 C10.9283,20.0001 10.8543,19.9951 10.7813,19.9861 C10.2463,19.9201 9.7813,19.6141 9.5083,19.1491 C8.1793,16.8931 7.4163,13.5591 7.4163,10.0001 C7.4163,6.4411 8.1793,3.1061 9.5083,0.8501 C9.7813,0.3861 10.2463,0.0801 10.7823,0.0141 C11.3163,-0.0529 11.8513,0.1301 12.2333,0.5171 L13.3783,1.6721 C13.9843,2.2861 14.1723,3.2011 13.8543,4.0051 L13.2813,5.4571 C13.0013,6.1661 12.4293,6.7121 11.7103,6.9531 L10.8353,7.2471 C10.7153,7.2881 10.6283,7.3971 10.6113,7.5311 C10.4383,8.9291 10.4453,10.7771 10.6293,12.4741 C10.6443,12.6061 10.7303,12.7181 10.8513,12.7581 L11.7103,13.0471 C12.4293,13.2891 13.0013,13.8351 13.2813,14.5431 L13.2813,14.5441 Z M19.8528,9.6465 C19.9468,9.7405 19.9988,9.8675 19.9988,10.0005 C19.9988,10.1325 19.9468,10.2595 19.8528,10.3535 L17.0688,13.1375 C16.9708,13.2355 16.8428,13.2845 16.7148,13.2845 C16.5868,13.2845 16.4588,13.2355 16.3618,13.1375 C16.1658,12.9425 16.1658,12.6255 16.3618,12.4305 L18.2918,10.5005 L13.8848,10.5005 C13.6088,10.5005 13.3848,10.2765 13.3848,10.0005 C13.3848,9.7235 13.6088,9.5005 13.8848,9.5005 L18.2928,9.5005 L16.3618,7.5695 C16.1658,7.3745 16.1658,7.0585 16.3618,6.8625 C16.5568,6.6675 16.8738,6.6675 17.0688,6.8625 L19.8528,9.6465 Z M5.4904,7 C5.7664,7 5.9904,7.224 5.9904,7.5 C5.9904,7.776 5.7664,8 5.4904,8 L0.5004,8 C0.2234,8 0.0004,7.776 0.0004,7.5 C0.0004,7.224 0.2234,7 0.5004,7 L5.4904,7 Z M5.4904,12 C5.7664,12 5.9904,12.224 5.9904,12.5 C5.9904,12.776 5.7664,13 5.4904,13 L0.5004,13 C0.2234,13 0.0004,12.776 0.0004,12.5 C0.0004,12.224 0.2234,12 0.5004,12 L5.4904,12 Z" id="fill"></path>
            </g>
        </g>
    </g>
</svg>