<?xml version="1.0" encoding="UTF-8"?>
<svg width="14px" height="14px" viewBox="0 0 14 14" version="1.1" xmlns="http://www.w3.org/2000/svg" xmlns:xlink="http://www.w3.org/1999/xlink">
    <!-- Generator: Sketch 55.2 (78181) - https://sketchapp.com -->
    <title>phone/single-number-reach_14</title>
    <desc>Created with Sketch.</desc>
    <g id="Icons-Webex" stroke="none" stroke-width="1" fill="none" fill-rule="evenodd">
        <g id="phone/single-number-reach_14" fill="#000000">
            <g id="single-number-reach_14">
                <path d="M7.46927441,0.999308132 C7.45426884,0.999308132 7.44126401,0.999308132 7.42625844,1.00130515 C7.36323503,1.00929323 7.24519118,1.04124553 7.17016331,1.16805623 C6.32584971,2.58394266 5.8426687,4.70976933 5.8426687,7.00035005 C5.84166987,9.28793525 6.32484934,11.4137619 7.17016331,12.8326439 C7.20717706,12.89555 7.3432276,12.9704382 7.52929671,12.9934039 C7.74837808,13.0223607 7.94445091,12.9644471 8.01347655,12.89555 L8.80477045,12.1047305 C8.98683808,11.9230017 9.04185852,11.6514072 8.94682322,11.4137619 L8.55067608,10.4192465 C8.44863818,10.1656251 8.24156126,9.97091573 7.9834654,9.88404541 L7.38924469,9.68733904 C6.99209718,9.55453728 6.70799165,9.20006642 6.66197456,8.78368797 C6.5269244,7.5425407 6.52292291,6.23848733 6.65197084,5.20602853 C6.70198942,4.79564114 6.98809569,4.44716134 7.37924097,4.31735511 L7.9834654,4.11565619 C8.24156126,4.02978438 8.44863818,3.83407652 8.54967571,3.58045512 L8.94682322,2.58593968 C9.04185852,2.34829443 8.98683808,2.07669985 8.80477045,1.89497113 L7.78239071,1.1540771 C7.6633465,1.04124553 7.56631046,0.999308132 7.46927441,0.999308132 M12.2851404,7.49940509 L9.6292767,7.49940509 C9.35317415,7.49940509 9.12909092,7.27573897 9.12909092,7.00015035 C9.12909092,6.72456174 9.35317415,6.50089562 9.6292767,6.50089562 L12.2844167,6.50089562 L11.19966,5.42769764 C11.0045875,5.23298829 11.0025868,4.9174593 11.1976592,4.72175144 C11.3937321,4.52604358 11.7088491,4.52404657 11.9059223,4.71875591 L13.8526454,6.64587919 C13.9466803,6.73973908 13.9997,6.8675483 13.9997,7.00035005 C13.9997,7.13315181 13.9466803,7.26096103 13.8526454,7.35482092 L11.9059223,9.2819442 C11.8078859,9.37879962 11.6798383,9.42672807 11.5527911,9.42672807 C11.4237432,9.42672807 11.2956957,9.37780111 11.1976592,9.27994718 C11.0025868,9.08324081 11.0045875,8.76771182 11.19966,8.57400098 L12.2851404,7.49940509 Z M7.6493413,13.9999014 C7.56931157,13.9999014 7.4872811,13.9949089 7.40525063,13.9839253 C6.91606894,13.9240147 6.51692068,13.689365 6.31084414,13.3428822 C5.3764971,11.7752223 4.84129831,9.46267441 4.84229728,7.00035005 C4.84229728,4.49908383 5.36449264,2.24744497 6.31084414,0.657817893 C6.52492365,0.298354483 6.88605779,0.0627062479 7.30221236,0.0107837554 C7.7193673,-0.0421372466 8.13352113,0.0996510983 8.43263223,0.39920394 L9.4540116,1.14009797 C9.97620556,1.65333184 10.1192587,2.34729592 9.8761684,2.95538819 L9.48002126,3.94990362 C9.26894286,4.47711662 8.83878309,4.88350998 8.29958281,5.06224317 L7.69535839,5.26394208 C7.52629559,6.27443367 7.53129745,7.52456753 7.6563439,8.67584895 L8.29958281,8.93745843 C8.83878309,9.11719013 9.26894286,9.52358349 9.48002126,10.049798 C9.48102163,10.049798 9.48102163,10.0507965 9.48102163,10.0507965 L9.8761684,11.0443134 C10.1192587,11.6524057 9.97620556,12.3463698 9.51203315,12.8106767 L8.72073924,13.6014962 C8.46364375,13.8571146 8.07449921,13.9999014 7.6493413,13.9999014 Z M3.50100048,5.51995991 L0.499885783,5.51995991 C0.223783231,5.51995991 -0.0003,5.29629379 -0.0003,5.02070518 C-0.0003,4.74511656 0.223783231,4.52145044 0.499885783,4.52145044 L3.50100048,4.52145044 C3.77710304,4.52145044 4.00118627,4.74511656 4.00118627,5.02070518 C4.00118627,5.29629379 3.77710304,5.51995991 3.50100048,5.51995991 Z M3.50100048,9.52418259 L0.499885783,9.52418259 C0.223783231,9.52418259 -0.0003,9.30051647 -0.0003,9.02492786 C-0.0003,8.74933924 0.223783231,8.52567312 0.499885783,8.52567312 L3.50100048,8.52567312 C3.77710304,8.52567312 4.00118627,8.74933924 4.00118627,9.02492786 C4.00118627,9.30051647 3.77710304,9.52418259 3.50100048,9.52418259 Z" id="fill"></path>
            </g>
        </g>
    </g>
</svg>