<svg width="12" height="12" viewBox="0 0 12 12" xmlns="http://www.w3.org/2000/svg"><title>phone/single-number-reach_12</title><path d="M10.9352 4.437l-.669.663c-.132.13-.33.171-.504.103l-.841-.332c-.194-.077-.341-.232-.407-.427l-.171-.507c-.12-.355-.44-.615-.817-.662-.879-.109-1.988-.106-3.043.01-.382.04-.708.3-.829.661l-.168.498c-.065.195-.214.35-.407.427l-.84.331c-.175.068-.373.028-.505-.102l-.669-.663c-.067-.065-.068-.142-.064-.181.005-.038.025-.109.102-.154C2.2922 3.401 4.0772 3 6.0002 3c1.924 0 3.708.402 4.896 1.102.078.045.097.116.102.154.005.04.003.116-.063.181m1.055-.305c.048.378-.08.747-.351 1.015l-.669.664c-.414.409-1.031.535-1.575.322l-.841-.333c-.469-.184-.828-.563-.988-1.037l-.171-.507c-.786-.086-1.838-.083-2.805.023l-.156.484c-.16.474-.52.852-.988 1.037l-.841.332c-.175.07-.359.103-.541.103-.38 0-.754-.147-1.034-.424l-.669-.663c-.271-.269-.399-.639-.352-1.016.047-.375.261-.7.587-.892C1.9532 2.44 3.8732 2 6.0002 2c2.128 0 4.047.44 5.404 1.241.326.191.539.516.586.891zM1.3185 9.0635l.841 0c.045.25.224.417.561.417.317 0 .467-.117.467-.275 0-.229-.175-.296-.675-.404-.694-.154-1.082-.391-1.082-.953 0-.524.392-.898 1.253-.898.741 0 1.219.353 1.315.935l-.82 0c-.042-.237-.229-.349-.504-.349-.249 0-.37.096-.37.233 0 .175.138.237.537.316.766.154 1.219.466 1.219 1.044 0 .496-.399.941-1.348.941-.936 0-1.319-.499-1.394-1.007zm5.9341-2.0513l0 2.996-.861 0-1.036-1.848 0 1.848-.741 0 0-2.996.915 0 .982 1.76 0-1.76.741 0zm2.4049 2.9963l-.645-1.041-.237 0 0 1.041-.87 0 0-2.996 1.178 0c.903 0 1.348.349 1.348.973 0 .425-.212.679-.566.828l.816 1.195-1.024 0zm-.882-2.405l0 .773.345 0c.242 0 .417-.145.417-.391 0-.266-.158-.382-.446-.382l-.316 0z" fill="#000" fill-rule="evenodd"/></svg>