<svg width="16" height="16" viewBox="0 0 16 16" xmlns="http://www.w3.org/2000/svg"><title>video-controls/skip-bw_16</title><path d="M12.4775 11.9736c.125 0 .222-.046.269-.075.077-.046.255-.182.255-.451l0-6.907c0-.269-.178-.405-.255-.451-.076-.046-.28-.138-.518-.013l-6.971 3.467c-.161.087-.265.26-.265.457 0 .198.104.371.278.464l6.945 3.44c.095.051.184.069.262.069m-.004-8.962c.271 0 .543.073.788.22.464.279.738.768.738 1.309l0 6.907c0 .541-.274 1.03-.738 1.309-.465.277-1.026.291-1.503.038l-6.946-3.44c-.511-.273-.82-.789-.82-1.354 0-.564.309-1.08.807-1.346l6.971-3.467c.22-.117.461-.176.703-.176zM2.5 3c.276 0 .5.224.5.5l0 9c0 .276-.224.5-.5.5-.276 0-.5-.224-.5-.5l0-9c0-.276.224-.5.5-.5z" fill="#000" fill-rule="evenodd"/></svg>