<svg width="24" height="24" viewBox="0 0 24 24" xmlns="http://www.w3.org/2000/svg"><title>video-controls/skip-bw_24</title><path d="M7.6255 10.9971l11.684-6.854c.362-.19.79-.179 1.14.032.344.207.551.569.551.968l0 13.719c0 .4-.207.762-.551.969-.188.113-.397.169-.603.169-.18 0-.358-.042-.518-.127l-11.722-6.865c-.38-.2-.606-.574-.606-.999-.001-.426.226-.8.625-1.012m-.506 2.885c-.683-.362-1.119-1.083-1.119-1.873-.001-.791.436-1.513 1.138-1.885l11.684-6.855c.331-.174.685-.261 1.036-.261.384 0 .765.103 1.107.309.648.391 1.035 1.074 1.035 1.826l0 13.719c0 .753-.387 1.436-1.035 1.826-.655.394-1.449.415-2.124.059l-11.722-6.865zM2.5 20.999c-.276 0-.5-.224-.5-.5l0-17c0-.276.224-.5.5-.5.276 0 .5.224.5.5l0 17c0 .276-.224.5-.5.5z" fill="#000" fill-rule="evenodd"/></svg>