<?xml version="1.0" standalone="no"?>
<!DOCTYPE svg PUBLIC "-//W3C//DTD SVG 1.1//EN" "http://www.w3.org/Graphics/SVG/1.1/DTD/svg11.dtd">
<svg xmlns="http://www.w3.org/2000/svg" width="16" height="16" viewBox="0 0 16 16" fill="none">
<g clip-path="url(#clip0_1864_19789)">
<circle cx="8" cy="8" r="8" fill="#39AC37"/>
<path d="M6.25503 6.47164C6.25503 5.94286 6.89506 5.55746 7.91342 5.55746C9.00479 5.55746 9.64482 6.21423 9.64482 6.85704H11.4929C11.4929 5.17158 10.0089 4 7.91342 4C5.83261 4 4.3776 5.12876 4.3776 6.47164C4.3776 9.52883 9.71736 8.28556 9.71736 9.54279C9.71736 10.0287 9.04841 10.443 8.05897 10.443C6.98229 10.443 6.18154 9.89981 6.18154 9.24303H4.33398C4.33398 10.9285 5.96346 12 8.05897 12C10.1393 12 11.6673 10.9429 11.6673 9.54279C11.6673 6.57171 6.25503 7.80008 6.25503 6.47164Z" fill="white"/>
</g>
<defs>
<clipPath id="clip0_1864_19789">
<rect width="16" height="16" fill="white"/>
</clipPath>
</defs>
</svg>