<svg width="12" height="12" viewBox="0 0 12 12" fill="none" xmlns="http://www.w3.org/2000/svg">
<path d="M3 0.5C3 0.223858 2.77615 0 2.5 0C2.22386 0 2 0.223857 2 0.5L2 10.2929L0.853553 9.14645C0.658291 8.95118 0.341709 8.95118 0.146447 9.14645C-0.0488155 9.34171 -0.0488155 9.65829 0.146447 9.85355L2.14645 11.8536C2.28945 11.9966 2.5045 12.0393 2.69134 11.9619C2.87818 11.8845 3 11.7022 3 11.5L3 0.5Z" fill="#121212"/>
<path d="M5.5 2C5.22386 2 5 2.22386 5 2.5C5 2.77614 5.22386 3 5.5 3H11.5C11.7761 3 12 2.77614 12 2.5C12 2.22386 11.7761 2 11.5 2H5.5Z" fill="#121212"/>
<path d="M5.5 5.5C5.22386 5.5 5 5.72386 5 6C5 6.27614 5.22386 6.5 5.5 6.5H11.5C11.7761 6.5 12 6.27614 12 6C12 5.72386 11.7761 5.5 11.5 5.5H5.5Z" fill="#121212"/>
<path d="M11.5 10H5.5C5.22386 10 5 9.77614 5 9.5C5 9.22386 5.22386 9 5.5 9H11.5C11.7761 9 12 9.22386 12 9.5C12 9.77614 11.7761 10 11.5 10Z" fill="#121212"/>
</svg>
