<svg width="32" height="32" viewBox="0 0 32 32" xmlns="http://www.w3.org/2000/svg"><title>hardware/spark-board_32</title><path d="M3 5c-1.1045695 0-2 .8954305-2 2l0 18c0 1.1045695.8954305 2 2 2l26 0c1.1045695 0 2-.8954305 2-2l0-18c0-1.1045695-.8954305-2-2-2L3 5zm0-1l26 0c1.6568542 0 3 1.34314575 3 3l0 18c0 1.6568542-1.3431458 3-3 3L3 28c-1.65685425 0-3-1.3431458-3-3L0 7c0-1.65685425 1.34314575-3 3-3zm12.5 3c-.2761424 0-.5.22385763-.5.5 0 .27614237.2238576.5.5.5l1 0c.2761424 0 .5-.22385763.5-.5 0-.27614237-.2238576-.5-.5-.5l-1 0zm.5 18c.5522847 0 1-.4477153 1-1 0-.5522847-.4477153-1-1-1-.5522847 0-1 .4477153-1 1 0 .5522847.4477153 1 1 1zm7.5-1c-.2761424 0-.5.2238576-.5.5 0 .2761424.2238576.5.5.5l5 0c.2761424 0 .5-.2238576.5-.5 0-.2761424-.2238576-.5-.5-.5l-5 0z" fill-rule="nonzero" fill="#000"/></svg>