<svg width="16" height="16" viewBox="0 0 16 16" xmlns="http://www.w3.org/2000/svg"><title>hardware/spark-share_16</title><path d="M13.6717374 13.627c-.385.652-1.04 1.075-1.797 1.16-1.20200004.135-2.42500004.206-3.63300004.213l-.179 0c-1.319 0-2.652-.078-3.962-.23-.737-.086-1.378-.498-1.76-1.132-.379999996-.63-.444999996-1.386-.179-2.072.447-1.151.985-2.279 1.596-3.352.645-1.132 1.386-2.223 2.2-3.243.493-.617 1.231-.971 2.022-.971.816 0 1.569.371 2.067 1.019.78 1.014 1.49900004 2.09 2.13700004 3.198.612 1.065 1.162 2.18 1.634 3.314.286.689.233 1.453-.146 2.096zM6.99973736 1.5c0-.276.225-.5.5-.5l1 0c.276 0 .5.224.5.5l0 1.666c-.334-.099-.675-.166-1.02-.166-.331 0-.659.062-.98.152l0-1.652zm7.74000004 9.648c.862 2.072-.515 4.382-2.754 4.633-1.15500004.129-2.40500004.212-3.73900004.219-.061 0-.123 0-.184 0-1.464 0-2.829-.091-4.078-.237-2.192999996-.256-3.550999996-2.506-2.754999996-4.558.425-1.096.965999996-2.272 1.658999996-3.487.733-1.284 1.516-2.405 2.288-3.371.239-.3.523-.531.823-.73l0-2.117c0-.827.673-1.5 1.5-1.5l1 0c.827 0 1.5.673 1.5 1.5l0 2.143c.308.209.598.452.84.766.74300004.966 1.49500004 2.067 2.21100004 3.309.684 1.191 1.239 2.346 1.689 3.43zM7.99983736 11c-.552 0-1-.449-1-1 0-.551.448-1 1-1 .552 0 1 .449 1 1 0 .551-.448 1-1 1zm0-3c-1.103 0-2 .897-2 2 0 1.103.897 2 2 2 1.103 0 2-.897 2-2 0-1.103-.897-2-2-2z" fill="#000" fill-rule="evenodd"/></svg>