<svg width="12" height="12" viewBox="0 0 12 12" xmlns="http://www.w3.org/2000/svg"><title>audio/speaker-disconnected_12</title><path d="M6.585.051c.252.104.415.347.415.62l0 10.656c0 .274-.163.517-.415.621-.084.035-.171.052-.258.052-.174 0-.345-.068-.474-.197L2.282 8l-.781.002C.673 8.002 0 7.329 0 6.503l0-1.006c0-.827.673-1.5 1.5-1.5l.782 0 3.56-3.79c.203-.204.491-.26.743-.156zM6 10.499L6 1.5 2.862 4.841c-.094.1-.226.158-.364.158l-.001 0-.998-.002c-.275 0-.499.225-.499.5l0 1.006c0 .274.224.5.5.5l.998 0c.138 0 .27.057.364.156L6 10.499zm4.707-4.498l1.146 1.146c.098.097.147.225.147.353 0 .128-.049.256-.147.354-.097.097-.225.146-.353.146-.128 0-.256-.049-.354-.146L10 6.708 8.853 7.854C8.756 7.951 8.628 8 8.5 8c-.128 0-.256-.049-.354-.146-.195-.196-.195-.512 0-.707l1.147-1.146-1.147-1.147c-.195-.195-.195-.512 0-.707.196-.195.512-.195.707 0L10 5.293l1.146-1.146c.196-.195.512-.195.707 0 .098.098.147.226.147.354 0 .127-.049.255-.147.353l-1.146 1.147z" fill="#000" fill-rule="evenodd"/></svg>