<svg width="24" height="24" viewBox="0 0 24 24" xmlns="http://www.w3.org/2000/svg"><title>audio/speaker_24</title><path d="M12.998 21.7801l-6.504-6.614c-.094-.096-.222-.15-.356-.15l-2.638 0c-.827 0-1.5-.673-1.5-1.5l0-2.969c0-.828.673-1.5 1.5-1.5l2.638 0c.134 0 .264-.055.358-.152l6.502-6.667 0 19.552zm.479-20.716c.316.132.521.438.521.78l0 20.318c0 .343-.205.648-.521.78-.105.043-.215.065-.323.065-.22 0-.435-.086-.596-.248l-6.63-6.743-2.428 0c-1.378 0-2.5-1.121-2.5-2.5l0-2.969c0-1.379 1.122-2.5 2.5-2.5l2.427 0 6.626-6.794.005-.005c.242-.243.602-.314.919-.184zm4.4002 5.1203c1.369 1.553 2.123 3.623 2.123 5.831 0 2.222-.755 4.294-2.126 5.834-.099.111-.237.168-.374.168-.118 0-.237-.042-.332-.127-.207-.184-.225-.499-.041-.705 1.225-1.378 1.873-3.165 1.873-5.17 0-1.964-.665-3.8-1.873-5.169-.183-.207-.163-.523.044-.706.208-.184.523-.162.706.044zm1.9848-2.0097C21.915 6.3667 23 9.0897 23 12.0477c0 2.918-1.084 5.619-3.134 7.811-.098.105-.232.158-.365.158-.123 0-.245-.045-.342-.135-.201-.188-.212-.505-.023-.707 1.874-2.003 2.864-4.467 2.864-7.127 0-2.699-.992-5.185-2.868-7.189-.189-.202-.178-.518.023-.707.202-.188.518-.178.707.023z" fill="#000" fill-rule="evenodd"/></svg>