<svg width="16" height="16" viewBox="0 0 16 16" xmlns="http://www.w3.org/2000/svg"><title>audio/speaker-bluetooth_16</title><path d="M8.0001 14.5927l-4.154-4.435c-.094-.1-.226-.158-.365-.158l-1.481 0c-.551 0-1-.448-1-1l0-2c0-.552.449-1 1-1l1.481 0c.139 0 .271-.057.365-.158l4.154-4.435 0 13.186zm.547-14.536c-.276-.115-.59-.052-.801.159-.004.004-.007.008-.011.012l-4.47 4.772-1.265 0c-1.102 0-2 .898-2 2l0 2c0 1.103.898 2 2 2l1.265 0 4.481 4.784c.141.141.328.216.519.216.095 0 .19-.018.282-.056.275-.115.453-.38.453-.678l0-14.531c0-.298-.178-.564-.453-.678zm5.4533 4.8695l0 2.011.846-.952-.846-1.059zm0 5.138l0 2.01.847-1.057-.847-.953zm-.5 3.936c-.056 0-.111-.009-.165-.028-.201-.07-.335-.26-.335-.472l0-3.934-1.126 1.266c-.186.206-.501.223-.706.042-.207-.183-.226-.5-.042-.706l1.485-1.67-1.479-1.666c-.184-.207-.164-.522.042-.706.206-.182.521-.165.706.042l1.12 1.262 0-3.93c0-.212.134-.401.335-.471.197-.072.423-.007.556.159l2 2.502c.152.19.144.463-.017.644l-1.874 2.108 0 .115 1.874 2.111c.161.183.169.454.017.645l-2 2.5c-.097.121-.243.187-.391.187z" fill="#000" fill-rule="evenodd"/></svg>