<svg width="20" height="20" viewBox="0 0 20 20" xmlns="http://www.w3.org/2000/svg"><title>audio/speaker-disconnected_20</title><path d="M11.5148.061c.299.123.492.412.492.735l0 18.406c0 .323-.193.613-.492.736-.099.041-.203.061-.306.061-.207 0-.41-.081-.563-.234l-5.765-5.766-2.6 0c-1.257 0-2.281-1.023-2.281-2.281l0-3.438c0-1.257 1.024-2.281 2.281-2.281l2.6 0 5.766-5.766c.228-.229.569-.295.868-.172zm-.508 18.65l0-17.424-5.566 5.566c-.094.093-.221.146-.353.146l-2.807 0c-.706 0-1.281.575-1.281 1.281l0 3.438c0 .706.575 1.281 1.281 1.281l2.807 0c.133 0 .26.053.354.147l5.565 5.565zM17.707 10l2.146 2.146c.196.196.196.512 0 .708-.097.097-.225.146-.353.146-.128 0-.256-.049-.354-.146L17 10.707l-2.147 2.147c-.097.097-.225.146-.353.146-.128 0-.256-.049-.354-.146-.195-.196-.195-.512 0-.708L16.293 10l-2.147-2.146c-.195-.196-.195-.512 0-.708.196-.195.512-.195.707 0L17 9.293l2.146-2.147c.196-.195.512-.195.707 0 .196.196.196.512 0 .708L17.707 10z" fill="#000" fill-rule="evenodd"/></svg>