<svg width="14" height="14" viewBox="0 0 14 14" xmlns="http://www.w3.org/2000/svg"><title>audio/speaker-disconnected_14</title><path d="M7 12.5681781L3.578 9.14660379c-.094-.09398831-.221-.14598184-.353-.14598184l-1.558 0c-.368 0-.667-.29896281-.667-.66691703l0-2.66766813c0-.36795423.299-.66691704.667-.66691704l1.559 0c.133 0 .26-.0529934.354-.14598183L7 1.43256345 7 12.5681781zM7.571.0537349856C7.832.161721551 8 .413690205 8 .695655127L8 13.3050865c0 .2819649-.168.5339335-.429.6419201C7.485 13.9830021 7.395 14 7.305 14c-.18 0-.357-.0699913-.491-.2029747l-3.796-3.7965277-1.351 0c-.919 0-1.667-.747907-1.667-1.66679268l0-2.66766813c0-.91888569.748-1.66679265 1.667-1.66679265l1.352 0L6.814.204716203c.199-.1999751224.496-.259967659.757-.1509812174zM12.207 7.00047078l1.646 1.64579525c.196.19597562.196.51193631 0 .70791193-.097.09698794-.225.14598184-.353.14598184-.128 0-.256-.0489939-.354-.14598184L11.5 7.70738283 9.853 9.35417796c-.097.09698794-.225.14598184-.353.14598184-.128 0-.256-.0489939-.354-.14598184-.195-.19597562-.195-.51193631 0-.70791193l1.647-1.64579525-1.647-1.64579526c-.195-.19597562-.195-.51193631 0-.70791193.196-.19497574.512-.19497574.707 0L11.5 6.29355872l1.646-1.64679513c.196-.19497574.512-.19497574.707 0 .196.19597562.196.51193631 0 .70791193l-1.646 1.64579526z" fill="#000" fill-rule="evenodd"/></svg>