<svg width="16" height="16" viewBox="0 0 16 16" xmlns="http://www.w3.org/2000/svg"><title>audio/speaker-line-out-left_16</title><path d="M1.9999 14.5927l4.154-4.435c.094-.1.226-.158.365-.158l1.481 0c.551 0 1-.448 1-1l0-2c0-.552-.449-1-1-1l-1.481 0c-.139 0-.271-.057-.365-.158l-4.154-4.435 0 13.186zM1.4529.0567c-.275.114-.453.38-.453.678l0 14.531c0 .298.178.563.453.678.092.038.187.056.282.056.191 0 .378-.075.519-.216l4.481-4.784 1.265 0c1.102 0 2-.897 2-2l0-2c0-1.102-.898-2-2-2l-1.265 0-4.47-4.772c-.004-.004-.007-.008-.011-.012-.211-.211-.525-.274-.801-.159zM13 10c1.1045695 0 2-.8954305 2-2 0-1.1045695-.8954305-2-2-2-1.1045695 0-2 .8954305-2 2 0 1.1045695.8954305 2 2 2zm0-1c-.55228475 0-1-.44771525-1-1 0-.55228475.44771525-1 1-1 .55228475 0 1 .44771525 1 1 0 .55228475-.44771525 1-1 1z" fill="#000" fill-rule="evenodd"/></svg>