<svg width="16" height="16" viewBox="0 0 16 16" xmlns="http://www.w3.org/2000/svg"><title>audio/speaker-disconnected_16</title><path d="M8.5471.0567c.275.114.453.38.453.678l0 14.531c0 .298-.178.563-.453.678-.092.038-.187.056-.282.056-.191 0-.378-.075-.519-.216l-4.481-4.784-1.265 0c-1.102 0-2-.897-2-2l0-2c0-1.102.898-2 2-2l1.265 0 4.47-4.772c.004-.004.007-.008.011-.012.211-.211.525-.274.801-.159zm-.547 14.536l0-13.186-4.154 4.435c-.094.101-.226.158-.365.158l-1.481 0c-.551 0-1 .448-1 1l0 2c0 .552.449 1 1 1l1.481 0c.139 0 .271.058.365.158l4.154 4.435zm6.1938-6.0928l1.646 1.646c.196.196.196.512 0 .708-.097.097-.225.146-.353.146-.128 0-.256-.049-.354-.146l-1.646-1.647-1.647 1.647c-.097.097-.225.146-.353.146-.128 0-.256-.049-.354-.146-.195-.196-.195-.512 0-.708l1.647-1.646-1.647-1.646c-.195-.196-.195-.512 0-.708.196-.195.512-.195.707 0l1.647 1.647 1.646-1.647c.196-.195.512-.195.707 0 .196.196.196.512 0 .708l-1.646 1.646z" fill="#000" fill-rule="evenodd"/></svg>