<svg width="20" height="20" viewBox="0 0 20 20" xmlns="http://www.w3.org/2000/svg"><title>audio/speaker_20</title><path d="M11.5148.0612c.299.123.492.412.492.735l0 18.406c0 .323-.193.613-.492.736-.099.041-.203.061-.306.061-.207 0-.41-.081-.563-.234l-5.765-5.766-2.6 0c-1.257 0-2.281-1.023-2.281-2.281l0-3.438c0-1.257 1.024-2.281 2.281-2.281l2.6 0 5.766-5.766c.228-.229.569-.295.868-.172zm-.508 18.65l0-17.424-5.566 5.566c-.094.093-.221.146-.353.146l-2.807 0c-.706 0-1.281.575-1.281 1.281l0 3.438c0 .706.575 1.281 1.281 1.281l2.807 0c.133 0 .26.053.354.147l5.565 5.565zm5.8467-16.3076c2.029 2.029 3.146 4.727 3.146 7.596 0 2.869-1.117 5.566-3.146 7.595-.098.098-.226.147-.354.147-.127 0-.255-.049-.353-.147-.195-.195-.195-.511 0-.707 1.84-1.839 2.853-4.286 2.853-6.888 0-2.603-1.013-5.049-2.853-6.889-.195-.195-.195-.512 0-.707.195-.195.512-.195.707 0zm-1.9941 2.3018c1.378 1.429 2.137 3.309 2.137 5.294 0 1.984-.759 3.863-2.136 5.291-.098.103-.229.153-.359.153-.125 0-.25-.047-.347-.139-.199-.193-.205-.509-.013-.707 1.196-1.242 1.855-2.874 1.855-4.598 0-1.726-.659-3.358-1.857-4.599-.191-.199-.186-.515.013-.707.198-.191.516-.186.707.012z" fill="#000" fill-rule="evenodd"/></svg>