<svg width="24" height="24" viewBox="0 0 24 24" xmlns="http://www.w3.org/2000/svg"><title>audio/speaker-off_24</title><path d="M17.998 21.7734181l-6.504-6.6118732c-.094-.0959692-.222-.1499518-.356-.1499518l-2.638 0c-.827 0-1.5-.6727836-1.5-1.4995177l0-2.96804529c0-.82773376.673-1.49951767 1.5-1.49951767l2.638 0c.134 0 .264-.05498232.358-.15195113l6.502-6.6648562 0 19.54571299zm.479-20.709338704c-.317-.1299581981-.677-.0589810283-.919.183940834l-.005.004998392-6.626 6.791815368-2.427 0c-1.378 0-2.5 1.12063954-2.5 2.49919612l0 2.96804529c0 1.3785566 1.122 2.4991961 2.5 2.4991961l2.428 0 6.63 6.7408318c.161.1619479.376.2479203.596.2479203.108 0 .218-.021993.323-.0649791.316-.1319576.521-.4368595.521-.7797492l0-20.311466715c0-.341890029-.205-.647791634-.521-.779749189z" fill="#000" fill-rule="evenodd"/></svg>