<svg width="28" height="28" viewBox="0 0 28 28" xmlns="http://www.w3.org/2000/svg"><title>audio/speaker-off_28</title><path d="M21.001 25.8355257l-7.415-7.689132c-.094-.0980399-.224-.1530623-.359-.1530623l-3.227 0c-1.103 0-2-.8973655-2-2.000815l0-3.9996291c0-1.10244907.897-2.000815 2-2.000815l3.227 0c.135 0 .265-.05502241.359-.15206193l7.415-7.67512625 0 23.67064158zm.451-24.7670881855c-.334-.1390566407-.715-.0620252642-.969.1930786455l-.005.005002037-7.463 7.725146623-3.015 0c-1.654 0-3 1.34654847-3 3.00122248l0 3.9996291c0 1.654674 1.346 3.0012225 3 3.0012225l3.015 0 7.469 7.7461552c.17.1700692.397.2601059.627.2601059.115 0 .231-.022009.342-.0680277.333-.1390566.548-.4611879.548-.822335l0-24.219865238c0-.361147103-.216-.683278314-.549-.8213345475z" fill="#000" fill-rule="evenodd"/></svg>