<svg width="16" height="16" viewBox="0 0 16 16" xmlns="http://www.w3.org/2000/svg"><title>audio/speaker-muted_16</title><path d="M13.9998283 2.7072785C16.7716804 5.84541401 16.657471 10.656529 13.6572 13.6568c-.098.098-.226.147-.354.147-.127 0-.255-.049-.353-.147-.195-.195-.195-.511 0-.707 2.6101583-2.6101583 2.7238247-6.78645575.3409994-9.53389258l-.7093404.70934034C13.4998999 5.20706671 14.0002 6.56534961 14.0002 7.9998c0 1.603-.624 3.11-1.757 4.242-.098.098-.226.147-.354.147-.127 0-.255-.049-.353-.147-.195-.195-.195-.511 0-.707.944-.944 1.464-2.199 1.464-3.535 0-1.16802978-.3974644-2.27414684-1.1282408-3.16465246L9 7.70710678 9 15.2658c0 .298-.178.563-.453.678-.092.038-.187.056-.282.056-.191 0-.378-.075-.519-.216l-3.29978287-3.5229103-2.59266374 2.5926637c-.19526215.1952621-.51184463.1952621-.70710678 0-.195262146-.1952622-.195262146-.5118446 0-.7071068l2.61578876-2.6157888L3.265 10.9998l-1.265 0c-1.102 0-2-.897-2-2l0-2c0-1.102.898-2 2-2l1.265 0 4.47-4.772c.004-.004.007-.008.011-.012.211-.211.525-.274.801-.159.275.114.453.38.453.678l0 5.55809322 5.1464466-5.14644661c.1952622-.195262146.5118446-.195262146.7071068 0 .1952621.19526215.1952621.51184463 0 .70710678l-.8537251.85372511zm-8.84639596 8.8463959L8 14.5928l0-5.88569322-2.84656766 2.84656762zm-.68397289-.7302406L8 7.29289322 8 1.4068l-4.154 4.435c-.094.101-.226.158-.365.158l-1.481 0c-.551 0-1 .448-1 1l0 2c0 .552.449 1 1 1l1.481 0c.139 0 .271.058.365.158l.62345945.6656338z" fill="#000" fill-rule="evenodd"/></svg>