<svg width="24" height="24" viewBox="0 0 24 24" xmlns="http://www.w3.org/2000/svg" xmlns:xlink="http://www.w3.org/1999/xlink"><title>animated/spinner_24</title><defs><path id="a" d="M12 0h12v12H12z"/></defs><g fill="none" fill-rule="evenodd"><path d="M12 23c6.0750256 0 11-4.9249744 11-11 0-6.07502559-4.9249744-11-11-11C5.92497441 1 1 5.92497441 1 12c0 6.0750256 4.92497441 11 11 11zm0 1C5.37268966 24 0 18.6273103 0 12 0 5.37268966 5.37268966 0 12 0c6.6273103 0 12 5.37268966 12 12 0 6.6273103-5.3726897 12-12 12z" fill-opacity=".12" fill="#000" fill-rule="nonzero"/><mask id="b" fill="#fff"><use xlink:href="#a"/></mask><path d="M12 23c6.0750256 0 11-4.9249744 11-11 0-6.07502559-4.9249744-11-11-11C5.92497441 1 1 5.92497441 1 12c0 6.0750256 4.92497441 11 11 11zm0 1C5.37268966 24 0 18.6273103 0 12 0 5.37268966 5.37268966 0 12 0c6.6273103 0 12 5.37268966 12 12 0 6.6273103-5.3726897 12-12 12z" fill="#000" fill-rule="nonzero" mask="url(#b)"/></g></svg>