<svg width="32" height="32" viewBox="0 0 32 32" xmlns="http://www.w3.org/2000/svg" xmlns:xlink="http://www.w3.org/1999/xlink"><title>animated/spinner_32</title><defs><path id="a" d="M16 0h16v16H16z"/></defs><g fill="none" fill-rule="evenodd"><path d="M16 31c8.284129 0 15-6.715871 15-15 0-8.28412904-6.715871-15-15-15C7.71587096 1 1 7.71587096 1 16c0 8.284129 6.71587096 15 15 15zm0 1C7.16358621 32 0 24.8364138 0 16 0 7.16358621 7.16358621 0 16 0c8.8364138 0 16 7.16358621 16 16 0 8.8364138-7.1635862 16-16 16z" fill-opacity=".12" fill="#000" fill-rule="nonzero"/><mask id="b" fill="#fff"><use xlink:href="#a"/></mask><path d="M16 31c8.284129 0 15-6.715871 15-15 0-8.28412904-6.715871-15-15-15C7.71587096 1 1 7.71587096 1 16c0 8.284129 6.71587096 15 15 15zm0 1C7.16358621 32 0 24.8364138 0 16 0 7.16358621 7.16358621 0 16 0c8.8364138 0 16 7.16358621 16 16 0 8.8364138-7.1635862 16-16 16z" fill="#000" fill-rule="nonzero" mask="url(#b)"/></g></svg>