<svg width="36" height="36" viewBox="0 0 36 36" xmlns="http://www.w3.org/2000/svg" xmlns:xlink="http://www.w3.org/1999/xlink"><title>animated/spinner_36</title><defs><path id="a" d="M18 0h18v18H18z"/></defs><g fill="none" fill-rule="evenodd"><path d="M18 35c9.3886808 0 17-7.6113192 17-17 0-9.38868077-7.6113192-17-17-17C8.61131923 1 1 8.61131923 1 18c0 9.3886808 7.61131923 17 17 17zm0 1C8.05903448 36 0 27.9409655 0 18 0 8.05903448 8.05903448 0 18 0c9.9409655 0 18 8.05903448 18 18 0 9.9409655-8.0590345 18-18 18z" fill-opacity=".12" fill="#000" fill-rule="nonzero"/><mask id="b" fill="#fff"><use xlink:href="#a"/></mask><path d="M18 35c9.3886808 0 17-7.6113192 17-17 0-9.38868077-7.6113192-17-17-17C8.61131923 1 1 8.61131923 1 18c0 9.3886808 7.61131923 17 17 17zm0 1C8.05903448 36 0 27.9409655 0 18 0 8.05903448 8.05903448 0 18 0c9.9409655 0 18 8.05903448 18 18 0 9.9409655-8.0590345 18-18 18z" fill="#000" fill-rule="nonzero" mask="url(#b)"/></g></svg>