<svg width="12" height="12" viewBox="0 0 12 12" xmlns="http://www.w3.org/2000/svg" xmlns:xlink="http://www.w3.org/1999/xlink"><title>animated/spinner_12</title><defs><path id="a" d="M6 0h6v6H6z"/></defs><g fill="none" fill-rule="evenodd"><path d="M6 11c2.76137042 0 5-2.23862958 5-5 0-2.76137042-2.23862958-5-5-5-2.76137042 0-5 2.23862958-5 5 0 2.76137042 2.23862958 5 5 5zm0 1c-3.31365517 0-6-2.68634483-6-6 0-3.31365517 2.68634483-6 6-6 3.31365517 0 6 2.68634483 6 6 0 3.31365517-2.68634483 6-6 6z" fill-opacity=".12" fill="#000" fill-rule="nonzero"/><mask id="b" fill="#fff"><use xlink:href="#a"/></mask><path d="M6 11c2.76137042 0 5-2.23862958 5-5 0-2.76137042-2.23862958-5-5-5-2.76137042 0-5 2.23862958-5 5 0 2.76137042 2.23862958 5 5 5zm0 1c-3.31365517 0-6-2.68634483-6-6 0-3.31365517 2.68634483-6 6-6 3.31365517 0 6 2.68634483 6 6 0 3.31365517-2.68634483 6-6 6z" fill="#000" fill-rule="nonzero" mask="url(#b)"/></g></svg>