<svg width="16" height="16" viewBox="0 0 16 16" xmlns="http://www.w3.org/2000/svg"><title>sources-and-media/spreadsheet_16</title><path d="M3.5 3c.276 0 .5.224.5.5 0 .276-.224.5-.5.5l-2 0c-.276 0-.5-.224-.5-.5 0-.276.224-.5.5-.5l2 0zm9 1c-.276 0-.5-.224-.5-.5 0-.276.224-.5.5-.5l2 0c.276 0 .5.224.5.5 0 .276-.224.5-.5.5l-2 0zm-3-1c.276 0 .5.224.5.5 0 .276-.224.5-.5.5l-3 0c-.276 0-.5-.224-.5-.5 0-.276.224-.5.5-.5l3 0zm-6 10c.276 0 .5.224.5.5 0 .276-.224.5-.5.5l-2 0c-.276 0-.5-.224-.5-.5 0-.276.224-.5.5-.5l2 0zm11 0c.276 0 .5.224.5.5 0 .276-.224.5-.5.5l-2 0c-.276 0-.5-.224-.5-.5 0-.276.224-.5.5-.5l2 0zm-5 0c.276 0 .5.224.5.5 0 .276-.224.5-.5.5l-3 0c-.276 0-.5-.224-.5-.5 0-.276.224-.5.5-.5l3 0zm-6-5c.276 0 .5.224.5.5 0 .276-.224.5-.5.5l-2 0c-.276 0-.5-.224-.5-.5 0-.276.224-.5.5-.5l2 0zm11 0c.276 0 .5.224.5.5 0 .276-.224.5-.5.5l-2 0c-.276 0-.5-.224-.5-.5 0-.276.224-.5.5-.5l2 0zm-5 0c.276 0 .5.224.5.5 0 .276-.224.5-.5.5l-3 0c-.276 0-.5-.224-.5-.5 0-.276.224-.5.5-.5l3 0z" fill="#000" fill-rule="evenodd"/></svg>