<svg width="16" height="16" viewBox="0 0 16 16" fill="none" xmlns="http://www.w3.org/2000/svg">
<path fill-rule="evenodd" clip-rule="evenodd" d="M15.5 14H0.5C0.224 14 0 14.224 0 14.5C0 14.776 0.224 15 0.5 15H15.5C15.776 15 16 14.776 16 14.5C16 14.224 15.776 14 15.5 14ZM2 6H4V8H2V6ZM1.944 13H4.056C4.576 13 5 12.576 5 12.056V5.945C5 5.424 4.576 5 4.056 5H1.944C1.424 5 1 5.424 1 5.945V12.056C1 12.576 1.424 13 1.944 13ZM7 11H9V9H7V11ZM6.945 13H9.054C9.575 13 9.999 12.576 9.999 12.056V8.944C9.999 8.424 9.575 8 9.054 8H6.945C6.424 8 6 8.424 6 8.944V12.056C6 12.576 6.424 13 6.945 13ZM12 5H14V2H12V5ZM11.944 13H14.056C14.576 13 15 12.576 15 12.056V1.944C15 1.424 14.576 1 14.056 1H11.944C11.424 1 11 1.424 11 1.944V12.056C11 12.576 11.424 13 11.944 13Z" fill="#121212"/>
</svg>
