<svg width="14" height="14" viewBox="0 0 14 14" fill="none" xmlns="http://www.w3.org/2000/svg">
<path d="M2 4.52841V2H12V2.27312L8.49663 5.33857L5.62274 2.87523C5.27347 2.57587 4.76503 2.55338 4.39071 2.82076L2 4.52841ZM2 7.95969V6.75731L4.97194 4.63449L7.84416 7.09639C8.22304 7.42114 8.78335 7.41687 9.15723 7.08638L12 4.57358V6.25L8.45939 8.90546L4.53605 6.72583C4.1813 6.52874 3.74261 6.5656 3.42571 6.81912L2 7.95969ZM2 12V10.3272L4.05758 8.60397L7.97375 10.7796C8.31858 10.9712 8.74381 10.9421 9.05939 10.7055L12 8.5V12H2Z" fill="#121212" stroke="#121212" stroke-linecap="round" stroke-linejoin="round"/>
</svg>
