<svg width="20" height="20" viewBox="0 0 20 20" xmlns="http://www.w3.org/2000/svg"><title>common-actions/stop-content-share_20</title><path d="M19 16.5c0 .827-.673 1.5-1.5 1.5L2.707 18l13-13 1.792 0 .001 0c.827 0 1.5.674 1.5 1.5l0 10zM10.5 2.706l3.043 3.044L10.5 8.793l0-6.087zM17.5 4l-.793 0 2.147-2.146c.195-.196.195-.512 0-.708-.196-.195-.512-.195-.708 0L14.25 5.042l-3.896-3.896c-.017-.017-.037-.023-.054-.037-.034-.026-.068-.054-.109-.071C10.13 1.013 10.065 1 10 1c-.065 0-.13.013-.191.038-.041.017-.075.045-.109.071-.017.014-.037.02-.054.037l-4 4c-.194.194-.194.511 0 .708.099.096.227.145.354.145.127 0 .255-.049.354-.145L9.5 2.706l0 7.087-7.9 7.9c-.362-.275-.6-.705-.6-1.193l0-10C1 5.674 1.673 5 2.5 5c.275 0 .5-.225.5-.5 0-.274-.225-.5-.5-.5C1.125 4 0 5.125 0 6.5l0 10c0 .762.353 1.439.895 1.898l-.749.748c-.195.196-.195.512 0 .708.098.097.226.146.354.146.128 0 .256-.049.354-.146l.961-.962c.218.063.445.108.683.108l.002 0 15 0 .002 0C18.876 18.999 20 17.875 20 16.5l0-10C20 5.125 18.875 4 17.5 4z" fill-rule="evenodd"/></svg>