<svg width="28" height="24" viewBox="0 0 28 24" xmlns="http://www.w3.org/2000/svg"><title>alerts-and-notifications/stored-info_24</title><path d="M24.5 9L19 9c-1.103 0-2-.897-2-2 0-.947.675-1.771 1.604-1.959.233-.047.396-.303.396-.541C19 3.121 20.121 2 21.5 2c1.056 0 2 .676 2.35 1.682.073.209.271.358.497.335.003 0 .142-.015.157-.017C25.881 4.002 27 5.123 27 6.5 27 7.879 25.879 9 24.5 9m-11 14C7.71 23 3 18.29 3 12.5 3 6.71 7.71 2 13.5 2c1.728 0 3.345.444 4.782 1.189-.125.307-.222.63-.258.976C16.831 4.576 16 5.712 16 7c0 1.654 1.346 3 3 3l4.679 0c.204.801.321 1.636.321 2.5C24 18.29 19.29 23 13.5 23M28 6.5c0 1.861-1.465 3.374-3.3 3.48.19.81.3 1.651.3 2.52C25 18.851 19.851 24 13.5 24 7.149 24 2 18.851 2 12.5 2 6.149 7.149 1 13.5 1c1.913 0 3.707.479 5.289 1.31C19.431 1.51 20.405 1 21.5 1c1.354 0 2.577.791 3.151 2.003C26.511 3.083 28 4.621 28 6.5zM13.5 7c-.276 0-.5.224-.5.5 0 .276.224.5.5.5.276 0 .5-.224.5-.5 0-.276-.224-.5-.5-.5zm0 3c-.276 0-.5.224-.5.5l0 7c0 .276.224.5.5.5.276 0 .5-.224.5-.5l0-7c0-.276-.224-.5-.5-.5z" fill="#000" fill-rule="evenodd"/></svg>