<svg width="28" height="24" viewBox="0 0 28 24" xmlns="http://www.w3.org/2000/svg"><title>alerts-and-notifications/stored-info_24</title><path d="M24.471 2.048C26.455 2.283 28 3.952 28 6c0 2.209-1.791 4-4 4l-.194 0c.114.651.194 1.315.194 2 0 6.627-5.373 12-12 12-6.627 0-12-5.373-12-12C0 5.373 5.373 0 12 0c2.133 0 4.125.571 5.86 1.548C18.589.609 19.719 0 21 0c1.496 0 2.785.831 3.471 2.048zM24 9c1.654 0 3-1.346 3-3 0-1.508-1.138-2.78-2.646-2.959-.318-.038-.597-.225-.754-.502C23.064 1.59 22.068 1 21 1c-1.456 0-2.695 1.045-2.945 2.483-.057.328-.273.605-.576.742C16.581 4.628 16 5.521 16 6.5 16 7.879 17.121 9 18.5 9L24 9zm-1 3c0-.686-.083-1.35-.206-2L18.5 10C16.567 10 15 8.433 15 6.5c0-1.422.852-2.641 2.069-3.187.056-.322.162-.623.289-.913C15.771 1.511 13.945 1 12 1 5.935 1 1 5.935 1 12c0 6.065 4.935 11 11 11 6.065 0 11-4.935 11-11zM12 6c.276 0 .5.224.5.5 0 .276-.224.5-.5.5-.276 0-.5-.224-.5-.5 0-.276.224-.5.5-.5zm0 4c.275 0 .5.225.5.5l0 7c0 .275-.225.5-.5.5-.275 0-.5-.225-.5-.5l0-7c0-.275.225-.5.5-.5z" fill="#000" fill-rule="evenodd"/></svg>