<svg width="18" height="16" viewBox="0 0 18 16" xmlns="http://www.w3.org/2000/svg"><title>alerts-and-notifications/stored-info_16</title><path d="M18 4.625c0 1.248-.962 2.262-2.176 2.357.103.492.176.995.176 1.518 0 4.135-3.365 7.5-7.5 7.5C4.365 16 1 12.635 1 8.5 1 4.365 4.365 1 8.5 1c1.239 0 2.4.317 3.43.852.413-.519 1.047-.852 1.757-.852.855 0 1.633.498 2.011 1.25C16.972 2.279 18 3.333 18 4.625zM15.645 6C16.392 6 17 5.383 17 4.625c-.001-.828-.774-1.475-1.558-1.357-.244.04-.484-.116-.555-.356-.155-.537-.649-.912-1.2-.912-.69 0-1.252.57-1.252 1.271 0 .263-.2.591-.463.608-.55.034-.98.499-.98 1.059 0 .585.469 1.062 1.046 1.062l3.607 0zM8.5 15c3.584 0 6.5-2.917 6.5-6.5 0-.52-.084-1.016-.202-1.5l-2.76 0c-1.128 0-2.046-.925-2.046-2.062 0-.928.614-1.722 1.464-1.977.01-.072.032-.14.048-.21C10.604 2.277 9.586 2 8.5 2 4.916 2 2 4.917 2 8.5 2 12.083 4.916 15 8.5 15zm0-8c.268 0 .5.223.5.498l0 4.004c0 .283-.224.498-.5.498-.268 0-.5-.223-.5-.498l0-4.004C8 7.215 8.224 7 8.5 7zm0-2c.276 0 .5.224.5.5 0 .276-.224.5-.5.5-.276 0-.5-.224-.5-.5 0-.276.224-.5.5-.5z" fill="#000" fill-rule="evenodd"/></svg>