<svg width="18" height="16" viewBox="0 0 18 16" xmlns="http://www.w3.org/2000/svg"><title>alerts-and-notifications/stored-info_16</title><path d="M15.5 5L12 5c-.552 0-1-.448-1-1 0-.359.192-.683.515-.864.285-.161.473-.451.505-.777C12.093 1.584 12.729 1 13.5 1c.468 0 .902.22 1.191.604.19.25.485.397.798.397.013 0 .026 0 .038-.001.815.016 1.473.683 1.473 1.5 0 .827-.673 1.5-1.5 1.5M8 15c-3.859 0-7-3.141-7-7 0-3.859 3.141-7 7-7 1.128 0 2.184.284 3.128.762-.05.162-.088.329-.105.503C10.416 2.607 10 3.252 10 4c0 1.104.896 2 2 2l2.698 0c.192.635.302 1.304.302 2 0 3.859-3.141 7-7 7M18 3.5c0 1.308-1.007 2.368-2.286 2.479C15.885 6.627 16 7.298 16 8c0 4.418-3.582 8-8 8-4.418 0-8-3.582-8-8 0-4.418 3.582-8 8-8 1.306 0 2.533.321 3.621.876C12.076.344 12.743 0 13.5 0c.815 0 1.533.396 1.989 1.001.004 0 .007-.001.011-.001C16.881 1 18 2.119 18 3.5zM8 4c-.276 0-.5.224-.5.5 0 .276.224.5.5.5.276 0 .5-.224.5-.5 0-.276-.224-.5-.5-.5zm0 3c-.275 0-.5.225-.5.5l0 4c0 .275.225.5.5.5.275 0 .5-.225.5-.5l0-4c0-.275-.225-.5-.5-.5z" fill="#000" fill-rule="evenodd"/></svg>