<svg width="24" height="20" viewBox="0 0 24 20" xmlns="http://www.w3.org/2000/svg"><title>alerts-and-notifications/stored-info_20</title><path d="M20.659 2.016C22.517 2.102 24 3.621 24 5.5 24 7.434 22.433 9 20.5 9l-.565 0c.037.329.065.661.065 1 0 5.523-4.477 10-10 10-5.523 0-10-4.477-10-10C0 4.477 4.477 0 10 0c1.757 0 3.396.473 4.83 1.27C15.467.499 16.419 0 17.5 0c1.4 0 2.6.828 3.159 2.016zM20.5 8C21.878 8 23 6.879 23 5.5c0-1.332-1.048-2.424-2.387-2.484-.37-.018-.701-.239-.859-.574C19.335 1.553 18.472 1 17.5 1c-1.288 0-2.35.975-2.472 2.268-.036.39-.299.724-.671.851C13.545 4.397 13 5.153 13 6c0 1.103.897 2 2 2l5.5 0zM19 10c0-.34-.03-.672-.071-1L15 9c-1.657 0-3-1.344-3-3 0-1.316.854-2.422 2.033-2.826.035-.37.138-.718.278-1.046C13.027 1.422 11.566 1 10 1c-4.962 0-9 4.037-9 9 0 4.963 4.038 9 9 9 4.963 0 9-4.037 9-9zm-9-4c.276 0 .5.224.5.5 0 .276-.224.5-.5.5-.276 0-.5-.224-.5-.5 0-.276.224-.5.5-.5zm0 3c.275 0 .5.225.5.5l0 4c0 .275-.225.5-.5.5-.275 0-.5-.225-.5-.5l0-4c0-.275.225-.5.5-.5z" fill="#000" fill-rule="evenodd"/></svg>