<svg width="16" height="16" viewBox="0 0 16 16" xmlns="http://www.w3.org/2000/svg"><title>hardware/sx10_16</title><path d="M14 3c1.103 0 2 .897 2 2l0 6c0 1.103-.897 2-2 2L2 13c-1.103 0-2-.897-2-2l0-6c0-1.103.897-2 2-2l12 0zm1 8l0-6c0-.551-.448-1-1-1L2 4c-.552 0-1 .449-1 1l0 6c0 .551.448 1 1 1l12 0c.552 0 1-.449 1-1zm-1.502-1c.275 0 .5.224.5.5 0 .276-.225.5-.5.5l-1 0c-.276 0-.5-.224-.5-.5 0-.276.224-.5.5-.5l1 0zm-5-2c.825 0 1.5.675 1.5 1.5 0 .825-.675 1.5-1.5 1.5l-1 0c-.825 0-1.5-.675-1.5-1.5 0-.825.675-1.5 1.5-1.5l1 0zm0 2c.271 0 .5-.229.5-.5 0-.271-.229-.5-.5-.5l-1 0c-.271 0-.5.229-.5.5 0 .271.229.5.5.5l1 0z" fill="#000" fill-rule="evenodd"/></svg>