<svg width="20" height="20" viewBox="0 0 20 20" xmlns="http://www.w3.org/2000/svg"><title>hardware/sx10_20</title><path d="M17.5 4C18.875 4 20 5.125 20 6.5l0 7c0 1.375-1.125 2.5-2.5 2.5l-15 0C1.125 16 0 14.875 0 13.5l0-7C0 5.125 1.125 4 2.5 4l15 0zm1.5 9.5l0-7c0-.827-.673-1.5-1.5-1.5l-15 0C1.673 5 1 5.673 1 6.5l0 7c0 .827.673 1.5 1.5 1.5l15 0c.827 0 1.5-.673 1.5-1.5zM11 10c1.1 0 2 .9 2 2 0 1.1-.9 2-2 2l-2 0c-1.1 0-2-.9-2-2 0-1.1.9-2 2-2l2 0zm0 3c.552 0 1-.449 1-1 0-.551-.448-1-1-1l-2 0c-.552 0-1 .449-1 1 0 .551.448 1 1 1l2 0zm6.5 0c.275 0 .5.225.5.5 0 .275-.225.5-.5.5l-1 0c-.275 0-.5-.225-.5-.5 0-.275.225-.5.5-.5l1 0z" fill="#000" fill-rule="evenodd"/></svg>