<svg width="16" height="16" viewBox="0 0 16 16" xmlns="http://www.w3.org/2000/svg"><title>hardware/sx80-codec_16</title><path d="M14.293 10L1.707 10l.854-.854c.092-.093.221-.146.353-.146l10.172 0c.132 0 .261.053.353.146l.854.854zM1.5 7l13 0c.275 0 .5.224.5.5l0 1.792-.853-.853C13.867 8.16 13.481 8 13.086 8L2.914 8c-.394 0-.781.16-1.06.439L1 9.293 1 7.5c0-.276.225-.5.5-.5zm13-1l-13 0C.673 6 0 6.673 0 7.5l0 2c0 .827.673 1.5 1.5 1.5l13 0c.827 0 1.5-.673 1.5-1.5l0-2c0-.827-.673-1.5-1.5-1.5z" fill="#000" fill-rule="evenodd"/></svg>