<svg width="20" height="20" viewBox="0 0 20 20" xmlns="http://www.w3.org/2000/svg"><title>format/tag_20</title><path d="M18.7194929 6.95721108L17.5673241 10.026455c-.2550374.6799463-.6450945 1.2850087-1.16017 1.8022073l-6.48495023 6.5029231c-.86712706.8656585-2.3783485.8656585-3.2464757 0l-5.00473333-4.9962578c-.895131155-.8936153-.895131155-2.348361.00100015-3.2419763l6.47794919-6.49593389c.51907606-.52119236 1.13116575-.91558121 1.82026672-1.17318204l3.0604484-1.14622381c.5020736-.18870758 1.0261504-.279566783 1.5462266-.279566783 1.153169 0 2.2873352.449303763 3.1294585 1.290999473 1.2221791 1.22010932 1.6202375 3.0522702 1.0131485 4.66776683m-.3060448-5.37367296c1.4992196 1.49568229 1.9872911 3.74319954 1.2431821 5.72512835l-1.153169 3.06924393c-.3050447.8117421-.7721131 1.5376173-1.3872032 2.1546611l-6.4859504 6.5039215C10.0072163 19.6585291 9.17909498 20 8.29996616 20c-.8811291 0-1.7082503-.3414709-2.3313416-.9625085L.963891236 14.0412337c-1.285188315-1.2830119-1.285188315-3.3697782 0-4.65279005L7.44084028 2.89350819c.62209115-.624033 1.35419843-1.09630117 2.17831918-1.40482309L12.6786078.34345974c1.986291-.743847335 4.2366207-.256602369 5.7348403 1.24007838zm-3.4162006 2.41246165c-.5520809 0-1.0001466.4463084-1.0001466.9984528 0 .5521444.4480657.9984528 1.0001466.9984528.5520809 0 1.0001465-.4463084 1.0001465-.9984528 0-.5521444-.4480656-.9984528-1.0001465-.9984528z" fill="#000" fill-rule="evenodd"/></svg>