<svg width="20" height="20" viewBox="0 0 20 20" xmlns="http://www.w3.org/2000/svg"><title>format/tag_20</title><path d="M18.4134481 1.58353812c1.4992196 1.49568229 1.9872911 3.74319954 1.2431821 5.72512835l-1.153169 3.06924393c-.3050447.8117421-.7721131 1.5376173-1.3872032 2.1546611l-6.4859504 6.5039215C10.0072163 19.6585291 9.17909498 20 8.29996616 20c-.8811291 0-1.7082503-.3414709-2.3313416-.9625085L.963891236 14.0412337c-1.285188315-1.2830119-1.285188315-3.3697782 0-4.65279005L7.44084028 2.89350819c.62209115-.624033 1.35419843-1.09630117 2.17831918-1.40482309L12.6786078.34345974c1.986291-.743847335 4.2366207-.256602369 5.7348403 1.24007838zm.3060448 5.37367296c.607089-1.61549663.2090306-3.44765751-1.0131485-4.66776683-.8421233-.84169571-1.9762895-1.290999473-3.1294585-1.290999473-.5200762 0-1.044153.090859203-1.5462266.279566783L9.9702109 2.42423537c-.68910097.25760083-1.30119066.65198968-1.82026672 1.17318204L1.67199499 10.0933513c-.896131305.8936153-.896131305 2.348361-.00100015 3.2419763l5.00473333 4.9962578c.8681272.8656585 2.37934864.8656585 3.2464757 0l6.48495023-6.5029231c.5150755-.5171986.9051326-1.122261 1.16017-1.8022073l1.1521688-3.06924392zm-3.7222454-2.96121131c.5520809 0 1.0001465.4463084 1.0001465.9984528 0 .5521444-.4480656.9984528-1.0001465.9984528-.5520809 0-1.0001466-.4463084-1.0001466-.9984528 0-.5521444.4480657-.9984528 1.0001466-.9984528z" fill="#000" fill-rule="evenodd"/></svg>