<svg width="20" height="20" xmlns="http://www.w3.org/2000/svg"><path d="M5.482 3.54a1.64 1.64 0 012.314.006l4.76 5-.073-.37a1.963 1.963 0 011.256-2.237.956.956 0 011.216.521l2.562 6.079c.894 2.23.522 4.53-.968 6.008a4.995 4.995 0 01-3.531 1.45 4.997 4.997 0 01-3.552-1.471L6.928 15.96a2.294 2.294 0 01-.67-1.642 2.292 2.292 0 01.69-1.633c.738-.727 1.518-1.497 2.096-2.073l.46-.46-4.04-4.31A1.61 1.61 0 015 4.696c0-.438.173-.848.482-1.155zm1.598.705A.638.638 0 006 4.699c0 .17.065.329.183.449l4.38 4.671a.5.5 0 01-.005.69c-.38.393-1.698 1.697-2.907 2.889-.251.247-.39.575-.392.927-.002.35.132.682.38.932l2.537 2.565a4.02 4.02 0 005.669.015c1.218-1.209 1.497-3.046.748-4.918l-2.56-6.07a1.046 1.046 0 00-.57 1.132l.41 2.06a.5.5 0 01-.852.442zM7 0c2.757 0 5 2.317 5 5.166a.5.5 0 01-1 0C11 2.87 9.206 1 7 1S3 2.87 3 5.166c0 2.297 1.794 4.166 4 4.166a.5.5 0 010 1c-2.757 0-5-2.317-5-5.166S4.243 0 7 0z" fill="#171B1F" fill-rule="evenodd"/></svg>