<svg width="24" height="20" viewBox="0 0 24 20" xmlns="http://www.w3.org/2000/svg"><title>meetings/team-active_20</title><path d="M23.7246 13.907c-.179-.816-.705-1.45-1.378-1.736.401-.444.653-1.026.653-1.671 0-1.379-1.121-2.5-2.5-2.5-1.378 0-2.5 1.121-2.5 2.5 0 .564.196 1.081.513 1.5l-.051 0c-.146 0-.288.035-.43.065-.746-.666-1.701-1.065-2.734-1.065l-.329 0c1.226-.912 2.031-2.358 2.031-4 0-2.757-2.243-5-5-5-2.756 0-5 2.243-5 5 0 1.642.806 3.088 2.032 4l-.329 0c-1.034 0-1.988.399-2.734 1.065-.142-.03-.285-.065-.431-.065l-.051 0c.318-.419.513-.936.513-1.5 0-1.379-1.122-2.5-2.5-2.5-1.378 0-2.5 1.121-2.5 2.5 0 .645.251 1.227.653 1.671-.673.286-1.199.92-1.378 1.736l-.257 1.176c-.05.227.006.47.15.649.137.17.337.268.551.268l3.488 0-.179.765c-.072.307-.002.625.192.869.185.232.458.366.749.366l14.063 0c.291 0 .564-.134.749-.366.194-.244.264-.562.192-.869l-.179-.765 3.488 0c.213 0 .414-.098.55-.268.144-.179.2-.422.15-.649l-.257-1.176z" fill="#000" fill-rule="evenodd"/></svg>