<svg width="16" height="16" viewBox="0 0 16 16" xmlns="http://www.w3.org/2000/svg"><title>meetings/team_16</title><path d="M14.9474057 12.638c-.104.387-.352.71-.698.911-.229.131-.488.201-.748.201-.535 0-1.034-.288-1.302-.751-.413-.715-.167-1.634.55-2.048.227-.132.486-.202.747-.202.536 0 1.034.287 1.302.75.2.348.253.752.149 1.139m-3.949 1.558c-.912.527-1.94700003.805-2.99300003.805-1.303 0-2.532-.452-3.549-1.204.616-.78.734-1.885.207-2.798-.463-.801-1.304-1.25-2.168-1.25-.147 0-.292.031-.439.057-.107-.778-.063-1.577.146-2.359.415-1.548 1.408-2.842 2.796-3.643.224-.13.459-.234.697-.329.381.896 1.269 1.525 2.303 1.525 1.029 0 1.912-.623 2.29600003-1.512 1.197.499 2.233 1.357 2.9 2.512.673 1.165.9 2.491.719 3.803-.139-.023-.276-.054-.417-.054-.424 0-.854.109-1.247.335-1.197.691-1.606 2.22-.915 3.415.062.11.148.196.224.292-.184.138-.357.287-.56.405m-9.80000003-1.197c-.413000005-.715-.167-1.634.55-2.048.227-.132.486-.202.747-.202.536 0 1.034.287 1.302.75.413.717.167 1.636-.549 2.05-.229.131-.488.201-.748.201-.535 0-1.034-.288-1.302-.751m6.8-11.999c.827 0 1.5.673 1.5 1.5 0 .827-.673 1.5-1.5 1.5-.827 0-1.5-.673-1.5-1.5 0-.827.673-1.5 1.5-1.5m7.66600003 9.999c-.198-.341-.474-.604-.781-.811.27-1.557.03-3.212-.823-4.688-.836-1.448-2.115-2.468-3.564-3.019C10.4864057 1.109 9.37340567 0 7.99840567 0c-1.373 0-2.486 1.108-2.498 2.478-.34.127-.677.272-1.002.459-2.608 1.506-3.857000005 4.435-3.377 7.239-1.091000005.725-1.452000005 2.174-.788000005 3.323.463.803 1.302000005 1.251 2.167000005 1.251.383 0 .766-.101 1.128-.286 1.247.998 2.797 1.537 4.377 1.537 1.187 0 2.39000003-.302 3.49300003-.939.308-.178.59-.383.858-.6.355.183.745.288 1.145.288.424 0 .853-.108 1.248-.336 1.195-.689 1.605-2.218.915-3.415" fill-rule="evenodd"/></svg>