<svg width="14" height="14" viewBox="0 0 14 14" xmlns="http://www.w3.org/2000/svg"><title>meetings/team_14</title><path d="M12.9569734 11.025c-.082.307-.278.562-.553.721-.18.104-.385.159-.592.159-.423 0-.818-.228-1.03-.594-.327-.566-.132-1.294.435-1.622.18-.103.385-.159.592-.159.423 0 .818.227 1.03.594.158.275.2.594.118.901m-8.99599997.963c.483-.676.561-1.597.119-2.364-.405-.702-1.141-1.094-1.896-1.094-.12 0-.239.027-.358.046-.049-.268-.078-.543-.078-.825 0-2.167 1.323-4.021 3.201-4.82.306.84 1.104 1.444 2.049 1.444.945 0 1.743-.603 2.048-1.443 1.87899997.799 3.20199997 2.652 3.20199997 4.819 0 .283-.032.557-.082.825-.118-.02-.236-.046-.357-.046-.372 0-.748.095-1.092.293-1.04599997.604-1.40499997 1.942-.80099997 2.988.036.062.08599997.108.12699997.164-.86099997.629-1.89899997 1.026-3.04499997 1.026-1.141 0-2.178-.39-3.037-1.013m-2.804-.677c-.327-.566-.132-1.294.435-1.622.18-.103.386-.159.592-.159.423 0 .818.227 1.03.594.159.275.201.594.118.901-.082.307-.278.562-.553.721-.18.104-.385.159-.592.159-.423 0-.818-.228-1.03-.594m5.841-10.311c.655 0 1.188.533 1.188 1.187 0 .655-.533 1.188-1.188 1.188-.637 0-1.149-.507-1.177-1.137l0-.101c.028-.63.54-1.137 1.177-1.137m6.70699997 8.624c-.154-.266-.364-.471-.596-.643.082-.399.139-.807.139-1.23 0-2.692-1.706-4.978-4.09199997-5.857-.145-1.068-1.051-1.894-2.158-1.894-1.107 0-2.013.825-2.158 1.893-2.386.879-4.092 3.165-4.092 5.858 0 .42.057.824.138 1.22-.8780000005.654-1.156 1.869-.595 2.84.406.702 1.141 1.094 1.896 1.094.326 0 .652-.087.96-.238 1.062.833 2.397 1.334 3.851 1.334 1.453 0 2.785-.501 3.84599997-1.334.302.149.631.238.968.238.372 0 .748-.094 1.092-.293 1.046-.605 1.405-1.941.801-2.988" fill-rule="evenodd"/></svg>