<svg width="20" height="16" viewBox="0 0 20 16" xmlns="http://www.w3.org/2000/svg"><title>meetings/team_16</title><path d="M19 12l-1.712 0c-.191-.574-.475-1.095-.848-1.528.271-.283.638-.472 1.06-.472.827 0 1.5.673 1.5 1.5l0 .5zM3.002 14.993l.551-2.349C3.918 11.087 5.213 10 6.703 10l6.594 0c1.49 0 2.787 1.087 3.151 2.644L17.03 15l-14.028-.007zM1 11.5c0-.827.673-1.5 1.5-1.5.422 0 .789.188 1.061.471-.374.434-.658.955-.849 1.529L1 12l0-.5zm0-4C1 6.673 1.673 6 2.5 6 3.327 6 4 6.673 4 7.5 4 8.327 3.327 9 2.5 9 1.673 9 1 8.327 1 7.5zm5-2.501C6 2.794 7.794 1 10 1c2.206 0 4 1.794 4 3.999 0 2.206-1.794 4-4 4-2.206 0-4-1.794-4-4zM16 7.5c0-.827.673-1.5 1.5-1.5.827 0 1.5.673 1.5 1.5 0 .827-.673 1.5-1.5 1.5-.827 0-1.5-.673-1.5-1.5zm2.986 2C19.599 9.044 20 8.321 20 7.5 20 6.119 18.881 5 17.5 5 16.119 5 15 6.119 15 7.5c0 .828.407 1.557 1.028 2.012-.118.089-.235.177-.337.285-.688-.499-1.51-.797-2.394-.797l-.329 0C14.193 8.088 15 6.641 15 4.999 15 2.243 12.757 0 10 0 7.243 0 5 2.243 5 4.999 5 6.641 5.807 8.088 7.032 9l-.329 0c-.883 0-1.706.298-2.394.797-.101-.108-.219-.196-.337-.285C4.593 9.057 5 8.328 5 7.5 5 6.119 3.881 5 2.5 5 1.119 5 0 6.119 0 7.5c0 .821.401 1.544 1.014 2C.401 9.956 0 10.679 0 11.5l0 .5c0 .553.447 1 1 1l1.441 0-.414 1.764c-.071.308-.002.625.193.869.184.233.458.367.75.367l14.06 0c.292 0 .566-.134.75-.367.195-.244.264-.561.193-.869L17.559 13 19 13c.553 0 1-.447 1-1l0-.5c0-.821-.401-1.544-1.014-2z" fill="#000" fill-rule="evenodd"/></svg>