<svg width="31" height="32" viewBox="0 0 31 32" xmlns="http://www.w3.org/2000/svg"><title>meetings/team-active_32</title><path d="M8.783 27.56C9.532 26.756 10 25.686 10 24.5c0-2.485-2.015-4.5-4.5-4.5-.448 0-.873.086-1.281.208C4.08 19.492 4 18.756 4 18c0-5.105 3.213-9.459 7.717-11.189C12.28 8.652 13.974 10 16 10c2.026 0 3.721-1.349 4.284-3.191C24.788 8.539 28 12.895 28 18c0 .756-.094 1.487-.229 2.204-.406-.12-.827-.204-1.271-.204-2.485 0-4.5 2.015-4.5 4.5 0 1.182.465 2.247 1.209 3.05C21.201 29.077 18.713 30 16 30c-2.712 0-5.206-.916-7.217-2.44m19.933-6.955c.176-.842.284-1.709.284-2.605 0-5.607-3.556-10.374-8.53-12.197.007-.102.03-.199.03-.303C20.5 3.015 18.485 1 16 1c-2.485 0-4.5 2.015-4.5 4.5 0 .103.023.2.03.301C6.555 7.625 3 12.393 3 18c0 .895.118 1.758.294 2.601C1.931 21.374 1 22.821 1 24.5 1 26.985 3.015 29 5.5 29c.933 0 1.798-.283 2.517-.77C10.221 29.957 12.983 31 16 31c3.016 0 5.772-1.05 7.975-2.776.72.489 1.588.776 2.525.776 2.485 0 4.5-2.015 4.5-4.5 0-1.676-.927-3.12-2.284-3.895" fill-rule="evenodd"/></svg>