<svg width="20" height="20" viewBox="0 0 20 20" xmlns="http://www.w3.org/2000/svg"><title>meetings/team_20</title><path d="M17 17c-1.103 0-2-.897-2-2 0-1.103.897-2 2-2 1.103 0 2 .897 2 2 0 1.103-.897 2-2 2m-7 2c-1.888 0-3.609-.689-4.955-1.815C5.63 16.637 6 15.864 6 15c0-1.657-1.343-3-3-3-.242 0-.475.036-.699.091-.032-.277-.051-.557-.051-.841 0-3.282 2.062-6.073 4.949-7.2C7.626 5.187 8.714 6 10 6c1.285 0 2.373-.813 2.8-1.948 2.888 1.127 4.95 3.916 4.95 7.198 0 .284-.021.563-.052.84-.224-.054-.456-.09-.698-.09-1.657 0-3 1.343-3 3 0 .866.373 1.641.96 2.188C13.615 18.315 11.888 19 10 19m-9-4c0-1.103.897-2 2-2 1.103 0 2 .897 2 2 0 1.103-.897 2-2 2-1.103 0-2-.897-2-2m9-14c1.103 0 2 .897 2 2 0 1.103-.897 2-2 2-1.103 0-2-.897-2-2 0-1.103.897-2 2-2m8.646 11.496c.061-.408.104-.821.104-1.246 0-3.778-2.398-6.988-5.754-8.212 0-.013.004-.025.004-.038 0-1.657-1.343-3-3-3-1.657 0-3 1.343-3 3 0 .012.004.023.004.035C3.648 4.26 1.25 7.471 1.25 11.25c0 .425.041.839.1 1.247C.537 13.034 0 13.953 0 15c0 1.657 1.343 3 3 3 .417 0 .814-.086 1.175-.24C5.722 19.148 7.758 20 10 20c2.242 0 4.277-.853 5.825-2.239.362.153.758.239 1.175.239 1.657 0 3-1.343 3-3 0-1.048-.539-1.968-1.354-2.504" fill-rule="evenodd"/></svg>