<svg width="16" height="16" viewBox="0 0 16 16" fill="none" xmlns="http://www.w3.org/2000/svg">
<path fill-rule="evenodd" clip-rule="evenodd" d="M11 9H15V5H11V9ZM15 11.991C15 12.549 14.553 13 14.006 13H1.994C1.447 13 1 12.549 1 11.991V10H15V11.991ZM1 9H5V5H1V9ZM6 9H10V5H6V9ZM1.994 3H14.006C14.55 3 14.993 3.446 14.998 4H1.002C1.007 3.446 1.45 3 1.994 3V3ZM14.006 2H1.994C0.895 2 0 2.899 0 4.009V11.991C0 13.097 0.893 14 1.994 14H14.006C15.105 14 16 13.1 16 11.991V4.009C16 2.902 15.107 2 14.006 2V2Z" fill="#121212"/>
</svg>
