<svg width="20" height="20" viewBox="0 0 20 20" xmlns="http://www.w3.org/2000/svg"><title>meetings/telepresence_20</title><path d="M19 13.5c0 .827-.673 1.5-1.5 1.5l-.485 0c-.732-1.208-2.135-2-3.718-2l-.328 0C14.194 12.088 15 10.642 15 9c0-2.757-2.243-5-5-5-2.757 0-5 2.243-5 5 0 1.642.806 3.088 2.031 4l-.328 0c-1.583 0-2.986.792-3.718 2L2.5 15c-.827 0-1.5-.673-1.5-1.5l0-10C1 2.673 1.673 2 2.5 2l15 0c.827 0 1.5.673 1.5 1.5l0 10zM6 9c0-2.206 1.794-4 4-4 2.206 0 4 1.794 4 4 0 2.206-1.794 4-4 4-2.206 0-4-1.794-4-4zm-2.971 8.999l.517-1.839C3.904 14.888 5.202 14 6.703 14l6.594 0c1.501 0 2.799.888 3.157 2.16l.518 1.84-13.943-.001zM17.5 1l-15 0C1.119 1 0 2.119 0 3.5l0 10C0 14.881 1.119 16 2.5 16l.052 0-.519 1.847c-.075.266-.021.547.148.77.181.24.476.383.788.383l14.062 0c.312 0 .607-.143.788-.383.169-.223.223-.504.148-.77L17.448 16l.052 0c1.381 0 2.5-1.119 2.5-2.5l0-10C20 2.119 18.881 1 17.5 1z" fill="#000" fill-rule="evenodd"/></svg>