<svg width="16" height="12" viewBox="0 0 16 12" xmlns="http://www.w3.org/2000/svg"><title>meetings/telepresence-alert_12</title><path d="M15.8415 10.331c.205.341.211.752.017 1.1-.198.351-.572.569-.978.569l-5.761 0c-.406 0-.781-.218-.978-.569-.076-.136-.112-.283-.127-.431l-5.296 0c-.24 0-.464-.109-.596-.293-.121-.168-.155-.376-.091-.57l.046-.137-.577 0c-.829 0-1.5-.672-1.5-1.5l0-6c0-.828.671-1.5 1.5-1.5l9 0c.829 0 1.5.672 1.5 1.5l0 2.5c.378 0 .757.17.961.509l0 .001 2.88 4.821zm-.941.669c.077 0 .124-.084.085-.149l-2.863-4.781c-.057-.094-.194-.094-.25 0l-2.858 4.781c-.04.065.008.149.085.149l5.801 0zm-2.9004-4c.275 0 .5.225.5.5l0 1c0 .275-.225.5-.5.5-.275 0-.5-.225-.5-.5l0-1c0-.275.225-.5.5-.5zm0 2.5c.276 0 .5.224.5.5 0 .276-.224.5-.5.5-.276 0-.5-.224-.5-.5 0-.276.224-.5.5-.5zm-8.7616.166l-.109.334 5.227 0 .301-.504c-.203-.293-.63-.496-1.118-.496l-3.078 0c-.582 0-1.097.28-1.223.666zM8.0005 6c0-1.103-.897-2-2-2-1.103 0-2 .897-2 2 0 1.103.897 2 2 2 1.103 0 2-.897 2-2zm-5.539 3c.284-.451.785-.785 1.381-.924-.52-.54-.842-1.269-.842-2.076 0-1.654 1.345-3 3-3 1.653 0 3 1.346 3 3 0 .807-.324 1.536-.844 2.076.404.094.757.28 1.033.529l1.811-3.031 0-3.074c0-.275-.225-.5-.5-.5l-9 0c-.276 0-.5.225-.5.5l0 6c0 .275.224.5.5.5l.961 0z" fill="#000" fill-rule="evenodd"/></svg>