<svg width="64" height="64" viewBox="0 0 64 64" xmlns="http://www.w3.org/2000/svg"><title>meetings/telepresence_64</title><path d="M32 42c-8.271 0-15-6.729-15-15 0-8.271 6.729-15 15-15 8.271 0 15 6.729 15 15 0 8.271-6.729 15-15 15zm31 4.5c0 3.032-2.467 5.5-5.5 5.5l-2.224 0-.136-.534C53.717 45.893 48.631 42 42.771 42l-5.256 0C43.624 39.746 48 33.882 48 27c0-8.822-7.178-16-16-16-8.822 0-16 7.178-16 16 0 6.882 4.376 12.746 10.485 15l-5.256 0c-5.86 0-10.946 3.893-12.369 9.466L8.724 52 6.5 52C3.467 52 1 49.532 1 46.5l0-37C1 6.468 3.467 4 6.5 4l51 0C60.533 4 63 6.468 63 9.5l0 37zm-7.208 13.102c-.197.252-.497.398-.824.398L9.032 60c-.327 0-.627-.146-.824-.398-.187-.242-.252-.549-.177-.842l1.798-7.046c1.31-5.131 5.997-8.714 11.4-8.714l21.542 0c5.403 0 10.09 3.583 11.4 8.714l1.798 7.045c.075.294.01.601-.177.843zM57.5 3l-51 0C2.916 3 0 5.916 0 9.5l0 37C0 50.084 2.916 53 6.5 53l1.969 0-1.407 5.513c-.152.594-.022 1.216.357 1.702.388.499.976.785 1.613.785l45.936 0c.637 0 1.225-.286 1.613-.785.379-.486.509-1.108.357-1.703L55.531 53l1.969 0c3.584 0 6.5-2.916 6.5-6.5l0-37C64 5.916 61.084 3 57.5 3z" fill="#000" fill-rule="evenodd"/></svg>