<?xml version="1.0" encoding="UTF-8"?>
<svg width="20px" height="20px" viewBox="0 0 20 20" version="1.1" xmlns="http://www.w3.org/2000/svg" xmlns:xlink="http://www.w3.org/1999/xlink">
    <!-- Generator: Sketch 60.1 (88133) - https://sketch.com -->
    <title>hardware/telepresence-ix5000_20</title>
    <desc>Created with Sketch.</desc>
    <g id="hardware/telepresence-ix5000_20" stroke="none" stroke-width="1" fill="none" fill-rule="evenodd">
        <path d="M19.572,4.104 C19.123,3.437 18.362,3 17.5,3 L2.5,3 C1.121,3 0,4.121 0,5.5 L0,14.5 C0,15.018 0.158,15.498 0.428,15.896 C0.877,16.563 1.638,17 2.5,17 L17.5,17 C18.879,17 20,15.879 20,14.5 L20,5.5 C20,4.982 19.842,4.502 19.572,4.104 L19.572,4.104 Z M19,14.5 C19,15.327 18.327,16 17.5,16 L2.5,16 C2.293,16 2.096,15.958 1.917,15.882 C1.558,15.73 1.27,15.442 1.118,15.084 C1.042,14.904 1,14.707 1,14.5 L1,12 L19,12 L19,14.5 Z M14,11 L19,11 L19,6 L14,6 L14,11 Z M7,11 L13,11 L13,6 L7,6 L7,11 Z M1,11 L6,11 L6,6 L1,6 L1,11 Z M2.5,4 L17.5,4 C17.707,4 17.904,4.042 18.083,4.118 C18.442,4.27 18.73,4.558 18.882,4.916 C18.894,4.942 18.898,4.973 18.908,5 L1.092,5 C1.299,4.419 1.85,4 2.5,4 L2.5,4 Z" id="fill" fill="#171B1F"></path>
    </g>
</svg>