<svg width="16" height="16" viewBox="0 0 16 16" xmlns="http://www.w3.org/2000/svg"><title>hardware/telepresence-ix5000_16</title><path d="M11 9l4 0 0-4-4 0 0 4zm4 2.991c0 .558-.447 1.009-.994 1.009L1.994 13C1.447 13 1 12.549 1 11.991L1 10l14 0 0 1.991zM1 9l4 0 0-4-4 0 0 4zm5 0l4 0 0-4-4 0 0 4zM1.994 3l12.012 0c.544 0 .987.446.992 1L1.002 4c.005-.554.448-1 .992-1zm12.012-1L1.994 2C.895 2 0 2.899 0 4.009l0 7.982C0 13.097.893 14 1.994 14l12.012 0C15.105 14 16 13.1 16 11.991l0-7.982C16 2.902 15.107 2 14.006 2z" fill="#000" fill-rule="evenodd"/></svg>