<svg width="16" height="16" viewBox="0 0 16 16" xmlns="http://www.w3.org/2000/svg"><title>chat/text-heading-1_16</title><path d="M13.0186 14l0-6.217-1.589.87 0-.769 1.599-.88.729 0 0 6.996-.739 0zM2.5 14c-.276 0-.5-.224-.5-.5l0-.5 0-3.503L2 2.5c0-.276.224-.5.5-.5.276 0 .5.224.5.5l0 4.556c.636-.652 1.521-1.059 2.5-1.059 1.93 0 3.5 1.57 3.5 3.5L9 13.5c0 .276-.224.5-.5.5-.276 0-.5-.224-.5-.5l0-4.003c0-1.379-1.122-2.5-2.5-2.5-1.378 0-2.5 1.121-2.5 2.5L3 13l0 .5c0 .276-.224.5-.5.5z" fill="#000" fill-rule="evenodd"/></svg>