<svg width="16" height="16" viewBox="0 0 16 16" xmlns="http://www.w3.org/2000/svg"><title>chat/text-blockquote_16</title><path d="M2 8l4 0 0-5-4 0 0 5zm4-6c.552 0 1 .449 1 1l0 5.059L7 8.5l0 1C7 11.981 4.981 14 2.5 14c-.276 0-.5-.224-.5-.5 0-.276.224-.5.5-.5C4.43 13 6 11.43 6 9.5L6 9 2 9c-.552 0-1-.449-1-1l0-5c0-.551.448-1 1-1l4 0zm8 0c.552 0 1 .449 1 1l0 5.059 0 .441 0 1c0 2.481-2.019 4.5-4.5 4.5-.276 0-.5-.224-.5-.5 0-.276.224-.5.5-.5 1.93 0 3.5-1.57 3.5-3.5l0-.5-4 0c-.552 0-1-.449-1-1l0-5c0-.551.448-1 1-1l4 0zm-4 6l4 0 0-5-4 0 0 5z" fill="#000" fill-rule="evenodd"/></svg>