<svg width="16" height="16" viewBox="0 0 16 16" xmlns="http://www.w3.org/2000/svg"><title>chat/text-heading-2_16</title><path d="M1.5 14c-.276 0-.5-.224-.5-.5l0-.5 0-3.503L1 2.5c0-.276.224-.5.5-.5.276 0 .5.224.5.5l0 4.556c.636-.652 1.521-1.059 2.5-1.059 1.93 0 3.5 1.57 3.5 3.5L8 13.5c0 .276-.224.5-.5.5-.276 0-.5-.224-.5-.5l0-4.003c0-1.379-1.122-2.5-2.5-2.5-1.378 0-2.5 1.121-2.5 2.5L2 13l0 .5c0 .276-.224.5-.5.5zm8.9219-5.2373c.16-1.129 1.08-1.909 2.379-1.909 1.239 0 2.199.75 2.199 1.949 0 .93-.42 1.539-1.569 2.658l-1.89 1.85 3.439 0 0 .689-4.438 0 0-.689 2.448-2.419c.87-.85 1.25-1.359 1.25-2.079 0-.799-.549-1.329-1.459-1.329-.86 0-1.469.5-1.569 1.279l-.79 0z" fill="#000" fill-rule="evenodd"/></svg>