<svg width="16" height="16" viewBox="0 0 16 16" fill="none" xmlns="http://www.w3.org/2000/svg">
<path fill-rule="evenodd" clip-rule="evenodd" d="M9.69729 4.04119C9.95129 4.15019 10.0683 4.44419 9.96029 4.69719L6.96029 11.6972C6.87829 11.8872 6.69329 12.0002 6.50029 12.0002C6.43329 12.0002 6.36729 11.9882 6.30229 11.9602C6.04929 11.8512 5.93129 11.5572 6.04029 11.3042L9.04029 4.30419C9.14929 4.04819 9.44429 3.93119 9.69729 4.04119ZM5.35349 5.14719C5.54849 5.34219 5.54849 5.65919 5.35349 5.85419L3.20749 8.00119L5.35349 10.1472C5.54849 10.3422 5.54849 10.6592 5.35349 10.8542C5.25549 10.9522 5.12749 11.0012 4.99949 11.0012C4.87249 11.0012 4.74449 10.9522 4.64649 10.8542L2.14649 8.35419C1.95149 8.15919 1.95149 7.84219 2.14649 7.64719L4.64649 5.14719C4.84149 4.95219 5.15849 4.95219 5.35349 5.14719ZM10.9995 5.00119C11.1275 5.00119 11.2555 5.04919 11.3535 5.14719L13.8535 7.64719C14.0485 7.84219 14.0485 8.15919 13.8535 8.35419L11.3535 10.8542C11.1585 11.0492 10.8415 11.0492 10.6465 10.8542C10.4515 10.6592 10.4515 10.3422 10.6465 10.1472L12.7925 8.00119L10.6465 5.85419C10.4515 5.65919 10.4515 5.34219 10.6465 5.14719C10.7445 5.04919 10.8725 5.00119 10.9995 5.00119ZM14.5 13C14.776 13 15 13.224 15 13.5C15 13.776 14.776 14 14.5 14H1.5C1.224 14 1 13.776 1 13.5C1 13.224 1.224 13 1.5 13H14.5ZM14.5 2C14.776 2 15 2.224 15 2.5C15 2.776 14.776 3 14.5 3H1.5C1.224 3 1 2.776 1 2.5C1 2.224 1.224 2 1.5 2H14.5Z" fill="#121212"/>
</svg>
