<svg width="8" height="8" viewBox="0 0 8 8" xmlns="http://www.w3.org/2000/svg"><title>chat/text-blockquote_8</title><path d="M6.9488 2.03210318c-.552.205-.949.731-.949 1.353l0 .615.872 0c.071 0 .128.057.128.128l0 2.744c0 .071-.057.128-.128.128l-1.744 0c-.07 0-.128-.057-.128-.128l0-3.487c0-1.158.816-2.131999997 1.901-2.3829999965.05-.012.099.029.099.081l0 .8769999995c0 .033-.02.060999997-.051.071999997zM2.9004 1.0021031835c.05-.012.1.029.1.081l0 .8769999995c0 .033-.021.060999997-.052.071999997-.551.205-.948.731-.948 1.353l0 .615.872 0c.07 0 .128.057.128.128l0 2.744c0 .071-.058.128-.128.128l-1.744 0c-.071 0-.128-.057-.128-.128l0-3.487c0-1.158.815-2.131999997 1.9-2.3829999965z" fill="#000" fill-rule="evenodd"/></svg>