<svg width="24" height="24" viewBox="0 0 24 24" fill="none" xmlns="http://www.w3.org/2000/svg">
<path fill-rule="evenodd" clip-rule="evenodd" d="M19.4845 19C19.7605 19 20 19.224 20 19.5C20 19.776 19.776 20 19.5 20H4.50174C4.22574 20 4.00174 19.776 4.00174 19.5C4.00174 19.224 4.22574 19 4.50174 19H19.4845ZM18 12C18 16.2213 14.76 18 12 18C9.24 18 6 16.22 6 12C6 9.18667 6 6.68667 6 4.5C6 4.224 6.224 4 6.5 4C6.776 4 7 4.224 7 4.5C7 7.66 7 10.16 7 12C7 14.76 9.24 17 12 17C14.76 17 17 14.76 17 12C17 10.16 17 7.66 17 4.5C17 4.224 17.224 4 17.5 4C17.776 4 18 4.224 18 4.5C18 6.68582 18 9.18582 18 12Z" fill="#121212"/>
</svg>
