<svg width="12" height="12" viewBox="0 0 12 12" xmlns="http://www.w3.org/2000/svg"><title>chat/text-heading-3_12</title><path d="M4 4c1.654 0 3 1.346 3 3l0 3.5c0 .276-.224.5-.5.5-.276 0-.5-.224-.5-.5L6 7c0-1.103-.897-2-2-2-1.103 0-2 .897-2 2l0 3 0 .5c0 .275-.225.5-.5.5-.275 0-.5-.225-.5-.5l0-.5 0-3 0-5.5c0-.275.225-.5.5-.5.275 0 .5.225.5.5l0 3.28C2.532 4.301 3.229 4 4 4zm5.6709 7c-.979 0-1.573-.507-1.68-1.253l.68 0c.106.466.42.72.987.72.64 0 1.013-.347 1.013-.847 0-.641-.493-.88-.92-.88l-.387 0 0-.554.374 0c.353 0 .774-.24.774-.78 0-.5-.441-.734-.894-.734-.52 0-.874.267-.94.667l-.674 0c.113-.727.761-1.2 1.647-1.2.781 0 1.514.387 1.514 1.22 0 .507-.353.914-.841 1.067.528.114 1.001.507 1.001 1.207 0 .8-.654 1.367-1.654 1.367z" fill="#000" fill-rule="evenodd"/></svg>