<svg width="16" height="16" viewBox="0 0 16 16" xmlns="http://www.w3.org/2000/svg"><title>chat/text-heading-3_16</title><path d="M1.5 14c-.276 0-.5-.224-.5-.5l0-.5 0-3.503L1 2.5c0-.276.224-.5.5-.5.276 0 .5.224.5.5l0 4.556c.636-.652 1.521-1.059 2.5-1.059 1.93 0 3.5 1.57 3.5 3.5L8 13.5c0 .276-.224.5-.5.5-.276 0-.5-.224-.5-.5l0-4.003c0-1.379-1.122-2.5-2.5-2.5-1.378 0-2.5 1.121-2.5 2.5L2 13l0 .5c0 .276-.224.5-.5.5zm8.6328-1.6592l.789 0c.16.76.75 1.18 1.649 1.18 1.03 0 1.669-.571 1.669-1.44 0-.989-.719-1.439-1.508-1.439l-.651 0 0-.65.62 0c.71 0 1.32-.45 1.32-1.269 0-.819-.67-1.239-1.48-1.239-.859 0-1.449.429-1.579 1.129l-.779 0c.179-1.08 1.109-1.759 2.398-1.759 1.18 0 2.199.62 2.199 1.809 0 .8-.5 1.4-1.29 1.619.821.14 1.51.76 1.51 1.809 0 1.229-.97 2.049-2.419 2.049-1.369 0-2.268-.699-2.448-1.799z" fill="#000" fill-rule="evenodd"/></svg>