<svg width="16" height="16" viewBox="0 0 16 16" xmlns="http://www.w3.org/2000/svg"><title>chat/text-color_16</title><path d="M3.276 11.925c-.247-.124-.346-.424-.223-.671l4.5-9c.17-.339.724-.339.894 0l4.5 9c.123.247.024.547-.223.671-.073.036-.149.053-.224.053-.183 0-.359-.102-.447-.277l-1.362-2.723-5.382 0-1.362 2.723c-.123.248-.423.35-.671.224zM8 3.596L5.809 7.978l4.382 0L8 3.596zm5.5 9.3818c.276 0 .5.224.5.5l0 1c0 .276-.224.5-.5.5l-11 0c-.276 0-.5-.224-.5-.5l0-1c0-.276.224-.5.5-.5l11 0z" fill="#000" fill-rule="evenodd"/></svg>