<?xml version="1.0" encoding="UTF-8"?>
<svg width="16px" height="16px" viewBox="0 0 16 16" version="1.1" xmlns="http://www.w3.org/2000/svg" xmlns:xlink="http://www.w3.org/1999/xlink">
    <!-- Generator: Sketch 58 (84663) - https://sketch.com -->
    <title>text/blockquote_16</title>
    <desc>Created with Sketch.</desc>
    <g id="New-Icon" stroke="none" stroke-width="1" fill="none" fill-rule="evenodd">
        <g id="text/blockquote_16" fill="#171B1F">
            <g transform="translate(0.000000, 2.000000)" id="fill">
                <path d="M6.4565,0.0011 C6.6445,0.0031 6.8145,0.1111 6.8985,0.2781 C6.9815,0.4471 6.9645,0.6481 6.8525,0.7991 C5.4125,2.7591 4.6605,4.5081 4.8405,5.4781 C4.8905,5.7461 4.9495,5.7671 5.0185,5.7931 C6.5275,6.3481 7.0845,7.8351 6.9675,9.0611 C6.8045,10.7591 5.5345,11.9681 3.8775,11.9991 C3.8575,12.0001 3.8365,12.0001 3.8165,12.0001 C2.8635,12.0001 1.8785,11.5761 1.1725,10.8591 C0.5935,10.2701 -0.0545,9.2181 0.0035,7.4861 C0.1415,3.6241 3.2245,0.0001 6.3985,0.0001 L6.3985,0.0001 Z M15.4736,0.0011 C15.6616,0.0031 15.8316,0.1111 15.9156,0.2781 C15.9986,0.4471 15.9816,0.6481 15.8706,0.7991 C14.4296,2.7591 13.6776,4.5081 13.8576,5.4781 C13.9076,5.7461 13.9666,5.7671 14.0356,5.7931 C15.5456,6.3481 16.1026,7.8351 15.9846,9.0611 C15.8226,10.7591 14.5516,11.9681 12.8946,11.9991 C12.8746,12.0001 12.8536,12.0001 12.8336,12.0001 C11.8806,12.0001 10.8956,11.5761 10.1896,10.8591 C9.6106,10.2701 8.9316,9.2041 8.9896,7.4721 C9.1276,3.6101 12.2426,0.0001 15.4156,0.0001 L15.4156,0.0001 Z M5.3885,1.1551 C3.1255,1.8281 1.0765,4.6311 0.9725,7.5071 C0.9365,8.5951 1.2525,9.5111 1.8865,10.1541 C2.4175,10.6941 3.1535,11.0201 3.8585,10.9961 C4.9895,10.9751 5.8585,10.1391 5.9705,8.9651 C6.0305,8.3361 5.8245,7.1591 4.6725,6.7351 C4.3875,6.6301 3.9935,6.4041 3.8555,5.6621 C3.6035,4.3021 4.5215,2.4951 5.3885,1.1551 Z M14.4056,1.1551 C12.1426,1.8281 10.0936,4.6311 9.9906,7.5071 C9.9546,8.5951 10.2696,9.5111 10.9036,10.1541 C11.4356,10.6941 12.1596,11.0201 12.8756,10.9961 C14.0076,10.9751 14.8756,10.1391 14.9876,8.9651 C15.0486,8.3361 14.8416,7.1591 13.6896,6.7351 C13.4046,6.6301 13.0106,6.4041 12.8726,5.6621 C12.6206,4.3021 13.5386,2.4951 14.4056,1.1551 Z"></path>
            </g>
        </g>
    </g>
</svg>