<svg width="24" height="24" viewBox="0 0 24 24" fill="none" xmlns="http://www.w3.org/2000/svg">
<path fill-rule="evenodd" clip-rule="evenodd" d="M6.49949 7H21.5C21.7761 7 22 7.22386 22 7.5C22 7.77614 21.7761 8 21.5 8H6.49949C6.22335 8 5.99949 7.77614 5.99949 7.5C5.99949 7.22386 6.22335 7 6.49949 7ZM6.49949 16H21.5C21.7761 16 22 16.2239 22 16.5C22 16.7761 21.7761 17 21.5 17H6.49949C6.22335 17 5.99949 16.7761 5.99949 16.5C5.99949 16.2239 6.22335 16 6.49949 16ZM2.5 8C2.22386 8 2 7.77614 2 7.5C2 7.22386 2.22386 7 2.5 7C2.77614 7 3 7.22386 3 7.5C3 7.77614 2.77614 8 2.5 8ZM2.5 17C2.22386 17 2 16.7761 2 16.5C2 16.2239 2.22386 16 2.5 16C2.77614 16 3 16.2239 3 16.5C3 16.7761 2.77614 17 2.5 17Z" fill="#121212"/>
</svg>
