<svg width="24" height="24" viewBox="0 0 24 24" fill="none" xmlns="http://www.w3.org/2000/svg">
<path fill-rule="evenodd" clip-rule="evenodd" d="M21.5005 17C21.7766 17 22.0005 17.2239 22.0005 17.5C22.0005 17.7761 21.7766 18 21.5005 18H10.5024C10.2263 18 10.0024 17.7761 10.0024 17.5C10.0024 17.2239 10.2263 17 10.5024 17H21.5005ZM5 3V9.996H4.261V3.779L2.672 4.649V3.88L4.271 3H5ZM21.4981 6C21.7742 6 21.9981 6.22385 21.9981 6.5C21.9981 6.77614 21.7742 7 21.4981 7H10.5C10.2239 7 10 6.77614 10 6.5C10 6.22385 10.2239 6 10.5 6H21.4981ZM2 15.7627C2.16 14.6337 3.08 13.8537 4.379 13.8537C5.618 13.8537 6.578 14.6037 6.578 15.8027C6.578 16.7327 6.158 17.3417 5.009 18.4607L3.119 20.3107H6.558V20.9997H2.12V20.3107L4.568 17.8917C5.438 17.0417 5.818 16.5327 5.818 15.8127C5.818 15.0137 5.269 14.4837 4.359 14.4837C3.499 14.4837 2.89 14.9837 2.79 15.7627H2Z" fill="#121212"/>
</svg>
