<?xml version="1.0" encoding="UTF-8"?>
<svg width="20px" height="20px" viewBox="0 0 20 20" version="1.1" xmlns="http://www.w3.org/2000/svg" xmlns:xlink="http://www.w3.org/1999/xlink">
    <!-- Generator: Sketch 56.3 (81716) - https://sketch.com -->
    <title>chat/text-blockquote_20</title>
    <desc>Created with Sketch.</desc>
    <g id="Icons-Webex" stroke="none" stroke-width="1" fill="none" fill-rule="evenodd">
        <g id="chat/text-blockquote_20" fill="#231F20">
            <g id="text-blockquote_20" transform="translate(-1.000000, 3.000000)">
                <path d="M6.7696,1.2398 C4.1356,2.0618 2.0076,4.8788 2.0076,7.8968 L1.9986,8.0788 C2.0466,11.6838 3.9826,12.9908 5.7786,13.0018 L5.7966,13.0018 C6.6606,13.0018 7.5076,12.6508 8.1236,12.0398 C8.6856,11.4818 8.996605,10.7578 8.996605,10.0008 C8.9996,8.3638 7.6526,7.0188 5.9926,7.0018 C5.6906,6.9978 4.9946,6.8358 5.0066,5.4088 C5.0216,3.7158 5.9396,2.2228 6.7696,1.2398 Z M5.7966,14.0018 L5.7726,14.0018 C3.6056,13.9888 1.0556,12.4248 0.9996,8.0608 L1.0086,7.8718 C1.0076,3.8128 4.4536,0.0488 8.2366,0.000800000005 C8.4446,-0.0132 8.6516,0.1398 8.7186,0.3488 C8.7856,0.5588 8.7066,0.7878 8.5266,0.9128 C7.8866,1.3538 6.0256,3.3188 6.0066,5.4178 C6.0036,5.7668 6.0506,5.9338 6.0796,6.0028 C8.2536,6.0688 10.0006,7.8468 9.99660686,10.0028 C9.9956,11.0268 9.5806,12.0028 8.8296,12.7488 C8.0266,13.5458 6.9226,14.0018 5.7966,14.0018 Z M17.7549,1.2398 C15.1209,2.0618 12.9929,4.8788 12.9929,7.8968 L12.9839,8.0788 C13.0329,11.6838 14.9689,12.9908 16.7649,13.0018 C17.5959,13.0148 18.4889,12.6558 19.1089,12.0398 C19.6719,11.4818 19.9819,10.7578 19.982905,10.0008 C19.9859,8.3648 18.6379,7.0188 16.9789,7.0018 C16.6769,6.9978 15.9799,6.8358 15.9919,5.4088 C16.0069,3.7158 16.9249,2.2228 17.7549,1.2398 Z M16.7829,14.0018 L16.7589,14.0018 C14.5929,13.9888 12.0429,12.4248 11.9849,8.0608 L11.9939,7.8718 C11.9929,3.8128 15.4389,0.0488 19.2219,0.000800000005 C19.4309,-0.0132 19.6369,0.1398 19.7039,0.3488 C19.7709,0.5588 19.6919,0.7878 19.5119,0.9128 C18.8719,1.3538 17.0109,3.3188 16.9919,5.4178 C16.9889,5.7668 17.0359,5.9338 17.0649,6.0028 C19.2379,6.0688 20.9859,7.8468 20.9829039,10.0028 C20.9819,11.0278 20.5659,12.0028 19.8139,12.7498 C19.0119,13.5458 17.9079,14.0018 16.7829,14.0018 Z" id="fill"></path>
            </g>
        </g>
    </g>
</svg>