<svg width="16" height="16" viewBox="0 0 16 16" xmlns="http://www.w3.org/2000/svg"><title>chat/text-table_16</title><path d="M11 5.6665l0-2.667 3 0c.552 0 1 .449 1 1l0 1.667-4 0zm0 3.667l4 0 0-2.667-4 0 0 2.667zm4 2.666c0 .552-.448 1-1 1l-3 0 0-2.666 4 0 0 1.666zm-14 0l0-1.666 4 0 0 2.666-3 0c-.552 0-1-.448-1-1zm0-2.666l4 0 0-2.667-4 0 0 2.667zm0-5.334c0-.551.448-1 1-1l3 0 0 2.667-4 0 0-1.667zm5 9l4 0 0-2.667-4 0 0 2.667zm0-3.666l4 0 0-2.667-4 0 0 2.667zm0-3.667l4 0 0-2.667-4 0 0 2.667zm8-3.667l-3 0-1 0-4 0-1 0-3 0c-1.104 0-2 .896-2 2l0 1.667 0 1 0 2.667 0 1 0 1.666c0 1.106.896 2 2 2l12 0c1.104 0 2-.894 2-2l0-1.666 0-1 0-2.667 0-1 0-1.667c0-1.104-.896-2-2-2z" fill="#000" fill-rule="evenodd"/></svg>