<svg width="12" height="12" viewBox="0 0 12 12" xmlns="http://www.w3.org/2000/svg"><title>chat/text-list-bulleted_12</title><path d="M5.5 4c-.275 0-.5-.225-.5-.5 0-.275.225-.5.5-.5l5 0c.275 0 .5.225.5.5 0 .275-.225.5-.5.5l-5 0zm5 4c.275 0 .5.225.5.5 0 .275-.225.5-.5.5l-5 0c-.275 0-.5-.225-.5-.5 0-.275.225-.5.5-.5l5 0zm-8-5c.275 0 .5.225.5.5 0 .275-.225.5-.5.5-.275 0-.5-.225-.5-.5 0-.275.225-.5.5-.5zm0 5c.275 0 .5.225.5.5 0 .275-.225.5-.5.5-.275 0-.5-.225-.5-.5 0-.275.225-.5.5-.5z" fill="#000" fill-rule="evenodd"/></svg>