<svg width="18" height="18" xmlns="http://www.w3.org/2000/svg"><path d="M17.435 2l.033.001a.5.5 0 01.398.795c-1.693 2.34-2.576 4.434-2.362 5.606.067.368.167.404.263.441 1.715.641 2.348 2.353 2.216 3.765-.185 1.96-1.633 3.354-3.52 3.391l-.07.001c-1.079 0-2.196-.483-3-1.299-.676-.685-1.465-1.926-1.398-3.958C10.155 6.225 13.745 2 17.402 2l.066.001zM7.254 2l.205.001a.499.499 0 01.398.795C6.164 5.136 5.281 7.23 5.495 8.402c.067.368.167.404.263.441 1.715.641 2.348 2.353 2.216 3.765-.185 1.96-1.633 3.354-3.521 3.391l-.07.001c-1.078 0-2.195-.483-3-1.299-.675-.685-1.446-1.925-1.379-3.957C.165 6.2 3.76 1.91 7.459 2.001zm9.174 1.118c-2.795.66-5.305 4.055-5.433 7.66-.054 1.674.573 2.675 1.11 3.22.632.641 1.497 1.023 2.338 1 1.361-.027 2.407-1.048 2.543-2.484.073-.77-.177-2.213-1.569-2.733-.503-.187-.78-.558-.897-1.199-.3-1.646.87-3.878 1.908-5.464zm-10.009 0c-2.795.66-5.305 4.055-5.433 7.66-.055 1.674.573 2.675 1.11 3.22.632.641 1.501 1.023 2.337 1 1.362-.027 2.408-1.048 2.544-2.484.072-.77-.177-2.213-1.569-2.733-.503-.187-.78-.558-.898-1.199-.3-1.646.871-3.878 1.909-5.464z" fill="#171B1F" fill-rule="evenodd"/></svg>