<?xml version="1.0" encoding="UTF-8"?>
<svg width="20px" height="20px" viewBox="0 0 20 20" version="1.1" xmlns="http://www.w3.org/2000/svg" xmlns:xlink="http://www.w3.org/1999/xlink">
    <!-- Generator: Sketch 58 (84663) - https://sketch.com -->
    <title>text/blockquote_20</title>
    <desc>Created with Sketch.</desc>
    <g id="New-Icon" stroke="none" stroke-width="1" fill="none" fill-rule="evenodd">
        <g id="text/blockquote_20" fill="#171B1F">
            <g transform="translate(0.000000, 2.000000)" id="fill">
                <path d="M19.428475,0.000325 L19.4661,0.0012 C19.6501,0.0032 19.8171,0.1072 19.9021,0.2692 C19.9881,0.4322 19.9771,0.6282 19.8741,0.7812 C18.0131,3.5422 17.0831,5.9282 17.3211,7.3282 C17.4011,7.8002 17.5321,7.8532 17.6361,7.8952 C19.4521,8.6232 20.1221,10.5582 19.9821,12.1532 C19.7901,14.3492 18.0581,15.9302 15.7711,15.9982 C15.7341,15.9992 15.6981,16.0002 15.6621,16.0002 C14.5781,16.0002 13.4801,15.5202 12.6321,14.6732 C11.8491,13.8892 10.9301,12.4452 11.0051,10.0142 C11.1721,4.9302 15.3131,0.0002 19.3901,0.0002 C19.4161,0.0002 19.4411,0.0002 19.4661,0.0012 Z M8.40885,0.000325 L8.4456,0.0012 C8.6306,0.0032 8.7976,0.1072 8.8826,0.2692 C8.9676,0.4322 8.9566,0.6282 8.8546,0.7812 C6.9936,3.5422 6.0636,5.9282 6.3006,7.3282 C6.3816,7.8002 6.5116,7.8532 6.6166,7.8952 C8.4316,8.6232 9.1026,10.5582 8.9626,12.1532 C8.7696,14.3492 7.0386,15.9302 4.7516,15.9982 L4.7516,15.9982 L4.6416,16.0002 C3.5576,16.0002 2.4596,15.5202 1.6126,14.6732 C0.8286,13.8892 -0.0704,12.4522 0.0046,10.0222 C0.1716,4.9382 4.2936,0.0002 8.3706,0.0002 C8.3966,0.0002 8.4216,0.0002 8.4456,0.0012 Z M18.4691,1.1092 C15.4631,1.7912 12.1521,5.6082 12.0061,10.0462 C11.9431,12.1182 12.6971,13.3212 13.3401,13.9652 C14.0121,14.6372 14.9151,15.0312 15.7411,14.9972 C17.5321,14.9442 18.8351,13.7662 18.9841,12.0652 C19.0651,11.1502 18.7931,9.4372 17.2641,8.8232 C16.7411,8.6142 16.4541,8.2052 16.3341,7.4972 C16.0061,5.5782 17.3381,2.9342 18.4691,1.1092 Z M7.4496,1.1092 C4.4436,1.7912 1.1326,5.6082 0.9866,10.0462 C0.9236,12.1182 1.6766,13.3212 2.3206,13.9652 C2.9926,14.6372 3.8966,15.0312 4.7216,14.9972 C6.5116,14.9442 7.8156,13.7662 7.9646,12.0652 C8.0456,11.1502 7.7736,9.4372 6.2436,8.8232 C5.7216,8.6142 5.4346,8.2052 5.3146,7.4972 C4.9866,5.5782 6.3186,2.9342 7.4496,1.1092 Z"></path>
            </g>
        </g>
    </g>
</svg>