<svg width="16" height="16" viewBox="0 0 16 16" xmlns="http://www.w3.org/2000/svg"><title>chat/text-blockquote_16</title><path d="M14 8l-4 0 0 5 4 0 0-5zm-4 6c-.552 0-1-.449-1-1l0-5.059L9 7.5l0-1C9 4.019 11.019 2 13.5 2c.276 0 .5.224.5.5 0 .276-.224.5-.5.5C11.57 3 10 4.57 10 6.5l0 .5 4 0c.552 0 1 .449 1 1l0 5c0 .551-.448 1-1 1l-4 0zm-8 0c-.552 0-1-.449-1-1l0-5.059L1 7.5l0-1C1 4.019 3.019 2 5.5 2c.276 0 .5.224.5.5 0 .276-.224.5-.5.5C3.57 3 2 4.57 2 6.5L2 7l4 0c.552 0 1 .449 1 1l0 5c0 .551-.448 1-1 1l-4 0zm4-6L2 8l0 5 4 0 0-5z" fill="#000" fill-rule="evenodd"/></svg>