<svg width="16" height="16" viewBox="0 0 16 16" xmlns="http://www.w3.org/2000/svg"><title>meetings/too-fast_16</title><path d="M7.9998 0c4.411 0 8 3.589 8 8 0 2.332-.992 4.481-2.727 6l2.227 0c.275 0 .5.225.5.5 0 .275-.225.5-.5.5l-3 0c-.274 0-.5-.225-.5-.5l0-3c0-.275.226-.5.5-.5.275 0 .5.225.5.5l0 1.388c1.277-1.3 2-3.028 2-4.888 0-3.859-3.141-7-7-7-3.859 0-7 3.141-7 7 0 3.859 3.141 7 7 7 .276 0 .5.224.5.5 0 .276-.224.5-.5.5-4.411 0-8-3.589-8-8 0-4.411 3.589-8 8-8zm-.5 3.5c0-.276.225-.5.5-.5.276 0 .5.224.5.5 0 .276-.224.5-.5.5-.275 0-.5-.224-.5-.5zm2.7314 1.1807c-.229-.154-.29-.465-.136-.694.155-.23.465-.29.694-.136.229.153.291.465.136.693-.154.23-.465.29-.694.137zM5.072 4.5469c-.154-.229-.094-.54.136-.694.228-.155.54-.094.693.135.154.229.094.539-.135.694-.229.154-.54.094-.694-.135zM7.9998 10c-1.104 0-2-.896-2-2 0-1.104.896-2 2-2 .37 0 .713.107 1.011.283l.635-.637c.196-.195.512-.195.708 0 .195.196.195.512 0 .708l-.636.636c.175.297.282.64.282 1.01 0 1.104-.896 2-2 2zm0-1c.552 0 1-.448 1-1 0-.552-.448-1-1-1-.551 0-1 .448-1 1 0 .552.449 1 1 1z" fill="#000" fill-rule="evenodd"/></svg>