<svg width="16" height="16" viewBox="0 0 16 16" xmlns="http://www.w3.org/2000/svg"><title>settings/tools_16</title><path d="M14.7620217 14.7589c-.3205466.321-.8438066.322-1.1653518 0l-7.83791442-7.838c-.09586441-.096-.22368363-.146-.35350003-.146-.06490819 0-.13081498.012-.193726.039-1.14637862.483-2.4495355.231-3.32429828-.644-.68602971-.686-.990598941-1.636-.8567882-2.564l1.52883769 1.529c.36748025.367.96363708.366 1.32912016 0l1.24723597-1.248c.17874719-.177.27660878-.414.27660878-.666 0-.251-.09786159-.488-.27561019-.666l-1.52584193-1.525c1.05950149-.149 2.14696344.278 2.82800022 1.157.6540749.846.79687294 2.002.37247319 3.017-.07888843.187-.03594916.404.10784746.547l7.84290738 7.844c.1547811.154.239661.361.239661.582 0 .221-.0848799.427-.239661.582zm-2.2967516-13.325c.5791808-.58 1.5218476-.58 2.1010284 0 .2806031.281.4353842.654.4353842 1.05 0 .397-.1547811.77-.4353842 1.05l-4.2260229 4.225-.69601559-.696 4.21204269-4.21c.1957232-.196.1957232-.512.0009986-.707-.1947246-.197-.5102783-.196-.7060015-.001l-4.21403984 4.211-.69701418-.697 4.22502432-4.225zM2.03202638 14.5019l-.77690119.389-.11483757-.115.38845059-.776.77690119-.388.11483758.114-.3884506.776zm13.43599682-1.615l-4.419749-4.42L15.2723 4.2419c.4693362-.47.7279704-1.094.7279704-1.758 0-.664-.2586342-1.288-.7279704-1.758-.96863-.968-2.5444013-.967-3.5130314 0l-3.74070928 3.741c.11583617-1.026-.15278391-2.068-.79088141-2.892C6.1042668.1229 4.14503784-.3951 2.4594219.3189c-.1537825.065-.26362714.202-.29558195.365-.0319548.163.01897317.332.13680651.45l2.12998745 2.045-1.16635037 1.248-2.12998745-2.129c-.11683476-.118-.28459748-.17-.448365854-.137-.162769786.032-.299576294.142-.363485903.295-.643090444 1.521-.3065664076 3.256.858785377 4.422 1.08346759 1.082 2.66023749 1.449 4.0982037.977l1.07947324 1.079-3.6777983 3.677c-.14779097-.103-.33452686-.137-.50029241-.055l-1.247235968.624c-.096863001.048-.174752838.126-.223683632.223l-.6241172793 1.248c-.0958644141.192-.0579180835.425.0938672383.578l.624117279.624c.095864414.095.223683632.146.352501442.146.07689125 0 .15278391-.017.22368363-.053l1.24823456-.624c.09586441-.048.17375425-.127.22268504-.224l.62411728-1.247c.08987289-.18.05292515-.392-.07589266-.543l3.66681384-3.667 5.82376319 5.825c.3554972.356.8228362.534 1.2901752.534.4663404 0 .9326809-.178 1.2881781-.533.3435141-.344.5322472-.802.5322472-1.29 0-.488-.1887331-.946-.5322472-1.29z" fill="#000" fill-rule="evenodd"/></svg>