<svg width="24" height="24" viewBox="0 0 24 24" xmlns="http://www.w3.org/2000/svg"><title>hardware/touch10_24</title><path d="M21.5000521 3C22.8780234 3 24 4.121 24 5.5l0 13c0 1.379-1.1219766 2.5-2.4999479 2.5L2.50044792 21C1.12247663 21 .0005 19.879.0005 18.5l0-13c0-1.379 1.12197663-2.5 2.49994792-2.5L21.5000521 3zm1.4999687 13l0-10.5c0-.827-.6729859-1.5-1.4999687-1.5L2.50044792 4c-.82698277 0-1.49996875.673-1.49996875 1.5l0 10.5 21.99954163 0zm0 2.5l0-1.5-21.99954163 0 0 1.5c0 .827.67298598 1.5 1.49996875 1.5l18.99960418 0c.8269828 0 1.4999687-.673 1.4999687-1.5zm-5.4998854.5c-.2749943 0-.4999896-.225-.4999896-.5 0-.275.2249953-.5.4999896-.5l3.9999167 0c.2749943 0 .4999896.225.4999896.5 0 .275-.2249953.5-.4999896.5l-3.9999167 0z" fill="#000" fill-rule="evenodd"/></svg>