<svg width="16" height="16" viewBox="0 0 16 16" xmlns="http://www.w3.org/2000/svg"><title>content/touch_16</title><path d="M3.1775 9.8083c-.081.259-.134.526-.161.797-.105 1.082.28 2.193 1.056 3.049.775.854 1.84 1.343 2.924 1.344.878-.01 1.71-.421 2.328-1.13l2.447-2.806c.368-.487.319-1.22-.137-1.677-1.243-1.248-2.402-2.417-2.592-2.614-.185-.192-.188-.494-.007-.689l3.775-4.045c.126-.125.188-.277.188-.438-.001-.161-.064-.312-.178-.424-.24-.237-.629-.236-.867.002l-5.302 5.57c-.154.162-.396.201-.593.099-.197-.103-.303-.324-.259-.542l.401-2.002c.098-.488-.199-1.11-.599-1.256l-2.404 6.716c-.006.016-.013.031-.02.046m3.876 6.189c-1.422 0-2.758-.609-3.722-1.671-.965-1.065-1.442-2.456-1.31-3.817.035-.366.112-.728.227-1.077.009-.027.02-.053.033-.078l2.452-6.709c.206-.487.734-.713 1.212-.539.955.35 1.41 1.519 1.235 2.392l-.061.307 4.119-4.327c.633-.634 1.654-.636 2.284-.015.305.301.474.703.476 1.133.001.43-.165.833-.468 1.136l-3.436 3.682c.468.475 1.336 1.349 2.249 2.265.805.809.893 2.105.203 3.014l-2.468 2.832c-.806.924-1.908 1.46-3.025 1.472" fill="#000" fill-rule="evenodd"/></svg>