<svg width="16" height="16" viewBox="0 0 16 16" fill="none" xmlns="http://www.w3.org/2000/svg">
<path d="M5.03168 14.5005C11.0694 14.5005 14.3718 9.49821 14.3718 5.16029C14.3718 5.01821 14.3718 4.87677 14.3622 4.73597C15.0047 4.27127 15.5593 3.69589 16 3.03677C15.4009 3.30225 14.7653 3.47634 14.1146 3.55325C14.7998 3.143 15.3127 2.49775 15.5578 1.73757C14.9134 2.11994 14.2084 2.38942 13.4733 2.53437C12.4557 1.45238 10.8389 1.18756 9.52931 1.88841C8.21976 2.58925 7.54322 4.08146 7.87904 5.52829C5.23961 5.39597 2.78046 4.1493 1.1136 2.09853C0.242319 3.59846 0.687352 5.51732 2.12992 6.48061C1.60751 6.46513 1.0965 6.3242 0.64 6.06973C0.64 6.08317 0.64 6.09725 0.64 6.11133C0.640428 7.67395 1.74192 9.01983 3.2736 9.32925C2.79032 9.46105 2.28325 9.48032 1.79136 9.38557C2.22141 10.7228 3.45381 11.6389 4.85824 11.6653C3.69583 12.5788 2.25988 13.0747 0.78144 13.0733C0.520258 13.0728 0.259331 13.0569 0 13.0259C1.50121 13.9893 3.24794 14.5003 5.03168 14.4979" fill="#121212"/>
</svg>
