<svg width="40" height="40" viewBox="0 0 40 40" xmlns="http://www.w3.org/2000/svg" xmlns:xlink="http://www.w3.org/1999/xlink"><title>social/twitter-circle_40</title><path d="M28.753 16.995c.789-.569 1.474-1.28 2.016-2.091-.725.321-1.504.538-2.321.636.834-.499 1.475-1.291 1.776-2.235-.781.463-1.645.799-2.565.981-.737-.786-1.787-1.276-2.949-1.276-2.607 0-4.524 2.433-3.935 4.961-3.358-.169-6.335-1.777-8.327-4.222-1.058 1.816-.549 4.192 1.25 5.394-.662-.021-1.286-.203-1.83-.505-.044 1.872 1.297 3.622 3.24 4.012-.569.155-1.191.19-1.824.069.513 1.606 2.006 2.773 3.774 2.806-1.699 1.332-3.838 1.926-5.981 1.673 1.788 1.146 3.911 1.815 6.193 1.815 7.501 0 11.738-6.335 11.483-12.018zM20 0c11.045 0 20 8.954 20 20 0 11.047-8.955 20-20 20C8.954 40 0 31.047 0 20 0 8.954 8.954 0 20 0z" fill="#000" fill-rule="evenodd"/></svg>
