<svg width="12" height="12" viewBox="0 0 12 12" fill="none" xmlns="http://www.w3.org/2000/svg">
<path d="M3.77376 10.8755C8.30208 10.8755 10.7789 7.12378 10.7789 3.87034C10.7789 3.76378 10.7789 3.6577 10.7717 3.5521C11.2535 3.20358 11.6695 2.77204 12 2.2777C11.5507 2.47681 11.074 2.60738 10.5859 2.66506C11.0999 2.35737 11.4845 1.87343 11.6683 1.3033C11.185 1.59008 10.6563 1.79219 10.105 1.9009C9.3418 1.08941 8.12915 0.890795 7.14698 1.41643C6.16482 1.94206 5.65741 3.06122 5.90928 4.14634C3.92971 4.0471 2.08535 3.1121 0.8352 1.57402C0.181739 2.69897 0.515514 4.13811 1.59744 4.86058C1.20564 4.84897 0.822374 4.74328 0.48 4.55242C0.48 4.5625 0.48 4.57306 0.48 4.58362C0.480321 5.75559 1.30644 6.765 2.4552 6.99706C2.09274 7.09591 1.71244 7.11036 1.34352 7.0393C1.66606 8.04222 2.59036 8.72928 3.64368 8.74906C2.77187 9.43423 1.69491 9.80618 0.58608 9.80506C0.390194 9.80469 0.194498 9.79283 0 9.76954C1.12591 10.4921 2.43596 10.8753 3.77376 10.8735" fill="#121212"/>
</svg>
