<svg width="16" height="16" viewBox="0 0 16 16" xmlns="http://www.w3.org/2000/svg"><title>social/twitter_16</title><path d="M13.8711 4.9883c.192 4.261-2.986 9.012-8.61 9.012-1.71 0-3.303-.503-4.644-1.362 1.608.19 3.212-.256 4.485-1.254-1.326-.024-2.445-.9-2.83-2.104.474.09.941.064 1.368-.052-1.457-.292-2.461-1.605-2.43-3.009.409.227.877.364 1.373.38-1.35-.902-1.732-2.683-.937-4.046 1.494 1.834 3.726 3.04 6.244 3.166-.442-1.895.995-3.719 2.95-3.719.872 0 1.659.367 2.211.957.69-.137 1.339-.389 1.924-.736-.227.707-.707 1.302-1.332 1.676.613-.073 1.196-.237 1.74-.477-.406.608-.92 1.141-1.512 1.568" fill-rule="evenodd"/></svg>