<?xml version="1.0" encoding="UTF-8"?>
<svg width="32px" height="32px" viewBox="0 0 32 32" version="1.1" xmlns="http://www.w3.org/2000/svg" xmlns:xlink="http://www.w3.org/1999/xlink">
    <!-- Generator: Sketch 56.3 (81716) - https://sketch.com -->
    <title>ucm-cloud_32</title>
    <desc>Created with Sketch.</desc>
    <g id="Icons-Webex" stroke="none" stroke-width="1" fill="none" fill-rule="evenodd">
        <g id="network/ucm-cloud_32" fill="#000000">
            <g id="ucm-cloud_32" transform="translate(0.000000, 2.000000)">
                <path d="M18.0662,19.6153 C17.4022,19.8713 16.7072,20.0003 16.0002,20.0003 C15.2932,20.0003 14.5972,19.8713 13.9332,19.6153 L1.6622,14.8993 C1.0412,14.6603 0.9972,14.0563 0.999139412,13.8773 C1.0002,13.6983 1.0522,13.0973 1.6762,12.8693 L6.8652,10.9703 L13.5762,13.5493 C14.3582,13.8493 15.1792,14.0003 16.0002,14.0003 C16.8212,14.0003 17.6422,13.8493 18.4232,13.5493 L25.1342,10.9703 L30.3242,12.8693 C30.9472,13.0973 31.0002,13.6983 31.0022163,13.8773 C31.0032,14.0563 30.9602,14.6603 30.3382,14.8993 L18.0662,19.6153 Z M30.3242,19.8693 C30.9472,20.0963 31.0002,20.6983 31.0022163,20.8783 C31.0032,21.0563 30.9602,21.6603 30.3382,21.8993 L18.0662,26.6153 C17.4022,26.8713 16.7072,27.0003 16.0002,27.0003 C15.2932,27.0003 14.5972,26.8713 13.9332,26.6153 L1.6622,21.8993 C1.0412,21.6603 0.9972,21.0563 0.999139412,20.8783 C1.0002,20.6983 1.0522,20.0963 1.6762,19.8693 L6.8662,17.9693 L13.5762,20.5493 C14.3582,20.8493 15.1792,21.0003 16.0002,21.0003 C16.8212,21.0003 17.6422,20.8493 18.4232,20.5493 L25.1342,17.9693 L30.3242,19.8693 Z M0.999139412,6.8773 C1.0002,6.6983 1.0522,6.0973 1.6762,5.8693 L14.0212,1.3513 C14.6592,1.1183 15.3252,1.0003 16.0002,1.0003 C16.6752,1.0003 17.3412,1.1183 17.9782,1.3513 L30.3242,5.8693 C30.9472,6.0973 31.0002,6.6983 31.0022163,6.8773 C31.0032,7.0563 30.9602,7.6603 30.3382,7.8993 L18.0662,12.6153 C17.4022,12.8703 16.7072,13.0003 16.0002,13.0003 C15.2932,13.0003 14.5972,12.8703 13.9332,12.6153 L1.6622,7.8993 C1.0412,7.6603 0.9972,7.0563 0.999139412,6.8773 L0.999139412,6.8773 Z M30.6672,11.9293 L26.5532,10.4253 L30.6962,8.8333 C32.4492,8.1593 32.4292,5.5753 30.6672,4.9293 L18.3212,0.4123 C17.5702,0.1373 16.7852,0.0003 16.0002,0.0003 C15.2142,0.0003 14.4302,0.1373 13.6782,0.4123 L1.3342,4.9293 C-0.4298,5.5753 -0.4498,8.1593 1.3042,8.8333 L5.4462,10.4253 L1.3342,11.9293 C-0.4298,12.5753 -0.4498,15.1593 1.3042,15.8333 L5.4462,17.4253 L1.3342,18.9293 C-0.4298,19.5753 -0.4498,22.1593 1.3042,22.8333 L13.5762,27.5493 C14.3582,27.8493 15.1792,28.0003 16.0002,28.0003 C16.8212,28.0003 17.6422,27.8493 18.4232,27.5493 L30.6962,22.8333 C32.4492,22.1593 32.4292,19.5753 30.6672,18.9293 L26.5532,17.4253 L30.6962,15.8333 C32.4492,15.1593 32.4292,12.5753 30.6672,11.9293 L30.6672,11.9293 Z" id="fill"></path>
            </g>
        </g>
    </g>
</svg>