<svg width="24" height="24" xmlns="http://www.w3.org/2000/svg"><path d="M21.672 12.435l-8.627 3.372a2.855 2.855 0 01-2.09 0l-8.627-3.372c-.3-.117-.33-.398-.328-.514 0-.116.035-.395.335-.507l3.815-1.42 4.44 1.737a3.858 3.858 0 002.819 0l4.442-1.736 3.814 1.419c.3.112.334.39.335.507 0 .116-.03.397-.328.514zm-.007 3.975c.3.11.334.39.335.506 0 .116-.03.397-.328.514l-8.627 3.372a2.855 2.855 0 01-2.09 0L2.328 17.43c-.3-.117-.33-.398-.328-.514 0-.115.035-.395.335-.506l3.798-1.414 4.458 1.743a3.88 3.88 0 002.818 0l4.458-1.743 3.798 1.414zM2 6.913c0-.116.035-.396.335-.507l8.664-3.225a2.858 2.858 0 012.002 0l8.664 3.225c.3.11.334.39.335.507 0 .116-.03.397-.328.513l-8.627 3.373a2.856 2.856 0 01-2.09 0L2.328 7.426c-.3-.116-.33-.397-.328-.513zm20.014 3.564l-2.765-1.03 2.787-1.09c1.296-.505 1.282-2.403-.022-2.89L13.35 2.245a3.857 3.857 0 00-2.7 0L1.987 5.468c-1.303.486-1.318 2.384-.022 2.89l2.787 1.09-2.765 1.029c-1.303.484-1.318 2.383-.022 2.89l2.77 1.082-2.748 1.023c-1.303.485-1.318 2.383-.022 2.89l8.627 3.372a3.858 3.858 0 002.818 0l8.627-3.372c1.296-.507 1.282-2.405-.022-2.89l-2.747-1.023 2.769-1.082c1.296-.507 1.282-2.406-.022-2.89z" fill="#000" fill-rule="evenodd"/></svg>