<?xml version="1.0" encoding="UTF-8"?>
<svg width="24px" height="24px" viewBox="0 0 24 24" version="1.1" xmlns="http://www.w3.org/2000/svg" xmlns:xlink="http://www.w3.org/1999/xlink">
    <!-- Generator: Sketch 55.2 (78181) - https://sketchapp.com -->
    <title>network/UCM-cloud_24</title>
    <desc>Created with Sketch.</desc>
    <g id="Icons-Webex" stroke="none" stroke-width="1" fill="none" fill-rule="evenodd">
        <g id="network/UCM-cloud_24" fill="#000000">
            <g id="UCM-cloud_24" transform="translate(1.000000, 2.000000)">
                <path d="M20.6719,10.4349 L12.0449,13.8069 C11.7099,13.9379 11.3589,14.0039 10.9999,14.0039 C10.6419,14.0039 10.2909,13.9379 9.9549,13.8069 L1.3279,10.4349 C1.0289,10.3179 0.9989,10.0369 0.999876722,9.9209 C1.0009,9.8049 1.0349,9.5259 1.3349,9.4139 L5.1499,7.9949 L9.5909,9.7309 C10.0449,9.9089 10.5229,9.9969 10.9999,9.9969 C11.4779,9.9969 11.9549,9.9089 12.4089,9.7309 L16.8509,7.9949 L20.6649,9.4139 C20.9649,9.5259 20.9989,9.8049 20.9999233,9.9209 C21.0009,10.0369 20.9709,10.3179 20.6719,10.4349 L20.6719,10.4349 Z M20.6649,14.4099 C20.9649,14.5209 20.9989,14.8009 20.9999233,14.9159 C21.0009,15.0319 20.9709,15.3129 20.6719,15.4299 L12.0449,18.8019 C11.7099,18.9329 11.3589,18.9989 10.9999,18.9989 C10.6419,18.9989 10.2909,18.9329 9.9549,18.8019 L1.3279,15.4299 C1.0289,15.3129 0.9989,15.0319 0.999876722,14.9159 C1.0009,14.8009 1.0349,14.5209 1.3349,14.4099 L5.1329,12.9959 L9.5909,14.7389 C10.0449,14.9159 10.5229,15.0049 10.9999,15.0049 C11.4779,15.0049 11.9549,14.9159 12.4089,14.7389 L16.8669,12.9959 L20.6649,14.4099 Z M0.999876722,4.9129 C1.0009,4.7969 1.0349,4.5169 1.3349,4.4059 L9.9989,1.1809 C10.3209,1.0609 10.6579,0.9999 10.9999,0.9999 C11.3419,0.9999 11.6789,1.0609 12.0009,1.1809 L20.6649,4.4059 C20.9649,4.5169 20.9989,4.7969 20.9999233,4.9129 C21.0009,5.0289 20.9709,5.3099 20.6719,5.4259 L12.0449,8.7989 C11.7099,8.9299 11.3589,8.9969 10.9999,8.9969 C10.6419,8.9969 10.2909,8.9299 9.9549,8.7989 L1.3279,5.4259 C1.0289,5.3099 0.9989,5.0289 0.999876722,4.9129 L0.999876722,4.9129 Z M21.0139,8.4769 L18.2489,7.4479 L21.0359,6.3579 C22.3319,5.8519 22.3179,3.9539 21.0139,3.4679 L12.3499,0.2439 C11.9129,0.0809 11.4569,-0.000100000001 10.9999,-0.000100000001 C10.5429,-0.000100000001 10.0869,0.0809 9.6509,0.2439 L0.9859,3.4679 C-0.3171,3.9539 -0.3321,5.8519 0.9639,6.3579 L3.7509,7.4479 L0.9859,8.4769 C-0.3171,8.9609 -0.3321,10.8599 0.9639,11.3669 L3.7339,12.4489 L0.9859,13.4719 C-0.3171,13.9569 -0.3321,15.8549 0.9639,16.3619 L9.5909,19.7339 C10.0449,19.9119 10.5229,19.9999 10.9999,19.9999 C11.4779,19.9999 11.9549,19.9119 12.4089,19.7339 L21.0359,16.3619 C22.3319,15.8549 22.3179,13.9569 21.0139,13.4719 L18.2669,12.4489 L21.0359,11.3669 C22.3319,10.8599 22.3179,8.9609 21.0139,8.4769 L21.0139,8.4769 Z" id="fill"></path>
            </g>
        </g>
    </g>
</svg>