<svg width="16" height="16" viewBox="0 0 16 16" fill="none" xmlns="http://www.w3.org/2000/svg">
<path d="M6.9996 9C6.72362 9 6.49963 9.224 6.49963 9.5C6.49963 9.776 6.72362 10 6.9996 10C7.27558 10 7.49957 9.776 7.49957 9.5C7.49957 9.224 7.27558 9 6.9996 9Z" fill="#121212"/>
<path d="M6.9996 7C6.72362 7 6.49963 7.224 6.49963 7.5C6.49963 7.776 6.72362 8 6.9996 8C7.27558 8 7.49957 7.776 7.49957 7.5C7.49957 7.224 7.27558 7 6.9996 7Z" fill="#121212"/>
<path fill-rule="evenodd" clip-rule="evenodd" d="M1.49991 2C0.674962 2 0 2.675 0 3.5V10.5C0 11.325 0.674962 12 1.49991 12C2.32487 12 2.99983 11.325 2.99983 10.5V3.5C2.99983 2.675 2.32487 2 1.49991 2ZM1.99989 10.5C1.99989 10.771 1.7709 11 1.49991 11C1.22893 11 0.999943 10.771 0.999943 10.5V3.5C0.999943 3.229 1.22893 3 1.49991 3C1.7709 3 1.99989 3.229 1.99989 3.5V10.5Z" fill="#121212"/>
<path d="M8.99949 9C8.7235 9 8.49951 9.224 8.49951 9.5C8.49951 9.776 8.7235 10 8.99949 10C9.27547 10 9.49946 9.776 9.49946 9.5C9.49946 9.224 9.27547 9 8.99949 9Z" fill="#121212"/>
<path d="M8.99949 7C8.7235 7 8.49951 7.224 8.49951 7.5C8.49951 7.776 8.7235 8 8.99949 8C9.27547 8 9.49946 7.776 9.49946 7.5C9.49946 7.224 9.27547 7 8.99949 7Z" fill="#121212"/>
<path fill-rule="evenodd" clip-rule="evenodd" d="M5.69947 11.0001C5.3135 11.0001 4.99951 10.6851 4.99951 10.3001V6.0001L13 6V6.5C13 6.77614 13.2239 7 13.5 7C13.7761 7 14 6.77614 14 6.5V4.5C14 4.48929 13.9997 4.47867 13.999 4.46813V3.6971C13.999 3.6051 13.986 3.5171 13.972 3.4311C13.9702 3.41981 13.9694 3.40851 13.9686 3.39731C13.9677 3.38373 13.9667 3.37025 13.964 3.3571C13.944 3.2561 13.912 3.1591 13.874 3.0651C13.8728 3.06183 13.8717 3.05822 13.8706 3.05448C13.869 3.04909 13.8674 3.04342 13.865 3.0381C13.832 2.9591 13.789 2.8871 13.744 2.8141C13.7393 2.8059 13.7351 2.79724 13.7309 2.78854C13.7242 2.77497 13.7175 2.76128 13.709 2.7491C13.6788 2.70413 13.6431 2.66397 13.6072 2.6235C13.5968 2.6118 13.5863 2.59998 13.576 2.5881C13.566 2.57652 13.5567 2.56449 13.5475 2.55253C13.5328 2.53351 13.5182 2.51467 13.501 2.4981C13.4753 2.47239 13.447 2.45016 13.4184 2.42768C13.4036 2.41605 13.3887 2.40437 13.374 2.3921C13.3616 2.38182 13.3494 2.37118 13.3372 2.36051C13.3089 2.33588 13.2804 2.31102 13.249 2.2901C13.2302 2.27716 13.21 2.26698 13.1896 2.25673C13.1754 2.24955 13.161 2.24233 13.147 2.2341L13.1074 2.21101C13.0598 2.18307 13.0119 2.15502 12.9611 2.1331C12.9447 2.12608 12.9273 2.12146 12.9098 2.11682C12.8975 2.11354 12.8851 2.11025 12.8731 2.1061L12.8512 2.09831C12.7826 2.07383 12.7144 2.04947 12.6421 2.0341C12.5311 2.0121 12.4161 2.0001 12.2991 2.0001H5.69947C5.58248 2.0001 5.46749 2.0121 5.35749 2.0341C5.28141 2.05027 5.20894 2.07639 5.13751 2.10213L5.12651 2.1061C5.11447 2.11025 5.1021 2.11354 5.08973 2.11682C5.0723 2.12145 5.05489 2.12608 5.03851 2.1331C4.98635 2.15523 4.93794 2.1836 4.88982 2.21181L4.85152 2.2341C4.83725 2.24275 4.82224 2.25028 4.8072 2.25781C4.78746 2.2677 4.76769 2.27761 4.74953 2.2901C4.72014 2.3097 4.69373 2.33271 4.66724 2.35579C4.65319 2.36803 4.6391 2.38031 4.62454 2.3921C4.60874 2.40564 4.59238 2.41847 4.57604 2.43129C4.54894 2.45255 4.52187 2.47377 4.49754 2.4981C4.48035 2.51468 4.4658 2.53351 4.45112 2.55253C4.44188 2.56448 4.43258 2.57652 4.42255 2.5881C4.41086 2.60186 4.39897 2.61543 4.38709 2.62898C4.35324 2.66759 4.31941 2.70619 4.29056 2.7491C4.28271 2.7603 4.27644 2.77276 4.27016 2.78524C4.26522 2.79504 4.26028 2.80486 4.25456 2.8141L4.24953 2.82244C4.20722 2.89259 4.16531 2.96211 4.13356 3.0381C4.13164 3.04242 4.13042 3.04696 4.12922 3.05141C4.12792 3.05623 4.12664 3.06094 4.12456 3.0651C4.08757 3.1591 4.05457 3.2561 4.03457 3.3571C4.03156 3.37155 4.03072 3.38637 4.02988 3.40132C4.02932 3.4112 4.02876 3.42116 4.02757 3.4311C4.01257 3.5171 3.99957 3.6051 3.99957 3.6971V10.3031C4.00057 11.2401 4.76153 12.0001 5.69947 12.0001L9 12C9.27614 12 9.5 11.7761 9.5 11.5C9.5 11.2239 9.27614 11 9 11H7L6.98989 11.0001H5.69947ZM4.99951 3.7001C4.99951 3.3141 5.3135 3.0001 5.69947 3.0001H12.2991C12.6851 3.0001 12.9991 3.3141 12.9991 3.7001V5.0001H4.99951V3.7001Z" fill="#121212"/>
<path d="M15.8528 8.85425L13.7068 11.0002L15.8528 13.1462C16.0488 13.3422 16.0488 13.6582 15.8528 13.8542C15.7558 13.9513 15.6278 14.0002 15.4998 14.0002C15.3718 14.0002 15.2438 13.9513 15.1458 13.8542L12.9998 11.7073L10.8528 13.8542C10.7558 13.9513 10.6278 14.0002 10.4998 14.0002C10.3718 14.0002 10.2438 13.9513 10.1458 13.8542C9.95076 13.6582 9.95076 13.3422 10.1458 13.1462L12.2928 11.0002L10.1458 8.85425C9.95076 8.65825 9.95076 8.34225 10.1458 8.14625C10.3418 7.95125 10.6578 7.95125 10.8528 8.14625L12.9998 10.2933L15.1458 8.14625C15.3418 7.95125 15.6578 7.95125 15.8528 8.14625C16.0488 8.34225 16.0488 8.65825 15.8528 8.85425Z" fill="#121212"/>
</svg>
