<svg width="24" height="24" viewBox="0 0 24 24" xmlns="http://www.w3.org/2000/svg"><title>alerts-and-notifications/unsecure_24</title><path d="M18.541 9C19.897 9 21 10.103 21 11.459l0 10.082C21 22.897 19.897 24 18.541 24L5.459 24C4.103 24 3 22.897 3 21.541l0-10.082C3 10.103 4.103 9 5.459 9L6 9l0-3c0-3.309 2.691-6 6-6 2.443 0 4.688 1.534 5.587 3.817.101.257-.025.547-.282.648-.257.1-.547-.025-.649-.282C15.907 2.279 14.036 1 12 1 9.243 1 7 3.243 7 6l0 3 11.541 0zM20 21.541l0-10.082c0-.805-.654-1.459-1.459-1.459L5.459 10C4.654 10 4 10.654 4 11.459l0 10.082C4 22.346 4.654 23 5.459 23l13.082 0c.805 0 1.459-.654 1.459-1.459zM15.5 16c.275 0 .5.225.5.5 0 .275-.225.5-.5.5l-7 0c-.275 0-.5-.225-.5-.5 0-.275.225-.5.5-.5l7 0z" fill="#000" fill-rule="evenodd"/></svg>