<svg width="14" height="14" viewBox="0 0 14 14" xmlns="http://www.w3.org/2000/svg"><title>alerts-and-notifications/unsecure_14</title><path d="M11.504 12.3452l0-5.692c0-.361-.293-.654-.654-.654l-7.341 0c-.003 0-.006.002-.009.002-.004 0-.007-.002-.01-.002l-.337 0c-.36 0-.653.293-.653.654l0 5.692c0 .36.293.654.653.654l7.697 0c.361 0 .654-.294.654-.654zM11 5.0142c.841.077 1.504.778 1.504 1.639l0 5.692c0 .912-.742 1.654-1.654 1.654l-7.697 0c-.912 0-1.653-.742-1.653-1.654l0-5.692c0-.86.661-1.56 1.5-1.639l.003 0c0-.005-.003-.009-.003-.014l0-1c0-2.206 1.794-4 4-4 1.307 0 2.534.64 3.282 1.714.158.226.103.538-.124.696-.228.157-.538.102-.696-.124C8.9 1.4812 7.98 1.0002 7 1.0002c-1.655 0-3 1.345-3 3l0 1c0 .005-.003.009-.003.014l7.003 0zM8.4996 9c.276 0 .5.224.5.5 0 .276-.224.5-.5.5l-3 0c-.276 0-.5-.224-.5-.5 0-.276.224-.5.5-.5l3 0z" fill="#000" fill-rule="evenodd"/></svg>