<svg width="12" height="12" viewBox="0 0 12 12" xmlns="http://www.w3.org/2000/svg"><title>alerts-and-notifications/unsecure_12</title><path d="M3.0001 4.0003l1 0 0-.0003 5.5 0c.829 0 1.5.671 1.5 1.5l0 5c0 .829-.671 1.5-1.5 1.5l-7 0c-.828 0-1.5-.671-1.5-1.5l0-5c0-.829.672-1.5 1.5-1.5l.5 0 0 .0003zm.19700241.67867832C3.28119438 4.74316549 3.38622086 4.7813 3.5001 4.7813c.11387914 0 .21890562-.03813451.30299759-.10232168C3.71900562 4.74303573 3.61397914 4.781 3.5001 4.781c-.11387914 0-.21890562-.03796427-.30299759-.10202168zM10.0001 10.5l0-5c0-.276-.224-.5-.5-.5l-7 0c-.275 0-.5.224-.5.5l0 5c0 .276.225.5.5.5l7 0c.276 0 .5-.224.5-.5zm-2.5-3c.275 0 .5.225.5.5 0 .275-.225.5-.5.5l-3 0c-.275 0-.5-.225-.5-.5 0-.275.225-.5.5-.5l3 0zm-3.5-4.5l0 1-1 0 0-1c0-1.654 1.346-3 3-3 1.186 0 2.264.704 2.746 1.793.111.253-.003.548-.256.66-.253.113-.547-.003-.659-.255C7.5091 1.47 6.7911 1 6.0001 1c-1.103 0-2 .897-2 2zm-1 1.0003l0 .281c0 .16212086.07728722.30630005.19700241.39767832C3.07738722 4.58778477 3.0001 4.44370826 3.0001 4.281l0-.2807zm.80299759.67867832C3.92281278 4.58760005 4.0001 4.44342086 4.0001 4.2813l0-.281 0 .2807c0 .16270826-.07728722.30678477-.19700241.39797832z" fill="#000" fill-rule="evenodd"/></svg>