<svg width="16" height="16" viewBox="0 0 16 16" fill="none" xmlns="http://www.w3.org/2000/svg">
<path fill-rule="evenodd" clip-rule="evenodd" d="M4 15.5C4 15.7416 3.82861 15.9432 3.60077 15.9898C3.56822 15.9965 3.53452 16 3.5 16C3.24112 16 3.02819 15.8033 3.00258 15.5511C3.00087 15.5343 3 15.5173 3 15.5V1.7071L0.853553 3.8536C0.658291 4.0488 0.341709 4.0488 0.146447 3.8536C-0.0488157 3.6583 -0.0488157 3.3417 0.146447 3.1464L3.14645 0.146402C3.22375 0.0691066 3.32209 0.0211149 3.42565 0.00555566C3.46579 -0.000474425 3.50671 -0.00163219 3.54749 0.00226071C3.66082 0.0130687 3.7696 0.0624519 3.85355 0.146403L6.85355 3.1464C7.04882 3.3417 7.04882 3.6583 6.85355 3.8536C6.65829 4.0488 6.34171 4.0488 6.14645 3.8536L4 1.7071V15.5ZM13 0.500004C13 0.25838 12.8286 0.0567853 12.6008 0.0101621C12.5682 0.0035016 12.5345 3.8147e-06 12.5 3.8147e-06C12.2239 3.8147e-06 12 0.223862 12 0.500004V14.2929L9.85355 12.1464C9.65829 11.9512 9.34171 11.9512 9.14645 12.1464C8.95118 12.3417 8.95118 12.6583 9.14645 12.8536L12.1465 15.8536C12.223 15.9301 12.3201 15.9779 12.4226 15.994C12.4637 16.0004 12.5057 16.0017 12.5475 15.9977C12.6608 15.9869 12.7696 15.9376 12.8535 15.8536L15.8536 12.8536C16.0488 12.6583 16.0488 12.3417 15.8536 12.1464C15.6583 11.9512 15.3417 11.9512 15.1464 12.1464L13 14.2929V0.500004Z" fill="#121212"/>
</svg>
