<svg width="12" height="12" viewBox="0 0 12 12" fill="none" xmlns="http://www.w3.org/2000/svg">
<path fill-rule="evenodd" clip-rule="evenodd" d="M10.16 0C11.174 0 11.999 0.824 12 1.838V6.502C11.999 7.328 11.326 8 10.5 8C10.223 8 10 7.776 10 7.5C10 7.224 10.223 7 10.5 7C10.775 7 11 6.775 11 6.5V1.84C11 1.377 10.623 1 10.16 1H1.84C1.377 1 1 1.377 1 1.84V6.5C1 6.775 1.224 7 1.5 7C1.776 7 2 7.224 2 7.5C2 7.776 1.776 8 1.5 8C0.673 8 0 7.327 0 6.5V1.84C0 0.825 0.825 0 1.84 0H10.16ZM12 6.502V1.838L11.9998 1.8399V6.4999L12 6.502Z" fill="#121212"/>
<path fill-rule="evenodd" clip-rule="evenodd" d="M6.5 7.5C6.5 7.78 6.72 8 7 8H9C9.35156 8 9.5 7.6932 9.5 7.5V5.5C9.5 5.22 9.28 5 9 5C8.72 5 8.5 5.22 8.5 5.5V6.05C8 5.55 7.13672 5 6 5C4.0701 5 2.5 6.5701 2.5 8.5C2.5 10.4299 4.0701 12 6 12C7.7843 12 9.27317 10.6 9.46 9C9.4817 8.8075 9.3 8.5 8.96 8.5063C8.68 8.5 8.45229 8.75 8.46 9C8.2 10 7.38 11 6 11C4.62 11 3.5 9.88 3.5 8.5C3.5 7.12 4.62 6 6 6C7 6 7.6 6.5 8 7H7C6.72 7 6.5 7.22 6.5 7.5Z" fill="#121212"/>
</svg>
