<svg width="16" height="16" viewBox="0 0 16 16" fill="none" xmlns="http://www.w3.org/2000/svg">
<path fill-rule="evenodd" clip-rule="evenodd" d="M11.5 8C11.776 8 12 8.224 12 8.5V10.5C12 10.775 11.775 11 11.5 11H9.5C9.224 11 9 10.776 9 10.5C9 10.224 9.224 10 9.5 10H10.212C9.649 9.375 8.864 9 8 9C6.346 9 5 10.346 5 12C5 13.654 6.346 15 8 15C9.155 15 10.22 14.325 10.714 13.28C10.832 13.031 11.127 12.926 11.38 13.042C11.629 13.16 11.736 13.458 11.618 13.708C10.959 15.101 9.54 16 8 16C5.794 16 4 14.206 4 12C4 9.794 5.794 8 8 8C9.172 8 10.248 8.503 11 9.363V8.5C11 8.224 11.224 8 11.5 8Z" fill="#121212"/>
<path fill-rule="evenodd" clip-rule="evenodd" d="M2 12.0005C0.895 12.0005 0 11.1055 0 10.0005V2.00049C0 0.895489 0.895 0.000488281 2 0.000488281H14C15.105 0.000488281 16 0.895489 16 2.00049V10.0005C16 11.1055 15.105 12.0005 14 12.0005C13.725 12.0005 13.5 11.7755 13.5 11.5005C13.5 11.2255 13.725 11.0005 14 11.0005C14.551 11.0005 15 10.5515 15 10.0005V2.00049C15 1.44949 14.551 1.00049 14 1.00049H2C1.449 1.00049 1 1.44949 1 2.00049V10.0005C1 10.5515 1.449 11.0005 2 11.0005C2.275 11.0005 2.5 11.2255 2.5 11.5005C2.5 11.7755 2.275 12.0005 2 12.0005Z" fill="#121212"/>
</svg>
