<svg width="16" height="16" viewBox="0 0 16 16" xmlns="http://www.w3.org/2000/svg"><title>common-actions/upload_16</title><path d="M7.646 4.147L3.647 8.146c-.196.196-.196.512 0 .707.195.196.511.196.707 0L7.5 5.707l0 8.793c0 .276.224.5.5.5.276 0 .5-.224.5-.5l0-8.793 3.147 3.146c.195.196.511.196.707 0 .195-.195.195-.511 0-.707l-4-3.999c-.046-.046-.101-.083-.163-.109C8.13 4.013 8.065 4 8 4c-.065 0-.13.013-.191.038-.061.026-.117.063-.163.109zm6.8155385-2.1471c.2972307 0 .5384615-.224.5384615-.5 0-.276-.2412308-.5-.5384615-.5l-12.923076962 0C1.241230769.9999 1 1.2239 1 1.4999c0 .276.241230769.5.538461538.5l12.923076962 0z" fill="#000" fill-rule="evenodd"/></svg>