<svg width="24" height="24" viewBox="0 0 24 24" xmlns="http://www.w3.org/2000/svg"><title>common-actions/upload_24</title><path d="M11.65179795 6.1471l-5.99489823 5.999c-.19586599.196-.19586599.512 0 .707.19486667.196.51065061.196.70651659 0l5.14248146-5.146 0 13.793c0 .276.22384684.5.49965813.5.2758113 0 .4996581-.224.4996581-.5l0-13.793 5.1434808 5.146c.1948667.196.5106506.196.7065166 0 .1948667-.195.1948667-.511 0-.707l-5.9958975-5.999c-.0459686-.046-.100931-.083-.1628886-.109-.0609583-.025-.1259138-.038-.1908694-.038-.06495556 0-.12991111.013-.1908694.038-.0609583.026-.11692001.063-.16288855.109zM21.4739441 3c.2903276 0 .5259559-.224.5259559-.5 0-.276-.2356283-.5-.5259559-.5L2.525855925 2C2.235528254 2 1.9999 2.224 1.9999 2.5c0 .276.235628254.5.525955925.5L21.4739441 3z" fill="#000" fill-rule="evenodd"/></svg>