<svg width="32" height="32" viewBox="0 0 32 32" xmlns="http://www.w3.org/2000/svg"><title>common-actions/upload_32</title><path d="M15.64625 8.1465l-8 8c-.195.195-.195.512 0 .707.196.195.512.195.707 0l7.147-7.146 0 18.793c0 .276.224.5.5.5.276 0 .5-.224.5-.5l0-18.793 7.146 7.146c.196.195.512.195.707 0 .196-.195.196-.512 0-.707l-7.999-8c-.047-.046-.102-.082-.163-.107-.061-.026-.126-.039-.191-.039-.065 0-.13.013-.191.039-.061.024-.117.061-.163.107zM29.4814815 4C29.7677037 4 30 3.776 30 3.5c0-.276-.2322963-.5-.5185185-.5L2.518518519 3C2.232296296 3 2 3.224 2 3.5c0 .276.232296296.5.518518519.5L29.4814815 4z" fill="#000" fill-rule="evenodd"/></svg>