<svg width="24" height="24" viewBox="0 0 24 24" xmlns="http://www.w3.org/2000/svg"><title>contacts/user_24</title><path d="M12 23c-3.168 0-6.018-1.354-8.027-3.504C4.844 18.571 6.054 18 7.384 18l9.232 0c1.33 0 2.546.565 3.418 1.489C18.025 21.643 15.171 23 12 23m0-6c-3.308 0-6-2.692-6-6 0-3.309 2.692-6 6-6 3.309 0 6 2.691 6 6 0 3.308-2.691 6-6 6m0-16c6.065 0 11 4.935 11 11 0 2.538-.872 4.871-2.321 6.734C19.63 17.659 18.193 17 16.616 17l-1.029 0C17.627 15.775 19 13.547 19 11c0-3.86-3.14-7-7-7-3.859 0-7 3.14-7 7 0 2.547 1.373 4.775 3.414 6l-1.03 0c-1.577 0-3.017.656-4.065 1.731C1.871 16.868 1 14.536 1 12 1 5.935 5.935 1 12 1m0-1C5.383 0 0 5.383 0 12c0 6.617 5.383 12 12 12 6.617 0 12-5.383 12-12 0-6.617-5.383-12-12-12" fill="#000" fill-rule="evenodd"/></svg>