<svg width="20" height="20" viewBox="0 0 20 20" xmlns="http://www.w3.org/2000/svg"><title>contacts/user_20</title><path d="M3.9263 16.6221c.618-.392 1.342-.622 2.117-.622l7.914 0c.774 0 1.496.232 2.116.622-1.603 1.472-3.731 2.378-6.073 2.378-2.342 0-4.471-.907-6.074-2.378m6.074-1.622c-2.757 0-5-2.243-5-5 0-2.757 2.243-5 5-5 2.757 0 5 2.243 5 5 0 2.757-2.243 5-5 5m0-14c4.962 0 9 4.037 9 9 0 2.26-.844 4.323-2.225 5.905-.81-.562-1.775-.905-2.818-.905l-.648 0c1.62-1.076 2.691-2.914 2.691-5 0-3.309-2.692-6-6-6-3.309 0-6 2.691-6 6 0 2.086 1.071 3.924 2.69 5l-.647 0c-1.044 0-2.009.342-2.819.905-1.381-1.583-2.224-3.645-2.224-5.905 0-4.963 4.037-9 9-9m0-1c-5.523 0-10 4.477-10 10 0 5.523 4.477 10 10 10 5.523 0 10-4.477 10-10 0-5.523-4.477-10-10-10" fill="#000" fill-rule="evenodd"/></svg>