<?xml version="1.0" encoding="utf-8"?>
<!-- Generator: Adobe Illustrator 25.0.0, SVG Export Plug-In . SVG Version: 6.00 Build 0)  -->
<svg version="1.1" id="Layer_1" xmlns="http://www.w3.org/2000/svg" xmlns:xlink="http://www.w3.org/1999/xlink" x="0px" y="0px"
	 viewBox="0 0 20 20" style="enable-background:new 0 0 20 20;" xml:space="preserve">
<style type="text/css">
	.st0{fill-rule:evenodd;clip-rule:evenodd;fill:#121212;}
</style>
<path class="st0" d="M1,8h18v7.5c0,0.8-0.7,1.5-1.5,1.5h-15C1.7,17,1,16.3,1,15.5V8z M1,4.5C1,3.7,1.7,3,2.5,3h3.8v4H1V4.5z M12.7,3
	H7.3v4h5.3V3z M17.5,3C18.3,3,19,3.7,19,4.5V7h-5.3V3H17.5z M2.5,18h15c1.4,0,2.5-1.1,2.5-2.5v0v-11v0C20,3.1,18.9,2,17.5,2h-15
	C1.1,2,0,3.1,0,4.5l0,11C0,16.9,1.1,18,2.5,18z"/>
</svg>
