<svg width="20" height="20" viewBox="0 0 20 20" xmlns="http://www.w3.org/2000/svg"><title>format/video-layout-prominent_20</title><path d="M17.5 2C18.875 2 20 3.125 20 4.5l0 11c0 1.375-1.125 2.5-2.5 2.5l-15 0C1.127 18 .003 16.877 0 15.504l0-.004 0-11 0-.004C.003 3.123 1.127 2 2.5 2l15 0zM19 7l0-2.5c0-.827-.673-1.5-1.5-1.5l-3.833 0 0 4L19 7zm-5.333 5L19 12l0-4-5.333 0 0 4zM19 15.5l0-2.5-5.333 0 0 4 3.833 0c.827 0 1.5-.673 1.5-1.5zM7.333 17l5.334 0 0-4-5.334 0 0 4zM2.5 17l3.833 0 0-4L1 13l0 2.5c0 .827.673 1.5 1.5 1.5zM1 4.5L1 12l11.667 0 0-9L2.5 3C1.673 3 1 3.673 1 4.5z" fill="#000" fill-rule="evenodd"/></svg>