<svg width="24" height="24" viewBox="0 0 24 24" xmlns="http://www.w3.org/2000/svg"><title>format/video-layout-prominent_24</title><path d="M21.5 3C22.878 3 24 4.121 24 5.5l0 13c0 1.379-1.122 2.5-2.5 2.5l-19 0C1.122 21 0 19.879 0 18.5l0-13C0 4.121 1.122 3 2.5 3l19 0zM23 9l0-3.5c0-.827-.673-1.5-1.5-1.5L16 4l0 5 7 0zm-7 5l7 0 0-4-7 0 0 4zm7 4.5l0-3.5-7 0 0 5 5.5 0c.827 0 1.5-.673 1.5-1.5zM9 20l6 0 0-5-6 0 0 5zm-6.5 0L8 20l0-5-7 0 0 3.5c0 .827.673 1.5 1.5 1.5zM1 5.5L1 14l14 0 0-10L2.5 4C1.673 4 1 4.673 1 5.5z" fill="#000" fill-rule="evenodd"/></svg>