<svg width="24" height="24" viewBox="0 0 24 24" xmlns="http://www.w3.org/2000/svg"><title>format/video-layout-auto_24</title><path d="M21.5 3C22.878 3 24 4.121 24 5.5l0 13c0 1.379-1.122 2.5-2.5 2.5l-19 0C1.122 21 0 19.879 0 18.5l0-13C0 4.121 1.122 3 2.5 3l19 0zM23 18.5l0-13c0-.827-.673-1.5-1.5-1.5l-19 0C1.673 4 1 4.673 1 5.5l0 13c0 .827.673 1.5 1.5 1.5l19 0c.827 0 1.5-.673 1.5-1.5zm-6.501-5.9878c.27.062.438.329.377.599-.52 2.29-2.525 3.889-4.876 3.889-1.599 0-3.064-.757-4-2.01l0 1.51c0 .275-.225.5-.5.5-.275 0-.5-.225-.5-.5l0-3c0-.275.225-.5.5-.5l3 0c.275 0 .5.225.5.5 0 .275-.225.5-.5.5l-1.955 0c.716 1.235 2.017 2 3.455 2 1.881 0 3.485-1.28 3.901-3.111.062-.269.327-.439.598-.377zM16.5 7c.275 0 .5.225.5.5l0 3c0 .275-.225.5-.5.5l-3 0c-.275 0-.5-.225-.5-.5 0-.275.225-.5.5-.5l1.953 0c-.714-1.236-2.01-2-3.453-2-1.881 0-3.485 1.279-3.901 3.111-.053.232-.259.389-.488.389-.036 0-.073-.004-.11-.012-.27-.062-.439-.329-.377-.599C7.644 8.599 9.649 7 12 7c1.605 0 3.066.757 4 2.012L16 7.5c0-.275.225-.5.5-.5z" fill="#000" fill-rule="evenodd"/></svg>