<svg width="12" height="12" viewBox="0 0 12 12" xmlns="http://www.w3.org/2000/svg"><title>format/video-layout-auto_12</title><path d="M11 9.5c0 .276-.224.5-.5.5l-9 0c-.276 0-.5-.224-.5-.5l0-7c0-.276.224-.5.5-.5l9 0c.276 0 .5.224.5.5l0 7zM10.5 1c.828 0 1.5.672 1.5 1.5l0 7c0 .828-.672 1.5-1.5 1.5l-9 0C.672 11 0 10.328 0 9.5l0-7C0 1.672.672 1 1.5 1l9 0zM7.6003 7.2002c-.382.508-.965.8-1.6.8-.715 0-1.353-.393-1.709-1l1.209 0c.275 0 .5-.225.5-.5 0-.276-.225-.5-.5-.5l-2 0c-.275 0-.5.224-.5.5l0 2c0 .275.225.5.5.5.275 0 .5-.225.5-.5l0-.266c.54.483 1.246.766 2 .766.953 0 1.827-.438 2.4-1.2.166-.221.121-.535-.1-.7-.221-.168-.534-.121-.7.1zM8.5 3c-.275 0-.5.225-.5.5l0 .266C7.46 3.283 6.753 3 6 3c-.953 0-1.828.437-2.4 1.2-.166.221-.121.534.099.699.222.168.535.122.701-.099.381-.508.965-.8 1.6-.8.715 0 1.353.393 1.709 1L6.5 5c-.275 0-.5.225-.5.5 0 .275.225.5.5.5l2 0c.275 0 .5-.225.5-.5l0-2c0-.275-.225-.5-.5-.5z" fill="#000" fill-rule="evenodd"/></svg>