<svg width="20" height="20" viewBox="0 0 20 20" xmlns="http://www.w3.org/2000/svg"><title>format/video-layout-video-dominant_20</title><path d="M19 15.5c0 .827-.673 1.5-1.5 1.5l-.552 0c-.457-1.768-2.042-3-3.87-3l-.109 0C14.194 13.088 15 11.642 15 10c0-2.757-2.243-5-5-5-2.757 0-5 2.243-5 5 0 1.642.806 3.088 2.031 4l-.109 0c-1.828 0-3.413 1.232-3.87 3L2.5 17c-.827 0-1.5-.673-1.5-1.5l0-11C1 3.673 1.673 3 2.5 3l15 0c.827 0 1.5.673 1.5 1.5l0 11zM4.105 17c.421-1.188 1.536-2 2.817-2l6.156 0c1.281 0 2.396.812 2.817 2l-11.79 0zM6 10c0-2.206 1.794-4 4-4 2.206 0 4 1.794 4 4 0 2.206-1.794 4-4 4-2.206 0-4-1.794-4-4zm11.5-8l-15 0C1.127 2 .003 3.123 0 4.496L0 4.5l0 11 0 .004C.003 16.877 1.127 18 2.5 18l15 0c1.375 0 2.5-1.125 2.5-2.5l0-11C20 3.125 18.875 2 17.5 2z" fill="#000" fill-rule="evenodd"/></svg>