<svg width="20" height="20" viewBox="0 0 20 20" xmlns="http://www.w3.org/2000/svg"><title>format/video-layout-equal_20</title><path d="M19 9.5l-8.5 0 0-6.5 7 0c.827 0 1.5.673 1.5 1.5l0 5zm0 6c0 .827-.673 1.5-1.5 1.5l-7 0 0-6.5 8.5 0 0 5zm-9.5-6L1 9.5l0-5C1 3.673 1.673 3 2.5 3l7 0 0 6.5zm0 7.5l-7 0c-.827 0-1.5-.673-1.5-1.5l0-5 8.5 0 0 6.5zm8-15l-15 0C1.127 2 .003 3.123 0 4.496L0 4.5l0 11 0 .004C.003 16.877 1.127 18 2.5 18l15 0c1.375 0 2.5-1.125 2.5-2.5l0-11C20 3.125 18.875 2 17.5 2z" fill="#000" fill-rule="evenodd"/></svg>