<svg width="16" height="16" viewBox="0 0 16 16" xmlns="http://www.w3.org/2000/svg"><title>format/video-layout-auto_16</title><path d="M14 2c1.105 0 2 .895 2 2l0 8c0 1.105-.895 2-2 2L2 14c-1.105 0-2-.895-2-2l0-8c0-1.105.895-2 2-2l12 0zm1 10l0-8c0-.551-.449-1-1-1L2 3c-.551 0-1 .449-1 1l0 8c0 .551.449 1 1 1l12 0c.551 0 1-.449 1-1zM9.6006 9.2002c.165-.221.479-.267.699-.1.222.165.266.479.1.7-.564.752-1.461 1.2-2.4 1.2-.753 0-1.46-.282-2-.766l0 .266c0 .275-.224.5-.5.5-.275 0-.5-.225-.5-.5l0-2c0-.276.225-.5.5-.5l2 0c.276 0 .5.224.5.5 0 .275-.224.5-.5.5l-1.209 0c.357.606.994 1 1.709 1 .635 0 1.219-.292 1.601-.8zM10.5 5c.275 0 .5.225.5.5l0 2c0 .275-.225.5-.5.5l-2 0c-.275 0-.5-.225-.5-.5 0-.275.225-.5.5-.5l1.209 0C9.353 6.394 8.716 6 8 6c-.635 0-1.219.292-1.601.8-.165.221-.478.267-.699.099-.221-.165-.265-.478-.099-.699C6.164 5.448 7.062 5 8 5c.754 0 1.46.282 2 .766l0-.266c0-.275.225-.5.5-.5z" fill="#000" fill-rule="evenodd"/></svg>