<svg width="16" height="16" viewBox="0 0 16 16" xmlns="http://www.w3.org/2000/svg"><title>format/video-layout-share-dominant_16</title><path d="M14 2c1.105 0 2 .895 2 2l0 8c0 1.105-.895 2-2 2L2 14c-1.105 0-2-.895-2-2l0-8c0-1.105.895-2 2-2l12 0zm1 10l0-8c0-.551-.449-1-1-1L2 3c-.551 0-1 .449-1 1l0 8c0 .551.449 1 1 1l12 0c.551 0 1-.449 1-1zM8 4c2.206 0 4 1.794 4 4 0 2.206-1.794 4-4 4-2.206 0-4-1.794-4-4 0-2.206 1.794-4 4-4zm0 7c1.483 0 2.71-1.084 2.949-2.5L8 8.5c-.276 0-.5-.224-.5-.5l0-2.949C6.084 5.29 5 6.517 5 8c0 1.654 1.346 3 3 3zm2.949-3.5C10.737 6.248 9.752 5.263 8.5 5.051l0 2.449 2.449 0z" fill="#000" fill-rule="evenodd"/></svg>