<svg width="12" height="12" viewBox="0 0 12 12" xmlns="http://www.w3.org/2000/svg"><title>format/view-list_12</title><path d="M1 2.4999c0 .276-.224.5-.5.5-.276 0-.5-.224-.5-.5 0-.276.224-.5.5-.5.276 0 .5.224.5.5zM1 6c0 .276-.224.5-.5.5-.276 0-.5-.224-.5-.5 0-.276.224-.5.5-.5.276 0 .5.224.5.5zm0 3.4999c0 .276-.224.5-.5.5-.276 0-.5-.224-.5-.5 0-.276.224-.5.5-.5.276 0 .5.224.5.5zm10.5-6.5l-8 0c-.275 0-.5-.225-.5-.5 0-.275.225-.5.5-.5l8 0c.275 0 .5.225.5.5 0 .275-.225.5-.5.5zm0 3.5001l-8 0c-.275 0-.5-.225-.5-.5 0-.275.225-.5.5-.5l8 0c.275 0 .5.225.5.5 0 .275-.225.5-.5.5zm0 3.4999l-8 0c-.275 0-.5-.225-.5-.5 0-.275.225-.5.5-.5l8 0c.275 0 .5.225.5.5 0 .275-.225.5-.5.5z" fill="#000" fill-rule="evenodd"/></svg>