<svg width="14" height="14" viewBox="0 0 14 14" xmlns="http://www.w3.org/2000/svg"><title>format/view-stack_14</title><path d="M2.667 2C2.299 2 2 2.299 2 2.667l0 1.666c0 .368.299.667.667.667l8.667 0c.367 0 .666-.299.666-.667l0-1.666c0-.368-.299-.667-.666-.667L2.667 2zm8.667 4L2.667 6C1.748 6 1 5.252 1 4.333l0-1.666C1 1.748 1.748 1 2.667 1l8.667 0C12.253 1 13 1.748 13 2.667l0 1.666C13 5.252 12.253 6 11.334 6zm0 7.001l-8.667 0c-.919 0-1.667-.748-1.667-1.667l0-1.667c0-.919.748-1.666 1.667-1.666l8.667 0c.919 0 1.666.747 1.666 1.666l0 1.667c0 .919-.747 1.667-1.666 1.667zm-8.667-4c-.368 0-.667.299-.667.666l0 1.667c0 .367.299.667.667.667l8.667 0c.367 0 .666-.3.666-.667l0-1.667c0-.367-.299-.666-.666-.666l-8.667 0z" fill="#000" fill-rule="evenodd"/></svg>