<svg width="10" height="10" viewBox="0 0 10 10" xmlns="http://www.w3.org/2000/svg"><title>format/view-list_10</title><path d="M1 1.5c0 .276-.224.5-.5.5-.276 0-.5-.224-.5-.5 0-.276.224-.5.5-.5.276 0 .5.224.5.5zM1 5c0 .276-.224.5-.5.5-.276 0-.5-.224-.5-.5 0-.276.224-.5.5-.5.276 0 .5.224.5.5zm0 3.5c0 .276-.224.5-.5.5-.276 0-.5-.224-.5-.5 0-.276.224-.5.5-.5.276 0 .5.224.5.5zM9.5 2l-7 0c-.275 0-.5-.225-.5-.5 0-.275.225-.5.5-.5l7 0c.275 0 .5.225.5.5 0 .275-.225.5-.5.5zm0 7l-7 0c-.275 0-.5-.225-.5-.5 0-.275.225-.5.5-.5l7 0c.275 0 .5.225.5.5 0 .275-.225.5-.5.5zm0-3.5l-7 0c-.275 0-.5-.225-.5-.5 0-.275.225-.5.5-.5l7 0c.275 0 .5.225.5.5 0 .275-.225.5-.5.5z" fill-rule="evenodd"/></svg>