<svg width="16" height="16" viewBox="0 0 16 16" xmlns="http://www.w3.org/2000/svg"><title>format/view-thumbnail_16</title><path d="M5 1c1.104 0 2 .895 2 2l0 2c0 1.105-.896 2-2 2L3 7c-1.104 0-2-.895-2-2l0-2c0-1.105.896-2 2-2l2 0zm8 0c1.104 0 2 .895 2 2l0 2c0 1.105-.896 2-2 2l-2 0c-1.104 0-2-.895-2-2l0-2c0-1.105.896-2 2-2l2 0zM5 9c1.104 0 2 .895 2 2l0 2c0 1.105-.896 2-2 2l-2 0c-1.104 0-2-.895-2-2l0-2c0-1.105.896-2 2-2l2 0zm8 0c1.104 0 2 .895 2 2l0 2c0 1.105-.896 2-2 2l-2 0c-1.104 0-2-.895-2-2l0-2c0-1.105.896-2 2-2l2 0zm1 4l0-2c0-.551-.448-1-1-1l-2 0c-.552 0-1 .449-1 1l0 2c0 .551.448 1 1 1l2 0c.552 0 1-.449 1-1zm-8 0l0-2c0-.551-.448-1-1-1l-2 0c-.552 0-1 .449-1 1l0 2c0 .551.448 1 1 1l2 0c.552 0 1-.449 1-1zm8-8l0-2c0-.551-.448-1-1-1l-2 0c-.552 0-1 .449-1 1l0 2c0 .551.448 1 1 1l2 0c.552 0 1-.449 1-1zM6 5l0-2c0-.551-.448-1-1-1L3 2c-.552 0-1 .449-1 1l0 2c0 .551.448 1 1 1l2 0c.552 0 1-.449 1-1z" fill="#000" fill-rule="evenodd"/></svg>