<svg width="8" height="8" viewBox="0 0 8 8" xmlns="http://www.w3.org/2000/svg"><title>phone/voicemail_8</title><path d="M7.003.9998c.551 0 .997.451.997.99l0 4.019c0 .548-.453.991-.997.991l-6.006 0c-.551 0-.997-.451-.997-.991l0-4.019c0-.546.453-.99.997-.99l6.006 0zM1 6.0088c0-.01 6.003-.009 6.003-.009-.003 0-.003-4.01-.003-4.01 0 .011-6.003.01-6.003.01.002 0 .003 1.551.003 2.724l0 .276 0 1.009zM5 3c.552 0 1 .447 1 1 0 .553-.448 1-1 1L3 5c-.552 0-1-.447-1-1 0-.553.448-1 1-1 .552 0 1 .447 1 1 0-.553.448-1 1-1z" fill-rule="evenodd"/></svg>