<svg width="24" height="24" viewBox="0 0 24 24" xmlns="http://www.w3.org/2000/svg"><title>phone/voicemail-active_24</title><path d="M21.5 3C22.881 3 24 4.119 24 5.5l0 13c0 1.381-1.119 2.5-2.5 2.5l-19 0C1.119 21 0 19.881 0 18.5l0-13C0 4.119 1.119 3 2.5 3l19 0zM16 14c-1.103 0-2-.897-2-2 0-1.103.897-2 2-2 1.103 0 2 .897 2 2 0 1.103-.897 2-2 2zM6 12c0-1.103.897-2 2-2 1.103 0 2 .897 2 2 0 1.103-.897 2-2 2-1.103 0-2-.897-2-2zm10-3c-1.657 0-3 1.343-3 3 0 .772.3 1.468.779 2l-3.558 0c.479-.532.779-1.228.779-2 0-1.657-1.343-3-3-3-1.657 0-3 1.343-3 3 0 1.657 1.343 3 3 3l8 0c1.657 0 3-1.343 3-3 0-1.657-1.343-3-3-3z" fill-rule="evenodd"/></svg>