<svg width="14" height="14" viewBox="0 0 14 14" xmlns="http://www.w3.org/2000/svg"><title>phone/voicemail_14</title><path d="M13 10.8l0-7.6c0-.386-.314-.7-.7-.7l-10.6 0c-.386 0-.7.314-.7.7l0 7.6c0 .386.314.7.7.7l10.6 0c.386 0 .7-.314.7-.7zm-.7-9.3c.939 0 1.7.761 1.7 1.7l0 7.6c0 .939-.761 1.7-1.7 1.7l-10.6 0c-.939 0-1.7-.761-1.7-1.7l0-7.6c0-.939.761-1.7 1.7-1.7l10.6 0zM9.2451 7.7512c.412 0 .748-.335.748-.748 0-.412-.336-.748-.748-.748-.412 0-.748.336-.748.748 0 .413.336.748.748.748zm-5.249-.751c0 .414.337.751.752.751.414 0 .752-.337.752-.751 0-.415-.338-.752-.752-.752-.415 0-.752.337-.752.752zm5.249-1.745c.966 0 1.748.783 1.748 1.748 0 .966-.782 1.748-1.748 1.748l-4.497 0c-.968 0-1.752-.784-1.752-1.751 0-.968.785-1.752 1.752-1.752.967 0 1.752.784 1.752 1.752 0 .27-.067.523-.176.751l1.348 0c-.11-.227-.175-.479-.175-.748 0-.965.783-1.748 1.748-1.748z" fill-rule="evenodd"/></svg>