<svg width="22" height="22" xmlns="http://www.w3.org/2000/svg"><g fill="#000" fill-rule="nonzero"><path d="M19.5 2h-17A2.5 2.5 0 000 4.5v13A2.5 2.5 0 002.5 20h17a2.5 2.5 0 002.5-2.5v-13A2.5 2.5 0 0019.5 2zM21 17.5c0 .83-.67 1.5-1.5 1.5h-17c-.83 0-1.5-.67-1.5-1.5v-13C1 3.67 1.67 3 2.5 3h17c.83 0 1.5.67 1.5 1.5v13z"/><path d="M15 8c-1.65 0-3 1.35-3 3 0 .77.3 1.47.78 2H9.22c.48-.53.78-1.23.78-2 0-1.65-1.35-3-3-3s-3 1.35-3 3 1.35 3 3 3h8c1.65 0 3-1.35 3-3s-1.35-3-3-3zM5 11c0-1.1.9-2 2-2s2 .9 2 2-.9 2-2 2-2-.9-2-2zm10 2c-1.1 0-2-.9-2-2s.9-2 2-2 2 .9 2 2-.9 2-2 2z"/></g></svg>