<svg width="28" height="28" viewBox="0 0 28 28" xmlns="http://www.w3.org/2000/svg"><title>phone/voicemail_28</title><path d="M27 21.5582c0 1.346-1.095 2.442-2.442 2.442l-21.116 0c-1.347 0-2.442-1.096-2.442-2.442l0-15.116c0-1.347 1.095-2.442 2.442-2.442l21.116 0c1.347 0 2.442 1.095 2.442 2.442l0 15.116zm-2.442-18.558c1.901 0 3.442 1.541 3.442 3.442l0 15.116c0 1.901-1.541 3.442-3.442 3.442l-21.116 0c-1.901 0-3.442-1.541-3.442-3.442l0-15.116c0-1.901 1.541-3.442 3.442-3.442l21.116 0zM20 17c-1.654 0-3-1.346-3-3 0-1.654 1.346-3 3-3 1.654 0 3 1.346 3 3 0 1.654-1.346 3-3 3zM5 14c0-1.654 1.346-3 3-3 1.654 0 3 1.346 3 3 0 1.654-1.346 3-3 3-1.654 0-3-1.346-3-3zm15-4c-2.209 0-4 1.791-4 4 0 1.202.541 2.267 1.38 3l-6.76 0c.839-.733 1.38-1.798 1.38-3 0-2.209-1.791-4-4-4-2.209 0-4 1.791-4 4 0 2.209 1.791 4 4 4l12 0c2.209 0 4-1.791 4-4 0-2.209-1.791-4-4-4z" fill="#000" fill-rule="evenodd"/></svg>