<svg width="10" height="10" viewBox="0 0 10 10" xmlns="http://www.w3.org/2000/svg"><title>phone/voicemail_10</title><path d="M8.7 1.0002c.718 0 1.3.582 1.3 1.3l0 5.4c0 .718-.582 1.3-1.3 1.3l-7.4 0c-.718 0-1.3-.582-1.3-1.3l0-5.4c0-.718.582-1.3 1.3-1.3l7.4 0zm.3 6.7l0-5.4c0-.165-.135-.3-.3-.3l-7.4 0c-.165 0-.3.135-.3.3l0 5.4c0 .165.135.3.3.3l7.4 0c.165 0 .3-.135.3-.3zM6.5 5.5c.276 0 .5-.225.5-.5 0-.275-.224-.5-.5-.5-.276 0-.5.225-.5.5 0 .267.212.482.476.495l.024 0 0 .005zm-2.976-.005C3.788 5.482 4 5.267 4 5c0-.275-.224-.5-.5-.5-.276 0-.5.225-.5.5 0 .275.224.5.5.5l0-.005.024 0zM6.5 3.5C7.327 3.5 8 4.173 8 5c0 .827-.673 1.5-1.5 1.5l-.048 0-2.904 0-.048 0C2.673 6.5 2 5.827 2 5c0-.827.673-1.5 1.5-1.5.827 0 1.5.673 1.5 1.5 0 .174-.036.34-.091.495l.182 0C5.036 5.34 5 5.174 5 5c0-.827.673-1.5 1.5-1.5z" fill-rule="evenodd"/></svg>