<svg width="16" height="16" viewBox="0 0 16 16" xmlns="http://www.w3.org/2000/svg"><title>phone/voicemail-active_16</title><path d="M14 2c1.104 0 2 .896 2 2l0 8c0 1.104-.896 2-2 2L2 14c-1.104 0-2-.896-2-2l0-8c0-1.104.896-2 2-2l12 0zm-3 7c-.552 0-1-.449-1-1 0-.551.448-1 1-1 .552 0 1 .449 1 1 0 .551-.448 1-1 1zM4 8c0-.551.448-1 1-1 .552 0 1 .449 1 1 0 .551-.448 1-1 1-.552 0-1-.449-1-1zm7-2c-1.104 0-2 .896-2 2 0 .366.105.705.277 1L6.723 9C6.895 8.705 7 8.366 7 8c0-1.104-.896-2-2-2-1.104 0-2 .896-2 2 0 1.104.896 2 2 2l6 0c1.104 0 2-.896 2-2 0-1.104-.896-2-2-2z" fill-rule="evenodd"/></svg>