<svg width="28" height="28" viewBox="0 0 28 28" xmlns="http://www.w3.org/2000/svg"><title>settings/wallpaper_28</title><path d="M27 22c0 1.004-.746 1.83-1.712 1.971L13.603 12.286C12.774 11.457 11.672 11 10.5 11c-1.173 0-2.275.457-3.104 1.286L1 18.682 1 6c0-1.103.897-2 2-2l22 0c1.103 0 2 .897 2 2l0 16zM1 22l0-1.904 7.104-7.103c1.279-1.281 3.511-1.281 4.792 0L23.903 24 3 24c-1.103 0-2-.897-2-2zM25 3c1.657 0 3 1.344 3 3l0 16c0 1.656-1.343 3-3 3L3 25c-1.657 0-3-1.344-3-3L0 6c0-1.656 1.343-3 3-3l22 0zm-4 9c-1.103 0-2-.897-2-2 0-1.103.897-2 2-2 1.103 0 2 .897 2 2 0 1.103-.897 2-2 2zm0-5c-1.657 0-3 1.344-3 3 0 1.656 1.343 3 3 3 1.657 0 3-1.344 3-3 0-1.656-1.343-3-3-3z" fill="#000" fill-rule="evenodd"/></svg>