<svg width="24" height="24" viewBox="0 0 24 24" xmlns="http://www.w3.org/2000/svg"><title>settings/wallpaper_24</title><path d="M21.5 3C22.879 3 24 4.122 24 5.5l0 13c0 1.378-1.121 2.5-2.5 2.5l-19 0C1.121 21 0 19.878 0 18.5l0-13C0 4.122 1.121 3 2.5 3l19 0zM23 18.5l0-13c0-.827-.673-1.5-1.5-1.5l-19 0C1.673 4 1 4.673 1 5.5l0 10.571 4.956-4.956c1.494-1.493 3.927-1.495 5.421 0L20.262 20l1.238 0c.827 0 1.5-.673 1.5-1.5zm-22 0c0 .827.673 1.5 1.5 1.5l16.348 0-8.178-8.178c-1.106-1.105-2.901-1.104-4.007 0l-5.642 5.643c-.007.006-.015.008-.021.013L1 18.5zM18.5 6C19.879 6 21 7.122 21 8.5c0 1.378-1.121 2.5-2.5 2.5-1.379 0-2.5-1.122-2.5-2.5C16 7.122 17.121 6 18.5 6zm0 4c.827 0 1.5-.673 1.5-1.5 0-.827-.673-1.5-1.5-1.5-.827 0-1.5.673-1.5 1.5 0 .827.673 1.5 1.5 1.5z" fill="#000" fill-rule="evenodd"/></svg>