<?xml version="1.0" encoding="utf-8"?>
<!-- Generator: Adobe Illustrator 23.0.2, SVG Export Plug-In . SVG Version: 6.00 Build 0)  -->
<svg version="1.1" id="Layer_1" xmlns="http://www.w3.org/2000/svg" xmlns:xlink="http://www.w3.org/1999/xlink" x="0px" y="0px"
	 viewBox="0 0 12 12" style="enable-background:new 0 0 12 12;" xml:space="preserve">
<style type="text/css">
	.st0{fill-rule:evenodd;clip-rule:evenodd;fill:#121212;}
</style>
<path class="st0" d="M11.8,8.8L7.3,1.7C7,1.3,6.5,1,6,1h0C5.5,1,5,1.3,4.7,1.7L0.2,8.8c-0.3,0.4-0.3,1,0,1.4C0.4,10.7,0.9,11,1.4,11
	h9.1c0.5,0,1-0.3,1.3-0.7C12.1,9.8,12.1,9.3,11.8,8.8z M6,9C5.7,9,5.5,8.8,5.5,8.5S5.7,8,6,8s0.5,0.2,0.5,0.5S6.3,9,6,9z M6.5,6.5
	C6.5,6.8,6.3,7,6,7S5.5,6.8,5.5,6.5v-2C5.5,4.2,5.7,4,6,4s0.5,0.2,0.5,0.5V6.5z"/>
</svg>
