<svg width="72" height="72" viewBox="0 0 72 72" xmlns="http://www.w3.org/2000/svg"><title>alerts-and-notifications/warning_72</title><path d="M71.0619969 57.055c.612 1.016.923 2.134.938 3.255l0 .065c.003 1.118-.288 2.238-.879 3.262-1.217 2.106-3.422 3.363-5.898 3.363L6.77899691 67c-2.476 0-4.68-1.257-5.896999999-3.363-1.196-2.071-1.175-4.532.059-6.582L30.1619969 8.262c1.229-2.043 3.411-3.262 5.839-3.262 2.428 0 4.61 1.219 5.838 3.262l.001 0 29.222 48.793zm-.062 3.323l0-.068c-.013-.944-.288-1.896-.795-2.74l-29.223-48.794c-1.044-1.738-2.908-2.776-4.981-2.776-2.073 0-3.936 1.038-4.981 2.777L1.79899691 57.569c-1.043999999 1.735-1.062999999 3.816-.052 5.568 1.036 1.793 2.917 2.863 5.032 2.863l58.44399999 0c2.115 0 3.996-1.07 5.032-2.863.49-.849.748-1.803.745-2.759zm-34.8086-7.3481c.06.03.119.07.159.11.101.1.151.23.151.36 0 .13-.05.26-.151.35-.04.05-.099.08-.159.11-.061.02-.12.04-.19.04-.06 0-.13-.02-.191-.04-.059-.03-.119-.06-.159-.11-.101-.09-.15-.22-.15-.35 0-.13.049-.26.15-.36.04-.04.1-.08.159-.11.12-.05.261-.05.381 0zm-.1904-29.0298c.276 0 .5.224.5.5l0 18c0 .276-.224.5-.5.5-.276 0-.5-.224-.5-.5l0-18c0-.276.224-.5.5-.5z" fill="#000" fill-rule="evenodd"/></svg>