<?xml version="1.0" encoding="utf-8"?>
<!-- Generator: Adobe Illustrator 23.0.2, SVG Export Plug-In . SVG Version: 6.00 Build 0)  -->
<svg version="1.1" id="Layer_1" xmlns="http://www.w3.org/2000/svg" xmlns:xlink="http://www.w3.org/1999/xlink" x="0px" y="0px"
	 viewBox="0 0 16 16" style="enable-background:new 0 0 16 16;" xml:space="preserve">
<style type="text/css">
	.st0{fill-rule:evenodd;clip-rule:evenodd;fill:#121212;}
</style>
<g>
	<path class="st0" d="M15.7,12.2L9.6,1.9c0,0,0,0,0,0C9.3,1.3,8.7,1,8,1C7.3,1,6.7,1.3,6.4,1.9L0.3,12.2c-0.3,0.6-0.3,1.2,0,1.8
		C0.6,14.6,1.2,15,1.9,15h12.3c0.7,0,1.3-0.4,1.6-0.9C16.1,13.5,16.1,12.8,15.7,12.2z M14.9,13.6c-0.2,0.3-0.4,0.4-0.7,0.4H1.9
		c-0.3,0-0.6-0.2-0.7-0.4C1,13.3,1,13,1.1,12.7L7.3,2.4C7.4,2.2,7.7,2,8,2s0.6,0.2,0.7,0.4l0.1,0.2l6,10.1C15,13,15,13.3,14.9,13.6z
		"/>
	<path class="st0" d="M8,6C7.7,6,7.5,6.2,7.5,6.5v3C7.5,9.8,7.7,10,8,10c0.3,0,0.5-0.2,0.5-0.5v-3C8.5,6.2,8.3,6,8,6z"/>
	<circle class="st0" cx="8" cy="11.5" r="0.5"/>
</g>
</svg>
