<svg width="100" height="100" viewBox="0 0 100 100" xmlns="http://www.w3.org/2000/svg"><title>alerts-and-notifications/warning_100</title><path d="M96.7684 78.7417c1.62 2.738 1.646 6.023.071 8.787-1.598 2.799-4.487 4.471-7.731 4.471l-78.215 0c-3.243 0-6.133-1.672-7.73-4.471-1.576-2.764-1.549-6.049.071-8.788l39.107-66.39c1.611-2.724 4.475-4.351 7.66-4.351 3.185 0 6.049 1.627 7.659 4.351.001 0 .001 0 .001 0l39.107 66.391zm-.798 8.291c1.396-2.447 1.373-5.357-.062-7.783l-39.108-66.391 0 .001c-1.43-2.417-3.971-3.86-6.799-3.86-2.828 0-5.37 1.443-6.8 3.86l-39.106 66.39c-1.436 2.426-1.459 5.336-.063 7.783 1.417 2.484 3.981 3.967 6.861 3.967l78.215 0c2.88 0 5.445-1.483 6.862-3.967zM50.0012 60c-.276 0-.5-.224-.5-.5l0-26c0-.276.224-.5.5-.5.276 0 .5.224.5.5l0 26c0 .276-.224.5-.5.5zm0 14c.552 0 1 .448 1 1 0 .552-.448 1-1 1-.552 0-1-.448-1-1 0-.552.448-1 1-1z" fill-rule="evenodd"/></svg>