<?xml version="1.0" encoding="utf-8"?>
<!-- Generator: Adobe Illustrator 23.0.2, SVG Export Plug-In . SVG Version: 6.00 Build 0)  -->
<svg version="1.1" id="Layer_1" xmlns="http://www.w3.org/2000/svg" xmlns:xlink="http://www.w3.org/1999/xlink" x="0px" y="0px"
	 viewBox="0 0 12 12" style="enable-background:new 0 0 12 12;" xml:space="preserve">
<style type="text/css">
	.st0{fill-rule:evenodd;clip-rule:evenodd;fill:#121212;}
</style>
<g>
	<path class="st0" d="M11.8,8.8L7.3,1.7C7,1.3,6.5,1,6,1h0C5.5,1,5,1.3,4.7,1.7L0.2,8.8c-0.3,0.4-0.3,1,0,1.4
		C0.4,10.7,0.9,11,1.4,11h9.1c0.5,0,1-0.3,1.3-0.7C12.1,9.8,12.1,9.3,11.8,8.8z M10.9,9.8c0,0.1-0.1,0.2-0.4,0.2H1.4
		c-0.2,0-0.3-0.2-0.4-0.2C1,9.7,1,9.5,1.1,9.4l4.5-7.2C5.7,2.1,5.8,2,6,2h0c0.2,0,0.3,0.1,0.4,0.2l4.5,7.2C11,9.5,11,9.7,10.9,9.8z"
		/>
	<path class="st0" d="M6,4C5.7,4,5.5,4.2,5.5,4.5v2C5.5,6.8,5.7,7,6,7s0.5-0.2,0.5-0.5v-2C6.5,4.2,6.3,4,6,4z"/>
	<circle class="st0" cx="6" cy="8.5" r="0.5"/>
</g>
</svg>
