<svg width="32" height="32" viewBox="0 0 32 32" xmlns="http://www.w3.org/2000/svg"><title>alerts-and-notifications/warning_32</title><path d="M31.5643083 25.184c.5829152 1.015.5809154 2.226-.0059992 3.24-.5709169.987-1.5847694 1.576-2.7106056 1.576L4.15229649 30c-1.1258362 0-2.13968869-.589-2.710605624-1.576-.586914609-1.014-.588914318-2.225-.005999128-3.241L13.7838952 3.588C14.3538123 2.593 15.3696645 2 16.5004999 2c1.1308355 0 2.1456878.593 2.7156049 1.587l0 .001 12.3482035 21.596zm-.8708733 2.739c.4049411-.701.4069408-1.539.0039994-2.242L18.349231 4.085C17.9602875 3.405 17.2683882 3 16.5004999 3c-.7688881 0-1.4597876.405-1.8497309 1.085L2.30256562 25.68c-.40294138.704-.400941671 1.542.00399941 2.243C2.69750815 28.598 3.38740778 29 4.15229649 29l24.69540701 0c.7648887 0 1.4547883-.402 1.8457315-1.077zM16.5003 20c-.2739602 0-.4959279-.2286002-.4959279-.510574l0-8.97985903c0-.28197382.2219677-.50956697.4959279-.50956697.2739601 0 .4959278.22759315.4959278.50956697l0 8.97985903c0 .2819738-.2219677.510574-.4959278.510574zm-.3536486 3.1387111c.1889725-.1799708.5169248-.1898593.7048975 0 .088987.0998739.1489783.2205137.1489783.351042 0 .1394279-.0599913.2600677-.1489783.3599416-.089987.0899854-.2189682.1503053-.3469496.1503053-.1399796 0-.2579624-.0603199-.3579479-.1503053-.088987-.0899854-.1479785-.2205137-.1479785-.3599416 0-.1305283.0589915-.2610566.1479785-.351042z" fill="#000" fill-rule="evenodd"/></svg>