<svg width="20" height="20" viewBox="0 0 20 20" xmlns="http://www.w3.org/2000/svg"><title>alerts-and-notifications/warning_20</title><path d="M18.8505232 17.439c-.211.351-.597.561-1.032.561l-15.637 0c-.435 0-.821-.21-1.031-.56-.200999999-.336-.199999999-.72.023-1.084l7.8-13.804c.211-.345.595-.552 1.025-.552l.001 0c.422 0 .8.198 1.015.531l7.831 13.858c.203.332.205.715.005 1.05m.847-1.574c.4.652.403 1.432.01 2.089-.392.654-1.099 1.046-1.889 1.046l-15.637 0c-.79 0-1.496999999-.392-1.889999999-1.046-.392-.657-.3890000001-1.437.011-2.09L8.1205232 2.03c.395-.645 1.098-1.029 1.878-1.03l.001 0c.781 0 1.484.384 1.88 1.029l0 .001 7.818 13.835zm-9.3675-.7234c-.18-.189-.52-.189-.71 0-.04.04-.08.101-.1.16-.03.06-.04.13-.04.191 0 .129.05.259.14.349.101.1.22.151.36.151.13 0 .25-.051.35-.151.101-.09.15-.22.15-.349 0-.061-.02-.131-.04-.191-.03-.059-.06-.12-.11-.16zm-.3526-2.1421c.276 0 .5-.224.5-.5l0-5c0-.276-.224-.5-.5-.5-.276 0-.5.224-.5.5l0 5c0 .276.224.5.5.5z" fill="#000" fill-rule="evenodd"/></svg>