<svg width="100" height="100" viewBox="0 0 100 100" xmlns="http://www.w3.org/2000/svg"><title>alerts-and-notifications/warning_100</title><path d="M96.7658 78.7421c1.62 2.738 1.646 6.023.071 8.787-1.597 2.799-4.486 4.471-7.73 4.471l-78.214 0c-3.242 0-6.133-1.672-7.73-4.471-1.576-2.764-1.548-6.049.072-8.788l39.105-66.39c1.611-2.724 4.476-4.351 7.66-4.351 3.186 0 6.049 1.627 7.659 4.351l.001 0 39.106 66.391zm-.797 8.291c1.395-2.448 1.371-5.357-.063-7.782l-39.107-66.393c-1.429-2.415-3.971-3.858-6.799-3.858-2.828 0-5.369 1.443-6.799 3.86l-39.105 66.388c-1.436 2.428-1.459 5.338-.064 7.785 1.417 2.484 3.982 3.967 6.861 3.967l78.214 0c2.879 0 5.444-1.483 6.862-3.967zM50.001 60.0004c-.276 0-.5-.224-.5-.5l0-26c0-.276.224-.5.5-.5.276 0 .5.224.5.5l0 26c0 .276-.224.5-.5.5zm0 14c.552 0 1 .448 1 1 0 .552-.448 1-1 1-.552 0-1-.448-1-1 0-.552.448-1 1-1z" fill="#000" fill-rule="evenodd"/></svg>