<svg width="72" height="72" viewBox="0 0 72 72" xmlns="http://www.w3.org/2000/svg"><title>alerts-and-notifications/warning_72</title><path d="M65.3171 67l-57.632 0c-2.442 0-4.616-1.257-5.816-3.363-1.179-2.071-1.158-4.532.059-6.582l28.815-48.793C31.9551 6.219 34.1071 5 36.5011 5c2.394 0 4.546 1.219 5.757 3.262 0 0 0 0 .001 0l28.816 48.793c1.216 2.05 1.237 4.511.058 6.582-1.2 2.106-3.374 3.363-5.816 3.363zM36.5011 6c-2.037 0-3.868 1.036-4.897 2.771L2.7891 57.564c-1.032 1.738-1.05 3.824-.051 5.579C3.7571 64.932 5.6071 66 7.6851 66l57.632 0c2.078 0 3.928-1.068 4.947-2.857.999-1.755.981-3.841-.05-5.579L41.3971 8.771l.001 0C40.3691 7.036 38.5381 6 36.5011 6zm0 37.0171c-.276 0-.5-.224-.5-.5l0-18c0-.276.224-.5.5-.5.276 0 .5.224.5.5l0 18c0 .276-.224.5-.5.5zm0 11c-.06 0-.13-.02-.19-.04-.06-.03-.12-.06-.16-.11-.1-.09-.15-.22-.15-.35 0-.13.05-.26.15-.36.04-.04.1-.08.16-.11.12-.05.26-.05.38 0 .06.03.12.07.16.11.1.1.15.23.15.36 0 .13-.05.26-.15.35-.04.05-.1.08-.16.11-.06.02-.12.04-.19.04z" fill="#000" fill-rule="evenodd"/></svg>