<svg width="16" height="16" viewBox="0 0 16 16" xmlns="http://www.w3.org/2000/svg"><title>alerts-and-notifications/warning_16</title><path d="M8.49951117 3c-.26699655 0-.50499347.131-.63799175.352l-5.76092548 9.597c-.129998322.216-.13399827.464-.01199985.681.13099831.232.37299518.37.64799162.37l11.52685089 0c.2739965 0 .5159933-.138.6469916-.369.1229985-.218.1189985-.466-.0099998-.681L9.13750292 3.352C9.00450464 3.131 8.76650772 3 8.49951117 3zm5.76361813 12L2.73725559 15c-.63993746 0-1.208881864-.328-1.517851671-.878-.3009705894-.533-.2919714688-1.164.024997557-1.688L7.00583846 2.836C7.32180759 2.312 7.88075297 2 8.49969248 2c.61893952 0 1.1778849.312 1.49285412.835.0009999 0 .0009999 0 .0009999.001l5.7634368 9.599c.3149692.523.3249682 1.155.0229977 1.688-.3089698.549-.8769143.877-1.5168517.877zM9 11.5c0-.276-.224-.5-.5-.5-.276 0-.5.224-.5.5 0 .276.224.5.5.5.276 0 .5-.224.5-.5zM8.5 6c-.275 0-.5.225-.5.5l0 3c0 .275.225.5.5.5.275 0 .5-.225.5-.5l0-3c0-.275-.225-.5-.5-.5z" fill="#000" fill-rule="evenodd"/></svg>