<svg width="16" height="16" viewBox="0 0 16 16" xmlns="http://www.w3.org/2000/svg"><title>hardware/webex-share_16</title><path d="M14.7397374 11.148c.862 2.072-.515 4.382-2.754 4.633-1.15500004.129-2.40500004.212-3.73900004.219-.061 0-.123 0-.184 0-1.464 0-2.829-.091-4.078-.237-2.192999996-.256-3.550999996-2.506-2.754999996-4.558.425-1.096.965999996-2.272 1.658999996-3.487.733-1.284 1.516-2.405 2.288-3.371.239-.3.523-.531.823-.73l0-2.117c0-.827.673-1.5 1.5-1.5l1 0c.827 0 1.5.673 1.5 1.5l0 2.143c.308.209.598.452.84.766.74300004.966 1.49500004 2.067 2.21100004 3.309.684 1.191 1.239 2.346 1.689 3.43zm-1.068 2.479c.379-.643.432-1.407.146-2.096-.472-1.134-1.022-2.249-1.634-3.314-.638-1.108-1.35700004-2.184-2.13700004-3.198-.498-.648-1.251-1.019-2.067-1.019-.791 0-1.529.354-2.022.971-.814 1.02-1.555 2.111-2.2 3.243-.611 1.073-1.149 2.201-1.596 3.352-.265999996.686-.200999996 1.442.179 2.072.382.634 1.023 1.046 1.76 1.132 1.31.152 2.643.23 3.962.23l.179 0c1.208-.007 2.431-.078 3.63300004-.213.757-.085 1.412-.508 1.797-1.16zM6.99973736 1.5l0 1.652c.321-.09.649-.152.98-.152.345 0 .686.067 1.02.166l0-1.666c0-.276-.224-.5-.5-.5l-1 0c-.275 0-.5.224-.5.5zM8 7c1.6545 0 3 1.3455 3 3 0 1.6545-1.3455 3-3 3-1.6545 0-3-1.3455-3-3 0-1.6545 1.3455-3 3-3zm0 5c1.104 0 2-.898 2-2 0-1.102-.896-2-2-2-1.104 0-2 .898-2 2 0 1.102.896 2 2 2z" fill-rule="evenodd"/></svg>