<svg width="16" height="16" viewBox="0 0 16 16" xmlns="http://www.w3.org/2000/svg"><title>meetings/webex-meetings_16</title><path d="M12.9494 12.9494c-1.321 1.322-3.079 2.051-4.949 2.051-1.41 0-2.755-.417-3.899-1.188l.003 0c-.221-.149-.433-.313-.636-.486-.03-.025-.059-.052-.088-.078-.129-.114-.25-.237-.37-.36-.338-.393-.332-.982.04-1.353.189-.189.44-.293.707-.293.267 0 .518.103.707.292.906.907 2.195 1.428 3.536 1.428 1.34 0 2.629-.521 3.535-1.427.944-.945 1.465-2.2 1.465-3.535 0-.926-.265-1.805-.733-2.577 0-.002.001-.004.002-.005-.005-.007-.011-.013-.015-.02-.145-.237-.316-.458-.502-.671-.044-.05-.081-.105-.126-.153-.033-.035-.057-.076-.091-.11-.189-.189-.293-.44-.293-.707 0-.267.104-.518.294-.707.188-.189.439-.293.706-.293.268 0 .519.104.707.293 1.322 1.322 2.051 3.08 2.051 4.95 0 1.869-.729 3.627-2.051 4.949m-7.949-2.449c-.006 0-.042-.001-.089-.002-.559-.686-.911-1.546-.911-2.498 0-2.206 1.794-4 4-4 .948 0 1.813.34 2.499.894 0 .049.001.093.001.106 0 3.032-2.468 5.5-5.5 5.5m6.413-4.568c.012.02.021.043.034.063.134.234.242.484.329.743.034.11.076.217.103.33.01.045.03.087.04.131.052.259.081.527.081.801 0 .274-.029.541-.081.8-.01.046-.031.089-.042.136-.051.211-.108.42-.191.616-.012.028-.031.053-.044.081-.094.209-.199.413-.326.601-.003.004-.006.007-.009.01-.166.245-.365.463-.581.665-.746.695-1.733 1.053-2.726 1.053-.485 0-.967-.089-1.421-.256-.176-.068-.347-.153-.513-.245-.029-.015-.06-.027-.089-.043 2.815-.427 5.026-2.667 5.436-5.486m-9.07 4.896c-.186.185-.324.399-.421.626-.583-1.02-.922-2.197-.922-3.454 0-3.86 3.14-7 7-7 1.254 0 2.42.349 3.438.93-.22.098-.429.232-.61.413-.344.344-.527.783-.568 1.232-.68-.355-1.439-.575-2.26-.575-2.762 0-5 2.238-5 5 0 .82.211 1.583.567 2.26-.447.043-.882.226-1.224.568m11.314-8.485c-.012-.012-.026-.019-.038-.031l.004 0c-1.445-1.429-3.431-2.312-5.623-2.312-4.419 0-8 3.581-8 8 0 2.141.853 4.075 2.224 5.511.039.046.071.096.114.14.002.001.003.003.005.005.053.054.112.1.167.152.001.001.002.003.004.004 1.491 1.408 3.427 2.188 5.486 2.188 2.136 0 4.146-.832 5.657-2.344 1.511-1.511 2.343-3.52 2.343-5.656 0-2.137-.832-4.146-2.343-5.657" fill="#000" fill-rule="evenodd"/></svg>