<svg width="10" height="10" viewBox="0 0 10 10" xmlns="http://www.w3.org/2000/svg"><title>meetings/webex_10</title><path d="M5 9c-.557 0-1.087-.115-1.569-.322 2.506-1.016 4.187-3.381 4.187-6.061 0-.221-.027-.439-.05-.658C8.436 2.693 9 3.776 9 5c0 2.206-1.794 4-4 4M1 5c0-2.206 1.794-4 4-4 .507 0 .987.104 1.434.277.113.438.184.885.184 1.34 0 2.504-1.745 4.688-4.254 5.367C1.534 7.252 1 6.191 1 5m4-5C2.243 0 0 2.243 0 5c0 2.757 2.243 5 5 5 2.757 0 5-2.243 5-5 0-2.757-2.243-5-5-5" fill-rule="evenodd"/></svg>