<svg width="16" height="16" viewBox="0 0 16 16" xmlns="http://www.w3.org/2000/svg"><title>meetings/webex-teams_16</title><path d="M14.8709 9.3369c-.427 2.219-1.893 4.082-3.922 5.018.056-.247.068-.506.023-.77-.08-.471-.321-.872-.654-1.165 1.267-.66 2.186-1.835 2.525-3.237.092-.382.157-.774.157-1.183 0-.126-.005-.252-.014-.377l0-.001c-.02-.266.065-.524.239-.726.174-.204.417-.326.685-.346.026-.002.053-.003.078-.003.518 0 .953.406.992.926l0 .002c.013.174.02.348.02.525 0 .457-.046.903-.129 1.337m-5.704 5.566l-.001 0c-.382.065-.774.097-1.166.097-.235 0-.469-.014-.701-.037-1.085-.109-2.122-.479-3.036-1.057-.528-.333-1.016-.729-1.442-1.197-.001-.001-.002-.002-.002-.003-.179-.197-.271-.453-.259-.72.013-.267.129-.512.327-.692.184-.167.422-.26.671-.26.287 0 .549.116.741.327.001 0 .001.001.001.001.351.387.768.714 1.227.973.536.302 1.131.503 1.741.598.251.039.503.065.757.065.273 0 .545-.022.807-.067l.002 0c.056-.009.11-.014.165-.014.49 0 .905.351.986.834.092.543-.276 1.06-.818 1.152m-7.407-3.736c-.494-.973-.76-2.055-.76-3.167 0-1.075.248-2.125.713-3.075.111.224.264.432.464.607.359.318.801.477 1.246.493-.268.621-.423 1.288-.423 1.975 0 .715.168 1.405.455 2.044-.444.022-.885.187-1.24.51-.198.179-.347.387-.455.613m.99-7.796l0-.001c0 0 .001 0 .001-.001.42-.474.902-.878 1.423-1.219.934-.611 2.003-1 3.125-1.113.231-.023.466-.037.701-.037.392 0 .784.032 1.165.097.001 0 .002.001.002.001.263.045.492.188.646.405.156.218.216.482.172.746-.081.484-.495.835-.984.835-.056 0-.11-.005-.166-.014 0-.001-.001-.001-.002-.001-.264-.044-.534-.066-.806-.066-.254 0-.507.026-.758.065-.636.099-1.252.313-1.806.635-.454.266-.867.599-1.214.991-.19.215-.463.338-.75.338-.243 0-.479-.089-.66-.249-.414-.366-.454-.999-.089-1.412m2.25 7.129c-.031 0-.059.013-.089.019-.581-.712-.911-1.594-.911-2.519 0-.975.355-1.914.999-2.644.766-.867 1.897-1.353 3.028-1.353.215 0 .429.017.64.053l.002 0c.701.118 1.331.415 1.852.838-.007.035-.021.068-.021.106 0 3.033-2.468 5.5-5.5 5.5m6.415-4.575c.318.524.525 1.124.573 1.77 0 .001.001.002.001.003.007.1.011.201.011.302 0 1.962-1.4 3.621-3.33 3.944l-.002 0c-.212.037-.428.054-.643.054-.716 0-1.425-.215-2.05-.579 2.819-.428 5.033-2.671 5.44-5.494m-.462-4.251c1.692.787 2.99 2.211 3.617 3.97-.185-.058-.379-.097-.582-.097-.052 0-.103.002-.155.006-.475.036-.892.241-1.214.544-.444-1.085-1.256-1.978-2.296-2.521.331-.292.569-.692.649-1.161.043-.254.031-.503-.019-.741m5.024 5.731l0-.006c-.274-3.68-3.005-6.674-6.641-7.288-.001 0-.003-.001-.005-.001-.437-.073-.884-.11-1.331-.11-2.294 0-4.481.987-6 2.709-1.29 1.462-2 3.341-2 5.291 0 1.994.738 3.905 2.079 5.38.002.002.004.003.005.004 1.513 1.663 3.669 2.616 5.916 2.616.446 0 .894-.037 1.331-.11.001 0 .003-.001.004-.001 3.862-.65 6.665-3.967 6.665-7.889 0-.2-.008-.398-.023-.595" fill="#000" fill-rule="evenodd"/></svg>