<svg width="20" height="20" viewBox="0 0 20 20" fill="none" xmlns="http://www.w3.org/2000/svg">
<path fill-rule="evenodd" clip-rule="evenodd" d="M2 4H18C19.104 4 20 4.896 20 6V10C20 11.104 19.104 12 18 12H15V14C15 15.1025 14.103 16 13 16H7C5.897 16 5 15.1025 5 14V12H2C0.896 12 0 11.104 0 10V6C0 4.896 0.896 4 2 4ZM13 15C13.5513 15 14 14.5518 14 14V12H6V14C6 14.5518 6.4487 15 7 15H13ZM18 11C18.552 11 19 10.551 19 10V6C19 5.449 18.552 5 18 5H2C1.448 5 1 5.449 1 6V10C1 10.551 1.448 11 2 11H5.5H14.5H18ZM9.5 7.5H10.5C10.775 7.5 11 7.725 11 8C11 8.275 10.775 8.5 10.5 8.5H9.5C9.225 8.5 9 8.275 9 8C9 7.725 9.225 7.5 9.5 7.5Z" fill="#121212"/>
</svg>
