<svg width="48" height="48" viewBox="0 0 48 48" xmlns="http://www.w3.org/2000/svg"><title>meetings/webex-meetings_48</title><path d="M24 47c-4.855 0-9.362-1.517-13.078-4.096 14.546-3.953 24.637-16.698 24.637-31.28 0-2.744-.377-5.455-1.08-8.088C41.905 7.354 47 15.091 47 24c0 12.683-10.318 23-23 23M1 24C1 11.317 11.318 1 24 1c3.305 0 6.446.706 9.289 1.967.835 2.804 1.27 5.713 1.27 8.657 0 14.385-10.142 26.934-24.666 30.522C4.487 37.934 1 31.369 1 24M24 0C10.767 0 0 10.767 0 24c0 13.233 10.767 24 24 24 13.233 0 24-10.767 24-24C48 10.767 37.233 0 24 0" fill="#000" fill-rule="evenodd"/></svg>