<svg width="16" height="16" viewBox="0 0 16 16" xmlns="http://www.w3.org/2000/svg"><title>meetings/webex-instant-meeting_16</title><path d="M13.9999-.0001c1.103 0 2 .897 2 2l0 11.995c0 1.104-.897 2-2 2l-12 0c-1.103 0-2-.896-2-2l0-11.995c0-1.103.897-2 2-2l12 0zm1 13.995l0-11.995c0-.551-.449-1-1-1l-12 0c-.551 0-1 .449-1 1l0 11.995c0 .552.449 1 1 1l12 0c.551 0 1-.448 1-1zm-7-10.9952c2.757 0 5 2.243 5 5 0 2.757-2.243 5-5 5-2.757 0-5-2.243-5-5 0-2.757 2.243-5 5-5zm0 9c2.206 0 4-1.794 4-4 0-1.223-.564-2.306-1.432-3.041.023.219.05.437.05.659 0 2.68-1.681 5.044-4.186 6.061.482.206 1.011.321 1.568.321zm-4-4c0 1.192.535 2.252 1.364 2.985 2.51-.68 4.254-2.862 4.254-5.367 0-.455-.071-.903-.184-1.341-.447-.173-.927-.277-1.434-.277-2.206 0-4 1.795-4 4z" fill="#000" fill-rule="evenodd"/></svg>