<svg width="16" height="16" viewBox="0 0 16 16" xmlns="http://www.w3.org/2000/svg"><title>meetings/webex-meetings_16</title><path d="M8 15c-1.248 0-2.418-.332-3.434-.907 4.436-1.468 7.463-5.489 7.463-10.064 0-.629-.064-1.254-.177-1.868C13.746 3.415 15 5.562 15 8c0 3.859-3.14 7-7 7M1 8c0-3.859 3.14-7 7-7 .946 0 1.847.191 2.671.532.227.813.358 1.649.358 2.497 0 4.39-3.091 8.221-7.522 9.331C1.976 12.074 1 10.15 1 8m7-8C3.589 0 0 3.589 0 8c0 4.411 3.589 8 8 8 4.411 0 8-3.589 8-8 0-4.411-3.589-8-8-8" fill="#000" fill-rule="evenodd"/></svg>