<svg width="20" height="20" viewBox="0 0 20 20" xmlns="http://www.w3.org/2000/svg"><title>meetings/webex-meetings_20</title><path d="M10 19c-1.714 0-3.313-.49-4.677-1.326 5.718-1.762 9.648-6.871 9.648-12.703 0-.89-.098-1.771-.279-2.637C17.271 3.919 19 6.758 19 10c0 4.962-4.038 9-9 9m-9-9c0-4.962 4.038-9 9-9 1.244 0 2.43.254 3.509.713.302 1.058.462 2.151.462 3.258 0 5.637-3.98 10.556-9.679 11.962l.006.024C2.287 15.305 1 12.8 1 10m9-10C4.486 0 0 4.486 0 10c0 5.514 4.486 10 10 10 5.514 0 10-4.486 10-10 0-5.514-4.486-10-10-10" fill="#000" fill-rule="evenodd"/></svg>