<svg width="10" height="10" viewBox="0 0 10 10" xmlns="http://www.w3.org/2000/svg"><title>meetings/webex-meetings_10</title><path d="M5 9.0002c-.57 0-1.11-.124-1.602-.34-.455-.2-.867-.479-1.215-.825-.004-.003-.008-.003-.012-.007-.003-.004-.003-.008-.006-.012-.118-.124-.14-.266-.14-.341 0-.078.019-.226.146-.354.128-.127.277-.146.354-.146.078 0 .226.019.353.146l.001 0c.302.303.673.531 1.082.683.325.12.672.196 1.039.196 1.657 0 3-1.343 3-3 0-.367-.075-.714-.196-1.039-.151-.409-.38-.78-.682-1.082 0-.001 0-.001-.001-.001-.195-.195-.195-.512 0-.707.128-.127.276-.146.354-.146.075 0 .217.022.342.139.004.004.008.003.012.007.003.004.003.008.006.012.346.348.625.76.825 1.215.216.492.34 1.032.34 1.602 0 2.206-1.794 4-4 4m-3.66-2.398c-.216-.492-.34-1.032-.34-1.602 0-2.206 1.794-4 4-4 .57 0 1.11.124 1.602.34-.061.045-.132.069-.188.124-.207.208-.314.465-.375.732-.325-.121-.672-.196-1.039-.196-1.657 0-3 1.343-3 3 0 .367.075.714.196 1.039-.267.06-.524.168-.732.375-.055.055-.079.126-.124.188m1.965-.627c-.014 0-.028-.004-.043-.005-.162-.288-.262-.616-.262-.97 0-1.103.897-2 2-2 .354 0 .682.1.971.262 0 .015.004.028.004.043 0 1.472-1.198 2.67-2.67 2.67m3.539-1.748c.1.237.156.499.156.773 0 1.103-.897 2-2 2-.274 0-.535-.056-.773-.156 1.281-.334 2.283-1.336 2.617-2.617m1.692-2.763C7.631.5602 6.381.0002 5 .0002c-2.761 0-5 2.238-5 5 0 1.38.56 2.63 1.464 3.535.905.905 2.155 1.465 3.536 1.465 2.761 0 5-2.239 5-5 0-1.381-.56-2.631-1.464-3.536" fill="#000" fill-rule="evenodd"/></svg>