<svg width="24" height="24" viewBox="0 0 24 24" xmlns="http://www.w3.org/2000/svg"><title>meetings/webex-meetings_24</title><path d="M12.0003 23.0002c-.376 0-.748-.02-1.114-.057-.058-.005-.114-.018-.171-.025-.313-.036-.623-.08-.927-.142-.013-.002-.024-.006-.037-.009-2.17-.453-4.105-1.548-5.602-3.076-.234-.272-.367-.61-.367-.973 0-.401.155-.778.439-1.061.283-.283.66-.439 1.06-.439.402 0 .779.156 1.062.439 1.511 1.51 3.519 2.343 5.657 2.343 4.411 0 8-3.589 8-8 0-2.137-.832-4.146-2.344-5.657-.584-.586-.584-1.537.001-2.122.283-.283.659-.439 1.06-.439.363 0 .703.134.975.369 1.527 1.496 2.622 3.431 3.075 5.6.003.013.006.025.009.038.063.303.106.614.142.926.007.057.02.113.025.171.037.366.057.738.057 1.114 0 6.065-4.935 11-11 11m4.427-15.793c0 5.043-4.104 9.147-9.148 9.147-.258 0-.514-.015-.768-.039-.941-1.19-1.511-2.684-1.511-4.315 0-3.86 3.14-7 7-7 1.668 0 3.197.59 4.399 1.568.017.211.028.424.028.639m-8.932 10.136c5.372-.114 9.707-4.395 9.912-9.744.652.801 1.145 1.736 1.394 2.772l.001 0c.126.528.198 1.072.198 1.629 0 3.86-3.141 7-7 7-1.361 0-2.66-.39-3.778-1.11l.006-.003c-.257-.165-.5-.348-.733-.544m-3.981-.393c-.327.327-.535.724-.642 1.141-.682-1.013-1.197-2.145-1.514-3.355-.03-.115-.063-.229-.089-.346-.034-.148-.06-.3-.087-.451-.036-.195-.067-.391-.091-.59-.015-.118-.03-.236-.041-.355-.029-.328-.05-.659-.05-.994 0-6.065 4.935-11 11-11 .335 0 .666.021.994.05.119.011.236.027.355.041.199.025.395.055.591.091.151.027.301.053.45.087.119.026.234.061.351.091 1.209.317 2.34.831 3.352 1.511-.418.108-.816.316-1.143.643-.472.472-.711 1.086-.726 1.704-1.227-.768-2.671-1.218-4.224-1.218-4.419 0-8 3.582-8 8 0 1.553.448 2.998 1.215 4.224-.617.017-1.23.255-1.701.726m8.486-16.95c-6.628 0-12 5.373-12 12 0 6.627 5.372 12 12 12 6.627 0 12-5.373 12-12 0-6.627-5.373-12-12-12" fill="#000" fill-rule="evenodd"/></svg>