<svg width="48" height="48" viewBox="0 0 48 48" xmlns="http://www.w3.org/2000/svg"><title>meetings/webex-meetings_48</title><path d="M1.0002 24.0002c0-12.683 10.317-23 23-23 5.239 0 10.073 1.765 13.944 4.726-.051-.001-.102-.015-.155-.015-1.151 0-2.303.44-3.182 1.318-1.093 1.093-1.504 2.608-1.238 4.02-2.636-1.91-5.866-3.049-9.369-3.049-8.837 0-16 7.163-16 16 0 3.503 1.139 6.733 3.049 9.369-.277-.052-.558-.08-.838-.08-1.152 0-2.304.439-3.182 1.317-.919.918-1.344 2.135-1.303 3.338-2.961-3.872-4.726-8.705-4.726-13.944m33.042-9.095c0 10.529-8.565 19.095-19.095 19.095-.761 0-1.506-.068-2.242-.161-2.3-2.637-3.705-6.073-3.705-9.839 0-8.271 6.729-15 15-15 3.79 0 7.246 1.424 9.89 3.751.087.708.152 1.422.152 2.154m2.396.721c.208.306.393.626.577.948.063.11.134.217.194.329.138.255.256.521.379.784.089.192.185.38.267.575.08.193.143.393.215.591.101.273.205.546.288.824.038.122.063.25.097.373.097.357.191.713.262 1.075.006.03.008.062.013.092.344 1.832.344 3.716.003 5.549-.006.036-.009.074-.016.11-.07.355-.163.707-.258 1.057-.035.13-.063.263-.102.392-.081.272-.183.537-.28.804-.074.204-.141.413-.224.613-.078.186-.171.367-.256.551-.126.271-.247.545-.389.807-.056.104-.122.202-.18.305-.188.33-.38.658-.591.972-.008.013-.019.024-.027.037-1.063 1.564-2.415 2.915-3.976 3.981-.02.014-.039.03-.059.043-.308.208-.63.395-.954.58-.108.062-.214.132-.323.191-.256.138-.524.257-.787.38-.192.088-.379.185-.573.265-.193.08-.394.145-.592.217-.273.099-.545.204-.824.287-.122.038-.248.063-.372.097-.356.096-.714.191-1.076.262-.027.005-.057.007-.084.012-.921.174-1.855.264-2.79.264-.935 0-1.869-.09-2.79-.264-.028-.005-.057-.007-.084-.012-.362-.071-.72-.166-1.077-.262-.123-.034-.25-.059-.372-.097-.278-.083-.55-.188-.823-.287-.198-.072-.399-.137-.592-.217-.195-.08-.382-.177-.573-.265-.264-.123-.531-.242-.787-.38-.11-.059-.214-.129-.324-.191-.323-.185-.645-.372-.953-.58-.02-.013-.039-.029-.059-.043-.638-.436-1.232-.928-1.795-1.455.391.024.779.06 1.176.06 11.098 0 20.095-8.997 20.095-20.095 0-.365-.035-.722-.055-1.082.505.544.98 1.117 1.4 1.732.016.024.036.047.051.071m2.468 25.868c-.238.203-.48.402-.726.595-.343.269-.692.528-1.047.777-.262.182-.528.359-.797.531-.383.243-.77.478-1.164.697-.238.133-.48.26-.723.385-.489.25-.982.489-1.488.703-.141.059-.284.112-.426.169-.583.232-1.172.45-1.773.633-.057.017-.115.032-.171.049-2.111.626-4.325.956-6.591.956-2.266 0-4.478-.33-6.588-.955-.057-.018-.117-.033-.175-.05-.6-.184-1.188-.401-1.77-.632-.144-.058-.289-.111-.432-.172-.503-.212-.995-.452-1.482-.701-.244-.125-.488-.252-.726-.385-.394-.22-.781-.454-1.164-.698-.267-.17-.532-.346-.792-.527-.358-.25-.71-.512-1.055-.784-.242-.19-.48-.384-.714-.584-.356-.303-.704-.618-1.042-.944-.14-.136-.282-.27-.418-.409-.596-.647-.931-1.475-.931-2.359 0-.935.364-1.814 1.025-2.476.66-.661 1.539-1.024 2.475-1.024.935 0 1.813.363 2.475 1.024.084.085.176.157.262.239.288.276.578.549.886.802.269.223.553.421.834.625.136.097.264.205.402.298.312.21.636.396.959.583.124.071.242.152.367.22.302.163.615.303.926.446.163.075.322.161.489.23.248.104.502.186.755.277.246.089.487.186.738.263.147.045.301.075.45.116 1.354.373 2.773.588 4.246.588 1.472 0 2.892-.215 4.245-.588.151-.041.303-.071.451-.116.252-.077.494-.175.741-.264.251-.091.505-.172.751-.275.169-.071.33-.157.496-.234.308-.142.619-.281.919-.443.126-.068.244-.149.368-.221.324-.186.647-.372.959-.582.136-.092.263-.199.398-.296.282-.203.568-.403.838-.627.302-.248.585-.517.867-.786.092-.088.192-.165.281-.255.041-.041.076-.086.117-.128.327-.335.644-.68.941-1.042.145-.177.271-.363.406-.544.18-.239.365-.474.532-.723.127-.191.237-.39.355-.586.155-.255.315-.506.455-.77.092-.173.169-.352.254-.527.147-.3.294-.599.421-.91.055-.133.098-.27.148-.404.137-.359.27-.72.381-1.092.024-.077.038-.156.061-.234.391-1.386.615-2.842.615-4.353 0-1.518-.226-2.98-.62-4.371-.02-.071-.034-.144-.055-.214-.113-.379-.249-.747-.388-1.113-.048-.127-.089-.257-.14-.383-.131-.317-.282-.624-.433-.932-.081-.168-.154-.339-.242-.504-.145-.273-.309-.533-.47-.796-.114-.187-.218-.378-.341-.561-.174-.261-.368-.508-.557-.758-.128-.169-.244-.344-.38-.509-.326-.397-.671-.778-1.033-1.143-.01-.009-.018-.02-.028-.03-.661-.661-1.024-1.54-1.024-2.475 0-.935.364-1.814 1.025-2.475.662-.661 1.541-1.025 2.475-1.025.884 0 1.71.335 2.357.928.136.134.268.273.401.41.365.38.718.767 1.052 1.165.17.202.335.408.498.616.341.436.672.878.977 1.332.112.164.215.334.322.501.31.487.606.98.875 1.483.07.129.134.261.202.392.289.567.559 1.141.798 1.725.027.064.051.129.077.193 2.18 5.472 2.18 11.615 0 17.086-.026.065-.05.13-.077.195-.239.584-.51 1.158-.799 1.725-.067.13-.131.262-.201.391-.269.503-.565.996-.875 1.483-.107.168-.21.337-.322.502-.305.454-.636.896-.977 1.332-.163.207-.327.413-.497.615-.335.398-.688.786-1.054 1.166-.201.209-.405.413-.614.614-.334.321-.676.631-1.026.929m-1.812 2.615c.059-.039.12-.075.179-.115.615-.409 1.207-.845 1.78-1.307.047-.038.094-.073.14-.111.615-.502 1.204-1.034 1.765-1.594.004-.004.009-.007.014-.012.005-.005.008-.01.013-.015.559-.56 1.09-1.149 1.592-1.762.038-.047.074-.095.112-.143.461-.572.898-1.164 1.306-1.778.039-.059.075-.119.114-.179.399-.61.77-1.238 1.113-1.885.019-.037.038-.075.057-.113 1.735-3.319 2.721-7.091 2.721-11.095 0-4.004-.986-7.777-2.721-11.096-.019-.037-.038-.075-.057-.113-.343-.647-.714-1.275-1.113-1.885-.039-.059-.075-.119-.114-.178-.408-.614-.845-1.207-1.306-1.779-.038-.047-.074-.095-.112-.142-.502-.614-1.033-1.202-1.592-1.763-.005-.004-.008-.01-.013-.014-.002-.002-.004-.003-.005-.005-4.343-4.34-10.342-7.025-16.967-7.025-13.255 0-24 10.745-24 24 0 6.626 2.686 12.625 7.027 16.969.001 0 .001.001.002.002.001.001.003.002.005.004.564.564 1.157 1.098 1.775 1.603.045.037.09.07.134.107.575.462 1.169.9 1.785 1.31.058.039.118.075.177.113.61.398 1.238.77 1.884 1.112.039.021.078.04.118.061 3.319 1.733 7.09 2.719 11.093 2.719 4.003 0 7.774-.986 11.093-2.719.039-.021.079-.04.118-.061.646-.342 1.273-.713 1.883-1.111" fill="#000" fill-rule="evenodd"/></svg>