<svg width="12" height="12" viewBox="0 0 12 12" xmlns="http://www.w3.org/2000/svg"><title>meetings/webex-meetings_12</title><path d="M5.9999 11.0002c-.342 0-.676-.036-.999-.101-.058-.012-.11-.037-.168-.051-.264-.064-.526-.136-.773-.241-.035-.014-.066-.037-.1-.053-.262-.117-.517-.249-.752-.409-.016-.01-.028-.024-.043-.035-.25-.173-.487-.365-.702-.58-.283-.293-.283-.759.006-1.049.146-.147.339-.221.531-.221.192 0 .383.073.529.219.149.148.312.275.48.393.013.009.024.021.036.03.163.11.338.199.516.28.028.012.053.031.082.044.17.071.347.12.527.164.045.01.086.03.131.039.228.046.462.071.699.071 1.93 0 3.5-1.57 3.5-3.5 0-.238-.024-.471-.07-.699-.01-.045-.029-.087-.04-.131-.044-.18-.093-.358-.164-.527-.013-.029-.031-.054-.044-.083-.081-.178-.17-.352-.28-.515-.009-.013-.021-.023-.03-.036-.117-.169-.245-.331-.393-.48-.292-.293-.291-.768.002-1.06.146-.146.337-.219.529-.219.188 0 .376.073.522.214.202.203.381.427.547.661.02.029.047.054.067.083.155.23.282.478.398.732.019.041.047.079.064.121.102.24.172.496.235.754.015.063.043.123.056.186.066.323.101.657.101.999 0 2.757-2.243 5-5 5zm-1.953-3.461l0 .002c-.337-.426-.547-.957-.547-1.541 0-1.378 1.122-2.5 2.5-2.5.583 0 1.113.209 1.539.545-.07 1.899-1.593 3.422-3.492 3.494zm1.153.804c1.524-.441 2.714-1.632 3.153-3.156.044.127.081.258.106.393.023.138.041.277.041.42 0 1.378-1.122 2.5-2.5 2.5-.144 0-.285-.018-.424-.042-.137-.025-.269-.063-.398-.108l.022-.007zm-3.44-.568c-.106.107-.191.228-.265.355-.308-.649-.495-1.365-.495-2.13 0-2.757 2.243-5 5-5 .765 0 1.482.186 2.13.494-.127.075-.249.161-.357.268-.27.27-.435.616-.488.99-.399-.159-.83-.252-1.285-.252-1.93 0-3.5 1.57-3.5 3.5 0 .454.094.886.252 1.285-.374.053-.721.218-.992.49zm10.21-2.382c-.005-.045-.015-.089-.02-.135-.019-.154-.04-.307-.071-.459-.007-.04-.02-.078-.029-.117-.034-.155-.071-.309-.118-.46-.008-.027-.02-.054-.029-.081-.052-.16-.107-.317-.172-.471-.01-.024-.023-.045-.032-.068-.068-.155-.14-.308-.22-.456-.016-.03-.035-.057-.052-.087-.078-.138-.158-.274-.247-.406-.038-.056-.081-.109-.121-.164-.072-.099-.143-.2-.221-.296-.109-.132-.226-.258-.346-.381-.014-.016-.027-.032-.042-.047 0 0 0-.001-.001-.001-1.086-1.09-2.589-1.764-4.249-1.764-3.313 0-6 2.686-6 6 0 1.659.674 3.161 1.763 4.248.001 0 .001.001.002.002.042.042.088.078.131.119.097.09.193.183.296.267.105.087.215.164.325.242.045.034.088.07.135.101.141.095.286.181.434.264.019.01.038.024.059.035.156.084.316.16.48.231.014.006.028.014.043.021.161.068.326.126.492.179.021.007.04.016.061.022.158.049.319.088.481.124.032.007.064.018.096.024.16.033.324.055.488.074.035.005.07.012.106.016.201.02.404.031.608.031.244 0 .483-.019.719-.047 2.774-.332 4.967-2.552 5.25-5.34.021-.202.031-.406.031-.613 0-.204-.01-.406-.03-.607z" fill="#000" fill-rule="evenodd"/></svg>