<svg width="12" height="12" viewBox="0 0 12 12" xmlns="http://www.w3.org/2000/svg"><title>meetings/webex-calling_12</title><path d="M10.2427 7.7676c-.279-.278-.629-.437-.993-.487.157-.398.25-.827.25-1.281 0-.452-.093-.881-.25-1.279.364-.051.714-.21.993-.488.107-.108.192-.229.267-.356.306.648.49 1.362.49 2.123 0 .762-.184 1.476-.49 2.123-.075-.126-.16-.248-.267-.355m-6.231-.269c-.316-.418-.512-.934-.512-1.499 0-1.378 1.122-2.5 2.5-2.5.565 0 1.08.196 1.499.512-.006 1.92-1.567 3.481-3.487 3.487m4.325-2.363c.1.271.163.56.163.864 0 1.379-1.121 2.5-2.5 2.5-.304 0-.593-.062-.864-.163 1.565-.411 2.79-1.636 3.201-3.201m1.214 4.377c-.907.917-2.162 1.487-3.551 1.487-2.757 0-5-2.243-5-5 0-2.756 2.243-5 5-5 1.389 0 2.644.571 3.551 1.488.13.138.205.315.205.507 0 .201-.078.389-.22.531-.282.283-.777.284-1.061 0l-.001.001c-.634-.634-1.509-1.027-2.474-1.027-1.929 0-3.5 1.571-3.5 3.5 0 1.93 1.571 3.5 3.5 3.5.965 0 1.84-.392 2.474-1.026l.001.001c.284-.284.778-.282 1.061 0 .142.142.22.33.22.531 0 .192-.075.368-.205.507m.719-7.722c-.01-.01-.017-.022-.027-.033l-.002.002c-1.086-1.087-2.586-1.76-4.241-1.76-3.308 0-6 2.692-6 6 0 3.309 2.692 6 6 6 1.655 0 3.155-.672 4.241-1.759l.002.002c.01-.011.017-.023.027-.034 1.069-1.084 1.73-2.57 1.73-4.209 0-1.638-.661-3.125-1.73-4.209" fill-rule="evenodd"/></svg>