<svg width="20" height="20" viewBox="0 0 20 20" xmlns="http://www.w3.org/2000/svg"><title>meetings/webex-teams_20</title><path d="M1.7148 6.4873c.17.395.431.745.783 1.01.438.328.955.502 1.5.502.126 0 .246-.025.368-.042-.232.638-.366 1.324-.366 2.043 0 1.133.321 2.189.869 3.093l-.008 0c-.667.037-1.279.331-1.724.83-.294.328-.482.721-.571 1.141-.987-1.444-1.566-3.187-1.566-5.064 0-1.246.255-2.433.715-3.513m16.648.209c-.386-.157-.814-.23-1.257-.175-.689.092-1.274.457-1.662.971-.599-1.295-1.644-2.339-2.939-2.938.515-.387.881-.969.974-1.655.058-.444-.013-.873-.17-1.262 2.304.916 4.14 2.753 5.054 5.059m-3.363 3.304c0 .328-.036.648-.097.96-.023.118-.066.229-.097.344-.052.188-.101.375-.172.553-.052.128-.119.247-.181.369-.078.155-.154.31-.247.455-.074.116-.159.223-.242.331-.105.139-.212.275-.331.401-.09.096-.187.184-.284.273-.133.121-.27.237-.415.343-.103.075-.209.145-.318.212-.156.097-.318.184-.486.265-.115.054-.232.106-.352.152-.171.065-.348.117-.528.164-.133.034-.264.068-.4.092-.264.046-.532.079-.808.082-.041 0-.081-.003-.121-.004-.3-.005-.593-.033-.878-.089-.057-.012-.114-.029-.172-.043-.243-.057-.48-.13-.709-.221-.051-.02-.102-.037-.152-.058-.157-.069-.301-.16-.449-.243 3.431-.642 6.135-3.344 6.778-6.776.408.725.661 1.548.661 2.438m-7.867-4.084c.053-.037.105-.073.158-.108.237-.153.485-.293.747-.405.007-.003.015-.008.023-.011.267-.113.55-.196.84-.261.064-.015.128-.028.194-.04.295-.054.596-.091.905-.091 1.353 0 2.578.545 3.479 1.421-.212 3.799-3.258 6.845-7.058 7.057-.876-.9-1.421-2.126-1.421-3.478 0-1.689.847-3.179 2.133-4.084m-1.635.131c-.067.076-.133.152-.195.231-.033.042-.071.079-.104.122-.48.641-1.453.781-2.099.298-.321-.241-.529-.592-.585-.988-.049-.346.028-.689.208-.984.076-.106.153-.212.234-.314.092-.115.188-.226.284-.336.122-.139.243-.278.372-.409.054-.054.112-.103.166-.156.555-.533 1.176-.997 1.852-1.374.038-.02.074-.044.112-.064.204-.109.414-.208.627-.302.08-.036.16-.071.241-.103.192-.078.387-.15.584-.215.12-.039.241-.073.362-.108.173-.048.346-.095.523-.134.173-.037.349-.065.525-.092.137-.022.273-.048.412-.063.324-.035.651-.056.983-.056.361 0 .724.028 1.08.071.08.01.159.024.239.036.754.166 1.272.881 1.167 1.659-.109.816-.861 1.381-1.685 1.287-.023-.003-.048-.002-.07-.004-.241-.03-.483-.049-.731-.049-.222 0-.44.013-.656.038-.092.01-.181.027-.271.041-.119.018-.237.036-.354.061-.116.026-.231.058-.346.09-.082.023-.164.046-.245.072-.13.043-.257.09-.384.141-.056.023-.112.048-.169.073-.138.062-.276.126-.41.199-.029.014-.056.032-.085.048-.438.245-.844.545-1.213.898-.042.04-.087.079-.128.12-.084.085-.162.176-.241.266m5.022 12.926c-.128.008-.255.018-.384.02-.24.003-.482-.007-.721-.023-.062-.004-.125-.004-.185-.009-1.264-.113-2.5-.491-3.614-1.108-.06-.034-.118-.073-.178-.109-.194-.112-.383-.232-.568-.359-.119-.083-.233-.172-.348-.26-.12-.093-.241-.187-.357-.286-.093-.079-.179-.162-.268-.245-.233-.253-.375-.573-.395-.921-.022-.401.113-.786.38-1.084.267-.298.635-.475 1.034-.498.029-.001.057-.001.085-.001.37 0 .722.133.999.382.038.036.082.064.122.098.067.057.135.109.204.163.085.066.17.132.259.193.118.083.242.159.367.233.042.024.081.052.123.074.724.406 1.538.666 2.408.74.05.005.101.005.152.008.121.008.242.019.365.019.028 0 .055-.004.083-.004.093-.001.185-.009.278-.015.116-.007.233-.014.348-.027.029-.003.06-.003.089-.007.821-.113 1.579.471 1.688 1.286.105.778-.413 1.492-1.166 1.659-.086.013-.171.029-.258.039-.181.022-.362.033-.542.042m8.436-8.107c-.012.117-.032.231-.048.348-.022.163-.044.326-.074.486-.028.147-.065.291-.1.435-.031.123-.06.245-.094.365-.048.161-.101.321-.157.479-.034.095-.068.19-.104.282-.067.171-.139.34-.216.506-.034.074-.069.146-.105.218-.088.177-.18.351-.28.522-.03.051-.062.102-.093.154-.112.182-.227.363-.351.537-.019.027-.04.052-.058.078-.75 1.03-1.711 1.9-2.828 2.538-.003.001-.005.003-.008.005-.204.116-.414.222-.628.322-.034.016-.068.034-.102.049-.13.059-.265.109-.397.161.154-.385.224-.81.166-1.251-.093-.684-.457-1.268-.971-1.657 1.44-.666 2.57-1.885 3.121-3.386.007-.019.015-.04.022-.06.105-.295.188-.6.246-.913.007-.039.011-.078.018-.118.051-.315.085-.636.085-.966 0-.244-.018-.483-.047-.719-.004-.027-.002-.056-.006-.083-.109-.82.47-1.576 1.289-1.685.065-.008.129-.012.194-.012.722 0 1.347.524 1.472 1.244.008.057.02.115.027.173.043.356.071.719.071 1.082 0 .293-.016.581-.044.866m-1.618 5.904c.082-.089.166-.177.244-.268.124-.145.241-.294.357-.446.068-.089.135-.177.201-.268.113-.159.22-.322.323-.487.059-.092.115-.185.171-.279.099-.169.192-.341.281-.515.05-.1.098-.202.146-.302.081-.175.159-.351.23-.531.045-.113.085-.228.126-.343.062-.173.122-.346.175-.523.04-.136.072-.276.106-.415.04-.161.082-.322.115-.486.035-.179.057-.36.083-.542.018-.132.042-.262.055-.395.032-.32.049-.643.049-.97 0-.408-.032-.808-.079-1.202-.005-.042-.003-.085-.009-.127-.006-.046-.022-.087-.031-.132-.641-4.345-4.079-7.782-8.425-8.421-.042-.008-.081-.024-.124-.029-.04-.006-.082-.003-.122-.008-.397-.049-.8-.081-1.21-.081-.369 0-.733.023-1.093.062-.155.017-.306.047-.46.071-.194.031-.388.059-.579.101-.198.043-.392.097-.587.151-.132.038-.264.075-.394.118-.222.072-.44.152-.655.24-.087.036-.174.073-.26.111-.239.106-.476.217-.706.341-.036.02-.071.041-.108.062-.755.418-1.457.938-2.089 1.55-.053.052-.11.1-.162.153-.147.149-.286.308-.424.467-.104.118-.206.236-.303.358-.058.073-.123.138-.179.212-.035.046-.057.098-.089.146-1.197 1.649-1.912 3.668-1.912 5.857 0 2.891 1.241 5.493 3.211 7.32.042.044.076.092.121.133.075.067.156.125.234.189.06.052.123.102.184.152.183.146.368.286.56.419.073.05.147.099.222.149.185.12.372.234.564.343.09.051.18.1.271.148.182.096.367.184.554.268.107.048.214.095.323.14.178.072.358.136.539.198.122.042.244.085.369.122.178.052.36.096.542.139.128.031.256.065.387.09.199.039.402.066.603.093.115.015.229.036.345.048.322.031.645.049.971.049.408 0 .809-.033 1.204-.08.042-.003.083-.002.126-.008.135-.018.266-.049.4-.072.129-.023.258-.042.385-.07.2-.044.395-.097.59-.152.11-.031.221-.058.328-.092.219-.069.432-.151.644-.235.079-.033.162-.059.241-.092.284-.122.562-.255.832-.401.004-.003.009-.005.014-.007.271-.149.536-.31.792-.483.104-.069.202-.148.304-.222.144-.106.29-.208.428-.321.127-.103.246-.214.367-.323.104-.093.209-.184.31-.281.129-.126.251-.258.373-.391" fill-rule="evenodd"/></svg>