<svg width="24" height="24" viewBox="0 0 24 24" xmlns="http://www.w3.org/2000/svg"><title>meetings/webex-calling_24</title><path d="M20.4854 16.9492c-.46-.459-1.085-.689-1.714-.703.774-1.232 1.229-2.684 1.229-4.246 0-1.553-.45-2.997-1.215-4.225.64-.016 1.244-.269 1.7-.724.334-.334.545-.743.649-1.17 1.177 1.751 1.866 3.855 1.866 6.119 0 2.263-.689 4.368-1.866 6.119-.104-.428-.315-.836-.649-1.17m-13.235-.6c-.254 0-.504-.013-.752-.036-.935-1.19-1.498-2.685-1.498-4.313 0-3.86 3.14-7 7-7 1.647 0 3.161.576 4.358 1.532.018.222.042.441.042.668 0 5.045-4.105 9.149-9.15 9.149m10.132-8.817c1.009 1.213 1.618 2.771 1.618 4.468 0 3.859-3.141 7-7 7-1.722 0-3.297-.627-4.518-1.662 5.386-.122 9.727-4.434 9.9-9.806m2.463 12.164c-1.997 2.036-4.775 3.304-7.845 3.304-6.066 0-11-4.935-11-11 0-6.066 4.934-11 11-11 3.071 0 5.848 1.267 7.845 3.304.238.273.372.614.372.979 0 .4-.156.776-.439 1.061-.567.566-1.556.565-2.121 0-1.448-1.449-3.448-2.344-5.657-2.344-4.418 0-8 3.582-8 8 0 4.418 3.582 8 8 8 2.209 0 4.209-.896 5.657-2.344.566-.564 1.554-.566 2.121 0 .283.284.439.66.439 1.061 0 .365-.134.706-.372.979m.641-16.181l-.001-.001c-2.172-2.171-5.172-3.514-8.485-3.514-6.627 0-12 5.373-12 12 0 6.627 5.373 12 12 12 3.313 0 6.313-1.343 8.485-3.515l.001-.001c2.171-2.172 3.514-5.171 3.514-8.484 0-3.314-1.343-6.313-3.514-8.485" fill-rule="evenodd"/></svg>