<svg width="16" height="16" viewBox="0 0 16 16" xmlns="http://www.w3.org/2000/svg"><title>meetings/webex-teams_16</title><path d="M3.3853 10.2012c-.008 0-.016-.002-.023-.002-.653 0-1.266.253-1.726.714-.288.288-.478.632-.591.995-.654-1.159-1.045-2.485-1.045-3.908 0-1.423.391-2.749 1.045-3.908.113.366.304.711.59.997.461.46 1.073.714 1.725.714.008 0 .016-.003.025-.003-.32.668-.506 1.411-.506 2.2 0 .789.187 1.533.506 2.201zm9.4335-3.9058c-.516-1.451-1.663-2.599-3.114-3.114.452-.444.735-1.059.735-1.741 0-.407-.109-.784-.286-1.122 2.676.753 4.775 2.852 5.527 5.527-.337-.176-.715-.285-1.121-.285-.682 0-1.298.282-1.741.735zm2.0313.294c.656.134 1.15.715 1.15 1.411 0 .404-.037.799-.095 1.188-.007.047-.012.094-.02.141-.062.369-.152.728-.264 1.078-.017.056-.034.111-.052.166-.119.347-.26.684-.423 1.008-.021.041-.043.081-.065.122-.176.336-.372.66-.592.966-.005.006-.01.011-.014.017-.471.65-1.039 1.223-1.68 1.705-.006.005-.011.01-.018.014-.318.238-.655.451-1.006.64-.011.006-.023.012-.033.018-.356.189-.726.352-1.111.486-.16.057-.321.113-.486.159.186-.344.301-.732.301-1.149 0-.685-.287-1.303-.743-1.747.477-.169.919-.405 1.32-.7.072-.053.144-.106.214-.162.115-.094.225-.194.332-.297.076-.074.146-.152.219-.231.091-.101.184-.2.267-.308.14-.18.269-.368.383-.566.046-.079.081-.163.122-.244.077-.151.149-.304.212-.463.035-.09.064-.182.095-.274.054-.168.099-.34.136-.515.018-.084.038-.166.051-.252.042-.26.07-.525.07-.797l0-.003c0-.299.09-.576.246-.806.258-.383.697-.634 1.194-.634.1 0 .196.01.29.029zM8.562 13.2329c.173.073.327.178.458.309.261.26.422.62.422 1.018 0 .198-.04.387-.113.56-.109.258-.291.478-.521.633-.229.155-.506.247-.804.247l-.002 0-.002 0c-.201 0-.399-.01-.596-.026-.197-.017-.394-.041-.588-.07-.389-.058-.774-.134-1.147-.247-.497-.151-.977-.349-1.435-.594-.458-.246-.894-.537-1.302-.872-.203-.167-.4-.345-.589-.534-.316-.316-.455-.743-.415-1.156.013-.138.046-.274.099-.404.07-.174.176-.336.316-.477.282-.281.65-.422 1.019-.421.368 0 .736.14 1.017.421.726.726 1.63 1.207 2.614 1.402.328.065.665.098 1.007.098l.001 0 .001 0c.199 0 .388.04.56.113zM2.3423 4.3813c-.134-.134-.236-.287-.306-.451-.131-.306-.141-.647-.049-.965.054-.191.139-.375.275-.534.025-.03.052-.059.079-.087.354-.353.733-.669 1.137-.946.402-.277.828-.516 1.271-.713.443-.197.904-.353 1.378-.466.474-.113.961-.183 1.456-.209.002 0 .004 0 .006 0 .06-.003.118-.005.178-.006.01-.001.018-.001.028-.002.068-.001.137-.002.204-.002l.001 0c.099 0 .196.009.29.029.094.019.184.047.27.084.173.073.328.178.458.309.261.26.422.62.422 1.018 0 .198-.04.388-.114.56-.072.173-.177.328-.308.458-.13.131-.285.236-.458.308-.086.037-.176.065-.27.084-.094.02-.191.03-.29.03l-.001 0-.001 0c-.043 0-.086.001-.129.001-.006 0-.011.001-.017.001l-.001 0c-.001 0-.003 0-.004 0-.037.001-.073.002-.11.004l-.001 0-.002 0c-.318.017-.629.061-.933.134-.91.217-1.744.682-2.423 1.361-.262.261-.6.388-.942.407-.027.001-.051.014-.076.014-.092 0-.18-.035-.271-.052-.212-.041-.408-.127-.587-.263-.052-.039-.113-.059-.16-.106zm5.6836 7.751c-.878 0-1.689-.28-2.359-.75 2.997-.351 5.382-2.699 5.787-5.681.443.659.702 1.45.702 2.301 0 2.277-1.853 4.13-4.13 4.13z" fill="#000" fill-rule="evenodd"/></svg>