<svg width="48" height="48" viewBox="0 0 48 48" xmlns="http://www.w3.org/2000/svg"><title>hardware/webex-board_48</title><path d="M4.5 6l39 0c2.4852814 0 4.5 2.01471863 4.5 4.5l0 27c0 2.4852814-2.0147186 4.5-4.5 4.5l-39 0C2.01471863 42 0 39.9852814 0 37.5l0-27C0 8.01471863 2.01471863 6 4.5 6zm0 1C2.56700338 7 1 8.56700338 1 10.5l0 27C1 39.4329966 2.56700338 41 4.5 41l39 0c1.9329966 0 3.5-1.5670034 3.5-3.5l0-27C47 8.56700338 45.4329966 7 43.5 7l-39 0zm18 3l3 0c.2761424 0 .5.22385763.5.5 0 .27614237-.2238576.5-.5.5l-3 0c-.2761424 0-.5-.22385763-.5-.5 0-.27614237.2238576-.5.5-.5zm14 27l7 0c.2761424 0 .5.2238576.5.5 0 .2761424-.2238576.5-.5.5l-7 0c-.2761424 0-.5-.2238576-.5-.5 0-.2761424.2238576-.5.5-.5zM24 38c-.5522847 0-1-.4477153-1-1 0-.5522847.4477153-1 1-1 .5522847 0 1 .4477153 1 1 0 .5522847-.4477153 1-1 1z" fill="#000" fill-rule="evenodd"/></svg>