<svg width="12" height="12" viewBox="0 0 12 12" xmlns="http://www.w3.org/2000/svg"><title>meetings/webex-meetings_12</title><path d="M4.2207 8.5193c2.255-.254 4.037-2 4.346-4.238.34.505.523 1.097.523 1.718 0 1.705-1.386 3.091-3.09 3.091-.647 0-1.26-.204-1.779-.571zm-1.7012-.8711c-.488 0-.947.19-1.293.536-.212.211-.356.467-.444.744-.49-.868-.783-1.862-.783-2.928 0-3.309 2.692-6 6-6 1.079 0 2.082.299 2.957.799-.277.086-.535.23-.747.44-.363.359-.542.835-.54 1.31-.505-.246-1.07-.389-1.67-.389-2.117 0-3.839 1.722-3.839 3.84 0 .591.138 1.149.379 1.649-.007 0-.013-.001-.02-.001zm9.4522-2.2398c.019.195.028.393.028.591 0 .207-.01.411-.031.613-.041.403-.122.795-.239 1.17-.116.376-.27.735-.455 1.075-.185.34-.402.66-.647.957-.186.226-.393.433-.61.629-.211.191-.43.371-.665.53-.212.143-.437.268-.665.384-.244.122-.496.229-.758.318-.235.08-.475.151-.722.202-.39.08-.794.122-1.208.122-.4 0-.796-.039-1.179-.115-.385-.076-.759-.189-1.119-.339-.179-.074-.356-.157-.528-.249-.515-.276-.993-.63-1.418-1.055-.105-.105-.184-.227-.237-.357-.106-.261-.105-.553.001-.813.053-.13.132-.252.237-.357.079-.08.175-.13.269-.179.031-.016.056-.045.089-.058.049-.021.104-.019.156-.031.083-.02.165-.048.25-.048.085 0 .166.028.249.048.053.013.107.01.157.031.13.053.252.132.357.237.181.182.377.342.586.482.625.419 1.361.644 2.13.644 1.853 0 3.404-1.319 3.762-3.067.051-.25.078-.509.078-.774 0-.508-.098-1.003-.286-1.461-.188-.457-.466-.878-.824-1.239-.21-.212-.314-.489-.313-.766.001-.027.015-.053.017-.081.013-.155.063-.302.143-.441.048-.083.089-.169.161-.24.008-.009.021-.011.03-.019.1-.092.209-.168.327-.215.044-.018.092-.015.137-.027.089-.022.177-.051.268-.051.087.001.17.03.255.051.051.012.104.01.154.03.117.049.225.125.324.217.01.01.023.013.032.023.332.335.614.706.854 1.099.166.269.314.547.433.838.073.179.139.361.194.546.112.371.188.754.226 1.145z" fill="#000" fill-rule="evenodd"/></svg>