<svg width="16" height="16" viewBox="0 0 16 16" xmlns="http://www.w3.org/2000/svg"><title>meetings/webex-instant-meeting_16</title><path d="M14.9999 13.9949c0 .552-.449 1-1 1l-12 0c-.551 0-1-.448-1-1l0-11.995c0-.551.449-1 1-1l12 0c.551 0 1 .449 1 1l0 11.995zm-1-13.995c1.103 0 2 .897 2 2l0 11.995c0 1.104-.897 2-2 2l-12 0c-1.103 0-2-.896-2-2l0-11.995c0-1.103.897-2 2-2l12 0zm-6 11.9998c-.557 0-1.086-.115-1.568-.321 2.505-1.017 4.186-3.381 4.186-6.061 0-.222-.027-.44-.05-.659.868.735 1.432 1.818 1.432 3.041 0 2.206-1.794 4-4 4zm-4-4c0-2.205 1.794-4 4-4 .507 0 .987.104 1.434.277.113.438.184.886.184 1.341 0 2.505-1.744 4.687-4.254 5.367-.829-.733-1.364-1.793-1.364-2.985zm4-5c-2.757 0-5 2.243-5 5 0 2.757 2.243 5 5 5 2.757 0 5-2.243 5-5 0-2.757-2.243-5-5-5z" fill="#000" fill-rule="evenodd"/></svg>