<svg width="10" height="10" viewBox="0 0 10 10" xmlns="http://www.w3.org/2000/svg"><title>meetings/webex-calling_10</title><path d="M8.5356 6.4141c-.208-.208-.465-.315-.732-.376.121-.324.196-.672.196-1.038 0-.367-.075-.714-.196-1.039.267-.061.525-.168.732-.375.056-.056.08-.126.125-.188.215.492.339 1.032.339 1.602 0 .57-.124 1.11-.339 1.601-.045-.06-.07-.131-.125-.187m-5.036-.414c-.081 0-.157-.02-.236-.027-.163-.289-.264-.619-.264-.973 0-1.103.897-2 2-2 .357 0 .687.101.977.266.009.078.023.154.023.234 0 1.379-1.121 2.5-2.5 2.5m3.383-1.649c.071.206.117.42.117.649 0 1.102-.897 2-2 2-.228 0-.443-.047-.648-.117 1.243-.314 2.217-1.288 2.531-2.532m.952 3.466c-.724.73-1.727 1.183-2.835 1.183-2.205 0-4-1.794-4-4 0-2.206 1.795-4 4-4 1.108 0 2.111.453 2.835 1.183.186.196.185.503-.006.696-.195.194-.512.196-.708 0l-.001.001c-.542-.544-1.292-.88-2.12-.88-1.654 0-3 1.346-3 3 0 1.654 1.346 3 3 3 .828 0 1.578-.336 2.12-.88l.001.001c.195-.195.513-.195.707 0 .192.192.193.5.007.696m.715-6.332c-.006-.006-.007-.014-.014-.02l-.001.002c-.906-.907-2.156-1.467-3.535-1.467-2.756 0-5 2.243-5 5 0 2.757 2.244 5 5 5 1.379 0 2.629-.561 3.535-1.467l.001.002c.007-.006.008-.015.014-.02.895-.905 1.45-2.146 1.45-3.515 0-1.369-.555-2.61-1.45-3.515" fill-rule="evenodd"/></svg>