<svg width="20" height="20" viewBox="0 0 20 20" fill="none" xmlns="http://www.w3.org/2000/svg">
<path fill-rule="evenodd" clip-rule="evenodd" d="M16.4982 2C17.8762 2 18.9981 3.121 18.9981 4.5C18.9981 5.879 17.8762 7 16.4982 7C16.0633 7 15.6323 6.884 15.2503 6.664C15.1743 6.62 15.0883 6.598 15.0013 6.598C14.9573 6.598 14.9143 6.604 14.8723 6.614L14.2054 6.793L14.3843 6.127C14.4183 5.998 14.4003 5.862 14.3343 5.747C14.1144 5.366 13.9984 4.936 13.9984 4.5C13.9984 3.121 15.1203 2 16.4982 2ZM13.0154 7.37C12.9694 7.543 13.0184 7.728 13.1444 7.854C13.2394 7.948 13.3674 8 13.4984 8C13.5414 8 13.5844 7.994 13.6274 7.983L14.9393 7.632C15.4243 7.873 15.9593 8 16.4982 8C18.4281 8 19.998 6.43 19.998 4.5C19.998 2.57 18.4281 1 16.4982 1C14.5683 1 12.9984 2.57 12.9984 4.5C12.9984 5.04 13.1254 5.574 13.3674 6.059L13.0154 7.37ZM14.9758 18C14.9718 17.965 14.9828 17.928 14.9738 17.893L14.5398 16H17.4177C18.0396 16 18.5806 16.439 18.7306 17.059L18.9356 18H14.9758ZM1.02557 18L1.47354 16.043C1.77953 14.84 2.87647 14 4.1424 14H10.857C12.122 14 13.2189 14.84 13.5219 16.031L13.9729 18H1.02557ZM3.99841 9.5C3.99841 7.57 5.56932 6 7.49822 6C9.42811 6 10.998 7.57 10.998 9.5C10.998 11.43 9.42811 13 7.49822 13C5.56932 13 3.99841 11.43 3.99841 9.5ZM15.4978 11C16.6007 11 17.4977 11.896 17.4977 13C17.4977 14.104 16.6007 15 15.4978 15C14.3958 15 13.4979 14.104 13.4979 13C13.4979 11.896 14.3958 11 15.4978 11ZM19.7046 16.835C19.4666 15.85 18.6626 15.143 17.6997 15.024C18.1906 14.49 18.4976 13.783 18.4976 13C18.4976 11.344 17.1547 10 15.4978 10C13.8419 10 12.4979 11.344 12.4979 13C12.4979 13.137 12.5209 13.268 12.5379 13.4C12.029 13.147 11.458 13 10.857 13H10.2951C11.326 12.176 11.998 10.922 11.998 9.5C11.998 7.015 9.98408 5 7.49822 5C5.01335 5 2.99846 7.015 2.99846 9.5C2.99846 10.922 3.67142 12.176 4.70237 13H4.1424C2.41949 13 0.923572 14.15 0.501595 15.809L0.0276206 17.881C-0.0403757 18.15 0.0186211 18.431 0.188612 18.65C0.361603 18.872 0.623588 19 0.906573 19H14.0929C14.1449 19 14.1889 18.975 14.2399 18.967C14.2379 18.978 14.2399 18.988 14.2379 19H19.2666C19.4916 19 19.6996 18.898 19.8395 18.721C19.9815 18.54 20.0315 18.309 19.9805 18.096L19.7046 16.835Z" fill="#121212"/>
</svg>
