<svg width="16" height="16" viewBox="0 0 16 16" xmlns="http://www.w3.org/2000/svg"><title>format/webpop_16</title><path d="M15 12l0-8c0-.551-.449-1-1-1L2 3c-.551 0-1 .449-1 1l0 8c0 .551.449 1 1 1l12 0c.551 0 1-.449 1-1zM14 2c1.103 0 2 .897 2 2l0 8c0 1.103-.897 2-2 2L2 14c-1.103 0-2-.897-2-2l0-8c0-1.103.897-2 2-2l12 0zM8 5c.276 0 .5.224.5.5 0 .276-.224.5-.5.5-.276 0-.5-.224-.5-.5 0-.276.224-.5.5-.5zm0 2c.275 0 .5.225.5.5l0 3c0 .275-.225.5-.5.5-.275 0-.5-.225-.5-.5l0-3c0-.275.225-.5.5-.5z" fill-rule="evenodd"/></svg>