<svg width="14" height="14" viewBox="0 0 14 14" xmlns="http://www.w3.org/2000/svg"><title>activities/whiteboard_14</title><path d="M12.6113372 3.245l-1.069 1.068-1.87800002-1.878 1.06900002-1.068c.501-.502 1.376-.502 1.878 0 .518.518.518 1.36 0 1.878zm-9.05700002 9.057l-2.4.522.521-2.4 7.282-7.282L10.8353372 5.02l-7.28100002 7.282zM13.3183372.66c-.879-.88-2.414-.88-3.292 0L.865337179 9.821c-.068.068-.115.153-.135.247l-.7190000004 3.303c-.036.167.015.34.1350000004.46.095.095.223.147.354.147.035 0 .071-.004.106-.011l3.304000001-.719c.093-.02.179-.067.247-.135l9.16100002-9.161c.908-.908.908-2.384 0-3.292z" fill="#000" fill-rule="evenodd"/></svg>