<svg width="16" height="16" viewBox="0 0 16 16" xmlns="http://www.w3.org/2000/svg"><title>sources-and-media/whiteboard-content_16</title><path d="M16 7.4971l0 5.503c0 .002 0 .004 0 .006-.003 1.1-.898 1.994-2 1.994l-12 0c-1.103 0-2-.897-2-2l0-8c0-1.103.897-2 2-2l5.5 0c.276 0 .5.224.5.5 0 .276-.224.5-.5.5l-5.5 0c-.551 0-1 .449-1 1l0 8c0 .552.449 1 1 1l12 0c.551 0 1-.448 1-1l0-5.5c0-.276.225-.5.5-.5.275 0 .499.223.5.497zM5.5682 8.88c.019-.085.062-.164.124-.226l7.105-7.106c.366-.365.846-.548 1.327-.548.48 0 .961.183 1.326.548.732.732.732 1.922 0 2.654l-7.105 7.105c-.062.062-.141.105-.227.124l-2.562.557c-.032.007-.065.011-.097.011-.121 0-.238-.048-.324-.135-.11-.11-.157-.269-.124-.421l.557-2.563zm.943.369l-.344 1.583 1.583-.344 5.545-5.545-1.239-1.239-5.545 5.545zm6.993-6.993l-.741.741 1.239 1.239.741-.741c.342-.342.342-.898 0-1.239-.165-.165-.384-.256-.619-.256-.235 0-.455.091-.62.256z" fill="#000" fill-rule="evenodd"/></svg>