<svg width="20" height="20" viewBox="0 0 20 20" xmlns="http://www.w3.org/2000/svg"><title>activities/whiteboard_20</title><path d="M18.364 4.7063l-1.725 1.725-3.071-3.072 1.724-1.724c.821-.821 2.252-.821 3.072 0 .846.846.846 2.224 0 3.071zM5.078 17.9913l-3.924.854.853-3.925 10.854-10.854 3.071 3.072-10.854 10.853zM19.071.9283c-1.237-1.238-3.249-1.238-4.486 0L1.196 14.3173c-.068.068-.115.154-.135.247l-1.05 4.828c-.036.167.015.34.135.46.095.095.223.146.354.146.035 0 .071-.003.106-.011l4.828-1.05c.094-.02.18-.067.248-.135l13.389-13.389c1.236-1.237 1.236-3.249 0-4.485z" fill-rule="evenodd"/></svg>