<svg width="26" height="26" viewBox="0 0 26 26" xmlns="http://www.w3.org/2000/svg"><title>activities/whiteboard_26</title><path d="M24.1167324 6.14575l-2.381 2.381-4.265-4.265 2.381-2.381c1.14-1.139 3.125-1.139 4.265 0 .57.57.883 1.327.883 2.133 0 .805-.313 1.562-.883 2.132zm-17.51299997 17.514l-5.45 1.184 1.185-5.449 14.42499997-14.426 4.265 4.265-14.42499997 14.426zm18.21999997-22.486c-1.565-1.565-4.113-1.565-5.679 0l-17.61699997 17.618c-.068.067-.115.153-.136.247l-1.3800000041 6.353c-.037.166.015.339.1350000001.46.095.094.222.146.353.146.035 0 .071-.004.106-.011l6.353000004-1.381c.094-.021.18-.067.248-.135l17.61699997-17.618c1.566-1.565 1.566-4.113 0-5.679z" fill="#000" fill-rule="evenodd"/></svg>