<svg width="10" height="10" viewBox="0 0 10 10" xmlns="http://www.w3.org/2000/svg"><title>activities/whiteboard_10</title><path d="M8.14506079 2.9261513L7.06209628 1.84133423l.63097933-.63205869c.28899052-.289484891.79397397-.289484891 1.0829645 0 .14499525.14524328.22399266.33756542.22399266.54190769 0 .20534395-.07899741.39766609-.22399266.54290938l-.63097932.63205869zM2.53824455 8.54255879l-1.38395465.30150502.30099014-1.38632209 4.89983941-4.90822127 1.08296451 1.08481707-4.89983941 4.90822127zM6.98609878.501089325L.644306616 6.85373c-.067997771.06811409-.114996231.15425838-.135995543.24841609L.0113273611 9.39298325c-.0359988202.16627851.0149995084.33956877.1359955429.45977011C.241319824 9.94791275.369315629 10 .500311336 10c.034998852 0 .070997673-.00400671.105996526-.01101846l2.286925048-.49783387c.09399692-.02103523.1799941-.06811409.24799187-.13622818l6.34179216-6.35264067C9.817006 2.66872011 10 2.22397516 10 1.75118323c0-.47179025-.182994-.916535195-.51698306-1.250093905-.66697814-.6681191-1.82994002-.6681191-2.49691816 0z" fill="#000" fill-rule="evenodd"/></svg>