<svg width="8" height="8" viewBox="0 0 8 8" xmlns="http://www.w3.org/2000/svg"><title>activities/whiteboard_8</title><path d="M6.8581 1.82649l-.412.412-.685-.685.412-.413c.189-.188.496-.188.685 0 .189.189.189.497 0 .686zm-4.829 4.829l-.875.19.19-.875 3.71-3.71.685.685-3.71 3.71zm5.536-6.222c-.579-.579-1.52-.578-2.099 0l-4.933 4.934c-.068.067-.115.153-.135.247l-.387 1.778c-.036.167.015.34.135.46.095.095.223.147.354.147.035 0 .071-.004.106-.011l1.779-.387c.094-.021.179-.067.247-.135l4.933-4.933c.579-.579.579-1.52 0-2.1z" fill="#000" fill-rule="evenodd"/></svg>