<svg width="20" height="20" viewBox="0 0 20 20" xmlns="http://www.w3.org/2000/svg"><title>content/widgets-adr_20</title><path d="M4 18c-1.1 0-2-.9-2-2l0-3c0-1.1.9-2 2-2l3 0c1.1 0 2 .9 2 2l0 3c0 1.1-.9 2-2 2l-3 0zm-1-5l0 3c0 .552.448 1 1 1l3 0c.552 0 1-.448 1-1l0-3c0-.553-.448-1-1-1l-3 0c-.552 0-1 .447-1 1zm10 5c-1.1 0-2-.9-2-2l0-3c0-1.1.9-2 2-2l3 0c1.1 0 2 .9 2 2l0 3c0 1.1-.9 2-2 2l-3 0zm-1-5l0 3c0 .552.448 1 1 1l3 0c.552 0 1-.448 1-1l0-3c0-.553-.448-1-1-1l-3 0c-.552 0-1 .447-1 1zM4 9c-1.1 0-2-.9-2-2l0-3c0-1.1.9-2 2-2l3 0c1.1 0 2 .9 2 2l0 3c0 1.1-.9 2-2 2L4 9zM3 4l0 3c0 .552.448 1 1 1l3 0c.552 0 1-.448 1-1l0-3c0-.552-.448-1-1-1L4 3c-.552 0-1 .448-1 1zm12.9144 5.036c-.778.777-2.051.777-2.828 0l-2.122-2.122c-.778-.778-.778-2.05 0-2.828l2.122-2.122c.777-.778 2.05-.778 2.828 0l2.121 2.122c.778.778.778 2.05 0 2.828l-2.121 2.122zm-4.243-2.829l2.122 2.122c.389.39 1.023.39 1.414 0l2.121-2.122c.39-.39.39-1.024 0-1.414l-2.121-2.122c-.391-.39-1.024-.39-1.414 0l-2.122 2.122c-.39.39-.39 1.023 0 1.414z" fill-rule="evenodd"/></svg>