<svg width="16" height="16" viewBox="0 0 16 16" xmlns="http://www.w3.org/2000/svg"><title>network/wifi_16</title><path d="M7.5 14.4998c0-.275.225-.5.5-.5.275 0 .5.225.5.5 0 .275-.225.5-.5.5-.275 0-.5-.225-.5-.5zm.49983538-8.5c1.95 0 3.78600002.646 5.31000002 1.868.215.173.25.488.077.703-.099.123-.243.187-.39.187-.11 0-.221-.036-.312-.11-1.345-1.078-2.96500002-1.648-4.68500002-1.648-1.72 0-3.34.57-4.685 1.648-.212.173-.529.14-.702-.077-.173-.215-.138-.53.077-.703 1.524-1.222 3.36-1.868 5.31-1.868zM15.8123354 4.742c.216.173.25.487.077.703-.098.123-.243.187-.389.187-.111 0-.221-.036-.313-.11-2.058-1.65-4.543-2.522-7.18700002-2.522-2.645 0-5.13.872-7.188000001 2.522-.213.172-.529.139-.702-.077-.1730000002-.216-.1390000002-.53.077-.703C2.39233538 2.974 5.16633538 2 8.00033538 2c2.83300002 0 5.60700002.974 7.81200002 2.742zM5.19803538 11.0008c1.635-1.31 3.969-1.31 5.60400002 0 .215.173.25.487.078.703-.1.123-.245.188-.391.188-.11 0-.221-.037-.312-.11-1.27800002-1.023-3.07700002-1.023-4.35400002 0-.213.171-.528.138-.703-.078-.172-.216-.138-.53.078-.703z" fill="#000" fill-rule="evenodd"/></svg>