<svg width="24" height="24" viewBox="0 0 24 24" xmlns="http://www.w3.org/2000/svg"><title>network/wifi_24</title><path d="M11.5 20.5c0-.275.225-.5.5-.5.275 0 .5.225.5.5 0 .275-.225.5-.5.5-.275 0-.5-.225-.5-.5zm-4.3471-4.544c1.312-1.262 3.034-1.956 4.847-1.956 1.815 0 3.536.691 4.845 1.948.199.191.205.507.014.706-.191.2-.507.208-.707.015-1.122-1.076-2.596-1.669-4.152-1.669-1.554 0-3.029.596-4.153 1.677-.097.094-.222.139-.347.139-.131 0-.262-.051-.36-.153-.192-.199-.185-.516.013-.707zm16.6956-7.1464c.198.192.202.509.01.707-.192.197-.51.203-.707.01-3.003-2.919-6.963-4.527-11.152-4.527-4.188 0-8.148 1.608-11.151 4.527-.097.095-.223.141-.349.141-.13 0-.26-.05-.358-.151-.192-.198-.188-.515.01-.707 3.191-3.102 7.399-4.81 11.848-4.81 4.451 0 8.659 1.708 11.849 4.81zM11.9999 9c3.206 0 6.219 1.248 8.485 3.515.196.195.196.511 0 .707-.097.097-.225.146-.353.146-.128 0-.256-.049-.354-.146-2.077-2.077-4.84-3.222-7.778-3.222-2.938 0-5.701 1.145-7.778 3.222-.196.195-.512.195-.707 0-.196-.196-.196-.512 0-.707C5.7809 10.248 8.7939 9 11.9999 9z" fill="#000" fill-rule="evenodd"/></svg>