<svg width="24" height="24" viewBox="0 0 24 24" fill="none" xmlns="http://www.w3.org/2000/svg">
<path fill-rule="evenodd" clip-rule="evenodd" d="M18 12C14.687 12 12 14.687 12 18C12 21.313 14.687 24 18 24C21.313 24 24 21.313 24 18C24 14.687 21.313 12 18 12ZM20.1465 15.98L17.1665 18.959L15.8535 17.647C15.6585 17.451 15.3415 17.451 15.1465 17.647C14.9515 17.842 14.9515 18.158 15.1465 18.354L16.8135 20.02C16.9105 20.118 17.0385 20.167 17.1665 20.167C17.2945 20.167 17.4225 20.118 17.5205 20.02L20.8535 16.687C21.0485 16.492 21.0485 16.175 20.8535 15.98C20.6585 15.785 20.3415 15.785 20.1465 15.98Z" fill="#00A0D1"/>
<path fill-rule="evenodd" clip-rule="evenodd" d="M12.0009 6C8.54043 6 5.40916 7.40551 3.14524 9.67803C2.95035 9.87366 2.63376 9.87426 2.43813 9.67937C2.2425 9.48448 2.2419 9.16789 2.43679 8.97226C4.88068 6.5191 8.26386 5 12.0009 5C15.743 5 19.1302 6.52318 21.5748 8.98213C21.7695 9.17797 21.7686 9.49455 21.5728 9.68924C21.3769 9.88393 21.0604 9.88301 20.8657 9.68717C18.601 7.40928 15.466 6 12.0009 6ZM11.9993 10C9.66102 10 7.5441 10.9435 6.0068 12.4717C5.81096 12.6664 5.49438 12.6655 5.2997 12.4696C5.10502 12.2738 5.10595 11.9572 5.30179 11.7625C7.01881 10.0556 9.38625 9 11.9993 9C13.7041 9 15.3055 9.44952 16.6897 10.2368C16.9297 10.3734 17.0136 10.6786 16.8771 10.9187C16.7406 11.1587 16.4353 11.2426 16.1953 11.1061C14.9578 10.4022 13.5262 10 11.9993 10ZM8.84301 15.2935C9.65585 14.4931 10.77 14 12.0003 14C12.0403 14 12.0801 14.0005 12.1199 14.0016C12.3959 14.0087 12.6255 13.7908 12.6327 13.5147C12.6399 13.2387 12.4219 13.0091 12.1459 13.0019C12.0975 13.0006 12.0489 13 12.0003 13C10.497 13 9.13367 13.6038 8.14136 14.581C7.9446 14.7747 7.94217 15.0913 8.13593 15.288C8.32968 15.4848 8.64626 15.4872 8.84301 15.2935Z" fill="#121212"/>
</svg>
