<svg width="16" height="16" viewBox="0 0 16 16" xmlns="http://www.w3.org/2000/svg"><title>social/wikipedia_16</title><path d="M15.9666 2.9395l-3.307 0-.042.03 0 .289c0 .034.016.063.046.084.032.023.063.035.097.035l.274.014c.339.014.432.082.563.195.131.117.146.315.045.595l-2.927 6.946-.112-.031-1.859-3.802c.026-.052.043-.089.043-.089l1.521-2.843c.177-.301.347-.569.434-.693.159-.228.247-.271.68-.292.089 0 .134-.039.134-.119l0-.287-.033-.031c0 0-1.861-.005-2.689 0l-.041.03 0 .288c0 .035.015.063.045.085.031.022.063.034.097.034l.133.015c.337.013.494.102.54.157.081.099.121.206-.075.633l-1.17 2.333-1.057-2.163c-.347-.692-.433-.906.09-.947l.207-.029c.1 0 .149-.036.149-.104l0-.303-.075-.025c0 0-1.968 0-2.853.001l-.041.03 0 .303c0 .068.072.086.208.104.49.065.48.116.964 1.075.073.144.285.577.285.577l1.103 2.166c0 0 .126.28.32.711l-1.602 3.197-.092-.023c0 0-2.486-5.245-3.207-7-.074-.181-.109-.316-.109-.399 0-.178.162-.275.483-.288l.375-.016c.1 0 .15-.038.15-.118l0-.288-.034-.029c0 0-2.978-.004-3.594 0l-.034.029 0 .303c0 .055.07.088.208.103.378.02.627.081.746.182.119.101.245.358.412.758.905 2.172 2.826 6.047 3.761 8.254.27.603.609.696 1.02-.018.423-.785 1.274-2.525 1.897-3.81.583 1.282 1.375 3.015 1.757 3.802.305.629.651.69 1.004.019.921-2.048 3.612-8.208 3.612-8.208.117-.303.279-.535.488-.704.208-.168.529-.262.962-.281.088 0 .133-.04.133-.118l0-.289-.033-.03z" fill-rule="evenodd"/></svg>