<svg width="16" height="16" viewBox="0 0 16 16" xmlns="http://www.w3.org/2000/svg"><title>format/window-vertical-scrub_16</title><path d="M15.5 8L9 8l0-4.297 2.146 2.151c.196.195.512.195.708 0 .195-.196.195-.512 0-.708l-3-3.005c-.093-.092-.221-.139-.349-.14C8.503 2.001 8.502 2 8.5 2c-.13 0-.26.047-.354.141l-3 3.005c-.195.196-.195.512 0 .708.098.097.226.146.354.146.128 0 .256-.049.354-.146L8 3.702 8 8 1.5 8c-.275 0-.5.225-.5.5 0 .275.225.5.5.5L8 9l0 4.297-2.146-2.151c-.196-.195-.512-.195-.708 0-.195.196-.195.512 0 .708l3 3.005c.188.188.52.188.708 0l3-3.005c.195-.196.195-.512 0-.708-.098-.097-.226-.146-.354-.146-.128 0-.256.049-.354.146L9 13.298 9 9l6.5 0c.275 0 .5-.225.5-.5 0-.275-.225-.5-.5-.5" fill="#000" fill-rule="evenodd"/></svg>