<svg width="14" height="14" viewBox="0 0 14 14" xmlns="http://www.w3.org/2000/svg"><title>format/zoom-in_14</title><path d="M5.5 10C7.981 10 10 7.981 10 5.5 10 3.019 7.981 1 5.5 1 3.019 1 1 3.019 1 5.5 1 7.981 3.019 10 5.5 10zm8.354 3.146c.195.196.195.512 0 .708-.098.097-.226.146-.354.146-.128 0-.256-.049-.354-.146l-4.129-4.13C8.063 10.52 6.837 11 5.5 11 2.467 11 0 8.532 0 5.5 0 2.468 2.467 0 5.5 0 8.533 0 11 2.468 11 5.5c0 1.337-.48 2.563-1.276 3.517l4.13 4.129zM7.5 5c.275 0 .5.225.5.5 0 .275-.225.5-.5.5L6 6l0 1.5c0 .275-.225.5-.5.5-.275 0-.5-.225-.5-.5L5 6 3.5 6c-.275 0-.5-.225-.5-.5 0-.275.225-.5.5-.5L5 5l0-1.5c0-.275.225-.5.5-.5.275 0 .5.225.5.5L6 5l1.5 0z" fill-rule="evenodd"/></svg>