<svg width="12" height="12" viewBox="0 0 12 12" xmlns="http://www.w3.org/2000/svg"><title>format/zoom-in_12</title><path d="M9.002 8.294l1.852 1.852c.195.196.195.512 0 .708-.098.097-.226.146-.354.146-.128 0-.256-.049-.354-.146L8.295 9.001C7.525 9.617 6.562 10 5.5 10 3.015 10 1 7.985 1 5.5 1 3.015 3.015 1 5.5 1 7.985 1 10 3.015 10 5.5c0 1.062-.383 2.025-.998 2.794zM5.5 9C7.43 9 9 7.43 9 5.5 9 3.57 7.43 2 5.5 2 3.57 2 2 3.57 2 5.5 2 7.43 3.57 9 5.5 9zm2-4c.275 0 .5.225.5.5 0 .275-.225.5-.5.5L6 6l0 1.5c0 .275-.225.5-.5.5-.275 0-.5-.225-.5-.5L5 6 3.5 6c-.275 0-.5-.225-.5-.5 0-.275.225-.5.5-.5L5 5l0-1.5c0-.275.225-.5.5-.5.275 0 .5.225.5.5L6 5l1.5 0z" fill="#000" fill-rule="evenodd"/></svg>